<?xml version="1.0" encoding="UTF-8" standalone="no"?>
<!DOCTYPE svg PUBLIC "-//W3C//DTD SVG 1.1//EN"
 "http://www.w3.org/Graphics/SVG/1.1/DTD/svg11.dtd">
<!-- Generated by graphviz version 2.38.0 (20140413.2041)
 -->
<!-- Title: mainfunc Pages: 1 -->
<svg width="713pt" height="85pt"
 viewBox="0.00 0.00 713.00 85.00" xmlns="http://www.w3.org/2000/svg" xmlns:xlink="http://www.w3.org/1999/xlink">
<g id="graph0" class="graph" transform="scale(1 1) rotate(0) translate(4 81)">
<title>mainfunc</title>
<!-- Node1 -->
<g id="node1" class="node"><title>Node1</title>
<polygon fill="#bfbfbf" stroke="black" points="0,-19.5 0,-38.5 54,-38.5 54,-19.5 0,-19.5"/>
<text text-anchor="middle" x="27" y="-26.5" font-family="Helvetica,sans-Serif" font-size="10.00">mainfunc</text>
</g>
<!-- Node2 -->
<g id="node2" class="node"><title>Node2</title>
<g id="a_node2"><a xlink:href="../../d7/d09/lparser_8h.html#af454a43b1cd59d15997af813448e3dbf" target="_top" xlink:title="luaY_parser">
<polygon fill="none" stroke="black" points="90,-19.5 90,-38.5 158,-38.5 158,-19.5 90,-19.5"/>
<text text-anchor="middle" x="124" y="-26.5" font-family="Helvetica,sans-Serif" font-size="10.00">luaY_parser</text>
</a>
</g>
</g>
<!-- Node1&#45;&gt;Node2 -->
<g id="edge1" class="edge"><title>Node1&#45;&gt;Node2</title>
<path fill="none" stroke="midnightblue" d="M64.4168,-29C72.7429,-29 81.5502,-29 89.7361,-29"/>
<polygon fill="midnightblue" stroke="midnightblue" points="64.2107,-25.5001 54.2106,-29 64.2106,-32.5001 64.2107,-25.5001"/>
</g>
<!-- Node3 -->
<g id="node3" class="node"><title>Node3</title>
<g id="a_node3"><a xlink:href="../../d3/d08/ldo_8c.html#a14df0fa118ab124dfcc6d227bdd38ca5" target="_top" xlink:title="f_parser">
<polygon fill="none" stroke="black" points="194,-19.5 194,-38.5 245,-38.5 245,-19.5 194,-19.5"/>
<text text-anchor="middle" x="219.5" y="-26.5" font-family="Helvetica,sans-Serif" font-size="10.00">f_parser</text>
</a>
</g>
</g>
<!-- Node2&#45;&gt;Node3 -->
<g id="edge2" class="edge"><title>Node2&#45;&gt;Node3</title>
<path fill="none" stroke="midnightblue" d="M168.37,-29C177.136,-29 186.061,-29 193.903,-29"/>
<polygon fill="midnightblue" stroke="midnightblue" points="168.228,-25.5001 158.228,-29 168.228,-32.5001 168.228,-25.5001"/>
</g>
<!-- Node4 -->
<g id="node4" class="node"><title>Node4</title>
<g id="a_node4"><a xlink:href="../../d2/dd9/ldo_8h.html#a5dffa85d966f14d3f3464db580f5b3fa" target="_top" xlink:title="luaD_protectedparser">
<polygon fill="none" stroke="black" points="281,-19.5 281,-38.5 388,-38.5 388,-19.5 281,-19.5"/>
<text text-anchor="middle" x="334.5" y="-26.5" font-family="Helvetica,sans-Serif" font-size="10.00">luaD_protectedparser</text>
</a>
</g>
</g>
<!-- Node3&#45;&gt;Node4 -->
<g id="edge3" class="edge"><title>Node3&#45;&gt;Node4</title>
<path fill="none" stroke="midnightblue" d="M255.176,-29C263.263,-29 272.055,-29 280.73,-29"/>
<polygon fill="midnightblue" stroke="midnightblue" points="255.019,-25.5001 245.019,-29 255.019,-32.5001 255.019,-25.5001"/>
</g>
<!-- Node5 -->
<g id="node5" class="node"><title>Node5</title>
<g id="a_node5"><a xlink:href="../../da/dd2/lua_8h.html#a3f4c1ed5e0bd437dc527d62c5768b463" target="_top" xlink:title="lua_load">
<polygon fill="none" stroke="black" points="424,-19.5 424,-38.5 477,-38.5 477,-19.5 424,-19.5"/>
<text text-anchor="middle" x="450.5" y="-26.5" font-family="Helvetica,sans-Serif" font-size="10.00">lua_load</text>
</a>
</g>
</g>
<!-- Node4&#45;&gt;Node5 -->
<g id="edge4" class="edge"><title>Node4&#45;&gt;Node5</title>
<path fill="none" stroke="midnightblue" d="M398.321,-29C407.289,-29 416.062,-29 423.741,-29"/>
<polygon fill="midnightblue" stroke="midnightblue" points="398.162,-25.5001 388.162,-29 398.162,-32.5001 398.162,-25.5001"/>
</g>
<!-- Node6 -->
<g id="node6" class="node"><title>Node6</title>
<g id="a_node6"><a xlink:href="../../da/d29/lauxlib_8h.html#a8c38c6dcf9db7e110e525b46742bacf8" target="_top" xlink:title="luaL_loadfilex">
<polygon fill="none" stroke="black" points="519,-57.5 519,-76.5 593,-76.5 593,-57.5 519,-57.5"/>
<text text-anchor="middle" x="556" y="-64.5" font-family="Helvetica,sans-Serif" font-size="10.00">luaL_loadfilex</text>
</a>
</g>
</g>
<!-- Node5&#45;&gt;Node6 -->
<g id="edge5" class="edge"><title>Node5&#45;&gt;Node6</title>
<path fill="none" stroke="midnightblue" d="M486.785,-41.9547C500.621,-47.0349 516.211,-52.7587 528.991,-57.4509"/>
<polygon fill="midnightblue" stroke="midnightblue" points="487.678,-38.5543 477.084,-38.3933 485.265,-45.1254 487.678,-38.5543"/>
</g>
<!-- Node8 -->
<g id="node8" class="node"><title>Node8</title>
<g id="a_node8"><a xlink:href="../../da/d29/lauxlib_8h.html#a3ab1955dd9322cf03e2d3626ebfae669" target="_top" xlink:title="luaL_loadbufferx">
<polygon fill="none" stroke="black" points="513,-19.5 513,-38.5 599,-38.5 599,-19.5 513,-19.5"/>
<text text-anchor="middle" x="556" y="-26.5" font-family="Helvetica,sans-Serif" font-size="10.00">luaL_loadbufferx</text>
</a>
</g>
</g>
<!-- Node5&#45;&gt;Node8 -->
<g id="edge7" class="edge"><title>Node5&#45;&gt;Node8</title>
<path fill="none" stroke="midnightblue" d="M487.151,-29C495.413,-29 504.283,-29 512.795,-29"/>
<polygon fill="midnightblue" stroke="midnightblue" points="487.084,-25.5001 477.084,-29 487.084,-32.5001 487.084,-25.5001"/>
</g>
<!-- Node9 -->
<g id="node9" class="node"><title>Node9</title>
<g id="a_node9"><a xlink:href="../../d8/dd3/lbaselib_8c.html#a4a9a3613fcf80fe033e044f7e19bed69" target="_top" xlink:title="luaB_load">
<polygon fill="none" stroke="black" points="640.5,-0.5 640.5,-19.5 699.5,-19.5 699.5,-0.5 640.5,-0.5"/>
<text text-anchor="middle" x="670" y="-7.5" font-family="Helvetica,sans-Serif" font-size="10.00">luaB_load</text>
</a>
</g>
</g>
<!-- Node5&#45;&gt;Node9 -->
<g id="edge9" class="edge"><title>Node5&#45;&gt;Node9</title>
<path fill="none" stroke="midnightblue" d="M486.272,-16.2775C494.89,-13.6774 504.184,-11.3307 513,-10 557.053,-3.35012 608.904,-5.24638 640.342,-7.45143"/>
<polygon fill="midnightblue" stroke="midnightblue" points="484.988,-13.0135 476.535,-19.4005 487.126,-19.6791 484.988,-13.0135"/>
</g>
<!-- Node7 -->
<g id="node7" class="node"><title>Node7</title>
<g id="a_node7"><a xlink:href="../../d8/dd3/lbaselib_8c.html#aeb4cb83db820979bbdd7710109b52957" target="_top" xlink:title="luaB_loadfile">
<polygon fill="none" stroke="black" points="635,-57.5 635,-76.5 705,-76.5 705,-57.5 635,-57.5"/>
<text text-anchor="middle" x="670" y="-64.5" font-family="Helvetica,sans-Serif" font-size="10.00">luaB_loadfile</text>
</a>
</g>
</g>
<!-- Node6&#45;&gt;Node7 -->
<g id="edge6" class="edge"><title>Node6&#45;&gt;Node7</title>
<path fill="none" stroke="midnightblue" d="M603.068,-67C613.726,-67 624.88,-67 634.919,-67"/>
<polygon fill="midnightblue" stroke="midnightblue" points="603.054,-63.5001 593.054,-67 603.054,-70.5001 603.054,-63.5001"/>
</g>
<!-- Node8&#45;&gt;Node9 -->
<g id="edge8" class="edge"><title>Node8&#45;&gt;Node9</title>
<path fill="none" stroke="midnightblue" d="M609.196,-20.1454C619.919,-18.3262 630.83,-16.4753 640.345,-14.8612"/>
<polygon fill="midnightblue" stroke="midnightblue" points="608.297,-16.7477 599.023,-21.871 609.468,-23.6491 608.297,-16.7477"/>
</g>
</g>
</svg>
