<?xml version="1.0" encoding="UTF-8" standalone="no"?>
<!DOCTYPE svg PUBLIC "-//W3C//DTD SVG 1.1//EN"
 "http://www.w3.org/Graphics/SVG/1.1/DTD/svg11.dtd">
<!-- Generated by graphviz version 2.38.0 (20140413.2041)
 -->
<!-- Title: UIButtonBinding Pages: 1 -->
<svg width="351pt" height="568pt"
 viewBox="0.00 0.00 351.00 568.00" xmlns="http://www.w3.org/2000/svg" xmlns:xlink="http://www.w3.org/1999/xlink">
<g id="graph0" class="graph" transform="scale(1 1) rotate(0) translate(4 564)">
<title>UIButtonBinding</title>
<!-- Node1 -->
<g id="node1" class="node"><title>Node1</title>
<polygon fill="#bfbfbf" stroke="black" points="80.5,-0.5 80.5,-68.5 194.5,-68.5 194.5,-0.5 80.5,-0.5"/>
<text text-anchor="middle" x="137.5" y="-56.5" font-family="Helvetica,sans-Serif" font-size="10.00">UIButtonBinding</text>
<polyline fill="none" stroke="black" points="80.5,-49.5 194.5,-49.5 "/>
<text text-anchor="start" x="88.5" y="-37.5" font-family="Helvetica,sans-Serif" font-size="10.00">+ targetView</text>
<polyline fill="none" stroke="black" points="80.5,-30.5 194.5,-30.5 "/>
<text text-anchor="start" x="88.5" y="-18.5" font-family="Helvetica,sans-Serif" font-size="10.00">+ updateValue</text>
<text text-anchor="start" x="88.5" y="-7.5" font-family="Helvetica,sans-Serif" font-size="10.00">+ registerFactoriesTo:</text>
</g>
<!-- Node2 -->
<g id="node2" class="node"><title>Node2</title>
<g id="a_node2"><a xlink:href="../../d5/d2a/interface_binding_base.html" target="_top" xlink:title="{BindingBase\n|+ ken\l+ targetView\l+ observedValue\l+ resultValue\l+ bindingType\l+ context\l|+ initWithKensho:target\l:type:value:context:\l+ observable:updated\l:context:\l+ updateValue\l+ addFactoryNamed:class\l:collection:method:\l}">
<polygon fill="none" stroke="black" points="71,-105.5 71,-283.5 204,-283.5 204,-105.5 71,-105.5"/>
<text text-anchor="middle" x="137.5" y="-271.5" font-family="Helvetica,sans-Serif" font-size="10.00">BindingBase</text>
<polyline fill="none" stroke="black" points="71,-264.5 204,-264.5 "/>
<text text-anchor="start" x="79" y="-252.5" font-family="Helvetica,sans-Serif" font-size="10.00">+ ken</text>
<text text-anchor="start" x="79" y="-241.5" font-family="Helvetica,sans-Serif" font-size="10.00">+ targetView</text>
<text text-anchor="start" x="79" y="-230.5" font-family="Helvetica,sans-Serif" font-size="10.00">+ observedValue</text>
<text text-anchor="start" x="79" y="-219.5" font-family="Helvetica,sans-Serif" font-size="10.00">+ resultValue</text>
<text text-anchor="start" x="79" y="-208.5" font-family="Helvetica,sans-Serif" font-size="10.00">+ bindingType</text>
<text text-anchor="start" x="79" y="-197.5" font-family="Helvetica,sans-Serif" font-size="10.00">+ context</text>
<polyline fill="none" stroke="black" points="71,-190.5 204,-190.5 "/>
<text text-anchor="start" x="79" y="-178.5" font-family="Helvetica,sans-Serif" font-size="10.00">+ initWithKensho:target</text>
<text text-anchor="start" x="79" y="-167.5" font-family="Helvetica,sans-Serif" font-size="10.00">:type:value:context:</text>
<text text-anchor="start" x="79" y="-156.5" font-family="Helvetica,sans-Serif" font-size="10.00">+ observable:updated</text>
<text text-anchor="start" x="79" y="-145.5" font-family="Helvetica,sans-Serif" font-size="10.00">:context:</text>
<text text-anchor="start" x="79" y="-134.5" font-family="Helvetica,sans-Serif" font-size="10.00">+ updateValue</text>
<text text-anchor="start" x="79" y="-123.5" font-family="Helvetica,sans-Serif" font-size="10.00">+ addFactoryNamed:class</text>
<text text-anchor="start" x="79" y="-112.5" font-family="Helvetica,sans-Serif" font-size="10.00">:collection:method:</text>
</a>
</g>
</g>
<!-- Node2&#45;&gt;Node1 -->
<g id="edge1" class="edge"><title>Node2&#45;&gt;Node1</title>
<path fill="none" stroke="midnightblue" d="M137.5,-94.9951C137.5,-85.6501 137.5,-76.6935 137.5,-68.6942"/>
<polygon fill="none" stroke="midnightblue" points="134,-95.261 137.5,-105.261 141,-95.2611 134,-95.261"/>
</g>
<!-- Node3 -->
<g id="node3" class="node"><title>Node3</title>
<g id="a_node3"><a xlink:href="../../d7/dc4/class_n_s_object.html" target="_top" xlink:title="{NSObject\n||}">
<polygon fill="none" stroke="black" points="0,-364.5 0,-421.5 59,-421.5 59,-364.5 0,-364.5"/>
<text text-anchor="middle" x="29.5" y="-409.5" font-family="Helvetica,sans-Serif" font-size="10.00">NSObject</text>
<polyline fill="none" stroke="black" points="0,-402.5 59,-402.5 "/>
<text text-anchor="middle" x="29.5" y="-390.5" font-family="Helvetica,sans-Serif" font-size="10.00"> </text>
<polyline fill="none" stroke="black" points="0,-383.5 59,-383.5 "/>
<text text-anchor="middle" x="29.5" y="-371.5" font-family="Helvetica,sans-Serif" font-size="10.00"> </text>
</a>
</g>
</g>
<!-- Node3&#45;&gt;Node2 -->
<g id="edge2" class="edge"><title>Node3&#45;&gt;Node2</title>
<path fill="none" stroke="midnightblue" d="M49.208,-355.453C55.3636,-344.082 62.1935,-331.51 68.5,-320 74.9717,-308.189 81.8151,-295.764 88.5787,-283.522"/>
<polygon fill="none" stroke="midnightblue" points="46.1171,-353.811 44.4387,-364.272 52.2743,-357.141 46.1171,-353.811"/>
</g>
<!-- Node4 -->
<g id="node4" class="node"><title>Node4</title>
<g id="a_node4"><a xlink:href="../../d3/de6/protocol_i_binding-p.html" target="_top" xlink:title="{\&lt;IBinding\&gt;\n|+ ken\l+ targetView\l+ observedValue\l+ bindingType\l+ context\l|+ initWithKensho:target\l:type:value:context:\l+ updateValue\l+ unbind\l+ registerFactoriesTo:\l}">
<polygon fill="none" stroke="black" points="77.5,-320.5 77.5,-465.5 197.5,-465.5 197.5,-320.5 77.5,-320.5"/>
<text text-anchor="middle" x="137.5" y="-453.5" font-family="Helvetica,sans-Serif" font-size="10.00">&lt;IBinding&gt;</text>
<polyline fill="none" stroke="black" points="77.5,-446.5 197.5,-446.5 "/>
<text text-anchor="start" x="85.5" y="-434.5" font-family="Helvetica,sans-Serif" font-size="10.00">+ ken</text>
<text text-anchor="start" x="85.5" y="-423.5" font-family="Helvetica,sans-Serif" font-size="10.00">+ targetView</text>
<text text-anchor="start" x="85.5" y="-412.5" font-family="Helvetica,sans-Serif" font-size="10.00">+ observedValue</text>
<text text-anchor="start" x="85.5" y="-401.5" font-family="Helvetica,sans-Serif" font-size="10.00">+ bindingType</text>
<text text-anchor="start" x="85.5" y="-390.5" font-family="Helvetica,sans-Serif" font-size="10.00">+ context</text>
<polyline fill="none" stroke="black" points="77.5,-383.5 197.5,-383.5 "/>
<text text-anchor="start" x="85.5" y="-371.5" font-family="Helvetica,sans-Serif" font-size="10.00">+ initWithKensho:target</text>
<text text-anchor="start" x="85.5" y="-360.5" font-family="Helvetica,sans-Serif" font-size="10.00">:type:value:context:</text>
<text text-anchor="start" x="85.5" y="-349.5" font-family="Helvetica,sans-Serif" font-size="10.00">+ updateValue</text>
<text text-anchor="start" x="85.5" y="-338.5" font-family="Helvetica,sans-Serif" font-size="10.00">+ unbind</text>
<text text-anchor="start" x="85.5" y="-327.5" font-family="Helvetica,sans-Serif" font-size="10.00">+ registerFactoriesTo:</text>
</a>
</g>
</g>
<!-- Node4&#45;&gt;Node2 -->
<g id="edge3" class="edge"><title>Node4&#45;&gt;Node2</title>
<path fill="none" stroke="midnightblue" d="M137.5,-310.12C137.5,-301.429 137.5,-292.561 137.5,-283.801"/>
<polygon fill="none" stroke="midnightblue" points="134,-310.225 137.5,-320.225 141,-310.225 134,-310.225"/>
</g>
<!-- Node5 -->
<g id="node5" class="node"><title>Node5</title>
<g id="a_node5"><a xlink:href="../../d4/d36/protocol_i_observer-p.html" target="_top" xlink:title="{\&lt;IObserver\&gt;\n||+ observable:updated\l:context:\l+ observableDeallocated\l:context:\l}">
<polygon fill="none" stroke="black" points="216,-348 216,-438 343,-438 343,-348 216,-348"/>
<text text-anchor="middle" x="279.5" y="-426" font-family="Helvetica,sans-Serif" font-size="10.00">&lt;IObserver&gt;</text>
<polyline fill="none" stroke="black" points="216,-419 343,-419 "/>
<text text-anchor="middle" x="279.5" y="-407" font-family="Helvetica,sans-Serif" font-size="10.00"> </text>
<polyline fill="none" stroke="black" points="216,-400 343,-400 "/>
<text text-anchor="start" x="224" y="-388" font-family="Helvetica,sans-Serif" font-size="10.00">+ observable:updated</text>
<text text-anchor="start" x="224" y="-377" font-family="Helvetica,sans-Serif" font-size="10.00">:context:</text>
<text text-anchor="start" x="224" y="-366" font-family="Helvetica,sans-Serif" font-size="10.00">+ observableDeallocated</text>
<text text-anchor="start" x="224" y="-355" font-family="Helvetica,sans-Serif" font-size="10.00">:context:</text>
</a>
</g>
</g>
<!-- Node5&#45;&gt;Node2 -->
<g id="edge4" class="edge"><title>Node5&#45;&gt;Node2</title>
<path fill="none" stroke="midnightblue" d="M241.678,-339.661C229.242,-322.453 215.054,-302.82 201.238,-283.7"/>
<polygon fill="none" stroke="midnightblue" points="238.938,-341.846 247.632,-347.902 244.612,-337.746 238.938,-341.846"/>
</g>
<!-- Node6 -->
<g id="node6" class="node"><title>Node6</title>
<g id="a_node6"><a xlink:href="../../d0/d10/class_n_s_object-p.html" target="_top" xlink:title="{\&lt;NSObject\&gt;\n||}">
<polygon fill="none" stroke="black" points="244,-502.5 244,-559.5 315,-559.5 315,-502.5 244,-502.5"/>
<text text-anchor="middle" x="279.5" y="-547.5" font-family="Helvetica,sans-Serif" font-size="10.00">&lt;NSObject&gt;</text>
<polyline fill="none" stroke="black" points="244,-540.5 315,-540.5 "/>
<text text-anchor="middle" x="279.5" y="-528.5" font-family="Helvetica,sans-Serif" font-size="10.00"> </text>
<polyline fill="none" stroke="black" points="244,-521.5 315,-521.5 "/>
<text text-anchor="middle" x="279.5" y="-509.5" font-family="Helvetica,sans-Serif" font-size="10.00"> </text>
</a>
</g>
</g>
<!-- Node6&#45;&gt;Node5 -->
<g id="edge5" class="edge"><title>Node6&#45;&gt;Node5</title>
<path fill="none" stroke="midnightblue" d="M279.5,-492.448C279.5,-475.607 279.5,-455.625 279.5,-438.079"/>
<polygon fill="none" stroke="midnightblue" points="276,-492.478 279.5,-502.478 283,-492.478 276,-492.478"/>
</g>
</g>
</svg>
