<?xml version="1.0" encoding="UTF-8" standalone="no"?>
<!DOCTYPE svg PUBLIC "-//W3C//DTD SVG 1.1//EN"
 "http://www.w3.org/Graphics/SVG/1.1/DTD/svg11.dtd">
<!-- Generated by graphviz version 2.38.0 (20140413.2041)
 -->
<!-- Title: pushfuncname Pages: 1 -->
<svg width="315pt" height="28pt"
 viewBox="0.00 0.00 315.00 28.00" xmlns="http://www.w3.org/2000/svg" xmlns:xlink="http://www.w3.org/1999/xlink">
<g id="graph0" class="graph" transform="scale(1 1) rotate(0) translate(4 24)">
<title>pushfuncname</title>
<!-- Node1 -->
<g id="node1" class="node"><title>Node1</title>
<polygon fill="#bfbfbf" stroke="black" points="0,-0.5 0,-19.5 80,-19.5 80,-0.5 0,-0.5"/>
<text text-anchor="middle" x="40" y="-7.5" font-family="Helvetica,sans-Serif" font-size="10.00">pushfuncname</text>
</g>
<!-- Node2 -->
<g id="node2" class="node"><title>Node2</title>
<g id="a_node2"><a xlink:href="../../da/d29/lauxlib_8h.html#a664cc293d6c7a7dc67857fe95583a10e" target="_top" xlink:title="luaL_traceback">
<polygon fill="none" stroke="black" points="116,-0.5 116,-19.5 197,-19.5 197,-0.5 116,-0.5"/>
<text text-anchor="middle" x="156.5" y="-7.5" font-family="Helvetica,sans-Serif" font-size="10.00">luaL_traceback</text>
</a>
</g>
</g>
<!-- Node1&#45;&gt;Node2 -->
<g id="edge1" class="edge"><title>Node1&#45;&gt;Node2</title>
<path fill="none" stroke="midnightblue" d="M90.3072,-10C98.8283,-10 107.589,-10 115.814,-10"/>
<polygon fill="midnightblue" stroke="midnightblue" points="90.0842,-6.5001 80.0842,-10 90.0841,-13.5001 90.0842,-6.5001"/>
</g>
<!-- Node3 -->
<g id="node3" class="node"><title>Node3</title>
<g id="a_node3"><a xlink:href="../../d8/d97/ldblib_8c.html#ae0792d4f3f6eedd535895e05426b82df" target="_top" xlink:title="db_traceback">
<polygon fill="none" stroke="black" points="233,-0.5 233,-19.5 307,-19.5 307,-0.5 233,-0.5"/>
<text text-anchor="middle" x="270" y="-7.5" font-family="Helvetica,sans-Serif" font-size="10.00">db_traceback</text>
</a>
</g>
</g>
<!-- Node2&#45;&gt;Node3 -->
<g id="edge2" class="edge"><title>Node2&#45;&gt;Node3</title>
<path fill="none" stroke="midnightblue" d="M207.141,-10C215.794,-10 224.646,-10 232.85,-10"/>
<polygon fill="midnightblue" stroke="midnightblue" points="207.125,-6.5001 197.125,-10 207.125,-13.5001 207.125,-6.5001"/>
</g>
</g>
</svg>
