<?xml version="1.0" encoding="UTF-8" standalone="no"?>
<!DOCTYPE svg PUBLIC "-//W3C//DTD SVG 1.1//EN"
 "http://www.w3.org/Graphics/SVG/1.1/DTD/svg11.dtd">
<!-- Generated by graphviz version 2.38.0 (20140413.2041)
 -->
<!-- Title: luaL_pushresult Pages: 1 -->
<svg width="824pt" height="522pt"
 viewBox="0.00 0.00 824.00 522.00" xmlns="http://www.w3.org/2000/svg" xmlns:xlink="http://www.w3.org/1999/xlink">
<g id="graph0" class="graph" transform="scale(1 1) rotate(0) translate(4 518)">
<title>luaL_pushresult</title>
<!-- Node1 -->
<g id="node1" class="node"><title>Node1</title>
<polygon fill="#bfbfbf" stroke="black" points="0,-209.5 0,-228.5 83,-228.5 83,-209.5 0,-209.5"/>
<text text-anchor="middle" x="41.5" y="-216.5" font-family="Helvetica,sans-Serif" font-size="10.00">luaL_pushresult</text>
</g>
<!-- Node2 -->
<g id="node2" class="node"><title>Node2</title>
<g id="a_node2"><a xlink:href="../../d2/d82/loadlib_8c.html#aeea4101591c7cab25273f4dfe7d811d6" target="_top" xlink:title="findloader">
<polygon fill="none" stroke="black" points="141.5,-489.5 141.5,-508.5 197.5,-508.5 197.5,-489.5 141.5,-489.5"/>
<text text-anchor="middle" x="169.5" y="-496.5" font-family="Helvetica,sans-Serif" font-size="10.00">findloader</text>
</a>
</g>
</g>
<!-- Node1&#45;&gt;Node2 -->
<g id="edge1" class="edge"><title>Node1&#45;&gt;Node2</title>
<path fill="none" stroke="midnightblue" d="M44.1296,-238.598C48.7116,-283.174 65.123,-393.874 119,-466 126.417,-475.93 137.757,-483.801 147.713,-489.362"/>
<polygon fill="midnightblue" stroke="midnightblue" points="47.6038,-238.158 43.185,-228.529 40.6344,-238.812 47.6038,-238.158"/>
</g>
<!-- Node4 -->
<g id="node4" class="node"><title>Node4</title>
<g id="a_node4"><a xlink:href="../../da/d29/lauxlib_8h.html#a46672be75da57e1a464c5c6d80f19064" target="_top" xlink:title="luaL_gsub">
<polygon fill="none" stroke="black" points="138.5,-385.5 138.5,-404.5 200.5,-404.5 200.5,-385.5 138.5,-385.5"/>
<text text-anchor="middle" x="169.5" y="-392.5" font-family="Helvetica,sans-Serif" font-size="10.00">luaL_gsub</text>
</a>
</g>
</g>
<!-- Node1&#45;&gt;Node4 -->
<g id="edge3" class="edge"><title>Node1&#45;&gt;Node4</title>
<path fill="none" stroke="midnightblue" d="M54.1049,-237.285C68.7169,-260.071 94.8386,-300.028 119,-333 132.84,-351.887 150.127,-373.03 160.18,-385.105"/>
<polygon fill="midnightblue" stroke="midnightblue" points="56.9178,-235.187 48.5865,-228.641 51.0177,-238.954 56.9178,-235.187"/>
</g>
<!-- Node5 -->
<g id="node5" class="node"><title>Node5</title>
<g id="a_node5"><a xlink:href="../../d2/d82/loadlib_8c.html#a9aa5433859d896c2db1a7af366e04b65" target="_top" xlink:title="searchpath">
<polygon fill="none" stroke="black" points="256,-456.5 256,-475.5 321,-475.5 321,-456.5 256,-456.5"/>
<text text-anchor="middle" x="288.5" y="-463.5" font-family="Helvetica,sans-Serif" font-size="10.00">searchpath</text>
</a>
</g>
</g>
<!-- Node1&#45;&gt;Node5 -->
<g id="edge38" class="edge"><title>Node1&#45;&gt;Node5</title>
<path fill="none" stroke="midnightblue" d="M44.6254,-238.858C49.8832,-278.072 67.0834,-365.815 119,-414 157.035,-449.301 218.572,-460.652 255.815,-464.292"/>
<polygon fill="midnightblue" stroke="midnightblue" points="48.0777,-238.253 43.3956,-228.749 41.1289,-239.098 48.0777,-238.253"/>
</g>
<!-- Node15 -->
<g id="node15" class="node"><title>Node15</title>
<g id="a_node15"><a xlink:href="../../da/d29/lauxlib_8h.html#ac12082513e8da6bfd5b834e840789682" target="_top" xlink:title="luaL_pushresultsize">
<polygon fill="none" stroke="black" points="119,-304.5 119,-323.5 220,-323.5 220,-304.5 119,-304.5"/>
<text text-anchor="middle" x="169.5" y="-311.5" font-family="Helvetica,sans-Serif" font-size="10.00">luaL_pushresultsize</text>
</a>
</g>
</g>
<!-- Node1&#45;&gt;Node15 -->
<g id="edge19" class="edge"><title>Node1&#45;&gt;Node15</title>
<path fill="none" stroke="midnightblue" d="M56.5257,-236.695C70.7307,-253.622 94.1045,-278.891 119,-295 124.719,-298.701 131.268,-301.849 137.689,-304.456"/>
<polygon fill="midnightblue" stroke="midnightblue" points="59.0181,-234.215 49.9737,-228.696 53.6029,-238.65 59.0181,-234.215"/>
</g>
<!-- Node21 -->
<g id="node21" class="node"><title>Node21</title>
<g id="a_node21"><a xlink:href="../../dc/dba/loslib_8c.html#a6520f2562b500aee87a6a475995adefb" target="_top" xlink:title="os_date">
<polygon fill="none" stroke="black" points="144,-266.5 144,-285.5 195,-285.5 195,-266.5 144,-266.5"/>
<text text-anchor="middle" x="169.5" y="-273.5" font-family="Helvetica,sans-Serif" font-size="10.00">os_date</text>
</a>
</g>
</g>
<!-- Node1&#45;&gt;Node21 -->
<g id="edge25" class="edge"><title>Node1&#45;&gt;Node21</title>
<path fill="none" stroke="midnightblue" d="M69.45,-233.166C83.9725,-240.601 102.293,-249.664 119,-257 127.007,-260.516 135.888,-264.039 143.891,-267.079"/>
<polygon fill="midnightblue" stroke="midnightblue" points="71.0013,-230.028 60.51,-228.55 67.7897,-236.248 71.0013,-230.028"/>
</g>
<!-- Node22 -->
<g id="node22" class="node"><title>Node22</title>
<g id="a_node22"><a xlink:href="../../de/df3/liolib_8c.html#a48a16089fed2e802a76635a3f8bfe8e3" target="_top" xlink:title="read_all">
<polygon fill="none" stroke="black" points="144.5,-228.5 144.5,-247.5 194.5,-247.5 194.5,-228.5 144.5,-228.5"/>
<text text-anchor="middle" x="169.5" y="-235.5" font-family="Helvetica,sans-Serif" font-size="10.00">read_all</text>
</a>
</g>
</g>
<!-- Node1&#45;&gt;Node22 -->
<g id="edge26" class="edge"><title>Node1&#45;&gt;Node22</title>
<path fill="none" stroke="midnightblue" d="M93.2158,-226.648C110.798,-229.299 129.708,-232.15 144.178,-234.332"/>
<polygon fill="midnightblue" stroke="midnightblue" points="93.4709,-223.147 83.0608,-225.116 92.4271,-230.068 93.4709,-223.147"/>
</g>
<!-- Node30 -->
<g id="node30" class="node"><title>Node30</title>
<g id="a_node30"><a xlink:href="../../de/df3/liolib_8c.html#a6735c0513432f83bfa1b88b056ab379b" target="_top" xlink:title="read_chars">
<polygon fill="none" stroke="black" points="137.5,-190.5 137.5,-209.5 201.5,-209.5 201.5,-190.5 137.5,-190.5"/>
<text text-anchor="middle" x="169.5" y="-197.5" font-family="Helvetica,sans-Serif" font-size="10.00">read_chars</text>
</a>
</g>
</g>
<!-- Node1&#45;&gt;Node30 -->
<g id="edge34" class="edge"><title>Node1&#45;&gt;Node30</title>
<path fill="none" stroke="midnightblue" d="M93.1736,-211.359C108.064,-209.113 123.91,-206.724 137.207,-204.719"/>
<polygon fill="midnightblue" stroke="midnightblue" points="92.4271,-207.932 83.0608,-212.884 93.4709,-214.853 92.4271,-207.932"/>
</g>
<!-- Node31 -->
<g id="node31" class="node"><title>Node31</title>
<g id="a_node31"><a xlink:href="../../de/df3/liolib_8c.html#ae697e23c2b1ea23d8935f579aa21200c" target="_top" xlink:title="read_line">
<polygon fill="none" stroke="black" points="142.5,-152.5 142.5,-171.5 196.5,-171.5 196.5,-152.5 142.5,-152.5"/>
<text text-anchor="middle" x="169.5" y="-159.5" font-family="Helvetica,sans-Serif" font-size="10.00">read_line</text>
</a>
</g>
</g>
<!-- Node1&#45;&gt;Node31 -->
<g id="edge36" class="edge"><title>Node1&#45;&gt;Node31</title>
<path fill="none" stroke="midnightblue" d="M69.45,-204.834C83.9725,-197.399 102.293,-188.336 119,-181 126.501,-177.706 134.77,-174.406 142.365,-171.502"/>
<polygon fill="midnightblue" stroke="midnightblue" points="67.7897,-201.752 60.51,-209.45 71.0013,-207.972 67.7897,-201.752"/>
</g>
<!-- Node32 -->
<g id="node32" class="node"><title>Node32</title>
<g id="a_node32"><a xlink:href="../../dc/d77/lstrlib_8c.html#abc94e3a13f1b6ddb2c9b20c9fd89e87f" target="_top" xlink:title="str_dump">
<polygon fill="none" stroke="black" points="141.5,-114.5 141.5,-133.5 197.5,-133.5 197.5,-114.5 141.5,-114.5"/>
<text text-anchor="middle" x="169.5" y="-121.5" font-family="Helvetica,sans-Serif" font-size="10.00">str_dump</text>
</a>
</g>
</g>
<!-- Node1&#45;&gt;Node32 -->
<g id="edge39" class="edge"><title>Node1&#45;&gt;Node32</title>
<path fill="none" stroke="midnightblue" d="M56.5257,-201.305C70.7307,-184.378 94.1045,-159.109 119,-143 125.801,-138.599 133.775,-134.979 141.313,-132.123"/>
<polygon fill="midnightblue" stroke="midnightblue" points="53.6029,-199.35 49.9737,-209.304 59.0181,-203.785 53.6029,-199.35"/>
</g>
<!-- Node33 -->
<g id="node33" class="node"><title>Node33</title>
<g id="a_node33"><a xlink:href="../../dc/d77/lstrlib_8c.html#ae26a9374857058119e59d0328208c2f2" target="_top" xlink:title="str_format">
<polygon fill="none" stroke="black" points="141,-76.5 141,-95.5 198,-95.5 198,-76.5 141,-76.5"/>
<text text-anchor="middle" x="169.5" y="-83.5" font-family="Helvetica,sans-Serif" font-size="10.00">str_format</text>
</a>
</g>
</g>
<!-- Node1&#45;&gt;Node33 -->
<g id="edge40" class="edge"><title>Node1&#45;&gt;Node33</title>
<path fill="none" stroke="midnightblue" d="M50.6775,-200.128C62.4017,-175.119 86.2416,-131.12 119,-105 125.406,-99.8925 133.34,-96.0399 140.966,-93.1869"/>
<polygon fill="midnightblue" stroke="midnightblue" points="47.4666,-198.734 46.5299,-209.288 53.8433,-201.622 47.4666,-198.734"/>
</g>
<!-- Node34 -->
<g id="node34" class="node"><title>Node34</title>
<g id="a_node34"><a xlink:href="../../dc/d77/lstrlib_8c.html#a42337c674d265175bcc2b2f3809c7339" target="_top" xlink:title="str_gsub">
<polygon fill="none" stroke="black" points="143,-38.5 143,-57.5 196,-57.5 196,-38.5 143,-38.5"/>
<text text-anchor="middle" x="169.5" y="-45.5" font-family="Helvetica,sans-Serif" font-size="10.00">str_gsub</text>
</a>
</g>
</g>
<!-- Node1&#45;&gt;Node34 -->
<g id="edge41" class="edge"><title>Node1&#45;&gt;Node34</title>
<path fill="none" stroke="midnightblue" d="M47.3832,-199.423C56.3194,-167.445 78.242,-103.881 119,-67 125.689,-60.9472 134.511,-56.7443 142.852,-53.8618"/>
<polygon fill="midnightblue" stroke="midnightblue" points="43.9386,-198.758 44.7543,-209.321 50.704,-200.555 43.9386,-198.758"/>
</g>
<!-- Node35 -->
<g id="node35" class="node"><title>Node35</title>
<g id="a_node35"><a xlink:href="../../d0/da1/ltablib_8c.html#add6973c515a288f41265aca8e0ae6412" target="_top" xlink:title="tconcat">
<polygon fill="none" stroke="black" points="146,-0.5 146,-19.5 193,-19.5 193,-0.5 146,-0.5"/>
<text text-anchor="middle" x="169.5" y="-7.5" font-family="Helvetica,sans-Serif" font-size="10.00">tconcat</text>
</a>
</g>
</g>
<!-- Node1&#45;&gt;Node35 -->
<g id="edge42" class="edge"><title>Node1&#45;&gt;Node35</title>
<path fill="none" stroke="midnightblue" d="M45.2272,-198.907C51.4346,-160.708 70.0702,-77.1398 119,-29 126.284,-21.8341 136.557,-17.3103 145.858,-14.4846"/>
<polygon fill="midnightblue" stroke="midnightblue" points="41.7032,-198.806 43.6801,-209.215 48.6256,-199.845 41.7032,-198.806"/>
</g>
<!-- Node3 -->
<g id="node3" class="node"><title>Node3</title>
<g id="a_node3"><a xlink:href="../../d2/d82/loadlib_8c.html#a136874f5faa236dc52fb50109281e157" target="_top" xlink:title="ll_require">
<polygon fill="none" stroke="black" points="262.5,-494.5 262.5,-513.5 314.5,-513.5 314.5,-494.5 262.5,-494.5"/>
<text text-anchor="middle" x="288.5" y="-501.5" font-family="Helvetica,sans-Serif" font-size="10.00">ll_require</text>
</a>
</g>
</g>
<!-- Node2&#45;&gt;Node3 -->
<g id="edge2" class="edge"><title>Node2&#45;&gt;Node3</title>
<path fill="none" stroke="midnightblue" d="M207.675,-500.589C225.423,-501.347 246.204,-502.235 262.113,-502.915"/>
<polygon fill="midnightblue" stroke="midnightblue" points="207.777,-497.09 197.636,-500.16 207.478,-504.084 207.777,-497.09"/>
</g>
<!-- Node4&#45;&gt;Node5 -->
<g id="edge4" class="edge"><title>Node4&#45;&gt;Node5</title>
<path fill="none" stroke="midnightblue" d="M195.13,-409.946C218.173,-423.93 251.912,-444.404 271.597,-456.35"/>
<polygon fill="midnightblue" stroke="midnightblue" points="196.644,-406.771 186.279,-404.575 193.012,-412.755 196.644,-406.771"/>
</g>
<!-- Node13 -->
<g id="node13" class="node"><title>Node13</title>
<g id="a_node13"><a xlink:href="../../d2/d82/loadlib_8c.html#a91ac5b5231cf039af46226806dcc3884" target="_top" xlink:title="loadfunc">
<polygon fill="none" stroke="black" points="367.5,-418.5 367.5,-437.5 419.5,-437.5 419.5,-418.5 367.5,-418.5"/>
<text text-anchor="middle" x="393.5" y="-425.5" font-family="Helvetica,sans-Serif" font-size="10.00">loadfunc</text>
</a>
</g>
</g>
<!-- Node4&#45;&gt;Node13 -->
<g id="edge14" class="edge"><title>Node4&#45;&gt;Node13</title>
<path fill="none" stroke="midnightblue" d="M211.03,-401.025C256.594,-407.798 329.171,-418.586 367.267,-424.249"/>
<polygon fill="midnightblue" stroke="midnightblue" points="211.309,-397.528 200.903,-399.519 210.279,-404.452 211.309,-397.528"/>
</g>
<!-- Node14 -->
<g id="node14" class="node"><title>Node14</title>
<g id="a_node14"><a xlink:href="../../d2/d82/loadlib_8c.html#ab1293c9ab0fa766bfa927767d6ae543c" target="_top" xlink:title="setpath">
<polygon fill="none" stroke="black" points="609.5,-399.5 609.5,-418.5 658.5,-418.5 658.5,-399.5 609.5,-399.5"/>
<text text-anchor="middle" x="634" y="-406.5" font-family="Helvetica,sans-Serif" font-size="10.00">setpath</text>
</a>
</g>
</g>
<!-- Node4&#45;&gt;Node14 -->
<g id="edge17" class="edge"><title>Node4&#45;&gt;Node14</title>
<path fill="none" stroke="midnightblue" d="M211.084,-396.228C305.022,-399.072 535.062,-406.035 609.409,-408.286"/>
<polygon fill="midnightblue" stroke="midnightblue" points="210.947,-392.723 200.846,-395.919 210.735,-399.72 210.947,-392.723"/>
</g>
<!-- Node6 -->
<g id="node6" class="node"><title>Node6</title>
<g id="a_node6"><a xlink:href="../../d2/d82/loadlib_8c.html#a3e9eb01c860846336b6f50d6c77448a2" target="_top" xlink:title="ll_searchpath">
<polygon fill="none" stroke="black" points="357,-494.5 357,-513.5 430,-513.5 430,-494.5 357,-494.5"/>
<text text-anchor="middle" x="393.5" y="-501.5" font-family="Helvetica,sans-Serif" font-size="10.00">ll_searchpath</text>
</a>
</g>
</g>
<!-- Node5&#45;&gt;Node6 -->
<g id="edge5" class="edge"><title>Node5&#45;&gt;Node6</title>
<path fill="none" stroke="midnightblue" d="M325.057,-479.118C338.68,-484.144 353.954,-489.779 366.517,-494.414"/>
<polygon fill="midnightblue" stroke="midnightblue" points="326.085,-475.767 315.491,-475.589 323.662,-482.334 326.085,-475.767"/>
</g>
<!-- Node7 -->
<g id="node7" class="node"><title>Node7</title>
<g id="a_node7"><a xlink:href="../../d2/d82/loadlib_8c.html#af8f7333f1a59f3d7aab8c9b79b7a4ab2" target="_top" xlink:title="findfile">
<polygon fill="none" stroke="black" points="373,-456.5 373,-475.5 414,-475.5 414,-456.5 373,-456.5"/>
<text text-anchor="middle" x="393.5" y="-463.5" font-family="Helvetica,sans-Serif" font-size="10.00">findfile</text>
</a>
</g>
</g>
<!-- Node5&#45;&gt;Node7 -->
<g id="edge6" class="edge"><title>Node5&#45;&gt;Node7</title>
<path fill="none" stroke="midnightblue" d="M331.465,-466C345.844,-466 361.251,-466 372.987,-466"/>
<polygon fill="midnightblue" stroke="midnightblue" points="331.244,-462.5 321.244,-466 331.244,-469.5 331.244,-462.5"/>
</g>
<!-- Node8 -->
<g id="node8" class="node"><title>Node8</title>
<g id="a_node8"><a xlink:href="../../d2/d82/loadlib_8c.html#a8b2f1d86fe37c0829143579a6b568243" target="_top" xlink:title="searcher_Lua">
<polygon fill="none" stroke="black" points="469,-494.5 469,-513.5 543,-513.5 543,-494.5 469,-494.5"/>
<text text-anchor="middle" x="506" y="-501.5" font-family="Helvetica,sans-Serif" font-size="10.00">searcher_Lua</text>
</a>
</g>
</g>
<!-- Node7&#45;&gt;Node8 -->
<g id="edge7" class="edge"><title>Node7&#45;&gt;Node8</title>
<path fill="none" stroke="midnightblue" d="M423.677,-476.034C440.171,-481.706 460.687,-488.761 476.986,-494.366"/>
<polygon fill="midnightblue" stroke="midnightblue" points="424.596,-472.648 414.001,-472.706 422.319,-479.268 424.596,-472.648"/>
</g>
<!-- Node11 -->
<g id="node11" class="node"><title>Node11</title>
<g id="a_node11"><a xlink:href="../../d2/d82/loadlib_8c.html#a9a915ea950c831cee2f1e7b0a3bd9005" target="_top" xlink:title="searcher_C">
<polygon fill="none" stroke="black" points="473.5,-418.5 473.5,-437.5 538.5,-437.5 538.5,-418.5 473.5,-418.5"/>
<text text-anchor="middle" x="506" y="-425.5" font-family="Helvetica,sans-Serif" font-size="10.00">searcher_C</text>
</a>
</g>
</g>
<!-- Node7&#45;&gt;Node11 -->
<g id="edge10" class="edge"><title>Node7&#45;&gt;Node11</title>
<path fill="none" stroke="midnightblue" d="M423.677,-455.966C440.171,-450.294 460.687,-443.239 476.986,-437.634"/>
<polygon fill="midnightblue" stroke="midnightblue" points="422.319,-452.732 414.001,-459.294 424.596,-459.352 422.319,-452.732"/>
</g>
<!-- Node12 -->
<g id="node12" class="node"><title>Node12</title>
<g id="a_node12"><a xlink:href="../../d2/d82/loadlib_8c.html#a1ec05cd98a045c271aeda9f9c6041e1c" target="_top" xlink:title="searcher_Croot">
<polygon fill="none" stroke="black" points="466,-456.5 466,-475.5 546,-475.5 546,-456.5 466,-456.5"/>
<text text-anchor="middle" x="506" y="-463.5" font-family="Helvetica,sans-Serif" font-size="10.00">searcher_Croot</text>
</a>
</g>
</g>
<!-- Node7&#45;&gt;Node12 -->
<g id="edge12" class="edge"><title>Node7&#45;&gt;Node12</title>
<path fill="none" stroke="midnightblue" d="M424.068,-466C436.808,-466 451.89,-466 465.562,-466"/>
<polygon fill="midnightblue" stroke="midnightblue" points="424.001,-462.5 414.001,-466 424.001,-469.5 424.001,-462.5"/>
</g>
<!-- Node9 -->
<g id="node9" class="node"><title>Node9</title>
<g id="a_node9"><a xlink:href="../../d2/d82/loadlib_8c.html#a8fc66c8b852ee2960dc20797521d1d9e" target="_top" xlink:title="createsearcherstable">
<polygon fill="none" stroke="black" points="582,-446.5 582,-465.5 686,-465.5 686,-446.5 582,-446.5"/>
<text text-anchor="middle" x="634" y="-453.5" font-family="Helvetica,sans-Serif" font-size="10.00">createsearcherstable</text>
</a>
</g>
</g>
<!-- Node8&#45;&gt;Node9 -->
<g id="edge8" class="edge"><title>Node8&#45;&gt;Node9</title>
<path fill="none" stroke="midnightblue" d="M541.705,-490.779C562.661,-482.796 588.888,-472.804 607.849,-465.582"/>
<polygon fill="midnightblue" stroke="midnightblue" points="540.294,-487.571 532.195,-494.402 542.786,-494.113 540.294,-487.571"/>
</g>
<!-- Node10 -->
<g id="node10" class="node"><title>Node10</title>
<g id="a_node10"><a xlink:href="../../d6/d07/lualib_8h.html#a05e0befc0439f926b6152129ab4f8dea" target="_top" xlink:title="luaopen_package">
<polygon fill="none" stroke="black" points="722,-422.5 722,-441.5 816,-441.5 816,-422.5 722,-422.5"/>
<text text-anchor="middle" x="769" y="-429.5" font-family="Helvetica,sans-Serif" font-size="10.00">luaopen_package</text>
</a>
</g>
</g>
<!-- Node9&#45;&gt;Node10 -->
<g id="edge9" class="edge"><title>Node9&#45;&gt;Node10</title>
<path fill="none" stroke="midnightblue" d="M696.056,-444.982C704.666,-443.429 713.398,-441.853 721.67,-440.36"/>
<polygon fill="midnightblue" stroke="midnightblue" points="695.26,-441.569 686.041,-446.79 696.504,-448.458 695.26,-441.569"/>
</g>
<!-- Node11&#45;&gt;Node9 -->
<g id="edge11" class="edge"><title>Node11&#45;&gt;Node9</title>
<path fill="none" stroke="midnightblue" d="M548.583,-437.241C561.806,-440.179 576.457,-443.435 589.792,-446.398"/>
<polygon fill="midnightblue" stroke="midnightblue" points="549.316,-433.818 538.795,-435.066 547.798,-440.652 549.316,-433.818"/>
</g>
<!-- Node12&#45;&gt;Node9 -->
<g id="edge13" class="edge"><title>Node12&#45;&gt;Node9</title>
<path fill="none" stroke="midnightblue" d="M556.206,-462.095C564.603,-461.428 573.343,-460.735 581.791,-460.064"/>
<polygon fill="midnightblue" stroke="midnightblue" points="555.868,-458.61 546.177,-462.891 556.422,-465.589 555.868,-458.61"/>
</g>
<!-- Node13&#45;&gt;Node11 -->
<g id="edge15" class="edge"><title>Node13&#45;&gt;Node11</title>
<path fill="none" stroke="midnightblue" d="M429.8,-428C443.767,-428 459.698,-428 473.291,-428"/>
<polygon fill="midnightblue" stroke="midnightblue" points="429.574,-424.5 419.574,-428 429.574,-431.5 429.574,-424.5"/>
</g>
<!-- Node13&#45;&gt;Node12 -->
<g id="edge16" class="edge"><title>Node13&#45;&gt;Node12</title>
<path fill="none" stroke="midnightblue" d="M429.325,-439.976C444.802,-445.298 462.768,-451.477 477.31,-456.478"/>
<polygon fill="midnightblue" stroke="midnightblue" points="430.169,-436.565 419.574,-436.623 427.892,-443.185 430.169,-436.565"/>
</g>
<!-- Node14&#45;&gt;Node10 -->
<g id="edge18" class="edge"><title>Node14&#45;&gt;Node10</title>
<path fill="none" stroke="midnightblue" d="M668.807,-414.846C684.902,-417.63 704.397,-421.001 721.83,-424.016"/>
<polygon fill="midnightblue" stroke="midnightblue" points="669.228,-411.367 658.778,-413.112 668.035,-418.265 669.228,-411.367"/>
</g>
<!-- Node16 -->
<g id="node16" class="node"><title>Node16</title>
<g id="a_node16"><a xlink:href="../../dc/d77/lstrlib_8c.html#a4b2ffac60e817b9bfc54b32f8da3a6b4" target="_top" xlink:title="str_reverse">
<polygon fill="none" stroke="black" points="257.5,-342.5 257.5,-361.5 319.5,-361.5 319.5,-342.5 257.5,-342.5"/>
<text text-anchor="middle" x="288.5" y="-349.5" font-family="Helvetica,sans-Serif" font-size="10.00">str_reverse</text>
</a>
</g>
</g>
<!-- Node15&#45;&gt;Node16 -->
<g id="edge20" class="edge"><title>Node15&#45;&gt;Node16</title>
<path fill="none" stroke="midnightblue" d="M209.542,-326.68C225.351,-331.815 243.299,-337.644 257.985,-342.414"/>
<polygon fill="midnightblue" stroke="midnightblue" points="210.616,-323.349 200.024,-323.589 208.454,-330.007 210.616,-323.349"/>
</g>
<!-- Node17 -->
<g id="node17" class="node"><title>Node17</title>
<g id="a_node17"><a xlink:href="../../dc/d77/lstrlib_8c.html#ab2235f81205d0482d03c8ae456a98992" target="_top" xlink:title="str_lower">
<polygon fill="none" stroke="black" points="261.5,-304.5 261.5,-323.5 315.5,-323.5 315.5,-304.5 261.5,-304.5"/>
<text text-anchor="middle" x="288.5" y="-311.5" font-family="Helvetica,sans-Serif" font-size="10.00">str_lower</text>
</a>
</g>
</g>
<!-- Node15&#45;&gt;Node17 -->
<g id="edge21" class="edge"><title>Node15&#45;&gt;Node17</title>
<path fill="none" stroke="midnightblue" d="M230.176,-314C241.16,-314 252.088,-314 261.411,-314"/>
<polygon fill="midnightblue" stroke="midnightblue" points="230.119,-310.5 220.119,-314 230.118,-317.5 230.119,-310.5"/>
</g>
<!-- Node18 -->
<g id="node18" class="node"><title>Node18</title>
<g id="a_node18"><a xlink:href="../../dc/d77/lstrlib_8c.html#a38ed99b74af58070449ca344a7351f6a" target="_top" xlink:title="str_upper">
<polygon fill="none" stroke="black" points="260.5,-266.5 260.5,-285.5 316.5,-285.5 316.5,-266.5 260.5,-266.5"/>
<text text-anchor="middle" x="288.5" y="-273.5" font-family="Helvetica,sans-Serif" font-size="10.00">str_upper</text>
</a>
</g>
</g>
<!-- Node15&#45;&gt;Node18 -->
<g id="edge22" class="edge"><title>Node15&#45;&gt;Node18</title>
<path fill="none" stroke="midnightblue" d="M209.994,-301.173C226.568,-295.79 245.427,-289.665 260.391,-284.805"/>
<polygon fill="midnightblue" stroke="midnightblue" points="208.454,-297.993 200.024,-304.411 210.616,-304.651 208.454,-297.993"/>
</g>
<!-- Node19 -->
<g id="node19" class="node"><title>Node19</title>
<g id="a_node19"><a xlink:href="../../dc/d77/lstrlib_8c.html#acaee4c84f29e2ec7366728ca04d3569c" target="_top" xlink:title="str_rep">
<polygon fill="none" stroke="black" points="266,-228.5 266,-247.5 311,-247.5 311,-228.5 266,-228.5"/>
<text text-anchor="middle" x="288.5" y="-235.5" font-family="Helvetica,sans-Serif" font-size="10.00">str_rep</text>
</a>
</g>
</g>
<!-- Node15&#45;&gt;Node19 -->
<g id="edge23" class="edge"><title>Node15&#45;&gt;Node19</title>
<path fill="none" stroke="midnightblue" d="M210.818,-300.316C214.017,-298.697 217.12,-296.926 220,-295 239.338,-282.067 237.875,-271.585 256,-257 260.18,-253.637 265.008,-250.435 269.609,-247.651"/>
<polygon fill="midnightblue" stroke="midnightblue" points="209.312,-297.155 201.657,-304.48 212.209,-303.528 209.312,-297.155"/>
</g>
<!-- Node20 -->
<g id="node20" class="node"><title>Node20</title>
<g id="a_node20"><a xlink:href="../../dc/d77/lstrlib_8c.html#a3f7db8b2258dca5459ad52d2cbf9f28c" target="_top" xlink:title="str_char">
<polygon fill="none" stroke="black" points="263.5,-190.5 263.5,-209.5 313.5,-209.5 313.5,-190.5 263.5,-190.5"/>
<text text-anchor="middle" x="288.5" y="-197.5" font-family="Helvetica,sans-Serif" font-size="10.00">str_char</text>
</a>
</g>
</g>
<!-- Node15&#45;&gt;Node20 -->
<g id="edge24" class="edge"><title>Node15&#45;&gt;Node20</title>
<path fill="none" stroke="midnightblue" d="M214.51,-299.359C216.455,-298.026 218.3,-296.576 220,-295 247.412,-269.593 230.931,-246.721 256,-219 259.256,-215.4 263.354,-212.263 267.509,-209.631"/>
<polygon fill="midnightblue" stroke="midnightblue" points="212.45,-296.504 205.485,-304.487 215.908,-302.59 212.45,-296.504"/>
</g>
<!-- Node23 -->
<g id="node23" class="node"><title>Node23</title>
<g id="a_node23"><a xlink:href="../../de/df3/liolib_8c.html#addece2406777a40f0f591e3518293932" target="_top" xlink:title="g_read">
<polygon fill="none" stroke="black" points="265.5,-152.5 265.5,-171.5 311.5,-171.5 311.5,-152.5 265.5,-152.5"/>
<text text-anchor="middle" x="288.5" y="-159.5" font-family="Helvetica,sans-Serif" font-size="10.00">g_read</text>
</a>
</g>
</g>
<!-- Node22&#45;&gt;Node23 -->
<g id="edge27" class="edge"><title>Node22&#45;&gt;Node23</title>
<path fill="none" stroke="midnightblue" d="M204.393,-227.326C209.82,-224.967 215.218,-222.198 220,-219 239.338,-206.067 237.875,-195.585 256,-181 260.18,-177.637 265.008,-174.435 269.609,-171.651"/>
<polygon fill="midnightblue" stroke="midnightblue" points="202.742,-224.215 194.718,-231.133 205.305,-230.729 202.742,-224.215"/>
</g>
<!-- Node24 -->
<g id="node24" class="node"><title>Node24</title>
<g id="a_node24"><a xlink:href="../../de/df3/liolib_8c.html#a45307aa59a628966c6ea270e9b476d9a" target="_top" xlink:title="io_read">
<polygon fill="none" stroke="black" points="370,-190.5 370,-209.5 417,-209.5 417,-190.5 370,-190.5"/>
<text text-anchor="middle" x="393.5" y="-197.5" font-family="Helvetica,sans-Serif" font-size="10.00">io_read</text>
</a>
</g>
</g>
<!-- Node23&#45;&gt;Node24 -->
<g id="edge28" class="edge"><title>Node23&#45;&gt;Node24</title>
<path fill="none" stroke="midnightblue" d="M321.395,-173.767C337.042,-179.54 355.527,-186.36 369.728,-191.599"/>
<polygon fill="midnightblue" stroke="midnightblue" points="322.189,-170.33 311.596,-170.152 319.766,-176.897 322.189,-170.33"/>
</g>
<!-- Node25 -->
<g id="node25" class="node"><title>Node25</title>
<g id="a_node25"><a xlink:href="../../de/df3/liolib_8c.html#add5250a74576076467531e4eb8f5f68e" target="_top" xlink:title="f_read">
<polygon fill="none" stroke="black" points="372,-152.5 372,-171.5 415,-171.5 415,-152.5 372,-152.5"/>
<text text-anchor="middle" x="393.5" y="-159.5" font-family="Helvetica,sans-Serif" font-size="10.00">f_read</text>
</a>
</g>
</g>
<!-- Node23&#45;&gt;Node25 -->
<g id="edge29" class="edge"><title>Node23&#45;&gt;Node25</title>
<path fill="none" stroke="midnightblue" d="M321.821,-162C338.169,-162 357.524,-162 371.843,-162"/>
<polygon fill="midnightblue" stroke="midnightblue" points="321.596,-158.5 311.596,-162 321.596,-165.5 321.596,-158.5"/>
</g>
<!-- Node26 -->
<g id="node26" class="node"><title>Node26</title>
<g id="a_node26"><a xlink:href="../../de/df3/liolib_8c.html#ac37d80ee2cc364b4adafcb6f7c20f28b" target="_top" xlink:title="io_readline">
<polygon fill="none" stroke="black" points="363,-114.5 363,-133.5 424,-133.5 424,-114.5 363,-114.5"/>
<text text-anchor="middle" x="393.5" y="-121.5" font-family="Helvetica,sans-Serif" font-size="10.00">io_readline</text>
</a>
</g>
</g>
<!-- Node23&#45;&gt;Node26 -->
<g id="edge30" class="edge"><title>Node23&#45;&gt;Node26</title>
<path fill="none" stroke="midnightblue" d="M321.176,-150.314C335.688,-144.96 352.677,-138.692 366.434,-133.617"/>
<polygon fill="midnightblue" stroke="midnightblue" points="319.766,-147.103 311.596,-153.848 322.189,-153.67 319.766,-147.103"/>
</g>
<!-- Node27 -->
<g id="node27" class="node"><title>Node27</title>
<g id="a_node27"><a xlink:href="../../de/df3/liolib_8c.html#a66325940a0248cee288153edb061c0c4" target="_top" xlink:title="aux_lines">
<polygon fill="none" stroke="black" points="477.5,-114.5 477.5,-133.5 534.5,-133.5 534.5,-114.5 477.5,-114.5"/>
<text text-anchor="middle" x="506" y="-121.5" font-family="Helvetica,sans-Serif" font-size="10.00">aux_lines</text>
</a>
</g>
</g>
<!-- Node26&#45;&gt;Node27 -->
<g id="edge31" class="edge"><title>Node26&#45;&gt;Node27</title>
<path fill="none" stroke="midnightblue" d="M434.164,-124C448.417,-124 464.178,-124 477.208,-124"/>
<polygon fill="midnightblue" stroke="midnightblue" points="434.112,-120.5 424.112,-124 434.112,-127.5 434.112,-120.5"/>
</g>
<!-- Node28 -->
<g id="node28" class="node"><title>Node28</title>
<g id="a_node28"><a xlink:href="../../de/df3/liolib_8c.html#a6a36f72d8b3966c1ebafab8a4791cb6c" target="_top" xlink:title="f_lines">
<polygon fill="none" stroke="black" points="612.5,-133.5 612.5,-152.5 655.5,-152.5 655.5,-133.5 612.5,-133.5"/>
<text text-anchor="middle" x="634" y="-140.5" font-family="Helvetica,sans-Serif" font-size="10.00">f_lines</text>
</a>
</g>
</g>
<!-- Node27&#45;&gt;Node28 -->
<g id="edge32" class="edge"><title>Node27&#45;&gt;Node28</title>
<path fill="none" stroke="midnightblue" d="M544.765,-129.695C566.963,-133.042 594.167,-137.144 612.451,-139.901"/>
<polygon fill="midnightblue" stroke="midnightblue" points="545.061,-126.2 534.651,-128.17 544.018,-133.122 545.061,-126.2"/>
</g>
<!-- Node29 -->
<g id="node29" class="node"><title>Node29</title>
<g id="a_node29"><a xlink:href="../../de/df3/liolib_8c.html#ab08031b51605d4ef676ec33a3b96a286" target="_top" xlink:title="io_lines">
<polygon fill="none" stroke="black" points="610.5,-95.5 610.5,-114.5 657.5,-114.5 657.5,-95.5 610.5,-95.5"/>
<text text-anchor="middle" x="634" y="-102.5" font-family="Helvetica,sans-Serif" font-size="10.00">io_lines</text>
</a>
</g>
</g>
<!-- Node27&#45;&gt;Node29 -->
<g id="edge33" class="edge"><title>Node27&#45;&gt;Node29</title>
<path fill="none" stroke="midnightblue" d="M544.732,-118.31C566.142,-115.082 592.219,-111.15 610.457,-108.399"/>
<polygon fill="midnightblue" stroke="midnightblue" points="544.018,-114.878 534.651,-119.83 545.061,-121.8 544.018,-114.878"/>
</g>
<!-- Node30&#45;&gt;Node23 -->
<g id="edge35" class="edge"><title>Node30&#45;&gt;Node23</title>
<path fill="none" stroke="midnightblue" d="M209.689,-187.272C228.233,-181.249 249.693,-174.279 265.373,-169.187"/>
<polygon fill="midnightblue" stroke="midnightblue" points="208.454,-183.993 200.024,-190.411 210.616,-190.651 208.454,-183.993"/>
</g>
<!-- Node31&#45;&gt;Node23 -->
<g id="edge37" class="edge"><title>Node31&#45;&gt;Node23</title>
<path fill="none" stroke="midnightblue" d="M206.927,-162C226.027,-162 248.807,-162 265.264,-162"/>
<polygon fill="midnightblue" stroke="midnightblue" points="206.757,-158.5 196.757,-162 206.757,-165.5 206.757,-158.5"/>
</g>
</g>
</svg>
