<?xml version="1.0" encoding="UTF-8" standalone="no"?>
<!DOCTYPE svg PUBLIC "-//W3C//DTD SVG 1.1//EN"
 "http://www.w3.org/Graphics/SVG/1.1/DTD/svg11.dtd">
<!-- Generated by graphviz version 2.38.0 (20140413.2041)
 -->
<!-- Title: luaL_checklstring Pages: 1 -->
<svg width="304pt" height="522pt"
 viewBox="0.00 0.00 304.00 522.00" xmlns="http://www.w3.org/2000/svg" xmlns:xlink="http://www.w3.org/1999/xlink">
<g id="graph0" class="graph" transform="scale(1 1) rotate(0) translate(4 518)">
<title>luaL_checklstring</title>
<!-- Node1 -->
<g id="node1" class="node"><title>Node1</title>
<polygon fill="#bfbfbf" stroke="black" points="0,-247.5 0,-266.5 87,-266.5 87,-247.5 0,-247.5"/>
<text text-anchor="middle" x="43.5" y="-254.5" font-family="Helvetica,sans-Serif" font-size="10.00">luaL_checklstring</text>
</g>
<!-- Node2 -->
<g id="node2" class="node"><title>Node2</title>
<g id="a_node2"><a xlink:href="../../dc/d77/lstrlib_8c.html#a95c31911812b88f7c4ab6ceb63a1e1e8" target="_top" xlink:title="addquoted">
<polygon fill="none" stroke="black" points="132,-494.5 132,-513.5 194,-513.5 194,-494.5 132,-494.5"/>
<text text-anchor="middle" x="163" y="-501.5" font-family="Helvetica,sans-Serif" font-size="10.00">addquoted</text>
</a>
</g>
</g>
<!-- Node1&#45;&gt;Node2 -->
<g id="edge1" class="edge"><title>Node1&#45;&gt;Node2</title>
<path fill="none" stroke="midnightblue" d="M46.918,-276.502C52.9474,-318.079 72.0115,-416.793 123,-480 127.692,-485.817 134.197,-490.597 140.55,-494.319"/>
<polygon fill="midnightblue" stroke="midnightblue" points="50.3844,-276.017 45.5737,-266.578 43.4478,-276.957 50.3844,-276.017"/>
</g>
<!-- Node3 -->
<g id="node3" class="node"><title>Node3</title>
<g id="a_node3"><a xlink:href="../../dc/d77/lstrlib_8c.html#ae26a9374857058119e59d0328208c2f2" target="_top" xlink:title="str_format">
<polygon fill="none" stroke="black" points="239,-475.5 239,-494.5 296,-494.5 296,-475.5 239,-475.5"/>
<text text-anchor="middle" x="267.5" y="-482.5" font-family="Helvetica,sans-Serif" font-size="10.00">str_format</text>
</a>
</g>
</g>
<!-- Node1&#45;&gt;Node3 -->
<g id="edge14" class="edge"><title>Node1&#45;&gt;Node3</title>
<path fill="none" stroke="midnightblue" d="M46.8462,-276.549C52.5367,-315.116 70.6887,-401.218 123,-447 155.581,-475.514 207.2,-482.969 238.838,-484.724"/>
<polygon fill="midnightblue" stroke="midnightblue" points="50.3099,-276.045 45.5044,-266.603 43.3727,-276.981 50.3099,-276.045"/>
</g>
<!-- Node4 -->
<g id="node4" class="node"><title>Node4</title>
<g id="a_node4"><a xlink:href="../../de/df3/liolib_8c.html#a88c73a30c7d135dfb4958b7bfaa90cc7" target="_top" xlink:title="g_write">
<polygon fill="none" stroke="black" points="139.5,-418.5 139.5,-437.5 186.5,-437.5 186.5,-418.5 139.5,-418.5"/>
<text text-anchor="middle" x="163" y="-425.5" font-family="Helvetica,sans-Serif" font-size="10.00">g_write</text>
</a>
</g>
</g>
<!-- Node1&#45;&gt;Node4 -->
<g id="edge3" class="edge"><title>Node1&#45;&gt;Node4</title>
<path fill="none" stroke="midnightblue" d="M50.1683,-276.644C60.1607,-308.21 83.6604,-370.57 123,-409 127.633,-413.526 133.555,-417.156 139.376,-419.98"/>
<polygon fill="midnightblue" stroke="midnightblue" points="53.4494,-275.403 47.1933,-266.853 46.7517,-277.438 53.4494,-275.403"/>
</g>
<!-- Node7 -->
<g id="node7" class="node"><title>Node7</title>
<g id="a_node7"><a xlink:href="../../d8/dd3/lbaselib_8c.html#a6224f7b7c4485996e1c22eae32de990d" target="_top" xlink:title="luaB_tonumber">
<polygon fill="none" stroke="black" points="123,-380.5 123,-399.5 203,-399.5 203,-380.5 123,-380.5"/>
<text text-anchor="middle" x="163" y="-387.5" font-family="Helvetica,sans-Serif" font-size="10.00">luaB_tonumber</text>
</a>
</g>
</g>
<!-- Node1&#45;&gt;Node7 -->
<g id="edge6" class="edge"><title>Node1&#45;&gt;Node7</title>
<path fill="none" stroke="midnightblue" d="M54.7339,-275.531C68.1781,-298.696 93.5641,-338.624 123,-366 128.938,-371.523 136.336,-376.454 143.087,-380.389"/>
<polygon fill="midnightblue" stroke="midnightblue" points="57.7086,-273.681 49.7262,-266.715 51.622,-277.139 57.7086,-273.681"/>
</g>
<!-- Node8 -->
<g id="node8" class="node"><title>Node8</title>
<g id="a_node8"><a xlink:href="../../da/d29/lauxlib_8h.html#a15b8c426b2e1b0cd1f9ddc32bc94df2f" target="_top" xlink:title="luaL_optlstring">
<polygon fill="none" stroke="black" points="124.5,-304.5 124.5,-323.5 201.5,-323.5 201.5,-304.5 124.5,-304.5"/>
<text text-anchor="middle" x="163" y="-311.5" font-family="Helvetica,sans-Serif" font-size="10.00">luaL_optlstring</text>
</a>
</g>
</g>
<!-- Node1&#45;&gt;Node8 -->
<g id="edge7" class="edge"><title>Node1&#45;&gt;Node8</title>
<path fill="none" stroke="midnightblue" d="M73.4363,-271.037C94.8441,-281.422 123.438,-295.293 142.269,-304.428"/>
<polygon fill="midnightblue" stroke="midnightblue" points="74.6917,-267.756 64.1669,-266.541 71.6365,-274.054 74.6917,-267.756"/>
</g>
<!-- Node9 -->
<g id="node9" class="node"><title>Node9</title>
<g id="a_node9"><a xlink:href="../../dc/d77/lstrlib_8c.html#acaee4c84f29e2ec7366728ca04d3569c" target="_top" xlink:title="str_rep">
<polygon fill="none" stroke="black" points="245,-342.5 245,-361.5 290,-361.5 290,-342.5 245,-342.5"/>
<text text-anchor="middle" x="267.5" y="-349.5" font-family="Helvetica,sans-Serif" font-size="10.00">str_rep</text>
</a>
</g>
</g>
<!-- Node1&#45;&gt;Node9 -->
<g id="edge18" class="edge"><title>Node1&#45;&gt;Node9</title>
<path fill="none" stroke="midnightblue" d="M57.5631,-275.156C71.5618,-293.09 95.5151,-319.709 123,-333 162.818,-352.256 215.713,-354.015 244.883,-353.235"/>
<polygon fill="midnightblue" stroke="midnightblue" points="59.9957,-272.568 51.1841,-266.685 54.404,-276.779 59.9957,-272.568"/>
</g>
<!-- Node11 -->
<g id="node11" class="node"><title>Node11</title>
<g id="a_node11"><a xlink:href="../../dc/d77/lstrlib_8c.html#ae561770420cfd1894054415df9d4c423" target="_top" xlink:title="str_byte">
<polygon fill="none" stroke="black" points="138,-266.5 138,-285.5 188,-285.5 188,-266.5 138,-266.5"/>
<text text-anchor="middle" x="163" y="-273.5" font-family="Helvetica,sans-Serif" font-size="10.00">str_byte</text>
</a>
</g>
</g>
<!-- Node1&#45;&gt;Node11 -->
<g id="edge10" class="edge"><title>Node1&#45;&gt;Node11</title>
<path fill="none" stroke="midnightblue" d="M97.4244,-265.558C111.569,-267.845 126.169,-270.206 137.901,-272.103"/>
<polygon fill="midnightblue" stroke="midnightblue" points="97.6831,-262.054 87.2526,-263.913 96.5656,-268.965 97.6831,-262.054"/>
</g>
<!-- Node12 -->
<g id="node12" class="node"><title>Node12</title>
<g id="a_node12"><a xlink:href="../../dc/d77/lstrlib_8c.html#a692514aa32ae2668683a4db15259d26b" target="_top" xlink:title="str_find_aux">
<polygon fill="none" stroke="black" points="129,-228.5 129,-247.5 197,-247.5 197,-228.5 129,-228.5"/>
<text text-anchor="middle" x="163" y="-235.5" font-family="Helvetica,sans-Serif" font-size="10.00">str_find_aux</text>
</a>
</g>
</g>
<!-- Node1&#45;&gt;Node12 -->
<g id="edge11" class="edge"><title>Node1&#45;&gt;Node12</title>
<path fill="none" stroke="midnightblue" d="M97.342,-248.455C107.998,-246.732 118.915,-244.967 128.673,-243.389"/>
<polygon fill="midnightblue" stroke="midnightblue" points="96.5656,-245.035 87.2526,-250.087 97.6831,-251.946 96.5656,-245.035"/>
</g>
<!-- Node15 -->
<g id="node15" class="node"><title>Node15</title>
<g id="a_node15"><a xlink:href="../../dc/d77/lstrlib_8c.html#a42337c674d265175bcc2b2f3809c7339" target="_top" xlink:title="str_gsub">
<polygon fill="none" stroke="black" points="136.5,-190.5 136.5,-209.5 189.5,-209.5 189.5,-190.5 136.5,-190.5"/>
<text text-anchor="middle" x="163" y="-197.5" font-family="Helvetica,sans-Serif" font-size="10.00">str_gsub</text>
</a>
</g>
</g>
<!-- Node1&#45;&gt;Node15 -->
<g id="edge15" class="edge"><title>Node1&#45;&gt;Node15</title>
<path fill="none" stroke="midnightblue" d="M73.4363,-242.963C94.8441,-232.578 123.438,-218.707 142.269,-209.572"/>
<polygon fill="midnightblue" stroke="midnightblue" points="71.6365,-239.946 64.1669,-247.459 74.6917,-246.244 71.6365,-239.946"/>
</g>
<!-- Node16 -->
<g id="node16" class="node"><title>Node16</title>
<g id="a_node16"><a xlink:href="../../dc/d77/lstrlib_8c.html#a357ce37478dde24252724e3c4c66ce11" target="_top" xlink:title="str_len">
<polygon fill="none" stroke="black" points="141,-152.5 141,-171.5 185,-171.5 185,-152.5 141,-152.5"/>
<text text-anchor="middle" x="163" y="-159.5" font-family="Helvetica,sans-Serif" font-size="10.00">str_len</text>
</a>
</g>
</g>
<!-- Node1&#45;&gt;Node16 -->
<g id="edge16" class="edge"><title>Node1&#45;&gt;Node16</title>
<path fill="none" stroke="midnightblue" d="M59.7865,-239.263C74.7076,-222.706 98.66,-198.058 123,-181 128.428,-177.196 134.732,-173.762 140.669,-170.894"/>
<polygon fill="midnightblue" stroke="midnightblue" points="56.8575,-237.291 52.8528,-247.1 62.1003,-241.929 56.8575,-237.291"/>
</g>
<!-- Node17 -->
<g id="node17" class="node"><title>Node17</title>
<g id="a_node17"><a xlink:href="../../dc/d77/lstrlib_8c.html#ab2235f81205d0482d03c8ae456a98992" target="_top" xlink:title="str_lower">
<polygon fill="none" stroke="black" points="136,-114.5 136,-133.5 190,-133.5 190,-114.5 136,-114.5"/>
<text text-anchor="middle" x="163" y="-121.5" font-family="Helvetica,sans-Serif" font-size="10.00">str_lower</text>
</a>
</g>
</g>
<!-- Node1&#45;&gt;Node17 -->
<g id="edge17" class="edge"><title>Node1&#45;&gt;Node17</title>
<path fill="none" stroke="midnightblue" d="M53.5509,-238.18C66.1733,-213.581 91.1418,-170.414 123,-143 127.225,-139.365 132.266,-136.244 137.298,-133.643"/>
<polygon fill="midnightblue" stroke="midnightblue" points="50.3832,-236.69 49.0511,-247.201 56.647,-239.815 50.3832,-236.69"/>
</g>
<!-- Node18 -->
<g id="node18" class="node"><title>Node18</title>
<g id="a_node18"><a xlink:href="../../dc/d77/lstrlib_8c.html#a4b2ffac60e817b9bfc54b32f8da3a6b4" target="_top" xlink:title="str_reverse">
<polygon fill="none" stroke="black" points="132,-76.5 132,-95.5 194,-95.5 194,-76.5 132,-76.5"/>
<text text-anchor="middle" x="163" y="-83.5" font-family="Helvetica,sans-Serif" font-size="10.00">str_reverse</text>
</a>
</g>
</g>
<!-- Node1&#45;&gt;Node18 -->
<g id="edge19" class="edge"><title>Node1&#45;&gt;Node18</title>
<path fill="none" stroke="midnightblue" d="M50.1683,-237.356C60.1607,-205.79 83.6604,-143.43 123,-105 126.771,-101.316 131.396,-98.2259 136.126,-95.6806"/>
<polygon fill="midnightblue" stroke="midnightblue" points="46.7517,-236.562 47.1933,-247.147 53.4494,-238.597 46.7517,-236.562"/>
</g>
<!-- Node19 -->
<g id="node19" class="node"><title>Node19</title>
<g id="a_node19"><a xlink:href="../../dc/d77/lstrlib_8c.html#a039b391d5f43533a0ce750c5e40d7752" target="_top" xlink:title="str_sub">
<polygon fill="none" stroke="black" points="139,-38.5 139,-57.5 187,-57.5 187,-38.5 139,-38.5"/>
<text text-anchor="middle" x="163" y="-45.5" font-family="Helvetica,sans-Serif" font-size="10.00">str_sub</text>
</a>
</g>
</g>
<!-- Node1&#45;&gt;Node19 -->
<g id="edge20" class="edge"><title>Node1&#45;&gt;Node19</title>
<path fill="none" stroke="midnightblue" d="M47.8459,-237.279C55.1516,-199.717 75.8064,-117.191 123,-67 127.334,-62.3909 133.023,-58.7609 138.71,-55.9637"/>
<polygon fill="midnightblue" stroke="midnightblue" points="44.3498,-236.94 45.9925,-247.407 51.2355,-238.2 44.3498,-236.94"/>
</g>
<!-- Node20 -->
<g id="node20" class="node"><title>Node20</title>
<g id="a_node20"><a xlink:href="../../dc/d77/lstrlib_8c.html#a38ed99b74af58070449ca344a7351f6a" target="_top" xlink:title="str_upper">
<polygon fill="none" stroke="black" points="135,-0.5 135,-19.5 191,-19.5 191,-0.5 135,-0.5"/>
<text text-anchor="middle" x="163" y="-7.5" font-family="Helvetica,sans-Serif" font-size="10.00">str_upper</text>
</a>
</g>
</g>
<!-- Node1&#45;&gt;Node20 -->
<g id="edge21" class="edge"><title>Node1&#45;&gt;Node20</title>
<path fill="none" stroke="midnightblue" d="M46.2462,-237.256C51.0153,-194.319 67.847,-91.3127 123,-29 126.295,-25.2777 130.483,-22.2119 134.884,-19.7114"/>
<polygon fill="midnightblue" stroke="midnightblue" points="42.7369,-237.174 45.2184,-247.474 49.7018,-237.874 42.7369,-237.174"/>
</g>
<!-- Node2&#45;&gt;Node3 -->
<g id="edge2" class="edge"><title>Node2&#45;&gt;Node3</title>
<path fill="none" stroke="midnightblue" d="M204.168,-496.554C215.82,-494.394 228.275,-492.086 238.964,-490.104"/>
<polygon fill="midnightblue" stroke="midnightblue" points="203.394,-493.138 194.199,-498.402 204.669,-500.021 203.394,-493.138"/>
</g>
<!-- Node5 -->
<g id="node5" class="node"><title>Node5</title>
<g id="a_node5"><a xlink:href="../../de/df3/liolib_8c.html#ada35daf906cc262cc6944cad92b93ac3" target="_top" xlink:title="io_write">
<polygon fill="none" stroke="black" points="243.5,-418.5 243.5,-437.5 291.5,-437.5 291.5,-418.5 243.5,-418.5"/>
<text text-anchor="middle" x="267.5" y="-425.5" font-family="Helvetica,sans-Serif" font-size="10.00">io_write</text>
</a>
</g>
</g>
<!-- Node4&#45;&gt;Node5 -->
<g id="edge4" class="edge"><title>Node4&#45;&gt;Node5</title>
<path fill="none" stroke="midnightblue" d="M196.794,-428C211.997,-428 229.7,-428 243.461,-428"/>
<polygon fill="midnightblue" stroke="midnightblue" points="196.748,-424.5 186.748,-428 196.748,-431.5 196.748,-424.5"/>
</g>
<!-- Node6 -->
<g id="node6" class="node"><title>Node6</title>
<g id="a_node6"><a xlink:href="../../de/df3/liolib_8c.html#adba67ef94aaa532d9224ca04f8126ac2" target="_top" xlink:title="f_write">
<polygon fill="none" stroke="black" points="245.5,-380.5 245.5,-399.5 289.5,-399.5 289.5,-380.5 245.5,-380.5"/>
<text text-anchor="middle" x="267.5" y="-387.5" font-family="Helvetica,sans-Serif" font-size="10.00">f_write</text>
</a>
</g>
</g>
<!-- Node4&#45;&gt;Node6 -->
<g id="edge5" class="edge"><title>Node4&#45;&gt;Node6</title>
<path fill="none" stroke="midnightblue" d="M196.256,-416.042C212.229,-410.12 231.069,-403.135 245.215,-397.891"/>
<polygon fill="midnightblue" stroke="midnightblue" points="194.908,-412.809 186.748,-419.567 197.341,-419.372 194.908,-412.809"/>
</g>
<!-- Node8&#45;&gt;Node9 -->
<g id="edge8" class="edge"><title>Node8&#45;&gt;Node9</title>
<path fill="none" stroke="midnightblue" d="M199.426,-327.134C214.516,-332.728 231.635,-339.075 244.802,-343.956"/>
<polygon fill="midnightblue" stroke="midnightblue" points="200.458,-323.783 189.865,-323.589 198.025,-330.347 200.458,-323.783"/>
</g>
<!-- Node10 -->
<g id="node10" class="node"><title>Node10</title>
<g id="a_node10"><a xlink:href="../../d0/da1/ltablib_8c.html#add6973c515a288f41265aca8e0ae6412" target="_top" xlink:title="tconcat">
<polygon fill="none" stroke="black" points="244,-304.5 244,-323.5 291,-323.5 291,-304.5 244,-304.5"/>
<text text-anchor="middle" x="267.5" y="-311.5" font-family="Helvetica,sans-Serif" font-size="10.00">tconcat</text>
</a>
</g>
</g>
<!-- Node8&#45;&gt;Node10 -->
<g id="edge9" class="edge"><title>Node8&#45;&gt;Node10</title>
<path fill="none" stroke="midnightblue" d="M211.734,-314C222.922,-314 234.333,-314 243.823,-314"/>
<polygon fill="midnightblue" stroke="midnightblue" points="211.585,-310.5 201.585,-314 211.585,-317.5 211.585,-310.5"/>
</g>
<!-- Node13 -->
<g id="node13" class="node"><title>Node13</title>
<g id="a_node13"><a xlink:href="../../dc/d77/lstrlib_8c.html#a362a4bc9ba81ce87253cc3d74f015808" target="_top" xlink:title="str_find">
<polygon fill="none" stroke="black" points="244.5,-247.5 244.5,-266.5 290.5,-266.5 290.5,-247.5 244.5,-247.5"/>
<text text-anchor="middle" x="267.5" y="-254.5" font-family="Helvetica,sans-Serif" font-size="10.00">str_find</text>
</a>
</g>
</g>
<!-- Node12&#45;&gt;Node13 -->
<g id="edge12" class="edge"><title>Node12&#45;&gt;Node13</title>
<path fill="none" stroke="midnightblue" d="M207.314,-246.029C220.086,-248.396 233.531,-250.889 244.373,-252.898"/>
<polygon fill="midnightblue" stroke="midnightblue" points="207.749,-242.55 197.279,-244.169 206.473,-249.433 207.749,-242.55"/>
</g>
<!-- Node14 -->
<g id="node14" class="node"><title>Node14</title>
<g id="a_node14"><a xlink:href="../../dc/d77/lstrlib_8c.html#a4b605e43b8f5738db9eae902bbc00f00" target="_top" xlink:title="str_match">
<polygon fill="none" stroke="black" points="239,-209.5 239,-228.5 296,-228.5 296,-209.5 239,-209.5"/>
<text text-anchor="middle" x="267.5" y="-216.5" font-family="Helvetica,sans-Serif" font-size="10.00">str_match</text>
</a>
</g>
</g>
<!-- Node12&#45;&gt;Node14 -->
<g id="edge13" class="edge"><title>Node12&#45;&gt;Node14</title>
<path fill="none" stroke="midnightblue" d="M207.317,-229.97C218.003,-227.99 229.161,-225.921 238.871,-224.122"/>
<polygon fill="midnightblue" stroke="midnightblue" points="206.473,-226.567 197.279,-231.831 207.749,-233.45 206.473,-226.567"/>
</g>
</g>
</svg>
