<?xml version="1.0" encoding="UTF-8" standalone="no"?>
<!DOCTYPE svg PUBLIC "-//W3C//DTD SVG 1.1//EN"
 "http://www.w3.org/Graphics/SVG/1.1/DTD/svg11.dtd">
<!-- Generated by graphviz version 2.38.0 (20140413.2041)
 -->
<!-- Title: luaL_len Pages: 1 -->
<svg width="728pt" height="142pt"
 viewBox="0.00 0.00 728.00 142.00" xmlns="http://www.w3.org/2000/svg" xmlns:xlink="http://www.w3.org/1999/xlink">
<g id="graph0" class="graph" transform="scale(1 1) rotate(0) translate(4 138)">
<title>luaL_len</title>
<!-- Node1 -->
<g id="node1" class="node"><title>Node1</title>
<polygon fill="#bfbfbf" stroke="black" points="0,-57.5 0,-76.5 52,-76.5 52,-57.5 0,-57.5"/>
<text text-anchor="middle" x="26" y="-64.5" font-family="Helvetica,sans-Serif" font-size="10.00">luaL_len</text>
</g>
<!-- Node2 -->
<g id="node2" class="node"><title>Node2</title>
<g id="a_node2"><a xlink:href="../../d2/d82/loadlib_8c.html#a59926ced6bee14c7b952ef79d3520084" target="_top" xlink:title="gctm">
<polygon fill="none" stroke="black" points="198,-114.5 198,-133.5 234,-133.5 234,-114.5 198,-114.5"/>
<text text-anchor="middle" x="216" y="-121.5" font-family="Helvetica,sans-Serif" font-size="10.00">gctm</text>
</a>
</g>
</g>
<!-- Node1&#45;&gt;Node2 -->
<g id="edge1" class="edge"><title>Node1&#45;&gt;Node2</title>
<path fill="none" stroke="midnightblue" d="M47.5989,-82.8007C58.9318,-90.7039 73.5875,-99.693 88,-105 125.448,-118.789 172.619,-122.584 197.607,-123.62"/>
<polygon fill="midnightblue" stroke="midnightblue" points="49.4433,-79.8151 39.2906,-76.7863 45.3386,-85.4853 49.4433,-79.8151"/>
</g>
<!-- Node4 -->
<g id="node4" class="node"><title>Node4</title>
<g id="a_node4"><a xlink:href="../../d2/d82/loadlib_8c.html#a7a6ec2174d2de185431876163cd2d469" target="_top" xlink:title="ll_addtoclib">
<polygon fill="none" stroke="black" points="88,-76.5 88,-95.5 150,-95.5 150,-76.5 88,-76.5"/>
<text text-anchor="middle" x="119" y="-83.5" font-family="Helvetica,sans-Serif" font-size="10.00">ll_addtoclib</text>
</a>
</g>
</g>
<!-- Node1&#45;&gt;Node4 -->
<g id="edge3" class="edge"><title>Node1&#45;&gt;Node4</title>
<path fill="none" stroke="midnightblue" d="M62.3391,-74.3785C70.7994,-76.1449 79.7536,-78.0145 87.949,-79.7256"/>
<polygon fill="midnightblue" stroke="midnightblue" points="62.8529,-70.9104 52.3486,-72.2926 61.4221,-77.7626 62.8529,-70.9104"/>
</g>
<!-- Node11 -->
<g id="node11" class="node"><title>Node11</title>
<g id="a_node11"><a xlink:href="../../d0/da1/ltablib_8c.html#add6973c515a288f41265aca8e0ae6412" target="_top" xlink:title="tconcat">
<polygon fill="none" stroke="black" points="95.5,-38.5 95.5,-57.5 142.5,-57.5 142.5,-38.5 95.5,-38.5"/>
<text text-anchor="middle" x="119" y="-45.5" font-family="Helvetica,sans-Serif" font-size="10.00">tconcat</text>
</a>
</g>
</g>
<!-- Node1&#45;&gt;Node11 -->
<g id="edge12" class="edge"><title>Node1&#45;&gt;Node11</title>
<path fill="none" stroke="midnightblue" d="M62.2196,-59.6465C73.3203,-57.3287 85.2824,-54.8311 95.2716,-52.7455"/>
<polygon fill="midnightblue" stroke="midnightblue" points="61.4221,-56.2374 52.3486,-61.7074 62.8529,-63.0896 61.4221,-56.2374"/>
</g>
<!-- Node12 -->
<g id="node12" class="node"><title>Node12</title>
<g id="a_node12"><a xlink:href="../../d0/da1/ltablib_8c.html#aab557c98c16305370f73c4c716f5725d" target="_top" xlink:title="unpack">
<polygon fill="none" stroke="black" points="95,-0.5 95,-19.5 143,-19.5 143,-0.5 95,-0.5"/>
<text text-anchor="middle" x="119" y="-7.5" font-family="Helvetica,sans-Serif" font-size="10.00">unpack</text>
</a>
</g>
</g>
<!-- Node1&#45;&gt;Node12 -->
<g id="edge13" class="edge"><title>Node1&#45;&gt;Node12</title>
<path fill="none" stroke="midnightblue" d="M50.9802,-51.9794C67.3942,-41.6982 88.6626,-28.3762 102.791,-19.5265"/>
<polygon fill="midnightblue" stroke="midnightblue" points="49.0537,-49.0562 42.4369,-57.3307 52.7696,-54.9885 49.0537,-49.0562"/>
</g>
<!-- Node3 -->
<g id="node3" class="node"><title>Node3</title>
<g id="a_node3"><a xlink:href="../../d6/d07/lualib_8h.html#a05e0befc0439f926b6152129ab4f8dea" target="_top" xlink:title="luaopen_package">
<polygon fill="none" stroke="black" points="626,-95.5 626,-114.5 720,-114.5 720,-95.5 626,-95.5"/>
<text text-anchor="middle" x="673" y="-102.5" font-family="Helvetica,sans-Serif" font-size="10.00">luaopen_package</text>
</a>
</g>
</g>
<!-- Node2&#45;&gt;Node3 -->
<g id="edge2" class="edge"><title>Node2&#45;&gt;Node3</title>
<path fill="none" stroke="midnightblue" d="M244.078,-122.869C319.277,-119.729 531.329,-110.874 625.704,-106.933"/>
<polygon fill="midnightblue" stroke="midnightblue" points="243.851,-119.376 234.006,-123.29 244.143,-126.369 243.851,-119.376"/>
</g>
<!-- Node5 -->
<g id="node5" class="node"><title>Node5</title>
<g id="a_node5"><a xlink:href="../../d2/d82/loadlib_8c.html#a21b83479d4a62aa393b19bcb08e71889" target="_top" xlink:title="ll_loadfunc">
<polygon fill="none" stroke="black" points="186,-76.5 186,-95.5 246,-95.5 246,-76.5 186,-76.5"/>
<text text-anchor="middle" x="216" y="-83.5" font-family="Helvetica,sans-Serif" font-size="10.00">ll_loadfunc</text>
</a>
</g>
</g>
<!-- Node4&#45;&gt;Node5 -->
<g id="edge4" class="edge"><title>Node4&#45;&gt;Node5</title>
<path fill="none" stroke="midnightblue" d="M160.272,-86C168.839,-86 177.727,-86 185.786,-86"/>
<polygon fill="midnightblue" stroke="midnightblue" points="160.059,-82.5001 150.059,-86 160.059,-89.5001 160.059,-82.5001"/>
</g>
<!-- Node6 -->
<g id="node6" class="node"><title>Node6</title>
<g id="a_node6"><a xlink:href="../../d2/d82/loadlib_8c.html#aac7e69bc5b4403e49e2609425f0fb7b0" target="_top" xlink:title="ll_loadlib">
<polygon fill="none" stroke="black" points="282,-76.5 282,-95.5 334,-95.5 334,-76.5 282,-76.5"/>
<text text-anchor="middle" x="308" y="-83.5" font-family="Helvetica,sans-Serif" font-size="10.00">ll_loadlib</text>
</a>
</g>
</g>
<!-- Node5&#45;&gt;Node6 -->
<g id="edge5" class="edge"><title>Node5&#45;&gt;Node6</title>
<path fill="none" stroke="midnightblue" d="M256.728,-86C265.313,-86 274.158,-86 281.99,-86"/>
<polygon fill="midnightblue" stroke="midnightblue" points="256.469,-82.5001 246.469,-86 256.469,-89.5001 256.469,-82.5001"/>
</g>
<!-- Node7 -->
<g id="node7" class="node"><title>Node7</title>
<g id="a_node7"><a xlink:href="../../d2/d82/loadlib_8c.html#a91ac5b5231cf039af46226806dcc3884" target="_top" xlink:title="loadfunc">
<polygon fill="none" stroke="black" points="282,-38.5 282,-57.5 334,-57.5 334,-38.5 282,-38.5"/>
<text text-anchor="middle" x="308" y="-45.5" font-family="Helvetica,sans-Serif" font-size="10.00">loadfunc</text>
</a>
</g>
</g>
<!-- Node5&#45;&gt;Node7 -->
<g id="edge6" class="edge"><title>Node5&#45;&gt;Node7</title>
<path fill="none" stroke="midnightblue" d="M249.113,-72.4413C260.748,-67.5286 273.639,-62.0859 284.296,-57.5859"/>
<polygon fill="midnightblue" stroke="midnightblue" points="247.562,-69.2968 239.711,-76.411 250.285,-75.7456 247.562,-69.2968"/>
</g>
<!-- Node8 -->
<g id="node8" class="node"><title>Node8</title>
<g id="a_node8"><a xlink:href="../../d2/d82/loadlib_8c.html#a9a915ea950c831cee2f1e7b0a3bd9005" target="_top" xlink:title="searcher_C">
<polygon fill="none" stroke="black" points="377.5,-76.5 377.5,-95.5 442.5,-95.5 442.5,-76.5 377.5,-76.5"/>
<text text-anchor="middle" x="410" y="-83.5" font-family="Helvetica,sans-Serif" font-size="10.00">searcher_C</text>
</a>
</g>
</g>
<!-- Node7&#45;&gt;Node8 -->
<g id="edge7" class="edge"><title>Node7&#45;&gt;Node8</title>
<path fill="none" stroke="midnightblue" d="M343.907,-61.2646C357.035,-66.2533 371.695,-71.8241 383.774,-76.4141"/>
<polygon fill="midnightblue" stroke="midnightblue" points="344.825,-57.8695 334.234,-57.589 342.339,-64.413 344.825,-57.8695"/>
</g>
<!-- Node10 -->
<g id="node10" class="node"><title>Node10</title>
<g id="a_node10"><a xlink:href="../../d2/d82/loadlib_8c.html#a1ec05cd98a045c271aeda9f9c6041e1c" target="_top" xlink:title="searcher_Croot">
<polygon fill="none" stroke="black" points="370,-38.5 370,-57.5 450,-57.5 450,-38.5 370,-38.5"/>
<text text-anchor="middle" x="410" y="-45.5" font-family="Helvetica,sans-Serif" font-size="10.00">searcher_Croot</text>
</a>
</g>
</g>
<!-- Node7&#45;&gt;Node10 -->
<g id="edge10" class="edge"><title>Node7&#45;&gt;Node10</title>
<path fill="none" stroke="midnightblue" d="M344.284,-48C352.526,-48 361.353,-48 369.755,-48"/>
<polygon fill="midnightblue" stroke="midnightblue" points="344.234,-44.5001 334.234,-48 344.234,-51.5001 344.234,-44.5001"/>
</g>
<!-- Node9 -->
<g id="node9" class="node"><title>Node9</title>
<g id="a_node9"><a xlink:href="../../d2/d82/loadlib_8c.html#a8fc66c8b852ee2960dc20797521d1d9e" target="_top" xlink:title="createsearcherstable">
<polygon fill="none" stroke="black" points="486,-76.5 486,-95.5 590,-95.5 590,-76.5 486,-76.5"/>
<text text-anchor="middle" x="538" y="-83.5" font-family="Helvetica,sans-Serif" font-size="10.00">createsearcherstable</text>
</a>
</g>
</g>
<!-- Node8&#45;&gt;Node9 -->
<g id="edge8" class="edge"><title>Node8&#45;&gt;Node9</title>
<path fill="none" stroke="midnightblue" d="M452.921,-86C463.389,-86 474.735,-86 485.603,-86"/>
<polygon fill="midnightblue" stroke="midnightblue" points="452.795,-82.5001 442.795,-86 452.795,-89.5001 452.795,-82.5001"/>
</g>
<!-- Node9&#45;&gt;Node3 -->
<g id="edge9" class="edge"><title>Node9&#45;&gt;Node3</title>
<path fill="none" stroke="midnightblue" d="M600.056,-94.7223C608.666,-95.9523 617.398,-97.1997 625.67,-98.3814"/>
<polygon fill="midnightblue" stroke="midnightblue" points="600.435,-91.241 590.041,-93.2916 599.445,-98.1707 600.435,-91.241"/>
</g>
<!-- Node10&#45;&gt;Node9 -->
<g id="edge11" class="edge"><title>Node10&#45;&gt;Node9</title>
<path fill="none" stroke="midnightblue" d="M452.564,-60.5353C469.705,-65.7048 489.25,-71.5991 505.215,-76.4141"/>
<polygon fill="midnightblue" stroke="midnightblue" points="453.38,-57.1256 442.795,-57.589 451.359,-63.8274 453.38,-57.1256"/>
</g>
</g>
</svg>
