<?xml version="1.0" encoding="UTF-8" standalone="no"?>
<!DOCTYPE svg PUBLIC "-//W3C//DTD SVG 1.1//EN"
 "http://www.w3.org/Graphics/SVG/1.1/DTD/svg11.dtd">
<!-- Generated by graphviz version 2.38.0 (20140413.2041)
 -->
<!-- Title: luaL_optinteger Pages: 1 -->
<svg width="285pt" height="180pt"
 viewBox="0.00 0.00 285.00 180.00" xmlns="http://www.w3.org/2000/svg" xmlns:xlink="http://www.w3.org/1999/xlink">
<g id="graph0" class="graph" transform="scale(1 1) rotate(0) translate(4 176)">
<title>luaL_optinteger</title>
<!-- Node1 -->
<g id="node1" class="node"><title>Node1</title>
<polygon fill="#bfbfbf" stroke="black" points="0,-76.5 0,-95.5 80,-95.5 80,-76.5 0,-76.5"/>
<text text-anchor="middle" x="40" y="-83.5" font-family="Helvetica,sans-Serif" font-size="10.00">luaL_optinteger</text>
</g>
<!-- Node2 -->
<g id="node2" class="node"><title>Node2</title>
<g id="a_node2"><a xlink:href="../../de/df3/liolib_8c.html#aa7d559e7d43a6133ec495d6b4e5d68f2" target="_top" xlink:title="f_setvbuf">
<polygon fill="none" stroke="black" points="122,-152.5 122,-171.5 178,-171.5 178,-152.5 122,-152.5"/>
<text text-anchor="middle" x="150" y="-159.5" font-family="Helvetica,sans-Serif" font-size="10.00">f_setvbuf</text>
</a>
</g>
</g>
<!-- Node1&#45;&gt;Node2 -->
<g id="edge1" class="edge"><title>Node1&#45;&gt;Node2</title>
<path fill="none" stroke="midnightblue" d="M60.5671,-101.965C75.4141,-113.806 96.5242,-130.069 116,-143 120.847,-146.218 126.261,-149.469 131.279,-152.349"/>
<polygon fill="midnightblue" stroke="midnightblue" points="62.5943,-99.1041 52.6089,-95.5627 58.2064,-104.558 62.5943,-99.1041"/>
</g>
<!-- Node3 -->
<g id="node3" class="node"><title>Node3</title>
<g id="a_node3"><a xlink:href="../../dc/d77/lstrlib_8c.html#ae561770420cfd1894054415df9d4c423" target="_top" xlink:title="str_byte">
<polygon fill="none" stroke="black" points="125,-114.5 125,-133.5 175,-133.5 175,-114.5 125,-114.5"/>
<text text-anchor="middle" x="150" y="-121.5" font-family="Helvetica,sans-Serif" font-size="10.00">str_byte</text>
</a>
</g>
</g>
<!-- Node1&#45;&gt;Node3 -->
<g id="edge2" class="edge"><title>Node1&#45;&gt;Node3</title>
<path fill="none" stroke="midnightblue" d="M78.0352,-99.0309C93.4643,-104.46 110.95,-110.612 124.704,-115.451"/>
<polygon fill="midnightblue" stroke="midnightblue" points="78.8478,-95.6065 68.253,-95.589 76.5244,-102.21 78.8478,-95.6065"/>
</g>
<!-- Node4 -->
<g id="node4" class="node"><title>Node4</title>
<g id="a_node4"><a xlink:href="../../dc/d77/lstrlib_8c.html#a692514aa32ae2668683a4db15259d26b" target="_top" xlink:title="str_find_aux">
<polygon fill="none" stroke="black" points="116,-76.5 116,-95.5 184,-95.5 184,-76.5 116,-76.5"/>
<text text-anchor="middle" x="150" y="-83.5" font-family="Helvetica,sans-Serif" font-size="10.00">str_find_aux</text>
</a>
</g>
</g>
<!-- Node1&#45;&gt;Node4 -->
<g id="edge3" class="edge"><title>Node1&#45;&gt;Node4</title>
<path fill="none" stroke="midnightblue" d="M90.3508,-86C99.0252,-86 107.861,-86 115.953,-86"/>
<polygon fill="midnightblue" stroke="midnightblue" points="90.296,-82.5001 80.296,-86 90.296,-89.5001 90.296,-82.5001"/>
</g>
<!-- Node7 -->
<g id="node7" class="node"><title>Node7</title>
<g id="a_node7"><a xlink:href="../../dc/d77/lstrlib_8c.html#a42337c674d265175bcc2b2f3809c7339" target="_top" xlink:title="str_gsub">
<polygon fill="none" stroke="black" points="123.5,-38.5 123.5,-57.5 176.5,-57.5 176.5,-38.5 123.5,-38.5"/>
<text text-anchor="middle" x="150" y="-45.5" font-family="Helvetica,sans-Serif" font-size="10.00">str_gsub</text>
</a>
</g>
</g>
<!-- Node1&#45;&gt;Node7 -->
<g id="edge6" class="edge"><title>Node1&#45;&gt;Node7</title>
<path fill="none" stroke="midnightblue" d="M77.7437,-73.0717C92.7033,-67.8081 109.637,-61.8498 123.243,-57.0627"/>
<polygon fill="midnightblue" stroke="midnightblue" points="76.5244,-69.7903 68.253,-76.411 78.8478,-76.3935 76.5244,-69.7903"/>
</g>
<!-- Node8 -->
<g id="node8" class="node"><title>Node8</title>
<g id="a_node8"><a xlink:href="../../dc/d77/lstrlib_8c.html#a039b391d5f43533a0ce750c5e40d7752" target="_top" xlink:title="str_sub">
<polygon fill="none" stroke="black" points="126,-0.5 126,-19.5 174,-19.5 174,-0.5 126,-0.5"/>
<text text-anchor="middle" x="150" y="-7.5" font-family="Helvetica,sans-Serif" font-size="10.00">str_sub</text>
</a>
</g>
</g>
<!-- Node1&#45;&gt;Node8 -->
<g id="edge7" class="edge"><title>Node1&#45;&gt;Node8</title>
<path fill="none" stroke="midnightblue" d="M60.5671,-70.0348C75.4141,-58.1935 96.5242,-41.9315 116,-29 120.847,-25.782 126.261,-22.5313 131.279,-19.6505"/>
<polygon fill="midnightblue" stroke="midnightblue" points="58.2064,-67.4419 52.6089,-76.4373 62.5943,-72.8959 58.2064,-67.4419"/>
</g>
<!-- Node5 -->
<g id="node5" class="node"><title>Node5</title>
<g id="a_node5"><a xlink:href="../../dc/d77/lstrlib_8c.html#a362a4bc9ba81ce87253cc3d74f015808" target="_top" xlink:title="str_find">
<polygon fill="none" stroke="black" points="225.5,-95.5 225.5,-114.5 271.5,-114.5 271.5,-95.5 225.5,-95.5"/>
<text text-anchor="middle" x="248.5" y="-102.5" font-family="Helvetica,sans-Serif" font-size="10.00">str_find</text>
</a>
</g>
</g>
<!-- Node4&#45;&gt;Node5 -->
<g id="edge4" class="edge"><title>Node4&#45;&gt;Node5</title>
<path fill="none" stroke="midnightblue" d="M194.022,-94.4707C204.886,-96.6098 216.108,-98.8193 225.45,-100.659"/>
<polygon fill="midnightblue" stroke="midnightblue" points="194.698,-91.0366 184.21,-92.5387 193.345,-97.9047 194.698,-91.0366"/>
</g>
<!-- Node6 -->
<g id="node6" class="node"><title>Node6</title>
<g id="a_node6"><a xlink:href="../../dc/d77/lstrlib_8c.html#a4b605e43b8f5738db9eae902bbc00f00" target="_top" xlink:title="str_match">
<polygon fill="none" stroke="black" points="220,-57.5 220,-76.5 277,-76.5 277,-57.5 220,-57.5"/>
<text text-anchor="middle" x="248.5" y="-64.5" font-family="Helvetica,sans-Serif" font-size="10.00">str_match</text>
</a>
</g>
</g>
<!-- Node4&#45;&gt;Node6 -->
<g id="edge5" class="edge"><title>Node4&#45;&gt;Node6</title>
<path fill="none" stroke="midnightblue" d="M194.294,-77.4758C203.029,-75.756 211.983,-73.993 219.994,-72.4156"/>
<polygon fill="midnightblue" stroke="midnightblue" points="193.345,-74.0953 184.21,-79.4613 194.698,-80.9634 193.345,-74.0953"/>
</g>
</g>
</svg>
