<?xml version="1.0" encoding="UTF-8" standalone="no"?>
<!DOCTYPE svg PUBLIC "-//W3C//DTD SVG 1.1//EN"
 "http://www.w3.org/Graphics/SVG/1.1/DTD/svg11.dtd">
<!-- Generated by graphviz version 2.38.0 (20140413.2041)
 -->
<!-- Title: luaL_checkinteger Pages: 1 -->
<svg width="412pt" height="180pt"
 viewBox="0.00 0.00 412.00 180.00" xmlns="http://www.w3.org/2000/svg" xmlns:xlink="http://www.w3.org/1999/xlink">
<g id="graph0" class="graph" transform="scale(1 1) rotate(0) translate(4 176)">
<title>luaL_checkinteger</title>
<!-- Node1 -->
<g id="node1" class="node"><title>Node1</title>
<polygon fill="#bfbfbf" stroke="black" points="0,-113.5 0,-132.5 91,-132.5 91,-113.5 0,-113.5"/>
<text text-anchor="middle" x="45.5" y="-120.5" font-family="Helvetica,sans-Serif" font-size="10.00">luaL_checkinteger</text>
</g>
<!-- Node2 -->
<g id="node2" class="node"><title>Node2</title>
<g id="a_node2"><a xlink:href="../../da/d29/lauxlib_8h.html#a2b17cdda9e7ed73a1cd152cd386dc7a4" target="_top" xlink:title="luaL_optinteger">
<polygon fill="none" stroke="black" points="127,-85.5 127,-104.5 207,-104.5 207,-85.5 127,-85.5"/>
<text text-anchor="middle" x="167" y="-92.5" font-family="Helvetica,sans-Serif" font-size="10.00">luaL_optinteger</text>
</a>
</g>
</g>
<!-- Node1&#45;&gt;Node2 -->
<g id="edge1" class="edge"><title>Node1&#45;&gt;Node2</title>
<path fill="none" stroke="midnightblue" d="M97.3316,-111.09C107.124,-108.795 117.243,-106.424 126.605,-104.231"/>
<polygon fill="midnightblue" stroke="midnightblue" points="96.2287,-107.753 87.2909,-113.442 97.8257,-114.569 96.2287,-107.753"/>
</g>
<!-- Node4 -->
<g id="node4" class="node"><title>Node4</title>
<g id="a_node4"><a xlink:href="../../dc/d77/lstrlib_8c.html#a039b391d5f43533a0ce750c5e40d7752" target="_top" xlink:title="str_sub">
<polygon fill="none" stroke="black" points="253,-152.5 253,-171.5 301,-171.5 301,-152.5 253,-152.5"/>
<text text-anchor="middle" x="277" y="-159.5" font-family="Helvetica,sans-Serif" font-size="10.00">str_sub</text>
</a>
</g>
</g>
<!-- Node1&#45;&gt;Node4 -->
<g id="edge9" class="edge"><title>Node1&#45;&gt;Node4</title>
<path fill="none" stroke="midnightblue" d="M101.023,-132.265C149.396,-140.486 217.696,-152.092 252.949,-158.083"/>
<polygon fill="midnightblue" stroke="midnightblue" points="101.467,-128.791 91.022,-130.566 100.294,-135.692 101.467,-128.791"/>
</g>
<!-- Node3 -->
<g id="node3" class="node"><title>Node3</title>
<g id="a_node3"><a xlink:href="../../de/df3/liolib_8c.html#aa7d559e7d43a6133ec495d6b4e5d68f2" target="_top" xlink:title="f_setvbuf">
<polygon fill="none" stroke="black" points="249,-114.5 249,-133.5 305,-133.5 305,-114.5 249,-114.5"/>
<text text-anchor="middle" x="277" y="-121.5" font-family="Helvetica,sans-Serif" font-size="10.00">f_setvbuf</text>
</a>
</g>
</g>
<!-- Node2&#45;&gt;Node3 -->
<g id="edge2" class="edge"><title>Node2&#45;&gt;Node3</title>
<path fill="none" stroke="midnightblue" d="M213.583,-107.24C225.617,-110.471 238.223,-113.856 248.93,-116.731"/>
<polygon fill="midnightblue" stroke="midnightblue" points="214.228,-103.789 203.663,-104.576 212.413,-110.55 214.228,-103.789"/>
</g>
<!-- Node2&#45;&gt;Node4 -->
<g id="edge3" class="edge"><title>Node2&#45;&gt;Node4</title>
<path fill="none" stroke="midnightblue" d="M191.025,-110.131C205.774,-119.725 225.384,-132.3 243,-143 248.198,-146.158 253.922,-149.499 259.123,-152.485"/>
<polygon fill="midnightblue" stroke="midnightblue" points="192.818,-107.122 182.531,-104.586 188.991,-112.984 192.818,-107.122"/>
</g>
<!-- Node5 -->
<g id="node5" class="node"><title>Node5</title>
<g id="a_node5"><a xlink:href="../../dc/d77/lstrlib_8c.html#ae561770420cfd1894054415df9d4c423" target="_top" xlink:title="str_byte">
<polygon fill="none" stroke="black" points="252,-76.5 252,-95.5 302,-95.5 302,-76.5 252,-76.5"/>
<text text-anchor="middle" x="277" y="-83.5" font-family="Helvetica,sans-Serif" font-size="10.00">str_byte</text>
</a>
</g>
</g>
<!-- Node2&#45;&gt;Node5 -->
<g id="edge4" class="edge"><title>Node2&#45;&gt;Node5</title>
<path fill="none" stroke="midnightblue" d="M217.292,-90.8923C229.345,-89.8879 241.712,-88.8573 251.968,-88.0026"/>
<polygon fill="midnightblue" stroke="midnightblue" points="216.971,-87.4069 207.296,-91.7253 217.552,-94.3827 216.971,-87.4069"/>
</g>
<!-- Node6 -->
<g id="node6" class="node"><title>Node6</title>
<g id="a_node6"><a xlink:href="../../dc/d77/lstrlib_8c.html#a692514aa32ae2668683a4db15259d26b" target="_top" xlink:title="str_find_aux">
<polygon fill="none" stroke="black" points="243,-38.5 243,-57.5 311,-57.5 311,-38.5 243,-38.5"/>
<text text-anchor="middle" x="277" y="-45.5" font-family="Helvetica,sans-Serif" font-size="10.00">str_find_aux</text>
</a>
</g>
</g>
<!-- Node2&#45;&gt;Node6 -->
<g id="edge5" class="edge"><title>Node2&#45;&gt;Node6</title>
<path fill="none" stroke="midnightblue" d="M199.107,-81.4627C216.597,-73.8513 238.019,-64.5286 253.806,-57.6583"/>
<polygon fill="midnightblue" stroke="midnightblue" points="197.628,-78.2891 189.855,-85.4888 200.421,-84.7077 197.628,-78.2891"/>
</g>
<!-- Node9 -->
<g id="node9" class="node"><title>Node9</title>
<g id="a_node9"><a xlink:href="../../dc/d77/lstrlib_8c.html#a42337c674d265175bcc2b2f3809c7339" target="_top" xlink:title="str_gsub">
<polygon fill="none" stroke="black" points="250.5,-0.5 250.5,-19.5 303.5,-19.5 303.5,-0.5 250.5,-0.5"/>
<text text-anchor="middle" x="277" y="-7.5" font-family="Helvetica,sans-Serif" font-size="10.00">str_gsub</text>
</a>
</g>
</g>
<!-- Node2&#45;&gt;Node9 -->
<g id="edge8" class="edge"><title>Node2&#45;&gt;Node9</title>
<path fill="none" stroke="midnightblue" d="M184.997,-78.2738C199.686,-64.2636 221.83,-44.1786 243,-29 247.621,-25.6872 252.861,-22.456 257.783,-19.6254"/>
<polygon fill="midnightblue" stroke="midnightblue" points="182.419,-75.898 177.657,-85.3626 187.282,-80.9332 182.419,-75.898"/>
</g>
<!-- Node7 -->
<g id="node7" class="node"><title>Node7</title>
<g id="a_node7"><a xlink:href="../../dc/d77/lstrlib_8c.html#a362a4bc9ba81ce87253cc3d74f015808" target="_top" xlink:title="str_find">
<polygon fill="none" stroke="black" points="352.5,-57.5 352.5,-76.5 398.5,-76.5 398.5,-57.5 352.5,-57.5"/>
<text text-anchor="middle" x="375.5" y="-64.5" font-family="Helvetica,sans-Serif" font-size="10.00">str_find</text>
</a>
</g>
</g>
<!-- Node6&#45;&gt;Node7 -->
<g id="edge6" class="edge"><title>Node6&#45;&gt;Node7</title>
<path fill="none" stroke="midnightblue" d="M321.022,-56.4707C331.886,-58.6098 343.108,-60.8193 352.45,-62.6585"/>
<polygon fill="midnightblue" stroke="midnightblue" points="321.698,-53.0366 311.21,-54.5387 320.345,-59.9047 321.698,-53.0366"/>
</g>
<!-- Node8 -->
<g id="node8" class="node"><title>Node8</title>
<g id="a_node8"><a xlink:href="../../dc/d77/lstrlib_8c.html#a4b605e43b8f5738db9eae902bbc00f00" target="_top" xlink:title="str_match">
<polygon fill="none" stroke="black" points="347,-19.5 347,-38.5 404,-38.5 404,-19.5 347,-19.5"/>
<text text-anchor="middle" x="375.5" y="-26.5" font-family="Helvetica,sans-Serif" font-size="10.00">str_match</text>
</a>
</g>
</g>
<!-- Node6&#45;&gt;Node8 -->
<g id="edge7" class="edge"><title>Node6&#45;&gt;Node8</title>
<path fill="none" stroke="midnightblue" d="M321.294,-39.4758C330.029,-37.756 338.983,-35.993 346.994,-34.4156"/>
<polygon fill="midnightblue" stroke="midnightblue" points="320.345,-36.0953 311.21,-41.4613 321.698,-42.9634 320.345,-36.0953"/>
</g>
</g>
</svg>
