<?xml version="1.0" encoding="UTF-8" standalone="no"?>
<!DOCTYPE svg PUBLIC "-//W3C//DTD SVG 1.1//EN"
 "http://www.w3.org/Graphics/SVG/1.1/DTD/svg11.dtd">
<!-- Generated by graphviz version 2.38.0 (20140413.2041)
 -->
<!-- Title: typeerror Pages: 1 -->
<svg width="656pt" height="1358pt"
 viewBox="0.00 0.00 656.00 1358.00" xmlns="http://www.w3.org/2000/svg" xmlns:xlink="http://www.w3.org/1999/xlink">
<g id="graph0" class="graph" transform="scale(1 1) rotate(0) translate(4 1354)">
<title>typeerror</title>
<!-- Node1 -->
<g id="node1" class="node"><title>Node1</title>
<polygon fill="#bfbfbf" stroke="black" points="0,-570.5 0,-589.5 53,-589.5 53,-570.5 0,-570.5"/>
<text text-anchor="middle" x="26.5" y="-577.5" font-family="Helvetica,sans-Serif" font-size="10.00">typeerror</text>
</g>
<!-- Node2 -->
<g id="node2" class="node"><title>Node2</title>
<g id="a_node2"><a xlink:href="../../da/d29/lauxlib_8h.html#aed8d8e4f3b95c6bcac246ec9895027b1" target="_top" xlink:title="luaL_checkudata">
<polygon fill="none" stroke="black" points="89,-589.5 89,-608.5 178,-608.5 178,-589.5 89,-589.5"/>
<text text-anchor="middle" x="133.5" y="-596.5" font-family="Helvetica,sans-Serif" font-size="10.00">luaL_checkudata</text>
</a>
</g>
</g>
<!-- Node1&#45;&gt;Node2 -->
<g id="edge1" class="edge"><title>Node1&#45;&gt;Node2</title>
<path fill="none" stroke="midnightblue" d="M63.1688,-586.454C71.3632,-587.937 80.1695,-589.531 88.6644,-591.068"/>
<polygon fill="midnightblue" stroke="midnightblue" points="63.6493,-582.985 53.1859,-584.648 62.4028,-589.873 63.6493,-582.985"/>
</g>
<!-- Node3 -->
<g id="node3" class="node"><title>Node3</title>
<g id="a_node3"><a xlink:href="../../d0/d56/lauxlib_8c.html#a84f86d7f2603b98e935740de1efb858d" target="_top" xlink:title="tag_error">
<polygon fill="none" stroke="black" points="107,-551.5 107,-570.5 160,-570.5 160,-551.5 107,-551.5"/>
<text text-anchor="middle" x="133.5" y="-558.5" font-family="Helvetica,sans-Serif" font-size="10.00">tag_error</text>
</a>
</g>
</g>
<!-- Node1&#45;&gt;Node3 -->
<g id="edge2" class="edge"><title>Node1&#45;&gt;Node3</title>
<path fill="none" stroke="midnightblue" d="M63.1874,-573.542C77.4693,-570.958 93.607,-568.038 106.715,-565.666"/>
<polygon fill="midnightblue" stroke="midnightblue" points="62.4028,-570.127 53.1859,-575.352 63.6493,-577.015 62.4028,-570.127"/>
</g>
<!-- Node4 -->
<g id="node4" class="node"><title>Node4</title>
<g id="a_node4"><a xlink:href="../../da/d29/lauxlib_8h.html#ab9c2bb4294fb7a81d3745dad5711cd63" target="_top" xlink:title="luaL_checkinteger">
<polygon fill="none" stroke="black" points="219.5,-1273.5 219.5,-1292.5 310.5,-1292.5 310.5,-1273.5 219.5,-1273.5"/>
<text text-anchor="middle" x="265" y="-1280.5" font-family="Helvetica,sans-Serif" font-size="10.00">luaL_checkinteger</text>
</a>
</g>
</g>
<!-- Node3&#45;&gt;Node4 -->
<g id="edge3" class="edge"><title>Node3&#45;&gt;Node4</title>
<path fill="none" stroke="midnightblue" d="M169.051,-571.797C172.477,-574.043 175.577,-576.747 178,-580 180.735,-583.67 252.867,-1189.4 262.856,-1273.38"/>
<polygon fill="midnightblue" stroke="midnightblue" points="170.546,-568.629 160.061,-567.104 167.306,-574.834 170.546,-568.629"/>
</g>
<!-- Node10 -->
<g id="node10" class="node"><title>Node10</title>
<g id="a_node10"><a xlink:href="../../da/d29/lauxlib_8h.html#af4af154dcb41f8990a572e6a00c349fc" target="_top" xlink:title="luaL_checklstring">
<polygon fill="none" stroke="black" points="352,-1064.5 352,-1083.5 439,-1083.5 439,-1064.5 352,-1064.5"/>
<text text-anchor="middle" x="395.5" y="-1071.5" font-family="Helvetica,sans-Serif" font-size="10.00">luaL_checklstring</text>
</a>
</g>
</g>
<!-- Node3&#45;&gt;Node10 -->
<g id="edge10" class="edge"><title>Node3&#45;&gt;Node10</title>
<path fill="none" stroke="midnightblue" d="M169.113,-572.849C172.375,-574.89 175.42,-577.258 178,-580 332.083,-743.727 198.622,-890.612 352,-1055 355.529,-1058.78 359.949,-1061.86 364.595,-1064.35"/>
<polygon fill="midnightblue" stroke="midnightblue" points="170.631,-569.693 160.145,-568.18 167.399,-575.902 170.631,-569.693"/>
</g>
<!-- Node21 -->
<g id="node21" class="node"><title>Node21</title>
<g id="a_node21"><a xlink:href="../../da/d29/lauxlib_8h.html#a3e39a4d35c3ce1555126e372a8a329c3" target="_top" xlink:title="luaL_checknumber">
<polygon fill="none" stroke="red" points="217.5,-551.5 217.5,-570.5 312.5,-570.5 312.5,-551.5 217.5,-551.5"/>
<text text-anchor="middle" x="265" y="-558.5" font-family="Helvetica,sans-Serif" font-size="10.00">luaL_checknumber</text>
</a>
</g>
</g>
<!-- Node3&#45;&gt;Node21 -->
<g id="edge27" class="edge"><title>Node3&#45;&gt;Node21</title>
<path fill="none" stroke="midnightblue" d="M170.18,-561C184.72,-561 201.728,-561 217.24,-561"/>
<polygon fill="midnightblue" stroke="midnightblue" points="170.085,-557.5 160.085,-561 170.085,-564.5 170.085,-557.5"/>
</g>
<!-- Node49 -->
<g id="node49" class="node"><title>Node49</title>
<g id="a_node49"><a xlink:href="../../da/d29/lauxlib_8h.html#ae5f465fb757069d016a10b106c69bdd7" target="_top" xlink:title="luaL_checktype">
<polygon fill="none" stroke="red" points="223.5,-513.5 223.5,-532.5 306.5,-532.5 306.5,-513.5 223.5,-513.5"/>
<text text-anchor="middle" x="265" y="-520.5" font-family="Helvetica,sans-Serif" font-size="10.00">luaL_checktype</text>
</a>
</g>
</g>
<!-- Node3&#45;&gt;Node49 -->
<g id="edge56" class="edge"><title>Node3&#45;&gt;Node49</title>
<path fill="none" stroke="midnightblue" d="M169.715,-550.667C189,-545.008 212.734,-538.043 231.564,-532.518"/>
<polygon fill="midnightblue" stroke="midnightblue" points="168.695,-547.318 160.085,-553.492 170.666,-554.035 168.695,-547.318"/>
</g>
<!-- Node50 -->
<g id="node50" class="node"><title>Node50</title>
<g id="a_node50"><a xlink:href="../../da/d29/lauxlib_8h.html#adbf21909ea6ed4e2d47a5676e37f4bba" target="_top" xlink:title="luaL_checkunsigned">
<polygon fill="none" stroke="red" points="214,-475.5 214,-494.5 316,-494.5 316,-475.5 214,-475.5"/>
<text text-anchor="middle" x="265" y="-482.5" font-family="Helvetica,sans-Serif" font-size="10.00">luaL_checkunsigned</text>
</a>
</g>
</g>
<!-- Node3&#45;&gt;Node50 -->
<g id="edge57" class="edge"><title>Node3&#45;&gt;Node50</title>
<path fill="none" stroke="midnightblue" d="M153.829,-544.959C169.377,-532.609 192.157,-515.723 214,-504 220.628,-500.443 228.067,-497.235 235.14,-494.511"/>
<polygon fill="midnightblue" stroke="midnightblue" points="151.569,-542.286 145.988,-551.292 155.967,-547.732 151.569,-542.286"/>
</g>
<!-- Node5 -->
<g id="node5" class="node"><title>Node5</title>
<g id="a_node5"><a xlink:href="../../da/d29/lauxlib_8h.html#a2b17cdda9e7ed73a1cd152cd386dc7a4" target="_top" xlink:title="luaL_optinteger">
<polygon fill="none" stroke="red" points="355.5,-1273.5 355.5,-1292.5 435.5,-1292.5 435.5,-1273.5 355.5,-1273.5"/>
<text text-anchor="middle" x="395.5" y="-1280.5" font-family="Helvetica,sans-Serif" font-size="10.00">luaL_optinteger</text>
</a>
</g>
</g>
<!-- Node4&#45;&gt;Node5 -->
<g id="edge4" class="edge"><title>Node4&#45;&gt;Node5</title>
<path fill="none" stroke="midnightblue" d="M320.625,-1283C332.222,-1283 344.248,-1283 355.144,-1283"/>
<polygon fill="midnightblue" stroke="midnightblue" points="320.582,-1279.5 310.582,-1283 320.582,-1286.5 320.582,-1279.5"/>
</g>
<!-- Node6 -->
<g id="node6" class="node"><title>Node6</title>
<g id="a_node6"><a xlink:href="../../dc/d77/lstrlib_8c.html#a039b391d5f43533a0ce750c5e40d7752" target="_top" xlink:title="str_sub">
<polygon fill="none" stroke="black" points="491,-1330.5 491,-1349.5 539,-1349.5 539,-1330.5 491,-1330.5"/>
<text text-anchor="middle" x="515" y="-1337.5" font-family="Helvetica,sans-Serif" font-size="10.00">str_sub</text>
</a>
</g>
</g>
<!-- Node4&#45;&gt;Node6 -->
<g id="edge9" class="edge"><title>Node4&#45;&gt;Node6</title>
<path fill="none" stroke="midnightblue" d="M317.432,-1294.82C370.614,-1307.04 451.276,-1325.58 490.682,-1334.64"/>
<polygon fill="midnightblue" stroke="midnightblue" points="318.04,-1291.37 307.51,-1292.54 316.472,-1298.19 318.04,-1291.37"/>
</g>
<!-- Node5&#45;&gt;Node6 -->
<g id="edge5" class="edge"><title>Node5&#45;&gt;Node6</title>
<path fill="none" stroke="midnightblue" d="M425.436,-1297.04C446.844,-1307.42 475.438,-1321.29 494.269,-1330.43"/>
<polygon fill="midnightblue" stroke="midnightblue" points="426.692,-1293.76 416.167,-1292.54 423.636,-1300.05 426.692,-1293.76"/>
</g>
<!-- Node7 -->
<g id="node7" class="node"><title>Node7</title>
<g id="a_node7"><a xlink:href="../../dc/d77/lstrlib_8c.html#ae561770420cfd1894054415df9d4c423" target="_top" xlink:title="str_byte">
<polygon fill="none" stroke="black" points="490,-1216.5 490,-1235.5 540,-1235.5 540,-1216.5 490,-1216.5"/>
<text text-anchor="middle" x="515" y="-1223.5" font-family="Helvetica,sans-Serif" font-size="10.00">str_byte</text>
</a>
</g>
</g>
<!-- Node5&#45;&gt;Node7 -->
<g id="edge6" class="edge"><title>Node5&#45;&gt;Node7</title>
<path fill="none" stroke="midnightblue" d="M425.436,-1268.96C446.844,-1258.58 475.438,-1244.71 494.269,-1235.57"/>
<polygon fill="midnightblue" stroke="midnightblue" points="423.636,-1265.95 416.167,-1273.46 426.692,-1272.24 423.636,-1265.95"/>
</g>
<!-- Node8 -->
<g id="node8" class="node"><title>Node8</title>
<g id="a_node8"><a xlink:href="../../dc/d77/lstrlib_8c.html#a692514aa32ae2668683a4db15259d26b" target="_top" xlink:title="str_find_aux">
<polygon fill="none" stroke="red" points="481,-1292.5 481,-1311.5 549,-1311.5 549,-1292.5 481,-1292.5"/>
<text text-anchor="middle" x="515" y="-1299.5" font-family="Helvetica,sans-Serif" font-size="10.00">str_find_aux</text>
</a>
</g>
</g>
<!-- Node5&#45;&gt;Node8 -->
<g id="edge7" class="edge"><title>Node5&#45;&gt;Node8</title>
<path fill="none" stroke="midnightblue" d="M445.843,-1290.98C457.68,-1292.89 470.039,-1294.89 480.933,-1296.65"/>
<polygon fill="midnightblue" stroke="midnightblue" points="446.056,-1287.47 435.626,-1289.33 444.939,-1294.38 446.056,-1287.47"/>
</g>
<!-- Node9 -->
<g id="node9" class="node"><title>Node9</title>
<g id="a_node9"><a xlink:href="../../dc/d77/lstrlib_8c.html#a42337c674d265175bcc2b2f3809c7339" target="_top" xlink:title="str_gsub">
<polygon fill="none" stroke="black" points="488.5,-1254.5 488.5,-1273.5 541.5,-1273.5 541.5,-1254.5 488.5,-1254.5"/>
<text text-anchor="middle" x="515" y="-1261.5" font-family="Helvetica,sans-Serif" font-size="10.00">str_gsub</text>
</a>
</g>
</g>
<!-- Node5&#45;&gt;Node9 -->
<g id="edge8" class="edge"><title>Node5&#45;&gt;Node9</title>
<path fill="none" stroke="midnightblue" d="M445.615,-1275.06C460.302,-1272.68 475.814,-1270.17 488.346,-1268.15"/>
<polygon fill="midnightblue" stroke="midnightblue" points="444.939,-1271.62 435.626,-1276.67 446.056,-1278.53 444.939,-1271.62"/>
</g>
<!-- Node10&#45;&gt;Node6 -->
<g id="edge16" class="edge"><title>Node10&#45;&gt;Node6</title>
<path fill="none" stroke="midnightblue" d="M400.633,-1093.59C411.928,-1145.62 444.51,-1285.71 475,-1321 479.235,-1325.9 485.026,-1329.65 490.849,-1332.48"/>
<polygon fill="midnightblue" stroke="midnightblue" points="404.017,-1092.68 398.5,-1083.64 397.173,-1094.15 404.017,-1092.68"/>
</g>
<!-- Node10&#45;&gt;Node7 -->
<g id="edge21" class="edge"><title>Node10&#45;&gt;Node7</title>
<path fill="none" stroke="midnightblue" d="M403.604,-1093.13C414.894,-1121.29 439.363,-1174.1 475,-1207 479.317,-1210.98 484.623,-1214.31 489.916,-1217"/>
<polygon fill="midnightblue" stroke="midnightblue" points="406.803,-1091.7 399.926,-1083.64 400.276,-1094.23 406.803,-1091.7"/>
</g>
<!-- Node10&#45;&gt;Node8 -->
<g id="edge22" class="edge"><title>Node10&#45;&gt;Node8</title>
<path fill="none" stroke="midnightblue" d="M398.979,-1093.74C404.996,-1134.05 423.839,-1226.79 475,-1283 478.447,-1286.79 482.815,-1289.9 487.371,-1292.44"/>
<polygon fill="midnightblue" stroke="midnightblue" points="402.417,-1093.05 397.579,-1083.62 395.483,-1094.01 402.417,-1093.05"/>
</g>
<!-- Node10&#45;&gt;Node9 -->
<g id="edge23" class="edge"><title>Node10&#45;&gt;Node9</title>
<path fill="none" stroke="midnightblue" d="M400.882,-1093.66C409.51,-1128.31 431.736,-1200.73 475,-1245 478.79,-1248.88 483.533,-1252.08 488.394,-1254.67"/>
<polygon fill="midnightblue" stroke="midnightblue" points="404.262,-1092.75 398.549,-1083.83 397.451,-1094.37 404.262,-1092.75"/>
</g>
<!-- Node11 -->
<g id="node11" class="node"><title>Node11</title>
<g id="a_node11"><a xlink:href="../../da/d29/lauxlib_8h.html#a15b8c426b2e1b0cd1f9ddc32bc94df2f" target="_top" xlink:title="luaL_optlstring">
<polygon fill="none" stroke="red" points="476.5,-1064.5 476.5,-1083.5 553.5,-1083.5 553.5,-1064.5 476.5,-1064.5"/>
<text text-anchor="middle" x="515" y="-1071.5" font-family="Helvetica,sans-Serif" font-size="10.00">luaL_optlstring</text>
</a>
</g>
</g>
<!-- Node10&#45;&gt;Node11 -->
<g id="edge11" class="edge"><title>Node10&#45;&gt;Node11</title>
<path fill="none" stroke="midnightblue" d="M449.329,-1074C458.367,-1074 467.592,-1074 476.14,-1074"/>
<polygon fill="midnightblue" stroke="midnightblue" points="449.253,-1070.5 439.253,-1074 449.253,-1077.5 449.253,-1070.5"/>
</g>
<!-- Node12 -->
<g id="node12" class="node"><title>Node12</title>
<g id="a_node12"><a xlink:href="../../dc/d77/lstrlib_8c.html#acaee4c84f29e2ec7366728ca04d3569c" target="_top" xlink:title="str_rep">
<polygon fill="none" stroke="black" points="597,-1045.5 597,-1064.5 642,-1064.5 642,-1045.5 597,-1045.5"/>
<text text-anchor="middle" x="619.5" y="-1052.5" font-family="Helvetica,sans-Serif" font-size="10.00">str_rep</text>
</a>
</g>
</g>
<!-- Node10&#45;&gt;Node12 -->
<g id="edge20" class="edge"><title>Node10&#45;&gt;Node12</title>
<path fill="none" stroke="midnightblue" d="M438.279,-1061.94C450.052,-1059.08 462.939,-1056.44 475,-1055 517.796,-1049.89 568.284,-1051.69 596.524,-1053.39"/>
<polygon fill="midnightblue" stroke="midnightblue" points="437.095,-1058.63 428.269,-1064.49 438.823,-1065.42 437.095,-1058.63"/>
</g>
<!-- Node13 -->
<g id="node13" class="node"><title>Node13</title>
<g id="a_node13"><a xlink:href="../../d8/dd3/lbaselib_8c.html#a6224f7b7c4485996e1c22eae32de990d" target="_top" xlink:title="luaB_tonumber">
<polygon fill="none" stroke="black" points="475,-1178.5 475,-1197.5 555,-1197.5 555,-1178.5 475,-1178.5"/>
<text text-anchor="middle" x="515" y="-1185.5" font-family="Helvetica,sans-Serif" font-size="10.00">luaB_tonumber</text>
</a>
</g>
</g>
<!-- Node10&#45;&gt;Node13 -->
<g id="edge13" class="edge"><title>Node10&#45;&gt;Node13</title>
<path fill="none" stroke="midnightblue" d="M407.88,-1091.99C421.704,-1112.71 446.715,-1146.74 475,-1169 479.616,-1172.63 485.04,-1175.82 490.351,-1178.49"/>
<polygon fill="midnightblue" stroke="midnightblue" points="410.737,-1089.97 402.344,-1083.5 404.873,-1093.79 410.737,-1089.97"/>
</g>
<!-- Node14 -->
<g id="node14" class="node"><title>Node14</title>
<g id="a_node14"><a xlink:href="../../de/df3/liolib_8c.html#a88c73a30c7d135dfb4958b7bfaa90cc7" target="_top" xlink:title="g_write">
<polygon fill="none" stroke="red" points="491.5,-1140.5 491.5,-1159.5 538.5,-1159.5 538.5,-1140.5 491.5,-1140.5"/>
<text text-anchor="middle" x="515" y="-1147.5" font-family="Helvetica,sans-Serif" font-size="10.00">g_write</text>
</a>
</g>
</g>
<!-- Node10&#45;&gt;Node14 -->
<g id="edge14" class="edge"><title>Node10&#45;&gt;Node14</title>
<path fill="none" stroke="midnightblue" d="M416.56,-1090.07C432.036,-1102.09 454.238,-1118.54 475,-1131 480.553,-1134.33 486.777,-1137.57 492.593,-1140.4"/>
<polygon fill="midnightblue" stroke="midnightblue" points="418.312,-1087 408.287,-1083.57 413.985,-1092.5 418.312,-1087"/>
</g>
<!-- Node15 -->
<g id="node15" class="node"><title>Node15</title>
<g id="a_node15"><a xlink:href="../../dc/d77/lstrlib_8c.html#a357ce37478dde24252724e3c4c66ce11" target="_top" xlink:title="str_len">
<polygon fill="none" stroke="black" points="493,-1102.5 493,-1121.5 537,-1121.5 537,-1102.5 493,-1102.5"/>
<text text-anchor="middle" x="515" y="-1109.5" font-family="Helvetica,sans-Serif" font-size="10.00">str_len</text>
</a>
</g>
</g>
<!-- Node10&#45;&gt;Node15 -->
<g id="edge15" class="edge"><title>Node10&#45;&gt;Node15</title>
<path fill="none" stroke="midnightblue" d="M435.795,-1086.71C454.871,-1092.88 477.033,-1100.04 492.883,-1105.17"/>
<polygon fill="midnightblue" stroke="midnightblue" points="436.742,-1083.34 426.15,-1083.59 434.588,-1090 436.742,-1083.34"/>
</g>
<!-- Node16 -->
<g id="node16" class="node"><title>Node16</title>
<g id="a_node16"><a xlink:href="../../dc/d77/lstrlib_8c.html#a4b2ffac60e817b9bfc54b32f8da3a6b4" target="_top" xlink:title="str_reverse">
<polygon fill="none" stroke="black" points="484,-988.5 484,-1007.5 546,-1007.5 546,-988.5 484,-988.5"/>
<text text-anchor="middle" x="515" y="-995.5" font-family="Helvetica,sans-Serif" font-size="10.00">str_reverse</text>
</a>
</g>
</g>
<!-- Node10&#45;&gt;Node16 -->
<g id="edge17" class="edge"><title>Node10&#45;&gt;Node16</title>
<path fill="none" stroke="midnightblue" d="M430.718,-1059.89C433.583,-1058.35 436.382,-1056.72 439,-1055 457.141,-1043.08 457.679,-1035.08 475,-1022 481.852,-1016.83 489.864,-1011.75 496.837,-1007.6"/>
<polygon fill="midnightblue" stroke="midnightblue" points="428.904,-1056.88 421.48,-1064.44 431.997,-1063.16 428.904,-1056.88"/>
</g>
<!-- Node17 -->
<g id="node17" class="node"><title>Node17</title>
<g id="a_node17"><a xlink:href="../../dc/d77/lstrlib_8c.html#ab2235f81205d0482d03c8ae456a98992" target="_top" xlink:title="str_lower">
<polygon fill="none" stroke="black" points="488,-950.5 488,-969.5 542,-969.5 542,-950.5 488,-950.5"/>
<text text-anchor="middle" x="515" y="-957.5" font-family="Helvetica,sans-Serif" font-size="10.00">str_lower</text>
</a>
</g>
</g>
<!-- Node10&#45;&gt;Node17 -->
<g id="edge18" class="edge"><title>Node10&#45;&gt;Node17</title>
<path fill="none" stroke="midnightblue" d="M434.385,-1058.92C436.019,-1057.7 437.57,-1056.4 439,-1055 465.717,-1028.86 448.717,-1005.57 475,-979 478.707,-975.252 483.303,-972.133 488.025,-969.579"/>
<polygon fill="midnightblue" stroke="midnightblue" points="432.347,-1056.07 425.681,-1064.3 436.027,-1062.02 432.347,-1056.07"/>
</g>
<!-- Node18 -->
<g id="node18" class="node"><title>Node18</title>
<g id="a_node18"><a xlink:href="../../dc/d77/lstrlib_8c.html#a38ed99b74af58070449ca344a7351f6a" target="_top" xlink:title="str_upper">
<polygon fill="none" stroke="black" points="487,-912.5 487,-931.5 543,-931.5 543,-912.5 487,-912.5"/>
<text text-anchor="middle" x="515" y="-919.5" font-family="Helvetica,sans-Serif" font-size="10.00">str_upper</text>
</a>
</g>
</g>
<!-- Node10&#45;&gt;Node18 -->
<g id="edge19" class="edge"><title>Node10&#45;&gt;Node18</title>
<path fill="none" stroke="midnightblue" d="M435.146,-1058.72C436.523,-1057.57 437.817,-1056.33 439,-1055 474.359,-1015.34 440.299,-981.236 475,-941 478.246,-937.236 482.411,-934.149 486.805,-931.642"/>
<polygon fill="midnightblue" stroke="midnightblue" points="432.909,-1056.01 426.551,-1064.48 436.806,-1061.82 432.909,-1056.01"/>
</g>
<!-- Node19 -->
<g id="node19" class="node"><title>Node19</title>
<g id="a_node19"><a xlink:href="../../dc/d77/lstrlib_8c.html#a95c31911812b88f7c4ab6ceb63a1e1e8" target="_top" xlink:title="addquoted">
<polygon fill="none" stroke="black" points="484,-836.5 484,-855.5 546,-855.5 546,-836.5 484,-836.5"/>
<text text-anchor="middle" x="515" y="-843.5" font-family="Helvetica,sans-Serif" font-size="10.00">addquoted</text>
</a>
</g>
</g>
<!-- Node10&#45;&gt;Node19 -->
<g id="edge24" class="edge"><title>Node10&#45;&gt;Node19</title>
<path fill="none" stroke="midnightblue" d="M435.921,-1058.35C437.025,-1057.3 438.057,-1056.19 439,-1055 491.101,-989.411 427.312,-938.865 475,-870 479.164,-863.987 485.372,-859.196 491.617,-855.526"/>
<polygon fill="midnightblue" stroke="midnightblue" points="433.777,-1055.58 427.786,-1064.32 437.919,-1061.22 433.777,-1055.58"/>
</g>
<!-- Node20 -->
<g id="node20" class="node"><title>Node20</title>
<g id="a_node20"><a xlink:href="../../dc/d77/lstrlib_8c.html#ae26a9374857058119e59d0328208c2f2" target="_top" xlink:title="str_format">
<polygon fill="none" stroke="black" points="591,-836.5 591,-855.5 648,-855.5 648,-836.5 591,-836.5"/>
<text text-anchor="middle" x="619.5" y="-843.5" font-family="Helvetica,sans-Serif" font-size="10.00">str_format</text>
</a>
</g>
</g>
<!-- Node10&#45;&gt;Node20 -->
<g id="edge26" class="edge"><title>Node10&#45;&gt;Node20</title>
<path fill="none" stroke="midnightblue" d="M435.747,-1058.4C436.911,-1057.34 438.001,-1056.21 439,-1055 483.27,-1001.52 429.609,-955.53 475,-903 482.931,-893.822 551.382,-869.128 590.809,-855.447"/>
<polygon fill="midnightblue" stroke="midnightblue" points="433.351,-1055.81 427.224,-1064.45 437.404,-1061.52 433.351,-1055.81"/>
</g>
<!-- Node11&#45;&gt;Node12 -->
<g id="edge12" class="edge"><title>Node11&#45;&gt;Node12</title>
<path fill="none" stroke="midnightblue" d="M563.632,-1065.17C575.205,-1063.03 587.026,-1060.83 596.717,-1059.04"/>
<polygon fill="midnightblue" stroke="midnightblue" points="562.78,-1061.77 553.585,-1067.03 564.056,-1068.65 562.78,-1061.77"/>
</g>
<!-- Node19&#45;&gt;Node20 -->
<g id="edge25" class="edge"><title>Node19&#45;&gt;Node20</title>
<path fill="none" stroke="midnightblue" d="M556.521,-846C568.071,-846 580.383,-846 590.964,-846"/>
<polygon fill="midnightblue" stroke="midnightblue" points="556.199,-842.5 546.199,-846 556.199,-849.5 556.199,-842.5"/>
</g>
<!-- Node21&#45;&gt;Node20 -->
<g id="edge55" class="edge"><title>Node21&#45;&gt;Node20</title>
<path fill="none" stroke="midnightblue" d="M283.159,-578.432C294.137,-590.545 307.808,-607.584 316,-625 347.761,-692.528 298.42,-737.058 352,-789 417.904,-852.89 465.796,-805.369 555,-827 566.854,-829.874 579.778,-833.626 590.854,-837.035"/>
<polygon fill="midnightblue" stroke="midnightblue" points="285.481,-575.792 276.089,-570.89 280.374,-580.579 285.481,-575.792"/>
</g>
<!-- Node22 -->
<g id="node22" class="node"><title>Node22</title>
<g id="a_node22"><a xlink:href="../../da/d29/lauxlib_8h.html#a001e2679c64c24eefbaf478fd0c22f97" target="_top" xlink:title="luaL_optnumber">
<polygon fill="none" stroke="red" points="353,-760.5 353,-779.5 438,-779.5 438,-760.5 353,-760.5"/>
<text text-anchor="middle" x="395.5" y="-767.5" font-family="Helvetica,sans-Serif" font-size="10.00">luaL_optnumber</text>
</a>
</g>
</g>
<!-- Node21&#45;&gt;Node22 -->
<g id="edge28" class="edge"><title>Node21&#45;&gt;Node22</title>
<path fill="none" stroke="midnightblue" d="M270.059,-580.882C278.735,-618.718 302.464,-701.693 352,-751 355.781,-754.763 360.437,-757.849 365.266,-760.356"/>
<polygon fill="midnightblue" stroke="midnightblue" points="273.384,-579.703 267.838,-570.676 266.544,-581.191 273.384,-579.703"/>
</g>
<!-- Node23 -->
<g id="node23" class="node"><title>Node23</title>
<g id="a_node23"><a xlink:href="../../d1/d6a/lmathlib_8c.html#a9545dd3926974393ff34e33a108df628" target="_top" xlink:title="math_abs">
<polygon fill="none" stroke="black" points="365.5,-722.5 365.5,-741.5 425.5,-741.5 425.5,-722.5 365.5,-722.5"/>
<text text-anchor="middle" x="395.5" y="-729.5" font-family="Helvetica,sans-Serif" font-size="10.00">math_abs</text>
</a>
</g>
</g>
<!-- Node21&#45;&gt;Node23 -->
<g id="edge29" class="edge"><title>Node21&#45;&gt;Node23</title>
<path fill="none" stroke="midnightblue" d="M272.405,-580.335C283.77,-611.964 310.27,-675.038 352,-713 356.065,-716.698 360.97,-719.773 365.98,-722.293"/>
<polygon fill="midnightblue" stroke="midnightblue" points="275.597,-578.855 269.016,-570.551 268.982,-581.146 275.597,-578.855"/>
</g>
<!-- Node24 -->
<g id="node24" class="node"><title>Node24</title>
<g id="a_node24"><a xlink:href="../../d1/d6a/lmathlib_8c.html#adb460e2b01df47afcaa823ecc1846a24" target="_top" xlink:title="math_sin">
<polygon fill="none" stroke="black" points="368,-684.5 368,-703.5 423,-703.5 423,-684.5 368,-684.5"/>
<text text-anchor="middle" x="395.5" y="-691.5" font-family="Helvetica,sans-Serif" font-size="10.00">math_sin</text>
</a>
</g>
</g>
<!-- Node21&#45;&gt;Node24 -->
<g id="edge30" class="edge"><title>Node21&#45;&gt;Node24</title>
<path fill="none" stroke="midnightblue" d="M275.999,-579.57C290.087,-604.239 317.908,-647.854 352,-675 356.679,-678.726 362.204,-681.885 367.695,-684.494"/>
<polygon fill="midnightblue" stroke="midnightblue" points="278.898,-577.581 270.977,-570.545 272.781,-580.985 278.898,-577.581"/>
</g>
<!-- Node25 -->
<g id="node25" class="node"><title>Node25</title>
<g id="a_node25"><a xlink:href="../../d1/d6a/lmathlib_8c.html#a54bae0fa396a6823b28ea994ebf035dc" target="_top" xlink:title="math_sinh">
<polygon fill="none" stroke="black" points="365.5,-646.5 365.5,-665.5 425.5,-665.5 425.5,-646.5 365.5,-646.5"/>
<text text-anchor="middle" x="395.5" y="-653.5" font-family="Helvetica,sans-Serif" font-size="10.00">math_sinh</text>
</a>
</g>
</g>
<!-- Node21&#45;&gt;Node25 -->
<g id="edge31" class="edge"><title>Node21&#45;&gt;Node25</title>
<path fill="none" stroke="midnightblue" d="M282.484,-578.353C298.933,-594.962 325.51,-619.943 352,-637 357.436,-640.5 363.625,-643.669 369.566,-646.37"/>
<polygon fill="midnightblue" stroke="midnightblue" points="284.751,-575.665 275.267,-570.943 279.737,-580.549 284.751,-575.665"/>
</g>
<!-- Node26 -->
<g id="node26" class="node"><title>Node26</title>
<g id="a_node26"><a xlink:href="../../d1/d6a/lmathlib_8c.html#a5db2cf8c6e7a331d7daf259f305e057c" target="_top" xlink:title="math_cos">
<polygon fill="none" stroke="black" points="366.5,-608.5 366.5,-627.5 424.5,-627.5 424.5,-608.5 366.5,-608.5"/>
<text text-anchor="middle" x="395.5" y="-615.5" font-family="Helvetica,sans-Serif" font-size="10.00">math_cos</text>
</a>
</g>
</g>
<!-- Node21&#45;&gt;Node26 -->
<g id="edge32" class="edge"><title>Node21&#45;&gt;Node26</title>
<path fill="none" stroke="midnightblue" d="M296.7,-574.618C320.21,-585.046 352.049,-599.17 372.922,-608.428"/>
<polygon fill="midnightblue" stroke="midnightblue" points="298.068,-571.396 287.508,-570.541 295.23,-577.795 298.068,-571.396"/>
</g>
<!-- Node27 -->
<g id="node27" class="node"><title>Node27</title>
<g id="a_node27"><a xlink:href="../../d1/d6a/lmathlib_8c.html#aacc3b89a2bdf4970574be974ccbf5e84" target="_top" xlink:title="math_cosh">
<polygon fill="none" stroke="black" points="364,-570.5 364,-589.5 427,-589.5 427,-570.5 364,-570.5"/>
<text text-anchor="middle" x="395.5" y="-577.5" font-family="Helvetica,sans-Serif" font-size="10.00">math_cosh</text>
</a>
</g>
</g>
<!-- Node21&#45;&gt;Node27 -->
<g id="edge33" class="edge"><title>Node21&#45;&gt;Node27</title>
<path fill="none" stroke="midnightblue" d="M322.927,-569.417C337.067,-571.508 351.686,-573.67 363.998,-575.49"/>
<polygon fill="midnightblue" stroke="midnightblue" points="323.159,-565.914 312.755,-567.913 322.135,-572.838 323.159,-565.914"/>
</g>
<!-- Node28 -->
<g id="node28" class="node"><title>Node28</title>
<g id="a_node28"><a xlink:href="../../d1/d6a/lmathlib_8c.html#a06bc9b8c610e00759bb99c3db6128f18" target="_top" xlink:title="math_tan">
<polygon fill="none" stroke="black" points="367.5,-532.5 367.5,-551.5 423.5,-551.5 423.5,-532.5 367.5,-532.5"/>
<text text-anchor="middle" x="395.5" y="-539.5" font-family="Helvetica,sans-Serif" font-size="10.00">math_tan</text>
</a>
</g>
</g>
<!-- Node21&#45;&gt;Node28 -->
<g id="edge34" class="edge"><title>Node21&#45;&gt;Node28</title>
<path fill="none" stroke="midnightblue" d="M322.819,-552.599C338.322,-550.307 354.409,-547.928 367.405,-546.006"/>
<polygon fill="midnightblue" stroke="midnightblue" points="322.135,-549.162 312.755,-554.087 323.159,-556.086 322.135,-549.162"/>
</g>
<!-- Node29 -->
<g id="node29" class="node"><title>Node29</title>
<g id="a_node29"><a xlink:href="../../d1/d6a/lmathlib_8c.html#a38a6a16dfdffec4c0388eb3c7aff9085" target="_top" xlink:title="math_tanh">
<polygon fill="none" stroke="black" points="364.5,-494.5 364.5,-513.5 426.5,-513.5 426.5,-494.5 364.5,-494.5"/>
<text text-anchor="middle" x="395.5" y="-501.5" font-family="Helvetica,sans-Serif" font-size="10.00">math_tanh</text>
</a>
</g>
</g>
<!-- Node21&#45;&gt;Node29 -->
<g id="edge35" class="edge"><title>Node21&#45;&gt;Node29</title>
<path fill="none" stroke="midnightblue" d="M302.359,-547.784C306.986,-545.927 311.629,-543.975 316,-542 332.487,-534.551 335.733,-530.918 352,-523 358.54,-519.816 365.735,-516.523 372.315,-513.59"/>
<polygon fill="midnightblue" stroke="midnightblue" points="301.022,-544.549 292.975,-551.441 303.564,-551.071 301.022,-544.549"/>
</g>
<!-- Node30 -->
<g id="node30" class="node"><title>Node30</title>
<g id="a_node30"><a xlink:href="../../d1/d6a/lmathlib_8c.html#aa44ea66108bb38acbe5c8cb2ce6de33f" target="_top" xlink:title="math_asin">
<polygon fill="none" stroke="black" points="365,-456.5 365,-475.5 426,-475.5 426,-456.5 365,-456.5"/>
<text text-anchor="middle" x="395.5" y="-463.5" font-family="Helvetica,sans-Serif" font-size="10.00">math_asin</text>
</a>
</g>
</g>
<!-- Node21&#45;&gt;Node30 -->
<g id="edge36" class="edge"><title>Node21&#45;&gt;Node30</title>
<path fill="none" stroke="midnightblue" d="M309.44,-546.613C311.748,-545.206 313.955,-543.671 316,-542 339.198,-523.036 329.354,-504.62 352,-485 356.276,-481.295 361.391,-478.196 366.567,-475.648"/>
<polygon fill="midnightblue" stroke="midnightblue" points="307.423,-543.717 300.163,-551.432 310.65,-549.928 307.423,-543.717"/>
</g>
<!-- Node31 -->
<g id="node31" class="node"><title>Node31</title>
<g id="a_node31"><a xlink:href="../../d1/d6a/lmathlib_8c.html#a9f983fa3cca14d69429cebc95be4fab1" target="_top" xlink:title="math_acos">
<polygon fill="none" stroke="black" points="363.5,-418.5 363.5,-437.5 427.5,-437.5 427.5,-418.5 363.5,-418.5"/>
<text text-anchor="middle" x="395.5" y="-425.5" font-family="Helvetica,sans-Serif" font-size="10.00">math_acos</text>
</a>
</g>
</g>
<!-- Node21&#45;&gt;Node31 -->
<g id="edge37" class="edge"><title>Node21&#45;&gt;Node31</title>
<path fill="none" stroke="midnightblue" d="M311.308,-546.04C312.973,-544.798 314.548,-543.453 316,-542 347.913,-510.058 321.015,-479.842 352,-447 355.55,-443.238 359.981,-440.169 364.631,-437.682"/>
<polygon fill="midnightblue" stroke="midnightblue" points="309.119,-543.275 302.377,-551.448 312.744,-549.262 309.119,-543.275"/>
</g>
<!-- Node32 -->
<g id="node32" class="node"><title>Node32</title>
<g id="a_node32"><a xlink:href="../../d1/d6a/lmathlib_8c.html#a70217d6c0312477f3e257a584518424c" target="_top" xlink:title="math_atan">
<polygon fill="none" stroke="black" points="364.5,-380.5 364.5,-399.5 426.5,-399.5 426.5,-380.5 364.5,-380.5"/>
<text text-anchor="middle" x="395.5" y="-387.5" font-family="Helvetica,sans-Serif" font-size="10.00">math_atan</text>
</a>
</g>
</g>
<!-- Node21&#45;&gt;Node32 -->
<g id="edge38" class="edge"><title>Node21&#45;&gt;Node32</title>
<path fill="none" stroke="midnightblue" d="M312.115,-545.706C313.498,-544.558 314.8,-543.325 316,-542 357.111,-496.613 312.205,-455.546 352,-409 355.361,-405.068 359.698,-401.915 364.313,-399.397"/>
<polygon fill="midnightblue" stroke="midnightblue" points="309.908,-542.968 303.477,-551.387 313.755,-548.816 309.908,-542.968"/>
</g>
<!-- Node33 -->
<g id="node33" class="node"><title>Node33</title>
<g id="a_node33"><a xlink:href="../../d1/d6a/lmathlib_8c.html#ab2ec821a1dd788ee7d4f9a58c743cd48" target="_top" xlink:title="math_atan2">
<polygon fill="none" stroke="black" points="361.5,-342.5 361.5,-361.5 429.5,-361.5 429.5,-342.5 361.5,-342.5"/>
<text text-anchor="middle" x="395.5" y="-349.5" font-family="Helvetica,sans-Serif" font-size="10.00">math_atan2</text>
</a>
</g>
</g>
<!-- Node21&#45;&gt;Node33 -->
<g id="edge39" class="edge"><title>Node21&#45;&gt;Node33</title>
<path fill="none" stroke="midnightblue" d="M312.711,-545.354C313.88,-544.307 314.981,-543.191 316,-542 366.482,-482.978 303.228,-431.442 352,-371 355.045,-367.226 358.998,-364.177 363.265,-361.721"/>
<polygon fill="midnightblue" stroke="midnightblue" points="310.382,-542.71 304.176,-551.297 314.383,-548.455 310.382,-542.71"/>
</g>
<!-- Node34 -->
<g id="node34" class="node"><title>Node34</title>
<g id="a_node34"><a xlink:href="../../d1/d6a/lmathlib_8c.html#ae4f0dc771c626a9badef237db9d433da" target="_top" xlink:title="math_ceil">
<polygon fill="none" stroke="black" points="367.5,-304.5 367.5,-323.5 423.5,-323.5 423.5,-304.5 367.5,-304.5"/>
<text text-anchor="middle" x="395.5" y="-311.5" font-family="Helvetica,sans-Serif" font-size="10.00">math_ceil</text>
</a>
</g>
</g>
<!-- Node21&#45;&gt;Node34 -->
<g id="edge40" class="edge"><title>Node21&#45;&gt;Node34</title>
<path fill="none" stroke="midnightblue" d="M312.769,-545.403C313.921,-544.342 315.004,-543.209 316,-542 375.933,-469.252 294.174,-407.434 352,-333 355.967,-327.894 361.605,-324.124 367.482,-321.353"/>
<polygon fill="midnightblue" stroke="midnightblue" points="310.437,-542.766 304.309,-551.409 314.489,-548.474 310.437,-542.766"/>
</g>
<!-- Node35 -->
<g id="node35" class="node"><title>Node35</title>
<g id="a_node35"><a xlink:href="../../d1/d6a/lmathlib_8c.html#aa063dcd93e924af13c5e311f89b18d03" target="_top" xlink:title="math_floor">
<polygon fill="none" stroke="black" points="366,-266.5 366,-285.5 425,-285.5 425,-266.5 366,-266.5"/>
<text text-anchor="middle" x="395.5" y="-273.5" font-family="Helvetica,sans-Serif" font-size="10.00">math_floor</text>
</a>
</g>
</g>
<!-- Node21&#45;&gt;Node35 -->
<g id="edge41" class="edge"><title>Node21&#45;&gt;Node35</title>
<path fill="none" stroke="midnightblue" d="M312.81,-545.436C313.951,-544.366 315.019,-543.222 316,-542 385.428,-455.473 285.078,-383.479 352,-295 355.51,-290.359 360.408,-286.825 365.635,-284.144"/>
<polygon fill="midnightblue" stroke="midnightblue" points="310.476,-542.804 304.403,-551.485 314.564,-548.486 310.476,-542.804"/>
</g>
<!-- Node36 -->
<g id="node36" class="node"><title>Node36</title>
<g id="a_node36"><a xlink:href="../../d1/d6a/lmathlib_8c.html#a25b3f7d30cf85b8248a72de20049564e" target="_top" xlink:title="math_fmod">
<polygon fill="none" stroke="black" points="364,-228.5 364,-247.5 427,-247.5 427,-228.5 364,-228.5"/>
<text text-anchor="middle" x="395.5" y="-235.5" font-family="Helvetica,sans-Serif" font-size="10.00">math_fmod</text>
</a>
</g>
</g>
<!-- Node21&#45;&gt;Node36 -->
<g id="edge42" class="edge"><title>Node21&#45;&gt;Node36</title>
<path fill="none" stroke="midnightblue" d="M313.289,-545.026C314.253,-544.075 315.16,-543.067 316,-542 394.948,-441.662 275.957,-359.557 352,-257 355.081,-252.845 359.278,-249.58 363.84,-247.02"/>
<polygon fill="midnightblue" stroke="midnightblue" points="310.867,-542.467 304.961,-551.263 315.063,-548.07 310.867,-542.467"/>
</g>
<!-- Node37 -->
<g id="node37" class="node"><title>Node37</title>
<g id="a_node37"><a xlink:href="../../d1/d6a/lmathlib_8c.html#adff369706deb34be360be3103f31d4c4" target="_top" xlink:title="math_modf">
<polygon fill="none" stroke="black" points="364,-190.5 364,-209.5 427,-209.5 427,-190.5 364,-190.5"/>
<text text-anchor="middle" x="395.5" y="-197.5" font-family="Helvetica,sans-Serif" font-size="10.00">math_modf</text>
</a>
</g>
</g>
<!-- Node21&#45;&gt;Node37 -->
<g id="edge43" class="edge"><title>Node21&#45;&gt;Node37</title>
<path fill="none" stroke="midnightblue" d="M313.31,-545.042C314.268,-544.086 315.168,-543.073 316,-542 404.484,-427.83 266.82,-335.656 352,-219 355.05,-214.822 359.232,-211.546 363.788,-208.982"/>
<polygon fill="midnightblue" stroke="midnightblue" points="310.887,-542.486 305.014,-551.304 315.104,-548.073 310.887,-542.486"/>
</g>
<!-- Node38 -->
<g id="node38" class="node"><title>Node38</title>
<g id="a_node38"><a xlink:href="../../d1/d6a/lmathlib_8c.html#a8f4c386bafe8ae7269476ed3ed94d1d8" target="_top" xlink:title="math_sqrt">
<polygon fill="none" stroke="black" points="366.5,-152.5 366.5,-171.5 424.5,-171.5 424.5,-152.5 366.5,-152.5"/>
<text text-anchor="middle" x="395.5" y="-159.5" font-family="Helvetica,sans-Serif" font-size="10.00">math_sqrt</text>
</a>
</g>
</g>
<!-- Node21&#45;&gt;Node38 -->
<g id="edge44" class="edge"><title>Node21&#45;&gt;Node38</title>
<path fill="none" stroke="midnightblue" d="M313.327,-545.055C314.28,-544.095 315.174,-543.078 316,-542 414.032,-413.984 257.673,-311.77 352,-181 355.593,-176.018 360.799,-172.32 366.343,-169.582"/>
<polygon fill="midnightblue" stroke="midnightblue" points="310.902,-542.501 305.056,-551.337 315.137,-548.075 310.902,-542.501"/>
</g>
<!-- Node39 -->
<g id="node39" class="node"><title>Node39</title>
<g id="a_node39"><a xlink:href="../../d1/d6a/lmathlib_8c.html#a1bd66c605ef6e69738489e6f9572370c" target="_top" xlink:title="math_pow">
<polygon fill="none" stroke="black" points="364.5,-114.5 364.5,-133.5 426.5,-133.5 426.5,-114.5 364.5,-114.5"/>
<text text-anchor="middle" x="395.5" y="-121.5" font-family="Helvetica,sans-Serif" font-size="10.00">math_pow</text>
</a>
</g>
</g>
<!-- Node21&#45;&gt;Node39 -->
<g id="edge45" class="edge"><title>Node21&#45;&gt;Node39</title>
<path fill="none" stroke="midnightblue" d="M313.34,-545.065C314.289,-544.103 315.179,-543.082 316,-542 369.794,-471.063 300.259,-215.447 352,-143 355.1,-138.659 359.427,-135.294 364.141,-132.689"/>
<polygon fill="midnightblue" stroke="midnightblue" points="310.915,-542.513 305.091,-551.363 315.163,-548.077 310.915,-542.513"/>
</g>
<!-- Node40 -->
<g id="node40" class="node"><title>Node40</title>
<g id="a_node40"><a xlink:href="../../d1/d6a/lmathlib_8c.html#a7cb92978495484adbfc9d0cb0ace2cc2" target="_top" xlink:title="math_log">
<polygon fill="none" stroke="black" points="368,-76.5 368,-95.5 423,-95.5 423,-76.5 368,-76.5"/>
<text text-anchor="middle" x="395.5" y="-83.5" font-family="Helvetica,sans-Serif" font-size="10.00">math_log</text>
</a>
</g>
</g>
<!-- Node21&#45;&gt;Node40 -->
<g id="edge46" class="edge"><title>Node21&#45;&gt;Node40</title>
<path fill="none" stroke="midnightblue" d="M313.352,-545.074C314.297,-544.109 315.184,-543.085 316,-542 374.575,-464.131 295.678,-184.514 352,-105 355.831,-99.5918 361.568,-95.6989 367.597,-92.9053"/>
<polygon fill="midnightblue" stroke="midnightblue" points="310.926,-542.523 305.119,-551.385 315.185,-548.078 310.926,-542.523"/>
</g>
<!-- Node41 -->
<g id="node41" class="node"><title>Node41</title>
<g id="a_node41"><a xlink:href="../../d1/d6a/lmathlib_8c.html#a7c971c680cdad8e4e833f8a3db9d065d" target="_top" xlink:title="math_exp">
<polygon fill="none" stroke="black" points="366,-38.5 366,-57.5 425,-57.5 425,-38.5 366,-38.5"/>
<text text-anchor="middle" x="395.5" y="-45.5" font-family="Helvetica,sans-Serif" font-size="10.00">math_exp</text>
</a>
</g>
</g>
<!-- Node21&#45;&gt;Node41 -->
<g id="edge47" class="edge"><title>Node21&#45;&gt;Node41</title>
<path fill="none" stroke="midnightblue" d="M313.361,-545.081C314.304,-544.114 315.187,-543.088 316,-542 379.358,-457.196 291.096,-153.583 352,-67 355.441,-62.1082 360.444,-58.4568 365.818,-55.7376"/>
<polygon fill="midnightblue" stroke="midnightblue" points="310.935,-542.531 305.143,-551.403 315.203,-548.079 310.935,-542.531"/>
</g>
<!-- Node42 -->
<g id="node42" class="node"><title>Node42</title>
<g id="a_node42"><a xlink:href="../../d1/d6a/lmathlib_8c.html#ad9bd03062009a4aba15739a1630b2a25" target="_top" xlink:title="math_deg">
<polygon fill="none" stroke="black" points="366,-0.5 366,-19.5 425,-19.5 425,-0.5 366,-0.5"/>
<text text-anchor="middle" x="395.5" y="-7.5" font-family="Helvetica,sans-Serif" font-size="10.00">math_deg</text>
</a>
</g>
</g>
<!-- Node21&#45;&gt;Node42 -->
<g id="edge48" class="edge"><title>Node21&#45;&gt;Node42</title>
<path fill="none" stroke="midnightblue" d="M313.369,-545.087C314.31,-544.118 315.19,-543.09 316,-542 384.143,-450.258 286.511,-122.655 352,-29 355.427,-24.0986 360.424,-20.4432 365.797,-17.723"/>
<polygon fill="midnightblue" stroke="midnightblue" points="310.943,-542.538 305.164,-551.418 315.219,-548.08 310.943,-542.538"/>
</g>
<!-- Node43 -->
<g id="node43" class="node"><title>Node43</title>
<g id="a_node43"><a xlink:href="../../d1/d6a/lmathlib_8c.html#a5d8eec19cea59d1ce1012a705f70dc8d" target="_top" xlink:title="math_rad">
<polygon fill="none" stroke="black" points="367.5,-1026.5 367.5,-1045.5 423.5,-1045.5 423.5,-1026.5 367.5,-1026.5"/>
<text text-anchor="middle" x="395.5" y="-1033.5" font-family="Helvetica,sans-Serif" font-size="10.00">math_rad</text>
</a>
</g>
</g>
<!-- Node21&#45;&gt;Node43 -->
<g id="edge49" class="edge"><title>Node21&#45;&gt;Node43</title>
<path fill="none" stroke="midnightblue" d="M269.679,-580.846C285.895,-668.268 350.255,-1014.79 352,-1017 355.907,-1021.95 361.378,-1025.64 367.099,-1028.39"/>
<polygon fill="midnightblue" stroke="midnightblue" points="273.099,-580.089 267.834,-570.895 266.216,-581.365 273.099,-580.089"/>
</g>
<!-- Node44 -->
<g id="node44" class="node"><title>Node44</title>
<g id="a_node44"><a xlink:href="../../d1/d6a/lmathlib_8c.html#a13d5e8c418a554d9e4604b97a4b67b83" target="_top" xlink:title="math_frexp">
<polygon fill="none" stroke="black" points="363.5,-988.5 363.5,-1007.5 427.5,-1007.5 427.5,-988.5 363.5,-988.5"/>
<text text-anchor="middle" x="395.5" y="-995.5" font-family="Helvetica,sans-Serif" font-size="10.00">math_frexp</text>
</a>
</g>
</g>
<!-- Node21&#45;&gt;Node44 -->
<g id="edge50" class="edge"><title>Node21&#45;&gt;Node44</title>
<path fill="none" stroke="midnightblue" d="M269.549,-580.772C284.117,-661.549 339.15,-963 352,-979 355.037,-982.781 358.984,-985.833 363.249,-988.291"/>
<polygon fill="midnightblue" stroke="midnightblue" points="272.987,-580.113 267.771,-570.891 266.098,-581.353 272.987,-580.113"/>
</g>
<!-- Node45 -->
<g id="node45" class="node"><title>Node45</title>
<g id="a_node45"><a xlink:href="../../d1/d6a/lmathlib_8c.html#adf7bb9373e68cc77ddf001273c444edf" target="_top" xlink:title="math_ldexp">
<polygon fill="none" stroke="black" points="362.5,-950.5 362.5,-969.5 428.5,-969.5 428.5,-950.5 362.5,-950.5"/>
<text text-anchor="middle" x="395.5" y="-957.5" font-family="Helvetica,sans-Serif" font-size="10.00">math_ldexp</text>
</a>
</g>
</g>
<!-- Node21&#45;&gt;Node45 -->
<g id="edge51" class="edge"><title>Node21&#45;&gt;Node45</title>
<path fill="none" stroke="midnightblue" d="M269.435,-580.932C282.365,-655.108 328.55,-912.382 352,-941 355.176,-944.876 359.307,-947.989 363.743,-950.481"/>
<polygon fill="midnightblue" stroke="midnightblue" points="272.812,-579.917 267.655,-570.663 265.915,-581.114 272.812,-579.917"/>
</g>
<!-- Node46 -->
<g id="node46" class="node"><title>Node46</title>
<g id="a_node46"><a xlink:href="../../d1/d6a/lmathlib_8c.html#ab0a14d784b5fe2f30062e88a635db320" target="_top" xlink:title="math_min">
<polygon fill="none" stroke="black" points="367,-912.5 367,-931.5 424,-931.5 424,-912.5 367,-912.5"/>
<text text-anchor="middle" x="395.5" y="-919.5" font-family="Helvetica,sans-Serif" font-size="10.00">math_min</text>
</a>
</g>
</g>
<!-- Node21&#45;&gt;Node46 -->
<g id="edge52" class="edge"><title>Node21&#45;&gt;Node46</title>
<path fill="none" stroke="midnightblue" d="M268.704,-580.979C277.901,-646.371 309.759,-852.683 352,-903 355.949,-907.704 361.3,-911.29 366.871,-914.007"/>
<polygon fill="midnightblue" stroke="midnightblue" points="272.132,-580.216 267.295,-570.789 265.198,-581.174 272.132,-580.216"/>
</g>
<!-- Node47 -->
<g id="node47" class="node"><title>Node47</title>
<g id="a_node47"><a xlink:href="../../d1/d6a/lmathlib_8c.html#a03e3b76e515f5535122c2026a9e8f445" target="_top" xlink:title="math_max">
<polygon fill="none" stroke="black" points="364.5,-874.5 364.5,-893.5 426.5,-893.5 426.5,-874.5 364.5,-874.5"/>
<text text-anchor="middle" x="395.5" y="-881.5" font-family="Helvetica,sans-Serif" font-size="10.00">math_max</text>
</a>
</g>
</g>
<!-- Node21&#45;&gt;Node47 -->
<g id="edge53" class="edge"><title>Node21&#45;&gt;Node47</title>
<path fill="none" stroke="midnightblue" d="M266.086,-580.821C267.355,-633.566 277.783,-779.183 352,-865 355.384,-868.912 359.732,-872.056 364.35,-874.571"/>
<polygon fill="midnightblue" stroke="midnightblue" points="269.581,-580.459 265.932,-570.513 262.582,-580.564 269.581,-580.459"/>
</g>
<!-- Node48 -->
<g id="node48" class="node"><title>Node48</title>
<g id="a_node48"><a xlink:href="../../d1/d6a/lmathlib_8c.html#aa3ad02d4204d21d35a0825281915fb22" target="_top" xlink:title="math_random">
<polygon fill="none" stroke="black" points="358.5,-836.5 358.5,-855.5 432.5,-855.5 432.5,-836.5 358.5,-836.5"/>
<text text-anchor="middle" x="395.5" y="-843.5" font-family="Helvetica,sans-Serif" font-size="10.00">math_random</text>
</a>
</g>
</g>
<!-- Node21&#45;&gt;Node48 -->
<g id="edge54" class="edge"><title>Node21&#45;&gt;Node48</title>
<path fill="none" stroke="midnightblue" d="M267.678,-580.776C272.596,-627.699 290.744,-747.404 352,-822 356.947,-828.025 363.828,-832.819 370.613,-836.489"/>
<polygon fill="midnightblue" stroke="midnightblue" points="271.153,-580.341 266.715,-570.72 264.184,-581.008 271.153,-580.341"/>
</g>
</g>
</svg>
