<?xml version="1.0" encoding="UTF-8" standalone="no"?>
<!DOCTYPE svg PUBLIC "-//W3C//DTD SVG 1.1//EN"
 "http://www.w3.org/Graphics/SVG/1.1/DTD/svg11.dtd">
<!-- Generated by graphviz version 2.38.0 (20140413.2041)
 -->
<!-- Title: luaL_addlstring Pages: 1 -->
<svg width="898pt" height="469pt"
 viewBox="0.00 0.00 898.00 469.00" xmlns="http://www.w3.org/2000/svg" xmlns:xlink="http://www.w3.org/1999/xlink">
<g id="graph0" class="graph" transform="scale(1 1) rotate(0) translate(4 465)">
<title>luaL_addlstring</title>
<!-- Node1 -->
<g id="node1" class="node"><title>Node1</title>
<polygon fill="#bfbfbf" stroke="black" points="0,-133.5 0,-152.5 80,-152.5 80,-133.5 0,-133.5"/>
<text text-anchor="middle" x="40" y="-140.5" font-family="Helvetica,sans-Serif" font-size="10.00">luaL_addlstring</text>
</g>
<!-- Node2 -->
<g id="node2" class="node"><title>Node2</title>
<g id="a_node2"><a xlink:href="../../dc/d77/lstrlib_8c.html#ad5f7e3fbcadc8825f7f650ecf458fc72" target="_top" xlink:title="add_s">
<polygon fill="none" stroke="black" points="241,-152.5 241,-171.5 285,-171.5 285,-152.5 241,-152.5"/>
<text text-anchor="middle" x="263" y="-159.5" font-family="Helvetica,sans-Serif" font-size="10.00">add_s</text>
</a>
</g>
</g>
<!-- Node1&#45;&gt;Node2 -->
<g id="edge1" class="edge"><title>Node1&#45;&gt;Node2</title>
<path fill="none" stroke="midnightblue" d="M90.0063,-147.213C137.166,-151.268 206.251,-157.207 240.752,-160.173"/>
<polygon fill="midnightblue" stroke="midnightblue" points="90.2647,-143.723 80.0016,-146.353 89.6651,-150.697 90.2647,-143.723"/>
</g>
<!-- Node4 -->
<g id="node4" class="node"><title>Node4</title>
<g id="a_node4"><a xlink:href="../../dc/d77/lstrlib_8c.html#a42337c674d265175bcc2b2f3809c7339" target="_top" xlink:title="str_gsub">
<polygon fill="none" stroke="black" points="441,-114.5 441,-133.5 494,-133.5 494,-114.5 441,-114.5"/>
<text text-anchor="middle" x="467.5" y="-121.5" font-family="Helvetica,sans-Serif" font-size="10.00">str_gsub</text>
</a>
</g>
</g>
<!-- Node1&#45;&gt;Node4 -->
<g id="edge34" class="edge"><title>Node1&#45;&gt;Node4</title>
<path fill="none" stroke="midnightblue" d="M87.1619,-131.071C154.814,-115.169 284.816,-90.6099 395,-105 410.41,-107.013 427.227,-111.367 440.677,-115.401"/>
<polygon fill="midnightblue" stroke="midnightblue" points="86.1574,-127.712 77.2473,-133.445 87.7875,-134.52 86.1574,-127.712"/>
</g>
<!-- Node5 -->
<g id="node5" class="node"><title>Node5</title>
<g id="a_node5"><a xlink:href="../../da/d29/lauxlib_8h.html#ad9c038f6e108e216011aca1801f84f44" target="_top" xlink:title="luaL_addstring">
<polygon fill="none" stroke="black" points="117,-380.5 117,-399.5 195,-399.5 195,-380.5 117,-380.5"/>
<text text-anchor="middle" x="156" y="-387.5" font-family="Helvetica,sans-Serif" font-size="10.00">luaL_addstring</text>
</a>
</g>
</g>
<!-- Node1&#45;&gt;Node5 -->
<g id="edge4" class="edge"><title>Node1&#45;&gt;Node5</title>
<path fill="none" stroke="midnightblue" d="M49.7397,-161.936C72.6039,-211.475 133.59,-343.611 150.562,-380.384"/>
<polygon fill="midnightblue" stroke="midnightblue" points="52.8374,-160.296 45.4689,-152.683 46.4817,-163.229 52.8374,-160.296"/>
</g>
<!-- Node6 -->
<g id="node6" class="node"><title>Node6</title>
<g id="a_node6"><a xlink:href="../../da/d29/lauxlib_8h.html#a46672be75da57e1a464c5c6d80f19064" target="_top" xlink:title="luaL_gsub">
<polygon fill="none" stroke="black" points="232,-418.5 232,-437.5 294,-437.5 294,-418.5 232,-418.5"/>
<text text-anchor="middle" x="263" y="-425.5" font-family="Helvetica,sans-Serif" font-size="10.00">luaL_gsub</text>
</a>
</g>
</g>
<!-- Node1&#45;&gt;Node6 -->
<g id="edge32" class="edge"><title>Node1&#45;&gt;Node6</title>
<path fill="none" stroke="midnightblue" d="M43.7533,-162.837C51.9416,-218.824 77.9616,-376.126 116,-409 147.91,-436.577 199.338,-436.499 231.867,-432.958"/>
<polygon fill="midnightblue" stroke="midnightblue" points="47.196,-162.187 42.3168,-152.783 40.2664,-163.177 47.196,-162.187"/>
</g>
<!-- Node19 -->
<g id="node19" class="node"><title>Node19</title>
<g id="a_node19"><a xlink:href="../../da/d29/lauxlib_8h.html#aeeb03d69681da0ec0e952b582ce3841c" target="_top" xlink:title="luaL_addvalue">
<polygon fill="none" stroke="black" points="116,-228.5 116,-247.5 196,-247.5 196,-228.5 116,-228.5"/>
<text text-anchor="middle" x="156" y="-235.5" font-family="Helvetica,sans-Serif" font-size="10.00">luaL_addvalue</text>
</a>
</g>
</g>
<!-- Node1&#45;&gt;Node19 -->
<g id="edge23" class="edge"><title>Node1&#45;&gt;Node19</title>
<path fill="none" stroke="midnightblue" d="M60.4938,-159.245C84.3538,-179.128 123.98,-212.15 143.463,-228.386"/>
<polygon fill="midnightblue" stroke="midnightblue" points="62.6935,-156.522 52.7706,-152.809 58.2122,-161.9 62.6935,-156.522"/>
</g>
<!-- Node23 -->
<g id="node23" class="node"><title>Node23</title>
<g id="a_node23"><a xlink:href="../../d0/da1/ltablib_8c.html#add6973c515a288f41265aca8e0ae6412" target="_top" xlink:title="tconcat">
<polygon fill="none" stroke="black" points="339,-114.5 339,-133.5 386,-133.5 386,-114.5 339,-114.5"/>
<text text-anchor="middle" x="362.5" y="-121.5" font-family="Helvetica,sans-Serif" font-size="10.00">tconcat</text>
</a>
</g>
</g>
<!-- Node1&#45;&gt;Node23 -->
<g id="edge35" class="edge"><title>Node1&#45;&gt;Node23</title>
<path fill="none" stroke="midnightblue" d="M90.691,-140.054C161.135,-135.878 287.186,-128.406 338.659,-125.354"/>
<polygon fill="midnightblue" stroke="midnightblue" points="90.0749,-136.584 80.2996,-140.67 90.4892,-143.572 90.0749,-136.584"/>
</g>
<!-- Node24 -->
<g id="node24" class="node"><title>Node24</title>
<g id="a_node24"><a xlink:href="../../dc/dba/loslib_8c.html#a6520f2562b500aee87a6a475995adefb" target="_top" xlink:title="os_date">
<polygon fill="none" stroke="black" points="130.5,-38.5 130.5,-57.5 181.5,-57.5 181.5,-38.5 130.5,-38.5"/>
<text text-anchor="middle" x="156" y="-45.5" font-family="Helvetica,sans-Serif" font-size="10.00">os_date</text>
</a>
</g>
</g>
<!-- Node1&#45;&gt;Node24 -->
<g id="edge33" class="edge"><title>Node1&#45;&gt;Node24</title>
<path fill="none" stroke="midnightblue" d="M57.4103,-125.548C72.0333,-110.48 94.4017,-88.5844 116,-72 122.81,-66.7708 130.815,-61.6822 137.795,-57.5464"/>
<polygon fill="midnightblue" stroke="midnightblue" points="54.5279,-123.497 50.1373,-133.14 59.5826,-128.34 54.5279,-123.497"/>
</g>
<!-- Node25 -->
<g id="node25" class="node"><title>Node25</title>
<g id="a_node25"><a xlink:href="../../dc/d77/lstrlib_8c.html#ae67cb3a8aef2fe1be04d689cddf5d587" target="_top" xlink:title="writer">
<polygon fill="none" stroke="black" points="137,-0.5 137,-19.5 175,-19.5 175,-0.5 137,-0.5"/>
<text text-anchor="middle" x="156" y="-7.5" font-family="Helvetica,sans-Serif" font-size="10.00">writer</text>
</a>
</g>
</g>
<!-- Node1&#45;&gt;Node25 -->
<g id="edge36" class="edge"><title>Node1&#45;&gt;Node25</title>
<path fill="none" stroke="midnightblue" d="M49.6001,-123.834C61.484,-99.1618 85.0172,-56.2352 116,-29 121.996,-23.7291 129.713,-19.5657 136.698,-16.4963"/>
<polygon fill="midnightblue" stroke="midnightblue" points="46.2906,-122.649 45.2325,-133.191 52.6337,-125.61 46.2906,-122.649"/>
</g>
<!-- Node3 -->
<g id="node3" class="node"><title>Node3</title>
<g id="a_node3"><a xlink:href="../../dc/d77/lstrlib_8c.html#ad24cfa73e5ad25ec99a1b48f0916471e" target="_top" xlink:title="add_value">
<polygon fill="none" stroke="black" points="331.5,-152.5 331.5,-171.5 393.5,-171.5 393.5,-152.5 331.5,-152.5"/>
<text text-anchor="middle" x="362.5" y="-159.5" font-family="Helvetica,sans-Serif" font-size="10.00">add_value</text>
</a>
</g>
</g>
<!-- Node2&#45;&gt;Node3 -->
<g id="edge2" class="edge"><title>Node2&#45;&gt;Node3</title>
<path fill="none" stroke="midnightblue" d="M295.207,-162C306.707,-162 319.71,-162 331.135,-162"/>
<polygon fill="midnightblue" stroke="midnightblue" points="295.156,-158.5 285.156,-162 295.156,-165.5 295.156,-158.5"/>
</g>
<!-- Node3&#45;&gt;Node4 -->
<g id="edge3" class="edge"><title>Node3&#45;&gt;Node4</title>
<path fill="none" stroke="midnightblue" d="M399.132,-148.854C412.866,-143.787 428.267,-138.105 440.874,-133.454"/>
<polygon fill="midnightblue" stroke="midnightblue" points="397.662,-145.666 389.491,-152.411 400.085,-152.233 397.662,-145.666"/>
</g>
<!-- Node5&#45;&gt;Node6 -->
<g id="edge5" class="edge"><title>Node5&#45;&gt;Node6</title>
<path fill="none" stroke="midnightblue" d="M193.247,-403.118C207.135,-408.144 222.705,-413.779 235.513,-418.414"/>
<polygon fill="midnightblue" stroke="midnightblue" points="194.09,-399.701 183.496,-399.589 191.708,-406.283 194.09,-399.701"/>
</g>
<!-- Node17 -->
<g id="node17" class="node"><title>Node17</title>
<g id="a_node17"><a xlink:href="../../dc/d77/lstrlib_8c.html#a95c31911812b88f7c4ab6ceb63a1e1e8" target="_top" xlink:title="addquoted">
<polygon fill="none" stroke="black" points="232,-380.5 232,-399.5 294,-399.5 294,-380.5 232,-380.5"/>
<text text-anchor="middle" x="263" y="-387.5" font-family="Helvetica,sans-Serif" font-size="10.00">addquoted</text>
</a>
</g>
</g>
<!-- Node5&#45;&gt;Node17 -->
<g id="edge21" class="edge"><title>Node5&#45;&gt;Node17</title>
<path fill="none" stroke="midnightblue" d="M205.3,-390C214.357,-390 223.581,-390 231.886,-390"/>
<polygon fill="midnightblue" stroke="midnightblue" points="205.204,-386.5 195.204,-390 205.204,-393.5 205.204,-386.5"/>
</g>
<!-- Node7 -->
<g id="node7" class="node"><title>Node7</title>
<g id="a_node7"><a xlink:href="../../d2/d82/loadlib_8c.html#a9aa5433859d896c2db1a7af366e04b65" target="_top" xlink:title="searchpath">
<polygon fill="none" stroke="black" points="330,-370.5 330,-389.5 395,-389.5 395,-370.5 330,-370.5"/>
<text text-anchor="middle" x="362.5" y="-377.5" font-family="Helvetica,sans-Serif" font-size="10.00">searchpath</text>
</a>
</g>
</g>
<!-- Node6&#45;&gt;Node7 -->
<g id="edge6" class="edge"><title>Node6&#45;&gt;Node7</title>
<path fill="none" stroke="midnightblue" d="M293.092,-413.678C308.941,-405.875 328.119,-396.434 342.132,-389.535"/>
<polygon fill="midnightblue" stroke="midnightblue" points="291.156,-410.729 283.731,-418.286 294.248,-417.01 291.156,-410.729"/>
</g>
<!-- Node15 -->
<g id="node15" class="node"><title>Node15</title>
<g id="a_node15"><a xlink:href="../../d2/d82/loadlib_8c.html#a91ac5b5231cf039af46226806dcc3884" target="_top" xlink:title="loadfunc">
<polygon fill="none" stroke="black" points="441.5,-413.5 441.5,-432.5 493.5,-432.5 493.5,-413.5 441.5,-413.5"/>
<text text-anchor="middle" x="467.5" y="-420.5" font-family="Helvetica,sans-Serif" font-size="10.00">loadfunc</text>
</a>
</g>
</g>
<!-- Node6&#45;&gt;Node15 -->
<g id="edge16" class="edge"><title>Node6&#45;&gt;Node15</title>
<path fill="none" stroke="midnightblue" d="M304.478,-427.001C345.339,-425.992 407.159,-424.465 441.416,-423.619"/>
<polygon fill="midnightblue" stroke="midnightblue" points="304.227,-423.506 294.316,-427.251 304.4,-430.503 304.227,-423.506"/>
</g>
<!-- Node16 -->
<g id="node16" class="node"><title>Node16</title>
<g id="a_node16"><a xlink:href="../../d2/d82/loadlib_8c.html#ab1293c9ab0fa766bfa927767d6ae543c" target="_top" xlink:title="setpath">
<polygon fill="none" stroke="black" points="683.5,-441.5 683.5,-460.5 732.5,-460.5 732.5,-441.5 683.5,-441.5"/>
<text text-anchor="middle" x="708" y="-448.5" font-family="Helvetica,sans-Serif" font-size="10.00">setpath</text>
</a>
</g>
</g>
<!-- Node6&#45;&gt;Node16 -->
<g id="edge19" class="edge"><title>Node6&#45;&gt;Node16</title>
<path fill="none" stroke="midnightblue" d="M304.194,-435.576C312.688,-436.93 321.617,-438.172 330,-439 462.941,-452.135 623.406,-451.956 683.11,-451.342"/>
<polygon fill="midnightblue" stroke="midnightblue" points="304.556,-432.088 294.115,-433.888 303.4,-438.992 304.556,-432.088"/>
</g>
<!-- Node8 -->
<g id="node8" class="node"><title>Node8</title>
<g id="a_node8"><a xlink:href="../../d2/d82/loadlib_8c.html#a3e9eb01c860846336b6f50d6c77448a2" target="_top" xlink:title="ll_searchpath">
<polygon fill="none" stroke="black" points="431,-337.5 431,-356.5 504,-356.5 504,-337.5 431,-337.5"/>
<text text-anchor="middle" x="467.5" y="-344.5" font-family="Helvetica,sans-Serif" font-size="10.00">ll_searchpath</text>
</a>
</g>
</g>
<!-- Node7&#45;&gt;Node8 -->
<g id="edge7" class="edge"><title>Node7&#45;&gt;Node8</title>
<path fill="none" stroke="midnightblue" d="M402.906,-367.375C414.151,-363.772 426.212,-359.908 436.775,-356.524"/>
<polygon fill="midnightblue" stroke="midnightblue" points="401.747,-364.071 393.292,-370.455 403.883,-370.737 401.747,-364.071"/>
</g>
<!-- Node9 -->
<g id="node9" class="node"><title>Node9</title>
<g id="a_node9"><a xlink:href="../../d2/d82/loadlib_8c.html#af8f7333f1a59f3d7aab8c9b79b7a4ab2" target="_top" xlink:title="findfile">
<polygon fill="none" stroke="black" points="447,-375.5 447,-394.5 488,-394.5 488,-375.5 447,-375.5"/>
<text text-anchor="middle" x="467.5" y="-382.5" font-family="Helvetica,sans-Serif" font-size="10.00">findfile</text>
</a>
</g>
</g>
<!-- Node7&#45;&gt;Node9 -->
<g id="edge8" class="edge"><title>Node7&#45;&gt;Node9</title>
<path fill="none" stroke="midnightblue" d="M405.465,-382.037C419.844,-382.735 435.251,-383.483 446.987,-384.053"/>
<polygon fill="midnightblue" stroke="midnightblue" points="405.402,-378.53 395.244,-381.541 405.062,-385.522 405.402,-378.53"/>
</g>
<!-- Node10 -->
<g id="node10" class="node"><title>Node10</title>
<g id="a_node10"><a xlink:href="../../d2/d82/loadlib_8c.html#a8b2f1d86fe37c0829143579a6b568243" target="_top" xlink:title="searcher_Lua">
<polygon fill="none" stroke="black" points="543,-337.5 543,-356.5 617,-356.5 617,-337.5 543,-337.5"/>
<text text-anchor="middle" x="580" y="-344.5" font-family="Helvetica,sans-Serif" font-size="10.00">searcher_Lua</text>
</a>
</g>
</g>
<!-- Node9&#45;&gt;Node10 -->
<g id="edge9" class="edge"><title>Node9&#45;&gt;Node10</title>
<path fill="none" stroke="midnightblue" d="M497.677,-374.966C514.171,-369.294 534.687,-362.239 550.986,-356.634"/>
<polygon fill="midnightblue" stroke="midnightblue" points="496.319,-371.732 488.001,-378.294 498.596,-378.352 496.319,-371.732"/>
</g>
<!-- Node13 -->
<g id="node13" class="node"><title>Node13</title>
<g id="a_node13"><a xlink:href="../../d2/d82/loadlib_8c.html#a9a915ea950c831cee2f1e7b0a3bd9005" target="_top" xlink:title="searcher_C">
<polygon fill="none" stroke="black" points="547.5,-375.5 547.5,-394.5 612.5,-394.5 612.5,-375.5 547.5,-375.5"/>
<text text-anchor="middle" x="580" y="-382.5" font-family="Helvetica,sans-Serif" font-size="10.00">searcher_C</text>
</a>
</g>
</g>
<!-- Node9&#45;&gt;Node13 -->
<g id="edge12" class="edge"><title>Node9&#45;&gt;Node13</title>
<path fill="none" stroke="midnightblue" d="M498.335,-385C513.434,-385 531.772,-385 547.145,-385"/>
<polygon fill="midnightblue" stroke="midnightblue" points="498.001,-381.5 488.001,-385 498.001,-388.5 498.001,-381.5"/>
</g>
<!-- Node14 -->
<g id="node14" class="node"><title>Node14</title>
<g id="a_node14"><a xlink:href="../../d2/d82/loadlib_8c.html#a1ec05cd98a045c271aeda9f9c6041e1c" target="_top" xlink:title="searcher_Croot">
<polygon fill="none" stroke="black" points="540,-413.5 540,-432.5 620,-432.5 620,-413.5 540,-413.5"/>
<text text-anchor="middle" x="580" y="-420.5" font-family="Helvetica,sans-Serif" font-size="10.00">searcher_Croot</text>
</a>
</g>
</g>
<!-- Node9&#45;&gt;Node14 -->
<g id="edge14" class="edge"><title>Node9&#45;&gt;Node14</title>
<path fill="none" stroke="midnightblue" d="M497.677,-395.034C514.171,-400.706 534.687,-407.761 550.986,-413.366"/>
<polygon fill="midnightblue" stroke="midnightblue" points="498.596,-391.648 488.001,-391.706 496.319,-398.268 498.596,-391.648"/>
</g>
<!-- Node11 -->
<g id="node11" class="node"><title>Node11</title>
<g id="a_node11"><a xlink:href="../../d2/d82/loadlib_8c.html#a8fc66c8b852ee2960dc20797521d1d9e" target="_top" xlink:title="createsearcherstable">
<polygon fill="none" stroke="black" points="656,-384.5 656,-403.5 760,-403.5 760,-384.5 656,-384.5"/>
<text text-anchor="middle" x="708" y="-391.5" font-family="Helvetica,sans-Serif" font-size="10.00">createsearcherstable</text>
</a>
</g>
</g>
<!-- Node10&#45;&gt;Node11 -->
<g id="edge10" class="edge"><title>Node10&#45;&gt;Node11</title>
<path fill="none" stroke="midnightblue" d="M615.882,-360.011C636.536,-367.716 662.263,-377.312 681.107,-384.342"/>
<polygon fill="midnightblue" stroke="midnightblue" points="617.091,-356.727 606.498,-356.511 614.644,-363.285 617.091,-356.727"/>
</g>
<!-- Node12 -->
<g id="node12" class="node"><title>Node12</title>
<g id="a_node12"><a xlink:href="../../d6/d07/lualib_8h.html#a05e0befc0439f926b6152129ab4f8dea" target="_top" xlink:title="luaopen_package">
<polygon fill="none" stroke="black" points="796,-412.5 796,-431.5 890,-431.5 890,-412.5 796,-412.5"/>
<text text-anchor="middle" x="843" y="-419.5" font-family="Helvetica,sans-Serif" font-size="10.00">luaopen_package</text>
</a>
</g>
</g>
<!-- Node11&#45;&gt;Node12 -->
<g id="edge11" class="edge"><title>Node11&#45;&gt;Node12</title>
<path fill="none" stroke="midnightblue" d="M764.214,-405.624C775.065,-407.909 786.33,-410.28 796.806,-412.485"/>
<polygon fill="midnightblue" stroke="midnightblue" points="764.906,-402.193 754.399,-403.558 763.464,-409.043 764.906,-402.193"/>
</g>
<!-- Node13&#45;&gt;Node11 -->
<g id="edge13" class="edge"><title>Node13&#45;&gt;Node11</title>
<path fill="none" stroke="midnightblue" d="M622.921,-387.994C633.389,-388.742 644.735,-389.552 655.603,-390.329"/>
<polygon fill="midnightblue" stroke="midnightblue" points="623.019,-384.493 612.795,-387.271 622.52,-391.475 623.019,-384.493"/>
</g>
<!-- Node14&#45;&gt;Node11 -->
<g id="edge15" class="edge"><title>Node14&#45;&gt;Node11</title>
<path fill="none" stroke="midnightblue" d="M630.255,-411.663C641.969,-408.967 654.349,-406.118 665.667,-403.513"/>
<polygon fill="midnightblue" stroke="midnightblue" points="629.137,-408.329 620.177,-413.983 630.707,-415.151 629.137,-408.329"/>
</g>
<!-- Node15&#45;&gt;Node13 -->
<g id="edge17" class="edge"><title>Node15&#45;&gt;Node13</title>
<path fill="none" stroke="midnightblue" d="M503.325,-411.024C518.802,-405.702 536.768,-399.523 551.31,-394.522"/>
<polygon fill="midnightblue" stroke="midnightblue" points="501.892,-407.815 493.574,-414.377 504.169,-414.435 501.892,-407.815"/>
</g>
<!-- Node15&#45;&gt;Node14 -->
<g id="edge18" class="edge"><title>Node15&#45;&gt;Node14</title>
<path fill="none" stroke="midnightblue" d="M503.669,-423C515.145,-423 527.96,-423 539.719,-423"/>
<polygon fill="midnightblue" stroke="midnightblue" points="503.574,-419.5 493.574,-423 503.574,-426.5 503.574,-419.5"/>
</g>
<!-- Node16&#45;&gt;Node12 -->
<g id="edge20" class="edge"><title>Node16&#45;&gt;Node12</title>
<path fill="none" stroke="midnightblue" d="M742.736,-443.644C759.599,-439.967 780.207,-435.474 798.268,-431.536"/>
<polygon fill="midnightblue" stroke="midnightblue" points="741.803,-440.265 732.778,-445.815 743.294,-447.105 741.803,-440.265"/>
</g>
<!-- Node18 -->
<g id="node18" class="node"><title>Node18</title>
<g id="a_node18"><a xlink:href="../../dc/d77/lstrlib_8c.html#ae26a9374857058119e59d0328208c2f2" target="_top" xlink:title="str_format">
<polygon fill="none" stroke="black" points="334,-313.5 334,-332.5 391,-332.5 391,-313.5 334,-313.5"/>
<text text-anchor="middle" x="362.5" y="-320.5" font-family="Helvetica,sans-Serif" font-size="10.00">str_format</text>
</a>
</g>
</g>
<!-- Node17&#45;&gt;Node18 -->
<g id="edge22" class="edge"><title>Node17&#45;&gt;Node18</title>
<path fill="none" stroke="midnightblue" d="M286.285,-374.686C305.137,-361.731 331.567,-343.569 347.557,-332.582"/>
<polygon fill="midnightblue" stroke="midnightblue" points="284.229,-371.852 277.969,-380.401 288.193,-377.622 284.229,-371.852"/>
</g>
<!-- Node19&#45;&gt;Node2 -->
<g id="edge27" class="edge"><title>Node19&#45;&gt;Node2</title>
<path fill="none" stroke="midnightblue" d="M176.992,-222.067C191.906,-210.364 212.913,-194.261 232,-181 236.557,-177.834 241.617,-174.546 246.264,-171.613"/>
<polygon fill="midnightblue" stroke="midnightblue" points="174.656,-219.452 168.975,-228.395 178.993,-224.946 174.656,-219.452"/>
</g>
<!-- Node19&#45;&gt;Node3 -->
<g id="edge28" class="edge"><title>Node19&#45;&gt;Node3</title>
<path fill="none" stroke="midnightblue" d="M206.07,-237.79C233.031,-236.079 266.484,-231.272 294,-219 318.934,-207.879 341.828,-184.666 353.464,-171.553"/>
<polygon fill="midnightblue" stroke="midnightblue" points="205.888,-234.295 196.08,-238.303 206.247,-241.286 205.888,-234.295"/>
</g>
<!-- Node19&#45;&gt;Node7 -->
<g id="edge24" class="edge"><title>Node19&#45;&gt;Node7</title>
<path fill="none" stroke="midnightblue" d="M170.561,-255.97C184.491,-273.506 207.541,-300.088 232,-318 264.278,-341.637 306.985,-360.006 334.356,-370.421"/>
<polygon fill="midnightblue" stroke="midnightblue" points="173.048,-253.467 164.149,-247.718 167.521,-257.762 173.048,-253.467"/>
</g>
<!-- Node19&#45;&gt;Node18 -->
<g id="edge29" class="edge"><title>Node19&#45;&gt;Node18</title>
<path fill="none" stroke="midnightblue" d="M174.298,-254.701C188.637,-267.616 210.143,-284.939 232,-295 265.118,-310.245 306.869,-317.346 333.867,-320.543"/>
<polygon fill="midnightblue" stroke="midnightblue" points="176.449,-251.923 166.735,-247.694 171.692,-257.058 176.449,-251.923"/>
</g>
<!-- Node20 -->
<g id="node20" class="node"><title>Node20</title>
<g id="a_node20"><a xlink:href="../../d2/d82/loadlib_8c.html#aeea4101591c7cab25273f4dfe7d811d6" target="_top" xlink:title="findloader">
<polygon fill="none" stroke="black" points="235,-266.5 235,-285.5 291,-285.5 291,-266.5 235,-266.5"/>
<text text-anchor="middle" x="263" y="-273.5" font-family="Helvetica,sans-Serif" font-size="10.00">findloader</text>
</a>
</g>
</g>
<!-- Node19&#45;&gt;Node20 -->
<g id="edge25" class="edge"><title>Node19&#45;&gt;Node20</title>
<path fill="none" stroke="midnightblue" d="M193.247,-251.118C207.135,-256.144 222.705,-261.779 235.513,-266.414"/>
<polygon fill="midnightblue" stroke="midnightblue" points="194.09,-247.701 183.496,-247.589 191.708,-254.283 194.09,-247.701"/>
</g>
<!-- Node22 -->
<g id="node22" class="node"><title>Node22</title>
<g id="a_node22"><a xlink:href="../../d0/da1/ltablib_8c.html#a4ea6cc51c099ea709c7755a49216f4d0" target="_top" xlink:title="addfield">
<polygon fill="none" stroke="black" points="238.5,-190.5 238.5,-209.5 287.5,-209.5 287.5,-190.5 238.5,-190.5"/>
<text text-anchor="middle" x="263" y="-197.5" font-family="Helvetica,sans-Serif" font-size="10.00">addfield</text>
</a>
</g>
</g>
<!-- Node19&#45;&gt;Node22 -->
<g id="edge30" class="edge"><title>Node19&#45;&gt;Node22</title>
<path fill="none" stroke="midnightblue" d="M193.006,-224.969C208.007,-219.54 225.007,-213.388 238.379,-208.549"/>
<polygon fill="midnightblue" stroke="midnightblue" points="191.708,-221.717 183.496,-228.411 194.09,-228.299 191.708,-221.717"/>
</g>
<!-- Node21 -->
<g id="node21" class="node"><title>Node21</title>
<g id="a_node21"><a xlink:href="../../d2/d82/loadlib_8c.html#a136874f5faa236dc52fb50109281e157" target="_top" xlink:title="ll_require">
<polygon fill="none" stroke="black" points="336.5,-266.5 336.5,-285.5 388.5,-285.5 388.5,-266.5 336.5,-266.5"/>
<text text-anchor="middle" x="362.5" y="-273.5" font-family="Helvetica,sans-Serif" font-size="10.00">ll_require</text>
</a>
</g>
</g>
<!-- Node20&#45;&gt;Node21 -->
<g id="edge26" class="edge"><title>Node20&#45;&gt;Node21</title>
<path fill="none" stroke="midnightblue" d="M301.207,-276C313.006,-276 325.763,-276 336.49,-276"/>
<polygon fill="midnightblue" stroke="midnightblue" points="301.159,-272.5 291.159,-276 301.159,-279.5 301.159,-272.5"/>
</g>
<!-- Node22&#45;&gt;Node23 -->
<g id="edge31" class="edge"><title>Node22&#45;&gt;Node23</title>
<path fill="none" stroke="midnightblue" d="M289.173,-184.724C290.84,-183.51 292.465,-182.263 294,-181 311.965,-166.218 311.875,-157.585 330,-143 334.18,-139.637 339.008,-136.435 343.609,-133.651"/>
<polygon fill="midnightblue" stroke="midnightblue" points="287.027,-181.949 280.702,-190.449 290.947,-187.749 287.027,-181.949"/>
</g>
<!-- Node26 -->
<g id="node26" class="node"><title>Node26</title>
<g id="a_node26"><a xlink:href="../../dc/d77/lstrlib_8c.html#abc94e3a13f1b6ddb2c9b20c9fd89e87f" target="_top" xlink:title="str_dump">
<polygon fill="none" stroke="black" points="235,-0.5 235,-19.5 291,-19.5 291,-0.5 235,-0.5"/>
<text text-anchor="middle" x="263" y="-7.5" font-family="Helvetica,sans-Serif" font-size="10.00">str_dump</text>
</a>
</g>
</g>
<!-- Node25&#45;&gt;Node26 -->
<g id="edge37" class="edge"><title>Node25&#45;&gt;Node26</title>
<path fill="none" stroke="midnightblue" d="M185.291,-10C200.689,-10 219.643,-10 234.857,-10"/>
<polygon fill="midnightblue" stroke="midnightblue" points="185.29,-6.5001 175.29,-10 185.29,-13.5001 185.29,-6.5001"/>
</g>
</g>
</svg>
