<?xml version="1.0" encoding="UTF-8" standalone="no"?>
<!DOCTYPE svg PUBLIC "-//W3C//DTD SVG 1.1//EN"
 "http://www.w3.org/Graphics/SVG/1.1/DTD/svg11.dtd">
<!-- Generated by graphviz version 2.38.0 (20140413.2041)
 -->
<!-- Title: luaL_requiref Pages: 1 -->
<svg width="783pt" height="149pt"
 viewBox="0.00 0.00 783.00 148.50" xmlns="http://www.w3.org/2000/svg" xmlns:xlink="http://www.w3.org/1999/xlink">
<g id="graph0" class="graph" transform="scale(1 1) rotate(0) translate(4 144.5)">
<title>luaL_requiref</title>
<!-- Node1 -->
<g id="node1" class="node"><title>Node1</title>
<polygon fill="#bfbfbf" stroke="black" points="0,-55 0,-74 69,-74 69,-55 0,-55"/>
<text text-anchor="middle" x="34.5" y="-62" font-family="Helvetica,sans-Serif" font-size="10.00">luaL_requiref</text>
</g>
<!-- Node2 -->
<g id="node2" class="node"><title>Node2</title>
<g id="a_node2"><a xlink:href="../../d6/d07/lualib_8h.html#a3744dadc460fb2a20df474eef4d4253d" target="_top" xlink:title="luaL_openlibs">
<polygon fill="none" stroke="black" points="105,-55 105,-74 181,-74 181,-55 105,-55"/>
<text text-anchor="middle" x="143" y="-62" font-family="Helvetica,sans-Serif" font-size="10.00">luaL_openlibs</text>
</a>
</g>
</g>
<!-- Node1&#45;&gt;Node2 -->
<g id="edge1" class="edge"><title>Node1&#45;&gt;Node2</title>
<path fill="none" stroke="midnightblue" d="M79.3105,-64.5C87.7849,-64.5 96.5887,-64.5 104.826,-64.5"/>
<polygon fill="midnightblue" stroke="midnightblue" points="79.1973,-61.0001 69.1973,-64.5 79.1972,-68.0001 79.1973,-61.0001"/>
</g>
<!-- Node3 -->
<g id="node3" class="node"><title>Node3</title>
<g id="a_node3"><a xlink:href="../../dc/de7/interface_kensho_lua_wrapper.html#a7d10aa0242861cdd109d3da9383882a2" target="_top" xlink:title="&#45;[KenshoLuaWrapper\l evaluate]">
<polygon fill="none" stroke="black" points="217,-49.5 217,-79.5 326,-79.5 326,-49.5 217,-49.5"/>
<text text-anchor="start" x="225" y="-67.5" font-family="Helvetica,sans-Serif" font-size="10.00">&#45;[KenshoLuaWrapper</text>
<text text-anchor="middle" x="271.5" y="-56.5" font-family="Helvetica,sans-Serif" font-size="10.00"> evaluate]</text>
</a>
</g>
</g>
<!-- Node2&#45;&gt;Node3 -->
<g id="edge2" class="edge"><title>Node2&#45;&gt;Node3</title>
<path fill="none" stroke="midnightblue" d="M191.431,-64.5C199.649,-64.5 208.248,-64.5 216.623,-64.5"/>
<polygon fill="midnightblue" stroke="midnightblue" points="191.27,-61.0001 181.27,-64.5 191.27,-68.0001 191.27,-61.0001"/>
</g>
<!-- Node4 -->
<g id="node4" class="node"><title>Node4</title>
<g id="a_node4"><a xlink:href="../../dc/de7/interface_kensho_lua_wrapper.html#af6db46358f8858a18b55388aa3af211d" target="_top" xlink:title="&#45;[KenshoLuaWrapper\l initWithKensho:context\l:code:]">
<polygon fill="none" stroke="black" points="362,-99 362,-140 476,-140 476,-99 362,-99"/>
<text text-anchor="start" x="370" y="-128" font-family="Helvetica,sans-Serif" font-size="10.00">&#45;[KenshoLuaWrapper</text>
<text text-anchor="start" x="370" y="-117" font-family="Helvetica,sans-Serif" font-size="10.00"> initWithKensho:context</text>
<text text-anchor="middle" x="419" y="-106" font-family="Helvetica,sans-Serif" font-size="10.00">:code:]</text>
</a>
</g>
</g>
<!-- Node3&#45;&gt;Node4 -->
<g id="edge3" class="edge"><title>Node3&#45;&gt;Node4</title>
<path fill="none" stroke="midnightblue" d="M321.799,-83.1353C335.233,-88.2134 349.861,-93.743 363.563,-98.9223"/>
<polygon fill="midnightblue" stroke="midnightblue" points="322.85,-79.791 312.259,-79.529 320.375,-86.3388 322.85,-79.791"/>
</g>
<!-- Node5 -->
<g id="node5" class="node"><title>Node5</title>
<g id="a_node5"><a xlink:href="../../dc/de7/interface_kensho_lua_wrapper.html#a5555e0979799446611baee70104555c6" target="_top" xlink:title="&#45;[KenshoLuaWrapper\l evaluate:]">
<polygon fill="none" stroke="black" points="364.5,-49.5 364.5,-79.5 473.5,-79.5 473.5,-49.5 364.5,-49.5"/>
<text text-anchor="start" x="372.5" y="-67.5" font-family="Helvetica,sans-Serif" font-size="10.00">&#45;[KenshoLuaWrapper</text>
<text text-anchor="middle" x="419" y="-56.5" font-family="Helvetica,sans-Serif" font-size="10.00"> evaluate:]</text>
</a>
</g>
</g>
<!-- Node3&#45;&gt;Node5 -->
<g id="edge4" class="edge"><title>Node3&#45;&gt;Node5</title>
<path fill="none" stroke="midnightblue" d="M336.339,-64.5C345.723,-64.5 355.307,-64.5 364.456,-64.5"/>
<polygon fill="midnightblue" stroke="midnightblue" points="336.265,-61.0001 326.265,-64.5 336.265,-68.0001 336.265,-61.0001"/>
</g>
<!-- Node8 -->
<g id="node8" class="node"><title>Node8</title>
<g id="a_node8"><a xlink:href="../../dc/de7/interface_kensho_lua_wrapper.html#a0bb5e125d727942726d707f8b59009dc" target="_top" xlink:title="&#45;[KenshoLuaWrapper\l observableUpdated:]">
<polygon fill="none" stroke="black" points="364.5,-0.5 364.5,-30.5 473.5,-30.5 473.5,-0.5 364.5,-0.5"/>
<text text-anchor="start" x="372.5" y="-18.5" font-family="Helvetica,sans-Serif" font-size="10.00">&#45;[KenshoLuaWrapper</text>
<text text-anchor="middle" x="419" y="-7.5" font-family="Helvetica,sans-Serif" font-size="10.00"> observableUpdated:]</text>
</a>
</g>
</g>
<!-- Node3&#45;&gt;Node8 -->
<g id="edge8" class="edge"><title>Node3&#45;&gt;Node8</title>
<path fill="none" stroke="midnightblue" d="M327.153,-46.0945C342.376,-40.9678 358.729,-35.4608 373.306,-30.5516"/>
<polygon fill="midnightblue" stroke="midnightblue" points="325.702,-42.89 317.342,-49.3986 327.936,-49.5239 325.702,-42.89"/>
</g>
<!-- Node6 -->
<g id="node6" class="node"><title>Node6</title>
<g id="a_node6"><a xlink:href="../../da/d0b/interface_kensho.html#a07b4d14db676108e1a94a1f10e100fb4" target="_top" xlink:title="&#45;[Kensho bindToView\l:context:]">
<polygon fill="none" stroke="black" points="512,-49.5 512,-79.5 620,-79.5 620,-49.5 512,-49.5"/>
<text text-anchor="start" x="520" y="-67.5" font-family="Helvetica,sans-Serif" font-size="10.00">&#45;[Kensho bindToView</text>
<text text-anchor="middle" x="566" y="-56.5" font-family="Helvetica,sans-Serif" font-size="10.00">:context:]</text>
</a>
</g>
</g>
<!-- Node5&#45;&gt;Node6 -->
<g id="edge5" class="edge"><title>Node5&#45;&gt;Node6</title>
<path fill="none" stroke="midnightblue" d="M483.62,-64.5C492.971,-64.5 502.523,-64.5 511.64,-64.5"/>
<polygon fill="midnightblue" stroke="midnightblue" points="483.581,-61.0001 473.581,-64.5 483.581,-68.0001 483.581,-61.0001"/>
</g>
<!-- Node6&#45;&gt;Node6 -->
<g id="edge7" class="edge"><title>Node6&#45;&gt;Node6</title>
<path fill="none" stroke="midnightblue" d="M540.058,-89.9579C543.277,-94.679 551.925,-98 566,-98 589.098,-98 597.579,-89.0566 591.444,-79.659"/>
<polygon fill="midnightblue" stroke="midnightblue" points="543.568,-89.8167 540.556,-79.659 536.577,-89.4779 543.568,-89.8167"/>
</g>
<!-- Node7 -->
<g id="node7" class="node"><title>Node7</title>
<g id="a_node7"><a xlink:href="../../da/d0b/interface_kensho.html#a1019e8223ee907bab87501ae483e609f" target="_top" xlink:title="&#45;[Kensho applyBindings\l:viewModel:]">
<polygon fill="none" stroke="black" points="656,-49.5 656,-79.5 775,-79.5 775,-49.5 656,-49.5"/>
<text text-anchor="start" x="664" y="-67.5" font-family="Helvetica,sans-Serif" font-size="10.00">&#45;[Kensho applyBindings</text>
<text text-anchor="middle" x="715.5" y="-56.5" font-family="Helvetica,sans-Serif" font-size="10.00">:viewModel:]</text>
</a>
</g>
</g>
<!-- Node6&#45;&gt;Node7 -->
<g id="edge6" class="edge"><title>Node6&#45;&gt;Node7</title>
<path fill="none" stroke="midnightblue" d="M630.421,-64.5C638.859,-64.5 647.481,-64.5 655.833,-64.5"/>
<polygon fill="midnightblue" stroke="midnightblue" points="630.251,-61.0001 620.251,-64.5 630.251,-68.0001 630.251,-61.0001"/>
</g>
</g>
</svg>
