<?xml version="1.0" encoding="UTF-8" standalone="no"?>
<!DOCTYPE svg PUBLIC "-//W3C//DTD SVG 1.1//EN"
 "http://www.w3.org/Graphics/SVG/1.1/DTD/svg11.dtd">
<!-- Generated by graphviz version 2.38.0 (20140413.2041)
 -->
<!-- Title: luaL_prepbuffsize Pages: 1 -->
<svg width="1029pt" height="712pt"
 viewBox="0.00 0.00 1029.00 712.00" xmlns="http://www.w3.org/2000/svg" xmlns:xlink="http://www.w3.org/1999/xlink">
<g id="graph0" class="graph" transform="scale(1 1) rotate(0) translate(4 708)">
<title>luaL_prepbuffsize</title>
<!-- Node1 -->
<g id="node1" class="node"><title>Node1</title>
<polygon fill="#bfbfbf" stroke="black" points="0,-171.5 0,-190.5 92,-190.5 92,-171.5 0,-171.5"/>
<text text-anchor="middle" x="46" y="-178.5" font-family="Helvetica,sans-Serif" font-size="10.00">luaL_prepbuffsize</text>
</g>
<!-- Node2 -->
<g id="node2" class="node"><title>Node2</title>
<g id="a_node2"><a xlink:href="../../da/d29/lauxlib_8h.html#a06fceedb3abb1272566ca22c96e34b95" target="_top" xlink:title="luaL_addlstring">
<polygon fill="none" stroke="black" points="129.5,-437.5 129.5,-456.5 209.5,-456.5 209.5,-437.5 129.5,-437.5"/>
<text text-anchor="middle" x="169.5" y="-444.5" font-family="Helvetica,sans-Serif" font-size="10.00">luaL_addlstring</text>
</a>
</g>
</g>
<!-- Node1&#45;&gt;Node2 -->
<g id="edge1" class="edge"><title>Node1&#45;&gt;Node2</title>
<path fill="none" stroke="midnightblue" d="M55.6722,-199.986C79.6743,-252.534 146.378,-398.568 164.119,-437.409"/>
<polygon fill="midnightblue" stroke="midnightblue" points="58.8068,-198.424 51.4683,-190.783 52.4396,-201.333 58.8068,-198.424"/>
</g>
<!-- Node16 -->
<g id="node16" class="node"><title>Node16</title>
<g id="a_node16"><a xlink:href="../../dc/d77/lstrlib_8c.html#ae26a9374857058119e59d0328208c2f2" target="_top" xlink:title="str_format">
<polygon fill="none" stroke="black" points="465,-684.5 465,-703.5 522,-703.5 522,-684.5 465,-684.5"/>
<text text-anchor="middle" x="493.5" y="-691.5" font-family="Helvetica,sans-Serif" font-size="10.00">str_format</text>
</a>
</g>
</g>
<!-- Node1&#45;&gt;Node16 -->
<g id="edge55" class="edge"><title>Node1&#45;&gt;Node16</title>
<path fill="none" stroke="midnightblue" d="M48.7237,-201.019C56.2517,-275.102 93.1471,-535.627 247,-656 311.539,-706.495 415.51,-702.968 464.83,-697.794"/>
<polygon fill="midnightblue" stroke="midnightblue" points="52.1814,-200.405 47.7543,-190.779 45.2125,-201.065 52.1814,-200.405"/>
</g>
<!-- Node28 -->
<g id="node28" class="node"><title>Node28</title>
<g id="a_node28"><a xlink:href="../../da/d29/lauxlib_8h.html#ab8f18fe563cab9ea411ae84d2c1c2518" target="_top" xlink:title="luaL_buffinitsize">
<polygon fill="none" stroke="black" points="128,-171.5 128,-190.5 211,-190.5 211,-171.5 128,-171.5"/>
<text text-anchor="middle" x="169.5" y="-178.5" font-family="Helvetica,sans-Serif" font-size="10.00">luaL_buffinitsize</text>
</a>
</g>
</g>
<!-- Node1&#45;&gt;Node28 -->
<g id="edge39" class="edge"><title>Node1&#45;&gt;Node28</title>
<path fill="none" stroke="midnightblue" d="M102.464,-181C110.936,-181 119.547,-181 127.63,-181"/>
<polygon fill="midnightblue" stroke="midnightblue" points="102.242,-177.5 92.2421,-181 102.242,-184.5 102.242,-177.5"/>
</g>
<!-- Node34 -->
<g id="node34" class="node"><title>Node34</title>
<g id="a_node34"><a xlink:href="../../de/df3/liolib_8c.html#a48a16089fed2e802a76635a3f8bfe8e3" target="_top" xlink:title="read_all">
<polygon fill="none" stroke="black" points="144.5,-67.5 144.5,-86.5 194.5,-86.5 194.5,-67.5 144.5,-67.5"/>
<text text-anchor="middle" x="169.5" y="-74.5" font-family="Helvetica,sans-Serif" font-size="10.00">read_all</text>
</a>
</g>
</g>
<!-- Node1&#45;&gt;Node34 -->
<g id="edge45" class="edge"><title>Node1&#45;&gt;Node34</title>
<path fill="none" stroke="midnightblue" d="M64.021,-163.608C79.961,-147.672 104.747,-123.774 128,-105 136.114,-98.4488 145.692,-91.7826 153.497,-86.5988"/>
<polygon fill="midnightblue" stroke="midnightblue" points="61.1019,-161.581 56.5466,-171.147 66.0728,-166.51 61.1019,-161.581"/>
</g>
<!-- Node42 -->
<g id="node42" class="node"><title>Node42</title>
<g id="a_node42"><a xlink:href="../../de/df3/liolib_8c.html#a6735c0513432f83bfa1b88b056ab379b" target="_top" xlink:title="read_chars">
<polygon fill="none" stroke="black" points="137.5,-114.5 137.5,-133.5 201.5,-133.5 201.5,-114.5 137.5,-114.5"/>
<text text-anchor="middle" x="169.5" y="-121.5" font-family="Helvetica,sans-Serif" font-size="10.00">read_chars</text>
</a>
</g>
</g>
<!-- Node1&#45;&gt;Node42 -->
<g id="edge53" class="edge"><title>Node1&#45;&gt;Node42</title>
<path fill="none" stroke="midnightblue" d="M76.6227,-167.103C98.7913,-156.703 128.537,-142.748 148.097,-133.572"/>
<polygon fill="midnightblue" stroke="midnightblue" points="74.9031,-164.044 67.3364,-171.459 77.8762,-170.381 74.9031,-164.044"/>
</g>
<!-- Node3 -->
<g id="node3" class="node"><title>Node3</title>
<g id="a_node3"><a xlink:href="../../da/d29/lauxlib_8h.html#ad9c038f6e108e216011aca1801f84f44" target="_top" xlink:title="luaL_addstring">
<polygon fill="none" stroke="black" points="248,-627.5 248,-646.5 326,-646.5 326,-627.5 248,-627.5"/>
<text text-anchor="middle" x="287" y="-634.5" font-family="Helvetica,sans-Serif" font-size="10.00">luaL_addstring</text>
</a>
</g>
</g>
<!-- Node2&#45;&gt;Node3 -->
<g id="edge2" class="edge"><title>Node2&#45;&gt;Node3</title>
<path fill="none" stroke="midnightblue" d="M175.48,-466.588C184.77,-499.929 207.465,-568.42 247,-613 252.064,-618.71 258.814,-623.513 265.274,-627.285"/>
<polygon fill="midnightblue" stroke="midnightblue" points="178.804,-465.47 172.839,-456.714 172.042,-467.279 178.804,-465.47"/>
</g>
<!-- Node4 -->
<g id="node4" class="node"><title>Node4</title>
<g id="a_node4"><a xlink:href="../../da/d29/lauxlib_8h.html#a46672be75da57e1a464c5c6d80f19064" target="_top" xlink:title="luaL_gsub">
<polygon fill="none" stroke="black" points="363,-589.5 363,-608.5 425,-608.5 425,-589.5 363,-589.5"/>
<text text-anchor="middle" x="394" y="-596.5" font-family="Helvetica,sans-Serif" font-size="10.00">luaL_gsub</text>
</a>
</g>
</g>
<!-- Node2&#45;&gt;Node4 -->
<g id="edge32" class="edge"><title>Node2&#45;&gt;Node4</title>
<path fill="none" stroke="midnightblue" d="M176.252,-466.364C185.869,-495.111 208.094,-548.525 247,-575 281.616,-598.556 331.341,-601.845 362.9,-601.125"/>
<polygon fill="midnightblue" stroke="midnightblue" points="179.534,-465.135 173.175,-456.661 172.862,-467.251 179.534,-465.135"/>
</g>
<!-- Node17 -->
<g id="node17" class="node"><title>Node17</title>
<g id="a_node17"><a xlink:href="../../da/d29/lauxlib_8h.html#aeeb03d69681da0ec0e952b582ce3841c" target="_top" xlink:title="luaL_addvalue">
<polygon fill="none" stroke="black" points="247,-437.5 247,-456.5 327,-456.5 327,-437.5 247,-437.5"/>
<text text-anchor="middle" x="287" y="-444.5" font-family="Helvetica,sans-Serif" font-size="10.00">luaL_addvalue</text>
</a>
</g>
</g>
<!-- Node2&#45;&gt;Node17 -->
<g id="edge21" class="edge"><title>Node2&#45;&gt;Node17</title>
<path fill="none" stroke="midnightblue" d="M219.703,-447C228.802,-447 238.19,-447 246.937,-447"/>
<polygon fill="midnightblue" stroke="midnightblue" points="219.603,-443.5 209.603,-447 219.603,-450.5 219.603,-443.5"/>
</g>
<!-- Node20 -->
<g id="node20" class="node"><title>Node20</title>
<g id="a_node20"><a xlink:href="../../dc/d77/lstrlib_8c.html#ad5f7e3fbcadc8825f7f650ecf458fc72" target="_top" xlink:title="add_s">
<polygon fill="none" stroke="black" points="372,-323.5 372,-342.5 416,-342.5 416,-323.5 372,-323.5"/>
<text text-anchor="middle" x="394" y="-330.5" font-family="Helvetica,sans-Serif" font-size="10.00">add_s</text>
</a>
</g>
</g>
<!-- Node2&#45;&gt;Node20 -->
<g id="edge36" class="edge"><title>Node2&#45;&gt;Node20</title>
<path fill="none" stroke="midnightblue" d="M180.696,-428.546C193.341,-407.553 216.95,-373.991 247,-357 286.913,-334.432 342.148,-331.667 371.934,-332.062"/>
<polygon fill="midnightblue" stroke="midnightblue" points="177.517,-427.051 175.531,-437.458 183.574,-430.561 177.517,-427.051"/>
</g>
<!-- Node22 -->
<g id="node22" class="node"><title>Node22</title>
<g id="a_node22"><a xlink:href="../../dc/d77/lstrlib_8c.html#a42337c674d265175bcc2b2f3809c7339" target="_top" xlink:title="str_gsub">
<polygon fill="none" stroke="black" points="572,-447.5 572,-466.5 625,-466.5 625,-447.5 572,-447.5"/>
<text text-anchor="middle" x="598.5" y="-454.5" font-family="Helvetica,sans-Serif" font-size="10.00">str_gsub</text>
</a>
</g>
</g>
<!-- Node2&#45;&gt;Node22 -->
<g id="edge37" class="edge"><title>Node2&#45;&gt;Node22</title>
<path fill="none" stroke="midnightblue" d="M186.322,-463.689C200.652,-477.498 223.124,-496.083 247,-504 364.698,-543.027 407.205,-539.548 526,-504 550.193,-496.76 573.785,-478.41 586.905,-466.898"/>
<polygon fill="midnightblue" stroke="midnightblue" points="188.787,-461.204 179.242,-456.607 183.837,-466.154 188.787,-461.204"/>
</g>
<!-- Node24 -->
<g id="node24" class="node"><title>Node24</title>
<g id="a_node24"><a xlink:href="../../d0/da1/ltablib_8c.html#add6973c515a288f41265aca8e0ae6412" target="_top" xlink:title="tconcat">
<polygon fill="none" stroke="black" points="470,-437.5 470,-456.5 517,-456.5 517,-437.5 470,-437.5"/>
<text text-anchor="middle" x="493.5" y="-444.5" font-family="Helvetica,sans-Serif" font-size="10.00">tconcat</text>
</a>
</g>
</g>
<!-- Node2&#45;&gt;Node24 -->
<g id="edge38" class="edge"><title>Node2&#45;&gt;Node24</title>
<path fill="none" stroke="midnightblue" d="M211.198,-434.944C222.671,-432.08 235.233,-429.439 247,-428 325.526,-418.394 346.632,-417.181 425,-428 440.195,-430.098 456.785,-434.733 469.714,-438.9"/>
<polygon fill="midnightblue" stroke="midnightblue" points="210.233,-431.579 201.444,-437.495 212.004,-438.351 210.233,-431.579"/>
</g>
<!-- Node25 -->
<g id="node25" class="node"><title>Node25</title>
<g id="a_node25"><a xlink:href="../../dc/dba/loslib_8c.html#a6520f2562b500aee87a6a475995adefb" target="_top" xlink:title="os_date">
<polygon fill="none" stroke="black" points="261.5,-475.5 261.5,-494.5 312.5,-494.5 312.5,-475.5 261.5,-475.5"/>
<text text-anchor="middle" x="287" y="-482.5" font-family="Helvetica,sans-Serif" font-size="10.00">os_date</text>
</a>
</g>
</g>
<!-- Node2&#45;&gt;Node25 -->
<g id="edge33" class="edge"><title>Node2&#45;&gt;Node25</title>
<path fill="none" stroke="midnightblue" d="M209.379,-459.791C226.488,-465.42 246.08,-471.866 261.169,-476.831"/>
<polygon fill="midnightblue" stroke="midnightblue" points="210.238,-456.39 199.646,-456.589 208.051,-463.039 210.238,-456.39"/>
</g>
<!-- Node26 -->
<g id="node26" class="node"><title>Node26</title>
<g id="a_node26"><a xlink:href="../../dc/d77/lstrlib_8c.html#ae67cb3a8aef2fe1be04d689cddf5d587" target="_top" xlink:title="writer">
<polygon fill="none" stroke="black" points="268,-285.5 268,-304.5 306,-304.5 306,-285.5 268,-285.5"/>
<text text-anchor="middle" x="287" y="-292.5" font-family="Helvetica,sans-Serif" font-size="10.00">writer</text>
</a>
</g>
</g>
<!-- Node2&#45;&gt;Node26 -->
<g id="edge34" class="edge"><title>Node2&#45;&gt;Node26</title>
<path fill="none" stroke="midnightblue" d="M178.397,-427.875C190.198,-401.048 214.567,-351.856 247,-319 252.92,-313.003 260.624,-307.857 267.62,-303.886"/>
<polygon fill="midnightblue" stroke="midnightblue" points="175.086,-426.714 174.372,-437.285 181.522,-429.467 175.086,-426.714"/>
</g>
<!-- Node3&#45;&gt;Node4 -->
<g id="edge3" class="edge"><title>Node3&#45;&gt;Node4</title>
<path fill="none" stroke="midnightblue" d="M324.247,-623.882C338.135,-618.856 353.705,-613.221 366.513,-608.586"/>
<polygon fill="midnightblue" stroke="midnightblue" points="322.708,-620.717 314.496,-627.411 325.09,-627.299 322.708,-620.717"/>
</g>
<!-- Node15 -->
<g id="node15" class="node"><title>Node15</title>
<g id="a_node15"><a xlink:href="../../dc/d77/lstrlib_8c.html#a95c31911812b88f7c4ab6ceb63a1e1e8" target="_top" xlink:title="addquoted">
<polygon fill="none" stroke="black" points="363,-665.5 363,-684.5 425,-684.5 425,-665.5 363,-665.5"/>
<text text-anchor="middle" x="394" y="-672.5" font-family="Helvetica,sans-Serif" font-size="10.00">addquoted</text>
</a>
</g>
</g>
<!-- Node3&#45;&gt;Node15 -->
<g id="edge19" class="edge"><title>Node3&#45;&gt;Node15</title>
<path fill="none" stroke="midnightblue" d="M324.247,-650.118C338.135,-655.144 353.705,-660.779 366.513,-665.414"/>
<polygon fill="midnightblue" stroke="midnightblue" points="325.09,-646.701 314.496,-646.589 322.708,-653.283 325.09,-646.701"/>
</g>
<!-- Node5 -->
<g id="node5" class="node"><title>Node5</title>
<g id="a_node5"><a xlink:href="../../d2/d82/loadlib_8c.html#a9aa5433859d896c2db1a7af366e04b65" target="_top" xlink:title="searchpath">
<polygon fill="none" stroke="black" points="461,-570.5 461,-589.5 526,-589.5 526,-570.5 461,-570.5"/>
<text text-anchor="middle" x="493.5" y="-577.5" font-family="Helvetica,sans-Serif" font-size="10.00">searchpath</text>
</a>
</g>
</g>
<!-- Node4&#45;&gt;Node5 -->
<g id="edge4" class="edge"><title>Node4&#45;&gt;Node5</title>
<path fill="none" stroke="midnightblue" d="M434.893,-591.226C443.485,-589.552 452.457,-587.803 460.692,-586.199"/>
<polygon fill="midnightblue" stroke="midnightblue" points="434.195,-587.796 425.049,-593.144 435.534,-594.667 434.195,-587.796"/>
</g>
<!-- Node13 -->
<g id="node13" class="node"><title>Node13</title>
<g id="a_node13"><a xlink:href="../../d2/d82/loadlib_8c.html#a91ac5b5231cf039af46226806dcc3884" target="_top" xlink:title="loadfunc">
<polygon fill="none" stroke="black" points="572.5,-608.5 572.5,-627.5 624.5,-627.5 624.5,-608.5 572.5,-608.5"/>
<text text-anchor="middle" x="598.5" y="-615.5" font-family="Helvetica,sans-Serif" font-size="10.00">loadfunc</text>
</a>
</g>
</g>
<!-- Node4&#45;&gt;Node13 -->
<g id="edge14" class="edge"><title>Node4&#45;&gt;Node13</title>
<path fill="none" stroke="midnightblue" d="M435.478,-602.798C476.339,-606.632 538.159,-612.432 572.416,-615.646"/>
<polygon fill="midnightblue" stroke="midnightblue" points="435.6,-599.294 425.316,-601.844 434.946,-606.263 435.6,-599.294"/>
</g>
<!-- Node14 -->
<g id="node14" class="node"><title>Node14</title>
<g id="a_node14"><a xlink:href="../../d2/d82/loadlib_8c.html#ab1293c9ab0fa766bfa927767d6ae543c" target="_top" xlink:title="setpath">
<polygon fill="none" stroke="black" points="814.5,-636.5 814.5,-655.5 863.5,-655.5 863.5,-636.5 814.5,-636.5"/>
<text text-anchor="middle" x="839" y="-643.5" font-family="Helvetica,sans-Serif" font-size="10.00">setpath</text>
</a>
</g>
</g>
<!-- Node4&#45;&gt;Node14 -->
<g id="edge17" class="edge"><title>Node4&#45;&gt;Node14</title>
<path fill="none" stroke="midnightblue" d="M428.312,-611.975C438.664,-615.635 450.196,-619.34 461,-622 591.231,-654.06 753.971,-650.214 814.178,-647.369"/>
<polygon fill="midnightblue" stroke="midnightblue" points="429.404,-608.648 418.81,-608.514 427.009,-615.225 429.404,-608.648"/>
</g>
<!-- Node6 -->
<g id="node6" class="node"><title>Node6</title>
<g id="a_node6"><a xlink:href="../../d2/d82/loadlib_8c.html#a3e9eb01c860846336b6f50d6c77448a2" target="_top" xlink:title="ll_searchpath">
<polygon fill="none" stroke="black" points="562,-570.5 562,-589.5 635,-589.5 635,-570.5 562,-570.5"/>
<text text-anchor="middle" x="598.5" y="-577.5" font-family="Helvetica,sans-Serif" font-size="10.00">ll_searchpath</text>
</a>
</g>
</g>
<!-- Node5&#45;&gt;Node6 -->
<g id="edge5" class="edge"><title>Node5&#45;&gt;Node6</title>
<path fill="none" stroke="midnightblue" d="M536.289,-580C544.724,-580 553.519,-580 561.725,-580"/>
<polygon fill="midnightblue" stroke="midnightblue" points="536.244,-576.5 526.244,-580 536.244,-583.5 536.244,-576.5"/>
</g>
<!-- Node7 -->
<g id="node7" class="node"><title>Node7</title>
<g id="a_node7"><a xlink:href="../../d2/d82/loadlib_8c.html#af8f7333f1a59f3d7aab8c9b79b7a4ab2" target="_top" xlink:title="findfile">
<polygon fill="none" stroke="black" points="578,-532.5 578,-551.5 619,-551.5 619,-532.5 578,-532.5"/>
<text text-anchor="middle" x="598.5" y="-539.5" font-family="Helvetica,sans-Serif" font-size="10.00">findfile</text>
</a>
</g>
</g>
<!-- Node5&#45;&gt;Node7 -->
<g id="edge6" class="edge"><title>Node5&#45;&gt;Node7</title>
<path fill="none" stroke="midnightblue" d="M530.066,-566.879C546.013,-560.995 564.221,-554.278 577.694,-549.307"/>
<polygon fill="midnightblue" stroke="midnightblue" points="528.662,-563.666 520.491,-570.411 531.085,-570.233 528.662,-563.666"/>
</g>
<!-- Node8 -->
<g id="node8" class="node"><title>Node8</title>
<g id="a_node8"><a xlink:href="../../d2/d82/loadlib_8c.html#a8b2f1d86fe37c0829143579a6b568243" target="_top" xlink:title="searcher_Lua">
<polygon fill="none" stroke="black" points="674,-532.5 674,-551.5 748,-551.5 748,-532.5 674,-532.5"/>
<text text-anchor="middle" x="711" y="-539.5" font-family="Helvetica,sans-Serif" font-size="10.00">searcher_Lua</text>
</a>
</g>
</g>
<!-- Node7&#45;&gt;Node8 -->
<g id="edge7" class="edge"><title>Node7&#45;&gt;Node8</title>
<path fill="none" stroke="midnightblue" d="M629.315,-542C642.997,-542 659.341,-542 673.73,-542"/>
<polygon fill="midnightblue" stroke="midnightblue" points="629.001,-538.5 619.001,-542 629.001,-545.5 629.001,-538.5"/>
</g>
<!-- Node11 -->
<g id="node11" class="node"><title>Node11</title>
<g id="a_node11"><a xlink:href="../../d2/d82/loadlib_8c.html#a9a915ea950c831cee2f1e7b0a3bd9005" target="_top" xlink:title="searcher_C">
<polygon fill="none" stroke="black" points="678.5,-570.5 678.5,-589.5 743.5,-589.5 743.5,-570.5 678.5,-570.5"/>
<text text-anchor="middle" x="711" y="-577.5" font-family="Helvetica,sans-Serif" font-size="10.00">searcher_C</text>
</a>
</g>
</g>
<!-- Node7&#45;&gt;Node11 -->
<g id="edge10" class="edge"><title>Node7&#45;&gt;Node11</title>
<path fill="none" stroke="midnightblue" d="M628.677,-552.034C645.171,-557.706 665.687,-564.761 681.986,-570.366"/>
<polygon fill="midnightblue" stroke="midnightblue" points="629.596,-548.648 619.001,-548.706 627.319,-555.268 629.596,-548.648"/>
</g>
<!-- Node12 -->
<g id="node12" class="node"><title>Node12</title>
<g id="a_node12"><a xlink:href="../../d2/d82/loadlib_8c.html#a1ec05cd98a045c271aeda9f9c6041e1c" target="_top" xlink:title="searcher_Croot">
<polygon fill="none" stroke="black" points="671,-608.5 671,-627.5 751,-627.5 751,-608.5 671,-608.5"/>
<text text-anchor="middle" x="711" y="-615.5" font-family="Helvetica,sans-Serif" font-size="10.00">searcher_Croot</text>
</a>
</g>
</g>
<!-- Node7&#45;&gt;Node12 -->
<g id="edge12" class="edge"><title>Node7&#45;&gt;Node12</title>
<path fill="none" stroke="midnightblue" d="M628.361,-556.406C630.666,-557.867 632.909,-559.404 635,-561 653.493,-575.115 652.241,-585.24 671,-599 675.858,-602.564 681.489,-605.756 686.934,-608.46"/>
<polygon fill="midnightblue" stroke="midnightblue" points="629.757,-553.17 619.351,-551.183 626.247,-559.226 629.757,-553.17"/>
</g>
<!-- Node9 -->
<g id="node9" class="node"><title>Node9</title>
<g id="a_node9"><a xlink:href="../../d2/d82/loadlib_8c.html#a8fc66c8b852ee2960dc20797521d1d9e" target="_top" xlink:title="createsearcherstable">
<polygon fill="none" stroke="black" points="787,-579.5 787,-598.5 891,-598.5 891,-579.5 787,-579.5"/>
<text text-anchor="middle" x="839" y="-586.5" font-family="Helvetica,sans-Serif" font-size="10.00">createsearcherstable</text>
</a>
</g>
</g>
<!-- Node8&#45;&gt;Node9 -->
<g id="edge8" class="edge"><title>Node8&#45;&gt;Node9</title>
<path fill="none" stroke="midnightblue" d="M746.882,-555.011C767.536,-562.716 793.263,-572.312 812.107,-579.342"/>
<polygon fill="midnightblue" stroke="midnightblue" points="748.091,-551.727 737.498,-551.511 745.644,-558.285 748.091,-551.727"/>
</g>
<!-- Node10 -->
<g id="node10" class="node"><title>Node10</title>
<g id="a_node10"><a xlink:href="../../d6/d07/lualib_8h.html#a05e0befc0439f926b6152129ab4f8dea" target="_top" xlink:title="luaopen_package">
<polygon fill="none" stroke="black" points="927,-607.5 927,-626.5 1021,-626.5 1021,-607.5 927,-607.5"/>
<text text-anchor="middle" x="974" y="-614.5" font-family="Helvetica,sans-Serif" font-size="10.00">luaopen_package</text>
</a>
</g>
</g>
<!-- Node9&#45;&gt;Node10 -->
<g id="edge9" class="edge"><title>Node9&#45;&gt;Node10</title>
<path fill="none" stroke="midnightblue" d="M895.214,-600.624C906.065,-602.909 917.33,-605.28 927.806,-607.485"/>
<polygon fill="midnightblue" stroke="midnightblue" points="895.906,-597.193 885.399,-598.558 894.464,-604.043 895.906,-597.193"/>
</g>
<!-- Node11&#45;&gt;Node9 -->
<g id="edge11" class="edge"><title>Node11&#45;&gt;Node9</title>
<path fill="none" stroke="midnightblue" d="M753.921,-582.994C764.389,-583.742 775.735,-584.552 786.603,-585.329"/>
<polygon fill="midnightblue" stroke="midnightblue" points="754.019,-579.493 743.795,-582.271 753.52,-586.475 754.019,-579.493"/>
</g>
<!-- Node12&#45;&gt;Node9 -->
<g id="edge13" class="edge"><title>Node12&#45;&gt;Node9</title>
<path fill="none" stroke="midnightblue" d="M761.255,-606.663C772.969,-603.967 785.349,-601.118 796.667,-598.513"/>
<polygon fill="midnightblue" stroke="midnightblue" points="760.137,-603.329 751.177,-608.983 761.707,-610.151 760.137,-603.329"/>
</g>
<!-- Node13&#45;&gt;Node11 -->
<g id="edge15" class="edge"><title>Node13&#45;&gt;Node11</title>
<path fill="none" stroke="midnightblue" d="M634.325,-606.024C649.802,-600.702 667.768,-594.523 682.31,-589.522"/>
<polygon fill="midnightblue" stroke="midnightblue" points="632.892,-602.815 624.574,-609.377 635.169,-609.435 632.892,-602.815"/>
</g>
<!-- Node13&#45;&gt;Node12 -->
<g id="edge16" class="edge"><title>Node13&#45;&gt;Node12</title>
<path fill="none" stroke="midnightblue" d="M634.669,-618C646.145,-618 658.96,-618 670.719,-618"/>
<polygon fill="midnightblue" stroke="midnightblue" points="634.574,-614.5 624.574,-618 634.574,-621.5 634.574,-614.5"/>
</g>
<!-- Node14&#45;&gt;Node10 -->
<g id="edge18" class="edge"><title>Node14&#45;&gt;Node10</title>
<path fill="none" stroke="midnightblue" d="M873.736,-638.644C890.599,-634.967 911.207,-630.474 929.268,-626.536"/>
<polygon fill="midnightblue" stroke="midnightblue" points="872.803,-635.265 863.778,-640.815 874.294,-642.105 872.803,-635.265"/>
</g>
<!-- Node15&#45;&gt;Node16 -->
<g id="edge20" class="edge"><title>Node15&#45;&gt;Node16</title>
<path fill="none" stroke="midnightblue" d="M435.152,-682.824C445.086,-684.76 455.513,-686.792 464.71,-688.585"/>
<polygon fill="midnightblue" stroke="midnightblue" points="435.534,-679.333 425.049,-680.856 434.195,-686.204 435.534,-679.333"/>
</g>
<!-- Node17&#45;&gt;Node5 -->
<g id="edge22" class="edge"><title>Node17&#45;&gt;Node5</title>
<path fill="none" stroke="midnightblue" d="M320.009,-461.395C322.439,-462.847 324.799,-464.385 327,-466 345.759,-479.76 344.787,-489.525 363,-504 398.509,-532.223 445.574,-557.19 472.081,-570.29"/>
<polygon fill="midnightblue" stroke="midnightblue" points="321.524,-458.235 311.066,-456.54 318.184,-464.387 321.524,-458.235"/>
</g>
<!-- Node17&#45;&gt;Node16 -->
<g id="edge29" class="edge"><title>Node17&#45;&gt;Node16</title>
<path fill="none" stroke="midnightblue" d="M323.923,-462.672C325.026,-463.716 326.059,-464.824 327,-466 370.384,-520.2 321.745,-562.163 363,-618 366.805,-623.15 441.067,-665.171 475.382,-684.426"/>
<polygon fill="midnightblue" stroke="midnightblue" points="325.944,-459.814 315.823,-456.681 321.782,-465.441 325.944,-459.814"/>
</g>
<!-- Node18 -->
<g id="node18" class="node"><title>Node18</title>
<g id="a_node18"><a xlink:href="../../d2/d82/loadlib_8c.html#aeea4101591c7cab25273f4dfe7d811d6" target="_top" xlink:title="findloader">
<polygon fill="none" stroke="black" points="366,-475.5 366,-494.5 422,-494.5 422,-475.5 366,-475.5"/>
<text text-anchor="middle" x="394" y="-482.5" font-family="Helvetica,sans-Serif" font-size="10.00">findloader</text>
</a>
</g>
</g>
<!-- Node17&#45;&gt;Node18 -->
<g id="edge23" class="edge"><title>Node17&#45;&gt;Node18</title>
<path fill="none" stroke="midnightblue" d="M324.247,-460.118C338.135,-465.144 353.705,-470.779 366.513,-475.414"/>
<polygon fill="midnightblue" stroke="midnightblue" points="325.09,-456.701 314.496,-456.589 322.708,-463.283 325.09,-456.701"/>
</g>
<!-- Node17&#45;&gt;Node20 -->
<g id="edge25" class="edge"><title>Node17&#45;&gt;Node20</title>
<path fill="none" stroke="midnightblue" d="M303.793,-429.853C326.146,-405.585 366.267,-362.025 384.07,-342.695"/>
<polygon fill="midnightblue" stroke="midnightblue" points="301.153,-427.554 296.952,-437.28 306.301,-432.296 301.153,-427.554"/>
</g>
<!-- Node21 -->
<g id="node21" class="node"><title>Node21</title>
<g id="a_node21"><a xlink:href="../../dc/d77/lstrlib_8c.html#ad24cfa73e5ad25ec99a1b48f0916471e" target="_top" xlink:title="add_value">
<polygon fill="none" stroke="black" points="462.5,-399.5 462.5,-418.5 524.5,-418.5 524.5,-399.5 462.5,-399.5"/>
<text text-anchor="middle" x="493.5" y="-406.5" font-family="Helvetica,sans-Serif" font-size="10.00">add_value</text>
</a>
</g>
</g>
<!-- Node17&#45;&gt;Node21 -->
<g id="edge28" class="edge"><title>Node17&#45;&gt;Node21</title>
<path fill="none" stroke="midnightblue" d="M332.346,-434.967C342.382,-432.467 353.022,-429.99 363,-428 396.761,-421.265 435.916,-415.848 462.258,-412.547"/>
<polygon fill="midnightblue" stroke="midnightblue" points="331.385,-431.599 322.557,-437.457 333.112,-438.383 331.385,-431.599"/>
</g>
<!-- Node23 -->
<g id="node23" class="node"><title>Node23</title>
<g id="a_node23"><a xlink:href="../../d0/da1/ltablib_8c.html#a4ea6cc51c099ea709c7755a49216f4d0" target="_top" xlink:title="addfield">
<polygon fill="none" stroke="black" points="369.5,-437.5 369.5,-456.5 418.5,-456.5 418.5,-437.5 369.5,-437.5"/>
<text text-anchor="middle" x="394" y="-444.5" font-family="Helvetica,sans-Serif" font-size="10.00">addfield</text>
</a>
</g>
</g>
<!-- Node17&#45;&gt;Node23 -->
<g id="edge30" class="edge"><title>Node17&#45;&gt;Node23</title>
<path fill="none" stroke="midnightblue" d="M337.274,-447C348.479,-447 359.881,-447 369.428,-447"/>
<polygon fill="midnightblue" stroke="midnightblue" points="337.098,-443.5 327.098,-447 337.098,-450.5 337.098,-443.5"/>
</g>
<!-- Node19 -->
<g id="node19" class="node"><title>Node19</title>
<g id="a_node19"><a xlink:href="../../d2/d82/loadlib_8c.html#a136874f5faa236dc52fb50109281e157" target="_top" xlink:title="ll_require">
<polygon fill="none" stroke="black" points="467.5,-475.5 467.5,-494.5 519.5,-494.5 519.5,-475.5 467.5,-475.5"/>
<text text-anchor="middle" x="493.5" y="-482.5" font-family="Helvetica,sans-Serif" font-size="10.00">ll_require</text>
</a>
</g>
</g>
<!-- Node18&#45;&gt;Node19 -->
<g id="edge24" class="edge"><title>Node18&#45;&gt;Node19</title>
<path fill="none" stroke="midnightblue" d="M432.207,-485C444.006,-485 456.763,-485 467.49,-485"/>
<polygon fill="midnightblue" stroke="midnightblue" points="432.159,-481.5 422.159,-485 432.159,-488.5 432.159,-481.5"/>
</g>
<!-- Node20&#45;&gt;Node21 -->
<g id="edge26" class="edge"><title>Node20&#45;&gt;Node21</title>
<path fill="none" stroke="midnightblue" d="M415.362,-348.872C434.965,-364.152 463.967,-386.759 480.252,-399.453"/>
<polygon fill="midnightblue" stroke="midnightblue" points="417.387,-346.013 407.348,-342.625 413.084,-351.534 417.387,-346.013"/>
</g>
<!-- Node21&#45;&gt;Node22 -->
<g id="edge27" class="edge"><title>Node21&#45;&gt;Node22</title>
<path fill="none" stroke="midnightblue" d="M524.761,-423.102C541.593,-430.946 562.096,-440.501 577.039,-447.465"/>
<polygon fill="midnightblue" stroke="midnightblue" points="525.886,-419.765 515.344,-418.714 522.929,-426.11 525.886,-419.765"/>
</g>
<!-- Node23&#45;&gt;Node24 -->
<g id="edge31" class="edge"><title>Node23&#45;&gt;Node24</title>
<path fill="none" stroke="midnightblue" d="M428.983,-447C442.486,-447 457.658,-447 469.787,-447"/>
<polygon fill="midnightblue" stroke="midnightblue" points="428.602,-443.5 418.602,-447 428.602,-450.5 428.602,-443.5"/>
</g>
<!-- Node27 -->
<g id="node27" class="node"><title>Node27</title>
<g id="a_node27"><a xlink:href="../../dc/d77/lstrlib_8c.html#abc94e3a13f1b6ddb2c9b20c9fd89e87f" target="_top" xlink:title="str_dump">
<polygon fill="none" stroke="black" points="366,-285.5 366,-304.5 422,-304.5 422,-285.5 366,-285.5"/>
<text text-anchor="middle" x="394" y="-292.5" font-family="Helvetica,sans-Serif" font-size="10.00">str_dump</text>
</a>
</g>
</g>
<!-- Node26&#45;&gt;Node27 -->
<g id="edge35" class="edge"><title>Node26&#45;&gt;Node27</title>
<path fill="none" stroke="midnightblue" d="M316.291,-295C331.689,-295 350.643,-295 365.857,-295"/>
<polygon fill="midnightblue" stroke="midnightblue" points="316.29,-291.5 306.29,-295 316.29,-298.5 316.29,-291.5"/>
</g>
<!-- Node29 -->
<g id="node29" class="node"><title>Node29</title>
<g id="a_node29"><a xlink:href="../../dc/d77/lstrlib_8c.html#a4b2ffac60e817b9bfc54b32f8da3a6b4" target="_top" xlink:title="str_reverse">
<polygon fill="none" stroke="black" points="256,-247.5 256,-266.5 318,-266.5 318,-247.5 256,-247.5"/>
<text text-anchor="middle" x="287" y="-254.5" font-family="Helvetica,sans-Serif" font-size="10.00">str_reverse</text>
</a>
</g>
</g>
<!-- Node28&#45;&gt;Node29 -->
<g id="edge40" class="edge"><title>Node28&#45;&gt;Node29</title>
<path fill="none" stroke="midnightblue" d="M189.986,-197.118C205.035,-209.163 226.659,-225.617 247,-238 252.533,-241.368 258.749,-244.618 264.566,-247.448"/>
<polygon fill="midnightblue" stroke="midnightblue" points="191.917,-194.177 181.945,-190.599 187.509,-199.615 191.917,-194.177"/>
</g>
<!-- Node30 -->
<g id="node30" class="node"><title>Node30</title>
<g id="a_node30"><a xlink:href="../../dc/d77/lstrlib_8c.html#ab2235f81205d0482d03c8ae456a98992" target="_top" xlink:title="str_lower">
<polygon fill="none" stroke="black" points="260,-209.5 260,-228.5 314,-228.5 314,-209.5 260,-209.5"/>
<text text-anchor="middle" x="287" y="-216.5" font-family="Helvetica,sans-Serif" font-size="10.00">str_lower</text>
</a>
</g>
</g>
<!-- Node28&#45;&gt;Node30 -->
<g id="edge41" class="edge"><title>Node28&#45;&gt;Node30</title>
<path fill="none" stroke="midnightblue" d="M209.562,-193.852C226.05,-199.276 244.817,-205.451 259.629,-210.324"/>
<polygon fill="midnightblue" stroke="midnightblue" points="210.238,-190.39 199.646,-190.589 208.051,-197.039 210.238,-190.39"/>
</g>
<!-- Node31 -->
<g id="node31" class="node"><title>Node31</title>
<g id="a_node31"><a xlink:href="../../dc/d77/lstrlib_8c.html#a38ed99b74af58070449ca344a7351f6a" target="_top" xlink:title="str_upper">
<polygon fill="none" stroke="black" points="259,-171.5 259,-190.5 315,-190.5 315,-171.5 259,-171.5"/>
<text text-anchor="middle" x="287" y="-178.5" font-family="Helvetica,sans-Serif" font-size="10.00">str_upper</text>
</a>
</g>
</g>
<!-- Node28&#45;&gt;Node31 -->
<g id="edge42" class="edge"><title>Node28&#45;&gt;Node31</title>
<path fill="none" stroke="midnightblue" d="M221.364,-181C234.197,-181 247.49,-181 258.659,-181"/>
<polygon fill="midnightblue" stroke="midnightblue" points="221.221,-177.5 211.221,-181 221.221,-184.5 221.221,-177.5"/>
</g>
<!-- Node32 -->
<g id="node32" class="node"><title>Node32</title>
<g id="a_node32"><a xlink:href="../../dc/d77/lstrlib_8c.html#acaee4c84f29e2ec7366728ca04d3569c" target="_top" xlink:title="str_rep">
<polygon fill="none" stroke="black" points="264.5,-133.5 264.5,-152.5 309.5,-152.5 309.5,-133.5 264.5,-133.5"/>
<text text-anchor="middle" x="287" y="-140.5" font-family="Helvetica,sans-Serif" font-size="10.00">str_rep</text>
</a>
</g>
</g>
<!-- Node28&#45;&gt;Node32 -->
<g id="edge43" class="edge"><title>Node28&#45;&gt;Node32</title>
<path fill="none" stroke="midnightblue" d="M209.187,-168.272C227.493,-162.249 248.678,-155.279 264.157,-150.187"/>
<polygon fill="midnightblue" stroke="midnightblue" points="208.051,-164.961 199.646,-171.411 210.238,-171.61 208.051,-164.961"/>
</g>
<!-- Node33 -->
<g id="node33" class="node"><title>Node33</title>
<g id="a_node33"><a xlink:href="../../dc/d77/lstrlib_8c.html#a3f7db8b2258dca5459ad52d2cbf9f28c" target="_top" xlink:title="str_char">
<polygon fill="none" stroke="black" points="262,-95.5 262,-114.5 312,-114.5 312,-95.5 262,-95.5"/>
<text text-anchor="middle" x="287" y="-102.5" font-family="Helvetica,sans-Serif" font-size="10.00">str_char</text>
</a>
</g>
</g>
<!-- Node28&#45;&gt;Node33 -->
<g id="edge44" class="edge"><title>Node28&#45;&gt;Node33</title>
<path fill="none" stroke="midnightblue" d="M189.986,-164.882C205.035,-152.837 226.659,-136.383 247,-124 252.533,-120.632 258.749,-117.382 264.566,-114.552"/>
<polygon fill="midnightblue" stroke="midnightblue" points="187.509,-162.385 181.945,-171.401 191.917,-167.823 187.509,-162.385"/>
</g>
<!-- Node35 -->
<g id="node35" class="node"><title>Node35</title>
<g id="a_node35"><a xlink:href="../../de/df3/liolib_8c.html#addece2406777a40f0f591e3518293932" target="_top" xlink:title="g_read">
<polygon fill="none" stroke="black" points="264,-57.5 264,-76.5 310,-76.5 310,-57.5 264,-57.5"/>
<text text-anchor="middle" x="287" y="-64.5" font-family="Helvetica,sans-Serif" font-size="10.00">g_read</text>
</a>
</g>
</g>
<!-- Node34&#45;&gt;Node35 -->
<g id="edge46" class="edge"><title>Node34&#45;&gt;Node35</title>
<path fill="none" stroke="midnightblue" d="M204.82,-74.0286C223.894,-72.3771 247.075,-70.3701 263.775,-68.9242"/>
<polygon fill="midnightblue" stroke="midnightblue" points="204.373,-70.5541 194.713,-74.9037 204.977,-77.528 204.373,-70.5541"/>
</g>
<!-- Node36 -->
<g id="node36" class="node"><title>Node36</title>
<g id="a_node36"><a xlink:href="../../de/df3/liolib_8c.html#a45307aa59a628966c6ea270e9b476d9a" target="_top" xlink:title="io_read">
<polygon fill="none" stroke="black" points="370.5,-95.5 370.5,-114.5 417.5,-114.5 417.5,-95.5 370.5,-95.5"/>
<text text-anchor="middle" x="394" y="-102.5" font-family="Helvetica,sans-Serif" font-size="10.00">io_read</text>
</a>
</g>
</g>
<!-- Node35&#45;&gt;Node36 -->
<g id="edge47" class="edge"><title>Node35&#45;&gt;Node36</title>
<path fill="none" stroke="midnightblue" d="M319.682,-78.466C335.992,-84.3686 355.501,-91.4288 370.292,-96.782"/>
<polygon fill="midnightblue" stroke="midnightblue" points="320.606,-75.078 310.011,-74.966 318.224,-81.6603 320.606,-75.078"/>
</g>
<!-- Node37 -->
<g id="node37" class="node"><title>Node37</title>
<g id="a_node37"><a xlink:href="../../de/df3/liolib_8c.html#add5250a74576076467531e4eb8f5f68e" target="_top" xlink:title="f_read">
<polygon fill="none" stroke="black" points="372.5,-57.5 372.5,-76.5 415.5,-76.5 415.5,-57.5 372.5,-57.5"/>
<text text-anchor="middle" x="394" y="-64.5" font-family="Helvetica,sans-Serif" font-size="10.00">f_read</text>
</a>
</g>
</g>
<!-- Node35&#45;&gt;Node37 -->
<g id="edge48" class="edge"><title>Node35&#45;&gt;Node37</title>
<path fill="none" stroke="midnightblue" d="M320.098,-67C337.129,-67 357.553,-67 372.444,-67"/>
<polygon fill="midnightblue" stroke="midnightblue" points="320.011,-63.5001 310.011,-67 320.011,-70.5001 320.011,-63.5001"/>
</g>
<!-- Node38 -->
<g id="node38" class="node"><title>Node38</title>
<g id="a_node38"><a xlink:href="../../de/df3/liolib_8c.html#ac37d80ee2cc364b4adafcb6f7c20f28b" target="_top" xlink:title="io_readline">
<polygon fill="none" stroke="black" points="363.5,-19.5 363.5,-38.5 424.5,-38.5 424.5,-19.5 363.5,-19.5"/>
<text text-anchor="middle" x="394" y="-26.5" font-family="Helvetica,sans-Serif" font-size="10.00">io_readline</text>
</a>
</g>
</g>
<!-- Node35&#45;&gt;Node38 -->
<g id="edge49" class="edge"><title>Node35&#45;&gt;Node38</title>
<path fill="none" stroke="midnightblue" d="M319.422,-55.6282C334.447,-50.1905 352.234,-43.7533 366.556,-38.5702"/>
<polygon fill="midnightblue" stroke="midnightblue" points="318.224,-52.3397 310.011,-59.034 320.606,-58.9219 318.224,-52.3397"/>
</g>
<!-- Node39 -->
<g id="node39" class="node"><title>Node39</title>
<g id="a_node39"><a xlink:href="../../de/df3/liolib_8c.html#a66325940a0248cee288153edb061c0c4" target="_top" xlink:title="aux_lines">
<polygon fill="none" stroke="black" points="465,-19.5 465,-38.5 522,-38.5 522,-19.5 465,-19.5"/>
<text text-anchor="middle" x="493.5" y="-26.5" font-family="Helvetica,sans-Serif" font-size="10.00">aux_lines</text>
</a>
</g>
</g>
<!-- Node38&#45;&gt;Node39 -->
<g id="edge50" class="edge"><title>Node38&#45;&gt;Node39</title>
<path fill="none" stroke="midnightblue" d="M434.745,-29C444.816,-29 455.417,-29 464.75,-29"/>
<polygon fill="midnightblue" stroke="midnightblue" points="434.518,-25.5001 424.518,-29 434.518,-32.5001 434.518,-25.5001"/>
</g>
<!-- Node40 -->
<g id="node40" class="node"><title>Node40</title>
<g id="a_node40"><a xlink:href="../../de/df3/liolib_8c.html#a6a36f72d8b3966c1ebafab8a4791cb6c" target="_top" xlink:title="f_lines">
<polygon fill="none" stroke="black" points="577,-0.5 577,-19.5 620,-19.5 620,-0.5 577,-0.5"/>
<text text-anchor="middle" x="598.5" y="-7.5" font-family="Helvetica,sans-Serif" font-size="10.00">f_lines</text>
</a>
</g>
</g>
<!-- Node39&#45;&gt;Node40 -->
<g id="edge51" class="edge"><title>Node39&#45;&gt;Node40</title>
<path fill="none" stroke="midnightblue" d="M532.166,-22.0519C547.195,-19.2796 563.921,-16.1942 576.687,-13.8392"/>
<polygon fill="midnightblue" stroke="midnightblue" points="531.301,-18.6523 522.102,-23.9083 532.571,-25.5361 531.301,-18.6523"/>
</g>
<!-- Node41 -->
<g id="node41" class="node"><title>Node41</title>
<g id="a_node41"><a xlink:href="../../de/df3/liolib_8c.html#ab08031b51605d4ef676ec33a3b96a286" target="_top" xlink:title="io_lines">
<polygon fill="none" stroke="black" points="575,-38.5 575,-57.5 622,-57.5 622,-38.5 575,-38.5"/>
<text text-anchor="middle" x="598.5" y="-45.5" font-family="Helvetica,sans-Serif" font-size="10.00">io_lines</text>
</a>
</g>
</g>
<!-- Node39&#45;&gt;Node41 -->
<g id="edge52" class="edge"><title>Node39&#45;&gt;Node41</title>
<path fill="none" stroke="midnightblue" d="M532.148,-35.9447C546.411,-38.5757 562.205,-41.4892 574.693,-43.7929"/>
<polygon fill="midnightblue" stroke="midnightblue" points="532.571,-32.4639 522.102,-34.0917 531.301,-39.3477 532.571,-32.4639"/>
</g>
<!-- Node42&#45;&gt;Node35 -->
<g id="edge54" class="edge"><title>Node42&#45;&gt;Node35</title>
<path fill="none" stroke="midnightblue" d="M199.015,-109.771C213.392,-102.613 231.107,-93.8185 247,-86 253.217,-82.9413 260.003,-79.6272 266.145,-76.6363"/>
<polygon fill="midnightblue" stroke="midnightblue" points="197.047,-106.841 189.658,-114.433 200.169,-113.106 197.047,-106.841"/>
</g>
</g>
</svg>
