<?xml version="1.0" encoding="UTF-8" standalone="no"?>
<!DOCTYPE svg PUBLIC "-//W3C//DTD SVG 1.1//EN"
 "http://www.w3.org/Graphics/SVG/1.1/DTD/svg11.dtd">
<!-- Generated by graphviz version 2.38.0 (20140413.2041)
 -->
<!-- Title: panic Pages: 1 -->
<svg width="936pt" height="1099pt"
 viewBox="0.00 0.00 936.00 1098.50" xmlns="http://www.w3.org/2000/svg" xmlns:xlink="http://www.w3.org/1999/xlink">
<g id="graph0" class="graph" transform="scale(1 1) rotate(0) translate(4 1094.5)">
<title>panic</title>
<!-- Node1 -->
<g id="node1" class="node"><title>Node1</title>
<polygon fill="#bfbfbf" stroke="black" points="0,-441 0,-460 40,-460 40,-441 0,-441"/>
<text text-anchor="middle" x="20" y="-448" font-family="Helvetica,sans-Serif" font-size="10.00">panic</text>
</g>
<!-- Node2 -->
<g id="node2" class="node"><title>Node2</title>
<g id="a_node2"><a xlink:href="../../d2/dd9/ldo_8h.html#a3bfc211173876f40cde6808e408cd305" target="_top" xlink:title="luaD_throw">
<polygon fill="none" stroke="black" points="83.5,-558 83.5,-577 148.5,-577 148.5,-558 83.5,-558"/>
<text text-anchor="middle" x="116" y="-565" font-family="Helvetica,sans-Serif" font-size="10.00">luaD_throw</text>
</a>
</g>
</g>
<!-- Node1&#45;&gt;Node2 -->
<g id="edge1" class="edge"><title>Node1&#45;&gt;Node2</title>
<path fill="none" stroke="midnightblue" d="M35.0617,-468.002C55.139,-492.992 91.3423,-538.054 107.201,-557.793"/>
<polygon fill="midnightblue" stroke="midnightblue" points="37.6841,-465.678 28.6924,-460.075 32.2271,-470.062 37.6841,-465.678"/>
</g>
<!-- Node46 -->
<g id="node46" class="node"><title>Node46</title>
<g id="a_node46"><a xlink:href="../../da/d29/lauxlib_8h.html#a7d8712fcede90ae93d5a9a7b409c586e" target="_top" xlink:title="luaL_newstate">
<polygon fill="none" stroke="black" points="76,-325 76,-344 156,-344 156,-325 76,-325"/>
<text text-anchor="middle" x="116" y="-332" font-family="Helvetica,sans-Serif" font-size="10.00">luaL_newstate</text>
</a>
</g>
</g>
<!-- Node1&#45;&gt;Node46 -->
<g id="edge64" class="edge"><title>Node1&#45;&gt;Node46</title>
<path fill="none" stroke="midnightblue" d="M35.4363,-432.685C55.6157,-407.783 91.5451,-363.444 107.27,-344.039"/>
<polygon fill="midnightblue" stroke="midnightblue" points="32.591,-430.637 29.0144,-440.61 38.0295,-435.044 32.591,-430.637"/>
</g>
<!-- Node2&#45;&gt;Node2 -->
<g id="edge33" class="edge"><title>Node2&#45;&gt;Node2</title>
<path fill="none" stroke="midnightblue" d="M98.2231,-586.9C99.4103,-591.815 105.336,-595.5 116,-595.5 133.062,-595.5 137.995,-586.065 130.796,-577.257"/>
<polygon fill="midnightblue" stroke="midnightblue" points="101.594,-587.845 101.204,-577.257 94.9066,-585.778 101.594,-587.845"/>
</g>
<!-- Node3 -->
<g id="node3" class="node"><title>Node3</title>
<g id="a_node3"><a xlink:href="../../db/d46/ldebug_8h.html#acd5ef9f67a8e9d08f6540636fdbeafe6" target="_top" xlink:title="luaG_errormsg">
<polygon fill="none" stroke="black" points="207.5,-834 207.5,-853 285.5,-853 285.5,-834 207.5,-834"/>
<text text-anchor="middle" x="246.5" y="-841" font-family="Helvetica,sans-Serif" font-size="10.00">luaG_errormsg</text>
</a>
</g>
</g>
<!-- Node2&#45;&gt;Node3 -->
<g id="edge2" class="edge"><title>Node2&#45;&gt;Node3</title>
<path fill="none" stroke="midnightblue" d="M118.034,-587.449C121.356,-632.755 135.179,-744.868 192,-814.5 198.947,-823.013 209.079,-829.395 218.662,-833.973"/>
<polygon fill="midnightblue" stroke="midnightblue" points="121.511,-586.966 117.384,-577.208 114.525,-587.41 121.511,-586.966"/>
</g>
<!-- Node13 -->
<g id="node13" class="node"><title>Node13</title>
<g id="a_node13"><a xlink:href="../../d2/dd9/ldo_8h.html#ab83418a7edbfafe87886f156aa6a9988" target="_top" xlink:title="luaD_growstack">
<polygon fill="none" stroke="black" points="488,-539 488,-558 574,-558 574,-539 488,-539"/>
<text text-anchor="middle" x="531" y="-546" font-family="Helvetica,sans-Serif" font-size="10.00">luaD_growstack</text>
</a>
</g>
</g>
<!-- Node2&#45;&gt;Node13 -->
<g id="edge34" class="edge"><title>Node2&#45;&gt;Node13</title>
<path fill="none" stroke="midnightblue" d="M158.805,-565.577C237.9,-561.938 408.612,-554.084 487.92,-550.436"/>
<polygon fill="midnightblue" stroke="midnightblue" points="158.55,-562.085 148.722,-566.041 158.872,-569.077 158.55,-562.085"/>
</g>
<!-- Node15 -->
<g id="node15" class="node"><title>Node15</title>
<g id="a_node15"><a xlink:href="../../d2/dd9/ldo_8h.html#a7bb0b106d4012134156e0fa240f51228" target="_top" xlink:title="luaD_call">
<polygon fill="none" stroke="black" points="503,-881 503,-900 559,-900 559,-881 503,-881"/>
<text text-anchor="middle" x="531" y="-888" font-family="Helvetica,sans-Serif" font-size="10.00">luaD_call</text>
</a>
</g>
</g>
<!-- Node2&#45;&gt;Node15 -->
<g id="edge35" class="edge"><title>Node2&#45;&gt;Node15</title>
<path fill="none" stroke="midnightblue" d="M133.348,-584.433C182.533,-634.551 335.131,-784.095 487,-871.5 492.942,-874.92 499.614,-878.141 505.898,-880.926"/>
<polygon fill="midnightblue" stroke="midnightblue" points="135.601,-581.73 126.113,-577.015 130.59,-586.617 135.601,-581.73"/>
</g>
<!-- Node20 -->
<g id="node20" class="node"><title>Node20</title>
<g id="a_node20"><a xlink:href="../../de/d27/lgc_8c.html#ab9ec6b56580b9e66f41743e393e7e033" target="_top" xlink:title="GCTM">
<polygon fill="none" stroke="black" points="729,-653 729,-672 775,-672 775,-653 729,-653"/>
<text text-anchor="middle" x="752" y="-660" font-family="Helvetica,sans-Serif" font-size="10.00">GCTM</text>
</a>
</g>
</g>
<!-- Node2&#45;&gt;Node20 -->
<g id="edge41" class="edge"><title>Node2&#45;&gt;Node20</title>
<path fill="none" stroke="midnightblue" d="M159.051,-572.2C213.111,-577.826 309.923,-586.5 393,-586.5 393,-586.5 393,-586.5 532,-586.5 612.088,-586.5 699.998,-632.424 735.175,-652.875"/>
<polygon fill="midnightblue" stroke="midnightblue" points="159.138,-568.689 148.825,-571.118 158.402,-575.651 159.138,-568.689"/>
</g>
<!-- Node26 -->
<g id="node26" class="node"><title>Node26</title>
<g id="a_node26"><a xlink:href="../../da/dd2/lua_8h.html#ab717ff0354e9c39199b16a1c412fa252" target="_top" xlink:title="lua_yieldk">
<polygon fill="none" stroke="black" points="502,-615 502,-634 560,-634 560,-615 502,-615"/>
<text text-anchor="middle" x="531" y="-622" font-family="Helvetica,sans-Serif" font-size="10.00">lua_yieldk</text>
</a>
</g>
</g>
<!-- Node2&#45;&gt;Node26 -->
<g id="edge38" class="edge"><title>Node2&#45;&gt;Node26</title>
<path fill="none" stroke="midnightblue" d="M143.331,-581.752C157.367,-588.655 175.171,-596.333 192,-600.5 304.21,-628.281 443.302,-627.554 501.896,-625.715"/>
<polygon fill="midnightblue" stroke="midnightblue" points="144.774,-578.56 134.274,-577.15 141.603,-584.801 144.774,-578.56"/>
</g>
<!-- Node29 -->
<g id="node29" class="node"><title>Node29</title>
<g id="a_node29"><a xlink:href="../../d3/d08/ldo_8c.html#a23bb2b9896d6f5f8a90e4ad610c6901f" target="_top" xlink:title="resume_error">
<polygon fill="none" stroke="black" points="613,-482 613,-501 683,-501 683,-482 613,-482"/>
<text text-anchor="middle" x="648" y="-489" font-family="Helvetica,sans-Serif" font-size="10.00">resume_error</text>
</a>
</g>
</g>
<!-- Node2&#45;&gt;Node29 -->
<g id="edge36" class="edge"><title>Node2&#45;&gt;Node29</title>
<path fill="none" stroke="midnightblue" d="M128.656,-549.346C141.618,-530.972 164.406,-503.6 192,-491.5 337.23,-427.818 534.484,-464.012 612.862,-482.601"/>
<polygon fill="midnightblue" stroke="midnightblue" points="125.661,-547.528 122.953,-557.771 131.457,-551.452 125.661,-547.528"/>
</g>
<!-- Node30 -->
<g id="node30" class="node"><title>Node30</title>
<g id="a_node30"><a xlink:href="../../d3/d08/ldo_8c.html#a47f3a8ae373112059c6cf957958c70a6" target="_top" xlink:title="checkmode">
<polygon fill="none" stroke="black" points="214.5,-425 214.5,-444 278.5,-444 278.5,-425 214.5,-425"/>
<text text-anchor="middle" x="246.5" y="-432" font-family="Helvetica,sans-Serif" font-size="10.00">checkmode</text>
</a>
</g>
</g>
<!-- Node2&#45;&gt;Node30 -->
<g id="edge39" class="edge"><title>Node2&#45;&gt;Node30</title>
<path fill="none" stroke="midnightblue" d="M125.861,-548.684C137.888,-524.896 161.432,-483.982 192,-458.5 199.194,-452.503 208.127,-447.717 216.619,-444.046"/>
<polygon fill="midnightblue" stroke="midnightblue" points="122.683,-547.215 121.425,-557.735 128.969,-550.296 122.683,-547.215"/>
</g>
<!-- Node32 -->
<g id="node32" class="node"><title>Node32</title>
<g id="a_node32"><a xlink:href="../../d8/d7a/llex_8c.html#a67bb1f3225ffe5738fef1c3d34879735" target="_top" xlink:title="lexerror">
<polygon fill="none" stroke="black" points="223.5,-292 223.5,-311 269.5,-311 269.5,-292 223.5,-292"/>
<text text-anchor="middle" x="246.5" y="-299" font-family="Helvetica,sans-Serif" font-size="10.00">lexerror</text>
</a>
</g>
</g>
<!-- Node2&#45;&gt;Node32 -->
<g id="edge42" class="edge"><title>Node2&#45;&gt;Node32</title>
<path fill="none" stroke="midnightblue" d="M126.172,-548.514C151.557,-495.966 222.104,-349.932 240.867,-311.091"/>
<polygon fill="midnightblue" stroke="midnightblue" points="122.924,-547.191 121.726,-557.717 129.227,-550.236 122.924,-547.191"/>
</g>
<!-- Node40 -->
<g id="node40" class="node"><title>Node40</title>
<g id="a_node40"><a xlink:href="../../d7/d3e/lmem_8h.html#ae7dc8a57fc5dbca825653a88a356a72d" target="_top" xlink:title="luaM_realloc_">
<polygon fill="none" stroke="black" points="209.5,-1033 209.5,-1052 283.5,-1052 283.5,-1033 209.5,-1033"/>
<text text-anchor="middle" x="246.5" y="-1040" font-family="Helvetica,sans-Serif" font-size="10.00">luaM_realloc_</text>
</a>
</g>
</g>
<!-- Node2&#45;&gt;Node40 -->
<g id="edge56" class="edge"><title>Node2&#45;&gt;Node40</title>
<path fill="none" stroke="midnightblue" d="M117.648,-587.3C120.605,-665.989 135.23,-955.59 192,-1023.5 196.552,-1028.94 202.775,-1032.83 209.369,-1035.6"/>
<polygon fill="midnightblue" stroke="midnightblue" points="121.145,-587.142 117.293,-577.272 114.149,-587.39 121.145,-587.142"/>
</g>
<!-- Node41 -->
<g id="node41" class="node"><title>Node41</title>
<g id="a_node41"><a xlink:href="../../de/d2f/lundump_8c.html#a4359a67dfcb96fbedf2becab47365599" target="_top" xlink:title="error">
<polygon fill="none" stroke="black" points="229.5,-995 229.5,-1014 263.5,-1014 263.5,-995 229.5,-995"/>
<text text-anchor="middle" x="246.5" y="-1002" font-family="Helvetica,sans-Serif" font-size="10.00">error</text>
</a>
</g>
</g>
<!-- Node2&#45;&gt;Node41 -->
<g id="edge57" class="edge"><title>Node2&#45;&gt;Node41</title>
<path fill="none" stroke="midnightblue" d="M121.144,-586.892C131.459,-634.373 159.79,-760.06 192,-862.5 207.962,-913.265 232.044,-972.329 241.494,-994.987"/>
<polygon fill="midnightblue" stroke="midnightblue" points="124.547,-586.07 119.017,-577.032 117.704,-587.546 124.547,-586.07"/>
</g>
<!-- Node45 -->
<g id="node45" class="node"><title>Node45</title>
<g id="a_node45"><a xlink:href="../../dd/d4a/lvm_8c.html#aa0a85b24a621a9960e6d09e373d96582" target="_top" xlink:title="traceexec">
<polygon fill="none" stroke="black" points="218,-501 218,-520 275,-520 275,-501 218,-501"/>
<text text-anchor="middle" x="246.5" y="-508" font-family="Helvetica,sans-Serif" font-size="10.00">traceexec</text>
</a>
</g>
</g>
<!-- Node2&#45;&gt;Node45 -->
<g id="edge62" class="edge"><title>Node2&#45;&gt;Node45</title>
<path fill="none" stroke="midnightblue" d="M147.7,-553.882C171.21,-543.454 203.049,-529.33 223.922,-520.072"/>
<polygon fill="midnightblue" stroke="midnightblue" points="146.23,-550.705 138.508,-557.959 149.068,-557.104 146.23,-550.705"/>
</g>
<!-- Node4 -->
<g id="node4" class="node"><title>Node4</title>
<g id="a_node4"><a xlink:href="../../da/dd2/lua_8h.html#aae6c05ddea7bd110a3e84595ef92e601" target="_top" xlink:title="lua_error">
<polygon fill="none" stroke="black" points="368,-957 368,-976 420,-976 420,-957 368,-957"/>
<text text-anchor="middle" x="394" y="-964" font-family="Helvetica,sans-Serif" font-size="10.00">lua_error</text>
</a>
</g>
</g>
<!-- Node3&#45;&gt;Node4 -->
<g id="edge3" class="edge"><title>Node3&#45;&gt;Node4</title>
<path fill="none" stroke="midnightblue" d="M266.789,-859.806C297.564,-885.822 356.823,-935.918 381.636,-956.893"/>
<polygon fill="midnightblue" stroke="midnightblue" points="268.814,-856.935 258.917,-853.152 264.294,-862.28 268.814,-856.935"/>
</g>
<!-- Node9 -->
<g id="node9" class="node"><title>Node9</title>
<g id="a_node9"><a xlink:href="../../db/d46/ldebug_8h.html#a6f27f64630215e18a11be9ba21d3c4bf" target="_top" xlink:title="luaG_runerror">
<polygon fill="none" stroke="red" points="357.5,-734 357.5,-753 430.5,-753 430.5,-734 357.5,-734"/>
<text text-anchor="middle" x="394" y="-741" font-family="Helvetica,sans-Serif" font-size="10.00">luaG_runerror</text>
</a>
</g>
</g>
<!-- Node3&#45;&gt;Node9 -->
<g id="edge8" class="edge"><title>Node3&#45;&gt;Node9</title>
<path fill="none" stroke="midnightblue" d="M269.704,-828.24C300.023,-807.402 353.502,-770.646 378.877,-753.206"/>
<polygon fill="midnightblue" stroke="midnightblue" points="267.71,-825.363 261.451,-833.912 271.675,-831.132 267.71,-825.363"/>
</g>
<!-- Node5 -->
<g id="node5" class="node"><title>Node5</title>
<g id="a_node5"><a xlink:href="../../da/d29/lauxlib_8h.html#a994f73d7985c30672469a260d9e86ae6" target="_top" xlink:title="luaL_error">
<polygon fill="none" stroke="red" points="502.5,-1033 502.5,-1052 559.5,-1052 559.5,-1033 502.5,-1033"/>
<text text-anchor="middle" x="531" y="-1040" font-family="Helvetica,sans-Serif" font-size="10.00">luaL_error</text>
</a>
</g>
</g>
<!-- Node4&#45;&gt;Node5 -->
<g id="edge4" class="edge"><title>Node4&#45;&gt;Node5</title>
<path fill="none" stroke="midnightblue" d="M429.826,-979.262C437.06,-982.502 444.464,-986.279 451,-990.5 469.233,-1002.28 468.833,-1011.62 487,-1023.5 492.465,-1027.07 498.714,-1030.27 504.722,-1032.97"/>
<polygon fill="midnightblue" stroke="midnightblue" points="430.741,-975.849 420.166,-975.187 428.019,-982.299 430.741,-975.849"/>
</g>
<!-- Node6 -->
<g id="node6" class="node"><title>Node6</title>
<g id="a_node6"><a xlink:href="../../d8/dd3/lbaselib_8c.html#a2ecfa987569d0b4c1063f3e204e42dd2" target="_top" xlink:title="luaB_error">
<polygon fill="none" stroke="black" points="501.5,-995 501.5,-1014 560.5,-1014 560.5,-995 501.5,-995"/>
<text text-anchor="middle" x="531" y="-1002" font-family="Helvetica,sans-Serif" font-size="10.00">luaB_error</text>
</a>
</g>
</g>
<!-- Node4&#45;&gt;Node6 -->
<g id="edge5" class="edge"><title>Node4&#45;&gt;Node6</title>
<path fill="none" stroke="midnightblue" d="M429.788,-976.292C451.987,-982.541 480.412,-990.542 501.314,-996.426"/>
<polygon fill="midnightblue" stroke="midnightblue" points="430.65,-972.899 420.076,-973.558 428.754,-979.637 430.65,-972.899"/>
</g>
<!-- Node7 -->
<g id="node7" class="node"><title>Node7</title>
<g id="a_node7"><a xlink:href="../../d8/dd3/lbaselib_8c.html#a86a4e35d9c9ad4661a0dbbac3758c049" target="_top" xlink:title="luaB_dofile">
<polygon fill="none" stroke="black" points="721,-938 721,-957 783,-957 783,-938 721,-938"/>
<text text-anchor="middle" x="752" y="-945" font-family="Helvetica,sans-Serif" font-size="10.00">luaB_dofile</text>
</a>
</g>
</g>
<!-- Node4&#45;&gt;Node7 -->
<g id="edge6" class="edge"><title>Node4&#45;&gt;Node7</title>
<path fill="none" stroke="midnightblue" d="M430.088,-964.627C499.914,-960.901 655.188,-952.614 720.802,-949.112"/>
<polygon fill="midnightblue" stroke="midnightblue" points="429.832,-961.136 420.033,-965.164 430.206,-968.126 429.832,-961.136"/>
</g>
<!-- Node8 -->
<g id="node8" class="node"><title>Node8</title>
<g id="a_node8"><a xlink:href="../../df/d2d/lcorolib_8c.html#a777abb20385a69ce4787f72bd90375a7" target="_top" xlink:title="luaB_auxwrap">
<polygon fill="none" stroke="red" points="491,-919 491,-938 571,-938 571,-919 491,-919"/>
<text text-anchor="middle" x="531" y="-926" font-family="Helvetica,sans-Serif" font-size="10.00">luaB_auxwrap</text>
</a>
</g>
</g>
<!-- Node4&#45;&gt;Node8 -->
<g id="edge7" class="edge"><title>Node4&#45;&gt;Node8</title>
<path fill="none" stroke="midnightblue" d="M429.916,-956.672C450.315,-950.93 475.936,-943.718 496.148,-938.029"/>
<polygon fill="midnightblue" stroke="midnightblue" points="428.754,-953.363 420.076,-959.442 430.65,-960.101 428.754,-953.363"/>
</g>
<!-- Node10 -->
<g id="node10" class="node"><title>Node10</title>
<g id="a_node10"><a xlink:href="../../da/dd2/lua_8h.html#a77807056ba032d64b2def2b57dc53d53" target="_top" xlink:title="lua_pushnumber">
<polygon fill="none" stroke="red" points="487,-729 487,-748 575,-748 575,-729 487,-729"/>
<text text-anchor="middle" x="531" y="-736" font-family="Helvetica,sans-Serif" font-size="10.00">lua_pushnumber</text>
</a>
</g>
</g>
<!-- Node9&#45;&gt;Node10 -->
<g id="edge9" class="edge"><title>Node9&#45;&gt;Node10</title>
<path fill="none" stroke="midnightblue" d="M440.822,-741.803C455.687,-741.252 472.121,-740.644 486.789,-740.1"/>
<polygon fill="midnightblue" stroke="midnightblue" points="440.687,-738.305 430.823,-742.173 440.946,-745.301 440.687,-738.305"/>
</g>
<!-- Node11 -->
<g id="node11" class="node"><title>Node11</title>
<g id="a_node11"><a xlink:href="../../db/d46/ldebug_8h.html#a375161dd1513420561f20f0b4c7b7e66" target="_top" xlink:title="luaG_typeerror">
<polygon fill="none" stroke="red" points="491.5,-691 491.5,-710 570.5,-710 570.5,-691 491.5,-691"/>
<text text-anchor="middle" x="531" y="-698" font-family="Helvetica,sans-Serif" font-size="10.00">luaG_typeerror</text>
</a>
</g>
</g>
<!-- Node9&#45;&gt;Node11 -->
<g id="edge10" class="edge"><title>Node9&#45;&gt;Node11</title>
<path fill="none" stroke="midnightblue" d="M434.548,-730.903C455.505,-724.228 480.827,-716.162 500.123,-710.016"/>
<polygon fill="midnightblue" stroke="midnightblue" points="433.427,-727.587 424.961,-733.957 435.551,-734.257 433.427,-727.587"/>
</g>
<!-- Node12 -->
<g id="node12" class="node"><title>Node12</title>
<g id="a_node12"><a xlink:href="../../db/d46/ldebug_8h.html#a7ae9c3f6343c93b4a8bb80e68706a6a3" target="_top" xlink:title="luaG_ordererror">
<polygon fill="none" stroke="red" points="491,-843 491,-862 571,-862 571,-843 491,-843"/>
<text text-anchor="middle" x="531" y="-850" font-family="Helvetica,sans-Serif" font-size="10.00">luaG_ordererror</text>
</a>
</g>
</g>
<!-- Node9&#45;&gt;Node12 -->
<g id="edge11" class="edge"><title>Node9&#45;&gt;Node12</title>
<path fill="none" stroke="midnightblue" d="M418.013,-759.063C428.592,-766.731 440.984,-776.472 451,-786.5 469.595,-805.117 466.32,-817.23 487,-833.5 491.618,-837.133 497.04,-840.226 502.448,-842.795"/>
<polygon fill="midnightblue" stroke="midnightblue" points="419.832,-756.062 409.646,-753.149 415.792,-761.779 419.832,-756.062"/>
</g>
<!-- Node9&#45;&gt;Node13 -->
<g id="edge12" class="edge"><title>Node9&#45;&gt;Node13</title>
<path fill="none" stroke="midnightblue" d="M406.863,-724.971C424.071,-698.264 457.169,-647.538 487,-605.5 499.052,-588.517 513.804,-569.276 522.522,-558.055"/>
<polygon fill="midnightblue" stroke="midnightblue" points="403.739,-723.359 401.277,-733.664 409.627,-727.143 403.739,-723.359"/>
</g>
<!-- Node9&#45;&gt;Node15 -->
<g id="edge14" class="edge"><title>Node9&#45;&gt;Node15</title>
<path fill="none" stroke="midnightblue" d="M420.33,-758.757C430.892,-766.1 442.622,-775.667 451,-786.5 476.099,-818.953 458.215,-842.267 487,-871.5 491.352,-875.92 496.91,-879.39 502.574,-882.085"/>
<polygon fill="midnightblue" stroke="midnightblue" points="422.103,-755.734 411.833,-753.133 418.24,-761.571 422.103,-755.734"/>
</g>
<!-- Node24 -->
<g id="node24" class="node"><title>Node24</title>
<g id="a_node24"><a xlink:href="../../d5/dcd/lvm_8h.html#ae93565adc36c6e2157dbbd875433ede1" target="_top" xlink:title="luaV_execute">
<polygon fill="none" stroke="red" points="611,-653 611,-672 685,-672 685,-653 611,-653"/>
<text text-anchor="middle" x="648" y="-660" font-family="Helvetica,sans-Serif" font-size="10.00">luaV_execute</text>
</a>
</g>
</g>
<!-- Node9&#45;&gt;Node24 -->
<g id="edge32" class="edge"><title>Node9&#45;&gt;Node24</title>
<path fill="none" stroke="midnightblue" d="M413.407,-727.171C430.994,-712.575 458.915,-691.93 487,-681.5 527.645,-666.405 577.727,-662.624 610.917,-661.99"/>
<polygon fill="midnightblue" stroke="midnightblue" points="410.991,-724.63 405.647,-733.779 415.53,-729.96 410.991,-724.63"/>
</g>
<!-- Node9&#45;&gt;Node26 -->
<g id="edge29" class="edge"><title>Node9&#45;&gt;Node26</title>
<path fill="none" stroke="midnightblue" d="M409.032,-726.189C426.04,-705.922 456.257,-672.127 487,-648.5 494.05,-643.082 502.468,-638.105 509.98,-634.105"/>
<polygon fill="midnightblue" stroke="midnightblue" points="406.267,-724.041 402.589,-733.977 411.66,-728.503 406.267,-724.041"/>
</g>
<!-- Node27 -->
<g id="node27" class="node"><title>Node27</title>
<g id="a_node27"><a xlink:href="../../d7/d3e/lmem_8h.html#a9adb7e11025b0b91454ae7949bc8d370" target="_top" xlink:title="luaM_growaux_">
<polygon fill="none" stroke="black" points="488,-805 488,-824 574,-824 574,-805 488,-805"/>
<text text-anchor="middle" x="531" y="-812" font-family="Helvetica,sans-Serif" font-size="10.00">luaM_growaux_</text>
</a>
</g>
</g>
<!-- Node9&#45;&gt;Node27 -->
<g id="edge30" class="edge"><title>Node9&#45;&gt;Node27</title>
<path fill="none" stroke="midnightblue" d="M419.55,-758.25C437.88,-769.047 463.682,-783.794 487,-795.5 493.419,-798.722 500.506,-801.974 507.043,-804.855"/>
<polygon fill="midnightblue" stroke="midnightblue" points="421.085,-755.091 410.698,-753 417.514,-761.112 421.085,-755.091"/>
</g>
<!-- Node28 -->
<g id="node28" class="node"><title>Node28</title>
<g id="a_node28"><a xlink:href="../../d7/d3e/lmem_8h.html#a23b8703b7b50e1c5dd37d41569a09a9a" target="_top" xlink:title="luaM_toobig">
<polygon fill="none" stroke="red" points="497,-767 497,-786 565,-786 565,-767 497,-767"/>
<text text-anchor="middle" x="531" y="-774" font-family="Helvetica,sans-Serif" font-size="10.00">luaM_toobig</text>
</a>
</g>
</g>
<!-- Node9&#45;&gt;Node28 -->
<g id="edge31" class="edge"><title>Node9&#45;&gt;Node28</title>
<path fill="none" stroke="midnightblue" d="M440.744,-754.682C459.121,-759.174 479.907,-764.255 496.793,-768.383"/>
<polygon fill="midnightblue" stroke="midnightblue" points="441.368,-751.231 430.823,-752.257 439.706,-758.031 441.368,-751.231"/>
</g>
<!-- Node14 -->
<g id="node14" class="node"><title>Node14</title>
<g id="a_node14"><a xlink:href="../../df/db6/lapi_8c.html#ab3a8303d450a61e55f7928da1fe14302" target="_top" xlink:title="growstack">
<polygon fill="none" stroke="red" points="618,-539 618,-558 678,-558 678,-539 618,-539"/>
<text text-anchor="middle" x="648" y="-546" font-family="Helvetica,sans-Serif" font-size="10.00">growstack</text>
</a>
</g>
</g>
<!-- Node13&#45;&gt;Node14 -->
<g id="edge13" class="edge"><title>Node13&#45;&gt;Node14</title>
<path fill="none" stroke="midnightblue" d="M584.184,-548.5C595.719,-548.5 607.542,-548.5 617.774,-548.5"/>
<polygon fill="midnightblue" stroke="midnightblue" points="584.169,-545 574.169,-548.5 584.169,-552 584.169,-545"/>
</g>
<!-- Node15&#45;&gt;Node3 -->
<g id="edge20" class="edge"><title>Node15&#45;&gt;Node3</title>
<path fill="none" stroke="midnightblue" d="M492.504,-884.262C438.619,-875.297 339.817,-858.859 285.599,-849.839"/>
<polygon fill="midnightblue" stroke="midnightblue" points="492.217,-887.762 502.656,-885.951 493.366,-880.857 492.217,-887.762"/>
</g>
<!-- Node16 -->
<g id="node16" class="node"><title>Node16</title>
<g id="a_node16"><a xlink:href="../../da/dd2/lua_8h.html#aa6aba1fd89ac6f1c5ccfdfd12f826d80" target="_top" xlink:title="lua_callk">
<polygon fill="none" stroke="black" points="621.5,-919 621.5,-938 674.5,-938 674.5,-919 621.5,-919"/>
<text text-anchor="middle" x="648" y="-926" font-family="Helvetica,sans-Serif" font-size="10.00">lua_callk</text>
</a>
</g>
</g>
<!-- Node15&#45;&gt;Node16 -->
<g id="edge15" class="edge"><title>Node15&#45;&gt;Node16</title>
<path fill="none" stroke="midnightblue" d="M568.901,-902.694C585.925,-908.319 605.723,-914.861 621.127,-919.951"/>
<polygon fill="midnightblue" stroke="midnightblue" points="569.847,-899.32 559.253,-899.505 567.65,-905.966 569.847,-899.32"/>
</g>
<!-- Node17 -->
<g id="node17" class="node"><title>Node17</title>
<g id="a_node17"><a xlink:href="../../df/db6/lapi_8c.html#ac3926c93fb08234f9f47e24653124910" target="_top" xlink:title="f_call">
<polygon fill="none" stroke="black" points="629,-805 629,-824 667,-824 667,-805 629,-805"/>
<text text-anchor="middle" x="648" y="-812" font-family="Helvetica,sans-Serif" font-size="10.00">f_call</text>
</a>
</g>
</g>
<!-- Node15&#45;&gt;Node17 -->
<g id="edge17" class="edge"><title>Node15&#45;&gt;Node17</title>
<path fill="none" stroke="midnightblue" d="M566.343,-876.562C569.339,-874.978 572.267,-873.286 575,-871.5 593.167,-859.623 593.92,-851.893 611,-838.5 617.502,-833.402 625.063,-828.253 631.573,-824.04"/>
<polygon fill="midnightblue" stroke="midnightblue" points="564.738,-873.45 557.278,-880.973 567.801,-879.745 564.738,-873.45"/>
</g>
<!-- Node18 -->
<g id="node18" class="node"><title>Node18</title>
<g id="a_node18"><a xlink:href="../../da/dd2/lua_8h.html#a3c4de08aa665eaee4aabd330aa99a441" target="_top" xlink:title="lua_pcallk">
<polygon fill="none" stroke="red" points="722.5,-824 722.5,-843 781.5,-843 781.5,-824 722.5,-824"/>
<text text-anchor="middle" x="752" y="-831" font-family="Helvetica,sans-Serif" font-size="10.00">lua_pcallk</text>
</a>
</g>
</g>
<!-- Node15&#45;&gt;Node18 -->
<g id="edge19" class="edge"><title>Node15&#45;&gt;Node18</title>
<path fill="none" stroke="midnightblue" d="M569.148,-880.831C612.436,-869.565 683.032,-851.19 722.318,-840.965"/>
<polygon fill="midnightblue" stroke="midnightblue" points="568.09,-877.49 559.294,-883.396 569.853,-884.264 568.09,-877.49"/>
</g>
<!-- Node19 -->
<g id="node19" class="node"><title>Node19</title>
<g id="a_node19"><a xlink:href="../../de/d27/lgc_8c.html#a929058f72c03750fa82374f6bfa639ee" target="_top" xlink:title="dothecall">
<polygon fill="none" stroke="black" points="621.5,-729 621.5,-748 674.5,-748 674.5,-729 621.5,-729"/>
<text text-anchor="middle" x="648" y="-736" font-family="Helvetica,sans-Serif" font-size="10.00">dothecall</text>
</a>
</g>
</g>
<!-- Node15&#45;&gt;Node19 -->
<g id="edge21" class="edge"><title>Node15&#45;&gt;Node19</title>
<path fill="none" stroke="midnightblue" d="M568.103,-877.012C570.581,-875.361 572.917,-873.529 575,-871.5 601.774,-845.421 592.988,-828.249 611,-795.5 620.363,-778.476 632.721,-759.563 640.252,-748.369"/>
<polygon fill="midnightblue" stroke="midnightblue" points="566.304,-874.007 559.291,-881.948 569.726,-880.114 566.304,-874.007"/>
</g>
<!-- Node23 -->
<g id="node23" class="node"><title>Node23</title>
<g id="a_node23"><a xlink:href="../../dd/d4a/lvm_8c.html#aa904883a58699d9c6ef4d6f0f45037f6" target="_top" xlink:title="callTM">
<polygon fill="none" stroke="red" points="626,-881 626,-900 670,-900 670,-881 626,-881"/>
<text text-anchor="middle" x="648" y="-888" font-family="Helvetica,sans-Serif" font-size="10.00">callTM</text>
</a>
</g>
</g>
<!-- Node15&#45;&gt;Node23 -->
<g id="edge25" class="edge"><title>Node15&#45;&gt;Node23</title>
<path fill="none" stroke="midnightblue" d="M569.497,-890.5C588.124,-890.5 609.952,-890.5 625.687,-890.5"/>
<polygon fill="midnightblue" stroke="midnightblue" points="569.253,-887 559.253,-890.5 569.253,-894 569.253,-887"/>
</g>
<!-- Node15&#45;&gt;Node24 -->
<g id="edge26" class="edge"><title>Node15&#45;&gt;Node24</title>
<path fill="none" stroke="midnightblue" d="M553.723,-876.872C561.449,-873.391 569.57,-869.031 575,-862.5 619.386,-809.118 584.097,-774.5 611,-710.5 616.896,-696.473 626.088,-681.994 633.707,-672.317"/>
<polygon fill="midnightblue" stroke="midnightblue" points="552.172,-873.729 544.379,-880.907 554.947,-880.156 552.172,-873.729"/>
</g>
<!-- Node16&#45;&gt;Node7 -->
<g id="edge16" class="edge"><title>Node16&#45;&gt;Node7</title>
<path fill="none" stroke="midnightblue" d="M684.74,-935.157C696.556,-937.358 709.575,-939.784 720.923,-941.897"/>
<polygon fill="midnightblue" stroke="midnightblue" points="685.211,-931.685 674.739,-933.295 683.929,-938.567 685.211,-931.685"/>
</g>
<!-- Node17&#45;&gt;Node18 -->
<g id="edge18" class="edge"><title>Node17&#45;&gt;Node18</title>
<path fill="none" stroke="midnightblue" d="M677.269,-819.766C691.24,-822.368 708.074,-825.504 722.127,-828.122"/>
<polygon fill="midnightblue" stroke="midnightblue" points="677.707,-816.287 667.236,-817.897 676.425,-823.169 677.707,-816.287"/>
</g>
<!-- Node19&#45;&gt;Node20 -->
<g id="edge22" class="edge"><title>Node19&#45;&gt;Node20</title>
<path fill="none" stroke="midnightblue" d="M670.026,-722.833C690.537,-707.551 721.074,-684.798 738.187,-672.047"/>
<polygon fill="midnightblue" stroke="midnightblue" points="667.846,-720.093 661.918,-728.875 672.028,-725.706 667.846,-720.093"/>
</g>
<!-- Node21 -->
<g id="node21" class="node"><title>Node21</title>
<g id="a_node21"><a xlink:href="../../de/d27/lgc_8c.html#a74f50e6006422d43686521fe765152dd" target="_top" xlink:title="callallpendingfinalizers">
<polygon fill="none" stroke="red" points="819,-672 819,-691 928,-691 928,-672 819,-672"/>
<text text-anchor="middle" x="873.5" y="-679" font-family="Helvetica,sans-Serif" font-size="10.00">callallpendingfinalizers</text>
</a>
</g>
</g>
<!-- Node20&#45;&gt;Node21 -->
<g id="edge23" class="edge"><title>Node20&#45;&gt;Node21</title>
<path fill="none" stroke="midnightblue" d="M785.397,-667.651C795.738,-669.295 807.472,-671.161 818.903,-672.978"/>
<polygon fill="midnightblue" stroke="midnightblue" points="785.623,-664.143 775.197,-666.029 784.523,-671.056 785.623,-664.143"/>
</g>
<!-- Node22 -->
<g id="node22" class="node"><title>Node22</title>
<g id="a_node22"><a xlink:href="../../dc/d9c/lgc_8h.html#a19359957605d7c8eaf70803e5b77361f" target="_top" xlink:title="luaC_forcestep">
<polygon fill="none" stroke="red" points="833.5,-634 833.5,-653 913.5,-653 913.5,-634 833.5,-634"/>
<text text-anchor="middle" x="873.5" y="-641" font-family="Helvetica,sans-Serif" font-size="10.00">luaC_forcestep</text>
</a>
</g>
</g>
<!-- Node20&#45;&gt;Node22 -->
<g id="edge24" class="edge"><title>Node20&#45;&gt;Node22</title>
<path fill="none" stroke="midnightblue" d="M785.417,-657.346C800.245,-654.988 817.937,-652.175 833.489,-649.703"/>
<polygon fill="midnightblue" stroke="midnightblue" points="784.523,-653.944 775.197,-658.971 785.623,-660.857 784.523,-653.944"/>
</g>
<!-- Node24&#45;&gt;Node15 -->
<g id="edge27" class="edge"><title>Node24&#45;&gt;Node15</title>
<path fill="none" stroke="midnightblue" d="M638.068,-681.028C629.913,-694.159 618.081,-711.656 611,-728.5 584.097,-792.5 619.386,-827.118 575,-880.5 570.826,-885.52 565.061,-889.259 559.108,-891.751"/>
<polygon fill="midnightblue" stroke="midnightblue" points="641.147,-682.697 643.236,-672.31 635.126,-679.128 641.147,-682.697"/>
</g>
<!-- Node25 -->
<g id="node25" class="node"><title>Node25</title>
<g id="a_node25"><a xlink:href="../../d3/d08/ldo_8c.html#abd7632c715de5db6e7797b7fa3f7010f" target="_top" xlink:title="resume">
<polygon fill="none" stroke="red" points="728.5,-548 728.5,-567 775.5,-567 775.5,-548 728.5,-548"/>
<text text-anchor="middle" x="752" y="-555" font-family="Helvetica,sans-Serif" font-size="10.00">resume</text>
</a>
</g>
</g>
<!-- Node24&#45;&gt;Node25 -->
<g id="edge28" class="edge"><title>Node24&#45;&gt;Node25</title>
<path fill="none" stroke="midnightblue" d="M665.618,-645.393C687.248,-623.127 724.321,-584.964 741.61,-567.167"/>
<polygon fill="midnightblue" stroke="midnightblue" points="662.87,-643.198 658.413,-652.81 667.891,-648.076 662.87,-643.198"/>
</g>
<!-- Node29&#45;&gt;Node25 -->
<g id="edge37" class="edge"><title>Node29&#45;&gt;Node25</title>
<path fill="none" stroke="midnightblue" d="M672.459,-506.679C692.096,-519.386 719.514,-537.127 736.219,-547.936"/>
<polygon fill="midnightblue" stroke="midnightblue" points="674.348,-503.733 664.05,-501.239 670.545,-509.61 674.348,-503.733"/>
</g>
<!-- Node31 -->
<g id="node31" class="node"><title>Node31</title>
<g id="a_node31"><a xlink:href="../../d3/d08/ldo_8c.html#a14df0fa118ab124dfcc6d227bdd38ca5" target="_top" xlink:title="f_parser">
<polygon fill="none" stroke="red" points="368.5,-425 368.5,-444 419.5,-444 419.5,-425 368.5,-425"/>
<text text-anchor="middle" x="394" y="-432" font-family="Helvetica,sans-Serif" font-size="10.00">f_parser</text>
</a>
</g>
</g>
<!-- Node30&#45;&gt;Node31 -->
<g id="edge40" class="edge"><title>Node30&#45;&gt;Node31</title>
<path fill="none" stroke="midnightblue" d="M288.872,-434.5C314.434,-434.5 346.39,-434.5 368.112,-434.5"/>
<polygon fill="midnightblue" stroke="midnightblue" points="288.713,-431 278.713,-434.5 288.713,-438 288.713,-431"/>
</g>
<!-- Node33 -->
<g id="node33" class="node"><title>Node33</title>
<g id="a_node33"><a xlink:href="../../d8/d7a/llex_8c.html#a3418da69613c587915ff780b0ec3744b" target="_top" xlink:title="save">
<polygon fill="none" stroke="red" points="375,-197 375,-216 413,-216 413,-197 375,-197"/>
<text text-anchor="middle" x="394" y="-204" font-family="Helvetica,sans-Serif" font-size="10.00">save</text>
</a>
</g>
</g>
<!-- Node32&#45;&gt;Node33 -->
<g id="edge43" class="edge"><title>Node32&#45;&gt;Node33</title>
<path fill="none" stroke="midnightblue" d="M265.501,-284.838C282.862,-269.366 310.357,-246.39 337,-230.5 348.992,-223.348 363.505,-217.191 374.752,-212.904"/>
<polygon fill="midnightblue" stroke="midnightblue" points="262.909,-282.463 257.84,-291.767 267.604,-287.655 262.909,-282.463"/>
</g>
<!-- Node34 -->
<g id="node34" class="node"><title>Node34</title>
<g id="a_node34"><a xlink:href="../../d8/d7a/llex_8c.html#a436a66722128b5e44db3efccaa922aa6" target="_top" xlink:title="read_long_string">
<polygon fill="none" stroke="black" points="488.5,-159 488.5,-178 573.5,-178 573.5,-159 488.5,-159"/>
<text text-anchor="middle" x="531" y="-166" font-family="Helvetica,sans-Serif" font-size="10.00">read_long_string</text>
</a>
</g>
</g>
<!-- Node32&#45;&gt;Node34 -->
<g id="edge52" class="edge"><title>Node32&#45;&gt;Node34</title>
<path fill="none" stroke="midnightblue" d="M256.352,-282.344C269.697,-255.912 297.657,-209.078 337,-187.5 384.085,-161.675 447.418,-160.655 488.474,-163.555"/>
<polygon fill="midnightblue" stroke="midnightblue" points="253.036,-281.161 251.818,-291.685 259.334,-284.218 253.036,-281.161"/>
</g>
<!-- Node35 -->
<g id="node35" class="node"><title>Node35</title>
<g id="a_node35"><a xlink:href="../../d8/d7a/llex_8c.html#a83faab0338a28c8b97ff1156725cc61b" target="_top" xlink:title="llex">
<polygon fill="none" stroke="red" points="737,-235 737,-254 767,-254 767,-235 737,-235"/>
<text text-anchor="middle" x="752" y="-242" font-family="Helvetica,sans-Serif" font-size="10.00">llex</text>
</a>
</g>
</g>
<!-- Node32&#45;&gt;Node35 -->
<g id="edge55" class="edge"><title>Node32&#45;&gt;Node35</title>
<path fill="none" stroke="midnightblue" d="M279.575,-302.39C296.629,-302.82 317.952,-303.287 337,-303.5 387.664,-304.066 400.48,-307.348 451,-303.5 556.204,-295.487 582.378,-288.012 685,-263.5 703.092,-259.178 723.643,-253.068 736.937,-248.954"/>
<polygon fill="midnightblue" stroke="midnightblue" points="279.654,-298.891 269.566,-302.13 279.472,-305.889 279.654,-298.891"/>
</g>
<!-- Node36 -->
<g id="node36" class="node"><title>Node36</title>
<g id="a_node36"><a xlink:href="../../d8/d7a/llex_8c.html#a5070fcf0918348a932a5c64c8e04c615" target="_top" xlink:title="escerror">
<polygon fill="none" stroke="red" points="506.5,-235 506.5,-254 555.5,-254 555.5,-235 506.5,-235"/>
<text text-anchor="middle" x="531" y="-242" font-family="Helvetica,sans-Serif" font-size="10.00">escerror</text>
</a>
</g>
</g>
<!-- Node32&#45;&gt;Node36 -->
<g id="edge53" class="edge"><title>Node32&#45;&gt;Node36</title>
<path fill="none" stroke="midnightblue" d="M278.547,-288.049C295.522,-281.209 317.091,-273.34 337,-268.5 396.877,-253.943 469.468,-247.944 506.215,-245.699"/>
<polygon fill="midnightblue" stroke="midnightblue" points="277.045,-284.883 269.131,-291.927 279.71,-291.356 277.045,-284.883"/>
</g>
<!-- Node37 -->
<g id="node37" class="node"><title>Node37</title>
<g id="a_node37"><a xlink:href="../../d8/d7a/llex_8c.html#a5a2d8bb78e2b8e9ee25f901c811b2275" target="_top" xlink:title="read_string">
<polygon fill="none" stroke="black" points="617,-235 617,-254 679,-254 679,-235 617,-235"/>
<text text-anchor="middle" x="648" y="-242" font-family="Helvetica,sans-Serif" font-size="10.00">read_string</text>
</a>
</g>
</g>
<!-- Node32&#45;&gt;Node37 -->
<g id="edge54" class="edge"><title>Node32&#45;&gt;Node37</title>
<path fill="none" stroke="midnightblue" d="M279.68,-299.296C338.638,-294.919 467.78,-283.761 575,-263.5 588.846,-260.884 603.955,-257.051 616.74,-253.512"/>
<polygon fill="midnightblue" stroke="midnightblue" points="279.229,-295.819 269.509,-300.035 279.736,-302.801 279.229,-295.819"/>
</g>
<!-- Node38 -->
<g id="node38" class="node"><title>Node38</title>
<g id="a_node38"><a xlink:href="../../d8/d27/llex_8h.html#a189ff2bb7bd23c89531fdad321fccd02" target="_top" xlink:title="luaX_syntaxerror">
<polygon fill="none" stroke="red" points="350.5,-387 350.5,-406 437.5,-406 437.5,-387 350.5,-387"/>
<text text-anchor="middle" x="394" y="-394" font-family="Helvetica,sans-Serif" font-size="10.00">luaX_syntaxerror</text>
</a>
</g>
</g>
<!-- Node32&#45;&gt;Node38 -->
<g id="edge50" class="edge"><title>Node32&#45;&gt;Node38</title>
<path fill="none" stroke="midnightblue" d="M263.897,-318.813C280.812,-335.803 308.652,-361.436 337,-377.5 343.52,-381.195 350.876,-384.328 358.06,-386.918"/>
<polygon fill="midnightblue" stroke="midnightblue" points="266.005,-315.961 256.517,-311.247 260.994,-320.849 266.005,-315.961"/>
</g>
<!-- Node39 -->
<g id="node39" class="node"><title>Node39</title>
<g id="a_node39"><a xlink:href="../../d8/d7a/llex_8c.html#a3a89ad52b41e79c866d098c24c2a1603" target="_top" xlink:title="trydecpoint">
<polygon fill="none" stroke="red" points="363,-349 363,-368 425,-368 425,-349 363,-349"/>
<text text-anchor="middle" x="394" y="-356" font-family="Helvetica,sans-Serif" font-size="10.00">trydecpoint</text>
</a>
</g>
</g>
<!-- Node32&#45;&gt;Node39 -->
<g id="edge51" class="edge"><title>Node32&#45;&gt;Node39</title>
<path fill="none" stroke="midnightblue" d="M278.966,-313.827C305.904,-324.38 344.13,-339.355 368.749,-349"/>
<polygon fill="midnightblue" stroke="midnightblue" points="280.186,-310.546 269.598,-310.157 277.633,-317.064 280.186,-310.546"/>
</g>
<!-- Node33&#45;&gt;Node34 -->
<g id="edge44" class="edge"><title>Node33&#45;&gt;Node34</title>
<path fill="none" stroke="midnightblue" d="M422.912,-198.643C444.134,-192.67 473.431,-184.423 496.018,-178.065"/>
<polygon fill="midnightblue" stroke="midnightblue" points="421.884,-195.296 413.207,-201.375 423.781,-202.035 421.884,-195.296"/>
</g>
<!-- Node33&#45;&gt;Node36 -->
<g id="edge46" class="edge"><title>Node33&#45;&gt;Node36</title>
<path fill="none" stroke="midnightblue" d="M423.014,-214.385C447.592,-221.304 482.943,-231.254 506.183,-237.796"/>
<polygon fill="midnightblue" stroke="midnightblue" points="423.781,-210.965 413.207,-211.625 421.884,-217.704 423.781,-210.965"/>
</g>
<!-- Node33&#45;&gt;Node37 -->
<g id="edge49" class="edge"><title>Node33&#45;&gt;Node37</title>
<path fill="none" stroke="midnightblue" d="M423.135,-208.134C458.722,-210.506 521.782,-215.729 575,-225.5 588.86,-228.045 603.97,-231.867 616.753,-235.418"/>
<polygon fill="midnightblue" stroke="midnightblue" points="423.217,-204.632 413.014,-207.487 422.77,-211.618 423.217,-204.632"/>
</g>
<!-- Node34&#45;&gt;Node35 -->
<g id="edge45" class="edge"><title>Node34&#45;&gt;Node35</title>
<path fill="none" stroke="midnightblue" d="M569.419,-181.486C618.834,-198.634 703.487,-228.011 736.87,-239.597"/>
<polygon fill="midnightblue" stroke="midnightblue" points="570.331,-178.097 559.737,-178.125 568.036,-184.711 570.331,-178.097"/>
</g>
<!-- Node36&#45;&gt;Node37 -->
<g id="edge47" class="edge"><title>Node36&#45;&gt;Node37</title>
<path fill="none" stroke="midnightblue" d="M565.695,-244.5C581.911,-244.5 601.196,-244.5 616.913,-244.5"/>
<polygon fill="midnightblue" stroke="midnightblue" points="565.55,-241 555.549,-244.5 565.549,-248 565.55,-241"/>
</g>
<!-- Node37&#45;&gt;Node35 -->
<g id="edge48" class="edge"><title>Node37&#45;&gt;Node35</title>
<path fill="none" stroke="midnightblue" d="M689.282,-244.5C706.167,-244.5 724.693,-244.5 736.998,-244.5"/>
<polygon fill="midnightblue" stroke="midnightblue" points="689.052,-241 679.052,-244.5 689.052,-248 689.052,-241"/>
</g>
<!-- Node42 -->
<g id="node42" class="node"><title>Node42</title>
<g id="a_node42"><a xlink:href="../../de/d2f/lundump_8c.html#a7a5d13b3653a25432f167162f585ffa4" target="_top" xlink:title="LoadBlock">
<polygon fill="none" stroke="red" points="363.5,-1071 363.5,-1090 424.5,-1090 424.5,-1071 363.5,-1071"/>
<text text-anchor="middle" x="394" y="-1078" font-family="Helvetica,sans-Serif" font-size="10.00">LoadBlock</text>
</a>
</g>
</g>
<!-- Node41&#45;&gt;Node42 -->
<g id="edge58" class="edge"><title>Node41&#45;&gt;Node42</title>
<path fill="none" stroke="midnightblue" d="M273.611,-1011.06C282.715,-1014.03 292.716,-1018.11 301,-1023.5 320.5,-1036.19 317.411,-1048.95 337,-1061.5 344.953,-1066.6 354.422,-1070.48 363.291,-1073.37"/>
<polygon fill="midnightblue" stroke="midnightblue" points="274.437,-1007.65 263.855,-1008.16 272.446,-1014.36 274.437,-1007.65"/>
</g>
<!-- Node43 -->
<g id="node43" class="node"><title>Node43</title>
<g id="a_node43"><a xlink:href="../../de/d2f/lundump_8c.html#a070311f1203a7633e63ee83a444c5168" target="_top" xlink:title="LoadHeader">
<polygon fill="none" stroke="red" points="496.5,-1071 496.5,-1090 565.5,-1090 565.5,-1071 496.5,-1071"/>
<text text-anchor="middle" x="531" y="-1078" font-family="Helvetica,sans-Serif" font-size="10.00">LoadHeader</text>
</a>
</g>
</g>
<!-- Node41&#45;&gt;Node43 -->
<g id="edge61" class="edge"><title>Node41&#45;&gt;Node43</title>
<path fill="none" stroke="midnightblue" d="M273.629,-1001.31C313.929,-997.584 392.689,-995.134 451,-1023.5 471.92,-1033.68 467.988,-1048.09 487,-1061.5 492.069,-1065.07 497.918,-1068.2 503.637,-1070.83"/>
<polygon fill="midnightblue" stroke="midnightblue" points="273.15,-997.84 263.56,-1002.34 273.865,-1004.8 273.15,-997.84"/>
</g>
<!-- Node44 -->
<g id="node44" class="node"><title>Node44</title>
<g id="a_node44"><a xlink:href="../../de/d2f/lundump_8c.html#a9f0e8462baca39c1599c55689ab68d49" target="_top" xlink:title="LoadInt">
<polygon fill="none" stroke="red" points="370,-1033 370,-1052 418,-1052 418,-1033 370,-1033"/>
<text text-anchor="middle" x="394" y="-1040" font-family="Helvetica,sans-Serif" font-size="10.00">LoadInt</text>
</a>
</g>
</g>
<!-- Node41&#45;&gt;Node44 -->
<g id="edge60" class="edge"><title>Node41&#45;&gt;Node44</title>
<path fill="none" stroke="midnightblue" d="M273.657,-1011.33C301.05,-1018.49 343.658,-1029.61 369.863,-1036.46"/>
<polygon fill="midnightblue" stroke="midnightblue" points="274.187,-1007.85 263.627,-1008.71 272.418,-1014.63 274.187,-1007.85"/>
</g>
<!-- Node42&#45;&gt;Node43 -->
<g id="edge59" class="edge"><title>Node42&#45;&gt;Node43</title>
<path fill="none" stroke="midnightblue" d="M434.735,-1080.5C454.248,-1080.5 477.51,-1080.5 496.162,-1080.5"/>
<polygon fill="midnightblue" stroke="midnightblue" points="434.626,-1077 424.626,-1080.5 434.626,-1084 434.626,-1077"/>
</g>
<!-- Node45&#45;&gt;Node24 -->
<g id="edge63" class="edge"><title>Node45&#45;&gt;Node24</title>
<path fill="none" stroke="midnightblue" d="M285.387,-501.657C350.328,-488.742 484.626,-472.046 575,-529.5 598.377,-544.361 632.131,-625.076 643.275,-652.994"/>
<polygon fill="midnightblue" stroke="midnightblue" points="284.288,-498.31 275.205,-503.765 285.707,-505.165 284.288,-498.31"/>
</g>
<!-- Node47 -->
<g id="node47" class="node"><title>Node47</title>
<g id="a_node47"><a xlink:href="../../dc/de7/interface_kensho_lua_wrapper.html#a7d10aa0242861cdd109d3da9383882a2" target="_top" xlink:title="&#45;[KenshoLuaWrapper\l evaluate]">
<polygon fill="none" stroke="black" points="192,-77.5 192,-107.5 301,-107.5 301,-77.5 192,-77.5"/>
<text text-anchor="start" x="200" y="-95.5" font-family="Helvetica,sans-Serif" font-size="10.00">&#45;[KenshoLuaWrapper</text>
<text text-anchor="middle" x="246.5" y="-84.5" font-family="Helvetica,sans-Serif" font-size="10.00"> evaluate]</text>
</a>
</g>
</g>
<!-- Node46&#45;&gt;Node47 -->
<g id="edge65" class="edge"><title>Node46&#45;&gt;Node47</title>
<path fill="none" stroke="midnightblue" d="M126.958,-315.746C151.573,-269.389 214.915,-150.1 237.418,-107.72"/>
<polygon fill="midnightblue" stroke="midnightblue" points="123.795,-314.24 122.197,-324.714 129.978,-317.523 123.795,-314.24"/>
</g>
<!-- Node48 -->
<g id="node48" class="node"><title>Node48</title>
<g id="a_node48"><a xlink:href="../../dc/de7/interface_kensho_lua_wrapper.html#af6db46358f8858a18b55388aa3af211d" target="_top" xlink:title="&#45;[KenshoLuaWrapper\l initWithKensho:context\l:code:]">
<polygon fill="none" stroke="black" points="337,-99 337,-140 451,-140 451,-99 337,-99"/>
<text text-anchor="start" x="345" y="-128" font-family="Helvetica,sans-Serif" font-size="10.00">&#45;[KenshoLuaWrapper</text>
<text text-anchor="start" x="345" y="-117" font-family="Helvetica,sans-Serif" font-size="10.00"> initWithKensho:context</text>
<text text-anchor="middle" x="394" y="-106" font-family="Helvetica,sans-Serif" font-size="10.00">:code:]</text>
</a>
</g>
</g>
<!-- Node47&#45;&gt;Node48 -->
<g id="edge66" class="edge"><title>Node47&#45;&gt;Node48</title>
<path fill="none" stroke="midnightblue" d="M311.098,-104.302C319.563,-105.873 328.197,-107.475 336.53,-109.021"/>
<polygon fill="midnightblue" stroke="midnightblue" points="311.736,-100.86 301.265,-102.477 310.459,-107.743 311.736,-100.86"/>
</g>
<!-- Node49 -->
<g id="node49" class="node"><title>Node49</title>
<g id="a_node49"><a xlink:href="../../dc/de7/interface_kensho_lua_wrapper.html#a5555e0979799446611baee70104555c6" target="_top" xlink:title="&#45;[KenshoLuaWrapper\l evaluate:]">
<polygon fill="none" stroke="red" points="339.5,-49.5 339.5,-79.5 448.5,-79.5 448.5,-49.5 339.5,-49.5"/>
<text text-anchor="start" x="347.5" y="-67.5" font-family="Helvetica,sans-Serif" font-size="10.00">&#45;[KenshoLuaWrapper</text>
<text text-anchor="middle" x="394" y="-56.5" font-family="Helvetica,sans-Serif" font-size="10.00"> evaluate:]</text>
</a>
</g>
</g>
<!-- Node47&#45;&gt;Node49 -->
<g id="edge67" class="edge"><title>Node47&#45;&gt;Node49</title>
<path fill="none" stroke="midnightblue" d="M311.339,-80.2148C320.723,-78.409 330.307,-76.5646 339.456,-74.8041"/>
<polygon fill="midnightblue" stroke="midnightblue" points="310.424,-76.8266 301.265,-82.1534 311.747,-83.7005 310.424,-76.8266"/>
</g>
<!-- Node50 -->
<g id="node50" class="node"><title>Node50</title>
<g id="a_node50"><a xlink:href="../../dc/de7/interface_kensho_lua_wrapper.html#a0bb5e125d727942726d707f8b59009dc" target="_top" xlink:title="&#45;[KenshoLuaWrapper\l observableUpdated:]">
<polygon fill="none" stroke="black" points="339.5,-0.5 339.5,-30.5 448.5,-30.5 448.5,-0.5 339.5,-0.5"/>
<text text-anchor="start" x="347.5" y="-18.5" font-family="Helvetica,sans-Serif" font-size="10.00">&#45;[KenshoLuaWrapper</text>
<text text-anchor="middle" x="394" y="-7.5" font-family="Helvetica,sans-Serif" font-size="10.00"> observableUpdated:]</text>
</a>
</g>
</g>
<!-- Node47&#45;&gt;Node50 -->
<g id="edge68" class="edge"><title>Node47&#45;&gt;Node50</title>
<path fill="none" stroke="midnightblue" d="M279.806,-71.9925C296.576,-61.7023 317.572,-49.3632 337,-39.5 343.036,-36.4355 349.554,-33.4033 355.936,-30.5787"/>
<polygon fill="midnightblue" stroke="midnightblue" points="277.62,-69.2293 270.961,-77.4697 281.305,-75.1807 277.62,-69.2293"/>
</g>
</g>
</svg>
