<?xml version="1.0" encoding="UTF-8" standalone="no"?>
<!DOCTYPE svg PUBLIC "-//W3C//DTD SVG 1.1//EN"
 "http://www.w3.org/Graphics/SVG/1.1/DTD/svg11.dtd">
<!-- Generated by graphviz version 2.38.0 (20140413.2041)
 -->
<!-- Title: luaL_getsubtable Pages: 1 -->
<svg width="934pt" height="151pt"
 viewBox="0.00 0.00 934.00 151.00" xmlns="http://www.w3.org/2000/svg" xmlns:xlink="http://www.w3.org/1999/xlink">
<g id="graph0" class="graph" transform="scale(1 1) rotate(0) translate(4 147)">
<title>luaL_getsubtable</title>
<!-- Node1 -->
<g id="node1" class="node"><title>Node1</title>
<polygon fill="#bfbfbf" stroke="black" points="0,-38.5 0,-57.5 90,-57.5 90,-38.5 0,-38.5"/>
<text text-anchor="middle" x="45" y="-45.5" font-family="Helvetica,sans-Serif" font-size="10.00">luaL_getsubtable</text>
</g>
<!-- Node2 -->
<g id="node2" class="node"><title>Node2</title>
<g id="a_node2"><a xlink:href="../../d6/d07/lualib_8h.html#a3744dadc460fb2a20df474eef4d4253d" target="_top" xlink:title="luaL_openlibs">
<polygon fill="none" stroke="black" points="256,-57.5 256,-76.5 332,-76.5 332,-57.5 256,-57.5"/>
<text text-anchor="middle" x="294" y="-64.5" font-family="Helvetica,sans-Serif" font-size="10.00">luaL_openlibs</text>
</a>
</g>
</g>
<!-- Node1&#45;&gt;Node2 -->
<g id="edge1" class="edge"><title>Node1&#45;&gt;Node2</title>
<path fill="none" stroke="midnightblue" d="M88.2268,-59.9699C100.323,-62.8676 113.594,-65.547 126,-67 170.346,-72.1939 221.772,-71.1389 255.712,-69.4736"/>
<polygon fill="midnightblue" stroke="midnightblue" points="88.9383,-56.54 78.3876,-57.5066 87.2382,-63.3305 88.9383,-56.54"/>
</g>
<!-- Node9 -->
<g id="node9" class="node"><title>Node9</title>
<g id="a_node9"><a xlink:href="../../da/d29/lauxlib_8h.html#af6e3e3ca0a445a50f34cfc26f89c7d61" target="_top" xlink:title="luaL_requiref">
<polygon fill="none" stroke="black" points="138.5,-38.5 138.5,-57.5 207.5,-57.5 207.5,-38.5 138.5,-38.5"/>
<text text-anchor="middle" x="173" y="-45.5" font-family="Helvetica,sans-Serif" font-size="10.00">luaL_requiref</text>
</a>
</g>
</g>
<!-- Node1&#45;&gt;Node9 -->
<g id="edge9" class="edge"><title>Node1&#45;&gt;Node9</title>
<path fill="none" stroke="midnightblue" d="M100.322,-48C113.294,-48 126.766,-48 138.483,-48"/>
<polygon fill="midnightblue" stroke="midnightblue" points="100.069,-44.5001 90.0687,-48 100.069,-51.5001 100.069,-44.5001"/>
</g>
<!-- Node10 -->
<g id="node10" class="node"><title>Node10</title>
<g id="a_node10"><a xlink:href="../../d6/d07/lualib_8h.html#a05e0befc0439f926b6152129ab4f8dea" target="_top" xlink:title="luaopen_package">
<polygon fill="none" stroke="black" points="126,-0.5 126,-19.5 220,-19.5 220,-0.5 126,-0.5"/>
<text text-anchor="middle" x="173" y="-7.5" font-family="Helvetica,sans-Serif" font-size="10.00">luaopen_package</text>
</a>
</g>
</g>
<!-- Node1&#45;&gt;Node10 -->
<g id="edge11" class="edge"><title>Node1&#45;&gt;Node10</title>
<path fill="none" stroke="midnightblue" d="M87.5644,-35.4647C104.705,-30.2952 124.25,-24.4009 140.215,-19.5859"/>
<polygon fill="midnightblue" stroke="midnightblue" points="86.3586,-32.1726 77.7951,-38.411 88.3798,-38.8744 86.3586,-32.1726"/>
</g>
<!-- Node3 -->
<g id="node3" class="node"><title>Node3</title>
<g id="a_node3"><a xlink:href="../../dc/de7/interface_kensho_lua_wrapper.html#a7d10aa0242861cdd109d3da9383882a2" target="_top" xlink:title="&#45;[KenshoLuaWrapper\l evaluate]">
<polygon fill="none" stroke="black" points="368,-52 368,-82 477,-82 477,-52 368,-52"/>
<text text-anchor="start" x="376" y="-70" font-family="Helvetica,sans-Serif" font-size="10.00">&#45;[KenshoLuaWrapper</text>
<text text-anchor="middle" x="422.5" y="-59" font-family="Helvetica,sans-Serif" font-size="10.00"> evaluate]</text>
</a>
</g>
</g>
<!-- Node2&#45;&gt;Node3 -->
<g id="edge2" class="edge"><title>Node2&#45;&gt;Node3</title>
<path fill="none" stroke="midnightblue" d="M342.431,-67C350.649,-67 359.248,-67 367.623,-67"/>
<polygon fill="midnightblue" stroke="midnightblue" points="342.27,-63.5001 332.27,-67 342.27,-70.5001 342.27,-63.5001"/>
</g>
<!-- Node4 -->
<g id="node4" class="node"><title>Node4</title>
<g id="a_node4"><a xlink:href="../../dc/de7/interface_kensho_lua_wrapper.html#af6db46358f8858a18b55388aa3af211d" target="_top" xlink:title="&#45;[KenshoLuaWrapper\l initWithKensho:context\l:code:]">
<polygon fill="none" stroke="black" points="513,-101.5 513,-142.5 627,-142.5 627,-101.5 513,-101.5"/>
<text text-anchor="start" x="521" y="-130.5" font-family="Helvetica,sans-Serif" font-size="10.00">&#45;[KenshoLuaWrapper</text>
<text text-anchor="start" x="521" y="-119.5" font-family="Helvetica,sans-Serif" font-size="10.00"> initWithKensho:context</text>
<text text-anchor="middle" x="570" y="-108.5" font-family="Helvetica,sans-Serif" font-size="10.00">:code:]</text>
</a>
</g>
</g>
<!-- Node3&#45;&gt;Node4 -->
<g id="edge3" class="edge"><title>Node3&#45;&gt;Node4</title>
<path fill="none" stroke="midnightblue" d="M472.799,-85.6353C486.233,-90.7134 500.861,-96.243 514.563,-101.422"/>
<polygon fill="midnightblue" stroke="midnightblue" points="473.85,-82.291 463.259,-82.029 471.375,-88.8388 473.85,-82.291"/>
</g>
<!-- Node5 -->
<g id="node5" class="node"><title>Node5</title>
<g id="a_node5"><a xlink:href="../../dc/de7/interface_kensho_lua_wrapper.html#a5555e0979799446611baee70104555c6" target="_top" xlink:title="&#45;[KenshoLuaWrapper\l evaluate:]">
<polygon fill="none" stroke="black" points="515.5,-52 515.5,-82 624.5,-82 624.5,-52 515.5,-52"/>
<text text-anchor="start" x="523.5" y="-70" font-family="Helvetica,sans-Serif" font-size="10.00">&#45;[KenshoLuaWrapper</text>
<text text-anchor="middle" x="570" y="-59" font-family="Helvetica,sans-Serif" font-size="10.00"> evaluate:]</text>
</a>
</g>
</g>
<!-- Node3&#45;&gt;Node5 -->
<g id="edge4" class="edge"><title>Node3&#45;&gt;Node5</title>
<path fill="none" stroke="midnightblue" d="M487.339,-67C496.723,-67 506.307,-67 515.456,-67"/>
<polygon fill="midnightblue" stroke="midnightblue" points="487.265,-63.5001 477.265,-67 487.265,-70.5001 487.265,-63.5001"/>
</g>
<!-- Node8 -->
<g id="node8" class="node"><title>Node8</title>
<g id="a_node8"><a xlink:href="../../dc/de7/interface_kensho_lua_wrapper.html#a0bb5e125d727942726d707f8b59009dc" target="_top" xlink:title="&#45;[KenshoLuaWrapper\l observableUpdated:]">
<polygon fill="none" stroke="black" points="515.5,-3 515.5,-33 624.5,-33 624.5,-3 515.5,-3"/>
<text text-anchor="start" x="523.5" y="-21" font-family="Helvetica,sans-Serif" font-size="10.00">&#45;[KenshoLuaWrapper</text>
<text text-anchor="middle" x="570" y="-10" font-family="Helvetica,sans-Serif" font-size="10.00"> observableUpdated:]</text>
</a>
</g>
</g>
<!-- Node3&#45;&gt;Node8 -->
<g id="edge8" class="edge"><title>Node3&#45;&gt;Node8</title>
<path fill="none" stroke="midnightblue" d="M478.153,-48.5945C493.376,-43.4678 509.729,-37.9608 524.306,-33.0516"/>
<polygon fill="midnightblue" stroke="midnightblue" points="476.702,-45.39 468.342,-51.8986 478.936,-52.0239 476.702,-45.39"/>
</g>
<!-- Node6 -->
<g id="node6" class="node"><title>Node6</title>
<g id="a_node6"><a xlink:href="../../da/d0b/interface_kensho.html#a07b4d14db676108e1a94a1f10e100fb4" target="_top" xlink:title="&#45;[Kensho bindToView\l:context:]">
<polygon fill="none" stroke="black" points="663,-52 663,-82 771,-82 771,-52 663,-52"/>
<text text-anchor="start" x="671" y="-70" font-family="Helvetica,sans-Serif" font-size="10.00">&#45;[Kensho bindToView</text>
<text text-anchor="middle" x="717" y="-59" font-family="Helvetica,sans-Serif" font-size="10.00">:context:]</text>
</a>
</g>
</g>
<!-- Node5&#45;&gt;Node6 -->
<g id="edge5" class="edge"><title>Node5&#45;&gt;Node6</title>
<path fill="none" stroke="midnightblue" d="M634.62,-67C643.971,-67 653.523,-67 662.64,-67"/>
<polygon fill="midnightblue" stroke="midnightblue" points="634.581,-63.5001 624.581,-67 634.581,-70.5001 634.581,-63.5001"/>
</g>
<!-- Node6&#45;&gt;Node6 -->
<g id="edge7" class="edge"><title>Node6&#45;&gt;Node6</title>
<path fill="none" stroke="midnightblue" d="M691.058,-92.4579C694.277,-97.179 702.925,-100.5 717,-100.5 740.098,-100.5 748.579,-91.5566 742.444,-82.159"/>
<polygon fill="midnightblue" stroke="midnightblue" points="694.568,-92.3167 691.556,-82.159 687.577,-91.9779 694.568,-92.3167"/>
</g>
<!-- Node7 -->
<g id="node7" class="node"><title>Node7</title>
<g id="a_node7"><a xlink:href="../../da/d0b/interface_kensho.html#a1019e8223ee907bab87501ae483e609f" target="_top" xlink:title="&#45;[Kensho applyBindings\l:viewModel:]">
<polygon fill="none" stroke="black" points="807,-52 807,-82 926,-82 926,-52 807,-52"/>
<text text-anchor="start" x="815" y="-70" font-family="Helvetica,sans-Serif" font-size="10.00">&#45;[Kensho applyBindings</text>
<text text-anchor="middle" x="866.5" y="-59" font-family="Helvetica,sans-Serif" font-size="10.00">:viewModel:]</text>
</a>
</g>
</g>
<!-- Node6&#45;&gt;Node7 -->
<g id="edge6" class="edge"><title>Node6&#45;&gt;Node7</title>
<path fill="none" stroke="midnightblue" d="M781.421,-67C789.859,-67 798.481,-67 806.833,-67"/>
<polygon fill="midnightblue" stroke="midnightblue" points="781.251,-63.5001 771.251,-67 781.251,-70.5001 781.251,-63.5001"/>
</g>
<!-- Node9&#45;&gt;Node2 -->
<g id="edge10" class="edge"><title>Node9&#45;&gt;Node2</title>
<path fill="none" stroke="midnightblue" d="M217.947,-55.0167C230.383,-57.0023 243.794,-59.1436 255.791,-61.0591"/>
<polygon fill="midnightblue" stroke="midnightblue" points="218.209,-51.5143 207.782,-53.3938 217.105,-58.4268 218.209,-51.5143"/>
</g>
</g>
</svg>
