<?xml version="1.0" encoding="UTF-8" standalone="no"?>
<!DOCTYPE svg PUBLIC "-//W3C//DTD SVG 1.1//EN"
 "http://www.w3.org/Graphics/SVG/1.1/DTD/svg11.dtd">
<!-- Generated by graphviz version 2.38.0 (20140413.2041)
 -->
<!-- Title: luaL_setmetatable Pages: 1 -->
<svg width="572pt" height="180pt"
 viewBox="0.00 0.00 572.00 180.00" xmlns="http://www.w3.org/2000/svg" xmlns:xlink="http://www.w3.org/1999/xlink">
<g id="graph0" class="graph" transform="scale(1 1) rotate(0) translate(4 176)">
<title>luaL_setmetatable</title>
<!-- Node1 -->
<g id="node1" class="node"><title>Node1</title>
<polygon fill="#bfbfbf" stroke="black" points="0,-38.5 0,-57.5 95,-57.5 95,-38.5 0,-38.5"/>
<text text-anchor="middle" x="47.5" y="-45.5" font-family="Helvetica,sans-Serif" font-size="10.00">luaL_setmetatable</text>
</g>
<!-- Node2 -->
<g id="node2" class="node"><title>Node2</title>
<g id="a_node2"><a xlink:href="../../de/df3/liolib_8c.html#ab456fc51383d039a5a24c702060aba8e" target="_top" xlink:title="newprefile">
<polygon fill="none" stroke="black" points="131,-38.5 131,-57.5 190,-57.5 190,-38.5 131,-38.5"/>
<text text-anchor="middle" x="160.5" y="-45.5" font-family="Helvetica,sans-Serif" font-size="10.00">newprefile</text>
</a>
</g>
</g>
<!-- Node1&#45;&gt;Node2 -->
<g id="edge1" class="edge"><title>Node1&#45;&gt;Node2</title>
<path fill="none" stroke="midnightblue" d="M105.533,-48C114.315,-48 123.046,-48 130.845,-48"/>
<polygon fill="midnightblue" stroke="midnightblue" points="105.252,-44.5001 95.2523,-48 105.252,-51.5001 105.252,-44.5001"/>
</g>
<!-- Node3 -->
<g id="node3" class="node"><title>Node3</title>
<g id="a_node3"><a xlink:href="../../de/df3/liolib_8c.html#a57c6c258a611b738f0ef34584ca6e7ab" target="_top" xlink:title="newfile">
<polygon fill="none" stroke="black" points="235.5,-76.5 235.5,-95.5 281.5,-95.5 281.5,-76.5 235.5,-76.5"/>
<text text-anchor="middle" x="258.5" y="-83.5" font-family="Helvetica,sans-Serif" font-size="10.00">newfile</text>
</a>
</g>
</g>
<!-- Node2&#45;&gt;Node3 -->
<g id="edge2" class="edge"><title>Node2&#45;&gt;Node3</title>
<path fill="none" stroke="midnightblue" d="M195.064,-61.2858C208.378,-66.5559 223.326,-72.4728 235.257,-77.1955"/>
<polygon fill="midnightblue" stroke="midnightblue" points="196.311,-58.0152 185.725,-57.589 193.735,-64.5239 196.311,-58.0152"/>
</g>
<!-- Node11 -->
<g id="node11" class="node"><title>Node11</title>
<g id="a_node11"><a xlink:href="../../de/df3/liolib_8c.html#a8cc0b2b08409fb97e5cc80a0caf9b5fd" target="_top" xlink:title="io_popen">
<polygon fill="none" stroke="black" points="230.5,-38.5 230.5,-57.5 286.5,-57.5 286.5,-38.5 230.5,-38.5"/>
<text text-anchor="middle" x="258.5" y="-45.5" font-family="Helvetica,sans-Serif" font-size="10.00">io_popen</text>
</a>
</g>
</g>
<!-- Node2&#45;&gt;Node11 -->
<g id="edge10" class="edge"><title>Node2&#45;&gt;Node11</title>
<path fill="none" stroke="midnightblue" d="M200.235,-48C210.284,-48 220.897,-48 230.22,-48"/>
<polygon fill="midnightblue" stroke="midnightblue" points="200.043,-44.5001 190.043,-48 200.043,-51.5001 200.043,-44.5001"/>
</g>
<!-- Node12 -->
<g id="node12" class="node"><title>Node12</title>
<g id="a_node12"><a xlink:href="../../de/df3/liolib_8c.html#a0a80ad2f9dbb3b7238efae7738bb7569" target="_top" xlink:title="createstdfile">
<polygon fill="none" stroke="black" points="226,-0.5 226,-19.5 291,-19.5 291,-0.5 226,-0.5"/>
<text text-anchor="middle" x="258.5" y="-7.5" font-family="Helvetica,sans-Serif" font-size="10.00">createstdfile</text>
</a>
</g>
</g>
<!-- Node2&#45;&gt;Node12 -->
<g id="edge11" class="edge"><title>Node2&#45;&gt;Node12</title>
<path fill="none" stroke="midnightblue" d="M195.382,-34.5886C207.889,-29.6376 221.801,-24.1309 233.283,-19.5859"/>
<polygon fill="midnightblue" stroke="midnightblue" points="193.735,-31.4761 185.725,-38.411 196.311,-37.9848 193.735,-31.4761"/>
</g>
<!-- Node4 -->
<g id="node4" class="node"><title>Node4</title>
<g id="a_node4"><a xlink:href="../../de/df3/liolib_8c.html#a91ec9c6fa0ef33085f29a15532ac80a7" target="_top" xlink:title="opencheck">
<polygon fill="none" stroke="black" points="327.5,-114.5 327.5,-133.5 389.5,-133.5 389.5,-114.5 327.5,-114.5"/>
<text text-anchor="middle" x="358.5" y="-121.5" font-family="Helvetica,sans-Serif" font-size="10.00">opencheck</text>
</a>
</g>
</g>
<!-- Node3&#45;&gt;Node4 -->
<g id="edge3" class="edge"><title>Node3&#45;&gt;Node4</title>
<path fill="none" stroke="midnightblue" d="M291.172,-98.2809C304.718,-103.533 320.291,-109.572 332.942,-114.478"/>
<polygon fill="midnightblue" stroke="midnightblue" points="292.327,-94.9749 281.738,-94.6228 289.796,-101.501 292.327,-94.9749"/>
</g>
<!-- Node9 -->
<g id="node9" class="node"><title>Node9</title>
<g id="a_node9"><a xlink:href="../../de/df3/liolib_8c.html#ab4a969d43dbe0f89e98307e5b421f8a7" target="_top" xlink:title="io_open">
<polygon fill="none" stroke="black" points="333.5,-76.5 333.5,-95.5 383.5,-95.5 383.5,-76.5 333.5,-76.5"/>
<text text-anchor="middle" x="358.5" y="-83.5" font-family="Helvetica,sans-Serif" font-size="10.00">io_open</text>
</a>
</g>
</g>
<!-- Node3&#45;&gt;Node9 -->
<g id="edge8" class="edge"><title>Node3&#45;&gt;Node9</title>
<path fill="none" stroke="midnightblue" d="M292.043,-86C305.507,-86 320.847,-86 333.291,-86"/>
<polygon fill="midnightblue" stroke="midnightblue" points="291.738,-82.5001 281.738,-86 291.738,-89.5001 291.738,-82.5001"/>
</g>
<!-- Node10 -->
<g id="node10" class="node"><title>Node10</title>
<g id="a_node10"><a xlink:href="../../de/df3/liolib_8c.html#a0347de9dda8be02044075c96482eddb3" target="_top" xlink:title="io_tmpfile">
<polygon fill="none" stroke="black" points="331,-38.5 331,-57.5 386,-57.5 386,-38.5 331,-38.5"/>
<text text-anchor="middle" x="358.5" y="-45.5" font-family="Helvetica,sans-Serif" font-size="10.00">io_tmpfile</text>
</a>
</g>
</g>
<!-- Node3&#45;&gt;Node10 -->
<g id="edge9" class="edge"><title>Node3&#45;&gt;Node10</title>
<path fill="none" stroke="midnightblue" d="M291.172,-73.7191C304.718,-68.4667 320.291,-62.4279 332.942,-57.5223"/>
<polygon fill="midnightblue" stroke="midnightblue" points="289.796,-70.4986 281.738,-77.3772 292.327,-77.0251 289.796,-70.4986"/>
</g>
<!-- Node5 -->
<g id="node5" class="node"><title>Node5</title>
<g id="a_node5"><a xlink:href="../../de/df3/liolib_8c.html#aae942558ff528b4e1a483297c64e6886" target="_top" xlink:title="g_iofile">
<polygon fill="none" stroke="black" points="427.5,-133.5 427.5,-152.5 471.5,-152.5 471.5,-133.5 427.5,-133.5"/>
<text text-anchor="middle" x="449.5" y="-140.5" font-family="Helvetica,sans-Serif" font-size="10.00">g_iofile</text>
</a>
</g>
</g>
<!-- Node4&#45;&gt;Node5 -->
<g id="edge4" class="edge"><title>Node4&#45;&gt;Node5</title>
<path fill="none" stroke="midnightblue" d="M399.482,-132.536C409.108,-134.59 419.018,-136.706 427.387,-138.493"/>
<polygon fill="midnightblue" stroke="midnightblue" points="400.142,-129.098 389.631,-130.433 398.68,-135.943 400.142,-129.098"/>
</g>
<!-- Node8 -->
<g id="node8" class="node"><title>Node8</title>
<g id="a_node8"><a xlink:href="../../de/df3/liolib_8c.html#ab08031b51605d4ef676ec33a3b96a286" target="_top" xlink:title="io_lines">
<polygon fill="none" stroke="black" points="426,-95.5 426,-114.5 473,-114.5 473,-95.5 426,-95.5"/>
<text text-anchor="middle" x="449.5" y="-102.5" font-family="Helvetica,sans-Serif" font-size="10.00">io_lines</text>
</a>
</g>
</g>
<!-- Node4&#45;&gt;Node8 -->
<g id="edge7" class="edge"><title>Node4&#45;&gt;Node8</title>
<path fill="none" stroke="midnightblue" d="M399.658,-115.427C408.701,-113.496 417.985,-111.514 425.998,-109.804"/>
<polygon fill="midnightblue" stroke="midnightblue" points="398.68,-112.057 389.631,-117.567 400.142,-118.902 398.68,-112.057"/>
</g>
<!-- Node6 -->
<g id="node6" class="node"><title>Node6</title>
<g id="a_node6"><a xlink:href="../../de/df3/liolib_8c.html#a827044fde6f2c21ab965ba3d729f6a0f" target="_top" xlink:title="io_input">
<polygon fill="none" stroke="black" points="512,-152.5 512,-171.5 561,-171.5 561,-152.5 512,-152.5"/>
<text text-anchor="middle" x="536.5" y="-159.5" font-family="Helvetica,sans-Serif" font-size="10.00">io_input</text>
</a>
</g>
</g>
<!-- Node5&#45;&gt;Node6 -->
<g id="edge5" class="edge"><title>Node5&#45;&gt;Node6</title>
<path fill="none" stroke="midnightblue" d="M481.477,-149.924C491.457,-152.155 502.354,-154.591 511.731,-156.687"/>
<polygon fill="midnightblue" stroke="midnightblue" points="482.034,-146.462 471.511,-147.697 480.507,-153.294 482.034,-146.462"/>
</g>
<!-- Node7 -->
<g id="node7" class="node"><title>Node7</title>
<g id="a_node7"><a xlink:href="../../de/df3/liolib_8c.html#a4464f89f0151ad432557b0a51258582c" target="_top" xlink:title="io_output">
<polygon fill="none" stroke="black" points="509,-114.5 509,-133.5 564,-133.5 564,-114.5 509,-114.5"/>
<text text-anchor="middle" x="536.5" y="-121.5" font-family="Helvetica,sans-Serif" font-size="10.00">io_output</text>
</a>
</g>
</g>
<!-- Node5&#45;&gt;Node7 -->
<g id="edge6" class="edge"><title>Node5&#45;&gt;Node7</title>
<path fill="none" stroke="midnightblue" d="M481.307,-136.114C490.359,-134.09 500.177,-131.896 508.939,-129.937"/>
<polygon fill="midnightblue" stroke="midnightblue" points="480.507,-132.706 471.511,-138.303 482.034,-139.538 480.507,-132.706"/>
</g>
<!-- Node13 -->
<g id="node13" class="node"><title>Node13</title>
<g id="a_node13"><a xlink:href="../../d6/d07/lualib_8h.html#a686b841d953f3113ddc7538d69debce7" target="_top" xlink:title="luaopen_io">
<polygon fill="none" stroke="black" points="327,-0.5 327,-19.5 390,-19.5 390,-0.5 327,-0.5"/>
<text text-anchor="middle" x="358.5" y="-7.5" font-family="Helvetica,sans-Serif" font-size="10.00">luaopen_io</text>
</a>
</g>
</g>
<!-- Node12&#45;&gt;Node13 -->
<g id="edge12" class="edge"><title>Node12&#45;&gt;Node13</title>
<path fill="none" stroke="midnightblue" d="M301.238,-10C309.775,-10 318.611,-10 326.681,-10"/>
<polygon fill="midnightblue" stroke="midnightblue" points="301.047,-6.5001 291.047,-10 301.047,-13.5001 301.047,-6.5001"/>
</g>
</g>
</svg>
