<?xml version="1.0" encoding="UTF-8" standalone="no"?>
<!DOCTYPE svg PUBLIC "-//W3C//DTD SVG 1.1//EN"
 "http://www.w3.org/Graphics/SVG/1.1/DTD/svg11.dtd">
<!-- Generated by graphviz version 2.38.0 (20140413.2041)
 -->
<!-- Title: newfile Pages: 1 -->
<svg width="326pt" height="123pt"
 viewBox="0.00 0.00 326.00 123.00" xmlns="http://www.w3.org/2000/svg" xmlns:xlink="http://www.w3.org/1999/xlink">
<g id="graph0" class="graph" transform="scale(1 1) rotate(0) translate(4 119)">
<title>newfile</title>
<!-- Node1 -->
<g id="node1" class="node"><title>Node1</title>
<polygon fill="#bfbfbf" stroke="black" points="0,-57.5 0,-76.5 46,-76.5 46,-57.5 0,-57.5"/>
<text text-anchor="middle" x="23" y="-64.5" font-family="Helvetica,sans-Serif" font-size="10.00">newfile</text>
</g>
<!-- Node2 -->
<g id="node2" class="node"><title>Node2</title>
<g id="a_node2"><a xlink:href="../../de/df3/liolib_8c.html#ab4a969d43dbe0f89e98307e5b421f8a7" target="_top" xlink:title="io_open">
<polygon fill="none" stroke="black" points="88,-95.5 88,-114.5 138,-114.5 138,-95.5 88,-95.5"/>
<text text-anchor="middle" x="113" y="-102.5" font-family="Helvetica,sans-Serif" font-size="10.00">io_open</text>
</a>
</g>
</g>
<!-- Node1&#45;&gt;Node2 -->
<g id="edge1" class="edge"><title>Node1&#45;&gt;Node2</title>
<path fill="none" stroke="midnightblue" d="M55.399,-80.5587C66.7758,-85.4714 79.38,-90.9141 89.801,-95.4141"/>
<polygon fill="midnightblue" stroke="midnightblue" points="56.7743,-77.3402 46.2061,-76.589 53.9992,-83.7666 56.7743,-77.3402"/>
</g>
<!-- Node3 -->
<g id="node3" class="node"><title>Node3</title>
<g id="a_node3"><a xlink:href="../../de/df3/liolib_8c.html#a0347de9dda8be02044075c96482eddb3" target="_top" xlink:title="io_tmpfile">
<polygon fill="none" stroke="black" points="85.5,-57.5 85.5,-76.5 140.5,-76.5 140.5,-57.5 85.5,-57.5"/>
<text text-anchor="middle" x="113" y="-64.5" font-family="Helvetica,sans-Serif" font-size="10.00">io_tmpfile</text>
</a>
</g>
</g>
<!-- Node1&#45;&gt;Node3 -->
<g id="edge2" class="edge"><title>Node1&#45;&gt;Node3</title>
<path fill="none" stroke="midnightblue" d="M56.2087,-67C65.8071,-67 76.2138,-67 85.4106,-67"/>
<polygon fill="midnightblue" stroke="midnightblue" points="56.2062,-63.5001 46.2061,-67 56.2061,-70.5001 56.2062,-63.5001"/>
</g>
<!-- Node4 -->
<g id="node4" class="node"><title>Node4</title>
<g id="a_node4"><a xlink:href="../../de/df3/liolib_8c.html#a91ec9c6fa0ef33085f29a15532ac80a7" target="_top" xlink:title="opencheck">
<polygon fill="none" stroke="black" points="82,-19.5 82,-38.5 144,-38.5 144,-19.5 82,-19.5"/>
<text text-anchor="middle" x="113" y="-26.5" font-family="Helvetica,sans-Serif" font-size="10.00">opencheck</text>
</a>
</g>
</g>
<!-- Node1&#45;&gt;Node4 -->
<g id="edge3" class="edge"><title>Node1&#45;&gt;Node4</title>
<path fill="none" stroke="midnightblue" d="M55.399,-53.4413C66.7758,-48.5286 79.38,-43.0859 89.801,-38.5859"/>
<polygon fill="midnightblue" stroke="midnightblue" points="53.9992,-50.2334 46.2061,-57.411 56.7743,-56.6598 53.9992,-50.2334"/>
</g>
<!-- Node5 -->
<g id="node5" class="node"><title>Node5</title>
<g id="a_node5"><a xlink:href="../../de/df3/liolib_8c.html#aae942558ff528b4e1a483297c64e6886" target="_top" xlink:title="g_iofile">
<polygon fill="none" stroke="black" points="181.5,-38.5 181.5,-57.5 225.5,-57.5 225.5,-38.5 181.5,-38.5"/>
<text text-anchor="middle" x="203.5" y="-45.5" font-family="Helvetica,sans-Serif" font-size="10.00">g_iofile</text>
</a>
</g>
</g>
<!-- Node4&#45;&gt;Node5 -->
<g id="edge4" class="edge"><title>Node4&#45;&gt;Node5</title>
<path fill="none" stroke="midnightblue" d="M154.428,-37.6794C163.773,-39.6858 173.348,-41.7413 181.467,-43.4845"/>
<polygon fill="midnightblue" stroke="midnightblue" points="154.969,-34.2158 144.457,-35.5387 153.499,-41.0599 154.969,-34.2158"/>
</g>
<!-- Node8 -->
<g id="node8" class="node"><title>Node8</title>
<g id="a_node8"><a xlink:href="../../de/df3/liolib_8c.html#ab08031b51605d4ef676ec33a3b96a286" target="_top" xlink:title="io_lines">
<polygon fill="none" stroke="black" points="180,-0.5 180,-19.5 227,-19.5 227,-0.5 180,-0.5"/>
<text text-anchor="middle" x="203.5" y="-7.5" font-family="Helvetica,sans-Serif" font-size="10.00">io_lines</text>
</a>
</g>
</g>
<!-- Node4&#45;&gt;Node8 -->
<g id="edge7" class="edge"><title>Node4&#45;&gt;Node8</title>
<path fill="none" stroke="midnightblue" d="M154.496,-20.3059C163.194,-18.4386 172.087,-16.5294 179.817,-14.8698"/>
<polygon fill="midnightblue" stroke="midnightblue" points="153.499,-16.9401 144.457,-22.4613 154.969,-23.7842 153.499,-16.9401"/>
</g>
<!-- Node6 -->
<g id="node6" class="node"><title>Node6</title>
<g id="a_node6"><a xlink:href="../../de/df3/liolib_8c.html#a827044fde6f2c21ab965ba3d729f6a0f" target="_top" xlink:title="io_input">
<polygon fill="none" stroke="black" points="266,-57.5 266,-76.5 315,-76.5 315,-57.5 266,-57.5"/>
<text text-anchor="middle" x="290.5" y="-64.5" font-family="Helvetica,sans-Serif" font-size="10.00">io_input</text>
</a>
</g>
</g>
<!-- Node5&#45;&gt;Node6 -->
<g id="edge5" class="edge"><title>Node5&#45;&gt;Node6</title>
<path fill="none" stroke="midnightblue" d="M235.477,-54.9244C245.457,-57.1552 256.354,-59.591 265.731,-61.6869"/>
<polygon fill="midnightblue" stroke="midnightblue" points="236.034,-51.4625 225.511,-52.6966 234.507,-58.2939 236.034,-51.4625"/>
</g>
<!-- Node7 -->
<g id="node7" class="node"><title>Node7</title>
<g id="a_node7"><a xlink:href="../../de/df3/liolib_8c.html#a4464f89f0151ad432557b0a51258582c" target="_top" xlink:title="io_output">
<polygon fill="none" stroke="black" points="263,-19.5 263,-38.5 318,-38.5 318,-19.5 263,-19.5"/>
<text text-anchor="middle" x="290.5" y="-26.5" font-family="Helvetica,sans-Serif" font-size="10.00">io_output</text>
</a>
</g>
</g>
<!-- Node5&#45;&gt;Node7 -->
<g id="edge6" class="edge"><title>Node5&#45;&gt;Node7</title>
<path fill="none" stroke="midnightblue" d="M235.307,-41.1137C244.359,-39.0905 254.177,-36.8957 262.939,-34.9372"/>
<polygon fill="midnightblue" stroke="midnightblue" points="234.507,-37.7061 225.511,-43.3034 236.034,-44.5375 234.507,-37.7061"/>
</g>
</g>
</svg>
