<?xml version="1.0" encoding="UTF-8" standalone="no"?>
<!DOCTYPE svg PUBLIC "-//W3C//DTD SVG 1.1//EN"
 "http://www.w3.org/Graphics/SVG/1.1/DTD/svg11.dtd">
<!-- Generated by graphviz version 2.38.0 (20140413.2041)
 -->
<!-- Title: newprefile Pages: 1 -->
<svg width="441pt" height="161pt"
 viewBox="0.00 0.00 441.00 161.00" xmlns="http://www.w3.org/2000/svg" xmlns:xlink="http://www.w3.org/1999/xlink">
<g id="graph0" class="graph" transform="scale(1 1) rotate(0) translate(4 157)">
<title>newprefile</title>
<!-- Node1 -->
<g id="node1" class="node"><title>Node1</title>
<polygon fill="#bfbfbf" stroke="black" points="0,-95.5 0,-114.5 59,-114.5 59,-95.5 0,-95.5"/>
<text text-anchor="middle" x="29.5" y="-102.5" font-family="Helvetica,sans-Serif" font-size="10.00">newprefile</text>
</g>
<!-- Node2 -->
<g id="node2" class="node"><title>Node2</title>
<g id="a_node2"><a xlink:href="../../de/df3/liolib_8c.html#a0a80ad2f9dbb3b7238efae7738bb7569" target="_top" xlink:title="createstdfile">
<polygon fill="none" stroke="black" points="95,-133.5 95,-152.5 160,-152.5 160,-133.5 95,-133.5"/>
<text text-anchor="middle" x="127.5" y="-140.5" font-family="Helvetica,sans-Serif" font-size="10.00">createstdfile</text>
</a>
</g>
</g>
<!-- Node1&#45;&gt;Node2 -->
<g id="edge1" class="edge"><title>Node1&#45;&gt;Node2</title>
<path fill="none" stroke="midnightblue" d="M64.3816,-118.411C76.8892,-123.362 90.8009,-128.869 102.283,-133.414"/>
<polygon fill="midnightblue" stroke="midnightblue" points="65.3111,-115.015 54.7249,-114.589 62.7347,-121.524 65.3111,-115.015"/>
</g>
<!-- Node4 -->
<g id="node4" class="node"><title>Node4</title>
<g id="a_node4"><a xlink:href="../../de/df3/liolib_8c.html#a8cc0b2b08409fb97e5cc80a0caf9b5fd" target="_top" xlink:title="io_popen">
<polygon fill="none" stroke="black" points="99.5,-95.5 99.5,-114.5 155.5,-114.5 155.5,-95.5 99.5,-95.5"/>
<text text-anchor="middle" x="127.5" y="-102.5" font-family="Helvetica,sans-Serif" font-size="10.00">io_popen</text>
</a>
</g>
</g>
<!-- Node1&#45;&gt;Node4 -->
<g id="edge3" class="edge"><title>Node1&#45;&gt;Node4</title>
<path fill="none" stroke="midnightblue" d="M69.2346,-105C79.2843,-105 89.8974,-105 99.22,-105"/>
<polygon fill="midnightblue" stroke="midnightblue" points="69.0433,-101.5 59.0432,-105 69.0432,-108.5 69.0433,-101.5"/>
</g>
<!-- Node5 -->
<g id="node5" class="node"><title>Node5</title>
<g id="a_node5"><a xlink:href="../../de/df3/liolib_8c.html#a57c6c258a611b738f0ef34584ca6e7ab" target="_top" xlink:title="newfile">
<polygon fill="none" stroke="black" points="104.5,-57.5 104.5,-76.5 150.5,-76.5 150.5,-57.5 104.5,-57.5"/>
<text text-anchor="middle" x="127.5" y="-64.5" font-family="Helvetica,sans-Serif" font-size="10.00">newfile</text>
</a>
</g>
</g>
<!-- Node1&#45;&gt;Node5 -->
<g id="edge4" class="edge"><title>Node1&#45;&gt;Node5</title>
<path fill="none" stroke="midnightblue" d="M64.0642,-91.7142C77.3782,-86.4441 92.3259,-80.5272 104.257,-75.8045"/>
<polygon fill="midnightblue" stroke="midnightblue" points="62.7347,-88.4761 54.7249,-95.411 65.3111,-94.9848 62.7347,-88.4761"/>
</g>
<!-- Node3 -->
<g id="node3" class="node"><title>Node3</title>
<g id="a_node3"><a xlink:href="../../d6/d07/lualib_8h.html#a686b841d953f3113ddc7538d69debce7" target="_top" xlink:title="luaopen_io">
<polygon fill="none" stroke="black" points="196,-133.5 196,-152.5 259,-152.5 259,-133.5 196,-133.5"/>
<text text-anchor="middle" x="227.5" y="-140.5" font-family="Helvetica,sans-Serif" font-size="10.00">luaopen_io</text>
</a>
</g>
</g>
<!-- Node2&#45;&gt;Node3 -->
<g id="edge2" class="edge"><title>Node2&#45;&gt;Node3</title>
<path fill="none" stroke="midnightblue" d="M170.238,-143C178.775,-143 187.611,-143 195.681,-143"/>
<polygon fill="midnightblue" stroke="midnightblue" points="170.047,-139.5 160.047,-143 170.047,-146.5 170.047,-139.5"/>
</g>
<!-- Node6 -->
<g id="node6" class="node"><title>Node6</title>
<g id="a_node6"><a xlink:href="../../de/df3/liolib_8c.html#ab4a969d43dbe0f89e98307e5b421f8a7" target="_top" xlink:title="io_open">
<polygon fill="none" stroke="black" points="202.5,-95.5 202.5,-114.5 252.5,-114.5 252.5,-95.5 202.5,-95.5"/>
<text text-anchor="middle" x="227.5" y="-102.5" font-family="Helvetica,sans-Serif" font-size="10.00">io_open</text>
</a>
</g>
</g>
<!-- Node5&#45;&gt;Node6 -->
<g id="edge5" class="edge"><title>Node5&#45;&gt;Node6</title>
<path fill="none" stroke="midnightblue" d="M160.245,-79.3093C173.898,-84.6034 189.601,-90.6921 202.291,-95.6128"/>
<polygon fill="midnightblue" stroke="midnightblue" points="161.327,-75.9749 150.738,-75.6228 158.796,-82.5014 161.327,-75.9749"/>
</g>
<!-- Node7 -->
<g id="node7" class="node"><title>Node7</title>
<g id="a_node7"><a xlink:href="../../de/df3/liolib_8c.html#a0347de9dda8be02044075c96482eddb3" target="_top" xlink:title="io_tmpfile">
<polygon fill="none" stroke="black" points="200,-57.5 200,-76.5 255,-76.5 255,-57.5 200,-57.5"/>
<text text-anchor="middle" x="227.5" y="-64.5" font-family="Helvetica,sans-Serif" font-size="10.00">io_tmpfile</text>
</a>
</g>
</g>
<!-- Node5&#45;&gt;Node7 -->
<g id="edge6" class="edge"><title>Node5&#45;&gt;Node7</title>
<path fill="none" stroke="midnightblue" d="M160.866,-67C173.496,-67 187.798,-67 199.82,-67"/>
<polygon fill="midnightblue" stroke="midnightblue" points="160.738,-63.5001 150.738,-67 160.738,-70.5001 160.738,-63.5001"/>
</g>
<!-- Node8 -->
<g id="node8" class="node"><title>Node8</title>
<g id="a_node8"><a xlink:href="../../de/df3/liolib_8c.html#a91ec9c6fa0ef33085f29a15532ac80a7" target="_top" xlink:title="opencheck">
<polygon fill="none" stroke="black" points="196.5,-19.5 196.5,-38.5 258.5,-38.5 258.5,-19.5 196.5,-19.5"/>
<text text-anchor="middle" x="227.5" y="-26.5" font-family="Helvetica,sans-Serif" font-size="10.00">opencheck</text>
</a>
</g>
</g>
<!-- Node5&#45;&gt;Node8 -->
<g id="edge7" class="edge"><title>Node5&#45;&gt;Node8</title>
<path fill="none" stroke="midnightblue" d="M160.172,-54.7191C173.718,-49.4667 189.291,-43.4279 201.942,-38.5223"/>
<polygon fill="midnightblue" stroke="midnightblue" points="158.796,-51.4986 150.738,-58.3772 161.327,-58.0251 158.796,-51.4986"/>
</g>
<!-- Node9 -->
<g id="node9" class="node"><title>Node9</title>
<g id="a_node9"><a xlink:href="../../de/df3/liolib_8c.html#aae942558ff528b4e1a483297c64e6886" target="_top" xlink:title="g_iofile">
<polygon fill="none" stroke="black" points="296.5,-38.5 296.5,-57.5 340.5,-57.5 340.5,-38.5 296.5,-38.5"/>
<text text-anchor="middle" x="318.5" y="-45.5" font-family="Helvetica,sans-Serif" font-size="10.00">g_iofile</text>
</a>
</g>
</g>
<!-- Node8&#45;&gt;Node9 -->
<g id="edge8" class="edge"><title>Node8&#45;&gt;Node9</title>
<path fill="none" stroke="midnightblue" d="M268.482,-37.5356C278.108,-39.5905 288.018,-41.7062 296.387,-43.4927"/>
<polygon fill="midnightblue" stroke="midnightblue" points="269.142,-34.0975 258.631,-35.4325 267.68,-40.9433 269.142,-34.0975"/>
</g>
<!-- Node12 -->
<g id="node12" class="node"><title>Node12</title>
<g id="a_node12"><a xlink:href="../../de/df3/liolib_8c.html#ab08031b51605d4ef676ec33a3b96a286" target="_top" xlink:title="io_lines">
<polygon fill="none" stroke="black" points="295,-0.5 295,-19.5 342,-19.5 342,-0.5 295,-0.5"/>
<text text-anchor="middle" x="318.5" y="-7.5" font-family="Helvetica,sans-Serif" font-size="10.00">io_lines</text>
</a>
</g>
</g>
<!-- Node8&#45;&gt;Node12 -->
<g id="edge11" class="edge"><title>Node8&#45;&gt;Node12</title>
<path fill="none" stroke="midnightblue" d="M268.658,-20.427C277.701,-18.4964 286.985,-16.5143 294.998,-14.8037"/>
<polygon fill="midnightblue" stroke="midnightblue" points="267.68,-17.0567 258.631,-22.5675 269.142,-23.9025 267.68,-17.0567"/>
</g>
<!-- Node10 -->
<g id="node10" class="node"><title>Node10</title>
<g id="a_node10"><a xlink:href="../../de/df3/liolib_8c.html#a827044fde6f2c21ab965ba3d729f6a0f" target="_top" xlink:title="io_input">
<polygon fill="none" stroke="black" points="381,-57.5 381,-76.5 430,-76.5 430,-57.5 381,-57.5"/>
<text text-anchor="middle" x="405.5" y="-64.5" font-family="Helvetica,sans-Serif" font-size="10.00">io_input</text>
</a>
</g>
</g>
<!-- Node9&#45;&gt;Node10 -->
<g id="edge9" class="edge"><title>Node9&#45;&gt;Node10</title>
<path fill="none" stroke="midnightblue" d="M350.477,-54.9244C360.457,-57.1552 371.354,-59.591 380.731,-61.6869"/>
<polygon fill="midnightblue" stroke="midnightblue" points="351.034,-51.4625 340.511,-52.6966 349.507,-58.2939 351.034,-51.4625"/>
</g>
<!-- Node11 -->
<g id="node11" class="node"><title>Node11</title>
<g id="a_node11"><a xlink:href="../../de/df3/liolib_8c.html#a4464f89f0151ad432557b0a51258582c" target="_top" xlink:title="io_output">
<polygon fill="none" stroke="black" points="378,-19.5 378,-38.5 433,-38.5 433,-19.5 378,-19.5"/>
<text text-anchor="middle" x="405.5" y="-26.5" font-family="Helvetica,sans-Serif" font-size="10.00">io_output</text>
</a>
</g>
</g>
<!-- Node9&#45;&gt;Node11 -->
<g id="edge10" class="edge"><title>Node9&#45;&gt;Node11</title>
<path fill="none" stroke="midnightblue" d="M350.307,-41.1137C359.359,-39.0905 369.177,-36.8957 377.939,-34.9372"/>
<polygon fill="midnightblue" stroke="midnightblue" points="349.507,-37.7061 340.511,-43.3034 351.034,-44.5375 349.507,-37.7061"/>
</g>
</g>
</svg>
