<?xml version="1.0" encoding="UTF-8" standalone="no"?>
<!DOCTYPE svg PUBLIC "-//W3C//DTD SVG 1.1//EN"
 "http://www.w3.org/Graphics/SVG/1.1/DTD/svg11.dtd">
<!-- Generated by graphviz version 2.38.0 (20140413.2041)
 -->
<!-- Title: io_readline Pages: 1 -->
<svg width="245pt" height="66pt"
 viewBox="0.00 0.00 245.00 66.00" xmlns="http://www.w3.org/2000/svg" xmlns:xlink="http://www.w3.org/1999/xlink">
<g id="graph0" class="graph" transform="scale(1 1) rotate(0) translate(4 62)">
<title>io_readline</title>
<!-- Node1 -->
<g id="node1" class="node"><title>Node1</title>
<polygon fill="#bfbfbf" stroke="black" points="0,-19.5 0,-38.5 61,-38.5 61,-19.5 0,-19.5"/>
<text text-anchor="middle" x="30.5" y="-26.5" font-family="Helvetica,sans-Serif" font-size="10.00">io_readline</text>
</g>
<!-- Node2 -->
<g id="node2" class="node"><title>Node2</title>
<g id="a_node2"><a xlink:href="../../de/df3/liolib_8c.html#a66325940a0248cee288153edb061c0c4" target="_top" xlink:title="aux_lines">
<polygon fill="none" stroke="black" points="97,-19.5 97,-38.5 154,-38.5 154,-19.5 97,-19.5"/>
<text text-anchor="middle" x="125.5" y="-26.5" font-family="Helvetica,sans-Serif" font-size="10.00">aux_lines</text>
</a>
</g>
</g>
<!-- Node1&#45;&gt;Node2 -->
<g id="edge1" class="edge"><title>Node1&#45;&gt;Node2</title>
<path fill="none" stroke="midnightblue" d="M71.4535,-29C80.0659,-29 88.984,-29 96.994,-29"/>
<polygon fill="midnightblue" stroke="midnightblue" points="71.1815,-25.5001 61.1815,-29 71.1814,-32.5001 71.1815,-25.5001"/>
</g>
<!-- Node3 -->
<g id="node3" class="node"><title>Node3</title>
<g id="a_node3"><a xlink:href="../../de/df3/liolib_8c.html#a6a36f72d8b3966c1ebafab8a4791cb6c" target="_top" xlink:title="f_lines">
<polygon fill="none" stroke="black" points="192,-38.5 192,-57.5 235,-57.5 235,-38.5 192,-38.5"/>
<text text-anchor="middle" x="213.5" y="-45.5" font-family="Helvetica,sans-Serif" font-size="10.00">f_lines</text>
</a>
</g>
</g>
<!-- Node2&#45;&gt;Node3 -->
<g id="edge2" class="edge"><title>Node2&#45;&gt;Node3</title>
<path fill="none" stroke="midnightblue" d="M163.979,-37.2801C173.586,-39.4027 183.567,-41.6078 191.961,-43.4622"/>
<polygon fill="midnightblue" stroke="midnightblue" points="164.704,-33.8561 154.184,-35.1163 163.194,-40.6913 164.704,-33.8561"/>
</g>
<!-- Node4 -->
<g id="node4" class="node"><title>Node4</title>
<g id="a_node4"><a xlink:href="../../de/df3/liolib_8c.html#ab08031b51605d4ef676ec33a3b96a286" target="_top" xlink:title="io_lines">
<polygon fill="none" stroke="black" points="190,-0.5 190,-19.5 237,-19.5 237,-0.5 190,-0.5"/>
<text text-anchor="middle" x="213.5" y="-7.5" font-family="Helvetica,sans-Serif" font-size="10.00">io_lines</text>
</a>
</g>
</g>
<!-- Node2&#45;&gt;Node4 -->
<g id="edge3" class="edge"><title>Node2&#45;&gt;Node4</title>
<path fill="none" stroke="midnightblue" d="M164.19,-20.6732C172.903,-18.7482 181.912,-16.7579 189.755,-15.025"/>
<polygon fill="midnightblue" stroke="midnightblue" points="163.194,-17.3088 154.184,-22.8837 164.704,-24.1439 163.194,-17.3088"/>
</g>
</g>
</svg>
