<?xml version="1.0" encoding="UTF-8" standalone="no"?>
<!DOCTYPE svg PUBLIC "-//W3C//DTD SVG 1.1//EN"
 "http://www.w3.org/Graphics/SVG/1.1/DTD/svg11.dtd">
<!-- Generated by graphviz version 2.38.0 (20140413.2041)
 -->
<!-- Title: &#45;[Kensho observableAccessed:] Pages: 1 -->
<svg width="537pt" height="591pt"
 viewBox="0.00 0.00 537.00 591.00" xmlns="http://www.w3.org/2000/svg" xmlns:xlink="http://www.w3.org/1999/xlink">
<g id="graph0" class="graph" transform="scale(1 1) rotate(0) translate(4 587)">
<title>&#45;[Kensho observableAccessed:]</title>
<!-- Node1 -->
<g id="node1" class="node"><title>Node1</title>
<polygon fill="#bfbfbf" stroke="black" points="0,-281.5 0,-300.5 152,-300.5 152,-281.5 0,-281.5"/>
<text text-anchor="middle" x="76" y="-288.5" font-family="Helvetica,sans-Serif" font-size="10.00">&#45;[Kensho observableAccessed:]</text>
</g>
<!-- Node2 -->
<g id="node2" class="node"><title>Node2</title>
<g id="a_node2"><a xlink:href="../../d3/dd6/interface_observable_array.html#a79d487d2510f57a2125e86d8f4b3e6f6" target="_top" xlink:title="&#45;[ObservableArray count]">
<polygon fill="none" stroke="black" points="210,-563.5 210,-582.5 333,-582.5 333,-563.5 210,-563.5"/>
<text text-anchor="middle" x="271.5" y="-570.5" font-family="Helvetica,sans-Serif" font-size="10.00">&#45;[ObservableArray count]</text>
</a>
</g>
</g>
<!-- Node1&#45;&gt;Node2 -->
<g id="edge1" class="edge"><title>Node1&#45;&gt;Node2</title>
<path fill="none" stroke="midnightblue" d="M79.2426,-310.685C85.9349,-359.855 110.386,-488.774 188,-554 194.301,-559.295 201.793,-563.183 209.654,-566.026"/>
<polygon fill="midnightblue" stroke="midnightblue" points="82.7089,-310.197 77.9853,-300.714 75.7639,-311.073 82.7089,-310.197"/>
</g>
<!-- Node3 -->
<g id="node3" class="node"><title>Node3</title>
<g id="a_node3"><a xlink:href="../../de/d54/interface_observable_map.html#acadd340d4fad6e5bde2ba05140691400" target="_top" xlink:title="&#45;[ObservableMap count]">
<polygon fill="none" stroke="black" points="211,-525.5 211,-544.5 332,-544.5 332,-525.5 211,-525.5"/>
<text text-anchor="middle" x="271.5" y="-532.5" font-family="Helvetica,sans-Serif" font-size="10.00">&#45;[ObservableMap count]</text>
</a>
</g>
</g>
<!-- Node1&#45;&gt;Node3 -->
<g id="edge2" class="edge"><title>Node1&#45;&gt;Node3</title>
<path fill="none" stroke="midnightblue" d="M80.7266,-310.471C90.2049,-354.44 119.501,-461.795 188,-516 194.685,-521.29 202.576,-525.158 210.782,-527.977"/>
<polygon fill="midnightblue" stroke="midnightblue" points="84.1216,-309.602 78.6891,-300.506 77.2635,-311.005 84.1216,-309.602"/>
</g>
<!-- Node5 -->
<g id="node5" class="node"><title>Node5</title>
<g id="a_node5"><a xlink:href="../../de/d3c/interface_computed_array.html#a5a16c99ec2904413b1517e6a06546d13" target="_top" xlink:title="&#45;[ComputedArray count]">
<polygon fill="none" stroke="black" points="213.5,-487.5 213.5,-506.5 329.5,-506.5 329.5,-487.5 213.5,-487.5"/>
<text text-anchor="middle" x="271.5" y="-494.5" font-family="Helvetica,sans-Serif" font-size="10.00">&#45;[ComputedArray count]</text>
</a>
</g>
</g>
<!-- Node1&#45;&gt;Node5 -->
<g id="edge4" class="edge"><title>Node1&#45;&gt;Node5</title>
<path fill="none" stroke="midnightblue" d="M82.8199,-310.531C95.3393,-349.008 128.614,-434.634 188,-478 195.478,-483.461 204.272,-487.384 213.281,-490.197"/>
<polygon fill="midnightblue" stroke="midnightblue" points="86.0397,-309.1 79.7141,-300.601 79.3588,-311.19 86.0397,-309.1"/>
</g>
<!-- Node6 -->
<g id="node6" class="node"><title>Node6</title>
<g id="a_node6"><a xlink:href="../../de/d54/interface_observable_map.html#ae87f81c5c3b6d1ea446a179023aafca3" target="_top" xlink:title="&#45;[ObservableMap enumerator\lValue]">
<polygon fill="none" stroke="black" points="200,-438 200,-468 343,-468 343,-438 200,-438"/>
<text text-anchor="start" x="208" y="-456" font-family="Helvetica,sans-Serif" font-size="10.00">&#45;[ObservableMap enumerator</text>
<text text-anchor="middle" x="271.5" y="-445" font-family="Helvetica,sans-Serif" font-size="10.00">Value]</text>
</a>
</g>
</g>
<!-- Node1&#45;&gt;Node6 -->
<g id="edge5" class="edge"><title>Node1&#45;&gt;Node6</title>
<path fill="none" stroke="midnightblue" d="M86.9373,-309.635C103.753,-339.375 140.66,-397.423 188,-429 193.088,-432.394 198.662,-435.316 204.436,-437.831"/>
<polygon fill="midnightblue" stroke="midnightblue" points="89.912,-307.782 82.0188,-300.714 83.782,-311.161 89.912,-307.782"/>
</g>
<!-- Node7 -->
<g id="node7" class="node"><title>Node7</title>
<g id="a_node7"><a xlink:href="../../d3/dd6/interface_observable_array.html#a58701366b93ed8f6fc6d66a1891d0456" target="_top" xlink:title="&#45;[ObservableArray enumerator\lValue]">
<polygon fill="none" stroke="black" points="199,-389 199,-419 344,-419 344,-389 199,-389"/>
<text text-anchor="start" x="207" y="-407" font-family="Helvetica,sans-Serif" font-size="10.00">&#45;[ObservableArray enumerator</text>
<text text-anchor="middle" x="271.5" y="-396" font-family="Helvetica,sans-Serif" font-size="10.00">Value]</text>
</a>
</g>
</g>
<!-- Node1&#45;&gt;Node7 -->
<g id="edge6" class="edge"><title>Node1&#45;&gt;Node7</title>
<path fill="none" stroke="midnightblue" d="M93.8059,-307.73C114.383,-327.357 151.071,-359.667 188,-379 195.16,-382.748 202.97,-386.028 210.837,-388.869"/>
<polygon fill="midnightblue" stroke="midnightblue" points="96.1154,-305.094 86.5004,-300.644 91.2418,-310.119 96.1154,-305.094"/>
</g>
<!-- Node8 -->
<g id="node8" class="node"><title>Node8</title>
<g id="a_node8"><a xlink:href="../../de/d54/interface_observable_map.html#adf3123dc81a66987060f2f0099db6316" target="_top" xlink:title="&#45;[ObservableMap keyEnumerator]">
<polygon fill="none" stroke="black" points="191,-350.5 191,-369.5 352,-369.5 352,-350.5 191,-350.5"/>
<text text-anchor="middle" x="271.5" y="-357.5" font-family="Helvetica,sans-Serif" font-size="10.00">&#45;[ObservableMap keyEnumerator]</text>
</a>
</g>
</g>
<!-- Node1&#45;&gt;Node8 -->
<g id="edge7" class="edge"><title>Node1&#45;&gt;Node8</title>
<path fill="none" stroke="midnightblue" d="M104.516,-305.23C126.614,-316.205 158.686,-331.13 188,-341 198.726,-344.611 210.463,-347.769 221.633,-350.42"/>
<polygon fill="midnightblue" stroke="midnightblue" points="105.908,-302.012 95.402,-300.646 102.763,-308.266 105.908,-302.012"/>
</g>
<!-- Node9 -->
<g id="node9" class="node"><title>Node9</title>
<g id="a_node9"><a xlink:href="../../d3/dd6/interface_observable_array.html#a0e9613fe8a5b091b1ce809247e31b7af" target="_top" xlink:title="&#45;[ObservableArray object\lAtIndex:]">
<polygon fill="none" stroke="black" points="209.5,-301 209.5,-331 333.5,-331 333.5,-301 209.5,-301"/>
<text text-anchor="start" x="217.5" y="-319" font-family="Helvetica,sans-Serif" font-size="10.00">&#45;[ObservableArray object</text>
<text text-anchor="middle" x="271.5" y="-308" font-family="Helvetica,sans-Serif" font-size="10.00">AtIndex:]</text>
</a>
</g>
</g>
<!-- Node1&#45;&gt;Node9 -->
<g id="edge8" class="edge"><title>Node1&#45;&gt;Node9</title>
<path fill="none" stroke="midnightblue" d="M160.772,-301.823C177.07,-303.929 193.869,-306.099 209.272,-308.089"/>
<polygon fill="midnightblue" stroke="midnightblue" points="161.072,-298.333 150.706,-300.523 160.175,-305.275 161.072,-298.333"/>
</g>
<!-- Node10 -->
<g id="node10" class="node"><title>Node10</title>
<g id="a_node10"><a xlink:href="../../de/d3c/interface_computed_array.html#ace748f3304d0c00eb0206694a2e1c717" target="_top" xlink:title="&#45;[ComputedArray objectAt\lIndex:]">
<polygon fill="none" stroke="black" points="208.5,-252 208.5,-282 334.5,-282 334.5,-252 208.5,-252"/>
<text text-anchor="start" x="216.5" y="-270" font-family="Helvetica,sans-Serif" font-size="10.00">&#45;[ComputedArray objectAt</text>
<text text-anchor="middle" x="271.5" y="-259" font-family="Helvetica,sans-Serif" font-size="10.00">Index:]</text>
</a>
</g>
</g>
<!-- Node1&#45;&gt;Node10 -->
<g id="edge9" class="edge"><title>Node1&#45;&gt;Node10</title>
<path fill="none" stroke="midnightblue" d="M162.203,-280.432C177.707,-278.509 193.612,-276.537 208.295,-274.715"/>
<polygon fill="midnightblue" stroke="midnightblue" points="161.582,-276.982 152.089,-281.687 162.444,-283.929 161.582,-276.982"/>
</g>
<!-- Node11 -->
<g id="node11" class="node"><title>Node11</title>
<g id="a_node11"><a xlink:href="../../d3/dd6/interface_observable_array.html#ad7ec82522f73f5ddaec6673565152d32" target="_top" xlink:title="&#45;[ObservableArray object\lEnumerator]">
<polygon fill="none" stroke="black" points="209.5,-203 209.5,-233 333.5,-233 333.5,-203 209.5,-203"/>
<text text-anchor="start" x="217.5" y="-221" font-family="Helvetica,sans-Serif" font-size="10.00">&#45;[ObservableArray object</text>
<text text-anchor="middle" x="271.5" y="-210" font-family="Helvetica,sans-Serif" font-size="10.00">Enumerator]</text>
</a>
</g>
</g>
<!-- Node1&#45;&gt;Node11 -->
<g id="edge10" class="edge"><title>Node1&#45;&gt;Node11</title>
<path fill="none" stroke="midnightblue" d="M106.376,-277.207C128.539,-267.068 159.837,-253.318 188,-243 197.415,-239.55 207.553,-236.194 217.391,-233.118"/>
<polygon fill="midnightblue" stroke="midnightblue" points="104.793,-274.083 97.1767,-281.448 107.723,-280.44 104.793,-274.083"/>
</g>
<!-- Node12 -->
<g id="node12" class="node"><title>Node12</title>
<g id="a_node12"><a xlink:href="../../de/d3c/interface_computed_array.html#a2e627982e835aaeabe01d1736b6f982c" target="_top" xlink:title="&#45;[ComputedArray objectEnumerator]">
<polygon fill="none" stroke="black" points="188,-164.5 188,-183.5 355,-183.5 355,-164.5 188,-164.5"/>
<text text-anchor="middle" x="271.5" y="-171.5" font-family="Helvetica,sans-Serif" font-size="10.00">&#45;[ComputedArray objectEnumerator]</text>
</a>
</g>
</g>
<!-- Node1&#45;&gt;Node12 -->
<g id="edge11" class="edge"><title>Node1&#45;&gt;Node12</title>
<path fill="none" stroke="midnightblue" d="M91.7689,-273.747C111.478,-251.847 148.507,-214.461 188,-194 196.375,-189.661 205.719,-186.242 215.023,-183.553"/>
<polygon fill="midnightblue" stroke="midnightblue" points="89.0841,-271.5 85.0944,-281.315 94.334,-276.13 89.0841,-271.5"/>
</g>
<!-- Node14 -->
<g id="node14" class="node"><title>Node14</title>
<g id="a_node14"><a xlink:href="../../de/d54/interface_observable_map.html#aede3a45af4f4f65b25225dc89ac943a0" target="_top" xlink:title="&#45;[ObservableMap objectFor\lKey:]">
<polygon fill="none" stroke="black" points="204.5,-115 204.5,-145 338.5,-145 338.5,-115 204.5,-115"/>
<text text-anchor="start" x="212.5" y="-133" font-family="Helvetica,sans-Serif" font-size="10.00">&#45;[ObservableMap objectFor</text>
<text text-anchor="middle" x="271.5" y="-122" font-family="Helvetica,sans-Serif" font-size="10.00">Key:]</text>
</a>
</g>
</g>
<!-- Node1&#45;&gt;Node14 -->
<g id="edge13" class="edge"><title>Node1&#45;&gt;Node14</title>
<path fill="none" stroke="midnightblue" d="M87.0474,-272.698C104.018,-243.478 141.138,-186.394 188,-155 193.72,-151.168 200.047,-147.907 206.58,-145.133"/>
<polygon fill="midnightblue" stroke="midnightblue" points="83.9663,-271.036 82.0797,-281.461 90.0559,-274.488 83.9663,-271.036"/>
</g>
<!-- Node15 -->
<g id="node15" class="node"><title>Node15</title>
<g id="a_node15"><a xlink:href="../../de/d54/interface_observable_map.html#a13538719a455e7b44c9d265ff1fcf805" target="_top" xlink:title="&#45;[ObservableMap value]">
<polygon fill="none" stroke="black" points="210.5,-76.5 210.5,-95.5 332.5,-95.5 332.5,-76.5 210.5,-76.5"/>
<text text-anchor="middle" x="271.5" y="-83.5" font-family="Helvetica,sans-Serif" font-size="10.00">&#45;[ObservableMap value]</text>
</a>
</g>
</g>
<!-- Node1&#45;&gt;Node15 -->
<g id="edge14" class="edge"><title>Node1&#45;&gt;Node15</title>
<path fill="none" stroke="midnightblue" d="M83.1049,-271.197C95.9477,-232.976 129.503,-149.02 188,-106 194.649,-101.11 202.336,-97.4029 210.29,-94.5944"/>
<polygon fill="midnightblue" stroke="midnightblue" points="79.6507,-270.504 79.9031,-281.096 86.3109,-272.658 79.6507,-270.504"/>
</g>
<!-- Node16 -->
<g id="node16" class="node"><title>Node16</title>
<g id="a_node16"><a xlink:href="../../d3/dd6/interface_observable_array.html#aecc95c6214da5e8ee972dea0c612d794" target="_top" xlink:title="&#45;[ObservableArray value]">
<polygon fill="none" stroke="black" points="209.5,-38.5 209.5,-57.5 333.5,-57.5 333.5,-38.5 209.5,-38.5"/>
<text text-anchor="middle" x="271.5" y="-45.5" font-family="Helvetica,sans-Serif" font-size="10.00">&#45;[ObservableArray value]</text>
</a>
</g>
</g>
<!-- Node1&#45;&gt;Node16 -->
<g id="edge15" class="edge"><title>Node1&#45;&gt;Node16</title>
<path fill="none" stroke="midnightblue" d="M80.8869,-271.008C90.5609,-226.857 120.011,-120.703 188,-67 194.228,-62.0804 201.5,-58.3909 209.097,-55.6314"/>
<polygon fill="midnightblue" stroke="midnightblue" points="77.4074,-270.549 78.7977,-281.052 84.2607,-271.975 77.4074,-270.549"/>
</g>
<!-- Node17 -->
<g id="node17" class="node"><title>Node17</title>
<g id="a_node17"><a xlink:href="../../de/d3c/interface_computed_array.html#aa7867c546404d79950bb369eec7f6b1a" target="_top" xlink:title="&#45;[ComputedArray value]">
<polygon fill="none" stroke="black" points="213,-0.5 213,-19.5 330,-19.5 330,-0.5 213,-0.5"/>
<text text-anchor="middle" x="271.5" y="-7.5" font-family="Helvetica,sans-Serif" font-size="10.00">&#45;[ComputedArray value]</text>
</a>
</g>
</g>
<!-- Node1&#45;&gt;Node17 -->
<g id="edge16" class="edge"><title>Node1&#45;&gt;Node17</title>
<path fill="none" stroke="midnightblue" d="M79.2676,-271.388C86.0176,-222.4 110.592,-93.9628 188,-29 195.093,-23.0475 203.691,-18.874 212.624,-15.9645"/>
<polygon fill="midnightblue" stroke="midnightblue" points="75.794,-270.959 77.9981,-281.322 82.7375,-271.847 75.794,-270.959"/>
</g>
<!-- Node4 -->
<g id="node4" class="node"><title>Node4</title>
<g id="a_node4"><a xlink:href="../../de/d54/interface_observable_map.html#a3aec3b5152545d6e0e49318181d54466" target="_top" xlink:title="&#45;[ObservableMap initWith\lKensho:objects:forKeys\l:count:]">
<polygon fill="none" stroke="black" points="397.5,-514.5 397.5,-555.5 522.5,-555.5 522.5,-514.5 397.5,-514.5"/>
<text text-anchor="start" x="405.5" y="-543.5" font-family="Helvetica,sans-Serif" font-size="10.00">&#45;[ObservableMap initWith</text>
<text text-anchor="start" x="405.5" y="-532.5" font-family="Helvetica,sans-Serif" font-size="10.00">Kensho:objects:forKeys</text>
<text text-anchor="middle" x="460" y="-521.5" font-family="Helvetica,sans-Serif" font-size="10.00">:count:]</text>
</a>
</g>
</g>
<!-- Node3&#45;&gt;Node4 -->
<g id="edge3" class="edge"><title>Node3&#45;&gt;Node4</title>
<path fill="none" stroke="midnightblue" d="M342.242,-535C360.383,-535 379.794,-535 397.477,-535"/>
<polygon fill="midnightblue" stroke="midnightblue" points="342.023,-531.5 332.023,-535 342.022,-538.5 342.023,-531.5"/>
</g>
<!-- Node13 -->
<g id="node13" class="node"><title>Node13</title>
<g id="a_node13"><a xlink:href="../../de/d3c/interface_computed_array.html#a604210e0f6152275502ab84226497958" target="_top" xlink:title="&#45;[ComputedArray enumerator\lValue]">
<polygon fill="none" stroke="black" points="391,-159 391,-189 529,-189 529,-159 391,-159"/>
<text text-anchor="start" x="399" y="-177" font-family="Helvetica,sans-Serif" font-size="10.00">&#45;[ComputedArray enumerator</text>
<text text-anchor="middle" x="460" y="-166" font-family="Helvetica,sans-Serif" font-size="10.00">Value]</text>
</a>
</g>
</g>
<!-- Node12&#45;&gt;Node13 -->
<g id="edge12" class="edge"><title>Node12&#45;&gt;Node13</title>
<path fill="none" stroke="midnightblue" d="M365.266,-174C373.93,-174 382.599,-174 390.975,-174"/>
<polygon fill="midnightblue" stroke="midnightblue" points="365.116,-170.5 355.116,-174 365.116,-177.5 365.116,-170.5"/>
</g>
</g>
</svg>
