<?xml version="1.0" encoding="UTF-8" standalone="no"?>
<!DOCTYPE svg PUBLIC "-//W3C//DTD SVG 1.1//EN"
 "http://www.w3.org/Graphics/SVG/1.1/DTD/svg11.dtd">
<!-- Generated by graphviz version 2.38.0 (20140413.2041)
 -->
<!-- Title: &#45;[Kensho startTracking] Pages: 1 -->
<svg width="297pt" height="88pt"
 viewBox="0.00 0.00 297.00 88.00" xmlns="http://www.w3.org/2000/svg" xmlns:xlink="http://www.w3.org/1999/xlink">
<g id="graph0" class="graph" transform="scale(1 1) rotate(0) translate(4 84)">
<title>&#45;[Kensho startTracking]</title>
<!-- Node1 -->
<g id="node1" class="node"><title>Node1</title>
<polygon fill="#bfbfbf" stroke="black" points="0,-30 0,-49 120,-49 120,-30 0,-30"/>
<text text-anchor="middle" x="60" y="-37" font-family="Helvetica,sans-Serif" font-size="10.00">&#45;[Kensho startTracking]</text>
</g>
<!-- Node2 -->
<g id="node2" class="node"><title>Node2</title>
<g id="a_node2"><a xlink:href="../../dc/d34/interface_test_observable_proxy.html#a512ae01e8c7f83f9c0cafe9fa5f78161" target="_top" xlink:title="&#45;[TestObservableProxy\l startTracking]">
<polygon fill="none" stroke="black" points="163,-49.5 163,-79.5 282,-79.5 282,-49.5 163,-49.5"/>
<text text-anchor="start" x="171" y="-67.5" font-family="Helvetica,sans-Serif" font-size="10.00">&#45;[TestObservableProxy</text>
<text text-anchor="middle" x="222.5" y="-56.5" font-family="Helvetica,sans-Serif" font-size="10.00"> startTracking]</text>
</a>
</g>
</g>
<!-- Node1&#45;&gt;Node2 -->
<g id="edge1" class="edge"><title>Node1&#45;&gt;Node2</title>
<path fill="none" stroke="midnightblue" d="M130.229,-50.2833C141.141,-51.9831 152.331,-53.7261 162.97,-55.3832"/>
<polygon fill="midnightblue" stroke="midnightblue" points="130.728,-46.8189 120.308,-48.738 129.65,-53.7355 130.728,-46.8189"/>
</g>
<!-- Node3 -->
<g id="node3" class="node"><title>Node3</title>
<g id="a_node3"><a xlink:href="../../d9/dcc/interface_ken_observation_tracking.html#a1a3af71d8f169c1ed34c7003e123d069" target="_top" xlink:title="This is invoked when a READ is issued to a property. ">
<polygon fill="none" stroke="black" points="156,-0.5 156,-30.5 289,-30.5 289,-0.5 156,-0.5"/>
<text text-anchor="start" x="164" y="-18.5" font-family="Helvetica,sans-Serif" font-size="10.00">&#45;[KenObservationTracking</text>
<text text-anchor="middle" x="222.5" y="-7.5" font-family="Helvetica,sans-Serif" font-size="10.00"> startTrackingAttribute:]</text>
</a>
</g>
</g>
<!-- Node1&#45;&gt;Node3 -->
<g id="edge2" class="edge"><title>Node1&#45;&gt;Node3</title>
<path fill="none" stroke="midnightblue" d="M130.229,-29.1481C138.766,-27.8715 147.473,-26.5695 155.953,-25.3015"/>
<polygon fill="midnightblue" stroke="midnightblue" points="129.681,-25.691 120.308,-30.6315 130.716,-32.614 129.681,-25.691"/>
</g>
</g>
</svg>
