<?xml version="1.0" encoding="UTF-8" standalone="no"?>
<!DOCTYPE svg PUBLIC "-//W3C//DTD SVG 1.1//EN"
 "http://www.w3.org/Graphics/SVG/1.1/DTD/svg11.dtd">
<!-- Generated by graphviz version 2.34.0 (20131008.0448)
 -->
<!-- Title: &#45;[Kensho startTracking] Pages: 1 -->
<svg width="738pt" height="154pt"
 viewBox="0.00 0.00 738.00 154.00" xmlns="http://www.w3.org/2000/svg" xmlns:xlink="http://www.w3.org/1999/xlink">
<g id="graph0" class="graph" transform="scale(1 1) rotate(0) translate(4 150)">
<title>&#45;[Kensho startTracking]</title>
<!-- Node1 -->
<g id="node1" class="node"><title>Node1</title>
<polygon fill="#bfbfbf" stroke="black" points="0.3245,-57 0.3245,-77 119.675,-77 119.675,-57 0.3245,-57"/>
<text text-anchor="middle" x="60" y="-64" font-family="Helvetica,sans-Serif" font-size="10.00">&#45;[Kensho startTracking]</text>
</g>
<!-- Node2 -->
<g id="node2" class="node"><title>Node2</title>
<g id="a_node2"><a xlink:href="../../dc/de7/interface_kensho_lua_wrapper.html#a7d10aa0242861cdd109d3da9383882a2" target="_top" xlink:title="&#45;[KenshoLuaWrapper\l evaluate]">
<polygon fill="none" stroke="black" points="156.488,-51 156.488,-83 267.512,-83 267.512,-51 156.488,-51"/>
<text text-anchor="start" x="164.488" y="-70" font-family="Helvetica,sans-Serif" font-size="10.00">&#45;[KenshoLuaWrapper</text>
<text text-anchor="middle" x="212" y="-58" font-family="Helvetica,sans-Serif" font-size="10.00"> evaluate]</text>
</a>
</g>
</g>
<!-- Node1&#45;&gt;Node2 -->
<g id="edge1" class="edge"><title>Node1&#45;&gt;Node2</title>
<path fill="none" stroke="midnightblue" d="M130.072,-67C138.845,-67 147.726,-67 156.231,-67"/>
<polygon fill="midnightblue" stroke="midnightblue" points="129.853,-63.5001 119.853,-67 129.853,-70.5001 129.853,-63.5001"/>
</g>
<!-- Node3 -->
<g id="node3" class="node"><title>Node3</title>
<g id="a_node3"><a xlink:href="../../dc/de7/interface_kensho_lua_wrapper.html#af6db46358f8858a18b55388aa3af211d" target="_top" xlink:title="&#45;[KenshoLuaWrapper\l initWithKensho:context\l:code:]">
<polygon fill="none" stroke="black" points="303.765,-102 303.765,-146 424.235,-146 424.235,-102 303.765,-102"/>
<text text-anchor="start" x="311.765" y="-133" font-family="Helvetica,sans-Serif" font-size="10.00">&#45;[KenshoLuaWrapper</text>
<text text-anchor="start" x="311.765" y="-121" font-family="Helvetica,sans-Serif" font-size="10.00"> initWithKensho:context</text>
<text text-anchor="middle" x="364" y="-109" font-family="Helvetica,sans-Serif" font-size="10.00">:code:]</text>
</a>
</g>
</g>
<!-- Node2&#45;&gt;Node3 -->
<g id="edge2" class="edge"><title>Node2&#45;&gt;Node3</title>
<path fill="none" stroke="midnightblue" d="M264.838,-86.6985C277.762,-91.6096 291.703,-96.9073 304.907,-101.925"/>
<polygon fill="midnightblue" stroke="midnightblue" points="265.774,-83.3099 255.183,-83.0294 263.287,-89.8534 265.774,-83.3099"/>
</g>
<!-- Node4 -->
<g id="node4" class="node"><title>Node4</title>
<g id="a_node4"><a xlink:href="../../dc/de7/interface_kensho_lua_wrapper.html#a5555e0979799446611baee70104555c6" target="_top" xlink:title="&#45;[KenshoLuaWrapper\l evaluate:]">
<polygon fill="none" stroke="black" points="308.488,-51 308.488,-83 419.512,-83 419.512,-51 308.488,-51"/>
<text text-anchor="start" x="316.488" y="-70" font-family="Helvetica,sans-Serif" font-size="10.00">&#45;[KenshoLuaWrapper</text>
<text text-anchor="middle" x="364" y="-58" font-family="Helvetica,sans-Serif" font-size="10.00"> evaluate:]</text>
</a>
</g>
</g>
<!-- Node2&#45;&gt;Node4 -->
<g id="edge3" class="edge"><title>Node2&#45;&gt;Node4</title>
<path fill="none" stroke="midnightblue" d="M277.712,-67C287.963,-67 298.475,-67 308.463,-67"/>
<polygon fill="midnightblue" stroke="midnightblue" points="277.578,-63.5001 267.578,-67 277.578,-70.5001 277.578,-63.5001"/>
</g>
<!-- Node7 -->
<g id="node7" class="node"><title>Node7</title>
<g id="a_node7"><a xlink:href="../../dc/de7/interface_kensho_lua_wrapper.html#a0bb5e125d727942726d707f8b59009dc" target="_top" xlink:title="&#45;[KenshoLuaWrapper\l observableUpdated:]">
<polygon fill="none" stroke="black" points="308.484,-0 308.484,-32 419.516,-32 419.516,-0 308.484,-0"/>
<text text-anchor="start" x="316.484" y="-19" font-family="Helvetica,sans-Serif" font-size="10.00">&#45;[KenshoLuaWrapper</text>
<text text-anchor="middle" x="364" y="-7" font-family="Helvetica,sans-Serif" font-size="10.00"> observableUpdated:]</text>
</a>
</g>
</g>
<!-- Node2&#45;&gt;Node7 -->
<g id="edge7" class="edge"><title>Node2&#45;&gt;Node7</title>
<path fill="none" stroke="midnightblue" d="M270.194,-47.554C285.271,-42.4279 301.367,-36.9554 315.848,-32.0317"/>
<polygon fill="midnightblue" stroke="midnightblue" points="268.802,-44.3305 260.461,-50.8633 271.055,-50.9579 268.802,-44.3305"/>
</g>
<!-- Node5 -->
<g id="node5" class="node"><title>Node5</title>
<g id="a_node5"><a xlink:href="../../da/d0b/interface_kensho.html#a07b4d14db676108e1a94a1f10e100fb4" target="_top" xlink:title="&#45;[Kensho bindToView\l:context:]">
<polygon fill="none" stroke="black" points="460.489,-51 460.489,-83 571.511,-83 571.511,-51 460.489,-51"/>
<text text-anchor="start" x="468.489" y="-70" font-family="Helvetica,sans-Serif" font-size="10.00">&#45;[Kensho bindToView</text>
<text text-anchor="middle" x="516" y="-58" font-family="Helvetica,sans-Serif" font-size="10.00">:context:]</text>
</a>
</g>
</g>
<!-- Node4&#45;&gt;Node5 -->
<g id="edge4" class="edge"><title>Node4&#45;&gt;Node5</title>
<path fill="none" stroke="midnightblue" d="M429.712,-67C439.963,-67 450.475,-67 460.463,-67"/>
<polygon fill="midnightblue" stroke="midnightblue" points="429.578,-63.5001 419.578,-67 429.578,-70.5001 429.578,-63.5001"/>
</g>
<!-- Node5&#45;&gt;Node5 -->
<g id="edge6" class="edge"><title>Node5&#45;&gt;Node5</title>
<path fill="none" stroke="midnightblue" d="M489.25,-93.1902C492.792,-97.7938 501.708,-101 516,-101 539.453,-101 548.431,-92.3658 542.934,-83.0908"/>
<polygon fill="midnightblue" stroke="midnightblue" points="492.748,-93.0251 489.066,-83.0908 485.749,-93.1531 492.748,-93.0251"/>
</g>
<!-- Node6 -->
<g id="node6" class="node"><title>Node6</title>
<g id="a_node6"><a xlink:href="../../da/d0b/interface_kensho.html#a1019e8223ee907bab87501ae483e609f" target="_top" xlink:title="&#45;[Kensho applyBindings\l:viewModel:]">
<polygon fill="none" stroke="black" points="608.485,-51 608.485,-83 729.515,-83 729.515,-51 608.485,-51"/>
<text text-anchor="start" x="616.485" y="-70" font-family="Helvetica,sans-Serif" font-size="10.00">&#45;[Kensho applyBindings</text>
<text text-anchor="middle" x="669" y="-58" font-family="Helvetica,sans-Serif" font-size="10.00">:viewModel:]</text>
</a>
</g>
</g>
<!-- Node5&#45;&gt;Node6 -->
<g id="edge5" class="edge"><title>Node5&#45;&gt;Node6</title>
<path fill="none" stroke="midnightblue" d="M581.788,-67C590.644,-67 599.7,-67 608.456,-67"/>
<polygon fill="midnightblue" stroke="midnightblue" points="581.514,-63.5001 571.514,-67 581.514,-70.5001 581.514,-63.5001"/>
</g>
</g>
</svg>
