<?xml version="1.0" encoding="UTF-8" standalone="no"?>
<!DOCTYPE svg PUBLIC "-//W3C//DTD SVG 1.1//EN"
 "http://www.w3.org/Graphics/SVG/1.1/DTD/svg11.dtd">
<!-- Generated by graphviz version 2.34.0 (20131008.0448)
 -->
<!-- Title: &#45;[Kensho bindToView:context:] Pages: 1 -->
<svg width="278pt" height="58pt"
 viewBox="0.00 0.00 278.00 58.00" xmlns="http://www.w3.org/2000/svg" xmlns:xlink="http://www.w3.org/1999/xlink">
<g id="graph0" class="graph" transform="scale(1 1) rotate(0) translate(4 54)">
<title>&#45;[Kensho bindToView:context:]</title>
<!-- Node1 -->
<g id="node1" class="node"><title>Node1</title>
<polygon fill="#bfbfbf" stroke="black" points="0.489,-0 0.489,-32 111.511,-32 111.511,-0 0.489,-0"/>
<text text-anchor="start" x="8.489" y="-19" font-family="Helvetica,sans-Serif" font-size="10.00">&#45;[Kensho bindToView</text>
<text text-anchor="middle" x="56" y="-7" font-family="Helvetica,sans-Serif" font-size="10.00">:context:]</text>
</g>
<!-- Node1&#45;&gt;Node1 -->
<g id="edge2" class="edge"><title>Node1&#45;&gt;Node1</title>
<path fill="none" stroke="midnightblue" d="M29.2501,-42.1902C32.7916,-46.7938 41.7083,-50 56,-50 79.4531,-50 88.4313,-41.3658 82.9344,-32.0908"/>
<polygon fill="midnightblue" stroke="midnightblue" points="32.7477,-42.0251 29.0656,-32.0908 25.7489,-42.1531 32.7477,-42.0251"/>
</g>
<!-- Node2 -->
<g id="node2" class="node"><title>Node2</title>
<g id="a_node2"><a xlink:href="../../da/d0b/interface_kensho.html#a1019e8223ee907bab87501ae483e609f" target="_top" xlink:title="&#45;[Kensho applyBindings\l:viewModel:]">
<polygon fill="none" stroke="black" points="148.485,-0 148.485,-32 269.515,-32 269.515,-0 148.485,-0"/>
<text text-anchor="start" x="156.485" y="-19" font-family="Helvetica,sans-Serif" font-size="10.00">&#45;[Kensho applyBindings</text>
<text text-anchor="middle" x="209" y="-7" font-family="Helvetica,sans-Serif" font-size="10.00">:viewModel:]</text>
</a>
</g>
</g>
<!-- Node1&#45;&gt;Node2 -->
<g id="edge1" class="edge"><title>Node1&#45;&gt;Node2</title>
<path fill="none" stroke="midnightblue" d="M121.788,-16C130.644,-16 139.7,-16 148.456,-16"/>
<polygon fill="midnightblue" stroke="midnightblue" points="121.514,-12.5001 111.514,-16 121.514,-19.5001 121.514,-12.5001"/>
</g>
</g>
</svg>
