<?xml version="1.0" encoding="UTF-8" standalone="no"?>
<!DOCTYPE svg PUBLIC "-//W3C//DTD SVG 1.1//EN"
 "http://www.w3.org/Graphics/SVG/1.1/DTD/svg11.dtd">
<!-- Generated by graphviz version 2.38.0 (20140413.2041)
 -->
<!-- Title: lua_error Pages: 1 -->
<svg width="543pt" height="1529pt"
 viewBox="0.00 0.00 543.00 1529.00" xmlns="http://www.w3.org/2000/svg" xmlns:xlink="http://www.w3.org/1999/xlink">
<g id="graph0" class="graph" transform="scale(1 1) rotate(0) translate(4 1525)">
<title>lua_error</title>
<!-- Node1 -->
<g id="node1" class="node"><title>Node1</title>
<polygon fill="#bfbfbf" stroke="black" points="0,-1083.5 0,-1102.5 52,-1102.5 52,-1083.5 0,-1083.5"/>
<text text-anchor="middle" x="26" y="-1090.5" font-family="Helvetica,sans-Serif" font-size="10.00">lua_error</text>
</g>
<!-- Node2 -->
<g id="node2" class="node"><title>Node2</title>
<g id="a_node2"><a xlink:href="../../df/d2d/lcorolib_8c.html#a777abb20385a69ce4787f72bd90375a7" target="_top" xlink:title="luaB_auxwrap">
<polygon fill="none" stroke="black" points="88,-1292.5 88,-1311.5 168,-1311.5 168,-1292.5 88,-1292.5"/>
<text text-anchor="middle" x="128" y="-1299.5" font-family="Helvetica,sans-Serif" font-size="10.00">luaB_auxwrap</text>
</a>
</g>
</g>
<!-- Node1&#45;&gt;Node2 -->
<g id="edge1" class="edge"><title>Node1&#45;&gt;Node2</title>
<path fill="none" stroke="midnightblue" d="M35.9074,-1111.62C56.5259,-1154.71 106.954,-1260.1 122.417,-1292.42"/>
<polygon fill="midnightblue" stroke="midnightblue" points="39.03,-1110.03 31.5566,-1102.52 32.7156,-1113.05 39.03,-1110.03"/>
</g>
<!-- Node4 -->
<g id="node4" class="node"><title>Node4</title>
<g id="a_node4"><a xlink:href="../../d8/dd3/lbaselib_8c.html#a86a4e35d9c9ad4661a0dbbac3758c049" target="_top" xlink:title="luaB_dofile">
<polygon fill="none" stroke="black" points="97,-1102.5 97,-1121.5 159,-1121.5 159,-1102.5 97,-1102.5"/>
<text text-anchor="middle" x="128" y="-1109.5" font-family="Helvetica,sans-Serif" font-size="10.00">luaB_dofile</text>
</a>
</g>
</g>
<!-- Node1&#45;&gt;Node4 -->
<g id="edge3" class="edge"><title>Node1&#45;&gt;Node4</title>
<path fill="none" stroke="midnightblue" d="M62.2135,-1099.69C73.4992,-1101.83 85.8892,-1104.19 96.7847,-1106.26"/>
<polygon fill="midnightblue" stroke="midnightblue" points="62.7118,-1096.22 52.2342,-1097.79 61.4051,-1103.1 62.7118,-1096.22"/>
</g>
<!-- Node5 -->
<g id="node5" class="node"><title>Node5</title>
<g id="a_node5"><a xlink:href="../../d8/dd3/lbaselib_8c.html#a2ecfa987569d0b4c1063f3e204e42dd2" target="_top" xlink:title="luaB_error">
<polygon fill="none" stroke="black" points="98.5,-1064.5 98.5,-1083.5 157.5,-1083.5 157.5,-1064.5 98.5,-1064.5"/>
<text text-anchor="middle" x="128" y="-1071.5" font-family="Helvetica,sans-Serif" font-size="10.00">luaB_error</text>
</a>
</g>
</g>
<!-- Node1&#45;&gt;Node5 -->
<g id="edge4" class="edge"><title>Node1&#45;&gt;Node5</title>
<path fill="none" stroke="midnightblue" d="M62.2106,-1086.31C74.0009,-1084.07 86.997,-1081.6 98.2352,-1079.47"/>
<polygon fill="midnightblue" stroke="midnightblue" points="61.4051,-1082.9 52.2342,-1088.21 62.7118,-1089.78 61.4051,-1082.9"/>
</g>
<!-- Node6 -->
<g id="node6" class="node"><title>Node6</title>
<g id="a_node6"><a xlink:href="../../da/d29/lauxlib_8h.html#a994f73d7985c30672469a260d9e86ae6" target="_top" xlink:title="luaL_error">
<polygon fill="none" stroke="black" points="99.5,-722.5 99.5,-741.5 156.5,-741.5 156.5,-722.5 99.5,-722.5"/>
<text text-anchor="middle" x="128" y="-729.5" font-family="Helvetica,sans-Serif" font-size="10.00">luaL_error</text>
</a>
</g>
</g>
<!-- Node1&#45;&gt;Node6 -->
<g id="edge5" class="edge"><title>Node1&#45;&gt;Node6</title>
<path fill="none" stroke="midnightblue" d="M32.4548,-1073.31C50.9747,-1006.45 111.034,-789.637 124.363,-741.518"/>
<polygon fill="midnightblue" stroke="midnightblue" points="28.9714,-1072.77 29.6748,-1083.34 35.7174,-1074.64 28.9714,-1072.77"/>
</g>
<!-- Node3 -->
<g id="node3" class="node"><title>Node3</title>
<g id="a_node3"><a xlink:href="../../df/d2d/lcorolib_8c.html#a1c0429e27f504b08e25f437f733edad1" target="_top" xlink:title="luaB_cowrap">
<polygon fill="none" stroke="black" points="216.5,-1444.5 216.5,-1463.5 290.5,-1463.5 290.5,-1444.5 216.5,-1444.5"/>
<text text-anchor="middle" x="253.5" y="-1451.5" font-family="Helvetica,sans-Serif" font-size="10.00">luaB_cowrap</text>
</a>
</g>
</g>
<!-- Node2&#45;&gt;Node3 -->
<g id="edge2" class="edge"><title>Node2&#45;&gt;Node3</title>
<path fill="none" stroke="midnightblue" d="M135.232,-1321.51C145.313,-1350.14 167.803,-1403.55 204,-1435 208.437,-1438.86 213.748,-1441.98 219.202,-1444.49"/>
<polygon fill="midnightblue" stroke="midnightblue" points="138.486,-1320.2 131.974,-1311.84 131.853,-1322.44 138.486,-1320.2"/>
</g>
<!-- Node7 -->
<g id="node7" class="node"><title>Node7</title>
<g id="a_node7"><a xlink:href="../../da/d29/lauxlib_8h.html#a526c220d17273c63ce9973bcde4a2c4a" target="_top" xlink:title="luaL_argerror">
<polygon fill="none" stroke="red" points="218,-1368.5 218,-1387.5 289,-1387.5 289,-1368.5 218,-1368.5"/>
<text text-anchor="middle" x="253.5" y="-1375.5" font-family="Helvetica,sans-Serif" font-size="10.00">luaL_argerror</text>
</a>
</g>
</g>
<!-- Node6&#45;&gt;Node7 -->
<g id="edge6" class="edge"><title>Node6&#45;&gt;Node7</title>
<path fill="none" stroke="midnightblue" d="M131.374,-751.641C137.464,-802.033 154.137,-940.025 168,-1055 176.011,-1121.44 165.357,-1299.36 204,-1354 208.394,-1360.21 214.863,-1364.9 221.654,-1368.4"/>
<polygon fill="midnightblue" stroke="midnightblue" points="134.824,-751.02 130.15,-741.512 127.875,-751.86 134.824,-751.02"/>
</g>
<!-- Node14 -->
<g id="node14" class="node"><title>Node14</title>
<g id="a_node14"><a xlink:href="../../dc/d77/lstrlib_8c.html#ae26a9374857058119e59d0328208c2f2" target="_top" xlink:title="str_format">
<polygon fill="none" stroke="black" points="355,-1273.5 355,-1292.5 412,-1292.5 412,-1273.5 355,-1273.5"/>
<text text-anchor="middle" x="383.5" y="-1280.5" font-family="Helvetica,sans-Serif" font-size="10.00">str_format</text>
</a>
</g>
</g>
<!-- Node6&#45;&gt;Node14 -->
<g id="edge58" class="edge"><title>Node6&#45;&gt;Node14</title>
<path fill="none" stroke="midnightblue" d="M131.442,-751.882C144.045,-854.394 201.247,-1318.58 204,-1321 237.019,-1350.08 260.291,-1331.58 303,-1321 320.561,-1316.65 322.699,-1309.85 339,-1302 345.683,-1298.78 353.043,-1295.48 359.779,-1292.55"/>
<polygon fill="midnightblue" stroke="midnightblue" points="134.883,-751.186 130.189,-741.688 127.935,-752.04 134.883,-751.186"/>
</g>
<!-- Node15 -->
<g id="node15" class="node"><title>Node15</title>
<g id="a_node15"><a xlink:href="../../da/d29/lauxlib_8h.html#a724f5a5aeee97c0b40948c8bca91341c" target="_top" xlink:title="luaL_checkstack">
<polygon fill="none" stroke="red" points="210.5,-1178.5 210.5,-1197.5 296.5,-1197.5 296.5,-1178.5 210.5,-1178.5"/>
<text text-anchor="middle" x="253.5" y="-1185.5" font-family="Helvetica,sans-Serif" font-size="10.00">luaL_checkstack</text>
</a>
</g>
</g>
<!-- Node6&#45;&gt;Node15 -->
<g id="edge14" class="edge"><title>Node6&#45;&gt;Node15</title>
<path fill="none" stroke="midnightblue" d="M131.394,-751.991C141.181,-832.5 178.816,-1130.29 204,-1164 208.667,-1170.25 215.405,-1174.97 222.382,-1178.49"/>
<polygon fill="midnightblue" stroke="midnightblue" points="134.831,-751.254 130.157,-741.746 127.881,-752.094 134.831,-751.254"/>
</g>
<!-- Node16 -->
<g id="node16" class="node"><title>Node16</title>
<g id="a_node16"><a xlink:href="../../d8/dd3/lbaselib_8c.html#ad467c787e381e8d18e4c7b46b4f1b05d" target="_top" xlink:title="generic_reader">
<polygon fill="none" stroke="red" points="345,-1197.5 345,-1216.5 422,-1216.5 422,-1197.5 345,-1197.5"/>
<text text-anchor="middle" x="383.5" y="-1204.5" font-family="Helvetica,sans-Serif" font-size="10.00">generic_reader</text>
</a>
</g>
</g>
<!-- Node6&#45;&gt;Node16 -->
<g id="edge24" class="edge"><title>Node6&#45;&gt;Node16</title>
<path fill="none" stroke="midnightblue" d="M131.397,-751.763C142.157,-839.704 186.232,-1191.82 204,-1207 246.408,-1243.24 317.427,-1228.52 355.858,-1216.58"/>
<polygon fill="midnightblue" stroke="midnightblue" points="134.839,-751.073 130.155,-741.57 127.891,-751.92 134.839,-751.073"/>
</g>
<!-- Node17 -->
<g id="node17" class="node"><title>Node17</title>
<g id="a_node17"><a xlink:href="../../dc/d77/lstrlib_8c.html#ae561770420cfd1894054415df9d4c423" target="_top" xlink:title="str_byte">
<polygon fill="none" stroke="black" points="358.5,-1149.5 358.5,-1168.5 408.5,-1168.5 408.5,-1149.5 358.5,-1149.5"/>
<text text-anchor="middle" x="383.5" y="-1156.5" font-family="Helvetica,sans-Serif" font-size="10.00">str_byte</text>
</a>
</g>
</g>
<!-- Node6&#45;&gt;Node17 -->
<g id="edge38" class="edge"><title>Node6&#45;&gt;Node17</title>
<path fill="none" stroke="midnightblue" d="M129.807,-751.905C133.198,-825.039 148.779,-1077.42 204,-1131 245.537,-1171.3 319.918,-1168.06 358.226,-1163.1"/>
<polygon fill="midnightblue" stroke="midnightblue" points="133.297,-751.602 129.364,-741.764 126.304,-751.908 133.297,-751.602"/>
</g>
<!-- Node18 -->
<g id="node18" class="node"><title>Node18</title>
<g id="a_node18"><a xlink:href="../../da/d29/lauxlib_8h.html#a0fb6d10de24960ceed452061b47c2c06" target="_top" xlink:title="luaL_prepbuffsize">
<polygon fill="none" stroke="red" points="207.5,-1292.5 207.5,-1311.5 299.5,-1311.5 299.5,-1292.5 207.5,-1292.5"/>
<text text-anchor="middle" x="253.5" y="-1299.5" font-family="Helvetica,sans-Serif" font-size="10.00">luaL_prepbuffsize</text>
</a>
</g>
</g>
<!-- Node6&#45;&gt;Node18 -->
<g id="edge17" class="edge"><title>Node6&#45;&gt;Node18</title>
<path fill="none" stroke="midnightblue" d="M131.417,-751.796C143.328,-849.081 195.551,-1272.26 204,-1283 207.018,-1286.84 210.922,-1289.9 215.202,-1292.35"/>
<polygon fill="midnightblue" stroke="midnightblue" points="134.885,-751.32 130.197,-741.819 127.937,-752.17 134.885,-751.32"/>
</g>
<!-- Node19 -->
<g id="node19" class="node"><title>Node19</title>
<g id="a_node19"><a xlink:href="../../da/d29/lauxlib_8h.html#a6f33f64067614a25031412f405a77873" target="_top" xlink:title="luaL_len">
<polygon fill="none" stroke="red" points="227.5,-1102.5 227.5,-1121.5 279.5,-1121.5 279.5,-1102.5 227.5,-1102.5"/>
<text text-anchor="middle" x="253.5" y="-1109.5" font-family="Helvetica,sans-Serif" font-size="10.00">luaL_len</text>
</a>
</g>
</g>
<!-- Node6&#45;&gt;Node19 -->
<g id="edge19" class="edge"><title>Node6&#45;&gt;Node19</title>
<path fill="none" stroke="midnightblue" d="M130.654,-751.814C136.669,-819.483 159.403,-1040.17 204,-1093 209.95,-1100.05 218.858,-1104.5 227.423,-1107.3"/>
<polygon fill="midnightblue" stroke="midnightblue" points="134.126,-751.329 129.777,-741.668 127.152,-751.932 134.126,-751.329"/>
</g>
<!-- Node20 -->
<g id="node20" class="node"><title>Node20</title>
<g id="a_node20"><a xlink:href="../../d0/da1/ltablib_8c.html#aab557c98c16305370f73c4c716f5725d" target="_top" xlink:title="unpack">
<polygon fill="none" stroke="black" points="359.5,-722.5 359.5,-741.5 407.5,-741.5 407.5,-722.5 359.5,-722.5"/>
<text text-anchor="middle" x="383.5" y="-729.5" font-family="Helvetica,sans-Serif" font-size="10.00">unpack</text>
</a>
</g>
</g>
<!-- Node6&#45;&gt;Node20 -->
<g id="edge61" class="edge"><title>Node6&#45;&gt;Node20</title>
<path fill="none" stroke="midnightblue" d="M129.968,-711.97C133.776,-642.638 150.256,-414.726 204,-371 238.131,-343.231 268.704,-343.435 303,-371 360.274,-417.034 378.696,-669.577 381.945,-722.336"/>
<polygon fill="midnightblue" stroke="midnightblue" points="126.453,-712.176 129.43,-722.344 133.443,-712.539 126.453,-712.176"/>
</g>
<!-- Node21 -->
<g id="node21" class="node"><title>Node21</title>
<g id="a_node21"><a xlink:href="../../da/d29/lauxlib_8h.html#a20b0480f0d1e4d1b2cbf74f667e7ca24" target="_top" xlink:title="luaL_checkversion_">
<polygon fill="none" stroke="black" points="204,-1064.5 204,-1083.5 303,-1083.5 303,-1064.5 204,-1064.5"/>
<text text-anchor="middle" x="253.5" y="-1071.5" font-family="Helvetica,sans-Serif" font-size="10.00">luaL_checkversion_</text>
</a>
</g>
</g>
<!-- Node6&#45;&gt;Node21 -->
<g id="edge21" class="edge"><title>Node6&#45;&gt;Node21</title>
<path fill="none" stroke="midnightblue" d="M131.172,-751.731C138.444,-814.545 163.775,-1008.46 204,-1055 207.312,-1058.83 211.495,-1061.9 216.011,-1064.35"/>
<polygon fill="midnightblue" stroke="midnightblue" points="134.627,-751.136 130.024,-741.593 127.671,-751.923 134.627,-751.136"/>
</g>
<!-- Node22 -->
<g id="node22" class="node"><title>Node22</title>
<g id="a_node22"><a xlink:href="../../d8/dd3/lbaselib_8c.html#a865eb761a305c588d6940da5272375b7" target="_top" xlink:title="luaB_print">
<polygon fill="none" stroke="black" points="224,-1026.5 224,-1045.5 283,-1045.5 283,-1026.5 224,-1026.5"/>
<text text-anchor="middle" x="253.5" y="-1033.5" font-family="Helvetica,sans-Serif" font-size="10.00">luaB_print</text>
</a>
</g>
</g>
<!-- Node6&#45;&gt;Node22 -->
<g id="edge22" class="edge"><title>Node6&#45;&gt;Node22</title>
<path fill="none" stroke="midnightblue" d="M128.443,-751.733C128.09,-802.376 134.093,-938.47 204,-1017 209.231,-1022.88 216.508,-1026.95 223.837,-1029.77"/>
<polygon fill="midnightblue" stroke="midnightblue" points="131.946,-751.578 128.614,-741.521 124.947,-751.461 131.946,-751.578"/>
</g>
<!-- Node23 -->
<g id="node23" class="node"><title>Node23</title>
<g id="a_node23"><a xlink:href="../../d8/dd3/lbaselib_8c.html#af7799a987ba6d158a96a52e80fb5beaf" target="_top" xlink:title="luaB_setmetatable">
<polygon fill="none" stroke="black" points="205.5,-988.5 205.5,-1007.5 301.5,-1007.5 301.5,-988.5 205.5,-988.5"/>
<text text-anchor="middle" x="253.5" y="-995.5" font-family="Helvetica,sans-Serif" font-size="10.00">luaB_setmetatable</text>
</a>
</g>
</g>
<!-- Node6&#45;&gt;Node23 -->
<g id="edge23" class="edge"><title>Node6&#45;&gt;Node23</title>
<path fill="none" stroke="midnightblue" d="M129.432,-752.166C131.495,-798.344 142.865,-912.862 204,-979 207.56,-982.852 211.997,-985.933 216.73,-988.396"/>
<polygon fill="midnightblue" stroke="midnightblue" points="132.923,-751.844 129.083,-741.969 125.927,-752.083 132.923,-751.844"/>
</g>
<!-- Node24 -->
<g id="node24" class="node"><title>Node24</title>
<g id="a_node24"><a xlink:href="../../d8/dd3/lbaselib_8c.html#a8ba9378d5d46ef34a7429d52c3f3e4c7" target="_top" xlink:title="luaB_assert">
<polygon fill="none" stroke="black" points="219.5,-950.5 219.5,-969.5 287.5,-969.5 287.5,-950.5 219.5,-950.5"/>
<text text-anchor="middle" x="253.5" y="-957.5" font-family="Helvetica,sans-Serif" font-size="10.00">luaB_assert</text>
</a>
</g>
</g>
<!-- Node6&#45;&gt;Node24 -->
<g id="edge25" class="edge"><title>Node6&#45;&gt;Node24</title>
<path fill="none" stroke="midnightblue" d="M130.715,-751.803C135.271,-792.584 151.207,-886.663 204,-941 208.285,-945.411 213.716,-948.819 219.381,-951.445"/>
<polygon fill="midnightblue" stroke="midnightblue" points="134.191,-751.392 129.711,-741.791 127.226,-752.09 134.191,-751.392"/>
</g>
<!-- Node25 -->
<g id="node25" class="node"><title>Node25</title>
<g id="a_node25"><a xlink:href="../../df/d02/lbitlib_8c.html#a6a0cf932e22a22ae18f7302158bdd490" target="_top" xlink:title="fieldargs">
<polygon fill="none" stroke="red" points="228,-912.5 228,-931.5 279,-931.5 279,-912.5 228,-912.5"/>
<text text-anchor="middle" x="253.5" y="-919.5" font-family="Helvetica,sans-Serif" font-size="10.00">fieldargs</text>
</a>
</g>
</g>
<!-- Node6&#45;&gt;Node25 -->
<g id="edge26" class="edge"><title>Node6&#45;&gt;Node25</title>
<path fill="none" stroke="midnightblue" d="M132.483,-751.51C139.704,-786.497 159.494,-860.237 204,-903 210.521,-909.266 219.348,-913.535 227.684,-916.412"/>
<polygon fill="midnightblue" stroke="midnightblue" points="135.902,-750.753 130.565,-741.601 129.03,-752.084 135.902,-750.753"/>
</g>
<!-- Node26 -->
<g id="node26" class="node"><title>Node26</title>
<g id="a_node26"><a xlink:href="../../de/df3/liolib_8c.html#a3a596f9304846a90435b75c75c55acda" target="_top" xlink:title="tofile">
<polygon fill="none" stroke="red" points="236,-874.5 236,-893.5 271,-893.5 271,-874.5 236,-874.5"/>
<text text-anchor="middle" x="253.5" y="-881.5" font-family="Helvetica,sans-Serif" font-size="10.00">tofile</text>
</a>
</g>
</g>
<!-- Node6&#45;&gt;Node26 -->
<g id="edge27" class="edge"><title>Node6&#45;&gt;Node26</title>
<path fill="none" stroke="midnightblue" d="M135.232,-751.506C145.313,-780.139 167.803,-833.549 204,-865 213.011,-872.829 225.624,-877.636 235.729,-880.456"/>
<polygon fill="midnightblue" stroke="midnightblue" points="138.486,-750.2 131.974,-741.843 131.853,-752.437 138.486,-750.2"/>
</g>
<!-- Node27 -->
<g id="node27" class="node"><title>Node27</title>
<g id="a_node27"><a xlink:href="../../de/df3/liolib_8c.html#a91ec9c6fa0ef33085f29a15532ac80a7" target="_top" xlink:title="opencheck">
<polygon fill="none" stroke="red" points="222.5,-836.5 222.5,-855.5 284.5,-855.5 284.5,-836.5 222.5,-836.5"/>
<text text-anchor="middle" x="253.5" y="-843.5" font-family="Helvetica,sans-Serif" font-size="10.00">opencheck</text>
</a>
</g>
</g>
<!-- Node6&#45;&gt;Node27 -->
<g id="edge28" class="edge"><title>Node6&#45;&gt;Node27</title>
<path fill="none" stroke="midnightblue" d="M139.388,-750.418C152.138,-771.537 175.601,-805.946 204,-827 209.521,-831.093 216.039,-834.43 222.474,-837.1"/>
<polygon fill="midnightblue" stroke="midnightblue" points="142.381,-748.603 134.304,-741.746 136.342,-752.143 142.381,-748.603"/>
</g>
<!-- Node28 -->
<g id="node28" class="node"><title>Node28</title>
<g id="a_node28"><a xlink:href="../../de/df3/liolib_8c.html#a3bccbdacdc9f21f22a603525be1f3699" target="_top" xlink:title="getiofile">
<polygon fill="none" stroke="red" points="230,-798.5 230,-817.5 277,-817.5 277,-798.5 230,-798.5"/>
<text text-anchor="middle" x="253.5" y="-805.5" font-family="Helvetica,sans-Serif" font-size="10.00">getiofile</text>
</a>
</g>
</g>
<!-- Node6&#45;&gt;Node28 -->
<g id="edge29" class="edge"><title>Node6&#45;&gt;Node28</title>
<path fill="none" stroke="midnightblue" d="M147.274,-748.192C161.874,-760.541 183.258,-777.353 204,-789 212.043,-793.516 221.376,-797.45 229.695,-800.548"/>
<polygon fill="midnightblue" stroke="midnightblue" points="149.379,-745.385 139.518,-741.51 144.81,-750.688 149.379,-745.385"/>
</g>
<!-- Node29 -->
<g id="node29" class="node"><title>Node29</title>
<g id="a_node29"><a xlink:href="../../de/df3/liolib_8c.html#ac37d80ee2cc364b4adafcb6f7c20f28b" target="_top" xlink:title="io_readline">
<polygon fill="none" stroke="red" points="223,-760.5 223,-779.5 284,-779.5 284,-760.5 223,-760.5"/>
<text text-anchor="middle" x="253.5" y="-767.5" font-family="Helvetica,sans-Serif" font-size="10.00">io_readline</text>
</a>
</g>
</g>
<!-- Node6&#45;&gt;Node29 -->
<g id="edge30" class="edge"><title>Node6&#45;&gt;Node29</title>
<path fill="none" stroke="midnightblue" d="M166.356,-743.494C184.411,-749.05 205.781,-755.625 222.72,-760.837"/>
<polygon fill="midnightblue" stroke="midnightblue" points="167.303,-740.124 156.716,-740.528 165.244,-746.814 167.303,-740.124"/>
</g>
<!-- Node30 -->
<g id="node30" class="node"><title>Node30</title>
<g id="a_node30"><a xlink:href="../../d1/d6a/lmathlib_8c.html#aa3ad02d4204d21d35a0825281915fb22" target="_top" xlink:title="math_random">
<polygon fill="none" stroke="black" points="216.5,-722.5 216.5,-741.5 290.5,-741.5 290.5,-722.5 216.5,-722.5"/>
<text text-anchor="middle" x="253.5" y="-729.5" font-family="Helvetica,sans-Serif" font-size="10.00">math_random</text>
</a>
</g>
</g>
<!-- Node6&#45;&gt;Node30 -->
<g id="edge31" class="edge"><title>Node6&#45;&gt;Node30</title>
<path fill="none" stroke="midnightblue" d="M167.143,-732C182.847,-732 200.949,-732 216.431,-732"/>
<polygon fill="midnightblue" stroke="midnightblue" points="166.716,-728.5 156.716,-732 166.716,-735.5 166.716,-728.5"/>
</g>
<!-- Node31 -->
<g id="node31" class="node"><title>Node31</title>
<g id="a_node31"><a xlink:href="../../d2/d82/loadlib_8c.html#af8f7333f1a59f3d7aab8c9b79b7a4ab2" target="_top" xlink:title="findfile">
<polygon fill="none" stroke="red" points="233,-684.5 233,-703.5 274,-703.5 274,-684.5 233,-684.5"/>
<text text-anchor="middle" x="253.5" y="-691.5" font-family="Helvetica,sans-Serif" font-size="10.00">findfile</text>
</a>
</g>
</g>
<!-- Node6&#45;&gt;Node31 -->
<g id="edge32" class="edge"><title>Node6&#45;&gt;Node31</title>
<path fill="none" stroke="midnightblue" d="M166.396,-720.494C188.32,-713.748 215.122,-705.501 232.941,-700.018"/>
<polygon fill="midnightblue" stroke="midnightblue" points="165.244,-717.186 156.716,-723.472 167.303,-723.876 165.244,-717.186"/>
</g>
<!-- Node32 -->
<g id="node32" class="node"><title>Node32</title>
<g id="a_node32"><a xlink:href="../../d2/d82/loadlib_8c.html#abe3af664b33d2158ef6526094c84bb17" target="_top" xlink:title="checkload">
<polygon fill="none" stroke="red" points="224,-646.5 224,-665.5 283,-665.5 283,-646.5 224,-646.5"/>
<text text-anchor="middle" x="253.5" y="-653.5" font-family="Helvetica,sans-Serif" font-size="10.00">checkload</text>
</a>
</g>
</g>
<!-- Node6&#45;&gt;Node32 -->
<g id="edge33" class="edge"><title>Node6&#45;&gt;Node32</title>
<path fill="none" stroke="midnightblue" d="M147.274,-715.808C161.874,-703.459 183.258,-686.647 204,-675 210.308,-671.458 217.41,-668.274 224.194,-665.571"/>
<polygon fill="midnightblue" stroke="midnightblue" points="144.81,-713.312 139.518,-722.49 149.379,-718.615 144.81,-713.312"/>
</g>
<!-- Node33 -->
<g id="node33" class="node"><title>Node33</title>
<g id="a_node33"><a xlink:href="../../d2/d82/loadlib_8c.html#aeea4101591c7cab25273f4dfe7d811d6" target="_top" xlink:title="findloader">
<polygon fill="none" stroke="red" points="225.5,-608.5 225.5,-627.5 281.5,-627.5 281.5,-608.5 225.5,-608.5"/>
<text text-anchor="middle" x="253.5" y="-615.5" font-family="Helvetica,sans-Serif" font-size="10.00">findloader</text>
</a>
</g>
</g>
<!-- Node6&#45;&gt;Node33 -->
<g id="edge34" class="edge"><title>Node6&#45;&gt;Node33</title>
<path fill="none" stroke="midnightblue" d="M139.388,-713.582C152.138,-692.463 175.601,-658.054 204,-637 210.32,-632.315 217.946,-628.619 225.26,-625.782"/>
<polygon fill="midnightblue" stroke="midnightblue" points="136.342,-711.857 134.304,-722.254 142.381,-715.397 136.342,-711.857"/>
</g>
<!-- Node34 -->
<g id="node34" class="node"><title>Node34</title>
<g id="a_node34"><a xlink:href="../../dc/dba/loslib_8c.html#a89a90062784a8adc223ff4cbe576321d" target="_top" xlink:title="os_tmpname">
<polygon fill="none" stroke="black" points="217.5,-570.5 217.5,-589.5 289.5,-589.5 289.5,-570.5 217.5,-570.5"/>
<text text-anchor="middle" x="253.5" y="-577.5" font-family="Helvetica,sans-Serif" font-size="10.00">os_tmpname</text>
</a>
</g>
</g>
<!-- Node6&#45;&gt;Node34 -->
<g id="edge35" class="edge"><title>Node6&#45;&gt;Node34</title>
<path fill="none" stroke="midnightblue" d="M135.232,-712.494C145.313,-683.861 167.803,-630.451 204,-599 208.437,-595.145 213.748,-592.022 219.202,-589.509"/>
<polygon fill="midnightblue" stroke="midnightblue" points="131.853,-711.563 131.974,-722.157 138.486,-713.8 131.853,-711.563"/>
</g>
<!-- Node35 -->
<g id="node35" class="node"><title>Node35</title>
<g id="a_node35"><a xlink:href="../../dc/dba/loslib_8c.html#a4d6a2679129f7d65f34a60a6c701b782" target="_top" xlink:title="getfield">
<polygon fill="none" stroke="red" points="231,-532.5 231,-551.5 276,-551.5 276,-532.5 231,-532.5"/>
<text text-anchor="middle" x="253.5" y="-539.5" font-family="Helvetica,sans-Serif" font-size="10.00">getfield</text>
</a>
</g>
</g>
<!-- Node6&#45;&gt;Node35 -->
<g id="edge36" class="edge"><title>Node6&#45;&gt;Node35</title>
<path fill="none" stroke="midnightblue" d="M132.483,-712.49C139.704,-677.503 159.494,-603.763 204,-561 211.303,-553.983 221.5,-549.469 230.659,-546.611"/>
<polygon fill="midnightblue" stroke="midnightblue" points="129.03,-711.916 130.565,-722.399 135.902,-713.247 129.03,-711.916"/>
</g>
<!-- Node36 -->
<g id="node36" class="node"><title>Node36</title>
<g id="a_node36"><a xlink:href="../../dc/d77/lstrlib_8c.html#acaee4c84f29e2ec7366728ca04d3569c" target="_top" xlink:title="str_rep">
<polygon fill="none" stroke="black" points="231,-494.5 231,-513.5 276,-513.5 276,-494.5 231,-494.5"/>
<text text-anchor="middle" x="253.5" y="-501.5" font-family="Helvetica,sans-Serif" font-size="10.00">str_rep</text>
</a>
</g>
</g>
<!-- Node6&#45;&gt;Node36 -->
<g id="edge37" class="edge"><title>Node6&#45;&gt;Node36</title>
<path fill="none" stroke="midnightblue" d="M130.715,-712.197C135.271,-671.416 151.207,-577.337 204,-523 211.184,-515.606 221.587,-511.029 230.918,-508.227"/>
<polygon fill="midnightblue" stroke="midnightblue" points="127.226,-711.91 129.711,-722.209 134.191,-712.608 127.226,-711.91"/>
</g>
<!-- Node37 -->
<g id="node37" class="node"><title>Node37</title>
<g id="a_node37"><a xlink:href="../../dc/d77/lstrlib_8c.html#abc94e3a13f1b6ddb2c9b20c9fd89e87f" target="_top" xlink:title="str_dump">
<polygon fill="none" stroke="black" points="225.5,-456.5 225.5,-475.5 281.5,-475.5 281.5,-456.5 225.5,-456.5"/>
<text text-anchor="middle" x="253.5" y="-463.5" font-family="Helvetica,sans-Serif" font-size="10.00">str_dump</text>
</a>
</g>
</g>
<!-- Node6&#45;&gt;Node37 -->
<g id="edge39" class="edge"><title>Node6&#45;&gt;Node37</title>
<path fill="none" stroke="midnightblue" d="M129.432,-711.834C131.495,-665.656 142.865,-551.138 204,-485 209.709,-478.824 217.67,-474.628 225.495,-471.788"/>
<polygon fill="midnightblue" stroke="midnightblue" points="125.927,-711.917 129.083,-722.031 132.923,-712.156 125.927,-711.917"/>
</g>
<!-- Node38 -->
<g id="node38" class="node"><title>Node38</title>
<g id="a_node38"><a xlink:href="../../dc/d77/lstrlib_8c.html#aa8c1a193fa762ecfe81888d86981a586" target="_top" xlink:title="check_capture">
<polygon fill="none" stroke="red" points="215,-418.5 215,-437.5 292,-437.5 292,-418.5 215,-418.5"/>
<text text-anchor="middle" x="253.5" y="-425.5" font-family="Helvetica,sans-Serif" font-size="10.00">check_capture</text>
</a>
</g>
</g>
<!-- Node6&#45;&gt;Node38 -->
<g id="edge40" class="edge"><title>Node6&#45;&gt;Node38</title>
<path fill="none" stroke="midnightblue" d="M128.443,-712.267C128.09,-661.624 134.093,-525.53 204,-447 207.367,-443.217 211.582,-440.181 216.113,-437.744"/>
<polygon fill="midnightblue" stroke="midnightblue" points="124.947,-712.539 128.614,-722.479 131.946,-712.422 124.947,-712.539"/>
</g>
<!-- Node39 -->
<g id="node39" class="node"><title>Node39</title>
<g id="a_node39"><a xlink:href="../../dc/d77/lstrlib_8c.html#a5e8b364a8f8d4300aa5007c0feb42abf" target="_top" xlink:title="capture_to_close">
<polygon fill="none" stroke="red" points="209.5,-380.5 209.5,-399.5 297.5,-399.5 297.5,-380.5 209.5,-380.5"/>
<text text-anchor="middle" x="253.5" y="-387.5" font-family="Helvetica,sans-Serif" font-size="10.00">capture_to_close</text>
</a>
</g>
</g>
<!-- Node6&#45;&gt;Node39 -->
<g id="edge41" class="edge"><title>Node6&#45;&gt;Node39</title>
<path fill="none" stroke="midnightblue" d="M131.172,-712.269C138.444,-649.455 163.775,-455.536 204,-409 207.312,-405.169 211.495,-402.104 216.011,-399.655"/>
<polygon fill="midnightblue" stroke="midnightblue" points="127.671,-712.077 130.024,-722.407 134.627,-712.864 127.671,-712.077"/>
</g>
<!-- Node40 -->
<g id="node40" class="node"><title>Node40</title>
<g id="a_node40"><a xlink:href="../../dc/d77/lstrlib_8c.html#a72b26c2a339f5e84ef087e961b547f95" target="_top" xlink:title="classend">
<polygon fill="none" stroke="black" points="226,-190.5 226,-209.5 281,-209.5 281,-190.5 226,-190.5"/>
<text text-anchor="middle" x="253.5" y="-197.5" font-family="Helvetica,sans-Serif" font-size="10.00">classend</text>
</a>
</g>
</g>
<!-- Node6&#45;&gt;Node40 -->
<g id="edge42" class="edge"><title>Node6&#45;&gt;Node40</title>
<path fill="none" stroke="midnightblue" d="M129.311,-712.271C131.019,-627.817 141.643,-297.5 204,-219 209.456,-212.131 217.741,-207.74 225.927,-204.935"/>
<polygon fill="midnightblue" stroke="midnightblue" points="125.811,-712.248 129.128,-722.31 132.81,-712.375 125.811,-712.248"/>
</g>
<!-- Node41 -->
<g id="node41" class="node"><title>Node41</title>
<g id="a_node41"><a xlink:href="../../dc/d77/lstrlib_8c.html#a52a45835b75e5d31ec66421456bbb728" target="_top" xlink:title="match">
<polygon fill="none" stroke="red" points="362.5,-247.5 362.5,-266.5 404.5,-266.5 404.5,-247.5 362.5,-247.5"/>
<text text-anchor="middle" x="383.5" y="-254.5" font-family="Helvetica,sans-Serif" font-size="10.00">match</text>
</a>
</g>
</g>
<!-- Node6&#45;&gt;Node41 -->
<g id="edge49" class="edge"><title>Node6&#45;&gt;Node41</title>
<path fill="none" stroke="midnightblue" d="M129.646,-712.107C132.54,-635.525 146.804,-361.01 204,-300 245.859,-255.351 325.336,-253.488 362.458,-255.347"/>
<polygon fill="midnightblue" stroke="midnightblue" points="126.142,-712.163 129.286,-722.28 133.137,-712.41 126.142,-712.163"/>
</g>
<!-- Node42 -->
<g id="node42" class="node"><title>Node42</title>
<g id="a_node42"><a xlink:href="../../dc/d77/lstrlib_8c.html#a31cf026bdaa00bf9c72a1e4f72319147" target="_top" xlink:title="start_capture">
<polygon fill="none" stroke="black" points="464,-247.5 464,-266.5 535,-266.5 535,-247.5 464,-247.5"/>
<text text-anchor="middle" x="499.5" y="-254.5" font-family="Helvetica,sans-Serif" font-size="10.00">start_capture</text>
</a>
</g>
</g>
<!-- Node6&#45;&gt;Node42 -->
<g id="edge48" class="edge"><title>Node6&#45;&gt;Node42</title>
<path fill="none" stroke="midnightblue" d="M130.209,-712.073C134.913,-640.973 154.26,-401.067 204,-346 212.962,-336.078 388.101,-287.222 463.958,-266.413"/>
<polygon fill="midnightblue" stroke="midnightblue" points="126.699,-712.114 129.557,-722.317 133.685,-712.559 126.699,-712.114"/>
</g>
<!-- Node43 -->
<g id="node43" class="node"><title>Node43</title>
<g id="a_node43"><a xlink:href="../../dc/d77/lstrlib_8c.html#aacb8f9104a816720da707ecf5219a96e" target="_top" xlink:title="matchbalance">
<polygon fill="none" stroke="black" points="215,-228.5 215,-247.5 292,-247.5 292,-228.5 215,-228.5"/>
<text text-anchor="middle" x="253.5" y="-235.5" font-family="Helvetica,sans-Serif" font-size="10.00">matchbalance</text>
</a>
</g>
</g>
<!-- Node6&#45;&gt;Node43 -->
<g id="edge46" class="edge"><title>Node6&#45;&gt;Node43</title>
<path fill="none" stroke="midnightblue" d="M129.78,-712.304C133.282,-632.709 149.826,-335.562 204,-262 208.568,-255.797 215.186,-251.105 222.072,-247.593"/>
<polygon fill="midnightblue" stroke="midnightblue" points="126.278,-712.279 129.355,-722.417 133.272,-712.573 126.278,-712.279"/>
</g>
<!-- Node44 -->
<g id="node44" class="node"><title>Node44</title>
<g id="a_node44"><a xlink:href="../../dc/d77/lstrlib_8c.html#a24a14b4e6e90bac4610dd334bb0b51b6" target="_top" xlink:title="push_onecapture">
<polygon fill="none" stroke="red" points="208,-152.5 208,-171.5 299,-171.5 299,-152.5 208,-152.5"/>
<text text-anchor="middle" x="253.5" y="-159.5" font-family="Helvetica,sans-Serif" font-size="10.00">push_onecapture</text>
</a>
</g>
</g>
<!-- Node6&#45;&gt;Node44 -->
<g id="edge50" class="edge"><title>Node6&#45;&gt;Node44</title>
<path fill="none" stroke="midnightblue" d="M129.09,-712.244C129.873,-623.934 137.181,-265.976 204,-181 207.018,-177.161 210.922,-174.097 215.202,-171.65"/>
<polygon fill="midnightblue" stroke="midnightblue" points="125.589,-712.435 129.02,-722.459 132.589,-712.483 125.589,-712.435"/>
</g>
<!-- Node45 -->
<g id="node45" class="node"><title>Node45</title>
<g id="a_node45"><a xlink:href="../../dc/d77/lstrlib_8c.html#ad5f7e3fbcadc8825f7f650ecf458fc72" target="_top" xlink:title="add_s">
<polygon fill="none" stroke="black" points="361.5,-114.5 361.5,-133.5 405.5,-133.5 405.5,-114.5 361.5,-114.5"/>
<text text-anchor="middle" x="383.5" y="-121.5" font-family="Helvetica,sans-Serif" font-size="10.00">add_s</text>
</a>
</g>
</g>
<!-- Node6&#45;&gt;Node45 -->
<g id="edge54" class="edge"><title>Node6&#45;&gt;Node45</title>
<path fill="none" stroke="midnightblue" d="M130.095,-712.006C135.672,-613.606 162.297,-183.852 204,-143 246.299,-101.564 324.136,-111.168 361.459,-118.875"/>
<polygon fill="midnightblue" stroke="midnightblue" points="126.595,-711.911 129.532,-722.091 133.584,-712.302 126.595,-711.911"/>
</g>
<!-- Node46 -->
<g id="node46" class="node"><title>Node46</title>
<g id="a_node46"><a xlink:href="../../dc/d77/lstrlib_8c.html#ad24cfa73e5ad25ec99a1b48f0916471e" target="_top" xlink:title="add_value">
<polygon fill="none" stroke="red" points="468.5,-114.5 468.5,-133.5 530.5,-133.5 530.5,-114.5 468.5,-114.5"/>
<text text-anchor="middle" x="499.5" y="-121.5" font-family="Helvetica,sans-Serif" font-size="10.00">add_value</text>
</a>
</g>
</g>
<!-- Node6&#45;&gt;Node46 -->
<g id="edge55" class="edge"><title>Node6&#45;&gt;Node46</title>
<path fill="none" stroke="midnightblue" d="M129.859,-712.37C134.489,-610.985 157.989,-149.734 204,-108 282.318,-36.9617 425.909,-90.9389 478.51,-114.469"/>
<polygon fill="midnightblue" stroke="midnightblue" points="126.359,-712.298 129.407,-722.444 133.352,-712.611 126.359,-712.298"/>
</g>
<!-- Node47 -->
<g id="node47" class="node"><title>Node47</title>
<g id="a_node47"><a xlink:href="../../dc/d77/lstrlib_8c.html#aa02d130952004540df86ae92853cfc22" target="_top" xlink:title="scanformat">
<polygon fill="none" stroke="black" points="222,-1254.5 222,-1273.5 285,-1273.5 285,-1254.5 222,-1254.5"/>
<text text-anchor="middle" x="253.5" y="-1261.5" font-family="Helvetica,sans-Serif" font-size="10.00">scanformat</text>
</a>
</g>
</g>
<!-- Node6&#45;&gt;Node47 -->
<g id="edge56" class="edge"><title>Node6&#45;&gt;Node47</title>
<path fill="none" stroke="midnightblue" d="M131.402,-751.795C142.541,-843.067 189.257,-1219.73 204,-1240 208.532,-1246.23 215.137,-1250.93 222.021,-1254.44"/>
<polygon fill="midnightblue" stroke="midnightblue" points="134.856,-751.204 130.173,-741.7 127.907,-752.05 134.856,-751.204"/>
</g>
<!-- Node48 -->
<g id="node48" class="node"><title>Node48</title>
<g id="a_node48"><a xlink:href="../../d0/da1/ltablib_8c.html#a214ed6966e2b1b4c376ab0de0d09032e" target="_top" xlink:title="tinsert">
<polygon fill="none" stroke="black" points="233,-38.5 233,-57.5 274,-57.5 274,-38.5 233,-38.5"/>
<text text-anchor="middle" x="253.5" y="-45.5" font-family="Helvetica,sans-Serif" font-size="10.00">tinsert</text>
</a>
</g>
</g>
<!-- Node6&#45;&gt;Node48 -->
<g id="edge59" class="edge"><title>Node6&#45;&gt;Node48</title>
<path fill="none" stroke="midnightblue" d="M128.769,-712.025C127.991,-613.405 128.936,-178.895 204,-72 210.803,-62.3126 222.658,-56.3473 232.944,-52.7869"/>
<polygon fill="midnightblue" stroke="midnightblue" points="125.27,-712.153 128.865,-722.119 132.269,-712.086 125.27,-712.153"/>
</g>
<!-- Node49 -->
<g id="node49" class="node"><title>Node49</title>
<g id="a_node49"><a xlink:href="../../d0/da1/ltablib_8c.html#a4ea6cc51c099ea709c7755a49216f4d0" target="_top" xlink:title="addfield">
<polygon fill="none" stroke="red" points="229,-0.5 229,-19.5 278,-19.5 278,-0.5 229,-0.5"/>
<text text-anchor="middle" x="253.5" y="-7.5" font-family="Helvetica,sans-Serif" font-size="10.00">addfield</text>
</a>
</g>
</g>
<!-- Node6&#45;&gt;Node49 -->
<g id="edge60" class="edge"><title>Node6&#45;&gt;Node49</title>
<path fill="none" stroke="midnightblue" d="M129.894,-712.268C134.959,-603.995 161.342,-84.8981 204,-29 209.98,-21.164 219.66,-16.5563 228.805,-13.8485"/>
<polygon fill="midnightblue" stroke="midnightblue" points="126.39,-712.274 129.426,-722.424 133.383,-712.596 126.39,-712.274"/>
</g>
<!-- Node50 -->
<g id="node50" class="node"><title>Node50</title>
<g id="a_node50"><a xlink:href="../../d0/da1/ltablib_8c.html#a40096c011a188a26849b68cd9d5d920e" target="_top" xlink:title="auxsort">
<polygon fill="none" stroke="red" points="229.5,-1406.5 229.5,-1425.5 277.5,-1425.5 277.5,-1406.5 229.5,-1406.5"/>
<text text-anchor="middle" x="253.5" y="-1413.5" font-family="Helvetica,sans-Serif" font-size="10.00">auxsort</text>
</a>
</g>
</g>
<!-- Node6&#45;&gt;Node50 -->
<g id="edge62" class="edge"><title>Node6&#45;&gt;Node50</title>
<path fill="none" stroke="midnightblue" d="M131.476,-751.629C137.806,-801.993 154.997,-939.924 168,-1055 176.581,-1130.94 157.682,-1336.22 204,-1397 210.084,-1404.98 220.01,-1409.62 229.303,-1412.3"/>
<polygon fill="midnightblue" stroke="midnightblue" points="134.923,-750.991 130.202,-741.506 127.978,-751.865 134.923,-750.991"/>
</g>
<!-- Node8 -->
<g id="node8" class="node"><title>Node8</title>
<g id="a_node8"><a xlink:href="../../d0/d56/lauxlib_8c.html#ae1abbe81af2d487f783ed9b4e5a6c7fd" target="_top" xlink:title="typeerror">
<polygon fill="none" stroke="red" points="357,-1387.5 357,-1406.5 410,-1406.5 410,-1387.5 357,-1387.5"/>
<text text-anchor="middle" x="383.5" y="-1394.5" font-family="Helvetica,sans-Serif" font-size="10.00">typeerror</text>
</a>
</g>
</g>
<!-- Node7&#45;&gt;Node8 -->
<g id="edge7" class="edge"><title>Node7&#45;&gt;Node8</title>
<path fill="none" stroke="midnightblue" d="M299.225,-1384.64C318.477,-1387.5 340.297,-1390.74 356.77,-1393.18"/>
<polygon fill="midnightblue" stroke="midnightblue" points="299.544,-1381.15 289.139,-1383.14 298.516,-1388.07 299.544,-1381.15"/>
</g>
<!-- Node9 -->
<g id="node9" class="node"><title>Node9</title>
<g id="a_node9"><a xlink:href="../../da/d29/lauxlib_8h.html#a638633914d3a19650db8320c1fccf161" target="_top" xlink:title="luaL_checkoption">
<polygon fill="none" stroke="red" points="339,-1349.5 339,-1368.5 428,-1368.5 428,-1349.5 339,-1349.5"/>
<text text-anchor="middle" x="383.5" y="-1356.5" font-family="Helvetica,sans-Serif" font-size="10.00">luaL_checkoption</text>
</a>
</g>
</g>
<!-- Node7&#45;&gt;Node9 -->
<g id="edge8" class="edge"><title>Node7&#45;&gt;Node9</title>
<path fill="none" stroke="midnightblue" d="M299.125,-1371.38C311.938,-1369.47 325.895,-1367.4 338.661,-1365.51"/>
<polygon fill="midnightblue" stroke="midnightblue" points="298.516,-1367.93 289.139,-1372.86 299.544,-1374.85 298.516,-1367.93"/>
</g>
<!-- Node10 -->
<g id="node10" class="node"><title>Node10</title>
<g id="a_node10"><a xlink:href="../../da/d29/lauxlib_8h.html#ad78c85dce421e9cb793e205b9e81c640" target="_top" xlink:title="luaL_checkany">
<polygon fill="none" stroke="red" points="343.5,-1311.5 343.5,-1330.5 423.5,-1330.5 423.5,-1311.5 343.5,-1311.5"/>
<text text-anchor="middle" x="383.5" y="-1318.5" font-family="Helvetica,sans-Serif" font-size="10.00">luaL_checkany</text>
</a>
</g>
</g>
<!-- Node7&#45;&gt;Node10 -->
<g id="edge9" class="edge"><title>Node7&#45;&gt;Node10</title>
<path fill="none" stroke="midnightblue" d="M285.077,-1364.15C301.115,-1356.92 321.098,-1347.93 339,-1340 345.931,-1336.93 353.499,-1333.61 360.35,-1330.62"/>
<polygon fill="midnightblue" stroke="midnightblue" points="283.327,-1361.1 275.655,-1368.41 286.209,-1367.48 283.327,-1361.1"/>
</g>
<!-- Node11 -->
<g id="node11" class="node"><title>Node11</title>
<g id="a_node11"><a xlink:href="../../d8/d97/ldblib_8c.html#a233c3c4d12bda0fdbf515a18b8961461" target="_top" xlink:title="db_setuservalue">
<polygon fill="none" stroke="black" points="340,-1501.5 340,-1520.5 427,-1520.5 427,-1501.5 340,-1501.5"/>
<text text-anchor="middle" x="383.5" y="-1508.5" font-family="Helvetica,sans-Serif" font-size="10.00">db_setuservalue</text>
</a>
</g>
</g>
<!-- Node7&#45;&gt;Node11 -->
<g id="edge10" class="edge"><title>Node7&#45;&gt;Node11</title>
<path fill="none" stroke="midnightblue" d="M297.778,-1392.53C299.642,-1393.9 301.398,-1395.38 303,-1397 334.749,-1429.1 307.874,-1459.29 339,-1492 342.636,-1495.82 347.173,-1498.92 351.932,-1501.42"/>
<polygon fill="midnightblue" stroke="midnightblue" points="299.432,-1389.45 289.051,-1387.33 295.846,-1395.46 299.432,-1389.45"/>
</g>
<!-- Node12 -->
<g id="node12" class="node"><title>Node12</title>
<g id="a_node12"><a xlink:href="../../d8/d97/ldblib_8c.html#a4eb57e66c2efb2d31c9b9e1b01d27e13" target="_top" xlink:title="db_getinfo">
<polygon fill="none" stroke="black" points="353.5,-1463.5 353.5,-1482.5 413.5,-1482.5 413.5,-1463.5 353.5,-1463.5"/>
<text text-anchor="middle" x="383.5" y="-1470.5" font-family="Helvetica,sans-Serif" font-size="10.00">db_getinfo</text>
</a>
</g>
</g>
<!-- Node7&#45;&gt;Node12 -->
<g id="edge11" class="edge"><title>Node7&#45;&gt;Node12</title>
<path fill="none" stroke="midnightblue" d="M296.534,-1392.4C298.811,-1393.81 300.987,-1395.34 303,-1397 326.101,-1416.08 316.27,-1434.48 339,-1454 343.376,-1457.76 348.611,-1460.88 353.909,-1463.44"/>
<polygon fill="midnightblue" stroke="midnightblue" points="297.865,-1389.15 287.387,-1387.58 294.601,-1395.34 297.865,-1389.15"/>
</g>
<!-- Node13 -->
<g id="node13" class="node"><title>Node13</title>
<g id="a_node13"><a xlink:href="../../d8/d97/ldblib_8c.html#ae802ce7397e9ebb08a90b69976578ecc" target="_top" xlink:title="db_getlocal">
<polygon fill="none" stroke="black" points="351,-1425.5 351,-1444.5 416,-1444.5 416,-1425.5 351,-1425.5"/>
<text text-anchor="middle" x="383.5" y="-1432.5" font-family="Helvetica,sans-Serif" font-size="10.00">db_getlocal</text>
</a>
</g>
</g>
<!-- Node7&#45;&gt;Node13 -->
<g id="edge12" class="edge"><title>Node7&#45;&gt;Node13</title>
<path fill="none" stroke="midnightblue" d="M289.958,-1391.36C294.381,-1393.18 298.817,-1395.08 303,-1397 319.448,-1404.53 322.699,-1408.15 339,-1416 345.683,-1419.22 353.043,-1422.52 359.779,-1425.45"/>
<polygon fill="midnightblue" stroke="midnightblue" points="290.984,-1388 280.399,-1387.53 288.38,-1394.5 290.984,-1388"/>
</g>
<!-- Node7&#45;&gt;Node14 -->
<g id="edge13" class="edge"><title>Node7&#45;&gt;Node14</title>
<path fill="none" stroke="midnightblue" d="M288.912,-1363.73C293.906,-1360.89 298.778,-1357.65 303,-1354 324.273,-1335.63 317.295,-1319.86 339,-1302 343.709,-1298.13 349.33,-1294.9 354.943,-1292.28"/>
<polygon fill="midnightblue" stroke="midnightblue" points="287.181,-1360.68 279.906,-1368.38 290.396,-1366.9 287.181,-1360.68"/>
</g>
<!-- Node15&#45;&gt;Node16 -->
<g id="edge15" class="edge"><title>Node15&#45;&gt;Node16</title>
<path fill="none" stroke="midnightblue" d="M306.752,-1195.76C319.422,-1197.64 332.728,-1199.61 344.591,-1201.37"/>
<polygon fill="midnightblue" stroke="midnightblue" points="307.172,-1192.28 296.767,-1194.27 306.144,-1199.2 307.172,-1192.28"/>
</g>
<!-- Node15&#45;&gt;Node17 -->
<g id="edge16" class="edge"><title>Node15&#45;&gt;Node17</title>
<path fill="none" stroke="midnightblue" d="M306.532,-1176.21C324.415,-1172.16 343.591,-1167.82 358.203,-1164.5"/>
<polygon fill="midnightblue" stroke="midnightblue" points="305.746,-1172.8 296.767,-1178.42 307.293,-1179.63 305.746,-1172.8"/>
</g>
<!-- Node18&#45;&gt;Node14 -->
<g id="edge18" class="edge"><title>Node18&#45;&gt;Node14</title>
<path fill="none" stroke="midnightblue" d="M309.743,-1293.8C325.351,-1291.48 341.667,-1289.06 354.883,-1287.1"/>
<polygon fill="midnightblue" stroke="midnightblue" points="309.006,-1290.37 299.628,-1295.3 310.034,-1297.3 309.006,-1290.37"/>
</g>
<!-- Node19&#45;&gt;Node20 -->
<g id="edge20" class="edge"><title>Node19&#45;&gt;Node20</title>
<path fill="none" stroke="midnightblue" d="M289.139,-1103.36C294.367,-1100.76 299.255,-1097.38 303,-1093 350.631,-1037.26 376.57,-793.417 381.594,-741.673"/>
<polygon fill="midnightblue" stroke="midnightblue" points="287.484,-1100.26 279.532,-1107.26 290.114,-1106.74 287.484,-1100.26"/>
</g>
<!-- Node40&#45;&gt;Node41 -->
<g id="edge43" class="edge"><title>Node40&#45;&gt;Node41</title>
<path fill="none" stroke="midnightblue" d="M289.217,-213.247C293.872,-215.126 298.567,-217.075 303,-219 323.908,-228.078 347.409,-239.462 363.402,-247.392"/>
<polygon fill="midnightblue" stroke="midnightblue" points="290.4,-209.951 279.814,-209.517 287.819,-216.458 290.4,-209.951"/>
</g>
<!-- Node41&#45;&gt;Node42 -->
<g id="edge44" class="edge"><title>Node41&#45;&gt;Node42</title>
<path fill="none" stroke="midnightblue" d="M414.936,-250.949C429.994,-250.096 448.237,-250.024 463.832,-250.733"/>
<polygon fill="midnightblue" stroke="midnightblue" points="414.335,-247.484 404.618,-251.709 414.849,-254.465 414.335,-247.484"/>
</g>
<!-- Node42&#45;&gt;Node41 -->
<g id="edge45" class="edge"><title>Node42&#45;&gt;Node41</title>
<path fill="none" stroke="midnightblue" d="M453.534,-263.614C436.594,-264.001 418.17,-263.56 404.618,-262.291"/>
<polygon fill="midnightblue" stroke="midnightblue" points="453.956,-267.102 463.832,-263.267 453.719,-260.106 453.956,-267.102"/>
</g>
<!-- Node43&#45;&gt;Node41 -->
<g id="edge47" class="edge"><title>Node43&#45;&gt;Node41</title>
<path fill="none" stroke="midnightblue" d="M302.202,-245.081C323.041,-248.174 346.351,-251.634 362.465,-254.026"/>
<polygon fill="midnightblue" stroke="midnightblue" points="302.617,-241.604 292.212,-243.598 301.59,-248.528 302.617,-241.604"/>
</g>
<!-- Node44&#45;&gt;Node45 -->
<g id="edge51" class="edge"><title>Node44&#45;&gt;Node45</title>
<path fill="none" stroke="midnightblue" d="M296.482,-149.537C318.241,-143.077 343.866,-135.47 361.453,-130.248"/>
<polygon fill="midnightblue" stroke="midnightblue" points="295.39,-146.21 286.8,-152.411 297.382,-152.92 295.39,-146.21"/>
</g>
<!-- Node44&#45;&gt;Node46 -->
<g id="edge53" class="edge"><title>Node44&#45;&gt;Node46</title>
<path fill="none" stroke="midnightblue" d="M309.628,-158.147C343.889,-155.213 388.735,-150.395 428,-143 441.329,-140.49 455.832,-136.758 468.199,-133.266"/>
<polygon fill="midnightblue" stroke="midnightblue" points="309.03,-154.684 299.353,-158.997 309.608,-161.66 309.03,-154.684"/>
</g>
<!-- Node45&#45;&gt;Node46 -->
<g id="edge52" class="edge"><title>Node45&#45;&gt;Node46</title>
<path fill="none" stroke="midnightblue" d="M415.855,-124C432.246,-124 452.211,-124 468.412,-124"/>
<polygon fill="midnightblue" stroke="midnightblue" points="415.675,-120.5 405.675,-124 415.675,-127.5 415.675,-120.5"/>
</g>
<!-- Node47&#45;&gt;Node14 -->
<g id="edge57" class="edge"><title>Node47&#45;&gt;Node14</title>
<path fill="none" stroke="midnightblue" d="M295.246,-1270.05C314.639,-1272.93 337.33,-1276.3 354.71,-1278.87"/>
<polygon fill="midnightblue" stroke="midnightblue" points="295.565,-1266.56 285.159,-1268.55 294.537,-1273.48 295.565,-1266.56"/>
</g>
</g>
</svg>
