<?xml version="1.0" encoding="UTF-8" standalone="no"?>
<!DOCTYPE svg PUBLIC "-//W3C//DTD SVG 1.1//EN"
 "http://www.w3.org/Graphics/SVG/1.1/DTD/svg11.dtd">
<!-- Generated by graphviz version 2.38.0 (20140413.2041)
 -->
<!-- Title: lua_rawseti Pages: 1 -->
<svg width="741pt" height="287pt"
 viewBox="0.00 0.00 741.00 287.22" xmlns="http://www.w3.org/2000/svg" xmlns:xlink="http://www.w3.org/1999/xlink">
<g id="graph0" class="graph" transform="scale(1 1) rotate(0) translate(4 283.216)">
<title>lua_rawseti</title>
<!-- Node1 -->
<g id="node1" class="node"><title>Node1</title>
<polygon fill="#bfbfbf" stroke="black" points="0,-133.5 0,-152.5 65,-152.5 65,-133.5 0,-133.5"/>
<text text-anchor="middle" x="32.5" y="-140.5" font-family="Helvetica,sans-Serif" font-size="10.00">lua_rawseti</text>
</g>
<!-- Node2 -->
<g id="node2" class="node"><title>Node2</title>
<g id="a_node2"><a xlink:href="../../d2/d82/loadlib_8c.html#a8fc66c8b852ee2960dc20797521d1d9e" target="_top" xlink:title="createsearcherstable">
<polygon fill="none" stroke="black" points="499,-228.5 499,-247.5 603,-247.5 603,-228.5 499,-228.5"/>
<text text-anchor="middle" x="551" y="-235.5" font-family="Helvetica,sans-Serif" font-size="10.00">createsearcherstable</text>
</a>
</g>
</g>
<!-- Node1&#45;&gt;Node2 -->
<g id="edge1" class="edge"><title>Node1&#45;&gt;Node2</title>
<path fill="none" stroke="midnightblue" d="M39.2045,-162.485C47.941,-188.604 67.2723,-234.302 101,-257 148.349,-288.865 170.927,-276 228,-276 228,-276 228,-276 322,-276 391.022,-276 470.219,-258.846 514.76,-247.589"/>
<polygon fill="midnightblue" stroke="midnightblue" points="42.4386,-161.103 36.0978,-152.615 35.7615,-163.204 42.4386,-161.103"/>
</g>
<!-- Node4 -->
<g id="node4" class="node"><title>Node4</title>
<g id="a_node4"><a xlink:href="../../d2/d82/loadlib_8c.html#a7a6ec2174d2de185431876163cd2d469" target="_top" xlink:title="ll_addtoclib">
<polygon fill="none" stroke="black" points="101,-228.5 101,-247.5 163,-247.5 163,-228.5 101,-228.5"/>
<text text-anchor="middle" x="132" y="-235.5" font-family="Helvetica,sans-Serif" font-size="10.00">ll_addtoclib</text>
</a>
</g>
</g>
<!-- Node1&#45;&gt;Node4 -->
<g id="edge3" class="edge"><title>Node1&#45;&gt;Node4</title>
<path fill="none" stroke="midnightblue" d="M46.9361,-160.803C59.7452,-177.082 80.1263,-201.255 101,-219 104.946,-222.354 109.532,-225.553 113.914,-228.337"/>
<polygon fill="midnightblue" stroke="midnightblue" points="49.5288,-158.434 40.6439,-152.663 43.9904,-162.715 49.5288,-158.434"/>
</g>
<!-- Node10 -->
<g id="node10" class="node"><title>Node10</title>
<g id="a_node10"><a xlink:href="../../da/d29/lauxlib_8h.html#a2b69e67252d95df410818251f4b2d8e5" target="_top" xlink:title="luaL_ref">
<polygon fill="none" stroke="black" points="107,-190.5 107,-209.5 157,-209.5 157,-190.5 107,-190.5"/>
<text text-anchor="middle" x="132" y="-197.5" font-family="Helvetica,sans-Serif" font-size="10.00">luaL_ref</text>
</a>
</g>
</g>
<!-- Node1&#45;&gt;Node10 -->
<g id="edge11" class="edge"><title>Node1&#45;&gt;Node10</title>
<path fill="none" stroke="midnightblue" d="M58.7059,-157.736C76.3568,-168.055 99.4269,-181.542 114.705,-190.474"/>
<polygon fill="midnightblue" stroke="midnightblue" points="60.439,-154.695 50.0395,-152.669 56.9061,-160.738 60.439,-154.695"/>
</g>
<!-- Node11 -->
<g id="node11" class="node"><title>Node11</title>
<g id="a_node11"><a xlink:href="../../da/d29/lauxlib_8h.html#a6200030ecae784852045161274501e0e" target="_top" xlink:title="luaL_unref">
<polygon fill="none" stroke="black" points="102,-152.5 102,-171.5 162,-171.5 162,-152.5 102,-152.5"/>
<text text-anchor="middle" x="132" y="-159.5" font-family="Helvetica,sans-Serif" font-size="10.00">luaL_unref</text>
</a>
</g>
</g>
<!-- Node1&#45;&gt;Node11 -->
<g id="edge12" class="edge"><title>Node1&#45;&gt;Node11</title>
<path fill="none" stroke="midnightblue" d="M75.1007,-151.107C84.0937,-152.859 93.4185,-154.676 101.815,-156.313"/>
<polygon fill="midnightblue" stroke="midnightblue" points="75.6403,-147.646 65.1555,-149.169 74.3013,-154.517 75.6403,-147.646"/>
</g>
<!-- Node12 -->
<g id="node12" class="node"><title>Node12</title>
<g id="a_node12"><a xlink:href="../../d0/da1/ltablib_8c.html#a46a372295cbd1692b06bdbac4ca58881" target="_top" xlink:title="pack">
<polygon fill="none" stroke="black" points="113,-114.5 113,-133.5 151,-133.5 151,-114.5 113,-114.5"/>
<text text-anchor="middle" x="132" y="-121.5" font-family="Helvetica,sans-Serif" font-size="10.00">pack</text>
</a>
</g>
</g>
<!-- Node1&#45;&gt;Node12 -->
<g id="edge13" class="edge"><title>Node1&#45;&gt;Node12</title>
<path fill="none" stroke="midnightblue" d="M75.0514,-134.903C88.2627,-132.328 102.195,-129.613 112.852,-127.537"/>
<polygon fill="midnightblue" stroke="midnightblue" points="74.3013,-131.483 65.1555,-136.831 75.6403,-138.354 74.3013,-131.483"/>
</g>
<!-- Node13 -->
<g id="node13" class="node"><title>Node13</title>
<g id="a_node13"><a xlink:href="../../d0/da1/ltablib_8c.html#a1172f96899917b7ea1702947b745eca6" target="_top" xlink:title="set2">
<polygon fill="none" stroke="black" points="114.5,-76.5 114.5,-95.5 149.5,-95.5 149.5,-76.5 114.5,-76.5"/>
<text text-anchor="middle" x="132" y="-83.5" font-family="Helvetica,sans-Serif" font-size="10.00">set2</text>
</a>
</g>
</g>
<!-- Node1&#45;&gt;Node13 -->
<g id="edge14" class="edge"><title>Node1&#45;&gt;Node13</title>
<path fill="none" stroke="midnightblue" d="M58.7059,-128.264C76.3568,-117.945 99.4269,-104.458 114.705,-95.5265"/>
<polygon fill="midnightblue" stroke="midnightblue" points="56.9061,-125.262 50.0395,-133.331 60.439,-131.305 56.9061,-125.262"/>
</g>
<!-- Node16 -->
<g id="node16" class="node"><title>Node16</title>
<g id="a_node16"><a xlink:href="../../d0/da1/ltablib_8c.html#a214ed6966e2b1b4c376ab0de0d09032e" target="_top" xlink:title="tinsert">
<polygon fill="none" stroke="black" points="111.5,-38.5 111.5,-57.5 152.5,-57.5 152.5,-38.5 111.5,-38.5"/>
<text text-anchor="middle" x="132" y="-45.5" font-family="Helvetica,sans-Serif" font-size="10.00">tinsert</text>
</a>
</g>
</g>
<!-- Node1&#45;&gt;Node16 -->
<g id="edge17" class="edge"><title>Node1&#45;&gt;Node16</title>
<path fill="none" stroke="midnightblue" d="M46.9361,-125.197C59.7452,-108.918 80.1263,-84.7453 101,-67 104.946,-63.6458 109.532,-60.4471 113.914,-57.6631"/>
<polygon fill="midnightblue" stroke="midnightblue" points="43.9904,-123.285 40.6439,-133.337 49.5288,-127.566 43.9904,-123.285"/>
</g>
<!-- Node17 -->
<g id="node17" class="node"><title>Node17</title>
<g id="a_node17"><a xlink:href="../../d0/da1/ltablib_8c.html#ad8c41fe887a472709c6fdf075ba39d56" target="_top" xlink:title="tremove">
<polygon fill="none" stroke="black" points="107,-0.5 107,-19.5 157,-19.5 157,-0.5 107,-0.5"/>
<text text-anchor="middle" x="132" y="-7.5" font-family="Helvetica,sans-Serif" font-size="10.00">tremove</text>
</a>
</g>
</g>
<!-- Node1&#45;&gt;Node17 -->
<g id="edge18" class="edge"><title>Node1&#45;&gt;Node17</title>
<path fill="none" stroke="midnightblue" d="M41.3816,-123.971C52.1199,-99.7469 73.2323,-57.6127 101,-29 104.435,-25.4607 108.653,-22.2779 112.828,-19.5746"/>
<polygon fill="midnightblue" stroke="midnightblue" points="38.042,-122.878 37.308,-133.447 44.473,-125.642 38.042,-122.878"/>
</g>
<!-- Node3 -->
<g id="node3" class="node"><title>Node3</title>
<g id="a_node3"><a xlink:href="../../d6/d07/lualib_8h.html#a05e0befc0439f926b6152129ab4f8dea" target="_top" xlink:title="luaopen_package">
<polygon fill="none" stroke="black" points="639,-228.5 639,-247.5 733,-247.5 733,-228.5 639,-228.5"/>
<text text-anchor="middle" x="686" y="-235.5" font-family="Helvetica,sans-Serif" font-size="10.00">luaopen_package</text>
</a>
</g>
</g>
<!-- Node2&#45;&gt;Node3 -->
<g id="edge2" class="edge"><title>Node2&#45;&gt;Node3</title>
<path fill="none" stroke="midnightblue" d="M613.056,-238C621.666,-238 630.398,-238 638.67,-238"/>
<polygon fill="midnightblue" stroke="midnightblue" points="613.041,-234.5 603.041,-238 613.041,-241.5 613.041,-234.5"/>
</g>
<!-- Node5 -->
<g id="node5" class="node"><title>Node5</title>
<g id="a_node5"><a xlink:href="../../d2/d82/loadlib_8c.html#a21b83479d4a62aa393b19bcb08e71889" target="_top" xlink:title="ll_loadfunc">
<polygon fill="none" stroke="black" points="199,-228.5 199,-247.5 259,-247.5 259,-228.5 199,-228.5"/>
<text text-anchor="middle" x="229" y="-235.5" font-family="Helvetica,sans-Serif" font-size="10.00">ll_loadfunc</text>
</a>
</g>
</g>
<!-- Node4&#45;&gt;Node5 -->
<g id="edge4" class="edge"><title>Node4&#45;&gt;Node5</title>
<path fill="none" stroke="midnightblue" d="M173.272,-238C181.839,-238 190.727,-238 198.786,-238"/>
<polygon fill="midnightblue" stroke="midnightblue" points="173.059,-234.5 163.059,-238 173.059,-241.5 173.059,-234.5"/>
</g>
<!-- Node6 -->
<g id="node6" class="node"><title>Node6</title>
<g id="a_node6"><a xlink:href="../../d2/d82/loadlib_8c.html#aac7e69bc5b4403e49e2609425f0fb7b0" target="_top" xlink:title="ll_loadlib">
<polygon fill="none" stroke="black" points="295,-228.5 295,-247.5 347,-247.5 347,-228.5 295,-228.5"/>
<text text-anchor="middle" x="321" y="-235.5" font-family="Helvetica,sans-Serif" font-size="10.00">ll_loadlib</text>
</a>
</g>
</g>
<!-- Node5&#45;&gt;Node6 -->
<g id="edge5" class="edge"><title>Node5&#45;&gt;Node6</title>
<path fill="none" stroke="midnightblue" d="M269.728,-238C278.313,-238 287.158,-238 294.99,-238"/>
<polygon fill="midnightblue" stroke="midnightblue" points="269.469,-234.5 259.469,-238 269.469,-241.5 269.469,-234.5"/>
</g>
<!-- Node7 -->
<g id="node7" class="node"><title>Node7</title>
<g id="a_node7"><a xlink:href="../../d2/d82/loadlib_8c.html#a91ac5b5231cf039af46226806dcc3884" target="_top" xlink:title="loadfunc">
<polygon fill="none" stroke="black" points="295,-190.5 295,-209.5 347,-209.5 347,-190.5 295,-190.5"/>
<text text-anchor="middle" x="321" y="-197.5" font-family="Helvetica,sans-Serif" font-size="10.00">loadfunc</text>
</a>
</g>
</g>
<!-- Node5&#45;&gt;Node7 -->
<g id="edge6" class="edge"><title>Node5&#45;&gt;Node7</title>
<path fill="none" stroke="midnightblue" d="M262.113,-224.441C273.748,-219.529 286.639,-214.086 297.296,-209.586"/>
<polygon fill="midnightblue" stroke="midnightblue" points="260.562,-221.297 252.711,-228.411 263.285,-227.746 260.562,-221.297"/>
</g>
<!-- Node8 -->
<g id="node8" class="node"><title>Node8</title>
<g id="a_node8"><a xlink:href="../../d2/d82/loadlib_8c.html#a9a915ea950c831cee2f1e7b0a3bd9005" target="_top" xlink:title="searcher_C">
<polygon fill="none" stroke="black" points="390.5,-228.5 390.5,-247.5 455.5,-247.5 455.5,-228.5 390.5,-228.5"/>
<text text-anchor="middle" x="423" y="-235.5" font-family="Helvetica,sans-Serif" font-size="10.00">searcher_C</text>
</a>
</g>
</g>
<!-- Node7&#45;&gt;Node8 -->
<g id="edge7" class="edge"><title>Node7&#45;&gt;Node8</title>
<path fill="none" stroke="midnightblue" d="M356.907,-213.265C370.035,-218.253 384.695,-223.824 396.774,-228.414"/>
<polygon fill="midnightblue" stroke="midnightblue" points="357.825,-209.869 347.234,-209.589 355.339,-216.413 357.825,-209.869"/>
</g>
<!-- Node9 -->
<g id="node9" class="node"><title>Node9</title>
<g id="a_node9"><a xlink:href="../../d2/d82/loadlib_8c.html#a1ec05cd98a045c271aeda9f9c6041e1c" target="_top" xlink:title="searcher_Croot">
<polygon fill="none" stroke="black" points="383,-190.5 383,-209.5 463,-209.5 463,-190.5 383,-190.5"/>
<text text-anchor="middle" x="423" y="-197.5" font-family="Helvetica,sans-Serif" font-size="10.00">searcher_Croot</text>
</a>
</g>
</g>
<!-- Node7&#45;&gt;Node9 -->
<g id="edge9" class="edge"><title>Node7&#45;&gt;Node9</title>
<path fill="none" stroke="midnightblue" d="M357.284,-200C365.526,-200 374.353,-200 382.755,-200"/>
<polygon fill="midnightblue" stroke="midnightblue" points="357.234,-196.5 347.234,-200 357.234,-203.5 357.234,-196.5"/>
</g>
<!-- Node8&#45;&gt;Node2 -->
<g id="edge8" class="edge"><title>Node8&#45;&gt;Node2</title>
<path fill="none" stroke="midnightblue" d="M465.921,-238C476.389,-238 487.735,-238 498.603,-238"/>
<polygon fill="midnightblue" stroke="midnightblue" points="465.795,-234.5 455.795,-238 465.795,-241.5 465.795,-234.5"/>
</g>
<!-- Node9&#45;&gt;Node2 -->
<g id="edge10" class="edge"><title>Node9&#45;&gt;Node2</title>
<path fill="none" stroke="midnightblue" d="M465.564,-212.535C482.705,-217.705 502.25,-223.599 518.215,-228.414"/>
<polygon fill="midnightblue" stroke="midnightblue" points="466.38,-209.126 455.795,-209.589 464.359,-215.827 466.38,-209.126"/>
</g>
<!-- Node14 -->
<g id="node14" class="node"><title>Node14</title>
<g id="a_node14"><a xlink:href="../../d0/da1/ltablib_8c.html#a40096c011a188a26849b68cd9d5d920e" target="_top" xlink:title="auxsort">
<polygon fill="none" stroke="black" points="205,-76.5 205,-95.5 253,-95.5 253,-76.5 205,-76.5"/>
<text text-anchor="middle" x="229" y="-83.5" font-family="Helvetica,sans-Serif" font-size="10.00">auxsort</text>
</a>
</g>
</g>
<!-- Node13&#45;&gt;Node14 -->
<g id="edge15" class="edge"><title>Node13&#45;&gt;Node14</title>
<path fill="none" stroke="midnightblue" d="M159.706,-86C173.926,-86 191.243,-86 204.882,-86"/>
<polygon fill="midnightblue" stroke="midnightblue" points="159.548,-82.5001 149.548,-86 159.548,-89.5001 159.548,-82.5001"/>
</g>
<!-- Node15 -->
<g id="node15" class="node"><title>Node15</title>
<g id="a_node15"><a xlink:href="../../d0/da1/ltablib_8c.html#ae7d3f892e2605bf102dce63de388e626" target="_top" xlink:title="sort">
<polygon fill="none" stroke="black" points="305,-76.5 305,-95.5 337,-95.5 337,-76.5 305,-76.5"/>
<text text-anchor="middle" x="321" y="-83.5" font-family="Helvetica,sans-Serif" font-size="10.00">sort</text>
</a>
</g>
</g>
<!-- Node14&#45;&gt;Node15 -->
<g id="edge16" class="edge"><title>Node14&#45;&gt;Node15</title>
<path fill="none" stroke="midnightblue" d="M263.181,-86C277.459,-86 293.446,-86 304.815,-86"/>
<polygon fill="midnightblue" stroke="midnightblue" points="263.177,-82.5001 253.177,-86 263.177,-89.5001 263.177,-82.5001"/>
</g>
</g>
</svg>
