<?xml version="1.0" encoding="UTF-8" standalone="no"?>
<!DOCTYPE svg PUBLIC "-//W3C//DTD SVG 1.1//EN"
 "http://www.w3.org/Graphics/SVG/1.1/DTD/svg11.dtd">
<!-- Generated by graphviz version 2.38.0 (20140413.2041)
 -->
<!-- Title: lua_pushvalue Pages: 1 -->
<svg width="457pt" height="1320pt"
 viewBox="0.00 0.00 457.00 1320.00" xmlns="http://www.w3.org/2000/svg" xmlns:xlink="http://www.w3.org/1999/xlink">
<g id="graph0" class="graph" transform="scale(1 1) rotate(0) translate(4 1316)">
<title>lua_pushvalue</title>
<!-- Node1 -->
<g id="node1" class="node"><title>Node1</title>
<polygon fill="#bfbfbf" stroke="black" points="0,-646.5 0,-665.5 80,-665.5 80,-646.5 0,-646.5"/>
<text text-anchor="middle" x="40" y="-653.5" font-family="Helvetica,sans-Serif" font-size="10.00">lua_pushvalue</text>
</g>
<!-- Node2 -->
<g id="node2" class="node"><title>Node2</title>
<g id="a_node2"><a xlink:href="../../dc/d77/lstrlib_8c.html#ad24cfa73e5ad25ec99a1b48f0916471e" target="_top" xlink:title="add_value">
<polygon fill="none" stroke="black" points="137,-1292.5 137,-1311.5 199,-1311.5 199,-1292.5 137,-1292.5"/>
<text text-anchor="middle" x="168" y="-1299.5" font-family="Helvetica,sans-Serif" font-size="10.00">add_value</text>
</a>
</g>
</g>
<!-- Node1&#45;&gt;Node2 -->
<g id="edge1" class="edge"><title>Node1&#45;&gt;Node2</title>
<path fill="none" stroke="midnightblue" d="M40.6901,-676.031C39.5948,-772.182 39.4611,-1185.72 116,-1283 121.2,-1289.61 128.948,-1293.92 136.845,-1296.73"/>
<polygon fill="midnightblue" stroke="midnightblue" points="44.1911,-675.967 40.8233,-665.922 37.1917,-675.875 44.1911,-675.967"/>
</g>
<!-- Node4 -->
<g id="node4" class="node"><title>Node4</title>
<g id="a_node4"><a xlink:href="../../de/df3/liolib_8c.html#a66325940a0248cee288153edb061c0c4" target="_top" xlink:title="aux_lines">
<polygon fill="none" stroke="black" points="274.5,-1230.5 274.5,-1249.5 331.5,-1249.5 331.5,-1230.5 274.5,-1230.5"/>
<text text-anchor="middle" x="303" y="-1237.5" font-family="Helvetica,sans-Serif" font-size="10.00">aux_lines</text>
</a>
</g>
</g>
<!-- Node1&#45;&gt;Node4 -->
<g id="edge3" class="edge"><title>Node1&#45;&gt;Node4</title>
<path fill="none" stroke="midnightblue" d="M40.7137,-675.812C39.851,-765.081 41.041,-1128.96 116,-1207 137.412,-1229.29 228.137,-1236.65 274.491,-1238.98"/>
<polygon fill="midnightblue" stroke="midnightblue" points="44.2146,-675.744 40.8329,-665.704 37.2151,-675.662 44.2146,-675.744"/>
</g>
<!-- Node7 -->
<g id="node7" class="node"><title>Node7</title>
<g id="a_node7"><a xlink:href="../../d0/da1/ltablib_8c.html#a40096c011a188a26849b68cd9d5d920e" target="_top" xlink:title="auxsort">
<polygon fill="none" stroke="black" points="279,-1159.5 279,-1178.5 327,-1178.5 327,-1159.5 279,-1159.5"/>
<text text-anchor="middle" x="303" y="-1166.5" font-family="Helvetica,sans-Serif" font-size="10.00">auxsort</text>
</a>
</g>
</g>
<!-- Node1&#45;&gt;Node7 -->
<g id="edge6" class="edge"><title>Node1&#45;&gt;Node7</title>
<path fill="none" stroke="midnightblue" d="M41.245,-676.33C42.6632,-758.425 52.2128,-1064.28 116,-1131 138.15,-1154.17 234.01,-1164.07 278.789,-1167.49"/>
<polygon fill="midnightblue" stroke="midnightblue" points="44.7383,-675.843 41.0893,-665.896 37.739,-675.947 44.7383,-675.843"/>
</g>
<!-- Node9 -->
<g id="node9" class="node"><title>Node9</title>
<g id="a_node9"><a xlink:href="../../d8/d97/ldblib_8c.html#a0951daf8c0b66e39bd3aa618aff380bf" target="_top" xlink:title="checkupval">
<polygon fill="none" stroke="black" points="135.5,-1102.5 135.5,-1121.5 200.5,-1121.5 200.5,-1102.5 135.5,-1102.5"/>
<text text-anchor="middle" x="168" y="-1109.5" font-family="Helvetica,sans-Serif" font-size="10.00">checkupval</text>
</a>
</g>
</g>
<!-- Node1&#45;&gt;Node9 -->
<g id="edge8" class="edge"><title>Node1&#45;&gt;Node9</title>
<path fill="none" stroke="midnightblue" d="M41.8404,-675.919C45.4556,-752.629 62.0346,-1027.89 116,-1093 121.004,-1099.04 128.125,-1103.16 135.463,-1105.97"/>
<polygon fill="midnightblue" stroke="midnightblue" points="45.3281,-675.563 41.3828,-665.73 38.3351,-675.877 45.3281,-675.563"/>
</g>
<!-- Node12 -->
<g id="node12" class="node"><title>Node12</title>
<g id="a_node12"><a xlink:href="../../de/df3/liolib_8c.html#a2edb7e84ca2f51dafb5d77b9c81a804c" target="_top" xlink:title="createmeta">
<polygon fill="none" stroke="black" points="271.5,-1026.5 271.5,-1045.5 334.5,-1045.5 334.5,-1026.5 271.5,-1026.5"/>
<text text-anchor="middle" x="303" y="-1033.5" font-family="Helvetica,sans-Serif" font-size="10.00">createmeta</text>
</a>
</g>
</g>
<!-- Node1&#45;&gt;Node12 -->
<g id="edge11" class="edge"><title>Node1&#45;&gt;Node12</title>
<path fill="none" stroke="midnightblue" d="M42.3217,-675.705C47.25,-742.945 66.8608,-961.748 116,-1008 157.97,-1047.5 230.481,-1045.85 271.47,-1041.01"/>
<polygon fill="midnightblue" stroke="midnightblue" points="45.8054,-675.348 41.6109,-665.619 38.8227,-675.841 45.8054,-675.348"/>
</g>
<!-- Node14 -->
<g id="node14" class="node"><title>Node14</title>
<g id="a_node14"><a xlink:href="../../dc/d77/lstrlib_8c.html#a16d034da6b46e6beae228472f26ec07b" target="_top" xlink:title="createmetatable">
<polygon fill="none" stroke="black" points="126,-760.5 126,-779.5 210,-779.5 210,-760.5 126,-760.5"/>
<text text-anchor="middle" x="168" y="-767.5" font-family="Helvetica,sans-Serif" font-size="10.00">createmetatable</text>
</a>
</g>
</g>
<!-- Node1&#45;&gt;Node14 -->
<g id="edge13" class="edge"><title>Node1&#45;&gt;Node14</title>
<path fill="none" stroke="midnightblue" d="M51.1303,-674.175C63.7763,-695.345 87.2784,-730.078 116,-751 121.193,-754.783 127.226,-757.897 133.286,-760.43"/>
<polygon fill="midnightblue" stroke="midnightblue" points="54.1463,-672.399 46.1042,-665.502 48.0897,-675.909 54.1463,-672.399"/>
</g>
<!-- Node16 -->
<g id="node16" class="node"><title>Node16</title>
<g id="a_node16"><a xlink:href="../../d2/d82/loadlib_8c.html#a8fc66c8b852ee2960dc20797521d1d9e" target="_top" xlink:title="createsearcherstable">
<polygon fill="none" stroke="black" points="116,-912.5 116,-931.5 220,-931.5 220,-912.5 116,-912.5"/>
<text text-anchor="middle" x="168" y="-919.5" font-family="Helvetica,sans-Serif" font-size="10.00">createsearcherstable</text>
</a>
</g>
</g>
<!-- Node1&#45;&gt;Node16 -->
<g id="edge15" class="edge"><title>Node1&#45;&gt;Node16</title>
<path fill="none" stroke="midnightblue" d="M41.8852,-675.778C44.8973,-720.653 58.1189,-831.437 116,-898 121.394,-904.203 128.739,-908.919 136.174,-912.456"/>
<polygon fill="midnightblue" stroke="midnightblue" points="45.3703,-675.416 41.3079,-665.631 38.3816,-675.813 45.3703,-675.416"/>
</g>
<!-- Node17 -->
<g id="node17" class="node"><title>Node17</title>
<g id="a_node17"><a xlink:href="../../d6/d07/lualib_8h.html#a05e0befc0439f926b6152129ab4f8dea" target="_top" xlink:title="luaopen_package">
<polygon fill="none" stroke="black" points="256,-893.5 256,-912.5 350,-912.5 350,-893.5 256,-893.5"/>
<text text-anchor="middle" x="303" y="-900.5" font-family="Helvetica,sans-Serif" font-size="10.00">luaopen_package</text>
</a>
</g>
</g>
<!-- Node1&#45;&gt;Node17 -->
<g id="edge55" class="edge"><title>Node1&#45;&gt;Node17</title>
<path fill="none" stroke="midnightblue" d="M41.9275,-675.716C45.0122,-717.467 58.3497,-815.056 116,-865 136.551,-882.804 207.879,-893.444 255.992,-898.758"/>
<polygon fill="midnightblue" stroke="midnightblue" points="45.4201,-675.485 41.3114,-665.72 38.4333,-675.916 45.4201,-675.485"/>
</g>
<!-- Node18 -->
<g id="node18" class="node"><title>Node18</title>
<g id="a_node18"><a xlink:href="../../de/df3/liolib_8c.html#a0a80ad2f9dbb3b7238efae7738bb7569" target="_top" xlink:title="createstdfile">
<polygon fill="none" stroke="black" points="270.5,-988.5 270.5,-1007.5 335.5,-1007.5 335.5,-988.5 270.5,-988.5"/>
<text text-anchor="middle" x="303" y="-995.5" font-family="Helvetica,sans-Serif" font-size="10.00">createstdfile</text>
</a>
</g>
</g>
<!-- Node1&#45;&gt;Node18 -->
<g id="edge17" class="edge"><title>Node1&#45;&gt;Node18</title>
<path fill="none" stroke="midnightblue" d="M42.6479,-675.789C48.391,-739.614 69.7438,-938.248 116,-979 158.501,-1016.44 229.483,-1011.67 270.371,-1004.83"/>
<polygon fill="midnightblue" stroke="midnightblue" points="46.1073,-675.168 41.7547,-665.509 39.1335,-675.774 46.1073,-675.168"/>
</g>
<!-- Node19 -->
<g id="node19" class="node"><title>Node19</title>
<g id="a_node19"><a xlink:href="../../d8/d97/ldblib_8c.html#a4eb57e66c2efb2d31c9b9e1b01d27e13" target="_top" xlink:title="db_getinfo">
<polygon fill="none" stroke="black" points="273,-703.5 273,-722.5 333,-722.5 333,-703.5 273,-703.5"/>
<text text-anchor="middle" x="303" y="-710.5" font-family="Helvetica,sans-Serif" font-size="10.00">db_getinfo</text>
</a>
</g>
</g>
<!-- Node1&#45;&gt;Node19 -->
<g id="edge19" class="edge"><title>Node1&#45;&gt;Node19</title>
<path fill="none" stroke="midnightblue" d="M86.9312,-667.996C96.5171,-670.398 106.573,-672.844 116,-675 171.262,-687.638 236.229,-700.447 272.914,-707.493"/>
<polygon fill="midnightblue" stroke="midnightblue" points="87.7109,-664.583 77.1578,-665.522 85.9933,-671.369 87.7109,-664.583"/>
</g>
<!-- Node20 -->
<g id="node20" class="node"><title>Node20</title>
<g id="a_node20"><a xlink:href="../../d8/d97/ldblib_8c.html#ae802ce7397e9ebb08a90b69976578ecc" target="_top" xlink:title="db_getlocal">
<polygon fill="none" stroke="black" points="135.5,-646.5 135.5,-665.5 200.5,-665.5 200.5,-646.5 135.5,-646.5"/>
<text text-anchor="middle" x="168" y="-653.5" font-family="Helvetica,sans-Serif" font-size="10.00">db_getlocal</text>
</a>
</g>
</g>
<!-- Node1&#45;&gt;Node20 -->
<g id="edge20" class="edge"><title>Node1&#45;&gt;Node20</title>
<path fill="none" stroke="midnightblue" d="M90.4399,-656C105.584,-656 121.826,-656 135.436,-656"/>
<polygon fill="midnightblue" stroke="midnightblue" points="90.1765,-652.5 80.1765,-656 90.1765,-659.5 90.1765,-652.5"/>
</g>
<!-- Node21 -->
<g id="node21" class="node"><title>Node21</title>
<g id="a_node21"><a xlink:href="../../d8/d97/ldblib_8c.html#a7dd12424841eb9d91aa28c7424d4e380" target="_top" xlink:title="db_getregistry">
<polygon fill="none" stroke="black" points="130.5,-608.5 130.5,-627.5 205.5,-627.5 205.5,-608.5 130.5,-608.5"/>
<text text-anchor="middle" x="168" y="-615.5" font-family="Helvetica,sans-Serif" font-size="10.00">db_getregistry</text>
</a>
</g>
</g>
<!-- Node1&#45;&gt;Node21 -->
<g id="edge21" class="edge"><title>Node1&#45;&gt;Node21</title>
<path fill="none" stroke="midnightblue" d="M82.5644,-643.465C99.7052,-638.295 119.25,-632.401 135.215,-627.586"/>
<polygon fill="midnightblue" stroke="midnightblue" points="81.3586,-640.173 72.7951,-646.411 83.3798,-646.874 81.3586,-640.173"/>
</g>
<!-- Node22 -->
<g id="node22" class="node"><title>Node22</title>
<g id="a_node22"><a xlink:href="../../d8/d97/ldblib_8c.html#aa0c362d361f8f9bd8a002c34c393e2b0" target="_top" xlink:title="db_sethook">
<polygon fill="none" stroke="black" points="135,-570.5 135,-589.5 201,-589.5 201,-570.5 135,-570.5"/>
<text text-anchor="middle" x="168" y="-577.5" font-family="Helvetica,sans-Serif" font-size="10.00">db_sethook</text>
</a>
</g>
</g>
<!-- Node1&#45;&gt;Node22 -->
<g id="edge22" class="edge"><title>Node1&#45;&gt;Node22</title>
<path fill="none" stroke="midnightblue" d="M59.2201,-639.711C73.7907,-627.309 95.1611,-610.472 116,-599 122.539,-595.4 129.899,-592.213 136.95,-589.526"/>
<polygon fill="midnightblue" stroke="midnightblue" points="56.7407,-637.228 51.4823,-646.426 61.3288,-642.515 56.7407,-637.228"/>
</g>
<!-- Node23 -->
<g id="node23" class="node"><title>Node23</title>
<g id="a_node23"><a xlink:href="../../d8/d97/ldblib_8c.html#ae0792d4f3f6eedd535895e05426b82df" target="_top" xlink:title="db_traceback">
<polygon fill="none" stroke="black" points="131,-532.5 131,-551.5 205,-551.5 205,-532.5 131,-532.5"/>
<text text-anchor="middle" x="168" y="-539.5" font-family="Helvetica,sans-Serif" font-size="10.00">db_traceback</text>
</a>
</g>
</g>
<!-- Node1&#45;&gt;Node23 -->
<g id="edge23" class="edge"><title>Node1&#45;&gt;Node23</title>
<path fill="none" stroke="midnightblue" d="M51.1303,-637.825C63.7763,-616.655 87.2784,-581.922 116,-561 121.193,-557.217 127.226,-554.103 133.286,-551.57"/>
<polygon fill="midnightblue" stroke="midnightblue" points="48.0897,-636.091 46.1042,-646.498 54.1463,-639.601 48.0897,-636.091"/>
</g>
<!-- Node24 -->
<g id="node24" class="node"><title>Node24</title>
<g id="a_node24"><a xlink:href="../../de/df3/liolib_8c.html#adba67ef94aaa532d9224ca04f8126ac2" target="_top" xlink:title="f_write">
<polygon fill="none" stroke="black" points="146,-494.5 146,-513.5 190,-513.5 190,-494.5 146,-494.5"/>
<text text-anchor="middle" x="168" y="-501.5" font-family="Helvetica,sans-Serif" font-size="10.00">f_write</text>
</a>
</g>
</g>
<!-- Node1&#45;&gt;Node24 -->
<g id="edge24" class="edge"><title>Node1&#45;&gt;Node24</title>
<path fill="none" stroke="midnightblue" d="M47.0185,-636.836C56.9405,-608.207 79.3624,-554.299 116,-523 124.477,-515.758 135.975,-511.155 145.908,-508.298"/>
<polygon fill="midnightblue" stroke="midnightblue" points="43.6491,-635.877 43.8243,-646.47 50.2935,-638.08 43.6491,-635.877"/>
</g>
<!-- Node25 -->
<g id="node25" class="node"><title>Node25</title>
<g id="a_node25"><a xlink:href="../../de/df3/liolib_8c.html#aae942558ff528b4e1a483297c64e6886" target="_top" xlink:title="g_iofile">
<polygon fill="none" stroke="black" points="146,-456.5 146,-475.5 190,-475.5 190,-456.5 146,-456.5"/>
<text text-anchor="middle" x="168" y="-463.5" font-family="Helvetica,sans-Serif" font-size="10.00">g_iofile</text>
</a>
</g>
</g>
<!-- Node1&#45;&gt;Node25 -->
<g id="edge25" class="edge"><title>Node1&#45;&gt;Node25</title>
<path fill="none" stroke="midnightblue" d="M44.4131,-636.416C51.5208,-601.312 71.1368,-527.388 116,-485 124.173,-477.278 135.768,-472.629 145.837,-469.866"/>
<polygon fill="midnightblue" stroke="midnightblue" points="40.9518,-635.884 42.5288,-646.361 47.8294,-637.187 40.9518,-635.884"/>
</g>
<!-- Node28 -->
<g id="node28" class="node"><title>Node28</title>
<g id="a_node28"><a xlink:href="../../d8/dd3/lbaselib_8c.html#ad467c787e381e8d18e4c7b46b4f1b05d" target="_top" xlink:title="generic_reader">
<polygon fill="none" stroke="black" points="129.5,-418.5 129.5,-437.5 206.5,-437.5 206.5,-418.5 129.5,-418.5"/>
<text text-anchor="middle" x="168" y="-425.5" font-family="Helvetica,sans-Serif" font-size="10.00">generic_reader</text>
</a>
</g>
</g>
<!-- Node1&#45;&gt;Node28 -->
<g id="edge28" class="edge"><title>Node1&#45;&gt;Node28</title>
<path fill="none" stroke="midnightblue" d="M42.6416,-636.125C47.0599,-595.209 62.754,-500.893 116,-447 119.852,-443.102 124.576,-439.994 129.58,-437.52"/>
<polygon fill="midnightblue" stroke="midnightblue" points="39.1489,-635.882 41.6726,-646.172 46.1166,-636.554 39.1489,-635.882"/>
</g>
<!-- Node30 -->
<g id="node30" class="node"><title>Node30</title>
<g id="a_node30"><a xlink:href="../../de/df3/liolib_8c.html#ac37d80ee2cc364b4adafcb6f7c20f28b" target="_top" xlink:title="io_readline">
<polygon fill="none" stroke="black" points="137.5,-1254.5 137.5,-1273.5 198.5,-1273.5 198.5,-1254.5 137.5,-1254.5"/>
<text text-anchor="middle" x="168" y="-1261.5" font-family="Helvetica,sans-Serif" font-size="10.00">io_readline</text>
</a>
</g>
</g>
<!-- Node1&#45;&gt;Node30 -->
<g id="edge30" class="edge"><title>Node1&#45;&gt;Node30</title>
<path fill="none" stroke="midnightblue" d="M41.0562,-675.67C41.6776,-766.758 48.3457,-1147.08 116,-1240 121.242,-1247.2 129.201,-1252.31 137.284,-1255.91"/>
<polygon fill="midnightblue" stroke="midnightblue" points="44.556,-675.597 41.0054,-665.615 37.5561,-675.633 44.556,-675.597"/>
</g>
<!-- Node31 -->
<g id="node31" class="node"><title>Node31</title>
<g id="a_node31"><a xlink:href="../../d2/d82/loadlib_8c.html#a7a6ec2174d2de185431876163cd2d469" target="_top" xlink:title="ll_addtoclib">
<polygon fill="none" stroke="black" points="137,-342.5 137,-361.5 199,-361.5 199,-342.5 137,-342.5"/>
<text text-anchor="middle" x="168" y="-349.5" font-family="Helvetica,sans-Serif" font-size="10.00">ll_addtoclib</text>
</a>
</g>
</g>
<!-- Node1&#45;&gt;Node31 -->
<g id="edge32" class="edge"><title>Node1&#45;&gt;Node31</title>
<path fill="none" stroke="midnightblue" d="M40.3662,-636.199C39.8316,-585.391 45.4373,-448.942 116,-371 121.517,-364.906 129.174,-360.76 136.88,-357.941"/>
<polygon fill="midnightblue" stroke="midnightblue" points="36.8719,-636.518 40.5752,-646.444 43.8705,-636.375 36.8719,-636.518"/>
</g>
<!-- Node33 -->
<g id="node33" class="node"><title>Node33</title>
<g id="a_node33"><a xlink:href="../../d2/d82/loadlib_8c.html#a136874f5faa236dc52fb50109281e157" target="_top" xlink:title="ll_require">
<polygon fill="none" stroke="black" points="142,-304.5 142,-323.5 194,-323.5 194,-304.5 142,-304.5"/>
<text text-anchor="middle" x="168" y="-311.5" font-family="Helvetica,sans-Serif" font-size="10.00">ll_require</text>
</a>
</g>
</g>
<!-- Node1&#45;&gt;Node33 -->
<g id="edge34" class="edge"><title>Node1&#45;&gt;Node33</title>
<path fill="none" stroke="midnightblue" d="M43.1399,-636.241C50.3161,-573.343 75.3864,-379.197 116,-333 122.613,-325.478 132.493,-320.928 141.802,-318.178"/>
<polygon fill="midnightblue" stroke="midnightblue" points="39.6377,-636.067 42.0084,-646.393 46.5946,-636.843 39.6377,-636.067"/>
</g>
<!-- Node34 -->
<g id="node34" class="node"><title>Node34</title>
<g id="a_node34"><a xlink:href="../../d8/dd3/lbaselib_8c.html#a32e7b00b9c21d72a3e6a56e12c3f0e08" target="_top" xlink:title="load_aux">
<polygon fill="none" stroke="black" points="140,-380.5 140,-399.5 196,-399.5 196,-380.5 140,-380.5"/>
<text text-anchor="middle" x="168" y="-387.5" font-family="Helvetica,sans-Serif" font-size="10.00">load_aux</text>
</a>
</g>
</g>
<!-- Node1&#45;&gt;Node34 -->
<g id="edge35" class="edge"><title>Node1&#45;&gt;Node34</title>
<path fill="none" stroke="midnightblue" d="M41.33,-636.396C43.1578,-590.489 54.0305,-474.924 116,-409 122.342,-402.253 131.302,-397.888 139.947,-395.069"/>
<polygon fill="midnightblue" stroke="midnightblue" points="37.8286,-636.396 41.0346,-646.494 44.8256,-636.601 37.8286,-636.396"/>
</g>
<!-- Node36 -->
<g id="node36" class="node"><title>Node36</title>
<g id="a_node36"><a xlink:href="../../df/d2d/lcorolib_8c.html#ad49772e236781ef7ad88ff8bc980b40b" target="_top" xlink:title="luaB_cocreate">
<polygon fill="none" stroke="black" points="129.5,-266.5 129.5,-285.5 206.5,-285.5 206.5,-266.5 129.5,-266.5"/>
<text text-anchor="middle" x="168" y="-273.5" font-family="Helvetica,sans-Serif" font-size="10.00">luaB_cocreate</text>
</a>
</g>
</g>
<!-- Node1&#45;&gt;Node36 -->
<g id="edge38" class="edge"><title>Node1&#45;&gt;Node36</title>
<path fill="none" stroke="midnightblue" d="M42.622,-636.159C48.5314,-568.4 70.9618,-347.451 116,-295 119.632,-290.771 124.298,-287.481 129.33,-284.924"/>
<polygon fill="midnightblue" stroke="midnightblue" points="39.118,-636.059 41.7611,-646.319 46.093,-636.65 39.118,-636.059"/>
</g>
<!-- Node38 -->
<g id="node38" class="node"><title>Node38</title>
<g id="a_node38"><a xlink:href="../../d8/dd3/lbaselib_8c.html#a2ecfa987569d0b4c1063f3e204e42dd2" target="_top" xlink:title="luaB_error">
<polygon fill="none" stroke="black" points="138.5,-228.5 138.5,-247.5 197.5,-247.5 197.5,-228.5 138.5,-228.5"/>
<text text-anchor="middle" x="168" y="-235.5" font-family="Helvetica,sans-Serif" font-size="10.00">luaB_error</text>
</a>
</g>
</g>
<!-- Node1&#45;&gt;Node38 -->
<g id="edge40" class="edge"><title>Node1&#45;&gt;Node38</title>
<path fill="none" stroke="midnightblue" d="M42.2038,-635.991C46.943,-563.49 66.5363,-315.727 116,-257 121.722,-250.207 130.118,-245.841 138.453,-243.035"/>
<polygon fill="midnightblue" stroke="midnightblue" points="38.6834,-636.207 41.5479,-646.407 45.6696,-636.647 38.6834,-636.207"/>
</g>
<!-- Node39 -->
<g id="node39" class="node"><title>Node39</title>
<g id="a_node39"><a xlink:href="../../d8/dd3/lbaselib_8c.html#a865eb761a305c588d6940da5272375b7" target="_top" xlink:title="luaB_print">
<polygon fill="none" stroke="black" points="138.5,-190.5 138.5,-209.5 197.5,-209.5 197.5,-190.5 138.5,-190.5"/>
<text text-anchor="middle" x="168" y="-197.5" font-family="Helvetica,sans-Serif" font-size="10.00">luaB_print</text>
</a>
</g>
</g>
<!-- Node1&#45;&gt;Node39 -->
<g id="edge41" class="edge"><title>Node1&#45;&gt;Node39</title>
<path fill="none" stroke="midnightblue" d="M41.8404,-636.081C45.4556,-559.371 62.0346,-284.111 116,-219 121.668,-212.162 130.049,-207.784 138.388,-204.981"/>
<polygon fill="midnightblue" stroke="midnightblue" points="38.3351,-636.123 41.3828,-646.27 45.3281,-636.437 38.3351,-636.123"/>
</g>
<!-- Node40 -->
<g id="node40" class="node"><title>Node40</title>
<g id="a_node40"><a xlink:href="../../d8/dd3/lbaselib_8c.html#a5fbb0094fa1a56f0a4c2547f1ec4c5ab" target="_top" xlink:title="luaB_xpcall">
<polygon fill="none" stroke="black" points="135,-152.5 135,-171.5 201,-171.5 201,-152.5 135,-152.5"/>
<text text-anchor="middle" x="168" y="-159.5" font-family="Helvetica,sans-Serif" font-size="10.00">luaB_xpcall</text>
</a>
</g>
</g>
<!-- Node1&#45;&gt;Node40 -->
<g id="edge42" class="edge"><title>Node1&#45;&gt;Node40</title>
<path fill="none" stroke="midnightblue" d="M41.5435,-635.934C44.1236,-554.867 57.5732,-252.46 116,-181 120.844,-175.075 127.729,-170.997 134.878,-168.191"/>
<polygon fill="midnightblue" stroke="midnightblue" points="38.0361,-636.136 41.2376,-646.235 45.033,-636.344 38.0361,-636.136"/>
</g>
<!-- Node41 -->
<g id="node41" class="node"><title>Node41</title>
<g id="a_node41"><a xlink:href="../../da/d29/lauxlib_8h.html#af26aec8cce4a3f4448c60f402d78f17d" target="_top" xlink:title="luaL_callmeta">
<polygon fill="none" stroke="black" points="131,-114.5 131,-133.5 205,-133.5 205,-114.5 131,-114.5"/>
<text text-anchor="middle" x="168" y="-121.5" font-family="Helvetica,sans-Serif" font-size="10.00">luaL_callmeta</text>
</a>
</g>
</g>
<!-- Node1&#45;&gt;Node41 -->
<g id="edge43" class="edge"><title>Node1&#45;&gt;Node41</title>
<path fill="none" stroke="midnightblue" d="M41.2779,-636.244C42.8485,-551.68 52.9873,-220.974 116,-143 119.92,-138.15 125.208,-134.537 130.899,-131.847"/>
<polygon fill="midnightblue" stroke="midnightblue" points="37.7776,-636.24 41.1114,-646.296 44.7767,-636.356 37.7776,-636.24"/>
</g>
<!-- Node42 -->
<g id="node42" class="node"><title>Node42</title>
<g id="a_node42"><a xlink:href="../../da/d29/lauxlib_8h.html#aef6da057d1e26ed6449b92177f1f2f5a" target="_top" xlink:title="luaL_tolstring">
<polygon fill="none" stroke="red" points="267.5,-95.5 267.5,-114.5 338.5,-114.5 338.5,-95.5 267.5,-95.5"/>
<text text-anchor="middle" x="303" y="-102.5" font-family="Helvetica,sans-Serif" font-size="10.00">luaL_tolstring</text>
</a>
</g>
</g>
<!-- Node1&#45;&gt;Node42 -->
<g id="edge54" class="edge"><title>Node1&#45;&gt;Node42</title>
<path fill="none" stroke="midnightblue" d="M42.1872,-636.039C48.0158,-541.38 74.9857,-140.81 116,-105 160.393,-66.2405 236.019,-82.7436 275.785,-95.4149"/>
<polygon fill="midnightblue" stroke="midnightblue" points="38.6805,-636.045 41.5687,-646.238 45.6677,-636.468 38.6805,-636.045"/>
</g>
<!-- Node43 -->
<g id="node43" class="node"><title>Node43</title>
<g id="a_node43"><a xlink:href="../../da/d29/lauxlib_8h.html#a2605da7ef3a12d7e9cfa85939245f941" target="_top" xlink:title="luaL_getsubtable">
<polygon fill="none" stroke="red" points="123,-836.5 123,-855.5 213,-855.5 213,-836.5 123,-836.5"/>
<text text-anchor="middle" x="168" y="-843.5" font-family="Helvetica,sans-Serif" font-size="10.00">luaL_getsubtable</text>
</a>
</g>
</g>
<!-- Node1&#45;&gt;Node43 -->
<g id="edge45" class="edge"><title>Node1&#45;&gt;Node43</title>
<path fill="none" stroke="midnightblue" d="M45.1476,-675.584C53.2427,-709.471 74.1375,-779.484 116,-822 122.042,-828.136 129.956,-832.89 137.742,-836.486"/>
<polygon fill="midnightblue" stroke="midnightblue" points="48.5021,-674.55 42.8812,-665.569 41.6747,-676.095 48.5021,-674.55"/>
</g>
<!-- Node44 -->
<g id="node44" class="node"><title>Node44</title>
<g id="a_node44"><a xlink:href="../../da/d29/lauxlib_8h.html#af6e3e3ca0a445a50f34cfc26f89c7d61" target="_top" xlink:title="luaL_requiref">
<polygon fill="none" stroke="red" points="268.5,-817.5 268.5,-836.5 337.5,-836.5 337.5,-817.5 268.5,-817.5"/>
<text text-anchor="middle" x="303" y="-824.5" font-family="Helvetica,sans-Serif" font-size="10.00">luaL_requiref</text>
</a>
</g>
</g>
<!-- Node1&#45;&gt;Node44 -->
<g id="edge50" class="edge"><title>Node1&#45;&gt;Node44</title>
<path fill="none" stroke="midnightblue" d="M46.3016,-675.473C55.3895,-704.954 76.8578,-760.495 116,-789 161.292,-821.984 228.453,-827.918 268.465,-828.183"/>
<polygon fill="midnightblue" stroke="midnightblue" points="49.5712,-674.182 43.4137,-665.56 42.8505,-676.14 49.5712,-674.182"/>
</g>
<!-- Node45 -->
<g id="node45" class="node"><title>Node45</title>
<g id="a_node45"><a xlink:href="../../da/d29/lauxlib_8h.html#a0e9e032108e7aedc05836b0c1d72a0fa" target="_top" xlink:title="luaL_newmetatable">
<polygon fill="none" stroke="black" points="117.5,-1064.5 117.5,-1083.5 218.5,-1083.5 218.5,-1064.5 117.5,-1064.5"/>
<text text-anchor="middle" x="168" y="-1071.5" font-family="Helvetica,sans-Serif" font-size="10.00">luaL_newmetatable</text>
</a>
</g>
</g>
<!-- Node1&#45;&gt;Node45 -->
<g id="edge48" class="edge"><title>Node1&#45;&gt;Node45</title>
<path fill="none" stroke="midnightblue" d="M42.4382,-676.094C47.9267,-747.826 69.6225,-990.185 116,-1050 120.857,-1056.26 127.746,-1060.97 134.895,-1064.47"/>
<polygon fill="midnightblue" stroke="midnightblue" points="45.9019,-675.475 41.6707,-665.762 38.9211,-675.994 45.9019,-675.475"/>
</g>
<!-- Node46 -->
<g id="node46" class="node"><title>Node46</title>
<g id="a_node46"><a xlink:href="../../da/d29/lauxlib_8h.html#a8750009b9bbc508e4c3818ebd15b4e14" target="_top" xlink:title="luaL_setfuncs">
<polygon fill="none" stroke="red" points="130.5,-950.5 130.5,-969.5 205.5,-969.5 205.5,-950.5 130.5,-950.5"/>
<text text-anchor="middle" x="168" y="-957.5" font-family="Helvetica,sans-Serif" font-size="10.00">luaL_setfuncs</text>
</a>
</g>
</g>
<!-- Node1&#45;&gt;Node46 -->
<g id="edge51" class="edge"><title>Node1&#45;&gt;Node46</title>
<path fill="none" stroke="midnightblue" d="M40.3662,-675.801C39.8316,-726.609 45.4373,-863.058 116,-941 119.932,-945.343 124.95,-948.697 130.299,-951.285"/>
<polygon fill="midnightblue" stroke="midnightblue" points="43.8705,-675.625 40.5752,-665.556 36.8719,-675.482 43.8705,-675.625"/>
</g>
<!-- Node47 -->
<g id="node47" class="node"><title>Node47</title>
<g id="a_node47"><a xlink:href="../../d0/da1/ltablib_8c.html#a46a372295cbd1692b06bdbac4ca58881" target="_top" xlink:title="pack">
<polygon fill="none" stroke="black" points="149,-38.5 149,-57.5 187,-57.5 187,-38.5 149,-38.5"/>
<text text-anchor="middle" x="168" y="-45.5" font-family="Helvetica,sans-Serif" font-size="10.00">pack</text>
</a>
</g>
</g>
<!-- Node1&#45;&gt;Node47 -->
<g id="edge56" class="edge"><title>Node1&#45;&gt;Node47</title>
<path fill="none" stroke="midnightblue" d="M41.0562,-636.33C41.6776,-545.242 48.3457,-164.918 116,-72 123.776,-61.3204 137.533,-55.2302 148.801,-51.859"/>
<polygon fill="midnightblue" stroke="midnightblue" points="37.5561,-636.367 41.0054,-646.385 44.556,-636.403 37.5561,-636.367"/>
</g>
<!-- Node48 -->
<g id="node48" class="node"><title>Node48</title>
<g id="a_node48"><a xlink:href="../../d8/dd3/lbaselib_8c.html#a8f5df6d3f89389dd27da5cfeceee1f34" target="_top" xlink:title="pairsmeta">
<polygon fill="none" stroke="red" points="138.5,-0.5 138.5,-19.5 197.5,-19.5 197.5,-0.5 138.5,-0.5"/>
<text text-anchor="middle" x="168" y="-7.5" font-family="Helvetica,sans-Serif" font-size="10.00">pairsmeta</text>
</a>
</g>
</g>
<!-- Node1&#45;&gt;Node48 -->
<g id="edge57" class="edge"><title>Node1&#45;&gt;Node48</title>
<path fill="none" stroke="midnightblue" d="M40.6901,-635.969C39.5948,-539.818 39.4611,-126.284 116,-29 121.55,-21.9454 130.004,-17.5101 138.443,-14.7217"/>
<polygon fill="midnightblue" stroke="midnightblue" points="37.1917,-636.125 40.8233,-646.078 44.1911,-636.033 37.1917,-636.125"/>
</g>
<!-- Node49 -->
<g id="node49" class="node"><title>Node49</title>
<g id="a_node49"><a xlink:href="../../d0/da1/ltablib_8c.html#ae92f4625e74d1876b2ca2a4ced74c807" target="_top" xlink:title="sort_comp">
<polygon fill="none" stroke="black" points="138,-1178.5 138,-1197.5 198,-1197.5 198,-1178.5 138,-1178.5"/>
<text text-anchor="middle" x="168" y="-1185.5" font-family="Helvetica,sans-Serif" font-size="10.00">sort_comp</text>
</a>
</g>
</g>
<!-- Node1&#45;&gt;Node49 -->
<g id="edge58" class="edge"><title>Node1&#45;&gt;Node49</title>
<path fill="none" stroke="midnightblue" d="M41.478,-675.693C43.8649,-759.318 56.8596,-1084.36 116,-1164 121.426,-1171.31 129.64,-1176.47 137.901,-1180.09"/>
<polygon fill="midnightblue" stroke="midnightblue" points="44.9729,-675.449 41.2079,-665.546 37.9753,-675.635 44.9729,-675.449"/>
</g>
<!-- Node50 -->
<g id="node50" class="node"><title>Node50</title>
<g id="a_node50"><a xlink:href="../../d8/d97/ldblib_8c.html#a6269322ee4ae931654d7442fe2be6a46" target="_top" xlink:title="treatstackoption">
<polygon fill="none" stroke="black" points="126.5,-722.5 126.5,-741.5 209.5,-741.5 209.5,-722.5 126.5,-722.5"/>
<text text-anchor="middle" x="168" y="-729.5" font-family="Helvetica,sans-Serif" font-size="10.00">treatstackoption</text>
</a>
</g>
</g>
<!-- Node1&#45;&gt;Node50 -->
<g id="edge60" class="edge"><title>Node1&#45;&gt;Node50</title>
<path fill="none" stroke="midnightblue" d="M61.9462,-671.928C76.6564,-682.759 97.0173,-697.054 116,-708 125.071,-713.23 135.468,-718.281 144.499,-722.389"/>
<polygon fill="midnightblue" stroke="midnightblue" points="63.6897,-668.862 53.5801,-665.692 59.5064,-674.475 63.6897,-668.862"/>
</g>
<!-- Node3 -->
<g id="node3" class="node"><title>Node3</title>
<g id="a_node3"><a xlink:href="../../dc/d77/lstrlib_8c.html#a42337c674d265175bcc2b2f3809c7339" target="_top" xlink:title="str_gsub">
<polygon fill="none" stroke="black" points="276.5,-1292.5 276.5,-1311.5 329.5,-1311.5 329.5,-1292.5 276.5,-1292.5"/>
<text text-anchor="middle" x="303" y="-1299.5" font-family="Helvetica,sans-Serif" font-size="10.00">str_gsub</text>
</a>
</g>
</g>
<!-- Node2&#45;&gt;Node3 -->
<g id="edge2" class="edge"><title>Node2&#45;&gt;Node3</title>
<path fill="none" stroke="midnightblue" d="M209.467,-1302C231.251,-1302 257.46,-1302 276.415,-1302"/>
<polygon fill="midnightblue" stroke="midnightblue" points="209.18,-1298.5 199.18,-1302 209.18,-1305.5 209.18,-1298.5"/>
</g>
<!-- Node5 -->
<g id="node5" class="node"><title>Node5</title>
<g id="a_node5"><a xlink:href="../../de/df3/liolib_8c.html#a6a36f72d8b3966c1ebafab8a4791cb6c" target="_top" xlink:title="f_lines">
<polygon fill="none" stroke="black" points="396,-1244.5 396,-1263.5 439,-1263.5 439,-1244.5 396,-1244.5"/>
<text text-anchor="middle" x="417.5" y="-1251.5" font-family="Helvetica,sans-Serif" font-size="10.00">f_lines</text>
</a>
</g>
</g>
<!-- Node4&#45;&gt;Node5 -->
<g id="edge4" class="edge"><title>Node4&#45;&gt;Node5</title>
<path fill="none" stroke="midnightblue" d="M341.528,-1244.67C359.688,-1246.93 380.787,-1249.56 395.967,-1251.44"/>
<polygon fill="midnightblue" stroke="midnightblue" points="341.876,-1241.19 331.521,-1243.42 341.012,-1248.13 341.876,-1241.19"/>
</g>
<!-- Node6 -->
<g id="node6" class="node"><title>Node6</title>
<g id="a_node6"><a xlink:href="../../de/df3/liolib_8c.html#ab08031b51605d4ef676ec33a3b96a286" target="_top" xlink:title="io_lines">
<polygon fill="none" stroke="black" points="394,-1206.5 394,-1225.5 441,-1225.5 441,-1206.5 394,-1206.5"/>
<text text-anchor="middle" x="417.5" y="-1213.5" font-family="Helvetica,sans-Serif" font-size="10.00">io_lines</text>
</a>
</g>
</g>
<!-- Node4&#45;&gt;Node6 -->
<g id="edge5" class="edge"><title>Node4&#45;&gt;Node6</title>
<path fill="none" stroke="midnightblue" d="M341.364,-1232.03C358.714,-1228.33 378.776,-1224.05 393.803,-1220.84"/>
<polygon fill="midnightblue" stroke="midnightblue" points="340.57,-1228.62 331.521,-1234.13 342.031,-1235.47 340.57,-1228.62"/>
</g>
<!-- Node8 -->
<g id="node8" class="node"><title>Node8</title>
<g id="a_node8"><a xlink:href="../../d0/da1/ltablib_8c.html#ae7d3f892e2605bf102dce63de388e626" target="_top" xlink:title="sort">
<polygon fill="none" stroke="black" points="401.5,-1159.5 401.5,-1178.5 433.5,-1178.5 433.5,-1159.5 401.5,-1159.5"/>
<text text-anchor="middle" x="417.5" y="-1166.5" font-family="Helvetica,sans-Serif" font-size="10.00">sort</text>
</a>
</g>
</g>
<!-- Node7&#45;&gt;Node8 -->
<g id="edge7" class="edge"><title>Node7&#45;&gt;Node8</title>
<path fill="none" stroke="midnightblue" d="M337.283,-1169C358.538,-1169 385.074,-1169 401.4,-1169"/>
<polygon fill="midnightblue" stroke="midnightblue" points="337.038,-1165.5 327.038,-1169 337.037,-1172.5 337.038,-1165.5"/>
</g>
<!-- Node10 -->
<g id="node10" class="node"><title>Node10</title>
<g id="a_node10"><a xlink:href="../../d8/d97/ldblib_8c.html#ade86533c6188a941aae1be4396a20393" target="_top" xlink:title="db_upvalueid">
<polygon fill="none" stroke="black" points="266,-1112.5 266,-1131.5 340,-1131.5 340,-1112.5 266,-1112.5"/>
<text text-anchor="middle" x="303" y="-1119.5" font-family="Helvetica,sans-Serif" font-size="10.00">db_upvalueid</text>
</a>
</g>
</g>
<!-- Node9&#45;&gt;Node10 -->
<g id="edge9" class="edge"><title>Node9&#45;&gt;Node10</title>
<path fill="none" stroke="midnightblue" d="M210.53,-1115.12C228.147,-1116.45 248.5,-1117.98 265.528,-1119.26"/>
<polygon fill="midnightblue" stroke="midnightblue" points="210.753,-1111.63 200.519,-1114.37 210.229,-1118.61 210.753,-1111.63"/>
</g>
<!-- Node11 -->
<g id="node11" class="node"><title>Node11</title>
<g id="a_node11"><a xlink:href="../../d8/d97/ldblib_8c.html#acd80bdb3262b3580eb6955f6f3eb3549" target="_top" xlink:title="db_upvaluejoin">
<polygon fill="none" stroke="black" points="262,-1074.5 262,-1093.5 344,-1093.5 344,-1074.5 262,-1074.5"/>
<text text-anchor="middle" x="303" y="-1081.5" font-family="Helvetica,sans-Serif" font-size="10.00">db_upvaluejoin</text>
</a>
</g>
</g>
<!-- Node9&#45;&gt;Node11 -->
<g id="edge10" class="edge"><title>Node9&#45;&gt;Node11</title>
<path fill="none" stroke="midnightblue" d="M210.34,-1103.3C226.675,-1099.86 245.385,-1095.92 261.625,-1092.5"/>
<polygon fill="midnightblue" stroke="midnightblue" points="209.584,-1099.88 200.519,-1105.36 211.026,-1106.73 209.584,-1099.88"/>
</g>
<!-- Node13 -->
<g id="node13" class="node"><title>Node13</title>
<g id="a_node13"><a xlink:href="../../d6/d07/lualib_8h.html#a686b841d953f3113ddc7538d69debce7" target="_top" xlink:title="luaopen_io">
<polygon fill="none" stroke="black" points="386,-1007.5 386,-1026.5 449,-1026.5 449,-1007.5 386,-1007.5"/>
<text text-anchor="middle" x="417.5" y="-1014.5" font-family="Helvetica,sans-Serif" font-size="10.00">luaopen_io</text>
</a>
</g>
</g>
<!-- Node12&#45;&gt;Node13 -->
<g id="edge12" class="edge"><title>Node12&#45;&gt;Node13</title>
<path fill="none" stroke="midnightblue" d="M344.782,-1029.11C358.319,-1026.83 373.151,-1024.32 385.796,-1022.19"/>
<polygon fill="midnightblue" stroke="midnightblue" points="344.019,-1025.69 334.741,-1030.81 345.184,-1032.59 344.019,-1025.69"/>
</g>
<!-- Node15 -->
<g id="node15" class="node"><title>Node15</title>
<g id="a_node15"><a xlink:href="../../d6/d07/lualib_8h.html#a3cc052c1be81497507ee76524482eaec" target="_top" xlink:title="luaopen_string">
<polygon fill="none" stroke="black" points="264,-760.5 264,-779.5 342,-779.5 342,-760.5 264,-760.5"/>
<text text-anchor="middle" x="303" y="-767.5" font-family="Helvetica,sans-Serif" font-size="10.00">luaopen_string</text>
</a>
</g>
</g>
<!-- Node14&#45;&gt;Node15 -->
<g id="edge14" class="edge"><title>Node14&#45;&gt;Node15</title>
<path fill="none" stroke="midnightblue" d="M220.617,-770C235.008,-770 250.379,-770 263.843,-770"/>
<polygon fill="midnightblue" stroke="midnightblue" points="220.353,-766.5 210.353,-770 220.353,-773.5 220.353,-766.5"/>
</g>
<!-- Node16&#45;&gt;Node17 -->
<g id="edge16" class="edge"><title>Node16&#45;&gt;Node17</title>
<path fill="none" stroke="midnightblue" d="M230.056,-913.278C238.666,-912.048 247.398,-910.8 255.67,-909.619"/>
<polygon fill="midnightblue" stroke="midnightblue" points="229.445,-909.829 220.041,-914.708 230.435,-916.759 229.445,-909.829"/>
</g>
<!-- Node18&#45;&gt;Node13 -->
<g id="edge18" class="edge"><title>Node18&#45;&gt;Node13</title>
<path fill="none" stroke="midnightblue" d="M345.562,-1005.02C358.915,-1007.27 373.456,-1009.73 385.876,-1011.83"/>
<polygon fill="midnightblue" stroke="midnightblue" points="346.08,-1001.56 335.637,-1003.34 344.914,-1008.46 346.08,-1001.56"/>
</g>
<!-- Node26 -->
<g id="node26" class="node"><title>Node26</title>
<g id="a_node26"><a xlink:href="../../de/df3/liolib_8c.html#a827044fde6f2c21ab965ba3d729f6a0f" target="_top" xlink:title="io_input">
<polygon fill="none" stroke="black" points="278.5,-494.5 278.5,-513.5 327.5,-513.5 327.5,-494.5 278.5,-494.5"/>
<text text-anchor="middle" x="303" y="-501.5" font-family="Helvetica,sans-Serif" font-size="10.00">io_input</text>
</a>
</g>
</g>
<!-- Node25&#45;&gt;Node26 -->
<g id="edge26" class="edge"><title>Node25&#45;&gt;Node26</title>
<path fill="none" stroke="midnightblue" d="M199.737,-474.782C223.673,-481.621 256.409,-490.974 278.332,-497.238"/>
<polygon fill="midnightblue" stroke="midnightblue" points="200.651,-471.403 190.074,-472.021 198.728,-478.134 200.651,-471.403"/>
</g>
<!-- Node27 -->
<g id="node27" class="node"><title>Node27</title>
<g id="a_node27"><a xlink:href="../../de/df3/liolib_8c.html#a4464f89f0151ad432557b0a51258582c" target="_top" xlink:title="io_output">
<polygon fill="none" stroke="black" points="275.5,-456.5 275.5,-475.5 330.5,-475.5 330.5,-456.5 275.5,-456.5"/>
<text text-anchor="middle" x="303" y="-463.5" font-family="Helvetica,sans-Serif" font-size="10.00">io_output</text>
</a>
</g>
</g>
<!-- Node25&#45;&gt;Node27 -->
<g id="edge27" class="edge"><title>Node25&#45;&gt;Node27</title>
<path fill="none" stroke="midnightblue" d="M200.221,-466C222.939,-466 253.39,-466 275.049,-466"/>
<polygon fill="midnightblue" stroke="midnightblue" points="200.074,-462.5 190.074,-466 200.074,-469.5 200.074,-462.5"/>
</g>
<!-- Node29 -->
<g id="node29" class="node"><title>Node29</title>
<g id="a_node29"><a xlink:href="../../d8/dd3/lbaselib_8c.html#a4a9a3613fcf80fe033e044f7e19bed69" target="_top" xlink:title="luaB_load">
<polygon fill="none" stroke="black" points="273.5,-418.5 273.5,-437.5 332.5,-437.5 332.5,-418.5 273.5,-418.5"/>
<text text-anchor="middle" x="303" y="-425.5" font-family="Helvetica,sans-Serif" font-size="10.00">luaB_load</text>
</a>
</g>
</g>
<!-- Node28&#45;&gt;Node29 -->
<g id="edge29" class="edge"><title>Node28&#45;&gt;Node29</title>
<path fill="none" stroke="midnightblue" d="M217.002,-428C235.925,-428 257.018,-428 273.458,-428"/>
<polygon fill="midnightblue" stroke="midnightblue" points="216.757,-424.5 206.757,-428 216.757,-431.5 216.757,-424.5"/>
</g>
<!-- Node30&#45;&gt;Node4 -->
<g id="edge31" class="edge"><title>Node30&#45;&gt;Node4</title>
<path fill="none" stroke="midnightblue" d="M208.524,-1256.87C229.726,-1253.04 255.334,-1248.42 274.382,-1244.98"/>
<polygon fill="midnightblue" stroke="midnightblue" points="207.737,-1253.45 198.517,-1258.67 208.98,-1260.34 207.737,-1253.45"/>
</g>
<!-- Node32 -->
<g id="node32" class="node"><title>Node32</title>
<g id="a_node32"><a xlink:href="../../d2/d82/loadlib_8c.html#a21b83479d4a62aa393b19bcb08e71889" target="_top" xlink:title="ll_loadfunc">
<polygon fill="none" stroke="red" points="273,-342.5 273,-361.5 333,-361.5 333,-342.5 273,-342.5"/>
<text text-anchor="middle" x="303" y="-349.5" font-family="Helvetica,sans-Serif" font-size="10.00">ll_loadfunc</text>
</a>
</g>
</g>
<!-- Node31&#45;&gt;Node32 -->
<g id="edge33" class="edge"><title>Node31&#45;&gt;Node32</title>
<path fill="none" stroke="midnightblue" d="M209.186,-352C229.693,-352 254.181,-352 272.854,-352"/>
<polygon fill="midnightblue" stroke="midnightblue" points="209.18,-348.5 199.18,-352 209.18,-355.5 209.18,-348.5"/>
</g>
<!-- Node34&#45;&gt;Node29 -->
<g id="edge37" class="edge"><title>Node34&#45;&gt;Node29</title>
<path fill="none" stroke="midnightblue" d="M205.939,-400.554C227.268,-406.648 253.69,-414.197 273.422,-419.835"/>
<polygon fill="midnightblue" stroke="midnightblue" points="206.812,-397.164 196.235,-397.782 204.889,-403.894 206.812,-397.164"/>
</g>
<!-- Node35 -->
<g id="node35" class="node"><title>Node35</title>
<g id="a_node35"><a xlink:href="../../d8/dd3/lbaselib_8c.html#aeb4cb83db820979bbdd7710109b52957" target="_top" xlink:title="luaB_loadfile">
<polygon fill="none" stroke="black" points="268,-380.5 268,-399.5 338,-399.5 338,-380.5 268,-380.5"/>
<text text-anchor="middle" x="303" y="-387.5" font-family="Helvetica,sans-Serif" font-size="10.00">luaB_loadfile</text>
</a>
</g>
</g>
<!-- Node34&#45;&gt;Node35 -->
<g id="edge36" class="edge"><title>Node34&#45;&gt;Node35</title>
<path fill="none" stroke="midnightblue" d="M206.449,-390C225.677,-390 248.938,-390 267.695,-390"/>
<polygon fill="midnightblue" stroke="midnightblue" points="206.236,-386.5 196.235,-390 206.235,-393.5 206.236,-386.5"/>
</g>
<!-- Node37 -->
<g id="node37" class="node"><title>Node37</title>
<g id="a_node37"><a xlink:href="../../df/d2d/lcorolib_8c.html#a1c0429e27f504b08e25f437f733edad1" target="_top" xlink:title="luaB_cowrap">
<polygon fill="none" stroke="black" points="266,-266.5 266,-285.5 340,-285.5 340,-266.5 266,-266.5"/>
<text text-anchor="middle" x="303" y="-273.5" font-family="Helvetica,sans-Serif" font-size="10.00">luaB_cowrap</text>
</a>
</g>
</g>
<!-- Node36&#45;&gt;Node37 -->
<g id="edge39" class="edge"><title>Node36&#45;&gt;Node37</title>
<path fill="none" stroke="midnightblue" d="M217.09,-276C233.226,-276 250.932,-276 265.981,-276"/>
<polygon fill="midnightblue" stroke="midnightblue" points="216.757,-272.5 206.757,-276 216.757,-279.5 216.757,-272.5"/>
</g>
<!-- Node41&#45;&gt;Node42 -->
<g id="edge44" class="edge"><title>Node41&#45;&gt;Node42</title>
<path fill="none" stroke="midnightblue" d="M215.591,-117.344C232.515,-114.926 251.334,-112.238 267.078,-109.989"/>
<polygon fill="midnightblue" stroke="midnightblue" points="214.747,-113.929 205.343,-118.808 215.737,-120.859 214.747,-113.929"/>
</g>
<!-- Node43&#45;&gt;Node17 -->
<g id="edge47" class="edge"><title>Node43&#45;&gt;Node17</title>
<path fill="none" stroke="midnightblue" d="M200.776,-859.618C225.108,-870.046 258.063,-884.17 279.666,-893.428"/>
<polygon fill="midnightblue" stroke="midnightblue" points="201.831,-856.263 191.261,-855.541 199.074,-862.697 201.831,-856.263"/>
</g>
<!-- Node43&#45;&gt;Node44 -->
<g id="edge46" class="edge"><title>Node43&#45;&gt;Node44</title>
<path fill="none" stroke="midnightblue" d="M223.621,-838.197C238.804,-836.028 254.84,-833.737 268.425,-831.796"/>
<polygon fill="midnightblue" stroke="midnightblue" points="222.692,-834.794 213.287,-839.673 223.682,-841.724 222.692,-834.794"/>
</g>
<!-- Node45&#45;&gt;Node12 -->
<g id="edge49" class="edge"><title>Node45&#45;&gt;Node12</title>
<path fill="none" stroke="midnightblue" d="M212.301,-1061.63C231.519,-1056.14 253.692,-1049.8 271.184,-1044.8"/>
<polygon fill="midnightblue" stroke="midnightblue" points="211.215,-1058.3 202.562,-1064.41 213.138,-1065.03 211.215,-1058.3"/>
</g>
<!-- Node46&#45;&gt;Node12 -->
<g id="edge52" class="edge"><title>Node46&#45;&gt;Node12</title>
<path fill="none" stroke="midnightblue" d="M190.307,-975.592C207.508,-987.773 232.612,-1004.65 256,-1017 262.418,-1020.39 269.577,-1023.6 276.299,-1026.38"/>
<polygon fill="midnightblue" stroke="midnightblue" points="192.25,-972.679 182.083,-969.699 188.173,-978.369 192.25,-972.679"/>
</g>
<!-- Node46&#45;&gt;Node17 -->
<g id="edge53" class="edge"><title>Node46&#45;&gt;Node17</title>
<path fill="none" stroke="midnightblue" d="M205.29,-946.874C210.256,-944.963 215.271,-942.973 220,-941 241.576,-931.997 265.814,-920.602 282.307,-912.648"/>
<polygon fill="midnightblue" stroke="midnightblue" points="204.004,-943.619 195.886,-950.427 206.477,-950.167 204.004,-943.619"/>
</g>
<!-- Node49&#45;&gt;Node7 -->
<g id="edge59" class="edge"><title>Node49&#45;&gt;Node7</title>
<path fill="none" stroke="midnightblue" d="M208.28,-1182.39C231.148,-1179.12 259.207,-1175.11 278.631,-1172.34"/>
<polygon fill="midnightblue" stroke="midnightblue" points="207.592,-1178.95 198.187,-1183.83 208.582,-1185.88 207.592,-1178.95"/>
</g>
<!-- Node50&#45;&gt;Node19 -->
<g id="edge61" class="edge"><title>Node50&#45;&gt;Node19</title>
<path fill="none" stroke="midnightblue" d="M219.645,-724.765C237.535,-722.209 257.05,-719.421 272.591,-717.201"/>
<polygon fill="midnightblue" stroke="midnightblue" points="219.032,-721.317 209.627,-726.196 220.022,-728.247 219.032,-721.317"/>
</g>
</g>
</svg>
