<?xml version="1.0" encoding="UTF-8" standalone="no"?>
<!DOCTYPE svg PUBLIC "-//W3C//DTD SVG 1.1//EN"
 "http://www.w3.org/Graphics/SVG/1.1/DTD/svg11.dtd">
<!-- Generated by graphviz version 2.38.0 (20140413.2041)
 -->
<!-- Title: lua_pushinteger Pages: 1 -->
<svg width="545pt" height="1054pt"
 viewBox="0.00 0.00 545.00 1054.00" xmlns="http://www.w3.org/2000/svg" xmlns:xlink="http://www.w3.org/1999/xlink">
<g id="graph0" class="graph" transform="scale(1 1) rotate(0) translate(4 1050)">
<title>lua_pushinteger</title>
<!-- Node1 -->
<g id="node1" class="node"><title>Node1</title>
<polygon fill="#bfbfbf" stroke="black" points="0,-513.5 0,-532.5 83,-532.5 83,-513.5 0,-513.5"/>
<text text-anchor="middle" x="41.5" y="-520.5" font-family="Helvetica,sans-Serif" font-size="10.00">lua_pushinteger</text>
</g>
<!-- Node2 -->
<g id="node2" class="node"><title>Node2</title>
<g id="a_node2"><a xlink:href="../../de/df3/liolib_8c.html#a66325940a0248cee288153edb061c0c4" target="_top" xlink:title="aux_lines">
<polygon fill="none" stroke="black" points="141.5,-988.5 141.5,-1007.5 198.5,-1007.5 198.5,-988.5 141.5,-988.5"/>
<text text-anchor="middle" x="170" y="-995.5" font-family="Helvetica,sans-Serif" font-size="10.00">aux_lines</text>
</a>
</g>
</g>
<!-- Node1&#45;&gt;Node2 -->
<g id="edge1" class="edge"><title>Node1&#45;&gt;Node2</title>
<path fill="none" stroke="midnightblue" d="M43.4832,-542.899C47.6854,-620.796 66.3878,-904.164 119,-974 124.562,-981.383 132.984,-986.604 141.338,-990.246"/>
<polygon fill="midnightblue" stroke="midnightblue" points="46.9615,-542.389 42.948,-532.584 39.9709,-542.752 46.9615,-542.389"/>
</g>
<!-- Node5 -->
<g id="node5" class="node"><title>Node5</title>
<g id="a_node5"><a xlink:href="../../d8/d97/ldblib_8c.html#a6a624ae8d8ff673e72a317b280ed008d" target="_top" xlink:title="db_gethook">
<polygon fill="none" stroke="black" points="265,-950.5 265,-969.5 331,-969.5 331,-950.5 265,-950.5"/>
<text text-anchor="middle" x="298" y="-957.5" font-family="Helvetica,sans-Serif" font-size="10.00">db_gethook</text>
</a>
</g>
</g>
<!-- Node1&#45;&gt;Node5 -->
<g id="edge4" class="edge"><title>Node1&#45;&gt;Node5</title>
<path fill="none" stroke="midnightblue" d="M43.1111,-542.948C45.8643,-618.555 59.7122,-885.982 119,-941 158.183,-977.361 225.066,-973.439 264.739,-966.95"/>
<polygon fill="midnightblue" stroke="midnightblue" points="46.5946,-542.398 42.7592,-532.522 39.5986,-542.635 46.5946,-542.398"/>
</g>
<!-- Node6 -->
<g id="node6" class="node"><title>Node6</title>
<g id="a_node6"><a xlink:href="../../dc/d77/lstrlib_8c.html#ab55a72bb412d6186c82fd75de44cd031" target="_top" xlink:title="gmatch">
<polygon fill="none" stroke="black" points="485,-855.5 485,-874.5 532,-874.5 532,-855.5 485,-855.5"/>
<text text-anchor="middle" x="508.5" y="-862.5" font-family="Helvetica,sans-Serif" font-size="10.00">gmatch</text>
</a>
</g>
</g>
<!-- Node1&#45;&gt;Node6 -->
<g id="edge5" class="edge"><title>Node1&#45;&gt;Node6</title>
<path fill="none" stroke="midnightblue" d="M41.6639,-542.675C40.5812,-594.316 44.9615,-735.107 119,-813 217.922,-917.072 417.699,-884.913 484.877,-870.392"/>
<polygon fill="midnightblue" stroke="midnightblue" points="45.166,-542.657 41.9755,-532.554 38.1693,-542.441 45.166,-542.657"/>
</g>
<!-- Node7 -->
<g id="node7" class="node"><title>Node7</title>
<g id="a_node7"><a xlink:href="../../dc/d77/lstrlib_8c.html#ab7cb0ba6191e1aa9455f6522d3483a02" target="_top" xlink:title="gmatch_aux">
<polygon fill="none" stroke="black" points="375,-836.5 375,-855.5 444,-855.5 444,-836.5 375,-836.5"/>
<text text-anchor="middle" x="409.5" y="-843.5" font-family="Helvetica,sans-Serif" font-size="10.00">gmatch_aux</text>
</a>
</g>
</g>
<!-- Node1&#45;&gt;Node7 -->
<g id="edge6" class="edge"><title>Node1&#45;&gt;Node7</title>
<path fill="none" stroke="midnightblue" d="M43.1547,-543.096C45.7087,-589.128 58.1856,-703.36 119,-770 185.903,-843.312 314.126,-849.534 374.926,-847.968"/>
<polygon fill="midnightblue" stroke="midnightblue" points="46.6434,-542.765 42.6958,-532.933 39.6505,-543.081 46.6434,-542.765"/>
</g>
<!-- Node8 -->
<g id="node8" class="node"><title>Node8</title>
<g id="a_node8"><a xlink:href="../../d8/d97/ldblib_8c.html#a5caaa985f31fc5cbd014f831833205e7" target="_top" xlink:title="hookf">
<polygon fill="none" stroke="black" points="150.5,-912.5 150.5,-931.5 189.5,-931.5 189.5,-912.5 150.5,-912.5"/>
<text text-anchor="middle" x="170" y="-919.5" font-family="Helvetica,sans-Serif" font-size="10.00">hookf</text>
</a>
</g>
</g>
<!-- Node1&#45;&gt;Node8 -->
<g id="edge8" class="edge"><title>Node1&#45;&gt;Node8</title>
<path fill="none" stroke="midnightblue" d="M44.245,-543C50.643,-612.34 74.7771,-841.284 119,-898 126.697,-907.871 139.47,-913.906 150.18,-917.455"/>
<polygon fill="midnightblue" stroke="midnightblue" points="47.6943,-542.278 43.3122,-532.632 40.7225,-542.905 47.6943,-542.278"/>
</g>
<!-- Node10 -->
<g id="node10" class="node"><title>Node10</title>
<g id="a_node10"><a xlink:href="../../d8/dd3/lbaselib_8c.html#a9e49fcec5e66e36e817b1951123efc03" target="_top" xlink:title="ipairsaux">
<polygon fill="none" stroke="black" points="142,-608.5 142,-627.5 198,-627.5 198,-608.5 142,-608.5"/>
<text text-anchor="middle" x="170" y="-615.5" font-family="Helvetica,sans-Serif" font-size="10.00">ipairsaux</text>
</a>
</g>
</g>
<!-- Node1&#45;&gt;Node10 -->
<g id="edge11" class="edge"><title>Node1&#45;&gt;Node10</title>
<path fill="none" stroke="midnightblue" d="M56.514,-540.713C70.7102,-557.654 94.0776,-582.933 119,-599 125.946,-603.478 134.106,-607.139 141.796,-610.01"/>
<polygon fill="midnightblue" stroke="midnightblue" points="59.0067,-538.233 49.9666,-532.707 53.5879,-542.664 59.0067,-538.233"/>
</g>
<!-- Node12 -->
<g id="node12" class="node"><title>Node12</title>
<g id="a_node12"><a xlink:href="../../d8/dd3/lbaselib_8c.html#a07f71966c943cc9761ab129f64d4ac80" target="_top" xlink:title="luaB_collectgarbage">
<polygon fill="none" stroke="black" points="119,-532.5 119,-551.5 221,-551.5 221,-532.5 119,-532.5"/>
<text text-anchor="middle" x="170" y="-539.5" font-family="Helvetica,sans-Serif" font-size="10.00">luaB_collectgarbage</text>
</a>
</g>
</g>
<!-- Node1&#45;&gt;Node12 -->
<g id="edge13" class="edge"><title>Node1&#45;&gt;Node12</title>
<path fill="none" stroke="midnightblue" d="M93.2262,-530.619C101.586,-531.875 110.249,-533.176 118.601,-534.43"/>
<polygon fill="midnightblue" stroke="midnightblue" points="93.6307,-527.141 83.2217,-529.116 92.5909,-534.063 93.6307,-527.141"/>
</g>
<!-- Node13 -->
<g id="node13" class="node"><title>Node13</title>
<g id="a_node13"><a xlink:href="../../d8/dd3/lbaselib_8c.html#a68b39dfb2717573478ca211e9785dc6a" target="_top" xlink:title="luaB_rawlen">
<polygon fill="none" stroke="black" points="135,-494.5 135,-513.5 205,-513.5 205,-494.5 135,-494.5"/>
<text text-anchor="middle" x="170" y="-501.5" font-family="Helvetica,sans-Serif" font-size="10.00">luaB_rawlen</text>
</a>
</g>
</g>
<!-- Node1&#45;&gt;Node13 -->
<g id="edge14" class="edge"><title>Node1&#45;&gt;Node13</title>
<path fill="none" stroke="midnightblue" d="M93.1874,-515.387C107.136,-513.292 121.934,-511.069 134.718,-509.149"/>
<polygon fill="midnightblue" stroke="midnightblue" points="92.5909,-511.937 83.2217,-516.884 93.6307,-518.859 92.5909,-511.937"/>
</g>
<!-- Node14 -->
<g id="node14" class="node"><title>Node14</title>
<g id="a_node14"><a xlink:href="../../d8/dd3/lbaselib_8c.html#ac2909062d4ac2b0396c640407e5b19d8" target="_top" xlink:title="luaB_select">
<polygon fill="none" stroke="black" points="137.5,-456.5 137.5,-475.5 202.5,-475.5 202.5,-456.5 137.5,-456.5"/>
<text text-anchor="middle" x="170" y="-463.5" font-family="Helvetica,sans-Serif" font-size="10.00">luaB_select</text>
</a>
</g>
</g>
<!-- Node1&#45;&gt;Node14 -->
<g id="edge15" class="edge"><title>Node1&#45;&gt;Node14</title>
<path fill="none" stroke="midnightblue" d="M69.44,-508.811C83.9598,-501.37 102.28,-492.308 119,-485 126.488,-481.727 134.736,-478.459 142.337,-475.579"/>
<polygon fill="midnightblue" stroke="midnightblue" points="67.7777,-505.731 60.5024,-513.433 70.9928,-511.949 67.7777,-505.731"/>
</g>
<!-- Node15 -->
<g id="node15" class="node"><title>Node15</title>
<g id="a_node15"><a xlink:href="../../da/d29/lauxlib_8h.html#a2e009e523534f5ad087e7834e711b781" target="_top" xlink:title="luaL_execresult">
<polygon fill="none" stroke="black" points="257,-76.5 257,-95.5 339,-95.5 339,-76.5 257,-76.5"/>
<text text-anchor="middle" x="298" y="-83.5" font-family="Helvetica,sans-Serif" font-size="10.00">luaL_execresult</text>
</a>
</g>
</g>
<!-- Node1&#45;&gt;Node15 -->
<g id="edge16" class="edge"><title>Node1&#45;&gt;Node15</title>
<path fill="none" stroke="midnightblue" d="M50.6396,-504.08C62.3211,-479.017 86.113,-434.958 119,-409 156.973,-379.027 190.794,-408.788 221,-371 295.49,-277.813 186.625,-201.332 257,-105 259.812,-101.151 263.608,-98.0521 267.746,-95.5654"/>
<polygon fill="midnightblue" stroke="midnightblue" points="47.4203,-502.706 46.5089,-513.261 53.8039,-505.578 47.4203,-502.706"/>
</g>
<!-- Node19 -->
<g id="node19" class="node"><title>Node19</title>
<g id="a_node19"><a xlink:href="../../da/d29/lauxlib_8h.html#ab94b3cb77f5a0ae622ae4ba5f99af4c7" target="_top" xlink:title="luaL_fileresult">
<polygon fill="none" stroke="black" points="134,-418.5 134,-437.5 206,-437.5 206,-418.5 134,-418.5"/>
<text text-anchor="middle" x="170" y="-425.5" font-family="Helvetica,sans-Serif" font-size="10.00">luaL_fileresult</text>
</a>
</g>
</g>
<!-- Node1&#45;&gt;Node19 -->
<g id="edge20" class="edge"><title>Node1&#45;&gt;Node19</title>
<path fill="none" stroke="midnightblue" d="M56.514,-505.287C70.7102,-488.346 94.0776,-463.067 119,-447 124.776,-443.277 131.39,-440.118 137.876,-437.509"/>
<polygon fill="midnightblue" stroke="midnightblue" points="53.5879,-503.336 49.9666,-513.293 59.0067,-507.767 53.5879,-503.336"/>
</g>
<!-- Node32 -->
<g id="node32" class="node"><title>Node32</title>
<g id="a_node32"><a xlink:href="../../da/d29/lauxlib_8h.html#a6200030ecae784852045161274501e0e" target="_top" xlink:title="luaL_unref">
<polygon fill="none" stroke="black" points="140,-342.5 140,-361.5 200,-361.5 200,-342.5 140,-342.5"/>
<text text-anchor="middle" x="170" y="-349.5" font-family="Helvetica,sans-Serif" font-size="10.00">luaL_unref</text>
</a>
</g>
</g>
<!-- Node1&#45;&gt;Node32 -->
<g id="edge37" class="edge"><title>Node1&#45;&gt;Node32</title>
<path fill="none" stroke="midnightblue" d="M48.1672,-503.575C57.9978,-472.887 80.8939,-412.894 119,-376 125.226,-369.972 133.254,-365.216 141.048,-361.583"/>
<polygon fill="midnightblue" stroke="midnightblue" points="44.7221,-502.871 45.1326,-513.458 51.4137,-504.926 44.7221,-502.871"/>
</g>
<!-- Node33 -->
<g id="node33" class="node"><title>Node33</title>
<g id="a_node33"><a xlink:href="../../d1/d6a/lmathlib_8c.html#a13d5e8c418a554d9e4604b97a4b67b83" target="_top" xlink:title="math_frexp">
<polygon fill="none" stroke="black" points="138,-304.5 138,-323.5 202,-323.5 202,-304.5 138,-304.5"/>
<text text-anchor="middle" x="170" y="-311.5" font-family="Helvetica,sans-Serif" font-size="10.00">math_frexp</text>
</a>
</g>
</g>
<!-- Node1&#45;&gt;Node33 -->
<g id="edge38" class="edge"><title>Node1&#45;&gt;Node33</title>
<path fill="none" stroke="midnightblue" d="M45.2126,-502.892C51.3949,-464.668 69.9896,-381.058 119,-333 124.238,-327.864 131.005,-324.088 137.858,-321.323"/>
<polygon fill="midnightblue" stroke="midnightblue" points="41.6876,-502.8 43.6725,-513.208 48.6108,-503.834 41.6876,-502.8"/>
</g>
<!-- Node34 -->
<g id="node34" class="node"><title>Node34</title>
<g id="a_node34"><a xlink:href="../../d0/da1/ltablib_8c.html#a46a372295cbd1692b06bdbac4ca58881" target="_top" xlink:title="pack">
<polygon fill="none" stroke="black" points="151,-266.5 151,-285.5 189,-285.5 189,-266.5 151,-266.5"/>
<text text-anchor="middle" x="170" y="-273.5" font-family="Helvetica,sans-Serif" font-size="10.00">pack</text>
</a>
</g>
</g>
<!-- Node1&#45;&gt;Node34 -->
<g id="edge39" class="edge"><title>Node1&#45;&gt;Node34</title>
<path fill="none" stroke="midnightblue" d="M43.6143,-503.163C47.1035,-459.655 61.3607,-354.958 119,-295 127.366,-286.297 140.129,-281.534 150.666,-278.953"/>
<polygon fill="midnightblue" stroke="midnightblue" points="40.1126,-503.067 42.9136,-513.285 47.0959,-503.551 40.1126,-503.067"/>
</g>
<!-- Node35 -->
<g id="node35" class="node"><title>Node35</title>
<g id="a_node35"><a xlink:href="../../d8/dd3/lbaselib_8c.html#a8f5df6d3f89389dd27da5cfeceee1f34" target="_top" xlink:title="pairsmeta">
<polygon fill="none" stroke="black" points="140.5,-570.5 140.5,-589.5 199.5,-589.5 199.5,-570.5 140.5,-570.5"/>
<text text-anchor="middle" x="170" y="-577.5" font-family="Helvetica,sans-Serif" font-size="10.00">pairsmeta</text>
</a>
</g>
</g>
<!-- Node1&#45;&gt;Node35 -->
<g id="edge40" class="edge"><title>Node1&#45;&gt;Node35</title>
<path fill="none" stroke="midnightblue" d="M69.44,-537.189C83.9598,-544.63 102.28,-553.692 119,-561 126.488,-564.273 134.736,-567.541 142.337,-570.421"/>
<polygon fill="midnightblue" stroke="midnightblue" points="70.9928,-534.051 60.5024,-532.567 67.7777,-540.269 70.9928,-534.051"/>
</g>
<!-- Node37 -->
<g id="node37" class="node"><title>Node37</title>
<g id="a_node37"><a xlink:href="../../dc/d77/lstrlib_8c.html#a24a14b4e6e90bac4610dd334bb0b51b6" target="_top" xlink:title="push_onecapture">
<polygon fill="none" stroke="black" points="124.5,-741.5 124.5,-760.5 215.5,-760.5 215.5,-741.5 124.5,-741.5"/>
<text text-anchor="middle" x="170" y="-748.5" font-family="Helvetica,sans-Serif" font-size="10.00">push_onecapture</text>
</a>
</g>
</g>
<!-- Node1&#45;&gt;Node37 -->
<g id="edge43" class="edge"><title>Node1&#45;&gt;Node37</title>
<path fill="none" stroke="midnightblue" d="M47.3551,-542.659C56.8048,-578.192 80.2119,-654.387 119,-708 128.664,-721.357 143.276,-733.293 154.212,-741.18"/>
<polygon fill="midnightblue" stroke="midnightblue" points="50.6566,-541.444 44.7756,-532.632 43.8773,-543.188 50.6566,-541.444"/>
</g>
<!-- Node39 -->
<g id="node39" class="node"><title>Node39</title>
<g id="a_node39"><a xlink:href="../../dc/d77/lstrlib_8c.html#a692514aa32ae2668683a4db15259d26b" target="_top" xlink:title="str_find_aux">
<polygon fill="none" stroke="black" points="375.5,-646.5 375.5,-665.5 443.5,-665.5 443.5,-646.5 375.5,-646.5"/>
<text text-anchor="middle" x="409.5" y="-653.5" font-family="Helvetica,sans-Serif" font-size="10.00">str_find_aux</text>
</a>
</g>
</g>
<!-- Node1&#45;&gt;Node39 -->
<g id="edge59" class="edge"><title>Node1&#45;&gt;Node39</title>
<path fill="none" stroke="midnightblue" d="M49.1666,-542.215C59.5072,-568.76 82.1515,-615.772 119,-637 201.051,-684.269 318.719,-672.358 375.441,-662.696"/>
<polygon fill="midnightblue" stroke="midnightblue" points="52.337,-540.697 45.5881,-532.53 45.7708,-543.123 52.337,-540.697"/>
</g>
<!-- Node43 -->
<g id="node43" class="node"><title>Node43</title>
<g id="a_node43"><a xlink:href="../../dc/d77/lstrlib_8c.html#a42337c674d265175bcc2b2f3809c7339" target="_top" xlink:title="str_gsub">
<polygon fill="none" stroke="black" points="482,-703.5 482,-722.5 535,-722.5 535,-703.5 482,-703.5"/>
<text text-anchor="middle" x="508.5" y="-710.5" font-family="Helvetica,sans-Serif" font-size="10.00">str_gsub</text>
</a>
</g>
</g>
<!-- Node1&#45;&gt;Node43 -->
<g id="edge60" class="edge"><title>Node1&#45;&gt;Node43</title>
<path fill="none" stroke="midnightblue" d="M46.828,-542.564C54.9646,-574.299 75.7625,-636.421 119,-666 178.298,-706.566 404.79,-712.183 481.739,-712.911"/>
<polygon fill="midnightblue" stroke="midnightblue" points="50.1999,-541.616 44.4619,-532.709 43.3933,-543.25 50.1999,-541.616"/>
</g>
<!-- Node45 -->
<g id="node45" class="node"><title>Node45</title>
<g id="a_node45"><a xlink:href="../../dc/dba/loslib_8c.html#a74a823f500a50f231ec779026238169e" target="_top" xlink:title="setfield">
<polygon fill="none" stroke="black" points="147.5,-228.5 147.5,-247.5 192.5,-247.5 192.5,-228.5 147.5,-228.5"/>
<text text-anchor="middle" x="170" y="-235.5" font-family="Helvetica,sans-Serif" font-size="10.00">setfield</text>
</a>
</g>
</g>
<!-- Node1&#45;&gt;Node45 -->
<g id="edge54" class="edge"><title>Node1&#45;&gt;Node45</title>
<path fill="none" stroke="midnightblue" d="M42.4757,-503.229C43.4861,-454.812 52.7307,-329.019 119,-257 126.357,-249.005 137.433,-244.349 147.292,-241.65"/>
<polygon fill="midnightblue" stroke="midnightblue" points="38.975,-503.276 42.3663,-513.314 45.9746,-503.352 38.975,-503.276"/>
</g>
<!-- Node47 -->
<g id="node47" class="node"><title>Node47</title>
<g id="a_node47"><a xlink:href="../../d8/d97/ldblib_8c.html#a2385ac5abe5680037972d926076b5a33" target="_top" xlink:title="settabsi">
<polygon fill="none" stroke="black" points="145,-190.5 145,-209.5 195,-209.5 195,-190.5 145,-190.5"/>
<text text-anchor="middle" x="170" y="-197.5" font-family="Helvetica,sans-Serif" font-size="10.00">settabsi</text>
</a>
</g>
</g>
<!-- Node1&#45;&gt;Node47 -->
<g id="edge56" class="edge"><title>Node1&#45;&gt;Node47</title>
<path fill="none" stroke="midnightblue" d="M45.0677,-503.236C53.2743,-442.834 80.5974,-262.164 119,-219 125.666,-211.507 135.607,-206.955 144.872,-204.195"/>
<polygon fill="midnightblue" stroke="midnightblue" points="41.572,-502.972 43.7214,-513.347 48.5108,-503.896 41.572,-502.972"/>
</g>
<!-- Node49 -->
<g id="node49" class="node"><title>Node49</title>
<g id="a_node49"><a xlink:href="../../dc/d77/lstrlib_8c.html#ae561770420cfd1894054415df9d4c423" target="_top" xlink:title="str_byte">
<polygon fill="none" stroke="black" points="145,-152.5 145,-171.5 195,-171.5 195,-152.5 145,-152.5"/>
<text text-anchor="middle" x="170" y="-159.5" font-family="Helvetica,sans-Serif" font-size="10.00">str_byte</text>
</a>
</g>
</g>
<!-- Node1&#45;&gt;Node49 -->
<g id="edge58" class="edge"><title>Node1&#45;&gt;Node49</title>
<path fill="none" stroke="midnightblue" d="M44.4999,-502.945C51.4137,-437.316 76.2524,-230.348 119,-181 125.567,-173.42 135.492,-168.854 144.772,-166.108"/>
<polygon fill="midnightblue" stroke="midnightblue" points="40.9895,-502.867 43.4484,-513.173 47.9528,-503.583 40.9895,-502.867"/>
</g>
<!-- Node50 -->
<g id="node50" class="node"><title>Node50</title>
<g id="a_node50"><a xlink:href="../../dc/d77/lstrlib_8c.html#a357ce37478dde24252724e3c4c66ce11" target="_top" xlink:title="str_len">
<polygon fill="none" stroke="black" points="148,-114.5 148,-133.5 192,-133.5 192,-114.5 148,-114.5"/>
<text text-anchor="middle" x="170" y="-121.5" font-family="Helvetica,sans-Serif" font-size="10.00">str_len</text>
</a>
</g>
</g>
<!-- Node1&#45;&gt;Node50 -->
<g id="edge61" class="edge"><title>Node1&#45;&gt;Node50</title>
<path fill="none" stroke="midnightblue" d="M44.004,-503.033C49.6631,-432.844 71.8025,-198.677 119,-143 126.206,-134.5 137.642,-129.794 147.76,-127.192"/>
<polygon fill="midnightblue" stroke="midnightblue" points="40.5016,-502.93 43.2107,-513.172 47.4802,-503.476 40.5016,-502.93"/>
</g>
<!-- Node3 -->
<g id="node3" class="node"><title>Node3</title>
<g id="a_node3"><a xlink:href="../../de/df3/liolib_8c.html#a6a36f72d8b3966c1ebafab8a4791cb6c" target="_top" xlink:title="f_lines">
<polygon fill="none" stroke="black" points="276.5,-1026.5 276.5,-1045.5 319.5,-1045.5 319.5,-1026.5 276.5,-1026.5"/>
<text text-anchor="middle" x="298" y="-1033.5" font-family="Helvetica,sans-Serif" font-size="10.00">f_lines</text>
</a>
</g>
</g>
<!-- Node2&#45;&gt;Node3 -->
<g id="edge2" class="edge"><title>Node2&#45;&gt;Node3</title>
<path fill="none" stroke="midnightblue" d="M208.464,-1009.3C230.717,-1016.01 258.085,-1024.26 276.451,-1029.8"/>
<polygon fill="midnightblue" stroke="midnightblue" points="209.236,-1005.88 198.651,-1006.34 207.215,-1012.58 209.236,-1005.88"/>
</g>
<!-- Node4 -->
<g id="node4" class="node"><title>Node4</title>
<g id="a_node4"><a xlink:href="../../de/df3/liolib_8c.html#ab08031b51605d4ef676ec33a3b96a286" target="_top" xlink:title="io_lines">
<polygon fill="none" stroke="black" points="274.5,-988.5 274.5,-1007.5 321.5,-1007.5 321.5,-988.5 274.5,-988.5"/>
<text text-anchor="middle" x="298" y="-995.5" font-family="Helvetica,sans-Serif" font-size="10.00">io_lines</text>
</a>
</g>
</g>
<!-- Node2&#45;&gt;Node4 -->
<g id="edge3" class="edge"><title>Node2&#45;&gt;Node4</title>
<path fill="none" stroke="midnightblue" d="M208.732,-998C230.142,-998 256.219,-998 274.457,-998"/>
<polygon fill="midnightblue" stroke="midnightblue" points="208.651,-994.5 198.651,-998 208.651,-1001.5 208.651,-994.5"/>
</g>
<!-- Node7&#45;&gt;Node6 -->
<g id="edge7" class="edge"><title>Node7&#45;&gt;Node6</title>
<path fill="none" stroke="midnightblue" d="M454.164,-854.553C464.774,-856.631 475.696,-858.77 484.872,-860.568"/>
<polygon fill="midnightblue" stroke="midnightblue" points="454.64,-851.08 444.154,-852.592 453.294,-857.949 454.64,-851.08"/>
</g>
<!-- Node8&#45;&gt;Node5 -->
<g id="edge10" class="edge"><title>Node8&#45;&gt;Node5</title>
<path fill="none" stroke="midnightblue" d="M199.428,-930.573C218.955,-936.463 244.901,-944.288 265.129,-950.388"/>
<polygon fill="midnightblue" stroke="midnightblue" points="200.176,-927.144 189.592,-927.607 198.155,-933.845 200.176,-927.144"/>
</g>
<!-- Node9 -->
<g id="node9" class="node"><title>Node9</title>
<g id="a_node9"><a xlink:href="../../d8/d97/ldblib_8c.html#aa0c362d361f8f9bd8a002c34c393e2b0" target="_top" xlink:title="db_sethook">
<polygon fill="none" stroke="black" points="265,-912.5 265,-931.5 331,-931.5 331,-912.5 265,-912.5"/>
<text text-anchor="middle" x="298" y="-919.5" font-family="Helvetica,sans-Serif" font-size="10.00">db_sethook</text>
</a>
</g>
</g>
<!-- Node8&#45;&gt;Node9 -->
<g id="edge9" class="edge"><title>Node8&#45;&gt;Node9</title>
<path fill="none" stroke="midnightblue" d="M199.623,-922C218.969,-922 244.547,-922 264.634,-922"/>
<polygon fill="midnightblue" stroke="midnightblue" points="199.592,-918.5 189.592,-922 199.592,-925.5 199.592,-918.5"/>
</g>
<!-- Node11 -->
<g id="node11" class="node"><title>Node11</title>
<g id="a_node11"><a xlink:href="../../d8/dd3/lbaselib_8c.html#a5cb8b3b13437afd94c3313f0a4b17d06" target="_top" xlink:title="luaB_ipairs">
<polygon fill="none" stroke="black" points="266,-608.5 266,-627.5 330,-627.5 330,-608.5 266,-608.5"/>
<text text-anchor="middle" x="298" y="-615.5" font-family="Helvetica,sans-Serif" font-size="10.00">luaB_ipairs</text>
</a>
</g>
</g>
<!-- Node10&#45;&gt;Node11 -->
<g id="edge12" class="edge"><title>Node10&#45;&gt;Node11</title>
<path fill="none" stroke="midnightblue" d="M208.044,-618C226.318,-618 248.122,-618 265.569,-618"/>
<polygon fill="midnightblue" stroke="midnightblue" points="208.03,-614.5 198.03,-618 208.03,-621.5 208.03,-614.5"/>
</g>
<!-- Node16 -->
<g id="node16" class="node"><title>Node16</title>
<g id="a_node16"><a xlink:href="../../de/df3/liolib_8c.html#ac885ae15fd14fc88058b0b8c1cf2b1d9" target="_top" xlink:title="io_pclose">
<polygon fill="none" stroke="black" points="381.5,-228.5 381.5,-247.5 437.5,-247.5 437.5,-228.5 381.5,-228.5"/>
<text text-anchor="middle" x="409.5" y="-235.5" font-family="Helvetica,sans-Serif" font-size="10.00">io_pclose</text>
</a>
</g>
</g>
<!-- Node15&#45;&gt;Node16 -->
<g id="edge17" class="edge"><title>Node15&#45;&gt;Node16</title>
<path fill="none" stroke="midnightblue" d="M334.311,-101.06C335.97,-102.288 337.546,-103.6 339,-105 377.29,-141.859 398.688,-204.43 405.802,-228.329"/>
<polygon fill="midnightblue" stroke="midnightblue" points="335.865,-97.9049 325.523,-95.6044 332.173,-103.852 335.865,-97.9049"/>
</g>
<!-- Node18 -->
<g id="node18" class="node"><title>Node18</title>
<g id="a_node18"><a xlink:href="../../dc/dba/loslib_8c.html#a2da7b72413e7abbb84043eeb7988ba36" target="_top" xlink:title="os_execute">
<polygon fill="none" stroke="black" points="377,-76.5 377,-95.5 442,-95.5 442,-76.5 377,-76.5"/>
<text text-anchor="middle" x="409.5" y="-83.5" font-family="Helvetica,sans-Serif" font-size="10.00">os_execute</text>
</a>
</g>
</g>
<!-- Node15&#45;&gt;Node18 -->
<g id="edge19" class="edge"><title>Node15&#45;&gt;Node18</title>
<path fill="none" stroke="midnightblue" d="M349.251,-86C358.672,-86 368.272,-86 376.924,-86"/>
<polygon fill="midnightblue" stroke="midnightblue" points="349.152,-82.5001 339.152,-86 349.152,-89.5001 349.152,-82.5001"/>
</g>
<!-- Node17 -->
<g id="node17" class="node"><title>Node17</title>
<g id="a_node17"><a xlink:href="../../de/df3/liolib_8c.html#a8cc0b2b08409fb97e5cc80a0caf9b5fd" target="_top" xlink:title="io_popen">
<polygon fill="none" stroke="black" points="480.5,-304.5 480.5,-323.5 536.5,-323.5 536.5,-304.5 480.5,-304.5"/>
<text text-anchor="middle" x="508.5" y="-311.5" font-family="Helvetica,sans-Serif" font-size="10.00">io_popen</text>
</a>
</g>
</g>
<!-- Node16&#45;&gt;Node17 -->
<g id="edge18" class="edge"><title>Node16&#45;&gt;Node17</title>
<path fill="none" stroke="midnightblue" d="M430.758,-253.872C450.26,-269.152 479.113,-291.759 495.315,-304.453"/>
<polygon fill="midnightblue" stroke="midnightblue" points="432.815,-251.038 422.785,-247.625 428.498,-256.548 432.815,-251.038"/>
</g>
<!-- Node19&#45;&gt;Node15 -->
<g id="edge21" class="edge"><title>Node19&#45;&gt;Node15</title>
<path fill="none" stroke="midnightblue" d="M211.766,-413.143C215.296,-410.548 218.477,-407.523 221,-404 298.94,-295.184 178.839,-213.657 257,-105 259.783,-101.131 263.565,-98.0209 267.698,-95.53"/>
<polygon fill="midnightblue" stroke="midnightblue" points="209.77,-410.261 203.043,-418.446 213.406,-416.242 209.77,-410.261"/>
</g>
<!-- Node19&#45;&gt;Node17 -->
<g id="edge27" class="edge"><title>Node19&#45;&gt;Node17</title>
<path fill="none" stroke="midnightblue" d="M208.643,-415.247C277.052,-392.072 420.223,-343.568 480.176,-323.257"/>
<polygon fill="midnightblue" stroke="midnightblue" points="207.459,-411.953 199.111,-418.477 209.705,-418.583 207.459,-411.953"/>
</g>
<!-- Node20 -->
<g id="node20" class="node"><title>Node20</title>
<g id="a_node20"><a xlink:href="../../de/df3/liolib_8c.html#a693d26c59aa9f6a298ac288cb1a5c38d" target="_top" xlink:title="io_fclose">
<polygon fill="none" stroke="black" points="271.5,-456.5 271.5,-475.5 324.5,-475.5 324.5,-456.5 271.5,-456.5"/>
<text text-anchor="middle" x="298" y="-463.5" font-family="Helvetica,sans-Serif" font-size="10.00">io_fclose</text>
</a>
</g>
</g>
<!-- Node19&#45;&gt;Node20 -->
<g id="edge22" class="edge"><title>Node19&#45;&gt;Node20</title>
<path fill="none" stroke="midnightblue" d="M212.579,-440.54C231.908,-446.369 254.29,-453.119 271.15,-458.204"/>
<polygon fill="midnightblue" stroke="midnightblue" points="213.38,-437.126 202.795,-437.589 211.359,-443.827 213.38,-437.126"/>
</g>
<!-- Node22 -->
<g id="node22" class="node"><title>Node22</title>
<g id="a_node22"><a xlink:href="../../de/df3/liolib_8c.html#ab4a969d43dbe0f89e98307e5b421f8a7" target="_top" xlink:title="io_open">
<polygon fill="none" stroke="black" points="483.5,-427.5 483.5,-446.5 533.5,-446.5 533.5,-427.5 483.5,-427.5"/>
<text text-anchor="middle" x="508.5" y="-434.5" font-family="Helvetica,sans-Serif" font-size="10.00">io_open</text>
</a>
</g>
</g>
<!-- Node19&#45;&gt;Node22 -->
<g id="edge26" class="edge"><title>Node19&#45;&gt;Node22</title>
<path fill="none" stroke="midnightblue" d="M216.213,-429.209C288.438,-431.141 427.39,-434.857 483.311,-436.353"/>
<polygon fill="midnightblue" stroke="midnightblue" points="216.149,-425.706 206.059,-428.938 215.962,-432.704 216.149,-425.706"/>
</g>
<!-- Node23 -->
<g id="node23" class="node"><title>Node23</title>
<g id="a_node23"><a xlink:href="../../de/df3/liolib_8c.html#a0347de9dda8be02044075c96482eddb3" target="_top" xlink:title="io_tmpfile">
<polygon fill="none" stroke="black" points="481,-475.5 481,-494.5 536,-494.5 536,-475.5 481,-475.5"/>
<text text-anchor="middle" x="508.5" y="-482.5" font-family="Helvetica,sans-Serif" font-size="10.00">io_tmpfile</text>
</a>
</g>
</g>
<!-- Node19&#45;&gt;Node23 -->
<g id="edge28" class="edge"><title>Node19&#45;&gt;Node23</title>
<path fill="none" stroke="midnightblue" d="M211.859,-441.725C215.043,-443.331 218.131,-445.088 221,-447 240.36,-459.901 235.629,-475.808 257,-485 332.706,-517.564 433.593,-501.918 480.898,-491.592"/>
<polygon fill="midnightblue" stroke="midnightblue" points="213.29,-438.531 202.736,-437.591 210.4,-444.906 213.29,-438.531"/>
</g>
<!-- Node24 -->
<g id="node24" class="node"><title>Node24</title>
<g id="a_node24"><a xlink:href="../../de/df3/liolib_8c.html#addece2406777a40f0f591e3518293932" target="_top" xlink:title="g_read">
<polygon fill="none" stroke="red" points="275,-342.5 275,-361.5 321,-361.5 321,-342.5 275,-342.5"/>
<text text-anchor="middle" x="298" y="-349.5" font-family="Helvetica,sans-Serif" font-size="10.00">g_read</text>
</a>
</g>
</g>
<!-- Node19&#45;&gt;Node24 -->
<g id="edge29" class="edge"><title>Node19&#45;&gt;Node24</title>
<path fill="none" stroke="midnightblue" d="M202.869,-413.963C209.013,-410.907 215.305,-407.525 221,-404 238.235,-393.331 240.279,-387.457 257,-376 264.349,-370.965 272.767,-365.825 279.98,-361.601"/>
<polygon fill="midnightblue" stroke="midnightblue" points="200.955,-410.998 193.443,-418.47 203.975,-417.313 200.955,-410.998"/>
</g>
<!-- Node25 -->
<g id="node25" class="node"><title>Node25</title>
<g id="a_node25"><a xlink:href="../../de/df3/liolib_8c.html#a88c73a30c7d135dfb4958b7bfaa90cc7" target="_top" xlink:title="g_write">
<polygon fill="none" stroke="red" points="274.5,-304.5 274.5,-323.5 321.5,-323.5 321.5,-304.5 274.5,-304.5"/>
<text text-anchor="middle" x="298" y="-311.5" font-family="Helvetica,sans-Serif" font-size="10.00">g_write</text>
</a>
</g>
</g>
<!-- Node19&#45;&gt;Node25 -->
<g id="edge30" class="edge"><title>Node19&#45;&gt;Node25</title>
<path fill="none" stroke="midnightblue" d="M208.107,-413.674C212.774,-410.906 217.226,-407.693 221,-404 246.288,-379.256 231.662,-357.693 257,-333 261.845,-328.278 268.086,-324.558 274.19,-321.708"/>
<polygon fill="midnightblue" stroke="midnightblue" points="206.22,-410.711 198.993,-418.458 209.474,-416.909 206.22,-410.711"/>
</g>
<!-- Node26 -->
<g id="node26" class="node"><title>Node26</title>
<g id="a_node26"><a xlink:href="../../de/df3/liolib_8c.html#ace5e1a23cc9e2ffe7ae6cc523e54de73" target="_top" xlink:title="f_seek">
<polygon fill="none" stroke="black" points="276,-266.5 276,-285.5 320,-285.5 320,-266.5 276,-266.5"/>
<text text-anchor="middle" x="298" y="-273.5" font-family="Helvetica,sans-Serif" font-size="10.00">f_seek</text>
</a>
</g>
</g>
<!-- Node19&#45;&gt;Node26 -->
<g id="edge31" class="edge"><title>Node19&#45;&gt;Node26</title>
<path fill="none" stroke="midnightblue" d="M209.732,-413.488C213.905,-410.793 217.792,-407.65 221,-404 254.684,-365.682 223.238,-333.249 257,-295 261.986,-289.351 269.016,-285.243 275.795,-282.324"/>
<polygon fill="midnightblue" stroke="midnightblue" points="207.927,-410.487 200.891,-418.409 211.331,-416.604 207.927,-410.487"/>
</g>
<!-- Node27 -->
<g id="node27" class="node"><title>Node27</title>
<g id="a_node27"><a xlink:href="../../de/df3/liolib_8c.html#aa7d559e7d43a6133ec495d6b4e5d68f2" target="_top" xlink:title="f_setvbuf">
<polygon fill="none" stroke="black" points="270,-228.5 270,-247.5 326,-247.5 326,-228.5 270,-228.5"/>
<text text-anchor="middle" x="298" y="-235.5" font-family="Helvetica,sans-Serif" font-size="10.00">f_setvbuf</text>
</a>
</g>
</g>
<!-- Node19&#45;&gt;Node27 -->
<g id="edge32" class="edge"><title>Node19&#45;&gt;Node27</title>
<path fill="none" stroke="midnightblue" d="M210.622,-413.32C214.512,-410.674 218.089,-407.588 221,-404 263.385,-351.77 214.509,-309.143 257,-257 260.4,-252.828 264.931,-249.517 269.721,-246.908"/>
<polygon fill="midnightblue" stroke="midnightblue" points="208.66,-410.411 201.741,-418.435 212.153,-416.477 208.66,-410.411"/>
</g>
<!-- Node28 -->
<g id="node28" class="node"><title>Node28</title>
<g id="a_node28"><a xlink:href="../../de/df3/liolib_8c.html#a2f93672e01db50e1e5361f5f01c71bd6" target="_top" xlink:title="io_flush">
<polygon fill="none" stroke="black" points="274,-190.5 274,-209.5 322,-209.5 322,-190.5 274,-190.5"/>
<text text-anchor="middle" x="298" y="-197.5" font-family="Helvetica,sans-Serif" font-size="10.00">io_flush</text>
</a>
</g>
</g>
<!-- Node19&#45;&gt;Node28 -->
<g id="edge33" class="edge"><title>Node19&#45;&gt;Node28</title>
<path fill="none" stroke="midnightblue" d="M210.933,-413.359C214.738,-410.71 218.21,-407.612 221,-404 272.207,-337.711 205.658,-285.185 257,-219 261.241,-213.533 267.444,-209.561 273.705,-206.71"/>
<polygon fill="midnightblue" stroke="midnightblue" points="209.067,-410.396 202.207,-418.47 212.605,-416.436 209.067,-410.396"/>
</g>
<!-- Node29 -->
<g id="node29" class="node"><title>Node29</title>
<g id="a_node29"><a xlink:href="../../de/df3/liolib_8c.html#ad45f522bd561c05889799a66d9ffdb33" target="_top" xlink:title="f_flush">
<polygon fill="none" stroke="black" points="276,-152.5 276,-171.5 320,-171.5 320,-152.5 276,-152.5"/>
<text text-anchor="middle" x="298" y="-159.5" font-family="Helvetica,sans-Serif" font-size="10.00">f_flush</text>
</a>
</g>
</g>
<!-- Node19&#45;&gt;Node29 -->
<g id="edge34" class="edge"><title>Node19&#45;&gt;Node29</title>
<path fill="none" stroke="midnightblue" d="M211.489,-413.135C215.099,-410.538 218.374,-407.515 221,-404 281.089,-323.574 196.747,-261.303 257,-181 261.614,-174.85 268.727,-170.606 275.682,-167.717"/>
<polygon fill="midnightblue" stroke="midnightblue" points="209.392,-410.31 202.606,-418.447 212.985,-416.318 209.392,-410.31"/>
</g>
<!-- Node30 -->
<g id="node30" class="node"><title>Node30</title>
<g id="a_node30"><a xlink:href="../../dc/dba/loslib_8c.html#aff1386a6722ad488ced309e2fcdebe13" target="_top" xlink:title="os_remove">
<polygon fill="none" stroke="black" points="266.5,-114.5 266.5,-133.5 329.5,-133.5 329.5,-114.5 266.5,-114.5"/>
<text text-anchor="middle" x="298" y="-121.5" font-family="Helvetica,sans-Serif" font-size="10.00">os_remove</text>
</a>
</g>
</g>
<!-- Node19&#45;&gt;Node30 -->
<g id="edge35" class="edge"><title>Node19&#45;&gt;Node30</title>
<path fill="none" stroke="midnightblue" d="M211.705,-413.098C215.246,-410.512 218.447,-407.501 221,-404 290.004,-309.393 187.804,-237.466 257,-143 259.817,-139.155 263.615,-136.057 267.755,-133.572"/>
<polygon fill="midnightblue" stroke="midnightblue" points="209.707,-410.217 202.967,-418.391 213.333,-416.204 209.707,-410.217"/>
</g>
<!-- Node31 -->
<g id="node31" class="node"><title>Node31</title>
<g id="a_node31"><a xlink:href="../../dc/dba/loslib_8c.html#a9e0e5e5a06a8a1aa797e15034070b405" target="_top" xlink:title="os_rename">
<polygon fill="none" stroke="black" points="266,-532.5 266,-551.5 330,-551.5 330,-532.5 266,-532.5"/>
<text text-anchor="middle" x="298" y="-539.5" font-family="Helvetica,sans-Serif" font-size="10.00">os_rename</text>
</a>
</g>
</g>
<!-- Node19&#45;&gt;Node31 -->
<g id="edge36" class="edge"><title>Node19&#45;&gt;Node31</title>
<path fill="none" stroke="midnightblue" d="M215.402,-442.671C217.38,-443.996 219.261,-445.436 221,-447 247.309,-470.656 232.888,-492.108 257,-518 262.409,-523.808 269.538,-528.686 276.279,-532.496"/>
<polygon fill="midnightblue" stroke="midnightblue" points="216.685,-439.379 206.246,-437.564 213.275,-445.492 216.685,-439.379"/>
</g>
<!-- Node21 -->
<g id="node21" class="node"><title>Node21</title>
<g id="a_node21"><a xlink:href="../../de/df3/liolib_8c.html#a57c6c258a611b738f0ef34584ca6e7ab" target="_top" xlink:title="newfile">
<polygon fill="none" stroke="red" points="386.5,-456.5 386.5,-475.5 432.5,-475.5 432.5,-456.5 386.5,-456.5"/>
<text text-anchor="middle" x="409.5" y="-463.5" font-family="Helvetica,sans-Serif" font-size="10.00">newfile</text>
</a>
</g>
</g>
<!-- Node20&#45;&gt;Node21 -->
<g id="edge23" class="edge"><title>Node20&#45;&gt;Node21</title>
<path fill="none" stroke="midnightblue" d="M334.817,-466C351.796,-466 371.544,-466 386.32,-466"/>
<polygon fill="midnightblue" stroke="midnightblue" points="334.673,-462.5 324.673,-466 334.673,-469.5 334.673,-462.5"/>
</g>
<!-- Node21&#45;&gt;Node22 -->
<g id="edge24" class="edge"><title>Node21&#45;&gt;Node22</title>
<path fill="none" stroke="midnightblue" d="M442.24,-456.511C455.555,-452.53 470.792,-447.974 483.193,-444.267"/>
<polygon fill="midnightblue" stroke="midnightblue" points="441.089,-453.202 432.511,-459.419 443.094,-459.908 441.089,-453.202"/>
</g>
<!-- Node21&#45;&gt;Node23 -->
<g id="edge25" class="edge"><title>Node21&#45;&gt;Node23</title>
<path fill="none" stroke="midnightblue" d="M442.455,-472.259C454.851,-474.687 468.886,-477.436 480.738,-479.758"/>
<polygon fill="midnightblue" stroke="midnightblue" points="442.997,-468.799 432.511,-470.311 441.652,-475.668 442.997,-468.799"/>
</g>
<!-- Node35&#45;&gt;Node11 -->
<g id="edge42" class="edge"><title>Node35&#45;&gt;Node11</title>
<path fill="none" stroke="midnightblue" d="M209.278,-591.544C227.4,-597.01 248.766,-603.453 265.874,-608.613"/>
<polygon fill="midnightblue" stroke="midnightblue" points="210.176,-588.159 199.591,-588.623 208.155,-594.861 210.176,-588.159"/>
</g>
<!-- Node36 -->
<g id="node36" class="node"><title>Node36</title>
<g id="a_node36"><a xlink:href="../../d8/dd3/lbaselib_8c.html#a36def102f87ba8c40734489231e90109" target="_top" xlink:title="luaB_pairs">
<polygon fill="none" stroke="black" points="267,-570.5 267,-589.5 329,-589.5 329,-570.5 267,-570.5"/>
<text text-anchor="middle" x="298" y="-577.5" font-family="Helvetica,sans-Serif" font-size="10.00">luaB_pairs</text>
</a>
</g>
</g>
<!-- Node35&#45;&gt;Node36 -->
<g id="edge41" class="edge"><title>Node35&#45;&gt;Node36</title>
<path fill="none" stroke="midnightblue" d="M209.682,-580C228.034,-580 249.637,-580 266.765,-580"/>
<polygon fill="midnightblue" stroke="midnightblue" points="209.591,-576.5 199.591,-580 209.591,-583.5 209.591,-576.5"/>
</g>
<!-- Node38 -->
<g id="node38" class="node"><title>Node38</title>
<g id="a_node38"><a xlink:href="../../dc/d77/lstrlib_8c.html#ad14703c4bc40d7c1951dedb7bc7554f7" target="_top" xlink:title="push_captures">
<polygon fill="none" stroke="black" points="258,-798.5 258,-817.5 338,-817.5 338,-798.5 258,-798.5"/>
<text text-anchor="middle" x="298" y="-805.5" font-family="Helvetica,sans-Serif" font-size="10.00">push_captures</text>
</a>
</g>
</g>
<!-- Node37&#45;&gt;Node38 -->
<g id="edge44" class="edge"><title>Node37&#45;&gt;Node38</title>
<path fill="none" stroke="midnightblue" d="M201.411,-764.757C224.433,-775.172 255.466,-789.211 275.842,-798.428"/>
<polygon fill="midnightblue" stroke="midnightblue" points="202.643,-761.473 192.09,-760.541 199.758,-767.851 202.643,-761.473"/>
</g>
<!-- Node42 -->
<g id="node42" class="node"><title>Node42</title>
<g id="a_node42"><a xlink:href="../../dc/d77/lstrlib_8c.html#ad24cfa73e5ad25ec99a1b48f0916471e" target="_top" xlink:title="add_value">
<polygon fill="none" stroke="black" points="378.5,-741.5 378.5,-760.5 440.5,-760.5 440.5,-741.5 378.5,-741.5"/>
<text text-anchor="middle" x="409.5" y="-748.5" font-family="Helvetica,sans-Serif" font-size="10.00">add_value</text>
</a>
</g>
</g>
<!-- Node37&#45;&gt;Node42 -->
<g id="edge53" class="edge"><title>Node37&#45;&gt;Node42</title>
<path fill="none" stroke="midnightblue" d="M225.778,-751C273.199,-751 340.021,-751 378.334,-751"/>
<polygon fill="midnightblue" stroke="midnightblue" points="225.672,-747.5 215.672,-751 225.672,-754.5 225.672,-747.5"/>
</g>
<!-- Node44 -->
<g id="node44" class="node"><title>Node44</title>
<g id="a_node44"><a xlink:href="../../dc/d77/lstrlib_8c.html#ad5f7e3fbcadc8825f7f650ecf458fc72" target="_top" xlink:title="add_s">
<polygon fill="none" stroke="black" points="276,-722.5 276,-741.5 320,-741.5 320,-722.5 276,-722.5"/>
<text text-anchor="middle" x="298" y="-729.5" font-family="Helvetica,sans-Serif" font-size="10.00">add_s</text>
</a>
</g>
</g>
<!-- Node37&#45;&gt;Node44 -->
<g id="edge51" class="edge"><title>Node37&#45;&gt;Node44</title>
<path fill="none" stroke="midnightblue" d="M225.987,-742.708C243.563,-740.058 261.986,-737.28 275.661,-735.218"/>
<polygon fill="midnightblue" stroke="midnightblue" points="225.144,-739.296 215.778,-744.248 226.188,-746.218 225.144,-739.296"/>
</g>
<!-- Node38&#45;&gt;Node7 -->
<g id="edge48" class="edge"><title>Node38&#45;&gt;Node7</title>
<path fill="none" stroke="midnightblue" d="M336.379,-820.972C350.968,-826.034 367.392,-831.734 380.877,-836.414"/>
<polygon fill="midnightblue" stroke="midnightblue" points="337.226,-817.561 326.631,-817.589 334.931,-824.174 337.226,-817.561"/>
</g>
<!-- Node38&#45;&gt;Node39 -->
<g id="edge45" class="edge"><title>Node38&#45;&gt;Node39</title>
<path fill="none" stroke="midnightblue" d="M311.988,-789.971C335.365,-757.52 383.758,-690.345 401.653,-665.505"/>
<polygon fill="midnightblue" stroke="midnightblue" points="308.855,-788.332 305.85,-798.492 314.535,-792.424 308.855,-788.332"/>
</g>
<!-- Node38&#45;&gt;Node42 -->
<g id="edge49" class="edge"><title>Node38&#45;&gt;Node42</title>
<path fill="none" stroke="midnightblue" d="M326.493,-793.688C346.417,-783.317 372.805,-769.581 390.199,-760.526"/>
<polygon fill="midnightblue" stroke="midnightblue" points="324.829,-790.609 317.575,-798.331 328.061,-796.818 324.829,-790.609"/>
</g>
<!-- Node40 -->
<g id="node40" class="node"><title>Node40</title>
<g id="a_node40"><a xlink:href="../../dc/d77/lstrlib_8c.html#a362a4bc9ba81ce87253cc3d74f015808" target="_top" xlink:title="str_find">
<polygon fill="none" stroke="black" points="485.5,-617.5 485.5,-636.5 531.5,-636.5 531.5,-617.5 485.5,-617.5"/>
<text text-anchor="middle" x="508.5" y="-624.5" font-family="Helvetica,sans-Serif" font-size="10.00">str_find</text>
</a>
</g>
</g>
<!-- Node39&#45;&gt;Node40 -->
<g id="edge46" class="edge"><title>Node39&#45;&gt;Node40</title>
<path fill="none" stroke="midnightblue" d="M452.314,-643.499C463.666,-640.105 475.516,-636.562 485.312,-633.634"/>
<polygon fill="midnightblue" stroke="midnightblue" points="451.109,-640.206 442.53,-646.424 453.114,-646.913 451.109,-640.206"/>
</g>
<!-- Node41 -->
<g id="node41" class="node"><title>Node41</title>
<g id="a_node41"><a xlink:href="../../dc/d77/lstrlib_8c.html#a4b605e43b8f5738db9eae902bbc00f00" target="_top" xlink:title="str_match">
<polygon fill="none" stroke="black" points="480,-655.5 480,-674.5 537,-674.5 537,-655.5 480,-655.5"/>
<text text-anchor="middle" x="508.5" y="-662.5" font-family="Helvetica,sans-Serif" font-size="10.00">str_match</text>
</a>
</g>
</g>
<!-- Node39&#45;&gt;Node41 -->
<g id="edge47" class="edge"><title>Node39&#45;&gt;Node41</title>
<path fill="none" stroke="midnightblue" d="M453.769,-660.015C462.573,-660.832 471.61,-661.67 479.701,-662.421"/>
<polygon fill="midnightblue" stroke="midnightblue" points="453.891,-656.511 443.611,-659.072 453.244,-663.481 453.891,-656.511"/>
</g>
<!-- Node42&#45;&gt;Node43 -->
<g id="edge50" class="edge"><title>Node42&#45;&gt;Node43</title>
<path fill="none" stroke="midnightblue" d="M444.36,-737.735C457.094,-732.747 471.314,-727.176 483.031,-722.586"/>
<polygon fill="midnightblue" stroke="midnightblue" points="443.012,-734.504 434.977,-741.411 445.565,-741.022 443.012,-734.504"/>
</g>
<!-- Node44&#45;&gt;Node42 -->
<g id="edge52" class="edge"><title>Node44&#45;&gt;Node42</title>
<path fill="none" stroke="midnightblue" d="M330.041,-737.386C345.182,-740.013 363.322,-743.161 378.343,-745.767"/>
<polygon fill="midnightblue" stroke="midnightblue" points="330.564,-733.925 320.113,-735.663 329.367,-740.822 330.564,-733.925"/>
</g>
<!-- Node46 -->
<g id="node46" class="node"><title>Node46</title>
<g id="a_node46"><a xlink:href="../../dc/dba/loslib_8c.html#a6520f2562b500aee87a6a475995adefb" target="_top" xlink:title="os_date">
<polygon fill="none" stroke="black" points="272.5,-38.5 272.5,-57.5 323.5,-57.5 323.5,-38.5 272.5,-38.5"/>
<text text-anchor="middle" x="298" y="-45.5" font-family="Helvetica,sans-Serif" font-size="10.00">os_date</text>
</a>
</g>
</g>
<!-- Node45&#45;&gt;Node46 -->
<g id="edge55" class="edge"><title>Node45&#45;&gt;Node46</title>
<path fill="none" stroke="midnightblue" d="M202.164,-231.443C209.192,-228.645 216.032,-224.663 221,-219 266.783,-166.811 213.349,-120.985 257,-67 260.964,-62.0978 266.492,-58.3867 272.176,-55.6066"/>
<polygon fill="midnightblue" stroke="midnightblue" points="201.036,-228.129 192.624,-234.57 203.217,-234.781 201.036,-228.129"/>
</g>
<!-- Node48 -->
<g id="node48" class="node"><title>Node48</title>
<g id="a_node48"><a xlink:href="../../d8/d97/ldblib_8c.html#a4eb57e66c2efb2d31c9b9e1b01d27e13" target="_top" xlink:title="db_getinfo">
<polygon fill="none" stroke="black" points="268,-0.5 268,-19.5 328,-19.5 328,-0.5 268,-0.5"/>
<text text-anchor="middle" x="298" y="-7.5" font-family="Helvetica,sans-Serif" font-size="10.00">db_getinfo</text>
</a>
</g>
</g>
<!-- Node47&#45;&gt;Node48 -->
<g id="edge57" class="edge"><title>Node47&#45;&gt;Node48</title>
<path fill="none" stroke="midnightblue" d="M204.816,-192.324C210.89,-189.612 216.66,-185.948 221,-181 266.783,-128.811 213.349,-82.9846 257,-29 260.094,-25.1739 264.141,-22.0734 268.471,-19.5747"/>
<polygon fill="midnightblue" stroke="midnightblue" points="203.368,-189.127 195.18,-195.851 205.774,-195.701 203.368,-189.127"/>
</g>
</g>
</svg>
