<?xml version="1.0" encoding="UTF-8" standalone="no"?>
<!DOCTYPE svg PUBLIC "-//W3C//DTD SVG 1.1//EN"
 "http://www.w3.org/Graphics/SVG/1.1/DTD/svg11.dtd">
<!-- Generated by graphviz version 2.38.0 (20140413.2041)
 -->
<!-- Title: lua_setfield Pages: 1 -->
<svg width="1029pt" height="893pt"
 viewBox="0.00 0.00 1029.00 893.00" xmlns="http://www.w3.org/2000/svg" xmlns:xlink="http://www.w3.org/1999/xlink">
<g id="graph0" class="graph" transform="scale(1 1) rotate(0) translate(4 889)">
<title>lua_setfield</title>
<!-- Node1 -->
<g id="node1" class="node"><title>Node1</title>
<polygon fill="#bfbfbf" stroke="black" points="0,-437.5 0,-456.5 63,-456.5 63,-437.5 0,-437.5"/>
<text text-anchor="middle" x="31.5" y="-444.5" font-family="Helvetica,sans-Serif" font-size="10.00">lua_setfield</text>
</g>
<!-- Node2 -->
<g id="node2" class="node"><title>Node2</title>
<g id="a_node2"><a xlink:href="../../de/df3/liolib_8c.html#a2edb7e84ca2f51dafb5d77b9c81a804c" target="_top" xlink:title="createmeta">
<polygon fill="none" stroke="black" points="244,-808.5 244,-827.5 307,-827.5 307,-808.5 244,-808.5"/>
<text text-anchor="middle" x="275.5" y="-815.5" font-family="Helvetica,sans-Serif" font-size="10.00">createmeta</text>
</a>
</g>
</g>
<!-- Node1&#45;&gt;Node2 -->
<g id="edge1" class="edge"><title>Node1&#45;&gt;Node2</title>
<path fill="none" stroke="midnightblue" d="M32.7781,-467.121C34.2334,-538.837 43.2615,-780.169 99,-827 142.68,-863.7 216.191,-841.981 252.644,-827.607"/>
<polygon fill="midnightblue" stroke="midnightblue" points="36.2718,-466.721 32.5987,-456.783 29.2728,-466.843 36.2718,-466.721"/>
</g>
<!-- Node4 -->
<g id="node4" class="node"><title>Node4</title>
<g id="a_node4"><a xlink:href="../../dc/d77/lstrlib_8c.html#a16d034da6b46e6beae228472f26ec07b" target="_top" xlink:title="createmetatable">
<polygon fill="none" stroke="black" points="107.5,-418.5 107.5,-437.5 191.5,-437.5 191.5,-418.5 107.5,-418.5"/>
<text text-anchor="middle" x="149.5" y="-425.5" font-family="Helvetica,sans-Serif" font-size="10.00">createmetatable</text>
</a>
</g>
</g>
<!-- Node1&#45;&gt;Node4 -->
<g id="edge3" class="edge"><title>Node1&#45;&gt;Node4</title>
<path fill="none" stroke="midnightblue" d="M73.4204,-440.298C84.3384,-438.509 96.1429,-436.576 107.087,-434.783"/>
<polygon fill="midnightblue" stroke="midnightblue" points="72.5841,-436.888 63.2813,-441.958 73.7156,-443.796 72.5841,-436.888"/>
</g>
<!-- Node6 -->
<g id="node6" class="node"><title>Node6</title>
<g id="a_node6"><a xlink:href="../../de/df3/liolib_8c.html#a0a80ad2f9dbb3b7238efae7738bb7569" target="_top" xlink:title="createstdfile">
<polygon fill="none" stroke="black" points="243,-865.5 243,-884.5 308,-884.5 308,-865.5 243,-865.5"/>
<text text-anchor="middle" x="275.5" y="-872.5" font-family="Helvetica,sans-Serif" font-size="10.00">createstdfile</text>
</a>
</g>
</g>
<!-- Node1&#45;&gt;Node6 -->
<g id="edge5" class="edge"><title>Node1&#45;&gt;Node6</title>
<path fill="none" stroke="midnightblue" d="M32.7742,-466.683C34.2258,-540.132 43.2699,-796.767 99,-851 137.018,-887.996 203.485,-886.031 242.801,-880.814"/>
<polygon fill="midnightblue" stroke="midnightblue" points="36.2711,-466.465 32.6004,-456.526 29.2721,-466.585 36.2711,-466.465"/>
</g>
<!-- Node7 -->
<g id="node7" class="node"><title>Node7</title>
<g id="a_node7"><a xlink:href="../../d8/d97/ldblib_8c.html#aa0c362d361f8f9bd8a002c34c393e2b0" target="_top" xlink:title="db_sethook">
<polygon fill="none" stroke="black" points="116.5,-380.5 116.5,-399.5 182.5,-399.5 182.5,-380.5 116.5,-380.5"/>
<text text-anchor="middle" x="149.5" y="-387.5" font-family="Helvetica,sans-Serif" font-size="10.00">db_sethook</text>
</a>
</g>
</g>
<!-- Node1&#45;&gt;Node7 -->
<g id="edge7" class="edge"><title>Node1&#45;&gt;Node7</title>
<path fill="none" stroke="midnightblue" d="M56.5544,-432.071C68.9848,-424.662 84.5431,-415.856 99,-409 106.153,-405.608 114.086,-402.351 121.468,-399.52"/>
<polygon fill="midnightblue" stroke="midnightblue" points="54.4743,-429.238 47.7286,-437.408 58.0967,-435.228 54.4743,-429.238"/>
</g>
<!-- Node8 -->
<g id="node8" class="node"><title>Node8</title>
<g id="a_node8"><a xlink:href="../../de/df3/liolib_8c.html#aae942558ff528b4e1a483297c64e6886" target="_top" xlink:title="g_iofile">
<polygon fill="none" stroke="black" points="127.5,-342.5 127.5,-361.5 171.5,-361.5 171.5,-342.5 127.5,-342.5"/>
<text text-anchor="middle" x="149.5" y="-349.5" font-family="Helvetica,sans-Serif" font-size="10.00">g_iofile</text>
</a>
</g>
</g>
<!-- Node1&#45;&gt;Node8 -->
<g id="edge8" class="edge"><title>Node1&#45;&gt;Node8</title>
<path fill="none" stroke="midnightblue" d="M44.5302,-428.74C56.545,-411.747 76.4354,-386.745 99,-371 107.455,-365.1 117.986,-360.726 127.159,-357.672"/>
<polygon fill="midnightblue" stroke="midnightblue" points="41.4662,-427.019 38.6985,-437.246 47.2397,-430.977 41.4662,-427.019"/>
</g>
<!-- Node11 -->
<g id="node11" class="node"><title>Node11</title>
<g id="a_node11"><a xlink:href="../../d2/d82/loadlib_8c.html#a7a6ec2174d2de185431876163cd2d469" target="_top" xlink:title="ll_addtoclib">
<polygon fill="none" stroke="black" points="118.5,-760.5 118.5,-779.5 180.5,-779.5 180.5,-760.5 118.5,-760.5"/>
<text text-anchor="middle" x="149.5" y="-767.5" font-family="Helvetica,sans-Serif" font-size="10.00">ll_addtoclib</text>
</a>
</g>
</g>
<!-- Node1&#45;&gt;Node11 -->
<g id="edge11" class="edge"><title>Node1&#45;&gt;Node11</title>
<path fill="none" stroke="midnightblue" d="M34.3832,-466.735C40.5027,-527.051 61.623,-707.499 99,-751 104.039,-756.865 111.101,-760.926 118.315,-763.737"/>
<polygon fill="midnightblue" stroke="midnightblue" points="37.852,-466.246 33.3865,-456.638 30.8859,-466.934 37.852,-466.246"/>
</g>
<!-- Node17 -->
<g id="node17" class="node"><title>Node17</title>
<g id="a_node17"><a xlink:href="../../d6/d07/lualib_8h.html#a05e0befc0439f926b6152129ab4f8dea" target="_top" xlink:title="luaopen_package">
<polygon fill="none" stroke="black" points="765,-646.5 765,-665.5 859,-665.5 859,-646.5 765,-646.5"/>
<text text-anchor="middle" x="812" y="-653.5" font-family="Helvetica,sans-Serif" font-size="10.00">luaopen_package</text>
</a>
</g>
</g>
<!-- Node1&#45;&gt;Node17 -->
<g id="edge43" class="edge"><title>Node1&#45;&gt;Node17</title>
<path fill="none" stroke="midnightblue" d="M36.2267,-466.644C43.0483,-496.887 60.5357,-554.447 99,-584 162.002,-632.406 195.05,-618 274.5,-618 274.5,-618 274.5,-618 518.5,-618 606.578,-618 708.34,-635.154 765.639,-646.411"/>
<polygon fill="midnightblue" stroke="midnightblue" points="39.6494,-465.912 34.1769,-456.839 32.7975,-467.344 39.6494,-465.912"/>
</g>
<!-- Node19 -->
<g id="node19" class="node"><title>Node19</title>
<g id="a_node19"><a xlink:href="../../d2/d82/loadlib_8c.html#a136874f5faa236dc52fb50109281e157" target="_top" xlink:title="ll_require">
<polygon fill="none" stroke="black" points="123.5,-304.5 123.5,-323.5 175.5,-323.5 175.5,-304.5 123.5,-304.5"/>
<text text-anchor="middle" x="149.5" y="-311.5" font-family="Helvetica,sans-Serif" font-size="10.00">ll_require</text>
</a>
</g>
</g>
<!-- Node1&#45;&gt;Node19 -->
<g id="edge20" class="edge"><title>Node1&#45;&gt;Node19</title>
<path fill="none" stroke="midnightblue" d="M39.0846,-427.784C48.5928,-402.708 68.4511,-358.973 99,-333 105.943,-327.097 114.919,-322.918 123.317,-320.013"/>
<polygon fill="midnightblue" stroke="midnightblue" points="35.759,-426.688 35.6423,-437.282 42.3402,-429.073 35.759,-426.688"/>
</g>
<!-- Node20 -->
<g id="node20" class="node"><title>Node20</title>
<g id="a_node20"><a xlink:href="../../da/d29/lauxlib_8h.html#a2605da7ef3a12d7e9cfa85939245f941" target="_top" xlink:title="luaL_getsubtable">
<polygon fill="none" stroke="black" points="104.5,-532.5 104.5,-551.5 194.5,-551.5 194.5,-532.5 104.5,-532.5"/>
<text text-anchor="middle" x="149.5" y="-539.5" font-family="Helvetica,sans-Serif" font-size="10.00">luaL_getsubtable</text>
</a>
</g>
</g>
<!-- Node1&#45;&gt;Node20 -->
<g id="edge21" class="edge"><title>Node1&#45;&gt;Node20</title>
<path fill="none" stroke="midnightblue" d="M46.2392,-465.052C58.7254,-480.56 78.3107,-502.763 99,-518 106.69,-523.664 115.925,-528.565 124.325,-532.435"/>
<polygon fill="midnightblue" stroke="midnightblue" points="48.684,-462.499 39.7532,-456.799 43.1801,-466.824 48.684,-462.499"/>
</g>
<!-- Node21 -->
<g id="node21" class="node"><title>Node21</title>
<g id="a_node21"><a xlink:href="../../da/d29/lauxlib_8h.html#af6e3e3ca0a445a50f34cfc26f89c7d61" target="_top" xlink:title="luaL_requiref">
<polygon fill="none" stroke="black" points="241,-456.5 241,-475.5 310,-475.5 310,-456.5 241,-456.5"/>
<text text-anchor="middle" x="275.5" y="-463.5" font-family="Helvetica,sans-Serif" font-size="10.00">luaL_requiref</text>
</a>
</g>
</g>
<!-- Node1&#45;&gt;Node21 -->
<g id="edge36" class="edge"><title>Node1&#45;&gt;Node21</title>
<path fill="none" stroke="midnightblue" d="M53.1929,-462.576C65.73,-471.02 82.4535,-480.606 99,-485 149.354,-498.372 210.224,-485.606 245.437,-475.519"/>
<polygon fill="midnightblue" stroke="midnightblue" points="55.0592,-459.61 44.8661,-456.72 51.0323,-465.335 55.0592,-459.61"/>
</g>
<!-- Node22 -->
<g id="node22" class="node"><title>Node22</title>
<g id="a_node22"><a xlink:href="../../d6/d07/lualib_8h.html#a3744dadc460fb2a20df474eef4d4253d" target="_top" xlink:title="luaL_openlibs">
<polygon fill="none" stroke="black" points="351,-477.5 351,-496.5 427,-496.5 427,-477.5 351,-477.5"/>
<text text-anchor="middle" x="389" y="-484.5" font-family="Helvetica,sans-Serif" font-size="10.00">luaL_openlibs</text>
</a>
</g>
</g>
<!-- Node1&#45;&gt;Node22 -->
<g id="edge35" class="edge"><title>Node1&#45;&gt;Node22</title>
<path fill="none" stroke="midnightblue" d="M37.3535,-466.454C45.2126,-493.285 63.5506,-540.639 99,-561 195.335,-616.332 333.129,-526.987 375.273,-496.566"/>
<polygon fill="midnightblue" stroke="midnightblue" points="40.6899,-465.385 34.6844,-456.657 33.936,-467.225 40.6899,-465.385"/>
</g>
<!-- Node29 -->
<g id="node29" class="node"><title>Node29</title>
<g id="a_node29"><a xlink:href="../../da/d29/lauxlib_8h.html#a0e9e032108e7aedc05836b0c1d72a0fa" target="_top" xlink:title="luaL_newmetatable">
<polygon fill="none" stroke="black" points="99,-798.5 99,-817.5 200,-817.5 200,-798.5 99,-798.5"/>
<text text-anchor="middle" x="149.5" y="-805.5" font-family="Helvetica,sans-Serif" font-size="10.00">luaL_newmetatable</text>
</a>
</g>
</g>
<!-- Node1&#45;&gt;Node29 -->
<g id="edge33" class="edge"><title>Node1&#45;&gt;Node29</title>
<path fill="none" stroke="midnightblue" d="M33.8807,-467.026C38.7729,-532.564 57.2766,-739.28 99,-789 102.195,-792.808 106.245,-795.854 110.647,-798.292"/>
<polygon fill="midnightblue" stroke="midnightblue" points="37.3545,-466.535 33.1446,-456.813 30.3726,-467.038 37.3545,-466.535"/>
</g>
<!-- Node30 -->
<g id="node30" class="node"><title>Node30</title>
<g id="a_node30"><a xlink:href="../../da/d29/lauxlib_8h.html#a8750009b9bbc508e4c3818ebd15b4e14" target="_top" xlink:title="luaL_setfuncs">
<polygon fill="none" stroke="black" points="112,-722.5 112,-741.5 187,-741.5 187,-722.5 112,-722.5"/>
<text text-anchor="middle" x="149.5" y="-729.5" font-family="Helvetica,sans-Serif" font-size="10.00">luaL_setfuncs</text>
</a>
</g>
</g>
<!-- Node1&#45;&gt;Node30 -->
<g id="edge37" class="edge"><title>Node1&#45;&gt;Node30</title>
<path fill="none" stroke="midnightblue" d="M32.1547,-466.625C32.3505,-513.693 39.0529,-634.534 99,-708 104.072,-714.216 111.145,-718.936 118.36,-722.474"/>
<polygon fill="midnightblue" stroke="midnightblue" points="35.6549,-466.575 32.2127,-456.554 28.655,-466.534 35.6549,-466.575"/>
</g>
<!-- Node31 -->
<g id="node31" class="node"><title>Node31</title>
<g id="a_node31"><a xlink:href="../../d6/d07/lualib_8h.html#a1aebe7162861d1f3fe9c0d6d269031d4" target="_top" xlink:title="luaopen_base">
<polygon fill="none" stroke="black" points="236,-684.5 236,-703.5 315,-703.5 315,-684.5 236,-684.5"/>
<text text-anchor="middle" x="275.5" y="-691.5" font-family="Helvetica,sans-Serif" font-size="10.00">luaopen_base</text>
</a>
</g>
</g>
<!-- Node1&#45;&gt;Node31 -->
<g id="edge41" class="edge"><title>Node1&#45;&gt;Node31</title>
<path fill="none" stroke="midnightblue" d="M31.8446,-467.047C31.5909,-511.292 37.7583,-617.526 99,-670 136.714,-702.315 196.69,-703.409 235.83,-699.813"/>
<polygon fill="midnightblue" stroke="midnightblue" points="35.3452,-467.039 32.0247,-456.978 28.3463,-466.914 35.3452,-467.039"/>
</g>
<!-- Node32 -->
<g id="node32" class="node"><title>Node32</title>
<g id="a_node32"><a xlink:href="../../d6/d07/lualib_8h.html#ad9a992586e14f1dd04f4983b8740605a" target="_top" xlink:title="luaopen_math">
<polygon fill="none" stroke="black" points="111,-266.5 111,-285.5 188,-285.5 188,-266.5 111,-266.5"/>
<text text-anchor="middle" x="149.5" y="-273.5" font-family="Helvetica,sans-Serif" font-size="10.00">luaopen_math</text>
</a>
</g>
</g>
<!-- Node1&#45;&gt;Node32 -->
<g id="edge42" class="edge"><title>Node1&#45;&gt;Node32</title>
<path fill="none" stroke="midnightblue" d="M36.0002,-427.453C42.6957,-395.519 60.244,-332.016 99,-295 103.061,-291.122 107.997,-288.013 113.16,-285.527"/>
<polygon fill="midnightblue" stroke="midnightblue" points="32.5516,-426.851 34.0675,-437.337 39.4215,-428.195 32.5516,-426.851"/>
</g>
<!-- Node33 -->
<g id="node33" class="node"><title>Node33</title>
<g id="a_node33"><a xlink:href="../../d0/da1/ltablib_8c.html#a46a372295cbd1692b06bdbac4ca58881" target="_top" xlink:title="pack">
<polygon fill="none" stroke="black" points="130.5,-228.5 130.5,-247.5 168.5,-247.5 168.5,-228.5 130.5,-228.5"/>
<text text-anchor="middle" x="149.5" y="-235.5" font-family="Helvetica,sans-Serif" font-size="10.00">pack</text>
</a>
</g>
</g>
<!-- Node1&#45;&gt;Node33 -->
<g id="edge44" class="edge"><title>Node1&#45;&gt;Node33</title>
<path fill="none" stroke="midnightblue" d="M34.0627,-426.955C38.0767,-388.84 52.0145,-305.408 99,-257 107.335,-248.413 119.969,-243.648 130.387,-241.037"/>
<polygon fill="midnightblue" stroke="midnightblue" points="30.5474,-426.96 33.11,-437.24 37.5175,-427.606 30.5474,-426.96"/>
</g>
<!-- Node34 -->
<g id="node34" class="node"><title>Node34</title>
<g id="a_node34"><a xlink:href="../../d1/dc2/_kensho_lua_wrapper_8m.html#ac812f3eb3f83c6ada24f2dadeced6d68" target="_top" xlink:title="pushValue">
<polygon fill="none" stroke="black" points="118,-456.5 118,-475.5 181,-475.5 181,-456.5 118,-456.5"/>
<text text-anchor="middle" x="149.5" y="-463.5" font-family="Helvetica,sans-Serif" font-size="10.00">pushValue</text>
</a>
</g>
</g>
<!-- Node1&#45;&gt;Node34 -->
<g id="edge45" class="edge"><title>Node1&#45;&gt;Node34</title>
<path fill="none" stroke="midnightblue" d="M73.1639,-453.66C87.8944,-456.073 104.268,-458.755 117.977,-461.001"/>
<polygon fill="midnightblue" stroke="midnightblue" points="73.7156,-450.204 63.2813,-452.042 72.5841,-457.112 73.7156,-450.204"/>
</g>
<!-- Node36 -->
<g id="node36" class="node"><title>Node36</title>
<g id="a_node36"><a xlink:href="../../dc/dba/loslib_8c.html#a66ff5b88f96a4df4a360cf6928636860" target="_top" xlink:title="setboolfield">
<polygon fill="none" stroke="black" points="118,-190.5 118,-209.5 181,-209.5 181,-190.5 118,-190.5"/>
<text text-anchor="middle" x="149.5" y="-197.5" font-family="Helvetica,sans-Serif" font-size="10.00">setboolfield</text>
</a>
</g>
</g>
<!-- Node1&#45;&gt;Node36 -->
<g id="edge49" class="edge"><title>Node1&#45;&gt;Node36</title>
<path fill="none" stroke="midnightblue" d="M32.653,-427.232C34.0509,-383.864 43.3723,-279.43 99,-219 104.05,-213.514 110.86,-209.598 117.81,-206.807"/>
<polygon fill="midnightblue" stroke="midnightblue" points="29.1519,-427.25 32.4406,-437.321 36.1504,-427.397 29.1519,-427.25"/>
</g>
<!-- Node38 -->
<g id="node38" class="node"><title>Node38</title>
<g id="a_node38"><a xlink:href="../../dc/dba/loslib_8c.html#a74a823f500a50f231ec779026238169e" target="_top" xlink:title="setfield">
<polygon fill="none" stroke="black" points="127,-152.5 127,-171.5 172,-171.5 172,-152.5 127,-152.5"/>
<text text-anchor="middle" x="149.5" y="-159.5" font-family="Helvetica,sans-Serif" font-size="10.00">setfield</text>
</a>
</g>
</g>
<!-- Node1&#45;&gt;Node38 -->
<g id="edge51" class="edge"><title>Node1&#45;&gt;Node38</title>
<path fill="none" stroke="midnightblue" d="M31.6442,-427.301C30.6349,-379.046 34.7342,-253.591 99,-181 106.139,-172.936 117.092,-168.274 126.881,-165.59"/>
<polygon fill="midnightblue" stroke="midnightblue" points="28.1475,-427.464 31.957,-437.351 35.1441,-427.246 28.1475,-427.464"/>
</g>
<!-- Node39 -->
<g id="node39" class="node"><title>Node39</title>
<g id="a_node39"><a xlink:href="../../d2/d82/loadlib_8c.html#ab1293c9ab0fa766bfa927767d6ae543c" target="_top" xlink:title="setpath">
<polygon fill="none" stroke="black" points="493,-646.5 493,-665.5 542,-665.5 542,-646.5 493,-646.5"/>
<text text-anchor="middle" x="517.5" y="-653.5" font-family="Helvetica,sans-Serif" font-size="10.00">setpath</text>
</a>
</g>
</g>
<!-- Node1&#45;&gt;Node39 -->
<g id="edge53" class="edge"><title>Node1&#45;&gt;Node39</title>
<path fill="none" stroke="midnightblue" d="M32.9529,-466.858C35.0303,-505.88 45.7421,-592.217 99,-632 161.601,-678.762 414.093,-663.855 492.89,-657.924"/>
<polygon fill="midnightblue" stroke="midnightblue" points="36.4467,-466.63 32.5574,-456.775 29.4521,-466.905 36.4467,-466.63"/>
</g>
<!-- Node40 -->
<g id="node40" class="node"><title>Node40</title>
<g id="a_node40"><a xlink:href="../../d8/d97/ldblib_8c.html#ab0a13cd0602fd1692bb7b0c8a34d08e7" target="_top" xlink:title="settabsb">
<polygon fill="none" stroke="black" points="122,-114.5 122,-133.5 177,-133.5 177,-114.5 122,-114.5"/>
<text text-anchor="middle" x="149.5" y="-121.5" font-family="Helvetica,sans-Serif" font-size="10.00">settabsb</text>
</a>
</g>
</g>
<!-- Node1&#45;&gt;Node40 -->
<g id="edge55" class="edge"><title>Node1&#45;&gt;Node40</title>
<path fill="none" stroke="midnightblue" d="M34.3832,-427.265C40.5027,-366.949 61.623,-186.501 99,-143 104.879,-136.158 113.511,-131.77 121.926,-128.96"/>
<polygon fill="midnightblue" stroke="midnightblue" points="30.8859,-427.066 33.3865,-437.362 37.852,-427.754 30.8859,-427.066"/>
</g>
<!-- Node42 -->
<g id="node42" class="node"><title>Node42</title>
<g id="a_node42"><a xlink:href="../../d8/d97/ldblib_8c.html#a2385ac5abe5680037972d926076b5a33" target="_top" xlink:title="settabsi">
<polygon fill="none" stroke="black" points="124.5,-76.5 124.5,-95.5 174.5,-95.5 174.5,-76.5 124.5,-76.5"/>
<text text-anchor="middle" x="149.5" y="-83.5" font-family="Helvetica,sans-Serif" font-size="10.00">settabsi</text>
</a>
</g>
</g>
<!-- Node1&#45;&gt;Node42 -->
<g id="edge57" class="edge"><title>Node1&#45;&gt;Node42</title>
<path fill="none" stroke="midnightblue" d="M33.8807,-426.974C38.7729,-361.436 57.2766,-154.72 99,-105 105.391,-97.3847 115.199,-92.8132 124.404,-90.0726"/>
<polygon fill="midnightblue" stroke="midnightblue" points="30.3726,-426.962 33.1446,-437.187 37.3545,-427.465 30.3726,-426.962"/>
</g>
<!-- Node43 -->
<g id="node43" class="node"><title>Node43</title>
<g id="a_node43"><a xlink:href="../../d8/d97/ldblib_8c.html#adc75b1bd8ceb611620401f7acfda6b3c" target="_top" xlink:title="settabss">
<polygon fill="none" stroke="black" points="122.5,-38.5 122.5,-57.5 176.5,-57.5 176.5,-38.5 122.5,-38.5"/>
<text text-anchor="middle" x="149.5" y="-45.5" font-family="Helvetica,sans-Serif" font-size="10.00">settabss</text>
</a>
</g>
</g>
<!-- Node1&#45;&gt;Node43 -->
<g id="edge59" class="edge"><title>Node1&#45;&gt;Node43</title>
<path fill="none" stroke="midnightblue" d="M33.448,-427.062C37.1568,-356.967 52.8294,-123.082 99,-67 104.851,-59.8934 113.684,-55.4397 122.276,-52.6507"/>
<polygon fill="midnightblue" stroke="midnightblue" points="29.9456,-427.022 32.9366,-437.186 36.9367,-427.376 29.9456,-427.022"/>
</g>
<!-- Node44 -->
<g id="node44" class="node"><title>Node44</title>
<g id="a_node44"><a xlink:href="../../d8/d97/ldblib_8c.html#a6269322ee4ae931654d7442fe2be6a46" target="_top" xlink:title="treatstackoption">
<polygon fill="none" stroke="black" points="108,-0.5 108,-19.5 191,-19.5 191,-0.5 108,-0.5"/>
<text text-anchor="middle" x="149.5" y="-7.5" font-family="Helvetica,sans-Serif" font-size="10.00">treatstackoption</text>
</a>
</g>
</g>
<!-- Node1&#45;&gt;Node44 -->
<g id="edge61" class="edge"><title>Node1&#45;&gt;Node44</title>
<path fill="none" stroke="midnightblue" d="M33.0985,-427.037C35.7136,-352.484 48.3883,-91.4548 99,-29 102.13,-25.1381 106.141,-22.0601 110.524,-19.607"/>
<polygon fill="midnightblue" stroke="midnightblue" points="29.5903,-427.233 32.7609,-437.343 36.5865,-427.463 29.5903,-427.233"/>
</g>
<!-- Node3 -->
<g id="node3" class="node"><title>Node3</title>
<g id="a_node3"><a xlink:href="../../d6/d07/lualib_8h.html#a686b841d953f3113ddc7538d69debce7" target="_top" xlink:title="luaopen_io">
<polygon fill="none" stroke="black" points="357.5,-855.5 357.5,-874.5 420.5,-874.5 420.5,-855.5 357.5,-855.5"/>
<text text-anchor="middle" x="389" y="-862.5" font-family="Helvetica,sans-Serif" font-size="10.00">luaopen_io</text>
</a>
</g>
</g>
<!-- Node2&#45;&gt;Node3 -->
<g id="edge2" class="edge"><title>Node2&#45;&gt;Node3</title>
<path fill="none" stroke="midnightblue" d="M308.615,-831.537C326.672,-839.149 348.789,-848.471 365.087,-855.342"/>
<polygon fill="midnightblue" stroke="midnightblue" points="309.638,-828.17 299.064,-827.511 306.919,-834.621 309.638,-828.17"/>
</g>
<!-- Node5 -->
<g id="node5" class="node"><title>Node5</title>
<g id="a_node5"><a xlink:href="../../d6/d07/lualib_8h.html#a3cc052c1be81497507ee76524482eaec" target="_top" xlink:title="luaopen_string">
<polygon fill="none" stroke="black" points="236.5,-380.5 236.5,-399.5 314.5,-399.5 314.5,-380.5 236.5,-380.5"/>
<text text-anchor="middle" x="275.5" y="-387.5" font-family="Helvetica,sans-Serif" font-size="10.00">luaopen_string</text>
</a>
</g>
</g>
<!-- Node4&#45;&gt;Node5 -->
<g id="edge4" class="edge"><title>Node4&#45;&gt;Node5</title>
<path fill="none" stroke="midnightblue" d="M191.405,-415.465C208.273,-410.295 227.508,-404.401 243.22,-399.586"/>
<polygon fill="midnightblue" stroke="midnightblue" points="190.326,-412.135 181.79,-418.411 192.377,-418.827 190.326,-412.135"/>
</g>
<!-- Node6&#45;&gt;Node3 -->
<g id="edge6" class="edge"><title>Node6&#45;&gt;Node3</title>
<path fill="none" stroke="midnightblue" d="M318.281,-871.253C331.272,-870.088 345.344,-868.826 357.422,-867.742"/>
<polygon fill="midnightblue" stroke="midnightblue" points="317.801,-867.782 308.153,-872.161 318.426,-874.754 317.801,-867.782"/>
</g>
<!-- Node9 -->
<g id="node9" class="node"><title>Node9</title>
<g id="a_node9"><a xlink:href="../../de/df3/liolib_8c.html#a827044fde6f2c21ab965ba3d729f6a0f" target="_top" xlink:title="io_input">
<polygon fill="none" stroke="black" points="251,-304.5 251,-323.5 300,-323.5 300,-304.5 251,-304.5"/>
<text text-anchor="middle" x="275.5" y="-311.5" font-family="Helvetica,sans-Serif" font-size="10.00">io_input</text>
</a>
</g>
</g>
<!-- Node8&#45;&gt;Node9 -->
<g id="edge9" class="edge"><title>Node8&#45;&gt;Node9</title>
<path fill="none" stroke="midnightblue" d="M181.183,-342.597C202.699,-336.004 231.038,-327.319 250.818,-321.257"/>
<polygon fill="midnightblue" stroke="midnightblue" points="180.071,-339.277 171.535,-345.554 182.122,-345.97 180.071,-339.277"/>
</g>
<!-- Node10 -->
<g id="node10" class="node"><title>Node10</title>
<g id="a_node10"><a xlink:href="../../de/df3/liolib_8c.html#a4464f89f0151ad432557b0a51258582c" target="_top" xlink:title="io_output">
<polygon fill="none" stroke="black" points="248,-342.5 248,-361.5 303,-361.5 303,-342.5 248,-342.5"/>
<text text-anchor="middle" x="275.5" y="-349.5" font-family="Helvetica,sans-Serif" font-size="10.00">io_output</text>
</a>
</g>
</g>
<!-- Node8&#45;&gt;Node10 -->
<g id="edge10" class="edge"><title>Node8&#45;&gt;Node10</title>
<path fill="none" stroke="midnightblue" d="M181.571,-352C201.937,-352 228.289,-352 247.727,-352"/>
<polygon fill="midnightblue" stroke="midnightblue" points="181.535,-348.5 171.535,-352 181.535,-355.5 181.535,-348.5"/>
</g>
<!-- Node12 -->
<g id="node12" class="node"><title>Node12</title>
<g id="a_node12"><a xlink:href="../../d2/d82/loadlib_8c.html#a21b83479d4a62aa393b19bcb08e71889" target="_top" xlink:title="ll_loadfunc">
<polygon fill="none" stroke="black" points="245.5,-760.5 245.5,-779.5 305.5,-779.5 305.5,-760.5 245.5,-760.5"/>
<text text-anchor="middle" x="275.5" y="-767.5" font-family="Helvetica,sans-Serif" font-size="10.00">ll_loadfunc</text>
</a>
</g>
</g>
<!-- Node11&#45;&gt;Node12 -->
<g id="edge12" class="edge"><title>Node11&#45;&gt;Node12</title>
<path fill="none" stroke="midnightblue" d="M190.607,-770C208.372,-770 228.89,-770 245.187,-770"/>
<polygon fill="midnightblue" stroke="midnightblue" points="190.517,-766.5 180.517,-770 190.517,-773.5 190.517,-766.5"/>
</g>
<!-- Node13 -->
<g id="node13" class="node"><title>Node13</title>
<g id="a_node13"><a xlink:href="../../d2/d82/loadlib_8c.html#aac7e69bc5b4403e49e2609425f0fb7b0" target="_top" xlink:title="ll_loadlib">
<polygon fill="none" stroke="black" points="363,-760.5 363,-779.5 415,-779.5 415,-760.5 363,-760.5"/>
<text text-anchor="middle" x="389" y="-767.5" font-family="Helvetica,sans-Serif" font-size="10.00">ll_loadlib</text>
</a>
</g>
</g>
<!-- Node12&#45;&gt;Node13 -->
<g id="edge13" class="edge"><title>Node12&#45;&gt;Node13</title>
<path fill="none" stroke="midnightblue" d="M315.507,-770C331.249,-770 348.955,-770 362.927,-770"/>
<polygon fill="midnightblue" stroke="midnightblue" points="315.504,-766.5 305.504,-770 315.504,-773.5 315.504,-766.5"/>
</g>
<!-- Node14 -->
<g id="node14" class="node"><title>Node14</title>
<g id="a_node14"><a xlink:href="../../d2/d82/loadlib_8c.html#a91ac5b5231cf039af46226806dcc3884" target="_top" xlink:title="loadfunc">
<polygon fill="none" stroke="black" points="363,-798.5 363,-817.5 415,-817.5 415,-798.5 363,-798.5"/>
<text text-anchor="middle" x="389" y="-805.5" font-family="Helvetica,sans-Serif" font-size="10.00">loadfunc</text>
</a>
</g>
</g>
<!-- Node12&#45;&gt;Node14 -->
<g id="edge14" class="edge"><title>Node12&#45;&gt;Node14</title>
<path fill="none" stroke="midnightblue" d="M314.281,-782.876C330.32,-788.342 348.582,-794.566 362.916,-799.451"/>
<polygon fill="midnightblue" stroke="midnightblue" points="315.231,-779.502 304.636,-779.589 312.972,-786.128 315.231,-779.502"/>
</g>
<!-- Node15 -->
<g id="node15" class="node"><title>Node15</title>
<g id="a_node15"><a xlink:href="../../d2/d82/loadlib_8c.html#a9a915ea950c831cee2f1e7b0a3bd9005" target="_top" xlink:title="searcher_C">
<polygon fill="none" stroke="black" points="485,-760.5 485,-779.5 550,-779.5 550,-760.5 485,-760.5"/>
<text text-anchor="middle" x="517.5" y="-767.5" font-family="Helvetica,sans-Serif" font-size="10.00">searcher_C</text>
</a>
</g>
</g>
<!-- Node14&#45;&gt;Node15 -->
<g id="edge15" class="edge"><title>Node14&#45;&gt;Node15</title>
<path fill="none" stroke="midnightblue" d="M424.966,-797.496C443.752,-791.853 466.731,-784.95 484.965,-779.473"/>
<polygon fill="midnightblue" stroke="midnightblue" points="423.865,-794.172 415.295,-800.401 425.879,-800.876 423.865,-794.172"/>
</g>
<!-- Node18 -->
<g id="node18" class="node"><title>Node18</title>
<g id="a_node18"><a xlink:href="../../d2/d82/loadlib_8c.html#a1ec05cd98a045c271aeda9f9c6041e1c" target="_top" xlink:title="searcher_Croot">
<polygon fill="none" stroke="black" points="477.5,-798.5 477.5,-817.5 557.5,-817.5 557.5,-798.5 477.5,-798.5"/>
<text text-anchor="middle" x="517.5" y="-805.5" font-family="Helvetica,sans-Serif" font-size="10.00">searcher_Croot</text>
</a>
</g>
</g>
<!-- Node14&#45;&gt;Node18 -->
<g id="edge18" class="edge"><title>Node14&#45;&gt;Node18</title>
<path fill="none" stroke="midnightblue" d="M425.41,-808C441.553,-808 460.719,-808 477.296,-808"/>
<polygon fill="midnightblue" stroke="midnightblue" points="425.295,-804.5 415.295,-808 425.295,-811.5 425.295,-804.5"/>
</g>
<!-- Node16 -->
<g id="node16" class="node"><title>Node16</title>
<g id="a_node16"><a xlink:href="../../d2/d82/loadlib_8c.html#a8fc66c8b852ee2960dc20797521d1d9e" target="_top" xlink:title="createsearcherstable">
<polygon fill="none" stroke="black" points="613,-760.5 613,-779.5 717,-779.5 717,-760.5 613,-760.5"/>
<text text-anchor="middle" x="665" y="-767.5" font-family="Helvetica,sans-Serif" font-size="10.00">createsearcherstable</text>
</a>
</g>
</g>
<!-- Node15&#45;&gt;Node16 -->
<g id="edge16" class="edge"><title>Node15&#45;&gt;Node16</title>
<path fill="none" stroke="midnightblue" d="M560.395,-770C576.733,-770 595.618,-770 612.755,-770"/>
<polygon fill="midnightblue" stroke="midnightblue" points="560.071,-766.5 550.071,-770 560.071,-773.5 560.071,-766.5"/>
</g>
<!-- Node16&#45;&gt;Node17 -->
<g id="edge17" class="edge"><title>Node16&#45;&gt;Node17</title>
<path fill="none" stroke="midnightblue" d="M703.462,-756.343C709.877,-753.341 716.303,-749.881 722,-746 756.871,-722.249 789.498,-683.499 803.632,-665.609"/>
<polygon fill="midnightblue" stroke="midnightblue" points="701.92,-753.198 694.159,-760.41 704.724,-759.611 701.92,-753.198"/>
</g>
<!-- Node18&#45;&gt;Node16 -->
<g id="edge19" class="edge"><title>Node18&#45;&gt;Node16</title>
<path fill="none" stroke="midnightblue" d="M565.153,-795.816C585.353,-790.54 608.648,-784.456 627.548,-779.52"/>
<polygon fill="midnightblue" stroke="midnightblue" points="564.007,-792.498 555.216,-798.411 565.776,-799.27 564.007,-792.498"/>
</g>
<!-- Node20&#45;&gt;Node17 -->
<g id="edge32" class="edge"><title>Node20&#45;&gt;Node17</title>
<path fill="none" stroke="midnightblue" d="M204.905,-542C253.043,-542 325.193,-542 388,-542 388,-542 388,-542 518.5,-542 633.226,-542 757.047,-619.078 797.437,-646.477"/>
<polygon fill="midnightblue" stroke="midnightblue" points="204.71,-538.5 194.71,-542 204.71,-545.5 204.71,-538.5"/>
</g>
<!-- Node20&#45;&gt;Node21 -->
<g id="edge22" class="edge"><title>Node20&#45;&gt;Node21</title>
<path fill="none" stroke="midnightblue" d="M182.044,-527.935C188.127,-524.881 194.358,-521.508 200,-518 217.214,-507.297 219.377,-501.599 236,-490 243.105,-485.042 251.213,-479.914 258.149,-475.677"/>
<polygon fill="midnightblue" stroke="midnightblue" points="180.195,-524.941 172.713,-532.442 183.24,-531.244 180.195,-524.941"/>
</g>
<!-- Node20&#45;&gt;Node22 -->
<g id="edge31" class="edge"><title>Node20&#45;&gt;Node22</title>
<path fill="none" stroke="midnightblue" d="M201.436,-530.204C246.35,-519.803 310.731,-504.894 350.916,-495.588"/>
<polygon fill="midnightblue" stroke="midnightblue" points="200.551,-526.817 191.598,-532.483 202.13,-533.636 200.551,-526.817"/>
</g>
<!-- Node21&#45;&gt;Node22 -->
<g id="edge23" class="edge"><title>Node21&#45;&gt;Node22</title>
<path fill="none" stroke="midnightblue" d="M320.164,-474.224C330.312,-476.135 341.021,-478.152 350.858,-480.005"/>
<polygon fill="midnightblue" stroke="midnightblue" points="320.731,-470.769 310.256,-472.358 319.436,-477.648 320.731,-470.769"/>
</g>
<!-- Node23 -->
<g id="node23" class="node"><title>Node23</title>
<g id="a_node23"><a xlink:href="../../dc/de7/interface_kensho_lua_wrapper.html#a7d10aa0242861cdd109d3da9383882a2" target="_top" xlink:title="&#45;[KenshoLuaWrapper\l evaluate]">
<polygon fill="none" stroke="black" points="463,-418 463,-448 572,-448 572,-418 463,-418"/>
<text text-anchor="start" x="471" y="-436" font-family="Helvetica,sans-Serif" font-size="10.00">&#45;[KenshoLuaWrapper</text>
<text text-anchor="middle" x="517.5" y="-425" font-family="Helvetica,sans-Serif" font-size="10.00"> evaluate]</text>
</a>
</g>
</g>
<!-- Node22&#45;&gt;Node23 -->
<g id="edge24" class="edge"><title>Node22&#45;&gt;Node23</title>
<path fill="none" stroke="midnightblue" d="M421.814,-473.42C439.838,-465.725 462.429,-456.082 481.023,-448.144"/>
<polygon fill="midnightblue" stroke="midnightblue" points="420.147,-470.325 412.324,-477.47 422.896,-476.763 420.147,-470.325"/>
</g>
<!-- Node24 -->
<g id="node24" class="node"><title>Node24</title>
<g id="a_node24"><a xlink:href="../../dc/de7/interface_kensho_lua_wrapper.html#af6db46358f8858a18b55388aa3af211d" target="_top" xlink:title="&#45;[KenshoLuaWrapper\l initWithKensho:context\l:code:]">
<polygon fill="none" stroke="black" points="608,-467.5 608,-508.5 722,-508.5 722,-467.5 608,-467.5"/>
<text text-anchor="start" x="616" y="-496.5" font-family="Helvetica,sans-Serif" font-size="10.00">&#45;[KenshoLuaWrapper</text>
<text text-anchor="start" x="616" y="-485.5" font-family="Helvetica,sans-Serif" font-size="10.00"> initWithKensho:context</text>
<text text-anchor="middle" x="665" y="-474.5" font-family="Helvetica,sans-Serif" font-size="10.00">:code:]</text>
</a>
</g>
</g>
<!-- Node23&#45;&gt;Node24 -->
<g id="edge25" class="edge"><title>Node23&#45;&gt;Node24</title>
<path fill="none" stroke="midnightblue" d="M567.799,-451.635C581.233,-456.713 595.861,-462.243 609.563,-467.422"/>
<polygon fill="midnightblue" stroke="midnightblue" points="568.85,-448.291 558.259,-448.029 566.375,-454.839 568.85,-448.291"/>
</g>
<!-- Node25 -->
<g id="node25" class="node"><title>Node25</title>
<g id="a_node25"><a xlink:href="../../dc/de7/interface_kensho_lua_wrapper.html#a5555e0979799446611baee70104555c6" target="_top" xlink:title="&#45;[KenshoLuaWrapper\l evaluate:]">
<polygon fill="none" stroke="black" points="610.5,-369 610.5,-399 719.5,-399 719.5,-369 610.5,-369"/>
<text text-anchor="start" x="618.5" y="-387" font-family="Helvetica,sans-Serif" font-size="10.00">&#45;[KenshoLuaWrapper</text>
<text text-anchor="middle" x="665" y="-376" font-family="Helvetica,sans-Serif" font-size="10.00"> evaluate:]</text>
</a>
</g>
</g>
<!-- Node23&#45;&gt;Node25 -->
<g id="edge26" class="edge"><title>Node23&#45;&gt;Node25</title>
<path fill="none" stroke="midnightblue" d="M573.153,-414.595C588.376,-409.468 604.729,-403.961 619.306,-399.052"/>
<polygon fill="midnightblue" stroke="midnightblue" points="571.702,-411.39 563.342,-417.899 573.936,-418.024 571.702,-411.39"/>
</g>
<!-- Node28 -->
<g id="node28" class="node"><title>Node28</title>
<g id="a_node28"><a xlink:href="../../dc/de7/interface_kensho_lua_wrapper.html#a0bb5e125d727942726d707f8b59009dc" target="_top" xlink:title="&#45;[KenshoLuaWrapper\l observableUpdated:]">
<polygon fill="none" stroke="black" points="610.5,-418 610.5,-448 719.5,-448 719.5,-418 610.5,-418"/>
<text text-anchor="start" x="618.5" y="-436" font-family="Helvetica,sans-Serif" font-size="10.00">&#45;[KenshoLuaWrapper</text>
<text text-anchor="middle" x="665" y="-425" font-family="Helvetica,sans-Serif" font-size="10.00"> observableUpdated:]</text>
</a>
</g>
</g>
<!-- Node23&#45;&gt;Node28 -->
<g id="edge30" class="edge"><title>Node23&#45;&gt;Node28</title>
<path fill="none" stroke="midnightblue" d="M582.339,-433C591.723,-433 601.307,-433 610.456,-433"/>
<polygon fill="midnightblue" stroke="midnightblue" points="582.265,-429.5 572.265,-433 582.265,-436.5 582.265,-429.5"/>
</g>
<!-- Node26 -->
<g id="node26" class="node"><title>Node26</title>
<g id="a_node26"><a xlink:href="../../da/d0b/interface_kensho.html#a07b4d14db676108e1a94a1f10e100fb4" target="_top" xlink:title="&#45;[Kensho bindToView\l:context:]">
<polygon fill="none" stroke="black" points="758,-369 758,-399 866,-399 866,-369 758,-369"/>
<text text-anchor="start" x="766" y="-387" font-family="Helvetica,sans-Serif" font-size="10.00">&#45;[Kensho bindToView</text>
<text text-anchor="middle" x="812" y="-376" font-family="Helvetica,sans-Serif" font-size="10.00">:context:]</text>
</a>
</g>
</g>
<!-- Node25&#45;&gt;Node26 -->
<g id="edge27" class="edge"><title>Node25&#45;&gt;Node26</title>
<path fill="none" stroke="midnightblue" d="M729.62,-384C738.971,-384 748.523,-384 757.64,-384"/>
<polygon fill="midnightblue" stroke="midnightblue" points="729.581,-380.5 719.581,-384 729.581,-387.5 729.581,-380.5"/>
</g>
<!-- Node26&#45;&gt;Node26 -->
<g id="edge29" class="edge"><title>Node26&#45;&gt;Node26</title>
<path fill="none" stroke="midnightblue" d="M786.058,-409.458C789.277,-414.179 797.925,-417.5 812,-417.5 835.098,-417.5 843.579,-408.557 837.444,-399.159"/>
<polygon fill="midnightblue" stroke="midnightblue" points="789.568,-409.317 786.556,-399.159 782.577,-408.978 789.568,-409.317"/>
</g>
<!-- Node27 -->
<g id="node27" class="node"><title>Node27</title>
<g id="a_node27"><a xlink:href="../../da/d0b/interface_kensho.html#a1019e8223ee907bab87501ae483e609f" target="_top" xlink:title="&#45;[Kensho applyBindings\l:viewModel:]">
<polygon fill="none" stroke="black" points="902,-369 902,-399 1021,-399 1021,-369 902,-369"/>
<text text-anchor="start" x="910" y="-387" font-family="Helvetica,sans-Serif" font-size="10.00">&#45;[Kensho applyBindings</text>
<text text-anchor="middle" x="961.5" y="-376" font-family="Helvetica,sans-Serif" font-size="10.00">:viewModel:]</text>
</a>
</g>
</g>
<!-- Node26&#45;&gt;Node27 -->
<g id="edge28" class="edge"><title>Node26&#45;&gt;Node27</title>
<path fill="none" stroke="midnightblue" d="M876.421,-384C884.859,-384 893.481,-384 901.833,-384"/>
<polygon fill="midnightblue" stroke="midnightblue" points="876.251,-380.5 866.251,-384 876.251,-387.5 876.251,-380.5"/>
</g>
<!-- Node29&#45;&gt;Node2 -->
<g id="edge34" class="edge"><title>Node29&#45;&gt;Node2</title>
<path fill="none" stroke="midnightblue" d="M210.312,-812.824C221.87,-813.756 233.53,-814.696 243.682,-815.515"/>
<polygon fill="midnightblue" stroke="midnightblue" points="210.47,-809.325 200.221,-812.01 209.907,-816.302 210.47,-809.325"/>
</g>
<!-- Node30&#45;&gt;Node2 -->
<g id="edge39" class="edge"><title>Node30&#45;&gt;Node2</title>
<path fill="none" stroke="midnightblue" d="M190.818,-745.684C194.017,-747.303 197.12,-749.074 200,-751 219.338,-763.933 218.648,-773.503 236,-789 243.739,-795.912 253.014,-802.932 260.521,-808.334"/>
<polygon fill="midnightblue" stroke="midnightblue" points="192.209,-742.472 181.657,-741.52 189.312,-748.845 192.209,-742.472"/>
</g>
<!-- Node30&#45;&gt;Node17 -->
<g id="edge40" class="edge"><title>Node30&#45;&gt;Node17</title>
<path fill="none" stroke="midnightblue" d="M197.18,-732C245.072,-732 321.736,-732 388,-732 388,-732 388,-732 518.5,-732 622.91,-732 741.742,-686.076 789.483,-665.625"/>
<polygon fill="midnightblue" stroke="midnightblue" points="197.118,-728.5 187.118,-732 197.118,-735.5 197.118,-728.5"/>
</g>
<!-- Node30&#45;&gt;Node31 -->
<g id="edge38" class="edge"><title>Node30&#45;&gt;Node31</title>
<path fill="none" stroke="midnightblue" d="M191.405,-719.465C208.273,-714.295 227.508,-708.401 243.22,-703.586"/>
<polygon fill="midnightblue" stroke="midnightblue" points="190.326,-716.135 181.79,-722.411 192.377,-722.827 190.326,-716.135"/>
</g>
<!-- Node35 -->
<g id="node35" class="node"><title>Node35</title>
<g id="a_node35"><a xlink:href="../../d1/dc2/_kensho_lua_wrapper_8m.html#ad10bf0ff4feac9642e7477e282be41fe" target="_top" xlink:title="lookupKey">
<polygon fill="none" stroke="black" points="244.5,-418.5 244.5,-437.5 306.5,-437.5 306.5,-418.5 244.5,-418.5"/>
<text text-anchor="middle" x="275.5" y="-425.5" font-family="Helvetica,sans-Serif" font-size="10.00">lookupKey</text>
</a>
</g>
</g>
<!-- Node34&#45;&gt;Node35 -->
<g id="edge46" class="edge"><title>Node34&#45;&gt;Node35</title>
<path fill="none" stroke="midnightblue" d="M175.779,-452.691C195.636,-445.138 223.351,-436.537 244.362,-431.35"/>
<polygon fill="midnightblue" stroke="midnightblue" points="174.45,-449.453 166.457,-456.408 177.042,-455.955 174.45,-449.453"/>
</g>
<!-- Node35&#45;&gt;Node23 -->
<g id="edge47" class="edge"><title>Node35&#45;&gt;Node23</title>
<path fill="none" stroke="midnightblue" d="M317.087,-428.846C357.113,-429.679 418.529,-430.959 462.625,-431.878"/>
<polygon fill="midnightblue" stroke="midnightblue" points="316.967,-425.342 306.896,-428.633 316.821,-432.341 316.967,-425.342"/>
</g>
<!-- Node35&#45;&gt;Node34 -->
<g id="edge48" class="edge"><title>Node35&#45;&gt;Node34</title>
<path fill="none" stroke="midnightblue" d="M249.051,-441.374C229.367,-448.849 202.039,-457.338 181.152,-462.522"/>
<polygon fill="midnightblue" stroke="midnightblue" points="250.579,-444.533 258.573,-437.58 247.987,-438.03 250.579,-444.533"/>
</g>
<!-- Node37 -->
<g id="node37" class="node"><title>Node37</title>
<g id="a_node37"><a xlink:href="../../dc/dba/loslib_8c.html#a6520f2562b500aee87a6a475995adefb" target="_top" xlink:title="os_date">
<polygon fill="none" stroke="black" points="250,-171.5 250,-190.5 301,-190.5 301,-171.5 250,-171.5"/>
<text text-anchor="middle" x="275.5" y="-178.5" font-family="Helvetica,sans-Serif" font-size="10.00">os_date</text>
</a>
</g>
</g>
<!-- Node36&#45;&gt;Node37 -->
<g id="edge50" class="edge"><title>Node36&#45;&gt;Node37</title>
<path fill="none" stroke="midnightblue" d="M191.194,-193.765C210.478,-190.81 232.891,-187.376 249.609,-184.814"/>
<polygon fill="midnightblue" stroke="midnightblue" points="190.506,-190.329 181.152,-195.303 191.566,-197.248 190.506,-190.329"/>
</g>
<!-- Node38&#45;&gt;Node37 -->
<g id="edge52" class="edge"><title>Node38&#45;&gt;Node37</title>
<path fill="none" stroke="midnightblue" d="M182.148,-166.849C203.15,-170.067 230.319,-174.23 249.742,-177.206"/>
<polygon fill="midnightblue" stroke="midnightblue" points="182.514,-163.365 172.099,-165.31 181.454,-170.284 182.514,-163.365"/>
</g>
<!-- Node39&#45;&gt;Node17 -->
<g id="edge54" class="edge"><title>Node39&#45;&gt;Node17</title>
<path fill="none" stroke="midnightblue" d="M552.575,-656C605.102,-656 705.939,-656 764.925,-656"/>
<polygon fill="midnightblue" stroke="midnightblue" points="552.437,-652.5 542.437,-656 552.436,-659.5 552.437,-652.5"/>
</g>
<!-- Node41 -->
<g id="node41" class="node"><title>Node41</title>
<g id="a_node41"><a xlink:href="../../d8/d97/ldblib_8c.html#a4eb57e66c2efb2d31c9b9e1b01d27e13" target="_top" xlink:title="db_getinfo">
<polygon fill="none" stroke="black" points="245.5,-57.5 245.5,-76.5 305.5,-76.5 305.5,-57.5 245.5,-57.5"/>
<text text-anchor="middle" x="275.5" y="-64.5" font-family="Helvetica,sans-Serif" font-size="10.00">db_getinfo</text>
</a>
</g>
</g>
<!-- Node40&#45;&gt;Node41 -->
<g id="edge56" class="edge"><title>Node40&#45;&gt;Node41</title>
<path fill="none" stroke="midnightblue" d="M186.306,-110.771C190.944,-108.907 195.607,-106.957 200,-105 219.894,-96.1376 242.053,-84.6146 256.991,-76.5915"/>
<polygon fill="midnightblue" stroke="midnightblue" points="184.948,-107.544 176.914,-114.451 187.502,-114.061 184.948,-107.544"/>
</g>
<!-- Node42&#45;&gt;Node41 -->
<g id="edge58" class="edge"><title>Node42&#45;&gt;Node41</title>
<path fill="none" stroke="midnightblue" d="M184.722,-80.7563C203.675,-77.8522 226.993,-74.2792 245.115,-71.5025"/>
<polygon fill="midnightblue" stroke="midnightblue" points="184.057,-77.3172 174.703,-82.2915 185.118,-84.2365 184.057,-77.3172"/>
</g>
<!-- Node43&#45;&gt;Node41 -->
<g id="edge60" class="edge"><title>Node43&#45;&gt;Node41</title>
<path fill="none" stroke="midnightblue" d="M186.693,-53.5457C205.304,-56.3974 227.691,-59.8276 245.202,-62.5108"/>
<polygon fill="midnightblue" stroke="midnightblue" points="187.212,-50.0845 176.797,-52.0294 186.152,-57.0037 187.212,-50.0845"/>
</g>
<!-- Node44&#45;&gt;Node41 -->
<g id="edge62" class="edge"><title>Node44&#45;&gt;Node41</title>
<path fill="none" stroke="midnightblue" d="M186.306,-23.2293C190.944,-25.0931 195.607,-27.0428 200,-29 219.894,-37.8624 242.053,-49.3854 256.991,-57.4085"/>
<polygon fill="midnightblue" stroke="midnightblue" points="187.502,-19.9385 176.914,-19.5494 184.948,-26.4562 187.502,-19.9385"/>
</g>
</g>
</svg>
