<?xml version="1.0" encoding="UTF-8" standalone="no"?>
<!DOCTYPE svg PUBLIC "-//W3C//DTD SVG 1.1//EN"
 "http://www.w3.org/Graphics/SVG/1.1/DTD/svg11.dtd">
<!-- Generated by graphviz version 2.38.0 (20140413.2041)
 -->
<!-- Title: lua_settop Pages: 1 -->
<svg width="765pt" height="788pt"
 viewBox="0.00 0.00 765.00 788.00" xmlns="http://www.w3.org/2000/svg" xmlns:xlink="http://www.w3.org/1999/xlink">
<g id="graph0" class="graph" transform="scale(1 1) rotate(0) translate(4 784)">
<title>lua_settop</title>
<!-- Node1 -->
<g id="node1" class="node"><title>Node1</title>
<polygon fill="#bfbfbf" stroke="black" points="0,-380.5 0,-399.5 61,-399.5 61,-380.5 0,-380.5"/>
<text text-anchor="middle" x="30.5" y="-387.5" font-family="Helvetica,sans-Serif" font-size="10.00">lua_settop</text>
</g>
<!-- Node2 -->
<g id="node2" class="node"><title>Node2</title>
<g id="a_node2"><a xlink:href="../../d8/d97/ldblib_8c.html#ad72cc206e90f6ebc343460376c950a14" target="_top" xlink:title="db_debug">
<polygon fill="none" stroke="black" points="119.5,-760.5 119.5,-779.5 179.5,-779.5 179.5,-760.5 119.5,-760.5"/>
<text text-anchor="middle" x="149.5" y="-767.5" font-family="Helvetica,sans-Serif" font-size="10.00">db_debug</text>
</a>
</g>
</g>
<!-- Node1&#45;&gt;Node2 -->
<g id="edge1" class="edge"><title>Node1&#45;&gt;Node2</title>
<path fill="none" stroke="midnightblue" d="M32.5576,-409.824C36.5458,-477.527 52.7649,-698.314 97,-751 102.699,-757.788 111.054,-762.151 119.383,-764.956"/>
<polygon fill="midnightblue" stroke="midnightblue" points="36.0427,-409.46 31.9852,-399.673 29.0538,-409.854 36.0427,-409.46"/>
</g>
<!-- Node3 -->
<g id="node3" class="node"><title>Node3</title>
<g id="a_node3"><a xlink:href="../../d8/d97/ldblib_8c.html#aa0c362d361f8f9bd8a002c34c393e2b0" target="_top" xlink:title="db_sethook">
<polygon fill="none" stroke="black" points="116.5,-722.5 116.5,-741.5 182.5,-741.5 182.5,-722.5 116.5,-722.5"/>
<text text-anchor="middle" x="149.5" y="-729.5" font-family="Helvetica,sans-Serif" font-size="10.00">db_sethook</text>
</a>
</g>
</g>
<!-- Node1&#45;&gt;Node3 -->
<g id="edge2" class="edge"><title>Node1&#45;&gt;Node3</title>
<path fill="none" stroke="midnightblue" d="M33.2533,-409.716C39.1056,-471.63 59.7325,-660.855 97,-708 102.016,-714.345 109.103,-719.088 116.419,-722.604"/>
<polygon fill="midnightblue" stroke="midnightblue" points="36.7333,-409.337 32.3318,-399.7 29.7628,-409.979 36.7333,-409.337"/>
</g>
<!-- Node4 -->
<g id="node4" class="node"><title>Node4</title>
<g id="a_node4"><a xlink:href="../../d8/d97/ldblib_8c.html#a11cfe90e96e7ea907a767f5109f7ef4b" target="_top" xlink:title="db_setlocal">
<polygon fill="none" stroke="black" points="497.5,-304.5 497.5,-323.5 562.5,-323.5 562.5,-304.5 497.5,-304.5"/>
<text text-anchor="middle" x="530" y="-311.5" font-family="Helvetica,sans-Serif" font-size="10.00">db_setlocal</text>
</a>
</g>
</g>
<!-- Node1&#45;&gt;Node4 -->
<g id="edge3" class="edge"><title>Node1&#45;&gt;Node4</title>
<path fill="none" stroke="midnightblue" d="M37.44,-370.712C46.2014,-345.724 65.0941,-302.788 97,-281 149.495,-245.151 174.658,-262.352 238,-257 329.309,-249.285 355.357,-252.251 443,-279 459.747,-284.111 462.81,-288.332 479,-295 486.728,-298.183 495.202,-301.476 502.942,-304.409"/>
<polygon fill="midnightblue" stroke="midnightblue" points="34.1163,-369.616 34.297,-380.209 40.7618,-371.815 34.1163,-369.616"/>
</g>
<!-- Node5 -->
<g id="node5" class="node"><title>Node5</title>
<g id="a_node5"><a xlink:href="../../d8/d97/ldblib_8c.html#a3595aee1af712c0ba9c586feb763bffc" target="_top" xlink:title="db_setmetatable">
<polygon fill="none" stroke="black" points="105.5,-646.5 105.5,-665.5 193.5,-665.5 193.5,-646.5 105.5,-646.5"/>
<text text-anchor="middle" x="149.5" y="-653.5" font-family="Helvetica,sans-Serif" font-size="10.00">db_setmetatable</text>
</a>
</g>
</g>
<!-- Node1&#45;&gt;Node5 -->
<g id="edge4" class="edge"><title>Node1&#45;&gt;Node5</title>
<path fill="none" stroke="midnightblue" d="M30.9604,-410.193C30.8356,-456.428 36.9948,-571.057 97,-637 100.528,-640.877 104.917,-643.965 109.634,-646.424"/>
<polygon fill="midnightblue" stroke="midnightblue" points="34.4629,-410.029 31.0986,-399.983 27.4635,-409.935 34.4629,-410.029"/>
</g>
<!-- Node6 -->
<g id="node6" class="node"><title>Node6</title>
<g id="a_node6"><a xlink:href="../../d8/d97/ldblib_8c.html#a233c3c4d12bda0fdbf515a18b8961461" target="_top" xlink:title="db_setuservalue">
<polygon fill="none" stroke="black" points="355,-456.5 355,-475.5 442,-475.5 442,-456.5 355,-456.5"/>
<text text-anchor="middle" x="398.5" y="-463.5" font-family="Helvetica,sans-Serif" font-size="10.00">db_setuservalue</text>
</a>
</g>
</g>
<!-- Node1&#45;&gt;Node6 -->
<g id="edge5" class="edge"><title>Node1&#45;&gt;Node6</title>
<path fill="none" stroke="midnightblue" d="M38.9334,-371.093C48.6259,-349.375 67.8596,-314.833 97,-300 138.589,-278.831 158.738,-282.503 202,-300 245.562,-317.619 314.961,-420.847 354,-447 359.34,-450.578 365.465,-453.739 371.4,-456.406"/>
<polygon fill="midnightblue" stroke="midnightblue" points="35.7042,-369.743 35.0448,-380.317 42.1545,-372.462 35.7042,-369.743"/>
</g>
<!-- Node7 -->
<g id="node7" class="node"><title>Node7</title>
<g id="a_node7"><a xlink:href="../../d8/dd3/lbaselib_8c.html#a1b1ef8a039dd08b155cdfcc6167b63fb" target="_top" xlink:title="finishpcall">
<polygon fill="none" stroke="black" points="249.5,-684.5 249.5,-703.5 306.5,-703.5 306.5,-684.5 249.5,-684.5"/>
<text text-anchor="middle" x="278" y="-691.5" font-family="Helvetica,sans-Serif" font-size="10.00">finishpcall</text>
</a>
</g>
</g>
<!-- Node1&#45;&gt;Node7 -->
<g id="edge6" class="edge"><title>Node1&#45;&gt;Node7</title>
<path fill="none" stroke="midnightblue" d="M33.1137,-409.691C38.3383,-468.244 56.8332,-639.412 97,-675 139.101,-712.301 210.329,-706.728 249.369,-700.001"/>
<polygon fill="midnightblue" stroke="midnightblue" points="36.5861,-409.22 32.2432,-399.556 29.6118,-409.819 36.5861,-409.22"/>
</g>
<!-- Node11 -->
<g id="node11" class="node"><title>Node11</title>
<g id="a_node11"><a xlink:href="../../dc/d77/lstrlib_8c.html#ab55a72bb412d6186c82fd75de44cd031" target="_top" xlink:title="gmatch">
<polygon fill="none" stroke="black" points="126,-532.5 126,-551.5 173,-551.5 173,-532.5 126,-532.5"/>
<text text-anchor="middle" x="149.5" y="-539.5" font-family="Helvetica,sans-Serif" font-size="10.00">gmatch</text>
</a>
</g>
</g>
<!-- Node1&#45;&gt;Node11 -->
<g id="edge12" class="edge"><title>Node1&#45;&gt;Node11</title>
<path fill="none" stroke="midnightblue" d="M36.1623,-409.54C43.9812,-438.257 62.3923,-491.822 97,-523 105.072,-530.272 116.167,-534.835 125.993,-537.66"/>
<polygon fill="midnightblue" stroke="midnightblue" points="39.4693,-408.345 33.5954,-399.527 32.6886,-410.083 39.4693,-408.345"/>
</g>
<!-- Node12 -->
<g id="node12" class="node"><title>Node12</title>
<g id="a_node12"><a xlink:href="../../de/df3/liolib_8c.html#ac37d80ee2cc364b4adafcb6f7c20f28b" target="_top" xlink:title="io_readline">
<polygon fill="none" stroke="black" points="499.5,-38.5 499.5,-57.5 560.5,-57.5 560.5,-38.5 499.5,-38.5"/>
<text text-anchor="middle" x="530" y="-45.5" font-family="Helvetica,sans-Serif" font-size="10.00">io_readline</text>
</a>
</g>
</g>
<!-- Node1&#45;&gt;Node12 -->
<g id="edge13" class="edge"><title>Node1&#45;&gt;Node12</title>
<path fill="none" stroke="midnightblue" d="M32.0257,-370.072C34.187,-329.056 44.8915,-234.563 97,-181 106.054,-171.694 307.082,-112.026 318,-105 337.563,-92.4101 333.157,-77.3341 354,-67 400.82,-43.7867 463.173,-43.1075 499.418,-45.2155"/>
<polygon fill="midnightblue" stroke="midnightblue" points="28.5254,-370.01 31.6153,-380.144 35.5196,-370.295 28.5254,-370.01"/>
</g>
<!-- Node16 -->
<g id="node16" class="node"><title>Node16</title>
<g id="a_node16"><a xlink:href="../../d2/d82/loadlib_8c.html#a136874f5faa236dc52fb50109281e157" target="_top" xlink:title="ll_require">
<polygon fill="none" stroke="black" points="123.5,-456.5 123.5,-475.5 175.5,-475.5 175.5,-456.5 123.5,-456.5"/>
<text text-anchor="middle" x="149.5" y="-463.5" font-family="Helvetica,sans-Serif" font-size="10.00">ll_require</text>
</a>
</g>
</g>
<!-- Node1&#45;&gt;Node16 -->
<g id="edge17" class="edge"><title>Node1&#45;&gt;Node16</title>
<path fill="none" stroke="midnightblue" d="M47.7484,-407.161C60.2568,-419.577 78.4877,-436.034 97,-447 105.117,-451.808 114.658,-455.739 123.308,-458.752"/>
<polygon fill="midnightblue" stroke="midnightblue" points="49.9121,-404.369 40.4095,-399.683 44.9163,-409.272 49.9121,-404.369"/>
</g>
<!-- Node17 -->
<g id="node17" class="node"><title>Node17</title>
<g id="a_node17"><a xlink:href="../../d8/dd3/lbaselib_8c.html#a86a4e35d9c9ad4661a0dbbac3758c049" target="_top" xlink:title="luaB_dofile">
<polygon fill="none" stroke="black" points="118.5,-418.5 118.5,-437.5 180.5,-437.5 180.5,-418.5 118.5,-418.5"/>
<text text-anchor="middle" x="149.5" y="-425.5" font-family="Helvetica,sans-Serif" font-size="10.00">luaB_dofile</text>
</a>
</g>
</g>
<!-- Node1&#45;&gt;Node17 -->
<g id="edge18" class="edge"><title>Node1&#45;&gt;Node17</title>
<path fill="none" stroke="midnightblue" d="M70.5424,-402.68C86.3509,-407.815 104.299,-413.644 118.985,-418.414"/>
<polygon fill="midnightblue" stroke="midnightblue" points="71.6162,-399.349 61.024,-399.589 69.4538,-406.007 71.6162,-399.349"/>
</g>
<!-- Node18 -->
<g id="node18" class="node"><title>Node18</title>
<g id="a_node18"><a xlink:href="../../d8/dd3/lbaselib_8c.html#a2ecfa987569d0b4c1063f3e204e42dd2" target="_top" xlink:title="luaB_error">
<polygon fill="none" stroke="black" points="120,-380.5 120,-399.5 179,-399.5 179,-380.5 120,-380.5"/>
<text text-anchor="middle" x="149.5" y="-387.5" font-family="Helvetica,sans-Serif" font-size="10.00">luaB_error</text>
</a>
</g>
</g>
<!-- Node1&#45;&gt;Node18 -->
<g id="edge19" class="edge"><title>Node1&#45;&gt;Node18</title>
<path fill="none" stroke="midnightblue" d="M71.1479,-390C87.1004,-390 105.147,-390 119.794,-390"/>
<polygon fill="midnightblue" stroke="midnightblue" points="71.0241,-386.5 61.024,-390 71.024,-393.5 71.0241,-386.5"/>
</g>
<!-- Node19 -->
<g id="node19" class="node"><title>Node19</title>
<g id="a_node19"><a xlink:href="../../d8/dd3/lbaselib_8c.html#a4a9a3613fcf80fe033e044f7e19bed69" target="_top" xlink:title="luaB_load">
<polygon fill="none" stroke="black" points="120,-342.5 120,-361.5 179,-361.5 179,-342.5 120,-342.5"/>
<text text-anchor="middle" x="149.5" y="-349.5" font-family="Helvetica,sans-Serif" font-size="10.00">luaB_load</text>
</a>
</g>
</g>
<!-- Node1&#45;&gt;Node19 -->
<g id="edge20" class="edge"><title>Node1&#45;&gt;Node19</title>
<path fill="none" stroke="midnightblue" d="M70.6927,-377.271C86.7564,-372.053 105.008,-366.126 119.794,-361.323"/>
<polygon fill="midnightblue" stroke="midnightblue" points="69.4538,-373.993 61.024,-380.411 71.6162,-380.651 69.4538,-373.993"/>
</g>
<!-- Node20 -->
<g id="node20" class="node"><title>Node20</title>
<g id="a_node20"><a xlink:href="../../d8/dd3/lbaselib_8c.html#ac0b11ecf3ced275821aaf5a03ed33b02" target="_top" xlink:title="luaB_next">
<polygon fill="none" stroke="black" points="120,-608.5 120,-627.5 179,-627.5 179,-608.5 120,-608.5"/>
<text text-anchor="middle" x="149.5" y="-615.5" font-family="Helvetica,sans-Serif" font-size="10.00">luaB_next</text>
</a>
</g>
</g>
<!-- Node1&#45;&gt;Node20 -->
<g id="edge21" class="edge"><title>Node1&#45;&gt;Node20</title>
<path fill="none" stroke="midnightblue" d="M32.7027,-409.845C36.1075,-449.533 48.9778,-539.543 97,-594 103.068,-600.881 111.523,-605.929 119.831,-609.569"/>
<polygon fill="midnightblue" stroke="midnightblue" points="36.1915,-409.563 31.9592,-399.85 29.2108,-410.082 36.1915,-409.563"/>
</g>
<!-- Node22 -->
<g id="node22" class="node"><title>Node22</title>
<g id="a_node22"><a xlink:href="../../d8/dd3/lbaselib_8c.html#a248a6847a33f31c69a43a76b6b8bcb4b" target="_top" xlink:title="luaB_rawget">
<polygon fill="none" stroke="black" points="494.5,-532.5 494.5,-551.5 565.5,-551.5 565.5,-532.5 494.5,-532.5"/>
<text text-anchor="middle" x="530" y="-539.5" font-family="Helvetica,sans-Serif" font-size="10.00">luaB_rawget</text>
</a>
</g>
</g>
<!-- Node1&#45;&gt;Node22 -->
<g id="edge23" class="edge"><title>Node1&#45;&gt;Node22</title>
<path fill="none" stroke="midnightblue" d="M32.262,-409.636C34.8862,-446.668 46.4389,-526.224 97,-561 160.942,-604.98 403.373,-565.529 494.285,-548.722"/>
<polygon fill="midnightblue" stroke="midnightblue" points="35.754,-409.394 31.7009,-399.605 28.7649,-409.785 35.754,-409.394"/>
</g>
<!-- Node23 -->
<g id="node23" class="node"><title>Node23</title>
<g id="a_node23"><a xlink:href="../../d8/dd3/lbaselib_8c.html#a7b7225051c25127792f30eadd3498cc3" target="_top" xlink:title="luaB_rawset">
<polygon fill="none" stroke="black" points="494.5,-484.5 494.5,-503.5 565.5,-503.5 565.5,-484.5 494.5,-484.5"/>
<text text-anchor="middle" x="530" y="-491.5" font-family="Helvetica,sans-Serif" font-size="10.00">luaB_rawset</text>
</a>
</g>
</g>
<!-- Node1&#45;&gt;Node23 -->
<g id="edge24" class="edge"><title>Node1&#45;&gt;Node23</title>
<path fill="none" stroke="midnightblue" d="M45.2226,-372.593C57.2103,-358.905 75.9548,-340.875 97,-333 140.707,-316.645 160.465,-311.725 202,-333 226.372,-345.484 219.601,-362.719 238,-383 284.128,-433.846 290.408,-459.133 354,-485 399.792,-503.627 457.962,-502.233 494.345,-498.73"/>
<polygon fill="midnightblue" stroke="midnightblue" points="42.4024,-370.51 38.6715,-380.426 47.7719,-375.001 42.4024,-370.51"/>
</g>
<!-- Node24 -->
<g id="node24" class="node"><title>Node24</title>
<g id="a_node24"><a xlink:href="../../d8/dd3/lbaselib_8c.html#af7799a987ba6d158a96a52e80fb5beaf" target="_top" xlink:title="luaB_setmetatable">
<polygon fill="none" stroke="black" points="101.5,-190.5 101.5,-209.5 197.5,-209.5 197.5,-190.5 101.5,-190.5"/>
<text text-anchor="middle" x="149.5" y="-197.5" font-family="Helvetica,sans-Serif" font-size="10.00">luaB_setmetatable</text>
</a>
</g>
</g>
<!-- Node1&#45;&gt;Node24 -->
<g id="edge25" class="edge"><title>Node1&#45;&gt;Node24</title>
<path fill="none" stroke="midnightblue" d="M34.394,-370.425C40.3461,-336.552 56.931,-266.56 97,-224 102.815,-217.823 110.535,-213.088 118.224,-209.523"/>
<polygon fill="midnightblue" stroke="midnightblue" points="30.9167,-370.003 32.7646,-380.435 37.8258,-371.128 30.9167,-370.003"/>
</g>
<!-- Node25 -->
<g id="node25" class="node"><title>Node25</title>
<g id="a_node25"><a xlink:href="../../da/d29/lauxlib_8h.html#a8c38c6dcf9db7e110e525b46742bacf8" target="_top" xlink:title="luaL_loadfilex">
<polygon fill="none" stroke="black" points="112.5,-76.5 112.5,-95.5 186.5,-95.5 186.5,-76.5 112.5,-76.5"/>
<text text-anchor="middle" x="149.5" y="-83.5" font-family="Helvetica,sans-Serif" font-size="10.00">luaL_loadfilex</text>
</a>
</g>
</g>
<!-- Node1&#45;&gt;Node25 -->
<g id="edge26" class="edge"><title>Node1&#45;&gt;Node25</title>
<path fill="none" stroke="midnightblue" d="M33.586,-370.353C40.0769,-312.648 61.6274,-145.198 97,-105 101.155,-100.278 106.591,-96.7279 112.371,-94.0594"/>
<polygon fill="midnightblue" stroke="midnightblue" points="30.0996,-370.039 32.489,-380.361 37.0579,-370.802 30.0996,-370.039"/>
</g>
<!-- Node27 -->
<g id="node27" class="node"><title>Node27</title>
<g id="a_node27"><a xlink:href="../../dc/dba/loslib_8c.html#ae32288bc9696b48450146e11c241f943" target="_top" xlink:title="os_time">
<polygon fill="none" stroke="black" points="125,-114.5 125,-133.5 174,-133.5 174,-114.5 125,-114.5"/>
<text text-anchor="middle" x="149.5" y="-121.5" font-family="Helvetica,sans-Serif" font-size="10.00">os_time</text>
</a>
</g>
</g>
<!-- Node1&#45;&gt;Node27 -->
<g id="edge28" class="edge"><title>Node1&#45;&gt;Node27</title>
<path fill="none" stroke="midnightblue" d="M31.4776,-370.253C32.4556,-325.445 40.8002,-214.788 97,-148 104.177,-139.471 115.052,-133.796 124.962,-130.116"/>
<polygon fill="midnightblue" stroke="midnightblue" points="27.9764,-370.347 31.3629,-380.386 34.976,-370.426 27.9764,-370.347"/>
</g>
<!-- Node28 -->
<g id="node28" class="node"><title>Node28</title>
<g id="a_node28"><a xlink:href="../../d0/d56/lauxlib_8c.html#a4f35430f7ecfcbd5f507e550937046b4" target="_top" xlink:title="pushglobalfuncname">
<polygon fill="none" stroke="black" points="97,-494.5 97,-513.5 202,-513.5 202,-494.5 97,-494.5"/>
<text text-anchor="middle" x="149.5" y="-501.5" font-family="Helvetica,sans-Serif" font-size="10.00">pushglobalfuncname</text>
</a>
</g>
</g>
<!-- Node1&#45;&gt;Node28 -->
<g id="edge29" class="edge"><title>Node1&#45;&gt;Node28</title>
<path fill="none" stroke="midnightblue" d="M40.0548,-408.802C50.6166,-430.068 70.4851,-464.409 97,-485 101.892,-488.799 107.621,-491.894 113.445,-494.398"/>
<polygon fill="midnightblue" stroke="midnightblue" points="43.0955,-407.047 35.6291,-399.53 36.7782,-410.062 43.0955,-407.047"/>
</g>
<!-- Node49 -->
<g id="node49" class="node"><title>Node49</title>
<g id="a_node49"><a xlink:href="../../d0/da1/ltablib_8c.html#ae7d3f892e2605bf102dce63de388e626" target="_top" xlink:title="sort">
<polygon fill="none" stroke="black" points="133.5,-38.5 133.5,-57.5 165.5,-57.5 165.5,-38.5 133.5,-38.5"/>
<text text-anchor="middle" x="149.5" y="-45.5" font-family="Helvetica,sans-Serif" font-size="10.00">sort</text>
</a>
</g>
</g>
<!-- Node1&#45;&gt;Node49 -->
<g id="edge57" class="edge"><title>Node1&#45;&gt;Node49</title>
<path fill="none" stroke="midnightblue" d="M33.0148,-370.259C38.2076,-307.415 57.2085,-113.415 97,-67 106.056,-56.4366 121.533,-51.7422 133.162,-49.6583"/>
<polygon fill="midnightblue" stroke="midnightblue" points="29.512,-370.155 32.2039,-380.402 36.4898,-370.713 29.512,-370.155"/>
</g>
<!-- Node50 -->
<g id="node50" class="node"><title>Node50</title>
<g id="a_node50"><a xlink:href="../../dc/d77/lstrlib_8c.html#abc94e3a13f1b6ddb2c9b20c9fd89e87f" target="_top" xlink:title="str_dump">
<polygon fill="none" stroke="black" points="121.5,-0.5 121.5,-19.5 177.5,-19.5 177.5,-0.5 121.5,-0.5"/>
<text text-anchor="middle" x="149.5" y="-7.5" font-family="Helvetica,sans-Serif" font-size="10.00">str_dump</text>
</a>
</g>
</g>
<!-- Node1&#45;&gt;Node50 -->
<g id="edge58" class="edge"><title>Node1&#45;&gt;Node50</title>
<path fill="none" stroke="midnightblue" d="M32.5576,-370.176C36.5458,-302.473 52.7649,-81.6863 97,-29 103.128,-21.7013 112.327,-17.2056 121.262,-14.4367"/>
<polygon fill="midnightblue" stroke="midnightblue" points="29.0538,-370.146 31.9852,-380.327 36.0427,-370.54 29.0538,-370.146"/>
</g>
<!-- Node8 -->
<g id="node8" class="node"><title>Node8</title>
<g id="a_node8"><a xlink:href="../../d8/dd3/lbaselib_8c.html#a5c3f578f609d0b87ba75dc1d32287262" target="_top" xlink:title="pcallcont">
<polygon fill="none" stroke="black" points="372,-684.5 372,-703.5 425,-703.5 425,-684.5 372,-684.5"/>
<text text-anchor="middle" x="398.5" y="-691.5" font-family="Helvetica,sans-Serif" font-size="10.00">pcallcont</text>
</a>
</g>
</g>
<!-- Node7&#45;&gt;Node8 -->
<g id="edge7" class="edge"><title>Node7&#45;&gt;Node8</title>
<path fill="none" stroke="midnightblue" d="M316.948,-694C334.905,-694 355.874,-694 371.915,-694"/>
<polygon fill="midnightblue" stroke="midnightblue" points="316.783,-690.5 306.783,-694 316.783,-697.5 316.783,-690.5"/>
</g>
<!-- Node9 -->
<g id="node9" class="node"><title>Node9</title>
<g id="a_node9"><a xlink:href="../../d8/dd3/lbaselib_8c.html#a1fb2725eed679431d070b2e9e7abc223" target="_top" xlink:title="luaB_pcall">
<polygon fill="none" stroke="black" points="499.5,-684.5 499.5,-703.5 560.5,-703.5 560.5,-684.5 499.5,-684.5"/>
<text text-anchor="middle" x="530" y="-691.5" font-family="Helvetica,sans-Serif" font-size="10.00">luaB_pcall</text>
</a>
</g>
</g>
<!-- Node7&#45;&gt;Node9 -->
<g id="edge10" class="edge"><title>Node7&#45;&gt;Node9</title>
<path fill="none" stroke="midnightblue" d="M316.79,-705.516C328.591,-708.585 341.732,-711.47 354,-713 393.252,-717.895 403.678,-717.292 443,-713 462,-710.926 482.95,-706.348 499.415,-702.205"/>
<polygon fill="midnightblue" stroke="midnightblue" points="317.389,-702.051 306.821,-702.801 315.55,-708.805 317.389,-702.051"/>
</g>
<!-- Node10 -->
<g id="node10" class="node"><title>Node10</title>
<g id="a_node10"><a xlink:href="../../d8/dd3/lbaselib_8c.html#a5fbb0094fa1a56f0a4c2547f1ec4c5ab" target="_top" xlink:title="luaB_xpcall">
<polygon fill="none" stroke="black" points="497,-646.5 497,-665.5 563,-665.5 563,-646.5 497,-646.5"/>
<text text-anchor="middle" x="530" y="-653.5" font-family="Helvetica,sans-Serif" font-size="10.00">luaB_xpcall</text>
</a>
</g>
</g>
<!-- Node7&#45;&gt;Node10 -->
<g id="edge11" class="edge"><title>Node7&#45;&gt;Node10</title>
<path fill="none" stroke="midnightblue" d="M316.257,-683.467C328.232,-680.376 341.607,-677.231 354,-675 403.477,-666.092 461.627,-660.787 496.874,-658.133"/>
<polygon fill="midnightblue" stroke="midnightblue" points="315.351,-680.086 306.58,-686.029 317.142,-686.853 315.351,-680.086"/>
</g>
<!-- Node8&#45;&gt;Node9 -->
<g id="edge8" class="edge"><title>Node8&#45;&gt;Node9</title>
<path fill="none" stroke="midnightblue" d="M435.151,-694C455.338,-694 480.289,-694 499.389,-694"/>
<polygon fill="midnightblue" stroke="midnightblue" points="435.085,-690.5 425.085,-694 435.085,-697.5 435.085,-690.5"/>
</g>
<!-- Node8&#45;&gt;Node10 -->
<g id="edge9" class="edge"><title>Node8&#45;&gt;Node10</title>
<path fill="none" stroke="midnightblue" d="M434.715,-683.667C454,-678.008 477.734,-671.043 496.564,-665.518"/>
<polygon fill="midnightblue" stroke="midnightblue" points="433.695,-680.318 425.085,-686.492 435.666,-687.035 433.695,-680.318"/>
</g>
<!-- Node13 -->
<g id="node13" class="node"><title>Node13</title>
<g id="a_node13"><a xlink:href="../../de/df3/liolib_8c.html#a66325940a0248cee288153edb061c0c4" target="_top" xlink:title="aux_lines">
<polygon fill="none" stroke="black" points="617,-38.5 617,-57.5 674,-57.5 674,-38.5 617,-38.5"/>
<text text-anchor="middle" x="645.5" y="-45.5" font-family="Helvetica,sans-Serif" font-size="10.00">aux_lines</text>
</a>
</g>
</g>
<!-- Node12&#45;&gt;Node13 -->
<g id="edge14" class="edge"><title>Node12&#45;&gt;Node13</title>
<path fill="none" stroke="midnightblue" d="M570.687,-48C585.867,-48 602.843,-48 616.685,-48"/>
<polygon fill="midnightblue" stroke="midnightblue" points="570.525,-44.5001 560.524,-48 570.524,-51.5001 570.525,-44.5001"/>
</g>
<!-- Node14 -->
<g id="node14" class="node"><title>Node14</title>
<g id="a_node14"><a xlink:href="../../de/df3/liolib_8c.html#a6a36f72d8b3966c1ebafab8a4791cb6c" target="_top" xlink:title="f_lines">
<polygon fill="none" stroke="black" points="712,-57.5 712,-76.5 755,-76.5 755,-57.5 712,-57.5"/>
<text text-anchor="middle" x="733.5" y="-64.5" font-family="Helvetica,sans-Serif" font-size="10.00">f_lines</text>
</a>
</g>
</g>
<!-- Node13&#45;&gt;Node14 -->
<g id="edge15" class="edge"><title>Node13&#45;&gt;Node14</title>
<path fill="none" stroke="midnightblue" d="M683.979,-56.2801C693.586,-58.4027 703.567,-60.6078 711.961,-62.4622"/>
<polygon fill="midnightblue" stroke="midnightblue" points="684.704,-52.8561 674.184,-54.1163 683.194,-59.6913 684.704,-52.8561"/>
</g>
<!-- Node15 -->
<g id="node15" class="node"><title>Node15</title>
<g id="a_node15"><a xlink:href="../../de/df3/liolib_8c.html#ab08031b51605d4ef676ec33a3b96a286" target="_top" xlink:title="io_lines">
<polygon fill="none" stroke="black" points="710,-19.5 710,-38.5 757,-38.5 757,-19.5 710,-19.5"/>
<text text-anchor="middle" x="733.5" y="-26.5" font-family="Helvetica,sans-Serif" font-size="10.00">io_lines</text>
</a>
</g>
</g>
<!-- Node13&#45;&gt;Node15 -->
<g id="edge16" class="edge"><title>Node13&#45;&gt;Node15</title>
<path fill="none" stroke="midnightblue" d="M684.19,-39.6732C692.903,-37.7482 701.912,-35.7579 709.755,-34.025"/>
<polygon fill="midnightblue" stroke="midnightblue" points="683.194,-36.3088 674.184,-41.8837 684.704,-43.1439 683.194,-36.3088"/>
</g>
<!-- Node21 -->
<g id="node21" class="node"><title>Node21</title>
<g id="a_node21"><a xlink:href="../../d8/dd3/lbaselib_8c.html#a36def102f87ba8c40734489231e90109" target="_top" xlink:title="luaB_pairs">
<polygon fill="none" stroke="black" points="247,-646.5 247,-665.5 309,-665.5 309,-646.5 247,-646.5"/>
<text text-anchor="middle" x="278" y="-653.5" font-family="Helvetica,sans-Serif" font-size="10.00">luaB_pairs</text>
</a>
</g>
</g>
<!-- Node20&#45;&gt;Node21 -->
<g id="edge22" class="edge"><title>Node20&#45;&gt;Node21</title>
<path fill="none" stroke="midnightblue" d="M188.822,-629.512C207.356,-635.079 229.29,-641.668 246.645,-646.881"/>
<polygon fill="midnightblue" stroke="midnightblue" points="189.789,-626.148 179.205,-626.623 187.775,-632.852 189.789,-626.148"/>
</g>
<!-- Node26 -->
<g id="node26" class="node"><title>Node26</title>
<g id="a_node26"><a xlink:href="../../d8/dd3/lbaselib_8c.html#aeb4cb83db820979bbdd7710109b52957" target="_top" xlink:title="luaB_loadfile">
<polygon fill="none" stroke="black" points="243,-76.5 243,-95.5 313,-95.5 313,-76.5 243,-76.5"/>
<text text-anchor="middle" x="278" y="-83.5" font-family="Helvetica,sans-Serif" font-size="10.00">luaB_loadfile</text>
</a>
</g>
</g>
<!-- Node25&#45;&gt;Node26 -->
<g id="edge27" class="edge"><title>Node25&#45;&gt;Node26</title>
<path fill="none" stroke="midnightblue" d="M197.006,-86C212.209,-86 228.803,-86 242.917,-86"/>
<polygon fill="midnightblue" stroke="midnightblue" points="196.75,-82.5001 186.75,-86 196.75,-89.5001 196.75,-82.5001"/>
</g>
<!-- Node29 -->
<g id="node29" class="node"><title>Node29</title>
<g id="a_node29"><a xlink:href="../../d0/d56/lauxlib_8c.html#a0aa557042467d3f84d0663c742b32946" target="_top" xlink:title="pushfuncname">
<polygon fill="none" stroke="black" points="238,-608.5 238,-627.5 318,-627.5 318,-608.5 238,-608.5"/>
<text text-anchor="middle" x="278" y="-615.5" font-family="Helvetica,sans-Serif" font-size="10.00">pushfuncname</text>
</a>
</g>
</g>
<!-- Node28&#45;&gt;Node29 -->
<g id="edge30" class="edge"><title>Node28&#45;&gt;Node29</title>
<path fill="none" stroke="midnightblue" d="M193.601,-517.789C196.544,-519.363 199.378,-521.096 202,-523 235.159,-547.074 261.318,-589.593 271.902,-608.489"/>
<polygon fill="midnightblue" stroke="midnightblue" points="195.084,-514.619 184.545,-513.531 192.105,-520.953 195.084,-514.619"/>
</g>
<!-- Node32 -->
<g id="node32" class="node"><title>Node32</title>
<g id="a_node32"><a xlink:href="../../da/d29/lauxlib_8h.html#a526c220d17273c63ce9973bcde4a2c4a" target="_top" xlink:title="luaL_argerror">
<polygon fill="none" stroke="black" points="242.5,-266.5 242.5,-285.5 313.5,-285.5 313.5,-266.5 242.5,-266.5"/>
<text text-anchor="middle" x="278" y="-273.5" font-family="Helvetica,sans-Serif" font-size="10.00">luaL_argerror</text>
</a>
</g>
</g>
<!-- Node28&#45;&gt;Node32 -->
<g id="edge33" class="edge"><title>Node28&#45;&gt;Node32</title>
<path fill="none" stroke="midnightblue" d="M197.369,-489.021C199.012,-487.784 200.566,-486.447 202,-485 260.346,-426.133 273.589,-318.728 276.335,-285.836"/>
<polygon fill="midnightblue" stroke="midnightblue" points="195.262,-486.207 188.545,-494.4 198.906,-492.184 195.262,-486.207"/>
</g>
<!-- Node30 -->
<g id="node30" class="node"><title>Node30</title>
<g id="a_node30"><a xlink:href="../../da/d29/lauxlib_8h.html#a664cc293d6c7a7dc67857fe95583a10e" target="_top" xlink:title="luaL_traceback">
<polygon fill="none" stroke="black" points="358,-608.5 358,-627.5 439,-627.5 439,-608.5 358,-608.5"/>
<text text-anchor="middle" x="398.5" y="-615.5" font-family="Helvetica,sans-Serif" font-size="10.00">luaL_traceback</text>
</a>
</g>
</g>
<!-- Node29&#45;&gt;Node30 -->
<g id="edge31" class="edge"><title>Node29&#45;&gt;Node30</title>
<path fill="none" stroke="midnightblue" d="M328.163,-618C337.968,-618 348.153,-618 357.601,-618"/>
<polygon fill="midnightblue" stroke="midnightblue" points="328.13,-614.5 318.13,-618 328.13,-621.5 328.13,-614.5"/>
</g>
<!-- Node31 -->
<g id="node31" class="node"><title>Node31</title>
<g id="a_node31"><a xlink:href="../../d8/d97/ldblib_8c.html#ae0792d4f3f6eedd535895e05426b82df" target="_top" xlink:title="db_traceback">
<polygon fill="none" stroke="black" points="493,-608.5 493,-627.5 567,-627.5 567,-608.5 493,-608.5"/>
<text text-anchor="middle" x="530" y="-615.5" font-family="Helvetica,sans-Serif" font-size="10.00">db_traceback</text>
</a>
</g>
</g>
<!-- Node30&#45;&gt;Node31 -->
<g id="edge32" class="edge"><title>Node30&#45;&gt;Node31</title>
<path fill="none" stroke="midnightblue" d="M449.356,-618C463.813,-618 479.319,-618 492.771,-618"/>
<polygon fill="midnightblue" stroke="midnightblue" points="449.058,-614.5 439.058,-618 449.058,-621.5 449.058,-614.5"/>
</g>
<!-- Node32&#45;&gt;Node4 -->
<g id="edge52" class="edge"><title>Node32&#45;&gt;Node4</title>
<path fill="none" stroke="midnightblue" d="M323.954,-279.96C357.007,-283.174 402.955,-288.275 443,-295 461.095,-298.039 481.123,-302.404 497.295,-306.184"/>
<polygon fill="midnightblue" stroke="midnightblue" points="323.986,-276.447 313.699,-278.983 323.322,-283.416 323.986,-276.447"/>
</g>
<!-- Node32&#45;&gt;Node6 -->
<g id="edge49" class="edge"><title>Node32&#45;&gt;Node6</title>
<path fill="none" stroke="midnightblue" d="M309.511,-291.322C312.709,-293.878 315.645,-296.767 318,-300 357.61,-354.365 310.689,-395.535 354,-447 357.184,-450.783 361.265,-453.837 365.647,-456.295"/>
<polygon fill="midnightblue" stroke="midnightblue" points="311.439,-288.4 301.207,-285.651 307.491,-294.181 311.439,-288.4"/>
</g>
<!-- Node33 -->
<g id="node33" class="node"><title>Node33</title>
<g id="a_node33"><a xlink:href="../../d0/d56/lauxlib_8c.html#ae1abbe81af2d487f783ed9b4e5a6c7fd" target="_top" xlink:title="typeerror">
<polygon fill="none" stroke="black" points="372,-190.5 372,-209.5 425,-209.5 425,-190.5 372,-190.5"/>
<text text-anchor="middle" x="398.5" y="-197.5" font-family="Helvetica,sans-Serif" font-size="10.00">typeerror</text>
</a>
</g>
</g>
<!-- Node32&#45;&gt;Node33 -->
<g id="edge34" class="edge"><title>Node32&#45;&gt;Node33</title>
<path fill="none" stroke="midnightblue" d="M302.477,-260.943C326.303,-245.662 362.466,-222.469 382.614,-209.547"/>
<polygon fill="midnightblue" stroke="midnightblue" points="300.536,-258.03 294.008,-266.375 304.315,-263.922 300.536,-258.03"/>
</g>
<!-- Node36 -->
<g id="node36" class="node"><title>Node36</title>
<g id="a_node36"><a xlink:href="../../da/d29/lauxlib_8h.html#a638633914d3a19650db8320c1fccf161" target="_top" xlink:title="luaL_checkoption">
<polygon fill="none" stroke="black" points="354,-152.5 354,-171.5 443,-171.5 443,-152.5 354,-152.5"/>
<text text-anchor="middle" x="398.5" y="-159.5" font-family="Helvetica,sans-Serif" font-size="10.00">luaL_checkoption</text>
</a>
</g>
</g>
<!-- Node32&#45;&gt;Node36 -->
<g id="edge37" class="edge"><title>Node32&#45;&gt;Node36</title>
<path fill="none" stroke="midnightblue" d="M289.532,-257.773C302.419,-236.835 326.011,-202.595 354,-181 358.828,-177.275 364.5,-174.115 370.124,-171.506"/>
<polygon fill="midnightblue" stroke="midnightblue" points="286.522,-255.987 284.387,-266.364 292.528,-259.583 286.522,-255.987"/>
</g>
<!-- Node41 -->
<g id="node41" class="node"><title>Node41</title>
<g id="a_node41"><a xlink:href="../../da/d29/lauxlib_8h.html#ad78c85dce421e9cb793e205b9e81c640" target="_top" xlink:title="luaL_checkany">
<polygon fill="none" stroke="red" points="358.5,-418.5 358.5,-437.5 438.5,-437.5 438.5,-418.5 358.5,-418.5"/>
<text text-anchor="middle" x="398.5" y="-425.5" font-family="Helvetica,sans-Serif" font-size="10.00">luaL_checkany</text>
</a>
</g>
</g>
<!-- Node32&#45;&gt;Node41 -->
<g id="edge42" class="edge"><title>Node32&#45;&gt;Node41</title>
<path fill="none" stroke="midnightblue" d="M309.057,-291.343C312.376,-293.908 315.465,-296.794 318,-300 349.644,-340.019 319.637,-371.29 354,-409 357.441,-412.777 361.767,-415.838 366.348,-418.31"/>
<polygon fill="midnightblue" stroke="midnightblue" points="310.775,-288.281 300.518,-285.627 306.881,-294.098 310.775,-288.281"/>
</g>
<!-- Node44 -->
<g id="node44" class="node"><title>Node44</title>
<g id="a_node44"><a xlink:href="../../d8/d97/ldblib_8c.html#a4eb57e66c2efb2d31c9b9e1b01d27e13" target="_top" xlink:title="db_getinfo">
<polygon fill="none" stroke="black" points="368.5,-76.5 368.5,-95.5 428.5,-95.5 428.5,-76.5 368.5,-76.5"/>
<text text-anchor="middle" x="398.5" y="-83.5" font-family="Helvetica,sans-Serif" font-size="10.00">db_getinfo</text>
</a>
</g>
</g>
<!-- Node32&#45;&gt;Node44 -->
<g id="edge50" class="edge"><title>Node32&#45;&gt;Node44</title>
<path fill="none" stroke="midnightblue" d="M285.526,-256.499C299.19,-216.611 331.411,-127.555 354,-105 358.082,-100.924 363.184,-97.6565 368.443,-95.06"/>
<polygon fill="midnightblue" stroke="midnightblue" points="282.153,-255.547 282.257,-266.141 288.783,-257.794 282.153,-255.547"/>
</g>
<!-- Node45 -->
<g id="node45" class="node"><title>Node45</title>
<g id="a_node45"><a xlink:href="../../d8/d97/ldblib_8c.html#ae802ce7397e9ebb08a90b69976578ecc" target="_top" xlink:title="db_getlocal">
<polygon fill="none" stroke="black" points="366,-380.5 366,-399.5 431,-399.5 431,-380.5 366,-380.5"/>
<text text-anchor="middle" x="398.5" y="-387.5" font-family="Helvetica,sans-Serif" font-size="10.00">db_getlocal</text>
</a>
</g>
</g>
<!-- Node32&#45;&gt;Node45 -->
<g id="edge51" class="edge"><title>Node32&#45;&gt;Node45</title>
<path fill="none" stroke="midnightblue" d="M307.87,-291.186C311.533,-293.828 315.031,-296.776 318,-300 341.966,-326.027 328.274,-346.711 354,-371 357.955,-374.734 362.762,-377.805 367.719,-380.308"/>
<polygon fill="midnightblue" stroke="midnightblue" points="309.499,-288.072 299.199,-285.592 305.705,-293.954 309.499,-288.072"/>
</g>
<!-- Node46 -->
<g id="node46" class="node"><title>Node46</title>
<g id="a_node46"><a xlink:href="../../de/df3/liolib_8c.html#addece2406777a40f0f591e3518293932" target="_top" xlink:title="g_read">
<polygon fill="none" stroke="red" points="375.5,-114.5 375.5,-133.5 421.5,-133.5 421.5,-114.5 375.5,-114.5"/>
<text text-anchor="middle" x="398.5" y="-121.5" font-family="Helvetica,sans-Serif" font-size="10.00">g_read</text>
</a>
</g>
</g>
<!-- Node32&#45;&gt;Node46 -->
<g id="edge53" class="edge"><title>Node32&#45;&gt;Node46</title>
<path fill="none" stroke="midnightblue" d="M285.39,-256.672C295.672,-228.265 318.414,-175.14 354,-143 359.994,-137.587 367.773,-133.534 375.093,-130.593"/>
<polygon fill="midnightblue" stroke="midnightblue" points="282.037,-255.658 282.059,-266.253 288.649,-257.957 282.037,-255.658"/>
</g>
<!-- Node47 -->
<g id="node47" class="node"><title>Node47</title>
<g id="a_node47"><a xlink:href="../../dc/dba/loslib_8c.html#aed631522193ea719b6d96782f3e26b6a" target="_top" xlink:title="checkoption">
<polygon fill="none" stroke="red" points="365.5,-342.5 365.5,-361.5 431.5,-361.5 431.5,-342.5 365.5,-342.5"/>
<text text-anchor="middle" x="398.5" y="-349.5" font-family="Helvetica,sans-Serif" font-size="10.00">checkoption</text>
</a>
</g>
</g>
<!-- Node32&#45;&gt;Node47 -->
<g id="edge55" class="edge"><title>Node32&#45;&gt;Node47</title>
<path fill="none" stroke="midnightblue" d="M305.028,-291.059C309.454,-293.889 313.932,-296.928 318,-300 335.321,-313.08 335.807,-321.162 354,-333 359.388,-336.506 365.531,-339.639 371.468,-342.302"/>
<polygon fill="midnightblue" stroke="midnightblue" points="306.513,-287.863 296.163,-285.601 302.844,-293.824 306.513,-287.863"/>
</g>
<!-- Node48 -->
<g id="node48" class="node"><title>Node48</title>
<g id="a_node48"><a xlink:href="../../dc/d77/lstrlib_8c.html#ae26a9374857058119e59d0328208c2f2" target="_top" xlink:title="str_format">
<polygon fill="none" stroke="black" points="370,-304.5 370,-323.5 427,-323.5 427,-304.5 370,-304.5"/>
<text text-anchor="middle" x="398.5" y="-311.5" font-family="Helvetica,sans-Serif" font-size="10.00">str_format</text>
</a>
</g>
</g>
<!-- Node32&#45;&gt;Node48 -->
<g id="edge56" class="edge"><title>Node32&#45;&gt;Node48</title>
<path fill="none" stroke="midnightblue" d="M318.453,-288.652C335.224,-294.03 354.385,-300.174 369.642,-305.067"/>
<polygon fill="midnightblue" stroke="midnightblue" points="319.494,-285.31 308.903,-285.589 317.356,-291.975 319.494,-285.31"/>
</g>
<!-- Node34 -->
<g id="node34" class="node"><title>Node34</title>
<g id="a_node34"><a xlink:href="../../d0/d56/lauxlib_8c.html#a84f86d7f2603b98e935740de1efb858d" target="_top" xlink:title="tag_error">
<polygon fill="none" stroke="red" points="503.5,-266.5 503.5,-285.5 556.5,-285.5 556.5,-266.5 503.5,-266.5"/>
<text text-anchor="middle" x="530" y="-273.5" font-family="Helvetica,sans-Serif" font-size="10.00">tag_error</text>
</a>
</g>
</g>
<!-- Node33&#45;&gt;Node34 -->
<g id="edge35" class="edge"><title>Node33&#45;&gt;Node34</title>
<path fill="none" stroke="midnightblue" d="M428.12,-214.514C433.208,-217.45 438.359,-220.666 443,-224 460.627,-236.665 460.525,-245.608 479,-257 486.509,-261.63 495.331,-265.44 503.456,-268.402"/>
<polygon fill="midnightblue" stroke="midnightblue" points="429.601,-211.335 419.155,-209.568 426.22,-217.464 429.601,-211.335"/>
</g>
<!-- Node35 -->
<g id="node35" class="node"><title>Node35</title>
<g id="a_node35"><a xlink:href="../../da/d29/lauxlib_8h.html#aed8d8e4f3b95c6bcac246ec9895027b1" target="_top" xlink:title="luaL_checkudata">
<polygon fill="none" stroke="black" points="485.5,-228.5 485.5,-247.5 574.5,-247.5 574.5,-228.5 485.5,-228.5"/>
<text text-anchor="middle" x="530" y="-235.5" font-family="Helvetica,sans-Serif" font-size="10.00">luaL_checkudata</text>
</a>
</g>
</g>
<!-- Node33&#45;&gt;Node35 -->
<g id="edge36" class="edge"><title>Node33&#45;&gt;Node35</title>
<path fill="none" stroke="midnightblue" d="M434.715,-210.333C454,-215.992 477.734,-222.957 496.564,-228.482"/>
<polygon fill="midnightblue" stroke="midnightblue" points="435.666,-206.965 425.085,-207.508 433.695,-213.682 435.666,-206.965"/>
</g>
<!-- Node37 -->
<g id="node37" class="node"><title>Node37</title>
<g id="a_node37"><a xlink:href="../../d8/dd3/lbaselib_8c.html#a07f71966c943cc9761ab129f64d4ac80" target="_top" xlink:title="luaB_collectgarbage">
<polygon fill="none" stroke="black" points="479,-76.5 479,-95.5 581,-95.5 581,-76.5 479,-76.5"/>
<text text-anchor="middle" x="530" y="-83.5" font-family="Helvetica,sans-Serif" font-size="10.00">luaB_collectgarbage</text>
</a>
</g>
</g>
<!-- Node36&#45;&gt;Node37 -->
<g id="edge38" class="edge"><title>Node36&#45;&gt;Node37</title>
<path fill="none" stroke="midnightblue" d="M435.365,-147.752C438.021,-146.272 440.597,-144.687 443,-143 462.04,-129.632 459.64,-117.901 479,-105 484.564,-101.292 490.953,-98.1675 497.264,-95.5907"/>
<polygon fill="midnightblue" stroke="midnightblue" points="433.539,-144.752 426.172,-152.367 436.679,-151.008 433.539,-144.752"/>
</g>
<!-- Node38 -->
<g id="node38" class="node"><title>Node38</title>
<g id="a_node38"><a xlink:href="../../de/df3/liolib_8c.html#ace5e1a23cc9e2ffe7ae6cc523e54de73" target="_top" xlink:title="f_seek">
<polygon fill="none" stroke="black" points="508,-190.5 508,-209.5 552,-209.5 552,-190.5 508,-190.5"/>
<text text-anchor="middle" x="530" y="-197.5" font-family="Helvetica,sans-Serif" font-size="10.00">f_seek</text>
</a>
</g>
</g>
<!-- Node36&#45;&gt;Node38 -->
<g id="edge39" class="edge"><title>Node36&#45;&gt;Node38</title>
<path fill="none" stroke="midnightblue" d="M441.974,-174.463C463.987,-180.923 489.913,-188.53 507.706,-193.752"/>
<polygon fill="midnightblue" stroke="midnightblue" points="442.759,-171.046 432.178,-171.589 440.788,-177.763 442.759,-171.046"/>
</g>
<!-- Node39 -->
<g id="node39" class="node"><title>Node39</title>
<g id="a_node39"><a xlink:href="../../de/df3/liolib_8c.html#aa7d559e7d43a6133ec495d6b4e5d68f2" target="_top" xlink:title="f_setvbuf">
<polygon fill="none" stroke="black" points="502,-152.5 502,-171.5 558,-171.5 558,-152.5 502,-152.5"/>
<text text-anchor="middle" x="530" y="-159.5" font-family="Helvetica,sans-Serif" font-size="10.00">f_setvbuf</text>
</a>
</g>
</g>
<!-- Node36&#45;&gt;Node39 -->
<g id="edge40" class="edge"><title>Node36&#45;&gt;Node39</title>
<path fill="none" stroke="midnightblue" d="M453.538,-162C470.18,-162 487.792,-162 501.813,-162"/>
<polygon fill="midnightblue" stroke="midnightblue" points="453.343,-158.5 443.343,-162 453.343,-165.5 453.343,-158.5"/>
</g>
<!-- Node40 -->
<g id="node40" class="node"><title>Node40</title>
<g id="a_node40"><a xlink:href="../../dc/dba/loslib_8c.html#a148e76ec4bfa32f07c0bd8c802960113" target="_top" xlink:title="os_setlocale">
<polygon fill="none" stroke="black" points="495.5,-114.5 495.5,-133.5 564.5,-133.5 564.5,-114.5 495.5,-114.5"/>
<text text-anchor="middle" x="530" y="-121.5" font-family="Helvetica,sans-Serif" font-size="10.00">os_setlocale</text>
</a>
</g>
</g>
<!-- Node36&#45;&gt;Node40 -->
<g id="edge41" class="edge"><title>Node36&#45;&gt;Node40</title>
<path fill="none" stroke="midnightblue" d="M442.219,-149.465C459.836,-144.295 479.923,-138.401 496.332,-133.586"/>
<polygon fill="midnightblue" stroke="midnightblue" points="440.788,-146.237 432.178,-152.411 442.759,-152.954 440.788,-146.237"/>
</g>
<!-- Node41&#45;&gt;Node4 -->
<g id="edge48" class="edge"><title>Node41&#45;&gt;Node4</title>
<path fill="none" stroke="midnightblue" d="M435.408,-413.812C438.054,-412.319 440.616,-410.714 443,-409 478.04,-383.802 509.361,-342.238 522.476,-323.584"/>
<polygon fill="midnightblue" stroke="midnightblue" points="433.577,-410.816 426.233,-418.453 436.736,-417.063 433.577,-410.816"/>
</g>
<!-- Node41&#45;&gt;Node9 -->
<g id="edge47" class="edge"><title>Node41&#45;&gt;Node9</title>
<path fill="none" stroke="midnightblue" d="M440.331,-443.981C441.284,-444.931 442.178,-445.936 443,-447 505.72,-528.183 414.324,-595.367 479,-675 484.152,-681.343 491.67,-685.571 499.319,-688.387"/>
<polygon fill="midnightblue" stroke="midnightblue" points="442.155,-440.972 432.069,-437.728 437.931,-446.553 442.155,-440.972"/>
</g>
<!-- Node41&#45;&gt;Node22 -->
<g id="edge45" class="edge"><title>Node41&#45;&gt;Node22</title>
<path fill="none" stroke="midnightblue" d="M437.582,-442.713C439.498,-444.035 441.321,-445.462 443,-447 467.638,-469.57 455.685,-489.065 479,-513 486.842,-521.051 497.393,-527.608 506.781,-532.437"/>
<polygon fill="midnightblue" stroke="midnightblue" points="439.141,-439.57 428.737,-437.566 435.62,-445.621 439.141,-439.57"/>
</g>
<!-- Node41&#45;&gt;Node23 -->
<g id="edge46" class="edge"><title>Node41&#45;&gt;Node23</title>
<path fill="none" stroke="midnightblue" d="M431.923,-441.784C435.68,-443.492 439.439,-445.254 443,-447 467.595,-459.063 495.269,-474.542 512.421,-484.37"/>
<polygon fill="midnightblue" stroke="midnightblue" points="433.26,-438.548 422.701,-437.682 430.416,-444.944 433.26,-438.548"/>
</g>
<!-- Node42 -->
<g id="node42" class="node"><title>Node42</title>
<g id="a_node42"><a xlink:href="../../d8/dd3/lbaselib_8c.html#a6224f7b7c4485996e1c22eae32de990d" target="_top" xlink:title="luaB_tonumber">
<polygon fill="none" stroke="black" points="490,-389.5 490,-408.5 570,-408.5 570,-389.5 490,-389.5"/>
<text text-anchor="middle" x="530" y="-396.5" font-family="Helvetica,sans-Serif" font-size="10.00">luaB_tonumber</text>
</a>
</g>
</g>
<!-- Node41&#45;&gt;Node42 -->
<g id="edge43" class="edge"><title>Node41&#45;&gt;Node42</title>
<path fill="none" stroke="midnightblue" d="M448.468,-417.034C462.172,-413.965 476.88,-410.672 489.928,-407.75"/>
<polygon fill="midnightblue" stroke="midnightblue" points="447.699,-413.62 438.706,-419.22 449.229,-420.45 447.699,-413.62"/>
</g>
<!-- Node43 -->
<g id="node43" class="node"><title>Node43</title>
<g id="a_node43"><a xlink:href="../../d8/dd3/lbaselib_8c.html#addfd66adcbe4c777cf5e10536d27d8b1" target="_top" xlink:title="luaB_getmetatable">
<polygon fill="none" stroke="black" points="482,-427.5 482,-446.5 578,-446.5 578,-427.5 482,-427.5"/>
<text text-anchor="middle" x="530" y="-434.5" font-family="Helvetica,sans-Serif" font-size="10.00">luaB_getmetatable</text>
</a>
</g>
</g>
<!-- Node41&#45;&gt;Node43 -->
<g id="edge44" class="edge"><title>Node41&#45;&gt;Node43</title>
<path fill="none" stroke="midnightblue" d="M448.82,-431.428C459.608,-432.177 471.002,-432.969 481.708,-433.713"/>
<polygon fill="midnightblue" stroke="midnightblue" points="448.924,-427.927 438.706,-430.725 448.439,-434.91 448.924,-427.927"/>
</g>
<!-- Node46&#45;&gt;Node12 -->
<g id="edge54" class="edge"><title>Node46&#45;&gt;Node12</title>
<path fill="none" stroke="midnightblue" d="M430.864,-112.128C435.092,-110.01 439.257,-107.628 443,-105 462.04,-91.6323 459.64,-79.9005 479,-67 485.182,-62.8805 492.383,-59.4803 499.363,-56.752"/>
<polygon fill="midnightblue" stroke="midnightblue" points="429.289,-109 421.648,-116.339 432.199,-115.366 429.289,-109"/>
</g>
</g>
</svg>
