<?xml version="1.0" encoding="UTF-8" standalone="no"?>
<!DOCTYPE svg PUBLIC "-//W3C//DTD SVG 1.1//EN"
 "http://www.w3.org/Graphics/SVG/1.1/DTD/svg11.dtd">
<!-- Generated by graphviz version 2.38.0 (20140413.2041)
 -->
<!-- Title: lua_type Pages: 1 -->
<svg width="444pt" height="1434pt"
 viewBox="0.00 0.00 444.00 1434.00" xmlns="http://www.w3.org/2000/svg" xmlns:xlink="http://www.w3.org/1999/xlink">
<g id="graph0" class="graph" transform="scale(1 1) rotate(0) translate(4 1430)">
<title>lua_type</title>
<!-- Node1 -->
<g id="node1" class="node"><title>Node1</title>
<polygon fill="#bfbfbf" stroke="black" points="0,-817.5 0,-836.5 53,-836.5 53,-817.5 0,-817.5"/>
<text text-anchor="middle" x="26.5" y="-824.5" font-family="Helvetica,sans-Serif" font-size="10.00">lua_type</text>
</g>
<!-- Node2 -->
<g id="node2" class="node"><title>Node2</title>
<g id="a_node2"><a xlink:href="../../d8/d97/ldblib_8c.html#a129f5b6b3a5f37b1b05a6db5b3a1e0be" target="_top" xlink:title="db_getuservalue">
<polygon fill="none" stroke="black" points="89.5,-1311.5 89.5,-1330.5 176.5,-1330.5 176.5,-1311.5 89.5,-1311.5"/>
<text text-anchor="middle" x="133" y="-1318.5" font-family="Helvetica,sans-Serif" font-size="10.00">db_getuservalue</text>
</a>
</g>
</g>
<!-- Node1&#45;&gt;Node2 -->
<g id="edge1" class="edge"><title>Node1&#45;&gt;Node2</title>
<path fill="none" stroke="midnightblue" d="M27.5491,-846.944C28.1207,-927.538 33.9673,-1228.35 89,-1302 91.8336,-1305.79 95.5904,-1308.84 99.7067,-1311.29"/>
<polygon fill="midnightblue" stroke="midnightblue" points="31.0479,-846.687 27.4978,-836.704 24.048,-846.722 31.0479,-846.687"/>
</g>
<!-- Node3 -->
<g id="node3" class="node"><title>Node3</title>
<g id="a_node3"><a xlink:href="../../d8/d97/ldblib_8c.html#a3595aee1af712c0ba9c586feb763bffc" target="_top" xlink:title="db_setmetatable">
<polygon fill="none" stroke="black" points="89,-1273.5 89,-1292.5 177,-1292.5 177,-1273.5 89,-1273.5"/>
<text text-anchor="middle" x="133" y="-1280.5" font-family="Helvetica,sans-Serif" font-size="10.00">db_setmetatable</text>
</a>
</g>
</g>
<!-- Node1&#45;&gt;Node3 -->
<g id="edge2" class="edge"><title>Node1&#45;&gt;Node3</title>
<path fill="none" stroke="midnightblue" d="M28.0327,-846.924C30.3963,-922.483 42.0013,-1190.53 89,-1259 93.161,-1265.06 99.3791,-1269.76 105.803,-1273.32"/>
<polygon fill="midnightblue" stroke="midnightblue" points="31.5294,-846.756 27.7383,-836.862 24.5324,-846.961 31.5294,-846.756"/>
</g>
<!-- Node4 -->
<g id="node4" class="node"><title>Node4</title>
<g id="a_node4"><a xlink:href="../../d8/d97/ldblib_8c.html#a233c3c4d12bda0fdbf515a18b8961461" target="_top" xlink:title="db_setuservalue">
<polygon fill="none" stroke="black" points="222,-1026.5 222,-1045.5 309,-1045.5 309,-1026.5 222,-1026.5"/>
<text text-anchor="middle" x="265.5" y="-1033.5" font-family="Helvetica,sans-Serif" font-size="10.00">db_setuservalue</text>
</a>
</g>
</g>
<!-- Node1&#45;&gt;Node4 -->
<g id="edge3" class="edge"><title>Node1&#45;&gt;Node4</title>
<path fill="none" stroke="midnightblue" d="M35.8006,-845.925C46.0643,-867.871 65.1368,-904.314 89,-930 134.822,-979.322 153.367,-985.755 213,-1017 219.753,-1020.54 227.315,-1023.72 234.52,-1026.42"/>
<polygon fill="midnightblue" stroke="midnightblue" points="38.9271,-844.345 31.603,-836.689 32.5544,-847.241 38.9271,-844.345"/>
</g>
<!-- Node5 -->
<g id="node5" class="node"><title>Node5</title>
<g id="a_node5"><a xlink:href="../../d0/d56/lauxlib_8c.html#a36c8f149b779f8c9a5c042ea9784d80a" target="_top" xlink:title="findfield">
<polygon fill="none" stroke="black" points="109.5,-237.5 109.5,-256.5 156.5,-256.5 156.5,-237.5 109.5,-237.5"/>
<text text-anchor="middle" x="133" y="-244.5" font-family="Helvetica,sans-Serif" font-size="10.00">findfield</text>
</a>
</g>
</g>
<!-- Node1&#45;&gt;Node5 -->
<g id="edge4" class="edge"><title>Node1&#45;&gt;Node5</title>
<path fill="none" stroke="midnightblue" d="M28.4823,-807.293C32.0533,-742.496 46.4517,-530.491 89,-361 99.0431,-320.993 118.735,-275.79 127.55,-256.519"/>
<polygon fill="midnightblue" stroke="midnightblue" points="24.9845,-807.161 27.9524,-817.332 31.9748,-807.53 24.9845,-807.161"/>
</g>
<!-- Node7 -->
<g id="node7" class="node"><title>Node7</title>
<g id="a_node7"><a xlink:href="../../de/df3/liolib_8c.html#addece2406777a40f0f591e3518293932" target="_top" xlink:title="g_read">
<polygon fill="none" stroke="black" points="110,-152.5 110,-171.5 156,-171.5 156,-152.5 110,-152.5"/>
<text text-anchor="middle" x="133" y="-159.5" font-family="Helvetica,sans-Serif" font-size="10.00">g_read</text>
</a>
</g>
</g>
<!-- Node1&#45;&gt;Node7 -->
<g id="edge6" class="edge"><title>Node1&#45;&gt;Node7</title>
<path fill="none" stroke="midnightblue" d="M28.2797,-807.235C32.0523,-716.399 49.8537,-338.709 89,-228 96.7504,-206.081 113.169,-184.169 123.326,-171.92"/>
<polygon fill="midnightblue" stroke="midnightblue" points="24.7724,-807.346 27.8638,-817.48 31.7666,-807.63 24.7724,-807.346"/>
</g>
<!-- Node11 -->
<g id="node11" class="node"><title>Node11</title>
<g id="a_node11"><a xlink:href="../../de/df3/liolib_8c.html#a88c73a30c7d135dfb4958b7bfaa90cc7" target="_top" xlink:title="g_write">
<polygon fill="none" stroke="black" points="109.5,-114.5 109.5,-133.5 156.5,-133.5 156.5,-114.5 109.5,-114.5"/>
<text text-anchor="middle" x="133" y="-121.5" font-family="Helvetica,sans-Serif" font-size="10.00">g_write</text>
</a>
</g>
</g>
<!-- Node1&#45;&gt;Node11 -->
<g id="edge10" class="edge"><title>Node1&#45;&gt;Node11</title>
<path fill="none" stroke="midnightblue" d="M28.0949,-807.168C31.4486,-700.568 49.2748,-198.386 89,-143 93.8519,-136.235 101.664,-131.845 109.307,-129.011"/>
<polygon fill="midnightblue" stroke="midnightblue" points="24.5954,-807.102 27.7856,-817.205 31.5921,-807.317 24.5954,-807.102"/>
</g>
<!-- Node14 -->
<g id="node14" class="node"><title>Node14</title>
<g id="a_node14"><a xlink:href="../../da/dd2/lua_8h.html#a70f6031d538713cb3b6093adbc658909" target="_top" xlink:title="lua_isstring">
<polygon fill="none" stroke="black" points="101.5,-1197.5 101.5,-1216.5 164.5,-1216.5 164.5,-1197.5 101.5,-1197.5"/>
<text text-anchor="middle" x="133" y="-1204.5" font-family="Helvetica,sans-Serif" font-size="10.00">lua_isstring</text>
</a>
</g>
</g>
<!-- Node1&#45;&gt;Node14 -->
<g id="edge13" class="edge"><title>Node1&#45;&gt;Node14</title>
<path fill="none" stroke="midnightblue" d="M31.2798,-846.439C39.9365,-890.065 62.5082,-998.925 89,-1088 101.274,-1129.27 119.959,-1177.1 128.044,-1197.25"/>
<polygon fill="midnightblue" stroke="midnightblue" points="34.7059,-845.722 29.342,-836.585 27.8374,-847.072 34.7059,-845.722"/>
</g>
<!-- Node16 -->
<g id="node16" class="node"><title>Node16</title>
<g id="a_node16"><a xlink:href="../../d1/dc2/_kensho_lua_wrapper_8m.html#a659a5a25271d0c7e4f5478f828a93b41" target="_top" xlink:title="popValue">
<polygon fill="none" stroke="black" points="236,-1406.5 236,-1425.5 295,-1425.5 295,-1406.5 236,-1406.5"/>
<text text-anchor="middle" x="265.5" y="-1413.5" font-family="Helvetica,sans-Serif" font-size="10.00">popValue</text>
</a>
</g>
</g>
<!-- Node1&#45;&gt;Node16 -->
<g id="edge58" class="edge"><title>Node1&#45;&gt;Node16</title>
<path fill="none" stroke="midnightblue" d="M28.0789,-846.897C30.546,-919.009 42.3053,-1165.59 89,-1226 115.054,-1259.71 148.783,-1232.08 177,-1264 214.727,-1306.67 177.569,-1342.4 213,-1387 219.702,-1395.44 229.57,-1401.83 238.879,-1406.44"/>
<polygon fill="midnightblue" stroke="midnightblue" points="31.5656,-846.421 27.7489,-836.538 24.5692,-846.644 31.5656,-846.421"/>
</g>
<!-- Node24 -->
<g id="node24" class="node"><title>Node24</title>
<g id="a_node24"><a xlink:href="../../dc/d77/lstrlib_8c.html#a42337c674d265175bcc2b2f3809c7339" target="_top" xlink:title="str_gsub">
<polygon fill="none" stroke="black" points="368.5,-1159.5 368.5,-1178.5 421.5,-1178.5 421.5,-1159.5 368.5,-1159.5"/>
<text text-anchor="middle" x="395" y="-1166.5" font-family="Helvetica,sans-Serif" font-size="10.00">str_gsub</text>
</a>
</g>
</g>
<!-- Node1&#45;&gt;Node24 -->
<g id="edge59" class="edge"><title>Node1&#45;&gt;Node24</title>
<path fill="none" stroke="midnightblue" d="M31.5094,-846.782C38.5798,-877.562 55.7654,-937.478 89,-977 130.904,-1026.83 154.498,-1026.42 213,-1055 257.593,-1076.78 276.119,-1066.37 318,-1093 347.446,-1111.72 374.426,-1143.64 386.83,-1159.49"/>
<polygon fill="midnightblue" stroke="midnightblue" points="34.8953,-845.881 29.3512,-836.853 28.055,-847.368 34.8953,-845.881"/>
</g>
<!-- Node26 -->
<g id="node26" class="node"><title>Node26</title>
<g id="a_node26"><a xlink:href="../../d8/dd3/lbaselib_8c.html#a68b39dfb2717573478ca211e9785dc6a" target="_top" xlink:title="luaB_rawlen">
<polygon fill="none" stroke="black" points="98,-76.5 98,-95.5 168,-95.5 168,-76.5 98,-76.5"/>
<text text-anchor="middle" x="133" y="-83.5" font-family="Helvetica,sans-Serif" font-size="10.00">luaB_rawlen</text>
</a>
</g>
</g>
<!-- Node1&#45;&gt;Node26 -->
<g id="edge26" class="edge"><title>Node1&#45;&gt;Node26</title>
<path fill="none" stroke="midnightblue" d="M27.9968,-807.125C30.908,-696.919 47.0902,-163.723 89,-105 91.7499,-101.147 95.4609,-98.0645 99.5565,-95.6013"/>
<polygon fill="midnightblue" stroke="midnightblue" points="24.4898,-807.356 27.7308,-817.443 31.4874,-807.537 24.4898,-807.356"/>
</g>
<!-- Node27 -->
<g id="node27" class="node"><title>Node27</title>
<g id="a_node27"><a xlink:href="../../d8/dd3/lbaselib_8c.html#ac2909062d4ac2b0396c640407e5b19d8" target="_top" xlink:title="luaB_select">
<polygon fill="none" stroke="black" points="100.5,-38.5 100.5,-57.5 165.5,-57.5 165.5,-38.5 100.5,-38.5"/>
<text text-anchor="middle" x="133" y="-45.5" font-family="Helvetica,sans-Serif" font-size="10.00">luaB_select</text>
</a>
</g>
</g>
<!-- Node1&#45;&gt;Node27 -->
<g id="edge27" class="edge"><title>Node1&#45;&gt;Node27</title>
<path fill="none" stroke="midnightblue" d="M27.9066,-807.153C30.3894,-693.591 44.8937,-129.078 89,-67 91.9308,-62.875 95.9642,-59.6336 100.394,-57.0898"/>
<polygon fill="midnightblue" stroke="midnightblue" points="24.4006,-807.401 27.6873,-817.473 31.399,-807.549 24.4006,-807.401"/>
</g>
<!-- Node28 -->
<g id="node28" class="node"><title>Node28</title>
<g id="a_node28"><a xlink:href="../../d8/dd3/lbaselib_8c.html#af7799a987ba6d158a96a52e80fb5beaf" target="_top" xlink:title="luaB_setmetatable">
<polygon fill="none" stroke="black" points="217.5,-988.5 217.5,-1007.5 313.5,-1007.5 313.5,-988.5 217.5,-988.5"/>
<text text-anchor="middle" x="265.5" y="-995.5" font-family="Helvetica,sans-Serif" font-size="10.00">luaB_setmetatable</text>
</a>
</g>
</g>
<!-- Node1&#45;&gt;Node28 -->
<g id="edge28" class="edge"><title>Node1&#45;&gt;Node28</title>
<path fill="none" stroke="midnightblue" d="M45.3369,-843.506C77.2268,-872.456 146.882,-933.18 213,-974 221.813,-979.441 232.06,-984.456 241.083,-988.48"/>
<polygon fill="midnightblue" stroke="midnightblue" points="47.4638,-840.708 37.7219,-836.543 42.7402,-845.874 47.4638,-840.708"/>
</g>
<!-- Node29 -->
<g id="node29" class="node"><title>Node29</title>
<g id="a_node29"><a xlink:href="../../da/d29/lauxlib_8h.html#ad78c85dce421e9cb793e205b9e81c640" target="_top" xlink:title="luaL_checkany">
<polygon fill="none" stroke="black" points="93,-456.5 93,-475.5 173,-475.5 173,-456.5 93,-456.5"/>
<text text-anchor="middle" x="133" y="-463.5" font-family="Helvetica,sans-Serif" font-size="10.00">luaL_checkany</text>
</a>
</g>
</g>
<!-- Node1&#45;&gt;Node29 -->
<g id="edge29" class="edge"><title>Node1&#45;&gt;Node29</title>
<path fill="none" stroke="midnightblue" d="M33.0809,-807.721C52.294,-741.348 115.287,-523.736 129.245,-475.518"/>
<polygon fill="midnightblue" stroke="midnightblue" points="29.7138,-806.765 30.2951,-817.344 36.4378,-808.712 29.7138,-806.765"/>
</g>
<!-- Node42 -->
<g id="node42" class="node"><title>Node42</title>
<g id="a_node42"><a xlink:href="../../da/d29/lauxlib_8h.html#ae5f465fb757069d016a10b106c69bdd7" target="_top" xlink:title="luaL_checktype">
<polygon fill="none" stroke="red" points="91.5,-817.5 91.5,-836.5 174.5,-836.5 174.5,-817.5 91.5,-817.5"/>
<text text-anchor="middle" x="133" y="-824.5" font-family="Helvetica,sans-Serif" font-size="10.00">luaL_checktype</text>
</a>
</g>
</g>
<!-- Node1&#45;&gt;Node42 -->
<g id="edge42" class="edge"><title>Node1&#45;&gt;Node42</title>
<path fill="none" stroke="midnightblue" d="M63.2339,-827C72.2465,-827 81.9898,-827 91.2293,-827"/>
<polygon fill="midnightblue" stroke="midnightblue" points="63.0636,-823.5 53.0636,-827 63.0635,-830.5 63.0636,-823.5"/>
</g>
<!-- Node50 -->
<g id="node50" class="node"><title>Node50</title>
<g id="a_node50"><a xlink:href="../../da/d29/lauxlib_8h.html#aef6da057d1e26ed6449b92177f1f2f5a" target="_top" xlink:title="luaL_tolstring">
<polygon fill="none" stroke="red" points="97.5,-370.5 97.5,-389.5 168.5,-389.5 168.5,-370.5 97.5,-370.5"/>
<text text-anchor="middle" x="133" y="-377.5" font-family="Helvetica,sans-Serif" font-size="10.00">luaL_tolstring</text>
</a>
</g>
</g>
<!-- Node1&#45;&gt;Node50 -->
<g id="edge56" class="edge"><title>Node1&#45;&gt;Node50</title>
<path fill="none" stroke="midnightblue" d="M27.8952,-806.937C29.6271,-749.096 38.9409,-577.8 89,-447 97.4972,-424.798 113.987,-402.185 123.894,-389.736"/>
<polygon fill="midnightblue" stroke="midnightblue" points="24.389,-807.14 27.6344,-817.226 31.3868,-807.317 24.389,-807.14"/>
</g>
<!-- Node6 -->
<g id="node6" class="node"><title>Node6</title>
<g id="a_node6"><a xlink:href="../../d0/d56/lauxlib_8c.html#a4f35430f7ecfcbd5f507e550937046b4" target="_top" xlink:title="pushglobalfuncname">
<polygon fill="none" stroke="red" points="213,-190.5 213,-209.5 318,-209.5 318,-190.5 213,-190.5"/>
<text text-anchor="middle" x="265.5" y="-197.5" font-family="Helvetica,sans-Serif" font-size="10.00">pushglobalfuncname</text>
</a>
</g>
</g>
<!-- Node5&#45;&gt;Node6 -->
<g id="edge5" class="edge"><title>Node5&#45;&gt;Node6</title>
<path fill="none" stroke="midnightblue" d="M166.337,-235.354C188.404,-227.406 217.273,-217.009 237.983,-209.55"/>
<polygon fill="midnightblue" stroke="midnightblue" points="164.954,-232.132 156.731,-238.813 167.326,-238.718 164.954,-232.132"/>
</g>
<!-- Node8 -->
<g id="node8" class="node"><title>Node8</title>
<g id="a_node8"><a xlink:href="../../de/df3/liolib_8c.html#a45307aa59a628966c6ea270e9b476d9a" target="_top" xlink:title="io_read">
<polygon fill="none" stroke="black" points="242,-152.5 242,-171.5 289,-171.5 289,-152.5 242,-152.5"/>
<text text-anchor="middle" x="265.5" y="-159.5" font-family="Helvetica,sans-Serif" font-size="10.00">io_read</text>
</a>
</g>
</g>
<!-- Node7&#45;&gt;Node8 -->
<g id="edge7" class="edge"><title>Node7&#45;&gt;Node8</title>
<path fill="none" stroke="midnightblue" d="M166.313,-162C189.779,-162 220.949,-162 241.815,-162"/>
<polygon fill="midnightblue" stroke="midnightblue" points="166.138,-158.5 156.138,-162 166.138,-165.5 166.138,-158.5"/>
</g>
<!-- Node9 -->
<g id="node9" class="node"><title>Node9</title>
<g id="a_node9"><a xlink:href="../../de/df3/liolib_8c.html#add5250a74576076467531e4eb8f5f68e" target="_top" xlink:title="f_read">
<polygon fill="none" stroke="black" points="244,-114.5 244,-133.5 287,-133.5 287,-114.5 244,-114.5"/>
<text text-anchor="middle" x="265.5" y="-121.5" font-family="Helvetica,sans-Serif" font-size="10.00">f_read</text>
</a>
</g>
</g>
<!-- Node7&#45;&gt;Node9 -->
<g id="edge8" class="edge"><title>Node7&#45;&gt;Node9</title>
<path fill="none" stroke="midnightblue" d="M165.988,-152.685C190.313,-145.602 223.057,-136.068 243.977,-129.976"/>
<polygon fill="midnightblue" stroke="midnightblue" points="164.76,-149.398 156.138,-155.554 166.717,-156.118 164.76,-149.398"/>
</g>
<!-- Node10 -->
<g id="node10" class="node"><title>Node10</title>
<g id="a_node10"><a xlink:href="../../de/df3/liolib_8c.html#ac37d80ee2cc364b4adafcb6f7c20f28b" target="_top" xlink:title="io_readline">
<polygon fill="none" stroke="red" points="235,-76.5 235,-95.5 296,-95.5 296,-76.5 235,-76.5"/>
<text text-anchor="middle" x="265.5" y="-83.5" font-family="Helvetica,sans-Serif" font-size="10.00">io_readline</text>
</a>
</g>
</g>
<!-- Node7&#45;&gt;Node10 -->
<g id="edge9" class="edge"><title>Node7&#45;&gt;Node10</title>
<path fill="none" stroke="midnightblue" d="M165.594,-149.794C169.569,-147.757 173.473,-145.487 177,-143 196.012,-129.592 193.578,-117.806 213,-105 219.604,-100.646 227.339,-97.1178 234.778,-94.3379"/>
<polygon fill="midnightblue" stroke="midnightblue" points="163.915,-146.715 156.333,-154.116 166.875,-153.059 163.915,-146.715"/>
</g>
<!-- Node12 -->
<g id="node12" class="node"><title>Node12</title>
<g id="a_node12"><a xlink:href="../../de/df3/liolib_8c.html#ada35daf906cc262cc6944cad92b93ac3" target="_top" xlink:title="io_write">
<polygon fill="none" stroke="black" points="241.5,-38.5 241.5,-57.5 289.5,-57.5 289.5,-38.5 241.5,-38.5"/>
<text text-anchor="middle" x="265.5" y="-45.5" font-family="Helvetica,sans-Serif" font-size="10.00">io_write</text>
</a>
</g>
</g>
<!-- Node11&#45;&gt;Node12 -->
<g id="edge11" class="edge"><title>Node11&#45;&gt;Node12</title>
<path fill="none" stroke="midnightblue" d="M165.847,-111.664C169.735,-109.661 173.548,-107.434 177,-105 196.012,-91.5918 193.578,-79.8064 213,-67 221.593,-61.3343 232.101,-57.0674 241.38,-54.0275"/>
<polygon fill="midnightblue" stroke="midnightblue" points="164.339,-108.506 156.776,-115.926 167.316,-114.841 164.339,-108.506"/>
</g>
<!-- Node13 -->
<g id="node13" class="node"><title>Node13</title>
<g id="a_node13"><a xlink:href="../../de/df3/liolib_8c.html#adba67ef94aaa532d9224ca04f8126ac2" target="_top" xlink:title="f_write">
<polygon fill="none" stroke="black" points="243.5,-0.5 243.5,-19.5 287.5,-19.5 287.5,-0.5 243.5,-0.5"/>
<text text-anchor="middle" x="265.5" y="-7.5" font-family="Helvetica,sans-Serif" font-size="10.00">f_write</text>
</a>
</g>
</g>
<!-- Node11&#45;&gt;Node13 -->
<g id="edge12" class="edge"><title>Node11&#45;&gt;Node13</title>
<path fill="none" stroke="midnightblue" d="M165.842,-113.108C169.896,-110.844 173.755,-108.161 177,-105 203.774,-78.9214 185.423,-54.2276 213,-29 221.438,-21.2809 233.281,-16.6237 243.483,-13.8539"/>
<polygon fill="midnightblue" stroke="midnightblue" points="164.332,-109.95 156.817,-117.418 167.349,-116.267 164.332,-109.95"/>
</g>
<!-- Node15 -->
<g id="node15" class="node"><title>Node15</title>
<g id="a_node15"><a xlink:href="../../d1/dc2/_kensho_lua_wrapper_8m.html#ad10bf0ff4feac9642e7477e282be41fe" target="_top" xlink:title="lookupKey">
<polygon fill="none" stroke="red" points="234.5,-1292.5 234.5,-1311.5 296.5,-1311.5 296.5,-1292.5 234.5,-1292.5"/>
<text text-anchor="middle" x="265.5" y="-1299.5" font-family="Helvetica,sans-Serif" font-size="10.00">lookupKey</text>
</a>
</g>
</g>
<!-- Node14&#45;&gt;Node15 -->
<g id="edge14" class="edge"><title>Node14&#45;&gt;Node15</title>
<path fill="none" stroke="midnightblue" d="M164.748,-1221.85C169.087,-1224.59 173.317,-1227.66 177,-1231 197.811,-1249.89 190.783,-1265.78 213,-1283 219.252,-1287.85 226.863,-1291.55 234.296,-1294.34"/>
<polygon fill="midnightblue" stroke="midnightblue" points="166.242,-1218.68 155.831,-1216.71 162.741,-1224.74 166.242,-1218.68"/>
</g>
<!-- Node14&#45;&gt;Node16 -->
<g id="edge15" class="edge"><title>Node14&#45;&gt;Node16</title>
<path fill="none" stroke="midnightblue" d="M168.147,-1222.25C171.485,-1224.8 174.54,-1227.7 177,-1231 220.838,-1289.77 167.047,-1334.86 213,-1392 218.873,-1399.3 227.479,-1404.49 235.981,-1408.13"/>
<polygon fill="midnightblue" stroke="midnightblue" points="169.743,-1219.12 159.439,-1216.65 165.956,-1225 169.743,-1219.12"/>
</g>
<!-- Node17 -->
<g id="node17" class="node"><title>Node17</title>
<g id="a_node17"><a xlink:href="../../d1/dc2/_kensho_lua_wrapper_8m.html#a05954c02378e1c67ec00d4d5fc118d07" target="_top" xlink:title="This is executed when the LUA subsystem attempts to assign data to a new index. ">
<polygon fill="none" stroke="red" points="354,-1387.5 354,-1406.5 436,-1406.5 436,-1387.5 354,-1387.5"/>
<text text-anchor="middle" x="395" y="-1394.5" font-family="Helvetica,sans-Serif" font-size="10.00">lookupNewKey</text>
</a>
</g>
</g>
<!-- Node14&#45;&gt;Node17 -->
<g id="edge17" class="edge"><title>Node14&#45;&gt;Node17</title>
<path fill="none" stroke="midnightblue" d="M167.444,-1221.99C171.017,-1224.61 174.319,-1227.6 177,-1231 213.603,-1277.4 169.832,-1318.64 213,-1359 232.995,-1377.69 306.643,-1388.34 353.608,-1393.37"/>
<polygon fill="midnightblue" stroke="midnightblue" points="169.114,-1218.91 158.781,-1216.57 165.397,-1224.84 169.114,-1218.91"/>
</g>
<!-- Node18 -->
<g id="node18" class="node"><title>Node18</title>
<g id="a_node18"><a xlink:href="../../d8/dd3/lbaselib_8c.html#a2ecfa987569d0b4c1063f3e204e42dd2" target="_top" xlink:title="luaB_error">
<polygon fill="none" stroke="black" points="236,-1216.5 236,-1235.5 295,-1235.5 295,-1216.5 236,-1216.5"/>
<text text-anchor="middle" x="265.5" y="-1223.5" font-family="Helvetica,sans-Serif" font-size="10.00">luaB_error</text>
</a>
</g>
</g>
<!-- Node14&#45;&gt;Node18 -->
<g id="edge18" class="edge"><title>Node14&#45;&gt;Node18</title>
<path fill="none" stroke="midnightblue" d="M174.613,-1212.91C194.481,-1215.81 217.921,-1219.22 235.883,-1221.83"/>
<polygon fill="midnightblue" stroke="midnightblue" points="174.996,-1209.43 164.596,-1211.45 173.988,-1216.36 174.996,-1209.43"/>
</g>
<!-- Node19 -->
<g id="node19" class="node"><title>Node19</title>
<g id="a_node19"><a xlink:href="../../d8/dd3/lbaselib_8c.html#ad467c787e381e8d18e4c7b46b4f1b05d" target="_top" xlink:title="generic_reader">
<polygon fill="none" stroke="black" points="227,-1102.5 227,-1121.5 304,-1121.5 304,-1102.5 227,-1102.5"/>
<text text-anchor="middle" x="265.5" y="-1109.5" font-family="Helvetica,sans-Serif" font-size="10.00">generic_reader</text>
</a>
</g>
</g>
<!-- Node14&#45;&gt;Node19 -->
<g id="edge19" class="edge"><title>Node14&#45;&gt;Node19</title>
<path fill="none" stroke="midnightblue" d="M148.556,-1189.26C163.279,-1172.3 187.456,-1147.01 213,-1131 218.895,-1127.31 225.616,-1124.17 232.212,-1121.58"/>
<polygon fill="midnightblue" stroke="midnightblue" points="145.557,-1187.38 141.761,-1197.28 150.897,-1191.91 145.557,-1187.38"/>
</g>
<!-- Node21 -->
<g id="node21" class="node"><title>Node21</title>
<g id="a_node21"><a xlink:href="../../df/d2d/lcorolib_8c.html#a777abb20385a69ce4787f72bd90375a7" target="_top" xlink:title="luaB_auxwrap">
<polygon fill="none" stroke="red" points="225.5,-1178.5 225.5,-1197.5 305.5,-1197.5 305.5,-1178.5 225.5,-1178.5"/>
<text text-anchor="middle" x="265.5" y="-1185.5" font-family="Helvetica,sans-Serif" font-size="10.00">luaB_auxwrap</text>
</a>
</g>
</g>
<!-- Node14&#45;&gt;Node21 -->
<g id="edge21" class="edge"><title>Node14&#45;&gt;Node21</title>
<path fill="none" stroke="midnightblue" d="M174.777,-1201.06C190.854,-1198.72 209.248,-1196.04 225.18,-1193.72"/>
<polygon fill="midnightblue" stroke="midnightblue" points="173.988,-1197.64 164.596,-1202.55 174.996,-1204.57 173.988,-1197.64"/>
</g>
<!-- Node22 -->
<g id="node22" class="node"><title>Node22</title>
<g id="a_node22"><a xlink:href="../../d2/d82/loadlib_8c.html#aeea4101591c7cab25273f4dfe7d811d6" target="_top" xlink:title="findloader">
<polygon fill="none" stroke="red" points="237.5,-1140.5 237.5,-1159.5 293.5,-1159.5 293.5,-1140.5 237.5,-1140.5"/>
<text text-anchor="middle" x="265.5" y="-1147.5" font-family="Helvetica,sans-Serif" font-size="10.00">findloader</text>
</a>
</g>
</g>
<!-- Node14&#45;&gt;Node22 -->
<g id="edge22" class="edge"><title>Node14&#45;&gt;Node22</title>
<path fill="none" stroke="midnightblue" d="M161.84,-1192.81C176.839,-1185.37 195.758,-1176.31 213,-1169 220.809,-1165.69 229.413,-1162.39 237.315,-1159.48"/>
<polygon fill="midnightblue" stroke="midnightblue" points="159.982,-1189.83 152.606,-1197.43 163.115,-1196.09 159.982,-1189.83"/>
</g>
<!-- Node23 -->
<g id="node23" class="node"><title>Node23</title>
<g id="a_node23"><a xlink:href="../../dc/d77/lstrlib_8c.html#ad24cfa73e5ad25ec99a1b48f0916471e" target="_top" xlink:title="add_value">
<polygon fill="none" stroke="black" points="234.5,-1254.5 234.5,-1273.5 296.5,-1273.5 296.5,-1254.5 234.5,-1254.5"/>
<text text-anchor="middle" x="265.5" y="-1261.5" font-family="Helvetica,sans-Serif" font-size="10.00">add_value</text>
</a>
</g>
</g>
<!-- Node14&#45;&gt;Node23 -->
<g id="edge23" class="edge"><title>Node14&#45;&gt;Node23</title>
<path fill="none" stroke="midnightblue" d="M161.84,-1221.19C176.839,-1228.63 195.758,-1237.69 213,-1245 220.722,-1248.27 229.22,-1251.54 237.049,-1254.42"/>
<polygon fill="midnightblue" stroke="midnightblue" points="163.115,-1217.91 152.606,-1216.57 159.982,-1224.17 163.115,-1217.91"/>
</g>
<!-- Node25 -->
<g id="node25" class="node"><title>Node25</title>
<g id="a_node25"><a xlink:href="../../d0/da1/ltablib_8c.html#a4ea6cc51c099ea709c7755a49216f4d0" target="_top" xlink:title="addfield">
<polygon fill="none" stroke="red" points="241,-1330.5 241,-1349.5 290,-1349.5 290,-1330.5 241,-1330.5"/>
<text text-anchor="middle" x="265.5" y="-1337.5" font-family="Helvetica,sans-Serif" font-size="10.00">addfield</text>
</a>
</g>
</g>
<!-- Node14&#45;&gt;Node25 -->
<g id="edge25" class="edge"><title>Node14&#45;&gt;Node25</title>
<path fill="none" stroke="midnightblue" d="M166.55,-1221.89C170.387,-1224.55 173.998,-1227.58 177,-1231 205.443,-1263.36 182.127,-1290.95 213,-1321 220.581,-1328.38 231.27,-1332.93 240.946,-1335.72"/>
<polygon fill="midnightblue" stroke="midnightblue" points="168.301,-1218.86 157.938,-1216.66 164.664,-1224.84 168.301,-1218.86"/>
</g>
<!-- Node16&#45;&gt;Node17 -->
<g id="edge16" class="edge"><title>Node16&#45;&gt;Node17</title>
<path fill="none" stroke="midnightblue" d="M305.336,-1410.21C320.711,-1407.92 338.381,-1405.29 353.88,-1402.98"/>
<polygon fill="midnightblue" stroke="midnightblue" points="304.488,-1406.8 295.113,-1411.74 305.52,-1413.72 304.488,-1406.8"/>
</g>
<!-- Node20 -->
<g id="node20" class="node"><title>Node20</title>
<g id="a_node20"><a xlink:href="../../d8/dd3/lbaselib_8c.html#a4a9a3613fcf80fe033e044f7e19bed69" target="_top" xlink:title="luaB_load">
<polygon fill="none" stroke="black" points="365.5,-1026.5 365.5,-1045.5 424.5,-1045.5 424.5,-1026.5 365.5,-1026.5"/>
<text text-anchor="middle" x="395" y="-1033.5" font-family="Helvetica,sans-Serif" font-size="10.00">luaB_load</text>
</a>
</g>
</g>
<!-- Node19&#45;&gt;Node20 -->
<g id="edge20" class="edge"><title>Node19&#45;&gt;Node20</title>
<path fill="none" stroke="midnightblue" d="M291.422,-1097.14C317.053,-1081.87 356.21,-1058.53 377.983,-1045.55"/>
<polygon fill="midnightblue" stroke="midnightblue" points="289.446,-1094.25 282.648,-1102.37 293.03,-1100.26 289.446,-1094.25"/>
</g>
<!-- Node23&#45;&gt;Node24 -->
<g id="edge24" class="edge"><title>Node23&#45;&gt;Node24</title>
<path fill="none" stroke="midnightblue" d="M305.933,-1251.49C310.135,-1249.57 314.241,-1247.41 318,-1245 347.231,-1226.29 374.106,-1194.65 386.617,-1178.74"/>
<polygon fill="midnightblue" stroke="midnightblue" points="304.573,-1248.27 296.681,-1255.34 307.259,-1254.73 304.573,-1248.27"/>
</g>
<!-- Node30 -->
<g id="node30" class="node"><title>Node30</title>
<g id="a_node30"><a xlink:href="../../d8/dd3/lbaselib_8c.html#a6224f7b7c4485996e1c22eae32de990d" target="_top" xlink:title="luaB_tonumber">
<polygon fill="none" stroke="black" points="225.5,-342.5 225.5,-361.5 305.5,-361.5 305.5,-342.5 225.5,-342.5"/>
<text text-anchor="middle" x="265.5" y="-349.5" font-family="Helvetica,sans-Serif" font-size="10.00">luaB_tonumber</text>
</a>
</g>
</g>
<!-- Node29&#45;&gt;Node30 -->
<g id="edge30" class="edge"><title>Node29&#45;&gt;Node30</title>
<path fill="none" stroke="midnightblue" d="M145.098,-447.503C158.676,-426.309 183.53,-391.829 213,-371 218.37,-367.205 224.586,-364.075 230.803,-361.528"/>
<polygon fill="midnightblue" stroke="midnightblue" points="141.992,-445.87 139.677,-456.209 147.934,-449.57 141.992,-445.87"/>
</g>
<!-- Node31 -->
<g id="node31" class="node"><title>Node31</title>
<g id="a_node31"><a xlink:href="../../d8/dd3/lbaselib_8c.html#addfd66adcbe4c777cf5e10536d27d8b1" target="_top" xlink:title="luaB_getmetatable">
<polygon fill="none" stroke="black" points="217.5,-304.5 217.5,-323.5 313.5,-323.5 313.5,-304.5 217.5,-304.5"/>
<text text-anchor="middle" x="265.5" y="-311.5" font-family="Helvetica,sans-Serif" font-size="10.00">luaB_getmetatable</text>
</a>
</g>
</g>
<!-- Node29&#45;&gt;Node31 -->
<g id="edge31" class="edge"><title>Node29&#45;&gt;Node31</title>
<path fill="none" stroke="midnightblue" d="M146.406,-447.455C155.197,-434.128 167.134,-415.648 177,-399 194.034,-370.255 187.714,-354.842 213,-333 217.471,-329.138 222.798,-326.032 228.303,-323.542"/>
<polygon fill="midnightblue" stroke="midnightblue" points="143.249,-445.882 140.635,-456.149 149.082,-449.753 143.249,-445.882"/>
</g>
<!-- Node32 -->
<g id="node32" class="node"><title>Node32</title>
<g id="a_node32"><a xlink:href="../../d8/dd3/lbaselib_8c.html#a4dbd4fb89ec70a7b07cad52f7c13e637" target="_top" xlink:title="luaB_rawequal">
<polygon fill="none" stroke="black" points="225,-266.5 225,-285.5 306,-285.5 306,-266.5 225,-266.5"/>
<text text-anchor="middle" x="265.5" y="-273.5" font-family="Helvetica,sans-Serif" font-size="10.00">luaB_rawequal</text>
</a>
</g>
</g>
<!-- Node29&#45;&gt;Node32 -->
<g id="edge32" class="edge"><title>Node29&#45;&gt;Node32</title>
<path fill="none" stroke="midnightblue" d="M147.01,-448.304C156.245,-435.175 168.467,-416.579 177,-399 198.36,-354.997 178.764,-329.934 213,-295 216.802,-291.12 221.464,-288.026 226.415,-285.561"/>
<polygon fill="midnightblue" stroke="midnightblue" points="144.159,-446.274 141.177,-456.44 149.848,-450.353 144.159,-446.274"/>
</g>
<!-- Node33 -->
<g id="node33" class="node"><title>Node33</title>
<g id="a_node33"><a xlink:href="../../d8/dd3/lbaselib_8c.html#a248a6847a33f31c69a43a76b6b8bcb4b" target="_top" xlink:title="luaB_rawget">
<polygon fill="none" stroke="black" points="230,-646.5 230,-665.5 301,-665.5 301,-646.5 230,-646.5"/>
<text text-anchor="middle" x="265.5" y="-653.5" font-family="Helvetica,sans-Serif" font-size="10.00">luaB_rawget</text>
</a>
</g>
</g>
<!-- Node29&#45;&gt;Node33 -->
<g id="edge33" class="edge"><title>Node29&#45;&gt;Node33</title>
<path fill="none" stroke="midnightblue" d="M137.894,-485.612C145.86,-520.761 167.261,-594.754 213,-637 217.83,-641.462 223.798,-644.899 229.94,-647.539"/>
<polygon fill="midnightblue" stroke="midnightblue" points="141.279,-484.701 135.766,-475.654 134.433,-486.164 141.279,-484.701"/>
</g>
<!-- Node34 -->
<g id="node34" class="node"><title>Node34</title>
<g id="a_node34"><a xlink:href="../../d8/dd3/lbaselib_8c.html#a7b7225051c25127792f30eadd3498cc3" target="_top" xlink:title="luaB_rawset">
<polygon fill="none" stroke="black" points="230,-608.5 230,-627.5 301,-627.5 301,-608.5 230,-608.5"/>
<text text-anchor="middle" x="265.5" y="-615.5" font-family="Helvetica,sans-Serif" font-size="10.00">luaB_rawset</text>
</a>
</g>
</g>
<!-- Node29&#45;&gt;Node34 -->
<g id="edge34" class="edge"><title>Node29&#45;&gt;Node34</title>
<path fill="none" stroke="midnightblue" d="M141.621,-485.246C153.307,-512.613 178.032,-562.897 213,-594 219.781,-600.031 228.339,-604.827 236.522,-608.497"/>
<polygon fill="midnightblue" stroke="midnightblue" points="144.714,-483.565 137.663,-475.657 138.243,-486.236 144.714,-483.565"/>
</g>
<!-- Node35 -->
<g id="node35" class="node"><title>Node35</title>
<g id="a_node35"><a xlink:href="../../d8/dd3/lbaselib_8c.html#a7135b660cac1e25a2854acd9849cd4a4" target="_top" xlink:title="luaB_type">
<polygon fill="none" stroke="black" points="235.5,-532.5 235.5,-551.5 295.5,-551.5 295.5,-532.5 235.5,-532.5"/>
<text text-anchor="middle" x="265.5" y="-539.5" font-family="Helvetica,sans-Serif" font-size="10.00">luaB_type</text>
</a>
</g>
</g>
<!-- Node29&#45;&gt;Node35 -->
<g id="edge35" class="edge"><title>Node29&#45;&gt;Node35</title>
<path fill="none" stroke="midnightblue" d="M152.893,-481.894C168.322,-494.3 191.083,-511.331 213,-523 219.982,-526.717 227.85,-530.021 235.296,-532.789"/>
<polygon fill="midnightblue" stroke="midnightblue" points="155.084,-479.164 145.128,-475.541 150.652,-484.582 155.084,-479.164"/>
</g>
<!-- Node36 -->
<g id="node36" class="node"><title>Node36</title>
<g id="a_node36"><a xlink:href="../../d8/dd3/lbaselib_8c.html#a1fb2725eed679431d070b2e9e7abc223" target="_top" xlink:title="luaB_pcall">
<polygon fill="none" stroke="black" points="235,-494.5 235,-513.5 296,-513.5 296,-494.5 235,-494.5"/>
<text text-anchor="middle" x="265.5" y="-501.5" font-family="Helvetica,sans-Serif" font-size="10.00">luaB_pcall</text>
</a>
</g>
</g>
<!-- Node29&#45;&gt;Node36 -->
<g id="edge36" class="edge"><title>Node29&#45;&gt;Node36</title>
<path fill="none" stroke="midnightblue" d="M176.559,-478.393C195.561,-483.926 217.495,-490.313 234.704,-495.324"/>
<polygon fill="midnightblue" stroke="midnightblue" points="177.51,-475.024 166.931,-475.589 175.553,-481.745 177.51,-475.024"/>
</g>
<!-- Node37 -->
<g id="node37" class="node"><title>Node37</title>
<g id="a_node37"><a xlink:href="../../d8/dd3/lbaselib_8c.html#a15bd8ce3f719c87883bcb578c60677e7" target="_top" xlink:title="luaB_tostring">
<polygon fill="none" stroke="black" points="230,-228.5 230,-247.5 301,-247.5 301,-228.5 230,-228.5"/>
<text text-anchor="middle" x="265.5" y="-235.5" font-family="Helvetica,sans-Serif" font-size="10.00">luaB_tostring</text>
</a>
</g>
</g>
<!-- Node29&#45;&gt;Node37 -->
<g id="edge37" class="edge"><title>Node29&#45;&gt;Node37</title>
<path fill="none" stroke="midnightblue" d="M147.791,-448.061C157.202,-435.059 169.311,-416.719 177,-399 202.919,-339.274 169.445,-305.394 213,-257 217.526,-251.971 223.504,-248.27 229.778,-245.547"/>
<polygon fill="midnightblue" stroke="midnightblue" points="144.946,-446.022 141.794,-456.137 150.566,-450.195 144.946,-446.022"/>
</g>
<!-- Node38 -->
<g id="node38" class="node"><title>Node38</title>
<g id="a_node38"><a xlink:href="../../d8/d97/ldblib_8c.html#aa84da9dfea83fb9e516443b49b109044" target="_top" xlink:title="db_getmetatable">
<polygon fill="none" stroke="black" points="221.5,-456.5 221.5,-475.5 309.5,-475.5 309.5,-456.5 221.5,-456.5"/>
<text text-anchor="middle" x="265.5" y="-463.5" font-family="Helvetica,sans-Serif" font-size="10.00">db_getmetatable</text>
</a>
</g>
</g>
<!-- Node29&#45;&gt;Node38 -->
<g id="edge38" class="edge"><title>Node29&#45;&gt;Node38</title>
<path fill="none" stroke="midnightblue" d="M183.387,-466C195.85,-466 209.135,-466 221.269,-466"/>
<polygon fill="midnightblue" stroke="midnightblue" points="183.154,-462.5 173.154,-466 183.154,-469.5 183.154,-462.5"/>
</g>
<!-- Node39 -->
<g id="node39" class="node"><title>Node39</title>
<g id="a_node39"><a xlink:href="../../d8/d97/ldblib_8c.html#a11cfe90e96e7ea907a767f5109f7ef4b" target="_top" xlink:title="db_setlocal">
<polygon fill="none" stroke="black" points="233,-418.5 233,-437.5 298,-437.5 298,-418.5 233,-418.5"/>
<text text-anchor="middle" x="265.5" y="-425.5" font-family="Helvetica,sans-Serif" font-size="10.00">db_setlocal</text>
</a>
</g>
</g>
<!-- Node29&#45;&gt;Node39 -->
<g id="edge39" class="edge"><title>Node29&#45;&gt;Node39</title>
<path fill="none" stroke="midnightblue" d="M176.779,-453.543C195.082,-448.214 216.073,-442.101 232.93,-437.193"/>
<polygon fill="midnightblue" stroke="midnightblue" points="175.553,-450.255 166.931,-456.411 177.51,-456.976 175.553,-450.255"/>
</g>
<!-- Node40 -->
<g id="node40" class="node"><title>Node40</title>
<g id="a_node40"><a xlink:href="../../d8/d97/ldblib_8c.html#acd61487bdd057d6c668ec0bd88728670" target="_top" xlink:title="db_setupvalue">
<polygon fill="none" stroke="black" points="355,-627.5 355,-646.5 435,-646.5 435,-627.5 355,-627.5"/>
<text text-anchor="middle" x="395" y="-634.5" font-family="Helvetica,sans-Serif" font-size="10.00">db_setupvalue</text>
</a>
</g>
</g>
<!-- Node29&#45;&gt;Node40 -->
<g id="edge40" class="edge"><title>Node29&#45;&gt;Node40</title>
<path fill="none" stroke="midnightblue" d="M144.867,-484.202C158.376,-505.398 183.314,-540.156 213,-561 253.616,-589.519 272.395,-579.425 318,-599 338.334,-607.728 360.931,-619.274 376.159,-627.339"/>
<polygon fill="midnightblue" stroke="midnightblue" points="147.729,-482.176 139.488,-475.517 141.777,-485.861 147.729,-482.176"/>
</g>
<!-- Node41 -->
<g id="node41" class="node"><title>Node41</title>
<g id="a_node41"><a xlink:href="../../de/df3/liolib_8c.html#a2bd80ae170dce6c29d385b71398fd7c2" target="_top" xlink:title="io_type">
<polygon fill="none" stroke="black" points="242,-380.5 242,-399.5 289,-399.5 289,-380.5 242,-380.5"/>
<text text-anchor="middle" x="265.5" y="-387.5" font-family="Helvetica,sans-Serif" font-size="10.00">io_type</text>
</a>
</g>
</g>
<!-- Node29&#45;&gt;Node41 -->
<g id="edge41" class="edge"><title>Node29&#45;&gt;Node41</title>
<path fill="none" stroke="midnightblue" d="M152.893,-450.106C168.322,-437.7 191.083,-420.669 213,-409 222.085,-404.163 232.671,-400.026 241.873,-396.859"/>
<polygon fill="midnightblue" stroke="midnightblue" points="150.652,-447.418 145.128,-456.459 155.084,-452.836 150.652,-447.418"/>
</g>
<!-- Node42&#45;&gt;Node4 -->
<g id="edge51" class="edge"><title>Node42&#45;&gt;Node4</title>
<path fill="none" stroke="midnightblue" d="M136.959,-847.162C143.614,-885.478 163.259,-969.239 213,-1017 217.056,-1020.89 221.978,-1024 227.151,-1026.48"/>
<polygon fill="midnightblue" stroke="midnightblue" points="140.339,-846.136 135.292,-836.82 133.428,-847.25 140.339,-846.136"/>
</g>
<!-- Node42&#45;&gt;Node20 -->
<g id="edge49" class="edge"><title>Node42&#45;&gt;Node20</title>
<path fill="none" stroke="midnightblue" d="M149.362,-844.108C157.92,-853.989 168.525,-866.835 177,-879 195.215,-905.144 188.547,-920.571 213,-941 251.086,-972.819 274.337,-955.409 318,-979 343.248,-992.642 369.285,-1014.07 383.374,-1026.4"/>
<polygon fill="midnightblue" stroke="midnightblue" points="151.979,-841.784 142.747,-836.586 146.723,-846.407 151.979,-841.784"/>
</g>
<!-- Node42&#45;&gt;Node28 -->
<g id="edge43" class="edge"><title>Node42&#45;&gt;Node28</title>
<path fill="none" stroke="midnightblue" d="M143.904,-845.609C164.82,-884.885 211.692,-972.765 213,-974 219.382,-980.028 227.551,-984.766 235.494,-988.381"/>
<polygon fill="midnightblue" stroke="midnightblue" points="146.868,-843.729 139.079,-836.547 140.689,-847.019 146.868,-843.729"/>
</g>
<!-- Node42&#45;&gt;Node33 -->
<g id="edge44" class="edge"><title>Node42&#45;&gt;Node33</title>
<path fill="none" stroke="midnightblue" d="M139.172,-807.358C148.587,-775.286 171.488,-711.59 213,-675 217.861,-670.715 223.774,-667.366 229.836,-664.758"/>
<polygon fill="midnightblue" stroke="midnightblue" points="135.718,-806.714 136.396,-817.287 142.46,-808.599 135.718,-806.714"/>
</g>
<!-- Node42&#45;&gt;Node34 -->
<g id="edge45" class="edge"><title>Node42&#45;&gt;Node34</title>
<path fill="none" stroke="midnightblue" d="M136.959,-806.838C143.614,-768.522 163.259,-684.761 213,-637 217.743,-632.446 223.671,-628.966 229.8,-626.313"/>
<polygon fill="midnightblue" stroke="midnightblue" points="133.428,-806.75 135.292,-817.18 140.339,-807.864 133.428,-806.75"/>
</g>
<!-- Node43 -->
<g id="node43" class="node"><title>Node43</title>
<g id="a_node43"><a xlink:href="../../d8/dd3/lbaselib_8c.html#a8f5df6d3f89389dd27da5cfeceee1f34" target="_top" xlink:title="pairsmeta">
<polygon fill="none" stroke="red" points="236,-760.5 236,-779.5 295,-779.5 295,-760.5 236,-760.5"/>
<text text-anchor="middle" x="265.5" y="-767.5" font-family="Helvetica,sans-Serif" font-size="10.00">pairsmeta</text>
</a>
</g>
</g>
<!-- Node42&#45;&gt;Node43 -->
<g id="edge46" class="edge"><title>Node42&#45;&gt;Node43</title>
<path fill="none" stroke="midnightblue" d="M161.84,-812.811C176.839,-805.37 195.758,-796.308 213,-789 220.722,-785.727 229.22,-782.459 237.049,-779.58"/>
<polygon fill="midnightblue" stroke="midnightblue" points="159.982,-809.827 152.606,-817.432 163.115,-816.087 159.982,-809.827"/>
</g>
<!-- Node44 -->
<g id="node44" class="node"><title>Node44</title>
<g id="a_node44"><a xlink:href="../../d8/dd3/lbaselib_8c.html#ac0b11ecf3ced275821aaf5a03ed33b02" target="_top" xlink:title="luaB_next">
<polygon fill="none" stroke="red" points="236,-722.5 236,-741.5 295,-741.5 295,-722.5 236,-722.5"/>
<text text-anchor="middle" x="265.5" y="-729.5" font-family="Helvetica,sans-Serif" font-size="10.00">luaB_next</text>
</a>
</g>
</g>
<!-- Node42&#45;&gt;Node44 -->
<g id="edge47" class="edge"><title>Node42&#45;&gt;Node44</title>
<path fill="none" stroke="midnightblue" d="M148.556,-809.26C163.279,-792.299 187.456,-767.006 213,-751 220.026,-746.598 228.224,-742.993 235.987,-740.153"/>
<polygon fill="midnightblue" stroke="midnightblue" points="145.557,-807.385 141.761,-817.276 150.897,-811.911 145.557,-807.385"/>
</g>
<!-- Node45 -->
<g id="node45" class="node"><title>Node45</title>
<g id="a_node45"><a xlink:href="../../d8/dd3/lbaselib_8c.html#a9e49fcec5e66e36e817b1951123efc03" target="_top" xlink:title="ipairsaux">
<polygon fill="none" stroke="red" points="237.5,-912.5 237.5,-931.5 293.5,-931.5 293.5,-912.5 237.5,-912.5"/>
<text text-anchor="middle" x="265.5" y="-919.5" font-family="Helvetica,sans-Serif" font-size="10.00">ipairsaux</text>
</a>
</g>
</g>
<!-- Node42&#45;&gt;Node45 -->
<g id="edge48" class="edge"><title>Node42&#45;&gt;Node45</title>
<path fill="none" stroke="midnightblue" d="M148.556,-844.74C163.279,-861.701 187.456,-886.994 213,-903 220.43,-907.655 229.17,-911.419 237.321,-914.33"/>
<polygon fill="midnightblue" stroke="midnightblue" points="150.897,-842.089 141.761,-836.724 145.557,-846.615 150.897,-842.089"/>
</g>
<!-- Node46 -->
<g id="node46" class="node"><title>Node46</title>
<g id="a_node46"><a xlink:href="../../df/d2d/lcorolib_8c.html#ad49772e236781ef7ad88ff8bc980b40b" target="_top" xlink:title="luaB_cocreate">
<polygon fill="none" stroke="red" points="227,-874.5 227,-893.5 304,-893.5 304,-874.5 227,-874.5"/>
<text text-anchor="middle" x="265.5" y="-881.5" font-family="Helvetica,sans-Serif" font-size="10.00">luaB_cocreate</text>
</a>
</g>
</g>
<!-- Node42&#45;&gt;Node46 -->
<g id="edge50" class="edge"><title>Node42&#45;&gt;Node46</title>
<path fill="none" stroke="midnightblue" d="M161.84,-841.189C176.839,-848.63 195.758,-857.692 213,-865 220.722,-868.273 229.22,-871.541 237.049,-874.42"/>
<polygon fill="midnightblue" stroke="midnightblue" points="163.115,-837.913 152.606,-836.568 159.982,-844.173 163.115,-837.913"/>
</g>
<!-- Node47 -->
<g id="node47" class="node"><title>Node47</title>
<g id="a_node47"><a xlink:href="../../d8/d97/ldblib_8c.html#a31ebacb3668352430584fe277ac74923" target="_top" xlink:title="auxupvalue">
<polygon fill="none" stroke="red" points="231.5,-684.5 231.5,-703.5 299.5,-703.5 299.5,-684.5 231.5,-684.5"/>
<text text-anchor="middle" x="265.5" y="-691.5" font-family="Helvetica,sans-Serif" font-size="10.00">auxupvalue</text>
</a>
</g>
</g>
<!-- Node42&#45;&gt;Node47 -->
<g id="edge52" class="edge"><title>Node42&#45;&gt;Node47</title>
<path fill="none" stroke="midnightblue" d="M142.553,-808.07C154.783,-782.994 179.539,-738.922 213,-713 218.424,-708.798 224.871,-705.456 231.336,-702.824"/>
<polygon fill="midnightblue" stroke="midnightblue" points="139.321,-806.718 138.222,-817.255 145.653,-809.703 139.321,-806.718"/>
</g>
<!-- Node48 -->
<g id="node48" class="node"><title>Node48</title>
<g id="a_node48"><a xlink:href="../../d8/d97/ldblib_8c.html#a0951daf8c0b66e39bd3aa618aff380bf" target="_top" xlink:title="checkupval">
<polygon fill="none" stroke="red" points="233,-836.5 233,-855.5 298,-855.5 298,-836.5 233,-836.5"/>
<text text-anchor="middle" x="265.5" y="-843.5" font-family="Helvetica,sans-Serif" font-size="10.00">checkupval</text>
</a>
</g>
</g>
<!-- Node42&#45;&gt;Node48 -->
<g id="edge54" class="edge"><title>Node42&#45;&gt;Node48</title>
<path fill="none" stroke="midnightblue" d="M184.922,-834.414C201.002,-836.755 218.302,-839.274 232.652,-841.363"/>
<polygon fill="midnightblue" stroke="midnightblue" points="184.976,-830.885 174.576,-832.908 183.967,-837.812 184.976,-830.885"/>
</g>
<!-- Node49 -->
<g id="node49" class="node"><title>Node49</title>
<g id="a_node49"><a xlink:href="../../d8/d97/ldblib_8c.html#aa0c362d361f8f9bd8a002c34c393e2b0" target="_top" xlink:title="db_sethook">
<polygon fill="none" stroke="black" points="232.5,-798.5 232.5,-817.5 298.5,-817.5 298.5,-798.5 232.5,-798.5"/>
<text text-anchor="middle" x="265.5" y="-805.5" font-family="Helvetica,sans-Serif" font-size="10.00">db_sethook</text>
</a>
</g>
</g>
<!-- Node42&#45;&gt;Node49 -->
<g id="edge55" class="edge"><title>Node42&#45;&gt;Node49</title>
<path fill="none" stroke="midnightblue" d="M184.838,-819.598C200.784,-817.277 217.94,-814.779 232.231,-812.698"/>
<polygon fill="midnightblue" stroke="midnightblue" points="183.967,-816.188 174.576,-821.092 184.976,-823.115 183.967,-816.188"/>
</g>
<!-- Node47&#45;&gt;Node40 -->
<g id="edge53" class="edge"><title>Node47&#45;&gt;Node40</title>
<path fill="none" stroke="midnightblue" d="M303.375,-680.958C308.325,-679.044 313.31,-677.03 318,-675 338.307,-666.209 360.909,-654.674 376.145,-646.628"/>
<polygon fill="midnightblue" stroke="midnightblue" points="302.108,-677.695 293.984,-684.496 304.576,-684.246 302.108,-677.695"/>
</g>
<!-- Node50&#45;&gt;Node37 -->
<g id="edge57" class="edge"><title>Node50&#45;&gt;Node37</title>
<path fill="none" stroke="midnightblue" d="M141.659,-360.729C153.253,-333.882 177.713,-285.34 213,-257 217.978,-253.002 223.878,-249.795 229.877,-247.239"/>
<polygon fill="midnightblue" stroke="midnightblue" points="138.339,-359.598 137.727,-370.175 144.801,-362.289 138.339,-359.598"/>
</g>
</g>
</svg>
