<?xml version="1.0" encoding="UTF-8" standalone="no"?>
<!DOCTYPE svg PUBLIC "-//W3C//DTD SVG 1.1//EN"
 "http://www.w3.org/Graphics/SVG/1.1/DTD/svg11.dtd">
<!-- Generated by graphviz version 2.38.0 (20140413.2041)
 -->
<!-- Title: lua_copy Pages: 1 -->
<svg width="854pt" height="930pt"
 viewBox="0.00 0.00 854.00 930.00" xmlns="http://www.w3.org/2000/svg" xmlns:xlink="http://www.w3.org/1999/xlink">
<g id="graph0" class="graph" transform="scale(1 1) rotate(0) translate(4 926)">
<title>lua_copy</title>
<!-- Node1 -->
<g id="node1" class="node"><title>Node1</title>
<polygon fill="#bfbfbf" stroke="black" points="0,-788.5 0,-807.5 56,-807.5 56,-788.5 0,-788.5"/>
<text text-anchor="middle" x="28" y="-795.5" font-family="Helvetica,sans-Serif" font-size="10.00">lua_copy</text>
</g>
<!-- Node2 -->
<g id="node2" class="node"><title>Node2</title>
<g id="a_node2"><a xlink:href="../../d8/dd3/lbaselib_8c.html#a5fbb0094fa1a56f0a4c2547f1ec4c5ab" target="_top" xlink:title="luaB_xpcall">
<polygon fill="none" stroke="black" points="111.5,-807.5 111.5,-826.5 177.5,-826.5 177.5,-807.5 111.5,-807.5"/>
<text text-anchor="middle" x="144.5" y="-814.5" font-family="Helvetica,sans-Serif" font-size="10.00">luaB_xpcall</text>
</a>
</g>
</g>
<!-- Node1&#45;&gt;Node2 -->
<g id="edge1" class="edge"><title>Node1&#45;&gt;Node2</title>
<path fill="none" stroke="midnightblue" d="M66.2947,-804.189C80.8094,-806.597 97.2802,-809.33 111.27,-811.652"/>
<polygon fill="midnightblue" stroke="midnightblue" points="66.573,-800.687 56.1349,-802.503 65.427,-807.593 66.573,-800.687"/>
</g>
<!-- Node3 -->
<g id="node3" class="node"><title>Node3</title>
<g id="a_node3"><a xlink:href="../../d0/d56/lauxlib_8c.html#a4f35430f7ecfcbd5f507e550937046b4" target="_top" xlink:title="pushglobalfuncname">
<polygon fill="none" stroke="black" points="92,-769.5 92,-788.5 197,-788.5 197,-769.5 92,-769.5"/>
<text text-anchor="middle" x="144.5" y="-776.5" font-family="Helvetica,sans-Serif" font-size="10.00">pushglobalfuncname</text>
</a>
</g>
</g>
<!-- Node1&#45;&gt;Node3 -->
<g id="edge2" class="edge"><title>Node1&#45;&gt;Node3</title>
<path fill="none" stroke="midnightblue" d="M66.1358,-791.838C74.3461,-790.475 83.1887,-789.008 91.8581,-787.569"/>
<polygon fill="midnightblue" stroke="midnightblue" points="65.427,-788.407 56.1349,-793.497 66.573,-795.313 65.427,-788.407"/>
</g>
<!-- Node4 -->
<g id="node4" class="node"><title>Node4</title>
<g id="a_node4"><a xlink:href="../../d0/d56/lauxlib_8c.html#a0aa557042467d3f84d0663c742b32946" target="_top" xlink:title="pushfuncname">
<polygon fill="none" stroke="black" points="233,-826.5 233,-845.5 313,-845.5 313,-826.5 233,-826.5"/>
<text text-anchor="middle" x="273" y="-833.5" font-family="Helvetica,sans-Serif" font-size="10.00">pushfuncname</text>
</a>
</g>
</g>
<!-- Node3&#45;&gt;Node4 -->
<g id="edge3" class="edge"><title>Node3&#45;&gt;Node4</title>
<path fill="none" stroke="midnightblue" d="M182.93,-792.23C187.699,-794.085 192.488,-796.032 197,-798 217.07,-806.752 239.37,-818.294 254.396,-826.352"/>
<polygon fill="midnightblue" stroke="midnightblue" points="183.854,-788.838 173.263,-788.575 181.379,-795.386 183.854,-788.838"/>
</g>
<!-- Node7 -->
<g id="node7" class="node"><title>Node7</title>
<g id="a_node7"><a xlink:href="../../da/d29/lauxlib_8h.html#a526c220d17273c63ce9973bcde4a2c4a" target="_top" xlink:title="luaL_argerror">
<polygon fill="none" stroke="black" points="237.5,-712.5 237.5,-731.5 308.5,-731.5 308.5,-712.5 237.5,-712.5"/>
<text text-anchor="middle" x="273" y="-719.5" font-family="Helvetica,sans-Serif" font-size="10.00">luaL_argerror</text>
</a>
</g>
</g>
<!-- Node3&#45;&gt;Node7 -->
<g id="edge6" class="edge"><title>Node3&#45;&gt;Node7</title>
<path fill="none" stroke="midnightblue" d="M176.032,-765.243C199.145,-754.828 230.301,-740.789 250.758,-731.572"/>
<polygon fill="midnightblue" stroke="midnightblue" points="174.353,-762.16 166.673,-769.459 177.228,-768.542 174.353,-762.16"/>
</g>
<!-- Node5 -->
<g id="node5" class="node"><title>Node5</title>
<g id="a_node5"><a xlink:href="../../da/d29/lauxlib_8h.html#a664cc293d6c7a7dc67857fe95583a10e" target="_top" xlink:title="luaL_traceback">
<polygon fill="none" stroke="black" points="353,-902.5 353,-921.5 434,-921.5 434,-902.5 353,-902.5"/>
<text text-anchor="middle" x="393.5" y="-909.5" font-family="Helvetica,sans-Serif" font-size="10.00">luaL_traceback</text>
</a>
</g>
</g>
<!-- Node4&#45;&gt;Node5 -->
<g id="edge4" class="edge"><title>Node4&#45;&gt;Node5</title>
<path fill="none" stroke="midnightblue" d="M292.91,-852.394C307.563,-864.583 328.721,-881.096 349,-893 354.828,-896.421 361.385,-899.6 367.607,-902.341"/>
<polygon fill="midnightblue" stroke="midnightblue" points="294.987,-849.566 285.09,-845.784 290.468,-854.912 294.987,-849.566"/>
</g>
<!-- Node6 -->
<g id="node6" class="node"><title>Node6</title>
<g id="a_node6"><a xlink:href="../../d8/d97/ldblib_8c.html#ae0792d4f3f6eedd535895e05426b82df" target="_top" xlink:title="db_traceback">
<polygon fill="none" stroke="black" points="488,-902.5 488,-921.5 562,-921.5 562,-902.5 488,-902.5"/>
<text text-anchor="middle" x="525" y="-909.5" font-family="Helvetica,sans-Serif" font-size="10.00">db_traceback</text>
</a>
</g>
</g>
<!-- Node5&#45;&gt;Node6 -->
<g id="edge5" class="edge"><title>Node5&#45;&gt;Node6</title>
<path fill="none" stroke="midnightblue" d="M444.356,-912C458.813,-912 474.319,-912 487.771,-912"/>
<polygon fill="midnightblue" stroke="midnightblue" points="444.058,-908.5 434.058,-912 444.058,-915.5 444.058,-908.5"/>
</g>
<!-- Node8 -->
<g id="node8" class="node"><title>Node8</title>
<g id="a_node8"><a xlink:href="../../d0/d56/lauxlib_8c.html#ae1abbe81af2d487f783ed9b4e5a6c7fd" target="_top" xlink:title="typeerror">
<polygon fill="none" stroke="black" points="367,-579.5 367,-598.5 420,-598.5 420,-579.5 367,-579.5"/>
<text text-anchor="middle" x="393.5" y="-586.5" font-family="Helvetica,sans-Serif" font-size="10.00">typeerror</text>
</a>
</g>
</g>
<!-- Node7&#45;&gt;Node8 -->
<g id="edge7" class="edge"><title>Node7&#45;&gt;Node8</title>
<path fill="none" stroke="midnightblue" d="M289.199,-704.941C314.315,-676.752 363.693,-621.332 383.735,-598.837"/>
<polygon fill="midnightblue" stroke="midnightblue" points="286.561,-702.64 282.522,-712.435 291.788,-707.297 286.561,-702.64"/>
</g>
<!-- Node19 -->
<g id="node19" class="node"><title>Node19</title>
<g id="a_node19"><a xlink:href="../../d8/d97/ldblib_8c.html#a233c3c4d12bda0fdbf515a18b8961461" target="_top" xlink:title="db_setuservalue">
<polygon fill="none" stroke="black" points="754.5,-722.5 754.5,-741.5 841.5,-741.5 841.5,-722.5 754.5,-722.5"/>
<text text-anchor="middle" x="798" y="-729.5" font-family="Helvetica,sans-Serif" font-size="10.00">db_setuservalue</text>
</a>
</g>
</g>
<!-- Node7&#45;&gt;Node19 -->
<g id="edge46" class="edge"><title>Node7&#45;&gt;Node19</title>
<path fill="none" stroke="midnightblue" d="M318.754,-722.856C418.3,-724.759 656.931,-729.322 754.418,-731.186"/>
<polygon fill="midnightblue" stroke="midnightblue" points="318.786,-719.356 308.721,-722.664 318.652,-726.355 318.786,-719.356"/>
</g>
<!-- Node22 -->
<g id="node22" class="node"><title>Node22</title>
<g id="a_node22"><a xlink:href="../../dc/d77/lstrlib_8c.html#ae26a9374857058119e59d0328208c2f2" target="_top" xlink:title="str_format">
<polygon fill="none" stroke="black" points="769.5,-684.5 769.5,-703.5 826.5,-703.5 826.5,-684.5 769.5,-684.5"/>
<text text-anchor="middle" x="798" y="-691.5" font-family="Helvetica,sans-Serif" font-size="10.00">str_format</text>
</a>
</g>
</g>
<!-- Node7&#45;&gt;Node22 -->
<g id="edge57" class="edge"><title>Node7&#45;&gt;Node22</title>
<path fill="none" stroke="midnightblue" d="M319.009,-719.59C424.312,-713.953 684.249,-700.036 769.46,-695.474"/>
<polygon fill="midnightblue" stroke="midnightblue" points="318.519,-716.111 308.721,-720.141 318.893,-723.101 318.519,-716.111"/>
</g>
<!-- Node28 -->
<g id="node28" class="node"><title>Node28</title>
<g id="a_node28"><a xlink:href="../../da/d29/lauxlib_8h.html#a638633914d3a19650db8320c1fccf161" target="_top" xlink:title="luaL_checkoption">
<polygon fill="none" stroke="black" points="349,-465.5 349,-484.5 438,-484.5 438,-465.5 349,-465.5"/>
<text text-anchor="middle" x="393.5" y="-472.5" font-family="Helvetica,sans-Serif" font-size="10.00">luaL_checkoption</text>
</a>
</g>
</g>
<!-- Node7&#45;&gt;Node28 -->
<g id="edge28" class="edge"><title>Node7&#45;&gt;Node28</title>
<path fill="none" stroke="midnightblue" d="M283.085,-703.064C306.851,-653.525 370.245,-521.389 387.887,-484.616"/>
<polygon fill="midnightblue" stroke="midnightblue" points="279.815,-701.787 278.645,-712.317 286.127,-704.815 279.815,-701.787"/>
</g>
<!-- Node33 -->
<g id="node33" class="node"><title>Node33</title>
<g id="a_node33"><a xlink:href="../../da/d29/lauxlib_8h.html#ad78c85dce421e9cb793e205b9e81c640" target="_top" xlink:title="luaL_checkany">
<polygon fill="none" stroke="black" points="623,-228.5 623,-247.5 703,-247.5 703,-228.5 623,-228.5"/>
<text text-anchor="middle" x="663" y="-235.5" font-family="Helvetica,sans-Serif" font-size="10.00">luaL_checkany</text>
</a>
</g>
</g>
<!-- Node7&#45;&gt;Node33 -->
<g id="edge33" class="edge"><title>Node7&#45;&gt;Node33</title>
<path fill="none" stroke="midnightblue" d="M275.084,-702.248C278.547,-655.306 292.705,-535.084 349,-456 427.534,-345.674 580.331,-272.5 638.63,-247.523"/>
<polygon fill="midnightblue" stroke="midnightblue" points="271.587,-702.095 274.428,-712.301 278.572,-702.55 271.587,-702.095"/>
</g>
<!-- Node40 -->
<g id="node40" class="node"><title>Node40</title>
<g id="a_node40"><a xlink:href="../../d8/d97/ldblib_8c.html#a11cfe90e96e7ea907a767f5109f7ef4b" target="_top" xlink:title="db_setlocal">
<polygon fill="none" stroke="black" points="765.5,-0.5 765.5,-19.5 830.5,-19.5 830.5,-0.5 765.5,-0.5"/>
<text text-anchor="middle" x="798" y="-7.5" font-family="Helvetica,sans-Serif" font-size="10.00">db_setlocal</text>
</a>
</g>
</g>
<!-- Node7&#45;&gt;Node40 -->
<g id="edge49" class="edge"><title>Node7&#45;&gt;Node40</title>
<path fill="none" stroke="midnightblue" d="M273.7,-702.077C273.721,-644.832 280.032,-476.642 349,-362 468.421,-163.491 551.134,-147.826 750,-29 755.893,-25.4788 762.558,-22.3394 768.978,-19.6761"/>
<polygon fill="midnightblue" stroke="midnightblue" points="270.201,-702.299 273.767,-712.275 277.201,-702.253 270.201,-702.299"/>
</g>
<!-- Node43 -->
<g id="node43" class="node"><title>Node43</title>
<g id="a_node43"><a xlink:href="../../d8/d97/ldblib_8c.html#a4eb57e66c2efb2d31c9b9e1b01d27e13" target="_top" xlink:title="db_getinfo">
<polygon fill="none" stroke="black" points="363.5,-864.5 363.5,-883.5 423.5,-883.5 423.5,-864.5 363.5,-864.5"/>
<text text-anchor="middle" x="393.5" y="-871.5" font-family="Helvetica,sans-Serif" font-size="10.00">db_getinfo</text>
</a>
</g>
</g>
<!-- Node7&#45;&gt;Node43 -->
<g id="edge47" class="edge"><title>Node7&#45;&gt;Node43</title>
<path fill="none" stroke="midnightblue" d="M280.39,-741.328C290.672,-769.735 313.414,-822.86 349,-855 353.159,-858.756 358.177,-861.857 363.306,-864.387"/>
<polygon fill="midnightblue" stroke="midnightblue" points="283.649,-740.043 277.059,-731.747 277.037,-742.342 283.649,-740.043"/>
</g>
<!-- Node44 -->
<g id="node44" class="node"><title>Node44</title>
<g id="a_node44"><a xlink:href="../../d8/d97/ldblib_8c.html#ae802ce7397e9ebb08a90b69976578ecc" target="_top" xlink:title="db_getlocal">
<polygon fill="none" stroke="black" points="361,-826.5 361,-845.5 426,-845.5 426,-826.5 361,-826.5"/>
<text text-anchor="middle" x="393.5" y="-833.5" font-family="Helvetica,sans-Serif" font-size="10.00">db_getlocal</text>
</a>
</g>
</g>
<!-- Node7&#45;&gt;Node44 -->
<g id="edge48" class="edge"><title>Node7&#45;&gt;Node44</title>
<path fill="none" stroke="midnightblue" d="M284.532,-740.227C297.419,-761.165 321.011,-795.405 349,-817 353.828,-820.725 359.5,-823.885 365.124,-826.494"/>
<polygon fill="midnightblue" stroke="midnightblue" points="287.528,-738.417 279.387,-731.636 281.522,-742.013 287.528,-738.417"/>
</g>
<!-- Node45 -->
<g id="node45" class="node"><title>Node45</title>
<g id="a_node45"><a xlink:href="../../de/df3/liolib_8c.html#addece2406777a40f0f591e3518293932" target="_top" xlink:title="g_read">
<polygon fill="none" stroke="black" points="370.5,-788.5 370.5,-807.5 416.5,-807.5 416.5,-788.5 370.5,-788.5"/>
<text text-anchor="middle" x="393.5" y="-795.5" font-family="Helvetica,sans-Serif" font-size="10.00">g_read</text>
</a>
</g>
</g>
<!-- Node7&#45;&gt;Node45 -->
<g id="edge50" class="edge"><title>Node7&#45;&gt;Node45</title>
<path fill="none" stroke="midnightblue" d="M292.91,-738.394C307.563,-750.583 328.721,-767.096 349,-779 355.681,-782.922 363.32,-786.525 370.313,-789.515"/>
<polygon fill="midnightblue" stroke="midnightblue" points="294.987,-735.566 285.09,-731.784 290.468,-740.912 294.987,-735.566"/>
</g>
<!-- Node50 -->
<g id="node50" class="node"><title>Node50</title>
<g id="a_node50"><a xlink:href="../../dc/dba/loslib_8c.html#aed631522193ea719b6d96782f3e26b6a" target="_top" xlink:title="checkoption">
<polygon fill="none" stroke="black" points="360.5,-750.5 360.5,-769.5 426.5,-769.5 426.5,-750.5 360.5,-750.5"/>
<text text-anchor="middle" x="393.5" y="-757.5" font-family="Helvetica,sans-Serif" font-size="10.00">checkoption</text>
</a>
</g>
</g>
<!-- Node7&#45;&gt;Node50 -->
<g id="edge55" class="edge"><title>Node7&#45;&gt;Node50</title>
<path fill="none" stroke="midnightblue" d="M313.543,-734.68C329.554,-739.815 347.732,-745.644 362.607,-750.414"/>
<polygon fill="midnightblue" stroke="midnightblue" points="314.494,-731.31 303.903,-731.589 312.356,-737.975 314.494,-731.31"/>
</g>
<!-- Node9 -->
<g id="node9" class="node"><title>Node9</title>
<g id="a_node9"><a xlink:href="../../d0/d56/lauxlib_8c.html#a84f86d7f2603b98e935740de1efb858d" target="_top" xlink:title="tag_error">
<polygon fill="none" stroke="black" points="498.5,-579.5 498.5,-598.5 551.5,-598.5 551.5,-579.5 498.5,-579.5"/>
<text text-anchor="middle" x="525" y="-586.5" font-family="Helvetica,sans-Serif" font-size="10.00">tag_error</text>
</a>
</g>
</g>
<!-- Node8&#45;&gt;Node9 -->
<g id="edge8" class="edge"><title>Node8&#45;&gt;Node9</title>
<path fill="none" stroke="midnightblue" d="M430.216,-589C451.864,-589 478.971,-589 498.468,-589"/>
<polygon fill="midnightblue" stroke="midnightblue" points="430.085,-585.5 420.085,-589 430.085,-592.5 430.085,-585.5"/>
</g>
<!-- Node27 -->
<g id="node27" class="node"><title>Node27</title>
<g id="a_node27"><a xlink:href="../../da/d29/lauxlib_8h.html#aed8d8e4f3b95c6bcac246ec9895027b1" target="_top" xlink:title="luaL_checkudata">
<polygon fill="none" stroke="black" points="480.5,-541.5 480.5,-560.5 569.5,-560.5 569.5,-541.5 480.5,-541.5"/>
<text text-anchor="middle" x="525" y="-548.5" font-family="Helvetica,sans-Serif" font-size="10.00">luaL_checkudata</text>
</a>
</g>
</g>
<!-- Node8&#45;&gt;Node27 -->
<g id="edge27" class="edge"><title>Node8&#45;&gt;Node27</title>
<path fill="none" stroke="midnightblue" d="M429.715,-578.667C449,-573.008 472.734,-566.043 491.564,-560.518"/>
<polygon fill="midnightblue" stroke="midnightblue" points="428.695,-575.318 420.085,-581.492 430.666,-582.035 428.695,-575.318"/>
</g>
<!-- Node10 -->
<g id="node10" class="node"><title>Node10</title>
<g id="a_node10"><a xlink:href="../../da/d29/lauxlib_8h.html#ae5f465fb757069d016a10b106c69bdd7" target="_top" xlink:title="luaL_checktype">
<polygon fill="none" stroke="red" points="621.5,-579.5 621.5,-598.5 704.5,-598.5 704.5,-579.5 621.5,-579.5"/>
<text text-anchor="middle" x="663" y="-586.5" font-family="Helvetica,sans-Serif" font-size="10.00">luaL_checktype</text>
</a>
</g>
</g>
<!-- Node9&#45;&gt;Node10 -->
<g id="edge9" class="edge"><title>Node9&#45;&gt;Node10</title>
<path fill="none" stroke="midnightblue" d="M561.815,-589C580.084,-589 602.381,-589 621.298,-589"/>
<polygon fill="midnightblue" stroke="midnightblue" points="561.581,-585.5 551.581,-589 561.581,-592.5 561.581,-585.5"/>
</g>
<!-- Node20 -->
<g id="node20" class="node"><title>Node20</title>
<g id="a_node20"><a xlink:href="../../da/d29/lauxlib_8h.html#af4af154dcb41f8990a572e6a00c349fc" target="_top" xlink:title="luaL_checklstring">
<polygon fill="none" stroke="red" points="619.5,-541.5 619.5,-560.5 706.5,-560.5 706.5,-541.5 619.5,-541.5"/>
<text text-anchor="middle" x="663" y="-548.5" font-family="Helvetica,sans-Serif" font-size="10.00">luaL_checklstring</text>
</a>
</g>
</g>
<!-- Node9&#45;&gt;Node20 -->
<g id="edge19" class="edge"><title>Node9&#45;&gt;Node20</title>
<path fill="none" stroke="midnightblue" d="M561.464,-579.091C581.934,-573.371 607.55,-566.214 627.802,-560.555"/>
<polygon fill="midnightblue" stroke="midnightblue" points="560.27,-575.79 551.581,-581.852 562.154,-582.532 560.27,-575.79"/>
</g>
<!-- Node23 -->
<g id="node23" class="node"><title>Node23</title>
<g id="a_node23"><a xlink:href="../../da/d29/lauxlib_8h.html#a3e39a4d35c3ce1555126e372a8a329c3" target="_top" xlink:title="luaL_checknumber">
<polygon fill="none" stroke="red" points="615.5,-636.5 615.5,-655.5 710.5,-655.5 710.5,-636.5 615.5,-636.5"/>
<text text-anchor="middle" x="663" y="-643.5" font-family="Helvetica,sans-Serif" font-size="10.00">luaL_checknumber</text>
</a>
</g>
</g>
<!-- Node9&#45;&gt;Node23 -->
<g id="edge22" class="edge"><title>Node9&#45;&gt;Node23</title>
<path fill="none" stroke="midnightblue" d="M558.161,-602.479C583.074,-612.921 616.973,-627.129 639.162,-636.428"/>
<polygon fill="midnightblue" stroke="midnightblue" points="559.339,-599.178 548.763,-598.541 556.633,-605.634 559.339,-599.178"/>
</g>
<!-- Node25 -->
<g id="node25" class="node"><title>Node25</title>
<g id="a_node25"><a xlink:href="../../da/d29/lauxlib_8h.html#ab9c2bb4294fb7a81d3745dad5711cd63" target="_top" xlink:title="luaL_checkinteger">
<polygon fill="none" stroke="red" points="617.5,-503.5 617.5,-522.5 708.5,-522.5 708.5,-503.5 617.5,-503.5"/>
<text text-anchor="middle" x="663" y="-510.5" font-family="Helvetica,sans-Serif" font-size="10.00">luaL_checkinteger</text>
</a>
</g>
</g>
<!-- Node9&#45;&gt;Node25 -->
<g id="edge25" class="edge"><title>Node9&#45;&gt;Node25</title>
<path fill="none" stroke="midnightblue" d="M561.058,-578.003C566.262,-575.719 571.412,-573.057 576,-570 595.36,-557.099 592.64,-544.901 612,-532 617.564,-528.292 623.953,-525.168 630.264,-522.591"/>
<polygon fill="midnightblue" stroke="midnightblue" points="559.739,-574.761 551.743,-581.712 562.328,-581.265 559.739,-574.761"/>
</g>
<!-- Node26 -->
<g id="node26" class="node"><title>Node26</title>
<g id="a_node26"><a xlink:href="../../da/d29/lauxlib_8h.html#adbf21909ea6ed4e2d47a5676e37f4bba" target="_top" xlink:title="luaL_checkunsigned">
<polygon fill="none" stroke="red" points="612,-465.5 612,-484.5 714,-484.5 714,-465.5 612,-465.5"/>
<text text-anchor="middle" x="663" y="-472.5" font-family="Helvetica,sans-Serif" font-size="10.00">luaL_checkunsigned</text>
</a>
</g>
</g>
<!-- Node9&#45;&gt;Node26 -->
<g id="edge26" class="edge"><title>Node9&#45;&gt;Node26</title>
<path fill="none" stroke="midnightblue" d="M561.368,-579.519C566.678,-577.023 571.779,-573.899 576,-570 603.454,-544.639 584.546,-519.361 612,-494 616.161,-490.156 621.178,-487.066 626.406,-484.587"/>
<polygon fill="midnightblue" stroke="midnightblue" points="559.721,-576.408 551.731,-583.365 562.316,-582.909 559.721,-576.408"/>
</g>
<!-- Node11 -->
<g id="node11" class="node"><title>Node11</title>
<g id="a_node11"><a xlink:href="../../d8/dd3/lbaselib_8c.html#af7799a987ba6d158a96a52e80fb5beaf" target="_top" xlink:title="luaB_setmetatable">
<polygon fill="none" stroke="black" points="750,-456.5 750,-475.5 846,-475.5 846,-456.5 750,-456.5"/>
<text text-anchor="middle" x="798" y="-463.5" font-family="Helvetica,sans-Serif" font-size="10.00">luaB_setmetatable</text>
</a>
</g>
</g>
<!-- Node10&#45;&gt;Node11 -->
<g id="edge10" class="edge"><title>Node10&#45;&gt;Node11</title>
<path fill="none" stroke="midnightblue" d="M708.723,-574.34C710.597,-573.014 712.37,-571.57 714,-570 743.548,-541.539 720.752,-513.77 750,-485 753.89,-481.173 758.653,-478.086 763.637,-475.604"/>
<polygon fill="midnightblue" stroke="midnightblue" points="706.862,-571.374 699.991,-579.439 710.391,-577.419 706.862,-571.374"/>
</g>
<!-- Node12 -->
<g id="node12" class="node"><title>Node12</title>
<g id="a_node12"><a xlink:href="../../d8/dd3/lbaselib_8c.html#a248a6847a33f31c69a43a76b6b8bcb4b" target="_top" xlink:title="luaB_rawget">
<polygon fill="none" stroke="black" points="762.5,-380.5 762.5,-399.5 833.5,-399.5 833.5,-380.5 762.5,-380.5"/>
<text text-anchor="middle" x="798" y="-387.5" font-family="Helvetica,sans-Serif" font-size="10.00">luaB_rawget</text>
</a>
</g>
</g>
<!-- Node10&#45;&gt;Node12 -->
<g id="edge11" class="edge"><title>Node10&#45;&gt;Node12</title>
<path fill="none" stroke="midnightblue" d="M710.691,-573.337C711.866,-572.295 712.974,-571.184 714,-570 762.006,-514.578 702.579,-464.924 750,-409 753.301,-405.107 757.519,-402.002 762.069,-399.529"/>
<polygon fill="midnightblue" stroke="midnightblue" points="708.364,-570.691 702.132,-579.259 712.347,-576.448 708.364,-570.691"/>
</g>
<!-- Node13 -->
<g id="node13" class="node"><title>Node13</title>
<g id="a_node13"><a xlink:href="../../d8/dd3/lbaselib_8c.html#a7b7225051c25127792f30eadd3498cc3" target="_top" xlink:title="luaB_rawset">
<polygon fill="none" stroke="black" points="762.5,-418.5 762.5,-437.5 833.5,-437.5 833.5,-418.5 762.5,-418.5"/>
<text text-anchor="middle" x="798" y="-425.5" font-family="Helvetica,sans-Serif" font-size="10.00">luaB_rawset</text>
</a>
</g>
</g>
<!-- Node10&#45;&gt;Node13 -->
<g id="edge12" class="edge"><title>Node10&#45;&gt;Node13</title>
<path fill="none" stroke="midnightblue" d="M709.617,-574.048C711.182,-572.804 712.653,-571.457 714,-570 752.667,-528.175 711.775,-489.229 750,-447 753.426,-443.215 757.712,-440.171 762.292,-437.724"/>
<polygon fill="midnightblue" stroke="midnightblue" points="707.698,-571.12 701.154,-579.452 711.466,-577.02 707.698,-571.12"/>
</g>
<!-- Node14 -->
<g id="node14" class="node"><title>Node14</title>
<g id="a_node14"><a xlink:href="../../d8/dd3/lbaselib_8c.html#a8f5df6d3f89389dd27da5cfeceee1f34" target="_top" xlink:title="pairsmeta">
<polygon fill="none" stroke="red" points="768.5,-646.5 768.5,-665.5 827.5,-665.5 827.5,-646.5 768.5,-646.5"/>
<text text-anchor="middle" x="798" y="-653.5" font-family="Helvetica,sans-Serif" font-size="10.00">pairsmeta</text>
</a>
</g>
</g>
<!-- Node10&#45;&gt;Node14 -->
<g id="edge13" class="edge"><title>Node10&#45;&gt;Node14</title>
<path fill="none" stroke="midnightblue" d="M688.58,-603.799C705.549,-613.746 728.791,-626.843 750,-637 756.827,-640.269 764.371,-643.486 771.38,-646.317"/>
<polygon fill="midnightblue" stroke="midnightblue" points="690.24,-600.714 679.851,-598.636 686.676,-606.739 690.24,-600.714"/>
</g>
<!-- Node15 -->
<g id="node15" class="node"><title>Node15</title>
<g id="a_node15"><a xlink:href="../../d8/dd3/lbaselib_8c.html#ac0b11ecf3ced275821aaf5a03ed33b02" target="_top" xlink:title="luaB_next">
<polygon fill="none" stroke="red" points="768.5,-608.5 768.5,-627.5 827.5,-627.5 827.5,-608.5 768.5,-608.5"/>
<text text-anchor="middle" x="798" y="-615.5" font-family="Helvetica,sans-Serif" font-size="10.00">luaB_next</text>
</a>
</g>
</g>
<!-- Node10&#45;&gt;Node15 -->
<g id="edge14" class="edge"><title>Node10&#45;&gt;Node15</title>
<path fill="none" stroke="midnightblue" d="M714.546,-600.021C732.783,-603.998 752.721,-608.345 768.422,-611.769"/>
<polygon fill="midnightblue" stroke="midnightblue" points="715.143,-596.569 704.627,-597.859 713.652,-603.409 715.143,-596.569"/>
</g>
<!-- Node16 -->
<g id="node16" class="node"><title>Node16</title>
<g id="a_node16"><a xlink:href="../../d8/dd3/lbaselib_8c.html#a9e49fcec5e66e36e817b1951123efc03" target="_top" xlink:title="ipairsaux">
<polygon fill="none" stroke="red" points="770,-570.5 770,-589.5 826,-589.5 826,-570.5 770,-570.5"/>
<text text-anchor="middle" x="798" y="-577.5" font-family="Helvetica,sans-Serif" font-size="10.00">ipairsaux</text>
</a>
</g>
</g>
<!-- Node10&#45;&gt;Node16 -->
<g id="edge15" class="edge"><title>Node10&#45;&gt;Node16</title>
<path fill="none" stroke="midnightblue" d="M714.771,-585.564C733.427,-584.302 753.836,-582.921 769.654,-581.85"/>
<polygon fill="midnightblue" stroke="midnightblue" points="714.368,-582.084 704.627,-586.251 714.841,-589.068 714.368,-582.084"/>
</g>
<!-- Node17 -->
<g id="node17" class="node"><title>Node17</title>
<g id="a_node17"><a xlink:href="../../d8/dd3/lbaselib_8c.html#a4a9a3613fcf80fe033e044f7e19bed69" target="_top" xlink:title="luaB_load">
<polygon fill="none" stroke="black" points="768.5,-532.5 768.5,-551.5 827.5,-551.5 827.5,-532.5 768.5,-532.5"/>
<text text-anchor="middle" x="798" y="-539.5" font-family="Helvetica,sans-Serif" font-size="10.00">luaB_load</text>
</a>
</g>
</g>
<!-- Node10&#45;&gt;Node17 -->
<g id="edge16" class="edge"><title>Node10&#45;&gt;Node17</title>
<path fill="none" stroke="midnightblue" d="M700.524,-576.093C722.375,-568.371 749.688,-558.719 769.669,-551.658"/>
<polygon fill="midnightblue" stroke="midnightblue" points="699.177,-572.857 690.915,-579.489 701.509,-579.457 699.177,-572.857"/>
</g>
<!-- Node18 -->
<g id="node18" class="node"><title>Node18</title>
<g id="a_node18"><a xlink:href="../../df/d2d/lcorolib_8c.html#ad49772e236781ef7ad88ff8bc980b40b" target="_top" xlink:title="luaB_cocreate">
<polygon fill="none" stroke="red" points="759.5,-494.5 759.5,-513.5 836.5,-513.5 836.5,-494.5 759.5,-494.5"/>
<text text-anchor="middle" x="798" y="-501.5" font-family="Helvetica,sans-Serif" font-size="10.00">luaB_cocreate</text>
</a>
</g>
</g>
<!-- Node10&#45;&gt;Node18 -->
<g id="edge17" class="edge"><title>Node10&#45;&gt;Node18</title>
<path fill="none" stroke="midnightblue" d="M706.143,-575.024C708.897,-573.498 711.547,-571.827 714,-570 735.103,-554.283 729.064,-538.938 750,-523 754.902,-519.268 760.637,-516.157 766.384,-513.605"/>
<polygon fill="midnightblue" stroke="midnightblue" points="704.567,-571.898 697.097,-579.412 707.622,-578.196 704.567,-571.898"/>
</g>
<!-- Node10&#45;&gt;Node19 -->
<g id="edge18" class="edge"><title>Node10&#45;&gt;Node19</title>
<path fill="none" stroke="midnightblue" d="M689.509,-604.437C698.146,-610.617 707.293,-618.335 714,-627 739.362,-659.767 720.521,-683.881 750,-713 753.882,-716.835 758.641,-719.927 763.623,-722.41"/>
<polygon fill="midnightblue" stroke="midnightblue" points="691.397,-601.489 681.151,-598.793 687.479,-607.29 691.397,-601.489"/>
</g>
<!-- Node21 -->
<g id="node21" class="node"><title>Node21</title>
<g id="a_node21"><a xlink:href="../../d8/dd3/lbaselib_8c.html#a6224f7b7c4485996e1c22eae32de990d" target="_top" xlink:title="luaB_tonumber">
<polygon fill="none" stroke="black" points="758,-342.5 758,-361.5 838,-361.5 838,-342.5 758,-342.5"/>
<text text-anchor="middle" x="798" y="-349.5" font-family="Helvetica,sans-Serif" font-size="10.00">luaB_tonumber</text>
</a>
</g>
</g>
<!-- Node20&#45;&gt;Node21 -->
<g id="edge20" class="edge"><title>Node20&#45;&gt;Node21</title>
<path fill="none" stroke="midnightblue" d="M710.691,-535.337C711.866,-534.295 712.974,-533.184 714,-532 762.006,-476.578 702.579,-426.924 750,-371 753.301,-367.107 757.519,-364.002 762.069,-361.529"/>
<polygon fill="midnightblue" stroke="midnightblue" points="708.364,-532.691 702.132,-541.259 712.347,-538.448 708.364,-532.691"/>
</g>
<!-- Node20&#45;&gt;Node22 -->
<g id="edge21" class="edge"><title>Node20&#45;&gt;Node22</title>
<path fill="none" stroke="midnightblue" d="M709.451,-565.966C711.069,-567.207 712.595,-568.549 714,-570 748.306,-605.452 716.068,-639.189 750,-675 755.206,-680.494 762.218,-684.441 769.236,-687.261"/>
<polygon fill="midnightblue" stroke="midnightblue" points="711.086,-562.862 700.742,-560.57 707.399,-568.812 711.086,-562.862"/>
</g>
<!-- Node23&#45;&gt;Node22 -->
<g id="edge24" class="edge"><title>Node23&#45;&gt;Node22</title>
<path fill="none" stroke="midnightblue" d="M700.034,-659.005C722.251,-667.023 750.257,-677.13 770.451,-684.418"/>
<polygon fill="midnightblue" stroke="midnightblue" points="701.189,-655.701 690.595,-655.598 698.813,-662.285 701.189,-655.701"/>
</g>
<!-- Node24 -->
<g id="node24" class="node"><title>Node24</title>
<g id="a_node24"><a xlink:href="../../dc/dba/loslib_8c.html#a6520f2562b500aee87a6a475995adefb" target="_top" xlink:title="os_date">
<polygon fill="none" stroke="black" points="772.5,-760.5 772.5,-779.5 823.5,-779.5 823.5,-760.5 772.5,-760.5"/>
<text text-anchor="middle" x="798" y="-767.5" font-family="Helvetica,sans-Serif" font-size="10.00">os_date</text>
</a>
</g>
</g>
<!-- Node23&#45;&gt;Node24 -->
<g id="edge23" class="edge"><title>Node23&#45;&gt;Node24</title>
<path fill="none" stroke="midnightblue" d="M675.062,-664.587C689.635,-687.668 717.285,-726.928 750,-751 756.664,-755.903 764.771,-759.767 772.362,-762.694"/>
<polygon fill="midnightblue" stroke="midnightblue" points="677.863,-662.459 669.641,-655.777 671.901,-666.128 677.863,-662.459"/>
</g>
<!-- Node29 -->
<g id="node29" class="node"><title>Node29</title>
<g id="a_node29"><a xlink:href="../../d8/dd3/lbaselib_8c.html#a07f71966c943cc9761ab129f64d4ac80" target="_top" xlink:title="luaB_collectgarbage">
<polygon fill="none" stroke="black" points="474,-503.5 474,-522.5 576,-522.5 576,-503.5 474,-503.5"/>
<text text-anchor="middle" x="525" y="-510.5" font-family="Helvetica,sans-Serif" font-size="10.00">luaB_collectgarbage</text>
</a>
</g>
</g>
<!-- Node28&#45;&gt;Node29 -->
<g id="edge29" class="edge"><title>Node28&#45;&gt;Node29</title>
<path fill="none" stroke="midnightblue" d="M437.219,-487.535C454.836,-492.705 474.923,-498.599 491.332,-503.414"/>
<polygon fill="midnightblue" stroke="midnightblue" points="437.759,-484.046 427.178,-484.589 435.788,-490.763 437.759,-484.046"/>
</g>
<!-- Node30 -->
<g id="node30" class="node"><title>Node30</title>
<g id="a_node30"><a xlink:href="../../de/df3/liolib_8c.html#ace5e1a23cc9e2ffe7ae6cc523e54de73" target="_top" xlink:title="f_seek">
<polygon fill="none" stroke="black" points="503,-465.5 503,-484.5 547,-484.5 547,-465.5 503,-465.5"/>
<text text-anchor="middle" x="525" y="-472.5" font-family="Helvetica,sans-Serif" font-size="10.00">f_seek</text>
</a>
</g>
</g>
<!-- Node28&#45;&gt;Node30 -->
<g id="edge30" class="edge"><title>Node28&#45;&gt;Node30</title>
<path fill="none" stroke="midnightblue" d="M448.474,-475C467.57,-475 487.953,-475 502.725,-475"/>
<polygon fill="midnightblue" stroke="midnightblue" points="448.343,-471.5 438.343,-475 448.343,-478.5 448.343,-471.5"/>
</g>
<!-- Node31 -->
<g id="node31" class="node"><title>Node31</title>
<g id="a_node31"><a xlink:href="../../de/df3/liolib_8c.html#aa7d559e7d43a6133ec495d6b4e5d68f2" target="_top" xlink:title="f_setvbuf">
<polygon fill="none" stroke="black" points="497,-427.5 497,-446.5 553,-446.5 553,-427.5 497,-427.5"/>
<text text-anchor="middle" x="525" y="-434.5" font-family="Helvetica,sans-Serif" font-size="10.00">f_setvbuf</text>
</a>
</g>
</g>
<!-- Node28&#45;&gt;Node31 -->
<g id="edge31" class="edge"><title>Node28&#45;&gt;Node31</title>
<path fill="none" stroke="midnightblue" d="M436.822,-462.581C456.46,-456.819 479.238,-450.135 496.586,-445.044"/>
<polygon fill="midnightblue" stroke="midnightblue" points="435.788,-459.237 427.178,-465.411 437.759,-465.954 435.788,-459.237"/>
</g>
<!-- Node32 -->
<g id="node32" class="node"><title>Node32</title>
<g id="a_node32"><a xlink:href="../../dc/dba/loslib_8c.html#a148e76ec4bfa32f07c0bd8c802960113" target="_top" xlink:title="os_setlocale">
<polygon fill="none" stroke="black" points="490.5,-389.5 490.5,-408.5 559.5,-408.5 559.5,-389.5 490.5,-389.5"/>
<text text-anchor="middle" x="525" y="-396.5" font-family="Helvetica,sans-Serif" font-size="10.00">os_setlocale</text>
</a>
</g>
</g>
<!-- Node28&#45;&gt;Node32 -->
<g id="edge32" class="edge"><title>Node28&#45;&gt;Node32</title>
<path fill="none" stroke="midnightblue" d="M413.829,-458.959C429.377,-446.609 452.157,-429.723 474,-418 480.628,-414.443 488.067,-411.235 495.14,-408.511"/>
<polygon fill="midnightblue" stroke="midnightblue" points="411.569,-456.286 405.988,-465.292 415.967,-461.732 411.569,-456.286"/>
</g>
<!-- Node33&#45;&gt;Node12 -->
<g id="edge37" class="edge"><title>Node33&#45;&gt;Node12</title>
<path fill="none" stroke="midnightblue" d="M671.797,-257.071C684.322,-285.535 711.485,-339.181 750,-371 754.614,-374.812 760.093,-377.939 765.652,-380.477"/>
<polygon fill="midnightblue" stroke="midnightblue" points="674.991,-255.639 667.851,-247.811 668.551,-258.383 674.991,-255.639"/>
</g>
<!-- Node33&#45;&gt;Node13 -->
<g id="edge38" class="edge"><title>Node33&#45;&gt;Node13</title>
<path fill="none" stroke="midnightblue" d="M668.882,-257.489C678.582,-292.441 703.47,-366.129 750,-409 754.143,-412.817 759.151,-415.913 764.334,-418.41"/>
<polygon fill="midnightblue" stroke="midnightblue" points="672.203,-256.359 666.258,-247.59 665.437,-258.153 672.203,-256.359"/>
</g>
<!-- Node33&#45;&gt;Node21 -->
<g id="edge34" class="edge"><title>Node33&#45;&gt;Node21</title>
<path fill="none" stroke="midnightblue" d="M676.368,-256.002C691.572,-276.97 719.176,-311.474 750,-333 755.34,-336.729 761.52,-339.89 767.608,-342.499"/>
<polygon fill="midnightblue" stroke="midnightblue" points="679.101,-253.805 670.463,-247.669 673.389,-257.852 679.101,-253.805"/>
</g>
<!-- Node34 -->
<g id="node34" class="node"><title>Node34</title>
<g id="a_node34"><a xlink:href="../../d8/dd3/lbaselib_8c.html#addfd66adcbe4c777cf5e10536d27d8b1" target="_top" xlink:title="luaB_getmetatable">
<polygon fill="none" stroke="black" points="750,-152.5 750,-171.5 846,-171.5 846,-152.5 750,-152.5"/>
<text text-anchor="middle" x="798" y="-159.5" font-family="Helvetica,sans-Serif" font-size="10.00">luaB_getmetatable</text>
</a>
</g>
</g>
<!-- Node33&#45;&gt;Node34 -->
<g id="edge35" class="edge"><title>Node33&#45;&gt;Node34</title>
<path fill="none" stroke="midnightblue" d="M696.624,-224.061C702.579,-221.041 708.609,-217.647 714,-214 731.978,-201.839 731.646,-192.586 750,-181 755.656,-177.43 762.097,-174.305 768.357,-171.675"/>
<polygon fill="midnightblue" stroke="midnightblue" points="694.923,-220.995 687.428,-228.484 697.957,-227.304 694.923,-220.995"/>
</g>
<!-- Node35 -->
<g id="node35" class="node"><title>Node35</title>
<g id="a_node35"><a xlink:href="../../d8/dd3/lbaselib_8c.html#a4dbd4fb89ec70a7b07cad52f7c13e637" target="_top" xlink:title="luaB_rawequal">
<polygon fill="none" stroke="black" points="757.5,-114.5 757.5,-133.5 838.5,-133.5 838.5,-114.5 757.5,-114.5"/>
<text text-anchor="middle" x="798" y="-121.5" font-family="Helvetica,sans-Serif" font-size="10.00">luaB_rawequal</text>
</a>
</g>
</g>
<!-- Node33&#45;&gt;Node35 -->
<g id="edge36" class="edge"><title>Node33&#45;&gt;Node35</title>
<path fill="none" stroke="midnightblue" d="M701.107,-223.674C705.774,-220.906 710.226,-217.693 714,-214 739.288,-189.256 723.941,-166.931 750,-143 754.149,-139.19 759.161,-136.098 764.345,-133.602"/>
<polygon fill="midnightblue" stroke="midnightblue" points="699.22,-220.711 691.993,-228.458 702.474,-226.909 699.22,-220.711"/>
</g>
<!-- Node36 -->
<g id="node36" class="node"><title>Node36</title>
<g id="a_node36"><a xlink:href="../../d8/dd3/lbaselib_8c.html#a7135b660cac1e25a2854acd9849cd4a4" target="_top" xlink:title="luaB_type">
<polygon fill="none" stroke="black" points="768,-76.5 768,-95.5 828,-95.5 828,-76.5 768,-76.5"/>
<text text-anchor="middle" x="798" y="-83.5" font-family="Helvetica,sans-Serif" font-size="10.00">luaB_type</text>
</a>
</g>
</g>
<!-- Node33&#45;&gt;Node36 -->
<g id="edge39" class="edge"><title>Node33&#45;&gt;Node36</title>
<path fill="none" stroke="midnightblue" d="M702.732,-223.488C706.905,-220.793 710.792,-217.65 714,-214 747.684,-175.682 715.119,-142.232 750,-105 754.814,-99.8617 761.209,-96.0794 767.727,-93.3073"/>
<polygon fill="midnightblue" stroke="midnightblue" points="700.927,-220.487 693.891,-228.409 704.331,-226.604 700.927,-220.487"/>
</g>
<!-- Node37 -->
<g id="node37" class="node"><title>Node37</title>
<g id="a_node37"><a xlink:href="../../d8/dd3/lbaselib_8c.html#a1fb2725eed679431d070b2e9e7abc223" target="_top" xlink:title="luaB_pcall">
<polygon fill="none" stroke="black" points="767.5,-38.5 767.5,-57.5 828.5,-57.5 828.5,-38.5 767.5,-38.5"/>
<text text-anchor="middle" x="798" y="-45.5" font-family="Helvetica,sans-Serif" font-size="10.00">luaB_pcall</text>
</a>
</g>
</g>
<!-- Node33&#45;&gt;Node37 -->
<g id="edge40" class="edge"><title>Node33&#45;&gt;Node37</title>
<path fill="none" stroke="midnightblue" d="M703.622,-223.32C707.512,-220.674 711.089,-217.588 714,-214 756.385,-161.77 705.982,-117.861 750,-67 754.608,-61.676 760.925,-57.824 767.434,-55.044"/>
<polygon fill="midnightblue" stroke="midnightblue" points="701.66,-220.411 694.741,-228.435 705.153,-226.477 701.66,-220.411"/>
</g>
<!-- Node38 -->
<g id="node38" class="node"><title>Node38</title>
<g id="a_node38"><a xlink:href="../../d8/dd3/lbaselib_8c.html#a15bd8ce3f719c87883bcb578c60677e7" target="_top" xlink:title="luaB_tostring">
<polygon fill="none" stroke="black" points="762.5,-304.5 762.5,-323.5 833.5,-323.5 833.5,-304.5 762.5,-304.5"/>
<text text-anchor="middle" x="798" y="-311.5" font-family="Helvetica,sans-Serif" font-size="10.00">luaB_tostring</text>
</a>
</g>
</g>
<!-- Node33&#45;&gt;Node38 -->
<g id="edge41" class="edge"><title>Node33&#45;&gt;Node38</title>
<path fill="none" stroke="midnightblue" d="M684.714,-253.448C701.696,-265.683 726.652,-282.704 750,-295 756.541,-298.445 763.85,-301.675 770.719,-304.46"/>
<polygon fill="midnightblue" stroke="midnightblue" points="686.753,-250.603 676.612,-247.536 682.627,-256.258 686.753,-250.603"/>
</g>
<!-- Node39 -->
<g id="node39" class="node"><title>Node39</title>
<g id="a_node39"><a xlink:href="../../d8/d97/ldblib_8c.html#aa84da9dfea83fb9e516443b49b109044" target="_top" xlink:title="db_getmetatable">
<polygon fill="none" stroke="black" points="754,-266.5 754,-285.5 842,-285.5 842,-266.5 754,-266.5"/>
<text text-anchor="middle" x="798" y="-273.5" font-family="Helvetica,sans-Serif" font-size="10.00">db_getmetatable</text>
</a>
</g>
</g>
<!-- Node33&#45;&gt;Node39 -->
<g id="edge42" class="edge"><title>Node33&#45;&gt;Node39</title>
<path fill="none" stroke="midnightblue" d="M707.367,-250.391C725.581,-255.594 746.439,-261.554 763.449,-266.414"/>
<polygon fill="midnightblue" stroke="midnightblue" points="708.138,-246.971 697.562,-247.589 706.215,-253.702 708.138,-246.971"/>
</g>
<!-- Node33&#45;&gt;Node40 -->
<g id="edge43" class="edge"><title>Node33&#45;&gt;Node40</title>
<path fill="none" stroke="midnightblue" d="M703.933,-223.359C707.738,-220.71 711.21,-217.612 714,-214 765.207,-147.711 696.719,-93.6345 750,-29 754.031,-24.1103 759.512,-20.4681 765.309,-17.7586"/>
<polygon fill="midnightblue" stroke="midnightblue" points="702.067,-220.396 695.207,-228.47 705.605,-226.436 702.067,-220.396"/>
</g>
<!-- Node41 -->
<g id="node41" class="node"><title>Node41</title>
<g id="a_node41"><a xlink:href="../../d8/d97/ldblib_8c.html#acd61487bdd057d6c668ec0bd88728670" target="_top" xlink:title="db_setupvalue">
<polygon fill="none" stroke="black" points="758,-228.5 758,-247.5 838,-247.5 838,-228.5 758,-228.5"/>
<text text-anchor="middle" x="798" y="-235.5" font-family="Helvetica,sans-Serif" font-size="10.00">db_setupvalue</text>
</a>
</g>
</g>
<!-- Node33&#45;&gt;Node41 -->
<g id="edge44" class="edge"><title>Node33&#45;&gt;Node41</title>
<path fill="none" stroke="midnightblue" d="M713.535,-238C728.09,-238 743.807,-238 757.635,-238"/>
<polygon fill="midnightblue" stroke="midnightblue" points="713.185,-234.5 703.185,-238 713.185,-241.5 713.185,-234.5"/>
</g>
<!-- Node42 -->
<g id="node42" class="node"><title>Node42</title>
<g id="a_node42"><a xlink:href="../../de/df3/liolib_8c.html#a2bd80ae170dce6c29d385b71398fd7c2" target="_top" xlink:title="io_type">
<polygon fill="none" stroke="black" points="774.5,-190.5 774.5,-209.5 821.5,-209.5 821.5,-190.5 774.5,-190.5"/>
<text text-anchor="middle" x="798" y="-197.5" font-family="Helvetica,sans-Serif" font-size="10.00">io_type</text>
</a>
</g>
</g>
<!-- Node33&#45;&gt;Node42 -->
<g id="edge45" class="edge"><title>Node33&#45;&gt;Node42</title>
<path fill="none" stroke="midnightblue" d="M707.189,-225.66C729.561,-219.268 755.962,-211.725 774.325,-206.478"/>
<polygon fill="midnightblue" stroke="midnightblue" points="706.215,-222.298 697.562,-228.411 708.138,-229.029 706.215,-222.298"/>
</g>
<!-- Node46 -->
<g id="node46" class="node"><title>Node46</title>
<g id="a_node46"><a xlink:href="../../de/df3/liolib_8c.html#a45307aa59a628966c6ea270e9b476d9a" target="_top" xlink:title="io_read">
<polygon fill="none" stroke="black" points="501.5,-788.5 501.5,-807.5 548.5,-807.5 548.5,-788.5 501.5,-788.5"/>
<text text-anchor="middle" x="525" y="-795.5" font-family="Helvetica,sans-Serif" font-size="10.00">io_read</text>
</a>
</g>
</g>
<!-- Node45&#45;&gt;Node46 -->
<g id="edge51" class="edge"><title>Node45&#45;&gt;Node46</title>
<path fill="none" stroke="midnightblue" d="M426.804,-798C449.939,-798 480.526,-798 501.159,-798"/>
<polygon fill="midnightblue" stroke="midnightblue" points="426.762,-794.5 416.762,-798 426.762,-801.5 426.762,-794.5"/>
</g>
<!-- Node47 -->
<g id="node47" class="node"><title>Node47</title>
<g id="a_node47"><a xlink:href="../../de/df3/liolib_8c.html#add5250a74576076467531e4eb8f5f68e" target="_top" xlink:title="f_read">
<polygon fill="none" stroke="black" points="503.5,-864.5 503.5,-883.5 546.5,-883.5 546.5,-864.5 503.5,-864.5"/>
<text text-anchor="middle" x="525" y="-871.5" font-family="Helvetica,sans-Serif" font-size="10.00">f_read</text>
</a>
</g>
</g>
<!-- Node45&#45;&gt;Node47 -->
<g id="edge52" class="edge"><title>Node45&#45;&gt;Node47</title>
<path fill="none" stroke="midnightblue" d="M425.864,-809.872C430.092,-811.99 434.257,-814.372 438,-817 457.04,-830.368 454.64,-842.099 474,-855 482.81,-860.87 493.688,-865.28 503.046,-868.366"/>
<polygon fill="midnightblue" stroke="midnightblue" points="427.199,-806.634 416.648,-805.661 424.289,-813 427.199,-806.634"/>
</g>
<!-- Node48 -->
<g id="node48" class="node"><title>Node48</title>
<g id="a_node48"><a xlink:href="../../de/df3/liolib_8c.html#ac37d80ee2cc364b4adafcb6f7c20f28b" target="_top" xlink:title="io_readline">
<polygon fill="none" stroke="black" points="494.5,-826.5 494.5,-845.5 555.5,-845.5 555.5,-826.5 494.5,-826.5"/>
<text text-anchor="middle" x="525" y="-833.5" font-family="Helvetica,sans-Serif" font-size="10.00">io_readline</text>
</a>
</g>
</g>
<!-- Node45&#45;&gt;Node48 -->
<g id="edge53" class="edge"><title>Node45&#45;&gt;Node48</title>
<path fill="none" stroke="midnightblue" d="M426.395,-807.359C447.132,-813.444 473.985,-821.324 494.275,-827.278"/>
<polygon fill="midnightblue" stroke="midnightblue" points="427.343,-803.99 416.762,-804.532 425.372,-810.707 427.343,-803.99"/>
</g>
<!-- Node49 -->
<g id="node49" class="node"><title>Node49</title>
<g id="a_node49"><a xlink:href="../../de/df3/liolib_8c.html#a66325940a0248cee288153edb061c0c4" target="_top" xlink:title="aux_lines">
<polygon fill="none" stroke="red" points="634.5,-826.5 634.5,-845.5 691.5,-845.5 691.5,-826.5 634.5,-826.5"/>
<text text-anchor="middle" x="663" y="-833.5" font-family="Helvetica,sans-Serif" font-size="10.00">aux_lines</text>
</a>
</g>
</g>
<!-- Node48&#45;&gt;Node49 -->
<g id="edge54" class="edge"><title>Node48&#45;&gt;Node49</title>
<path fill="none" stroke="midnightblue" d="M565.585,-836C587.663,-836 614.613,-836 634.402,-836"/>
<polygon fill="midnightblue" stroke="midnightblue" points="565.51,-832.5 555.51,-836 565.51,-839.5 565.51,-832.5"/>
</g>
<!-- Node50&#45;&gt;Node24 -->
<g id="edge56" class="edge"><title>Node50&#45;&gt;Node24</title>
<path fill="none" stroke="midnightblue" d="M436.938,-761.054C520.715,-763.136 705.029,-767.715 772.028,-769.38"/>
<polygon fill="midnightblue" stroke="midnightblue" points="436.842,-757.551 426.758,-760.801 436.668,-764.549 436.842,-757.551"/>
</g>
</g>
</svg>
