<?xml version="1.0" encoding="UTF-8" standalone="no"?>
<!DOCTYPE svg PUBLIC "-//W3C//DTD SVG 1.1//EN"
 "http://www.w3.org/Graphics/SVG/1.1/DTD/svg11.dtd">
<!-- Generated by graphviz version 2.38.0 (20140413.2041)
 -->
<!-- Title: lua_next Pages: 1 -->
<svg width="1097pt" height="757pt"
 viewBox="0.00 0.00 1097.00 756.50" xmlns="http://www.w3.org/2000/svg" xmlns:xlink="http://www.w3.org/1999/xlink">
<g id="graph0" class="graph" transform="scale(1 1) rotate(0) translate(4 752.5)">
<title>lua_next</title>
<!-- Node1 -->
<g id="node1" class="node"><title>Node1</title>
<polygon fill="#bfbfbf" stroke="black" points="0,-159 0,-178 53,-178 53,-159 0,-159"/>
<text text-anchor="middle" x="26.5" y="-166" font-family="Helvetica,sans-Serif" font-size="10.00">lua_next</text>
</g>
<!-- Node2 -->
<g id="node2" class="node"><title>Node2</title>
<g id="a_node2"><a xlink:href="../../d0/d56/lauxlib_8c.html#a36c8f149b779f8c9a5c042ea9784d80a" target="_top" xlink:title="findfield">
<polygon fill="none" stroke="black" points="95,-320 95,-339 142,-339 142,-320 95,-320"/>
<text text-anchor="middle" x="118.5" y="-327" font-family="Helvetica,sans-Serif" font-size="10.00">findfield</text>
</a>
</g>
</g>
<!-- Node1&#45;&gt;Node2 -->
<g id="edge1" class="edge"><title>Node1&#45;&gt;Node2</title>
<path fill="none" stroke="midnightblue" d="M37.8744,-187.059C57.0503,-221.362 97.4182,-293.576 112.054,-319.758"/>
<polygon fill="midnightblue" stroke="midnightblue" points="40.7949,-185.11 32.8604,-178.089 34.6848,-188.526 40.7949,-185.11"/>
</g>
<!-- Node13 -->
<g id="node13" class="node"><title>Node13</title>
<g id="a_node13"><a xlink:href="../../d8/dd3/lbaselib_8c.html#ac0b11ecf3ced275821aaf5a03ed33b02" target="_top" xlink:title="luaB_next">
<polygon fill="none" stroke="black" points="913.5,-482 913.5,-501 972.5,-501 972.5,-482 913.5,-482"/>
<text text-anchor="middle" x="943" y="-489" font-family="Helvetica,sans-Serif" font-size="10.00">luaB_next</text>
</a>
</g>
</g>
<!-- Node1&#45;&gt;Node13 -->
<g id="edge51" class="edge"><title>Node1&#45;&gt;Node13</title>
<path fill="none" stroke="midnightblue" d="M63.2564,-168.5C104.696,-168.5 175.041,-168.5 235.5,-168.5 235.5,-168.5 235.5,-168.5 528,-168.5 626.407,-168.5 666.126,-186.978 728,-263.5 771.651,-317.485 719.463,-362.244 764,-415.5 802.37,-461.382 873.437,-480.202 913.182,-487.411"/>
<polygon fill="midnightblue" stroke="midnightblue" points="63.1173,-165 53.1172,-168.5 63.1172,-172 63.1173,-165"/>
</g>
<!-- Node44 -->
<g id="node44" class="node"><title>Node44</title>
<g id="a_node44"><a xlink:href="../../d1/dc2/_kensho_lua_wrapper_8m.html#a659a5a25271d0c7e4f5478f828a93b41" target="_top" xlink:title="popValue">
<polygon fill="none" stroke="black" points="89,-119 89,-138 148,-138 148,-119 89,-119"/>
<text text-anchor="middle" x="118.5" y="-126" font-family="Helvetica,sans-Serif" font-size="10.00">popValue</text>
</a>
</g>
</g>
<!-- Node1&#45;&gt;Node44 -->
<g id="edge52" class="edge"><title>Node1&#45;&gt;Node44</title>
<path fill="none" stroke="midnightblue" d="M58.7243,-154.623C70.996,-149.168 84.7804,-143.042 95.9141,-138.094"/>
<polygon fill="midnightblue" stroke="midnightblue" points="57.0031,-151.557 49.2865,-158.817 59.8461,-157.954 57.0031,-151.557"/>
</g>
<!-- Node3 -->
<g id="node3" class="node"><title>Node3</title>
<g id="a_node3"><a xlink:href="../../d0/d56/lauxlib_8c.html#a4f35430f7ecfcbd5f507e550937046b4" target="_top" xlink:title="pushglobalfuncname">
<polygon fill="none" stroke="black" points="184,-444 184,-463 289,-463 289,-444 184,-444"/>
<text text-anchor="middle" x="236.5" y="-451" font-family="Helvetica,sans-Serif" font-size="10.00">pushglobalfuncname</text>
</a>
</g>
</g>
<!-- Node2&#45;&gt;Node3 -->
<g id="edge2" class="edge"><title>Node2&#45;&gt;Node3</title>
<path fill="none" stroke="midnightblue" d="M135.513,-346.617C160.219,-373.027 206.827,-422.85 226.44,-443.815"/>
<polygon fill="midnightblue" stroke="midnightblue" points="137.99,-344.142 128.602,-339.23 132.878,-348.924 137.99,-344.142"/>
</g>
<!-- Node4 -->
<g id="node4" class="node"><title>Node4</title>
<g id="a_node4"><a xlink:href="../../d0/d56/lauxlib_8c.html#a0aa557042467d3f84d0663c742b32946" target="_top" xlink:title="pushfuncname">
<polygon fill="none" stroke="black" points="339.5,-615 339.5,-634 419.5,-634 419.5,-615 339.5,-615"/>
<text text-anchor="middle" x="379.5" y="-622" font-family="Helvetica,sans-Serif" font-size="10.00">pushfuncname</text>
</a>
</g>
</g>
<!-- Node3&#45;&gt;Node4 -->
<g id="edge3" class="edge"><title>Node3&#45;&gt;Node4</title>
<path fill="none" stroke="midnightblue" d="M252.183,-471.307C281.805,-507.231 347.835,-587.31 370.603,-614.923"/>
<polygon fill="midnightblue" stroke="midnightblue" points="254.547,-468.672 245.485,-463.184 249.146,-473.126 254.547,-468.672"/>
</g>
<!-- Node7 -->
<g id="node7" class="node"><title>Node7</title>
<g id="a_node7"><a xlink:href="../../da/d29/lauxlib_8h.html#a526c220d17273c63ce9973bcde4a2c4a" target="_top" xlink:title="luaL_argerror">
<polygon fill="none" stroke="black" points="344,-444 344,-463 415,-463 415,-444 344,-444"/>
<text text-anchor="middle" x="379.5" y="-451" font-family="Helvetica,sans-Serif" font-size="10.00">luaL_argerror</text>
</a>
</g>
</g>
<!-- Node3&#45;&gt;Node7 -->
<g id="edge6" class="edge"><title>Node3&#45;&gt;Node7</title>
<path fill="none" stroke="midnightblue" d="M299.615,-453.5C314.828,-453.5 330.569,-453.5 343.951,-453.5"/>
<polygon fill="midnightblue" stroke="midnightblue" points="299.203,-450 289.203,-453.5 299.203,-457 299.203,-450"/>
</g>
<!-- Node5 -->
<g id="node5" class="node"><title>Node5</title>
<g id="a_node5"><a xlink:href="../../da/d29/lauxlib_8h.html#a664cc293d6c7a7dc67857fe95583a10e" target="_top" xlink:title="luaL_traceback">
<polygon fill="none" stroke="black" points="486.5,-729 486.5,-748 567.5,-748 567.5,-729 486.5,-729"/>
<text text-anchor="middle" x="527" y="-736" font-family="Helvetica,sans-Serif" font-size="10.00">luaL_traceback</text>
</a>
</g>
</g>
<!-- Node4&#45;&gt;Node5 -->
<g id="edge4" class="edge"><title>Node4&#45;&gt;Node5</title>
<path fill="none" stroke="midnightblue" d="M394.319,-641.985C410.659,-661.73 439.511,-693.796 470,-714.5 478.488,-720.264 488.584,-725.106 497.85,-728.896"/>
<polygon fill="midnightblue" stroke="midnightblue" points="396.942,-639.663 387.922,-634.106 391.507,-644.076 396.942,-639.663"/>
</g>
<!-- Node6 -->
<g id="node6" class="node"><title>Node6</title>
<g id="a_node6"><a xlink:href="../../d8/d97/ldblib_8c.html#ae0792d4f3f6eedd535895e05426b82df" target="_top" xlink:title="db_traceback">
<polygon fill="none" stroke="black" points="637,-729 637,-748 711,-748 711,-729 637,-729"/>
<text text-anchor="middle" x="674" y="-736" font-family="Helvetica,sans-Serif" font-size="10.00">db_traceback</text>
</a>
</g>
</g>
<!-- Node5&#45;&gt;Node6 -->
<g id="edge5" class="edge"><title>Node5&#45;&gt;Node6</title>
<path fill="none" stroke="midnightblue" d="M577.817,-738.5C597.228,-738.5 619.052,-738.5 636.901,-738.5"/>
<polygon fill="midnightblue" stroke="midnightblue" points="577.622,-735 567.622,-738.5 577.622,-742 577.622,-735"/>
</g>
<!-- Node8 -->
<g id="node8" class="node"><title>Node8</title>
<g id="a_node8"><a xlink:href="../../d0/d56/lauxlib_8c.html#ae1abbe81af2d487f783ed9b4e5a6c7fd" target="_top" xlink:title="typeerror">
<polygon fill="none" stroke="black" points="500.5,-539 500.5,-558 553.5,-558 553.5,-539 500.5,-539"/>
<text text-anchor="middle" x="527" y="-546" font-family="Helvetica,sans-Serif" font-size="10.00">typeerror</text>
</a>
</g>
</g>
<!-- Node7&#45;&gt;Node8 -->
<g id="edge7" class="edge"><title>Node7&#45;&gt;Node8</title>
<path fill="none" stroke="midnightblue" d="M403.893,-468.774C434.135,-488.519 485.909,-522.324 511.209,-538.843"/>
<polygon fill="midnightblue" stroke="midnightblue" points="405.539,-465.668 395.252,-463.132 401.712,-471.53 405.539,-465.668"/>
</g>
<!-- Node15 -->
<g id="node15" class="node"><title>Node15</title>
<g id="a_node15"><a xlink:href="../../d8/d97/ldblib_8c.html#a233c3c4d12bda0fdbf515a18b8961461" target="_top" xlink:title="db_setuservalue">
<polygon fill="none" stroke="black" points="899.5,-577 899.5,-596 986.5,-596 986.5,-577 899.5,-577"/>
<text text-anchor="middle" x="943" y="-584" font-family="Helvetica,sans-Serif" font-size="10.00">db_setuservalue</text>
</a>
</g>
</g>
<!-- Node7&#45;&gt;Node15 -->
<g id="edge40" class="edge"><title>Node7&#45;&gt;Node15</title>
<path fill="none" stroke="midnightblue" d="M390.037,-472.238C404.029,-497.788 432.571,-543.156 470,-567.5 609.56,-658.271 824.58,-617.032 907.63,-596.066"/>
<polygon fill="midnightblue" stroke="midnightblue" points="393.025,-470.401 385.247,-463.206 386.84,-473.681 393.025,-470.401"/>
</g>
<!-- Node18 -->
<g id="node18" class="node"><title>Node18</title>
<g id="a_node18"><a xlink:href="../../dc/d77/lstrlib_8c.html#ae26a9374857058119e59d0328208c2f2" target="_top" xlink:title="str_format">
<polygon fill="none" stroke="black" points="914.5,-653 914.5,-672 971.5,-672 971.5,-653 914.5,-653"/>
<text text-anchor="middle" x="943" y="-660" font-family="Helvetica,sans-Serif" font-size="10.00">str_format</text>
</a>
</g>
</g>
<!-- Node7&#45;&gt;Node18 -->
<g id="edge50" class="edge"><title>Node7&#45;&gt;Node18</title>
<path fill="none" stroke="midnightblue" d="M386.257,-472.876C397.02,-505.544 423.42,-571.262 470,-604.5 610.459,-704.727 836.172,-679.96 914.316,-667.488"/>
<polygon fill="midnightblue" stroke="midnightblue" points="389.54,-471.648 383.2,-463.159 382.863,-473.749 389.54,-471.648"/>
</g>
<!-- Node22 -->
<g id="node22" class="node"><title>Node22</title>
<g id="a_node22"><a xlink:href="../../da/d29/lauxlib_8h.html#a638633914d3a19650db8320c1fccf161" target="_top" xlink:title="luaL_checkoption">
<polygon fill="none" stroke="black" points="482.5,-463 482.5,-482 571.5,-482 571.5,-463 482.5,-463"/>
<text text-anchor="middle" x="527" y="-470" font-family="Helvetica,sans-Serif" font-size="10.00">luaL_checkoption</text>
</a>
</g>
</g>
<!-- Node7&#45;&gt;Node22 -->
<g id="edge22" class="edge"><title>Node7&#45;&gt;Node22</title>
<path fill="none" stroke="midnightblue" d="M425.378,-459.36C443.491,-461.726 464.32,-464.446 482.311,-466.795"/>
<polygon fill="midnightblue" stroke="midnightblue" points="425.72,-455.875 415.351,-458.051 424.813,-462.816 425.72,-455.875"/>
</g>
<!-- Node27 -->
<g id="node27" class="node"><title>Node27</title>
<g id="a_node27"><a xlink:href="../../da/d29/lauxlib_8h.html#ad78c85dce421e9cb793e205b9e81c640" target="_top" xlink:title="luaL_checkany">
<polygon fill="none" stroke="black" points="771.5,-235 771.5,-254 851.5,-254 851.5,-235 771.5,-235"/>
<text text-anchor="middle" x="811.5" y="-242" font-family="Helvetica,sans-Serif" font-size="10.00">luaL_checkany</text>
</a>
</g>
</g>
<!-- Node7&#45;&gt;Node27 -->
<g id="edge27" class="edge"><title>Node7&#45;&gt;Node27</title>
<path fill="none" stroke="midnightblue" d="M388.541,-434.75C401.644,-406.269 430.196,-352.087 470,-320.5 559.79,-249.246 702.908,-241.808 771.437,-242.773"/>
<polygon fill="midnightblue" stroke="midnightblue" points="385.296,-433.432 384.42,-443.99 391.689,-436.283 385.296,-433.432"/>
</g>
<!-- Node34 -->
<g id="node34" class="node"><title>Node34</title>
<g id="a_node34"><a xlink:href="../../d8/d97/ldblib_8c.html#a11cfe90e96e7ea907a767f5109f7ef4b" target="_top" xlink:title="db_setlocal">
<polygon fill="none" stroke="black" points="910.5,-26 910.5,-45 975.5,-45 975.5,-26 910.5,-26"/>
<text text-anchor="middle" x="943" y="-33" font-family="Helvetica,sans-Serif" font-size="10.00">db_setlocal</text>
</a>
</g>
</g>
<!-- Node7&#45;&gt;Node34 -->
<g id="edge43" class="edge"><title>Node7&#45;&gt;Node34</title>
<path fill="none" stroke="midnightblue" d="M385.124,-433.778C394.837,-396.215 420.651,-313.686 470,-263.5 539.07,-193.258 828.896,-78.7551 916.689,-45.0924"/>
<polygon fill="midnightblue" stroke="midnightblue" points="381.622,-433.358 382.618,-443.906 388.417,-435.04 381.622,-433.358"/>
</g>
<!-- Node37 -->
<g id="node37" class="node"><title>Node37</title>
<g id="a_node37"><a xlink:href="../../d8/d97/ldblib_8c.html#a4eb57e66c2efb2d31c9b9e1b01d27e13" target="_top" xlink:title="db_getinfo">
<polygon fill="none" stroke="black" points="497,-425 497,-444 557,-444 557,-425 497,-425"/>
<text text-anchor="middle" x="527" y="-432" font-family="Helvetica,sans-Serif" font-size="10.00">db_getinfo</text>
</a>
</g>
</g>
<!-- Node7&#45;&gt;Node37 -->
<g id="edge41" class="edge"><title>Node7&#45;&gt;Node37</title>
<path fill="none" stroke="midnightblue" d="M425.346,-447.644C448.609,-444.606 476.358,-440.982 496.824,-438.31"/>
<polygon fill="midnightblue" stroke="midnightblue" points="424.813,-444.184 415.351,-448.949 425.72,-451.125 424.813,-444.184"/>
</g>
<!-- Node38 -->
<g id="node38" class="node"><title>Node38</title>
<g id="a_node38"><a xlink:href="../../d8/d97/ldblib_8c.html#ae802ce7397e9ebb08a90b69976578ecc" target="_top" xlink:title="db_getlocal">
<polygon fill="none" stroke="black" points="494.5,-387 494.5,-406 559.5,-406 559.5,-387 494.5,-387"/>
<text text-anchor="middle" x="527" y="-394" font-family="Helvetica,sans-Serif" font-size="10.00">db_getlocal</text>
</a>
</g>
</g>
<!-- Node7&#45;&gt;Node38 -->
<g id="edge42" class="edge"><title>Node7&#45;&gt;Node38</title>
<path fill="none" stroke="midnightblue" d="M411.174,-439.808C428.347,-432.312 450.222,-423.042 470,-415.5 478.538,-412.244 487.907,-408.956 496.499,-406.051"/>
<polygon fill="midnightblue" stroke="midnightblue" points="409.404,-436.763 401.658,-443.991 412.221,-443.171 409.404,-436.763"/>
</g>
<!-- Node39 -->
<g id="node39" class="node"><title>Node39</title>
<g id="a_node39"><a xlink:href="../../de/df3/liolib_8c.html#addece2406777a40f0f591e3518293932" target="_top" xlink:title="g_read">
<polygon fill="none" stroke="black" points="504,-330 504,-349 550,-349 550,-330 504,-330"/>
<text text-anchor="middle" x="527" y="-337" font-family="Helvetica,sans-Serif" font-size="10.00">g_read</text>
</a>
</g>
</g>
<!-- Node7&#45;&gt;Node39 -->
<g id="edge44" class="edge"><title>Node7&#45;&gt;Node39</title>
<path fill="none" stroke="midnightblue" d="M398.782,-436.964C416.54,-421.149 444.481,-396.904 470,-377.5 483.468,-367.26 499.503,-356.516 510.956,-349.076"/>
<polygon fill="midnightblue" stroke="midnightblue" points="396.05,-434.713 390.939,-443.993 400.722,-439.926 396.05,-434.713"/>
</g>
<!-- Node43 -->
<g id="node43" class="node"><title>Node43</title>
<g id="a_node43"><a xlink:href="../../dc/dba/loslib_8c.html#aed631522193ea719b6d96782f3e26b6a" target="_top" xlink:title="checkoption">
<polygon fill="none" stroke="black" points="778.5,-729 778.5,-748 844.5,-748 844.5,-729 778.5,-729"/>
<text text-anchor="middle" x="811.5" y="-736" font-family="Helvetica,sans-Serif" font-size="10.00">checkoption</text>
</a>
</g>
</g>
<!-- Node7&#45;&gt;Node43 -->
<g id="edge48" class="edge"><title>Node7&#45;&gt;Node43</title>
<path fill="none" stroke="midnightblue" d="M387.046,-472.851C404.704,-524.555 453.116,-662.926 470,-676.5 560.6,-749.337 613.972,-696.889 728,-719.5 744.724,-722.816 763.231,-727.028 778.471,-730.643"/>
<polygon fill="midnightblue" stroke="midnightblue" points="390.301,-471.55 383.768,-463.21 383.674,-473.804 390.301,-471.55"/>
</g>
<!-- Node9 -->
<g id="node9" class="node"><title>Node9</title>
<g id="a_node9"><a xlink:href="../../d0/d56/lauxlib_8c.html#a84f86d7f2603b98e935740de1efb858d" target="_top" xlink:title="tag_error">
<polygon fill="none" stroke="red" points="647.5,-539 647.5,-558 700.5,-558 700.5,-539 647.5,-539"/>
<text text-anchor="middle" x="674" y="-546" font-family="Helvetica,sans-Serif" font-size="10.00">tag_error</text>
</a>
</g>
</g>
<!-- Node8&#45;&gt;Node9 -->
<g id="edge8" class="edge"><title>Node8&#45;&gt;Node9</title>
<path fill="none" stroke="midnightblue" d="M563.745,-548.5C589.606,-548.5 623.952,-548.5 647.179,-548.5"/>
<polygon fill="midnightblue" stroke="midnightblue" points="563.589,-545 553.589,-548.5 563.589,-552 563.589,-545"/>
</g>
<!-- Node21 -->
<g id="node21" class="node"><title>Node21</title>
<g id="a_node21"><a xlink:href="../../da/d29/lauxlib_8h.html#aed8d8e4f3b95c6bcac246ec9895027b1" target="_top" xlink:title="luaL_checkudata">
<polygon fill="none" stroke="black" points="629.5,-577 629.5,-596 718.5,-596 718.5,-577 629.5,-577"/>
<text text-anchor="middle" x="674" y="-584" font-family="Helvetica,sans-Serif" font-size="10.00">luaL_checkudata</text>
</a>
</g>
</g>
<!-- Node8&#45;&gt;Node21 -->
<g id="edge21" class="edge"><title>Node8&#45;&gt;Node21</title>
<path fill="none" stroke="midnightblue" d="M563.296,-557.75C585.499,-563.569 614.088,-571.061 636.513,-576.938"/>
<polygon fill="midnightblue" stroke="midnightblue" points="564.15,-554.356 553.589,-555.206 562.375,-561.127 564.15,-554.356"/>
</g>
<!-- Node10 -->
<g id="node10" class="node"><title>Node10</title>
<g id="a_node10"><a xlink:href="../../da/d29/lauxlib_8h.html#ae5f465fb757069d016a10b106c69bdd7" target="_top" xlink:title="luaL_checktype">
<polygon fill="none" stroke="red" points="770,-387 770,-406 853,-406 853,-387 770,-387"/>
<text text-anchor="middle" x="811.5" y="-394" font-family="Helvetica,sans-Serif" font-size="10.00">luaL_checktype</text>
</a>
</g>
</g>
<!-- Node9&#45;&gt;Node10 -->
<g id="edge9" class="edge"><title>Node9&#45;&gt;Node10</title>
<path fill="none" stroke="midnightblue" d="M710.336,-539.599C716.623,-537.003 722.812,-533.694 728,-529.5 771.316,-494.479 798.162,-430.26 807.139,-406.063"/>
<polygon fill="midnightblue" stroke="midnightblue" points="708.74,-536.453 700.505,-543.119 711.1,-543.044 708.74,-536.453"/>
</g>
<!-- Node16 -->
<g id="node16" class="node"><title>Node16</title>
<g id="a_node16"><a xlink:href="../../da/d29/lauxlib_8h.html#af4af154dcb41f8990a572e6a00c349fc" target="_top" xlink:title="luaL_checklstring">
<polygon fill="none" stroke="red" points="768,-539 768,-558 855,-558 855,-539 768,-539"/>
<text text-anchor="middle" x="811.5" y="-546" font-family="Helvetica,sans-Serif" font-size="10.00">luaL_checklstring</text>
</a>
</g>
</g>
<!-- Node9&#45;&gt;Node16 -->
<g id="edge15" class="edge"><title>Node9&#45;&gt;Node16</title>
<path fill="none" stroke="midnightblue" d="M711.124,-548.5C728.533,-548.5 749.533,-548.5 767.736,-548.5"/>
<polygon fill="midnightblue" stroke="midnightblue" points="710.805,-545 700.805,-548.5 710.805,-552 710.805,-545"/>
</g>
<!-- Node19 -->
<g id="node19" class="node"><title>Node19</title>
<g id="a_node19"><a xlink:href="../../da/d29/lauxlib_8h.html#a3e39a4d35c3ce1555126e372a8a329c3" target="_top" xlink:title="luaL_checknumber">
<polygon fill="none" stroke="red" points="764,-691 764,-710 859,-710 859,-691 764,-691"/>
<text text-anchor="middle" x="811.5" y="-698" font-family="Helvetica,sans-Serif" font-size="10.00">luaL_checknumber</text>
</a>
</g>
</g>
<!-- Node9&#45;&gt;Node19 -->
<g id="edge18" class="edge"><title>Node9&#45;&gt;Node19</title>
<path fill="none" stroke="midnightblue" d="M710.336,-557.401C716.623,-559.997 722.812,-563.306 728,-567.5 771.316,-602.521 798.162,-666.74 807.139,-690.937"/>
<polygon fill="midnightblue" stroke="midnightblue" points="711.1,-553.956 700.505,-553.881 708.74,-560.547 711.1,-553.956"/>
</g>
<!-- Node11 -->
<g id="node11" class="node"><title>Node11</title>
<g id="a_node11"><a xlink:href="../../d8/dd3/lbaselib_8c.html#a248a6847a33f31c69a43a76b6b8bcb4b" target="_top" xlink:title="luaB_rawget">
<polygon fill="none" stroke="black" points="907.5,-368 907.5,-387 978.5,-387 978.5,-368 907.5,-368"/>
<text text-anchor="middle" x="943" y="-375" font-family="Helvetica,sans-Serif" font-size="10.00">luaB_rawget</text>
</a>
</g>
</g>
<!-- Node10&#45;&gt;Node11 -->
<g id="edge10" class="edge"><title>Node10&#45;&gt;Node11</title>
<path fill="none" stroke="midnightblue" d="M863.127,-389.072C877.878,-386.908 893.658,-384.593 907.197,-382.606"/>
<polygon fill="midnightblue" stroke="midnightblue" points="862.505,-385.626 853.119,-390.54 863.521,-392.552 862.505,-385.626"/>
</g>
<!-- Node12 -->
<g id="node12" class="node"><title>Node12</title>
<g id="a_node12"><a xlink:href="../../d8/dd3/lbaselib_8c.html#a7b7225051c25127792f30eadd3498cc3" target="_top" xlink:title="luaB_rawset">
<polygon fill="none" stroke="black" points="907.5,-406 907.5,-425 978.5,-425 978.5,-406 907.5,-406"/>
<text text-anchor="middle" x="943" y="-413" font-family="Helvetica,sans-Serif" font-size="10.00">luaB_rawset</text>
</a>
</g>
</g>
<!-- Node10&#45;&gt;Node12 -->
<g id="edge11" class="edge"><title>Node10&#45;&gt;Node12</title>
<path fill="none" stroke="midnightblue" d="M863.127,-403.928C877.878,-406.092 893.658,-408.407 907.197,-410.394"/>
<polygon fill="midnightblue" stroke="midnightblue" points="863.521,-400.448 853.119,-402.46 862.505,-407.374 863.521,-400.448"/>
</g>
<!-- Node10&#45;&gt;Node13 -->
<g id="edge12" class="edge"><title>Node10&#45;&gt;Node13</title>
<path fill="none" stroke="midnightblue" d="M845.696,-411.05C850.411,-413.834 855.007,-416.992 859,-420.5 880.117,-439.053 873.05,-454.941 895,-472.5 900.361,-476.788 906.818,-480.227 913.206,-482.936"/>
<polygon fill="midnightblue" stroke="midnightblue" points="847.074,-407.816 836.609,-406.16 843.757,-413.981 847.074,-407.816"/>
</g>
<!-- Node10&#45;&gt;Node15 -->
<g id="edge14" class="edge"><title>Node10&#45;&gt;Node15</title>
<path fill="none" stroke="midnightblue" d="M824.812,-414.563C851.623,-453.901 914.546,-546.219 935.258,-576.608"/>
<polygon fill="midnightblue" stroke="midnightblue" points="827.624,-412.475 819.1,-406.183 821.84,-416.418 827.624,-412.475"/>
</g>
<!-- Node14 -->
<g id="node14" class="node"><title>Node14</title>
<g id="a_node14"><a xlink:href="../../d8/dd3/lbaselib_8c.html#a36def102f87ba8c40734489231e90109" target="_top" xlink:title="luaB_pairs">
<polygon fill="none" stroke="black" points="1027,-482 1027,-501 1089,-501 1089,-482 1027,-482"/>
<text text-anchor="middle" x="1058" y="-489" font-family="Helvetica,sans-Serif" font-size="10.00">luaB_pairs</text>
</a>
</g>
</g>
<!-- Node13&#45;&gt;Node14 -->
<g id="edge13" class="edge"><title>Node13&#45;&gt;Node14</title>
<path fill="none" stroke="midnightblue" d="M982.677,-491.5C997.14,-491.5 1013.34,-491.5 1026.91,-491.5"/>
<polygon fill="midnightblue" stroke="midnightblue" points="982.515,-488 972.515,-491.5 982.515,-495 982.515,-488"/>
</g>
<!-- Node17 -->
<g id="node17" class="node"><title>Node17</title>
<g id="a_node17"><a xlink:href="../../d8/dd3/lbaselib_8c.html#a6224f7b7c4485996e1c22eae32de990d" target="_top" xlink:title="luaB_tonumber">
<polygon fill="none" stroke="black" points="903,-444 903,-463 983,-463 983,-444 903,-444"/>
<text text-anchor="middle" x="943" y="-451" font-family="Helvetica,sans-Serif" font-size="10.00">luaB_tonumber</text>
</a>
</g>
</g>
<!-- Node16&#45;&gt;Node17 -->
<g id="edge16" class="edge"><title>Node16&#45;&gt;Node17</title>
<path fill="none" stroke="midnightblue" d="M827.542,-531.434C843.078,-514.636 868.698,-489.148 895,-472.5 900.652,-468.923 907.09,-465.795 913.35,-463.165"/>
<polygon fill="midnightblue" stroke="midnightblue" points="824.891,-529.147 820.767,-538.906 830.077,-533.849 824.891,-529.147"/>
</g>
<!-- Node16&#45;&gt;Node18 -->
<g id="edge17" class="edge"><title>Node16&#45;&gt;Node18</title>
<path fill="none" stroke="midnightblue" d="M831.264,-565.019C858.684,-589.156 908.838,-633.307 930.987,-652.805"/>
<polygon fill="midnightblue" stroke="midnightblue" points="833.36,-562.2 823.541,-558.22 828.734,-567.454 833.36,-562.2"/>
</g>
<!-- Node19&#45;&gt;Node18 -->
<g id="edge20" class="edge"><title>Node19&#45;&gt;Node18</title>
<path fill="none" stroke="midnightblue" d="M855.019,-688.023C874.452,-682.321 896.925,-675.727 914.159,-670.669"/>
<polygon fill="midnightblue" stroke="midnightblue" points="853.788,-684.737 845.178,-690.911 855.759,-691.454 853.788,-684.737"/>
</g>
<!-- Node20 -->
<g id="node20" class="node"><title>Node20</title>
<g id="a_node20"><a xlink:href="../../dc/dba/loslib_8c.html#a6520f2562b500aee87a6a475995adefb" target="_top" xlink:title="os_date">
<polygon fill="none" stroke="black" points="917.5,-710 917.5,-729 968.5,-729 968.5,-710 917.5,-710"/>
<text text-anchor="middle" x="943" y="-717" font-family="Helvetica,sans-Serif" font-size="10.00">os_date</text>
</a>
</g>
</g>
<!-- Node19&#45;&gt;Node20 -->
<g id="edge19" class="edge"><title>Node19&#45;&gt;Node20</title>
<path fill="none" stroke="midnightblue" d="M869.586,-708.876C886.394,-711.342 903.901,-713.91 917.49,-715.904"/>
<polygon fill="midnightblue" stroke="midnightblue" points="869.655,-705.348 859.252,-707.359 868.638,-712.274 869.655,-705.348"/>
</g>
<!-- Node23 -->
<g id="node23" class="node"><title>Node23</title>
<g id="a_node23"><a xlink:href="../../d8/dd3/lbaselib_8c.html#a07f71966c943cc9761ab129f64d4ac80" target="_top" xlink:title="luaB_collectgarbage">
<polygon fill="none" stroke="black" points="623,-387 623,-406 725,-406 725,-387 623,-387"/>
<text text-anchor="middle" x="674" y="-394" font-family="Helvetica,sans-Serif" font-size="10.00">luaB_collectgarbage</text>
</a>
</g>
</g>
<!-- Node22&#45;&gt;Node23 -->
<g id="edge23" class="edge"><title>Node22&#45;&gt;Node23</title>
<path fill="none" stroke="midnightblue" d="M574.058,-458.956C577.52,-457.315 580.877,-455.501 584,-453.5 603.589,-440.95 600.519,-428.217 620,-415.5 625.73,-411.76 632.289,-408.645 638.795,-406.092"/>
<polygon fill="midnightblue" stroke="midnightblue" points="572.579,-455.781 564.735,-462.902 575.308,-462.227 572.579,-455.781"/>
</g>
<!-- Node24 -->
<g id="node24" class="node"><title>Node24</title>
<g id="a_node24"><a xlink:href="../../de/df3/liolib_8c.html#ace5e1a23cc9e2ffe7ae6cc523e54de73" target="_top" xlink:title="f_seek">
<polygon fill="none" stroke="black" points="652,-501 652,-520 696,-520 696,-501 652,-501"/>
<text text-anchor="middle" x="674" y="-508" font-family="Helvetica,sans-Serif" font-size="10.00">f_seek</text>
</a>
</g>
</g>
<!-- Node22&#45;&gt;Node24 -->
<g id="edge24" class="edge"><title>Node22&#45;&gt;Node24</title>
<path fill="none" stroke="midnightblue" d="M574.263,-484.624C600.256,-491.436 631.45,-499.611 651.722,-504.924"/>
<polygon fill="midnightblue" stroke="midnightblue" points="575.15,-481.238 564.59,-482.089 573.376,-488.01 575.15,-481.238"/>
</g>
<!-- Node25 -->
<g id="node25" class="node"><title>Node25</title>
<g id="a_node25"><a xlink:href="../../de/df3/liolib_8c.html#aa7d559e7d43a6133ec495d6b4e5d68f2" target="_top" xlink:title="f_setvbuf">
<polygon fill="none" stroke="black" points="646,-463 646,-482 702,-482 702,-463 646,-463"/>
<text text-anchor="middle" x="674" y="-470" font-family="Helvetica,sans-Serif" font-size="10.00">f_setvbuf</text>
</a>
</g>
</g>
<!-- Node22&#45;&gt;Node25 -->
<g id="edge25" class="edge"><title>Node22&#45;&gt;Node25</title>
<path fill="none" stroke="midnightblue" d="M581.682,-472.5C603.563,-472.5 627.902,-472.5 645.947,-472.5"/>
<polygon fill="midnightblue" stroke="midnightblue" points="581.505,-469 571.505,-472.5 581.505,-476 581.505,-469"/>
</g>
<!-- Node26 -->
<g id="node26" class="node"><title>Node26</title>
<g id="a_node26"><a xlink:href="../../dc/dba/loslib_8c.html#a148e76ec4bfa32f07c0bd8c802960113" target="_top" xlink:title="os_setlocale">
<polygon fill="none" stroke="black" points="639.5,-425 639.5,-444 708.5,-444 708.5,-425 639.5,-425"/>
<text text-anchor="middle" x="674" y="-432" font-family="Helvetica,sans-Serif" font-size="10.00">os_setlocale</text>
</a>
</g>
</g>
<!-- Node22&#45;&gt;Node26 -->
<g id="edge26" class="edge"><title>Node22&#45;&gt;Node26</title>
<path fill="none" stroke="midnightblue" d="M574.345,-460.354C595.493,-454.812 620.071,-448.371 639.404,-443.305"/>
<polygon fill="midnightblue" stroke="midnightblue" points="573.376,-456.99 564.59,-462.911 575.15,-463.762 573.376,-456.99"/>
</g>
<!-- Node27&#45;&gt;Node11 -->
<g id="edge31" class="edge"><title>Node27&#45;&gt;Node11</title>
<path fill="none" stroke="midnightblue" d="M821.765,-263.267C834.912,-288.159 861.187,-332.026 895,-358.5 899.851,-362.298 905.563,-365.44 911.303,-368"/>
<polygon fill="midnightblue" stroke="midnightblue" points="824.77,-261.457 817.093,-254.155 818.541,-264.65 824.77,-261.457"/>
</g>
<!-- Node27&#45;&gt;Node12 -->
<g id="edge32" class="edge"><title>Node27&#45;&gt;Node12</title>
<path fill="none" stroke="midnightblue" d="M818.277,-264.004C828.65,-295.877 853.327,-359.293 895,-396.5 899.202,-400.252 904.24,-403.315 909.434,-405.799"/>
<polygon fill="midnightblue" stroke="midnightblue" points="821.519,-262.644 815.2,-254.14 814.837,-264.729 821.519,-262.644"/>
</g>
<!-- Node27&#45;&gt;Node17 -->
<g id="edge28" class="edge"><title>Node27&#45;&gt;Node17</title>
<path fill="none" stroke="midnightblue" d="M818.711,-263.568C833.032,-306.562 869.125,-409.276 895,-434.5 898.907,-438.309 903.679,-441.388 908.667,-443.866"/>
<polygon fill="midnightblue" stroke="midnightblue" points="822.014,-262.409 815.558,-254.008 815.366,-264.601 822.014,-262.409"/>
</g>
<!-- Node28 -->
<g id="node28" class="node"><title>Node28</title>
<g id="a_node28"><a xlink:href="../../d8/dd3/lbaselib_8c.html#addfd66adcbe4c777cf5e10536d27d8b1" target="_top" xlink:title="luaB_getmetatable">
<polygon fill="none" stroke="black" points="895,-64 895,-83 991,-83 991,-64 895,-64"/>
<text text-anchor="middle" x="943" y="-71" font-family="Helvetica,sans-Serif" font-size="10.00">luaB_getmetatable</text>
</a>
</g>
</g>
<!-- Node27&#45;&gt;Node28 -->
<g id="edge29" class="edge"><title>Node27&#45;&gt;Node28</title>
<path fill="none" stroke="midnightblue" d="M848.858,-229.682C852.645,-227.046 856.145,-224 859,-220.5 896.354,-174.707 855.573,-136.521 895,-92.5 898.406,-88.6974 902.681,-85.6426 907.256,-83.192"/>
<polygon fill="midnightblue" stroke="midnightblue" points="847.046,-226.687 840.249,-234.815 850.631,-232.7 847.046,-226.687"/>
</g>
<!-- Node29 -->
<g id="node29" class="node"><title>Node29</title>
<g id="a_node29"><a xlink:href="../../d8/dd3/lbaselib_8c.html#a4dbd4fb89ec70a7b07cad52f7c13e637" target="_top" xlink:title="luaB_rawequal">
<polygon fill="none" stroke="black" points="902.5,-330 902.5,-349 983.5,-349 983.5,-330 902.5,-330"/>
<text text-anchor="middle" x="943" y="-337" font-family="Helvetica,sans-Serif" font-size="10.00">luaB_rawequal</text>
</a>
</g>
</g>
<!-- Node27&#45;&gt;Node29 -->
<g id="edge30" class="edge"><title>Node27&#45;&gt;Node29</title>
<path fill="none" stroke="midnightblue" d="M827.542,-261.566C843.078,-278.364 868.698,-303.852 895,-320.5 900.652,-324.077 907.09,-327.205 913.35,-329.835"/>
<polygon fill="midnightblue" stroke="midnightblue" points="830.077,-259.151 820.767,-254.094 824.891,-263.853 830.077,-259.151"/>
</g>
<!-- Node30 -->
<g id="node30" class="node"><title>Node30</title>
<g id="a_node30"><a xlink:href="../../d8/dd3/lbaselib_8c.html#a7135b660cac1e25a2854acd9849cd4a4" target="_top" xlink:title="luaB_type">
<polygon fill="none" stroke="black" points="913,-292 913,-311 973,-311 973,-292 913,-292"/>
<text text-anchor="middle" x="943" y="-299" font-family="Helvetica,sans-Serif" font-size="10.00">luaB_type</text>
</a>
</g>
</g>
<!-- Node27&#45;&gt;Node30 -->
<g id="edge33" class="edge"><title>Node27&#45;&gt;Node30</title>
<path fill="none" stroke="midnightblue" d="M841.916,-258.461C857.595,-265.797 877.259,-274.833 895,-282.5 902.271,-285.642 910.239,-288.923 917.515,-291.857"/>
<polygon fill="midnightblue" stroke="midnightblue" points="843.261,-255.226 832.722,-254.14 840.284,-261.561 843.261,-255.226"/>
</g>
<!-- Node31 -->
<g id="node31" class="node"><title>Node31</title>
<g id="a_node31"><a xlink:href="../../d8/dd3/lbaselib_8c.html#a1fb2725eed679431d070b2e9e7abc223" target="_top" xlink:title="luaB_pcall">
<polygon fill="none" stroke="black" points="912.5,-254 912.5,-273 973.5,-273 973.5,-254 912.5,-254"/>
<text text-anchor="middle" x="943" y="-261" font-family="Helvetica,sans-Serif" font-size="10.00">luaB_pcall</text>
</a>
</g>
</g>
<!-- Node27&#45;&gt;Node31 -->
<g id="edge34" class="edge"><title>Node27&#45;&gt;Node31</title>
<path fill="none" stroke="midnightblue" d="M862.044,-251.769C879.027,-254.261 897.49,-256.97 912.39,-259.156"/>
<polygon fill="midnightblue" stroke="midnightblue" points="862.108,-248.241 851.706,-250.252 861.092,-255.167 862.108,-248.241"/>
</g>
<!-- Node32 -->
<g id="node32" class="node"><title>Node32</title>
<g id="a_node32"><a xlink:href="../../d8/dd3/lbaselib_8c.html#a15bd8ce3f719c87883bcb578c60677e7" target="_top" xlink:title="luaB_tostring">
<polygon fill="none" stroke="black" points="907.5,-216 907.5,-235 978.5,-235 978.5,-216 907.5,-216"/>
<text text-anchor="middle" x="943" y="-223" font-family="Helvetica,sans-Serif" font-size="10.00">luaB_tostring</text>
</a>
</g>
</g>
<!-- Node27&#45;&gt;Node32 -->
<g id="edge35" class="edge"><title>Node27&#45;&gt;Node32</title>
<path fill="none" stroke="midnightblue" d="M861.949,-237.245C877.08,-235.025 893.394,-232.631 907.322,-230.588"/>
<polygon fill="midnightblue" stroke="midnightblue" points="861.092,-233.833 851.706,-238.748 862.108,-240.759 861.092,-233.833"/>
</g>
<!-- Node33 -->
<g id="node33" class="node"><title>Node33</title>
<g id="a_node33"><a xlink:href="../../d8/d97/ldblib_8c.html#aa84da9dfea83fb9e516443b49b109044" target="_top" xlink:title="db_getmetatable">
<polygon fill="none" stroke="black" points="899,-178 899,-197 987,-197 987,-178 899,-178"/>
<text text-anchor="middle" x="943" y="-185" font-family="Helvetica,sans-Serif" font-size="10.00">db_getmetatable</text>
</a>
</g>
</g>
<!-- Node27&#45;&gt;Node33 -->
<g id="edge36" class="edge"><title>Node27&#45;&gt;Node33</title>
<path fill="none" stroke="midnightblue" d="M841.916,-230.539C857.595,-223.203 877.259,-214.167 895,-206.5 902.271,-203.358 910.239,-200.077 917.515,-197.143"/>
<polygon fill="midnightblue" stroke="midnightblue" points="840.284,-227.439 832.722,-234.86 843.261,-233.774 840.284,-227.439"/>
</g>
<!-- Node27&#45;&gt;Node34 -->
<g id="edge37" class="edge"><title>Node27&#45;&gt;Node34</title>
<path fill="none" stroke="midnightblue" d="M849.624,-229.447C853.157,-226.874 856.389,-223.907 859,-220.5 904.924,-160.582 846.361,-112.236 895,-54.5 899.083,-49.6537 904.587,-46.0305 910.39,-43.3257"/>
<polygon fill="midnightblue" stroke="midnightblue" points="847.667,-226.541 840.979,-234.759 851.332,-232.505 847.667,-226.541"/>
</g>
<!-- Node35 -->
<g id="node35" class="node"><title>Node35</title>
<g id="a_node35"><a xlink:href="../../d8/d97/ldblib_8c.html#acd61487bdd057d6c668ec0bd88728670" target="_top" xlink:title="db_setupvalue">
<polygon fill="none" stroke="black" points="903,-140 903,-159 983,-159 983,-140 903,-140"/>
<text text-anchor="middle" x="943" y="-147" font-family="Helvetica,sans-Serif" font-size="10.00">db_setupvalue</text>
</a>
</g>
</g>
<!-- Node27&#45;&gt;Node35 -->
<g id="edge38" class="edge"><title>Node27&#45;&gt;Node35</title>
<path fill="none" stroke="midnightblue" d="M845.696,-229.95C850.411,-227.166 855.007,-224.008 859,-220.5 880.117,-201.947 873.05,-186.059 895,-168.5 899.673,-164.761 905.18,-161.668 910.748,-159.142"/>
<polygon fill="midnightblue" stroke="midnightblue" points="843.757,-227.019 836.609,-234.84 847.074,-233.184 843.757,-227.019"/>
</g>
<!-- Node36 -->
<g id="node36" class="node"><title>Node36</title>
<g id="a_node36"><a xlink:href="../../de/df3/liolib_8c.html#a2bd80ae170dce6c29d385b71398fd7c2" target="_top" xlink:title="io_type">
<polygon fill="none" stroke="black" points="919.5,-102 919.5,-121 966.5,-121 966.5,-102 919.5,-102"/>
<text text-anchor="middle" x="943" y="-109" font-family="Helvetica,sans-Serif" font-size="10.00">io_type</text>
</a>
</g>
</g>
<!-- Node27&#45;&gt;Node36 -->
<g id="edge39" class="edge"><title>Node27&#45;&gt;Node36</title>
<path fill="none" stroke="midnightblue" d="M847.636,-229.95C851.808,-227.232 855.736,-224.093 859,-220.5 887.967,-188.611 864.593,-161.019 895,-130.5 901.585,-123.891 910.775,-119.498 919.283,-116.618"/>
<polygon fill="midnightblue" stroke="midnightblue" points="845.821,-226.956 838.865,-234.948 849.286,-233.038 845.821,-226.956"/>
</g>
<!-- Node40 -->
<g id="node40" class="node"><title>Node40</title>
<g id="a_node40"><a xlink:href="../../de/df3/liolib_8c.html#a45307aa59a628966c6ea270e9b476d9a" target="_top" xlink:title="io_read">
<polygon fill="none" stroke="black" points="650.5,-349 650.5,-368 697.5,-368 697.5,-349 650.5,-349"/>
<text text-anchor="middle" x="674" y="-356" font-family="Helvetica,sans-Serif" font-size="10.00">io_read</text>
</a>
</g>
</g>
<!-- Node39&#45;&gt;Node40 -->
<g id="edge45" class="edge"><title>Node39&#45;&gt;Node40</title>
<path fill="none" stroke="midnightblue" d="M560.258,-343.727C587.592,-347.309 626.097,-352.354 650.291,-355.524"/>
<polygon fill="midnightblue" stroke="midnightblue" points="560.392,-340.215 550.022,-342.386 559.483,-347.155 560.392,-340.215"/>
</g>
<!-- Node41 -->
<g id="node41" class="node"><title>Node41</title>
<g id="a_node41"><a xlink:href="../../de/df3/liolib_8c.html#add5250a74576076467531e4eb8f5f68e" target="_top" xlink:title="f_read">
<polygon fill="none" stroke="black" points="652.5,-311 652.5,-330 695.5,-330 695.5,-311 652.5,-311"/>
<text text-anchor="middle" x="674" y="-318" font-family="Helvetica,sans-Serif" font-size="10.00">f_read</text>
</a>
</g>
</g>
<!-- Node39&#45;&gt;Node41 -->
<g id="edge46" class="edge"><title>Node39&#45;&gt;Node41</title>
<path fill="none" stroke="midnightblue" d="M560.141,-335.288C588.206,-331.611 628.112,-326.382 652.184,-323.228"/>
<polygon fill="midnightblue" stroke="midnightblue" points="559.483,-331.845 550.022,-336.614 560.392,-338.785 559.483,-331.845"/>
</g>
<!-- Node42 -->
<g id="node42" class="node"><title>Node42</title>
<g id="a_node42"><a xlink:href="../../de/df3/liolib_8c.html#ac37d80ee2cc364b4adafcb6f7c20f28b" target="_top" xlink:title="io_readline">
<polygon fill="none" stroke="red" points="643.5,-273 643.5,-292 704.5,-292 704.5,-273 643.5,-273"/>
<text text-anchor="middle" x="674" y="-280" font-family="Helvetica,sans-Serif" font-size="10.00">io_readline</text>
</a>
</g>
</g>
<!-- Node39&#45;&gt;Node42 -->
<g id="edge47" class="edge"><title>Node39&#45;&gt;Node42</title>
<path fill="none" stroke="midnightblue" d="M559.479,-326.064C577.18,-318.619 599.729,-309.315 620,-301.5 628.3,-298.3 637.396,-294.975 645.673,-292.017"/>
<polygon fill="midnightblue" stroke="midnightblue" points="558.04,-322.873 550.19,-329.988 560.764,-329.321 558.04,-322.873"/>
</g>
<!-- Node43&#45;&gt;Node20 -->
<g id="edge49" class="edge"><title>Node43&#45;&gt;Node20</title>
<path fill="none" stroke="midnightblue" d="M854.653,-732.315C875.353,-729.278 899.576,-725.724 917.256,-723.13"/>
<polygon fill="midnightblue" stroke="midnightblue" points="853.897,-728.889 844.511,-733.803 854.913,-735.815 853.897,-728.889"/>
</g>
<!-- Node45 -->
<g id="node45" class="node"><title>Node45</title>
<g id="a_node45"><a xlink:href="../../d1/dc2/_kensho_lua_wrapper_8m.html#a05954c02378e1c67ec00d4d5fc118d07" target="_top" xlink:title="This is executed when the LUA subsystem attempts to assign data to a new index. ">
<polygon fill="none" stroke="black" points="195.5,-116 195.5,-135 277.5,-135 277.5,-116 195.5,-116"/>
<text text-anchor="middle" x="236.5" y="-123" font-family="Helvetica,sans-Serif" font-size="10.00">lookupNewKey</text>
</a>
</g>
</g>
<!-- Node44&#45;&gt;Node45 -->
<g id="edge53" class="edge"><title>Node44&#45;&gt;Node45</title>
<path fill="none" stroke="midnightblue" d="M158.274,-127.497C170.192,-127.189 183.332,-126.849 195.341,-126.539"/>
<polygon fill="midnightblue" stroke="midnightblue" points="158.08,-124.001 148.174,-127.758 158.261,-130.999 158.08,-124.001"/>
</g>
<!-- Node46 -->
<g id="node46" class="node"><title>Node46</title>
<g id="a_node46"><a xlink:href="../../dc/de7/interface_kensho_lua_wrapper.html#a7d10aa0242861cdd109d3da9383882a2" target="_top" xlink:title="&#45;[KenshoLuaWrapper\l evaluate]">
<polygon fill="none" stroke="black" points="325,-77.5 325,-107.5 434,-107.5 434,-77.5 325,-77.5"/>
<text text-anchor="start" x="333" y="-95.5" font-family="Helvetica,sans-Serif" font-size="10.00">&#45;[KenshoLuaWrapper</text>
<text text-anchor="middle" x="379.5" y="-84.5" font-family="Helvetica,sans-Serif" font-size="10.00"> evaluate]</text>
</a>
</g>
</g>
<!-- Node45&#45;&gt;Node46 -->
<g id="edge54" class="edge"><title>Node45&#45;&gt;Node46</title>
<path fill="none" stroke="midnightblue" d="M287.479,-113.803C299.617,-110.962 312.643,-107.913 324.939,-105.035"/>
<polygon fill="midnightblue" stroke="midnightblue" points="286.467,-110.445 277.528,-116.132 288.062,-117.261 286.467,-110.445"/>
</g>
<!-- Node47 -->
<g id="node47" class="node"><title>Node47</title>
<g id="a_node47"><a xlink:href="../../dc/de7/interface_kensho_lua_wrapper.html#af6db46358f8858a18b55388aa3af211d" target="_top" xlink:title="&#45;[KenshoLuaWrapper\l initWithKensho:context\l:code:]">
<polygon fill="none" stroke="black" points="470,-99 470,-140 584,-140 584,-99 470,-99"/>
<text text-anchor="start" x="478" y="-128" font-family="Helvetica,sans-Serif" font-size="10.00">&#45;[KenshoLuaWrapper</text>
<text text-anchor="start" x="478" y="-117" font-family="Helvetica,sans-Serif" font-size="10.00"> initWithKensho:context</text>
<text text-anchor="middle" x="527" y="-106" font-family="Helvetica,sans-Serif" font-size="10.00">:code:]</text>
</a>
</g>
</g>
<!-- Node46&#45;&gt;Node47 -->
<g id="edge55" class="edge"><title>Node46&#45;&gt;Node47</title>
<path fill="none" stroke="midnightblue" d="M444.098,-104.302C452.563,-105.873 461.197,-107.475 469.53,-109.021"/>
<polygon fill="midnightblue" stroke="midnightblue" points="444.736,-100.86 434.265,-102.477 443.459,-107.743 444.736,-100.86"/>
</g>
<!-- Node48 -->
<g id="node48" class="node"><title>Node48</title>
<g id="a_node48"><a xlink:href="../../dc/de7/interface_kensho_lua_wrapper.html#a5555e0979799446611baee70104555c6" target="_top" xlink:title="&#45;[KenshoLuaWrapper\l evaluate:]">
<polygon fill="none" stroke="black" points="472.5,-49.5 472.5,-79.5 581.5,-79.5 581.5,-49.5 472.5,-49.5"/>
<text text-anchor="start" x="480.5" y="-67.5" font-family="Helvetica,sans-Serif" font-size="10.00">&#45;[KenshoLuaWrapper</text>
<text text-anchor="middle" x="527" y="-56.5" font-family="Helvetica,sans-Serif" font-size="10.00"> evaluate:]</text>
</a>
</g>
</g>
<!-- Node46&#45;&gt;Node48 -->
<g id="edge56" class="edge"><title>Node46&#45;&gt;Node48</title>
<path fill="none" stroke="midnightblue" d="M444.339,-80.2148C453.723,-78.409 463.307,-76.5646 472.456,-74.8041"/>
<polygon fill="midnightblue" stroke="midnightblue" points="443.424,-76.8266 434.265,-82.1534 444.747,-83.7005 443.424,-76.8266"/>
</g>
<!-- Node50 -->
<g id="node50" class="node"><title>Node50</title>
<g id="a_node50"><a xlink:href="../../dc/de7/interface_kensho_lua_wrapper.html#a0bb5e125d727942726d707f8b59009dc" target="_top" xlink:title="&#45;[KenshoLuaWrapper\l observableUpdated:]">
<polygon fill="none" stroke="black" points="472.5,-0.5 472.5,-30.5 581.5,-30.5 581.5,-0.5 472.5,-0.5"/>
<text text-anchor="start" x="480.5" y="-18.5" font-family="Helvetica,sans-Serif" font-size="10.00">&#45;[KenshoLuaWrapper</text>
<text text-anchor="middle" x="527" y="-7.5" font-family="Helvetica,sans-Serif" font-size="10.00"> observableUpdated:]</text>
</a>
</g>
</g>
<!-- Node46&#45;&gt;Node50 -->
<g id="edge59" class="edge"><title>Node46&#45;&gt;Node50</title>
<path fill="none" stroke="midnightblue" d="M412.806,-71.9925C429.576,-61.7023 450.572,-49.3632 470,-39.5 476.036,-36.4355 482.554,-33.4033 488.936,-30.5787"/>
<polygon fill="midnightblue" stroke="midnightblue" points="410.62,-69.2293 403.961,-77.4697 414.305,-75.1807 410.62,-69.2293"/>
</g>
<!-- Node49 -->
<g id="node49" class="node"><title>Node49</title>
<g id="a_node49"><a xlink:href="../../da/d0b/interface_kensho.html#a07b4d14db676108e1a94a1f10e100fb4" target="_top" xlink:title="&#45;[Kensho bindToView\l:context:]">
<polygon fill="none" stroke="red" points="620,-49.5 620,-79.5 728,-79.5 728,-49.5 620,-49.5"/>
<text text-anchor="start" x="628" y="-67.5" font-family="Helvetica,sans-Serif" font-size="10.00">&#45;[Kensho bindToView</text>
<text text-anchor="middle" x="674" y="-56.5" font-family="Helvetica,sans-Serif" font-size="10.00">:context:]</text>
</a>
</g>
</g>
<!-- Node48&#45;&gt;Node49 -->
<g id="edge57" class="edge"><title>Node48&#45;&gt;Node49</title>
<path fill="none" stroke="midnightblue" d="M591.62,-64.5C600.971,-64.5 610.523,-64.5 619.64,-64.5"/>
<polygon fill="midnightblue" stroke="midnightblue" points="591.581,-61.0001 581.581,-64.5 591.581,-68.0001 591.581,-61.0001"/>
</g>
<!-- Node49&#45;&gt;Node49 -->
<g id="edge58" class="edge"><title>Node49&#45;&gt;Node49</title>
<path fill="none" stroke="midnightblue" d="M649.834,-89.9579C652.834,-94.679 660.889,-98 674,-98 695.516,-98 703.416,-89.0566 697.701,-79.659"/>
<polygon fill="midnightblue" stroke="midnightblue" points="653.345,-89.8066 650.299,-79.659 646.352,-89.491 653.345,-89.8066"/>
</g>
</g>
</svg>
