<?xml version="1.0" encoding="UTF-8" standalone="no"?>
<!DOCTYPE svg PUBLIC "-//W3C//DTD SVG 1.1//EN"
 "http://www.w3.org/Graphics/SVG/1.1/DTD/svg11.dtd">
<!-- Generated by graphviz version 2.38.0 (20140413.2041)
 -->
<!-- Title: lua_createtable Pages: 1 -->
<svg width="953pt" height="311pt"
 viewBox="0.00 0.00 953.00 310.50" xmlns="http://www.w3.org/2000/svg" xmlns:xlink="http://www.w3.org/1999/xlink">
<g id="graph0" class="graph" transform="scale(1 1) rotate(0) translate(4 306.5)">
<title>lua_createtable</title>
<!-- Node1 -->
<g id="node1" class="node"><title>Node1</title>
<polygon fill="#bfbfbf" stroke="black" points="0,-169 0,-188 81,-188 81,-169 0,-169"/>
<text text-anchor="middle" x="40.5" y="-176" font-family="Helvetica,sans-Serif" font-size="10.00">lua_createtable</text>
</g>
<!-- Node2 -->
<g id="node2" class="node"><title>Node2</title>
<g id="a_node2"><a xlink:href="../../dc/d77/lstrlib_8c.html#a16d034da6b46e6beae228472f26ec07b" target="_top" xlink:title="createmetatable">
<polygon fill="none" stroke="black" points="127,-283 127,-302 211,-302 211,-283 127,-283"/>
<text text-anchor="middle" x="169" y="-290" font-family="Helvetica,sans-Serif" font-size="10.00">createmetatable</text>
</a>
</g>
</g>
<!-- Node1&#45;&gt;Node2 -->
<g id="edge1" class="edge"><title>Node1&#45;&gt;Node2</title>
<path fill="none" stroke="midnightblue" d="M51.7269,-196.673C64.4851,-217.84 88.1709,-252.571 117,-273.5 122.199,-277.275 128.235,-280.385 134.296,-282.917"/>
<polygon fill="midnightblue" stroke="midnightblue" points="54.7244,-194.865 46.6547,-188 48.682,-198.399 54.7244,-194.865"/>
</g>
<!-- Node4 -->
<g id="node4" class="node"><title>Node4</title>
<g id="a_node4"><a xlink:href="../../d2/d82/loadlib_8c.html#a8fc66c8b852ee2960dc20797521d1d9e" target="_top" xlink:title="createsearcherstable">
<polygon fill="none" stroke="black" points="117,-245 117,-264 221,-264 221,-245 117,-245"/>
<text text-anchor="middle" x="169" y="-252" font-family="Helvetica,sans-Serif" font-size="10.00">createsearcherstable</text>
</a>
</g>
</g>
<!-- Node1&#45;&gt;Node4 -->
<g id="edge3" class="edge"><title>Node1&#45;&gt;Node4</title>
<path fill="none" stroke="midnightblue" d="M62.601,-194.415C77.4161,-205.241 97.9147,-219.535 117,-230.5 126.164,-235.765 136.672,-240.859 145.76,-244.989"/>
<polygon fill="midnightblue" stroke="midnightblue" points="64.2958,-191.316 54.1745,-188.184 60.1336,-196.944 64.2958,-191.316"/>
</g>
<!-- Node5 -->
<g id="node5" class="node"><title>Node5</title>
<g id="a_node5"><a xlink:href="../../d6/d07/lualib_8h.html#a05e0befc0439f926b6152129ab4f8dea" target="_top" xlink:title="luaopen_package">
<polygon fill="none" stroke="black" points="257,-226 257,-245 351,-245 351,-226 257,-226"/>
<text text-anchor="middle" x="304" y="-233" font-family="Helvetica,sans-Serif" font-size="10.00">luaopen_package</text>
</a>
</g>
</g>
<!-- Node1&#45;&gt;Node5 -->
<g id="edge6" class="edge"><title>Node1&#45;&gt;Node5</title>
<path fill="none" stroke="midnightblue" d="M87.7406,-190.487C97.3902,-192.89 107.512,-195.338 117,-197.5 164.399,-208.3 218.925,-219.27 256.631,-226.628"/>
<polygon fill="midnightblue" stroke="midnightblue" points="88.4537,-187.057 77.9021,-188.013 86.7467,-193.846 88.4537,-187.057"/>
</g>
<!-- Node6 -->
<g id="node6" class="node"><title>Node6</title>
<g id="a_node6"><a xlink:href="../../d8/d97/ldblib_8c.html#a4eb57e66c2efb2d31c9b9e1b01d27e13" target="_top" xlink:title="db_getinfo">
<polygon fill="none" stroke="black" points="139,-169 139,-188 199,-188 199,-169 139,-169"/>
<text text-anchor="middle" x="169" y="-176" font-family="Helvetica,sans-Serif" font-size="10.00">db_getinfo</text>
</a>
</g>
</g>
<!-- Node1&#45;&gt;Node6 -->
<g id="edge5" class="edge"><title>Node1&#45;&gt;Node6</title>
<path fill="none" stroke="midnightblue" d="M91.5198,-178.5C107.589,-178.5 124.85,-178.5 138.9,-178.5"/>
<polygon fill="midnightblue" stroke="midnightblue" points="91.1783,-175 81.1783,-178.5 91.1783,-182 91.1783,-175"/>
</g>
<!-- Node7 -->
<g id="node7" class="node"><title>Node7</title>
<g id="a_node7"><a xlink:href="../../dc/dba/loslib_8c.html#a6520f2562b500aee87a6a475995adefb" target="_top" xlink:title="os_date">
<polygon fill="none" stroke="black" points="143.5,-131 143.5,-150 194.5,-150 194.5,-131 143.5,-131"/>
<text text-anchor="middle" x="169" y="-138" font-family="Helvetica,sans-Serif" font-size="10.00">os_date</text>
</a>
</g>
</g>
<!-- Node1&#45;&gt;Node7 -->
<g id="edge7" class="edge"><title>Node1&#45;&gt;Node7</title>
<path fill="none" stroke="midnightblue" d="M83.1815,-165.979C103.073,-160.004 126.197,-153.057 143.272,-147.928"/>
<polygon fill="midnightblue" stroke="midnightblue" points="81.9916,-162.682 73.4213,-168.911 84.0055,-169.386 81.9916,-162.682"/>
</g>
<!-- Node8 -->
<g id="node8" class="node"><title>Node8</title>
<g id="a_node8"><a xlink:href="../../d0/da1/ltablib_8c.html#a46a372295cbd1692b06bdbac4ca58881" target="_top" xlink:title="pack">
<polygon fill="none" stroke="black" points="150,-93 150,-112 188,-112 188,-93 150,-93"/>
<text text-anchor="middle" x="169" y="-100" font-family="Helvetica,sans-Serif" font-size="10.00">pack</text>
</a>
</g>
</g>
<!-- Node1&#45;&gt;Node8 -->
<g id="edge8" class="edge"><title>Node1&#45;&gt;Node8</title>
<path fill="none" stroke="midnightblue" d="M59.8597,-162.219C74.5372,-149.822 96.0545,-132.987 117,-121.5 127.438,-115.775 139.956,-111.083 149.978,-107.794"/>
<polygon fill="midnightblue" stroke="midnightblue" points="57.3582,-159.754 52.0641,-168.932 61.9258,-165.059 57.3582,-159.754"/>
</g>
<!-- Node9 -->
<g id="node9" class="node"><title>Node9</title>
<g id="a_node9"><a xlink:href="../../d1/dc2/_kensho_lua_wrapper_8m.html#ac812f3eb3f83c6ada24f2dadeced6d68" target="_top" xlink:title="pushValue">
<polygon fill="none" stroke="black" points="137.5,-55 137.5,-74 200.5,-74 200.5,-55 137.5,-55"/>
<text text-anchor="middle" x="169" y="-62" font-family="Helvetica,sans-Serif" font-size="10.00">pushValue</text>
</a>
</g>
</g>
<!-- Node1&#45;&gt;Node9 -->
<g id="edge9" class="edge"><title>Node1&#45;&gt;Node9</title>
<path fill="none" stroke="midnightblue" d="M51.7269,-160.327C64.4851,-139.16 88.1709,-104.429 117,-83.5 123.04,-79.1148 130.21,-75.6267 137.236,-72.8996"/>
<polygon fill="midnightblue" stroke="midnightblue" points="48.682,-158.601 46.6547,-169 54.7244,-162.135 48.682,-158.601"/>
</g>
<!-- Node3 -->
<g id="node3" class="node"><title>Node3</title>
<g id="a_node3"><a xlink:href="../../d6/d07/lualib_8h.html#a3cc052c1be81497507ee76524482eaec" target="_top" xlink:title="luaopen_string">
<polygon fill="none" stroke="black" points="265,-283 265,-302 343,-302 343,-283 265,-283"/>
<text text-anchor="middle" x="304" y="-290" font-family="Helvetica,sans-Serif" font-size="10.00">luaopen_string</text>
</a>
</g>
</g>
<!-- Node2&#45;&gt;Node3 -->
<g id="edge2" class="edge"><title>Node2&#45;&gt;Node3</title>
<path fill="none" stroke="midnightblue" d="M221.617,-292.5C236.008,-292.5 251.379,-292.5 264.843,-292.5"/>
<polygon fill="midnightblue" stroke="midnightblue" points="221.353,-289 211.353,-292.5 221.353,-296 221.353,-289"/>
</g>
<!-- Node4&#45;&gt;Node5 -->
<g id="edge4" class="edge"><title>Node4&#45;&gt;Node5</title>
<path fill="none" stroke="midnightblue" d="M231.056,-245.778C239.666,-244.548 248.398,-243.3 256.67,-242.119"/>
<polygon fill="midnightblue" stroke="midnightblue" points="230.445,-242.329 221.041,-247.208 231.435,-249.259 230.445,-242.329"/>
</g>
<!-- Node10 -->
<g id="node10" class="node"><title>Node10</title>
<g id="a_node10"><a xlink:href="../../d1/dc2/_kensho_lua_wrapper_8m.html#ad10bf0ff4feac9642e7477e282be41fe" target="_top" xlink:title="lookupKey">
<polygon fill="none" stroke="black" points="273,-55 273,-74 335,-74 335,-55 273,-55"/>
<text text-anchor="middle" x="304" y="-62" font-family="Helvetica,sans-Serif" font-size="10.00">lookupKey</text>
</a>
</g>
</g>
<!-- Node9&#45;&gt;Node10 -->
<g id="edge10" class="edge"><title>Node9&#45;&gt;Node10</title>
<path fill="none" stroke="midnightblue" d="M210.576,-58.2282C230.557,-57.4536 254.239,-57.62 272.629,-58.7276"/>
<polygon fill="midnightblue" stroke="midnightblue" points="210.33,-54.736 200.513,-58.7191 210.672,-61.7276 210.33,-54.736"/>
</g>
<!-- Node10&#45;&gt;Node9 -->
<g id="edge18" class="edge"><title>Node10&#45;&gt;Node9</title>
<path fill="none" stroke="midnightblue" d="M262.578,-70.7658C242.616,-71.5453 218.93,-71.3836 200.513,-70.2809"/>
<polygon fill="midnightblue" stroke="midnightblue" points="262.813,-74.2586 272.629,-70.2724 262.469,-67.267 262.813,-74.2586"/>
</g>
<!-- Node11 -->
<g id="node11" class="node"><title>Node11</title>
<g id="a_node11"><a xlink:href="../../dc/de7/interface_kensho_lua_wrapper.html#a7d10aa0242861cdd109d3da9383882a2" target="_top" xlink:title="&#45;[KenshoLuaWrapper\l evaluate]">
<polygon fill="none" stroke="black" points="387,-49.5 387,-79.5 496,-79.5 496,-49.5 387,-49.5"/>
<text text-anchor="start" x="395" y="-67.5" font-family="Helvetica,sans-Serif" font-size="10.00">&#45;[KenshoLuaWrapper</text>
<text text-anchor="middle" x="441.5" y="-56.5" font-family="Helvetica,sans-Serif" font-size="10.00"> evaluate]</text>
</a>
</g>
</g>
<!-- Node10&#45;&gt;Node11 -->
<g id="edge11" class="edge"><title>Node10&#45;&gt;Node11</title>
<path fill="none" stroke="midnightblue" d="M345.141,-64.5C358.197,-64.5 372.902,-64.5 386.786,-64.5"/>
<polygon fill="midnightblue" stroke="midnightblue" points="345.072,-61.0001 335.072,-64.5 345.072,-68.0001 345.072,-61.0001"/>
</g>
<!-- Node12 -->
<g id="node12" class="node"><title>Node12</title>
<g id="a_node12"><a xlink:href="../../dc/de7/interface_kensho_lua_wrapper.html#af6db46358f8858a18b55388aa3af211d" target="_top" xlink:title="&#45;[KenshoLuaWrapper\l initWithKensho:context\l:code:]">
<polygon fill="none" stroke="black" points="532,-99 532,-140 646,-140 646,-99 532,-99"/>
<text text-anchor="start" x="540" y="-128" font-family="Helvetica,sans-Serif" font-size="10.00">&#45;[KenshoLuaWrapper</text>
<text text-anchor="start" x="540" y="-117" font-family="Helvetica,sans-Serif" font-size="10.00"> initWithKensho:context</text>
<text text-anchor="middle" x="589" y="-106" font-family="Helvetica,sans-Serif" font-size="10.00">:code:]</text>
</a>
</g>
</g>
<!-- Node11&#45;&gt;Node12 -->
<g id="edge12" class="edge"><title>Node11&#45;&gt;Node12</title>
<path fill="none" stroke="midnightblue" d="M491.799,-83.1353C505.233,-88.2134 519.861,-93.743 533.563,-98.9223"/>
<polygon fill="midnightblue" stroke="midnightblue" points="492.85,-79.791 482.259,-79.529 490.375,-86.3388 492.85,-79.791"/>
</g>
<!-- Node13 -->
<g id="node13" class="node"><title>Node13</title>
<g id="a_node13"><a xlink:href="../../dc/de7/interface_kensho_lua_wrapper.html#a5555e0979799446611baee70104555c6" target="_top" xlink:title="&#45;[KenshoLuaWrapper\l evaluate:]">
<polygon fill="none" stroke="black" points="534.5,-49.5 534.5,-79.5 643.5,-79.5 643.5,-49.5 534.5,-49.5"/>
<text text-anchor="start" x="542.5" y="-67.5" font-family="Helvetica,sans-Serif" font-size="10.00">&#45;[KenshoLuaWrapper</text>
<text text-anchor="middle" x="589" y="-56.5" font-family="Helvetica,sans-Serif" font-size="10.00"> evaluate:]</text>
</a>
</g>
</g>
<!-- Node11&#45;&gt;Node13 -->
<g id="edge13" class="edge"><title>Node11&#45;&gt;Node13</title>
<path fill="none" stroke="midnightblue" d="M506.339,-64.5C515.723,-64.5 525.307,-64.5 534.456,-64.5"/>
<polygon fill="midnightblue" stroke="midnightblue" points="506.265,-61.0001 496.265,-64.5 506.265,-68.0001 506.265,-61.0001"/>
</g>
<!-- Node16 -->
<g id="node16" class="node"><title>Node16</title>
<g id="a_node16"><a xlink:href="../../dc/de7/interface_kensho_lua_wrapper.html#a0bb5e125d727942726d707f8b59009dc" target="_top" xlink:title="&#45;[KenshoLuaWrapper\l observableUpdated:]">
<polygon fill="none" stroke="black" points="534.5,-0.5 534.5,-30.5 643.5,-30.5 643.5,-0.5 534.5,-0.5"/>
<text text-anchor="start" x="542.5" y="-18.5" font-family="Helvetica,sans-Serif" font-size="10.00">&#45;[KenshoLuaWrapper</text>
<text text-anchor="middle" x="589" y="-7.5" font-family="Helvetica,sans-Serif" font-size="10.00"> observableUpdated:]</text>
</a>
</g>
</g>
<!-- Node11&#45;&gt;Node16 -->
<g id="edge17" class="edge"><title>Node11&#45;&gt;Node16</title>
<path fill="none" stroke="midnightblue" d="M497.153,-46.0945C512.376,-40.9678 528.729,-35.4608 543.306,-30.5516"/>
<polygon fill="midnightblue" stroke="midnightblue" points="495.702,-42.89 487.342,-49.3986 497.936,-49.5239 495.702,-42.89"/>
</g>
<!-- Node14 -->
<g id="node14" class="node"><title>Node14</title>
<g id="a_node14"><a xlink:href="../../da/d0b/interface_kensho.html#a07b4d14db676108e1a94a1f10e100fb4" target="_top" xlink:title="&#45;[Kensho bindToView\l:context:]">
<polygon fill="none" stroke="black" points="682,-49.5 682,-79.5 790,-79.5 790,-49.5 682,-49.5"/>
<text text-anchor="start" x="690" y="-67.5" font-family="Helvetica,sans-Serif" font-size="10.00">&#45;[Kensho bindToView</text>
<text text-anchor="middle" x="736" y="-56.5" font-family="Helvetica,sans-Serif" font-size="10.00">:context:]</text>
</a>
</g>
</g>
<!-- Node13&#45;&gt;Node14 -->
<g id="edge14" class="edge"><title>Node13&#45;&gt;Node14</title>
<path fill="none" stroke="midnightblue" d="M653.62,-64.5C662.971,-64.5 672.523,-64.5 681.64,-64.5"/>
<polygon fill="midnightblue" stroke="midnightblue" points="653.581,-61.0001 643.581,-64.5 653.581,-68.0001 653.581,-61.0001"/>
</g>
<!-- Node14&#45;&gt;Node14 -->
<g id="edge16" class="edge"><title>Node14&#45;&gt;Node14</title>
<path fill="none" stroke="midnightblue" d="M710.058,-89.9579C713.277,-94.679 721.925,-98 736,-98 759.098,-98 767.579,-89.0566 761.444,-79.659"/>
<polygon fill="midnightblue" stroke="midnightblue" points="713.568,-89.8167 710.556,-79.659 706.577,-89.4779 713.568,-89.8167"/>
</g>
<!-- Node15 -->
<g id="node15" class="node"><title>Node15</title>
<g id="a_node15"><a xlink:href="../../da/d0b/interface_kensho.html#a1019e8223ee907bab87501ae483e609f" target="_top" xlink:title="&#45;[Kensho applyBindings\l:viewModel:]">
<polygon fill="none" stroke="black" points="826,-49.5 826,-79.5 945,-79.5 945,-49.5 826,-49.5"/>
<text text-anchor="start" x="834" y="-67.5" font-family="Helvetica,sans-Serif" font-size="10.00">&#45;[Kensho applyBindings</text>
<text text-anchor="middle" x="885.5" y="-56.5" font-family="Helvetica,sans-Serif" font-size="10.00">:viewModel:]</text>
</a>
</g>
</g>
<!-- Node14&#45;&gt;Node15 -->
<g id="edge15" class="edge"><title>Node14&#45;&gt;Node15</title>
<path fill="none" stroke="midnightblue" d="M800.421,-64.5C808.859,-64.5 817.481,-64.5 825.833,-64.5"/>
<polygon fill="midnightblue" stroke="midnightblue" points="800.251,-61.0001 790.251,-64.5 800.251,-68.0001 800.251,-61.0001"/>
</g>
</g>
</svg>
