<?xml version="1.0" encoding="UTF-8" standalone="no"?>
<!DOCTYPE svg PUBLIC "-//W3C//DTD SVG 1.1//EN"
 "http://www.w3.org/Graphics/SVG/1.1/DTD/svg11.dtd">
<!-- Generated by graphviz version 2.38.0 (20140413.2041)
 -->
<!-- Title: lua_checkstack Pages: 1 -->
<svg width="641pt" height="522pt"
 viewBox="0.00 0.00 641.00 522.00" xmlns="http://www.w3.org/2000/svg" xmlns:xlink="http://www.w3.org/1999/xlink">
<g id="graph0" class="graph" transform="scale(1 1) rotate(0) translate(4 518)">
<title>lua_checkstack</title>
<!-- Node1 -->
<g id="node1" class="node"><title>Node1</title>
<polygon fill="#bfbfbf" stroke="black" points="0,-294.5 0,-313.5 81,-313.5 81,-294.5 0,-294.5"/>
<text text-anchor="middle" x="40.5" y="-301.5" font-family="Helvetica,sans-Serif" font-size="10.00">lua_checkstack</text>
</g>
<!-- Node2 -->
<g id="node2" class="node"><title>Node2</title>
<g id="a_node2"><a xlink:href="../../df/d2d/lcorolib_8c.html#aaa37b3a30ab0c6daef7fae8951fef3e7" target="_top" xlink:title="auxresume">
<polygon fill="none" stroke="black" points="128,-456.5 128,-475.5 192,-475.5 192,-456.5 128,-456.5"/>
<text text-anchor="middle" x="160" y="-463.5" font-family="Helvetica,sans-Serif" font-size="10.00">auxresume</text>
</a>
</g>
</g>
<!-- Node1&#45;&gt;Node2 -->
<g id="edge1" class="edge"><title>Node1&#45;&gt;Node2</title>
<path fill="none" stroke="midnightblue" d="M54.4059,-321.794C79.1723,-355.94 132.618,-429.627 151.89,-456.197"/>
<polygon fill="midnightblue" stroke="midnightblue" points="57.2029,-319.689 48.4983,-313.649 51.5364,-323.799 57.2029,-319.689"/>
</g>
<!-- Node6 -->
<g id="node6" class="node"><title>Node6</title>
<g id="a_node6"><a xlink:href="../../d8/dd3/lbaselib_8c.html#a1b1ef8a039dd08b155cdfcc6167b63fb" target="_top" xlink:title="finishpcall">
<polygon fill="none" stroke="black" points="131.5,-361.5 131.5,-380.5 188.5,-380.5 188.5,-361.5 131.5,-361.5"/>
<text text-anchor="middle" x="160" y="-368.5" font-family="Helvetica,sans-Serif" font-size="10.00">finishpcall</text>
</a>
</g>
</g>
<!-- Node1&#45;&gt;Node6 -->
<g id="edge5" class="edge"><title>Node1&#45;&gt;Node6</title>
<path fill="none" stroke="midnightblue" d="M67.1315,-318.615C89.9187,-331.609 122.578,-350.232 142.196,-361.418"/>
<polygon fill="midnightblue" stroke="midnightblue" points="68.7556,-315.512 58.3349,-313.599 65.2882,-321.593 68.7556,-315.512"/>
</g>
<!-- Node10 -->
<g id="node10" class="node"><title>Node10</title>
<g id="a_node10"><a xlink:href="../../da/d29/lauxlib_8h.html#a724f5a5aeee97c0b40948c8bca91341c" target="_top" xlink:title="luaL_checkstack">
<polygon fill="none" stroke="black" points="117,-209.5 117,-228.5 203,-228.5 203,-209.5 117,-209.5"/>
<text text-anchor="middle" x="160" y="-216.5" font-family="Helvetica,sans-Serif" font-size="10.00">luaL_checkstack</text>
</a>
</g>
</g>
<!-- Node1&#45;&gt;Node10 -->
<g id="edge11" class="edge"><title>Node1&#45;&gt;Node10</title>
<path fill="none" stroke="midnightblue" d="M63.1746,-288.321C87.3176,-270.855 125.586,-243.171 145.678,-228.637"/>
<polygon fill="midnightblue" stroke="midnightblue" points="61.0296,-285.552 54.9787,-294.249 65.1324,-291.224 61.0296,-285.552"/>
</g>
<!-- Node35 -->
<g id="node35" class="node"><title>Node35</title>
<g id="a_node35"><a xlink:href="../../d0/da1/ltablib_8c.html#aab557c98c16305370f73c4c716f5725d" target="_top" xlink:title="unpack">
<polygon fill="none" stroke="black" points="136,-171.5 136,-190.5 184,-190.5 184,-171.5 136,-171.5"/>
<text text-anchor="middle" x="160" y="-178.5" font-family="Helvetica,sans-Serif" font-size="10.00">unpack</text>
</a>
</g>
</g>
<!-- Node1&#45;&gt;Node35 -->
<g id="edge36" class="edge"><title>Node1&#45;&gt;Node35</title>
<path fill="none" stroke="midnightblue" d="M51.0294,-285.431C63.5059,-262.681 87.321,-224.19 117,-200 122.583,-195.449 129.432,-191.75 135.966,-188.866"/>
<polygon fill="midnightblue" stroke="midnightblue" points="47.8647,-283.927 46.2531,-294.399 54.0431,-287.218 47.8647,-283.927"/>
</g>
<!-- Node3 -->
<g id="node3" class="node"><title>Node3</title>
<g id="a_node3"><a xlink:href="../../df/d2d/lcorolib_8c.html#a76f5d80387eeb1c7d31eb5f9cb6c9392" target="_top" xlink:title="luaB_coresume">
<polygon fill="none" stroke="black" points="239,-494.5 239,-513.5 321,-513.5 321,-494.5 239,-494.5"/>
<text text-anchor="middle" x="280" y="-501.5" font-family="Helvetica,sans-Serif" font-size="10.00">luaB_coresume</text>
</a>
</g>
</g>
<!-- Node2&#45;&gt;Node3 -->
<g id="edge2" class="edge"><title>Node2&#45;&gt;Node3</title>
<path fill="none" stroke="midnightblue" d="M200.376,-478.68C216.32,-483.815 234.421,-489.644 249.233,-494.414"/>
<polygon fill="midnightblue" stroke="midnightblue" points="201.368,-475.323 190.776,-475.589 199.222,-481.986 201.368,-475.323"/>
</g>
<!-- Node4 -->
<g id="node4" class="node"><title>Node4</title>
<g id="a_node4"><a xlink:href="../../df/d2d/lcorolib_8c.html#a777abb20385a69ce4787f72bd90375a7" target="_top" xlink:title="luaB_auxwrap">
<polygon fill="none" stroke="black" points="240,-456.5 240,-475.5 320,-475.5 320,-456.5 240,-456.5"/>
<text text-anchor="middle" x="280" y="-463.5" font-family="Helvetica,sans-Serif" font-size="10.00">luaB_auxwrap</text>
</a>
</g>
</g>
<!-- Node2&#45;&gt;Node4 -->
<g id="edge3" class="edge"><title>Node2&#45;&gt;Node4</title>
<path fill="none" stroke="midnightblue" d="M202.336,-466C214.483,-466 227.73,-466 239.744,-466"/>
<polygon fill="midnightblue" stroke="midnightblue" points="202.003,-462.5 192.003,-466 202.003,-469.5 202.003,-462.5"/>
</g>
<!-- Node5 -->
<g id="node5" class="node"><title>Node5</title>
<g id="a_node5"><a xlink:href="../../df/d2d/lcorolib_8c.html#a1c0429e27f504b08e25f437f733edad1" target="_top" xlink:title="luaB_cowrap">
<polygon fill="none" stroke="black" points="367,-456.5 367,-475.5 441,-475.5 441,-456.5 367,-456.5"/>
<text text-anchor="middle" x="404" y="-463.5" font-family="Helvetica,sans-Serif" font-size="10.00">luaB_cowrap</text>
</a>
</g>
</g>
<!-- Node4&#45;&gt;Node5 -->
<g id="edge4" class="edge"><title>Node4&#45;&gt;Node5</title>
<path fill="none" stroke="midnightblue" d="M330.297,-466C342.464,-466 355.276,-466 366.698,-466"/>
<polygon fill="midnightblue" stroke="midnightblue" points="330.273,-462.5 320.273,-466 330.273,-469.5 330.273,-462.5"/>
</g>
<!-- Node7 -->
<g id="node7" class="node"><title>Node7</title>
<g id="a_node7"><a xlink:href="../../d8/dd3/lbaselib_8c.html#a5c3f578f609d0b87ba75dc1d32287262" target="_top" xlink:title="pcallcont">
<polygon fill="none" stroke="black" points="253.5,-380.5 253.5,-399.5 306.5,-399.5 306.5,-380.5 253.5,-380.5"/>
<text text-anchor="middle" x="280" y="-387.5" font-family="Helvetica,sans-Serif" font-size="10.00">pcallcont</text>
</a>
</g>
</g>
<!-- Node6&#45;&gt;Node7 -->
<g id="edge6" class="edge"><title>Node6&#45;&gt;Node7</title>
<path fill="none" stroke="midnightblue" d="M198.715,-377.073C216.464,-379.931 237.181,-383.266 253.124,-385.833"/>
<polygon fill="midnightblue" stroke="midnightblue" points="199.095,-373.589 188.666,-375.455 197.982,-380.5 199.095,-373.589"/>
</g>
<!-- Node8 -->
<g id="node8" class="node"><title>Node8</title>
<g id="a_node8"><a xlink:href="../../d8/dd3/lbaselib_8c.html#a1fb2725eed679431d070b2e9e7abc223" target="_top" xlink:title="luaB_pcall">
<polygon fill="none" stroke="black" points="373.5,-418.5 373.5,-437.5 434.5,-437.5 434.5,-418.5 373.5,-418.5"/>
<text text-anchor="middle" x="404" y="-425.5" font-family="Helvetica,sans-Serif" font-size="10.00">luaB_pcall</text>
</a>
</g>
</g>
<!-- Node6&#45;&gt;Node8 -->
<g id="edge9" class="edge"><title>Node6&#45;&gt;Node8</title>
<path fill="none" stroke="midnightblue" d="M185.561,-385.637C200.503,-393.852 220.261,-403.523 239,-409 284.67,-422.347 340.069,-426.374 373.377,-427.555"/>
<polygon fill="midnightblue" stroke="midnightblue" points="186.924,-382.386 176.497,-380.507 183.476,-388.479 186.924,-382.386"/>
</g>
<!-- Node9 -->
<g id="node9" class="node"><title>Node9</title>
<g id="a_node9"><a xlink:href="../../d8/dd3/lbaselib_8c.html#a5fbb0094fa1a56f0a4c2547f1ec4c5ab" target="_top" xlink:title="luaB_xpcall">
<polygon fill="none" stroke="black" points="371,-380.5 371,-399.5 437,-399.5 437,-380.5 371,-380.5"/>
<text text-anchor="middle" x="404" y="-387.5" font-family="Helvetica,sans-Serif" font-size="10.00">luaB_xpcall</text>
</a>
</g>
</g>
<!-- Node6&#45;&gt;Node9 -->
<g id="edge10" class="edge"><title>Node6&#45;&gt;Node9</title>
<path fill="none" stroke="midnightblue" d="M198.969,-368.58C231.475,-367.086 279.468,-366.251 321,-371 337.696,-372.909 355.94,-376.937 370.971,-380.795"/>
<polygon fill="midnightblue" stroke="midnightblue" points="198.381,-365.105 188.571,-369.105 198.734,-372.096 198.381,-365.105"/>
</g>
<!-- Node7&#45;&gt;Node8 -->
<g id="edge7" class="edge"><title>Node7&#45;&gt;Node8</title>
<path fill="none" stroke="midnightblue" d="M316.165,-400.953C334.206,-406.572 355.945,-413.344 373.159,-418.705"/>
<polygon fill="midnightblue" stroke="midnightblue" points="317.164,-397.598 306.575,-397.966 315.082,-404.282 317.164,-397.598"/>
</g>
<!-- Node7&#45;&gt;Node9 -->
<g id="edge8" class="edge"><title>Node7&#45;&gt;Node9</title>
<path fill="none" stroke="midnightblue" d="M316.772,-390C333.92,-390 354.295,-390 370.933,-390"/>
<polygon fill="midnightblue" stroke="midnightblue" points="316.575,-386.5 306.575,-390 316.575,-393.5 316.575,-386.5"/>
</g>
<!-- Node11 -->
<g id="node11" class="node"><title>Node11</title>
<g id="a_node11"><a xlink:href="../../da/d29/lauxlib_8h.html#a8750009b9bbc508e4c3818ebd15b4e14" target="_top" xlink:title="luaL_setfuncs">
<polygon fill="none" stroke="black" points="242.5,-285.5 242.5,-304.5 317.5,-304.5 317.5,-285.5 242.5,-285.5"/>
<text text-anchor="middle" x="280" y="-292.5" font-family="Helvetica,sans-Serif" font-size="10.00">luaL_setfuncs</text>
</a>
</g>
</g>
<!-- Node10&#45;&gt;Node11 -->
<g id="edge12" class="edge"><title>Node10&#45;&gt;Node11</title>
<path fill="none" stroke="midnightblue" d="M184.378,-234.057C208.104,-249.338 244.114,-272.531 264.177,-285.453"/>
<polygon fill="midnightblue" stroke="midnightblue" points="186.247,-231.098 175.945,-228.625 182.457,-236.983 186.247,-231.098"/>
</g>
<!-- Node16 -->
<g id="node16" class="node"><title>Node16</title>
<g id="a_node16"><a xlink:href="../../d8/dd3/lbaselib_8c.html#ad467c787e381e8d18e4c7b46b4f1b05d" target="_top" xlink:title="generic_reader">
<polygon fill="none" stroke="black" points="241.5,-228.5 241.5,-247.5 318.5,-247.5 318.5,-228.5 241.5,-228.5"/>
<text text-anchor="middle" x="280" y="-235.5" font-family="Helvetica,sans-Serif" font-size="10.00">generic_reader</text>
</a>
</g>
</g>
<!-- Node10&#45;&gt;Node16 -->
<g id="edge17" class="edge"><title>Node10&#45;&gt;Node16</title>
<path fill="none" stroke="midnightblue" d="M213.357,-227.43C222.781,-228.948 232.434,-230.502 241.337,-231.936"/>
<polygon fill="midnightblue" stroke="midnightblue" points="213.697,-223.94 203.267,-225.806 212.584,-230.851 213.697,-223.94"/>
</g>
<!-- Node18 -->
<g id="node18" class="node"><title>Node18</title>
<g id="a_node18"><a xlink:href="../../de/df3/liolib_8c.html#addece2406777a40f0f591e3518293932" target="_top" xlink:title="g_read">
<polygon fill="none" stroke="black" points="257,-190.5 257,-209.5 303,-209.5 303,-190.5 257,-190.5"/>
<text text-anchor="middle" x="280" y="-197.5" font-family="Helvetica,sans-Serif" font-size="10.00">g_read</text>
</a>
</g>
</g>
<!-- Node10&#45;&gt;Node18 -->
<g id="edge19" class="edge"><title>Node10&#45;&gt;Node18</title>
<path fill="none" stroke="midnightblue" d="M213.213,-210.593C228.551,-208.123 244.509,-205.554 256.867,-203.564"/>
<polygon fill="midnightblue" stroke="midnightblue" points="212.584,-207.149 203.267,-212.194 213.697,-214.06 212.584,-207.149"/>
</g>
<!-- Node25 -->
<g id="node25" class="node"><title>Node25</title>
<g id="a_node25"><a xlink:href="../../dc/d77/lstrlib_8c.html#ae561770420cfd1894054415df9d4c423" target="_top" xlink:title="str_byte">
<polygon fill="none" stroke="black" points="255,-152.5 255,-171.5 305,-171.5 305,-152.5 255,-152.5"/>
<text text-anchor="middle" x="280" y="-159.5" font-family="Helvetica,sans-Serif" font-size="10.00">str_byte</text>
</a>
</g>
</g>
<!-- Node10&#45;&gt;Node25 -->
<g id="edge26" class="edge"><title>Node10&#45;&gt;Node25</title>
<path fill="none" stroke="midnightblue" d="M192.015,-205.227C195.732,-203.5 199.462,-201.732 203,-200 219.249,-192.046 222.826,-189.105 239,-181 245.323,-177.831 252.268,-174.486 258.57,-171.501"/>
<polygon fill="midnightblue" stroke="midnightblue" points="190.554,-202.046 182.916,-209.388 193.466,-208.412 190.554,-202.046"/>
</g>
<!-- Node26 -->
<g id="node26" class="node"><title>Node26</title>
<g id="a_node26"><a xlink:href="../../dc/d77/lstrlib_8c.html#ad14703c4bc40d7c1951dedb7bc7554f7" target="_top" xlink:title="push_captures">
<polygon fill="none" stroke="black" points="240,-76.5 240,-95.5 320,-95.5 320,-76.5 240,-76.5"/>
<text text-anchor="middle" x="280" y="-83.5" font-family="Helvetica,sans-Serif" font-size="10.00">push_captures</text>
</a>
</g>
</g>
<!-- Node10&#45;&gt;Node26 -->
<g id="edge27" class="edge"><title>Node10&#45;&gt;Node26</title>
<path fill="none" stroke="midnightblue" d="M197.491,-204.193C199.43,-202.891 201.283,-201.494 203,-200 225.602,-180.33 222.389,-167.937 239,-143 250.259,-126.097 263.967,-106.831 272.061,-95.5833"/>
<polygon fill="midnightblue" stroke="midnightblue" points="195.524,-201.287 188.604,-209.309 199.017,-207.353 195.524,-201.287"/>
</g>
<!-- Node34 -->
<g id="node34" class="node"><title>Node34</title>
<g id="a_node34"><a xlink:href="../../d0/da1/ltablib_8c.html#ae7d3f892e2605bf102dce63de388e626" target="_top" xlink:title="sort">
<polygon fill="none" stroke="black" points="264,-38.5 264,-57.5 296,-57.5 296,-38.5 264,-38.5"/>
<text text-anchor="middle" x="280" y="-45.5" font-family="Helvetica,sans-Serif" font-size="10.00">sort</text>
</a>
</g>
</g>
<!-- Node10&#45;&gt;Node34 -->
<g id="edge35" class="edge"><title>Node10&#45;&gt;Node34</title>
<path fill="none" stroke="midnightblue" d="M199.739,-203.337C200.902,-202.292 201.995,-201.181 203,-200 242.692,-153.366 199.744,-114.001 239,-67 245.308,-59.4471 255.308,-54.6971 263.731,-51.8354"/>
<polygon fill="midnightblue" stroke="midnightblue" points="197.418,-200.69 191.262,-209.313 201.452,-206.411 197.418,-200.69"/>
</g>
<!-- Node12 -->
<g id="node12" class="node"><title>Node12</title>
<g id="a_node12"><a xlink:href="../../d6/d07/lualib_8h.html#a1aebe7162861d1f3fe9c0d6d269031d4" target="_top" xlink:title="luaopen_base">
<polygon fill="none" stroke="black" points="364.5,-342.5 364.5,-361.5 443.5,-361.5 443.5,-342.5 364.5,-342.5"/>
<text text-anchor="middle" x="404" y="-349.5" font-family="Helvetica,sans-Serif" font-size="10.00">luaopen_base</text>
</a>
</g>
</g>
<!-- Node11&#45;&gt;Node12 -->
<g id="edge13" class="edge"><title>Node11&#45;&gt;Node12</title>
<path fill="none" stroke="midnightblue" d="M308.542,-309.369C322.873,-316.693 340.75,-325.593 357,-333 364.076,-336.225 371.862,-339.531 378.985,-342.462"/>
<polygon fill="midnightblue" stroke="midnightblue" points="309.743,-306.052 299.25,-304.588 306.541,-312.276 309.743,-306.052"/>
</g>
<!-- Node13 -->
<g id="node13" class="node"><title>Node13</title>
<g id="a_node13"><a xlink:href="../../de/df3/liolib_8c.html#a2edb7e84ca2f51dafb5d77b9c81a804c" target="_top" xlink:title="createmeta">
<polygon fill="none" stroke="black" points="372.5,-304.5 372.5,-323.5 435.5,-323.5 435.5,-304.5 372.5,-304.5"/>
<text text-anchor="middle" x="404" y="-311.5" font-family="Helvetica,sans-Serif" font-size="10.00">createmeta</text>
</a>
</g>
</g>
<!-- Node11&#45;&gt;Node13 -->
<g id="edge14" class="edge"><title>Node11&#45;&gt;Node13</title>
<path fill="none" stroke="midnightblue" d="M327.683,-302.27C342.588,-304.592 358.701,-307.101 372.185,-309.201"/>
<polygon fill="midnightblue" stroke="midnightblue" points="328.024,-298.781 317.604,-300.701 326.946,-305.698 328.024,-298.781"/>
</g>
<!-- Node15 -->
<g id="node15" class="node"><title>Node15</title>
<g id="a_node15"><a xlink:href="../../d6/d07/lualib_8h.html#a05e0befc0439f926b6152129ab4f8dea" target="_top" xlink:title="luaopen_package">
<polygon fill="none" stroke="black" points="357,-266.5 357,-285.5 451,-285.5 451,-266.5 357,-266.5"/>
<text text-anchor="middle" x="404" y="-273.5" font-family="Helvetica,sans-Serif" font-size="10.00">luaopen_package</text>
</a>
</g>
</g>
<!-- Node11&#45;&gt;Node15 -->
<g id="edge16" class="edge"><title>Node11&#45;&gt;Node15</title>
<path fill="none" stroke="midnightblue" d="M327.738,-287.721C337.301,-286.232 347.359,-284.665 356.899,-283.18"/>
<polygon fill="midnightblue" stroke="midnightblue" points="326.946,-284.302 317.604,-289.299 328.024,-291.219 326.946,-284.302"/>
</g>
<!-- Node14 -->
<g id="node14" class="node"><title>Node14</title>
<g id="a_node14"><a xlink:href="../../d6/d07/lualib_8h.html#a686b841d953f3113ddc7538d69debce7" target="_top" xlink:title="luaopen_io">
<polygon fill="none" stroke="black" points="487,-304.5 487,-323.5 550,-323.5 550,-304.5 487,-304.5"/>
<text text-anchor="middle" x="518.5" y="-311.5" font-family="Helvetica,sans-Serif" font-size="10.00">luaopen_io</text>
</a>
</g>
</g>
<!-- Node13&#45;&gt;Node14 -->
<g id="edge15" class="edge"><title>Node13&#45;&gt;Node14</title>
<path fill="none" stroke="midnightblue" d="M445.782,-314C459.319,-314 474.151,-314 486.796,-314"/>
<polygon fill="midnightblue" stroke="midnightblue" points="445.741,-310.5 435.741,-314 445.741,-317.5 445.741,-310.5"/>
</g>
<!-- Node17 -->
<g id="node17" class="node"><title>Node17</title>
<g id="a_node17"><a xlink:href="../../d8/dd3/lbaselib_8c.html#a4a9a3613fcf80fe033e044f7e19bed69" target="_top" xlink:title="luaB_load">
<polygon fill="none" stroke="black" points="374.5,-228.5 374.5,-247.5 433.5,-247.5 433.5,-228.5 374.5,-228.5"/>
<text text-anchor="middle" x="404" y="-235.5" font-family="Helvetica,sans-Serif" font-size="10.00">luaB_load</text>
</a>
</g>
</g>
<!-- Node16&#45;&gt;Node17 -->
<g id="edge18" class="edge"><title>Node16&#45;&gt;Node17</title>
<path fill="none" stroke="midnightblue" d="M328.966,-238C344.278,-238 360.739,-238 374.242,-238"/>
<polygon fill="midnightblue" stroke="midnightblue" points="328.6,-234.5 318.6,-238 328.599,-241.5 328.6,-234.5"/>
</g>
<!-- Node19 -->
<g id="node19" class="node"><title>Node19</title>
<g id="a_node19"><a xlink:href="../../de/df3/liolib_8c.html#a45307aa59a628966c6ea270e9b476d9a" target="_top" xlink:title="io_read">
<polygon fill="none" stroke="black" points="380.5,-190.5 380.5,-209.5 427.5,-209.5 427.5,-190.5 380.5,-190.5"/>
<text text-anchor="middle" x="404" y="-197.5" font-family="Helvetica,sans-Serif" font-size="10.00">io_read</text>
</a>
</g>
</g>
<!-- Node18&#45;&gt;Node19 -->
<g id="edge20" class="edge"><title>Node18&#45;&gt;Node19</title>
<path fill="none" stroke="midnightblue" d="M313.208,-200C334.307,-200 361.369,-200 380.244,-200"/>
<polygon fill="midnightblue" stroke="midnightblue" points="313.093,-196.5 303.093,-200 313.093,-203.5 313.093,-196.5"/>
</g>
<!-- Node20 -->
<g id="node20" class="node"><title>Node20</title>
<g id="a_node20"><a xlink:href="../../de/df3/liolib_8c.html#add5250a74576076467531e4eb8f5f68e" target="_top" xlink:title="f_read">
<polygon fill="none" stroke="black" points="382.5,-152.5 382.5,-171.5 425.5,-171.5 425.5,-152.5 382.5,-152.5"/>
<text text-anchor="middle" x="404" y="-159.5" font-family="Helvetica,sans-Serif" font-size="10.00">f_read</text>
</a>
</g>
</g>
<!-- Node18&#45;&gt;Node20 -->
<g id="edge21" class="edge"><title>Node18&#45;&gt;Node20</title>
<path fill="none" stroke="midnightblue" d="M312.652,-190.141C334.601,-183.305 363.206,-174.395 382.291,-168.45"/>
<polygon fill="midnightblue" stroke="midnightblue" points="311.6,-186.803 303.093,-193.118 313.682,-193.486 311.6,-186.803"/>
</g>
<!-- Node21 -->
<g id="node21" class="node"><title>Node21</title>
<g id="a_node21"><a xlink:href="../../de/df3/liolib_8c.html#ac37d80ee2cc364b4adafcb6f7c20f28b" target="_top" xlink:title="io_readline">
<polygon fill="none" stroke="black" points="373.5,-114.5 373.5,-133.5 434.5,-133.5 434.5,-114.5 373.5,-114.5"/>
<text text-anchor="middle" x="404" y="-121.5" font-family="Helvetica,sans-Serif" font-size="10.00">io_readline</text>
</a>
</g>
</g>
<!-- Node18&#45;&gt;Node21 -->
<g id="edge22" class="edge"><title>Node18&#45;&gt;Node21</title>
<path fill="none" stroke="midnightblue" d="M312.437,-186.462C315.42,-184.768 318.325,-182.942 321,-181 339.827,-167.333 337.826,-156.176 357,-143 362.27,-139.379 368.337,-136.264 374.299,-133.664"/>
<polygon fill="midnightblue" stroke="midnightblue" points="310.686,-183.427 303.412,-191.131 313.902,-189.644 310.686,-183.427"/>
</g>
<!-- Node22 -->
<g id="node22" class="node"><title>Node22</title>
<g id="a_node22"><a xlink:href="../../de/df3/liolib_8c.html#a66325940a0248cee288153edb061c0c4" target="_top" xlink:title="aux_lines">
<polygon fill="none" stroke="black" points="490,-152.5 490,-171.5 547,-171.5 547,-152.5 490,-152.5"/>
<text text-anchor="middle" x="518.5" y="-159.5" font-family="Helvetica,sans-Serif" font-size="10.00">aux_lines</text>
</a>
</g>
</g>
<!-- Node21&#45;&gt;Node22 -->
<g id="edge23" class="edge"><title>Node21&#45;&gt;Node22</title>
<path fill="none" stroke="midnightblue" d="M443.123,-136.877C458.462,-142.058 475.814,-147.92 489.898,-152.677"/>
<polygon fill="midnightblue" stroke="midnightblue" points="443.983,-133.473 433.389,-133.589 441.743,-140.105 443.983,-133.473"/>
</g>
<!-- Node23 -->
<g id="node23" class="node"><title>Node23</title>
<g id="a_node23"><a xlink:href="../../de/df3/liolib_8c.html#a6a36f72d8b3966c1ebafab8a4791cb6c" target="_top" xlink:title="f_lines">
<polygon fill="none" stroke="black" points="588,-171.5 588,-190.5 631,-190.5 631,-171.5 588,-171.5"/>
<text text-anchor="middle" x="609.5" y="-178.5" font-family="Helvetica,sans-Serif" font-size="10.00">f_lines</text>
</a>
</g>
</g>
<!-- Node22&#45;&gt;Node23 -->
<g id="edge24" class="edge"><title>Node22&#45;&gt;Node23</title>
<path fill="none" stroke="midnightblue" d="M557.063,-170.019C567.633,-172.276 578.74,-174.647 587.916,-176.606"/>
<polygon fill="midnightblue" stroke="midnightblue" points="557.683,-166.573 547.172,-167.908 556.221,-173.418 557.683,-166.573"/>
</g>
<!-- Node24 -->
<g id="node24" class="node"><title>Node24</title>
<g id="a_node24"><a xlink:href="../../de/df3/liolib_8c.html#ab08031b51605d4ef676ec33a3b96a286" target="_top" xlink:title="io_lines">
<polygon fill="none" stroke="black" points="586,-133.5 586,-152.5 633,-152.5 633,-133.5 586,-133.5"/>
<text text-anchor="middle" x="609.5" y="-140.5" font-family="Helvetica,sans-Serif" font-size="10.00">io_lines</text>
</a>
</g>
</g>
<!-- Node22&#45;&gt;Node24 -->
<g id="edge25" class="edge"><title>Node22&#45;&gt;Node24</title>
<path fill="none" stroke="midnightblue" d="M557.131,-153.966C566.924,-151.876 577.172,-149.688 585.916,-147.821"/>
<polygon fill="midnightblue" stroke="midnightblue" points="556.221,-150.582 547.172,-156.092 557.683,-157.427 556.221,-150.582"/>
</g>
<!-- Node27 -->
<g id="node27" class="node"><title>Node27</title>
<g id="a_node27"><a xlink:href="../../dc/d77/lstrlib_8c.html#a692514aa32ae2668683a4db15259d26b" target="_top" xlink:title="str_find_aux">
<polygon fill="none" stroke="black" points="370,-76.5 370,-95.5 438,-95.5 438,-76.5 370,-76.5"/>
<text text-anchor="middle" x="404" y="-83.5" font-family="Helvetica,sans-Serif" font-size="10.00">str_find_aux</text>
</a>
</g>
</g>
<!-- Node26&#45;&gt;Node27 -->
<g id="edge28" class="edge"><title>Node26&#45;&gt;Node27</title>
<path fill="none" stroke="midnightblue" d="M330.276,-86C343.614,-86 357.728,-86 369.937,-86"/>
<polygon fill="midnightblue" stroke="midnightblue" points="330.273,-82.5001 320.273,-86 330.273,-89.5001 330.273,-82.5001"/>
</g>
<!-- Node30 -->
<g id="node30" class="node"><title>Node30</title>
<g id="a_node30"><a xlink:href="../../dc/d77/lstrlib_8c.html#ab7cb0ba6191e1aa9455f6522d3483a02" target="_top" xlink:title="gmatch_aux">
<polygon fill="none" stroke="black" points="369.5,-38.5 369.5,-57.5 438.5,-57.5 438.5,-38.5 369.5,-38.5"/>
<text text-anchor="middle" x="404" y="-45.5" font-family="Helvetica,sans-Serif" font-size="10.00">gmatch_aux</text>
</a>
</g>
</g>
<!-- Node26&#45;&gt;Node30 -->
<g id="edge31" class="edge"><title>Node26&#45;&gt;Node30</title>
<path fill="none" stroke="midnightblue" d="M321.711,-73.3196C338.195,-68.1852 356.91,-62.3559 372.224,-57.5859"/>
<polygon fill="midnightblue" stroke="midnightblue" points="320.292,-70.0954 311.786,-76.411 322.374,-76.7787 320.292,-70.0954"/>
</g>
<!-- Node32 -->
<g id="node32" class="node"><title>Node32</title>
<g id="a_node32"><a xlink:href="../../dc/d77/lstrlib_8c.html#ad24cfa73e5ad25ec99a1b48f0916471e" target="_top" xlink:title="add_value">
<polygon fill="none" stroke="black" points="373,-0.5 373,-19.5 435,-19.5 435,-0.5 373,-0.5"/>
<text text-anchor="middle" x="404" y="-7.5" font-family="Helvetica,sans-Serif" font-size="10.00">add_value</text>
</a>
</g>
</g>
<!-- Node26&#45;&gt;Node32 -->
<g id="edge33" class="edge"><title>Node26&#45;&gt;Node32</title>
<path fill="none" stroke="midnightblue" d="M314.022,-71.5444C316.447,-70.114 318.801,-68.5963 321,-67 339.827,-53.3327 337.826,-42.1756 357,-29 362.27,-25.3788 368.337,-22.2635 374.299,-19.6643"/>
<polygon fill="midnightblue" stroke="midnightblue" points="312.251,-68.5227 305.084,-76.3262 315.553,-74.6949 312.251,-68.5227"/>
</g>
<!-- Node28 -->
<g id="node28" class="node"><title>Node28</title>
<g id="a_node28"><a xlink:href="../../dc/d77/lstrlib_8c.html#a362a4bc9ba81ce87253cc3d74f015808" target="_top" xlink:title="str_find">
<polygon fill="none" stroke="black" points="495.5,-114.5 495.5,-133.5 541.5,-133.5 541.5,-114.5 495.5,-114.5"/>
<text text-anchor="middle" x="518.5" y="-121.5" font-family="Helvetica,sans-Serif" font-size="10.00">str_find</text>
</a>
</g>
</g>
<!-- Node27&#45;&gt;Node28 -->
<g id="edge29" class="edge"><title>Node27&#45;&gt;Node28</title>
<path fill="none" stroke="midnightblue" d="M443.215,-98.9083C460.501,-104.747 480.327,-111.444 495.148,-116.45"/>
<polygon fill="midnightblue" stroke="midnightblue" points="443.983,-95.4733 433.389,-95.589 441.743,-102.105 443.983,-95.4733"/>
</g>
<!-- Node29 -->
<g id="node29" class="node"><title>Node29</title>
<g id="a_node29"><a xlink:href="../../dc/d77/lstrlib_8c.html#a4b605e43b8f5738db9eae902bbc00f00" target="_top" xlink:title="str_match">
<polygon fill="none" stroke="black" points="490,-76.5 490,-95.5 547,-95.5 547,-76.5 490,-76.5"/>
<text text-anchor="middle" x="518.5" y="-83.5" font-family="Helvetica,sans-Serif" font-size="10.00">str_match</text>
</a>
</g>
</g>
<!-- Node27&#45;&gt;Node29 -->
<g id="edge30" class="edge"><title>Node27&#45;&gt;Node29</title>
<path fill="none" stroke="midnightblue" d="M448.512,-86C462.428,-86 477.442,-86 489.898,-86"/>
<polygon fill="midnightblue" stroke="midnightblue" points="448.145,-82.5001 438.145,-86 448.145,-89.5001 448.145,-82.5001"/>
</g>
<!-- Node31 -->
<g id="node31" class="node"><title>Node31</title>
<g id="a_node31"><a xlink:href="../../dc/d77/lstrlib_8c.html#ab55a72bb412d6186c82fd75de44cd031" target="_top" xlink:title="gmatch">
<polygon fill="none" stroke="black" points="495,-38.5 495,-57.5 542,-57.5 542,-38.5 495,-38.5"/>
<text text-anchor="middle" x="518.5" y="-45.5" font-family="Helvetica,sans-Serif" font-size="10.00">gmatch</text>
</a>
</g>
</g>
<!-- Node30&#45;&gt;Node31 -->
<g id="edge32" class="edge"><title>Node30&#45;&gt;Node31</title>
<path fill="none" stroke="midnightblue" d="M448.829,-48C464.543,-48 481.618,-48 494.81,-48"/>
<polygon fill="midnightblue" stroke="midnightblue" points="448.754,-44.5001 438.754,-48 448.754,-51.5001 448.754,-44.5001"/>
</g>
<!-- Node33 -->
<g id="node33" class="node"><title>Node33</title>
<g id="a_node33"><a xlink:href="../../dc/d77/lstrlib_8c.html#a42337c674d265175bcc2b2f3809c7339" target="_top" xlink:title="str_gsub">
<polygon fill="none" stroke="black" points="492,-0.5 492,-19.5 545,-19.5 545,-0.5 492,-0.5"/>
<text text-anchor="middle" x="518.5" y="-7.5" font-family="Helvetica,sans-Serif" font-size="10.00">str_gsub</text>
</a>
</g>
</g>
<!-- Node32&#45;&gt;Node33 -->
<g id="edge34" class="edge"><title>Node32&#45;&gt;Node33</title>
<path fill="none" stroke="midnightblue" d="M445.51,-10C460.967,-10 478.148,-10 491.849,-10"/>
<polygon fill="midnightblue" stroke="midnightblue" points="445.148,-6.5001 435.148,-10 445.148,-13.5001 445.148,-6.5001"/>
</g>
</g>
</svg>
