<?xml version="1.0" encoding="UTF-8" standalone="no"?>
<!DOCTYPE svg PUBLIC "-//W3C//DTD SVG 1.1//EN"
 "http://www.w3.org/Graphics/SVG/1.1/DTD/svg11.dtd">
<!-- Generated by graphviz version 2.38.0 (20140413.2041)
 -->
<!-- Title: luaX_setinput Pages: 1 -->
<svg width="733pt" height="85pt"
 viewBox="0.00 0.00 733.00 85.00" xmlns="http://www.w3.org/2000/svg" xmlns:xlink="http://www.w3.org/1999/xlink">
<g id="graph0" class="graph" transform="scale(1 1) rotate(0) translate(4 81)">
<title>luaX_setinput</title>
<!-- Node1 -->
<g id="node1" class="node"><title>Node1</title>
<polygon fill="#bfbfbf" stroke="black" points="0,-19.5 0,-38.5 74,-38.5 74,-19.5 0,-19.5"/>
<text text-anchor="middle" x="37" y="-26.5" font-family="Helvetica,sans-Serif" font-size="10.00">luaX_setinput</text>
</g>
<!-- Node2 -->
<g id="node2" class="node"><title>Node2</title>
<g id="a_node2"><a xlink:href="../../d7/d09/lparser_8h.html#af454a43b1cd59d15997af813448e3dbf" target="_top" xlink:title="luaY_parser">
<polygon fill="none" stroke="black" points="110,-19.5 110,-38.5 178,-38.5 178,-19.5 110,-19.5"/>
<text text-anchor="middle" x="144" y="-26.5" font-family="Helvetica,sans-Serif" font-size="10.00">luaY_parser</text>
</a>
</g>
</g>
<!-- Node1&#45;&gt;Node2 -->
<g id="edge1" class="edge"><title>Node1&#45;&gt;Node2</title>
<path fill="none" stroke="midnightblue" d="M84.1696,-29C92.8589,-29 101.783,-29 109.971,-29"/>
<polygon fill="midnightblue" stroke="midnightblue" points="84.1351,-25.5001 74.135,-29 84.135,-32.5001 84.1351,-25.5001"/>
</g>
<!-- Node3 -->
<g id="node3" class="node"><title>Node3</title>
<g id="a_node3"><a xlink:href="../../d3/d08/ldo_8c.html#a14df0fa118ab124dfcc6d227bdd38ca5" target="_top" xlink:title="f_parser">
<polygon fill="none" stroke="black" points="214,-19.5 214,-38.5 265,-38.5 265,-19.5 214,-19.5"/>
<text text-anchor="middle" x="239.5" y="-26.5" font-family="Helvetica,sans-Serif" font-size="10.00">f_parser</text>
</a>
</g>
</g>
<!-- Node2&#45;&gt;Node3 -->
<g id="edge2" class="edge"><title>Node2&#45;&gt;Node3</title>
<path fill="none" stroke="midnightblue" d="M188.37,-29C197.136,-29 206.061,-29 213.903,-29"/>
<polygon fill="midnightblue" stroke="midnightblue" points="188.228,-25.5001 178.228,-29 188.228,-32.5001 188.228,-25.5001"/>
</g>
<!-- Node4 -->
<g id="node4" class="node"><title>Node4</title>
<g id="a_node4"><a xlink:href="../../d2/dd9/ldo_8h.html#a5dffa85d966f14d3f3464db580f5b3fa" target="_top" xlink:title="luaD_protectedparser">
<polygon fill="none" stroke="black" points="301,-19.5 301,-38.5 408,-38.5 408,-19.5 301,-19.5"/>
<text text-anchor="middle" x="354.5" y="-26.5" font-family="Helvetica,sans-Serif" font-size="10.00">luaD_protectedparser</text>
</a>
</g>
</g>
<!-- Node3&#45;&gt;Node4 -->
<g id="edge3" class="edge"><title>Node3&#45;&gt;Node4</title>
<path fill="none" stroke="midnightblue" d="M275.176,-29C283.263,-29 292.055,-29 300.73,-29"/>
<polygon fill="midnightblue" stroke="midnightblue" points="275.019,-25.5001 265.019,-29 275.019,-32.5001 275.019,-25.5001"/>
</g>
<!-- Node5 -->
<g id="node5" class="node"><title>Node5</title>
<g id="a_node5"><a xlink:href="../../da/dd2/lua_8h.html#a3f4c1ed5e0bd437dc527d62c5768b463" target="_top" xlink:title="lua_load">
<polygon fill="none" stroke="black" points="444,-19.5 444,-38.5 497,-38.5 497,-19.5 444,-19.5"/>
<text text-anchor="middle" x="470.5" y="-26.5" font-family="Helvetica,sans-Serif" font-size="10.00">lua_load</text>
</a>
</g>
</g>
<!-- Node4&#45;&gt;Node5 -->
<g id="edge4" class="edge"><title>Node4&#45;&gt;Node5</title>
<path fill="none" stroke="midnightblue" d="M418.321,-29C427.289,-29 436.062,-29 443.741,-29"/>
<polygon fill="midnightblue" stroke="midnightblue" points="418.162,-25.5001 408.162,-29 418.162,-32.5001 418.162,-25.5001"/>
</g>
<!-- Node6 -->
<g id="node6" class="node"><title>Node6</title>
<g id="a_node6"><a xlink:href="../../da/d29/lauxlib_8h.html#a8c38c6dcf9db7e110e525b46742bacf8" target="_top" xlink:title="luaL_loadfilex">
<polygon fill="none" stroke="black" points="539,-57.5 539,-76.5 613,-76.5 613,-57.5 539,-57.5"/>
<text text-anchor="middle" x="576" y="-64.5" font-family="Helvetica,sans-Serif" font-size="10.00">luaL_loadfilex</text>
</a>
</g>
</g>
<!-- Node5&#45;&gt;Node6 -->
<g id="edge5" class="edge"><title>Node5&#45;&gt;Node6</title>
<path fill="none" stroke="midnightblue" d="M506.785,-41.9547C520.621,-47.0349 536.211,-52.7587 548.991,-57.4509"/>
<polygon fill="midnightblue" stroke="midnightblue" points="507.678,-38.5543 497.084,-38.3933 505.265,-45.1254 507.678,-38.5543"/>
</g>
<!-- Node8 -->
<g id="node8" class="node"><title>Node8</title>
<g id="a_node8"><a xlink:href="../../da/d29/lauxlib_8h.html#a3ab1955dd9322cf03e2d3626ebfae669" target="_top" xlink:title="luaL_loadbufferx">
<polygon fill="none" stroke="black" points="533,-19.5 533,-38.5 619,-38.5 619,-19.5 533,-19.5"/>
<text text-anchor="middle" x="576" y="-26.5" font-family="Helvetica,sans-Serif" font-size="10.00">luaL_loadbufferx</text>
</a>
</g>
</g>
<!-- Node5&#45;&gt;Node8 -->
<g id="edge7" class="edge"><title>Node5&#45;&gt;Node8</title>
<path fill="none" stroke="midnightblue" d="M507.151,-29C515.413,-29 524.283,-29 532.795,-29"/>
<polygon fill="midnightblue" stroke="midnightblue" points="507.084,-25.5001 497.084,-29 507.084,-32.5001 507.084,-25.5001"/>
</g>
<!-- Node9 -->
<g id="node9" class="node"><title>Node9</title>
<g id="a_node9"><a xlink:href="../../d8/dd3/lbaselib_8c.html#a4a9a3613fcf80fe033e044f7e19bed69" target="_top" xlink:title="luaB_load">
<polygon fill="none" stroke="black" points="660.5,-0.5 660.5,-19.5 719.5,-19.5 719.5,-0.5 660.5,-0.5"/>
<text text-anchor="middle" x="690" y="-7.5" font-family="Helvetica,sans-Serif" font-size="10.00">luaB_load</text>
</a>
</g>
</g>
<!-- Node5&#45;&gt;Node9 -->
<g id="edge9" class="edge"><title>Node5&#45;&gt;Node9</title>
<path fill="none" stroke="midnightblue" d="M506.272,-16.2775C514.89,-13.6774 524.184,-11.3307 533,-10 577.053,-3.35012 628.904,-5.24638 660.342,-7.45143"/>
<polygon fill="midnightblue" stroke="midnightblue" points="504.988,-13.0135 496.535,-19.4005 507.126,-19.6791 504.988,-13.0135"/>
</g>
<!-- Node7 -->
<g id="node7" class="node"><title>Node7</title>
<g id="a_node7"><a xlink:href="../../d8/dd3/lbaselib_8c.html#aeb4cb83db820979bbdd7710109b52957" target="_top" xlink:title="luaB_loadfile">
<polygon fill="none" stroke="black" points="655,-57.5 655,-76.5 725,-76.5 725,-57.5 655,-57.5"/>
<text text-anchor="middle" x="690" y="-64.5" font-family="Helvetica,sans-Serif" font-size="10.00">luaB_loadfile</text>
</a>
</g>
</g>
<!-- Node6&#45;&gt;Node7 -->
<g id="edge6" class="edge"><title>Node6&#45;&gt;Node7</title>
<path fill="none" stroke="midnightblue" d="M623.068,-67C633.726,-67 644.88,-67 654.919,-67"/>
<polygon fill="midnightblue" stroke="midnightblue" points="623.054,-63.5001 613.054,-67 623.054,-70.5001 623.054,-63.5001"/>
</g>
<!-- Node8&#45;&gt;Node9 -->
<g id="edge8" class="edge"><title>Node8&#45;&gt;Node9</title>
<path fill="none" stroke="midnightblue" d="M629.196,-20.1454C639.919,-18.3262 650.83,-16.4753 660.345,-14.8612"/>
<polygon fill="midnightblue" stroke="midnightblue" points="628.297,-16.7477 619.023,-21.871 629.468,-23.6491 628.297,-16.7477"/>
</g>
</g>
</svg>
