<?xml version="1.0" encoding="UTF-8" standalone="no"?>
<!DOCTYPE svg PUBLIC "-//W3C//DTD SVG 1.1//EN"
 "http://www.w3.org/Graphics/SVG/1.1/DTD/svg11.dtd">
<!-- Generated by graphviz version 2.34.0 (20131008.0448)
 -->
<!-- Title: &#45;[ObservableArray triggerChangeEvent] Pages: 1 -->
<svg width="306pt" height="193pt"
 viewBox="0.00 0.00 306.00 193.00" xmlns="http://www.w3.org/2000/svg" xmlns:xlink="http://www.w3.org/1999/xlink">
<g id="graph0" class="graph" transform="scale(1 1) rotate(0) translate(4 189)">
<title>&#45;[ObservableArray triggerChangeEvent]</title>
<!-- Node1 -->
<g id="node1" class="node"><title>Node1</title>
<polygon fill="#bfbfbf" stroke="black" points="-0.114,-76 -0.114,-108 128.114,-108 128.114,-76 -0.114,-76"/>
<text text-anchor="start" x="7.886" y="-95" font-family="Helvetica,sans-Serif" font-size="10.00">&#45;[ObservableArray trigger</text>
<text text-anchor="middle" x="64" y="-83" font-family="Helvetica,sans-Serif" font-size="10.00">ChangeEvent]</text>
</g>
<!-- Node2 -->
<g id="node2" class="node"><title>Node2</title>
<g id="a_node2"><a xlink:href="../../d3/dd6/interface_observable_array.html#aacbd59c287edb91abb55fd39226b1afa" target="_top" xlink:title="&#45;[ObservableArray insert\lObject:atIndex:]">
<polygon fill="none" stroke="black" points="168.83,-153 168.83,-185 293.17,-185 293.17,-153 168.83,-153"/>
<text text-anchor="start" x="176.83" y="-172" font-family="Helvetica,sans-Serif" font-size="10.00">&#45;[ObservableArray insert</text>
<text text-anchor="middle" x="231" y="-160" font-family="Helvetica,sans-Serif" font-size="10.00">Object:atIndex:]</text>
</a>
</g>
</g>
<!-- Node1&#45;&gt;Node2 -->
<g id="edge1" class="edge"><title>Node1&#45;&gt;Node2</title>
<path fill="none" stroke="midnightblue" d="M103.603,-113.029C121.728,-122.606 143.755,-133.826 164,-143 171.516,-146.406 179.618,-149.81 187.485,-152.98"/>
<polygon fill="midnightblue" stroke="midnightblue" points="104.982,-109.798 94.51,-108.19 101.693,-115.978 104.982,-109.798"/>
</g>
<!-- Node3 -->
<g id="node3" class="node"><title>Node3</title>
<g id="a_node3"><a xlink:href="../../d3/dd6/interface_observable_array.html#ad36f5ea6ab3ff240853864bfdc90d59a" target="_top" xlink:title="&#45;[ObservableArray remove\lLastObject]">
<polygon fill="none" stroke="black" points="164.385,-102 164.385,-134 297.615,-134 297.615,-102 164.385,-102"/>
<text text-anchor="start" x="172.385" y="-121" font-family="Helvetica,sans-Serif" font-size="10.00">&#45;[ObservableArray remove</text>
<text text-anchor="middle" x="231" y="-109" font-family="Helvetica,sans-Serif" font-size="10.00">LastObject]</text>
</a>
</g>
</g>
<!-- Node1&#45;&gt;Node3 -->
<g id="edge2" class="edge"><title>Node1&#45;&gt;Node3</title>
<path fill="none" stroke="midnightblue" d="M138.32,-103.554C146.91,-104.907 155.634,-106.282 164.113,-107.618"/>
<polygon fill="midnightblue" stroke="midnightblue" points="138.744,-100.077 128.321,-101.978 137.655,-106.992 138.744,-100.077"/>
</g>
<!-- Node4 -->
<g id="node4" class="node"><title>Node4</title>
<g id="a_node4"><a xlink:href="../../d3/dd6/interface_observable_array.html#ac44749b946f824a349bc856a6f324102" target="_top" xlink:title="&#45;[ObservableArray remove\lObjectAtIndex:]">
<polygon fill="none" stroke="black" points="164.385,-51 164.385,-83 297.615,-83 297.615,-51 164.385,-51"/>
<text text-anchor="start" x="172.385" y="-70" font-family="Helvetica,sans-Serif" font-size="10.00">&#45;[ObservableArray remove</text>
<text text-anchor="middle" x="231" y="-58" font-family="Helvetica,sans-Serif" font-size="10.00">ObjectAtIndex:]</text>
</a>
</g>
</g>
<!-- Node1&#45;&gt;Node4 -->
<g id="edge3" class="edge"><title>Node1&#45;&gt;Node4</title>
<path fill="none" stroke="midnightblue" d="M138.32,-80.8909C146.91,-79.5894 155.634,-78.2676 164.113,-76.9828"/>
<polygon fill="midnightblue" stroke="midnightblue" points="137.684,-77.4472 128.321,-82.4058 138.733,-84.3682 137.684,-77.4472"/>
</g>
<!-- Node5 -->
<g id="node5" class="node"><title>Node5</title>
<g id="a_node5"><a xlink:href="../../d3/dd6/interface_observable_array.html#acb70b828689bd033b3216e0c625cab4e" target="_top" xlink:title="&#45;[ObservableArray replace\lObjectAtIndex:withObject:]">
<polygon fill="none" stroke="black" points="164.096,-0 164.096,-32 297.904,-32 297.904,-0 164.096,-0"/>
<text text-anchor="start" x="172.096" y="-19" font-family="Helvetica,sans-Serif" font-size="10.00">&#45;[ObservableArray replace</text>
<text text-anchor="middle" x="231" y="-7" font-family="Helvetica,sans-Serif" font-size="10.00">ObjectAtIndex:withObject:]</text>
</a>
</g>
</g>
<!-- Node1&#45;&gt;Node5 -->
<g id="edge4" class="edge"><title>Node1&#45;&gt;Node5</title>
<path fill="none" stroke="midnightblue" d="M104.048,-71.2307C122.105,-61.8986 143.951,-50.9889 164,-42 171.529,-38.6243 179.638,-35.2347 187.508,-32.0696"/>
<polygon fill="midnightblue" stroke="midnightblue" points="102.236,-68.2281 94.9808,-75.9485 105.467,-74.4379 102.236,-68.2281"/>
</g>
</g>
</svg>
