<?xml version="1.0" encoding="UTF-8" standalone="no"?>
<!DOCTYPE svg PUBLIC "-//W3C//DTD SVG 1.1//EN"
 "http://www.w3.org/Graphics/SVG/1.1/DTD/svg11.dtd">
<!-- Generated by graphviz version 2.34.0 (20131008.0448)
 -->
<!-- Title: &#45;[ObservableArray triggerRemoveEventFor:at:] Pages: 1 -->
<svg width="306pt" height="142pt"
 viewBox="0.00 0.00 306.00 142.00" xmlns="http://www.w3.org/2000/svg" xmlns:xlink="http://www.w3.org/1999/xlink">
<g id="graph0" class="graph" transform="scale(1 1) rotate(0) translate(4 138)">
<title>&#45;[ObservableArray triggerRemoveEventFor:at:]</title>
<!-- Node1 -->
<g id="node1" class="node"><title>Node1</title>
<polygon fill="#bfbfbf" stroke="black" points="-0.114,-51 -0.114,-83 128.114,-83 128.114,-51 -0.114,-51"/>
<text text-anchor="start" x="7.886" y="-70" font-family="Helvetica,sans-Serif" font-size="10.00">&#45;[ObservableArray trigger</text>
<text text-anchor="middle" x="64" y="-58" font-family="Helvetica,sans-Serif" font-size="10.00">RemoveEventFor:at:]</text>
</g>
<!-- Node2 -->
<g id="node2" class="node"><title>Node2</title>
<g id="a_node2"><a xlink:href="../../d3/dd6/interface_observable_array.html#ad36f5ea6ab3ff240853864bfdc90d59a" target="_top" xlink:title="&#45;[ObservableArray remove\lLastObject]">
<polygon fill="none" stroke="black" points="164.385,-102 164.385,-134 297.615,-134 297.615,-102 164.385,-102"/>
<text text-anchor="start" x="172.385" y="-121" font-family="Helvetica,sans-Serif" font-size="10.00">&#45;[ObservableArray remove</text>
<text text-anchor="middle" x="231" y="-109" font-family="Helvetica,sans-Serif" font-size="10.00">LastObject]</text>
</a>
</g>
</g>
<!-- Node1&#45;&gt;Node2 -->
<g id="edge1" class="edge"><title>Node1&#45;&gt;Node2</title>
<path fill="none" stroke="midnightblue" d="M126.967,-86.1535C143.823,-91.3634 161.9,-96.9508 178.133,-101.968"/>
<polygon fill="midnightblue" stroke="midnightblue" points="127.795,-82.7459 117.207,-83.1367 125.727,-89.4338 127.795,-82.7459"/>
</g>
<!-- Node3 -->
<g id="node3" class="node"><title>Node3</title>
<g id="a_node3"><a xlink:href="../../d3/dd6/interface_observable_array.html#ac44749b946f824a349bc856a6f324102" target="_top" xlink:title="&#45;[ObservableArray remove\lObjectAtIndex:]">
<polygon fill="none" stroke="black" points="164.385,-51 164.385,-83 297.615,-83 297.615,-51 164.385,-51"/>
<text text-anchor="start" x="172.385" y="-70" font-family="Helvetica,sans-Serif" font-size="10.00">&#45;[ObservableArray remove</text>
<text text-anchor="middle" x="231" y="-58" font-family="Helvetica,sans-Serif" font-size="10.00">ObjectAtIndex:]</text>
</a>
</g>
</g>
<!-- Node1&#45;&gt;Node3 -->
<g id="edge2" class="edge"><title>Node1&#45;&gt;Node3</title>
<path fill="none" stroke="midnightblue" d="M138.6,-67C147.099,-67 155.726,-67 164.113,-67"/>
<polygon fill="midnightblue" stroke="midnightblue" points="138.321,-63.5001 128.321,-67 138.321,-70.5001 138.321,-63.5001"/>
</g>
<!-- Node4 -->
<g id="node4" class="node"><title>Node4</title>
<g id="a_node4"><a xlink:href="../../d3/dd6/interface_observable_array.html#acb70b828689bd033b3216e0c625cab4e" target="_top" xlink:title="&#45;[ObservableArray replace\lObjectAtIndex:withObject:]">
<polygon fill="none" stroke="black" points="164.096,-0 164.096,-32 297.904,-32 297.904,-0 164.096,-0"/>
<text text-anchor="start" x="172.096" y="-19" font-family="Helvetica,sans-Serif" font-size="10.00">&#45;[ObservableArray replace</text>
<text text-anchor="middle" x="231" y="-7" font-family="Helvetica,sans-Serif" font-size="10.00">ObjectAtIndex:withObject:]</text>
</a>
</g>
</g>
<!-- Node1&#45;&gt;Node4 -->
<g id="edge3" class="edge"><title>Node1&#45;&gt;Node4</title>
<path fill="none" stroke="midnightblue" d="M126.967,-47.8465C143.823,-42.6366 161.9,-37.0492 178.133,-32.0317"/>
<polygon fill="midnightblue" stroke="midnightblue" points="125.727,-44.5662 117.207,-50.8633 127.795,-51.2541 125.727,-44.5662"/>
</g>
</g>
</svg>
