<?xml version="1.0" encoding="UTF-8" standalone="no"?>
<!DOCTYPE svg PUBLIC "-//W3C//DTD SVG 1.1//EN"
 "http://www.w3.org/Graphics/SVG/1.1/DTD/svg11.dtd">
<!-- Generated by graphviz version 2.38.0 (20140413.2041)
 -->
<!-- Title: luaE_freethread Pages: 1 -->
<svg width="1674pt" height="533pt"
 viewBox="0.00 0.00 1674.00 532.95" xmlns="http://www.w3.org/2000/svg" xmlns:xlink="http://www.w3.org/1999/xlink">
<g id="graph0" class="graph" transform="scale(1 1) rotate(0) translate(4 528.948)">
<title>luaE_freethread</title>
<!-- Node1 -->
<g id="node1" class="node"><title>Node1</title>
<polygon fill="#bfbfbf" stroke="black" points="0,-134.448 0,-153.448 83,-153.448 83,-134.448 0,-134.448"/>
<text text-anchor="middle" x="41.5" y="-141.448" font-family="Helvetica,sans-Serif" font-size="10.00">luaE_freethread</text>
</g>
<!-- Node2 -->
<g id="node2" class="node"><title>Node2</title>
<g id="a_node2"><a xlink:href="../../de/d27/lgc_8c.html#aa198d7da2a8502ed70adfe1f7ed38f46" target="_top" xlink:title="freeobj">
<polygon fill="none" stroke="black" points="119,-134.448 119,-153.448 164,-153.448 164,-134.448 119,-134.448"/>
<text text-anchor="middle" x="141.5" y="-141.448" font-family="Helvetica,sans-Serif" font-size="10.00">freeobj</text>
</a>
</g>
</g>
<!-- Node1&#45;&gt;Node2 -->
<g id="edge1" class="edge"><title>Node1&#45;&gt;Node2</title>
<path fill="none" stroke="midnightblue" d="M93.3118,-143.948C102.286,-143.948 111.179,-143.948 118.785,-143.948"/>
<polygon fill="midnightblue" stroke="midnightblue" points="93.2095,-140.448 83.2094,-143.948 93.2094,-147.448 93.2095,-140.448"/>
</g>
<!-- Node3 -->
<g id="node3" class="node"><title>Node3</title>
<g id="a_node3"><a xlink:href="../../de/d27/lgc_8c.html#abbcf0361a74ce5efc08ca703b0f4098a" target="_top" xlink:title="sweeplist">
<polygon fill="none" stroke="black" points="200,-134.448 200,-153.448 257,-153.448 257,-134.448 200,-134.448"/>
<text text-anchor="middle" x="228.5" y="-141.448" font-family="Helvetica,sans-Serif" font-size="10.00">sweeplist</text>
</a>
</g>
</g>
<!-- Node2&#45;&gt;Node3 -->
<g id="edge2" class="edge"><title>Node2&#45;&gt;Node3</title>
<path fill="none" stroke="midnightblue" d="M174.544,-143.948C182.886,-143.948 191.801,-143.948 199.892,-143.948"/>
<polygon fill="midnightblue" stroke="midnightblue" points="174.39,-140.448 164.39,-143.948 174.39,-147.448 174.39,-140.448"/>
</g>
<!-- Node4 -->
<g id="node4" class="node"><title>Node4</title>
<g id="a_node4"><a xlink:href="../../de/d27/lgc_8c.html#ae34e22198155f5d365fe500d3735c150" target="_top" xlink:title="singlestep">
<polygon fill="none" stroke="black" points="530,-115.448 530,-134.448 589,-134.448 589,-115.448 530,-115.448"/>
<text text-anchor="middle" x="559.5" y="-122.448" font-family="Helvetica,sans-Serif" font-size="10.00">singlestep</text>
</a>
</g>
</g>
<!-- Node3&#45;&gt;Node4 -->
<g id="edge3" class="edge"><title>Node3&#45;&gt;Node4</title>
<path fill="none" stroke="midnightblue" d="M267.331,-141.763C333.93,-137.917 470.665,-130.02 529.99,-126.594"/>
<polygon fill="midnightblue" stroke="midnightblue" points="267.048,-138.273 257.267,-142.344 267.452,-145.262 267.048,-138.273"/>
</g>
<!-- Node34 -->
<g id="node34" class="node"><title>Node34</title>
<g id="a_node34"><a xlink:href="../../de/d27/lgc_8c.html#ac881eb4d9ece02c3cefb86ed34879b6d" target="_top" xlink:title="sweeptolive">
<polygon fill="none" stroke="black" points="293,-153.448 293,-172.448 361,-172.448 361,-153.448 293,-153.448"/>
<text text-anchor="middle" x="327" y="-160.448" font-family="Helvetica,sans-Serif" font-size="10.00">sweeptolive</text>
</a>
</g>
</g>
<!-- Node3&#45;&gt;Node34 -->
<g id="edge40" class="edge"><title>Node3&#45;&gt;Node34</title>
<path fill="none" stroke="midnightblue" d="M267.189,-151.368C275.665,-153.037 284.597,-154.796 292.87,-156.425"/>
<polygon fill="midnightblue" stroke="midnightblue" points="267.641,-147.89 257.153,-149.392 266.288,-154.758 267.641,-147.89"/>
</g>
<!-- Node5 -->
<g id="node5" class="node"><title>Node5</title>
<g id="a_node5"><a xlink:href="../../de/d27/lgc_8c.html#a7515a46e25b277cbbe7febb4d06b196a" target="_top" xlink:title="incstep">
<polygon fill="none" stroke="black" points="642,-125.448 642,-144.448 689,-144.448 689,-125.448 642,-125.448"/>
<text text-anchor="middle" x="665.5" y="-132.448" font-family="Helvetica,sans-Serif" font-size="10.00">incstep</text>
</a>
</g>
</g>
<!-- Node4&#45;&gt;Node5 -->
<g id="edge4" class="edge"><title>Node4&#45;&gt;Node5</title>
<path fill="none" stroke="midnightblue" d="M599.306,-128.679C613.634,-130.057 629.393,-131.572 641.827,-132.768"/>
<polygon fill="midnightblue" stroke="midnightblue" points="599.483,-125.18 589.194,-127.707 598.813,-132.148 599.483,-125.18"/>
</g>
<!-- Node10 -->
<g id="node10" class="node"><title>Node10</title>
<g id="a_node10"><a xlink:href="../../dc/d9c/lgc_8h.html#a1da32357417ce5766ed5e3ada033c32f" target="_top" xlink:title="luaC_runtilstate">
<polygon fill="none" stroke="black" points="625,-87.4476 625,-106.448 706,-106.448 706,-87.4476 625,-87.4476"/>
<text text-anchor="middle" x="665.5" y="-94.4476" font-family="Helvetica,sans-Serif" font-size="10.00">luaC_runtilstate</text>
</a>
</g>
</g>
<!-- Node4&#45;&gt;Node10 -->
<g id="edge9" class="edge"><title>Node4&#45;&gt;Node10</title>
<path fill="none" stroke="midnightblue" d="M599.052,-114.568C608.808,-111.942 619.242,-109.132 628.848,-106.546"/>
<polygon fill="midnightblue" stroke="midnightblue" points="597.94,-111.243 589.194,-117.222 599.76,-118.002 597.94,-111.243"/>
</g>
<!-- Node6 -->
<g id="node6" class="node"><title>Node6</title>
<g id="a_node6"><a xlink:href="../../dc/d9c/lgc_8h.html#a19359957605d7c8eaf70803e5b77361f" target="_top" xlink:title="luaC_forcestep">
<polygon fill="none" stroke="black" points="1023,-87.4476 1023,-106.448 1103,-106.448 1103,-87.4476 1023,-87.4476"/>
<text text-anchor="middle" x="1063" y="-94.4476" font-family="Helvetica,sans-Serif" font-size="10.00">luaC_forcestep</text>
</a>
</g>
</g>
<!-- Node5&#45;&gt;Node6 -->
<g id="edge5" class="edge"><title>Node5&#45;&gt;Node6</title>
<path fill="none" stroke="midnightblue" d="M699.624,-134.717C756.875,-133.921 877.915,-130.49 979,-115.948 994.656,-113.695 1011.72,-110.007 1026.29,-106.476"/>
<polygon fill="midnightblue" stroke="midnightblue" points="699.329,-131.22 689.372,-134.84 699.414,-138.219 699.329,-131.22"/>
</g>
<!-- Node7 -->
<g id="node7" class="node"><title>Node7</title>
<g id="a_node7"><a xlink:href="../../da/dd2/lua_8h.html#a6bac487d3f900b21271e8c591bd801cd" target="_top" xlink:title="lua_gc">
<polygon fill="none" stroke="black" points="1165,-11.4476 1165,-30.4476 1209,-30.4476 1209,-11.4476 1165,-11.4476"/>
<text text-anchor="middle" x="1187" y="-18.4476" font-family="Helvetica,sans-Serif" font-size="10.00">lua_gc</text>
</a>
</g>
</g>
<!-- Node6&#45;&gt;Node7 -->
<g id="edge6" class="edge"><title>Node6&#45;&gt;Node7</title>
<path fill="none" stroke="midnightblue" d="M1088.17,-81.8908C1112.7,-66.6096 1149.93,-43.4165 1170.67,-30.4949"/>
<polygon fill="midnightblue" stroke="midnightblue" points="1086.09,-79.0639 1079.45,-87.3222 1089.79,-85.0054 1086.09,-79.0639"/>
</g>
<!-- Node9 -->
<g id="node9" class="node"><title>Node9</title>
<g id="a_node9"><a xlink:href="../../dc/d9c/lgc_8h.html#a6c71cc4b9e503c0e96c0c4ffcff93900" target="_top" xlink:title="luaC_step">
<polygon fill="none" stroke="black" points="1156.5,-87.4476 1156.5,-106.448 1217.5,-106.448 1217.5,-87.4476 1156.5,-87.4476"/>
<text text-anchor="middle" x="1187" y="-94.4476" font-family="Helvetica,sans-Serif" font-size="10.00">luaC_step</text>
</a>
</g>
</g>
<!-- Node6&#45;&gt;Node9 -->
<g id="edge8" class="edge"><title>Node6&#45;&gt;Node9</title>
<path fill="none" stroke="midnightblue" d="M1113.65,-96.9476C1128.19,-96.9476 1143.62,-96.9476 1156.48,-96.9476"/>
<polygon fill="midnightblue" stroke="midnightblue" points="1113.27,-93.4477 1103.27,-96.9476 1113.27,-100.448 1113.27,-93.4477"/>
</g>
<!-- Node8 -->
<g id="node8" class="node"><title>Node8</title>
<g id="a_node8"><a xlink:href="../../d8/dd3/lbaselib_8c.html#a07f71966c943cc9761ab129f64d4ac80" target="_top" xlink:title="luaB_collectgarbage">
<polygon fill="none" stroke="black" points="1266.5,-11.4476 1266.5,-30.4476 1368.5,-30.4476 1368.5,-11.4476 1266.5,-11.4476"/>
<text text-anchor="middle" x="1317.5" y="-18.4476" font-family="Helvetica,sans-Serif" font-size="10.00">luaB_collectgarbage</text>
</a>
</g>
</g>
<!-- Node7&#45;&gt;Node8 -->
<g id="edge7" class="edge"><title>Node7&#45;&gt;Node8</title>
<path fill="none" stroke="midnightblue" d="M1219.39,-20.9476C1233.52,-20.9476 1250.55,-20.9476 1266.38,-20.9476"/>
<polygon fill="midnightblue" stroke="midnightblue" points="1219.22,-17.4477 1209.22,-20.9476 1219.22,-24.4477 1219.22,-17.4477"/>
</g>
<!-- Node11 -->
<g id="node11" class="node"><title>Node11</title>
<g id="a_node11"><a xlink:href="../../de/d27/lgc_8c.html#a87bb9d2ca4bed013c39258f8abd61689" target="_top" xlink:title="generationalcollection">
<polygon fill="none" stroke="black" points="875,-87.4476 875,-106.448 979,-106.448 979,-87.4476 875,-87.4476"/>
<text text-anchor="middle" x="927" y="-94.4476" font-family="Helvetica,sans-Serif" font-size="10.00">generationalcollection</text>
</a>
</g>
</g>
<!-- Node10&#45;&gt;Node11 -->
<g id="edge10" class="edge"><title>Node10&#45;&gt;Node11</title>
<path fill="none" stroke="midnightblue" d="M716.413,-96.9476C761.892,-96.9476 828.778,-96.9476 874.689,-96.9476"/>
<polygon fill="midnightblue" stroke="midnightblue" points="716.195,-93.4477 706.195,-96.9476 716.195,-100.448 716.195,-93.4477"/>
</g>
<!-- Node12 -->
<g id="node12" class="node"><title>Node12</title>
<g id="a_node12"><a xlink:href="../../dc/d9c/lgc_8h.html#af016fe72ab7e564d7d55e7e4fb659041" target="_top" xlink:title="luaC_changemode">
<polygon fill="none" stroke="black" points="742,-11.4476 742,-30.4476 839,-30.4476 839,-11.4476 742,-11.4476"/>
<text text-anchor="middle" x="790.5" y="-18.4476" font-family="Helvetica,sans-Serif" font-size="10.00">luaC_changemode</text>
</a>
</g>
</g>
<!-- Node10&#45;&gt;Node12 -->
<g id="edge12" class="edge"><title>Node10&#45;&gt;Node12</title>
<path fill="none" stroke="midnightblue" d="M685.448,-80.3796C700.152,-68.0994 721.432,-51.5494 742,-39.9476 748.189,-36.4567 755.148,-33.2921 761.792,-30.5908"/>
<polygon fill="midnightblue" stroke="midnightblue" points="682.957,-77.9033 677.605,-87.0469 687.491,-83.2365 682.957,-77.9033"/>
</g>
<!-- Node13 -->
<g id="node13" class="node"><title>Node13</title>
<g id="a_node13"><a xlink:href="../../dc/d9c/lgc_8h.html#aa0b753c3ed80e1eed0379ec58592c404" target="_top" xlink:title="luaC_fullgc">
<polygon fill="none" stroke="black" points="759.5,-49.4476 759.5,-68.4476 821.5,-68.4476 821.5,-49.4476 759.5,-49.4476"/>
<text text-anchor="middle" x="790.5" y="-56.4476" font-family="Helvetica,sans-Serif" font-size="10.00">luaC_fullgc</text>
</a>
</g>
</g>
<!-- Node10&#45;&gt;Node13 -->
<g id="edge14" class="edge"><title>Node10&#45;&gt;Node13</title>
<path fill="none" stroke="midnightblue" d="M707.225,-84.3658C724.228,-79.113 743.631,-73.1187 759.322,-68.2708"/>
<polygon fill="midnightblue" stroke="midnightblue" points="706.059,-81.0627 697.538,-87.3586 708.126,-87.7508 706.059,-81.0627"/>
</g>
<!-- Node15 -->
<g id="node15" class="node"><title>Node15</title>
<g id="a_node15"><a xlink:href="../../d4/dfb/lstring_8h.html#a44d549eb0ace165927a896f37330e2cd" target="_top" xlink:title="luaS_resize">
<polygon fill="none" stroke="black" points="757.5,-182.448 757.5,-201.448 823.5,-201.448 823.5,-182.448 757.5,-182.448"/>
<text text-anchor="middle" x="790.5" y="-189.448" font-family="Helvetica,sans-Serif" font-size="10.00">luaS_resize</text>
</a>
</g>
</g>
<!-- Node10&#45;&gt;Node15 -->
<g id="edge18" class="edge"><title>Node10&#45;&gt;Node15</title>
<path fill="none" stroke="midnightblue" d="M698.342,-111.247C700.988,-112.739 703.575,-114.312 706,-115.948 735.902,-136.115 765.956,-166.554 780.496,-182.08"/>
<polygon fill="midnightblue" stroke="midnightblue" points="699.753,-108.036 689.268,-106.513 696.515,-114.242 699.753,-108.036"/>
</g>
<!-- Node11&#45;&gt;Node6 -->
<g id="edge11" class="edge"><title>Node11&#45;&gt;Node6</title>
<path fill="none" stroke="midnightblue" d="M989.371,-96.9476C1000.73,-96.9476 1012.3,-96.9476 1022.77,-96.9476"/>
<polygon fill="midnightblue" stroke="midnightblue" points="989.042,-93.4477 979.042,-96.9476 989.042,-100.448 989.042,-93.4477"/>
</g>
<!-- Node12&#45;&gt;Node7 -->
<g id="edge13" class="edge"><title>Node12&#45;&gt;Node7</title>
<path fill="none" stroke="midnightblue" d="M849.063,-10.014C857.726,-8.74131 866.577,-7.64881 875,-6.94761 979.527,1.75442 1006.56,2.71691 1111,-6.94761 1129.33,-8.64406 1149.87,-12.6257 1164.81,-15.9108"/>
<polygon fill="midnightblue" stroke="midnightblue" points="848.359,-6.58121 839.017,-11.578 849.436,-13.4979 848.359,-6.58121"/>
</g>
<!-- Node13&#45;&gt;Node7 -->
<g id="edge16" class="edge"><title>Node13&#45;&gt;Node7</title>
<path fill="none" stroke="midnightblue" d="M831.845,-48.3746C845.464,-45.1789 860.81,-41.9817 875,-39.9476 983.164,-24.4427 1114.27,-21.5767 1164.76,-21.0575"/>
<polygon fill="midnightblue" stroke="midnightblue" points="830.713,-45.0472 821.815,-50.7987 832.358,-51.8513 830.713,-45.0472"/>
</g>
<!-- Node13&#45;&gt;Node11 -->
<g id="edge15" class="edge"><title>Node13&#45;&gt;Node11</title>
<path fill="none" stroke="midnightblue" d="M831.413,-70.2243C850.732,-75.6824 873.679,-82.1653 892.132,-87.3789"/>
<polygon fill="midnightblue" stroke="midnightblue" points="832.259,-66.8263 821.684,-67.4756 830.356,-73.5626 832.259,-66.8263"/>
</g>
<!-- Node14 -->
<g id="node14" class="node"><title>Node14</title>
<g id="a_node14"><a xlink:href="../../d7/d3e/lmem_8h.html#ae7dc8a57fc5dbca825653a88a356a72d" target="_top" xlink:title="luaM_realloc_">
<polygon fill="none" stroke="black" points="890,-49.4476 890,-68.4476 964,-68.4476 964,-49.4476 890,-49.4476"/>
<text text-anchor="middle" x="927" y="-56.4476" font-family="Helvetica,sans-Serif" font-size="10.00">luaM_realloc_</text>
</a>
</g>
</g>
<!-- Node13&#45;&gt;Node14 -->
<g id="edge17" class="edge"><title>Node13&#45;&gt;Node14</title>
<path fill="none" stroke="midnightblue" d="M831.808,-58.9476C850.202,-58.9476 871.817,-58.9476 889.699,-58.9476"/>
<polygon fill="midnightblue" stroke="midnightblue" points="831.684,-55.4477 821.684,-58.9476 831.684,-62.4477 831.684,-55.4477"/>
</g>
<!-- Node16 -->
<g id="node16" class="node"><title>Node16</title>
<g id="a_node16"><a xlink:href="../../de/d27/lgc_8c.html#aace8516e609d7409e789e7b2c190b9c2" target="_top" xlink:title="checkSizes">
<polygon fill="none" stroke="black" points="894.5,-239.448 894.5,-258.448 959.5,-258.448 959.5,-239.448 894.5,-239.448"/>
<text text-anchor="middle" x="927" y="-246.448" font-family="Helvetica,sans-Serif" font-size="10.00">checkSizes</text>
</a>
</g>
</g>
<!-- Node15&#45;&gt;Node16 -->
<g id="edge19" class="edge"><title>Node15&#45;&gt;Node16</title>
<path fill="none" stroke="midnightblue" d="M820.883,-205.932C836.784,-213.344 856.837,-222.442 875,-229.948 882.859,-233.195 891.496,-236.508 899.392,-239.438"/>
<polygon fill="midnightblue" stroke="midnightblue" points="822.113,-202.643 811.573,-201.564 819.14,-208.98 822.113,-202.643"/>
</g>
<!-- Node17 -->
<g id="node17" class="node"><title>Node17</title>
<g id="a_node17"><a xlink:href="../../dd/dca/lstate_8c.html#ab65e96a7498fd886f7223b92e91fd830" target="_top" xlink:title="f_luaopen">
<polygon fill="none" stroke="black" points="897.5,-201.448 897.5,-220.448 956.5,-220.448 956.5,-201.448 897.5,-201.448"/>
<text text-anchor="middle" x="927" y="-208.448" font-family="Helvetica,sans-Serif" font-size="10.00">f_luaopen</text>
</a>
</g>
</g>
<!-- Node15&#45;&gt;Node17 -->
<g id="edge21" class="edge"><title>Node15&#45;&gt;Node17</title>
<path fill="none" stroke="midnightblue" d="M833.825,-197.927C854.478,-200.844 878.784,-204.278 897.25,-206.886"/>
<polygon fill="midnightblue" stroke="midnightblue" points="834.107,-194.432 823.716,-196.499 833.128,-201.363 834.107,-194.432"/>
</g>
<!-- Node26 -->
<g id="node26" class="node"><title>Node26</title>
<g id="a_node26"><a xlink:href="../../d1/d2f/lstring_8c.html#a6e3c0fe3ba834ee00279a9df03f40fc4" target="_top" xlink:title="newshrstr">
<polygon fill="none" stroke="black" points="898,-163.448 898,-182.448 956,-182.448 956,-163.448 898,-163.448"/>
<text text-anchor="middle" x="927" y="-170.448" font-family="Helvetica,sans-Serif" font-size="10.00">newshrstr</text>
</a>
</g>
</g>
<!-- Node15&#45;&gt;Node26 -->
<g id="edge32" class="edge"><title>Node15&#45;&gt;Node26</title>
<path fill="none" stroke="midnightblue" d="M833.898,-185.958C854.703,-183.019 879.2,-179.559 897.698,-176.946"/>
<polygon fill="midnightblue" stroke="midnightblue" points="833.128,-182.532 823.716,-187.397 834.107,-189.463 833.128,-182.532"/>
</g>
<!-- Node16&#45;&gt;Node4 -->
<g id="edge20" class="edge"><title>Node16&#45;&gt;Node4</title>
<path fill="none" stroke="midnightblue" d="M884.346,-243.255C846.558,-237.41 789.64,-226.898 742,-210.948 678.846,-189.803 608.897,-152.338 577.447,-134.676"/>
<polygon fill="midnightblue" stroke="midnightblue" points="884.064,-246.752 894.473,-244.78 885.106,-239.83 884.064,-246.752"/>
</g>
<!-- Node18 -->
<g id="node18" class="node"><title>Node18</title>
<g id="a_node18"><a xlink:href="../../da/dd2/lua_8h.html#af722e4ac7fc0eba5920f59f0162c1b97" target="_top" xlink:title="lua_newstate">
<polygon fill="none" stroke="black" points="1026,-201.448 1026,-220.448 1100,-220.448 1100,-201.448 1026,-201.448"/>
<text text-anchor="middle" x="1063" y="-208.448" font-family="Helvetica,sans-Serif" font-size="10.00">lua_newstate</text>
</a>
</g>
</g>
<!-- Node17&#45;&gt;Node18 -->
<g id="edge22" class="edge"><title>Node17&#45;&gt;Node18</title>
<path fill="none" stroke="midnightblue" d="M966.91,-210.948C985.432,-210.948 1007.45,-210.948 1025.63,-210.948"/>
<polygon fill="midnightblue" stroke="midnightblue" points="966.746,-207.448 956.746,-210.948 966.746,-214.448 966.746,-207.448"/>
</g>
<!-- Node19 -->
<g id="node19" class="node"><title>Node19</title>
<g id="a_node19"><a xlink:href="../../da/d29/lauxlib_8h.html#a7d8712fcede90ae93d5a9a7b409c586e" target="_top" xlink:title="luaL_newstate">
<polygon fill="none" stroke="black" points="1147,-239.448 1147,-258.448 1227,-258.448 1227,-239.448 1147,-239.448"/>
<text text-anchor="middle" x="1187" y="-246.448" font-family="Helvetica,sans-Serif" font-size="10.00">luaL_newstate</text>
</a>
</g>
</g>
<!-- Node18&#45;&gt;Node19 -->
<g id="edge23" class="edge"><title>Node18&#45;&gt;Node19</title>
<path fill="none" stroke="midnightblue" d="M1104.71,-223.628C1121.2,-228.762 1139.91,-234.592 1155.22,-239.362"/>
<polygon fill="midnightblue" stroke="midnightblue" points="1105.37,-220.169 1094.79,-220.537 1103.29,-226.852 1105.37,-220.169"/>
</g>
<!-- Node25 -->
<g id="node25" class="node"><title>Node25</title>
<g id="a_node25"><a xlink:href="../../dd/dca/lstate_8c.html#a8a0fc0aca5367250347c6bb6a788f05f" target="_top" xlink:title="makeseed">
<polygon fill="none" stroke="black" points="1156.5,-201.448 1156.5,-220.448 1217.5,-220.448 1217.5,-201.448 1156.5,-201.448"/>
<text text-anchor="middle" x="1187" y="-208.448" font-family="Helvetica,sans-Serif" font-size="10.00">makeseed</text>
</a>
</g>
</g>
<!-- Node18&#45;&gt;Node25 -->
<g id="edge30" class="edge"><title>Node18&#45;&gt;Node25</title>
<path fill="none" stroke="midnightblue" d="M1110.62,-204.367C1125.92,-204 1142.52,-204.229 1156.22,-205.055"/>
<polygon fill="midnightblue" stroke="midnightblue" points="1110.15,-200.881 1100.27,-204.717 1110.39,-207.877 1110.15,-200.881"/>
</g>
<!-- Node20 -->
<g id="node20" class="node"><title>Node20</title>
<g id="a_node20"><a xlink:href="../../dc/de7/interface_kensho_lua_wrapper.html#a7d10aa0242861cdd109d3da9383882a2" target="_top" xlink:title="&#45;[KenshoLuaWrapper\l evaluate]">
<polygon fill="none" stroke="black" points="1263,-272.948 1263,-302.948 1372,-302.948 1372,-272.948 1263,-272.948"/>
<text text-anchor="start" x="1271" y="-290.948" font-family="Helvetica,sans-Serif" font-size="10.00">&#45;[KenshoLuaWrapper</text>
<text text-anchor="middle" x="1317.5" y="-279.948" font-family="Helvetica,sans-Serif" font-size="10.00"> evaluate]</text>
</a>
</g>
</g>
<!-- Node19&#45;&gt;Node20 -->
<g id="edge24" class="edge"><title>Node19&#45;&gt;Node20</title>
<path fill="none" stroke="midnightblue" d="M1229.18,-261.445C1241.17,-265.085 1254.41,-269.102 1266.86,-272.883"/>
<polygon fill="midnightblue" stroke="midnightblue" points="1230.02,-258.043 1219.43,-258.488 1227.99,-264.742 1230.02,-258.043"/>
</g>
<!-- Node21 -->
<g id="node21" class="node"><title>Node21</title>
<g id="a_node21"><a xlink:href="../../dc/de7/interface_kensho_lua_wrapper.html#af6db46358f8858a18b55388aa3af211d" target="_top" xlink:title="&#45;[KenshoLuaWrapper\l initWithKensho:context\l:code:]">
<polygon fill="none" stroke="black" points="1408,-322.448 1408,-363.448 1522,-363.448 1522,-322.448 1408,-322.448"/>
<text text-anchor="start" x="1416" y="-351.448" font-family="Helvetica,sans-Serif" font-size="10.00">&#45;[KenshoLuaWrapper</text>
<text text-anchor="start" x="1416" y="-340.448" font-family="Helvetica,sans-Serif" font-size="10.00"> initWithKensho:context</text>
<text text-anchor="middle" x="1465" y="-329.448" font-family="Helvetica,sans-Serif" font-size="10.00">:code:]</text>
</a>
</g>
</g>
<!-- Node20&#45;&gt;Node21 -->
<g id="edge25" class="edge"><title>Node20&#45;&gt;Node21</title>
<path fill="none" stroke="midnightblue" d="M1367.8,-306.583C1381.23,-311.661 1395.86,-317.191 1409.56,-322.37"/>
<polygon fill="midnightblue" stroke="midnightblue" points="1368.85,-303.239 1358.26,-302.977 1366.37,-309.786 1368.85,-303.239"/>
</g>
<!-- Node22 -->
<g id="node22" class="node"><title>Node22</title>
<g id="a_node22"><a xlink:href="../../dc/de7/interface_kensho_lua_wrapper.html#a5555e0979799446611baee70104555c6" target="_top" xlink:title="&#45;[KenshoLuaWrapper\l evaluate:]">
<polygon fill="none" stroke="black" points="1410.5,-272.948 1410.5,-302.948 1519.5,-302.948 1519.5,-272.948 1410.5,-272.948"/>
<text text-anchor="start" x="1418.5" y="-290.948" font-family="Helvetica,sans-Serif" font-size="10.00">&#45;[KenshoLuaWrapper</text>
<text text-anchor="middle" x="1465" y="-279.948" font-family="Helvetica,sans-Serif" font-size="10.00"> evaluate:]</text>
</a>
</g>
</g>
<!-- Node20&#45;&gt;Node22 -->
<g id="edge26" class="edge"><title>Node20&#45;&gt;Node22</title>
<path fill="none" stroke="midnightblue" d="M1382.34,-287.948C1391.72,-287.948 1401.31,-287.948 1410.46,-287.948"/>
<polygon fill="midnightblue" stroke="midnightblue" points="1382.27,-284.448 1372.27,-287.948 1382.27,-291.448 1382.27,-284.448"/>
</g>
<!-- Node24 -->
<g id="node24" class="node"><title>Node24</title>
<g id="a_node24"><a xlink:href="../../dc/de7/interface_kensho_lua_wrapper.html#a0bb5e125d727942726d707f8b59009dc" target="_top" xlink:title="&#45;[KenshoLuaWrapper\l observableUpdated:]">
<polygon fill="none" stroke="black" points="1410.5,-223.948 1410.5,-253.948 1519.5,-253.948 1519.5,-223.948 1410.5,-223.948"/>
<text text-anchor="start" x="1418.5" y="-241.948" font-family="Helvetica,sans-Serif" font-size="10.00">&#45;[KenshoLuaWrapper</text>
<text text-anchor="middle" x="1465" y="-230.948" font-family="Helvetica,sans-Serif" font-size="10.00"> observableUpdated:]</text>
</a>
</g>
</g>
<!-- Node20&#45;&gt;Node24 -->
<g id="edge29" class="edge"><title>Node20&#45;&gt;Node24</title>
<path fill="none" stroke="midnightblue" d="M1373.15,-269.542C1388.38,-264.415 1404.73,-258.908 1419.31,-253.999"/>
<polygon fill="midnightblue" stroke="midnightblue" points="1371.7,-266.338 1363.34,-272.846 1373.94,-272.971 1371.7,-266.338"/>
</g>
<!-- Node23 -->
<g id="node23" class="node"><title>Node23</title>
<g id="a_node23"><a xlink:href="../../da/d0b/interface_kensho.html#a07b4d14db676108e1a94a1f10e100fb4" target="_top" xlink:title="&#45;[Kensho bindToView\l:context:]">
<polygon fill="none" stroke="red" points="1558,-272.948 1558,-302.948 1666,-302.948 1666,-272.948 1558,-272.948"/>
<text text-anchor="start" x="1566" y="-290.948" font-family="Helvetica,sans-Serif" font-size="10.00">&#45;[Kensho bindToView</text>
<text text-anchor="middle" x="1612" y="-279.948" font-family="Helvetica,sans-Serif" font-size="10.00">:context:]</text>
</a>
</g>
</g>
<!-- Node22&#45;&gt;Node23 -->
<g id="edge27" class="edge"><title>Node22&#45;&gt;Node23</title>
<path fill="none" stroke="midnightblue" d="M1529.62,-287.948C1538.97,-287.948 1548.52,-287.948 1557.64,-287.948"/>
<polygon fill="midnightblue" stroke="midnightblue" points="1529.58,-284.448 1519.58,-287.948 1529.58,-291.448 1529.58,-284.448"/>
</g>
<!-- Node23&#45;&gt;Node23 -->
<g id="edge28" class="edge"><title>Node23&#45;&gt;Node23</title>
<path fill="none" stroke="midnightblue" d="M1586.06,-313.406C1589.28,-318.127 1597.92,-321.448 1612,-321.448 1635.1,-321.448 1643.58,-312.504 1637.44,-303.107"/>
<polygon fill="midnightblue" stroke="midnightblue" points="1589.57,-313.264 1586.56,-303.107 1582.58,-312.926 1589.57,-313.264"/>
</g>
<!-- Node25&#45;&gt;Node18 -->
<g id="edge31" class="edge"><title>Node25&#45;&gt;Node18</title>
<path fill="none" stroke="midnightblue" d="M1145.9,-217.333C1131.19,-217.866 1114.63,-217.815 1100.27,-217.178"/>
<polygon fill="midnightblue" stroke="midnightblue" points="1146.4,-220.812 1156.22,-216.841 1146.07,-213.82 1146.4,-220.812"/>
</g>
<!-- Node27 -->
<g id="node27" class="node"><title>Node27</title>
<g id="a_node27"><a xlink:href="../../d1/d2f/lstring_8c.html#a9b2c32c59a280de24f20df1c7f0433a1" target="_top" xlink:title="internshrstr">
<polygon fill="none" stroke="black" points="1032.5,-162.448 1032.5,-181.448 1093.5,-181.448 1093.5,-162.448 1032.5,-162.448"/>
<text text-anchor="middle" x="1063" y="-169.448" font-family="Helvetica,sans-Serif" font-size="10.00">internshrstr</text>
</a>
</g>
</g>
<!-- Node26&#45;&gt;Node27 -->
<g id="edge33" class="edge"><title>Node26&#45;&gt;Node27</title>
<path fill="none" stroke="midnightblue" d="M966.239,-172.662C987.14,-172.506 1012.65,-172.316 1032.09,-172.171"/>
<polygon fill="midnightblue" stroke="midnightblue" points="966.064,-169.163 956.091,-172.738 966.117,-176.163 966.064,-169.163"/>
</g>
<!-- Node28 -->
<g id="node28" class="node"><title>Node28</title>
<g id="a_node28"><a xlink:href="../../d4/dfb/lstring_8h.html#a248e72694b9116b07b2e7f4a9a3a5331" target="_top" xlink:title="luaS_newlstr">
<polygon fill="none" stroke="red" points="1151.5,-159.448 1151.5,-178.448 1222.5,-178.448 1222.5,-159.448 1151.5,-159.448"/>
<text text-anchor="middle" x="1187" y="-166.448" font-family="Helvetica,sans-Serif" font-size="10.00">luaS_newlstr</text>
</a>
</g>
</g>
<!-- Node27&#45;&gt;Node28 -->
<g id="edge34" class="edge"><title>Node27&#45;&gt;Node28</title>
<path fill="none" stroke="midnightblue" d="M1103.73,-170.971C1119.01,-170.595 1136.32,-170.169 1151.11,-169.806"/>
<polygon fill="midnightblue" stroke="midnightblue" points="1103.44,-167.477 1093.53,-171.221 1103.62,-174.474 1103.44,-167.477"/>
</g>
<!-- Node29 -->
<g id="node29" class="node"><title>Node29</title>
<g id="a_node29"><a xlink:href="../../da/dd2/lua_8h.html#a4ab8500ade8e1d8a87b1df1baf19b179" target="_top" xlink:title="lua_pushlstring">
<polygon fill="none" stroke="red" points="1277.5,-196.448 1277.5,-215.448 1357.5,-215.448 1357.5,-196.448 1277.5,-196.448"/>
<text text-anchor="middle" x="1317.5" y="-203.448" font-family="Helvetica,sans-Serif" font-size="10.00">lua_pushlstring</text>
</a>
</g>
</g>
<!-- Node28&#45;&gt;Node29 -->
<g id="edge35" class="edge"><title>Node28&#45;&gt;Node29</title>
<path fill="none" stroke="midnightblue" d="M1230.81,-181.274C1247.83,-186.174 1267.11,-191.727 1283.07,-196.323"/>
<polygon fill="midnightblue" stroke="midnightblue" points="1231.67,-177.88 1221.09,-178.476 1229.73,-184.606 1231.67,-177.88"/>
</g>
<!-- Node30 -->
<g id="node30" class="node"><title>Node30</title>
<g id="a_node30"><a xlink:href="../../da/dd2/lua_8h.html#a4eba0457df5bafff4d44071d1d8080b6" target="_top" xlink:title="lua_concat">
<polygon fill="none" stroke="red" points="1286.5,-158.448 1286.5,-177.448 1348.5,-177.448 1348.5,-158.448 1286.5,-158.448"/>
<text text-anchor="middle" x="1317.5" y="-165.448" font-family="Helvetica,sans-Serif" font-size="10.00">lua_concat</text>
</a>
</g>
</g>
<!-- Node28&#45;&gt;Node30 -->
<g id="edge36" class="edge"><title>Node28&#45;&gt;Node30</title>
<path fill="none" stroke="midnightblue" d="M1232.84,-168.599C1250.44,-168.462 1270.19,-168.308 1286.07,-168.184"/>
<polygon fill="midnightblue" stroke="midnightblue" points="1232.75,-165.099 1222.77,-168.677 1232.8,-172.099 1232.75,-165.099"/>
</g>
<!-- Node31 -->
<g id="node31" class="node"><title>Node31</title>
<g id="a_node31"><a xlink:href="../../dd/d05/lcode_8h.html#a4f928250a0f4007764b4d3777651f617" target="_top" xlink:title="luaK_numberK">
<polygon fill="none" stroke="red" points="1277.5,-120.448 1277.5,-139.448 1357.5,-139.448 1357.5,-120.448 1277.5,-120.448"/>
<text text-anchor="middle" x="1317.5" y="-127.448" font-family="Helvetica,sans-Serif" font-size="10.00">luaK_numberK</text>
</a>
</g>
</g>
<!-- Node28&#45;&gt;Node31 -->
<g id="edge37" class="edge"><title>Node28&#45;&gt;Node31</title>
<path fill="none" stroke="midnightblue" d="M1229.15,-156.46C1247.23,-150.972 1268.12,-144.63 1284.94,-139.525"/>
<polygon fill="midnightblue" stroke="midnightblue" points="1227.99,-153.154 1219.43,-159.407 1230.02,-159.852 1227.99,-153.154"/>
</g>
<!-- Node32 -->
<g id="node32" class="node"><title>Node32</title>
<g id="a_node32"><a xlink:href="../../d8/d27/llex_8h.html#aa6e79179f823cf156f61899a09239ca6" target="_top" xlink:title="luaX_newstring">
<polygon fill="none" stroke="red" points="1277,-82.4476 1277,-101.448 1358,-101.448 1358,-82.4476 1277,-82.4476"/>
<text text-anchor="middle" x="1317.5" y="-89.4476" font-family="Helvetica,sans-Serif" font-size="10.00">luaX_newstring</text>
</a>
</g>
</g>
<!-- Node28&#45;&gt;Node32 -->
<g id="edge38" class="edge"><title>Node28&#45;&gt;Node32</title>
<path fill="none" stroke="midnightblue" d="M1206.12,-152.26C1220.64,-139.58 1241.99,-122.421 1263,-110.948 1269.66,-107.311 1277.16,-104.143 1284.38,-101.49"/>
<polygon fill="midnightblue" stroke="midnightblue" points="1203.55,-149.864 1198.42,-159.132 1208.21,-155.088 1203.55,-149.864"/>
</g>
<!-- Node33 -->
<g id="node33" class="node"><title>Node33</title>
<g id="a_node33"><a xlink:href="../../d7/d9b/lobject_8c.html#aa65db03553a5abd73e466d307bb17a37" target="_top" xlink:title="pushstr">
<polygon fill="none" stroke="red" points="1293.5,-234.448 1293.5,-253.448 1341.5,-253.448 1341.5,-234.448 1293.5,-234.448"/>
<text text-anchor="middle" x="1317.5" y="-241.448" font-family="Helvetica,sans-Serif" font-size="10.00">pushstr</text>
</a>
</g>
</g>
<!-- Node28&#45;&gt;Node33 -->
<g id="edge39" class="edge"><title>Node28&#45;&gt;Node33</title>
<path fill="none" stroke="midnightblue" d="M1214.89,-183.798C1219.04,-186.375 1223.2,-189.135 1227,-191.948 1244.44,-204.864 1244.4,-213.759 1263,-224.948 1272.37,-230.588 1283.68,-234.909 1293.48,-237.994"/>
<polygon fill="midnightblue" stroke="midnightblue" points="1216.36,-180.6 1205.97,-178.499 1212.78,-186.617 1216.36,-180.6"/>
</g>
<!-- Node35 -->
<g id="node35" class="node"><title>Node35</title>
<g id="a_node35"><a xlink:href="../../de/d27/lgc_8c.html#a396e5acf2204119b6a78993fa368ec39" target="_top" xlink:title="entersweep">
<polygon fill="none" stroke="black" points="412,-58.4476 412,-77.4476 479,-77.4476 479,-58.4476 412,-58.4476"/>
<text text-anchor="middle" x="445.5" y="-65.4476" font-family="Helvetica,sans-Serif" font-size="10.00">entersweep</text>
</a>
</g>
</g>
<!-- Node34&#45;&gt;Node35 -->
<g id="edge41" class="edge"><title>Node34&#45;&gt;Node35</title>
<path fill="none" stroke="midnightblue" d="M347.921,-146.703C372.304,-126.819 412.8,-93.7974 432.71,-77.5616"/>
<polygon fill="midnightblue" stroke="midnightblue" points="345.567,-144.107 340.029,-153.139 349.991,-149.532 345.567,-144.107"/>
</g>
<!-- Node36 -->
<g id="node36" class="node"><title>Node36</title>
<g id="a_node36"><a xlink:href="../../dc/d9c/lgc_8h.html#a15870c09448216ce5c4e1ff63d39e0a9" target="_top" xlink:title="luaC_checkfinalizer">
<polygon fill="none" stroke="black" points="397,-236.448 397,-255.448 494,-255.448 494,-236.448 397,-236.448"/>
<text text-anchor="middle" x="445.5" y="-243.448" font-family="Helvetica,sans-Serif" font-size="10.00">luaC_checkfinalizer</text>
</a>
</g>
</g>
<!-- Node34&#45;&gt;Node36 -->
<g id="edge45" class="edge"><title>Node34&#45;&gt;Node36</title>
<path fill="none" stroke="midnightblue" d="M349.757,-178.448C373.565,-195.41 410.993,-222.076 430.933,-236.282"/>
<polygon fill="midnightblue" stroke="midnightblue" points="351.539,-175.421 341.364,-172.469 347.478,-181.122 351.539,-175.421"/>
</g>
<!-- Node35&#45;&gt;Node4 -->
<g id="edge44" class="edge"><title>Node35&#45;&gt;Node4</title>
<path fill="none" stroke="midnightblue" d="M474.358,-82.1254C494.733,-92.4947 521.824,-106.282 539.693,-115.376"/>
<polygon fill="midnightblue" stroke="midnightblue" points="475.746,-78.9046 465.246,-77.4881 472.571,-85.1431 475.746,-78.9046"/>
</g>
<!-- Node35&#45;&gt;Node12 -->
<g id="edge42" class="edge"><title>Node35&#45;&gt;Node12</title>
<path fill="none" stroke="midnightblue" d="M489.275,-62.0863C553.619,-53.2696 674.898,-36.6512 741.94,-27.4646"/>
<polygon fill="midnightblue" stroke="midnightblue" points="488.51,-58.6583 479.078,-63.4836 489.46,-65.5935 488.51,-58.6583"/>
</g>
<!-- Node35&#45;&gt;Node13 -->
<g id="edge43" class="edge"><title>Node35&#45;&gt;Node13</title>
<path fill="none" stroke="midnightblue" d="M489.354,-66.8232C559.693,-64.9775 697.922,-61.3505 759.115,-59.7449"/>
<polygon fill="midnightblue" stroke="midnightblue" points="488.983,-63.3316 479.078,-67.0928 489.166,-70.3292 488.983,-63.3316"/>
</g>
<!-- Node37 -->
<g id="node37" class="node"><title>Node37</title>
<g id="a_node37"><a xlink:href="../../da/dd2/lua_8h.html#a0b834b6a9cd96b141385df14bd0272a4" target="_top" xlink:title="lua_setmetatable">
<polygon fill="none" stroke="black" points="882.5,-353.448 882.5,-372.448 971.5,-372.448 971.5,-353.448 882.5,-353.448"/>
<text text-anchor="middle" x="927" y="-360.448" font-family="Helvetica,sans-Serif" font-size="10.00">lua_setmetatable</text>
</a>
</g>
</g>
<!-- Node36&#45;&gt;Node37 -->
<g id="edge46" class="edge"><title>Node36&#45;&gt;Node37</title>
<path fill="none" stroke="midnightblue" d="M495.72,-257.958C591.255,-281.269 800.043,-332.214 886.891,-353.405"/>
<polygon fill="midnightblue" stroke="midnightblue" points="496.284,-254.493 485.739,-255.522 494.625,-261.293 496.284,-254.493"/>
</g>
<!-- Node37&#45;&gt;Node20 -->
<g id="edge51" class="edge"><title>Node37&#45;&gt;Node20</title>
<path fill="none" stroke="midnightblue" d="M946.368,-346.757C963.013,-333.158 988.871,-314.601 1015,-305.948 1098.25,-278.375 1201.41,-279.147 1262.93,-282.996"/>
<polygon fill="midnightblue" stroke="midnightblue" points="943.946,-344.22 938.55,-353.337 948.454,-349.575 943.946,-344.22"/>
</g>
<!-- Node38 -->
<g id="node38" class="node"><title>Node38</title>
<g id="a_node38"><a xlink:href="../../d1/dc2/_kensho_lua_wrapper_8m.html#ac812f3eb3f83c6ada24f2dadeced6d68" target="_top" xlink:title="pushValue">
<polygon fill="none" stroke="black" points="1031.5,-315.448 1031.5,-334.448 1094.5,-334.448 1094.5,-315.448 1031.5,-315.448"/>
<text text-anchor="middle" x="1063" y="-322.448" font-family="Helvetica,sans-Serif" font-size="10.00">pushValue</text>
</a>
</g>
</g>
<!-- Node37&#45;&gt;Node38 -->
<g id="edge47" class="edge"><title>Node37&#45;&gt;Node38</title>
<path fill="none" stroke="midnightblue" d="M971.701,-350.555C991.212,-345.022 1013.73,-338.635 1031.4,-333.624"/>
<polygon fill="midnightblue" stroke="midnightblue" points="970.48,-347.263 961.814,-353.359 972.389,-353.998 970.48,-347.263"/>
</g>
<!-- Node40 -->
<g id="node40" class="node"><title>Node40</title>
<g id="a_node40"><a xlink:href="../../da/d29/lauxlib_8h.html#a4ef6497609d8cb52f8f4dc0ec489bb7a" target="_top" xlink:title="luaL_setmetatable">
<polygon fill="none" stroke="black" points="1015.5,-429.448 1015.5,-448.448 1110.5,-448.448 1110.5,-429.448 1015.5,-429.448"/>
<text text-anchor="middle" x="1063" y="-436.448" font-family="Helvetica,sans-Serif" font-size="10.00">luaL_setmetatable</text>
</a>
</g>
</g>
<!-- Node37&#45;&gt;Node40 -->
<g id="edge52" class="edge"><title>Node37&#45;&gt;Node40</title>
<path fill="none" stroke="midnightblue" d="M948.982,-378.376C966.176,-390.599 991.43,-407.614 1015,-419.948 1021.55,-423.375 1028.86,-426.599 1035.73,-429.384"/>
<polygon fill="midnightblue" stroke="midnightblue" points="950.938,-375.471 940.777,-372.47 946.849,-381.153 950.938,-375.471"/>
</g>
<!-- Node45 -->
<g id="node45" class="node"><title>Node45</title>
<g id="a_node45"><a xlink:href="../../d8/dd3/lbaselib_8c.html#af7799a987ba6d158a96a52e80fb5beaf" target="_top" xlink:title="luaB_setmetatable">
<polygon fill="none" stroke="black" points="1015,-391.448 1015,-410.448 1111,-410.448 1111,-391.448 1015,-391.448"/>
<text text-anchor="middle" x="1063" y="-398.448" font-family="Helvetica,sans-Serif" font-size="10.00">luaB_setmetatable</text>
</a>
</g>
</g>
<!-- Node37&#45;&gt;Node45 -->
<g id="edge57" class="edge"><title>Node37&#45;&gt;Node45</title>
<path fill="none" stroke="midnightblue" d="M971.438,-375.266C989.849,-380.487 1010.98,-386.479 1028.2,-391.362"/>
<polygon fill="midnightblue" stroke="midnightblue" points="972.389,-371.898 961.814,-372.537 970.48,-378.632 972.389,-371.898"/>
</g>
<!-- Node46 -->
<g id="node46" class="node"><title>Node46</title>
<g id="a_node46"><a xlink:href="../../d8/d97/ldblib_8c.html#a3595aee1af712c0ba9c586feb763bffc" target="_top" xlink:title="db_setmetatable">
<polygon fill="none" stroke="black" points="1019,-353.448 1019,-372.448 1107,-372.448 1107,-353.448 1019,-353.448"/>
<text text-anchor="middle" x="1063" y="-360.448" font-family="Helvetica,sans-Serif" font-size="10.00">db_setmetatable</text>
</a>
</g>
</g>
<!-- Node37&#45;&gt;Node46 -->
<g id="edge58" class="edge"><title>Node37&#45;&gt;Node46</title>
<path fill="none" stroke="midnightblue" d="M981.66,-362.948C993.969,-362.948 1006.9,-362.948 1018.71,-362.948"/>
<polygon fill="midnightblue" stroke="midnightblue" points="981.506,-359.448 971.506,-362.948 981.506,-366.448 981.506,-359.448"/>
</g>
<!-- Node47 -->
<g id="node47" class="node"><title>Node47</title>
<g id="a_node47"><a xlink:href="../../d8/d97/ldblib_8c.html#aa0c362d361f8f9bd8a002c34c393e2b0" target="_top" xlink:title="db_sethook">
<polygon fill="none" stroke="black" points="1030,-239.448 1030,-258.448 1096,-258.448 1096,-239.448 1030,-239.448"/>
<text text-anchor="middle" x="1063" y="-246.448" font-family="Helvetica,sans-Serif" font-size="10.00">db_sethook</text>
</a>
</g>
</g>
<!-- Node37&#45;&gt;Node47 -->
<g id="edge59" class="edge"><title>Node37&#45;&gt;Node47</title>
<path fill="none" stroke="midnightblue" d="M941.837,-345.49C957.904,-326.025 985.939,-294.46 1015,-272.948 1022.51,-267.387 1031.5,-262.448 1039.59,-258.517"/>
<polygon fill="midnightblue" stroke="midnightblue" points="939.111,-343.294 935.526,-353.264 944.546,-347.706 939.111,-343.294"/>
</g>
<!-- Node48 -->
<g id="node48" class="node"><title>Node48</title>
<g id="a_node48"><a xlink:href="../../d6/d07/lualib_8h.html#a05e0befc0439f926b6152129ab4f8dea" target="_top" xlink:title="luaopen_package">
<polygon fill="none" stroke="black" points="1016,-505.448 1016,-524.448 1110,-524.448 1110,-505.448 1016,-505.448"/>
<text text-anchor="middle" x="1063" y="-512.448" font-family="Helvetica,sans-Serif" font-size="10.00">luaopen_package</text>
</a>
</g>
</g>
<!-- Node37&#45;&gt;Node48 -->
<g id="edge60" class="edge"><title>Node37&#45;&gt;Node48</title>
<path fill="none" stroke="midnightblue" d="M935.946,-382.017C948.692,-410.478 976.268,-464.121 1015,-495.948 1019.62,-499.747 1025.11,-502.869 1030.67,-505.405"/>
<polygon fill="midnightblue" stroke="midnightblue" points="939.119,-380.538 931.928,-372.758 932.698,-383.324 939.119,-380.538"/>
</g>
<!-- Node49 -->
<g id="node49" class="node"><title>Node49</title>
<g id="a_node49"><a xlink:href="../../dc/d77/lstrlib_8c.html#a16d034da6b46e6beae228472f26ec07b" target="_top" xlink:title="createmetatable">
<polygon fill="none" stroke="black" points="1021,-467.448 1021,-486.448 1105,-486.448 1105,-467.448 1021,-467.448"/>
<text text-anchor="middle" x="1063" y="-474.448" font-family="Helvetica,sans-Serif" font-size="10.00">createmetatable</text>
</a>
</g>
</g>
<!-- Node37&#45;&gt;Node49 -->
<g id="edge61" class="edge"><title>Node37&#45;&gt;Node49</title>
<path fill="none" stroke="midnightblue" d="M940.559,-380.942C955.984,-401.901 983.952,-436.398 1015,-457.948 1020.35,-461.661 1026.53,-464.816 1032.62,-467.424"/>
<polygon fill="midnightblue" stroke="midnightblue" points="943.247,-378.685 934.565,-372.612 937.565,-382.773 943.247,-378.685"/>
</g>
<!-- Node39 -->
<g id="node39" class="node"><title>Node39</title>
<g id="a_node39"><a xlink:href="../../d1/dc2/_kensho_lua_wrapper_8m.html#ad10bf0ff4feac9642e7477e282be41fe" target="_top" xlink:title="lookupKey">
<polygon fill="none" stroke="black" points="1156,-315.448 1156,-334.448 1218,-334.448 1218,-315.448 1156,-315.448"/>
<text text-anchor="middle" x="1187" y="-322.448" font-family="Helvetica,sans-Serif" font-size="10.00">lookupKey</text>
</a>
</g>
</g>
<!-- Node38&#45;&gt;Node39 -->
<g id="edge48" class="edge"><title>Node38&#45;&gt;Node39</title>
<path fill="none" stroke="midnightblue" d="M1104.79,-318.538C1121.41,-317.958 1140.28,-318.119 1155.65,-319.02"/>
<polygon fill="midnightblue" stroke="midnightblue" points="1104.62,-315.042 1094.79,-318.995 1104.94,-322.035 1104.62,-315.042"/>
</g>
<!-- Node39&#45;&gt;Node20 -->
<g id="edge49" class="edge"><title>Node39&#45;&gt;Node20</title>
<path fill="none" stroke="midnightblue" d="M1227.86,-313.47C1239.35,-310.163 1252.05,-306.505 1264.17,-303.015"/>
<polygon fill="midnightblue" stroke="midnightblue" points="1226.77,-310.142 1218.13,-316.273 1228.71,-316.869 1226.77,-310.142"/>
</g>
<!-- Node39&#45;&gt;Node38 -->
<g id="edge50" class="edge"><title>Node39&#45;&gt;Node38</title>
<path fill="none" stroke="midnightblue" d="M1145.21,-331.357C1128.75,-331.932 1110.07,-331.779 1094.79,-330.9"/>
<polygon fill="midnightblue" stroke="midnightblue" points="1145.82,-334.833 1155.65,-330.875 1145.5,-327.84 1145.82,-334.833"/>
</g>
<!-- Node41 -->
<g id="node41" class="node"><title>Node41</title>
<g id="a_node41"><a xlink:href="../../de/df3/liolib_8c.html#ab456fc51383d039a5a24c702060aba8e" target="_top" xlink:title="newprefile">
<polygon fill="none" stroke="black" points="1157.5,-429.448 1157.5,-448.448 1216.5,-448.448 1216.5,-429.448 1157.5,-429.448"/>
<text text-anchor="middle" x="1187" y="-436.448" font-family="Helvetica,sans-Serif" font-size="10.00">newprefile</text>
</a>
</g>
</g>
<!-- Node40&#45;&gt;Node41 -->
<g id="edge53" class="edge"><title>Node40&#45;&gt;Node41</title>
<path fill="none" stroke="midnightblue" d="M1120.91,-438.948C1133.6,-438.948 1146.53,-438.948 1157.48,-438.948"/>
<polygon fill="midnightblue" stroke="midnightblue" points="1120.82,-435.448 1110.82,-438.948 1120.82,-442.448 1120.82,-435.448"/>
</g>
<!-- Node42 -->
<g id="node42" class="node"><title>Node42</title>
<g id="a_node42"><a xlink:href="../../de/df3/liolib_8c.html#a0a80ad2f9dbb3b7238efae7738bb7569" target="_top" xlink:title="createstdfile">
<polygon fill="none" stroke="red" points="1285,-467.448 1285,-486.448 1350,-486.448 1350,-467.448 1285,-467.448"/>
<text text-anchor="middle" x="1317.5" y="-474.448" font-family="Helvetica,sans-Serif" font-size="10.00">createstdfile</text>
</a>
</g>
</g>
<!-- Node41&#45;&gt;Node42 -->
<g id="edge54" class="edge"><title>Node41&#45;&gt;Node42</title>
<path fill="none" stroke="midnightblue" d="M1226.21,-450.248C1244.92,-455.781 1267.17,-462.361 1284.91,-467.605"/>
<polygon fill="midnightblue" stroke="midnightblue" points="1227.1,-446.861 1216.52,-447.381 1225.12,-453.573 1227.1,-446.861"/>
</g>
<!-- Node43 -->
<g id="node43" class="node"><title>Node43</title>
<g id="a_node43"><a xlink:href="../../de/df3/liolib_8c.html#a8cc0b2b08409fb97e5cc80a0caf9b5fd" target="_top" xlink:title="io_popen">
<polygon fill="none" stroke="black" points="1289.5,-429.448 1289.5,-448.448 1345.5,-448.448 1345.5,-429.448 1289.5,-429.448"/>
<text text-anchor="middle" x="1317.5" y="-436.448" font-family="Helvetica,sans-Serif" font-size="10.00">io_popen</text>
</a>
</g>
</g>
<!-- Node41&#45;&gt;Node43 -->
<g id="edge55" class="edge"><title>Node41&#45;&gt;Node43</title>
<path fill="none" stroke="midnightblue" d="M1226.67,-438.948C1246.9,-438.948 1271.17,-438.948 1289.38,-438.948"/>
<polygon fill="midnightblue" stroke="midnightblue" points="1226.52,-435.448 1216.52,-438.948 1226.52,-442.448 1226.52,-435.448"/>
</g>
<!-- Node44 -->
<g id="node44" class="node"><title>Node44</title>
<g id="a_node44"><a xlink:href="../../de/df3/liolib_8c.html#a57c6c258a611b738f0ef34584ca6e7ab" target="_top" xlink:title="newfile">
<polygon fill="none" stroke="red" points="1294.5,-391.448 1294.5,-410.448 1340.5,-410.448 1340.5,-391.448 1294.5,-391.448"/>
<text text-anchor="middle" x="1317.5" y="-398.448" font-family="Helvetica,sans-Serif" font-size="10.00">newfile</text>
</a>
</g>
</g>
<!-- Node41&#45;&gt;Node44 -->
<g id="edge56" class="edge"><title>Node41&#45;&gt;Node44</title>
<path fill="none" stroke="midnightblue" d="M1226.33,-427.612C1248.56,-421.038 1275.77,-412.994 1294.44,-407.471"/>
<polygon fill="midnightblue" stroke="midnightblue" points="1225.12,-424.322 1216.52,-430.514 1227.1,-431.035 1225.12,-424.322"/>
</g>
<!-- Node50 -->
<g id="node50" class="node"><title>Node50</title>
<g id="a_node50"><a xlink:href="../../d6/d07/lualib_8h.html#a3cc052c1be81497507ee76524482eaec" target="_top" xlink:title="luaopen_string">
<polygon fill="none" stroke="black" points="1148,-467.448 1148,-486.448 1226,-486.448 1226,-467.448 1148,-467.448"/>
<text text-anchor="middle" x="1187" y="-474.448" font-family="Helvetica,sans-Serif" font-size="10.00">luaopen_string</text>
</a>
</g>
</g>
<!-- Node49&#45;&gt;Node50 -->
<g id="edge62" class="edge"><title>Node49&#45;&gt;Node50</title>
<path fill="none" stroke="midnightblue" d="M1115.46,-476.948C1126.24,-476.948 1137.42,-476.948 1147.62,-476.948"/>
<polygon fill="midnightblue" stroke="midnightblue" points="1115.3,-473.448 1105.3,-476.948 1115.3,-480.448 1115.3,-473.448"/>
</g>
</g>
</svg>
