<?xml version="1.0" encoding="UTF-8" standalone="no"?>
<!DOCTYPE svg PUBLIC "-//W3C//DTD SVG 1.1//EN"
 "http://www.w3.org/Graphics/SVG/1.1/DTD/svg11.dtd">
<!-- Generated by graphviz version 2.38.0 (20140413.2041)
 -->
<!-- Title: f_luaopen Pages: 1 -->
<svg width="887pt" height="149pt"
 viewBox="0.00 0.00 887.00 148.50" xmlns="http://www.w3.org/2000/svg" xmlns:xlink="http://www.w3.org/1999/xlink">
<g id="graph0" class="graph" transform="scale(1 1) rotate(0) translate(4 144.5)">
<title>f_luaopen</title>
<!-- Node1 -->
<g id="node1" class="node"><title>Node1</title>
<polygon fill="#bfbfbf" stroke="black" points="0,-17 0,-36 59,-36 59,-17 0,-17"/>
<text text-anchor="middle" x="29.5" y="-24" font-family="Helvetica,sans-Serif" font-size="10.00">f_luaopen</text>
</g>
<!-- Node2 -->
<g id="node2" class="node"><title>Node2</title>
<g id="a_node2"><a xlink:href="../../da/dd2/lua_8h.html#af722e4ac7fc0eba5920f59f0162c1b97" target="_top" xlink:title="lua_newstate">
<polygon fill="none" stroke="black" points="95,-17 95,-36 169,-36 169,-17 95,-17"/>
<text text-anchor="middle" x="132" y="-24" font-family="Helvetica,sans-Serif" font-size="10.00">lua_newstate</text>
</a>
</g>
</g>
<!-- Node1&#45;&gt;Node2 -->
<g id="edge1" class="edge"><title>Node1&#45;&gt;Node2</title>
<path fill="none" stroke="midnightblue" d="M69.0651,-26.5C77.5399,-26.5 86.484,-26.5 94.8592,-26.5"/>
<polygon fill="midnightblue" stroke="midnightblue" points="69.0305,-23.0001 59.0304,-26.5 69.0304,-30.0001 69.0305,-23.0001"/>
</g>
<!-- Node3 -->
<g id="node3" class="node"><title>Node3</title>
<g id="a_node3"><a xlink:href="../../da/d29/lauxlib_8h.html#a7d8712fcede90ae93d5a9a7b409c586e" target="_top" xlink:title="luaL_newstate">
<polygon fill="none" stroke="black" points="205,-55 205,-74 285,-74 285,-55 205,-55"/>
<text text-anchor="middle" x="245" y="-62" font-family="Helvetica,sans-Serif" font-size="10.00">luaL_newstate</text>
</a>
</g>
</g>
<!-- Node2&#45;&gt;Node3 -->
<g id="edge2" class="edge"><title>Node2&#45;&gt;Node3</title>
<path fill="none" stroke="midnightblue" d="M170.891,-39.4718C185.68,-44.5344 202.329,-50.2341 215.999,-54.9141"/>
<polygon fill="midnightblue" stroke="midnightblue" points="171.605,-36.0166 161.01,-36.089 169.337,-42.6393 171.605,-36.0166"/>
</g>
<!-- Node10 -->
<g id="node10" class="node"><title>Node10</title>
<g id="a_node10"><a xlink:href="../../dd/dca/lstate_8c.html#a8a0fc0aca5367250347c6bb6a788f05f" target="_top" xlink:title="makeseed">
<polygon fill="none" stroke="black" points="214.5,-17 214.5,-36 275.5,-36 275.5,-17 214.5,-17"/>
<text text-anchor="middle" x="245" y="-24" font-family="Helvetica,sans-Serif" font-size="10.00">makeseed</text>
</a>
</g>
</g>
<!-- Node2&#45;&gt;Node10 -->
<g id="edge10" class="edge"><title>Node2&#45;&gt;Node10</title>
<path fill="none" stroke="midnightblue" d="M179.284,-19.8334C191.178,-19.6163 203.653,-19.823 214.441,-20.4534"/>
<polygon fill="midnightblue" stroke="midnightblue" points="178.932,-16.3421 169.039,-20.1333 179.137,-23.3391 178.932,-16.3421"/>
</g>
<!-- Node4 -->
<g id="node4" class="node"><title>Node4</title>
<g id="a_node4"><a xlink:href="../../dc/de7/interface_kensho_lua_wrapper.html#a7d10aa0242861cdd109d3da9383882a2" target="_top" xlink:title="&#45;[KenshoLuaWrapper\l evaluate]">
<polygon fill="none" stroke="black" points="321,-49.5 321,-79.5 430,-79.5 430,-49.5 321,-49.5"/>
<text text-anchor="start" x="329" y="-67.5" font-family="Helvetica,sans-Serif" font-size="10.00">&#45;[KenshoLuaWrapper</text>
<text text-anchor="middle" x="375.5" y="-56.5" font-family="Helvetica,sans-Serif" font-size="10.00"> evaluate]</text>
</a>
</g>
</g>
<!-- Node3&#45;&gt;Node4 -->
<g id="edge3" class="edge"><title>Node3&#45;&gt;Node4</title>
<path fill="none" stroke="midnightblue" d="M295.518,-64.5C303.804,-64.5 312.435,-64.5 320.819,-64.5"/>
<polygon fill="midnightblue" stroke="midnightblue" points="295.252,-61.0001 285.252,-64.5 295.252,-68.0001 295.252,-61.0001"/>
</g>
<!-- Node5 -->
<g id="node5" class="node"><title>Node5</title>
<g id="a_node5"><a xlink:href="../../dc/de7/interface_kensho_lua_wrapper.html#af6db46358f8858a18b55388aa3af211d" target="_top" xlink:title="&#45;[KenshoLuaWrapper\l initWithKensho:context\l:code:]">
<polygon fill="none" stroke="black" points="466,-99 466,-140 580,-140 580,-99 466,-99"/>
<text text-anchor="start" x="474" y="-128" font-family="Helvetica,sans-Serif" font-size="10.00">&#45;[KenshoLuaWrapper</text>
<text text-anchor="start" x="474" y="-117" font-family="Helvetica,sans-Serif" font-size="10.00"> initWithKensho:context</text>
<text text-anchor="middle" x="523" y="-106" font-family="Helvetica,sans-Serif" font-size="10.00">:code:]</text>
</a>
</g>
</g>
<!-- Node4&#45;&gt;Node5 -->
<g id="edge4" class="edge"><title>Node4&#45;&gt;Node5</title>
<path fill="none" stroke="midnightblue" d="M425.799,-83.1353C439.233,-88.2134 453.861,-93.743 467.563,-98.9223"/>
<polygon fill="midnightblue" stroke="midnightblue" points="426.85,-79.791 416.259,-79.529 424.375,-86.3388 426.85,-79.791"/>
</g>
<!-- Node6 -->
<g id="node6" class="node"><title>Node6</title>
<g id="a_node6"><a xlink:href="../../dc/de7/interface_kensho_lua_wrapper.html#a5555e0979799446611baee70104555c6" target="_top" xlink:title="&#45;[KenshoLuaWrapper\l evaluate:]">
<polygon fill="none" stroke="black" points="468.5,-49.5 468.5,-79.5 577.5,-79.5 577.5,-49.5 468.5,-49.5"/>
<text text-anchor="start" x="476.5" y="-67.5" font-family="Helvetica,sans-Serif" font-size="10.00">&#45;[KenshoLuaWrapper</text>
<text text-anchor="middle" x="523" y="-56.5" font-family="Helvetica,sans-Serif" font-size="10.00"> evaluate:]</text>
</a>
</g>
</g>
<!-- Node4&#45;&gt;Node6 -->
<g id="edge5" class="edge"><title>Node4&#45;&gt;Node6</title>
<path fill="none" stroke="midnightblue" d="M440.339,-64.5C449.723,-64.5 459.307,-64.5 468.456,-64.5"/>
<polygon fill="midnightblue" stroke="midnightblue" points="440.265,-61.0001 430.265,-64.5 440.265,-68.0001 440.265,-61.0001"/>
</g>
<!-- Node9 -->
<g id="node9" class="node"><title>Node9</title>
<g id="a_node9"><a xlink:href="../../dc/de7/interface_kensho_lua_wrapper.html#a0bb5e125d727942726d707f8b59009dc" target="_top" xlink:title="&#45;[KenshoLuaWrapper\l observableUpdated:]">
<polygon fill="none" stroke="black" points="468.5,-0.5 468.5,-30.5 577.5,-30.5 577.5,-0.5 468.5,-0.5"/>
<text text-anchor="start" x="476.5" y="-18.5" font-family="Helvetica,sans-Serif" font-size="10.00">&#45;[KenshoLuaWrapper</text>
<text text-anchor="middle" x="523" y="-7.5" font-family="Helvetica,sans-Serif" font-size="10.00"> observableUpdated:]</text>
</a>
</g>
</g>
<!-- Node4&#45;&gt;Node9 -->
<g id="edge9" class="edge"><title>Node4&#45;&gt;Node9</title>
<path fill="none" stroke="midnightblue" d="M431.153,-46.0945C446.376,-40.9678 462.729,-35.4608 477.306,-30.5516"/>
<polygon fill="midnightblue" stroke="midnightblue" points="429.702,-42.89 421.342,-49.3986 431.936,-49.5239 429.702,-42.89"/>
</g>
<!-- Node7 -->
<g id="node7" class="node"><title>Node7</title>
<g id="a_node7"><a xlink:href="../../da/d0b/interface_kensho.html#a07b4d14db676108e1a94a1f10e100fb4" target="_top" xlink:title="&#45;[Kensho bindToView\l:context:]">
<polygon fill="none" stroke="black" points="616,-49.5 616,-79.5 724,-79.5 724,-49.5 616,-49.5"/>
<text text-anchor="start" x="624" y="-67.5" font-family="Helvetica,sans-Serif" font-size="10.00">&#45;[Kensho bindToView</text>
<text text-anchor="middle" x="670" y="-56.5" font-family="Helvetica,sans-Serif" font-size="10.00">:context:]</text>
</a>
</g>
</g>
<!-- Node6&#45;&gt;Node7 -->
<g id="edge6" class="edge"><title>Node6&#45;&gt;Node7</title>
<path fill="none" stroke="midnightblue" d="M587.62,-64.5C596.971,-64.5 606.523,-64.5 615.64,-64.5"/>
<polygon fill="midnightblue" stroke="midnightblue" points="587.581,-61.0001 577.581,-64.5 587.581,-68.0001 587.581,-61.0001"/>
</g>
<!-- Node7&#45;&gt;Node7 -->
<g id="edge8" class="edge"><title>Node7&#45;&gt;Node7</title>
<path fill="none" stroke="midnightblue" d="M644.058,-89.9579C647.277,-94.679 655.925,-98 670,-98 693.098,-98 701.579,-89.0566 695.444,-79.659"/>
<polygon fill="midnightblue" stroke="midnightblue" points="647.568,-89.8167 644.556,-79.659 640.577,-89.4779 647.568,-89.8167"/>
</g>
<!-- Node8 -->
<g id="node8" class="node"><title>Node8</title>
<g id="a_node8"><a xlink:href="../../da/d0b/interface_kensho.html#a1019e8223ee907bab87501ae483e609f" target="_top" xlink:title="&#45;[Kensho applyBindings\l:viewModel:]">
<polygon fill="none" stroke="black" points="760,-49.5 760,-79.5 879,-79.5 879,-49.5 760,-49.5"/>
<text text-anchor="start" x="768" y="-67.5" font-family="Helvetica,sans-Serif" font-size="10.00">&#45;[Kensho applyBindings</text>
<text text-anchor="middle" x="819.5" y="-56.5" font-family="Helvetica,sans-Serif" font-size="10.00">:viewModel:]</text>
</a>
</g>
</g>
<!-- Node7&#45;&gt;Node8 -->
<g id="edge7" class="edge"><title>Node7&#45;&gt;Node8</title>
<path fill="none" stroke="midnightblue" d="M734.421,-64.5C742.859,-64.5 751.481,-64.5 759.833,-64.5"/>
<polygon fill="midnightblue" stroke="midnightblue" points="734.251,-61.0001 724.251,-64.5 734.251,-68.0001 734.251,-61.0001"/>
</g>
<!-- Node10&#45;&gt;Node2 -->
<g id="edge11" class="edge"><title>Node10&#45;&gt;Node2</title>
<path fill="none" stroke="midnightblue" d="M204.232,-33.003C192.747,-33.3728 180.283,-33.3274 169.039,-32.8667"/>
<polygon fill="midnightblue" stroke="midnightblue" points="204.607,-36.4898 214.441,-32.5466 204.294,-29.4968 204.607,-36.4898"/>
</g>
</g>
</svg>
