<?xml version="1.0" encoding="UTF-8" standalone="no"?>
<!DOCTYPE svg PUBLIC "-//W3C//DTD SVG 1.1//EN"
 "http://www.w3.org/Graphics/SVG/1.1/DTD/svg11.dtd">
<!-- Generated by graphviz version 2.38.0 (20140413.2041)
 -->
<!-- Title: preinit_state Pages: 1 -->
<svg width="901pt" height="170pt"
 viewBox="0.00 0.00 901.00 170.00" xmlns="http://www.w3.org/2000/svg" xmlns:xlink="http://www.w3.org/1999/xlink">
<g id="graph0" class="graph" transform="scale(1 1) rotate(0) translate(4 166)">
<title>preinit_state</title>
<!-- Node1 -->
<g id="node1" class="node"><title>Node1</title>
<polygon fill="#bfbfbf" stroke="black" points="0,-19.5 0,-38.5 67,-38.5 67,-19.5 0,-19.5"/>
<text text-anchor="middle" x="33.5" y="-26.5" font-family="Helvetica,sans-Serif" font-size="10.00">preinit_state</text>
</g>
<!-- Node2 -->
<g id="node2" class="node"><title>Node2</title>
<g id="a_node2"><a xlink:href="../../da/dd2/lua_8h.html#af722e4ac7fc0eba5920f59f0162c1b97" target="_top" xlink:title="lua_newstate">
<polygon fill="none" stroke="black" points="106,-38.5 106,-57.5 180,-57.5 180,-38.5 106,-38.5"/>
<text text-anchor="middle" x="143" y="-45.5" font-family="Helvetica,sans-Serif" font-size="10.00">lua_newstate</text>
</a>
</g>
</g>
<!-- Node1&#45;&gt;Node2 -->
<g id="edge1" class="edge"><title>Node1&#45;&gt;Node2</title>
<path fill="none" stroke="midnightblue" d="M77.1056,-36.5303C86.6077,-38.2097 96.5957,-39.9751 105.81,-41.6037"/>
<polygon fill="midnightblue" stroke="midnightblue" points="77.5018,-33.0462 67.0453,-34.7522 76.2835,-39.9393 77.5018,-33.0462"/>
</g>
<!-- Node11 -->
<g id="node11" class="node"><title>Node11</title>
<g id="a_node11"><a xlink:href="../../da/dd2/lua_8h.html#a6a7867e39b589ae581e2ed837cbc6ea4" target="_top" xlink:title="lua_newthread">
<polygon fill="none" stroke="black" points="103,-0.5 103,-19.5 183,-19.5 183,-0.5 103,-0.5"/>
<text text-anchor="middle" x="143" y="-7.5" font-family="Helvetica,sans-Serif" font-size="10.00">lua_newthread</text>
</a>
</g>
</g>
<!-- Node1&#45;&gt;Node11 -->
<g id="edge12" class="edge"><title>Node1&#45;&gt;Node11</title>
<path fill="none" stroke="midnightblue" d="M77.1087,-21.4692C85.5642,-19.9747 94.4045,-18.4122 102.742,-16.9386"/>
<polygon fill="midnightblue" stroke="midnightblue" points="76.2835,-18.0607 67.0453,-23.2478 77.5018,-24.9538 76.2835,-18.0607"/>
</g>
<!-- Node3 -->
<g id="node3" class="node"><title>Node3</title>
<g id="a_node3"><a xlink:href="../../da/d29/lauxlib_8h.html#a7d8712fcede90ae93d5a9a7b409c586e" target="_top" xlink:title="luaL_newstate">
<polygon fill="none" stroke="black" points="219,-76.5 219,-95.5 299,-95.5 299,-76.5 219,-76.5"/>
<text text-anchor="middle" x="259" y="-83.5" font-family="Helvetica,sans-Serif" font-size="10.00">luaL_newstate</text>
</a>
</g>
</g>
<!-- Node2&#45;&gt;Node3 -->
<g id="edge2" class="edge"><title>Node2&#45;&gt;Node3</title>
<path fill="none" stroke="midnightblue" d="M182.478,-60.8259C197.774,-65.9247 215.067,-71.6891 229.242,-76.4141"/>
<polygon fill="midnightblue" stroke="midnightblue" points="183.361,-57.431 172.767,-57.589 181.147,-64.0717 183.361,-57.431"/>
</g>
<!-- Node10 -->
<g id="node10" class="node"><title>Node10</title>
<g id="a_node10"><a xlink:href="../../dd/dca/lstate_8c.html#a8a0fc0aca5367250347c6bb6a788f05f" target="_top" xlink:title="makeseed">
<polygon fill="none" stroke="black" points="228.5,-38.5 228.5,-57.5 289.5,-57.5 289.5,-38.5 228.5,-38.5"/>
<text text-anchor="middle" x="259" y="-45.5" font-family="Helvetica,sans-Serif" font-size="10.00">makeseed</text>
</a>
</g>
</g>
<!-- Node2&#45;&gt;Node10 -->
<g id="edge10" class="edge"><title>Node2&#45;&gt;Node10</title>
<path fill="none" stroke="midnightblue" d="M190.163,-41.3596C203.018,-41.0967 216.636,-41.3067 228.271,-41.9898"/>
<polygon fill="midnightblue" stroke="midnightblue" points="189.957,-37.8642 180.07,-41.6719 190.174,-44.8609 189.957,-37.8642"/>
</g>
<!-- Node4 -->
<g id="node4" class="node"><title>Node4</title>
<g id="a_node4"><a xlink:href="../../dc/de7/interface_kensho_lua_wrapper.html#a7d10aa0242861cdd109d3da9383882a2" target="_top" xlink:title="&#45;[KenshoLuaWrapper\l evaluate]">
<polygon fill="none" stroke="black" points="335,-71 335,-101 444,-101 444,-71 335,-71"/>
<text text-anchor="start" x="343" y="-89" font-family="Helvetica,sans-Serif" font-size="10.00">&#45;[KenshoLuaWrapper</text>
<text text-anchor="middle" x="389.5" y="-78" font-family="Helvetica,sans-Serif" font-size="10.00"> evaluate]</text>
</a>
</g>
</g>
<!-- Node3&#45;&gt;Node4 -->
<g id="edge3" class="edge"><title>Node3&#45;&gt;Node4</title>
<path fill="none" stroke="midnightblue" d="M309.518,-86C317.804,-86 326.435,-86 334.819,-86"/>
<polygon fill="midnightblue" stroke="midnightblue" points="309.252,-82.5001 299.252,-86 309.252,-89.5001 309.252,-82.5001"/>
</g>
<!-- Node5 -->
<g id="node5" class="node"><title>Node5</title>
<g id="a_node5"><a xlink:href="../../dc/de7/interface_kensho_lua_wrapper.html#af6db46358f8858a18b55388aa3af211d" target="_top" xlink:title="&#45;[KenshoLuaWrapper\l initWithKensho:context\l:code:]">
<polygon fill="none" stroke="black" points="480,-120.5 480,-161.5 594,-161.5 594,-120.5 480,-120.5"/>
<text text-anchor="start" x="488" y="-149.5" font-family="Helvetica,sans-Serif" font-size="10.00">&#45;[KenshoLuaWrapper</text>
<text text-anchor="start" x="488" y="-138.5" font-family="Helvetica,sans-Serif" font-size="10.00"> initWithKensho:context</text>
<text text-anchor="middle" x="537" y="-127.5" font-family="Helvetica,sans-Serif" font-size="10.00">:code:]</text>
</a>
</g>
</g>
<!-- Node4&#45;&gt;Node5 -->
<g id="edge4" class="edge"><title>Node4&#45;&gt;Node5</title>
<path fill="none" stroke="midnightblue" d="M439.799,-104.635C453.233,-109.713 467.861,-115.243 481.563,-120.422"/>
<polygon fill="midnightblue" stroke="midnightblue" points="440.85,-101.291 430.259,-101.029 438.375,-107.839 440.85,-101.291"/>
</g>
<!-- Node6 -->
<g id="node6" class="node"><title>Node6</title>
<g id="a_node6"><a xlink:href="../../dc/de7/interface_kensho_lua_wrapper.html#a5555e0979799446611baee70104555c6" target="_top" xlink:title="&#45;[KenshoLuaWrapper\l evaluate:]">
<polygon fill="none" stroke="black" points="482.5,-71 482.5,-101 591.5,-101 591.5,-71 482.5,-71"/>
<text text-anchor="start" x="490.5" y="-89" font-family="Helvetica,sans-Serif" font-size="10.00">&#45;[KenshoLuaWrapper</text>
<text text-anchor="middle" x="537" y="-78" font-family="Helvetica,sans-Serif" font-size="10.00"> evaluate:]</text>
</a>
</g>
</g>
<!-- Node4&#45;&gt;Node6 -->
<g id="edge5" class="edge"><title>Node4&#45;&gt;Node6</title>
<path fill="none" stroke="midnightblue" d="M454.339,-86C463.723,-86 473.307,-86 482.456,-86"/>
<polygon fill="midnightblue" stroke="midnightblue" points="454.265,-82.5001 444.265,-86 454.265,-89.5001 454.265,-82.5001"/>
</g>
<!-- Node9 -->
<g id="node9" class="node"><title>Node9</title>
<g id="a_node9"><a xlink:href="../../dc/de7/interface_kensho_lua_wrapper.html#a0bb5e125d727942726d707f8b59009dc" target="_top" xlink:title="&#45;[KenshoLuaWrapper\l observableUpdated:]">
<polygon fill="none" stroke="black" points="482.5,-22 482.5,-52 591.5,-52 591.5,-22 482.5,-22"/>
<text text-anchor="start" x="490.5" y="-40" font-family="Helvetica,sans-Serif" font-size="10.00">&#45;[KenshoLuaWrapper</text>
<text text-anchor="middle" x="537" y="-29" font-family="Helvetica,sans-Serif" font-size="10.00"> observableUpdated:]</text>
</a>
</g>
</g>
<!-- Node4&#45;&gt;Node9 -->
<g id="edge9" class="edge"><title>Node4&#45;&gt;Node9</title>
<path fill="none" stroke="midnightblue" d="M445.153,-67.5945C460.376,-62.4678 476.729,-56.9608 491.306,-52.0516"/>
<polygon fill="midnightblue" stroke="midnightblue" points="443.702,-64.39 435.342,-70.8986 445.936,-71.0239 443.702,-64.39"/>
</g>
<!-- Node7 -->
<g id="node7" class="node"><title>Node7</title>
<g id="a_node7"><a xlink:href="../../da/d0b/interface_kensho.html#a07b4d14db676108e1a94a1f10e100fb4" target="_top" xlink:title="&#45;[Kensho bindToView\l:context:]">
<polygon fill="none" stroke="black" points="630,-71 630,-101 738,-101 738,-71 630,-71"/>
<text text-anchor="start" x="638" y="-89" font-family="Helvetica,sans-Serif" font-size="10.00">&#45;[Kensho bindToView</text>
<text text-anchor="middle" x="684" y="-78" font-family="Helvetica,sans-Serif" font-size="10.00">:context:]</text>
</a>
</g>
</g>
<!-- Node6&#45;&gt;Node7 -->
<g id="edge6" class="edge"><title>Node6&#45;&gt;Node7</title>
<path fill="none" stroke="midnightblue" d="M601.62,-86C610.971,-86 620.523,-86 629.64,-86"/>
<polygon fill="midnightblue" stroke="midnightblue" points="601.581,-82.5001 591.581,-86 601.581,-89.5001 601.581,-82.5001"/>
</g>
<!-- Node7&#45;&gt;Node7 -->
<g id="edge8" class="edge"><title>Node7&#45;&gt;Node7</title>
<path fill="none" stroke="midnightblue" d="M658.058,-111.458C661.277,-116.179 669.925,-119.5 684,-119.5 707.098,-119.5 715.579,-110.557 709.444,-101.159"/>
<polygon fill="midnightblue" stroke="midnightblue" points="661.568,-111.317 658.556,-101.159 654.577,-110.978 661.568,-111.317"/>
</g>
<!-- Node8 -->
<g id="node8" class="node"><title>Node8</title>
<g id="a_node8"><a xlink:href="../../da/d0b/interface_kensho.html#a1019e8223ee907bab87501ae483e609f" target="_top" xlink:title="&#45;[Kensho applyBindings\l:viewModel:]">
<polygon fill="none" stroke="black" points="774,-71 774,-101 893,-101 893,-71 774,-71"/>
<text text-anchor="start" x="782" y="-89" font-family="Helvetica,sans-Serif" font-size="10.00">&#45;[Kensho applyBindings</text>
<text text-anchor="middle" x="833.5" y="-78" font-family="Helvetica,sans-Serif" font-size="10.00">:viewModel:]</text>
</a>
</g>
</g>
<!-- Node7&#45;&gt;Node8 -->
<g id="edge7" class="edge"><title>Node7&#45;&gt;Node8</title>
<path fill="none" stroke="midnightblue" d="M748.421,-86C756.859,-86 765.481,-86 773.833,-86"/>
<polygon fill="midnightblue" stroke="midnightblue" points="748.251,-82.5001 738.251,-86 748.251,-89.5001 748.251,-82.5001"/>
</g>
<!-- Node10&#45;&gt;Node2 -->
<g id="edge11" class="edge"><title>Node10&#45;&gt;Node2</title>
<path fill="none" stroke="midnightblue" d="M218.196,-54.4692C205.796,-54.8859 192.199,-54.8388 180.07,-54.3281"/>
<polygon fill="midnightblue" stroke="midnightblue" points="218.441,-57.9618 228.271,-54.0102 218.122,-50.9691 218.441,-57.9618"/>
</g>
<!-- Node12 -->
<g id="node12" class="node"><title>Node12</title>
<g id="a_node12"><a xlink:href="../../df/d2d/lcorolib_8c.html#ad49772e236781ef7ad88ff8bc980b40b" target="_top" xlink:title="luaB_cocreate">
<polygon fill="none" stroke="black" points="220.5,-0.5 220.5,-19.5 297.5,-19.5 297.5,-0.5 220.5,-0.5"/>
<text text-anchor="middle" x="259" y="-7.5" font-family="Helvetica,sans-Serif" font-size="10.00">luaB_cocreate</text>
</a>
</g>
</g>
<!-- Node11&#45;&gt;Node12 -->
<g id="edge13" class="edge"><title>Node11&#45;&gt;Node12</title>
<path fill="none" stroke="midnightblue" d="M193.271,-10C202.305,-10 211.603,-10 220.235,-10"/>
<polygon fill="midnightblue" stroke="midnightblue" points="193.232,-6.5001 183.232,-10 193.232,-13.5001 193.232,-6.5001"/>
</g>
<!-- Node13 -->
<g id="node13" class="node"><title>Node13</title>
<g id="a_node13"><a xlink:href="../../df/d2d/lcorolib_8c.html#a1c0429e27f504b08e25f437f733edad1" target="_top" xlink:title="luaB_cowrap">
<polygon fill="none" stroke="black" points="352.5,-0.5 352.5,-19.5 426.5,-19.5 426.5,-0.5 352.5,-0.5"/>
<text text-anchor="middle" x="389.5" y="-7.5" font-family="Helvetica,sans-Serif" font-size="10.00">luaB_cowrap</text>
</a>
</g>
</g>
<!-- Node12&#45;&gt;Node13 -->
<g id="edge14" class="edge"><title>Node12&#45;&gt;Node13</title>
<path fill="none" stroke="midnightblue" d="M307.554,-10C322.415,-10 338.557,-10 352.488,-10"/>
<polygon fill="midnightblue" stroke="midnightblue" points="307.513,-6.5001 297.513,-10 307.513,-13.5001 307.513,-6.5001"/>
</g>
</g>
</svg>
