<?xml version="1.0" encoding="UTF-8" standalone="no"?>
<!DOCTYPE svg PUBLIC "-//W3C//DTD SVG 1.1//EN"
 "http://www.w3.org/Graphics/SVG/1.1/DTD/svg11.dtd">
<!-- Generated by graphviz version 2.34.0 (20131008.0448)
 -->
<!-- Title: Kensho Pages: 1 -->
<svg width="146pt" height="300pt"
 viewBox="0.00 0.00 146.00 300.00" xmlns="http://www.w3.org/2000/svg" xmlns:xlink="http://www.w3.org/1999/xlink">
<g id="graph0" class="graph" transform="scale(1 1) rotate(0) translate(4 296)">
<title>Kensho</title>
<!-- Node1 -->
<g id="node1" class="node"><title>Node1</title>
<polygon fill="#bfbfbf" stroke="black" points="-0.8185,-1 -0.8185,-193 138.818,-193 138.818,-1 -0.8185,-1"/>
<text text-anchor="middle" x="69" y="-180" font-family="Helvetica,sans-Serif" font-size="10.00">Kensho</text>
<polyline fill="none" stroke="black" points="-0.8185,-173 138.818,-173 "/>
<text text-anchor="start" x="7.1815" y="-160" font-family="Helvetica,sans-Serif" font-size="10.00">+ errorMessage</text>
<text text-anchor="start" x="7.1815" y="-148" font-family="Helvetica,sans-Serif" font-size="10.00"># bindingFactories</text>
<text text-anchor="start" x="7.1815" y="-136" font-family="Helvetica,sans-Serif" font-size="10.00"># trackings</text>
<text text-anchor="start" x="7.1815" y="-124" font-family="Helvetica,sans-Serif" font-size="10.00"># assignedBindings</text>
<polyline fill="none" stroke="black" points="-0.8185,-117 138.818,-117 "/>
<text text-anchor="start" x="7.1815" y="-104" font-family="Helvetica,sans-Serif" font-size="10.00">+ applyBindings:viewModel:</text>
<text text-anchor="start" x="7.1815" y="-92" font-family="Helvetica,sans-Serif" font-size="10.00">+ removeBindingsForView:</text>
<text text-anchor="start" x="7.1815" y="-80" font-family="Helvetica,sans-Serif" font-size="10.00">+ startTracking</text>
<text text-anchor="start" x="7.1815" y="-68" font-family="Helvetica,sans-Serif" font-size="10.00">+ observableAccessed:</text>
<text text-anchor="start" x="7.1815" y="-56" font-family="Helvetica,sans-Serif" font-size="10.00">+ endTracking</text>
<text text-anchor="start" x="7.1815" y="-44" font-family="Helvetica,sans-Serif" font-size="10.00">+ init</text>
<text text-anchor="start" x="7.1815" y="-32" font-family="Helvetica,sans-Serif" font-size="10.00">+ applyBindings:viewModel:</text>
<text text-anchor="start" x="7.1815" y="-20" font-family="Helvetica,sans-Serif" font-size="10.00">+ bindToView:context:</text>
<text text-anchor="start" x="7.1815" y="-8" font-family="Helvetica,sans-Serif" font-size="10.00">+ unwrapObservable:</text>
</g>
<!-- Node2 -->
<g id="node2" class="node"><title>Node2</title>
<g id="a_node2"><a xlink:href="../../d7/dc4/class_n_s_object.html" target="_top" xlink:title="{NSObject\n||}">
<polygon fill="none" stroke="black" points="39.6085,-231 39.6085,-291 98.3915,-291 98.3915,-231 39.6085,-231"/>
<text text-anchor="middle" x="69" y="-278" font-family="Helvetica,sans-Serif" font-size="10.00">NSObject</text>
<polyline fill="none" stroke="black" points="39.6085,-271 98.3915,-271 "/>
<text text-anchor="middle" x="69" y="-258" font-family="Helvetica,sans-Serif" font-size="10.00"> </text>
<polyline fill="none" stroke="black" points="39.6085,-251 98.3915,-251 "/>
<text text-anchor="middle" x="69" y="-238" font-family="Helvetica,sans-Serif" font-size="10.00"> </text>
</a>
</g>
</g>
<!-- Node2&#45;&gt;Node1 -->
<g id="edge1" class="edge"><title>Node2&#45;&gt;Node1</title>
<path fill="none" stroke="midnightblue" d="M69,-220.479C69,-212.061 69,-202.825 69,-193.317"/>
<polygon fill="none" stroke="midnightblue" points="65.5001,-220.663 69,-230.663 72.5001,-220.663 65.5001,-220.663"/>
</g>
</g>
</svg>
