<?xml version="1.0" encoding="UTF-8" standalone="no"?>
<!DOCTYPE svg PUBLIC "-//W3C//DTD SVG 1.1//EN"
 "http://www.w3.org/Graphics/SVG/1.1/DTD/svg11.dtd">
<!-- Generated by graphviz version 2.38.0 (20140413.2041)
 -->
<!-- Title: KenObservationTracking Pages: 1 -->
<svg width="369pt" height="485pt"
 viewBox="0.00 0.00 368.50 485.00" xmlns="http://www.w3.org/2000/svg" xmlns:xlink="http://www.w3.org/1999/xlink">
<g id="graph0" class="graph" transform="scale(1 1) rotate(0) translate(4 481)">
<title>KenObservationTracking</title>
<!-- Node1 -->
<g id="node1" class="node"><title>Node1</title>
<polygon fill="#bfbfbf" stroke="black" points="71,-0.5 71,-255.5 210,-255.5 210,-0.5 71,-0.5"/>
<text text-anchor="middle" x="140.5" y="-243.5" font-family="Helvetica,sans-Serif" font-size="10.00">KenObservationTracking</text>
<polyline fill="none" stroke="black" points="71,-236.5 210,-236.5 "/>
<text text-anchor="start" x="79" y="-224.5" font-family="Helvetica,sans-Serif" font-size="10.00"># attributeObserverMap</text>
<text text-anchor="start" x="79" y="-213.5" font-family="Helvetica,sans-Serif" font-size="10.00"># attributeDependencyMap</text>
<text text-anchor="start" x="79" y="-202.5" font-family="Helvetica,sans-Serif" font-size="10.00"># attributeList</text>
<text text-anchor="start" x="79" y="-191.5" font-family="Helvetica,sans-Serif" font-size="10.00"># ken</text>
<text text-anchor="start" x="79" y="-180.5" font-family="Helvetica,sans-Serif" font-size="10.00"># target</text>
<polyline fill="none" stroke="black" points="71,-173.5 210,-173.5 "/>
<text text-anchor="start" x="79" y="-161.5" font-family="Helvetica,sans-Serif" font-size="10.00">+ initWithTarget:kensho</text>
<text text-anchor="start" x="79" y="-150.5" font-family="Helvetica,sans-Serif" font-size="10.00">:attributes:</text>
<text text-anchor="start" x="79" y="-139.5" font-family="Helvetica,sans-Serif" font-size="10.00">+ startTrackingAttribute:</text>
<text text-anchor="start" x="79" y="-128.5" font-family="Helvetica,sans-Serif" font-size="10.00">+ endTrackingAttribute:</text>
<text text-anchor="start" x="79" y="-117.5" font-family="Helvetica,sans-Serif" font-size="10.00">+ observeValueForKeyPath</text>
<text text-anchor="start" x="79" y="-106.5" font-family="Helvetica,sans-Serif" font-size="10.00">:ofObject:change:context:</text>
<text text-anchor="start" x="79" y="-95.5" font-family="Helvetica,sans-Serif" font-size="10.00">+ dealloc</text>
<text text-anchor="start" x="79" y="-84.5" font-family="Helvetica,sans-Serif" font-size="10.00">+ observable:updated</text>
<text text-anchor="start" x="79" y="-73.5" font-family="Helvetica,sans-Serif" font-size="10.00">:context:</text>
<text text-anchor="start" x="79" y="-62.5" font-family="Helvetica,sans-Serif" font-size="10.00">+ observableDeallocated</text>
<text text-anchor="start" x="79" y="-51.5" font-family="Helvetica,sans-Serif" font-size="10.00">:context:</text>
<text text-anchor="start" x="79" y="-40.5" font-family="Helvetica,sans-Serif" font-size="10.00">+ addObserver:attribute</text>
<text text-anchor="start" x="79" y="-29.5" font-family="Helvetica,sans-Serif" font-size="10.00">:context:</text>
<text text-anchor="start" x="79" y="-18.5" font-family="Helvetica,sans-Serif" font-size="10.00">+ removeObserver:attribute</text>
<text text-anchor="start" x="79" y="-7.5" font-family="Helvetica,sans-Serif" font-size="10.00">:context:</text>
</g>
<!-- Node2 -->
<g id="node2" class="node"><title>Node2</title>
<g id="a_node2"><a xlink:href="../../d7/dc4/class_n_s_object.html" target="_top" xlink:title="{NSObject\n||}">
<polygon fill="none" stroke="black" points="0,-309 0,-366 59,-366 59,-309 0,-309"/>
<text text-anchor="middle" x="29.5" y="-354" font-family="Helvetica,sans-Serif" font-size="10.00">NSObject</text>
<polyline fill="none" stroke="black" points="0,-347 59,-347 "/>
<text text-anchor="middle" x="29.5" y="-335" font-family="Helvetica,sans-Serif" font-size="10.00"> </text>
<polyline fill="none" stroke="black" points="0,-328 59,-328 "/>
<text text-anchor="middle" x="29.5" y="-316" font-family="Helvetica,sans-Serif" font-size="10.00"> </text>
</a>
</g>
</g>
<!-- Node2&#45;&gt;Node1 -->
<g id="edge1" class="edge"><title>Node2&#45;&gt;Node1</title>
<path fill="none" stroke="midnightblue" d="M49.0226,-300.005C55.9249,-287.102 64.1319,-271.76 72.7538,-255.643"/>
<polygon fill="none" stroke="midnightblue" points="45.8707,-298.477 44.2399,-308.946 52.0431,-301.779 45.8707,-298.477"/>
</g>
<!-- Node3 -->
<g id="node3" class="node"><title>Node3</title>
<g id="a_node3"><a xlink:href="../../d4/d36/protocol_i_observer-p.html" target="_top" xlink:title="{\&lt;IObserver\&gt;\n||+ observable:updated\l:context:\l+ observableDeallocated\l:context:\l}">
<polygon fill="none" stroke="black" points="77,-292.5 77,-382.5 204,-382.5 204,-292.5 77,-292.5"/>
<text text-anchor="middle" x="140.5" y="-370.5" font-family="Helvetica,sans-Serif" font-size="10.00">&lt;IObserver&gt;</text>
<polyline fill="none" stroke="black" points="77,-363.5 204,-363.5 "/>
<text text-anchor="middle" x="140.5" y="-351.5" font-family="Helvetica,sans-Serif" font-size="10.00"> </text>
<polyline fill="none" stroke="black" points="77,-344.5 204,-344.5 "/>
<text text-anchor="start" x="85" y="-332.5" font-family="Helvetica,sans-Serif" font-size="10.00">+ observable:updated</text>
<text text-anchor="start" x="85" y="-321.5" font-family="Helvetica,sans-Serif" font-size="10.00">:context:</text>
<text text-anchor="start" x="85" y="-310.5" font-family="Helvetica,sans-Serif" font-size="10.00">+ observableDeallocated</text>
<text text-anchor="start" x="85" y="-299.5" font-family="Helvetica,sans-Serif" font-size="10.00">:context:</text>
</a>
</g>
</g>
<!-- Node3&#45;&gt;Node1 -->
<g id="edge2" class="edge"><title>Node3&#45;&gt;Node1</title>
<path fill="none" stroke="midnightblue" d="M140.5,-282.467C140.5,-273.992 140.5,-264.938 140.5,-255.625"/>
<polygon fill="none" stroke="midnightblue" points="137,-282.495 140.5,-292.495 144,-282.495 137,-282.495"/>
</g>
<!-- Node4 -->
<g id="node4" class="node"><title>Node4</title>
<g id="a_node4"><a xlink:href="../../d0/d10/class_n_s_object-p.html" target="_top" xlink:title="{\&lt;NSObject\&gt;\n||}">
<polygon fill="none" stroke="black" points="180,-419.5 180,-476.5 251,-476.5 251,-419.5 180,-419.5"/>
<text text-anchor="middle" x="215.5" y="-464.5" font-family="Helvetica,sans-Serif" font-size="10.00">&lt;NSObject&gt;</text>
<polyline fill="none" stroke="black" points="180,-457.5 251,-457.5 "/>
<text text-anchor="middle" x="215.5" y="-445.5" font-family="Helvetica,sans-Serif" font-size="10.00"> </text>
<polyline fill="none" stroke="black" points="180,-438.5 251,-438.5 "/>
<text text-anchor="middle" x="215.5" y="-426.5" font-family="Helvetica,sans-Serif" font-size="10.00"> </text>
</a>
</g>
</g>
<!-- Node4&#45;&gt;Node3 -->
<g id="edge3" class="edge"><title>Node4&#45;&gt;Node3</title>
<path fill="none" stroke="midnightblue" d="M190.551,-410.907C184.274,-401.826 177.466,-391.977 170.952,-382.554"/>
<polygon fill="none" stroke="midnightblue" points="187.815,-413.104 196.38,-419.34 193.573,-409.124 187.815,-413.104"/>
</g>
<!-- Node5 -->
<g id="node5" class="node"><title>Node5</title>
<g id="a_node5"><a xlink:href="../../da/dd9/protocol_i_observable-p.html" target="_top" xlink:title="{\&lt;IObservable\&gt;\n||+ addObserver:attribute\l:context:\l+ removeObserver:attribute\l:context:\l}">
<polygon fill="none" stroke="black" points="222.5,-292.5 222.5,-382.5 360.5,-382.5 360.5,-292.5 222.5,-292.5"/>
<text text-anchor="middle" x="291.5" y="-370.5" font-family="Helvetica,sans-Serif" font-size="10.00">&lt;IObservable&gt;</text>
<polyline fill="none" stroke="black" points="222.5,-363.5 360.5,-363.5 "/>
<text text-anchor="middle" x="291.5" y="-351.5" font-family="Helvetica,sans-Serif" font-size="10.00"> </text>
<polyline fill="none" stroke="black" points="222.5,-344.5 360.5,-344.5 "/>
<text text-anchor="start" x="230.5" y="-332.5" font-family="Helvetica,sans-Serif" font-size="10.00">+ addObserver:attribute</text>
<text text-anchor="start" x="230.5" y="-321.5" font-family="Helvetica,sans-Serif" font-size="10.00">:context:</text>
<text text-anchor="start" x="230.5" y="-310.5" font-family="Helvetica,sans-Serif" font-size="10.00">+ removeObserver:attribute</text>
<text text-anchor="start" x="230.5" y="-299.5" font-family="Helvetica,sans-Serif" font-size="10.00">:context:</text>
</a>
</g>
</g>
<!-- Node4&#45;&gt;Node5 -->
<g id="edge5" class="edge"><title>Node4&#45;&gt;Node5</title>
<path fill="none" stroke="midnightblue" d="M240.782,-410.907C247.143,-401.826 254.041,-391.977 260.642,-382.554"/>
<polygon fill="none" stroke="midnightblue" points="237.745,-409.142 234.875,-419.34 243.479,-413.158 237.745,-409.142"/>
</g>
<!-- Node5&#45;&gt;Node1 -->
<g id="edge4" class="edge"><title>Node5&#45;&gt;Node1</title>
<path fill="none" stroke="midnightblue" d="M253.554,-284.356C240.329,-266.183 225.042,-245.175 210.068,-224.598"/>
<polygon fill="none" stroke="midnightblue" points="250.763,-286.468 259.477,-292.495 256.423,-282.349 250.763,-286.468"/>
</g>
</g>
</svg>
