<?xml version="1.0" encoding="UTF-8" standalone="no"?>
<!DOCTYPE svg PUBLIC "-//W3C//DTD SVG 1.1//EN"
 "http://www.w3.org/Graphics/SVG/1.1/DTD/svg11.dtd">
<!-- Generated by graphviz version 2.38.0 (20140413.2041)
 -->
<!-- Title: readable Pages: 1 -->
<svg width="658pt" height="104pt"
 viewBox="0.00 0.00 658.00 104.00" xmlns="http://www.w3.org/2000/svg" xmlns:xlink="http://www.w3.org/1999/xlink">
<g id="graph0" class="graph" transform="scale(1 1) rotate(0) translate(4 100)">
<title>readable</title>
<!-- Node1 -->
<g id="node1" class="node"><title>Node1</title>
<polygon fill="#bfbfbf" stroke="black" points="0,-57.5 0,-76.5 54,-76.5 54,-57.5 0,-57.5"/>
<text text-anchor="middle" x="27" y="-64.5" font-family="Helvetica,sans-Serif" font-size="10.00">readable</text>
</g>
<!-- Node2 -->
<g id="node2" class="node"><title>Node2</title>
<g id="a_node2"><a xlink:href="../../d2/d82/loadlib_8c.html#a9aa5433859d896c2db1a7af366e04b65" target="_top" xlink:title="searchpath">
<polygon fill="none" stroke="black" points="90,-57.5 90,-76.5 155,-76.5 155,-57.5 90,-57.5"/>
<text text-anchor="middle" x="122.5" y="-64.5" font-family="Helvetica,sans-Serif" font-size="10.00">searchpath</text>
</a>
</g>
</g>
<!-- Node1&#45;&gt;Node2 -->
<g id="edge1" class="edge"><title>Node1&#45;&gt;Node2</title>
<path fill="none" stroke="midnightblue" d="M64.1081,-67C72.6274,-67 81.6447,-67 89.945,-67"/>
<polygon fill="midnightblue" stroke="midnightblue" points="64.045,-63.5001 54.045,-67 64.0449,-70.5001 64.045,-63.5001"/>
</g>
<!-- Node3 -->
<g id="node3" class="node"><title>Node3</title>
<g id="a_node3"><a xlink:href="../../d2/d82/loadlib_8c.html#a3e9eb01c860846336b6f50d6c77448a2" target="_top" xlink:title="ll_searchpath">
<polygon fill="none" stroke="black" points="191,-76.5 191,-95.5 264,-95.5 264,-76.5 191,-76.5"/>
<text text-anchor="middle" x="227.5" y="-83.5" font-family="Helvetica,sans-Serif" font-size="10.00">ll_searchpath</text>
</a>
</g>
</g>
<!-- Node2&#45;&gt;Node3 -->
<g id="edge2" class="edge"><title>Node2&#45;&gt;Node3</title>
<path fill="none" stroke="midnightblue" d="M165.289,-74.7087C173.724,-76.2646 182.519,-77.887 190.725,-79.4008"/>
<polygon fill="midnightblue" stroke="midnightblue" points="165.713,-71.2279 155.244,-72.8557 164.443,-78.1117 165.713,-71.2279"/>
</g>
<!-- Node4 -->
<g id="node4" class="node"><title>Node4</title>
<g id="a_node4"><a xlink:href="../../d2/d82/loadlib_8c.html#af8f7333f1a59f3d7aab8c9b79b7a4ab2" target="_top" xlink:title="findfile">
<polygon fill="none" stroke="black" points="207,-38.5 207,-57.5 248,-57.5 248,-38.5 207,-38.5"/>
<text text-anchor="middle" x="227.5" y="-45.5" font-family="Helvetica,sans-Serif" font-size="10.00">findfile</text>
</a>
</g>
</g>
<!-- Node2&#45;&gt;Node4 -->
<g id="edge3" class="edge"><title>Node2&#45;&gt;Node4</title>
<path fill="none" stroke="midnightblue" d="M165.465,-59.2589C179.844,-56.6064 195.251,-53.7645 206.987,-51.5994"/>
<polygon fill="midnightblue" stroke="midnightblue" points="164.443,-55.8883 155.244,-61.1443 165.713,-62.7721 164.443,-55.8883"/>
</g>
<!-- Node5 -->
<g id="node5" class="node"><title>Node5</title>
<g id="a_node5"><a xlink:href="../../d2/d82/loadlib_8c.html#a9a915ea950c831cee2f1e7b0a3bd9005" target="_top" xlink:title="searcher_C">
<polygon fill="none" stroke="black" points="307.5,-76.5 307.5,-95.5 372.5,-95.5 372.5,-76.5 307.5,-76.5"/>
<text text-anchor="middle" x="340" y="-83.5" font-family="Helvetica,sans-Serif" font-size="10.00">searcher_C</text>
</a>
</g>
</g>
<!-- Node4&#45;&gt;Node5 -->
<g id="edge4" class="edge"><title>Node4&#45;&gt;Node5</title>
<path fill="none" stroke="midnightblue" d="M257.677,-58.0337C274.171,-63.7057 294.687,-70.761 310.986,-76.3661"/>
<polygon fill="midnightblue" stroke="midnightblue" points="258.596,-54.6485 248.001,-54.7062 256.319,-61.268 258.596,-54.6485"/>
</g>
<!-- Node8 -->
<g id="node8" class="node"><title>Node8</title>
<g id="a_node8"><a xlink:href="../../d2/d82/loadlib_8c.html#a1ec05cd98a045c271aeda9f9c6041e1c" target="_top" xlink:title="searcher_Croot">
<polygon fill="none" stroke="black" points="300,-38.5 300,-57.5 380,-57.5 380,-38.5 300,-38.5"/>
<text text-anchor="middle" x="340" y="-45.5" font-family="Helvetica,sans-Serif" font-size="10.00">searcher_Croot</text>
</a>
</g>
</g>
<!-- Node4&#45;&gt;Node8 -->
<g id="edge7" class="edge"><title>Node4&#45;&gt;Node8</title>
<path fill="none" stroke="midnightblue" d="M258.068,-48C270.808,-48 285.89,-48 299.562,-48"/>
<polygon fill="midnightblue" stroke="midnightblue" points="258.001,-44.5001 248.001,-48 258.001,-51.5001 258.001,-44.5001"/>
</g>
<!-- Node9 -->
<g id="node9" class="node"><title>Node9</title>
<g id="a_node9"><a xlink:href="../../d2/d82/loadlib_8c.html#a8b2f1d86fe37c0829143579a6b568243" target="_top" xlink:title="searcher_Lua">
<polygon fill="none" stroke="black" points="303,-0.5 303,-19.5 377,-19.5 377,-0.5 303,-0.5"/>
<text text-anchor="middle" x="340" y="-7.5" font-family="Helvetica,sans-Serif" font-size="10.00">searcher_Lua</text>
</a>
</g>
</g>
<!-- Node4&#45;&gt;Node9 -->
<g id="edge9" class="edge"><title>Node4&#45;&gt;Node9</title>
<path fill="none" stroke="midnightblue" d="M257.677,-37.9663C274.171,-32.2943 294.687,-25.239 310.986,-19.6339"/>
<polygon fill="midnightblue" stroke="midnightblue" points="256.319,-34.732 248.001,-41.2938 258.596,-41.3515 256.319,-34.732"/>
</g>
<!-- Node6 -->
<g id="node6" class="node"><title>Node6</title>
<g id="a_node6"><a xlink:href="../../d2/d82/loadlib_8c.html#a8fc66c8b852ee2960dc20797521d1d9e" target="_top" xlink:title="createsearcherstable">
<polygon fill="none" stroke="black" points="416,-38.5 416,-57.5 520,-57.5 520,-38.5 416,-38.5"/>
<text text-anchor="middle" x="468" y="-45.5" font-family="Helvetica,sans-Serif" font-size="10.00">createsearcherstable</text>
</a>
</g>
</g>
<!-- Node5&#45;&gt;Node6 -->
<g id="edge5" class="edge"><title>Node5&#45;&gt;Node6</title>
<path fill="none" stroke="midnightblue" d="M382.564,-73.4647C399.705,-68.2952 419.25,-62.4009 435.215,-57.5859"/>
<polygon fill="midnightblue" stroke="midnightblue" points="381.359,-70.1726 372.795,-76.411 383.38,-76.8744 381.359,-70.1726"/>
</g>
<!-- Node7 -->
<g id="node7" class="node"><title>Node7</title>
<g id="a_node7"><a xlink:href="../../d6/d07/lualib_8h.html#a05e0befc0439f926b6152129ab4f8dea" target="_top" xlink:title="luaopen_package">
<polygon fill="none" stroke="black" points="556,-38.5 556,-57.5 650,-57.5 650,-38.5 556,-38.5"/>
<text text-anchor="middle" x="603" y="-45.5" font-family="Helvetica,sans-Serif" font-size="10.00">luaopen_package</text>
</a>
</g>
</g>
<!-- Node6&#45;&gt;Node7 -->
<g id="edge6" class="edge"><title>Node6&#45;&gt;Node7</title>
<path fill="none" stroke="midnightblue" d="M530.056,-48C538.666,-48 547.398,-48 555.67,-48"/>
<polygon fill="midnightblue" stroke="midnightblue" points="530.041,-44.5001 520.041,-48 530.041,-51.5001 530.041,-44.5001"/>
</g>
<!-- Node8&#45;&gt;Node6 -->
<g id="edge8" class="edge"><title>Node8&#45;&gt;Node6</title>
<path fill="none" stroke="midnightblue" d="M390.206,-48C398.603,-48 407.343,-48 415.791,-48"/>
<polygon fill="midnightblue" stroke="midnightblue" points="390.177,-44.5001 380.177,-48 390.176,-51.5001 390.177,-44.5001"/>
</g>
<!-- Node9&#45;&gt;Node6 -->
<g id="edge10" class="edge"><title>Node9&#45;&gt;Node6</title>
<path fill="none" stroke="midnightblue" d="M382.564,-22.5353C399.705,-27.7048 419.25,-33.5991 435.215,-38.4141"/>
<polygon fill="midnightblue" stroke="midnightblue" points="383.38,-19.1256 372.795,-19.589 381.359,-25.8274 383.38,-19.1256"/>
</g>
</g>
</svg>
