<?xml version="1.0" encoding="UTF-8" standalone="no"?>
<!DOCTYPE svg PUBLIC "-//W3C//DTD SVG 1.1//EN"
 "http://www.w3.org/Graphics/SVG/1.1/DTD/svg11.dtd">
<!-- Generated by graphviz version 2.38.0 (20140413.2041)
 -->
<!-- Title: luaG_aritherror Pages: 1 -->
<svg width="1343pt" height="806pt"
 viewBox="0.00 0.00 1343.00 806.00" xmlns="http://www.w3.org/2000/svg" xmlns:xlink="http://www.w3.org/1999/xlink">
<g id="graph0" class="graph" transform="scale(1 1) rotate(0) translate(4 802)">
<title>luaG_aritherror</title>
<!-- Node1 -->
<g id="node1" class="node"><title>Node1</title>
<polygon fill="#bfbfbf" stroke="black" points="0,-607.5 0,-626.5 77,-626.5 77,-607.5 0,-607.5"/>
<text text-anchor="middle" x="38.5" y="-614.5" font-family="Helvetica,sans-Serif" font-size="10.00">luaG_aritherror</text>
</g>
<!-- Node2 -->
<g id="node2" class="node"><title>Node2</title>
<g id="a_node2"><a xlink:href="../../d5/dcd/lvm_8h.html#a275e261afaec876cd16944b95c955642" target="_top" xlink:title="luaV_arith">
<polygon fill="none" stroke="black" points="113,-474.5 113,-493.5 172,-493.5 172,-474.5 113,-474.5"/>
<text text-anchor="middle" x="142.5" y="-481.5" font-family="Helvetica,sans-Serif" font-size="10.00">luaV_arith</text>
</a>
</g>
</g>
<!-- Node1&#45;&gt;Node2 -->
<g id="edge1" class="edge"><title>Node1&#45;&gt;Node2</title>
<path fill="none" stroke="midnightblue" d="M53.144,-599.209C74.929,-570.803 116.852,-516.139 133.956,-493.837"/>
<polygon fill="midnightblue" stroke="midnightblue" points="50.1439,-597.37 46.8356,-607.435 55.6985,-601.63 50.1439,-597.37"/>
</g>
<!-- Node3 -->
<g id="node3" class="node"><title>Node3</title>
<g id="a_node3"><a xlink:href="../../da/dd2/lua_8h.html#ab0a8e0d4a119fa51c2785e25d5b5aa08" target="_top" xlink:title="lua_arith">
<polygon fill="none" stroke="black" points="219,-370.5 219,-389.5 271,-389.5 271,-370.5 219,-370.5"/>
<text text-anchor="middle" x="245" y="-377.5" font-family="Helvetica,sans-Serif" font-size="10.00">lua_arith</text>
</a>
</g>
</g>
<!-- Node2&#45;&gt;Node3 -->
<g id="edge2" class="edge"><title>Node2&#45;&gt;Node3</title>
<path fill="none" stroke="midnightblue" d="M154.171,-465.524C165.624,-446.922 185.267,-418.29 208,-399 212.203,-395.434 217.187,-392.277 222.086,-389.611"/>
<polygon fill="midnightblue" stroke="midnightblue" points="151.09,-463.858 148.956,-474.236 157.096,-467.454 151.09,-463.858"/>
</g>
<!-- Node4 -->
<g id="node4" class="node"><title>Node4</title>
<g id="a_node4"><a xlink:href="../../d5/dcd/lvm_8h.html#ae93565adc36c6e2157dbbd875433ede1" target="_top" xlink:title="luaV_execute">
<polygon fill="none" stroke="black" points="208,-408.5 208,-427.5 282,-427.5 282,-408.5 208,-408.5"/>
<text text-anchor="middle" x="245" y="-415.5" font-family="Helvetica,sans-Serif" font-size="10.00">luaV_execute</text>
</a>
</g>
</g>
<!-- Node2&#45;&gt;Node4 -->
<g id="edge3" class="edge"><title>Node2&#45;&gt;Node4</title>
<path fill="none" stroke="midnightblue" d="M166.876,-468.649C186.205,-455.955 213.051,-438.324 229.437,-427.564"/>
<polygon fill="midnightblue" stroke="midnightblue" points="164.767,-465.847 158.329,-474.261 168.609,-471.698 164.767,-465.847"/>
</g>
<!-- Node5 -->
<g id="node5" class="node"><title>Node5</title>
<g id="a_node5"><a xlink:href="../../d2/dd9/ldo_8h.html#a7bb0b106d4012134156e0fa240f51228" target="_top" xlink:title="luaD_call">
<polygon fill="none" stroke="black" points="318,-332.5 318,-351.5 374,-351.5 374,-332.5 318,-332.5"/>
<text text-anchor="middle" x="346" y="-339.5" font-family="Helvetica,sans-Serif" font-size="10.00">luaD_call</text>
</a>
</g>
</g>
<!-- Node4&#45;&gt;Node5 -->
<g id="edge4" class="edge"><title>Node4&#45;&gt;Node5</title>
<path fill="none" stroke="midnightblue" d="M261.523,-402.592C268.062,-398.606 275.62,-394.464 282,-390 298.919,-378.161 316.175,-362.224 328.338,-351.684"/>
<polygon fill="midnightblue" stroke="midnightblue" points="259.293,-399.874 252.927,-408.343 263.185,-405.692 259.293,-399.874"/>
</g>
<!-- Node47 -->
<g id="node47" class="node"><title>Node47</title>
<g id="a_node47"><a xlink:href="../../d3/d08/ldo_8c.html#a3baab9d298c0c32cb74a9a079d7244de" target="_top" xlink:title="unroll">
<polygon fill="none" stroke="black" points="327,-118.5 327,-137.5 365,-137.5 365,-118.5 327,-118.5"/>
<text text-anchor="middle" x="346" y="-125.5" font-family="Helvetica,sans-Serif" font-size="10.00">unroll</text>
</a>
</g>
</g>
<!-- Node4&#45;&gt;Node47 -->
<g id="edge66" class="edge"><title>Node4&#45;&gt;Node47</title>
<path fill="none" stroke="midnightblue" d="M279.427,-401.992C280.35,-401.046 281.212,-400.049 282,-399 329.677,-335.5 299.239,-301.158 318,-224 325.731,-192.204 336.763,-155.031 342.009,-137.751"/>
<polygon fill="midnightblue" stroke="midnightblue" points="277.112,-399.361 271.427,-408.301 281.447,-404.857 277.112,-399.361"/>
</g>
<!-- Node48 -->
<g id="node48" class="node"><title>Node48</title>
<g id="a_node48"><a xlink:href="../../d3/d08/ldo_8c.html#abd7632c715de5db6e7797b7fa3f7010f" target="_top" xlink:title="resume">
<polygon fill="none" stroke="black" points="425.5,-118.5 425.5,-137.5 472.5,-137.5 472.5,-118.5 425.5,-118.5"/>
<text text-anchor="middle" x="449" y="-125.5" font-family="Helvetica,sans-Serif" font-size="10.00">resume</text>
</a>
</g>
</g>
<!-- Node4&#45;&gt;Node48 -->
<g id="edge72" class="edge"><title>Node4&#45;&gt;Node48</title>
<path fill="none" stroke="midnightblue" d="M278.094,-402.591C279.478,-401.46 280.79,-400.263 282,-399 307.851,-372.006 300.535,-356.044 318,-323 355.792,-251.497 360.559,-230.004 410,-166 418.099,-155.515 428.905,-144.97 436.923,-137.658"/>
<polygon fill="midnightblue" stroke="midnightblue" points="275.909,-399.844 269.605,-408.359 279.843,-405.634 275.909,-399.844"/>
</g>
<!-- Node5&#45;&gt;Node4 -->
<g id="edge65" class="edge"><title>Node5&#45;&gt;Node4</title>
<path fill="none" stroke="midnightblue" d="M334.111,-360.063C322.093,-374.647 301.816,-394.135 282,-408 281.768,-408.162 281.535,-408.324 281.301,-408.485"/>
<polygon fill="midnightblue" stroke="midnightblue" points="337.193,-361.791 340.449,-351.709 331.616,-357.56 337.193,-361.791"/>
</g>
<!-- Node6 -->
<g id="node6" class="node"><title>Node6</title>
<g id="a_node6"><a xlink:href="../../da/dd2/lua_8h.html#aa6aba1fd89ac6f1c5ccfdfd12f826d80" target="_top" xlink:title="lua_callk">
<polygon fill="none" stroke="black" points="422.5,-175.5 422.5,-194.5 475.5,-194.5 475.5,-175.5 422.5,-175.5"/>
<text text-anchor="middle" x="449" y="-182.5" font-family="Helvetica,sans-Serif" font-size="10.00">lua_callk</text>
</a>
</g>
</g>
<!-- Node5&#45;&gt;Node6 -->
<g id="edge5" class="edge"><title>Node5&#45;&gt;Node6</title>
<path fill="none" stroke="midnightblue" d="M353.256,-322.871C362.581,-296.383 382.072,-247.966 410,-214 416.219,-206.436 424.779,-199.684 432.2,-194.602"/>
<polygon fill="midnightblue" stroke="midnightblue" points="349.896,-321.881 349.985,-332.475 356.522,-324.137 349.896,-321.881"/>
</g>
<!-- Node8 -->
<g id="node8" class="node"><title>Node8</title>
<g id="a_node8"><a xlink:href="../../df/db6/lapi_8c.html#ac3926c93fb08234f9f47e24653124910" target="_top" xlink:title="f_call">
<polygon fill="none" stroke="black" points="430,-256.5 430,-275.5 468,-275.5 468,-256.5 430,-256.5"/>
<text text-anchor="middle" x="449" y="-263.5" font-family="Helvetica,sans-Serif" font-size="10.00">f_call</text>
</a>
</g>
</g>
<!-- Node5&#45;&gt;Node8 -->
<g id="edge7" class="edge"><title>Node5&#45;&gt;Node8</title>
<path fill="none" stroke="midnightblue" d="M365.559,-325.627C377.852,-315.049 394.507,-301.218 410,-290 416.952,-284.966 424.946,-279.827 431.802,-275.603"/>
<polygon fill="midnightblue" stroke="midnightblue" points="363.066,-323.156 357.814,-332.357 367.658,-328.439 363.066,-323.156"/>
</g>
<!-- Node9 -->
<g id="node9" class="node"><title>Node9</title>
<g id="a_node9"><a xlink:href="../../da/dd2/lua_8h.html#a3c4de08aa665eaee4aabd330aa99a441" target="_top" xlink:title="lua_pcallk">
<polygon fill="none" stroke="black" points="536,-275.5 536,-294.5 595,-294.5 595,-275.5 536,-275.5"/>
<text text-anchor="middle" x="565.5" y="-282.5" font-family="Helvetica,sans-Serif" font-size="10.00">lua_pcallk</text>
</a>
</g>
</g>
<!-- Node5&#45;&gt;Node9 -->
<g id="edge11" class="edge"><title>Node5&#45;&gt;Node9</title>
<path fill="none" stroke="midnightblue" d="M383.916,-330.518C392.457,-327.959 401.526,-325.318 410,-323 453.695,-311.046 504.813,-298.813 535.91,-291.564"/>
<polygon fill="midnightblue" stroke="midnightblue" points="382.756,-327.212 374.2,-333.461 384.785,-333.912 382.756,-327.212"/>
</g>
<!-- Node12 -->
<g id="node12" class="node"><title>Node12</title>
<g id="a_node12"><a xlink:href="../../db/d46/ldebug_8h.html#acd5ef9f67a8e9d08f6540636fdbeafe6" target="_top" xlink:title="luaG_errormsg">
<polygon fill="none" stroke="black" points="410,-332.5 410,-351.5 488,-351.5 488,-332.5 410,-332.5"/>
<text text-anchor="middle" x="449" y="-339.5" font-family="Helvetica,sans-Serif" font-size="10.00">luaG_errormsg</text>
</a>
</g>
</g>
<!-- Node5&#45;&gt;Node12 -->
<g id="edge12" class="edge"><title>Node5&#45;&gt;Node12</title>
<path fill="none" stroke="midnightblue" d="M384.277,-342C392.617,-342 401.473,-342 409.848,-342"/>
<polygon fill="midnightblue" stroke="midnightblue" points="384.066,-338.5 374.066,-342 384.066,-345.5 384.066,-338.5"/>
</g>
<!-- Node39 -->
<g id="node39" class="node"><title>Node39</title>
<g id="a_node39"><a xlink:href="../../de/d27/lgc_8c.html#a929058f72c03750fa82374f6bfa639ee" target="_top" xlink:title="dothecall">
<polygon fill="none" stroke="black" points="422.5,-370.5 422.5,-389.5 475.5,-389.5 475.5,-370.5 422.5,-370.5"/>
<text text-anchor="middle" x="449" y="-377.5" font-family="Helvetica,sans-Serif" font-size="10.00">dothecall</text>
</a>
</g>
</g>
<!-- Node5&#45;&gt;Node39 -->
<g id="edge52" class="edge"><title>Node5&#45;&gt;Node39</title>
<path fill="none" stroke="midnightblue" d="M381.866,-355.118C395.225,-360.144 410.202,-365.779 422.522,-370.414"/>
<polygon fill="midnightblue" stroke="midnightblue" points="383.079,-351.835 372.487,-351.589 380.614,-358.386 383.079,-351.835"/>
</g>
<!-- Node43 -->
<g id="node43" class="node"><title>Node43</title>
<g id="a_node43"><a xlink:href="../../dd/d4a/lvm_8c.html#aa904883a58699d9c6ef4d6f0f45037f6" target="_top" xlink:title="callTM">
<polygon fill="none" stroke="black" points="427,-579.5 427,-598.5 471,-598.5 471,-579.5 427,-579.5"/>
<text text-anchor="middle" x="449" y="-586.5" font-family="Helvetica,sans-Serif" font-size="10.00">callTM</text>
</a>
</g>
</g>
<!-- Node5&#45;&gt;Node43 -->
<g id="edge56" class="edge"><title>Node5&#45;&gt;Node43</title>
<path fill="none" stroke="midnightblue" d="M354.871,-361.248C375.226,-411.028 429.063,-542.688 444.068,-579.384"/>
<polygon fill="midnightblue" stroke="midnightblue" points="357.984,-359.614 350.959,-351.683 351.505,-362.263 357.984,-359.614"/>
</g>
<!-- Node7 -->
<g id="node7" class="node"><title>Node7</title>
<g id="a_node7"><a xlink:href="../../d8/dd3/lbaselib_8c.html#a86a4e35d9c9ad4661a0dbbac3758c049" target="_top" xlink:title="luaB_dofile">
<polygon fill="none" stroke="black" points="666.5,-66.5 666.5,-85.5 728.5,-85.5 728.5,-66.5 666.5,-66.5"/>
<text text-anchor="middle" x="697.5" y="-73.5" font-family="Helvetica,sans-Serif" font-size="10.00">luaB_dofile</text>
</a>
</g>
</g>
<!-- Node6&#45;&gt;Node7 -->
<g id="edge6" class="edge"><title>Node6&#45;&gt;Node7</title>
<path fill="none" stroke="midnightblue" d="M470.113,-169.262C484.512,-158.545 504.689,-144.613 524,-135 571.602,-111.304 631.016,-93.2996 666.238,-83.7219"/>
<polygon fill="midnightblue" stroke="midnightblue" points="467.806,-166.62 461.954,-175.452 472.037,-172.196 467.806,-166.62"/>
</g>
<!-- Node8&#45;&gt;Node9 -->
<g id="edge8" class="edge"><title>Node8&#45;&gt;Node9</title>
<path fill="none" stroke="midnightblue" d="M478.312,-270.698C495.797,-273.599 518.168,-277.312 535.736,-280.227"/>
<polygon fill="midnightblue" stroke="midnightblue" points="478.581,-267.195 468.143,-269.011 477.435,-274.1 478.581,-267.195"/>
</g>
<!-- Node10 -->
<g id="node10" class="node"><title>Node10</title>
<g id="a_node10"><a xlink:href="../../d8/dd3/lbaselib_8c.html#a1fb2725eed679431d070b2e9e7abc223" target="_top" xlink:title="luaB_pcall">
<polygon fill="none" stroke="black" points="667,-256.5 667,-275.5 728,-275.5 728,-256.5 667,-256.5"/>
<text text-anchor="middle" x="697.5" y="-263.5" font-family="Helvetica,sans-Serif" font-size="10.00">luaB_pcall</text>
</a>
</g>
</g>
<!-- Node9&#45;&gt;Node10 -->
<g id="edge9" class="edge"><title>Node9&#45;&gt;Node10</title>
<path fill="none" stroke="midnightblue" d="M604.939,-279.382C624.673,-276.498 648.35,-273.037 666.683,-270.358"/>
<polygon fill="midnightblue" stroke="midnightblue" points="604.418,-275.921 595.029,-280.83 605.43,-282.847 604.418,-275.921"/>
</g>
<!-- Node11 -->
<g id="node11" class="node"><title>Node11</title>
<g id="a_node11"><a xlink:href="../../d8/dd3/lbaselib_8c.html#a5fbb0094fa1a56f0a4c2547f1ec4c5ab" target="_top" xlink:title="luaB_xpcall">
<polygon fill="none" stroke="black" points="664.5,-294.5 664.5,-313.5 730.5,-313.5 730.5,-294.5 664.5,-294.5"/>
<text text-anchor="middle" x="697.5" y="-301.5" font-family="Helvetica,sans-Serif" font-size="10.00">luaB_xpcall</text>
</a>
</g>
</g>
<!-- Node9&#45;&gt;Node11 -->
<g id="edge10" class="edge"><title>Node9&#45;&gt;Node11</title>
<path fill="none" stroke="midnightblue" d="M605.1,-290.642C623.984,-293.402 646.45,-296.685 664.382,-299.306"/>
<polygon fill="midnightblue" stroke="midnightblue" points="605.43,-287.153 595.029,-289.17 604.418,-294.079 605.43,-287.153"/>
</g>
<!-- Node13 -->
<g id="node13" class="node"><title>Node13</title>
<g id="a_node13"><a xlink:href="../../da/dd2/lua_8h.html#aae6c05ddea7bd110a3e84595ef92e601" target="_top" xlink:title="lua_error">
<polygon fill="none" stroke="black" points="539.5,-144.5 539.5,-163.5 591.5,-163.5 591.5,-144.5 539.5,-144.5"/>
<text text-anchor="middle" x="565.5" y="-151.5" font-family="Helvetica,sans-Serif" font-size="10.00">lua_error</text>
</a>
</g>
</g>
<!-- Node12&#45;&gt;Node13 -->
<g id="edge13" class="edge"><title>Node12&#45;&gt;Node13</title>
<path fill="none" stroke="midnightblue" d="M462.386,-324.017C469.952,-312.887 479.731,-298.24 488,-285 515.903,-240.323 546.899,-185.498 559.125,-163.65"/>
<polygon fill="midnightblue" stroke="midnightblue" points="459.387,-322.202 456.632,-332.432 465.165,-326.153 459.387,-322.202"/>
</g>
<!-- Node17 -->
<g id="node17" class="node"><title>Node17</title>
<g id="a_node17"><a xlink:href="../../db/d46/ldebug_8h.html#a6f27f64630215e18a11be9ba21d3c4bf" target="_top" xlink:title="luaG_runerror">
<polygon fill="none" stroke="black" points="918,-427.5 918,-446.5 991,-446.5 991,-427.5 918,-427.5"/>
<text text-anchor="middle" x="954.5" y="-434.5" font-family="Helvetica,sans-Serif" font-size="10.00">luaG_runerror</text>
</a>
</g>
</g>
<!-- Node12&#45;&gt;Node17 -->
<g id="edge18" class="edge"><title>Node12&#45;&gt;Node17</title>
<path fill="none" stroke="midnightblue" d="M481.427,-356.594C483.709,-357.99 485.926,-359.462 488,-361 506.688,-374.857 503.241,-388.497 524,-399 656.254,-465.912 840.857,-452.051 917.716,-442.336"/>
<polygon fill="midnightblue" stroke="midnightblue" points="482.906,-353.412 472.466,-351.61 479.504,-359.529 482.906,-353.412"/>
</g>
<!-- Node13&#45;&gt;Node7 -->
<g id="edge16" class="edge"><title>Node13&#45;&gt;Node7</title>
<path fill="none" stroke="midnightblue" d="M593.071,-139.08C597.795,-136.196 602.606,-133.103 607,-130 624.013,-117.986 625.334,-111.032 643,-100 651.894,-94.4462 662.291,-89.4763 671.543,-85.5196"/>
<polygon fill="midnightblue" stroke="midnightblue" points="591.05,-136.21 584.228,-144.316 594.616,-142.233 591.05,-136.21"/>
</g>
<!-- Node14 -->
<g id="node14" class="node"><title>Node14</title>
<g id="a_node14"><a xlink:href="../../da/d29/lauxlib_8h.html#a994f73d7985c30672469a260d9e86ae6" target="_top" xlink:title="luaL_error">
<polygon fill="none" stroke="red" points="669,-180.5 669,-199.5 726,-199.5 726,-180.5 669,-180.5"/>
<text text-anchor="middle" x="697.5" y="-187.5" font-family="Helvetica,sans-Serif" font-size="10.00">luaL_error</text>
</a>
</g>
</g>
<!-- Node13&#45;&gt;Node14 -->
<g id="edge14" class="edge"><title>Node13&#45;&gt;Node14</title>
<path fill="none" stroke="midnightblue" d="M601.448,-163.678C622.578,-169.529 649.141,-176.885 668.811,-182.332"/>
<polygon fill="midnightblue" stroke="midnightblue" points="602.137,-160.237 591.565,-160.941 600.269,-166.983 602.137,-160.237"/>
</g>
<!-- Node15 -->
<g id="node15" class="node"><title>Node15</title>
<g id="a_node15"><a xlink:href="../../d8/dd3/lbaselib_8c.html#a2ecfa987569d0b4c1063f3e204e42dd2" target="_top" xlink:title="luaB_error">
<polygon fill="none" stroke="black" points="668,-142.5 668,-161.5 727,-161.5 727,-142.5 668,-142.5"/>
<text text-anchor="middle" x="697.5" y="-149.5" font-family="Helvetica,sans-Serif" font-size="10.00">luaB_error</text>
</a>
</g>
</g>
<!-- Node13&#45;&gt;Node15 -->
<g id="edge15" class="edge"><title>Node13&#45;&gt;Node15</title>
<path fill="none" stroke="midnightblue" d="M601.594,-153.46C622.372,-153.14 648.364,-152.741 667.891,-152.44"/>
<polygon fill="midnightblue" stroke="midnightblue" points="601.51,-149.961 591.565,-153.614 601.618,-156.96 601.51,-149.961"/>
</g>
<!-- Node16 -->
<g id="node16" class="node"><title>Node16</title>
<g id="a_node16"><a xlink:href="../../df/d2d/lcorolib_8c.html#a777abb20385a69ce4787f72bd90375a7" target="_top" xlink:title="luaB_auxwrap">
<polygon fill="none" stroke="red" points="795,-66.5 795,-85.5 875,-85.5 875,-66.5 795,-66.5"/>
<text text-anchor="middle" x="835" y="-73.5" font-family="Helvetica,sans-Serif" font-size="10.00">luaB_auxwrap</text>
</a>
</g>
</g>
<!-- Node13&#45;&gt;Node16 -->
<g id="edge17" class="edge"><title>Node13&#45;&gt;Node16</title>
<path fill="none" stroke="midnightblue" d="M601.442,-143.811C653.462,-128.643 750.573,-100.326 801.277,-85.5418"/>
<polygon fill="midnightblue" stroke="midnightblue" points="600.286,-140.502 591.666,-146.662 602.246,-147.223 600.286,-140.502"/>
</g>
<!-- Node17&#45;&gt;Node4 -->
<g id="edge51" class="edge"><title>Node17&#45;&gt;Node4</title>
<path fill="none" stroke="midnightblue" d="M907.625,-431.517C856.635,-425.905 771.804,-418 698.5,-418 448,-418 448,-418 448,-418 389.96,-418 322.54,-418 282.125,-418"/>
<polygon fill="midnightblue" stroke="midnightblue" points="907.34,-435.007 917.667,-432.641 908.119,-428.05 907.34,-435.007"/>
</g>
<!-- Node17&#45;&gt;Node5 -->
<g id="edge36" class="edge"><title>Node17&#45;&gt;Node5</title>
<path fill="none" stroke="midnightblue" d="M943.185,-418.817C912.839,-367.967 818.418,-228 698.5,-228 564.5,-228 564.5,-228 564.5,-228 495.316,-228 468.843,-210.615 410,-247 376.841,-267.504 357.408,-312.708 350.213,-332.455"/>
<polygon fill="midnightblue" stroke="midnightblue" points="940.178,-420.607 948.244,-427.477 946.222,-417.076 940.178,-420.607"/>
</g>
<!-- Node18 -->
<g id="node18" class="node"><title>Node18</title>
<g id="a_node18"><a xlink:href="../../da/dd2/lua_8h.html#a77807056ba032d64b2def2b57dc53d53" target="_top" xlink:title="lua_pushnumber">
<polygon fill="none" stroke="red" points="1027,-370.5 1027,-389.5 1115,-389.5 1115,-370.5 1027,-370.5"/>
<text text-anchor="middle" x="1071" y="-377.5" font-family="Helvetica,sans-Serif" font-size="10.00">lua_pushnumber</text>
</a>
</g>
</g>
<!-- Node17&#45;&gt;Node18 -->
<g id="edge19" class="edge"><title>Node17&#45;&gt;Node18</title>
<path fill="none" stroke="midnightblue" d="M981.785,-422.444C995.197,-415.168 1011.84,-406.366 1027,-399 1033.61,-395.79 1040.88,-392.489 1047.54,-389.557"/>
<polygon fill="midnightblue" stroke="midnightblue" points="979.755,-419.565 972.657,-427.431 983.111,-425.708 979.755,-419.565"/>
</g>
<!-- Node19 -->
<g id="node19" class="node"><title>Node19</title>
<g id="a_node19"><a xlink:href="../../db/d46/ldebug_8h.html#a375161dd1513420561f20f0b4c7b7e66" target="_top" xlink:title="luaG_typeerror">
<polygon fill="none" stroke="red" points="1031.5,-674.5 1031.5,-693.5 1110.5,-693.5 1110.5,-674.5 1031.5,-674.5"/>
<text text-anchor="middle" x="1071" y="-681.5" font-family="Helvetica,sans-Serif" font-size="10.00">luaG_typeerror</text>
</a>
</g>
</g>
<!-- Node17&#45;&gt;Node19 -->
<g id="edge20" class="edge"><title>Node17&#45;&gt;Node19</title>
<path fill="none" stroke="midnightblue" d="M961.28,-456.299C971.942,-490.686 996.431,-564.355 1027,-622 1037.43,-641.674 1052.97,-662.559 1062.23,-674.371"/>
<polygon fill="midnightblue" stroke="midnightblue" points="964.582,-455.127 958.315,-446.585 957.887,-457.171 964.582,-455.127"/>
</g>
<!-- Node20 -->
<g id="node20" class="node"><title>Node20</title>
<g id="a_node20"><a xlink:href="../../d5/dcd/lvm_8h.html#adacdbccc9d8fab937a1b0dc058c8da12" target="_top" xlink:title="luaV_gettable">
<polygon fill="none" stroke="black" points="1151,-655.5 1151,-674.5 1226,-674.5 1226,-655.5 1151,-655.5"/>
<text text-anchor="middle" x="1188.5" y="-662.5" font-family="Helvetica,sans-Serif" font-size="10.00">luaV_gettable</text>
</a>
</g>
</g>
<!-- Node17&#45;&gt;Node20 -->
<g id="edge46" class="edge"><title>Node17&#45;&gt;Node20</title>
<path fill="none" stroke="midnightblue" d="M964.372,-455.809C976.289,-479.762 999.213,-521.57 1027,-551 1071.46,-598.093 1138.05,-637.932 1169.64,-655.452"/>
<polygon fill="midnightblue" stroke="midnightblue" points="967.476,-454.188 959.957,-446.724 961.181,-457.248 967.476,-454.188"/>
</g>
<!-- Node24 -->
<g id="node24" class="node"><title>Node24</title>
<g id="a_node24"><a xlink:href="../../d5/dcd/lvm_8h.html#a5885d48fd66eb236f8b8f6e4938cbcce" target="_top" xlink:title="luaV_settable">
<polygon fill="none" stroke="black" points="1151,-332.5 1151,-351.5 1226,-351.5 1226,-332.5 1151,-332.5"/>
<text text-anchor="middle" x="1188.5" y="-339.5" font-family="Helvetica,sans-Serif" font-size="10.00">luaV_settable</text>
</a>
</g>
</g>
<!-- Node17&#45;&gt;Node24 -->
<g id="edge47" class="edge"><title>Node17&#45;&gt;Node24</title>
<path fill="none" stroke="midnightblue" d="M961.171,-417.495C970.163,-390.603 990.527,-343.178 1027,-323 1072.18,-298.008 1135.33,-318.757 1167.27,-332.406"/>
<polygon fill="midnightblue" stroke="midnightblue" points="957.743,-416.727 958.089,-427.316 964.422,-418.823 957.743,-416.727"/>
</g>
<!-- Node29 -->
<g id="node29" class="node"><title>Node29</title>
<g id="a_node29"><a xlink:href="../../db/d46/ldebug_8h.html#a7ae9c3f6343c93b4a8bb80e68706a6a3" target="_top" xlink:title="luaG_ordererror">
<polygon fill="none" stroke="red" points="1031,-256.5 1031,-275.5 1111,-275.5 1111,-256.5 1031,-256.5"/>
<text text-anchor="middle" x="1071" y="-263.5" font-family="Helvetica,sans-Serif" font-size="10.00">luaG_ordererror</text>
</a>
</g>
</g>
<!-- Node17&#45;&gt;Node29 -->
<g id="edge34" class="edge"><title>Node17&#45;&gt;Node29</title>
<path fill="none" stroke="midnightblue" d="M960.853,-417.399C970.01,-386.945 991.235,-327.84 1027,-290 1032.52,-284.16 1039.78,-279.372 1046.77,-275.652"/>
<polygon fill="midnightblue" stroke="midnightblue" points="957.426,-416.652 958.021,-427.23 964.153,-418.589 957.426,-416.652"/>
</g>
<!-- Node30 -->
<g id="node30" class="node"><title>Node30</title>
<g id="a_node30"><a xlink:href="../../d2/dd9/ldo_8h.html#ab83418a7edbfafe87886f156aa6a9988" target="_top" xlink:title="luaD_growstack">
<polygon fill="none" stroke="red" points="1028,-218.5 1028,-237.5 1114,-237.5 1114,-218.5 1028,-218.5"/>
<text text-anchor="middle" x="1071" y="-225.5" font-family="Helvetica,sans-Serif" font-size="10.00">luaD_growstack</text>
</a>
</g>
</g>
<!-- Node17&#45;&gt;Node30 -->
<g id="edge35" class="edge"><title>Node17&#45;&gt;Node30</title>
<path fill="none" stroke="midnightblue" d="M957.866,-417.142C963.356,-379.347 980.263,-296.438 1027,-247 1030.59,-243.204 1035.07,-240.119 1039.77,-237.626"/>
<polygon fill="midnightblue" stroke="midnightblue" points="954.36,-416.962 956.509,-427.336 961.298,-417.886 954.36,-416.962"/>
</g>
<!-- Node31 -->
<g id="node31" class="node"><title>Node31</title>
<g id="a_node31"><a xlink:href="../../da/dd2/lua_8h.html#ab717ff0354e9c39199b16a1c412fa252" target="_top" xlink:title="lua_yieldk">
<polygon fill="none" stroke="black" points="1042,-180.5 1042,-199.5 1100,-199.5 1100,-180.5 1042,-180.5"/>
<text text-anchor="middle" x="1071" y="-187.5" font-family="Helvetica,sans-Serif" font-size="10.00">lua_yieldk</text>
</a>
</g>
</g>
<!-- Node17&#45;&gt;Node31 -->
<g id="edge37" class="edge"><title>Node17&#45;&gt;Node31</title>
<path fill="none" stroke="midnightblue" d="M956.365,-417.408C959.273,-374.391 971.935,-270.616 1027,-209 1031.02,-204.497 1036.32,-201.009 1041.8,-198.327"/>
<polygon fill="midnightblue" stroke="midnightblue" points="952.87,-417.228 955.796,-427.411 959.859,-417.626 952.87,-417.228"/>
</g>
<!-- Node32 -->
<g id="node32" class="node"><title>Node32</title>
<g id="a_node32"><a xlink:href="../../d7/d3e/lmem_8h.html#a9adb7e11025b0b91454ae7949bc8d370" target="_top" xlink:title="luaM_growaux_">
<polygon fill="none" stroke="black" points="1028,-522.5 1028,-541.5 1114,-541.5 1114,-522.5 1028,-522.5"/>
<text text-anchor="middle" x="1071" y="-529.5" font-family="Helvetica,sans-Serif" font-size="10.00">luaM_growaux_</text>
</a>
</g>
</g>
<!-- Node17&#45;&gt;Node32 -->
<g id="edge38" class="edge"><title>Node17&#45;&gt;Node32</title>
<path fill="none" stroke="midnightblue" d="M968.909,-454.954C982.17,-471.726 1003.79,-496.574 1027,-513 1032.06,-516.584 1037.91,-519.714 1043.63,-522.345"/>
<polygon fill="midnightblue" stroke="midnightblue" points="971.324,-452.354 962.445,-446.573 965.781,-456.629 971.324,-452.354"/>
</g>
<!-- Node33 -->
<g id="node33" class="node"><title>Node33</title>
<g id="a_node33"><a xlink:href="../../d7/d3e/lmem_8h.html#a23b8703b7b50e1c5dd37d41569a09a9a" target="_top" xlink:title="luaM_toobig">
<polygon fill="none" stroke="red" points="1037,-484.5 1037,-503.5 1105,-503.5 1105,-484.5 1037,-484.5"/>
<text text-anchor="middle" x="1071" y="-491.5" font-family="Helvetica,sans-Serif" font-size="10.00">luaM_toobig</text>
</a>
</g>
</g>
<!-- Node17&#45;&gt;Node33 -->
<g id="edge39" class="edge"><title>Node17&#45;&gt;Node33</title>
<path fill="none" stroke="midnightblue" d="M981.785,-451.556C995.197,-458.832 1011.84,-467.634 1027,-475 1033.61,-478.21 1040.88,-481.511 1047.54,-484.443"/>
<polygon fill="midnightblue" stroke="midnightblue" points="983.111,-448.292 972.657,-446.569 979.755,-454.435 983.111,-448.292"/>
</g>
<!-- Node34 -->
<g id="node34" class="node"><title>Node34</title>
<g id="a_node34"><a xlink:href="../../d2/d51/lobject_8h.html#a0d323372aa00f179e1c070d305f879f3" target="_top" xlink:title="luaO_pushvfstring">
<polygon fill="none" stroke="red" points="788,-484.5 788,-503.5 882,-503.5 882,-484.5 788,-484.5"/>
<text text-anchor="middle" x="835" y="-491.5" font-family="Helvetica,sans-Serif" font-size="10.00">luaO_pushvfstring</text>
</a>
</g>
</g>
<!-- Node17&#45;&gt;Node34 -->
<g id="edge40" class="edge"><title>Node17&#45;&gt;Node34</title>
<path fill="none" stroke="midnightblue" d="M933.26,-452.064C915.438,-462.368 889.166,-475.4 868.418,-484.381"/>
<polygon fill="midnightblue" stroke="midnightblue" points="935.452,-454.829 942.203,-446.664 931.833,-448.837 935.452,-454.829"/>
</g>
<!-- Node35 -->
<g id="node35" class="node"><title>Node35</title>
<g id="a_node35"><a xlink:href="../../dc/d1e/ltable_8c.html#a4c78714b16a133fb409681f8ca4240be" target="_top" xlink:title="findindex">
<polygon fill="none" stroke="red" points="1044.5,-446.5 1044.5,-465.5 1097.5,-465.5 1097.5,-446.5 1044.5,-446.5"/>
<text text-anchor="middle" x="1071" y="-453.5" font-family="Helvetica,sans-Serif" font-size="10.00">findindex</text>
</a>
</g>
</g>
<!-- Node17&#45;&gt;Node35 -->
<g id="edge42" class="edge"><title>Node17&#45;&gt;Node35</title>
<path fill="none" stroke="midnightblue" d="M1001.05,-444.558C1015.74,-446.996 1031.5,-449.611 1044.24,-451.725"/>
<polygon fill="midnightblue" stroke="midnightblue" points="1001.54,-441.092 991.101,-442.908 1000.39,-447.997 1001.54,-441.092"/>
</g>
<!-- Node36 -->
<g id="node36" class="node"><title>Node36</title>
<g id="a_node36"><a xlink:href="../../dc/d1e/ltable_8c.html#ad5ff1c819f2ab4e96904822b915ae290" target="_top" xlink:title="setnodevector">
<polygon fill="none" stroke="red" points="1033.5,-408.5 1033.5,-427.5 1108.5,-427.5 1108.5,-408.5 1033.5,-408.5"/>
<text text-anchor="middle" x="1071" y="-415.5" font-family="Helvetica,sans-Serif" font-size="10.00">setnodevector</text>
</a>
</g>
</g>
<!-- Node17&#45;&gt;Node36 -->
<g id="edge43" class="edge"><title>Node17&#45;&gt;Node36</title>
<path fill="none" stroke="midnightblue" d="M1001.11,-429.432C1011.78,-427.662 1023.01,-425.798 1033.23,-424.101"/>
<polygon fill="midnightblue" stroke="midnightblue" points="1000.39,-426.003 991.101,-431.092 1001.54,-432.908 1000.39,-426.003"/>
</g>
<!-- Node37 -->
<g id="node37" class="node"><title>Node37</title>
<g id="a_node37"><a xlink:href="../../d3/d44/ltable_8h.html#a61547e63b2d74aa68da53a7fd235e77e" target="_top" xlink:title="luaH_newkey">
<polygon fill="none" stroke="red" points="1033.5,-332.5 1033.5,-351.5 1108.5,-351.5 1108.5,-332.5 1033.5,-332.5"/>
<text text-anchor="middle" x="1071" y="-339.5" font-family="Helvetica,sans-Serif" font-size="10.00">luaH_newkey</text>
</a>
</g>
</g>
<!-- Node17&#45;&gt;Node37 -->
<g id="edge44" class="edge"><title>Node17&#45;&gt;Node37</title>
<path fill="none" stroke="midnightblue" d="M968.909,-419.046C982.17,-402.274 1003.79,-377.426 1027,-361 1032.06,-357.416 1037.91,-354.286 1043.63,-351.655"/>
<polygon fill="midnightblue" stroke="midnightblue" points="965.781,-417.371 962.445,-427.427 971.324,-421.646 965.781,-417.371"/>
</g>
<!-- Node38 -->
<g id="node38" class="node"><title>Node38</title>
<g id="a_node38"><a xlink:href="../../d5/dcd/lvm_8h.html#aee84bfc563cb4bdd21a013218a289aa7" target="_top" xlink:title="luaV_concat">
<polygon fill="none" stroke="red" points="663,-503.5 663,-522.5 732,-522.5 732,-503.5 663,-503.5"/>
<text text-anchor="middle" x="697.5" y="-510.5" font-family="Helvetica,sans-Serif" font-size="10.00">luaV_concat</text>
</a>
</g>
</g>
<!-- Node17&#45;&gt;Node38 -->
<g id="edge48" class="edge"><title>Node17&#45;&gt;Node38</title>
<path fill="none" stroke="midnightblue" d="M942.701,-455.284C930.588,-473.796 909.047,-501.31 882,-513 833.31,-534.044 770.333,-527.714 732.25,-520.716"/>
<polygon fill="midnightblue" stroke="midnightblue" points="945.824,-456.891 948.155,-446.556 939.888,-453.181 945.824,-456.891"/>
</g>
<!-- Node19&#45;&gt;Node1 -->
<g id="edge21" class="edge"><title>Node19&#45;&gt;Node1</title>
<path fill="none" stroke="midnightblue" d="M1021.22,-684C973.887,-684 900.018,-684 836,-684 244,-684 244,-684 244,-684 171.147,-684 90.627,-645.126 56.3906,-626.599"/>
<polygon fill="midnightblue" stroke="midnightblue" points="1021.49,-687.5 1031.49,-684 1021.49,-680.5 1021.49,-687.5"/>
</g>
<!-- Node19&#45;&gt;Node20 -->
<g id="edge22" class="edge"><title>Node19&#45;&gt;Node20</title>
<path fill="none" stroke="midnightblue" d="M1120.73,-675.983C1130.86,-674.317 1141.37,-672.588 1150.97,-671.009"/>
<polygon fill="midnightblue" stroke="midnightblue" points="1120.08,-672.544 1110.78,-677.62 1121.22,-679.451 1120.08,-672.544"/>
</g>
<!-- Node19&#45;&gt;Node24 -->
<g id="edge27" class="edge"><title>Node19&#45;&gt;Node24</title>
<path fill="none" stroke="midnightblue" d="M1080.8,-665.33C1089.99,-645.435 1104.5,-612.889 1115,-584 1147.21,-495.375 1176.45,-384.921 1185,-351.814"/>
<polygon fill="midnightblue" stroke="midnightblue" points="1077.58,-663.952 1076.52,-674.494 1083.92,-666.909 1077.58,-663.952"/>
</g>
<!-- Node28 -->
<g id="node28" class="node"><title>Node28</title>
<g id="a_node28"><a xlink:href="../../d5/dcd/lvm_8h.html#a414b4b487239935324f2f16e1e7715db" target="_top" xlink:title="luaV_objlen">
<polygon fill="none" stroke="red" points="1155,-750.5 1155,-769.5 1222,-769.5 1222,-750.5 1155,-750.5"/>
<text text-anchor="middle" x="1188.5" y="-757.5" font-family="Helvetica,sans-Serif" font-size="10.00">luaV_objlen</text>
</a>
</g>
</g>
<!-- Node19&#45;&gt;Node28 -->
<g id="edge32" class="edge"><title>Node19&#45;&gt;Node28</title>
<path fill="none" stroke="midnightblue" d="M1095.19,-699.259C1118.42,-714.542 1153.44,-737.588 1172.99,-750.453"/>
<polygon fill="midnightblue" stroke="midnightblue" points="1096.91,-696.199 1086.63,-693.625 1093.06,-702.046 1096.91,-696.199"/>
</g>
<!-- Node20&#45;&gt;Node4 -->
<g id="edge26" class="edge"><title>Node20&#45;&gt;Node4</title>
<path fill="none" stroke="midnightblue" d="M1164.4,-679.888C1150.61,-688.057 1132.42,-697.597 1115,-703 1046.81,-724.143 1026.89,-722 955.5,-722 448,-722 448,-722 448,-722 303.207,-722 255.96,-479.805 247.48,-427.77"/>
<polygon fill="midnightblue" stroke="midnightblue" points="1166.48,-682.719 1173.19,-674.519 1162.83,-676.746 1166.48,-682.719"/>
</g>
<!-- Node21 -->
<g id="node21" class="node"><title>Node21</title>
<g id="a_node21"><a xlink:href="../../da/dd2/lua_8h.html#a2b4a9010af0545ae0f822d7f081370d0" target="_top" xlink:title="lua_getglobal">
<polygon fill="none" stroke="red" points="1262,-693.5 1262,-712.5 1335,-712.5 1335,-693.5 1262,-693.5"/>
<text text-anchor="middle" x="1298.5" y="-700.5" font-family="Helvetica,sans-Serif" font-size="10.00">lua_getglobal</text>
</a>
</g>
</g>
<!-- Node20&#45;&gt;Node21 -->
<g id="edge23" class="edge"><title>Node20&#45;&gt;Node21</title>
<path fill="none" stroke="midnightblue" d="M1226.37,-677.972C1240.76,-683.034 1256.95,-688.734 1270.26,-693.414"/>
<polygon fill="midnightblue" stroke="midnightblue" points="1227.35,-674.607 1216.75,-674.589 1225.02,-681.21 1227.35,-674.607"/>
</g>
<!-- Node22 -->
<g id="node22" class="node"><title>Node22</title>
<g id="a_node22"><a xlink:href="../../da/dd2/lua_8h.html#a8d82fa181a3003e9a304040c0bbed9ac" target="_top" xlink:title="lua_gettable">
<polygon fill="none" stroke="red" points="1264.5,-655.5 1264.5,-674.5 1332.5,-674.5 1332.5,-655.5 1264.5,-655.5"/>
<text text-anchor="middle" x="1298.5" y="-662.5" font-family="Helvetica,sans-Serif" font-size="10.00">lua_gettable</text>
</a>
</g>
</g>
<!-- Node20&#45;&gt;Node22 -->
<g id="edge24" class="edge"><title>Node20&#45;&gt;Node22</title>
<path fill="none" stroke="midnightblue" d="M1236.15,-665C1245.6,-665 1255.36,-665 1264.24,-665"/>
<polygon fill="midnightblue" stroke="midnightblue" points="1236.06,-661.5 1226.06,-665 1236.06,-668.5 1236.06,-661.5"/>
</g>
<!-- Node23 -->
<g id="node23" class="node"><title>Node23</title>
<g id="a_node23"><a xlink:href="../../da/dd2/lua_8h.html#ac3112bb28ba217adc46f13da8e9e6585" target="_top" xlink:title="lua_getfield">
<polygon fill="none" stroke="red" points="1267,-617.5 1267,-636.5 1330,-636.5 1330,-617.5 1267,-617.5"/>
<text text-anchor="middle" x="1298.5" y="-624.5" font-family="Helvetica,sans-Serif" font-size="10.00">lua_getfield</text>
</a>
</g>
</g>
<!-- Node20&#45;&gt;Node23 -->
<g id="edge25" class="edge"><title>Node20&#45;&gt;Node23</title>
<path fill="none" stroke="midnightblue" d="M1226.37,-652.028C1240.76,-646.966 1256.95,-641.266 1270.26,-636.586"/>
<polygon fill="midnightblue" stroke="midnightblue" points="1225.02,-648.79 1216.75,-655.411 1227.35,-655.393 1225.02,-648.79"/>
</g>
<!-- Node24&#45;&gt;Node4 -->
<g id="edge31" class="edge"><title>Node24&#45;&gt;Node4</title>
<path fill="none" stroke="midnightblue" d="M1184.17,-322.429C1170.59,-249.816 1112.48,-0 955.5,-0 448,-0 448,-0 448,-0 372.6,-0 354.034,-42.7681 318,-109 255.93,-223.086 355.799,-292.126 282,-399 279.35,-402.838 275.673,-405.96 271.676,-408.48"/>
<polygon fill="midnightblue" stroke="midnightblue" points="1180.77,-323.271 1185.98,-332.496 1187.66,-322.035 1180.77,-323.271"/>
</g>
<!-- Node25 -->
<g id="node25" class="node"><title>Node25</title>
<g id="a_node25"><a xlink:href="../../da/dd2/lua_8h.html#ac0ebe7d753b81f6249dde8cf0b8ea997" target="_top" xlink:title="lua_setglobal">
<polygon fill="none" stroke="red" points="1262,-370.5 1262,-389.5 1335,-389.5 1335,-370.5 1262,-370.5"/>
<text text-anchor="middle" x="1298.5" y="-377.5" font-family="Helvetica,sans-Serif" font-size="10.00">lua_setglobal</text>
</a>
</g>
</g>
<!-- Node24&#45;&gt;Node25 -->
<g id="edge28" class="edge"><title>Node24&#45;&gt;Node25</title>
<path fill="none" stroke="midnightblue" d="M1226.37,-354.972C1240.76,-360.034 1256.95,-365.734 1270.26,-370.414"/>
<polygon fill="midnightblue" stroke="midnightblue" points="1227.35,-351.607 1216.75,-351.589 1225.02,-358.21 1227.35,-351.607"/>
</g>
<!-- Node26 -->
<g id="node26" class="node"><title>Node26</title>
<g id="a_node26"><a xlink:href="../../da/dd2/lua_8h.html#aeda173d104e3a566ccaac89a1f64a5eb" target="_top" xlink:title="lua_settable">
<polygon fill="none" stroke="red" points="1264.5,-332.5 1264.5,-351.5 1332.5,-351.5 1332.5,-332.5 1264.5,-332.5"/>
<text text-anchor="middle" x="1298.5" y="-339.5" font-family="Helvetica,sans-Serif" font-size="10.00">lua_settable</text>
</a>
</g>
</g>
<!-- Node24&#45;&gt;Node26 -->
<g id="edge29" class="edge"><title>Node24&#45;&gt;Node26</title>
<path fill="none" stroke="midnightblue" d="M1236.15,-342C1245.6,-342 1255.36,-342 1264.24,-342"/>
<polygon fill="midnightblue" stroke="midnightblue" points="1236.06,-338.5 1226.06,-342 1236.06,-345.5 1236.06,-338.5"/>
</g>
<!-- Node27 -->
<g id="node27" class="node"><title>Node27</title>
<g id="a_node27"><a xlink:href="../../da/dd2/lua_8h.html#a9580a15c141cbe4bf2a63fea625c3878" target="_top" xlink:title="lua_setfield">
<polygon fill="none" stroke="red" points="1267,-294.5 1267,-313.5 1330,-313.5 1330,-294.5 1267,-294.5"/>
<text text-anchor="middle" x="1298.5" y="-301.5" font-family="Helvetica,sans-Serif" font-size="10.00">lua_setfield</text>
</a>
</g>
</g>
<!-- Node24&#45;&gt;Node27 -->
<g id="edge30" class="edge"><title>Node24&#45;&gt;Node27</title>
<path fill="none" stroke="midnightblue" d="M1226.37,-329.028C1240.76,-323.966 1256.95,-318.266 1270.26,-313.586"/>
<polygon fill="midnightblue" stroke="midnightblue" points="1225.02,-325.79 1216.75,-332.411 1227.35,-332.393 1225.02,-325.79"/>
</g>
<!-- Node28&#45;&gt;Node4 -->
<g id="edge33" class="edge"><title>Node28&#45;&gt;Node4</title>
<path fill="none" stroke="midnightblue" d="M1144.76,-771.273C1098.47,-782.476 1022.28,-798 955.5,-798 448,-798 448,-798 448,-798 275.037,-798 249.708,-487.254 246.444,-427.775"/>
<polygon fill="midnightblue" stroke="midnightblue" points="1145.87,-774.606 1154.74,-768.813 1144.19,-767.81 1145.87,-774.606"/>
</g>
<!-- Node34&#45;&gt;Node17 -->
<g id="edge41" class="edge"><title>Node34&#45;&gt;Node17</title>
<path fill="none" stroke="midnightblue" d="M856.238,-478.937C874.124,-468.596 900.524,-455.506 921.308,-446.521"/>
<polygon fill="midnightblue" stroke="midnightblue" points="854.016,-476.19 847.266,-484.356 857.636,-482.181 854.016,-476.19"/>
</g>
<!-- Node37&#45;&gt;Node24 -->
<g id="edge45" class="edge"><title>Node37&#45;&gt;Node24</title>
<path fill="none" stroke="midnightblue" d="M1118.61,-342C1129.32,-342 1140.57,-342 1150.8,-342"/>
<polygon fill="midnightblue" stroke="midnightblue" points="1118.54,-338.5 1108.54,-342 1118.54,-345.5 1118.54,-338.5"/>
</g>
<!-- Node38&#45;&gt;Node4 -->
<g id="edge50" class="edge"><title>Node38&#45;&gt;Node4</title>
<path fill="none" stroke="midnightblue" d="M652.682,-503.76C563.851,-485.027 364.048,-442.894 282.105,-425.614"/>
<polygon fill="midnightblue" stroke="midnightblue" points="652.19,-507.233 662.697,-505.872 653.634,-500.384 652.19,-507.233"/>
</g>
<!-- Node38&#45;&gt;Node34 -->
<g id="edge49" class="edge"><title>Node38&#45;&gt;Node34</title>
<path fill="none" stroke="midnightblue" d="M742.554,-506.823C757.042,-504.791 773.183,-502.528 787.823,-500.475"/>
<polygon fill="midnightblue" stroke="midnightblue" points="741.76,-503.4 732.343,-508.255 742.732,-510.332 741.76,-503.4"/>
</g>
<!-- Node40 -->
<g id="node40" class="node"><title>Node40</title>
<g id="a_node40"><a xlink:href="../../de/d27/lgc_8c.html#ab9ec6b56580b9e66f41743e393e7e033" target="_top" xlink:title="GCTM">
<polygon fill="none" stroke="black" points="542.5,-370.5 542.5,-389.5 588.5,-389.5 588.5,-370.5 542.5,-370.5"/>
<text text-anchor="middle" x="565.5" y="-377.5" font-family="Helvetica,sans-Serif" font-size="10.00">GCTM</text>
</a>
</g>
</g>
<!-- Node39&#45;&gt;Node40 -->
<g id="edge53" class="edge"><title>Node39&#45;&gt;Node40</title>
<path fill="none" stroke="midnightblue" d="M485.838,-380C504.347,-380 526.344,-380 542.364,-380"/>
<polygon fill="midnightblue" stroke="midnightblue" points="485.696,-376.5 475.696,-380 485.696,-383.5 485.696,-376.5"/>
</g>
<!-- Node41 -->
<g id="node41" class="node"><title>Node41</title>
<g id="a_node41"><a xlink:href="../../de/d27/lgc_8c.html#a74f50e6006422d43686521fe765152dd" target="_top" xlink:title="callallpendingfinalizers">
<polygon fill="none" stroke="red" points="643,-332.5 643,-351.5 752,-351.5 752,-332.5 643,-332.5"/>
<text text-anchor="middle" x="697.5" y="-339.5" font-family="Helvetica,sans-Serif" font-size="10.00">callallpendingfinalizers</text>
</a>
</g>
</g>
<!-- Node40&#45;&gt;Node41 -->
<g id="edge54" class="edge"><title>Node40&#45;&gt;Node41</title>
<path fill="none" stroke="midnightblue" d="M598.343,-370.692C618.153,-364.901 643.576,-357.47 663.585,-351.621"/>
<polygon fill="midnightblue" stroke="midnightblue" points="597.169,-367.389 588.553,-373.554 599.133,-374.107 597.169,-367.389"/>
</g>
<!-- Node42 -->
<g id="node42" class="node"><title>Node42</title>
<g id="a_node42"><a xlink:href="../../dc/d9c/lgc_8h.html#a19359957605d7c8eaf70803e5b77361f" target="_top" xlink:title="luaC_forcestep">
<polygon fill="none" stroke="red" points="657.5,-370.5 657.5,-389.5 737.5,-389.5 737.5,-370.5 657.5,-370.5"/>
<text text-anchor="middle" x="697.5" y="-377.5" font-family="Helvetica,sans-Serif" font-size="10.00">luaC_forcestep</text>
</a>
</g>
</g>
<!-- Node40&#45;&gt;Node42 -->
<g id="edge55" class="edge"><title>Node40&#45;&gt;Node42</title>
<path fill="none" stroke="midnightblue" d="M598.716,-380C616.499,-380 638.717,-380 657.479,-380"/>
<polygon fill="midnightblue" stroke="midnightblue" points="598.553,-376.5 588.553,-380 598.553,-383.5 598.553,-376.5"/>
</g>
<!-- Node43&#45;&gt;Node20 -->
<g id="edge57" class="edge"><title>Node43&#45;&gt;Node20</title>
<path fill="none" stroke="midnightblue" d="M481.53,-592.249C600.678,-604.527 1023.16,-648.064 1150.75,-661.212"/>
<polygon fill="midnightblue" stroke="midnightblue" points="481.583,-588.736 471.277,-591.193 480.865,-595.699 481.583,-588.736"/>
</g>
<!-- Node43&#45;&gt;Node24 -->
<g id="edge58" class="edge"><title>Node43&#45;&gt;Node24</title>
<path fill="none" stroke="midnightblue" d="M481.142,-585.055C527.848,-579.488 618.85,-570 696.5,-570 696.5,-570 696.5,-570 955.5,-570 1026.89,-570 1059.39,-595.763 1115,-551 1179.62,-498.984 1186.81,-385.955 1187.48,-351.903"/>
<polygon fill="midnightblue" stroke="midnightblue" points="480.566,-581.599 471.061,-586.278 481.41,-588.548 480.566,-581.599"/>
</g>
<!-- Node43&#45;&gt;Node28 -->
<g id="edge64" class="edge"><title>Node43&#45;&gt;Node28</title>
<path fill="none" stroke="midnightblue" d="M462.795,-606.73C495.995,-650.469 589.787,-760 696.5,-760 696.5,-760 696.5,-760 955.5,-760 1026.59,-760 1109.93,-760 1154.84,-760"/>
<polygon fill="midnightblue" stroke="midnightblue" points="465.587,-604.619 456.811,-598.684 459.97,-608.797 465.587,-604.619"/>
</g>
<!-- Node44 -->
<g id="node44" class="node"><title>Node44</title>
<g id="a_node44"><a xlink:href="../../dd/d4a/lvm_8c.html#a5f9dd797eb313b8e117cb20546276732" target="_top" xlink:title="call_binTM">
<polygon fill="none" stroke="black" points="534.5,-636.5 534.5,-655.5 596.5,-655.5 596.5,-636.5 534.5,-636.5"/>
<text text-anchor="middle" x="565.5" y="-643.5" font-family="Helvetica,sans-Serif" font-size="10.00">call_binTM</text>
</a>
</g>
</g>
<!-- Node43&#45;&gt;Node44 -->
<g id="edge59" class="edge"><title>Node43&#45;&gt;Node44</title>
<path fill="none" stroke="midnightblue" d="M478.198,-603.037C499.059,-613.422 526.922,-627.293 545.273,-636.428"/>
<polygon fill="midnightblue" stroke="midnightblue" points="479.677,-599.864 469.165,-598.541 476.557,-606.13 479.677,-599.864"/>
</g>
<!-- Node46 -->
<g id="node46" class="node"><title>Node46</title>
<g id="a_node46"><a xlink:href="../../d5/dcd/lvm_8h.html#ab77cced08254efde4e5dfb28b37a7f31" target="_top" xlink:title="luaV_equalobj_">
<polygon fill="none" stroke="black" points="524,-522.5 524,-541.5 607,-541.5 607,-522.5 524,-522.5"/>
<text text-anchor="middle" x="565.5" y="-529.5" font-family="Helvetica,sans-Serif" font-size="10.00">luaV_equalobj_</text>
</a>
</g>
</g>
<!-- Node43&#45;&gt;Node46 -->
<g id="edge63" class="edge"><title>Node43&#45;&gt;Node46</title>
<path fill="none" stroke="midnightblue" d="M478.198,-574.963C499.059,-564.578 526.922,-550.707 545.273,-541.572"/>
<polygon fill="midnightblue" stroke="midnightblue" points="476.557,-571.87 469.165,-579.459 479.677,-578.136 476.557,-571.87"/>
</g>
<!-- Node44&#45;&gt;Node2 -->
<g id="edge62" class="edge"><title>Node44&#45;&gt;Node2</title>
<path fill="none" stroke="midnightblue" d="M524.215,-638.335C492.666,-631.798 447.924,-621.344 410,-608 312.762,-573.786 203.05,-516.361 161.091,-493.657"/>
<polygon fill="midnightblue" stroke="midnightblue" points="523.882,-641.839 534.379,-640.4 525.276,-634.979 523.882,-641.839"/>
</g>
<!-- Node44&#45;&gt;Node38 -->
<g id="edge61" class="edge"><title>Node44&#45;&gt;Node38</title>
<path fill="none" stroke="midnightblue" d="M583.174,-628.941C610.727,-600.752 664.898,-545.332 686.885,-522.837"/>
<polygon fill="midnightblue" stroke="midnightblue" points="580.336,-626.837 575.849,-636.435 585.342,-631.73 580.336,-626.837"/>
</g>
<!-- Node45 -->
<g id="node45" class="node"><title>Node45</title>
<g id="a_node45"><a xlink:href="../../dd/d4a/lvm_8c.html#a1d1301ff4a771ce4198673dd113d10a5" target="_top" xlink:title="call_orderTM">
<polygon fill="none" stroke="red" points="663,-636.5 663,-655.5 732,-655.5 732,-636.5 663,-636.5"/>
<text text-anchor="middle" x="697.5" y="-643.5" font-family="Helvetica,sans-Serif" font-size="10.00">call_orderTM</text>
</a>
</g>
</g>
<!-- Node44&#45;&gt;Node45 -->
<g id="edge60" class="edge"><title>Node44&#45;&gt;Node45</title>
<path fill="none" stroke="midnightblue" d="M606.841,-646C624.814,-646 645.74,-646 662.853,-646"/>
<polygon fill="midnightblue" stroke="midnightblue" points="606.651,-642.5 596.651,-646 606.651,-649.5 606.651,-642.5"/>
</g>
<!-- Node47&#45;&gt;Node48 -->
<g id="edge67" class="edge"><title>Node47&#45;&gt;Node48</title>
<path fill="none" stroke="midnightblue" d="M375.279,-128C391.021,-128 410.36,-128 425.137,-128"/>
<polygon fill="midnightblue" stroke="midnightblue" points="375.057,-124.5 365.057,-128 375.057,-131.5 375.057,-124.5"/>
</g>
<!-- Node49 -->
<g id="node49" class="node"><title>Node49</title>
<g id="a_node49"><a xlink:href="../../da/dd2/lua_8h.html#a434479f022eda738b99000aad5ddd929" target="_top" xlink:title="lua_resume">
<polygon fill="none" stroke="black" points="533,-68.5 533,-87.5 598,-87.5 598,-68.5 533,-68.5"/>
<text text-anchor="middle" x="565.5" y="-75.5" font-family="Helvetica,sans-Serif" font-size="10.00">lua_resume</text>
</a>
</g>
</g>
<!-- Node47&#45;&gt;Node49 -->
<g id="edge71" class="edge"><title>Node47&#45;&gt;Node49</title>
<path fill="none" stroke="midnightblue" d="M374.886,-118.969C385.777,-115.605 398.411,-111.903 410,-109 452.195,-98.4295 501.575,-89.0311 532.938,-83.4264"/>
<polygon fill="midnightblue" stroke="midnightblue" points="373.56,-115.717 365.069,-122.053 375.658,-122.395 373.56,-115.717"/>
</g>
<!-- Node48&#45;&gt;Node49 -->
<g id="edge68" class="edge"><title>Node48&#45;&gt;Node49</title>
<path fill="none" stroke="midnightblue" d="M481.136,-114.403C500.518,-105.94 524.983,-95.2565 542.385,-87.6572"/>
<polygon fill="midnightblue" stroke="midnightblue" points="479.57,-111.268 471.806,-118.478 482.371,-117.683 479.57,-111.268"/>
</g>
<!-- Node50 -->
<g id="node50" class="node"><title>Node50</title>
<g id="a_node50"><a xlink:href="../../df/d2d/lcorolib_8c.html#aaa37b3a30ab0c6daef7fae8951fef3e7" target="_top" xlink:title="auxresume">
<polygon fill="none" stroke="red" points="665.5,-28.5 665.5,-47.5 729.5,-47.5 729.5,-28.5 665.5,-28.5"/>
<text text-anchor="middle" x="697.5" y="-35.5" font-family="Helvetica,sans-Serif" font-size="10.00">auxresume</text>
</a>
</g>
</g>
<!-- Node49&#45;&gt;Node50 -->
<g id="edge69" class="edge"><title>Node49&#45;&gt;Node50</title>
<path fill="none" stroke="midnightblue" d="M607.438,-65.4038C626.259,-59.6127 648.214,-52.8573 665.616,-47.5028"/>
<polygon fill="midnightblue" stroke="midnightblue" points="606.167,-62.1328 597.638,-68.419 608.225,-68.8233 606.167,-62.1328"/>
</g>
<!-- Node50&#45;&gt;Node16 -->
<g id="edge70" class="edge"><title>Node50&#45;&gt;Node16</title>
<path fill="none" stroke="midnightblue" d="M739.311,-49.4453C758.594,-54.853 781.355,-61.2361 799.728,-66.3887"/>
<polygon fill="midnightblue" stroke="midnightblue" points="740.16,-46.0483 729.586,-46.718 738.27,-52.7883 740.16,-46.0483"/>
</g>
</g>
</svg>
