<?xml version="1.0" encoding="UTF-8" standalone="no"?>
<!DOCTYPE svg PUBLIC "-//W3C//DTD SVG 1.1//EN"
 "http://www.w3.org/Graphics/SVG/1.1/DTD/svg11.dtd">
<!-- Generated by graphviz version 2.38.0 (20140413.2041)
 -->
<!-- Title: unlinkupval Pages: 1 -->
<svg width="1503pt" height="646pt"
 viewBox="0.00 0.00 1503.00 646.00" xmlns="http://www.w3.org/2000/svg" xmlns:xlink="http://www.w3.org/1999/xlink">
<g id="graph0" class="graph" transform="scale(1 1) rotate(0) translate(4 642)">
<title>unlinkupval</title>
<!-- Node1 -->
<g id="node1" class="node"><title>Node1</title>
<polygon fill="#bfbfbf" stroke="black" points="0,-95.5 0,-114.5 64,-114.5 64,-95.5 0,-95.5"/>
<text text-anchor="middle" x="32" y="-102.5" font-family="Helvetica,sans-Serif" font-size="10.00">unlinkupval</text>
</g>
<!-- Node2 -->
<g id="node2" class="node"><title>Node2</title>
<g id="a_node2"><a xlink:href="../../d4/db8/lfunc_8h.html#a059f8cf02f13f391fa02ad85d9057f8f" target="_top" xlink:title="luaF_close">
<polygon fill="none" stroke="black" points="215,-114.5 215,-133.5 277,-133.5 277,-114.5 215,-114.5"/>
<text text-anchor="middle" x="246" y="-121.5" font-family="Helvetica,sans-Serif" font-size="10.00">luaF_close</text>
</a>
</g>
</g>
<!-- Node1&#45;&gt;Node2 -->
<g id="edge1" class="edge"><title>Node1&#45;&gt;Node2</title>
<path fill="none" stroke="midnightblue" d="M74.2983,-108.701C115.61,-112.404 178.158,-118.009 214.963,-121.308"/>
<polygon fill="midnightblue" stroke="midnightblue" points="74.5539,-105.21 64.2813,-107.804 73.929,-112.182 74.5539,-105.21"/>
</g>
<!-- Node50 -->
<g id="node50" class="node"><title>Node50</title>
<g id="a_node50"><a xlink:href="../../d4/db8/lfunc_8h.html#a5e378b050a1fd4e4fa99939656a56a9c" target="_top" xlink:title="luaF_freeupval">
<polygon fill="none" stroke="black" points="100,-76.5 100,-95.5 179,-95.5 179,-76.5 100,-76.5"/>
<text text-anchor="middle" x="139.5" y="-83.5" font-family="Helvetica,sans-Serif" font-size="10.00">luaF_freeupval</text>
</a>
</g>
</g>
<!-- Node1&#45;&gt;Node50 -->
<g id="edge63" class="edge"><title>Node1&#45;&gt;Node50</title>
<path fill="none" stroke="midnightblue" d="M74.1133,-97.5957C82.5577,-96.0749 91.4207,-94.4787 99.7774,-92.9737"/>
<polygon fill="midnightblue" stroke="midnightblue" points="73.3042,-94.185 64.0829,-99.4021 74.5449,-101.074 73.3042,-94.185"/>
</g>
<!-- Node3 -->
<g id="node3" class="node"><title>Node3</title>
<g id="a_node3"><a xlink:href="../../d3/d08/ldo_8c.html#a8f3e3ff2aa0a4a251774a476cb0036ea" target="_top" xlink:title="recover">
<polygon fill="none" stroke="black" points="331,-191.5 331,-210.5 378,-210.5 378,-191.5 331,-191.5"/>
<text text-anchor="middle" x="354.5" y="-198.5" font-family="Helvetica,sans-Serif" font-size="10.00">recover</text>
</a>
</g>
</g>
<!-- Node2&#45;&gt;Node3 -->
<g id="edge2" class="edge"><title>Node2&#45;&gt;Node3</title>
<path fill="none" stroke="midnightblue" d="M268.668,-139.666C290.085,-155.15 322.174,-178.351 340.121,-191.327"/>
<polygon fill="midnightblue" stroke="midnightblue" points="270.643,-136.775 260.488,-133.752 266.541,-142.448 270.643,-136.775"/>
</g>
<!-- Node8 -->
<g id="node8" class="node"><title>Node8</title>
<g id="a_node8"><a xlink:href="../../d2/dd9/ldo_8h.html#ad1087faa52e2bb98c00806ea1ac198a6" target="_top" xlink:title="luaD_pcall">
<polygon fill="none" stroke="black" points="532,-162.5 532,-181.5 594,-181.5 594,-162.5 532,-162.5"/>
<text text-anchor="middle" x="563" y="-169.5" font-family="Helvetica,sans-Serif" font-size="10.00">luaD_pcall</text>
</a>
</g>
</g>
<!-- Node2&#45;&gt;Node8 -->
<g id="edge7" class="edge"><title>Node2&#45;&gt;Node8</title>
<path fill="none" stroke="midnightblue" d="M287.326,-130.145C351.375,-139.905 474.925,-158.731 531.888,-167.411"/>
<polygon fill="midnightblue" stroke="midnightblue" points="287.617,-126.649 277.204,-128.602 286.562,-133.569 287.617,-126.649"/>
</g>
<!-- Node12 -->
<g id="node12" class="node"><title>Node12</title>
<g id="a_node12"><a xlink:href="../../dd/dca/lstate_8c.html#a4940327dfa3b86df0ef008180bb3fcb3" target="_top" xlink:title="close_state">
<polygon fill="none" stroke="black" points="1059,-95.5 1059,-114.5 1124,-114.5 1124,-95.5 1059,-95.5"/>
<text text-anchor="middle" x="1091.5" y="-102.5" font-family="Helvetica,sans-Serif" font-size="10.00">close_state</text>
</a>
</g>
</g>
<!-- Node2&#45;&gt;Node12 -->
<g id="edge33" class="edge"><title>Node2&#45;&gt;Node12</title>
<path fill="none" stroke="midnightblue" d="M286.966,-115.537C329.432,-107.295 398.637,-96 459,-96 459,-96 459,-96 836.5,-96 916.587,-96 1010.79,-100.524 1058.83,-103.157"/>
<polygon fill="midnightblue" stroke="midnightblue" points="286.157,-112.13 277.027,-117.506 287.517,-118.996 286.157,-112.13"/>
</g>
<!-- Node31 -->
<g id="node31" class="node"><title>Node31</title>
<g id="a_node31"><a xlink:href="../../d3/dfc/lstate_8h.html#a0882226c718293b23af460f7e2faeef0" target="_top" xlink:title="luaE_freethread">
<polygon fill="none" stroke="black" points="313,-48.5 313,-67.5 396,-67.5 396,-48.5 313,-48.5"/>
<text text-anchor="middle" x="354.5" y="-55.5" font-family="Helvetica,sans-Serif" font-size="10.00">luaE_freethread</text>
</a>
</g>
</g>
<!-- Node2&#45;&gt;Node31 -->
<g id="edge34" class="edge"><title>Node2&#45;&gt;Node31</title>
<path fill="none" stroke="midnightblue" d="M270.371,-108.873C282.943,-100.8 298.752,-90.752 313,-82 320.8,-77.2088 329.527,-72.0162 336.877,-67.6904"/>
<polygon fill="midnightblue" stroke="midnightblue" points="268.369,-105.999 261.856,-114.356 272.159,-111.885 268.369,-105.999"/>
</g>
<!-- Node36 -->
<g id="node36" class="node"><title>Node36</title>
<g id="a_node36"><a xlink:href="../../d5/dcd/lvm_8h.html#ae93565adc36c6e2157dbbd875433ede1" target="_top" xlink:title="luaV_execute">
<polygon fill="none" stroke="black" points="317.5,-409.5 317.5,-428.5 391.5,-428.5 391.5,-409.5 317.5,-409.5"/>
<text text-anchor="middle" x="354.5" y="-416.5" font-family="Helvetica,sans-Serif" font-size="10.00">luaV_execute</text>
</a>
</g>
</g>
<!-- Node2&#45;&gt;Node36 -->
<g id="edge39" class="edge"><title>Node2&#45;&gt;Node36</title>
<path fill="none" stroke="midnightblue" d="M254.032,-143.477C274.738,-200.832 334.98,-367.7 350.051,-409.446"/>
<polygon fill="midnightblue" stroke="midnightblue" points="257.231,-142.033 250.543,-133.815 250.647,-144.41 257.231,-142.033"/>
</g>
<!-- Node4 -->
<g id="node4" class="node"><title>Node4</title>
<g id="a_node4"><a xlink:href="../../da/dd2/lua_8h.html#a434479f022eda738b99000aad5ddd929" target="_top" xlink:title="lua_resume">
<polygon fill="none" stroke="black" points="659,-276.5 659,-295.5 724,-295.5 724,-276.5 659,-276.5"/>
<text text-anchor="middle" x="691.5" y="-283.5" font-family="Helvetica,sans-Serif" font-size="10.00">lua_resume</text>
</a>
</g>
</g>
<!-- Node3&#45;&gt;Node4 -->
<g id="edge3" class="edge"><title>Node3&#45;&gt;Node4</title>
<path fill="none" stroke="midnightblue" d="M388.025,-207.946C435.346,-218.212 525.841,-238.446 602,-259 621.696,-264.316 643.631,-271.002 660.735,-276.391"/>
<polygon fill="midnightblue" stroke="midnightblue" points="388.568,-204.483 378.054,-205.792 387.09,-211.325 388.568,-204.483"/>
</g>
<!-- Node5 -->
<g id="node5" class="node"><title>Node5</title>
<g id="a_node5"><a xlink:href="../../df/d2d/lcorolib_8c.html#aaa37b3a30ab0c6daef7fae8951fef3e7" target="_top" xlink:title="auxresume">
<polygon fill="none" stroke="black" points="803.5,-390.5 803.5,-409.5 867.5,-409.5 867.5,-390.5 803.5,-390.5"/>
<text text-anchor="middle" x="835.5" y="-397.5" font-family="Helvetica,sans-Serif" font-size="10.00">auxresume</text>
</a>
</g>
</g>
<!-- Node4&#45;&gt;Node5 -->
<g id="edge4" class="edge"><title>Node4&#45;&gt;Node5</title>
<path fill="none" stroke="midnightblue" d="M712.688,-302.208C742.667,-326.275 798.032,-370.723 822.424,-390.305"/>
<polygon fill="midnightblue" stroke="midnightblue" points="714.596,-299.251 704.607,-295.72 710.214,-304.709 714.596,-299.251"/>
</g>
<!-- Node6 -->
<g id="node6" class="node"><title>Node6</title>
<g id="a_node6"><a xlink:href="../../df/d2d/lcorolib_8c.html#a777abb20385a69ce4787f72bd90375a7" target="_top" xlink:title="luaB_auxwrap">
<polygon fill="none" stroke="red" points="934.5,-428.5 934.5,-447.5 1014.5,-447.5 1014.5,-428.5 934.5,-428.5"/>
<text text-anchor="middle" x="974.5" y="-435.5" font-family="Helvetica,sans-Serif" font-size="10.00">luaB_auxwrap</text>
</a>
</g>
</g>
<!-- Node5&#45;&gt;Node6 -->
<g id="edge5" class="edge"><title>Node5&#45;&gt;Node6</title>
<path fill="none" stroke="midnightblue" d="M877.227,-411.296C896.948,-416.767 920.367,-423.262 939.169,-428.478"/>
<polygon fill="midnightblue" stroke="midnightblue" points="878.159,-407.923 867.587,-408.623 876.288,-414.668 878.159,-407.923"/>
</g>
<!-- Node7 -->
<g id="node7" class="node"><title>Node7</title>
<g id="a_node7"><a xlink:href="../../df/d2d/lcorolib_8c.html#a76f5d80387eeb1c7d31eb5f9cb6c9392" target="_top" xlink:title="luaB_coresume">
<polygon fill="none" stroke="black" points="933.5,-390.5 933.5,-409.5 1015.5,-409.5 1015.5,-390.5 933.5,-390.5"/>
<text text-anchor="middle" x="974.5" y="-397.5" font-family="Helvetica,sans-Serif" font-size="10.00">luaB_coresume</text>
</a>
</g>
</g>
<!-- Node5&#45;&gt;Node7 -->
<g id="edge6" class="edge"><title>Node5&#45;&gt;Node7</title>
<path fill="none" stroke="midnightblue" d="M877.611,-400C895.284,-400 915.868,-400 933.424,-400"/>
<polygon fill="midnightblue" stroke="midnightblue" points="877.587,-396.5 867.587,-400 877.587,-403.5 877.587,-396.5"/>
</g>
<!-- Node9 -->
<g id="node9" class="node"><title>Node9</title>
<g id="a_node9"><a xlink:href="../../de/d27/lgc_8c.html#ab9ec6b56580b9e66f41743e393e7e033" target="_top" xlink:title="GCTM">
<polygon fill="none" stroke="black" points="668.5,-238.5 668.5,-257.5 714.5,-257.5 714.5,-238.5 668.5,-238.5"/>
<text text-anchor="middle" x="691.5" y="-245.5" font-family="Helvetica,sans-Serif" font-size="10.00">GCTM</text>
</a>
</g>
</g>
<!-- Node8&#45;&gt;Node9 -->
<g id="edge8" class="edge"><title>Node8&#45;&gt;Node9</title>
<path fill="none" stroke="midnightblue" d="M588.726,-186.855C614.156,-202.133 653.006,-225.474 674.609,-238.453"/>
<polygon fill="midnightblue" stroke="midnightblue" points="590.396,-183.775 580.021,-181.625 586.791,-189.776 590.396,-183.775"/>
</g>
<!-- Node23 -->
<g id="node23" class="node"><title>Node23</title>
<g id="a_node23"><a xlink:href="../../da/dd2/lua_8h.html#a3c4de08aa665eaee4aabd330aa99a441" target="_top" xlink:title="lua_pcallk">
<polygon fill="none" stroke="black" points="662,-428.5 662,-447.5 721,-447.5 721,-428.5 662,-428.5"/>
<text text-anchor="middle" x="691.5" y="-435.5" font-family="Helvetica,sans-Serif" font-size="10.00">lua_pcallk</text>
</a>
</g>
</g>
<!-- Node8&#45;&gt;Node23 -->
<g id="edge24" class="edge"><title>Node8&#45;&gt;Node23</title>
<path fill="none" stroke="midnightblue" d="M573.029,-190.986C598.019,-243.534 667.468,-389.568 685.939,-428.409"/>
<polygon fill="midnightblue" stroke="midnightblue" points="576.108,-189.31 568.652,-181.783 569.786,-192.317 576.108,-189.31"/>
</g>
<!-- Node26 -->
<g id="node26" class="node"><title>Node26</title>
<g id="a_node26"><a xlink:href="../../d2/dd9/ldo_8h.html#a5dffa85d966f14d3f3464db580f5b3fa" target="_top" xlink:title="luaD_protectedparser">
<polygon fill="none" stroke="black" points="638,-162.5 638,-181.5 745,-181.5 745,-162.5 638,-162.5"/>
<text text-anchor="middle" x="691.5" y="-169.5" font-family="Helvetica,sans-Serif" font-size="10.00">luaD_protectedparser</text>
</a>
</g>
</g>
<!-- Node8&#45;&gt;Node26 -->
<g id="edge27" class="edge"><title>Node8&#45;&gt;Node26</title>
<path fill="none" stroke="midnightblue" d="M604.489,-172C615.057,-172 626.603,-172 637.707,-172"/>
<polygon fill="midnightblue" stroke="midnightblue" points="604.3,-168.5 594.3,-172 604.3,-175.5 604.3,-168.5"/>
</g>
<!-- Node10 -->
<g id="node10" class="node"><title>Node10</title>
<g id="a_node10"><a xlink:href="../../de/d27/lgc_8c.html#a74f50e6006422d43686521fe765152dd" target="_top" xlink:title="callallpendingfinalizers">
<polygon fill="none" stroke="black" points="781,-238.5 781,-257.5 890,-257.5 890,-238.5 781,-238.5"/>
<text text-anchor="middle" x="835.5" y="-245.5" font-family="Helvetica,sans-Serif" font-size="10.00">callallpendingfinalizers</text>
</a>
</g>
</g>
<!-- Node9&#45;&gt;Node10 -->
<g id="edge9" class="edge"><title>Node9&#45;&gt;Node10</title>
<path fill="none" stroke="midnightblue" d="M724.932,-248C741.495,-248 762.078,-248 780.917,-248"/>
<polygon fill="midnightblue" stroke="midnightblue" points="724.688,-244.5 714.688,-248 724.687,-251.5 724.688,-244.5"/>
</g>
<!-- Node21 -->
<g id="node21" class="node"><title>Node21</title>
<g id="a_node21"><a xlink:href="../../dc/d9c/lgc_8h.html#a19359957605d7c8eaf70803e5b77361f" target="_top" xlink:title="luaC_forcestep">
<polygon fill="none" stroke="black" points="795.5,-314.5 795.5,-333.5 875.5,-333.5 875.5,-314.5 795.5,-314.5"/>
<text text-anchor="middle" x="835.5" y="-321.5" font-family="Helvetica,sans-Serif" font-size="10.00">luaC_forcestep</text>
</a>
</g>
</g>
<!-- Node9&#45;&gt;Node21 -->
<g id="edge21" class="edge"><title>Node9&#45;&gt;Node21</title>
<path fill="none" stroke="midnightblue" d="M724.456,-258.294C731.351,-260.865 738.513,-263.809 745,-267 773.597,-281.068 804.416,-302.153 821.395,-314.346"/>
<polygon fill="midnightblue" stroke="midnightblue" points="725.252,-254.863 714.657,-254.811 722.907,-261.458 725.252,-254.863"/>
</g>
<!-- Node11 -->
<g id="node11" class="node"><title>Node11</title>
<g id="a_node11"><a xlink:href="../../dc/d9c/lgc_8h.html#a9aa52a500c9cc2076edb1707e6d8a045" target="_top" xlink:title="luaC_freeallobjects">
<polygon fill="none" stroke="black" points="926,-238.5 926,-257.5 1023,-257.5 1023,-238.5 926,-238.5"/>
<text text-anchor="middle" x="974.5" y="-245.5" font-family="Helvetica,sans-Serif" font-size="10.00">luaC_freeallobjects</text>
</a>
</g>
</g>
<!-- Node10&#45;&gt;Node11 -->
<g id="edge10" class="edge"><title>Node10&#45;&gt;Node11</title>
<path fill="none" stroke="midnightblue" d="M900.51,-248C908.985,-248 917.552,-248 925.689,-248"/>
<polygon fill="midnightblue" stroke="midnightblue" points="900.253,-244.5 890.253,-248 900.253,-251.5 900.253,-244.5"/>
</g>
<!-- Node19 -->
<g id="node19" class="node"><title>Node19</title>
<g id="a_node19"><a xlink:href="../../dc/d9c/lgc_8h.html#aa0b753c3ed80e1eed0379ec58592c404" target="_top" xlink:title="luaC_fullgc">
<polygon fill="none" stroke="red" points="943.5,-276.5 943.5,-295.5 1005.5,-295.5 1005.5,-276.5 943.5,-276.5"/>
<text text-anchor="middle" x="974.5" y="-283.5" font-family="Helvetica,sans-Serif" font-size="10.00">luaC_fullgc</text>
</a>
</g>
</g>
<!-- Node10&#45;&gt;Node19 -->
<g id="edge19" class="edge"><title>Node10&#45;&gt;Node19</title>
<path fill="none" stroke="midnightblue" d="M880.774,-260.28C901.153,-265.933 924.817,-272.497 943.138,-277.578"/>
<polygon fill="midnightblue" stroke="midnightblue" points="881.643,-256.889 871.071,-257.589 879.772,-263.635 881.643,-256.889"/>
</g>
<!-- Node11&#45;&gt;Node12 -->
<g id="edge11" class="edge"><title>Node11&#45;&gt;Node12</title>
<path fill="none" stroke="midnightblue" d="M1017.82,-233.342C1019.67,-232.014 1021.41,-230.569 1023,-229 1052.53,-199.935 1037.54,-178.448 1059,-143 1065.3,-132.59 1074.3,-122.037 1081.07,-114.702"/>
<polygon fill="midnightblue" stroke="midnightblue" points="1016.03,-230.335 1009.23,-238.458 1019.61,-236.35 1016.03,-230.335"/>
</g>
<!-- Node13 -->
<g id="node13" class="node"><title>Node13</title>
<g id="a_node13"><a xlink:href="../../da/dd2/lua_8h.html#af722e4ac7fc0eba5920f59f0162c1b97" target="_top" xlink:title="lua_newstate">
<polygon fill="none" stroke="black" points="1160,-114.5 1160,-133.5 1234,-133.5 1234,-114.5 1160,-114.5"/>
<text text-anchor="middle" x="1197" y="-121.5" font-family="Helvetica,sans-Serif" font-size="10.00">lua_newstate</text>
</a>
</g>
</g>
<!-- Node12&#45;&gt;Node13 -->
<g id="edge12" class="edge"><title>Node12&#45;&gt;Node13</title>
<path fill="none" stroke="midnightblue" d="M1134.23,-112.66C1142.72,-114.219 1151.59,-115.847 1159.87,-117.367"/>
<polygon fill="midnightblue" stroke="midnightblue" points="1134.58,-109.167 1124.12,-110.804 1133.32,-116.052 1134.58,-109.167"/>
</g>
<!-- Node17 -->
<g id="node17" class="node"><title>Node17</title>
<g id="a_node17"><a xlink:href="../../da/dd2/lua_8h.html#afe030a97e84f24dfab3afb598faa2fff" target="_top" xlink:title="lua_close">
<polygon fill="none" stroke="black" points="1169,-76.5 1169,-95.5 1225,-95.5 1225,-76.5 1169,-76.5"/>
<text text-anchor="middle" x="1197" y="-83.5" font-family="Helvetica,sans-Serif" font-size="10.00">lua_close</text>
</a>
</g>
</g>
<!-- Node12&#45;&gt;Node17 -->
<g id="edge17" class="edge"><title>Node12&#45;&gt;Node17</title>
<path fill="none" stroke="midnightblue" d="M1134.12,-97.3591C1145.79,-95.2171 1158.17,-92.9438 1168.77,-90.9982"/>
<polygon fill="midnightblue" stroke="midnightblue" points="1133.32,-93.948 1124.12,-99.1961 1134.58,-100.833 1133.32,-93.948"/>
</g>
<!-- Node14 -->
<g id="node14" class="node"><title>Node14</title>
<g id="a_node14"><a xlink:href="../../da/d29/lauxlib_8h.html#a7d8712fcede90ae93d5a9a7b409c586e" target="_top" xlink:title="luaL_newstate">
<polygon fill="none" stroke="black" points="1270,-95.5 1270,-114.5 1350,-114.5 1350,-95.5 1270,-95.5"/>
<text text-anchor="middle" x="1310" y="-102.5" font-family="Helvetica,sans-Serif" font-size="10.00">luaL_newstate</text>
</a>
</g>
</g>
<!-- Node13&#45;&gt;Node14 -->
<g id="edge13" class="edge"><title>Node13&#45;&gt;Node14</title>
<path fill="none" stroke="midnightblue" d="M1243.9,-116.143C1252.47,-114.677 1261.35,-113.157 1269.69,-111.728"/>
<polygon fill="midnightblue" stroke="midnightblue" points="1243.3,-112.694 1234.04,-117.831 1244.49,-119.594 1243.3,-112.694"/>
</g>
<!-- Node16 -->
<g id="node16" class="node"><title>Node16</title>
<g id="a_node16"><a xlink:href="../../dd/dca/lstate_8c.html#a8a0fc0aca5367250347c6bb6a788f05f" target="_top" xlink:title="makeseed">
<polygon fill="none" stroke="black" points="1279.5,-133.5 1279.5,-152.5 1340.5,-152.5 1340.5,-133.5 1279.5,-133.5"/>
<text text-anchor="middle" x="1310" y="-140.5" font-family="Helvetica,sans-Serif" font-size="10.00">makeseed</text>
</a>
</g>
</g>
<!-- Node13&#45;&gt;Node16 -->
<g id="edge15" class="edge"><title>Node13&#45;&gt;Node16</title>
<path fill="none" stroke="midnightblue" d="M1244.32,-125.261C1258.72,-127.465 1273.97,-130.435 1286.05,-133.482"/>
<polygon fill="midnightblue" stroke="midnightblue" points="1244.43,-121.742 1234.04,-123.802 1243.45,-128.673 1244.43,-121.742"/>
</g>
<!-- Node15 -->
<g id="node15" class="node"><title>Node15</title>
<g id="a_node15"><a xlink:href="../../dc/de7/interface_kensho_lua_wrapper.html#a7d10aa0242861cdd109d3da9383882a2" target="_top" xlink:title="&#45;[KenshoLuaWrapper\l evaluate]">
<polygon fill="none" stroke="red" points="1386,-90 1386,-120 1495,-120 1495,-90 1386,-90"/>
<text text-anchor="start" x="1394" y="-108" font-family="Helvetica,sans-Serif" font-size="10.00">&#45;[KenshoLuaWrapper</text>
<text text-anchor="middle" x="1440.5" y="-97" font-family="Helvetica,sans-Serif" font-size="10.00"> evaluate]</text>
</a>
</g>
</g>
<!-- Node14&#45;&gt;Node15 -->
<g id="edge14" class="edge"><title>Node14&#45;&gt;Node15</title>
<path fill="none" stroke="midnightblue" d="M1360.52,-105C1368.8,-105 1377.43,-105 1385.82,-105"/>
<polygon fill="midnightblue" stroke="midnightblue" points="1360.25,-101.5 1350.25,-105 1360.25,-108.5 1360.25,-101.5"/>
</g>
<!-- Node16&#45;&gt;Node13 -->
<g id="edge16" class="edge"><title>Node16&#45;&gt;Node13</title>
<path fill="none" stroke="midnightblue" d="M1269.01,-142.665C1252.88,-140.416 1234.86,-137.024 1221,-133.53"/>
<polygon fill="midnightblue" stroke="midnightblue" points="1268.91,-146.181 1279.27,-143.968 1269.8,-139.236 1268.91,-146.181"/>
</g>
<!-- Node18 -->
<g id="node18" class="node"><title>Node18</title>
<g id="a_node18"><a xlink:href="../../dc/dba/loslib_8c.html#a905e81425fe3d6d0b363c10162a2a37b" target="_top" xlink:title="os_exit">
<polygon fill="none" stroke="black" points="1286.5,-57.5 1286.5,-76.5 1333.5,-76.5 1333.5,-57.5 1286.5,-57.5"/>
<text text-anchor="middle" x="1310" y="-64.5" font-family="Helvetica,sans-Serif" font-size="10.00">os_exit</text>
</a>
</g>
</g>
<!-- Node17&#45;&gt;Node18 -->
<g id="edge18" class="edge"><title>Node17&#45;&gt;Node18</title>
<path fill="none" stroke="midnightblue" d="M1235.27,-79.6197C1252.16,-76.7295 1271.58,-73.4061 1286.24,-70.8954"/>
<polygon fill="midnightblue" stroke="midnightblue" points="1234.42,-76.215 1225.15,-81.3521 1235.6,-83.1146 1234.42,-76.215"/>
</g>
<!-- Node20 -->
<g id="node20" class="node"><title>Node20</title>
<g id="a_node20"><a xlink:href="../../da/dd2/lua_8h.html#a6bac487d3f900b21271e8c591bd801cd" target="_top" xlink:title="lua_gc">
<polygon fill="none" stroke="red" points="1069.5,-314.5 1069.5,-333.5 1113.5,-333.5 1113.5,-314.5 1069.5,-314.5"/>
<text text-anchor="middle" x="1091.5" y="-321.5" font-family="Helvetica,sans-Serif" font-size="10.00">lua_gc</text>
</a>
</g>
</g>
<!-- Node19&#45;&gt;Node20 -->
<g id="edge20" class="edge"><title>Node19&#45;&gt;Node20</title>
<path fill="none" stroke="midnightblue" d="M1014.15,-298.771C1032.63,-304.879 1054.04,-311.952 1069.47,-317.052"/>
<polygon fill="midnightblue" stroke="midnightblue" points="1015.11,-295.403 1004.52,-295.589 1012.92,-302.05 1015.11,-295.403"/>
</g>
<!-- Node21&#45;&gt;Node20 -->
<g id="edge22" class="edge"><title>Node21&#45;&gt;Node20</title>
<path fill="none" stroke="midnightblue" d="M882.6,-335.711C896.457,-338.708 911.762,-341.505 926,-343 968.876,-347.501 980.294,-348.896 1023,-343 1038.8,-340.819 1056.1,-335.895 1069.24,-331.606"/>
<polygon fill="midnightblue" stroke="midnightblue" points="883.326,-332.287 872.802,-333.509 881.791,-339.117 883.326,-332.287"/>
</g>
<!-- Node22 -->
<g id="node22" class="node"><title>Node22</title>
<g id="a_node22"><a xlink:href="../../dc/d9c/lgc_8h.html#a6c71cc4b9e503c0e96c0c4ffcff93900" target="_top" xlink:title="luaC_step">
<polygon fill="none" stroke="black" points="944,-314.5 944,-333.5 1005,-333.5 1005,-314.5 944,-314.5"/>
<text text-anchor="middle" x="974.5" y="-321.5" font-family="Helvetica,sans-Serif" font-size="10.00">luaC_step</text>
</a>
</g>
</g>
<!-- Node21&#45;&gt;Node22 -->
<g id="edge23" class="edge"><title>Node21&#45;&gt;Node22</title>
<path fill="none" stroke="midnightblue" d="M885.955,-324C905.337,-324 926.928,-324 943.819,-324"/>
<polygon fill="midnightblue" stroke="midnightblue" points="885.759,-320.5 875.759,-324 885.759,-327.5 885.759,-320.5"/>
</g>
<!-- Node24 -->
<g id="node24" class="node"><title>Node24</title>
<g id="a_node24"><a xlink:href="../../d8/dd3/lbaselib_8c.html#a1fb2725eed679431d070b2e9e7abc223" target="_top" xlink:title="luaB_pcall">
<polygon fill="none" stroke="black" points="805,-428.5 805,-447.5 866,-447.5 866,-428.5 805,-428.5"/>
<text text-anchor="middle" x="835.5" y="-435.5" font-family="Helvetica,sans-Serif" font-size="10.00">luaB_pcall</text>
</a>
</g>
</g>
<!-- Node23&#45;&gt;Node24 -->
<g id="edge25" class="edge"><title>Node23&#45;&gt;Node24</title>
<path fill="none" stroke="midnightblue" d="M731.425,-438C754.588,-438 783.519,-438 804.829,-438"/>
<polygon fill="midnightblue" stroke="midnightblue" points="731.236,-434.5 721.236,-438 731.236,-441.5 731.236,-434.5"/>
</g>
<!-- Node25 -->
<g id="node25" class="node"><title>Node25</title>
<g id="a_node25"><a xlink:href="../../d8/dd3/lbaselib_8c.html#a5fbb0094fa1a56f0a4c2547f1ec4c5ab" target="_top" xlink:title="luaB_xpcall">
<polygon fill="none" stroke="black" points="802.5,-466.5 802.5,-485.5 868.5,-485.5 868.5,-466.5 802.5,-466.5"/>
<text text-anchor="middle" x="835.5" y="-473.5" font-family="Helvetica,sans-Serif" font-size="10.00">luaB_xpcall</text>
</a>
</g>
</g>
<!-- Node23&#45;&gt;Node25 -->
<g id="edge26" class="edge"><title>Node23&#45;&gt;Node25</title>
<path fill="none" stroke="midnightblue" d="M731.07,-448.322C753.405,-454.298 781.192,-461.734 802.339,-467.394"/>
<polygon fill="midnightblue" stroke="midnightblue" points="731.801,-444.894 721.236,-445.69 729.991,-451.656 731.801,-444.894"/>
</g>
<!-- Node27 -->
<g id="node27" class="node"><title>Node27</title>
<g id="a_node27"><a xlink:href="../../da/dd2/lua_8h.html#a3f4c1ed5e0bd437dc527d62c5768b463" target="_top" xlink:title="lua_load">
<polygon fill="none" stroke="black" points="809,-162.5 809,-181.5 862,-181.5 862,-162.5 809,-162.5"/>
<text text-anchor="middle" x="835.5" y="-169.5" font-family="Helvetica,sans-Serif" font-size="10.00">lua_load</text>
</a>
</g>
</g>
<!-- Node26&#45;&gt;Node27 -->
<g id="edge28" class="edge"><title>Node26&#45;&gt;Node27</title>
<path fill="none" stroke="midnightblue" d="M755.386,-172C774.148,-172 793.675,-172 808.636,-172"/>
<polygon fill="midnightblue" stroke="midnightblue" points="755.376,-168.5 745.376,-172 755.376,-175.5 755.376,-168.5"/>
</g>
<!-- Node28 -->
<g id="node28" class="node"><title>Node28</title>
<g id="a_node28"><a xlink:href="../../da/d29/lauxlib_8h.html#a8c38c6dcf9db7e110e525b46742bacf8" target="_top" xlink:title="luaL_loadfilex">
<polygon fill="none" stroke="red" points="937.5,-200.5 937.5,-219.5 1011.5,-219.5 1011.5,-200.5 937.5,-200.5"/>
<text text-anchor="middle" x="974.5" y="-207.5" font-family="Helvetica,sans-Serif" font-size="10.00">luaL_loadfilex</text>
</a>
</g>
</g>
<!-- Node27&#45;&gt;Node28 -->
<g id="edge29" class="edge"><title>Node27&#45;&gt;Node28</title>
<path fill="none" stroke="midnightblue" d="M871.943,-181.831C892.61,-187.563 918.557,-194.76 939.051,-200.445"/>
<polygon fill="midnightblue" stroke="midnightblue" points="872.84,-178.448 862.269,-179.148 870.969,-185.193 872.84,-178.448"/>
</g>
<!-- Node29 -->
<g id="node29" class="node"><title>Node29</title>
<g id="a_node29"><a xlink:href="../../da/d29/lauxlib_8h.html#a3ab1955dd9322cf03e2d3626ebfae669" target="_top" xlink:title="luaL_loadbufferx">
<polygon fill="none" stroke="black" points="931.5,-162.5 931.5,-181.5 1017.5,-181.5 1017.5,-162.5 931.5,-162.5"/>
<text text-anchor="middle" x="974.5" y="-169.5" font-family="Helvetica,sans-Serif" font-size="10.00">luaL_loadbufferx</text>
</a>
</g>
</g>
<!-- Node27&#45;&gt;Node29 -->
<g id="edge30" class="edge"><title>Node27&#45;&gt;Node29</title>
<path fill="none" stroke="midnightblue" d="M872.409,-172C890.498,-172 912.542,-172 931.422,-172"/>
<polygon fill="midnightblue" stroke="midnightblue" points="872.269,-168.5 862.269,-172 872.269,-175.5 872.269,-168.5"/>
</g>
<!-- Node30 -->
<g id="node30" class="node"><title>Node30</title>
<g id="a_node30"><a xlink:href="../../d8/dd3/lbaselib_8c.html#a4a9a3613fcf80fe033e044f7e19bed69" target="_top" xlink:title="luaB_load">
<polygon fill="none" stroke="black" points="1062,-152.5 1062,-171.5 1121,-171.5 1121,-152.5 1062,-152.5"/>
<text text-anchor="middle" x="1091.5" y="-159.5" font-family="Helvetica,sans-Serif" font-size="10.00">luaB_load</text>
</a>
</g>
</g>
<!-- Node27&#45;&gt;Node30 -->
<g id="edge32" class="edge"><title>Node27&#45;&gt;Node30</title>
<path fill="none" stroke="midnightblue" d="M872.282,-162.612C888.548,-158.81 908.117,-154.877 926,-153 968.876,-148.499 979.984,-150.145 1023,-153 1035.74,-153.846 1049.74,-155.58 1061.68,-157.302"/>
<polygon fill="midnightblue" stroke="midnightblue" points="871.018,-159.317 862.121,-165.07 872.663,-166.121 871.018,-159.317"/>
</g>
<!-- Node29&#45;&gt;Node30 -->
<g id="edge31" class="edge"><title>Node29&#45;&gt;Node30</title>
<path fill="none" stroke="midnightblue" d="M1027.86,-167.447C1039.61,-166.426 1051.64,-165.38 1061.97,-164.481"/>
<polygon fill="midnightblue" stroke="midnightblue" points="1027.33,-163.98 1017.67,-168.333 1027.93,-170.954 1027.33,-163.98"/>
</g>
<!-- Node32 -->
<g id="node32" class="node"><title>Node32</title>
<g id="a_node32"><a xlink:href="../../de/d27/lgc_8c.html#aa198d7da2a8502ed70adfe1f7ed38f46" target="_top" xlink:title="freeobj">
<polygon fill="none" stroke="black" points="437.5,-19.5 437.5,-38.5 482.5,-38.5 482.5,-19.5 437.5,-19.5"/>
<text text-anchor="middle" x="460" y="-26.5" font-family="Helvetica,sans-Serif" font-size="10.00">freeobj</text>
</a>
</g>
</g>
<!-- Node31&#45;&gt;Node32 -->
<g id="edge35" class="edge"><title>Node31&#45;&gt;Node32</title>
<path fill="none" stroke="midnightblue" d="M399.466,-45.681C412.514,-42.0252 426.237,-38.18 437.215,-35.1039"/>
<polygon fill="midnightblue" stroke="midnightblue" points="398.361,-42.3556 389.677,-48.4239 400.25,-49.0961 398.361,-42.3556"/>
</g>
<!-- Node33 -->
<g id="node33" class="node"><title>Node33</title>
<g id="a_node33"><a xlink:href="../../de/d27/lgc_8c.html#abbcf0361a74ce5efc08ca703b0f4098a" target="_top" xlink:title="sweeplist">
<polygon fill="none" stroke="black" points="534.5,-19.5 534.5,-38.5 591.5,-38.5 591.5,-19.5 534.5,-19.5"/>
<text text-anchor="middle" x="563" y="-26.5" font-family="Helvetica,sans-Serif" font-size="10.00">sweeplist</text>
</a>
</g>
</g>
<!-- Node32&#45;&gt;Node33 -->
<g id="edge36" class="edge"><title>Node32&#45;&gt;Node33</title>
<path fill="none" stroke="midnightblue" d="M493.054,-29C506.328,-29 521.573,-29 534.347,-29"/>
<polygon fill="midnightblue" stroke="midnightblue" points="492.916,-25.5001 482.915,-29 492.915,-32.5001 492.916,-25.5001"/>
</g>
<!-- Node34 -->
<g id="node34" class="node"><title>Node34</title>
<g id="a_node34"><a xlink:href="../../de/d27/lgc_8c.html#ac881eb4d9ece02c3cefb86ed34879b6d" target="_top" xlink:title="sweeptolive">
<polygon fill="none" stroke="red" points="657.5,-0.5 657.5,-19.5 725.5,-19.5 725.5,-0.5 657.5,-0.5"/>
<text text-anchor="middle" x="691.5" y="-7.5" font-family="Helvetica,sans-Serif" font-size="10.00">sweeptolive</text>
</a>
</g>
</g>
<!-- Node33&#45;&gt;Node34 -->
<g id="edge37" class="edge"><title>Node33&#45;&gt;Node34</title>
<path fill="none" stroke="midnightblue" d="M601.759,-23.3288C619.456,-20.6706 640.352,-17.5321 657.42,-14.9686"/>
<polygon fill="midnightblue" stroke="midnightblue" points="601.13,-19.8838 591.761,-24.8304 602.17,-26.8061 601.13,-19.8838"/>
</g>
<!-- Node35 -->
<g id="node35" class="node"><title>Node35</title>
<g id="a_node35"><a xlink:href="../../de/d27/lgc_8c.html#ae34e22198155f5d365fe500d3735c150" target="_top" xlink:title="singlestep">
<polygon fill="none" stroke="red" points="662,-38.5 662,-57.5 721,-57.5 721,-38.5 662,-38.5"/>
<text text-anchor="middle" x="691.5" y="-45.5" font-family="Helvetica,sans-Serif" font-size="10.00">singlestep</text>
</a>
</g>
</g>
<!-- Node33&#45;&gt;Node35 -->
<g id="edge38" class="edge"><title>Node33&#45;&gt;Node35</title>
<path fill="none" stroke="midnightblue" d="M601.742,-34.6687C621.035,-37.5665 644.132,-41.0356 661.927,-43.7084"/>
<polygon fill="midnightblue" stroke="midnightblue" points="602.17,-31.1939 591.761,-33.1696 601.13,-38.1162 602.17,-31.1939"/>
</g>
<!-- Node37 -->
<g id="node37" class="node"><title>Node37</title>
<g id="a_node37"><a xlink:href="../../d2/dd9/ldo_8h.html#a7bb0b106d4012134156e0fa240f51228" target="_top" xlink:title="luaD_call">
<polygon fill="none" stroke="black" points="432,-409.5 432,-428.5 488,-428.5 488,-409.5 432,-409.5"/>
<text text-anchor="middle" x="460" y="-416.5" font-family="Helvetica,sans-Serif" font-size="10.00">luaD_call</text>
</a>
</g>
</g>
<!-- Node36&#45;&gt;Node37 -->
<g id="edge40" class="edge"><title>Node36&#45;&gt;Node37</title>
<path fill="none" stroke="midnightblue" d="M401.797,-412.283C412.052,-412.157 422.596,-412.388 431.794,-412.976"/>
<polygon fill="midnightblue" stroke="midnightblue" points="401.611,-408.787 391.699,-412.529 401.781,-415.785 401.611,-408.787"/>
</g>
<!-- Node48 -->
<g id="node48" class="node"><title>Node48</title>
<g id="a_node48"><a xlink:href="../../d3/d08/ldo_8c.html#a3baab9d298c0c32cb74a9a079d7244de" target="_top" xlink:title="unroll">
<polygon fill="none" stroke="black" points="441,-276.5 441,-295.5 479,-295.5 479,-276.5 441,-276.5"/>
<text text-anchor="middle" x="460" y="-283.5" font-family="Helvetica,sans-Serif" font-size="10.00">unroll</text>
</a>
</g>
</g>
<!-- Node36&#45;&gt;Node48 -->
<g id="edge58" class="edge"><title>Node36&#45;&gt;Node48</title>
<path fill="none" stroke="midnightblue" d="M369.345,-401.209C391.45,-372.803 433.99,-318.139 451.345,-295.837"/>
<polygon fill="midnightblue" stroke="midnightblue" points="366.323,-399.393 362.943,-409.435 371.847,-403.693 366.323,-399.393"/>
</g>
<!-- Node49 -->
<g id="node49" class="node"><title>Node49</title>
<g id="a_node49"><a xlink:href="../../d3/d08/ldo_8c.html#abd7632c715de5db6e7797b7fa3f7010f" target="_top" xlink:title="resume">
<polygon fill="none" stroke="black" points="539.5,-276.5 539.5,-295.5 586.5,-295.5 586.5,-276.5 539.5,-276.5"/>
<text text-anchor="middle" x="563" y="-283.5" font-family="Helvetica,sans-Serif" font-size="10.00">resume</text>
</a>
</g>
</g>
<!-- Node36&#45;&gt;Node49 -->
<g id="edge62" class="edge"><title>Node36&#45;&gt;Node49</title>
<path fill="none" stroke="midnightblue" d="M377.092,-403.043C408.586,-380.081 469.335,-336.973 524,-305 529.603,-301.723 535.844,-298.454 541.622,-295.574"/>
<polygon fill="midnightblue" stroke="midnightblue" points="374.653,-400.49 368.654,-409.223 378.79,-406.137 374.653,-400.49"/>
</g>
<!-- Node37&#45;&gt;Node23 -->
<g id="edge55" class="edge"><title>Node37&#45;&gt;Node23</title>
<path fill="none" stroke="midnightblue" d="M498.323,-422.09C544.049,-425.876 620.521,-432.207 661.869,-435.63"/>
<polygon fill="midnightblue" stroke="midnightblue" points="498.483,-418.591 488.228,-421.254 497.905,-425.567 498.483,-418.591"/>
</g>
<!-- Node37&#45;&gt;Node36 -->
<g id="edge57" class="edge"><title>Node37&#45;&gt;Node36</title>
<path fill="none" stroke="midnightblue" d="M421.587,-425.514C411.849,-425.842 401.374,-425.828 391.699,-425.471"/>
<polygon fill="midnightblue" stroke="midnightblue" points="421.973,-429 431.794,-425.024 421.637,-422.008 421.973,-429"/>
</g>
<!-- Node38 -->
<g id="node38" class="node"><title>Node38</title>
<g id="a_node38"><a xlink:href="../../dd/d4a/lvm_8c.html#aa904883a58699d9c6ef4d6f0f45037f6" target="_top" xlink:title="callTM">
<polygon fill="none" stroke="black" points="541,-504.5 541,-523.5 585,-523.5 585,-504.5 541,-504.5"/>
<text text-anchor="middle" x="563" y="-511.5" font-family="Helvetica,sans-Serif" font-size="10.00">callTM</text>
</a>
</g>
</g>
<!-- Node37&#45;&gt;Node38 -->
<g id="edge41" class="edge"><title>Node37&#45;&gt;Node38</title>
<path fill="none" stroke="midnightblue" d="M472.911,-437.36C484.43,-454.025 503.164,-478.453 524,-495 529.083,-499.037 535.162,-502.543 540.951,-505.407"/>
<polygon fill="midnightblue" stroke="midnightblue" points="475.773,-435.343 467.287,-429 469.965,-439.251 475.773,-435.343"/>
</g>
<!-- Node44 -->
<g id="node44" class="node"><title>Node44</title>
<g id="a_node44"><a xlink:href="../../de/d27/lgc_8c.html#a929058f72c03750fa82374f6bfa639ee" target="_top" xlink:title="dothecall">
<polygon fill="none" stroke="black" points="536.5,-314.5 536.5,-333.5 589.5,-333.5 589.5,-314.5 536.5,-314.5"/>
<text text-anchor="middle" x="563" y="-321.5" font-family="Helvetica,sans-Serif" font-size="10.00">dothecall</text>
</a>
</g>
</g>
<!-- Node37&#45;&gt;Node44 -->
<g id="edge50" class="edge"><title>Node37&#45;&gt;Node44</title>
<path fill="none" stroke="midnightblue" d="M472.911,-400.64C484.43,-383.975 503.164,-359.547 524,-343 528.505,-339.422 533.793,-336.261 538.968,-333.594"/>
<polygon fill="midnightblue" stroke="midnightblue" points="469.965,-398.749 467.287,-409 475.773,-402.657 469.965,-398.749"/>
</g>
<!-- Node45 -->
<g id="node45" class="node"><title>Node45</title>
<g id="a_node45"><a xlink:href="../../df/db6/lapi_8c.html#ac3926c93fb08234f9f47e24653124910" target="_top" xlink:title="f_call">
<polygon fill="none" stroke="black" points="544,-466.5 544,-485.5 582,-485.5 582,-466.5 544,-466.5"/>
<text text-anchor="middle" x="563" y="-473.5" font-family="Helvetica,sans-Serif" font-size="10.00">f_call</text>
</a>
</g>
</g>
<!-- Node37&#45;&gt;Node45 -->
<g id="edge52" class="edge"><title>Node37&#45;&gt;Node45</title>
<path fill="none" stroke="midnightblue" d="M486.859,-433.594C505.176,-443.931 529.221,-457.501 545.12,-466.474"/>
<polygon fill="midnightblue" stroke="midnightblue" points="488.562,-430.536 478.133,-428.669 485.122,-436.632 488.562,-430.536"/>
</g>
<!-- Node46 -->
<g id="node46" class="node"><title>Node46</title>
<g id="a_node46"><a xlink:href="../../da/dd2/lua_8h.html#aa6aba1fd89ac6f1c5ccfdfd12f826d80" target="_top" xlink:title="lua_callk">
<polygon fill="none" stroke="red" points="536.5,-390.5 536.5,-409.5 589.5,-409.5 589.5,-390.5 536.5,-390.5"/>
<text text-anchor="middle" x="563" y="-397.5" font-family="Helvetica,sans-Serif" font-size="10.00">lua_callk</text>
</a>
</g>
</g>
<!-- Node37&#45;&gt;Node46 -->
<g id="edge54" class="edge"><title>Node37&#45;&gt;Node46</title>
<path fill="none" stroke="midnightblue" d="M497.935,-412.052C510.656,-409.659 524.618,-407.032 536.252,-404.844"/>
<polygon fill="midnightblue" stroke="midnightblue" points="497.247,-408.62 488.066,-413.908 498.541,-415.499 497.247,-408.62"/>
</g>
<!-- Node47 -->
<g id="node47" class="node"><title>Node47</title>
<g id="a_node47"><a xlink:href="../../db/d46/ldebug_8h.html#acd5ef9f67a8e9d08f6540636fdbeafe6" target="_top" xlink:title="luaG_errormsg">
<polygon fill="none" stroke="red" points="524,-352.5 524,-371.5 602,-371.5 602,-352.5 524,-352.5"/>
<text text-anchor="middle" x="563" y="-359.5" font-family="Helvetica,sans-Serif" font-size="10.00">luaG_errormsg</text>
</a>
</g>
</g>
<!-- Node37&#45;&gt;Node47 -->
<g id="edge56" class="edge"><title>Node37&#45;&gt;Node47</title>
<path fill="none" stroke="midnightblue" d="M484.801,-404.035C496.484,-396.847 510.844,-388.242 524,-381 529.815,-377.799 536.239,-374.5 542.123,-371.568"/>
<polygon fill="midnightblue" stroke="midnightblue" points="482.734,-401.199 476.079,-409.444 486.423,-407.148 482.734,-401.199"/>
</g>
<!-- Node39 -->
<g id="node39" class="node"><title>Node39</title>
<g id="a_node39"><a xlink:href="../../d5/dcd/lvm_8h.html#adacdbccc9d8fab937a1b0dc058c8da12" target="_top" xlink:title="luaV_gettable">
<polygon fill="none" stroke="red" points="654,-618.5 654,-637.5 729,-637.5 729,-618.5 654,-618.5"/>
<text text-anchor="middle" x="691.5" y="-625.5" font-family="Helvetica,sans-Serif" font-size="10.00">luaV_gettable</text>
</a>
</g>
</g>
<!-- Node38&#45;&gt;Node39 -->
<g id="edge42" class="edge"><title>Node38&#45;&gt;Node39</title>
<path fill="none" stroke="midnightblue" d="M574.071,-532.514C586.5,-553.758 609.524,-588.319 638,-609 643.255,-612.816 649.355,-615.936 655.498,-618.463"/>
<polygon fill="midnightblue" stroke="midnightblue" points="576.957,-530.507 568.984,-523.531 570.866,-533.957 576.957,-530.507"/>
</g>
<!-- Node40 -->
<g id="node40" class="node"><title>Node40</title>
<g id="a_node40"><a xlink:href="../../d5/dcd/lvm_8h.html#a5885d48fd66eb236f8b8f6e4938cbcce" target="_top" xlink:title="luaV_settable">
<polygon fill="none" stroke="red" points="654,-580.5 654,-599.5 729,-599.5 729,-580.5 654,-580.5"/>
<text text-anchor="middle" x="691.5" y="-587.5" font-family="Helvetica,sans-Serif" font-size="10.00">luaV_settable</text>
</a>
</g>
</g>
<!-- Node38&#45;&gt;Node40 -->
<g id="edge44" class="edge"><title>Node38&#45;&gt;Node40</title>
<path fill="none" stroke="midnightblue" d="M581.911,-530.36C596.251,-542.8 617.32,-559.654 638,-571 644.629,-574.637 652.092,-577.821 659.265,-580.491"/>
<polygon fill="midnightblue" stroke="midnightblue" points="584.106,-527.629 574.299,-523.621 579.466,-532.87 584.106,-527.629"/>
</g>
<!-- Node41 -->
<g id="node41" class="node"><title>Node41</title>
<g id="a_node41"><a xlink:href="../../dd/d4a/lvm_8c.html#a5f9dd797eb313b8e117cb20546276732" target="_top" xlink:title="call_binTM">
<polygon fill="none" stroke="red" points="660.5,-466.5 660.5,-485.5 722.5,-485.5 722.5,-466.5 660.5,-466.5"/>
<text text-anchor="middle" x="691.5" y="-473.5" font-family="Helvetica,sans-Serif" font-size="10.00">call_binTM</text>
</a>
</g>
</g>
<!-- Node38&#45;&gt;Node41 -->
<g id="edge46" class="edge"><title>Node38&#45;&gt;Node41</title>
<path fill="none" stroke="midnightblue" d="M594.973,-504.696C614.843,-498.727 640.52,-491.014 660.248,-485.088"/>
<polygon fill="midnightblue" stroke="midnightblue" points="593.744,-501.411 585.173,-507.64 595.757,-508.115 593.744,-501.411"/>
</g>
<!-- Node42 -->
<g id="node42" class="node"><title>Node42</title>
<g id="a_node42"><a xlink:href="../../d5/dcd/lvm_8h.html#ab77cced08254efde4e5dfb28b37a7f31" target="_top" xlink:title="luaV_equalobj_">
<polygon fill="none" stroke="black" points="650,-504.5 650,-523.5 733,-523.5 733,-504.5 650,-504.5"/>
<text text-anchor="middle" x="691.5" y="-511.5" font-family="Helvetica,sans-Serif" font-size="10.00">luaV_equalobj_</text>
</a>
</g>
</g>
<!-- Node38&#45;&gt;Node42 -->
<g id="edge47" class="edge"><title>Node38&#45;&gt;Node42</title>
<path fill="none" stroke="midnightblue" d="M595.352,-514C611.8,-514 632.147,-514 649.799,-514"/>
<polygon fill="midnightblue" stroke="midnightblue" points="595.173,-510.5 585.173,-514 595.173,-517.5 595.173,-510.5"/>
</g>
<!-- Node43 -->
<g id="node43" class="node"><title>Node43</title>
<g id="a_node43"><a xlink:href="../../d5/dcd/lvm_8h.html#a414b4b487239935324f2f16e1e7715db" target="_top" xlink:title="luaV_objlen">
<polygon fill="none" stroke="red" points="658,-542.5 658,-561.5 725,-561.5 725,-542.5 658,-542.5"/>
<text text-anchor="middle" x="691.5" y="-549.5" font-family="Helvetica,sans-Serif" font-size="10.00">luaV_objlen</text>
</a>
</g>
</g>
<!-- Node38&#45;&gt;Node43 -->
<g id="edge48" class="edge"><title>Node38&#45;&gt;Node43</title>
<path fill="none" stroke="midnightblue" d="M594.759,-523.24C614.181,-529.074 639.212,-536.593 658.81,-542.48"/>
<polygon fill="midnightblue" stroke="midnightblue" points="595.757,-519.885 585.173,-520.36 593.744,-526.589 595.757,-519.885"/>
</g>
<!-- Node39&#45;&gt;Node36 -->
<g id="edge43" class="edge"><title>Node39&#45;&gt;Node36</title>
<path fill="none" stroke="midnightblue" d="M643.908,-623.683C587.568,-616.212 492.76,-596.143 432,-543 393.54,-509.361 368.144,-451.604 359.142,-428.734"/>
<polygon fill="midnightblue" stroke="midnightblue" points="643.607,-627.172 653.963,-624.936 644.473,-620.226 643.607,-627.172"/>
</g>
<!-- Node40&#45;&gt;Node36 -->
<g id="edge45" class="edge"><title>Node40&#45;&gt;Node36</title>
<path fill="none" stroke="midnightblue" d="M643.495,-586.406C587.86,-580.016 494.856,-562.385 432,-514 399.447,-488.941 372.3,-447.306 361.06,-428.608"/>
<polygon fill="midnightblue" stroke="midnightblue" points="643.452,-589.922 653.768,-587.507 644.198,-582.962 643.452,-589.922"/>
</g>
<!-- Node43&#45;&gt;Node36 -->
<g id="edge49" class="edge"><title>Node43&#45;&gt;Node36</title>
<path fill="none" stroke="midnightblue" d="M647.652,-552.672C613.235,-551.912 564.185,-547.861 524,-533 457.084,-508.253 390.858,-451.581 365.897,-428.774"/>
<polygon fill="midnightblue" stroke="midnightblue" points="647.791,-556.174 657.838,-552.81 647.887,-549.175 647.791,-556.174"/>
</g>
<!-- Node44&#45;&gt;Node9 -->
<g id="edge51" class="edge"><title>Node44&#45;&gt;Node9</title>
<path fill="none" stroke="midnightblue" d="M595.427,-309.406C597.709,-308.01 599.926,-306.538 602,-305 620.688,-291.143 618.538,-279.746 638,-267 647.244,-260.946 658.666,-256.516 668.493,-253.464"/>
<polygon fill="midnightblue" stroke="midnightblue" points="593.504,-306.471 586.466,-314.39 596.906,-312.588 593.504,-306.471"/>
</g>
<!-- Node45&#45;&gt;Node23 -->
<g id="edge53" class="edge"><title>Node45&#45;&gt;Node23</title>
<path fill="none" stroke="midnightblue" d="M591.908,-467.617C612.605,-461.399 640.739,-452.948 661.657,-446.664"/>
<polygon fill="midnightblue" stroke="midnightblue" points="590.695,-464.326 582.124,-470.556 592.709,-471.031 590.695,-464.326"/>
</g>
<!-- Node48&#45;&gt;Node4 -->
<g id="edge59" class="edge"><title>Node48&#45;&gt;Node4</title>
<path fill="none" stroke="midnightblue" d="M488.881,-275.675C499.688,-272.183 512.266,-268.731 524,-267 558.296,-261.941 567.527,-263.341 602,-267 621.065,-269.023 642.058,-273.433 658.811,-277.496"/>
<polygon fill="midnightblue" stroke="midnightblue" points="487.49,-272.451 479.146,-278.981 489.741,-279.079 487.49,-272.451"/>
</g>
<!-- Node48&#45;&gt;Node49 -->
<g id="edge60" class="edge"><title>Node48&#45;&gt;Node49</title>
<path fill="none" stroke="midnightblue" d="M489.279,-286C505.021,-286 524.36,-286 539.137,-286"/>
<polygon fill="midnightblue" stroke="midnightblue" points="489.057,-282.5 479.057,-286 489.057,-289.5 489.057,-282.5"/>
</g>
<!-- Node49&#45;&gt;Node4 -->
<g id="edge61" class="edge"><title>Node49&#45;&gt;Node4</title>
<path fill="none" stroke="midnightblue" d="M596.638,-286C615.697,-286 639.642,-286 658.576,-286"/>
<polygon fill="midnightblue" stroke="midnightblue" points="596.616,-282.5 586.616,-286 596.616,-289.5 596.616,-282.5"/>
</g>
<!-- Node50&#45;&gt;Node2 -->
<g id="edge64" class="edge"><title>Node50&#45;&gt;Node2</title>
<path fill="none" stroke="midnightblue" d="M176.574,-99.118C190.396,-104.144 205.893,-109.779 218.639,-114.414"/>
<polygon fill="midnightblue" stroke="midnightblue" points="177.464,-95.7172 166.87,-95.589 175.072,-102.296 177.464,-95.7172"/>
</g>
<!-- Node50&#45;&gt;Node32 -->
<g id="edge65" class="edge"><title>Node50&#45;&gt;Node32</title>
<path fill="none" stroke="midnightblue" d="M178.508,-73.3109C213.142,-62.3107 265.922,-46.9455 313,-39 356.591,-31.643 408.374,-29.6672 437.075,-29.1562"/>
<polygon fill="midnightblue" stroke="midnightblue" points="177.254,-70.0375 168.805,-76.4296 179.396,-76.7017 177.254,-70.0375"/>
</g>
</g>
</svg>
