<?xml version="1.0" encoding="UTF-8" standalone="no"?>
<!DOCTYPE svg PUBLIC "-//W3C//DTD SVG 1.1//EN"
 "http://www.w3.org/Graphics/SVG/1.1/DTD/svg11.dtd">
<!-- Generated by graphviz version 2.38.0 (20140413.2041)
 -->
<!-- Title: luaF_freeproto Pages: 1 -->
<svg width="1822pt" height="591pt"
 viewBox="0.00 0.00 1822.00 591.45" xmlns="http://www.w3.org/2000/svg" xmlns:xlink="http://www.w3.org/1999/xlink">
<g id="graph0" class="graph" transform="scale(1 1) rotate(0) translate(4 587.448)">
<title>luaF_freeproto</title>
<!-- Node1 -->
<g id="node1" class="node"><title>Node1</title>
<polygon fill="#bfbfbf" stroke="black" points="0,-134.448 0,-153.448 76,-153.448 76,-134.448 0,-134.448"/>
<text text-anchor="middle" x="38" y="-141.448" font-family="Helvetica,sans-Serif" font-size="10.00">luaF_freeproto</text>
</g>
<!-- Node2 -->
<g id="node2" class="node"><title>Node2</title>
<g id="a_node2"><a xlink:href="../../de/d27/lgc_8c.html#aa198d7da2a8502ed70adfe1f7ed38f46" target="_top" xlink:title="freeobj">
<polygon fill="none" stroke="black" points="112,-134.448 112,-153.448 157,-153.448 157,-134.448 112,-134.448"/>
<text text-anchor="middle" x="134.5" y="-141.448" font-family="Helvetica,sans-Serif" font-size="10.00">freeobj</text>
</a>
</g>
</g>
<!-- Node1&#45;&gt;Node2 -->
<g id="edge1" class="edge"><title>Node1&#45;&gt;Node2</title>
<path fill="none" stroke="midnightblue" d="M86.1437,-143.948C95.1225,-143.948 104.106,-143.948 111.798,-143.948"/>
<polygon fill="midnightblue" stroke="midnightblue" points="86.0777,-140.448 76.0777,-143.948 86.0776,-147.448 86.0777,-140.448"/>
</g>
<!-- Node3 -->
<g id="node3" class="node"><title>Node3</title>
<g id="a_node3"><a xlink:href="../../de/d27/lgc_8c.html#abbcf0361a74ce5efc08ca703b0f4098a" target="_top" xlink:title="sweeplist">
<polygon fill="none" stroke="black" points="193,-134.448 193,-153.448 250,-153.448 250,-134.448 193,-134.448"/>
<text text-anchor="middle" x="221.5" y="-141.448" font-family="Helvetica,sans-Serif" font-size="10.00">sweeplist</text>
</a>
</g>
</g>
<!-- Node2&#45;&gt;Node3 -->
<g id="edge2" class="edge"><title>Node2&#45;&gt;Node3</title>
<path fill="none" stroke="midnightblue" d="M167.544,-143.948C175.886,-143.948 184.801,-143.948 192.892,-143.948"/>
<polygon fill="midnightblue" stroke="midnightblue" points="167.39,-140.448 157.39,-143.948 167.39,-147.448 167.39,-140.448"/>
</g>
<!-- Node4 -->
<g id="node4" class="node"><title>Node4</title>
<g id="a_node4"><a xlink:href="../../de/d27/lgc_8c.html#ac881eb4d9ece02c3cefb86ed34879b6d" target="_top" xlink:title="sweeptolive">
<polygon fill="none" stroke="black" points="286,-153.448 286,-172.448 354,-172.448 354,-153.448 286,-153.448"/>
<text text-anchor="middle" x="320" y="-160.448" font-family="Helvetica,sans-Serif" font-size="10.00">sweeptolive</text>
</a>
</g>
</g>
<!-- Node3&#45;&gt;Node4 -->
<g id="edge3" class="edge"><title>Node3&#45;&gt;Node4</title>
<path fill="none" stroke="midnightblue" d="M260.189,-151.368C268.665,-153.037 277.597,-154.796 285.87,-156.425"/>
<polygon fill="midnightblue" stroke="midnightblue" points="260.641,-147.89 250.153,-149.392 259.288,-154.758 260.641,-147.89"/>
</g>
<!-- Node34 -->
<g id="node34" class="node"><title>Node34</title>
<g id="a_node34"><a xlink:href="../../de/d27/lgc_8c.html#ae34e22198155f5d365fe500d3735c150" target="_top" xlink:title="singlestep">
<polygon fill="none" stroke="black" points="523,-115.448 523,-134.448 582,-134.448 582,-115.448 523,-115.448"/>
<text text-anchor="middle" x="552.5" y="-122.448" font-family="Helvetica,sans-Serif" font-size="10.00">singlestep</text>
</a>
</g>
</g>
<!-- Node3&#45;&gt;Node34 -->
<g id="edge62" class="edge"><title>Node3&#45;&gt;Node34</title>
<path fill="none" stroke="midnightblue" d="M260.331,-141.763C326.93,-137.917 463.665,-130.02 522.99,-126.594"/>
<polygon fill="midnightblue" stroke="midnightblue" points="260.048,-138.273 250.267,-142.344 260.452,-145.262 260.048,-138.273"/>
</g>
<!-- Node5 -->
<g id="node5" class="node"><title>Node5</title>
<g id="a_node5"><a xlink:href="../../dc/d9c/lgc_8h.html#a15870c09448216ce5c4e1ff63d39e0a9" target="_top" xlink:title="luaC_checkfinalizer">
<polygon fill="none" stroke="black" points="390,-238.448 390,-257.448 487,-257.448 487,-238.448 390,-238.448"/>
<text text-anchor="middle" x="438.5" y="-245.448" font-family="Helvetica,sans-Serif" font-size="10.00">luaC_checkfinalizer</text>
</a>
</g>
</g>
<!-- Node4&#45;&gt;Node5 -->
<g id="edge4" class="edge"><title>Node4&#45;&gt;Node5</title>
<path fill="none" stroke="midnightblue" d="M342.49,-178.627C366.428,-196.092 404.371,-223.776 424.292,-238.311"/>
<polygon fill="midnightblue" stroke="midnightblue" points="344.505,-175.765 334.364,-172.698 340.379,-181.42 344.505,-175.765"/>
</g>
<!-- Node30 -->
<g id="node30" class="node"><title>Node30</title>
<g id="a_node30"><a xlink:href="../../de/d27/lgc_8c.html#a396e5acf2204119b6a78993fa368ec39" target="_top" xlink:title="entersweep">
<polygon fill="none" stroke="black" points="405,-58.4476 405,-77.4476 472,-77.4476 472,-58.4476 405,-58.4476"/>
<text text-anchor="middle" x="438.5" y="-65.4476" font-family="Helvetica,sans-Serif" font-size="10.00">entersweep</text>
</a>
</g>
</g>
<!-- Node4&#45;&gt;Node30 -->
<g id="edge32" class="edge"><title>Node4&#45;&gt;Node30</title>
<path fill="none" stroke="midnightblue" d="M340.921,-146.703C365.304,-126.819 405.8,-93.7974 425.71,-77.5616"/>
<polygon fill="midnightblue" stroke="midnightblue" points="338.567,-144.107 333.029,-153.139 342.991,-149.532 338.567,-144.107"/>
</g>
<!-- Node6 -->
<g id="node6" class="node"><title>Node6</title>
<g id="a_node6"><a xlink:href="../../da/dd2/lua_8h.html#a0b834b6a9cd96b141385df14bd0272a4" target="_top" xlink:title="lua_setmetatable">
<polygon fill="none" stroke="black" points="875.5,-391.448 875.5,-410.448 964.5,-410.448 964.5,-391.448 875.5,-391.448"/>
<text text-anchor="middle" x="920" y="-398.448" font-family="Helvetica,sans-Serif" font-size="10.00">lua_setmetatable</text>
</a>
</g>
</g>
<!-- Node5&#45;&gt;Node6 -->
<g id="edge5" class="edge"><title>Node5&#45;&gt;Node6</title>
<path fill="none" stroke="midnightblue" d="M479.161,-260.603C572.796,-290.48 805.946,-364.874 889.016,-391.38"/>
<polygon fill="midnightblue" stroke="midnightblue" points="480.086,-257.224 469.495,-257.518 477.958,-263.893 480.086,-257.224"/>
</g>
<!-- Node7 -->
<g id="node7" class="node"><title>Node7</title>
<g id="a_node7"><a xlink:href="../../d1/dc2/_kensho_lua_wrapper_8m.html#ac812f3eb3f83c6ada24f2dadeced6d68" target="_top" xlink:title="pushValue">
<polygon fill="none" stroke="black" points="1024.5,-467.448 1024.5,-486.448 1087.5,-486.448 1087.5,-467.448 1024.5,-467.448"/>
<text text-anchor="middle" x="1056" y="-474.448" font-family="Helvetica,sans-Serif" font-size="10.00">pushValue</text>
</a>
</g>
</g>
<!-- Node6&#45;&gt;Node7 -->
<g id="edge6" class="edge"><title>Node6&#45;&gt;Node7</title>
<path fill="none" stroke="midnightblue" d="M941.982,-416.376C959.176,-428.599 984.43,-445.614 1008,-457.948 1014.55,-461.375 1021.86,-464.599 1028.73,-467.384"/>
<polygon fill="midnightblue" stroke="midnightblue" points="943.938,-413.471 933.777,-410.47 939.849,-419.153 943.938,-413.471"/>
</g>
<!-- Node9 -->
<g id="node9" class="node"><title>Node9</title>
<g id="a_node9"><a xlink:href="../../dc/de7/interface_kensho_lua_wrapper.html#a7d10aa0242861cdd109d3da9383882a2" target="_top" xlink:title="&#45;[KenshoLuaWrapper\l evaluate]">
<polygon fill="none" stroke="black" points="1256,-477.948 1256,-507.948 1365,-507.948 1365,-477.948 1256,-477.948"/>
<text text-anchor="start" x="1264" y="-495.948" font-family="Helvetica,sans-Serif" font-size="10.00">&#45;[KenshoLuaWrapper</text>
<text text-anchor="middle" x="1310.5" y="-484.948" font-family="Helvetica,sans-Serif" font-size="10.00"> evaluate]</text>
</a>
</g>
</g>
<!-- Node6&#45;&gt;Node9 -->
<g id="edge16" class="edge"><title>Node6&#45;&gt;Node9</title>
<path fill="none" stroke="midnightblue" d="M931.278,-419.416C945.228,-442.346 972.538,-480.338 1008,-495.948 1088.61,-531.43 1193.49,-518.977 1255.93,-506.27"/>
<polygon fill="midnightblue" stroke="midnightblue" points="934.203,-417.484 926.133,-410.62 928.161,-421.019 934.203,-417.484"/>
</g>
<!-- Node15 -->
<g id="node15" class="node"><title>Node15</title>
<g id="a_node15"><a xlink:href="../../da/d29/lauxlib_8h.html#a4ef6497609d8cb52f8f4dc0ec489bb7a" target="_top" xlink:title="luaL_setmetatable">
<polygon fill="none" stroke="black" points="1008.5,-429.448 1008.5,-448.448 1103.5,-448.448 1103.5,-429.448 1008.5,-429.448"/>
<text text-anchor="middle" x="1056" y="-436.448" font-family="Helvetica,sans-Serif" font-size="10.00">luaL_setmetatable</text>
</a>
</g>
</g>
<!-- Node6&#45;&gt;Node15 -->
<g id="edge17" class="edge"><title>Node6&#45;&gt;Node15</title>
<path fill="none" stroke="midnightblue" d="M964.438,-413.266C982.849,-418.487 1003.98,-424.479 1021.2,-429.362"/>
<polygon fill="midnightblue" stroke="midnightblue" points="965.389,-409.898 954.814,-410.537 963.48,-416.632 965.389,-409.898"/>
</g>
<!-- Node24 -->
<g id="node24" class="node"><title>Node24</title>
<g id="a_node24"><a xlink:href="../../d8/dd3/lbaselib_8c.html#af7799a987ba6d158a96a52e80fb5beaf" target="_top" xlink:title="luaB_setmetatable">
<polygon fill="none" stroke="black" points="1008,-391.448 1008,-410.448 1104,-410.448 1104,-391.448 1008,-391.448"/>
<text text-anchor="middle" x="1056" y="-398.448" font-family="Helvetica,sans-Serif" font-size="10.00">luaB_setmetatable</text>
</a>
</g>
</g>
<!-- Node6&#45;&gt;Node24 -->
<g id="edge26" class="edge"><title>Node6&#45;&gt;Node24</title>
<path fill="none" stroke="midnightblue" d="M974.727,-400.948C985.584,-400.948 996.925,-400.948 1007.55,-400.948"/>
<polygon fill="midnightblue" stroke="midnightblue" points="974.506,-397.448 964.506,-400.948 974.506,-404.448 974.506,-397.448"/>
</g>
<!-- Node25 -->
<g id="node25" class="node"><title>Node25</title>
<g id="a_node25"><a xlink:href="../../d8/d97/ldblib_8c.html#a3595aee1af712c0ba9c586feb763bffc" target="_top" xlink:title="db_setmetatable">
<polygon fill="none" stroke="black" points="1012,-353.448 1012,-372.448 1100,-372.448 1100,-353.448 1012,-353.448"/>
<text text-anchor="middle" x="1056" y="-360.448" font-family="Helvetica,sans-Serif" font-size="10.00">db_setmetatable</text>
</a>
</g>
</g>
<!-- Node6&#45;&gt;Node25 -->
<g id="edge27" class="edge"><title>Node6&#45;&gt;Node25</title>
<path fill="none" stroke="midnightblue" d="M964.438,-388.629C982.849,-383.408 1003.98,-377.416 1021.2,-372.534"/>
<polygon fill="midnightblue" stroke="midnightblue" points="963.48,-385.263 954.814,-391.359 965.389,-391.998 963.48,-385.263"/>
</g>
<!-- Node26 -->
<g id="node26" class="node"><title>Node26</title>
<g id="a_node26"><a xlink:href="../../d8/d97/ldblib_8c.html#aa0c362d361f8f9bd8a002c34c393e2b0" target="_top" xlink:title="db_sethook">
<polygon fill="none" stroke="black" points="1023,-315.448 1023,-334.448 1089,-334.448 1089,-315.448 1023,-315.448"/>
<text text-anchor="middle" x="1056" y="-322.448" font-family="Helvetica,sans-Serif" font-size="10.00">db_sethook</text>
</a>
</g>
</g>
<!-- Node6&#45;&gt;Node26 -->
<g id="edge28" class="edge"><title>Node6&#45;&gt;Node26</title>
<path fill="none" stroke="midnightblue" d="M941.982,-385.52C959.176,-373.296 984.43,-356.281 1008,-343.948 1014.55,-340.52 1021.86,-337.296 1028.73,-334.511"/>
<polygon fill="midnightblue" stroke="midnightblue" points="939.849,-382.743 933.777,-391.425 943.938,-388.424 939.849,-382.743"/>
</g>
<!-- Node27 -->
<g id="node27" class="node"><title>Node27</title>
<g id="a_node27"><a xlink:href="../../d6/d07/lualib_8h.html#a05e0befc0439f926b6152129ab4f8dea" target="_top" xlink:title="luaopen_package">
<polygon fill="none" stroke="black" points="1009,-277.448 1009,-296.448 1103,-296.448 1103,-277.448 1009,-277.448"/>
<text text-anchor="middle" x="1056" y="-284.448" font-family="Helvetica,sans-Serif" font-size="10.00">luaopen_package</text>
</a>
</g>
</g>
<!-- Node6&#45;&gt;Node27 -->
<g id="edge29" class="edge"><title>Node6&#45;&gt;Node27</title>
<path fill="none" stroke="midnightblue" d="M933.559,-382.953C948.984,-361.994 976.952,-327.498 1008,-305.948 1013.35,-302.234 1019.53,-299.08 1025.62,-296.472"/>
<polygon fill="midnightblue" stroke="midnightblue" points="930.565,-381.122 927.565,-391.283 936.247,-385.21 930.565,-381.122"/>
</g>
<!-- Node28 -->
<g id="node28" class="node"><title>Node28</title>
<g id="a_node28"><a xlink:href="../../dc/d77/lstrlib_8c.html#a16d034da6b46e6beae228472f26ec07b" target="_top" xlink:title="createmetatable">
<polygon fill="none" stroke="black" points="1014,-543.448 1014,-562.448 1098,-562.448 1098,-543.448 1014,-543.448"/>
<text text-anchor="middle" x="1056" y="-550.448" font-family="Helvetica,sans-Serif" font-size="10.00">createmetatable</text>
</a>
</g>
</g>
<!-- Node6&#45;&gt;Node28 -->
<g id="edge30" class="edge"><title>Node6&#45;&gt;Node28</title>
<path fill="none" stroke="midnightblue" d="M929.861,-419.631C943.454,-446.665 971.733,-496.948 1008,-528.948 1014.6,-534.767 1022.85,-539.597 1030.6,-543.361"/>
<polygon fill="midnightblue" stroke="midnightblue" points="932.927,-417.934 925.384,-410.495 926.641,-421.014 932.927,-417.934"/>
</g>
<!-- Node8 -->
<g id="node8" class="node"><title>Node8</title>
<g id="a_node8"><a xlink:href="../../d1/dc2/_kensho_lua_wrapper_8m.html#ad10bf0ff4feac9642e7477e282be41fe" target="_top" xlink:title="lookupKey">
<polygon fill="none" stroke="black" points="1149,-467.448 1149,-486.448 1211,-486.448 1211,-467.448 1149,-467.448"/>
<text text-anchor="middle" x="1180" y="-474.448" font-family="Helvetica,sans-Serif" font-size="10.00">lookupKey</text>
</a>
</g>
</g>
<!-- Node7&#45;&gt;Node8 -->
<g id="edge7" class="edge"><title>Node7&#45;&gt;Node8</title>
<path fill="none" stroke="midnightblue" d="M1097.79,-470.538C1114.41,-469.958 1133.28,-470.119 1148.65,-471.02"/>
<polygon fill="midnightblue" stroke="midnightblue" points="1097.62,-467.042 1087.79,-470.995 1097.94,-474.035 1097.62,-467.042"/>
</g>
<!-- Node8&#45;&gt;Node7 -->
<g id="edge15" class="edge"><title>Node8&#45;&gt;Node7</title>
<path fill="none" stroke="midnightblue" d="M1138.21,-483.357C1121.75,-483.932 1103.07,-483.779 1087.79,-482.9"/>
<polygon fill="midnightblue" stroke="midnightblue" points="1138.82,-486.833 1148.65,-482.875 1138.5,-479.84 1138.82,-486.833"/>
</g>
<!-- Node8&#45;&gt;Node9 -->
<g id="edge8" class="edge"><title>Node8&#45;&gt;Node9</title>
<path fill="none" stroke="midnightblue" d="M1221.27,-481.961C1232.24,-483.328 1244.31,-484.83 1255.9,-486.273"/>
<polygon fill="midnightblue" stroke="midnightblue" points="1221.48,-478.461 1211.13,-480.699 1220.62,-485.408 1221.48,-478.461"/>
</g>
<!-- Node10 -->
<g id="node10" class="node"><title>Node10</title>
<g id="a_node10"><a xlink:href="../../dc/de7/interface_kensho_lua_wrapper.html#af6db46358f8858a18b55388aa3af211d" target="_top" xlink:title="&#45;[KenshoLuaWrapper\l initWithKensho:context\l:code:]">
<polygon fill="none" stroke="black" points="1401,-425.448 1401,-466.448 1515,-466.448 1515,-425.448 1401,-425.448"/>
<text text-anchor="start" x="1409" y="-454.448" font-family="Helvetica,sans-Serif" font-size="10.00">&#45;[KenshoLuaWrapper</text>
<text text-anchor="start" x="1409" y="-443.448" font-family="Helvetica,sans-Serif" font-size="10.00"> initWithKensho:context</text>
<text text-anchor="middle" x="1458" y="-432.448" font-family="Helvetica,sans-Serif" font-size="10.00">:code:]</text>
</a>
</g>
</g>
<!-- Node9&#45;&gt;Node10 -->
<g id="edge9" class="edge"><title>Node9&#45;&gt;Node10</title>
<path fill="none" stroke="midnightblue" d="M1367.73,-474.783C1378.59,-471.276 1389.97,-467.601 1400.82,-464.095"/>
<polygon fill="midnightblue" stroke="midnightblue" points="1366.38,-471.543 1357.94,-477.947 1368.53,-478.204 1366.38,-471.543"/>
</g>
<!-- Node11 -->
<g id="node11" class="node"><title>Node11</title>
<g id="a_node11"><a xlink:href="../../dc/de7/interface_kensho_lua_wrapper.html#a5555e0979799446611baee70104555c6" target="_top" xlink:title="&#45;[KenshoLuaWrapper\l evaluate:]">
<polygon fill="none" stroke="black" points="1403.5,-534.948 1403.5,-564.948 1512.5,-564.948 1512.5,-534.948 1403.5,-534.948"/>
<text text-anchor="start" x="1411.5" y="-552.948" font-family="Helvetica,sans-Serif" font-size="10.00">&#45;[KenshoLuaWrapper</text>
<text text-anchor="middle" x="1458" y="-541.948" font-family="Helvetica,sans-Serif" font-size="10.00"> evaluate:]</text>
</a>
</g>
</g>
<!-- Node9&#45;&gt;Node11 -->
<g id="edge10" class="edge"><title>Node9&#45;&gt;Node11</title>
<path fill="none" stroke="midnightblue" d="M1359.55,-511.773C1378.68,-519.266 1400.4,-527.773 1418.46,-534.851"/>
<polygon fill="midnightblue" stroke="midnightblue" points="1360.7,-508.462 1350.11,-508.073 1358.14,-514.979 1360.7,-508.462"/>
</g>
<!-- Node14 -->
<g id="node14" class="node"><title>Node14</title>
<g id="a_node14"><a xlink:href="../../dc/de7/interface_kensho_lua_wrapper.html#a0bb5e125d727942726d707f8b59009dc" target="_top" xlink:title="&#45;[KenshoLuaWrapper\l observableUpdated:]">
<polygon fill="none" stroke="black" points="1403.5,-485.948 1403.5,-515.948 1512.5,-515.948 1512.5,-485.948 1403.5,-485.948"/>
<text text-anchor="start" x="1411.5" y="-503.948" font-family="Helvetica,sans-Serif" font-size="10.00">&#45;[KenshoLuaWrapper</text>
<text text-anchor="middle" x="1458" y="-492.948" font-family="Helvetica,sans-Serif" font-size="10.00"> observableUpdated:]</text>
</a>
</g>
</g>
<!-- Node9&#45;&gt;Node14 -->
<g id="edge14" class="edge"><title>Node9&#45;&gt;Node14</title>
<path fill="none" stroke="midnightblue" d="M1375.34,-496.458C1384.72,-496.974 1394.31,-497.501 1403.46,-498.004"/>
<polygon fill="midnightblue" stroke="midnightblue" points="1375.44,-492.958 1365.27,-495.904 1375.06,-499.948 1375.44,-492.958"/>
</g>
<!-- Node12 -->
<g id="node12" class="node"><title>Node12</title>
<g id="a_node12"><a xlink:href="../../da/d0b/interface_kensho.html#a07b4d14db676108e1a94a1f10e100fb4" target="_top" xlink:title="&#45;[Kensho bindToView\l:context:]">
<polygon fill="none" stroke="black" points="1551,-534.948 1551,-564.948 1659,-564.948 1659,-534.948 1551,-534.948"/>
<text text-anchor="start" x="1559" y="-552.948" font-family="Helvetica,sans-Serif" font-size="10.00">&#45;[Kensho bindToView</text>
<text text-anchor="middle" x="1605" y="-541.948" font-family="Helvetica,sans-Serif" font-size="10.00">:context:]</text>
</a>
</g>
</g>
<!-- Node11&#45;&gt;Node12 -->
<g id="edge11" class="edge"><title>Node11&#45;&gt;Node12</title>
<path fill="none" stroke="midnightblue" d="M1522.62,-549.948C1531.97,-549.948 1541.52,-549.948 1550.64,-549.948"/>
<polygon fill="midnightblue" stroke="midnightblue" points="1522.58,-546.448 1512.58,-549.948 1522.58,-553.448 1522.58,-546.448"/>
</g>
<!-- Node12&#45;&gt;Node12 -->
<g id="edge13" class="edge"><title>Node12&#45;&gt;Node12</title>
<path fill="none" stroke="midnightblue" d="M1579.06,-575.406C1582.28,-580.127 1590.92,-583.448 1605,-583.448 1628.1,-583.448 1636.58,-574.504 1630.44,-565.107"/>
<polygon fill="midnightblue" stroke="midnightblue" points="1582.57,-575.264 1579.56,-565.107 1575.58,-574.926 1582.57,-575.264"/>
</g>
<!-- Node13 -->
<g id="node13" class="node"><title>Node13</title>
<g id="a_node13"><a xlink:href="../../da/d0b/interface_kensho.html#a1019e8223ee907bab87501ae483e609f" target="_top" xlink:title="&#45;[Kensho applyBindings\l:viewModel:]">
<polygon fill="none" stroke="black" points="1695,-534.948 1695,-564.948 1814,-564.948 1814,-534.948 1695,-534.948"/>
<text text-anchor="start" x="1703" y="-552.948" font-family="Helvetica,sans-Serif" font-size="10.00">&#45;[Kensho applyBindings</text>
<text text-anchor="middle" x="1754.5" y="-541.948" font-family="Helvetica,sans-Serif" font-size="10.00">:viewModel:]</text>
</a>
</g>
</g>
<!-- Node12&#45;&gt;Node13 -->
<g id="edge12" class="edge"><title>Node12&#45;&gt;Node13</title>
<path fill="none" stroke="midnightblue" d="M1669.42,-549.948C1677.86,-549.948 1686.48,-549.948 1694.83,-549.948"/>
<polygon fill="midnightblue" stroke="midnightblue" points="1669.25,-546.448 1659.25,-549.948 1669.25,-553.448 1669.25,-546.448"/>
</g>
<!-- Node16 -->
<g id="node16" class="node"><title>Node16</title>
<g id="a_node16"><a xlink:href="../../de/df3/liolib_8c.html#ab456fc51383d039a5a24c702060aba8e" target="_top" xlink:title="newprefile">
<polygon fill="none" stroke="black" points="1150.5,-353.448 1150.5,-372.448 1209.5,-372.448 1209.5,-353.448 1150.5,-353.448"/>
<text text-anchor="middle" x="1180" y="-360.448" font-family="Helvetica,sans-Serif" font-size="10.00">newprefile</text>
</a>
</g>
</g>
<!-- Node15&#45;&gt;Node16 -->
<g id="edge18" class="edge"><title>Node15&#45;&gt;Node16</title>
<path fill="none" stroke="midnightblue" d="M1094.76,-425.108C1097.96,-423.511 1101.08,-421.789 1104,-419.948 1122.35,-408.362 1122.68,-400.028 1140,-386.948 1146.85,-381.773 1154.86,-376.693 1161.84,-372.549"/>
<polygon fill="midnightblue" stroke="midnightblue" points="1093.28,-421.933 1085.64,-429.272 1096.19,-428.3 1093.28,-421.933"/>
</g>
<!-- Node17 -->
<g id="node17" class="node"><title>Node17</title>
<g id="a_node17"><a xlink:href="../../de/df3/liolib_8c.html#a57c6c258a611b738f0ef34584ca6e7ab" target="_top" xlink:title="newfile">
<polygon fill="none" stroke="black" points="1287.5,-349.448 1287.5,-368.448 1333.5,-368.448 1333.5,-349.448 1287.5,-349.448"/>
<text text-anchor="middle" x="1310.5" y="-356.448" font-family="Helvetica,sans-Serif" font-size="10.00">newfile</text>
</a>
</g>
</g>
<!-- Node16&#45;&gt;Node17 -->
<g id="edge19" class="edge"><title>Node16&#45;&gt;Node17</title>
<path fill="none" stroke="midnightblue" d="M1219.63,-361.745C1241.81,-361.055 1268.85,-360.213 1287.44,-359.634"/>
<polygon fill="midnightblue" stroke="midnightblue" points="1219.4,-358.25 1209.52,-362.06 1219.62,-365.247 1219.4,-358.25"/>
</g>
<!-- Node21 -->
<g id="node21" class="node"><title>Node21</title>
<g id="a_node21"><a xlink:href="../../de/df3/liolib_8c.html#a8cc0b2b08409fb97e5cc80a0caf9b5fd" target="_top" xlink:title="io_popen">
<polygon fill="none" stroke="black" points="1282.5,-311.448 1282.5,-330.448 1338.5,-330.448 1338.5,-311.448 1282.5,-311.448"/>
<text text-anchor="middle" x="1310.5" y="-318.448" font-family="Helvetica,sans-Serif" font-size="10.00">io_popen</text>
</a>
</g>
</g>
<!-- Node16&#45;&gt;Node21 -->
<g id="edge23" class="edge"><title>Node16&#45;&gt;Node21</title>
<path fill="none" stroke="midnightblue" d="M1219.12,-350.489C1239.46,-343.841 1264,-335.818 1282.38,-329.811"/>
<polygon fill="midnightblue" stroke="midnightblue" points="1217.94,-347.193 1209.52,-353.626 1220.11,-353.846 1217.94,-347.193"/>
</g>
<!-- Node22 -->
<g id="node22" class="node"><title>Node22</title>
<g id="a_node22"><a xlink:href="../../de/df3/liolib_8c.html#a0a80ad2f9dbb3b7238efae7738bb7569" target="_top" xlink:title="createstdfile">
<polygon fill="none" stroke="black" points="1278,-387.448 1278,-406.448 1343,-406.448 1343,-387.448 1278,-387.448"/>
<text text-anchor="middle" x="1310.5" y="-394.448" font-family="Helvetica,sans-Serif" font-size="10.00">createstdfile</text>
</a>
</g>
</g>
<!-- Node16&#45;&gt;Node22 -->
<g id="edge24" class="edge"><title>Node16&#45;&gt;Node22</title>
<path fill="none" stroke="midnightblue" d="M1219.21,-373.059C1237.92,-378.009 1260.17,-383.896 1277.91,-388.588"/>
<polygon fill="midnightblue" stroke="midnightblue" points="1220.08,-369.668 1209.52,-370.493 1218.29,-376.435 1220.08,-369.668"/>
</g>
<!-- Node18 -->
<g id="node18" class="node"><title>Node18</title>
<g id="a_node18"><a xlink:href="../../de/df3/liolib_8c.html#a91ec9c6fa0ef33085f29a15532ac80a7" target="_top" xlink:title="opencheck">
<polygon fill="none" stroke="red" points="1427,-311.448 1427,-330.448 1489,-330.448 1489,-311.448 1427,-311.448"/>
<text text-anchor="middle" x="1458" y="-318.448" font-family="Helvetica,sans-Serif" font-size="10.00">opencheck</text>
</a>
</g>
</g>
<!-- Node17&#45;&gt;Node18 -->
<g id="edge20" class="edge"><title>Node17&#45;&gt;Node18</title>
<path fill="none" stroke="midnightblue" d="M1343.28,-350.648C1368.12,-344.16 1402.42,-335.201 1426.84,-328.824"/>
<polygon fill="midnightblue" stroke="midnightblue" points="1342.39,-347.263 1333.6,-353.176 1344.16,-354.036 1342.39,-347.263"/>
</g>
<!-- Node19 -->
<g id="node19" class="node"><title>Node19</title>
<g id="a_node19"><a xlink:href="../../de/df3/liolib_8c.html#ab4a969d43dbe0f89e98307e5b421f8a7" target="_top" xlink:title="io_open">
<polygon fill="none" stroke="black" points="1433,-273.448 1433,-292.448 1483,-292.448 1483,-273.448 1433,-273.448"/>
<text text-anchor="middle" x="1458" y="-280.448" font-family="Helvetica,sans-Serif" font-size="10.00">io_open</text>
</a>
</g>
</g>
<!-- Node17&#45;&gt;Node19 -->
<g id="edge21" class="edge"><title>Node17&#45;&gt;Node19</title>
<path fill="none" stroke="midnightblue" d="M1343.23,-350.448C1350.7,-347.713 1358.39,-344.246 1365,-339.948 1384.5,-327.26 1381.41,-314.497 1401,-301.948 1410.68,-295.745 1422.61,-291.333 1432.97,-288.332"/>
<polygon fill="midnightblue" stroke="midnightblue" points="1342.05,-347.153 1333.66,-353.631 1344.26,-353.795 1342.05,-347.153"/>
</g>
<!-- Node20 -->
<g id="node20" class="node"><title>Node20</title>
<g id="a_node20"><a xlink:href="../../de/df3/liolib_8c.html#a0347de9dda8be02044075c96482eddb3" target="_top" xlink:title="io_tmpfile">
<polygon fill="none" stroke="black" points="1430.5,-349.448 1430.5,-368.448 1485.5,-368.448 1485.5,-349.448 1430.5,-349.448"/>
<text text-anchor="middle" x="1458" y="-356.448" font-family="Helvetica,sans-Serif" font-size="10.00">io_tmpfile</text>
</a>
</g>
</g>
<!-- Node17&#45;&gt;Node20 -->
<g id="edge22" class="edge"><title>Node17&#45;&gt;Node20</title>
<path fill="none" stroke="midnightblue" d="M1343.74,-358.948C1369.81,-358.948 1406.08,-358.948 1430.49,-358.948"/>
<polygon fill="midnightblue" stroke="midnightblue" points="1343.6,-355.448 1333.6,-358.948 1343.6,-362.448 1343.6,-355.448"/>
</g>
<!-- Node23 -->
<g id="node23" class="node"><title>Node23</title>
<g id="a_node23"><a xlink:href="../../d6/d07/lualib_8h.html#a686b841d953f3113ddc7538d69debce7" target="_top" xlink:title="luaopen_io">
<polygon fill="none" stroke="black" points="1426.5,-387.448 1426.5,-406.448 1489.5,-406.448 1489.5,-387.448 1426.5,-387.448"/>
<text text-anchor="middle" x="1458" y="-394.448" font-family="Helvetica,sans-Serif" font-size="10.00">luaopen_io</text>
</a>
</g>
</g>
<!-- Node22&#45;&gt;Node23 -->
<g id="edge25" class="edge"><title>Node22&#45;&gt;Node23</title>
<path fill="none" stroke="midnightblue" d="M1353.38,-396.948C1376.73,-396.948 1405.27,-396.948 1426.49,-396.948"/>
<polygon fill="midnightblue" stroke="midnightblue" points="1353.07,-393.448 1343.07,-396.948 1353.07,-400.448 1353.07,-393.448"/>
</g>
<!-- Node29 -->
<g id="node29" class="node"><title>Node29</title>
<g id="a_node29"><a xlink:href="../../d6/d07/lualib_8h.html#a3cc052c1be81497507ee76524482eaec" target="_top" xlink:title="luaopen_string">
<polygon fill="none" stroke="black" points="1141,-543.448 1141,-562.448 1219,-562.448 1219,-543.448 1141,-543.448"/>
<text text-anchor="middle" x="1180" y="-550.448" font-family="Helvetica,sans-Serif" font-size="10.00">luaopen_string</text>
</a>
</g>
</g>
<!-- Node28&#45;&gt;Node29 -->
<g id="edge31" class="edge"><title>Node28&#45;&gt;Node29</title>
<path fill="none" stroke="midnightblue" d="M1108.46,-552.948C1119.24,-552.948 1130.42,-552.948 1140.62,-552.948"/>
<polygon fill="midnightblue" stroke="midnightblue" points="1108.3,-549.448 1098.3,-552.948 1108.3,-556.448 1108.3,-549.448"/>
</g>
<!-- Node31 -->
<g id="node31" class="node"><title>Node31</title>
<g id="a_node31"><a xlink:href="../../dc/d9c/lgc_8h.html#af016fe72ab7e564d7d55e7e4fb659041" target="_top" xlink:title="luaC_changemode">
<polygon fill="none" stroke="black" points="735,-11.4476 735,-30.4476 832,-30.4476 832,-11.4476 735,-11.4476"/>
<text text-anchor="middle" x="783.5" y="-18.4476" font-family="Helvetica,sans-Serif" font-size="10.00">luaC_changemode</text>
</a>
</g>
</g>
<!-- Node30&#45;&gt;Node31 -->
<g id="edge33" class="edge"><title>Node30&#45;&gt;Node31</title>
<path fill="none" stroke="midnightblue" d="M482.275,-62.0863C546.619,-53.2696 667.898,-36.6512 734.94,-27.4646"/>
<polygon fill="midnightblue" stroke="midnightblue" points="481.51,-58.6583 472.078,-63.4836 482.46,-65.5935 481.51,-58.6583"/>
</g>
<!-- Node30&#45;&gt;Node34 -->
<g id="edge36" class="edge"><title>Node30&#45;&gt;Node34</title>
<path fill="none" stroke="midnightblue" d="M467.358,-82.1254C487.733,-92.4947 514.824,-106.282 532.693,-115.376"/>
<polygon fill="midnightblue" stroke="midnightblue" points="468.746,-78.9046 458.246,-77.4881 465.571,-85.1431 468.746,-78.9046"/>
</g>
<!-- Node39 -->
<g id="node39" class="node"><title>Node39</title>
<g id="a_node39"><a xlink:href="../../dc/d9c/lgc_8h.html#aa0b753c3ed80e1eed0379ec58592c404" target="_top" xlink:title="luaC_fullgc">
<polygon fill="none" stroke="black" points="752.5,-49.4476 752.5,-68.4476 814.5,-68.4476 814.5,-49.4476 752.5,-49.4476"/>
<text text-anchor="middle" x="783.5" y="-56.4476" font-family="Helvetica,sans-Serif" font-size="10.00">luaC_fullgc</text>
</a>
</g>
</g>
<!-- Node30&#45;&gt;Node39 -->
<g id="edge61" class="edge"><title>Node30&#45;&gt;Node39</title>
<path fill="none" stroke="midnightblue" d="M482.354,-66.8232C552.693,-64.9775 690.922,-61.3505 752.115,-59.7449"/>
<polygon fill="midnightblue" stroke="midnightblue" points="481.983,-63.3316 472.078,-67.0928 482.166,-70.3292 481.983,-63.3316"/>
</g>
<!-- Node32 -->
<g id="node32" class="node"><title>Node32</title>
<g id="a_node32"><a xlink:href="../../da/dd2/lua_8h.html#a6bac487d3f900b21271e8c591bd801cd" target="_top" xlink:title="lua_gc">
<polygon fill="none" stroke="black" points="1158,-11.4476 1158,-30.4476 1202,-30.4476 1202,-11.4476 1158,-11.4476"/>
<text text-anchor="middle" x="1180" y="-18.4476" font-family="Helvetica,sans-Serif" font-size="10.00">lua_gc</text>
</a>
</g>
</g>
<!-- Node31&#45;&gt;Node32 -->
<g id="edge34" class="edge"><title>Node31&#45;&gt;Node32</title>
<path fill="none" stroke="midnightblue" d="M842.063,-10.014C850.726,-8.74131 859.577,-7.64881 868,-6.94761 972.527,1.75442 999.557,2.71691 1104,-6.94761 1122.33,-8.64406 1142.87,-12.6257 1157.81,-15.9108"/>
<polygon fill="midnightblue" stroke="midnightblue" points="841.359,-6.58121 832.017,-11.578 842.436,-13.4979 841.359,-6.58121"/>
</g>
<!-- Node33 -->
<g id="node33" class="node"><title>Node33</title>
<g id="a_node33"><a xlink:href="../../d8/dd3/lbaselib_8c.html#a07f71966c943cc9761ab129f64d4ac80" target="_top" xlink:title="luaB_collectgarbage">
<polygon fill="none" stroke="black" points="1259.5,-11.4476 1259.5,-30.4476 1361.5,-30.4476 1361.5,-11.4476 1259.5,-11.4476"/>
<text text-anchor="middle" x="1310.5" y="-18.4476" font-family="Helvetica,sans-Serif" font-size="10.00">luaB_collectgarbage</text>
</a>
</g>
</g>
<!-- Node32&#45;&gt;Node33 -->
<g id="edge35" class="edge"><title>Node32&#45;&gt;Node33</title>
<path fill="none" stroke="midnightblue" d="M1212.39,-20.9476C1226.52,-20.9476 1243.55,-20.9476 1259.38,-20.9476"/>
<polygon fill="midnightblue" stroke="midnightblue" points="1212.22,-17.4477 1202.22,-20.9476 1212.22,-24.4477 1212.22,-17.4477"/>
</g>
<!-- Node35 -->
<g id="node35" class="node"><title>Node35</title>
<g id="a_node35"><a xlink:href="../../dc/d9c/lgc_8h.html#a1da32357417ce5766ed5e3ada033c32f" target="_top" xlink:title="luaC_runtilstate">
<polygon fill="none" stroke="black" points="618,-87.4476 618,-106.448 699,-106.448 699,-87.4476 618,-87.4476"/>
<text text-anchor="middle" x="658.5" y="-94.4476" font-family="Helvetica,sans-Serif" font-size="10.00">luaC_runtilstate</text>
</a>
</g>
</g>
<!-- Node34&#45;&gt;Node35 -->
<g id="edge37" class="edge"><title>Node34&#45;&gt;Node35</title>
<path fill="none" stroke="midnightblue" d="M592.052,-114.568C601.808,-111.942 612.242,-109.132 621.848,-106.546"/>
<polygon fill="midnightblue" stroke="midnightblue" points="590.94,-111.243 582.194,-117.222 592.76,-118.002 590.94,-111.243"/>
</g>
<!-- Node50 -->
<g id="node50" class="node"><title>Node50</title>
<g id="a_node50"><a xlink:href="../../de/d27/lgc_8c.html#a7515a46e25b277cbbe7febb4d06b196a" target="_top" xlink:title="incstep">
<polygon fill="none" stroke="black" points="635,-163.448 635,-182.448 682,-182.448 682,-163.448 635,-163.448"/>
<text text-anchor="middle" x="658.5" y="-170.448" font-family="Helvetica,sans-Serif" font-size="10.00">incstep</text>
</a>
</g>
</g>
<!-- Node34&#45;&gt;Node50 -->
<g id="edge59" class="edge"><title>Node34&#45;&gt;Node50</title>
<path fill="none" stroke="midnightblue" d="M584.054,-139.05C601.051,-146.894 621.753,-156.449 636.84,-163.412"/>
<polygon fill="midnightblue" stroke="midnightblue" points="585.092,-135.674 574.546,-134.661 582.159,-142.03 585.092,-135.674"/>
</g>
<!-- Node35&#45;&gt;Node31 -->
<g id="edge38" class="edge"><title>Node35&#45;&gt;Node31</title>
<path fill="none" stroke="midnightblue" d="M678.448,-80.3796C693.152,-68.0994 714.432,-51.5494 735,-39.9476 741.189,-36.4567 748.148,-33.2921 754.792,-30.5908"/>
<polygon fill="midnightblue" stroke="midnightblue" points="675.957,-77.9033 670.605,-87.0469 680.491,-83.2365 675.957,-77.9033"/>
</g>
<!-- Node36 -->
<g id="node36" class="node"><title>Node36</title>
<g id="a_node36"><a xlink:href="../../de/d27/lgc_8c.html#a87bb9d2ca4bed013c39258f8abd61689" target="_top" xlink:title="generationalcollection">
<polygon fill="none" stroke="black" points="868,-87.4476 868,-106.448 972,-106.448 972,-87.4476 868,-87.4476"/>
<text text-anchor="middle" x="920" y="-94.4476" font-family="Helvetica,sans-Serif" font-size="10.00">generationalcollection</text>
</a>
</g>
</g>
<!-- Node35&#45;&gt;Node36 -->
<g id="edge39" class="edge"><title>Node35&#45;&gt;Node36</title>
<path fill="none" stroke="midnightblue" d="M709.413,-96.9476C754.892,-96.9476 821.778,-96.9476 867.689,-96.9476"/>
<polygon fill="midnightblue" stroke="midnightblue" points="709.195,-93.4477 699.195,-96.9476 709.195,-100.448 709.195,-93.4477"/>
</g>
<!-- Node35&#45;&gt;Node39 -->
<g id="edge43" class="edge"><title>Node35&#45;&gt;Node39</title>
<path fill="none" stroke="midnightblue" d="M700.225,-84.3658C717.228,-79.113 736.631,-73.1187 752.322,-68.2708"/>
<polygon fill="midnightblue" stroke="midnightblue" points="699.059,-81.0627 690.538,-87.3586 701.126,-87.7508 699.059,-81.0627"/>
</g>
<!-- Node41 -->
<g id="node41" class="node"><title>Node41</title>
<g id="a_node41"><a xlink:href="../../d4/dfb/lstring_8h.html#a44d549eb0ace165927a896f37330e2cd" target="_top" xlink:title="luaS_resize">
<polygon fill="none" stroke="black" points="750.5,-201.448 750.5,-220.448 816.5,-220.448 816.5,-201.448 750.5,-201.448"/>
<text text-anchor="middle" x="783.5" y="-208.448" font-family="Helvetica,sans-Serif" font-size="10.00">luaS_resize</text>
</a>
</g>
</g>
<!-- Node35&#45;&gt;Node41 -->
<g id="edge47" class="edge"><title>Node35&#45;&gt;Node41</title>
<path fill="none" stroke="midnightblue" d="M677.323,-113.466C703.366,-137.604 751.002,-181.755 772.04,-201.253"/>
<polygon fill="midnightblue" stroke="midnightblue" points="679.7,-110.898 669.987,-106.667 674.942,-116.032 679.7,-110.898"/>
</g>
<!-- Node37 -->
<g id="node37" class="node"><title>Node37</title>
<g id="a_node37"><a xlink:href="../../dc/d9c/lgc_8h.html#a19359957605d7c8eaf70803e5b77361f" target="_top" xlink:title="luaC_forcestep">
<polygon fill="none" stroke="black" points="1016,-87.4476 1016,-106.448 1096,-106.448 1096,-87.4476 1016,-87.4476"/>
<text text-anchor="middle" x="1056" y="-94.4476" font-family="Helvetica,sans-Serif" font-size="10.00">luaC_forcestep</text>
</a>
</g>
</g>
<!-- Node36&#45;&gt;Node37 -->
<g id="edge40" class="edge"><title>Node36&#45;&gt;Node37</title>
<path fill="none" stroke="midnightblue" d="M982.371,-96.9476C993.727,-96.9476 1005.3,-96.9476 1015.77,-96.9476"/>
<polygon fill="midnightblue" stroke="midnightblue" points="982.042,-93.4477 972.042,-96.9476 982.042,-100.448 982.042,-93.4477"/>
</g>
<!-- Node37&#45;&gt;Node32 -->
<g id="edge41" class="edge"><title>Node37&#45;&gt;Node32</title>
<path fill="none" stroke="midnightblue" d="M1081.17,-81.8908C1105.7,-66.6096 1142.93,-43.4165 1163.67,-30.4949"/>
<polygon fill="midnightblue" stroke="midnightblue" points="1079.09,-79.0639 1072.45,-87.3222 1082.79,-85.0054 1079.09,-79.0639"/>
</g>
<!-- Node38 -->
<g id="node38" class="node"><title>Node38</title>
<g id="a_node38"><a xlink:href="../../dc/d9c/lgc_8h.html#a6c71cc4b9e503c0e96c0c4ffcff93900" target="_top" xlink:title="luaC_step">
<polygon fill="none" stroke="black" points="1149.5,-87.4476 1149.5,-106.448 1210.5,-106.448 1210.5,-87.4476 1149.5,-87.4476"/>
<text text-anchor="middle" x="1180" y="-94.4476" font-family="Helvetica,sans-Serif" font-size="10.00">luaC_step</text>
</a>
</g>
</g>
<!-- Node37&#45;&gt;Node38 -->
<g id="edge42" class="edge"><title>Node37&#45;&gt;Node38</title>
<path fill="none" stroke="midnightblue" d="M1106.65,-96.9476C1121.19,-96.9476 1136.62,-96.9476 1149.48,-96.9476"/>
<polygon fill="midnightblue" stroke="midnightblue" points="1106.27,-93.4477 1096.27,-96.9476 1106.27,-100.448 1106.27,-93.4477"/>
</g>
<!-- Node39&#45;&gt;Node32 -->
<g id="edge44" class="edge"><title>Node39&#45;&gt;Node32</title>
<path fill="none" stroke="midnightblue" d="M824.845,-48.3746C838.464,-45.1789 853.81,-41.9817 868,-39.9476 976.164,-24.4427 1107.27,-21.5767 1157.76,-21.0575"/>
<polygon fill="midnightblue" stroke="midnightblue" points="823.713,-45.0472 814.815,-50.7987 825.358,-51.8513 823.713,-45.0472"/>
</g>
<!-- Node39&#45;&gt;Node36 -->
<g id="edge45" class="edge"><title>Node39&#45;&gt;Node36</title>
<path fill="none" stroke="midnightblue" d="M824.413,-70.2243C843.732,-75.6824 866.679,-82.1653 885.132,-87.3789"/>
<polygon fill="midnightblue" stroke="midnightblue" points="825.259,-66.8263 814.684,-67.4756 823.356,-73.5626 825.259,-66.8263"/>
</g>
<!-- Node40 -->
<g id="node40" class="node"><title>Node40</title>
<g id="a_node40"><a xlink:href="../../d7/d3e/lmem_8h.html#ae7dc8a57fc5dbca825653a88a356a72d" target="_top" xlink:title="luaM_realloc_">
<polygon fill="none" stroke="black" points="883,-49.4476 883,-68.4476 957,-68.4476 957,-49.4476 883,-49.4476"/>
<text text-anchor="middle" x="920" y="-56.4476" font-family="Helvetica,sans-Serif" font-size="10.00">luaM_realloc_</text>
</a>
</g>
</g>
<!-- Node39&#45;&gt;Node40 -->
<g id="edge46" class="edge"><title>Node39&#45;&gt;Node40</title>
<path fill="none" stroke="midnightblue" d="M824.808,-58.9476C843.202,-58.9476 864.817,-58.9476 882.699,-58.9476"/>
<polygon fill="midnightblue" stroke="midnightblue" points="824.684,-55.4477 814.684,-58.9476 824.684,-62.4477 824.684,-55.4477"/>
</g>
<!-- Node42 -->
<g id="node42" class="node"><title>Node42</title>
<g id="a_node42"><a xlink:href="../../de/d27/lgc_8c.html#aace8516e609d7409e789e7b2c190b9c2" target="_top" xlink:title="checkSizes">
<polygon fill="none" stroke="black" points="887.5,-125.448 887.5,-144.448 952.5,-144.448 952.5,-125.448 887.5,-125.448"/>
<text text-anchor="middle" x="920" y="-132.448" font-family="Helvetica,sans-Serif" font-size="10.00">checkSizes</text>
</a>
</g>
</g>
<!-- Node41&#45;&gt;Node42 -->
<g id="edge48" class="edge"><title>Node41&#45;&gt;Node42</title>
<path fill="none" stroke="midnightblue" d="M810.435,-196.293C837.466,-181.019 879.034,-157.53 902.104,-144.495"/>
<polygon fill="midnightblue" stroke="midnightblue" points="808.519,-193.355 801.535,-201.322 811.963,-199.45 808.519,-193.355"/>
</g>
<!-- Node43 -->
<g id="node43" class="node"><title>Node43</title>
<g id="a_node43"><a xlink:href="../../dd/dca/lstate_8c.html#ab65e96a7498fd886f7223b92e91fd830" target="_top" xlink:title="f_luaopen">
<polygon fill="none" stroke="black" points="890.5,-201.448 890.5,-220.448 949.5,-220.448 949.5,-201.448 890.5,-201.448"/>
<text text-anchor="middle" x="920" y="-208.448" font-family="Helvetica,sans-Serif" font-size="10.00">f_luaopen</text>
</a>
</g>
</g>
<!-- Node41&#45;&gt;Node43 -->
<g id="edge50" class="edge"><title>Node41&#45;&gt;Node43</title>
<path fill="none" stroke="midnightblue" d="M826.825,-210.948C847.478,-210.948 871.784,-210.948 890.25,-210.948"/>
<polygon fill="midnightblue" stroke="midnightblue" points="826.716,-207.448 816.716,-210.948 826.716,-214.448 826.716,-207.448"/>
</g>
<!-- Node47 -->
<g id="node47" class="node"><title>Node47</title>
<g id="a_node47"><a xlink:href="../../d1/d2f/lstring_8c.html#a6e3c0fe3ba834ee00279a9df03f40fc4" target="_top" xlink:title="newshrstr">
<polygon fill="none" stroke="black" points="891,-239.448 891,-258.448 949,-258.448 949,-239.448 891,-239.448"/>
<text text-anchor="middle" x="920" y="-246.448" font-family="Helvetica,sans-Serif" font-size="10.00">newshrstr</text>
</a>
</g>
</g>
<!-- Node41&#45;&gt;Node47 -->
<g id="edge56" class="edge"><title>Node41&#45;&gt;Node47</title>
<path fill="none" stroke="midnightblue" d="M826.613,-222.846C847.479,-228.741 872.116,-235.701 890.698,-240.952"/>
<polygon fill="midnightblue" stroke="midnightblue" points="827.291,-219.4 816.716,-220.05 825.388,-226.137 827.291,-219.4"/>
</g>
<!-- Node42&#45;&gt;Node34 -->
<g id="edge49" class="edge"><title>Node42&#45;&gt;Node34</title>
<path fill="none" stroke="midnightblue" d="M877.336,-133.808C802.344,-131.756 646.471,-127.491 582.18,-125.732"/>
<polygon fill="midnightblue" stroke="midnightblue" points="877.271,-137.307 887.363,-134.082 877.462,-130.31 877.271,-137.307"/>
</g>
<!-- Node44 -->
<g id="node44" class="node"><title>Node44</title>
<g id="a_node44"><a xlink:href="../../da/dd2/lua_8h.html#af722e4ac7fc0eba5920f59f0162c1b97" target="_top" xlink:title="lua_newstate">
<polygon fill="none" stroke="black" points="1019,-201.448 1019,-220.448 1093,-220.448 1093,-201.448 1019,-201.448"/>
<text text-anchor="middle" x="1056" y="-208.448" font-family="Helvetica,sans-Serif" font-size="10.00">lua_newstate</text>
</a>
</g>
</g>
<!-- Node43&#45;&gt;Node44 -->
<g id="edge51" class="edge"><title>Node43&#45;&gt;Node44</title>
<path fill="none" stroke="midnightblue" d="M959.91,-210.948C978.432,-210.948 1000.45,-210.948 1018.63,-210.948"/>
<polygon fill="midnightblue" stroke="midnightblue" points="959.746,-207.448 949.746,-210.948 959.746,-214.448 959.746,-207.448"/>
</g>
<!-- Node45 -->
<g id="node45" class="node"><title>Node45</title>
<g id="a_node45"><a xlink:href="../../da/d29/lauxlib_8h.html#a7d8712fcede90ae93d5a9a7b409c586e" target="_top" xlink:title="luaL_newstate">
<polygon fill="none" stroke="black" points="1140,-396.448 1140,-415.448 1220,-415.448 1220,-396.448 1140,-396.448"/>
<text text-anchor="middle" x="1180" y="-403.448" font-family="Helvetica,sans-Serif" font-size="10.00">luaL_newstate</text>
</a>
</g>
</g>
<!-- Node44&#45;&gt;Node45 -->
<g id="edge52" class="edge"><title>Node44&#45;&gt;Node45</title>
<path fill="none" stroke="midnightblue" d="M1100.27,-226.224C1101.61,-227.377 1102.86,-228.616 1104,-229.948 1149.23,-282.615 1099.33,-325.681 1140,-381.948 1144.28,-387.875 1150.53,-392.642 1156.77,-396.317"/>
<polygon fill="midnightblue" stroke="midnightblue" points="1102.12,-223.249 1091.89,-220.514 1098.18,-229.035 1102.12,-223.249"/>
</g>
<!-- Node46 -->
<g id="node46" class="node"><title>Node46</title>
<g id="a_node46"><a xlink:href="../../dd/dca/lstate_8c.html#a8a0fc0aca5367250347c6bb6a788f05f" target="_top" xlink:title="makeseed">
<polygon fill="none" stroke="black" points="1149.5,-201.448 1149.5,-220.448 1210.5,-220.448 1210.5,-201.448 1149.5,-201.448"/>
<text text-anchor="middle" x="1180" y="-208.448" font-family="Helvetica,sans-Serif" font-size="10.00">makeseed</text>
</a>
</g>
</g>
<!-- Node44&#45;&gt;Node46 -->
<g id="edge54" class="edge"><title>Node44&#45;&gt;Node46</title>
<path fill="none" stroke="midnightblue" d="M1103.62,-204.367C1118.92,-204 1135.52,-204.229 1149.22,-205.055"/>
<polygon fill="midnightblue" stroke="midnightblue" points="1103.15,-200.881 1093.27,-204.717 1103.39,-207.877 1103.15,-200.881"/>
</g>
<!-- Node45&#45;&gt;Node9 -->
<g id="edge53" class="edge"><title>Node45&#45;&gt;Node9</title>
<path fill="none" stroke="midnightblue" d="M1203.54,-421.21C1227.01,-437.098 1263.55,-461.838 1287,-477.716"/>
<polygon fill="midnightblue" stroke="midnightblue" points="1205.49,-418.299 1195.24,-415.591 1201.56,-424.095 1205.49,-418.299"/>
</g>
<!-- Node46&#45;&gt;Node44 -->
<g id="edge55" class="edge"><title>Node46&#45;&gt;Node44</title>
<path fill="none" stroke="midnightblue" d="M1138.9,-217.333C1124.19,-217.866 1107.63,-217.815 1093.27,-217.178"/>
<polygon fill="midnightblue" stroke="midnightblue" points="1139.4,-220.812 1149.22,-216.841 1139.07,-213.82 1139.4,-220.812"/>
</g>
<!-- Node48 -->
<g id="node48" class="node"><title>Node48</title>
<g id="a_node48"><a xlink:href="../../d1/d2f/lstring_8c.html#a9b2c32c59a280de24f20df1c7f0433a1" target="_top" xlink:title="internshrstr">
<polygon fill="none" stroke="black" points="1025.5,-239.448 1025.5,-258.448 1086.5,-258.448 1086.5,-239.448 1025.5,-239.448"/>
<text text-anchor="middle" x="1056" y="-246.448" font-family="Helvetica,sans-Serif" font-size="10.00">internshrstr</text>
</a>
</g>
</g>
<!-- Node47&#45;&gt;Node48 -->
<g id="edge57" class="edge"><title>Node47&#45;&gt;Node48</title>
<path fill="none" stroke="midnightblue" d="M959.239,-248.948C980.14,-248.948 1005.65,-248.948 1025.09,-248.948"/>
<polygon fill="midnightblue" stroke="midnightblue" points="959.091,-245.448 949.091,-248.948 959.091,-252.448 959.091,-245.448"/>
</g>
<!-- Node49 -->
<g id="node49" class="node"><title>Node49</title>
<g id="a_node49"><a xlink:href="../../d4/dfb/lstring_8h.html#a248e72694b9116b07b2e7f4a9a3a5331" target="_top" xlink:title="luaS_newlstr">
<polygon fill="none" stroke="red" points="1144.5,-239.448 1144.5,-258.448 1215.5,-258.448 1215.5,-239.448 1144.5,-239.448"/>
<text text-anchor="middle" x="1180" y="-246.448" font-family="Helvetica,sans-Serif" font-size="10.00">luaS_newlstr</text>
</a>
</g>
</g>
<!-- Node48&#45;&gt;Node49 -->
<g id="edge58" class="edge"><title>Node48&#45;&gt;Node49</title>
<path fill="none" stroke="midnightblue" d="M1096.73,-248.948C1112.01,-248.948 1129.32,-248.948 1144.11,-248.948"/>
<polygon fill="midnightblue" stroke="midnightblue" points="1096.53,-245.448 1086.53,-248.948 1096.53,-252.448 1096.53,-245.448"/>
</g>
<!-- Node50&#45;&gt;Node37 -->
<g id="edge60" class="edge"><title>Node50&#45;&gt;Node37</title>
<path fill="none" stroke="midnightblue" d="M692.344,-176.572C750.528,-181.779 874.742,-187.397 972,-153.948 1001.42,-143.828 1030.06,-120.224 1044.77,-106.779"/>
<polygon fill="midnightblue" stroke="midnightblue" points="692.556,-173.076 682.269,-175.614 691.893,-180.045 692.556,-173.076"/>
</g>
</g>
</svg>
