<?xml version="1.0" encoding="UTF-8" standalone="no"?>
<!DOCTYPE svg PUBLIC "-//W3C//DTD SVG 1.1//EN"
 "http://www.w3.org/Graphics/SVG/1.1/DTD/svg11.dtd">
<!-- Generated by graphviz version 2.38.0 (20140413.2041)
 -->
<!-- Title: luaF_freeupval Pages: 1 -->
<svg width="1534pt" height="673pt"
 viewBox="0.00 0.00 1534.00 673.39" xmlns="http://www.w3.org/2000/svg" xmlns:xlink="http://www.w3.org/1999/xlink">
<g id="graph0" class="graph" transform="scale(1 1) rotate(0) translate(4 669.389)">
<title>luaF_freeupval</title>
<!-- Node1 -->
<g id="node1" class="node"><title>Node1</title>
<polygon fill="#bfbfbf" stroke="black" points="0,-275.889 0,-294.889 79,-294.889 79,-275.889 0,-275.889"/>
<text text-anchor="middle" x="39.5" y="-282.889" font-family="Helvetica,sans-Serif" font-size="10.00">luaF_freeupval</text>
</g>
<!-- Node2 -->
<g id="node2" class="node"><title>Node2</title>
<g id="a_node2"><a xlink:href="../../de/d27/lgc_8c.html#aa198d7da2a8502ed70adfe1f7ed38f46" target="_top" xlink:title="freeobj">
<polygon fill="none" stroke="black" points="337.5,-313.889 337.5,-332.889 382.5,-332.889 382.5,-313.889 337.5,-313.889"/>
<text text-anchor="middle" x="360" y="-320.889" font-family="Helvetica,sans-Serif" font-size="10.00">freeobj</text>
</a>
</g>
</g>
<!-- Node1&#45;&gt;Node2 -->
<g id="edge1" class="edge"><title>Node1&#45;&gt;Node2</title>
<path fill="none" stroke="midnightblue" d="M89.1923,-291.199C159.58,-299.596 286.855,-314.781 337.433,-320.816"/>
<polygon fill="midnightblue" stroke="midnightblue" points="89.5802,-287.72 79.2359,-290.011 88.7508,-294.671 89.5802,-287.72"/>
</g>
<!-- Node18 -->
<g id="node18" class="node"><title>Node18</title>
<g id="a_node18"><a xlink:href="../../d4/db8/lfunc_8h.html#a059f8cf02f13f391fa02ad85d9057f8f" target="_top" xlink:title="luaF_close">
<polygon fill="none" stroke="black" points="115,-218.889 115,-237.889 177,-237.889 177,-218.889 115,-218.889"/>
<text text-anchor="middle" x="146" y="-225.889" font-family="Helvetica,sans-Serif" font-size="10.00">luaF_close</text>
</a>
</g>
</g>
<!-- Node1&#45;&gt;Node18 -->
<g id="edge24" class="edge"><title>Node1&#45;&gt;Node18</title>
<path fill="none" stroke="midnightblue" d="M67.2556,-270.795C86.2067,-260.458 111.085,-246.888 127.535,-237.916"/>
<polygon fill="midnightblue" stroke="midnightblue" points="65.33,-267.859 58.227,-275.72 68.682,-274.004 65.33,-267.859"/>
</g>
<!-- Node3 -->
<g id="node3" class="node"><title>Node3</title>
<g id="a_node3"><a xlink:href="../../de/d27/lgc_8c.html#abbcf0361a74ce5efc08ca703b0f4098a" target="_top" xlink:title="sweeplist">
<polygon fill="none" stroke="black" points="434.5,-500.889 434.5,-519.889 491.5,-519.889 491.5,-500.889 434.5,-500.889"/>
<text text-anchor="middle" x="463" y="-507.889" font-family="Helvetica,sans-Serif" font-size="10.00">sweeplist</text>
</a>
</g>
</g>
<!-- Node2&#45;&gt;Node3 -->
<g id="edge2" class="edge"><title>Node2&#45;&gt;Node3</title>
<path fill="none" stroke="midnightblue" d="M371.003,-341.909C392.133,-381.031 440.69,-470.934 456.742,-500.654"/>
<polygon fill="midnightblue" stroke="midnightblue" points="373.979,-340.055 366.147,-332.92 367.82,-343.381 373.979,-340.055"/>
</g>
<!-- Node4 -->
<g id="node4" class="node"><title>Node4</title>
<g id="a_node4"><a xlink:href="../../de/d27/lgc_8c.html#ac881eb4d9ece02c3cefb86ed34879b6d" target="_top" xlink:title="sweeptolive">
<polygon fill="none" stroke="black" points="557.5,-500.889 557.5,-519.889 625.5,-519.889 625.5,-500.889 557.5,-500.889"/>
<text text-anchor="middle" x="591.5" y="-507.889" font-family="Helvetica,sans-Serif" font-size="10.00">sweeptolive</text>
</a>
</g>
</g>
<!-- Node3&#45;&gt;Node4 -->
<g id="edge3" class="edge"><title>Node3&#45;&gt;Node4</title>
<path fill="none" stroke="midnightblue" d="M502.256,-510.389C519.847,-510.389 540.511,-510.389 557.42,-510.389"/>
<polygon fill="midnightblue" stroke="midnightblue" points="501.761,-506.889 491.761,-510.389 501.761,-513.889 501.761,-506.889"/>
</g>
<!-- Node10 -->
<g id="node10" class="node"><title>Node10</title>
<g id="a_node10"><a xlink:href="../../de/d27/lgc_8c.html#ae34e22198155f5d365fe500d3735c150" target="_top" xlink:title="singlestep">
<polygon fill="none" stroke="black" points="845,-588.889 845,-607.889 904,-607.889 904,-588.889 845,-588.889"/>
<text text-anchor="middle" x="874.5" y="-595.889" font-family="Helvetica,sans-Serif" font-size="10.00">singlestep</text>
</a>
</g>
</g>
<!-- Node3&#45;&gt;Node10 -->
<g id="edge23" class="edge"><title>Node3&#45;&gt;Node10</title>
<path fill="none" stroke="midnightblue" d="M501.545,-520.405C513.198,-523.413 526.105,-526.641 538,-529.389 650.981,-555.495 786.505,-581.865 844.676,-592.95"/>
<polygon fill="midnightblue" stroke="midnightblue" points="502.242,-516.97 491.683,-517.836 500.478,-523.744 502.242,-516.97"/>
</g>
<!-- Node5 -->
<g id="node5" class="node"><title>Node5</title>
<g id="a_node5"><a xlink:href="../../dc/d9c/lgc_8h.html#a15870c09448216ce5c4e1ff63d39e0a9" target="_top" xlink:title="luaC_checkfinalizer">
<polygon fill="none" stroke="black" points="687,-478.889 687,-497.889 784,-497.889 784,-478.889 687,-478.889"/>
<text text-anchor="middle" x="735.5" y="-485.889" font-family="Helvetica,sans-Serif" font-size="10.00">luaC_checkfinalizer</text>
</a>
</g>
</g>
<!-- Node4&#45;&gt;Node5 -->
<g id="edge4" class="edge"><title>Node4&#45;&gt;Node5</title>
<path fill="none" stroke="midnightblue" d="M636.01,-503.648C652.114,-501.153 670.448,-498.313 686.897,-495.764"/>
<polygon fill="midnightblue" stroke="midnightblue" points="635.139,-500.241 625.793,-505.231 636.211,-507.159 635.139,-500.241"/>
</g>
<!-- Node7 -->
<g id="node7" class="node"><title>Node7</title>
<g id="a_node7"><a xlink:href="../../de/d27/lgc_8c.html#a396e5acf2204119b6a78993fa368ec39" target="_top" xlink:title="entersweep">
<polygon fill="none" stroke="black" points="702,-521.889 702,-540.889 769,-540.889 769,-521.889 702,-521.889"/>
<text text-anchor="middle" x="735.5" y="-528.889" font-family="Helvetica,sans-Serif" font-size="10.00">entersweep</text>
</a>
</g>
</g>
<!-- Node4&#45;&gt;Node7 -->
<g id="edge6" class="edge"><title>Node4&#45;&gt;Node7</title>
<path fill="none" stroke="midnightblue" d="M635.874,-516.803C657.135,-519.948 682.311,-523.671 701.906,-526.569"/>
<polygon fill="midnightblue" stroke="midnightblue" points="636.197,-513.313 625.793,-515.313 635.173,-520.238 636.197,-513.313"/>
</g>
<!-- Node6 -->
<g id="node6" class="node"><title>Node6</title>
<g id="a_node6"><a xlink:href="../../da/dd2/lua_8h.html#a0b834b6a9cd96b141385df14bd0272a4" target="_top" xlink:title="lua_setmetatable">
<polygon fill="none" stroke="red" points="830,-474.889 830,-493.889 919,-493.889 919,-474.889 830,-474.889"/>
<text text-anchor="middle" x="874.5" y="-481.889" font-family="Helvetica,sans-Serif" font-size="10.00">lua_setmetatable</text>
</a>
</g>
</g>
<!-- Node5&#45;&gt;Node6 -->
<g id="edge5" class="edge"><title>Node5&#45;&gt;Node6</title>
<path fill="none" stroke="midnightblue" d="M794.304,-486.701C806.163,-486.355 818.461,-485.996 829.729,-485.667"/>
<polygon fill="midnightblue" stroke="midnightblue" points="793.925,-483.211 784.031,-487.001 794.129,-490.208 793.925,-483.211"/>
</g>
<!-- Node8 -->
<g id="node8" class="node"><title>Node8</title>
<g id="a_node8"><a xlink:href="../../dc/d9c/lgc_8h.html#af016fe72ab7e564d7d55e7e4fb659041" target="_top" xlink:title="luaC_changemode">
<polygon fill="none" stroke="black" points="1076,-550.889 1076,-569.889 1173,-569.889 1173,-550.889 1076,-550.889"/>
<text text-anchor="middle" x="1124.5" y="-557.889" font-family="Helvetica,sans-Serif" font-size="10.00">luaC_changemode</text>
</a>
</g>
</g>
<!-- Node7&#45;&gt;Node8 -->
<g id="edge7" class="edge"><title>Node7&#45;&gt;Node8</title>
<path fill="none" stroke="midnightblue" d="M779.539,-536.617C794.259,-538.293 810.835,-540.058 826,-541.389 914.033,-549.114 1016.98,-554.987 1075.79,-558.041"/>
<polygon fill="midnightblue" stroke="midnightblue" points="779.531,-533.093 769.195,-535.419 778.726,-540.046 779.531,-533.093"/>
</g>
<!-- Node7&#45;&gt;Node10 -->
<g id="edge9" class="edge"><title>Node7&#45;&gt;Node10</title>
<path fill="none" stroke="midnightblue" d="M765.329,-545.488C791.936,-558.5 830.729,-577.472 853.908,-588.807"/>
<polygon fill="midnightblue" stroke="midnightblue" points="766.65,-542.238 756.129,-540.989 763.574,-548.526 766.65,-542.238"/>
</g>
<!-- Node15 -->
<g id="node15" class="node"><title>Node15</title>
<g id="a_node15"><a xlink:href="../../dc/d9c/lgc_8h.html#aa0b753c3ed80e1eed0379ec58592c404" target="_top" xlink:title="luaC_fullgc">
<polygon fill="none" stroke="red" points="1093.5,-512.889 1093.5,-531.889 1155.5,-531.889 1155.5,-512.889 1093.5,-512.889"/>
<text text-anchor="middle" x="1124.5" y="-519.889" font-family="Helvetica,sans-Serif" font-size="10.00">luaC_fullgc</text>
</a>
</g>
</g>
<!-- Node7&#45;&gt;Node15 -->
<g id="edge22" class="edge"><title>Node7&#45;&gt;Node15</title>
<path fill="none" stroke="midnightblue" d="M779.253,-530.395C858.248,-528.558 1025.23,-524.675 1093.48,-523.087"/>
<polygon fill="midnightblue" stroke="midnightblue" points="779.078,-526.898 769.162,-530.629 779.241,-533.896 779.078,-526.898"/>
</g>
<!-- Node9 -->
<g id="node9" class="node"><title>Node9</title>
<g id="a_node9"><a xlink:href="../../da/dd2/lua_8h.html#a6bac487d3f900b21271e8c591bd801cd" target="_top" xlink:title="lua_gc">
<polygon fill="none" stroke="red" points="1473.5,-550.889 1473.5,-569.889 1517.5,-569.889 1517.5,-550.889 1473.5,-550.889"/>
<text text-anchor="middle" x="1495.5" y="-557.889" font-family="Helvetica,sans-Serif" font-size="10.00">lua_gc</text>
</a>
</g>
</g>
<!-- Node8&#45;&gt;Node9 -->
<g id="edge8" class="edge"><title>Node8&#45;&gt;Node9</title>
<path fill="none" stroke="midnightblue" d="M1183.48,-560.389C1267.23,-560.389 1418.09,-560.389 1473.42,-560.389"/>
<polygon fill="midnightblue" stroke="midnightblue" points="1183.36,-556.889 1173.36,-560.389 1183.36,-563.889 1183.36,-556.889"/>
</g>
<!-- Node11 -->
<g id="node11" class="node"><title>Node11</title>
<g id="a_node11"><a xlink:href="../../dc/d9c/lgc_8h.html#a1da32357417ce5766ed5e3ada033c32f" target="_top" xlink:title="luaC_runtilstate">
<polygon fill="none" stroke="black" points="959,-588.889 959,-607.889 1040,-607.889 1040,-588.889 959,-588.889"/>
<text text-anchor="middle" x="999.5" y="-595.889" font-family="Helvetica,sans-Serif" font-size="10.00">luaC_runtilstate</text>
</a>
</g>
</g>
<!-- Node10&#45;&gt;Node11 -->
<g id="edge10" class="edge"><title>Node10&#45;&gt;Node11</title>
<path fill="none" stroke="midnightblue" d="M914.041,-598.389C928.336,-598.389 944.564,-598.389 958.947,-598.389"/>
<polygon fill="midnightblue" stroke="midnightblue" points="914.028,-594.889 904.028,-598.389 914.028,-601.889 914.028,-594.889"/>
</g>
<!-- Node17 -->
<g id="node17" class="node"><title>Node17</title>
<g id="a_node17"><a xlink:href="../../de/d27/lgc_8c.html#a7515a46e25b277cbbe7febb4d06b196a" target="_top" xlink:title="incstep">
<polygon fill="none" stroke="black" points="976,-645.889 976,-664.889 1023,-664.889 1023,-645.889 976,-645.889"/>
<text text-anchor="middle" x="999.5" y="-652.889" font-family="Helvetica,sans-Serif" font-size="10.00">incstep</text>
</a>
</g>
</g>
<!-- Node10&#45;&gt;Node17 -->
<g id="edge20" class="edge"><title>Node10&#45;&gt;Node17</title>
<path fill="none" stroke="midnightblue" d="M905.187,-612.146C927.66,-622.561 957.955,-636.6 977.845,-645.817"/>
<polygon fill="midnightblue" stroke="midnightblue" points="906.632,-608.959 896.087,-607.93 903.689,-615.31 906.632,-608.959"/>
</g>
<!-- Node11&#45;&gt;Node8 -->
<g id="edge11" class="edge"><title>Node11&#45;&gt;Node8</title>
<path fill="none" stroke="midnightblue" d="M1041.54,-585.709C1058.16,-580.574 1077.03,-574.745 1092.47,-569.975"/>
<polygon fill="midnightblue" stroke="midnightblue" points="1040.06,-582.504 1031.54,-588.8 1042.13,-589.192 1040.06,-582.504"/>
</g>
<!-- Node12 -->
<g id="node12" class="node"><title>Node12</title>
<g id="a_node12"><a xlink:href="../../de/d27/lgc_8c.html#a87bb9d2ca4bed013c39258f8abd61689" target="_top" xlink:title="generationalcollection">
<polygon fill="none" stroke="black" points="1209,-588.889 1209,-607.889 1313,-607.889 1313,-588.889 1209,-588.889"/>
<text text-anchor="middle" x="1261" y="-595.889" font-family="Helvetica,sans-Serif" font-size="10.00">generationalcollection</text>
</a>
</g>
</g>
<!-- Node11&#45;&gt;Node12 -->
<g id="edge12" class="edge"><title>Node11&#45;&gt;Node12</title>
<path fill="none" stroke="midnightblue" d="M1041,-610.531C1052.23,-613.362 1064.5,-615.964 1076,-617.389 1118.78,-622.69 1130.14,-622.015 1173,-617.389 1190.22,-615.531 1209.02,-611.662 1224.73,-607.897"/>
<polygon fill="midnightblue" stroke="midnightblue" points="1041.59,-607.068 1031.03,-607.894 1039.8,-613.835 1041.59,-607.068"/>
</g>
<!-- Node11&#45;&gt;Node15 -->
<g id="edge16" class="edge"><title>Node11&#45;&gt;Node15</title>
<path fill="none" stroke="midnightblue" d="M1019.45,-581.821C1034.15,-569.541 1055.43,-552.991 1076,-541.389 1082.19,-537.898 1089.15,-534.734 1095.79,-532.032"/>
<polygon fill="midnightblue" stroke="midnightblue" points="1016.96,-579.345 1011.6,-588.488 1021.49,-584.678 1016.96,-579.345"/>
</g>
<!-- Node16 -->
<g id="node16" class="node"><title>Node16</title>
<g id="a_node16"><a xlink:href="../../d4/dfb/lstring_8h.html#a44d549eb0ace165927a896f37330e2cd" target="_top" xlink:title="luaS_resize">
<polygon fill="none" stroke="red" points="1091.5,-588.889 1091.5,-607.889 1157.5,-607.889 1157.5,-588.889 1091.5,-588.889"/>
<text text-anchor="middle" x="1124.5" y="-595.889" font-family="Helvetica,sans-Serif" font-size="10.00">luaS_resize</text>
</a>
</g>
</g>
<!-- Node11&#45;&gt;Node16 -->
<g id="edge19" class="edge"><title>Node11&#45;&gt;Node16</title>
<path fill="none" stroke="midnightblue" d="M1050.45,-598.389C1064.26,-598.389 1078.87,-598.389 1091.37,-598.389"/>
<polygon fill="midnightblue" stroke="midnightblue" points="1050.1,-594.889 1040.1,-598.389 1050.09,-601.889 1050.1,-594.889"/>
</g>
<!-- Node13 -->
<g id="node13" class="node"><title>Node13</title>
<g id="a_node13"><a xlink:href="../../dc/d9c/lgc_8h.html#a19359957605d7c8eaf70803e5b77361f" target="_top" xlink:title="luaC_forcestep">
<polygon fill="none" stroke="black" points="1349,-588.889 1349,-607.889 1429,-607.889 1429,-588.889 1349,-588.889"/>
<text text-anchor="middle" x="1389" y="-595.889" font-family="Helvetica,sans-Serif" font-size="10.00">luaC_forcestep</text>
</a>
</g>
</g>
<!-- Node12&#45;&gt;Node13 -->
<g id="edge13" class="edge"><title>Node12&#45;&gt;Node13</title>
<path fill="none" stroke="midnightblue" d="M1323.35,-598.389C1332,-598.389 1340.7,-598.389 1348.78,-598.389"/>
<polygon fill="midnightblue" stroke="midnightblue" points="1323.25,-594.889 1313.25,-598.389 1323.25,-601.889 1323.25,-594.889"/>
</g>
<!-- Node13&#45;&gt;Node9 -->
<g id="edge14" class="edge"><title>Node13&#45;&gt;Node9</title>
<path fill="none" stroke="midnightblue" d="M1425.88,-585.341C1441.72,-579.583 1459.78,-573.014 1473.4,-568.062"/>
<polygon fill="midnightblue" stroke="midnightblue" points="1424.57,-582.093 1416.37,-588.8 1426.96,-588.672 1424.57,-582.093"/>
</g>
<!-- Node14 -->
<g id="node14" class="node"><title>Node14</title>
<g id="a_node14"><a xlink:href="../../dc/d9c/lgc_8h.html#a6c71cc4b9e503c0e96c0c4ffcff93900" target="_top" xlink:title="luaC_step">
<polygon fill="none" stroke="black" points="1465,-588.889 1465,-607.889 1526,-607.889 1526,-588.889 1465,-588.889"/>
<text text-anchor="middle" x="1495.5" y="-595.889" font-family="Helvetica,sans-Serif" font-size="10.00">luaC_step</text>
</a>
</g>
</g>
<!-- Node13&#45;&gt;Node14 -->
<g id="edge15" class="edge"><title>Node13&#45;&gt;Node14</title>
<path fill="none" stroke="midnightblue" d="M1439.34,-598.389C1448.07,-598.389 1456.91,-598.389 1464.87,-598.389"/>
<polygon fill="midnightblue" stroke="midnightblue" points="1439.21,-594.889 1429.21,-598.389 1439.21,-601.889 1439.21,-594.889"/>
</g>
<!-- Node15&#45;&gt;Node9 -->
<g id="edge17" class="edge"><title>Node15&#45;&gt;Node9</title>
<path fill="none" stroke="midnightblue" d="M1166.11,-526.571C1244.3,-534.624 1413.34,-552.031 1473.06,-558.182"/>
<polygon fill="midnightblue" stroke="midnightblue" points="1166,-523.042 1155.7,-525.499 1165.29,-530.005 1166,-523.042"/>
</g>
<!-- Node15&#45;&gt;Node12 -->
<g id="edge18" class="edge"><title>Node15&#45;&gt;Node12</title>
<path fill="none" stroke="midnightblue" d="M1161.32,-535.819C1165.31,-537.58 1169.28,-539.45 1173,-541.389 1200.71,-555.822 1230.7,-576.778 1247.23,-588.851"/>
<polygon fill="midnightblue" stroke="midnightblue" points="1162.63,-532.573 1152.05,-531.927 1159.92,-539.026 1162.63,-532.573"/>
</g>
<!-- Node17&#45;&gt;Node13 -->
<g id="edge21" class="edge"><title>Node17&#45;&gt;Node13</title>
<path fill="none" stroke="midnightblue" d="M1033.23,-652.789C1090.34,-647.944 1211.8,-636.281 1313,-617.389 1326.6,-614.85 1341.4,-611.279 1354.23,-607.916"/>
<polygon fill="midnightblue" stroke="midnightblue" points="1032.68,-649.322 1023.01,-653.641 1033.26,-656.298 1032.68,-649.322"/>
</g>
<!-- Node19 -->
<g id="node19" class="node"><title>Node19</title>
<g id="a_node19"><a xlink:href="../../d3/d08/ldo_8c.html#a8f3e3ff2aa0a4a251774a476cb0036ea" target="_top" xlink:title="recover">
<polygon fill="none" stroke="black" points="231,-85.8891 231,-104.889 278,-104.889 278,-85.8891 231,-85.8891"/>
<text text-anchor="middle" x="254.5" y="-92.8891" font-family="Helvetica,sans-Serif" font-size="10.00">recover</text>
</a>
</g>
</g>
<!-- Node18&#45;&gt;Node19 -->
<g id="edge25" class="edge"><title>Node18&#45;&gt;Node19</title>
<path fill="none" stroke="midnightblue" d="M160.952,-210.966C183.613,-182.666 227.688,-127.624 245.623,-105.226"/>
<polygon fill="midnightblue" stroke="midnightblue" points="158.178,-208.83 154.659,-218.824 163.642,-213.206 158.178,-208.83"/>
</g>
<!-- Node24 -->
<g id="node24" class="node"><title>Node24</title>
<g id="a_node24"><a xlink:href="../../d2/dd9/ldo_8h.html#ad1087faa52e2bb98c00806ea1ac198a6" target="_top" xlink:title="luaD_pcall">
<polygon fill="none" stroke="black" points="432,-370.889 432,-389.889 494,-389.889 494,-370.889 432,-370.889"/>
<text text-anchor="middle" x="463" y="-377.889" font-family="Helvetica,sans-Serif" font-size="10.00">luaD_pcall</text>
</a>
</g>
</g>
<!-- Node18&#45;&gt;Node24 -->
<g id="edge30" class="edge"><title>Node18&#45;&gt;Node24</title>
<path fill="none" stroke="midnightblue" d="M187.352,-231.656C239.236,-237.788 329.591,-255.233 388,-304.389 410.925,-323.682 401.784,-341.284 424,-361.389 428.047,-365.052 432.929,-368.184 437.826,-370.787"/>
<polygon fill="midnightblue" stroke="midnightblue" points="187.521,-228.154 177.199,-230.543 186.758,-235.112 187.521,-228.154"/>
</g>
<!-- Node28 -->
<g id="node28" class="node"><title>Node28</title>
<g id="a_node28"><a xlink:href="../../dd/dca/lstate_8c.html#a4940327dfa3b86df0ef008180bb3fcb3" target="_top" xlink:title="close_state">
<polygon fill="none" stroke="black" points="967,-123.889 967,-142.889 1032,-142.889 1032,-123.889 967,-123.889"/>
<text text-anchor="middle" x="999.5" y="-130.889" font-family="Helvetica,sans-Serif" font-size="10.00">close_state</text>
</a>
</g>
</g>
<!-- Node18&#45;&gt;Node28 -->
<g id="edge50" class="edge"><title>Node18&#45;&gt;Node28</title>
<path fill="none" stroke="midnightblue" d="M151.117,-208.456C158.531,-176.935 176.837,-115.188 213,-76.3891 262.878,-22.8754 285.846,-0.389066 359,-0.389066 359,-0.389066 359,-0.389066 736.5,-0.389066 821.092,-0.389066 850.889,5.83599 923,-38.3891 958.199,-59.9767 983.756,-104.196 993.803,-123.737"/>
<polygon fill="midnightblue" stroke="midnightblue" points="147.615,-208.082 148.866,-218.603 154.449,-209.598 147.615,-208.082"/>
</g>
<!-- Node41 -->
<g id="node41" class="node"><title>Node41</title>
<g id="a_node41"><a xlink:href="../../d3/dfc/lstate_8h.html#a0882226c718293b23af460f7e2faeef0" target="_top" xlink:title="luaE_freethread">
<polygon fill="none" stroke="black" points="213,-275.889 213,-294.889 296,-294.889 296,-275.889 213,-275.889"/>
<text text-anchor="middle" x="254.5" y="-282.889" font-family="Helvetica,sans-Serif" font-size="10.00">luaE_freethread</text>
</a>
</g>
</g>
<!-- Node18&#45;&gt;Node41 -->
<g id="edge51" class="edge"><title>Node18&#45;&gt;Node41</title>
<path fill="none" stroke="midnightblue" d="M174.003,-242.842C193.35,-253.196 218.859,-266.849 235.701,-275.863"/>
<polygon fill="midnightblue" stroke="midnightblue" points="175.535,-239.691 165.066,-238.058 172.231,-245.863 175.535,-239.691"/>
</g>
<!-- Node42 -->
<g id="node42" class="node"><title>Node42</title>
<g id="a_node42"><a xlink:href="../../d5/dcd/lvm_8h.html#ae93565adc36c6e2157dbbd875433ede1" target="_top" xlink:title="luaV_execute">
<polygon fill="none" stroke="black" points="217.5,-199.889 217.5,-218.889 291.5,-218.889 291.5,-199.889 217.5,-199.889"/>
<text text-anchor="middle" x="254.5" y="-206.889" font-family="Helvetica,sans-Serif" font-size="10.00">luaV_execute</text>
</a>
</g>
</g>
<!-- Node18&#45;&gt;Node42 -->
<g id="edge53" class="edge"><title>Node18&#45;&gt;Node42</title>
<path fill="none" stroke="midnightblue" d="M187.193,-221.218C197.029,-219.464 207.498,-217.596 217.142,-215.875"/>
<polygon fill="midnightblue" stroke="midnightblue" points="186.464,-217.793 177.234,-222.995 187.693,-224.684 186.464,-217.793"/>
</g>
<!-- Node20 -->
<g id="node20" class="node"><title>Node20</title>
<g id="a_node20"><a xlink:href="../../da/dd2/lua_8h.html#a434479f022eda738b99000aad5ddd929" target="_top" xlink:title="lua_resume">
<polygon fill="none" stroke="black" points="559,-66.8891 559,-85.8891 624,-85.8891 624,-66.8891 559,-66.8891"/>
<text text-anchor="middle" x="591.5" y="-73.8891" font-family="Helvetica,sans-Serif" font-size="10.00">lua_resume</text>
</a>
</g>
</g>
<!-- Node19&#45;&gt;Node20 -->
<g id="edge26" class="edge"><title>Node19&#45;&gt;Node20</title>
<path fill="none" stroke="midnightblue" d="M287.917,-85.2287C301.456,-81.2042 317.404,-76.7467 332,-73.3891 405.958,-56.3757 426.534,-49.3795 502,-57.3891 521.065,-59.4125 542.058,-63.8225 558.811,-67.8848"/>
<polygon fill="midnightblue" stroke="midnightblue" points="286.655,-81.9536 278.095,-88.1964 288.68,-88.6544 286.655,-81.9536"/>
</g>
<!-- Node21 -->
<g id="node21" class="node"><title>Node21</title>
<g id="a_node21"><a xlink:href="../../df/d2d/lcorolib_8c.html#aaa37b3a30ab0c6daef7fae8951fef3e7" target="_top" xlink:title="auxresume">
<polygon fill="none" stroke="black" points="703.5,-66.8891 703.5,-85.8891 767.5,-85.8891 767.5,-66.8891 703.5,-66.8891"/>
<text text-anchor="middle" x="735.5" y="-73.8891" font-family="Helvetica,sans-Serif" font-size="10.00">auxresume</text>
</a>
</g>
</g>
<!-- Node20&#45;&gt;Node21 -->
<g id="edge27" class="edge"><title>Node20&#45;&gt;Node21</title>
<path fill="none" stroke="midnightblue" d="M634.099,-76.3891C656.142,-76.3891 682.777,-76.3891 703.074,-76.3891"/>
<polygon fill="midnightblue" stroke="midnightblue" points="634.014,-72.8892 624.014,-76.3891 634.014,-79.8892 634.014,-72.8892"/>
</g>
<!-- Node22 -->
<g id="node22" class="node"><title>Node22</title>
<g id="a_node22"><a xlink:href="../../df/d2d/lcorolib_8c.html#a777abb20385a69ce4787f72bd90375a7" target="_top" xlink:title="luaB_auxwrap">
<polygon fill="none" stroke="red" points="834.5,-47.8891 834.5,-66.8891 914.5,-66.8891 914.5,-47.8891 834.5,-47.8891"/>
<text text-anchor="middle" x="874.5" y="-54.8891" font-family="Helvetica,sans-Serif" font-size="10.00">luaB_auxwrap</text>
</a>
</g>
</g>
<!-- Node21&#45;&gt;Node22 -->
<g id="edge28" class="edge"><title>Node21&#45;&gt;Node22</title>
<path fill="none" stroke="midnightblue" d="M777.528,-70.699C795.561,-68.1981 816.639,-65.2749 834.44,-62.8061"/>
<polygon fill="midnightblue" stroke="midnightblue" points="777.012,-67.2371 767.587,-72.0777 777.973,-74.1707 777.012,-67.2371"/>
</g>
<!-- Node23 -->
<g id="node23" class="node"><title>Node23</title>
<g id="a_node23"><a xlink:href="../../df/d2d/lcorolib_8c.html#a76f5d80387eeb1c7d31eb5f9cb6c9392" target="_top" xlink:title="luaB_coresume">
<polygon fill="none" stroke="black" points="833.5,-85.8891 833.5,-104.889 915.5,-104.889 915.5,-85.8891 833.5,-85.8891"/>
<text text-anchor="middle" x="874.5" y="-92.8891" font-family="Helvetica,sans-Serif" font-size="10.00">luaB_coresume</text>
</a>
</g>
</g>
<!-- Node21&#45;&gt;Node23 -->
<g id="edge29" class="edge"><title>Node21&#45;&gt;Node23</title>
<path fill="none" stroke="midnightblue" d="M777.611,-82.0906C795.284,-84.5415 815.868,-87.3962 833.424,-89.831"/>
<polygon fill="midnightblue" stroke="midnightblue" points="777.973,-78.6074 767.587,-80.7005 777.012,-85.5411 777.973,-78.6074"/>
</g>
<!-- Node25 -->
<g id="node25" class="node"><title>Node25</title>
<g id="a_node25"><a xlink:href="../../de/d27/lgc_8c.html#ab9ec6b56580b9e66f41743e393e7e033" target="_top" xlink:title="GCTM">
<polygon fill="none" stroke="black" points="568.5,-332.889 568.5,-351.889 614.5,-351.889 614.5,-332.889 568.5,-332.889"/>
<text text-anchor="middle" x="591.5" y="-339.889" font-family="Helvetica,sans-Serif" font-size="10.00">GCTM</text>
</a>
</g>
</g>
<!-- Node24&#45;&gt;Node25 -->
<g id="edge31" class="edge"><title>Node24&#45;&gt;Node25</title>
<path fill="none" stroke="midnightblue" d="M504.052,-368.358C525.318,-361.969 550.646,-354.361 568.37,-349.037"/>
<polygon fill="midnightblue" stroke="midnightblue" points="502.87,-365.058 494.3,-371.287 504.884,-371.762 502.87,-365.058"/>
</g>
<!-- Node34 -->
<g id="node34" class="node"><title>Node34</title>
<g id="a_node34"><a xlink:href="../../da/dd2/lua_8h.html#a3c4de08aa665eaee4aabd330aa99a441" target="_top" xlink:title="lua_pcallk">
<polygon fill="none" stroke="black" points="562,-256.889 562,-275.889 621,-275.889 621,-256.889 562,-256.889"/>
<text text-anchor="middle" x="591.5" y="-263.889" font-family="Helvetica,sans-Serif" font-size="10.00">lua_pcallk</text>
</a>
</g>
</g>
<!-- Node24&#45;&gt;Node34 -->
<g id="edge43" class="edge"><title>Node24&#45;&gt;Node34</title>
<path fill="none" stroke="midnightblue" d="M495.441,-365.815C497.721,-364.414 499.933,-362.935 502,-361.389 504.313,-359.659 559.672,-299.781 581.638,-275.992"/>
<polygon fill="midnightblue" stroke="midnightblue" points="493.516,-362.881 486.486,-370.808 496.925,-368.995 493.516,-362.881"/>
</g>
<!-- Node37 -->
<g id="node37" class="node"><title>Node37</title>
<g id="a_node37"><a xlink:href="../../d2/dd9/ldo_8h.html#a5dffa85d966f14d3f3464db580f5b3fa" target="_top" xlink:title="luaD_protectedparser">
<polygon fill="none" stroke="black" points="538,-379.889 538,-398.889 645,-398.889 645,-379.889 538,-379.889"/>
<text text-anchor="middle" x="591.5" y="-386.889" font-family="Helvetica,sans-Serif" font-size="10.00">luaD_protectedparser</text>
</a>
</g>
</g>
<!-- Node24&#45;&gt;Node37 -->
<g id="edge46" class="edge"><title>Node24&#45;&gt;Node37</title>
<path fill="none" stroke="midnightblue" d="M504.489,-383.27C515.057,-384.022 526.603,-384.843 537.707,-385.633"/>
<polygon fill="midnightblue" stroke="midnightblue" points="504.523,-379.763 494.3,-382.545 504.026,-386.746 504.523,-379.763"/>
</g>
<!-- Node25&#45;&gt;Node13 -->
<g id="edge42" class="edge"><title>Node25&#45;&gt;Node13</title>
<path fill="none" stroke="midnightblue" d="M624.419,-333.309C676.229,-319.394 782.055,-294.389 873.5,-294.389 873.5,-294.389 873.5,-294.389 1125.5,-294.389 1284.83,-294.389 1368.86,-536.585 1385.08,-588.619"/>
<polygon fill="midnightblue" stroke="midnightblue" points="623.228,-330.006 614.502,-336.015 625.071,-336.759 623.228,-330.006"/>
</g>
<!-- Node26 -->
<g id="node26" class="node"><title>Node26</title>
<g id="a_node26"><a xlink:href="../../de/d27/lgc_8c.html#a74f50e6006422d43686521fe765152dd" target="_top" xlink:title="callallpendingfinalizers">
<polygon fill="none" stroke="black" points="681,-332.889 681,-351.889 790,-351.889 790,-332.889 681,-332.889"/>
<text text-anchor="middle" x="735.5" y="-339.889" font-family="Helvetica,sans-Serif" font-size="10.00">callallpendingfinalizers</text>
</a>
</g>
</g>
<!-- Node25&#45;&gt;Node26 -->
<g id="edge32" class="edge"><title>Node25&#45;&gt;Node26</title>
<path fill="none" stroke="midnightblue" d="M624.932,-342.389C641.495,-342.389 662.078,-342.389 680.917,-342.389"/>
<polygon fill="midnightblue" stroke="midnightblue" points="624.688,-338.889 614.688,-342.389 624.687,-345.889 624.688,-338.889"/>
</g>
<!-- Node26&#45;&gt;Node15 -->
<g id="edge41" class="edge"><title>Node26&#45;&gt;Node15</title>
<path fill="none" stroke="midnightblue" d="M800.459,-352.933C837.308,-360.362 883.919,-372.111 923,-389.389 1001.32,-424.015 1082.78,-488.472 1112.12,-512.779"/>
<polygon fill="midnightblue" stroke="midnightblue" points="800.826,-349.438 790.34,-350.951 799.48,-356.307 800.826,-349.438"/>
</g>
<!-- Node27 -->
<g id="node27" class="node"><title>Node27</title>
<g id="a_node27"><a xlink:href="../../dc/d9c/lgc_8h.html#a9aa52a500c9cc2076edb1707e6d8a045" target="_top" xlink:title="luaC_freeallobjects">
<polygon fill="none" stroke="black" points="826,-322.889 826,-341.889 923,-341.889 923,-322.889 826,-322.889"/>
<text text-anchor="middle" x="874.5" y="-329.889" font-family="Helvetica,sans-Serif" font-size="10.00">luaC_freeallobjects</text>
</a>
</g>
</g>
<!-- Node26&#45;&gt;Node27 -->
<g id="edge33" class="edge"><title>Node26&#45;&gt;Node27</title>
<path fill="none" stroke="midnightblue" d="M800.23,-337.737C808.797,-337.112 817.463,-336.479 825.689,-335.879"/>
<polygon fill="midnightblue" stroke="midnightblue" points="799.971,-334.247 790.253,-338.466 800.481,-341.228 799.971,-334.247"/>
</g>
<!-- Node27&#45;&gt;Node28 -->
<g id="edge34" class="edge"><title>Node27&#45;&gt;Node28</title>
<path fill="none" stroke="midnightblue" d="M886.836,-314.048C912.326,-272.808 973.432,-173.946 992.627,-142.891"/>
<polygon fill="midnightblue" stroke="midnightblue" points="883.713,-312.444 881.433,-322.791 889.667,-316.125 883.713,-312.444"/>
</g>
<!-- Node29 -->
<g id="node29" class="node"><title>Node29</title>
<g id="a_node29"><a xlink:href="../../da/dd2/lua_8h.html#af722e4ac7fc0eba5920f59f0162c1b97" target="_top" xlink:title="lua_newstate">
<polygon fill="none" stroke="black" points="1087.5,-104.889 1087.5,-123.889 1161.5,-123.889 1161.5,-104.889 1087.5,-104.889"/>
<text text-anchor="middle" x="1124.5" y="-111.889" font-family="Helvetica,sans-Serif" font-size="10.00">lua_newstate</text>
</a>
</g>
</g>
<!-- Node28&#45;&gt;Node29 -->
<g id="edge35" class="edge"><title>Node28&#45;&gt;Node29</title>
<path fill="none" stroke="midnightblue" d="M1042.41,-126.915C1056.94,-124.67 1073.1,-122.175 1087.14,-120.005"/>
<polygon fill="midnightblue" stroke="midnightblue" points="1041.52,-123.51 1032.18,-128.496 1042.59,-130.428 1041.52,-123.51"/>
</g>
<!-- Node32 -->
<g id="node32" class="node"><title>Node32</title>
<g id="a_node32"><a xlink:href="../../da/dd2/lua_8h.html#afe030a97e84f24dfab3afb598faa2fff" target="_top" xlink:title="lua_close">
<polygon fill="none" stroke="black" points="1096.5,-142.889 1096.5,-161.889 1152.5,-161.889 1152.5,-142.889 1096.5,-142.889"/>
<text text-anchor="middle" x="1124.5" y="-149.889" font-family="Helvetica,sans-Serif" font-size="10.00">lua_close</text>
</a>
</g>
</g>
<!-- Node28&#45;&gt;Node32 -->
<g id="edge39" class="edge"><title>Node28&#45;&gt;Node32</title>
<path fill="none" stroke="midnightblue" d="M1042.3,-139.846C1060.07,-142.591 1080.29,-145.715 1096.11,-148.158"/>
<polygon fill="midnightblue" stroke="midnightblue" points="1042.59,-136.35 1032.18,-138.282 1041.52,-143.268 1042.59,-136.35"/>
</g>
<!-- Node30 -->
<g id="node30" class="node"><title>Node30</title>
<g id="a_node30"><a xlink:href="../../da/d29/lauxlib_8h.html#a7d8712fcede90ae93d5a9a7b409c586e" target="_top" xlink:title="luaL_newstate">
<polygon fill="none" stroke="red" points="1221,-66.8891 1221,-85.8891 1301,-85.8891 1301,-66.8891 1221,-66.8891"/>
<text text-anchor="middle" x="1261" y="-73.8891" font-family="Helvetica,sans-Serif" font-size="10.00">luaL_newstate</text>
</a>
</g>
</g>
<!-- Node29&#45;&gt;Node30 -->
<g id="edge36" class="edge"><title>Node29&#45;&gt;Node30</title>
<path fill="none" stroke="midnightblue" d="M1169.1,-102.071C1187.58,-96.8498 1208.79,-90.8575 1226.07,-85.975"/>
<polygon fill="midnightblue" stroke="midnightblue" points="1168.11,-98.713 1159.44,-104.8 1170.01,-105.449 1168.11,-98.713"/>
</g>
<!-- Node31 -->
<g id="node31" class="node"><title>Node31</title>
<g id="a_node31"><a xlink:href="../../dd/dca/lstate_8c.html#a8a0fc0aca5367250347c6bb6a788f05f" target="_top" xlink:title="makeseed">
<polygon fill="none" stroke="black" points="1230.5,-104.889 1230.5,-123.889 1291.5,-123.889 1291.5,-104.889 1230.5,-104.889"/>
<text text-anchor="middle" x="1261" y="-111.889" font-family="Helvetica,sans-Serif" font-size="10.00">makeseed</text>
</a>
</g>
</g>
<!-- Node29&#45;&gt;Node31 -->
<g id="edge37" class="edge"><title>Node29&#45;&gt;Node31</title>
<path fill="none" stroke="midnightblue" d="M1171.7,-107.942C1191.07,-107.367 1213.04,-107.611 1230.22,-108.673"/>
<polygon fill="midnightblue" stroke="midnightblue" points="1171.4,-104.451 1161.54,-108.332 1171.67,-111.446 1171.4,-104.451"/>
</g>
<!-- Node31&#45;&gt;Node29 -->
<g id="edge38" class="edge"><title>Node31&#45;&gt;Node29</title>
<path fill="none" stroke="midnightblue" d="M1220.02,-120.62C1201.47,-121.366 1179.58,-121.308 1161.54,-120.447"/>
<polygon fill="midnightblue" stroke="midnightblue" points="1220.41,-124.104 1230.22,-120.105 1220.05,-117.113 1220.41,-124.104"/>
</g>
<!-- Node33 -->
<g id="node33" class="node"><title>Node33</title>
<g id="a_node33"><a xlink:href="../../dc/dba/loslib_8c.html#a905e81425fe3d6d0b363c10162a2a37b" target="_top" xlink:title="os_exit">
<polygon fill="none" stroke="black" points="1237.5,-142.889 1237.5,-161.889 1284.5,-161.889 1284.5,-142.889 1237.5,-142.889"/>
<text text-anchor="middle" x="1261" y="-149.889" font-family="Helvetica,sans-Serif" font-size="10.00">os_exit</text>
</a>
</g>
</g>
<!-- Node32&#45;&gt;Node33 -->
<g id="edge40" class="edge"><title>Node32&#45;&gt;Node33</title>
<path fill="none" stroke="midnightblue" d="M1162.86,-152.389C1186.75,-152.389 1216.95,-152.389 1237.29,-152.389"/>
<polygon fill="midnightblue" stroke="midnightblue" points="1162.72,-148.889 1152.72,-152.389 1162.72,-155.889 1162.72,-148.889"/>
</g>
<!-- Node35 -->
<g id="node35" class="node"><title>Node35</title>
<g id="a_node35"><a xlink:href="../../d8/dd3/lbaselib_8c.html#a1fb2725eed679431d070b2e9e7abc223" target="_top" xlink:title="luaB_pcall">
<polygon fill="none" stroke="black" points="705,-246.889 705,-265.889 766,-265.889 766,-246.889 705,-246.889"/>
<text text-anchor="middle" x="735.5" y="-253.889" font-family="Helvetica,sans-Serif" font-size="10.00">luaB_pcall</text>
</a>
</g>
</g>
<!-- Node34&#45;&gt;Node35 -->
<g id="edge44" class="edge"><title>Node34&#45;&gt;Node35</title>
<path fill="none" stroke="midnightblue" d="M631.425,-263.648C654.588,-262.017 683.519,-259.979 704.829,-258.479"/>
<polygon fill="midnightblue" stroke="midnightblue" points="630.965,-260.171 621.236,-264.365 631.457,-267.154 630.965,-260.171"/>
</g>
<!-- Node36 -->
<g id="node36" class="node"><title>Node36</title>
<g id="a_node36"><a xlink:href="../../d8/dd3/lbaselib_8c.html#a5fbb0094fa1a56f0a4c2547f1ec4c5ab" target="_top" xlink:title="luaB_xpcall">
<polygon fill="none" stroke="black" points="702.5,-208.889 702.5,-227.889 768.5,-227.889 768.5,-208.889 702.5,-208.889"/>
<text text-anchor="middle" x="735.5" y="-215.889" font-family="Helvetica,sans-Serif" font-size="10.00">luaB_xpcall</text>
</a>
</g>
</g>
<!-- Node34&#45;&gt;Node36 -->
<g id="edge45" class="edge"><title>Node34&#45;&gt;Node36</title>
<path fill="none" stroke="midnightblue" d="M630.654,-253.492C654.425,-245.457 684.497,-235.292 706.155,-227.971"/>
<polygon fill="midnightblue" stroke="midnightblue" points="629.247,-250.273 620.895,-256.791 631.489,-256.904 629.247,-250.273"/>
</g>
<!-- Node38 -->
<g id="node38" class="node"><title>Node38</title>
<g id="a_node38"><a xlink:href="../../da/dd2/lua_8h.html#a3f4c1ed5e0bd437dc527d62c5768b463" target="_top" xlink:title="lua_load">
<polygon fill="none" stroke="red" points="709,-398.889 709,-417.889 762,-417.889 762,-398.889 709,-398.889"/>
<text text-anchor="middle" x="735.5" y="-405.889" font-family="Helvetica,sans-Serif" font-size="10.00">lua_load</text>
</a>
</g>
</g>
<!-- Node37&#45;&gt;Node38 -->
<g id="edge47" class="edge"><title>Node37&#45;&gt;Node38</title>
<path fill="none" stroke="midnightblue" d="M655.386,-397.803C674.148,-400.314 693.675,-402.927 708.636,-404.928"/>
<polygon fill="midnightblue" stroke="midnightblue" points="655.751,-394.321 645.376,-396.464 654.823,-401.259 655.751,-394.321"/>
</g>
<!-- Node39 -->
<g id="node39" class="node"><title>Node39</title>
<g id="a_node39"><a xlink:href="../../da/d29/lauxlib_8h.html#a8c38c6dcf9db7e110e525b46742bacf8" target="_top" xlink:title="luaL_loadfilex">
<polygon fill="none" stroke="red" points="837.5,-398.889 837.5,-417.889 911.5,-417.889 911.5,-398.889 837.5,-398.889"/>
<text text-anchor="middle" x="874.5" y="-405.889" font-family="Helvetica,sans-Serif" font-size="10.00">luaL_loadfilex</text>
</a>
</g>
</g>
<!-- Node38&#45;&gt;Node39 -->
<g id="edge48" class="edge"><title>Node38&#45;&gt;Node39</title>
<path fill="none" stroke="midnightblue" d="M772.515,-408.389C792.483,-408.389 817.243,-408.389 837.249,-408.389"/>
<polygon fill="midnightblue" stroke="midnightblue" points="772.269,-404.889 762.269,-408.389 772.269,-411.889 772.269,-404.889"/>
</g>
<!-- Node40 -->
<g id="node40" class="node"><title>Node40</title>
<g id="a_node40"><a xlink:href="../../da/d29/lauxlib_8h.html#a3ab1955dd9322cf03e2d3626ebfae669" target="_top" xlink:title="luaL_loadbufferx">
<polygon fill="none" stroke="red" points="831.5,-436.889 831.5,-455.889 917.5,-455.889 917.5,-436.889 831.5,-436.889"/>
<text text-anchor="middle" x="874.5" y="-443.889" font-family="Helvetica,sans-Serif" font-size="10.00">luaL_loadbufferx</text>
</a>
</g>
</g>
<!-- Node38&#45;&gt;Node40 -->
<g id="edge49" class="edge"><title>Node38&#45;&gt;Node40</title>
<path fill="none" stroke="midnightblue" d="M771.943,-418.22C792.61,-423.952 818.557,-431.149 839.051,-436.834"/>
<polygon fill="midnightblue" stroke="midnightblue" points="772.84,-414.837 762.269,-415.537 770.969,-421.582 772.84,-414.837"/>
</g>
<!-- Node41&#45;&gt;Node2 -->
<g id="edge52" class="edge"><title>Node41&#45;&gt;Node2</title>
<path fill="none" stroke="midnightblue" d="M291.342,-298.548C306.692,-304.184 324.11,-310.579 337.429,-315.469"/>
<polygon fill="midnightblue" stroke="midnightblue" points="292.211,-295.139 281.617,-294.978 289.798,-301.71 292.211,-295.139"/>
</g>
<!-- Node43 -->
<g id="node43" class="node"><title>Node43</title>
<g id="a_node43"><a xlink:href="../../d2/dd9/ldo_8h.html#a7bb0b106d4012134156e0fa240f51228" target="_top" xlink:title="luaD_call">
<polygon fill="none" stroke="black" points="332,-199.889 332,-218.889 388,-218.889 388,-199.889 332,-199.889"/>
<text text-anchor="middle" x="360" y="-206.889" font-family="Helvetica,sans-Serif" font-size="10.00">luaD_call</text>
</a>
</g>
</g>
<!-- Node42&#45;&gt;Node43 -->
<g id="edge54" class="edge"><title>Node42&#45;&gt;Node43</title>
<path fill="none" stroke="midnightblue" d="M301.797,-202.672C312.052,-202.546 322.596,-202.777 331.794,-203.365"/>
<polygon fill="midnightblue" stroke="midnightblue" points="301.611,-199.176 291.699,-202.918 301.781,-206.174 301.611,-199.176"/>
</g>
<!-- Node49 -->
<g id="node49" class="node"><title>Node49</title>
<g id="a_node49"><a xlink:href="../../d3/d08/ldo_8c.html#a3baab9d298c0c32cb74a9a079d7244de" target="_top" xlink:title="unroll">
<polygon fill="none" stroke="black" points="341,-104.889 341,-123.889 379,-123.889 379,-104.889 341,-104.889"/>
<text text-anchor="middle" x="360" y="-111.889" font-family="Helvetica,sans-Serif" font-size="10.00">unroll</text>
</a>
</g>
</g>
<!-- Node42&#45;&gt;Node49 -->
<g id="edge64" class="edge"><title>Node42&#45;&gt;Node49</title>
<path fill="none" stroke="midnightblue" d="M273.769,-192.62C295.488,-172.685 330.992,-140.097 348.526,-124.003"/>
<polygon fill="midnightblue" stroke="midnightblue" points="271.187,-190.24 266.186,-199.58 275.92,-195.397 271.187,-190.24"/>
</g>
<!-- Node50 -->
<g id="node50" class="node"><title>Node50</title>
<g id="a_node50"><a xlink:href="../../d3/d08/ldo_8c.html#abd7632c715de5db6e7797b7fa3f7010f" target="_top" xlink:title="resume">
<polygon fill="none" stroke="black" points="439.5,-66.8891 439.5,-85.8891 486.5,-85.8891 486.5,-66.8891 439.5,-66.8891"/>
<text text-anchor="middle" x="463" y="-73.8891" font-family="Helvetica,sans-Serif" font-size="10.00">resume</text>
</a>
</g>
</g>
<!-- Node42&#45;&gt;Node50 -->
<g id="edge68" class="edge"><title>Node42&#45;&gt;Node50</title>
<path fill="none" stroke="midnightblue" d="M262.565,-190.186C273.264,-164.05 296.202,-117.954 332,-95.3891 364.995,-74.5901 411.915,-73.0998 439.434,-74.4031"/>
<polygon fill="midnightblue" stroke="midnightblue" points="259.212,-189.151 258.839,-199.739 265.734,-191.695 259.212,-189.151"/>
</g>
<!-- Node43&#45;&gt;Node34 -->
<g id="edge61" class="edge"><title>Node43&#45;&gt;Node34</title>
<path fill="none" stroke="midnightblue" d="M380.709,-225.9C383.255,-228.32 385.755,-230.854 388,-233.389 406.637,-254.432 399.102,-272.343 424,-285.389 471.418,-310.234 536.687,-289.549 569.65,-275.948"/>
<polygon fill="midnightblue" stroke="midnightblue" points="382.913,-223.176 373.135,-219.095 378.234,-228.382 382.913,-223.176"/>
</g>
<!-- Node43&#45;&gt;Node42 -->
<g id="edge63" class="edge"><title>Node43&#45;&gt;Node42</title>
<path fill="none" stroke="midnightblue" d="M321.587,-215.903C311.849,-216.231 301.374,-216.217 291.699,-215.861"/>
<polygon fill="midnightblue" stroke="midnightblue" points="321.973,-219.389 331.794,-215.413 321.637,-212.397 321.973,-219.389"/>
</g>
<!-- Node44 -->
<g id="node44" class="node"><title>Node44</title>
<g id="a_node44"><a xlink:href="../../dd/d4a/lvm_8c.html#aa904883a58699d9c6ef4d6f0f45037f6" target="_top" xlink:title="callTM">
<polygon fill="none" stroke="red" points="441,-142.889 441,-161.889 485,-161.889 485,-142.889 441,-142.889"/>
<text text-anchor="middle" x="463" y="-149.889" font-family="Helvetica,sans-Serif" font-size="10.00">callTM</text>
</a>
</g>
</g>
<!-- Node43&#45;&gt;Node44 -->
<g id="edge55" class="edge"><title>Node43&#45;&gt;Node44</title>
<path fill="none" stroke="midnightblue" d="M384.801,-194.425C396.484,-187.236 410.844,-178.631 424,-171.389 429.815,-168.188 436.239,-164.889 442.123,-161.957"/>
<polygon fill="midnightblue" stroke="midnightblue" points="382.734,-191.588 376.079,-199.833 386.423,-197.537 382.734,-191.588"/>
</g>
<!-- Node45 -->
<g id="node45" class="node"><title>Node45</title>
<g id="a_node45"><a xlink:href="../../de/d27/lgc_8c.html#a929058f72c03750fa82374f6bfa639ee" target="_top" xlink:title="dothecall">
<polygon fill="none" stroke="black" points="436.5,-332.889 436.5,-351.889 489.5,-351.889 489.5,-332.889 436.5,-332.889"/>
<text text-anchor="middle" x="463" y="-339.889" font-family="Helvetica,sans-Serif" font-size="10.00">dothecall</text>
</a>
</g>
</g>
<!-- Node43&#45;&gt;Node45 -->
<g id="edge56" class="edge"><title>Node43&#45;&gt;Node45</title>
<path fill="none" stroke="midnightblue" d="M381.352,-225.634C383.769,-228.077 386.062,-230.688 388,-233.389 411.917,-266.722 397.443,-287.118 424,-318.389 428.849,-324.099 435.405,-328.901 441.706,-332.674"/>
<polygon fill="midnightblue" stroke="midnightblue" points="383.702,-223.041 373.954,-218.889 378.986,-228.213 383.702,-223.041"/>
</g>
<!-- Node46 -->
<g id="node46" class="node"><title>Node46</title>
<g id="a_node46"><a xlink:href="../../df/db6/lapi_8c.html#ac3926c93fb08234f9f47e24653124910" target="_top" xlink:title="f_call">
<polygon fill="none" stroke="black" points="444,-256.889 444,-275.889 482,-275.889 482,-256.889 444,-256.889"/>
<text text-anchor="middle" x="463" y="-263.889" font-family="Helvetica,sans-Serif" font-size="10.00">f_call</text>
</a>
</g>
</g>
<!-- Node43&#45;&gt;Node46 -->
<g id="edge58" class="edge"><title>Node43&#45;&gt;Node46</title>
<path fill="none" stroke="midnightblue" d="M384.801,-224.354C396.484,-231.542 410.844,-240.147 424,-247.389 430.332,-250.875 437.385,-254.476 443.679,-257.594"/>
<polygon fill="midnightblue" stroke="midnightblue" points="386.423,-221.241 376.079,-218.945 382.734,-227.19 386.423,-221.241"/>
</g>
<!-- Node47 -->
<g id="node47" class="node"><title>Node47</title>
<g id="a_node47"><a xlink:href="../../da/dd2/lua_8h.html#aa6aba1fd89ac6f1c5ccfdfd12f826d80" target="_top" xlink:title="lua_callk">
<polygon fill="none" stroke="red" points="436.5,-218.889 436.5,-237.889 489.5,-237.889 489.5,-218.889 436.5,-218.889"/>
<text text-anchor="middle" x="463" y="-225.889" font-family="Helvetica,sans-Serif" font-size="10.00">lua_callk</text>
</a>
</g>
</g>
<!-- Node43&#45;&gt;Node47 -->
<g id="edge60" class="edge"><title>Node43&#45;&gt;Node47</title>
<path fill="none" stroke="midnightblue" d="M397.935,-216.337C410.656,-218.73 424.618,-221.357 436.252,-223.545"/>
<polygon fill="midnightblue" stroke="midnightblue" points="398.541,-212.89 388.066,-214.481 397.247,-219.769 398.541,-212.89"/>
</g>
<!-- Node48 -->
<g id="node48" class="node"><title>Node48</title>
<g id="a_node48"><a xlink:href="../../db/d46/ldebug_8h.html#acd5ef9f67a8e9d08f6540636fdbeafe6" target="_top" xlink:title="luaG_errormsg">
<polygon fill="none" stroke="red" points="424,-180.889 424,-199.889 502,-199.889 502,-180.889 424,-180.889"/>
<text text-anchor="middle" x="463" y="-187.889" font-family="Helvetica,sans-Serif" font-size="10.00">luaG_errormsg</text>
</a>
</g>
</g>
<!-- Node43&#45;&gt;Node48 -->
<g id="edge62" class="edge"><title>Node43&#45;&gt;Node48</title>
<path fill="none" stroke="midnightblue" d="M397.999,-202.429C406.42,-200.845 415.38,-199.159 423.848,-197.566"/>
<polygon fill="midnightblue" stroke="midnightblue" points="397.247,-199.009 388.066,-204.297 398.541,-205.888 397.247,-199.009"/>
</g>
<!-- Node45&#45;&gt;Node25 -->
<g id="edge57" class="edge"><title>Node45&#45;&gt;Node25</title>
<path fill="none" stroke="midnightblue" d="M499.609,-342.389C521.682,-342.389 549.345,-342.389 568.321,-342.389"/>
<polygon fill="midnightblue" stroke="midnightblue" points="499.599,-338.889 489.599,-342.389 499.599,-345.889 499.599,-338.889"/>
</g>
<!-- Node46&#45;&gt;Node34 -->
<g id="edge59" class="edge"><title>Node46&#45;&gt;Node34</title>
<path fill="none" stroke="midnightblue" d="M492.192,-266.389C512.862,-266.389 540.835,-266.389 561.657,-266.389"/>
<polygon fill="midnightblue" stroke="midnightblue" points="492.124,-262.889 482.124,-266.389 492.124,-269.889 492.124,-262.889"/>
</g>
<!-- Node49&#45;&gt;Node20 -->
<g id="edge65" class="edge"><title>Node49&#45;&gt;Node20</title>
<path fill="none" stroke="midnightblue" d="M389.398,-111.218C417.944,-107.877 463.162,-102.164 502,-95.3891 520.887,-92.0943 541.871,-87.6247 558.665,-83.8484"/>
<polygon fill="midnightblue" stroke="midnightblue" points="388.855,-107.757 379.322,-112.38 389.657,-114.711 388.855,-107.757"/>
</g>
<!-- Node49&#45;&gt;Node50 -->
<g id="edge66" class="edge"><title>Node49&#45;&gt;Node50</title>
<path fill="none" stroke="midnightblue" d="M388.826,-103.92C404.648,-97.9669 424.218,-90.6042 439.137,-84.9911"/>
<polygon fill="midnightblue" stroke="midnightblue" points="387.184,-100.798 379.057,-107.595 389.649,-107.35 387.184,-100.798"/>
</g>
<!-- Node50&#45;&gt;Node20 -->
<g id="edge67" class="edge"><title>Node50&#45;&gt;Node20</title>
<path fill="none" stroke="midnightblue" d="M496.638,-76.3891C515.697,-76.3891 539.642,-76.3891 558.576,-76.3891"/>
<polygon fill="midnightblue" stroke="midnightblue" points="496.616,-72.8892 486.616,-76.3891 496.616,-79.8892 496.616,-72.8892"/>
</g>
</g>
</svg>
