<?xml version="1.0" encoding="UTF-8" standalone="no"?>
<!DOCTYPE svg PUBLIC "-//W3C//DTD SVG 1.1//EN"
 "http://www.w3.org/Graphics/SVG/1.1/DTD/svg11.dtd">
<!-- Generated by graphviz version 2.38.0 (20140413.2041)
 -->
<!-- Title: luaF_findupval Pages: 1 -->
<svg width="1009pt" height="1138pt"
 viewBox="0.00 0.00 1009.00 1138.00" xmlns="http://www.w3.org/2000/svg" xmlns:xlink="http://www.w3.org/1999/xlink">
<g id="graph0" class="graph" transform="scale(1 1) rotate(0) translate(4 1134)">
<title>luaF_findupval</title>
<!-- Node1 -->
<g id="node1" class="node"><title>Node1</title>
<polygon fill="#bfbfbf" stroke="black" points="0,-380.5 0,-399.5 78,-399.5 78,-380.5 0,-380.5"/>
<text text-anchor="middle" x="39" y="-387.5" font-family="Helvetica,sans-Serif" font-size="10.00">luaF_findupval</text>
</g>
<!-- Node2 -->
<g id="node2" class="node"><title>Node2</title>
<g id="a_node2"><a xlink:href="../../dd/d4a/lvm_8c.html#a4bcc07915cc8b4d397b6d411e4d2723c" target="_top" xlink:title="pushclosure">
<polygon fill="none" stroke="black" points="114,-380.5 114,-399.5 182,-399.5 182,-380.5 114,-380.5"/>
<text text-anchor="middle" x="148" y="-387.5" font-family="Helvetica,sans-Serif" font-size="10.00">pushclosure</text>
</a>
</g>
</g>
<!-- Node1&#45;&gt;Node2 -->
<g id="edge1" class="edge"><title>Node1&#45;&gt;Node2</title>
<path fill="none" stroke="midnightblue" d="M88.0569,-390C96.7247,-390 105.585,-390 113.715,-390"/>
<polygon fill="midnightblue" stroke="midnightblue" points="88.0255,-386.5 78.0255,-390 88.0254,-393.5 88.0255,-386.5"/>
</g>
<!-- Node3 -->
<g id="node3" class="node"><title>Node3</title>
<g id="a_node3"><a xlink:href="../../d5/dcd/lvm_8h.html#ae93565adc36c6e2157dbbd875433ede1" target="_top" xlink:title="luaV_execute">
<polygon fill="none" stroke="black" points="218,-380.5 218,-399.5 292,-399.5 292,-380.5 218,-380.5"/>
<text text-anchor="middle" x="255" y="-387.5" font-family="Helvetica,sans-Serif" font-size="10.00">luaV_execute</text>
</a>
</g>
</g>
<!-- Node2&#45;&gt;Node3 -->
<g id="edge2" class="edge"><title>Node2&#45;&gt;Node3</title>
<path fill="none" stroke="midnightblue" d="M192.303,-390C200.751,-390 209.526,-390 217.718,-390"/>
<polygon fill="midnightblue" stroke="midnightblue" points="192.223,-386.5 182.223,-390 192.223,-393.5 192.223,-386.5"/>
</g>
<!-- Node4 -->
<g id="node4" class="node"><title>Node4</title>
<g id="a_node4"><a xlink:href="../../d2/dd9/ldo_8h.html#a7bb0b106d4012134156e0fa240f51228" target="_top" xlink:title="luaD_call">
<polygon fill="none" stroke="black" points="328,-304.5 328,-323.5 384,-323.5 384,-304.5 328,-304.5"/>
<text text-anchor="middle" x="356" y="-311.5" font-family="Helvetica,sans-Serif" font-size="10.00">luaD_call</text>
</a>
</g>
</g>
<!-- Node3&#45;&gt;Node4 -->
<g id="edge3" class="edge"><title>Node3&#45;&gt;Node4</title>
<path fill="none" stroke="midnightblue" d="M271.229,-373.276C288.365,-358.014 316.262,-336.431 335.107,-323.736"/>
<polygon fill="midnightblue" stroke="midnightblue" points="268.722,-370.828 263.768,-380.193 273.481,-375.961 268.722,-370.828"/>
</g>
<!-- Node47 -->
<g id="node47" class="node"><title>Node47</title>
<g id="a_node47"><a xlink:href="../../d3/d08/ldo_8c.html#a3baab9d298c0c32cb74a9a079d7244de" target="_top" xlink:title="unroll">
<polygon fill="none" stroke="black" points="337,-114.5 337,-133.5 375,-133.5 375,-114.5 337,-114.5"/>
<text text-anchor="middle" x="356" y="-121.5" font-family="Helvetica,sans-Serif" font-size="10.00">unroll</text>
</a>
</g>
</g>
<!-- Node3&#45;&gt;Node47 -->
<g id="edge65" class="edge"><title>Node3&#45;&gt;Node47</title>
<path fill="none" stroke="midnightblue" d="M263.189,-370.684C282.85,-317.858 337.005,-172.351 351.43,-133.591"/>
<polygon fill="midnightblue" stroke="midnightblue" points="259.849,-369.625 259.641,-380.217 266.409,-372.066 259.849,-369.625"/>
</g>
<!-- Node50 -->
<g id="node50" class="node"><title>Node50</title>
<g id="a_node50"><a xlink:href="../../d3/d08/ldo_8c.html#abd7632c715de5db6e7797b7fa3f7010f" target="_top" xlink:title="resume">
<polygon fill="none" stroke="black" points="435.5,-76.5 435.5,-95.5 482.5,-95.5 482.5,-76.5 435.5,-76.5"/>
<text text-anchor="middle" x="459" y="-83.5" font-family="Helvetica,sans-Serif" font-size="10.00">resume</text>
</a>
</g>
</g>
<!-- Node3&#45;&gt;Node50 -->
<g id="edge71" class="edge"><title>Node3&#45;&gt;Node50</title>
<path fill="none" stroke="midnightblue" d="M258.148,-370.359C264.948,-311.949 287.955,-141.144 328,-105 357.293,-78.5611 406.363,-79.1791 435.103,-82.359"/>
<polygon fill="midnightblue" stroke="midnightblue" points="254.65,-370.139 257.004,-380.469 261.606,-370.926 254.65,-370.139"/>
</g>
<!-- Node4&#45;&gt;Node3 -->
<g id="edge64" class="edge"><title>Node4&#45;&gt;Node3</title>
<path fill="none" stroke="midnightblue" d="M339.609,-330.869C322.358,-346.213 294.349,-367.865 275.559,-380.489"/>
<polygon fill="midnightblue" stroke="midnightblue" points="342.165,-333.272 347.126,-323.91 337.409,-328.135 342.165,-333.272"/>
</g>
<!-- Node5 -->
<g id="node5" class="node"><title>Node5</title>
<g id="a_node5"><a xlink:href="../../dd/d4a/lvm_8c.html#aa904883a58699d9c6ef4d6f0f45037f6" target="_top" xlink:title="callTM">
<polygon fill="none" stroke="black" points="437,-835.5 437,-854.5 481,-854.5 481,-835.5 437,-835.5"/>
<text text-anchor="middle" x="459" y="-842.5" font-family="Helvetica,sans-Serif" font-size="10.00">callTM</text>
</a>
</g>
</g>
<!-- Node4&#45;&gt;Node5 -->
<g id="edge4" class="edge"><title>Node4&#45;&gt;Node5</title>
<path fill="none" stroke="midnightblue" d="M360.719,-333.554C377.284,-420.642 444.059,-771.707 456.126,-835.148"/>
<polygon fill="midnightblue" stroke="midnightblue" points="364.146,-332.84 358.839,-323.67 357.27,-334.148 364.146,-332.84"/>
</g>
<!-- Node32 -->
<g id="node32" class="node"><title>Node32</title>
<g id="a_node32"><a xlink:href="../../de/d27/lgc_8c.html#a929058f72c03750fa82374f6bfa639ee" target="_top" xlink:title="dothecall">
<polygon fill="none" stroke="black" points="432.5,-228.5 432.5,-247.5 485.5,-247.5 485.5,-228.5 432.5,-228.5"/>
<text text-anchor="middle" x="459" y="-235.5" font-family="Helvetica,sans-Serif" font-size="10.00">dothecall</text>
</a>
</g>
</g>
<!-- Node4&#45;&gt;Node32 -->
<g id="edge46" class="edge"><title>Node4&#45;&gt;Node32</title>
<path fill="none" stroke="midnightblue" d="M373.299,-296.955C385.439,-284.856 402.819,-268.743 420,-257 424.993,-253.587 430.687,-250.411 436.119,-247.671"/>
<polygon fill="midnightblue" stroke="midnightblue" points="370.65,-294.657 366.132,-304.24 375.64,-299.566 370.65,-294.657"/>
</g>
<!-- Node36 -->
<g id="node36" class="node"><title>Node36</title>
<g id="a_node36"><a xlink:href="../../df/db6/lapi_8c.html#ac3926c93fb08234f9f47e24653124910" target="_top" xlink:title="f_call">
<polygon fill="none" stroke="black" points="440,-152.5 440,-171.5 478,-171.5 478,-152.5 440,-152.5"/>
<text text-anchor="middle" x="459" y="-159.5" font-family="Helvetica,sans-Serif" font-size="10.00">f_call</text>
</a>
</g>
</g>
<!-- Node4&#45;&gt;Node36 -->
<g id="edge50" class="edge"><title>Node4&#45;&gt;Node36</title>
<path fill="none" stroke="midnightblue" d="M362.84,-294.513C371.676,-267.605 390.596,-218.696 420,-186 425.531,-179.85 432.996,-174.678 439.846,-170.729"/>
<polygon fill="midnightblue" stroke="midnightblue" points="359.429,-293.693 359.761,-304.283 366.105,-295.797 359.429,-293.693"/>
</g>
<!-- Node37 -->
<g id="node37" class="node"><title>Node37</title>
<g id="a_node37"><a xlink:href="../../da/dd2/lua_8h.html#a3c4de08aa665eaee4aabd330aa99a441" target="_top" xlink:title="lua_pcallk">
<polygon fill="none" stroke="black" points="546,-114.5 546,-133.5 605,-133.5 605,-114.5 546,-114.5"/>
<text text-anchor="middle" x="575.5" y="-121.5" font-family="Helvetica,sans-Serif" font-size="10.00">lua_pcallk</text>
</a>
</g>
</g>
<!-- Node4&#45;&gt;Node37 -->
<g id="edge56" class="edge"><title>Node4&#45;&gt;Node37</title>
<path fill="none" stroke="midnightblue" d="M365.586,-295.327C375.968,-274.454 395.179,-240.738 420,-219 449.009,-193.594 466.907,-203.808 498,-181 516.759,-167.24 515.141,-156.622 534,-143 538.911,-139.453 544.589,-136.303 550.111,-133.639"/>
<polygon fill="midnightblue" stroke="midnightblue" points="362.387,-293.904 361.214,-304.433 368.698,-296.934 362.387,-293.904"/>
</g>
<!-- Node40 -->
<g id="node40" class="node"><title>Node40</title>
<g id="a_node40"><a xlink:href="../../da/dd2/lua_8h.html#aa6aba1fd89ac6f1c5ccfdfd12f826d80" target="_top" xlink:title="lua_callk">
<polygon fill="none" stroke="black" points="432.5,-266.5 432.5,-285.5 485.5,-285.5 485.5,-266.5 432.5,-266.5"/>
<text text-anchor="middle" x="459" y="-273.5" font-family="Helvetica,sans-Serif" font-size="10.00">lua_callk</text>
</a>
</g>
</g>
<!-- Node4&#45;&gt;Node40 -->
<g id="edge54" class="edge"><title>Node4&#45;&gt;Node40</title>
<path fill="none" stroke="midnightblue" d="M391.866,-300.882C405.225,-295.856 420.202,-290.221 432.522,-285.586"/>
<polygon fill="midnightblue" stroke="midnightblue" points="390.614,-297.614 382.487,-304.411 393.079,-304.165 390.614,-297.614"/>
</g>
<!-- Node42 -->
<g id="node42" class="node"><title>Node42</title>
<g id="a_node42"><a xlink:href="../../db/d46/ldebug_8h.html#acd5ef9f67a8e9d08f6540636fdbeafe6" target="_top" xlink:title="luaG_errormsg">
<polygon fill="none" stroke="black" points="420,-304.5 420,-323.5 498,-323.5 498,-304.5 420,-304.5"/>
<text text-anchor="middle" x="459" y="-311.5" font-family="Helvetica,sans-Serif" font-size="10.00">luaG_errormsg</text>
</a>
</g>
</g>
<!-- Node4&#45;&gt;Node42 -->
<g id="edge57" class="edge"><title>Node4&#45;&gt;Node42</title>
<path fill="none" stroke="midnightblue" d="M394.277,-314C402.617,-314 411.473,-314 419.848,-314"/>
<polygon fill="midnightblue" stroke="midnightblue" points="394.066,-310.5 384.066,-314 394.066,-317.5 394.066,-310.5"/>
</g>
<!-- Node6 -->
<g id="node6" class="node"><title>Node6</title>
<g id="a_node6"><a xlink:href="../../d5/dcd/lvm_8h.html#adacdbccc9d8fab937a1b0dc058c8da12" target="_top" xlink:title="luaV_gettable">
<polygon fill="none" stroke="black" points="807.5,-968.5 807.5,-987.5 882.5,-987.5 882.5,-968.5 807.5,-968.5"/>
<text text-anchor="middle" x="845" y="-975.5" font-family="Helvetica,sans-Serif" font-size="10.00">luaV_gettable</text>
</a>
</g>
</g>
<!-- Node5&#45;&gt;Node6 -->
<g id="edge5" class="edge"><title>Node5&#45;&gt;Node6</title>
<path fill="none" stroke="midnightblue" d="M474.486,-862.392C503.92,-896.198 574.61,-969.838 653,-997 709.204,-1016.47 779.89,-999.554 817.537,-987.524"/>
<polygon fill="midnightblue" stroke="midnightblue" points="477.072,-860.031 467.912,-854.708 471.753,-864.581 477.072,-860.031"/>
</g>
<!-- Node10 -->
<g id="node10" class="node"><title>Node10</title>
<g id="a_node10"><a xlink:href="../../d5/dcd/lvm_8h.html#a5885d48fd66eb236f8b8f6e4938cbcce" target="_top" xlink:title="luaV_settable">
<polygon fill="none" stroke="black" points="807.5,-854.5 807.5,-873.5 882.5,-873.5 882.5,-854.5 807.5,-854.5"/>
<text text-anchor="middle" x="845" y="-861.5" font-family="Helvetica,sans-Serif" font-size="10.00">luaV_settable</text>
</a>
</g>
</g>
<!-- Node5&#45;&gt;Node10 -->
<g id="edge10" class="edge"><title>Node5&#45;&gt;Node10</title>
<path fill="none" stroke="midnightblue" d="M491.205,-846.544C561.538,-850.024 732.151,-858.466 807.357,-862.187"/>
<polygon fill="midnightblue" stroke="midnightblue" points="491.353,-843.047 481.192,-846.049 491.007,-850.039 491.353,-843.047"/>
</g>
<!-- Node14 -->
<g id="node14" class="node"><title>Node14</title>
<g id="a_node14"><a xlink:href="../../dd/d4a/lvm_8c.html#a5f9dd797eb313b8e117cb20546276732" target="_top" xlink:title="call_binTM">
<polygon fill="none" stroke="black" points="544.5,-380.5 544.5,-399.5 606.5,-399.5 606.5,-380.5 544.5,-380.5"/>
<text text-anchor="middle" x="575.5" y="-387.5" font-family="Helvetica,sans-Serif" font-size="10.00">call_binTM</text>
</a>
</g>
</g>
<!-- Node5&#45;&gt;Node14 -->
<g id="edge15" class="edge"><title>Node5&#45;&gt;Node14</title>
<path fill="none" stroke="midnightblue" d="M464.896,-825.544C484.586,-747.299 557.623,-457.066 572.025,-399.836"/>
<polygon fill="midnightblue" stroke="midnightblue" points="461.438,-824.945 462.391,-835.497 468.226,-826.653 461.438,-824.945"/>
</g>
<!-- Node25 -->
<g id="node25" class="node"><title>Node25</title>
<g id="a_node25"><a xlink:href="../../d5/dcd/lvm_8h.html#a414b4b487239935324f2f16e1e7715db" target="_top" xlink:title="luaV_objlen">
<polygon fill="none" stroke="black" points="811.5,-1044.5 811.5,-1063.5 878.5,-1063.5 878.5,-1044.5 811.5,-1044.5"/>
<text text-anchor="middle" x="845" y="-1051.5" font-family="Helvetica,sans-Serif" font-size="10.00">luaV_objlen</text>
</a>
</g>
</g>
<!-- Node5&#45;&gt;Node25 -->
<g id="edge45" class="edge"><title>Node5&#45;&gt;Node25</title>
<path fill="none" stroke="midnightblue" d="M467.22,-864.136C478.022,-890.413 500.74,-937.628 534,-966 615.934,-1035.89 749.932,-1050.43 811.365,-1053.34"/>
<polygon fill="midnightblue" stroke="midnightblue" points="470.37,-862.583 463.437,-854.571 463.86,-865.158 470.37,-862.583"/>
</g>
<!-- Node31 -->
<g id="node31" class="node"><title>Node31</title>
<g id="a_node31"><a xlink:href="../../d5/dcd/lvm_8h.html#ab77cced08254efde4e5dfb28b37a7f31" target="_top" xlink:title="luaV_equalobj_">
<polygon fill="none" stroke="black" points="534,-816.5 534,-835.5 617,-835.5 617,-816.5 534,-816.5"/>
<text text-anchor="middle" x="575.5" y="-823.5" font-family="Helvetica,sans-Serif" font-size="10.00">luaV_equalobj_</text>
</a>
</g>
</g>
<!-- Node5&#45;&gt;Node31 -->
<g id="edge44" class="edge"><title>Node5&#45;&gt;Node31</title>
<path fill="none" stroke="midnightblue" d="M490.968,-839.861C504.119,-837.679 519.632,-835.105 533.698,-832.771"/>
<polygon fill="midnightblue" stroke="midnightblue" points="490.293,-836.425 481.001,-841.515 491.439,-843.331 490.293,-836.425"/>
</g>
<!-- Node6&#45;&gt;Node3 -->
<g id="edge9" class="edge"><title>Node6&#45;&gt;Node3</title>
<path fill="none" stroke="midnightblue" d="M823.456,-993.602C780.239,-1024.82 675.709,-1092 576.5,-1092 458,-1092 458,-1092 458,-1092 306.925,-1092 262.091,-483.973 256.6,-399.657"/>
<polygon fill="midnightblue" stroke="midnightblue" points="825.74,-996.267 831.724,-987.523 821.594,-990.627 825.74,-996.267"/>
</g>
<!-- Node7 -->
<g id="node7" class="node"><title>Node7</title>
<g id="a_node7"><a xlink:href="../../da/dd2/lua_8h.html#a2b4a9010af0545ae0f822d7f081370d0" target="_top" xlink:title="lua_getglobal">
<polygon fill="none" stroke="red" points="928,-968.5 928,-987.5 1001,-987.5 1001,-968.5 928,-968.5"/>
<text text-anchor="middle" x="964.5" y="-975.5" font-family="Helvetica,sans-Serif" font-size="10.00">lua_getglobal</text>
</a>
</g>
</g>
<!-- Node6&#45;&gt;Node7 -->
<g id="edge6" class="edge"><title>Node6&#45;&gt;Node7</title>
<path fill="none" stroke="midnightblue" d="M892.605,-978C904.32,-978 916.708,-978 927.795,-978"/>
<polygon fill="midnightblue" stroke="midnightblue" points="892.534,-974.5 882.534,-978 892.534,-981.5 892.534,-974.5"/>
</g>
<!-- Node8 -->
<g id="node8" class="node"><title>Node8</title>
<g id="a_node8"><a xlink:href="../../da/dd2/lua_8h.html#a8d82fa181a3003e9a304040c0bbed9ac" target="_top" xlink:title="lua_gettable">
<polygon fill="none" stroke="red" points="930.5,-930.5 930.5,-949.5 998.5,-949.5 998.5,-930.5 930.5,-930.5"/>
<text text-anchor="middle" x="964.5" y="-937.5" font-family="Helvetica,sans-Serif" font-size="10.00">lua_gettable</text>
</a>
</g>
</g>
<!-- Node6&#45;&gt;Node8 -->
<g id="edge7" class="edge"><title>Node6&#45;&gt;Node8</title>
<path fill="none" stroke="midnightblue" d="M885.209,-965.32C901.085,-960.185 919.11,-954.356 933.859,-949.586"/>
<polygon fill="midnightblue" stroke="midnightblue" points="884.088,-962.004 875.65,-968.411 886.242,-968.664 884.088,-962.004"/>
</g>
<!-- Node9 -->
<g id="node9" class="node"><title>Node9</title>
<g id="a_node9"><a xlink:href="../../da/dd2/lua_8h.html#ac3112bb28ba217adc46f13da8e9e6585" target="_top" xlink:title="lua_getfield">
<polygon fill="none" stroke="red" points="933,-1006.5 933,-1025.5 996,-1025.5 996,-1006.5 933,-1006.5"/>
<text text-anchor="middle" x="964.5" y="-1013.5" font-family="Helvetica,sans-Serif" font-size="10.00">lua_getfield</text>
</a>
</g>
</g>
<!-- Node6&#45;&gt;Node9 -->
<g id="edge8" class="edge"><title>Node6&#45;&gt;Node9</title>
<path fill="none" stroke="midnightblue" d="M885.209,-990.68C901.085,-995.815 919.11,-1001.64 933.859,-1006.41"/>
<polygon fill="midnightblue" stroke="midnightblue" points="886.242,-987.336 875.65,-987.589 884.088,-993.996 886.242,-987.336"/>
</g>
<!-- Node10&#45;&gt;Node3 -->
<g id="edge14" class="edge"><title>Node10&#45;&gt;Node3</title>
<path fill="none" stroke="midnightblue" d="M807.929,-876.879C728.888,-902.604 538.067,-950.786 420,-864 258.275,-745.124 254.826,-456.044 255.744,-399.634"/>
<polygon fill="midnightblue" stroke="midnightblue" points="809.501,-880.045 817.883,-873.564 807.289,-873.403 809.501,-880.045"/>
</g>
<!-- Node11 -->
<g id="node11" class="node"><title>Node11</title>
<g id="a_node11"><a xlink:href="../../da/dd2/lua_8h.html#ac0ebe7d753b81f6249dde8cf0b8ea997" target="_top" xlink:title="lua_setglobal">
<polygon fill="none" stroke="red" points="928,-854.5 928,-873.5 1001,-873.5 1001,-854.5 928,-854.5"/>
<text text-anchor="middle" x="964.5" y="-861.5" font-family="Helvetica,sans-Serif" font-size="10.00">lua_setglobal</text>
</a>
</g>
</g>
<!-- Node10&#45;&gt;Node11 -->
<g id="edge11" class="edge"><title>Node10&#45;&gt;Node11</title>
<path fill="none" stroke="midnightblue" d="M892.605,-864C904.32,-864 916.708,-864 927.795,-864"/>
<polygon fill="midnightblue" stroke="midnightblue" points="892.534,-860.5 882.534,-864 892.534,-867.5 892.534,-860.5"/>
</g>
<!-- Node12 -->
<g id="node12" class="node"><title>Node12</title>
<g id="a_node12"><a xlink:href="../../da/dd2/lua_8h.html#aeda173d104e3a566ccaac89a1f64a5eb" target="_top" xlink:title="lua_settable">
<polygon fill="none" stroke="red" points="930.5,-816.5 930.5,-835.5 998.5,-835.5 998.5,-816.5 930.5,-816.5"/>
<text text-anchor="middle" x="964.5" y="-823.5" font-family="Helvetica,sans-Serif" font-size="10.00">lua_settable</text>
</a>
</g>
</g>
<!-- Node10&#45;&gt;Node12 -->
<g id="edge12" class="edge"><title>Node10&#45;&gt;Node12</title>
<path fill="none" stroke="midnightblue" d="M885.209,-851.32C901.085,-846.185 919.11,-840.356 933.859,-835.586"/>
<polygon fill="midnightblue" stroke="midnightblue" points="884.088,-848.004 875.65,-854.411 886.242,-854.664 884.088,-848.004"/>
</g>
<!-- Node13 -->
<g id="node13" class="node"><title>Node13</title>
<g id="a_node13"><a xlink:href="../../da/dd2/lua_8h.html#a9580a15c141cbe4bf2a63fea625c3878" target="_top" xlink:title="lua_setfield">
<polygon fill="none" stroke="red" points="933,-892.5 933,-911.5 996,-911.5 996,-892.5 933,-892.5"/>
<text text-anchor="middle" x="964.5" y="-899.5" font-family="Helvetica,sans-Serif" font-size="10.00">lua_setfield</text>
</a>
</g>
</g>
<!-- Node10&#45;&gt;Node13 -->
<g id="edge13" class="edge"><title>Node10&#45;&gt;Node13</title>
<path fill="none" stroke="midnightblue" d="M885.209,-876.68C901.085,-881.815 919.11,-887.644 933.859,-892.414"/>
<polygon fill="midnightblue" stroke="midnightblue" points="886.242,-873.336 875.65,-873.589 884.088,-879.996 886.242,-873.336"/>
</g>
<!-- Node15 -->
<g id="node15" class="node"><title>Node15</title>
<g id="a_node15"><a xlink:href="../../dd/d4a/lvm_8c.html#a1d1301ff4a771ce4198673dd113d10a5" target="_top" xlink:title="call_orderTM">
<polygon fill="none" stroke="red" points="673,-380.5 673,-399.5 742,-399.5 742,-380.5 673,-380.5"/>
<text text-anchor="middle" x="707.5" y="-387.5" font-family="Helvetica,sans-Serif" font-size="10.00">call_orderTM</text>
</a>
</g>
</g>
<!-- Node14&#45;&gt;Node15 -->
<g id="edge16" class="edge"><title>Node14&#45;&gt;Node15</title>
<path fill="none" stroke="midnightblue" d="M616.841,-390C634.814,-390 655.74,-390 672.853,-390"/>
<polygon fill="midnightblue" stroke="midnightblue" points="616.651,-386.5 606.651,-390 616.651,-393.5 616.651,-386.5"/>
</g>
<!-- Node16 -->
<g id="node16" class="node"><title>Node16</title>
<g id="a_node16"><a xlink:href="../../d5/dcd/lvm_8h.html#aee84bfc563cb4bdd21a013218a289aa7" target="_top" xlink:title="luaV_concat">
<polygon fill="none" stroke="red" points="673,-418.5 673,-437.5 742,-437.5 742,-418.5 673,-418.5"/>
<text text-anchor="middle" x="707.5" y="-425.5" font-family="Helvetica,sans-Serif" font-size="10.00">luaV_concat</text>
</a>
</g>
</g>
<!-- Node14&#45;&gt;Node16 -->
<g id="edge17" class="edge"><title>Node14&#45;&gt;Node16</title>
<path fill="none" stroke="midnightblue" d="M616.49,-401.689C634.866,-407.061 656.389,-413.352 673.779,-418.436"/>
<polygon fill="midnightblue" stroke="midnightblue" points="617.232,-398.26 606.651,-398.813 615.268,-404.979 617.232,-398.26"/>
</g>
<!-- Node30 -->
<g id="node30" class="node"><title>Node30</title>
<g id="a_node30"><a xlink:href="../../d5/dcd/lvm_8h.html#a275e261afaec876cd16944b95c955642" target="_top" xlink:title="luaV_arith">
<polygon fill="none" stroke="red" points="678,-342.5 678,-361.5 737,-361.5 737,-342.5 678,-342.5"/>
<text text-anchor="middle" x="707.5" y="-349.5" font-family="Helvetica,sans-Serif" font-size="10.00">luaV_arith</text>
</a>
</g>
</g>
<!-- Node14&#45;&gt;Node30 -->
<g id="edge42" class="edge"><title>Node14&#45;&gt;Node30</title>
<path fill="none" stroke="midnightblue" d="M616.359,-378.349C636.225,-372.542 659.795,-365.652 677.85,-360.375"/>
<polygon fill="midnightblue" stroke="midnightblue" points="615.268,-375.021 606.651,-381.187 617.232,-381.74 615.268,-375.021"/>
</g>
<!-- Node16&#45;&gt;Node3 -->
<g id="edge41" class="edge"><title>Node16&#45;&gt;Node3</title>
<path fill="none" stroke="midnightblue" d="M662.682,-424.304C573.851,-416.811 374.048,-399.957 292.105,-393.045"/>
<polygon fill="midnightblue" stroke="midnightblue" points="662.438,-427.796 672.697,-425.149 663.027,-420.82 662.438,-427.796"/>
</g>
<!-- Node17 -->
<g id="node17" class="node"><title>Node17</title>
<g id="a_node17"><a xlink:href="../../d2/d51/lobject_8h.html#a0d323372aa00f179e1c070d305f879f3" target="_top" xlink:title="luaO_pushvfstring">
<polygon fill="none" stroke="red" points="798,-465.5 798,-484.5 892,-484.5 892,-465.5 798,-465.5"/>
<text text-anchor="middle" x="845" y="-472.5" font-family="Helvetica,sans-Serif" font-size="10.00">luaO_pushvfstring</text>
</a>
</g>
</g>
<!-- Node16&#45;&gt;Node17 -->
<g id="edge18" class="edge"><title>Node16&#45;&gt;Node17</title>
<path fill="none" stroke="midnightblue" d="M745.41,-440.803C767.722,-448.542 795.707,-458.249 816.155,-465.342"/>
<polygon fill="midnightblue" stroke="midnightblue" points="746.515,-437.482 735.92,-437.511 744.221,-444.095 746.515,-437.482"/>
</g>
<!-- Node18 -->
<g id="node18" class="node"><title>Node18</title>
<g id="a_node18"><a xlink:href="../../db/d46/ldebug_8h.html#a6f27f64630215e18a11be9ba21d3c4bf" target="_top" xlink:title="luaG_runerror">
<polygon fill="none" stroke="red" points="539,-588.5 539,-607.5 612,-607.5 612,-588.5 539,-588.5"/>
<text text-anchor="middle" x="575.5" y="-595.5" font-family="Helvetica,sans-Serif" font-size="10.00">luaG_runerror</text>
</a>
</g>
</g>
<!-- Node17&#45;&gt;Node18 -->
<g id="edge19" class="edge"><title>Node17&#45;&gt;Node18</title>
<path fill="none" stroke="midnightblue" d="M787.731,-482.27C747.772,-485.883 694.133,-493.52 653,-517 621.655,-534.893 597.251,-570.722 585.06,-588.443"/>
<polygon fill="midnightblue" stroke="midnightblue" points="788.17,-485.746 797.838,-481.411 787.577,-478.771 788.17,-485.746"/>
</g>
<!-- Node18&#45;&gt;Node3 -->
<g id="edge38" class="edge"><title>Node18&#45;&gt;Node3</title>
<path fill="none" stroke="midnightblue" d="M550.007,-583.187C505.34,-556.021 407.887,-496.053 328,-442 306.929,-427.743 283.109,-410.262 268.838,-399.636"/>
<polygon fill="midnightblue" stroke="midnightblue" points="548.348,-586.274 558.712,-588.472 551.98,-580.29 548.348,-586.274"/>
</g>
<!-- Node18&#45;&gt;Node4 -->
<g id="edge23" class="edge"><title>Node18&#45;&gt;Node4</title>
<path fill="none" stroke="midnightblue" d="M560.937,-580.29C519.617,-526.337 396.187,-365.168 364.487,-323.776"/>
<polygon fill="midnightblue" stroke="midnightblue" points="558.186,-582.454 567.045,-588.265 563.743,-578.198 558.186,-582.454"/>
</g>
<!-- Node18&#45;&gt;Node6 -->
<g id="edge39" class="edge"><title>Node18&#45;&gt;Node6</title>
<path fill="none" stroke="midnightblue" d="M578.3,-618.137C583.184,-662.952 600.1,-772.666 653,-845 698.32,-906.97 781.579,-950.215 821.497,-968.395"/>
<polygon fill="midnightblue" stroke="midnightblue" points="581.761,-617.577 577.282,-607.976 574.796,-618.275 581.761,-617.577"/>
</g>
<!-- Node18&#45;&gt;Node10 -->
<g id="edge40" class="edge"><title>Node18&#45;&gt;Node10</title>
<path fill="none" stroke="midnightblue" d="M592.322,-581.311C606.652,-567.502 629.124,-548.917 653,-541 698.982,-525.753 723.762,-511.256 762,-541 813.946,-581.406 838.325,-805.082 843.109,-854.384"/>
<polygon fill="midnightblue" stroke="midnightblue" points="589.837,-578.846 585.242,-588.393 594.787,-583.796 589.837,-578.846"/>
</g>
<!-- Node18&#45;&gt;Node16 -->
<g id="edge37" class="edge"><title>Node18&#45;&gt;Node16</title>
<path fill="none" stroke="midnightblue" d="M582.093,-578.591C591.82,-547.952 614.576,-488.15 653,-452 659.525,-445.861 667.885,-441.107 676.049,-437.511"/>
<polygon fill="midnightblue" stroke="midnightblue" points="578.652,-577.876 579.093,-588.462 585.349,-579.912 578.652,-577.876"/>
</g>
<!-- Node18&#45;&gt;Node17 -->
<g id="edge36" class="edge"><title>Node18&#45;&gt;Node17</title>
<path fill="none" stroke="midnightblue" d="M583.677,-579.018C595.34,-555.571 620.421,-517.597 653,-499 697.714,-473.476 757.205,-466.674 797.838,-467.253"/>
<polygon fill="midnightblue" stroke="midnightblue" points="580.379,-577.813 579.4,-588.363 586.744,-580.726 580.379,-577.813"/>
</g>
<!-- Node19 -->
<g id="node19" class="node"><title>Node19</title>
<g id="a_node19"><a xlink:href="../../dc/d1e/ltable_8c.html#a4c78714b16a133fb409681f8ca4240be" target="_top" xlink:title="findindex">
<polygon fill="none" stroke="red" points="681,-626.5 681,-645.5 734,-645.5 734,-626.5 681,-626.5"/>
<text text-anchor="middle" x="707.5" y="-633.5" font-family="Helvetica,sans-Serif" font-size="10.00">findindex</text>
</a>
</g>
</g>
<!-- Node18&#45;&gt;Node19 -->
<g id="edge20" class="edge"><title>Node18&#45;&gt;Node19</title>
<path fill="none" stroke="midnightblue" d="M618.987,-610.419C639.345,-616.37 663.065,-623.304 680.67,-628.45"/>
<polygon fill="midnightblue" stroke="midnightblue" points="619.885,-607.035 609.304,-607.589 617.921,-613.754 619.885,-607.035"/>
</g>
<!-- Node20 -->
<g id="node20" class="node"><title>Node20</title>
<g id="a_node20"><a xlink:href="../../da/dd2/lua_8h.html#a77807056ba032d64b2def2b57dc53d53" target="_top" xlink:title="lua_pushnumber">
<polygon fill="none" stroke="red" points="663.5,-588.5 663.5,-607.5 751.5,-607.5 751.5,-588.5 663.5,-588.5"/>
<text text-anchor="middle" x="707.5" y="-595.5" font-family="Helvetica,sans-Serif" font-size="10.00">lua_pushnumber</text>
</a>
</g>
</g>
<!-- Node18&#45;&gt;Node20 -->
<g id="edge21" class="edge"><title>Node18&#45;&gt;Node20</title>
<path fill="none" stroke="midnightblue" d="M622.359,-598C635.617,-598 650.043,-598 663.144,-598"/>
<polygon fill="midnightblue" stroke="midnightblue" points="622.023,-594.5 612.023,-598 622.023,-601.5 622.023,-594.5"/>
</g>
<!-- Node21 -->
<g id="node21" class="node"><title>Node21</title>
<g id="a_node21"><a xlink:href="../../da/dd2/lua_8h.html#ab717ff0354e9c39199b16a1c412fa252" target="_top" xlink:title="lua_yieldk">
<polygon fill="none" stroke="black" points="678.5,-550.5 678.5,-569.5 736.5,-569.5 736.5,-550.5 678.5,-550.5"/>
<text text-anchor="middle" x="707.5" y="-557.5" font-family="Helvetica,sans-Serif" font-size="10.00">lua_yieldk</text>
</a>
</g>
</g>
<!-- Node18&#45;&gt;Node21 -->
<g id="edge22" class="edge"><title>Node18&#45;&gt;Node21</title>
<path fill="none" stroke="midnightblue" d="M619.112,-585.544C638.474,-579.884 660.856,-573.342 678.122,-568.295"/>
<polygon fill="midnightblue" stroke="midnightblue" points="617.921,-582.246 609.304,-588.411 619.885,-588.965 617.921,-582.246"/>
</g>
<!-- Node22 -->
<g id="node22" class="node"><title>Node22</title>
<g id="a_node22"><a xlink:href="../../d2/dd9/ldo_8h.html#ab83418a7edbfafe87886f156aa6a9988" target="_top" xlink:title="luaD_growstack">
<polygon fill="none" stroke="red" points="664.5,-816.5 664.5,-835.5 750.5,-835.5 750.5,-816.5 664.5,-816.5"/>
<text text-anchor="middle" x="707.5" y="-823.5" font-family="Helvetica,sans-Serif" font-size="10.00">luaD_growstack</text>
</a>
</g>
</g>
<!-- Node18&#45;&gt;Node22 -->
<g id="edge24" class="edge"><title>Node18&#45;&gt;Node22</title>
<path fill="none" stroke="midnightblue" d="M578.233,-617.949C582.848,-659.004 599.048,-753.565 653,-807 656.922,-810.884 661.688,-813.978 666.741,-816.442"/>
<polygon fill="midnightblue" stroke="midnightblue" points="581.702,-617.466 577.216,-607.867 574.737,-618.168 581.702,-617.466"/>
</g>
<!-- Node23 -->
<g id="node23" class="node"><title>Node23</title>
<g id="a_node23"><a xlink:href="../../db/d46/ldebug_8h.html#a7ae9c3f6343c93b4a8bb80e68706a6a3" target="_top" xlink:title="luaG_ordererror">
<polygon fill="none" stroke="red" points="667.5,-778.5 667.5,-797.5 747.5,-797.5 747.5,-778.5 667.5,-778.5"/>
<text text-anchor="middle" x="707.5" y="-785.5" font-family="Helvetica,sans-Serif" font-size="10.00">luaG_ordererror</text>
</a>
</g>
</g>
<!-- Node18&#45;&gt;Node23 -->
<g id="edge25" class="edge"><title>Node18&#45;&gt;Node23</title>
<path fill="none" stroke="midnightblue" d="M580.035,-617.658C587.37,-652.881 607.511,-726.987 653,-769 657.2,-772.879 662.243,-775.975 667.531,-778.445"/>
<polygon fill="midnightblue" stroke="midnightblue" points="583.438,-616.822 578.087,-607.678 576.568,-618.163 583.438,-616.822"/>
</g>
<!-- Node24 -->
<g id="node24" class="node"><title>Node24</title>
<g id="a_node24"><a xlink:href="../../db/d46/ldebug_8h.html#a375161dd1513420561f20f0b4c7b7e66" target="_top" xlink:title="luaG_typeerror">
<polygon fill="none" stroke="red" points="668,-968.5 668,-987.5 747,-987.5 747,-968.5 668,-968.5"/>
<text text-anchor="middle" x="707.5" y="-975.5" font-family="Helvetica,sans-Serif" font-size="10.00">luaG_typeerror</text>
</a>
</g>
</g>
<!-- Node18&#45;&gt;Node24 -->
<g id="edge26" class="edge"><title>Node18&#45;&gt;Node24</title>
<path fill="none" stroke="midnightblue" d="M580.279,-617.995C594.167,-691.137 642.147,-940.59 653,-954 658.059,-960.251 665.091,-964.93 672.396,-968.411"/>
<polygon fill="midnightblue" stroke="midnightblue" points="583.654,-617.007 578.353,-607.833 576.776,-618.31 583.654,-617.007"/>
</g>
<!-- Node27 -->
<g id="node27" class="node"><title>Node27</title>
<g id="a_node27"><a xlink:href="../../d3/d44/ltable_8h.html#a61547e63b2d74aa68da53a7fd235e77e" target="_top" xlink:title="luaH_newkey">
<polygon fill="none" stroke="red" points="670,-664.5 670,-683.5 745,-683.5 745,-664.5 670,-664.5"/>
<text text-anchor="middle" x="707.5" y="-671.5" font-family="Helvetica,sans-Serif" font-size="10.00">luaH_newkey</text>
</a>
</g>
</g>
<!-- Node18&#45;&gt;Node27 -->
<g id="edge32" class="edge"><title>Node18&#45;&gt;Node27</title>
<path fill="none" stroke="midnightblue" d="M595.089,-614.355C609.954,-626.792 631.753,-643.645 653,-655 659.781,-658.624 667.396,-661.803 674.708,-664.472"/>
<polygon fill="midnightblue" stroke="midnightblue" points="597.074,-611.447 587.195,-607.617 592.529,-616.771 597.074,-611.447"/>
</g>
<!-- Node28 -->
<g id="node28" class="node"><title>Node28</title>
<g id="a_node28"><a xlink:href="../../d7/d3e/lmem_8h.html#a9adb7e11025b0b91454ae7949bc8d370" target="_top" xlink:title="luaM_growaux_">
<polygon fill="none" stroke="black" points="664.5,-740.5 664.5,-759.5 750.5,-759.5 750.5,-740.5 664.5,-740.5"/>
<text text-anchor="middle" x="707.5" y="-747.5" font-family="Helvetica,sans-Serif" font-size="10.00">luaM_growaux_</text>
</a>
</g>
</g>
<!-- Node18&#45;&gt;Node28 -->
<g id="edge34" class="edge"><title>Node18&#45;&gt;Node28</title>
<path fill="none" stroke="midnightblue" d="M582.685,-617.237C592.865,-645.961 615.811,-699.991 653,-731 657.618,-734.85 663.073,-737.945 668.703,-740.425"/>
<polygon fill="midnightblue" stroke="midnightblue" points="585.932,-615.914 579.405,-607.569 579.303,-618.163 585.932,-615.914"/>
</g>
<!-- Node29 -->
<g id="node29" class="node"><title>Node29</title>
<g id="a_node29"><a xlink:href="../../d7/d3e/lmem_8h.html#a23b8703b7b50e1c5dd37d41569a09a9a" target="_top" xlink:title="luaM_toobig">
<polygon fill="none" stroke="red" points="673.5,-702.5 673.5,-721.5 741.5,-721.5 741.5,-702.5 673.5,-702.5"/>
<text text-anchor="middle" x="707.5" y="-709.5" font-family="Helvetica,sans-Serif" font-size="10.00">luaM_toobig</text>
</a>
</g>
</g>
<!-- Node18&#45;&gt;Node29 -->
<g id="edge35" class="edge"><title>Node18&#45;&gt;Node29</title>
<path fill="none" stroke="midnightblue" d="M586.864,-616.245C599.794,-637.482 623.795,-672.28 653,-693 659.11,-697.335 666.307,-700.77 673.407,-703.458"/>
<polygon fill="midnightblue" stroke="midnightblue" points="589.823,-614.372 581.724,-607.541 583.796,-617.932 589.823,-614.372"/>
</g>
<!-- Node24&#45;&gt;Node6 -->
<g id="edge27" class="edge"><title>Node24&#45;&gt;Node6</title>
<path fill="none" stroke="midnightblue" d="M757.376,-978C773.915,-978 792.084,-978 807.492,-978"/>
<polygon fill="midnightblue" stroke="midnightblue" points="757.329,-974.5 747.329,-978 757.329,-981.5 757.329,-974.5"/>
</g>
<!-- Node24&#45;&gt;Node10 -->
<g id="edge31" class="edge"><title>Node24&#45;&gt;Node10</title>
<path fill="none" stroke="midnightblue" d="M727.764,-961.792C756.371,-937.725 809.202,-893.277 832.477,-873.695"/>
<polygon fill="midnightblue" stroke="midnightblue" points="725.451,-959.164 720.053,-968.28 729.958,-964.521 725.451,-959.164"/>
</g>
<!-- Node24&#45;&gt;Node25 -->
<g id="edge28" class="edge"><title>Node24&#45;&gt;Node25</title>
<path fill="none" stroke="midnightblue" d="M734.628,-992.655C761.859,-1007.93 803.737,-1031.42 826.978,-1044.45"/>
<polygon fill="midnightblue" stroke="midnightblue" points="736.095,-989.465 725.661,-987.625 732.671,-995.57 736.095,-989.465"/>
</g>
<!-- Node25&#45;&gt;Node3 -->
<g id="edge30" class="edge"><title>Node25&#45;&gt;Node3</title>
<path fill="none" stroke="midnightblue" d="M815.214,-1067.88C767.008,-1089.81 666.383,-1130 576.5,-1130 458,-1130 458,-1130 458,-1130 370.116,-1130 361.553,-1062.23 328,-981 281.829,-869.226 259.908,-468.002 256.481,-399.867"/>
<polygon fill="midnightblue" stroke="midnightblue" points="816.803,-1071 824.41,-1063.63 813.864,-1064.65 816.803,-1071"/>
</g>
<!-- Node26 -->
<g id="node26" class="node"><title>Node26</title>
<g id="a_node26"><a xlink:href="../../da/dd2/lua_8h.html#ac7ade66f92b5e325c42371926f879818" target="_top" xlink:title="lua_len">
<polygon fill="none" stroke="red" points="941,-1044.5 941,-1063.5 988,-1063.5 988,-1044.5 941,-1044.5"/>
<text text-anchor="middle" x="964.5" y="-1051.5" font-family="Helvetica,sans-Serif" font-size="10.00">lua_len</text>
</a>
</g>
</g>
<!-- Node25&#45;&gt;Node26 -->
<g id="edge29" class="edge"><title>Node25&#45;&gt;Node26</title>
<path fill="none" stroke="midnightblue" d="M888.836,-1054C906.498,-1054 926.236,-1054 940.98,-1054"/>
<polygon fill="midnightblue" stroke="midnightblue" points="888.73,-1050.5 878.73,-1054 888.73,-1057.5 888.73,-1050.5"/>
</g>
<!-- Node27&#45;&gt;Node10 -->
<g id="edge33" class="edge"><title>Node27&#45;&gt;Node10</title>
<path fill="none" stroke="midnightblue" d="M754.323,-687.344C757.065,-689.016 759.657,-690.893 762,-693 813.654,-739.454 835.865,-825.498 842.078,-854.313"/>
<polygon fill="midnightblue" stroke="midnightblue" points="755.67,-684.103 745.172,-682.674 752.488,-690.337 755.67,-684.103"/>
</g>
<!-- Node30&#45;&gt;Node3 -->
<g id="edge43" class="edge"><title>Node30&#45;&gt;Node3</title>
<path fill="none" stroke="midnightblue" d="M667.872,-355.258C581.883,-362.512 375.685,-379.904 292.105,-386.955"/>
<polygon fill="midnightblue" stroke="midnightblue" points="668.316,-358.733 677.987,-354.405 667.728,-351.758 668.316,-358.733"/>
</g>
<!-- Node33 -->
<g id="node33" class="node"><title>Node33</title>
<g id="a_node33"><a xlink:href="../../de/d27/lgc_8c.html#ab9ec6b56580b9e66f41743e393e7e033" target="_top" xlink:title="GCTM">
<polygon fill="none" stroke="black" points="552.5,-152.5 552.5,-171.5 598.5,-171.5 598.5,-152.5 552.5,-152.5"/>
<text text-anchor="middle" x="575.5" y="-159.5" font-family="Helvetica,sans-Serif" font-size="10.00">GCTM</text>
</a>
</g>
</g>
<!-- Node32&#45;&gt;Node33 -->
<g id="edge47" class="edge"><title>Node32&#45;&gt;Node33</title>
<path fill="none" stroke="midnightblue" d="M484.15,-222.918C488.766,-219.988 493.546,-216.919 498,-214 520.162,-199.475 545.535,-182.072 560.774,-171.535"/>
<polygon fill="midnightblue" stroke="midnightblue" points="482.196,-220.013 475.606,-228.309 485.931,-225.933 482.196,-220.013"/>
</g>
<!-- Node34 -->
<g id="node34" class="node"><title>Node34</title>
<g id="a_node34"><a xlink:href="../../de/d27/lgc_8c.html#a74f50e6006422d43686521fe765152dd" target="_top" xlink:title="callallpendingfinalizers">
<polygon fill="none" stroke="red" points="653,-152.5 653,-171.5 762,-171.5 762,-152.5 653,-152.5"/>
<text text-anchor="middle" x="707.5" y="-159.5" font-family="Helvetica,sans-Serif" font-size="10.00">callallpendingfinalizers</text>
</a>
</g>
</g>
<!-- Node33&#45;&gt;Node34 -->
<g id="edge48" class="edge"><title>Node33&#45;&gt;Node34</title>
<path fill="none" stroke="midnightblue" d="M608.662,-162C622.017,-162 637.881,-162 652.906,-162"/>
<polygon fill="midnightblue" stroke="midnightblue" points="608.553,-158.5 598.553,-162 608.553,-165.5 608.553,-158.5"/>
</g>
<!-- Node35 -->
<g id="node35" class="node"><title>Node35</title>
<g id="a_node35"><a xlink:href="../../dc/d9c/lgc_8h.html#a19359957605d7c8eaf70803e5b77361f" target="_top" xlink:title="luaC_forcestep">
<polygon fill="none" stroke="red" points="667.5,-114.5 667.5,-133.5 747.5,-133.5 747.5,-114.5 667.5,-114.5"/>
<text text-anchor="middle" x="707.5" y="-121.5" font-family="Helvetica,sans-Serif" font-size="10.00">luaC_forcestep</text>
</a>
</g>
</g>
<!-- Node33&#45;&gt;Node35 -->
<g id="edge49" class="edge"><title>Node33&#45;&gt;Node35</title>
<path fill="none" stroke="midnightblue" d="M608.343,-152.692C628.153,-146.901 653.576,-139.47 673.585,-133.621"/>
<polygon fill="midnightblue" stroke="midnightblue" points="607.169,-149.389 598.553,-155.554 609.133,-156.107 607.169,-149.389"/>
</g>
<!-- Node36&#45;&gt;Node37 -->
<g id="edge51" class="edge"><title>Node36&#45;&gt;Node37</title>
<path fill="none" stroke="midnightblue" d="M487.818,-152.768C505.374,-146.941 528.002,-139.432 545.736,-133.546"/>
<polygon fill="midnightblue" stroke="midnightblue" points="486.531,-149.507 478.143,-155.979 488.736,-156.151 486.531,-149.507"/>
</g>
<!-- Node38 -->
<g id="node38" class="node"><title>Node38</title>
<g id="a_node38"><a xlink:href="../../d8/dd3/lbaselib_8c.html#a1fb2725eed679431d070b2e9e7abc223" target="_top" xlink:title="luaB_pcall">
<polygon fill="none" stroke="black" points="677,-76.5 677,-95.5 738,-95.5 738,-76.5 677,-76.5"/>
<text text-anchor="middle" x="707.5" y="-83.5" font-family="Helvetica,sans-Serif" font-size="10.00">luaB_pcall</text>
</a>
</g>
</g>
<!-- Node37&#45;&gt;Node38 -->
<g id="edge52" class="edge"><title>Node37&#45;&gt;Node38</title>
<path fill="none" stroke="midnightblue" d="M614.668,-112.843C634.455,-107.059 658.266,-100.099 676.683,-94.7157"/>
<polygon fill="midnightblue" stroke="midnightblue" points="613.645,-109.496 605.029,-115.661 615.609,-116.214 613.645,-109.496"/>
</g>
<!-- Node39 -->
<g id="node39" class="node"><title>Node39</title>
<g id="a_node39"><a xlink:href="../../d8/dd3/lbaselib_8c.html#a5fbb0094fa1a56f0a4c2547f1ec4c5ab" target="_top" xlink:title="luaB_xpcall">
<polygon fill="none" stroke="black" points="674.5,-38.5 674.5,-57.5 740.5,-57.5 740.5,-38.5 674.5,-38.5"/>
<text text-anchor="middle" x="707.5" y="-45.5" font-family="Helvetica,sans-Serif" font-size="10.00">luaB_xpcall</text>
</a>
</g>
</g>
<!-- Node37&#45;&gt;Node39 -->
<g id="edge53" class="edge"><title>Node37&#45;&gt;Node39</title>
<path fill="none" stroke="midnightblue" d="M609.938,-109.569C612.392,-108.133 614.775,-106.607 617,-105 635.859,-91.3779 633.5,-79.6878 653,-67 659.444,-62.8071 666.928,-59.4054 674.22,-56.702"/>
<polygon fill="midnightblue" stroke="midnightblue" points="608.088,-106.588 600.889,-114.361 611.364,-112.774 608.088,-106.588"/>
</g>
<!-- Node41 -->
<g id="node41" class="node"><title>Node41</title>
<g id="a_node41"><a xlink:href="../../d8/dd3/lbaselib_8c.html#a86a4e35d9c9ad4661a0dbbac3758c049" target="_top" xlink:title="luaB_dofile">
<polygon fill="none" stroke="black" points="676.5,-190.5 676.5,-209.5 738.5,-209.5 738.5,-190.5 676.5,-190.5"/>
<text text-anchor="middle" x="707.5" y="-197.5" font-family="Helvetica,sans-Serif" font-size="10.00">luaB_dofile</text>
</a>
</g>
</g>
<!-- Node40&#45;&gt;Node41 -->
<g id="edge55" class="edge"><title>Node40&#45;&gt;Node41</title>
<path fill="none" stroke="midnightblue" d="M495.703,-264.992C544.389,-249.982 630.75,-223.355 676.355,-209.294"/>
<polygon fill="midnightblue" stroke="midnightblue" points="494.439,-261.719 485.914,-268.01 496.501,-268.409 494.439,-261.719"/>
</g>
<!-- Node42&#45;&gt;Node18 -->
<g id="edge63" class="edge"><title>Node42&#45;&gt;Node18</title>
<path fill="none" stroke="midnightblue" d="M472.486,-332.004C480.487,-344.074 490.702,-360.533 498,-376 535.226,-454.898 563.672,-557.02 572.004,-588.405"/>
<polygon fill="midnightblue" stroke="midnightblue" points="475.384,-330.042 466.883,-323.718 469.585,-333.963 475.384,-330.042"/>
</g>
<!-- Node43 -->
<g id="node43" class="node"><title>Node43</title>
<g id="a_node43"><a xlink:href="../../da/dd2/lua_8h.html#aae6c05ddea7bd110a3e84595ef92e601" target="_top" xlink:title="lua_error">
<polygon fill="none" stroke="black" points="549.5,-266.5 549.5,-285.5 601.5,-285.5 601.5,-266.5 549.5,-266.5"/>
<text text-anchor="middle" x="575.5" y="-273.5" font-family="Helvetica,sans-Serif" font-size="10.00">lua_error</text>
</a>
</g>
</g>
<!-- Node42&#45;&gt;Node43 -->
<g id="edge58" class="edge"><title>Node42&#45;&gt;Node43</title>
<path fill="none" stroke="midnightblue" d="M498.402,-301.255C515.111,-295.71 534.23,-289.365 549.124,-284.422"/>
<polygon fill="midnightblue" stroke="midnightblue" points="497.282,-297.939 488.893,-304.411 499.487,-304.583 497.282,-297.939"/>
</g>
<!-- Node43&#45;&gt;Node41 -->
<g id="edge61" class="edge"><title>Node43&#45;&gt;Node41</title>
<path fill="none" stroke="midnightblue" d="M597.155,-260.5C612.201,-249.577 633.31,-234.997 653,-224 662.51,-218.689 673.416,-213.625 682.891,-209.529"/>
<polygon fill="midnightblue" stroke="midnightblue" points="595.039,-257.712 589.054,-266.454 599.185,-263.352 595.039,-257.712"/>
</g>
<!-- Node44 -->
<g id="node44" class="node"><title>Node44</title>
<g id="a_node44"><a xlink:href="../../da/d29/lauxlib_8h.html#a994f73d7985c30672469a260d9e86ae6" target="_top" xlink:title="luaL_error">
<polygon fill="none" stroke="red" points="679,-304.5 679,-323.5 736,-323.5 736,-304.5 679,-304.5"/>
<text text-anchor="middle" x="707.5" y="-311.5" font-family="Helvetica,sans-Serif" font-size="10.00">luaL_error</text>
</a>
</g>
</g>
<!-- Node43&#45;&gt;Node44 -->
<g id="edge59" class="edge"><title>Node43&#45;&gt;Node44</title>
<path fill="none" stroke="midnightblue" d="M611.448,-286.216C632.578,-292.392 659.141,-300.157 678.811,-305.906"/>
<polygon fill="midnightblue" stroke="midnightblue" points="612.146,-282.773 601.565,-283.327 610.182,-289.492 612.146,-282.773"/>
</g>
<!-- Node45 -->
<g id="node45" class="node"><title>Node45</title>
<g id="a_node45"><a xlink:href="../../d8/dd3/lbaselib_8c.html#a2ecfa987569d0b4c1063f3e204e42dd2" target="_top" xlink:title="luaB_error">
<polygon fill="none" stroke="black" points="678,-266.5 678,-285.5 737,-285.5 737,-266.5 678,-266.5"/>
<text text-anchor="middle" x="707.5" y="-273.5" font-family="Helvetica,sans-Serif" font-size="10.00">luaB_error</text>
</a>
</g>
</g>
<!-- Node43&#45;&gt;Node45 -->
<g id="edge60" class="edge"><title>Node43&#45;&gt;Node45</title>
<path fill="none" stroke="midnightblue" d="M611.594,-276C632.372,-276 658.364,-276 677.891,-276"/>
<polygon fill="midnightblue" stroke="midnightblue" points="611.565,-272.5 601.565,-276 611.565,-279.5 611.565,-272.5"/>
</g>
<!-- Node46 -->
<g id="node46" class="node"><title>Node46</title>
<g id="a_node46"><a xlink:href="../../df/d2d/lcorolib_8c.html#a777abb20385a69ce4787f72bd90375a7" target="_top" xlink:title="luaB_auxwrap">
<polygon fill="none" stroke="red" points="805,-114.5 805,-133.5 885,-133.5 885,-114.5 805,-114.5"/>
<text text-anchor="middle" x="845" y="-121.5" font-family="Helvetica,sans-Serif" font-size="10.00">luaB_auxwrap</text>
</a>
</g>
</g>
<!-- Node43&#45;&gt;Node46 -->
<g id="edge62" class="edge"><title>Node43&#45;&gt;Node46</title>
<path fill="none" stroke="midnightblue" d="M611.625,-266.342C661.763,-252.385 749.233,-227.336 762,-219 797.574,-195.773 826.531,-152.811 838.311,-133.655"/>
<polygon fill="midnightblue" stroke="midnightblue" points="610.531,-263.013 601.831,-269.06 612.403,-269.759 610.531,-263.013"/>
</g>
<!-- Node48 -->
<g id="node48" class="node"><title>Node48</title>
<g id="a_node48"><a xlink:href="../../da/dd2/lua_8h.html#a434479f022eda738b99000aad5ddd929" target="_top" xlink:title="lua_resume">
<polygon fill="none" stroke="black" points="543,-76.5 543,-95.5 608,-95.5 608,-76.5 543,-76.5"/>
<text text-anchor="middle" x="575.5" y="-83.5" font-family="Helvetica,sans-Serif" font-size="10.00">lua_resume</text>
</a>
</g>
</g>
<!-- Node47&#45;&gt;Node48 -->
<g id="edge66" class="edge"><title>Node47&#45;&gt;Node48</title>
<path fill="none" stroke="midnightblue" d="M385.446,-121.093C414.029,-117.954 459.276,-112.395 498,-105 512.786,-102.176 528.99,-98.2713 542.663,-94.7355"/>
<polygon fill="midnightblue" stroke="midnightblue" points="384.925,-117.628 375.356,-122.176 385.672,-124.588 384.925,-117.628"/>
</g>
<!-- Node47&#45;&gt;Node50 -->
<g id="edge69" class="edge"><title>Node47&#45;&gt;Node50</title>
<path fill="none" stroke="midnightblue" d="M384.826,-113.531C400.648,-107.578 420.218,-100.215 435.137,-94.602"/>
<polygon fill="midnightblue" stroke="midnightblue" points="383.184,-110.409 375.057,-117.206 385.649,-116.961 383.184,-110.409"/>
</g>
<!-- Node49 -->
<g id="node49" class="node"><title>Node49</title>
<g id="a_node49"><a xlink:href="../../df/d2d/lcorolib_8c.html#aaa37b3a30ab0c6daef7fae8951fef3e7" target="_top" xlink:title="auxresume">
<polygon fill="none" stroke="red" points="675.5,-0.5 675.5,-19.5 739.5,-19.5 739.5,-0.5 675.5,-0.5"/>
<text text-anchor="middle" x="707.5" y="-7.5" font-family="Helvetica,sans-Serif" font-size="10.00">auxresume</text>
</a>
</g>
</g>
<!-- Node48&#45;&gt;Node49 -->
<g id="edge67" class="edge"><title>Node48&#45;&gt;Node49</title>
<path fill="none" stroke="midnightblue" d="M595.089,-69.645C609.954,-57.2075 631.753,-40.3548 653,-29 659.954,-25.2834 667.787,-22.0342 675.27,-19.3233"/>
<polygon fill="midnightblue" stroke="midnightblue" points="592.529,-67.2286 587.195,-76.3828 597.074,-72.553 592.529,-67.2286"/>
</g>
<!-- Node49&#45;&gt;Node46 -->
<g id="edge68" class="edge"><title>Node49&#45;&gt;Node46</title>
<path fill="none" stroke="midnightblue" d="M748.973,-21.7938C753.543,-23.8666 757.991,-26.2574 762,-29 797.065,-52.9883 826.288,-95.5524 838.224,-114.475"/>
<polygon fill="midnightblue" stroke="midnightblue" points="750.108,-18.4773 739.525,-17.9749 747.484,-24.9672 750.108,-18.4773"/>
</g>
<!-- Node50&#45;&gt;Node48 -->
<g id="edge70" class="edge"><title>Node50&#45;&gt;Node48</title>
<path fill="none" stroke="midnightblue" d="M492.929,-86C508.618,-86 527.3,-86 542.824,-86"/>
<polygon fill="midnightblue" stroke="midnightblue" points="492.622,-82.5001 482.622,-86 492.621,-89.5001 492.622,-82.5001"/>
</g>
</g>
</svg>
