<?xml version="1.0" encoding="UTF-8" standalone="no"?>
<!DOCTYPE svg PUBLIC "-//W3C//DTD SVG 1.1//EN"
 "http://www.w3.org/Graphics/SVG/1.1/DTD/svg11.dtd">
<!-- Generated by graphviz version 2.38.0 (20140413.2041)
 -->
<!-- Title: luaS_newudata Pages: 1 -->
<svg width="995pt" height="1080pt"
 viewBox="0.00 0.00 995.00 1080.00" xmlns="http://www.w3.org/2000/svg" xmlns:xlink="http://www.w3.org/1999/xlink">
<g id="graph0" class="graph" transform="scale(1 1) rotate(0) translate(4 1076)">
<title>luaS_newudata</title>
<!-- Node1 -->
<g id="node1" class="node"><title>Node1</title>
<polygon fill="#bfbfbf" stroke="black" points="0,-779.5 0,-798.5 85,-798.5 85,-779.5 0,-779.5"/>
<text text-anchor="middle" x="42.5" y="-786.5" font-family="Helvetica,sans-Serif" font-size="10.00">luaS_newudata</text>
</g>
<!-- Node2 -->
<g id="node2" class="node"><title>Node2</title>
<g id="a_node2"><a xlink:href="../../da/dd2/lua_8h.html#a0ed440a42dac5e7faaf51163b274c43c" target="_top" xlink:title="lua_newuserdata">
<polygon fill="none" stroke="black" points="121,-779.5 121,-798.5 212,-798.5 212,-779.5 121,-779.5"/>
<text text-anchor="middle" x="166.5" y="-786.5" font-family="Helvetica,sans-Serif" font-size="10.00">lua_newuserdata</text>
</a>
</g>
</g>
<!-- Node1&#45;&gt;Node2 -->
<g id="edge1" class="edge"><title>Node1&#45;&gt;Node2</title>
<path fill="none" stroke="midnightblue" d="M95.2909,-789C103.744,-789 112.439,-789 120.706,-789"/>
<polygon fill="midnightblue" stroke="midnightblue" points="95.1443,-785.5 85.1443,-789 95.1442,-792.5 95.1443,-785.5"/>
</g>
<!-- Node3 -->
<g id="node3" class="node"><title>Node3</title>
<g id="a_node3"><a xlink:href="../../d1/dc2/_kensho_lua_wrapper_8m.html#ac812f3eb3f83c6ada24f2dadeced6d68" target="_top" xlink:title="pushValue">
<polygon fill="none" stroke="black" points="262.5,-939.5 262.5,-958.5 325.5,-958.5 325.5,-939.5 262.5,-939.5"/>
<text text-anchor="middle" x="294" y="-946.5" font-family="Helvetica,sans-Serif" font-size="10.00">pushValue</text>
</a>
</g>
</g>
<!-- Node2&#45;&gt;Node3 -->
<g id="edge2" class="edge"><title>Node2&#45;&gt;Node3</title>
<path fill="none" stroke="midnightblue" d="M181.285,-806.574C207.737,-840.298 264.822,-913.076 285.406,-939.318"/>
<polygon fill="midnightblue" stroke="midnightblue" points="183.9,-804.238 174.975,-798.53 178.393,-808.558 183.9,-804.238"/>
</g>
<!-- Node10 -->
<g id="node10" class="node"><title>Node10</title>
<g id="a_node10"><a xlink:href="../../da/d29/lauxlib_8h.html#a0fb6d10de24960ceed452061b47c2c06" target="_top" xlink:title="luaL_prepbuffsize">
<polygon fill="none" stroke="black" points="248,-779.5 248,-798.5 340,-798.5 340,-779.5 248,-779.5"/>
<text text-anchor="middle" x="294" y="-786.5" font-family="Helvetica,sans-Serif" font-size="10.00">luaL_prepbuffsize</text>
</a>
</g>
</g>
<!-- Node2&#45;&gt;Node10 -->
<g id="edge11" class="edge"><title>Node2&#45;&gt;Node10</title>
<path fill="none" stroke="midnightblue" d="M222.302,-789C230.782,-789 239.457,-789 247.697,-789"/>
<polygon fill="midnightblue" stroke="midnightblue" points="222.1,-785.5 212.1,-789 222.1,-792.5 222.1,-785.5"/>
</g>
<!-- Node41 -->
<g id="node41" class="node"><title>Node41</title>
<g id="a_node41"><a xlink:href="../../de/df3/liolib_8c.html#ab456fc51383d039a5a24c702060aba8e" target="_top" xlink:title="newprefile">
<polygon fill="none" stroke="black" points="264.5,-114.5 264.5,-133.5 323.5,-133.5 323.5,-114.5 264.5,-114.5"/>
<text text-anchor="middle" x="294" y="-121.5" font-family="Helvetica,sans-Serif" font-size="10.00">newprefile</text>
</a>
</g>
</g>
<!-- Node2&#45;&gt;Node41 -->
<g id="edge51" class="edge"><title>Node2&#45;&gt;Node41</title>
<path fill="none" stroke="midnightblue" d="M171.229,-769.241C190.408,-667.615 277.574,-205.742 291.205,-133.513"/>
<polygon fill="midnightblue" stroke="midnightblue" points="167.738,-768.867 169.322,-779.343 174.616,-770.166 167.738,-768.867"/>
</g>
<!-- Node4 -->
<g id="node4" class="node"><title>Node4</title>
<g id="a_node4"><a xlink:href="../../d1/dc2/_kensho_lua_wrapper_8m.html#ad10bf0ff4feac9642e7477e282be41fe" target="_top" xlink:title="lookupKey">
<polygon fill="none" stroke="black" points="386.5,-939.5 386.5,-958.5 448.5,-958.5 448.5,-939.5 386.5,-939.5"/>
<text text-anchor="middle" x="417.5" y="-946.5" font-family="Helvetica,sans-Serif" font-size="10.00">lookupKey</text>
</a>
</g>
</g>
<!-- Node3&#45;&gt;Node4 -->
<g id="edge3" class="edge"><title>Node3&#45;&gt;Node4</title>
<path fill="none" stroke="midnightblue" d="M336.091,-942.574C352.525,-942.014 371.111,-942.18 386.271,-943.073"/>
<polygon fill="midnightblue" stroke="midnightblue" points="335.491,-939.098 325.66,-943.048 335.808,-946.091 335.491,-939.098"/>
</g>
<!-- Node4&#45;&gt;Node3 -->
<g id="edge10" class="edge"><title>Node4&#45;&gt;Node3</title>
<path fill="none" stroke="midnightblue" d="M375.874,-955.409C359.481,-955.984 340.884,-955.832 325.66,-954.952"/>
<polygon fill="midnightblue" stroke="midnightblue" points="376.444,-958.887 386.271,-954.927 376.12,-951.894 376.444,-958.887"/>
</g>
<!-- Node5 -->
<g id="node5" class="node"><title>Node5</title>
<g id="a_node5"><a xlink:href="../../dc/de7/interface_kensho_lua_wrapper.html#a7d10aa0242861cdd109d3da9383882a2" target="_top" xlink:title="&#45;[KenshoLuaWrapper\l evaluate]">
<polygon fill="none" stroke="black" points="495,-958 495,-988 604,-988 604,-958 495,-958"/>
<text text-anchor="start" x="503" y="-976" font-family="Helvetica,sans-Serif" font-size="10.00">&#45;[KenshoLuaWrapper</text>
<text text-anchor="middle" x="549.5" y="-965" font-family="Helvetica,sans-Serif" font-size="10.00"> evaluate]</text>
</a>
</g>
</g>
<!-- Node4&#45;&gt;Node5 -->
<g id="edge4" class="edge"><title>Node4&#45;&gt;Node5</title>
<path fill="none" stroke="midnightblue" d="M458.738,-956.429C470.141,-958.534 482.74,-960.86 494.803,-963.087"/>
<polygon fill="midnightblue" stroke="midnightblue" points="459.121,-952.94 448.651,-954.566 457.85,-959.824 459.121,-952.94"/>
</g>
<!-- Node6 -->
<g id="node6" class="node"><title>Node6</title>
<g id="a_node6"><a xlink:href="../../dc/de7/interface_kensho_lua_wrapper.html#af6db46358f8858a18b55388aa3af211d" target="_top" xlink:title="&#45;[KenshoLuaWrapper\l initWithKensho:context\l:code:]">
<polygon fill="none" stroke="black" points="640,-1030.5 640,-1071.5 754,-1071.5 754,-1030.5 640,-1030.5"/>
<text text-anchor="start" x="648" y="-1059.5" font-family="Helvetica,sans-Serif" font-size="10.00">&#45;[KenshoLuaWrapper</text>
<text text-anchor="start" x="648" y="-1048.5" font-family="Helvetica,sans-Serif" font-size="10.00"> initWithKensho:context</text>
<text text-anchor="middle" x="697" y="-1037.5" font-family="Helvetica,sans-Serif" font-size="10.00">:code:]</text>
</a>
</g>
</g>
<!-- Node5&#45;&gt;Node6 -->
<g id="edge5" class="edge"><title>Node5&#45;&gt;Node6</title>
<path fill="none" stroke="midnightblue" d="M587.797,-993.008C603.859,-1001.62 622.852,-1011.81 640,-1021 645.638,-1024.02 651.596,-1027.21 657.439,-1030.35"/>
<polygon fill="midnightblue" stroke="midnightblue" points="589.182,-989.779 578.715,-988.136 585.873,-995.947 589.182,-989.779"/>
</g>
<!-- Node7 -->
<g id="node7" class="node"><title>Node7</title>
<g id="a_node7"><a xlink:href="../../dc/de7/interface_kensho_lua_wrapper.html#a5555e0979799446611baee70104555c6" target="_top" xlink:title="&#45;[KenshoLuaWrapper\l evaluate:]">
<polygon fill="none" stroke="black" points="642.5,-981 642.5,-1011 751.5,-1011 751.5,-981 642.5,-981"/>
<text text-anchor="start" x="650.5" y="-999" font-family="Helvetica,sans-Serif" font-size="10.00">&#45;[KenshoLuaWrapper</text>
<text text-anchor="middle" x="697" y="-988" font-family="Helvetica,sans-Serif" font-size="10.00"> evaluate:]</text>
</a>
</g>
</g>
<!-- Node5&#45;&gt;Node7 -->
<g id="edge6" class="edge"><title>Node5&#45;&gt;Node7</title>
<path fill="none" stroke="midnightblue" d="M614.339,-983.091C623.723,-984.575 633.307,-986.09 642.456,-987.536"/>
<polygon fill="midnightblue" stroke="midnightblue" points="614.689,-979.603 604.265,-981.499 613.596,-986.518 614.689,-979.603"/>
</g>
<!-- Node9 -->
<g id="node9" class="node"><title>Node9</title>
<g id="a_node9"><a xlink:href="../../dc/de7/interface_kensho_lua_wrapper.html#a0bb5e125d727942726d707f8b59009dc" target="_top" xlink:title="&#45;[KenshoLuaWrapper\l observableUpdated:]">
<polygon fill="none" stroke="black" points="642.5,-932 642.5,-962 751.5,-962 751.5,-932 642.5,-932"/>
<text text-anchor="start" x="650.5" y="-950" font-family="Helvetica,sans-Serif" font-size="10.00">&#45;[KenshoLuaWrapper</text>
<text text-anchor="middle" x="697" y="-939" font-family="Helvetica,sans-Serif" font-size="10.00"> observableUpdated:]</text>
</a>
</g>
</g>
<!-- Node5&#45;&gt;Node9 -->
<g id="edge9" class="edge"><title>Node5&#45;&gt;Node9</title>
<path fill="none" stroke="midnightblue" d="M614.339,-961.592C623.723,-959.916 633.307,-958.203 642.456,-956.568"/>
<polygon fill="midnightblue" stroke="midnightblue" points="613.494,-958.188 604.265,-963.392 614.725,-965.079 613.494,-958.188"/>
</g>
<!-- Node8 -->
<g id="node8" class="node"><title>Node8</title>
<g id="a_node8"><a xlink:href="../../da/d0b/interface_kensho.html#a07b4d14db676108e1a94a1f10e100fb4" target="_top" xlink:title="&#45;[Kensho bindToView\l:context:]">
<polygon fill="none" stroke="red" points="790,-981 790,-1011 898,-1011 898,-981 790,-981"/>
<text text-anchor="start" x="798" y="-999" font-family="Helvetica,sans-Serif" font-size="10.00">&#45;[Kensho bindToView</text>
<text text-anchor="middle" x="844" y="-988" font-family="Helvetica,sans-Serif" font-size="10.00">:context:]</text>
</a>
</g>
</g>
<!-- Node7&#45;&gt;Node8 -->
<g id="edge7" class="edge"><title>Node7&#45;&gt;Node8</title>
<path fill="none" stroke="midnightblue" d="M761.62,-996C770.971,-996 780.523,-996 789.64,-996"/>
<polygon fill="midnightblue" stroke="midnightblue" points="761.581,-992.5 751.581,-996 761.581,-999.5 761.581,-992.5"/>
</g>
<!-- Node8&#45;&gt;Node8 -->
<g id="edge8" class="edge"><title>Node8&#45;&gt;Node8</title>
<path fill="none" stroke="midnightblue" d="M823.388,-1021.46C825.946,-1026.18 832.817,-1029.5 844,-1029.5 862.352,-1029.5 869.09,-1020.56 864.215,-1011.16"/>
<polygon fill="midnightblue" stroke="midnightblue" points="826.897,-1021.29 823.785,-1011.16 819.902,-1021.02 826.897,-1021.29"/>
</g>
<!-- Node11 -->
<g id="node11" class="node"><title>Node11</title>
<g id="a_node11"><a xlink:href="../../da/d29/lauxlib_8h.html#a06fceedb3abb1272566ca22c96e34b95" target="_top" xlink:title="luaL_addlstring">
<polygon fill="none" stroke="black" points="377.5,-551.5 377.5,-570.5 457.5,-570.5 457.5,-551.5 377.5,-551.5"/>
<text text-anchor="middle" x="417.5" y="-558.5" font-family="Helvetica,sans-Serif" font-size="10.00">luaL_addlstring</text>
</a>
</g>
</g>
<!-- Node10&#45;&gt;Node11 -->
<g id="edge12" class="edge"><title>Node10&#45;&gt;Node11</title>
<path fill="none" stroke="midnightblue" d="M304.815,-770.582C329.399,-724.449 392.967,-605.161 411.412,-570.547"/>
<polygon fill="midnightblue" stroke="midnightblue" points="301.68,-769.022 300.066,-779.493 307.858,-772.314 301.68,-769.022"/>
</g>
<!-- Node17 -->
<g id="node17" class="node"><title>Node17</title>
<g id="a_node17"><a xlink:href="../../dc/d77/lstrlib_8c.html#ae26a9374857058119e59d0328208c2f2" target="_top" xlink:title="str_format">
<polygon fill="none" stroke="black" points="815.5,-665.5 815.5,-684.5 872.5,-684.5 872.5,-665.5 815.5,-665.5"/>
<text text-anchor="middle" x="844" y="-672.5" font-family="Helvetica,sans-Serif" font-size="10.00">str_format</text>
</a>
</g>
</g>
<!-- Node10&#45;&gt;Node17 -->
<g id="edge50" class="edge"><title>Node10&#45;&gt;Node17</title>
<path fill="none" stroke="midnightblue" d="M350.184,-793.625C457.453,-801.517 689.258,-812.871 754,-770 785.163,-749.364 762.307,-719.1 790,-694 797.098,-687.567 806.528,-683.275 815.465,-680.427"/>
<polygon fill="midnightblue" stroke="midnightblue" points="350.436,-790.134 340.202,-792.874 349.911,-797.114 350.436,-790.134"/>
</g>
<!-- Node29 -->
<g id="node29" class="node"><title>Node29</title>
<g id="a_node29"><a xlink:href="../../da/d29/lauxlib_8h.html#ab8f18fe563cab9ea411ae84d2c1c2518" target="_top" xlink:title="luaL_buffinitsize">
<polygon fill="none" stroke="black" points="376,-266.5 376,-285.5 459,-285.5 459,-266.5 376,-266.5"/>
<text text-anchor="middle" x="417.5" y="-273.5" font-family="Helvetica,sans-Serif" font-size="10.00">luaL_buffinitsize</text>
</a>
</g>
</g>
<!-- Node10&#45;&gt;Node29 -->
<g id="edge37" class="edge"><title>Node10&#45;&gt;Node29</title>
<path fill="none" stroke="midnightblue" d="M299.671,-769.279C319.883,-683.939 399.454,-347.973 414.157,-285.893"/>
<polygon fill="midnightblue" stroke="midnightblue" points="296.218,-768.673 297.319,-779.21 303.029,-770.286 296.218,-768.673"/>
</g>
<!-- Node35 -->
<g id="node35" class="node"><title>Node35</title>
<g id="a_node35"><a xlink:href="../../de/df3/liolib_8c.html#a48a16089fed2e802a76635a3f8bfe8e3" target="_top" xlink:title="read_all">
<polygon fill="none" stroke="black" points="392.5,-855.5 392.5,-874.5 442.5,-874.5 442.5,-855.5 392.5,-855.5"/>
<text text-anchor="middle" x="417.5" y="-862.5" font-family="Helvetica,sans-Serif" font-size="10.00">read_all</text>
</a>
</g>
</g>
<!-- Node10&#45;&gt;Node35 -->
<g id="edge43" class="edge"><title>Node10&#45;&gt;Node35</title>
<path fill="none" stroke="midnightblue" d="M315.276,-804.765C331.274,-816.83 354.418,-833.472 376,-846 381.777,-849.353 388.243,-852.598 394.283,-855.428"/>
<polygon fill="midnightblue" stroke="midnightblue" points="317.251,-801.87 307.178,-798.588 313.006,-807.436 317.251,-801.87"/>
</g>
<!-- Node40 -->
<g id="node40" class="node"><title>Node40</title>
<g id="a_node40"><a xlink:href="../../de/df3/liolib_8c.html#a6735c0513432f83bfa1b88b056ab379b" target="_top" xlink:title="read_chars">
<polygon fill="none" stroke="black" points="385.5,-817.5 385.5,-836.5 449.5,-836.5 449.5,-817.5 385.5,-817.5"/>
<text text-anchor="middle" x="417.5" y="-824.5" font-family="Helvetica,sans-Serif" font-size="10.00">read_chars</text>
</a>
</g>
</g>
<!-- Node10&#45;&gt;Node40 -->
<g id="edge48" class="edge"><title>Node10&#45;&gt;Node40</title>
<path fill="none" stroke="midnightblue" d="M335.544,-801.68C351.961,-806.815 370.599,-812.644 385.85,-817.414"/>
<polygon fill="midnightblue" stroke="midnightblue" points="336.248,-798.234 325.66,-798.589 334.159,-804.914 336.248,-798.234"/>
</g>
<!-- Node12 -->
<g id="node12" class="node"><title>Node12</title>
<g id="a_node12"><a xlink:href="../../dc/d77/lstrlib_8c.html#ad5f7e3fbcadc8825f7f650ecf458fc72" target="_top" xlink:title="add_s">
<polygon fill="none" stroke="black" points="675,-741.5 675,-760.5 719,-760.5 719,-741.5 675,-741.5"/>
<text text-anchor="middle" x="697" y="-748.5" font-family="Helvetica,sans-Serif" font-size="10.00">add_s</text>
</a>
</g>
</g>
<!-- Node11&#45;&gt;Node12 -->
<g id="edge13" class="edge"><title>Node11&#45;&gt;Node12</title>
<path fill="none" stroke="midnightblue" d="M429.441,-579.069C442.773,-599.858 467.014,-633.956 495,-656 552.912,-701.617 636.296,-732.047 674.906,-744.559"/>
<polygon fill="midnightblue" stroke="midnightblue" points="432.38,-577.166 424.109,-570.545 426.445,-580.879 432.38,-577.166"/>
</g>
<!-- Node14 -->
<g id="node14" class="node"><title>Node14</title>
<g id="a_node14"><a xlink:href="../../dc/d77/lstrlib_8c.html#a42337c674d265175bcc2b2f3809c7339" target="_top" xlink:title="str_gsub">
<polygon fill="none" stroke="black" points="934,-532.5 934,-551.5 987,-551.5 987,-532.5 934,-532.5"/>
<text text-anchor="middle" x="960.5" y="-539.5" font-family="Helvetica,sans-Serif" font-size="10.00">str_gsub</text>
</a>
</g>
</g>
<!-- Node11&#45;&gt;Node14 -->
<g id="edge33" class="edge"><title>Node11&#45;&gt;Node14</title>
<path fill="none" stroke="midnightblue" d="M421.403,-541.234C427.728,-506.057 446.306,-433.173 495,-400 548.386,-363.63 575.441,-392.224 640,-390 754.599,-386.053 802.921,-325.903 898,-390 947.569,-423.417 957.198,-504.292 959.058,-532.277"/>
<polygon fill="midnightblue" stroke="midnightblue" points="417.928,-540.797 419.758,-551.233 424.835,-541.934 417.928,-540.797"/>
</g>
<!-- Node15 -->
<g id="node15" class="node"><title>Node15</title>
<g id="a_node15"><a xlink:href="../../da/d29/lauxlib_8h.html#ad9c038f6e108e216011aca1801f84f44" target="_top" xlink:title="luaL_addstring">
<polygon fill="none" stroke="black" points="510.5,-513.5 510.5,-532.5 588.5,-532.5 588.5,-513.5 510.5,-513.5"/>
<text text-anchor="middle" x="549.5" y="-520.5" font-family="Helvetica,sans-Serif" font-size="10.00">luaL_addstring</text>
</a>
</g>
</g>
<!-- Node11&#45;&gt;Node15 -->
<g id="edge16" class="edge"><title>Node11&#45;&gt;Node15</title>
<path fill="none" stroke="midnightblue" d="M461.384,-548.465C479.069,-543.295 499.234,-537.401 515.706,-532.586"/>
<polygon fill="midnightblue" stroke="midnightblue" points="459.921,-545.246 451.304,-551.411 461.885,-551.965 459.921,-545.246"/>
</g>
<!-- Node18 -->
<g id="node18" class="node"><title>Node18</title>
<g id="a_node18"><a xlink:href="../../da/d29/lauxlib_8h.html#a46672be75da57e1a464c5c6d80f19064" target="_top" xlink:title="luaL_gsub">
<polygon fill="none" stroke="black" points="666,-437.5 666,-456.5 728,-456.5 728,-437.5 666,-437.5"/>
<text text-anchor="middle" x="697" y="-444.5" font-family="Helvetica,sans-Serif" font-size="10.00">luaL_gsub</text>
</a>
</g>
</g>
<!-- Node11&#45;&gt;Node18 -->
<g id="edge31" class="edge"><title>Node11&#45;&gt;Node18</title>
<path fill="none" stroke="midnightblue" d="M436.889,-544.256C451.645,-531.607 473.396,-514.659 495,-504 552.087,-475.834 625.367,-459.498 665.809,-452.009"/>
<polygon fill="midnightblue" stroke="midnightblue" points="434.269,-541.899 429.064,-551.127 438.888,-547.159 434.269,-541.899"/>
</g>
<!-- Node22 -->
<g id="node22" class="node"><title>Node22</title>
<g id="a_node22"><a xlink:href="../../da/d29/lauxlib_8h.html#aeeb03d69681da0ec0e952b582ce3841c" target="_top" xlink:title="luaL_addvalue">
<polygon fill="none" stroke="black" points="509.5,-627.5 509.5,-646.5 589.5,-646.5 589.5,-627.5 509.5,-627.5"/>
<text text-anchor="middle" x="549.5" y="-634.5" font-family="Helvetica,sans-Serif" font-size="10.00">luaL_addvalue</text>
</a>
</g>
</g>
<!-- Node11&#45;&gt;Node22 -->
<g id="edge23" class="edge"><title>Node11&#45;&gt;Node22</title>
<path fill="none" stroke="midnightblue" d="M437.089,-577.355C451.954,-589.792 473.753,-606.645 495,-618 501.781,-621.624 509.396,-624.803 516.708,-627.472"/>
<polygon fill="midnightblue" stroke="midnightblue" points="439.074,-574.447 429.195,-570.617 434.529,-579.771 439.074,-574.447"/>
</g>
<!-- Node24 -->
<g id="node24" class="node"><title>Node24</title>
<g id="a_node24"><a xlink:href="../../d0/da1/ltablib_8c.html#add6973c515a288f41265aca8e0ae6412" target="_top" xlink:title="tconcat">
<polygon fill="none" stroke="black" points="820.5,-570.5 820.5,-589.5 867.5,-589.5 867.5,-570.5 820.5,-570.5"/>
<text text-anchor="middle" x="844" y="-577.5" font-family="Helvetica,sans-Serif" font-size="10.00">tconcat</text>
</a>
</g>
</g>
<!-- Node11&#45;&gt;Node24 -->
<g id="edge34" class="edge"><title>Node11&#45;&gt;Node24</title>
<path fill="none" stroke="midnightblue" d="M467.847,-563.209C559.885,-567.328 754.39,-576.034 820.477,-578.992"/>
<polygon fill="midnightblue" stroke="midnightblue" points="467.822,-559.704 457.675,-562.753 467.509,-566.697 467.822,-559.704"/>
</g>
<!-- Node26 -->
<g id="node26" class="node"><title>Node26</title>
<g id="a_node26"><a xlink:href="../../dc/dba/loslib_8c.html#a6520f2562b500aee87a6a475995adefb" target="_top" xlink:title="os_date">
<polygon fill="none" stroke="black" points="524,-589.5 524,-608.5 575,-608.5 575,-589.5 524,-589.5"/>
<text text-anchor="middle" x="549.5" y="-596.5" font-family="Helvetica,sans-Serif" font-size="10.00">os_date</text>
</a>
</g>
</g>
<!-- Node11&#45;&gt;Node26 -->
<g id="edge32" class="edge"><title>Node11&#45;&gt;Node26</title>
<path fill="none" stroke="midnightblue" d="M460.908,-573.396C481.767,-579.493 506.171,-586.627 523.914,-591.813"/>
<polygon fill="midnightblue" stroke="midnightblue" points="461.885,-570.035 451.304,-570.589 459.921,-576.754 461.885,-570.035"/>
</g>
<!-- Node27 -->
<g id="node27" class="node"><title>Node27</title>
<g id="a_node27"><a xlink:href="../../dc/d77/lstrlib_8c.html#ae67cb3a8aef2fe1be04d689cddf5d587" target="_top" xlink:title="writer">
<polygon fill="none" stroke="black" points="530.5,-409.5 530.5,-428.5 568.5,-428.5 568.5,-409.5 530.5,-409.5"/>
<text text-anchor="middle" x="549.5" y="-416.5" font-family="Helvetica,sans-Serif" font-size="10.00">writer</text>
</a>
</g>
</g>
<!-- Node11&#45;&gt;Node27 -->
<g id="edge35" class="edge"><title>Node11&#45;&gt;Node27</title>
<path fill="none" stroke="midnightblue" d="M430.505,-542.948C444.673,-522.285 469.541,-487.951 495,-462 507.351,-449.411 523.302,-437.006 534.563,-428.78"/>
<polygon fill="midnightblue" stroke="midnightblue" points="427.491,-541.158 424.785,-551.401 433.288,-545.081 427.491,-541.158"/>
</g>
<!-- Node13 -->
<g id="node13" class="node"><title>Node13</title>
<g id="a_node13"><a xlink:href="../../dc/d77/lstrlib_8c.html#ad24cfa73e5ad25ec99a1b48f0916471e" target="_top" xlink:title="add_value">
<polygon fill="none" stroke="black" points="813,-703.5 813,-722.5 875,-722.5 875,-703.5 813,-703.5"/>
<text text-anchor="middle" x="844" y="-710.5" font-family="Helvetica,sans-Serif" font-size="10.00">add_value</text>
</a>
</g>
</g>
<!-- Node12&#45;&gt;Node13 -->
<g id="edge14" class="edge"><title>Node12&#45;&gt;Node13</title>
<path fill="none" stroke="midnightblue" d="M729.042,-742.865C753.799,-736.377 788.271,-727.343 812.803,-720.914"/>
<polygon fill="midnightblue" stroke="midnightblue" points="727.87,-739.554 719.084,-745.474 729.645,-746.325 727.87,-739.554"/>
</g>
<!-- Node13&#45;&gt;Node14 -->
<g id="edge15" class="edge"><title>Node13&#45;&gt;Node14</title>
<path fill="none" stroke="midnightblue" d="M884.747,-703.041C889.595,-700.642 894.177,-697.672 898,-694 940.703,-652.982 954.613,-578.275 958.328,-551.701"/>
<polygon fill="midnightblue" stroke="midnightblue" points="883.125,-699.924 875.227,-706.986 885.805,-706.391 883.125,-699.924"/>
</g>
<!-- Node16 -->
<g id="node16" class="node"><title>Node16</title>
<g id="a_node16"><a xlink:href="../../dc/d77/lstrlib_8c.html#a95c31911812b88f7c4ab6ceb63a1e1e8" target="_top" xlink:title="addquoted">
<polygon fill="none" stroke="black" points="666,-513.5 666,-532.5 728,-532.5 728,-513.5 666,-513.5"/>
<text text-anchor="middle" x="697" y="-520.5" font-family="Helvetica,sans-Serif" font-size="10.00">addquoted</text>
</a>
</g>
</g>
<!-- Node15&#45;&gt;Node16 -->
<g id="edge17" class="edge"><title>Node15&#45;&gt;Node16</title>
<path fill="none" stroke="midnightblue" d="M598.936,-523C621.035,-523 646.516,-523 665.825,-523"/>
<polygon fill="midnightblue" stroke="midnightblue" points="598.728,-519.5 588.728,-523 598.728,-526.5 598.728,-519.5"/>
</g>
<!-- Node15&#45;&gt;Node18 -->
<g id="edge19" class="edge"><title>Node15&#45;&gt;Node18</title>
<path fill="none" stroke="midnightblue" d="M574.293,-508.113C592.081,-497.247 617.165,-482.474 640,-471 650.302,-465.824 661.984,-460.704 672.002,-456.532"/>
<polygon fill="midnightblue" stroke="midnightblue" points="572.387,-505.176 565.707,-513.401 576.058,-511.137 572.387,-505.176"/>
</g>
<!-- Node16&#45;&gt;Node17 -->
<g id="edge18" class="edge"><title>Node16&#45;&gt;Node17</title>
<path fill="none" stroke="midnightblue" d="M714.645,-539.733C725.84,-551.038 740.89,-566.336 754,-580 783.728,-610.986 818.353,-648.307 834.231,-665.491"/>
<polygon fill="midnightblue" stroke="midnightblue" points="717.11,-537.248 707.583,-532.614 712.141,-542.178 717.11,-537.248"/>
</g>
<!-- Node19 -->
<g id="node19" class="node"><title>Node19</title>
<g id="a_node19"><a xlink:href="../../d2/d82/loadlib_8c.html#a91ac5b5231cf039af46226806dcc3884" target="_top" xlink:title="loadfunc">
<polygon fill="none" stroke="red" points="818,-437.5 818,-456.5 870,-456.5 870,-437.5 818,-437.5"/>
<text text-anchor="middle" x="844" y="-444.5" font-family="Helvetica,sans-Serif" font-size="10.00">loadfunc</text>
</a>
</g>
</g>
<!-- Node18&#45;&gt;Node19 -->
<g id="edge20" class="edge"><title>Node18&#45;&gt;Node19</title>
<path fill="none" stroke="midnightblue" d="M738.159,-447C763.662,-447 795.881,-447 817.826,-447"/>
<polygon fill="midnightblue" stroke="midnightblue" points="738.044,-443.5 728.044,-447 738.044,-450.5 738.044,-443.5"/>
</g>
<!-- Node20 -->
<g id="node20" class="node"><title>Node20</title>
<g id="a_node20"><a xlink:href="../../d2/d82/loadlib_8c.html#a9aa5433859d896c2db1a7af366e04b65" target="_top" xlink:title="searchpath">
<polygon fill="none" stroke="red" points="811.5,-475.5 811.5,-494.5 876.5,-494.5 876.5,-475.5 811.5,-475.5"/>
<text text-anchor="middle" x="844" y="-482.5" font-family="Helvetica,sans-Serif" font-size="10.00">searchpath</text>
</a>
</g>
</g>
<!-- Node18&#45;&gt;Node20 -->
<g id="edge21" class="edge"><title>Node18&#45;&gt;Node20</title>
<path fill="none" stroke="midnightblue" d="M737.927,-457.464C761.113,-463.54 789.909,-471.087 811.49,-476.742"/>
<polygon fill="midnightblue" stroke="midnightblue" points="738.605,-454.023 728.044,-454.874 736.83,-460.794 738.605,-454.023"/>
</g>
<!-- Node21 -->
<g id="node21" class="node"><title>Node21</title>
<g id="a_node21"><a xlink:href="../../d2/d82/loadlib_8c.html#ab1293c9ab0fa766bfa927767d6ae543c" target="_top" xlink:title="setpath">
<polygon fill="none" stroke="red" points="819.5,-399.5 819.5,-418.5 868.5,-418.5 868.5,-399.5 819.5,-399.5"/>
<text text-anchor="middle" x="844" y="-406.5" font-family="Helvetica,sans-Serif" font-size="10.00">setpath</text>
</a>
</g>
</g>
<!-- Node18&#45;&gt;Node21 -->
<g id="edge22" class="edge"><title>Node18&#45;&gt;Node21</title>
<path fill="none" stroke="midnightblue" d="M738.01,-436.515C764.08,-429.682 797.217,-420.998 819.216,-415.233"/>
<polygon fill="midnightblue" stroke="midnightblue" points="736.83,-433.206 728.044,-439.126 738.605,-439.977 736.83,-433.206"/>
</g>
<!-- Node22&#45;&gt;Node12 -->
<g id="edge24" class="edge"><title>Node22&#45;&gt;Node12</title>
<path fill="none" stroke="midnightblue" d="M564.319,-654.485C580.659,-674.23 609.511,-706.296 640,-727 650.676,-734.25 663.894,-740.04 674.808,-744.116"/>
<polygon fill="midnightblue" stroke="midnightblue" points="566.942,-652.163 557.922,-646.606 561.507,-656.576 566.942,-652.163"/>
</g>
<!-- Node22&#45;&gt;Node13 -->
<g id="edge25" class="edge"><title>Node22&#45;&gt;Node13</title>
<path fill="none" stroke="midnightblue" d="M577.521,-651.167C594.94,-659.769 618.31,-670.34 640,-677 699.879,-695.385 772.754,-705.457 812.876,-709.99"/>
<polygon fill="midnightblue" stroke="midnightblue" points="579.01,-647.998 568.504,-646.627 575.862,-654.251 579.01,-647.998"/>
</g>
<!-- Node22&#45;&gt;Node17 -->
<g id="edge30" class="edge"><title>Node22&#45;&gt;Node17</title>
<path fill="none" stroke="midnightblue" d="M599.333,-648.436C612.481,-651.222 626.736,-653.978 640,-656 702.287,-665.494 776.099,-670.971 815.295,-673.427"/>
<polygon fill="midnightblue" stroke="midnightblue" points="600.044,-645.009 589.529,-646.312 598.561,-651.851 600.044,-645.009"/>
</g>
<!-- Node22&#45;&gt;Node20 -->
<g id="edge29" class="edge"><title>Node22&#45;&gt;Node20</title>
<path fill="none" stroke="midnightblue" d="M598.637,-622.658C600.557,-621.248 602.359,-619.7 604,-618 640.9,-579.771 598.656,-537.373 640,-504 688.889,-464.536 767.575,-470.663 811.234,-478.132"/>
<polygon fill="midnightblue" stroke="midnightblue" points="596.436,-619.893 589.61,-627.996 599.999,-625.919 596.436,-619.893"/>
</g>
<!-- Node23 -->
<g id="node23" class="node"><title>Node23</title>
<g id="a_node23"><a xlink:href="../../d0/da1/ltablib_8c.html#a4ea6cc51c099ea709c7755a49216f4d0" target="_top" xlink:title="addfield">
<polygon fill="none" stroke="black" points="672.5,-589.5 672.5,-608.5 721.5,-608.5 721.5,-589.5 672.5,-589.5"/>
<text text-anchor="middle" x="697" y="-596.5" font-family="Helvetica,sans-Serif" font-size="10.00">addfield</text>
</a>
</g>
</g>
<!-- Node22&#45;&gt;Node23 -->
<g id="edge26" class="edge"><title>Node22&#45;&gt;Node23</title>
<path fill="none" stroke="midnightblue" d="M597.222,-624.798C622.166,-618.283 651.813,-610.54 672.076,-605.248"/>
<polygon fill="midnightblue" stroke="midnightblue" points="596.007,-621.498 587.216,-627.411 597.776,-628.27 596.007,-621.498"/>
</g>
<!-- Node25 -->
<g id="node25" class="node"><title>Node25</title>
<g id="a_node25"><a xlink:href="../../d2/d82/loadlib_8c.html#aeea4101591c7cab25273f4dfe7d811d6" target="_top" xlink:title="findloader">
<polygon fill="none" stroke="red" points="669,-627.5 669,-646.5 725,-646.5 725,-627.5 669,-627.5"/>
<text text-anchor="middle" x="697" y="-634.5" font-family="Helvetica,sans-Serif" font-size="10.00">findloader</text>
</a>
</g>
</g>
<!-- Node22&#45;&gt;Node25 -->
<g id="edge28" class="edge"><title>Node22&#45;&gt;Node25</title>
<path fill="none" stroke="midnightblue" d="M600.115,-637C623.009,-637 649.314,-637 668.574,-637"/>
<polygon fill="midnightblue" stroke="midnightblue" points="599.874,-633.5 589.874,-637 599.874,-640.5 599.874,-633.5"/>
</g>
<!-- Node23&#45;&gt;Node24 -->
<g id="edge27" class="edge"><title>Node23&#45;&gt;Node24</title>
<path fill="none" stroke="midnightblue" d="M731.868,-594.562C759.108,-590.993 796.626,-586.077 820.346,-582.968"/>
<polygon fill="midnightblue" stroke="midnightblue" points="731.08,-591.135 721.619,-595.905 731.989,-598.076 731.08,-591.135"/>
</g>
<!-- Node28 -->
<g id="node28" class="node"><title>Node28</title>
<g id="a_node28"><a xlink:href="../../dc/d77/lstrlib_8c.html#abc94e3a13f1b6ddb2c9b20c9fd89e87f" target="_top" xlink:title="str_dump">
<polygon fill="none" stroke="black" points="669,-399.5 669,-418.5 725,-418.5 725,-399.5 669,-399.5"/>
<text text-anchor="middle" x="697" y="-406.5" font-family="Helvetica,sans-Serif" font-size="10.00">str_dump</text>
</a>
</g>
</g>
<!-- Node27&#45;&gt;Node28 -->
<g id="edge36" class="edge"><title>Node27&#45;&gt;Node28</title>
<path fill="none" stroke="midnightblue" d="M578.635,-417.066C604.709,-415.274 643.237,-412.626 668.956,-410.859"/>
<polygon fill="midnightblue" stroke="midnightblue" points="578.37,-413.576 568.633,-417.754 578.85,-420.56 578.37,-413.576"/>
</g>
<!-- Node30 -->
<g id="node30" class="node"><title>Node30</title>
<g id="a_node30"><a xlink:href="../../dc/d77/lstrlib_8c.html#a3f7db8b2258dca5459ad52d2cbf9f28c" target="_top" xlink:title="str_char">
<polygon fill="none" stroke="black" points="524.5,-323.5 524.5,-342.5 574.5,-342.5 574.5,-323.5 524.5,-323.5"/>
<text text-anchor="middle" x="549.5" y="-330.5" font-family="Helvetica,sans-Serif" font-size="10.00">str_char</text>
</a>
</g>
</g>
<!-- Node29&#45;&gt;Node30 -->
<g id="edge38" class="edge"><title>Node29&#45;&gt;Node30</title>
<path fill="none" stroke="midnightblue" d="M445.087,-290.188C459.633,-297.7 478.089,-306.828 495,-314 504.437,-318.003 515.036,-321.889 524.296,-325.093"/>
<polygon fill="midnightblue" stroke="midnightblue" points="446.632,-287.046 436.147,-285.521 443.393,-293.252 446.632,-287.046"/>
</g>
<!-- Node31 -->
<g id="node31" class="node"><title>Node31</title>
<g id="a_node31"><a xlink:href="../../dc/d77/lstrlib_8c.html#ab2235f81205d0482d03c8ae456a98992" target="_top" xlink:title="str_lower">
<polygon fill="none" stroke="black" points="522.5,-285.5 522.5,-304.5 576.5,-304.5 576.5,-285.5 522.5,-285.5"/>
<text text-anchor="middle" x="549.5" y="-292.5" font-family="Helvetica,sans-Serif" font-size="10.00">str_lower</text>
</a>
</g>
</g>
<!-- Node29&#45;&gt;Node31 -->
<g id="edge39" class="edge"><title>Node29&#45;&gt;Node31</title>
<path fill="none" stroke="midnightblue" d="M469.399,-283.439C487.458,-286.078 507.041,-288.941 522.205,-291.157"/>
<polygon fill="midnightblue" stroke="midnightblue" points="469.677,-279.943 459.276,-281.96 468.665,-286.869 469.677,-279.943"/>
</g>
<!-- Node32 -->
<g id="node32" class="node"><title>Node32</title>
<g id="a_node32"><a xlink:href="../../dc/d77/lstrlib_8c.html#acaee4c84f29e2ec7366728ca04d3569c" target="_top" xlink:title="str_rep">
<polygon fill="none" stroke="black" points="527,-247.5 527,-266.5 572,-266.5 572,-247.5 527,-247.5"/>
<text text-anchor="middle" x="549.5" y="-254.5" font-family="Helvetica,sans-Serif" font-size="10.00">str_rep</text>
</a>
</g>
</g>
<!-- Node29&#45;&gt;Node32 -->
<g id="edge40" class="edge"><title>Node29&#45;&gt;Node32</title>
<path fill="none" stroke="midnightblue" d="M469.202,-268.59C489.184,-265.669 511.061,-262.472 526.766,-260.176"/>
<polygon fill="midnightblue" stroke="midnightblue" points="468.665,-265.131 459.276,-270.04 469.677,-272.057 468.665,-265.131"/>
</g>
<!-- Node33 -->
<g id="node33" class="node"><title>Node33</title>
<g id="a_node33"><a xlink:href="../../dc/d77/lstrlib_8c.html#a4b2ffac60e817b9bfc54b32f8da3a6b4" target="_top" xlink:title="str_reverse">
<polygon fill="none" stroke="black" points="518.5,-209.5 518.5,-228.5 580.5,-228.5 580.5,-209.5 518.5,-209.5"/>
<text text-anchor="middle" x="549.5" y="-216.5" font-family="Helvetica,sans-Serif" font-size="10.00">str_reverse</text>
</a>
</g>
</g>
<!-- Node29&#45;&gt;Node33 -->
<g id="edge41" class="edge"><title>Node29&#45;&gt;Node33</title>
<path fill="none" stroke="midnightblue" d="M445.087,-261.812C459.633,-254.3 478.089,-245.172 495,-238 502.894,-234.652 511.602,-231.385 519.658,-228.531"/>
<polygon fill="midnightblue" stroke="midnightblue" points="443.393,-258.748 436.147,-266.479 446.632,-264.954 443.393,-258.748"/>
</g>
<!-- Node34 -->
<g id="node34" class="node"><title>Node34</title>
<g id="a_node34"><a xlink:href="../../dc/d77/lstrlib_8c.html#a38ed99b74af58070449ca344a7351f6a" target="_top" xlink:title="str_upper">
<polygon fill="none" stroke="black" points="521.5,-171.5 521.5,-190.5 577.5,-190.5 577.5,-171.5 521.5,-171.5"/>
<text text-anchor="middle" x="549.5" y="-178.5" font-family="Helvetica,sans-Serif" font-size="10.00">str_upper</text>
</a>
</g>
</g>
<!-- Node29&#45;&gt;Node34 -->
<g id="edge42" class="edge"><title>Node29&#45;&gt;Node34</title>
<path fill="none" stroke="midnightblue" d="M432.211,-258.441C446.326,-241.41 469.768,-215.878 495,-200 503.008,-194.96 512.534,-191.028 521.313,-188.082"/>
<polygon fill="midnightblue" stroke="midnightblue" points="429.281,-256.498 425.719,-266.476 434.726,-260.897 429.281,-256.498"/>
</g>
<!-- Node36 -->
<g id="node36" class="node"><title>Node36</title>
<g id="a_node36"><a xlink:href="../../de/df3/liolib_8c.html#addece2406777a40f0f591e3518293932" target="_top" xlink:title="g_read">
<polygon fill="none" stroke="black" points="526.5,-855.5 526.5,-874.5 572.5,-874.5 572.5,-855.5 526.5,-855.5"/>
<text text-anchor="middle" x="549.5" y="-862.5" font-family="Helvetica,sans-Serif" font-size="10.00">g_read</text>
</a>
</g>
</g>
<!-- Node35&#45;&gt;Node36 -->
<g id="edge44" class="edge"><title>Node35&#45;&gt;Node36</title>
<path fill="none" stroke="midnightblue" d="M452.783,-865C476.014,-865 506.043,-865 526.218,-865"/>
<polygon fill="midnightblue" stroke="midnightblue" points="452.647,-861.5 442.647,-865 452.647,-868.5 452.647,-861.5"/>
</g>
<!-- Node37 -->
<g id="node37" class="node"><title>Node37</title>
<g id="a_node37"><a xlink:href="../../de/df3/liolib_8c.html#add5250a74576076467531e4eb8f5f68e" target="_top" xlink:title="f_read">
<polygon fill="none" stroke="black" points="675.5,-817.5 675.5,-836.5 718.5,-836.5 718.5,-817.5 675.5,-817.5"/>
<text text-anchor="middle" x="697" y="-824.5" font-family="Helvetica,sans-Serif" font-size="10.00">f_read</text>
</a>
</g>
</g>
<!-- Node36&#45;&gt;Node37 -->
<g id="edge45" class="edge"><title>Node36&#45;&gt;Node37</title>
<path fill="none" stroke="midnightblue" d="M582.38,-856.674C610.56,-849.314 650.851,-838.791 675.112,-832.455"/>
<polygon fill="midnightblue" stroke="midnightblue" points="581.389,-853.315 572.598,-859.229 583.158,-860.088 581.389,-853.315"/>
</g>
<!-- Node38 -->
<g id="node38" class="node"><title>Node38</title>
<g id="a_node38"><a xlink:href="../../de/df3/liolib_8c.html#a45307aa59a628966c6ea270e9b476d9a" target="_top" xlink:title="io_read">
<polygon fill="none" stroke="black" points="673.5,-893.5 673.5,-912.5 720.5,-912.5 720.5,-893.5 673.5,-893.5"/>
<text text-anchor="middle" x="697" y="-900.5" font-family="Helvetica,sans-Serif" font-size="10.00">io_read</text>
</a>
</g>
</g>
<!-- Node36&#45;&gt;Node38 -->
<g id="edge46" class="edge"><title>Node36&#45;&gt;Node38</title>
<path fill="none" stroke="midnightblue" d="M582.505,-873.359C609.955,-880.528 648.828,-890.68 673.213,-897.049"/>
<polygon fill="midnightblue" stroke="midnightblue" points="583.158,-869.912 572.598,-870.771 581.389,-876.685 583.158,-869.912"/>
</g>
<!-- Node39 -->
<g id="node39" class="node"><title>Node39</title>
<g id="a_node39"><a xlink:href="../../de/df3/liolib_8c.html#ac37d80ee2cc364b4adafcb6f7c20f28b" target="_top" xlink:title="io_readline">
<polygon fill="none" stroke="red" points="666.5,-855.5 666.5,-874.5 727.5,-874.5 727.5,-855.5 666.5,-855.5"/>
<text text-anchor="middle" x="697" y="-862.5" font-family="Helvetica,sans-Serif" font-size="10.00">io_readline</text>
</a>
</g>
</g>
<!-- Node36&#45;&gt;Node39 -->
<g id="edge47" class="edge"><title>Node36&#45;&gt;Node39</title>
<path fill="none" stroke="midnightblue" d="M582.677,-865C607.669,-865 642.053,-865 666.374,-865"/>
<polygon fill="midnightblue" stroke="midnightblue" points="582.598,-861.5 572.598,-865 582.598,-868.5 582.598,-861.5"/>
</g>
<!-- Node40&#45;&gt;Node36 -->
<g id="edge49" class="edge"><title>Node40&#45;&gt;Node36</title>
<path fill="none" stroke="midnightblue" d="M459.428,-838.964C481.493,-845.413 507.866,-853.122 526.163,-858.471"/>
<polygon fill="midnightblue" stroke="midnightblue" points="460.219,-835.548 449.638,-836.102 458.255,-842.267 460.219,-835.548"/>
</g>
<!-- Node42 -->
<g id="node42" class="node"><title>Node42</title>
<g id="a_node42"><a xlink:href="../../de/df3/liolib_8c.html#a0a80ad2f9dbb3b7238efae7738bb7569" target="_top" xlink:title="createstdfile">
<polygon fill="none" stroke="black" points="385,-133.5 385,-152.5 450,-152.5 450,-133.5 385,-133.5"/>
<text text-anchor="middle" x="417.5" y="-140.5" font-family="Helvetica,sans-Serif" font-size="10.00">createstdfile</text>
</a>
</g>
</g>
<!-- Node41&#45;&gt;Node42 -->
<g id="edge52" class="edge"><title>Node41&#45;&gt;Node42</title>
<path fill="none" stroke="midnightblue" d="M333.705,-130.053C350.23,-132.637 369.273,-135.615 384.927,-138.063"/>
<polygon fill="midnightblue" stroke="midnightblue" points="334.215,-126.59 323.794,-128.503 333.133,-133.506 334.215,-126.59"/>
</g>
<!-- Node44 -->
<g id="node44" class="node"><title>Node44</title>
<g id="a_node44"><a xlink:href="../../de/df3/liolib_8c.html#a8cc0b2b08409fb97e5cc80a0caf9b5fd" target="_top" xlink:title="io_popen">
<polygon fill="none" stroke="black" points="389.5,-95.5 389.5,-114.5 445.5,-114.5 445.5,-95.5 389.5,-95.5"/>
<text text-anchor="middle" x="417.5" y="-102.5" font-family="Helvetica,sans-Serif" font-size="10.00">io_popen</text>
</a>
</g>
</g>
<!-- Node41&#45;&gt;Node44 -->
<g id="edge54" class="edge"><title>Node41&#45;&gt;Node44</title>
<path fill="none" stroke="midnightblue" d="M333.735,-117.943C351.777,-115.121 372.814,-111.831 389.164,-109.275"/>
<polygon fill="midnightblue" stroke="midnightblue" points="333.133,-114.494 323.794,-119.497 334.215,-121.41 333.133,-114.494"/>
</g>
<!-- Node45 -->
<g id="node45" class="node"><title>Node45</title>
<g id="a_node45"><a xlink:href="../../de/df3/liolib_8c.html#a57c6c258a611b738f0ef34584ca6e7ab" target="_top" xlink:title="newfile">
<polygon fill="none" stroke="black" points="394.5,-57.5 394.5,-76.5 440.5,-76.5 440.5,-57.5 394.5,-57.5"/>
<text text-anchor="middle" x="417.5" y="-64.5" font-family="Helvetica,sans-Serif" font-size="10.00">newfile</text>
</a>
</g>
</g>
<!-- Node41&#45;&gt;Node45 -->
<g id="edge55" class="edge"><title>Node41&#45;&gt;Node45</title>
<path fill="none" stroke="midnightblue" d="M324.623,-110.103C346.791,-99.7028 376.537,-85.748 396.097,-76.5716"/>
<polygon fill="midnightblue" stroke="midnightblue" points="322.903,-107.044 315.336,-114.459 325.876,-113.381 322.903,-107.044"/>
</g>
<!-- Node43 -->
<g id="node43" class="node"><title>Node43</title>
<g id="a_node43"><a xlink:href="../../d6/d07/lualib_8h.html#a686b841d953f3113ddc7538d69debce7" target="_top" xlink:title="luaopen_io">
<polygon fill="none" stroke="black" points="518,-133.5 518,-152.5 581,-152.5 581,-133.5 518,-133.5"/>
<text text-anchor="middle" x="549.5" y="-140.5" font-family="Helvetica,sans-Serif" font-size="10.00">luaopen_io</text>
</a>
</g>
</g>
<!-- Node42&#45;&gt;Node43 -->
<g id="edge53" class="edge"><title>Node42&#45;&gt;Node43</title>
<path fill="none" stroke="midnightblue" d="M460.354,-143C479.079,-143 500.752,-143 517.922,-143"/>
<polygon fill="midnightblue" stroke="midnightblue" points="460.302,-139.5 450.302,-143 460.302,-146.5 460.302,-139.5"/>
</g>
<!-- Node46 -->
<g id="node46" class="node"><title>Node46</title>
<g id="a_node46"><a xlink:href="../../de/df3/liolib_8c.html#ab4a969d43dbe0f89e98307e5b421f8a7" target="_top" xlink:title="io_open">
<polygon fill="none" stroke="black" points="524.5,-95.5 524.5,-114.5 574.5,-114.5 574.5,-95.5 524.5,-95.5"/>
<text text-anchor="middle" x="549.5" y="-102.5" font-family="Helvetica,sans-Serif" font-size="10.00">io_open</text>
</a>
</g>
</g>
<!-- Node45&#45;&gt;Node46 -->
<g id="edge56" class="edge"><title>Node45&#45;&gt;Node46</title>
<path fill="none" stroke="midnightblue" d="M450.427,-76.3325C473.177,-82.9825 503.295,-91.7863 524.124,-97.8748"/>
<polygon fill="midnightblue" stroke="midnightblue" points="451.133,-72.8925 440.553,-73.4462 449.169,-79.6113 451.133,-72.8925"/>
</g>
<!-- Node47 -->
<g id="node47" class="node"><title>Node47</title>
<g id="a_node47"><a xlink:href="../../de/df3/liolib_8c.html#a0347de9dda8be02044075c96482eddb3" target="_top" xlink:title="io_tmpfile">
<polygon fill="none" stroke="black" points="522,-57.5 522,-76.5 577,-76.5 577,-57.5 522,-57.5"/>
<text text-anchor="middle" x="549.5" y="-64.5" font-family="Helvetica,sans-Serif" font-size="10.00">io_tmpfile</text>
</a>
</g>
</g>
<!-- Node45&#45;&gt;Node47 -->
<g id="edge57" class="edge"><title>Node45&#45;&gt;Node47</title>
<path fill="none" stroke="midnightblue" d="M450.696,-67C472.592,-67 501.219,-67 521.837,-67"/>
<polygon fill="midnightblue" stroke="midnightblue" points="450.553,-63.5001 440.553,-67 450.553,-70.5001 450.553,-63.5001"/>
</g>
<!-- Node48 -->
<g id="node48" class="node"><title>Node48</title>
<g id="a_node48"><a xlink:href="../../de/df3/liolib_8c.html#a91ec9c6fa0ef33085f29a15532ac80a7" target="_top" xlink:title="opencheck">
<polygon fill="none" stroke="black" points="518.5,-19.5 518.5,-38.5 580.5,-38.5 580.5,-19.5 518.5,-19.5"/>
<text text-anchor="middle" x="549.5" y="-26.5" font-family="Helvetica,sans-Serif" font-size="10.00">opencheck</text>
</a>
</g>
</g>
<!-- Node45&#45;&gt;Node48 -->
<g id="edge58" class="edge"><title>Node45&#45;&gt;Node48</title>
<path fill="none" stroke="midnightblue" d="M450.425,-57.668C471.044,-51.641 497.716,-43.8447 518.039,-37.9041"/>
<polygon fill="midnightblue" stroke="midnightblue" points="449.169,-54.3887 440.553,-60.5538 451.133,-61.1075 449.169,-54.3887"/>
</g>
<!-- Node49 -->
<g id="node49" class="node"><title>Node49</title>
<g id="a_node49"><a xlink:href="../../de/df3/liolib_8c.html#aae942558ff528b4e1a483297c64e6886" target="_top" xlink:title="g_iofile">
<polygon fill="none" stroke="red" points="675,-38.5 675,-57.5 719,-57.5 719,-38.5 675,-38.5"/>
<text text-anchor="middle" x="697" y="-45.5" font-family="Helvetica,sans-Serif" font-size="10.00">g_iofile</text>
</a>
</g>
</g>
<!-- Node48&#45;&gt;Node49 -->
<g id="edge59" class="edge"><title>Node48&#45;&gt;Node49</title>
<path fill="none" stroke="midnightblue" d="M590.671,-34.2457C617.919,-37.8038 652.85,-42.3653 674.836,-45.2363"/>
<polygon fill="midnightblue" stroke="midnightblue" points="591.017,-30.7612 580.648,-32.9368 590.11,-37.7023 591.017,-30.7612"/>
</g>
<!-- Node50 -->
<g id="node50" class="node"><title>Node50</title>
<g id="a_node50"><a xlink:href="../../de/df3/liolib_8c.html#ab08031b51605d4ef676ec33a3b96a286" target="_top" xlink:title="io_lines">
<polygon fill="none" stroke="black" points="673.5,-0.5 673.5,-19.5 720.5,-19.5 720.5,-0.5 673.5,-0.5"/>
<text text-anchor="middle" x="697" y="-7.5" font-family="Helvetica,sans-Serif" font-size="10.00">io_lines</text>
</a>
</g>
</g>
<!-- Node48&#45;&gt;Node50 -->
<g id="edge60" class="edge"><title>Node48&#45;&gt;Node50</title>
<path fill="none" stroke="midnightblue" d="M590.84,-23.7323C617.516,-20.2487 651.501,-15.8109 673.5,-12.9382"/>
<polygon fill="midnightblue" stroke="midnightblue" points="590.11,-20.2977 580.648,-25.0632 591.017,-27.2388 590.11,-20.2977"/>
</g>
</g>
</svg>
