<?xml version="1.0" encoding="UTF-8" standalone="no"?>
<!DOCTYPE svg PUBLIC "-//W3C//DTD SVG 1.1//EN"
 "http://www.w3.org/Graphics/SVG/1.1/DTD/svg11.dtd">
<!-- Generated by graphviz version 2.38.0 (20140413.2041)
 -->
<!-- Title: createstrobj Pages: 1 -->
<svg width="964pt" height="1221pt"
 viewBox="0.00 0.00 964.00 1221.50" xmlns="http://www.w3.org/2000/svg" xmlns:xlink="http://www.w3.org/1999/xlink">
<g id="graph0" class="graph" transform="scale(1 1) rotate(0) translate(4 1217.5)">
<title>createstrobj</title>
<!-- Node1 -->
<g id="node1" class="node"><title>Node1</title>
<polygon fill="#bfbfbf" stroke="black" points="0,-380.5 0,-399.5 65,-399.5 65,-380.5 0,-380.5"/>
<text text-anchor="middle" x="32.5" y="-387.5" font-family="Helvetica,sans-Serif" font-size="10.00">createstrobj</text>
</g>
<!-- Node2 -->
<g id="node2" class="node"><title>Node2</title>
<g id="a_node2"><a xlink:href="../../d4/dfb/lstring_8h.html#a248e72694b9116b07b2e7f4a9a3a5331" target="_top" xlink:title="luaS_newlstr">
<polygon fill="none" stroke="black" points="292,-380.5 292,-399.5 363,-399.5 363,-380.5 292,-380.5"/>
<text text-anchor="middle" x="327.5" y="-387.5" font-family="Helvetica,sans-Serif" font-size="10.00">luaS_newlstr</text>
</a>
</g>
</g>
<!-- Node1&#45;&gt;Node2 -->
<g id="edge1" class="edge"><title>Node1&#45;&gt;Node2</title>
<path fill="none" stroke="midnightblue" d="M75.4432,-390C133.637,-390 237.792,-390 291.835,-390"/>
<polygon fill="midnightblue" stroke="midnightblue" points="75.1346,-386.5 65.1345,-390 75.1345,-393.5 75.1346,-386.5"/>
</g>
<!-- Node49 -->
<g id="node49" class="node"><title>Node49</title>
<g id="a_node49"><a xlink:href="../../d1/d2f/lstring_8c.html#a6e3c0fe3ba834ee00279a9df03f40fc4" target="_top" xlink:title="newshrstr">
<polygon fill="none" stroke="black" points="101,-361.5 101,-380.5 159,-380.5 159,-361.5 101,-361.5"/>
<text text-anchor="middle" x="130" y="-368.5" font-family="Helvetica,sans-Serif" font-size="10.00">newshrstr</text>
</a>
</g>
</g>
<!-- Node1&#45;&gt;Node49 -->
<g id="edge58" class="edge"><title>Node1&#45;&gt;Node49</title>
<path fill="none" stroke="midnightblue" d="M75.0219,-381.739C83.6985,-380.013 92.6541,-378.231 100.716,-376.627"/>
<polygon fill="midnightblue" stroke="midnightblue" points="74.1597,-378.342 65.0349,-383.726 75.5257,-385.207 74.1597,-378.342"/>
</g>
<!-- Node3 -->
<g id="node3" class="node"><title>Node3</title>
<g id="a_node3"><a xlink:href="../../da/dd2/lua_8h.html#a4ab8500ade8e1d8a87b1df1baf19b179" target="_top" xlink:title="lua_pushlstring">
<polygon fill="none" stroke="black" points="399.5,-1064.5 399.5,-1083.5 479.5,-1083.5 479.5,-1064.5 399.5,-1064.5"/>
<text text-anchor="middle" x="439.5" y="-1071.5" font-family="Helvetica,sans-Serif" font-size="10.00">lua_pushlstring</text>
</a>
</g>
</g>
<!-- Node2&#45;&gt;Node3 -->
<g id="edge2" class="edge"><title>Node2&#45;&gt;Node3</title>
<path fill="none" stroke="midnightblue" d="M331.66,-409.652C348.247,-512.793 424.939,-989.677 436.923,-1064.2"/>
<polygon fill="midnightblue" stroke="midnightblue" points="335.098,-408.987 330.055,-399.669 328.187,-410.098 335.098,-408.987"/>
</g>
<!-- Node12 -->
<g id="node12" class="node"><title>Node12</title>
<g id="a_node12"><a xlink:href="../../da/dd2/lua_8h.html#a4eba0457df5bafff4d44071d1d8080b6" target="_top" xlink:title="lua_concat">
<polygon fill="none" stroke="black" points="534,-456.5 534,-475.5 596,-475.5 596,-456.5 534,-456.5"/>
<text text-anchor="middle" x="565" y="-463.5" font-family="Helvetica,sans-Serif" font-size="10.00">lua_concat</text>
</a>
</g>
</g>
<!-- Node2&#45;&gt;Node12 -->
<g id="edge13" class="edge"><title>Node2&#45;&gt;Node12</title>
<path fill="none" stroke="midnightblue" d="M343.873,-406.848C357.095,-420.154 377.404,-437.939 399,-447 443.271,-465.576 499.752,-468.026 533.833,-467.468"/>
<polygon fill="midnightblue" stroke="midnightblue" points="346.399,-404.425 336.951,-399.631 341.347,-409.271 346.399,-404.425"/>
</g>
<!-- Node18 -->
<g id="node18" class="node"><title>Node18</title>
<g id="a_node18"><a xlink:href="../../dd/d05/lcode_8h.html#a4f928250a0f4007764b4d3777651f617" target="_top" xlink:title="luaK_numberK">
<polygon fill="none" stroke="black" points="399.5,-342.5 399.5,-361.5 479.5,-361.5 479.5,-342.5 399.5,-342.5"/>
<text text-anchor="middle" x="439.5" y="-349.5" font-family="Helvetica,sans-Serif" font-size="10.00">luaK_numberK</text>
</a>
</g>
</g>
<!-- Node2&#45;&gt;Node18 -->
<g id="edge21" class="edge"><title>Node2&#45;&gt;Node18</title>
<path fill="none" stroke="midnightblue" d="M366.05,-377.028C380.705,-371.966 397.204,-366.266 410.751,-361.586"/>
<polygon fill="midnightblue" stroke="midnightblue" points="364.567,-373.838 356.258,-380.411 366.852,-380.454 364.567,-373.838"/>
</g>
<!-- Node22 -->
<g id="node22" class="node"><title>Node22</title>
<g id="a_node22"><a xlink:href="../../d8/d27/llex_8h.html#aa6e79179f823cf156f61899a09239ca6" target="_top" xlink:title="luaX_newstring">
<polygon fill="none" stroke="black" points="399,-209.5 399,-228.5 480,-228.5 480,-209.5 399,-209.5"/>
<text text-anchor="middle" x="439.5" y="-216.5" font-family="Helvetica,sans-Serif" font-size="10.00">luaX_newstring</text>
</a>
</g>
</g>
<!-- Node2&#45;&gt;Node22 -->
<g id="edge25" class="edge"><title>Node2&#45;&gt;Node22</title>
<path fill="none" stroke="midnightblue" d="M340.25,-371.734C363.5,-335.591 414.652,-256.073 432.339,-228.577"/>
<polygon fill="midnightblue" stroke="midnightblue" points="337.196,-370.013 334.729,-380.316 343.083,-373.8 337.196,-370.013"/>
</g>
<!-- Node28 -->
<g id="node28" class="node"><title>Node28</title>
<g id="a_node28"><a xlink:href="../../d7/d9b/lobject_8c.html#aa65db03553a5abd73e466d307bb17a37" target="_top" xlink:title="pushstr">
<polygon fill="none" stroke="black" points="415.5,-380.5 415.5,-399.5 463.5,-399.5 463.5,-380.5 415.5,-380.5"/>
<text text-anchor="middle" x="439.5" y="-387.5" font-family="Helvetica,sans-Serif" font-size="10.00">pushstr</text>
</a>
</g>
</g>
<!-- Node2&#45;&gt;Node28 -->
<g id="edge33" class="edge"><title>Node2&#45;&gt;Node28</title>
<path fill="none" stroke="midnightblue" d="M373.261,-390C387.666,-390 403.042,-390 415.246,-390"/>
<polygon fill="midnightblue" stroke="midnightblue" points="373.003,-386.5 363.003,-390 373.003,-393.5 373.003,-386.5"/>
</g>
<!-- Node30 -->
<g id="node30" class="node"><title>Node30</title>
<g id="a_node30"><a xlink:href="../../d4/dfb/lstring_8h.html#a6929da8cfde3e74a0d51a6467909ef9d" target="_top" xlink:title="luaS_new">
<polygon fill="none" stroke="black" points="409.5,-684.5 409.5,-703.5 469.5,-703.5 469.5,-684.5 409.5,-684.5"/>
<text text-anchor="middle" x="439.5" y="-691.5" font-family="Helvetica,sans-Serif" font-size="10.00">luaS_new</text>
</a>
</g>
</g>
<!-- Node2&#45;&gt;Node30 -->
<g id="edge35" class="edge"><title>Node2&#45;&gt;Node30</title>
<path fill="none" stroke="midnightblue" d="M335.479,-409.287C356.637,-467.759 419.558,-641.65 435.033,-684.418"/>
<polygon fill="midnightblue" stroke="midnightblue" points="338.729,-407.983 332.035,-399.77 332.147,-410.365 338.729,-407.983"/>
</g>
<!-- Node43 -->
<g id="node43" class="node"><title>Node43</title>
<g id="a_node43"><a xlink:href="../../de/d2f/lundump_8c.html#abfe7dabe70bd14e27d54d3cedc6cb70a" target="_top" xlink:title="LoadString">
<polygon fill="none" stroke="black" points="408.5,-76.5 408.5,-95.5 470.5,-95.5 470.5,-76.5 408.5,-76.5"/>
<text text-anchor="middle" x="439.5" y="-83.5" font-family="Helvetica,sans-Serif" font-size="10.00">LoadString</text>
</a>
</g>
</g>
<!-- Node2&#45;&gt;Node43 -->
<g id="edge50" class="edge"><title>Node2&#45;&gt;Node43</title>
<path fill="none" stroke="midnightblue" d="M335.479,-370.713C356.637,-312.241 419.558,-138.35 435.033,-95.5823"/>
<polygon fill="midnightblue" stroke="midnightblue" points="332.147,-369.635 332.035,-380.23 338.729,-372.017 332.147,-369.635"/>
</g>
<!-- Node46 -->
<g id="node46" class="node"><title>Node46</title>
<g id="a_node46"><a xlink:href="../../d5/dcd/lvm_8h.html#abcde68a7697547dc2c7f1d0e6734e611" target="_top" xlink:title="luaV_tostring">
<polygon fill="none" stroke="black" points="404,-19.5 404,-38.5 475,-38.5 475,-19.5 404,-19.5"/>
<text text-anchor="middle" x="439.5" y="-26.5" font-family="Helvetica,sans-Serif" font-size="10.00">luaV_tostring</text>
</a>
</g>
</g>
<!-- Node2&#45;&gt;Node46 -->
<g id="edge53" class="edge"><title>Node2&#45;&gt;Node46</title>
<path fill="none" stroke="midnightblue" d="M328.892,-370.293C330.727,-317.634 341.067,-170.614 399,-67 405.316,-55.7043 416.069,-45.6856 424.762,-38.7752"/>
<polygon fill="midnightblue" stroke="midnightblue" points="325.393,-370.212 328.61,-380.306 332.39,-370.409 325.393,-370.212"/>
</g>
<!-- Node48 -->
<g id="node48" class="node"><title>Node48</title>
<g id="a_node48"><a xlink:href="../../d5/dcd/lvm_8h.html#aee84bfc563cb4bdd21a013218a289aa7" target="_top" xlink:title="luaV_concat">
<polygon fill="none" stroke="red" points="405,-418.5 405,-437.5 474,-437.5 474,-418.5 405,-418.5"/>
<text text-anchor="middle" x="439.5" y="-425.5" font-family="Helvetica,sans-Serif" font-size="10.00">luaV_concat</text>
</a>
</g>
</g>
<!-- Node2&#45;&gt;Node48 -->
<g id="edge55" class="edge"><title>Node2&#45;&gt;Node48</title>
<path fill="none" stroke="midnightblue" d="M366.05,-402.972C380.705,-408.034 397.204,-413.734 410.751,-418.414"/>
<polygon fill="midnightblue" stroke="midnightblue" points="366.852,-399.546 356.258,-399.589 364.567,-406.162 366.852,-399.546"/>
</g>
<!-- Node4 -->
<g id="node4" class="node"><title>Node4</title>
<g id="a_node4"><a xlink:href="../../da/d29/lauxlib_8h.html#aac5dfab9ba0ced4f5ae3b22aa35faffe" target="_top" xlink:title="luaL_pushresult">
<polygon fill="none" stroke="red" points="523.5,-1140.5 523.5,-1159.5 606.5,-1159.5 606.5,-1140.5 523.5,-1140.5"/>
<text text-anchor="middle" x="565" y="-1147.5" font-family="Helvetica,sans-Serif" font-size="10.00">luaL_pushresult</text>
</a>
</g>
</g>
<!-- Node3&#45;&gt;Node4 -->
<g id="edge3" class="edge"><title>Node3&#45;&gt;Node4</title>
<path fill="none" stroke="midnightblue" d="M459.436,-1090.59C474.134,-1102.88 495.412,-1119.44 516,-1131 522.329,-1134.56 529.459,-1137.76 536.249,-1140.49"/>
<polygon fill="midnightblue" stroke="midnightblue" points="461.48,-1087.73 451.597,-1083.91 456.942,-1093.06 461.48,-1087.73"/>
</g>
<!-- Node5 -->
<g id="node5" class="node"><title>Node5</title>
<g id="a_node5"><a xlink:href="../../de/df3/liolib_8c.html#ace61fce0bdea311d6d7c2206881165c7" target="_top" xlink:title="test_eof">
<polygon fill="none" stroke="red" points="540,-1102.5 540,-1121.5 590,-1121.5 590,-1102.5 540,-1102.5"/>
<text text-anchor="middle" x="565" y="-1109.5" font-family="Helvetica,sans-Serif" font-size="10.00">test_eof</text>
</a>
</g>
</g>
<!-- Node3&#45;&gt;Node5 -->
<g id="edge4" class="edge"><title>Node3&#45;&gt;Node5</title>
<path fill="none" stroke="midnightblue" d="M481.459,-1086.6C500.818,-1092.56 523.264,-1099.47 539.858,-1104.57"/>
<polygon fill="midnightblue" stroke="midnightblue" points="482.251,-1083.18 471.664,-1083.59 480.193,-1089.88 482.251,-1083.18"/>
</g>
<!-- Node6 -->
<g id="node6" class="node"><title>Node6</title>
<g id="a_node6"><a xlink:href="../../d2/d82/loadlib_8c.html#aa1ea5ee1b54a06650a887c4ee05a8547" target="_top" xlink:title="pushnexttemplate">
<polygon fill="none" stroke="red" points="519,-1064.5 519,-1083.5 611,-1083.5 611,-1064.5 519,-1064.5"/>
<text text-anchor="middle" x="565" y="-1071.5" font-family="Helvetica,sans-Serif" font-size="10.00">pushnexttemplate</text>
</a>
</g>
</g>
<!-- Node3&#45;&gt;Node6 -->
<g id="edge5" class="edge"><title>Node3&#45;&gt;Node6</title>
<path fill="none" stroke="midnightblue" d="M489.743,-1074C499.306,-1074 509.286,-1074 518.714,-1074"/>
<polygon fill="midnightblue" stroke="midnightblue" points="489.576,-1070.5 479.576,-1074 489.576,-1077.5 489.576,-1070.5"/>
</g>
<!-- Node7 -->
<g id="node7" class="node"><title>Node7</title>
<g id="a_node7"><a xlink:href="../../d2/d82/loadlib_8c.html#a91ac5b5231cf039af46226806dcc3884" target="_top" xlink:title="loadfunc">
<polygon fill="none" stroke="red" points="539,-988.5 539,-1007.5 591,-1007.5 591,-988.5 539,-988.5"/>
<text text-anchor="middle" x="565" y="-995.5" font-family="Helvetica,sans-Serif" font-size="10.00">loadfunc</text>
</a>
</g>
</g>
<!-- Node3&#45;&gt;Node7 -->
<g id="edge6" class="edge"><title>Node3&#45;&gt;Node7</title>
<path fill="none" stroke="midnightblue" d="M461.685,-1058.23C476.537,-1047.47 497.047,-1033.19 516,-1022 524.665,-1016.88 534.561,-1011.81 543.109,-1007.66"/>
<polygon fill="midnightblue" stroke="midnightblue" points="459.234,-1055.68 453.232,-1064.42 463.369,-1061.33 459.234,-1055.68"/>
</g>
<!-- Node8 -->
<g id="node8" class="node"><title>Node8</title>
<g id="a_node8"><a xlink:href="../../d2/d82/loadlib_8c.html#a1ec05cd98a045c271aeda9f9c6041e1c" target="_top" xlink:title="searcher_Croot">
<polygon fill="none" stroke="red" points="650.5,-988.5 650.5,-1007.5 730.5,-1007.5 730.5,-988.5 650.5,-988.5"/>
<text text-anchor="middle" x="690.5" y="-995.5" font-family="Helvetica,sans-Serif" font-size="10.00">searcher_Croot</text>
</a>
</g>
</g>
<!-- Node3&#45;&gt;Node8 -->
<g id="edge8" class="edge"><title>Node3&#45;&gt;Node8</title>
<path fill="none" stroke="midnightblue" d="M481.539,-1061.47C531.105,-1046.35 613.385,-1021.23 658.148,-1007.57"/>
<polygon fill="midnightblue" stroke="midnightblue" points="480.327,-1058.18 471.784,-1064.45 482.37,-1064.88 480.327,-1058.18"/>
</g>
<!-- Node9 -->
<g id="node9" class="node"><title>Node9</title>
<g id="a_node9"><a xlink:href="../../dc/d77/lstrlib_8c.html#a039b391d5f43533a0ce750c5e40d7752" target="_top" xlink:title="str_sub">
<polygon fill="none" stroke="black" points="541,-950.5 541,-969.5 589,-969.5 589,-950.5 541,-950.5"/>
<text text-anchor="middle" x="565" y="-957.5" font-family="Helvetica,sans-Serif" font-size="10.00">str_sub</text>
</a>
</g>
</g>
<!-- Node3&#45;&gt;Node9 -->
<g id="edge9" class="edge"><title>Node3&#45;&gt;Node9</title>
<path fill="none" stroke="midnightblue" d="M450.999,-1055.6C463.874,-1034.5 487.531,-1000.11 516,-979 523.343,-973.555 532.455,-969.432 540.76,-966.443"/>
<polygon fill="midnightblue" stroke="midnightblue" points="447.952,-1053.88 445.864,-1064.27 453.974,-1057.45 447.952,-1053.88"/>
</g>
<!-- Node10 -->
<g id="node10" class="node"><title>Node10</title>
<g id="a_node10"><a xlink:href="../../dc/d77/lstrlib_8c.html#a24a14b4e6e90bac4610dd334bb0b51b6" target="_top" xlink:title="push_onecapture">
<polygon fill="none" stroke="red" points="767,-1073.5 767,-1092.5 858,-1092.5 858,-1073.5 767,-1073.5"/>
<text text-anchor="middle" x="812.5" y="-1080.5" font-family="Helvetica,sans-Serif" font-size="10.00">push_onecapture</text>
</a>
</g>
</g>
<!-- Node3&#45;&gt;Node10 -->
<g id="edge10" class="edge"><title>Node3&#45;&gt;Node10</title>
<path fill="none" stroke="midnightblue" d="M448.916,-1092.7C460.375,-1115.57 483.275,-1153.21 516,-1169 619.698,-1219.05 758.209,-1123.89 799.439,-1092.53"/>
<polygon fill="midnightblue" stroke="midnightblue" points="452.053,-1091.14 444.585,-1083.63 445.737,-1094.16 452.053,-1091.14"/>
</g>
<!-- Node11 -->
<g id="node11" class="node"><title>Node11</title>
<g id="a_node11"><a xlink:href="../../dc/d77/lstrlib_8c.html#ad24cfa73e5ad25ec99a1b48f0916471e" target="_top" xlink:title="add_value">
<polygon fill="none" stroke="red" points="894,-1073.5 894,-1092.5 956,-1092.5 956,-1073.5 894,-1073.5"/>
<text text-anchor="middle" x="925" y="-1080.5" font-family="Helvetica,sans-Serif" font-size="10.00">add_value</text>
</a>
</g>
</g>
<!-- Node3&#45;&gt;Node11 -->
<g id="edge12" class="edge"><title>Node3&#45;&gt;Node11</title>
<path fill="none" stroke="midnightblue" d="M446.444,-1093.11C456.076,-1120.36 477.959,-1169.37 516,-1190 658.585,-1267.32 859.872,-1130.74 911.536,-1092.52"/>
<polygon fill="midnightblue" stroke="midnightblue" points="449.731,-1091.9 443.246,-1083.52 443.091,-1094.12 449.731,-1091.9"/>
</g>
<!-- Node7&#45;&gt;Node8 -->
<g id="edge7" class="edge"><title>Node7&#45;&gt;Node8</title>
<path fill="none" stroke="midnightblue" d="M601.358,-998C616.598,-998 634.478,-998 650.137,-998"/>
<polygon fill="midnightblue" stroke="midnightblue" points="601.29,-994.5 591.29,-998 601.29,-1001.5 601.29,-994.5"/>
</g>
<!-- Node10&#45;&gt;Node11 -->
<g id="edge11" class="edge"><title>Node10&#45;&gt;Node11</title>
<path fill="none" stroke="midnightblue" d="M868.345,-1083C877.101,-1083 885.87,-1083 893.773,-1083"/>
<polygon fill="midnightblue" stroke="midnightblue" points="868.126,-1079.5 858.126,-1083 868.126,-1086.5 868.126,-1079.5"/>
</g>
<!-- Node13 -->
<g id="node13" class="node"><title>Node13</title>
<g id="a_node13"><a xlink:href="../../d0/d56/lauxlib_8c.html#a36c8f149b779f8c9a5c042ea9784d80a" target="_top" xlink:title="findfield">
<polygon fill="none" stroke="red" points="667,-513.5 667,-532.5 714,-532.5 714,-513.5 667,-513.5"/>
<text text-anchor="middle" x="690.5" y="-520.5" font-family="Helvetica,sans-Serif" font-size="10.00">findfield</text>
</a>
</g>
</g>
<!-- Node12&#45;&gt;Node13 -->
<g id="edge14" class="edge"><title>Node12&#45;&gt;Node13</title>
<path fill="none" stroke="midnightblue" d="M601.088,-479.376C605.466,-481.195 609.858,-483.094 614,-485 630.435,-492.563 633.845,-495.855 650,-504 656.251,-507.152 663.111,-510.492 669.334,-513.478"/>
<polygon fill="midnightblue" stroke="midnightblue" points="602.21,-476.054 591.627,-475.549 599.585,-482.543 602.21,-476.054"/>
</g>
<!-- Node14 -->
<g id="node14" class="node"><title>Node14</title>
<g id="a_node14"><a xlink:href="../../da/d29/lauxlib_8h.html#a664cc293d6c7a7dc67857fe95583a10e" target="_top" xlink:title="luaL_traceback">
<polygon fill="none" stroke="red" points="650,-475.5 650,-494.5 731,-494.5 731,-475.5 650,-475.5"/>
<text text-anchor="middle" x="690.5" y="-482.5" font-family="Helvetica,sans-Serif" font-size="10.00">luaL_traceback</text>
</a>
</g>
</g>
<!-- Node12&#45;&gt;Node14 -->
<g id="edge15" class="edge"><title>Node12&#45;&gt;Node14</title>
<path fill="none" stroke="midnightblue" d="M606.477,-472.227C620.392,-474.368 635.949,-476.761 649.801,-478.892"/>
<polygon fill="midnightblue" stroke="midnightblue" points="606.627,-468.709 596.211,-470.648 605.563,-475.628 606.627,-468.709"/>
</g>
<!-- Node15 -->
<g id="node15" class="node"><title>Node15</title>
<g id="a_node15"><a xlink:href="../../da/d29/lauxlib_8h.html#a994f73d7985c30672469a260d9e86ae6" target="_top" xlink:title="luaL_error">
<polygon fill="none" stroke="red" points="662,-722.5 662,-741.5 719,-741.5 719,-722.5 662,-722.5"/>
<text text-anchor="middle" x="690.5" y="-729.5" font-family="Helvetica,sans-Serif" font-size="10.00">luaL_error</text>
</a>
</g>
</g>
<!-- Node12&#45;&gt;Node15 -->
<g id="edge16" class="edge"><title>Node12&#45;&gt;Node15</title>
<path fill="none" stroke="midnightblue" d="M605.608,-478.094C608.694,-480.065 611.555,-482.351 614,-485 647.83,-521.661 679.887,-681.18 687.698,-722.301"/>
<polygon fill="midnightblue" stroke="midnightblue" points="606.957,-474.85 596.471,-473.332 603.721,-481.058 606.957,-474.85"/>
</g>
<!-- Node16 -->
<g id="node16" class="node"><title>Node16</title>
<g id="a_node16"><a xlink:href="../../d8/dd3/lbaselib_8c.html#a2ecfa987569d0b4c1063f3e204e42dd2" target="_top" xlink:title="luaB_error">
<polygon fill="none" stroke="black" points="661,-437.5 661,-456.5 720,-456.5 720,-437.5 661,-437.5"/>
<text text-anchor="middle" x="690.5" y="-444.5" font-family="Helvetica,sans-Serif" font-size="10.00">luaB_error</text>
</a>
</g>
</g>
<!-- Node12&#45;&gt;Node16 -->
<g id="edge19" class="edge"><title>Node12&#45;&gt;Node16</title>
<path fill="none" stroke="midnightblue" d="M606.332,-459.795C624.144,-457.055 644.67,-453.897 660.873,-451.404"/>
<polygon fill="midnightblue" stroke="midnightblue" points="605.563,-456.372 596.211,-461.352 606.627,-463.291 605.563,-456.372"/>
</g>
<!-- Node17 -->
<g id="node17" class="node"><title>Node17</title>
<g id="a_node17"><a xlink:href="../../df/d2d/lcorolib_8c.html#a777abb20385a69ce4787f72bd90375a7" target="_top" xlink:title="luaB_auxwrap">
<polygon fill="none" stroke="red" points="650.5,-399.5 650.5,-418.5 730.5,-418.5 730.5,-399.5 650.5,-399.5"/>
<text text-anchor="middle" x="690.5" y="-406.5" font-family="Helvetica,sans-Serif" font-size="10.00">luaB_auxwrap</text>
</a>
</g>
</g>
<!-- Node12&#45;&gt;Node17 -->
<g id="edge20" class="edge"><title>Node12&#45;&gt;Node17</title>
<path fill="none" stroke="midnightblue" d="M601.088,-452.624C605.466,-450.805 609.858,-448.906 614,-447 630.435,-439.437 633.845,-436.145 650,-428 656.251,-424.848 663.111,-421.508 669.334,-418.522"/>
<polygon fill="midnightblue" stroke="midnightblue" points="599.585,-449.457 591.627,-456.451 602.21,-455.946 599.585,-449.457"/>
</g>
<!-- Node15&#45;&gt;Node10 -->
<g id="edge18" class="edge"><title>Node15&#45;&gt;Node10</title>
<path fill="none" stroke="midnightblue" d="M727.419,-747.234C728.711,-748.404 729.914,-749.658 731,-751 752.308,-777.341 799.712,-1021.16 809.65,-1073.24"/>
<polygon fill="midnightblue" stroke="midnightblue" points="729.43,-744.37 719.258,-741.41 725.364,-750.068 729.43,-744.37"/>
</g>
<!-- Node15&#45;&gt;Node11 -->
<g id="edge17" class="edge"><title>Node15&#45;&gt;Node11</title>
<path fill="none" stroke="midnightblue" d="M725.724,-746.756C727.589,-748.075 729.366,-749.489 731,-751 840.65,-852.39 906.178,-1030.54 920.847,-1073.49"/>
<polygon fill="midnightblue" stroke="midnightblue" points="727.518,-743.75 717.149,-741.572 723.896,-749.741 727.518,-743.75"/>
</g>
<!-- Node19 -->
<g id="node19" class="node"><title>Node19</title>
<g id="a_node19"><a xlink:href="../../d8/d7a/lcode_8c.html#a961993a449bc9612ac966652646ffad6" target="_top" xlink:title="discharge2reg">
<polygon fill="none" stroke="red" points="527.5,-380.5 527.5,-399.5 602.5,-399.5 602.5,-380.5 527.5,-380.5"/>
<text text-anchor="middle" x="565" y="-387.5" font-family="Helvetica,sans-Serif" font-size="10.00">discharge2reg</text>
</a>
</g>
</g>
<!-- Node18&#45;&gt;Node19 -->
<g id="edge22" class="edge"><title>Node18&#45;&gt;Node19</title>
<path fill="none" stroke="midnightblue" d="M481.24,-364.535C498.04,-369.705 517.197,-375.599 532.846,-380.414"/>
<polygon fill="midnightblue" stroke="midnightblue" points="482.251,-361.185 471.664,-361.589 480.193,-367.875 482.251,-361.185"/>
</g>
<!-- Node20 -->
<g id="node20" class="node"><title>Node20</title>
<g id="a_node20"><a xlink:href="../../d8/d9c/lparser_8c.html#a18532c1a3a900cb8f3399b470c00daf0" target="_top" xlink:title="fornum">
<polygon fill="none" stroke="red" points="543,-342.5 543,-361.5 587,-361.5 587,-342.5 543,-342.5"/>
<text text-anchor="middle" x="565" y="-349.5" font-family="Helvetica,sans-Serif" font-size="10.00">fornum</text>
</a>
</g>
</g>
<!-- Node18&#45;&gt;Node20 -->
<g id="edge23" class="edge"><title>Node18&#45;&gt;Node20</title>
<path fill="none" stroke="midnightblue" d="M489.632,-352C508.104,-352 528.15,-352 542.77,-352"/>
<polygon fill="midnightblue" stroke="midnightblue" points="489.576,-348.5 479.576,-352 489.576,-355.5 489.576,-348.5"/>
</g>
<!-- Node21 -->
<g id="node21" class="node"><title>Node21</title>
<g id="a_node21"><a xlink:href="../../dd/d05/lcode_8h.html#a28ef529fcd27c07fb222181894abdf7e" target="_top" xlink:title="luaK_exp2RK">
<polygon fill="none" stroke="red" points="526.5,-304.5 526.5,-323.5 603.5,-323.5 603.5,-304.5 526.5,-304.5"/>
<text text-anchor="middle" x="565" y="-311.5" font-family="Helvetica,sans-Serif" font-size="10.00">luaK_exp2RK</text>
</a>
</g>
</g>
<!-- Node18&#45;&gt;Node21 -->
<g id="edge24" class="edge"><title>Node18&#45;&gt;Node21</title>
<path fill="none" stroke="midnightblue" d="M481.24,-339.465C498.04,-334.295 517.197,-328.401 532.846,-323.586"/>
<polygon fill="midnightblue" stroke="midnightblue" points="480.193,-336.125 471.664,-342.411 482.251,-342.815 480.193,-336.125"/>
</g>
<!-- Node23 -->
<g id="node23" class="node"><title>Node23</title>
<g id="a_node23"><a xlink:href="../../d8/d9c/lparser_8c.html#a773c2499cb8938683b25fc0234c1f017" target="_top" xlink:title="anchor_token">
<polygon fill="none" stroke="red" points="528.5,-228.5 528.5,-247.5 601.5,-247.5 601.5,-228.5 528.5,-228.5"/>
<text text-anchor="middle" x="565" y="-235.5" font-family="Helvetica,sans-Serif" font-size="10.00">anchor_token</text>
</a>
</g>
</g>
<!-- Node22&#45;&gt;Node23 -->
<g id="edge26" class="edge"><title>Node22&#45;&gt;Node23</title>
<path fill="none" stroke="midnightblue" d="M490.313,-226.664C503.098,-228.63 516.593,-230.707 528.491,-232.537"/>
<polygon fill="midnightblue" stroke="midnightblue" points="490.672,-223.178 480.256,-225.116 489.607,-230.096 490.672,-223.178"/>
</g>
<!-- Node24 -->
<g id="node24" class="node"><title>Node24</title>
<g id="a_node24"><a xlink:href="../../d8/d7a/llex_8c.html#a83faab0338a28c8b97ff1156725cc61b" target="_top" xlink:title="llex">
<polygon fill="none" stroke="red" points="675.5,-152.5 675.5,-171.5 705.5,-171.5 705.5,-152.5 675.5,-152.5"/>
<text text-anchor="middle" x="690.5" y="-159.5" font-family="Helvetica,sans-Serif" font-size="10.00">llex</text>
</a>
</g>
</g>
<!-- Node22&#45;&gt;Node24 -->
<g id="edge27" class="edge"><title>Node22&#45;&gt;Node24</title>
<path fill="none" stroke="midnightblue" d="M490.101,-208.562C524.851,-201.146 572.338,-190.802 614,-181 635.446,-175.954 660.19,-169.631 675.338,-165.703"/>
<polygon fill="midnightblue" stroke="midnightblue" points="489.253,-205.164 480.201,-210.67 490.711,-212.011 489.253,-205.164"/>
</g>
<!-- Node25 -->
<g id="node25" class="node"><title>Node25</title>
<g id="a_node25"><a xlink:href="../../d8/d9c/lparser_8c.html#a6d7842332c47d1f9dc803977228e4179" target="_top" xlink:title="new_localvarliteral_">
<polygon fill="none" stroke="black" points="516,-266.5 516,-285.5 614,-285.5 614,-266.5 516,-266.5"/>
<text text-anchor="middle" x="565" y="-273.5" font-family="Helvetica,sans-Serif" font-size="10.00">new_localvarliteral_</text>
</a>
</g>
</g>
<!-- Node22&#45;&gt;Node25 -->
<g id="edge28" class="edge"><title>Node22&#45;&gt;Node25</title>
<path fill="none" stroke="midnightblue" d="M467.52,-233.336C481.789,-240.719 499.682,-249.681 516,-257 523.196,-260.228 531.117,-263.481 538.414,-266.362"/>
<polygon fill="midnightblue" stroke="midnightblue" points="468.768,-230.04 458.283,-228.517 465.53,-236.246 468.768,-230.04"/>
</g>
<!-- Node26 -->
<g id="node26" class="node"><title>Node26</title>
<g id="a_node26"><a xlink:href="../../d8/d7a/llex_8c.html#a436a66722128b5e44db3efccaa922aa6" target="_top" xlink:title="read_long_string">
<polygon fill="none" stroke="black" points="522.5,-152.5 522.5,-171.5 607.5,-171.5 607.5,-152.5 522.5,-152.5"/>
<text text-anchor="middle" x="565" y="-159.5" font-family="Helvetica,sans-Serif" font-size="10.00">read_long_string</text>
</a>
</g>
</g>
<!-- Node22&#45;&gt;Node26 -->
<g id="edge29" class="edge"><title>Node22&#45;&gt;Node26</title>
<path fill="none" stroke="midnightblue" d="M470.308,-205.243C492.872,-194.828 523.29,-180.789 543.261,-171.572"/>
<polygon fill="midnightblue" stroke="midnightblue" points="468.784,-202.091 461.171,-209.459 471.717,-208.447 468.784,-202.091"/>
</g>
<!-- Node27 -->
<g id="node27" class="node"><title>Node27</title>
<g id="a_node27"><a xlink:href="../../d8/d7a/llex_8c.html#a5a2d8bb78e2b8e9ee25f901c811b2275" target="_top" xlink:title="read_string">
<polygon fill="none" stroke="black" points="534,-114.5 534,-133.5 596,-133.5 596,-114.5 534,-114.5"/>
<text text-anchor="middle" x="565" y="-121.5" font-family="Helvetica,sans-Serif" font-size="10.00">read_string</text>
</a>
</g>
</g>
<!-- Node22&#45;&gt;Node27 -->
<g id="edge31" class="edge"><title>Node22&#45;&gt;Node27</title>
<path fill="none" stroke="midnightblue" d="M454.331,-201.35C468.342,-184.457 491.405,-159.213 516,-143 521.612,-139.301 528.056,-136.138 534.362,-133.515"/>
<polygon fill="midnightblue" stroke="midnightblue" points="451.442,-199.357 447.869,-209.331 456.882,-203.762 451.442,-199.357"/>
</g>
<!-- Node26&#45;&gt;Node24 -->
<g id="edge30" class="edge"><title>Node26&#45;&gt;Node24</title>
<path fill="none" stroke="midnightblue" d="M617.882,-162C638.736,-162 661.131,-162 675.22,-162"/>
<polygon fill="midnightblue" stroke="midnightblue" points="617.812,-158.5 607.811,-162 617.811,-165.5 617.812,-158.5"/>
</g>
<!-- Node27&#45;&gt;Node24 -->
<g id="edge32" class="edge"><title>Node27&#45;&gt;Node24</title>
<path fill="none" stroke="midnightblue" d="M606.036,-136.319C629.773,-143.623 658.417,-152.436 675.227,-157.608"/>
<polygon fill="midnightblue" stroke="midnightblue" points="606.799,-132.892 596.211,-133.296 604.74,-139.582 606.799,-132.892"/>
</g>
<!-- Node29 -->
<g id="node29" class="node"><title>Node29</title>
<g id="a_node29"><a xlink:href="../../d2/d51/lobject_8h.html#a0d323372aa00f179e1c070d305f879f3" target="_top" xlink:title="luaO_pushvfstring">
<polygon fill="none" stroke="red" points="518,-418.5 518,-437.5 612,-437.5 612,-418.5 518,-418.5"/>
<text text-anchor="middle" x="565" y="-425.5" font-family="Helvetica,sans-Serif" font-size="10.00">luaO_pushvfstring</text>
</a>
</g>
</g>
<!-- Node28&#45;&gt;Node29 -->
<g id="edge34" class="edge"><title>Node28&#45;&gt;Node29</title>
<path fill="none" stroke="midnightblue" d="M473.471,-400.145C491.929,-405.824 514.807,-412.864 532.945,-418.445"/>
<polygon fill="midnightblue" stroke="midnightblue" points="474.317,-396.743 463.729,-397.148 472.258,-403.434 474.317,-396.743"/>
</g>
<!-- Node31 -->
<g id="node31" class="node"><title>Node31</title>
<g id="a_node31"><a xlink:href="../../da/dd2/lua_8h.html#a341ab0333f0da3035bb3a1266b3bb41e" target="_top" xlink:title="lua_pushstring">
<polygon fill="none" stroke="red" points="526,-912.5 526,-931.5 604,-931.5 604,-912.5 526,-912.5"/>
<text text-anchor="middle" x="565" y="-919.5" font-family="Helvetica,sans-Serif" font-size="10.00">lua_pushstring</text>
</a>
</g>
</g>
<!-- Node30&#45;&gt;Node31 -->
<g id="edge36" class="edge"><title>Node30&#45;&gt;Node31</title>
<path fill="none" stroke="midnightblue" d="M442.283,-713.79C446.975,-754.548 463.206,-848.584 516,-903 519.744,-906.86 524.37,-909.954 529.259,-912.429"/>
<polygon fill="midnightblue" stroke="midnightblue" points="445.758,-713.37 441.245,-703.784 438.796,-714.092 445.758,-713.37"/>
</g>
<!-- Node32 -->
<g id="node32" class="node"><title>Node32</title>
<g id="a_node32"><a xlink:href="../../da/dd2/lua_8h.html#a2b4a9010af0545ae0f822d7f081370d0" target="_top" xlink:title="lua_getglobal">
<polygon fill="none" stroke="red" points="528.5,-722.5 528.5,-741.5 601.5,-741.5 601.5,-722.5 528.5,-722.5"/>
<text text-anchor="middle" x="565" y="-729.5" font-family="Helvetica,sans-Serif" font-size="10.00">lua_getglobal</text>
</a>
</g>
</g>
<!-- Node30&#45;&gt;Node32 -->
<g id="edge38" class="edge"><title>Node30&#45;&gt;Node32</title>
<path fill="none" stroke="midnightblue" d="M479.519,-706.006C496.7,-711.292 516.609,-717.418 532.783,-722.395"/>
<polygon fill="midnightblue" stroke="midnightblue" points="480.355,-702.601 469.768,-703.005 478.296,-709.292 480.355,-702.601"/>
</g>
<!-- Node33 -->
<g id="node33" class="node"><title>Node33</title>
<g id="a_node33"><a xlink:href="../../da/dd2/lua_8h.html#ac3112bb28ba217adc46f13da8e9e6585" target="_top" xlink:title="lua_getfield">
<polygon fill="none" stroke="red" points="533.5,-684.5 533.5,-703.5 596.5,-703.5 596.5,-684.5 533.5,-684.5"/>
<text text-anchor="middle" x="565" y="-691.5" font-family="Helvetica,sans-Serif" font-size="10.00">lua_getfield</text>
</a>
</g>
</g>
<!-- Node30&#45;&gt;Node33 -->
<g id="edge39" class="edge"><title>Node30&#45;&gt;Node33</title>
<path fill="none" stroke="midnightblue" d="M480.082,-694C497.288,-694 517.143,-694 533.219,-694"/>
<polygon fill="midnightblue" stroke="midnightblue" points="479.768,-690.5 469.768,-694 479.768,-697.5 479.768,-690.5"/>
</g>
<!-- Node34 -->
<g id="node34" class="node"><title>Node34</title>
<g id="a_node34"><a xlink:href="../../da/dd2/lua_8h.html#ac0ebe7d753b81f6249dde8cf0b8ea997" target="_top" xlink:title="lua_setglobal">
<polygon fill="none" stroke="red" points="528.5,-646.5 528.5,-665.5 601.5,-665.5 601.5,-646.5 528.5,-646.5"/>
<text text-anchor="middle" x="565" y="-653.5" font-family="Helvetica,sans-Serif" font-size="10.00">lua_setglobal</text>
</a>
</g>
</g>
<!-- Node30&#45;&gt;Node34 -->
<g id="edge40" class="edge"><title>Node30&#45;&gt;Node34</title>
<path fill="none" stroke="midnightblue" d="M479.519,-681.994C496.7,-676.708 516.609,-670.582 532.783,-665.605"/>
<polygon fill="midnightblue" stroke="midnightblue" points="478.296,-678.708 469.768,-684.995 480.355,-685.399 478.296,-678.708"/>
</g>
<!-- Node35 -->
<g id="node35" class="node"><title>Node35</title>
<g id="a_node35"><a xlink:href="../../da/dd2/lua_8h.html#a9580a15c141cbe4bf2a63fea625c3878" target="_top" xlink:title="lua_setfield">
<polygon fill="none" stroke="red" points="533.5,-608.5 533.5,-627.5 596.5,-627.5 596.5,-608.5 533.5,-608.5"/>
<text text-anchor="middle" x="565" y="-615.5" font-family="Helvetica,sans-Serif" font-size="10.00">lua_setfield</text>
</a>
</g>
</g>
<!-- Node30&#45;&gt;Node35 -->
<g id="edge41" class="edge"><title>Node30&#45;&gt;Node35</title>
<path fill="none" stroke="midnightblue" d="M459.436,-677.411C474.134,-665.119 495.412,-648.565 516,-637 522.329,-633.445 529.459,-630.237 536.249,-627.513"/>
<polygon fill="midnightblue" stroke="midnightblue" points="456.942,-674.937 451.597,-684.085 461.48,-680.267 456.942,-674.937"/>
</g>
<!-- Node36 -->
<g id="node36" class="node"><title>Node36</title>
<g id="a_node36"><a xlink:href="../../d3/d08/ldo_8c.html#a23bb2b9896d6f5f8a90e4ad610c6901f" target="_top" xlink:title="resume_error">
<polygon fill="none" stroke="red" points="530,-532.5 530,-551.5 600,-551.5 600,-532.5 530,-532.5"/>
<text text-anchor="middle" x="565" y="-539.5" font-family="Helvetica,sans-Serif" font-size="10.00">resume_error</text>
</a>
</g>
</g>
<!-- Node30&#45;&gt;Node36 -->
<g id="edge42" class="edge"><title>Node30&#45;&gt;Node36</title>
<path fill="none" stroke="midnightblue" d="M446.824,-674.51C457.036,-645.898 479.756,-592.514 516,-561 520.329,-557.236 525.493,-554.167 530.804,-551.68"/>
<polygon fill="midnightblue" stroke="midnightblue" points="443.446,-673.571 443.52,-684.166 450.069,-675.837 443.446,-673.571"/>
</g>
<!-- Node37 -->
<g id="node37" class="node"><title>Node37</title>
<g id="a_node37"><a xlink:href="../../d8/d27/llex_8h.html#a5f7573e2f03006437bd01422a0e390df" target="_top" xlink:title="luaX_init">
<polygon fill="none" stroke="red" points="539.5,-494.5 539.5,-513.5 590.5,-513.5 590.5,-494.5 539.5,-494.5"/>
<text text-anchor="middle" x="565" y="-501.5" font-family="Helvetica,sans-Serif" font-size="10.00">luaX_init</text>
</a>
</g>
</g>
<!-- Node30&#45;&gt;Node37 -->
<g id="edge43" class="edge"><title>Node30&#45;&gt;Node37</title>
<path fill="none" stroke="midnightblue" d="M444.06,-674.504C451.414,-639.539 471.469,-565.833 516,-523 522.459,-516.787 531.197,-512.529 539.446,-509.646"/>
<polygon fill="midnightblue" stroke="midnightblue" points="440.608,-673.918 442.104,-684.407 447.476,-675.275 440.608,-673.918"/>
</g>
<!-- Node38 -->
<g id="node38" class="node"><title>Node38</title>
<g id="a_node38"><a xlink:href="../../d8/d27/llex_8h.html#aac9c3f80c74f7d861348e74f5fda1452" target="_top" xlink:title="luaX_setinput">
<polygon fill="none" stroke="black" points="528,-570.5 528,-589.5 602,-589.5 602,-570.5 528,-570.5"/>
<text text-anchor="middle" x="565" y="-577.5" font-family="Helvetica,sans-Serif" font-size="10.00">luaX_setinput</text>
</a>
</g>
</g>
<!-- Node30&#45;&gt;Node38 -->
<g id="edge44" class="edge"><title>Node30&#45;&gt;Node38</title>
<path fill="none" stroke="midnightblue" d="M450.999,-675.603C463.874,-654.503 487.531,-620.112 516,-599 521.039,-595.263 526.912,-592.149 532.785,-589.597"/>
<polygon fill="midnightblue" stroke="midnightblue" points="447.952,-673.879 445.864,-684.266 453.974,-677.449 447.952,-673.879"/>
</g>
<!-- Node39 -->
<g id="node39" class="node"><title>Node39</title>
<g id="a_node39"><a xlink:href="../../d7/d09/lparser_8h.html#af454a43b1cd59d15997af813448e3dbf" target="_top" xlink:title="luaY_parser">
<polygon fill="none" stroke="red" points="656.5,-760.5 656.5,-779.5 724.5,-779.5 724.5,-760.5 656.5,-760.5"/>
<text text-anchor="middle" x="690.5" y="-767.5" font-family="Helvetica,sans-Serif" font-size="10.00">luaY_parser</text>
</a>
</g>
</g>
<!-- Node30&#45;&gt;Node39 -->
<g id="edge48" class="edge"><title>Node30&#45;&gt;Node39</title>
<path fill="none" stroke="midnightblue" d="M457.181,-710.872C471.47,-724.192 493.286,-741.984 516,-751 562.189,-769.335 620.403,-771.976 656.279,-771.506"/>
<polygon fill="midnightblue" stroke="midnightblue" points="459.316,-708.068 449.688,-703.646 454.457,-713.107 459.316,-708.068"/>
</g>
<!-- Node40 -->
<g id="node40" class="node"><title>Node40</title>
<g id="a_node40"><a xlink:href="../../d8/d9c/lparser_8c.html#ae8d2e6222dfdaa75cf6fb0c40da47755" target="_top" xlink:title="breaklabel">
<polygon fill="none" stroke="red" points="534.5,-798.5 534.5,-817.5 595.5,-817.5 595.5,-798.5 534.5,-798.5"/>
<text text-anchor="middle" x="565" y="-805.5" font-family="Helvetica,sans-Serif" font-size="10.00">breaklabel</text>
</a>
</g>
</g>
<!-- Node30&#45;&gt;Node40 -->
<g id="edge46" class="edge"><title>Node30&#45;&gt;Node40</title>
<path fill="none" stroke="midnightblue" d="M452.141,-711.861C465.641,-731.504 489.466,-763.055 516,-784 523.167,-789.657 531.881,-794.5 539.907,-798.323"/>
<polygon fill="midnightblue" stroke="midnightblue" points="455.015,-709.863 446.534,-703.513 449.205,-713.766 455.015,-709.863"/>
</g>
<!-- Node41 -->
<g id="node41" class="node"><title>Node41</title>
<g id="a_node41"><a xlink:href="../../d8/d9c/lparser_8c.html#a1b148e344a9d7e35aba2da4a0a3d7c9d" target="_top" xlink:title="gotostat">
<polygon fill="none" stroke="red" points="540,-874.5 540,-893.5 590,-893.5 590,-874.5 540,-874.5"/>
<text text-anchor="middle" x="565" y="-881.5" font-family="Helvetica,sans-Serif" font-size="10.00">gotostat</text>
</a>
</g>
</g>
<!-- Node30&#45;&gt;Node41 -->
<g id="edge47" class="edge"><title>Node30&#45;&gt;Node41</title>
<path fill="none" stroke="midnightblue" d="M444.06,-713.496C451.414,-748.461 471.469,-822.167 516,-865 522.589,-871.337 531.547,-875.641 539.941,-878.525"/>
<polygon fill="midnightblue" stroke="midnightblue" points="447.476,-712.725 442.104,-703.593 440.608,-714.082 447.476,-712.725"/>
</g>
<!-- Node42 -->
<g id="node42" class="node"><title>Node42</title>
<g id="a_node42"><a xlink:href="../../da/de2/ltm_8h.html#adadf25053747df0beeec91a8836b2dfc" target="_top" xlink:title="luaT_init">
<polygon fill="none" stroke="red" points="540,-836.5 540,-855.5 590,-855.5 590,-836.5 540,-836.5"/>
<text text-anchor="middle" x="565" y="-843.5" font-family="Helvetica,sans-Serif" font-size="10.00">luaT_init</text>
</a>
</g>
</g>
<!-- Node30&#45;&gt;Node42 -->
<g id="edge49" class="edge"><title>Node30&#45;&gt;Node42</title>
<path fill="none" stroke="midnightblue" d="M446.824,-713.49C457.036,-742.102 479.756,-795.486 516,-827 522.763,-832.881 531.567,-837.066 539.785,-839.984"/>
<polygon fill="midnightblue" stroke="midnightblue" points="450.069,-712.163 443.52,-703.834 443.446,-714.429 450.069,-712.163"/>
</g>
<!-- Node31&#45;&gt;Node8 -->
<g id="edge37" class="edge"><title>Node31&#45;&gt;Node8</title>
<path fill="none" stroke="midnightblue" d="M603.084,-935.501C606.838,-937.215 610.539,-939.056 614,-941 638.629,-954.835 664.245,-975.81 678.403,-988.085"/>
<polygon fill="midnightblue" stroke="midnightblue" points="604.322,-932.224 593.751,-931.513 601.572,-938.661 604.322,-932.224"/>
</g>
<!-- Node38&#45;&gt;Node39 -->
<g id="edge45" class="edge"><title>Node38&#45;&gt;Node39</title>
<path fill="none" stroke="midnightblue" d="M610.686,-595.657C611.864,-596.701 612.974,-597.814 614,-599 659.423,-651.503 606.481,-696.909 650,-751 653.053,-754.795 657.048,-757.879 661.324,-760.372"/>
<polygon fill="midnightblue" stroke="midnightblue" points="612.317,-592.53 602.101,-589.72 608.335,-598.287 612.317,-592.53"/>
</g>
<!-- Node44 -->
<g id="node44" class="node"><title>Node44</title>
<g id="a_node44"><a xlink:href="../../de/d2f/lundump_8c.html#a1854dcefef99e90599873a480c49da5f" target="_top" xlink:title="LoadConstants">
<polygon fill="none" stroke="red" points="523.5,-76.5 523.5,-95.5 606.5,-95.5 606.5,-76.5 523.5,-76.5"/>
<text text-anchor="middle" x="565" y="-83.5" font-family="Helvetica,sans-Serif" font-size="10.00">LoadConstants</text>
</a>
</g>
</g>
<!-- Node43&#45;&gt;Node44 -->
<g id="edge51" class="edge"><title>Node43&#45;&gt;Node44</title>
<path fill="none" stroke="midnightblue" d="M480.789,-86C494.443,-86 509.696,-86 523.376,-86"/>
<polygon fill="midnightblue" stroke="midnightblue" points="480.712,-82.5001 470.711,-86 480.711,-89.5001 480.712,-82.5001"/>
</g>
<!-- Node45 -->
<g id="node45" class="node"><title>Node45</title>
<g id="a_node45"><a xlink:href="../../de/d2f/lundump_8c.html#a89f9807f8a7395e26b0bce7b7f208d20" target="_top" xlink:title="LoadDebug">
<polygon fill="none" stroke="red" points="531,-38.5 531,-57.5 599,-57.5 599,-38.5 531,-38.5"/>
<text text-anchor="middle" x="565" y="-45.5" font-family="Helvetica,sans-Serif" font-size="10.00">LoadDebug</text>
</a>
</g>
</g>
<!-- Node43&#45;&gt;Node45 -->
<g id="edge52" class="edge"><title>Node43&#45;&gt;Node45</title>
<path fill="none" stroke="midnightblue" d="M480.377,-73.7302C497.369,-68.5017 516.9,-62.4923 532.811,-57.5967"/>
<polygon fill="midnightblue" stroke="midnightblue" points="479.24,-70.418 470.711,-76.7042 481.299,-77.1085 479.24,-70.418"/>
</g>
<!-- Node47 -->
<g id="node47" class="node"><title>Node47</title>
<g id="a_node47"><a xlink:href="../../da/dd2/lua_8h.html#aabf845b1c7ffc0462988b67ba83955cf" target="_top" xlink:title="lua_tolstring">
<polygon fill="none" stroke="red" points="532.5,-0.5 532.5,-19.5 597.5,-19.5 597.5,-0.5 532.5,-0.5"/>
<text text-anchor="middle" x="565" y="-7.5" font-family="Helvetica,sans-Serif" font-size="10.00">lua_tolstring</text>
</a>
</g>
</g>
<!-- Node46&#45;&gt;Node47 -->
<g id="edge54" class="edge"><title>Node46&#45;&gt;Node47</title>
<path fill="none" stroke="midnightblue" d="M485.244,-22.1164C500.899,-19.7078 518.137,-17.0559 532.484,-14.8487"/>
<polygon fill="midnightblue" stroke="midnightblue" points="484.582,-18.6769 475.23,-23.6569 485.646,-25.5955 484.582,-18.6769"/>
</g>
<!-- Node48&#45;&gt;Node12 -->
<g id="edge56" class="edge"><title>Node48&#45;&gt;Node12</title>
<path fill="none" stroke="midnightblue" d="M481.391,-440.582C498.462,-445.835 517.944,-451.829 533.7,-456.677"/>
<polygon fill="midnightblue" stroke="midnightblue" points="482.251,-437.185 471.664,-437.589 480.193,-443.875 482.251,-437.185"/>
</g>
<!-- Node48&#45;&gt;Node29 -->
<g id="edge57" class="edge"><title>Node48&#45;&gt;Node29</title>
<path fill="none" stroke="midnightblue" d="M484.347,-428C495.191,-428 506.841,-428 517.794,-428"/>
<polygon fill="midnightblue" stroke="midnightblue" points="484.247,-424.5 474.247,-428 484.247,-431.5 484.247,-424.5"/>
</g>
<!-- Node50 -->
<g id="node50" class="node"><title>Node50</title>
<g id="a_node50"><a xlink:href="../../d1/d2f/lstring_8c.html#a9b2c32c59a280de24f20df1c7f0433a1" target="_top" xlink:title="internshrstr">
<polygon fill="none" stroke="black" points="195,-361.5 195,-380.5 256,-380.5 256,-361.5 195,-361.5"/>
<text text-anchor="middle" x="225.5" y="-368.5" font-family="Helvetica,sans-Serif" font-size="10.00">internshrstr</text>
</a>
</g>
</g>
<!-- Node49&#45;&gt;Node50 -->
<g id="edge59" class="edge"><title>Node49&#45;&gt;Node50</title>
<path fill="none" stroke="midnightblue" d="M169.206,-371C177.755,-371 186.7,-371 194.842,-371"/>
<polygon fill="midnightblue" stroke="midnightblue" points="169.053,-367.5 159.053,-371 169.053,-374.5 169.053,-367.5"/>
</g>
<!-- Node50&#45;&gt;Node2 -->
<g id="edge60" class="edge"><title>Node50&#45;&gt;Node2</title>
<path fill="none" stroke="midnightblue" d="M266.257,-378.554C274.697,-380.157 283.543,-381.838 291.778,-383.403"/>
<polygon fill="midnightblue" stroke="midnightblue" points="266.71,-375.077 256.233,-376.649 265.403,-381.954 266.71,-375.077"/>
</g>
</g>
</svg>
