<?xml version="1.0" encoding="UTF-8" standalone="no"?>
<!DOCTYPE svg PUBLIC "-//W3C//DTD SVG 1.1//EN"
 "http://www.w3.org/Graphics/SVG/1.1/DTD/svg11.dtd">
<!-- Generated by graphviz version 2.38.0 (20140413.2041)
 -->
<!-- Title: b_shift Pages: 1 -->
<svg width="141pt" height="104pt"
 viewBox="0.00 0.00 141.00 104.00" xmlns="http://www.w3.org/2000/svg" xmlns:xlink="http://www.w3.org/1999/xlink">
<g id="graph0" class="graph" transform="scale(1 1) rotate(0) translate(4 100)">
<title>b_shift</title>
<!-- Node1 -->
<g id="node1" class="node"><title>Node1</title>
<polygon fill="#bfbfbf" stroke="black" points="0,-38.5 0,-57.5 44,-57.5 44,-38.5 0,-38.5"/>
<text text-anchor="middle" x="22" y="-45.5" font-family="Helvetica,sans-Serif" font-size="10.00">b_shift</text>
</g>
<!-- Node2 -->
<g id="node2" class="node"><title>Node2</title>
<g id="a_node2"><a xlink:href="../../df/d02/lbitlib_8c.html#acca86f3755b177ed7e747bba6b3008b5" target="_top" xlink:title="b_arshift">
<polygon fill="none" stroke="black" points="80,-76.5 80,-95.5 133,-95.5 133,-76.5 80,-76.5"/>
<text text-anchor="middle" x="106.5" y="-83.5" font-family="Helvetica,sans-Serif" font-size="10.00">b_arshift</text>
</a>
</g>
</g>
<!-- Node1&#45;&gt;Node2 -->
<g id="edge1" class="edge"><title>Node1&#45;&gt;Node2</title>
<path fill="none" stroke="midnightblue" d="M53.0779,-61.8541C63.5741,-66.6887 75.1141,-72.0041 84.6884,-76.4141"/>
<polygon fill="midnightblue" stroke="midnightblue" points="54.3653,-58.5937 43.8182,-57.589 51.4368,-64.9516 54.3653,-58.5937"/>
</g>
<!-- Node3 -->
<g id="node3" class="node"><title>Node3</title>
<g id="a_node3"><a xlink:href="../../df/d02/lbitlib_8c.html#aa6a16d9f08e8da5c20ff62b936df66fe" target="_top" xlink:title="b_lshift">
<polygon fill="none" stroke="black" points="83.5,-38.5 83.5,-57.5 129.5,-57.5 129.5,-38.5 83.5,-38.5"/>
<text text-anchor="middle" x="106.5" y="-45.5" font-family="Helvetica,sans-Serif" font-size="10.00">b_lshift</text>
</a>
</g>
</g>
<!-- Node1&#45;&gt;Node3 -->
<g id="edge2" class="edge"><title>Node1&#45;&gt;Node3</title>
<path fill="none" stroke="midnightblue" d="M54.3573,-48C64.0575,-48 74.5334,-48 83.4627,-48"/>
<polygon fill="midnightblue" stroke="midnightblue" points="54.2458,-44.5001 44.2458,-48 54.2458,-51.5001 54.2458,-44.5001"/>
</g>
<!-- Node4 -->
<g id="node4" class="node"><title>Node4</title>
<g id="a_node4"><a xlink:href="../../df/d02/lbitlib_8c.html#a6ba4b7c37ff1199bb3f8c024b5b7880e" target="_top" xlink:title="b_rshift">
<polygon fill="none" stroke="black" points="83,-0.5 83,-19.5 130,-19.5 130,-0.5 83,-0.5"/>
<text text-anchor="middle" x="106.5" y="-7.5" font-family="Helvetica,sans-Serif" font-size="10.00">b_rshift</text>
</a>
</g>
</g>
<!-- Node1&#45;&gt;Node4 -->
<g id="edge3" class="edge"><title>Node1&#45;&gt;Node4</title>
<path fill="none" stroke="midnightblue" d="M53.0779,-34.1459C63.5741,-29.3113 75.1141,-23.9959 84.6884,-19.5859"/>
<polygon fill="midnightblue" stroke="midnightblue" points="51.4368,-31.0484 43.8182,-38.411 54.3653,-37.4063 51.4368,-31.0484"/>
</g>
</g>
</svg>
