<?xml version="1.0" encoding="UTF-8" standalone="no"?>
<!DOCTYPE svg PUBLIC "-//W3C//DTD SVG 1.1//EN"
 "http://www.w3.org/Graphics/SVG/1.1/DTD/svg11.dtd">
<!-- Generated by graphviz version 2.38.0 (20140413.2041)
 -->
<!-- Title: checkupval Pages: 1 -->
<svg width="191pt" height="66pt"
 viewBox="0.00 0.00 191.00 66.00" xmlns="http://www.w3.org/2000/svg" xmlns:xlink="http://www.w3.org/1999/xlink">
<g id="graph0" class="graph" transform="scale(1 1) rotate(0) translate(4 62)">
<title>checkupval</title>
<!-- Node1 -->
<g id="node1" class="node"><title>Node1</title>
<polygon fill="#bfbfbf" stroke="black" points="0,-19.5 0,-38.5 65,-38.5 65,-19.5 0,-19.5"/>
<text text-anchor="middle" x="32.5" y="-26.5" font-family="Helvetica,sans-Serif" font-size="10.00">checkupval</text>
</g>
<!-- Node2 -->
<g id="node2" class="node"><title>Node2</title>
<g id="a_node2"><a xlink:href="../../d8/d97/ldblib_8c.html#ade86533c6188a941aae1be4396a20393" target="_top" xlink:title="db_upvalueid">
<polygon fill="none" stroke="black" points="105,-38.5 105,-57.5 179,-57.5 179,-38.5 105,-38.5"/>
<text text-anchor="middle" x="142" y="-45.5" font-family="Helvetica,sans-Serif" font-size="10.00">db_upvalueid</text>
</a>
</g>
</g>
<!-- Node1&#45;&gt;Node2 -->
<g id="edge1" class="edge"><title>Node1&#45;&gt;Node2</title>
<path fill="none" stroke="midnightblue" d="M75.0722,-36.3476C84.8238,-38.0712 95.1398,-39.8945 104.643,-41.5741"/>
<polygon fill="midnightblue" stroke="midnightblue" points="75.6287,-32.8918 65.1721,-34.5979 74.4103,-39.785 75.6287,-32.8918"/>
</g>
<!-- Node3 -->
<g id="node3" class="node"><title>Node3</title>
<g id="a_node3"><a xlink:href="../../d8/d97/ldblib_8c.html#acd80bdb3262b3580eb6955f6f3eb3549" target="_top" xlink:title="db_upvaluejoin">
<polygon fill="none" stroke="black" points="101,-0.5 101,-19.5 183,-19.5 183,-0.5 101,-0.5"/>
<text text-anchor="middle" x="142" y="-7.5" font-family="Helvetica,sans-Serif" font-size="10.00">db_upvaluejoin</text>
</a>
</g>
</g>
<!-- Node1&#45;&gt;Node3 -->
<g id="edge2" class="edge"><title>Node1&#45;&gt;Node3</title>
<path fill="none" stroke="midnightblue" d="M75.1646,-21.636C83.5746,-20.1496 92.4008,-18.5896 100.761,-17.1121"/>
<polygon fill="midnightblue" stroke="midnightblue" points="74.4103,-18.215 65.1721,-23.4021 75.6287,-25.1082 74.4103,-18.215"/>
</g>
</g>
</svg>
