<?xml version="1.0" encoding="UTF-8" standalone="no"?>
<!DOCTYPE svg PUBLIC "-//W3C//DTD SVG 1.1//EN"
 "http://www.w3.org/Graphics/SVG/1.1/DTD/svg11.dtd">
<!-- Generated by graphviz version 2.38.0 (20140413.2041)
 -->
<!-- Title: lookupKey Pages: 1 -->
<svg width="412pt" height="97pt"
 viewBox="0.00 0.00 412.00 96.50" xmlns="http://www.w3.org/2000/svg" xmlns:xlink="http://www.w3.org/1999/xlink">
<g id="graph0" class="graph" transform="scale(1 1) rotate(0) translate(4 92.5)">
<title>lookupKey</title>
<!-- Node1 -->
<g id="node1" class="node"><title>Node1</title>
<polygon fill="#bfbfbf" stroke="black" points="0,-19.5 0,-38.5 63,-38.5 63,-19.5 0,-19.5"/>
<text text-anchor="middle" x="31.5" y="-26.5" font-family="Helvetica,sans-Serif" font-size="10.00">lookupKey</text>
</g>
<!-- Node2 -->
<g id="node2" class="node"><title>Node2</title>
<g id="a_node2"><a xlink:href="../../dc/de7/interface_kensho_lua_wrapper.html#a1989098903d831e652ed79f4c59819c4" target="_top" xlink:title="&#45;[KenshoLuaWrapper\l finalValue]">
<polygon fill="none" stroke="black" points="99,-58 99,-88 211,-88 211,-58 99,-58"/>
<text text-anchor="start" x="107" y="-76" font-family="Helvetica,sans-Serif" font-size="10.00">&#45;[KenshoLuaWrapper</text>
<text text-anchor="middle" x="155" y="-65" font-family="Helvetica,sans-Serif" font-size="10.00"> finalValue]</text>
</a>
</g>
</g>
<!-- Node1&#45;&gt;Node2 -->
<g id="edge1" class="edge"><title>Node1&#45;&gt;Node2</title>
<path fill="none" stroke="midnightblue" d="M68.4907,-42.0337C82.2813,-47.0278 98.1257,-52.7657 112.399,-57.9346"/>
<polygon fill="midnightblue" stroke="midnightblue" points="69.4579,-38.6616 58.8637,-38.5473 67.0744,-45.2433 69.4579,-38.6616"/>
</g>
<!-- Node3 -->
<g id="node3" class="node"><title>Node3</title>
<g id="a_node3"><a xlink:href="../../d1/dc2/_kensho_lua_wrapper_8m.html#ae20c13d330105f8c52090bfb26cd13bc" target="_top" xlink:title="pushLuaValue">
<polygon fill="none" stroke="black" points="115,-19.5 115,-38.5 195,-38.5 195,-19.5 115,-19.5"/>
<text text-anchor="middle" x="155" y="-26.5" font-family="Helvetica,sans-Serif" font-size="10.00">pushLuaValue</text>
</a>
</g>
</g>
<!-- Node1&#45;&gt;Node3 -->
<g id="edge2" class="edge"><title>Node1&#45;&gt;Node3</title>
<path fill="none" stroke="midnightblue" d="M73.4523,-29C86.7358,-29 101.437,-29 114.605,-29"/>
<polygon fill="midnightblue" stroke="midnightblue" points="73.1596,-25.5001 63.1596,-29 73.1595,-32.5001 73.1596,-25.5001"/>
</g>
<!-- Node5 -->
<g id="node5" class="node"><title>Node5</title>
<g id="a_node5"><a xlink:href="../../d1/dc2/_kensho_lua_wrapper_8m.html#a93fd0d7971f83880a0e78fa9135be350" target="_top" xlink:title="Push an NSObject&#45;derived value onto the stack. ">
<polygon fill="none" stroke="black" points="340,-0.5 340,-19.5 404,-19.5 404,-0.5 340,-0.5"/>
<text text-anchor="middle" x="372" y="-7.5" font-family="Helvetica,sans-Serif" font-size="10.00">pushValue</text>
</a>
</g>
</g>
<!-- Node1&#45;&gt;Node5 -->
<g id="edge5" class="edge"><title>Node1&#45;&gt;Node5</title>
<path fill="none" stroke="midnightblue" d="M68.9966,-16.6027C78.6388,-13.873 89.1155,-11.3844 99,-10 185.517,2.11709 289.037,-3.2788 339.803,-7.20388"/>
<polygon fill="midnightblue" stroke="midnightblue" points="67.8887,-13.2808 59.3102,-19.4986 69.8938,-19.9875 67.8887,-13.2808"/>
</g>
<!-- Node4 -->
<g id="node4" class="node"><title>Node4</title>
<g id="a_node4"><a xlink:href="../../d1/dc2/_kensho_lua_wrapper_8m.html#a2ec319dc108404370bd6dfcd0268d45b" target="_top" xlink:title="callValue">
<polygon fill="none" stroke="black" points="247,-19.5 247,-38.5 304,-38.5 304,-19.5 247,-19.5"/>
<text text-anchor="middle" x="275.5" y="-26.5" font-family="Helvetica,sans-Serif" font-size="10.00">callValue</text>
</a>
</g>
</g>
<!-- Node3&#45;&gt;Node4 -->
<g id="edge3" class="edge"><title>Node3&#45;&gt;Node4</title>
<path fill="none" stroke="midnightblue" d="M205.239,-29C219.379,-29 234.301,-29 246.66,-29"/>
<polygon fill="midnightblue" stroke="midnightblue" points="205.13,-25.5001 195.13,-29 205.13,-32.5001 205.13,-25.5001"/>
</g>
<!-- Node4&#45;&gt;Node5 -->
<g id="edge4" class="edge"><title>Node4&#45;&gt;Node5</title>
<path fill="none" stroke="midnightblue" d="M313.911,-21.4782C322.52,-19.7473 331.585,-17.9248 339.893,-16.2544"/>
<polygon fill="midnightblue" stroke="midnightblue" points="313.201,-18.0508 304.087,-23.4533 314.581,-24.9135 313.201,-18.0508"/>
</g>
</g>
</svg>
