<?xml version="1.0" encoding="UTF-8" standalone="no"?>
<!DOCTYPE svg PUBLIC "-//W3C//DTD SVG 1.1//EN"
 "http://www.w3.org/Graphics/SVG/1.1/DTD/svg11.dtd">
<!-- Generated by graphviz version 2.34.0 (20131008.0448)
 -->
<!-- Title: pushValue Pages: 1 -->
<svg width="782pt" height="154pt"
 viewBox="0.00 0.00 782.00 154.00" xmlns="http://www.w3.org/2000/svg" xmlns:xlink="http://www.w3.org/1999/xlink">
<g id="graph0" class="graph" transform="scale(1 1) rotate(0) translate(4 150)">
<title>pushValue</title>
<!-- Node1 -->
<g id="node1" class="node"><title>Node1</title>
<polygon fill="#bfbfbf" stroke="black" points="0.379,-57 0.379,-77 63.621,-77 63.621,-57 0.379,-57"/>
<text text-anchor="middle" x="32" y="-64" font-family="Helvetica,sans-Serif" font-size="10.00">pushValue</text>
</g>
<!-- Node2 -->
<g id="node2" class="node"><title>Node2</title>
<g id="a_node2"><a xlink:href="../../d1/dc2/_kensho_lua_wrapper_8m.html#ad10bf0ff4feac9642e7477e282be41fe" target="_top" xlink:title="lookupKey">
<polygon fill="none" stroke="black" points="100.659,-57 100.659,-77 163.341,-77 163.341,-57 100.659,-57"/>
<text text-anchor="middle" x="132" y="-64" font-family="Helvetica,sans-Serif" font-size="10.00">lookupKey</text>
</a>
</g>
</g>
<!-- Node1&#45;&gt;Node2 -->
<g id="edge1" class="edge"><title>Node1&#45;&gt;Node2</title>
<path fill="none" stroke="midnightblue" d="M73.9013,-60.3326C82.7617,-60.1503 91.9855,-60.2697 100.37,-60.6906"/>
<polygon fill="midnightblue" stroke="midnightblue" points="73.6115,-56.8405 63.7389,-60.6852 73.8543,-63.8363 73.6115,-56.8405"/>
</g>
<!-- Node2&#45;&gt;Node1 -->
<g id="edge9" class="edge"><title>Node2&#45;&gt;Node1</title>
<path fill="none" stroke="midnightblue" d="M90.2139,-73.665C81.3566,-73.8499 72.1308,-73.7332 63.7389,-73.3148"/>
<polygon fill="midnightblue" stroke="midnightblue" points="90.4988,-77.1573 100.37,-73.3094 90.2538,-70.1615 90.4988,-77.1573"/>
</g>
<!-- Node3 -->
<g id="node3" class="node"><title>Node3</title>
<g id="a_node3"><a xlink:href="../../dc/de7/interface_kensho_lua_wrapper.html#a7d10aa0242861cdd109d3da9383882a2" target="_top" xlink:title="&#45;[KenshoLuaWrapper\l evaluate]">
<polygon fill="none" stroke="black" points="200.488,-51 200.488,-83 311.512,-83 311.512,-51 200.488,-51"/>
<text text-anchor="start" x="208.488" y="-70" font-family="Helvetica,sans-Serif" font-size="10.00">&#45;[KenshoLuaWrapper</text>
<text text-anchor="middle" x="256" y="-58" font-family="Helvetica,sans-Serif" font-size="10.00"> evaluate]</text>
</a>
</g>
</g>
<!-- Node2&#45;&gt;Node3 -->
<g id="edge2" class="edge"><title>Node2&#45;&gt;Node3</title>
<path fill="none" stroke="midnightblue" d="M173.548,-67C182.099,-67 191.257,-67 200.233,-67"/>
<polygon fill="midnightblue" stroke="midnightblue" points="173.471,-63.5001 163.471,-67 173.471,-70.5001 173.471,-63.5001"/>
</g>
<!-- Node4 -->
<g id="node4" class="node"><title>Node4</title>
<g id="a_node4"><a xlink:href="../../dc/de7/interface_kensho_lua_wrapper.html#af6db46358f8858a18b55388aa3af211d" target="_top" xlink:title="&#45;[KenshoLuaWrapper\l initWithKensho:context\l:code:]">
<polygon fill="none" stroke="black" points="347.765,-102 347.765,-146 468.235,-146 468.235,-102 347.765,-102"/>
<text text-anchor="start" x="355.765" y="-133" font-family="Helvetica,sans-Serif" font-size="10.00">&#45;[KenshoLuaWrapper</text>
<text text-anchor="start" x="355.765" y="-121" font-family="Helvetica,sans-Serif" font-size="10.00"> initWithKensho:context</text>
<text text-anchor="middle" x="408" y="-109" font-family="Helvetica,sans-Serif" font-size="10.00">:code:]</text>
</a>
</g>
</g>
<!-- Node3&#45;&gt;Node4 -->
<g id="edge3" class="edge"><title>Node3&#45;&gt;Node4</title>
<path fill="none" stroke="midnightblue" d="M308.838,-86.6985C321.762,-91.6096 335.703,-96.9073 348.907,-101.925"/>
<polygon fill="midnightblue" stroke="midnightblue" points="309.774,-83.3099 299.183,-83.0294 307.287,-89.8534 309.774,-83.3099"/>
</g>
<!-- Node5 -->
<g id="node5" class="node"><title>Node5</title>
<g id="a_node5"><a xlink:href="../../dc/de7/interface_kensho_lua_wrapper.html#a5555e0979799446611baee70104555c6" target="_top" xlink:title="&#45;[KenshoLuaWrapper\l evaluate:]">
<polygon fill="none" stroke="black" points="352.488,-51 352.488,-83 463.512,-83 463.512,-51 352.488,-51"/>
<text text-anchor="start" x="360.488" y="-70" font-family="Helvetica,sans-Serif" font-size="10.00">&#45;[KenshoLuaWrapper</text>
<text text-anchor="middle" x="408" y="-58" font-family="Helvetica,sans-Serif" font-size="10.00"> evaluate:]</text>
</a>
</g>
</g>
<!-- Node3&#45;&gt;Node5 -->
<g id="edge4" class="edge"><title>Node3&#45;&gt;Node5</title>
<path fill="none" stroke="midnightblue" d="M321.712,-67C331.963,-67 342.475,-67 352.463,-67"/>
<polygon fill="midnightblue" stroke="midnightblue" points="321.578,-63.5001 311.578,-67 321.578,-70.5001 321.578,-63.5001"/>
</g>
<!-- Node8 -->
<g id="node8" class="node"><title>Node8</title>
<g id="a_node8"><a xlink:href="../../dc/de7/interface_kensho_lua_wrapper.html#a0bb5e125d727942726d707f8b59009dc" target="_top" xlink:title="&#45;[KenshoLuaWrapper\l observableUpdated:]">
<polygon fill="none" stroke="black" points="352.484,-0 352.484,-32 463.516,-32 463.516,-0 352.484,-0"/>
<text text-anchor="start" x="360.484" y="-19" font-family="Helvetica,sans-Serif" font-size="10.00">&#45;[KenshoLuaWrapper</text>
<text text-anchor="middle" x="408" y="-7" font-family="Helvetica,sans-Serif" font-size="10.00"> observableUpdated:]</text>
</a>
</g>
</g>
<!-- Node3&#45;&gt;Node8 -->
<g id="edge8" class="edge"><title>Node3&#45;&gt;Node8</title>
<path fill="none" stroke="midnightblue" d="M314.194,-47.554C329.271,-42.4279 345.367,-36.9554 359.848,-32.0317"/>
<polygon fill="midnightblue" stroke="midnightblue" points="312.802,-44.3305 304.461,-50.8633 315.055,-50.9579 312.802,-44.3305"/>
</g>
<!-- Node6 -->
<g id="node6" class="node"><title>Node6</title>
<g id="a_node6"><a xlink:href="../../da/d0b/interface_kensho.html#a07b4d14db676108e1a94a1f10e100fb4" target="_top" xlink:title="&#45;[Kensho bindToView\l:context:]">
<polygon fill="none" stroke="black" points="504.489,-51 504.489,-83 615.511,-83 615.511,-51 504.489,-51"/>
<text text-anchor="start" x="512.489" y="-70" font-family="Helvetica,sans-Serif" font-size="10.00">&#45;[Kensho bindToView</text>
<text text-anchor="middle" x="560" y="-58" font-family="Helvetica,sans-Serif" font-size="10.00">:context:]</text>
</a>
</g>
</g>
<!-- Node5&#45;&gt;Node6 -->
<g id="edge5" class="edge"><title>Node5&#45;&gt;Node6</title>
<path fill="none" stroke="midnightblue" d="M473.712,-67C483.963,-67 494.475,-67 504.463,-67"/>
<polygon fill="midnightblue" stroke="midnightblue" points="473.578,-63.5001 463.578,-67 473.578,-70.5001 473.578,-63.5001"/>
</g>
<!-- Node6&#45;&gt;Node6 -->
<g id="edge7" class="edge"><title>Node6&#45;&gt;Node6</title>
<path fill="none" stroke="midnightblue" d="M533.25,-93.1902C536.792,-97.7938 545.708,-101 560,-101 583.453,-101 592.431,-92.3658 586.934,-83.0908"/>
<polygon fill="midnightblue" stroke="midnightblue" points="536.748,-93.0251 533.066,-83.0908 529.749,-93.1531 536.748,-93.0251"/>
</g>
<!-- Node7 -->
<g id="node7" class="node"><title>Node7</title>
<g id="a_node7"><a xlink:href="../../da/d0b/interface_kensho.html#a1019e8223ee907bab87501ae483e609f" target="_top" xlink:title="&#45;[Kensho applyBindings\l:viewModel:]">
<polygon fill="none" stroke="black" points="652.485,-51 652.485,-83 773.515,-83 773.515,-51 652.485,-51"/>
<text text-anchor="start" x="660.485" y="-70" font-family="Helvetica,sans-Serif" font-size="10.00">&#45;[Kensho applyBindings</text>
<text text-anchor="middle" x="713" y="-58" font-family="Helvetica,sans-Serif" font-size="10.00">:viewModel:]</text>
</a>
</g>
</g>
<!-- Node6&#45;&gt;Node7 -->
<g id="edge6" class="edge"><title>Node6&#45;&gt;Node7</title>
<path fill="none" stroke="midnightblue" d="M625.788,-67C634.644,-67 643.7,-67 652.456,-67"/>
<polygon fill="midnightblue" stroke="midnightblue" points="625.514,-63.5001 615.514,-67 625.514,-70.5001 625.514,-63.5001"/>
</g>
</g>
</svg>
