<?xml version="1.0" encoding="UTF-8" standalone="no"?>
<!DOCTYPE svg PUBLIC "-//W3C//DTD SVG 1.1//EN"
 "http://www.w3.org/Graphics/SVG/1.1/DTD/svg11.dtd">
<!-- Generated by graphviz version 2.34.0 (20131008.0448)
 -->
<!-- Title: lookupNewKey Pages: 1 -->
<svg width="702pt" height="154pt"
 viewBox="0.00 0.00 702.00 154.00" xmlns="http://www.w3.org/2000/svg" xmlns:xlink="http://www.w3.org/1999/xlink">
<g id="graph0" class="graph" transform="scale(1 1) rotate(0) translate(4 150)">
<title>lookupNewKey</title>
<!-- Node1 -->
<g id="node1" class="node"><title>Node1</title>
<polygon fill="#bfbfbf" stroke="black" points="0.66,-57 0.66,-77 83.34,-77 83.34,-57 0.66,-57"/>
<text text-anchor="middle" x="42" y="-64" font-family="Helvetica,sans-Serif" font-size="10.00">lookupNewKey</text>
</g>
<!-- Node2 -->
<g id="node2" class="node"><title>Node2</title>
<g id="a_node2"><a xlink:href="../../dc/de7/interface_kensho_lua_wrapper.html#a7d10aa0242861cdd109d3da9383882a2" target="_top" xlink:title="&#45;[KenshoLuaWrapper\l evaluate]">
<polygon fill="none" stroke="black" points="120.489,-51 120.489,-83 231.512,-83 231.512,-51 120.489,-51"/>
<text text-anchor="start" x="128.488" y="-70" font-family="Helvetica,sans-Serif" font-size="10.00">&#45;[KenshoLuaWrapper</text>
<text text-anchor="middle" x="176" y="-58" font-family="Helvetica,sans-Serif" font-size="10.00"> evaluate]</text>
</a>
</g>
</g>
<!-- Node1&#45;&gt;Node2 -->
<g id="edge1" class="edge"><title>Node1&#45;&gt;Node2</title>
<path fill="none" stroke="midnightblue" d="M93.9283,-67C102.509,-67 111.449,-67 120.125,-67"/>
<polygon fill="midnightblue" stroke="midnightblue" points="93.6815,-63.5001 83.6814,-67 93.6814,-70.5001 93.6815,-63.5001"/>
</g>
<!-- Node3 -->
<g id="node3" class="node"><title>Node3</title>
<g id="a_node3"><a xlink:href="../../dc/de7/interface_kensho_lua_wrapper.html#af6db46358f8858a18b55388aa3af211d" target="_top" xlink:title="&#45;[KenshoLuaWrapper\l initWithKensho:context\l:code:]">
<polygon fill="none" stroke="black" points="267.765,-102 267.765,-146 388.235,-146 388.235,-102 267.765,-102"/>
<text text-anchor="start" x="275.765" y="-133" font-family="Helvetica,sans-Serif" font-size="10.00">&#45;[KenshoLuaWrapper</text>
<text text-anchor="start" x="275.765" y="-121" font-family="Helvetica,sans-Serif" font-size="10.00"> initWithKensho:context</text>
<text text-anchor="middle" x="328" y="-109" font-family="Helvetica,sans-Serif" font-size="10.00">:code:]</text>
</a>
</g>
</g>
<!-- Node2&#45;&gt;Node3 -->
<g id="edge2" class="edge"><title>Node2&#45;&gt;Node3</title>
<path fill="none" stroke="midnightblue" d="M228.838,-86.6985C241.762,-91.6096 255.703,-96.9073 268.907,-101.925"/>
<polygon fill="midnightblue" stroke="midnightblue" points="229.774,-83.3099 219.183,-83.0294 227.287,-89.8534 229.774,-83.3099"/>
</g>
<!-- Node4 -->
<g id="node4" class="node"><title>Node4</title>
<g id="a_node4"><a xlink:href="../../dc/de7/interface_kensho_lua_wrapper.html#a5555e0979799446611baee70104555c6" target="_top" xlink:title="&#45;[KenshoLuaWrapper\l evaluate:]">
<polygon fill="none" stroke="black" points="272.488,-51 272.488,-83 383.512,-83 383.512,-51 272.488,-51"/>
<text text-anchor="start" x="280.488" y="-70" font-family="Helvetica,sans-Serif" font-size="10.00">&#45;[KenshoLuaWrapper</text>
<text text-anchor="middle" x="328" y="-58" font-family="Helvetica,sans-Serif" font-size="10.00"> evaluate:]</text>
</a>
</g>
</g>
<!-- Node2&#45;&gt;Node4 -->
<g id="edge3" class="edge"><title>Node2&#45;&gt;Node4</title>
<path fill="none" stroke="midnightblue" d="M241.712,-67C251.963,-67 262.475,-67 272.463,-67"/>
<polygon fill="midnightblue" stroke="midnightblue" points="241.578,-63.5001 231.578,-67 241.578,-70.5001 241.578,-63.5001"/>
</g>
<!-- Node7 -->
<g id="node7" class="node"><title>Node7</title>
<g id="a_node7"><a xlink:href="../../dc/de7/interface_kensho_lua_wrapper.html#a0bb5e125d727942726d707f8b59009dc" target="_top" xlink:title="&#45;[KenshoLuaWrapper\l observableUpdated:]">
<polygon fill="none" stroke="black" points="272.484,-0 272.484,-32 383.516,-32 383.516,-0 272.484,-0"/>
<text text-anchor="start" x="280.484" y="-19" font-family="Helvetica,sans-Serif" font-size="10.00">&#45;[KenshoLuaWrapper</text>
<text text-anchor="middle" x="328" y="-7" font-family="Helvetica,sans-Serif" font-size="10.00"> observableUpdated:]</text>
</a>
</g>
</g>
<!-- Node2&#45;&gt;Node7 -->
<g id="edge7" class="edge"><title>Node2&#45;&gt;Node7</title>
<path fill="none" stroke="midnightblue" d="M234.194,-47.554C249.271,-42.4279 265.367,-36.9554 279.848,-32.0317"/>
<polygon fill="midnightblue" stroke="midnightblue" points="232.802,-44.3305 224.461,-50.8633 235.055,-50.9579 232.802,-44.3305"/>
</g>
<!-- Node5 -->
<g id="node5" class="node"><title>Node5</title>
<g id="a_node5"><a xlink:href="../../da/d0b/interface_kensho.html#a07b4d14db676108e1a94a1f10e100fb4" target="_top" xlink:title="&#45;[Kensho bindToView\l:context:]">
<polygon fill="none" stroke="black" points="424.489,-51 424.489,-83 535.511,-83 535.511,-51 424.489,-51"/>
<text text-anchor="start" x="432.489" y="-70" font-family="Helvetica,sans-Serif" font-size="10.00">&#45;[Kensho bindToView</text>
<text text-anchor="middle" x="480" y="-58" font-family="Helvetica,sans-Serif" font-size="10.00">:context:]</text>
</a>
</g>
</g>
<!-- Node4&#45;&gt;Node5 -->
<g id="edge4" class="edge"><title>Node4&#45;&gt;Node5</title>
<path fill="none" stroke="midnightblue" d="M393.712,-67C403.963,-67 414.475,-67 424.463,-67"/>
<polygon fill="midnightblue" stroke="midnightblue" points="393.578,-63.5001 383.578,-67 393.578,-70.5001 393.578,-63.5001"/>
</g>
<!-- Node5&#45;&gt;Node5 -->
<g id="edge6" class="edge"><title>Node5&#45;&gt;Node5</title>
<path fill="none" stroke="midnightblue" d="M453.25,-93.1902C456.792,-97.7938 465.708,-101 480,-101 503.453,-101 512.431,-92.3658 506.934,-83.0908"/>
<polygon fill="midnightblue" stroke="midnightblue" points="456.748,-93.0251 453.066,-83.0908 449.749,-93.1531 456.748,-93.0251"/>
</g>
<!-- Node6 -->
<g id="node6" class="node"><title>Node6</title>
<g id="a_node6"><a xlink:href="../../da/d0b/interface_kensho.html#a1019e8223ee907bab87501ae483e609f" target="_top" xlink:title="&#45;[Kensho applyBindings\l:viewModel:]">
<polygon fill="none" stroke="black" points="572.485,-51 572.485,-83 693.515,-83 693.515,-51 572.485,-51"/>
<text text-anchor="start" x="580.485" y="-70" font-family="Helvetica,sans-Serif" font-size="10.00">&#45;[Kensho applyBindings</text>
<text text-anchor="middle" x="633" y="-58" font-family="Helvetica,sans-Serif" font-size="10.00">:viewModel:]</text>
</a>
</g>
</g>
<!-- Node5&#45;&gt;Node6 -->
<g id="edge5" class="edge"><title>Node5&#45;&gt;Node6</title>
<path fill="none" stroke="midnightblue" d="M545.788,-67C554.644,-67 563.7,-67 572.456,-67"/>
<polygon fill="midnightblue" stroke="midnightblue" points="545.514,-63.5001 535.514,-67 545.514,-70.5001 545.514,-63.5001"/>
</g>
</g>
</svg>
