<?xml version="1.0" encoding="UTF-8" standalone="no"?>
<!DOCTYPE svg PUBLIC "-//W3C//DTD SVG 1.1//EN"
 "http://www.w3.org/Graphics/SVG/1.1/DTD/svg11.dtd">
<!-- Generated by graphviz version 2.38.0 (20140413.2041)
 -->
<!-- Title: luaS_newlstr Pages: 1 -->
<svg width="672pt" height="1320pt"
 viewBox="0.00 0.00 672.00 1320.00" xmlns="http://www.w3.org/2000/svg" xmlns:xlink="http://www.w3.org/1999/xlink">
<g id="graph0" class="graph" transform="scale(1 1) rotate(0) translate(4 1316)">
<title>luaS_newlstr</title>
<!-- Node1 -->
<g id="node1" class="node"><title>Node1</title>
<polygon fill="#bfbfbf" stroke="black" points="0,-399.5 0,-418.5 71,-418.5 71,-399.5 0,-399.5"/>
<text text-anchor="middle" x="35.5" y="-406.5" font-family="Helvetica,sans-Serif" font-size="10.00">luaS_newlstr</text>
</g>
<!-- Node2 -->
<g id="node2" class="node"><title>Node2</title>
<g id="a_node2"><a xlink:href="../../de/d2f/lundump_8c.html#abfe7dabe70bd14e27d54d3cedc6cb70a" target="_top" xlink:title="LoadString">
<polygon fill="none" stroke="black" points="116.5,-1254.5 116.5,-1273.5 178.5,-1273.5 178.5,-1254.5 116.5,-1254.5"/>
<text text-anchor="middle" x="147.5" y="-1261.5" font-family="Helvetica,sans-Serif" font-size="10.00">LoadString</text>
</a>
</g>
</g>
<!-- Node1&#45;&gt;Node2 -->
<g id="edge1" class="edge"><title>Node1&#45;&gt;Node2</title>
<path fill="none" stroke="midnightblue" d="M37.6567,-429.126C42.5965,-511.721 63.6776,-832.602 107,-1093 117.351,-1155.22 136.788,-1228.62 143.85,-1254.44"/>
<polygon fill="midnightblue" stroke="midnightblue" points="41.1249,-428.482 37.0442,-418.704 34.137,-428.892 41.1249,-428.482"/>
</g>
<!-- Node6 -->
<g id="node6" class="node"><title>Node6</title>
<g id="a_node6"><a xlink:href="../../da/dd2/lua_8h.html#a4eba0457df5bafff4d44071d1d8080b6" target="_top" xlink:title="lua_concat">
<polygon fill="none" stroke="black" points="242,-456.5 242,-475.5 304,-475.5 304,-456.5 242,-456.5"/>
<text text-anchor="middle" x="273" y="-463.5" font-family="Helvetica,sans-Serif" font-size="10.00">lua_concat</text>
</a>
</g>
</g>
<!-- Node1&#45;&gt;Node6 -->
<g id="edge7" class="edge"><title>Node1&#45;&gt;Node6</title>
<path fill="none" stroke="midnightblue" d="M80.5297,-421.134C89.2846,-423.471 98.4219,-425.857 107,-428 153.914,-439.72 208.666,-452.068 241.812,-459.398"/>
<polygon fill="midnightblue" stroke="midnightblue" points="81.4237,-417.751 70.8577,-418.532 79.6049,-424.51 81.4237,-417.751"/>
</g>
<!-- Node14 -->
<g id="node14" class="node"><title>Node14</title>
<g id="a_node14"><a xlink:href="../../da/dd2/lua_8h.html#a4ab8500ade8e1d8a87b1df1baf19b179" target="_top" xlink:title="lua_pushlstring">
<polygon fill="none" stroke="black" points="107.5,-1064.5 107.5,-1083.5 187.5,-1083.5 187.5,-1064.5 107.5,-1064.5"/>
<text text-anchor="middle" x="147.5" y="-1071.5" font-family="Helvetica,sans-Serif" font-size="10.00">lua_pushlstring</text>
</a>
</g>
</g>
<!-- Node1&#45;&gt;Node14 -->
<g id="edge16" class="edge"><title>Node1&#45;&gt;Node14</title>
<path fill="none" stroke="midnightblue" d="M39.7684,-428.759C56.5787,-530.385 132.979,-992.258 144.926,-1064.49"/>
<polygon fill="midnightblue" stroke="midnightblue" points="43.1825,-427.952 38.0974,-418.657 36.2764,-429.094 43.1825,-427.952"/>
</g>
<!-- Node21 -->
<g id="node21" class="node"><title>Node21</title>
<g id="a_node21"><a xlink:href="../../dd/d05/lcode_8h.html#a4f928250a0f4007764b4d3777651f617" target="_top" xlink:title="luaK_numberK">
<polygon fill="none" stroke="black" points="107.5,-285.5 107.5,-304.5 187.5,-304.5 187.5,-285.5 107.5,-285.5"/>
<text text-anchor="middle" x="147.5" y="-292.5" font-family="Helvetica,sans-Serif" font-size="10.00">luaK_numberK</text>
</a>
</g>
</g>
<!-- Node1&#45;&gt;Node21 -->
<g id="edge26" class="edge"><title>Node1&#45;&gt;Node21</title>
<path fill="none" stroke="midnightblue" d="M52.0294,-391.704C66.1356,-376.128 87.636,-352.719 107,-333 116.734,-323.087 128.213,-312.121 136.28,-304.528"/>
<polygon fill="midnightblue" stroke="midnightblue" points="49.1147,-389.71 45.0139,-399.479 54.3117,-394.399 49.1147,-389.71"/>
</g>
<!-- Node25 -->
<g id="node25" class="node"><title>Node25</title>
<g id="a_node25"><a xlink:href="../../d4/dfb/lstring_8h.html#a6929da8cfde3e74a0d51a6467909ef9d" target="_top" xlink:title="luaS_new">
<polygon fill="none" stroke="black" points="117.5,-684.5 117.5,-703.5 177.5,-703.5 177.5,-684.5 117.5,-684.5"/>
<text text-anchor="middle" x="147.5" y="-691.5" font-family="Helvetica,sans-Serif" font-size="10.00">luaS_new</text>
</a>
</g>
</g>
<!-- Node1&#45;&gt;Node25 -->
<g id="edge30" class="edge"><title>Node1&#45;&gt;Node25</title>
<path fill="none" stroke="midnightblue" d="M43.9063,-428.189C65.3316,-483.7 126.86,-643.115 142.729,-684.231"/>
<polygon fill="midnightblue" stroke="midnightblue" points="47.1525,-426.879 40.2864,-418.81 40.622,-429.4 47.1525,-426.879"/>
</g>
<!-- Node38 -->
<g id="node38" class="node"><title>Node38</title>
<g id="a_node38"><a xlink:href="../../d5/dcd/lvm_8h.html#aee84bfc563cb4bdd21a013218a289aa7" target="_top" xlink:title="luaV_concat">
<polygon fill="none" stroke="black" points="113,-399.5 113,-418.5 182,-418.5 182,-399.5 113,-399.5"/>
<text text-anchor="middle" x="147.5" y="-406.5" font-family="Helvetica,sans-Serif" font-size="10.00">luaV_concat</text>
</a>
</g>
</g>
<!-- Node1&#45;&gt;Node38 -->
<g id="edge45" class="edge"><title>Node1&#45;&gt;Node38</title>
<path fill="none" stroke="midnightblue" d="M81.3137,-409C91.8572,-409 102.918,-409 112.873,-409"/>
<polygon fill="midnightblue" stroke="midnightblue" points="81.0029,-405.5 71.0029,-409 81.0028,-412.5 81.0029,-405.5"/>
</g>
<!-- Node42 -->
<g id="node42" class="node"><title>Node42</title>
<g id="a_node42"><a xlink:href="../../d5/dcd/lvm_8h.html#abcde68a7697547dc2c7f1d0e6734e611" target="_top" xlink:title="luaV_tostring">
<polygon fill="none" stroke="black" points="112,-209.5 112,-228.5 183,-228.5 183,-209.5 112,-209.5"/>
<text text-anchor="middle" x="147.5" y="-216.5" font-family="Helvetica,sans-Serif" font-size="10.00">luaV_tostring</text>
</a>
</g>
</g>
<!-- Node1&#45;&gt;Node42 -->
<g id="edge50" class="edge"><title>Node1&#45;&gt;Node42</title>
<path fill="none" stroke="midnightblue" d="M45.5307,-390.306C58.3327,-364.211 82.8917,-315.614 107,-276 117.39,-258.927 130.914,-240.029 139.139,-228.851"/>
<polygon fill="midnightblue" stroke="midnightblue" points="42.3167,-388.912 41.0826,-399.434 48.6094,-391.978 42.3167,-388.912"/>
</g>
<!-- Node44 -->
<g id="node44" class="node"><title>Node44</title>
<g id="a_node44"><a xlink:href="../../d8/d27/llex_8h.html#aa6e79179f823cf156f61899a09239ca6" target="_top" xlink:title="luaX_newstring">
<polygon fill="none" stroke="black" points="107,-95.5 107,-114.5 188,-114.5 188,-95.5 107,-95.5"/>
<text text-anchor="middle" x="147.5" y="-102.5" font-family="Helvetica,sans-Serif" font-size="10.00">luaX_newstring</text>
</a>
</g>
</g>
<!-- Node1&#45;&gt;Node44 -->
<g id="edge52" class="edge"><title>Node1&#45;&gt;Node44</title>
<path fill="none" stroke="midnightblue" d="M42.6404,-389.32C54.3695,-352.08 81.1041,-268.863 107,-200 118.883,-168.401 134.75,-131.679 142.241,-114.622"/>
<polygon fill="midnightblue" stroke="midnightblue" points="39.1526,-388.745 39.4996,-399.334 45.8318,-390.84 39.1526,-388.745"/>
</g>
<!-- Node50 -->
<g id="node50" class="node"><title>Node50</title>
<g id="a_node50"><a xlink:href="../../d7/d9b/lobject_8c.html#aa65db03553a5abd73e466d307bb17a37" target="_top" xlink:title="pushstr">
<polygon fill="none" stroke="black" points="123.5,-342.5 123.5,-361.5 171.5,-361.5 171.5,-342.5 123.5,-342.5"/>
<text text-anchor="middle" x="147.5" y="-349.5" font-family="Helvetica,sans-Serif" font-size="10.00">pushstr</text>
</a>
</g>
</g>
<!-- Node1&#45;&gt;Node50 -->
<g id="edge60" class="edge"><title>Node1&#45;&gt;Node50</title>
<path fill="none" stroke="midnightblue" d="M64.1188,-394.688C84.1333,-384.317 110.642,-370.581 128.116,-361.526"/>
<polygon fill="midnightblue" stroke="midnightblue" points="62.4285,-391.622 55.16,-399.331 65.6491,-397.837 62.4285,-391.622"/>
</g>
<!-- Node3 -->
<g id="node3" class="node"><title>Node3</title>
<g id="a_node3"><a xlink:href="../../de/d2f/lundump_8c.html#a1854dcefef99e90599873a480c49da5f" target="_top" xlink:title="LoadConstants">
<polygon fill="none" stroke="black" points="231.5,-1292.5 231.5,-1311.5 314.5,-1311.5 314.5,-1292.5 231.5,-1292.5"/>
<text text-anchor="middle" x="273" y="-1299.5" font-family="Helvetica,sans-Serif" font-size="10.00">LoadConstants</text>
</a>
</g>
</g>
<!-- Node2&#45;&gt;Node3 -->
<g id="edge2" class="edge"><title>Node2&#45;&gt;Node3</title>
<path fill="none" stroke="midnightblue" d="M188.377,-1276.27C205.369,-1281.5 224.9,-1287.51 240.811,-1292.4"/>
<polygon fill="midnightblue" stroke="midnightblue" points="189.299,-1272.89 178.711,-1273.3 187.24,-1279.58 189.299,-1272.89"/>
</g>
<!-- Node5 -->
<g id="node5" class="node"><title>Node5</title>
<g id="a_node5"><a xlink:href="../../de/d2f/lundump_8c.html#a89f9807f8a7395e26b0bce7b7f208d20" target="_top" xlink:title="LoadDebug">
<polygon fill="none" stroke="black" points="239,-1254.5 239,-1273.5 307,-1273.5 307,-1254.5 239,-1254.5"/>
<text text-anchor="middle" x="273" y="-1261.5" font-family="Helvetica,sans-Serif" font-size="10.00">LoadDebug</text>
</a>
</g>
</g>
<!-- Node2&#45;&gt;Node5 -->
<g id="edge5" class="edge"><title>Node2&#45;&gt;Node5</title>
<path fill="none" stroke="midnightblue" d="M188.915,-1264C205.009,-1264 223.306,-1264 238.626,-1264"/>
<polygon fill="midnightblue" stroke="midnightblue" points="188.712,-1260.5 178.711,-1264 188.711,-1267.5 188.712,-1260.5"/>
</g>
<!-- Node4 -->
<g id="node4" class="node"><title>Node4</title>
<g id="a_node4"><a xlink:href="../../de/d2f/lundump_8c.html#a26c35541b59dce503747e776441691f2" target="_top" xlink:title="LoadFunction">
<polygon fill="none" stroke="red" points="362,-1292.5 362,-1311.5 435,-1311.5 435,-1292.5 362,-1292.5"/>
<text text-anchor="middle" x="398.5" y="-1299.5" font-family="Helvetica,sans-Serif" font-size="10.00">LoadFunction</text>
</a>
</g>
</g>
<!-- Node3&#45;&gt;Node4 -->
<g id="edge3" class="edge"><title>Node3&#45;&gt;Node4</title>
<path fill="none" stroke="midnightblue" d="M324.97,-1295.34C337.32,-1295.13 350.264,-1295.29 361.742,-1295.81"/>
<polygon fill="midnightblue" stroke="midnightblue" points="324.686,-1291.85 314.781,-1295.61 324.869,-1298.85 324.686,-1291.85"/>
</g>
<!-- Node4&#45;&gt;Node3 -->
<g id="edge4" class="edge"><title>Node4&#45;&gt;Node3</title>
<path fill="none" stroke="midnightblue" d="M351.437,-1308.55C339.403,-1308.86 326.519,-1308.81 314.781,-1308.39"/>
<polygon fill="midnightblue" stroke="midnightblue" points="351.873,-1312.04 361.742,-1308.19 351.625,-1305.04 351.873,-1312.04"/>
</g>
<!-- Node5&#45;&gt;Node4 -->
<g id="edge6" class="edge"><title>Node5&#45;&gt;Node4</title>
<path fill="none" stroke="midnightblue" d="M314.74,-1276.54C331.54,-1281.7 350.697,-1287.6 366.346,-1292.41"/>
<polygon fill="midnightblue" stroke="midnightblue" points="315.751,-1273.18 305.164,-1273.59 313.693,-1279.88 315.751,-1273.18"/>
</g>
<!-- Node7 -->
<g id="node7" class="node"><title>Node7</title>
<g id="a_node7"><a xlink:href="../../d0/d56/lauxlib_8c.html#a36c8f149b779f8c9a5c042ea9784d80a" target="_top" xlink:title="findfield">
<polygon fill="none" stroke="red" points="375,-380.5 375,-399.5 422,-399.5 422,-380.5 375,-380.5"/>
<text text-anchor="middle" x="398.5" y="-387.5" font-family="Helvetica,sans-Serif" font-size="10.00">findfield</text>
</a>
</g>
</g>
<!-- Node6&#45;&gt;Node7 -->
<g id="edge8" class="edge"><title>Node6&#45;&gt;Node7</title>
<path fill="none" stroke="midnightblue" d="M313.251,-452.155C316.298,-450.575 319.253,-448.858 322,-447 341.271,-433.967 339.207,-422.713 358,-409 363.164,-405.232 369.191,-401.891 374.96,-399.103"/>
<polygon fill="midnightblue" stroke="midnightblue" points="311.547,-449.087 303.956,-456.479 314.5,-455.434 311.547,-449.087"/>
</g>
<!-- Node8 -->
<g id="node8" class="node"><title>Node8</title>
<g id="a_node8"><a xlink:href="../../da/d29/lauxlib_8h.html#a664cc293d6c7a7dc67857fe95583a10e" target="_top" xlink:title="luaL_traceback">
<polygon fill="none" stroke="red" points="358,-532.5 358,-551.5 439,-551.5 439,-532.5 358,-532.5"/>
<text text-anchor="middle" x="398.5" y="-539.5" font-family="Helvetica,sans-Serif" font-size="10.00">luaL_traceback</text>
</a>
</g>
</g>
<!-- Node6&#45;&gt;Node8 -->
<g id="edge9" class="edge"><title>Node6&#45;&gt;Node8</title>
<path fill="none" stroke="midnightblue" d="M313.251,-479.845C316.298,-481.425 319.253,-483.142 322,-485 341.271,-498.033 339.207,-509.287 358,-523 362.918,-526.588 368.619,-529.79 374.135,-532.495"/>
<polygon fill="midnightblue" stroke="midnightblue" points="314.5,-476.566 303.956,-475.521 311.547,-482.913 314.5,-476.566"/>
</g>
<!-- Node9 -->
<g id="node9" class="node"><title>Node9</title>
<g id="a_node9"><a xlink:href="../../da/d29/lauxlib_8h.html#a994f73d7985c30672469a260d9e86ae6" target="_top" xlink:title="luaL_error">
<polygon fill="none" stroke="red" points="370,-494.5 370,-513.5 427,-513.5 427,-494.5 370,-494.5"/>
<text text-anchor="middle" x="398.5" y="-501.5" font-family="Helvetica,sans-Serif" font-size="10.00">luaL_error</text>
</a>
</g>
</g>
<!-- Node6&#45;&gt;Node9 -->
<g id="edge10" class="edge"><title>Node6&#45;&gt;Node9</title>
<path fill="none" stroke="midnightblue" d="M313.978,-478.301C332.18,-483.901 353.276,-490.392 369.712,-495.45"/>
<polygon fill="midnightblue" stroke="midnightblue" points="314.799,-474.892 304.211,-475.296 312.74,-481.582 314.799,-474.892"/>
</g>
<!-- Node12 -->
<g id="node12" class="node"><title>Node12</title>
<g id="a_node12"><a xlink:href="../../d8/dd3/lbaselib_8c.html#a2ecfa987569d0b4c1063f3e204e42dd2" target="_top" xlink:title="luaB_error">
<polygon fill="none" stroke="black" points="369,-456.5 369,-475.5 428,-475.5 428,-456.5 369,-456.5"/>
<text text-anchor="middle" x="398.5" y="-463.5" font-family="Helvetica,sans-Serif" font-size="10.00">luaB_error</text>
</a>
</g>
</g>
<!-- Node6&#45;&gt;Node12 -->
<g id="edge14" class="edge"><title>Node6&#45;&gt;Node12</title>
<path fill="none" stroke="midnightblue" d="M314.332,-466C332.144,-466 352.67,-466 368.873,-466"/>
<polygon fill="midnightblue" stroke="midnightblue" points="314.212,-462.5 304.211,-466 314.211,-469.5 314.212,-462.5"/>
</g>
<!-- Node13 -->
<g id="node13" class="node"><title>Node13</title>
<g id="a_node13"><a xlink:href="../../df/d2d/lcorolib_8c.html#a777abb20385a69ce4787f72bd90375a7" target="_top" xlink:title="luaB_auxwrap">
<polygon fill="none" stroke="red" points="358.5,-418.5 358.5,-437.5 438.5,-437.5 438.5,-418.5 358.5,-418.5"/>
<text text-anchor="middle" x="398.5" y="-425.5" font-family="Helvetica,sans-Serif" font-size="10.00">luaB_auxwrap</text>
</a>
</g>
</g>
<!-- Node6&#45;&gt;Node13 -->
<g id="edge15" class="edge"><title>Node6&#45;&gt;Node13</title>
<path fill="none" stroke="midnightblue" d="M313.877,-453.73C330.869,-448.502 350.4,-442.492 366.311,-437.597"/>
<polygon fill="midnightblue" stroke="midnightblue" points="312.74,-450.418 304.211,-456.704 314.799,-457.108 312.74,-450.418"/>
</g>
<!-- Node10 -->
<g id="node10" class="node"><title>Node10</title>
<g id="a_node10"><a xlink:href="../../dc/d77/lstrlib_8c.html#ad24cfa73e5ad25ec99a1b48f0916471e" target="_top" xlink:title="add_value">
<polygon fill="none" stroke="red" points="602,-988.5 602,-1007.5 664,-1007.5 664,-988.5 602,-988.5"/>
<text text-anchor="middle" x="633" y="-995.5" font-family="Helvetica,sans-Serif" font-size="10.00">add_value</text>
</a>
</g>
</g>
<!-- Node9&#45;&gt;Node10 -->
<g id="edge11" class="edge"><title>Node9&#45;&gt;Node10</title>
<path fill="none" stroke="midnightblue" d="M435.055,-519.342C436.457,-520.486 437.782,-521.704 439,-523 578.569,-671.562 622.876,-934.426 630.67,-988.221"/>
<polygon fill="midnightblue" stroke="midnightblue" points="436.654,-516.203 426.387,-513.589 432.783,-522.035 436.654,-516.203"/>
</g>
<!-- Node11 -->
<g id="node11" class="node"><title>Node11</title>
<g id="a_node11"><a xlink:href="../../dc/d77/lstrlib_8c.html#a24a14b4e6e90bac4610dd334bb0b51b6" target="_top" xlink:title="push_onecapture">
<polygon fill="none" stroke="red" points="475,-988.5 475,-1007.5 566,-1007.5 566,-988.5 475,-988.5"/>
<text text-anchor="middle" x="520.5" y="-995.5" font-family="Helvetica,sans-Serif" font-size="10.00">push_onecapture</text>
</a>
</g>
</g>
<!-- Node9&#45;&gt;Node11 -->
<g id="edge12" class="edge"><title>Node9&#45;&gt;Node11</title>
<path fill="none" stroke="midnightblue" d="M435.423,-519.033C436.727,-520.259 437.93,-521.579 439,-523 468.297,-561.928 510.949,-923.477 518.377,-988.129"/>
<polygon fill="midnightblue" stroke="midnightblue" points="437.239,-516.027 427.085,-513.001 433.136,-521.698 437.239,-516.027"/>
</g>
<!-- Node11&#45;&gt;Node10 -->
<g id="edge13" class="edge"><title>Node11&#45;&gt;Node10</title>
<path fill="none" stroke="midnightblue" d="M576.345,-998C585.101,-998 593.87,-998 601.773,-998"/>
<polygon fill="midnightblue" stroke="midnightblue" points="576.126,-994.5 566.126,-998 576.126,-1001.5 576.126,-994.5"/>
</g>
<!-- Node14&#45;&gt;Node10 -->
<g id="edge25" class="edge"><title>Node14&#45;&gt;Node10</title>
<path fill="none" stroke="midnightblue" d="M164.467,-1091.07C178.598,-1104.83 200.568,-1123.15 224,-1131 265.299,-1144.84 278.98,-1137.81 322,-1131 443.181,-1111.81 573.634,-1034.96 617.026,-1007.67"/>
<polygon fill="midnightblue" stroke="midnightblue" points="166.615,-1088.26 157.1,-1083.6 161.633,-1093.18 166.615,-1088.26"/>
</g>
<!-- Node14&#45;&gt;Node11 -->
<g id="edge24" class="edge"><title>Node14&#45;&gt;Node11</title>
<path fill="none" stroke="midnightblue" d="M170.87,-1089.17C185.332,-1098.04 204.949,-1108.37 224,-1113 266.324,-1123.29 279.949,-1124.35 322,-1113 400.145,-1091.91 479.161,-1031.4 508.037,-1007.7"/>
<polygon fill="midnightblue" stroke="midnightblue" points="172.484,-1086.05 162.169,-1083.63 168.724,-1091.95 172.484,-1086.05"/>
</g>
<!-- Node15 -->
<g id="node15" class="node"><title>Node15</title>
<g id="a_node15"><a xlink:href="../../da/d29/lauxlib_8h.html#aac5dfab9ba0ced4f5ae3b22aa35faffe" target="_top" xlink:title="luaL_pushresult">
<polygon fill="none" stroke="red" points="231.5,-1026.5 231.5,-1045.5 314.5,-1045.5 314.5,-1026.5 231.5,-1026.5"/>
<text text-anchor="middle" x="273" y="-1033.5" font-family="Helvetica,sans-Serif" font-size="10.00">luaL_pushresult</text>
</a>
</g>
</g>
<!-- Node14&#45;&gt;Node15 -->
<g id="edge17" class="edge"><title>Node14&#45;&gt;Node15</title>
<path fill="none" stroke="midnightblue" d="M189.24,-1061.46C206.04,-1056.3 225.197,-1050.4 240.846,-1045.59"/>
<polygon fill="midnightblue" stroke="midnightblue" points="188.193,-1058.12 179.664,-1064.41 190.251,-1064.82 188.193,-1058.12"/>
</g>
<!-- Node16 -->
<g id="node16" class="node"><title>Node16</title>
<g id="a_node16"><a xlink:href="../../de/df3/liolib_8c.html#ace61fce0bdea311d6d7c2206881165c7" target="_top" xlink:title="test_eof">
<polygon fill="none" stroke="red" points="248,-988.5 248,-1007.5 298,-1007.5 298,-988.5 248,-988.5"/>
<text text-anchor="middle" x="273" y="-995.5" font-family="Helvetica,sans-Serif" font-size="10.00">test_eof</text>
</a>
</g>
</g>
<!-- Node14&#45;&gt;Node16 -->
<g id="edge18" class="edge"><title>Node14&#45;&gt;Node16</title>
<path fill="none" stroke="midnightblue" d="M167.436,-1057.41C182.134,-1045.12 203.412,-1028.56 224,-1017 231.502,-1012.79 240.127,-1009.06 247.978,-1006.05"/>
<polygon fill="midnightblue" stroke="midnightblue" points="164.942,-1054.94 159.597,-1064.09 169.48,-1060.27 164.942,-1054.94"/>
</g>
<!-- Node17 -->
<g id="node17" class="node"><title>Node17</title>
<g id="a_node17"><a xlink:href="../../d2/d82/loadlib_8c.html#aa1ea5ee1b54a06650a887c4ee05a8547" target="_top" xlink:title="pushnexttemplate">
<polygon fill="none" stroke="red" points="227,-1216.5 227,-1235.5 319,-1235.5 319,-1216.5 227,-1216.5"/>
<text text-anchor="middle" x="273" y="-1223.5" font-family="Helvetica,sans-Serif" font-size="10.00">pushnexttemplate</text>
</a>
</g>
</g>
<!-- Node14&#45;&gt;Node17 -->
<g id="edge19" class="edge"><title>Node14&#45;&gt;Node17</title>
<path fill="none" stroke="midnightblue" d="M155.679,-1093.13C166.719,-1120.35 190.193,-1170.46 224,-1202 230.267,-1207.85 238.229,-1212.59 245.858,-1216.27"/>
<polygon fill="midnightblue" stroke="midnightblue" points="158.85,-1091.63 151.944,-1083.59 152.333,-1094.18 158.85,-1091.63"/>
</g>
<!-- Node18 -->
<g id="node18" class="node"><title>Node18</title>
<g id="a_node18"><a xlink:href="../../d2/d82/loadlib_8c.html#a91ac5b5231cf039af46226806dcc3884" target="_top" xlink:title="loadfunc">
<polygon fill="none" stroke="red" points="247,-950.5 247,-969.5 299,-969.5 299,-950.5 247,-950.5"/>
<text text-anchor="middle" x="273" y="-957.5" font-family="Helvetica,sans-Serif" font-size="10.00">loadfunc</text>
</a>
</g>
</g>
<!-- Node14&#45;&gt;Node18 -->
<g id="edge20" class="edge"><title>Node14&#45;&gt;Node18</title>
<path fill="none" stroke="midnightblue" d="M158.999,-1055.6C171.874,-1034.5 195.531,-1000.11 224,-979 230.767,-973.982 239.036,-970.087 246.792,-967.167"/>
<polygon fill="midnightblue" stroke="midnightblue" points="155.952,-1053.88 153.864,-1064.27 161.974,-1057.45 155.952,-1053.88"/>
</g>
<!-- Node19 -->
<g id="node19" class="node"><title>Node19</title>
<g id="a_node19"><a xlink:href="../../d2/d82/loadlib_8c.html#a1ec05cd98a045c271aeda9f9c6041e1c" target="_top" xlink:title="searcher_Croot">
<polygon fill="none" stroke="red" points="358.5,-950.5 358.5,-969.5 438.5,-969.5 438.5,-950.5 358.5,-950.5"/>
<text text-anchor="middle" x="398.5" y="-957.5" font-family="Helvetica,sans-Serif" font-size="10.00">searcher_Croot</text>
</a>
</g>
</g>
<!-- Node14&#45;&gt;Node19 -->
<g id="edge22" class="edge"><title>Node14&#45;&gt;Node19</title>
<path fill="none" stroke="midnightblue" d="M178.416,-1087.53C214.903,-1101.85 277.239,-1119.06 322,-1093 369.497,-1065.35 389.546,-995.455 395.481,-969.713"/>
<polygon fill="midnightblue" stroke="midnightblue" points="179.426,-1084.17 168.846,-1083.61 176.771,-1090.64 179.426,-1084.17"/>
</g>
<!-- Node20 -->
<g id="node20" class="node"><title>Node20</title>
<g id="a_node20"><a xlink:href="../../dc/d77/lstrlib_8c.html#a039b391d5f43533a0ce750c5e40d7752" target="_top" xlink:title="str_sub">
<polygon fill="none" stroke="black" points="249,-1064.5 249,-1083.5 297,-1083.5 297,-1064.5 249,-1064.5"/>
<text text-anchor="middle" x="273" y="-1071.5" font-family="Helvetica,sans-Serif" font-size="10.00">str_sub</text>
</a>
</g>
</g>
<!-- Node14&#45;&gt;Node20 -->
<g id="edge23" class="edge"><title>Node14&#45;&gt;Node20</title>
<path fill="none" stroke="midnightblue" d="M197.781,-1074C215.472,-1074 234.587,-1074 248.988,-1074"/>
<polygon fill="midnightblue" stroke="midnightblue" points="197.576,-1070.5 187.576,-1074 197.576,-1077.5 197.576,-1070.5"/>
</g>
<!-- Node18&#45;&gt;Node19 -->
<g id="edge21" class="edge"><title>Node18&#45;&gt;Node19</title>
<path fill="none" stroke="midnightblue" d="M309.358,-960C324.598,-960 342.478,-960 358.137,-960"/>
<polygon fill="midnightblue" stroke="midnightblue" points="309.29,-956.5 299.29,-960 309.29,-963.5 309.29,-956.5"/>
</g>
<!-- Node22 -->
<g id="node22" class="node"><title>Node22</title>
<g id="a_node22"><a xlink:href="../../d8/d7a/lcode_8c.html#a961993a449bc9612ac966652646ffad6" target="_top" xlink:title="discharge2reg">
<polygon fill="none" stroke="red" points="235.5,-266.5 235.5,-285.5 310.5,-285.5 310.5,-266.5 235.5,-266.5"/>
<text text-anchor="middle" x="273" y="-273.5" font-family="Helvetica,sans-Serif" font-size="10.00">discharge2reg</text>
</a>
</g>
</g>
<!-- Node21&#45;&gt;Node22 -->
<g id="edge27" class="edge"><title>Node21&#45;&gt;Node22</title>
<path fill="none" stroke="midnightblue" d="M197.48,-287.465C210.079,-285.526 223.421,-283.474 235.28,-281.649"/>
<polygon fill="midnightblue" stroke="midnightblue" points="196.928,-284.008 187.576,-288.988 197.992,-290.927 196.928,-284.008"/>
</g>
<!-- Node23 -->
<g id="node23" class="node"><title>Node23</title>
<g id="a_node23"><a xlink:href="../../d8/d9c/lparser_8c.html#a18532c1a3a900cb8f3399b470c00daf0" target="_top" xlink:title="fornum">
<polygon fill="none" stroke="red" points="251,-228.5 251,-247.5 295,-247.5 295,-228.5 251,-228.5"/>
<text text-anchor="middle" x="273" y="-235.5" font-family="Helvetica,sans-Serif" font-size="10.00">fornum</text>
</a>
</g>
</g>
<!-- Node21&#45;&gt;Node23 -->
<g id="edge28" class="edge"><title>Node21&#45;&gt;Node23</title>
<path fill="none" stroke="midnightblue" d="M175.52,-280.664C189.789,-273.281 207.682,-264.319 224,-257 232.668,-253.112 242.388,-249.187 250.802,-245.921"/>
<polygon fill="midnightblue" stroke="midnightblue" points="173.53,-277.754 166.283,-285.483 176.768,-283.96 173.53,-277.754"/>
</g>
<!-- Node24 -->
<g id="node24" class="node"><title>Node24</title>
<g id="a_node24"><a xlink:href="../../dd/d05/lcode_8h.html#a28ef529fcd27c07fb222181894abdf7e" target="_top" xlink:title="luaK_exp2RK">
<polygon fill="none" stroke="red" points="234.5,-304.5 234.5,-323.5 311.5,-323.5 311.5,-304.5 234.5,-304.5"/>
<text text-anchor="middle" x="273" y="-311.5" font-family="Helvetica,sans-Serif" font-size="10.00">luaK_exp2RK</text>
</a>
</g>
</g>
<!-- Node21&#45;&gt;Node24 -->
<g id="edge29" class="edge"><title>Node21&#45;&gt;Node24</title>
<path fill="none" stroke="midnightblue" d="M197.66,-302.563C209.911,-304.448 222.852,-306.439 234.443,-308.222"/>
<polygon fill="midnightblue" stroke="midnightblue" points="197.992,-299.073 187.576,-301.012 196.928,-305.992 197.992,-299.073"/>
</g>
<!-- Node26 -->
<g id="node26" class="node"><title>Node26</title>
<g id="a_node26"><a xlink:href="../../d8/d9c/lparser_8c.html#ae8d2e6222dfdaa75cf6fb0c40da47755" target="_top" xlink:title="breaklabel">
<polygon fill="none" stroke="red" points="242.5,-874.5 242.5,-893.5 303.5,-893.5 303.5,-874.5 242.5,-874.5"/>
<text text-anchor="middle" x="273" y="-881.5" font-family="Helvetica,sans-Serif" font-size="10.00">breaklabel</text>
</a>
</g>
</g>
<!-- Node25&#45;&gt;Node26 -->
<g id="edge31" class="edge"><title>Node25&#45;&gt;Node26</title>
<path fill="none" stroke="midnightblue" d="M152.06,-713.496C159.414,-748.461 179.469,-822.167 224,-865 229.167,-869.97 235.793,-873.69 242.46,-876.455"/>
<polygon fill="midnightblue" stroke="midnightblue" points="155.476,-712.725 150.104,-703.593 148.608,-714.082 155.476,-712.725"/>
</g>
<!-- Node27 -->
<g id="node27" class="node"><title>Node27</title>
<g id="a_node27"><a xlink:href="../../d8/d9c/lparser_8c.html#a1b148e344a9d7e35aba2da4a0a3d7c9d" target="_top" xlink:title="gotostat">
<polygon fill="none" stroke="red" points="248,-836.5 248,-855.5 298,-855.5 298,-836.5 248,-836.5"/>
<text text-anchor="middle" x="273" y="-843.5" font-family="Helvetica,sans-Serif" font-size="10.00">gotostat</text>
</a>
</g>
</g>
<!-- Node25&#45;&gt;Node27 -->
<g id="edge32" class="edge"><title>Node25&#45;&gt;Node27</title>
<path fill="none" stroke="midnightblue" d="M154.824,-713.49C165.036,-742.102 187.756,-795.486 224,-827 230.763,-832.881 239.567,-837.066 247.785,-839.984"/>
<polygon fill="midnightblue" stroke="midnightblue" points="158.069,-712.163 151.52,-703.834 151.446,-714.429 158.069,-712.163"/>
</g>
<!-- Node28 -->
<g id="node28" class="node"><title>Node28</title>
<g id="a_node28"><a xlink:href="../../da/dd2/lua_8h.html#ac3112bb28ba217adc46f13da8e9e6585" target="_top" xlink:title="lua_getfield">
<polygon fill="none" stroke="red" points="241.5,-798.5 241.5,-817.5 304.5,-817.5 304.5,-798.5 241.5,-798.5"/>
<text text-anchor="middle" x="273" y="-805.5" font-family="Helvetica,sans-Serif" font-size="10.00">lua_getfield</text>
</a>
</g>
</g>
<!-- Node25&#45;&gt;Node28 -->
<g id="edge33" class="edge"><title>Node25&#45;&gt;Node28</title>
<path fill="none" stroke="midnightblue" d="M158.999,-712.397C171.874,-733.497 195.531,-767.888 224,-789 229.183,-792.844 235.248,-796.028 241.288,-798.621"/>
<polygon fill="midnightblue" stroke="midnightblue" points="161.974,-710.551 153.864,-703.734 155.952,-714.121 161.974,-710.551"/>
</g>
<!-- Node29 -->
<g id="node29" class="node"><title>Node29</title>
<g id="a_node29"><a xlink:href="../../da/dd2/lua_8h.html#a2b4a9010af0545ae0f822d7f081370d0" target="_top" xlink:title="lua_getglobal">
<polygon fill="none" stroke="red" points="236.5,-760.5 236.5,-779.5 309.5,-779.5 309.5,-760.5 236.5,-760.5"/>
<text text-anchor="middle" x="273" y="-767.5" font-family="Helvetica,sans-Serif" font-size="10.00">lua_getglobal</text>
</a>
</g>
</g>
<!-- Node25&#45;&gt;Node29 -->
<g id="edge34" class="edge"><title>Node25&#45;&gt;Node29</title>
<path fill="none" stroke="midnightblue" d="M167.436,-710.589C182.134,-722.881 203.412,-739.435 224,-751 230.329,-754.555 237.459,-757.763 244.249,-760.487"/>
<polygon fill="midnightblue" stroke="midnightblue" points="169.48,-707.733 159.597,-703.915 164.942,-713.063 169.48,-707.733"/>
</g>
<!-- Node30 -->
<g id="node30" class="node"><title>Node30</title>
<g id="a_node30"><a xlink:href="../../da/dd2/lua_8h.html#a341ab0333f0da3035bb3a1266b3bb41e" target="_top" xlink:title="lua_pushstring">
<polygon fill="none" stroke="red" points="234,-912.5 234,-931.5 312,-931.5 312,-912.5 234,-912.5"/>
<text text-anchor="middle" x="273" y="-919.5" font-family="Helvetica,sans-Serif" font-size="10.00">lua_pushstring</text>
</a>
</g>
</g>
<!-- Node25&#45;&gt;Node30 -->
<g id="edge35" class="edge"><title>Node25&#45;&gt;Node30</title>
<path fill="none" stroke="midnightblue" d="M150.283,-713.79C154.975,-754.548 171.206,-848.584 224,-903 227.744,-906.86 232.37,-909.954 237.259,-912.429"/>
<polygon fill="midnightblue" stroke="midnightblue" points="153.758,-713.37 149.245,-703.784 146.796,-714.092 153.758,-713.37"/>
</g>
<!-- Node31 -->
<g id="node31" class="node"><title>Node31</title>
<g id="a_node31"><a xlink:href="../../da/dd2/lua_8h.html#a9580a15c141cbe4bf2a63fea625c3878" target="_top" xlink:title="lua_setfield">
<polygon fill="none" stroke="red" points="241.5,-722.5 241.5,-741.5 304.5,-741.5 304.5,-722.5 241.5,-722.5"/>
<text text-anchor="middle" x="273" y="-729.5" font-family="Helvetica,sans-Serif" font-size="10.00">lua_setfield</text>
</a>
</g>
</g>
<!-- Node25&#45;&gt;Node31 -->
<g id="edge37" class="edge"><title>Node25&#45;&gt;Node31</title>
<path fill="none" stroke="midnightblue" d="M187.595,-706.029C204.913,-711.358 224.991,-717.536 241.219,-722.529"/>
<polygon fill="midnightblue" stroke="midnightblue" points="188.355,-702.601 177.768,-703.005 186.296,-709.292 188.355,-702.601"/>
</g>
<!-- Node32 -->
<g id="node32" class="node"><title>Node32</title>
<g id="a_node32"><a xlink:href="../../da/dd2/lua_8h.html#ac0ebe7d753b81f6249dde8cf0b8ea997" target="_top" xlink:title="lua_setglobal">
<polygon fill="none" stroke="red" points="236.5,-684.5 236.5,-703.5 309.5,-703.5 309.5,-684.5 236.5,-684.5"/>
<text text-anchor="middle" x="273" y="-691.5" font-family="Helvetica,sans-Serif" font-size="10.00">lua_setglobal</text>
</a>
</g>
</g>
<!-- Node25&#45;&gt;Node32 -->
<g id="edge38" class="edge"><title>Node25&#45;&gt;Node32</title>
<path fill="none" stroke="midnightblue" d="M188.096,-694C203.594,-694 221.237,-694 236.333,-694"/>
<polygon fill="midnightblue" stroke="midnightblue" points="187.768,-690.5 177.768,-694 187.768,-697.5 187.768,-690.5"/>
</g>
<!-- Node33 -->
<g id="node33" class="node"><title>Node33</title>
<g id="a_node33"><a xlink:href="../../da/de2/ltm_8h.html#adadf25053747df0beeec91a8836b2dfc" target="_top" xlink:title="luaT_init">
<polygon fill="none" stroke="red" points="248,-646.5 248,-665.5 298,-665.5 298,-646.5 248,-646.5"/>
<text text-anchor="middle" x="273" y="-653.5" font-family="Helvetica,sans-Serif" font-size="10.00">luaT_init</text>
</a>
</g>
</g>
<!-- Node25&#45;&gt;Node33 -->
<g id="edge39" class="edge"><title>Node25&#45;&gt;Node33</title>
<path fill="none" stroke="midnightblue" d="M187.454,-682.014C207.276,-675.915 230.742,-668.695 247.918,-663.41"/>
<polygon fill="midnightblue" stroke="midnightblue" points="186.296,-678.708 177.768,-684.995 188.355,-685.399 186.296,-678.708"/>
</g>
<!-- Node34 -->
<g id="node34" class="node"><title>Node34</title>
<g id="a_node34"><a xlink:href="../../d8/d27/llex_8h.html#a5f7573e2f03006437bd01422a0e390df" target="_top" xlink:title="luaX_init">
<polygon fill="none" stroke="red" points="247.5,-608.5 247.5,-627.5 298.5,-627.5 298.5,-608.5 247.5,-608.5"/>
<text text-anchor="middle" x="273" y="-615.5" font-family="Helvetica,sans-Serif" font-size="10.00">luaX_init</text>
</a>
</g>
</g>
<!-- Node25&#45;&gt;Node34 -->
<g id="edge40" class="edge"><title>Node25&#45;&gt;Node34</title>
<path fill="none" stroke="midnightblue" d="M167.436,-677.411C182.134,-665.119 203.412,-648.565 224,-637 231.345,-632.874 239.768,-629.216 247.487,-626.239"/>
<polygon fill="midnightblue" stroke="midnightblue" points="164.942,-674.937 159.597,-684.085 169.48,-680.267 164.942,-674.937"/>
</g>
<!-- Node35 -->
<g id="node35" class="node"><title>Node35</title>
<g id="a_node35"><a xlink:href="../../d8/d27/llex_8h.html#aac9c3f80c74f7d861348e74f5fda1452" target="_top" xlink:title="luaX_setinput">
<polygon fill="none" stroke="black" points="236,-494.5 236,-513.5 310,-513.5 310,-494.5 236,-494.5"/>
<text text-anchor="middle" x="273" y="-501.5" font-family="Helvetica,sans-Serif" font-size="10.00">luaX_setinput</text>
</a>
</g>
</g>
<!-- Node25&#45;&gt;Node35 -->
<g id="edge41" class="edge"><title>Node25&#45;&gt;Node35</title>
<path fill="none" stroke="midnightblue" d="M152.818,-674.518C161.186,-640.788 182.546,-571.008 224,-528 229.819,-521.963 237.479,-517.204 244.967,-513.571"/>
<polygon fill="midnightblue" stroke="midnightblue" points="149.356,-673.947 150.468,-684.484 156.17,-675.554 149.356,-673.947"/>
</g>
<!-- Node36 -->
<g id="node36" class="node"><title>Node36</title>
<g id="a_node36"><a xlink:href="../../d7/d09/lparser_8h.html#af454a43b1cd59d15997af813448e3dbf" target="_top" xlink:title="luaY_parser">
<polygon fill="none" stroke="red" points="364.5,-570.5 364.5,-589.5 432.5,-589.5 432.5,-570.5 364.5,-570.5"/>
<text text-anchor="middle" x="398.5" y="-577.5" font-family="Helvetica,sans-Serif" font-size="10.00">luaY_parser</text>
</a>
</g>
</g>
<!-- Node25&#45;&gt;Node36 -->
<g id="edge43" class="edge"><title>Node25&#45;&gt;Node36</title>
<path fill="none" stroke="midnightblue" d="M152.99,-674.369C161.168,-643.761 181.698,-585.629 224,-561 272.969,-532.489 342.974,-555.769 377.154,-570.39"/>
<polygon fill="midnightblue" stroke="midnightblue" points="149.541,-673.737 150.519,-684.287 156.333,-675.43 149.541,-673.737"/>
</g>
<!-- Node37 -->
<g id="node37" class="node"><title>Node37</title>
<g id="a_node37"><a xlink:href="../../d3/d08/ldo_8c.html#a23bb2b9896d6f5f8a90e4ad610c6901f" target="_top" xlink:title="resume_error">
<polygon fill="none" stroke="red" points="238,-570.5 238,-589.5 308,-589.5 308,-570.5 238,-570.5"/>
<text text-anchor="middle" x="273" y="-577.5" font-family="Helvetica,sans-Serif" font-size="10.00">resume_error</text>
</a>
</g>
</g>
<!-- Node25&#45;&gt;Node37 -->
<g id="edge44" class="edge"><title>Node25&#45;&gt;Node37</title>
<path fill="none" stroke="midnightblue" d="M158.999,-675.603C171.874,-654.503 195.531,-620.112 224,-599 229.039,-595.263 234.912,-592.149 240.785,-589.597"/>
<polygon fill="midnightblue" stroke="midnightblue" points="155.952,-673.879 153.864,-684.266 161.974,-677.449 155.952,-673.879"/>
</g>
<!-- Node30&#45;&gt;Node19 -->
<g id="edge36" class="edge"><title>Node30&#45;&gt;Node19</title>
<path fill="none" stroke="midnightblue" d="M314.74,-934.535C331.54,-939.705 350.697,-945.599 366.346,-950.414"/>
<polygon fill="midnightblue" stroke="midnightblue" points="315.751,-931.185 305.164,-931.589 313.693,-937.875 315.751,-931.185"/>
</g>
<!-- Node35&#45;&gt;Node36 -->
<g id="edge42" class="edge"><title>Node35&#45;&gt;Node36</title>
<path fill="none" stroke="midnightblue" d="M305.544,-518.192C311.184,-521.168 316.887,-524.481 322,-528 339.88,-540.306 340.027,-548.831 358,-561 363.167,-564.498 369.077,-567.705 374.723,-570.448"/>
<polygon fill="midnightblue" stroke="midnightblue" points="306.738,-514.875 296.229,-513.525 303.602,-521.134 306.738,-514.875"/>
</g>
<!-- Node38&#45;&gt;Node6 -->
<g id="edge46" class="edge"><title>Node38&#45;&gt;Node6</title>
<path fill="none" stroke="midnightblue" d="M175.52,-423.336C189.789,-430.719 207.682,-439.681 224,-447 231.196,-450.228 239.117,-453.481 246.414,-456.362"/>
<polygon fill="midnightblue" stroke="midnightblue" points="176.768,-420.04 166.283,-418.517 173.53,-426.246 176.768,-420.04"/>
</g>
<!-- Node39 -->
<g id="node39" class="node"><title>Node39</title>
<g id="a_node39"><a xlink:href="../../d2/d51/lobject_8h.html#a0d323372aa00f179e1c070d305f879f3" target="_top" xlink:title="luaO_pushvfstring">
<polygon fill="none" stroke="red" points="226,-342.5 226,-361.5 320,-361.5 320,-342.5 226,-342.5"/>
<text text-anchor="middle" x="273" y="-349.5" font-family="Helvetica,sans-Serif" font-size="10.00">luaO_pushvfstring</text>
</a>
</g>
</g>
<!-- Node38&#45;&gt;Node39 -->
<g id="edge47" class="edge"><title>Node38&#45;&gt;Node39</title>
<path fill="none" stroke="midnightblue" d="M175.52,-394.664C189.789,-387.281 207.682,-378.319 224,-371 231.196,-367.772 239.117,-364.519 246.414,-361.638"/>
<polygon fill="midnightblue" stroke="midnightblue" points="173.53,-391.754 166.283,-399.483 176.768,-397.96 173.53,-391.754"/>
</g>
<!-- Node40 -->
<g id="node40" class="node"><title>Node40</title>
<g id="a_node40"><a xlink:href="../../d5/dcd/lvm_8h.html#a5db3e64b3cc2f63c3b10b27f7ecd1d03" target="_top" xlink:title="luaV_finishOp">
<polygon fill="none" stroke="red" points="234.5,-418.5 234.5,-437.5 311.5,-437.5 311.5,-418.5 234.5,-418.5"/>
<text text-anchor="middle" x="273" y="-425.5" font-family="Helvetica,sans-Serif" font-size="10.00">luaV_finishOp</text>
</a>
</g>
</g>
<!-- Node38&#45;&gt;Node40 -->
<g id="edge48" class="edge"><title>Node38&#45;&gt;Node40</title>
<path fill="none" stroke="midnightblue" d="M192.433,-415.759C206.146,-417.869 221.141,-420.176 234.38,-422.212"/>
<polygon fill="midnightblue" stroke="midnightblue" points="192.663,-412.253 182.247,-414.192 191.598,-419.172 192.663,-412.253"/>
</g>
<!-- Node41 -->
<g id="node41" class="node"><title>Node41</title>
<g id="a_node41"><a xlink:href="../../d5/dcd/lvm_8h.html#ae93565adc36c6e2157dbbd875433ede1" target="_top" xlink:title="luaV_execute">
<polygon fill="none" stroke="red" points="236,-380.5 236,-399.5 310,-399.5 310,-380.5 236,-380.5"/>
<text text-anchor="middle" x="273" y="-387.5" font-family="Helvetica,sans-Serif" font-size="10.00">luaV_execute</text>
</a>
</g>
</g>
<!-- Node38&#45;&gt;Node41 -->
<g id="edge49" class="edge"><title>Node38&#45;&gt;Node41</title>
<path fill="none" stroke="midnightblue" d="M192.297,-402.262C206.504,-400.076 222.098,-397.677 235.697,-395.585"/>
<polygon fill="midnightblue" stroke="midnightblue" points="191.598,-398.828 182.247,-403.808 192.663,-405.747 191.598,-398.828"/>
</g>
<!-- Node43 -->
<g id="node43" class="node"><title>Node43</title>
<g id="a_node43"><a xlink:href="../../da/dd2/lua_8h.html#aabf845b1c7ffc0462988b67ba83955cf" target="_top" xlink:title="lua_tolstring">
<polygon fill="none" stroke="red" points="240.5,-190.5 240.5,-209.5 305.5,-209.5 305.5,-190.5 240.5,-190.5"/>
<text text-anchor="middle" x="273" y="-197.5" font-family="Helvetica,sans-Serif" font-size="10.00">lua_tolstring</text>
</a>
</g>
</g>
<!-- Node42&#45;&gt;Node43 -->
<g id="edge51" class="edge"><title>Node42&#45;&gt;Node43</title>
<path fill="none" stroke="midnightblue" d="M193.244,-212.116C208.899,-209.708 226.137,-207.056 240.484,-204.849"/>
<polygon fill="midnightblue" stroke="midnightblue" points="192.582,-208.677 183.23,-213.657 193.646,-215.596 192.582,-208.677"/>
</g>
<!-- Node45 -->
<g id="node45" class="node"><title>Node45</title>
<g id="a_node45"><a xlink:href="../../d8/d9c/lparser_8c.html#a773c2499cb8938683b25fc0234c1f017" target="_top" xlink:title="anchor_token">
<polygon fill="none" stroke="red" points="236.5,-152.5 236.5,-171.5 309.5,-171.5 309.5,-152.5 236.5,-152.5"/>
<text text-anchor="middle" x="273" y="-159.5" font-family="Helvetica,sans-Serif" font-size="10.00">anchor_token</text>
</a>
</g>
</g>
<!-- Node44&#45;&gt;Node45 -->
<g id="edge53" class="edge"><title>Node44&#45;&gt;Node45</title>
<path fill="none" stroke="midnightblue" d="M175.52,-119.336C189.789,-126.719 207.682,-135.681 224,-143 231.196,-146.228 239.117,-149.481 246.414,-152.362"/>
<polygon fill="midnightblue" stroke="midnightblue" points="176.768,-116.04 166.283,-114.517 173.53,-122.246 176.768,-116.04"/>
</g>
<!-- Node46 -->
<g id="node46" class="node"><title>Node46</title>
<g id="a_node46"><a xlink:href="../../d8/d7a/llex_8c.html#a83faab0338a28c8b97ff1156725cc61b" target="_top" xlink:title="llex">
<polygon fill="none" stroke="red" points="383.5,-76.5 383.5,-95.5 413.5,-95.5 413.5,-76.5 383.5,-76.5"/>
<text text-anchor="middle" x="398.5" y="-83.5" font-family="Helvetica,sans-Serif" font-size="10.00">llex</text>
</a>
</g>
</g>
<!-- Node44&#45;&gt;Node46 -->
<g id="edge54" class="edge"><title>Node44&#45;&gt;Node46</title>
<path fill="none" stroke="midnightblue" d="M198.276,-101.202C256.216,-96.7807 348.426,-89.7446 383.414,-87.0749"/>
<polygon fill="midnightblue" stroke="midnightblue" points="197.935,-97.7176 188.23,-101.968 198.467,-104.697 197.935,-97.7176"/>
</g>
<!-- Node47 -->
<g id="node47" class="node"><title>Node47</title>
<g id="a_node47"><a xlink:href="../../d8/d9c/lparser_8c.html#a6d7842332c47d1f9dc803977228e4179" target="_top" xlink:title="new_localvarliteral_">
<polygon fill="none" stroke="black" points="224,-0.5 224,-19.5 322,-19.5 322,-0.5 224,-0.5"/>
<text text-anchor="middle" x="273" y="-7.5" font-family="Helvetica,sans-Serif" font-size="10.00">new_localvarliteral_</text>
</a>
</g>
</g>
<!-- Node44&#45;&gt;Node47 -->
<g id="edge55" class="edge"><title>Node44&#45;&gt;Node47</title>
<path fill="none" stroke="midnightblue" d="M162.331,-87.3501C176.342,-70.4568 199.405,-45.2129 224,-29 229.612,-25.3005 236.056,-22.1379 242.362,-19.5152"/>
<polygon fill="midnightblue" stroke="midnightblue" points="159.442,-85.3566 155.869,-95.3309 164.882,-89.7616 159.442,-85.3566"/>
</g>
<!-- Node48 -->
<g id="node48" class="node"><title>Node48</title>
<g id="a_node48"><a xlink:href="../../d8/d7a/llex_8c.html#a436a66722128b5e44db3efccaa922aa6" target="_top" xlink:title="read_long_string">
<polygon fill="none" stroke="black" points="230.5,-38.5 230.5,-57.5 315.5,-57.5 315.5,-38.5 230.5,-38.5"/>
<text text-anchor="middle" x="273" y="-45.5" font-family="Helvetica,sans-Serif" font-size="10.00">read_long_string</text>
</a>
</g>
</g>
<!-- Node44&#45;&gt;Node48 -->
<g id="edge56" class="edge"><title>Node44&#45;&gt;Node48</title>
<path fill="none" stroke="midnightblue" d="M178.308,-91.2426C200.872,-80.8281 231.29,-66.7892 251.261,-57.5716"/>
<polygon fill="midnightblue" stroke="midnightblue" points="176.784,-88.091 169.171,-95.4595 179.717,-94.4467 176.784,-88.091"/>
</g>
<!-- Node49 -->
<g id="node49" class="node"><title>Node49</title>
<g id="a_node49"><a xlink:href="../../d8/d7a/llex_8c.html#a5a2d8bb78e2b8e9ee25f901c811b2275" target="_top" xlink:title="read_string">
<polygon fill="none" stroke="black" points="242,-114.5 242,-133.5 304,-133.5 304,-114.5 242,-114.5"/>
<text text-anchor="middle" x="273" y="-121.5" font-family="Helvetica,sans-Serif" font-size="10.00">read_string</text>
</a>
</g>
</g>
<!-- Node44&#45;&gt;Node49 -->
<g id="edge58" class="edge"><title>Node44&#45;&gt;Node49</title>
<path fill="none" stroke="midnightblue" d="M198.251,-112.654C212.969,-114.918 228.633,-117.328 241.722,-119.342"/>
<polygon fill="midnightblue" stroke="midnightblue" points="198.672,-109.178 188.256,-111.116 197.607,-116.096 198.672,-109.178"/>
</g>
<!-- Node48&#45;&gt;Node46 -->
<g id="edge57" class="edge"><title>Node48&#45;&gt;Node46</title>
<path fill="none" stroke="midnightblue" d="M314.974,-60.6073C338.631,-67.8864 366.893,-76.5826 383.453,-81.6779"/>
<polygon fill="midnightblue" stroke="midnightblue" points="315.751,-57.1847 305.164,-57.589 313.693,-63.8752 315.751,-57.1847"/>
</g>
<!-- Node49&#45;&gt;Node46 -->
<g id="edge59" class="edge"><title>Node49&#45;&gt;Node46</title>
<path fill="none" stroke="midnightblue" d="M314.036,-111.681C337.773,-104.377 366.417,-95.5641 383.227,-90.3916"/>
<polygon fill="midnightblue" stroke="midnightblue" points="312.74,-108.418 304.211,-114.704 314.799,-115.108 312.74,-108.418"/>
</g>
<!-- Node50&#45;&gt;Node39 -->
<g id="edge61" class="edge"><title>Node50&#45;&gt;Node39</title>
<path fill="none" stroke="midnightblue" d="M181.996,-352C195.496,-352 211.293,-352 225.851,-352"/>
<polygon fill="midnightblue" stroke="midnightblue" points="181.729,-348.5 171.729,-352 181.729,-355.5 181.729,-348.5"/>
</g>
</g>
</svg>
