<?xml version="1.0" encoding="UTF-8" standalone="no"?>
<!DOCTYPE svg PUBLIC "-//W3C//DTD SVG 1.1//EN"
 "http://www.w3.org/Graphics/SVG/1.1/DTD/svg11.dtd">
<!-- Generated by graphviz version 2.34.0 (20131008.0448)
 -->
<!-- Title: &#45;[KenshoLuaWrapper evaluate] Pages: 1 -->
<svg width="582pt" height="172pt"
 viewBox="0.00 0.00 582.00 172.00" xmlns="http://www.w3.org/2000/svg" xmlns:xlink="http://www.w3.org/1999/xlink">
<g id="graph0" class="graph" transform="scale(1 1) rotate(0) translate(4 168)">
<title>&#45;[KenshoLuaWrapper evaluate]</title>
<!-- Node1 -->
<g id="node1" class="node"><title>Node1</title>
<polygon fill="#bfbfbf" stroke="black" points="0.4885,-57 0.4885,-89 111.511,-89 111.511,-57 0.4885,-57"/>
<text text-anchor="start" x="8.4885" y="-76" font-family="Helvetica,sans-Serif" font-size="10.00">&#45;[KenshoLuaWrapper</text>
<text text-anchor="middle" x="56" y="-64" font-family="Helvetica,sans-Serif" font-size="10.00"> evaluate]</text>
</g>
<!-- Node2 -->
<g id="node2" class="node"><title>Node2</title>
<g id="a_node2"><a xlink:href="../../dc/de7/interface_kensho_lua_wrapper.html#a5555e0979799446611baee70104555c6" target="_top" xlink:title="&#45;[KenshoLuaWrapper\l evaluate:]">
<polygon fill="none" stroke="black" points="152.488,-114 152.488,-146 263.512,-146 263.512,-114 152.488,-114"/>
<text text-anchor="start" x="160.488" y="-133" font-family="Helvetica,sans-Serif" font-size="10.00">&#45;[KenshoLuaWrapper</text>
<text text-anchor="middle" x="208" y="-121" font-family="Helvetica,sans-Serif" font-size="10.00"> evaluate:]</text>
</a>
</g>
</g>
<!-- Node1&#45;&gt;Node2 -->
<g id="edge1" class="edge"><title>Node1&#45;&gt;Node2</title>
<path fill="none" stroke="midnightblue" d="M108.571,-92.5971C126.94,-99.5771 147.393,-107.349 164.874,-113.992"/>
<polygon fill="midnightblue" stroke="midnightblue" points="109.774,-89.3099 99.1825,-89.0294 107.287,-95.8534 109.774,-89.3099"/>
</g>
<!-- Node5 -->
<g id="node5" class="node"><title>Node5</title>
<g id="a_node5"><a xlink:href="../../dc/de7/interface_kensho_lua_wrapper.html#af6db46358f8858a18b55388aa3af211d" target="_top" xlink:title="&#45;[KenshoLuaWrapper\l initWithKensho:context\l:code:]">
<polygon fill="none" stroke="black" points="147.765,-51 147.765,-95 268.235,-95 268.235,-51 147.765,-51"/>
<text text-anchor="start" x="155.765" y="-82" font-family="Helvetica,sans-Serif" font-size="10.00">&#45;[KenshoLuaWrapper</text>
<text text-anchor="start" x="155.765" y="-70" font-family="Helvetica,sans-Serif" font-size="10.00"> initWithKensho:context</text>
<text text-anchor="middle" x="208" y="-58" font-family="Helvetica,sans-Serif" font-size="10.00">:code:]</text>
</a>
</g>
</g>
<!-- Node1&#45;&gt;Node5 -->
<g id="edge5" class="edge"><title>Node1&#45;&gt;Node5</title>
<path fill="none" stroke="midnightblue" d="M121.616,-73C130.264,-73 139.1,-73 147.652,-73"/>
<polygon fill="midnightblue" stroke="midnightblue" points="121.578,-69.5001 111.578,-73 121.578,-76.5001 121.578,-69.5001"/>
</g>
<!-- Node6 -->
<g id="node6" class="node"><title>Node6</title>
<g id="a_node6"><a xlink:href="../../dc/de7/interface_kensho_lua_wrapper.html#a0bb5e125d727942726d707f8b59009dc" target="_top" xlink:title="&#45;[KenshoLuaWrapper\l observableUpdated:]">
<polygon fill="none" stroke="black" points="152.484,-0 152.484,-32 263.516,-32 263.516,-0 152.484,-0"/>
<text text-anchor="start" x="160.484" y="-19" font-family="Helvetica,sans-Serif" font-size="10.00">&#45;[KenshoLuaWrapper</text>
<text text-anchor="middle" x="208" y="-7" font-family="Helvetica,sans-Serif" font-size="10.00"> observableUpdated:]</text>
</a>
</g>
</g>
<!-- Node1&#45;&gt;Node6 -->
<g id="edge6" class="edge"><title>Node1&#45;&gt;Node6</title>
<path fill="none" stroke="midnightblue" d="M108.571,-53.4029C126.94,-46.4229 147.393,-38.6508 164.874,-32.0077"/>
<polygon fill="midnightblue" stroke="midnightblue" points="107.287,-50.1466 99.1825,-56.9706 109.774,-56.6901 107.287,-50.1466"/>
</g>
<!-- Node3 -->
<g id="node3" class="node"><title>Node3</title>
<g id="a_node3"><a xlink:href="../../da/d0b/interface_kensho.html#a07b4d14db676108e1a94a1f10e100fb4" target="_top" xlink:title="&#45;[Kensho bindToView\l:context:]">
<polygon fill="none" stroke="black" points="304.489,-114 304.489,-146 415.511,-146 415.511,-114 304.489,-114"/>
<text text-anchor="start" x="312.489" y="-133" font-family="Helvetica,sans-Serif" font-size="10.00">&#45;[Kensho bindToView</text>
<text text-anchor="middle" x="360" y="-121" font-family="Helvetica,sans-Serif" font-size="10.00">:context:]</text>
</a>
</g>
</g>
<!-- Node2&#45;&gt;Node3 -->
<g id="edge2" class="edge"><title>Node2&#45;&gt;Node3</title>
<path fill="none" stroke="midnightblue" d="M273.712,-130C283.963,-130 294.475,-130 304.463,-130"/>
<polygon fill="midnightblue" stroke="midnightblue" points="273.578,-126.5 263.578,-130 273.578,-133.5 273.578,-126.5"/>
</g>
<!-- Node3&#45;&gt;Node3 -->
<g id="edge4" class="edge"><title>Node3&#45;&gt;Node3</title>
<path fill="none" stroke="midnightblue" d="M333.25,-156.19C336.792,-160.794 345.708,-164 360,-164 383.453,-164 392.431,-155.366 386.934,-146.091"/>
<polygon fill="midnightblue" stroke="midnightblue" points="336.748,-156.025 333.066,-146.091 329.749,-156.153 336.748,-156.025"/>
</g>
<!-- Node4 -->
<g id="node4" class="node"><title>Node4</title>
<g id="a_node4"><a xlink:href="../../da/d0b/interface_kensho.html#a1019e8223ee907bab87501ae483e609f" target="_top" xlink:title="&#45;[Kensho applyBindings\l:viewModel:]">
<polygon fill="none" stroke="black" points="452.485,-114 452.485,-146 573.515,-146 573.515,-114 452.485,-114"/>
<text text-anchor="start" x="460.485" y="-133" font-family="Helvetica,sans-Serif" font-size="10.00">&#45;[Kensho applyBindings</text>
<text text-anchor="middle" x="513" y="-121" font-family="Helvetica,sans-Serif" font-size="10.00">:viewModel:]</text>
</a>
</g>
</g>
<!-- Node3&#45;&gt;Node4 -->
<g id="edge3" class="edge"><title>Node3&#45;&gt;Node4</title>
<path fill="none" stroke="midnightblue" d="M425.788,-130C434.644,-130 443.7,-130 452.456,-130"/>
<polygon fill="midnightblue" stroke="midnightblue" points="425.514,-126.5 415.514,-130 425.514,-133.5 425.514,-126.5"/>
</g>
</g>
</svg>
