<?xml version="1.0" encoding="UTF-8" standalone="no"?>
<!DOCTYPE svg PUBLIC "-//W3C//DTD SVG 1.1//EN"
 "http://www.w3.org/Graphics/SVG/1.1/DTD/svg11.dtd">
<!-- Generated by graphviz version 2.34.0 (20131008.0448)
 -->
<!-- Title: &#45;[UIView(UpdateAutoLayoutConstraints) constraintForAttribute:] Pages: 1 -->
<svg width="772pt" height="115pt"
 viewBox="0.00 0.00 772.00 115.00" xmlns="http://www.w3.org/2000/svg" xmlns:xlink="http://www.w3.org/1999/xlink">
<g id="graph0" class="graph" transform="scale(1 1) rotate(0) translate(4 111)">
<title>&#45;[UIView(UpdateAutoLayoutConstraints) constraintForAttribute:]</title>
<!-- Node1 -->
<g id="node1" class="node"><title>Node1</title>
<polygon fill="#bfbfbf" stroke="black" points="0.1015,-37 0.1015,-69 173.899,-69 173.899,-37 0.1015,-37"/>
<text text-anchor="start" x="8.1015" y="-56" font-family="Helvetica,sans-Serif" font-size="10.00">&#45;[UIView(UpdateAutoLayout</text>
<text text-anchor="middle" x="87" y="-44" font-family="Helvetica,sans-Serif" font-size="10.00">Constraints) constraintForAttribute:]</text>
</g>
<!-- Node2 -->
<g id="node2" class="node"><title>Node2</title>
<g id="a_node2"><a xlink:href="../../de/ddf/category_u_i_view_07_update_auto_layout_constraints_08.html#ad1cdb22477740948aa153101c2c92195" target="_top" xlink:title="&#45;[UIView(UpdateAutoLayout\lConstraints) constraintConstantfor\lAttribute:]">
<polygon fill="none" stroke="black" points="212.155,-63 212.155,-107 379.846,-107 379.846,-63 212.155,-63"/>
<text text-anchor="start" x="220.155" y="-94" font-family="Helvetica,sans-Serif" font-size="10.00">&#45;[UIView(UpdateAutoLayout</text>
<text text-anchor="start" x="220.155" y="-82" font-family="Helvetica,sans-Serif" font-size="10.00">Constraints) constraintConstantfor</text>
<text text-anchor="middle" x="296" y="-70" font-family="Helvetica,sans-Serif" font-size="10.00">Attribute:]</text>
</a>
</g>
</g>
<!-- Node1&#45;&gt;Node2 -->
<g id="edge1" class="edge"><title>Node1&#45;&gt;Node2</title>
<path fill="none" stroke="midnightblue" d="M184.051,-67.8485C193.367,-69.2887 202.765,-70.7414 211.939,-72.1596"/>
<polygon fill="midnightblue" stroke="midnightblue" points="184.406,-64.3618 173.988,-66.2929 183.336,-71.2796 184.406,-64.3618"/>
</g>
<!-- Node6 -->
<g id="node6" class="node"><title>Node6</title>
<g id="a_node6"><a xlink:href="../../de/ddf/category_u_i_view_07_update_auto_layout_constraints_08.html#a2cb6a9d4c8e8c3e052dc607576dc919f" target="_top" xlink:title="&#45;[UIView(UpdateAutoLayout\lConstraints) setConstraintConstant\l:forAttribute:]">
<polygon fill="none" stroke="black" points="210.209,-0 210.209,-44 381.791,-44 381.791,-0 210.209,-0"/>
<text text-anchor="start" x="218.209" y="-31" font-family="Helvetica,sans-Serif" font-size="10.00">&#45;[UIView(UpdateAutoLayout</text>
<text text-anchor="start" x="218.209" y="-19" font-family="Helvetica,sans-Serif" font-size="10.00">Constraints) setConstraintConstant</text>
<text text-anchor="middle" x="296" y="-7" font-family="Helvetica,sans-Serif" font-size="10.00">:forAttribute:]</text>
</a>
</g>
</g>
<!-- Node1&#45;&gt;Node6 -->
<g id="edge5" class="edge"><title>Node1&#45;&gt;Node6</title>
<path fill="none" stroke="midnightblue" d="M184.078,-38.6116C192.712,-37.3186 201.415,-36.0152 209.945,-34.7377"/>
<polygon fill="midnightblue" stroke="midnightblue" points="183.36,-35.18 173.988,-40.1225 184.396,-42.1028 183.36,-35.18"/>
</g>
<!-- Node3 -->
<g id="node3" class="node"><title>Node3</title>
<g id="a_node3"><a xlink:href="../../de/ddf/category_u_i_view_07_update_auto_layout_constraints_08.html#ad85af24a622185126af1e6bfe557810d" target="_top" xlink:title="&#45;[UIView(UpdateAutoLayout\lConstraints) hideView:byAttribute:]">
<polygon fill="none" stroke="black" points="418.321,-37 418.321,-69 587.679,-69 587.679,-37 418.321,-37"/>
<text text-anchor="start" x="426.321" y="-56" font-family="Helvetica,sans-Serif" font-size="10.00">&#45;[UIView(UpdateAutoLayout</text>
<text text-anchor="middle" x="503" y="-44" font-family="Helvetica,sans-Serif" font-size="10.00">Constraints) hideView:byAttribute:]</text>
</a>
</g>
</g>
<!-- Node2&#45;&gt;Node3 -->
<g id="edge2" class="edge"><title>Node2&#45;&gt;Node3</title>
<path fill="none" stroke="midnightblue" d="M390.15,-70.4595C399.477,-69.0036 408.907,-67.5316 418.129,-66.092"/>
<polygon fill="midnightblue" stroke="midnightblue" points="389.426,-67.03 380.086,-72.0305 390.506,-73.9462 389.426,-67.03"/>
</g>
<!-- Node4 -->
<g id="node4" class="node"><title>Node4</title>
<g id="a_node4"><a xlink:href="../../de/ddf/category_u_i_view_07_update_auto_layout_constraints_08.html#a9cc6ac66a1c56b6186291f3c88cd068c" target="_top" xlink:title="&#45;[UIView(UpdateAutoLayout\lConstraints) hideByHeight:]">
<polygon fill="none" stroke="black" points="624.042,-63 624.042,-95 763.958,-95 763.958,-63 624.042,-63"/>
<text text-anchor="start" x="632.042" y="-82" font-family="Helvetica,sans-Serif" font-size="10.00">&#45;[UIView(UpdateAutoLayout</text>
<text text-anchor="middle" x="694" y="-70" font-family="Helvetica,sans-Serif" font-size="10.00">Constraints) hideByHeight:]</text>
</a>
</g>
</g>
<!-- Node3&#45;&gt;Node4 -->
<g id="edge3" class="edge"><title>Node3&#45;&gt;Node4</title>
<path fill="none" stroke="midnightblue" d="M597.642,-65.882C606.445,-67.0929 615.258,-68.3053 623.775,-69.477"/>
<polygon fill="midnightblue" stroke="midnightblue" points="598.107,-62.4131 587.724,-64.5175 597.153,-69.3478 598.107,-62.4131"/>
</g>
<!-- Node5 -->
<g id="node5" class="node"><title>Node5</title>
<g id="a_node5"><a xlink:href="../../de/ddf/category_u_i_view_07_update_auto_layout_constraints_08.html#a3320f7cacc55353291260042e840a351" target="_top" xlink:title="&#45;[UIView(UpdateAutoLayout\lConstraints) hideByWidth:]">
<polygon fill="none" stroke="black" points="624.042,-12 624.042,-44 763.958,-44 763.958,-12 624.042,-12"/>
<text text-anchor="start" x="632.042" y="-31" font-family="Helvetica,sans-Serif" font-size="10.00">&#45;[UIView(UpdateAutoLayout</text>
<text text-anchor="middle" x="694" y="-19" font-family="Helvetica,sans-Serif" font-size="10.00">Constraints) hideByWidth:]</text>
</a>
</g>
</g>
<!-- Node3&#45;&gt;Node5 -->
<g id="edge4" class="edge"><title>Node3&#45;&gt;Node5</title>
<path fill="none" stroke="midnightblue" d="M597.642,-40.6135C606.445,-39.4491 615.258,-38.2834 623.775,-37.1567"/>
<polygon fill="midnightblue" stroke="midnightblue" points="597.178,-37.1443 587.724,-41.9255 598.096,-44.0838 597.178,-37.1443"/>
</g>
<!-- Node6&#45;&gt;Node3 -->
<g id="edge6" class="edge"><title>Node6&#45;&gt;Node3</title>
<path fill="none" stroke="midnightblue" d="M391.771,-36.3312C400.589,-37.6647 409.484,-39.0098 418.193,-40.3267"/>
<polygon fill="midnightblue" stroke="midnightblue" points="392.272,-32.8673 381.861,-34.8327 391.225,-39.7886 392.272,-32.8673"/>
</g>
</g>
</svg>
