<?xml version="1.0" encoding="UTF-8" standalone="no"?>
<!DOCTYPE svg PUBLIC "-//W3C//DTD SVG 1.1//EN"
 "http://www.w3.org/Graphics/SVG/1.1/DTD/svg11.dtd">
<!-- Generated by graphviz version 2.34.0 (20131008.0448)
 -->
<!-- Title: &#45;[UIView(UpdateAutoLayoutConstraints) constraintConstantforAttribute:] Pages: 1 -->
<svg width="558pt" height="91pt"
 viewBox="0.00 0.00 558.00 91.00" xmlns="http://www.w3.org/2000/svg" xmlns:xlink="http://www.w3.org/1999/xlink">
<g id="graph0" class="graph" transform="scale(1 1) rotate(0) translate(4 87)">
<title>&#45;[UIView(UpdateAutoLayoutConstraints) constraintConstantforAttribute:]</title>
<!-- Node1 -->
<g id="node1" class="node"><title>Node1</title>
<polygon fill="#bfbfbf" stroke="black" points="0.1545,-19 0.1545,-63 167.845,-63 167.845,-19 0.1545,-19"/>
<text text-anchor="start" x="8.1545" y="-50" font-family="Helvetica,sans-Serif" font-size="10.00">&#45;[UIView(UpdateAutoLayout</text>
<text text-anchor="start" x="8.1545" y="-38" font-family="Helvetica,sans-Serif" font-size="10.00">Constraints) constraintConstantfor</text>
<text text-anchor="middle" x="84" y="-26" font-family="Helvetica,sans-Serif" font-size="10.00">Attribute:]</text>
</g>
<!-- Node2 -->
<g id="node2" class="node"><title>Node2</title>
<g id="a_node2"><a xlink:href="../../de/ddf/category_u_i_view_07_update_auto_layout_constraints_08.html#ad85af24a622185126af1e6bfe557810d" target="_top" xlink:title="&#45;[UIView(UpdateAutoLayout\lConstraints) hideView:byAttribute:]">
<polygon fill="none" stroke="black" points="204.321,-25 204.321,-57 373.679,-57 373.679,-25 204.321,-25"/>
<text text-anchor="start" x="212.321" y="-44" font-family="Helvetica,sans-Serif" font-size="10.00">&#45;[UIView(UpdateAutoLayout</text>
<text text-anchor="middle" x="289" y="-32" font-family="Helvetica,sans-Serif" font-size="10.00">Constraints) hideView:byAttribute:]</text>
</a>
</g>
</g>
<!-- Node1&#45;&gt;Node2 -->
<g id="edge1" class="edge"><title>Node1&#45;&gt;Node2</title>
<path fill="none" stroke="midnightblue" d="M178.013,-41C186.707,-41 195.484,-41 204.088,-41"/>
<polygon fill="midnightblue" stroke="midnightblue" points="177.861,-37.5001 167.861,-41 177.861,-44.5001 177.861,-37.5001"/>
</g>
<!-- Node3 -->
<g id="node3" class="node"><title>Node3</title>
<g id="a_node3"><a xlink:href="../../de/ddf/category_u_i_view_07_update_auto_layout_constraints_08.html#a9cc6ac66a1c56b6186291f3c88cd068c" target="_top" xlink:title="&#45;[UIView(UpdateAutoLayout\lConstraints) hideByHeight:]">
<polygon fill="none" stroke="black" points="410.042,-51 410.042,-83 549.958,-83 549.958,-51 410.042,-51"/>
<text text-anchor="start" x="418.042" y="-70" font-family="Helvetica,sans-Serif" font-size="10.00">&#45;[UIView(UpdateAutoLayout</text>
<text text-anchor="middle" x="480" y="-58" font-family="Helvetica,sans-Serif" font-size="10.00">Constraints) hideByHeight:]</text>
</a>
</g>
</g>
<!-- Node2&#45;&gt;Node3 -->
<g id="edge2" class="edge"><title>Node2&#45;&gt;Node3</title>
<path fill="none" stroke="midnightblue" d="M383.642,-53.882C392.445,-55.0929 401.258,-56.3053 409.775,-57.477"/>
<polygon fill="midnightblue" stroke="midnightblue" points="384.107,-50.4131 373.724,-52.5175 383.153,-57.3478 384.107,-50.4131"/>
</g>
<!-- Node4 -->
<g id="node4" class="node"><title>Node4</title>
<g id="a_node4"><a xlink:href="../../de/ddf/category_u_i_view_07_update_auto_layout_constraints_08.html#a3320f7cacc55353291260042e840a351" target="_top" xlink:title="&#45;[UIView(UpdateAutoLayout\lConstraints) hideByWidth:]">
<polygon fill="none" stroke="black" points="410.042,-0 410.042,-32 549.958,-32 549.958,-0 410.042,-0"/>
<text text-anchor="start" x="418.042" y="-19" font-family="Helvetica,sans-Serif" font-size="10.00">&#45;[UIView(UpdateAutoLayout</text>
<text text-anchor="middle" x="480" y="-7" font-family="Helvetica,sans-Serif" font-size="10.00">Constraints) hideByWidth:]</text>
</a>
</g>
</g>
<!-- Node2&#45;&gt;Node4 -->
<g id="edge3" class="edge"><title>Node2&#45;&gt;Node4</title>
<path fill="none" stroke="midnightblue" d="M383.642,-28.6135C392.445,-27.4491 401.258,-26.2834 409.775,-25.1567"/>
<polygon fill="midnightblue" stroke="midnightblue" points="383.178,-25.1443 373.724,-29.9255 384.096,-32.0838 383.178,-25.1443"/>
</g>
</g>
</svg>
