<?xml version="1.0" encoding="UTF-8" standalone="no"?>
<!DOCTYPE svg PUBLIC "-//W3C//DTD SVG 1.1//EN"
 "http://www.w3.org/Graphics/SVG/1.1/DTD/svg11.dtd">
<!-- Generated by graphviz version 2.38.0 (20140413.2041)
 -->
<!-- Title: &#45;[UIView(UpdateAutoLayoutConstraints) constraintConstantforAttribute:] Pages: 1 -->
<svg width="558pt" height="88pt"
 viewBox="0.00 0.00 558.00 88.00" xmlns="http://www.w3.org/2000/svg" xmlns:xlink="http://www.w3.org/1999/xlink">
<g id="graph0" class="graph" transform="scale(1 1) rotate(0) translate(4 84)">
<title>&#45;[UIView(UpdateAutoLayoutConstraints) constraintConstantforAttribute:]</title>
<!-- Node1 -->
<g id="node1" class="node"><title>Node1</title>
<polygon fill="#bfbfbf" stroke="black" points="0,-19 0,-60 168,-60 168,-19 0,-19"/>
<text text-anchor="start" x="8" y="-48" font-family="Helvetica,sans-Serif" font-size="10.00">&#45;[UIView(UpdateAutoLayout</text>
<text text-anchor="start" x="8" y="-37" font-family="Helvetica,sans-Serif" font-size="10.00">Constraints) constraintConstantfor</text>
<text text-anchor="middle" x="84" y="-26" font-family="Helvetica,sans-Serif" font-size="10.00">Attribute:]</text>
</g>
<!-- Node2 -->
<g id="node2" class="node"><title>Node2</title>
<g id="a_node2"><a xlink:href="../../de/ddf/category_u_i_view_07_update_auto_layout_constraints_08.html#ad85af24a622185126af1e6bfe557810d" target="_top" xlink:title="&#45;[UIView(UpdateAutoLayout\lConstraints) hideView:byAttribute:]">
<polygon fill="none" stroke="black" points="204,-24.5 204,-54.5 374,-54.5 374,-24.5 204,-24.5"/>
<text text-anchor="start" x="212" y="-42.5" font-family="Helvetica,sans-Serif" font-size="10.00">&#45;[UIView(UpdateAutoLayout</text>
<text text-anchor="middle" x="289" y="-31.5" font-family="Helvetica,sans-Serif" font-size="10.00">Constraints) hideView:byAttribute:]</text>
</a>
</g>
</g>
<!-- Node1&#45;&gt;Node2 -->
<g id="edge1" class="edge"><title>Node1&#45;&gt;Node2</title>
<path fill="none" stroke="midnightblue" d="M178.198,-39.5C186.798,-39.5 195.479,-39.5 203.99,-39.5"/>
<polygon fill="midnightblue" stroke="midnightblue" points="178.154,-36.0001 168.154,-39.5 178.154,-43.0001 178.154,-36.0001"/>
</g>
<!-- Node3 -->
<g id="node3" class="node"><title>Node3</title>
<g id="a_node3"><a xlink:href="../../de/ddf/category_u_i_view_07_update_auto_layout_constraints_08.html#a9cc6ac66a1c56b6186291f3c88cd068c" target="_top" xlink:title="&#45;[UIView(UpdateAutoLayout\lConstraints) hideByHeight:]">
<polygon fill="none" stroke="black" points="410,-49.5 410,-79.5 550,-79.5 550,-49.5 410,-49.5"/>
<text text-anchor="start" x="418" y="-67.5" font-family="Helvetica,sans-Serif" font-size="10.00">&#45;[UIView(UpdateAutoLayout</text>
<text text-anchor="middle" x="480" y="-56.5" font-family="Helvetica,sans-Serif" font-size="10.00">Constraints) hideByHeight:]</text>
</a>
</g>
</g>
<!-- Node2&#45;&gt;Node3 -->
<g id="edge2" class="edge"><title>Node2&#45;&gt;Node3</title>
<path fill="none" stroke="midnightblue" d="M384.359,-51.9813C392.965,-53.1197 401.572,-54.2582 409.896,-55.3592"/>
<polygon fill="midnightblue" stroke="midnightblue" points="384.647,-48.489 374.274,-50.6474 383.729,-55.4286 384.647,-48.489"/>
</g>
<!-- Node4 -->
<g id="node4" class="node"><title>Node4</title>
<g id="a_node4"><a xlink:href="../../de/ddf/category_u_i_view_07_update_auto_layout_constraints_08.html#a3320f7cacc55353291260042e840a351" target="_top" xlink:title="&#45;[UIView(UpdateAutoLayout\lConstraints) hideByWidth:]">
<polygon fill="none" stroke="black" points="410,-0.5 410,-30.5 550,-30.5 550,-0.5 410,-0.5"/>
<text text-anchor="start" x="418" y="-18.5" font-family="Helvetica,sans-Serif" font-size="10.00">&#45;[UIView(UpdateAutoLayout</text>
<text text-anchor="middle" x="480" y="-7.5" font-family="Helvetica,sans-Serif" font-size="10.00">Constraints) hideByWidth:]</text>
</a>
</g>
</g>
<!-- Node2&#45;&gt;Node4 -->
<g id="edge3" class="edge"><title>Node2&#45;&gt;Node4</title>
<path fill="none" stroke="midnightblue" d="M384.359,-27.5179C392.965,-26.4251 401.572,-25.3321 409.896,-24.2751"/>
<polygon fill="midnightblue" stroke="midnightblue" points="383.754,-24.0666 374.274,-28.7985 384.635,-31.0108 383.754,-24.0666"/>
</g>
</g>
</svg>
