<?xml version="1.0" encoding="UTF-8" standalone="no"?>
<!DOCTYPE svg PUBLIC "-//W3C//DTD SVG 1.1//EN"
 "http://www.w3.org/Graphics/SVG/1.1/DTD/svg11.dtd">
<!-- Generated by graphviz version 2.38.0 (20140413.2041)
 -->
<!-- Title: &#45;[UIView(UpdateAutoLayoutConstraints) updateSizes] Pages: 1 -->
<svg width="714pt" height="113pt"
 viewBox="0.00 0.00 714.00 113.00" xmlns="http://www.w3.org/2000/svg" xmlns:xlink="http://www.w3.org/1999/xlink">
<g id="graph0" class="graph" transform="scale(1 1) rotate(0) translate(4 109)">
<title>&#45;[UIView(UpdateAutoLayoutConstraints) updateSizes]</title>
<!-- Node1 -->
<g id="node1" class="node"><title>Node1</title>
<polygon fill="#bfbfbf" stroke="black" points="0,-24.5 0,-54.5 140,-54.5 140,-24.5 0,-24.5"/>
<text text-anchor="start" x="8" y="-42.5" font-family="Helvetica,sans-Serif" font-size="10.00">&#45;[UIView(UpdateAutoLayout</text>
<text text-anchor="middle" x="70" y="-31.5" font-family="Helvetica,sans-Serif" font-size="10.00">Constraints) updateSizes]</text>
</g>
<!-- Node2 -->
<g id="node2" class="node"><title>Node2</title>
<g id="a_node2"><a xlink:href="../../de/ddf/category_u_i_view_07_update_auto_layout_constraints_08.html#a762463ca819bd2994ad7cd36d352dbcb" target="_top" xlink:title="&#45;[UIView(UpdateAutoLayout\lConstraints) getSize]">
<polygon fill="none" stroke="black" points="180,-49.5 180,-79.5 320,-79.5 320,-49.5 180,-49.5"/>
<text text-anchor="start" x="188" y="-67.5" font-family="Helvetica,sans-Serif" font-size="10.00">&#45;[UIView(UpdateAutoLayout</text>
<text text-anchor="middle" x="250" y="-56.5" font-family="Helvetica,sans-Serif" font-size="10.00">Constraints) getSize]</text>
</a>
</g>
</g>
<!-- Node1&#45;&gt;Node2 -->
<g id="edge1" class="edge"><title>Node1&#45;&gt;Node2</title>
<path fill="none" stroke="midnightblue" d="M149.99,-50.5941C159.982,-51.9975 170.144,-53.4248 179.965,-54.804"/>
<polygon fill="midnightblue" stroke="midnightblue" points="150.464,-47.1264 140.074,-49.2014 149.49,-54.0583 150.464,-47.1264"/>
</g>
<!-- Node6 -->
<g id="node6" class="node"><title>Node6</title>
<g id="a_node6"><a xlink:href="../../de/ddf/category_u_i_view_07_update_auto_layout_constraints_08.html#abf3d1d461205e55813e1bd1fe84e17db" target="_top" xlink:title="&#45;[UIView(UpdateAutoLayout\lConstraints) sizeToSubviews]">
<polygon fill="none" stroke="black" points="176,-0.5 176,-30.5 324,-30.5 324,-0.5 176,-0.5"/>
<text text-anchor="start" x="184" y="-18.5" font-family="Helvetica,sans-Serif" font-size="10.00">&#45;[UIView(UpdateAutoLayout</text>
<text text-anchor="middle" x="250" y="-7.5" font-family="Helvetica,sans-Serif" font-size="10.00">Constraints) sizeToSubviews]</text>
</a>
</g>
</g>
<!-- Node1&#45;&gt;Node6 -->
<g id="edge5" class="edge"><title>Node1&#45;&gt;Node6</title>
<path fill="none" stroke="midnightblue" d="M150.065,-28.8396C158.641,-27.6833 167.341,-26.5102 175.842,-25.364"/>
<polygon fill="midnightblue" stroke="midnightblue" points="149.517,-25.3817 140.074,-30.1866 150.452,-32.3189 149.517,-25.3817"/>
</g>
<!-- Node3 -->
<g id="node3" class="node"><title>Node3</title>
<g id="a_node3"><a xlink:href="../../de/ddf/category_u_i_view_07_update_auto_layout_constraints_08.html#ad85af24a622185126af1e6bfe557810d" target="_top" xlink:title="&#45;[UIView(UpdateAutoLayout\lConstraints) hideView:byAttribute:]">
<polygon fill="none" stroke="black" points="360,-49.5 360,-79.5 530,-79.5 530,-49.5 360,-49.5"/>
<text text-anchor="start" x="368" y="-67.5" font-family="Helvetica,sans-Serif" font-size="10.00">&#45;[UIView(UpdateAutoLayout</text>
<text text-anchor="middle" x="445" y="-56.5" font-family="Helvetica,sans-Serif" font-size="10.00">Constraints) hideView:byAttribute:]</text>
</a>
</g>
</g>
<!-- Node2&#45;&gt;Node3 -->
<g id="edge2" class="edge"><title>Node2&#45;&gt;Node3</title>
<path fill="none" stroke="midnightblue" d="M330.211,-64.5C339.985,-64.5 350.003,-64.5 359.846,-64.5"/>
<polygon fill="midnightblue" stroke="midnightblue" points="330.132,-61.0001 320.132,-64.5 330.132,-68.0001 330.132,-61.0001"/>
</g>
<!-- Node4 -->
<g id="node4" class="node"><title>Node4</title>
<g id="a_node4"><a xlink:href="../../de/ddf/category_u_i_view_07_update_auto_layout_constraints_08.html#a9cc6ac66a1c56b6186291f3c88cd068c" target="_top" xlink:title="&#45;[UIView(UpdateAutoLayout\lConstraints) hideByHeight:]">
<polygon fill="none" stroke="black" points="566,-74.5 566,-104.5 706,-104.5 706,-74.5 566,-74.5"/>
<text text-anchor="start" x="574" y="-92.5" font-family="Helvetica,sans-Serif" font-size="10.00">&#45;[UIView(UpdateAutoLayout</text>
<text text-anchor="middle" x="636" y="-81.5" font-family="Helvetica,sans-Serif" font-size="10.00">Constraints) hideByHeight:]</text>
</a>
</g>
</g>
<!-- Node3&#45;&gt;Node4 -->
<g id="edge3" class="edge"><title>Node3&#45;&gt;Node4</title>
<path fill="none" stroke="midnightblue" d="M540.359,-76.9813C548.965,-78.1197 557.572,-79.2582 565.896,-80.3592"/>
<polygon fill="midnightblue" stroke="midnightblue" points="540.647,-73.489 530.274,-75.6474 539.729,-80.4286 540.647,-73.489"/>
</g>
<!-- Node5 -->
<g id="node5" class="node"><title>Node5</title>
<g id="a_node5"><a xlink:href="../../de/ddf/category_u_i_view_07_update_auto_layout_constraints_08.html#a3320f7cacc55353291260042e840a351" target="_top" xlink:title="&#45;[UIView(UpdateAutoLayout\lConstraints) hideByWidth:]">
<polygon fill="none" stroke="black" points="566,-25.5 566,-55.5 706,-55.5 706,-25.5 566,-25.5"/>
<text text-anchor="start" x="574" y="-43.5" font-family="Helvetica,sans-Serif" font-size="10.00">&#45;[UIView(UpdateAutoLayout</text>
<text text-anchor="middle" x="636" y="-32.5" font-family="Helvetica,sans-Serif" font-size="10.00">Constraints) hideByWidth:]</text>
</a>
</g>
</g>
<!-- Node3&#45;&gt;Node5 -->
<g id="edge4" class="edge"><title>Node3&#45;&gt;Node5</title>
<path fill="none" stroke="midnightblue" d="M540.359,-52.5179C548.965,-51.4251 557.572,-50.3321 565.896,-49.2751"/>
<polygon fill="midnightblue" stroke="midnightblue" points="539.754,-49.0666 530.274,-53.7985 540.635,-56.0108 539.754,-49.0666"/>
</g>
</g>
</svg>
