<?xml version="1.0" encoding="UTF-8" standalone="no"?>
<!DOCTYPE svg PUBLIC "-//W3C//DTD SVG 1.1//EN"
 "http://www.w3.org/Graphics/SVG/1.1/DTD/svg11.dtd">
<!-- Generated by graphviz version 2.38.0 (20140413.2041)
 -->
<!-- Title: OCMAnyConstraint Pages: 1 -->
<svg width="125pt" height="309pt"
 viewBox="0.00 0.00 125.00 309.00" xmlns="http://www.w3.org/2000/svg" xmlns:xlink="http://www.w3.org/1999/xlink">
<g id="graph0" class="graph" transform="scale(1 1) rotate(0) translate(4 305)">
<title>OCMAnyConstraint</title>
<!-- Node1 -->
<g id="node1" class="node"><title>Node1</title>
<polygon fill="#bfbfbf" stroke="black" points="8,-0.5 8,-57.5 109,-57.5 109,-0.5 8,-0.5"/>
<text text-anchor="middle" x="58.5" y="-45.5" font-family="Helvetica,sans-Serif" font-size="10.00">OCMAnyConstraint</text>
<polyline fill="none" stroke="black" points="8,-38.5 109,-38.5 "/>
<text text-anchor="middle" x="58.5" y="-26.5" font-family="Helvetica,sans-Serif" font-size="10.00"> </text>
<polyline fill="none" stroke="black" points="8,-19.5 109,-19.5 "/>
<text text-anchor="middle" x="58.5" y="-7.5" font-family="Helvetica,sans-Serif" font-size="10.00"> </text>
</g>
<!-- Node2 -->
<g id="node2" class="node"><title>Node2</title>
<g id="a_node2"><a xlink:href="$db/db9/interface_o_c_m_constraint.html" xlink:title="{OCMConstraint\n||+ evaluate:\l+ constraint\l+ constraintWithSelector\l:onObject:\l+ constraintWithSelector\l:onObject:withValue:\l}">
<polygon fill="none" stroke="black" points="0,-94.5 0,-206.5 117,-206.5 117,-94.5 0,-94.5"/>
<text text-anchor="middle" x="58.5" y="-194.5" font-family="Helvetica,sans-Serif" font-size="10.00">OCMConstraint</text>
<polyline fill="none" stroke="black" points="0,-187.5 117,-187.5 "/>
<text text-anchor="middle" x="58.5" y="-175.5" font-family="Helvetica,sans-Serif" font-size="10.00"> </text>
<polyline fill="none" stroke="black" points="0,-168.5 117,-168.5 "/>
<text text-anchor="start" x="8" y="-156.5" font-family="Helvetica,sans-Serif" font-size="10.00">+ evaluate:</text>
<text text-anchor="start" x="8" y="-145.5" font-family="Helvetica,sans-Serif" font-size="10.00">+ constraint</text>
<text text-anchor="start" x="8" y="-134.5" font-family="Helvetica,sans-Serif" font-size="10.00">+ constraintWithSelector</text>
<text text-anchor="start" x="8" y="-123.5" font-family="Helvetica,sans-Serif" font-size="10.00">:onObject:</text>
<text text-anchor="start" x="8" y="-112.5" font-family="Helvetica,sans-Serif" font-size="10.00">+ constraintWithSelector</text>
<text text-anchor="start" x="8" y="-101.5" font-family="Helvetica,sans-Serif" font-size="10.00">:onObject:withValue:</text>
</a>
</g>
</g>
<!-- Node2&#45;&gt;Node1 -->
<g id="edge1" class="edge"><title>Node2&#45;&gt;Node1</title>
<path fill="none" stroke="midnightblue" d="M58.5,-84.146C58.5,-74.8172 58.5,-65.6722 58.5,-57.6315"/>
<polygon fill="none" stroke="midnightblue" points="55.0001,-84.2973 58.5,-94.2974 62.0001,-84.2974 55.0001,-84.2973"/>
</g>
<!-- Node3 -->
<g id="node3" class="node"><title>Node3</title>
<g id="a_node3"><a xlink:href="$d7/dc4/class_n_s_object.html" xlink:title="{NSObject\n||}">
<polygon fill="none" stroke="black" points="29,-243.5 29,-300.5 88,-300.5 88,-243.5 29,-243.5"/>
<text text-anchor="middle" x="58.5" y="-288.5" font-family="Helvetica,sans-Serif" font-size="10.00">NSObject</text>
<polyline fill="none" stroke="black" points="29,-281.5 88,-281.5 "/>
<text text-anchor="middle" x="58.5" y="-269.5" font-family="Helvetica,sans-Serif" font-size="10.00"> </text>
<polyline fill="none" stroke="black" points="29,-262.5 88,-262.5 "/>
<text text-anchor="middle" x="58.5" y="-250.5" font-family="Helvetica,sans-Serif" font-size="10.00"> </text>
</a>
</g>
</g>
<!-- Node3&#45;&gt;Node2 -->
<g id="edge2" class="edge"><title>Node3&#45;&gt;Node2</title>
<path fill="none" stroke="midnightblue" d="M58.5,-233.108C58.5,-224.748 58.5,-215.725 58.5,-206.834"/>
<polygon fill="none" stroke="midnightblue" points="55.0001,-233.284 58.5,-243.284 62.0001,-233.284 55.0001,-233.284"/>
</g>
</g>
</svg>
