<?xml version="1.0" encoding="UTF-8" standalone="no"?>
<!DOCTYPE svg PUBLIC "-//W3C//DTD SVG 1.1//EN"
 "http://www.w3.org/Graphics/SVG/1.1/DTD/svg11.dtd">
<!-- Generated by graphviz version 2.38.0 (20140413.2041)
 -->
<!-- Title: lua_type Pages: 1 -->
<svg width="444pt" height="1510pt"
 viewBox="0.00 0.00 444.00 1510.00" xmlns="http://www.w3.org/2000/svg" xmlns:xlink="http://www.w3.org/1999/xlink">
<g id="graph0" class="graph" transform="scale(1 1) rotate(0) translate(4 1506)">
<title>lua_type</title>
<!-- Node1 -->
<g id="node1" class="node"><title>Node1</title>
<polygon fill="#bfbfbf" stroke="black" points="0,-817.5 0,-836.5 53,-836.5 53,-817.5 0,-817.5"/>
<text text-anchor="middle" x="26.5" y="-824.5" font-family="Helvetica,sans-Serif" font-size="10.00">lua_type</text>
</g>
<!-- Node2 -->
<g id="node2" class="node"><title>Node2</title>
<g id="a_node2"><a xlink:href="../../d8/d97/ldblib_8c.html#a129f5b6b3a5f37b1b05a6db5b3a1e0be" target="_top" xlink:title="db_getuservalue">
<polygon fill="none" stroke="black" points="89.5,-1482.5 89.5,-1501.5 176.5,-1501.5 176.5,-1482.5 89.5,-1482.5"/>
<text text-anchor="middle" x="133" y="-1489.5" font-family="Helvetica,sans-Serif" font-size="10.00">db_getuservalue</text>
</a>
</g>
</g>
<!-- Node1&#45;&gt;Node2 -->
<g id="edge1" class="edge"><title>Node1&#45;&gt;Node2</title>
<path fill="none" stroke="midnightblue" d="M28.212,-846.999C32.0475,-950.334 51.482,-1420.98 89,-1473 91.769,-1476.84 95.4905,-1479.91 99.5908,-1482.37"/>
<polygon fill="midnightblue" stroke="midnightblue" points="31.6999,-846.599 27.8379,-836.733 24.7045,-846.854 31.6999,-846.599"/>
</g>
<!-- Node3 -->
<g id="node3" class="node"><title>Node3</title>
<g id="a_node3"><a xlink:href="../../d8/d97/ldblib_8c.html#a3595aee1af712c0ba9c586feb763bffc" target="_top" xlink:title="db_setmetatable">
<polygon fill="none" stroke="black" points="89,-1444.5 89,-1463.5 177,-1463.5 177,-1444.5 89,-1444.5"/>
<text text-anchor="middle" x="133" y="-1451.5" font-family="Helvetica,sans-Serif" font-size="10.00">db_setmetatable</text>
</a>
</g>
</g>
<!-- Node1&#45;&gt;Node3 -->
<g id="edge2" class="edge"><title>Node1&#45;&gt;Node3</title>
<path fill="none" stroke="midnightblue" d="M27.1277,-846.896C25.7417,-939.856 23.924,-1331.04 89,-1430 93.0397,-1436.14 99.2179,-1440.87 105.642,-1444.43"/>
<polygon fill="midnightblue" stroke="midnightblue" points="30.6277,-846.92 27.294,-836.864 23.6287,-846.804 30.6277,-846.92"/>
</g>
<!-- Node4 -->
<g id="node4" class="node"><title>Node4</title>
<g id="a_node4"><a xlink:href="../../d8/d97/ldblib_8c.html#a233c3c4d12bda0fdbf515a18b8961461" target="_top" xlink:title="db_setuservalue">
<polygon fill="none" stroke="black" points="222,-1026.5 222,-1045.5 309,-1045.5 309,-1026.5 222,-1026.5"/>
<text text-anchor="middle" x="265.5" y="-1033.5" font-family="Helvetica,sans-Serif" font-size="10.00">db_setuservalue</text>
</a>
</g>
</g>
<!-- Node1&#45;&gt;Node4 -->
<g id="edge3" class="edge"><title>Node1&#45;&gt;Node4</title>
<path fill="none" stroke="midnightblue" d="M35.0949,-845.765C44.9887,-868.552 64.0148,-907.25 89,-934 134.268,-982.465 153.923,-986.868 213,-1017 219.877,-1020.51 227.557,-1023.7 234.845,-1026.42"/>
<polygon fill="midnightblue" stroke="midnightblue" points="38.3073,-844.375 31.2031,-836.515 31.8551,-847.09 38.3073,-844.375"/>
</g>
<!-- Node5 -->
<g id="node5" class="node"><title>Node5</title>
<g id="a_node5"><a xlink:href="../../d0/d56/lauxlib_8c.html#a36c8f149b779f8c9a5c042ea9784d80a" target="_top" xlink:title="findfield">
<polygon fill="none" stroke="black" points="109.5,-237.5 109.5,-256.5 156.5,-256.5 156.5,-237.5 109.5,-237.5"/>
<text text-anchor="middle" x="133" y="-244.5" font-family="Helvetica,sans-Serif" font-size="10.00">findfield</text>
</a>
</g>
</g>
<!-- Node1&#45;&gt;Node5 -->
<g id="edge4" class="edge"><title>Node1&#45;&gt;Node5</title>
<path fill="none" stroke="midnightblue" d="M28.4823,-807.293C32.0533,-742.496 46.4517,-530.491 89,-361 99.0431,-320.993 118.735,-275.79 127.55,-256.519"/>
<polygon fill="midnightblue" stroke="midnightblue" points="24.9845,-807.161 27.9524,-817.332 31.9748,-807.53 24.9845,-807.161"/>
</g>
<!-- Node7 -->
<g id="node7" class="node"><title>Node7</title>
<g id="a_node7"><a xlink:href="../../de/df3/liolib_8c.html#addece2406777a40f0f591e3518293932" target="_top" xlink:title="g_read">
<polygon fill="none" stroke="black" points="110,-152.5 110,-171.5 156,-171.5 156,-152.5 110,-152.5"/>
<text text-anchor="middle" x="133" y="-159.5" font-family="Helvetica,sans-Serif" font-size="10.00">g_read</text>
</a>
</g>
</g>
<!-- Node1&#45;&gt;Node7 -->
<g id="edge6" class="edge"><title>Node1&#45;&gt;Node7</title>
<path fill="none" stroke="midnightblue" d="M28.2797,-807.235C32.0523,-716.399 49.8537,-338.709 89,-228 96.7504,-206.081 113.169,-184.169 123.326,-171.92"/>
<polygon fill="midnightblue" stroke="midnightblue" points="24.7724,-807.346 27.8638,-817.48 31.7666,-807.63 24.7724,-807.346"/>
</g>
<!-- Node11 -->
<g id="node11" class="node"><title>Node11</title>
<g id="a_node11"><a xlink:href="../../de/df3/liolib_8c.html#a88c73a30c7d135dfb4958b7bfaa90cc7" target="_top" xlink:title="g_write">
<polygon fill="none" stroke="black" points="109.5,-114.5 109.5,-133.5 156.5,-133.5 156.5,-114.5 109.5,-114.5"/>
<text text-anchor="middle" x="133" y="-121.5" font-family="Helvetica,sans-Serif" font-size="10.00">g_write</text>
</a>
</g>
</g>
<!-- Node1&#45;&gt;Node11 -->
<g id="edge10" class="edge"><title>Node1&#45;&gt;Node11</title>
<path fill="none" stroke="midnightblue" d="M28.0949,-807.168C31.4486,-700.568 49.2748,-198.386 89,-143 93.8519,-136.235 101.664,-131.845 109.307,-129.011"/>
<polygon fill="midnightblue" stroke="midnightblue" points="24.5954,-807.102 27.7856,-817.205 31.5921,-807.317 24.5954,-807.102"/>
</g>
<!-- Node14 -->
<g id="node14" class="node"><title>Node14</title>
<g id="a_node14"><a xlink:href="../../da/dd2/lua_8h.html#a70f6031d538713cb3b6093adbc658909" target="_top" xlink:title="lua_isstring">
<polygon fill="none" stroke="black" points="101.5,-1197.5 101.5,-1216.5 164.5,-1216.5 164.5,-1197.5 101.5,-1197.5"/>
<text text-anchor="middle" x="133" y="-1204.5" font-family="Helvetica,sans-Serif" font-size="10.00">lua_isstring</text>
</a>
</g>
</g>
<!-- Node1&#45;&gt;Node14 -->
<g id="edge13" class="edge"><title>Node1&#45;&gt;Node14</title>
<path fill="none" stroke="midnightblue" d="M31.2798,-846.439C39.9365,-890.065 62.5082,-998.925 89,-1088 101.274,-1129.27 119.959,-1177.1 128.044,-1197.25"/>
<polygon fill="midnightblue" stroke="midnightblue" points="34.7059,-845.722 29.342,-836.585 27.8374,-847.072 34.7059,-845.722"/>
</g>
<!-- Node16 -->
<g id="node16" class="node"><title>Node16</title>
<g id="a_node16"><a xlink:href="../../dc/d77/lstrlib_8c.html#a42337c674d265175bcc2b2f3809c7339" target="_top" xlink:title="str_gsub">
<polygon fill="none" stroke="black" points="368.5,-1349.5 368.5,-1368.5 421.5,-1368.5 421.5,-1349.5 368.5,-1349.5"/>
<text text-anchor="middle" x="395" y="-1356.5" font-family="Helvetica,sans-Serif" font-size="10.00">str_gsub</text>
</a>
</g>
</g>
<!-- Node1&#45;&gt;Node16 -->
<g id="edge59" class="edge"><title>Node1&#45;&gt;Node16</title>
<path fill="none" stroke="midnightblue" d="M27.3189,-847.027C27.4492,-906.968 32.7686,-1089.27 89,-1226 124.706,-1312.82 129.373,-1354.34 213,-1397 254.571,-1418.21 272.582,-1407.72 318,-1397 341.115,-1391.54 365.215,-1377.92 379.919,-1368.56"/>
<polygon fill="midnightblue" stroke="midnightblue" points="30.8197,-846.729 27.3484,-836.719 23.8197,-846.709 30.8197,-846.729"/>
</g>
<!-- Node25 -->
<g id="node25" class="node"><title>Node25</title>
<g id="a_node25"><a xlink:href="../../d1/dc2/_kensho_lua_wrapper_8m.html#a659a5a25271d0c7e4f5478f828a93b41" target="_top" xlink:title="popValue">
<polygon fill="none" stroke="black" points="236,-1064.5 236,-1083.5 295,-1083.5 295,-1064.5 236,-1064.5"/>
<text text-anchor="middle" x="265.5" y="-1071.5" font-family="Helvetica,sans-Serif" font-size="10.00">popValue</text>
</a>
</g>
</g>
<!-- Node1&#45;&gt;Node25 -->
<g id="edge58" class="edge"><title>Node1&#45;&gt;Node25</title>
<path fill="none" stroke="midnightblue" d="M31.2223,-846.792C37.973,-878.144 54.8174,-939.787 89,-980 128.623,-1026.61 197.351,-1053.71 235.996,-1065.99"/>
<polygon fill="midnightblue" stroke="midnightblue" points="34.5952,-845.813 29.1785,-836.708 27.7347,-847.204 34.5952,-845.813"/>
</g>
<!-- Node26 -->
<g id="node26" class="node"><title>Node26</title>
<g id="a_node26"><a xlink:href="../../d8/dd3/lbaselib_8c.html#a68b39dfb2717573478ca211e9785dc6a" target="_top" xlink:title="luaB_rawlen">
<polygon fill="none" stroke="black" points="98,-76.5 98,-95.5 168,-95.5 168,-76.5 98,-76.5"/>
<text text-anchor="middle" x="133" y="-83.5" font-family="Helvetica,sans-Serif" font-size="10.00">luaB_rawlen</text>
</a>
</g>
</g>
<!-- Node1&#45;&gt;Node26 -->
<g id="edge26" class="edge"><title>Node1&#45;&gt;Node26</title>
<path fill="none" stroke="midnightblue" d="M27.9968,-807.125C30.908,-696.919 47.0902,-163.723 89,-105 91.7499,-101.147 95.4609,-98.0645 99.5565,-95.6013"/>
<polygon fill="midnightblue" stroke="midnightblue" points="24.4898,-807.356 27.7308,-817.443 31.4874,-807.537 24.4898,-807.356"/>
</g>
<!-- Node27 -->
<g id="node27" class="node"><title>Node27</title>
<g id="a_node27"><a xlink:href="../../d8/dd3/lbaselib_8c.html#ac2909062d4ac2b0396c640407e5b19d8" target="_top" xlink:title="luaB_select">
<polygon fill="none" stroke="black" points="100.5,-38.5 100.5,-57.5 165.5,-57.5 165.5,-38.5 100.5,-38.5"/>
<text text-anchor="middle" x="133" y="-45.5" font-family="Helvetica,sans-Serif" font-size="10.00">luaB_select</text>
</a>
</g>
</g>
<!-- Node1&#45;&gt;Node27 -->
<g id="edge27" class="edge"><title>Node1&#45;&gt;Node27</title>
<path fill="none" stroke="midnightblue" d="M27.9066,-807.153C30.3894,-693.591 44.8937,-129.078 89,-67 91.9308,-62.875 95.9642,-59.6336 100.394,-57.0898"/>
<polygon fill="midnightblue" stroke="midnightblue" points="24.4006,-807.401 27.6873,-817.473 31.399,-807.549 24.4006,-807.401"/>
</g>
<!-- Node28 -->
<g id="node28" class="node"><title>Node28</title>
<g id="a_node28"><a xlink:href="../../d8/dd3/lbaselib_8c.html#af7799a987ba6d158a96a52e80fb5beaf" target="_top" xlink:title="luaB_setmetatable">
<polygon fill="none" stroke="black" points="217.5,-988.5 217.5,-1007.5 313.5,-1007.5 313.5,-988.5 217.5,-988.5"/>
<text text-anchor="middle" x="265.5" y="-995.5" font-family="Helvetica,sans-Serif" font-size="10.00">luaB_setmetatable</text>
</a>
</g>
</g>
<!-- Node1&#45;&gt;Node28 -->
<g id="edge28" class="edge"><title>Node1&#45;&gt;Node28</title>
<path fill="none" stroke="midnightblue" d="M44.4324,-844.253C75.4053,-874.993 144.34,-939.692 213,-979 219.368,-982.646 226.565,-985.817 233.515,-988.47"/>
<polygon fill="midnightblue" stroke="midnightblue" points="46.6061,-841.476 37.0658,-836.868 41.6502,-846.42 46.6061,-841.476"/>
</g>
<!-- Node29 -->
<g id="node29" class="node"><title>Node29</title>
<g id="a_node29"><a xlink:href="../../da/d29/lauxlib_8h.html#ad78c85dce421e9cb793e205b9e81c640" target="_top" xlink:title="luaL_checkany">
<polygon fill="none" stroke="black" points="93,-456.5 93,-475.5 173,-475.5 173,-456.5 93,-456.5"/>
<text text-anchor="middle" x="133" y="-463.5" font-family="Helvetica,sans-Serif" font-size="10.00">luaL_checkany</text>
</a>
</g>
</g>
<!-- Node1&#45;&gt;Node29 -->
<g id="edge29" class="edge"><title>Node1&#45;&gt;Node29</title>
<path fill="none" stroke="midnightblue" d="M33.0809,-807.721C52.294,-741.348 115.287,-523.736 129.245,-475.518"/>
<polygon fill="midnightblue" stroke="midnightblue" points="29.7138,-806.765 30.2951,-817.344 36.4378,-808.712 29.7138,-806.765"/>
</g>
<!-- Node42 -->
<g id="node42" class="node"><title>Node42</title>
<g id="a_node42"><a xlink:href="../../da/d29/lauxlib_8h.html#ae5f465fb757069d016a10b106c69bdd7" target="_top" xlink:title="luaL_checktype">
<polygon fill="none" stroke="red" points="91.5,-817.5 91.5,-836.5 174.5,-836.5 174.5,-817.5 91.5,-817.5"/>
<text text-anchor="middle" x="133" y="-824.5" font-family="Helvetica,sans-Serif" font-size="10.00">luaL_checktype</text>
</a>
</g>
</g>
<!-- Node1&#45;&gt;Node42 -->
<g id="edge42" class="edge"><title>Node1&#45;&gt;Node42</title>
<path fill="none" stroke="midnightblue" d="M63.2339,-827C72.2465,-827 81.9898,-827 91.2293,-827"/>
<polygon fill="midnightblue" stroke="midnightblue" points="63.0636,-823.5 53.0636,-827 63.0635,-830.5 63.0636,-823.5"/>
</g>
<!-- Node50 -->
<g id="node50" class="node"><title>Node50</title>
<g id="a_node50"><a xlink:href="../../da/d29/lauxlib_8h.html#aef6da057d1e26ed6449b92177f1f2f5a" target="_top" xlink:title="luaL_tolstring">
<polygon fill="none" stroke="red" points="97.5,-370.5 97.5,-389.5 168.5,-389.5 168.5,-370.5 97.5,-370.5"/>
<text text-anchor="middle" x="133" y="-377.5" font-family="Helvetica,sans-Serif" font-size="10.00">luaL_tolstring</text>
</a>
</g>
</g>
<!-- Node1&#45;&gt;Node50 -->
<g id="edge56" class="edge"><title>Node1&#45;&gt;Node50</title>
<path fill="none" stroke="midnightblue" d="M27.8952,-806.937C29.6271,-749.096 38.9409,-577.8 89,-447 97.4972,-424.798 113.987,-402.185 123.894,-389.736"/>
<polygon fill="midnightblue" stroke="midnightblue" points="24.389,-807.14 27.6344,-817.226 31.3868,-807.317 24.389,-807.14"/>
</g>
<!-- Node6 -->
<g id="node6" class="node"><title>Node6</title>
<g id="a_node6"><a xlink:href="../../d0/d56/lauxlib_8c.html#a4f35430f7ecfcbd5f507e550937046b4" target="_top" xlink:title="pushglobalfuncname">
<polygon fill="none" stroke="red" points="213,-190.5 213,-209.5 318,-209.5 318,-190.5 213,-190.5"/>
<text text-anchor="middle" x="265.5" y="-197.5" font-family="Helvetica,sans-Serif" font-size="10.00">pushglobalfuncname</text>
</a>
</g>
</g>
<!-- Node5&#45;&gt;Node6 -->
<g id="edge5" class="edge"><title>Node5&#45;&gt;Node6</title>
<path fill="none" stroke="midnightblue" d="M166.337,-235.354C188.404,-227.406 217.273,-217.009 237.983,-209.55"/>
<polygon fill="midnightblue" stroke="midnightblue" points="164.954,-232.132 156.731,-238.813 167.326,-238.718 164.954,-232.132"/>
</g>
<!-- Node8 -->
<g id="node8" class="node"><title>Node8</title>
<g id="a_node8"><a xlink:href="../../de/df3/liolib_8c.html#add5250a74576076467531e4eb8f5f68e" target="_top" xlink:title="f_read">
<polygon fill="none" stroke="black" points="244,-152.5 244,-171.5 287,-171.5 287,-152.5 244,-152.5"/>
<text text-anchor="middle" x="265.5" y="-159.5" font-family="Helvetica,sans-Serif" font-size="10.00">f_read</text>
</a>
</g>
</g>
<!-- Node7&#45;&gt;Node8 -->
<g id="edge7" class="edge"><title>Node7&#45;&gt;Node8</title>
<path fill="none" stroke="midnightblue" d="M166.314,-162C190.605,-162 223.151,-162 243.977,-162"/>
<polygon fill="midnightblue" stroke="midnightblue" points="166.138,-158.5 156.138,-162 166.138,-165.5 166.138,-158.5"/>
</g>
<!-- Node9 -->
<g id="node9" class="node"><title>Node9</title>
<g id="a_node9"><a xlink:href="../../de/df3/liolib_8c.html#a45307aa59a628966c6ea270e9b476d9a" target="_top" xlink:title="io_read">
<polygon fill="none" stroke="black" points="242,-114.5 242,-133.5 289,-133.5 289,-114.5 242,-114.5"/>
<text text-anchor="middle" x="265.5" y="-121.5" font-family="Helvetica,sans-Serif" font-size="10.00">io_read</text>
</a>
</g>
</g>
<!-- Node7&#45;&gt;Node9 -->
<g id="edge8" class="edge"><title>Node7&#45;&gt;Node9</title>
<path fill="none" stroke="midnightblue" d="M165.996,-152.683C189.498,-145.84 220.855,-136.709 241.815,-130.606"/>
<polygon fill="midnightblue" stroke="midnightblue" points="164.76,-149.398 156.138,-155.554 166.717,-156.118 164.76,-149.398"/>
</g>
<!-- Node10 -->
<g id="node10" class="node"><title>Node10</title>
<g id="a_node10"><a xlink:href="../../de/df3/liolib_8c.html#ac37d80ee2cc364b4adafcb6f7c20f28b" target="_top" xlink:title="io_readline">
<polygon fill="none" stroke="red" points="235,-76.5 235,-95.5 296,-95.5 296,-76.5 235,-76.5"/>
<text text-anchor="middle" x="265.5" y="-83.5" font-family="Helvetica,sans-Serif" font-size="10.00">io_readline</text>
</a>
</g>
</g>
<!-- Node7&#45;&gt;Node10 -->
<g id="edge9" class="edge"><title>Node7&#45;&gt;Node10</title>
<path fill="none" stroke="midnightblue" d="M165.594,-149.794C169.569,-147.757 173.473,-145.487 177,-143 196.012,-129.592 193.578,-117.806 213,-105 219.604,-100.646 227.339,-97.1178 234.778,-94.3379"/>
<polygon fill="midnightblue" stroke="midnightblue" points="163.915,-146.715 156.333,-154.116 166.875,-153.059 163.915,-146.715"/>
</g>
<!-- Node12 -->
<g id="node12" class="node"><title>Node12</title>
<g id="a_node12"><a xlink:href="../../de/df3/liolib_8c.html#adba67ef94aaa532d9224ca04f8126ac2" target="_top" xlink:title="f_write">
<polygon fill="none" stroke="black" points="243.5,-38.5 243.5,-57.5 287.5,-57.5 287.5,-38.5 243.5,-38.5"/>
<text text-anchor="middle" x="265.5" y="-45.5" font-family="Helvetica,sans-Serif" font-size="10.00">f_write</text>
</a>
</g>
</g>
<!-- Node11&#45;&gt;Node12 -->
<g id="edge11" class="edge"><title>Node11&#45;&gt;Node12</title>
<path fill="none" stroke="midnightblue" d="M165.847,-111.664C169.735,-109.661 173.548,-107.434 177,-105 196.012,-91.5918 193.578,-79.8064 213,-67 222.229,-60.9146 233.669,-56.443 243.42,-53.3721"/>
<polygon fill="midnightblue" stroke="midnightblue" points="164.339,-108.506 156.776,-115.926 167.316,-114.841 164.339,-108.506"/>
</g>
<!-- Node13 -->
<g id="node13" class="node"><title>Node13</title>
<g id="a_node13"><a xlink:href="../../de/df3/liolib_8c.html#ada35daf906cc262cc6944cad92b93ac3" target="_top" xlink:title="io_write">
<polygon fill="none" stroke="black" points="241.5,-0.5 241.5,-19.5 289.5,-19.5 289.5,-0.5 241.5,-0.5"/>
<text text-anchor="middle" x="265.5" y="-7.5" font-family="Helvetica,sans-Serif" font-size="10.00">io_write</text>
</a>
</g>
</g>
<!-- Node11&#45;&gt;Node13 -->
<g id="edge12" class="edge"><title>Node11&#45;&gt;Node13</title>
<path fill="none" stroke="midnightblue" d="M165.842,-113.108C169.896,-110.844 173.755,-108.161 177,-105 203.774,-78.9214 185.423,-54.2276 213,-29 220.875,-21.7955 231.717,-17.2583 241.423,-14.4334"/>
<polygon fill="midnightblue" stroke="midnightblue" points="164.332,-109.95 156.817,-117.418 167.349,-116.267 164.332,-109.95"/>
</g>
<!-- Node15 -->
<g id="node15" class="node"><title>Node15</title>
<g id="a_node15"><a xlink:href="../../dc/d77/lstrlib_8c.html#ad24cfa73e5ad25ec99a1b48f0916471e" target="_top" xlink:title="add_value">
<polygon fill="none" stroke="black" points="234.5,-1292.5 234.5,-1311.5 296.5,-1311.5 296.5,-1292.5 234.5,-1292.5"/>
<text text-anchor="middle" x="265.5" y="-1299.5" font-family="Helvetica,sans-Serif" font-size="10.00">add_value</text>
</a>
</g>
</g>
<!-- Node14&#45;&gt;Node15 -->
<g id="edge14" class="edge"><title>Node14&#45;&gt;Node15</title>
<path fill="none" stroke="midnightblue" d="M148.556,-1224.74C163.279,-1241.7 187.456,-1266.99 213,-1283 219.541,-1287.1 227.099,-1290.51 234.375,-1293.25"/>
<polygon fill="midnightblue" stroke="midnightblue" points="150.897,-1222.09 141.761,-1216.72 145.557,-1226.62 150.897,-1222.09"/>
</g>
<!-- Node17 -->
<g id="node17" class="node"><title>Node17</title>
<g id="a_node17"><a xlink:href="../../d0/da1/ltablib_8c.html#a4ea6cc51c099ea709c7755a49216f4d0" target="_top" xlink:title="addfield">
<polygon fill="none" stroke="red" points="241,-1254.5 241,-1273.5 290,-1273.5 290,-1254.5 241,-1254.5"/>
<text text-anchor="middle" x="265.5" y="-1261.5" font-family="Helvetica,sans-Serif" font-size="10.00">addfield</text>
</a>
</g>
</g>
<!-- Node14&#45;&gt;Node17 -->
<g id="edge16" class="edge"><title>Node14&#45;&gt;Node17</title>
<path fill="none" stroke="midnightblue" d="M161.84,-1221.19C176.839,-1228.63 195.758,-1237.69 213,-1245 222.038,-1248.83 232.14,-1252.65 240.987,-1255.86"/>
<polygon fill="midnightblue" stroke="midnightblue" points="163.115,-1217.91 152.606,-1216.57 159.982,-1224.17 163.115,-1217.91"/>
</g>
<!-- Node18 -->
<g id="node18" class="node"><title>Node18</title>
<g id="a_node18"><a xlink:href="../../d2/d82/loadlib_8c.html#aeea4101591c7cab25273f4dfe7d811d6" target="_top" xlink:title="findloader">
<polygon fill="none" stroke="red" points="237.5,-1216.5 237.5,-1235.5 293.5,-1235.5 293.5,-1216.5 237.5,-1216.5"/>
<text text-anchor="middle" x="265.5" y="-1223.5" font-family="Helvetica,sans-Serif" font-size="10.00">findloader</text>
</a>
</g>
</g>
<!-- Node14&#45;&gt;Node18 -->
<g id="edge17" class="edge"><title>Node14&#45;&gt;Node18</title>
<path fill="none" stroke="midnightblue" d="M174.551,-1212.9C194.922,-1215.87 219.06,-1219.38 237.2,-1222.03"/>
<polygon fill="midnightblue" stroke="midnightblue" points="174.996,-1209.43 164.596,-1211.45 173.988,-1216.36 174.996,-1209.43"/>
</g>
<!-- Node19 -->
<g id="node19" class="node"><title>Node19</title>
<g id="a_node19"><a xlink:href="../../d8/dd3/lbaselib_8c.html#ad467c787e381e8d18e4c7b46b4f1b05d" target="_top" xlink:title="generic_reader">
<polygon fill="none" stroke="black" points="227,-1102.5 227,-1121.5 304,-1121.5 304,-1102.5 227,-1102.5"/>
<text text-anchor="middle" x="265.5" y="-1109.5" font-family="Helvetica,sans-Serif" font-size="10.00">generic_reader</text>
</a>
</g>
</g>
<!-- Node14&#45;&gt;Node19 -->
<g id="edge18" class="edge"><title>Node14&#45;&gt;Node19</title>
<path fill="none" stroke="midnightblue" d="M150.058,-1189.92C165.23,-1174.46 189.159,-1151.76 213,-1136 221.393,-1130.45 231.274,-1125.51 240.124,-1121.58"/>
<polygon fill="midnightblue" stroke="midnightblue" points="147.392,-1187.64 142.969,-1197.27 152.43,-1192.5 147.392,-1187.64"/>
</g>
<!-- Node21 -->
<g id="node21" class="node"><title>Node21</title>
<g id="a_node21"><a xlink:href="../../d1/dc2/_kensho_lua_wrapper_8m.html#ad10bf0ff4feac9642e7477e282be41fe" target="_top" xlink:title="lookupKey">
<polygon fill="none" stroke="red" points="234.5,-1178.5 234.5,-1197.5 296.5,-1197.5 296.5,-1178.5 234.5,-1178.5"/>
<text text-anchor="middle" x="265.5" y="-1185.5" font-family="Helvetica,sans-Serif" font-size="10.00">lookupKey</text>
</a>
</g>
</g>
<!-- Node14&#45;&gt;Node21 -->
<g id="edge20" class="edge"><title>Node14&#45;&gt;Node21</title>
<path fill="none" stroke="midnightblue" d="M174.588,-1201.09C193.809,-1198.29 216.377,-1195.01 234.095,-1192.43"/>
<polygon fill="midnightblue" stroke="midnightblue" points="173.988,-1197.64 164.596,-1202.55 174.996,-1204.57 173.988,-1197.64"/>
</g>
<!-- Node22 -->
<g id="node22" class="node"><title>Node22</title>
<g id="a_node22"><a xlink:href="../../d1/dc2/_kensho_lua_wrapper_8m.html#a05954c02378e1c67ec00d4d5fc118d07" target="_top" xlink:title="This is executed when the LUA subsystem attempts to assign data to a new index. ">
<polygon fill="none" stroke="red" points="354,-1102.5 354,-1121.5 436,-1121.5 436,-1102.5 354,-1102.5"/>
<text text-anchor="middle" x="395" y="-1109.5" font-family="Helvetica,sans-Serif" font-size="10.00">lookupNewKey</text>
</a>
</g>
</g>
<!-- Node14&#45;&gt;Node22 -->
<g id="edge21" class="edge"><title>Node14&#45;&gt;Node22</title>
<path fill="none" stroke="midnightblue" d="M161.105,-1192.77C176.156,-1185.18 195.354,-1175.98 213,-1169 262.475,-1149.43 321.562,-1131.86 358.442,-1121.57"/>
<polygon fill="midnightblue" stroke="midnightblue" points="159.18,-1189.83 151.87,-1197.49 162.367,-1196.06 159.18,-1189.83"/>
</g>
<!-- Node23 -->
<g id="node23" class="node"><title>Node23</title>
<g id="a_node23"><a xlink:href="../../df/d2d/lcorolib_8c.html#a777abb20385a69ce4787f72bd90375a7" target="_top" xlink:title="luaB_auxwrap">
<polygon fill="none" stroke="red" points="225.5,-1368.5 225.5,-1387.5 305.5,-1387.5 305.5,-1368.5 225.5,-1368.5"/>
<text text-anchor="middle" x="265.5" y="-1375.5" font-family="Helvetica,sans-Serif" font-size="10.00">luaB_auxwrap</text>
</a>
</g>
</g>
<!-- Node14&#45;&gt;Node23 -->
<g id="edge22" class="edge"><title>Node14&#45;&gt;Node23</title>
<path fill="none" stroke="midnightblue" d="M139.172,-1226.64C148.587,-1258.71 171.488,-1322.41 213,-1359 217.361,-1362.84 222.568,-1365.93 227.97,-1368.41"/>
<polygon fill="midnightblue" stroke="midnightblue" points="142.46,-1225.4 136.396,-1216.71 135.718,-1227.29 142.46,-1225.4"/>
</g>
<!-- Node24 -->
<g id="node24" class="node"><title>Node24</title>
<g id="a_node24"><a xlink:href="../../d8/dd3/lbaselib_8c.html#a2ecfa987569d0b4c1063f3e204e42dd2" target="_top" xlink:title="luaB_error">
<polygon fill="none" stroke="black" points="236,-1330.5 236,-1349.5 295,-1349.5 295,-1330.5 236,-1330.5"/>
<text text-anchor="middle" x="265.5" y="-1337.5" font-family="Helvetica,sans-Serif" font-size="10.00">luaB_error</text>
</a>
</g>
</g>
<!-- Node14&#45;&gt;Node24 -->
<g id="edge23" class="edge"><title>Node14&#45;&gt;Node24</title>
<path fill="none" stroke="midnightblue" d="M142.553,-1225.93C154.783,-1251.01 179.539,-1295.08 213,-1321 219.705,-1326.19 227.973,-1330.07 235.906,-1332.92"/>
<polygon fill="midnightblue" stroke="midnightblue" points="145.653,-1224.3 138.222,-1216.74 139.321,-1227.28 145.653,-1224.3"/>
</g>
<!-- Node14&#45;&gt;Node25 -->
<g id="edge24" class="edge"><title>Node14&#45;&gt;Node25</title>
<path fill="none" stroke="midnightblue" d="M142.553,-1188.07C154.783,-1162.99 179.539,-1118.92 213,-1093 219.705,-1087.81 227.973,-1083.93 235.906,-1081.08"/>
<polygon fill="midnightblue" stroke="midnightblue" points="139.321,-1186.72 138.222,-1197.26 145.653,-1189.7 139.321,-1186.72"/>
</g>
<!-- Node15&#45;&gt;Node16 -->
<g id="edge15" class="edge"><title>Node15&#45;&gt;Node16</title>
<path fill="none" stroke="midnightblue" d="M303.375,-1315.04C308.325,-1316.96 313.31,-1318.97 318,-1321 338.307,-1329.79 360.909,-1341.33 376.145,-1349.37"/>
<polygon fill="midnightblue" stroke="midnightblue" points="304.576,-1311.75 293.984,-1311.5 302.108,-1318.3 304.576,-1311.75"/>
</g>
<!-- Node20 -->
<g id="node20" class="node"><title>Node20</title>
<g id="a_node20"><a xlink:href="../../d8/dd3/lbaselib_8c.html#a4a9a3613fcf80fe033e044f7e19bed69" target="_top" xlink:title="luaB_load">
<polygon fill="none" stroke="black" points="365.5,-931.5 365.5,-950.5 424.5,-950.5 424.5,-931.5 365.5,-931.5"/>
<text text-anchor="middle" x="395" y="-938.5" font-family="Helvetica,sans-Serif" font-size="10.00">luaB_load</text>
</a>
</g>
</g>
<!-- Node19&#45;&gt;Node20 -->
<g id="edge19" class="edge"><title>Node19&#45;&gt;Node20</title>
<path fill="none" stroke="midnightblue" d="M311.877,-1097.66C314.046,-1096.25 316.105,-1094.7 318,-1093 363.718,-1052.06 385.316,-977.305 391.808,-950.71"/>
<polygon fill="midnightblue" stroke="midnightblue" points="310.175,-1094.6 303.083,-1102.47 313.536,-1100.74 310.175,-1094.6"/>
</g>
<!-- Node25&#45;&gt;Node22 -->
<g id="edge25" class="edge"><title>Node25&#45;&gt;Node22</title>
<path fill="none" stroke="midnightblue" d="M304.841,-1085.43C323.048,-1090.85 344.562,-1097.27 361.895,-1102.43"/>
<polygon fill="midnightblue" stroke="midnightblue" points="305.697,-1082.03 295.113,-1082.53 303.697,-1088.74 305.697,-1082.03"/>
</g>
<!-- Node30 -->
<g id="node30" class="node"><title>Node30</title>
<g id="a_node30"><a xlink:href="../../d8/d97/ldblib_8c.html#aa84da9dfea83fb9e516443b49b109044" target="_top" xlink:title="db_getmetatable">
<polygon fill="none" stroke="black" points="221.5,-304.5 221.5,-323.5 309.5,-323.5 309.5,-304.5 221.5,-304.5"/>
<text text-anchor="middle" x="265.5" y="-311.5" font-family="Helvetica,sans-Serif" font-size="10.00">db_getmetatable</text>
</a>
</g>
</g>
<!-- Node29&#45;&gt;Node30 -->
<g id="edge30" class="edge"><title>Node29&#45;&gt;Node30</title>
<path fill="none" stroke="midnightblue" d="M146.406,-447.455C155.197,-434.128 167.134,-415.648 177,-399 194.034,-370.255 187.714,-354.842 213,-333 217.471,-329.138 222.798,-326.032 228.303,-323.542"/>
<polygon fill="midnightblue" stroke="midnightblue" points="143.249,-445.882 140.635,-456.149 149.082,-449.753 143.249,-445.882"/>
</g>
<!-- Node31 -->
<g id="node31" class="node"><title>Node31</title>
<g id="a_node31"><a xlink:href="../../d8/d97/ldblib_8c.html#a11cfe90e96e7ea907a767f5109f7ef4b" target="_top" xlink:title="db_setlocal">
<polygon fill="none" stroke="black" points="233,-266.5 233,-285.5 298,-285.5 298,-266.5 233,-266.5"/>
<text text-anchor="middle" x="265.5" y="-273.5" font-family="Helvetica,sans-Serif" font-size="10.00">db_setlocal</text>
</a>
</g>
</g>
<!-- Node29&#45;&gt;Node31 -->
<g id="edge31" class="edge"><title>Node29&#45;&gt;Node31</title>
<path fill="none" stroke="midnightblue" d="M147.01,-448.304C156.245,-435.175 168.467,-416.579 177,-399 198.36,-354.997 178.764,-329.934 213,-295 218.403,-289.487 225.543,-285.56 232.779,-282.768"/>
<polygon fill="midnightblue" stroke="midnightblue" points="144.159,-446.274 141.177,-456.44 149.848,-450.353 144.159,-446.274"/>
</g>
<!-- Node32 -->
<g id="node32" class="node"><title>Node32</title>
<g id="a_node32"><a xlink:href="../../d8/d97/ldblib_8c.html#acd61487bdd057d6c668ec0bd88728670" target="_top" xlink:title="db_setupvalue">
<polygon fill="none" stroke="black" points="355,-627.5 355,-646.5 435,-646.5 435,-627.5 355,-627.5"/>
<text text-anchor="middle" x="395" y="-634.5" font-family="Helvetica,sans-Serif" font-size="10.00">db_setupvalue</text>
</a>
</g>
</g>
<!-- Node29&#45;&gt;Node32 -->
<g id="edge32" class="edge"><title>Node29&#45;&gt;Node32</title>
<path fill="none" stroke="midnightblue" d="M144.867,-484.202C158.376,-505.398 183.314,-540.156 213,-561 253.616,-589.519 272.395,-579.425 318,-599 338.334,-607.728 360.931,-619.274 376.159,-627.339"/>
<polygon fill="midnightblue" stroke="midnightblue" points="147.729,-482.176 139.488,-475.517 141.777,-485.861 147.729,-482.176"/>
</g>
<!-- Node33 -->
<g id="node33" class="node"><title>Node33</title>
<g id="a_node33"><a xlink:href="../../de/df3/liolib_8c.html#a2bd80ae170dce6c29d385b71398fd7c2" target="_top" xlink:title="io_type">
<polygon fill="none" stroke="black" points="242,-532.5 242,-551.5 289,-551.5 289,-532.5 242,-532.5"/>
<text text-anchor="middle" x="265.5" y="-539.5" font-family="Helvetica,sans-Serif" font-size="10.00">io_type</text>
</a>
</g>
</g>
<!-- Node29&#45;&gt;Node33 -->
<g id="edge33" class="edge"><title>Node29&#45;&gt;Node33</title>
<path fill="none" stroke="midnightblue" d="M152.893,-481.894C168.322,-494.3 191.083,-511.331 213,-523 222.085,-527.837 232.671,-531.974 241.873,-535.141"/>
<polygon fill="midnightblue" stroke="midnightblue" points="155.084,-479.164 145.128,-475.541 150.652,-484.582 155.084,-479.164"/>
</g>
<!-- Node34 -->
<g id="node34" class="node"><title>Node34</title>
<g id="a_node34"><a xlink:href="../../d8/dd3/lbaselib_8c.html#addfd66adcbe4c777cf5e10536d27d8b1" target="_top" xlink:title="luaB_getmetatable">
<polygon fill="none" stroke="black" points="217.5,-494.5 217.5,-513.5 313.5,-513.5 313.5,-494.5 217.5,-494.5"/>
<text text-anchor="middle" x="265.5" y="-501.5" font-family="Helvetica,sans-Serif" font-size="10.00">luaB_getmetatable</text>
</a>
</g>
</g>
<!-- Node29&#45;&gt;Node34 -->
<g id="edge34" class="edge"><title>Node29&#45;&gt;Node34</title>
<path fill="none" stroke="midnightblue" d="M176.552,-478.391C194.423,-483.594 214.89,-489.554 231.58,-494.414"/>
<polygon fill="midnightblue" stroke="midnightblue" points="177.51,-475.024 166.931,-475.589 175.553,-481.745 177.51,-475.024"/>
</g>
<!-- Node35 -->
<g id="node35" class="node"><title>Node35</title>
<g id="a_node35"><a xlink:href="../../d8/dd3/lbaselib_8c.html#a1fb2725eed679431d070b2e9e7abc223" target="_top" xlink:title="luaB_pcall">
<polygon fill="none" stroke="black" points="235,-456.5 235,-475.5 296,-475.5 296,-456.5 235,-456.5"/>
<text text-anchor="middle" x="265.5" y="-463.5" font-family="Helvetica,sans-Serif" font-size="10.00">luaB_pcall</text>
</a>
</g>
</g>
<!-- Node29&#45;&gt;Node35 -->
<g id="edge35" class="edge"><title>Node29&#45;&gt;Node35</title>
<path fill="none" stroke="midnightblue" d="M183.179,-466C200.595,-466 219.64,-466 234.918,-466"/>
<polygon fill="midnightblue" stroke="midnightblue" points="183.154,-462.5 173.154,-466 183.154,-469.5 183.154,-462.5"/>
</g>
<!-- Node36 -->
<g id="node36" class="node"><title>Node36</title>
<g id="a_node36"><a xlink:href="../../d8/dd3/lbaselib_8c.html#a4dbd4fb89ec70a7b07cad52f7c13e637" target="_top" xlink:title="luaB_rawequal">
<polygon fill="none" stroke="black" points="225,-418.5 225,-437.5 306,-437.5 306,-418.5 225,-418.5"/>
<text text-anchor="middle" x="265.5" y="-425.5" font-family="Helvetica,sans-Serif" font-size="10.00">luaB_rawequal</text>
</a>
</g>
</g>
<!-- Node29&#45;&gt;Node36 -->
<g id="edge36" class="edge"><title>Node29&#45;&gt;Node36</title>
<path fill="none" stroke="midnightblue" d="M176.552,-453.609C194.423,-448.406 214.89,-442.446 231.58,-437.586"/>
<polygon fill="midnightblue" stroke="midnightblue" points="175.553,-450.255 166.931,-456.411 177.51,-456.976 175.553,-450.255"/>
</g>
<!-- Node37 -->
<g id="node37" class="node"><title>Node37</title>
<g id="a_node37"><a xlink:href="../../d8/dd3/lbaselib_8c.html#a248a6847a33f31c69a43a76b6b8bcb4b" target="_top" xlink:title="luaB_rawget">
<polygon fill="none" stroke="black" points="230,-646.5 230,-665.5 301,-665.5 301,-646.5 230,-646.5"/>
<text text-anchor="middle" x="265.5" y="-653.5" font-family="Helvetica,sans-Serif" font-size="10.00">luaB_rawget</text>
</a>
</g>
</g>
<!-- Node29&#45;&gt;Node37 -->
<g id="edge37" class="edge"><title>Node29&#45;&gt;Node37</title>
<path fill="none" stroke="midnightblue" d="M137.894,-485.612C145.86,-520.761 167.261,-594.754 213,-637 217.83,-641.462 223.798,-644.899 229.94,-647.539"/>
<polygon fill="midnightblue" stroke="midnightblue" points="141.279,-484.701 135.766,-475.654 134.433,-486.164 141.279,-484.701"/>
</g>
<!-- Node38 -->
<g id="node38" class="node"><title>Node38</title>
<g id="a_node38"><a xlink:href="../../d8/dd3/lbaselib_8c.html#a7b7225051c25127792f30eadd3498cc3" target="_top" xlink:title="luaB_rawset">
<polygon fill="none" stroke="black" points="230,-608.5 230,-627.5 301,-627.5 301,-608.5 230,-608.5"/>
<text text-anchor="middle" x="265.5" y="-615.5" font-family="Helvetica,sans-Serif" font-size="10.00">luaB_rawset</text>
</a>
</g>
</g>
<!-- Node29&#45;&gt;Node38 -->
<g id="edge38" class="edge"><title>Node29&#45;&gt;Node38</title>
<path fill="none" stroke="midnightblue" d="M141.621,-485.246C153.307,-512.613 178.032,-562.897 213,-594 219.781,-600.031 228.339,-604.827 236.522,-608.497"/>
<polygon fill="midnightblue" stroke="midnightblue" points="144.714,-483.565 137.663,-475.657 138.243,-486.236 144.714,-483.565"/>
</g>
<!-- Node39 -->
<g id="node39" class="node"><title>Node39</title>
<g id="a_node39"><a xlink:href="../../d8/dd3/lbaselib_8c.html#a6224f7b7c4485996e1c22eae32de990d" target="_top" xlink:title="luaB_tonumber">
<polygon fill="none" stroke="black" points="225.5,-380.5 225.5,-399.5 305.5,-399.5 305.5,-380.5 225.5,-380.5"/>
<text text-anchor="middle" x="265.5" y="-387.5" font-family="Helvetica,sans-Serif" font-size="10.00">luaB_tonumber</text>
</a>
</g>
</g>
<!-- Node29&#45;&gt;Node39 -->
<g id="edge39" class="edge"><title>Node29&#45;&gt;Node39</title>
<path fill="none" stroke="midnightblue" d="M152.893,-450.106C168.322,-437.7 191.083,-420.669 213,-409 219.73,-405.417 227.283,-402.218 234.487,-399.513"/>
<polygon fill="midnightblue" stroke="midnightblue" points="150.652,-447.418 145.128,-456.459 155.084,-452.836 150.652,-447.418"/>
</g>
<!-- Node40 -->
<g id="node40" class="node"><title>Node40</title>
<g id="a_node40"><a xlink:href="../../d8/dd3/lbaselib_8c.html#a15bd8ce3f719c87883bcb578c60677e7" target="_top" xlink:title="luaB_tostring">
<polygon fill="none" stroke="black" points="230,-228.5 230,-247.5 301,-247.5 301,-228.5 230,-228.5"/>
<text text-anchor="middle" x="265.5" y="-235.5" font-family="Helvetica,sans-Serif" font-size="10.00">luaB_tostring</text>
</a>
</g>
</g>
<!-- Node29&#45;&gt;Node40 -->
<g id="edge40" class="edge"><title>Node29&#45;&gt;Node40</title>
<path fill="none" stroke="midnightblue" d="M147.791,-448.061C157.202,-435.059 169.311,-416.719 177,-399 202.919,-339.274 169.445,-305.394 213,-257 217.526,-251.971 223.504,-248.27 229.778,-245.547"/>
<polygon fill="midnightblue" stroke="midnightblue" points="144.946,-446.022 141.794,-456.137 150.566,-450.195 144.946,-446.022"/>
</g>
<!-- Node41 -->
<g id="node41" class="node"><title>Node41</title>
<g id="a_node41"><a xlink:href="../../d8/dd3/lbaselib_8c.html#a7135b660cac1e25a2854acd9849cd4a4" target="_top" xlink:title="luaB_type">
<polygon fill="none" stroke="black" points="235.5,-342.5 235.5,-361.5 295.5,-361.5 295.5,-342.5 235.5,-342.5"/>
<text text-anchor="middle" x="265.5" y="-349.5" font-family="Helvetica,sans-Serif" font-size="10.00">luaB_type</text>
</a>
</g>
</g>
<!-- Node29&#45;&gt;Node41 -->
<g id="edge41" class="edge"><title>Node29&#45;&gt;Node41</title>
<path fill="none" stroke="midnightblue" d="M145.098,-447.503C158.676,-426.309 183.53,-391.829 213,-371 219.693,-366.27 227.701,-362.573 235.385,-359.75"/>
<polygon fill="midnightblue" stroke="midnightblue" points="141.992,-445.87 139.677,-456.209 147.934,-449.57 141.992,-445.87"/>
</g>
<!-- Node42&#45;&gt;Node4 -->
<g id="edge47" class="edge"><title>Node42&#45;&gt;Node4</title>
<path fill="none" stroke="midnightblue" d="M136.959,-847.162C143.614,-885.478 163.259,-969.239 213,-1017 217.056,-1020.89 221.978,-1024 227.151,-1026.48"/>
<polygon fill="midnightblue" stroke="midnightblue" points="140.339,-846.136 135.292,-836.82 133.428,-847.25 140.339,-846.136"/>
</g>
<!-- Node42&#45;&gt;Node20 -->
<g id="edge50" class="edge"><title>Node42&#45;&gt;Node20</title>
<path fill="none" stroke="midnightblue" d="M180.002,-815.514C219.092,-808.33 275.47,-804.239 318,-827 360.573,-849.785 383.417,-908.117 391.051,-931.294"/>
<polygon fill="midnightblue" stroke="midnightblue" points="179.091,-812.126 169.959,-817.497 180.447,-818.993 179.091,-812.126"/>
</g>
<!-- Node42&#45;&gt;Node28 -->
<g id="edge54" class="edge"><title>Node42&#45;&gt;Node28</title>
<path fill="none" stroke="midnightblue" d="M144.084,-845.754C152.862,-862.138 165.887,-886.583 177,-908 193.295,-939.404 186.576,-955.472 213,-979 217.342,-982.866 222.538,-985.968 227.936,-988.451"/>
<polygon fill="midnightblue" stroke="midnightblue" points="147.035,-843.851 139.222,-836.694 140.867,-847.161 147.035,-843.851"/>
</g>
<!-- Node42&#45;&gt;Node37 -->
<g id="edge52" class="edge"><title>Node42&#45;&gt;Node37</title>
<path fill="none" stroke="midnightblue" d="M139.172,-807.358C148.587,-775.286 171.488,-711.59 213,-675 217.861,-670.715 223.774,-667.366 229.836,-664.758"/>
<polygon fill="midnightblue" stroke="midnightblue" points="135.718,-806.714 136.396,-817.287 142.46,-808.599 135.718,-806.714"/>
</g>
<!-- Node42&#45;&gt;Node38 -->
<g id="edge53" class="edge"><title>Node42&#45;&gt;Node38</title>
<path fill="none" stroke="midnightblue" d="M136.959,-806.838C143.614,-768.522 163.259,-684.761 213,-637 217.743,-632.446 223.671,-628.966 229.8,-626.313"/>
<polygon fill="midnightblue" stroke="midnightblue" points="133.428,-806.75 135.292,-817.18 140.339,-807.864 133.428,-806.75"/>
</g>
<!-- Node43 -->
<g id="node43" class="node"><title>Node43</title>
<g id="a_node43"><a xlink:href="../../d8/d97/ldblib_8c.html#a31ebacb3668352430584fe277ac74923" target="_top" xlink:title="auxupvalue">
<polygon fill="none" stroke="red" points="231.5,-684.5 231.5,-703.5 299.5,-703.5 299.5,-684.5 231.5,-684.5"/>
<text text-anchor="middle" x="265.5" y="-691.5" font-family="Helvetica,sans-Serif" font-size="10.00">auxupvalue</text>
</a>
</g>
</g>
<!-- Node42&#45;&gt;Node43 -->
<g id="edge43" class="edge"><title>Node42&#45;&gt;Node43</title>
<path fill="none" stroke="midnightblue" d="M142.553,-808.07C154.783,-782.994 179.539,-738.922 213,-713 218.424,-708.798 224.871,-705.456 231.336,-702.824"/>
<polygon fill="midnightblue" stroke="midnightblue" points="139.321,-806.718 138.222,-817.255 145.653,-809.703 139.321,-806.718"/>
</g>
<!-- Node44 -->
<g id="node44" class="node"><title>Node44</title>
<g id="a_node44"><a xlink:href="../../d8/d97/ldblib_8c.html#a0951daf8c0b66e39bd3aa618aff380bf" target="_top" xlink:title="checkupval">
<polygon fill="none" stroke="red" points="233,-760.5 233,-779.5 298,-779.5 298,-760.5 233,-760.5"/>
<text text-anchor="middle" x="265.5" y="-767.5" font-family="Helvetica,sans-Serif" font-size="10.00">checkupval</text>
</a>
</g>
</g>
<!-- Node42&#45;&gt;Node44 -->
<g id="edge45" class="edge"><title>Node42&#45;&gt;Node44</title>
<path fill="none" stroke="midnightblue" d="M165.178,-813.382C189.054,-802.954 221.389,-788.83 242.586,-779.572"/>
<polygon fill="midnightblue" stroke="midnightblue" points="163.606,-810.249 155.843,-817.459 166.408,-816.664 163.606,-810.249"/>
</g>
<!-- Node45 -->
<g id="node45" class="node"><title>Node45</title>
<g id="a_node45"><a xlink:href="../../d8/d97/ldblib_8c.html#aa0c362d361f8f9bd8a002c34c393e2b0" target="_top" xlink:title="db_sethook">
<polygon fill="none" stroke="black" points="232.5,-722.5 232.5,-741.5 298.5,-741.5 298.5,-722.5 232.5,-722.5"/>
<text text-anchor="middle" x="265.5" y="-729.5" font-family="Helvetica,sans-Serif" font-size="10.00">db_sethook</text>
</a>
</g>
</g>
<!-- Node42&#45;&gt;Node45 -->
<g id="edge46" class="edge"><title>Node42&#45;&gt;Node45</title>
<path fill="none" stroke="midnightblue" d="M148.556,-809.26C163.279,-792.299 187.456,-767.006 213,-751 218.976,-747.255 225.8,-744.088 232.483,-741.477"/>
<polygon fill="midnightblue" stroke="midnightblue" points="145.557,-807.385 141.761,-817.276 150.897,-811.911 145.557,-807.385"/>
</g>
<!-- Node46 -->
<g id="node46" class="node"><title>Node46</title>
<g id="a_node46"><a xlink:href="../../d8/dd3/lbaselib_8c.html#a9e49fcec5e66e36e817b1951123efc03" target="_top" xlink:title="ipairsaux">
<polygon fill="none" stroke="red" points="237.5,-950.5 237.5,-969.5 293.5,-969.5 293.5,-950.5 237.5,-950.5"/>
<text text-anchor="middle" x="265.5" y="-957.5" font-family="Helvetica,sans-Serif" font-size="10.00">ipairsaux</text>
</a>
</g>
</g>
<!-- Node42&#45;&gt;Node46 -->
<g id="edge48" class="edge"><title>Node42&#45;&gt;Node46</title>
<path fill="none" stroke="midnightblue" d="M142.553,-845.93C154.783,-871.006 179.539,-915.078 213,-941 220.082,-946.486 228.906,-950.505 237.239,-953.395"/>
<polygon fill="midnightblue" stroke="midnightblue" points="145.653,-844.297 138.222,-836.745 139.321,-847.282 145.653,-844.297"/>
</g>
<!-- Node47 -->
<g id="node47" class="node"><title>Node47</title>
<g id="a_node47"><a xlink:href="../../df/d2d/lcorolib_8c.html#ad49772e236781ef7ad88ff8bc980b40b" target="_top" xlink:title="luaB_cocreate">
<polygon fill="none" stroke="red" points="227,-912.5 227,-931.5 304,-931.5 304,-912.5 227,-912.5"/>
<text text-anchor="middle" x="265.5" y="-919.5" font-family="Helvetica,sans-Serif" font-size="10.00">luaB_cocreate</text>
</a>
</g>
</g>
<!-- Node42&#45;&gt;Node47 -->
<g id="edge49" class="edge"><title>Node42&#45;&gt;Node47</title>
<path fill="none" stroke="midnightblue" d="M148.556,-844.74C163.279,-861.701 187.456,-886.994 213,-903 218.895,-906.694 225.616,-909.826 232.212,-912.417"/>
<polygon fill="midnightblue" stroke="midnightblue" points="150.897,-842.089 141.761,-836.724 145.557,-846.615 150.897,-842.089"/>
</g>
<!-- Node48 -->
<g id="node48" class="node"><title>Node48</title>
<g id="a_node48"><a xlink:href="../../d8/dd3/lbaselib_8c.html#ac0b11ecf3ced275821aaf5a03ed33b02" target="_top" xlink:title="luaB_next">
<polygon fill="none" stroke="red" points="236,-874.5 236,-893.5 295,-893.5 295,-874.5 236,-874.5"/>
<text text-anchor="middle" x="265.5" y="-881.5" font-family="Helvetica,sans-Serif" font-size="10.00">luaB_next</text>
</a>
</g>
</g>
<!-- Node42&#45;&gt;Node48 -->
<g id="edge51" class="edge"><title>Node42&#45;&gt;Node48</title>
<path fill="none" stroke="midnightblue" d="M161.84,-841.189C176.839,-848.63 195.758,-857.692 213,-865 220.722,-868.273 229.22,-871.541 237.049,-874.42"/>
<polygon fill="midnightblue" stroke="midnightblue" points="163.115,-837.913 152.606,-836.568 159.982,-844.173 163.115,-837.913"/>
</g>
<!-- Node49 -->
<g id="node49" class="node"><title>Node49</title>
<g id="a_node49"><a xlink:href="../../dc/dba/loslib_8c.html#ae32288bc9696b48450146e11c241f943" target="_top" xlink:title="os_time">
<polygon fill="none" stroke="black" points="241,-836.5 241,-855.5 290,-855.5 290,-836.5 241,-836.5"/>
<text text-anchor="middle" x="265.5" y="-843.5" font-family="Helvetica,sans-Serif" font-size="10.00">os_time</text>
</a>
</g>
</g>
<!-- Node42&#45;&gt;Node49 -->
<g id="edge55" class="edge"><title>Node42&#45;&gt;Node49</title>
<path fill="none" stroke="midnightblue" d="M184.482,-834.35C203.817,-837.165 224.978,-840.246 240.68,-842.532"/>
<polygon fill="midnightblue" stroke="midnightblue" points="184.976,-830.885 174.576,-832.908 183.967,-837.812 184.976,-830.885"/>
</g>
<!-- Node43&#45;&gt;Node32 -->
<g id="edge44" class="edge"><title>Node43&#45;&gt;Node32</title>
<path fill="none" stroke="midnightblue" d="M303.375,-680.958C308.325,-679.044 313.31,-677.03 318,-675 338.307,-666.209 360.909,-654.674 376.145,-646.628"/>
<polygon fill="midnightblue" stroke="midnightblue" points="302.108,-677.695 293.984,-684.496 304.576,-684.246 302.108,-677.695"/>
</g>
<!-- Node50&#45;&gt;Node40 -->
<g id="edge57" class="edge"><title>Node50&#45;&gt;Node40</title>
<path fill="none" stroke="midnightblue" d="M141.659,-360.729C153.253,-333.882 177.713,-285.34 213,-257 217.978,-253.002 223.878,-249.795 229.877,-247.239"/>
<polygon fill="midnightblue" stroke="midnightblue" points="138.339,-359.598 137.727,-370.175 144.801,-362.289 138.339,-359.598"/>
</g>
</g>
</svg>
