<?xml version="1.0" encoding="UTF-8" standalone="no"?>
<!DOCTYPE svg PUBLIC "-//W3C//DTD SVG 1.1//EN"
 "http://www.w3.org/Graphics/SVG/1.1/DTD/svg11.dtd">
<!-- Generated by graphviz version 2.38.0 (20140413.2041)
 -->
<!-- Title: lua_getmetatable Pages: 1 -->
<svg width="568pt" height="237pt"
 viewBox="0.00 0.00 568.00 237.00" xmlns="http://www.w3.org/2000/svg" xmlns:xlink="http://www.w3.org/1999/xlink">
<g id="graph0" class="graph" transform="scale(1 1) rotate(0) translate(4 233)">
<title>lua_getmetatable</title>
<!-- Node1 -->
<g id="node1" class="node"><title>Node1</title>
<polygon fill="#bfbfbf" stroke="black" points="0,-152.5 0,-171.5 89,-171.5 89,-152.5 0,-152.5"/>
<text text-anchor="middle" x="44.5" y="-159.5" font-family="Helvetica,sans-Serif" font-size="10.00">lua_getmetatable</text>
</g>
<!-- Node2 -->
<g id="node2" class="node"><title>Node2</title>
<g id="a_node2"><a xlink:href="../../d8/d97/ldblib_8c.html#aa84da9dfea83fb9e516443b49b109044" target="_top" xlink:title="db_getmetatable">
<polygon fill="none" stroke="black" points="125.5,-209.5 125.5,-228.5 213.5,-228.5 213.5,-209.5 125.5,-209.5"/>
<text text-anchor="middle" x="169.5" y="-216.5" font-family="Helvetica,sans-Serif" font-size="10.00">db_getmetatable</text>
</a>
</g>
</g>
<!-- Node1&#45;&gt;Node2 -->
<g id="edge1" class="edge"><title>Node1&#45;&gt;Node2</title>
<path fill="none" stroke="midnightblue" d="M75.187,-175.757C97.6604,-186.172 127.955,-200.211 147.845,-209.428"/>
<polygon fill="midnightblue" stroke="midnightblue" points="76.6322,-172.57 66.0874,-171.541 73.6889,-178.921 76.6322,-172.57"/>
</g>
<!-- Node3 -->
<g id="node3" class="node"><title>Node3</title>
<g id="a_node3"><a xlink:href="../../d8/dd3/lbaselib_8c.html#addfd66adcbe4c777cf5e10536d27d8b1" target="_top" xlink:title="luaB_getmetatable">
<polygon fill="none" stroke="black" points="250,-190.5 250,-209.5 346,-209.5 346,-190.5 250,-190.5"/>
<text text-anchor="middle" x="298" y="-197.5" font-family="Helvetica,sans-Serif" font-size="10.00">luaB_getmetatable</text>
</a>
</g>
</g>
<!-- Node1&#45;&gt;Node3 -->
<g id="edge2" class="edge"><title>Node1&#45;&gt;Node3</title>
<path fill="none" stroke="midnightblue" d="M99.1149,-170.101C143.82,-176.856 206.904,-186.387 249.74,-192.859"/>
<polygon fill="midnightblue" stroke="midnightblue" points="99.4315,-166.609 89.0208,-168.576 98.3857,-173.53 99.4315,-166.609"/>
</g>
<!-- Node4 -->
<g id="node4" class="node"><title>Node4</title>
<g id="a_node4"><a xlink:href="../../da/d29/lauxlib_8h.html#aed3f129411ba1ec14f813d650f16384d" target="_top" xlink:title="luaL_getmetafield">
<polygon fill="none" stroke="black" points="125,-133.5 125,-152.5 214,-152.5 214,-133.5 125,-133.5"/>
<text text-anchor="middle" x="169.5" y="-140.5" font-family="Helvetica,sans-Serif" font-size="10.00">luaL_getmetafield</text>
</a>
</g>
</g>
<!-- Node1&#45;&gt;Node4 -->
<g id="edge3" class="edge"><title>Node1&#45;&gt;Node4</title>
<path fill="none" stroke="midnightblue" d="M99.1774,-153.708C107.783,-152.379 116.597,-151.018 124.929,-149.73"/>
<polygon fill="midnightblue" stroke="midnightblue" points="98.56,-150.262 89.2115,-155.248 99.6287,-157.18 98.56,-150.262"/>
</g>
<!-- Node13 -->
<g id="node13" class="node"><title>Node13</title>
<g id="a_node13"><a xlink:href="../../da/d29/lauxlib_8h.html#ab40f618f7e65d9af23e01f3924c3d6c8" target="_top" xlink:title="luaL_testudata">
<polygon fill="none" stroke="black" points="129.5,-38.5 129.5,-57.5 209.5,-57.5 209.5,-38.5 129.5,-38.5"/>
<text text-anchor="middle" x="169.5" y="-45.5" font-family="Helvetica,sans-Serif" font-size="10.00">luaL_testudata</text>
</a>
</g>
</g>
<!-- Node1&#45;&gt;Node13 -->
<g id="edge13" class="edge"><title>Node1&#45;&gt;Node13</title>
<path fill="none" stroke="midnightblue" d="M63.3226,-145.481C89.3656,-121.344 137.002,-77.1929 158.04,-57.695"/>
<polygon fill="midnightblue" stroke="midnightblue" points="60.9421,-142.916 55.9869,-152.28 65.7004,-148.05 60.9421,-142.916"/>
</g>
<!-- Node4&#45;&gt;Node3 -->
<g id="edge4" class="edge"><title>Node4&#45;&gt;Node3</title>
<path fill="none" stroke="midnightblue" d="M198.921,-157.109C213.995,-164.458 232.889,-173.461 250,-181 257.249,-184.194 265.21,-187.49 272.486,-190.423"/>
<polygon fill="midnightblue" stroke="midnightblue" points="200.143,-153.81 189.624,-152.549 197.061,-160.095 200.143,-153.81"/>
</g>
<!-- Node5 -->
<g id="node5" class="node"><title>Node5</title>
<g id="a_node5"><a xlink:href="../../d8/dd3/lbaselib_8c.html#af7799a987ba6d158a96a52e80fb5beaf" target="_top" xlink:title="luaB_setmetatable">
<polygon fill="none" stroke="black" points="250,-152.5 250,-171.5 346,-171.5 346,-152.5 250,-152.5"/>
<text text-anchor="middle" x="298" y="-159.5" font-family="Helvetica,sans-Serif" font-size="10.00">luaB_setmetatable</text>
</a>
</g>
</g>
<!-- Node4&#45;&gt;Node5 -->
<g id="edge5" class="edge"><title>Node4&#45;&gt;Node5</title>
<path fill="none" stroke="midnightblue" d="M223.996,-151.035C232.612,-152.329 241.476,-153.66 249.927,-154.93"/>
<polygon fill="midnightblue" stroke="midnightblue" points="224.443,-147.563 214.034,-149.539 223.403,-154.485 224.443,-147.563"/>
</g>
<!-- Node6 -->
<g id="node6" class="node"><title>Node6</title>
<g id="a_node6"><a xlink:href="../../da/d29/lauxlib_8h.html#af26aec8cce4a3f4448c60f402d78f17d" target="_top" xlink:title="luaL_callmeta">
<polygon fill="none" stroke="black" points="261,-114.5 261,-133.5 335,-133.5 335,-114.5 261,-114.5"/>
<text text-anchor="middle" x="298" y="-121.5" font-family="Helvetica,sans-Serif" font-size="10.00">luaL_callmeta</text>
</a>
</g>
</g>
<!-- Node4&#45;&gt;Node6 -->
<g id="edge6" class="edge"><title>Node4&#45;&gt;Node6</title>
<path fill="none" stroke="midnightblue" d="M224.273,-134.923C236.653,-133.064 249.528,-131.13 260.943,-129.416"/>
<polygon fill="midnightblue" stroke="midnightblue" points="223.403,-131.515 214.034,-136.461 224.443,-138.437 223.403,-131.515"/>
</g>
<!-- Node10 -->
<g id="node10" class="node"><title>Node10</title>
<g id="a_node10"><a xlink:href="../../d8/dd3/lbaselib_8c.html#a8f5df6d3f89389dd27da5cfeceee1f34" target="_top" xlink:title="pairsmeta">
<polygon fill="none" stroke="black" points="268.5,-76.5 268.5,-95.5 327.5,-95.5 327.5,-76.5 268.5,-76.5"/>
<text text-anchor="middle" x="298" y="-83.5" font-family="Helvetica,sans-Serif" font-size="10.00">pairsmeta</text>
</a>
</g>
</g>
<!-- Node4&#45;&gt;Node10 -->
<g id="edge10" class="edge"><title>Node4&#45;&gt;Node10</title>
<path fill="none" stroke="midnightblue" d="M198.921,-128.891C213.995,-121.542 232.889,-112.539 250,-105 257.249,-101.806 265.21,-98.5096 272.486,-95.5773"/>
<polygon fill="midnightblue" stroke="midnightblue" points="197.061,-125.905 189.624,-133.451 200.143,-132.19 197.061,-125.905"/>
</g>
<!-- Node7 -->
<g id="node7" class="node"><title>Node7</title>
<g id="a_node7"><a xlink:href="../../da/d29/lauxlib_8h.html#aef6da057d1e26ed6449b92177f1f2f5a" target="_top" xlink:title="luaL_tolstring">
<polygon fill="none" stroke="black" points="382,-114.5 382,-133.5 453,-133.5 453,-114.5 382,-114.5"/>
<text text-anchor="middle" x="417.5" y="-121.5" font-family="Helvetica,sans-Serif" font-size="10.00">luaL_tolstring</text>
</a>
</g>
</g>
<!-- Node6&#45;&gt;Node7 -->
<g id="edge7" class="edge"><title>Node6&#45;&gt;Node7</title>
<path fill="none" stroke="midnightblue" d="M345.223,-124C357.41,-124 370.351,-124 381.815,-124"/>
<polygon fill="midnightblue" stroke="midnightblue" points="345.213,-120.5 335.213,-124 345.213,-127.5 345.213,-120.5"/>
</g>
<!-- Node8 -->
<g id="node8" class="node"><title>Node8</title>
<g id="a_node8"><a xlink:href="../../d8/dd3/lbaselib_8c.html#a15bd8ce3f719c87883bcb578c60677e7" target="_top" xlink:title="luaB_tostring">
<polygon fill="none" stroke="black" points="489,-133.5 489,-152.5 560,-152.5 560,-133.5 489,-133.5"/>
<text text-anchor="middle" x="524.5" y="-140.5" font-family="Helvetica,sans-Serif" font-size="10.00">luaB_tostring</text>
</a>
</g>
</g>
<!-- Node7&#45;&gt;Node8 -->
<g id="edge8" class="edge"><title>Node7&#45;&gt;Node8</title>
<path fill="none" stroke="midnightblue" d="M463.097,-132.07C471.715,-133.629 480.623,-135.241 488.864,-136.733"/>
<polygon fill="midnightblue" stroke="midnightblue" points="463.635,-128.611 453.172,-130.274 462.389,-135.499 463.635,-128.611"/>
</g>
<!-- Node9 -->
<g id="node9" class="node"><title>Node9</title>
<g id="a_node9"><a xlink:href="../../dc/d77/lstrlib_8c.html#ae26a9374857058119e59d0328208c2f2" target="_top" xlink:title="str_format">
<polygon fill="none" stroke="black" points="496,-95.5 496,-114.5 553,-114.5 553,-95.5 496,-95.5"/>
<text text-anchor="middle" x="524.5" y="-102.5" font-family="Helvetica,sans-Serif" font-size="10.00">str_format</text>
</a>
</g>
</g>
<!-- Node7&#45;&gt;Node9 -->
<g id="edge9" class="edge"><title>Node7&#45;&gt;Node9</title>
<path fill="none" stroke="midnightblue" d="M463.168,-115.917C474.261,-113.91 485.833,-111.816 495.84,-110.005"/>
<polygon fill="midnightblue" stroke="midnightblue" points="462.389,-112.501 453.172,-117.726 463.635,-119.389 462.389,-112.501"/>
</g>
<!-- Node11 -->
<g id="node11" class="node"><title>Node11</title>
<g id="a_node11"><a xlink:href="../../d8/dd3/lbaselib_8c.html#a5cb8b3b13437afd94c3313f0a4b17d06" target="_top" xlink:title="luaB_ipairs">
<polygon fill="none" stroke="black" points="385.5,-76.5 385.5,-95.5 449.5,-95.5 449.5,-76.5 385.5,-76.5"/>
<text text-anchor="middle" x="417.5" y="-83.5" font-family="Helvetica,sans-Serif" font-size="10.00">luaB_ipairs</text>
</a>
</g>
</g>
<!-- Node10&#45;&gt;Node11 -->
<g id="edge11" class="edge"><title>Node10&#45;&gt;Node11</title>
<path fill="none" stroke="midnightblue" d="M337.973,-86C353.305,-86 370.671,-86 385.167,-86"/>
<polygon fill="midnightblue" stroke="midnightblue" points="337.744,-82.5001 327.744,-86 337.744,-89.5001 337.744,-82.5001"/>
</g>
<!-- Node12 -->
<g id="node12" class="node"><title>Node12</title>
<g id="a_node12"><a xlink:href="../../d8/dd3/lbaselib_8c.html#a36def102f87ba8c40734489231e90109" target="_top" xlink:title="luaB_pairs">
<polygon fill="none" stroke="black" points="386.5,-38.5 386.5,-57.5 448.5,-57.5 448.5,-38.5 386.5,-38.5"/>
<text text-anchor="middle" x="417.5" y="-45.5" font-family="Helvetica,sans-Serif" font-size="10.00">luaB_pairs</text>
</a>
</g>
</g>
<!-- Node10&#45;&gt;Node12 -->
<g id="edge12" class="edge"><title>Node10&#45;&gt;Node12</title>
<path fill="none" stroke="midnightblue" d="M337.393,-73.5834C353.454,-68.3895 371.83,-62.4466 386.826,-57.5967"/>
<polygon fill="midnightblue" stroke="midnightblue" points="336.182,-70.2968 327.744,-76.7042 338.336,-76.9571 336.182,-70.2968"/>
</g>
<!-- Node14 -->
<g id="node14" class="node"><title>Node14</title>
<g id="a_node14"><a xlink:href="../../de/df3/liolib_8c.html#a2bd80ae170dce6c29d385b71398fd7c2" target="_top" xlink:title="io_type">
<polygon fill="none" stroke="black" points="274.5,-38.5 274.5,-57.5 321.5,-57.5 321.5,-38.5 274.5,-38.5"/>
<text text-anchor="middle" x="298" y="-45.5" font-family="Helvetica,sans-Serif" font-size="10.00">io_type</text>
</a>
</g>
</g>
<!-- Node13&#45;&gt;Node14 -->
<g id="edge14" class="edge"><title>Node13&#45;&gt;Node14</title>
<path fill="none" stroke="midnightblue" d="M220.022,-48C238.757,-48 259.18,-48 274.279,-48"/>
<polygon fill="midnightblue" stroke="midnightblue" points="219.832,-44.5001 209.832,-48 219.832,-51.5001 219.832,-44.5001"/>
</g>
<!-- Node15 -->
<g id="node15" class="node"><title>Node15</title>
<g id="a_node15"><a xlink:href="../../da/d29/lauxlib_8h.html#aed8d8e4f3b95c6bcac246ec9895027b1" target="_top" xlink:title="luaL_checkudata">
<polygon fill="none" stroke="black" points="253.5,-0.5 253.5,-19.5 342.5,-19.5 342.5,-0.5 253.5,-0.5"/>
<text text-anchor="middle" x="298" y="-7.5" font-family="Helvetica,sans-Serif" font-size="10.00">luaL_checkudata</text>
</a>
</g>
</g>
<!-- Node13&#45;&gt;Node15 -->
<g id="edge15" class="edge"><title>Node13&#45;&gt;Node15</title>
<path fill="none" stroke="midnightblue" d="M212.229,-35.4647C229.438,-30.2952 249.06,-24.4009 265.089,-19.5859"/>
<polygon fill="midnightblue" stroke="midnightblue" points="210.992,-32.1819 202.421,-38.411 213.005,-38.886 210.992,-32.1819"/>
</g>
</g>
</svg>
