<?xml version="1.0" encoding="UTF-8" standalone="no"?>
<!DOCTYPE svg PUBLIC "-//W3C//DTD SVG 1.1//EN"
 "http://www.w3.org/Graphics/SVG/1.1/DTD/svg11.dtd">
<!-- Generated by graphviz version 2.38.0 (20140413.2041)
 -->
<!-- Title: lua_pushlstring Pages: 1 -->
<svg width="953pt" height="845pt"
 viewBox="0.00 0.00 953.00 845.00" xmlns="http://www.w3.org/2000/svg" xmlns:xlink="http://www.w3.org/1999/xlink">
<g id="graph0" class="graph" transform="scale(1 1) rotate(0) translate(4 841)">
<title>lua_pushlstring</title>
<!-- Node1 -->
<g id="node1" class="node"><title>Node1</title>
<polygon fill="#bfbfbf" stroke="black" points="0,-285.5 0,-304.5 80,-304.5 80,-285.5 0,-285.5"/>
<text text-anchor="middle" x="40" y="-292.5" font-family="Helvetica,sans-Serif" font-size="10.00">lua_pushlstring</text>
</g>
<!-- Node2 -->
<g id="node2" class="node"><title>Node2</title>
<g id="a_node2"><a xlink:href="../../dc/d77/lstrlib_8c.html#ad24cfa73e5ad25ec99a1b48f0916471e" target="_top" xlink:title="add_value">
<polygon fill="none" stroke="black" points="384.5,-722.5 384.5,-741.5 446.5,-741.5 446.5,-722.5 384.5,-722.5"/>
<text text-anchor="middle" x="415.5" y="-729.5" font-family="Helvetica,sans-Serif" font-size="10.00">add_value</text>
</a>
</g>
</g>
<!-- Node1&#45;&gt;Node2 -->
<g id="edge1" class="edge"><title>Node1&#45;&gt;Node2</title>
<path fill="none" stroke="midnightblue" d="M42.8953,-314.963C47.9501,-359.426 65.038,-468.473 116,-542 185.113,-641.715 325.251,-700.659 385.689,-722.391"/>
<polygon fill="midnightblue" stroke="midnightblue" points="46.3623,-314.465 41.8344,-304.886 39.4007,-315.197 46.3623,-314.465"/>
</g>
<!-- Node4 -->
<g id="node4" class="node"><title>Node4</title>
<g id="a_node4"><a xlink:href="../../d2/d82/loadlib_8c.html#a91ac5b5231cf039af46226806dcc3884" target="_top" xlink:title="loadfunc">
<polygon fill="none" stroke="black" points="496.5,-190.5 496.5,-209.5 548.5,-209.5 548.5,-190.5 496.5,-190.5"/>
<text text-anchor="middle" x="522.5" y="-197.5" font-family="Helvetica,sans-Serif" font-size="10.00">loadfunc</text>
</a>
</g>
</g>
<!-- Node1&#45;&gt;Node4 -->
<g id="edge3" class="edge"><title>Node1&#45;&gt;Node4</title>
<path fill="none" stroke="midnightblue" d="M69.6739,-281.224C108.281,-263.391 179.579,-232.953 244,-219 335.323,-199.22 447.134,-198.487 496.285,-199.308"/>
<polygon fill="midnightblue" stroke="midnightblue" points="68.1661,-278.065 60.587,-285.468 71.1286,-284.407 68.1661,-278.065"/>
</g>
<!-- Node8 -->
<g id="node8" class="node"><title>Node8</title>
<g id="a_node8"><a xlink:href="../../d2/d82/loadlib_8c.html#a1ec05cd98a045c271aeda9f9c6041e1c" target="_top" xlink:title="searcher_Croot">
<polygon fill="none" stroke="black" points="595,-114.5 595,-133.5 675,-133.5 675,-114.5 595,-114.5"/>
<text text-anchor="middle" x="635" y="-121.5" font-family="Helvetica,sans-Serif" font-size="10.00">searcher_Croot</text>
</a>
</g>
</g>
<!-- Node1&#45;&gt;Node8 -->
<g id="edge60" class="edge"><title>Node1&#45;&gt;Node8</title>
<path fill="none" stroke="midnightblue" d="M44.6158,-275.626C52.048,-240.856 72.1655,-167.451 116,-124 176.947,-63.5858 207.684,-48 293.5,-48 293.5,-48 293.5,-48 416.5,-48 496.099,-48 583.374,-93.924 618.292,-114.375"/>
<polygon fill="midnightblue" stroke="midnightblue" points="41.1765,-274.976 42.6345,-285.47 48.0388,-276.357 41.1765,-274.976"/>
</g>
<!-- Node9 -->
<g id="node9" class="node"><title>Node9</title>
<g id="a_node9"><a xlink:href="../../da/d29/lauxlib_8h.html#aac5dfab9ba0ced4f5ae3b22aa35faffe" target="_top" xlink:title="luaL_pushresult">
<polygon fill="none" stroke="black" points="120.5,-380.5 120.5,-399.5 203.5,-399.5 203.5,-380.5 120.5,-380.5"/>
<text text-anchor="middle" x="162" y="-387.5" font-family="Helvetica,sans-Serif" font-size="10.00">luaL_pushresult</text>
</a>
</g>
</g>
<!-- Node1&#45;&gt;Node9 -->
<g id="edge9" class="edge"><title>Node1&#45;&gt;Node9</title>
<path fill="none" stroke="midnightblue" d="M61.5198,-311.245C86.6355,-331.128 128.348,-364.15 148.856,-380.386"/>
<polygon fill="midnightblue" stroke="midnightblue" points="63.4031,-308.272 53.3901,-304.809 59.0581,-313.76 63.4031,-308.272"/>
</g>
<!-- Node38 -->
<g id="node38" class="node"><title>Node38</title>
<g id="a_node38"><a xlink:href="../../dc/d77/lstrlib_8c.html#a24a14b4e6e90bac4610dd334bb0b51b6" target="_top" xlink:title="push_onecapture">
<polygon fill="none" stroke="black" points="116.5,-741.5 116.5,-760.5 207.5,-760.5 207.5,-741.5 116.5,-741.5"/>
<text text-anchor="middle" x="162" y="-748.5" font-family="Helvetica,sans-Serif" font-size="10.00">push_onecapture</text>
</a>
</g>
</g>
<!-- Node1&#45;&gt;Node38 -->
<g id="edge47" class="edge"><title>Node1&#45;&gt;Node38</title>
<path fill="none" stroke="midnightblue" d="M40.3992,-315.072C39.3806,-377.429 42.6538,-571.766 116,-708 123.376,-721.701 136.693,-733.594 146.932,-741.378"/>
<polygon fill="midnightblue" stroke="midnightblue" points="43.9064,-314.788 40.632,-304.711 36.9081,-314.63 43.9064,-314.788"/>
</g>
<!-- Node46 -->
<g id="node46" class="node"><title>Node46</title>
<g id="a_node46"><a xlink:href="../../d2/d82/loadlib_8c.html#aa1ea5ee1b54a06650a887c4ee05a8547" target="_top" xlink:title="pushnexttemplate">
<polygon fill="none" stroke="black" points="116,-133.5 116,-152.5 208,-152.5 208,-133.5 116,-133.5"/>
<text text-anchor="middle" x="162" y="-140.5" font-family="Helvetica,sans-Serif" font-size="10.00">pushnexttemplate</text>
</a>
</g>
</g>
<!-- Node1&#45;&gt;Node46 -->
<g id="edge58" class="edge"><title>Node1&#45;&gt;Node46</title>
<path fill="none" stroke="midnightblue" d="M51.9558,-276.716C65.7024,-254.373 90.5731,-215.859 116,-186 126.509,-173.659 140.152,-161.018 149.649,-152.664"/>
<polygon fill="midnightblue" stroke="midnightblue" points="48.8241,-275.13 46.6181,-285.493 54.8049,-278.768 48.8241,-275.13"/>
</g>
<!-- Node47 -->
<g id="node47" class="node"><title>Node47</title>
<g id="a_node47"><a xlink:href="../../dc/d77/lstrlib_8c.html#a039b391d5f43533a0ce750c5e40d7752" target="_top" xlink:title="str_sub">
<polygon fill="none" stroke="black" points="138,-0.5 138,-19.5 186,-19.5 186,-0.5 138,-0.5"/>
<text text-anchor="middle" x="162" y="-7.5" font-family="Helvetica,sans-Serif" font-size="10.00">str_sub</text>
</a>
</g>
</g>
<!-- Node1&#45;&gt;Node47 -->
<g id="edge61" class="edge"><title>Node1&#45;&gt;Node47</title>
<path fill="none" stroke="midnightblue" d="M41.5954,-275.165C43.9921,-228.114 55.998,-108.149 116,-34 121.681,-26.9794 129.979,-21.7433 137.906,-17.9842"/>
<polygon fill="midnightblue" stroke="midnightblue" points="38.0946,-275.113 41.177,-285.25 45.0886,-275.403 38.0946,-275.113"/>
</g>
<!-- Node48 -->
<g id="node48" class="node"><title>Node48</title>
<g id="a_node48"><a xlink:href="../../de/df3/liolib_8c.html#ace61fce0bdea311d6d7c2206881165c7" target="_top" xlink:title="test_eof">
<polygon fill="none" stroke="black" points="137,-513.5 137,-532.5 187,-532.5 187,-513.5 137,-513.5"/>
<text text-anchor="middle" x="162" y="-520.5" font-family="Helvetica,sans-Serif" font-size="10.00">test_eof</text>
</a>
</g>
</g>
<!-- Node1&#45;&gt;Node48 -->
<g id="edge62" class="edge"><title>Node1&#45;&gt;Node48</title>
<path fill="none" stroke="midnightblue" d="M50.6935,-313.418C74.9741,-359.551 137.757,-478.839 155.975,-513.453"/>
<polygon fill="midnightblue" stroke="midnightblue" points="53.7582,-311.726 46.0035,-304.507 47.5638,-314.986 53.7582,-311.726"/>
</g>
<!-- Node3 -->
<g id="node3" class="node"><title>Node3</title>
<g id="a_node3"><a xlink:href="../../dc/d77/lstrlib_8c.html#a42337c674d265175bcc2b2f3809c7339" target="_top" xlink:title="str_gsub">
<polygon fill="none" stroke="black" points="496,-674.5 496,-693.5 549,-693.5 549,-674.5 496,-674.5"/>
<text text-anchor="middle" x="522.5" y="-681.5" font-family="Helvetica,sans-Serif" font-size="10.00">str_gsub</text>
</a>
</g>
</g>
<!-- Node2&#45;&gt;Node3 -->
<g id="edge2" class="edge"><title>Node2&#45;&gt;Node3</title>
<path fill="none" stroke="midnightblue" d="M446.613,-718.234C463.87,-710.345 485.098,-700.641 500.54,-693.582"/>
<polygon fill="midnightblue" stroke="midnightblue" points="445.136,-715.061 437.496,-722.402 448.046,-721.427 445.136,-715.061"/>
</g>
<!-- Node5 -->
<g id="node5" class="node"><title>Node5</title>
<g id="a_node5"><a xlink:href="../../d2/d82/loadlib_8c.html#a9a915ea950c831cee2f1e7b0a3bd9005" target="_top" xlink:title="searcher_C">
<polygon fill="none" stroke="black" points="602.5,-190.5 602.5,-209.5 667.5,-209.5 667.5,-190.5 602.5,-190.5"/>
<text text-anchor="middle" x="635" y="-197.5" font-family="Helvetica,sans-Serif" font-size="10.00">searcher_C</text>
</a>
</g>
</g>
<!-- Node4&#45;&gt;Node5 -->
<g id="edge4" class="edge"><title>Node4&#45;&gt;Node5</title>
<path fill="none" stroke="midnightblue" d="M558.8,-200C572.767,-200 588.698,-200 602.291,-200"/>
<polygon fill="midnightblue" stroke="midnightblue" points="558.574,-196.5 548.574,-200 558.574,-203.5 558.574,-196.5"/>
</g>
<!-- Node4&#45;&gt;Node8 -->
<g id="edge7" class="edge"><title>Node4&#45;&gt;Node8</title>
<path fill="none" stroke="midnightblue" d="M553.151,-185.089C555.178,-183.78 557.149,-182.413 559,-181 577.493,-166.885 576.241,-156.76 595,-143 599.858,-139.436 605.489,-136.244 610.934,-133.54"/>
<polygon fill="midnightblue" stroke="midnightblue" points="550.935,-182.331 544.091,-190.419 554.485,-188.365 550.935,-182.331"/>
</g>
<!-- Node6 -->
<g id="node6" class="node"><title>Node6</title>
<g id="a_node6"><a xlink:href="../../d2/d82/loadlib_8c.html#a8fc66c8b852ee2960dc20797521d1d9e" target="_top" xlink:title="createsearcherstable">
<polygon fill="none" stroke="black" points="711,-133.5 711,-152.5 815,-152.5 815,-133.5 711,-133.5"/>
<text text-anchor="middle" x="763" y="-140.5" font-family="Helvetica,sans-Serif" font-size="10.00">createsearcherstable</text>
</a>
</g>
</g>
<!-- Node5&#45;&gt;Node6 -->
<g id="edge5" class="edge"><title>Node5&#45;&gt;Node6</title>
<path fill="none" stroke="midnightblue" d="M666.411,-186.243C689.433,-175.828 720.466,-161.789 740.842,-152.572"/>
<polygon fill="midnightblue" stroke="midnightblue" points="664.758,-183.149 657.09,-190.459 667.643,-189.527 664.758,-183.149"/>
</g>
<!-- Node7 -->
<g id="node7" class="node"><title>Node7</title>
<g id="a_node7"><a xlink:href="../../d6/d07/lualib_8h.html#a05e0befc0439f926b6152129ab4f8dea" target="_top" xlink:title="luaopen_package">
<polygon fill="none" stroke="black" points="851,-109.5 851,-128.5 945,-128.5 945,-109.5 851,-109.5"/>
<text text-anchor="middle" x="898" y="-116.5" font-family="Helvetica,sans-Serif" font-size="10.00">luaopen_package</text>
</a>
</g>
</g>
<!-- Node6&#45;&gt;Node7 -->
<g id="edge6" class="edge"><title>Node6&#45;&gt;Node7</title>
<path fill="none" stroke="midnightblue" d="M825.056,-131.982C833.666,-130.429 842.398,-128.853 850.67,-127.36"/>
<polygon fill="midnightblue" stroke="midnightblue" points="824.26,-128.569 815.041,-133.79 825.504,-135.458 824.26,-128.569"/>
</g>
<!-- Node8&#45;&gt;Node6 -->
<g id="edge8" class="edge"><title>Node8&#45;&gt;Node6</title>
<path fill="none" stroke="midnightblue" d="M685.206,-131.42C693.603,-132.686 702.343,-134.004 710.791,-135.278"/>
<polygon fill="midnightblue" stroke="midnightblue" points="685.587,-127.938 675.177,-129.908 684.543,-134.86 685.587,-127.938"/>
</g>
<!-- Node9&#45;&gt;Node3 -->
<g id="edge45" class="edge"><title>Node9&#45;&gt;Node3</title>
<path fill="none" stroke="midnightblue" d="M170.67,-409.195C179.692,-431.827 195.078,-470.593 208,-504 224.29,-546.111 211.052,-568.127 244,-599 316.432,-666.871 441.716,-680.619 495.617,-683.352"/>
<polygon fill="midnightblue" stroke="midnightblue" points="173.855,-407.732 166.898,-399.742 167.353,-410.327 173.855,-407.732"/>
</g>
<!-- Node10 -->
<g id="node10" class="node"><title>Node10</title>
<g id="a_node10"><a xlink:href="../../d2/d82/loadlib_8c.html#aeea4101591c7cab25273f4dfe7d811d6" target="_top" xlink:title="findloader">
<polygon fill="none" stroke="black" points="266.5,-380.5 266.5,-399.5 322.5,-399.5 322.5,-380.5 266.5,-380.5"/>
<text text-anchor="middle" x="294.5" y="-387.5" font-family="Helvetica,sans-Serif" font-size="10.00">findloader</text>
</a>
</g>
</g>
<!-- Node9&#45;&gt;Node10 -->
<g id="edge10" class="edge"><title>Node9&#45;&gt;Node10</title>
<path fill="none" stroke="midnightblue" d="M213.603,-390C231.496,-390 250.938,-390 266.163,-390"/>
<polygon fill="midnightblue" stroke="midnightblue" points="213.576,-386.5 203.576,-390 213.576,-393.5 213.576,-386.5"/>
</g>
<!-- Node12 -->
<g id="node12" class="node"><title>Node12</title>
<g id="a_node12"><a xlink:href="../../da/d29/lauxlib_8h.html#a46672be75da57e1a464c5c6d80f19064" target="_top" xlink:title="luaL_gsub">
<polygon fill="none" stroke="black" points="263.5,-152.5 263.5,-171.5 325.5,-171.5 325.5,-152.5 263.5,-152.5"/>
<text text-anchor="middle" x="294.5" y="-159.5" font-family="Helvetica,sans-Serif" font-size="10.00">luaL_gsub</text>
</a>
</g>
</g>
<!-- Node9&#45;&gt;Node12 -->
<g id="edge12" class="edge"><title>Node9&#45;&gt;Node12</title>
<path fill="none" stroke="midnightblue" d="M170.184,-370.571C182.705,-337.874 210.423,-270.391 244,-219 255.757,-201.006 272.765,-182.674 283.471,-171.822"/>
<polygon fill="midnightblue" stroke="midnightblue" points="166.786,-369.66 166.533,-380.252 173.336,-372.13 166.786,-369.66"/>
</g>
<!-- Node13 -->
<g id="node13" class="node"><title>Node13</title>
<g id="a_node13"><a xlink:href="../../d2/d82/loadlib_8c.html#a9aa5433859d896c2db1a7af366e04b65" target="_top" xlink:title="searchpath">
<polygon fill="none" stroke="black" points="383,-114.5 383,-133.5 448,-133.5 448,-114.5 383,-114.5"/>
<text text-anchor="middle" x="415.5" y="-121.5" font-family="Helvetica,sans-Serif" font-size="10.00">searchpath</text>
</a>
</g>
</g>
<!-- Node9&#45;&gt;Node13 -->
<g id="edge42" class="edge"><title>Node9&#45;&gt;Node13</title>
<path fill="none" stroke="midnightblue" d="M174.323,-371.833C188.329,-350.708 214.027,-316.052 244,-295 283.247,-267.434 309.087,-288.789 345,-257 384.992,-221.601 405.501,-157.609 412.086,-133.518"/>
<polygon fill="midnightblue" stroke="midnightblue" points="171.382,-369.936 168.897,-380.235 177.262,-373.733 171.382,-369.936"/>
</g>
<!-- Node18 -->
<g id="node18" class="node"><title>Node18</title>
<g id="a_node18"><a xlink:href="../../da/d29/lauxlib_8h.html#ac12082513e8da6bfd5b834e840789682" target="_top" xlink:title="luaL_pushresultsize">
<polygon fill="none" stroke="black" points="244,-418.5 244,-437.5 345,-437.5 345,-418.5 244,-418.5"/>
<text text-anchor="middle" x="294.5" y="-425.5" font-family="Helvetica,sans-Serif" font-size="10.00">luaL_pushresultsize</text>
</a>
</g>
</g>
<!-- Node9&#45;&gt;Node18 -->
<g id="edge23" class="edge"><title>Node9&#45;&gt;Node18</title>
<path fill="none" stroke="midnightblue" d="M205.552,-402.391C223.423,-407.594 243.89,-413.554 260.58,-418.414"/>
<polygon fill="midnightblue" stroke="midnightblue" points="206.51,-399.024 195.931,-399.589 204.553,-405.745 206.51,-399.024"/>
</g>
<!-- Node24 -->
<g id="node24" class="node"><title>Node24</title>
<g id="a_node24"><a xlink:href="../../dc/dba/loslib_8c.html#a6520f2562b500aee87a6a475995adefb" target="_top" xlink:title="os_date">
<polygon fill="none" stroke="black" points="269,-456.5 269,-475.5 320,-475.5 320,-456.5 269,-456.5"/>
<text text-anchor="middle" x="294.5" y="-463.5" font-family="Helvetica,sans-Serif" font-size="10.00">os_date</text>
</a>
</g>
</g>
<!-- Node9&#45;&gt;Node24 -->
<g id="edge29" class="edge"><title>Node9&#45;&gt;Node24</title>
<path fill="none" stroke="midnightblue" d="M182.753,-405.993C198.626,-418.317 221.852,-435.191 244,-447 251.798,-451.158 260.708,-454.869 268.8,-457.884"/>
<polygon fill="midnightblue" stroke="midnightblue" points="184.764,-403.121 174.745,-399.676 180.428,-408.617 184.764,-403.121"/>
</g>
<!-- Node25 -->
<g id="node25" class="node"><title>Node25</title>
<g id="a_node25"><a xlink:href="../../de/df3/liolib_8c.html#a48a16089fed2e802a76635a3f8bfe8e3" target="_top" xlink:title="read_all">
<polygon fill="none" stroke="black" points="269.5,-570.5 269.5,-589.5 319.5,-589.5 319.5,-570.5 269.5,-570.5"/>
<text text-anchor="middle" x="294.5" y="-577.5" font-family="Helvetica,sans-Serif" font-size="10.00">read_all</text>
</a>
</g>
</g>
<!-- Node9&#45;&gt;Node25 -->
<g id="edge30" class="edge"><title>Node9&#45;&gt;Node25</title>
<path fill="none" stroke="midnightblue" d="M170.06,-409.336C184.965,-449.269 220.225,-538.964 244,-561 251.021,-567.508 260.507,-571.864 269.296,-574.742"/>
<polygon fill="midnightblue" stroke="midnightblue" points="173.325,-408.073 166.574,-399.906 166.759,-410.5 173.325,-408.073"/>
</g>
<!-- Node33 -->
<g id="node33" class="node"><title>Node33</title>
<g id="a_node33"><a xlink:href="../../de/df3/liolib_8c.html#a6735c0513432f83bfa1b88b056ab379b" target="_top" xlink:title="read_chars">
<polygon fill="none" stroke="black" points="262.5,-532.5 262.5,-551.5 326.5,-551.5 326.5,-532.5 262.5,-532.5"/>
<text text-anchor="middle" x="294.5" y="-539.5" font-family="Helvetica,sans-Serif" font-size="10.00">read_chars</text>
</a>
</g>
</g>
<!-- Node9&#45;&gt;Node33 -->
<g id="edge38" class="edge"><title>Node9&#45;&gt;Node33</title>
<path fill="none" stroke="midnightblue" d="M169.961,-409.12C181.275,-437.69 206.259,-491.524 244,-523 249.373,-527.481 255.918,-530.976 262.466,-533.675"/>
<polygon fill="midnightblue" stroke="midnightblue" points="173.128,-407.603 166.296,-399.506 166.588,-410.097 173.128,-407.603"/>
</g>
<!-- Node34 -->
<g id="node34" class="node"><title>Node34</title>
<g id="a_node34"><a xlink:href="../../de/df3/liolib_8c.html#ae697e23c2b1ea23d8935f579aa21200c" target="_top" xlink:title="read_line">
<polygon fill="none" stroke="black" points="267.5,-494.5 267.5,-513.5 321.5,-513.5 321.5,-494.5 267.5,-494.5"/>
<text text-anchor="middle" x="294.5" y="-501.5" font-family="Helvetica,sans-Serif" font-size="10.00">read_line</text>
</a>
</g>
</g>
<!-- Node9&#45;&gt;Node34 -->
<g id="edge40" class="edge"><title>Node9&#45;&gt;Node34</title>
<path fill="none" stroke="midnightblue" d="M174.537,-408.417C188.607,-429.535 214.231,-463.943 244,-485 250.989,-489.944 259.433,-493.803 267.352,-496.713"/>
<polygon fill="midnightblue" stroke="midnightblue" points="177.29,-406.23 168.911,-399.745 171.417,-410.039 177.29,-406.23"/>
</g>
<!-- Node35 -->
<g id="node35" class="node"><title>Node35</title>
<g id="a_node35"><a xlink:href="../../dc/d77/lstrlib_8c.html#abc94e3a13f1b6ddb2c9b20c9fd89e87f" target="_top" xlink:title="str_dump">
<polygon fill="none" stroke="black" points="266.5,-342.5 266.5,-361.5 322.5,-361.5 322.5,-342.5 266.5,-342.5"/>
<text text-anchor="middle" x="294.5" y="-349.5" font-family="Helvetica,sans-Serif" font-size="10.00">str_dump</text>
</a>
</g>
</g>
<!-- Node9&#45;&gt;Node35 -->
<g id="edge43" class="edge"><title>Node9&#45;&gt;Node35</title>
<path fill="none" stroke="midnightblue" d="M205.719,-377.561C225.654,-371.756 248.789,-365.019 266.302,-359.92"/>
<polygon fill="midnightblue" stroke="midnightblue" points="204.553,-374.255 195.931,-380.411 206.51,-380.976 204.553,-374.255"/>
</g>
<!-- Node36 -->
<g id="node36" class="node"><title>Node36</title>
<g id="a_node36"><a xlink:href="../../dc/d77/lstrlib_8c.html#ae26a9374857058119e59d0328208c2f2" target="_top" xlink:title="str_format">
<polygon fill="none" stroke="black" points="266,-304.5 266,-323.5 323,-323.5 323,-304.5 266,-304.5"/>
<text text-anchor="middle" x="294.5" y="-311.5" font-family="Helvetica,sans-Serif" font-size="10.00">str_format</text>
</a>
</g>
</g>
<!-- Node9&#45;&gt;Node36 -->
<g id="edge44" class="edge"><title>Node9&#45;&gt;Node36</title>
<path fill="none" stroke="midnightblue" d="M182.753,-374.007C198.626,-361.683 221.852,-344.809 244,-333 250.904,-329.319 258.681,-325.987 265.989,-323.179"/>
<polygon fill="midnightblue" stroke="midnightblue" points="180.428,-371.383 174.745,-380.324 184.764,-376.879 180.428,-371.383"/>
</g>
<!-- Node37 -->
<g id="node37" class="node"><title>Node37</title>
<g id="a_node37"><a xlink:href="../../d0/da1/ltablib_8c.html#add6973c515a288f41265aca8e0ae6412" target="_top" xlink:title="tconcat">
<polygon fill="none" stroke="black" points="271,-228.5 271,-247.5 318,-247.5 318,-228.5 271,-228.5"/>
<text text-anchor="middle" x="294.5" y="-235.5" font-family="Helvetica,sans-Serif" font-size="10.00">tconcat</text>
</a>
</g>
</g>
<!-- Node9&#45;&gt;Node37 -->
<g id="edge46" class="edge"><title>Node9&#45;&gt;Node37</title>
<path fill="none" stroke="midnightblue" d="M170.843,-371.194C182.992,-344.006 208.695,-293.533 244,-262 251.693,-255.129 261.705,-249.784 270.71,-245.9"/>
<polygon fill="midnightblue" stroke="midnightblue" points="167.624,-369.818 166.858,-380.385 174.047,-372.602 167.624,-369.818"/>
</g>
<!-- Node11 -->
<g id="node11" class="node"><title>Node11</title>
<g id="a_node11"><a xlink:href="../../d2/d82/loadlib_8c.html#a136874f5faa236dc52fb50109281e157" target="_top" xlink:title="ll_require">
<polygon fill="none" stroke="black" points="389.5,-313.5 389.5,-332.5 441.5,-332.5 441.5,-313.5 389.5,-313.5"/>
<text text-anchor="middle" x="415.5" y="-320.5" font-family="Helvetica,sans-Serif" font-size="10.00">ll_require</text>
</a>
</g>
</g>
<!-- Node10&#45;&gt;Node11 -->
<g id="edge11" class="edge"><title>Node10&#45;&gt;Node11</title>
<path fill="none" stroke="midnightblue" d="M332.246,-377.386C336.641,-375.445 340.987,-373.31 345,-371 362.806,-360.75 364.008,-353.55 381,-342 385.866,-338.692 391.345,-335.413 396.441,-332.534"/>
<polygon fill="midnightblue" stroke="midnightblue" points="330.586,-374.284 322.661,-381.315 333.241,-380.761 330.586,-374.284"/>
</g>
<!-- Node12&#45;&gt;Node4 -->
<g id="edge13" class="edge"><title>Node12&#45;&gt;Node4</title>
<path fill="none" stroke="midnightblue" d="M335.813,-167.82C367.031,-172.433 411.327,-179.213 450,-186 465.449,-188.711 482.707,-192.081 496.397,-194.834"/>
<polygon fill="midnightblue" stroke="midnightblue" points="336.157,-164.333 325.755,-166.341 335.139,-171.258 336.157,-164.333"/>
</g>
<!-- Node12&#45;&gt;Node13 -->
<g id="edge14" class="edge"><title>Node12&#45;&gt;Node13</title>
<path fill="none" stroke="midnightblue" d="M335.21,-149.32C351.289,-144.185 369.543,-138.356 384.481,-133.586"/>
<polygon fill="midnightblue" stroke="midnightblue" points="333.99,-146.035 325.529,-152.411 336.12,-152.703 333.99,-146.035"/>
</g>
<!-- Node17 -->
<g id="node17" class="node"><title>Node17</title>
<g id="a_node17"><a xlink:href="../../d2/d82/loadlib_8c.html#ab1293c9ab0fa766bfa927767d6ae543c" target="_top" xlink:title="setpath">
<polygon fill="none" stroke="black" points="738.5,-86.5 738.5,-105.5 787.5,-105.5 787.5,-86.5 738.5,-86.5"/>
<text text-anchor="middle" x="763" y="-93.5" font-family="Helvetica,sans-Serif" font-size="10.00">setpath</text>
</a>
</g>
</g>
<!-- Node12&#45;&gt;Node17 -->
<g id="edge21" class="edge"><title>Node12&#45;&gt;Node17</title>
<path fill="none" stroke="midnightblue" d="M313.155,-145.81C329.421,-132.042 354.923,-113.233 381,-105 510.344,-64.1644 676.852,-82.9583 738.062,-92.0672"/>
<polygon fill="midnightblue" stroke="midnightblue" points="310.763,-143.252 305.536,-152.468 315.369,-148.523 310.763,-143.252"/>
</g>
<!-- Node14 -->
<g id="node14" class="node"><title>Node14</title>
<g id="a_node14"><a xlink:href="../../d2/d82/loadlib_8c.html#af8f7333f1a59f3d7aab8c9b79b7a4ab2" target="_top" xlink:title="findfile">
<polygon fill="none" stroke="black" points="502,-152.5 502,-171.5 543,-171.5 543,-152.5 502,-152.5"/>
<text text-anchor="middle" x="522.5" y="-159.5" font-family="Helvetica,sans-Serif" font-size="10.00">findfile</text>
</a>
</g>
</g>
<!-- Node13&#45;&gt;Node14 -->
<g id="edge15" class="edge"><title>Node13&#45;&gt;Node14</title>
<path fill="none" stroke="midnightblue" d="M452.426,-137.002C469.024,-143.009 488.085,-149.907 501.973,-154.933"/>
<polygon fill="midnightblue" stroke="midnightblue" points="453.59,-133.701 442.996,-133.589 451.208,-140.283 453.59,-133.701"/>
</g>
<!-- Node16 -->
<g id="node16" class="node"><title>Node16</title>
<g id="a_node16"><a xlink:href="../../d2/d82/loadlib_8c.html#a3e9eb01c860846336b6f50d6c77448a2" target="_top" xlink:title="ll_searchpath">
<polygon fill="none" stroke="black" points="486,-114.5 486,-133.5 559,-133.5 559,-114.5 486,-114.5"/>
<text text-anchor="middle" x="522.5" y="-121.5" font-family="Helvetica,sans-Serif" font-size="10.00">ll_searchpath</text>
</a>
</g>
</g>
<!-- Node13&#45;&gt;Node16 -->
<g id="edge20" class="edge"><title>Node13&#45;&gt;Node16</title>
<path fill="none" stroke="midnightblue" d="M458.141,-124C467.353,-124 477.031,-124 485.972,-124"/>
<polygon fill="midnightblue" stroke="midnightblue" points="458.003,-120.5 448.003,-124 458.003,-127.5 458.003,-120.5"/>
</g>
<!-- Node14&#45;&gt;Node5 -->
<g id="edge16" class="edge"><title>Node14&#45;&gt;Node5</title>
<path fill="none" stroke="midnightblue" d="M552.677,-172.034C569.171,-177.706 589.687,-184.761 605.986,-190.366"/>
<polygon fill="midnightblue" stroke="midnightblue" points="553.596,-168.648 543.001,-168.706 551.319,-175.268 553.596,-168.648"/>
</g>
<!-- Node14&#45;&gt;Node8 -->
<g id="edge17" class="edge"><title>Node14&#45;&gt;Node8</title>
<path fill="none" stroke="midnightblue" d="M552.677,-151.966C569.171,-146.294 589.687,-139.239 605.986,-133.634"/>
<polygon fill="midnightblue" stroke="midnightblue" points="551.319,-148.732 543.001,-155.294 553.596,-155.352 551.319,-148.732"/>
</g>
<!-- Node15 -->
<g id="node15" class="node"><title>Node15</title>
<g id="a_node15"><a xlink:href="../../d2/d82/loadlib_8c.html#a8b2f1d86fe37c0829143579a6b568243" target="_top" xlink:title="searcher_Lua">
<polygon fill="none" stroke="black" points="598,-152.5 598,-171.5 672,-171.5 672,-152.5 598,-152.5"/>
<text text-anchor="middle" x="635" y="-159.5" font-family="Helvetica,sans-Serif" font-size="10.00">searcher_Lua</text>
</a>
</g>
</g>
<!-- Node14&#45;&gt;Node15 -->
<g id="edge18" class="edge"><title>Node14&#45;&gt;Node15</title>
<path fill="none" stroke="midnightblue" d="M553.315,-162C566.997,-162 583.341,-162 597.73,-162"/>
<polygon fill="midnightblue" stroke="midnightblue" points="553.001,-158.5 543.001,-162 553.001,-165.5 553.001,-158.5"/>
</g>
<!-- Node15&#45;&gt;Node6 -->
<g id="edge19" class="edge"><title>Node15&#45;&gt;Node6</title>
<path fill="none" stroke="midnightblue" d="M682.026,-155.06C691.403,-153.646 701.323,-152.15 710.866,-150.711"/>
<polygon fill="midnightblue" stroke="midnightblue" points="681.473,-151.603 672.107,-156.555 682.517,-158.525 681.473,-151.603"/>
</g>
<!-- Node17&#45;&gt;Node7 -->
<g id="edge22" class="edge"><title>Node17&#45;&gt;Node7</title>
<path fill="none" stroke="midnightblue" d="M797.807,-101.846C813.902,-104.63 833.397,-108.001 850.83,-111.016"/>
<polygon fill="midnightblue" stroke="midnightblue" points="798.228,-98.3672 787.778,-100.112 797.035,-105.265 798.228,-98.3672"/>
</g>
<!-- Node19 -->
<g id="node19" class="node"><title>Node19</title>
<g id="a_node19"><a xlink:href="../../dc/d77/lstrlib_8c.html#a3f7db8b2258dca5459ad52d2cbf9f28c" target="_top" xlink:title="str_char">
<polygon fill="none" stroke="black" points="390.5,-503.5 390.5,-522.5 440.5,-522.5 440.5,-503.5 390.5,-503.5"/>
<text text-anchor="middle" x="415.5" y="-510.5" font-family="Helvetica,sans-Serif" font-size="10.00">str_char</text>
</a>
</g>
</g>
<!-- Node18&#45;&gt;Node19 -->
<g id="edge24" class="edge"><title>Node18&#45;&gt;Node19</title>
<path fill="none" stroke="midnightblue" d="M337.101,-441.936C339.871,-443.473 342.536,-445.158 345,-447 366.076,-462.752 361.158,-476.718 381,-494 385.034,-497.513 389.818,-500.686 394.489,-503.388"/>
<polygon fill="midnightblue" stroke="midnightblue" points="338.53,-438.74 328.006,-437.516 335.471,-445.036 338.53,-438.74"/>
</g>
<!-- Node20 -->
<g id="node20" class="node"><title>Node20</title>
<g id="a_node20"><a xlink:href="../../dc/d77/lstrlib_8c.html#ab2235f81205d0482d03c8ae456a98992" target="_top" xlink:title="str_lower">
<polygon fill="none" stroke="black" points="388.5,-465.5 388.5,-484.5 442.5,-484.5 442.5,-465.5 388.5,-465.5"/>
<text text-anchor="middle" x="415.5" y="-472.5" font-family="Helvetica,sans-Serif" font-size="10.00">str_lower</text>
</a>
</g>
</g>
<!-- Node18&#45;&gt;Node20 -->
<g id="edge25" class="edge"><title>Node18&#45;&gt;Node20</title>
<path fill="none" stroke="midnightblue" d="M330.13,-441.209C335.125,-443.138 340.198,-445.111 345,-447 360.374,-453.047 377.599,-459.985 391.054,-465.442"/>
<polygon fill="midnightblue" stroke="midnightblue" points="331.303,-437.91 320.713,-437.586 328.789,-444.443 331.303,-437.91"/>
</g>
<!-- Node21 -->
<g id="node21" class="node"><title>Node21</title>
<g id="a_node21"><a xlink:href="../../dc/d77/lstrlib_8c.html#acaee4c84f29e2ec7366728ca04d3569c" target="_top" xlink:title="str_rep">
<polygon fill="none" stroke="black" points="393,-427.5 393,-446.5 438,-446.5 438,-427.5 393,-427.5"/>
<text text-anchor="middle" x="415.5" y="-434.5" font-family="Helvetica,sans-Serif" font-size="10.00">str_rep</text>
</a>
</g>
</g>
<!-- Node18&#45;&gt;Node21 -->
<g id="edge26" class="edge"><title>Node18&#45;&gt;Node21</title>
<path fill="none" stroke="midnightblue" d="M355.451,-432.534C368.806,-433.544 382.131,-434.552 392.734,-435.354"/>
<polygon fill="midnightblue" stroke="midnightblue" points="355.513,-429.029 345.277,-431.765 354.985,-436.009 355.513,-429.029"/>
</g>
<!-- Node22 -->
<g id="node22" class="node"><title>Node22</title>
<g id="a_node22"><a xlink:href="../../dc/d77/lstrlib_8c.html#a4b2ffac60e817b9bfc54b32f8da3a6b4" target="_top" xlink:title="str_reverse">
<polygon fill="none" stroke="black" points="384.5,-389.5 384.5,-408.5 446.5,-408.5 446.5,-389.5 384.5,-389.5"/>
<text text-anchor="middle" x="415.5" y="-396.5" font-family="Helvetica,sans-Serif" font-size="10.00">str_reverse</text>
</a>
</g>
</g>
<!-- Node18&#45;&gt;Node22 -->
<g id="edge27" class="edge"><title>Node18&#45;&gt;Node22</title>
<path fill="none" stroke="midnightblue" d="M344.844,-415.975C358.227,-412.714 372.316,-409.28 384.295,-406.361"/>
<polygon fill="midnightblue" stroke="midnightblue" points="343.682,-412.656 334.795,-418.424 345.339,-419.457 343.682,-412.656"/>
</g>
<!-- Node23 -->
<g id="node23" class="node"><title>Node23</title>
<g id="a_node23"><a xlink:href="../../dc/d77/lstrlib_8c.html#a38ed99b74af58070449ca344a7351f6a" target="_top" xlink:title="str_upper">
<polygon fill="none" stroke="black" points="387.5,-351.5 387.5,-370.5 443.5,-370.5 443.5,-351.5 387.5,-351.5"/>
<text text-anchor="middle" x="415.5" y="-358.5" font-family="Helvetica,sans-Serif" font-size="10.00">str_upper</text>
</a>
</g>
</g>
<!-- Node18&#45;&gt;Node23 -->
<g id="edge28" class="edge"><title>Node18&#45;&gt;Node23</title>
<path fill="none" stroke="midnightblue" d="M334.245,-414.488C337.954,-412.792 341.597,-410.959 345,-409 362.806,-398.75 364.008,-391.55 381,-380 385.866,-376.692 391.345,-373.413 396.441,-370.534"/>
<polygon fill="midnightblue" stroke="midnightblue" points="332.83,-411.286 324.989,-418.412 335.562,-417.731 332.83,-411.286"/>
</g>
<!-- Node26 -->
<g id="node26" class="node"><title>Node26</title>
<g id="a_node26"><a xlink:href="../../de/df3/liolib_8c.html#addece2406777a40f0f591e3518293932" target="_top" xlink:title="g_read">
<polygon fill="none" stroke="black" points="392.5,-560.5 392.5,-579.5 438.5,-579.5 438.5,-560.5 392.5,-560.5"/>
<text text-anchor="middle" x="415.5" y="-567.5" font-family="Helvetica,sans-Serif" font-size="10.00">g_read</text>
</a>
</g>
</g>
<!-- Node25&#45;&gt;Node26 -->
<g id="edge31" class="edge"><title>Node25&#45;&gt;Node26</title>
<path fill="none" stroke="midnightblue" d="M329.644,-577.131C349.846,-575.433 374.846,-573.332 392.461,-571.852"/>
<polygon fill="midnightblue" stroke="midnightblue" points="329.253,-573.651 319.581,-577.976 329.839,-580.627 329.253,-573.651"/>
</g>
<!-- Node27 -->
<g id="node27" class="node"><title>Node27</title>
<g id="a_node27"><a xlink:href="../../de/df3/liolib_8c.html#add5250a74576076467531e4eb8f5f68e" target="_top" xlink:title="f_read">
<polygon fill="none" stroke="black" points="501,-560.5 501,-579.5 544,-579.5 544,-560.5 501,-560.5"/>
<text text-anchor="middle" x="522.5" y="-567.5" font-family="Helvetica,sans-Serif" font-size="10.00">f_read</text>
</a>
</g>
</g>
<!-- Node26&#45;&gt;Node27 -->
<g id="edge32" class="edge"><title>Node26&#45;&gt;Node27</title>
<path fill="none" stroke="midnightblue" d="M448.598,-570C465.629,-570 486.053,-570 500.944,-570"/>
<polygon fill="midnightblue" stroke="midnightblue" points="448.511,-566.5 438.511,-570 448.511,-573.5 448.511,-566.5"/>
</g>
<!-- Node28 -->
<g id="node28" class="node"><title>Node28</title>
<g id="a_node28"><a xlink:href="../../de/df3/liolib_8c.html#a45307aa59a628966c6ea270e9b476d9a" target="_top" xlink:title="io_read">
<polygon fill="none" stroke="black" points="499,-522.5 499,-541.5 546,-541.5 546,-522.5 499,-522.5"/>
<text text-anchor="middle" x="522.5" y="-529.5" font-family="Helvetica,sans-Serif" font-size="10.00">io_read</text>
</a>
</g>
</g>
<!-- Node26&#45;&gt;Node28 -->
<g id="edge33" class="edge"><title>Node26&#45;&gt;Node28</title>
<path fill="none" stroke="midnightblue" d="M448.182,-558.534C464.492,-552.631 484.001,-545.571 498.792,-540.218"/>
<polygon fill="midnightblue" stroke="midnightblue" points="446.724,-555.34 438.511,-562.034 449.106,-561.922 446.724,-555.34"/>
</g>
<!-- Node29 -->
<g id="node29" class="node"><title>Node29</title>
<g id="a_node29"><a xlink:href="../../de/df3/liolib_8c.html#ac37d80ee2cc364b4adafcb6f7c20f28b" target="_top" xlink:title="io_readline">
<polygon fill="none" stroke="black" points="492,-598.5 492,-617.5 553,-617.5 553,-598.5 492,-598.5"/>
<text text-anchor="middle" x="522.5" y="-605.5" font-family="Helvetica,sans-Serif" font-size="10.00">io_readline</text>
</a>
</g>
</g>
<!-- Node26&#45;&gt;Node29 -->
<g id="edge34" class="edge"><title>Node26&#45;&gt;Node29</title>
<path fill="none" stroke="midnightblue" d="M447.922,-581.372C462.947,-586.809 480.734,-593.247 495.056,-598.43"/>
<polygon fill="midnightblue" stroke="midnightblue" points="449.106,-578.078 438.511,-577.966 446.724,-584.66 449.106,-578.078"/>
</g>
<!-- Node30 -->
<g id="node30" class="node"><title>Node30</title>
<g id="a_node30"><a xlink:href="../../de/df3/liolib_8c.html#a66325940a0248cee288153edb061c0c4" target="_top" xlink:title="aux_lines">
<polygon fill="none" stroke="black" points="606.5,-598.5 606.5,-617.5 663.5,-617.5 663.5,-598.5 606.5,-598.5"/>
<text text-anchor="middle" x="635" y="-605.5" font-family="Helvetica,sans-Serif" font-size="10.00">aux_lines</text>
</a>
</g>
</g>
<!-- Node29&#45;&gt;Node30 -->
<g id="edge35" class="edge"><title>Node29&#45;&gt;Node30</title>
<path fill="none" stroke="midnightblue" d="M563.164,-608C577.417,-608 593.178,-608 606.208,-608"/>
<polygon fill="midnightblue" stroke="midnightblue" points="563.112,-604.5 553.112,-608 563.112,-611.5 563.112,-604.5"/>
</g>
<!-- Node31 -->
<g id="node31" class="node"><title>Node31</title>
<g id="a_node31"><a xlink:href="../../de/df3/liolib_8c.html#a6a36f72d8b3966c1ebafab8a4791cb6c" target="_top" xlink:title="f_lines">
<polygon fill="none" stroke="black" points="741.5,-617.5 741.5,-636.5 784.5,-636.5 784.5,-617.5 741.5,-617.5"/>
<text text-anchor="middle" x="763" y="-624.5" font-family="Helvetica,sans-Serif" font-size="10.00">f_lines</text>
</a>
</g>
</g>
<!-- Node30&#45;&gt;Node31 -->
<g id="edge36" class="edge"><title>Node30&#45;&gt;Node31</title>
<path fill="none" stroke="midnightblue" d="M673.765,-613.695C695.963,-617.042 723.167,-621.144 741.451,-623.901"/>
<polygon fill="midnightblue" stroke="midnightblue" points="674.061,-610.2 663.651,-612.17 673.018,-617.122 674.061,-610.2"/>
</g>
<!-- Node32 -->
<g id="node32" class="node"><title>Node32</title>
<g id="a_node32"><a xlink:href="../../de/df3/liolib_8c.html#ab08031b51605d4ef676ec33a3b96a286" target="_top" xlink:title="io_lines">
<polygon fill="none" stroke="black" points="739.5,-579.5 739.5,-598.5 786.5,-598.5 786.5,-579.5 739.5,-579.5"/>
<text text-anchor="middle" x="763" y="-586.5" font-family="Helvetica,sans-Serif" font-size="10.00">io_lines</text>
</a>
</g>
</g>
<!-- Node30&#45;&gt;Node32 -->
<g id="edge37" class="edge"><title>Node30&#45;&gt;Node32</title>
<path fill="none" stroke="midnightblue" d="M673.732,-602.31C695.142,-599.082 721.219,-595.15 739.457,-592.399"/>
<polygon fill="midnightblue" stroke="midnightblue" points="673.018,-598.878 663.651,-603.83 674.061,-605.8 673.018,-598.878"/>
</g>
<!-- Node33&#45;&gt;Node26 -->
<g id="edge39" class="edge"><title>Node33&#45;&gt;Node26</title>
<path fill="none" stroke="midnightblue" d="M336.57,-551.663C355.332,-556.078 376.808,-561.131 392.457,-564.813"/>
<polygon fill="midnightblue" stroke="midnightblue" points="337.302,-548.24 326.766,-549.357 335.698,-555.054 337.302,-548.24"/>
</g>
<!-- Node34&#45;&gt;Node26 -->
<g id="edge41" class="edge"><title>Node34&#45;&gt;Node26</title>
<path fill="none" stroke="midnightblue" d="M331.237,-516.591C335.94,-518.574 340.638,-520.726 345,-523 366.183,-534.043 388.748,-550.226 402.231,-560.431"/>
<polygon fill="midnightblue" stroke="midnightblue" points="332.266,-513.233 321.681,-512.775 329.67,-519.734 332.266,-513.233"/>
</g>
<!-- Node38&#45;&gt;Node2 -->
<g id="edge50" class="edge"><title>Node38&#45;&gt;Node2</title>
<path fill="none" stroke="midnightblue" d="M218.081,-754.798C254.309,-756.364 302.673,-756.681 345,-751 358.885,-749.136 373.924,-745.267 386.448,-741.503"/>
<polygon fill="midnightblue" stroke="midnightblue" points="217.88,-751.284 207.724,-754.302 217.546,-758.276 217.88,-751.284"/>
</g>
<!-- Node39 -->
<g id="node39" class="node"><title>Node39</title>
<g id="a_node39"><a xlink:href="../../dc/d77/lstrlib_8c.html#ad5f7e3fbcadc8825f7f650ecf458fc72" target="_top" xlink:title="add_s">
<polygon fill="none" stroke="black" points="272.5,-722.5 272.5,-741.5 316.5,-741.5 316.5,-722.5 272.5,-722.5"/>
<text text-anchor="middle" x="294.5" y="-729.5" font-family="Helvetica,sans-Serif" font-size="10.00">add_s</text>
</a>
</g>
</g>
<!-- Node38&#45;&gt;Node39 -->
<g id="edge48" class="edge"><title>Node38&#45;&gt;Node39</title>
<path fill="none" stroke="midnightblue" d="M217.47,-743.07C236.744,-740.263 257.308,-737.269 272.183,-735.104"/>
<polygon fill="midnightblue" stroke="midnightblue" points="216.937,-739.61 207.546,-744.514 217.946,-746.537 216.937,-739.61"/>
</g>
<!-- Node40 -->
<g id="node40" class="node"><title>Node40</title>
<g id="a_node40"><a xlink:href="../../dc/d77/lstrlib_8c.html#ad14703c4bc40d7c1951dedb7bc7554f7" target="_top" xlink:title="push_captures">
<polygon fill="none" stroke="black" points="254.5,-798.5 254.5,-817.5 334.5,-817.5 334.5,-798.5 254.5,-798.5"/>
<text text-anchor="middle" x="294.5" y="-805.5" font-family="Helvetica,sans-Serif" font-size="10.00">push_captures</text>
</a>
</g>
</g>
<!-- Node38&#45;&gt;Node40 -->
<g id="edge51" class="edge"><title>Node38&#45;&gt;Node40</title>
<path fill="none" stroke="midnightblue" d="M194.178,-764.618C218.054,-775.046 250.389,-789.17 271.586,-798.428"/>
<polygon fill="midnightblue" stroke="midnightblue" points="195.408,-761.336 184.843,-760.541 192.606,-767.751 195.408,-761.336"/>
</g>
<!-- Node39&#45;&gt;Node2 -->
<g id="edge49" class="edge"><title>Node39&#45;&gt;Node2</title>
<path fill="none" stroke="midnightblue" d="M326.67,-732C344.475,-732 366.695,-732 384.331,-732"/>
<polygon fill="midnightblue" stroke="midnightblue" points="326.501,-728.5 316.501,-732 326.501,-735.5 326.501,-728.5"/>
</g>
<!-- Node40&#45;&gt;Node2 -->
<g id="edge52" class="edge"><title>Node40&#45;&gt;Node2</title>
<path fill="none" stroke="midnightblue" d="M326.993,-793.851C333.08,-790.804 339.325,-787.455 345,-784 366.624,-770.834 389.798,-752.554 403.174,-741.542"/>
<polygon fill="midnightblue" stroke="midnightblue" points="325.143,-790.857 317.662,-798.359 328.189,-797.16 325.143,-790.857"/>
</g>
<!-- Node41 -->
<g id="node41" class="node"><title>Node41</title>
<g id="a_node41"><a xlink:href="../../dc/d77/lstrlib_8c.html#ab7cb0ba6191e1aa9455f6522d3483a02" target="_top" xlink:title="gmatch_aux">
<polygon fill="none" stroke="black" points="381,-817.5 381,-836.5 450,-836.5 450,-817.5 381,-817.5"/>
<text text-anchor="middle" x="415.5" y="-824.5" font-family="Helvetica,sans-Serif" font-size="10.00">gmatch_aux</text>
</a>
</g>
</g>
<!-- Node40&#45;&gt;Node41 -->
<g id="edge53" class="edge"><title>Node40&#45;&gt;Node41</title>
<path fill="none" stroke="midnightblue" d="M344.798,-815.871C356.925,-817.807 369.634,-819.837 380.829,-821.624"/>
<polygon fill="midnightblue" stroke="midnightblue" points="345.222,-812.394 334.795,-814.274 344.118,-819.307 345.222,-812.394"/>
</g>
<!-- Node43 -->
<g id="node43" class="node"><title>Node43</title>
<g id="a_node43"><a xlink:href="../../dc/d77/lstrlib_8c.html#a692514aa32ae2668683a4db15259d26b" target="_top" xlink:title="str_find_aux">
<polygon fill="none" stroke="black" points="381.5,-779.5 381.5,-798.5 449.5,-798.5 449.5,-779.5 381.5,-779.5"/>
<text text-anchor="middle" x="415.5" y="-786.5" font-family="Helvetica,sans-Serif" font-size="10.00">str_find_aux</text>
</a>
</g>
</g>
<!-- Node40&#45;&gt;Node43 -->
<g id="edge55" class="edge"><title>Node40&#45;&gt;Node43</title>
<path fill="none" stroke="midnightblue" d="M344.891,-800.114C357.13,-798.16 369.958,-796.112 381.22,-794.314"/>
<polygon fill="midnightblue" stroke="midnightblue" points="344.118,-796.693 334.795,-801.726 345.222,-803.606 344.118,-796.693"/>
</g>
<!-- Node42 -->
<g id="node42" class="node"><title>Node42</title>
<g id="a_node42"><a xlink:href="../../dc/d77/lstrlib_8c.html#ab55a72bb412d6186c82fd75de44cd031" target="_top" xlink:title="gmatch">
<polygon fill="none" stroke="black" points="499,-817.5 499,-836.5 546,-836.5 546,-817.5 499,-817.5"/>
<text text-anchor="middle" x="522.5" y="-824.5" font-family="Helvetica,sans-Serif" font-size="10.00">gmatch</text>
</a>
</g>
</g>
<!-- Node41&#45;&gt;Node42 -->
<g id="edge54" class="edge"><title>Node41&#45;&gt;Node42</title>
<path fill="none" stroke="midnightblue" d="M460.015,-827C473.379,-827 487.544,-827 498.905,-827"/>
<polygon fill="midnightblue" stroke="midnightblue" points="460.011,-823.5 450.011,-827 460.011,-830.5 460.011,-823.5"/>
</g>
<!-- Node44 -->
<g id="node44" class="node"><title>Node44</title>
<g id="a_node44"><a xlink:href="../../dc/d77/lstrlib_8c.html#a362a4bc9ba81ce87253cc3d74f015808" target="_top" xlink:title="str_find">
<polygon fill="none" stroke="black" points="499.5,-779.5 499.5,-798.5 545.5,-798.5 545.5,-779.5 499.5,-779.5"/>
<text text-anchor="middle" x="522.5" y="-786.5" font-family="Helvetica,sans-Serif" font-size="10.00">str_find</text>
</a>
</g>
</g>
<!-- Node43&#45;&gt;Node44 -->
<g id="edge56" class="edge"><title>Node43&#45;&gt;Node44</title>
<path fill="none" stroke="midnightblue" d="M459.898,-789C473.501,-789 487.944,-789 499.425,-789"/>
<polygon fill="midnightblue" stroke="midnightblue" points="459.723,-785.5 449.723,-789 459.723,-792.5 459.723,-785.5"/>
</g>
<!-- Node45 -->
<g id="node45" class="node"><title>Node45</title>
<g id="a_node45"><a xlink:href="../../dc/d77/lstrlib_8c.html#a4b605e43b8f5738db9eae902bbc00f00" target="_top" xlink:title="str_match">
<polygon fill="none" stroke="black" points="494,-741.5 494,-760.5 551,-760.5 551,-741.5 494,-741.5"/>
<text text-anchor="middle" x="522.5" y="-748.5" font-family="Helvetica,sans-Serif" font-size="10.00">str_match</text>
</a>
</g>
</g>
<!-- Node43&#45;&gt;Node45 -->
<g id="edge57" class="edge"><title>Node43&#45;&gt;Node45</title>
<path fill="none" stroke="midnightblue" d="M452.747,-775.882C466.635,-770.856 482.205,-765.221 495.013,-760.586"/>
<polygon fill="midnightblue" stroke="midnightblue" points="451.208,-772.717 442.996,-779.411 453.59,-779.299 451.208,-772.717"/>
</g>
<!-- Node46&#45;&gt;Node13 -->
<g id="edge59" class="edge"><title>Node46&#45;&gt;Node13</title>
<path fill="none" stroke="midnightblue" d="M218.341,-138.819C268.769,-135.009 341.488,-129.516 382.749,-126.399"/>
<polygon fill="midnightblue" stroke="midnightblue" points="217.962,-135.338 208.254,-139.581 218.489,-142.318 217.962,-135.338"/>
</g>
<!-- Node48&#45;&gt;Node26 -->
<g id="edge63" class="edge"><title>Node48&#45;&gt;Node26</title>
<path fill="none" stroke="midnightblue" d="M175.435,-540.835C189.579,-559.399 214.568,-587.354 244,-599 285.74,-615.516 300.985,-607.815 345,-599 363.589,-595.277 383.416,-586.468 397.116,-579.529"/>
<polygon fill="midnightblue" stroke="midnightblue" points="178.125,-538.586 169.39,-532.59 172.48,-542.724 178.125,-538.586"/>
</g>
</g>
</svg>
