<?xml version="1.0" encoding="UTF-8" standalone="no"?>
<!DOCTYPE svg PUBLIC "-//W3C//DTD SVG 1.1//EN"
 "http://www.w3.org/Graphics/SVG/1.1/DTD/svg11.dtd">
<!-- Generated by graphviz version 2.38.0 (20140413.2041)
 -->
<!-- Title: lua_error Pages: 1 -->
<svg width="631pt" height="1472pt"
 viewBox="0.00 0.00 631.00 1472.00" xmlns="http://www.w3.org/2000/svg" xmlns:xlink="http://www.w3.org/1999/xlink">
<g id="graph0" class="graph" transform="scale(1 1) rotate(0) translate(4 1468)">
<title>lua_error</title>
<!-- Node1 -->
<g id="node1" class="node"><title>Node1</title>
<polygon fill="#bfbfbf" stroke="black" points="0,-1083.5 0,-1102.5 52,-1102.5 52,-1083.5 0,-1083.5"/>
<text text-anchor="middle" x="26" y="-1090.5" font-family="Helvetica,sans-Serif" font-size="10.00">lua_error</text>
</g>
<!-- Node2 -->
<g id="node2" class="node"><title>Node2</title>
<g id="a_node2"><a xlink:href="../../df/d2d/lcorolib_8c.html#a777abb20385a69ce4787f72bd90375a7" target="_top" xlink:title="luaB_auxwrap">
<polygon fill="none" stroke="black" points="88,-1292.5 88,-1311.5 168,-1311.5 168,-1292.5 88,-1292.5"/>
<text text-anchor="middle" x="128" y="-1299.5" font-family="Helvetica,sans-Serif" font-size="10.00">luaB_auxwrap</text>
</a>
</g>
</g>
<!-- Node1&#45;&gt;Node2 -->
<g id="edge1" class="edge"><title>Node1&#45;&gt;Node2</title>
<path fill="none" stroke="midnightblue" d="M35.9074,-1111.62C56.5259,-1154.71 106.954,-1260.1 122.417,-1292.42"/>
<polygon fill="midnightblue" stroke="midnightblue" points="39.03,-1110.03 31.5566,-1102.52 32.7156,-1113.05 39.03,-1110.03"/>
</g>
<!-- Node4 -->
<g id="node4" class="node"><title>Node4</title>
<g id="a_node4"><a xlink:href="../../d8/dd3/lbaselib_8c.html#a86a4e35d9c9ad4661a0dbbac3758c049" target="_top" xlink:title="luaB_dofile">
<polygon fill="none" stroke="black" points="97,-1102.5 97,-1121.5 159,-1121.5 159,-1102.5 97,-1102.5"/>
<text text-anchor="middle" x="128" y="-1109.5" font-family="Helvetica,sans-Serif" font-size="10.00">luaB_dofile</text>
</a>
</g>
</g>
<!-- Node1&#45;&gt;Node4 -->
<g id="edge3" class="edge"><title>Node1&#45;&gt;Node4</title>
<path fill="none" stroke="midnightblue" d="M62.2135,-1099.69C73.4992,-1101.83 85.8892,-1104.19 96.7847,-1106.26"/>
<polygon fill="midnightblue" stroke="midnightblue" points="62.7118,-1096.22 52.2342,-1097.79 61.4051,-1103.1 62.7118,-1096.22"/>
</g>
<!-- Node5 -->
<g id="node5" class="node"><title>Node5</title>
<g id="a_node5"><a xlink:href="../../d8/dd3/lbaselib_8c.html#a2ecfa987569d0b4c1063f3e204e42dd2" target="_top" xlink:title="luaB_error">
<polygon fill="none" stroke="black" points="98.5,-1064.5 98.5,-1083.5 157.5,-1083.5 157.5,-1064.5 98.5,-1064.5"/>
<text text-anchor="middle" x="128" y="-1071.5" font-family="Helvetica,sans-Serif" font-size="10.00">luaB_error</text>
</a>
</g>
</g>
<!-- Node1&#45;&gt;Node5 -->
<g id="edge4" class="edge"><title>Node1&#45;&gt;Node5</title>
<path fill="none" stroke="midnightblue" d="M62.2106,-1086.31C74.0009,-1084.07 86.997,-1081.6 98.2352,-1079.47"/>
<polygon fill="midnightblue" stroke="midnightblue" points="61.4051,-1082.9 52.2342,-1088.21 62.7118,-1089.78 61.4051,-1082.9"/>
</g>
<!-- Node6 -->
<g id="node6" class="node"><title>Node6</title>
<g id="a_node6"><a xlink:href="../../da/d29/lauxlib_8h.html#a994f73d7985c30672469a260d9e86ae6" target="_top" xlink:title="luaL_error">
<polygon fill="none" stroke="black" points="99.5,-722.5 99.5,-741.5 156.5,-741.5 156.5,-722.5 99.5,-722.5"/>
<text text-anchor="middle" x="128" y="-729.5" font-family="Helvetica,sans-Serif" font-size="10.00">luaL_error</text>
</a>
</g>
</g>
<!-- Node1&#45;&gt;Node6 -->
<g id="edge5" class="edge"><title>Node1&#45;&gt;Node6</title>
<path fill="none" stroke="midnightblue" d="M32.4548,-1073.31C50.9747,-1006.45 111.034,-789.637 124.363,-741.518"/>
<polygon fill="midnightblue" stroke="midnightblue" points="28.9714,-1072.77 29.6748,-1083.34 35.7174,-1074.64 28.9714,-1072.77"/>
</g>
<!-- Node3 -->
<g id="node3" class="node"><title>Node3</title>
<g id="a_node3"><a xlink:href="../../df/d2d/lcorolib_8c.html#a1c0429e27f504b08e25f437f733edad1" target="_top" xlink:title="luaB_cowrap">
<polygon fill="none" stroke="black" points="216.5,-1444.5 216.5,-1463.5 290.5,-1463.5 290.5,-1444.5 216.5,-1444.5"/>
<text text-anchor="middle" x="253.5" y="-1451.5" font-family="Helvetica,sans-Serif" font-size="10.00">luaB_cowrap</text>
</a>
</g>
</g>
<!-- Node2&#45;&gt;Node3 -->
<g id="edge2" class="edge"><title>Node2&#45;&gt;Node3</title>
<path fill="none" stroke="midnightblue" d="M135.232,-1321.51C145.313,-1350.14 167.803,-1403.55 204,-1435 208.437,-1438.86 213.748,-1441.98 219.202,-1444.49"/>
<polygon fill="midnightblue" stroke="midnightblue" points="138.486,-1320.2 131.974,-1311.84 131.853,-1322.44 138.486,-1320.2"/>
</g>
<!-- Node7 -->
<g id="node7" class="node"><title>Node7</title>
<g id="a_node7"><a xlink:href="../../dc/d77/lstrlib_8c.html#ad5f7e3fbcadc8825f7f650ecf458fc72" target="_top" xlink:title="add_s">
<polygon fill="none" stroke="black" points="356.5,-1254.5 356.5,-1273.5 400.5,-1273.5 400.5,-1254.5 356.5,-1254.5"/>
<text text-anchor="middle" x="378.5" y="-1261.5" font-family="Helvetica,sans-Serif" font-size="10.00">add_s</text>
</a>
</g>
</g>
<!-- Node6&#45;&gt;Node7 -->
<g id="edge6" class="edge"><title>Node6&#45;&gt;Node7</title>
<path fill="none" stroke="midnightblue" d="M131.216,-751.836C141.608,-844.086 185.77,-1227.42 204,-1245 245.111,-1284.65 319.748,-1276.21 356.249,-1269"/>
<polygon fill="midnightblue" stroke="midnightblue" points="134.69,-751.407 130.096,-741.86 127.734,-752.188 134.69,-751.407"/>
</g>
<!-- Node8 -->
<g id="node8" class="node"><title>Node8</title>
<g id="a_node8"><a xlink:href="../../dc/d77/lstrlib_8c.html#ad24cfa73e5ad25ec99a1b48f0916471e" target="_top" xlink:title="add_value">
<polygon fill="none" stroke="black" points="454,-1235.5 454,-1254.5 516,-1254.5 516,-1235.5 454,-1235.5"/>
<text text-anchor="middle" x="485" y="-1242.5" font-family="Helvetica,sans-Serif" font-size="10.00">add_value</text>
</a>
</g>
</g>
<!-- Node6&#45;&gt;Node8 -->
<g id="edge9" class="edge"><title>Node6&#45;&gt;Node8</title>
<path fill="none" stroke="midnightblue" d="M131.397,-751.822C143.111,-848.338 194.169,-1264.84 204,-1274 273.658,-1338.88 326.034,-1307.58 418,-1283 438.437,-1277.54 459.109,-1264.06 471.739,-1254.72"/>
<polygon fill="midnightblue" stroke="midnightblue" points="134.847,-751.193 130.169,-741.687 127.897,-752.035 134.847,-751.193"/>
</g>
<!-- Node10 -->
<g id="node10" class="node"><title>Node10</title>
<g id="a_node10"><a xlink:href="../../d0/da1/ltablib_8c.html#a4ea6cc51c099ea709c7755a49216f4d0" target="_top" xlink:title="addfield">
<polygon fill="none" stroke="black" points="229,-950.5 229,-969.5 278,-969.5 278,-950.5 229,-950.5"/>
<text text-anchor="middle" x="253.5" y="-957.5" font-family="Helvetica,sans-Serif" font-size="10.00">addfield</text>
</a>
</g>
</g>
<!-- Node6&#45;&gt;Node10 -->
<g id="edge10" class="edge"><title>Node6&#45;&gt;Node10</title>
<path fill="none" stroke="midnightblue" d="M130.715,-751.803C135.271,-792.584 151.207,-886.663 204,-941 210.68,-947.875 220.143,-952.314 228.94,-955.156"/>
<polygon fill="midnightblue" stroke="midnightblue" points="134.191,-751.392 129.711,-741.791 127.226,-752.09 134.191,-751.392"/>
</g>
<!-- Node12 -->
<g id="node12" class="node"><title>Node12</title>
<g id="a_node12"><a xlink:href="../../d0/da1/ltablib_8c.html#a40096c011a188a26849b68cd9d5d920e" target="_top" xlink:title="auxsort">
<polygon fill="none" stroke="black" points="229.5,-836.5 229.5,-855.5 277.5,-855.5 277.5,-836.5 229.5,-836.5"/>
<text text-anchor="middle" x="253.5" y="-843.5" font-family="Helvetica,sans-Serif" font-size="10.00">auxsort</text>
</a>
</g>
</g>
<!-- Node6&#45;&gt;Node12 -->
<g id="edge12" class="edge"><title>Node6&#45;&gt;Node12</title>
<path fill="none" stroke="midnightblue" d="M140.522,-749.886C153.896,-769.552 177.529,-801.124 204,-822 211.524,-827.934 220.752,-832.949 229.131,-836.836"/>
<polygon fill="midnightblue" stroke="midnightblue" points="143.418,-747.921 134.969,-741.528 137.588,-751.794 143.418,-747.921"/>
</g>
<!-- Node14 -->
<g id="node14" class="node"><title>Node14</title>
<g id="a_node14"><a xlink:href="../../dc/d77/lstrlib_8c.html#a5e8b364a8f8d4300aa5007c0feb42abf" target="_top" xlink:title="capture_to_close">
<polygon fill="none" stroke="black" points="209.5,-1026.5 209.5,-1045.5 297.5,-1045.5 297.5,-1026.5 209.5,-1026.5"/>
<text text-anchor="middle" x="253.5" y="-1033.5" font-family="Helvetica,sans-Serif" font-size="10.00">capture_to_close</text>
</a>
</g>
</g>
<!-- Node6&#45;&gt;Node14 -->
<g id="edge14" class="edge"><title>Node6&#45;&gt;Node14</title>
<path fill="none" stroke="midnightblue" d="M128.964,-751.724C129.89,-801.214 138.749,-932.373 204,-1012 209.061,-1018.18 216.109,-1022.9 223.265,-1026.45"/>
<polygon fill="midnightblue" stroke="midnightblue" points="132.464,-751.675 128.869,-741.708 125.464,-751.741 132.464,-751.675"/>
</g>
<!-- Node16 -->
<g id="node16" class="node"><title>Node16</title>
<g id="a_node16"><a xlink:href="../../dc/d77/lstrlib_8c.html#a52a45835b75e5d31ec66421456bbb728" target="_top" xlink:title="match">
<polygon fill="none" stroke="red" points="464,-1083.5 464,-1102.5 506,-1102.5 506,-1083.5 464,-1083.5"/>
<text text-anchor="middle" x="485" y="-1090.5" font-family="Helvetica,sans-Serif" font-size="10.00">match</text>
</a>
</g>
</g>
<!-- Node6&#45;&gt;Node16 -->
<g id="edge51" class="edge"><title>Node6&#45;&gt;Node16</title>
<path fill="none" stroke="midnightblue" d="M130.742,-752.15C136.709,-816.236 158.525,-1013.58 204,-1055 242.081,-1089.69 406.101,-1093.04 463.816,-1093.12"/>
<polygon fill="midnightblue" stroke="midnightblue" points="134.193,-751.448 129.81,-741.802 127.221,-752.076 134.193,-751.448"/>
</g>
<!-- Node17 -->
<g id="node17" class="node"><title>Node17</title>
<g id="a_node17"><a xlink:href="../../dc/d77/lstrlib_8c.html#a31cf026bdaa00bf9c72a1e4f72319147" target="_top" xlink:title="start_capture">
<polygon fill="none" stroke="black" points="552,-1083.5 552,-1102.5 623,-1102.5 623,-1083.5 552,-1083.5"/>
<text text-anchor="middle" x="587.5" y="-1090.5" font-family="Helvetica,sans-Serif" font-size="10.00">start_capture</text>
</a>
</g>
</g>
<!-- Node6&#45;&gt;Node17 -->
<g id="edge62" class="edge"><title>Node6&#45;&gt;Node17</title>
<path fill="none" stroke="midnightblue" d="M128.564,-751.765C128.682,-798.942 136.031,-918.678 204,-979 276.249,-1043.12 325.708,-988.478 418,-1017 475.335,-1034.72 538.816,-1067.1 568.871,-1083.27"/>
<polygon fill="midnightblue" stroke="midnightblue" points="132.065,-751.68 128.652,-741.649 125.065,-751.619 132.065,-751.68"/>
</g>
<!-- Node18 -->
<g id="node18" class="node"><title>Node18</title>
<g id="a_node18"><a xlink:href="../../dc/d77/lstrlib_8c.html#aa8c1a193fa762ecfe81888d86981a586" target="_top" xlink:title="check_capture">
<polygon fill="none" stroke="black" points="215,-1178.5 215,-1197.5 292,-1197.5 292,-1178.5 215,-1178.5"/>
<text text-anchor="middle" x="253.5" y="-1185.5" font-family="Helvetica,sans-Serif" font-size="10.00">check_capture</text>
</a>
</g>
</g>
<!-- Node6&#45;&gt;Node18 -->
<g id="edge21" class="edge"><title>Node6&#45;&gt;Node18</title>
<path fill="none" stroke="midnightblue" d="M131.394,-751.991C141.181,-832.5 178.816,-1130.29 204,-1164 208.667,-1170.25 215.405,-1174.97 222.382,-1178.49"/>
<polygon fill="midnightblue" stroke="midnightblue" points="134.831,-751.254 130.157,-741.746 127.881,-752.094 134.831,-751.254"/>
</g>
<!-- Node20 -->
<g id="node20" class="node"><title>Node20</title>
<g id="a_node20"><a xlink:href="../../d2/d82/loadlib_8c.html#abe3af664b33d2158ef6526094c84bb17" target="_top" xlink:title="checkload">
<polygon fill="none" stroke="red" points="224,-646.5 224,-665.5 283,-665.5 283,-646.5 224,-646.5"/>
<text text-anchor="middle" x="253.5" y="-653.5" font-family="Helvetica,sans-Serif" font-size="10.00">checkload</text>
</a>
</g>
</g>
<!-- Node6&#45;&gt;Node20 -->
<g id="edge24" class="edge"><title>Node6&#45;&gt;Node20</title>
<path fill="none" stroke="midnightblue" d="M147.274,-715.808C161.874,-703.459 183.258,-686.647 204,-675 210.308,-671.458 217.41,-668.274 224.194,-665.571"/>
<polygon fill="midnightblue" stroke="midnightblue" points="144.81,-713.312 139.518,-722.49 149.379,-718.615 144.81,-713.312"/>
</g>
<!-- Node22 -->
<g id="node22" class="node"><title>Node22</title>
<g id="a_node22"><a xlink:href="../../dc/d77/lstrlib_8c.html#a72b26c2a339f5e84ef087e961b547f95" target="_top" xlink:title="classend">
<polygon fill="none" stroke="black" points="351,-1140.5 351,-1159.5 406,-1159.5 406,-1140.5 351,-1140.5"/>
<text text-anchor="middle" x="378.5" y="-1147.5" font-family="Helvetica,sans-Serif" font-size="10.00">classend</text>
</a>
</g>
</g>
<!-- Node6&#45;&gt;Node22 -->
<g id="edge26" class="edge"><title>Node6&#45;&gt;Node22</title>
<path fill="none" stroke="midnightblue" d="M130.023,-752.06C134.093,-823.605 151.544,-1064.78 204,-1117 243.004,-1155.83 312.611,-1156.43 350.729,-1153.32"/>
<polygon fill="midnightblue" stroke="midnightblue" points="133.501,-751.546 129.464,-741.75 126.511,-751.925 133.501,-751.546"/>
</g>
<!-- Node23 -->
<g id="node23" class="node"><title>Node23</title>
<g id="a_node23"><a xlink:href="../../df/d02/lbitlib_8c.html#a6a0cf932e22a22ae18f7302158bdd490" target="_top" xlink:title="fieldargs">
<polygon fill="none" stroke="red" points="228,-608.5 228,-627.5 279,-627.5 279,-608.5 228,-608.5"/>
<text text-anchor="middle" x="253.5" y="-615.5" font-family="Helvetica,sans-Serif" font-size="10.00">fieldargs</text>
</a>
</g>
</g>
<!-- Node6&#45;&gt;Node23 -->
<g id="edge28" class="edge"><title>Node6&#45;&gt;Node23</title>
<path fill="none" stroke="midnightblue" d="M139.388,-713.582C152.138,-692.463 175.601,-658.054 204,-637 210.974,-631.83 219.538,-627.865 227.518,-624.929"/>
<polygon fill="midnightblue" stroke="midnightblue" points="136.342,-711.857 134.304,-722.254 142.381,-715.397 136.342,-711.857"/>
</g>
<!-- Node24 -->
<g id="node24" class="node"><title>Node24</title>
<g id="a_node24"><a xlink:href="../../d2/d82/loadlib_8c.html#af8f7333f1a59f3d7aab8c9b79b7a4ab2" target="_top" xlink:title="findfile">
<polygon fill="none" stroke="red" points="233,-684.5 233,-703.5 274,-703.5 274,-684.5 233,-684.5"/>
<text text-anchor="middle" x="253.5" y="-691.5" font-family="Helvetica,sans-Serif" font-size="10.00">findfile</text>
</a>
</g>
</g>
<!-- Node6&#45;&gt;Node24 -->
<g id="edge29" class="edge"><title>Node6&#45;&gt;Node24</title>
<path fill="none" stroke="midnightblue" d="M166.396,-720.494C188.32,-713.748 215.122,-705.501 232.941,-700.018"/>
<polygon fill="midnightblue" stroke="midnightblue" points="165.244,-717.186 156.716,-723.472 167.303,-723.876 165.244,-717.186"/>
</g>
<!-- Node25 -->
<g id="node25" class="node"><title>Node25</title>
<g id="a_node25"><a xlink:href="../../d2/d82/loadlib_8c.html#aeea4101591c7cab25273f4dfe7d811d6" target="_top" xlink:title="findloader">
<polygon fill="none" stroke="red" points="225.5,-570.5 225.5,-589.5 281.5,-589.5 281.5,-570.5 225.5,-570.5"/>
<text text-anchor="middle" x="253.5" y="-577.5" font-family="Helvetica,sans-Serif" font-size="10.00">findloader</text>
</a>
</g>
</g>
<!-- Node6&#45;&gt;Node25 -->
<g id="edge31" class="edge"><title>Node6&#45;&gt;Node25</title>
<path fill="none" stroke="midnightblue" d="M135.232,-712.494C145.313,-683.861 167.803,-630.451 204,-599 210.075,-593.721 217.789,-589.816 225.266,-586.968"/>
<polygon fill="midnightblue" stroke="midnightblue" points="131.853,-711.563 131.974,-722.157 138.486,-713.8 131.853,-711.563"/>
</g>
<!-- Node26 -->
<g id="node26" class="node"><title>Node26</title>
<g id="a_node26"><a xlink:href="../../d8/dd3/lbaselib_8c.html#ad467c787e381e8d18e4c7b46b4f1b05d" target="_top" xlink:title="generic_reader">
<polygon fill="none" stroke="red" points="340,-779.5 340,-798.5 417,-798.5 417,-779.5 340,-779.5"/>
<text text-anchor="middle" x="378.5" y="-786.5" font-family="Helvetica,sans-Serif" font-size="10.00">generic_reader</text>
</a>
</g>
</g>
<!-- Node6&#45;&gt;Node26 -->
<g id="edge32" class="edge"><title>Node6&#45;&gt;Node26</title>
<path fill="none" stroke="midnightblue" d="M144.838,-749.068C158.863,-762.831 180.679,-781.144 204,-789 248.816,-804.097 303.918,-800.677 339.834,-795.774"/>
<polygon fill="midnightblue" stroke="midnightblue" points="147.026,-746.3 137.529,-741.603 142.025,-751.197 147.026,-746.3"/>
</g>
<!-- Node27 -->
<g id="node27" class="node"><title>Node27</title>
<g id="a_node27"><a xlink:href="../../dc/dba/loslib_8c.html#a4d6a2679129f7d65f34a60a6c701b782" target="_top" xlink:title="getfield">
<polygon fill="none" stroke="red" points="231,-532.5 231,-551.5 276,-551.5 276,-532.5 231,-532.5"/>
<text text-anchor="middle" x="253.5" y="-539.5" font-family="Helvetica,sans-Serif" font-size="10.00">getfield</text>
</a>
</g>
</g>
<!-- Node6&#45;&gt;Node27 -->
<g id="edge33" class="edge"><title>Node6&#45;&gt;Node27</title>
<path fill="none" stroke="midnightblue" d="M132.483,-712.49C139.704,-677.503 159.494,-603.763 204,-561 211.303,-553.983 221.5,-549.469 230.659,-546.611"/>
<polygon fill="midnightblue" stroke="midnightblue" points="129.03,-711.916 130.565,-722.399 135.902,-713.247 129.03,-711.916"/>
</g>
<!-- Node28 -->
<g id="node28" class="node"><title>Node28</title>
<g id="a_node28"><a xlink:href="../../de/df3/liolib_8c.html#a3bccbdacdc9f21f22a603525be1f3699" target="_top" xlink:title="getiofile">
<polygon fill="none" stroke="red" points="230,-494.5 230,-513.5 277,-513.5 277,-494.5 230,-494.5"/>
<text text-anchor="middle" x="253.5" y="-501.5" font-family="Helvetica,sans-Serif" font-size="10.00">getiofile</text>
</a>
</g>
</g>
<!-- Node6&#45;&gt;Node28 -->
<g id="edge34" class="edge"><title>Node6&#45;&gt;Node28</title>
<path fill="none" stroke="midnightblue" d="M130.715,-712.197C135.271,-671.416 151.207,-577.337 204,-523 210.932,-515.865 220.861,-511.354 229.932,-508.529"/>
<polygon fill="midnightblue" stroke="midnightblue" points="127.226,-711.91 129.711,-722.209 134.191,-712.608 127.226,-711.91"/>
</g>
<!-- Node29 -->
<g id="node29" class="node"><title>Node29</title>
<g id="a_node29"><a xlink:href="../../de/df3/liolib_8c.html#ac37d80ee2cc364b4adafcb6f7c20f28b" target="_top" xlink:title="io_readline">
<polygon fill="none" stroke="red" points="223,-456.5 223,-475.5 284,-475.5 284,-456.5 223,-456.5"/>
<text text-anchor="middle" x="253.5" y="-463.5" font-family="Helvetica,sans-Serif" font-size="10.00">io_readline</text>
</a>
</g>
</g>
<!-- Node6&#45;&gt;Node29 -->
<g id="edge35" class="edge"><title>Node6&#45;&gt;Node29</title>
<path fill="none" stroke="midnightblue" d="M129.432,-711.834C131.495,-665.656 142.865,-551.138 204,-485 209.095,-479.488 215.984,-475.553 222.969,-472.752"/>
<polygon fill="midnightblue" stroke="midnightblue" points="125.927,-711.917 129.083,-722.031 132.923,-712.156 125.927,-711.917"/>
</g>
<!-- Node30 -->
<g id="node30" class="node"><title>Node30</title>
<g id="a_node30"><a xlink:href="../../d8/dd3/lbaselib_8c.html#a8ba9378d5d46ef34a7429d52c3f3e4c7" target="_top" xlink:title="luaB_assert">
<polygon fill="none" stroke="black" points="219.5,-418.5 219.5,-437.5 287.5,-437.5 287.5,-418.5 219.5,-418.5"/>
<text text-anchor="middle" x="253.5" y="-425.5" font-family="Helvetica,sans-Serif" font-size="10.00">luaB_assert</text>
</a>
</g>
</g>
<!-- Node6&#45;&gt;Node30 -->
<g id="edge36" class="edge"><title>Node6&#45;&gt;Node30</title>
<path fill="none" stroke="midnightblue" d="M128.443,-712.267C128.09,-661.624 134.093,-525.53 204,-447 208.089,-442.407 213.427,-438.913 219.063,-436.259"/>
<polygon fill="midnightblue" stroke="midnightblue" points="124.947,-712.539 128.614,-722.479 131.946,-712.422 124.947,-712.539"/>
</g>
<!-- Node31 -->
<g id="node31" class="node"><title>Node31</title>
<g id="a_node31"><a xlink:href="../../d8/dd3/lbaselib_8c.html#a865eb761a305c588d6940da5272375b7" target="_top" xlink:title="luaB_print">
<polygon fill="none" stroke="black" points="224,-380.5 224,-399.5 283,-399.5 283,-380.5 224,-380.5"/>
<text text-anchor="middle" x="253.5" y="-387.5" font-family="Helvetica,sans-Serif" font-size="10.00">luaB_print</text>
</a>
</g>
</g>
<!-- Node6&#45;&gt;Node31 -->
<g id="edge37" class="edge"><title>Node6&#45;&gt;Node31</title>
<path fill="none" stroke="midnightblue" d="M131.172,-712.269C138.444,-649.455 163.775,-455.536 204,-409 209.204,-402.979 216.561,-398.853 223.977,-396.03"/>
<polygon fill="midnightblue" stroke="midnightblue" points="127.671,-712.077 130.024,-722.407 134.627,-712.864 127.671,-712.077"/>
</g>
<!-- Node32 -->
<g id="node32" class="node"><title>Node32</title>
<g id="a_node32"><a xlink:href="../../d8/dd3/lbaselib_8c.html#af7799a987ba6d158a96a52e80fb5beaf" target="_top" xlink:title="luaB_setmetatable">
<polygon fill="none" stroke="black" points="205.5,-342.5 205.5,-361.5 301.5,-361.5 301.5,-342.5 205.5,-342.5"/>
<text text-anchor="middle" x="253.5" y="-349.5" font-family="Helvetica,sans-Serif" font-size="10.00">luaB_setmetatable</text>
</a>
</g>
</g>
<!-- Node6&#45;&gt;Node32 -->
<g id="edge38" class="edge"><title>Node6&#45;&gt;Node32</title>
<path fill="none" stroke="midnightblue" d="M130.654,-712.186C136.669,-644.517 159.403,-423.826 204,-371 207.267,-367.13 211.425,-364.045 215.929,-361.585"/>
<polygon fill="midnightblue" stroke="midnightblue" points="127.152,-712.068 129.777,-722.332 134.126,-712.671 127.152,-712.068"/>
</g>
<!-- Node33 -->
<g id="node33" class="node"><title>Node33</title>
<g id="a_node33"><a xlink:href="../../da/d29/lauxlib_8h.html#a526c220d17273c63ce9973bcde4a2c4a" target="_top" xlink:title="luaL_argerror">
<polygon fill="none" stroke="red" points="218,-228.5 218,-247.5 289,-247.5 289,-228.5 218,-228.5"/>
<text text-anchor="middle" x="253.5" y="-235.5" font-family="Helvetica,sans-Serif" font-size="10.00">luaL_argerror</text>
</a>
</g>
</g>
<!-- Node6&#45;&gt;Node33 -->
<g id="edge39" class="edge"><title>Node6&#45;&gt;Node33</title>
<path fill="none" stroke="midnightblue" d="M129.78,-712.304C133.282,-632.709 149.826,-335.562 204,-262 208.568,-255.797 215.186,-251.105 222.072,-247.593"/>
<polygon fill="midnightblue" stroke="midnightblue" points="126.278,-712.279 129.355,-722.417 133.272,-712.573 126.278,-712.279"/>
</g>
<!-- Node34 -->
<g id="node34" class="node"><title>Node34</title>
<g id="a_node34"><a xlink:href="../../dc/d77/lstrlib_8c.html#ae26a9374857058119e59d0328208c2f2" target="_top" xlink:title="str_format">
<polygon fill="none" stroke="black" points="350,-247.5 350,-266.5 407,-266.5 407,-247.5 350,-247.5"/>
<text text-anchor="middle" x="378.5" y="-254.5" font-family="Helvetica,sans-Serif" font-size="10.00">str_format</text>
</a>
</g>
</g>
<!-- Node6&#45;&gt;Node34 -->
<g id="edge65" class="edge"><title>Node6&#45;&gt;Node34</title>
<path fill="none" stroke="midnightblue" d="M129.572,-711.842C132.194,-634.248 145.582,-356.147 204,-295 223.756,-274.321 305.979,-263.658 349.768,-259.353"/>
<polygon fill="midnightblue" stroke="midnightblue" points="126.064,-712.046 129.249,-722.151 133.061,-712.265 126.064,-712.046"/>
</g>
<!-- Node35 -->
<g id="node35" class="node"><title>Node35</title>
<g id="a_node35"><a xlink:href="../../da/d29/lauxlib_8h.html#a724f5a5aeee97c0b40948c8bca91341c" target="_top" xlink:title="luaL_checkstack">
<polygon fill="none" stroke="red" points="210.5,-760.5 210.5,-779.5 296.5,-779.5 296.5,-760.5 210.5,-760.5"/>
<text text-anchor="middle" x="253.5" y="-767.5" font-family="Helvetica,sans-Serif" font-size="10.00">luaL_checkstack</text>
</a>
</g>
</g>
<!-- Node6&#45;&gt;Node35 -->
<g id="edge41" class="edge"><title>Node6&#45;&gt;Node35</title>
<path fill="none" stroke="midnightblue" d="M166.629,-743.578C184.16,-748.972 204.769,-755.313 221.402,-760.431"/>
<polygon fill="midnightblue" stroke="midnightblue" points="167.303,-740.124 156.716,-740.528 165.244,-746.814 167.303,-740.124"/>
</g>
<!-- Node36 -->
<g id="node36" class="node"><title>Node36</title>
<g id="a_node36"><a xlink:href="../../dc/d77/lstrlib_8c.html#ae561770420cfd1894054415df9d4c423" target="_top" xlink:title="str_byte">
<polygon fill="none" stroke="black" points="353.5,-731.5 353.5,-750.5 403.5,-750.5 403.5,-731.5 353.5,-731.5"/>
<text text-anchor="middle" x="378.5" y="-738.5" font-family="Helvetica,sans-Serif" font-size="10.00">str_byte</text>
</a>
</g>
</g>
<!-- Node6&#45;&gt;Node36 -->
<g id="edge63" class="edge"><title>Node6&#45;&gt;Node36</title>
<path fill="none" stroke="midnightblue" d="M166.623,-733.363C218.267,-735.233 309.657,-738.543 353.165,-740.119"/>
<polygon fill="midnightblue" stroke="midnightblue" points="166.663,-729.862 156.543,-732.998 166.41,-736.857 166.663,-729.862"/>
</g>
<!-- Node37 -->
<g id="node37" class="node"><title>Node37</title>
<g id="a_node37"><a xlink:href="../../da/d29/lauxlib_8h.html#a20b0480f0d1e4d1b2cbf74f667e7ca24" target="_top" xlink:title="luaL_checkversion_">
<polygon fill="none" stroke="black" points="204,-152.5 204,-171.5 303,-171.5 303,-152.5 204,-152.5"/>
<text text-anchor="middle" x="253.5" y="-159.5" font-family="Helvetica,sans-Serif" font-size="10.00">luaL_checkversion_</text>
</a>
</g>
</g>
<!-- Node6&#45;&gt;Node37 -->
<g id="edge45" class="edge"><title>Node6&#45;&gt;Node37</title>
<path fill="none" stroke="midnightblue" d="M129.09,-712.244C129.873,-623.934 137.181,-265.976 204,-181 207.018,-177.161 210.922,-174.097 215.202,-171.65"/>
<polygon fill="midnightblue" stroke="midnightblue" points="125.589,-712.435 129.02,-722.459 132.589,-712.483 125.589,-712.435"/>
</g>
<!-- Node38 -->
<g id="node38" class="node"><title>Node38</title>
<g id="a_node38"><a xlink:href="../../da/d29/lauxlib_8h.html#a6f33f64067614a25031412f405a77873" target="_top" xlink:title="luaL_len">
<polygon fill="none" stroke="red" points="227.5,-912.5 227.5,-931.5 279.5,-931.5 279.5,-912.5 227.5,-912.5"/>
<text text-anchor="middle" x="253.5" y="-919.5" font-family="Helvetica,sans-Serif" font-size="10.00">luaL_len</text>
</a>
</g>
</g>
<!-- Node6&#45;&gt;Node38 -->
<g id="edge46" class="edge"><title>Node6&#45;&gt;Node38</title>
<path fill="none" stroke="midnightblue" d="M133.235,-751.499C141.464,-785.255 162.558,-855.074 204,-898 210.46,-904.691 219.177,-909.796 227.439,-913.542"/>
<polygon fill="midnightblue" stroke="midnightblue" points="136.591,-750.478 130.926,-741.525 129.771,-752.057 136.591,-750.478"/>
</g>
<!-- Node39 -->
<g id="node39" class="node"><title>Node39</title>
<g id="a_node39"><a xlink:href="../../d0/da1/ltablib_8c.html#aab557c98c16305370f73c4c716f5725d" target="_top" xlink:title="unpack">
<polygon fill="none" stroke="black" points="354.5,-883.5 354.5,-902.5 402.5,-902.5 402.5,-883.5 354.5,-883.5"/>
<text text-anchor="middle" x="378.5" y="-890.5" font-family="Helvetica,sans-Serif" font-size="10.00">unpack</text>
</a>
</g>
</g>
<!-- Node6&#45;&gt;Node39 -->
<g id="edge69" class="edge"><title>Node6&#45;&gt;Node39</title>
<path fill="none" stroke="midnightblue" d="M134.158,-751.674C143.055,-781.424 164.274,-837.314 204,-865 249.808,-896.926 318.784,-897.516 354.396,-895.256"/>
<polygon fill="midnightblue" stroke="midnightblue" points="137.419,-750.342 131.338,-741.666 130.681,-752.24 137.419,-750.342"/>
</g>
<!-- Node40 -->
<g id="node40" class="node"><title>Node40</title>
<g id="a_node40"><a xlink:href="../../da/d29/lauxlib_8h.html#a0fb6d10de24960ceed452061b47c2c06" target="_top" xlink:title="luaL_prepbuffsize">
<polygon fill="none" stroke="red" points="207.5,-190.5 207.5,-209.5 299.5,-209.5 299.5,-190.5 207.5,-190.5"/>
<text text-anchor="middle" x="253.5" y="-197.5" font-family="Helvetica,sans-Serif" font-size="10.00">luaL_prepbuffsize</text>
</a>
</g>
</g>
<!-- Node6&#45;&gt;Node40 -->
<g id="edge49" class="edge"><title>Node6&#45;&gt;Node40</title>
<path fill="none" stroke="midnightblue" d="M129.311,-712.271C131.019,-627.817 141.643,-297.5 204,-219 207.037,-215.176 210.951,-212.12 215.237,-209.678"/>
<polygon fill="midnightblue" stroke="midnightblue" points="125.811,-712.248 129.128,-722.31 132.81,-712.375 125.811,-712.248"/>
</g>
<!-- Node41 -->
<g id="node41" class="node"><title>Node41</title>
<g id="a_node41"><a xlink:href="../../dc/d77/lstrlib_8c.html#aacb8f9104a816720da707ecf5219a96e" target="_top" xlink:title="matchbalance">
<polygon fill="none" stroke="black" points="340,-1102.5 340,-1121.5 417,-1121.5 417,-1102.5 340,-1102.5"/>
<text text-anchor="middle" x="378.5" y="-1109.5" font-family="Helvetica,sans-Serif" font-size="10.00">matchbalance</text>
</a>
</g>
</g>
<!-- Node6&#45;&gt;Node41 -->
<g id="edge52" class="edge"><title>Node6&#45;&gt;Node41</title>
<path fill="none" stroke="midnightblue" d="M130.266,-751.948C135.013,-820.015 154.101,-1041.49 204,-1088 240.256,-1121.8 300.681,-1122.29 339.799,-1118.18"/>
<polygon fill="midnightblue" stroke="midnightblue" points="133.743,-751.482 129.583,-741.738 126.758,-751.949 133.743,-751.482"/>
</g>
<!-- Node42 -->
<g id="node42" class="node"><title>Node42</title>
<g id="a_node42"><a xlink:href="../../d1/d6a/lmathlib_8c.html#aa3ad02d4204d21d35a0825281915fb22" target="_top" xlink:title="math_random">
<polygon fill="none" stroke="black" points="216.5,-114.5 216.5,-133.5 290.5,-133.5 290.5,-114.5 216.5,-114.5"/>
<text text-anchor="middle" x="253.5" y="-121.5" font-family="Helvetica,sans-Serif" font-size="10.00">math_random</text>
</a>
</g>
</g>
<!-- Node6&#45;&gt;Node42 -->
<g id="edge54" class="edge"><title>Node6&#45;&gt;Node42</title>
<path fill="none" stroke="midnightblue" d="M128.897,-712.06C128.803,-619.736 132.749,-234.421 204,-143 207.224,-138.863 211.477,-135.625 216.127,-133.092"/>
<polygon fill="midnightblue" stroke="midnightblue" points="125.397,-712.262 128.926,-722.252 132.397,-712.242 125.397,-712.262"/>
</g>
<!-- Node43 -->
<g id="node43" class="node"><title>Node43</title>
<g id="a_node43"><a xlink:href="../../de/df3/liolib_8c.html#a91ec9c6fa0ef33085f29a15532ac80a7" target="_top" xlink:title="opencheck">
<polygon fill="none" stroke="red" points="222.5,-76.5 222.5,-95.5 284.5,-95.5 284.5,-76.5 222.5,-76.5"/>
<text text-anchor="middle" x="253.5" y="-83.5" font-family="Helvetica,sans-Serif" font-size="10.00">opencheck</text>
</a>
</g>
</g>
<!-- Node6&#45;&gt;Node43 -->
<g id="edge55" class="edge"><title>Node6&#45;&gt;Node43</title>
<path fill="none" stroke="midnightblue" d="M128.724,-711.995C127.788,-615.969 128.279,-202.922 204,-105 208.592,-99.0623 215.304,-94.9776 222.279,-92.1685"/>
<polygon fill="midnightblue" stroke="midnightblue" points="125.225,-712.133 128.841,-722.092 132.225,-712.052 125.225,-712.133"/>
</g>
<!-- Node44 -->
<g id="node44" class="node"><title>Node44</title>
<g id="a_node44"><a xlink:href="../../dc/dba/loslib_8c.html#a89a90062784a8adc223ff4cbe576321d" target="_top" xlink:title="os_tmpname">
<polygon fill="none" stroke="black" points="217.5,-38.5 217.5,-57.5 289.5,-57.5 289.5,-38.5 217.5,-38.5"/>
<text text-anchor="middle" x="253.5" y="-45.5" font-family="Helvetica,sans-Serif" font-size="10.00">os_tmpname</text>
</a>
</g>
</g>
<!-- Node6&#45;&gt;Node44 -->
<g id="edge56" class="edge"><title>Node6&#45;&gt;Node44</title>
<path fill="none" stroke="midnightblue" d="M130.016,-712.363C135.579,-607.841 163.589,-119.625 204,-67 207.415,-62.5531 212.02,-59.1457 217.04,-56.5352"/>
<polygon fill="midnightblue" stroke="midnightblue" points="126.515,-712.287 129.485,-722.457 133.505,-712.654 126.515,-712.287"/>
</g>
<!-- Node45 -->
<g id="node45" class="node"><title>Node45</title>
<g id="a_node45"><a xlink:href="../../dc/d77/lstrlib_8c.html#a24a14b4e6e90bac4610dd334bb0b51b6" target="_top" xlink:title="push_onecapture">
<polygon fill="none" stroke="red" points="208,-1216.5 208,-1235.5 299,-1235.5 299,-1216.5 208,-1216.5"/>
<text text-anchor="middle" x="253.5" y="-1223.5" font-family="Helvetica,sans-Serif" font-size="10.00">push_onecapture</text>
</a>
</g>
</g>
<!-- Node6&#45;&gt;Node45 -->
<g id="edge57" class="edge"><title>Node6&#45;&gt;Node45</title>
<path fill="none" stroke="midnightblue" d="M130.965,-751.849C139.576,-837.25 174.843,-1170.72 204,-1207 207.059,-1210.81 210.986,-1213.85 215.278,-1216.29"/>
<polygon fill="midnightblue" stroke="midnightblue" points="134.448,-751.498 129.97,-741.896 127.482,-752.194 134.448,-751.498"/>
</g>
<!-- Node46 -->
<g id="node46" class="node"><title>Node46</title>
<g id="a_node46"><a xlink:href="../../dc/d77/lstrlib_8c.html#aa02d130952004540df86ae92853cfc22" target="_top" xlink:title="scanformat">
<polygon fill="none" stroke="black" points="222,-304.5 222,-323.5 285,-323.5 285,-304.5 222,-304.5"/>
<text text-anchor="middle" x="253.5" y="-311.5" font-family="Helvetica,sans-Serif" font-size="10.00">scanformat</text>
</a>
</g>
</g>
<!-- Node6&#45;&gt;Node46 -->
<g id="edge60" class="edge"><title>Node6&#45;&gt;Node46</title>
<path fill="none" stroke="midnightblue" d="M130.237,-712.019C135.09,-639.613 155.03,-392.139 204,-333 208.614,-327.428 215.081,-323.483 221.791,-320.692"/>
<polygon fill="midnightblue" stroke="midnightblue" points="126.717,-712.216 129.564,-722.421 133.702,-712.668 126.717,-712.216"/>
</g>
<!-- Node47 -->
<g id="node47" class="node"><title>Node47</title>
<g id="a_node47"><a xlink:href="../../dc/d77/lstrlib_8c.html#abc94e3a13f1b6ddb2c9b20c9fd89e87f" target="_top" xlink:title="str_dump">
<polygon fill="none" stroke="black" points="225.5,-0.5 225.5,-19.5 281.5,-19.5 281.5,-0.5 225.5,-0.5"/>
<text text-anchor="middle" x="253.5" y="-7.5" font-family="Helvetica,sans-Serif" font-size="10.00">str_dump</text>
</a>
</g>
</g>
<!-- Node6&#45;&gt;Node47 -->
<g id="edge64" class="edge"><title>Node6&#45;&gt;Node47</title>
<path fill="none" stroke="midnightblue" d="M129.894,-712.268C134.959,-603.995 161.342,-84.8981 204,-29 209.212,-22.1704 217.234,-17.7932 225.264,-14.9887"/>
<polygon fill="midnightblue" stroke="midnightblue" points="126.39,-712.274 129.426,-722.424 133.383,-712.596 126.39,-712.274"/>
</g>
<!-- Node48 -->
<g id="node48" class="node"><title>Node48</title>
<g id="a_node48"><a xlink:href="../../dc/d77/lstrlib_8c.html#acaee4c84f29e2ec7366728ca04d3569c" target="_top" xlink:title="str_rep">
<polygon fill="none" stroke="black" points="231,-1406.5 231,-1425.5 276,-1425.5 276,-1406.5 231,-1406.5"/>
<text text-anchor="middle" x="253.5" y="-1413.5" font-family="Helvetica,sans-Serif" font-size="10.00">str_rep</text>
</a>
</g>
</g>
<!-- Node6&#45;&gt;Node48 -->
<g id="edge66" class="edge"><title>Node6&#45;&gt;Node48</title>
<path fill="none" stroke="midnightblue" d="M131.476,-751.629C137.806,-801.993 154.997,-939.924 168,-1055 176.581,-1130.94 157.682,-1336.22 204,-1397 210.358,-1405.34 220.912,-1410.03 230.554,-1412.65"/>
<polygon fill="midnightblue" stroke="midnightblue" points="134.923,-750.991 130.202,-741.506 127.978,-751.865 134.923,-750.991"/>
</g>
<!-- Node49 -->
<g id="node49" class="node"><title>Node49</title>
<g id="a_node49"><a xlink:href="../../d0/da1/ltablib_8c.html#a214ed6966e2b1b4c376ab0de0d09032e" target="_top" xlink:title="tinsert">
<polygon fill="none" stroke="black" points="233,-1368.5 233,-1387.5 274,-1387.5 274,-1368.5 233,-1368.5"/>
<text text-anchor="middle" x="253.5" y="-1375.5" font-family="Helvetica,sans-Serif" font-size="10.00">tinsert</text>
</a>
</g>
</g>
<!-- Node6&#45;&gt;Node49 -->
<g id="edge67" class="edge"><title>Node6&#45;&gt;Node49</title>
<path fill="none" stroke="midnightblue" d="M131.387,-751.639C137.508,-802.027 154.249,-940.011 168,-1055 176.077,-1122.55 162.418,-1305.16 204,-1359 210.854,-1367.87 222.448,-1372.61 232.581,-1375.13"/>
<polygon fill="midnightblue" stroke="midnightblue" points="134.837,-751.016 130.156,-741.511 127.888,-751.86 134.837,-751.016"/>
</g>
<!-- Node50 -->
<g id="node50" class="node"><title>Node50</title>
<g id="a_node50"><a xlink:href="../../de/df3/liolib_8c.html#a3a596f9304846a90435b75c75c55acda" target="_top" xlink:title="tofile">
<polygon fill="none" stroke="red" points="236,-1330.5 236,-1349.5 271,-1349.5 271,-1330.5 236,-1330.5"/>
<text text-anchor="middle" x="253.5" y="-1337.5" font-family="Helvetica,sans-Serif" font-size="10.00">tofile</text>
</a>
</g>
</g>
<!-- Node6&#45;&gt;Node50 -->
<g id="edge68" class="edge"><title>Node6&#45;&gt;Node50</title>
<path fill="none" stroke="midnightblue" d="M131.388,-751.584C143.72,-852.578 199.776,-1310.08 204,-1316 211.528,-1326.56 225.033,-1332.7 235.884,-1336.13"/>
<polygon fill="midnightblue" stroke="midnightblue" points="134.849,-751.044 130.163,-741.542 127.9,-751.892 134.849,-751.044"/>
</g>
<!-- Node7&#45;&gt;Node8 -->
<g id="edge7" class="edge"><title>Node7&#45;&gt;Node8</title>
<path fill="none" stroke="midnightblue" d="M410.562,-1258.35C424.223,-1255.87 440.21,-1252.96 453.774,-1250.5"/>
<polygon fill="midnightblue" stroke="midnightblue" points="409.86,-1254.92 400.647,-1260.16 411.112,-1261.81 409.86,-1254.92"/>
</g>
<!-- Node9 -->
<g id="node9" class="node"><title>Node9</title>
<g id="a_node9"><a xlink:href="../../dc/d77/lstrlib_8c.html#a42337c674d265175bcc2b2f3809c7339" target="_top" xlink:title="str_gsub">
<polygon fill="none" stroke="black" points="561,-1187.5 561,-1206.5 614,-1206.5 614,-1187.5 561,-1187.5"/>
<text text-anchor="middle" x="587.5" y="-1194.5" font-family="Helvetica,sans-Serif" font-size="10.00">str_gsub</text>
</a>
</g>
</g>
<!-- Node8&#45;&gt;Node9 -->
<g id="edge8" class="edge"><title>Node8&#45;&gt;Node9</title>
<path fill="none" stroke="midnightblue" d="M515.526,-1230.9C531.95,-1223.05 551.956,-1213.5 566.536,-1206.54"/>
<polygon fill="midnightblue" stroke="midnightblue" points="513.853,-1227.82 506.338,-1235.29 516.87,-1234.13 513.853,-1227.82"/>
</g>
<!-- Node11 -->
<g id="node11" class="node"><title>Node11</title>
<g id="a_node11"><a xlink:href="../../d0/da1/ltablib_8c.html#add6973c515a288f41265aca8e0ae6412" target="_top" xlink:title="tconcat">
<polygon fill="none" stroke="black" points="355,-931.5 355,-950.5 402,-950.5 402,-931.5 355,-931.5"/>
<text text-anchor="middle" x="378.5" y="-938.5" font-family="Helvetica,sans-Serif" font-size="10.00">tconcat</text>
</a>
</g>
</g>
<!-- Node10&#45;&gt;Node11 -->
<g id="edge11" class="edge"><title>Node10&#45;&gt;Node11</title>
<path fill="none" stroke="midnightblue" d="M288.379,-954.767C309.486,-951.506 336.07,-947.4 354.689,-944.524"/>
<polygon fill="midnightblue" stroke="midnightblue" points="287.564,-951.351 278.216,-956.337 288.633,-958.269 287.564,-951.351"/>
</g>
<!-- Node13 -->
<g id="node13" class="node"><title>Node13</title>
<g id="a_node13"><a xlink:href="../../d0/da1/ltablib_8c.html#ae7d3f892e2605bf102dce63de388e626" target="_top" xlink:title="sort">
<polygon fill="none" stroke="black" points="362.5,-827.5 362.5,-846.5 394.5,-846.5 394.5,-827.5 362.5,-827.5"/>
<text text-anchor="middle" x="378.5" y="-834.5" font-family="Helvetica,sans-Serif" font-size="10.00">sort</text>
</a>
</g>
</g>
<!-- Node12&#45;&gt;Node13 -->
<g id="edge13" class="edge"><title>Node12&#45;&gt;Node13</title>
<path fill="none" stroke="midnightblue" d="M287.838,-843.561C312.073,-841.787 343.748,-839.47 362.236,-838.117"/>
<polygon fill="midnightblue" stroke="midnightblue" points="287.353,-840.087 277.635,-844.307 287.864,-847.068 287.353,-840.087"/>
</g>
<!-- Node15 -->
<g id="node15" class="node"><title>Node15</title>
<g id="a_node15"><a xlink:href="../../dc/d77/lstrlib_8c.html#ab0ecc0f25602beb821f6a5e62517d18e" target="_top" xlink:title="end_capture">
<polygon fill="none" stroke="black" points="344,-1026.5 344,-1045.5 413,-1045.5 413,-1026.5 344,-1026.5"/>
<text text-anchor="middle" x="378.5" y="-1033.5" font-family="Helvetica,sans-Serif" font-size="10.00">end_capture</text>
</a>
</g>
</g>
<!-- Node14&#45;&gt;Node15 -->
<g id="edge15" class="edge"><title>Node14&#45;&gt;Node15</title>
<path fill="none" stroke="midnightblue" d="M307.622,-1036C319.827,-1036 332.48,-1036 343.61,-1036"/>
<polygon fill="midnightblue" stroke="midnightblue" points="307.519,-1032.5 297.519,-1036 307.519,-1039.5 307.519,-1032.5"/>
</g>
<!-- Node15&#45;&gt;Node16 -->
<g id="edge16" class="edge"><title>Node15&#45;&gt;Node16</title>
<path fill="none" stroke="midnightblue" d="M417.311,-1050.11C437.432,-1060.41 460.653,-1073.84 473.703,-1083.16"/>
<polygon fill="midnightblue" stroke="midnightblue" points="418.841,-1046.96 408.332,-1045.62 415.711,-1053.22 418.841,-1046.96"/>
</g>
<!-- Node16&#45;&gt;Node9 -->
<g id="edge20" class="edge"><title>Node16&#45;&gt;Node9</title>
<path fill="none" stroke="midnightblue" d="M502.374,-1109.94C523.686,-1132 560.213,-1169.8 577.248,-1187.43"/>
<polygon fill="midnightblue" stroke="midnightblue" points="504.741,-1107.36 495.275,-1102.6 499.707,-1112.22 504.741,-1107.36"/>
</g>
<!-- Node16&#45;&gt;Node15 -->
<g id="edge17" class="edge"><title>Node16&#45;&gt;Node15</title>
<path fill="none" stroke="midnightblue" d="M454.684,-1083.14C432.863,-1072.49 404.383,-1056.3 389.52,-1045.64"/>
<polygon fill="midnightblue" stroke="midnightblue" points="453.331,-1086.38 463.869,-1087.48 456.317,-1080.04 453.331,-1086.38"/>
</g>
<!-- Node16&#45;&gt;Node17 -->
<g id="edge18" class="edge"><title>Node16&#45;&gt;Node17</title>
<path fill="none" stroke="midnightblue" d="M516.496,-1086.74C527.683,-1086.16 540.423,-1086.1 551.94,-1086.55"/>
<polygon fill="midnightblue" stroke="midnightblue" points="516.067,-1083.26 506.338,-1087.45 516.559,-1090.24 516.067,-1083.26"/>
</g>
<!-- Node17&#45;&gt;Node16 -->
<g id="edge19" class="edge"><title>Node17&#45;&gt;Node16</title>
<path fill="none" stroke="midnightblue" d="M541.727,-1099.71C529.365,-1099.88 516.554,-1099.49 506.338,-1098.55"/>
<polygon fill="midnightblue" stroke="midnightblue" points="542.034,-1103.21 551.94,-1099.45 541.852,-1096.21 542.034,-1103.21"/>
</g>
<!-- Node19 -->
<g id="node19" class="node"><title>Node19</title>
<g id="a_node19"><a xlink:href="../../dc/d77/lstrlib_8c.html#af71e61c103df8b6163925c900470ee37" target="_top" xlink:title="match_capture">
<polygon fill="none" stroke="black" points="339,-1178.5 339,-1197.5 418,-1197.5 418,-1178.5 339,-1178.5"/>
<text text-anchor="middle" x="378.5" y="-1185.5" font-family="Helvetica,sans-Serif" font-size="10.00">match_capture</text>
</a>
</g>
</g>
<!-- Node18&#45;&gt;Node19 -->
<g id="edge22" class="edge"><title>Node18&#45;&gt;Node19</title>
<path fill="none" stroke="midnightblue" d="M302.08,-1188C314.262,-1188 327.213,-1188 338.883,-1188"/>
<polygon fill="midnightblue" stroke="midnightblue" points="302.072,-1184.5 292.072,-1188 302.072,-1191.5 302.072,-1184.5"/>
</g>
<!-- Node19&#45;&gt;Node16 -->
<g id="edge23" class="edge"><title>Node19&#45;&gt;Node16</title>
<path fill="none" stroke="midnightblue" d="M411.592,-1173.42C413.825,-1172.03 415.986,-1170.55 418,-1169 443.459,-1149.36 466.417,-1118.69 477.316,-1102.99"/>
<polygon fill="midnightblue" stroke="midnightblue" points="409.788,-1170.42 402.779,-1178.37 413.213,-1176.53 409.788,-1170.42"/>
</g>
<!-- Node21 -->
<g id="node21" class="node"><title>Node21</title>
<g id="a_node21"><a xlink:href="../../d2/d82/loadlib_8c.html#a9a915ea950c831cee2f1e7b0a3bd9005" target="_top" xlink:title="searcher_C">
<polygon fill="none" stroke="red" points="346,-665.5 346,-684.5 411,-684.5 411,-665.5 346,-665.5"/>
<text text-anchor="middle" x="378.5" y="-672.5" font-family="Helvetica,sans-Serif" font-size="10.00">searcher_C</text>
</a>
</g>
</g>
<!-- Node20&#45;&gt;Node21 -->
<g id="edge25" class="edge"><title>Node20&#45;&gt;Node21</title>
<path fill="none" stroke="midnightblue" d="M293.146,-661.97C310.044,-664.58 329.624,-667.605 345.664,-670.082"/>
<polygon fill="midnightblue" stroke="midnightblue" points="293.445,-658.474 283.028,-660.407 292.376,-665.392 293.445,-658.474"/>
</g>
<!-- Node22&#45;&gt;Node16 -->
<g id="edge27" class="edge"><title>Node22&#45;&gt;Node16</title>
<path fill="none" stroke="midnightblue" d="M408.819,-1135.77C411.933,-1134.19 415.041,-1132.58 418,-1131 435.379,-1121.72 454.886,-1110.37 468.156,-1102.5"/>
<polygon fill="midnightblue" stroke="midnightblue" points="406.986,-1132.78 399.606,-1140.38 410.116,-1139.04 406.986,-1132.78"/>
</g>
<!-- Node24&#45;&gt;Node21 -->
<g id="edge30" class="edge"><title>Node24&#45;&gt;Node21</title>
<path fill="none" stroke="midnightblue" d="M284.255,-689.404C302.866,-686.529 326.82,-682.829 345.789,-679.898"/>
<polygon fill="midnightblue" stroke="midnightblue" points="283.611,-685.962 274.262,-690.947 284.679,-692.88 283.611,-685.962"/>
</g>
<!-- Node33&#45;&gt;Node34 -->
<g id="edge40" class="edge"><title>Node33&#45;&gt;Node34</title>
<path fill="none" stroke="midnightblue" d="M299.317,-244.923C316.201,-247.531 334.899,-250.419 349.775,-252.717"/>
<polygon fill="midnightblue" stroke="midnightblue" points="299.507,-241.411 289.09,-243.343 298.438,-248.329 299.507,-241.411"/>
</g>
<!-- Node35&#45;&gt;Node13 -->
<g id="edge43" class="edge"><title>Node35&#45;&gt;Node13</title>
<path fill="none" stroke="midnightblue" d="M281.01,-784.441C305.799,-797.943 341.954,-817.637 362.236,-828.686"/>
<polygon fill="midnightblue" stroke="midnightblue" points="282.579,-781.309 272.123,-779.599 279.23,-787.457 282.579,-781.309"/>
</g>
<!-- Node35&#45;&gt;Node26 -->
<g id="edge42" class="edge"><title>Node35&#45;&gt;Node26</title>
<path fill="none" stroke="midnightblue" d="M306.799,-778.079C317.824,-779.782 329.252,-781.547 339.624,-783.149"/>
<polygon fill="midnightblue" stroke="midnightblue" points="307.247,-774.606 296.83,-776.539 306.178,-781.524 307.247,-774.606"/>
</g>
<!-- Node35&#45;&gt;Node36 -->
<g id="edge44" class="edge"><title>Node35&#45;&gt;Node36</title>
<path fill="none" stroke="midnightblue" d="M305.305,-758.022C321.966,-754.093 339.709,-749.91 353.435,-746.674"/>
<polygon fill="midnightblue" stroke="midnightblue" points="304.046,-754.722 295.116,-760.424 305.652,-761.536 304.046,-754.722"/>
</g>
<!-- Node38&#45;&gt;Node11 -->
<g id="edge47" class="edge"><title>Node38&#45;&gt;Node11</title>
<path fill="none" stroke="midnightblue" d="M289.805,-927.454C310.726,-930.685 336.622,-934.685 354.831,-937.498"/>
<polygon fill="midnightblue" stroke="midnightblue" points="290.105,-923.958 279.688,-925.891 289.036,-930.876 290.105,-923.958"/>
</g>
<!-- Node38&#45;&gt;Node39 -->
<g id="edge48" class="edge"><title>Node38&#45;&gt;Node39</title>
<path fill="none" stroke="midnightblue" d="M289.453,-913.759C310.28,-908.849 336.134,-902.753 354.423,-898.441"/>
<polygon fill="midnightblue" stroke="midnightblue" points="288.618,-910.36 279.688,-916.061 290.224,-917.173 288.618,-910.36"/>
</g>
<!-- Node40&#45;&gt;Node34 -->
<g id="edge50" class="edge"><title>Node40&#45;&gt;Node34</title>
<path fill="none" stroke="midnightblue" d="M289.933,-213.413C294.36,-215.226 298.804,-217.113 303,-219 322.864,-227.931 345.027,-239.442 359.976,-247.444"/>
<polygon fill="midnightblue" stroke="midnightblue" points="290.954,-210.053 280.37,-209.592 288.357,-216.553 290.954,-210.053"/>
</g>
<!-- Node41&#45;&gt;Node16 -->
<g id="edge53" class="edge"><title>Node41&#45;&gt;Node16</title>
<path fill="none" stroke="midnightblue" d="M427.412,-1103.29C440.281,-1100.95 453.504,-1098.54 463.929,-1096.65"/>
<polygon fill="midnightblue" stroke="midnightblue" points="426.439,-1099.91 417.227,-1105.14 427.692,-1106.8 426.439,-1099.91"/>
</g>
<!-- Node45&#45;&gt;Node7 -->
<g id="edge58" class="edge"><title>Node45&#45;&gt;Node7</title>
<path fill="none" stroke="midnightblue" d="M295.215,-1238.58C315.584,-1244.87 339.4,-1252.23 356.154,-1257.41"/>
<polygon fill="midnightblue" stroke="midnightblue" points="296.126,-1235.2 285.538,-1235.59 294.059,-1241.88 296.126,-1235.2"/>
</g>
<!-- Node45&#45;&gt;Node8 -->
<g id="edge59" class="edge"><title>Node45&#45;&gt;Node8</title>
<path fill="none" stroke="midnightblue" d="M309.27,-1230.53C354.56,-1234.28 417.19,-1239.47 453.865,-1242.51"/>
<polygon fill="midnightblue" stroke="midnightblue" points="309.277,-1227.02 299.022,-1229.69 308.699,-1234 309.277,-1227.02"/>
</g>
<!-- Node46&#45;&gt;Node34 -->
<g id="edge61" class="edge"><title>Node46&#45;&gt;Node34</title>
<path fill="none" stroke="midnightblue" d="M284.187,-300.243C306.66,-289.828 336.955,-275.789 356.845,-266.572"/>
<polygon fill="midnightblue" stroke="midnightblue" points="282.689,-297.079 275.087,-304.459 285.632,-303.43 282.689,-297.079"/>
</g>
</g>
</svg>
