<?xml version="1.0" encoding="UTF-8" standalone="no"?>
<!DOCTYPE svg PUBLIC "-//W3C//DTD SVG 1.1//EN"
 "http://www.w3.org/Graphics/SVG/1.1/DTD/svg11.dtd">
<!-- Generated by graphviz version 2.38.0 (20140413.2041)
 -->
<!-- Title: lua_newuserdata Pages: 1 -->
<svg width="831pt" height="969pt"
 viewBox="0.00 0.00 831.00 968.50" xmlns="http://www.w3.org/2000/svg" xmlns:xlink="http://www.w3.org/1999/xlink">
<g id="graph0" class="graph" transform="scale(1 1) rotate(0) translate(4 964.5)">
<title>lua_newuserdata</title>
<!-- Node1 -->
<g id="node1" class="node"><title>Node1</title>
<polygon fill="#bfbfbf" stroke="black" points="0,-181 0,-200 91,-200 91,-181 0,-181"/>
<text text-anchor="middle" x="45.5" y="-188" font-family="Helvetica,sans-Serif" font-size="10.00">lua_newuserdata</text>
</g>
<!-- Node2 -->
<g id="node2" class="node"><title>Node2</title>
<g id="a_node2"><a xlink:href="../../da/d29/lauxlib_8h.html#a0fb6d10de24960ceed452061b47c2c06" target="_top" xlink:title="luaL_prepbuffsize">
<polygon fill="none" stroke="black" points="127,-694 127,-713 219,-713 219,-694 127,-694"/>
<text text-anchor="middle" x="173" y="-701" font-family="Helvetica,sans-Serif" font-size="10.00">luaL_prepbuffsize</text>
</a>
</g>
</g>
<!-- Node1&#45;&gt;Node2 -->
<g id="edge1" class="edge"><title>Node1&#45;&gt;Node2</title>
<path fill="none" stroke="midnightblue" d="M51.3246,-210.221C72.202,-295.561 154.393,-631.527 169.58,-693.607"/>
<polygon fill="midnightblue" stroke="midnightblue" points="54.6711,-209.172 48.895,-200.29 47.8716,-210.835 54.6711,-209.172"/>
</g>
<!-- Node35 -->
<g id="node35" class="node"><title>Node35</title>
<g id="a_node35"><a xlink:href="../../de/df3/liolib_8c.html#ab456fc51383d039a5a24c702060aba8e" target="_top" xlink:title="newprefile">
<polygon fill="none" stroke="black" points="143.5,-181 143.5,-200 202.5,-200 202.5,-181 143.5,-181"/>
<text text-anchor="middle" x="173" y="-188" font-family="Helvetica,sans-Serif" font-size="10.00">newprefile</text>
</a>
</g>
</g>
<!-- Node1&#45;&gt;Node35 -->
<g id="edge43" class="edge"><title>Node1&#45;&gt;Node35</title>
<path fill="none" stroke="midnightblue" d="M101.442,-190.5C115.842,-190.5 130.798,-190.5 143.215,-190.5"/>
<polygon fill="midnightblue" stroke="midnightblue" points="101.1,-187 91.1,-190.5 101.1,-194 101.1,-187"/>
</g>
<!-- Node45 -->
<g id="node45" class="node"><title>Node45</title>
<g id="a_node45"><a xlink:href="../../d1/dc2/_kensho_lua_wrapper_8m.html#ac812f3eb3f83c6ada24f2dadeced6d68" target="_top" xlink:title="pushValue">
<polygon fill="none" stroke="black" points="141.5,-83 141.5,-102 204.5,-102 204.5,-83 141.5,-83"/>
<text text-anchor="middle" x="173" y="-90" font-family="Helvetica,sans-Serif" font-size="10.00">pushValue</text>
</a>
</g>
</g>
<!-- Node1&#45;&gt;Node45 -->
<g id="edge53" class="edge"><title>Node1&#45;&gt;Node45</title>
<path fill="none" stroke="midnightblue" d="M67.1421,-174.381C93.4172,-153.863 137.981,-119.064 159.558,-102.215"/>
<polygon fill="midnightblue" stroke="midnightblue" points="64.7198,-171.832 58.9922,-180.745 69.0281,-177.349 64.7198,-171.832"/>
</g>
<!-- Node3 -->
<g id="node3" class="node"><title>Node3</title>
<g id="a_node3"><a xlink:href="../../da/d29/lauxlib_8h.html#a06fceedb3abb1272566ca22c96e34b95" target="_top" xlink:title="luaL_addlstring">
<polygon fill="none" stroke="black" points="256.5,-523 256.5,-542 336.5,-542 336.5,-523 256.5,-523"/>
<text text-anchor="middle" x="296.5" y="-530" font-family="Helvetica,sans-Serif" font-size="10.00">luaL_addlstring</text>
</a>
</g>
</g>
<!-- Node2&#45;&gt;Node3 -->
<g id="edge2" class="edge"><title>Node2&#45;&gt;Node3</title>
<path fill="none" stroke="midnightblue" d="M186.978,-685.234C212.659,-649.091 269.159,-569.573 288.695,-542.077"/>
<polygon fill="midnightblue" stroke="midnightblue" points="183.819,-683.637 180.88,-693.816 189.526,-687.692 183.819,-683.637"/>
</g>
<!-- Node9 -->
<g id="node9" class="node"><title>Node9</title>
<g id="a_node9"><a xlink:href="../../dc/d77/lstrlib_8c.html#ae26a9374857058119e59d0328208c2f2" target="_top" xlink:title="str_format">
<polygon fill="none" stroke="black" points="673,-637 673,-656 730,-656 730,-637 673,-637"/>
<text text-anchor="middle" x="701.5" y="-644" font-family="Helvetica,sans-Serif" font-size="10.00">str_format</text>
</a>
</g>
</g>
<!-- Node2&#45;&gt;Node9 -->
<g id="edge42" class="edge"><title>Node2&#45;&gt;Node9</title>
<path fill="none" stroke="midnightblue" d="M229.131,-702.343C315.76,-699.761 488.763,-691.522 633,-665.5 646.299,-663.101 660.755,-659.21 672.865,-655.572"/>
<polygon fill="midnightblue" stroke="midnightblue" points="228.899,-698.848 219.002,-702.63 229.098,-705.845 228.899,-698.848"/>
</g>
<!-- Node23 -->
<g id="node23" class="node"><title>Node23</title>
<g id="a_node23"><a xlink:href="../../da/d29/lauxlib_8h.html#ab8f18fe563cab9ea411ae84d2c1c2518" target="_top" xlink:title="luaL_buffinitsize">
<polygon fill="none" stroke="black" points="255,-846 255,-865 338,-865 338,-846 255,-846"/>
<text text-anchor="middle" x="296.5" y="-853" font-family="Helvetica,sans-Serif" font-size="10.00">luaL_buffinitsize</text>
</a>
</g>
</g>
<!-- Node2&#45;&gt;Node23 -->
<g id="edge29" class="edge"><title>Node2&#45;&gt;Node23</title>
<path fill="none" stroke="midnightblue" d="M188.079,-721.113C213.889,-753.403 267.961,-821.048 287.903,-845.995"/>
<polygon fill="midnightblue" stroke="midnightblue" points="190.578,-718.634 181.6,-713.008 185.11,-723.005 190.578,-718.634"/>
</g>
<!-- Node29 -->
<g id="node29" class="node"><title>Node29</title>
<g id="a_node29"><a xlink:href="../../de/df3/liolib_8c.html#a48a16089fed2e802a76635a3f8bfe8e3" target="_top" xlink:title="read_all">
<polygon fill="none" stroke="black" points="271.5,-713 271.5,-732 321.5,-732 321.5,-713 271.5,-713"/>
<text text-anchor="middle" x="296.5" y="-720" font-family="Helvetica,sans-Serif" font-size="10.00">read_all</text>
</a>
</g>
</g>
<!-- Node2&#45;&gt;Node29 -->
<g id="edge35" class="edge"><title>Node2&#45;&gt;Node29</title>
<path fill="none" stroke="midnightblue" d="M229.34,-712.154C244.088,-714.46 259.264,-716.833 271.355,-718.724"/>
<polygon fill="midnightblue" stroke="midnightblue" points="229.663,-708.662 219.242,-710.575 228.581,-715.578 229.663,-708.662"/>
</g>
<!-- Node34 -->
<g id="node34" class="node"><title>Node34</title>
<g id="a_node34"><a xlink:href="../../de/df3/liolib_8c.html#a6735c0513432f83bfa1b88b056ab379b" target="_top" xlink:title="read_chars">
<polygon fill="none" stroke="black" points="264.5,-751 264.5,-770 328.5,-770 328.5,-751 264.5,-751"/>
<text text-anchor="middle" x="296.5" y="-758" font-family="Helvetica,sans-Serif" font-size="10.00">read_chars</text>
</a>
</g>
</g>
<!-- Node2&#45;&gt;Node34 -->
<g id="edge40" class="edge"><title>Node2&#45;&gt;Node34</title>
<path fill="none" stroke="midnightblue" d="M203.623,-717.397C225.791,-727.797 255.537,-741.752 275.097,-750.928"/>
<polygon fill="midnightblue" stroke="midnightblue" points="204.876,-714.119 194.336,-713.041 201.903,-720.456 204.876,-714.119"/>
</g>
<!-- Node4 -->
<g id="node4" class="node"><title>Node4</title>
<g id="a_node4"><a xlink:href="../../dc/d77/lstrlib_8c.html#ad5f7e3fbcadc8825f7f650ecf458fc72" target="_top" xlink:title="add_s">
<polygon fill="none" stroke="black" points="554,-523 554,-542 598,-542 598,-523 554,-523"/>
<text text-anchor="middle" x="576" y="-530" font-family="Helvetica,sans-Serif" font-size="10.00">add_s</text>
</a>
</g>
</g>
<!-- Node3&#45;&gt;Node4 -->
<g id="edge3" class="edge"><title>Node3&#45;&gt;Node4</title>
<path fill="none" stroke="midnightblue" d="M346.87,-532.5C408.083,-532.5 509.706,-532.5 553.659,-532.5"/>
<polygon fill="midnightblue" stroke="midnightblue" points="346.67,-529 336.67,-532.5 346.67,-536 346.67,-529"/>
</g>
<!-- Node6 -->
<g id="node6" class="node"><title>Node6</title>
<g id="a_node6"><a xlink:href="../../dc/d77/lstrlib_8c.html#a42337c674d265175bcc2b2f3809c7339" target="_top" xlink:title="str_gsub">
<polygon fill="none" stroke="black" points="770,-618 770,-637 823,-637 823,-618 770,-618"/>
<text text-anchor="middle" x="796.5" y="-625" font-family="Helvetica,sans-Serif" font-size="10.00">str_gsub</text>
</a>
</g>
</g>
<!-- Node3&#45;&gt;Node6 -->
<g id="edge25" class="edge"><title>Node3&#45;&gt;Node6</title>
<path fill="none" stroke="midnightblue" d="M307.569,-551.18C320.214,-572.836 343.942,-608.039 374,-627.5 429.923,-663.707 452.926,-656.986 519,-665.5 613.772,-677.712 642.08,-691.607 734,-665.5 753.317,-660.013 772.511,-646.541 784.191,-637.209"/>
<polygon fill="midnightblue" stroke="midnightblue" points="310.516,-549.281 302.556,-542.289 304.419,-552.718 310.516,-549.281"/>
</g>
<!-- Node7 -->
<g id="node7" class="node"><title>Node7</title>
<g id="a_node7"><a xlink:href="../../da/d29/lauxlib_8h.html#ad9c038f6e108e216011aca1801f84f44" target="_top" xlink:title="luaL_addstring">
<polygon fill="none" stroke="black" points="389.5,-599 389.5,-618 467.5,-618 467.5,-599 389.5,-599"/>
<text text-anchor="middle" x="428.5" y="-606" font-family="Helvetica,sans-Serif" font-size="10.00">luaL_addstring</text>
</a>
</g>
</g>
<!-- Node3&#45;&gt;Node7 -->
<g id="edge6" class="edge"><title>Node3&#45;&gt;Node7</title>
<path fill="none" stroke="midnightblue" d="M318.155,-548C333.201,-558.923 354.31,-573.503 374,-584.5 383.51,-589.811 394.416,-594.875 403.891,-598.971"/>
<polygon fill="midnightblue" stroke="midnightblue" points="320.185,-545.148 310.054,-542.046 316.039,-550.788 320.185,-545.148"/>
</g>
<!-- Node10 -->
<g id="node10" class="node"><title>Node10</title>
<g id="a_node10"><a xlink:href="../../da/d29/lauxlib_8h.html#a46672be75da57e1a464c5c6d80f19064" target="_top" xlink:title="luaL_gsub">
<polygon fill="none" stroke="black" points="545,-561 545,-580 607,-580 607,-561 545,-561"/>
<text text-anchor="middle" x="576" y="-568" font-family="Helvetica,sans-Serif" font-size="10.00">luaL_gsub</text>
</a>
</g>
</g>
<!-- Node3&#45;&gt;Node10 -->
<g id="edge23" class="edge"><title>Node3&#45;&gt;Node10</title>
<path fill="none" stroke="midnightblue" d="M346.759,-541.98C355.803,-543.588 365.173,-545.167 374,-546.5 434.464,-555.633 505.592,-563.439 544.954,-567.502"/>
<polygon fill="midnightblue" stroke="midnightblue" points="347.196,-538.503 336.732,-540.164 345.948,-545.39 347.196,-538.503"/>
</g>
<!-- Node15 -->
<g id="node15" class="node"><title>Node15</title>
<g id="a_node15"><a xlink:href="../../da/d29/lauxlib_8h.html#aeeb03d69681da0ec0e952b582ce3841c" target="_top" xlink:title="luaL_addvalue">
<polygon fill="none" stroke="black" points="388.5,-485 388.5,-504 468.5,-504 468.5,-485 388.5,-485"/>
<text text-anchor="middle" x="428.5" y="-492" font-family="Helvetica,sans-Serif" font-size="10.00">luaL_addvalue</text>
</a>
</g>
</g>
<!-- Node3&#45;&gt;Node15 -->
<g id="edge14" class="edge"><title>Node3&#45;&gt;Node15</title>
<path fill="none" stroke="midnightblue" d="M340.384,-519.965C358.069,-514.795 378.234,-508.901 394.706,-504.086"/>
<polygon fill="midnightblue" stroke="midnightblue" points="338.921,-516.746 330.304,-522.911 340.885,-523.465 338.921,-516.746"/>
</g>
<!-- Node17 -->
<g id="node17" class="node"><title>Node17</title>
<g id="a_node17"><a xlink:href="../../d0/da1/ltablib_8c.html#add6973c515a288f41265aca8e0ae6412" target="_top" xlink:title="tconcat">
<polygon fill="none" stroke="black" points="678,-352 678,-371 725,-371 725,-352 678,-352"/>
<text text-anchor="middle" x="701.5" y="-359" font-family="Helvetica,sans-Serif" font-size="10.00">tconcat</text>
</a>
</g>
</g>
<!-- Node3&#45;&gt;Node17 -->
<g id="edge26" class="edge"><title>Node3&#45;&gt;Node17</title>
<path fill="none" stroke="midnightblue" d="M312.38,-514.992C345.147,-477.965 427.906,-392.572 519,-361.5 573.577,-342.884 642.872,-350.883 677.955,-356.959"/>
<polygon fill="midnightblue" stroke="midnightblue" points="309.411,-513.072 305.484,-522.912 314.69,-517.669 309.411,-513.072"/>
</g>
<!-- Node20 -->
<g id="node20" class="node"><title>Node20</title>
<g id="a_node20"><a xlink:href="../../dc/dba/loslib_8c.html#a6520f2562b500aee87a6a475995adefb" target="_top" xlink:title="os_date">
<polygon fill="none" stroke="black" points="403,-257 403,-276 454,-276 454,-257 403,-257"/>
<text text-anchor="middle" x="428.5" y="-264" font-family="Helvetica,sans-Serif" font-size="10.00">os_date</text>
</a>
</g>
</g>
<!-- Node3&#45;&gt;Node20 -->
<g id="edge24" class="edge"><title>Node3&#45;&gt;Node20</title>
<path fill="none" stroke="midnightblue" d="M297.896,-512.824C299.89,-466.76 311.237,-350.883 374,-285.5 381.576,-277.607 392.641,-272.987 402.744,-270.285"/>
<polygon fill="midnightblue" stroke="midnightblue" points="294.394,-512.848 297.566,-522.957 301.39,-513.077 294.394,-512.848"/>
</g>
<!-- Node21 -->
<g id="node21" class="node"><title>Node21</title>
<g id="a_node21"><a xlink:href="../../dc/d77/lstrlib_8c.html#ae67cb3a8aef2fe1be04d689cddf5d587" target="_top" xlink:title="writer">
<polygon fill="none" stroke="black" points="409.5,-295 409.5,-314 447.5,-314 447.5,-295 409.5,-295"/>
<text text-anchor="middle" x="428.5" y="-302" font-family="Helvetica,sans-Serif" font-size="10.00">writer</text>
</a>
</g>
</g>
<!-- Node3&#45;&gt;Node21 -->
<g id="edge27" class="edge"><title>Node3&#45;&gt;Node21</title>
<path fill="none" stroke="midnightblue" d="M299.844,-512.548C305.517,-472.666 323.461,-382.323 374,-328.5 383.407,-318.481 397.771,-312.355 409.247,-308.802"/>
<polygon fill="midnightblue" stroke="midnightblue" points="296.357,-512.224 298.527,-522.594 303.297,-513.133 296.357,-512.224"/>
</g>
<!-- Node5 -->
<g id="node5" class="node"><title>Node5</title>
<g id="a_node5"><a xlink:href="../../dc/d77/lstrlib_8c.html#ad24cfa73e5ad25ec99a1b48f0916471e" target="_top" xlink:title="add_value">
<polygon fill="none" stroke="black" points="670.5,-523 670.5,-542 732.5,-542 732.5,-523 670.5,-523"/>
<text text-anchor="middle" x="701.5" y="-530" font-family="Helvetica,sans-Serif" font-size="10.00">add_value</text>
</a>
</g>
</g>
<!-- Node4&#45;&gt;Node5 -->
<g id="edge4" class="edge"><title>Node4&#45;&gt;Node5</title>
<path fill="none" stroke="midnightblue" d="M608.472,-532.5C627.469,-532.5 651.546,-532.5 670.308,-532.5"/>
<polygon fill="midnightblue" stroke="midnightblue" points="608.23,-529 598.23,-532.5 608.23,-536 608.23,-529"/>
</g>
<!-- Node5&#45;&gt;Node6 -->
<g id="edge5" class="edge"><title>Node5&#45;&gt;Node6</title>
<path fill="none" stroke="midnightblue" d="M729.306,-547.747C730.94,-548.956 732.519,-550.21 734,-551.5 757.549,-572.013 779.017,-602.301 789.231,-617.714"/>
<polygon fill="midnightblue" stroke="midnightblue" points="731.161,-544.778 720.902,-542.133 727.273,-550.598 731.161,-544.778"/>
</g>
<!-- Node8 -->
<g id="node8" class="node"><title>Node8</title>
<g id="a_node8"><a xlink:href="../../dc/d77/lstrlib_8c.html#a95c31911812b88f7c4ab6ceb63a1e1e8" target="_top" xlink:title="addquoted">
<polygon fill="none" stroke="black" points="545,-637 545,-656 607,-656 607,-637 545,-637"/>
<text text-anchor="middle" x="576" y="-644" font-family="Helvetica,sans-Serif" font-size="10.00">addquoted</text>
</a>
</g>
</g>
<!-- Node7&#45;&gt;Node8 -->
<g id="edge7" class="edge"><title>Node7&#45;&gt;Node8</title>
<path fill="none" stroke="midnightblue" d="M475.914,-620.622C498.412,-626.498 524.793,-633.387 544.676,-638.58"/>
<polygon fill="midnightblue" stroke="midnightblue" points="476.776,-617.23 466.216,-618.089 475.007,-624.002 476.776,-617.23"/>
</g>
<!-- Node7&#45;&gt;Node10 -->
<g id="edge9" class="edge"><title>Node7&#45;&gt;Node10</title>
<path fill="none" stroke="midnightblue" d="M475.914,-596.378C498.412,-590.502 524.793,-583.613 544.676,-578.42"/>
<polygon fill="midnightblue" stroke="midnightblue" points="475.007,-592.998 466.216,-598.911 476.776,-599.77 475.007,-592.998"/>
</g>
<!-- Node8&#45;&gt;Node9 -->
<g id="edge8" class="edge"><title>Node8&#45;&gt;Node9</title>
<path fill="none" stroke="midnightblue" d="M617.231,-646.5C635.375,-646.5 656.352,-646.5 672.712,-646.5"/>
<polygon fill="midnightblue" stroke="midnightblue" points="617.212,-643 607.211,-646.5 617.211,-650 617.212,-643"/>
</g>
<!-- Node11 -->
<g id="node11" class="node"><title>Node11</title>
<g id="a_node11"><a xlink:href="../../d2/d82/loadlib_8c.html#a91ac5b5231cf039af46226806dcc3884" target="_top" xlink:title="loadfunc">
<polygon fill="none" stroke="red" points="675.5,-599 675.5,-618 727.5,-618 727.5,-599 675.5,-599"/>
<text text-anchor="middle" x="701.5" y="-606" font-family="Helvetica,sans-Serif" font-size="10.00">loadfunc</text>
</a>
</g>
</g>
<!-- Node10&#45;&gt;Node11 -->
<g id="edge10" class="edge"><title>Node10&#45;&gt;Node11</title>
<path fill="none" stroke="midnightblue" d="M616.884,-582.772C636.031,-588.663 658.399,-595.546 675.18,-600.709"/>
<polygon fill="midnightblue" stroke="midnightblue" points="617.799,-579.392 607.211,-579.796 615.74,-586.082 617.799,-579.392"/>
</g>
<!-- Node12 -->
<g id="node12" class="node"><title>Node12</title>
<g id="a_node12"><a xlink:href="../../d2/d82/loadlib_8c.html#a9aa5433859d896c2db1a7af366e04b65" target="_top" xlink:title="searchpath">
<polygon fill="none" stroke="red" points="669,-466 669,-485 734,-485 734,-466 669,-466"/>
<text text-anchor="middle" x="701.5" y="-473" font-family="Helvetica,sans-Serif" font-size="10.00">searchpath</text>
</a>
</g>
</g>
<!-- Node10&#45;&gt;Node12 -->
<g id="edge11" class="edge"><title>Node10&#45;&gt;Node12</title>
<path fill="none" stroke="midnightblue" d="M616.687,-559.928C622.393,-557.596 628.013,-554.809 633,-551.5 640.205,-546.719 675.945,-504.709 692.302,-485.28"/>
<polygon fill="midnightblue" stroke="midnightblue" points="615.291,-556.712 607.101,-563.433 617.694,-563.286 615.291,-556.712"/>
</g>
<!-- Node14 -->
<g id="node14" class="node"><title>Node14</title>
<g id="a_node14"><a xlink:href="../../d2/d82/loadlib_8c.html#ab1293c9ab0fa766bfa927767d6ae543c" target="_top" xlink:title="setpath">
<polygon fill="none" stroke="red" points="677,-561 677,-580 726,-580 726,-561 677,-561"/>
<text text-anchor="middle" x="701.5" y="-568" font-family="Helvetica,sans-Serif" font-size="10.00">setpath</text>
</a>
</g>
</g>
<!-- Node10&#45;&gt;Node14 -->
<g id="edge13" class="edge"><title>Node10&#45;&gt;Node14</title>
<path fill="none" stroke="midnightblue" d="M617.43,-570.5C637.073,-570.5 659.997,-570.5 676.782,-570.5"/>
<polygon fill="midnightblue" stroke="midnightblue" points="617.212,-567 607.211,-570.5 617.211,-574 617.212,-567"/>
</g>
<!-- Node13 -->
<g id="node13" class="node"><title>Node13</title>
<g id="a_node13"><a xlink:href="../../d2/d82/loadlib_8c.html#af8f7333f1a59f3d7aab8c9b79b7a4ab2" target="_top" xlink:title="findfile">
<polygon fill="none" stroke="red" points="776,-466 776,-485 817,-485 817,-466 776,-466"/>
<text text-anchor="middle" x="796.5" y="-473" font-family="Helvetica,sans-Serif" font-size="10.00">findfile</text>
</a>
</g>
</g>
<!-- Node12&#45;&gt;Node13 -->
<g id="edge12" class="edge"><title>Node12&#45;&gt;Node13</title>
<path fill="none" stroke="midnightblue" d="M744.522,-475.5C755.43,-475.5 766.67,-475.5 775.81,-475.5"/>
<polygon fill="midnightblue" stroke="midnightblue" points="744.245,-472 734.245,-475.5 744.245,-479 744.245,-472"/>
</g>
<!-- Node15&#45;&gt;Node4 -->
<g id="edge15" class="edge"><title>Node15&#45;&gt;Node4</title>
<path fill="none" stroke="midnightblue" d="M475.923,-506.624C502.005,-513.436 533.306,-521.611 553.648,-526.924"/>
<polygon fill="midnightblue" stroke="midnightblue" points="476.776,-503.23 466.216,-504.089 475.007,-510.002 476.776,-503.23"/>
</g>
<!-- Node15&#45;&gt;Node5 -->
<g id="edge16" class="edge"><title>Node15&#45;&gt;Node5</title>
<path fill="none" stroke="midnightblue" d="M478.906,-496.604C520.331,-498.966 580.9,-503.818 633,-513.5 645.568,-515.836 659.181,-519.452 670.869,-522.905"/>
<polygon fill="midnightblue" stroke="midnightblue" points="478.978,-493.103 468.803,-496.056 478.599,-500.093 478.978,-493.103"/>
</g>
<!-- Node15&#45;&gt;Node9 -->
<g id="edge22" class="edge"><title>Node15&#45;&gt;Node9</title>
<path fill="none" stroke="midnightblue" d="M441.792,-512.301C457.389,-533.606 486.237,-568.971 519,-589.5 532.259,-597.808 625.341,-625.049 672.805,-638.641"/>
<polygon fill="midnightblue" stroke="midnightblue" points="444.606,-510.218 435.945,-504.115 438.909,-514.287 444.606,-510.218"/>
</g>
<!-- Node15&#45;&gt;Node12 -->
<g id="edge21" class="edge"><title>Node15&#45;&gt;Node12</title>
<path fill="none" stroke="midnightblue" d="M478.767,-485.639C491.807,-483.61 505.901,-481.7 519,-480.5 571.423,-475.698 632.688,-475.033 668.95,-475.151"/>
<polygon fill="midnightblue" stroke="midnightblue" points="477.891,-482.235 468.575,-487.279 479.004,-489.146 477.891,-482.235"/>
</g>
<!-- Node16 -->
<g id="node16" class="node"><title>Node16</title>
<g id="a_node16"><a xlink:href="../../d0/da1/ltablib_8c.html#a4ea6cc51c099ea709c7755a49216f4d0" target="_top" xlink:title="addfield">
<polygon fill="none" stroke="black" points="551.5,-371 551.5,-390 600.5,-390 600.5,-371 551.5,-371"/>
<text text-anchor="middle" x="576" y="-378" font-family="Helvetica,sans-Serif" font-size="10.00">addfield</text>
</a>
</g>
</g>
<!-- Node15&#45;&gt;Node16 -->
<g id="edge17" class="edge"><title>Node15&#45;&gt;Node16</title>
<path fill="none" stroke="midnightblue" d="M441.87,-476.824C457.547,-455.642 486.474,-420.401 519,-399.5 528.76,-393.228 540.815,-388.791 551.237,-385.792"/>
<polygon fill="midnightblue" stroke="midnightblue" points="439.013,-474.803 435.991,-484.958 444.686,-478.903 439.013,-474.803"/>
</g>
<!-- Node18 -->
<g id="node18" class="node"><title>Node18</title>
<g id="a_node18"><a xlink:href="../../d2/d82/loadlib_8c.html#aeea4101591c7cab25273f4dfe7d811d6" target="_top" xlink:title="findloader">
<polygon fill="none" stroke="black" points="548,-409 548,-428 604,-428 604,-409 548,-409"/>
<text text-anchor="middle" x="576" y="-416" font-family="Helvetica,sans-Serif" font-size="10.00">findloader</text>
</a>
</g>
</g>
<!-- Node15&#45;&gt;Node18 -->
<g id="edge19" class="edge"><title>Node15&#45;&gt;Node18</title>
<path fill="none" stroke="midnightblue" d="M453.293,-479.613C471.081,-468.747 496.165,-453.974 519,-442.5 529.302,-437.324 540.984,-432.204 551.002,-428.032"/>
<polygon fill="midnightblue" stroke="midnightblue" points="451.387,-476.676 444.707,-484.901 455.058,-482.637 451.387,-476.676"/>
</g>
<!-- Node16&#45;&gt;Node17 -->
<g id="edge18" class="edge"><title>Node16&#45;&gt;Node17</title>
<path fill="none" stroke="midnightblue" d="M610.495,-375.347C631.885,-372.056 659.04,-367.878 677.901,-364.977"/>
<polygon fill="midnightblue" stroke="midnightblue" points="609.872,-371.902 600.52,-376.882 610.936,-378.82 609.872,-371.902"/>
</g>
<!-- Node19 -->
<g id="node19" class="node"><title>Node19</title>
<g id="a_node19"><a xlink:href="../../d2/d82/loadlib_8c.html#a136874f5faa236dc52fb50109281e157" target="_top" xlink:title="ll_require">
<polygon fill="none" stroke="black" points="675.5,-409 675.5,-428 727.5,-428 727.5,-409 675.5,-409"/>
<text text-anchor="middle" x="701.5" y="-416" font-family="Helvetica,sans-Serif" font-size="10.00">ll_require</text>
</a>
</g>
</g>
<!-- Node18&#45;&gt;Node19 -->
<g id="edge20" class="edge"><title>Node18&#45;&gt;Node19</title>
<path fill="none" stroke="midnightblue" d="M614.273,-418.5C633.957,-418.5 657.6,-418.5 675.146,-418.5"/>
<polygon fill="midnightblue" stroke="midnightblue" points="614.103,-415 604.103,-418.5 614.103,-422 614.103,-415"/>
</g>
<!-- Node22 -->
<g id="node22" class="node"><title>Node22</title>
<g id="a_node22"><a xlink:href="../../dc/d77/lstrlib_8c.html#abc94e3a13f1b6ddb2c9b20c9fd89e87f" target="_top" xlink:title="str_dump">
<polygon fill="none" stroke="black" points="548,-295 548,-314 604,-314 604,-295 548,-295"/>
<text text-anchor="middle" x="576" y="-302" font-family="Helvetica,sans-Serif" font-size="10.00">str_dump</text>
</a>
</g>
</g>
<!-- Node21&#45;&gt;Node22 -->
<g id="edge28" class="edge"><title>Node21&#45;&gt;Node22</title>
<path fill="none" stroke="midnightblue" d="M457.635,-304.5C483.709,-304.5 522.237,-304.5 547.956,-304.5"/>
<polygon fill="midnightblue" stroke="midnightblue" points="457.634,-301 447.633,-304.5 457.633,-308 457.634,-301"/>
</g>
<!-- Node24 -->
<g id="node24" class="node"><title>Node24</title>
<g id="a_node24"><a xlink:href="../../dc/d77/lstrlib_8c.html#a3f7db8b2258dca5459ad52d2cbf9f28c" target="_top" xlink:title="str_char">
<polygon fill="none" stroke="black" points="403.5,-941 403.5,-960 453.5,-960 453.5,-941 403.5,-941"/>
<text text-anchor="middle" x="428.5" y="-948" font-family="Helvetica,sans-Serif" font-size="10.00">str_char</text>
</a>
</g>
</g>
<!-- Node23&#45;&gt;Node24 -->
<g id="edge30" class="edge"><title>Node23&#45;&gt;Node24</title>
<path fill="none" stroke="midnightblue" d="M311.211,-873.059C325.326,-890.09 348.768,-915.622 374,-931.5 382.926,-937.117 393.737,-941.358 403.298,-944.392"/>
<polygon fill="midnightblue" stroke="midnightblue" points="313.726,-870.603 304.719,-865.024 308.281,-875.002 313.726,-870.603"/>
</g>
<!-- Node25 -->
<g id="node25" class="node"><title>Node25</title>
<g id="a_node25"><a xlink:href="../../dc/d77/lstrlib_8c.html#ab2235f81205d0482d03c8ae456a98992" target="_top" xlink:title="str_lower">
<polygon fill="none" stroke="black" points="401.5,-903 401.5,-922 455.5,-922 455.5,-903 401.5,-903"/>
<text text-anchor="middle" x="428.5" y="-910" font-family="Helvetica,sans-Serif" font-size="10.00">str_lower</text>
</a>
</g>
</g>
<!-- Node23&#45;&gt;Node25 -->
<g id="edge31" class="edge"><title>Node23&#45;&gt;Node25</title>
<path fill="none" stroke="midnightblue" d="M324.087,-869.688C338.633,-877.2 357.089,-886.328 374,-893.5 382.802,-897.233 392.615,-900.865 401.408,-903.937"/>
<polygon fill="midnightblue" stroke="midnightblue" points="325.632,-866.546 315.147,-865.021 322.393,-872.752 325.632,-866.546"/>
</g>
<!-- Node26 -->
<g id="node26" class="node"><title>Node26</title>
<g id="a_node26"><a xlink:href="../../dc/d77/lstrlib_8c.html#acaee4c84f29e2ec7366728ca04d3569c" target="_top" xlink:title="str_rep">
<polygon fill="none" stroke="black" points="406,-865 406,-884 451,-884 451,-865 406,-865"/>
<text text-anchor="middle" x="428.5" y="-872" font-family="Helvetica,sans-Serif" font-size="10.00">str_rep</text>
</a>
</g>
</g>
<!-- Node23&#45;&gt;Node26 -->
<g id="edge32" class="edge"><title>Node23&#45;&gt;Node26</title>
<path fill="none" stroke="midnightblue" d="M348.202,-862.91C368.184,-865.831 390.061,-869.028 405.766,-871.324"/>
<polygon fill="midnightblue" stroke="midnightblue" points="348.677,-859.443 338.276,-861.46 347.665,-866.369 348.677,-859.443"/>
</g>
<!-- Node27 -->
<g id="node27" class="node"><title>Node27</title>
<g id="a_node27"><a xlink:href="../../dc/d77/lstrlib_8c.html#a4b2ffac60e817b9bfc54b32f8da3a6b4" target="_top" xlink:title="str_reverse">
<polygon fill="none" stroke="black" points="397.5,-827 397.5,-846 459.5,-846 459.5,-827 397.5,-827"/>
<text text-anchor="middle" x="428.5" y="-834" font-family="Helvetica,sans-Serif" font-size="10.00">str_reverse</text>
</a>
</g>
</g>
<!-- Node23&#45;&gt;Node27 -->
<g id="edge33" class="edge"><title>Node23&#45;&gt;Node27</title>
<path fill="none" stroke="midnightblue" d="M348.352,-848.068C364.865,-845.654 382.659,-843.054 397.185,-840.931"/>
<polygon fill="midnightblue" stroke="midnightblue" points="347.665,-844.631 338.276,-849.54 348.677,-851.557 347.665,-844.631"/>
</g>
<!-- Node28 -->
<g id="node28" class="node"><title>Node28</title>
<g id="a_node28"><a xlink:href="../../dc/d77/lstrlib_8c.html#a38ed99b74af58070449ca344a7351f6a" target="_top" xlink:title="str_upper">
<polygon fill="none" stroke="black" points="400.5,-789 400.5,-808 456.5,-808 456.5,-789 400.5,-789"/>
<text text-anchor="middle" x="428.5" y="-796" font-family="Helvetica,sans-Serif" font-size="10.00">str_upper</text>
</a>
</g>
</g>
<!-- Node23&#45;&gt;Node28 -->
<g id="edge34" class="edge"><title>Node23&#45;&gt;Node28</title>
<path fill="none" stroke="midnightblue" d="M324.087,-841.312C338.633,-833.8 357.089,-824.672 374,-817.5 382.439,-813.921 391.807,-810.435 400.315,-807.446"/>
<polygon fill="midnightblue" stroke="midnightblue" points="322.393,-838.248 315.147,-845.979 325.632,-844.454 322.393,-838.248"/>
</g>
<!-- Node30 -->
<g id="node30" class="node"><title>Node30</title>
<g id="a_node30"><a xlink:href="../../de/df3/liolib_8c.html#addece2406777a40f0f591e3518293932" target="_top" xlink:title="g_read">
<polygon fill="none" stroke="black" points="405.5,-751 405.5,-770 451.5,-770 451.5,-751 405.5,-751"/>
<text text-anchor="middle" x="428.5" y="-758" font-family="Helvetica,sans-Serif" font-size="10.00">g_read</text>
</a>
</g>
</g>
<!-- Node29&#45;&gt;Node30 -->
<g id="edge36" class="edge"><title>Node29&#45;&gt;Node30</title>
<path fill="none" stroke="midnightblue" d="M331.469,-732.43C354.743,-739.233 384.952,-748.063 405.218,-753.987"/>
<polygon fill="midnightblue" stroke="midnightblue" points="332.228,-729.005 321.647,-729.558 330.264,-735.724 332.228,-729.005"/>
</g>
<!-- Node31 -->
<g id="node31" class="node"><title>Node31</title>
<g id="a_node31"><a xlink:href="../../de/df3/liolib_8c.html#add5250a74576076467531e4eb8f5f68e" target="_top" xlink:title="f_read">
<polygon fill="none" stroke="black" points="554.5,-789 554.5,-808 597.5,-808 597.5,-789 554.5,-789"/>
<text text-anchor="middle" x="576" y="-796" font-family="Helvetica,sans-Serif" font-size="10.00">f_read</text>
</a>
</g>
</g>
<!-- Node30&#45;&gt;Node31 -->
<g id="edge37" class="edge"><title>Node30&#45;&gt;Node31</title>
<path fill="none" stroke="midnightblue" d="M461.38,-768.826C489.56,-776.186 529.851,-786.709 554.112,-793.045"/>
<polygon fill="midnightblue" stroke="midnightblue" points="462.158,-765.412 451.598,-766.271 460.389,-772.185 462.158,-765.412"/>
</g>
<!-- Node32 -->
<g id="node32" class="node"><title>Node32</title>
<g id="a_node32"><a xlink:href="../../de/df3/liolib_8c.html#a45307aa59a628966c6ea270e9b476d9a" target="_top" xlink:title="io_read">
<polygon fill="none" stroke="black" points="552.5,-751 552.5,-770 599.5,-770 599.5,-751 552.5,-751"/>
<text text-anchor="middle" x="576" y="-758" font-family="Helvetica,sans-Serif" font-size="10.00">io_read</text>
</a>
</g>
</g>
<!-- Node30&#45;&gt;Node32 -->
<g id="edge38" class="edge"><title>Node30&#45;&gt;Node32</title>
<path fill="none" stroke="midnightblue" d="M461.869,-760.5C489.298,-760.5 527.935,-760.5 552.213,-760.5"/>
<polygon fill="midnightblue" stroke="midnightblue" points="461.598,-757 451.598,-760.5 461.598,-764 461.598,-757"/>
</g>
<!-- Node33 -->
<g id="node33" class="node"><title>Node33</title>
<g id="a_node33"><a xlink:href="../../de/df3/liolib_8c.html#ac37d80ee2cc364b4adafcb6f7c20f28b" target="_top" xlink:title="io_readline">
<polygon fill="none" stroke="red" points="545.5,-827 545.5,-846 606.5,-846 606.5,-827 545.5,-827"/>
<text text-anchor="middle" x="576" y="-834" font-family="Helvetica,sans-Serif" font-size="10.00">io_readline</text>
</a>
</g>
</g>
<!-- Node30&#45;&gt;Node33 -->
<g id="edge39" class="edge"><title>Node30&#45;&gt;Node33</title>
<path fill="none" stroke="midnightblue" d="M461.231,-768.999C468.695,-771.735 476.394,-775.202 483,-779.5 502.5,-792.188 499.411,-804.95 519,-817.5 526.953,-822.595 536.422,-826.482 545.291,-829.371"/>
<polygon fill="midnightblue" stroke="midnightblue" points="462.258,-765.653 451.665,-765.816 460.048,-772.295 462.258,-765.653"/>
</g>
<!-- Node34&#45;&gt;Node30 -->
<g id="edge41" class="edge"><title>Node34&#45;&gt;Node30</title>
<path fill="none" stroke="midnightblue" d="M338.727,-760.5C360.73,-760.5 386.949,-760.5 405.163,-760.5"/>
<polygon fill="midnightblue" stroke="midnightblue" points="338.638,-757 328.638,-760.5 338.638,-764 338.638,-757"/>
</g>
<!-- Node36 -->
<g id="node36" class="node"><title>Node36</title>
<g id="a_node36"><a xlink:href="../../de/df3/liolib_8c.html#a0a80ad2f9dbb3b7238efae7738bb7569" target="_top" xlink:title="createstdfile">
<polygon fill="none" stroke="black" points="264,-219 264,-238 329,-238 329,-219 264,-219"/>
<text text-anchor="middle" x="296.5" y="-226" font-family="Helvetica,sans-Serif" font-size="10.00">createstdfile</text>
</a>
</g>
</g>
<!-- Node35&#45;&gt;Node36 -->
<g id="edge44" class="edge"><title>Node35&#45;&gt;Node36</title>
<path fill="none" stroke="midnightblue" d="M212.387,-202.506C229.29,-207.792 248.877,-213.918 264.789,-218.895"/>
<polygon fill="midnightblue" stroke="midnightblue" points="213.383,-199.15 202.794,-199.505 211.293,-205.831 213.383,-199.15"/>
</g>
<!-- Node38 -->
<g id="node38" class="node"><title>Node38</title>
<g id="a_node38"><a xlink:href="../../de/df3/liolib_8c.html#a8cc0b2b08409fb97e5cc80a0caf9b5fd" target="_top" xlink:title="io_popen">
<polygon fill="none" stroke="black" points="268.5,-181 268.5,-200 324.5,-200 324.5,-181 268.5,-181"/>
<text text-anchor="middle" x="296.5" y="-188" font-family="Helvetica,sans-Serif" font-size="10.00">io_popen</text>
</a>
</g>
</g>
<!-- Node35&#45;&gt;Node38 -->
<g id="edge46" class="edge"><title>Node35&#45;&gt;Node38</title>
<path fill="none" stroke="midnightblue" d="M212.987,-190.5C230.973,-190.5 251.89,-190.5 268.164,-190.5"/>
<polygon fill="midnightblue" stroke="midnightblue" points="212.794,-187 202.794,-190.5 212.794,-194 212.794,-187"/>
</g>
<!-- Node39 -->
<g id="node39" class="node"><title>Node39</title>
<g id="a_node39"><a xlink:href="../../de/df3/liolib_8c.html#a57c6c258a611b738f0ef34584ca6e7ab" target="_top" xlink:title="newfile">
<polygon fill="none" stroke="black" points="273.5,-143 273.5,-162 319.5,-162 319.5,-143 273.5,-143"/>
<text text-anchor="middle" x="296.5" y="-150" font-family="Helvetica,sans-Serif" font-size="10.00">newfile</text>
</a>
</g>
</g>
<!-- Node35&#45;&gt;Node39 -->
<g id="edge47" class="edge"><title>Node35&#45;&gt;Node39</title>
<path fill="none" stroke="midnightblue" d="M212.587,-178.432C232.641,-172.16 256.428,-164.72 273.37,-159.421"/>
<polygon fill="midnightblue" stroke="midnightblue" points="211.293,-175.169 202.794,-181.495 213.383,-181.85 211.293,-175.169"/>
</g>
<!-- Node37 -->
<g id="node37" class="node"><title>Node37</title>
<g id="a_node37"><a xlink:href="../../d6/d07/lualib_8h.html#a686b841d953f3113ddc7538d69debce7" target="_top" xlink:title="luaopen_io">
<polygon fill="none" stroke="black" points="397,-219 397,-238 460,-238 460,-219 397,-219"/>
<text text-anchor="middle" x="428.5" y="-226" font-family="Helvetica,sans-Serif" font-size="10.00">luaopen_io</text>
</a>
</g>
</g>
<!-- Node36&#45;&gt;Node37 -->
<g id="edge45" class="edge"><title>Node36&#45;&gt;Node37</title>
<path fill="none" stroke="midnightblue" d="M339.354,-228.5C358.079,-228.5 379.752,-228.5 396.922,-228.5"/>
<polygon fill="midnightblue" stroke="midnightblue" points="339.302,-225 329.302,-228.5 339.302,-232 339.302,-225"/>
</g>
<!-- Node40 -->
<g id="node40" class="node"><title>Node40</title>
<g id="a_node40"><a xlink:href="../../de/df3/liolib_8c.html#ab4a969d43dbe0f89e98307e5b421f8a7" target="_top" xlink:title="io_open">
<polygon fill="none" stroke="black" points="403.5,-143 403.5,-162 453.5,-162 453.5,-143 403.5,-143"/>
<text text-anchor="middle" x="428.5" y="-150" font-family="Helvetica,sans-Serif" font-size="10.00">io_open</text>
</a>
</g>
</g>
<!-- Node39&#45;&gt;Node40 -->
<g id="edge48" class="edge"><title>Node39&#45;&gt;Node40</title>
<path fill="none" stroke="midnightblue" d="M329.735,-152.5C352.448,-152.5 382.389,-152.5 403.124,-152.5"/>
<polygon fill="midnightblue" stroke="midnightblue" points="329.553,-149 319.553,-152.5 329.553,-156 329.553,-149"/>
</g>
<!-- Node41 -->
<g id="node41" class="node"><title>Node41</title>
<g id="a_node41"><a xlink:href="../../de/df3/liolib_8c.html#a0347de9dda8be02044075c96482eddb3" target="_top" xlink:title="io_tmpfile">
<polygon fill="none" stroke="black" points="401,-105 401,-124 456,-124 456,-105 401,-105"/>
<text text-anchor="middle" x="428.5" y="-112" font-family="Helvetica,sans-Serif" font-size="10.00">io_tmpfile</text>
</a>
</g>
</g>
<!-- Node39&#45;&gt;Node41 -->
<g id="edge49" class="edge"><title>Node39&#45;&gt;Node41</title>
<path fill="none" stroke="midnightblue" d="M329.398,-143.176C351.332,-136.764 380.125,-128.348 400.837,-122.294"/>
<polygon fill="midnightblue" stroke="midnightblue" points="328.169,-139.889 319.553,-146.054 330.133,-146.607 328.169,-139.889"/>
</g>
<!-- Node42 -->
<g id="node42" class="node"><title>Node42</title>
<g id="a_node42"><a xlink:href="../../de/df3/liolib_8c.html#a91ec9c6fa0ef33085f29a15532ac80a7" target="_top" xlink:title="opencheck">
<polygon fill="none" stroke="black" points="397.5,-181 397.5,-200 459.5,-200 459.5,-181 397.5,-181"/>
<text text-anchor="middle" x="428.5" y="-188" font-family="Helvetica,sans-Serif" font-size="10.00">opencheck</text>
</a>
</g>
</g>
<!-- Node39&#45;&gt;Node42 -->
<g id="edge50" class="edge"><title>Node39&#45;&gt;Node42</title>
<path fill="none" stroke="midnightblue" d="M329.425,-161.832C350.044,-167.859 376.716,-175.655 397.039,-181.596"/>
<polygon fill="midnightblue" stroke="midnightblue" points="330.133,-158.392 319.553,-158.946 328.169,-165.111 330.133,-158.392"/>
</g>
<!-- Node43 -->
<g id="node43" class="node"><title>Node43</title>
<g id="a_node43"><a xlink:href="../../de/df3/liolib_8c.html#aae942558ff528b4e1a483297c64e6886" target="_top" xlink:title="g_iofile">
<polygon fill="none" stroke="red" points="554,-209 554,-228 598,-228 598,-209 554,-209"/>
<text text-anchor="middle" x="576" y="-216" font-family="Helvetica,sans-Serif" font-size="10.00">g_iofile</text>
</a>
</g>
</g>
<!-- Node42&#45;&gt;Node43 -->
<g id="edge51" class="edge"><title>Node42&#45;&gt;Node43</title>
<path fill="none" stroke="midnightblue" d="M469.671,-198.231C496.919,-203.474 531.85,-210.196 553.836,-214.427"/>
<polygon fill="midnightblue" stroke="midnightblue" points="470.129,-194.754 459.648,-196.302 468.806,-201.628 470.129,-194.754"/>
</g>
<!-- Node44 -->
<g id="node44" class="node"><title>Node44</title>
<g id="a_node44"><a xlink:href="../../de/df3/liolib_8c.html#ab08031b51605d4ef676ec33a3b96a286" target="_top" xlink:title="io_lines">
<polygon fill="none" stroke="black" points="552.5,-171 552.5,-190 599.5,-190 599.5,-171 552.5,-171"/>
<text text-anchor="middle" x="576" y="-178" font-family="Helvetica,sans-Serif" font-size="10.00">io_lines</text>
</a>
</g>
</g>
<!-- Node42&#45;&gt;Node44 -->
<g id="edge52" class="edge"><title>Node42&#45;&gt;Node44</title>
<path fill="none" stroke="midnightblue" d="M469.84,-187.728C496.516,-185.894 530.501,-183.558 552.5,-182.046"/>
<polygon fill="midnightblue" stroke="midnightblue" points="469.384,-184.25 459.648,-188.428 469.864,-191.234 469.384,-184.25"/>
</g>
<!-- Node46 -->
<g id="node46" class="node"><title>Node46</title>
<g id="a_node46"><a xlink:href="../../d1/dc2/_kensho_lua_wrapper_8m.html#ad10bf0ff4feac9642e7477e282be41fe" target="_top" xlink:title="lookupKey">
<polygon fill="none" stroke="black" points="265.5,-83 265.5,-102 327.5,-102 327.5,-83 265.5,-83"/>
<text text-anchor="middle" x="296.5" y="-90" font-family="Helvetica,sans-Serif" font-size="10.00">lookupKey</text>
</a>
</g>
</g>
<!-- Node45&#45;&gt;Node46 -->
<g id="edge54" class="edge"><title>Node45&#45;&gt;Node46</title>
<path fill="none" stroke="midnightblue" d="M215.091,-86.0745C231.525,-85.5137 250.111,-85.6798 265.271,-86.5727"/>
<polygon fill="midnightblue" stroke="midnightblue" points="214.491,-82.598 204.66,-86.5476 214.808,-89.5908 214.491,-82.598"/>
</g>
<!-- Node46&#45;&gt;Node45 -->
<g id="edge59" class="edge"><title>Node46&#45;&gt;Node45</title>
<path fill="none" stroke="midnightblue" d="M254.874,-98.9094C238.481,-99.4839 219.884,-99.3316 204.66,-98.4524"/>
<polygon fill="midnightblue" stroke="midnightblue" points="255.444,-102.387 265.271,-98.4273 255.12,-95.3944 255.444,-102.387"/>
</g>
<!-- Node47 -->
<g id="node47" class="node"><title>Node47</title>
<g id="a_node47"><a xlink:href="../../dc/de7/interface_kensho_lua_wrapper.html#a7d10aa0242861cdd109d3da9383882a2" target="_top" xlink:title="&#45;[KenshoLuaWrapper\l evaluate]">
<polygon fill="none" stroke="black" points="374,-55.5 374,-85.5 483,-85.5 483,-55.5 374,-55.5"/>
<text text-anchor="start" x="382" y="-73.5" font-family="Helvetica,sans-Serif" font-size="10.00">&#45;[KenshoLuaWrapper</text>
<text text-anchor="middle" x="428.5" y="-62.5" font-family="Helvetica,sans-Serif" font-size="10.00"> evaluate]</text>
</a>
</g>
</g>
<!-- Node46&#45;&gt;Node47 -->
<g id="edge55" class="edge"><title>Node46&#45;&gt;Node47</title>
<path fill="none" stroke="midnightblue" d="M337.738,-85.6905C349.141,-83.7607 361.74,-81.6286 373.803,-79.5872"/>
<polygon fill="midnightblue" stroke="midnightblue" points="336.927,-82.2779 327.651,-87.3975 338.095,-89.1797 336.927,-82.2779"/>
</g>
<!-- Node48 -->
<g id="node48" class="node"><title>Node48</title>
<g id="a_node48"><a xlink:href="../../dc/de7/interface_kensho_lua_wrapper.html#af6db46358f8858a18b55388aa3af211d" target="_top" xlink:title="&#45;[KenshoLuaWrapper\l initWithKensho:context\l:code:]">
<polygon fill="none" stroke="black" points="519,-50 519,-91 633,-91 633,-50 519,-50"/>
<text text-anchor="start" x="527" y="-79" font-family="Helvetica,sans-Serif" font-size="10.00">&#45;[KenshoLuaWrapper</text>
<text text-anchor="start" x="527" y="-68" font-family="Helvetica,sans-Serif" font-size="10.00"> initWithKensho:context</text>
<text text-anchor="middle" x="576" y="-57" font-family="Helvetica,sans-Serif" font-size="10.00">:code:]</text>
</a>
</g>
</g>
<!-- Node47&#45;&gt;Node48 -->
<g id="edge56" class="edge"><title>Node47&#45;&gt;Node48</title>
<path fill="none" stroke="midnightblue" d="M493.374,-70.5C501.751,-70.5 510.287,-70.5 518.53,-70.5"/>
<polygon fill="midnightblue" stroke="midnightblue" points="493.265,-67.0001 483.265,-70.5 493.265,-74.0001 493.265,-67.0001"/>
</g>
<!-- Node49 -->
<g id="node49" class="node"><title>Node49</title>
<g id="a_node49"><a xlink:href="../../dc/de7/interface_kensho_lua_wrapper.html#a5555e0979799446611baee70104555c6" target="_top" xlink:title="&#45;[KenshoLuaWrapper\l evaluate:]">
<polygon fill="none" stroke="red" points="521.5,-0.5 521.5,-30.5 630.5,-30.5 630.5,-0.5 521.5,-0.5"/>
<text text-anchor="start" x="529.5" y="-18.5" font-family="Helvetica,sans-Serif" font-size="10.00">&#45;[KenshoLuaWrapper</text>
<text text-anchor="middle" x="576" y="-7.5" font-family="Helvetica,sans-Serif" font-size="10.00"> evaluate:]</text>
</a>
</g>
</g>
<!-- Node47&#45;&gt;Node49 -->
<g id="edge57" class="edge"><title>Node47&#45;&gt;Node49</title>
<path fill="none" stroke="midnightblue" d="M478.666,-51.915C497.106,-44.9445 517.813,-37.1172 535.29,-30.5108"/>
<polygon fill="midnightblue" stroke="midnightblue" points="477.375,-48.6612 469.259,-55.471 479.85,-55.209 477.375,-48.6612"/>
</g>
<!-- Node50 -->
<g id="node50" class="node"><title>Node50</title>
<g id="a_node50"><a xlink:href="../../dc/de7/interface_kensho_lua_wrapper.html#a0bb5e125d727942726d707f8b59009dc" target="_top" xlink:title="&#45;[KenshoLuaWrapper\l observableUpdated:]">
<polygon fill="none" stroke="black" points="521.5,-110.5 521.5,-140.5 630.5,-140.5 630.5,-110.5 521.5,-110.5"/>
<text text-anchor="start" x="529.5" y="-128.5" font-family="Helvetica,sans-Serif" font-size="10.00">&#45;[KenshoLuaWrapper</text>
<text text-anchor="middle" x="576" y="-117.5" font-family="Helvetica,sans-Serif" font-size="10.00"> observableUpdated:]</text>
</a>
</g>
</g>
<!-- Node47&#45;&gt;Node50 -->
<g id="edge58" class="edge"><title>Node47&#45;&gt;Node50</title>
<path fill="none" stroke="midnightblue" d="M478.666,-89.085C497.106,-96.0555 517.813,-103.883 535.29,-110.489"/>
<polygon fill="midnightblue" stroke="midnightblue" points="479.85,-85.791 469.259,-85.529 477.375,-92.3388 479.85,-85.791"/>
</g>
</g>
</svg>
