<?xml version="1.0" encoding="UTF-8" standalone="no"?>
<!DOCTYPE svg PUBLIC "-//W3C//DTD SVG 1.1//EN"
 "http://www.w3.org/Graphics/SVG/1.1/DTD/svg11.dtd">
<!-- Generated by graphviz version 2.38.0 (20140413.2041)
 -->
<!-- Title: lua_isnumber Pages: 1 -->
<svg width="892pt" height="149pt"
 viewBox="0.00 0.00 892.00 148.50" xmlns="http://www.w3.org/2000/svg" xmlns:xlink="http://www.w3.org/1999/xlink">
<g id="graph0" class="graph" transform="scale(1 1) rotate(0) translate(4 144.5)">
<title>lua_isnumber</title>
<!-- Node1 -->
<g id="node1" class="node"><title>Node1</title>
<polygon fill="#bfbfbf" stroke="black" points="0,-74 0,-93 73,-93 73,-74 0,-74"/>
<text text-anchor="middle" x="36.5" y="-81" font-family="Helvetica,sans-Serif" font-size="10.00">lua_isnumber</text>
</g>
<!-- Node2 -->
<g id="node2" class="node"><title>Node2</title>
<g id="a_node2"><a xlink:href="../../d8/d97/ldblib_8c.html#a4eb57e66c2efb2d31c9b9e1b01d27e13" target="_top" xlink:title="db_getinfo">
<polygon fill="none" stroke="black" points="110.5,-112 110.5,-131 170.5,-131 170.5,-112 110.5,-112"/>
<text text-anchor="middle" x="140.5" y="-119" font-family="Helvetica,sans-Serif" font-size="10.00">db_getinfo</text>
</a>
</g>
</g>
<!-- Node1&#45;&gt;Node2 -->
<g id="edge1" class="edge"><title>Node1&#45;&gt;Node2</title>
<path fill="none" stroke="midnightblue" d="M72.7115,-96.618C86.2022,-101.644 101.328,-107.279 113.769,-111.914"/>
<polygon fill="midnightblue" stroke="midnightblue" points="73.8316,-93.3004 63.2389,-93.089 71.3878,-99.8599 73.8316,-93.3004"/>
</g>
<!-- Node3 -->
<g id="node3" class="node"><title>Node3</title>
<g id="a_node3"><a xlink:href="../../d1/dc2/_kensho_lua_wrapper_8m.html#a659a5a25271d0c7e4f5478f828a93b41" target="_top" xlink:title="popValue">
<polygon fill="none" stroke="black" points="111,-74 111,-93 170,-93 170,-74 111,-74"/>
<text text-anchor="middle" x="140.5" y="-81" font-family="Helvetica,sans-Serif" font-size="10.00">popValue</text>
</a>
</g>
</g>
<!-- Node1&#45;&gt;Node3 -->
<g id="edge2" class="edge"><title>Node1&#45;&gt;Node3</title>
<path fill="none" stroke="midnightblue" d="M83.188,-83.5C92.5594,-83.5 102.173,-83.5 110.744,-83.5"/>
<polygon fill="midnightblue" stroke="midnightblue" points="83.1747,-80.0001 73.1747,-83.5 83.1746,-87.0001 83.1747,-80.0001"/>
</g>
<!-- Node11 -->
<g id="node11" class="node"><title>Node11</title>
<g id="a_node11"><a xlink:href="../../d1/dc2/_kensho_lua_wrapper_8m.html#ac812f3eb3f83c6ada24f2dadeced6d68" target="_top" xlink:title="pushValue">
<polygon fill="none" stroke="black" points="109,-36 109,-55 172,-55 172,-36 109,-36"/>
<text text-anchor="middle" x="140.5" y="-43" font-family="Helvetica,sans-Serif" font-size="10.00">pushValue</text>
</a>
</g>
</g>
<!-- Node1&#45;&gt;Node11 -->
<g id="edge11" class="edge"><title>Node1&#45;&gt;Node11</title>
<path fill="none" stroke="midnightblue" d="M72.7115,-70.382C86.2022,-65.3561 101.328,-59.7209 113.769,-55.0859"/>
<polygon fill="midnightblue" stroke="midnightblue" points="71.3878,-67.1401 63.2389,-73.911 73.8316,-73.6996 71.3878,-67.1401"/>
</g>
<!-- Node4 -->
<g id="node4" class="node"><title>Node4</title>
<g id="a_node4"><a xlink:href="../../d1/dc2/_kensho_lua_wrapper_8m.html#a05954c02378e1c67ec00d4d5fc118d07" target="_top" xlink:title="This is executed when the LUA subsystem attempts to assign data to a new index. ">
<polygon fill="none" stroke="black" points="208,-74 208,-93 290,-93 290,-74 208,-74"/>
<text text-anchor="middle" x="249" y="-81" font-family="Helvetica,sans-Serif" font-size="10.00">lookupNewKey</text>
</a>
</g>
</g>
<!-- Node3&#45;&gt;Node4 -->
<g id="edge3" class="edge"><title>Node3&#45;&gt;Node4</title>
<path fill="none" stroke="midnightblue" d="M180.222,-83.5C189.185,-83.5 198.744,-83.5 207.77,-83.5"/>
<polygon fill="midnightblue" stroke="midnightblue" points="180.04,-80.0001 170.04,-83.5 180.04,-87.0001 180.04,-80.0001"/>
</g>
<!-- Node5 -->
<g id="node5" class="node"><title>Node5</title>
<g id="a_node5"><a xlink:href="../../dc/de7/interface_kensho_lua_wrapper.html#a7d10aa0242861cdd109d3da9383882a2" target="_top" xlink:title="&#45;[KenshoLuaWrapper\l evaluate]">
<polygon fill="none" stroke="black" points="326,-49.5 326,-79.5 435,-79.5 435,-49.5 326,-49.5"/>
<text text-anchor="start" x="334" y="-67.5" font-family="Helvetica,sans-Serif" font-size="10.00">&#45;[KenshoLuaWrapper</text>
<text text-anchor="middle" x="380.5" y="-56.5" font-family="Helvetica,sans-Serif" font-size="10.00"> evaluate]</text>
</a>
</g>
</g>
<!-- Node4&#45;&gt;Node5 -->
<g id="edge4" class="edge"><title>Node4&#45;&gt;Node5</title>
<path fill="none" stroke="midnightblue" d="M300.303,-76.1197C308.704,-74.887 317.448,-73.6042 325.928,-72.36"/>
<polygon fill="midnightblue" stroke="midnightblue" points="299.651,-72.6778 290.265,-77.5924 300.667,-79.6036 299.651,-72.6778"/>
</g>
<!-- Node6 -->
<g id="node6" class="node"><title>Node6</title>
<g id="a_node6"><a xlink:href="../../dc/de7/interface_kensho_lua_wrapper.html#af6db46358f8858a18b55388aa3af211d" target="_top" xlink:title="&#45;[KenshoLuaWrapper\l initWithKensho:context\l:code:]">
<polygon fill="none" stroke="black" points="471,-99 471,-140 585,-140 585,-99 471,-99"/>
<text text-anchor="start" x="479" y="-128" font-family="Helvetica,sans-Serif" font-size="10.00">&#45;[KenshoLuaWrapper</text>
<text text-anchor="start" x="479" y="-117" font-family="Helvetica,sans-Serif" font-size="10.00"> initWithKensho:context</text>
<text text-anchor="middle" x="528" y="-106" font-family="Helvetica,sans-Serif" font-size="10.00">:code:]</text>
</a>
</g>
</g>
<!-- Node5&#45;&gt;Node6 -->
<g id="edge5" class="edge"><title>Node5&#45;&gt;Node6</title>
<path fill="none" stroke="midnightblue" d="M430.799,-83.1353C444.233,-88.2134 458.861,-93.743 472.563,-98.9223"/>
<polygon fill="midnightblue" stroke="midnightblue" points="431.85,-79.791 421.259,-79.529 429.375,-86.3388 431.85,-79.791"/>
</g>
<!-- Node7 -->
<g id="node7" class="node"><title>Node7</title>
<g id="a_node7"><a xlink:href="../../dc/de7/interface_kensho_lua_wrapper.html#a5555e0979799446611baee70104555c6" target="_top" xlink:title="&#45;[KenshoLuaWrapper\l evaluate:]">
<polygon fill="none" stroke="black" points="473.5,-49.5 473.5,-79.5 582.5,-79.5 582.5,-49.5 473.5,-49.5"/>
<text text-anchor="start" x="481.5" y="-67.5" font-family="Helvetica,sans-Serif" font-size="10.00">&#45;[KenshoLuaWrapper</text>
<text text-anchor="middle" x="528" y="-56.5" font-family="Helvetica,sans-Serif" font-size="10.00"> evaluate:]</text>
</a>
</g>
</g>
<!-- Node5&#45;&gt;Node7 -->
<g id="edge6" class="edge"><title>Node5&#45;&gt;Node7</title>
<path fill="none" stroke="midnightblue" d="M445.339,-64.5C454.723,-64.5 464.307,-64.5 473.456,-64.5"/>
<polygon fill="midnightblue" stroke="midnightblue" points="445.265,-61.0001 435.265,-64.5 445.265,-68.0001 445.265,-61.0001"/>
</g>
<!-- Node10 -->
<g id="node10" class="node"><title>Node10</title>
<g id="a_node10"><a xlink:href="../../dc/de7/interface_kensho_lua_wrapper.html#a0bb5e125d727942726d707f8b59009dc" target="_top" xlink:title="&#45;[KenshoLuaWrapper\l observableUpdated:]">
<polygon fill="none" stroke="black" points="473.5,-0.5 473.5,-30.5 582.5,-30.5 582.5,-0.5 473.5,-0.5"/>
<text text-anchor="start" x="481.5" y="-18.5" font-family="Helvetica,sans-Serif" font-size="10.00">&#45;[KenshoLuaWrapper</text>
<text text-anchor="middle" x="528" y="-7.5" font-family="Helvetica,sans-Serif" font-size="10.00"> observableUpdated:]</text>
</a>
</g>
</g>
<!-- Node5&#45;&gt;Node10 -->
<g id="edge10" class="edge"><title>Node5&#45;&gt;Node10</title>
<path fill="none" stroke="midnightblue" d="M436.153,-46.0945C451.376,-40.9678 467.729,-35.4608 482.306,-30.5516"/>
<polygon fill="midnightblue" stroke="midnightblue" points="434.702,-42.89 426.342,-49.3986 436.936,-49.5239 434.702,-42.89"/>
</g>
<!-- Node8 -->
<g id="node8" class="node"><title>Node8</title>
<g id="a_node8"><a xlink:href="../../da/d0b/interface_kensho.html#a07b4d14db676108e1a94a1f10e100fb4" target="_top" xlink:title="&#45;[Kensho bindToView\l:context:]">
<polygon fill="none" stroke="black" points="621,-49.5 621,-79.5 729,-79.5 729,-49.5 621,-49.5"/>
<text text-anchor="start" x="629" y="-67.5" font-family="Helvetica,sans-Serif" font-size="10.00">&#45;[Kensho bindToView</text>
<text text-anchor="middle" x="675" y="-56.5" font-family="Helvetica,sans-Serif" font-size="10.00">:context:]</text>
</a>
</g>
</g>
<!-- Node7&#45;&gt;Node8 -->
<g id="edge7" class="edge"><title>Node7&#45;&gt;Node8</title>
<path fill="none" stroke="midnightblue" d="M592.62,-64.5C601.971,-64.5 611.523,-64.5 620.64,-64.5"/>
<polygon fill="midnightblue" stroke="midnightblue" points="592.581,-61.0001 582.581,-64.5 592.581,-68.0001 592.581,-61.0001"/>
</g>
<!-- Node8&#45;&gt;Node8 -->
<g id="edge9" class="edge"><title>Node8&#45;&gt;Node8</title>
<path fill="none" stroke="midnightblue" d="M649.058,-89.9579C652.277,-94.679 660.925,-98 675,-98 698.098,-98 706.579,-89.0566 700.444,-79.659"/>
<polygon fill="midnightblue" stroke="midnightblue" points="652.568,-89.8167 649.556,-79.659 645.577,-89.4779 652.568,-89.8167"/>
</g>
<!-- Node9 -->
<g id="node9" class="node"><title>Node9</title>
<g id="a_node9"><a xlink:href="../../da/d0b/interface_kensho.html#a1019e8223ee907bab87501ae483e609f" target="_top" xlink:title="&#45;[Kensho applyBindings\l:viewModel:]">
<polygon fill="none" stroke="black" points="765,-49.5 765,-79.5 884,-79.5 884,-49.5 765,-49.5"/>
<text text-anchor="start" x="773" y="-67.5" font-family="Helvetica,sans-Serif" font-size="10.00">&#45;[Kensho applyBindings</text>
<text text-anchor="middle" x="824.5" y="-56.5" font-family="Helvetica,sans-Serif" font-size="10.00">:viewModel:]</text>
</a>
</g>
</g>
<!-- Node8&#45;&gt;Node9 -->
<g id="edge8" class="edge"><title>Node8&#45;&gt;Node9</title>
<path fill="none" stroke="midnightblue" d="M739.421,-64.5C747.859,-64.5 756.481,-64.5 764.833,-64.5"/>
<polygon fill="midnightblue" stroke="midnightblue" points="739.251,-61.0001 729.251,-64.5 739.251,-68.0001 739.251,-61.0001"/>
</g>
<!-- Node12 -->
<g id="node12" class="node"><title>Node12</title>
<g id="a_node12"><a xlink:href="../../d1/dc2/_kensho_lua_wrapper_8m.html#ad10bf0ff4feac9642e7477e282be41fe" target="_top" xlink:title="lookupKey">
<polygon fill="none" stroke="black" points="218,-36 218,-55 280,-55 280,-36 218,-36"/>
<text text-anchor="middle" x="249" y="-43" font-family="Helvetica,sans-Serif" font-size="10.00">lookupKey</text>
</a>
</g>
</g>
<!-- Node11&#45;&gt;Node12 -->
<g id="edge12" class="edge"><title>Node11&#45;&gt;Node12</title>
<path fill="none" stroke="midnightblue" d="M182.15,-38.9208C194.011,-38.5936 206.757,-38.7364 217.845,-39.3493"/>
<polygon fill="midnightblue" stroke="midnightblue" points="181.869,-35.4292 172.019,-39.3294 182.152,-42.4235 181.869,-35.4292"/>
</g>
<!-- Node12&#45;&gt;Node5 -->
<g id="edge13" class="edge"><title>Node12&#45;&gt;Node5</title>
<path fill="none" stroke="midnightblue" d="M290.026,-51.3726C301.32,-53.0295 313.794,-54.8597 325.752,-56.6142"/>
<polygon fill="midnightblue" stroke="midnightblue" points="290.438,-47.8955 280.035,-49.9067 289.421,-54.8214 290.438,-47.8955"/>
</g>
<!-- Node12&#45;&gt;Node11 -->
<g id="edge14" class="edge"><title>Node12&#45;&gt;Node11</title>
<path fill="none" stroke="midnightblue" d="M207.738,-52.0683C195.897,-52.4057 183.143,-52.2732 172.019,-51.6706"/>
<polygon fill="midnightblue" stroke="midnightblue" points="207.998,-55.5606 217.845,-51.6507 207.709,-48.5666 207.998,-55.5606"/>
</g>
</g>
</svg>
