<?xml version="1.0" encoding="UTF-8" standalone="no"?>
<!DOCTYPE svg PUBLIC "-//W3C//DTD SVG 1.1//EN"
 "http://www.w3.org/Graphics/SVG/1.1/DTD/svg11.dtd">
<!-- Generated by graphviz version 2.38.0 (20140413.2041)
 -->
<!-- Title: lua_tonumberx Pages: 1 -->
<svg width="435pt" height="1130pt"
 viewBox="0.00 0.00 435.00 1130.00" xmlns="http://www.w3.org/2000/svg" xmlns:xlink="http://www.w3.org/1999/xlink">
<g id="graph0" class="graph" transform="scale(1 1) rotate(0) translate(4 1126)">
<title>lua_tonumberx</title>
<!-- Node1 -->
<g id="node1" class="node"><title>Node1</title>
<polygon fill="#bfbfbf" stroke="black" points="0,-570.5 0,-589.5 79,-589.5 79,-570.5 0,-570.5"/>
<text text-anchor="middle" x="39.5" y="-577.5" font-family="Helvetica,sans-Serif" font-size="10.00">lua_tonumberx</text>
</g>
<!-- Node2 -->
<g id="node2" class="node"><title>Node2</title>
<g id="a_node2"><a xlink:href="../../d8/dd3/lbaselib_8c.html#a6224f7b7c4485996e1c22eae32de990d" target="_top" xlink:title="luaB_tonumber">
<polygon fill="none" stroke="black" points="122.5,-589.5 122.5,-608.5 202.5,-608.5 202.5,-589.5 122.5,-589.5"/>
<text text-anchor="middle" x="162.5" y="-596.5" font-family="Helvetica,sans-Serif" font-size="10.00">luaB_tonumber</text>
</a>
</g>
</g>
<!-- Node1&#45;&gt;Node2 -->
<g id="edge1" class="edge"><title>Node1&#45;&gt;Node2</title>
<path fill="none" stroke="midnightblue" d="M89.0896,-587.63C100.167,-589.369 111.798,-591.196 122.418,-592.863"/>
<polygon fill="midnightblue" stroke="midnightblue" points="89.5398,-584.158 79.1178,-586.064 88.4538,-591.073 89.5398,-584.158"/>
</g>
<!-- Node3 -->
<g id="node3" class="node"><title>Node3</title>
<g id="a_node3"><a xlink:href="../../da/d29/lauxlib_8h.html#a3e39a4d35c3ce1555126e372a8a329c3" target="_top" xlink:title="luaL_checknumber">
<polygon fill="none" stroke="black" points="115,-551.5 115,-570.5 210,-570.5 210,-551.5 115,-551.5"/>
<text text-anchor="middle" x="162.5" y="-558.5" font-family="Helvetica,sans-Serif" font-size="10.00">luaL_checknumber</text>
</a>
</g>
</g>
<!-- Node1&#45;&gt;Node3 -->
<g id="edge2" class="edge"><title>Node1&#45;&gt;Node3</title>
<path fill="none" stroke="midnightblue" d="M89.205,-572.352C97.6421,-571.027 106.398,-569.652 114.78,-568.336"/>
<polygon fill="midnightblue" stroke="midnightblue" points="88.4538,-568.927 79.1178,-573.936 89.5398,-575.842 88.4538,-568.927"/>
</g>
<!-- Node4 -->
<g id="node4" class="node"><title>Node4</title>
<g id="a_node4"><a xlink:href="../../da/d29/lauxlib_8h.html#a001e2679c64c24eefbaf478fd0c22f97" target="_top" xlink:title="luaL_optnumber">
<polygon fill="none" stroke="black" points="246,-1102.5 246,-1121.5 331,-1121.5 331,-1102.5 246,-1102.5"/>
<text text-anchor="middle" x="288.5" y="-1109.5" font-family="Helvetica,sans-Serif" font-size="10.00">luaL_optnumber</text>
</a>
</g>
</g>
<!-- Node3&#45;&gt;Node4 -->
<g id="edge3" class="edge"><title>Node3&#45;&gt;Node4</title>
<path fill="none" stroke="midnightblue" d="M207.466,-576.96C208.375,-577.915 209.223,-578.927 210,-580 276.384,-671.658 186.018,-992.031 246,-1088 249.794,-1094.07 255.722,-1098.77 261.922,-1102.34"/>
<polygon fill="midnightblue" stroke="midnightblue" points="209.529,-574.13 199.506,-570.696 205.201,-579.631 209.529,-574.13"/>
</g>
<!-- Node6 -->
<g id="node6" class="node"><title>Node6</title>
<g id="a_node6"><a xlink:href="../../dc/dba/loslib_8c.html#ab2027c89bfc0320114b3cce3d77a01ed" target="_top" xlink:title="os_difftime">
<polygon fill="none" stroke="black" points="367,-1064.5 367,-1083.5 427,-1083.5 427,-1064.5 367,-1064.5"/>
<text text-anchor="middle" x="397" y="-1071.5" font-family="Helvetica,sans-Serif" font-size="10.00">os_difftime</text>
</a>
</g>
</g>
<!-- Node3&#45;&gt;Node6 -->
<g id="edge33" class="edge"><title>Node3&#45;&gt;Node6</title>
<path fill="none" stroke="midnightblue" d="M207.459,-576.965C208.37,-577.919 209.22,-578.929 210,-580 272.303,-665.582 173.055,-978.286 246,-1055 276.66,-1087.24 332.477,-1085.12 366.698,-1080"/>
<polygon fill="midnightblue" stroke="midnightblue" points="209.516,-574.13 199.489,-570.709 205.194,-579.637 209.516,-574.13"/>
</g>
<!-- Node7 -->
<g id="node7" class="node"><title>Node7</title>
<g id="a_node7"><a xlink:href="../../d1/d6a/lmathlib_8c.html#a9545dd3926974393ff34e33a108df628" target="_top" xlink:title="math_abs">
<polygon fill="none" stroke="black" points="258.5,-1026.5 258.5,-1045.5 318.5,-1045.5 318.5,-1026.5 258.5,-1026.5"/>
<text text-anchor="middle" x="288.5" y="-1033.5" font-family="Helvetica,sans-Serif" font-size="10.00">math_abs</text>
</a>
</g>
</g>
<!-- Node3&#45;&gt;Node7 -->
<g id="edge6" class="edge"><title>Node3&#45;&gt;Node7</title>
<path fill="none" stroke="midnightblue" d="M207.45,-576.972C208.363,-577.923 209.217,-578.932 210,-580 267.607,-658.588 190.034,-937.235 246,-1017 249.095,-1021.41 253.474,-1024.82 258.236,-1027.45"/>
<polygon fill="midnightblue" stroke="midnightblue" points="209.499,-574.131 199.466,-570.726 205.186,-579.644 209.499,-574.131"/>
</g>
<!-- Node8 -->
<g id="node8" class="node"><title>Node8</title>
<g id="a_node8"><a xlink:href="../../d1/d6a/lmathlib_8c.html#a9f983fa3cca14d69429cebc95be4fab1" target="_top" xlink:title="math_acos">
<polygon fill="none" stroke="black" points="256.5,-988.5 256.5,-1007.5 320.5,-1007.5 320.5,-988.5 256.5,-988.5"/>
<text text-anchor="middle" x="288.5" y="-995.5" font-family="Helvetica,sans-Serif" font-size="10.00">math_acos</text>
</a>
</g>
</g>
<!-- Node3&#45;&gt;Node8 -->
<g id="edge7" class="edge"><title>Node3&#45;&gt;Node8</title>
<path fill="none" stroke="midnightblue" d="M207.439,-576.98C208.355,-577.929 209.213,-578.935 210,-580 315.824,-723.194 143.166,-833.644 246,-979 248.746,-982.881 252.484,-985.987 256.599,-988.467"/>
<polygon fill="midnightblue" stroke="midnightblue" points="209.478,-574.131 199.438,-570.746 205.175,-579.653 209.478,-574.131"/>
</g>
<!-- Node9 -->
<g id="node9" class="node"><title>Node9</title>
<g id="a_node9"><a xlink:href="../../d1/d6a/lmathlib_8c.html#aa44ea66108bb38acbe5c8cb2ce6de33f" target="_top" xlink:title="math_asin">
<polygon fill="none" stroke="black" points="258,-950.5 258,-969.5 319,-969.5 319,-950.5 258,-950.5"/>
<text text-anchor="middle" x="288.5" y="-957.5" font-family="Helvetica,sans-Serif" font-size="10.00">math_asin</text>
</a>
</g>
</g>
<!-- Node3&#45;&gt;Node9 -->
<g id="edge8" class="edge"><title>Node3&#45;&gt;Node9</title>
<path fill="none" stroke="midnightblue" d="M207.001,-576.561C208.082,-577.632 209.087,-578.777 210,-580 306.44,-709.22 152.258,-809.81 246,-941 249.041,-945.255 253.272,-948.579 257.877,-951.169"/>
<polygon fill="midnightblue" stroke="midnightblue" points="209.045,-573.719 198.95,-570.504 204.837,-579.313 209.045,-573.719"/>
</g>
<!-- Node10 -->
<g id="node10" class="node"><title>Node10</title>
<g id="a_node10"><a xlink:href="../../d1/d6a/lmathlib_8c.html#a70217d6c0312477f3e257a584518424c" target="_top" xlink:title="math_atan">
<polygon fill="none" stroke="black" points="257.5,-912.5 257.5,-931.5 319.5,-931.5 319.5,-912.5 257.5,-912.5"/>
<text text-anchor="middle" x="288.5" y="-919.5" font-family="Helvetica,sans-Serif" font-size="10.00">math_atan</text>
</a>
</g>
</g>
<!-- Node3&#45;&gt;Node10 -->
<g id="edge9" class="edge"><title>Node3&#45;&gt;Node10</title>
<path fill="none" stroke="midnightblue" d="M206.983,-576.575C208.069,-577.642 209.08,-578.782 210,-580 297.064,-695.256 161.343,-785.964 246,-903 248.879,-906.981 252.798,-910.148 257.084,-912.662"/>
<polygon fill="midnightblue" stroke="midnightblue" points="209.012,-573.722 198.908,-570.535 204.819,-579.328 209.012,-573.722"/>
</g>
<!-- Node11 -->
<g id="node11" class="node"><title>Node11</title>
<g id="a_node11"><a xlink:href="../../d1/d6a/lmathlib_8c.html#ab2ec821a1dd788ee7d4f9a58c743cd48" target="_top" xlink:title="math_atan2">
<polygon fill="none" stroke="black" points="254.5,-874.5 254.5,-893.5 322.5,-893.5 322.5,-874.5 254.5,-874.5"/>
<text text-anchor="middle" x="288.5" y="-881.5" font-family="Helvetica,sans-Serif" font-size="10.00">math_atan2</text>
</a>
</g>
</g>
<!-- Node3&#45;&gt;Node11 -->
<g id="edge10" class="edge"><title>Node3&#45;&gt;Node11</title>
<path fill="none" stroke="midnightblue" d="M206.959,-576.593C208.052,-577.655 209.071,-578.789 210,-580 287.7,-681.307 170.416,-762.104 246,-865 248.815,-868.832 252.59,-871.911 256.72,-874.38"/>
<polygon fill="midnightblue" stroke="midnightblue" points="208.971,-573.727 198.856,-570.575 204.798,-579.347 208.971,-573.727"/>
</g>
<!-- Node12 -->
<g id="node12" class="node"><title>Node12</title>
<g id="a_node12"><a xlink:href="../../d1/d6a/lmathlib_8c.html#ae4f0dc771c626a9badef237db9d433da" target="_top" xlink:title="math_ceil">
<polygon fill="none" stroke="black" points="260.5,-836.5 260.5,-855.5 316.5,-855.5 316.5,-836.5 260.5,-836.5"/>
<text text-anchor="middle" x="288.5" y="-843.5" font-family="Helvetica,sans-Serif" font-size="10.00">math_ceil</text>
</a>
</g>
</g>
<!-- Node3&#45;&gt;Node12 -->
<g id="edge11" class="edge"><title>Node3&#45;&gt;Node12</title>
<path fill="none" stroke="midnightblue" d="M206.929,-576.616C208.031,-577.671 209.06,-578.798 210,-580 278.351,-667.38 179.474,-738.222 246,-827 249.611,-831.819 254.736,-835.452 260.157,-838.177"/>
<polygon fill="midnightblue" stroke="midnightblue" points="208.918,-573.733 198.789,-570.627 204.77,-579.372 208.918,-573.733"/>
</g>
<!-- Node13 -->
<g id="node13" class="node"><title>Node13</title>
<g id="a_node13"><a xlink:href="../../d1/d6a/lmathlib_8c.html#a5db2cf8c6e7a331d7daf259f305e057c" target="_top" xlink:title="math_cos">
<polygon fill="none" stroke="black" points="259.5,-798.5 259.5,-817.5 317.5,-817.5 317.5,-798.5 259.5,-798.5"/>
<text text-anchor="middle" x="288.5" y="-805.5" font-family="Helvetica,sans-Serif" font-size="10.00">math_cos</text>
</a>
</g>
</g>
<!-- Node3&#45;&gt;Node13 -->
<g id="edge12" class="edge"><title>Node3&#45;&gt;Node13</title>
<path fill="none" stroke="midnightblue" d="M206.889,-576.648C208.002,-577.694 209.044,-578.81 210,-580 269.028,-653.485 188.507,-714.308 246,-789 249.48,-793.521 254.285,-797.002 259.395,-799.67"/>
<polygon fill="midnightblue" stroke="midnightblue" points="208.846,-573.743 198.698,-570.699 204.733,-579.407 208.846,-573.743"/>
</g>
<!-- Node14 -->
<g id="node14" class="node"><title>Node14</title>
<g id="a_node14"><a xlink:href="../../d1/d6a/lmathlib_8c.html#aacc3b89a2bdf4970574be974ccbf5e84" target="_top" xlink:title="math_cosh">
<polygon fill="none" stroke="black" points="257,-760.5 257,-779.5 320,-779.5 320,-760.5 257,-760.5"/>
<text text-anchor="middle" x="288.5" y="-767.5" font-family="Helvetica,sans-Serif" font-size="10.00">math_cosh</text>
</a>
</g>
</g>
<!-- Node3&#45;&gt;Node14 -->
<g id="edge13" class="edge"><title>Node3&#45;&gt;Node14</title>
<path fill="none" stroke="midnightblue" d="M206.357,-576.266C207.664,-577.422 208.886,-578.665 210,-580 259.748,-639.642 197.499,-690.34 246,-751 249.068,-754.837 253.084,-757.93 257.409,-760.414"/>
<polygon fill="midnightblue" stroke="midnightblue" points="208.319,-573.367 198.107,-570.545 204.33,-579.12 208.319,-573.367"/>
</g>
<!-- Node15 -->
<g id="node15" class="node"><title>Node15</title>
<g id="a_node15"><a xlink:href="../../d1/d6a/lmathlib_8c.html#ad9bd03062009a4aba15739a1630b2a25" target="_top" xlink:title="math_deg">
<polygon fill="none" stroke="black" points="259,-722.5 259,-741.5 318,-741.5 318,-722.5 259,-722.5"/>
<text text-anchor="middle" x="288.5" y="-729.5" font-family="Helvetica,sans-Serif" font-size="10.00">math_deg</text>
</a>
</g>
</g>
<!-- Node3&#45;&gt;Node15 -->
<g id="edge14" class="edge"><title>Node3&#45;&gt;Node15</title>
<path fill="none" stroke="midnightblue" d="M206.261,-576.348C207.595,-577.482 208.849,-578.697 210,-580 250.546,-625.893 206.414,-666.277 246,-713 249.483,-717.111 254.044,-720.379 258.864,-722.961"/>
<polygon fill="midnightblue" stroke="midnightblue" points="208.158,-573.406 197.911,-570.713 204.242,-579.208 208.158,-573.406"/>
</g>
<!-- Node16 -->
<g id="node16" class="node"><title>Node16</title>
<g id="a_node16"><a xlink:href="../../d1/d6a/lmathlib_8c.html#a7c971c680cdad8e4e833f8a3db9d065d" target="_top" xlink:title="math_exp">
<polygon fill="none" stroke="black" points="259,-684.5 259,-703.5 318,-703.5 318,-684.5 259,-684.5"/>
<text text-anchor="middle" x="288.5" y="-691.5" font-family="Helvetica,sans-Serif" font-size="10.00">math_exp</text>
</a>
</g>
</g>
<!-- Node3&#45;&gt;Node16 -->
<g id="edge15" class="edge"><title>Node3&#45;&gt;Node16</title>
<path fill="none" stroke="midnightblue" d="M205.41,-575.958C207.043,-577.203 208.585,-578.548 210,-580 241.515,-612.335 215.162,-642.019 246,-675 249.572,-678.82 254.06,-681.933 258.756,-684.45"/>
<polygon fill="midnightblue" stroke="midnightblue" points="206.982,-572.814 196.637,-570.526 203.296,-578.766 206.982,-572.814"/>
</g>
<!-- Node17 -->
<g id="node17" class="node"><title>Node17</title>
<g id="a_node17"><a xlink:href="../../d1/d6a/lmathlib_8c.html#aa063dcd93e924af13c5e311f89b18d03" target="_top" xlink:title="math_floor">
<polygon fill="none" stroke="black" points="259,-646.5 259,-665.5 318,-665.5 318,-646.5 259,-646.5"/>
<text text-anchor="middle" x="288.5" y="-653.5" font-family="Helvetica,sans-Serif" font-size="10.00">math_floor</text>
</a>
</g>
</g>
<!-- Node3&#45;&gt;Node17 -->
<g id="edge16" class="edge"><title>Node3&#45;&gt;Node17</title>
<path fill="none" stroke="midnightblue" d="M203.603,-575.384C205.858,-576.797 208.012,-578.333 210,-580 232.961,-599.25 223.442,-617.279 246,-637 250.295,-640.755 255.457,-643.901 260.658,-646.483"/>
<polygon fill="midnightblue" stroke="midnightblue" points="205.014,-572.169 194.548,-570.526 201.705,-578.338 205.014,-572.169"/>
</g>
<!-- Node18 -->
<g id="node18" class="node"><title>Node18</title>
<g id="a_node18"><a xlink:href="../../d1/d6a/lmathlib_8c.html#a25b3f7d30cf85b8248a72de20049564e" target="_top" xlink:title="math_fmod">
<polygon fill="none" stroke="black" points="257,-608.5 257,-627.5 320,-627.5 320,-608.5 257,-608.5"/>
<text text-anchor="middle" x="288.5" y="-615.5" font-family="Helvetica,sans-Serif" font-size="10.00">math_fmod</text>
</a>
</g>
</g>
<!-- Node3&#45;&gt;Node18 -->
<g id="edge17" class="edge"><title>Node3&#45;&gt;Node18</title>
<path fill="none" stroke="midnightblue" d="M197.821,-574.579C201.951,-576.344 206.088,-578.174 210,-580 226.393,-587.653 229.769,-591.009 246,-599 252.398,-602.15 259.427,-605.433 265.852,-608.367"/>
<polygon fill="midnightblue" stroke="midnightblue" points="198.886,-571.231 188.309,-570.614 196.193,-577.692 198.886,-571.231"/>
</g>
<!-- Node19 -->
<g id="node19" class="node"><title>Node19</title>
<g id="a_node19"><a xlink:href="../../d1/d6a/lmathlib_8c.html#a13d5e8c418a554d9e4604b97a4b67b83" target="_top" xlink:title="math_frexp">
<polygon fill="none" stroke="black" points="256.5,-570.5 256.5,-589.5 320.5,-589.5 320.5,-570.5 256.5,-570.5"/>
<text text-anchor="middle" x="288.5" y="-577.5" font-family="Helvetica,sans-Serif" font-size="10.00">math_frexp</text>
</a>
</g>
</g>
<!-- Node3&#45;&gt;Node19 -->
<g id="edge18" class="edge"><title>Node3&#45;&gt;Node19</title>
<path fill="none" stroke="midnightblue" d="M220.28,-569.7C232.616,-571.59 245.23,-573.523 256.149,-575.196"/>
<polygon fill="midnightblue" stroke="midnightblue" points="220.441,-566.184 210.026,-568.129 219.38,-573.103 220.441,-566.184"/>
</g>
<!-- Node20 -->
<g id="node20" class="node"><title>Node20</title>
<g id="a_node20"><a xlink:href="../../d1/d6a/lmathlib_8c.html#adf7bb9373e68cc77ddf001273c444edf" target="_top" xlink:title="math_ldexp">
<polygon fill="none" stroke="black" points="255.5,-532.5 255.5,-551.5 321.5,-551.5 321.5,-532.5 255.5,-532.5"/>
<text text-anchor="middle" x="288.5" y="-539.5" font-family="Helvetica,sans-Serif" font-size="10.00">math_ldexp</text>
</a>
</g>
</g>
<!-- Node3&#45;&gt;Node20 -->
<g id="edge19" class="edge"><title>Node3&#45;&gt;Node20</title>
<path fill="none" stroke="midnightblue" d="M220.095,-552.328C232.208,-550.472 244.599,-548.574 255.398,-546.919"/>
<polygon fill="midnightblue" stroke="midnightblue" points="219.38,-548.897 210.026,-553.871 220.441,-555.816 219.38,-548.897"/>
</g>
<!-- Node21 -->
<g id="node21" class="node"><title>Node21</title>
<g id="a_node21"><a xlink:href="../../d1/d6a/lmathlib_8c.html#a7cb92978495484adbfc9d0cb0ace2cc2" target="_top" xlink:title="math_log">
<polygon fill="none" stroke="black" points="261,-494.5 261,-513.5 316,-513.5 316,-494.5 261,-494.5"/>
<text text-anchor="middle" x="288.5" y="-501.5" font-family="Helvetica,sans-Serif" font-size="10.00">math_log</text>
</a>
</g>
</g>
<!-- Node3&#45;&gt;Node21 -->
<g id="edge20" class="edge"><title>Node3&#45;&gt;Node21</title>
<path fill="none" stroke="midnightblue" d="M193.38,-547.217C209.046,-539.996 228.555,-531.011 246,-523 252.625,-519.958 259.848,-516.648 266.384,-513.656"/>
<polygon fill="midnightblue" stroke="midnightblue" points="191.792,-544.095 184.176,-551.461 194.723,-550.452 191.792,-544.095"/>
</g>
<!-- Node22 -->
<g id="node22" class="node"><title>Node22</title>
<g id="a_node22"><a xlink:href="../../d1/d6a/lmathlib_8c.html#a03e3b76e515f5535122c2026a9e8f445" target="_top" xlink:title="math_max">
<polygon fill="none" stroke="black" points="257.5,-456.5 257.5,-475.5 319.5,-475.5 319.5,-456.5 257.5,-456.5"/>
<text text-anchor="middle" x="288.5" y="-463.5" font-family="Helvetica,sans-Serif" font-size="10.00">math_max</text>
</a>
</g>
</g>
<!-- Node3&#45;&gt;Node22 -->
<g id="edge21" class="edge"><title>Node3&#45;&gt;Node22</title>
<path fill="none" stroke="midnightblue" d="M179.213,-543.645C194.918,-527.035 220.359,-502.052 246,-485 251.279,-481.49 257.311,-478.318 263.11,-475.616"/>
<polygon fill="midnightblue" stroke="midnightblue" points="176.57,-541.347 172.326,-551.055 181.698,-546.112 176.57,-541.347"/>
</g>
<!-- Node23 -->
<g id="node23" class="node"><title>Node23</title>
<g id="a_node23"><a xlink:href="../../d1/d6a/lmathlib_8c.html#ab0a14d784b5fe2f30062e88a635db320" target="_top" xlink:title="math_min">
<polygon fill="none" stroke="black" points="260,-418.5 260,-437.5 317,-437.5 317,-418.5 260,-418.5"/>
<text text-anchor="middle" x="288.5" y="-425.5" font-family="Helvetica,sans-Serif" font-size="10.00">math_min</text>
</a>
</g>
</g>
<!-- Node3&#45;&gt;Node23 -->
<g id="edge22" class="edge"><title>Node3&#45;&gt;Node23</title>
<path fill="none" stroke="midnightblue" d="M172.944,-542.456C186.292,-517.815 212.793,-474.231 246,-447 250.534,-443.282 255.915,-440.126 261.273,-437.517"/>
<polygon fill="midnightblue" stroke="midnightblue" points="169.759,-540.991 168.192,-551.469 175.952,-544.255 169.759,-540.991"/>
</g>
<!-- Node24 -->
<g id="node24" class="node"><title>Node24</title>
<g id="a_node24"><a xlink:href="../../d1/d6a/lmathlib_8c.html#adff369706deb34be360be3103f31d4c4" target="_top" xlink:title="math_modf">
<polygon fill="none" stroke="black" points="257,-380.5 257,-399.5 320,-399.5 320,-380.5 257,-380.5"/>
<text text-anchor="middle" x="288.5" y="-387.5" font-family="Helvetica,sans-Serif" font-size="10.00">math_modf</text>
</a>
</g>
</g>
<!-- Node3&#45;&gt;Node24 -->
<g id="edge23" class="edge"><title>Node3&#45;&gt;Node24</title>
<path fill="none" stroke="midnightblue" d="M169.468,-541.705C180.115,-510.132 205.178,-447.139 246,-409 250.053,-405.213 254.993,-402.077 260.031,-399.518"/>
<polygon fill="midnightblue" stroke="midnightblue" points="166.056,-540.877 166.3,-551.469 172.715,-543.037 166.056,-540.877"/>
</g>
<!-- Node25 -->
<g id="node25" class="node"><title>Node25</title>
<g id="a_node25"><a xlink:href="../../d1/d6a/lmathlib_8c.html#a1bd66c605ef6e69738489e6f9572370c" target="_top" xlink:title="math_pow">
<polygon fill="none" stroke="black" points="257.5,-342.5 257.5,-361.5 319.5,-361.5 319.5,-342.5 257.5,-342.5"/>
<text text-anchor="middle" x="288.5" y="-349.5" font-family="Helvetica,sans-Serif" font-size="10.00">math_pow</text>
</a>
</g>
</g>
<!-- Node3&#45;&gt;Node25 -->
<g id="edge24" class="edge"><title>Node3&#45;&gt;Node25</title>
<path fill="none" stroke="midnightblue" d="M167.198,-541.165C175.186,-503.41 197.401,-420.566 246,-371 249.661,-367.266 254.193,-364.194 258.904,-361.691"/>
<polygon fill="midnightblue" stroke="midnightblue" points="163.69,-540.856 165.162,-551.348 170.554,-542.229 163.69,-540.856"/>
</g>
<!-- Node26 -->
<g id="node26" class="node"><title>Node26</title>
<g id="a_node26"><a xlink:href="../../d1/d6a/lmathlib_8c.html#a5d8eec19cea59d1ce1012a705f70dc8d" target="_top" xlink:title="math_rad">
<polygon fill="none" stroke="black" points="260.5,-304.5 260.5,-323.5 316.5,-323.5 316.5,-304.5 260.5,-304.5"/>
<text text-anchor="middle" x="288.5" y="-311.5" font-family="Helvetica,sans-Serif" font-size="10.00">math_rad</text>
</a>
</g>
</g>
<!-- Node3&#45;&gt;Node26 -->
<g id="edge25" class="edge"><title>Node3&#45;&gt;Node26</title>
<path fill="none" stroke="midnightblue" d="M165.492,-541.417C170.84,-498.418 189.192,-394.678 246,-333 249.973,-328.687 255.116,-325.28 260.422,-322.615"/>
<polygon fill="midnightblue" stroke="midnightblue" points="162.008,-541.084 164.352,-551.416 168.963,-541.877 162.008,-541.084"/>
</g>
<!-- Node27 -->
<g id="node27" class="node"><title>Node27</title>
<g id="a_node27"><a xlink:href="../../d1/d6a/lmathlib_8c.html#aa3ad02d4204d21d35a0825281915fb22" target="_top" xlink:title="math_random">
<polygon fill="none" stroke="black" points="251.5,-266.5 251.5,-285.5 325.5,-285.5 325.5,-266.5 251.5,-266.5"/>
<text text-anchor="middle" x="288.5" y="-273.5" font-family="Helvetica,sans-Serif" font-size="10.00">math_random</text>
</a>
</g>
</g>
<!-- Node3&#45;&gt;Node27 -->
<g id="edge26" class="edge"><title>Node3&#45;&gt;Node27</title>
<path fill="none" stroke="midnightblue" d="M164.301,-541.169C167.259,-493.082 181.122,-368.808 246,-295 249.348,-291.191 253.616,-288.099 258.134,-285.603"/>
<polygon fill="midnightblue" stroke="midnightblue" points="160.791,-541.271 163.769,-551.438 167.782,-541.633 160.791,-541.271"/>
</g>
<!-- Node28 -->
<g id="node28" class="node"><title>Node28</title>
<g id="a_node28"><a xlink:href="../../d1/d6a/lmathlib_8c.html#adb460e2b01df47afcaa823ecc1846a24" target="_top" xlink:title="math_sin">
<polygon fill="none" stroke="black" points="261,-228.5 261,-247.5 316,-247.5 316,-228.5 261,-228.5"/>
<text text-anchor="middle" x="288.5" y="-235.5" font-family="Helvetica,sans-Serif" font-size="10.00">math_sin</text>
</a>
</g>
</g>
<!-- Node3&#45;&gt;Node28 -->
<g id="edge27" class="edge"><title>Node3&#45;&gt;Node28</title>
<path fill="none" stroke="midnightblue" d="M163.366,-541.207C164.051,-488.57 172.857,-343.272 246,-257 249.894,-252.406 255.134,-248.866 260.577,-246.158"/>
<polygon fill="midnightblue" stroke="midnightblue" points="159.866,-541.223 163.325,-551.238 166.866,-541.252 159.866,-541.223"/>
</g>
<!-- Node29 -->
<g id="node29" class="node"><title>Node29</title>
<g id="a_node29"><a xlink:href="../../d1/d6a/lmathlib_8c.html#a54bae0fa396a6823b28ea994ebf035dc" target="_top" xlink:title="math_sinh">
<polygon fill="none" stroke="black" points="258.5,-190.5 258.5,-209.5 318.5,-209.5 318.5,-190.5 258.5,-190.5"/>
<text text-anchor="middle" x="288.5" y="-197.5" font-family="Helvetica,sans-Serif" font-size="10.00">math_sinh</text>
</a>
</g>
</g>
<!-- Node3&#45;&gt;Node29 -->
<g id="edge28" class="edge"><title>Node3&#45;&gt;Node29</title>
<path fill="none" stroke="midnightblue" d="M166.004,-541.042C174.544,-475.717 204.327,-269.587 246,-219 249.325,-214.963 253.694,-211.745 258.348,-209.192"/>
<polygon fill="midnightblue" stroke="midnightblue" points="162.499,-540.857 164.697,-551.221 169.442,-541.748 162.499,-540.857"/>
</g>
<!-- Node30 -->
<g id="node30" class="node"><title>Node30</title>
<g id="a_node30"><a xlink:href="../../d1/d6a/lmathlib_8c.html#a8f4c386bafe8ae7269476ed3ed94d1d8" target="_top" xlink:title="math_sqrt">
<polygon fill="none" stroke="black" points="259.5,-152.5 259.5,-171.5 317.5,-171.5 317.5,-152.5 259.5,-152.5"/>
<text text-anchor="middle" x="288.5" y="-159.5" font-family="Helvetica,sans-Serif" font-size="10.00">math_sqrt</text>
</a>
</g>
</g>
<!-- Node3&#45;&gt;Node30 -->
<g id="edge29" class="edge"><title>Node3&#45;&gt;Node30</title>
<path fill="none" stroke="midnightblue" d="M165.471,-541.129C172.749,-471.261 200.094,-238.045 246,-181 249.478,-176.679 254.156,-173.3 259.119,-170.671"/>
<polygon fill="midnightblue" stroke="midnightblue" points="161.975,-540.917 164.442,-551.22 168.939,-541.627 161.975,-540.917"/>
</g>
<!-- Node31 -->
<g id="node31" class="node"><title>Node31</title>
<g id="a_node31"><a xlink:href="../../d1/d6a/lmathlib_8c.html#a06bc9b8c610e00759bb99c3db6128f18" target="_top" xlink:title="math_tan">
<polygon fill="none" stroke="black" points="260.5,-114.5 260.5,-133.5 316.5,-133.5 316.5,-114.5 260.5,-114.5"/>
<text text-anchor="middle" x="288.5" y="-121.5" font-family="Helvetica,sans-Serif" font-size="10.00">math_tan</text>
</a>
</g>
</g>
<!-- Node3&#45;&gt;Node31 -->
<g id="edge30" class="edge"><title>Node3&#45;&gt;Node31</title>
<path fill="none" stroke="midnightblue" d="M165.044,-541.105C171.165,-466.794 195.866,-206.52 246,-143 249.731,-138.273 254.904,-134.678 260.335,-131.959"/>
<polygon fill="midnightblue" stroke="midnightblue" points="161.531,-541.128 164.221,-551.376 168.509,-541.688 161.531,-541.128"/>
</g>
<!-- Node32 -->
<g id="node32" class="node"><title>Node32</title>
<g id="a_node32"><a xlink:href="../../d1/d6a/lmathlib_8c.html#a38a6a16dfdffec4c0388eb3c7aff9085" target="_top" xlink:title="math_tanh">
<polygon fill="none" stroke="black" points="257.5,-76.5 257.5,-95.5 319.5,-95.5 319.5,-76.5 257.5,-76.5"/>
<text text-anchor="middle" x="288.5" y="-83.5" font-family="Helvetica,sans-Serif" font-size="10.00">math_tanh</text>
</a>
</g>
</g>
<!-- Node3&#45;&gt;Node32 -->
<g id="edge31" class="edge"><title>Node3&#45;&gt;Node32</title>
<path fill="none" stroke="midnightblue" d="M164.702,-540.842C169.768,-461.938 191.677,-174.963 246,-105 249.013,-101.119 253.001,-98.0042 257.314,-95.511"/>
<polygon fill="midnightblue" stroke="midnightblue" points="161.18,-541.093 164.053,-551.291 168.166,-541.527 161.18,-541.093"/>
</g>
<!-- Node33 -->
<g id="node33" class="node"><title>Node33</title>
<g id="a_node33"><a xlink:href="../../dc/dba/loslib_8c.html#a6520f2562b500aee87a6a475995adefb" target="_top" xlink:title="os_date">
<polygon fill="none" stroke="black" points="263,-38.5 263,-57.5 314,-57.5 314,-38.5 263,-38.5"/>
<text text-anchor="middle" x="288.5" y="-45.5" font-family="Helvetica,sans-Serif" font-size="10.00">os_date</text>
</a>
</g>
</g>
<!-- Node3&#45;&gt;Node33 -->
<g id="edge32" class="edge"><title>Node3&#45;&gt;Node33</title>
<path fill="none" stroke="midnightblue" d="M164.371,-541.29C168.363,-459.009 187.309,-143.652 246,-67 250.239,-61.4634 256.468,-57.4881 262.817,-54.6549"/>
<polygon fill="midnightblue" stroke="midnightblue" points="160.874,-541.153 163.904,-551.305 167.866,-541.479 160.874,-541.153"/>
</g>
<!-- Node34 -->
<g id="node34" class="node"><title>Node34</title>
<g id="a_node34"><a xlink:href="../../dc/d77/lstrlib_8c.html#ae26a9374857058119e59d0328208c2f2" target="_top" xlink:title="str_format">
<polygon fill="none" stroke="black" points="260,-0.5 260,-19.5 317,-19.5 317,-0.5 260,-0.5"/>
<text text-anchor="middle" x="288.5" y="-7.5" font-family="Helvetica,sans-Serif" font-size="10.00">str_format</text>
</a>
</g>
</g>
<!-- Node3&#45;&gt;Node34 -->
<g id="edge34" class="edge"><title>Node3&#45;&gt;Node34</title>
<path fill="none" stroke="midnightblue" d="M164.115,-541.18C167.155,-454.844 183.059,-112.2 246,-29 249.538,-24.3236 254.498,-20.7631 259.762,-18.0642"/>
<polygon fill="midnightblue" stroke="midnightblue" points="160.609,-541.299 163.774,-551.41 167.605,-541.533 160.609,-541.299"/>
</g>
<!-- Node5 -->
<g id="node5" class="node"><title>Node5</title>
<g id="a_node5"><a xlink:href="../../de/df3/liolib_8c.html#ace5e1a23cc9e2ffe7ae6cc523e54de73" target="_top" xlink:title="f_seek">
<polygon fill="none" stroke="black" points="375,-1102.5 375,-1121.5 419,-1121.5 419,-1102.5 375,-1102.5"/>
<text text-anchor="middle" x="397" y="-1109.5" font-family="Helvetica,sans-Serif" font-size="10.00">f_seek</text>
</a>
</g>
</g>
<!-- Node4&#45;&gt;Node5 -->
<g id="edge4" class="edge"><title>Node4&#45;&gt;Node5</title>
<path fill="none" stroke="midnightblue" d="M341.562,-1112C353.344,-1112 365.203,-1112 374.832,-1112"/>
<polygon fill="midnightblue" stroke="midnightblue" points="341.286,-1108.5 331.286,-1112 341.286,-1115.5 341.286,-1108.5"/>
</g>
<!-- Node4&#45;&gt;Node6 -->
<g id="edge5" class="edge"><title>Node4&#45;&gt;Node6</title>
<path fill="none" stroke="midnightblue" d="M325.855,-1099.03C340.044,-1093.97 356.018,-1088.27 369.134,-1083.59"/>
<polygon fill="midnightblue" stroke="midnightblue" points="324.617,-1095.75 316.374,-1102.41 326.969,-1102.35 324.617,-1095.75"/>
</g>
</g>
</svg>
