<?xml version="1.0" encoding="UTF-8" standalone="no"?>
<!DOCTYPE svg PUBLIC "-//W3C//DTD SVG 1.1//EN"
 "http://www.w3.org/Graphics/SVG/1.1/DTD/svg11.dtd">
<!-- Generated by graphviz version 2.38.0 (20140413.2041)
 -->
<!-- Title: lua_version Pages: 1 -->
<svg width="1028pt" height="170pt"
 viewBox="0.00 0.00 1028.00 170.00" xmlns="http://www.w3.org/2000/svg" xmlns:xlink="http://www.w3.org/1999/xlink">
<g id="graph0" class="graph" transform="scale(1 1) rotate(0) translate(4 166)">
<title>lua_version</title>
<!-- Node1 -->
<g id="node1" class="node"><title>Node1</title>
<polygon fill="#bfbfbf" stroke="black" points="0,-19.5 0,-38.5 65,-38.5 65,-19.5 0,-19.5"/>
<text text-anchor="middle" x="32.5" y="-26.5" font-family="Helvetica,sans-Serif" font-size="10.00">lua_version</text>
</g>
<!-- Node2 -->
<g id="node2" class="node"><title>Node2</title>
<g id="a_node2"><a xlink:href="../../dd/dca/lstate_8c.html#ab65e96a7498fd886f7223b92e91fd830" target="_top" xlink:title="f_luaopen">
<polygon fill="none" stroke="black" points="121,-38.5 121,-57.5 180,-57.5 180,-38.5 121,-38.5"/>
<text text-anchor="middle" x="150.5" y="-45.5" font-family="Helvetica,sans-Serif" font-size="10.00">f_luaopen</text>
</a>
</g>
</g>
<!-- Node1&#45;&gt;Node2 -->
<g id="edge1" class="edge"><title>Node1&#45;&gt;Node2</title>
<path fill="none" stroke="midnightblue" d="M75.2954,-35.8458C90.3254,-38.3076 106.934,-41.028 120.621,-43.2698"/>
<polygon fill="midnightblue" stroke="midnightblue" points="75.6318,-32.3543 65.1975,-34.1918 74.5002,-39.2623 75.6318,-32.3543"/>
</g>
<!-- Node12 -->
<g id="node12" class="node"><title>Node12</title>
<g id="a_node12"><a xlink:href="../../da/d29/lauxlib_8h.html#a20b0480f0d1e4d1b2cbf74f667e7ca24" target="_top" xlink:title="luaL_checkversion_">
<polygon fill="none" stroke="black" points="101,-0.5 101,-19.5 200,-19.5 200,-0.5 101,-0.5"/>
<text text-anchor="middle" x="150.5" y="-7.5" font-family="Helvetica,sans-Serif" font-size="10.00">luaL_checkversion_</text>
</a>
</g>
</g>
<!-- Node1&#45;&gt;Node12 -->
<g id="edge13" class="edge"><title>Node1&#45;&gt;Node12</title>
<path fill="none" stroke="midnightblue" d="M75.0871,-22.1883C83.4387,-20.8204 92.285,-19.3714 100.852,-17.9682"/>
<polygon fill="midnightblue" stroke="midnightblue" points="74.5002,-18.7377 65.1975,-23.8082 75.6318,-25.6457 74.5002,-18.7377"/>
</g>
<!-- Node3 -->
<g id="node3" class="node"><title>Node3</title>
<g id="a_node3"><a xlink:href="../../da/dd2/lua_8h.html#af722e4ac7fc0eba5920f59f0162c1b97" target="_top" xlink:title="lua_newstate">
<polygon fill="none" stroke="black" points="236,-38.5 236,-57.5 310,-57.5 310,-38.5 236,-38.5"/>
<text text-anchor="middle" x="273" y="-45.5" font-family="Helvetica,sans-Serif" font-size="10.00">lua_newstate</text>
</a>
</g>
</g>
<!-- Node2&#45;&gt;Node3 -->
<g id="edge2" class="edge"><title>Node2&#45;&gt;Node3</title>
<path fill="none" stroke="midnightblue" d="M190.305,-48C204.93,-48 221.495,-48 235.866,-48"/>
<polygon fill="midnightblue" stroke="midnightblue" points="190.057,-44.5001 180.057,-48 190.057,-51.5001 190.057,-44.5001"/>
</g>
<!-- Node4 -->
<g id="node4" class="node"><title>Node4</title>
<g id="a_node4"><a xlink:href="../../da/d29/lauxlib_8h.html#a7d8712fcede90ae93d5a9a7b409c586e" target="_top" xlink:title="luaL_newstate">
<polygon fill="none" stroke="black" points="346,-76.5 346,-95.5 426,-95.5 426,-76.5 346,-76.5"/>
<text text-anchor="middle" x="386" y="-83.5" font-family="Helvetica,sans-Serif" font-size="10.00">luaL_newstate</text>
</a>
</g>
</g>
<!-- Node3&#45;&gt;Node4 -->
<g id="edge3" class="edge"><title>Node3&#45;&gt;Node4</title>
<path fill="none" stroke="midnightblue" d="M311.891,-60.9718C326.68,-66.0344 343.329,-71.7341 356.999,-76.4141"/>
<polygon fill="midnightblue" stroke="midnightblue" points="312.605,-57.5166 302.01,-57.589 310.337,-64.1393 312.605,-57.5166"/>
</g>
<!-- Node11 -->
<g id="node11" class="node"><title>Node11</title>
<g id="a_node11"><a xlink:href="../../dd/dca/lstate_8c.html#a8a0fc0aca5367250347c6bb6a788f05f" target="_top" xlink:title="makeseed">
<polygon fill="none" stroke="black" points="355.5,-38.5 355.5,-57.5 416.5,-57.5 416.5,-38.5 355.5,-38.5"/>
<text text-anchor="middle" x="386" y="-45.5" font-family="Helvetica,sans-Serif" font-size="10.00">makeseed</text>
</a>
</g>
</g>
<!-- Node3&#45;&gt;Node11 -->
<g id="edge11" class="edge"><title>Node3&#45;&gt;Node11</title>
<path fill="none" stroke="midnightblue" d="M320.284,-41.3334C332.178,-41.1163 344.653,-41.323 355.441,-41.9534"/>
<polygon fill="midnightblue" stroke="midnightblue" points="319.932,-37.8421 310.039,-41.6333 320.137,-44.8391 319.932,-37.8421"/>
</g>
<!-- Node5 -->
<g id="node5" class="node"><title>Node5</title>
<g id="a_node5"><a xlink:href="../../dc/de7/interface_kensho_lua_wrapper.html#a7d10aa0242861cdd109d3da9383882a2" target="_top" xlink:title="&#45;[KenshoLuaWrapper\l evaluate]">
<polygon fill="none" stroke="black" points="462,-71 462,-101 571,-101 571,-71 462,-71"/>
<text text-anchor="start" x="470" y="-89" font-family="Helvetica,sans-Serif" font-size="10.00">&#45;[KenshoLuaWrapper</text>
<text text-anchor="middle" x="516.5" y="-78" font-family="Helvetica,sans-Serif" font-size="10.00"> evaluate]</text>
</a>
</g>
</g>
<!-- Node4&#45;&gt;Node5 -->
<g id="edge4" class="edge"><title>Node4&#45;&gt;Node5</title>
<path fill="none" stroke="midnightblue" d="M436.518,-86C444.804,-86 453.435,-86 461.819,-86"/>
<polygon fill="midnightblue" stroke="midnightblue" points="436.252,-82.5001 426.252,-86 436.252,-89.5001 436.252,-82.5001"/>
</g>
<!-- Node6 -->
<g id="node6" class="node"><title>Node6</title>
<g id="a_node6"><a xlink:href="../../dc/de7/interface_kensho_lua_wrapper.html#af6db46358f8858a18b55388aa3af211d" target="_top" xlink:title="&#45;[KenshoLuaWrapper\l initWithKensho:context\l:code:]">
<polygon fill="none" stroke="black" points="607,-120.5 607,-161.5 721,-161.5 721,-120.5 607,-120.5"/>
<text text-anchor="start" x="615" y="-149.5" font-family="Helvetica,sans-Serif" font-size="10.00">&#45;[KenshoLuaWrapper</text>
<text text-anchor="start" x="615" y="-138.5" font-family="Helvetica,sans-Serif" font-size="10.00"> initWithKensho:context</text>
<text text-anchor="middle" x="664" y="-127.5" font-family="Helvetica,sans-Serif" font-size="10.00">:code:]</text>
</a>
</g>
</g>
<!-- Node5&#45;&gt;Node6 -->
<g id="edge5" class="edge"><title>Node5&#45;&gt;Node6</title>
<path fill="none" stroke="midnightblue" d="M566.799,-104.635C580.233,-109.713 594.861,-115.243 608.563,-120.422"/>
<polygon fill="midnightblue" stroke="midnightblue" points="567.85,-101.291 557.259,-101.029 565.375,-107.839 567.85,-101.291"/>
</g>
<!-- Node7 -->
<g id="node7" class="node"><title>Node7</title>
<g id="a_node7"><a xlink:href="../../dc/de7/interface_kensho_lua_wrapper.html#a5555e0979799446611baee70104555c6" target="_top" xlink:title="&#45;[KenshoLuaWrapper\l evaluate:]">
<polygon fill="none" stroke="black" points="609.5,-71 609.5,-101 718.5,-101 718.5,-71 609.5,-71"/>
<text text-anchor="start" x="617.5" y="-89" font-family="Helvetica,sans-Serif" font-size="10.00">&#45;[KenshoLuaWrapper</text>
<text text-anchor="middle" x="664" y="-78" font-family="Helvetica,sans-Serif" font-size="10.00"> evaluate:]</text>
</a>
</g>
</g>
<!-- Node5&#45;&gt;Node7 -->
<g id="edge6" class="edge"><title>Node5&#45;&gt;Node7</title>
<path fill="none" stroke="midnightblue" d="M581.339,-86C590.723,-86 600.307,-86 609.456,-86"/>
<polygon fill="midnightblue" stroke="midnightblue" points="581.265,-82.5001 571.265,-86 581.265,-89.5001 581.265,-82.5001"/>
</g>
<!-- Node10 -->
<g id="node10" class="node"><title>Node10</title>
<g id="a_node10"><a xlink:href="../../dc/de7/interface_kensho_lua_wrapper.html#a0bb5e125d727942726d707f8b59009dc" target="_top" xlink:title="&#45;[KenshoLuaWrapper\l observableUpdated:]">
<polygon fill="none" stroke="black" points="609.5,-22 609.5,-52 718.5,-52 718.5,-22 609.5,-22"/>
<text text-anchor="start" x="617.5" y="-40" font-family="Helvetica,sans-Serif" font-size="10.00">&#45;[KenshoLuaWrapper</text>
<text text-anchor="middle" x="664" y="-29" font-family="Helvetica,sans-Serif" font-size="10.00"> observableUpdated:]</text>
</a>
</g>
</g>
<!-- Node5&#45;&gt;Node10 -->
<g id="edge10" class="edge"><title>Node5&#45;&gt;Node10</title>
<path fill="none" stroke="midnightblue" d="M572.153,-67.5945C587.376,-62.4678 603.729,-56.9608 618.306,-52.0516"/>
<polygon fill="midnightblue" stroke="midnightblue" points="570.702,-64.39 562.342,-70.8986 572.936,-71.0239 570.702,-64.39"/>
</g>
<!-- Node8 -->
<g id="node8" class="node"><title>Node8</title>
<g id="a_node8"><a xlink:href="../../da/d0b/interface_kensho.html#a07b4d14db676108e1a94a1f10e100fb4" target="_top" xlink:title="&#45;[Kensho bindToView\l:context:]">
<polygon fill="none" stroke="black" points="757,-71 757,-101 865,-101 865,-71 757,-71"/>
<text text-anchor="start" x="765" y="-89" font-family="Helvetica,sans-Serif" font-size="10.00">&#45;[Kensho bindToView</text>
<text text-anchor="middle" x="811" y="-78" font-family="Helvetica,sans-Serif" font-size="10.00">:context:]</text>
</a>
</g>
</g>
<!-- Node7&#45;&gt;Node8 -->
<g id="edge7" class="edge"><title>Node7&#45;&gt;Node8</title>
<path fill="none" stroke="midnightblue" d="M728.62,-86C737.971,-86 747.523,-86 756.64,-86"/>
<polygon fill="midnightblue" stroke="midnightblue" points="728.581,-82.5001 718.581,-86 728.581,-89.5001 728.581,-82.5001"/>
</g>
<!-- Node8&#45;&gt;Node8 -->
<g id="edge9" class="edge"><title>Node8&#45;&gt;Node8</title>
<path fill="none" stroke="midnightblue" d="M785.058,-111.458C788.277,-116.179 796.925,-119.5 811,-119.5 834.098,-119.5 842.579,-110.557 836.444,-101.159"/>
<polygon fill="midnightblue" stroke="midnightblue" points="788.568,-111.317 785.556,-101.159 781.577,-110.978 788.568,-111.317"/>
</g>
<!-- Node9 -->
<g id="node9" class="node"><title>Node9</title>
<g id="a_node9"><a xlink:href="../../da/d0b/interface_kensho.html#a1019e8223ee907bab87501ae483e609f" target="_top" xlink:title="&#45;[Kensho applyBindings\l:viewModel:]">
<polygon fill="none" stroke="black" points="901,-71 901,-101 1020,-101 1020,-71 901,-71"/>
<text text-anchor="start" x="909" y="-89" font-family="Helvetica,sans-Serif" font-size="10.00">&#45;[Kensho applyBindings</text>
<text text-anchor="middle" x="960.5" y="-78" font-family="Helvetica,sans-Serif" font-size="10.00">:viewModel:]</text>
</a>
</g>
</g>
<!-- Node8&#45;&gt;Node9 -->
<g id="edge8" class="edge"><title>Node8&#45;&gt;Node9</title>
<path fill="none" stroke="midnightblue" d="M875.421,-86C883.859,-86 892.481,-86 900.833,-86"/>
<polygon fill="midnightblue" stroke="midnightblue" points="875.251,-82.5001 865.251,-86 875.251,-89.5001 875.251,-82.5001"/>
</g>
<!-- Node11&#45;&gt;Node3 -->
<g id="edge12" class="edge"><title>Node11&#45;&gt;Node3</title>
<path fill="none" stroke="midnightblue" d="M345.232,-54.503C333.747,-54.8728 321.283,-54.8274 310.039,-54.3667"/>
<polygon fill="midnightblue" stroke="midnightblue" points="345.607,-57.9898 355.441,-54.0466 345.294,-50.9968 345.607,-57.9898"/>
</g>
</g>
</svg>
