<?xml version="1.0" encoding="UTF-8" standalone="no"?>
<!DOCTYPE svg PUBLIC "-//W3C//DTD SVG 1.1//EN"
 "http://www.w3.org/Graphics/SVG/1.1/DTD/svg11.dtd">
<!-- Generated by graphviz version 2.38.0 (20140413.2041)
 -->
<!-- Title: lua_setmetatable Pages: 1 -->
<svg width="937pt" height="370pt"
 viewBox="0.00 0.00 937.00 370.00" xmlns="http://www.w3.org/2000/svg" xmlns:xlink="http://www.w3.org/1999/xlink">
<g id="graph0" class="graph" transform="scale(1 1) rotate(0) translate(4 366)">
<title>lua_setmetatable</title>
<!-- Node1 -->
<g id="node1" class="node"><title>Node1</title>
<polygon fill="#bfbfbf" stroke="black" points="0,-209.5 0,-228.5 89,-228.5 89,-209.5 0,-209.5"/>
<text text-anchor="middle" x="44.5" y="-216.5" font-family="Helvetica,sans-Serif" font-size="10.00">lua_setmetatable</text>
</g>
<!-- Node2 -->
<g id="node2" class="node"><title>Node2</title>
<g id="a_node2"><a xlink:href="../../dc/d77/lstrlib_8c.html#a16d034da6b46e6beae228472f26ec07b" target="_top" xlink:title="createmetatable">
<polygon fill="none" stroke="black" points="131,-342.5 131,-361.5 215,-361.5 215,-342.5 131,-342.5"/>
<text text-anchor="middle" x="173" y="-349.5" font-family="Helvetica,sans-Serif" font-size="10.00">createmetatable</text>
</a>
</g>
</g>
<!-- Node1&#45;&gt;Node2 -->
<g id="edge1" class="edge"><title>Node1&#45;&gt;Node2</title>
<path fill="none" stroke="midnightblue" d="M54.2566,-237.778C66.7318,-262.682 91.8341,-306.562 125,-333 129.68,-336.731 135.19,-339.82 140.758,-342.345"/>
<polygon fill="midnightblue" stroke="midnightblue" points="57.3464,-236.128 49.8312,-228.66 51.049,-239.185 57.3464,-236.128"/>
</g>
<!-- Node4 -->
<g id="node4" class="node"><title>Node4</title>
<g id="a_node4"><a xlink:href="../../d8/d97/ldblib_8c.html#aa0c362d361f8f9bd8a002c34c393e2b0" target="_top" xlink:title="db_sethook">
<polygon fill="none" stroke="black" points="140,-304.5 140,-323.5 206,-323.5 206,-304.5 140,-304.5"/>
<text text-anchor="middle" x="173" y="-311.5" font-family="Helvetica,sans-Serif" font-size="10.00">db_sethook</text>
</a>
</g>
</g>
<!-- Node1&#45;&gt;Node4 -->
<g id="edge3" class="edge"><title>Node1&#45;&gt;Node4</title>
<path fill="none" stroke="midnightblue" d="M60.2797,-236.564C75.1943,-253.393 99.5957,-278.59 125,-295 130.619,-298.629 137.044,-301.778 143.301,-304.412"/>
<polygon fill="midnightblue" stroke="midnightblue" points="62.5852,-233.88 53.39,-228.617 57.2961,-238.466 62.5852,-233.88"/>
</g>
<!-- Node5 -->
<g id="node5" class="node"><title>Node5</title>
<g id="a_node5"><a xlink:href="../../d8/d97/ldblib_8c.html#a3595aee1af712c0ba9c586feb763bffc" target="_top" xlink:title="db_setmetatable">
<polygon fill="none" stroke="black" points="129,-266.5 129,-285.5 217,-285.5 217,-266.5 129,-266.5"/>
<text text-anchor="middle" x="173" y="-273.5" font-family="Helvetica,sans-Serif" font-size="10.00">db_setmetatable</text>
</a>
</g>
</g>
<!-- Node1&#45;&gt;Node5 -->
<g id="edge4" class="edge"><title>Node1&#45;&gt;Node5</title>
<path fill="none" stroke="midnightblue" d="M76.0317,-232.757C99.1447,-243.172 130.301,-257.211 150.758,-266.428"/>
<polygon fill="midnightblue" stroke="midnightblue" points="77.2283,-229.458 66.6733,-228.541 74.3526,-235.84 77.2283,-229.458"/>
</g>
<!-- Node6 -->
<g id="node6" class="node"><title>Node6</title>
<g id="a_node6"><a xlink:href="../../dc/de7/interface_kensho_lua_wrapper.html#a7d10aa0242861cdd109d3da9383882a2" target="_top" xlink:title="&#45;[KenshoLuaWrapper\l evaluate]">
<polygon fill="none" stroke="black" points="371,-216 371,-246 480,-246 480,-216 371,-216"/>
<text text-anchor="start" x="379" y="-234" font-family="Helvetica,sans-Serif" font-size="10.00">&#45;[KenshoLuaWrapper</text>
<text text-anchor="middle" x="425.5" y="-223" font-family="Helvetica,sans-Serif" font-size="10.00"> evaluate]</text>
</a>
</g>
</g>
<!-- Node1&#45;&gt;Node6 -->
<g id="edge5" class="edge"><title>Node1&#45;&gt;Node6</title>
<path fill="none" stroke="midnightblue" d="M99.58,-220.712C171.727,-222.997 298.71,-227.017 370.709,-229.297"/>
<polygon fill="midnightblue" stroke="midnightblue" points="99.4522,-217.207 89.3464,-220.388 99.2306,-224.203 99.4522,-217.207"/>
</g>
<!-- Node12 -->
<g id="node12" class="node"><title>Node12</title>
<g id="a_node12"><a xlink:href="../../d8/dd3/lbaselib_8c.html#af7799a987ba6d158a96a52e80fb5beaf" target="_top" xlink:title="luaB_setmetatable">
<polygon fill="none" stroke="black" points="125,-190.5 125,-209.5 221,-209.5 221,-190.5 125,-190.5"/>
<text text-anchor="middle" x="173" y="-197.5" font-family="Helvetica,sans-Serif" font-size="10.00">luaB_setmetatable</text>
</a>
</g>
</g>
<!-- Node1&#45;&gt;Node12 -->
<g id="edge12" class="edge"><title>Node1&#45;&gt;Node12</title>
<path fill="none" stroke="midnightblue" d="M98.9958,-210.965C107.612,-209.671 116.476,-208.34 124.927,-207.07"/>
<polygon fill="midnightblue" stroke="midnightblue" points="98.4033,-207.515 89.0341,-212.461 99.4431,-214.437 98.4033,-207.515"/>
</g>
<!-- Node13 -->
<g id="node13" class="node"><title>Node13</title>
<g id="a_node13"><a xlink:href="../../da/d29/lauxlib_8h.html#a4ef6497609d8cb52f8f4dc0ec489bb7a" target="_top" xlink:title="luaL_setmetatable">
<polygon fill="none" stroke="black" points="125.5,-76.5 125.5,-95.5 220.5,-95.5 220.5,-76.5 125.5,-76.5"/>
<text text-anchor="middle" x="173" y="-83.5" font-family="Helvetica,sans-Serif" font-size="10.00">luaL_setmetatable</text>
</a>
</g>
</g>
<!-- Node1&#45;&gt;Node13 -->
<g id="edge13" class="edge"><title>Node1&#45;&gt;Node13</title>
<path fill="none" stroke="midnightblue" d="M54.2566,-200.222C66.7318,-175.318 91.8341,-131.438 125,-105 129.68,-101.269 135.19,-98.1801 140.758,-95.6547"/>
<polygon fill="midnightblue" stroke="midnightblue" points="51.049,-198.815 49.8312,-209.34 57.3464,-201.872 51.049,-198.815"/>
</g>
<!-- Node26 -->
<g id="node26" class="node"><title>Node26</title>
<g id="a_node26"><a xlink:href="../../d6/d07/lualib_8h.html#a05e0befc0439f926b6152129ab4f8dea" target="_top" xlink:title="luaopen_package">
<polygon fill="none" stroke="black" points="126,-114.5 126,-133.5 220,-133.5 220,-114.5 126,-114.5"/>
<text text-anchor="middle" x="173" y="-121.5" font-family="Helvetica,sans-Serif" font-size="10.00">luaopen_package</text>
</a>
</g>
</g>
<!-- Node1&#45;&gt;Node26 -->
<g id="edge26" class="edge"><title>Node1&#45;&gt;Node26</title>
<path fill="none" stroke="midnightblue" d="M60.2797,-201.436C75.1943,-184.607 99.5957,-159.41 125,-143 130.619,-139.371 137.044,-136.222 143.301,-133.588"/>
<polygon fill="midnightblue" stroke="midnightblue" points="57.2961,-199.534 53.39,-209.383 62.5852,-204.12 57.2961,-199.534"/>
</g>
<!-- Node27 -->
<g id="node27" class="node"><title>Node27</title>
<g id="a_node27"><a xlink:href="../../d1/dc2/_kensho_lua_wrapper_8m.html#ac812f3eb3f83c6ada24f2dadeced6d68" target="_top" xlink:title="pushValue">
<polygon fill="none" stroke="black" points="141.5,-152.5 141.5,-171.5 204.5,-171.5 204.5,-152.5 141.5,-152.5"/>
<text text-anchor="middle" x="173" y="-159.5" font-family="Helvetica,sans-Serif" font-size="10.00">pushValue</text>
</a>
</g>
</g>
<!-- Node1&#45;&gt;Node27 -->
<g id="edge27" class="edge"><title>Node1&#45;&gt;Node27</title>
<path fill="none" stroke="midnightblue" d="M73.9209,-204.891C88.9952,-197.542 107.889,-188.539 125,-181 132.249,-177.806 140.21,-174.51 147.486,-171.577"/>
<polygon fill="midnightblue" stroke="midnightblue" points="72.0612,-201.905 64.6237,-209.451 75.1433,-208.19 72.0612,-201.905"/>
</g>
<!-- Node3 -->
<g id="node3" class="node"><title>Node3</title>
<g id="a_node3"><a xlink:href="../../d6/d07/lualib_8h.html#a3cc052c1be81497507ee76524482eaec" target="_top" xlink:title="luaopen_string">
<polygon fill="none" stroke="black" points="257,-342.5 257,-361.5 335,-361.5 335,-342.5 257,-342.5"/>
<text text-anchor="middle" x="296" y="-349.5" font-family="Helvetica,sans-Serif" font-size="10.00">luaopen_string</text>
</a>
</g>
</g>
<!-- Node2&#45;&gt;Node3 -->
<g id="edge2" class="edge"><title>Node2&#45;&gt;Node3</title>
<path fill="none" stroke="midnightblue" d="M225.583,-352C236.031,-352 246.843,-352 256.733,-352"/>
<polygon fill="midnightblue" stroke="midnightblue" points="225.303,-348.5 215.303,-352 225.303,-355.5 225.303,-348.5"/>
</g>
<!-- Node7 -->
<g id="node7" class="node"><title>Node7</title>
<g id="a_node7"><a xlink:href="../../dc/de7/interface_kensho_lua_wrapper.html#af6db46358f8858a18b55388aa3af211d" target="_top" xlink:title="&#45;[KenshoLuaWrapper\l initWithKensho:context\l:code:]">
<polygon fill="none" stroke="black" points="516,-210.5 516,-251.5 630,-251.5 630,-210.5 516,-210.5"/>
<text text-anchor="start" x="524" y="-239.5" font-family="Helvetica,sans-Serif" font-size="10.00">&#45;[KenshoLuaWrapper</text>
<text text-anchor="start" x="524" y="-228.5" font-family="Helvetica,sans-Serif" font-size="10.00"> initWithKensho:context</text>
<text text-anchor="middle" x="573" y="-217.5" font-family="Helvetica,sans-Serif" font-size="10.00">:code:]</text>
</a>
</g>
</g>
<!-- Node6&#45;&gt;Node7 -->
<g id="edge6" class="edge"><title>Node6&#45;&gt;Node7</title>
<path fill="none" stroke="midnightblue" d="M490.374,-231C498.751,-231 507.287,-231 515.53,-231"/>
<polygon fill="midnightblue" stroke="midnightblue" points="490.265,-227.5 480.265,-231 490.265,-234.5 490.265,-227.5"/>
</g>
<!-- Node8 -->
<g id="node8" class="node"><title>Node8</title>
<g id="a_node8"><a xlink:href="../../dc/de7/interface_kensho_lua_wrapper.html#a5555e0979799446611baee70104555c6" target="_top" xlink:title="&#45;[KenshoLuaWrapper\l evaluate:]">
<polygon fill="none" stroke="black" points="518.5,-161 518.5,-191 627.5,-191 627.5,-161 518.5,-161"/>
<text text-anchor="start" x="526.5" y="-179" font-family="Helvetica,sans-Serif" font-size="10.00">&#45;[KenshoLuaWrapper</text>
<text text-anchor="middle" x="573" y="-168" font-family="Helvetica,sans-Serif" font-size="10.00"> evaluate:]</text>
</a>
</g>
</g>
<!-- Node6&#45;&gt;Node8 -->
<g id="edge7" class="edge"><title>Node6&#45;&gt;Node8</title>
<path fill="none" stroke="midnightblue" d="M475.666,-212.415C494.106,-205.445 514.813,-197.617 532.29,-191.011"/>
<polygon fill="midnightblue" stroke="midnightblue" points="474.375,-209.161 466.259,-215.971 476.85,-215.709 474.375,-209.161"/>
</g>
<!-- Node11 -->
<g id="node11" class="node"><title>Node11</title>
<g id="a_node11"><a xlink:href="../../dc/de7/interface_kensho_lua_wrapper.html#a0bb5e125d727942726d707f8b59009dc" target="_top" xlink:title="&#45;[KenshoLuaWrapper\l observableUpdated:]">
<polygon fill="none" stroke="black" points="518.5,-271 518.5,-301 627.5,-301 627.5,-271 518.5,-271"/>
<text text-anchor="start" x="526.5" y="-289" font-family="Helvetica,sans-Serif" font-size="10.00">&#45;[KenshoLuaWrapper</text>
<text text-anchor="middle" x="573" y="-278" font-family="Helvetica,sans-Serif" font-size="10.00"> observableUpdated:]</text>
</a>
</g>
</g>
<!-- Node6&#45;&gt;Node11 -->
<g id="edge11" class="edge"><title>Node6&#45;&gt;Node11</title>
<path fill="none" stroke="midnightblue" d="M475.666,-249.585C494.106,-256.555 514.813,-264.383 532.29,-270.989"/>
<polygon fill="midnightblue" stroke="midnightblue" points="476.85,-246.291 466.259,-246.029 474.375,-252.839 476.85,-246.291"/>
</g>
<!-- Node9 -->
<g id="node9" class="node"><title>Node9</title>
<g id="a_node9"><a xlink:href="../../da/d0b/interface_kensho.html#a07b4d14db676108e1a94a1f10e100fb4" target="_top" xlink:title="&#45;[Kensho bindToView\l:context:]">
<polygon fill="none" stroke="black" points="666,-161 666,-191 774,-191 774,-161 666,-161"/>
<text text-anchor="start" x="674" y="-179" font-family="Helvetica,sans-Serif" font-size="10.00">&#45;[Kensho bindToView</text>
<text text-anchor="middle" x="720" y="-168" font-family="Helvetica,sans-Serif" font-size="10.00">:context:]</text>
</a>
</g>
</g>
<!-- Node8&#45;&gt;Node9 -->
<g id="edge8" class="edge"><title>Node8&#45;&gt;Node9</title>
<path fill="none" stroke="midnightblue" d="M637.62,-176C646.971,-176 656.523,-176 665.64,-176"/>
<polygon fill="midnightblue" stroke="midnightblue" points="637.581,-172.5 627.581,-176 637.581,-179.5 637.581,-172.5"/>
</g>
<!-- Node9&#45;&gt;Node9 -->
<g id="edge10" class="edge"><title>Node9&#45;&gt;Node9</title>
<path fill="none" stroke="midnightblue" d="M694.058,-201.458C697.277,-206.179 705.925,-209.5 720,-209.5 743.098,-209.5 751.579,-200.557 745.444,-191.159"/>
<polygon fill="midnightblue" stroke="midnightblue" points="697.568,-201.317 694.556,-191.159 690.577,-200.978 697.568,-201.317"/>
</g>
<!-- Node10 -->
<g id="node10" class="node"><title>Node10</title>
<g id="a_node10"><a xlink:href="../../da/d0b/interface_kensho.html#a1019e8223ee907bab87501ae483e609f" target="_top" xlink:title="&#45;[Kensho applyBindings\l:viewModel:]">
<polygon fill="none" stroke="black" points="810,-161 810,-191 929,-191 929,-161 810,-161"/>
<text text-anchor="start" x="818" y="-179" font-family="Helvetica,sans-Serif" font-size="10.00">&#45;[Kensho applyBindings</text>
<text text-anchor="middle" x="869.5" y="-168" font-family="Helvetica,sans-Serif" font-size="10.00">:viewModel:]</text>
</a>
</g>
</g>
<!-- Node9&#45;&gt;Node10 -->
<g id="edge9" class="edge"><title>Node9&#45;&gt;Node10</title>
<path fill="none" stroke="midnightblue" d="M784.421,-176C792.859,-176 801.481,-176 809.833,-176"/>
<polygon fill="midnightblue" stroke="midnightblue" points="784.251,-172.5 774.251,-176 784.251,-179.5 784.251,-172.5"/>
</g>
<!-- Node14 -->
<g id="node14" class="node"><title>Node14</title>
<g id="a_node14"><a xlink:href="../../de/df3/liolib_8c.html#ab456fc51383d039a5a24c702060aba8e" target="_top" xlink:title="newprefile">
<polygon fill="none" stroke="black" points="266.5,-76.5 266.5,-95.5 325.5,-95.5 325.5,-76.5 266.5,-76.5"/>
<text text-anchor="middle" x="296" y="-83.5" font-family="Helvetica,sans-Serif" font-size="10.00">newprefile</text>
</a>
</g>
</g>
<!-- Node13&#45;&gt;Node14 -->
<g id="edge14" class="edge"><title>Node13&#45;&gt;Node14</title>
<path fill="none" stroke="midnightblue" d="M230.953,-86C243.168,-86 255.576,-86 266.177,-86"/>
<polygon fill="midnightblue" stroke="midnightblue" points="230.782,-82.5001 220.782,-86 230.782,-89.5001 230.782,-82.5001"/>
</g>
<!-- Node15 -->
<g id="node15" class="node"><title>Node15</title>
<g id="a_node15"><a xlink:href="../../de/df3/liolib_8c.html#a0a80ad2f9dbb3b7238efae7738bb7569" target="_top" xlink:title="createstdfile">
<polygon fill="none" stroke="black" points="393,-114.5 393,-133.5 458,-133.5 458,-114.5 393,-114.5"/>
<text text-anchor="middle" x="425.5" y="-121.5" font-family="Helvetica,sans-Serif" font-size="10.00">createstdfile</text>
</a>
</g>
</g>
<!-- Node14&#45;&gt;Node15 -->
<g id="edge15" class="edge"><title>Node14&#45;&gt;Node15</title>
<path fill="none" stroke="midnightblue" d="M335.416,-97.4495C353.767,-102.919 375.464,-109.385 392.85,-114.567"/>
<polygon fill="midnightblue" stroke="midnightblue" points="336.197,-94.03 325.613,-94.5279 334.197,-100.738 336.197,-94.03"/>
</g>
<!-- Node17 -->
<g id="node17" class="node"><title>Node17</title>
<g id="a_node17"><a xlink:href="../../de/df3/liolib_8c.html#a8cc0b2b08409fb97e5cc80a0caf9b5fd" target="_top" xlink:title="io_popen">
<polygon fill="none" stroke="black" points="397.5,-76.5 397.5,-95.5 453.5,-95.5 453.5,-76.5 397.5,-76.5"/>
<text text-anchor="middle" x="425.5" y="-83.5" font-family="Helvetica,sans-Serif" font-size="10.00">io_popen</text>
</a>
</g>
</g>
<!-- Node14&#45;&gt;Node17 -->
<g id="edge17" class="edge"><title>Node14&#45;&gt;Node17</title>
<path fill="none" stroke="midnightblue" d="M335.618,-86C355.528,-86 379.332,-86 397.292,-86"/>
<polygon fill="midnightblue" stroke="midnightblue" points="335.614,-82.5001 325.613,-86 335.613,-89.5001 335.614,-82.5001"/>
</g>
<!-- Node18 -->
<g id="node18" class="node"><title>Node18</title>
<g id="a_node18"><a xlink:href="../../de/df3/liolib_8c.html#a57c6c258a611b738f0ef34584ca6e7ab" target="_top" xlink:title="newfile">
<polygon fill="none" stroke="black" points="402.5,-38.5 402.5,-57.5 448.5,-57.5 448.5,-38.5 402.5,-38.5"/>
<text text-anchor="middle" x="425.5" y="-45.5" font-family="Helvetica,sans-Serif" font-size="10.00">newfile</text>
</a>
</g>
</g>
<!-- Node14&#45;&gt;Node18 -->
<g id="edge18" class="edge"><title>Node14&#45;&gt;Node18</title>
<path fill="none" stroke="midnightblue" d="M335.289,-74.5885C357.182,-68.0633 383.87,-60.1093 402.321,-54.6103"/>
<polygon fill="midnightblue" stroke="midnightblue" points="334.197,-71.2616 325.613,-77.4721 336.197,-77.97 334.197,-71.2616"/>
</g>
<!-- Node16 -->
<g id="node16" class="node"><title>Node16</title>
<g id="a_node16"><a xlink:href="../../d6/d07/lualib_8h.html#a686b841d953f3113ddc7538d69debce7" target="_top" xlink:title="luaopen_io">
<polygon fill="none" stroke="black" points="541.5,-114.5 541.5,-133.5 604.5,-133.5 604.5,-114.5 541.5,-114.5"/>
<text text-anchor="middle" x="573" y="-121.5" font-family="Helvetica,sans-Serif" font-size="10.00">luaopen_io</text>
</a>
</g>
</g>
<!-- Node15&#45;&gt;Node16 -->
<g id="edge16" class="edge"><title>Node15&#45;&gt;Node16</title>
<path fill="none" stroke="midnightblue" d="M468.385,-124C491.727,-124 520.273,-124 541.487,-124"/>
<polygon fill="midnightblue" stroke="midnightblue" points="468.071,-120.5 458.071,-124 468.071,-127.5 468.071,-120.5"/>
</g>
<!-- Node19 -->
<g id="node19" class="node"><title>Node19</title>
<g id="a_node19"><a xlink:href="../../de/df3/liolib_8c.html#ab4a969d43dbe0f89e98307e5b421f8a7" target="_top" xlink:title="io_open">
<polygon fill="none" stroke="black" points="548,-38.5 548,-57.5 598,-57.5 598,-38.5 548,-38.5"/>
<text text-anchor="middle" x="573" y="-45.5" font-family="Helvetica,sans-Serif" font-size="10.00">io_open</text>
</a>
</g>
</g>
<!-- Node18&#45;&gt;Node19 -->
<g id="edge19" class="edge"><title>Node18&#45;&gt;Node19</title>
<path fill="none" stroke="midnightblue" d="M458.677,-48C485.574,-48 523.346,-48 547.749,-48"/>
<polygon fill="midnightblue" stroke="midnightblue" points="458.598,-44.5001 448.598,-48 458.598,-51.5001 458.598,-44.5001"/>
</g>
<!-- Node20 -->
<g id="node20" class="node"><title>Node20</title>
<g id="a_node20"><a xlink:href="../../de/df3/liolib_8c.html#a0347de9dda8be02044075c96482eddb3" target="_top" xlink:title="io_tmpfile">
<polygon fill="none" stroke="black" points="545.5,-0.5 545.5,-19.5 600.5,-19.5 600.5,-0.5 545.5,-0.5"/>
<text text-anchor="middle" x="573" y="-7.5" font-family="Helvetica,sans-Serif" font-size="10.00">io_tmpfile</text>
</a>
</g>
</g>
<!-- Node18&#45;&gt;Node20 -->
<g id="edge20" class="edge"><title>Node18&#45;&gt;Node20</title>
<path fill="none" stroke="midnightblue" d="M458.391,-39.6711C484.491,-32.8546 520.975,-23.3262 545.491,-16.9232"/>
<polygon fill="midnightblue" stroke="midnightblue" points="457.389,-36.3152 448.598,-42.2286 459.158,-43.088 457.389,-36.3152"/>
</g>
<!-- Node21 -->
<g id="node21" class="node"><title>Node21</title>
<g id="a_node21"><a xlink:href="../../de/df3/liolib_8c.html#a91ec9c6fa0ef33085f29a15532ac80a7" target="_top" xlink:title="opencheck">
<polygon fill="none" stroke="black" points="542,-76.5 542,-95.5 604,-95.5 604,-76.5 542,-76.5"/>
<text text-anchor="middle" x="573" y="-83.5" font-family="Helvetica,sans-Serif" font-size="10.00">opencheck</text>
</a>
</g>
</g>
<!-- Node18&#45;&gt;Node21 -->
<g id="edge21" class="edge"><title>Node18&#45;&gt;Node21</title>
<path fill="none" stroke="midnightblue" d="M458.278,-56.2993C483.121,-62.7876 517.423,-71.7463 541.843,-78.1239"/>
<polygon fill="midnightblue" stroke="midnightblue" points="459.158,-52.912 448.598,-53.7714 457.389,-59.6848 459.158,-52.912"/>
</g>
<!-- Node22 -->
<g id="node22" class="node"><title>Node22</title>
<g id="a_node22"><a xlink:href="../../de/df3/liolib_8c.html#aae942558ff528b4e1a483297c64e6886" target="_top" xlink:title="g_iofile">
<polygon fill="none" stroke="black" points="698,-57.5 698,-76.5 742,-76.5 742,-57.5 698,-57.5"/>
<text text-anchor="middle" x="720" y="-64.5" font-family="Helvetica,sans-Serif" font-size="10.00">g_iofile</text>
</a>
</g>
</g>
<!-- Node21&#45;&gt;Node22 -->
<g id="edge22" class="edge"><title>Node21&#45;&gt;Node22</title>
<path fill="none" stroke="midnightblue" d="M614.033,-80.7543C641.187,-77.1962 675.999,-72.6347 697.908,-69.7637"/>
<polygon fill="midnightblue" stroke="midnightblue" points="613.505,-77.2935 604.044,-82.0632 614.414,-84.2342 613.505,-77.2935"/>
</g>
<!-- Node25 -->
<g id="node25" class="node"><title>Node25</title>
<g id="a_node25"><a xlink:href="../../de/df3/liolib_8c.html#ab08031b51605d4ef676ec33a3b96a286" target="_top" xlink:title="io_lines">
<polygon fill="none" stroke="black" points="696.5,-95.5 696.5,-114.5 743.5,-114.5 743.5,-95.5 696.5,-95.5"/>
<text text-anchor="middle" x="720" y="-102.5" font-family="Helvetica,sans-Serif" font-size="10.00">io_lines</text>
</a>
</g>
</g>
<!-- Node21&#45;&gt;Node25 -->
<g id="edge25" class="edge"><title>Node21&#45;&gt;Node25</title>
<path fill="none" stroke="midnightblue" d="M614.137,-91.2594C640.551,-94.7204 674.174,-99.1263 696.127,-102.003"/>
<polygon fill="midnightblue" stroke="midnightblue" points="614.414,-87.7658 604.044,-89.9368 613.505,-94.7065 614.414,-87.7658"/>
</g>
<!-- Node23 -->
<g id="node23" class="node"><title>Node23</title>
<g id="a_node23"><a xlink:href="../../de/df3/liolib_8c.html#a827044fde6f2c21ab965ba3d729f6a0f" target="_top" xlink:title="io_input">
<polygon fill="none" stroke="black" points="845,-38.5 845,-57.5 894,-57.5 894,-38.5 845,-38.5"/>
<text text-anchor="middle" x="869.5" y="-45.5" font-family="Helvetica,sans-Serif" font-size="10.00">io_input</text>
</a>
</g>
</g>
<!-- Node22&#45;&gt;Node23 -->
<g id="edge23" class="edge"><title>Node22&#45;&gt;Node23</title>
<path fill="none" stroke="midnightblue" d="M752.105,-62.9933C779.835,-59.4213 819.82,-54.2707 844.968,-51.0313"/>
<polygon fill="midnightblue" stroke="midnightblue" points="751.604,-59.5288 742.133,-64.2778 752.498,-66.4714 751.604,-59.5288"/>
</g>
<!-- Node24 -->
<g id="node24" class="node"><title>Node24</title>
<g id="a_node24"><a xlink:href="../../de/df3/liolib_8c.html#a4464f89f0151ad432557b0a51258582c" target="_top" xlink:title="io_output">
<polygon fill="none" stroke="black" points="842,-76.5 842,-95.5 897,-95.5 897,-76.5 842,-76.5"/>
<text text-anchor="middle" x="869.5" y="-83.5" font-family="Helvetica,sans-Serif" font-size="10.00">io_output</text>
</a>
</g>
</g>
<!-- Node22&#45;&gt;Node24 -->
<g id="edge24" class="edge"><title>Node22&#45;&gt;Node24</title>
<path fill="none" stroke="midnightblue" d="M752.085,-71.0042C778.719,-74.435 816.668,-79.3234 841.914,-82.5754"/>
<polygon fill="midnightblue" stroke="midnightblue" points="752.498,-67.5286 742.133,-69.7222 751.604,-74.4712 752.498,-67.5286"/>
</g>
<!-- Node28 -->
<g id="node28" class="node"><title>Node28</title>
<g id="a_node28"><a xlink:href="../../d1/dc2/_kensho_lua_wrapper_8m.html#ad10bf0ff4feac9642e7477e282be41fe" target="_top" xlink:title="lookupKey">
<polygon fill="none" stroke="black" points="265,-152.5 265,-171.5 327,-171.5 327,-152.5 265,-152.5"/>
<text text-anchor="middle" x="296" y="-159.5" font-family="Helvetica,sans-Serif" font-size="10.00">lookupKey</text>
</a>
</g>
</g>
<!-- Node27&#45;&gt;Node28 -->
<g id="edge28" class="edge"><title>Node27&#45;&gt;Node28</title>
<path fill="none" stroke="midnightblue" d="M214.922,-155.574C231.289,-155.014 249.798,-155.18 264.896,-156.073"/>
<polygon fill="midnightblue" stroke="midnightblue" points="214.364,-152.096 204.533,-156.048 214.682,-159.089 214.364,-152.096"/>
</g>
<!-- Node28&#45;&gt;Node6 -->
<g id="edge29" class="edge"><title>Node28&#45;&gt;Node6</title>
<path fill="none" stroke="midnightblue" d="M323.602,-176.397C344.981,-187.966 374.92,-204.168 396.628,-215.916"/>
<polygon fill="midnightblue" stroke="midnightblue" points="325.189,-173.276 314.728,-171.594 321.857,-179.432 325.189,-173.276"/>
</g>
<!-- Node28&#45;&gt;Node27 -->
<g id="edge30" class="edge"><title>Node28&#45;&gt;Node27</title>
<path fill="none" stroke="midnightblue" d="M254.542,-168.409C238.216,-168.984 219.695,-168.832 204.533,-167.952"/>
<polygon fill="midnightblue" stroke="midnightblue" points="255.069,-171.889 264.896,-167.927 254.743,-164.896 255.069,-171.889"/>
</g>
</g>
</svg>
