<?xml version="1.0" encoding="UTF-8" standalone="no"?>
<!DOCTYPE svg PUBLIC "-//W3C//DTD SVG 1.1//EN"
 "http://www.w3.org/Graphics/SVG/1.1/DTD/svg11.dtd">
<!-- Generated by graphviz version 2.38.0 (20140413.2041)
 -->
<!-- Title: lua_len Pages: 1 -->
<svg width="811pt" height="142pt"
 viewBox="0.00 0.00 811.00 142.00" xmlns="http://www.w3.org/2000/svg" xmlns:xlink="http://www.w3.org/1999/xlink">
<g id="graph0" class="graph" transform="scale(1 1) rotate(0) translate(4 138)">
<title>lua_len</title>
<!-- Node1 -->
<g id="node1" class="node"><title>Node1</title>
<polygon fill="#bfbfbf" stroke="black" points="0,-57.5 0,-76.5 47,-76.5 47,-57.5 0,-57.5"/>
<text text-anchor="middle" x="23.5" y="-64.5" font-family="Helvetica,sans-Serif" font-size="10.00">lua_len</text>
</g>
<!-- Node2 -->
<g id="node2" class="node"><title>Node2</title>
<g id="a_node2"><a xlink:href="../../da/d29/lauxlib_8h.html#a6f33f64067614a25031412f405a77873" target="_top" xlink:title="luaL_len">
<polygon fill="none" stroke="black" points="83,-57.5 83,-76.5 135,-76.5 135,-57.5 83,-57.5"/>
<text text-anchor="middle" x="109" y="-64.5" font-family="Helvetica,sans-Serif" font-size="10.00">luaL_len</text>
</a>
</g>
</g>
<!-- Node1&#45;&gt;Node2 -->
<g id="edge1" class="edge"><title>Node1&#45;&gt;Node2</title>
<path fill="none" stroke="midnightblue" d="M57.3219,-67C65.8172,-67 74.8299,-67 82.8623,-67"/>
<polygon fill="midnightblue" stroke="midnightblue" points="57.3168,-63.5001 47.3167,-67 57.3167,-70.5001 57.3168,-63.5001"/>
</g>
<!-- Node3 -->
<g id="node3" class="node"><title>Node3</title>
<g id="a_node3"><a xlink:href="../../d2/d82/loadlib_8c.html#a59926ced6bee14c7b952ef79d3520084" target="_top" xlink:title="gctm">
<polygon fill="none" stroke="black" points="281,-114.5 281,-133.5 317,-133.5 317,-114.5 281,-114.5"/>
<text text-anchor="middle" x="299" y="-121.5" font-family="Helvetica,sans-Serif" font-size="10.00">gctm</text>
</a>
</g>
</g>
<!-- Node2&#45;&gt;Node3 -->
<g id="edge2" class="edge"><title>Node2&#45;&gt;Node3</title>
<path fill="none" stroke="midnightblue" d="M130.599,-82.8007C141.932,-90.7039 156.588,-99.693 171,-105 208.448,-118.789 255.619,-122.584 280.607,-123.62"/>
<polygon fill="midnightblue" stroke="midnightblue" points="132.443,-79.8151 122.291,-76.7863 128.339,-85.4853 132.443,-79.8151"/>
</g>
<!-- Node5 -->
<g id="node5" class="node"><title>Node5</title>
<g id="a_node5"><a xlink:href="../../d2/d82/loadlib_8c.html#a7a6ec2174d2de185431876163cd2d469" target="_top" xlink:title="ll_addtoclib">
<polygon fill="none" stroke="black" points="171,-76.5 171,-95.5 233,-95.5 233,-76.5 171,-76.5"/>
<text text-anchor="middle" x="202" y="-83.5" font-family="Helvetica,sans-Serif" font-size="10.00">ll_addtoclib</text>
</a>
</g>
</g>
<!-- Node2&#45;&gt;Node5 -->
<g id="edge4" class="edge"><title>Node2&#45;&gt;Node5</title>
<path fill="none" stroke="midnightblue" d="M145.339,-74.3785C153.799,-76.1449 162.754,-78.0145 170.949,-79.7256"/>
<polygon fill="midnightblue" stroke="midnightblue" points="145.853,-70.9104 135.349,-72.2926 144.422,-77.7626 145.853,-70.9104"/>
</g>
<!-- Node12 -->
<g id="node12" class="node"><title>Node12</title>
<g id="a_node12"><a xlink:href="../../d0/da1/ltablib_8c.html#add6973c515a288f41265aca8e0ae6412" target="_top" xlink:title="tconcat">
<polygon fill="none" stroke="black" points="178.5,-38.5 178.5,-57.5 225.5,-57.5 225.5,-38.5 178.5,-38.5"/>
<text text-anchor="middle" x="202" y="-45.5" font-family="Helvetica,sans-Serif" font-size="10.00">tconcat</text>
</a>
</g>
</g>
<!-- Node2&#45;&gt;Node12 -->
<g id="edge13" class="edge"><title>Node2&#45;&gt;Node12</title>
<path fill="none" stroke="midnightblue" d="M145.22,-59.6465C156.32,-57.3287 168.282,-54.8311 178.272,-52.7455"/>
<polygon fill="midnightblue" stroke="midnightblue" points="144.422,-56.2374 135.349,-61.7074 145.853,-63.0896 144.422,-56.2374"/>
</g>
<!-- Node13 -->
<g id="node13" class="node"><title>Node13</title>
<g id="a_node13"><a xlink:href="../../d0/da1/ltablib_8c.html#aab557c98c16305370f73c4c716f5725d" target="_top" xlink:title="unpack">
<polygon fill="none" stroke="black" points="178,-0.5 178,-19.5 226,-19.5 226,-0.5 178,-0.5"/>
<text text-anchor="middle" x="202" y="-7.5" font-family="Helvetica,sans-Serif" font-size="10.00">unpack</text>
</a>
</g>
</g>
<!-- Node2&#45;&gt;Node13 -->
<g id="edge14" class="edge"><title>Node2&#45;&gt;Node13</title>
<path fill="none" stroke="midnightblue" d="M133.98,-51.9794C150.394,-41.6982 171.663,-28.3762 185.791,-19.5265"/>
<polygon fill="midnightblue" stroke="midnightblue" points="132.054,-49.0562 125.437,-57.3307 135.77,-54.9885 132.054,-49.0562"/>
</g>
<!-- Node4 -->
<g id="node4" class="node"><title>Node4</title>
<g id="a_node4"><a xlink:href="../../d6/d07/lualib_8h.html#a05e0befc0439f926b6152129ab4f8dea" target="_top" xlink:title="luaopen_package">
<polygon fill="none" stroke="black" points="709,-95.5 709,-114.5 803,-114.5 803,-95.5 709,-95.5"/>
<text text-anchor="middle" x="756" y="-102.5" font-family="Helvetica,sans-Serif" font-size="10.00">luaopen_package</text>
</a>
</g>
</g>
<!-- Node3&#45;&gt;Node4 -->
<g id="edge3" class="edge"><title>Node3&#45;&gt;Node4</title>
<path fill="none" stroke="midnightblue" d="M327.078,-122.869C402.277,-119.729 614.329,-110.874 708.704,-106.933"/>
<polygon fill="midnightblue" stroke="midnightblue" points="326.851,-119.376 317.006,-123.29 327.143,-126.369 326.851,-119.376"/>
</g>
<!-- Node6 -->
<g id="node6" class="node"><title>Node6</title>
<g id="a_node6"><a xlink:href="../../d2/d82/loadlib_8c.html#a21b83479d4a62aa393b19bcb08e71889" target="_top" xlink:title="ll_loadfunc">
<polygon fill="none" stroke="black" points="269,-76.5 269,-95.5 329,-95.5 329,-76.5 269,-76.5"/>
<text text-anchor="middle" x="299" y="-83.5" font-family="Helvetica,sans-Serif" font-size="10.00">ll_loadfunc</text>
</a>
</g>
</g>
<!-- Node5&#45;&gt;Node6 -->
<g id="edge5" class="edge"><title>Node5&#45;&gt;Node6</title>
<path fill="none" stroke="midnightblue" d="M243.272,-86C251.839,-86 260.727,-86 268.786,-86"/>
<polygon fill="midnightblue" stroke="midnightblue" points="243.059,-82.5001 233.059,-86 243.059,-89.5001 243.059,-82.5001"/>
</g>
<!-- Node7 -->
<g id="node7" class="node"><title>Node7</title>
<g id="a_node7"><a xlink:href="../../d2/d82/loadlib_8c.html#aac7e69bc5b4403e49e2609425f0fb7b0" target="_top" xlink:title="ll_loadlib">
<polygon fill="none" stroke="black" points="365,-76.5 365,-95.5 417,-95.5 417,-76.5 365,-76.5"/>
<text text-anchor="middle" x="391" y="-83.5" font-family="Helvetica,sans-Serif" font-size="10.00">ll_loadlib</text>
</a>
</g>
</g>
<!-- Node6&#45;&gt;Node7 -->
<g id="edge6" class="edge"><title>Node6&#45;&gt;Node7</title>
<path fill="none" stroke="midnightblue" d="M339.728,-86C348.313,-86 357.158,-86 364.99,-86"/>
<polygon fill="midnightblue" stroke="midnightblue" points="339.469,-82.5001 329.469,-86 339.469,-89.5001 339.469,-82.5001"/>
</g>
<!-- Node8 -->
<g id="node8" class="node"><title>Node8</title>
<g id="a_node8"><a xlink:href="../../d2/d82/loadlib_8c.html#a91ac5b5231cf039af46226806dcc3884" target="_top" xlink:title="loadfunc">
<polygon fill="none" stroke="black" points="365,-38.5 365,-57.5 417,-57.5 417,-38.5 365,-38.5"/>
<text text-anchor="middle" x="391" y="-45.5" font-family="Helvetica,sans-Serif" font-size="10.00">loadfunc</text>
</a>
</g>
</g>
<!-- Node6&#45;&gt;Node8 -->
<g id="edge7" class="edge"><title>Node6&#45;&gt;Node8</title>
<path fill="none" stroke="midnightblue" d="M332.113,-72.4413C343.748,-67.5286 356.639,-62.0859 367.296,-57.5859"/>
<polygon fill="midnightblue" stroke="midnightblue" points="330.562,-69.2968 322.711,-76.411 333.285,-75.7456 330.562,-69.2968"/>
</g>
<!-- Node9 -->
<g id="node9" class="node"><title>Node9</title>
<g id="a_node9"><a xlink:href="../../d2/d82/loadlib_8c.html#a9a915ea950c831cee2f1e7b0a3bd9005" target="_top" xlink:title="searcher_C">
<polygon fill="none" stroke="black" points="460.5,-76.5 460.5,-95.5 525.5,-95.5 525.5,-76.5 460.5,-76.5"/>
<text text-anchor="middle" x="493" y="-83.5" font-family="Helvetica,sans-Serif" font-size="10.00">searcher_C</text>
</a>
</g>
</g>
<!-- Node8&#45;&gt;Node9 -->
<g id="edge8" class="edge"><title>Node8&#45;&gt;Node9</title>
<path fill="none" stroke="midnightblue" d="M426.907,-61.2646C440.035,-66.2533 454.695,-71.8241 466.774,-76.4141"/>
<polygon fill="midnightblue" stroke="midnightblue" points="427.825,-57.8695 417.234,-57.589 425.339,-64.413 427.825,-57.8695"/>
</g>
<!-- Node11 -->
<g id="node11" class="node"><title>Node11</title>
<g id="a_node11"><a xlink:href="../../d2/d82/loadlib_8c.html#a1ec05cd98a045c271aeda9f9c6041e1c" target="_top" xlink:title="searcher_Croot">
<polygon fill="none" stroke="black" points="453,-38.5 453,-57.5 533,-57.5 533,-38.5 453,-38.5"/>
<text text-anchor="middle" x="493" y="-45.5" font-family="Helvetica,sans-Serif" font-size="10.00">searcher_Croot</text>
</a>
</g>
</g>
<!-- Node8&#45;&gt;Node11 -->
<g id="edge11" class="edge"><title>Node8&#45;&gt;Node11</title>
<path fill="none" stroke="midnightblue" d="M427.284,-48C435.526,-48 444.353,-48 452.755,-48"/>
<polygon fill="midnightblue" stroke="midnightblue" points="427.234,-44.5001 417.234,-48 427.234,-51.5001 427.234,-44.5001"/>
</g>
<!-- Node10 -->
<g id="node10" class="node"><title>Node10</title>
<g id="a_node10"><a xlink:href="../../d2/d82/loadlib_8c.html#a8fc66c8b852ee2960dc20797521d1d9e" target="_top" xlink:title="createsearcherstable">
<polygon fill="none" stroke="black" points="569,-76.5 569,-95.5 673,-95.5 673,-76.5 569,-76.5"/>
<text text-anchor="middle" x="621" y="-83.5" font-family="Helvetica,sans-Serif" font-size="10.00">createsearcherstable</text>
</a>
</g>
</g>
<!-- Node9&#45;&gt;Node10 -->
<g id="edge9" class="edge"><title>Node9&#45;&gt;Node10</title>
<path fill="none" stroke="midnightblue" d="M535.921,-86C546.389,-86 557.735,-86 568.603,-86"/>
<polygon fill="midnightblue" stroke="midnightblue" points="535.795,-82.5001 525.795,-86 535.795,-89.5001 535.795,-82.5001"/>
</g>
<!-- Node10&#45;&gt;Node4 -->
<g id="edge10" class="edge"><title>Node10&#45;&gt;Node4</title>
<path fill="none" stroke="midnightblue" d="M683.056,-94.7223C691.666,-95.9523 700.398,-97.1997 708.67,-98.3814"/>
<polygon fill="midnightblue" stroke="midnightblue" points="683.435,-91.241 673.041,-93.2916 682.445,-98.1707 683.435,-91.241"/>
</g>
<!-- Node11&#45;&gt;Node10 -->
<g id="edge12" class="edge"><title>Node11&#45;&gt;Node10</title>
<path fill="none" stroke="midnightblue" d="M535.564,-60.5353C552.705,-65.7048 572.25,-71.5991 588.215,-76.4141"/>
<polygon fill="midnightblue" stroke="midnightblue" points="536.38,-57.1256 525.795,-57.589 534.359,-63.8274 536.38,-57.1256"/>
</g>
</g>
</svg>
