<?xml version="1.0" encoding="UTF-8" standalone="no"?>
<!DOCTYPE svg PUBLIC "-//W3C//DTD SVG 1.1//EN"
 "http://www.w3.org/Graphics/SVG/1.1/DTD/svg11.dtd">
<!-- Generated by graphviz version 2.38.0 (20140413.2041)
 -->
<!-- Title: lua_pushnumber Pages: 1 -->
<svg width="771pt" height="1453pt"
 viewBox="0.00 0.00 771.00 1453.00" xmlns="http://www.w3.org/2000/svg" xmlns:xlink="http://www.w3.org/1999/xlink">
<g id="graph0" class="graph" transform="scale(1 1) rotate(0) translate(4 1449)">
<title>lua_pushnumber</title>
<!-- Node1 -->
<g id="node1" class="node"><title>Node1</title>
<polygon fill="#bfbfbf" stroke="black" points="0,-760.5 0,-779.5 88,-779.5 88,-760.5 0,-760.5"/>
<text text-anchor="middle" x="44" y="-767.5" font-family="Helvetica,sans-Serif" font-size="10.00">lua_pushnumber</text>
</g>
<!-- Node2 -->
<g id="node2" class="node"><title>Node2</title>
<g id="a_node2"><a xlink:href="../../de/df3/liolib_8c.html#ace5e1a23cc9e2ffe7ae6cc523e54de73" target="_top" xlink:title="f_seek">
<polygon fill="none" stroke="black" points="153,-1425.5 153,-1444.5 197,-1444.5 197,-1425.5 153,-1425.5"/>
<text text-anchor="middle" x="175" y="-1432.5" font-family="Helvetica,sans-Serif" font-size="10.00">f_seek</text>
</a>
</g>
</g>
<!-- Node1&#45;&gt;Node2 -->
<g id="edge1" class="edge"><title>Node1&#45;&gt;Node2</title>
<path fill="none" stroke="midnightblue" d="M44.7591,-790.003C43.9703,-887.845 45.1444,-1315.37 124,-1416 130.988,-1424.92 142.671,-1429.65 152.987,-1432.16"/>
<polygon fill="midnightblue" stroke="midnightblue" points="48.2614,-789.783 44.86,-779.749 41.2617,-789.714 48.2614,-789.783"/>
</g>
<!-- Node3 -->
<g id="node3" class="node"><title>Node3</title>
<g id="a_node3"><a xlink:href="../../d8/dd3/lbaselib_8c.html#a07f71966c943cc9761ab129f64d4ac80" target="_top" xlink:title="luaB_collectgarbage">
<polygon fill="none" stroke="black" points="124,-1387.5 124,-1406.5 226,-1406.5 226,-1387.5 124,-1387.5"/>
<text text-anchor="middle" x="175" y="-1394.5" font-family="Helvetica,sans-Serif" font-size="10.00">luaB_collectgarbage</text>
</a>
</g>
</g>
<!-- Node1&#45;&gt;Node3 -->
<g id="edge2" class="edge"><title>Node1&#45;&gt;Node3</title>
<path fill="none" stroke="midnightblue" d="M44.9295,-789.71C44.9759,-883.48 49.5906,-1283.78 124,-1378 126.993,-1381.79 130.833,-1384.82 135.052,-1387.25"/>
<polygon fill="midnightblue" stroke="midnightblue" points="48.4295,-789.626 44.9428,-779.621 41.4295,-789.617 48.4295,-789.626"/>
</g>
<!-- Node4 -->
<g id="node4" class="node"><title>Node4</title>
<g id="a_node4"><a xlink:href="../../d8/dd3/lbaselib_8c.html#a6224f7b7c4485996e1c22eae32de990d" target="_top" xlink:title="luaB_tonumber">
<polygon fill="none" stroke="black" points="135,-1349.5 135,-1368.5 215,-1368.5 215,-1349.5 135,-1349.5"/>
<text text-anchor="middle" x="175" y="-1356.5" font-family="Helvetica,sans-Serif" font-size="10.00">luaB_tonumber</text>
</a>
</g>
</g>
<!-- Node1&#45;&gt;Node4 -->
<g id="edge3" class="edge"><title>Node1&#45;&gt;Node4</title>
<path fill="none" stroke="midnightblue" d="M45.1214,-789.9C46.0566,-880.382 54.1558,-1252.33 124,-1340 127.009,-1343.78 130.858,-1346.8 135.083,-1349.23"/>
<polygon fill="midnightblue" stroke="midnightblue" points="48.6211,-789.85 45.0364,-779.88 41.6214,-789.909 48.6211,-789.85"/>
</g>
<!-- Node5 -->
<g id="node5" class="node"><title>Node5</title>
<g id="a_node5"><a xlink:href="../../da/d29/lauxlib_8h.html#a20b0480f0d1e4d1b2cbf74f667e7ca24" target="_top" xlink:title="luaL_checkversion_">
<polygon fill="none" stroke="black" points="125.5,-1311.5 125.5,-1330.5 224.5,-1330.5 224.5,-1311.5 125.5,-1311.5"/>
<text text-anchor="middle" x="175" y="-1318.5" font-family="Helvetica,sans-Serif" font-size="10.00">luaL_checkversion_</text>
</a>
</g>
</g>
<!-- Node1&#45;&gt;Node5 -->
<g id="edge4" class="edge"><title>Node1&#45;&gt;Node5</title>
<path fill="none" stroke="midnightblue" d="M45.3346,-789.653C47.1804,-875.964 58.5984,-1220.71 124,-1302 127.143,-1305.91 131.186,-1309.01 135.607,-1311.48"/>
<polygon fill="midnightblue" stroke="midnightblue" points="48.8337,-789.568 45.1398,-779.638 41.835,-789.704 48.8337,-789.568"/>
</g>
<!-- Node6 -->
<g id="node6" class="node"><title>Node6</title>
<g id="a_node6"><a xlink:href="../../d6/d07/lualib_8h.html#ad9a992586e14f1dd04f4983b8740605a" target="_top" xlink:title="luaopen_math">
<polygon fill="none" stroke="black" points="136.5,-1273.5 136.5,-1292.5 213.5,-1292.5 213.5,-1273.5 136.5,-1273.5"/>
<text text-anchor="middle" x="175" y="-1280.5" font-family="Helvetica,sans-Serif" font-size="10.00">luaopen_math</text>
</a>
</g>
</g>
<!-- Node1&#45;&gt;Node6 -->
<g id="edge5" class="edge"><title>Node1&#45;&gt;Node6</title>
<path fill="none" stroke="midnightblue" d="M45.588,-789.808C48.4193,-872.484 63.1313,-1189.21 124,-1264 127.282,-1268.03 131.521,-1271.21 136.141,-1273.72"/>
<polygon fill="midnightblue" stroke="midnightblue" points="49.0841,-789.626 45.2638,-779.744 42.0877,-789.852 49.0841,-789.626"/>
</g>
<!-- Node7 -->
<g id="node7" class="node"><title>Node7</title>
<g id="a_node7"><a xlink:href="../../d1/d6a/lmathlib_8c.html#a9545dd3926974393ff34e33a108df628" target="_top" xlink:title="math_abs">
<polygon fill="none" stroke="black" points="145,-1235.5 145,-1254.5 205,-1254.5 205,-1235.5 145,-1235.5"/>
<text text-anchor="middle" x="175" y="-1242.5" font-family="Helvetica,sans-Serif" font-size="10.00">math_abs</text>
</a>
</g>
</g>
<!-- Node1&#45;&gt;Node7 -->
<g id="edge6" class="edge"><title>Node1&#45;&gt;Node7</title>
<path fill="none" stroke="midnightblue" d="M45.8771,-789.773C49.7365,-868.357 67.6043,-1157.61 124,-1226 129.317,-1232.45 137.076,-1236.71 144.902,-1239.53"/>
<polygon fill="midnightblue" stroke="midnightblue" points="49.3721,-789.583 45.4064,-779.759 42.3798,-789.912 49.3721,-789.583"/>
</g>
<!-- Node8 -->
<g id="node8" class="node"><title>Node8</title>
<g id="a_node8"><a xlink:href="../../d1/d6a/lmathlib_8c.html#a9f983fa3cca14d69429cebc95be4fab1" target="_top" xlink:title="math_acos">
<polygon fill="none" stroke="black" points="143,-1197.5 143,-1216.5 207,-1216.5 207,-1197.5 143,-1197.5"/>
<text text-anchor="middle" x="175" y="-1204.5" font-family="Helvetica,sans-Serif" font-size="10.00">math_acos</text>
</a>
</g>
</g>
<!-- Node1&#45;&gt;Node8 -->
<g id="edge7" class="edge"><title>Node1&#45;&gt;Node8</title>
<path fill="none" stroke="midnightblue" d="M46.2336,-789.995C51.215,-864.665 72.1227,-1126.06 124,-1188 128.889,-1193.84 135.776,-1197.88 142.88,-1200.69"/>
<polygon fill="midnightblue" stroke="midnightblue" points="49.7044,-789.428 45.5686,-779.674 42.7189,-789.878 49.7044,-789.428"/>
</g>
<!-- Node9 -->
<g id="node9" class="node"><title>Node9</title>
<g id="a_node9"><a xlink:href="../../d1/d6a/lmathlib_8c.html#aa44ea66108bb38acbe5c8cb2ce6de33f" target="_top" xlink:title="math_asin">
<polygon fill="none" stroke="black" points="144.5,-1159.5 144.5,-1178.5 205.5,-1178.5 205.5,-1159.5 144.5,-1159.5"/>
<text text-anchor="middle" x="175" y="-1166.5" font-family="Helvetica,sans-Serif" font-size="10.00">math_asin</text>
</a>
</g>
</g>
<!-- Node1&#45;&gt;Node9 -->
<g id="edge8" class="edge"><title>Node1&#45;&gt;Node9</title>
<path fill="none" stroke="midnightblue" d="M46.6445,-789.972C52.7958,-860.18 76.5657,-1094.4 124,-1150 129.244,-1156.15 136.698,-1160.31 144.255,-1163.13"/>
<polygon fill="midnightblue" stroke="midnightblue" points="50.1168,-789.497 45.7799,-779.831 43.1421,-790.092 50.1168,-789.497"/>
</g>
<!-- Node10 -->
<g id="node10" class="node"><title>Node10</title>
<g id="a_node10"><a xlink:href="../../d1/d6a/lmathlib_8c.html#a70217d6c0312477f3e257a584518424c" target="_top" xlink:title="math_atan">
<polygon fill="none" stroke="black" points="144,-1121.5 144,-1140.5 206,-1140.5 206,-1121.5 144,-1121.5"/>
<text text-anchor="middle" x="175" y="-1128.5" font-family="Helvetica,sans-Serif" font-size="10.00">math_atan</text>
</a>
</g>
</g>
<!-- Node1&#45;&gt;Node10 -->
<g id="edge9" class="edge"><title>Node1&#45;&gt;Node10</title>
<path fill="none" stroke="midnightblue" d="M47.1074,-789.63C54.4633,-854.796 80.9188,-1062.62 124,-1112 129.189,-1117.95 136.444,-1122.04 143.822,-1124.85"/>
<polygon fill="midnightblue" stroke="midnightblue" points="50.5654,-789.056 45.9895,-779.5 43.6076,-789.824 50.5654,-789.056"/>
</g>
<!-- Node11 -->
<g id="node11" class="node"><title>Node11</title>
<g id="a_node11"><a xlink:href="../../d1/d6a/lmathlib_8c.html#ab2ec821a1dd788ee7d4f9a58c743cd48" target="_top" xlink:title="math_atan2">
<polygon fill="none" stroke="black" points="141,-1083.5 141,-1102.5 209,-1102.5 209,-1083.5 141,-1083.5"/>
<text text-anchor="middle" x="175" y="-1090.5" font-family="Helvetica,sans-Serif" font-size="10.00">math_atan2</text>
</a>
</g>
</g>
<!-- Node1&#45;&gt;Node11 -->
<g id="edge10" class="edge"><title>Node1&#45;&gt;Node11</title>
<path fill="none" stroke="midnightblue" d="M44.296,-789.689C43.4868,-842.653 48.5394,-989.839 124,-1074 128.525,-1079.05 134.536,-1082.76 140.816,-1085.49"/>
<polygon fill="midnightblue" stroke="midnightblue" points="47.7968,-789.697 44.5433,-779.614 40.7989,-789.525 47.7968,-789.697"/>
</g>
<!-- Node12 -->
<g id="node12" class="node"><title>Node12</title>
<g id="a_node12"><a xlink:href="../../d1/d6a/lmathlib_8c.html#ae4f0dc771c626a9badef237db9d433da" target="_top" xlink:title="math_ceil">
<polygon fill="none" stroke="black" points="147,-1045.5 147,-1064.5 203,-1064.5 203,-1045.5 147,-1045.5"/>
<text text-anchor="middle" x="175" y="-1052.5" font-family="Helvetica,sans-Serif" font-size="10.00">math_ceil</text>
</a>
</g>
</g>
<!-- Node1&#45;&gt;Node12 -->
<g id="edge11" class="edge"><title>Node1&#45;&gt;Node12</title>
<path fill="none" stroke="midnightblue" d="M45.1862,-789.784C46.7075,-838.231 57.2508,-964.087 124,-1036 130.065,-1042.53 138.612,-1046.84 146.927,-1049.67"/>
<polygon fill="midnightblue" stroke="midnightblue" points="48.6835,-789.616 44.9699,-779.693 41.6851,-789.766 48.6835,-789.616"/>
</g>
<!-- Node13 -->
<g id="node13" class="node"><title>Node13</title>
<g id="a_node13"><a xlink:href="../../d1/d6a/lmathlib_8c.html#a5db2cf8c6e7a331d7daf259f305e057c" target="_top" xlink:title="math_cos">
<polygon fill="none" stroke="black" points="146,-1007.5 146,-1026.5 204,-1026.5 204,-1007.5 146,-1007.5"/>
<text text-anchor="middle" x="175" y="-1014.5" font-family="Helvetica,sans-Serif" font-size="10.00">math_cos</text>
</a>
</g>
</g>
<!-- Node1&#45;&gt;Node13 -->
<g id="edge12" class="edge"><title>Node1&#45;&gt;Node13</title>
<path fill="none" stroke="midnightblue" d="M46.3568,-789.85C50.3732,-833.383 65.8726,-938.126 124,-998 129.886,-1004.06 137.906,-1008.22 145.798,-1011.05"/>
<polygon fill="midnightblue" stroke="midnightblue" points="49.8323,-789.404 45.533,-779.721 42.8553,-789.972 49.8323,-789.404"/>
</g>
<!-- Node14 -->
<g id="node14" class="node"><title>Node14</title>
<g id="a_node14"><a xlink:href="../../d1/d6a/lmathlib_8c.html#aacc3b89a2bdf4970574be974ccbf5e84" target="_top" xlink:title="math_cosh">
<polygon fill="none" stroke="black" points="143.5,-969.5 143.5,-988.5 206.5,-988.5 206.5,-969.5 143.5,-969.5"/>
<text text-anchor="middle" x="175" y="-976.5" font-family="Helvetica,sans-Serif" font-size="10.00">math_cosh</text>
</a>
</g>
</g>
<!-- Node1&#45;&gt;Node14 -->
<g id="edge13" class="edge"><title>Node1&#45;&gt;Node14</title>
<path fill="none" stroke="midnightblue" d="M48.0016,-790.118C54.7286,-828.36 74.4918,-911.998 124,-960 129.4,-965.236 136.389,-969.061 143.42,-971.843"/>
<polygon fill="midnightblue" stroke="midnightblue" points="51.3819,-789.102 46.314,-779.798 44.4737,-790.231 51.3819,-789.102"/>
</g>
<!-- Node15 -->
<g id="node15" class="node"><title>Node15</title>
<g id="a_node15"><a xlink:href="../../d1/d6a/lmathlib_8c.html#ad9bd03062009a4aba15739a1630b2a25" target="_top" xlink:title="math_deg">
<polygon fill="none" stroke="black" points="145.5,-931.5 145.5,-950.5 204.5,-950.5 204.5,-931.5 145.5,-931.5"/>
<text text-anchor="middle" x="175" y="-938.5" font-family="Helvetica,sans-Serif" font-size="10.00">math_deg</text>
</a>
</g>
</g>
<!-- Node1&#45;&gt;Node15 -->
<g id="edge14" class="edge"><title>Node1&#45;&gt;Node15</title>
<path fill="none" stroke="midnightblue" d="M50.2121,-789.597C59.6844,-821.604 82.6665,-885.209 124,-922 130.035,-927.371 137.742,-931.286 145.289,-934.114"/>
<polygon fill="midnightblue" stroke="midnightblue" points="53.5008,-788.364 47.4171,-779.69 46.7637,-790.264 53.5008,-788.364"/>
</g>
<!-- Node16 -->
<g id="node16" class="node"><title>Node16</title>
<g id="a_node16"><a xlink:href="../../d1/d6a/lmathlib_8c.html#a7c971c680cdad8e4e833f8a3db9d065d" target="_top" xlink:title="math_exp">
<polygon fill="none" stroke="black" points="145.5,-893.5 145.5,-912.5 204.5,-912.5 204.5,-893.5 145.5,-893.5"/>
<text text-anchor="middle" x="175" y="-900.5" font-family="Helvetica,sans-Serif" font-size="10.00">math_exp</text>
</a>
</g>
</g>
<!-- Node1&#45;&gt;Node16 -->
<g id="edge15" class="edge"><title>Node1&#45;&gt;Node16</title>
<path fill="none" stroke="midnightblue" d="M53.5903,-788.882C65.8617,-813.904 90.6652,-857.916 124,-884 130.289,-888.921 137.996,-892.681 145.457,-895.503"/>
<polygon fill="midnightblue" stroke="midnightblue" points="56.691,-787.253 49.2423,-779.718 50.3668,-790.253 56.691,-787.253"/>
</g>
<!-- Node17 -->
<g id="node17" class="node"><title>Node17</title>
<g id="a_node17"><a xlink:href="../../d1/d6a/lmathlib_8c.html#aa063dcd93e924af13c5e311f89b18d03" target="_top" xlink:title="math_floor">
<polygon fill="none" stroke="black" points="145.5,-855.5 145.5,-874.5 204.5,-874.5 204.5,-855.5 145.5,-855.5"/>
<text text-anchor="middle" x="175" y="-862.5" font-family="Helvetica,sans-Serif" font-size="10.00">math_floor</text>
</a>
</g>
</g>
<!-- Node1&#45;&gt;Node17 -->
<g id="edge16" class="edge"><title>Node1&#45;&gt;Node17</title>
<path fill="none" stroke="midnightblue" d="M59.5901,-787.686C74.3386,-804.607 98.534,-829.871 124,-846 130.511,-850.124 138.056,-853.571 145.28,-856.347"/>
<polygon fill="midnightblue" stroke="midnightblue" points="61.93,-785.036 52.782,-779.691 56.6004,-789.574 61.93,-785.036"/>
</g>
<!-- Node18 -->
<g id="node18" class="node"><title>Node18</title>
<g id="a_node18"><a xlink:href="../../d1/d6a/lmathlib_8c.html#a25b3f7d30cf85b8248a72de20049564e" target="_top" xlink:title="math_fmod">
<polygon fill="none" stroke="black" points="143.5,-817.5 143.5,-836.5 206.5,-836.5 206.5,-817.5 143.5,-817.5"/>
<text text-anchor="middle" x="175" y="-824.5" font-family="Helvetica,sans-Serif" font-size="10.00">math_fmod</text>
</a>
</g>
</g>
<!-- Node1&#45;&gt;Node18 -->
<g id="edge17" class="edge"><title>Node1&#45;&gt;Node18</title>
<path fill="none" stroke="midnightblue" d="M72.8686,-784.121C87.8765,-791.543 106.793,-800.608 124,-808 131.594,-811.262 139.951,-814.552 147.622,-817.457"/>
<polygon fill="midnightblue" stroke="midnightblue" points="74.1392,-780.844 63.628,-779.515 71.0164,-787.109 74.1392,-780.844"/>
</g>
<!-- Node19 -->
<g id="node19" class="node"><title>Node19</title>
<g id="a_node19"><a xlink:href="../../d1/d6a/lmathlib_8c.html#a13d5e8c418a554d9e4604b97a4b67b83" target="_top" xlink:title="math_frexp">
<polygon fill="none" stroke="black" points="143,-779.5 143,-798.5 207,-798.5 207,-779.5 143,-779.5"/>
<text text-anchor="middle" x="175" y="-786.5" font-family="Helvetica,sans-Serif" font-size="10.00">math_frexp</text>
</a>
</g>
</g>
<!-- Node1&#45;&gt;Node19 -->
<g id="edge18" class="edge"><title>Node1&#45;&gt;Node19</title>
<path fill="none" stroke="midnightblue" d="M98.5751,-777.891C113.647,-780.111 129.538,-782.451 142.827,-784.409"/>
<polygon fill="midnightblue" stroke="midnightblue" points="98.7173,-774.374 88.314,-776.38 97.6972,-781.299 98.7173,-774.374"/>
</g>
<!-- Node20 -->
<g id="node20" class="node"><title>Node20</title>
<g id="a_node20"><a xlink:href="../../d1/d6a/lmathlib_8c.html#adf7bb9373e68cc77ddf001273c444edf" target="_top" xlink:title="math_ldexp">
<polygon fill="none" stroke="black" points="142,-741.5 142,-760.5 208,-760.5 208,-741.5 142,-741.5"/>
<text text-anchor="middle" x="175" y="-748.5" font-family="Helvetica,sans-Serif" font-size="10.00">math_ldexp</text>
</a>
</g>
</g>
<!-- Node1&#45;&gt;Node20 -->
<g id="edge19" class="edge"><title>Node1&#45;&gt;Node20</title>
<path fill="none" stroke="midnightblue" d="M98.3186,-762.147C113.01,-759.983 128.5,-757.702 141.613,-755.77"/>
<polygon fill="midnightblue" stroke="midnightblue" points="97.6972,-758.701 88.314,-763.62 98.7173,-765.626 97.6972,-758.701"/>
</g>
<!-- Node21 -->
<g id="node21" class="node"><title>Node21</title>
<g id="a_node21"><a xlink:href="../../d1/d6a/lmathlib_8c.html#a7cb92978495484adbfc9d0cb0ace2cc2" target="_top" xlink:title="math_log">
<polygon fill="none" stroke="black" points="147.5,-703.5 147.5,-722.5 202.5,-722.5 202.5,-703.5 147.5,-703.5"/>
<text text-anchor="middle" x="175" y="-710.5" font-family="Helvetica,sans-Serif" font-size="10.00">math_log</text>
</a>
</g>
</g>
<!-- Node1&#45;&gt;Node21 -->
<g id="edge20" class="edge"><title>Node1&#45;&gt;Node21</title>
<path fill="none" stroke="midnightblue" d="M72.8686,-755.879C87.8765,-748.457 106.793,-739.392 124,-732 131.594,-728.738 139.951,-725.448 147.622,-722.543"/>
<polygon fill="midnightblue" stroke="midnightblue" points="71.0164,-752.891 63.628,-760.485 74.1392,-759.156 71.0164,-752.891"/>
</g>
<!-- Node22 -->
<g id="node22" class="node"><title>Node22</title>
<g id="a_node22"><a xlink:href="../../d1/d6a/lmathlib_8c.html#a03e3b76e515f5535122c2026a9e8f445" target="_top" xlink:title="math_max">
<polygon fill="none" stroke="black" points="144,-665.5 144,-684.5 206,-684.5 206,-665.5 144,-665.5"/>
<text text-anchor="middle" x="175" y="-672.5" font-family="Helvetica,sans-Serif" font-size="10.00">math_max</text>
</a>
</g>
</g>
<!-- Node1&#45;&gt;Node22 -->
<g id="edge21" class="edge"><title>Node1&#45;&gt;Node22</title>
<path fill="none" stroke="midnightblue" d="M59.5901,-752.314C74.3386,-735.393 98.534,-710.129 124,-694 130.119,-690.124 137.151,-686.847 143.972,-684.162"/>
<polygon fill="midnightblue" stroke="midnightblue" points="56.6004,-750.426 52.782,-760.309 61.93,-754.964 56.6004,-750.426"/>
</g>
<!-- Node23 -->
<g id="node23" class="node"><title>Node23</title>
<g id="a_node23"><a xlink:href="../../d1/d6a/lmathlib_8c.html#ab0a14d784b5fe2f30062e88a635db320" target="_top" xlink:title="math_min">
<polygon fill="none" stroke="black" points="146.5,-627.5 146.5,-646.5 203.5,-646.5 203.5,-627.5 146.5,-627.5"/>
<text text-anchor="middle" x="175" y="-634.5" font-family="Helvetica,sans-Serif" font-size="10.00">math_min</text>
</a>
</g>
</g>
<!-- Node1&#45;&gt;Node23 -->
<g id="edge22" class="edge"><title>Node1&#45;&gt;Node23</title>
<path fill="none" stroke="midnightblue" d="M53.5903,-751.118C65.8617,-726.096 90.6652,-682.084 124,-656 130.582,-650.85 138.716,-646.972 146.497,-644.109"/>
<polygon fill="midnightblue" stroke="midnightblue" points="50.3668,-749.747 49.2423,-760.282 56.691,-752.747 50.3668,-749.747"/>
</g>
<!-- Node24 -->
<g id="node24" class="node"><title>Node24</title>
<g id="a_node24"><a xlink:href="../../d1/d6a/lmathlib_8c.html#adff369706deb34be360be3103f31d4c4" target="_top" xlink:title="math_modf">
<polygon fill="none" stroke="black" points="143.5,-589.5 143.5,-608.5 206.5,-608.5 206.5,-589.5 143.5,-589.5"/>
<text text-anchor="middle" x="175" y="-596.5" font-family="Helvetica,sans-Serif" font-size="10.00">math_modf</text>
</a>
</g>
</g>
<!-- Node1&#45;&gt;Node24 -->
<g id="edge23" class="edge"><title>Node1&#45;&gt;Node24</title>
<path fill="none" stroke="midnightblue" d="M50.2121,-750.403C59.6844,-718.396 82.6665,-654.791 124,-618 129.549,-613.061 136.513,-609.353 143.465,-606.59"/>
<polygon fill="midnightblue" stroke="midnightblue" points="46.7637,-749.736 47.4171,-760.31 53.5008,-751.636 46.7637,-749.736"/>
</g>
<!-- Node25 -->
<g id="node25" class="node"><title>Node25</title>
<g id="a_node25"><a xlink:href="../../d1/d6a/lmathlib_8c.html#a1bd66c605ef6e69738489e6f9572370c" target="_top" xlink:title="math_pow">
<polygon fill="none" stroke="black" points="144,-551.5 144,-570.5 206,-570.5 206,-551.5 144,-551.5"/>
<text text-anchor="middle" x="175" y="-558.5" font-family="Helvetica,sans-Serif" font-size="10.00">math_pow</text>
</a>
</g>
</g>
<!-- Node1&#45;&gt;Node25 -->
<g id="edge24" class="edge"><title>Node1&#45;&gt;Node25</title>
<path fill="none" stroke="midnightblue" d="M48.0016,-749.882C54.7286,-711.64 74.4918,-628.002 124,-580 129.534,-574.635 136.735,-570.751 143.941,-567.953"/>
<polygon fill="midnightblue" stroke="midnightblue" points="44.4737,-749.769 46.314,-760.202 51.3819,-750.898 44.4737,-749.769"/>
</g>
<!-- Node26 -->
<g id="node26" class="node"><title>Node26</title>
<g id="a_node26"><a xlink:href="../../d1/d6a/lmathlib_8c.html#a5d8eec19cea59d1ce1012a705f70dc8d" target="_top" xlink:title="math_rad">
<polygon fill="none" stroke="black" points="147,-513.5 147,-532.5 203,-532.5 203,-513.5 147,-513.5"/>
<text text-anchor="middle" x="175" y="-520.5" font-family="Helvetica,sans-Serif" font-size="10.00">math_rad</text>
</a>
</g>
</g>
<!-- Node1&#45;&gt;Node26 -->
<g id="edge25" class="edge"><title>Node1&#45;&gt;Node26</title>
<path fill="none" stroke="midnightblue" d="M46.3568,-750.15C50.3732,-706.617 65.8726,-601.874 124,-542 130.145,-535.67 138.615,-531.422 146.838,-528.582"/>
<polygon fill="midnightblue" stroke="midnightblue" points="42.8553,-750.028 45.533,-760.279 49.8323,-750.596 42.8553,-750.028"/>
</g>
<!-- Node27 -->
<g id="node27" class="node"><title>Node27</title>
<g id="a_node27"><a xlink:href="../../d1/d6a/lmathlib_8c.html#aa3ad02d4204d21d35a0825281915fb22" target="_top" xlink:title="math_random">
<polygon fill="none" stroke="black" points="138,-475.5 138,-494.5 212,-494.5 212,-475.5 138,-475.5"/>
<text text-anchor="middle" x="175" y="-482.5" font-family="Helvetica,sans-Serif" font-size="10.00">math_random</text>
</a>
</g>
</g>
<!-- Node1&#45;&gt;Node27 -->
<g id="edge26" class="edge"><title>Node1&#45;&gt;Node27</title>
<path fill="none" stroke="midnightblue" d="M45.1862,-750.216C46.7075,-701.769 57.2508,-575.913 124,-504 127.854,-499.848 132.71,-496.596 137.872,-494.051"/>
<polygon fill="midnightblue" stroke="midnightblue" points="41.6851,-750.234 44.9699,-760.307 48.6835,-750.384 41.6851,-750.234"/>
</g>
<!-- Node28 -->
<g id="node28" class="node"><title>Node28</title>
<g id="a_node28"><a xlink:href="../../d1/d6a/lmathlib_8c.html#adb460e2b01df47afcaa823ecc1846a24" target="_top" xlink:title="math_sin">
<polygon fill="none" stroke="black" points="147.5,-437.5 147.5,-456.5 202.5,-456.5 202.5,-437.5 147.5,-437.5"/>
<text text-anchor="middle" x="175" y="-444.5" font-family="Helvetica,sans-Serif" font-size="10.00">math_sin</text>
</a>
</g>
</g>
<!-- Node1&#45;&gt;Node28 -->
<g id="edge27" class="edge"><title>Node1&#45;&gt;Node28</title>
<path fill="none" stroke="midnightblue" d="M44.296,-750.311C43.4868,-697.347 48.5394,-550.161 124,-466 130.075,-459.224 138.826,-454.852 147.314,-452.036"/>
<polygon fill="midnightblue" stroke="midnightblue" points="40.7989,-750.475 44.5433,-760.386 47.7968,-750.303 40.7989,-750.475"/>
</g>
<!-- Node29 -->
<g id="node29" class="node"><title>Node29</title>
<g id="a_node29"><a xlink:href="../../d1/d6a/lmathlib_8c.html#a54bae0fa396a6823b28ea994ebf035dc" target="_top" xlink:title="math_sinh">
<polygon fill="none" stroke="black" points="145,-399.5 145,-418.5 205,-418.5 205,-399.5 145,-399.5"/>
<text text-anchor="middle" x="175" y="-406.5" font-family="Helvetica,sans-Serif" font-size="10.00">math_sinh</text>
</a>
</g>
</g>
<!-- Node1&#45;&gt;Node29 -->
<g id="edge28" class="edge"><title>Node1&#45;&gt;Node29</title>
<path fill="none" stroke="midnightblue" d="M47.1074,-750.37C54.4633,-685.204 80.9188,-477.385 124,-428 129.433,-421.772 137.132,-417.578 144.864,-414.756"/>
<polygon fill="midnightblue" stroke="midnightblue" points="43.6076,-750.176 45.9895,-760.5 50.5654,-750.944 43.6076,-750.176"/>
</g>
<!-- Node30 -->
<g id="node30" class="node"><title>Node30</title>
<g id="a_node30"><a xlink:href="../../d1/d6a/lmathlib_8c.html#a8f4c386bafe8ae7269476ed3ed94d1d8" target="_top" xlink:title="math_sqrt">
<polygon fill="none" stroke="black" points="146,-361.5 146,-380.5 204,-380.5 204,-361.5 146,-361.5"/>
<text text-anchor="middle" x="175" y="-368.5" font-family="Helvetica,sans-Serif" font-size="10.00">math_sqrt</text>
</a>
</g>
</g>
<!-- Node1&#45;&gt;Node30 -->
<g id="edge29" class="edge"><title>Node1&#45;&gt;Node30</title>
<path fill="none" stroke="midnightblue" d="M46.6445,-750.028C52.7958,-679.82 76.5657,-445.6 124,-390 129.605,-383.43 137.736,-379.126 145.819,-376.309"/>
<polygon fill="midnightblue" stroke="midnightblue" points="43.1421,-749.908 45.7799,-760.169 50.1168,-750.503 43.1421,-749.908"/>
</g>
<!-- Node31 -->
<g id="node31" class="node"><title>Node31</title>
<g id="a_node31"><a xlink:href="../../d1/d6a/lmathlib_8c.html#a06bc9b8c610e00759bb99c3db6128f18" target="_top" xlink:title="math_tan">
<polygon fill="none" stroke="black" points="147,-323.5 147,-342.5 203,-342.5 203,-323.5 147,-323.5"/>
<text text-anchor="middle" x="175" y="-330.5" font-family="Helvetica,sans-Serif" font-size="10.00">math_tan</text>
</a>
</g>
</g>
<!-- Node1&#45;&gt;Node31 -->
<g id="edge30" class="edge"><title>Node1&#45;&gt;Node31</title>
<path fill="none" stroke="midnightblue" d="M46.2336,-750.005C51.215,-675.335 72.1227,-413.94 124,-352 129.784,-345.095 138.363,-340.694 146.789,-337.892"/>
<polygon fill="midnightblue" stroke="midnightblue" points="42.7189,-750.122 45.5686,-760.326 49.7044,-750.572 42.7189,-750.122"/>
</g>
<!-- Node32 -->
<g id="node32" class="node"><title>Node32</title>
<g id="a_node32"><a xlink:href="../../d1/d6a/lmathlib_8c.html#a38a6a16dfdffec4c0388eb3c7aff9085" target="_top" xlink:title="math_tanh">
<polygon fill="none" stroke="black" points="144,-285.5 144,-304.5 206,-304.5 206,-285.5 144,-285.5"/>
<text text-anchor="middle" x="175" y="-292.5" font-family="Helvetica,sans-Serif" font-size="10.00">math_tanh</text>
</a>
</g>
</g>
<!-- Node1&#45;&gt;Node32 -->
<g id="edge31" class="edge"><title>Node1&#45;&gt;Node32</title>
<path fill="none" stroke="midnightblue" d="M45.8771,-750.227C49.7365,-671.643 67.6043,-382.387 124,-314 129.081,-307.839 136.391,-303.673 143.859,-300.857"/>
<polygon fill="midnightblue" stroke="midnightblue" points="42.3798,-750.088 45.4064,-760.241 49.3721,-750.417 42.3798,-750.088"/>
</g>
<!-- Node33 -->
<g id="node33" class="node"><title>Node33</title>
<g id="a_node33"><a xlink:href="../../dc/dba/loslib_8c.html#ac8ac40c239a4c86ee937b34663bffe80" target="_top" xlink:title="os_clock">
<polygon fill="none" stroke="black" points="148.5,-247.5 148.5,-266.5 201.5,-266.5 201.5,-247.5 148.5,-247.5"/>
<text text-anchor="middle" x="175" y="-254.5" font-family="Helvetica,sans-Serif" font-size="10.00">os_clock</text>
</a>
</g>
</g>
<!-- Node1&#45;&gt;Node33 -->
<g id="edge32" class="edge"><title>Node1&#45;&gt;Node33</title>
<path fill="none" stroke="midnightblue" d="M45.588,-750.192C48.4193,-667.516 63.1313,-350.794 124,-276 130.096,-268.509 139.491,-263.969 148.498,-261.218"/>
<polygon fill="midnightblue" stroke="midnightblue" points="42.0877,-750.148 45.2638,-760.256 49.0841,-750.374 42.0877,-750.148"/>
</g>
<!-- Node34 -->
<g id="node34" class="node"><title>Node34</title>
<g id="a_node34"><a xlink:href="../../dc/dba/loslib_8c.html#ab2027c89bfc0320114b3cce3d77a01ed" target="_top" xlink:title="os_difftime">
<polygon fill="none" stroke="black" points="145,-209.5 145,-228.5 205,-228.5 205,-209.5 145,-209.5"/>
<text text-anchor="middle" x="175" y="-216.5" font-family="Helvetica,sans-Serif" font-size="10.00">os_difftime</text>
</a>
</g>
</g>
<!-- Node1&#45;&gt;Node34 -->
<g id="edge33" class="edge"><title>Node1&#45;&gt;Node34</title>
<path fill="none" stroke="midnightblue" d="M45.3346,-750.347C47.1804,-664.036 58.5984,-319.286 124,-238 129.239,-231.488 136.974,-227.207 144.803,-224.392"/>
<polygon fill="midnightblue" stroke="midnightblue" points="41.835,-750.296 45.1398,-760.362 48.8337,-750.432 41.835,-750.296"/>
</g>
<!-- Node35 -->
<g id="node35" class="node"><title>Node35</title>
<g id="a_node35"><a xlink:href="../../dc/dba/loslib_8c.html#ae32288bc9696b48450146e11c241f943" target="_top" xlink:title="os_time">
<polygon fill="none" stroke="black" points="150.5,-171.5 150.5,-190.5 199.5,-190.5 199.5,-171.5 150.5,-171.5"/>
<text text-anchor="middle" x="175" y="-178.5" font-family="Helvetica,sans-Serif" font-size="10.00">os_time</text>
</a>
</g>
</g>
<!-- Node1&#45;&gt;Node35 -->
<g id="edge34" class="edge"><title>Node1&#45;&gt;Node35</title>
<path fill="none" stroke="midnightblue" d="M45.1214,-750.1C46.0566,-659.618 54.1558,-287.674 124,-200 130.48,-191.865 140.861,-187.212 150.488,-184.55"/>
<polygon fill="midnightblue" stroke="midnightblue" points="41.6214,-750.091 45.0364,-760.12 48.6211,-750.15 41.6214,-750.091"/>
</g>
<!-- Node36 -->
<g id="node36" class="node"><title>Node36</title>
<g id="a_node36"><a xlink:href="../../d1/dc2/_kensho_lua_wrapper_8m.html#ac812f3eb3f83c6ada24f2dadeced6d68" target="_top" xlink:title="pushValue">
<polygon fill="none" stroke="black" points="143.5,-133.5 143.5,-152.5 206.5,-152.5 206.5,-133.5 143.5,-133.5"/>
<text text-anchor="middle" x="175" y="-140.5" font-family="Helvetica,sans-Serif" font-size="10.00">pushValue</text>
</a>
</g>
</g>
<!-- Node1&#45;&gt;Node36 -->
<g id="edge35" class="edge"><title>Node1&#45;&gt;Node36</title>
<path fill="none" stroke="midnightblue" d="M44.9295,-750.29C44.9759,-656.52 49.5906,-256.225 124,-162 128.892,-155.805 136.047,-151.63 143.424,-148.815"/>
<polygon fill="midnightblue" stroke="midnightblue" points="41.4295,-750.383 44.9428,-760.379 48.4295,-750.374 41.4295,-750.383"/>
</g>
<!-- Node43 -->
<g id="node43" class="node"><title>Node43</title>
<g id="a_node43"><a xlink:href="../../de/df3/liolib_8c.html#a5345908bf60e4bd37d768b052ac26ec7" target="_top" xlink:title="read_number">
<polygon fill="none" stroke="black" points="139,-73.5 139,-92.5 211,-92.5 211,-73.5 139,-73.5"/>
<text text-anchor="middle" x="175" y="-80.5" font-family="Helvetica,sans-Serif" font-size="10.00">read_number</text>
</a>
</g>
</g>
<!-- Node1&#45;&gt;Node43 -->
<g id="edge44" class="edge"><title>Node1&#45;&gt;Node43</title>
<path fill="none" stroke="midnightblue" d="M45.4554,-750.457C47.9715,-654.798 62.3895,-236.022 124,-124 131.357,-110.623 145.009,-99.8874 156.191,-92.7625"/>
<polygon fill="midnightblue" stroke="midnightblue" points="41.956,-750.394 45.2052,-760.479 48.9538,-750.569 41.956,-750.394"/>
</g>
<!-- Node37 -->
<g id="node37" class="node"><title>Node37</title>
<g id="a_node37"><a xlink:href="../../d1/dc2/_kensho_lua_wrapper_8m.html#ad10bf0ff4feac9642e7477e282be41fe" target="_top" xlink:title="lookupKey">
<polygon fill="none" stroke="black" points="262,-133.5 262,-152.5 324,-152.5 324,-133.5 262,-133.5"/>
<text text-anchor="middle" x="293" y="-140.5" font-family="Helvetica,sans-Serif" font-size="10.00">lookupKey</text>
</a>
</g>
</g>
<!-- Node36&#45;&gt;Node37 -->
<g id="edge36" class="edge"><title>Node36&#45;&gt;Node37</title>
<path fill="none" stroke="midnightblue" d="M217.174,-136.509C231.916,-136.043 248.245,-136.206 261.878,-136.997"/>
<polygon fill="midnightblue" stroke="midnightblue" points="216.62,-133.03 206.781,-136.96 216.924,-140.023 216.62,-133.03"/>
</g>
<!-- Node37&#45;&gt;Node36 -->
<g id="edge43" class="edge"><title>Node37&#45;&gt;Node36</title>
<path fill="none" stroke="midnightblue" d="M251.536,-149.468C236.846,-149.954 220.5,-149.812 206.781,-149.04"/>
<polygon fill="midnightblue" stroke="midnightblue" points="252.046,-152.949 261.878,-149.003 251.731,-145.956 252.046,-152.949"/>
</g>
<!-- Node38 -->
<g id="node38" class="node"><title>Node38</title>
<g id="a_node38"><a xlink:href="../../dc/de7/interface_kensho_lua_wrapper.html#a7d10aa0242861cdd109d3da9383882a2" target="_top" xlink:title="&#45;[KenshoLuaWrapper\l evaluate]">
<polygon fill="none" stroke="black" points="360,-134 360,-164 469,-164 469,-134 360,-134"/>
<text text-anchor="start" x="368" y="-152" font-family="Helvetica,sans-Serif" font-size="10.00">&#45;[KenshoLuaWrapper</text>
<text text-anchor="middle" x="414.5" y="-141" font-family="Helvetica,sans-Serif" font-size="10.00"> evaluate]</text>
</a>
</g>
</g>
<!-- Node37&#45;&gt;Node38 -->
<g id="edge37" class="edge"><title>Node37&#45;&gt;Node38</title>
<path fill="none" stroke="midnightblue" d="M334.163,-145.017C342.339,-145.427 351.064,-145.865 359.628,-146.295"/>
<polygon fill="midnightblue" stroke="midnightblue" points="334.318,-141.52 324.155,-144.514 333.967,-148.511 334.318,-141.52"/>
</g>
<!-- Node39 -->
<g id="node39" class="node"><title>Node39</title>
<g id="a_node39"><a xlink:href="../../dc/de7/interface_kensho_lua_wrapper.html#af6db46358f8858a18b55388aa3af211d" target="_top" xlink:title="&#45;[KenshoLuaWrapper\l initWithKensho:context\l:code:]">
<polygon fill="none" stroke="black" points="505,-183.5 505,-224.5 619,-224.5 619,-183.5 505,-183.5"/>
<text text-anchor="start" x="513" y="-212.5" font-family="Helvetica,sans-Serif" font-size="10.00">&#45;[KenshoLuaWrapper</text>
<text text-anchor="start" x="513" y="-201.5" font-family="Helvetica,sans-Serif" font-size="10.00"> initWithKensho:context</text>
<text text-anchor="middle" x="562" y="-190.5" font-family="Helvetica,sans-Serif" font-size="10.00">:code:]</text>
</a>
</g>
</g>
<!-- Node38&#45;&gt;Node39 -->
<g id="edge38" class="edge"><title>Node38&#45;&gt;Node39</title>
<path fill="none" stroke="midnightblue" d="M464.799,-167.635C478.233,-172.713 492.861,-178.243 506.563,-183.422"/>
<polygon fill="midnightblue" stroke="midnightblue" points="465.85,-164.291 455.259,-164.029 463.375,-170.839 465.85,-164.291"/>
</g>
<!-- Node40 -->
<g id="node40" class="node"><title>Node40</title>
<g id="a_node40"><a xlink:href="../../dc/de7/interface_kensho_lua_wrapper.html#a5555e0979799446611baee70104555c6" target="_top" xlink:title="&#45;[KenshoLuaWrapper\l evaluate:]">
<polygon fill="none" stroke="black" points="507.5,-134 507.5,-164 616.5,-164 616.5,-134 507.5,-134"/>
<text text-anchor="start" x="515.5" y="-152" font-family="Helvetica,sans-Serif" font-size="10.00">&#45;[KenshoLuaWrapper</text>
<text text-anchor="middle" x="562" y="-141" font-family="Helvetica,sans-Serif" font-size="10.00"> evaluate:]</text>
</a>
</g>
</g>
<!-- Node38&#45;&gt;Node40 -->
<g id="edge39" class="edge"><title>Node38&#45;&gt;Node40</title>
<path fill="none" stroke="midnightblue" d="M479.339,-149C488.723,-149 498.307,-149 507.456,-149"/>
<polygon fill="midnightblue" stroke="midnightblue" points="479.265,-145.5 469.265,-149 479.265,-152.5 479.265,-145.5"/>
</g>
<!-- Node42 -->
<g id="node42" class="node"><title>Node42</title>
<g id="a_node42"><a xlink:href="../../dc/de7/interface_kensho_lua_wrapper.html#a0bb5e125d727942726d707f8b59009dc" target="_top" xlink:title="&#45;[KenshoLuaWrapper\l observableUpdated:]">
<polygon fill="none" stroke="black" points="507.5,-85 507.5,-115 616.5,-115 616.5,-85 507.5,-85"/>
<text text-anchor="start" x="515.5" y="-103" font-family="Helvetica,sans-Serif" font-size="10.00">&#45;[KenshoLuaWrapper</text>
<text text-anchor="middle" x="562" y="-92" font-family="Helvetica,sans-Serif" font-size="10.00"> observableUpdated:]</text>
</a>
</g>
</g>
<!-- Node38&#45;&gt;Node42 -->
<g id="edge42" class="edge"><title>Node38&#45;&gt;Node42</title>
<path fill="none" stroke="midnightblue" d="M470.153,-130.595C485.376,-125.468 501.729,-119.961 516.306,-115.052"/>
<polygon fill="midnightblue" stroke="midnightblue" points="468.702,-127.39 460.342,-133.899 470.936,-134.024 468.702,-127.39"/>
</g>
<!-- Node41 -->
<g id="node41" class="node"><title>Node41</title>
<g id="a_node41"><a xlink:href="../../da/d0b/interface_kensho.html#a07b4d14db676108e1a94a1f10e100fb4" target="_top" xlink:title="&#45;[Kensho bindToView\l:context:]">
<polygon fill="none" stroke="red" points="655,-134 655,-164 763,-164 763,-134 655,-134"/>
<text text-anchor="start" x="663" y="-152" font-family="Helvetica,sans-Serif" font-size="10.00">&#45;[Kensho bindToView</text>
<text text-anchor="middle" x="709" y="-141" font-family="Helvetica,sans-Serif" font-size="10.00">:context:]</text>
</a>
</g>
</g>
<!-- Node40&#45;&gt;Node41 -->
<g id="edge40" class="edge"><title>Node40&#45;&gt;Node41</title>
<path fill="none" stroke="midnightblue" d="M626.62,-149C635.971,-149 645.523,-149 654.64,-149"/>
<polygon fill="midnightblue" stroke="midnightblue" points="626.581,-145.5 616.581,-149 626.581,-152.5 626.581,-145.5"/>
</g>
<!-- Node41&#45;&gt;Node41 -->
<g id="edge41" class="edge"><title>Node41&#45;&gt;Node41</title>
<path fill="none" stroke="midnightblue" d="M683.058,-174.458C686.277,-179.179 694.925,-182.5 709,-182.5 732.098,-182.5 740.579,-173.557 734.444,-164.159"/>
<polygon fill="midnightblue" stroke="midnightblue" points="686.568,-174.317 683.556,-164.159 679.577,-173.978 686.568,-174.317"/>
</g>
<!-- Node44 -->
<g id="node44" class="node"><title>Node44</title>
<g id="a_node44"><a xlink:href="../../de/df3/liolib_8c.html#addece2406777a40f0f591e3518293932" target="_top" xlink:title="g_read">
<polygon fill="none" stroke="black" points="270,-62.5 270,-81.5 316,-81.5 316,-62.5 270,-62.5"/>
<text text-anchor="middle" x="293" y="-69.5" font-family="Helvetica,sans-Serif" font-size="10.00">g_read</text>
</a>
</g>
</g>
<!-- Node43&#45;&gt;Node44 -->
<g id="edge45" class="edge"><title>Node43&#45;&gt;Node44</title>
<path fill="none" stroke="midnightblue" d="M221.248,-78.7092C237.908,-77.1294 256.044,-75.4096 269.783,-74.1068"/>
<polygon fill="midnightblue" stroke="midnightblue" points="220.744,-75.2413 211.119,-79.6698 221.404,-82.21 220.744,-75.2413"/>
</g>
<!-- Node45 -->
<g id="node45" class="node"><title>Node45</title>
<g id="a_node45"><a xlink:href="../../de/df3/liolib_8c.html#add5250a74576076467531e4eb8f5f68e" target="_top" xlink:title="f_read">
<polygon fill="none" stroke="black" points="393,-95.5 393,-114.5 436,-114.5 436,-95.5 393,-95.5"/>
<text text-anchor="middle" x="414.5" y="-102.5" font-family="Helvetica,sans-Serif" font-size="10.00">f_read</text>
</a>
</g>
</g>
<!-- Node44&#45;&gt;Node45 -->
<g id="edge46" class="edge"><title>Node44&#45;&gt;Node45</title>
<path fill="none" stroke="midnightblue" d="M326.029,-80.8447C347.159,-86.6798 374.232,-94.156 392.623,-99.2347"/>
<polygon fill="midnightblue" stroke="midnightblue" points="326.768,-77.4179 316.197,-78.1297 324.905,-84.1654 326.768,-77.4179"/>
</g>
<!-- Node46 -->
<g id="node46" class="node"><title>Node46</title>
<g id="a_node46"><a xlink:href="../../de/df3/liolib_8c.html#a45307aa59a628966c6ea270e9b476d9a" target="_top" xlink:title="io_read">
<polygon fill="none" stroke="black" points="391,-57.5 391,-76.5 438,-76.5 438,-57.5 391,-57.5"/>
<text text-anchor="middle" x="414.5" y="-64.5" font-family="Helvetica,sans-Serif" font-size="10.00">io_read</text>
</a>
</g>
</g>
<!-- Node44&#45;&gt;Node46 -->
<g id="edge47" class="edge"><title>Node44&#45;&gt;Node46</title>
<path fill="none" stroke="midnightblue" d="M326.267,-70.6499C346.602,-69.7991 372.366,-68.7211 390.608,-67.9578"/>
<polygon fill="midnightblue" stroke="midnightblue" points="326.042,-67.1562 316.197,-71.0713 326.335,-74.1501 326.042,-67.1562"/>
</g>
<!-- Node47 -->
<g id="node47" class="node"><title>Node47</title>
<g id="a_node47"><a xlink:href="../../de/df3/liolib_8c.html#ac37d80ee2cc364b4adafcb6f7c20f28b" target="_top" xlink:title="io_readline">
<polygon fill="none" stroke="black" points="384,-19.5 384,-38.5 445,-38.5 445,-19.5 384,-19.5"/>
<text text-anchor="middle" x="414.5" y="-26.5" font-family="Helvetica,sans-Serif" font-size="10.00">io_readline</text>
</a>
</g>
</g>
<!-- Node44&#45;&gt;Node47 -->
<g id="edge48" class="edge"><title>Node44&#45;&gt;Node47</title>
<path fill="none" stroke="midnightblue" d="M325.795,-60.3833C336.64,-56.4355 348.843,-52.0095 360,-48 368.626,-44.8998 378.046,-41.5446 386.543,-38.5288"/>
<polygon fill="midnightblue" stroke="midnightblue" points="324.483,-57.1361 316.286,-63.8486 326.88,-63.713 324.483,-57.1361"/>
</g>
<!-- Node48 -->
<g id="node48" class="node"><title>Node48</title>
<g id="a_node48"><a xlink:href="../../de/df3/liolib_8c.html#a66325940a0248cee288153edb061c0c4" target="_top" xlink:title="aux_lines">
<polygon fill="none" stroke="black" points="533.5,-19.5 533.5,-38.5 590.5,-38.5 590.5,-19.5 533.5,-19.5"/>
<text text-anchor="middle" x="562" y="-26.5" font-family="Helvetica,sans-Serif" font-size="10.00">aux_lines</text>
</a>
</g>
</g>
<!-- Node47&#45;&gt;Node48 -->
<g id="edge49" class="edge"><title>Node47&#45;&gt;Node48</title>
<path fill="none" stroke="midnightblue" d="M455.441,-29C480.129,-29 511.195,-29 533.216,-29"/>
<polygon fill="midnightblue" stroke="midnightblue" points="455.295,-25.5001 445.295,-29 455.295,-32.5001 455.295,-25.5001"/>
</g>
<!-- Node49 -->
<g id="node49" class="node"><title>Node49</title>
<g id="a_node49"><a xlink:href="../../de/df3/liolib_8c.html#a6a36f72d8b3966c1ebafab8a4791cb6c" target="_top" xlink:title="f_lines">
<polygon fill="none" stroke="black" points="687.5,-38.5 687.5,-57.5 730.5,-57.5 730.5,-38.5 687.5,-38.5"/>
<text text-anchor="middle" x="709" y="-45.5" font-family="Helvetica,sans-Serif" font-size="10.00">f_lines</text>
</a>
</g>
</g>
<!-- Node48&#45;&gt;Node49 -->
<g id="edge50" class="edge"><title>Node48&#45;&gt;Node49</title>
<path fill="none" stroke="midnightblue" d="M600.689,-33.9385C628.219,-37.5459 664.53,-42.3039 687.065,-45.2567"/>
<polygon fill="midnightblue" stroke="midnightblue" points="600.985,-30.4475 590.615,-32.6185 600.075,-37.3881 600.985,-30.4475"/>
</g>
<!-- Node50 -->
<g id="node50" class="node"><title>Node50</title>
<g id="a_node50"><a xlink:href="../../de/df3/liolib_8c.html#ab08031b51605d4ef676ec33a3b96a286" target="_top" xlink:title="io_lines">
<polygon fill="none" stroke="black" points="685.5,-0.5 685.5,-19.5 732.5,-19.5 732.5,-0.5 685.5,-0.5"/>
<text text-anchor="middle" x="709" y="-7.5" font-family="Helvetica,sans-Serif" font-size="10.00">io_lines</text>
</a>
</g>
</g>
<!-- Node48&#45;&gt;Node50 -->
<g id="edge51" class="edge"><title>Node48&#45;&gt;Node50</title>
<path fill="none" stroke="midnightblue" d="M600.797,-24.0472C627.588,-20.5368 662.651,-15.9423 685.253,-12.9807"/>
<polygon fill="midnightblue" stroke="midnightblue" points="600.075,-20.6119 590.615,-25.3815 600.985,-27.5525 600.075,-20.6119"/>
</g>
</g>
</svg>
