<?xml version="1.0" encoding="UTF-8" standalone="no"?>
<!DOCTYPE svg PUBLIC "-//W3C//DTD SVG 1.1//EN"
 "http://www.w3.org/Graphics/SVG/1.1/DTD/svg11.dtd">
<!-- Generated by graphviz version 2.38.0 (20140413.2041)
 -->
<!-- Title: lua_checkstack Pages: 1 -->
<svg width="641pt" height="560pt"
 viewBox="0.00 0.00 641.00 560.00" xmlns="http://www.w3.org/2000/svg" xmlns:xlink="http://www.w3.org/1999/xlink">
<g id="graph0" class="graph" transform="scale(1 1) rotate(0) translate(4 556)">
<title>lua_checkstack</title>
<!-- Node1 -->
<g id="node1" class="node"><title>Node1</title>
<polygon fill="#bfbfbf" stroke="black" points="0,-330.5 0,-349.5 81,-349.5 81,-330.5 0,-330.5"/>
<text text-anchor="middle" x="40.5" y="-337.5" font-family="Helvetica,sans-Serif" font-size="10.00">lua_checkstack</text>
</g>
<!-- Node2 -->
<g id="node2" class="node"><title>Node2</title>
<g id="a_node2"><a xlink:href="../../df/d2d/lcorolib_8c.html#aaa37b3a30ab0c6daef7fae8951fef3e7" target="_top" xlink:title="auxresume">
<polygon fill="none" stroke="black" points="128,-494.5 128,-513.5 192,-513.5 192,-494.5 128,-494.5"/>
<text text-anchor="middle" x="160" y="-501.5" font-family="Helvetica,sans-Serif" font-size="10.00">auxresume</text>
</a>
</g>
</g>
<!-- Node1&#45;&gt;Node2 -->
<g id="edge1" class="edge"><title>Node1&#45;&gt;Node2</title>
<path fill="none" stroke="midnightblue" d="M54.4374,-358.057C79.3455,-392.823 133.179,-467.96 152.186,-494.489"/>
<polygon fill="midnightblue" stroke="midnightblue" points="57.1676,-355.858 48.4983,-349.768 51.4773,-359.935 57.1676,-355.858"/>
</g>
<!-- Node6 -->
<g id="node6" class="node"><title>Node6</title>
<g id="a_node6"><a xlink:href="../../d8/dd3/lbaselib_8c.html#a1b1ef8a039dd08b155cdfcc6167b63fb" target="_top" xlink:title="finishpcall">
<polygon fill="none" stroke="black" points="131.5,-399.5 131.5,-418.5 188.5,-418.5 188.5,-399.5 131.5,-399.5"/>
<text text-anchor="middle" x="160" y="-406.5" font-family="Helvetica,sans-Serif" font-size="10.00">finishpcall</text>
</a>
</g>
</g>
<!-- Node1&#45;&gt;Node6 -->
<g id="edge5" class="edge"><title>Node1&#45;&gt;Node6</title>
<path fill="none" stroke="midnightblue" d="M66.7083,-354.803C89.7472,-368.332 123.135,-387.939 142.801,-399.487"/>
<polygon fill="midnightblue" stroke="midnightblue" points="68.2333,-351.64 57.8379,-349.594 64.6887,-357.676 68.2333,-351.64"/>
</g>
<!-- Node10 -->
<g id="node10" class="node"><title>Node10</title>
<g id="a_node10"><a xlink:href="../../da/d29/lauxlib_8h.html#a724f5a5aeee97c0b40948c8bca91341c" target="_top" xlink:title="luaL_checkstack">
<polygon fill="none" stroke="black" points="117,-235.5 117,-254.5 203,-254.5 203,-235.5 117,-235.5"/>
<text text-anchor="middle" x="160" y="-242.5" font-family="Helvetica,sans-Serif" font-size="10.00">luaL_checkstack</text>
</a>
</g>
</g>
<!-- Node1&#45;&gt;Node10 -->
<g id="edge11" class="edge"><title>Node1&#45;&gt;Node10</title>
<path fill="none" stroke="midnightblue" d="M61.5923,-323.755C86.1848,-303.872 127.028,-270.85 147.109,-254.614"/>
<polygon fill="midnightblue" stroke="midnightblue" points="59.2078,-321.182 53.632,-330.191 63.6089,-326.626 59.2078,-321.182"/>
</g>
<!-- Node35 -->
<g id="node35" class="node"><title>Node35</title>
<g id="a_node35"><a xlink:href="../../d0/da1/ltablib_8c.html#aab557c98c16305370f73c4c716f5725d" target="_top" xlink:title="unpack">
<polygon fill="none" stroke="black" points="136,-197.5 136,-216.5 184,-216.5 184,-197.5 136,-197.5"/>
<text text-anchor="middle" x="160" y="-204.5" font-family="Helvetica,sans-Serif" font-size="10.00">unpack</text>
</a>
</g>
</g>
<!-- Node1&#45;&gt;Node35 -->
<g id="edge36" class="edge"><title>Node1&#45;&gt;Node35</title>
<path fill="none" stroke="midnightblue" d="M49.8927,-321.072C61.7028,-296.315 85.3697,-252.932 117,-226 122.484,-221.331 129.303,-217.596 135.841,-214.716"/>
<polygon fill="midnightblue" stroke="midnightblue" points="46.5819,-319.894 45.5684,-330.44 52.9374,-322.827 46.5819,-319.894"/>
</g>
<!-- Node3 -->
<g id="node3" class="node"><title>Node3</title>
<g id="a_node3"><a xlink:href="../../df/d2d/lcorolib_8c.html#a777abb20385a69ce4787f72bd90375a7" target="_top" xlink:title="luaB_auxwrap">
<polygon fill="none" stroke="black" points="240,-532.5 240,-551.5 320,-551.5 320,-532.5 240,-532.5"/>
<text text-anchor="middle" x="280" y="-539.5" font-family="Helvetica,sans-Serif" font-size="10.00">luaB_auxwrap</text>
</a>
</g>
</g>
<!-- Node2&#45;&gt;Node3 -->
<g id="edge2" class="edge"><title>Node2&#45;&gt;Node3</title>
<path fill="none" stroke="midnightblue" d="M200.376,-516.68C216.32,-521.815 234.421,-527.644 249.233,-532.414"/>
<polygon fill="midnightblue" stroke="midnightblue" points="201.368,-513.323 190.776,-513.589 199.222,-519.986 201.368,-513.323"/>
</g>
<!-- Node5 -->
<g id="node5" class="node"><title>Node5</title>
<g id="a_node5"><a xlink:href="../../df/d2d/lcorolib_8c.html#a76f5d80387eeb1c7d31eb5f9cb6c9392" target="_top" xlink:title="luaB_coresume">
<polygon fill="none" stroke="black" points="239,-494.5 239,-513.5 321,-513.5 321,-494.5 239,-494.5"/>
<text text-anchor="middle" x="280" y="-501.5" font-family="Helvetica,sans-Serif" font-size="10.00">luaB_coresume</text>
</a>
</g>
</g>
<!-- Node2&#45;&gt;Node5 -->
<g id="edge4" class="edge"><title>Node2&#45;&gt;Node5</title>
<path fill="none" stroke="midnightblue" d="M202.136,-504C214.045,-504 227.025,-504 238.87,-504"/>
<polygon fill="midnightblue" stroke="midnightblue" points="202.003,-500.5 192.003,-504 202.003,-507.5 202.003,-500.5"/>
</g>
<!-- Node4 -->
<g id="node4" class="node"><title>Node4</title>
<g id="a_node4"><a xlink:href="../../df/d2d/lcorolib_8c.html#a1c0429e27f504b08e25f437f733edad1" target="_top" xlink:title="luaB_cowrap">
<polygon fill="none" stroke="black" points="367,-532.5 367,-551.5 441,-551.5 441,-532.5 367,-532.5"/>
<text text-anchor="middle" x="404" y="-539.5" font-family="Helvetica,sans-Serif" font-size="10.00">luaB_cowrap</text>
</a>
</g>
</g>
<!-- Node3&#45;&gt;Node4 -->
<g id="edge3" class="edge"><title>Node3&#45;&gt;Node4</title>
<path fill="none" stroke="midnightblue" d="M330.297,-542C342.464,-542 355.276,-542 366.698,-542"/>
<polygon fill="midnightblue" stroke="midnightblue" points="330.273,-538.5 320.273,-542 330.273,-545.5 330.273,-538.5"/>
</g>
<!-- Node7 -->
<g id="node7" class="node"><title>Node7</title>
<g id="a_node7"><a xlink:href="../../d8/dd3/lbaselib_8c.html#a1fb2725eed679431d070b2e9e7abc223" target="_top" xlink:title="luaB_pcall">
<polygon fill="none" stroke="black" points="373.5,-456.5 373.5,-475.5 434.5,-475.5 434.5,-456.5 373.5,-456.5"/>
<text text-anchor="middle" x="404" y="-463.5" font-family="Helvetica,sans-Serif" font-size="10.00">luaB_pcall</text>
</a>
</g>
</g>
<!-- Node6&#45;&gt;Node7 -->
<g id="edge6" class="edge"><title>Node6&#45;&gt;Node7</title>
<path fill="none" stroke="midnightblue" d="M185.561,-423.637C200.503,-431.852 220.261,-441.523 239,-447 284.67,-460.347 340.069,-464.374 373.377,-465.555"/>
<polygon fill="midnightblue" stroke="midnightblue" points="186.924,-420.386 176.497,-418.507 183.476,-426.479 186.924,-420.386"/>
</g>
<!-- Node8 -->
<g id="node8" class="node"><title>Node8</title>
<g id="a_node8"><a xlink:href="../../d8/dd3/lbaselib_8c.html#a5fbb0094fa1a56f0a4c2547f1ec4c5ab" target="_top" xlink:title="luaB_xpcall">
<polygon fill="none" stroke="black" points="371,-418.5 371,-437.5 437,-437.5 437,-418.5 371,-418.5"/>
<text text-anchor="middle" x="404" y="-425.5" font-family="Helvetica,sans-Serif" font-size="10.00">luaB_xpcall</text>
</a>
</g>
</g>
<!-- Node6&#45;&gt;Node8 -->
<g id="edge7" class="edge"><title>Node6&#45;&gt;Node8</title>
<path fill="none" stroke="midnightblue" d="M198.969,-406.58C231.475,-405.086 279.468,-404.251 321,-409 337.696,-410.909 355.94,-414.937 370.971,-418.795"/>
<polygon fill="midnightblue" stroke="midnightblue" points="198.381,-403.105 188.571,-407.105 198.734,-410.096 198.381,-403.105"/>
</g>
<!-- Node9 -->
<g id="node9" class="node"><title>Node9</title>
<g id="a_node9"><a xlink:href="../../d8/dd3/lbaselib_8c.html#a5c3f578f609d0b87ba75dc1d32287262" target="_top" xlink:title="pcallcont">
<polygon fill="none" stroke="black" points="253.5,-418.5 253.5,-437.5 306.5,-437.5 306.5,-418.5 253.5,-418.5"/>
<text text-anchor="middle" x="280" y="-425.5" font-family="Helvetica,sans-Serif" font-size="10.00">pcallcont</text>
</a>
</g>
</g>
<!-- Node6&#45;&gt;Node9 -->
<g id="edge8" class="edge"><title>Node6&#45;&gt;Node9</title>
<path fill="none" stroke="midnightblue" d="M198.715,-415.073C216.464,-417.931 237.181,-421.266 253.124,-423.833"/>
<polygon fill="midnightblue" stroke="midnightblue" points="199.095,-411.589 188.666,-413.455 197.982,-418.5 199.095,-411.589"/>
</g>
<!-- Node9&#45;&gt;Node7 -->
<g id="edge9" class="edge"><title>Node9&#45;&gt;Node7</title>
<path fill="none" stroke="midnightblue" d="M316.165,-438.953C334.206,-444.572 355.945,-451.344 373.159,-456.705"/>
<polygon fill="midnightblue" stroke="midnightblue" points="317.164,-435.598 306.575,-435.966 315.082,-442.282 317.164,-435.598"/>
</g>
<!-- Node9&#45;&gt;Node8 -->
<g id="edge10" class="edge"><title>Node9&#45;&gt;Node8</title>
<path fill="none" stroke="midnightblue" d="M316.772,-428C333.92,-428 354.295,-428 370.933,-428"/>
<polygon fill="midnightblue" stroke="midnightblue" points="316.575,-424.5 306.575,-428 316.575,-431.5 316.575,-424.5"/>
</g>
<!-- Node11 -->
<g id="node11" class="node"><title>Node11</title>
<g id="a_node11"><a xlink:href="../../de/df3/liolib_8c.html#addece2406777a40f0f591e3518293932" target="_top" xlink:title="g_read">
<polygon fill="none" stroke="black" points="257,-308.5 257,-327.5 303,-327.5 303,-308.5 257,-308.5"/>
<text text-anchor="middle" x="280" y="-315.5" font-family="Helvetica,sans-Serif" font-size="10.00">g_read</text>
</a>
</g>
</g>
<!-- Node10&#45;&gt;Node11 -->
<g id="edge12" class="edge"><title>Node10&#45;&gt;Node11</title>
<path fill="none" stroke="midnightblue" d="M185.11,-259.915C208.599,-274.447 243.603,-296.102 263.57,-308.454"/>
<polygon fill="midnightblue" stroke="midnightblue" points="186.772,-256.828 176.426,-254.543 183.089,-262.781 186.772,-256.828"/>
</g>
<!-- Node18 -->
<g id="node18" class="node"><title>Node18</title>
<g id="a_node18"><a xlink:href="../../d8/dd3/lbaselib_8c.html#ad467c787e381e8d18e4c7b46b4f1b05d" target="_top" xlink:title="generic_reader">
<polygon fill="none" stroke="black" points="241.5,-261.5 241.5,-280.5 318.5,-280.5 318.5,-261.5 241.5,-261.5"/>
<text text-anchor="middle" x="280" y="-268.5" font-family="Helvetica,sans-Serif" font-size="10.00">generic_reader</text>
</a>
</g>
</g>
<!-- Node10&#45;&gt;Node18 -->
<g id="edge19" class="edge"><title>Node10&#45;&gt;Node18</title>
<path fill="none" stroke="midnightblue" d="M213.056,-256.47C222.575,-258.567 232.339,-260.719 241.337,-262.701"/>
<polygon fill="midnightblue" stroke="midnightblue" points="213.786,-253.047 203.267,-254.313 212.28,-259.883 213.786,-253.047"/>
</g>
<!-- Node20 -->
<g id="node20" class="node"><title>Node20</title>
<g id="a_node20"><a xlink:href="../../da/d29/lauxlib_8h.html#a8750009b9bbc508e4c3818ebd15b4e14" target="_top" xlink:title="luaL_setfuncs">
<polygon fill="none" stroke="black" points="242.5,-209.5 242.5,-228.5 317.5,-228.5 317.5,-209.5 242.5,-209.5"/>
<text text-anchor="middle" x="280" y="-216.5" font-family="Helvetica,sans-Serif" font-size="10.00">luaL_setfuncs</text>
</a>
</g>
</g>
<!-- Node10&#45;&gt;Node20 -->
<g id="edge21" class="edge"><title>Node10&#45;&gt;Node20</title>
<path fill="none" stroke="midnightblue" d="M213.063,-233.529C222.989,-231.341 233.181,-229.096 242.494,-227.044"/>
<polygon fill="midnightblue" stroke="midnightblue" points="212.28,-230.117 203.267,-235.687 213.786,-236.953 212.28,-230.117"/>
</g>
<!-- Node25 -->
<g id="node25" class="node"><title>Node25</title>
<g id="a_node25"><a xlink:href="../../dc/d77/lstrlib_8c.html#ad14703c4bc40d7c1951dedb7bc7554f7" target="_top" xlink:title="push_captures">
<polygon fill="none" stroke="black" points="240,-143.5 240,-162.5 320,-162.5 320,-143.5 240,-143.5"/>
<text text-anchor="middle" x="280" y="-150.5" font-family="Helvetica,sans-Serif" font-size="10.00">push_captures</text>
</a>
</g>
</g>
<!-- Node10&#45;&gt;Node25 -->
<g id="edge26" class="edge"><title>Node10&#45;&gt;Node25</title>
<path fill="none" stroke="midnightblue" d="M194.856,-230.93C197.679,-229.386 200.432,-227.738 203,-226 230.877,-207.13 257.943,-177.674 270.962,-162.597"/>
<polygon fill="midnightblue" stroke="midnightblue" points="193.114,-227.888 185.741,-235.496 196.249,-234.147 193.114,-227.888"/>
</g>
<!-- Node33 -->
<g id="node33" class="node"><title>Node33</title>
<g id="a_node33"><a xlink:href="../../d0/da1/ltablib_8c.html#ae7d3f892e2605bf102dce63de388e626" target="_top" xlink:title="sort">
<polygon fill="none" stroke="black" points="264,-105.5 264,-124.5 296,-124.5 296,-105.5 264,-105.5"/>
<text text-anchor="middle" x="280" y="-112.5" font-family="Helvetica,sans-Serif" font-size="10.00">sort</text>
</a>
</g>
</g>
<!-- Node10&#45;&gt;Node33 -->
<g id="edge34" class="edge"><title>Node10&#45;&gt;Node33</title>
<path fill="none" stroke="midnightblue" d="M198.56,-230.015C200.143,-228.773 201.636,-227.436 203,-226 233.232,-194.158 209.065,-166.122 239,-134 245.604,-126.913 255.397,-122.2 263.64,-119.24"/>
<polygon fill="midnightblue" stroke="midnightblue" points="196.584,-227.124 190.054,-235.467 200.362,-233.017 196.584,-227.124"/>
</g>
<!-- Node34 -->
<g id="node34" class="node"><title>Node34</title>
<g id="a_node34"><a xlink:href="../../dc/d77/lstrlib_8c.html#ae561770420cfd1894054415df9d4c423" target="_top" xlink:title="str_byte">
<polygon fill="none" stroke="black" points="255,-67.5 255,-86.5 305,-86.5 305,-67.5 255,-67.5"/>
<text text-anchor="middle" x="280" y="-74.5" font-family="Helvetica,sans-Serif" font-size="10.00">str_byte</text>
</a>
</g>
</g>
<!-- Node10&#45;&gt;Node34 -->
<g id="edge35" class="edge"><title>Node10&#45;&gt;Node34</title>
<path fill="none" stroke="midnightblue" d="M199.73,-229.329C200.895,-228.286 201.992,-227.178 203,-226 241.991,-180.459 200.435,-141.902 239,-96 243.154,-91.0555 248.889,-87.3102 254.719,-84.5094"/>
<polygon fill="midnightblue" stroke="midnightblue" points="197.41,-226.682 191.243,-235.297 201.436,-232.408 197.41,-226.682"/>
</g>
<!-- Node12 -->
<g id="node12" class="node"><title>Node12</title>
<g id="a_node12"><a xlink:href="../../de/df3/liolib_8c.html#add5250a74576076467531e4eb8f5f68e" target="_top" xlink:title="f_read">
<polygon fill="none" stroke="black" points="382.5,-380.5 382.5,-399.5 425.5,-399.5 425.5,-380.5 382.5,-380.5"/>
<text text-anchor="middle" x="404" y="-387.5" font-family="Helvetica,sans-Serif" font-size="10.00">f_read</text>
</a>
</g>
</g>
<!-- Node11&#45;&gt;Node12 -->
<g id="edge13" class="edge"><title>Node11&#45;&gt;Node12</title>
<path fill="none" stroke="midnightblue" d="M301.096,-333.824C315.983,-345.088 337.06,-360.098 357,-371 365.036,-375.394 374.304,-379.406 382.406,-382.6"/>
<polygon fill="midnightblue" stroke="midnightblue" points="303.165,-331 293.102,-327.685 298.901,-336.551 303.165,-331"/>
</g>
<!-- Node13 -->
<g id="node13" class="node"><title>Node13</title>
<g id="a_node13"><a xlink:href="../../de/df3/liolib_8c.html#a45307aa59a628966c6ea270e9b476d9a" target="_top" xlink:title="io_read">
<polygon fill="none" stroke="black" points="380.5,-342.5 380.5,-361.5 427.5,-361.5 427.5,-342.5 380.5,-342.5"/>
<text text-anchor="middle" x="404" y="-349.5" font-family="Helvetica,sans-Serif" font-size="10.00">io_read</text>
</a>
</g>
</g>
<!-- Node11&#45;&gt;Node13 -->
<g id="edge14" class="edge"><title>Node11&#45;&gt;Node13</title>
<path fill="none" stroke="midnightblue" d="M312.92,-326.896C334.06,-332.787 361.283,-340.374 380.244,-345.658"/>
<polygon fill="midnightblue" stroke="midnightblue" points="313.666,-323.47 303.093,-324.157 311.787,-330.213 313.666,-323.47"/>
</g>
<!-- Node14 -->
<g id="node14" class="node"><title>Node14</title>
<g id="a_node14"><a xlink:href="../../de/df3/liolib_8c.html#ac37d80ee2cc364b4adafcb6f7c20f28b" target="_top" xlink:title="io_readline">
<polygon fill="none" stroke="black" points="373.5,-304.5 373.5,-323.5 434.5,-323.5 434.5,-304.5 373.5,-304.5"/>
<text text-anchor="middle" x="404" y="-311.5" font-family="Helvetica,sans-Serif" font-size="10.00">io_readline</text>
</a>
</g>
</g>
<!-- Node11&#45;&gt;Node14 -->
<g id="edge15" class="edge"><title>Node11&#45;&gt;Node14</title>
<path fill="none" stroke="midnightblue" d="M313.172,-316.945C331.795,-316.335 355.073,-315.571 373.266,-314.975"/>
<polygon fill="midnightblue" stroke="midnightblue" points="312.973,-313.45 303.093,-317.276 313.203,-320.446 312.973,-313.45"/>
</g>
<!-- Node15 -->
<g id="node15" class="node"><title>Node15</title>
<g id="a_node15"><a xlink:href="../../de/df3/liolib_8c.html#a66325940a0248cee288153edb061c0c4" target="_top" xlink:title="aux_lines">
<polygon fill="none" stroke="black" points="490,-304.5 490,-323.5 547,-323.5 547,-304.5 490,-304.5"/>
<text text-anchor="middle" x="518.5" y="-311.5" font-family="Helvetica,sans-Serif" font-size="10.00">aux_lines</text>
</a>
</g>
</g>
<!-- Node14&#45;&gt;Node15 -->
<g id="edge16" class="edge"><title>Node14&#45;&gt;Node15</title>
<path fill="none" stroke="midnightblue" d="M444.974,-314C459.768,-314 476.206,-314 489.686,-314"/>
<polygon fill="midnightblue" stroke="midnightblue" points="444.558,-310.5 434.558,-314 444.558,-317.5 444.558,-310.5"/>
</g>
<!-- Node16 -->
<g id="node16" class="node"><title>Node16</title>
<g id="a_node16"><a xlink:href="../../de/df3/liolib_8c.html#a6a36f72d8b3966c1ebafab8a4791cb6c" target="_top" xlink:title="f_lines">
<polygon fill="none" stroke="black" points="588,-323.5 588,-342.5 631,-342.5 631,-323.5 588,-323.5"/>
<text text-anchor="middle" x="609.5" y="-330.5" font-family="Helvetica,sans-Serif" font-size="10.00">f_lines</text>
</a>
</g>
</g>
<!-- Node15&#45;&gt;Node16 -->
<g id="edge17" class="edge"><title>Node15&#45;&gt;Node16</title>
<path fill="none" stroke="midnightblue" d="M557.063,-322.019C567.633,-324.276 578.74,-326.647 587.916,-328.606"/>
<polygon fill="midnightblue" stroke="midnightblue" points="557.683,-318.573 547.172,-319.908 556.221,-325.418 557.683,-318.573"/>
</g>
<!-- Node17 -->
<g id="node17" class="node"><title>Node17</title>
<g id="a_node17"><a xlink:href="../../de/df3/liolib_8c.html#ab08031b51605d4ef676ec33a3b96a286" target="_top" xlink:title="io_lines">
<polygon fill="none" stroke="black" points="586,-285.5 586,-304.5 633,-304.5 633,-285.5 586,-285.5"/>
<text text-anchor="middle" x="609.5" y="-292.5" font-family="Helvetica,sans-Serif" font-size="10.00">io_lines</text>
</a>
</g>
</g>
<!-- Node15&#45;&gt;Node17 -->
<g id="edge18" class="edge"><title>Node15&#45;&gt;Node17</title>
<path fill="none" stroke="midnightblue" d="M557.131,-305.966C566.924,-303.876 577.172,-301.688 585.916,-299.821"/>
<polygon fill="midnightblue" stroke="midnightblue" points="556.221,-302.582 547.172,-308.092 557.683,-309.427 556.221,-302.582"/>
</g>
<!-- Node19 -->
<g id="node19" class="node"><title>Node19</title>
<g id="a_node19"><a xlink:href="../../d8/dd3/lbaselib_8c.html#a4a9a3613fcf80fe033e044f7e19bed69" target="_top" xlink:title="luaB_load">
<polygon fill="none" stroke="black" points="374.5,-266.5 374.5,-285.5 433.5,-285.5 433.5,-266.5 374.5,-266.5"/>
<text text-anchor="middle" x="404" y="-273.5" font-family="Helvetica,sans-Serif" font-size="10.00">luaB_load</text>
</a>
</g>
</g>
<!-- Node18&#45;&gt;Node19 -->
<g id="edge20" class="edge"><title>Node18&#45;&gt;Node19</title>
<path fill="none" stroke="midnightblue" d="M328.966,-272.966C344.278,-273.593 360.739,-274.268 374.242,-274.821"/>
<polygon fill="midnightblue" stroke="midnightblue" points="328.734,-269.453 318.6,-272.541 328.448,-276.448 328.734,-269.453"/>
</g>
<!-- Node21 -->
<g id="node21" class="node"><title>Node21</title>
<g id="a_node21"><a xlink:href="../../de/df3/liolib_8c.html#a2edb7e84ca2f51dafb5d77b9c81a804c" target="_top" xlink:title="createmeta">
<polygon fill="none" stroke="black" points="372.5,-228.5 372.5,-247.5 435.5,-247.5 435.5,-228.5 372.5,-228.5"/>
<text text-anchor="middle" x="404" y="-235.5" font-family="Helvetica,sans-Serif" font-size="10.00">createmeta</text>
</a>
</g>
</g>
<!-- Node20&#45;&gt;Node21 -->
<g id="edge22" class="edge"><title>Node20&#45;&gt;Node21</title>
<path fill="none" stroke="midnightblue" d="M327.683,-226.27C342.588,-228.592 358.701,-231.101 372.185,-233.201"/>
<polygon fill="midnightblue" stroke="midnightblue" points="328.024,-222.781 317.604,-224.701 326.946,-229.698 328.024,-222.781"/>
</g>
<!-- Node23 -->
<g id="node23" class="node"><title>Node23</title>
<g id="a_node23"><a xlink:href="../../d6/d07/lualib_8h.html#a1aebe7162861d1f3fe9c0d6d269031d4" target="_top" xlink:title="luaopen_base">
<polygon fill="none" stroke="black" points="364.5,-190.5 364.5,-209.5 443.5,-209.5 443.5,-190.5 364.5,-190.5"/>
<text text-anchor="middle" x="404" y="-197.5" font-family="Helvetica,sans-Serif" font-size="10.00">luaopen_base</text>
</a>
</g>
</g>
<!-- Node20&#45;&gt;Node23 -->
<g id="edge24" class="edge"><title>Node20&#45;&gt;Node23</title>
<path fill="none" stroke="midnightblue" d="M327.558,-211.749C339.688,-209.86 352.627,-207.845 364.302,-206.027"/>
<polygon fill="midnightblue" stroke="midnightblue" points="326.946,-208.302 317.604,-213.299 328.024,-215.219 326.946,-208.302"/>
</g>
<!-- Node24 -->
<g id="node24" class="node"><title>Node24</title>
<g id="a_node24"><a xlink:href="../../d6/d07/lualib_8h.html#a05e0befc0439f926b6152129ab4f8dea" target="_top" xlink:title="luaopen_package">
<polygon fill="none" stroke="black" points="357,-152.5 357,-171.5 451,-171.5 451,-152.5 357,-152.5"/>
<text text-anchor="middle" x="404" y="-159.5" font-family="Helvetica,sans-Serif" font-size="10.00">luaopen_package</text>
</a>
</g>
</g>
<!-- Node20&#45;&gt;Node24 -->
<g id="edge25" class="edge"><title>Node20&#45;&gt;Node24</title>
<path fill="none" stroke="midnightblue" d="M308.542,-204.631C322.873,-197.307 340.75,-188.407 357,-181 364.076,-177.775 371.862,-174.469 378.985,-171.538"/>
<polygon fill="midnightblue" stroke="midnightblue" points="306.541,-201.724 299.25,-209.412 309.743,-207.948 306.541,-201.724"/>
</g>
<!-- Node22 -->
<g id="node22" class="node"><title>Node22</title>
<g id="a_node22"><a xlink:href="../../d6/d07/lualib_8h.html#a686b841d953f3113ddc7538d69debce7" target="_top" xlink:title="luaopen_io">
<polygon fill="none" stroke="black" points="487,-228.5 487,-247.5 550,-247.5 550,-228.5 487,-228.5"/>
<text text-anchor="middle" x="518.5" y="-235.5" font-family="Helvetica,sans-Serif" font-size="10.00">luaopen_io</text>
</a>
</g>
</g>
<!-- Node21&#45;&gt;Node22 -->
<g id="edge23" class="edge"><title>Node21&#45;&gt;Node22</title>
<path fill="none" stroke="midnightblue" d="M445.782,-238C459.319,-238 474.151,-238 486.796,-238"/>
<polygon fill="midnightblue" stroke="midnightblue" points="445.741,-234.5 435.741,-238 445.741,-241.5 445.741,-234.5"/>
</g>
<!-- Node26 -->
<g id="node26" class="node"><title>Node26</title>
<g id="a_node26"><a xlink:href="../../dc/d77/lstrlib_8c.html#ad24cfa73e5ad25ec99a1b48f0916471e" target="_top" xlink:title="add_value">
<polygon fill="none" stroke="black" points="373,-114.5 373,-133.5 435,-133.5 435,-114.5 373,-114.5"/>
<text text-anchor="middle" x="404" y="-121.5" font-family="Helvetica,sans-Serif" font-size="10.00">add_value</text>
</a>
</g>
</g>
<!-- Node25&#45;&gt;Node26 -->
<g id="edge27" class="edge"><title>Node25&#45;&gt;Node26</title>
<path fill="none" stroke="midnightblue" d="M330.065,-141.337C344.482,-137.91 359.826,-134.263 372.701,-131.202"/>
<polygon fill="midnightblue" stroke="midnightblue" points="329.193,-137.947 320.273,-143.665 330.811,-144.757 329.193,-137.947"/>
</g>
<!-- Node28 -->
<g id="node28" class="node"><title>Node28</title>
<g id="a_node28"><a xlink:href="../../dc/d77/lstrlib_8c.html#ab7cb0ba6191e1aa9455f6522d3483a02" target="_top" xlink:title="gmatch_aux">
<polygon fill="none" stroke="black" points="369.5,-76.5 369.5,-95.5 438.5,-95.5 438.5,-76.5 369.5,-76.5"/>
<text text-anchor="middle" x="404" y="-83.5" font-family="Helvetica,sans-Serif" font-size="10.00">gmatch_aux</text>
</a>
</g>
</g>
<!-- Node25&#45;&gt;Node28 -->
<g id="edge29" class="edge"><title>Node25&#45;&gt;Node28</title>
<path fill="none" stroke="midnightblue" d="M312.668,-138.818C315.534,-137.278 318.351,-135.664 321,-134 338.399,-123.073 339.324,-115.473 357,-105 362.947,-101.476 369.669,-98.2994 376.101,-95.5968"/>
<polygon fill="midnightblue" stroke="midnightblue" points="310.85,-135.815 303.5,-143.446 314.004,-142.064 310.85,-135.815"/>
</g>
<!-- Node30 -->
<g id="node30" class="node"><title>Node30</title>
<g id="a_node30"><a xlink:href="../../dc/d77/lstrlib_8c.html#a692514aa32ae2668683a4db15259d26b" target="_top" xlink:title="str_find_aux">
<polygon fill="none" stroke="black" points="370,-38.5 370,-57.5 438,-57.5 438,-38.5 370,-38.5"/>
<text text-anchor="middle" x="404" y="-45.5" font-family="Helvetica,sans-Serif" font-size="10.00">str_find_aux</text>
</a>
</g>
</g>
<!-- Node25&#45;&gt;Node30 -->
<g id="edge31" class="edge"><title>Node25&#45;&gt;Node30</title>
<path fill="none" stroke="midnightblue" d="M316.292,-137.92C317.955,-136.697 319.538,-135.391 321,-134 345.489,-110.697 331.917,-89.6616 357,-67 361.232,-63.177 366.339,-60.0623 371.589,-57.5449"/>
<polygon fill="midnightblue" stroke="midnightblue" points="314.156,-135.126 307.489,-143.36 317.836,-141.08 314.156,-135.126"/>
</g>
<!-- Node27 -->
<g id="node27" class="node"><title>Node27</title>
<g id="a_node27"><a xlink:href="../../dc/d77/lstrlib_8c.html#a42337c674d265175bcc2b2f3809c7339" target="_top" xlink:title="str_gsub">
<polygon fill="none" stroke="black" points="492,-114.5 492,-133.5 545,-133.5 545,-114.5 492,-114.5"/>
<text text-anchor="middle" x="518.5" y="-121.5" font-family="Helvetica,sans-Serif" font-size="10.00">str_gsub</text>
</a>
</g>
</g>
<!-- Node26&#45;&gt;Node27 -->
<g id="edge28" class="edge"><title>Node26&#45;&gt;Node27</title>
<path fill="none" stroke="midnightblue" d="M445.51,-124C460.967,-124 478.148,-124 491.849,-124"/>
<polygon fill="midnightblue" stroke="midnightblue" points="445.148,-120.5 435.148,-124 445.148,-127.5 445.148,-120.5"/>
</g>
<!-- Node29 -->
<g id="node29" class="node"><title>Node29</title>
<g id="a_node29"><a xlink:href="../../dc/d77/lstrlib_8c.html#ab55a72bb412d6186c82fd75de44cd031" target="_top" xlink:title="gmatch">
<polygon fill="none" stroke="black" points="495,-76.5 495,-95.5 542,-95.5 542,-76.5 495,-76.5"/>
<text text-anchor="middle" x="518.5" y="-83.5" font-family="Helvetica,sans-Serif" font-size="10.00">gmatch</text>
</a>
</g>
</g>
<!-- Node28&#45;&gt;Node29 -->
<g id="edge30" class="edge"><title>Node28&#45;&gt;Node29</title>
<path fill="none" stroke="midnightblue" d="M448.829,-86C464.543,-86 481.618,-86 494.81,-86"/>
<polygon fill="midnightblue" stroke="midnightblue" points="448.754,-82.5001 438.754,-86 448.754,-89.5001 448.754,-82.5001"/>
</g>
<!-- Node31 -->
<g id="node31" class="node"><title>Node31</title>
<g id="a_node31"><a xlink:href="../../dc/d77/lstrlib_8c.html#a362a4bc9ba81ce87253cc3d74f015808" target="_top" xlink:title="str_find">
<polygon fill="none" stroke="black" points="495.5,-38.5 495.5,-57.5 541.5,-57.5 541.5,-38.5 495.5,-38.5"/>
<text text-anchor="middle" x="518.5" y="-45.5" font-family="Helvetica,sans-Serif" font-size="10.00">str_find</text>
</a>
</g>
</g>
<!-- Node30&#45;&gt;Node31 -->
<g id="edge32" class="edge"><title>Node30&#45;&gt;Node31</title>
<path fill="none" stroke="midnightblue" d="M448.396,-48C464.406,-48 481.884,-48 495.257,-48"/>
<polygon fill="midnightblue" stroke="midnightblue" points="448.145,-44.5001 438.145,-48 448.145,-51.5001 448.145,-44.5001"/>
</g>
<!-- Node32 -->
<g id="node32" class="node"><title>Node32</title>
<g id="a_node32"><a xlink:href="../../dc/d77/lstrlib_8c.html#a4b605e43b8f5738db9eae902bbc00f00" target="_top" xlink:title="str_match">
<polygon fill="none" stroke="black" points="490,-0.5 490,-19.5 547,-19.5 547,-0.5 490,-0.5"/>
<text text-anchor="middle" x="518.5" y="-7.5" font-family="Helvetica,sans-Serif" font-size="10.00">str_match</text>
</a>
</g>
</g>
<!-- Node30&#45;&gt;Node32 -->
<g id="edge33" class="edge"><title>Node30&#45;&gt;Node32</title>
<path fill="none" stroke="midnightblue" d="M443.123,-35.1229C458.462,-29.9417 475.814,-24.0804 489.898,-19.3232"/>
<polygon fill="midnightblue" stroke="midnightblue" points="441.743,-31.8948 433.389,-38.411 443.983,-38.5267 441.743,-31.8948"/>
</g>
</g>
</svg>
