<?xml version="1.0" encoding="UTF-8" standalone="no"?>
<!DOCTYPE svg PUBLIC "-//W3C//DTD SVG 1.1//EN"
 "http://www.w3.org/Graphics/SVG/1.1/DTD/svg11.dtd">
<!-- Generated by graphviz version 2.38.0 (20140413.2041)
 -->
<!-- Title: lua_rawgeti Pages: 1 -->
<svg width="299pt" height="370pt"
 viewBox="0.00 0.00 299.00 370.00" xmlns="http://www.w3.org/2000/svg" xmlns:xlink="http://www.w3.org/1999/xlink">
<g id="graph0" class="graph" transform="scale(1 1) rotate(0) translate(4 366)">
<title>lua_rawgeti</title>
<!-- Node1 -->
<g id="node1" class="node"><title>Node1</title>
<polygon fill="#bfbfbf" stroke="black" points="0,-171.5 0,-190.5 65,-190.5 65,-171.5 0,-171.5"/>
<text text-anchor="middle" x="32.5" y="-178.5" font-family="Helvetica,sans-Serif" font-size="10.00">lua_rawgeti</text>
</g>
<!-- Node2 -->
<g id="node2" class="node"><title>Node2</title>
<g id="a_node2"><a xlink:href="../../d0/da1/ltablib_8c.html#a4ea6cc51c099ea709c7755a49216f4d0" target="_top" xlink:title="addfield">
<polygon fill="none" stroke="black" points="106.5,-342.5 106.5,-361.5 155.5,-361.5 155.5,-342.5 106.5,-342.5"/>
<text text-anchor="middle" x="131" y="-349.5" font-family="Helvetica,sans-Serif" font-size="10.00">addfield</text>
</a>
</g>
</g>
<!-- Node1&#45;&gt;Node2 -->
<g id="edge1" class="edge"><title>Node1&#45;&gt;Node2</title>
<path fill="none" stroke="midnightblue" d="M38.3015,-200.519C46.7005,-231.466 66.5301,-292.436 101,-333 104.04,-336.578 107.92,-339.739 111.845,-342.406"/>
<polygon fill="midnightblue" stroke="midnightblue" points="41.619,-199.368 35.7184,-190.569 34.8436,-201.127 41.619,-199.368"/>
</g>
<!-- Node4 -->
<g id="node4" class="node"><title>Node4</title>
<g id="a_node4"><a xlink:href="../../d0/da1/ltablib_8c.html#a40096c011a188a26849b68cd9d5d920e" target="_top" xlink:title="auxsort">
<polygon fill="none" stroke="black" points="107,-304.5 107,-323.5 155,-323.5 155,-304.5 107,-304.5"/>
<text text-anchor="middle" x="131" y="-311.5" font-family="Helvetica,sans-Serif" font-size="10.00">auxsort</text>
</a>
</g>
</g>
<!-- Node1&#45;&gt;Node4 -->
<g id="edge3" class="edge"><title>Node1&#45;&gt;Node4</title>
<path fill="none" stroke="midnightblue" d="M41.4509,-199.962C52.263,-224.115 73.454,-266.174 101,-295 104.327,-298.481 108.406,-301.642 112.443,-304.343"/>
<polygon fill="midnightblue" stroke="midnightblue" points="44.5417,-198.293 37.3458,-190.517 38.1218,-201.083 44.5417,-198.293"/>
</g>
<!-- Node6 -->
<g id="node6" class="node"><title>Node6</title>
<g id="a_node6"><a xlink:href="../../d2/d82/loadlib_8c.html#aeea4101591c7cab25273f4dfe7d811d6" target="_top" xlink:title="findloader">
<polygon fill="none" stroke="black" points="103,-266.5 103,-285.5 159,-285.5 159,-266.5 103,-266.5"/>
<text text-anchor="middle" x="131" y="-273.5" font-family="Helvetica,sans-Serif" font-size="10.00">findloader</text>
</a>
</g>
</g>
<!-- Node1&#45;&gt;Node6 -->
<g id="edge5" class="edge"><title>Node1&#45;&gt;Node6</title>
<path fill="none" stroke="midnightblue" d="M47,-198.729C59.8535,-214.955 80.2638,-239.094 101,-257 104.918,-260.383 109.476,-263.637 113.803,-266.468"/>
<polygon fill="midnightblue" stroke="midnightblue" points="49.5887,-196.356 40.6826,-190.618 44.0662,-200.658 49.5887,-196.356"/>
</g>
<!-- Node8 -->
<g id="node8" class="node"><title>Node8</title>
<g id="a_node8"><a xlink:href="../../d2/d82/loadlib_8c.html#a59926ced6bee14c7b952ef79d3520084" target="_top" xlink:title="gctm">
<polygon fill="none" stroke="black" points="113,-228.5 113,-247.5 149,-247.5 149,-228.5 113,-228.5"/>
<text text-anchor="middle" x="131" y="-235.5" font-family="Helvetica,sans-Serif" font-size="10.00">gctm</text>
</a>
</g>
</g>
<!-- Node1&#45;&gt;Node8 -->
<g id="edge7" class="edge"><title>Node1&#45;&gt;Node8</title>
<path fill="none" stroke="midnightblue" d="M58.9295,-196.021C76.3356,-206.302 98.8895,-219.624 113.872,-228.474"/>
<polygon fill="midnightblue" stroke="midnightblue" points="60.2601,-192.742 49.8699,-190.669 56.7,-198.769 60.2601,-192.742"/>
</g>
<!-- Node10 -->
<g id="node10" class="node"><title>Node10</title>
<g id="a_node10"><a xlink:href="../../d8/dd3/lbaselib_8c.html#a9e49fcec5e66e36e817b1951123efc03" target="_top" xlink:title="ipairsaux">
<polygon fill="none" stroke="black" points="103,-190.5 103,-209.5 159,-209.5 159,-190.5 103,-190.5"/>
<text text-anchor="middle" x="131" y="-197.5" font-family="Helvetica,sans-Serif" font-size="10.00">ipairsaux</text>
</a>
</g>
</g>
<!-- Node1&#45;&gt;Node10 -->
<g id="edge9" class="edge"><title>Node1&#45;&gt;Node10</title>
<path fill="none" stroke="midnightblue" d="M75.0954,-189.19C84.4971,-191.041 94.2425,-192.96 102.867,-194.658"/>
<polygon fill="midnightblue" stroke="midnightblue" points="75.5855,-185.719 65.0977,-187.221 74.2332,-192.587 75.5855,-185.719"/>
</g>
<!-- Node12 -->
<g id="node12" class="node"><title>Node12</title>
<g id="a_node12"><a xlink:href="../../da/d29/lauxlib_8h.html#a2b69e67252d95df410818251f4b2d8e5" target="_top" xlink:title="luaL_ref">
<polygon fill="none" stroke="black" points="106,-152.5 106,-171.5 156,-171.5 156,-152.5 106,-152.5"/>
<text text-anchor="middle" x="131" y="-159.5" font-family="Helvetica,sans-Serif" font-size="10.00">luaL_ref</text>
</a>
</g>
</g>
<!-- Node1&#45;&gt;Node12 -->
<g id="edge11" class="edge"><title>Node1&#45;&gt;Node12</title>
<path fill="none" stroke="midnightblue" d="M75.0332,-172.822C85.6073,-170.741 96.6203,-168.572 105.987,-166.728"/>
<polygon fill="midnightblue" stroke="midnightblue" points="74.2332,-169.413 65.0977,-174.779 75.5855,-176.281 74.2332,-169.413"/>
</g>
<!-- Node13 -->
<g id="node13" class="node"><title>Node13</title>
<g id="a_node13"><a xlink:href="../../da/d29/lauxlib_8h.html#a6200030ecae784852045161274501e0e" target="_top" xlink:title="luaL_unref">
<polygon fill="none" stroke="black" points="101,-114.5 101,-133.5 161,-133.5 161,-114.5 101,-114.5"/>
<text text-anchor="middle" x="131" y="-121.5" font-family="Helvetica,sans-Serif" font-size="10.00">luaL_unref</text>
</a>
</g>
</g>
<!-- Node1&#45;&gt;Node13 -->
<g id="edge12" class="edge"><title>Node1&#45;&gt;Node13</title>
<path fill="none" stroke="midnightblue" d="M58.9295,-165.979C76.3356,-155.698 98.8895,-142.376 113.872,-133.526"/>
<polygon fill="midnightblue" stroke="midnightblue" points="56.7,-163.231 49.8699,-171.331 60.2601,-169.258 56.7,-163.231"/>
</g>
<!-- Node14 -->
<g id="node14" class="node"><title>Node14</title>
<g id="a_node14"><a xlink:href="../../d0/da1/ltablib_8c.html#a214ed6966e2b1b4c376ab0de0d09032e" target="_top" xlink:title="tinsert">
<polygon fill="none" stroke="black" points="110.5,-76.5 110.5,-95.5 151.5,-95.5 151.5,-76.5 110.5,-76.5"/>
<text text-anchor="middle" x="131" y="-83.5" font-family="Helvetica,sans-Serif" font-size="10.00">tinsert</text>
</a>
</g>
</g>
<!-- Node1&#45;&gt;Node14 -->
<g id="edge13" class="edge"><title>Node1&#45;&gt;Node14</title>
<path fill="none" stroke="midnightblue" d="M47,-163.271C59.8535,-147.045 80.2638,-122.906 101,-105 104.918,-101.617 109.476,-98.3626 113.803,-95.5323"/>
<polygon fill="midnightblue" stroke="midnightblue" points="44.0662,-161.342 40.6826,-171.382 49.5887,-165.644 44.0662,-161.342"/>
</g>
<!-- Node15 -->
<g id="node15" class="node"><title>Node15</title>
<g id="a_node15"><a xlink:href="../../d0/da1/ltablib_8c.html#ad8c41fe887a472709c6fdf075ba39d56" target="_top" xlink:title="tremove">
<polygon fill="none" stroke="black" points="106,-38.5 106,-57.5 156,-57.5 156,-38.5 106,-38.5"/>
<text text-anchor="middle" x="131" y="-45.5" font-family="Helvetica,sans-Serif" font-size="10.00">tremove</text>
</a>
</g>
</g>
<!-- Node1&#45;&gt;Node15 -->
<g id="edge14" class="edge"><title>Node1&#45;&gt;Node15</title>
<path fill="none" stroke="midnightblue" d="M41.4509,-162.038C52.263,-137.885 73.454,-95.8262 101,-67 104.327,-63.5187 108.406,-60.3577 112.443,-57.6569"/>
<polygon fill="midnightblue" stroke="midnightblue" points="38.1218,-160.917 37.3458,-171.483 44.5417,-163.707 38.1218,-160.917"/>
</g>
<!-- Node16 -->
<g id="node16" class="node"><title>Node16</title>
<g id="a_node16"><a xlink:href="../../d0/da1/ltablib_8c.html#aab557c98c16305370f73c4c716f5725d" target="_top" xlink:title="unpack">
<polygon fill="none" stroke="black" points="107,-0.5 107,-19.5 155,-19.5 155,-0.5 107,-0.5"/>
<text text-anchor="middle" x="131" y="-7.5" font-family="Helvetica,sans-Serif" font-size="10.00">unpack</text>
</a>
</g>
</g>
<!-- Node1&#45;&gt;Node16 -->
<g id="edge15" class="edge"><title>Node1&#45;&gt;Node16</title>
<path fill="none" stroke="midnightblue" d="M38.3015,-161.481C46.7005,-130.534 66.5301,-69.5641 101,-29 104.04,-25.4224 107.92,-22.261 111.845,-19.5944"/>
<polygon fill="midnightblue" stroke="midnightblue" points="34.8436,-160.873 35.7184,-171.431 41.619,-162.632 34.8436,-160.873"/>
</g>
<!-- Node3 -->
<g id="node3" class="node"><title>Node3</title>
<g id="a_node3"><a xlink:href="../../d0/da1/ltablib_8c.html#add6973c515a288f41265aca8e0ae6412" target="_top" xlink:title="tconcat">
<polygon fill="none" stroke="black" points="220.5,-342.5 220.5,-361.5 267.5,-361.5 267.5,-342.5 220.5,-342.5"/>
<text text-anchor="middle" x="244" y="-349.5" font-family="Helvetica,sans-Serif" font-size="10.00">tconcat</text>
</a>
</g>
</g>
<!-- Node2&#45;&gt;Node3 -->
<g id="edge2" class="edge"><title>Node2&#45;&gt;Node3</title>
<path fill="none" stroke="midnightblue" d="M165.984,-352C183.593,-352 204.622,-352 220.253,-352"/>
<polygon fill="midnightblue" stroke="midnightblue" points="165.54,-348.5 155.54,-352 165.54,-355.5 165.54,-348.5"/>
</g>
<!-- Node5 -->
<g id="node5" class="node"><title>Node5</title>
<g id="a_node5"><a xlink:href="../../d0/da1/ltablib_8c.html#ae7d3f892e2605bf102dce63de388e626" target="_top" xlink:title="sort">
<polygon fill="none" stroke="black" points="228,-304.5 228,-323.5 260,-323.5 260,-304.5 228,-304.5"/>
<text text-anchor="middle" x="244" y="-311.5" font-family="Helvetica,sans-Serif" font-size="10.00">sort</text>
</a>
</g>
</g>
<!-- Node4&#45;&gt;Node5 -->
<g id="edge4" class="edge"><title>Node4&#45;&gt;Node5</title>
<path fill="none" stroke="midnightblue" d="M165.32,-314C186.133,-314 211.927,-314 227.925,-314"/>
<polygon fill="midnightblue" stroke="midnightblue" points="165.269,-310.5 155.269,-314 165.269,-317.5 165.269,-310.5"/>
</g>
<!-- Node7 -->
<g id="node7" class="node"><title>Node7</title>
<g id="a_node7"><a xlink:href="../../d2/d82/loadlib_8c.html#a136874f5faa236dc52fb50109281e157" target="_top" xlink:title="ll_require">
<polygon fill="none" stroke="black" points="218,-266.5 218,-285.5 270,-285.5 270,-266.5 218,-266.5"/>
<text text-anchor="middle" x="244" y="-273.5" font-family="Helvetica,sans-Serif" font-size="10.00">ll_require</text>
</a>
</g>
</g>
<!-- Node6&#45;&gt;Node7 -->
<g id="edge6" class="edge"><title>Node6&#45;&gt;Node7</title>
<path fill="none" stroke="midnightblue" d="M169.225,-276C185.144,-276 203.321,-276 217.649,-276"/>
<polygon fill="midnightblue" stroke="midnightblue" points="169.154,-272.5 159.154,-276 169.154,-279.5 169.154,-272.5"/>
</g>
<!-- Node9 -->
<g id="node9" class="node"><title>Node9</title>
<g id="a_node9"><a xlink:href="../../d6/d07/lualib_8h.html#a05e0befc0439f926b6152129ab4f8dea" target="_top" xlink:title="luaopen_package">
<polygon fill="none" stroke="black" points="197,-228.5 197,-247.5 291,-247.5 291,-228.5 197,-228.5"/>
<text text-anchor="middle" x="244" y="-235.5" font-family="Helvetica,sans-Serif" font-size="10.00">luaopen_package</text>
</a>
</g>
</g>
<!-- Node8&#45;&gt;Node9 -->
<g id="edge8" class="edge"><title>Node8&#45;&gt;Node9</title>
<path fill="none" stroke="midnightblue" d="M159.376,-238C170.599,-238 183.908,-238 196.569,-238"/>
<polygon fill="midnightblue" stroke="midnightblue" points="159.344,-234.5 149.344,-238 159.344,-241.5 159.344,-234.5"/>
</g>
<!-- Node11 -->
<g id="node11" class="node"><title>Node11</title>
<g id="a_node11"><a xlink:href="../../d8/dd3/lbaselib_8c.html#a5cb8b3b13437afd94c3313f0a4b17d06" target="_top" xlink:title="luaB_ipairs">
<polygon fill="none" stroke="black" points="212,-190.5 212,-209.5 276,-209.5 276,-190.5 212,-190.5"/>
<text text-anchor="middle" x="244" y="-197.5" font-family="Helvetica,sans-Serif" font-size="10.00">luaB_ipairs</text>
</a>
</g>
</g>
<!-- Node10&#45;&gt;Node11 -->
<g id="edge10" class="edge"><title>Node10&#45;&gt;Node11</title>
<path fill="none" stroke="midnightblue" d="M169.314,-200C183.116,-200 198.606,-200 211.808,-200"/>
<polygon fill="midnightblue" stroke="midnightblue" points="169.154,-196.5 159.154,-200 169.154,-203.5 169.154,-196.5"/>
</g>
</g>
</svg>
