<?xml version="1.0" encoding="UTF-8" standalone="no"?>
<!DOCTYPE svg PUBLIC "-//W3C//DTD SVG 1.1//EN"
 "http://www.w3.org/Graphics/SVG/1.1/DTD/svg11.dtd">
<!-- Generated by graphviz version 2.38.0 (20140413.2041)
 -->
<!-- Title: correctstack Pages: 1 -->
<svg width="1295pt" height="522pt"
 viewBox="0.00 0.00 1295.00 522.00" xmlns="http://www.w3.org/2000/svg" xmlns:xlink="http://www.w3.org/1999/xlink">
<g id="graph0" class="graph" transform="scale(1 1) rotate(0) translate(4 518)">
<title>correctstack</title>
<!-- Node1 -->
<g id="node1" class="node"><title>Node1</title>
<polygon fill="#bfbfbf" stroke="black" points="0,-242.5 0,-261.5 65,-261.5 65,-242.5 0,-242.5"/>
<text text-anchor="middle" x="32.5" y="-249.5" font-family="Helvetica,sans-Serif" font-size="10.00">correctstack</text>
</g>
<!-- Node2 -->
<g id="node2" class="node"><title>Node2</title>
<g id="a_node2"><a xlink:href="../../d2/dd9/ldo_8h.html#a288c8536559791569d9ed49b16c6e99a" target="_top" xlink:title="luaD_reallocstack">
<polygon fill="none" stroke="black" points="101,-242.5 101,-261.5 192,-261.5 192,-242.5 101,-242.5"/>
<text text-anchor="middle" x="146.5" y="-249.5" font-family="Helvetica,sans-Serif" font-size="10.00">luaD_reallocstack</text>
</a>
</g>
</g>
<!-- Node1&#45;&gt;Node2 -->
<g id="edge1" class="edge"><title>Node1&#45;&gt;Node2</title>
<path fill="none" stroke="midnightblue" d="M75.4359,-252C83.6712,-252 92.3403,-252 100.666,-252"/>
<polygon fill="midnightblue" stroke="midnightblue" points="75.2952,-248.5 65.2951,-252 75.2951,-255.5 75.2952,-248.5"/>
</g>
<!-- Node3 -->
<g id="node3" class="node"><title>Node3</title>
<g id="a_node3"><a xlink:href="../../d2/dd9/ldo_8h.html#ab83418a7edbfafe87886f156aa6a9988" target="_top" xlink:title="luaD_growstack">
<polygon fill="none" stroke="black" points="229.5,-287.5 229.5,-306.5 315.5,-306.5 315.5,-287.5 229.5,-287.5"/>
<text text-anchor="middle" x="272.5" y="-294.5" font-family="Helvetica,sans-Serif" font-size="10.00">luaD_growstack</text>
</a>
</g>
</g>
<!-- Node2&#45;&gt;Node3 -->
<g id="edge2" class="edge"><title>Node2&#45;&gt;Node3</title>
<path fill="none" stroke="midnightblue" d="M183.393,-265.026C203.155,-272.197 227.247,-280.941 245.241,-287.47"/>
<polygon fill="midnightblue" stroke="midnightblue" points="184.391,-261.665 173.797,-261.543 182.003,-268.245 184.391,-261.665"/>
</g>
<!-- Node27 -->
<g id="node27" class="node"><title>Node27</title>
<g id="a_node27"><a xlink:href="../../d2/dd9/ldo_8h.html#a14e1a8d3ba0e5f6d55decb8b48826750" target="_top" xlink:title="luaD_shrinkstack">
<polygon fill="none" stroke="black" points="228,-198.5 228,-217.5 317,-217.5 317,-198.5 228,-198.5"/>
<text text-anchor="middle" x="272.5" y="-205.5" font-family="Helvetica,sans-Serif" font-size="10.00">luaD_shrinkstack</text>
</a>
</g>
</g>
<!-- Node2&#45;&gt;Node27 -->
<g id="edge28" class="edge"><title>Node2&#45;&gt;Node27</title>
<path fill="none" stroke="midnightblue" d="M183.869,-239.095C203.324,-232.192 226.865,-223.838 244.646,-217.529"/>
<polygon fill="midnightblue" stroke="midnightblue" points="182.66,-235.81 174.406,-242.453 185.001,-242.407 182.66,-235.81"/>
</g>
<!-- Node4 -->
<g id="node4" class="node"><title>Node4</title>
<g id="a_node4"><a xlink:href="../../df/db6/lapi_8c.html#ab3a8303d450a61e55f7928da1fe14302" target="_top" xlink:title="growstack">
<polygon fill="none" stroke="black" points="359.5,-313.5 359.5,-332.5 419.5,-332.5 419.5,-313.5 359.5,-313.5"/>
<text text-anchor="middle" x="389.5" y="-320.5" font-family="Helvetica,sans-Serif" font-size="10.00">growstack</text>
</a>
</g>
</g>
<!-- Node3&#45;&gt;Node4 -->
<g id="edge3" class="edge"><title>Node3&#45;&gt;Node4</title>
<path fill="none" stroke="midnightblue" d="M325.684,-308.798C337.219,-311.406 349.042,-314.079 359.274,-316.392"/>
<polygon fill="midnightblue" stroke="midnightblue" points="326.194,-305.325 315.669,-306.534 324.651,-312.153 326.194,-305.325"/>
</g>
<!-- Node5 -->
<g id="node5" class="node"><title>Node5</title>
<g id="a_node5"><a xlink:href="../../da/dd2/lua_8h.html#a587f91654912f901426c7118ecc5348c" target="_top" xlink:title="lua_checkstack">
<polygon fill="none" stroke="black" points="462,-342.5 462,-361.5 543,-361.5 543,-342.5 462,-342.5"/>
<text text-anchor="middle" x="502.5" y="-349.5" font-family="Helvetica,sans-Serif" font-size="10.00">lua_checkstack</text>
</a>
</g>
</g>
<!-- Node4&#45;&gt;Node5 -->
<g id="edge4" class="edge"><title>Node4&#45;&gt;Node5</title>
<path fill="none" stroke="midnightblue" d="M429.478,-333.183C441.017,-336.198 453.604,-339.487 464.981,-342.459"/>
<polygon fill="midnightblue" stroke="midnightblue" points="430.224,-329.761 419.664,-330.619 428.454,-336.534 430.224,-329.761"/>
</g>
<!-- Node6 -->
<g id="node6" class="node"><title>Node6</title>
<g id="a_node6"><a xlink:href="../../da/d29/lauxlib_8h.html#a724f5a5aeee97c0b40948c8bca91341c" target="_top" xlink:title="luaL_checkstack">
<polygon fill="none" stroke="black" points="826,-418.5 826,-437.5 912,-437.5 912,-418.5 826,-418.5"/>
<text text-anchor="middle" x="869" y="-425.5" font-family="Helvetica,sans-Serif" font-size="10.00">luaL_checkstack</text>
</a>
</g>
</g>
<!-- Node5&#45;&gt;Node6 -->
<g id="edge5" class="edge"><title>Node5&#45;&gt;Node6</title>
<path fill="none" stroke="midnightblue" d="M549.729,-364.037C559.38,-366.436 569.505,-368.87 579,-371 666.326,-390.586 769.311,-410.03 825.738,-420.374"/>
<polygon fill="midnightblue" stroke="midnightblue" points="550.442,-360.607 539.891,-361.563 548.736,-367.396 550.442,-360.607"/>
</g>
<!-- Node19 -->
<g id="node19" class="node"><title>Node19</title>
<g id="a_node19"><a xlink:href="../../d8/dd3/lbaselib_8c.html#a1b1ef8a039dd08b155cdfcc6167b63fb" target="_top" xlink:title="finishpcall">
<polygon fill="none" stroke="black" points="584.5,-342.5 584.5,-361.5 641.5,-361.5 641.5,-342.5 584.5,-342.5"/>
<text text-anchor="middle" x="613" y="-349.5" font-family="Helvetica,sans-Serif" font-size="10.00">finishpcall</text>
</a>
</g>
</g>
<!-- Node5&#45;&gt;Node19 -->
<g id="edge18" class="edge"><title>Node5&#45;&gt;Node19</title>
<path fill="none" stroke="midnightblue" d="M553.394,-352C564.068,-352 574.967,-352 584.426,-352"/>
<polygon fill="midnightblue" stroke="midnightblue" points="553.285,-348.5 543.285,-352 553.285,-355.5 553.285,-348.5"/>
</g>
<!-- Node23 -->
<g id="node23" class="node"><title>Node23</title>
<g id="a_node23"><a xlink:href="../../df/d2d/lcorolib_8c.html#aaa37b3a30ab0c6daef7fae8951fef3e7" target="_top" xlink:title="auxresume">
<polygon fill="none" stroke="black" points="581,-247.5 581,-266.5 645,-266.5 645,-247.5 581,-247.5"/>
<text text-anchor="middle" x="613" y="-254.5" font-family="Helvetica,sans-Serif" font-size="10.00">auxresume</text>
</a>
</g>
</g>
<!-- Node5&#45;&gt;Node23 -->
<g id="edge24" class="edge"><title>Node5&#45;&gt;Node23</title>
<path fill="none" stroke="midnightblue" d="M522.352,-335.494C545.091,-315.584 582.558,-282.779 601.02,-266.614"/>
<polygon fill="midnightblue" stroke="midnightblue" points="519.921,-332.97 514.703,-342.191 524.532,-338.237 519.921,-332.97"/>
</g>
<!-- Node26 -->
<g id="node26" class="node"><title>Node26</title>
<g id="a_node26"><a xlink:href="../../d0/da1/ltablib_8c.html#aab557c98c16305370f73c4c716f5725d" target="_top" xlink:title="unpack">
<polygon fill="none" stroke="black" points="589,-456.5 589,-475.5 637,-475.5 637,-456.5 589,-456.5"/>
<text text-anchor="middle" x="613" y="-463.5" font-family="Helvetica,sans-Serif" font-size="10.00">unpack</text>
</a>
</g>
</g>
<!-- Node5&#45;&gt;Node26 -->
<g id="edge27" class="edge"><title>Node5&#45;&gt;Node26</title>
<path fill="none" stroke="midnightblue" d="M516.263,-369.667C530.431,-388.654 554.541,-419.178 579,-442 584.594,-447.22 591.341,-452.307 597.273,-456.444"/>
<polygon fill="midnightblue" stroke="midnightblue" points="519.065,-367.569 510.318,-361.59 513.427,-371.719 519.065,-367.569"/>
</g>
<!-- Node7 -->
<g id="node7" class="node"><title>Node7</title>
<g id="a_node7"><a xlink:href="../../de/df3/liolib_8c.html#addece2406777a40f0f591e3518293932" target="_top" xlink:title="g_read">
<polygon fill="none" stroke="black" points="979.5,-418.5 979.5,-437.5 1025.5,-437.5 1025.5,-418.5 979.5,-418.5"/>
<text text-anchor="middle" x="1002.5" y="-425.5" font-family="Helvetica,sans-Serif" font-size="10.00">g_read</text>
</a>
</g>
</g>
<!-- Node6&#45;&gt;Node7 -->
<g id="edge6" class="edge"><title>Node6&#45;&gt;Node7</title>
<path fill="none" stroke="midnightblue" d="M922.46,-428C942.194,-428 963.596,-428 979.146,-428"/>
<polygon fill="midnightblue" stroke="midnightblue" points="922.331,-424.5 912.331,-428 922.331,-431.5 922.331,-424.5"/>
</g>
<!-- Node11 -->
<g id="node11" class="node"><title>Node11</title>
<g id="a_node11"><a xlink:href="../../d8/dd3/lbaselib_8c.html#ad467c787e381e8d18e4c7b46b4f1b05d" target="_top" xlink:title="generic_reader">
<polygon fill="none" stroke="black" points="964,-304.5 964,-323.5 1041,-323.5 1041,-304.5 964,-304.5"/>
<text text-anchor="middle" x="1002.5" y="-311.5" font-family="Helvetica,sans-Serif" font-size="10.00">generic_reader</text>
</a>
</g>
</g>
<!-- Node6&#45;&gt;Node11 -->
<g id="edge10" class="edge"><title>Node6&#45;&gt;Node11</title>
<path fill="none" stroke="midnightblue" d="M882.913,-410.051C900.737,-385.689 932.438,-343.93 948,-333 953.404,-329.204 959.644,-326.094 965.912,-323.57"/>
<polygon fill="midnightblue" stroke="midnightblue" points="879.868,-408.288 876.824,-418.436 885.532,-412.401 879.868,-408.288"/>
</g>
<!-- Node13 -->
<g id="node13" class="node"><title>Node13</title>
<g id="a_node13"><a xlink:href="../../da/d29/lauxlib_8h.html#a8750009b9bbc508e4c3818ebd15b4e14" target="_top" xlink:title="luaL_setfuncs">
<polygon fill="none" stroke="red" points="965,-380.5 965,-399.5 1040,-399.5 1040,-380.5 965,-380.5"/>
<text text-anchor="middle" x="1002.5" y="-387.5" font-family="Helvetica,sans-Serif" font-size="10.00">luaL_setfuncs</text>
</a>
</g>
</g>
<!-- Node6&#45;&gt;Node13 -->
<g id="edge12" class="edge"><title>Node6&#45;&gt;Node13</title>
<path fill="none" stroke="midnightblue" d="M912.878,-415.609C930.886,-410.406 951.51,-404.446 968.328,-399.586"/>
<polygon fill="midnightblue" stroke="midnightblue" points="911.818,-412.272 903.183,-418.411 913.762,-418.997 911.818,-412.272"/>
</g>
<!-- Node16 -->
<g id="node16" class="node"><title>Node16</title>
<g id="a_node16"><a xlink:href="../../dc/d77/lstrlib_8c.html#ad14703c4bc40d7c1951dedb7bc7554f7" target="_top" xlink:title="push_captures">
<polygon fill="none" stroke="red" points="962.5,-342.5 962.5,-361.5 1042.5,-361.5 1042.5,-342.5 962.5,-342.5"/>
<text text-anchor="middle" x="1002.5" y="-349.5" font-family="Helvetica,sans-Serif" font-size="10.00">push_captures</text>
</a>
</g>
</g>
<!-- Node6&#45;&gt;Node16 -->
<g id="edge15" class="edge"><title>Node6&#45;&gt;Node16</title>
<path fill="none" stroke="midnightblue" d="M889.007,-411.669C904.192,-399.245 926.431,-382.399 948,-371 954.797,-367.408 962.419,-364.241 969.732,-361.573"/>
<polygon fill="midnightblue" stroke="midnightblue" points="886.377,-409.306 880.94,-418.399 890.861,-414.681 886.377,-409.306"/>
</g>
<!-- Node17 -->
<g id="node17" class="node"><title>Node17</title>
<g id="a_node17"><a xlink:href="../../d0/da1/ltablib_8c.html#ae7d3f892e2605bf102dce63de388e626" target="_top" xlink:title="sort">
<polygon fill="none" stroke="black" points="986.5,-494.5 986.5,-513.5 1018.5,-513.5 1018.5,-494.5 986.5,-494.5"/>
<text text-anchor="middle" x="1002.5" y="-501.5" font-family="Helvetica,sans-Serif" font-size="10.00">sort</text>
</a>
</g>
</g>
<!-- Node6&#45;&gt;Node17 -->
<g id="edge16" class="edge"><title>Node6&#45;&gt;Node17</title>
<path fill="none" stroke="midnightblue" d="M889.007,-444.331C904.192,-456.755 926.431,-473.601 948,-485 960.375,-491.54 975.482,-496.67 986.483,-499.943"/>
<polygon fill="midnightblue" stroke="midnightblue" points="890.861,-441.319 880.94,-437.601 886.377,-446.694 890.861,-441.319"/>
</g>
<!-- Node18 -->
<g id="node18" class="node"><title>Node18</title>
<g id="a_node18"><a xlink:href="../../dc/d77/lstrlib_8c.html#ae561770420cfd1894054415df9d4c423" target="_top" xlink:title="str_byte">
<polygon fill="none" stroke="black" points="977.5,-456.5 977.5,-475.5 1027.5,-475.5 1027.5,-456.5 977.5,-456.5"/>
<text text-anchor="middle" x="1002.5" y="-463.5" font-family="Helvetica,sans-Serif" font-size="10.00">str_byte</text>
</a>
</g>
</g>
<!-- Node6&#45;&gt;Node18 -->
<g id="edge17" class="edge"><title>Node6&#45;&gt;Node18</title>
<path fill="none" stroke="midnightblue" d="M913.031,-440.435C934.427,-446.618 959.483,-453.858 977.457,-459.052"/>
<polygon fill="midnightblue" stroke="midnightblue" points="913.762,-437.003 903.183,-437.589 911.818,-443.728 913.762,-437.003"/>
</g>
<!-- Node8 -->
<g id="node8" class="node"><title>Node8</title>
<g id="a_node8"><a xlink:href="../../de/df3/liolib_8c.html#a45307aa59a628966c6ea270e9b476d9a" target="_top" xlink:title="io_read">
<polygon fill="none" stroke="black" points="1118,-494.5 1118,-513.5 1165,-513.5 1165,-494.5 1118,-494.5"/>
<text text-anchor="middle" x="1141.5" y="-501.5" font-family="Helvetica,sans-Serif" font-size="10.00">io_read</text>
</a>
</g>
</g>
<!-- Node7&#45;&gt;Node8 -->
<g id="edge7" class="edge"><title>Node7&#45;&gt;Node8</title>
<path fill="none" stroke="midnightblue" d="M1035.23,-436.499C1042.7,-439.235 1050.39,-442.702 1057,-447 1076.5,-459.688 1073.75,-471.932 1093,-485 1100.5,-490.089 1109.56,-494.139 1117.75,-497.17"/>
<polygon fill="midnightblue" stroke="midnightblue" points="1036.26,-433.153 1025.66,-433.316 1034.05,-439.795 1036.26,-433.153"/>
</g>
<!-- Node9 -->
<g id="node9" class="node"><title>Node9</title>
<g id="a_node9"><a xlink:href="../../de/df3/liolib_8c.html#add5250a74576076467531e4eb8f5f68e" target="_top" xlink:title="f_read">
<polygon fill="none" stroke="black" points="1120,-456.5 1120,-475.5 1163,-475.5 1163,-456.5 1120,-456.5"/>
<text text-anchor="middle" x="1141.5" y="-463.5" font-family="Helvetica,sans-Serif" font-size="10.00">f_read</text>
</a>
</g>
</g>
<!-- Node7&#45;&gt;Node9 -->
<g id="edge8" class="edge"><title>Node7&#45;&gt;Node9</title>
<path fill="none" stroke="midnightblue" d="M1035.3,-436.821C1061.36,-444.049 1097.47,-454.065 1119.89,-460.283"/>
<polygon fill="midnightblue" stroke="midnightblue" points="1036.08,-433.406 1025.51,-434.105 1034.21,-440.151 1036.08,-433.406"/>
</g>
<!-- Node10 -->
<g id="node10" class="node"><title>Node10</title>
<g id="a_node10"><a xlink:href="../../de/df3/liolib_8c.html#ac37d80ee2cc364b4adafcb6f7c20f28b" target="_top" xlink:title="io_readline">
<polygon fill="none" stroke="red" points="1111,-418.5 1111,-437.5 1172,-437.5 1172,-418.5 1111,-418.5"/>
<text text-anchor="middle" x="1141.5" y="-425.5" font-family="Helvetica,sans-Serif" font-size="10.00">io_readline</text>
</a>
</g>
</g>
<!-- Node7&#45;&gt;Node10 -->
<g id="edge9" class="edge"><title>Node7&#45;&gt;Node10</title>
<path fill="none" stroke="midnightblue" d="M1035.69,-428C1058.45,-428 1088.72,-428 1110.88,-428"/>
<polygon fill="midnightblue" stroke="midnightblue" points="1035.51,-424.5 1025.51,-428 1035.51,-431.5 1035.51,-424.5"/>
</g>
<!-- Node12 -->
<g id="node12" class="node"><title>Node12</title>
<g id="a_node12"><a xlink:href="../../d8/dd3/lbaselib_8c.html#a4a9a3613fcf80fe033e044f7e19bed69" target="_top" xlink:title="luaB_load">
<polygon fill="none" stroke="black" points="1112,-266.5 1112,-285.5 1171,-285.5 1171,-266.5 1112,-266.5"/>
<text text-anchor="middle" x="1141.5" y="-273.5" font-family="Helvetica,sans-Serif" font-size="10.00">luaB_load</text>
</a>
</g>
</g>
<!-- Node11&#45;&gt;Node12 -->
<g id="edge11" class="edge"><title>Node11&#45;&gt;Node12</title>
<path fill="none" stroke="midnightblue" d="M1047.77,-301.72C1068.83,-295.879 1093.39,-289.066 1111.95,-283.92"/>
<polygon fill="midnightblue" stroke="midnightblue" points="1046.77,-298.365 1038.07,-304.411 1048.64,-305.111 1046.77,-298.365"/>
</g>
<!-- Node14 -->
<g id="node14" class="node"><title>Node14</title>
<g id="a_node14"><a xlink:href="../../de/df3/liolib_8c.html#a2edb7e84ca2f51dafb5d77b9c81a804c" target="_top" xlink:title="createmeta">
<polygon fill="none" stroke="red" points="1110,-342.5 1110,-361.5 1173,-361.5 1173,-342.5 1110,-342.5"/>
<text text-anchor="middle" x="1141.5" y="-349.5" font-family="Helvetica,sans-Serif" font-size="10.00">createmeta</text>
</a>
</g>
</g>
<!-- Node13&#45;&gt;Node14 -->
<g id="edge13" class="edge"><title>Node13&#45;&gt;Node14</title>
<path fill="none" stroke="midnightblue" d="M1047.98,-377.663C1068.14,-372.07 1091.49,-365.595 1109.68,-360.549"/>
<polygon fill="midnightblue" stroke="midnightblue" points="1046.77,-374.365 1038.07,-380.411 1048.64,-381.111 1046.77,-374.365"/>
</g>
<!-- Node15 -->
<g id="node15" class="node"><title>Node15</title>
<g id="a_node15"><a xlink:href="../../d6/d07/lualib_8h.html#a1aebe7162861d1f3fe9c0d6d269031d4" target="_top" xlink:title="luaopen_base">
<polygon fill="none" stroke="black" points="1102,-380.5 1102,-399.5 1181,-399.5 1181,-380.5 1102,-380.5"/>
<text text-anchor="middle" x="1141.5" y="-387.5" font-family="Helvetica,sans-Serif" font-size="10.00">luaopen_base</text>
</a>
</g>
</g>
<!-- Node13&#45;&gt;Node15 -->
<g id="edge14" class="edge"><title>Node13&#45;&gt;Node15</title>
<path fill="none" stroke="midnightblue" d="M1050.35,-390C1067.1,-390 1085.78,-390 1101.77,-390"/>
<polygon fill="midnightblue" stroke="midnightblue" points="1050.21,-386.5 1040.21,-390 1050.21,-393.5 1050.21,-386.5"/>
</g>
<!-- Node20 -->
<g id="node20" class="node"><title>Node20</title>
<g id="a_node20"><a xlink:href="../../d8/dd3/lbaselib_8c.html#a1fb2725eed679431d070b2e9e7abc223" target="_top" xlink:title="luaB_pcall">
<polygon fill="none" stroke="black" points="838.5,-342.5 838.5,-361.5 899.5,-361.5 899.5,-342.5 838.5,-342.5"/>
<text text-anchor="middle" x="869" y="-349.5" font-family="Helvetica,sans-Serif" font-size="10.00">luaB_pcall</text>
</a>
</g>
</g>
<!-- Node19&#45;&gt;Node20 -->
<g id="edge19" class="edge"><title>Node19&#45;&gt;Node20</title>
<path fill="none" stroke="midnightblue" d="M651.311,-364.238C661.476,-367.031 672.565,-369.59 683,-371 730.127,-377.37 742.783,-376.668 790,-371 806.191,-369.056 823.875,-364.921 838.305,-361.003"/>
<polygon fill="midnightblue" stroke="midnightblue" points="652.091,-360.82 641.512,-361.402 650.145,-367.544 652.091,-360.82"/>
</g>
<!-- Node21 -->
<g id="node21" class="node"><title>Node21</title>
<g id="a_node21"><a xlink:href="../../d8/dd3/lbaselib_8c.html#a5fbb0094fa1a56f0a4c2547f1ec4c5ab" target="_top" xlink:title="luaB_xpcall">
<polygon fill="none" stroke="black" points="836,-304.5 836,-323.5 902,-323.5 902,-304.5 836,-304.5"/>
<text text-anchor="middle" x="869" y="-311.5" font-family="Helvetica,sans-Serif" font-size="10.00">luaB_xpcall</text>
</a>
</g>
</g>
<!-- Node19&#45;&gt;Node21 -->
<g id="edge20" class="edge"><title>Node19&#45;&gt;Node21</title>
<path fill="none" stroke="midnightblue" d="M651.427,-340.476C661.591,-337.681 672.65,-334.942 683,-333 735.994,-323.054 798.575,-317.999 835.683,-315.686"/>
<polygon fill="midnightblue" stroke="midnightblue" points="650.282,-337.162 641.619,-343.262 652.195,-343.896 650.282,-337.162"/>
</g>
<!-- Node22 -->
<g id="node22" class="node"><title>Node22</title>
<g id="a_node22"><a xlink:href="../../d8/dd3/lbaselib_8c.html#a5c3f578f609d0b87ba75dc1d32287262" target="_top" xlink:title="pcallcont">
<polygon fill="none" stroke="black" points="710,-342.5 710,-361.5 763,-361.5 763,-342.5 710,-342.5"/>
<text text-anchor="middle" x="736.5" y="-349.5" font-family="Helvetica,sans-Serif" font-size="10.00">pcallcont</text>
</a>
</g>
</g>
<!-- Node19&#45;&gt;Node22 -->
<g id="edge21" class="edge"><title>Node19&#45;&gt;Node22</title>
<path fill="none" stroke="midnightblue" d="M651.626,-352C670.476,-352 692.817,-352 709.7,-352"/>
<polygon fill="midnightblue" stroke="midnightblue" points="651.57,-348.5 641.57,-352 651.57,-355.5 651.57,-348.5"/>
</g>
<!-- Node22&#45;&gt;Node20 -->
<g id="edge22" class="edge"><title>Node22&#45;&gt;Node20</title>
<path fill="none" stroke="midnightblue" d="M773.426,-352C793.769,-352 818.913,-352 838.16,-352"/>
<polygon fill="midnightblue" stroke="midnightblue" points="773.283,-348.5 763.283,-352 773.283,-355.5 773.283,-348.5"/>
</g>
<!-- Node22&#45;&gt;Node21 -->
<g id="edge23" class="edge"><title>Node22&#45;&gt;Node21</title>
<path fill="none" stroke="midnightblue" d="M773.06,-341.645C792.645,-335.942 816.766,-328.919 835.794,-323.378"/>
<polygon fill="midnightblue" stroke="midnightblue" points="771.905,-338.336 763.283,-344.492 773.862,-345.057 771.905,-338.336"/>
</g>
<!-- Node24 -->
<g id="node24" class="node"><title>Node24</title>
<g id="a_node24"><a xlink:href="../../df/d2d/lcorolib_8c.html#a777abb20385a69ce4787f72bd90375a7" target="_top" xlink:title="luaB_auxwrap">
<polygon fill="none" stroke="red" points="696.5,-266.5 696.5,-285.5 776.5,-285.5 776.5,-266.5 696.5,-266.5"/>
<text text-anchor="middle" x="736.5" y="-273.5" font-family="Helvetica,sans-Serif" font-size="10.00">luaB_auxwrap</text>
</a>
</g>
</g>
<!-- Node23&#45;&gt;Node24 -->
<g id="edge25" class="edge"><title>Node23&#45;&gt;Node24</title>
<path fill="none" stroke="midnightblue" d="M655.175,-263.439C668.528,-265.527 683.294,-267.836 696.485,-269.899"/>
<polygon fill="midnightblue" stroke="midnightblue" points="655.71,-259.98 645.289,-261.893 654.628,-266.896 655.71,-259.98"/>
</g>
<!-- Node25 -->
<g id="node25" class="node"><title>Node25</title>
<g id="a_node25"><a xlink:href="../../df/d2d/lcorolib_8c.html#a76f5d80387eeb1c7d31eb5f9cb6c9392" target="_top" xlink:title="luaB_coresume">
<polygon fill="none" stroke="black" points="695.5,-228.5 695.5,-247.5 777.5,-247.5 777.5,-228.5 695.5,-228.5"/>
<text text-anchor="middle" x="736.5" y="-235.5" font-family="Helvetica,sans-Serif" font-size="10.00">luaB_coresume</text>
</a>
</g>
</g>
<!-- Node23&#45;&gt;Node25 -->
<g id="edge26" class="edge"><title>Node23&#45;&gt;Node25</title>
<path fill="none" stroke="midnightblue" d="M655.282,-250.544C668.153,-248.532 682.329,-246.315 695.137,-244.312"/>
<polygon fill="midnightblue" stroke="midnightblue" points="654.628,-247.104 645.289,-252.107 655.71,-254.02 654.628,-247.104"/>
</g>
<!-- Node28 -->
<g id="node28" class="node"><title>Node28</title>
<g id="a_node28"><a xlink:href="../../d3/d08/ldo_8c.html#a8f3e3ff2aa0a4a251774a476cb0036ea" target="_top" xlink:title="recover">
<polygon fill="none" stroke="black" points="366,-225.5 366,-244.5 413,-244.5 413,-225.5 366,-225.5"/>
<text text-anchor="middle" x="389.5" y="-232.5" font-family="Helvetica,sans-Serif" font-size="10.00">recover</text>
</a>
</g>
</g>
<!-- Node27&#45;&gt;Node28 -->
<g id="edge29" class="edge"><title>Node27&#45;&gt;Node28</title>
<path fill="none" stroke="midnightblue" d="M323.984,-219.853C338.55,-223.273 353.725,-226.835 365.696,-229.646"/>
<polygon fill="midnightblue" stroke="midnightblue" points="324.58,-216.398 314.045,-217.519 322.98,-223.212 324.58,-216.398"/>
</g>
<!-- Node30 -->
<g id="node30" class="node"><title>Node30</title>
<g id="a_node30"><a xlink:href="../../d2/dd9/ldo_8h.html#ad1087faa52e2bb98c00806ea1ac198a6" target="_top" xlink:title="luaD_pcall">
<polygon fill="none" stroke="black" points="582,-159.5 582,-178.5 644,-178.5 644,-159.5 582,-159.5"/>
<text text-anchor="middle" x="613" y="-166.5" font-family="Helvetica,sans-Serif" font-size="10.00">luaD_pcall</text>
</a>
</g>
</g>
<!-- Node27&#45;&gt;Node30 -->
<g id="edge32" class="edge"><title>Node27&#45;&gt;Node30</title>
<path fill="none" stroke="midnightblue" d="M327.267,-201.805C399.161,-193.522 524.199,-179.116 581.604,-172.502"/>
<polygon fill="midnightblue" stroke="midnightblue" points="326.594,-198.36 317.06,-202.981 327.395,-205.314 326.594,-198.36"/>
</g>
<!-- Node43 -->
<g id="node43" class="node"><title>Node43</title>
<g id="a_node43"><a xlink:href="../../de/d27/lgc_8c.html#a95df97d2f2c1534e971414de31174c5e" target="_top" xlink:title="sweepthread">
<polygon fill="none" stroke="black" points="353,-116.5 353,-135.5 426,-135.5 426,-116.5 353,-116.5"/>
<text text-anchor="middle" x="389.5" y="-123.5" font-family="Helvetica,sans-Serif" font-size="10.00">sweepthread</text>
</a>
</g>
</g>
<!-- Node27&#45;&gt;Node43 -->
<g id="edge50" class="edge"><title>Node27&#45;&gt;Node43</title>
<path fill="none" stroke="midnightblue" d="M295.425,-192.367C318.852,-175.662 355.259,-149.702 374.874,-135.716"/>
<polygon fill="midnightblue" stroke="midnightblue" points="293.254,-189.616 287.144,-198.272 297.318,-195.316 293.254,-189.616"/>
</g>
<!-- Node29 -->
<g id="node29" class="node"><title>Node29</title>
<g id="a_node29"><a xlink:href="../../da/dd2/lua_8h.html#a434479f022eda738b99000aad5ddd929" target="_top" xlink:title="lua_resume">
<polygon fill="none" stroke="black" points="470,-239.5 470,-258.5 535,-258.5 535,-239.5 470,-239.5"/>
<text text-anchor="middle" x="502.5" y="-246.5" font-family="Helvetica,sans-Serif" font-size="10.00">lua_resume</text>
</a>
</g>
</g>
<!-- Node28&#45;&gt;Node29 -->
<g id="edge30" class="edge"><title>Node28&#45;&gt;Node29</title>
<path fill="none" stroke="midnightblue" d="M423.421,-239.152C438.14,-241.009 455.412,-243.187 469.964,-245.023"/>
<polygon fill="midnightblue" stroke="midnightblue" points="423.59,-235.646 413.23,-237.867 422.714,-242.591 423.59,-235.646"/>
</g>
<!-- Node29&#45;&gt;Node23 -->
<g id="edge31" class="edge"><title>Node29&#45;&gt;Node23</title>
<path fill="none" stroke="midnightblue" d="M545.289,-252.081C557.112,-252.953 569.77,-253.886 580.848,-254.703"/>
<polygon fill="midnightblue" stroke="midnightblue" points="545.405,-248.58 535.174,-251.335 544.89,-255.561 545.405,-248.58"/>
</g>
<!-- Node31 -->
<g id="node31" class="node"><title>Node31</title>
<g id="a_node31"><a xlink:href="../../da/dd2/lua_8h.html#a3c4de08aa665eaee4aabd330aa99a441" target="_top" xlink:title="lua_pcallk">
<polygon fill="none" stroke="black" points="707,-190.5 707,-209.5 766,-209.5 766,-190.5 707,-190.5"/>
<text text-anchor="middle" x="736.5" y="-197.5" font-family="Helvetica,sans-Serif" font-size="10.00">lua_pcallk</text>
</a>
</g>
</g>
<!-- Node30&#45;&gt;Node31 -->
<g id="edge33" class="edge"><title>Node30&#45;&gt;Node31</title>
<path fill="none" stroke="midnightblue" d="M653.836,-179.164C671.072,-183.562 690.865,-188.612 706.648,-192.639"/>
<polygon fill="midnightblue" stroke="midnightblue" points="654.589,-175.744 644.034,-176.663 652.858,-182.527 654.589,-175.744"/>
</g>
<!-- Node32 -->
<g id="node32" class="node"><title>Node32</title>
<g id="a_node32"><a xlink:href="../../d2/dd9/ldo_8h.html#a5dffa85d966f14d3f3464db580f5b3fa" target="_top" xlink:title="luaD_protectedparser">
<polygon fill="none" stroke="black" points="683,-152.5 683,-171.5 790,-171.5 790,-152.5 683,-152.5"/>
<text text-anchor="middle" x="736.5" y="-159.5" font-family="Helvetica,sans-Serif" font-size="10.00">luaD_protectedparser</text>
</a>
</g>
</g>
<!-- Node30&#45;&gt;Node32 -->
<g id="edge36" class="edge"><title>Node30&#45;&gt;Node32</title>
<path fill="none" stroke="midnightblue" d="M654.306,-166.678C663.374,-166.155 673.13,-165.593 682.625,-165.046"/>
<polygon fill="midnightblue" stroke="midnightblue" points="653.816,-163.2 644.034,-167.27 654.219,-170.189 653.816,-163.2"/>
</g>
<!-- Node36 -->
<g id="node36" class="node"><title>Node36</title>
<g id="a_node36"><a xlink:href="../../de/d27/lgc_8c.html#ab9ec6b56580b9e66f41743e393e7e033" target="_top" xlink:title="GCTM">
<polygon fill="none" stroke="black" points="846,-114.5 846,-133.5 892,-133.5 892,-114.5 846,-114.5"/>
<text text-anchor="middle" x="869" y="-121.5" font-family="Helvetica,sans-Serif" font-size="10.00">GCTM</text>
</a>
</g>
</g>
<!-- Node30&#45;&gt;Node36 -->
<g id="edge42" class="edge"><title>Node30&#45;&gt;Node36</title>
<path fill="none" stroke="midnightblue" d="M644.416,-155.602C656.249,-150.907 670.053,-146.05 683,-143 740.668,-129.415 810.716,-125.543 845.767,-124.44"/>
<polygon fill="midnightblue" stroke="midnightblue" points="642.925,-152.431 635.002,-159.465 645.583,-158.907 642.925,-152.431"/>
</g>
<!-- Node31&#45;&gt;Node20 -->
<g id="edge34" class="edge"><title>Node31&#45;&gt;Node20</title>
<path fill="none" stroke="midnightblue" d="M775.786,-209.058C781.055,-211.599 786.015,-214.847 790,-219 826.786,-257.34 790.729,-293.262 826,-333 829.4,-336.831 833.725,-339.933 838.3,-342.433"/>
<polygon fill="midnightblue" stroke="midnightblue" points="776.697,-205.654 766.112,-205.208 774.109,-212.158 776.697,-205.654"/>
</g>
<!-- Node31&#45;&gt;Node21 -->
<g id="edge35" class="edge"><title>Node31&#45;&gt;Node21</title>
<path fill="none" stroke="midnightblue" d="M775.763,-211.074C780.768,-213.306 785.659,-215.932 790,-219 823.981,-243.019 851.451,-285.567 862.613,-304.48"/>
<polygon fill="midnightblue" stroke="midnightblue" points="776.696,-207.679 766.11,-207.254 774.121,-214.188 776.696,-207.679"/>
</g>
<!-- Node33 -->
<g id="node33" class="node"><title>Node33</title>
<g id="a_node33"><a xlink:href="../../da/dd2/lua_8h.html#a3f4c1ed5e0bd437dc527d62c5768b463" target="_top" xlink:title="lua_load">
<polygon fill="none" stroke="black" points="842.5,-209.5 842.5,-228.5 895.5,-228.5 895.5,-209.5 842.5,-209.5"/>
<text text-anchor="middle" x="869" y="-216.5" font-family="Helvetica,sans-Serif" font-size="10.00">lua_load</text>
</a>
</g>
</g>
<!-- Node32&#45;&gt;Node33 -->
<g id="edge37" class="edge"><title>Node32&#45;&gt;Node33</title>
<path fill="none" stroke="midnightblue" d="M775.079,-175.051C780.128,-176.964 785.213,-178.974 790,-181 810.809,-189.805 834.011,-201.338 849.658,-209.379"/>
<polygon fill="midnightblue" stroke="midnightblue" points="776.098,-171.696 765.505,-171.514 773.672,-178.262 776.098,-171.696"/>
</g>
<!-- Node33&#45;&gt;Node12 -->
<g id="edge41" class="edge"><title>Node33&#45;&gt;Node12</title>
<path fill="none" stroke="midnightblue" d="M894.528,-233.753C909.458,-242.009 929.215,-251.682 948,-257 1004.55,-273.007 1073.74,-276.008 1111.86,-276.305"/>
<polygon fill="midnightblue" stroke="midnightblue" points="895.894,-230.503 885.472,-228.593 892.428,-236.585 895.894,-230.503"/>
</g>
<!-- Node34 -->
<g id="node34" class="node"><title>Node34</title>
<g id="a_node34"><a xlink:href="../../da/d29/lauxlib_8h.html#a8c38c6dcf9db7e110e525b46742bacf8" target="_top" xlink:title="luaL_loadfilex">
<polygon fill="none" stroke="red" points="965.5,-190.5 965.5,-209.5 1039.5,-209.5 1039.5,-190.5 965.5,-190.5"/>
<text text-anchor="middle" x="1002.5" y="-197.5" font-family="Helvetica,sans-Serif" font-size="10.00">luaL_loadfilex</text>
</a>
</g>
</g>
<!-- Node33&#45;&gt;Node34 -->
<g id="edge38" class="edge"><title>Node33&#45;&gt;Node34</title>
<path fill="none" stroke="midnightblue" d="M905.772,-213.831C924.304,-211.154 946.879,-207.892 965.452,-205.209"/>
<polygon fill="midnightblue" stroke="midnightblue" points="905.063,-210.397 895.667,-215.292 906.064,-217.325 905.063,-210.397"/>
</g>
<!-- Node35 -->
<g id="node35" class="node"><title>Node35</title>
<g id="a_node35"><a xlink:href="../../da/d29/lauxlib_8h.html#a3ab1955dd9322cf03e2d3626ebfae669" target="_top" xlink:title="luaL_loadbufferx">
<polygon fill="none" stroke="black" points="959.5,-228.5 959.5,-247.5 1045.5,-247.5 1045.5,-228.5 959.5,-228.5"/>
<text text-anchor="middle" x="1002.5" y="-235.5" font-family="Helvetica,sans-Serif" font-size="10.00">luaL_loadbufferx</text>
</a>
</g>
</g>
<!-- Node33&#45;&gt;Node35 -->
<g id="edge39" class="edge"><title>Node33&#45;&gt;Node35</title>
<path fill="none" stroke="midnightblue" d="M905.992,-224.2C922.488,-226.584 942.152,-229.425 959.337,-231.908"/>
<polygon fill="midnightblue" stroke="midnightblue" points="906.064,-220.675 895.667,-222.708 905.063,-227.603 906.064,-220.675"/>
</g>
<!-- Node35&#45;&gt;Node12 -->
<g id="edge40" class="edge"><title>Node35&#45;&gt;Node12</title>
<path fill="none" stroke="midnightblue" d="M1047.77,-250.28C1068.83,-256.121 1093.39,-262.934 1111.95,-268.08"/>
<polygon fill="midnightblue" stroke="midnightblue" points="1048.64,-246.889 1038.07,-247.589 1046.77,-253.635 1048.64,-246.889"/>
</g>
<!-- Node37 -->
<g id="node37" class="node"><title>Node37</title>
<g id="a_node37"><a xlink:href="../../de/d27/lgc_8c.html#a74f50e6006422d43686521fe765152dd" target="_top" xlink:title="callallpendingfinalizers">
<polygon fill="none" stroke="black" points="948,-76.5 948,-95.5 1057,-95.5 1057,-76.5 948,-76.5"/>
<text text-anchor="middle" x="1002.5" y="-83.5" font-family="Helvetica,sans-Serif" font-size="10.00">callallpendingfinalizers</text>
</a>
</g>
</g>
<!-- Node36&#45;&gt;Node37 -->
<g id="edge43" class="edge"><title>Node36&#45;&gt;Node37</title>
<path fill="none" stroke="midnightblue" d="M901.698,-114.84C921.925,-108.995 948.092,-101.434 968.557,-95.5197"/>
<polygon fill="midnightblue" stroke="midnightblue" points="900.645,-111.501 892.01,-117.64 902.589,-118.226 900.645,-111.501"/>
</g>
<!-- Node41 -->
<g id="node41" class="node"><title>Node41</title>
<g id="a_node41"><a xlink:href="../../dc/d9c/lgc_8h.html#a19359957605d7c8eaf70803e5b77361f" target="_top" xlink:title="luaC_forcestep">
<polygon fill="none" stroke="black" points="1101.5,-114.5 1101.5,-133.5 1181.5,-133.5 1181.5,-114.5 1101.5,-114.5"/>
<text text-anchor="middle" x="1141.5" y="-121.5" font-family="Helvetica,sans-Serif" font-size="10.00">luaC_forcestep</text>
</a>
</g>
</g>
<!-- Node36&#45;&gt;Node41 -->
<g id="edge47" class="edge"><title>Node36&#45;&gt;Node41</title>
<path fill="none" stroke="midnightblue" d="M901.922,-133.602C915.921,-137.336 932.633,-141.155 948,-143 996.099,-148.774 1008.86,-148.408 1057,-143 1073.55,-141.141 1091.6,-137.272 1106.67,-133.508"/>
<polygon fill="midnightblue" stroke="midnightblue" points="902.838,-130.224 892.267,-130.928 900.97,-136.97 902.838,-130.224"/>
</g>
<!-- Node38 -->
<g id="node38" class="node"><title>Node38</title>
<g id="a_node38"><a xlink:href="../../dc/d9c/lgc_8h.html#a9aa52a500c9cc2076edb1707e6d8a045" target="_top" xlink:title="luaC_freeallobjects">
<polygon fill="none" stroke="red" points="1093,-76.5 1093,-95.5 1190,-95.5 1190,-76.5 1093,-76.5"/>
<text text-anchor="middle" x="1141.5" y="-83.5" font-family="Helvetica,sans-Serif" font-size="10.00">luaC_freeallobjects</text>
</a>
</g>
</g>
<!-- Node37&#45;&gt;Node38 -->
<g id="edge44" class="edge"><title>Node37&#45;&gt;Node38</title>
<path fill="none" stroke="midnightblue" d="M1067.51,-86C1075.98,-86 1084.55,-86 1092.69,-86"/>
<polygon fill="midnightblue" stroke="midnightblue" points="1067.25,-82.5001 1057.25,-86 1067.25,-89.5001 1067.25,-82.5001"/>
</g>
<!-- Node39 -->
<g id="node39" class="node"><title>Node39</title>
<g id="a_node39"><a xlink:href="../../dc/d9c/lgc_8h.html#aa0b753c3ed80e1eed0379ec58592c404" target="_top" xlink:title="luaC_fullgc">
<polygon fill="none" stroke="red" points="1110.5,-38.5 1110.5,-57.5 1172.5,-57.5 1172.5,-38.5 1110.5,-38.5"/>
<text text-anchor="middle" x="1141.5" y="-45.5" font-family="Helvetica,sans-Serif" font-size="10.00">luaC_fullgc</text>
</a>
</g>
</g>
<!-- Node37&#45;&gt;Node39 -->
<g id="edge45" class="edge"><title>Node37&#45;&gt;Node39</title>
<path fill="none" stroke="midnightblue" d="M1047.77,-73.7197C1068.15,-68.067 1091.82,-61.5034 1110.14,-56.4216"/>
<polygon fill="midnightblue" stroke="midnightblue" points="1046.77,-70.3654 1038.07,-76.411 1048.64,-77.1108 1046.77,-70.3654"/>
</g>
<!-- Node40 -->
<g id="node40" class="node"><title>Node40</title>
<g id="a_node40"><a xlink:href="../../da/dd2/lua_8h.html#a6bac487d3f900b21271e8c591bd801cd" target="_top" xlink:title="lua_gc">
<polygon fill="none" stroke="red" points="1234.5,-57.5 1234.5,-76.5 1278.5,-76.5 1278.5,-57.5 1234.5,-57.5"/>
<text text-anchor="middle" x="1256.5" y="-64.5" font-family="Helvetica,sans-Serif" font-size="10.00">lua_gc</text>
</a>
</g>
</g>
<!-- Node39&#45;&gt;Node40 -->
<g id="edge46" class="edge"><title>Node39&#45;&gt;Node40</title>
<path fill="none" stroke="midnightblue" d="M1182.75,-54.7669C1200.21,-57.7032 1219.94,-61.0201 1234.44,-63.4586"/>
<polygon fill="midnightblue" stroke="midnightblue" points="1183.22,-51.2983 1172.78,-53.0917 1182.06,-58.2014 1183.22,-51.2983"/>
</g>
<!-- Node41&#45;&gt;Node40 -->
<g id="edge48" class="edge"><title>Node41&#45;&gt;Node40</title>
<path fill="none" stroke="midnightblue" d="M1177.93,-110.49C1182.04,-108.729 1186.14,-106.881 1190,-105 1207.85,-96.3099 1227.43,-84.6506 1240.49,-76.5483"/>
<polygon fill="midnightblue" stroke="midnightblue" points="1176.34,-107.361 1168.43,-114.416 1179.01,-113.83 1176.34,-107.361"/>
</g>
<!-- Node42 -->
<g id="node42" class="node"><title>Node42</title>
<g id="a_node42"><a xlink:href="../../dc/d9c/lgc_8h.html#a6c71cc4b9e503c0e96c0c4ffcff93900" target="_top" xlink:title="luaC_step">
<polygon fill="none" stroke="black" points="1226,-114.5 1226,-133.5 1287,-133.5 1287,-114.5 1226,-114.5"/>
<text text-anchor="middle" x="1256.5" y="-121.5" font-family="Helvetica,sans-Serif" font-size="10.00">luaC_step</text>
</a>
</g>
</g>
<!-- Node41&#45;&gt;Node42 -->
<g id="edge49" class="edge"><title>Node41&#45;&gt;Node42</title>
<path fill="none" stroke="midnightblue" d="M1191.79,-124C1203.45,-124 1215.53,-124 1225.99,-124"/>
<polygon fill="midnightblue" stroke="midnightblue" points="1191.7,-120.5 1181.7,-124 1191.7,-127.5 1191.7,-120.5"/>
</g>
<!-- Node44 -->
<g id="node44" class="node"><title>Node44</title>
<g id="a_node44"><a xlink:href="../../de/d27/lgc_8c.html#abbcf0361a74ce5efc08ca703b0f4098a" target="_top" xlink:title="sweeplist">
<polygon fill="none" stroke="black" points="474,-76.5 474,-95.5 531,-95.5 531,-76.5 474,-76.5"/>
<text text-anchor="middle" x="502.5" y="-83.5" font-family="Helvetica,sans-Serif" font-size="10.00">sweeplist</text>
</a>
</g>
</g>
<!-- Node43&#45;&gt;Node44 -->
<g id="edge51" class="edge"><title>Node43&#45;&gt;Node44</title>
<path fill="none" stroke="midnightblue" d="M426.57,-113.002C442.387,-107.302 460.613,-100.734 475.13,-95.5028"/>
<polygon fill="midnightblue" stroke="midnightblue" points="425.308,-109.736 417.087,-116.419 427.682,-116.321 425.308,-109.736"/>
</g>
<!-- Node45 -->
<g id="node45" class="node"><title>Node45</title>
<g id="a_node45"><a xlink:href="../../de/d27/lgc_8c.html#ac881eb4d9ece02c3cefb86ed34879b6d" target="_top" xlink:title="sweeptolive">
<polygon fill="none" stroke="black" points="579,-38.5 579,-57.5 647,-57.5 647,-38.5 579,-38.5"/>
<text text-anchor="middle" x="613" y="-45.5" font-family="Helvetica,sans-Serif" font-size="10.00">sweeptolive</text>
</a>
</g>
</g>
<!-- Node44&#45;&gt;Node45 -->
<g id="edge52" class="edge"><title>Node44&#45;&gt;Node45</title>
<path fill="none" stroke="midnightblue" d="M540.538,-73.0282C554.993,-67.9656 571.267,-62.2659 584.63,-57.5859"/>
<polygon fill="midnightblue" stroke="midnightblue" points="539.16,-69.8022 530.879,-76.411 541.474,-76.4088 539.16,-69.8022"/>
</g>
<!-- Node48 -->
<g id="node48" class="node"><title>Node48</title>
<g id="a_node48"><a xlink:href="../../de/d27/lgc_8c.html#ae34e22198155f5d365fe500d3735c150" target="_top" xlink:title="singlestep">
<polygon fill="none" stroke="black" points="839.5,-57.5 839.5,-76.5 898.5,-76.5 898.5,-57.5 839.5,-57.5"/>
<text text-anchor="middle" x="869" y="-64.5" font-family="Helvetica,sans-Serif" font-size="10.00">singlestep</text>
</a>
</g>
</g>
<!-- Node44&#45;&gt;Node48 -->
<g id="edge61" class="edge"><title>Node44&#45;&gt;Node48</title>
<path fill="none" stroke="midnightblue" d="M541.351,-84.027C614.568,-80.2104 774.115,-71.8939 839.342,-68.4938"/>
<polygon fill="midnightblue" stroke="midnightblue" points="541,-80.5404 531.196,-84.5563 541.365,-87.5309 541,-80.5404"/>
</g>
<!-- Node46 -->
<g id="node46" class="node"><title>Node46</title>
<g id="a_node46"><a xlink:href="../../dc/d9c/lgc_8h.html#a15870c09448216ce5c4e1ff63d39e0a9" target="_top" xlink:title="luaC_checkfinalizer">
<polygon fill="none" stroke="red" points="688,-38.5 688,-57.5 785,-57.5 785,-38.5 688,-38.5"/>
<text text-anchor="middle" x="736.5" y="-45.5" font-family="Helvetica,sans-Serif" font-size="10.00">luaC_checkfinalizer</text>
</a>
</g>
</g>
<!-- Node45&#45;&gt;Node46 -->
<g id="edge53" class="edge"><title>Node45&#45;&gt;Node46</title>
<path fill="none" stroke="midnightblue" d="M657.218,-48C667.114,-48 677.689,-48 687.763,-48"/>
<polygon fill="midnightblue" stroke="midnightblue" points="657.2,-44.5001 647.2,-48 657.2,-51.5001 657.2,-44.5001"/>
</g>
<!-- Node47 -->
<g id="node47" class="node"><title>Node47</title>
<g id="a_node47"><a xlink:href="../../de/d27/lgc_8c.html#a396e5acf2204119b6a78993fa368ec39" target="_top" xlink:title="entersweep">
<polygon fill="none" stroke="red" points="703,-0.5 703,-19.5 770,-19.5 770,-0.5 703,-0.5"/>
<text text-anchor="middle" x="736.5" y="-7.5" font-family="Helvetica,sans-Serif" font-size="10.00">entersweep</text>
</a>
</g>
</g>
<!-- Node45&#45;&gt;Node47 -->
<g id="edge54" class="edge"><title>Node45&#45;&gt;Node47</title>
<path fill="none" stroke="midnightblue" d="M654.544,-35.3196C670.961,-30.1852 689.599,-24.3559 704.85,-19.5859"/>
<polygon fill="midnightblue" stroke="midnightblue" points="653.159,-32.0855 644.66,-38.411 655.248,-38.7664 653.159,-32.0855"/>
</g>
<!-- Node47&#45;&gt;Node39 -->
<g id="edge60" class="edge"><title>Node47&#45;&gt;Node39</title>
<path fill="none" stroke="midnightblue" d="M780.448,-10.3192C841.998,-11.2824 958.715,-14.9925 1057,-29 1074.81,-31.5382 1094.44,-35.9217 1110.19,-39.839"/>
<polygon fill="midnightblue" stroke="midnightblue" points="780.382,-6.81805 770.334,-10.1782 780.284,-13.8174 780.382,-6.81805"/>
</g>
<!-- Node47&#45;&gt;Node48 -->
<g id="edge55" class="edge"><title>Node47&#45;&gt;Node48</title>
<path fill="none" stroke="midnightblue" d="M775.079,-23.0507C780.128,-24.9638 785.213,-26.9744 790,-29 810.809,-37.8049 834.011,-49.3378 849.658,-57.3789"/>
<polygon fill="midnightblue" stroke="midnightblue" points="776.098,-19.6958 765.505,-19.5136 773.672,-26.2621 776.098,-19.6958"/>
</g>
<!-- Node49 -->
<g id="node49" class="node"><title>Node49</title>
<g id="a_node49"><a xlink:href="../../dc/d9c/lgc_8h.html#a1da32357417ce5766ed5e3ada033c32f" target="_top" xlink:title="luaC_runtilstate">
<polygon fill="none" stroke="red" points="962,-38.5 962,-57.5 1043,-57.5 1043,-38.5 962,-38.5"/>
<text text-anchor="middle" x="1002.5" y="-45.5" font-family="Helvetica,sans-Serif" font-size="10.00">luaC_runtilstate</text>
</a>
</g>
</g>
<!-- Node48&#45;&gt;Node49 -->
<g id="edge56" class="edge"><title>Node48&#45;&gt;Node49</title>
<path fill="none" stroke="midnightblue" d="M908.503,-61.4368C925.185,-59.0266 944.709,-56.2056 961.549,-53.7724"/>
<polygon fill="midnightblue" stroke="midnightblue" points="907.93,-57.9832 898.534,-62.8773 908.931,-64.9112 907.93,-57.9832"/>
</g>
<!-- Node50 -->
<g id="node50" class="node"><title>Node50</title>
<g id="a_node50"><a xlink:href="../../de/d27/lgc_8c.html#a7515a46e25b277cbbe7febb4d06b196a" target="_top" xlink:title="incstep">
<polygon fill="none" stroke="black" points="979,-114.5 979,-133.5 1026,-133.5 1026,-114.5 979,-114.5"/>
<text text-anchor="middle" x="1002.5" y="-121.5" font-family="Helvetica,sans-Serif" font-size="10.00">incstep</text>
</a>
</g>
</g>
<!-- Node48&#45;&gt;Node50 -->
<g id="edge58" class="edge"><title>Node48&#45;&gt;Node50</title>
<path fill="none" stroke="midnightblue" d="M897.433,-81.2993C912.227,-88.7719 930.909,-97.8285 948,-105 957.998,-109.195 969.281,-113.293 978.9,-116.603"/>
<polygon fill="midnightblue" stroke="midnightblue" points="898.826,-78.0809 888.328,-76.6532 895.644,-84.3161 898.826,-78.0809"/>
</g>
<!-- Node49&#45;&gt;Node39 -->
<g id="edge57" class="edge"><title>Node49&#45;&gt;Node39</title>
<path fill="none" stroke="midnightblue" d="M1053.16,-48C1072.21,-48 1093.38,-48 1110.1,-48"/>
<polygon fill="midnightblue" stroke="midnightblue" points="1053.13,-44.5001 1043.13,-48 1053.13,-51.5001 1053.13,-44.5001"/>
</g>
<!-- Node50&#45;&gt;Node41 -->
<g id="edge59" class="edge"><title>Node50&#45;&gt;Node41</title>
<path fill="none" stroke="midnightblue" d="M1036.38,-124C1055.96,-124 1080.91,-124 1101.48,-124"/>
<polygon fill="midnightblue" stroke="midnightblue" points="1036.12,-120.5 1026.12,-124 1036.12,-127.5 1036.12,-120.5"/>
</g>
</g>
</svg>
