<?xml version="1.0" encoding="UTF-8" standalone="no"?>
<!DOCTYPE svg PUBLIC "-//W3C//DTD SVG 1.1//EN"
 "http://www.w3.org/Graphics/SVG/1.1/DTD/svg11.dtd">
<!-- Generated by graphviz version 2.38.0 (20140413.2041)
 -->
<!-- Title: stackinuse Pages: 1 -->
<svg width="1554pt" height="655pt"
 viewBox="0.00 0.00 1554.00 655.18" xmlns="http://www.w3.org/2000/svg" xmlns:xlink="http://www.w3.org/1999/xlink">
<g id="graph0" class="graph" transform="scale(1 1) rotate(0) translate(4 651.183)">
<title>stackinuse</title>
<!-- Node1 -->
<g id="node1" class="node"><title>Node1</title>
<polygon fill="#bfbfbf" stroke="black" points="0,-551.683 0,-570.683 62,-570.683 62,-551.683 0,-551.683"/>
<text text-anchor="middle" x="31" y="-558.683" font-family="Helvetica,sans-Serif" font-size="10.00">stackinuse</text>
</g>
<!-- Node2 -->
<g id="node2" class="node"><title>Node2</title>
<g id="a_node2"><a xlink:href="../../d2/dd9/ldo_8h.html#a14e1a8d3ba0e5f6d55decb8b48826750" target="_top" xlink:title="luaD_shrinkstack">
<polygon fill="none" stroke="black" points="98,-551.683 98,-570.683 187,-570.683 187,-551.683 98,-551.683"/>
<text text-anchor="middle" x="142.5" y="-558.683" font-family="Helvetica,sans-Serif" font-size="10.00">luaD_shrinkstack</text>
</a>
</g>
</g>
<!-- Node1&#45;&gt;Node2 -->
<g id="edge1" class="edge"><title>Node1&#45;&gt;Node2</title>
<path fill="none" stroke="midnightblue" d="M72.4,-561.183C80.6931,-561.183 89.4588,-561.183 97.8601,-561.183"/>
<polygon fill="midnightblue" stroke="midnightblue" points="72.2113,-557.683 62.2112,-561.183 72.2112,-564.683 72.2113,-557.683"/>
</g>
<!-- Node3 -->
<g id="node3" class="node"><title>Node3</title>
<g id="a_node3"><a xlink:href="../../d3/d08/ldo_8c.html#a8f3e3ff2aa0a4a251774a476cb0036ea" target="_top" xlink:title="recover">
<polygon fill="none" stroke="black" points="236,-589.683 236,-608.683 283,-608.683 283,-589.683 236,-589.683"/>
<text text-anchor="middle" x="259.5" y="-596.683" font-family="Helvetica,sans-Serif" font-size="10.00">recover</text>
</a>
</g>
</g>
<!-- Node2&#45;&gt;Node3 -->
<g id="edge2" class="edge"><title>Node2&#45;&gt;Node3</title>
<path fill="none" stroke="midnightblue" d="M182.07,-573.927C199.855,-579.804 220.36,-586.58 235.651,-591.632"/>
<polygon fill="midnightblue" stroke="midnightblue" points="183.113,-570.586 172.519,-570.772 180.916,-577.232 183.113,-570.586"/>
</g>
<!-- Node9 -->
<g id="node9" class="node"><title>Node9</title>
<g id="a_node9"><a xlink:href="../../d2/dd9/ldo_8h.html#ad1087faa52e2bb98c00806ea1ac198a6" target="_top" xlink:title="luaD_pcall">
<polygon fill="none" stroke="black" points="554.5,-551.683 554.5,-570.683 616.5,-570.683 616.5,-551.683 554.5,-551.683"/>
<text text-anchor="middle" x="585.5" y="-558.683" font-family="Helvetica,sans-Serif" font-size="10.00">luaD_pcall</text>
</a>
</g>
</g>
<!-- Node2&#45;&gt;Node9 -->
<g id="edge8" class="edge"><title>Node2&#45;&gt;Node9</title>
<path fill="none" stroke="midnightblue" d="M197.518,-561.183C291.213,-561.183 480.876,-561.183 554.413,-561.183"/>
<polygon fill="midnightblue" stroke="midnightblue" points="197.397,-557.683 187.397,-561.183 197.397,-564.683 197.397,-557.683"/>
</g>
<!-- Node32 -->
<g id="node32" class="node"><title>Node32</title>
<g id="a_node32"><a xlink:href="../../de/d27/lgc_8c.html#a95df97d2f2c1534e971414de31174c5e" target="_top" xlink:title="sweepthread">
<polygon fill="none" stroke="black" points="223,-437.683 223,-456.683 296,-456.683 296,-437.683 223,-437.683"/>
<text text-anchor="middle" x="259.5" y="-444.683" font-family="Helvetica,sans-Serif" font-size="10.00">sweepthread</text>
</a>
</g>
</g>
<!-- Node2&#45;&gt;Node32 -->
<g id="edge34" class="edge"><title>Node2&#45;&gt;Node32</title>
<path fill="none" stroke="midnightblue" d="M160.479,-544.351C184.896,-520.146 229.136,-476.291 248.72,-456.878"/>
<polygon fill="midnightblue" stroke="midnightblue" points="157.943,-541.937 153.305,-551.463 162.871,-546.908 157.943,-541.937"/>
</g>
<!-- Node4 -->
<g id="node4" class="node"><title>Node4</title>
<g id="a_node4"><a xlink:href="../../da/dd2/lua_8h.html#a434479f022eda738b99000aad5ddd929" target="_top" xlink:title="lua_resume">
<polygon fill="none" stroke="black" points="332,-589.683 332,-608.683 397,-608.683 397,-589.683 332,-589.683"/>
<text text-anchor="middle" x="364.5" y="-596.683" font-family="Helvetica,sans-Serif" font-size="10.00">lua_resume</text>
</a>
</g>
</g>
<!-- Node3&#45;&gt;Node4 -->
<g id="edge3" class="edge"><title>Node3&#45;&gt;Node4</title>
<path fill="none" stroke="midnightblue" d="M293.438,-599.183C305.776,-599.183 319.755,-599.183 331.964,-599.183"/>
<polygon fill="midnightblue" stroke="midnightblue" points="293.104,-595.683 283.104,-599.183 293.104,-602.683 293.104,-595.683"/>
</g>
<!-- Node5 -->
<g id="node5" class="node"><title>Node5</title>
<g id="a_node5"><a xlink:href="../../df/d2d/lcorolib_8c.html#aaa37b3a30ab0c6daef7fae8951fef3e7" target="_top" xlink:title="auxresume">
<polygon fill="none" stroke="black" points="435,-589.683 435,-608.683 499,-608.683 499,-589.683 435,-589.683"/>
<text text-anchor="middle" x="467" y="-596.683" font-family="Helvetica,sans-Serif" font-size="10.00">auxresume</text>
</a>
</g>
</g>
<!-- Node4&#45;&gt;Node5 -->
<g id="edge4" class="edge"><title>Node4&#45;&gt;Node5</title>
<path fill="none" stroke="midnightblue" d="M407.248,-599.183C416.516,-599.183 426.182,-599.183 434.933,-599.183"/>
<polygon fill="midnightblue" stroke="midnightblue" points="407.023,-595.683 397.023,-599.183 407.023,-602.683 407.023,-595.683"/>
</g>
<!-- Node6 -->
<g id="node6" class="node"><title>Node6</title>
<g id="a_node6"><a xlink:href="../../df/d2d/lcorolib_8c.html#a777abb20385a69ce4787f72bd90375a7" target="_top" xlink:title="luaB_auxwrap">
<polygon fill="none" stroke="black" points="545.5,-627.683 545.5,-646.683 625.5,-646.683 625.5,-627.683 545.5,-627.683"/>
<text text-anchor="middle" x="585.5" y="-634.683" font-family="Helvetica,sans-Serif" font-size="10.00">luaB_auxwrap</text>
</a>
</g>
</g>
<!-- Node5&#45;&gt;Node6 -->
<g id="edge5" class="edge"><title>Node5&#45;&gt;Node6</title>
<path fill="none" stroke="midnightblue" d="M507.322,-612.008C522.953,-617.107 540.626,-622.872 555.112,-627.597"/>
<polygon fill="midnightblue" stroke="midnightblue" points="507.99,-608.545 497.398,-608.772 505.82,-615.2 507.99,-608.545"/>
</g>
<!-- Node8 -->
<g id="node8" class="node"><title>Node8</title>
<g id="a_node8"><a xlink:href="../../df/d2d/lcorolib_8c.html#a76f5d80387eeb1c7d31eb5f9cb6c9392" target="_top" xlink:title="luaB_coresume">
<polygon fill="none" stroke="black" points="544.5,-589.683 544.5,-608.683 626.5,-608.683 626.5,-589.683 544.5,-589.683"/>
<text text-anchor="middle" x="585.5" y="-596.683" font-family="Helvetica,sans-Serif" font-size="10.00">luaB_coresume</text>
</a>
</g>
</g>
<!-- Node5&#45;&gt;Node8 -->
<g id="edge7" class="edge"><title>Node5&#45;&gt;Node8</title>
<path fill="none" stroke="midnightblue" d="M509.36,-599.183C520.751,-599.183 533.086,-599.183 544.405,-599.183"/>
<polygon fill="midnightblue" stroke="midnightblue" points="509.22,-595.683 499.22,-599.183 509.22,-602.683 509.22,-595.683"/>
</g>
<!-- Node7 -->
<g id="node7" class="node"><title>Node7</title>
<g id="a_node7"><a xlink:href="../../df/d2d/lcorolib_8c.html#a1c0429e27f504b08e25f437f733edad1" target="_top" xlink:title="luaB_cowrap">
<polygon fill="none" stroke="black" points="686.5,-627.683 686.5,-646.683 760.5,-646.683 760.5,-627.683 686.5,-627.683"/>
<text text-anchor="middle" x="723.5" y="-634.683" font-family="Helvetica,sans-Serif" font-size="10.00">luaB_cowrap</text>
</a>
</g>
</g>
<!-- Node6&#45;&gt;Node7 -->
<g id="edge6" class="edge"><title>Node6&#45;&gt;Node7</title>
<path fill="none" stroke="midnightblue" d="M635.91,-637.183C652.482,-637.183 670.65,-637.183 686.046,-637.183"/>
<polygon fill="midnightblue" stroke="midnightblue" points="635.837,-633.683 625.837,-637.183 635.837,-640.683 635.837,-633.683"/>
</g>
<!-- Node10 -->
<g id="node10" class="node"><title>Node10</title>
<g id="a_node10"><a xlink:href="../../da/dd2/lua_8h.html#a3c4de08aa665eaee4aabd330aa99a441" target="_top" xlink:title="lua_pcallk">
<polygon fill="none" stroke="black" points="694,-589.683 694,-608.683 753,-608.683 753,-589.683 694,-589.683"/>
<text text-anchor="middle" x="723.5" y="-596.683" font-family="Helvetica,sans-Serif" font-size="10.00">lua_pcallk</text>
</a>
</g>
</g>
<!-- Node9&#45;&gt;Node10 -->
<g id="edge9" class="edge"><title>Node9&#45;&gt;Node10</title>
<path fill="none" stroke="midnightblue" d="M626.55,-572.373C648.131,-578.403 674.26,-585.704 693.798,-591.163"/>
<polygon fill="midnightblue" stroke="midnightblue" points="627.256,-568.936 616.683,-569.616 625.372,-575.678 627.256,-568.936"/>
</g>
<!-- Node13 -->
<g id="node13" class="node"><title>Node13</title>
<g id="a_node13"><a xlink:href="../../d2/dd9/ldo_8h.html#a5dffa85d966f14d3f3464db580f5b3fa" target="_top" xlink:title="luaD_protectedparser">
<polygon fill="none" stroke="black" points="670,-551.683 670,-570.683 777,-570.683 777,-551.683 670,-551.683"/>
<text text-anchor="middle" x="723.5" y="-558.683" font-family="Helvetica,sans-Serif" font-size="10.00">luaD_protectedparser</text>
</a>
</g>
</g>
<!-- Node9&#45;&gt;Node13 -->
<g id="edge12" class="edge"><title>Node9&#45;&gt;Node13</title>
<path fill="none" stroke="midnightblue" d="M627.059,-561.183C640.522,-561.183 655.709,-561.183 669.943,-561.183"/>
<polygon fill="midnightblue" stroke="midnightblue" points="626.683,-557.683 616.683,-561.183 626.683,-564.683 626.683,-557.683"/>
</g>
<!-- Node19 -->
<g id="node19" class="node"><title>Node19</title>
<g id="a_node19"><a xlink:href="../../de/d27/lgc_8c.html#ab9ec6b56580b9e66f41743e393e7e033" target="_top" xlink:title="GCTM">
<polygon fill="none" stroke="black" points="700.5,-513.683 700.5,-532.683 746.5,-532.683 746.5,-513.683 700.5,-513.683"/>
<text text-anchor="middle" x="723.5" y="-520.683" font-family="Helvetica,sans-Serif" font-size="10.00">GCTM</text>
</a>
</g>
</g>
<!-- Node9&#45;&gt;Node19 -->
<g id="edge19" class="edge"><title>Node9&#45;&gt;Node19</title>
<path fill="none" stroke="midnightblue" d="M626.628,-549.97C650.746,-543.231 680.522,-534.912 700.432,-529.349"/>
<polygon fill="midnightblue" stroke="midnightblue" points="625.372,-546.687 616.683,-552.749 627.256,-553.429 625.372,-546.687"/>
</g>
<!-- Node11 -->
<g id="node11" class="node"><title>Node11</title>
<g id="a_node11"><a xlink:href="../../d8/dd3/lbaselib_8c.html#a1fb2725eed679431d070b2e9e7abc223" target="_top" xlink:title="luaB_pcall">
<polygon fill="none" stroke="black" points="837,-589.683 837,-608.683 898,-608.683 898,-589.683 837,-589.683"/>
<text text-anchor="middle" x="867.5" y="-596.683" font-family="Helvetica,sans-Serif" font-size="10.00">luaB_pcall</text>
</a>
</g>
</g>
<!-- Node10&#45;&gt;Node11 -->
<g id="edge10" class="edge"><title>Node10&#45;&gt;Node11</title>
<path fill="none" stroke="midnightblue" d="M763.425,-599.183C786.588,-599.183 815.519,-599.183 836.829,-599.183"/>
<polygon fill="midnightblue" stroke="midnightblue" points="763.236,-595.683 753.236,-599.183 763.236,-602.683 763.236,-595.683"/>
</g>
<!-- Node12 -->
<g id="node12" class="node"><title>Node12</title>
<g id="a_node12"><a xlink:href="../../d8/dd3/lbaselib_8c.html#a5fbb0094fa1a56f0a4c2547f1ec4c5ab" target="_top" xlink:title="luaB_xpcall">
<polygon fill="none" stroke="black" points="834.5,-627.683 834.5,-646.683 900.5,-646.683 900.5,-627.683 834.5,-627.683"/>
<text text-anchor="middle" x="867.5" y="-634.683" font-family="Helvetica,sans-Serif" font-size="10.00">luaB_xpcall</text>
</a>
</g>
</g>
<!-- Node10&#45;&gt;Node12 -->
<g id="edge11" class="edge"><title>Node10&#45;&gt;Node12</title>
<path fill="none" stroke="midnightblue" d="M763.07,-609.504C785.405,-615.481 813.192,-622.917 834.339,-628.576"/>
<polygon fill="midnightblue" stroke="midnightblue" points="763.801,-606.077 753.236,-606.872 761.991,-612.839 763.801,-606.077"/>
</g>
<!-- Node14 -->
<g id="node14" class="node"><title>Node14</title>
<g id="a_node14"><a xlink:href="../../da/dd2/lua_8h.html#a3f4c1ed5e0bd437dc527d62c5768b463" target="_top" xlink:title="lua_load">
<polygon fill="none" stroke="black" points="841,-551.683 841,-570.683 894,-570.683 894,-551.683 841,-551.683"/>
<text text-anchor="middle" x="867.5" y="-558.683" font-family="Helvetica,sans-Serif" font-size="10.00">lua_load</text>
</a>
</g>
</g>
<!-- Node13&#45;&gt;Node14 -->
<g id="edge13" class="edge"><title>Node13&#45;&gt;Node14</title>
<path fill="none" stroke="midnightblue" d="M787.386,-561.183C806.148,-561.183 825.675,-561.183 840.636,-561.183"/>
<polygon fill="midnightblue" stroke="midnightblue" points="787.376,-557.683 777.376,-561.183 787.376,-564.683 787.376,-557.683"/>
</g>
<!-- Node15 -->
<g id="node15" class="node"><title>Node15</title>
<g id="a_node15"><a xlink:href="../../da/d29/lauxlib_8h.html#a8c38c6dcf9db7e110e525b46742bacf8" target="_top" xlink:title="luaL_loadfilex">
<polygon fill="none" stroke="black" points="969.5,-627.683 969.5,-646.683 1043.5,-646.683 1043.5,-627.683 969.5,-627.683"/>
<text text-anchor="middle" x="1006.5" y="-634.683" font-family="Helvetica,sans-Serif" font-size="10.00">luaL_loadfilex</text>
</a>
</g>
</g>
<!-- Node14&#45;&gt;Node15 -->
<g id="edge14" class="edge"><title>Node14&#45;&gt;Node15</title>
<path fill="none" stroke="midnightblue" d="M903.891,-571.077C910.174,-573.569 916.47,-576.584 922,-580.183 941.5,-592.87 938.753,-605.114 958,-618.183 963.438,-621.874 969.701,-625.02 975.857,-627.626"/>
<polygon fill="midnightblue" stroke="midnightblue" points="904.734,-567.662 894.14,-567.585 902.374,-574.252 904.734,-567.662"/>
</g>
<!-- Node17 -->
<g id="node17" class="node"><title>Node17</title>
<g id="a_node17"><a xlink:href="../../da/d29/lauxlib_8h.html#a3ab1955dd9322cf03e2d3626ebfae669" target="_top" xlink:title="luaL_loadbufferx">
<polygon fill="none" stroke="black" points="963.5,-589.683 963.5,-608.683 1049.5,-608.683 1049.5,-589.683 963.5,-589.683"/>
<text text-anchor="middle" x="1006.5" y="-596.683" font-family="Helvetica,sans-Serif" font-size="10.00">luaL_loadbufferx</text>
</a>
</g>
</g>
<!-- Node14&#45;&gt;Node17 -->
<g id="edge16" class="edge"><title>Node14&#45;&gt;Node17</title>
<path fill="none" stroke="midnightblue" d="M903.943,-571.013C924.61,-576.746 950.557,-583.943 971.051,-589.627"/>
<polygon fill="midnightblue" stroke="midnightblue" points="904.84,-567.63 894.269,-568.33 902.969,-574.376 904.84,-567.63"/>
</g>
<!-- Node18 -->
<g id="node18" class="node"><title>Node18</title>
<g id="a_node18"><a xlink:href="../../d8/dd3/lbaselib_8c.html#a4a9a3613fcf80fe033e044f7e19bed69" target="_top" xlink:title="luaB_load">
<polygon fill="none" stroke="black" points="1113.5,-589.683 1113.5,-608.683 1172.5,-608.683 1172.5,-589.683 1113.5,-589.683"/>
<text text-anchor="middle" x="1143" y="-596.683" font-family="Helvetica,sans-Serif" font-size="10.00">luaB_load</text>
</a>
</g>
</g>
<!-- Node14&#45;&gt;Node18 -->
<g id="edge18" class="edge"><title>Node14&#45;&gt;Node18</title>
<path fill="none" stroke="midnightblue" d="M904.239,-563.612C941.895,-566.455 1002.86,-571.86 1055,-580.183 1074.54,-583.302 1096.29,-588.052 1113.16,-592.022"/>
<polygon fill="midnightblue" stroke="midnightblue" points="904.492,-560.122 894.262,-562.878 903.978,-567.103 904.492,-560.122"/>
</g>
<!-- Node16 -->
<g id="node16" class="node"><title>Node16</title>
<g id="a_node16"><a xlink:href="../../d8/dd3/lbaselib_8c.html#aeb4cb83db820979bbdd7710109b52957" target="_top" xlink:title="luaB_loadfile">
<polygon fill="none" stroke="black" points="1108,-627.683 1108,-646.683 1178,-646.683 1178,-627.683 1108,-627.683"/>
<text text-anchor="middle" x="1143" y="-634.683" font-family="Helvetica,sans-Serif" font-size="10.00">luaB_loadfile</text>
</a>
</g>
</g>
<!-- Node15&#45;&gt;Node16 -->
<g id="edge15" class="edge"><title>Node15&#45;&gt;Node16</title>
<path fill="none" stroke="midnightblue" d="M1053.68,-637.183C1071.41,-637.183 1091.3,-637.183 1107.71,-637.183"/>
<polygon fill="midnightblue" stroke="midnightblue" points="1053.54,-633.683 1043.54,-637.183 1053.54,-640.683 1053.54,-633.683"/>
</g>
<!-- Node17&#45;&gt;Node18 -->
<g id="edge17" class="edge"><title>Node17&#45;&gt;Node18</title>
<path fill="none" stroke="midnightblue" d="M1059.85,-599.183C1077.98,-599.183 1097.62,-599.183 1113.15,-599.183"/>
<polygon fill="midnightblue" stroke="midnightblue" points="1059.69,-595.683 1049.69,-599.183 1059.69,-602.683 1059.69,-595.683"/>
</g>
<!-- Node20 -->
<g id="node20" class="node"><title>Node20</title>
<g id="a_node20"><a xlink:href="../../de/d27/lgc_8c.html#a74f50e6006422d43686521fe765152dd" target="_top" xlink:title="callallpendingfinalizers">
<polygon fill="none" stroke="black" points="813,-475.683 813,-494.683 922,-494.683 922,-475.683 813,-475.683"/>
<text text-anchor="middle" x="867.5" y="-482.683" font-family="Helvetica,sans-Serif" font-size="10.00">callallpendingfinalizers</text>
</a>
</g>
</g>
<!-- Node19&#45;&gt;Node20 -->
<g id="edge20" class="edge"><title>Node19&#45;&gt;Node20</title>
<path fill="none" stroke="midnightblue" d="M756.592,-514.595C778.709,-508.676 808.113,-500.807 830.942,-494.698"/>
<polygon fill="midnightblue" stroke="midnightblue" points="755.443,-511.279 746.688,-517.245 757.252,-518.041 755.443,-511.279"/>
</g>
<!-- Node29 -->
<g id="node29" class="node"><title>Node29</title>
<g id="a_node29"><a xlink:href="../../dc/d9c/lgc_8h.html#a19359957605d7c8eaf70803e5b77361f" target="_top" xlink:title="luaC_forcestep">
<polygon fill="none" stroke="black" points="1231,-361.683 1231,-380.683 1311,-380.683 1311,-361.683 1231,-361.683"/>
<text text-anchor="middle" x="1271" y="-368.683" font-family="Helvetica,sans-Serif" font-size="10.00">luaC_forcestep</text>
</a>
</g>
</g>
<!-- Node19&#45;&gt;Node29 -->
<g id="edge33" class="edge"><title>Node19&#45;&gt;Node29</title>
<path fill="none" stroke="midnightblue" d="M756.839,-528.439C838.135,-539.859 1054.56,-558.956 1195,-466.183 1229.19,-443.597 1254.81,-400.299 1265.08,-380.947"/>
<polygon fill="midnightblue" stroke="midnightblue" points="757.126,-524.944 746.725,-526.959 756.112,-531.87 757.126,-524.944"/>
</g>
<!-- Node21 -->
<g id="node21" class="node"><title>Node21</title>
<g id="a_node21"><a xlink:href="../../dc/d9c/lgc_8h.html#a9aa52a500c9cc2076edb1707e6d8a045" target="_top" xlink:title="luaC_freeallobjects">
<polygon fill="none" stroke="black" points="958,-475.683 958,-494.683 1055,-494.683 1055,-475.683 958,-475.683"/>
<text text-anchor="middle" x="1006.5" y="-482.683" font-family="Helvetica,sans-Serif" font-size="10.00">luaC_freeallobjects</text>
</a>
</g>
</g>
<!-- Node20&#45;&gt;Node21 -->
<g id="edge21" class="edge"><title>Node20&#45;&gt;Node21</title>
<path fill="none" stroke="midnightblue" d="M932.51,-485.183C940.985,-485.183 949.552,-485.183 957.689,-485.183"/>
<polygon fill="midnightblue" stroke="midnightblue" points="932.253,-481.683 922.253,-485.183 932.253,-488.683 932.253,-481.683"/>
</g>
<!-- Node25 -->
<g id="node25" class="node"><title>Node25</title>
<g id="a_node25"><a xlink:href="../../dc/d9c/lgc_8h.html#aa0b753c3ed80e1eed0379ec58592c404" target="_top" xlink:title="luaC_fullgc">
<polygon fill="none" stroke="black" points="975.5,-437.683 975.5,-456.683 1037.5,-456.683 1037.5,-437.683 975.5,-437.683"/>
<text text-anchor="middle" x="1006.5" y="-444.683" font-family="Helvetica,sans-Serif" font-size="10.00">luaC_fullgc</text>
</a>
</g>
</g>
<!-- Node20&#45;&gt;Node25 -->
<g id="edge25" class="edge"><title>Node20&#45;&gt;Node25</title>
<path fill="none" stroke="midnightblue" d="M912.774,-472.902C933.153,-467.25 956.817,-460.686 975.138,-455.604"/>
<polygon fill="midnightblue" stroke="midnightblue" points="911.772,-469.548 903.071,-475.594 913.643,-476.293 911.772,-469.548"/>
</g>
<!-- Node22 -->
<g id="node22" class="node"><title>Node22</title>
<g id="a_node22"><a xlink:href="../../dd/dca/lstate_8c.html#a4940327dfa3b86df0ef008180bb3fcb3" target="_top" xlink:title="close_state">
<polygon fill="none" stroke="black" points="1110.5,-551.683 1110.5,-570.683 1175.5,-570.683 1175.5,-551.683 1110.5,-551.683"/>
<text text-anchor="middle" x="1143" y="-558.683" font-family="Helvetica,sans-Serif" font-size="10.00">close_state</text>
</a>
</g>
</g>
<!-- Node21&#45;&gt;Node22 -->
<g id="edge22" class="edge"><title>Node21&#45;&gt;Node22</title>
<path fill="none" stroke="midnightblue" d="M1030.14,-500.288C1046.7,-511.085 1069.86,-525.679 1091,-537.183 1100.37,-542.281 1111.01,-547.389 1120.13,-551.574"/>
<polygon fill="midnightblue" stroke="midnightblue" points="1031.96,-497.293 1021.68,-494.724 1028.11,-503.142 1031.96,-497.293"/>
</g>
<!-- Node23 -->
<g id="node23" class="node"><title>Node23</title>
<g id="a_node23"><a xlink:href="../../da/dd2/lua_8h.html#af722e4ac7fc0eba5920f59f0162c1b97" target="_top" xlink:title="lua_newstate">
<polygon fill="none" stroke="red" points="1234,-589.683 1234,-608.683 1308,-608.683 1308,-589.683 1234,-589.683"/>
<text text-anchor="middle" x="1271" y="-596.683" font-family="Helvetica,sans-Serif" font-size="10.00">lua_newstate</text>
</a>
</g>
</g>
<!-- Node22&#45;&gt;Node23 -->
<g id="edge23" class="edge"><title>Node22&#45;&gt;Node23</title>
<path fill="none" stroke="midnightblue" d="M1185.56,-573.718C1202.71,-578.887 1222.25,-584.782 1238.22,-589.597"/>
<polygon fill="midnightblue" stroke="midnightblue" points="1186.38,-570.308 1175.8,-570.772 1184.36,-577.01 1186.38,-570.308"/>
</g>
<!-- Node24 -->
<g id="node24" class="node"><title>Node24</title>
<g id="a_node24"><a xlink:href="../../da/dd2/lua_8h.html#afe030a97e84f24dfab3afb598faa2fff" target="_top" xlink:title="lua_close">
<polygon fill="none" stroke="red" points="1243,-551.683 1243,-570.683 1299,-570.683 1299,-551.683 1243,-551.683"/>
<text text-anchor="middle" x="1271" y="-558.683" font-family="Helvetica,sans-Serif" font-size="10.00">lua_close</text>
</a>
</g>
</g>
<!-- Node22&#45;&gt;Node24 -->
<g id="edge24" class="edge"><title>Node22&#45;&gt;Node24</title>
<path fill="none" stroke="midnightblue" d="M1185.89,-561.183C1204.68,-561.183 1226.3,-561.183 1242.91,-561.183"/>
<polygon fill="midnightblue" stroke="midnightblue" points="1185.8,-557.683 1175.8,-561.183 1185.8,-564.683 1185.8,-557.683"/>
</g>
<!-- Node26 -->
<g id="node26" class="node"><title>Node26</title>
<g id="a_node26"><a xlink:href="../../da/dd2/lua_8h.html#a6bac487d3f900b21271e8c591bd801cd" target="_top" xlink:title="lua_gc">
<polygon fill="none" stroke="black" points="1355.5,-399.683 1355.5,-418.683 1399.5,-418.683 1399.5,-399.683 1355.5,-399.683"/>
<text text-anchor="middle" x="1377.5" y="-406.683" font-family="Helvetica,sans-Serif" font-size="10.00">lua_gc</text>
</a>
</g>
</g>
<!-- Node25&#45;&gt;Node26 -->
<g id="edge26" class="edge"><title>Node25&#45;&gt;Node26</title>
<path fill="none" stroke="midnightblue" d="M1047.78,-458.261C1061.39,-461.492 1076.75,-464.582 1091,-466.183 1136.93,-471.343 1149.31,-473.188 1195,-466.183 1254.91,-456.997 1322.19,-431.693 1355.49,-418.098"/>
<polygon fill="midnightblue" stroke="midnightblue" points="1048.3,-454.786 1037.76,-455.786 1046.63,-461.581 1048.3,-454.786"/>
</g>
<!-- Node28 -->
<g id="node28" class="node"><title>Node28</title>
<g id="a_node28"><a xlink:href="../../de/d27/lgc_8c.html#a87bb9d2ca4bed013c39258f8abd61689" target="_top" xlink:title="generationalcollection">
<polygon fill="none" stroke="black" points="1091,-361.683 1091,-380.683 1195,-380.683 1195,-361.683 1091,-361.683"/>
<text text-anchor="middle" x="1143" y="-368.683" font-family="Helvetica,sans-Serif" font-size="10.00">generationalcollection</text>
</a>
</g>
</g>
<!-- Node25&#45;&gt;Node28 -->
<g id="edge28" class="edge"><title>Node25&#45;&gt;Node28</title>
<path fill="none" stroke="midnightblue" d="M1043.32,-433.753C1047.31,-431.992 1051.28,-430.121 1055,-428.183 1082.71,-413.75 1112.7,-392.793 1129.23,-380.721"/>
<polygon fill="midnightblue" stroke="midnightblue" points="1041.92,-430.545 1034.05,-437.645 1044.63,-436.999 1041.92,-430.545"/>
</g>
<!-- Node31 -->
<g id="node31" class="node"><title>Node31</title>
<g id="a_node31"><a xlink:href="../../d7/d3e/lmem_8h.html#ae7dc8a57fc5dbca825653a88a356a72d" target="_top" xlink:title="luaM_realloc_">
<polygon fill="none" stroke="black" points="1106,-437.683 1106,-456.683 1180,-456.683 1180,-437.683 1106,-437.683"/>
<text text-anchor="middle" x="1143" y="-444.683" font-family="Helvetica,sans-Serif" font-size="10.00">luaM_realloc_</text>
</a>
</g>
</g>
<!-- Node25&#45;&gt;Node31 -->
<g id="edge32" class="edge"><title>Node25&#45;&gt;Node31</title>
<path fill="none" stroke="midnightblue" d="M1047.81,-447.183C1066.2,-447.183 1087.82,-447.183 1105.7,-447.183"/>
<polygon fill="midnightblue" stroke="midnightblue" points="1047.68,-443.683 1037.68,-447.183 1047.68,-450.683 1047.68,-443.683"/>
</g>
<!-- Node27 -->
<g id="node27" class="node"><title>Node27</title>
<g id="a_node27"><a xlink:href="../../d8/dd3/lbaselib_8c.html#a07f71966c943cc9761ab129f64d4ac80" target="_top" xlink:title="luaB_collectgarbage">
<polygon fill="none" stroke="black" points="1444,-399.683 1444,-418.683 1546,-418.683 1546,-399.683 1444,-399.683"/>
<text text-anchor="middle" x="1495" y="-406.683" font-family="Helvetica,sans-Serif" font-size="10.00">luaB_collectgarbage</text>
</a>
</g>
</g>
<!-- Node26&#45;&gt;Node27 -->
<g id="edge27" class="edge"><title>Node26&#45;&gt;Node27</title>
<path fill="none" stroke="midnightblue" d="M1409.94,-409.183C1420.35,-409.183 1432.22,-409.183 1443.69,-409.183"/>
<polygon fill="midnightblue" stroke="midnightblue" points="1409.68,-405.683 1399.68,-409.183 1409.68,-412.683 1409.68,-405.683"/>
</g>
<!-- Node28&#45;&gt;Node29 -->
<g id="edge29" class="edge"><title>Node28&#45;&gt;Node29</title>
<path fill="none" stroke="midnightblue" d="M1205.35,-371.183C1214,-371.183 1222.7,-371.183 1230.78,-371.183"/>
<polygon fill="midnightblue" stroke="midnightblue" points="1205.25,-367.683 1195.25,-371.183 1205.25,-374.683 1205.25,-367.683"/>
</g>
<!-- Node29&#45;&gt;Node26 -->
<g id="edge30" class="edge"><title>Node29&#45;&gt;Node26</title>
<path fill="none" stroke="midnightblue" d="M1307.88,-384.23C1323.72,-389.988 1341.78,-396.558 1355.4,-401.51"/>
<polygon fill="midnightblue" stroke="midnightblue" points="1308.96,-380.9 1298.37,-380.772 1306.57,-387.478 1308.96,-380.9"/>
</g>
<!-- Node30 -->
<g id="node30" class="node"><title>Node30</title>
<g id="a_node30"><a xlink:href="../../dc/d9c/lgc_8h.html#a6c71cc4b9e503c0e96c0c4ffcff93900" target="_top" xlink:title="luaC_step">
<polygon fill="none" stroke="black" points="1347,-361.683 1347,-380.683 1408,-380.683 1408,-361.683 1347,-361.683"/>
<text text-anchor="middle" x="1377.5" y="-368.683" font-family="Helvetica,sans-Serif" font-size="10.00">luaC_step</text>
</a>
</g>
</g>
<!-- Node29&#45;&gt;Node30 -->
<g id="edge31" class="edge"><title>Node29&#45;&gt;Node30</title>
<path fill="none" stroke="midnightblue" d="M1321.34,-371.183C1330.07,-371.183 1338.91,-371.183 1346.87,-371.183"/>
<polygon fill="midnightblue" stroke="midnightblue" points="1321.21,-367.683 1311.21,-371.183 1321.21,-374.683 1321.21,-367.683"/>
</g>
<!-- Node33 -->
<g id="node33" class="node"><title>Node33</title>
<g id="a_node33"><a xlink:href="../../de/d27/lgc_8c.html#abbcf0361a74ce5efc08ca703b0f4098a" target="_top" xlink:title="sweeplist">
<polygon fill="none" stroke="black" points="336,-290.683 336,-309.683 393,-309.683 393,-290.683 336,-290.683"/>
<text text-anchor="middle" x="364.5" y="-297.683" font-family="Helvetica,sans-Serif" font-size="10.00">sweeplist</text>
</a>
</g>
</g>
<!-- Node32&#45;&gt;Node33 -->
<g id="edge35" class="edge"><title>Node32&#45;&gt;Node33</title>
<path fill="none" stroke="midnightblue" d="M273.034,-429.294C294.935,-398.038 339.464,-334.486 356.582,-310.056"/>
<polygon fill="midnightblue" stroke="midnightblue" points="270.13,-427.339 267.258,-437.537 275.863,-431.356 270.13,-427.339"/>
</g>
<!-- Node34 -->
<g id="node34" class="node"><title>Node34</title>
<g id="a_node34"><a xlink:href="../../de/d27/lgc_8c.html#ac881eb4d9ece02c3cefb86ed34879b6d" target="_top" xlink:title="sweeptolive">
<polygon fill="none" stroke="black" points="433,-290.683 433,-309.683 501,-309.683 501,-290.683 433,-290.683"/>
<text text-anchor="middle" x="467" y="-297.683" font-family="Helvetica,sans-Serif" font-size="10.00">sweeptolive</text>
</a>
</g>
</g>
<!-- Node33&#45;&gt;Node34 -->
<g id="edge36" class="edge"><title>Node33&#45;&gt;Node34</title>
<path fill="none" stroke="midnightblue" d="M403.351,-300.183C412.981,-300.183 423.259,-300.183 432.647,-300.183"/>
<polygon fill="midnightblue" stroke="midnightblue" points="403.228,-296.683 393.228,-300.183 403.228,-303.683 403.228,-296.683"/>
</g>
<!-- Node47 -->
<g id="node47" class="node"><title>Node47</title>
<g id="a_node47"><a xlink:href="../../de/d27/lgc_8c.html#ae34e22198155f5d365fe500d3735c150" target="_top" xlink:title="singlestep">
<polygon fill="none" stroke="black" points="694,-124.683 694,-143.683 753,-143.683 753,-124.683 694,-124.683"/>
<text text-anchor="middle" x="723.5" y="-131.683" font-family="Helvetica,sans-Serif" font-size="10.00">singlestep</text>
</a>
</g>
</g>
<!-- Node33&#45;&gt;Node47 -->
<g id="edge59" class="edge"><title>Node33&#45;&gt;Node47</title>
<path fill="none" stroke="midnightblue" d="M395.186,-286.379C465.572,-253.651 641.199,-171.986 701.661,-143.872"/>
<polygon fill="midnightblue" stroke="midnightblue" points="393.568,-283.271 385.976,-290.661 396.52,-289.619 393.568,-283.271"/>
</g>
<!-- Node35 -->
<g id="node35" class="node"><title>Node35</title>
<g id="a_node35"><a xlink:href="../../dc/d9c/lgc_8h.html#a15870c09448216ce5c4e1ff63d39e0a9" target="_top" xlink:title="luaC_checkfinalizer">
<polygon fill="none" stroke="black" points="537,-271.683 537,-290.683 634,-290.683 634,-271.683 537,-271.683"/>
<text text-anchor="middle" x="585.5" y="-278.683" font-family="Helvetica,sans-Serif" font-size="10.00">luaC_checkfinalizer</text>
</a>
</g>
</g>
<!-- Node34&#45;&gt;Node35 -->
<g id="edge37" class="edge"><title>Node34&#45;&gt;Node35</title>
<path fill="none" stroke="midnightblue" d="M511.087,-293.155C519.526,-291.779 528.421,-290.328 536.994,-288.93"/>
<polygon fill="midnightblue" stroke="midnightblue" points="510.379,-289.725 501.073,-294.789 511.506,-296.633 510.379,-289.725"/>
</g>
<!-- Node45 -->
<g id="node45" class="node"><title>Node45</title>
<g id="a_node45"><a xlink:href="../../de/d27/lgc_8c.html#a396e5acf2204119b6a78993fa368ec39" target="_top" xlink:title="entersweep">
<polygon fill="none" stroke="black" points="552,-369.683 552,-388.683 619,-388.683 619,-369.683 552,-369.683"/>
<text text-anchor="middle" x="585.5" y="-376.683" font-family="Helvetica,sans-Serif" font-size="10.00">entersweep</text>
</a>
</g>
</g>
<!-- Node34&#45;&gt;Node45 -->
<g id="edge47" class="edge"><title>Node34&#45;&gt;Node45</title>
<path fill="none" stroke="midnightblue" d="M490.668,-315.554C514.322,-331.594 550.664,-356.238 570.462,-369.663"/>
<polygon fill="midnightblue" stroke="midnightblue" points="492.526,-312.585 482.285,-309.869 488.597,-318.379 492.526,-312.585"/>
</g>
<!-- Node36 -->
<g id="node36" class="node"><title>Node36</title>
<g id="a_node36"><a xlink:href="../../da/dd2/lua_8h.html#a0b834b6a9cd96b141385df14bd0272a4" target="_top" xlink:title="lua_setmetatable">
<polygon fill="none" stroke="black" points="679,-241.683 679,-260.683 768,-260.683 768,-241.683 679,-241.683"/>
<text text-anchor="middle" x="723.5" y="-248.683" font-family="Helvetica,sans-Serif" font-size="10.00">lua_setmetatable</text>
</a>
</g>
</g>
<!-- Node35&#45;&gt;Node36 -->
<g id="edge38" class="edge"><title>Node35&#45;&gt;Node36</title>
<path fill="none" stroke="midnightblue" d="M639.691,-269.449C652.726,-266.574 666.524,-263.53 679.041,-260.769"/>
<polygon fill="midnightblue" stroke="midnightblue" points="638.916,-266.036 629.905,-271.608 640.424,-272.872 638.916,-266.036"/>
</g>
<!-- Node37 -->
<g id="node37" class="node"><title>Node37</title>
<g id="a_node37"><a xlink:href="../../d1/dc2/_kensho_lua_wrapper_8m.html#ac812f3eb3f83c6ada24f2dadeced6d68" target="_top" xlink:title="pushValue">
<polygon fill="none" stroke="red" points="836,-285.683 836,-304.683 899,-304.683 899,-285.683 836,-285.683"/>
<text text-anchor="middle" x="867.5" y="-292.683" font-family="Helvetica,sans-Serif" font-size="10.00">pushValue</text>
</a>
</g>
</g>
<!-- Node36&#45;&gt;Node37 -->
<g id="edge39" class="edge"><title>Node36&#45;&gt;Node37</title>
<path fill="none" stroke="midnightblue" d="M764.933,-263.711C787.44,-270.685 815.014,-279.229 835.748,-285.654"/>
<polygon fill="midnightblue" stroke="midnightblue" points="765.9,-260.347 755.312,-260.73 763.828,-267.033 765.9,-260.347"/>
</g>
<!-- Node38 -->
<g id="node38" class="node"><title>Node38</title>
<g id="a_node38"><a xlink:href="../../dc/de7/interface_kensho_lua_wrapper.html#a7d10aa0242861cdd109d3da9383882a2" target="_top" xlink:title="&#45;[KenshoLuaWrapper\l evaluate]">
<polygon fill="none" stroke="red" points="813,-236.183 813,-266.183 922,-266.183 922,-236.183 813,-236.183"/>
<text text-anchor="start" x="821" y="-254.183" font-family="Helvetica,sans-Serif" font-size="10.00">&#45;[KenshoLuaWrapper</text>
<text text-anchor="middle" x="867.5" y="-243.183" font-family="Helvetica,sans-Serif" font-size="10.00"> evaluate]</text>
</a>
</g>
</g>
<!-- Node36&#45;&gt;Node38 -->
<g id="edge40" class="edge"><title>Node36&#45;&gt;Node38</title>
<path fill="none" stroke="midnightblue" d="M778.419,-251.183C789.703,-251.183 801.599,-251.183 812.872,-251.183"/>
<polygon fill="midnightblue" stroke="midnightblue" points="778.263,-247.683 768.263,-251.183 778.263,-254.683 778.263,-247.683"/>
</g>
<!-- Node39 -->
<g id="node39" class="node"><title>Node39</title>
<g id="a_node39"><a xlink:href="../../da/d29/lauxlib_8h.html#a4ef6497609d8cb52f8f4dc0ec489bb7a" target="_top" xlink:title="luaL_setmetatable">
<polygon fill="none" stroke="red" points="820,-197.683 820,-216.683 915,-216.683 915,-197.683 820,-197.683"/>
<text text-anchor="middle" x="867.5" y="-204.683" font-family="Helvetica,sans-Serif" font-size="10.00">luaL_setmetatable</text>
</a>
</g>
</g>
<!-- Node36&#45;&gt;Node39 -->
<g id="edge41" class="edge"><title>Node36&#45;&gt;Node39</title>
<path fill="none" stroke="midnightblue" d="M764.933,-238.654C787.44,-231.68 815.014,-223.136 835.748,-216.711"/>
<polygon fill="midnightblue" stroke="midnightblue" points="763.828,-235.332 755.312,-241.635 765.9,-242.019 763.828,-235.332"/>
</g>
<!-- Node40 -->
<g id="node40" class="node"><title>Node40</title>
<g id="a_node40"><a xlink:href="../../d8/dd3/lbaselib_8c.html#af7799a987ba6d158a96a52e80fb5beaf" target="_top" xlink:title="luaB_setmetatable">
<polygon fill="none" stroke="black" points="819.5,-159.683 819.5,-178.683 915.5,-178.683 915.5,-159.683 819.5,-159.683"/>
<text text-anchor="middle" x="867.5" y="-166.683" font-family="Helvetica,sans-Serif" font-size="10.00">luaB_setmetatable</text>
</a>
</g>
</g>
<!-- Node36&#45;&gt;Node40 -->
<g id="edge42" class="edge"><title>Node36&#45;&gt;Node40</title>
<path fill="none" stroke="midnightblue" d="M744.005,-234.876C761.286,-221.038 787.642,-201.382 813,-188.183 819.907,-184.587 827.646,-181.401 835.045,-178.715"/>
<polygon fill="midnightblue" stroke="midnightblue" points="741.392,-232.49 735.848,-241.518 745.812,-237.918 741.392,-232.49"/>
</g>
<!-- Node41 -->
<g id="node41" class="node"><title>Node41</title>
<g id="a_node41"><a xlink:href="../../d8/d97/ldblib_8c.html#a3595aee1af712c0ba9c586feb763bffc" target="_top" xlink:title="db_setmetatable">
<polygon fill="none" stroke="black" points="823.5,-121.683 823.5,-140.683 911.5,-140.683 911.5,-121.683 823.5,-121.683"/>
<text text-anchor="middle" x="867.5" y="-128.683" font-family="Helvetica,sans-Serif" font-size="10.00">db_setmetatable</text>
</a>
</g>
</g>
<!-- Node36&#45;&gt;Node41 -->
<g id="edge43" class="edge"><title>Node36&#45;&gt;Node41</title>
<path fill="none" stroke="midnightblue" d="M736.016,-233.116C751.151,-210.718 779.747,-172.75 813,-150.183 818.546,-146.419 824.92,-143.314 831.292,-140.784"/>
<polygon fill="midnightblue" stroke="midnightblue" points="732.959,-231.395 730.38,-241.671 738.804,-235.246 732.959,-231.395"/>
</g>
<!-- Node42 -->
<g id="node42" class="node"><title>Node42</title>
<g id="a_node42"><a xlink:href="../../d8/d97/ldblib_8c.html#aa0c362d361f8f9bd8a002c34c393e2b0" target="_top" xlink:title="db_sethook">
<polygon fill="none" stroke="black" points="834.5,-83.6825 834.5,-102.683 900.5,-102.683 900.5,-83.6825 834.5,-83.6825"/>
<text text-anchor="middle" x="867.5" y="-90.6825" font-family="Helvetica,sans-Serif" font-size="10.00">db_sethook</text>
</a>
</g>
</g>
<!-- Node36&#45;&gt;Node42 -->
<g id="edge44" class="edge"><title>Node36&#45;&gt;Node42</title>
<path fill="none" stroke="midnightblue" d="M734.288,-232.694C752.46,-198.956 791.512,-129.296 813,-112.183 819.245,-107.209 826.894,-103.48 834.434,-100.707"/>
<polygon fill="midnightblue" stroke="midnightblue" points="731.181,-231.081 729.554,-241.551 737.355,-234.381 731.181,-231.081"/>
</g>
<!-- Node43 -->
<g id="node43" class="node"><title>Node43</title>
<g id="a_node43"><a xlink:href="../../d6/d07/lualib_8h.html#a05e0befc0439f926b6152129ab4f8dea" target="_top" xlink:title="luaopen_package">
<polygon fill="none" stroke="black" points="820.5,-361.683 820.5,-380.683 914.5,-380.683 914.5,-361.683 820.5,-361.683"/>
<text text-anchor="middle" x="867.5" y="-368.683" font-family="Helvetica,sans-Serif" font-size="10.00">luaopen_package</text>
</a>
</g>
</g>
<!-- Node36&#45;&gt;Node43 -->
<g id="edge45" class="edge"><title>Node36&#45;&gt;Node43</title>
<path fill="none" stroke="midnightblue" d="M736.016,-269.249C751.151,-291.647 779.747,-329.615 813,-352.183 818.546,-355.946 824.92,-359.051 831.292,-361.582"/>
<polygon fill="midnightblue" stroke="midnightblue" points="738.804,-267.119 730.38,-260.694 732.959,-270.97 738.804,-267.119"/>
</g>
<!-- Node44 -->
<g id="node44" class="node"><title>Node44</title>
<g id="a_node44"><a xlink:href="../../dc/d77/lstrlib_8c.html#a16d034da6b46e6beae228472f26ec07b" target="_top" xlink:title="createmetatable">
<polygon fill="none" stroke="red" points="825.5,-323.683 825.5,-342.683 909.5,-342.683 909.5,-323.683 825.5,-323.683"/>
<text text-anchor="middle" x="867.5" y="-330.683" font-family="Helvetica,sans-Serif" font-size="10.00">createmetatable</text>
</a>
</g>
</g>
<!-- Node36&#45;&gt;Node44 -->
<g id="edge46" class="edge"><title>Node36&#45;&gt;Node44</title>
<path fill="none" stroke="midnightblue" d="M744.005,-267.489C761.286,-281.327 787.642,-300.983 813,-314.183 819.907,-317.778 827.646,-320.964 835.045,-323.65"/>
<polygon fill="midnightblue" stroke="midnightblue" points="745.812,-264.447 735.848,-260.847 741.392,-269.875 745.812,-264.447"/>
</g>
<!-- Node45&#45;&gt;Node25 -->
<g id="edge58" class="edge"><title>Node45&#45;&gt;Node25</title>
<path fill="none" stroke="midnightblue" d="M625.372,-391.662C639.331,-395.795 655.265,-400.117 670,-403.183 781.289,-426.338 916.019,-439.627 975.172,-444.736"/>
<polygon fill="midnightblue" stroke="midnightblue" points="626.186,-388.251 615.601,-388.706 624.159,-394.952 626.186,-388.251"/>
</g>
<!-- Node46 -->
<g id="node46" class="node"><title>Node46</title>
<g id="a_node46"><a xlink:href="../../dc/d9c/lgc_8h.html#af016fe72ab7e564d7d55e7e4fb659041" target="_top" xlink:title="luaC_changemode">
<polygon fill="none" stroke="black" points="958,-399.683 958,-418.683 1055,-418.683 1055,-399.683 958,-399.683"/>
<text text-anchor="middle" x="1006.5" y="-406.683" font-family="Helvetica,sans-Serif" font-size="10.00">luaC_changemode</text>
</a>
</g>
</g>
<!-- Node45&#45;&gt;Node46 -->
<g id="edge48" class="edge"><title>Node45&#45;&gt;Node46</title>
<path fill="none" stroke="midnightblue" d="M629.08,-382.231C707.816,-387.869 875.624,-399.884 957.95,-405.778"/>
<polygon fill="midnightblue" stroke="midnightblue" points="629.254,-378.735 619.03,-381.512 628.754,-385.717 629.254,-378.735"/>
</g>
<!-- Node45&#45;&gt;Node47 -->
<g id="edge50" class="edge"><title>Node45&#45;&gt;Node47</title>
<path fill="none" stroke="midnightblue" d="M597.975,-360.745C607.779,-344.84 622.138,-321.185 634,-300.183 650.817,-270.407 653.926,-262.365 670,-232.183 687.238,-199.814 707.808,-161.51 717.268,-143.911"/>
<polygon fill="midnightblue" stroke="midnightblue" points="594.81,-359.208 592.522,-369.553 600.761,-362.893 594.81,-359.208"/>
</g>
<!-- Node46&#45;&gt;Node26 -->
<g id="edge49" class="edge"><title>Node46&#45;&gt;Node26</title>
<path fill="none" stroke="midnightblue" d="M1065.48,-409.183C1149.23,-409.183 1300.09,-409.183 1355.42,-409.183"/>
<polygon fill="midnightblue" stroke="midnightblue" points="1065.36,-405.683 1055.36,-409.183 1065.36,-412.683 1065.36,-405.683"/>
</g>
<!-- Node48 -->
<g id="node48" class="node"><title>Node48</title>
<g id="a_node48"><a xlink:href="../../dc/d9c/lgc_8h.html#a1da32357417ce5766ed5e3ada033c32f" target="_top" xlink:title="luaC_runtilstate">
<polygon fill="none" stroke="black" points="827,-45.6825 827,-64.6825 908,-64.6825 908,-45.6825 827,-45.6825"/>
<text text-anchor="middle" x="867.5" y="-52.6825" font-family="Helvetica,sans-Serif" font-size="10.00">luaC_runtilstate</text>
</a>
</g>
</g>
<!-- Node47&#45;&gt;Node48 -->
<g id="edge51" class="edge"><title>Node47&#45;&gt;Node48</title>
<path fill="none" stroke="midnightblue" d="M744.719,-118.275C762.086,-105.164 788.177,-86.7455 813,-74.1825 820.036,-70.6219 827.898,-67.4311 835.385,-64.7269"/>
<polygon fill="midnightblue" stroke="midnightblue" points="742.292,-115.726 736.486,-124.589 746.551,-121.281 742.292,-115.726"/>
</g>
<!-- Node50 -->
<g id="node50" class="node"><title>Node50</title>
<g id="a_node50"><a xlink:href="../../de/d27/lgc_8c.html#a7515a46e25b277cbbe7febb4d06b196a" target="_top" xlink:title="incstep">
<polygon fill="none" stroke="black" points="1119.5,-165.683 1119.5,-184.683 1166.5,-184.683 1166.5,-165.683 1119.5,-165.683"/>
<text text-anchor="middle" x="1143" y="-172.683" font-family="Helvetica,sans-Serif" font-size="10.00">incstep</text>
</a>
</g>
</g>
<!-- Node47&#45;&gt;Node50 -->
<g id="edge56" class="edge"><title>Node47&#45;&gt;Node50</title>
<path fill="none" stroke="midnightblue" d="M734.486,-115.811C748.475,-92.2425 776.359,-52.4642 813,-36.1825 911.289,7.49223 960.91,15.9266 1055,-36.1825 1106.8,-64.8717 1131.86,-138.703 1139.43,-165.381"/>
<polygon fill="midnightblue" stroke="midnightblue" points="731.429,-114.107 729.508,-124.526 737.507,-117.578 731.429,-114.107"/>
</g>
<!-- Node48&#45;&gt;Node25 -->
<g id="edge54" class="edge"><title>Node48&#45;&gt;Node25</title>
<path fill="none" stroke="midnightblue" d="M916.994,-69.0571C918.831,-70.5903 920.517,-72.2926 922,-74.1825 1019.64,-198.586 862.82,-301.887 958,-428.183 962.276,-433.857 968.519,-437.84 975.081,-440.635"/>
<polygon fill="midnightblue" stroke="midnightblue" points="918.443,-65.8276 908.14,-63.3597 914.656,-71.7142 918.443,-65.8276"/>
</g>
<!-- Node48&#45;&gt;Node28 -->
<g id="edge53" class="edge"><title>Node48&#45;&gt;Node28</title>
<path fill="none" stroke="midnightblue" d="M914.016,-69.1306C916.816,-70.6565 919.506,-72.3361 922,-74.1825 1036.75,-159.131 1118.22,-320.77 1137.58,-361.62"/>
<polygon fill="midnightblue" stroke="midnightblue" points="915.34,-65.8851 904.805,-64.7641 912.342,-72.2103 915.34,-65.8851"/>
</g>
<!-- Node48&#45;&gt;Node46 -->
<g id="edge52" class="edge"><title>Node48&#45;&gt;Node46</title>
<path fill="none" stroke="midnightblue" d="M916.945,-69.4033C918.772,-70.8452 920.472,-72.4334 922,-74.1825 973.377,-133.005 939.061,-170.413 958,-246.183 972.653,-304.804 994.298,-374.063 1002.34,-399.332"/>
<polygon fill="midnightblue" stroke="midnightblue" points="918.592,-66.3048 908.257,-63.9716 914.881,-72.2404 918.592,-66.3048"/>
</g>
<!-- Node49 -->
<g id="node49" class="node"><title>Node49</title>
<g id="a_node49"><a xlink:href="../../d4/dfb/lstring_8h.html#a44d549eb0ace165927a896f37330e2cd" target="_top" xlink:title="luaS_resize">
<polygon fill="none" stroke="red" points="973.5,-45.6825 973.5,-64.6825 1039.5,-64.6825 1039.5,-45.6825 973.5,-45.6825"/>
<text text-anchor="middle" x="1006.5" y="-52.6825" font-family="Helvetica,sans-Serif" font-size="10.00">luaS_resize</text>
</a>
</g>
</g>
<!-- Node48&#45;&gt;Node49 -->
<g id="edge55" class="edge"><title>Node48&#45;&gt;Node49</title>
<path fill="none" stroke="midnightblue" d="M918.365,-55.1825C936.701,-55.1825 956.965,-55.1825 973.334,-55.1825"/>
<polygon fill="midnightblue" stroke="midnightblue" points="918.126,-51.6826 908.126,-55.1825 918.126,-58.6826 918.126,-51.6826"/>
</g>
<!-- Node50&#45;&gt;Node29 -->
<g id="edge57" class="edge"><title>Node50&#45;&gt;Node29</title>
<path fill="none" stroke="midnightblue" d="M1155.8,-193.531C1181.9,-234.131 1243.8,-330.429 1263.71,-361.404"/>
<polygon fill="midnightblue" stroke="midnightblue" points="1158.6,-191.421 1150.25,-184.902 1152.71,-195.207 1158.6,-191.421"/>
</g>
</g>
</svg>
