<?xml version="1.0" encoding="UTF-8" standalone="no"?>
<!DOCTYPE svg PUBLIC "-//W3C//DTD SVG 1.1//EN"
 "http://www.w3.org/Graphics/SVG/1.1/DTD/svg11.dtd">
<!-- Generated by graphviz version 2.38.0 (20140413.2041)
 -->
<!-- Title: checkmode Pages: 1 -->
<svg width="619pt" height="85pt"
 viewBox="0.00 0.00 619.00 85.00" xmlns="http://www.w3.org/2000/svg" xmlns:xlink="http://www.w3.org/1999/xlink">
<g id="graph0" class="graph" transform="scale(1 1) rotate(0) translate(4 81)">
<title>checkmode</title>
<!-- Node1 -->
<g id="node1" class="node"><title>Node1</title>
<polygon fill="#bfbfbf" stroke="black" points="0,-19.5 0,-38.5 64,-38.5 64,-19.5 0,-19.5"/>
<text text-anchor="middle" x="32" y="-26.5" font-family="Helvetica,sans-Serif" font-size="10.00">checkmode</text>
</g>
<!-- Node2 -->
<g id="node2" class="node"><title>Node2</title>
<g id="a_node2"><a xlink:href="../../d3/d08/ldo_8c.html#a14df0fa118ab124dfcc6d227bdd38ca5" target="_top" xlink:title="f_parser">
<polygon fill="none" stroke="black" points="100,-19.5 100,-38.5 151,-38.5 151,-19.5 100,-19.5"/>
<text text-anchor="middle" x="125.5" y="-26.5" font-family="Helvetica,sans-Serif" font-size="10.00">f_parser</text>
</a>
</g>
</g>
<!-- Node1&#45;&gt;Node2 -->
<g id="edge1" class="edge"><title>Node1&#45;&gt;Node2</title>
<path fill="none" stroke="midnightblue" d="M74.271,-29C82.9722,-29 91.8915,-29 99.7539,-29"/>
<polygon fill="midnightblue" stroke="midnightblue" points="74.2332,-25.5001 64.2332,-29 74.2332,-32.5001 74.2332,-25.5001"/>
</g>
<!-- Node3 -->
<g id="node3" class="node"><title>Node3</title>
<g id="a_node3"><a xlink:href="../../d2/dd9/ldo_8h.html#a5dffa85d966f14d3f3464db580f5b3fa" target="_top" xlink:title="luaD_protectedparser">
<polygon fill="none" stroke="black" points="187,-19.5 187,-38.5 294,-38.5 294,-19.5 187,-19.5"/>
<text text-anchor="middle" x="240.5" y="-26.5" font-family="Helvetica,sans-Serif" font-size="10.00">luaD_protectedparser</text>
</a>
</g>
</g>
<!-- Node2&#45;&gt;Node3 -->
<g id="edge2" class="edge"><title>Node2&#45;&gt;Node3</title>
<path fill="none" stroke="midnightblue" d="M161.176,-29C169.263,-29 178.055,-29 186.73,-29"/>
<polygon fill="midnightblue" stroke="midnightblue" points="161.019,-25.5001 151.019,-29 161.019,-32.5001 161.019,-25.5001"/>
</g>
<!-- Node4 -->
<g id="node4" class="node"><title>Node4</title>
<g id="a_node4"><a xlink:href="../../da/dd2/lua_8h.html#a3f4c1ed5e0bd437dc527d62c5768b463" target="_top" xlink:title="lua_load">
<polygon fill="none" stroke="black" points="330,-19.5 330,-38.5 383,-38.5 383,-19.5 330,-19.5"/>
<text text-anchor="middle" x="356.5" y="-26.5" font-family="Helvetica,sans-Serif" font-size="10.00">lua_load</text>
</a>
</g>
</g>
<!-- Node3&#45;&gt;Node4 -->
<g id="edge3" class="edge"><title>Node3&#45;&gt;Node4</title>
<path fill="none" stroke="midnightblue" d="M304.321,-29C313.289,-29 322.062,-29 329.741,-29"/>
<polygon fill="midnightblue" stroke="midnightblue" points="304.162,-25.5001 294.162,-29 304.162,-32.5001 304.162,-25.5001"/>
</g>
<!-- Node5 -->
<g id="node5" class="node"><title>Node5</title>
<g id="a_node5"><a xlink:href="../../da/d29/lauxlib_8h.html#a8c38c6dcf9db7e110e525b46742bacf8" target="_top" xlink:title="luaL_loadfilex">
<polygon fill="none" stroke="black" points="425,-57.5 425,-76.5 499,-76.5 499,-57.5 425,-57.5"/>
<text text-anchor="middle" x="462" y="-64.5" font-family="Helvetica,sans-Serif" font-size="10.00">luaL_loadfilex</text>
</a>
</g>
</g>
<!-- Node4&#45;&gt;Node5 -->
<g id="edge4" class="edge"><title>Node4&#45;&gt;Node5</title>
<path fill="none" stroke="midnightblue" d="M392.785,-41.9547C406.621,-47.0349 422.211,-52.7587 434.991,-57.4509"/>
<polygon fill="midnightblue" stroke="midnightblue" points="393.678,-38.5543 383.084,-38.3933 391.265,-45.1254 393.678,-38.5543"/>
</g>
<!-- Node7 -->
<g id="node7" class="node"><title>Node7</title>
<g id="a_node7"><a xlink:href="../../da/d29/lauxlib_8h.html#a3ab1955dd9322cf03e2d3626ebfae669" target="_top" xlink:title="luaL_loadbufferx">
<polygon fill="none" stroke="black" points="419,-19.5 419,-38.5 505,-38.5 505,-19.5 419,-19.5"/>
<text text-anchor="middle" x="462" y="-26.5" font-family="Helvetica,sans-Serif" font-size="10.00">luaL_loadbufferx</text>
</a>
</g>
</g>
<!-- Node4&#45;&gt;Node7 -->
<g id="edge6" class="edge"><title>Node4&#45;&gt;Node7</title>
<path fill="none" stroke="midnightblue" d="M393.151,-29C401.413,-29 410.283,-29 418.795,-29"/>
<polygon fill="midnightblue" stroke="midnightblue" points="393.084,-25.5001 383.084,-29 393.084,-32.5001 393.084,-25.5001"/>
</g>
<!-- Node8 -->
<g id="node8" class="node"><title>Node8</title>
<g id="a_node8"><a xlink:href="../../d8/dd3/lbaselib_8c.html#a4a9a3613fcf80fe033e044f7e19bed69" target="_top" xlink:title="luaB_load">
<polygon fill="none" stroke="black" points="546.5,-0.5 546.5,-19.5 605.5,-19.5 605.5,-0.5 546.5,-0.5"/>
<text text-anchor="middle" x="576" y="-7.5" font-family="Helvetica,sans-Serif" font-size="10.00">luaB_load</text>
</a>
</g>
</g>
<!-- Node4&#45;&gt;Node8 -->
<g id="edge8" class="edge"><title>Node4&#45;&gt;Node8</title>
<path fill="none" stroke="midnightblue" d="M392.272,-16.2775C400.89,-13.6774 410.184,-11.3307 419,-10 463.053,-3.35012 514.904,-5.24638 546.342,-7.45143"/>
<polygon fill="midnightblue" stroke="midnightblue" points="390.988,-13.0135 382.535,-19.4005 393.126,-19.6791 390.988,-13.0135"/>
</g>
<!-- Node6 -->
<g id="node6" class="node"><title>Node6</title>
<g id="a_node6"><a xlink:href="../../d8/dd3/lbaselib_8c.html#aeb4cb83db820979bbdd7710109b52957" target="_top" xlink:title="luaB_loadfile">
<polygon fill="none" stroke="black" points="541,-57.5 541,-76.5 611,-76.5 611,-57.5 541,-57.5"/>
<text text-anchor="middle" x="576" y="-64.5" font-family="Helvetica,sans-Serif" font-size="10.00">luaB_loadfile</text>
</a>
</g>
</g>
<!-- Node5&#45;&gt;Node6 -->
<g id="edge5" class="edge"><title>Node5&#45;&gt;Node6</title>
<path fill="none" stroke="midnightblue" d="M509.068,-67C519.726,-67 530.88,-67 540.919,-67"/>
<polygon fill="midnightblue" stroke="midnightblue" points="509.054,-63.5001 499.054,-67 509.054,-70.5001 509.054,-63.5001"/>
</g>
<!-- Node7&#45;&gt;Node8 -->
<g id="edge7" class="edge"><title>Node7&#45;&gt;Node8</title>
<path fill="none" stroke="midnightblue" d="M515.196,-20.1454C525.919,-18.3262 536.83,-16.4753 546.345,-14.8612"/>
<polygon fill="midnightblue" stroke="midnightblue" points="514.297,-16.7477 505.023,-21.871 515.468,-23.6491 514.297,-16.7477"/>
</g>
</g>
</svg>
