<?xml version="1.0" encoding="UTF-8" standalone="no"?>
<!DOCTYPE svg PUBLIC "-//W3C//DTD SVG 1.1//EN"
 "http://www.w3.org/Graphics/SVG/1.1/DTD/svg11.dtd">
<!-- Generated by graphviz version 2.38.0 (20140413.2041)
 -->
<!-- Title: seterrorobj Pages: 1 -->
<svg width="1553pt" height="340pt"
 viewBox="0.00 0.00 1553.00 340.35" xmlns="http://www.w3.org/2000/svg" xmlns:xlink="http://www.w3.org/1999/xlink">
<g id="graph0" class="graph" transform="scale(1 1) rotate(0) translate(4 336.351)">
<title>seterrorobj</title>
<!-- Node1 -->
<g id="node1" class="node"><title>Node1</title>
<polygon fill="#bfbfbf" stroke="black" points="0,-226.851 0,-245.851 60,-245.851 60,-226.851 0,-226.851"/>
<text text-anchor="middle" x="30" y="-233.851" font-family="Helvetica,sans-Serif" font-size="10.00">seterrorobj</text>
</g>
<!-- Node2 -->
<g id="node2" class="node"><title>Node2</title>
<g id="a_node2"><a xlink:href="../../da/dd2/lua_8h.html#a434479f022eda738b99000aad5ddd929" target="_top" xlink:title="lua_resume">
<polygon fill="none" stroke="black" points="215,-264.851 215,-283.851 280,-283.851 280,-264.851 215,-264.851"/>
<text text-anchor="middle" x="247.5" y="-271.851" font-family="Helvetica,sans-Serif" font-size="10.00">lua_resume</text>
</a>
</g>
</g>
<!-- Node1&#45;&gt;Node2 -->
<g id="edge1" class="edge"><title>Node1&#45;&gt;Node2</title>
<path fill="none" stroke="midnightblue" d="M69.6714,-248.747C78.2743,-251.198 87.3957,-253.562 96,-255.351 136.611,-263.794 184.217,-269.04 214.84,-271.827"/>
<polygon fill="midnightblue" stroke="midnightblue" points="70.4541,-245.329 59.8725,-245.86 68.4752,-252.044 70.4541,-245.329"/>
</g>
<!-- Node7 -->
<g id="node7" class="node"><title>Node7</title>
<g id="a_node7"><a xlink:href="../../d2/dd9/ldo_8h.html#ad1087faa52e2bb98c00806ea1ac198a6" target="_top" xlink:title="luaD_pcall">
<polygon fill="none" stroke="black" points="96,-169.851 96,-188.851 158,-188.851 158,-169.851 96,-169.851"/>
<text text-anchor="middle" x="127" y="-176.851" font-family="Helvetica,sans-Serif" font-size="10.00">luaD_pcall</text>
</a>
</g>
</g>
<!-- Node1&#45;&gt;Node7 -->
<g id="edge6" class="edge"><title>Node1&#45;&gt;Node7</title>
<path fill="none" stroke="midnightblue" d="M56.0343,-221.331C73.1697,-211.049 95.3731,-197.727 110.123,-188.878"/>
<polygon fill="midnightblue" stroke="midnightblue" points="53.8896,-218.536 47.1155,-226.682 57.4911,-224.538 53.8896,-218.536"/>
</g>
<!-- Node39 -->
<g id="node39" class="node"><title>Node39</title>
<g id="a_node39"><a xlink:href="../../d3/d08/ldo_8c.html#a8f3e3ff2aa0a4a251774a476cb0036ea" target="_top" xlink:title="recover">
<polygon fill="none" stroke="black" points="103.5,-226.851 103.5,-245.851 150.5,-245.851 150.5,-226.851 103.5,-226.851"/>
<text text-anchor="middle" x="127" y="-233.851" font-family="Helvetica,sans-Serif" font-size="10.00">recover</text>
</a>
</g>
</g>
<!-- Node1&#45;&gt;Node39 -->
<g id="edge43" class="edge"><title>Node1&#45;&gt;Node39</title>
<path fill="none" stroke="midnightblue" d="M70.18,-236.351C81.5285,-236.351 93.5309,-236.351 103.486,-236.351"/>
<polygon fill="midnightblue" stroke="midnightblue" points="70.0194,-232.851 60.0193,-236.351 70.0193,-239.851 70.0194,-232.851"/>
</g>
<!-- Node3 -->
<g id="node3" class="node"><title>Node3</title>
<g id="a_node3"><a xlink:href="../../df/d2d/lcorolib_8c.html#aaa37b3a30ab0c6daef7fae8951fef3e7" target="_top" xlink:title="auxresume">
<polygon fill="none" stroke="black" points="359.5,-274.851 359.5,-293.851 423.5,-293.851 423.5,-274.851 359.5,-274.851"/>
<text text-anchor="middle" x="391.5" y="-281.851" font-family="Helvetica,sans-Serif" font-size="10.00">auxresume</text>
</a>
</g>
</g>
<!-- Node2&#45;&gt;Node3 -->
<g id="edge2" class="edge"><title>Node2&#45;&gt;Node3</title>
<path fill="none" stroke="midnightblue" d="M290.099,-277.281C312.142,-278.833 338.777,-280.709 359.074,-282.138"/>
<polygon fill="midnightblue" stroke="midnightblue" points="290.236,-273.782 280.014,-276.571 289.744,-280.765 290.236,-273.782"/>
</g>
<!-- Node4 -->
<g id="node4" class="node"><title>Node4</title>
<g id="a_node4"><a xlink:href="../../df/d2d/lcorolib_8c.html#a777abb20385a69ce4787f72bd90375a7" target="_top" xlink:title="luaB_auxwrap">
<polygon fill="none" stroke="black" points="490.5,-312.851 490.5,-331.851 570.5,-331.851 570.5,-312.851 490.5,-312.851"/>
<text text-anchor="middle" x="530.5" y="-319.851" font-family="Helvetica,sans-Serif" font-size="10.00">luaB_auxwrap</text>
</a>
</g>
</g>
<!-- Node3&#45;&gt;Node4 -->
<g id="edge3" class="edge"><title>Node3&#45;&gt;Node4</title>
<path fill="none" stroke="midnightblue" d="M433.227,-295.648C452.948,-301.118 476.367,-307.614 495.169,-312.829"/>
<polygon fill="midnightblue" stroke="midnightblue" points="434.159,-292.274 423.587,-292.974 432.288,-299.02 434.159,-292.274"/>
</g>
<!-- Node6 -->
<g id="node6" class="node"><title>Node6</title>
<g id="a_node6"><a xlink:href="../../df/d2d/lcorolib_8c.html#a76f5d80387eeb1c7d31eb5f9cb6c9392" target="_top" xlink:title="luaB_coresume">
<polygon fill="none" stroke="black" points="489.5,-274.851 489.5,-293.851 571.5,-293.851 571.5,-274.851 489.5,-274.851"/>
<text text-anchor="middle" x="530.5" y="-281.851" font-family="Helvetica,sans-Serif" font-size="10.00">luaB_coresume</text>
</a>
</g>
</g>
<!-- Node3&#45;&gt;Node6 -->
<g id="edge5" class="edge"><title>Node3&#45;&gt;Node6</title>
<path fill="none" stroke="midnightblue" d="M433.611,-284.351C451.284,-284.351 471.868,-284.351 489.424,-284.351"/>
<polygon fill="midnightblue" stroke="midnightblue" points="433.587,-280.851 423.587,-284.351 433.587,-287.851 433.587,-280.851"/>
</g>
<!-- Node5 -->
<g id="node5" class="node"><title>Node5</title>
<g id="a_node5"><a xlink:href="../../df/d2d/lcorolib_8c.html#a1c0429e27f504b08e25f437f733edad1" target="_top" xlink:title="luaB_cowrap">
<polygon fill="none" stroke="black" points="630,-312.851 630,-331.851 704,-331.851 704,-312.851 630,-312.851"/>
<text text-anchor="middle" x="667" y="-319.851" font-family="Helvetica,sans-Serif" font-size="10.00">luaB_cowrap</text>
</a>
</g>
</g>
<!-- Node4&#45;&gt;Node5 -->
<g id="edge4" class="edge"><title>Node4&#45;&gt;Node5</title>
<path fill="none" stroke="midnightblue" d="M581.09,-322.351C597.187,-322.351 614.736,-322.351 629.68,-322.351"/>
<polygon fill="midnightblue" stroke="midnightblue" points="580.765,-318.851 570.765,-322.351 580.764,-325.851 580.765,-318.851"/>
</g>
<!-- Node8 -->
<g id="node8" class="node"><title>Node8</title>
<g id="a_node8"><a xlink:href="../../da/dd2/lua_8h.html#a3c4de08aa665eaee4aabd330aa99a441" target="_top" xlink:title="lua_pcallk">
<polygon fill="none" stroke="black" points="218,-198.851 218,-217.851 277,-217.851 277,-198.851 218,-198.851"/>
<text text-anchor="middle" x="247.5" y="-205.851" font-family="Helvetica,sans-Serif" font-size="10.00">lua_pcallk</text>
</a>
</g>
</g>
<!-- Node7&#45;&gt;Node8 -->
<g id="edge7" class="edge"><title>Node7&#45;&gt;Node8</title>
<path fill="none" stroke="midnightblue" d="M168.072,-189.158C184.45,-193.166 203.02,-197.711 217.977,-201.371"/>
<polygon fill="midnightblue" stroke="midnightblue" points="168.755,-185.722 158.209,-186.744 167.091,-192.521 168.755,-185.722"/>
</g>
<!-- Node11 -->
<g id="node11" class="node"><title>Node11</title>
<g id="a_node11"><a xlink:href="../../d2/dd9/ldo_8h.html#a5dffa85d966f14d3f3464db580f5b3fa" target="_top" xlink:title="luaD_protectedparser">
<polygon fill="none" stroke="black" points="194,-160.851 194,-179.851 301,-179.851 301,-160.851 194,-160.851"/>
<text text-anchor="middle" x="247.5" y="-167.851" font-family="Helvetica,sans-Serif" font-size="10.00">luaD_protectedparser</text>
</a>
</g>
</g>
<!-- Node7&#45;&gt;Node11 -->
<g id="edge10" class="edge"><title>Node7&#45;&gt;Node11</title>
<path fill="none" stroke="midnightblue" d="M168.259,-176.294C176.465,-175.67 185.216,-175.006 193.781,-174.355"/>
<polygon fill="midnightblue" stroke="midnightblue" points="167.915,-172.81 158.209,-177.057 168.446,-179.789 167.915,-172.81"/>
</g>
<!-- Node17 -->
<g id="node17" class="node"><title>Node17</title>
<g id="a_node17"><a xlink:href="../../de/d27/lgc_8c.html#ab9ec6b56580b9e66f41743e393e7e033" target="_top" xlink:title="GCTM">
<polygon fill="none" stroke="black" points="224.5,-84.8512 224.5,-103.851 270.5,-103.851 270.5,-84.8512 224.5,-84.8512"/>
<text text-anchor="middle" x="247.5" y="-91.8512" font-family="Helvetica,sans-Serif" font-size="10.00">GCTM</text>
</a>
</g>
</g>
<!-- Node7&#45;&gt;Node17 -->
<g id="edge17" class="edge"><title>Node7&#45;&gt;Node17</title>
<path fill="none" stroke="midnightblue" d="M149.859,-163.672C174.208,-146.207 212.802,-118.523 233.065,-103.988"/>
<polygon fill="midnightblue" stroke="midnightblue" points="147.679,-160.928 141.593,-169.601 151.759,-166.616 147.679,-160.928"/>
</g>
<!-- Node9 -->
<g id="node9" class="node"><title>Node9</title>
<g id="a_node9"><a xlink:href="../../d8/dd3/lbaselib_8c.html#a1fb2725eed679431d070b2e9e7abc223" target="_top" xlink:title="luaB_pcall">
<polygon fill="none" stroke="black" points="361,-236.851 361,-255.851 422,-255.851 422,-236.851 361,-236.851"/>
<text text-anchor="middle" x="391.5" y="-243.851" font-family="Helvetica,sans-Serif" font-size="10.00">luaB_pcall</text>
</a>
</g>
</g>
<!-- Node8&#45;&gt;Node9 -->
<g id="edge8" class="edge"><title>Node8&#45;&gt;Node9</title>
<path fill="none" stroke="midnightblue" d="M287.112,-218.684C310.328,-224.897 339.423,-232.683 360.829,-238.411"/>
<polygon fill="midnightblue" stroke="midnightblue" points="287.801,-215.245 277.236,-216.041 285.991,-222.007 287.801,-215.245"/>
</g>
<!-- Node10 -->
<g id="node10" class="node"><title>Node10</title>
<g id="a_node10"><a xlink:href="../../d8/dd3/lbaselib_8c.html#a5fbb0094fa1a56f0a4c2547f1ec4c5ab" target="_top" xlink:title="luaB_xpcall">
<polygon fill="none" stroke="black" points="358.5,-198.851 358.5,-217.851 424.5,-217.851 424.5,-198.851 358.5,-198.851"/>
<text text-anchor="middle" x="391.5" y="-205.851" font-family="Helvetica,sans-Serif" font-size="10.00">luaB_xpcall</text>
</a>
</g>
</g>
<!-- Node8&#45;&gt;Node10 -->
<g id="edge9" class="edge"><title>Node8&#45;&gt;Node10</title>
<path fill="none" stroke="midnightblue" d="M287.373,-208.351C309.655,-208.351 337.287,-208.351 358.339,-208.351"/>
<polygon fill="midnightblue" stroke="midnightblue" points="287.236,-204.851 277.236,-208.351 287.236,-211.851 287.236,-204.851"/>
</g>
<!-- Node12 -->
<g id="node12" class="node"><title>Node12</title>
<g id="a_node12"><a xlink:href="../../da/dd2/lua_8h.html#a3f4c1ed5e0bd437dc527d62c5768b463" target="_top" xlink:title="lua_load">
<polygon fill="none" stroke="black" points="365,-160.851 365,-179.851 418,-179.851 418,-160.851 365,-160.851"/>
<text text-anchor="middle" x="391.5" y="-167.851" font-family="Helvetica,sans-Serif" font-size="10.00">lua_load</text>
</a>
</g>
</g>
<!-- Node11&#45;&gt;Node12 -->
<g id="edge11" class="edge"><title>Node11&#45;&gt;Node12</title>
<path fill="none" stroke="midnightblue" d="M311.386,-170.351C330.148,-170.351 349.675,-170.351 364.636,-170.351"/>
<polygon fill="midnightblue" stroke="midnightblue" points="311.376,-166.851 301.376,-170.351 311.376,-173.851 311.376,-166.851"/>
</g>
<!-- Node13 -->
<g id="node13" class="node"><title>Node13</title>
<g id="a_node13"><a xlink:href="../../da/d29/lauxlib_8h.html#a8c38c6dcf9db7e110e525b46742bacf8" target="_top" xlink:title="luaL_loadfilex">
<polygon fill="none" stroke="black" points="493.5,-217.851 493.5,-236.851 567.5,-236.851 567.5,-217.851 493.5,-217.851"/>
<text text-anchor="middle" x="530.5" y="-224.851" font-family="Helvetica,sans-Serif" font-size="10.00">luaL_loadfilex</text>
</a>
</g>
</g>
<!-- Node12&#45;&gt;Node13 -->
<g id="edge12" class="edge"><title>Node12&#45;&gt;Node13</title>
<path fill="none" stroke="midnightblue" d="M427.616,-182.003C433.802,-184.288 440.136,-186.779 446,-189.351 462.567,-196.62 465.578,-200.759 482,-208.351 489.094,-211.631 496.924,-214.901 504.146,-217.781"/>
<polygon fill="midnightblue" stroke="midnightblue" points="428.697,-178.673 418.103,-178.601 426.34,-185.264 428.697,-178.673"/>
</g>
<!-- Node15 -->
<g id="node15" class="node"><title>Node15</title>
<g id="a_node15"><a xlink:href="../../da/d29/lauxlib_8h.html#a3ab1955dd9322cf03e2d3626ebfae669" target="_top" xlink:title="luaL_loadbufferx">
<polygon fill="none" stroke="black" points="487.5,-179.851 487.5,-198.851 573.5,-198.851 573.5,-179.851 487.5,-179.851"/>
<text text-anchor="middle" x="530.5" y="-186.851" font-family="Helvetica,sans-Serif" font-size="10.00">luaL_loadbufferx</text>
</a>
</g>
</g>
<!-- Node12&#45;&gt;Node15 -->
<g id="edge14" class="edge"><title>Node12&#45;&gt;Node15</title>
<path fill="none" stroke="midnightblue" d="M428.409,-175.331C446.498,-177.84 468.542,-180.897 487.422,-183.516"/>
<polygon fill="midnightblue" stroke="midnightblue" points="428.655,-171.832 418.269,-173.925 427.693,-178.766 428.655,-171.832"/>
</g>
<!-- Node16 -->
<g id="node16" class="node"><title>Node16</title>
<g id="a_node16"><a xlink:href="../../d8/dd3/lbaselib_8c.html#a4a9a3613fcf80fe033e044f7e19bed69" target="_top" xlink:title="luaB_load">
<polygon fill="none" stroke="black" points="637.5,-179.851 637.5,-198.851 696.5,-198.851 696.5,-179.851 637.5,-179.851"/>
<text text-anchor="middle" x="667" y="-186.851" font-family="Helvetica,sans-Serif" font-size="10.00">luaB_load</text>
</a>
</g>
</g>
<!-- Node12&#45;&gt;Node16 -->
<g id="edge16" class="edge"><title>Node12&#45;&gt;Node16</title>
<path fill="none" stroke="midnightblue" d="M428.688,-168.059C466.354,-166.21 526.994,-164.739 579,-170.351 598.675,-172.475 620.425,-177.225 637.256,-181.444"/>
<polygon fill="midnightblue" stroke="midnightblue" points="428.037,-164.589 418.236,-168.612 428.407,-171.579 428.037,-164.589"/>
</g>
<!-- Node14 -->
<g id="node14" class="node"><title>Node14</title>
<g id="a_node14"><a xlink:href="../../d8/dd3/lbaselib_8c.html#aeb4cb83db820979bbdd7710109b52957" target="_top" xlink:title="luaB_loadfile">
<polygon fill="none" stroke="black" points="632,-217.851 632,-236.851 702,-236.851 702,-217.851 632,-217.851"/>
<text text-anchor="middle" x="667" y="-224.851" font-family="Helvetica,sans-Serif" font-size="10.00">luaB_loadfile</text>
</a>
</g>
</g>
<!-- Node13&#45;&gt;Node14 -->
<g id="edge13" class="edge"><title>Node13&#45;&gt;Node14</title>
<path fill="none" stroke="midnightblue" d="M577.684,-227.351C595.406,-227.351 615.299,-227.351 631.712,-227.351"/>
<polygon fill="midnightblue" stroke="midnightblue" points="577.544,-223.851 567.544,-227.351 577.543,-230.851 577.544,-223.851"/>
</g>
<!-- Node15&#45;&gt;Node16 -->
<g id="edge15" class="edge"><title>Node15&#45;&gt;Node16</title>
<path fill="none" stroke="midnightblue" d="M583.852,-189.351C601.976,-189.351 621.621,-189.351 637.154,-189.351"/>
<polygon fill="midnightblue" stroke="midnightblue" points="583.688,-185.851 573.688,-189.351 583.688,-192.851 583.688,-185.851"/>
</g>
<!-- Node18 -->
<g id="node18" class="node"><title>Node18</title>
<g id="a_node18"><a xlink:href="../../de/d27/lgc_8c.html#a74f50e6006422d43686521fe765152dd" target="_top" xlink:title="callallpendingfinalizers">
<polygon fill="none" stroke="black" points="337,-84.8512 337,-103.851 446,-103.851 446,-84.8512 337,-84.8512"/>
<text text-anchor="middle" x="391.5" y="-91.8512" font-family="Helvetica,sans-Serif" font-size="10.00">callallpendingfinalizers</text>
</a>
</g>
</g>
<!-- Node17&#45;&gt;Node18 -->
<g id="edge18" class="edge"><title>Node17&#45;&gt;Node18</title>
<path fill="none" stroke="midnightblue" d="M280.932,-94.3512C297.495,-94.3512 318.078,-94.3512 336.917,-94.3512"/>
<polygon fill="midnightblue" stroke="midnightblue" points="280.688,-90.8513 270.688,-94.3512 280.687,-97.8513 280.688,-90.8513"/>
</g>
<!-- Node36 -->
<g id="node36" class="node"><title>Node36</title>
<g id="a_node36"><a xlink:href="../../dc/d9c/lgc_8h.html#a19359957605d7c8eaf70803e5b77361f" target="_top" xlink:title="luaC_forcestep">
<polygon fill="none" stroke="black" points="755,-65.8512 755,-84.8512 835,-84.8512 835,-65.8512 755,-65.8512"/>
<text text-anchor="middle" x="795" y="-72.8512" font-family="Helvetica,sans-Serif" font-size="10.00">luaC_forcestep</text>
</a>
</g>
</g>
<!-- Node17&#45;&gt;Node36 -->
<g id="edge42" class="edge"><title>Node17&#45;&gt;Node36</title>
<path fill="none" stroke="midnightblue" d="M277.106,-80.4398C351.72,-46.1164 557.656,36.0016 719,-18.3512 746.898,-27.7493 772.643,-52.1113 785.471,-65.7479"/>
<polygon fill="midnightblue" stroke="midnightblue" points="275.445,-77.353 267.867,-84.7572 278.408,-83.6948 275.445,-77.353"/>
</g>
<!-- Node19 -->
<g id="node19" class="node"><title>Node19</title>
<g id="a_node19"><a xlink:href="../../dc/d9c/lgc_8h.html#a9aa52a500c9cc2076edb1707e6d8a045" target="_top" xlink:title="luaC_freeallobjects">
<polygon fill="none" stroke="black" points="482,-103.851 482,-122.851 579,-122.851 579,-103.851 482,-103.851"/>
<text text-anchor="middle" x="530.5" y="-110.851" font-family="Helvetica,sans-Serif" font-size="10.00">luaC_freeallobjects</text>
</a>
</g>
</g>
<!-- Node18&#45;&gt;Node19 -->
<g id="edge19" class="edge"><title>Node18&#45;&gt;Node19</title>
<path fill="none" stroke="midnightblue" d="M456.23,-103.19C464.797,-104.378 473.463,-105.58 481.689,-106.721"/>
<polygon fill="midnightblue" stroke="midnightblue" points="456.639,-99.713 446.253,-101.806 455.677,-106.647 456.639,-99.713"/>
</g>
<!-- Node32 -->
<g id="node32" class="node"><title>Node32</title>
<g id="a_node32"><a xlink:href="../../dc/d9c/lgc_8h.html#aa0b753c3ed80e1eed0379ec58592c404" target="_top" xlink:title="luaC_fullgc">
<polygon fill="none" stroke="black" points="499.5,-65.8512 499.5,-84.8512 561.5,-84.8512 561.5,-65.8512 499.5,-65.8512"/>
<text text-anchor="middle" x="530.5" y="-72.8512" font-family="Helvetica,sans-Serif" font-size="10.00">luaC_fullgc</text>
</a>
</g>
</g>
<!-- Node18&#45;&gt;Node32 -->
<g id="edge34" class="edge"><title>Node18&#45;&gt;Node32</title>
<path fill="none" stroke="midnightblue" d="M456.488,-85.477C471.389,-83.4104 486.576,-81.3042 499.212,-79.5518"/>
<polygon fill="midnightblue" stroke="midnightblue" points="455.677,-82.0559 446.253,-86.8965 456.639,-88.9895 455.677,-82.0559"/>
</g>
<!-- Node20 -->
<g id="node20" class="node"><title>Node20</title>
<g id="a_node20"><a xlink:href="../../dd/dca/lstate_8c.html#a4940327dfa3b86df0ef008180bb3fcb3" target="_top" xlink:title="close_state">
<polygon fill="none" stroke="black" points="634.5,-141.851 634.5,-160.851 699.5,-160.851 699.5,-141.851 634.5,-141.851"/>
<text text-anchor="middle" x="667" y="-148.851" font-family="Helvetica,sans-Serif" font-size="10.00">close_state</text>
</a>
</g>
</g>
<!-- Node19&#45;&gt;Node20 -->
<g id="edge20" class="edge"><title>Node19&#45;&gt;Node20</title>
<path fill="none" stroke="midnightblue" d="M575.215,-125.702C594.5,-131.151 616.74,-137.434 634.381,-142.418"/>
<polygon fill="midnightblue" stroke="midnightblue" points="576.015,-122.291 565.44,-122.94 574.112,-129.027 576.015,-122.291"/>
</g>
<!-- Node21 -->
<g id="node21" class="node"><title>Node21</title>
<g id="a_node21"><a xlink:href="../../da/dd2/lua_8h.html#af722e4ac7fc0eba5920f59f0162c1b97" target="_top" xlink:title="lua_newstate">
<polygon fill="none" stroke="black" points="758,-179.851 758,-198.851 832,-198.851 832,-179.851 758,-179.851"/>
<text text-anchor="middle" x="795" y="-186.851" font-family="Helvetica,sans-Serif" font-size="10.00">lua_newstate</text>
</a>
</g>
</g>
<!-- Node20&#45;&gt;Node21 -->
<g id="edge21" class="edge"><title>Node20&#45;&gt;Node21</title>
<path fill="none" stroke="midnightblue" d="M709.564,-163.887C726.705,-169.056 746.25,-174.95 762.215,-179.765"/>
<polygon fill="midnightblue" stroke="midnightblue" points="710.38,-160.477 699.795,-160.94 708.359,-167.179 710.38,-160.477"/>
</g>
<!-- Node30 -->
<g id="node30" class="node"><title>Node30</title>
<g id="a_node30"><a xlink:href="../../da/dd2/lua_8h.html#afe030a97e84f24dfab3afb598faa2fff" target="_top" xlink:title="lua_close">
<polygon fill="none" stroke="black" points="767,-141.851 767,-160.851 823,-160.851 823,-141.851 767,-141.851"/>
<text text-anchor="middle" x="795" y="-148.851" font-family="Helvetica,sans-Serif" font-size="10.00">lua_close</text>
</a>
</g>
</g>
<!-- Node20&#45;&gt;Node30 -->
<g id="edge32" class="edge"><title>Node20&#45;&gt;Node30</title>
<path fill="none" stroke="midnightblue" d="M709.891,-151.351C728.678,-151.351 750.297,-151.351 766.912,-151.351"/>
<polygon fill="midnightblue" stroke="midnightblue" points="709.795,-147.851 699.795,-151.351 709.795,-154.851 709.795,-147.851"/>
</g>
<!-- Node22 -->
<g id="node22" class="node"><title>Node22</title>
<g id="a_node22"><a xlink:href="../../da/d29/lauxlib_8h.html#a7d8712fcede90ae93d5a9a7b409c586e" target="_top" xlink:title="luaL_newstate">
<polygon fill="none" stroke="black" points="871,-217.851 871,-236.851 951,-236.851 951,-217.851 871,-217.851"/>
<text text-anchor="middle" x="911" y="-224.851" font-family="Helvetica,sans-Serif" font-size="10.00">luaL_newstate</text>
</a>
</g>
</g>
<!-- Node21&#45;&gt;Node22 -->
<g id="edge22" class="edge"><title>Node21&#45;&gt;Node22</title>
<path fill="none" stroke="midnightblue" d="M834.478,-202.177C849.774,-207.276 867.067,-213.04 881.242,-217.765"/>
<polygon fill="midnightblue" stroke="midnightblue" points="835.361,-198.782 824.767,-198.94 833.147,-205.423 835.361,-198.782"/>
</g>
<!-- Node29 -->
<g id="node29" class="node"><title>Node29</title>
<g id="a_node29"><a xlink:href="../../dd/dca/lstate_8c.html#a8a0fc0aca5367250347c6bb6a788f05f" target="_top" xlink:title="makeseed">
<polygon fill="none" stroke="black" points="880.5,-179.851 880.5,-198.851 941.5,-198.851 941.5,-179.851 880.5,-179.851"/>
<text text-anchor="middle" x="911" y="-186.851" font-family="Helvetica,sans-Serif" font-size="10.00">makeseed</text>
</a>
</g>
</g>
<!-- Node21&#45;&gt;Node29 -->
<g id="edge30" class="edge"><title>Node21&#45;&gt;Node29</title>
<path fill="none" stroke="midnightblue" d="M842.163,-182.711C855.018,-182.448 868.636,-182.658 880.271,-183.341"/>
<polygon fill="midnightblue" stroke="midnightblue" points="841.957,-179.215 832.07,-183.023 842.174,-186.212 841.957,-179.215"/>
</g>
<!-- Node23 -->
<g id="node23" class="node"><title>Node23</title>
<g id="a_node23"><a xlink:href="../../dc/de7/interface_kensho_lua_wrapper.html#a7d10aa0242861cdd109d3da9383882a2" target="_top" xlink:title="&#45;[KenshoLuaWrapper\l evaluate]">
<polygon fill="none" stroke="black" points="987,-212.351 987,-242.351 1096,-242.351 1096,-212.351 987,-212.351"/>
<text text-anchor="start" x="995" y="-230.351" font-family="Helvetica,sans-Serif" font-size="10.00">&#45;[KenshoLuaWrapper</text>
<text text-anchor="middle" x="1041.5" y="-219.351" font-family="Helvetica,sans-Serif" font-size="10.00"> evaluate]</text>
</a>
</g>
</g>
<!-- Node22&#45;&gt;Node23 -->
<g id="edge23" class="edge"><title>Node22&#45;&gt;Node23</title>
<path fill="none" stroke="midnightblue" d="M961.518,-227.351C969.804,-227.351 978.435,-227.351 986.819,-227.351"/>
<polygon fill="midnightblue" stroke="midnightblue" points="961.252,-223.851 951.252,-227.351 961.252,-230.851 961.252,-223.851"/>
</g>
<!-- Node24 -->
<g id="node24" class="node"><title>Node24</title>
<g id="a_node24"><a xlink:href="../../dc/de7/interface_kensho_lua_wrapper.html#af6db46358f8858a18b55388aa3af211d" target="_top" xlink:title="&#45;[KenshoLuaWrapper\l initWithKensho:context\l:code:]">
<polygon fill="none" stroke="black" points="1132,-261.851 1132,-302.851 1246,-302.851 1246,-261.851 1132,-261.851"/>
<text text-anchor="start" x="1140" y="-290.851" font-family="Helvetica,sans-Serif" font-size="10.00">&#45;[KenshoLuaWrapper</text>
<text text-anchor="start" x="1140" y="-279.851" font-family="Helvetica,sans-Serif" font-size="10.00"> initWithKensho:context</text>
<text text-anchor="middle" x="1189" y="-268.851" font-family="Helvetica,sans-Serif" font-size="10.00">:code:]</text>
</a>
</g>
</g>
<!-- Node23&#45;&gt;Node24 -->
<g id="edge24" class="edge"><title>Node23&#45;&gt;Node24</title>
<path fill="none" stroke="midnightblue" d="M1091.8,-245.987C1105.23,-251.065 1119.86,-256.594 1133.56,-261.774"/>
<polygon fill="midnightblue" stroke="midnightblue" points="1092.85,-242.642 1082.26,-242.38 1090.37,-249.19 1092.85,-242.642"/>
</g>
<!-- Node25 -->
<g id="node25" class="node"><title>Node25</title>
<g id="a_node25"><a xlink:href="../../dc/de7/interface_kensho_lua_wrapper.html#a5555e0979799446611baee70104555c6" target="_top" xlink:title="&#45;[KenshoLuaWrapper\l evaluate:]">
<polygon fill="none" stroke="black" points="1134.5,-212.351 1134.5,-242.351 1243.5,-242.351 1243.5,-212.351 1134.5,-212.351"/>
<text text-anchor="start" x="1142.5" y="-230.351" font-family="Helvetica,sans-Serif" font-size="10.00">&#45;[KenshoLuaWrapper</text>
<text text-anchor="middle" x="1189" y="-219.351" font-family="Helvetica,sans-Serif" font-size="10.00"> evaluate:]</text>
</a>
</g>
</g>
<!-- Node23&#45;&gt;Node25 -->
<g id="edge25" class="edge"><title>Node23&#45;&gt;Node25</title>
<path fill="none" stroke="midnightblue" d="M1106.34,-227.351C1115.72,-227.351 1125.31,-227.351 1134.46,-227.351"/>
<polygon fill="midnightblue" stroke="midnightblue" points="1106.27,-223.851 1096.27,-227.351 1106.27,-230.851 1106.27,-223.851"/>
</g>
<!-- Node28 -->
<g id="node28" class="node"><title>Node28</title>
<g id="a_node28"><a xlink:href="../../dc/de7/interface_kensho_lua_wrapper.html#a0bb5e125d727942726d707f8b59009dc" target="_top" xlink:title="&#45;[KenshoLuaWrapper\l observableUpdated:]">
<polygon fill="none" stroke="black" points="1134.5,-163.351 1134.5,-193.351 1243.5,-193.351 1243.5,-163.351 1134.5,-163.351"/>
<text text-anchor="start" x="1142.5" y="-181.351" font-family="Helvetica,sans-Serif" font-size="10.00">&#45;[KenshoLuaWrapper</text>
<text text-anchor="middle" x="1189" y="-170.351" font-family="Helvetica,sans-Serif" font-size="10.00"> observableUpdated:]</text>
</a>
</g>
</g>
<!-- Node23&#45;&gt;Node28 -->
<g id="edge29" class="edge"><title>Node23&#45;&gt;Node28</title>
<path fill="none" stroke="midnightblue" d="M1097.15,-208.946C1112.38,-203.819 1128.73,-198.312 1143.31,-193.403"/>
<polygon fill="midnightblue" stroke="midnightblue" points="1095.7,-205.741 1087.34,-212.25 1097.94,-212.375 1095.7,-205.741"/>
</g>
<!-- Node26 -->
<g id="node26" class="node"><title>Node26</title>
<g id="a_node26"><a xlink:href="../../da/d0b/interface_kensho.html#a07b4d14db676108e1a94a1f10e100fb4" target="_top" xlink:title="&#45;[Kensho bindToView\l:context:]">
<polygon fill="none" stroke="black" points="1282,-212.351 1282,-242.351 1390,-242.351 1390,-212.351 1282,-212.351"/>
<text text-anchor="start" x="1290" y="-230.351" font-family="Helvetica,sans-Serif" font-size="10.00">&#45;[Kensho bindToView</text>
<text text-anchor="middle" x="1336" y="-219.351" font-family="Helvetica,sans-Serif" font-size="10.00">:context:]</text>
</a>
</g>
</g>
<!-- Node25&#45;&gt;Node26 -->
<g id="edge26" class="edge"><title>Node25&#45;&gt;Node26</title>
<path fill="none" stroke="midnightblue" d="M1253.62,-227.351C1262.97,-227.351 1272.52,-227.351 1281.64,-227.351"/>
<polygon fill="midnightblue" stroke="midnightblue" points="1253.58,-223.851 1243.58,-227.351 1253.58,-230.851 1253.58,-223.851"/>
</g>
<!-- Node26&#45;&gt;Node26 -->
<g id="edge28" class="edge"><title>Node26&#45;&gt;Node26</title>
<path fill="none" stroke="midnightblue" d="M1310.06,-252.809C1313.28,-257.53 1321.92,-260.851 1336,-260.851 1359.1,-260.851 1367.58,-251.908 1361.44,-242.51"/>
<polygon fill="midnightblue" stroke="midnightblue" points="1313.57,-252.668 1310.56,-242.51 1306.58,-252.329 1313.57,-252.668"/>
</g>
<!-- Node27 -->
<g id="node27" class="node"><title>Node27</title>
<g id="a_node27"><a xlink:href="../../da/d0b/interface_kensho.html#a1019e8223ee907bab87501ae483e609f" target="_top" xlink:title="&#45;[Kensho applyBindings\l:viewModel:]">
<polygon fill="none" stroke="black" points="1426,-212.351 1426,-242.351 1545,-242.351 1545,-212.351 1426,-212.351"/>
<text text-anchor="start" x="1434" y="-230.351" font-family="Helvetica,sans-Serif" font-size="10.00">&#45;[Kensho applyBindings</text>
<text text-anchor="middle" x="1485.5" y="-219.351" font-family="Helvetica,sans-Serif" font-size="10.00">:viewModel:]</text>
</a>
</g>
</g>
<!-- Node26&#45;&gt;Node27 -->
<g id="edge27" class="edge"><title>Node26&#45;&gt;Node27</title>
<path fill="none" stroke="midnightblue" d="M1400.42,-227.351C1408.86,-227.351 1417.48,-227.351 1425.83,-227.351"/>
<polygon fill="midnightblue" stroke="midnightblue" points="1400.25,-223.851 1390.25,-227.351 1400.25,-230.851 1400.25,-223.851"/>
</g>
<!-- Node29&#45;&gt;Node21 -->
<g id="edge31" class="edge"><title>Node29&#45;&gt;Node21</title>
<path fill="none" stroke="midnightblue" d="M870.196,-195.82C857.796,-196.237 844.199,-196.19 832.07,-195.679"/>
<polygon fill="midnightblue" stroke="midnightblue" points="870.441,-199.313 880.271,-195.361 870.122,-192.32 870.441,-199.313"/>
</g>
<!-- Node31 -->
<g id="node31" class="node"><title>Node31</title>
<g id="a_node31"><a xlink:href="../../dc/dba/loslib_8c.html#a905e81425fe3d6d0b363c10162a2a37b" target="_top" xlink:title="os_exit">
<polygon fill="none" stroke="black" points="887.5,-141.851 887.5,-160.851 934.5,-160.851 934.5,-141.851 887.5,-141.851"/>
<text text-anchor="middle" x="911" y="-148.851" font-family="Helvetica,sans-Serif" font-size="10.00">os_exit</text>
</a>
</g>
</g>
<!-- Node30&#45;&gt;Node31 -->
<g id="edge33" class="edge"><title>Node30&#45;&gt;Node31</title>
<path fill="none" stroke="midnightblue" d="M833.145,-151.351C851.042,-151.351 871.922,-151.351 887.399,-151.351"/>
<polygon fill="midnightblue" stroke="midnightblue" points="833.016,-147.851 823.016,-151.351 833.016,-154.851 833.016,-147.851"/>
</g>
<!-- Node33 -->
<g id="node33" class="node"><title>Node33</title>
<g id="a_node33"><a xlink:href="../../da/dd2/lua_8h.html#a6bac487d3f900b21271e8c591bd801cd" target="_top" xlink:title="lua_gc">
<polygon fill="none" stroke="black" points="889,-103.851 889,-122.851 933,-122.851 933,-103.851 889,-103.851"/>
<text text-anchor="middle" x="911" y="-110.851" font-family="Helvetica,sans-Serif" font-size="10.00">lua_gc</text>
</a>
</g>
</g>
<!-- Node32&#45;&gt;Node33 -->
<g id="edge35" class="edge"><title>Node32&#45;&gt;Node33</title>
<path fill="none" stroke="midnightblue" d="M571.849,-85.897C585.468,-89.0907 600.813,-92.2937 615,-94.3512 716.834,-109.12 840.11,-112.41 888.775,-113.142"/>
<polygon fill="midnightblue" stroke="midnightblue" points="572.361,-82.4202 561.819,-83.4757 570.718,-89.2247 572.361,-82.4202"/>
</g>
<!-- Node35 -->
<g id="node35" class="node"><title>Node35</title>
<g id="a_node35"><a xlink:href="../../de/d27/lgc_8c.html#a87bb9d2ca4bed013c39258f8abd61689" target="_top" xlink:title="generationalcollection">
<polygon fill="none" stroke="black" points="615,-65.8512 615,-84.8512 719,-84.8512 719,-65.8512 615,-65.8512"/>
<text text-anchor="middle" x="667" y="-72.8512" font-family="Helvetica,sans-Serif" font-size="10.00">generationalcollection</text>
</a>
</g>
</g>
<!-- Node32&#45;&gt;Node35 -->
<g id="edge37" class="edge"><title>Node32&#45;&gt;Node35</title>
<path fill="none" stroke="midnightblue" d="M572.053,-75.3512C585.5,-75.3512 600.648,-75.3512 614.79,-75.3512"/>
<polygon fill="midnightblue" stroke="midnightblue" points="571.684,-71.8513 561.684,-75.3512 571.684,-78.8513 571.684,-71.8513"/>
</g>
<!-- Node38 -->
<g id="node38" class="node"><title>Node38</title>
<g id="a_node38"><a xlink:href="../../d7/d3e/lmem_8h.html#ae7dc8a57fc5dbca825653a88a356a72d" target="_top" xlink:title="luaM_realloc_">
<polygon fill="none" stroke="black" points="630,-27.8512 630,-46.8512 704,-46.8512 704,-27.8512 630,-27.8512"/>
<text text-anchor="middle" x="667" y="-34.8512" font-family="Helvetica,sans-Serif" font-size="10.00">luaM_realloc_</text>
</a>
</g>
</g>
<!-- Node32&#45;&gt;Node38 -->
<g id="edge41" class="edge"><title>Node32&#45;&gt;Node38</title>
<path fill="none" stroke="midnightblue" d="M571.413,-64.0746C590.732,-58.6164 613.679,-52.1335 632.132,-46.9199"/>
<polygon fill="midnightblue" stroke="midnightblue" points="570.356,-60.7362 561.684,-66.8233 572.259,-67.4725 570.356,-60.7362"/>
</g>
<!-- Node34 -->
<g id="node34" class="node"><title>Node34</title>
<g id="a_node34"><a xlink:href="../../d8/dd3/lbaselib_8c.html#a07f71966c943cc9761ab129f64d4ac80" target="_top" xlink:title="luaB_collectgarbage">
<polygon fill="none" stroke="black" points="990.5,-103.851 990.5,-122.851 1092.5,-122.851 1092.5,-103.851 990.5,-103.851"/>
<text text-anchor="middle" x="1041.5" y="-110.851" font-family="Helvetica,sans-Serif" font-size="10.00">luaB_collectgarbage</text>
</a>
</g>
</g>
<!-- Node33&#45;&gt;Node34 -->
<g id="edge36" class="edge"><title>Node33&#45;&gt;Node34</title>
<path fill="none" stroke="midnightblue" d="M943.39,-113.351C957.519,-113.351 974.549,-113.351 990.376,-113.351"/>
<polygon fill="midnightblue" stroke="midnightblue" points="943.219,-109.851 933.219,-113.351 943.219,-116.851 943.219,-109.851"/>
</g>
<!-- Node35&#45;&gt;Node36 -->
<g id="edge38" class="edge"><title>Node35&#45;&gt;Node36</title>
<path fill="none" stroke="midnightblue" d="M729.349,-75.3512C738.003,-75.3512 746.698,-75.3512 754.78,-75.3512"/>
<polygon fill="midnightblue" stroke="midnightblue" points="729.249,-71.8513 719.249,-75.3512 729.249,-78.8513 729.249,-71.8513"/>
</g>
<!-- Node36&#45;&gt;Node33 -->
<g id="edge39" class="edge"><title>Node36&#45;&gt;Node33</title>
<path fill="none" stroke="midnightblue" d="M834.501,-88.185C852.639,-94.2309 873.58,-101.211 888.8,-106.284"/>
<polygon fill="midnightblue" stroke="midnightblue" points="835.361,-84.7822 824.767,-84.9403 833.147,-91.423 835.361,-84.7822"/>
</g>
<!-- Node37 -->
<g id="node37" class="node"><title>Node37</title>
<g id="a_node37"><a xlink:href="../../dc/d9c/lgc_8h.html#a6c71cc4b9e503c0e96c0c4ffcff93900" target="_top" xlink:title="luaC_step">
<polygon fill="none" stroke="black" points="880.5,-65.8512 880.5,-84.8512 941.5,-84.8512 941.5,-65.8512 880.5,-65.8512"/>
<text text-anchor="middle" x="911" y="-72.8512" font-family="Helvetica,sans-Serif" font-size="10.00">luaC_step</text>
</a>
</g>
</g>
<!-- Node36&#45;&gt;Node37 -->
<g id="edge40" class="edge"><title>Node36&#45;&gt;Node37</title>
<path fill="none" stroke="midnightblue" d="M845.521,-75.3512C857.42,-75.3512 869.761,-75.3512 880.422,-75.3512"/>
<polygon fill="midnightblue" stroke="midnightblue" points="845.232,-71.8513 835.232,-75.3512 845.232,-78.8513 845.232,-71.8513"/>
</g>
<!-- Node39&#45;&gt;Node2 -->
<g id="edge44" class="edge"><title>Node39&#45;&gt;Node2</title>
<path fill="none" stroke="midnightblue" d="M160.414,-246.746C178.034,-252.396 199.669,-259.334 216.841,-264.84"/>
<polygon fill="midnightblue" stroke="midnightblue" points="161.159,-243.309 150.568,-243.588 159.021,-249.975 161.159,-243.309"/>
</g>
</g>
</svg>
