<?xml version="1.0" encoding="UTF-8" standalone="no"?>
<!DOCTYPE svg PUBLIC "-//W3C//DTD SVG 1.1//EN"
 "http://www.w3.org/Graphics/SVG/1.1/DTD/svg11.dtd">
<!-- Generated by graphviz version 2.38.0 (20140413.2041)
 -->
<!-- Title: luaC_runtilstate Pages: 1 -->
<svg width="1265pt" height="596pt"
 viewBox="0.00 0.00 1265.00 595.50" xmlns="http://www.w3.org/2000/svg" xmlns:xlink="http://www.w3.org/1999/xlink">
<g id="graph0" class="graph" transform="scale(1 1) rotate(0) translate(4 591.5)">
<title>luaC_runtilstate</title>
<!-- Node1 -->
<g id="node1" class="node"><title>Node1</title>
<polygon fill="#bfbfbf" stroke="black" points="0,-464 0,-483 81,-483 81,-464 0,-464"/>
<text text-anchor="middle" x="40.5" y="-471" font-family="Helvetica,sans-Serif" font-size="10.00">luaC_runtilstate</text>
</g>
<!-- Node2 -->
<g id="node2" class="node"><title>Node2</title>
<g id="a_node2"><a xlink:href="../../de/d27/lgc_8c.html#a87bb9d2ca4bed013c39258f8abd61689" target="_top" xlink:title="generationalcollection">
<polygon fill="none" stroke="black" points="250,-464 250,-483 354,-483 354,-464 250,-464"/>
<text text-anchor="middle" x="302" y="-471" font-family="Helvetica,sans-Serif" font-size="10.00">generationalcollection</text>
</a>
</g>
</g>
<!-- Node1&#45;&gt;Node2 -->
<g id="edge1" class="edge"><title>Node1&#45;&gt;Node2</title>
<path fill="none" stroke="midnightblue" d="M91.413,-473.5C136.892,-473.5 203.778,-473.5 249.689,-473.5"/>
<polygon fill="midnightblue" stroke="midnightblue" points="91.195,-470 81.1949,-473.5 91.1949,-477 91.195,-470"/>
</g>
<!-- Node7 -->
<g id="node7" class="node"><title>Node7</title>
<g id="a_node7"><a xlink:href="../../dc/d9c/lgc_8h.html#af016fe72ab7e564d7d55e7e4fb659041" target="_top" xlink:title="luaC_changemode">
<polygon fill="none" stroke="black" points="117,-559 117,-578 214,-578 214,-559 117,-559"/>
<text text-anchor="middle" x="165.5" y="-566" font-family="Helvetica,sans-Serif" font-size="10.00">luaC_changemode</text>
</a>
</g>
</g>
<!-- Node1&#45;&gt;Node7 -->
<g id="edge6" class="edge"><title>Node1&#45;&gt;Node7</title>
<path fill="none" stroke="midnightblue" d="M62.1965,-489.485C87.9026,-509.339 130.939,-542.579 152.052,-558.886"/>
<polygon fill="midnightblue" stroke="midnightblue" points="64.2536,-486.652 54.1999,-483.309 59.9747,-492.192 64.2536,-486.652"/>
</g>
<!-- Node8 -->
<g id="node8" class="node"><title>Node8</title>
<g id="a_node8"><a xlink:href="../../dc/d9c/lgc_8h.html#aa0b753c3ed80e1eed0379ec58592c404" target="_top" xlink:title="luaC_fullgc">
<polygon fill="none" stroke="black" points="134.5,-502 134.5,-521 196.5,-521 196.5,-502 134.5,-502"/>
<text text-anchor="middle" x="165.5" y="-509" font-family="Helvetica,sans-Serif" font-size="10.00">luaC_fullgc</text>
</a>
</g>
</g>
<!-- Node1&#45;&gt;Node8 -->
<g id="edge8" class="edge"><title>Node1&#45;&gt;Node8</title>
<path fill="none" stroke="midnightblue" d="M82.2253,-486.082C99.2277,-491.335 118.631,-497.329 134.322,-502.177"/>
<polygon fill="midnightblue" stroke="midnightblue" points="83.1257,-482.697 72.5381,-483.089 81.0594,-489.385 83.1257,-482.697"/>
</g>
<!-- Node10 -->
<g id="node10" class="node"><title>Node10</title>
<g id="a_node10"><a xlink:href="../../d4/dfb/lstring_8h.html#a44d549eb0ace165927a896f37330e2cd" target="_top" xlink:title="luaS_resize">
<polygon fill="none" stroke="black" points="132.5,-360 132.5,-379 198.5,-379 198.5,-360 132.5,-360"/>
<text text-anchor="middle" x="165.5" y="-367" font-family="Helvetica,sans-Serif" font-size="10.00">luaS_resize</text>
</a>
</g>
</g>
<!-- Node1&#45;&gt;Node10 -->
<g id="edge12" class="edge"><title>Node1&#45;&gt;Node10</title>
<path fill="none" stroke="midnightblue" d="M60.5197,-457.418C86.4425,-435.5 132.054,-396.934 153.176,-379.074"/>
<polygon fill="midnightblue" stroke="midnightblue" points="58.2275,-454.773 52.8511,-463.902 62.7472,-460.118 58.2275,-454.773"/>
</g>
<!-- Node3 -->
<g id="node3" class="node"><title>Node3</title>
<g id="a_node3"><a xlink:href="../../dc/d9c/lgc_8h.html#a19359957605d7c8eaf70803e5b77361f" target="_top" xlink:title="luaC_forcestep">
<polygon fill="none" stroke="black" points="630.5,-502 630.5,-521 710.5,-521 710.5,-502 630.5,-502"/>
<text text-anchor="middle" x="670.5" y="-509" font-family="Helvetica,sans-Serif" font-size="10.00">luaC_forcestep</text>
</a>
</g>
</g>
<!-- Node2&#45;&gt;Node3 -->
<g id="edge2" class="edge"><title>Node2&#45;&gt;Node3</title>
<path fill="none" stroke="midnightblue" d="M364.687,-479.896C440.432,-487.749 566.655,-500.837 630.284,-507.434"/>
<polygon fill="midnightblue" stroke="midnightblue" points="364.654,-476.374 354.346,-478.824 363.932,-483.336 364.654,-476.374"/>
</g>
<!-- Node4 -->
<g id="node4" class="node"><title>Node4</title>
<g id="a_node4"><a xlink:href="../../da/dd2/lua_8h.html#a6bac487d3f900b21271e8c591bd801cd" target="_top" xlink:title="lua_gc">
<polygon fill="none" stroke="black" points="796,-540 796,-559 840,-559 840,-540 796,-540"/>
<text text-anchor="middle" x="818" y="-547" font-family="Helvetica,sans-Serif" font-size="10.00">lua_gc</text>
</a>
</g>
</g>
<!-- Node3&#45;&gt;Node4 -->
<g id="edge3" class="edge"><title>Node3&#45;&gt;Node4</title>
<path fill="none" stroke="midnightblue" d="M717.923,-523.624C744.005,-530.436 775.306,-538.611 795.648,-543.924"/>
<polygon fill="midnightblue" stroke="midnightblue" points="718.776,-520.23 708.216,-521.089 717.007,-527.002 718.776,-520.23"/>
</g>
<!-- Node6 -->
<g id="node6" class="node"><title>Node6</title>
<g id="a_node6"><a xlink:href="../../dc/d9c/lgc_8h.html#a6c71cc4b9e503c0e96c0c4ffcff93900" target="_top" xlink:title="luaC_step">
<polygon fill="none" stroke="black" points="787.5,-502 787.5,-521 848.5,-521 848.5,-502 787.5,-502"/>
<text text-anchor="middle" x="818" y="-509" font-family="Helvetica,sans-Serif" font-size="10.00">luaC_step</text>
</a>
</g>
</g>
<!-- Node3&#45;&gt;Node6 -->
<g id="edge5" class="edge"><title>Node3&#45;&gt;Node6</title>
<path fill="none" stroke="midnightblue" d="M721.059,-511.5C743.074,-511.5 768.253,-511.5 787.291,-511.5"/>
<polygon fill="midnightblue" stroke="midnightblue" points="720.874,-508 710.874,-511.5 720.874,-515 720.874,-508"/>
</g>
<!-- Node5 -->
<g id="node5" class="node"><title>Node5</title>
<g id="a_node5"><a xlink:href="../../d8/dd3/lbaselib_8c.html#a07f71966c943cc9761ab129f64d4ac80" target="_top" xlink:title="luaB_collectgarbage">
<polygon fill="none" stroke="black" points="911,-540 911,-559 1013,-559 1013,-540 911,-540"/>
<text text-anchor="middle" x="962" y="-547" font-family="Helvetica,sans-Serif" font-size="10.00">luaB_collectgarbage</text>
</a>
</g>
</g>
<!-- Node4&#45;&gt;Node5 -->
<g id="edge4" class="edge"><title>Node4&#45;&gt;Node5</title>
<path fill="none" stroke="midnightblue" d="M850.578,-549.5C868.242,-549.5 890.674,-549.5 910.699,-549.5"/>
<polygon fill="midnightblue" stroke="midnightblue" points="850.259,-546 840.259,-549.5 850.259,-553 850.259,-546"/>
</g>
<!-- Node7&#45;&gt;Node4 -->
<g id="edge7" class="edge"><title>Node7&#45;&gt;Node4</title>
<path fill="none" stroke="midnightblue" d="M224.385,-575.172C276.916,-580.647 356.547,-587.5 426,-587.5 426,-587.5 426,-587.5 541,-587.5 636.77,-587.5 749.501,-564.768 795.666,-554.468"/>
<polygon fill="midnightblue" stroke="midnightblue" points="224.565,-571.671 214.251,-574.098 223.827,-578.632 224.565,-571.671"/>
</g>
<!-- Node8&#45;&gt;Node2 -->
<g id="edge9" class="edge"><title>Node8&#45;&gt;Node2</title>
<path fill="none" stroke="midnightblue" d="M206.413,-500.223C225.732,-494.765 248.679,-488.282 267.132,-483.069"/>
<polygon fill="midnightblue" stroke="midnightblue" points="205.356,-496.885 196.684,-502.972 207.259,-503.621 205.356,-496.885"/>
</g>
<!-- Node8&#45;&gt;Node4 -->
<g id="edge10" class="edge"><title>Node8&#45;&gt;Node4</title>
<path fill="none" stroke="midnightblue" d="M206.905,-521.689C220.527,-524.858 235.861,-528.136 250,-530.5 327.6,-543.472 347.323,-549.5 426,-549.5 426,-549.5 426,-549.5 541,-549.5 636.115,-549.5 749.667,-549.5 795.878,-549.5"/>
<polygon fill="midnightblue" stroke="midnightblue" points="207.407,-518.211 196.869,-519.304 205.789,-525.021 207.407,-518.211"/>
</g>
<!-- Node9 -->
<g id="node9" class="node"><title>Node9</title>
<g id="a_node9"><a xlink:href="../../d7/d3e/lmem_8h.html#ae7dc8a57fc5dbca825653a88a356a72d" target="_top" xlink:title="luaM_realloc_">
<polygon fill="none" stroke="black" points="265,-502 265,-521 339,-521 339,-502 265,-502"/>
<text text-anchor="middle" x="302" y="-509" font-family="Helvetica,sans-Serif" font-size="10.00">luaM_realloc_</text>
</a>
</g>
</g>
<!-- Node8&#45;&gt;Node9 -->
<g id="edge11" class="edge"><title>Node8&#45;&gt;Node9</title>
<path fill="none" stroke="midnightblue" d="M206.808,-511.5C225.202,-511.5 246.817,-511.5 264.699,-511.5"/>
<polygon fill="midnightblue" stroke="midnightblue" points="206.684,-508 196.684,-511.5 206.684,-515 206.684,-508"/>
</g>
<!-- Node11 -->
<g id="node11" class="node"><title>Node11</title>
<g id="a_node11"><a xlink:href="../../de/d27/lgc_8c.html#aace8516e609d7409e789e7b2c190b9c2" target="_top" xlink:title="checkSizes">
<polygon fill="none" stroke="black" points="269.5,-379 269.5,-398 334.5,-398 334.5,-379 269.5,-379"/>
<text text-anchor="middle" x="302" y="-386" font-family="Helvetica,sans-Serif" font-size="10.00">checkSizes</text>
</a>
</g>
</g>
<!-- Node10&#45;&gt;Node11 -->
<g id="edge13" class="edge"><title>Node10&#45;&gt;Node11</title>
<path fill="none" stroke="midnightblue" d="M208.855,-375.483C228.327,-378.234 251.042,-381.443 269.047,-383.986"/>
<polygon fill="midnightblue" stroke="midnightblue" points="209.107,-371.984 198.716,-374.051 208.128,-378.915 209.107,-371.984"/>
</g>
<!-- Node14 -->
<g id="node14" class="node"><title>Node14</title>
<g id="a_node14"><a xlink:href="../../dd/dca/lstate_8c.html#ab65e96a7498fd886f7223b92e91fd830" target="_top" xlink:title="f_luaopen">
<polygon fill="none" stroke="black" points="272.5,-178 272.5,-197 331.5,-197 331.5,-178 272.5,-178"/>
<text text-anchor="middle" x="302" y="-185" font-family="Helvetica,sans-Serif" font-size="10.00">f_luaopen</text>
</a>
</g>
</g>
<!-- Node10&#45;&gt;Node14 -->
<g id="edge18" class="edge"><title>Node10&#45;&gt;Node14</title>
<path fill="none" stroke="midnightblue" d="M179.715,-351.618C207.682,-313.774 272.066,-226.653 293.733,-197.333"/>
<polygon fill="midnightblue" stroke="midnightblue" points="176.86,-349.592 173.731,-359.715 182.489,-353.753 176.86,-349.592"/>
</g>
<!-- Node22 -->
<g id="node22" class="node"><title>Node22</title>
<g id="a_node22"><a xlink:href="../../d1/d2f/lstring_8c.html#a6e3c0fe3ba834ee00279a9df03f40fc4" target="_top" xlink:title="newshrstr">
<polygon fill="none" stroke="black" points="273,-322 273,-341 331,-341 331,-322 273,-322"/>
<text text-anchor="middle" x="302" y="-329" font-family="Helvetica,sans-Serif" font-size="10.00">newshrstr</text>
</a>
</g>
</g>
<!-- Node10&#45;&gt;Node22 -->
<g id="edge27" class="edge"><title>Node10&#45;&gt;Node22</title>
<path fill="none" stroke="midnightblue" d="M208.613,-357.602C229.479,-351.707 254.116,-344.746 272.698,-339.496"/>
<polygon fill="midnightblue" stroke="midnightblue" points="207.388,-354.311 198.716,-360.398 209.291,-361.047 207.388,-354.311"/>
</g>
<!-- Node12 -->
<g id="node12" class="node"><title>Node12</title>
<g id="a_node12"><a xlink:href="../../de/d27/lgc_8c.html#ae34e22198155f5d365fe500d3735c150" target="_top" xlink:title="singlestep">
<polygon fill="none" stroke="black" points="397.5,-426 397.5,-445 456.5,-445 456.5,-426 397.5,-426"/>
<text text-anchor="middle" x="427" y="-433" font-family="Helvetica,sans-Serif" font-size="10.00">singlestep</text>
</a>
</g>
</g>
<!-- Node11&#45;&gt;Node12 -->
<g id="edge14" class="edge"><title>Node11&#45;&gt;Node12</title>
<path fill="none" stroke="midnightblue" d="M337.325,-401.616C357.441,-409.303 382.411,-418.844 400.724,-425.842"/>
<polygon fill="midnightblue" stroke="midnightblue" points="338.481,-398.311 327.891,-398.011 335.983,-404.85 338.481,-398.311"/>
</g>
<!-- Node12&#45;&gt;Node1 -->
<g id="edge17" class="edge"><title>Node12&#45;&gt;Node1</title>
<path fill="none" stroke="midnightblue" d="M387.097,-439.345C313.641,-446.604 155.266,-462.257 81.2,-469.576"/>
<polygon fill="midnightblue" stroke="midnightblue" points="387.692,-442.803 397.299,-438.337 387.003,-435.837 387.692,-442.803"/>
</g>
<!-- Node13 -->
<g id="node13" class="node"><title>Node13</title>
<g id="a_node13"><a xlink:href="../../de/d27/lgc_8c.html#a7515a46e25b277cbbe7febb4d06b196a" target="_top" xlink:title="incstep">
<polygon fill="none" stroke="black" points="516.5,-436 516.5,-455 563.5,-455 563.5,-436 516.5,-436"/>
<text text-anchor="middle" x="540" y="-443" font-family="Helvetica,sans-Serif" font-size="10.00">incstep</text>
</a>
</g>
</g>
<!-- Node12&#45;&gt;Node13 -->
<g id="edge15" class="edge"><title>Node12&#45;&gt;Node13</title>
<path fill="none" stroke="midnightblue" d="M466.602,-438.978C483.254,-440.478 502.15,-442.18 516.46,-443.469"/>
<polygon fill="midnightblue" stroke="midnightblue" points="466.859,-435.487 456.585,-438.075 466.231,-442.458 466.859,-435.487"/>
</g>
<!-- Node13&#45;&gt;Node3 -->
<g id="edge16" class="edge"><title>Node13&#45;&gt;Node3</title>
<path fill="none" stroke="midnightblue" d="M565.991,-460.229C580.435,-468.555 599.049,-478.973 616,-487.5 626.004,-492.532 637.288,-497.671 646.906,-501.896"/>
<polygon fill="midnightblue" stroke="midnightblue" points="567.566,-457.096 557.161,-455.1 564.051,-463.149 567.566,-457.096"/>
</g>
<!-- Node15 -->
<g id="node15" class="node"><title>Node15</title>
<g id="a_node15"><a xlink:href="../../da/dd2/lua_8h.html#af722e4ac7fc0eba5920f59f0162c1b97" target="_top" xlink:title="lua_newstate">
<polygon fill="none" stroke="black" points="390,-168 390,-187 464,-187 464,-168 390,-168"/>
<text text-anchor="middle" x="427" y="-175" font-family="Helvetica,sans-Serif" font-size="10.00">lua_newstate</text>
</a>
</g>
</g>
<!-- Node14&#45;&gt;Node15 -->
<g id="edge19" class="edge"><title>Node14&#45;&gt;Node15</title>
<path fill="none" stroke="midnightblue" d="M341.733,-184.351C357.064,-183.105 374.593,-181.679 389.678,-180.453"/>
<polygon fill="midnightblue" stroke="midnightblue" points="341.211,-180.882 331.528,-185.181 341.779,-187.859 341.211,-180.882"/>
</g>
<!-- Node16 -->
<g id="node16" class="node"><title>Node16</title>
<g id="a_node16"><a xlink:href="../../da/d29/lauxlib_8h.html#a7d8712fcede90ae93d5a9a7b409c586e" target="_top" xlink:title="luaL_newstate">
<polygon fill="none" stroke="black" points="500,-91 500,-110 580,-110 580,-91 500,-91"/>
<text text-anchor="middle" x="540" y="-98" font-family="Helvetica,sans-Serif" font-size="10.00">luaL_newstate</text>
</a>
</g>
</g>
<!-- Node15&#45;&gt;Node16 -->
<g id="edge20" class="edge"><title>Node15&#45;&gt;Node16</title>
<path fill="none" stroke="midnightblue" d="M450.287,-162.04C472.608,-146.556 506.267,-123.207 525.056,-110.173"/>
<polygon fill="midnightblue" stroke="midnightblue" points="448.28,-159.172 442.058,-167.748 452.27,-164.924 448.28,-159.172"/>
</g>
<!-- Node21 -->
<g id="node21" class="node"><title>Node21</title>
<g id="a_node21"><a xlink:href="../../dd/dca/lstate_8c.html#a8a0fc0aca5367250347c6bb6a788f05f" target="_top" xlink:title="makeseed">
<polygon fill="none" stroke="black" points="509.5,-168 509.5,-187 570.5,-187 570.5,-168 509.5,-168"/>
<text text-anchor="middle" x="540" y="-175" font-family="Helvetica,sans-Serif" font-size="10.00">makeseed</text>
</a>
</g>
</g>
<!-- Node15&#45;&gt;Node21 -->
<g id="edge25" class="edge"><title>Node15&#45;&gt;Node21</title>
<path fill="none" stroke="midnightblue" d="M474.284,-170.833C486.178,-170.616 498.653,-170.823 509.441,-171.453"/>
<polygon fill="midnightblue" stroke="midnightblue" points="473.932,-167.342 464.039,-171.133 474.137,-174.339 473.932,-167.342"/>
</g>
<!-- Node17 -->
<g id="node17" class="node"><title>Node17</title>
<g id="a_node17"><a xlink:href="../../dc/de7/interface_kensho_lua_wrapper.html#a7d10aa0242861cdd109d3da9383882a2" target="_top" xlink:title="&#45;[KenshoLuaWrapper\l evaluate]">
<polygon fill="none" stroke="black" points="616,-65.5 616,-95.5 725,-95.5 725,-65.5 616,-65.5"/>
<text text-anchor="start" x="624" y="-83.5" font-family="Helvetica,sans-Serif" font-size="10.00">&#45;[KenshoLuaWrapper</text>
<text text-anchor="middle" x="670.5" y="-72.5" font-family="Helvetica,sans-Serif" font-size="10.00"> evaluate]</text>
</a>
</g>
</g>
<!-- Node16&#45;&gt;Node17 -->
<g id="edge21" class="edge"><title>Node16&#45;&gt;Node17</title>
<path fill="none" stroke="midnightblue" d="M590.242,-92.8359C598.612,-91.5332 607.341,-90.1745 615.819,-88.8551"/>
<polygon fill="midnightblue" stroke="midnightblue" points="589.595,-89.3943 580.252,-94.3907 590.672,-96.311 589.595,-89.3943"/>
</g>
<!-- Node18 -->
<g id="node18" class="node"><title>Node18</title>
<g id="a_node18"><a xlink:href="../../dc/de7/interface_kensho_lua_wrapper.html#af6db46358f8858a18b55388aa3af211d" target="_top" xlink:title="&#45;[KenshoLuaWrapper\l initWithKensho:context\l:code:]">
<polygon fill="none" stroke="black" points="761,-50 761,-91 875,-91 875,-50 761,-50"/>
<text text-anchor="start" x="769" y="-79" font-family="Helvetica,sans-Serif" font-size="10.00">&#45;[KenshoLuaWrapper</text>
<text text-anchor="start" x="769" y="-68" font-family="Helvetica,sans-Serif" font-size="10.00"> initWithKensho:context</text>
<text text-anchor="middle" x="818" y="-57" font-family="Helvetica,sans-Serif" font-size="10.00">:code:]</text>
</a>
</g>
</g>
<!-- Node17&#45;&gt;Node18 -->
<g id="edge22" class="edge"><title>Node17&#45;&gt;Node18</title>
<path fill="none" stroke="midnightblue" d="M735.374,-76.11C743.751,-75.5343 752.287,-74.9476 760.53,-74.3811"/>
<polygon fill="midnightblue" stroke="midnightblue" points="735.002,-72.6273 725.265,-76.8048 735.482,-79.6108 735.002,-72.6273"/>
</g>
<!-- Node19 -->
<g id="node19" class="node"><title>Node19</title>
<g id="a_node19"><a xlink:href="../../dc/de7/interface_kensho_lua_wrapper.html#a5555e0979799446611baee70104555c6" target="_top" xlink:title="&#45;[KenshoLuaWrapper\l evaluate:]">
<polygon fill="none" stroke="red" points="763.5,-0.5 763.5,-30.5 872.5,-30.5 872.5,-0.5 763.5,-0.5"/>
<text text-anchor="start" x="771.5" y="-18.5" font-family="Helvetica,sans-Serif" font-size="10.00">&#45;[KenshoLuaWrapper</text>
<text text-anchor="middle" x="818" y="-7.5" font-family="Helvetica,sans-Serif" font-size="10.00"> evaluate:]</text>
</a>
</g>
</g>
<!-- Node17&#45;&gt;Node19 -->
<g id="edge23" class="edge"><title>Node17&#45;&gt;Node19</title>
<path fill="none" stroke="midnightblue" d="M714.465,-61.2935C729.216,-54.7003 745.831,-47.2758 761,-40.5 768.194,-37.2867 775.908,-33.8422 783.24,-30.5686"/>
<polygon fill="midnightblue" stroke="midnightblue" points="712.775,-58.2149 705.074,-65.4909 715.632,-64.6056 712.775,-58.2149"/>
</g>
<!-- Node20 -->
<g id="node20" class="node"><title>Node20</title>
<g id="a_node20"><a xlink:href="../../dc/de7/interface_kensho_lua_wrapper.html#a0bb5e125d727942726d707f8b59009dc" target="_top" xlink:title="&#45;[KenshoLuaWrapper\l observableUpdated:]">
<polygon fill="none" stroke="black" points="763.5,-110.5 763.5,-140.5 872.5,-140.5 872.5,-110.5 763.5,-110.5"/>
<text text-anchor="start" x="771.5" y="-128.5" font-family="Helvetica,sans-Serif" font-size="10.00">&#45;[KenshoLuaWrapper</text>
<text text-anchor="middle" x="818" y="-117.5" font-family="Helvetica,sans-Serif" font-size="10.00"> observableUpdated:]</text>
</a>
</g>
</g>
<!-- Node17&#45;&gt;Node20 -->
<g id="edge24" class="edge"><title>Node17&#45;&gt;Node20</title>
<path fill="none" stroke="midnightblue" d="M730.255,-98.6716C742.791,-102.549 755.904,-106.604 768.027,-110.354"/>
<polygon fill="midnightblue" stroke="midnightblue" points="730.942,-95.2206 720.354,-95.6095 728.874,-101.908 730.942,-95.2206"/>
</g>
<!-- Node21&#45;&gt;Node15 -->
<g id="edge26" class="edge"><title>Node21&#45;&gt;Node15</title>
<path fill="none" stroke="midnightblue" d="M499.232,-184.003C487.747,-184.373 475.283,-184.327 464.039,-183.867"/>
<polygon fill="midnightblue" stroke="midnightblue" points="499.607,-187.49 509.441,-183.547 499.294,-180.497 499.607,-187.49"/>
</g>
<!-- Node23 -->
<g id="node23" class="node"><title>Node23</title>
<g id="a_node23"><a xlink:href="../../d1/d2f/lstring_8c.html#a9b2c32c59a280de24f20df1c7f0433a1" target="_top" xlink:title="internshrstr">
<polygon fill="none" stroke="black" points="396.5,-317 396.5,-336 457.5,-336 457.5,-317 396.5,-317"/>
<text text-anchor="middle" x="427" y="-324" font-family="Helvetica,sans-Serif" font-size="10.00">internshrstr</text>
</a>
</g>
</g>
<!-- Node22&#45;&gt;Node23 -->
<g id="edge28" class="edge"><title>Node22&#45;&gt;Node23</title>
<path fill="none" stroke="midnightblue" d="M341.241,-329.945C358.949,-329.226 379.673,-328.383 396.197,-327.712"/>
<polygon fill="midnightblue" stroke="midnightblue" points="341.068,-326.45 331.219,-330.353 341.353,-333.444 341.068,-326.45"/>
</g>
<!-- Node24 -->
<g id="node24" class="node"><title>Node24</title>
<g id="a_node24"><a xlink:href="../../d4/dfb/lstring_8h.html#a248e72694b9116b07b2e7f4a9a3a5331" target="_top" xlink:title="luaS_newlstr">
<polygon fill="none" stroke="black" points="504.5,-314 504.5,-333 575.5,-333 575.5,-314 504.5,-314"/>
<text text-anchor="middle" x="540" y="-321" font-family="Helvetica,sans-Serif" font-size="10.00">luaS_newlstr</text>
</a>
</g>
</g>
<!-- Node23&#45;&gt;Node24 -->
<g id="edge29" class="edge"><title>Node23&#45;&gt;Node24</title>
<path fill="none" stroke="midnightblue" d="M467.918,-325.421C479.87,-325.098 492.873,-324.747 504.449,-324.434"/>
<polygon fill="midnightblue" stroke="midnightblue" points="467.648,-321.927 457.746,-325.696 467.837,-328.925 467.648,-321.927"/>
</g>
<!-- Node25 -->
<g id="node25" class="node"><title>Node25</title>
<g id="a_node25"><a xlink:href="../../da/dd2/lua_8h.html#a4ab8500ade8e1d8a87b1df1baf19b179" target="_top" xlink:title="lua_pushlstring">
<polygon fill="none" stroke="black" points="922,-160 922,-179 1002,-179 1002,-160 922,-160"/>
<text text-anchor="middle" x="962" y="-167" font-family="Helvetica,sans-Serif" font-size="10.00">lua_pushlstring</text>
</a>
</g>
</g>
<!-- Node24&#45;&gt;Node25 -->
<g id="edge30" class="edge"><title>Node24&#45;&gt;Node25</title>
<path fill="none" stroke="midnightblue" d="M545.49,-303.863C553.654,-273.194 574.104,-214.729 616,-188.5 665.955,-157.226 842.487,-162.768 921.848,-167.034"/>
<polygon fill="midnightblue" stroke="midnightblue" points="542.037,-303.243 543.021,-313.793 548.831,-304.933 542.037,-303.243"/>
</g>
<!-- Node34 -->
<g id="node34" class="node"><title>Node34</title>
<g id="a_node34"><a xlink:href="../../da/dd2/lua_8h.html#a4eba0457df5bafff4d44071d1d8080b6" target="_top" xlink:title="lua_concat">
<polygon fill="none" stroke="black" points="787,-464 787,-483 849,-483 849,-464 787,-464"/>
<text text-anchor="middle" x="818" y="-471" font-family="Helvetica,sans-Serif" font-size="10.00">lua_concat</text>
</a>
</g>
</g>
<!-- Node24&#45;&gt;Node34 -->
<g id="edge41" class="edge"><title>Node24&#45;&gt;Node34</title>
<path fill="none" stroke="midnightblue" d="M546.032,-343.207C554.763,-372.946 575.764,-428.566 616,-454.5 668.442,-488.302 745.132,-484.284 786.997,-478.697"/>
<polygon fill="midnightblue" stroke="midnightblue" points="549.304,-341.903 543.273,-333.193 542.555,-343.763 549.304,-341.903"/>
</g>
<!-- Node40 -->
<g id="node40" class="node"><title>Node40</title>
<g id="a_node40"><a xlink:href="../../dd/d05/lcode_8h.html#a4f928250a0f4007764b4d3777651f617" target="_top" xlink:title="luaK_numberK">
<polygon fill="none" stroke="black" points="630.5,-388 630.5,-407 710.5,-407 710.5,-388 630.5,-388"/>
<text text-anchor="middle" x="670.5" y="-395" font-family="Helvetica,sans-Serif" font-size="10.00">luaK_numberK</text>
</a>
</g>
</g>
<!-- Node24&#45;&gt;Node40 -->
<g id="edge49" class="edge"><title>Node24&#45;&gt;Node40</title>
<path fill="none" stroke="midnightblue" d="M559.773,-339.677C574.354,-351.625 595.483,-367.635 616,-378.5 622.794,-382.098 630.415,-385.267 637.728,-387.935"/>
<polygon fill="midnightblue" stroke="midnightblue" points="561.916,-336.907 551.998,-333.181 557.428,-342.279 561.916,-336.907"/>
</g>
<!-- Node44 -->
<g id="node44" class="node"><title>Node44</title>
<g id="a_node44"><a xlink:href="../../d8/d27/llex_8h.html#aa6e79179f823cf156f61899a09239ca6" target="_top" xlink:title="luaX_newstring">
<polygon fill="none" stroke="red" points="630,-350 630,-369 711,-369 711,-350 630,-350"/>
<text text-anchor="middle" x="670.5" y="-357" font-family="Helvetica,sans-Serif" font-size="10.00">luaX_newstring</text>
</a>
</g>
</g>
<!-- Node24&#45;&gt;Node44 -->
<g id="edge53" class="edge"><title>Node24&#45;&gt;Node44</title>
<path fill="none" stroke="midnightblue" d="M585.025,-335.834C601.445,-340.434 619.828,-345.584 635.242,-349.903"/>
<polygon fill="midnightblue" stroke="midnightblue" points="585.672,-332.38 575.098,-333.053 583.783,-339.121 585.672,-332.38"/>
</g>
<!-- Node46 -->
<g id="node46" class="node"><title>Node46</title>
<g id="a_node46"><a xlink:href="../../d7/d9b/lobject_8c.html#aa65db03553a5abd73e466d307bb17a37" target="_top" xlink:title="pushstr">
<polygon fill="none" stroke="red" points="646.5,-312 646.5,-331 694.5,-331 694.5,-312 646.5,-312"/>
<text text-anchor="middle" x="670.5" y="-319" font-family="Helvetica,sans-Serif" font-size="10.00">pushstr</text>
</a>
</g>
</g>
<!-- Node24&#45;&gt;Node46 -->
<g id="edge55" class="edge"><title>Node24&#45;&gt;Node46</title>
<path fill="none" stroke="midnightblue" d="M585.845,-322.802C606.295,-322.484 629.638,-322.12 646.461,-321.859"/>
<polygon fill="midnightblue" stroke="midnightblue" points="585.718,-319.303 575.774,-322.959 585.827,-326.303 585.718,-319.303"/>
</g>
<!-- Node47 -->
<g id="node47" class="node"><title>Node47</title>
<g id="a_node47"><a xlink:href="../../d4/dfb/lstring_8h.html#a6929da8cfde3e74a0d51a6467909ef9d" target="_top" xlink:title="luaS_new">
<polygon fill="none" stroke="red" points="640.5,-274 640.5,-293 700.5,-293 700.5,-274 640.5,-274"/>
<text text-anchor="middle" x="670.5" y="-281" font-family="Helvetica,sans-Serif" font-size="10.00">luaS_new</text>
</a>
</g>
</g>
<!-- Node24&#45;&gt;Node47 -->
<g id="edge56" class="edge"><title>Node24&#45;&gt;Node47</title>
<path fill="none" stroke="midnightblue" d="M581.422,-310.917C600.516,-304.974 622.881,-298.012 640.296,-292.591"/>
<polygon fill="midnightblue" stroke="midnightblue" points="580.287,-307.605 571.779,-313.919 582.367,-314.289 580.287,-307.605"/>
</g>
<!-- Node48 -->
<g id="node48" class="node"><title>Node48</title>
<g id="a_node48"><a xlink:href="../../de/d2f/lundump_8c.html#abfe7dabe70bd14e27d54d3cedc6cb70a" target="_top" xlink:title="LoadString">
<polygon fill="none" stroke="red" points="639.5,-236 639.5,-255 701.5,-255 701.5,-236 639.5,-236"/>
<text text-anchor="middle" x="670.5" y="-243" font-family="Helvetica,sans-Serif" font-size="10.00">LoadString</text>
</a>
</g>
</g>
<!-- Node24&#45;&gt;Node48 -->
<g id="edge57" class="edge"><title>Node24&#45;&gt;Node48</title>
<path fill="none" stroke="midnightblue" d="M558.576,-306.948C573.073,-293.997 594.656,-276.269 616,-264.5 623.25,-260.502 631.503,-257.082 639.319,-254.292"/>
<polygon fill="midnightblue" stroke="midnightblue" points="555.942,-304.614 550.914,-313.941 560.66,-309.785 555.942,-304.614"/>
</g>
<!-- Node49 -->
<g id="node49" class="node"><title>Node49</title>
<g id="a_node49"><a xlink:href="../../d5/dcd/lvm_8h.html#abcde68a7697547dc2c7f1d0e6734e611" target="_top" xlink:title="luaV_tostring">
<polygon fill="none" stroke="red" points="635,-198 635,-217 706,-217 706,-198 635,-198"/>
<text text-anchor="middle" x="670.5" y="-205" font-family="Helvetica,sans-Serif" font-size="10.00">luaV_tostring</text>
</a>
</g>
</g>
<!-- Node24&#45;&gt;Node49 -->
<g id="edge58" class="edge"><title>Node24&#45;&gt;Node49</title>
<path fill="none" stroke="midnightblue" d="M550.982,-304.857C563.485,-283.161 586.849,-247.618 616,-226.5 621.667,-222.394 628.306,-219.105 634.942,-216.494"/>
<polygon fill="midnightblue" stroke="midnightblue" points="547.836,-303.312 546.02,-313.75 553.949,-306.723 547.836,-303.312"/>
</g>
<!-- Node50 -->
<g id="node50" class="node"><title>Node50</title>
<g id="a_node50"><a xlink:href="../../d5/dcd/lvm_8h.html#aee84bfc563cb4bdd21a013218a289aa7" target="_top" xlink:title="luaV_concat">
<polygon fill="none" stroke="red" points="636,-426 636,-445 705,-445 705,-426 636,-426"/>
<text text-anchor="middle" x="670.5" y="-433" font-family="Helvetica,sans-Serif" font-size="10.00">luaV_concat</text>
</a>
</g>
</g>
<!-- Node24&#45;&gt;Node50 -->
<g id="edge59" class="edge"><title>Node24&#45;&gt;Node50</title>
<path fill="none" stroke="midnightblue" d="M551.536,-341.964C564.302,-362.803 587.661,-396.41 616,-416.5 621.95,-420.718 628.931,-424.085 635.849,-426.741"/>
<polygon fill="midnightblue" stroke="midnightblue" points="554.405,-339.939 546.29,-333.127 548.386,-343.513 554.405,-339.939"/>
</g>
<!-- Node26 -->
<g id="node26" class="node"><title>Node26</title>
<g id="a_node26"><a xlink:href="../../da/d29/lauxlib_8h.html#aac5dfab9ba0ced4f5ae3b22aa35faffe" target="_top" xlink:title="luaL_pushresult">
<polygon fill="none" stroke="red" points="1053.5,-198 1053.5,-217 1136.5,-217 1136.5,-198 1053.5,-198"/>
<text text-anchor="middle" x="1095" y="-205" font-family="Helvetica,sans-Serif" font-size="10.00">luaL_pushresult</text>
</a>
</g>
</g>
<!-- Node25&#45;&gt;Node26 -->
<g id="edge31" class="edge"><title>Node25&#45;&gt;Node26</title>
<path fill="none" stroke="midnightblue" d="M1005.71,-181.891C1023.65,-187.094 1044.2,-193.054 1060.95,-197.914"/>
<polygon fill="midnightblue" stroke="midnightblue" points="1006.64,-178.514 996.057,-179.089 1004.69,-185.236 1006.64,-178.514"/>
</g>
<!-- Node27 -->
<g id="node27" class="node"><title>Node27</title>
<g id="a_node27"><a xlink:href="../../de/df3/liolib_8c.html#ace61fce0bdea311d6d7c2206881165c7" target="_top" xlink:title="test_eof">
<polygon fill="none" stroke="red" points="1070,-160 1070,-179 1120,-179 1120,-160 1070,-160"/>
<text text-anchor="middle" x="1095" y="-167" font-family="Helvetica,sans-Serif" font-size="10.00">test_eof</text>
</a>
</g>
</g>
<!-- Node25&#45;&gt;Node27 -->
<g id="edge32" class="edge"><title>Node25&#45;&gt;Node27</title>
<path fill="none" stroke="midnightblue" d="M1012.38,-169.5C1032.07,-169.5 1053.85,-169.5 1069.95,-169.5"/>
<polygon fill="midnightblue" stroke="midnightblue" points="1012.3,-166 1002.3,-169.5 1012.3,-173 1012.3,-166"/>
</g>
<!-- Node28 -->
<g id="node28" class="node"><title>Node28</title>
<g id="a_node28"><a xlink:href="../../d2/d82/loadlib_8c.html#aa1ea5ee1b54a06650a887c4ee05a8547" target="_top" xlink:title="pushnexttemplate">
<polygon fill="none" stroke="red" points="1049,-122 1049,-141 1141,-141 1141,-122 1049,-122"/>
<text text-anchor="middle" x="1095" y="-129" font-family="Helvetica,sans-Serif" font-size="10.00">pushnexttemplate</text>
</a>
</g>
</g>
<!-- Node25&#45;&gt;Node28 -->
<g id="edge33" class="edge"><title>Node25&#45;&gt;Node28</title>
<path fill="none" stroke="midnightblue" d="M1005.71,-157.109C1023.65,-151.906 1044.2,-145.946 1060.95,-141.086"/>
<polygon fill="midnightblue" stroke="midnightblue" points="1004.69,-153.764 996.057,-159.911 1006.64,-160.486 1004.69,-153.764"/>
</g>
<!-- Node29 -->
<g id="node29" class="node"><title>Node29</title>
<g id="a_node29"><a xlink:href="../../d2/d82/loadlib_8c.html#a91ac5b5231cf039af46226806dcc3884" target="_top" xlink:title="loadfunc">
<polygon fill="none" stroke="red" points="1069,-84 1069,-103 1121,-103 1121,-84 1069,-84"/>
<text text-anchor="middle" x="1095" y="-91" font-family="Helvetica,sans-Serif" font-size="10.00">loadfunc</text>
</a>
</g>
</g>
<!-- Node25&#45;&gt;Node29 -->
<g id="edge34" class="edge"><title>Node25&#45;&gt;Node29</title>
<path fill="none" stroke="midnightblue" d="M984.062,-153.937C1001.06,-141.772 1025.88,-124.903 1049,-112.5 1055.28,-109.132 1062.28,-105.929 1068.86,-103.145"/>
<polygon fill="midnightblue" stroke="midnightblue" points="981.981,-151.122 975.932,-159.821 986.085,-156.793 981.981,-151.122"/>
</g>
<!-- Node30 -->
<g id="node30" class="node"><title>Node30</title>
<g id="a_node30"><a xlink:href="../../d2/d82/loadlib_8c.html#a1ec05cd98a045c271aeda9f9c6041e1c" target="_top" xlink:title="searcher_Croot">
<polygon fill="none" stroke="red" points="1177,-65 1177,-84 1257,-84 1257,-65 1177,-65"/>
<text text-anchor="middle" x="1217" y="-72" font-family="Helvetica,sans-Serif" font-size="10.00">searcher_Croot</text>
</a>
</g>
</g>
<!-- Node25&#45;&gt;Node30 -->
<g id="edge36" class="edge"><title>Node25&#45;&gt;Node30</title>
<path fill="none" stroke="midnightblue" d="M973.104,-151.038C986.835,-128.115 1013.77,-90.1299 1049,-74.5 1089.68,-56.4529 1141.62,-60.0482 1176.69,-65.8205"/>
<polygon fill="midnightblue" stroke="midnightblue" points="969.998,-149.418 968.042,-159.831 976.065,-152.911 969.998,-149.418"/>
</g>
<!-- Node31 -->
<g id="node31" class="node"><title>Node31</title>
<g id="a_node31"><a xlink:href="../../dc/d77/lstrlib_8c.html#a039b391d5f43533a0ce750c5e40d7752" target="_top" xlink:title="str_sub">
<polygon fill="none" stroke="black" points="1071,-274 1071,-293 1119,-293 1119,-274 1071,-274"/>
<text text-anchor="middle" x="1095" y="-281" font-family="Helvetica,sans-Serif" font-size="10.00">str_sub</text>
</a>
</g>
</g>
<!-- Node25&#45;&gt;Node31 -->
<g id="edge37" class="edge"><title>Node25&#45;&gt;Node31</title>
<path fill="none" stroke="midnightblue" d="M976.923,-187.138C992.866,-206.55 1020.48,-237.864 1049,-259.5 1056.19,-264.959 1064.8,-269.878 1072.55,-273.82"/>
<polygon fill="midnightblue" stroke="midnightblue" points="979.464,-184.714 970.457,-179.135 974.018,-189.113 979.464,-184.714"/>
</g>
<!-- Node32 -->
<g id="node32" class="node"><title>Node32</title>
<g id="a_node32"><a xlink:href="../../dc/d77/lstrlib_8c.html#a24a14b4e6e90bac4610dd334bb0b51b6" target="_top" xlink:title="push_onecapture">
<polygon fill="none" stroke="red" points="1049.5,-312 1049.5,-331 1140.5,-331 1140.5,-312 1049.5,-312"/>
<text text-anchor="middle" x="1095" y="-319" font-family="Helvetica,sans-Serif" font-size="10.00">push_onecapture</text>
</a>
</g>
</g>
<!-- Node25&#45;&gt;Node32 -->
<g id="edge38" class="edge"><title>Node25&#45;&gt;Node32</title>
<path fill="none" stroke="midnightblue" d="M970.859,-188.497C983.464,-216.864 1010.73,-270.386 1049,-302.5 1053.42,-306.207 1058.66,-309.285 1063.99,-311.807"/>
<polygon fill="midnightblue" stroke="midnightblue" points="974.055,-187.07 966.885,-179.27 967.626,-189.839 974.055,-187.07"/>
</g>
<!-- Node33 -->
<g id="node33" class="node"><title>Node33</title>
<g id="a_node33"><a xlink:href="../../dc/d77/lstrlib_8c.html#ad24cfa73e5ad25ec99a1b48f0916471e" target="_top" xlink:title="add_value">
<polygon fill="none" stroke="red" points="1186,-312 1186,-331 1248,-331 1248,-312 1186,-312"/>
<text text-anchor="middle" x="1217" y="-319" font-family="Helvetica,sans-Serif" font-size="10.00">add_value</text>
</a>
</g>
</g>
<!-- Node25&#45;&gt;Node33 -->
<g id="edge40" class="edge"><title>Node25&#45;&gt;Node33</title>
<path fill="none" stroke="midnightblue" d="M983.74,-184.9C1000.74,-197.109 1025.7,-214.116 1049,-226.5 1088.07,-247.262 1102.63,-242.488 1141,-264.5 1165.4,-278.496 1190.87,-299.416 1204.96,-311.637"/>
<polygon fill="midnightblue" stroke="midnightblue" points="985.776,-182.053 975.629,-179.004 981.659,-187.715 985.776,-182.053"/>
</g>
<!-- Node29&#45;&gt;Node30 -->
<g id="edge35" class="edge"><title>Node29&#45;&gt;Node30</title>
<path fill="none" stroke="midnightblue" d="M1131.1,-87.9419C1145.4,-85.6776 1162,-83.0501 1176.7,-80.7219"/>
<polygon fill="midnightblue" stroke="midnightblue" points="1130.49,-84.4961 1121.16,-89.517 1131.58,-91.41 1130.49,-84.4961"/>
</g>
<!-- Node32&#45;&gt;Node33 -->
<g id="edge39" class="edge"><title>Node32&#45;&gt;Node33</title>
<path fill="none" stroke="midnightblue" d="M1150.72,-321.5C1162.8,-321.5 1175.17,-321.5 1185.85,-321.5"/>
<polygon fill="midnightblue" stroke="midnightblue" points="1150.68,-318 1140.68,-321.5 1150.68,-325 1150.68,-318"/>
</g>
<!-- Node35 -->
<g id="node35" class="node"><title>Node35</title>
<g id="a_node35"><a xlink:href="../../d0/d56/lauxlib_8c.html#a36c8f149b779f8c9a5c042ea9784d80a" target="_top" xlink:title="findfield">
<polygon fill="none" stroke="red" points="938.5,-502 938.5,-521 985.5,-521 985.5,-502 938.5,-502"/>
<text text-anchor="middle" x="962" y="-509" font-family="Helvetica,sans-Serif" font-size="10.00">findfield</text>
</a>
</g>
</g>
<!-- Node34&#45;&gt;Node35 -->
<g id="edge42" class="edge"><title>Node34&#45;&gt;Node35</title>
<path fill="none" stroke="midnightblue" d="M858.943,-484.189C884.624,-491.061 917.056,-499.74 938.382,-505.447"/>
<polygon fill="midnightblue" stroke="midnightblue" points="859.679,-480.763 849.115,-481.559 857.87,-487.525 859.679,-480.763"/>
</g>
<!-- Node36 -->
<g id="node36" class="node"><title>Node36</title>
<g id="a_node36"><a xlink:href="../../da/d29/lauxlib_8h.html#a664cc293d6c7a7dc67857fe95583a10e" target="_top" xlink:title="luaL_traceback">
<polygon fill="none" stroke="red" points="921.5,-464 921.5,-483 1002.5,-483 1002.5,-464 921.5,-464"/>
<text text-anchor="middle" x="962" y="-471" font-family="Helvetica,sans-Serif" font-size="10.00">luaL_traceback</text>
</a>
</g>
</g>
<!-- Node34&#45;&gt;Node36 -->
<g id="edge43" class="edge"><title>Node34&#45;&gt;Node36</title>
<path fill="none" stroke="midnightblue" d="M859.214,-473.5C878.721,-473.5 902.073,-473.5 921.486,-473.5"/>
<polygon fill="midnightblue" stroke="midnightblue" points="859.115,-470 849.115,-473.5 859.115,-477 859.115,-470"/>
</g>
<!-- Node37 -->
<g id="node37" class="node"><title>Node37</title>
<g id="a_node37"><a xlink:href="../../da/d29/lauxlib_8h.html#a994f73d7985c30672469a260d9e86ae6" target="_top" xlink:title="luaL_error">
<polygon fill="none" stroke="red" points="933.5,-350 933.5,-369 990.5,-369 990.5,-350 933.5,-350"/>
<text text-anchor="middle" x="962" y="-357" font-family="Helvetica,sans-Serif" font-size="10.00">luaL_error</text>
</a>
</g>
</g>
<!-- Node34&#45;&gt;Node37 -->
<g id="edge44" class="edge"><title>Node34&#45;&gt;Node37</title>
<path fill="none" stroke="midnightblue" d="M858.639,-464.559C864.57,-461.999 870.271,-458.713 875,-454.5 902.907,-429.638 883.546,-403.861 911,-378.5 917.276,-372.703 925.498,-368.619 933.458,-365.765"/>
<polygon fill="midnightblue" stroke="midnightblue" points="857.415,-461.28 849.237,-468.016 859.831,-467.85 857.415,-461.28"/>
</g>
<!-- Node38 -->
<g id="node38" class="node"><title>Node38</title>
<g id="a_node38"><a xlink:href="../../d8/dd3/lbaselib_8c.html#a2ecfa987569d0b4c1063f3e204e42dd2" target="_top" xlink:title="luaB_error">
<polygon fill="none" stroke="black" points="932.5,-426 932.5,-445 991.5,-445 991.5,-426 932.5,-426"/>
<text text-anchor="middle" x="962" y="-433" font-family="Helvetica,sans-Serif" font-size="10.00">luaB_error</text>
</a>
</g>
</g>
<!-- Node34&#45;&gt;Node38 -->
<g id="edge47" class="edge"><title>Node34&#45;&gt;Node38</title>
<path fill="none" stroke="midnightblue" d="M859.074,-462.776C882.426,-456.527 911.326,-448.793 932.382,-443.158"/>
<polygon fill="midnightblue" stroke="midnightblue" points="857.87,-459.475 849.115,-465.441 859.679,-466.237 857.87,-459.475"/>
</g>
<!-- Node39 -->
<g id="node39" class="node"><title>Node39</title>
<g id="a_node39"><a xlink:href="../../df/d2d/lcorolib_8c.html#a777abb20385a69ce4787f72bd90375a7" target="_top" xlink:title="luaB_auxwrap">
<polygon fill="none" stroke="red" points="922,-388 922,-407 1002,-407 1002,-388 922,-388"/>
<text text-anchor="middle" x="962" y="-395" font-family="Helvetica,sans-Serif" font-size="10.00">luaB_auxwrap</text>
</a>
</g>
</g>
<!-- Node34&#45;&gt;Node39 -->
<g id="edge48" class="edge"><title>Node34&#45;&gt;Node39</title>
<path fill="none" stroke="midnightblue" d="M858.782,-462.707C864.436,-460.412 870.016,-457.693 875,-454.5 894.589,-441.95 891.64,-429.401 911,-416.5 916.564,-412.792 922.953,-409.668 929.264,-407.091"/>
<polygon fill="midnightblue" stroke="midnightblue" points="857.477,-459.458 849.288,-466.181 859.882,-466.032 857.477,-459.458"/>
</g>
<!-- Node37&#45;&gt;Node32 -->
<g id="edge46" class="edge"><title>Node37&#45;&gt;Node32</title>
<path fill="none" stroke="midnightblue" d="M1000.4,-348.652C1019.57,-343.092 1042.69,-336.383 1061.17,-331.025"/>
<polygon fill="midnightblue" stroke="midnightblue" points="999.411,-345.294 990.782,-351.441 1001.36,-352.017 999.411,-345.294"/>
</g>
<!-- Node37&#45;&gt;Node33 -->
<g id="edge45" class="edge"><title>Node37&#45;&gt;Node33</title>
<path fill="none" stroke="midnightblue" d="M1000.72,-357.033C1036.9,-354.3 1092.97,-349.102 1141,-340.5 1155.94,-337.824 1172.3,-333.809 1185.92,-330.157"/>
<polygon fill="midnightblue" stroke="midnightblue" points="1000.33,-353.552 990.615,-357.771 1000.84,-360.533 1000.33,-353.552"/>
</g>
<!-- Node41 -->
<g id="node41" class="node"><title>Node41</title>
<g id="a_node41"><a xlink:href="../../d8/d7a/lcode_8c.html#a961993a449bc9612ac966652646ffad6" target="_top" xlink:title="discharge2reg">
<polygon fill="none" stroke="red" points="780.5,-388 780.5,-407 855.5,-407 855.5,-388 780.5,-388"/>
<text text-anchor="middle" x="818" y="-395" font-family="Helvetica,sans-Serif" font-size="10.00">discharge2reg</text>
</a>
</g>
</g>
<!-- Node40&#45;&gt;Node41 -->
<g id="edge50" class="edge"><title>Node40&#45;&gt;Node41</title>
<path fill="none" stroke="midnightblue" d="M721.032,-397.5C740.378,-397.5 762.172,-397.5 780.096,-397.5"/>
<polygon fill="midnightblue" stroke="midnightblue" points="720.874,-394 710.874,-397.5 720.874,-401 720.874,-394"/>
</g>
<!-- Node42 -->
<g id="node42" class="node"><title>Node42</title>
<g id="a_node42"><a xlink:href="../../d8/d9c/lparser_8c.html#a18532c1a3a900cb8f3399b470c00daf0" target="_top" xlink:title="fornum">
<polygon fill="none" stroke="red" points="796,-350 796,-369 840,-369 840,-350 796,-350"/>
<text text-anchor="middle" x="818" y="-357" font-family="Helvetica,sans-Serif" font-size="10.00">fornum</text>
</a>
</g>
</g>
<!-- Node40&#45;&gt;Node42 -->
<g id="edge51" class="edge"><title>Node40&#45;&gt;Node42</title>
<path fill="none" stroke="midnightblue" d="M717.923,-385.376C744.005,-378.564 775.306,-370.389 795.648,-365.076"/>
<polygon fill="midnightblue" stroke="midnightblue" points="717.007,-381.998 708.216,-387.911 718.776,-388.77 717.007,-381.998"/>
</g>
<!-- Node43 -->
<g id="node43" class="node"><title>Node43</title>
<g id="a_node43"><a xlink:href="../../dd/d05/lcode_8h.html#a28ef529fcd27c07fb222181894abdf7e" target="_top" xlink:title="luaK_exp2RK">
<polygon fill="none" stroke="red" points="779.5,-426 779.5,-445 856.5,-445 856.5,-426 779.5,-426"/>
<text text-anchor="middle" x="818" y="-433" font-family="Helvetica,sans-Serif" font-size="10.00">luaK_exp2RK</text>
</a>
</g>
</g>
<!-- Node40&#45;&gt;Node43 -->
<g id="edge52" class="edge"><title>Node40&#45;&gt;Node43</title>
<path fill="none" stroke="midnightblue" d="M718.153,-409.684C738.353,-414.96 761.648,-421.044 780.548,-425.98"/>
<polygon fill="midnightblue" stroke="midnightblue" points="718.776,-406.23 708.216,-407.089 717.007,-413.002 718.776,-406.23"/>
</g>
<!-- Node45 -->
<g id="node45" class="node"><title>Node45</title>
<g id="a_node45"><a xlink:href="../../d8/d7a/llex_8c.html#a436a66722128b5e44db3efccaa922aa6" target="_top" xlink:title="read_long_string">
<polygon fill="none" stroke="red" points="775.5,-312 775.5,-331 860.5,-331 860.5,-312 775.5,-312"/>
<text text-anchor="middle" x="818" y="-319" font-family="Helvetica,sans-Serif" font-size="10.00">read_long_string</text>
</a>
</g>
</g>
<!-- Node44&#45;&gt;Node45 -->
<g id="edge54" class="edge"><title>Node44&#45;&gt;Node45</title>
<path fill="none" stroke="midnightblue" d="M718.153,-347.316C738.353,-342.04 761.648,-335.956 780.548,-331.02"/>
<polygon fill="midnightblue" stroke="midnightblue" points="717.007,-343.998 708.216,-349.911 718.776,-350.77 717.007,-343.998"/>
</g>
<!-- Node50&#45;&gt;Node34 -->
<g id="edge60" class="edge"><title>Node50&#45;&gt;Node34</title>
<path fill="none" stroke="midnightblue" d="M715.177,-446.907C738.327,-452.953 766.178,-460.227 786.896,-465.638"/>
<polygon fill="midnightblue" stroke="midnightblue" points="715.806,-443.454 705.246,-444.313 714.037,-450.227 715.806,-443.454"/>
</g>
</g>
</svg>
