<?xml version="1.0" encoding="UTF-8" standalone="no"?>
<!DOCTYPE svg PUBLIC "-//W3C//DTD SVG 1.1//EN"
 "http://www.w3.org/Graphics/SVG/1.1/DTD/svg11.dtd">
<!-- Generated by graphviz version 2.38.0 (20140413.2041)
 -->
<!-- Title: &#45;[BindingBase unbind] Pages: 1 -->
<svg width="304pt" height="264pt"
 viewBox="0.00 0.00 304.00 263.50" xmlns="http://www.w3.org/2000/svg" xmlns:xlink="http://www.w3.org/1999/xlink">
<g id="graph0" class="graph" transform="scale(1 1) rotate(0) translate(4 259.5)">
<title>&#45;[BindingBase unbind]</title>
<!-- Node1 -->
<g id="node1" class="node"><title>Node1</title>
<polygon fill="#bfbfbf" stroke="black" points="0,-121 0,-140 110,-140 110,-121 0,-121"/>
<text text-anchor="middle" x="55" y="-128" font-family="Helvetica,sans-Serif" font-size="10.00">&#45;[BindingBase unbind]</text>
</g>
<!-- Node2 -->
<g id="node2" class="node"><title>Node2</title>
<g id="a_node2"><a xlink:href="$d6/df6/interface_test_binding_base.html#adcb920cd5d09a1ae4d4e7060fc17353b" xlink:title="&#45;[TestBindingBase testRelease]">
<polygon fill="none" stroke="black" points="146,-236 146,-255 296,-255 296,-236 146,-236"/>
<text text-anchor="middle" x="221" y="-243" font-family="Helvetica,sans-Serif" font-size="10.00">&#45;[TestBindingBase testRelease]</text>
</a>
</g>
</g>
<!-- Node1&#45;&gt;Node2 -->
<g id="edge1" class="edge"><title>Node1&#45;&gt;Node2</title>
<path fill="none" stroke="midnightblue" d="M67.9235,-148.45C83.3508,-170.24 112.284,-206.542 146,-226.5 152.506,-230.351 159.783,-233.429 167.166,-235.888"/>
<polygon fill="midnightblue" stroke="midnightblue" points="70.7196,-146.339 62.1642,-140.09 64.955,-150.31 70.7196,-146.339"/>
</g>
<!-- Node3 -->
<g id="node3" class="node"><title>Node3</title>
<g id="a_node3"><a xlink:href="$db/dab/interface_test_u_i_button_binding.html#ab6dc622c980bc4abb5cf660d486aa91d" xlink:title="&#45;[TestUIButtonBinding\l testRelease]">
<polygon fill="none" stroke="black" points="167.5,-186.5 167.5,-216.5 274.5,-216.5 274.5,-186.5 167.5,-186.5"/>
<text text-anchor="start" x="175.5" y="-204.5" font-family="Helvetica,sans-Serif" font-size="10.00">&#45;[TestUIButtonBinding</text>
<text text-anchor="middle" x="221" y="-193.5" font-family="Helvetica,sans-Serif" font-size="10.00"> testRelease]</text>
</a>
</g>
</g>
<!-- Node1&#45;&gt;Node3 -->
<g id="edge2" class="edge"><title>Node1&#45;&gt;Node3</title>
<path fill="none" stroke="midnightblue" d="M81.2965,-145.17C99.0372,-155.092 123.509,-168.059 146,-177.5 153.596,-180.689 161.774,-183.721 169.825,-186.489"/>
<polygon fill="midnightblue" stroke="midnightblue" points="82.6149,-141.894 72.1885,-140.012 79.1656,-147.985 82.6149,-141.894"/>
</g>
<!-- Node4 -->
<g id="node4" class="node"><title>Node4</title>
<g id="a_node4"><a xlink:href="$db/dc1/interface_test_u_i_label_binding.html#ad569ef4984d1f5e1d70df6712cd6958b" xlink:title="&#45;[TestUILabelBinding\l testRelease]">
<polygon fill="none" stroke="black" points="169,-137.5 169,-167.5 273,-167.5 273,-137.5 169,-137.5"/>
<text text-anchor="start" x="177" y="-155.5" font-family="Helvetica,sans-Serif" font-size="10.00">&#45;[TestUILabelBinding</text>
<text text-anchor="middle" x="221" y="-144.5" font-family="Helvetica,sans-Serif" font-size="10.00"> testRelease]</text>
</a>
</g>
</g>
<!-- Node1&#45;&gt;Node4 -->
<g id="edge3" class="edge"><title>Node1&#45;&gt;Node4</title>
<path fill="none" stroke="midnightblue" d="M120.095,-139.098C136.304,-141.272 153.493,-143.578 168.96,-145.653"/>
<polygon fill="midnightblue" stroke="midnightblue" points="120.531,-135.625 110.154,-137.765 119.6,-142.563 120.531,-135.625"/>
</g>
<!-- Node5 -->
<g id="node5" class="node"><title>Node5</title>
<g id="a_node5"><a xlink:href="$d6/df6/interface_test_binding_base.html#a71549fa8e2552f2c2137543df9dc09e5" xlink:title="&#45;[TestBindingBase testUnbind]">
<polygon fill="none" stroke="black" points="149,-99 149,-118 293,-118 293,-99 149,-99"/>
<text text-anchor="middle" x="221" y="-106" font-family="Helvetica,sans-Serif" font-size="10.00">&#45;[TestBindingBase testUnbind]</text>
</a>
</g>
</g>
<!-- Node1&#45;&gt;Node5 -->
<g id="edge4" class="edge"><title>Node1&#45;&gt;Node5</title>
<path fill="none" stroke="midnightblue" d="M120.222,-121.885C129.642,-120.621 139.391,-119.313 148.938,-118.033"/>
<polygon fill="midnightblue" stroke="midnightblue" points="119.6,-118.437 110.154,-123.235 120.531,-125.375 119.6,-118.437"/>
</g>
<!-- Node6 -->
<g id="node6" class="node"><title>Node6</title>
<g id="a_node6"><a xlink:href="$db/dc1/interface_test_u_i_label_binding.html#a6f08557d8e087a5cb65006bc03390043" xlink:title="&#45;[TestUILabelBinding\l testUnbind]">
<polygon fill="none" stroke="black" points="169,-49.5 169,-79.5 273,-79.5 273,-49.5 169,-49.5"/>
<text text-anchor="start" x="177" y="-67.5" font-family="Helvetica,sans-Serif" font-size="10.00">&#45;[TestUILabelBinding</text>
<text text-anchor="middle" x="221" y="-56.5" font-family="Helvetica,sans-Serif" font-size="10.00"> testUnbind]</text>
</a>
</g>
</g>
<!-- Node1&#45;&gt;Node6 -->
<g id="edge5" class="edge"><title>Node1&#45;&gt;Node6</title>
<path fill="none" stroke="midnightblue" d="M84.5459,-116.596C102.084,-108.28 125.119,-97.7588 146,-89.5 154.701,-86.0587 164.087,-82.6562 173.158,-79.5218"/>
<polygon fill="midnightblue" stroke="midnightblue" points="82.9285,-113.49 75.4164,-120.961 85.948,-119.805 82.9285,-113.49"/>
</g>
<!-- Node7 -->
<g id="node7" class="node"><title>Node7</title>
<g id="a_node7"><a xlink:href="$db/dab/interface_test_u_i_button_binding.html#a43b37ecf506b313913831f42d28bde56" xlink:title="&#45;[TestUIButtonBinding\l testUnbind]">
<polygon fill="none" stroke="black" points="167.5,-0.5 167.5,-30.5 274.5,-30.5 274.5,-0.5 167.5,-0.5"/>
<text text-anchor="start" x="175.5" y="-18.5" font-family="Helvetica,sans-Serif" font-size="10.00">&#45;[TestUIButtonBinding</text>
<text text-anchor="middle" x="221" y="-7.5" font-family="Helvetica,sans-Serif" font-size="10.00"> testUnbind]</text>
</a>
</g>
</g>
<!-- Node1&#45;&gt;Node7 -->
<g id="edge6" class="edge"><title>Node1&#45;&gt;Node7</title>
<path fill="none" stroke="midnightblue" d="M69.3776,-112.892C85.5153,-92.7685 114.438,-60.0948 146,-40.5 152.567,-36.423 159.878,-32.9222 167.277,-29.9431"/>
<polygon fill="midnightblue" stroke="midnightblue" points="66.5009,-110.888 63.0861,-120.918 72.01,-115.207 66.5009,-110.888"/>
</g>
</g>
</svg>
