<?xml version="1.0" encoding="UTF-8" standalone="no"?>
<!DOCTYPE svg PUBLIC "-//W3C//DTD SVG 1.1//EN"
 "http://www.w3.org/Graphics/SVG/1.1/DTD/svg11.dtd">
<!-- Generated by graphviz version 2.34.0 (20131008.0448)
 -->
<!-- Title: &#45;[BindingBase bindToResultsIfNeeded] Pages: 1 -->
<svg width="338pt" height="91pt"
 viewBox="0.00 0.00 338.00 91.00" xmlns="http://www.w3.org/2000/svg" xmlns:xlink="http://www.w3.org/1999/xlink">
<g id="graph0" class="graph" transform="scale(1 1) rotate(0) translate(4 87)">
<title>&#45;[BindingBase bindToResultsIfNeeded]</title>
<!-- Node1 -->
<g id="node1" class="node"><title>Node1</title>
<polygon fill="#bfbfbf" stroke="black" points="0.542,-25 0.542,-57 145.458,-57 145.458,-25 0.542,-25"/>
<text text-anchor="start" x="8.542" y="-44" font-family="Helvetica,sans-Serif" font-size="10.00">&#45;[BindingBase bindToResults</text>
<text text-anchor="middle" x="73" y="-32" font-family="Helvetica,sans-Serif" font-size="10.00">IfNeeded]</text>
</g>
<!-- Node2 -->
<g id="node2" class="node"><title>Node2</title>
<g id="a_node2"><a xlink:href="../../d5/d2a/interface_binding_base.html#af51307bd6b4a5995605eb51667be8fd2" target="_top" xlink:title="Interesting issue here We may get a binding of &#39;42&#39; We may get a binding of observable We may also ge...">
<polygon fill="none" stroke="black" points="182.153,-51 182.153,-83 329.847,-83 329.847,-51 182.153,-51"/>
<text text-anchor="start" x="190.153" y="-70" font-family="Helvetica,sans-Serif" font-size="10.00">&#45;[BindingBase initWithKensho</text>
<text text-anchor="middle" x="256" y="-58" font-family="Helvetica,sans-Serif" font-size="10.00">:target:type:value:context:]</text>
</a>
</g>
</g>
<!-- Node1&#45;&gt;Node2 -->
<g id="edge1" class="edge"><title>Node1&#45;&gt;Node2</title>
<path fill="none" stroke="midnightblue" d="M155.714,-52.738C164.445,-53.992 173.285,-55.2619 181.906,-56.5003"/>
<polygon fill="midnightblue" stroke="midnightblue" points="155.932,-49.2334 145.536,-51.2759 154.937,-56.1623 155.932,-49.2334"/>
</g>
<!-- Node3 -->
<g id="node3" class="node"><title>Node3</title>
<g id="a_node3"><a xlink:href="../../d5/d2a/interface_binding_base.html#acda3fcbe8a080cd00cad312ee9eaf825" target="_top" xlink:title="&#45;[BindingBase observable\lUpdated:]">
<polygon fill="none" stroke="black" points="191.041,-0 191.041,-32 320.959,-32 320.959,-0 191.041,-0"/>
<text text-anchor="start" x="199.041" y="-19" font-family="Helvetica,sans-Serif" font-size="10.00">&#45;[BindingBase observable</text>
<text text-anchor="middle" x="256" y="-7" font-family="Helvetica,sans-Serif" font-size="10.00">Updated:]</text>
</a>
</g>
</g>
<!-- Node1&#45;&gt;Node3 -->
<g id="edge2" class="edge"><title>Node1&#45;&gt;Node3</title>
<path fill="none" stroke="midnightblue" d="M155.479,-29.746C167.397,-28.0999 179.525,-26.4247 191.027,-24.8361"/>
<polygon fill="midnightblue" stroke="midnightblue" points="154.963,-26.2839 145.536,-31.1193 155.921,-33.2181 154.963,-26.2839"/>
</g>
</g>
</svg>
