<?xml version="1.0" encoding="UTF-8" standalone="no"?>
<!DOCTYPE svg PUBLIC "-//W3C//DTD SVG 1.1//EN"
 "http://www.w3.org/Graphics/SVG/1.1/DTD/svg11.dtd">
<!-- Generated by graphviz version 2.38.0 (20140413.2041)
 -->
<!-- Title: luaU_dump Pages: 1 -->
<svg width="260pt" height="28pt"
 viewBox="0.00 0.00 260.00 28.00" xmlns="http://www.w3.org/2000/svg" xmlns:xlink="http://www.w3.org/1999/xlink">
<g id="graph0" class="graph" transform="scale(1 1) rotate(0) translate(4 24)">
<title>luaU_dump</title>
<!-- Node1 -->
<g id="node1" class="node"><title>Node1</title>
<polygon fill="#bfbfbf" stroke="black" points="0,-0.5 0,-19.5 65,-19.5 65,-0.5 0,-0.5"/>
<text text-anchor="middle" x="32.5" y="-7.5" font-family="Helvetica,sans-Serif" font-size="10.00">luaU_dump</text>
</g>
<!-- Node2 -->
<g id="node2" class="node"><title>Node2</title>
<g id="a_node2"><a xlink:href="../../da/dd2/lua_8h.html#a29ceb6e6217ff14d061922a539c59eac" target="_top" xlink:title="lua_dump">
<polygon fill="none" stroke="black" points="101,-0.5 101,-19.5 160,-19.5 160,-0.5 101,-0.5"/>
<text text-anchor="middle" x="130.5" y="-7.5" font-family="Helvetica,sans-Serif" font-size="10.00">lua_dump</text>
</a>
</g>
</g>
<!-- Node1&#45;&gt;Node2 -->
<g id="edge1" class="edge"><title>Node1&#45;&gt;Node2</title>
<path fill="none" stroke="midnightblue" d="M75.4245,-10C83.9741,-10 92.785,-10 100.749,-10"/>
<polygon fill="midnightblue" stroke="midnightblue" points="75.2001,-6.5001 65.2,-10 75.2,-13.5001 75.2001,-6.5001"/>
</g>
<!-- Node3 -->
<g id="node3" class="node"><title>Node3</title>
<g id="a_node3"><a xlink:href="../../dc/d77/lstrlib_8c.html#abc94e3a13f1b6ddb2c9b20c9fd89e87f" target="_top" xlink:title="str_dump">
<polygon fill="none" stroke="black" points="196,-0.5 196,-19.5 252,-19.5 252,-0.5 196,-0.5"/>
<text text-anchor="middle" x="224" y="-7.5" font-family="Helvetica,sans-Serif" font-size="10.00">str_dump</text>
</a>
</g>
</g>
<!-- Node2&#45;&gt;Node3 -->
<g id="edge2" class="edge"><title>Node2&#45;&gt;Node3</title>
<path fill="none" stroke="midnightblue" d="M170.576,-10C179.07,-10 187.878,-10 195.795,-10"/>
<polygon fill="midnightblue" stroke="midnightblue" points="170.451,-6.5001 160.451,-10 170.451,-13.5001 170.451,-6.5001"/>
</g>
</g>
</svg>
