<?xml version="1.0" encoding="UTF-8" standalone="no"?>
<!DOCTYPE svg PUBLIC "-//W3C//DTD SVG 1.1//EN"
 "http://www.w3.org/Graphics/SVG/1.1/DTD/svg11.dtd">
<!-- Generated by graphviz version 2.38.0 (20140413.2041)
 -->
<!-- Title: markmt Pages: 1 -->
<svg width="1543pt" height="480pt"
 viewBox="0.00 0.00 1543.00 480.00" xmlns="http://www.w3.org/2000/svg" xmlns:xlink="http://www.w3.org/1999/xlink">
<g id="graph0" class="graph" transform="scale(1 1) rotate(0) translate(4 476)">
<title>markmt</title>
<!-- Node1 -->
<g id="node1" class="node"><title>Node1</title>
<polygon fill="#bfbfbf" stroke="black" points="0,-152.5 0,-171.5 47,-171.5 47,-152.5 0,-152.5"/>
<text text-anchor="middle" x="23.5" y="-159.5" font-family="Helvetica,sans-Serif" font-size="10.00">markmt</text>
</g>
<!-- Node2 -->
<g id="node2" class="node"><title>Node2</title>
<g id="a_node2"><a xlink:href="../../de/d27/lgc_8c.html#aeeb04d4803ad9d53a05a8605130a31d0" target="_top" xlink:title="atomic">
<polygon fill="none" stroke="black" points="100.5,-171.5 100.5,-190.5 144.5,-190.5 144.5,-171.5 100.5,-171.5"/>
<text text-anchor="middle" x="122.5" y="-178.5" font-family="Helvetica,sans-Serif" font-size="10.00">atomic</text>
</a>
</g>
</g>
<!-- Node1&#45;&gt;Node2 -->
<g id="edge1" class="edge"><title>Node1&#45;&gt;Node2</title>
<path fill="none" stroke="midnightblue" d="M57.3899,-168.442C71.5841,-171.223 87.7751,-174.394 100.335,-176.854"/>
<polygon fill="midnightblue" stroke="midnightblue" points="57.974,-164.99 47.4876,-166.503 56.6283,-171.86 57.974,-164.99"/>
</g>
<!-- Node50 -->
<g id="node50" class="node"><title>Node50</title>
<g id="a_node50"><a xlink:href="../../de/d27/lgc_8c.html#abc346fb7129981227c874ba0e22a480f" target="_top" xlink:title="restartcollection">
<polygon fill="none" stroke="black" points="83,-133.5 83,-152.5 162,-152.5 162,-133.5 83,-133.5"/>
<text text-anchor="middle" x="122.5" y="-140.5" font-family="Helvetica,sans-Serif" font-size="10.00">restartcollection</text>
</a>
</g>
</g>
<!-- Node1&#45;&gt;Node50 -->
<g id="edge60" class="edge"><title>Node1&#45;&gt;Node50</title>
<path fill="none" stroke="midnightblue" d="M57.3812,-155.559C65.5336,-153.962 74.3451,-152.237 82.7492,-150.59"/>
<polygon fill="midnightblue" stroke="midnightblue" points="56.6283,-152.14 47.4876,-157.497 57.974,-159.01 56.6283,-152.14"/>
</g>
<!-- Node3 -->
<g id="node3" class="node"><title>Node3</title>
<g id="a_node3"><a xlink:href="../../de/d27/lgc_8c.html#ae34e22198155f5d365fe500d3735c150" target="_top" xlink:title="singlestep">
<polygon fill="none" stroke="black" points="198,-152.5 198,-171.5 257,-171.5 257,-152.5 198,-152.5"/>
<text text-anchor="middle" x="227.5" y="-159.5" font-family="Helvetica,sans-Serif" font-size="10.00">singlestep</text>
</a>
</g>
</g>
<!-- Node2&#45;&gt;Node3 -->
<g id="edge2" class="edge"><title>Node2&#45;&gt;Node3</title>
<path fill="none" stroke="midnightblue" d="M154.778,-175.23C168.453,-172.708 184.389,-169.768 197.762,-167.301"/>
<polygon fill="midnightblue" stroke="midnightblue" points="154.041,-171.807 144.842,-177.063 155.311,-178.691 154.041,-171.807"/>
</g>
<!-- Node4 -->
<g id="node4" class="node"><title>Node4</title>
<g id="a_node4"><a xlink:href="../../dc/d9c/lgc_8h.html#a1da32357417ce5766ed5e3ada033c32f" target="_top" xlink:title="luaC_runtilstate">
<polygon fill="none" stroke="black" points="293,-114.5 293,-133.5 374,-133.5 374,-114.5 293,-114.5"/>
<text text-anchor="middle" x="333.5" y="-121.5" font-family="Helvetica,sans-Serif" font-size="10.00">luaC_runtilstate</text>
</a>
</g>
</g>
<!-- Node3&#45;&gt;Node4 -->
<g id="edge3" class="edge"><title>Node3&#45;&gt;Node4</title>
<path fill="none" stroke="midnightblue" d="M264.402,-148.882C278.157,-143.856 293.58,-138.221 306.265,-133.586"/>
<polygon fill="midnightblue" stroke="midnightblue" points="262.935,-145.692 254.744,-152.411 265.337,-152.266 262.935,-145.692"/>
</g>
<!-- Node49 -->
<g id="node49" class="node"><title>Node49</title>
<g id="a_node49"><a xlink:href="../../de/d27/lgc_8c.html#a7515a46e25b277cbbe7febb4d06b196a" target="_top" xlink:title="incstep">
<polygon fill="none" stroke="black" points="310,-152.5 310,-171.5 357,-171.5 357,-152.5 310,-152.5"/>
<text text-anchor="middle" x="333.5" y="-159.5" font-family="Helvetica,sans-Serif" font-size="10.00">incstep</text>
</a>
</g>
</g>
<!-- Node3&#45;&gt;Node49 -->
<g id="edge58" class="edge"><title>Node3&#45;&gt;Node49</title>
<path fill="none" stroke="midnightblue" d="M267.306,-162C281.634,-162 297.393,-162 309.827,-162"/>
<polygon fill="midnightblue" stroke="midnightblue" points="267.194,-158.5 257.194,-162 267.194,-165.5 267.194,-158.5"/>
</g>
<!-- Node5 -->
<g id="node5" class="node"><title>Node5</title>
<g id="a_node5"><a xlink:href="../../dc/d9c/lgc_8h.html#af016fe72ab7e564d7d55e7e4fb659041" target="_top" xlink:title="luaC_changemode">
<polygon fill="none" stroke="black" points="410,-19.5 410,-38.5 507,-38.5 507,-19.5 410,-19.5"/>
<text text-anchor="middle" x="458.5" y="-26.5" font-family="Helvetica,sans-Serif" font-size="10.00">luaC_changemode</text>
</a>
</g>
</g>
<!-- Node4&#45;&gt;Node5 -->
<g id="edge4" class="edge"><title>Node4&#45;&gt;Node5</title>
<path fill="none" stroke="midnightblue" d="M355.196,-108.015C380.903,-88.1606 423.939,-54.9207 445.052,-38.614"/>
<polygon fill="midnightblue" stroke="midnightblue" points="352.975,-105.308 347.2,-114.191 357.254,-110.848 352.975,-105.308"/>
</g>
<!-- Node8 -->
<g id="node8" class="node"><title>Node8</title>
<g id="a_node8"><a xlink:href="../../de/d27/lgc_8c.html#a87bb9d2ca4bed013c39258f8abd61689" target="_top" xlink:title="generationalcollection">
<polygon fill="none" stroke="black" points="543,-114.5 543,-133.5 647,-133.5 647,-114.5 543,-114.5"/>
<text text-anchor="middle" x="595" y="-121.5" font-family="Helvetica,sans-Serif" font-size="10.00">generationalcollection</text>
</a>
</g>
</g>
<!-- Node4&#45;&gt;Node8 -->
<g id="edge7" class="edge"><title>Node4&#45;&gt;Node8</title>
<path fill="none" stroke="midnightblue" d="M384.413,-124C429.892,-124 496.778,-124 542.689,-124"/>
<polygon fill="midnightblue" stroke="midnightblue" points="384.195,-120.5 374.195,-124 384.195,-127.5 384.195,-120.5"/>
</g>
<!-- Node11 -->
<g id="node11" class="node"><title>Node11</title>
<g id="a_node11"><a xlink:href="../../dc/d9c/lgc_8h.html#aa0b753c3ed80e1eed0379ec58592c404" target="_top" xlink:title="luaC_fullgc">
<polygon fill="none" stroke="black" points="427.5,-76.5 427.5,-95.5 489.5,-95.5 489.5,-76.5 427.5,-76.5"/>
<text text-anchor="middle" x="458.5" y="-83.5" font-family="Helvetica,sans-Serif" font-size="10.00">luaC_fullgc</text>
</a>
</g>
</g>
<!-- Node4&#45;&gt;Node11 -->
<g id="edge11" class="edge"><title>Node4&#45;&gt;Node11</title>
<path fill="none" stroke="midnightblue" d="M375.225,-111.418C392.228,-106.165 411.631,-100.171 427.322,-95.3232"/>
<polygon fill="midnightblue" stroke="midnightblue" points="374.059,-108.115 365.538,-114.411 376.126,-114.803 374.059,-108.115"/>
</g>
<!-- Node13 -->
<g id="node13" class="node"><title>Node13</title>
<g id="a_node13"><a xlink:href="../../d4/dfb/lstring_8h.html#a44d549eb0ace165927a896f37330e2cd" target="_top" xlink:title="luaS_resize">
<polygon fill="none" stroke="black" points="425.5,-199.5 425.5,-218.5 491.5,-218.5 491.5,-199.5 425.5,-199.5"/>
<text text-anchor="middle" x="458.5" y="-206.5" font-family="Helvetica,sans-Serif" font-size="10.00">luaS_resize</text>
</a>
</g>
</g>
<!-- Node4&#45;&gt;Node13 -->
<g id="edge15" class="edge"><title>Node4&#45;&gt;Node13</title>
<path fill="none" stroke="midnightblue" d="M365.752,-138.23C368.586,-139.76 371.374,-141.359 374,-143 402.048,-160.53 431.696,-185.813 446.994,-199.437"/>
<polygon fill="midnightblue" stroke="midnightblue" points="367.191,-135.036 356.692,-133.617 364.015,-141.274 367.191,-135.036"/>
</g>
<!-- Node6 -->
<g id="node6" class="node"><title>Node6</title>
<g id="a_node6"><a xlink:href="../../da/dd2/lua_8h.html#a6bac487d3f900b21271e8c591bd801cd" target="_top" xlink:title="lua_gc">
<polygon fill="none" stroke="black" points="817,-19.5 817,-38.5 861,-38.5 861,-19.5 817,-19.5"/>
<text text-anchor="middle" x="839" y="-26.5" font-family="Helvetica,sans-Serif" font-size="10.00">lua_gc</text>
</a>
</g>
</g>
<!-- Node5&#45;&gt;Node6 -->
<g id="edge5" class="edge"><title>Node5&#45;&gt;Node6</title>
<path fill="none" stroke="midnightblue" d="M517.133,-29C602.767,-29 759.623,-29 816.598,-29"/>
<polygon fill="midnightblue" stroke="midnightblue" points="517.054,-25.5001 507.054,-29 517.054,-32.5001 517.054,-25.5001"/>
</g>
<!-- Node7 -->
<g id="node7" class="node"><title>Node7</title>
<g id="a_node7"><a xlink:href="../../d8/dd3/lbaselib_8c.html#a07f71966c943cc9761ab129f64d4ac80" target="_top" xlink:title="luaB_collectgarbage">
<polygon fill="none" stroke="black" points="918.5,-0.5 918.5,-19.5 1020.5,-19.5 1020.5,-0.5 918.5,-0.5"/>
<text text-anchor="middle" x="969.5" y="-7.5" font-family="Helvetica,sans-Serif" font-size="10.00">luaB_collectgarbage</text>
</a>
</g>
</g>
<!-- Node6&#45;&gt;Node7 -->
<g id="edge6" class="edge"><title>Node6&#45;&gt;Node7</title>
<path fill="none" stroke="midnightblue" d="M871.39,-24.3586C885.519,-22.2695 902.549,-19.7515 918.376,-17.4114"/>
<polygon fill="midnightblue" stroke="midnightblue" points="870.6,-20.9374 861.219,-25.8625 871.624,-27.8621 870.6,-20.9374"/>
</g>
<!-- Node9 -->
<g id="node9" class="node"><title>Node9</title>
<g id="a_node9"><a xlink:href="../../dc/d9c/lgc_8h.html#a19359957605d7c8eaf70803e5b77361f" target="_top" xlink:title="luaC_forcestep">
<polygon fill="none" stroke="black" points="683,-114.5 683,-133.5 763,-133.5 763,-114.5 683,-114.5"/>
<text text-anchor="middle" x="723" y="-121.5" font-family="Helvetica,sans-Serif" font-size="10.00">luaC_forcestep</text>
</a>
</g>
</g>
<!-- Node8&#45;&gt;Node9 -->
<g id="edge8" class="edge"><title>Node8&#45;&gt;Node9</title>
<path fill="none" stroke="midnightblue" d="M657.349,-124C666.003,-124 674.698,-124 682.78,-124"/>
<polygon fill="midnightblue" stroke="midnightblue" points="657.249,-120.5 647.249,-124 657.249,-127.5 657.249,-120.5"/>
</g>
<!-- Node9&#45;&gt;Node6 -->
<g id="edge9" class="edge"><title>Node9&#45;&gt;Node6</title>
<path fill="none" stroke="midnightblue" d="M743.494,-107.755C767.354,-87.8719 806.98,-54.8498 826.463,-38.614"/>
<polygon fill="midnightblue" stroke="midnightblue" points="741.212,-105.1 735.771,-114.191 745.694,-110.478 741.212,-105.1"/>
</g>
<!-- Node10 -->
<g id="node10" class="node"><title>Node10</title>
<g id="a_node10"><a xlink:href="../../dc/d9c/lgc_8h.html#a6c71cc4b9e503c0e96c0c4ffcff93900" target="_top" xlink:title="luaC_step">
<polygon fill="none" stroke="black" points="808.5,-114.5 808.5,-133.5 869.5,-133.5 869.5,-114.5 808.5,-114.5"/>
<text text-anchor="middle" x="839" y="-121.5" font-family="Helvetica,sans-Serif" font-size="10.00">luaC_step</text>
</a>
</g>
</g>
<!-- Node9&#45;&gt;Node10 -->
<g id="edge10" class="edge"><title>Node9&#45;&gt;Node10</title>
<path fill="none" stroke="midnightblue" d="M773.521,-124C785.42,-124 797.761,-124 808.422,-124"/>
<polygon fill="midnightblue" stroke="midnightblue" points="773.232,-120.5 763.232,-124 773.232,-127.5 773.232,-120.5"/>
</g>
<!-- Node11&#45;&gt;Node6 -->
<g id="edge12" class="edge"><title>Node11&#45;&gt;Node6</title>
<path fill="none" stroke="midnightblue" d="M499.596,-76.0586C513.305,-72.8781 528.769,-69.5296 543,-67 644.937,-48.8797 768.154,-35.8337 816.79,-31.0287"/>
<polygon fill="midnightblue" stroke="midnightblue" points="498.433,-72.7371 489.505,-78.4418 500.042,-79.5497 498.433,-72.7371"/>
</g>
<!-- Node11&#45;&gt;Node8 -->
<g id="edge13" class="edge"><title>Node11&#45;&gt;Node8</title>
<path fill="none" stroke="midnightblue" d="M499.413,-97.2766C518.732,-102.735 541.679,-109.218 560.132,-114.431"/>
<polygon fill="midnightblue" stroke="midnightblue" points="500.259,-93.8787 489.684,-94.5279 498.356,-100.615 500.259,-93.8787"/>
</g>
<!-- Node12 -->
<g id="node12" class="node"><title>Node12</title>
<g id="a_node12"><a xlink:href="../../d7/d3e/lmem_8h.html#ae7dc8a57fc5dbca825653a88a356a72d" target="_top" xlink:title="luaM_realloc_">
<polygon fill="none" stroke="black" points="558,-76.5 558,-95.5 632,-95.5 632,-76.5 558,-76.5"/>
<text text-anchor="middle" x="595" y="-83.5" font-family="Helvetica,sans-Serif" font-size="10.00">luaM_realloc_</text>
</a>
</g>
</g>
<!-- Node11&#45;&gt;Node12 -->
<g id="edge14" class="edge"><title>Node11&#45;&gt;Node12</title>
<path fill="none" stroke="midnightblue" d="M499.808,-86C518.202,-86 539.817,-86 557.699,-86"/>
<polygon fill="midnightblue" stroke="midnightblue" points="499.684,-82.5001 489.684,-86 499.684,-89.5001 499.684,-82.5001"/>
</g>
<!-- Node14 -->
<g id="node14" class="node"><title>Node14</title>
<g id="a_node14"><a xlink:href="../../de/d27/lgc_8c.html#aace8516e609d7409e789e7b2c190b9c2" target="_top" xlink:title="checkSizes">
<polygon fill="none" stroke="black" points="562.5,-266.5 562.5,-285.5 627.5,-285.5 627.5,-266.5 562.5,-266.5"/>
<text text-anchor="middle" x="595" y="-273.5" font-family="Helvetica,sans-Serif" font-size="10.00">checkSizes</text>
</a>
</g>
</g>
<!-- Node13&#45;&gt;Node14 -->
<g id="edge16" class="edge"><title>Node13&#45;&gt;Node14</title>
<path fill="none" stroke="midnightblue" d="M483.38,-224.138C499.779,-234.18 522.252,-247.253 543,-257 550.269,-260.415 558.334,-263.657 565.864,-266.464"/>
<polygon fill="midnightblue" stroke="midnightblue" points="484.828,-220.918 474.484,-218.624 481.14,-226.868 484.828,-220.918"/>
</g>
<!-- Node15 -->
<g id="node15" class="node"><title>Node15</title>
<g id="a_node15"><a xlink:href="../../dd/dca/lstate_8c.html#ab65e96a7498fd886f7223b92e91fd830" target="_top" xlink:title="f_luaopen">
<polygon fill="none" stroke="black" points="565.5,-228.5 565.5,-247.5 624.5,-247.5 624.5,-228.5 565.5,-228.5"/>
<text text-anchor="middle" x="595" y="-235.5" font-family="Helvetica,sans-Serif" font-size="10.00">f_luaopen</text>
</a>
</g>
</g>
<!-- Node13&#45;&gt;Node15 -->
<g id="edge18" class="edge"><title>Node13&#45;&gt;Node15</title>
<path fill="none" stroke="midnightblue" d="M501.543,-218.065C522.256,-222.531 546.699,-227.801 565.25,-231.801"/>
<polygon fill="midnightblue" stroke="midnightblue" points="502.229,-214.633 491.716,-215.946 500.754,-221.475 502.229,-214.633"/>
</g>
<!-- Node23 -->
<g id="node23" class="node"><title>Node23</title>
<g id="a_node23"><a xlink:href="../../d1/d2f/lstring_8c.html#a6e3c0fe3ba834ee00279a9df03f40fc4" target="_top" xlink:title="newshrstr">
<polygon fill="none" stroke="black" points="566,-190.5 566,-209.5 624,-209.5 624,-190.5 566,-190.5"/>
<text text-anchor="middle" x="595" y="-197.5" font-family="Helvetica,sans-Serif" font-size="10.00">newshrstr</text>
</a>
</g>
</g>
<!-- Node13&#45;&gt;Node23 -->
<g id="edge27" class="edge"><title>Node13&#45;&gt;Node23</title>
<path fill="none" stroke="midnightblue" d="M501.898,-206.163C522.703,-204.771 547.2,-203.132 565.698,-201.894"/>
<polygon fill="midnightblue" stroke="midnightblue" points="501.46,-202.684 491.716,-206.844 501.927,-209.669 501.46,-202.684"/>
</g>
<!-- Node14&#45;&gt;Node3 -->
<g id="edge17" class="edge"><title>Node14&#45;&gt;Node3</title>
<path fill="none" stroke="midnightblue" d="M552.443,-266.336C514.944,-257.338 458.402,-243.078 410,-228 352.859,-210.2 287.161,-185.135 252.62,-171.59"/>
<polygon fill="midnightblue" stroke="midnightblue" points="551.954,-269.818 562.493,-268.731 553.576,-263.008 551.954,-269.818"/>
</g>
<!-- Node16 -->
<g id="node16" class="node"><title>Node16</title>
<g id="a_node16"><a xlink:href="../../da/dd2/lua_8h.html#af722e4ac7fc0eba5920f59f0162c1b97" target="_top" xlink:title="lua_newstate">
<polygon fill="none" stroke="black" points="686,-258.5 686,-277.5 760,-277.5 760,-258.5 686,-258.5"/>
<text text-anchor="middle" x="723" y="-265.5" font-family="Helvetica,sans-Serif" font-size="10.00">lua_newstate</text>
</a>
</g>
</g>
<!-- Node15&#45;&gt;Node16 -->
<g id="edge19" class="edge"><title>Node15&#45;&gt;Node16</title>
<path fill="none" stroke="midnightblue" d="M634.389,-247.14C650.749,-251.035 669.736,-255.556 685.843,-259.391"/>
<polygon fill="midnightblue" stroke="midnightblue" points="635.13,-243.719 624.591,-244.807 633.509,-250.529 635.13,-243.719"/>
</g>
<!-- Node17 -->
<g id="node17" class="node"><title>Node17</title>
<g id="a_node17"><a xlink:href="../../da/d29/lauxlib_8h.html#a7d8712fcede90ae93d5a9a7b409c586e" target="_top" xlink:title="luaL_newstate">
<polygon fill="none" stroke="black" points="799,-356.5 799,-375.5 879,-375.5 879,-356.5 799,-356.5"/>
<text text-anchor="middle" x="839" y="-363.5" font-family="Helvetica,sans-Serif" font-size="10.00">luaL_newstate</text>
</a>
</g>
</g>
<!-- Node16&#45;&gt;Node17 -->
<g id="edge20" class="edge"><title>Node16&#45;&gt;Node17</title>
<path fill="none" stroke="midnightblue" d="M743.063,-284.387C766.97,-304.939 807.184,-339.509 826.698,-356.285"/>
<polygon fill="midnightblue" stroke="midnightblue" points="745.212,-281.62 735.348,-277.755 740.649,-286.928 745.212,-281.62"/>
</g>
<!-- Node22 -->
<g id="node22" class="node"><title>Node22</title>
<g id="a_node22"><a xlink:href="../../dd/dca/lstate_8c.html#a8a0fc0aca5367250347c6bb6a788f05f" target="_top" xlink:title="makeseed">
<polygon fill="none" stroke="black" points="808.5,-258.5 808.5,-277.5 869.5,-277.5 869.5,-258.5 808.5,-258.5"/>
<text text-anchor="middle" x="839" y="-265.5" font-family="Helvetica,sans-Serif" font-size="10.00">makeseed</text>
</a>
</g>
</g>
<!-- Node16&#45;&gt;Node22 -->
<g id="edge25" class="edge"><title>Node16&#45;&gt;Node22</title>
<path fill="none" stroke="midnightblue" d="M770.163,-261.36C783.018,-261.097 796.636,-261.307 808.271,-261.99"/>
<polygon fill="midnightblue" stroke="midnightblue" points="769.957,-257.864 760.07,-261.672 770.174,-264.861 769.957,-257.864"/>
</g>
<!-- Node18 -->
<g id="node18" class="node"><title>Node18</title>
<g id="a_node18"><a xlink:href="../../dc/de7/interface_kensho_lua_wrapper.html#a7d10aa0242861cdd109d3da9383882a2" target="_top" xlink:title="&#45;[KenshoLuaWrapper\l evaluate]">
<polygon fill="none" stroke="black" points="915,-381 915,-411 1024,-411 1024,-381 915,-381"/>
<text text-anchor="start" x="923" y="-399" font-family="Helvetica,sans-Serif" font-size="10.00">&#45;[KenshoLuaWrapper</text>
<text text-anchor="middle" x="969.5" y="-388" font-family="Helvetica,sans-Serif" font-size="10.00"> evaluate]</text>
</a>
</g>
</g>
<!-- Node17&#45;&gt;Node18 -->
<g id="edge21" class="edge"><title>Node17&#45;&gt;Node18</title>
<path fill="none" stroke="midnightblue" d="M889.242,-377.496C897.612,-379.45 906.341,-381.488 914.819,-383.467"/>
<polygon fill="midnightblue" stroke="midnightblue" points="889.786,-374.029 879.252,-375.164 888.195,-380.846 889.786,-374.029"/>
</g>
<!-- Node19 -->
<g id="node19" class="node"><title>Node19</title>
<g id="a_node19"><a xlink:href="../../dc/de7/interface_kensho_lua_wrapper.html#af6db46358f8858a18b55388aa3af211d" target="_top" xlink:title="&#45;[KenshoLuaWrapper\l initWithKensho:context\l:code:]">
<polygon fill="none" stroke="black" points="1060,-430.5 1060,-471.5 1174,-471.5 1174,-430.5 1060,-430.5"/>
<text text-anchor="start" x="1068" y="-459.5" font-family="Helvetica,sans-Serif" font-size="10.00">&#45;[KenshoLuaWrapper</text>
<text text-anchor="start" x="1068" y="-448.5" font-family="Helvetica,sans-Serif" font-size="10.00"> initWithKensho:context</text>
<text text-anchor="middle" x="1117" y="-437.5" font-family="Helvetica,sans-Serif" font-size="10.00">:code:]</text>
</a>
</g>
</g>
<!-- Node18&#45;&gt;Node19 -->
<g id="edge22" class="edge"><title>Node18&#45;&gt;Node19</title>
<path fill="none" stroke="midnightblue" d="M1019.8,-414.635C1033.23,-419.713 1047.86,-425.243 1061.56,-430.422"/>
<polygon fill="midnightblue" stroke="midnightblue" points="1020.85,-411.291 1010.26,-411.029 1018.37,-417.839 1020.85,-411.291"/>
</g>
<!-- Node20 -->
<g id="node20" class="node"><title>Node20</title>
<g id="a_node20"><a xlink:href="../../dc/de7/interface_kensho_lua_wrapper.html#a5555e0979799446611baee70104555c6" target="_top" xlink:title="&#45;[KenshoLuaWrapper\l evaluate:]">
<polygon fill="none" stroke="red" points="1062.5,-381 1062.5,-411 1171.5,-411 1171.5,-381 1062.5,-381"/>
<text text-anchor="start" x="1070.5" y="-399" font-family="Helvetica,sans-Serif" font-size="10.00">&#45;[KenshoLuaWrapper</text>
<text text-anchor="middle" x="1117" y="-388" font-family="Helvetica,sans-Serif" font-size="10.00"> evaluate:]</text>
</a>
</g>
</g>
<!-- Node18&#45;&gt;Node20 -->
<g id="edge23" class="edge"><title>Node18&#45;&gt;Node20</title>
<path fill="none" stroke="midnightblue" d="M1034.34,-396C1043.72,-396 1053.31,-396 1062.46,-396"/>
<polygon fill="midnightblue" stroke="midnightblue" points="1034.27,-392.5 1024.27,-396 1034.27,-399.5 1034.27,-392.5"/>
</g>
<!-- Node21 -->
<g id="node21" class="node"><title>Node21</title>
<g id="a_node21"><a xlink:href="../../dc/de7/interface_kensho_lua_wrapper.html#a0bb5e125d727942726d707f8b59009dc" target="_top" xlink:title="&#45;[KenshoLuaWrapper\l observableUpdated:]">
<polygon fill="none" stroke="black" points="1062.5,-332 1062.5,-362 1171.5,-362 1171.5,-332 1062.5,-332"/>
<text text-anchor="start" x="1070.5" y="-350" font-family="Helvetica,sans-Serif" font-size="10.00">&#45;[KenshoLuaWrapper</text>
<text text-anchor="middle" x="1117" y="-339" font-family="Helvetica,sans-Serif" font-size="10.00"> observableUpdated:]</text>
</a>
</g>
</g>
<!-- Node18&#45;&gt;Node21 -->
<g id="edge24" class="edge"><title>Node18&#45;&gt;Node21</title>
<path fill="none" stroke="midnightblue" d="M1025.15,-377.595C1040.38,-372.468 1056.73,-366.961 1071.31,-362.052"/>
<polygon fill="midnightblue" stroke="midnightblue" points="1023.7,-374.39 1015.34,-380.899 1025.94,-381.024 1023.7,-374.39"/>
</g>
<!-- Node22&#45;&gt;Node16 -->
<g id="edge26" class="edge"><title>Node22&#45;&gt;Node16</title>
<path fill="none" stroke="midnightblue" d="M798.196,-274.469C785.796,-274.886 772.199,-274.839 760.07,-274.328"/>
<polygon fill="midnightblue" stroke="midnightblue" points="798.441,-277.962 808.271,-274.01 798.122,-270.969 798.441,-277.962"/>
</g>
<!-- Node24 -->
<g id="node24" class="node"><title>Node24</title>
<g id="a_node24"><a xlink:href="../../d1/d2f/lstring_8c.html#a9b2c32c59a280de24f20df1c7f0433a1" target="_top" xlink:title="internshrstr">
<polygon fill="none" stroke="black" points="692.5,-190.5 692.5,-209.5 753.5,-209.5 753.5,-190.5 692.5,-190.5"/>
<text text-anchor="middle" x="723" y="-197.5" font-family="Helvetica,sans-Serif" font-size="10.00">internshrstr</text>
</a>
</g>
</g>
<!-- Node23&#45;&gt;Node24 -->
<g id="edge28" class="edge"><title>Node23&#45;&gt;Node24</title>
<path fill="none" stroke="midnightblue" d="M634.444,-200C652.953,-200 674.814,-200 692.061,-200"/>
<polygon fill="midnightblue" stroke="midnightblue" points="634.277,-196.5 624.277,-200 634.277,-203.5 634.277,-196.5"/>
</g>
<!-- Node25 -->
<g id="node25" class="node"><title>Node25</title>
<g id="a_node25"><a xlink:href="../../d4/dfb/lstring_8h.html#a248e72694b9116b07b2e7f4a9a3a5331" target="_top" xlink:title="luaS_newlstr">
<polygon fill="none" stroke="black" points="803.5,-190.5 803.5,-209.5 874.5,-209.5 874.5,-190.5 803.5,-190.5"/>
<text text-anchor="middle" x="839" y="-197.5" font-family="Helvetica,sans-Serif" font-size="10.00">luaS_newlstr</text>
</a>
</g>
</g>
<!-- Node24&#45;&gt;Node25 -->
<g id="edge29" class="edge"><title>Node24&#45;&gt;Node25</title>
<path fill="none" stroke="midnightblue" d="M764.035,-200C776.819,-200 790.856,-200 803.234,-200"/>
<polygon fill="midnightblue" stroke="midnightblue" points="763.655,-196.5 753.655,-200 763.655,-203.5 763.655,-196.5"/>
</g>
<!-- Node26 -->
<g id="node26" class="node"><title>Node26</title>
<g id="a_node26"><a xlink:href="../../da/dd2/lua_8h.html#a4ab8500ade8e1d8a87b1df1baf19b179" target="_top" xlink:title="lua_pushlstring">
<polygon fill="none" stroke="black" points="1210.5,-209.5 1210.5,-228.5 1290.5,-228.5 1290.5,-209.5 1210.5,-209.5"/>
<text text-anchor="middle" x="1250.5" y="-216.5" font-family="Helvetica,sans-Serif" font-size="10.00">lua_pushlstring</text>
</a>
</g>
</g>
<!-- Node25&#45;&gt;Node26 -->
<g id="edge30" class="edge"><title>Node25&#45;&gt;Node26</title>
<path fill="none" stroke="midnightblue" d="M884.892,-202.083C965.653,-205.83 1134.12,-213.646 1210.43,-217.187"/>
<polygon fill="midnightblue" stroke="midnightblue" points="884.712,-198.571 874.561,-201.604 884.388,-205.563 884.712,-198.571"/>
</g>
<!-- Node35 -->
<g id="node35" class="node"><title>Node35</title>
<g id="a_node35"><a xlink:href="../../da/dd2/lua_8h.html#a4eba0457df5bafff4d44071d1d8080b6" target="_top" xlink:title="lua_concat">
<polygon fill="none" stroke="black" points="1086,-114.5 1086,-133.5 1148,-133.5 1148,-114.5 1086,-114.5"/>
<text text-anchor="middle" x="1117" y="-121.5" font-family="Helvetica,sans-Serif" font-size="10.00">lua_concat</text>
</a>
</g>
</g>
<!-- Node25&#45;&gt;Node35 -->
<g id="edge41" class="edge"><title>Node25&#45;&gt;Node35</title>
<path fill="none" stroke="midnightblue" d="M884.418,-187.769C940.986,-172.192 1037.22,-145.692 1085.9,-132.289"/>
<polygon fill="midnightblue" stroke="midnightblue" points="883.388,-184.422 874.676,-190.452 885.246,-191.171 883.388,-184.422"/>
</g>
<!-- Node41 -->
<g id="node41" class="node"><title>Node41</title>
<g id="a_node41"><a xlink:href="../../dd/d05/lcode_8h.html#a4f928250a0f4007764b4d3777651f617" target="_top" xlink:title="luaK_numberK">
<polygon fill="none" stroke="red" points="929.5,-76.5 929.5,-95.5 1009.5,-95.5 1009.5,-76.5 929.5,-76.5"/>
<text text-anchor="middle" x="969.5" y="-83.5" font-family="Helvetica,sans-Serif" font-size="10.00">luaK_numberK</text>
</a>
</g>
</g>
<!-- Node25&#45;&gt;Node41 -->
<g id="edge49" class="edge"><title>Node25&#45;&gt;Node41</title>
<path fill="none" stroke="midnightblue" d="M852.345,-182.045C869.399,-157.676 899.78,-115.909 915,-105 920.287,-101.21 926.405,-98.1117 932.572,-95.5999"/>
<polygon fill="midnightblue" stroke="midnightblue" points="849.35,-180.223 846.521,-190.433 855.1,-184.215 849.35,-180.223"/>
</g>
<!-- Node43 -->
<g id="node43" class="node"><title>Node43</title>
<g id="a_node43"><a xlink:href="../../d8/d27/llex_8h.html#aa6e79179f823cf156f61899a09239ca6" target="_top" xlink:title="luaX_newstring">
<polygon fill="none" stroke="red" points="929,-38.5 929,-57.5 1010,-57.5 1010,-38.5 929,-38.5"/>
<text text-anchor="middle" x="969.5" y="-45.5" font-family="Helvetica,sans-Serif" font-size="10.00">luaX_newstring</text>
</a>
</g>
</g>
<!-- Node25&#45;&gt;Node43 -->
<g id="edge51" class="edge"><title>Node25&#45;&gt;Node43</title>
<path fill="none" stroke="midnightblue" d="M853.459,-181.913C861.35,-170.936 871.257,-156.485 879,-143 897.611,-110.587 887.269,-92.059 915,-67 919.315,-63.101 924.482,-59.99 929.88,-57.5109"/>
<polygon fill="midnightblue" stroke="midnightblue" points="850.465,-180.078 847.397,-190.219 856.119,-184.205 850.465,-180.078"/>
</g>
<!-- Node44 -->
<g id="node44" class="node"><title>Node44</title>
<g id="a_node44"><a xlink:href="../../d7/d9b/lobject_8c.html#aa65db03553a5abd73e466d307bb17a37" target="_top" xlink:title="pushstr">
<polygon fill="none" stroke="red" points="945.5,-342.5 945.5,-361.5 993.5,-361.5 993.5,-342.5 945.5,-342.5"/>
<text text-anchor="middle" x="969.5" y="-349.5" font-family="Helvetica,sans-Serif" font-size="10.00">pushstr</text>
</a>
</g>
</g>
<!-- Node25&#45;&gt;Node44 -->
<g id="edge52" class="edge"><title>Node25&#45;&gt;Node44</title>
<path fill="none" stroke="midnightblue" d="M855.711,-217.371C863.36,-226.384 872.323,-237.825 879,-249 899.833,-283.868 885.38,-305.207 915,-333 923.338,-340.823 935.104,-345.458 945.48,-348.187"/>
<polygon fill="midnightblue" stroke="midnightblue" points="858.108,-214.795 848.896,-209.561 852.834,-219.397 858.108,-214.795"/>
</g>
<!-- Node45 -->
<g id="node45" class="node"><title>Node45</title>
<g id="a_node45"><a xlink:href="../../d4/dfb/lstring_8h.html#a6929da8cfde3e74a0d51a6467909ef9d" target="_top" xlink:title="luaS_new">
<polygon fill="none" stroke="red" points="939.5,-304.5 939.5,-323.5 999.5,-323.5 999.5,-304.5 939.5,-304.5"/>
<text text-anchor="middle" x="969.5" y="-311.5" font-family="Helvetica,sans-Serif" font-size="10.00">luaS_new</text>
</a>
</g>
</g>
<!-- Node25&#45;&gt;Node45 -->
<g id="edge53" class="edge"><title>Node25&#45;&gt;Node45</title>
<path fill="none" stroke="midnightblue" d="M854.253,-217.835C861.653,-227.114 870.833,-238.652 879,-249 895.084,-269.379 893.931,-279.831 915,-295 922.199,-300.183 930.949,-304.07 939.269,-306.932"/>
<polygon fill="midnightblue" stroke="midnightblue" points="856.767,-215.375 847.793,-209.743 851.296,-219.742 856.767,-215.375"/>
</g>
<!-- Node46 -->
<g id="node46" class="node"><title>Node46</title>
<g id="a_node46"><a xlink:href="../../de/d2f/lundump_8c.html#abfe7dabe70bd14e27d54d3cedc6cb70a" target="_top" xlink:title="LoadString">
<polygon fill="none" stroke="red" points="938.5,-266.5 938.5,-285.5 1000.5,-285.5 1000.5,-266.5 938.5,-266.5"/>
<text text-anchor="middle" x="969.5" y="-273.5" font-family="Helvetica,sans-Serif" font-size="10.00">LoadString</text>
</a>
</g>
</g>
<!-- Node25&#45;&gt;Node46 -->
<g id="edge54" class="edge"><title>Node25&#45;&gt;Node46</title>
<path fill="none" stroke="midnightblue" d="M858.171,-216.379C872.715,-228.83 894.074,-245.688 915,-257 922.283,-260.937 930.547,-264.336 938.364,-267.126"/>
<polygon fill="midnightblue" stroke="midnightblue" points="860.283,-213.577 850.45,-209.633 855.678,-218.848 860.283,-213.577"/>
</g>
<!-- Node47 -->
<g id="node47" class="node"><title>Node47</title>
<g id="a_node47"><a xlink:href="../../d5/dcd/lvm_8h.html#abcde68a7697547dc2c7f1d0e6734e611" target="_top" xlink:title="luaV_tostring">
<polygon fill="none" stroke="red" points="934,-228.5 934,-247.5 1005,-247.5 1005,-228.5 934,-228.5"/>
<text text-anchor="middle" x="969.5" y="-235.5" font-family="Helvetica,sans-Serif" font-size="10.00">luaV_tostring</text>
</a>
</g>
</g>
<!-- Node25&#45;&gt;Node47 -->
<g id="edge55" class="edge"><title>Node25&#45;&gt;Node47</title>
<path fill="none" stroke="midnightblue" d="M882.389,-212.535C899.87,-217.705 919.802,-223.599 936.084,-228.414"/>
<polygon fill="midnightblue" stroke="midnightblue" points="883.008,-209.069 872.426,-209.589 881.023,-215.781 883.008,-209.069"/>
</g>
<!-- Node48 -->
<g id="node48" class="node"><title>Node48</title>
<g id="a_node48"><a xlink:href="../../d5/dcd/lvm_8h.html#aee84bfc563cb4bdd21a013218a289aa7" target="_top" xlink:title="luaV_concat">
<polygon fill="none" stroke="red" points="935,-114.5 935,-133.5 1004,-133.5 1004,-114.5 935,-114.5"/>
<text text-anchor="middle" x="969.5" y="-121.5" font-family="Helvetica,sans-Serif" font-size="10.00">luaV_concat</text>
</a>
</g>
</g>
<!-- Node25&#45;&gt;Node48 -->
<g id="edge56" class="edge"><title>Node25&#45;&gt;Node48</title>
<path fill="none" stroke="midnightblue" d="M860.621,-184.158C875.322,-173.253 895.805,-158.837 915,-148 924.397,-142.695 935.184,-137.668 944.6,-133.599"/>
<polygon fill="midnightblue" stroke="midnightblue" points="858.167,-181.623 852.277,-190.43 862.374,-187.218 858.167,-181.623"/>
</g>
<!-- Node27 -->
<g id="node27" class="node"><title>Node27</title>
<g id="a_node27"><a xlink:href="../../da/d29/lauxlib_8h.html#aac5dfab9ba0ced4f5ae3b22aa35faffe" target="_top" xlink:title="luaL_pushresult">
<polygon fill="none" stroke="red" points="1331.5,-247.5 1331.5,-266.5 1414.5,-266.5 1414.5,-247.5 1331.5,-247.5"/>
<text text-anchor="middle" x="1373" y="-254.5" font-family="Helvetica,sans-Serif" font-size="10.00">luaL_pushresult</text>
</a>
</g>
</g>
<!-- Node26&#45;&gt;Node27 -->
<g id="edge31" class="edge"><title>Node26&#45;&gt;Node27</title>
<path fill="none" stroke="midnightblue" d="M1291.71,-231.68C1307.99,-236.815 1326.48,-242.644 1341.6,-247.414"/>
<polygon fill="midnightblue" stroke="midnightblue" points="1292.5,-228.259 1281.91,-228.589 1290.39,-234.935 1292.5,-228.259"/>
</g>
<!-- Node28 -->
<g id="node28" class="node"><title>Node28</title>
<g id="a_node28"><a xlink:href="../../de/df3/liolib_8c.html#ace61fce0bdea311d6d7c2206881165c7" target="_top" xlink:title="test_eof">
<polygon fill="none" stroke="red" points="1348,-209.5 1348,-228.5 1398,-228.5 1398,-209.5 1348,-209.5"/>
<text text-anchor="middle" x="1373" y="-216.5" font-family="Helvetica,sans-Serif" font-size="10.00">test_eof</text>
</a>
</g>
</g>
<!-- Node26&#45;&gt;Node28 -->
<g id="edge32" class="edge"><title>Node26&#45;&gt;Node28</title>
<path fill="none" stroke="midnightblue" d="M1301.03,-219C1317.17,-219 1334.38,-219 1347.8,-219"/>
<polygon fill="midnightblue" stroke="midnightblue" points="1300.62,-215.5 1290.62,-219 1300.62,-222.5 1300.62,-215.5"/>
</g>
<!-- Node29 -->
<g id="node29" class="node"><title>Node29</title>
<g id="a_node29"><a xlink:href="../../d2/d82/loadlib_8c.html#aa1ea5ee1b54a06650a887c4ee05a8547" target="_top" xlink:title="pushnexttemplate">
<polygon fill="none" stroke="red" points="1327,-171.5 1327,-190.5 1419,-190.5 1419,-171.5 1327,-171.5"/>
<text text-anchor="middle" x="1373" y="-178.5" font-family="Helvetica,sans-Serif" font-size="10.00">pushnexttemplate</text>
</a>
</g>
</g>
<!-- Node26&#45;&gt;Node29 -->
<g id="edge33" class="edge"><title>Node26&#45;&gt;Node29</title>
<path fill="none" stroke="midnightblue" d="M1291.71,-206.32C1307.99,-201.185 1326.48,-195.356 1341.6,-190.586"/>
<polygon fill="midnightblue" stroke="midnightblue" points="1290.39,-203.065 1281.91,-209.411 1292.5,-209.741 1290.39,-203.065"/>
</g>
<!-- Node30 -->
<g id="node30" class="node"><title>Node30</title>
<g id="a_node30"><a xlink:href="../../d2/d82/loadlib_8c.html#a91ac5b5231cf039af46226806dcc3884" target="_top" xlink:title="loadfunc">
<polygon fill="none" stroke="red" points="1347,-361.5 1347,-380.5 1399,-380.5 1399,-361.5 1347,-361.5"/>
<text text-anchor="middle" x="1373" y="-368.5" font-family="Helvetica,sans-Serif" font-size="10.00">loadfunc</text>
</a>
</g>
</g>
<!-- Node26&#45;&gt;Node30 -->
<g id="edge34" class="edge"><title>Node26&#45;&gt;Node30</title>
<path fill="none" stroke="midnightblue" d="M1258.79,-238.008C1269.97,-265.085 1293.61,-315.016 1327,-347 1333.14,-352.88 1341,-357.725 1348.43,-361.484"/>
<polygon fill="midnightblue" stroke="midnightblue" points="1261.96,-236.517 1255.01,-228.529 1255.46,-239.114 1261.96,-236.517"/>
</g>
<!-- Node31 -->
<g id="node31" class="node"><title>Node31</title>
<g id="a_node31"><a xlink:href="../../d2/d82/loadlib_8c.html#a1ec05cd98a045c271aeda9f9c6041e1c" target="_top" xlink:title="searcher_Croot">
<polygon fill="none" stroke="red" points="1455,-342.5 1455,-361.5 1535,-361.5 1535,-342.5 1455,-342.5"/>
<text text-anchor="middle" x="1495" y="-349.5" font-family="Helvetica,sans-Serif" font-size="10.00">searcher_Croot</text>
</a>
</g>
</g>
<!-- Node26&#45;&gt;Node31 -->
<g id="edge36" class="edge"><title>Node26&#45;&gt;Node31</title>
<path fill="none" stroke="midnightblue" d="M1261.08,-237.516C1273.35,-259.308 1296.69,-294.934 1327,-314 1366.01,-338.54 1419,-347.294 1454.75,-350.382"/>
<polygon fill="midnightblue" stroke="midnightblue" points="1264.08,-235.709 1256.24,-228.586 1257.93,-239.045 1264.08,-235.709"/>
</g>
<!-- Node32 -->
<g id="node32" class="node"><title>Node32</title>
<g id="a_node32"><a xlink:href="../../dc/d77/lstrlib_8c.html#a039b391d5f43533a0ce750c5e40d7752" target="_top" xlink:title="str_sub">
<polygon fill="none" stroke="black" points="1349,-285.5 1349,-304.5 1397,-304.5 1397,-285.5 1349,-285.5"/>
<text text-anchor="middle" x="1373" y="-292.5" font-family="Helvetica,sans-Serif" font-size="10.00">str_sub</text>
</a>
</g>
</g>
<!-- Node26&#45;&gt;Node32 -->
<g id="edge37" class="edge"><title>Node26&#45;&gt;Node32</title>
<path fill="none" stroke="midnightblue" d="M1270.51,-235.456C1285.25,-247.677 1306.54,-264.203 1327,-276 1333.76,-279.898 1341.47,-283.448 1348.58,-286.397"/>
<polygon fill="midnightblue" stroke="midnightblue" points="1272.55,-232.595 1262.65,-228.825 1268.04,-237.947 1272.55,-232.595"/>
</g>
<!-- Node33 -->
<g id="node33" class="node"><title>Node33</title>
<g id="a_node33"><a xlink:href="../../dc/d77/lstrlib_8c.html#a24a14b4e6e90bac4610dd334bb0b51b6" target="_top" xlink:title="push_onecapture">
<polygon fill="none" stroke="red" points="1327.5,-95.5 1327.5,-114.5 1418.5,-114.5 1418.5,-95.5 1327.5,-95.5"/>
<text text-anchor="middle" x="1373" y="-102.5" font-family="Helvetica,sans-Serif" font-size="10.00">push_onecapture</text>
</a>
</g>
</g>
<!-- Node26&#45;&gt;Node33 -->
<g id="edge38" class="edge"><title>Node26&#45;&gt;Node33</title>
<path fill="none" stroke="midnightblue" d="M1286.39,-203.935C1288.02,-202.708 1289.57,-201.398 1291,-200 1316.28,-175.246 1302.24,-154.275 1327,-129 1332.82,-123.054 1340.44,-118.239 1347.74,-114.526"/>
<polygon fill="midnightblue" stroke="midnightblue" points="1284.33,-201.099 1277.73,-209.387 1288.06,-207.023 1284.33,-201.099"/>
</g>
<!-- Node34 -->
<g id="node34" class="node"><title>Node34</title>
<g id="a_node34"><a xlink:href="../../dc/d77/lstrlib_8c.html#ad24cfa73e5ad25ec99a1b48f0916471e" target="_top" xlink:title="add_value">
<polygon fill="none" stroke="red" points="1464,-95.5 1464,-114.5 1526,-114.5 1526,-95.5 1464,-95.5"/>
<text text-anchor="middle" x="1495" y="-102.5" font-family="Helvetica,sans-Serif" font-size="10.00">add_value</text>
</a>
</g>
</g>
<!-- Node26&#45;&gt;Node34 -->
<g id="edge40" class="edge"><title>Node26&#45;&gt;Node34</title>
<path fill="none" stroke="midnightblue" d="M1283.92,-204.629C1286.38,-203.173 1288.77,-201.626 1291,-200 1309.79,-186.287 1307.42,-174.567 1327,-162 1350.01,-147.23 1422.12,-125.345 1463.68,-113.448"/>
<polygon fill="midnightblue" stroke="midnightblue" points="1282.02,-201.679 1274.87,-209.495 1285.33,-207.846 1282.02,-201.679"/>
</g>
<!-- Node30&#45;&gt;Node31 -->
<g id="edge35" class="edge"><title>Node30&#45;&gt;Node31</title>
<path fill="none" stroke="midnightblue" d="M1409.1,-365.442C1423.4,-363.178 1440,-360.55 1454.7,-358.222"/>
<polygon fill="midnightblue" stroke="midnightblue" points="1408.49,-361.996 1399.16,-367.017 1409.58,-368.91 1408.49,-361.996"/>
</g>
<!-- Node33&#45;&gt;Node34 -->
<g id="edge39" class="edge"><title>Node33&#45;&gt;Node34</title>
<path fill="none" stroke="midnightblue" d="M1428.72,-105C1440.8,-105 1453.17,-105 1463.85,-105"/>
<polygon fill="midnightblue" stroke="midnightblue" points="1428.68,-101.5 1418.68,-105 1428.68,-108.5 1428.68,-101.5"/>
</g>
<!-- Node36 -->
<g id="node36" class="node"><title>Node36</title>
<g id="a_node36"><a xlink:href="../../d0/d56/lauxlib_8c.html#a36c8f149b779f8c9a5c042ea9784d80a" target="_top" xlink:title="findfield">
<polygon fill="none" stroke="red" points="1227,-57.5 1227,-76.5 1274,-76.5 1274,-57.5 1227,-57.5"/>
<text text-anchor="middle" x="1250.5" y="-64.5" font-family="Helvetica,sans-Serif" font-size="10.00">findfield</text>
</a>
</g>
</g>
<!-- Node35&#45;&gt;Node36 -->
<g id="edge42" class="edge"><title>Node35&#45;&gt;Node36</title>
<path fill="none" stroke="midnightblue" d="M1157.95,-111.314C1163.4,-109.333 1168.87,-107.207 1174,-105 1190.62,-97.8489 1193.85,-94.1448 1210,-86 1216.25,-82.8482 1223.11,-79.5079 1229.33,-76.5217"/>
<polygon fill="midnightblue" stroke="midnightblue" points="1156.55,-108.097 1148.27,-114.707 1158.86,-114.704 1156.55,-108.097"/>
</g>
<!-- Node37 -->
<g id="node37" class="node"><title>Node37</title>
<g id="a_node37"><a xlink:href="../../da/d29/lauxlib_8h.html#a664cc293d6c7a7dc67857fe95583a10e" target="_top" xlink:title="luaL_traceback">
<polygon fill="none" stroke="red" points="1210,-19.5 1210,-38.5 1291,-38.5 1291,-19.5 1210,-19.5"/>
<text text-anchor="middle" x="1250.5" y="-26.5" font-family="Helvetica,sans-Serif" font-size="10.00">luaL_traceback</text>
</a>
</g>
</g>
<!-- Node35&#45;&gt;Node37 -->
<g id="edge43" class="edge"><title>Node35&#45;&gt;Node37</title>
<path fill="none" stroke="midnightblue" d="M1157.83,-114.294C1163.59,-111.838 1169.2,-108.785 1174,-105 1197.54,-86.4572 1187.63,-67.9347 1210,-48 1214.09,-44.3548 1219,-41.257 1223.96,-38.6872"/>
<polygon fill="midnightblue" stroke="midnightblue" points="1156.25,-111.145 1148.08,-117.887 1158.67,-117.713 1156.25,-111.145"/>
</g>
<!-- Node38 -->
<g id="node38" class="node"><title>Node38</title>
<g id="a_node38"><a xlink:href="../../da/d29/lauxlib_8h.html#a994f73d7985c30672469a260d9e86ae6" target="_top" xlink:title="luaL_error">
<polygon fill="none" stroke="red" points="1222,-95.5 1222,-114.5 1279,-114.5 1279,-95.5 1222,-95.5"/>
<text text-anchor="middle" x="1250.5" y="-102.5" font-family="Helvetica,sans-Serif" font-size="10.00">luaL_error</text>
</a>
</g>
</g>
<!-- Node35&#45;&gt;Node38 -->
<g id="edge44" class="edge"><title>Node35&#45;&gt;Node38</title>
<path fill="none" stroke="midnightblue" d="M1158.2,-118.191C1178.76,-115.22 1203.27,-111.679 1221.72,-109.015"/>
<polygon fill="midnightblue" stroke="midnightblue" points="1157.57,-114.747 1148.17,-119.641 1158.57,-121.675 1157.57,-114.747"/>
</g>
<!-- Node39 -->
<g id="node39" class="node"><title>Node39</title>
<g id="a_node39"><a xlink:href="../../d8/dd3/lbaselib_8c.html#a2ecfa987569d0b4c1063f3e204e42dd2" target="_top" xlink:title="luaB_error">
<polygon fill="none" stroke="black" points="1221,-171.5 1221,-190.5 1280,-190.5 1280,-171.5 1221,-171.5"/>
<text text-anchor="middle" x="1250.5" y="-178.5" font-family="Helvetica,sans-Serif" font-size="10.00">luaB_error</text>
</a>
</g>
</g>
<!-- Node35&#45;&gt;Node39 -->
<g id="edge47" class="edge"><title>Node35&#45;&gt;Node39</title>
<path fill="none" stroke="midnightblue" d="M1149.42,-137.618C1173.48,-148.046 1206.06,-162.17 1227.42,-171.428"/>
<polygon fill="midnightblue" stroke="midnightblue" points="1150.58,-134.306 1140.01,-133.541 1147.79,-140.729 1150.58,-134.306"/>
</g>
<!-- Node40 -->
<g id="node40" class="node"><title>Node40</title>
<g id="a_node40"><a xlink:href="../../df/d2d/lcorolib_8c.html#a777abb20385a69ce4787f72bd90375a7" target="_top" xlink:title="luaB_auxwrap">
<polygon fill="none" stroke="red" points="1210.5,-133.5 1210.5,-152.5 1290.5,-152.5 1290.5,-133.5 1210.5,-133.5"/>
<text text-anchor="middle" x="1250.5" y="-140.5" font-family="Helvetica,sans-Serif" font-size="10.00">luaB_auxwrap</text>
</a>
</g>
</g>
<!-- Node35&#45;&gt;Node40 -->
<g id="edge48" class="edge"><title>Node35&#45;&gt;Node40</title>
<path fill="none" stroke="midnightblue" d="M1158.14,-129.799C1174.76,-132.201 1193.98,-134.978 1210.48,-137.362"/>
<polygon fill="midnightblue" stroke="midnightblue" points="1158.57,-126.325 1148.17,-128.359 1157.57,-133.253 1158.57,-126.325"/>
</g>
<!-- Node38&#45;&gt;Node33 -->
<g id="edge46" class="edge"><title>Node38&#45;&gt;Node33</title>
<path fill="none" stroke="midnightblue" d="M1289.36,-105C1301.45,-105 1314.96,-105 1327.48,-105"/>
<polygon fill="midnightblue" stroke="midnightblue" points="1289.15,-101.5 1279.15,-105 1289.15,-108.5 1289.15,-101.5"/>
</g>
<!-- Node38&#45;&gt;Node34 -->
<g id="edge45" class="edge"><title>Node38&#45;&gt;Node34</title>
<path fill="none" stroke="midnightblue" d="M1288.89,-93.6556C1300.93,-90.523 1314.42,-87.558 1327,-86 1367.58,-80.9725 1378.43,-80.9405 1419,-86 1433.93,-87.8615 1450.15,-91.7309 1463.68,-95.495"/>
<polygon fill="midnightblue" stroke="midnightblue" points="1287.89,-90.2996 1279.16,-96.2991 1289.72,-97.0547 1287.89,-90.2996"/>
</g>
<!-- Node42 -->
<g id="node42" class="node"><title>Node42</title>
<g id="a_node42"><a xlink:href="../../d8/d7a/lcode_8c.html#a961993a449bc9612ac966652646ffad6" target="_top" xlink:title="discharge2reg">
<polygon fill="none" stroke="red" points="1079.5,-76.5 1079.5,-95.5 1154.5,-95.5 1154.5,-76.5 1079.5,-76.5"/>
<text text-anchor="middle" x="1117" y="-83.5" font-family="Helvetica,sans-Serif" font-size="10.00">discharge2reg</text>
</a>
</g>
</g>
<!-- Node41&#45;&gt;Node42 -->
<g id="edge50" class="edge"><title>Node41&#45;&gt;Node42</title>
<path fill="none" stroke="midnightblue" d="M1020.03,-86C1039.38,-86 1061.17,-86 1079.1,-86"/>
<polygon fill="midnightblue" stroke="midnightblue" points="1019.87,-82.5001 1009.87,-86 1019.87,-89.5001 1019.87,-82.5001"/>
</g>
<!-- Node48&#45;&gt;Node35 -->
<g id="edge57" class="edge"><title>Node48&#45;&gt;Node35</title>
<path fill="none" stroke="midnightblue" d="M1014.49,-124C1037.58,-124 1065.27,-124 1085.9,-124"/>
<polygon fill="midnightblue" stroke="midnightblue" points="1014.25,-120.5 1004.25,-124 1014.25,-127.5 1014.25,-120.5"/>
</g>
<!-- Node49&#45;&gt;Node9 -->
<g id="edge59" class="edge"><title>Node49&#45;&gt;Node9</title>
<path fill="none" stroke="midnightblue" d="M367.233,-162.02C424.362,-161.607 545.837,-158.747 647,-143 661.201,-140.789 676.634,-137.108 689.787,-133.57"/>
<polygon fill="midnightblue" stroke="midnightblue" points="366.993,-158.521 357.011,-162.072 367.029,-165.521 366.993,-158.521"/>
</g>
<!-- Node50&#45;&gt;Node3 -->
<g id="edge61" class="edge"><title>Node50&#45;&gt;Node3</title>
<path fill="none" stroke="midnightblue" d="M172.048,-151.956C180.913,-153.591 189.894,-155.247 197.937,-156.731"/>
<polygon fill="midnightblue" stroke="midnightblue" points="172.615,-148.501 162.146,-150.129 171.346,-155.385 172.615,-148.501"/>
</g>
</g>
</svg>
