<?xml version="1.0" encoding="UTF-8" standalone="no"?>
<!DOCTYPE svg PUBLIC "-//W3C//DTD SVG 1.1//EN"
 "http://www.w3.org/Graphics/SVG/1.1/DTD/svg11.dtd">
<!-- Generated by graphviz version 2.38.0 (20140413.2041)
 -->
<!-- Title: dothecall Pages: 1 -->
<svg width="1387pt" height="317pt"
 viewBox="0.00 0.00 1387.00 316.78" xmlns="http://www.w3.org/2000/svg" xmlns:xlink="http://www.w3.org/1999/xlink">
<g id="graph0" class="graph" transform="scale(1 1) rotate(0) translate(4 312.777)">
<title>dothecall</title>
<!-- Node1 -->
<g id="node1" class="node"><title>Node1</title>
<polygon fill="#bfbfbf" stroke="black" points="0,-33.2769 0,-52.2769 53,-52.2769 53,-33.2769 0,-33.2769"/>
<text text-anchor="middle" x="26.5" y="-40.2769" font-family="Helvetica,sans-Serif" font-size="10.00">dothecall</text>
</g>
<!-- Node2 -->
<g id="node2" class="node"><title>Node2</title>
<g id="a_node2"><a xlink:href="../../de/d27/lgc_8c.html#ab9ec6b56580b9e66f41743e393e7e033" target="_top" xlink:title="GCTM">
<polygon fill="none" stroke="black" points="89,-33.2769 89,-52.2769 135,-52.2769 135,-33.2769 89,-33.2769"/>
<text text-anchor="middle" x="112" y="-40.2769" font-family="Helvetica,sans-Serif" font-size="10.00">GCTM</text>
</a>
</g>
</g>
<!-- Node1&#45;&gt;Node2 -->
<g id="edge1" class="edge"><title>Node1&#45;&gt;Node2</title>
<path fill="none" stroke="midnightblue" d="M63.2835,-42.7769C71.9349,-42.7769 80.9353,-42.7769 88.7572,-42.7769"/>
<polygon fill="midnightblue" stroke="midnightblue" points="63.0065,-39.277 53.0065,-42.7769 63.0064,-46.277 63.0065,-39.277"/>
</g>
<!-- Node3 -->
<g id="node3" class="node"><title>Node3</title>
<g id="a_node3"><a xlink:href="../../de/d27/lgc_8c.html#a74f50e6006422d43686521fe765152dd" target="_top" xlink:title="callallpendingfinalizers">
<polygon fill="none" stroke="black" points="171,-71.2769 171,-90.2769 280,-90.2769 280,-71.2769 171,-71.2769"/>
<text text-anchor="middle" x="225.5" y="-78.2769" font-family="Helvetica,sans-Serif" font-size="10.00">callallpendingfinalizers</text>
</a>
</g>
</g>
<!-- Node2&#45;&gt;Node3 -->
<g id="edge2" class="edge"><title>Node2&#45;&gt;Node3</title>
<path fill="none" stroke="midnightblue" d="M144.7,-53.5804C161.046,-59.1515 180.806,-65.8857 196.573,-71.2592"/>
<polygon fill="midnightblue" stroke="midnightblue" points="145.623,-50.1976 135.029,-50.2845 143.365,-56.8233 145.623,-50.1976"/>
</g>
<!-- Node21 -->
<g id="node21" class="node"><title>Node21</title>
<g id="a_node21"><a xlink:href="../../dc/d9c/lgc_8h.html#a19359957605d7c8eaf70803e5b77361f" target="_top" xlink:title="luaC_forcestep">
<polygon fill="none" stroke="black" points="589,-71.2769 589,-90.2769 669,-90.2769 669,-71.2769 589,-71.2769"/>
<text text-anchor="middle" x="629" y="-78.2769" font-family="Helvetica,sans-Serif" font-size="10.00">luaC_forcestep</text>
</a>
</g>
</g>
<!-- Node2&#45;&gt;Node21 -->
<g id="edge26" class="edge"><title>Node2&#45;&gt;Node21</title>
<path fill="none" stroke="midnightblue" d="M144.985,-33.7415C219.09,-14.4253 407.326,25.2973 553,-23.7769 580.898,-33.175 606.643,-57.5369 619.471,-71.1736"/>
<polygon fill="midnightblue" stroke="midnightblue" points="144.065,-30.3645 135.303,-36.3203 145.867,-37.1287 144.065,-30.3645"/>
</g>
<!-- Node4 -->
<g id="node4" class="node"><title>Node4</title>
<g id="a_node4"><a xlink:href="../../dc/d9c/lgc_8h.html#a9aa52a500c9cc2076edb1707e6d8a045" target="_top" xlink:title="luaC_freeallobjects">
<polygon fill="none" stroke="black" points="316,-128.277 316,-147.277 413,-147.277 413,-128.277 316,-128.277"/>
<text text-anchor="middle" x="364.5" y="-135.277" font-family="Helvetica,sans-Serif" font-size="10.00">luaC_freeallobjects</text>
</a>
</g>
</g>
<!-- Node3&#45;&gt;Node4 -->
<g id="edge3" class="edge"><title>Node3&#45;&gt;Node4</title>
<path fill="none" stroke="midnightblue" d="M258.898,-94.2562C283.994,-104.698 318.142,-118.905 340.494,-128.205"/>
<polygon fill="midnightblue" stroke="midnightblue" points="260.008,-90.9274 249.431,-90.3175 257.319,-97.3903 260.008,-90.9274"/>
</g>
<!-- Node17 -->
<g id="node17" class="node"><title>Node17</title>
<g id="a_node17"><a xlink:href="../../dc/d9c/lgc_8h.html#aa0b753c3ed80e1eed0379ec58592c404" target="_top" xlink:title="luaC_fullgc">
<polygon fill="none" stroke="black" points="333.5,-71.2769 333.5,-90.2769 395.5,-90.2769 395.5,-71.2769 333.5,-71.2769"/>
<text text-anchor="middle" x="364.5" y="-78.2769" font-family="Helvetica,sans-Serif" font-size="10.00">luaC_fullgc</text>
</a>
</g>
</g>
<!-- Node3&#45;&gt;Node17 -->
<g id="edge18" class="edge"><title>Node3&#45;&gt;Node17</title>
<path fill="none" stroke="midnightblue" d="M290.488,-80.7769C305.389,-80.7769 320.576,-80.7769 333.212,-80.7769"/>
<polygon fill="midnightblue" stroke="midnightblue" points="290.253,-77.277 280.253,-80.7769 290.253,-84.277 290.253,-77.277"/>
</g>
<!-- Node5 -->
<g id="node5" class="node"><title>Node5</title>
<g id="a_node5"><a xlink:href="../../dd/dca/lstate_8c.html#a4940327dfa3b86df0ef008180bb3fcb3" target="_top" xlink:title="close_state">
<polygon fill="none" stroke="black" points="468.5,-147.277 468.5,-166.277 533.5,-166.277 533.5,-147.277 468.5,-147.277"/>
<text text-anchor="middle" x="501" y="-154.277" font-family="Helvetica,sans-Serif" font-size="10.00">close_state</text>
</a>
</g>
</g>
<!-- Node4&#45;&gt;Node5 -->
<g id="edge4" class="edge"><title>Node4&#45;&gt;Node5</title>
<path fill="none" stroke="midnightblue" d="M423.316,-145.944C438.763,-148.126 454.887,-150.404 468.341,-152.305"/>
<polygon fill="midnightblue" stroke="midnightblue" points="423.69,-142.462 413.298,-144.529 422.71,-149.394 423.69,-142.462"/>
</g>
<!-- Node6 -->
<g id="node6" class="node"><title>Node6</title>
<g id="a_node6"><a xlink:href="../../da/dd2/lua_8h.html#af722e4ac7fc0eba5920f59f0162c1b97" target="_top" xlink:title="lua_newstate">
<polygon fill="none" stroke="black" points="592,-185.277 592,-204.277 666,-204.277 666,-185.277 592,-185.277"/>
<text text-anchor="middle" x="629" y="-192.277" font-family="Helvetica,sans-Serif" font-size="10.00">lua_newstate</text>
</a>
</g>
</g>
<!-- Node5&#45;&gt;Node6 -->
<g id="edge5" class="edge"><title>Node5&#45;&gt;Node6</title>
<path fill="none" stroke="midnightblue" d="M543.564,-169.312C560.705,-174.482 580.25,-180.376 596.215,-185.191"/>
<polygon fill="midnightblue" stroke="midnightblue" points="544.38,-165.902 533.795,-166.366 542.359,-172.604 544.38,-165.902"/>
</g>
<!-- Node15 -->
<g id="node15" class="node"><title>Node15</title>
<g id="a_node15"><a xlink:href="../../da/dd2/lua_8h.html#afe030a97e84f24dfab3afb598faa2fff" target="_top" xlink:title="lua_close">
<polygon fill="none" stroke="black" points="601,-147.277 601,-166.277 657,-166.277 657,-147.277 601,-147.277"/>
<text text-anchor="middle" x="629" y="-154.277" font-family="Helvetica,sans-Serif" font-size="10.00">lua_close</text>
</a>
</g>
</g>
<!-- Node5&#45;&gt;Node15 -->
<g id="edge16" class="edge"><title>Node5&#45;&gt;Node15</title>
<path fill="none" stroke="midnightblue" d="M543.891,-156.777C562.678,-156.777 584.297,-156.777 600.912,-156.777"/>
<polygon fill="midnightblue" stroke="midnightblue" points="543.795,-153.277 533.795,-156.777 543.795,-160.277 543.795,-153.277"/>
</g>
<!-- Node7 -->
<g id="node7" class="node"><title>Node7</title>
<g id="a_node7"><a xlink:href="../../da/d29/lauxlib_8h.html#a7d8712fcede90ae93d5a9a7b409c586e" target="_top" xlink:title="luaL_newstate">
<polygon fill="none" stroke="black" points="705,-223.277 705,-242.277 785,-242.277 785,-223.277 705,-223.277"/>
<text text-anchor="middle" x="745" y="-230.277" font-family="Helvetica,sans-Serif" font-size="10.00">luaL_newstate</text>
</a>
</g>
</g>
<!-- Node6&#45;&gt;Node7 -->
<g id="edge6" class="edge"><title>Node6&#45;&gt;Node7</title>
<path fill="none" stroke="midnightblue" d="M668.478,-207.603C683.774,-212.702 701.067,-218.466 715.242,-223.191"/>
<polygon fill="midnightblue" stroke="midnightblue" points="669.361,-204.208 658.767,-204.366 667.147,-210.849 669.361,-204.208"/>
</g>
<!-- Node14 -->
<g id="node14" class="node"><title>Node14</title>
<g id="a_node14"><a xlink:href="../../dd/dca/lstate_8c.html#a8a0fc0aca5367250347c6bb6a788f05f" target="_top" xlink:title="makeseed">
<polygon fill="none" stroke="black" points="714.5,-185.277 714.5,-204.277 775.5,-204.277 775.5,-185.277 714.5,-185.277"/>
<text text-anchor="middle" x="745" y="-192.277" font-family="Helvetica,sans-Serif" font-size="10.00">makeseed</text>
</a>
</g>
</g>
<!-- Node6&#45;&gt;Node14 -->
<g id="edge14" class="edge"><title>Node6&#45;&gt;Node14</title>
<path fill="none" stroke="midnightblue" d="M676.163,-188.137C689.018,-187.874 702.636,-188.084 714.271,-188.767"/>
<polygon fill="midnightblue" stroke="midnightblue" points="675.957,-184.641 666.07,-188.449 676.174,-191.638 675.957,-184.641"/>
</g>
<!-- Node8 -->
<g id="node8" class="node"><title>Node8</title>
<g id="a_node8"><a xlink:href="../../dc/de7/interface_kensho_lua_wrapper.html#a7d10aa0242861cdd109d3da9383882a2" target="_top" xlink:title="&#45;[KenshoLuaWrapper\l evaluate]">
<polygon fill="none" stroke="black" points="821,-217.777 821,-247.777 930,-247.777 930,-217.777 821,-217.777"/>
<text text-anchor="start" x="829" y="-235.777" font-family="Helvetica,sans-Serif" font-size="10.00">&#45;[KenshoLuaWrapper</text>
<text text-anchor="middle" x="875.5" y="-224.777" font-family="Helvetica,sans-Serif" font-size="10.00"> evaluate]</text>
</a>
</g>
</g>
<!-- Node7&#45;&gt;Node8 -->
<g id="edge7" class="edge"><title>Node7&#45;&gt;Node8</title>
<path fill="none" stroke="midnightblue" d="M795.518,-232.777C803.804,-232.777 812.435,-232.777 820.819,-232.777"/>
<polygon fill="midnightblue" stroke="midnightblue" points="795.252,-229.277 785.252,-232.777 795.252,-236.277 795.252,-229.277"/>
</g>
<!-- Node9 -->
<g id="node9" class="node"><title>Node9</title>
<g id="a_node9"><a xlink:href="../../dc/de7/interface_kensho_lua_wrapper.html#af6db46358f8858a18b55388aa3af211d" target="_top" xlink:title="&#45;[KenshoLuaWrapper\l initWithKensho:context\l:code:]">
<polygon fill="none" stroke="black" points="966,-267.277 966,-308.277 1080,-308.277 1080,-267.277 966,-267.277"/>
<text text-anchor="start" x="974" y="-296.277" font-family="Helvetica,sans-Serif" font-size="10.00">&#45;[KenshoLuaWrapper</text>
<text text-anchor="start" x="974" y="-285.277" font-family="Helvetica,sans-Serif" font-size="10.00"> initWithKensho:context</text>
<text text-anchor="middle" x="1023" y="-274.277" font-family="Helvetica,sans-Serif" font-size="10.00">:code:]</text>
</a>
</g>
</g>
<!-- Node8&#45;&gt;Node9 -->
<g id="edge8" class="edge"><title>Node8&#45;&gt;Node9</title>
<path fill="none" stroke="midnightblue" d="M925.799,-251.412C939.233,-256.49 953.861,-262.02 967.563,-267.199"/>
<polygon fill="midnightblue" stroke="midnightblue" points="926.85,-248.068 916.259,-247.806 924.375,-254.616 926.85,-248.068"/>
</g>
<!-- Node10 -->
<g id="node10" class="node"><title>Node10</title>
<g id="a_node10"><a xlink:href="../../dc/de7/interface_kensho_lua_wrapper.html#a5555e0979799446611baee70104555c6" target="_top" xlink:title="&#45;[KenshoLuaWrapper\l evaluate:]">
<polygon fill="none" stroke="black" points="968.5,-217.777 968.5,-247.777 1077.5,-247.777 1077.5,-217.777 968.5,-217.777"/>
<text text-anchor="start" x="976.5" y="-235.777" font-family="Helvetica,sans-Serif" font-size="10.00">&#45;[KenshoLuaWrapper</text>
<text text-anchor="middle" x="1023" y="-224.777" font-family="Helvetica,sans-Serif" font-size="10.00"> evaluate:]</text>
</a>
</g>
</g>
<!-- Node8&#45;&gt;Node10 -->
<g id="edge9" class="edge"><title>Node8&#45;&gt;Node10</title>
<path fill="none" stroke="midnightblue" d="M940.339,-232.777C949.723,-232.777 959.307,-232.777 968.456,-232.777"/>
<polygon fill="midnightblue" stroke="midnightblue" points="940.265,-229.277 930.265,-232.777 940.265,-236.277 940.265,-229.277"/>
</g>
<!-- Node13 -->
<g id="node13" class="node"><title>Node13</title>
<g id="a_node13"><a xlink:href="../../dc/de7/interface_kensho_lua_wrapper.html#a0bb5e125d727942726d707f8b59009dc" target="_top" xlink:title="&#45;[KenshoLuaWrapper\l observableUpdated:]">
<polygon fill="none" stroke="black" points="968.5,-168.777 968.5,-198.777 1077.5,-198.777 1077.5,-168.777 968.5,-168.777"/>
<text text-anchor="start" x="976.5" y="-186.777" font-family="Helvetica,sans-Serif" font-size="10.00">&#45;[KenshoLuaWrapper</text>
<text text-anchor="middle" x="1023" y="-175.777" font-family="Helvetica,sans-Serif" font-size="10.00"> observableUpdated:]</text>
</a>
</g>
</g>
<!-- Node8&#45;&gt;Node13 -->
<g id="edge13" class="edge"><title>Node8&#45;&gt;Node13</title>
<path fill="none" stroke="midnightblue" d="M931.153,-214.371C946.376,-209.245 962.729,-203.738 977.306,-198.829"/>
<polygon fill="midnightblue" stroke="midnightblue" points="929.702,-211.167 921.342,-217.675 931.936,-217.801 929.702,-211.167"/>
</g>
<!-- Node11 -->
<g id="node11" class="node"><title>Node11</title>
<g id="a_node11"><a xlink:href="../../da/d0b/interface_kensho.html#a07b4d14db676108e1a94a1f10e100fb4" target="_top" xlink:title="&#45;[Kensho bindToView\l:context:]">
<polygon fill="none" stroke="black" points="1116,-217.777 1116,-247.777 1224,-247.777 1224,-217.777 1116,-217.777"/>
<text text-anchor="start" x="1124" y="-235.777" font-family="Helvetica,sans-Serif" font-size="10.00">&#45;[Kensho bindToView</text>
<text text-anchor="middle" x="1170" y="-224.777" font-family="Helvetica,sans-Serif" font-size="10.00">:context:]</text>
</a>
</g>
</g>
<!-- Node10&#45;&gt;Node11 -->
<g id="edge10" class="edge"><title>Node10&#45;&gt;Node11</title>
<path fill="none" stroke="midnightblue" d="M1087.62,-232.777C1096.97,-232.777 1106.52,-232.777 1115.64,-232.777"/>
<polygon fill="midnightblue" stroke="midnightblue" points="1087.58,-229.277 1077.58,-232.777 1087.58,-236.277 1087.58,-229.277"/>
</g>
<!-- Node11&#45;&gt;Node11 -->
<g id="edge12" class="edge"><title>Node11&#45;&gt;Node11</title>
<path fill="none" stroke="midnightblue" d="M1144.06,-258.235C1147.28,-262.956 1155.92,-266.277 1170,-266.277 1193.1,-266.277 1201.58,-257.334 1195.44,-247.936"/>
<polygon fill="midnightblue" stroke="midnightblue" points="1147.57,-258.094 1144.56,-247.936 1140.58,-257.755 1147.57,-258.094"/>
</g>
<!-- Node12 -->
<g id="node12" class="node"><title>Node12</title>
<g id="a_node12"><a xlink:href="../../da/d0b/interface_kensho.html#a1019e8223ee907bab87501ae483e609f" target="_top" xlink:title="&#45;[Kensho applyBindings\l:viewModel:]">
<polygon fill="none" stroke="black" points="1260,-217.777 1260,-247.777 1379,-247.777 1379,-217.777 1260,-217.777"/>
<text text-anchor="start" x="1268" y="-235.777" font-family="Helvetica,sans-Serif" font-size="10.00">&#45;[Kensho applyBindings</text>
<text text-anchor="middle" x="1319.5" y="-224.777" font-family="Helvetica,sans-Serif" font-size="10.00">:viewModel:]</text>
</a>
</g>
</g>
<!-- Node11&#45;&gt;Node12 -->
<g id="edge11" class="edge"><title>Node11&#45;&gt;Node12</title>
<path fill="none" stroke="midnightblue" d="M1234.42,-232.777C1242.86,-232.777 1251.48,-232.777 1259.83,-232.777"/>
<polygon fill="midnightblue" stroke="midnightblue" points="1234.25,-229.277 1224.25,-232.777 1234.25,-236.277 1234.25,-229.277"/>
</g>
<!-- Node14&#45;&gt;Node6 -->
<g id="edge15" class="edge"><title>Node14&#45;&gt;Node6</title>
<path fill="none" stroke="midnightblue" d="M704.196,-201.246C691.796,-201.663 678.199,-201.616 666.07,-201.105"/>
<polygon fill="midnightblue" stroke="midnightblue" points="704.441,-204.739 714.271,-200.787 704.122,-197.746 704.441,-204.739"/>
</g>
<!-- Node16 -->
<g id="node16" class="node"><title>Node16</title>
<g id="a_node16"><a xlink:href="../../dc/dba/loslib_8c.html#a905e81425fe3d6d0b363c10162a2a37b" target="_top" xlink:title="os_exit">
<polygon fill="none" stroke="black" points="721.5,-147.277 721.5,-166.277 768.5,-166.277 768.5,-147.277 721.5,-147.277"/>
<text text-anchor="middle" x="745" y="-154.277" font-family="Helvetica,sans-Serif" font-size="10.00">os_exit</text>
</a>
</g>
</g>
<!-- Node15&#45;&gt;Node16 -->
<g id="edge17" class="edge"><title>Node15&#45;&gt;Node16</title>
<path fill="none" stroke="midnightblue" d="M667.145,-156.777C685.042,-156.777 705.922,-156.777 721.399,-156.777"/>
<polygon fill="midnightblue" stroke="midnightblue" points="667.016,-153.277 657.016,-156.777 667.016,-160.277 667.016,-153.277"/>
</g>
<!-- Node18 -->
<g id="node18" class="node"><title>Node18</title>
<g id="a_node18"><a xlink:href="../../da/dd2/lua_8h.html#a6bac487d3f900b21271e8c591bd801cd" target="_top" xlink:title="lua_gc">
<polygon fill="none" stroke="black" points="723,-109.277 723,-128.277 767,-128.277 767,-109.277 723,-109.277"/>
<text text-anchor="middle" x="745" y="-116.277" font-family="Helvetica,sans-Serif" font-size="10.00">lua_gc</text>
</a>
</g>
</g>
<!-- Node17&#45;&gt;Node18 -->
<g id="edge19" class="edge"><title>Node17&#45;&gt;Node18</title>
<path fill="none" stroke="midnightblue" d="M405.849,-91.3227C419.468,-94.5164 434.813,-97.7194 449,-99.7769 550.834,-114.546 674.11,-117.835 722.775,-118.568"/>
<polygon fill="midnightblue" stroke="midnightblue" points="406.361,-87.8458 395.819,-88.9014 404.718,-94.6504 406.361,-87.8458"/>
</g>
<!-- Node20 -->
<g id="node20" class="node"><title>Node20</title>
<g id="a_node20"><a xlink:href="../../de/d27/lgc_8c.html#a87bb9d2ca4bed013c39258f8abd61689" target="_top" xlink:title="generationalcollection">
<polygon fill="none" stroke="black" points="449,-71.2769 449,-90.2769 553,-90.2769 553,-71.2769 449,-71.2769"/>
<text text-anchor="middle" x="501" y="-78.2769" font-family="Helvetica,sans-Serif" font-size="10.00">generationalcollection</text>
</a>
</g>
</g>
<!-- Node17&#45;&gt;Node20 -->
<g id="edge21" class="edge"><title>Node17&#45;&gt;Node20</title>
<path fill="none" stroke="midnightblue" d="M406.053,-80.7769C419.5,-80.7769 434.648,-80.7769 448.79,-80.7769"/>
<polygon fill="midnightblue" stroke="midnightblue" points="405.684,-77.277 395.684,-80.7769 405.684,-84.277 405.684,-77.277"/>
</g>
<!-- Node23 -->
<g id="node23" class="node"><title>Node23</title>
<g id="a_node23"><a xlink:href="../../d7/d3e/lmem_8h.html#ae7dc8a57fc5dbca825653a88a356a72d" target="_top" xlink:title="luaM_realloc_">
<polygon fill="none" stroke="black" points="464,-33.2769 464,-52.2769 538,-52.2769 538,-33.2769 464,-33.2769"/>
<text text-anchor="middle" x="501" y="-40.2769" font-family="Helvetica,sans-Serif" font-size="10.00">luaM_realloc_</text>
</a>
</g>
</g>
<!-- Node17&#45;&gt;Node23 -->
<g id="edge25" class="edge"><title>Node17&#45;&gt;Node23</title>
<path fill="none" stroke="midnightblue" d="M405.413,-69.5003C424.732,-64.0421 447.679,-57.5592 466.132,-52.3456"/>
<polygon fill="midnightblue" stroke="midnightblue" points="404.356,-66.1619 395.684,-72.249 406.259,-72.8982 404.356,-66.1619"/>
</g>
<!-- Node19 -->
<g id="node19" class="node"><title>Node19</title>
<g id="a_node19"><a xlink:href="../../d8/dd3/lbaselib_8c.html#a07f71966c943cc9761ab129f64d4ac80" target="_top" xlink:title="luaB_collectgarbage">
<polygon fill="none" stroke="black" points="824.5,-109.277 824.5,-128.277 926.5,-128.277 926.5,-109.277 824.5,-109.277"/>
<text text-anchor="middle" x="875.5" y="-116.277" font-family="Helvetica,sans-Serif" font-size="10.00">luaB_collectgarbage</text>
</a>
</g>
</g>
<!-- Node18&#45;&gt;Node19 -->
<g id="edge20" class="edge"><title>Node18&#45;&gt;Node19</title>
<path fill="none" stroke="midnightblue" d="M777.39,-118.777C791.519,-118.777 808.549,-118.777 824.376,-118.777"/>
<polygon fill="midnightblue" stroke="midnightblue" points="777.219,-115.277 767.219,-118.777 777.219,-122.277 777.219,-115.277"/>
</g>
<!-- Node20&#45;&gt;Node21 -->
<g id="edge22" class="edge"><title>Node20&#45;&gt;Node21</title>
<path fill="none" stroke="midnightblue" d="M563.349,-80.7769C572.003,-80.7769 580.698,-80.7769 588.78,-80.7769"/>
<polygon fill="midnightblue" stroke="midnightblue" points="563.249,-77.277 553.249,-80.7769 563.249,-84.277 563.249,-77.277"/>
</g>
<!-- Node21&#45;&gt;Node18 -->
<g id="edge23" class="edge"><title>Node21&#45;&gt;Node18</title>
<path fill="none" stroke="midnightblue" d="M668.501,-93.6106C686.639,-99.6566 707.58,-106.637 722.8,-111.71"/>
<polygon fill="midnightblue" stroke="midnightblue" points="669.361,-90.2079 658.767,-90.3659 667.147,-96.8487 669.361,-90.2079"/>
</g>
<!-- Node22 -->
<g id="node22" class="node"><title>Node22</title>
<g id="a_node22"><a xlink:href="../../dc/d9c/lgc_8h.html#a6c71cc4b9e503c0e96c0c4ffcff93900" target="_top" xlink:title="luaC_step">
<polygon fill="none" stroke="black" points="714.5,-71.2769 714.5,-90.2769 775.5,-90.2769 775.5,-71.2769 714.5,-71.2769"/>
<text text-anchor="middle" x="745" y="-78.2769" font-family="Helvetica,sans-Serif" font-size="10.00">luaC_step</text>
</a>
</g>
</g>
<!-- Node21&#45;&gt;Node22 -->
<g id="edge24" class="edge"><title>Node21&#45;&gt;Node22</title>
<path fill="none" stroke="midnightblue" d="M679.521,-80.7769C691.42,-80.7769 703.761,-80.7769 714.422,-80.7769"/>
<polygon fill="midnightblue" stroke="midnightblue" points="679.232,-77.277 669.232,-80.7769 679.232,-84.277 679.232,-77.277"/>
</g>
</g>
</svg>
