<?xml version="1.0" encoding="UTF-8" standalone="no"?>
<!DOCTYPE svg PUBLIC "-//W3C//DTD SVG 1.1//EN"
 "http://www.w3.org/Graphics/SVG/1.1/DTD/svg11.dtd">
<!-- Generated by graphviz version 2.38.0 (20140413.2041)
 -->
<!-- Title: traverseCclosure Pages: 1 -->
<svg width="1777pt" height="560pt"
 viewBox="0.00 0.00 1777.00 560.00" xmlns="http://www.w3.org/2000/svg" xmlns:xlink="http://www.w3.org/1999/xlink">
<g id="graph0" class="graph" transform="scale(1 1) rotate(0) translate(4 556)">
<title>traverseCclosure</title>
<!-- Node1 -->
<g id="node1" class="node"><title>Node1</title>
<polygon fill="#bfbfbf" stroke="black" points="0,-418.5 0,-437.5 87,-437.5 87,-418.5 0,-418.5"/>
<text text-anchor="middle" x="43.5" y="-425.5" font-family="Helvetica,sans-Serif" font-size="10.00">traverseCclosure</text>
</g>
<!-- Node2 -->
<g id="node2" class="node"><title>Node2</title>
<g id="a_node2"><a xlink:href="../../de/d27/lgc_8c.html#accb36b237a98cbde36fa5bcf16a4ec1f" target="_top" xlink:title="propagatemark">
<polygon fill="none" stroke="black" points="123,-418.5 123,-437.5 204,-437.5 204,-418.5 123,-418.5"/>
<text text-anchor="middle" x="163.5" y="-425.5" font-family="Helvetica,sans-Serif" font-size="10.00">propagatemark</text>
</a>
</g>
</g>
<!-- Node1&#45;&gt;Node2 -->
<g id="edge1" class="edge"><title>Node1&#45;&gt;Node2</title>
<path fill="none" stroke="midnightblue" d="M97.3588,-428C105.879,-428 114.571,-428 122.715,-428"/>
<polygon fill="midnightblue" stroke="midnightblue" points="97.1007,-424.5 87.1007,-428 97.1007,-431.5 97.1007,-424.5"/>
</g>
<!-- Node3 -->
<g id="node3" class="node"><title>Node3</title>
<g id="a_node3"><a xlink:href="../../de/d27/lgc_8c.html#a9a291e8a23c3611b6c79d792fe421f5c" target="_top" xlink:title="propagateall">
<polygon fill="none" stroke="black" points="240,-456.5 240,-475.5 310,-475.5 310,-456.5 240,-456.5"/>
<text text-anchor="middle" x="275" y="-463.5" font-family="Helvetica,sans-Serif" font-size="10.00">propagateall</text>
</a>
</g>
</g>
<!-- Node2&#45;&gt;Node3 -->
<g id="edge2" class="edge"><title>Node2&#45;&gt;Node3</title>
<path fill="none" stroke="midnightblue" d="M201.879,-440.972C216.468,-446.034 232.892,-451.734 246.377,-456.414"/>
<polygon fill="midnightblue" stroke="midnightblue" points="202.726,-437.561 192.131,-437.589 200.431,-444.174 202.726,-437.561"/>
</g>
<!-- Node5 -->
<g id="node5" class="node"><title>Node5</title>
<g id="a_node5"><a xlink:href="../../de/d27/lgc_8c.html#ae34e22198155f5d365fe500d3735c150" target="_top" xlink:title="singlestep">
<polygon fill="none" stroke="black" points="676,-427.5 676,-446.5 735,-446.5 735,-427.5 676,-427.5"/>
<text text-anchor="middle" x="705.5" y="-434.5" font-family="Helvetica,sans-Serif" font-size="10.00">singlestep</text>
</a>
</g>
</g>
<!-- Node2&#45;&gt;Node5 -->
<g id="edge62" class="edge"><title>Node2&#45;&gt;Node5</title>
<path fill="none" stroke="midnightblue" d="M207.766,-415.816C251.095,-404.702 319.87,-390 380.5,-390 380.5,-390 380.5,-390 507.5,-390 571.494,-390 644.066,-413.755 680.675,-427.489"/>
<polygon fill="midnightblue" stroke="midnightblue" points="206.641,-412.493 197.853,-418.411 208.413,-419.265 206.641,-412.493"/>
</g>
<!-- Node4 -->
<g id="node4" class="node"><title>Node4</title>
<g id="a_node4"><a xlink:href="../../de/d27/lgc_8c.html#aeeb04d4803ad9d53a05a8605130a31d0" target="_top" xlink:title="atomic">
<polygon fill="none" stroke="black" points="596,-475.5 596,-494.5 640,-494.5 640,-475.5 596,-475.5"/>
<text text-anchor="middle" x="618" y="-482.5" font-family="Helvetica,sans-Serif" font-size="10.00">atomic</text>
</a>
</g>
</g>
<!-- Node3&#45;&gt;Node4 -->
<g id="edge3" class="edge"><title>Node3&#45;&gt;Node4</title>
<path fill="none" stroke="midnightblue" d="M319.898,-475.831C328.514,-477.462 337.512,-478.959 346,-480 438.479,-491.343 550.018,-488.131 595.812,-486.093"/>
<polygon fill="midnightblue" stroke="midnightblue" points="320.502,-472.382 310.013,-473.873 319.142,-479.249 320.502,-472.382"/>
</g>
<!-- Node48 -->
<g id="node48" class="node"><title>Node48</title>
<g id="a_node48"><a xlink:href="../../de/d27/lgc_8c.html#a467150a6e5a6ef4402432c4964817ffc" target="_top" xlink:title="convergeephemerons">
<polygon fill="none" stroke="black" points="453,-532.5 453,-551.5 560,-551.5 560,-532.5 453,-532.5"/>
<text text-anchor="middle" x="506.5" y="-539.5" font-family="Helvetica,sans-Serif" font-size="10.00">convergeephemerons</text>
</a>
</g>
</g>
<!-- Node3&#45;&gt;Node48 -->
<g id="edge56" class="edge"><title>Node3&#45;&gt;Node48</title>
<path fill="none" stroke="midnightblue" d="M293.349,-482.731C306.665,-494.555 326.09,-509.719 346,-518 379.871,-532.087 420.843,-538.041 452.78,-540.497"/>
<polygon fill="midnightblue" stroke="midnightblue" points="295.632,-480.076 285.898,-475.892 290.899,-485.233 295.632,-480.076"/>
</g>
<!-- Node49 -->
<g id="node49" class="node"><title>Node49</title>
<g id="a_node49"><a xlink:href="../../de/d27/lgc_8c.html#ab03267de3dc98eae16e7af8b88b1f9aa" target="_top" xlink:title="propagatelist">
<polygon fill="none" stroke="black" points="346,-418.5 346,-437.5 417,-437.5 417,-418.5 346,-418.5"/>
<text text-anchor="middle" x="381.5" y="-425.5" font-family="Helvetica,sans-Serif" font-size="10.00">propagatelist</text>
</a>
</g>
</g>
<!-- Node3&#45;&gt;Node49 -->
<g id="edge58" class="edge"><title>Node3&#45;&gt;Node49</title>
<path fill="none" stroke="midnightblue" d="M312.074,-452.882C325.896,-447.856 341.393,-442.221 354.139,-437.586"/>
<polygon fill="midnightblue" stroke="midnightblue" points="310.572,-449.704 302.37,-456.411 312.964,-456.283 310.572,-449.704"/>
</g>
<!-- Node50 -->
<g id="node50" class="node"><title>Node50</title>
<g id="a_node50"><a xlink:href="../../de/d27/lgc_8c.html#aa6acc790e5954f9a3652a7b0c70f8f2c" target="_top" xlink:title="retraversegrays">
<polygon fill="none" stroke="black" points="465.5,-456.5 465.5,-475.5 547.5,-475.5 547.5,-456.5 465.5,-456.5"/>
<text text-anchor="middle" x="506.5" y="-463.5" font-family="Helvetica,sans-Serif" font-size="10.00">retraversegrays</text>
</a>
</g>
</g>
<!-- Node3&#45;&gt;Node50 -->
<g id="edge61" class="edge"><title>Node3&#45;&gt;Node50</title>
<path fill="none" stroke="midnightblue" d="M320.579,-466C362.61,-466 425.029,-466 465.495,-466"/>
<polygon fill="midnightblue" stroke="midnightblue" points="320.359,-462.5 310.358,-466 320.358,-469.5 320.359,-462.5"/>
</g>
<!-- Node4&#45;&gt;Node5 -->
<g id="edge4" class="edge"><title>Node4&#45;&gt;Node5</title>
<path fill="none" stroke="midnightblue" d="M645.301,-470.234C659.043,-462.52 675.459,-453.304 687.515,-446.535"/>
<polygon fill="midnightblue" stroke="midnightblue" points="643.309,-467.339 636.302,-475.286 646.735,-473.443 643.309,-467.339"/>
</g>
<!-- Node6 -->
<g id="node6" class="node"><title>Node6</title>
<g id="a_node6"><a xlink:href="../../de/d27/lgc_8c.html#a7515a46e25b277cbbe7febb4d06b196a" target="_top" xlink:title="incstep">
<polygon fill="none" stroke="black" points="788,-522.5 788,-541.5 835,-541.5 835,-522.5 788,-522.5"/>
<text text-anchor="middle" x="811.5" y="-529.5" font-family="Helvetica,sans-Serif" font-size="10.00">incstep</text>
</a>
</g>
</g>
<!-- Node5&#45;&gt;Node6 -->
<g id="edge5" class="edge"><title>Node5&#45;&gt;Node6</title>
<path fill="none" stroke="midnightblue" d="M724.857,-453.769C746.681,-473.704 782.356,-506.292 799.975,-522.386"/>
<polygon fill="midnightblue" stroke="midnightblue" points="726.982,-450.969 717.238,-446.809 722.261,-456.137 726.982,-450.969"/>
</g>
<!-- Node11 -->
<g id="node11" class="node"><title>Node11</title>
<g id="a_node11"><a xlink:href="../../dc/d9c/lgc_8h.html#a1da32357417ce5766ed5e3ada033c32f" target="_top" xlink:title="luaC_runtilstate">
<polygon fill="none" stroke="black" points="771,-427.5 771,-446.5 852,-446.5 852,-427.5 771,-427.5"/>
<text text-anchor="middle" x="811.5" y="-434.5" font-family="Helvetica,sans-Serif" font-size="10.00">luaC_runtilstate</text>
</a>
</g>
</g>
<!-- Node5&#45;&gt;Node11 -->
<g id="edge10" class="edge"><title>Node5&#45;&gt;Node11</title>
<path fill="none" stroke="midnightblue" d="M745.33,-437C753.587,-437 762.317,-437 770.613,-437"/>
<polygon fill="midnightblue" stroke="midnightblue" points="745.194,-433.5 735.194,-437 745.194,-440.5 745.194,-433.5"/>
</g>
<!-- Node7 -->
<g id="node7" class="node"><title>Node7</title>
<g id="a_node7"><a xlink:href="../../dc/d9c/lgc_8h.html#a19359957605d7c8eaf70803e5b77361f" target="_top" xlink:title="luaC_forcestep">
<polygon fill="none" stroke="black" points="1161,-517.5 1161,-536.5 1241,-536.5 1241,-517.5 1161,-517.5"/>
<text text-anchor="middle" x="1201" y="-524.5" font-family="Helvetica,sans-Serif" font-size="10.00">luaC_forcestep</text>
</a>
</g>
</g>
<!-- Node6&#45;&gt;Node7 -->
<g id="edge6" class="edge"><title>Node6&#45;&gt;Node7</title>
<path fill="none" stroke="midnightblue" d="M845.588,-537.127C902.784,-545.177 1023.74,-558.626 1125,-546 1139.93,-544.138 1156.15,-540.269 1169.68,-536.505"/>
<polygon fill="midnightblue" stroke="midnightblue" points="845.744,-533.613 835.346,-535.646 844.742,-540.541 845.744,-533.613"/>
</g>
<!-- Node8 -->
<g id="node8" class="node"><title>Node8</title>
<g id="a_node8"><a xlink:href="../../da/dd2/lua_8h.html#a6bac487d3f900b21271e8c591bd801cd" target="_top" xlink:title="lua_gc">
<polygon fill="none" stroke="black" points="1295,-441.5 1295,-460.5 1339,-460.5 1339,-441.5 1295,-441.5"/>
<text text-anchor="middle" x="1317" y="-448.5" font-family="Helvetica,sans-Serif" font-size="10.00">lua_gc</text>
</a>
</g>
</g>
<!-- Node7&#45;&gt;Node8 -->
<g id="edge7" class="edge"><title>Node7&#45;&gt;Node8</title>
<path fill="none" stroke="midnightblue" d="M1224.89,-511.741C1247.81,-496.458 1282.38,-473.412 1301.68,-460.547"/>
<polygon fill="midnightblue" stroke="midnightblue" points="1222.82,-508.915 1216.44,-517.375 1226.7,-514.74 1222.82,-508.915"/>
</g>
<!-- Node10 -->
<g id="node10" class="node"><title>Node10</title>
<g id="a_node10"><a xlink:href="../../dc/d9c/lgc_8h.html#a6c71cc4b9e503c0e96c0c4ffcff93900" target="_top" xlink:title="luaC_step">
<polygon fill="none" stroke="black" points="1286.5,-517.5 1286.5,-536.5 1347.5,-536.5 1347.5,-517.5 1286.5,-517.5"/>
<text text-anchor="middle" x="1317" y="-524.5" font-family="Helvetica,sans-Serif" font-size="10.00">luaC_step</text>
</a>
</g>
</g>
<!-- Node7&#45;&gt;Node10 -->
<g id="edge9" class="edge"><title>Node7&#45;&gt;Node10</title>
<path fill="none" stroke="midnightblue" d="M1251.52,-527C1263.42,-527 1275.76,-527 1286.42,-527"/>
<polygon fill="midnightblue" stroke="midnightblue" points="1251.23,-523.5 1241.23,-527 1251.23,-530.5 1251.23,-523.5"/>
</g>
<!-- Node9 -->
<g id="node9" class="node"><title>Node9</title>
<g id="a_node9"><a xlink:href="../../d8/dd3/lbaselib_8c.html#a07f71966c943cc9761ab129f64d4ac80" target="_top" xlink:title="luaB_collectgarbage">
<polygon fill="none" stroke="black" points="1396.5,-441.5 1396.5,-460.5 1498.5,-460.5 1498.5,-441.5 1396.5,-441.5"/>
<text text-anchor="middle" x="1447.5" y="-448.5" font-family="Helvetica,sans-Serif" font-size="10.00">luaB_collectgarbage</text>
</a>
</g>
</g>
<!-- Node8&#45;&gt;Node9 -->
<g id="edge8" class="edge"><title>Node8&#45;&gt;Node9</title>
<path fill="none" stroke="midnightblue" d="M1349.39,-451C1363.52,-451 1380.55,-451 1396.38,-451"/>
<polygon fill="midnightblue" stroke="midnightblue" points="1349.22,-447.5 1339.22,-451 1349.22,-454.5 1349.22,-447.5"/>
</g>
<!-- Node12 -->
<g id="node12" class="node"><title>Node12</title>
<g id="a_node12"><a xlink:href="../../dc/d9c/lgc_8h.html#af016fe72ab7e564d7d55e7e4fb659041" target="_top" xlink:title="luaC_changemode">
<polygon fill="none" stroke="black" points="888,-408.5 888,-427.5 985,-427.5 985,-408.5 888,-408.5"/>
<text text-anchor="middle" x="936.5" y="-415.5" font-family="Helvetica,sans-Serif" font-size="10.00">luaC_changemode</text>
</a>
</g>
</g>
<!-- Node11&#45;&gt;Node12 -->
<g id="edge11" class="edge"><title>Node11&#45;&gt;Node12</title>
<path fill="none" stroke="midnightblue" d="M862.204,-429.322C870.655,-428.017 879.413,-426.664 887.81,-425.367"/>
<polygon fill="midnightblue" stroke="midnightblue" points="861.443,-425.898 852.095,-430.884 862.512,-432.816 861.443,-425.898"/>
</g>
<!-- Node13 -->
<g id="node13" class="node"><title>Node13</title>
<g id="a_node13"><a xlink:href="../../de/d27/lgc_8c.html#a87bb9d2ca4bed013c39258f8abd61689" target="_top" xlink:title="generationalcollection">
<polygon fill="none" stroke="black" points="1021,-517.5 1021,-536.5 1125,-536.5 1125,-517.5 1021,-517.5"/>
<text text-anchor="middle" x="1073" y="-524.5" font-family="Helvetica,sans-Serif" font-size="10.00">generationalcollection</text>
</a>
</g>
</g>
<!-- Node11&#45;&gt;Node13 -->
<g id="edge13" class="edge"><title>Node11&#45;&gt;Node13</title>
<path fill="none" stroke="midnightblue" d="M829.838,-453.909C844.231,-466.942 865.859,-484.322 888,-494 930.525,-512.587 982.954,-520.706 1020.95,-524.252"/>
<polygon fill="midnightblue" stroke="midnightblue" points="831.95,-451.092 822.251,-446.829 827.174,-456.21 831.95,-451.092"/>
</g>
<!-- Node14 -->
<g id="node14" class="node"><title>Node14</title>
<g id="a_node14"><a xlink:href="../../dc/d9c/lgc_8h.html#aa0b753c3ed80e1eed0379ec58592c404" target="_top" xlink:title="luaC_fullgc">
<polygon fill="none" stroke="black" points="905.5,-465.5 905.5,-484.5 967.5,-484.5 967.5,-465.5 905.5,-465.5"/>
<text text-anchor="middle" x="936.5" y="-472.5" font-family="Helvetica,sans-Serif" font-size="10.00">luaC_fullgc</text>
</a>
</g>
</g>
<!-- Node11&#45;&gt;Node14 -->
<g id="edge15" class="edge"><title>Node11&#45;&gt;Node14</title>
<path fill="none" stroke="midnightblue" d="M853.225,-449.582C870.228,-454.835 889.631,-460.829 905.322,-465.677"/>
<polygon fill="midnightblue" stroke="midnightblue" points="854.126,-446.197 843.538,-446.589 852.059,-452.885 854.126,-446.197"/>
</g>
<!-- Node16 -->
<g id="node16" class="node"><title>Node16</title>
<g id="a_node16"><a xlink:href="../../d4/dfb/lstring_8h.html#a44d549eb0ace165927a896f37330e2cd" target="_top" xlink:title="luaS_resize">
<polygon fill="none" stroke="black" points="903.5,-356.5 903.5,-375.5 969.5,-375.5 969.5,-356.5 903.5,-356.5"/>
<text text-anchor="middle" x="936.5" y="-363.5" font-family="Helvetica,sans-Serif" font-size="10.00">luaS_resize</text>
</a>
</g>
</g>
<!-- Node11&#45;&gt;Node16 -->
<g id="edge19" class="edge"><title>Node11&#45;&gt;Node16</title>
<path fill="none" stroke="midnightblue" d="M837.75,-422.425C861.986,-408.435 897.903,-387.702 918.782,-375.65"/>
<polygon fill="midnightblue" stroke="midnightblue" points="835.999,-419.394 829.088,-427.425 839.499,-425.457 835.999,-419.394"/>
</g>
<!-- Node12&#45;&gt;Node8 -->
<g id="edge12" class="edge"><title>Node12&#45;&gt;Node8</title>
<path fill="none" stroke="midnightblue" d="M995.133,-423.025C1080.77,-430.491 1237.62,-444.167 1294.6,-449.134"/>
<polygon fill="midnightblue" stroke="midnightblue" points="995.32,-419.528 985.054,-422.146 994.712,-426.501 995.32,-419.528"/>
</g>
<!-- Node13&#45;&gt;Node7 -->
<g id="edge14" class="edge"><title>Node13&#45;&gt;Node7</title>
<path fill="none" stroke="midnightblue" d="M1135.35,-527C1144,-527 1152.7,-527 1160.78,-527"/>
<polygon fill="midnightblue" stroke="midnightblue" points="1135.25,-523.5 1125.25,-527 1135.25,-530.5 1135.25,-523.5"/>
</g>
<!-- Node14&#45;&gt;Node8 -->
<g id="edge16" class="edge"><title>Node14&#45;&gt;Node8</title>
<path fill="none" stroke="midnightblue" d="M977.672,-472.453C1057.54,-467.388 1233.83,-456.21 1294.78,-452.346"/>
<polygon fill="midnightblue" stroke="midnightblue" points="977.275,-468.971 967.517,-473.097 977.718,-475.957 977.275,-468.971"/>
</g>
<!-- Node14&#45;&gt;Node13 -->
<g id="edge17" class="edge"><title>Node14&#45;&gt;Node13</title>
<path fill="none" stroke="midnightblue" d="M970.75,-488.315C986.03,-494.389 1004.41,-501.631 1021,-508 1029.12,-511.115 1037.98,-514.445 1046.02,-517.433"/>
<polygon fill="midnightblue" stroke="midnightblue" points="971.791,-484.962 961.206,-484.513 969.201,-491.465 971.791,-484.962"/>
</g>
<!-- Node15 -->
<g id="node15" class="node"><title>Node15</title>
<g id="a_node15"><a xlink:href="../../d7/d3e/lmem_8h.html#ae7dc8a57fc5dbca825653a88a356a72d" target="_top" xlink:title="luaM_realloc_">
<polygon fill="none" stroke="black" points="1036,-479.5 1036,-498.5 1110,-498.5 1110,-479.5 1036,-479.5"/>
<text text-anchor="middle" x="1073" y="-486.5" font-family="Helvetica,sans-Serif" font-size="10.00">luaM_realloc_</text>
</a>
</g>
</g>
<!-- Node14&#45;&gt;Node15 -->
<g id="edge18" class="edge"><title>Node14&#45;&gt;Node15</title>
<path fill="none" stroke="midnightblue" d="M977.808,-479.196C996.202,-481.11 1017.82,-483.36 1035.7,-485.221"/>
<polygon fill="midnightblue" stroke="midnightblue" points="977.993,-475.696 967.684,-478.142 977.268,-482.658 977.993,-475.696"/>
</g>
<!-- Node17 -->
<g id="node17" class="node"><title>Node17</title>
<g id="a_node17"><a xlink:href="../../de/d27/lgc_8c.html#aace8516e609d7409e789e7b2c190b9c2" target="_top" xlink:title="checkSizes">
<polygon fill="none" stroke="black" points="1040.5,-289.5 1040.5,-308.5 1105.5,-308.5 1105.5,-289.5 1040.5,-289.5"/>
<text text-anchor="middle" x="1073" y="-296.5" font-family="Helvetica,sans-Serif" font-size="10.00">checkSizes</text>
</a>
</g>
</g>
<!-- Node16&#45;&gt;Node17 -->
<g id="edge20" class="edge"><title>Node16&#45;&gt;Node17</title>
<path fill="none" stroke="midnightblue" d="M961.38,-350.862C977.779,-340.82 1000.25,-327.747 1021,-318 1028.27,-314.585 1036.33,-311.343 1043.86,-308.536"/>
<polygon fill="midnightblue" stroke="midnightblue" points="959.14,-348.132 952.484,-356.376 962.828,-354.082 959.14,-348.132"/>
</g>
<!-- Node18 -->
<g id="node18" class="node"><title>Node18</title>
<g id="a_node18"><a xlink:href="../../dd/dca/lstate_8c.html#ab65e96a7498fd886f7223b92e91fd830" target="_top" xlink:title="f_luaopen">
<polygon fill="none" stroke="black" points="1043.5,-365.5 1043.5,-384.5 1102.5,-384.5 1102.5,-365.5 1043.5,-365.5"/>
<text text-anchor="middle" x="1073" y="-372.5" font-family="Helvetica,sans-Serif" font-size="10.00">f_luaopen</text>
</a>
</g>
</g>
<!-- Node16&#45;&gt;Node18 -->
<g id="edge22" class="edge"><title>Node16&#45;&gt;Node18</title>
<path fill="none" stroke="midnightblue" d="M979.825,-368.832C1000.48,-370.214 1024.78,-371.841 1043.25,-373.076"/>
<polygon fill="midnightblue" stroke="midnightblue" points="979.927,-365.331 969.716,-368.156 979.46,-372.316 979.927,-365.331"/>
</g>
<!-- Node26 -->
<g id="node26" class="node"><title>Node26</title>
<g id="a_node26"><a xlink:href="../../d1/d2f/lstring_8c.html#a6e3c0fe3ba834ee00279a9df03f40fc4" target="_top" xlink:title="newshrstr">
<polygon fill="none" stroke="black" points="1044,-327.5 1044,-346.5 1102,-346.5 1102,-327.5 1044,-327.5"/>
<text text-anchor="middle" x="1073" y="-334.5" font-family="Helvetica,sans-Serif" font-size="10.00">newshrstr</text>
</a>
</g>
</g>
<!-- Node16&#45;&gt;Node26 -->
<g id="edge31" class="edge"><title>Node16&#45;&gt;Node26</title>
<path fill="none" stroke="midnightblue" d="M979.613,-356.92C1000.48,-352.421 1025.12,-347.109 1043.7,-343.102"/>
<polygon fill="midnightblue" stroke="midnightblue" points="978.754,-353.525 969.716,-359.054 980.229,-360.367 978.754,-353.525"/>
</g>
<!-- Node17&#45;&gt;Node5 -->
<g id="edge21" class="edge"><title>Node17&#45;&gt;Node5</title>
<path fill="none" stroke="midnightblue" d="M1030.34,-307.306C992.548,-315.439 935.628,-329.194 888,-347 824.746,-370.647 754.279,-409.449 722.999,-427.371"/>
<polygon fill="midnightblue" stroke="midnightblue" points="1031.41,-310.657 1040.47,-305.162 1029.96,-303.809 1031.41,-310.657"/>
</g>
<!-- Node19 -->
<g id="node19" class="node"><title>Node19</title>
<g id="a_node19"><a xlink:href="../../da/dd2/lua_8h.html#af722e4ac7fc0eba5920f59f0162c1b97" target="_top" xlink:title="lua_newstate">
<polygon fill="none" stroke="black" points="1164,-365.5 1164,-384.5 1238,-384.5 1238,-365.5 1164,-365.5"/>
<text text-anchor="middle" x="1201" y="-372.5" font-family="Helvetica,sans-Serif" font-size="10.00">lua_newstate</text>
</a>
</g>
</g>
<!-- Node18&#45;&gt;Node19 -->
<g id="edge23" class="edge"><title>Node18&#45;&gt;Node19</title>
<path fill="none" stroke="midnightblue" d="M1112.85,-375C1129.11,-375 1147.89,-375 1163.84,-375"/>
<polygon fill="midnightblue" stroke="midnightblue" points="1112.59,-371.5 1102.59,-375 1112.59,-378.5 1112.59,-371.5"/>
</g>
<!-- Node20 -->
<g id="node20" class="node"><title>Node20</title>
<g id="a_node20"><a xlink:href="../../da/d29/lauxlib_8h.html#a7d8712fcede90ae93d5a9a7b409c586e" target="_top" xlink:title="luaL_newstate">
<polygon fill="none" stroke="black" points="1277,-346.5 1277,-365.5 1357,-365.5 1357,-346.5 1277,-346.5"/>
<text text-anchor="middle" x="1317" y="-353.5" font-family="Helvetica,sans-Serif" font-size="10.00">luaL_newstate</text>
</a>
</g>
</g>
<!-- Node19&#45;&gt;Node20 -->
<g id="edge24" class="edge"><title>Node19&#45;&gt;Node20</title>
<path fill="none" stroke="midnightblue" d="M1248.11,-367.315C1257.56,-365.74 1267.42,-364.096 1276.61,-362.565"/>
<polygon fill="midnightblue" stroke="midnightblue" points="1247.36,-363.892 1238.07,-368.988 1248.51,-370.797 1247.36,-363.892"/>
</g>
<!-- Node25 -->
<g id="node25" class="node"><title>Node25</title>
<g id="a_node25"><a xlink:href="../../dd/dca/lstate_8c.html#a8a0fc0aca5367250347c6bb6a788f05f" target="_top" xlink:title="makeseed">
<polygon fill="none" stroke="black" points="1286.5,-384.5 1286.5,-403.5 1347.5,-403.5 1347.5,-384.5 1286.5,-384.5"/>
<text text-anchor="middle" x="1317" y="-391.5" font-family="Helvetica,sans-Serif" font-size="10.00">makeseed</text>
</a>
</g>
</g>
<!-- Node19&#45;&gt;Node25 -->
<g id="edge29" class="edge"><title>Node19&#45;&gt;Node25</title>
<path fill="none" stroke="midnightblue" d="M1248.33,-376.077C1263.46,-378.295 1279.64,-381.342 1292.38,-384.47"/>
<polygon fill="midnightblue" stroke="midnightblue" points="1248.45,-372.562 1238.07,-374.684 1247.51,-379.498 1248.45,-372.562"/>
</g>
<!-- Node21 -->
<g id="node21" class="node"><title>Node21</title>
<g id="a_node21"><a xlink:href="../../dc/de7/interface_kensho_lua_wrapper.html#a7d10aa0242861cdd109d3da9383882a2" target="_top" xlink:title="&#45;[KenshoLuaWrapper\l evaluate]">
<polygon fill="none" stroke="black" points="1393,-367 1393,-397 1502,-397 1502,-367 1393,-367"/>
<text text-anchor="start" x="1401" y="-385" font-family="Helvetica,sans-Serif" font-size="10.00">&#45;[KenshoLuaWrapper</text>
<text text-anchor="middle" x="1447.5" y="-374" font-family="Helvetica,sans-Serif" font-size="10.00"> evaluate]</text>
</a>
</g>
</g>
<!-- Node20&#45;&gt;Node21 -->
<g id="edge25" class="edge"><title>Node20&#45;&gt;Node21</title>
<path fill="none" stroke="midnightblue" d="M1367.24,-365.963C1375.61,-367.657 1384.34,-369.423 1392.82,-371.138"/>
<polygon fill="midnightblue" stroke="midnightblue" points="1367.75,-362.495 1357.25,-363.942 1366.36,-369.356 1367.75,-362.495"/>
</g>
<!-- Node22 -->
<g id="node22" class="node"><title>Node22</title>
<g id="a_node22"><a xlink:href="../../dc/de7/interface_kensho_lua_wrapper.html#af6db46358f8858a18b55388aa3af211d" target="_top" xlink:title="&#45;[KenshoLuaWrapper\l initWithKensho:context\l:code:]">
<polygon fill="none" stroke="black" points="1538,-441.5 1538,-482.5 1652,-482.5 1652,-441.5 1538,-441.5"/>
<text text-anchor="start" x="1546" y="-470.5" font-family="Helvetica,sans-Serif" font-size="10.00">&#45;[KenshoLuaWrapper</text>
<text text-anchor="start" x="1546" y="-459.5" font-family="Helvetica,sans-Serif" font-size="10.00"> initWithKensho:context</text>
<text text-anchor="middle" x="1595" y="-448.5" font-family="Helvetica,sans-Serif" font-size="10.00">:code:]</text>
</a>
</g>
</g>
<!-- Node21&#45;&gt;Node22 -->
<g id="edge26" class="edge"><title>Node21&#45;&gt;Node22</title>
<path fill="none" stroke="midnightblue" d="M1484.85,-401.986C1506.73,-414.016 1534.53,-429.301 1556.6,-441.435"/>
<polygon fill="midnightblue" stroke="midnightblue" points="1486.32,-398.798 1475.87,-397.047 1482.94,-404.932 1486.32,-398.798"/>
</g>
<!-- Node23 -->
<g id="node23" class="node"><title>Node23</title>
<g id="a_node23"><a xlink:href="../../dc/de7/interface_kensho_lua_wrapper.html#a5555e0979799446611baee70104555c6" target="_top" xlink:title="&#45;[KenshoLuaWrapper\l evaluate:]">
<polygon fill="none" stroke="red" points="1540.5,-392 1540.5,-422 1649.5,-422 1649.5,-392 1540.5,-392"/>
<text text-anchor="start" x="1548.5" y="-410" font-family="Helvetica,sans-Serif" font-size="10.00">&#45;[KenshoLuaWrapper</text>
<text text-anchor="middle" x="1595" y="-399" font-family="Helvetica,sans-Serif" font-size="10.00"> evaluate:]</text>
</a>
</g>
</g>
<!-- Node21&#45;&gt;Node23 -->
<g id="edge27" class="edge"><title>Node21&#45;&gt;Node23</title>
<path fill="none" stroke="midnightblue" d="M1512.34,-392.969C1521.72,-394.581 1531.31,-396.228 1540.46,-397.8"/>
<polygon fill="midnightblue" stroke="midnightblue" points="1512.71,-389.482 1502.27,-391.238 1511.53,-396.381 1512.71,-389.482"/>
</g>
<!-- Node24 -->
<g id="node24" class="node"><title>Node24</title>
<g id="a_node24"><a xlink:href="../../dc/de7/interface_kensho_lua_wrapper.html#a0bb5e125d727942726d707f8b59009dc" target="_top" xlink:title="&#45;[KenshoLuaWrapper\l observableUpdated:]">
<polygon fill="none" stroke="black" points="1540.5,-343 1540.5,-373 1649.5,-373 1649.5,-343 1540.5,-343"/>
<text text-anchor="start" x="1548.5" y="-361" font-family="Helvetica,sans-Serif" font-size="10.00">&#45;[KenshoLuaWrapper</text>
<text text-anchor="middle" x="1595" y="-350" font-family="Helvetica,sans-Serif" font-size="10.00"> observableUpdated:]</text>
</a>
</g>
</g>
<!-- Node21&#45;&gt;Node24 -->
<g id="edge28" class="edge"><title>Node21&#45;&gt;Node24</title>
<path fill="none" stroke="midnightblue" d="M1512.34,-371.47C1521.72,-369.922 1531.31,-368.341 1540.46,-366.832"/>
<polygon fill="midnightblue" stroke="midnightblue" points="1511.56,-368.051 1502.27,-373.131 1512.7,-374.957 1511.56,-368.051"/>
</g>
<!-- Node25&#45;&gt;Node19 -->
<g id="edge30" class="edge"><title>Node25&#45;&gt;Node19</title>
<path fill="none" stroke="midnightblue" d="M1276.16,-393.83C1259.29,-391.584 1240.2,-388.111 1225.62,-384.53"/>
<polygon fill="midnightblue" stroke="midnightblue" points="1275.97,-397.333 1286.32,-395.06 1276.81,-390.383 1275.97,-397.333"/>
</g>
<!-- Node27 -->
<g id="node27" class="node"><title>Node27</title>
<g id="a_node27"><a xlink:href="../../d1/d2f/lstring_8c.html#a9b2c32c59a280de24f20df1c7f0433a1" target="_top" xlink:title="internshrstr">
<polygon fill="none" stroke="black" points="1170.5,-234.5 1170.5,-253.5 1231.5,-253.5 1231.5,-234.5 1170.5,-234.5"/>
<text text-anchor="middle" x="1201" y="-241.5" font-family="Helvetica,sans-Serif" font-size="10.00">internshrstr</text>
</a>
</g>
</g>
<!-- Node26&#45;&gt;Node27 -->
<g id="edge32" class="edge"><title>Node26&#45;&gt;Node27</title>
<path fill="none" stroke="midnightblue" d="M1111.58,-325.096C1116.25,-323.017 1120.84,-320.654 1125,-318 1153.38,-299.904 1179.71,-269.593 1192.27,-253.974"/>
<polygon fill="midnightblue" stroke="midnightblue" points="1109.97,-321.974 1102.01,-328.968 1112.59,-328.464 1109.97,-321.974"/>
</g>
<!-- Node28 -->
<g id="node28" class="node"><title>Node28</title>
<g id="a_node28"><a xlink:href="../../d4/dfb/lstring_8h.html#a248e72694b9116b07b2e7f4a9a3a5331" target="_top" xlink:title="luaS_newlstr">
<polygon fill="none" stroke="black" points="1281.5,-171.5 1281.5,-190.5 1352.5,-190.5 1352.5,-171.5 1281.5,-171.5"/>
<text text-anchor="middle" x="1317" y="-178.5" font-family="Helvetica,sans-Serif" font-size="10.00">luaS_newlstr</text>
</a>
</g>
</g>
<!-- Node27&#45;&gt;Node28 -->
<g id="edge33" class="edge"><title>Node27&#45;&gt;Node28</title>
<path fill="none" stroke="midnightblue" d="M1228.28,-229.478C1249.85,-217.557 1279.79,-201.009 1298.52,-190.658"/>
<polygon fill="midnightblue" stroke="midnightblue" points="1226.37,-226.531 1219.31,-234.432 1229.76,-232.658 1226.37,-226.531"/>
</g>
<!-- Node29 -->
<g id="node29" class="node"><title>Node29</title>
<g id="a_node29"><a xlink:href="../../da/dd2/lua_8h.html#a4ab8500ade8e1d8a87b1df1baf19b179" target="_top" xlink:title="lua_pushlstring">
<polygon fill="none" stroke="black" points="1407.5,-190.5 1407.5,-209.5 1487.5,-209.5 1487.5,-190.5 1407.5,-190.5"/>
<text text-anchor="middle" x="1447.5" y="-197.5" font-family="Helvetica,sans-Serif" font-size="10.00">lua_pushlstring</text>
</a>
</g>
</g>
<!-- Node28&#45;&gt;Node29 -->
<g id="edge34" class="edge"><title>Node28&#45;&gt;Node29</title>
<path fill="none" stroke="midnightblue" d="M1362.96,-187.648C1377.36,-189.778 1393.19,-192.118 1407.16,-194.183"/>
<polygon fill="midnightblue" stroke="midnightblue" points="1363.18,-184.142 1352.77,-186.142 1362.15,-191.067 1363.18,-184.142"/>
</g>
<!-- Node38 -->
<g id="node38" class="node"><title>Node38</title>
<g id="a_node38"><a xlink:href="../../da/dd2/lua_8h.html#a4eba0457df5bafff4d44071d1d8080b6" target="_top" xlink:title="lua_concat">
<polygon fill="none" stroke="red" points="1564,-304.5 1564,-323.5 1626,-323.5 1626,-304.5 1564,-304.5"/>
<text text-anchor="middle" x="1595" y="-311.5" font-family="Helvetica,sans-Serif" font-size="10.00">lua_concat</text>
</a>
</g>
</g>
<!-- Node28&#45;&gt;Node38 -->
<g id="edge45" class="edge"><title>Node28&#45;&gt;Node38</title>
<path fill="none" stroke="midnightblue" d="M1331.15,-198.923C1344.77,-216.232 1367.59,-241.971 1393,-257 1422.03,-274.174 1514.98,-296.482 1563.65,-307.398"/>
<polygon fill="midnightblue" stroke="midnightblue" points="1333.76,-196.564 1324.91,-190.741 1328.19,-200.813 1333.76,-196.564"/>
</g>
<!-- Node41 -->
<g id="node41" class="node"><title>Node41</title>
<g id="a_node41"><a xlink:href="../../dd/d05/lcode_8h.html#a4f928250a0f4007764b4d3777651f617" target="_top" xlink:title="luaK_numberK">
<polygon fill="none" stroke="red" points="1407.5,-152.5 1407.5,-171.5 1487.5,-171.5 1487.5,-152.5 1407.5,-152.5"/>
<text text-anchor="middle" x="1447.5" y="-159.5" font-family="Helvetica,sans-Serif" font-size="10.00">luaK_numberK</text>
</a>
</g>
</g>
<!-- Node28&#45;&gt;Node41 -->
<g id="edge48" class="edge"><title>Node28&#45;&gt;Node41</title>
<path fill="none" stroke="midnightblue" d="M1362.96,-174.352C1377.36,-172.222 1393.19,-169.882 1407.16,-167.817"/>
<polygon fill="midnightblue" stroke="midnightblue" points="1362.15,-170.933 1352.77,-175.858 1363.18,-177.858 1362.15,-170.933"/>
</g>
<!-- Node42 -->
<g id="node42" class="node"><title>Node42</title>
<g id="a_node42"><a xlink:href="../../d8/d27/llex_8h.html#aa6e79179f823cf156f61899a09239ca6" target="_top" xlink:title="luaX_newstring">
<polygon fill="none" stroke="red" points="1407,-114.5 1407,-133.5 1488,-133.5 1488,-114.5 1407,-114.5"/>
<text text-anchor="middle" x="1447.5" y="-121.5" font-family="Helvetica,sans-Serif" font-size="10.00">luaX_newstring</text>
</a>
</g>
</g>
<!-- Node28&#45;&gt;Node42 -->
<g id="edge49" class="edge"><title>Node28&#45;&gt;Node42</title>
<path fill="none" stroke="midnightblue" d="M1344.44,-166.56C1358.63,-159.079 1376.54,-150.058 1393,-143 1400.79,-139.659 1409.38,-136.419 1417.36,-133.588"/>
<polygon fill="midnightblue" stroke="midnightblue" points="1342.45,-163.655 1335.28,-171.45 1345.75,-169.831 1342.45,-163.655"/>
</g>
<!-- Node43 -->
<g id="node43" class="node"><title>Node43</title>
<g id="a_node43"><a xlink:href="../../d7/d9b/lobject_8c.html#aa65db03553a5abd73e466d307bb17a37" target="_top" xlink:title="pushstr">
<polygon fill="none" stroke="red" points="1423.5,-76.5 1423.5,-95.5 1471.5,-95.5 1471.5,-76.5 1423.5,-76.5"/>
<text text-anchor="middle" x="1447.5" y="-83.5" font-family="Helvetica,sans-Serif" font-size="10.00">pushstr</text>
</a>
</g>
</g>
<!-- Node28&#45;&gt;Node43 -->
<g id="edge50" class="edge"><title>Node28&#45;&gt;Node43</title>
<path fill="none" stroke="midnightblue" d="M1331.37,-163.427C1345.15,-146.385 1368.09,-120.846 1393,-105 1402.23,-99.1271 1413.52,-94.775 1423.34,-91.729"/>
<polygon fill="midnightblue" stroke="midnightblue" points="1328.47,-161.447 1325.03,-171.468 1333.97,-165.779 1328.47,-161.447"/>
</g>
<!-- Node44 -->
<g id="node44" class="node"><title>Node44</title>
<g id="a_node44"><a xlink:href="../../d4/dfb/lstring_8h.html#a6929da8cfde3e74a0d51a6467909ef9d" target="_top" xlink:title="luaS_new">
<polygon fill="none" stroke="red" points="1417.5,-38.5 1417.5,-57.5 1477.5,-57.5 1477.5,-38.5 1417.5,-38.5"/>
<text text-anchor="middle" x="1447.5" y="-45.5" font-family="Helvetica,sans-Serif" font-size="10.00">luaS_new</text>
</a>
</g>
</g>
<!-- Node28&#45;&gt;Node44 -->
<g id="edge51" class="edge"><title>Node28&#45;&gt;Node44</title>
<path fill="none" stroke="midnightblue" d="M1325.82,-162.004C1337.1,-136.855 1360.23,-92.699 1393,-67 1400.06,-61.4648 1408.86,-57.464 1417.27,-54.6061"/>
<polygon fill="midnightblue" stroke="midnightblue" points="1322.6,-160.651 1321.84,-171.219 1329.02,-163.427 1322.6,-160.651"/>
</g>
<!-- Node45 -->
<g id="node45" class="node"><title>Node45</title>
<g id="a_node45"><a xlink:href="../../de/d2f/lundump_8c.html#abfe7dabe70bd14e27d54d3cedc6cb70a" target="_top" xlink:title="LoadString">
<polygon fill="none" stroke="red" points="1416.5,-0.5 1416.5,-19.5 1478.5,-19.5 1478.5,-0.5 1416.5,-0.5"/>
<text text-anchor="middle" x="1447.5" y="-7.5" font-family="Helvetica,sans-Serif" font-size="10.00">LoadString</text>
</a>
</g>
</g>
<!-- Node28&#45;&gt;Node45 -->
<g id="edge52" class="edge"><title>Node28&#45;&gt;Node45</title>
<path fill="none" stroke="midnightblue" d="M1322.57,-161.311C1331.03,-129.173 1352.09,-65.3829 1393,-29 1399.56,-23.1707 1408.02,-19.0982 1416.27,-16.2654"/>
<polygon fill="midnightblue" stroke="midnightblue" points="1319.12,-160.713 1320.1,-171.262 1325.91,-162.403 1319.12,-160.713"/>
</g>
<!-- Node46 -->
<g id="node46" class="node"><title>Node46</title>
<g id="a_node46"><a xlink:href="../../d5/dcd/lvm_8h.html#abcde68a7697547dc2c7f1d0e6734e611" target="_top" xlink:title="luaV_tostring">
<polygon fill="none" stroke="red" points="1412,-304.5 1412,-323.5 1483,-323.5 1483,-304.5 1412,-304.5"/>
<text text-anchor="middle" x="1447.5" y="-311.5" font-family="Helvetica,sans-Serif" font-size="10.00">luaV_tostring</text>
</a>
</g>
</g>
<!-- Node28&#45;&gt;Node46 -->
<g id="edge53" class="edge"><title>Node28&#45;&gt;Node46</title>
<path fill="none" stroke="midnightblue" d="M1326.86,-199.816C1338.89,-223.604 1362.43,-264.518 1393,-290 1400.19,-295.997 1409.13,-300.783 1417.62,-304.454"/>
<polygon fill="midnightblue" stroke="midnightblue" points="1329.97,-198.204 1322.43,-190.765 1323.68,-201.285 1329.97,-198.204"/>
</g>
<!-- Node47 -->
<g id="node47" class="node"><title>Node47</title>
<g id="a_node47"><a xlink:href="../../d5/dcd/lvm_8h.html#aee84bfc563cb4bdd21a013218a289aa7" target="_top" xlink:title="luaV_concat">
<polygon fill="none" stroke="red" points="1413,-228.5 1413,-247.5 1482,-247.5 1482,-228.5 1413,-228.5"/>
<text text-anchor="middle" x="1447.5" y="-235.5" font-family="Helvetica,sans-Serif" font-size="10.00">luaV_concat</text>
</a>
</g>
</g>
<!-- Node28&#45;&gt;Node47 -->
<g id="edge54" class="edge"><title>Node28&#45;&gt;Node47</title>
<path fill="none" stroke="midnightblue" d="M1344.44,-195.44C1358.63,-202.921 1376.54,-211.942 1393,-219 1400.79,-222.341 1409.38,-225.581 1417.36,-228.412"/>
<polygon fill="midnightblue" stroke="midnightblue" points="1345.75,-192.169 1335.28,-190.55 1342.45,-198.345 1345.75,-192.169"/>
</g>
<!-- Node30 -->
<g id="node30" class="node"><title>Node30</title>
<g id="a_node30"><a xlink:href="../../da/d29/lauxlib_8h.html#aac5dfab9ba0ced4f5ae3b22aa35faffe" target="_top" xlink:title="luaL_pushresult">
<polygon fill="none" stroke="red" points="1553.5,-190.5 1553.5,-209.5 1636.5,-209.5 1636.5,-190.5 1553.5,-190.5"/>
<text text-anchor="middle" x="1595" y="-197.5" font-family="Helvetica,sans-Serif" font-size="10.00">luaL_pushresult</text>
</a>
</g>
</g>
<!-- Node29&#45;&gt;Node30 -->
<g id="edge35" class="edge"><title>Node29&#45;&gt;Node30</title>
<path fill="none" stroke="midnightblue" d="M1497.92,-200C1515.96,-200 1536.14,-200 1553.33,-200"/>
<polygon fill="midnightblue" stroke="midnightblue" points="1497.87,-196.5 1487.87,-200 1497.87,-203.5 1497.87,-196.5"/>
</g>
<!-- Node31 -->
<g id="node31" class="node"><title>Node31</title>
<g id="a_node31"><a xlink:href="../../de/df3/liolib_8c.html#ace61fce0bdea311d6d7c2206881165c7" target="_top" xlink:title="test_eof">
<polygon fill="none" stroke="red" points="1570,-152.5 1570,-171.5 1620,-171.5 1620,-152.5 1570,-152.5"/>
<text text-anchor="middle" x="1595" y="-159.5" font-family="Helvetica,sans-Serif" font-size="10.00">test_eof</text>
</a>
</g>
</g>
<!-- Node29&#45;&gt;Node31 -->
<g id="edge36" class="edge"><title>Node29&#45;&gt;Node31</title>
<path fill="none" stroke="midnightblue" d="M1495.16,-187.815C1519.93,-181.343 1549.37,-173.656 1569.64,-168.363"/>
<polygon fill="midnightblue" stroke="midnightblue" points="1494.01,-184.498 1485.22,-190.411 1495.78,-191.27 1494.01,-184.498"/>
</g>
<!-- Node32 -->
<g id="node32" class="node"><title>Node32</title>
<g id="a_node32"><a xlink:href="../../d2/d82/loadlib_8c.html#aa1ea5ee1b54a06650a887c4ee05a8547" target="_top" xlink:title="pushnexttemplate">
<polygon fill="none" stroke="red" points="1549,-114.5 1549,-133.5 1641,-133.5 1641,-114.5 1549,-114.5"/>
<text text-anchor="middle" x="1595" y="-121.5" font-family="Helvetica,sans-Serif" font-size="10.00">pushnexttemplate</text>
</a>
</g>
</g>
<!-- Node29&#45;&gt;Node32 -->
<g id="edge37" class="edge"><title>Node29&#45;&gt;Node32</title>
<path fill="none" stroke="midnightblue" d="M1492.21,-186.468C1495.62,-184.818 1498.93,-182.999 1502,-181 1521.5,-168.312 1518.41,-155.55 1538,-143 1543.88,-139.234 1550.59,-136.128 1557.27,-133.598"/>
<polygon fill="midnightblue" stroke="midnightblue" points="1490.81,-183.257 1483.03,-190.444 1493.6,-189.68 1490.81,-183.257"/>
</g>
<!-- Node33 -->
<g id="node33" class="node"><title>Node33</title>
<g id="a_node33"><a xlink:href="../../d2/d82/loadlib_8c.html#a91ac5b5231cf039af46226806dcc3884" target="_top" xlink:title="loadfunc">
<polygon fill="none" stroke="red" points="1569,-76.5 1569,-95.5 1621,-95.5 1621,-76.5 1569,-76.5"/>
<text text-anchor="middle" x="1595" y="-83.5" font-family="Helvetica,sans-Serif" font-size="10.00">loadfunc</text>
</a>
</g>
</g>
<!-- Node29&#45;&gt;Node33 -->
<g id="edge38" class="edge"><title>Node29&#45;&gt;Node33</title>
<path fill="none" stroke="midnightblue" d="M1495.9,-185.678C1498.06,-184.261 1500.11,-182.706 1502,-181 1529.73,-155.941 1510.09,-129.862 1538,-105 1546.59,-97.3512 1558.38,-92.7584 1568.93,-90.0116"/>
<polygon fill="midnightblue" stroke="midnightblue" points="1494.21,-182.614 1487.12,-190.489 1497.57,-188.753 1494.21,-182.614"/>
</g>
<!-- Node34 -->
<g id="node34" class="node"><title>Node34</title>
<g id="a_node34"><a xlink:href="../../d2/d82/loadlib_8c.html#a1ec05cd98a045c271aeda9f9c6041e1c" target="_top" xlink:title="searcher_Croot">
<polygon fill="none" stroke="red" points="1688.5,-57.5 1688.5,-76.5 1768.5,-76.5 1768.5,-57.5 1688.5,-57.5"/>
<text text-anchor="middle" x="1728.5" y="-64.5" font-family="Helvetica,sans-Serif" font-size="10.00">searcher_Croot</text>
</a>
</g>
</g>
<!-- Node29&#45;&gt;Node34 -->
<g id="edge40" class="edge"><title>Node29&#45;&gt;Node34</title>
<path fill="none" stroke="midnightblue" d="M1496.64,-185.658C1498.56,-184.248 1500.36,-182.7 1502,-181 1538.9,-142.771 1495.14,-98.4085 1538,-67 1585.37,-32.2858 1658.81,-45.9816 1698.94,-57.4555"/>
<polygon fill="midnightblue" stroke="midnightblue" points="1494.44,-182.893 1487.61,-190.996 1498,-188.919 1494.44,-182.893"/>
</g>
<!-- Node35 -->
<g id="node35" class="node"><title>Node35</title>
<g id="a_node35"><a xlink:href="../../dc/d77/lstrlib_8c.html#a039b391d5f43533a0ce750c5e40d7752" target="_top" xlink:title="str_sub">
<polygon fill="none" stroke="black" points="1571,-0.5 1571,-19.5 1619,-19.5 1619,-0.5 1571,-0.5"/>
<text text-anchor="middle" x="1595" y="-7.5" font-family="Helvetica,sans-Serif" font-size="10.00">str_sub</text>
</a>
</g>
</g>
<!-- Node29&#45;&gt;Node35 -->
<g id="edge41" class="edge"><title>Node29&#45;&gt;Node35</title>
<path fill="none" stroke="midnightblue" d="M1496.24,-186.197C1498.32,-184.645 1500.27,-182.92 1502,-181 1547.1,-131.095 1494.51,-85.3145 1538,-34 1546.34,-24.1554 1559.45,-18.2432 1570.89,-14.7513"/>
<polygon fill="midnightblue" stroke="midnightblue" points="1494.38,-183.228 1487.59,-191.358 1497.97,-189.239 1494.38,-183.228"/>
</g>
<!-- Node36 -->
<g id="node36" class="node"><title>Node36</title>
<g id="a_node36"><a xlink:href="../../dc/d77/lstrlib_8c.html#a24a14b4e6e90bac4610dd334bb0b51b6" target="_top" xlink:title="push_onecapture">
<polygon fill="none" stroke="red" points="1549.5,-266.5 1549.5,-285.5 1640.5,-285.5 1640.5,-266.5 1549.5,-266.5"/>
<text text-anchor="middle" x="1595" y="-273.5" font-family="Helvetica,sans-Serif" font-size="10.00">push_onecapture</text>
</a>
</g>
</g>
<!-- Node29&#45;&gt;Node36 -->
<g id="edge42" class="edge"><title>Node29&#45;&gt;Node36</title>
<path fill="none" stroke="midnightblue" d="M1491.3,-213.423C1495.01,-215.114 1498.63,-216.972 1502,-219 1520.6,-230.189 1519.77,-240.225 1538,-252 1546.8,-257.681 1557.16,-262.557 1566.57,-266.402"/>
<polygon fill="midnightblue" stroke="midnightblue" points="1492.56,-210.156 1481.98,-209.56 1489.88,-216.623 1492.56,-210.156"/>
</g>
<!-- Node37 -->
<g id="node37" class="node"><title>Node37</title>
<g id="a_node37"><a xlink:href="../../dc/d77/lstrlib_8c.html#ad24cfa73e5ad25ec99a1b48f0916471e" target="_top" xlink:title="add_value">
<polygon fill="none" stroke="red" points="1697.5,-237.5 1697.5,-256.5 1759.5,-256.5 1759.5,-237.5 1697.5,-237.5"/>
<text text-anchor="middle" x="1728.5" y="-244.5" font-family="Helvetica,sans-Serif" font-size="10.00">add_value</text>
</a>
</g>
</g>
<!-- Node29&#45;&gt;Node37 -->
<g id="edge44" class="edge"><title>Node29&#45;&gt;Node37</title>
<path fill="none" stroke="midnightblue" d="M1497.41,-210.961C1510.56,-213.749 1524.79,-216.625 1538,-219 1593.97,-229.066 1659.72,-238.177 1697.21,-243.118"/>
<polygon fill="midnightblue" stroke="midnightblue" points="1498.12,-207.532 1487.61,-208.855 1496.65,-214.376 1498.12,-207.532"/>
</g>
<!-- Node33&#45;&gt;Node34 -->
<g id="edge39" class="edge"><title>Node33&#45;&gt;Node34</title>
<path fill="none" stroke="midnightblue" d="M1630.95,-80.9507C1648.61,-78.3987 1670.1,-75.2931 1688.32,-72.6605"/>
<polygon fill="midnightblue" stroke="midnightblue" points="1630.44,-77.4874 1621.04,-82.3815 1631.44,-84.4154 1630.44,-77.4874"/>
</g>
<!-- Node36&#45;&gt;Node37 -->
<g id="edge43" class="edge"><title>Node36&#45;&gt;Node37</title>
<path fill="none" stroke="midnightblue" d="M1649.43,-264.216C1665.79,-260.609 1683.2,-256.769 1697.42,-253.634"/>
<polygon fill="midnightblue" stroke="midnightblue" points="1648.43,-260.852 1639.42,-266.424 1649.94,-267.688 1648.43,-260.852"/>
</g>
<!-- Node39 -->
<g id="node39" class="node"><title>Node39</title>
<g id="a_node39"><a xlink:href="../../d0/d56/lauxlib_8c.html#a36c8f149b779f8c9a5c042ea9784d80a" target="_top" xlink:title="findfield">
<polygon fill="none" stroke="red" points="1705,-332.5 1705,-351.5 1752,-351.5 1752,-332.5 1705,-332.5"/>
<text text-anchor="middle" x="1728.5" y="-339.5" font-family="Helvetica,sans-Serif" font-size="10.00">findfield</text>
</a>
</g>
</g>
<!-- Node38&#45;&gt;Node39 -->
<g id="edge46" class="edge"><title>Node38&#45;&gt;Node39</title>
<path fill="none" stroke="midnightblue" d="M1636.15,-322.548C1658.69,-327.349 1686,-333.164 1704.85,-337.178"/>
<polygon fill="midnightblue" stroke="midnightblue" points="1636.68,-319.083 1626.17,-320.424 1635.22,-325.93 1636.68,-319.083"/>
</g>
<!-- Node40 -->
<g id="node40" class="node"><title>Node40</title>
<g id="a_node40"><a xlink:href="../../da/d29/lauxlib_8h.html#a664cc293d6c7a7dc67857fe95583a10e" target="_top" xlink:title="luaL_traceback">
<polygon fill="none" stroke="red" points="1688,-294.5 1688,-313.5 1769,-313.5 1769,-294.5 1688,-294.5"/>
<text text-anchor="middle" x="1728.5" y="-301.5" font-family="Helvetica,sans-Serif" font-size="10.00">luaL_traceback</text>
</a>
</g>
</g>
<!-- Node38&#45;&gt;Node40 -->
<g id="edge47" class="edge"><title>Node38&#45;&gt;Node40</title>
<path fill="none" stroke="midnightblue" d="M1636.52,-310.919C1652.89,-309.674 1671.72,-308.242 1687.99,-307.004"/>
<polygon fill="midnightblue" stroke="midnightblue" points="1635.87,-307.458 1626.17,-311.706 1636.41,-314.437 1635.87,-307.458"/>
</g>
<!-- Node47&#45;&gt;Node38 -->
<g id="edge55" class="edge"><title>Node47&#45;&gt;Node38</title>
<path fill="none" stroke="midnightblue" d="M1483.36,-251.684C1489.76,-254.734 1496.23,-258.204 1502,-262 1520.13,-273.928 1519.32,-283.943 1538,-295 1545.95,-299.707 1555.23,-303.453 1563.93,-306.331"/>
<polygon fill="midnightblue" stroke="midnightblue" points="1484.7,-248.445 1474.14,-247.527 1481.82,-254.827 1484.7,-248.445"/>
</g>
<!-- Node48&#45;&gt;Node4 -->
<g id="edge57" class="edge"><title>Node48&#45;&gt;Node4</title>
<path fill="none" stroke="midnightblue" d="M538.933,-528.226C545.929,-524.996 553.266,-521.478 560,-518 574.223,-510.653 589.937,-501.473 601.257,-494.661"/>
<polygon fill="midnightblue" stroke="midnightblue" points="537.351,-525.1 529.693,-532.422 540.246,-531.474 537.351,-525.1"/>
</g>
<!-- Node49&#45;&gt;Node50 -->
<g id="edge59" class="edge"><title>Node49&#45;&gt;Node50</title>
<path fill="none" stroke="midnightblue" d="M423.545,-440.68C440.164,-445.815 459.032,-451.644 474.472,-456.414"/>
<polygon fill="midnightblue" stroke="midnightblue" points="424.126,-437.197 413.538,-437.589 422.059,-443.885 424.126,-437.197"/>
</g>
<!-- Node50&#45;&gt;Node4 -->
<g id="edge60" class="edge"><title>Node50&#45;&gt;Node4</title>
<path fill="none" stroke="midnightblue" d="M557.798,-474.728C571.229,-477.058 585.019,-479.451 595.908,-481.34"/>
<polygon fill="midnightblue" stroke="midnightblue" points="558.103,-471.228 547.652,-472.967 556.906,-478.125 558.103,-471.228"/>
</g>
</g>
</svg>
