<?xml version="1.0" encoding="UTF-8" standalone="no"?>
<!DOCTYPE svg PUBLIC "-//W3C//DTD SVG 1.1//EN"
 "http://www.w3.org/Graphics/SVG/1.1/DTD/svg11.dtd">
<!-- Generated by graphviz version 2.38.0 (20140413.2041)
 -->
<!-- Title: traversestrongtable Pages: 1 -->
<svg width="1893pt" height="560pt"
 viewBox="0.00 0.00 1893.00 560.00" xmlns="http://www.w3.org/2000/svg" xmlns:xlink="http://www.w3.org/1999/xlink">
<g id="graph0" class="graph" transform="scale(1 1) rotate(0) translate(4 556)">
<title>traversestrongtable</title>
<!-- Node1 -->
<g id="node1" class="node"><title>Node1</title>
<polygon fill="#bfbfbf" stroke="black" points="0,-418.5 0,-437.5 97,-437.5 97,-418.5 0,-418.5"/>
<text text-anchor="middle" x="48.5" y="-425.5" font-family="Helvetica,sans-Serif" font-size="10.00">traversestrongtable</text>
</g>
<!-- Node2 -->
<g id="node2" class="node"><title>Node2</title>
<g id="a_node2"><a xlink:href="../../de/d27/lgc_8c.html#a86c4c1008df3c908a9cca3cf72abc195" target="_top" xlink:title="traversetable">
<polygon fill="none" stroke="black" points="133,-418.5 133,-437.5 204,-437.5 204,-418.5 133,-418.5"/>
<text text-anchor="middle" x="168.5" y="-425.5" font-family="Helvetica,sans-Serif" font-size="10.00">traversetable</text>
</a>
</g>
</g>
<!-- Node1&#45;&gt;Node2 -->
<g id="edge1" class="edge"><title>Node1&#45;&gt;Node2</title>
<path fill="none" stroke="midnightblue" d="M107.3,-428C115.994,-428 124.723,-428 132.731,-428"/>
<polygon fill="midnightblue" stroke="midnightblue" points="107.155,-424.5 97.155,-428 107.155,-431.5 107.155,-424.5"/>
</g>
<!-- Node3 -->
<g id="node3" class="node"><title>Node3</title>
<g id="a_node3"><a xlink:href="../../de/d27/lgc_8c.html#accb36b237a98cbde36fa5bcf16a4ec1f" target="_top" xlink:title="propagatemark">
<polygon fill="none" stroke="black" points="240,-418.5 240,-437.5 321,-437.5 321,-418.5 240,-418.5"/>
<text text-anchor="middle" x="280.5" y="-425.5" font-family="Helvetica,sans-Serif" font-size="10.00">propagatemark</text>
</a>
</g>
</g>
<!-- Node2&#45;&gt;Node3 -->
<g id="edge2" class="edge"><title>Node2&#45;&gt;Node3</title>
<path fill="none" stroke="midnightblue" d="M214.121,-428C222.602,-428 231.424,-428 239.741,-428"/>
<polygon fill="midnightblue" stroke="midnightblue" points="214.003,-424.5 204.003,-428 214.003,-431.5 214.003,-424.5"/>
</g>
<!-- Node4 -->
<g id="node4" class="node"><title>Node4</title>
<g id="a_node4"><a xlink:href="../../de/d27/lgc_8c.html#a9a291e8a23c3611b6c79d792fe421f5c" target="_top" xlink:title="propagateall">
<polygon fill="none" stroke="black" points="357,-456.5 357,-475.5 427,-475.5 427,-456.5 357,-456.5"/>
<text text-anchor="middle" x="392" y="-463.5" font-family="Helvetica,sans-Serif" font-size="10.00">propagateall</text>
</a>
</g>
</g>
<!-- Node3&#45;&gt;Node4 -->
<g id="edge3" class="edge"><title>Node3&#45;&gt;Node4</title>
<path fill="none" stroke="midnightblue" d="M318.879,-440.972C333.468,-446.034 349.892,-451.734 363.377,-456.414"/>
<polygon fill="midnightblue" stroke="midnightblue" points="319.726,-437.561 309.131,-437.589 317.431,-444.174 319.726,-437.561"/>
</g>
<!-- Node6 -->
<g id="node6" class="node"><title>Node6</title>
<g id="a_node6"><a xlink:href="../../de/d27/lgc_8c.html#ae34e22198155f5d365fe500d3735c150" target="_top" xlink:title="singlestep">
<polygon fill="none" stroke="black" points="793,-427.5 793,-446.5 852,-446.5 852,-427.5 793,-427.5"/>
<text text-anchor="middle" x="822.5" y="-434.5" font-family="Helvetica,sans-Serif" font-size="10.00">singlestep</text>
</a>
</g>
</g>
<!-- Node3&#45;&gt;Node6 -->
<g id="edge62" class="edge"><title>Node3&#45;&gt;Node6</title>
<path fill="none" stroke="midnightblue" d="M324.766,-415.816C368.095,-404.702 436.87,-390 497.5,-390 497.5,-390 497.5,-390 624.5,-390 688.494,-390 761.066,-413.755 797.675,-427.489"/>
<polygon fill="midnightblue" stroke="midnightblue" points="323.641,-412.493 314.853,-418.411 325.413,-419.265 323.641,-412.493"/>
</g>
<!-- Node5 -->
<g id="node5" class="node"><title>Node5</title>
<g id="a_node5"><a xlink:href="../../de/d27/lgc_8c.html#aeeb04d4803ad9d53a05a8605130a31d0" target="_top" xlink:title="atomic">
<polygon fill="none" stroke="black" points="713,-475.5 713,-494.5 757,-494.5 757,-475.5 713,-475.5"/>
<text text-anchor="middle" x="735" y="-482.5" font-family="Helvetica,sans-Serif" font-size="10.00">atomic</text>
</a>
</g>
</g>
<!-- Node4&#45;&gt;Node5 -->
<g id="edge4" class="edge"><title>Node4&#45;&gt;Node5</title>
<path fill="none" stroke="midnightblue" d="M436.898,-475.831C445.514,-477.462 454.512,-478.959 463,-480 555.479,-491.343 667.018,-488.131 712.812,-486.093"/>
<polygon fill="midnightblue" stroke="midnightblue" points="437.502,-472.382 427.013,-473.873 436.142,-479.249 437.502,-472.382"/>
</g>
<!-- Node48 -->
<g id="node48" class="node"><title>Node48</title>
<g id="a_node48"><a xlink:href="../../de/d27/lgc_8c.html#a467150a6e5a6ef4402432c4964817ffc" target="_top" xlink:title="convergeephemerons">
<polygon fill="none" stroke="black" points="570,-532.5 570,-551.5 677,-551.5 677,-532.5 570,-532.5"/>
<text text-anchor="middle" x="623.5" y="-539.5" font-family="Helvetica,sans-Serif" font-size="10.00">convergeephemerons</text>
</a>
</g>
</g>
<!-- Node4&#45;&gt;Node48 -->
<g id="edge56" class="edge"><title>Node4&#45;&gt;Node48</title>
<path fill="none" stroke="midnightblue" d="M410.349,-482.731C423.665,-494.555 443.09,-509.719 463,-518 496.871,-532.087 537.843,-538.041 569.78,-540.497"/>
<polygon fill="midnightblue" stroke="midnightblue" points="412.632,-480.076 402.898,-475.892 407.899,-485.233 412.632,-480.076"/>
</g>
<!-- Node49 -->
<g id="node49" class="node"><title>Node49</title>
<g id="a_node49"><a xlink:href="../../de/d27/lgc_8c.html#ab03267de3dc98eae16e7af8b88b1f9aa" target="_top" xlink:title="propagatelist">
<polygon fill="none" stroke="black" points="463,-418.5 463,-437.5 534,-437.5 534,-418.5 463,-418.5"/>
<text text-anchor="middle" x="498.5" y="-425.5" font-family="Helvetica,sans-Serif" font-size="10.00">propagatelist</text>
</a>
</g>
</g>
<!-- Node4&#45;&gt;Node49 -->
<g id="edge58" class="edge"><title>Node4&#45;&gt;Node49</title>
<path fill="none" stroke="midnightblue" d="M429.074,-452.882C442.896,-447.856 458.393,-442.221 471.139,-437.586"/>
<polygon fill="midnightblue" stroke="midnightblue" points="427.572,-449.704 419.37,-456.411 429.964,-456.283 427.572,-449.704"/>
</g>
<!-- Node50 -->
<g id="node50" class="node"><title>Node50</title>
<g id="a_node50"><a xlink:href="../../de/d27/lgc_8c.html#aa6acc790e5954f9a3652a7b0c70f8f2c" target="_top" xlink:title="retraversegrays">
<polygon fill="none" stroke="black" points="582.5,-456.5 582.5,-475.5 664.5,-475.5 664.5,-456.5 582.5,-456.5"/>
<text text-anchor="middle" x="623.5" y="-463.5" font-family="Helvetica,sans-Serif" font-size="10.00">retraversegrays</text>
</a>
</g>
</g>
<!-- Node4&#45;&gt;Node50 -->
<g id="edge61" class="edge"><title>Node4&#45;&gt;Node50</title>
<path fill="none" stroke="midnightblue" d="M437.579,-466C479.61,-466 542.029,-466 582.495,-466"/>
<polygon fill="midnightblue" stroke="midnightblue" points="437.359,-462.5 427.358,-466 437.358,-469.5 437.359,-462.5"/>
</g>
<!-- Node5&#45;&gt;Node6 -->
<g id="edge5" class="edge"><title>Node5&#45;&gt;Node6</title>
<path fill="none" stroke="midnightblue" d="M762.301,-470.234C776.043,-462.52 792.459,-453.304 804.515,-446.535"/>
<polygon fill="midnightblue" stroke="midnightblue" points="760.309,-467.339 753.302,-475.286 763.735,-473.443 760.309,-467.339"/>
</g>
<!-- Node7 -->
<g id="node7" class="node"><title>Node7</title>
<g id="a_node7"><a xlink:href="../../de/d27/lgc_8c.html#a7515a46e25b277cbbe7febb4d06b196a" target="_top" xlink:title="incstep">
<polygon fill="none" stroke="black" points="905,-522.5 905,-541.5 952,-541.5 952,-522.5 905,-522.5"/>
<text text-anchor="middle" x="928.5" y="-529.5" font-family="Helvetica,sans-Serif" font-size="10.00">incstep</text>
</a>
</g>
</g>
<!-- Node6&#45;&gt;Node7 -->
<g id="edge6" class="edge"><title>Node6&#45;&gt;Node7</title>
<path fill="none" stroke="midnightblue" d="M841.857,-453.769C863.681,-473.704 899.356,-506.292 916.975,-522.386"/>
<polygon fill="midnightblue" stroke="midnightblue" points="843.982,-450.969 834.238,-446.809 839.261,-456.137 843.982,-450.969"/>
</g>
<!-- Node12 -->
<g id="node12" class="node"><title>Node12</title>
<g id="a_node12"><a xlink:href="../../dc/d9c/lgc_8h.html#a1da32357417ce5766ed5e3ada033c32f" target="_top" xlink:title="luaC_runtilstate">
<polygon fill="none" stroke="black" points="888,-427.5 888,-446.5 969,-446.5 969,-427.5 888,-427.5"/>
<text text-anchor="middle" x="928.5" y="-434.5" font-family="Helvetica,sans-Serif" font-size="10.00">luaC_runtilstate</text>
</a>
</g>
</g>
<!-- Node6&#45;&gt;Node12 -->
<g id="edge11" class="edge"><title>Node6&#45;&gt;Node12</title>
<path fill="none" stroke="midnightblue" d="M862.33,-437C870.587,-437 879.317,-437 887.613,-437"/>
<polygon fill="midnightblue" stroke="midnightblue" points="862.194,-433.5 852.194,-437 862.194,-440.5 862.194,-433.5"/>
</g>
<!-- Node8 -->
<g id="node8" class="node"><title>Node8</title>
<g id="a_node8"><a xlink:href="../../dc/d9c/lgc_8h.html#a19359957605d7c8eaf70803e5b77361f" target="_top" xlink:title="luaC_forcestep">
<polygon fill="none" stroke="black" points="1278,-517.5 1278,-536.5 1358,-536.5 1358,-517.5 1278,-517.5"/>
<text text-anchor="middle" x="1318" y="-524.5" font-family="Helvetica,sans-Serif" font-size="10.00">luaC_forcestep</text>
</a>
</g>
</g>
<!-- Node7&#45;&gt;Node8 -->
<g id="edge7" class="edge"><title>Node7&#45;&gt;Node8</title>
<path fill="none" stroke="midnightblue" d="M962.588,-537.127C1019.78,-545.177 1140.74,-558.626 1242,-546 1256.93,-544.138 1273.15,-540.269 1286.68,-536.505"/>
<polygon fill="midnightblue" stroke="midnightblue" points="962.744,-533.613 952.346,-535.646 961.742,-540.541 962.744,-533.613"/>
</g>
<!-- Node9 -->
<g id="node9" class="node"><title>Node9</title>
<g id="a_node9"><a xlink:href="../../da/dd2/lua_8h.html#a6bac487d3f900b21271e8c591bd801cd" target="_top" xlink:title="lua_gc">
<polygon fill="none" stroke="black" points="1412,-441.5 1412,-460.5 1456,-460.5 1456,-441.5 1412,-441.5"/>
<text text-anchor="middle" x="1434" y="-448.5" font-family="Helvetica,sans-Serif" font-size="10.00">lua_gc</text>
</a>
</g>
</g>
<!-- Node8&#45;&gt;Node9 -->
<g id="edge8" class="edge"><title>Node8&#45;&gt;Node9</title>
<path fill="none" stroke="midnightblue" d="M1341.89,-511.741C1364.81,-496.458 1399.38,-473.412 1418.68,-460.547"/>
<polygon fill="midnightblue" stroke="midnightblue" points="1339.82,-508.915 1333.44,-517.375 1343.7,-514.74 1339.82,-508.915"/>
</g>
<!-- Node11 -->
<g id="node11" class="node"><title>Node11</title>
<g id="a_node11"><a xlink:href="../../dc/d9c/lgc_8h.html#a6c71cc4b9e503c0e96c0c4ffcff93900" target="_top" xlink:title="luaC_step">
<polygon fill="none" stroke="black" points="1403.5,-517.5 1403.5,-536.5 1464.5,-536.5 1464.5,-517.5 1403.5,-517.5"/>
<text text-anchor="middle" x="1434" y="-524.5" font-family="Helvetica,sans-Serif" font-size="10.00">luaC_step</text>
</a>
</g>
</g>
<!-- Node8&#45;&gt;Node11 -->
<g id="edge10" class="edge"><title>Node8&#45;&gt;Node11</title>
<path fill="none" stroke="midnightblue" d="M1368.52,-527C1380.42,-527 1392.76,-527 1403.42,-527"/>
<polygon fill="midnightblue" stroke="midnightblue" points="1368.23,-523.5 1358.23,-527 1368.23,-530.5 1368.23,-523.5"/>
</g>
<!-- Node10 -->
<g id="node10" class="node"><title>Node10</title>
<g id="a_node10"><a xlink:href="../../d8/dd3/lbaselib_8c.html#a07f71966c943cc9761ab129f64d4ac80" target="_top" xlink:title="luaB_collectgarbage">
<polygon fill="none" stroke="black" points="1513.5,-441.5 1513.5,-460.5 1615.5,-460.5 1615.5,-441.5 1513.5,-441.5"/>
<text text-anchor="middle" x="1564.5" y="-448.5" font-family="Helvetica,sans-Serif" font-size="10.00">luaB_collectgarbage</text>
</a>
</g>
</g>
<!-- Node9&#45;&gt;Node10 -->
<g id="edge9" class="edge"><title>Node9&#45;&gt;Node10</title>
<path fill="none" stroke="midnightblue" d="M1466.39,-451C1480.52,-451 1497.55,-451 1513.38,-451"/>
<polygon fill="midnightblue" stroke="midnightblue" points="1466.22,-447.5 1456.22,-451 1466.22,-454.5 1466.22,-447.5"/>
</g>
<!-- Node13 -->
<g id="node13" class="node"><title>Node13</title>
<g id="a_node13"><a xlink:href="../../dc/d9c/lgc_8h.html#af016fe72ab7e564d7d55e7e4fb659041" target="_top" xlink:title="luaC_changemode">
<polygon fill="none" stroke="black" points="1005,-408.5 1005,-427.5 1102,-427.5 1102,-408.5 1005,-408.5"/>
<text text-anchor="middle" x="1053.5" y="-415.5" font-family="Helvetica,sans-Serif" font-size="10.00">luaC_changemode</text>
</a>
</g>
</g>
<!-- Node12&#45;&gt;Node13 -->
<g id="edge12" class="edge"><title>Node12&#45;&gt;Node13</title>
<path fill="none" stroke="midnightblue" d="M979.204,-429.322C987.655,-428.017 996.413,-426.664 1004.81,-425.367"/>
<polygon fill="midnightblue" stroke="midnightblue" points="978.443,-425.898 969.095,-430.884 979.512,-432.816 978.443,-425.898"/>
</g>
<!-- Node14 -->
<g id="node14" class="node"><title>Node14</title>
<g id="a_node14"><a xlink:href="../../de/d27/lgc_8c.html#a87bb9d2ca4bed013c39258f8abd61689" target="_top" xlink:title="generationalcollection">
<polygon fill="none" stroke="black" points="1138,-517.5 1138,-536.5 1242,-536.5 1242,-517.5 1138,-517.5"/>
<text text-anchor="middle" x="1190" y="-524.5" font-family="Helvetica,sans-Serif" font-size="10.00">generationalcollection</text>
</a>
</g>
</g>
<!-- Node12&#45;&gt;Node14 -->
<g id="edge14" class="edge"><title>Node12&#45;&gt;Node14</title>
<path fill="none" stroke="midnightblue" d="M946.838,-453.909C961.231,-466.942 982.859,-484.322 1005,-494 1047.52,-512.587 1099.95,-520.706 1137.95,-524.252"/>
<polygon fill="midnightblue" stroke="midnightblue" points="948.95,-451.092 939.251,-446.829 944.174,-456.21 948.95,-451.092"/>
</g>
<!-- Node15 -->
<g id="node15" class="node"><title>Node15</title>
<g id="a_node15"><a xlink:href="../../dc/d9c/lgc_8h.html#aa0b753c3ed80e1eed0379ec58592c404" target="_top" xlink:title="luaC_fullgc">
<polygon fill="none" stroke="black" points="1022.5,-465.5 1022.5,-484.5 1084.5,-484.5 1084.5,-465.5 1022.5,-465.5"/>
<text text-anchor="middle" x="1053.5" y="-472.5" font-family="Helvetica,sans-Serif" font-size="10.00">luaC_fullgc</text>
</a>
</g>
</g>
<!-- Node12&#45;&gt;Node15 -->
<g id="edge16" class="edge"><title>Node12&#45;&gt;Node15</title>
<path fill="none" stroke="midnightblue" d="M970.225,-449.582C987.228,-454.835 1006.63,-460.829 1022.32,-465.677"/>
<polygon fill="midnightblue" stroke="midnightblue" points="971.126,-446.197 960.538,-446.589 969.059,-452.885 971.126,-446.197"/>
</g>
<!-- Node17 -->
<g id="node17" class="node"><title>Node17</title>
<g id="a_node17"><a xlink:href="../../d4/dfb/lstring_8h.html#a44d549eb0ace165927a896f37330e2cd" target="_top" xlink:title="luaS_resize">
<polygon fill="none" stroke="black" points="1020.5,-356.5 1020.5,-375.5 1086.5,-375.5 1086.5,-356.5 1020.5,-356.5"/>
<text text-anchor="middle" x="1053.5" y="-363.5" font-family="Helvetica,sans-Serif" font-size="10.00">luaS_resize</text>
</a>
</g>
</g>
<!-- Node12&#45;&gt;Node17 -->
<g id="edge20" class="edge"><title>Node12&#45;&gt;Node17</title>
<path fill="none" stroke="midnightblue" d="M954.75,-422.425C978.986,-408.435 1014.9,-387.702 1035.78,-375.65"/>
<polygon fill="midnightblue" stroke="midnightblue" points="952.999,-419.394 946.088,-427.425 956.499,-425.457 952.999,-419.394"/>
</g>
<!-- Node13&#45;&gt;Node9 -->
<g id="edge13" class="edge"><title>Node13&#45;&gt;Node9</title>
<path fill="none" stroke="midnightblue" d="M1112.13,-423.025C1197.77,-430.491 1354.62,-444.167 1411.6,-449.134"/>
<polygon fill="midnightblue" stroke="midnightblue" points="1112.32,-419.528 1102.05,-422.146 1111.71,-426.501 1112.32,-419.528"/>
</g>
<!-- Node14&#45;&gt;Node8 -->
<g id="edge15" class="edge"><title>Node14&#45;&gt;Node8</title>
<path fill="none" stroke="midnightblue" d="M1252.35,-527C1261,-527 1269.7,-527 1277.78,-527"/>
<polygon fill="midnightblue" stroke="midnightblue" points="1252.25,-523.5 1242.25,-527 1252.25,-530.5 1252.25,-523.5"/>
</g>
<!-- Node15&#45;&gt;Node9 -->
<g id="edge17" class="edge"><title>Node15&#45;&gt;Node9</title>
<path fill="none" stroke="midnightblue" d="M1094.67,-472.453C1174.54,-467.388 1350.83,-456.21 1411.78,-452.346"/>
<polygon fill="midnightblue" stroke="midnightblue" points="1094.28,-468.971 1084.52,-473.097 1094.72,-475.957 1094.28,-468.971"/>
</g>
<!-- Node15&#45;&gt;Node14 -->
<g id="edge18" class="edge"><title>Node15&#45;&gt;Node14</title>
<path fill="none" stroke="midnightblue" d="M1087.75,-488.315C1103.03,-494.389 1121.41,-501.631 1138,-508 1146.12,-511.115 1154.98,-514.445 1163.02,-517.433"/>
<polygon fill="midnightblue" stroke="midnightblue" points="1088.79,-484.962 1078.21,-484.513 1086.2,-491.465 1088.79,-484.962"/>
</g>
<!-- Node16 -->
<g id="node16" class="node"><title>Node16</title>
<g id="a_node16"><a xlink:href="../../d7/d3e/lmem_8h.html#ae7dc8a57fc5dbca825653a88a356a72d" target="_top" xlink:title="luaM_realloc_">
<polygon fill="none" stroke="black" points="1153,-479.5 1153,-498.5 1227,-498.5 1227,-479.5 1153,-479.5"/>
<text text-anchor="middle" x="1190" y="-486.5" font-family="Helvetica,sans-Serif" font-size="10.00">luaM_realloc_</text>
</a>
</g>
</g>
<!-- Node15&#45;&gt;Node16 -->
<g id="edge19" class="edge"><title>Node15&#45;&gt;Node16</title>
<path fill="none" stroke="midnightblue" d="M1094.81,-479.196C1113.2,-481.11 1134.82,-483.36 1152.7,-485.221"/>
<polygon fill="midnightblue" stroke="midnightblue" points="1094.99,-475.696 1084.68,-478.142 1094.27,-482.658 1094.99,-475.696"/>
</g>
<!-- Node18 -->
<g id="node18" class="node"><title>Node18</title>
<g id="a_node18"><a xlink:href="../../de/d27/lgc_8c.html#aace8516e609d7409e789e7b2c190b9c2" target="_top" xlink:title="checkSizes">
<polygon fill="none" stroke="black" points="1157.5,-289.5 1157.5,-308.5 1222.5,-308.5 1222.5,-289.5 1157.5,-289.5"/>
<text text-anchor="middle" x="1190" y="-296.5" font-family="Helvetica,sans-Serif" font-size="10.00">checkSizes</text>
</a>
</g>
</g>
<!-- Node17&#45;&gt;Node18 -->
<g id="edge21" class="edge"><title>Node17&#45;&gt;Node18</title>
<path fill="none" stroke="midnightblue" d="M1078.38,-350.862C1094.78,-340.82 1117.25,-327.747 1138,-318 1145.27,-314.585 1153.33,-311.343 1160.86,-308.536"/>
<polygon fill="midnightblue" stroke="midnightblue" points="1076.14,-348.132 1069.48,-356.376 1079.83,-354.082 1076.14,-348.132"/>
</g>
<!-- Node19 -->
<g id="node19" class="node"><title>Node19</title>
<g id="a_node19"><a xlink:href="../../dd/dca/lstate_8c.html#ab65e96a7498fd886f7223b92e91fd830" target="_top" xlink:title="f_luaopen">
<polygon fill="none" stroke="black" points="1160.5,-365.5 1160.5,-384.5 1219.5,-384.5 1219.5,-365.5 1160.5,-365.5"/>
<text text-anchor="middle" x="1190" y="-372.5" font-family="Helvetica,sans-Serif" font-size="10.00">f_luaopen</text>
</a>
</g>
</g>
<!-- Node17&#45;&gt;Node19 -->
<g id="edge23" class="edge"><title>Node17&#45;&gt;Node19</title>
<path fill="none" stroke="midnightblue" d="M1096.83,-368.832C1117.48,-370.214 1141.78,-371.841 1160.25,-373.076"/>
<polygon fill="midnightblue" stroke="midnightblue" points="1096.93,-365.331 1086.72,-368.156 1096.46,-372.316 1096.93,-365.331"/>
</g>
<!-- Node27 -->
<g id="node27" class="node"><title>Node27</title>
<g id="a_node27"><a xlink:href="../../d1/d2f/lstring_8c.html#a6e3c0fe3ba834ee00279a9df03f40fc4" target="_top" xlink:title="newshrstr">
<polygon fill="none" stroke="black" points="1161,-327.5 1161,-346.5 1219,-346.5 1219,-327.5 1161,-327.5"/>
<text text-anchor="middle" x="1190" y="-334.5" font-family="Helvetica,sans-Serif" font-size="10.00">newshrstr</text>
</a>
</g>
</g>
<!-- Node17&#45;&gt;Node27 -->
<g id="edge32" class="edge"><title>Node17&#45;&gt;Node27</title>
<path fill="none" stroke="midnightblue" d="M1096.61,-356.92C1117.48,-352.421 1142.12,-347.109 1160.7,-343.102"/>
<polygon fill="midnightblue" stroke="midnightblue" points="1095.75,-353.525 1086.72,-359.054 1097.23,-360.367 1095.75,-353.525"/>
</g>
<!-- Node18&#45;&gt;Node6 -->
<g id="edge22" class="edge"><title>Node18&#45;&gt;Node6</title>
<path fill="none" stroke="midnightblue" d="M1147.34,-307.306C1109.55,-315.439 1052.63,-329.194 1005,-347 941.746,-370.647 871.279,-409.449 839.999,-427.371"/>
<polygon fill="midnightblue" stroke="midnightblue" points="1148.41,-310.657 1157.47,-305.162 1146.96,-303.809 1148.41,-310.657"/>
</g>
<!-- Node20 -->
<g id="node20" class="node"><title>Node20</title>
<g id="a_node20"><a xlink:href="../../da/dd2/lua_8h.html#af722e4ac7fc0eba5920f59f0162c1b97" target="_top" xlink:title="lua_newstate">
<polygon fill="none" stroke="black" points="1281,-365.5 1281,-384.5 1355,-384.5 1355,-365.5 1281,-365.5"/>
<text text-anchor="middle" x="1318" y="-372.5" font-family="Helvetica,sans-Serif" font-size="10.00">lua_newstate</text>
</a>
</g>
</g>
<!-- Node19&#45;&gt;Node20 -->
<g id="edge24" class="edge"><title>Node19&#45;&gt;Node20</title>
<path fill="none" stroke="midnightblue" d="M1229.85,-375C1246.11,-375 1264.89,-375 1280.84,-375"/>
<polygon fill="midnightblue" stroke="midnightblue" points="1229.59,-371.5 1219.59,-375 1229.59,-378.5 1229.59,-371.5"/>
</g>
<!-- Node21 -->
<g id="node21" class="node"><title>Node21</title>
<g id="a_node21"><a xlink:href="../../da/d29/lauxlib_8h.html#a7d8712fcede90ae93d5a9a7b409c586e" target="_top" xlink:title="luaL_newstate">
<polygon fill="none" stroke="black" points="1394,-346.5 1394,-365.5 1474,-365.5 1474,-346.5 1394,-346.5"/>
<text text-anchor="middle" x="1434" y="-353.5" font-family="Helvetica,sans-Serif" font-size="10.00">luaL_newstate</text>
</a>
</g>
</g>
<!-- Node20&#45;&gt;Node21 -->
<g id="edge25" class="edge"><title>Node20&#45;&gt;Node21</title>
<path fill="none" stroke="midnightblue" d="M1365.11,-367.315C1374.56,-365.74 1384.42,-364.096 1393.61,-362.565"/>
<polygon fill="midnightblue" stroke="midnightblue" points="1364.36,-363.892 1355.07,-368.988 1365.51,-370.797 1364.36,-363.892"/>
</g>
<!-- Node26 -->
<g id="node26" class="node"><title>Node26</title>
<g id="a_node26"><a xlink:href="../../dd/dca/lstate_8c.html#a8a0fc0aca5367250347c6bb6a788f05f" target="_top" xlink:title="makeseed">
<polygon fill="none" stroke="black" points="1403.5,-384.5 1403.5,-403.5 1464.5,-403.5 1464.5,-384.5 1403.5,-384.5"/>
<text text-anchor="middle" x="1434" y="-391.5" font-family="Helvetica,sans-Serif" font-size="10.00">makeseed</text>
</a>
</g>
</g>
<!-- Node20&#45;&gt;Node26 -->
<g id="edge30" class="edge"><title>Node20&#45;&gt;Node26</title>
<path fill="none" stroke="midnightblue" d="M1365.33,-376.077C1380.46,-378.295 1396.64,-381.342 1409.38,-384.47"/>
<polygon fill="midnightblue" stroke="midnightblue" points="1365.45,-372.562 1355.07,-374.684 1364.51,-379.498 1365.45,-372.562"/>
</g>
<!-- Node22 -->
<g id="node22" class="node"><title>Node22</title>
<g id="a_node22"><a xlink:href="../../dc/de7/interface_kensho_lua_wrapper.html#a7d10aa0242861cdd109d3da9383882a2" target="_top" xlink:title="&#45;[KenshoLuaWrapper\l evaluate]">
<polygon fill="none" stroke="black" points="1510,-367 1510,-397 1619,-397 1619,-367 1510,-367"/>
<text text-anchor="start" x="1518" y="-385" font-family="Helvetica,sans-Serif" font-size="10.00">&#45;[KenshoLuaWrapper</text>
<text text-anchor="middle" x="1564.5" y="-374" font-family="Helvetica,sans-Serif" font-size="10.00"> evaluate]</text>
</a>
</g>
</g>
<!-- Node21&#45;&gt;Node22 -->
<g id="edge26" class="edge"><title>Node21&#45;&gt;Node22</title>
<path fill="none" stroke="midnightblue" d="M1484.24,-365.963C1492.61,-367.657 1501.34,-369.423 1509.82,-371.138"/>
<polygon fill="midnightblue" stroke="midnightblue" points="1484.75,-362.495 1474.25,-363.942 1483.36,-369.356 1484.75,-362.495"/>
</g>
<!-- Node23 -->
<g id="node23" class="node"><title>Node23</title>
<g id="a_node23"><a xlink:href="../../dc/de7/interface_kensho_lua_wrapper.html#af6db46358f8858a18b55388aa3af211d" target="_top" xlink:title="&#45;[KenshoLuaWrapper\l initWithKensho:context\l:code:]">
<polygon fill="none" stroke="black" points="1655,-441.5 1655,-482.5 1769,-482.5 1769,-441.5 1655,-441.5"/>
<text text-anchor="start" x="1663" y="-470.5" font-family="Helvetica,sans-Serif" font-size="10.00">&#45;[KenshoLuaWrapper</text>
<text text-anchor="start" x="1663" y="-459.5" font-family="Helvetica,sans-Serif" font-size="10.00"> initWithKensho:context</text>
<text text-anchor="middle" x="1712" y="-448.5" font-family="Helvetica,sans-Serif" font-size="10.00">:code:]</text>
</a>
</g>
</g>
<!-- Node22&#45;&gt;Node23 -->
<g id="edge27" class="edge"><title>Node22&#45;&gt;Node23</title>
<path fill="none" stroke="midnightblue" d="M1601.85,-401.986C1623.73,-414.016 1651.53,-429.301 1673.6,-441.435"/>
<polygon fill="midnightblue" stroke="midnightblue" points="1603.32,-398.798 1592.87,-397.047 1599.94,-404.932 1603.32,-398.798"/>
</g>
<!-- Node24 -->
<g id="node24" class="node"><title>Node24</title>
<g id="a_node24"><a xlink:href="../../dc/de7/interface_kensho_lua_wrapper.html#a5555e0979799446611baee70104555c6" target="_top" xlink:title="&#45;[KenshoLuaWrapper\l evaluate:]">
<polygon fill="none" stroke="red" points="1657.5,-392 1657.5,-422 1766.5,-422 1766.5,-392 1657.5,-392"/>
<text text-anchor="start" x="1665.5" y="-410" font-family="Helvetica,sans-Serif" font-size="10.00">&#45;[KenshoLuaWrapper</text>
<text text-anchor="middle" x="1712" y="-399" font-family="Helvetica,sans-Serif" font-size="10.00"> evaluate:]</text>
</a>
</g>
</g>
<!-- Node22&#45;&gt;Node24 -->
<g id="edge28" class="edge"><title>Node22&#45;&gt;Node24</title>
<path fill="none" stroke="midnightblue" d="M1629.34,-392.969C1638.72,-394.581 1648.31,-396.228 1657.46,-397.8"/>
<polygon fill="midnightblue" stroke="midnightblue" points="1629.71,-389.482 1619.27,-391.238 1628.53,-396.381 1629.71,-389.482"/>
</g>
<!-- Node25 -->
<g id="node25" class="node"><title>Node25</title>
<g id="a_node25"><a xlink:href="../../dc/de7/interface_kensho_lua_wrapper.html#a0bb5e125d727942726d707f8b59009dc" target="_top" xlink:title="&#45;[KenshoLuaWrapper\l observableUpdated:]">
<polygon fill="none" stroke="black" points="1657.5,-343 1657.5,-373 1766.5,-373 1766.5,-343 1657.5,-343"/>
<text text-anchor="start" x="1665.5" y="-361" font-family="Helvetica,sans-Serif" font-size="10.00">&#45;[KenshoLuaWrapper</text>
<text text-anchor="middle" x="1712" y="-350" font-family="Helvetica,sans-Serif" font-size="10.00"> observableUpdated:]</text>
</a>
</g>
</g>
<!-- Node22&#45;&gt;Node25 -->
<g id="edge29" class="edge"><title>Node22&#45;&gt;Node25</title>
<path fill="none" stroke="midnightblue" d="M1629.34,-371.47C1638.72,-369.922 1648.31,-368.341 1657.46,-366.832"/>
<polygon fill="midnightblue" stroke="midnightblue" points="1628.56,-368.051 1619.27,-373.131 1629.7,-374.957 1628.56,-368.051"/>
</g>
<!-- Node26&#45;&gt;Node20 -->
<g id="edge31" class="edge"><title>Node26&#45;&gt;Node20</title>
<path fill="none" stroke="midnightblue" d="M1393.16,-393.83C1376.29,-391.584 1357.2,-388.111 1342.62,-384.53"/>
<polygon fill="midnightblue" stroke="midnightblue" points="1392.97,-397.333 1403.32,-395.06 1393.81,-390.383 1392.97,-397.333"/>
</g>
<!-- Node28 -->
<g id="node28" class="node"><title>Node28</title>
<g id="a_node28"><a xlink:href="../../d1/d2f/lstring_8c.html#a9b2c32c59a280de24f20df1c7f0433a1" target="_top" xlink:title="internshrstr">
<polygon fill="none" stroke="black" points="1287.5,-234.5 1287.5,-253.5 1348.5,-253.5 1348.5,-234.5 1287.5,-234.5"/>
<text text-anchor="middle" x="1318" y="-241.5" font-family="Helvetica,sans-Serif" font-size="10.00">internshrstr</text>
</a>
</g>
</g>
<!-- Node27&#45;&gt;Node28 -->
<g id="edge33" class="edge"><title>Node27&#45;&gt;Node28</title>
<path fill="none" stroke="midnightblue" d="M1228.58,-325.096C1233.25,-323.017 1237.84,-320.654 1242,-318 1270.38,-299.904 1296.71,-269.593 1309.27,-253.974"/>
<polygon fill="midnightblue" stroke="midnightblue" points="1226.97,-321.974 1219.01,-328.968 1229.59,-328.464 1226.97,-321.974"/>
</g>
<!-- Node29 -->
<g id="node29" class="node"><title>Node29</title>
<g id="a_node29"><a xlink:href="../../d4/dfb/lstring_8h.html#a248e72694b9116b07b2e7f4a9a3a5331" target="_top" xlink:title="luaS_newlstr">
<polygon fill="none" stroke="black" points="1398.5,-171.5 1398.5,-190.5 1469.5,-190.5 1469.5,-171.5 1398.5,-171.5"/>
<text text-anchor="middle" x="1434" y="-178.5" font-family="Helvetica,sans-Serif" font-size="10.00">luaS_newlstr</text>
</a>
</g>
</g>
<!-- Node28&#45;&gt;Node29 -->
<g id="edge34" class="edge"><title>Node28&#45;&gt;Node29</title>
<path fill="none" stroke="midnightblue" d="M1345.28,-229.478C1366.85,-217.557 1396.79,-201.009 1415.52,-190.658"/>
<polygon fill="midnightblue" stroke="midnightblue" points="1343.37,-226.531 1336.31,-234.432 1346.76,-232.658 1343.37,-226.531"/>
</g>
<!-- Node30 -->
<g id="node30" class="node"><title>Node30</title>
<g id="a_node30"><a xlink:href="../../da/dd2/lua_8h.html#a4ab8500ade8e1d8a87b1df1baf19b179" target="_top" xlink:title="lua_pushlstring">
<polygon fill="none" stroke="black" points="1524.5,-190.5 1524.5,-209.5 1604.5,-209.5 1604.5,-190.5 1524.5,-190.5"/>
<text text-anchor="middle" x="1564.5" y="-197.5" font-family="Helvetica,sans-Serif" font-size="10.00">lua_pushlstring</text>
</a>
</g>
</g>
<!-- Node29&#45;&gt;Node30 -->
<g id="edge35" class="edge"><title>Node29&#45;&gt;Node30</title>
<path fill="none" stroke="midnightblue" d="M1479.96,-187.648C1494.36,-189.778 1510.19,-192.118 1524.16,-194.183"/>
<polygon fill="midnightblue" stroke="midnightblue" points="1480.18,-184.142 1469.77,-186.142 1479.15,-191.067 1480.18,-184.142"/>
</g>
<!-- Node39 -->
<g id="node39" class="node"><title>Node39</title>
<g id="a_node39"><a xlink:href="../../da/dd2/lua_8h.html#a4eba0457df5bafff4d44071d1d8080b6" target="_top" xlink:title="lua_concat">
<polygon fill="none" stroke="red" points="1681,-304.5 1681,-323.5 1743,-323.5 1743,-304.5 1681,-304.5"/>
<text text-anchor="middle" x="1712" y="-311.5" font-family="Helvetica,sans-Serif" font-size="10.00">lua_concat</text>
</a>
</g>
</g>
<!-- Node29&#45;&gt;Node39 -->
<g id="edge46" class="edge"><title>Node29&#45;&gt;Node39</title>
<path fill="none" stroke="midnightblue" d="M1448.15,-198.923C1461.77,-216.232 1484.59,-241.971 1510,-257 1539.03,-274.174 1631.98,-296.482 1680.65,-307.398"/>
<polygon fill="midnightblue" stroke="midnightblue" points="1450.76,-196.564 1441.91,-190.741 1445.19,-200.813 1450.76,-196.564"/>
</g>
<!-- Node41 -->
<g id="node41" class="node"><title>Node41</title>
<g id="a_node41"><a xlink:href="../../dd/d05/lcode_8h.html#a4f928250a0f4007764b4d3777651f617" target="_top" xlink:title="luaK_numberK">
<polygon fill="none" stroke="red" points="1524.5,-152.5 1524.5,-171.5 1604.5,-171.5 1604.5,-152.5 1524.5,-152.5"/>
<text text-anchor="middle" x="1564.5" y="-159.5" font-family="Helvetica,sans-Serif" font-size="10.00">luaK_numberK</text>
</a>
</g>
</g>
<!-- Node29&#45;&gt;Node41 -->
<g id="edge48" class="edge"><title>Node29&#45;&gt;Node41</title>
<path fill="none" stroke="midnightblue" d="M1479.96,-174.352C1494.36,-172.222 1510.19,-169.882 1524.16,-167.817"/>
<polygon fill="midnightblue" stroke="midnightblue" points="1479.15,-170.933 1469.77,-175.858 1480.18,-177.858 1479.15,-170.933"/>
</g>
<!-- Node42 -->
<g id="node42" class="node"><title>Node42</title>
<g id="a_node42"><a xlink:href="../../d8/d27/llex_8h.html#aa6e79179f823cf156f61899a09239ca6" target="_top" xlink:title="luaX_newstring">
<polygon fill="none" stroke="red" points="1524,-114.5 1524,-133.5 1605,-133.5 1605,-114.5 1524,-114.5"/>
<text text-anchor="middle" x="1564.5" y="-121.5" font-family="Helvetica,sans-Serif" font-size="10.00">luaX_newstring</text>
</a>
</g>
</g>
<!-- Node29&#45;&gt;Node42 -->
<g id="edge49" class="edge"><title>Node29&#45;&gt;Node42</title>
<path fill="none" stroke="midnightblue" d="M1461.44,-166.56C1475.63,-159.079 1493.54,-150.058 1510,-143 1517.79,-139.659 1526.38,-136.419 1534.36,-133.588"/>
<polygon fill="midnightblue" stroke="midnightblue" points="1459.45,-163.655 1452.28,-171.45 1462.75,-169.831 1459.45,-163.655"/>
</g>
<!-- Node43 -->
<g id="node43" class="node"><title>Node43</title>
<g id="a_node43"><a xlink:href="../../d7/d9b/lobject_8c.html#aa65db03553a5abd73e466d307bb17a37" target="_top" xlink:title="pushstr">
<polygon fill="none" stroke="red" points="1540.5,-76.5 1540.5,-95.5 1588.5,-95.5 1588.5,-76.5 1540.5,-76.5"/>
<text text-anchor="middle" x="1564.5" y="-83.5" font-family="Helvetica,sans-Serif" font-size="10.00">pushstr</text>
</a>
</g>
</g>
<!-- Node29&#45;&gt;Node43 -->
<g id="edge50" class="edge"><title>Node29&#45;&gt;Node43</title>
<path fill="none" stroke="midnightblue" d="M1448.37,-163.427C1462.15,-146.385 1485.09,-120.846 1510,-105 1519.23,-99.1271 1530.52,-94.775 1540.34,-91.729"/>
<polygon fill="midnightblue" stroke="midnightblue" points="1445.47,-161.447 1442.03,-171.468 1450.97,-165.779 1445.47,-161.447"/>
</g>
<!-- Node44 -->
<g id="node44" class="node"><title>Node44</title>
<g id="a_node44"><a xlink:href="../../d4/dfb/lstring_8h.html#a6929da8cfde3e74a0d51a6467909ef9d" target="_top" xlink:title="luaS_new">
<polygon fill="none" stroke="red" points="1534.5,-38.5 1534.5,-57.5 1594.5,-57.5 1594.5,-38.5 1534.5,-38.5"/>
<text text-anchor="middle" x="1564.5" y="-45.5" font-family="Helvetica,sans-Serif" font-size="10.00">luaS_new</text>
</a>
</g>
</g>
<!-- Node29&#45;&gt;Node44 -->
<g id="edge51" class="edge"><title>Node29&#45;&gt;Node44</title>
<path fill="none" stroke="midnightblue" d="M1442.82,-162.004C1454.1,-136.855 1477.23,-92.699 1510,-67 1517.06,-61.4648 1525.86,-57.464 1534.27,-54.6061"/>
<polygon fill="midnightblue" stroke="midnightblue" points="1439.6,-160.651 1438.84,-171.219 1446.02,-163.427 1439.6,-160.651"/>
</g>
<!-- Node45 -->
<g id="node45" class="node"><title>Node45</title>
<g id="a_node45"><a xlink:href="../../de/d2f/lundump_8c.html#abfe7dabe70bd14e27d54d3cedc6cb70a" target="_top" xlink:title="LoadString">
<polygon fill="none" stroke="red" points="1533.5,-0.5 1533.5,-19.5 1595.5,-19.5 1595.5,-0.5 1533.5,-0.5"/>
<text text-anchor="middle" x="1564.5" y="-7.5" font-family="Helvetica,sans-Serif" font-size="10.00">LoadString</text>
</a>
</g>
</g>
<!-- Node29&#45;&gt;Node45 -->
<g id="edge52" class="edge"><title>Node29&#45;&gt;Node45</title>
<path fill="none" stroke="midnightblue" d="M1439.57,-161.311C1448.03,-129.173 1469.09,-65.3829 1510,-29 1516.56,-23.1707 1525.02,-19.0982 1533.27,-16.2654"/>
<polygon fill="midnightblue" stroke="midnightblue" points="1436.12,-160.713 1437.1,-171.262 1442.91,-162.403 1436.12,-160.713"/>
</g>
<!-- Node46 -->
<g id="node46" class="node"><title>Node46</title>
<g id="a_node46"><a xlink:href="../../d5/dcd/lvm_8h.html#abcde68a7697547dc2c7f1d0e6734e611" target="_top" xlink:title="luaV_tostring">
<polygon fill="none" stroke="red" points="1529,-304.5 1529,-323.5 1600,-323.5 1600,-304.5 1529,-304.5"/>
<text text-anchor="middle" x="1564.5" y="-311.5" font-family="Helvetica,sans-Serif" font-size="10.00">luaV_tostring</text>
</a>
</g>
</g>
<!-- Node29&#45;&gt;Node46 -->
<g id="edge53" class="edge"><title>Node29&#45;&gt;Node46</title>
<path fill="none" stroke="midnightblue" d="M1443.86,-199.816C1455.89,-223.604 1479.43,-264.518 1510,-290 1517.19,-295.997 1526.13,-300.783 1534.62,-304.454"/>
<polygon fill="midnightblue" stroke="midnightblue" points="1446.97,-198.204 1439.43,-190.765 1440.68,-201.285 1446.97,-198.204"/>
</g>
<!-- Node47 -->
<g id="node47" class="node"><title>Node47</title>
<g id="a_node47"><a xlink:href="../../d5/dcd/lvm_8h.html#aee84bfc563cb4bdd21a013218a289aa7" target="_top" xlink:title="luaV_concat">
<polygon fill="none" stroke="red" points="1530,-228.5 1530,-247.5 1599,-247.5 1599,-228.5 1530,-228.5"/>
<text text-anchor="middle" x="1564.5" y="-235.5" font-family="Helvetica,sans-Serif" font-size="10.00">luaV_concat</text>
</a>
</g>
</g>
<!-- Node29&#45;&gt;Node47 -->
<g id="edge54" class="edge"><title>Node29&#45;&gt;Node47</title>
<path fill="none" stroke="midnightblue" d="M1461.44,-195.44C1475.63,-202.921 1493.54,-211.942 1510,-219 1517.79,-222.341 1526.38,-225.581 1534.36,-228.412"/>
<polygon fill="midnightblue" stroke="midnightblue" points="1462.75,-192.169 1452.28,-190.55 1459.45,-198.345 1462.75,-192.169"/>
</g>
<!-- Node31 -->
<g id="node31" class="node"><title>Node31</title>
<g id="a_node31"><a xlink:href="../../da/d29/lauxlib_8h.html#aac5dfab9ba0ced4f5ae3b22aa35faffe" target="_top" xlink:title="luaL_pushresult">
<polygon fill="none" stroke="red" points="1670.5,-190.5 1670.5,-209.5 1753.5,-209.5 1753.5,-190.5 1670.5,-190.5"/>
<text text-anchor="middle" x="1712" y="-197.5" font-family="Helvetica,sans-Serif" font-size="10.00">luaL_pushresult</text>
</a>
</g>
</g>
<!-- Node30&#45;&gt;Node31 -->
<g id="edge36" class="edge"><title>Node30&#45;&gt;Node31</title>
<path fill="none" stroke="midnightblue" d="M1614.92,-200C1632.96,-200 1653.14,-200 1670.33,-200"/>
<polygon fill="midnightblue" stroke="midnightblue" points="1614.87,-196.5 1604.87,-200 1614.87,-203.5 1614.87,-196.5"/>
</g>
<!-- Node32 -->
<g id="node32" class="node"><title>Node32</title>
<g id="a_node32"><a xlink:href="../../de/df3/liolib_8c.html#ace61fce0bdea311d6d7c2206881165c7" target="_top" xlink:title="test_eof">
<polygon fill="none" stroke="red" points="1687,-152.5 1687,-171.5 1737,-171.5 1737,-152.5 1687,-152.5"/>
<text text-anchor="middle" x="1712" y="-159.5" font-family="Helvetica,sans-Serif" font-size="10.00">test_eof</text>
</a>
</g>
</g>
<!-- Node30&#45;&gt;Node32 -->
<g id="edge37" class="edge"><title>Node30&#45;&gt;Node32</title>
<path fill="none" stroke="midnightblue" d="M1612.16,-187.815C1636.93,-181.343 1666.37,-173.656 1686.64,-168.363"/>
<polygon fill="midnightblue" stroke="midnightblue" points="1611.01,-184.498 1602.22,-190.411 1612.78,-191.27 1611.01,-184.498"/>
</g>
<!-- Node33 -->
<g id="node33" class="node"><title>Node33</title>
<g id="a_node33"><a xlink:href="../../d2/d82/loadlib_8c.html#aa1ea5ee1b54a06650a887c4ee05a8547" target="_top" xlink:title="pushnexttemplate">
<polygon fill="none" stroke="red" points="1666,-114.5 1666,-133.5 1758,-133.5 1758,-114.5 1666,-114.5"/>
<text text-anchor="middle" x="1712" y="-121.5" font-family="Helvetica,sans-Serif" font-size="10.00">pushnexttemplate</text>
</a>
</g>
</g>
<!-- Node30&#45;&gt;Node33 -->
<g id="edge38" class="edge"><title>Node30&#45;&gt;Node33</title>
<path fill="none" stroke="midnightblue" d="M1609.21,-186.468C1612.62,-184.818 1615.93,-182.999 1619,-181 1638.5,-168.312 1635.41,-155.55 1655,-143 1660.88,-139.234 1667.59,-136.128 1674.27,-133.598"/>
<polygon fill="midnightblue" stroke="midnightblue" points="1607.81,-183.257 1600.03,-190.444 1610.6,-189.68 1607.81,-183.257"/>
</g>
<!-- Node34 -->
<g id="node34" class="node"><title>Node34</title>
<g id="a_node34"><a xlink:href="../../d2/d82/loadlib_8c.html#a91ac5b5231cf039af46226806dcc3884" target="_top" xlink:title="loadfunc">
<polygon fill="none" stroke="red" points="1686,-76.5 1686,-95.5 1738,-95.5 1738,-76.5 1686,-76.5"/>
<text text-anchor="middle" x="1712" y="-83.5" font-family="Helvetica,sans-Serif" font-size="10.00">loadfunc</text>
</a>
</g>
</g>
<!-- Node30&#45;&gt;Node34 -->
<g id="edge39" class="edge"><title>Node30&#45;&gt;Node34</title>
<path fill="none" stroke="midnightblue" d="M1612.9,-185.678C1615.06,-184.261 1617.11,-182.706 1619,-181 1646.73,-155.941 1627.09,-129.862 1655,-105 1663.59,-97.3512 1675.38,-92.7584 1685.93,-90.0116"/>
<polygon fill="midnightblue" stroke="midnightblue" points="1611.21,-182.614 1604.12,-190.489 1614.57,-188.753 1611.21,-182.614"/>
</g>
<!-- Node35 -->
<g id="node35" class="node"><title>Node35</title>
<g id="a_node35"><a xlink:href="../../d2/d82/loadlib_8c.html#a1ec05cd98a045c271aeda9f9c6041e1c" target="_top" xlink:title="searcher_Croot">
<polygon fill="none" stroke="red" points="1805,-57.5 1805,-76.5 1885,-76.5 1885,-57.5 1805,-57.5"/>
<text text-anchor="middle" x="1845" y="-64.5" font-family="Helvetica,sans-Serif" font-size="10.00">searcher_Croot</text>
</a>
</g>
</g>
<!-- Node30&#45;&gt;Node35 -->
<g id="edge41" class="edge"><title>Node30&#45;&gt;Node35</title>
<path fill="none" stroke="midnightblue" d="M1613.64,-185.658C1615.56,-184.248 1617.36,-182.7 1619,-181 1655.9,-142.771 1612.14,-98.4085 1655,-67 1702.24,-32.3773 1775.49,-46.0371 1815.51,-57.4807"/>
<polygon fill="midnightblue" stroke="midnightblue" points="1611.44,-182.893 1604.61,-190.996 1615,-188.919 1611.44,-182.893"/>
</g>
<!-- Node36 -->
<g id="node36" class="node"><title>Node36</title>
<g id="a_node36"><a xlink:href="../../dc/d77/lstrlib_8c.html#a039b391d5f43533a0ce750c5e40d7752" target="_top" xlink:title="str_sub">
<polygon fill="none" stroke="black" points="1688,-0.5 1688,-19.5 1736,-19.5 1736,-0.5 1688,-0.5"/>
<text text-anchor="middle" x="1712" y="-7.5" font-family="Helvetica,sans-Serif" font-size="10.00">str_sub</text>
</a>
</g>
</g>
<!-- Node30&#45;&gt;Node36 -->
<g id="edge42" class="edge"><title>Node30&#45;&gt;Node36</title>
<path fill="none" stroke="midnightblue" d="M1613.24,-186.197C1615.32,-184.645 1617.27,-182.92 1619,-181 1664.1,-131.095 1611.51,-85.3145 1655,-34 1663.34,-24.1554 1676.45,-18.2432 1687.89,-14.7513"/>
<polygon fill="midnightblue" stroke="midnightblue" points="1611.38,-183.228 1604.59,-191.358 1614.97,-189.239 1611.38,-183.228"/>
</g>
<!-- Node37 -->
<g id="node37" class="node"><title>Node37</title>
<g id="a_node37"><a xlink:href="../../dc/d77/lstrlib_8c.html#a24a14b4e6e90bac4610dd334bb0b51b6" target="_top" xlink:title="push_onecapture">
<polygon fill="none" stroke="red" points="1666.5,-266.5 1666.5,-285.5 1757.5,-285.5 1757.5,-266.5 1666.5,-266.5"/>
<text text-anchor="middle" x="1712" y="-273.5" font-family="Helvetica,sans-Serif" font-size="10.00">push_onecapture</text>
</a>
</g>
</g>
<!-- Node30&#45;&gt;Node37 -->
<g id="edge43" class="edge"><title>Node30&#45;&gt;Node37</title>
<path fill="none" stroke="midnightblue" d="M1608.3,-213.423C1612.01,-215.114 1615.63,-216.972 1619,-219 1637.6,-230.189 1636.77,-240.225 1655,-252 1663.8,-257.681 1674.16,-262.557 1683.57,-266.402"/>
<polygon fill="midnightblue" stroke="midnightblue" points="1609.56,-210.156 1598.98,-209.56 1606.88,-216.623 1609.56,-210.156"/>
</g>
<!-- Node38 -->
<g id="node38" class="node"><title>Node38</title>
<g id="a_node38"><a xlink:href="../../dc/d77/lstrlib_8c.html#ad24cfa73e5ad25ec99a1b48f0916471e" target="_top" xlink:title="add_value">
<polygon fill="none" stroke="red" points="1814,-247.5 1814,-266.5 1876,-266.5 1876,-247.5 1814,-247.5"/>
<text text-anchor="middle" x="1845" y="-254.5" font-family="Helvetica,sans-Serif" font-size="10.00">add_value</text>
</a>
</g>
</g>
<!-- Node30&#45;&gt;Node38 -->
<g id="edge45" class="edge"><title>Node30&#45;&gt;Node38</title>
<path fill="none" stroke="midnightblue" d="M1614.5,-210.502C1627.65,-213.292 1641.86,-216.284 1655,-219 1711.05,-230.583 1776.55,-243.647 1813.86,-251.045"/>
<polygon fill="midnightblue" stroke="midnightblue" points="1615.2,-207.072 1604.69,-208.415 1613.74,-213.919 1615.2,-207.072"/>
</g>
<!-- Node34&#45;&gt;Node35 -->
<g id="edge40" class="edge"><title>Node34&#45;&gt;Node35</title>
<path fill="none" stroke="midnightblue" d="M1748.58,-80.8394C1766,-78.3124 1787.02,-75.2637 1804.9,-72.6717"/>
<polygon fill="midnightblue" stroke="midnightblue" points="1747.65,-77.4374 1738.26,-82.3366 1748.66,-84.3649 1747.65,-77.4374"/>
</g>
<!-- Node37&#45;&gt;Node38 -->
<g id="edge44" class="edge"><title>Node37&#45;&gt;Node38</title>
<path fill="none" stroke="midnightblue" d="M1767.91,-268.037C1783.65,-265.752 1800.24,-263.346 1813.9,-261.366"/>
<polygon fill="midnightblue" stroke="midnightblue" points="1767.11,-264.615 1757.72,-269.514 1768.12,-271.543 1767.11,-264.615"/>
</g>
<!-- Node40 -->
<g id="node40" class="node"><title>Node40</title>
<g id="a_node40"><a xlink:href="../../d0/d56/lauxlib_8c.html#a36c8f149b779f8c9a5c042ea9784d80a" target="_top" xlink:title="findfield">
<polygon fill="none" stroke="red" points="1821.5,-304.5 1821.5,-323.5 1868.5,-323.5 1868.5,-304.5 1821.5,-304.5"/>
<text text-anchor="middle" x="1845" y="-311.5" font-family="Helvetica,sans-Serif" font-size="10.00">findfield</text>
</a>
</g>
</g>
<!-- Node39&#45;&gt;Node40 -->
<g id="edge47" class="edge"><title>Node39&#45;&gt;Node40</title>
<path fill="none" stroke="midnightblue" d="M1753.3,-314C1775.7,-314 1802.74,-314 1821.44,-314"/>
<polygon fill="midnightblue" stroke="midnightblue" points="1753.05,-310.5 1743.05,-314 1753.05,-317.5 1753.05,-310.5"/>
</g>
<!-- Node47&#45;&gt;Node39 -->
<g id="edge55" class="edge"><title>Node47&#45;&gt;Node39</title>
<path fill="none" stroke="midnightblue" d="M1600.36,-251.684C1606.76,-254.734 1613.23,-258.204 1619,-262 1637.13,-273.928 1636.32,-283.943 1655,-295 1662.95,-299.707 1672.23,-303.453 1680.93,-306.331"/>
<polygon fill="midnightblue" stroke="midnightblue" points="1601.7,-248.445 1591.14,-247.527 1598.82,-254.827 1601.7,-248.445"/>
</g>
<!-- Node48&#45;&gt;Node5 -->
<g id="edge57" class="edge"><title>Node48&#45;&gt;Node5</title>
<path fill="none" stroke="midnightblue" d="M655.933,-528.226C662.929,-524.996 670.266,-521.478 677,-518 691.223,-510.653 706.937,-501.473 718.257,-494.661"/>
<polygon fill="midnightblue" stroke="midnightblue" points="654.351,-525.1 646.693,-532.422 657.246,-531.474 654.351,-525.1"/>
</g>
<!-- Node49&#45;&gt;Node50 -->
<g id="edge59" class="edge"><title>Node49&#45;&gt;Node50</title>
<path fill="none" stroke="midnightblue" d="M540.545,-440.68C557.164,-445.815 576.032,-451.644 591.472,-456.414"/>
<polygon fill="midnightblue" stroke="midnightblue" points="541.126,-437.197 530.538,-437.589 539.059,-443.885 541.126,-437.197"/>
</g>
<!-- Node50&#45;&gt;Node5 -->
<g id="edge60" class="edge"><title>Node50&#45;&gt;Node5</title>
<path fill="none" stroke="midnightblue" d="M674.798,-474.728C688.229,-477.058 702.019,-479.451 712.908,-481.34"/>
<polygon fill="midnightblue" stroke="midnightblue" points="675.103,-471.228 664.652,-472.967 673.906,-478.125 675.103,-471.228"/>
</g>
</g>
</svg>
