<?xml version="1.0" encoding="UTF-8" standalone="no"?>
<!DOCTYPE svg PUBLIC "-//W3C//DTD SVG 1.1//EN"
 "http://www.w3.org/Graphics/SVG/1.1/DTD/svg11.dtd">
<!-- Generated by graphviz version 2.38.0 (20140413.2041)
 -->
<!-- Title: atomic Pages: 1 -->
<svg width="1425pt" height="475pt"
 viewBox="0.00 0.00 1425.00 474.50" xmlns="http://www.w3.org/2000/svg" xmlns:xlink="http://www.w3.org/1999/xlink">
<g id="graph0" class="graph" transform="scale(1 1) rotate(0) translate(4 470.5)">
<title>atomic</title>
<!-- Node1 -->
<g id="node1" class="node"><title>Node1</title>
<polygon fill="#bfbfbf" stroke="black" points="0,-152.5 0,-171.5 44,-171.5 44,-152.5 0,-152.5"/>
<text text-anchor="middle" x="22" y="-159.5" font-family="Helvetica,sans-Serif" font-size="10.00">atomic</text>
</g>
<!-- Node2 -->
<g id="node2" class="node"><title>Node2</title>
<g id="a_node2"><a xlink:href="../../de/d27/lgc_8c.html#ae34e22198155f5d365fe500d3735c150" target="_top" xlink:title="singlestep">
<polygon fill="none" stroke="black" points="80,-152.5 80,-171.5 139,-171.5 139,-152.5 80,-152.5"/>
<text text-anchor="middle" x="109.5" y="-159.5" font-family="Helvetica,sans-Serif" font-size="10.00">singlestep</text>
</a>
</g>
</g>
<!-- Node1&#45;&gt;Node2 -->
<g id="edge1" class="edge"><title>Node1&#45;&gt;Node2</title>
<path fill="none" stroke="midnightblue" d="M54.2875,-162C62.6539,-162 71.6528,-162 79.8681,-162"/>
<polygon fill="midnightblue" stroke="midnightblue" points="54.1349,-158.5 44.1348,-162 54.1348,-165.5 54.1349,-158.5"/>
</g>
<!-- Node3 -->
<g id="node3" class="node"><title>Node3</title>
<g id="a_node3"><a xlink:href="../../dc/d9c/lgc_8h.html#a1da32357417ce5766ed5e3ada033c32f" target="_top" xlink:title="luaC_runtilstate">
<polygon fill="none" stroke="black" points="175,-114.5 175,-133.5 256,-133.5 256,-114.5 175,-114.5"/>
<text text-anchor="middle" x="215.5" y="-121.5" font-family="Helvetica,sans-Serif" font-size="10.00">luaC_runtilstate</text>
</a>
</g>
</g>
<!-- Node2&#45;&gt;Node3 -->
<g id="edge2" class="edge"><title>Node2&#45;&gt;Node3</title>
<path fill="none" stroke="midnightblue" d="M146.402,-148.882C160.157,-143.856 175.58,-138.221 188.265,-133.586"/>
<polygon fill="midnightblue" stroke="midnightblue" points="144.935,-145.692 136.744,-152.411 147.337,-152.266 144.935,-145.692"/>
</g>
<!-- Node50 -->
<g id="node50" class="node"><title>Node50</title>
<g id="a_node50"><a xlink:href="../../de/d27/lgc_8c.html#a7515a46e25b277cbbe7febb4d06b196a" target="_top" xlink:title="incstep">
<polygon fill="none" stroke="black" points="192,-152.5 192,-171.5 239,-171.5 239,-152.5 192,-152.5"/>
<text text-anchor="middle" x="215.5" y="-159.5" font-family="Helvetica,sans-Serif" font-size="10.00">incstep</text>
</a>
</g>
</g>
<!-- Node2&#45;&gt;Node50 -->
<g id="edge59" class="edge"><title>Node2&#45;&gt;Node50</title>
<path fill="none" stroke="midnightblue" d="M149.306,-162C163.634,-162 179.393,-162 191.827,-162"/>
<polygon fill="midnightblue" stroke="midnightblue" points="149.194,-158.5 139.194,-162 149.194,-165.5 149.194,-158.5"/>
</g>
<!-- Node4 -->
<g id="node4" class="node"><title>Node4</title>
<g id="a_node4"><a xlink:href="../../dc/d9c/lgc_8h.html#af016fe72ab7e564d7d55e7e4fb659041" target="_top" xlink:title="luaC_changemode">
<polygon fill="none" stroke="black" points="292,-19.5 292,-38.5 389,-38.5 389,-19.5 292,-19.5"/>
<text text-anchor="middle" x="340.5" y="-26.5" font-family="Helvetica,sans-Serif" font-size="10.00">luaC_changemode</text>
</a>
</g>
</g>
<!-- Node3&#45;&gt;Node4 -->
<g id="edge3" class="edge"><title>Node3&#45;&gt;Node4</title>
<path fill="none" stroke="midnightblue" d="M237.196,-108.015C262.903,-88.1606 305.939,-54.9207 327.052,-38.614"/>
<polygon fill="midnightblue" stroke="midnightblue" points="234.975,-105.308 229.2,-114.191 239.254,-110.848 234.975,-105.308"/>
</g>
<!-- Node7 -->
<g id="node7" class="node"><title>Node7</title>
<g id="a_node7"><a xlink:href="../../de/d27/lgc_8c.html#a87bb9d2ca4bed013c39258f8abd61689" target="_top" xlink:title="generationalcollection">
<polygon fill="none" stroke="black" points="425,-114.5 425,-133.5 529,-133.5 529,-114.5 425,-114.5"/>
<text text-anchor="middle" x="477" y="-121.5" font-family="Helvetica,sans-Serif" font-size="10.00">generationalcollection</text>
</a>
</g>
</g>
<!-- Node3&#45;&gt;Node7 -->
<g id="edge6" class="edge"><title>Node3&#45;&gt;Node7</title>
<path fill="none" stroke="midnightblue" d="M266.413,-124C311.892,-124 378.778,-124 424.689,-124"/>
<polygon fill="midnightblue" stroke="midnightblue" points="266.195,-120.5 256.195,-124 266.195,-127.5 266.195,-120.5"/>
</g>
<!-- Node10 -->
<g id="node10" class="node"><title>Node10</title>
<g id="a_node10"><a xlink:href="../../dc/d9c/lgc_8h.html#aa0b753c3ed80e1eed0379ec58592c404" target="_top" xlink:title="luaC_fullgc">
<polygon fill="none" stroke="black" points="309.5,-76.5 309.5,-95.5 371.5,-95.5 371.5,-76.5 309.5,-76.5"/>
<text text-anchor="middle" x="340.5" y="-83.5" font-family="Helvetica,sans-Serif" font-size="10.00">luaC_fullgc</text>
</a>
</g>
</g>
<!-- Node3&#45;&gt;Node10 -->
<g id="edge10" class="edge"><title>Node3&#45;&gt;Node10</title>
<path fill="none" stroke="midnightblue" d="M257.225,-111.418C274.228,-106.165 293.631,-100.171 309.322,-95.3232"/>
<polygon fill="midnightblue" stroke="midnightblue" points="256.059,-108.115 247.538,-114.411 258.126,-114.803 256.059,-108.115"/>
</g>
<!-- Node12 -->
<g id="node12" class="node"><title>Node12</title>
<g id="a_node12"><a xlink:href="../../d4/dfb/lstring_8h.html#a44d549eb0ace165927a896f37330e2cd" target="_top" xlink:title="luaS_resize">
<polygon fill="none" stroke="black" points="307.5,-209.5 307.5,-228.5 373.5,-228.5 373.5,-209.5 307.5,-209.5"/>
<text text-anchor="middle" x="340.5" y="-216.5" font-family="Helvetica,sans-Serif" font-size="10.00">luaS_resize</text>
</a>
</g>
</g>
<!-- Node3&#45;&gt;Node12 -->
<g id="edge14" class="edge"><title>Node3&#45;&gt;Node12</title>
<path fill="none" stroke="midnightblue" d="M248.342,-138.3C250.988,-139.792 253.575,-141.364 256,-143 285.902,-163.168 315.956,-193.606 330.496,-209.132"/>
<polygon fill="midnightblue" stroke="midnightblue" points="249.753,-135.088 239.268,-133.565 246.515,-141.294 249.753,-135.088"/>
</g>
<!-- Node5 -->
<g id="node5" class="node"><title>Node5</title>
<g id="a_node5"><a xlink:href="../../da/dd2/lua_8h.html#a6bac487d3f900b21271e8c591bd801cd" target="_top" xlink:title="lua_gc">
<polygon fill="none" stroke="black" points="699,-19.5 699,-38.5 743,-38.5 743,-19.5 699,-19.5"/>
<text text-anchor="middle" x="721" y="-26.5" font-family="Helvetica,sans-Serif" font-size="10.00">lua_gc</text>
</a>
</g>
</g>
<!-- Node4&#45;&gt;Node5 -->
<g id="edge4" class="edge"><title>Node4&#45;&gt;Node5</title>
<path fill="none" stroke="midnightblue" d="M399.133,-29C484.767,-29 641.623,-29 698.598,-29"/>
<polygon fill="midnightblue" stroke="midnightblue" points="399.054,-25.5001 389.054,-29 399.054,-32.5001 399.054,-25.5001"/>
</g>
<!-- Node6 -->
<g id="node6" class="node"><title>Node6</title>
<g id="a_node6"><a xlink:href="../../d8/dd3/lbaselib_8c.html#a07f71966c943cc9761ab129f64d4ac80" target="_top" xlink:title="luaB_collectgarbage">
<polygon fill="none" stroke="black" points="800.5,-0.5 800.5,-19.5 902.5,-19.5 902.5,-0.5 800.5,-0.5"/>
<text text-anchor="middle" x="851.5" y="-7.5" font-family="Helvetica,sans-Serif" font-size="10.00">luaB_collectgarbage</text>
</a>
</g>
</g>
<!-- Node5&#45;&gt;Node6 -->
<g id="edge5" class="edge"><title>Node5&#45;&gt;Node6</title>
<path fill="none" stroke="midnightblue" d="M753.39,-24.3586C767.519,-22.2695 784.549,-19.7515 800.376,-17.4114"/>
<polygon fill="midnightblue" stroke="midnightblue" points="752.6,-20.9374 743.219,-25.8625 753.624,-27.8621 752.6,-20.9374"/>
</g>
<!-- Node8 -->
<g id="node8" class="node"><title>Node8</title>
<g id="a_node8"><a xlink:href="../../dc/d9c/lgc_8h.html#a19359957605d7c8eaf70803e5b77361f" target="_top" xlink:title="luaC_forcestep">
<polygon fill="none" stroke="black" points="565,-114.5 565,-133.5 645,-133.5 645,-114.5 565,-114.5"/>
<text text-anchor="middle" x="605" y="-121.5" font-family="Helvetica,sans-Serif" font-size="10.00">luaC_forcestep</text>
</a>
</g>
</g>
<!-- Node7&#45;&gt;Node8 -->
<g id="edge7" class="edge"><title>Node7&#45;&gt;Node8</title>
<path fill="none" stroke="midnightblue" d="M539.349,-124C548.003,-124 556.698,-124 564.78,-124"/>
<polygon fill="midnightblue" stroke="midnightblue" points="539.249,-120.5 529.249,-124 539.249,-127.5 539.249,-120.5"/>
</g>
<!-- Node8&#45;&gt;Node5 -->
<g id="edge8" class="edge"><title>Node8&#45;&gt;Node5</title>
<path fill="none" stroke="midnightblue" d="M625.494,-107.755C649.354,-87.8719 688.98,-54.8498 708.463,-38.614"/>
<polygon fill="midnightblue" stroke="midnightblue" points="623.212,-105.1 617.771,-114.191 627.694,-110.478 623.212,-105.1"/>
</g>
<!-- Node9 -->
<g id="node9" class="node"><title>Node9</title>
<g id="a_node9"><a xlink:href="../../dc/d9c/lgc_8h.html#a6c71cc4b9e503c0e96c0c4ffcff93900" target="_top" xlink:title="luaC_step">
<polygon fill="none" stroke="black" points="690.5,-114.5 690.5,-133.5 751.5,-133.5 751.5,-114.5 690.5,-114.5"/>
<text text-anchor="middle" x="721" y="-121.5" font-family="Helvetica,sans-Serif" font-size="10.00">luaC_step</text>
</a>
</g>
</g>
<!-- Node8&#45;&gt;Node9 -->
<g id="edge9" class="edge"><title>Node8&#45;&gt;Node9</title>
<path fill="none" stroke="midnightblue" d="M655.521,-124C667.42,-124 679.761,-124 690.422,-124"/>
<polygon fill="midnightblue" stroke="midnightblue" points="655.232,-120.5 645.232,-124 655.232,-127.5 655.232,-120.5"/>
</g>
<!-- Node10&#45;&gt;Node5 -->
<g id="edge11" class="edge"><title>Node10&#45;&gt;Node5</title>
<path fill="none" stroke="midnightblue" d="M381.596,-76.0586C395.305,-72.8781 410.769,-69.5296 425,-67 526.937,-48.8797 650.154,-35.8337 698.79,-31.0287"/>
<polygon fill="midnightblue" stroke="midnightblue" points="380.433,-72.7371 371.505,-78.4418 382.042,-79.5497 380.433,-72.7371"/>
</g>
<!-- Node10&#45;&gt;Node7 -->
<g id="edge12" class="edge"><title>Node10&#45;&gt;Node7</title>
<path fill="none" stroke="midnightblue" d="M381.413,-97.2766C400.732,-102.735 423.679,-109.218 442.132,-114.431"/>
<polygon fill="midnightblue" stroke="midnightblue" points="382.259,-93.8787 371.684,-94.5279 380.356,-100.615 382.259,-93.8787"/>
</g>
<!-- Node11 -->
<g id="node11" class="node"><title>Node11</title>
<g id="a_node11"><a xlink:href="../../d7/d3e/lmem_8h.html#ae7dc8a57fc5dbca825653a88a356a72d" target="_top" xlink:title="luaM_realloc_">
<polygon fill="none" stroke="black" points="440,-76.5 440,-95.5 514,-95.5 514,-76.5 440,-76.5"/>
<text text-anchor="middle" x="477" y="-83.5" font-family="Helvetica,sans-Serif" font-size="10.00">luaM_realloc_</text>
</a>
</g>
</g>
<!-- Node10&#45;&gt;Node11 -->
<g id="edge13" class="edge"><title>Node10&#45;&gt;Node11</title>
<path fill="none" stroke="midnightblue" d="M381.808,-86C400.202,-86 421.817,-86 439.699,-86"/>
<polygon fill="midnightblue" stroke="midnightblue" points="381.684,-82.5001 371.684,-86 381.684,-89.5001 381.684,-82.5001"/>
</g>
<!-- Node13 -->
<g id="node13" class="node"><title>Node13</title>
<g id="a_node13"><a xlink:href="../../de/d27/lgc_8c.html#aace8516e609d7409e789e7b2c190b9c2" target="_top" xlink:title="checkSizes">
<polygon fill="none" stroke="black" points="444.5,-266.5 444.5,-285.5 509.5,-285.5 509.5,-266.5 444.5,-266.5"/>
<text text-anchor="middle" x="477" y="-273.5" font-family="Helvetica,sans-Serif" font-size="10.00">checkSizes</text>
</a>
</g>
</g>
<!-- Node12&#45;&gt;Node13 -->
<g id="edge15" class="edge"><title>Node12&#45;&gt;Node13</title>
<path fill="none" stroke="midnightblue" d="M370.883,-232.984C386.784,-240.396 406.837,-249.495 425,-257 432.859,-260.248 441.496,-263.56 449.392,-266.49"/>
<polygon fill="midnightblue" stroke="midnightblue" points="372.113,-229.695 361.573,-228.616 369.14,-236.032 372.113,-229.695"/>
</g>
<!-- Node14 -->
<g id="node14" class="node"><title>Node14</title>
<g id="a_node14"><a xlink:href="../../dd/dca/lstate_8c.html#ab65e96a7498fd886f7223b92e91fd830" target="_top" xlink:title="f_luaopen">
<polygon fill="none" stroke="black" points="447.5,-228.5 447.5,-247.5 506.5,-247.5 506.5,-228.5 447.5,-228.5"/>
<text text-anchor="middle" x="477" y="-235.5" font-family="Helvetica,sans-Serif" font-size="10.00">f_luaopen</text>
</a>
</g>
</g>
<!-- Node12&#45;&gt;Node14 -->
<g id="edge17" class="edge"><title>Node12&#45;&gt;Node14</title>
<path fill="none" stroke="midnightblue" d="M383.825,-224.979C404.478,-227.897 428.784,-231.33 447.25,-233.939"/>
<polygon fill="midnightblue" stroke="midnightblue" points="384.107,-221.484 373.716,-223.551 383.128,-228.415 384.107,-221.484"/>
</g>
<!-- Node22 -->
<g id="node22" class="node"><title>Node22</title>
<g id="a_node22"><a xlink:href="../../d1/d2f/lstring_8c.html#a6e3c0fe3ba834ee00279a9df03f40fc4" target="_top" xlink:title="newshrstr">
<polygon fill="none" stroke="black" points="448,-190.5 448,-209.5 506,-209.5 506,-190.5 448,-190.5"/>
<text text-anchor="middle" x="477" y="-197.5" font-family="Helvetica,sans-Serif" font-size="10.00">newshrstr</text>
</a>
</g>
</g>
<!-- Node12&#45;&gt;Node22 -->
<g id="edge26" class="edge"><title>Node12&#45;&gt;Node22</title>
<path fill="none" stroke="midnightblue" d="M383.898,-213.011C404.703,-210.072 429.2,-206.611 447.698,-203.998"/>
<polygon fill="midnightblue" stroke="midnightblue" points="383.128,-209.585 373.716,-214.449 384.107,-216.516 383.128,-209.585"/>
</g>
<!-- Node13&#45;&gt;Node2 -->
<g id="edge16" class="edge"><title>Node13&#45;&gt;Node2</title>
<path fill="none" stroke="midnightblue" d="M434.179,-269.729C396.503,-263.524 339.851,-252.808 292,-238 231.137,-219.166 162.625,-187.438 129.911,-171.599"/>
<polygon fill="midnightblue" stroke="midnightblue" points="433.849,-273.221 444.279,-271.359 434.964,-266.31 433.849,-273.221"/>
</g>
<!-- Node15 -->
<g id="node15" class="node"><title>Node15</title>
<g id="a_node15"><a xlink:href="../../da/dd2/lua_8h.html#af722e4ac7fc0eba5920f59f0162c1b97" target="_top" xlink:title="lua_newstate">
<polygon fill="none" stroke="black" points="568,-258.5 568,-277.5 642,-277.5 642,-258.5 568,-258.5"/>
<text text-anchor="middle" x="605" y="-265.5" font-family="Helvetica,sans-Serif" font-size="10.00">lua_newstate</text>
</a>
</g>
</g>
<!-- Node14&#45;&gt;Node15 -->
<g id="edge18" class="edge"><title>Node14&#45;&gt;Node15</title>
<path fill="none" stroke="midnightblue" d="M516.389,-247.14C532.749,-251.035 551.736,-255.556 567.843,-259.391"/>
<polygon fill="midnightblue" stroke="midnightblue" points="517.13,-243.719 506.591,-244.807 515.509,-250.529 517.13,-243.719"/>
</g>
<!-- Node16 -->
<g id="node16" class="node"><title>Node16</title>
<g id="a_node16"><a xlink:href="../../da/d29/lauxlib_8h.html#a7d8712fcede90ae93d5a9a7b409c586e" target="_top" xlink:title="luaL_newstate">
<polygon fill="none" stroke="black" points="681,-356.5 681,-375.5 761,-375.5 761,-356.5 681,-356.5"/>
<text text-anchor="middle" x="721" y="-363.5" font-family="Helvetica,sans-Serif" font-size="10.00">luaL_newstate</text>
</a>
</g>
</g>
<!-- Node15&#45;&gt;Node16 -->
<g id="edge19" class="edge"><title>Node15&#45;&gt;Node16</title>
<path fill="none" stroke="midnightblue" d="M625.063,-284.387C648.97,-304.939 689.184,-339.509 708.698,-356.285"/>
<polygon fill="midnightblue" stroke="midnightblue" points="627.212,-281.62 617.348,-277.755 622.649,-286.928 627.212,-281.62"/>
</g>
<!-- Node21 -->
<g id="node21" class="node"><title>Node21</title>
<g id="a_node21"><a xlink:href="../../dd/dca/lstate_8c.html#a8a0fc0aca5367250347c6bb6a788f05f" target="_top" xlink:title="makeseed">
<polygon fill="none" stroke="black" points="690.5,-258.5 690.5,-277.5 751.5,-277.5 751.5,-258.5 690.5,-258.5"/>
<text text-anchor="middle" x="721" y="-265.5" font-family="Helvetica,sans-Serif" font-size="10.00">makeseed</text>
</a>
</g>
</g>
<!-- Node15&#45;&gt;Node21 -->
<g id="edge24" class="edge"><title>Node15&#45;&gt;Node21</title>
<path fill="none" stroke="midnightblue" d="M652.163,-261.36C665.018,-261.097 678.636,-261.307 690.271,-261.99"/>
<polygon fill="midnightblue" stroke="midnightblue" points="651.957,-257.864 642.07,-261.672 652.174,-264.861 651.957,-257.864"/>
</g>
<!-- Node17 -->
<g id="node17" class="node"><title>Node17</title>
<g id="a_node17"><a xlink:href="../../dc/de7/interface_kensho_lua_wrapper.html#a7d10aa0242861cdd109d3da9383882a2" target="_top" xlink:title="&#45;[KenshoLuaWrapper\l evaluate]">
<polygon fill="none" stroke="black" points="797,-381 797,-411 906,-411 906,-381 797,-381"/>
<text text-anchor="start" x="805" y="-399" font-family="Helvetica,sans-Serif" font-size="10.00">&#45;[KenshoLuaWrapper</text>
<text text-anchor="middle" x="851.5" y="-388" font-family="Helvetica,sans-Serif" font-size="10.00"> evaluate]</text>
</a>
</g>
</g>
<!-- Node16&#45;&gt;Node17 -->
<g id="edge20" class="edge"><title>Node16&#45;&gt;Node17</title>
<path fill="none" stroke="midnightblue" d="M771.242,-377.496C779.612,-379.45 788.341,-381.488 796.819,-383.467"/>
<polygon fill="midnightblue" stroke="midnightblue" points="771.786,-374.029 761.252,-375.164 770.195,-380.846 771.786,-374.029"/>
</g>
<!-- Node18 -->
<g id="node18" class="node"><title>Node18</title>
<g id="a_node18"><a xlink:href="../../dc/de7/interface_kensho_lua_wrapper.html#af6db46358f8858a18b55388aa3af211d" target="_top" xlink:title="&#45;[KenshoLuaWrapper\l initWithKensho:context\l:code:]">
<polygon fill="none" stroke="black" points="942,-375.5 942,-416.5 1056,-416.5 1056,-375.5 942,-375.5"/>
<text text-anchor="start" x="950" y="-404.5" font-family="Helvetica,sans-Serif" font-size="10.00">&#45;[KenshoLuaWrapper</text>
<text text-anchor="start" x="950" y="-393.5" font-family="Helvetica,sans-Serif" font-size="10.00"> initWithKensho:context</text>
<text text-anchor="middle" x="999" y="-382.5" font-family="Helvetica,sans-Serif" font-size="10.00">:code:]</text>
</a>
</g>
</g>
<!-- Node17&#45;&gt;Node18 -->
<g id="edge21" class="edge"><title>Node17&#45;&gt;Node18</title>
<path fill="none" stroke="midnightblue" d="M916.374,-396C924.751,-396 933.287,-396 941.53,-396"/>
<polygon fill="midnightblue" stroke="midnightblue" points="916.265,-392.5 906.265,-396 916.265,-399.5 916.265,-392.5"/>
</g>
<!-- Node19 -->
<g id="node19" class="node"><title>Node19</title>
<g id="a_node19"><a xlink:href="../../dc/de7/interface_kensho_lua_wrapper.html#a5555e0979799446611baee70104555c6" target="_top" xlink:title="&#45;[KenshoLuaWrapper\l evaluate:]">
<polygon fill="none" stroke="red" points="944.5,-326 944.5,-356 1053.5,-356 1053.5,-326 944.5,-326"/>
<text text-anchor="start" x="952.5" y="-344" font-family="Helvetica,sans-Serif" font-size="10.00">&#45;[KenshoLuaWrapper</text>
<text text-anchor="middle" x="999" y="-333" font-family="Helvetica,sans-Serif" font-size="10.00"> evaluate:]</text>
</a>
</g>
</g>
<!-- Node17&#45;&gt;Node19 -->
<g id="edge22" class="edge"><title>Node17&#45;&gt;Node19</title>
<path fill="none" stroke="midnightblue" d="M901.666,-377.415C920.106,-370.445 940.813,-362.617 958.29,-356.011"/>
<polygon fill="midnightblue" stroke="midnightblue" points="900.375,-374.161 892.259,-380.971 902.85,-380.709 900.375,-374.161"/>
</g>
<!-- Node20 -->
<g id="node20" class="node"><title>Node20</title>
<g id="a_node20"><a xlink:href="../../dc/de7/interface_kensho_lua_wrapper.html#a0bb5e125d727942726d707f8b59009dc" target="_top" xlink:title="&#45;[KenshoLuaWrapper\l observableUpdated:]">
<polygon fill="none" stroke="black" points="944.5,-436 944.5,-466 1053.5,-466 1053.5,-436 944.5,-436"/>
<text text-anchor="start" x="952.5" y="-454" font-family="Helvetica,sans-Serif" font-size="10.00">&#45;[KenshoLuaWrapper</text>
<text text-anchor="middle" x="999" y="-443" font-family="Helvetica,sans-Serif" font-size="10.00"> observableUpdated:]</text>
</a>
</g>
</g>
<!-- Node17&#45;&gt;Node20 -->
<g id="edge23" class="edge"><title>Node17&#45;&gt;Node20</title>
<path fill="none" stroke="midnightblue" d="M901.666,-414.585C920.106,-421.555 940.813,-429.383 958.29,-435.989"/>
<polygon fill="midnightblue" stroke="midnightblue" points="902.85,-411.291 892.259,-411.029 900.375,-417.839 902.85,-411.291"/>
</g>
<!-- Node21&#45;&gt;Node15 -->
<g id="edge25" class="edge"><title>Node21&#45;&gt;Node15</title>
<path fill="none" stroke="midnightblue" d="M680.196,-274.469C667.796,-274.886 654.199,-274.839 642.07,-274.328"/>
<polygon fill="midnightblue" stroke="midnightblue" points="680.441,-277.962 690.271,-274.01 680.122,-270.969 680.441,-277.962"/>
</g>
<!-- Node23 -->
<g id="node23" class="node"><title>Node23</title>
<g id="a_node23"><a xlink:href="../../d1/d2f/lstring_8c.html#a9b2c32c59a280de24f20df1c7f0433a1" target="_top" xlink:title="internshrstr">
<polygon fill="none" stroke="black" points="574.5,-190.5 574.5,-209.5 635.5,-209.5 635.5,-190.5 574.5,-190.5"/>
<text text-anchor="middle" x="605" y="-197.5" font-family="Helvetica,sans-Serif" font-size="10.00">internshrstr</text>
</a>
</g>
</g>
<!-- Node22&#45;&gt;Node23 -->
<g id="edge27" class="edge"><title>Node22&#45;&gt;Node23</title>
<path fill="none" stroke="midnightblue" d="M516.444,-200C534.953,-200 556.814,-200 574.061,-200"/>
<polygon fill="midnightblue" stroke="midnightblue" points="516.277,-196.5 506.277,-200 516.277,-203.5 516.277,-196.5"/>
</g>
<!-- Node24 -->
<g id="node24" class="node"><title>Node24</title>
<g id="a_node24"><a xlink:href="../../d4/dfb/lstring_8h.html#a248e72694b9116b07b2e7f4a9a3a5331" target="_top" xlink:title="luaS_newlstr">
<polygon fill="none" stroke="black" points="685.5,-190.5 685.5,-209.5 756.5,-209.5 756.5,-190.5 685.5,-190.5"/>
<text text-anchor="middle" x="721" y="-197.5" font-family="Helvetica,sans-Serif" font-size="10.00">luaS_newlstr</text>
</a>
</g>
</g>
<!-- Node23&#45;&gt;Node24 -->
<g id="edge28" class="edge"><title>Node23&#45;&gt;Node24</title>
<path fill="none" stroke="midnightblue" d="M646.035,-200C658.819,-200 672.856,-200 685.234,-200"/>
<polygon fill="midnightblue" stroke="midnightblue" points="645.655,-196.5 635.655,-200 645.655,-203.5 645.655,-196.5"/>
</g>
<!-- Node25 -->
<g id="node25" class="node"><title>Node25</title>
<g id="a_node25"><a xlink:href="../../da/dd2/lua_8h.html#a4ab8500ade8e1d8a87b1df1baf19b179" target="_top" xlink:title="lua_pushlstring">
<polygon fill="none" stroke="black" points="1092.5,-228.5 1092.5,-247.5 1172.5,-247.5 1172.5,-228.5 1092.5,-228.5"/>
<text text-anchor="middle" x="1132.5" y="-235.5" font-family="Helvetica,sans-Serif" font-size="10.00">lua_pushlstring</text>
</a>
</g>
</g>
<!-- Node24&#45;&gt;Node25 -->
<g id="edge29" class="edge"><title>Node24&#45;&gt;Node25</title>
<path fill="none" stroke="midnightblue" d="M766.892,-204.166C847.653,-211.66 1016.12,-227.293 1092.43,-234.375"/>
<polygon fill="midnightblue" stroke="midnightblue" points="766.841,-200.646 756.561,-203.207 766.195,-207.616 766.841,-200.646"/>
</g>
<!-- Node34 -->
<g id="node34" class="node"><title>Node34</title>
<g id="a_node34"><a xlink:href="../../da/dd2/lua_8h.html#a4eba0457df5bafff4d44071d1d8080b6" target="_top" xlink:title="lua_concat">
<polygon fill="none" stroke="black" points="968,-133.5 968,-152.5 1030,-152.5 1030,-133.5 968,-133.5"/>
<text text-anchor="middle" x="999" y="-140.5" font-family="Helvetica,sans-Serif" font-size="10.00">lua_concat</text>
</a>
</g>
</g>
<!-- Node24&#45;&gt;Node34 -->
<g id="edge40" class="edge"><title>Node24&#45;&gt;Node34</title>
<path fill="none" stroke="midnightblue" d="M766.77,-190.754C823.385,-179.062 919.324,-159.248 967.899,-149.216"/>
<polygon fill="midnightblue" stroke="midnightblue" points="765.762,-187.388 756.676,-192.839 767.177,-194.244 765.762,-187.388"/>
</g>
<!-- Node40 -->
<g id="node40" class="node"><title>Node40</title>
<g id="a_node40"><a xlink:href="../../dd/d05/lcode_8h.html#a4f928250a0f4007764b4d3777651f617" target="_top" xlink:title="luaK_numberK">
<polygon fill="none" stroke="black" points="811.5,-76.5 811.5,-95.5 891.5,-95.5 891.5,-76.5 811.5,-76.5"/>
<text text-anchor="middle" x="851.5" y="-83.5" font-family="Helvetica,sans-Serif" font-size="10.00">luaK_numberK</text>
</a>
</g>
</g>
<!-- Node24&#45;&gt;Node40 -->
<g id="edge48" class="edge"><title>Node24&#45;&gt;Node40</title>
<path fill="none" stroke="midnightblue" d="M734.345,-182.045C751.399,-157.676 781.78,-115.909 797,-105 802.287,-101.21 808.405,-98.1117 814.572,-95.5999"/>
<polygon fill="midnightblue" stroke="midnightblue" points="731.35,-180.223 728.521,-190.433 737.1,-184.215 731.35,-180.223"/>
</g>
<!-- Node44 -->
<g id="node44" class="node"><title>Node44</title>
<g id="a_node44"><a xlink:href="../../d8/d27/llex_8h.html#aa6e79179f823cf156f61899a09239ca6" target="_top" xlink:title="luaX_newstring">
<polygon fill="none" stroke="red" points="811,-38.5 811,-57.5 892,-57.5 892,-38.5 811,-38.5"/>
<text text-anchor="middle" x="851.5" y="-45.5" font-family="Helvetica,sans-Serif" font-size="10.00">luaX_newstring</text>
</a>
</g>
</g>
<!-- Node24&#45;&gt;Node44 -->
<g id="edge52" class="edge"><title>Node24&#45;&gt;Node44</title>
<path fill="none" stroke="midnightblue" d="M735.459,-181.913C743.35,-170.936 753.257,-156.485 761,-143 779.611,-110.587 769.269,-92.059 797,-67 801.315,-63.101 806.482,-59.99 811.88,-57.5109"/>
<polygon fill="midnightblue" stroke="midnightblue" points="732.465,-180.078 729.397,-190.219 738.119,-184.205 732.465,-180.078"/>
</g>
<!-- Node45 -->
<g id="node45" class="node"><title>Node45</title>
<g id="a_node45"><a xlink:href="../../d7/d9b/lobject_8c.html#aa65db03553a5abd73e466d307bb17a37" target="_top" xlink:title="pushstr">
<polygon fill="none" stroke="red" points="827.5,-342.5 827.5,-361.5 875.5,-361.5 875.5,-342.5 827.5,-342.5"/>
<text text-anchor="middle" x="851.5" y="-349.5" font-family="Helvetica,sans-Serif" font-size="10.00">pushstr</text>
</a>
</g>
</g>
<!-- Node24&#45;&gt;Node45 -->
<g id="edge53" class="edge"><title>Node24&#45;&gt;Node45</title>
<path fill="none" stroke="midnightblue" d="M737.711,-217.371C745.36,-226.384 754.323,-237.825 761,-249 781.833,-283.868 767.38,-305.207 797,-333 805.338,-340.823 817.104,-345.458 827.48,-348.187"/>
<polygon fill="midnightblue" stroke="midnightblue" points="740.108,-214.795 730.896,-209.561 734.834,-219.397 740.108,-214.795"/>
</g>
<!-- Node46 -->
<g id="node46" class="node"><title>Node46</title>
<g id="a_node46"><a xlink:href="../../d4/dfb/lstring_8h.html#a6929da8cfde3e74a0d51a6467909ef9d" target="_top" xlink:title="luaS_new">
<polygon fill="none" stroke="red" points="821.5,-304.5 821.5,-323.5 881.5,-323.5 881.5,-304.5 821.5,-304.5"/>
<text text-anchor="middle" x="851.5" y="-311.5" font-family="Helvetica,sans-Serif" font-size="10.00">luaS_new</text>
</a>
</g>
</g>
<!-- Node24&#45;&gt;Node46 -->
<g id="edge54" class="edge"><title>Node24&#45;&gt;Node46</title>
<path fill="none" stroke="midnightblue" d="M736.253,-217.835C743.653,-227.114 752.833,-238.652 761,-249 777.084,-269.379 775.931,-279.831 797,-295 804.199,-300.183 812.949,-304.07 821.269,-306.932"/>
<polygon fill="midnightblue" stroke="midnightblue" points="738.767,-215.375 729.793,-209.743 733.296,-219.742 738.767,-215.375"/>
</g>
<!-- Node47 -->
<g id="node47" class="node"><title>Node47</title>
<g id="a_node47"><a xlink:href="../../de/d2f/lundump_8c.html#abfe7dabe70bd14e27d54d3cedc6cb70a" target="_top" xlink:title="LoadString">
<polygon fill="none" stroke="red" points="820.5,-266.5 820.5,-285.5 882.5,-285.5 882.5,-266.5 820.5,-266.5"/>
<text text-anchor="middle" x="851.5" y="-273.5" font-family="Helvetica,sans-Serif" font-size="10.00">LoadString</text>
</a>
</g>
</g>
<!-- Node24&#45;&gt;Node47 -->
<g id="edge55" class="edge"><title>Node24&#45;&gt;Node47</title>
<path fill="none" stroke="midnightblue" d="M740.171,-216.379C754.715,-228.83 776.074,-245.688 797,-257 804.283,-260.937 812.547,-264.336 820.364,-267.126"/>
<polygon fill="midnightblue" stroke="midnightblue" points="742.283,-213.577 732.45,-209.633 737.678,-218.848 742.283,-213.577"/>
</g>
<!-- Node48 -->
<g id="node48" class="node"><title>Node48</title>
<g id="a_node48"><a xlink:href="../../d5/dcd/lvm_8h.html#abcde68a7697547dc2c7f1d0e6734e611" target="_top" xlink:title="luaV_tostring">
<polygon fill="none" stroke="red" points="816,-228.5 816,-247.5 887,-247.5 887,-228.5 816,-228.5"/>
<text text-anchor="middle" x="851.5" y="-235.5" font-family="Helvetica,sans-Serif" font-size="10.00">luaV_tostring</text>
</a>
</g>
</g>
<!-- Node24&#45;&gt;Node48 -->
<g id="edge56" class="edge"><title>Node24&#45;&gt;Node48</title>
<path fill="none" stroke="midnightblue" d="M764.389,-212.535C781.87,-217.705 801.802,-223.599 818.084,-228.414"/>
<polygon fill="midnightblue" stroke="midnightblue" points="765.008,-209.069 754.426,-209.589 763.023,-215.781 765.008,-209.069"/>
</g>
<!-- Node49 -->
<g id="node49" class="node"><title>Node49</title>
<g id="a_node49"><a xlink:href="../../d5/dcd/lvm_8h.html#aee84bfc563cb4bdd21a013218a289aa7" target="_top" xlink:title="luaV_concat">
<polygon fill="none" stroke="red" points="817,-114.5 817,-133.5 886,-133.5 886,-114.5 817,-114.5"/>
<text text-anchor="middle" x="851.5" y="-121.5" font-family="Helvetica,sans-Serif" font-size="10.00">luaV_concat</text>
</a>
</g>
</g>
<!-- Node24&#45;&gt;Node49 -->
<g id="edge57" class="edge"><title>Node24&#45;&gt;Node49</title>
<path fill="none" stroke="midnightblue" d="M742.621,-184.158C757.322,-173.253 777.805,-158.837 797,-148 806.397,-142.695 817.184,-137.668 826.6,-133.599"/>
<polygon fill="midnightblue" stroke="midnightblue" points="740.167,-181.623 734.277,-190.43 744.374,-187.218 740.167,-181.623"/>
</g>
<!-- Node26 -->
<g id="node26" class="node"><title>Node26</title>
<g id="a_node26"><a xlink:href="../../da/d29/lauxlib_8h.html#aac5dfab9ba0ced4f5ae3b22aa35faffe" target="_top" xlink:title="luaL_pushresult">
<polygon fill="none" stroke="red" points="1213.5,-266.5 1213.5,-285.5 1296.5,-285.5 1296.5,-266.5 1213.5,-266.5"/>
<text text-anchor="middle" x="1255" y="-273.5" font-family="Helvetica,sans-Serif" font-size="10.00">luaL_pushresult</text>
</a>
</g>
</g>
<!-- Node25&#45;&gt;Node26 -->
<g id="edge30" class="edge"><title>Node25&#45;&gt;Node26</title>
<path fill="none" stroke="midnightblue" d="M1173.71,-250.68C1189.99,-255.815 1208.48,-261.644 1223.6,-266.414"/>
<polygon fill="midnightblue" stroke="midnightblue" points="1174.5,-247.259 1163.91,-247.589 1172.39,-253.935 1174.5,-247.259"/>
</g>
<!-- Node27 -->
<g id="node27" class="node"><title>Node27</title>
<g id="a_node27"><a xlink:href="../../de/df3/liolib_8c.html#ace61fce0bdea311d6d7c2206881165c7" target="_top" xlink:title="test_eof">
<polygon fill="none" stroke="red" points="1230,-228.5 1230,-247.5 1280,-247.5 1280,-228.5 1230,-228.5"/>
<text text-anchor="middle" x="1255" y="-235.5" font-family="Helvetica,sans-Serif" font-size="10.00">test_eof</text>
</a>
</g>
</g>
<!-- Node25&#45;&gt;Node27 -->
<g id="edge31" class="edge"><title>Node25&#45;&gt;Node27</title>
<path fill="none" stroke="midnightblue" d="M1183.03,-238C1199.17,-238 1216.38,-238 1229.8,-238"/>
<polygon fill="midnightblue" stroke="midnightblue" points="1182.62,-234.5 1172.62,-238 1182.62,-241.5 1182.62,-234.5"/>
</g>
<!-- Node28 -->
<g id="node28" class="node"><title>Node28</title>
<g id="a_node28"><a xlink:href="../../d2/d82/loadlib_8c.html#aa1ea5ee1b54a06650a887c4ee05a8547" target="_top" xlink:title="pushnexttemplate">
<polygon fill="none" stroke="red" points="1209,-190.5 1209,-209.5 1301,-209.5 1301,-190.5 1209,-190.5"/>
<text text-anchor="middle" x="1255" y="-197.5" font-family="Helvetica,sans-Serif" font-size="10.00">pushnexttemplate</text>
</a>
</g>
</g>
<!-- Node25&#45;&gt;Node28 -->
<g id="edge32" class="edge"><title>Node25&#45;&gt;Node28</title>
<path fill="none" stroke="midnightblue" d="M1173.71,-225.32C1189.99,-220.185 1208.48,-214.356 1223.6,-209.586"/>
<polygon fill="midnightblue" stroke="midnightblue" points="1172.39,-222.065 1163.91,-228.411 1174.5,-228.741 1172.39,-222.065"/>
</g>
<!-- Node29 -->
<g id="node29" class="node"><title>Node29</title>
<g id="a_node29"><a xlink:href="../../d2/d82/loadlib_8c.html#a91ac5b5231cf039af46226806dcc3884" target="_top" xlink:title="loadfunc">
<polygon fill="none" stroke="red" points="1229,-380.5 1229,-399.5 1281,-399.5 1281,-380.5 1229,-380.5"/>
<text text-anchor="middle" x="1255" y="-387.5" font-family="Helvetica,sans-Serif" font-size="10.00">loadfunc</text>
</a>
</g>
</g>
<!-- Node25&#45;&gt;Node29 -->
<g id="edge33" class="edge"><title>Node25&#45;&gt;Node29</title>
<path fill="none" stroke="midnightblue" d="M1140.79,-257.008C1151.97,-284.085 1175.61,-334.016 1209,-366 1215.14,-371.88 1223,-376.725 1230.43,-380.484"/>
<polygon fill="midnightblue" stroke="midnightblue" points="1143.96,-255.517 1137.01,-247.529 1137.46,-258.114 1143.96,-255.517"/>
</g>
<!-- Node30 -->
<g id="node30" class="node"><title>Node30</title>
<g id="a_node30"><a xlink:href="../../d2/d82/loadlib_8c.html#a1ec05cd98a045c271aeda9f9c6041e1c" target="_top" xlink:title="searcher_Croot">
<polygon fill="none" stroke="red" points="1337,-361.5 1337,-380.5 1417,-380.5 1417,-361.5 1337,-361.5"/>
<text text-anchor="middle" x="1377" y="-368.5" font-family="Helvetica,sans-Serif" font-size="10.00">searcher_Croot</text>
</a>
</g>
</g>
<!-- Node25&#45;&gt;Node30 -->
<g id="edge35" class="edge"><title>Node25&#45;&gt;Node30</title>
<path fill="none" stroke="midnightblue" d="M1143.08,-256.516C1155.35,-278.308 1178.69,-313.934 1209,-333 1248.01,-357.54 1301,-366.294 1336.75,-369.382"/>
<polygon fill="midnightblue" stroke="midnightblue" points="1146.08,-254.709 1138.24,-247.586 1139.93,-258.045 1146.08,-254.709"/>
</g>
<!-- Node31 -->
<g id="node31" class="node"><title>Node31</title>
<g id="a_node31"><a xlink:href="../../dc/d77/lstrlib_8c.html#a039b391d5f43533a0ce750c5e40d7752" target="_top" xlink:title="str_sub">
<polygon fill="none" stroke="black" points="1231,-304.5 1231,-323.5 1279,-323.5 1279,-304.5 1231,-304.5"/>
<text text-anchor="middle" x="1255" y="-311.5" font-family="Helvetica,sans-Serif" font-size="10.00">str_sub</text>
</a>
</g>
</g>
<!-- Node25&#45;&gt;Node31 -->
<g id="edge36" class="edge"><title>Node25&#45;&gt;Node31</title>
<path fill="none" stroke="midnightblue" d="M1152.51,-254.456C1167.25,-266.677 1188.54,-283.203 1209,-295 1215.76,-298.898 1223.47,-302.448 1230.58,-305.397"/>
<polygon fill="midnightblue" stroke="midnightblue" points="1154.55,-251.595 1144.65,-247.825 1150.04,-256.947 1154.55,-251.595"/>
</g>
<!-- Node32 -->
<g id="node32" class="node"><title>Node32</title>
<g id="a_node32"><a xlink:href="../../dc/d77/lstrlib_8c.html#a24a14b4e6e90bac4610dd334bb0b51b6" target="_top" xlink:title="push_onecapture">
<polygon fill="none" stroke="red" points="1209.5,-114.5 1209.5,-133.5 1300.5,-133.5 1300.5,-114.5 1209.5,-114.5"/>
<text text-anchor="middle" x="1255" y="-121.5" font-family="Helvetica,sans-Serif" font-size="10.00">push_onecapture</text>
</a>
</g>
</g>
<!-- Node25&#45;&gt;Node32 -->
<g id="edge37" class="edge"><title>Node25&#45;&gt;Node32</title>
<path fill="none" stroke="midnightblue" d="M1168.39,-222.935C1170.02,-221.708 1171.57,-220.398 1173,-219 1198.28,-194.246 1184.24,-173.275 1209,-148 1214.82,-142.054 1222.44,-137.239 1229.74,-133.526"/>
<polygon fill="midnightblue" stroke="midnightblue" points="1166.33,-220.099 1159.73,-228.387 1170.06,-226.023 1166.33,-220.099"/>
</g>
<!-- Node33 -->
<g id="node33" class="node"><title>Node33</title>
<g id="a_node33"><a xlink:href="../../dc/d77/lstrlib_8c.html#ad24cfa73e5ad25ec99a1b48f0916471e" target="_top" xlink:title="add_value">
<polygon fill="none" stroke="red" points="1346,-114.5 1346,-133.5 1408,-133.5 1408,-114.5 1346,-114.5"/>
<text text-anchor="middle" x="1377" y="-121.5" font-family="Helvetica,sans-Serif" font-size="10.00">add_value</text>
</a>
</g>
</g>
<!-- Node25&#45;&gt;Node33 -->
<g id="edge39" class="edge"><title>Node25&#45;&gt;Node33</title>
<path fill="none" stroke="midnightblue" d="M1165.92,-223.629C1168.38,-222.173 1170.77,-220.626 1173,-219 1191.79,-205.287 1189.42,-193.567 1209,-181 1232.01,-166.23 1304.12,-144.345 1345.68,-132.448"/>
<polygon fill="midnightblue" stroke="midnightblue" points="1164.02,-220.679 1156.87,-228.495 1167.33,-226.846 1164.02,-220.679"/>
</g>
<!-- Node29&#45;&gt;Node30 -->
<g id="edge34" class="edge"><title>Node29&#45;&gt;Node30</title>
<path fill="none" stroke="midnightblue" d="M1291.1,-384.442C1305.4,-382.178 1322,-379.55 1336.7,-377.222"/>
<polygon fill="midnightblue" stroke="midnightblue" points="1290.49,-380.996 1281.16,-386.017 1291.58,-387.91 1290.49,-380.996"/>
</g>
<!-- Node32&#45;&gt;Node33 -->
<g id="edge38" class="edge"><title>Node32&#45;&gt;Node33</title>
<path fill="none" stroke="midnightblue" d="M1310.72,-124C1322.8,-124 1335.17,-124 1345.85,-124"/>
<polygon fill="midnightblue" stroke="midnightblue" points="1310.68,-120.5 1300.68,-124 1310.68,-127.5 1310.68,-120.5"/>
</g>
<!-- Node35 -->
<g id="node35" class="node"><title>Node35</title>
<g id="a_node35"><a xlink:href="../../d0/d56/lauxlib_8c.html#a36c8f149b779f8c9a5c042ea9784d80a" target="_top" xlink:title="findfield">
<polygon fill="none" stroke="red" points="1109,-76.5 1109,-95.5 1156,-95.5 1156,-76.5 1109,-76.5"/>
<text text-anchor="middle" x="1132.5" y="-83.5" font-family="Helvetica,sans-Serif" font-size="10.00">findfield</text>
</a>
</g>
</g>
<!-- Node34&#45;&gt;Node35 -->
<g id="edge41" class="edge"><title>Node34&#45;&gt;Node35</title>
<path fill="none" stroke="midnightblue" d="M1039.95,-130.314C1045.4,-128.333 1050.87,-126.207 1056,-124 1072.62,-116.849 1075.85,-113.145 1092,-105 1098.25,-101.848 1105.11,-98.5079 1111.33,-95.5217"/>
<polygon fill="midnightblue" stroke="midnightblue" points="1038.55,-127.097 1030.27,-133.707 1040.86,-133.704 1038.55,-127.097"/>
</g>
<!-- Node36 -->
<g id="node36" class="node"><title>Node36</title>
<g id="a_node36"><a xlink:href="../../da/d29/lauxlib_8h.html#a664cc293d6c7a7dc67857fe95583a10e" target="_top" xlink:title="luaL_traceback">
<polygon fill="none" stroke="red" points="1092,-38.5 1092,-57.5 1173,-57.5 1173,-38.5 1092,-38.5"/>
<text text-anchor="middle" x="1132.5" y="-45.5" font-family="Helvetica,sans-Serif" font-size="10.00">luaL_traceback</text>
</a>
</g>
</g>
<!-- Node34&#45;&gt;Node36 -->
<g id="edge42" class="edge"><title>Node34&#45;&gt;Node36</title>
<path fill="none" stroke="midnightblue" d="M1039.83,-133.294C1045.59,-130.838 1051.2,-127.785 1056,-124 1079.54,-105.457 1069.63,-86.9347 1092,-67 1096.09,-63.3548 1101,-60.257 1105.96,-57.6872"/>
<polygon fill="midnightblue" stroke="midnightblue" points="1038.25,-130.145 1030.08,-136.887 1040.67,-136.713 1038.25,-130.145"/>
</g>
<!-- Node37 -->
<g id="node37" class="node"><title>Node37</title>
<g id="a_node37"><a xlink:href="../../da/d29/lauxlib_8h.html#a994f73d7985c30672469a260d9e86ae6" target="_top" xlink:title="luaL_error">
<polygon fill="none" stroke="red" points="1104,-114.5 1104,-133.5 1161,-133.5 1161,-114.5 1104,-114.5"/>
<text text-anchor="middle" x="1132.5" y="-121.5" font-family="Helvetica,sans-Serif" font-size="10.00">luaL_error</text>
</a>
</g>
</g>
<!-- Node34&#45;&gt;Node37 -->
<g id="edge43" class="edge"><title>Node34&#45;&gt;Node37</title>
<path fill="none" stroke="midnightblue" d="M1040.2,-137.191C1060.76,-134.22 1085.27,-130.679 1103.72,-128.015"/>
<polygon fill="midnightblue" stroke="midnightblue" points="1039.57,-133.747 1030.17,-138.641 1040.57,-140.675 1039.57,-133.747"/>
</g>
<!-- Node38 -->
<g id="node38" class="node"><title>Node38</title>
<g id="a_node38"><a xlink:href="../../d8/dd3/lbaselib_8c.html#a2ecfa987569d0b4c1063f3e204e42dd2" target="_top" xlink:title="luaB_error">
<polygon fill="none" stroke="black" points="1103,-190.5 1103,-209.5 1162,-209.5 1162,-190.5 1103,-190.5"/>
<text text-anchor="middle" x="1132.5" y="-197.5" font-family="Helvetica,sans-Serif" font-size="10.00">luaB_error</text>
</a>
</g>
</g>
<!-- Node34&#45;&gt;Node38 -->
<g id="edge46" class="edge"><title>Node34&#45;&gt;Node38</title>
<path fill="none" stroke="midnightblue" d="M1031.42,-156.618C1055.48,-167.046 1088.06,-181.17 1109.42,-190.428"/>
<polygon fill="midnightblue" stroke="midnightblue" points="1032.58,-153.306 1022.01,-152.541 1029.79,-159.729 1032.58,-153.306"/>
</g>
<!-- Node39 -->
<g id="node39" class="node"><title>Node39</title>
<g id="a_node39"><a xlink:href="../../df/d2d/lcorolib_8c.html#a777abb20385a69ce4787f72bd90375a7" target="_top" xlink:title="luaB_auxwrap">
<polygon fill="none" stroke="red" points="1092.5,-152.5 1092.5,-171.5 1172.5,-171.5 1172.5,-152.5 1092.5,-152.5"/>
<text text-anchor="middle" x="1132.5" y="-159.5" font-family="Helvetica,sans-Serif" font-size="10.00">luaB_auxwrap</text>
</a>
</g>
</g>
<!-- Node34&#45;&gt;Node39 -->
<g id="edge47" class="edge"><title>Node34&#45;&gt;Node39</title>
<path fill="none" stroke="midnightblue" d="M1040.14,-148.799C1056.76,-151.201 1075.98,-153.978 1092.48,-156.362"/>
<polygon fill="midnightblue" stroke="midnightblue" points="1040.57,-145.325 1030.17,-147.359 1039.57,-152.253 1040.57,-145.325"/>
</g>
<!-- Node37&#45;&gt;Node32 -->
<g id="edge45" class="edge"><title>Node37&#45;&gt;Node32</title>
<path fill="none" stroke="midnightblue" d="M1171.36,-124C1183.45,-124 1196.96,-124 1209.48,-124"/>
<polygon fill="midnightblue" stroke="midnightblue" points="1171.15,-120.5 1161.15,-124 1171.15,-127.5 1171.15,-120.5"/>
</g>
<!-- Node37&#45;&gt;Node33 -->
<g id="edge44" class="edge"><title>Node37&#45;&gt;Node33</title>
<path fill="none" stroke="midnightblue" d="M1170.89,-112.656C1182.93,-109.523 1196.42,-106.558 1209,-105 1249.58,-99.9725 1260.43,-99.9405 1301,-105 1315.93,-106.862 1332.15,-110.731 1345.68,-114.495"/>
<polygon fill="midnightblue" stroke="midnightblue" points="1169.89,-109.3 1161.16,-115.299 1171.72,-116.055 1169.89,-109.3"/>
</g>
<!-- Node41 -->
<g id="node41" class="node"><title>Node41</title>
<g id="a_node41"><a xlink:href="../../d8/d7a/lcode_8c.html#a961993a449bc9612ac966652646ffad6" target="_top" xlink:title="discharge2reg">
<polygon fill="none" stroke="red" points="961.5,-57.5 961.5,-76.5 1036.5,-76.5 1036.5,-57.5 961.5,-57.5"/>
<text text-anchor="middle" x="999" y="-64.5" font-family="Helvetica,sans-Serif" font-size="10.00">discharge2reg</text>
</a>
</g>
</g>
<!-- Node40&#45;&gt;Node41 -->
<g id="edge49" class="edge"><title>Node40&#45;&gt;Node41</title>
<path fill="none" stroke="midnightblue" d="M902.032,-79.5319C921.378,-77.0056 943.172,-74.1596 961.096,-71.8191"/>
<polygon fill="midnightblue" stroke="midnightblue" points="901.337,-76.0929 891.874,-80.8583 902.243,-83.0339 901.337,-76.0929"/>
</g>
<!-- Node42 -->
<g id="node42" class="node"><title>Node42</title>
<g id="a_node42"><a xlink:href="../../d8/d9c/lparser_8c.html#a18532c1a3a900cb8f3399b470c00daf0" target="_top" xlink:title="fornum">
<polygon fill="none" stroke="red" points="977,-19.5 977,-38.5 1021,-38.5 1021,-19.5 977,-19.5"/>
<text text-anchor="middle" x="999" y="-26.5" font-family="Helvetica,sans-Serif" font-size="10.00">fornum</text>
</a>
</g>
</g>
<!-- Node40&#45;&gt;Node42 -->
<g id="edge50" class="edge"><title>Node40&#45;&gt;Node42</title>
<path fill="none" stroke="midnightblue" d="M891.216,-73.0004C896.234,-71.0971 901.27,-69.0753 906,-67 922.567,-59.7315 925.382,-55.1511 942,-48 953.317,-43.1303 966.329,-38.6512 976.96,-35.2664"/>
<polygon fill="midnightblue" stroke="midnightblue" points="889.859,-69.7701 881.674,-76.4973 892.268,-76.3426 889.859,-69.7701"/>
</g>
<!-- Node43 -->
<g id="node43" class="node"><title>Node43</title>
<g id="a_node43"><a xlink:href="../../dd/d05/lcode_8h.html#a28ef529fcd27c07fb222181894abdf7e" target="_top" xlink:title="luaK_exp2RK">
<polygon fill="none" stroke="red" points="960.5,-95.5 960.5,-114.5 1037.5,-114.5 1037.5,-95.5 960.5,-95.5"/>
<text text-anchor="middle" x="999" y="-102.5" font-family="Helvetica,sans-Serif" font-size="10.00">luaK_exp2RK</text>
</a>
</g>
</g>
<!-- Node40&#45;&gt;Node43 -->
<g id="edge51" class="edge"><title>Node40&#45;&gt;Node43</title>
<path fill="none" stroke="midnightblue" d="M901.869,-92.4468C920.9,-94.9319 942.319,-97.7289 960.101,-100.051"/>
<polygon fill="midnightblue" stroke="midnightblue" points="902.243,-88.9661 891.874,-91.1417 901.337,-95.9071 902.243,-88.9661"/>
</g>
<!-- Node49&#45;&gt;Node34 -->
<g id="edge58" class="edge"><title>Node49&#45;&gt;Node34</title>
<path fill="none" stroke="midnightblue" d="M896.177,-129.703C919.327,-132.727 947.178,-136.363 967.896,-139.069"/>
<polygon fill="midnightblue" stroke="midnightblue" points="896.615,-126.231 886.246,-128.407 895.709,-133.172 896.615,-126.231"/>
</g>
<!-- Node50&#45;&gt;Node8 -->
<g id="edge60" class="edge"><title>Node50&#45;&gt;Node8</title>
<path fill="none" stroke="midnightblue" d="M249.233,-162.02C306.362,-161.607 427.837,-158.747 529,-143 543.201,-140.789 558.634,-137.108 571.787,-133.57"/>
<polygon fill="midnightblue" stroke="midnightblue" points="248.993,-158.521 239.011,-162.072 249.029,-165.521 248.993,-158.521"/>
</g>
</g>
</svg>
