<?xml version="1.0" encoding="UTF-8" standalone="no"?>
<!DOCTYPE svg PUBLIC "-//W3C//DTD SVG 1.1//EN"
 "http://www.w3.org/Graphics/SVG/1.1/DTD/svg11.dtd">
<!-- Generated by graphviz version 2.38.0 (20140413.2041)
 -->
<!-- Title: luaC_fullgc Pages: 1 -->
<svg width="561pt" height="104pt"
 viewBox="0.00 0.00 561.00 104.00" xmlns="http://www.w3.org/2000/svg" xmlns:xlink="http://www.w3.org/1999/xlink">
<g id="graph0" class="graph" transform="scale(1 1) rotate(0) translate(4 100)">
<title>luaC_fullgc</title>
<!-- Node1 -->
<g id="node1" class="node"><title>Node1</title>
<polygon fill="#bfbfbf" stroke="black" points="0,-38.5 0,-57.5 62,-57.5 62,-38.5 0,-38.5"/>
<text text-anchor="middle" x="31" y="-45.5" font-family="Helvetica,sans-Serif" font-size="10.00">luaC_fullgc</text>
</g>
<!-- Node2 -->
<g id="node2" class="node"><title>Node2</title>
<g id="a_node2"><a xlink:href="../../de/d27/lgc_8c.html#a87bb9d2ca4bed013c39258f8abd61689" target="_top" xlink:title="generationalcollection">
<polygon fill="none" stroke="black" points="98,-76.5 98,-95.5 202,-95.5 202,-76.5 98,-76.5"/>
<text text-anchor="middle" x="150" y="-83.5" font-family="Helvetica,sans-Serif" font-size="10.00">generationalcollection</text>
</a>
</g>
</g>
<!-- Node1&#45;&gt;Node2 -->
<g id="edge1" class="edge"><title>Node1&#45;&gt;Node2</title>
<path fill="none" stroke="midnightblue" d="M71.0424,-60.6804C86.8509,-65.8148 104.799,-71.6441 119.485,-76.4141"/>
<polygon fill="midnightblue" stroke="midnightblue" points="72.1162,-57.3493 61.524,-57.589 69.9538,-64.0069 72.1162,-57.3493"/>
</g>
<!-- Node4 -->
<g id="node4" class="node"><title>Node4</title>
<g id="a_node4"><a xlink:href="../../da/dd2/lua_8h.html#a6bac487d3f900b21271e8c591bd801cd" target="_top" xlink:title="lua_gc">
<polygon fill="none" stroke="black" points="362.5,-38.5 362.5,-57.5 406.5,-57.5 406.5,-38.5 362.5,-38.5"/>
<text text-anchor="middle" x="384.5" y="-45.5" font-family="Helvetica,sans-Serif" font-size="10.00">lua_gc</text>
</a>
</g>
</g>
<!-- Node1&#45;&gt;Node4 -->
<g id="edge6" class="edge"><title>Node1&#45;&gt;Node4</title>
<path fill="none" stroke="midnightblue" d="M72.7284,-48C147.807,-48 305.549,-48 362.461,-48"/>
<polygon fill="midnightblue" stroke="midnightblue" points="72.2729,-44.5001 62.2729,-48 72.2729,-51.5001 72.2729,-44.5001"/>
</g>
<!-- Node7 -->
<g id="node7" class="node"><title>Node7</title>
<g id="a_node7"><a xlink:href="../../d7/d3e/lmem_8h.html#ae7dc8a57fc5dbca825653a88a356a72d" target="_top" xlink:title="luaM_realloc_">
<polygon fill="none" stroke="black" points="113,-0.5 113,-19.5 187,-19.5 187,-0.5 113,-0.5"/>
<text text-anchor="middle" x="150" y="-7.5" font-family="Helvetica,sans-Serif" font-size="10.00">luaM_realloc_</text>
</a>
</g>
</g>
<!-- Node1&#45;&gt;Node7 -->
<g id="edge7" class="edge"><title>Node1&#45;&gt;Node7</title>
<path fill="none" stroke="midnightblue" d="M71.0424,-35.3196C86.8509,-30.1852 104.799,-24.3559 119.485,-19.5859"/>
<polygon fill="midnightblue" stroke="midnightblue" points="69.9538,-31.9931 61.524,-38.411 72.1162,-38.6507 69.9538,-31.9931"/>
</g>
<!-- Node3 -->
<g id="node3" class="node"><title>Node3</title>
<g id="a_node3"><a xlink:href="../../dc/d9c/lgc_8h.html#a19359957605d7c8eaf70803e5b77361f" target="_top" xlink:title="luaC_forcestep">
<polygon fill="none" stroke="black" points="238,-76.5 238,-95.5 318,-95.5 318,-76.5 238,-76.5"/>
<text text-anchor="middle" x="278" y="-83.5" font-family="Helvetica,sans-Serif" font-size="10.00">luaC_forcestep</text>
</a>
</g>
</g>
<!-- Node2&#45;&gt;Node3 -->
<g id="edge2" class="edge"><title>Node2&#45;&gt;Node3</title>
<path fill="none" stroke="midnightblue" d="M212.349,-86C221.003,-86 229.698,-86 237.78,-86"/>
<polygon fill="midnightblue" stroke="midnightblue" points="212.249,-82.5001 202.249,-86 212.249,-89.5001 212.249,-82.5001"/>
</g>
<!-- Node3&#45;&gt;Node4 -->
<g id="edge3" class="edge"><title>Node3&#45;&gt;Node4</title>
<path fill="none" stroke="midnightblue" d="M314.881,-72.9524C330.716,-67.1943 348.781,-60.625 362.4,-55.6727"/>
<polygon fill="midnightblue" stroke="midnightblue" points="313.572,-69.7042 305.37,-76.411 315.964,-76.2828 313.572,-69.7042"/>
</g>
<!-- Node6 -->
<g id="node6" class="node"><title>Node6</title>
<g id="a_node6"><a xlink:href="../../dc/d9c/lgc_8h.html#a6c71cc4b9e503c0e96c0c4ffcff93900" target="_top" xlink:title="luaC_step">
<polygon fill="none" stroke="black" points="354,-76.5 354,-95.5 415,-95.5 415,-76.5 354,-76.5"/>
<text text-anchor="middle" x="384.5" y="-83.5" font-family="Helvetica,sans-Serif" font-size="10.00">luaC_step</text>
</a>
</g>
</g>
<!-- Node3&#45;&gt;Node6 -->
<g id="edge5" class="edge"><title>Node3&#45;&gt;Node6</title>
<path fill="none" stroke="midnightblue" d="M328.345,-86C337.071,-86 345.906,-86 353.871,-86"/>
<polygon fill="midnightblue" stroke="midnightblue" points="328.209,-82.5001 318.209,-86 328.209,-89.5001 328.209,-82.5001"/>
</g>
<!-- Node5 -->
<g id="node5" class="node"><title>Node5</title>
<g id="a_node5"><a xlink:href="../../d8/dd3/lbaselib_8c.html#a07f71966c943cc9761ab129f64d4ac80" target="_top" xlink:title="luaB_collectgarbage">
<polygon fill="none" stroke="black" points="451,-38.5 451,-57.5 553,-57.5 553,-38.5 451,-38.5"/>
<text text-anchor="middle" x="502" y="-45.5" font-family="Helvetica,sans-Serif" font-size="10.00">luaB_collectgarbage</text>
</a>
</g>
</g>
<!-- Node4&#45;&gt;Node5 -->
<g id="edge4" class="edge"><title>Node4&#45;&gt;Node5</title>
<path fill="none" stroke="midnightblue" d="M416.936,-48C427.352,-48 439.221,-48 450.692,-48"/>
<polygon fill="midnightblue" stroke="midnightblue" points="416.685,-44.5001 406.684,-48 416.684,-51.5001 416.685,-44.5001"/>
</g>
</g>
</svg>
