<?xml version="1.0" encoding="UTF-8" standalone="no"?>
<!DOCTYPE svg PUBLIC "-//W3C//DTD SVG 1.1//EN"
 "http://www.w3.org/Graphics/SVG/1.1/DTD/svg11.dtd">
<!-- Generated by graphviz version 2.38.0 (20140413.2041)
 -->
<!-- Title: sweepthread Pages: 1 -->
<svg width="1583pt" height="533pt"
 viewBox="0.00 0.00 1583.00 532.95" xmlns="http://www.w3.org/2000/svg" xmlns:xlink="http://www.w3.org/1999/xlink">
<g id="graph0" class="graph" transform="scale(1 1) rotate(0) translate(4 528.948)">
<title>sweepthread</title>
<!-- Node1 -->
<g id="node1" class="node"><title>Node1</title>
<polygon fill="#bfbfbf" stroke="black" points="0,-134.448 0,-153.448 73,-153.448 73,-134.448 0,-134.448"/>
<text text-anchor="middle" x="36.5" y="-141.448" font-family="Helvetica,sans-Serif" font-size="10.00">sweepthread</text>
</g>
<!-- Node2 -->
<g id="node2" class="node"><title>Node2</title>
<g id="a_node2"><a xlink:href="../../de/d27/lgc_8c.html#abbcf0361a74ce5efc08ca703b0f4098a" target="_top" xlink:title="sweeplist">
<polygon fill="none" stroke="black" points="109,-134.448 109,-153.448 166,-153.448 166,-134.448 109,-134.448"/>
<text text-anchor="middle" x="137.5" y="-141.448" font-family="Helvetica,sans-Serif" font-size="10.00">sweeplist</text>
</a>
</g>
</g>
<!-- Node1&#45;&gt;Node2 -->
<g id="edge1" class="edge"><title>Node1&#45;&gt;Node2</title>
<path fill="none" stroke="midnightblue" d="M83.3491,-143.948C92.0748,-143.948 100.953,-143.948 108.89,-143.948"/>
<polygon fill="midnightblue" stroke="midnightblue" points="83.2413,-140.448 73.2413,-143.948 83.2412,-147.448 83.2413,-140.448"/>
</g>
<!-- Node3 -->
<g id="node3" class="node"><title>Node3</title>
<g id="a_node3"><a xlink:href="../../de/d27/lgc_8c.html#ae34e22198155f5d365fe500d3735c150" target="_top" xlink:title="singlestep">
<polygon fill="none" stroke="black" points="439,-115.448 439,-134.448 498,-134.448 498,-115.448 439,-115.448"/>
<text text-anchor="middle" x="468.5" y="-122.448" font-family="Helvetica,sans-Serif" font-size="10.00">singlestep</text>
</a>
</g>
</g>
<!-- Node2&#45;&gt;Node3 -->
<g id="edge2" class="edge"><title>Node2&#45;&gt;Node3</title>
<path fill="none" stroke="midnightblue" d="M176.331,-141.763C242.93,-137.917 379.665,-130.02 438.99,-126.594"/>
<polygon fill="midnightblue" stroke="midnightblue" points="176.048,-138.273 166.267,-142.344 176.452,-145.262 176.048,-138.273"/>
</g>
<!-- Node34 -->
<g id="node34" class="node"><title>Node34</title>
<g id="a_node34"><a xlink:href="../../de/d27/lgc_8c.html#ac881eb4d9ece02c3cefb86ed34879b6d" target="_top" xlink:title="sweeptolive">
<polygon fill="none" stroke="black" points="202,-153.448 202,-172.448 270,-172.448 270,-153.448 202,-153.448"/>
<text text-anchor="middle" x="236" y="-160.448" font-family="Helvetica,sans-Serif" font-size="10.00">sweeptolive</text>
</a>
</g>
</g>
<!-- Node2&#45;&gt;Node34 -->
<g id="edge40" class="edge"><title>Node2&#45;&gt;Node34</title>
<path fill="none" stroke="midnightblue" d="M176.189,-151.368C184.665,-153.037 193.597,-154.796 201.87,-156.425"/>
<polygon fill="midnightblue" stroke="midnightblue" points="176.641,-147.89 166.153,-149.392 175.288,-154.758 176.641,-147.89"/>
</g>
<!-- Node4 -->
<g id="node4" class="node"><title>Node4</title>
<g id="a_node4"><a xlink:href="../../de/d27/lgc_8c.html#a7515a46e25b277cbbe7febb4d06b196a" target="_top" xlink:title="incstep">
<polygon fill="none" stroke="black" points="551,-125.448 551,-144.448 598,-144.448 598,-125.448 551,-125.448"/>
<text text-anchor="middle" x="574.5" y="-132.448" font-family="Helvetica,sans-Serif" font-size="10.00">incstep</text>
</a>
</g>
</g>
<!-- Node3&#45;&gt;Node4 -->
<g id="edge3" class="edge"><title>Node3&#45;&gt;Node4</title>
<path fill="none" stroke="midnightblue" d="M508.306,-128.679C522.634,-130.057 538.393,-131.572 550.827,-132.768"/>
<polygon fill="midnightblue" stroke="midnightblue" points="508.483,-125.18 498.194,-127.707 507.813,-132.148 508.483,-125.18"/>
</g>
<!-- Node9 -->
<g id="node9" class="node"><title>Node9</title>
<g id="a_node9"><a xlink:href="../../dc/d9c/lgc_8h.html#a1da32357417ce5766ed5e3ada033c32f" target="_top" xlink:title="luaC_runtilstate">
<polygon fill="none" stroke="black" points="534,-87.4476 534,-106.448 615,-106.448 615,-87.4476 534,-87.4476"/>
<text text-anchor="middle" x="574.5" y="-94.4476" font-family="Helvetica,sans-Serif" font-size="10.00">luaC_runtilstate</text>
</a>
</g>
</g>
<!-- Node3&#45;&gt;Node9 -->
<g id="edge8" class="edge"><title>Node3&#45;&gt;Node9</title>
<path fill="none" stroke="midnightblue" d="M508.052,-114.568C517.808,-111.942 528.242,-109.132 537.848,-106.546"/>
<polygon fill="midnightblue" stroke="midnightblue" points="506.94,-111.243 498.194,-117.222 508.76,-118.002 506.94,-111.243"/>
</g>
<!-- Node5 -->
<g id="node5" class="node"><title>Node5</title>
<g id="a_node5"><a xlink:href="../../dc/d9c/lgc_8h.html#a19359957605d7c8eaf70803e5b77361f" target="_top" xlink:title="luaC_forcestep">
<polygon fill="none" stroke="black" points="932,-87.4476 932,-106.448 1012,-106.448 1012,-87.4476 932,-87.4476"/>
<text text-anchor="middle" x="972" y="-94.4476" font-family="Helvetica,sans-Serif" font-size="10.00">luaC_forcestep</text>
</a>
</g>
</g>
<!-- Node4&#45;&gt;Node5 -->
<g id="edge4" class="edge"><title>Node4&#45;&gt;Node5</title>
<path fill="none" stroke="midnightblue" d="M608.624,-134.717C665.875,-133.921 786.915,-130.49 888,-115.948 903.656,-113.695 920.725,-110.007 935.29,-106.476"/>
<polygon fill="midnightblue" stroke="midnightblue" points="608.329,-131.22 598.372,-134.84 608.414,-138.219 608.329,-131.22"/>
</g>
<!-- Node6 -->
<g id="node6" class="node"><title>Node6</title>
<g id="a_node6"><a xlink:href="../../da/dd2/lua_8h.html#a6bac487d3f900b21271e8c591bd801cd" target="_top" xlink:title="lua_gc">
<polygon fill="none" stroke="black" points="1074,-11.4476 1074,-30.4476 1118,-30.4476 1118,-11.4476 1074,-11.4476"/>
<text text-anchor="middle" x="1096" y="-18.4476" font-family="Helvetica,sans-Serif" font-size="10.00">lua_gc</text>
</a>
</g>
</g>
<!-- Node5&#45;&gt;Node6 -->
<g id="edge5" class="edge"><title>Node5&#45;&gt;Node6</title>
<path fill="none" stroke="midnightblue" d="M997.17,-81.8908C1021.7,-66.6096 1058.93,-43.4165 1079.67,-30.4949"/>
<polygon fill="midnightblue" stroke="midnightblue" points="995.089,-79.0639 988.451,-87.3222 998.79,-85.0054 995.089,-79.0639"/>
</g>
<!-- Node8 -->
<g id="node8" class="node"><title>Node8</title>
<g id="a_node8"><a xlink:href="../../dc/d9c/lgc_8h.html#a6c71cc4b9e503c0e96c0c4ffcff93900" target="_top" xlink:title="luaC_step">
<polygon fill="none" stroke="black" points="1065.5,-87.4476 1065.5,-106.448 1126.5,-106.448 1126.5,-87.4476 1065.5,-87.4476"/>
<text text-anchor="middle" x="1096" y="-94.4476" font-family="Helvetica,sans-Serif" font-size="10.00">luaC_step</text>
</a>
</g>
</g>
<!-- Node5&#45;&gt;Node8 -->
<g id="edge7" class="edge"><title>Node5&#45;&gt;Node8</title>
<path fill="none" stroke="midnightblue" d="M1022.65,-96.9476C1037.19,-96.9476 1052.62,-96.9476 1065.48,-96.9476"/>
<polygon fill="midnightblue" stroke="midnightblue" points="1022.27,-93.4477 1012.27,-96.9476 1022.27,-100.448 1022.27,-93.4477"/>
</g>
<!-- Node7 -->
<g id="node7" class="node"><title>Node7</title>
<g id="a_node7"><a xlink:href="../../d8/dd3/lbaselib_8c.html#a07f71966c943cc9761ab129f64d4ac80" target="_top" xlink:title="luaB_collectgarbage">
<polygon fill="none" stroke="black" points="1175.5,-11.4476 1175.5,-30.4476 1277.5,-30.4476 1277.5,-11.4476 1175.5,-11.4476"/>
<text text-anchor="middle" x="1226.5" y="-18.4476" font-family="Helvetica,sans-Serif" font-size="10.00">luaB_collectgarbage</text>
</a>
</g>
</g>
<!-- Node6&#45;&gt;Node7 -->
<g id="edge6" class="edge"><title>Node6&#45;&gt;Node7</title>
<path fill="none" stroke="midnightblue" d="M1128.39,-20.9476C1142.52,-20.9476 1159.55,-20.9476 1175.38,-20.9476"/>
<polygon fill="midnightblue" stroke="midnightblue" points="1128.22,-17.4477 1118.22,-20.9476 1128.22,-24.4477 1128.22,-17.4477"/>
</g>
<!-- Node10 -->
<g id="node10" class="node"><title>Node10</title>
<g id="a_node10"><a xlink:href="../../dc/d9c/lgc_8h.html#af016fe72ab7e564d7d55e7e4fb659041" target="_top" xlink:title="luaC_changemode">
<polygon fill="none" stroke="black" points="651,-11.4476 651,-30.4476 748,-30.4476 748,-11.4476 651,-11.4476"/>
<text text-anchor="middle" x="699.5" y="-18.4476" font-family="Helvetica,sans-Serif" font-size="10.00">luaC_changemode</text>
</a>
</g>
</g>
<!-- Node9&#45;&gt;Node10 -->
<g id="edge9" class="edge"><title>Node9&#45;&gt;Node10</title>
<path fill="none" stroke="midnightblue" d="M594.448,-80.3796C609.152,-68.0994 630.432,-51.5494 651,-39.9476 657.189,-36.4567 664.148,-33.2921 670.792,-30.5908"/>
<polygon fill="midnightblue" stroke="midnightblue" points="591.957,-77.9033 586.605,-87.0469 596.491,-83.2365 591.957,-77.9033"/>
</g>
<!-- Node11 -->
<g id="node11" class="node"><title>Node11</title>
<g id="a_node11"><a xlink:href="../../de/d27/lgc_8c.html#a87bb9d2ca4bed013c39258f8abd61689" target="_top" xlink:title="generationalcollection">
<polygon fill="none" stroke="black" points="784,-87.4476 784,-106.448 888,-106.448 888,-87.4476 784,-87.4476"/>
<text text-anchor="middle" x="836" y="-94.4476" font-family="Helvetica,sans-Serif" font-size="10.00">generationalcollection</text>
</a>
</g>
</g>
<!-- Node9&#45;&gt;Node11 -->
<g id="edge11" class="edge"><title>Node9&#45;&gt;Node11</title>
<path fill="none" stroke="midnightblue" d="M625.413,-96.9476C670.892,-96.9476 737.778,-96.9476 783.689,-96.9476"/>
<polygon fill="midnightblue" stroke="midnightblue" points="625.195,-93.4477 615.195,-96.9476 625.195,-100.448 625.195,-93.4477"/>
</g>
<!-- Node12 -->
<g id="node12" class="node"><title>Node12</title>
<g id="a_node12"><a xlink:href="../../dc/d9c/lgc_8h.html#aa0b753c3ed80e1eed0379ec58592c404" target="_top" xlink:title="luaC_fullgc">
<polygon fill="none" stroke="black" points="668.5,-49.4476 668.5,-68.4476 730.5,-68.4476 730.5,-49.4476 668.5,-49.4476"/>
<text text-anchor="middle" x="699.5" y="-56.4476" font-family="Helvetica,sans-Serif" font-size="10.00">luaC_fullgc</text>
</a>
</g>
</g>
<!-- Node9&#45;&gt;Node12 -->
<g id="edge13" class="edge"><title>Node9&#45;&gt;Node12</title>
<path fill="none" stroke="midnightblue" d="M616.225,-84.3658C633.228,-79.113 652.631,-73.1187 668.322,-68.2708"/>
<polygon fill="midnightblue" stroke="midnightblue" points="615.059,-81.0627 606.538,-87.3586 617.126,-87.7508 615.059,-81.0627"/>
</g>
<!-- Node14 -->
<g id="node14" class="node"><title>Node14</title>
<g id="a_node14"><a xlink:href="../../d4/dfb/lstring_8h.html#a44d549eb0ace165927a896f37330e2cd" target="_top" xlink:title="luaS_resize">
<polygon fill="none" stroke="black" points="666.5,-182.448 666.5,-201.448 732.5,-201.448 732.5,-182.448 666.5,-182.448"/>
<text text-anchor="middle" x="699.5" y="-189.448" font-family="Helvetica,sans-Serif" font-size="10.00">luaS_resize</text>
</a>
</g>
</g>
<!-- Node9&#45;&gt;Node14 -->
<g id="edge17" class="edge"><title>Node9&#45;&gt;Node14</title>
<path fill="none" stroke="midnightblue" d="M607.342,-111.247C609.988,-112.739 612.575,-114.312 615,-115.948 644.902,-136.115 674.956,-166.554 689.496,-182.08"/>
<polygon fill="midnightblue" stroke="midnightblue" points="608.753,-108.036 598.268,-106.513 605.515,-114.242 608.753,-108.036"/>
</g>
<!-- Node10&#45;&gt;Node6 -->
<g id="edge10" class="edge"><title>Node10&#45;&gt;Node6</title>
<path fill="none" stroke="midnightblue" d="M758.063,-10.014C766.726,-8.74131 775.577,-7.64881 784,-6.94761 888.527,1.75442 915.557,2.71691 1020,-6.94761 1038.33,-8.64406 1058.87,-12.6257 1073.81,-15.9108"/>
<polygon fill="midnightblue" stroke="midnightblue" points="757.359,-6.58121 748.017,-11.578 758.436,-13.4979 757.359,-6.58121"/>
</g>
<!-- Node11&#45;&gt;Node5 -->
<g id="edge12" class="edge"><title>Node11&#45;&gt;Node5</title>
<path fill="none" stroke="midnightblue" d="M898.371,-96.9476C909.727,-96.9476 921.299,-96.9476 931.772,-96.9476"/>
<polygon fill="midnightblue" stroke="midnightblue" points="898.042,-93.4477 888.042,-96.9476 898.042,-100.448 898.042,-93.4477"/>
</g>
<!-- Node12&#45;&gt;Node6 -->
<g id="edge14" class="edge"><title>Node12&#45;&gt;Node6</title>
<path fill="none" stroke="midnightblue" d="M740.845,-48.3746C754.464,-45.1789 769.81,-41.9817 784,-39.9476 892.164,-24.4427 1023.27,-21.5767 1073.76,-21.0575"/>
<polygon fill="midnightblue" stroke="midnightblue" points="739.713,-45.0472 730.815,-50.7987 741.358,-51.8513 739.713,-45.0472"/>
</g>
<!-- Node12&#45;&gt;Node11 -->
<g id="edge15" class="edge"><title>Node12&#45;&gt;Node11</title>
<path fill="none" stroke="midnightblue" d="M740.413,-70.2243C759.732,-75.6824 782.679,-82.1653 801.132,-87.3789"/>
<polygon fill="midnightblue" stroke="midnightblue" points="741.259,-66.8263 730.684,-67.4756 739.356,-73.5626 741.259,-66.8263"/>
</g>
<!-- Node13 -->
<g id="node13" class="node"><title>Node13</title>
<g id="a_node13"><a xlink:href="../../d7/d3e/lmem_8h.html#ae7dc8a57fc5dbca825653a88a356a72d" target="_top" xlink:title="luaM_realloc_">
<polygon fill="none" stroke="black" points="799,-49.4476 799,-68.4476 873,-68.4476 873,-49.4476 799,-49.4476"/>
<text text-anchor="middle" x="836" y="-56.4476" font-family="Helvetica,sans-Serif" font-size="10.00">luaM_realloc_</text>
</a>
</g>
</g>
<!-- Node12&#45;&gt;Node13 -->
<g id="edge16" class="edge"><title>Node12&#45;&gt;Node13</title>
<path fill="none" stroke="midnightblue" d="M740.808,-58.9476C759.202,-58.9476 780.817,-58.9476 798.699,-58.9476"/>
<polygon fill="midnightblue" stroke="midnightblue" points="740.684,-55.4477 730.684,-58.9476 740.684,-62.4477 740.684,-55.4477"/>
</g>
<!-- Node15 -->
<g id="node15" class="node"><title>Node15</title>
<g id="a_node15"><a xlink:href="../../de/d27/lgc_8c.html#aace8516e609d7409e789e7b2c190b9c2" target="_top" xlink:title="checkSizes">
<polygon fill="none" stroke="black" points="803.5,-239.448 803.5,-258.448 868.5,-258.448 868.5,-239.448 803.5,-239.448"/>
<text text-anchor="middle" x="836" y="-246.448" font-family="Helvetica,sans-Serif" font-size="10.00">checkSizes</text>
</a>
</g>
</g>
<!-- Node14&#45;&gt;Node15 -->
<g id="edge18" class="edge"><title>Node14&#45;&gt;Node15</title>
<path fill="none" stroke="midnightblue" d="M729.883,-205.932C745.784,-213.344 765.837,-222.442 784,-229.948 791.859,-233.195 800.496,-236.508 808.392,-239.438"/>
<polygon fill="midnightblue" stroke="midnightblue" points="731.113,-202.643 720.573,-201.564 728.14,-208.98 731.113,-202.643"/>
</g>
<!-- Node16 -->
<g id="node16" class="node"><title>Node16</title>
<g id="a_node16"><a xlink:href="../../dd/dca/lstate_8c.html#ab65e96a7498fd886f7223b92e91fd830" target="_top" xlink:title="f_luaopen">
<polygon fill="none" stroke="black" points="806.5,-201.448 806.5,-220.448 865.5,-220.448 865.5,-201.448 806.5,-201.448"/>
<text text-anchor="middle" x="836" y="-208.448" font-family="Helvetica,sans-Serif" font-size="10.00">f_luaopen</text>
</a>
</g>
</g>
<!-- Node14&#45;&gt;Node16 -->
<g id="edge20" class="edge"><title>Node14&#45;&gt;Node16</title>
<path fill="none" stroke="midnightblue" d="M742.825,-197.927C763.478,-200.844 787.784,-204.278 806.25,-206.886"/>
<polygon fill="midnightblue" stroke="midnightblue" points="743.107,-194.432 732.716,-196.499 742.128,-201.363 743.107,-194.432"/>
</g>
<!-- Node25 -->
<g id="node25" class="node"><title>Node25</title>
<g id="a_node25"><a xlink:href="../../d1/d2f/lstring_8c.html#a6e3c0fe3ba834ee00279a9df03f40fc4" target="_top" xlink:title="newshrstr">
<polygon fill="none" stroke="black" points="807,-163.448 807,-182.448 865,-182.448 865,-163.448 807,-163.448"/>
<text text-anchor="middle" x="836" y="-170.448" font-family="Helvetica,sans-Serif" font-size="10.00">newshrstr</text>
</a>
</g>
</g>
<!-- Node14&#45;&gt;Node25 -->
<g id="edge31" class="edge"><title>Node14&#45;&gt;Node25</title>
<path fill="none" stroke="midnightblue" d="M742.898,-185.958C763.703,-183.019 788.2,-179.559 806.698,-176.946"/>
<polygon fill="midnightblue" stroke="midnightblue" points="742.128,-182.532 732.716,-187.397 743.107,-189.463 742.128,-182.532"/>
</g>
<!-- Node15&#45;&gt;Node3 -->
<g id="edge19" class="edge"><title>Node15&#45;&gt;Node3</title>
<path fill="none" stroke="midnightblue" d="M793.346,-243.255C755.558,-237.41 698.64,-226.898 651,-210.948 587.846,-189.803 517.897,-152.338 486.447,-134.676"/>
<polygon fill="midnightblue" stroke="midnightblue" points="793.064,-246.752 803.473,-244.78 794.106,-239.83 793.064,-246.752"/>
</g>
<!-- Node17 -->
<g id="node17" class="node"><title>Node17</title>
<g id="a_node17"><a xlink:href="../../da/dd2/lua_8h.html#af722e4ac7fc0eba5920f59f0162c1b97" target="_top" xlink:title="lua_newstate">
<polygon fill="none" stroke="black" points="935,-201.448 935,-220.448 1009,-220.448 1009,-201.448 935,-201.448"/>
<text text-anchor="middle" x="972" y="-208.448" font-family="Helvetica,sans-Serif" font-size="10.00">lua_newstate</text>
</a>
</g>
</g>
<!-- Node16&#45;&gt;Node17 -->
<g id="edge21" class="edge"><title>Node16&#45;&gt;Node17</title>
<path fill="none" stroke="midnightblue" d="M875.91,-210.948C894.432,-210.948 916.451,-210.948 934.634,-210.948"/>
<polygon fill="midnightblue" stroke="midnightblue" points="875.746,-207.448 865.746,-210.948 875.746,-214.448 875.746,-207.448"/>
</g>
<!-- Node18 -->
<g id="node18" class="node"><title>Node18</title>
<g id="a_node18"><a xlink:href="../../da/d29/lauxlib_8h.html#a7d8712fcede90ae93d5a9a7b409c586e" target="_top" xlink:title="luaL_newstate">
<polygon fill="none" stroke="black" points="1056,-239.448 1056,-258.448 1136,-258.448 1136,-239.448 1056,-239.448"/>
<text text-anchor="middle" x="1096" y="-246.448" font-family="Helvetica,sans-Serif" font-size="10.00">luaL_newstate</text>
</a>
</g>
</g>
<!-- Node17&#45;&gt;Node18 -->
<g id="edge22" class="edge"><title>Node17&#45;&gt;Node18</title>
<path fill="none" stroke="midnightblue" d="M1013.71,-223.628C1030.2,-228.762 1048.91,-234.592 1064.22,-239.362"/>
<polygon fill="midnightblue" stroke="midnightblue" points="1014.37,-220.169 1003.79,-220.537 1012.29,-226.852 1014.37,-220.169"/>
</g>
<!-- Node24 -->
<g id="node24" class="node"><title>Node24</title>
<g id="a_node24"><a xlink:href="../../dd/dca/lstate_8c.html#a8a0fc0aca5367250347c6bb6a788f05f" target="_top" xlink:title="makeseed">
<polygon fill="none" stroke="black" points="1065.5,-201.448 1065.5,-220.448 1126.5,-220.448 1126.5,-201.448 1065.5,-201.448"/>
<text text-anchor="middle" x="1096" y="-208.448" font-family="Helvetica,sans-Serif" font-size="10.00">makeseed</text>
</a>
</g>
</g>
<!-- Node17&#45;&gt;Node24 -->
<g id="edge29" class="edge"><title>Node17&#45;&gt;Node24</title>
<path fill="none" stroke="midnightblue" d="M1019.62,-204.367C1034.92,-204 1051.52,-204.229 1065.22,-205.055"/>
<polygon fill="midnightblue" stroke="midnightblue" points="1019.15,-200.881 1009.27,-204.717 1019.39,-207.877 1019.15,-200.881"/>
</g>
<!-- Node19 -->
<g id="node19" class="node"><title>Node19</title>
<g id="a_node19"><a xlink:href="../../dc/de7/interface_kensho_lua_wrapper.html#a7d10aa0242861cdd109d3da9383882a2" target="_top" xlink:title="&#45;[KenshoLuaWrapper\l evaluate]">
<polygon fill="none" stroke="black" points="1172,-277.948 1172,-307.948 1281,-307.948 1281,-277.948 1172,-277.948"/>
<text text-anchor="start" x="1180" y="-295.948" font-family="Helvetica,sans-Serif" font-size="10.00">&#45;[KenshoLuaWrapper</text>
<text text-anchor="middle" x="1226.5" y="-284.948" font-family="Helvetica,sans-Serif" font-size="10.00"> evaluate]</text>
</a>
</g>
</g>
<!-- Node18&#45;&gt;Node19 -->
<g id="edge23" class="edge"><title>Node18&#45;&gt;Node19</title>
<path fill="none" stroke="midnightblue" d="M1134.64,-261.836C1149.32,-266.864 1166.26,-272.663 1181.5,-277.882"/>
<polygon fill="midnightblue" stroke="midnightblue" points="1135.48,-258.423 1124.88,-258.495 1133.21,-265.046 1135.48,-258.423"/>
</g>
<!-- Node20 -->
<g id="node20" class="node"><title>Node20</title>
<g id="a_node20"><a xlink:href="../../dc/de7/interface_kensho_lua_wrapper.html#af6db46358f8858a18b55388aa3af211d" target="_top" xlink:title="&#45;[KenshoLuaWrapper\l initWithKensho:context\l:code:]">
<polygon fill="none" stroke="black" points="1317,-327.448 1317,-368.448 1431,-368.448 1431,-327.448 1317,-327.448"/>
<text text-anchor="start" x="1325" y="-356.448" font-family="Helvetica,sans-Serif" font-size="10.00">&#45;[KenshoLuaWrapper</text>
<text text-anchor="start" x="1325" y="-345.448" font-family="Helvetica,sans-Serif" font-size="10.00"> initWithKensho:context</text>
<text text-anchor="middle" x="1374" y="-334.448" font-family="Helvetica,sans-Serif" font-size="10.00">:code:]</text>
</a>
</g>
</g>
<!-- Node19&#45;&gt;Node20 -->
<g id="edge24" class="edge"><title>Node19&#45;&gt;Node20</title>
<path fill="none" stroke="midnightblue" d="M1276.8,-311.583C1290.23,-316.661 1304.86,-322.191 1318.56,-327.37"/>
<polygon fill="midnightblue" stroke="midnightblue" points="1277.85,-308.239 1267.26,-307.977 1275.37,-314.786 1277.85,-308.239"/>
</g>
<!-- Node21 -->
<g id="node21" class="node"><title>Node21</title>
<g id="a_node21"><a xlink:href="../../dc/de7/interface_kensho_lua_wrapper.html#a5555e0979799446611baee70104555c6" target="_top" xlink:title="&#45;[KenshoLuaWrapper\l evaluate:]">
<polygon fill="none" stroke="black" points="1319.5,-277.948 1319.5,-307.948 1428.5,-307.948 1428.5,-277.948 1319.5,-277.948"/>
<text text-anchor="start" x="1327.5" y="-295.948" font-family="Helvetica,sans-Serif" font-size="10.00">&#45;[KenshoLuaWrapper</text>
<text text-anchor="middle" x="1374" y="-284.948" font-family="Helvetica,sans-Serif" font-size="10.00"> evaluate:]</text>
</a>
</g>
</g>
<!-- Node19&#45;&gt;Node21 -->
<g id="edge25" class="edge"><title>Node19&#45;&gt;Node21</title>
<path fill="none" stroke="midnightblue" d="M1291.34,-292.948C1300.72,-292.948 1310.31,-292.948 1319.46,-292.948"/>
<polygon fill="midnightblue" stroke="midnightblue" points="1291.27,-289.448 1281.27,-292.948 1291.27,-296.448 1291.27,-289.448"/>
</g>
<!-- Node23 -->
<g id="node23" class="node"><title>Node23</title>
<g id="a_node23"><a xlink:href="../../dc/de7/interface_kensho_lua_wrapper.html#a0bb5e125d727942726d707f8b59009dc" target="_top" xlink:title="&#45;[KenshoLuaWrapper\l observableUpdated:]">
<polygon fill="none" stroke="black" points="1319.5,-228.948 1319.5,-258.948 1428.5,-258.948 1428.5,-228.948 1319.5,-228.948"/>
<text text-anchor="start" x="1327.5" y="-246.948" font-family="Helvetica,sans-Serif" font-size="10.00">&#45;[KenshoLuaWrapper</text>
<text text-anchor="middle" x="1374" y="-235.948" font-family="Helvetica,sans-Serif" font-size="10.00"> observableUpdated:]</text>
</a>
</g>
</g>
<!-- Node19&#45;&gt;Node23 -->
<g id="edge28" class="edge"><title>Node19&#45;&gt;Node23</title>
<path fill="none" stroke="midnightblue" d="M1282.15,-274.542C1297.38,-269.415 1313.73,-263.908 1328.31,-258.999"/>
<polygon fill="midnightblue" stroke="midnightblue" points="1280.7,-271.338 1272.34,-277.846 1282.94,-277.971 1280.7,-271.338"/>
</g>
<!-- Node22 -->
<g id="node22" class="node"><title>Node22</title>
<g id="a_node22"><a xlink:href="../../da/d0b/interface_kensho.html#a07b4d14db676108e1a94a1f10e100fb4" target="_top" xlink:title="&#45;[Kensho bindToView\l:context:]">
<polygon fill="none" stroke="red" points="1467,-277.948 1467,-307.948 1575,-307.948 1575,-277.948 1467,-277.948"/>
<text text-anchor="start" x="1475" y="-295.948" font-family="Helvetica,sans-Serif" font-size="10.00">&#45;[Kensho bindToView</text>
<text text-anchor="middle" x="1521" y="-284.948" font-family="Helvetica,sans-Serif" font-size="10.00">:context:]</text>
</a>
</g>
</g>
<!-- Node21&#45;&gt;Node22 -->
<g id="edge26" class="edge"><title>Node21&#45;&gt;Node22</title>
<path fill="none" stroke="midnightblue" d="M1438.62,-292.948C1447.97,-292.948 1457.52,-292.948 1466.64,-292.948"/>
<polygon fill="midnightblue" stroke="midnightblue" points="1438.58,-289.448 1428.58,-292.948 1438.58,-296.448 1438.58,-289.448"/>
</g>
<!-- Node22&#45;&gt;Node22 -->
<g id="edge27" class="edge"><title>Node22&#45;&gt;Node22</title>
<path fill="none" stroke="midnightblue" d="M1495.06,-318.406C1498.28,-323.127 1506.92,-326.448 1521,-326.448 1544.1,-326.448 1552.58,-317.504 1546.44,-308.107"/>
<polygon fill="midnightblue" stroke="midnightblue" points="1498.57,-318.264 1495.56,-308.107 1491.58,-317.926 1498.57,-318.264"/>
</g>
<!-- Node24&#45;&gt;Node17 -->
<g id="edge30" class="edge"><title>Node24&#45;&gt;Node17</title>
<path fill="none" stroke="midnightblue" d="M1054.9,-217.333C1040.19,-217.866 1023.63,-217.815 1009.27,-217.178"/>
<polygon fill="midnightblue" stroke="midnightblue" points="1055.4,-220.812 1065.22,-216.841 1055.07,-213.82 1055.4,-220.812"/>
</g>
<!-- Node26 -->
<g id="node26" class="node"><title>Node26</title>
<g id="a_node26"><a xlink:href="../../d1/d2f/lstring_8c.html#a9b2c32c59a280de24f20df1c7f0433a1" target="_top" xlink:title="internshrstr">
<polygon fill="none" stroke="black" points="941.5,-163.448 941.5,-182.448 1002.5,-182.448 1002.5,-163.448 941.5,-163.448"/>
<text text-anchor="middle" x="972" y="-170.448" font-family="Helvetica,sans-Serif" font-size="10.00">internshrstr</text>
</a>
</g>
</g>
<!-- Node25&#45;&gt;Node26 -->
<g id="edge32" class="edge"><title>Node25&#45;&gt;Node26</title>
<path fill="none" stroke="midnightblue" d="M875.239,-172.948C896.14,-172.948 921.652,-172.948 941.085,-172.948"/>
<polygon fill="midnightblue" stroke="midnightblue" points="875.091,-169.448 865.091,-172.948 875.091,-176.448 875.091,-169.448"/>
</g>
<!-- Node27 -->
<g id="node27" class="node"><title>Node27</title>
<g id="a_node27"><a xlink:href="../../d4/dfb/lstring_8h.html#a248e72694b9116b07b2e7f4a9a3a5331" target="_top" xlink:title="luaS_newlstr">
<polygon fill="none" stroke="red" points="1060.5,-163.448 1060.5,-182.448 1131.5,-182.448 1131.5,-163.448 1060.5,-163.448"/>
<text text-anchor="middle" x="1096" y="-170.448" font-family="Helvetica,sans-Serif" font-size="10.00">luaS_newlstr</text>
</a>
</g>
</g>
<!-- Node26&#45;&gt;Node27 -->
<g id="edge33" class="edge"><title>Node26&#45;&gt;Node27</title>
<path fill="none" stroke="midnightblue" d="M1012.73,-172.948C1028.01,-172.948 1045.32,-172.948 1060.11,-172.948"/>
<polygon fill="midnightblue" stroke="midnightblue" points="1012.53,-169.448 1002.53,-172.948 1012.53,-176.448 1012.53,-169.448"/>
</g>
<!-- Node28 -->
<g id="node28" class="node"><title>Node28</title>
<g id="a_node28"><a xlink:href="../../da/dd2/lua_8h.html#a4ab8500ade8e1d8a87b1df1baf19b179" target="_top" xlink:title="lua_pushlstring">
<polygon fill="none" stroke="red" points="1186.5,-49.4476 1186.5,-68.4476 1266.5,-68.4476 1266.5,-49.4476 1186.5,-49.4476"/>
<text text-anchor="middle" x="1226.5" y="-56.4476" font-family="Helvetica,sans-Serif" font-size="10.00">lua_pushlstring</text>
</a>
</g>
</g>
<!-- Node27&#45;&gt;Node28 -->
<g id="edge34" class="edge"><title>Node27&#45;&gt;Node28</title>
<path fill="none" stroke="midnightblue" d="M1109.35,-154.993C1126.4,-130.623 1156.78,-88.8567 1172,-77.9476 1177.29,-74.1579 1183.4,-71.0593 1189.57,-68.5475"/>
<polygon fill="midnightblue" stroke="midnightblue" points="1106.35,-153.17 1103.52,-163.38 1112.1,-157.163 1106.35,-153.17"/>
</g>
<!-- Node29 -->
<g id="node29" class="node"><title>Node29</title>
<g id="a_node29"><a xlink:href="../../da/dd2/lua_8h.html#a4eba0457df5bafff4d44071d1d8080b6" target="_top" xlink:title="lua_concat">
<polygon fill="none" stroke="red" points="1195.5,-239.448 1195.5,-258.448 1257.5,-258.448 1257.5,-239.448 1195.5,-239.448"/>
<text text-anchor="middle" x="1226.5" y="-246.448" font-family="Helvetica,sans-Serif" font-size="10.00">lua_concat</text>
</a>
</g>
</g>
<!-- Node27&#45;&gt;Node29 -->
<g id="edge35" class="edge"><title>Node27&#45;&gt;Node29</title>
<path fill="none" stroke="midnightblue" d="M1129.01,-187.343C1131.44,-188.794 1133.8,-190.333 1136,-191.948 1154.76,-205.708 1152.5,-217.26 1172,-229.948 1179.11,-234.571 1187.47,-238.232 1195.46,-241.055"/>
<polygon fill="midnightblue" stroke="midnightblue" points="1130.52,-184.183 1120.07,-182.488 1127.18,-190.335 1130.52,-184.183"/>
</g>
<!-- Node30 -->
<g id="node30" class="node"><title>Node30</title>
<g id="a_node30"><a xlink:href="../../dd/d05/lcode_8h.html#a4f928250a0f4007764b4d3777651f617" target="_top" xlink:title="luaK_numberK">
<polygon fill="none" stroke="red" points="1186.5,-201.448 1186.5,-220.448 1266.5,-220.448 1266.5,-201.448 1186.5,-201.448"/>
<text text-anchor="middle" x="1226.5" y="-208.448" font-family="Helvetica,sans-Serif" font-size="10.00">luaK_numberK</text>
</a>
</g>
</g>
<!-- Node27&#45;&gt;Node30 -->
<g id="edge36" class="edge"><title>Node27&#45;&gt;Node30</title>
<path fill="none" stroke="midnightblue" d="M1139.39,-185.483C1156.87,-190.652 1176.8,-196.547 1193.08,-201.362"/>
<polygon fill="midnightblue" stroke="midnightblue" points="1140.01,-182.016 1129.43,-182.537 1138.02,-188.729 1140.01,-182.016"/>
</g>
<!-- Node31 -->
<g id="node31" class="node"><title>Node31</title>
<g id="a_node31"><a xlink:href="../../d8/d27/llex_8h.html#aa6e79179f823cf156f61899a09239ca6" target="_top" xlink:title="luaX_newstring">
<polygon fill="none" stroke="red" points="1186,-163.448 1186,-182.448 1267,-182.448 1267,-163.448 1186,-163.448"/>
<text text-anchor="middle" x="1226.5" y="-170.448" font-family="Helvetica,sans-Serif" font-size="10.00">luaX_newstring</text>
</a>
</g>
</g>
<!-- Node27&#45;&gt;Node31 -->
<g id="edge37" class="edge"><title>Node27&#45;&gt;Node31</title>
<path fill="none" stroke="midnightblue" d="M1141.87,-172.948C1156.14,-172.948 1171.81,-172.948 1185.7,-172.948"/>
<polygon fill="midnightblue" stroke="midnightblue" points="1141.77,-169.448 1131.77,-172.948 1141.77,-176.448 1141.77,-169.448"/>
</g>
<!-- Node32 -->
<g id="node32" class="node"><title>Node32</title>
<g id="a_node32"><a xlink:href="../../d7/d9b/lobject_8c.html#aa65db03553a5abd73e466d307bb17a37" target="_top" xlink:title="pushstr">
<polygon fill="none" stroke="red" points="1202.5,-125.448 1202.5,-144.448 1250.5,-144.448 1250.5,-125.448 1202.5,-125.448"/>
<text text-anchor="middle" x="1226.5" y="-132.448" font-family="Helvetica,sans-Serif" font-size="10.00">pushstr</text>
</a>
</g>
</g>
<!-- Node27&#45;&gt;Node32 -->
<g id="edge38" class="edge"><title>Node27&#45;&gt;Node32</title>
<path fill="none" stroke="midnightblue" d="M1139.11,-160.494C1160.17,-154.268 1184.83,-146.974 1202.41,-141.777"/>
<polygon fill="midnightblue" stroke="midnightblue" points="1138.02,-157.166 1129.43,-163.359 1140.01,-163.879 1138.02,-157.166"/>
</g>
<!-- Node33 -->
<g id="node33" class="node"><title>Node33</title>
<g id="a_node33"><a xlink:href="../../d4/dfb/lstring_8h.html#a6929da8cfde3e74a0d51a6467909ef9d" target="_top" xlink:title="luaS_new">
<polygon fill="none" stroke="red" points="1196.5,-87.4476 1196.5,-106.448 1256.5,-106.448 1256.5,-87.4476 1196.5,-87.4476"/>
<text text-anchor="middle" x="1226.5" y="-94.4476" font-family="Helvetica,sans-Serif" font-size="10.00">luaS_new</text>
</a>
</g>
</g>
<!-- Node27&#45;&gt;Node33 -->
<g id="edge39" class="edge"><title>Node27&#45;&gt;Node33</title>
<path fill="none" stroke="midnightblue" d="M1115.17,-156.569C1129.72,-144.118 1151.07,-127.259 1172,-115.948 1179.63,-111.823 1188.34,-108.289 1196.48,-105.427"/>
<polygon fill="midnightblue" stroke="midnightblue" points="1112.68,-154.099 1107.45,-163.315 1117.28,-159.371 1112.68,-154.099"/>
</g>
<!-- Node35 -->
<g id="node35" class="node"><title>Node35</title>
<g id="a_node35"><a xlink:href="../../dc/d9c/lgc_8h.html#a15870c09448216ce5c4e1ff63d39e0a9" target="_top" xlink:title="luaC_checkfinalizer">
<polygon fill="none" stroke="black" points="306,-236.448 306,-255.448 403,-255.448 403,-236.448 306,-236.448"/>
<text text-anchor="middle" x="354.5" y="-243.448" font-family="Helvetica,sans-Serif" font-size="10.00">luaC_checkfinalizer</text>
</a>
</g>
</g>
<!-- Node34&#45;&gt;Node35 -->
<g id="edge41" class="edge"><title>Node34&#45;&gt;Node35</title>
<path fill="none" stroke="midnightblue" d="M258.757,-178.448C282.565,-195.41 319.993,-222.076 339.933,-236.282"/>
<polygon fill="midnightblue" stroke="midnightblue" points="260.539,-175.421 250.364,-172.469 256.478,-181.122 260.539,-175.421"/>
</g>
<!-- Node50 -->
<g id="node50" class="node"><title>Node50</title>
<g id="a_node50"><a xlink:href="../../de/d27/lgc_8c.html#a396e5acf2204119b6a78993fa368ec39" target="_top" xlink:title="entersweep">
<polygon fill="none" stroke="black" points="321,-58.4476 321,-77.4476 388,-77.4476 388,-58.4476 321,-58.4476"/>
<text text-anchor="middle" x="354.5" y="-65.4476" font-family="Helvetica,sans-Serif" font-size="10.00">entersweep</text>
</a>
</g>
</g>
<!-- Node34&#45;&gt;Node50 -->
<g id="edge59" class="edge"><title>Node34&#45;&gt;Node50</title>
<path fill="none" stroke="midnightblue" d="M256.921,-146.703C281.304,-126.819 321.8,-93.7974 341.71,-77.5616"/>
<polygon fill="midnightblue" stroke="midnightblue" points="254.567,-144.107 249.029,-153.139 258.991,-149.532 254.567,-144.107"/>
</g>
<!-- Node36 -->
<g id="node36" class="node"><title>Node36</title>
<g id="a_node36"><a xlink:href="../../da/dd2/lua_8h.html#a0b834b6a9cd96b141385df14bd0272a4" target="_top" xlink:title="lua_setmetatable">
<polygon fill="none" stroke="black" points="791.5,-353.448 791.5,-372.448 880.5,-372.448 880.5,-353.448 791.5,-353.448"/>
<text text-anchor="middle" x="836" y="-360.448" font-family="Helvetica,sans-Serif" font-size="10.00">lua_setmetatable</text>
</a>
</g>
</g>
<!-- Node35&#45;&gt;Node36 -->
<g id="edge42" class="edge"><title>Node35&#45;&gt;Node36</title>
<path fill="none" stroke="midnightblue" d="M404.72,-257.958C500.255,-281.269 709.043,-332.214 795.891,-353.405"/>
<polygon fill="midnightblue" stroke="midnightblue" points="405.284,-254.493 394.739,-255.522 403.625,-261.293 405.284,-254.493"/>
</g>
<!-- Node36&#45;&gt;Node19 -->
<g id="edge47" class="edge"><title>Node36&#45;&gt;Node19</title>
<path fill="none" stroke="midnightblue" d="M855.333,-346.651C871.956,-332.983 897.8,-314.385 924,-305.948 1007.41,-279.087 1110.52,-281.775 1171.99,-286.867"/>
<polygon fill="midnightblue" stroke="midnightblue" points="852.891,-344.132 847.527,-353.269 857.418,-349.471 852.891,-344.132"/>
</g>
<!-- Node37 -->
<g id="node37" class="node"><title>Node37</title>
<g id="a_node37"><a xlink:href="../../d1/dc2/_kensho_lua_wrapper_8m.html#ac812f3eb3f83c6ada24f2dadeced6d68" target="_top" xlink:title="pushValue">
<polygon fill="none" stroke="black" points="940.5,-315.448 940.5,-334.448 1003.5,-334.448 1003.5,-315.448 940.5,-315.448"/>
<text text-anchor="middle" x="972" y="-322.448" font-family="Helvetica,sans-Serif" font-size="10.00">pushValue</text>
</a>
</g>
</g>
<!-- Node36&#45;&gt;Node37 -->
<g id="edge43" class="edge"><title>Node36&#45;&gt;Node37</title>
<path fill="none" stroke="midnightblue" d="M880.701,-350.555C900.212,-345.022 922.734,-338.635 940.405,-333.624"/>
<polygon fill="midnightblue" stroke="midnightblue" points="879.48,-347.263 870.814,-353.359 881.389,-353.998 879.48,-347.263"/>
</g>
<!-- Node39 -->
<g id="node39" class="node"><title>Node39</title>
<g id="a_node39"><a xlink:href="../../da/d29/lauxlib_8h.html#a4ef6497609d8cb52f8f4dc0ec489bb7a" target="_top" xlink:title="luaL_setmetatable">
<polygon fill="none" stroke="black" points="924.5,-429.448 924.5,-448.448 1019.5,-448.448 1019.5,-429.448 924.5,-429.448"/>
<text text-anchor="middle" x="972" y="-436.448" font-family="Helvetica,sans-Serif" font-size="10.00">luaL_setmetatable</text>
</a>
</g>
</g>
<!-- Node36&#45;&gt;Node39 -->
<g id="edge48" class="edge"><title>Node36&#45;&gt;Node39</title>
<path fill="none" stroke="midnightblue" d="M857.982,-378.376C875.176,-390.599 900.43,-407.614 924,-419.948 930.55,-423.375 937.862,-426.599 944.731,-429.384"/>
<polygon fill="midnightblue" stroke="midnightblue" points="859.938,-375.471 849.777,-372.47 855.849,-381.153 859.938,-375.471"/>
</g>
<!-- Node44 -->
<g id="node44" class="node"><title>Node44</title>
<g id="a_node44"><a xlink:href="../../d8/dd3/lbaselib_8c.html#af7799a987ba6d158a96a52e80fb5beaf" target="_top" xlink:title="luaB_setmetatable">
<polygon fill="none" stroke="black" points="924,-391.448 924,-410.448 1020,-410.448 1020,-391.448 924,-391.448"/>
<text text-anchor="middle" x="972" y="-398.448" font-family="Helvetica,sans-Serif" font-size="10.00">luaB_setmetatable</text>
</a>
</g>
</g>
<!-- Node36&#45;&gt;Node44 -->
<g id="edge53" class="edge"><title>Node36&#45;&gt;Node44</title>
<path fill="none" stroke="midnightblue" d="M880.438,-375.266C898.849,-380.487 919.98,-386.479 937.197,-391.362"/>
<polygon fill="midnightblue" stroke="midnightblue" points="881.389,-371.898 870.814,-372.537 879.48,-378.632 881.389,-371.898"/>
</g>
<!-- Node45 -->
<g id="node45" class="node"><title>Node45</title>
<g id="a_node45"><a xlink:href="../../d8/d97/ldblib_8c.html#a3595aee1af712c0ba9c586feb763bffc" target="_top" xlink:title="db_setmetatable">
<polygon fill="none" stroke="black" points="928,-353.448 928,-372.448 1016,-372.448 1016,-353.448 928,-353.448"/>
<text text-anchor="middle" x="972" y="-360.448" font-family="Helvetica,sans-Serif" font-size="10.00">db_setmetatable</text>
</a>
</g>
</g>
<!-- Node36&#45;&gt;Node45 -->
<g id="edge54" class="edge"><title>Node36&#45;&gt;Node45</title>
<path fill="none" stroke="midnightblue" d="M890.66,-362.948C902.969,-362.948 915.905,-362.948 927.712,-362.948"/>
<polygon fill="midnightblue" stroke="midnightblue" points="890.506,-359.448 880.506,-362.948 890.506,-366.448 890.506,-359.448"/>
</g>
<!-- Node46 -->
<g id="node46" class="node"><title>Node46</title>
<g id="a_node46"><a xlink:href="../../d8/d97/ldblib_8c.html#aa0c362d361f8f9bd8a002c34c393e2b0" target="_top" xlink:title="db_sethook">
<polygon fill="none" stroke="black" points="939,-239.448 939,-258.448 1005,-258.448 1005,-239.448 939,-239.448"/>
<text text-anchor="middle" x="972" y="-246.448" font-family="Helvetica,sans-Serif" font-size="10.00">db_sethook</text>
</a>
</g>
</g>
<!-- Node36&#45;&gt;Node46 -->
<g id="edge55" class="edge"><title>Node36&#45;&gt;Node46</title>
<path fill="none" stroke="midnightblue" d="M850.837,-345.49C866.904,-326.025 894.939,-294.46 924,-272.948 931.511,-267.387 940.498,-262.448 948.593,-258.517"/>
<polygon fill="midnightblue" stroke="midnightblue" points="848.111,-343.294 844.526,-353.264 853.546,-347.706 848.111,-343.294"/>
</g>
<!-- Node47 -->
<g id="node47" class="node"><title>Node47</title>
<g id="a_node47"><a xlink:href="../../d6/d07/lualib_8h.html#a05e0befc0439f926b6152129ab4f8dea" target="_top" xlink:title="luaopen_package">
<polygon fill="none" stroke="black" points="925,-505.448 925,-524.448 1019,-524.448 1019,-505.448 925,-505.448"/>
<text text-anchor="middle" x="972" y="-512.448" font-family="Helvetica,sans-Serif" font-size="10.00">luaopen_package</text>
</a>
</g>
</g>
<!-- Node36&#45;&gt;Node47 -->
<g id="edge56" class="edge"><title>Node36&#45;&gt;Node47</title>
<path fill="none" stroke="midnightblue" d="M844.946,-382.017C857.692,-410.478 885.268,-464.121 924,-495.948 928.624,-499.747 934.108,-502.869 939.668,-505.405"/>
<polygon fill="midnightblue" stroke="midnightblue" points="848.119,-380.538 840.928,-372.758 841.698,-383.324 848.119,-380.538"/>
</g>
<!-- Node48 -->
<g id="node48" class="node"><title>Node48</title>
<g id="a_node48"><a xlink:href="../../dc/d77/lstrlib_8c.html#a16d034da6b46e6beae228472f26ec07b" target="_top" xlink:title="createmetatable">
<polygon fill="none" stroke="black" points="930,-467.448 930,-486.448 1014,-486.448 1014,-467.448 930,-467.448"/>
<text text-anchor="middle" x="972" y="-474.448" font-family="Helvetica,sans-Serif" font-size="10.00">createmetatable</text>
</a>
</g>
</g>
<!-- Node36&#45;&gt;Node48 -->
<g id="edge57" class="edge"><title>Node36&#45;&gt;Node48</title>
<path fill="none" stroke="midnightblue" d="M849.559,-380.942C864.984,-401.901 892.952,-436.398 924,-457.948 929.35,-461.661 935.535,-464.816 941.624,-467.424"/>
<polygon fill="midnightblue" stroke="midnightblue" points="852.247,-378.685 843.565,-372.612 846.565,-382.773 852.247,-378.685"/>
</g>
<!-- Node38 -->
<g id="node38" class="node"><title>Node38</title>
<g id="a_node38"><a xlink:href="../../d1/dc2/_kensho_lua_wrapper_8m.html#ad10bf0ff4feac9642e7477e282be41fe" target="_top" xlink:title="lookupKey">
<polygon fill="none" stroke="black" points="1065,-315.448 1065,-334.448 1127,-334.448 1127,-315.448 1065,-315.448"/>
<text text-anchor="middle" x="1096" y="-322.448" font-family="Helvetica,sans-Serif" font-size="10.00">lookupKey</text>
</a>
</g>
</g>
<!-- Node37&#45;&gt;Node38 -->
<g id="edge44" class="edge"><title>Node37&#45;&gt;Node38</title>
<path fill="none" stroke="midnightblue" d="M1013.79,-318.538C1030.41,-317.958 1049.28,-318.119 1064.65,-319.02"/>
<polygon fill="midnightblue" stroke="midnightblue" points="1013.62,-315.042 1003.79,-318.995 1013.94,-322.035 1013.62,-315.042"/>
</g>
<!-- Node38&#45;&gt;Node19 -->
<g id="edge45" class="edge"><title>Node38&#45;&gt;Node19</title>
<path fill="none" stroke="midnightblue" d="M1136.93,-315.005C1147.99,-312.249 1160.19,-309.212 1171.9,-306.296"/>
<polygon fill="midnightblue" stroke="midnightblue" points="1135.99,-311.632 1127.13,-317.445 1137.68,-318.425 1135.99,-311.632"/>
</g>
<!-- Node38&#45;&gt;Node37 -->
<g id="edge46" class="edge"><title>Node38&#45;&gt;Node37</title>
<path fill="none" stroke="midnightblue" d="M1054.21,-331.357C1037.75,-331.932 1019.07,-331.779 1003.79,-330.9"/>
<polygon fill="midnightblue" stroke="midnightblue" points="1054.82,-334.833 1064.65,-330.875 1054.5,-327.84 1054.82,-334.833"/>
</g>
<!-- Node40 -->
<g id="node40" class="node"><title>Node40</title>
<g id="a_node40"><a xlink:href="../../de/df3/liolib_8c.html#ab456fc51383d039a5a24c702060aba8e" target="_top" xlink:title="newprefile">
<polygon fill="none" stroke="black" points="1066.5,-429.448 1066.5,-448.448 1125.5,-448.448 1125.5,-429.448 1066.5,-429.448"/>
<text text-anchor="middle" x="1096" y="-436.448" font-family="Helvetica,sans-Serif" font-size="10.00">newprefile</text>
</a>
</g>
</g>
<!-- Node39&#45;&gt;Node40 -->
<g id="edge49" class="edge"><title>Node39&#45;&gt;Node40</title>
<path fill="none" stroke="midnightblue" d="M1029.91,-438.948C1042.6,-438.948 1055.53,-438.948 1066.48,-438.948"/>
<polygon fill="midnightblue" stroke="midnightblue" points="1029.82,-435.448 1019.82,-438.948 1029.82,-442.448 1029.82,-435.448"/>
</g>
<!-- Node41 -->
<g id="node41" class="node"><title>Node41</title>
<g id="a_node41"><a xlink:href="../../de/df3/liolib_8c.html#a57c6c258a611b738f0ef34584ca6e7ab" target="_top" xlink:title="newfile">
<polygon fill="none" stroke="red" points="1203.5,-467.448 1203.5,-486.448 1249.5,-486.448 1249.5,-467.448 1203.5,-467.448"/>
<text text-anchor="middle" x="1226.5" y="-474.448" font-family="Helvetica,sans-Serif" font-size="10.00">newfile</text>
</a>
</g>
</g>
<!-- Node40&#45;&gt;Node41 -->
<g id="edge50" class="edge"><title>Node40&#45;&gt;Node41</title>
<path fill="none" stroke="midnightblue" d="M1135.33,-450.284C1157.56,-456.857 1184.77,-464.902 1203.44,-470.425"/>
<polygon fill="midnightblue" stroke="midnightblue" points="1136.1,-446.861 1125.52,-447.381 1134.12,-453.573 1136.1,-446.861"/>
</g>
<!-- Node42 -->
<g id="node42" class="node"><title>Node42</title>
<g id="a_node42"><a xlink:href="../../de/df3/liolib_8c.html#a8cc0b2b08409fb97e5cc80a0caf9b5fd" target="_top" xlink:title="io_popen">
<polygon fill="none" stroke="black" points="1198.5,-429.448 1198.5,-448.448 1254.5,-448.448 1254.5,-429.448 1198.5,-429.448"/>
<text text-anchor="middle" x="1226.5" y="-436.448" font-family="Helvetica,sans-Serif" font-size="10.00">io_popen</text>
</a>
</g>
</g>
<!-- Node40&#45;&gt;Node42 -->
<g id="edge51" class="edge"><title>Node40&#45;&gt;Node42</title>
<path fill="none" stroke="midnightblue" d="M1135.67,-438.948C1155.9,-438.948 1180.17,-438.948 1198.38,-438.948"/>
<polygon fill="midnightblue" stroke="midnightblue" points="1135.52,-435.448 1125.52,-438.948 1135.52,-442.448 1135.52,-435.448"/>
</g>
<!-- Node43 -->
<g id="node43" class="node"><title>Node43</title>
<g id="a_node43"><a xlink:href="../../de/df3/liolib_8c.html#a0a80ad2f9dbb3b7238efae7738bb7569" target="_top" xlink:title="createstdfile">
<polygon fill="none" stroke="red" points="1194,-391.448 1194,-410.448 1259,-410.448 1259,-391.448 1194,-391.448"/>
<text text-anchor="middle" x="1226.5" y="-398.448" font-family="Helvetica,sans-Serif" font-size="10.00">createstdfile</text>
</a>
</g>
</g>
<!-- Node40&#45;&gt;Node43 -->
<g id="edge52" class="edge"><title>Node40&#45;&gt;Node43</title>
<path fill="none" stroke="midnightblue" d="M1135.21,-427.647C1153.92,-422.115 1176.17,-415.534 1193.91,-410.291"/>
<polygon fill="midnightblue" stroke="midnightblue" points="1134.12,-424.322 1125.52,-430.514 1136.1,-431.035 1134.12,-424.322"/>
</g>
<!-- Node49 -->
<g id="node49" class="node"><title>Node49</title>
<g id="a_node49"><a xlink:href="../../d6/d07/lualib_8h.html#a3cc052c1be81497507ee76524482eaec" target="_top" xlink:title="luaopen_string">
<polygon fill="none" stroke="black" points="1057,-467.448 1057,-486.448 1135,-486.448 1135,-467.448 1057,-467.448"/>
<text text-anchor="middle" x="1096" y="-474.448" font-family="Helvetica,sans-Serif" font-size="10.00">luaopen_string</text>
</a>
</g>
</g>
<!-- Node48&#45;&gt;Node49 -->
<g id="edge58" class="edge"><title>Node48&#45;&gt;Node49</title>
<path fill="none" stroke="midnightblue" d="M1024.46,-476.948C1035.24,-476.948 1046.42,-476.948 1056.62,-476.948"/>
<polygon fill="midnightblue" stroke="midnightblue" points="1024.3,-473.448 1014.3,-476.948 1024.3,-480.448 1024.3,-473.448"/>
</g>
<!-- Node50&#45;&gt;Node3 -->
<g id="edge62" class="edge"><title>Node50&#45;&gt;Node3</title>
<path fill="none" stroke="midnightblue" d="M383.358,-82.1254C403.733,-92.4947 430.824,-106.282 448.693,-115.376"/>
<polygon fill="midnightblue" stroke="midnightblue" points="384.746,-78.9046 374.246,-77.4881 381.571,-85.1431 384.746,-78.9046"/>
</g>
<!-- Node50&#45;&gt;Node10 -->
<g id="edge60" class="edge"><title>Node50&#45;&gt;Node10</title>
<path fill="none" stroke="midnightblue" d="M398.275,-62.0863C462.619,-53.2696 583.898,-36.6512 650.94,-27.4646"/>
<polygon fill="midnightblue" stroke="midnightblue" points="397.51,-58.6583 388.078,-63.4836 398.46,-65.5935 397.51,-58.6583"/>
</g>
<!-- Node50&#45;&gt;Node12 -->
<g id="edge61" class="edge"><title>Node50&#45;&gt;Node12</title>
<path fill="none" stroke="midnightblue" d="M398.354,-66.8232C468.693,-64.9775 606.922,-61.3505 668.115,-59.7449"/>
<polygon fill="midnightblue" stroke="midnightblue" points="397.983,-63.3316 388.078,-67.0928 398.166,-70.3292 397.983,-63.3316"/>
</g>
</g>
</svg>
