<?xml version="1.0" encoding="UTF-8" standalone="no"?>
<!DOCTYPE svg PUBLIC "-//W3C//DTD SVG 1.1//EN"
 "http://www.w3.org/Graphics/SVG/1.1/DTD/svg11.dtd">
<!-- Generated by graphviz version 2.38.0 (20140413.2041)
 -->
<!-- Title: udata2finalize Pages: 1 -->
<svg width="1409pt" height="317pt"
 viewBox="0.00 0.00 1409.00 316.78" xmlns="http://www.w3.org/2000/svg" xmlns:xlink="http://www.w3.org/1999/xlink">
<g id="graph0" class="graph" transform="scale(1 1) rotate(0) translate(4 312.777)">
<title>udata2finalize</title>
<!-- Node1 -->
<g id="node1" class="node"><title>Node1</title>
<polygon fill="#bfbfbf" stroke="black" points="0,-33.2769 0,-52.2769 75,-52.2769 75,-33.2769 0,-33.2769"/>
<text text-anchor="middle" x="37.5" y="-40.2769" font-family="Helvetica,sans-Serif" font-size="10.00">udata2finalize</text>
</g>
<!-- Node2 -->
<g id="node2" class="node"><title>Node2</title>
<g id="a_node2"><a xlink:href="../../de/d27/lgc_8c.html#ab9ec6b56580b9e66f41743e393e7e033" target="_top" xlink:title="GCTM">
<polygon fill="none" stroke="black" points="111,-33.2769 111,-52.2769 157,-52.2769 157,-33.2769 111,-33.2769"/>
<text text-anchor="middle" x="134" y="-40.2769" font-family="Helvetica,sans-Serif" font-size="10.00">GCTM</text>
</a>
</g>
</g>
<!-- Node1&#45;&gt;Node2 -->
<g id="edge1" class="edge"><title>Node1&#45;&gt;Node2</title>
<path fill="none" stroke="midnightblue" d="M85.072,-42.7769C94.034,-42.7769 103.029,-42.7769 110.766,-42.7769"/>
<polygon fill="midnightblue" stroke="midnightblue" points="85.0362,-39.277 75.0362,-42.7769 85.0361,-46.277 85.0362,-39.277"/>
</g>
<!-- Node3 -->
<g id="node3" class="node"><title>Node3</title>
<g id="a_node3"><a xlink:href="../../de/d27/lgc_8c.html#a74f50e6006422d43686521fe765152dd" target="_top" xlink:title="callallpendingfinalizers">
<polygon fill="none" stroke="black" points="193,-71.2769 193,-90.2769 302,-90.2769 302,-71.2769 193,-71.2769"/>
<text text-anchor="middle" x="247.5" y="-78.2769" font-family="Helvetica,sans-Serif" font-size="10.00">callallpendingfinalizers</text>
</a>
</g>
</g>
<!-- Node2&#45;&gt;Node3 -->
<g id="edge2" class="edge"><title>Node2&#45;&gt;Node3</title>
<path fill="none" stroke="midnightblue" d="M166.7,-53.5804C183.046,-59.1515 202.806,-65.8857 218.573,-71.2592"/>
<polygon fill="midnightblue" stroke="midnightblue" points="167.623,-50.1976 157.029,-50.2845 165.365,-56.8233 167.623,-50.1976"/>
</g>
<!-- Node21 -->
<g id="node21" class="node"><title>Node21</title>
<g id="a_node21"><a xlink:href="../../dc/d9c/lgc_8h.html#a19359957605d7c8eaf70803e5b77361f" target="_top" xlink:title="luaC_forcestep">
<polygon fill="none" stroke="black" points="611,-71.2769 611,-90.2769 691,-90.2769 691,-71.2769 611,-71.2769"/>
<text text-anchor="middle" x="651" y="-78.2769" font-family="Helvetica,sans-Serif" font-size="10.00">luaC_forcestep</text>
</a>
</g>
</g>
<!-- Node2&#45;&gt;Node21 -->
<g id="edge26" class="edge"><title>Node2&#45;&gt;Node21</title>
<path fill="none" stroke="midnightblue" d="M166.985,-33.7415C241.09,-14.4253 429.326,25.2973 575,-23.7769 602.898,-33.175 628.643,-57.5369 641.471,-71.1736"/>
<polygon fill="midnightblue" stroke="midnightblue" points="166.065,-30.3645 157.303,-36.3203 167.867,-37.1287 166.065,-30.3645"/>
</g>
<!-- Node4 -->
<g id="node4" class="node"><title>Node4</title>
<g id="a_node4"><a xlink:href="../../dc/d9c/lgc_8h.html#a9aa52a500c9cc2076edb1707e6d8a045" target="_top" xlink:title="luaC_freeallobjects">
<polygon fill="none" stroke="black" points="338,-128.277 338,-147.277 435,-147.277 435,-128.277 338,-128.277"/>
<text text-anchor="middle" x="386.5" y="-135.277" font-family="Helvetica,sans-Serif" font-size="10.00">luaC_freeallobjects</text>
</a>
</g>
</g>
<!-- Node3&#45;&gt;Node4 -->
<g id="edge3" class="edge"><title>Node3&#45;&gt;Node4</title>
<path fill="none" stroke="midnightblue" d="M280.898,-94.2562C305.994,-104.698 340.142,-118.905 362.494,-128.205"/>
<polygon fill="midnightblue" stroke="midnightblue" points="282.008,-90.9274 271.431,-90.3175 279.319,-97.3903 282.008,-90.9274"/>
</g>
<!-- Node17 -->
<g id="node17" class="node"><title>Node17</title>
<g id="a_node17"><a xlink:href="../../dc/d9c/lgc_8h.html#aa0b753c3ed80e1eed0379ec58592c404" target="_top" xlink:title="luaC_fullgc">
<polygon fill="none" stroke="black" points="355.5,-71.2769 355.5,-90.2769 417.5,-90.2769 417.5,-71.2769 355.5,-71.2769"/>
<text text-anchor="middle" x="386.5" y="-78.2769" font-family="Helvetica,sans-Serif" font-size="10.00">luaC_fullgc</text>
</a>
</g>
</g>
<!-- Node3&#45;&gt;Node17 -->
<g id="edge18" class="edge"><title>Node3&#45;&gt;Node17</title>
<path fill="none" stroke="midnightblue" d="M312.488,-80.7769C327.389,-80.7769 342.576,-80.7769 355.212,-80.7769"/>
<polygon fill="midnightblue" stroke="midnightblue" points="312.253,-77.277 302.253,-80.7769 312.253,-84.277 312.253,-77.277"/>
</g>
<!-- Node5 -->
<g id="node5" class="node"><title>Node5</title>
<g id="a_node5"><a xlink:href="../../dd/dca/lstate_8c.html#a4940327dfa3b86df0ef008180bb3fcb3" target="_top" xlink:title="close_state">
<polygon fill="none" stroke="black" points="490.5,-147.277 490.5,-166.277 555.5,-166.277 555.5,-147.277 490.5,-147.277"/>
<text text-anchor="middle" x="523" y="-154.277" font-family="Helvetica,sans-Serif" font-size="10.00">close_state</text>
</a>
</g>
</g>
<!-- Node4&#45;&gt;Node5 -->
<g id="edge4" class="edge"><title>Node4&#45;&gt;Node5</title>
<path fill="none" stroke="midnightblue" d="M445.316,-145.944C460.763,-148.126 476.887,-150.404 490.341,-152.305"/>
<polygon fill="midnightblue" stroke="midnightblue" points="445.69,-142.462 435.298,-144.529 444.71,-149.394 445.69,-142.462"/>
</g>
<!-- Node6 -->
<g id="node6" class="node"><title>Node6</title>
<g id="a_node6"><a xlink:href="../../da/dd2/lua_8h.html#af722e4ac7fc0eba5920f59f0162c1b97" target="_top" xlink:title="lua_newstate">
<polygon fill="none" stroke="black" points="614,-185.277 614,-204.277 688,-204.277 688,-185.277 614,-185.277"/>
<text text-anchor="middle" x="651" y="-192.277" font-family="Helvetica,sans-Serif" font-size="10.00">lua_newstate</text>
</a>
</g>
</g>
<!-- Node5&#45;&gt;Node6 -->
<g id="edge5" class="edge"><title>Node5&#45;&gt;Node6</title>
<path fill="none" stroke="midnightblue" d="M565.564,-169.312C582.705,-174.482 602.25,-180.376 618.215,-185.191"/>
<polygon fill="midnightblue" stroke="midnightblue" points="566.38,-165.902 555.795,-166.366 564.359,-172.604 566.38,-165.902"/>
</g>
<!-- Node15 -->
<g id="node15" class="node"><title>Node15</title>
<g id="a_node15"><a xlink:href="../../da/dd2/lua_8h.html#afe030a97e84f24dfab3afb598faa2fff" target="_top" xlink:title="lua_close">
<polygon fill="none" stroke="black" points="623,-147.277 623,-166.277 679,-166.277 679,-147.277 623,-147.277"/>
<text text-anchor="middle" x="651" y="-154.277" font-family="Helvetica,sans-Serif" font-size="10.00">lua_close</text>
</a>
</g>
</g>
<!-- Node5&#45;&gt;Node15 -->
<g id="edge16" class="edge"><title>Node5&#45;&gt;Node15</title>
<path fill="none" stroke="midnightblue" d="M565.891,-156.777C584.678,-156.777 606.297,-156.777 622.912,-156.777"/>
<polygon fill="midnightblue" stroke="midnightblue" points="565.795,-153.277 555.795,-156.777 565.795,-160.277 565.795,-153.277"/>
</g>
<!-- Node7 -->
<g id="node7" class="node"><title>Node7</title>
<g id="a_node7"><a xlink:href="../../da/d29/lauxlib_8h.html#a7d8712fcede90ae93d5a9a7b409c586e" target="_top" xlink:title="luaL_newstate">
<polygon fill="none" stroke="black" points="727,-223.277 727,-242.277 807,-242.277 807,-223.277 727,-223.277"/>
<text text-anchor="middle" x="767" y="-230.277" font-family="Helvetica,sans-Serif" font-size="10.00">luaL_newstate</text>
</a>
</g>
</g>
<!-- Node6&#45;&gt;Node7 -->
<g id="edge6" class="edge"><title>Node6&#45;&gt;Node7</title>
<path fill="none" stroke="midnightblue" d="M690.478,-207.603C705.774,-212.702 723.067,-218.466 737.242,-223.191"/>
<polygon fill="midnightblue" stroke="midnightblue" points="691.361,-204.208 680.767,-204.366 689.147,-210.849 691.361,-204.208"/>
</g>
<!-- Node14 -->
<g id="node14" class="node"><title>Node14</title>
<g id="a_node14"><a xlink:href="../../dd/dca/lstate_8c.html#a8a0fc0aca5367250347c6bb6a788f05f" target="_top" xlink:title="makeseed">
<polygon fill="none" stroke="black" points="736.5,-185.277 736.5,-204.277 797.5,-204.277 797.5,-185.277 736.5,-185.277"/>
<text text-anchor="middle" x="767" y="-192.277" font-family="Helvetica,sans-Serif" font-size="10.00">makeseed</text>
</a>
</g>
</g>
<!-- Node6&#45;&gt;Node14 -->
<g id="edge14" class="edge"><title>Node6&#45;&gt;Node14</title>
<path fill="none" stroke="midnightblue" d="M698.163,-188.137C711.018,-187.874 724.636,-188.084 736.271,-188.767"/>
<polygon fill="midnightblue" stroke="midnightblue" points="697.957,-184.641 688.07,-188.449 698.174,-191.638 697.957,-184.641"/>
</g>
<!-- Node8 -->
<g id="node8" class="node"><title>Node8</title>
<g id="a_node8"><a xlink:href="../../dc/de7/interface_kensho_lua_wrapper.html#a7d10aa0242861cdd109d3da9383882a2" target="_top" xlink:title="&#45;[KenshoLuaWrapper\l evaluate]">
<polygon fill="none" stroke="black" points="843,-217.777 843,-247.777 952,-247.777 952,-217.777 843,-217.777"/>
<text text-anchor="start" x="851" y="-235.777" font-family="Helvetica,sans-Serif" font-size="10.00">&#45;[KenshoLuaWrapper</text>
<text text-anchor="middle" x="897.5" y="-224.777" font-family="Helvetica,sans-Serif" font-size="10.00"> evaluate]</text>
</a>
</g>
</g>
<!-- Node7&#45;&gt;Node8 -->
<g id="edge7" class="edge"><title>Node7&#45;&gt;Node8</title>
<path fill="none" stroke="midnightblue" d="M817.518,-232.777C825.804,-232.777 834.435,-232.777 842.819,-232.777"/>
<polygon fill="midnightblue" stroke="midnightblue" points="817.252,-229.277 807.252,-232.777 817.252,-236.277 817.252,-229.277"/>
</g>
<!-- Node9 -->
<g id="node9" class="node"><title>Node9</title>
<g id="a_node9"><a xlink:href="../../dc/de7/interface_kensho_lua_wrapper.html#af6db46358f8858a18b55388aa3af211d" target="_top" xlink:title="&#45;[KenshoLuaWrapper\l initWithKensho:context\l:code:]">
<polygon fill="none" stroke="black" points="988,-267.277 988,-308.277 1102,-308.277 1102,-267.277 988,-267.277"/>
<text text-anchor="start" x="996" y="-296.277" font-family="Helvetica,sans-Serif" font-size="10.00">&#45;[KenshoLuaWrapper</text>
<text text-anchor="start" x="996" y="-285.277" font-family="Helvetica,sans-Serif" font-size="10.00"> initWithKensho:context</text>
<text text-anchor="middle" x="1045" y="-274.277" font-family="Helvetica,sans-Serif" font-size="10.00">:code:]</text>
</a>
</g>
</g>
<!-- Node8&#45;&gt;Node9 -->
<g id="edge8" class="edge"><title>Node8&#45;&gt;Node9</title>
<path fill="none" stroke="midnightblue" d="M947.799,-251.412C961.233,-256.49 975.861,-262.02 989.563,-267.199"/>
<polygon fill="midnightblue" stroke="midnightblue" points="948.85,-248.068 938.259,-247.806 946.375,-254.616 948.85,-248.068"/>
</g>
<!-- Node10 -->
<g id="node10" class="node"><title>Node10</title>
<g id="a_node10"><a xlink:href="../../dc/de7/interface_kensho_lua_wrapper.html#a5555e0979799446611baee70104555c6" target="_top" xlink:title="&#45;[KenshoLuaWrapper\l evaluate:]">
<polygon fill="none" stroke="black" points="990.5,-217.777 990.5,-247.777 1099.5,-247.777 1099.5,-217.777 990.5,-217.777"/>
<text text-anchor="start" x="998.5" y="-235.777" font-family="Helvetica,sans-Serif" font-size="10.00">&#45;[KenshoLuaWrapper</text>
<text text-anchor="middle" x="1045" y="-224.777" font-family="Helvetica,sans-Serif" font-size="10.00"> evaluate:]</text>
</a>
</g>
</g>
<!-- Node8&#45;&gt;Node10 -->
<g id="edge9" class="edge"><title>Node8&#45;&gt;Node10</title>
<path fill="none" stroke="midnightblue" d="M962.339,-232.777C971.723,-232.777 981.307,-232.777 990.456,-232.777"/>
<polygon fill="midnightblue" stroke="midnightblue" points="962.265,-229.277 952.265,-232.777 962.265,-236.277 962.265,-229.277"/>
</g>
<!-- Node13 -->
<g id="node13" class="node"><title>Node13</title>
<g id="a_node13"><a xlink:href="../../dc/de7/interface_kensho_lua_wrapper.html#a0bb5e125d727942726d707f8b59009dc" target="_top" xlink:title="&#45;[KenshoLuaWrapper\l observableUpdated:]">
<polygon fill="none" stroke="black" points="990.5,-168.777 990.5,-198.777 1099.5,-198.777 1099.5,-168.777 990.5,-168.777"/>
<text text-anchor="start" x="998.5" y="-186.777" font-family="Helvetica,sans-Serif" font-size="10.00">&#45;[KenshoLuaWrapper</text>
<text text-anchor="middle" x="1045" y="-175.777" font-family="Helvetica,sans-Serif" font-size="10.00"> observableUpdated:]</text>
</a>
</g>
</g>
<!-- Node8&#45;&gt;Node13 -->
<g id="edge13" class="edge"><title>Node8&#45;&gt;Node13</title>
<path fill="none" stroke="midnightblue" d="M953.153,-214.371C968.376,-209.245 984.729,-203.738 999.306,-198.829"/>
<polygon fill="midnightblue" stroke="midnightblue" points="951.702,-211.167 943.342,-217.675 953.936,-217.801 951.702,-211.167"/>
</g>
<!-- Node11 -->
<g id="node11" class="node"><title>Node11</title>
<g id="a_node11"><a xlink:href="../../da/d0b/interface_kensho.html#a07b4d14db676108e1a94a1f10e100fb4" target="_top" xlink:title="&#45;[Kensho bindToView\l:context:]">
<polygon fill="none" stroke="black" points="1138,-217.777 1138,-247.777 1246,-247.777 1246,-217.777 1138,-217.777"/>
<text text-anchor="start" x="1146" y="-235.777" font-family="Helvetica,sans-Serif" font-size="10.00">&#45;[Kensho bindToView</text>
<text text-anchor="middle" x="1192" y="-224.777" font-family="Helvetica,sans-Serif" font-size="10.00">:context:]</text>
</a>
</g>
</g>
<!-- Node10&#45;&gt;Node11 -->
<g id="edge10" class="edge"><title>Node10&#45;&gt;Node11</title>
<path fill="none" stroke="midnightblue" d="M1109.62,-232.777C1118.97,-232.777 1128.52,-232.777 1137.64,-232.777"/>
<polygon fill="midnightblue" stroke="midnightblue" points="1109.58,-229.277 1099.58,-232.777 1109.58,-236.277 1109.58,-229.277"/>
</g>
<!-- Node11&#45;&gt;Node11 -->
<g id="edge12" class="edge"><title>Node11&#45;&gt;Node11</title>
<path fill="none" stroke="midnightblue" d="M1166.06,-258.235C1169.28,-262.956 1177.92,-266.277 1192,-266.277 1215.1,-266.277 1223.58,-257.334 1217.44,-247.936"/>
<polygon fill="midnightblue" stroke="midnightblue" points="1169.57,-258.094 1166.56,-247.936 1162.58,-257.755 1169.57,-258.094"/>
</g>
<!-- Node12 -->
<g id="node12" class="node"><title>Node12</title>
<g id="a_node12"><a xlink:href="../../da/d0b/interface_kensho.html#a1019e8223ee907bab87501ae483e609f" target="_top" xlink:title="&#45;[Kensho applyBindings\l:viewModel:]">
<polygon fill="none" stroke="black" points="1282,-217.777 1282,-247.777 1401,-247.777 1401,-217.777 1282,-217.777"/>
<text text-anchor="start" x="1290" y="-235.777" font-family="Helvetica,sans-Serif" font-size="10.00">&#45;[Kensho applyBindings</text>
<text text-anchor="middle" x="1341.5" y="-224.777" font-family="Helvetica,sans-Serif" font-size="10.00">:viewModel:]</text>
</a>
</g>
</g>
<!-- Node11&#45;&gt;Node12 -->
<g id="edge11" class="edge"><title>Node11&#45;&gt;Node12</title>
<path fill="none" stroke="midnightblue" d="M1256.42,-232.777C1264.86,-232.777 1273.48,-232.777 1281.83,-232.777"/>
<polygon fill="midnightblue" stroke="midnightblue" points="1256.25,-229.277 1246.25,-232.777 1256.25,-236.277 1256.25,-229.277"/>
</g>
<!-- Node14&#45;&gt;Node6 -->
<g id="edge15" class="edge"><title>Node14&#45;&gt;Node6</title>
<path fill="none" stroke="midnightblue" d="M726.196,-201.246C713.796,-201.663 700.199,-201.616 688.07,-201.105"/>
<polygon fill="midnightblue" stroke="midnightblue" points="726.441,-204.739 736.271,-200.787 726.122,-197.746 726.441,-204.739"/>
</g>
<!-- Node16 -->
<g id="node16" class="node"><title>Node16</title>
<g id="a_node16"><a xlink:href="../../dc/dba/loslib_8c.html#a905e81425fe3d6d0b363c10162a2a37b" target="_top" xlink:title="os_exit">
<polygon fill="none" stroke="black" points="743.5,-147.277 743.5,-166.277 790.5,-166.277 790.5,-147.277 743.5,-147.277"/>
<text text-anchor="middle" x="767" y="-154.277" font-family="Helvetica,sans-Serif" font-size="10.00">os_exit</text>
</a>
</g>
</g>
<!-- Node15&#45;&gt;Node16 -->
<g id="edge17" class="edge"><title>Node15&#45;&gt;Node16</title>
<path fill="none" stroke="midnightblue" d="M689.145,-156.777C707.042,-156.777 727.922,-156.777 743.399,-156.777"/>
<polygon fill="midnightblue" stroke="midnightblue" points="689.016,-153.277 679.016,-156.777 689.016,-160.277 689.016,-153.277"/>
</g>
<!-- Node18 -->
<g id="node18" class="node"><title>Node18</title>
<g id="a_node18"><a xlink:href="../../da/dd2/lua_8h.html#a6bac487d3f900b21271e8c591bd801cd" target="_top" xlink:title="lua_gc">
<polygon fill="none" stroke="black" points="745,-109.277 745,-128.277 789,-128.277 789,-109.277 745,-109.277"/>
<text text-anchor="middle" x="767" y="-116.277" font-family="Helvetica,sans-Serif" font-size="10.00">lua_gc</text>
</a>
</g>
</g>
<!-- Node17&#45;&gt;Node18 -->
<g id="edge19" class="edge"><title>Node17&#45;&gt;Node18</title>
<path fill="none" stroke="midnightblue" d="M427.849,-91.3227C441.468,-94.5164 456.813,-97.7194 471,-99.7769 572.834,-114.546 696.11,-117.835 744.775,-118.568"/>
<polygon fill="midnightblue" stroke="midnightblue" points="428.361,-87.8458 417.819,-88.9014 426.718,-94.6504 428.361,-87.8458"/>
</g>
<!-- Node20 -->
<g id="node20" class="node"><title>Node20</title>
<g id="a_node20"><a xlink:href="../../de/d27/lgc_8c.html#a87bb9d2ca4bed013c39258f8abd61689" target="_top" xlink:title="generationalcollection">
<polygon fill="none" stroke="black" points="471,-71.2769 471,-90.2769 575,-90.2769 575,-71.2769 471,-71.2769"/>
<text text-anchor="middle" x="523" y="-78.2769" font-family="Helvetica,sans-Serif" font-size="10.00">generationalcollection</text>
</a>
</g>
</g>
<!-- Node17&#45;&gt;Node20 -->
<g id="edge21" class="edge"><title>Node17&#45;&gt;Node20</title>
<path fill="none" stroke="midnightblue" d="M428.053,-80.7769C441.5,-80.7769 456.648,-80.7769 470.79,-80.7769"/>
<polygon fill="midnightblue" stroke="midnightblue" points="427.684,-77.277 417.684,-80.7769 427.684,-84.277 427.684,-77.277"/>
</g>
<!-- Node23 -->
<g id="node23" class="node"><title>Node23</title>
<g id="a_node23"><a xlink:href="../../d7/d3e/lmem_8h.html#ae7dc8a57fc5dbca825653a88a356a72d" target="_top" xlink:title="luaM_realloc_">
<polygon fill="none" stroke="black" points="486,-33.2769 486,-52.2769 560,-52.2769 560,-33.2769 486,-33.2769"/>
<text text-anchor="middle" x="523" y="-40.2769" font-family="Helvetica,sans-Serif" font-size="10.00">luaM_realloc_</text>
</a>
</g>
</g>
<!-- Node17&#45;&gt;Node23 -->
<g id="edge25" class="edge"><title>Node17&#45;&gt;Node23</title>
<path fill="none" stroke="midnightblue" d="M427.413,-69.5003C446.732,-64.0421 469.679,-57.5592 488.132,-52.3456"/>
<polygon fill="midnightblue" stroke="midnightblue" points="426.356,-66.1619 417.684,-72.249 428.259,-72.8982 426.356,-66.1619"/>
</g>
<!-- Node19 -->
<g id="node19" class="node"><title>Node19</title>
<g id="a_node19"><a xlink:href="../../d8/dd3/lbaselib_8c.html#a07f71966c943cc9761ab129f64d4ac80" target="_top" xlink:title="luaB_collectgarbage">
<polygon fill="none" stroke="black" points="846.5,-109.277 846.5,-128.277 948.5,-128.277 948.5,-109.277 846.5,-109.277"/>
<text text-anchor="middle" x="897.5" y="-116.277" font-family="Helvetica,sans-Serif" font-size="10.00">luaB_collectgarbage</text>
</a>
</g>
</g>
<!-- Node18&#45;&gt;Node19 -->
<g id="edge20" class="edge"><title>Node18&#45;&gt;Node19</title>
<path fill="none" stroke="midnightblue" d="M799.39,-118.777C813.519,-118.777 830.549,-118.777 846.376,-118.777"/>
<polygon fill="midnightblue" stroke="midnightblue" points="799.219,-115.277 789.219,-118.777 799.219,-122.277 799.219,-115.277"/>
</g>
<!-- Node20&#45;&gt;Node21 -->
<g id="edge22" class="edge"><title>Node20&#45;&gt;Node21</title>
<path fill="none" stroke="midnightblue" d="M585.349,-80.7769C594.003,-80.7769 602.698,-80.7769 610.78,-80.7769"/>
<polygon fill="midnightblue" stroke="midnightblue" points="585.249,-77.277 575.249,-80.7769 585.249,-84.277 585.249,-77.277"/>
</g>
<!-- Node21&#45;&gt;Node18 -->
<g id="edge23" class="edge"><title>Node21&#45;&gt;Node18</title>
<path fill="none" stroke="midnightblue" d="M690.501,-93.6106C708.639,-99.6566 729.58,-106.637 744.8,-111.71"/>
<polygon fill="midnightblue" stroke="midnightblue" points="691.361,-90.2079 680.767,-90.3659 689.147,-96.8487 691.361,-90.2079"/>
</g>
<!-- Node22 -->
<g id="node22" class="node"><title>Node22</title>
<g id="a_node22"><a xlink:href="../../dc/d9c/lgc_8h.html#a6c71cc4b9e503c0e96c0c4ffcff93900" target="_top" xlink:title="luaC_step">
<polygon fill="none" stroke="black" points="736.5,-71.2769 736.5,-90.2769 797.5,-90.2769 797.5,-71.2769 736.5,-71.2769"/>
<text text-anchor="middle" x="767" y="-78.2769" font-family="Helvetica,sans-Serif" font-size="10.00">luaC_step</text>
</a>
</g>
</g>
<!-- Node21&#45;&gt;Node22 -->
<g id="edge24" class="edge"><title>Node21&#45;&gt;Node22</title>
<path fill="none" stroke="midnightblue" d="M701.521,-80.7769C713.42,-80.7769 725.761,-80.7769 736.422,-80.7769"/>
<polygon fill="midnightblue" stroke="midnightblue" points="701.232,-77.277 691.232,-80.7769 701.232,-84.277 701.232,-77.277"/>
</g>
</g>
</svg>
