<?xml version="1.0" encoding="UTF-8" standalone="no"?>
<!DOCTYPE svg PUBLIC "-//W3C//DTD SVG 1.1//EN"
 "http://www.w3.org/Graphics/SVG/1.1/DTD/svg11.dtd">
<!-- Generated by graphviz version 2.38.0 (20140413.2041)
 -->
<!-- Title: callallpendingfinalizers Pages: 1 -->
<svg width="1216pt" height="284pt"
 viewBox="0.00 0.00 1216.00 284.00" xmlns="http://www.w3.org/2000/svg" xmlns:xlink="http://www.w3.org/1999/xlink">
<g id="graph0" class="graph" transform="scale(1 1) rotate(0) translate(4 280)">
<title>callallpendingfinalizers</title>
<!-- Node1 -->
<g id="node1" class="node"><title>Node1</title>
<polygon fill="#bfbfbf" stroke="black" points="0,-75.5 0,-94.5 109,-94.5 109,-75.5 0,-75.5"/>
<text text-anchor="middle" x="54.5" y="-82.5" font-family="Helvetica,sans-Serif" font-size="10.00">callallpendingfinalizers</text>
</g>
<!-- Node2 -->
<g id="node2" class="node"><title>Node2</title>
<g id="a_node2"><a xlink:href="../../dc/d9c/lgc_8h.html#a9aa52a500c9cc2076edb1707e6d8a045" target="_top" xlink:title="luaC_freeallobjects">
<polygon fill="none" stroke="black" points="145,-104.5 145,-123.5 242,-123.5 242,-104.5 145,-104.5"/>
<text text-anchor="middle" x="193.5" y="-111.5" font-family="Helvetica,sans-Serif" font-size="10.00">luaC_freeallobjects</text>
</a>
</g>
</g>
<!-- Node1&#45;&gt;Node2 -->
<g id="edge1" class="edge"><title>Node1&#45;&gt;Node2</title>
<path fill="none" stroke="midnightblue" d="M110.765,-96.6984C122.905,-99.2681 135.621,-101.96 147.309,-104.434"/>
<polygon fill="midnightblue" stroke="midnightblue" points="111.247,-93.2229 100.739,-94.5761 109.797,-100.071 111.247,-93.2229"/>
</g>
<!-- Node15 -->
<g id="node15" class="node"><title>Node15</title>
<g id="a_node15"><a xlink:href="../../dc/d9c/lgc_8h.html#aa0b753c3ed80e1eed0379ec58592c404" target="_top" xlink:title="luaC_fullgc">
<polygon fill="none" stroke="black" points="162.5,-47.5 162.5,-66.5 224.5,-66.5 224.5,-47.5 162.5,-47.5"/>
<text text-anchor="middle" x="193.5" y="-54.5" font-family="Helvetica,sans-Serif" font-size="10.00">luaC_fullgc</text>
</a>
</g>
</g>
<!-- Node1&#45;&gt;Node15 -->
<g id="edge16" class="edge"><title>Node1&#45;&gt;Node15</title>
<path fill="none" stroke="midnightblue" d="M112.217,-73.4083C129.377,-69.9011 147.554,-66.186 162.265,-63.1794"/>
<polygon fill="midnightblue" stroke="midnightblue" points="111.361,-70.0107 102.264,-75.4423 112.763,-76.8689 111.361,-70.0107"/>
</g>
<!-- Node3 -->
<g id="node3" class="node"><title>Node3</title>
<g id="a_node3"><a xlink:href="../../dd/dca/lstate_8c.html#a4940327dfa3b86df0ef008180bb3fcb3" target="_top" xlink:title="close_state">
<polygon fill="none" stroke="black" points="297.5,-114.5 297.5,-133.5 362.5,-133.5 362.5,-114.5 297.5,-114.5"/>
<text text-anchor="middle" x="330" y="-121.5" font-family="Helvetica,sans-Serif" font-size="10.00">close_state</text>
</a>
</g>
</g>
<!-- Node2&#45;&gt;Node3 -->
<g id="edge2" class="edge"><title>Node2&#45;&gt;Node3</title>
<path fill="none" stroke="midnightblue" d="M252.316,-118.299C267.763,-119.447 283.887,-120.646 297.341,-121.646"/>
<polygon fill="midnightblue" stroke="midnightblue" points="252.53,-114.805 242.298,-117.554 252.011,-121.786 252.53,-114.805"/>
</g>
<!-- Node4 -->
<g id="node4" class="node"><title>Node4</title>
<g id="a_node4"><a xlink:href="../../da/dd2/lua_8h.html#af722e4ac7fc0eba5920f59f0162c1b97" target="_top" xlink:title="lua_newstate">
<polygon fill="none" stroke="black" points="421,-152.5 421,-171.5 495,-171.5 495,-152.5 421,-152.5"/>
<text text-anchor="middle" x="458" y="-159.5" font-family="Helvetica,sans-Serif" font-size="10.00">lua_newstate</text>
</a>
</g>
</g>
<!-- Node3&#45;&gt;Node4 -->
<g id="edge3" class="edge"><title>Node3&#45;&gt;Node4</title>
<path fill="none" stroke="midnightblue" d="M372.564,-136.535C389.705,-141.705 409.25,-147.599 425.215,-152.414"/>
<polygon fill="midnightblue" stroke="midnightblue" points="373.38,-133.126 362.795,-133.589 371.359,-139.827 373.38,-133.126"/>
</g>
<!-- Node13 -->
<g id="node13" class="node"><title>Node13</title>
<g id="a_node13"><a xlink:href="../../da/dd2/lua_8h.html#afe030a97e84f24dfab3afb598faa2fff" target="_top" xlink:title="lua_close">
<polygon fill="none" stroke="black" points="430,-114.5 430,-133.5 486,-133.5 486,-114.5 430,-114.5"/>
<text text-anchor="middle" x="458" y="-121.5" font-family="Helvetica,sans-Serif" font-size="10.00">lua_close</text>
</a>
</g>
</g>
<!-- Node3&#45;&gt;Node13 -->
<g id="edge14" class="edge"><title>Node3&#45;&gt;Node13</title>
<path fill="none" stroke="midnightblue" d="M372.891,-124C391.678,-124 413.297,-124 429.912,-124"/>
<polygon fill="midnightblue" stroke="midnightblue" points="372.795,-120.5 362.795,-124 372.795,-127.5 372.795,-120.5"/>
</g>
<!-- Node5 -->
<g id="node5" class="node"><title>Node5</title>
<g id="a_node5"><a xlink:href="../../da/d29/lauxlib_8h.html#a7d8712fcede90ae93d5a9a7b409c586e" target="_top" xlink:title="luaL_newstate">
<polygon fill="none" stroke="black" points="534,-190.5 534,-209.5 614,-209.5 614,-190.5 534,-190.5"/>
<text text-anchor="middle" x="574" y="-197.5" font-family="Helvetica,sans-Serif" font-size="10.00">luaL_newstate</text>
</a>
</g>
</g>
<!-- Node4&#45;&gt;Node5 -->
<g id="edge4" class="edge"><title>Node4&#45;&gt;Node5</title>
<path fill="none" stroke="midnightblue" d="M497.478,-174.826C512.774,-179.925 530.067,-185.689 544.242,-190.414"/>
<polygon fill="midnightblue" stroke="midnightblue" points="498.361,-171.431 487.767,-171.589 496.147,-178.072 498.361,-171.431"/>
</g>
<!-- Node12 -->
<g id="node12" class="node"><title>Node12</title>
<g id="a_node12"><a xlink:href="../../dd/dca/lstate_8c.html#a8a0fc0aca5367250347c6bb6a788f05f" target="_top" xlink:title="makeseed">
<polygon fill="none" stroke="black" points="543.5,-152.5 543.5,-171.5 604.5,-171.5 604.5,-152.5 543.5,-152.5"/>
<text text-anchor="middle" x="574" y="-159.5" font-family="Helvetica,sans-Serif" font-size="10.00">makeseed</text>
</a>
</g>
</g>
<!-- Node4&#45;&gt;Node12 -->
<g id="edge12" class="edge"><title>Node4&#45;&gt;Node12</title>
<path fill="none" stroke="midnightblue" d="M505.163,-155.36C518.018,-155.097 531.636,-155.307 543.271,-155.99"/>
<polygon fill="midnightblue" stroke="midnightblue" points="504.957,-151.864 495.07,-155.672 505.174,-158.861 504.957,-151.864"/>
</g>
<!-- Node6 -->
<g id="node6" class="node"><title>Node6</title>
<g id="a_node6"><a xlink:href="../../dc/de7/interface_kensho_lua_wrapper.html#a7d10aa0242861cdd109d3da9383882a2" target="_top" xlink:title="&#45;[KenshoLuaWrapper\l evaluate]">
<polygon fill="none" stroke="black" points="650,-185 650,-215 759,-215 759,-185 650,-185"/>
<text text-anchor="start" x="658" y="-203" font-family="Helvetica,sans-Serif" font-size="10.00">&#45;[KenshoLuaWrapper</text>
<text text-anchor="middle" x="704.5" y="-192" font-family="Helvetica,sans-Serif" font-size="10.00"> evaluate]</text>
</a>
</g>
</g>
<!-- Node5&#45;&gt;Node6 -->
<g id="edge5" class="edge"><title>Node5&#45;&gt;Node6</title>
<path fill="none" stroke="midnightblue" d="M624.518,-200C632.804,-200 641.435,-200 649.819,-200"/>
<polygon fill="midnightblue" stroke="midnightblue" points="624.252,-196.5 614.252,-200 624.252,-203.5 624.252,-196.5"/>
</g>
<!-- Node7 -->
<g id="node7" class="node"><title>Node7</title>
<g id="a_node7"><a xlink:href="../../dc/de7/interface_kensho_lua_wrapper.html#af6db46358f8858a18b55388aa3af211d" target="_top" xlink:title="&#45;[KenshoLuaWrapper\l initWithKensho:context\l:code:]">
<polygon fill="none" stroke="black" points="795,-234.5 795,-275.5 909,-275.5 909,-234.5 795,-234.5"/>
<text text-anchor="start" x="803" y="-263.5" font-family="Helvetica,sans-Serif" font-size="10.00">&#45;[KenshoLuaWrapper</text>
<text text-anchor="start" x="803" y="-252.5" font-family="Helvetica,sans-Serif" font-size="10.00"> initWithKensho:context</text>
<text text-anchor="middle" x="852" y="-241.5" font-family="Helvetica,sans-Serif" font-size="10.00">:code:]</text>
</a>
</g>
</g>
<!-- Node6&#45;&gt;Node7 -->
<g id="edge6" class="edge"><title>Node6&#45;&gt;Node7</title>
<path fill="none" stroke="midnightblue" d="M754.799,-218.635C768.233,-223.713 782.861,-229.243 796.563,-234.422"/>
<polygon fill="midnightblue" stroke="midnightblue" points="755.85,-215.291 745.259,-215.029 753.375,-221.839 755.85,-215.291"/>
</g>
<!-- Node8 -->
<g id="node8" class="node"><title>Node8</title>
<g id="a_node8"><a xlink:href="../../dc/de7/interface_kensho_lua_wrapper.html#a5555e0979799446611baee70104555c6" target="_top" xlink:title="&#45;[KenshoLuaWrapper\l evaluate:]">
<polygon fill="none" stroke="black" points="797.5,-185 797.5,-215 906.5,-215 906.5,-185 797.5,-185"/>
<text text-anchor="start" x="805.5" y="-203" font-family="Helvetica,sans-Serif" font-size="10.00">&#45;[KenshoLuaWrapper</text>
<text text-anchor="middle" x="852" y="-192" font-family="Helvetica,sans-Serif" font-size="10.00"> evaluate:]</text>
</a>
</g>
</g>
<!-- Node6&#45;&gt;Node8 -->
<g id="edge7" class="edge"><title>Node6&#45;&gt;Node8</title>
<path fill="none" stroke="midnightblue" d="M769.339,-200C778.723,-200 788.307,-200 797.456,-200"/>
<polygon fill="midnightblue" stroke="midnightblue" points="769.265,-196.5 759.265,-200 769.265,-203.5 769.265,-196.5"/>
</g>
<!-- Node11 -->
<g id="node11" class="node"><title>Node11</title>
<g id="a_node11"><a xlink:href="../../dc/de7/interface_kensho_lua_wrapper.html#a0bb5e125d727942726d707f8b59009dc" target="_top" xlink:title="&#45;[KenshoLuaWrapper\l observableUpdated:]">
<polygon fill="none" stroke="black" points="797.5,-136 797.5,-166 906.5,-166 906.5,-136 797.5,-136"/>
<text text-anchor="start" x="805.5" y="-154" font-family="Helvetica,sans-Serif" font-size="10.00">&#45;[KenshoLuaWrapper</text>
<text text-anchor="middle" x="852" y="-143" font-family="Helvetica,sans-Serif" font-size="10.00"> observableUpdated:]</text>
</a>
</g>
</g>
<!-- Node6&#45;&gt;Node11 -->
<g id="edge11" class="edge"><title>Node6&#45;&gt;Node11</title>
<path fill="none" stroke="midnightblue" d="M760.153,-181.595C775.376,-176.468 791.729,-170.961 806.306,-166.052"/>
<polygon fill="midnightblue" stroke="midnightblue" points="758.702,-178.39 750.342,-184.899 760.936,-185.024 758.702,-178.39"/>
</g>
<!-- Node9 -->
<g id="node9" class="node"><title>Node9</title>
<g id="a_node9"><a xlink:href="../../da/d0b/interface_kensho.html#a07b4d14db676108e1a94a1f10e100fb4" target="_top" xlink:title="&#45;[Kensho bindToView\l:context:]">
<polygon fill="none" stroke="black" points="945,-185 945,-215 1053,-215 1053,-185 945,-185"/>
<text text-anchor="start" x="953" y="-203" font-family="Helvetica,sans-Serif" font-size="10.00">&#45;[Kensho bindToView</text>
<text text-anchor="middle" x="999" y="-192" font-family="Helvetica,sans-Serif" font-size="10.00">:context:]</text>
</a>
</g>
</g>
<!-- Node8&#45;&gt;Node9 -->
<g id="edge8" class="edge"><title>Node8&#45;&gt;Node9</title>
<path fill="none" stroke="midnightblue" d="M916.62,-200C925.971,-200 935.523,-200 944.64,-200"/>
<polygon fill="midnightblue" stroke="midnightblue" points="916.581,-196.5 906.581,-200 916.581,-203.5 916.581,-196.5"/>
</g>
<!-- Node9&#45;&gt;Node9 -->
<g id="edge10" class="edge"><title>Node9&#45;&gt;Node9</title>
<path fill="none" stroke="midnightblue" d="M973.058,-225.458C976.277,-230.179 984.925,-233.5 999,-233.5 1022.1,-233.5 1030.58,-224.557 1024.44,-215.159"/>
<polygon fill="midnightblue" stroke="midnightblue" points="976.568,-225.317 973.556,-215.159 969.577,-224.978 976.568,-225.317"/>
</g>
<!-- Node10 -->
<g id="node10" class="node"><title>Node10</title>
<g id="a_node10"><a xlink:href="../../da/d0b/interface_kensho.html#a1019e8223ee907bab87501ae483e609f" target="_top" xlink:title="&#45;[Kensho applyBindings\l:viewModel:]">
<polygon fill="none" stroke="black" points="1089,-185 1089,-215 1208,-215 1208,-185 1089,-185"/>
<text text-anchor="start" x="1097" y="-203" font-family="Helvetica,sans-Serif" font-size="10.00">&#45;[Kensho applyBindings</text>
<text text-anchor="middle" x="1148.5" y="-192" font-family="Helvetica,sans-Serif" font-size="10.00">:viewModel:]</text>
</a>
</g>
</g>
<!-- Node9&#45;&gt;Node10 -->
<g id="edge9" class="edge"><title>Node9&#45;&gt;Node10</title>
<path fill="none" stroke="midnightblue" d="M1063.42,-200C1071.86,-200 1080.48,-200 1088.83,-200"/>
<polygon fill="midnightblue" stroke="midnightblue" points="1063.25,-196.5 1053.25,-200 1063.25,-203.5 1063.25,-196.5"/>
</g>
<!-- Node12&#45;&gt;Node4 -->
<g id="edge13" class="edge"><title>Node12&#45;&gt;Node4</title>
<path fill="none" stroke="midnightblue" d="M533.196,-168.469C520.796,-168.886 507.199,-168.839 495.07,-168.328"/>
<polygon fill="midnightblue" stroke="midnightblue" points="533.441,-171.962 543.271,-168.01 533.122,-164.969 533.441,-171.962"/>
</g>
<!-- Node14 -->
<g id="node14" class="node"><title>Node14</title>
<g id="a_node14"><a xlink:href="../../dc/dba/loslib_8c.html#a905e81425fe3d6d0b363c10162a2a37b" target="_top" xlink:title="os_exit">
<polygon fill="none" stroke="black" points="550.5,-114.5 550.5,-133.5 597.5,-133.5 597.5,-114.5 550.5,-114.5"/>
<text text-anchor="middle" x="574" y="-121.5" font-family="Helvetica,sans-Serif" font-size="10.00">os_exit</text>
</a>
</g>
</g>
<!-- Node13&#45;&gt;Node14 -->
<g id="edge15" class="edge"><title>Node13&#45;&gt;Node14</title>
<path fill="none" stroke="midnightblue" d="M496.145,-124C514.042,-124 534.922,-124 550.399,-124"/>
<polygon fill="midnightblue" stroke="midnightblue" points="496.016,-120.5 486.016,-124 496.016,-127.5 496.016,-120.5"/>
</g>
<!-- Node16 -->
<g id="node16" class="node"><title>Node16</title>
<g id="a_node16"><a xlink:href="../../da/dd2/lua_8h.html#a6bac487d3f900b21271e8c591bd801cd" target="_top" xlink:title="lua_gc">
<polygon fill="none" stroke="black" points="552,-76.5 552,-95.5 596,-95.5 596,-76.5 552,-76.5"/>
<text text-anchor="middle" x="574" y="-83.5" font-family="Helvetica,sans-Serif" font-size="10.00">lua_gc</text>
</a>
</g>
</g>
<!-- Node15&#45;&gt;Node16 -->
<g id="edge17" class="edge"><title>Node15&#45;&gt;Node16</title>
<path fill="none" stroke="midnightblue" d="M234.707,-62.2679C248.424,-63.9445 263.866,-65.6994 278,-67 380.467,-76.4283 503.384,-82.7428 551.864,-85.0376"/>
<polygon fill="midnightblue" stroke="midnightblue" points="234.96,-58.7724 224.604,-61.0098 234.095,-65.7187 234.96,-58.7724"/>
</g>
<!-- Node18 -->
<g id="node18" class="node"><title>Node18</title>
<g id="a_node18"><a xlink:href="../../de/d27/lgc_8c.html#a87bb9d2ca4bed013c39258f8abd61689" target="_top" xlink:title="generationalcollection">
<polygon fill="none" stroke="black" points="278,-38.5 278,-57.5 382,-57.5 382,-38.5 278,-38.5"/>
<text text-anchor="middle" x="330" y="-45.5" font-family="Helvetica,sans-Serif" font-size="10.00">generationalcollection</text>
</a>
</g>
</g>
<!-- Node15&#45;&gt;Node18 -->
<g id="edge19" class="edge"><title>Node15&#45;&gt;Node18</title>
<path fill="none" stroke="midnightblue" d="M235.053,-54.2864C248.5,-53.3866 263.648,-52.373 277.79,-51.4267"/>
<polygon fill="midnightblue" stroke="midnightblue" points="234.428,-50.8203 224.684,-54.9802 234.896,-57.8047 234.428,-50.8203"/>
</g>
<!-- Node21 -->
<g id="node21" class="node"><title>Node21</title>
<g id="a_node21"><a xlink:href="../../d7/d3e/lmem_8h.html#ae7dc8a57fc5dbca825653a88a356a72d" target="_top" xlink:title="luaM_realloc_">
<polygon fill="none" stroke="black" points="293,-0.5 293,-19.5 367,-19.5 367,-0.5 293,-0.5"/>
<text text-anchor="middle" x="330" y="-7.5" font-family="Helvetica,sans-Serif" font-size="10.00">luaM_realloc_</text>
</a>
</g>
</g>
<!-- Node15&#45;&gt;Node21 -->
<g id="edge23" class="edge"><title>Node15&#45;&gt;Node21</title>
<path fill="none" stroke="midnightblue" d="M231.436,-44.093C253.534,-36.3711 281.154,-26.7194 301.361,-19.6583"/>
<polygon fill="midnightblue" stroke="midnightblue" points="230.004,-40.8859 221.718,-47.4888 232.313,-47.494 230.004,-40.8859"/>
</g>
<!-- Node17 -->
<g id="node17" class="node"><title>Node17</title>
<g id="a_node17"><a xlink:href="../../d8/dd3/lbaselib_8c.html#a07f71966c943cc9761ab129f64d4ac80" target="_top" xlink:title="luaB_collectgarbage">
<polygon fill="none" stroke="black" points="653.5,-76.5 653.5,-95.5 755.5,-95.5 755.5,-76.5 653.5,-76.5"/>
<text text-anchor="middle" x="704.5" y="-83.5" font-family="Helvetica,sans-Serif" font-size="10.00">luaB_collectgarbage</text>
</a>
</g>
</g>
<!-- Node16&#45;&gt;Node17 -->
<g id="edge18" class="edge"><title>Node16&#45;&gt;Node17</title>
<path fill="none" stroke="midnightblue" d="M606.39,-86C620.519,-86 637.549,-86 653.376,-86"/>
<polygon fill="midnightblue" stroke="midnightblue" points="606.219,-82.5001 596.219,-86 606.219,-89.5001 606.219,-82.5001"/>
</g>
<!-- Node19 -->
<g id="node19" class="node"><title>Node19</title>
<g id="a_node19"><a xlink:href="../../dc/d9c/lgc_8h.html#a19359957605d7c8eaf70803e5b77361f" target="_top" xlink:title="luaC_forcestep">
<polygon fill="none" stroke="black" points="418,-38.5 418,-57.5 498,-57.5 498,-38.5 418,-38.5"/>
<text text-anchor="middle" x="458" y="-45.5" font-family="Helvetica,sans-Serif" font-size="10.00">luaC_forcestep</text>
</a>
</g>
</g>
<!-- Node18&#45;&gt;Node19 -->
<g id="edge20" class="edge"><title>Node18&#45;&gt;Node19</title>
<path fill="none" stroke="midnightblue" d="M392.349,-48C401.003,-48 409.698,-48 417.78,-48"/>
<polygon fill="midnightblue" stroke="midnightblue" points="392.249,-44.5001 382.249,-48 392.249,-51.5001 392.249,-44.5001"/>
</g>
<!-- Node19&#45;&gt;Node16 -->
<g id="edge21" class="edge"><title>Node19&#45;&gt;Node16</title>
<path fill="none" stroke="midnightblue" d="M497.501,-60.8337C515.639,-66.8797 536.58,-73.86 551.8,-78.9332"/>
<polygon fill="midnightblue" stroke="midnightblue" points="498.361,-57.431 487.767,-57.589 496.147,-64.0717 498.361,-57.431"/>
</g>
<!-- Node20 -->
<g id="node20" class="node"><title>Node20</title>
<g id="a_node20"><a xlink:href="../../dc/d9c/lgc_8h.html#a6c71cc4b9e503c0e96c0c4ffcff93900" target="_top" xlink:title="luaC_step">
<polygon fill="none" stroke="black" points="543.5,-38.5 543.5,-57.5 604.5,-57.5 604.5,-38.5 543.5,-38.5"/>
<text text-anchor="middle" x="574" y="-45.5" font-family="Helvetica,sans-Serif" font-size="10.00">luaC_step</text>
</a>
</g>
</g>
<!-- Node19&#45;&gt;Node20 -->
<g id="edge22" class="edge"><title>Node19&#45;&gt;Node20</title>
<path fill="none" stroke="midnightblue" d="M508.521,-48C520.42,-48 532.761,-48 543.422,-48"/>
<polygon fill="midnightblue" stroke="midnightblue" points="508.232,-44.5001 498.232,-48 508.232,-51.5001 508.232,-44.5001"/>
</g>
</g>
</svg>
