<?xml version="1.0" encoding="UTF-8" standalone="no"?>
<!DOCTYPE svg PUBLIC "-//W3C//DTD SVG 1.1//EN"
 "http://www.w3.org/Graphics/SVG/1.1/DTD/svg11.dtd">
<!-- Generated by graphviz version 2.38.0 (20140413.2041)
 -->
<!-- Title: traverseweakvalue Pages: 1 -->
<svg width="1894pt" height="560pt"
 viewBox="0.00 0.00 1894.00 560.00" xmlns="http://www.w3.org/2000/svg" xmlns:xlink="http://www.w3.org/1999/xlink">
<g id="graph0" class="graph" transform="scale(1 1) rotate(0) translate(4 556)">
<title>traverseweakvalue</title>
<!-- Node1 -->
<g id="node1" class="node"><title>Node1</title>
<polygon fill="#bfbfbf" stroke="black" points="0,-418.5 0,-437.5 98,-437.5 98,-418.5 0,-418.5"/>
<text text-anchor="middle" x="49" y="-425.5" font-family="Helvetica,sans-Serif" font-size="10.00">traverseweakvalue</text>
</g>
<!-- Node2 -->
<g id="node2" class="node"><title>Node2</title>
<g id="a_node2"><a xlink:href="../../de/d27/lgc_8c.html#a86c4c1008df3c908a9cca3cf72abc195" target="_top" xlink:title="traversetable">
<polygon fill="none" stroke="black" points="134,-418.5 134,-437.5 205,-437.5 205,-418.5 134,-418.5"/>
<text text-anchor="middle" x="169.5" y="-425.5" font-family="Helvetica,sans-Serif" font-size="10.00">traversetable</text>
</a>
</g>
</g>
<!-- Node1&#45;&gt;Node2 -->
<g id="edge1" class="edge"><title>Node1&#45;&gt;Node2</title>
<path fill="none" stroke="midnightblue" d="M108.356,-428C117.058,-428 125.785,-428 133.787,-428"/>
<polygon fill="midnightblue" stroke="midnightblue" points="108.199,-424.5 98.1985,-428 108.198,-431.5 108.199,-424.5"/>
</g>
<!-- Node3 -->
<g id="node3" class="node"><title>Node3</title>
<g id="a_node3"><a xlink:href="../../de/d27/lgc_8c.html#accb36b237a98cbde36fa5bcf16a4ec1f" target="_top" xlink:title="propagatemark">
<polygon fill="none" stroke="black" points="241,-418.5 241,-437.5 322,-437.5 322,-418.5 241,-418.5"/>
<text text-anchor="middle" x="281.5" y="-425.5" font-family="Helvetica,sans-Serif" font-size="10.00">propagatemark</text>
</a>
</g>
</g>
<!-- Node2&#45;&gt;Node3 -->
<g id="edge2" class="edge"><title>Node2&#45;&gt;Node3</title>
<path fill="none" stroke="midnightblue" d="M215.121,-428C223.602,-428 232.424,-428 240.741,-428"/>
<polygon fill="midnightblue" stroke="midnightblue" points="215.003,-424.5 205.003,-428 215.003,-431.5 215.003,-424.5"/>
</g>
<!-- Node4 -->
<g id="node4" class="node"><title>Node4</title>
<g id="a_node4"><a xlink:href="../../de/d27/lgc_8c.html#a9a291e8a23c3611b6c79d792fe421f5c" target="_top" xlink:title="propagateall">
<polygon fill="none" stroke="black" points="358,-456.5 358,-475.5 428,-475.5 428,-456.5 358,-456.5"/>
<text text-anchor="middle" x="393" y="-463.5" font-family="Helvetica,sans-Serif" font-size="10.00">propagateall</text>
</a>
</g>
</g>
<!-- Node3&#45;&gt;Node4 -->
<g id="edge3" class="edge"><title>Node3&#45;&gt;Node4</title>
<path fill="none" stroke="midnightblue" d="M319.879,-440.972C334.468,-446.034 350.892,-451.734 364.377,-456.414"/>
<polygon fill="midnightblue" stroke="midnightblue" points="320.726,-437.561 310.131,-437.589 318.431,-444.174 320.726,-437.561"/>
</g>
<!-- Node6 -->
<g id="node6" class="node"><title>Node6</title>
<g id="a_node6"><a xlink:href="../../de/d27/lgc_8c.html#ae34e22198155f5d365fe500d3735c150" target="_top" xlink:title="singlestep">
<polygon fill="none" stroke="black" points="794,-427.5 794,-446.5 853,-446.5 853,-427.5 794,-427.5"/>
<text text-anchor="middle" x="823.5" y="-434.5" font-family="Helvetica,sans-Serif" font-size="10.00">singlestep</text>
</a>
</g>
</g>
<!-- Node3&#45;&gt;Node6 -->
<g id="edge62" class="edge"><title>Node3&#45;&gt;Node6</title>
<path fill="none" stroke="midnightblue" d="M325.766,-415.816C369.095,-404.702 437.87,-390 498.5,-390 498.5,-390 498.5,-390 625.5,-390 689.494,-390 762.066,-413.755 798.675,-427.489"/>
<polygon fill="midnightblue" stroke="midnightblue" points="324.641,-412.493 315.853,-418.411 326.413,-419.265 324.641,-412.493"/>
</g>
<!-- Node5 -->
<g id="node5" class="node"><title>Node5</title>
<g id="a_node5"><a xlink:href="../../de/d27/lgc_8c.html#aeeb04d4803ad9d53a05a8605130a31d0" target="_top" xlink:title="atomic">
<polygon fill="none" stroke="black" points="714,-475.5 714,-494.5 758,-494.5 758,-475.5 714,-475.5"/>
<text text-anchor="middle" x="736" y="-482.5" font-family="Helvetica,sans-Serif" font-size="10.00">atomic</text>
</a>
</g>
</g>
<!-- Node4&#45;&gt;Node5 -->
<g id="edge4" class="edge"><title>Node4&#45;&gt;Node5</title>
<path fill="none" stroke="midnightblue" d="M437.898,-475.831C446.514,-477.462 455.512,-478.959 464,-480 556.479,-491.343 668.018,-488.131 713.812,-486.093"/>
<polygon fill="midnightblue" stroke="midnightblue" points="438.502,-472.382 428.013,-473.873 437.142,-479.249 438.502,-472.382"/>
</g>
<!-- Node48 -->
<g id="node48" class="node"><title>Node48</title>
<g id="a_node48"><a xlink:href="../../de/d27/lgc_8c.html#a467150a6e5a6ef4402432c4964817ffc" target="_top" xlink:title="convergeephemerons">
<polygon fill="none" stroke="black" points="571,-532.5 571,-551.5 678,-551.5 678,-532.5 571,-532.5"/>
<text text-anchor="middle" x="624.5" y="-539.5" font-family="Helvetica,sans-Serif" font-size="10.00">convergeephemerons</text>
</a>
</g>
</g>
<!-- Node4&#45;&gt;Node48 -->
<g id="edge56" class="edge"><title>Node4&#45;&gt;Node48</title>
<path fill="none" stroke="midnightblue" d="M411.349,-482.731C424.665,-494.555 444.09,-509.719 464,-518 497.871,-532.087 538.843,-538.041 570.78,-540.497"/>
<polygon fill="midnightblue" stroke="midnightblue" points="413.632,-480.076 403.898,-475.892 408.899,-485.233 413.632,-480.076"/>
</g>
<!-- Node49 -->
<g id="node49" class="node"><title>Node49</title>
<g id="a_node49"><a xlink:href="../../de/d27/lgc_8c.html#ab03267de3dc98eae16e7af8b88b1f9aa" target="_top" xlink:title="propagatelist">
<polygon fill="none" stroke="black" points="464,-418.5 464,-437.5 535,-437.5 535,-418.5 464,-418.5"/>
<text text-anchor="middle" x="499.5" y="-425.5" font-family="Helvetica,sans-Serif" font-size="10.00">propagatelist</text>
</a>
</g>
</g>
<!-- Node4&#45;&gt;Node49 -->
<g id="edge58" class="edge"><title>Node4&#45;&gt;Node49</title>
<path fill="none" stroke="midnightblue" d="M430.074,-452.882C443.896,-447.856 459.393,-442.221 472.139,-437.586"/>
<polygon fill="midnightblue" stroke="midnightblue" points="428.572,-449.704 420.37,-456.411 430.964,-456.283 428.572,-449.704"/>
</g>
<!-- Node50 -->
<g id="node50" class="node"><title>Node50</title>
<g id="a_node50"><a xlink:href="../../de/d27/lgc_8c.html#aa6acc790e5954f9a3652a7b0c70f8f2c" target="_top" xlink:title="retraversegrays">
<polygon fill="none" stroke="black" points="583.5,-456.5 583.5,-475.5 665.5,-475.5 665.5,-456.5 583.5,-456.5"/>
<text text-anchor="middle" x="624.5" y="-463.5" font-family="Helvetica,sans-Serif" font-size="10.00">retraversegrays</text>
</a>
</g>
</g>
<!-- Node4&#45;&gt;Node50 -->
<g id="edge61" class="edge"><title>Node4&#45;&gt;Node50</title>
<path fill="none" stroke="midnightblue" d="M438.579,-466C480.61,-466 543.029,-466 583.495,-466"/>
<polygon fill="midnightblue" stroke="midnightblue" points="438.359,-462.5 428.358,-466 438.358,-469.5 438.359,-462.5"/>
</g>
<!-- Node5&#45;&gt;Node6 -->
<g id="edge5" class="edge"><title>Node5&#45;&gt;Node6</title>
<path fill="none" stroke="midnightblue" d="M763.301,-470.234C777.043,-462.52 793.459,-453.304 805.515,-446.535"/>
<polygon fill="midnightblue" stroke="midnightblue" points="761.309,-467.339 754.302,-475.286 764.735,-473.443 761.309,-467.339"/>
</g>
<!-- Node7 -->
<g id="node7" class="node"><title>Node7</title>
<g id="a_node7"><a xlink:href="../../de/d27/lgc_8c.html#a7515a46e25b277cbbe7febb4d06b196a" target="_top" xlink:title="incstep">
<polygon fill="none" stroke="black" points="906,-522.5 906,-541.5 953,-541.5 953,-522.5 906,-522.5"/>
<text text-anchor="middle" x="929.5" y="-529.5" font-family="Helvetica,sans-Serif" font-size="10.00">incstep</text>
</a>
</g>
</g>
<!-- Node6&#45;&gt;Node7 -->
<g id="edge6" class="edge"><title>Node6&#45;&gt;Node7</title>
<path fill="none" stroke="midnightblue" d="M842.857,-453.769C864.681,-473.704 900.356,-506.292 917.975,-522.386"/>
<polygon fill="midnightblue" stroke="midnightblue" points="844.982,-450.969 835.238,-446.809 840.261,-456.137 844.982,-450.969"/>
</g>
<!-- Node12 -->
<g id="node12" class="node"><title>Node12</title>
<g id="a_node12"><a xlink:href="../../dc/d9c/lgc_8h.html#a1da32357417ce5766ed5e3ada033c32f" target="_top" xlink:title="luaC_runtilstate">
<polygon fill="none" stroke="black" points="889,-427.5 889,-446.5 970,-446.5 970,-427.5 889,-427.5"/>
<text text-anchor="middle" x="929.5" y="-434.5" font-family="Helvetica,sans-Serif" font-size="10.00">luaC_runtilstate</text>
</a>
</g>
</g>
<!-- Node6&#45;&gt;Node12 -->
<g id="edge11" class="edge"><title>Node6&#45;&gt;Node12</title>
<path fill="none" stroke="midnightblue" d="M863.33,-437C871.587,-437 880.317,-437 888.613,-437"/>
<polygon fill="midnightblue" stroke="midnightblue" points="863.194,-433.5 853.194,-437 863.194,-440.5 863.194,-433.5"/>
</g>
<!-- Node8 -->
<g id="node8" class="node"><title>Node8</title>
<g id="a_node8"><a xlink:href="../../dc/d9c/lgc_8h.html#a19359957605d7c8eaf70803e5b77361f" target="_top" xlink:title="luaC_forcestep">
<polygon fill="none" stroke="black" points="1279,-517.5 1279,-536.5 1359,-536.5 1359,-517.5 1279,-517.5"/>
<text text-anchor="middle" x="1319" y="-524.5" font-family="Helvetica,sans-Serif" font-size="10.00">luaC_forcestep</text>
</a>
</g>
</g>
<!-- Node7&#45;&gt;Node8 -->
<g id="edge7" class="edge"><title>Node7&#45;&gt;Node8</title>
<path fill="none" stroke="midnightblue" d="M963.588,-537.127C1020.78,-545.177 1141.74,-558.626 1243,-546 1257.93,-544.138 1274.15,-540.269 1287.68,-536.505"/>
<polygon fill="midnightblue" stroke="midnightblue" points="963.744,-533.613 953.346,-535.646 962.742,-540.541 963.744,-533.613"/>
</g>
<!-- Node9 -->
<g id="node9" class="node"><title>Node9</title>
<g id="a_node9"><a xlink:href="../../da/dd2/lua_8h.html#a6bac487d3f900b21271e8c591bd801cd" target="_top" xlink:title="lua_gc">
<polygon fill="none" stroke="black" points="1413,-441.5 1413,-460.5 1457,-460.5 1457,-441.5 1413,-441.5"/>
<text text-anchor="middle" x="1435" y="-448.5" font-family="Helvetica,sans-Serif" font-size="10.00">lua_gc</text>
</a>
</g>
</g>
<!-- Node8&#45;&gt;Node9 -->
<g id="edge8" class="edge"><title>Node8&#45;&gt;Node9</title>
<path fill="none" stroke="midnightblue" d="M1342.89,-511.741C1365.81,-496.458 1400.38,-473.412 1419.68,-460.547"/>
<polygon fill="midnightblue" stroke="midnightblue" points="1340.82,-508.915 1334.44,-517.375 1344.7,-514.74 1340.82,-508.915"/>
</g>
<!-- Node11 -->
<g id="node11" class="node"><title>Node11</title>
<g id="a_node11"><a xlink:href="../../dc/d9c/lgc_8h.html#a6c71cc4b9e503c0e96c0c4ffcff93900" target="_top" xlink:title="luaC_step">
<polygon fill="none" stroke="black" points="1404.5,-517.5 1404.5,-536.5 1465.5,-536.5 1465.5,-517.5 1404.5,-517.5"/>
<text text-anchor="middle" x="1435" y="-524.5" font-family="Helvetica,sans-Serif" font-size="10.00">luaC_step</text>
</a>
</g>
</g>
<!-- Node8&#45;&gt;Node11 -->
<g id="edge10" class="edge"><title>Node8&#45;&gt;Node11</title>
<path fill="none" stroke="midnightblue" d="M1369.52,-527C1381.42,-527 1393.76,-527 1404.42,-527"/>
<polygon fill="midnightblue" stroke="midnightblue" points="1369.23,-523.5 1359.23,-527 1369.23,-530.5 1369.23,-523.5"/>
</g>
<!-- Node10 -->
<g id="node10" class="node"><title>Node10</title>
<g id="a_node10"><a xlink:href="../../d8/dd3/lbaselib_8c.html#a07f71966c943cc9761ab129f64d4ac80" target="_top" xlink:title="luaB_collectgarbage">
<polygon fill="none" stroke="black" points="1514.5,-441.5 1514.5,-460.5 1616.5,-460.5 1616.5,-441.5 1514.5,-441.5"/>
<text text-anchor="middle" x="1565.5" y="-448.5" font-family="Helvetica,sans-Serif" font-size="10.00">luaB_collectgarbage</text>
</a>
</g>
</g>
<!-- Node9&#45;&gt;Node10 -->
<g id="edge9" class="edge"><title>Node9&#45;&gt;Node10</title>
<path fill="none" stroke="midnightblue" d="M1467.39,-451C1481.52,-451 1498.55,-451 1514.38,-451"/>
<polygon fill="midnightblue" stroke="midnightblue" points="1467.22,-447.5 1457.22,-451 1467.22,-454.5 1467.22,-447.5"/>
</g>
<!-- Node13 -->
<g id="node13" class="node"><title>Node13</title>
<g id="a_node13"><a xlink:href="../../dc/d9c/lgc_8h.html#af016fe72ab7e564d7d55e7e4fb659041" target="_top" xlink:title="luaC_changemode">
<polygon fill="none" stroke="black" points="1006,-408.5 1006,-427.5 1103,-427.5 1103,-408.5 1006,-408.5"/>
<text text-anchor="middle" x="1054.5" y="-415.5" font-family="Helvetica,sans-Serif" font-size="10.00">luaC_changemode</text>
</a>
</g>
</g>
<!-- Node12&#45;&gt;Node13 -->
<g id="edge12" class="edge"><title>Node12&#45;&gt;Node13</title>
<path fill="none" stroke="midnightblue" d="M980.204,-429.322C988.655,-428.017 997.413,-426.664 1005.81,-425.367"/>
<polygon fill="midnightblue" stroke="midnightblue" points="979.443,-425.898 970.095,-430.884 980.512,-432.816 979.443,-425.898"/>
</g>
<!-- Node14 -->
<g id="node14" class="node"><title>Node14</title>
<g id="a_node14"><a xlink:href="../../de/d27/lgc_8c.html#a87bb9d2ca4bed013c39258f8abd61689" target="_top" xlink:title="generationalcollection">
<polygon fill="none" stroke="black" points="1139,-517.5 1139,-536.5 1243,-536.5 1243,-517.5 1139,-517.5"/>
<text text-anchor="middle" x="1191" y="-524.5" font-family="Helvetica,sans-Serif" font-size="10.00">generationalcollection</text>
</a>
</g>
</g>
<!-- Node12&#45;&gt;Node14 -->
<g id="edge14" class="edge"><title>Node12&#45;&gt;Node14</title>
<path fill="none" stroke="midnightblue" d="M947.838,-453.909C962.231,-466.942 983.859,-484.322 1006,-494 1048.52,-512.587 1100.95,-520.706 1138.95,-524.252"/>
<polygon fill="midnightblue" stroke="midnightblue" points="949.95,-451.092 940.251,-446.829 945.174,-456.21 949.95,-451.092"/>
</g>
<!-- Node15 -->
<g id="node15" class="node"><title>Node15</title>
<g id="a_node15"><a xlink:href="../../dc/d9c/lgc_8h.html#aa0b753c3ed80e1eed0379ec58592c404" target="_top" xlink:title="luaC_fullgc">
<polygon fill="none" stroke="black" points="1023.5,-465.5 1023.5,-484.5 1085.5,-484.5 1085.5,-465.5 1023.5,-465.5"/>
<text text-anchor="middle" x="1054.5" y="-472.5" font-family="Helvetica,sans-Serif" font-size="10.00">luaC_fullgc</text>
</a>
</g>
</g>
<!-- Node12&#45;&gt;Node15 -->
<g id="edge16" class="edge"><title>Node12&#45;&gt;Node15</title>
<path fill="none" stroke="midnightblue" d="M971.225,-449.582C988.228,-454.835 1007.63,-460.829 1023.32,-465.677"/>
<polygon fill="midnightblue" stroke="midnightblue" points="972.126,-446.197 961.538,-446.589 970.059,-452.885 972.126,-446.197"/>
</g>
<!-- Node17 -->
<g id="node17" class="node"><title>Node17</title>
<g id="a_node17"><a xlink:href="../../d4/dfb/lstring_8h.html#a44d549eb0ace165927a896f37330e2cd" target="_top" xlink:title="luaS_resize">
<polygon fill="none" stroke="black" points="1021.5,-356.5 1021.5,-375.5 1087.5,-375.5 1087.5,-356.5 1021.5,-356.5"/>
<text text-anchor="middle" x="1054.5" y="-363.5" font-family="Helvetica,sans-Serif" font-size="10.00">luaS_resize</text>
</a>
</g>
</g>
<!-- Node12&#45;&gt;Node17 -->
<g id="edge20" class="edge"><title>Node12&#45;&gt;Node17</title>
<path fill="none" stroke="midnightblue" d="M955.75,-422.425C979.986,-408.435 1015.9,-387.702 1036.78,-375.65"/>
<polygon fill="midnightblue" stroke="midnightblue" points="953.999,-419.394 947.088,-427.425 957.499,-425.457 953.999,-419.394"/>
</g>
<!-- Node13&#45;&gt;Node9 -->
<g id="edge13" class="edge"><title>Node13&#45;&gt;Node9</title>
<path fill="none" stroke="midnightblue" d="M1113.13,-423.025C1198.77,-430.491 1355.62,-444.167 1412.6,-449.134"/>
<polygon fill="midnightblue" stroke="midnightblue" points="1113.32,-419.528 1103.05,-422.146 1112.71,-426.501 1113.32,-419.528"/>
</g>
<!-- Node14&#45;&gt;Node8 -->
<g id="edge15" class="edge"><title>Node14&#45;&gt;Node8</title>
<path fill="none" stroke="midnightblue" d="M1253.35,-527C1262,-527 1270.7,-527 1278.78,-527"/>
<polygon fill="midnightblue" stroke="midnightblue" points="1253.25,-523.5 1243.25,-527 1253.25,-530.5 1253.25,-523.5"/>
</g>
<!-- Node15&#45;&gt;Node9 -->
<g id="edge17" class="edge"><title>Node15&#45;&gt;Node9</title>
<path fill="none" stroke="midnightblue" d="M1095.67,-472.453C1175.54,-467.388 1351.83,-456.21 1412.78,-452.346"/>
<polygon fill="midnightblue" stroke="midnightblue" points="1095.28,-468.971 1085.52,-473.097 1095.72,-475.957 1095.28,-468.971"/>
</g>
<!-- Node15&#45;&gt;Node14 -->
<g id="edge18" class="edge"><title>Node15&#45;&gt;Node14</title>
<path fill="none" stroke="midnightblue" d="M1088.75,-488.315C1104.03,-494.389 1122.41,-501.631 1139,-508 1147.12,-511.115 1155.98,-514.445 1164.02,-517.433"/>
<polygon fill="midnightblue" stroke="midnightblue" points="1089.79,-484.962 1079.21,-484.513 1087.2,-491.465 1089.79,-484.962"/>
</g>
<!-- Node16 -->
<g id="node16" class="node"><title>Node16</title>
<g id="a_node16"><a xlink:href="../../d7/d3e/lmem_8h.html#ae7dc8a57fc5dbca825653a88a356a72d" target="_top" xlink:title="luaM_realloc_">
<polygon fill="none" stroke="black" points="1154,-479.5 1154,-498.5 1228,-498.5 1228,-479.5 1154,-479.5"/>
<text text-anchor="middle" x="1191" y="-486.5" font-family="Helvetica,sans-Serif" font-size="10.00">luaM_realloc_</text>
</a>
</g>
</g>
<!-- Node15&#45;&gt;Node16 -->
<g id="edge19" class="edge"><title>Node15&#45;&gt;Node16</title>
<path fill="none" stroke="midnightblue" d="M1095.81,-479.196C1114.2,-481.11 1135.82,-483.36 1153.7,-485.221"/>
<polygon fill="midnightblue" stroke="midnightblue" points="1095.99,-475.696 1085.68,-478.142 1095.27,-482.658 1095.99,-475.696"/>
</g>
<!-- Node18 -->
<g id="node18" class="node"><title>Node18</title>
<g id="a_node18"><a xlink:href="../../de/d27/lgc_8c.html#aace8516e609d7409e789e7b2c190b9c2" target="_top" xlink:title="checkSizes">
<polygon fill="none" stroke="black" points="1158.5,-289.5 1158.5,-308.5 1223.5,-308.5 1223.5,-289.5 1158.5,-289.5"/>
<text text-anchor="middle" x="1191" y="-296.5" font-family="Helvetica,sans-Serif" font-size="10.00">checkSizes</text>
</a>
</g>
</g>
<!-- Node17&#45;&gt;Node18 -->
<g id="edge21" class="edge"><title>Node17&#45;&gt;Node18</title>
<path fill="none" stroke="midnightblue" d="M1079.38,-350.862C1095.78,-340.82 1118.25,-327.747 1139,-318 1146.27,-314.585 1154.33,-311.343 1161.86,-308.536"/>
<polygon fill="midnightblue" stroke="midnightblue" points="1077.14,-348.132 1070.48,-356.376 1080.83,-354.082 1077.14,-348.132"/>
</g>
<!-- Node19 -->
<g id="node19" class="node"><title>Node19</title>
<g id="a_node19"><a xlink:href="../../dd/dca/lstate_8c.html#ab65e96a7498fd886f7223b92e91fd830" target="_top" xlink:title="f_luaopen">
<polygon fill="none" stroke="black" points="1161.5,-365.5 1161.5,-384.5 1220.5,-384.5 1220.5,-365.5 1161.5,-365.5"/>
<text text-anchor="middle" x="1191" y="-372.5" font-family="Helvetica,sans-Serif" font-size="10.00">f_luaopen</text>
</a>
</g>
</g>
<!-- Node17&#45;&gt;Node19 -->
<g id="edge23" class="edge"><title>Node17&#45;&gt;Node19</title>
<path fill="none" stroke="midnightblue" d="M1097.83,-368.832C1118.48,-370.214 1142.78,-371.841 1161.25,-373.076"/>
<polygon fill="midnightblue" stroke="midnightblue" points="1097.93,-365.331 1087.72,-368.156 1097.46,-372.316 1097.93,-365.331"/>
</g>
<!-- Node27 -->
<g id="node27" class="node"><title>Node27</title>
<g id="a_node27"><a xlink:href="../../d1/d2f/lstring_8c.html#a6e3c0fe3ba834ee00279a9df03f40fc4" target="_top" xlink:title="newshrstr">
<polygon fill="none" stroke="black" points="1162,-327.5 1162,-346.5 1220,-346.5 1220,-327.5 1162,-327.5"/>
<text text-anchor="middle" x="1191" y="-334.5" font-family="Helvetica,sans-Serif" font-size="10.00">newshrstr</text>
</a>
</g>
</g>
<!-- Node17&#45;&gt;Node27 -->
<g id="edge32" class="edge"><title>Node17&#45;&gt;Node27</title>
<path fill="none" stroke="midnightblue" d="M1097.61,-356.92C1118.48,-352.421 1143.12,-347.109 1161.7,-343.102"/>
<polygon fill="midnightblue" stroke="midnightblue" points="1096.75,-353.525 1087.72,-359.054 1098.23,-360.367 1096.75,-353.525"/>
</g>
<!-- Node18&#45;&gt;Node6 -->
<g id="edge22" class="edge"><title>Node18&#45;&gt;Node6</title>
<path fill="none" stroke="midnightblue" d="M1148.34,-307.306C1110.55,-315.439 1053.63,-329.194 1006,-347 942.746,-370.647 872.279,-409.449 840.999,-427.371"/>
<polygon fill="midnightblue" stroke="midnightblue" points="1149.41,-310.657 1158.47,-305.162 1147.96,-303.809 1149.41,-310.657"/>
</g>
<!-- Node20 -->
<g id="node20" class="node"><title>Node20</title>
<g id="a_node20"><a xlink:href="../../da/dd2/lua_8h.html#af722e4ac7fc0eba5920f59f0162c1b97" target="_top" xlink:title="lua_newstate">
<polygon fill="none" stroke="black" points="1282,-365.5 1282,-384.5 1356,-384.5 1356,-365.5 1282,-365.5"/>
<text text-anchor="middle" x="1319" y="-372.5" font-family="Helvetica,sans-Serif" font-size="10.00">lua_newstate</text>
</a>
</g>
</g>
<!-- Node19&#45;&gt;Node20 -->
<g id="edge24" class="edge"><title>Node19&#45;&gt;Node20</title>
<path fill="none" stroke="midnightblue" d="M1230.85,-375C1247.11,-375 1265.89,-375 1281.84,-375"/>
<polygon fill="midnightblue" stroke="midnightblue" points="1230.59,-371.5 1220.59,-375 1230.59,-378.5 1230.59,-371.5"/>
</g>
<!-- Node21 -->
<g id="node21" class="node"><title>Node21</title>
<g id="a_node21"><a xlink:href="../../da/d29/lauxlib_8h.html#a7d8712fcede90ae93d5a9a7b409c586e" target="_top" xlink:title="luaL_newstate">
<polygon fill="none" stroke="black" points="1395,-346.5 1395,-365.5 1475,-365.5 1475,-346.5 1395,-346.5"/>
<text text-anchor="middle" x="1435" y="-353.5" font-family="Helvetica,sans-Serif" font-size="10.00">luaL_newstate</text>
</a>
</g>
</g>
<!-- Node20&#45;&gt;Node21 -->
<g id="edge25" class="edge"><title>Node20&#45;&gt;Node21</title>
<path fill="none" stroke="midnightblue" d="M1366.11,-367.315C1375.56,-365.74 1385.42,-364.096 1394.61,-362.565"/>
<polygon fill="midnightblue" stroke="midnightblue" points="1365.36,-363.892 1356.07,-368.988 1366.51,-370.797 1365.36,-363.892"/>
</g>
<!-- Node26 -->
<g id="node26" class="node"><title>Node26</title>
<g id="a_node26"><a xlink:href="../../dd/dca/lstate_8c.html#a8a0fc0aca5367250347c6bb6a788f05f" target="_top" xlink:title="makeseed">
<polygon fill="none" stroke="black" points="1404.5,-384.5 1404.5,-403.5 1465.5,-403.5 1465.5,-384.5 1404.5,-384.5"/>
<text text-anchor="middle" x="1435" y="-391.5" font-family="Helvetica,sans-Serif" font-size="10.00">makeseed</text>
</a>
</g>
</g>
<!-- Node20&#45;&gt;Node26 -->
<g id="edge30" class="edge"><title>Node20&#45;&gt;Node26</title>
<path fill="none" stroke="midnightblue" d="M1366.33,-376.077C1381.46,-378.295 1397.64,-381.342 1410.38,-384.47"/>
<polygon fill="midnightblue" stroke="midnightblue" points="1366.45,-372.562 1356.07,-374.684 1365.51,-379.498 1366.45,-372.562"/>
</g>
<!-- Node22 -->
<g id="node22" class="node"><title>Node22</title>
<g id="a_node22"><a xlink:href="../../dc/de7/interface_kensho_lua_wrapper.html#a7d10aa0242861cdd109d3da9383882a2" target="_top" xlink:title="&#45;[KenshoLuaWrapper\l evaluate]">
<polygon fill="none" stroke="black" points="1511,-367 1511,-397 1620,-397 1620,-367 1511,-367"/>
<text text-anchor="start" x="1519" y="-385" font-family="Helvetica,sans-Serif" font-size="10.00">&#45;[KenshoLuaWrapper</text>
<text text-anchor="middle" x="1565.5" y="-374" font-family="Helvetica,sans-Serif" font-size="10.00"> evaluate]</text>
</a>
</g>
</g>
<!-- Node21&#45;&gt;Node22 -->
<g id="edge26" class="edge"><title>Node21&#45;&gt;Node22</title>
<path fill="none" stroke="midnightblue" d="M1485.24,-365.963C1493.61,-367.657 1502.34,-369.423 1510.82,-371.138"/>
<polygon fill="midnightblue" stroke="midnightblue" points="1485.75,-362.495 1475.25,-363.942 1484.36,-369.356 1485.75,-362.495"/>
</g>
<!-- Node23 -->
<g id="node23" class="node"><title>Node23</title>
<g id="a_node23"><a xlink:href="../../dc/de7/interface_kensho_lua_wrapper.html#af6db46358f8858a18b55388aa3af211d" target="_top" xlink:title="&#45;[KenshoLuaWrapper\l initWithKensho:context\l:code:]">
<polygon fill="none" stroke="black" points="1656,-441.5 1656,-482.5 1770,-482.5 1770,-441.5 1656,-441.5"/>
<text text-anchor="start" x="1664" y="-470.5" font-family="Helvetica,sans-Serif" font-size="10.00">&#45;[KenshoLuaWrapper</text>
<text text-anchor="start" x="1664" y="-459.5" font-family="Helvetica,sans-Serif" font-size="10.00"> initWithKensho:context</text>
<text text-anchor="middle" x="1713" y="-448.5" font-family="Helvetica,sans-Serif" font-size="10.00">:code:]</text>
</a>
</g>
</g>
<!-- Node22&#45;&gt;Node23 -->
<g id="edge27" class="edge"><title>Node22&#45;&gt;Node23</title>
<path fill="none" stroke="midnightblue" d="M1602.85,-401.986C1624.73,-414.016 1652.53,-429.301 1674.6,-441.435"/>
<polygon fill="midnightblue" stroke="midnightblue" points="1604.32,-398.798 1593.87,-397.047 1600.94,-404.932 1604.32,-398.798"/>
</g>
<!-- Node24 -->
<g id="node24" class="node"><title>Node24</title>
<g id="a_node24"><a xlink:href="../../dc/de7/interface_kensho_lua_wrapper.html#a5555e0979799446611baee70104555c6" target="_top" xlink:title="&#45;[KenshoLuaWrapper\l evaluate:]">
<polygon fill="none" stroke="red" points="1658.5,-392 1658.5,-422 1767.5,-422 1767.5,-392 1658.5,-392"/>
<text text-anchor="start" x="1666.5" y="-410" font-family="Helvetica,sans-Serif" font-size="10.00">&#45;[KenshoLuaWrapper</text>
<text text-anchor="middle" x="1713" y="-399" font-family="Helvetica,sans-Serif" font-size="10.00"> evaluate:]</text>
</a>
</g>
</g>
<!-- Node22&#45;&gt;Node24 -->
<g id="edge28" class="edge"><title>Node22&#45;&gt;Node24</title>
<path fill="none" stroke="midnightblue" d="M1630.34,-392.969C1639.72,-394.581 1649.31,-396.228 1658.46,-397.8"/>
<polygon fill="midnightblue" stroke="midnightblue" points="1630.71,-389.482 1620.27,-391.238 1629.53,-396.381 1630.71,-389.482"/>
</g>
<!-- Node25 -->
<g id="node25" class="node"><title>Node25</title>
<g id="a_node25"><a xlink:href="../../dc/de7/interface_kensho_lua_wrapper.html#a0bb5e125d727942726d707f8b59009dc" target="_top" xlink:title="&#45;[KenshoLuaWrapper\l observableUpdated:]">
<polygon fill="none" stroke="black" points="1658.5,-343 1658.5,-373 1767.5,-373 1767.5,-343 1658.5,-343"/>
<text text-anchor="start" x="1666.5" y="-361" font-family="Helvetica,sans-Serif" font-size="10.00">&#45;[KenshoLuaWrapper</text>
<text text-anchor="middle" x="1713" y="-350" font-family="Helvetica,sans-Serif" font-size="10.00"> observableUpdated:]</text>
</a>
</g>
</g>
<!-- Node22&#45;&gt;Node25 -->
<g id="edge29" class="edge"><title>Node22&#45;&gt;Node25</title>
<path fill="none" stroke="midnightblue" d="M1630.34,-371.47C1639.72,-369.922 1649.31,-368.341 1658.46,-366.832"/>
<polygon fill="midnightblue" stroke="midnightblue" points="1629.56,-368.051 1620.27,-373.131 1630.7,-374.957 1629.56,-368.051"/>
</g>
<!-- Node26&#45;&gt;Node20 -->
<g id="edge31" class="edge"><title>Node26&#45;&gt;Node20</title>
<path fill="none" stroke="midnightblue" d="M1394.16,-393.83C1377.29,-391.584 1358.2,-388.111 1343.62,-384.53"/>
<polygon fill="midnightblue" stroke="midnightblue" points="1393.97,-397.333 1404.32,-395.06 1394.81,-390.383 1393.97,-397.333"/>
</g>
<!-- Node28 -->
<g id="node28" class="node"><title>Node28</title>
<g id="a_node28"><a xlink:href="../../d1/d2f/lstring_8c.html#a9b2c32c59a280de24f20df1c7f0433a1" target="_top" xlink:title="internshrstr">
<polygon fill="none" stroke="black" points="1288.5,-234.5 1288.5,-253.5 1349.5,-253.5 1349.5,-234.5 1288.5,-234.5"/>
<text text-anchor="middle" x="1319" y="-241.5" font-family="Helvetica,sans-Serif" font-size="10.00">internshrstr</text>
</a>
</g>
</g>
<!-- Node27&#45;&gt;Node28 -->
<g id="edge33" class="edge"><title>Node27&#45;&gt;Node28</title>
<path fill="none" stroke="midnightblue" d="M1229.58,-325.096C1234.25,-323.017 1238.84,-320.654 1243,-318 1271.38,-299.904 1297.71,-269.593 1310.27,-253.974"/>
<polygon fill="midnightblue" stroke="midnightblue" points="1227.97,-321.974 1220.01,-328.968 1230.59,-328.464 1227.97,-321.974"/>
</g>
<!-- Node29 -->
<g id="node29" class="node"><title>Node29</title>
<g id="a_node29"><a xlink:href="../../d4/dfb/lstring_8h.html#a248e72694b9116b07b2e7f4a9a3a5331" target="_top" xlink:title="luaS_newlstr">
<polygon fill="none" stroke="black" points="1399.5,-171.5 1399.5,-190.5 1470.5,-190.5 1470.5,-171.5 1399.5,-171.5"/>
<text text-anchor="middle" x="1435" y="-178.5" font-family="Helvetica,sans-Serif" font-size="10.00">luaS_newlstr</text>
</a>
</g>
</g>
<!-- Node28&#45;&gt;Node29 -->
<g id="edge34" class="edge"><title>Node28&#45;&gt;Node29</title>
<path fill="none" stroke="midnightblue" d="M1346.28,-229.478C1367.85,-217.557 1397.79,-201.009 1416.52,-190.658"/>
<polygon fill="midnightblue" stroke="midnightblue" points="1344.37,-226.531 1337.31,-234.432 1347.76,-232.658 1344.37,-226.531"/>
</g>
<!-- Node30 -->
<g id="node30" class="node"><title>Node30</title>
<g id="a_node30"><a xlink:href="../../da/dd2/lua_8h.html#a4ab8500ade8e1d8a87b1df1baf19b179" target="_top" xlink:title="lua_pushlstring">
<polygon fill="none" stroke="black" points="1525.5,-190.5 1525.5,-209.5 1605.5,-209.5 1605.5,-190.5 1525.5,-190.5"/>
<text text-anchor="middle" x="1565.5" y="-197.5" font-family="Helvetica,sans-Serif" font-size="10.00">lua_pushlstring</text>
</a>
</g>
</g>
<!-- Node29&#45;&gt;Node30 -->
<g id="edge35" class="edge"><title>Node29&#45;&gt;Node30</title>
<path fill="none" stroke="midnightblue" d="M1480.96,-187.648C1495.36,-189.778 1511.19,-192.118 1525.16,-194.183"/>
<polygon fill="midnightblue" stroke="midnightblue" points="1481.18,-184.142 1470.77,-186.142 1480.15,-191.067 1481.18,-184.142"/>
</g>
<!-- Node39 -->
<g id="node39" class="node"><title>Node39</title>
<g id="a_node39"><a xlink:href="../../da/dd2/lua_8h.html#a4eba0457df5bafff4d44071d1d8080b6" target="_top" xlink:title="lua_concat">
<polygon fill="none" stroke="red" points="1682,-304.5 1682,-323.5 1744,-323.5 1744,-304.5 1682,-304.5"/>
<text text-anchor="middle" x="1713" y="-311.5" font-family="Helvetica,sans-Serif" font-size="10.00">lua_concat</text>
</a>
</g>
</g>
<!-- Node29&#45;&gt;Node39 -->
<g id="edge46" class="edge"><title>Node29&#45;&gt;Node39</title>
<path fill="none" stroke="midnightblue" d="M1449.15,-198.923C1462.77,-216.232 1485.59,-241.971 1511,-257 1540.03,-274.174 1632.98,-296.482 1681.65,-307.398"/>
<polygon fill="midnightblue" stroke="midnightblue" points="1451.76,-196.564 1442.91,-190.741 1446.19,-200.813 1451.76,-196.564"/>
</g>
<!-- Node41 -->
<g id="node41" class="node"><title>Node41</title>
<g id="a_node41"><a xlink:href="../../dd/d05/lcode_8h.html#a4f928250a0f4007764b4d3777651f617" target="_top" xlink:title="luaK_numberK">
<polygon fill="none" stroke="red" points="1525.5,-152.5 1525.5,-171.5 1605.5,-171.5 1605.5,-152.5 1525.5,-152.5"/>
<text text-anchor="middle" x="1565.5" y="-159.5" font-family="Helvetica,sans-Serif" font-size="10.00">luaK_numberK</text>
</a>
</g>
</g>
<!-- Node29&#45;&gt;Node41 -->
<g id="edge48" class="edge"><title>Node29&#45;&gt;Node41</title>
<path fill="none" stroke="midnightblue" d="M1480.96,-174.352C1495.36,-172.222 1511.19,-169.882 1525.16,-167.817"/>
<polygon fill="midnightblue" stroke="midnightblue" points="1480.15,-170.933 1470.77,-175.858 1481.18,-177.858 1480.15,-170.933"/>
</g>
<!-- Node42 -->
<g id="node42" class="node"><title>Node42</title>
<g id="a_node42"><a xlink:href="../../d8/d27/llex_8h.html#aa6e79179f823cf156f61899a09239ca6" target="_top" xlink:title="luaX_newstring">
<polygon fill="none" stroke="red" points="1525,-114.5 1525,-133.5 1606,-133.5 1606,-114.5 1525,-114.5"/>
<text text-anchor="middle" x="1565.5" y="-121.5" font-family="Helvetica,sans-Serif" font-size="10.00">luaX_newstring</text>
</a>
</g>
</g>
<!-- Node29&#45;&gt;Node42 -->
<g id="edge49" class="edge"><title>Node29&#45;&gt;Node42</title>
<path fill="none" stroke="midnightblue" d="M1462.44,-166.56C1476.63,-159.079 1494.54,-150.058 1511,-143 1518.79,-139.659 1527.38,-136.419 1535.36,-133.588"/>
<polygon fill="midnightblue" stroke="midnightblue" points="1460.45,-163.655 1453.28,-171.45 1463.75,-169.831 1460.45,-163.655"/>
</g>
<!-- Node43 -->
<g id="node43" class="node"><title>Node43</title>
<g id="a_node43"><a xlink:href="../../d7/d9b/lobject_8c.html#aa65db03553a5abd73e466d307bb17a37" target="_top" xlink:title="pushstr">
<polygon fill="none" stroke="red" points="1541.5,-76.5 1541.5,-95.5 1589.5,-95.5 1589.5,-76.5 1541.5,-76.5"/>
<text text-anchor="middle" x="1565.5" y="-83.5" font-family="Helvetica,sans-Serif" font-size="10.00">pushstr</text>
</a>
</g>
</g>
<!-- Node29&#45;&gt;Node43 -->
<g id="edge50" class="edge"><title>Node29&#45;&gt;Node43</title>
<path fill="none" stroke="midnightblue" d="M1449.37,-163.427C1463.15,-146.385 1486.09,-120.846 1511,-105 1520.23,-99.1271 1531.52,-94.775 1541.34,-91.729"/>
<polygon fill="midnightblue" stroke="midnightblue" points="1446.47,-161.447 1443.03,-171.468 1451.97,-165.779 1446.47,-161.447"/>
</g>
<!-- Node44 -->
<g id="node44" class="node"><title>Node44</title>
<g id="a_node44"><a xlink:href="../../d4/dfb/lstring_8h.html#a6929da8cfde3e74a0d51a6467909ef9d" target="_top" xlink:title="luaS_new">
<polygon fill="none" stroke="red" points="1535.5,-38.5 1535.5,-57.5 1595.5,-57.5 1595.5,-38.5 1535.5,-38.5"/>
<text text-anchor="middle" x="1565.5" y="-45.5" font-family="Helvetica,sans-Serif" font-size="10.00">luaS_new</text>
</a>
</g>
</g>
<!-- Node29&#45;&gt;Node44 -->
<g id="edge51" class="edge"><title>Node29&#45;&gt;Node44</title>
<path fill="none" stroke="midnightblue" d="M1443.82,-162.004C1455.1,-136.855 1478.23,-92.699 1511,-67 1518.06,-61.4648 1526.86,-57.464 1535.27,-54.6061"/>
<polygon fill="midnightblue" stroke="midnightblue" points="1440.6,-160.651 1439.84,-171.219 1447.02,-163.427 1440.6,-160.651"/>
</g>
<!-- Node45 -->
<g id="node45" class="node"><title>Node45</title>
<g id="a_node45"><a xlink:href="../../de/d2f/lundump_8c.html#abfe7dabe70bd14e27d54d3cedc6cb70a" target="_top" xlink:title="LoadString">
<polygon fill="none" stroke="red" points="1534.5,-0.5 1534.5,-19.5 1596.5,-19.5 1596.5,-0.5 1534.5,-0.5"/>
<text text-anchor="middle" x="1565.5" y="-7.5" font-family="Helvetica,sans-Serif" font-size="10.00">LoadString</text>
</a>
</g>
</g>
<!-- Node29&#45;&gt;Node45 -->
<g id="edge52" class="edge"><title>Node29&#45;&gt;Node45</title>
<path fill="none" stroke="midnightblue" d="M1440.57,-161.311C1449.03,-129.173 1470.09,-65.3829 1511,-29 1517.56,-23.1707 1526.02,-19.0982 1534.27,-16.2654"/>
<polygon fill="midnightblue" stroke="midnightblue" points="1437.12,-160.713 1438.1,-171.262 1443.91,-162.403 1437.12,-160.713"/>
</g>
<!-- Node46 -->
<g id="node46" class="node"><title>Node46</title>
<g id="a_node46"><a xlink:href="../../d5/dcd/lvm_8h.html#abcde68a7697547dc2c7f1d0e6734e611" target="_top" xlink:title="luaV_tostring">
<polygon fill="none" stroke="red" points="1530,-304.5 1530,-323.5 1601,-323.5 1601,-304.5 1530,-304.5"/>
<text text-anchor="middle" x="1565.5" y="-311.5" font-family="Helvetica,sans-Serif" font-size="10.00">luaV_tostring</text>
</a>
</g>
</g>
<!-- Node29&#45;&gt;Node46 -->
<g id="edge53" class="edge"><title>Node29&#45;&gt;Node46</title>
<path fill="none" stroke="midnightblue" d="M1444.86,-199.816C1456.89,-223.604 1480.43,-264.518 1511,-290 1518.19,-295.997 1527.13,-300.783 1535.62,-304.454"/>
<polygon fill="midnightblue" stroke="midnightblue" points="1447.97,-198.204 1440.43,-190.765 1441.68,-201.285 1447.97,-198.204"/>
</g>
<!-- Node47 -->
<g id="node47" class="node"><title>Node47</title>
<g id="a_node47"><a xlink:href="../../d5/dcd/lvm_8h.html#aee84bfc563cb4bdd21a013218a289aa7" target="_top" xlink:title="luaV_concat">
<polygon fill="none" stroke="red" points="1531,-228.5 1531,-247.5 1600,-247.5 1600,-228.5 1531,-228.5"/>
<text text-anchor="middle" x="1565.5" y="-235.5" font-family="Helvetica,sans-Serif" font-size="10.00">luaV_concat</text>
</a>
</g>
</g>
<!-- Node29&#45;&gt;Node47 -->
<g id="edge54" class="edge"><title>Node29&#45;&gt;Node47</title>
<path fill="none" stroke="midnightblue" d="M1462.44,-195.44C1476.63,-202.921 1494.54,-211.942 1511,-219 1518.79,-222.341 1527.38,-225.581 1535.36,-228.412"/>
<polygon fill="midnightblue" stroke="midnightblue" points="1463.75,-192.169 1453.28,-190.55 1460.45,-198.345 1463.75,-192.169"/>
</g>
<!-- Node31 -->
<g id="node31" class="node"><title>Node31</title>
<g id="a_node31"><a xlink:href="../../da/d29/lauxlib_8h.html#aac5dfab9ba0ced4f5ae3b22aa35faffe" target="_top" xlink:title="luaL_pushresult">
<polygon fill="none" stroke="red" points="1671.5,-190.5 1671.5,-209.5 1754.5,-209.5 1754.5,-190.5 1671.5,-190.5"/>
<text text-anchor="middle" x="1713" y="-197.5" font-family="Helvetica,sans-Serif" font-size="10.00">luaL_pushresult</text>
</a>
</g>
</g>
<!-- Node30&#45;&gt;Node31 -->
<g id="edge36" class="edge"><title>Node30&#45;&gt;Node31</title>
<path fill="none" stroke="midnightblue" d="M1615.92,-200C1633.96,-200 1654.14,-200 1671.33,-200"/>
<polygon fill="midnightblue" stroke="midnightblue" points="1615.87,-196.5 1605.87,-200 1615.87,-203.5 1615.87,-196.5"/>
</g>
<!-- Node32 -->
<g id="node32" class="node"><title>Node32</title>
<g id="a_node32"><a xlink:href="../../de/df3/liolib_8c.html#ace61fce0bdea311d6d7c2206881165c7" target="_top" xlink:title="test_eof">
<polygon fill="none" stroke="red" points="1688,-152.5 1688,-171.5 1738,-171.5 1738,-152.5 1688,-152.5"/>
<text text-anchor="middle" x="1713" y="-159.5" font-family="Helvetica,sans-Serif" font-size="10.00">test_eof</text>
</a>
</g>
</g>
<!-- Node30&#45;&gt;Node32 -->
<g id="edge37" class="edge"><title>Node30&#45;&gt;Node32</title>
<path fill="none" stroke="midnightblue" d="M1613.16,-187.815C1637.93,-181.343 1667.37,-173.656 1687.64,-168.363"/>
<polygon fill="midnightblue" stroke="midnightblue" points="1612.01,-184.498 1603.22,-190.411 1613.78,-191.27 1612.01,-184.498"/>
</g>
<!-- Node33 -->
<g id="node33" class="node"><title>Node33</title>
<g id="a_node33"><a xlink:href="../../d2/d82/loadlib_8c.html#aa1ea5ee1b54a06650a887c4ee05a8547" target="_top" xlink:title="pushnexttemplate">
<polygon fill="none" stroke="red" points="1667,-114.5 1667,-133.5 1759,-133.5 1759,-114.5 1667,-114.5"/>
<text text-anchor="middle" x="1713" y="-121.5" font-family="Helvetica,sans-Serif" font-size="10.00">pushnexttemplate</text>
</a>
</g>
</g>
<!-- Node30&#45;&gt;Node33 -->
<g id="edge38" class="edge"><title>Node30&#45;&gt;Node33</title>
<path fill="none" stroke="midnightblue" d="M1610.21,-186.468C1613.62,-184.818 1616.93,-182.999 1620,-181 1639.5,-168.312 1636.41,-155.55 1656,-143 1661.88,-139.234 1668.59,-136.128 1675.27,-133.598"/>
<polygon fill="midnightblue" stroke="midnightblue" points="1608.81,-183.257 1601.03,-190.444 1611.6,-189.68 1608.81,-183.257"/>
</g>
<!-- Node34 -->
<g id="node34" class="node"><title>Node34</title>
<g id="a_node34"><a xlink:href="../../d2/d82/loadlib_8c.html#a91ac5b5231cf039af46226806dcc3884" target="_top" xlink:title="loadfunc">
<polygon fill="none" stroke="red" points="1687,-76.5 1687,-95.5 1739,-95.5 1739,-76.5 1687,-76.5"/>
<text text-anchor="middle" x="1713" y="-83.5" font-family="Helvetica,sans-Serif" font-size="10.00">loadfunc</text>
</a>
</g>
</g>
<!-- Node30&#45;&gt;Node34 -->
<g id="edge39" class="edge"><title>Node30&#45;&gt;Node34</title>
<path fill="none" stroke="midnightblue" d="M1613.9,-185.678C1616.06,-184.261 1618.11,-182.706 1620,-181 1647.73,-155.941 1628.09,-129.862 1656,-105 1664.59,-97.3512 1676.38,-92.7584 1686.93,-90.0116"/>
<polygon fill="midnightblue" stroke="midnightblue" points="1612.21,-182.614 1605.12,-190.489 1615.57,-188.753 1612.21,-182.614"/>
</g>
<!-- Node35 -->
<g id="node35" class="node"><title>Node35</title>
<g id="a_node35"><a xlink:href="../../d2/d82/loadlib_8c.html#a1ec05cd98a045c271aeda9f9c6041e1c" target="_top" xlink:title="searcher_Croot">
<polygon fill="none" stroke="red" points="1806,-57.5 1806,-76.5 1886,-76.5 1886,-57.5 1806,-57.5"/>
<text text-anchor="middle" x="1846" y="-64.5" font-family="Helvetica,sans-Serif" font-size="10.00">searcher_Croot</text>
</a>
</g>
</g>
<!-- Node30&#45;&gt;Node35 -->
<g id="edge41" class="edge"><title>Node30&#45;&gt;Node35</title>
<path fill="none" stroke="midnightblue" d="M1614.64,-185.658C1616.56,-184.248 1618.36,-182.7 1620,-181 1656.9,-142.771 1613.14,-98.4085 1656,-67 1703.24,-32.3773 1776.49,-46.0371 1816.51,-57.4807"/>
<polygon fill="midnightblue" stroke="midnightblue" points="1612.44,-182.893 1605.61,-190.996 1616,-188.919 1612.44,-182.893"/>
</g>
<!-- Node36 -->
<g id="node36" class="node"><title>Node36</title>
<g id="a_node36"><a xlink:href="../../dc/d77/lstrlib_8c.html#a039b391d5f43533a0ce750c5e40d7752" target="_top" xlink:title="str_sub">
<polygon fill="none" stroke="black" points="1689,-0.5 1689,-19.5 1737,-19.5 1737,-0.5 1689,-0.5"/>
<text text-anchor="middle" x="1713" y="-7.5" font-family="Helvetica,sans-Serif" font-size="10.00">str_sub</text>
</a>
</g>
</g>
<!-- Node30&#45;&gt;Node36 -->
<g id="edge42" class="edge"><title>Node30&#45;&gt;Node36</title>
<path fill="none" stroke="midnightblue" d="M1614.24,-186.197C1616.32,-184.645 1618.27,-182.92 1620,-181 1665.1,-131.095 1612.51,-85.3145 1656,-34 1664.34,-24.1554 1677.45,-18.2432 1688.89,-14.7513"/>
<polygon fill="midnightblue" stroke="midnightblue" points="1612.38,-183.228 1605.59,-191.358 1615.97,-189.239 1612.38,-183.228"/>
</g>
<!-- Node37 -->
<g id="node37" class="node"><title>Node37</title>
<g id="a_node37"><a xlink:href="../../dc/d77/lstrlib_8c.html#a24a14b4e6e90bac4610dd334bb0b51b6" target="_top" xlink:title="push_onecapture">
<polygon fill="none" stroke="red" points="1667.5,-266.5 1667.5,-285.5 1758.5,-285.5 1758.5,-266.5 1667.5,-266.5"/>
<text text-anchor="middle" x="1713" y="-273.5" font-family="Helvetica,sans-Serif" font-size="10.00">push_onecapture</text>
</a>
</g>
</g>
<!-- Node30&#45;&gt;Node37 -->
<g id="edge43" class="edge"><title>Node30&#45;&gt;Node37</title>
<path fill="none" stroke="midnightblue" d="M1609.3,-213.423C1613.01,-215.114 1616.63,-216.972 1620,-219 1638.6,-230.189 1637.77,-240.225 1656,-252 1664.8,-257.681 1675.16,-262.557 1684.57,-266.402"/>
<polygon fill="midnightblue" stroke="midnightblue" points="1610.56,-210.156 1599.98,-209.56 1607.88,-216.623 1610.56,-210.156"/>
</g>
<!-- Node38 -->
<g id="node38" class="node"><title>Node38</title>
<g id="a_node38"><a xlink:href="../../dc/d77/lstrlib_8c.html#ad24cfa73e5ad25ec99a1b48f0916471e" target="_top" xlink:title="add_value">
<polygon fill="none" stroke="red" points="1815,-247.5 1815,-266.5 1877,-266.5 1877,-247.5 1815,-247.5"/>
<text text-anchor="middle" x="1846" y="-254.5" font-family="Helvetica,sans-Serif" font-size="10.00">add_value</text>
</a>
</g>
</g>
<!-- Node30&#45;&gt;Node38 -->
<g id="edge45" class="edge"><title>Node30&#45;&gt;Node38</title>
<path fill="none" stroke="midnightblue" d="M1615.5,-210.502C1628.65,-213.292 1642.86,-216.284 1656,-219 1712.05,-230.583 1777.55,-243.647 1814.86,-251.045"/>
<polygon fill="midnightblue" stroke="midnightblue" points="1616.2,-207.072 1605.69,-208.415 1614.74,-213.919 1616.2,-207.072"/>
</g>
<!-- Node34&#45;&gt;Node35 -->
<g id="edge40" class="edge"><title>Node34&#45;&gt;Node35</title>
<path fill="none" stroke="midnightblue" d="M1749.58,-80.8394C1767,-78.3124 1788.02,-75.2637 1805.9,-72.6717"/>
<polygon fill="midnightblue" stroke="midnightblue" points="1748.65,-77.4374 1739.26,-82.3366 1749.66,-84.3649 1748.65,-77.4374"/>
</g>
<!-- Node37&#45;&gt;Node38 -->
<g id="edge44" class="edge"><title>Node37&#45;&gt;Node38</title>
<path fill="none" stroke="midnightblue" d="M1768.91,-268.037C1784.65,-265.752 1801.24,-263.346 1814.9,-261.366"/>
<polygon fill="midnightblue" stroke="midnightblue" points="1768.11,-264.615 1758.72,-269.514 1769.12,-271.543 1768.11,-264.615"/>
</g>
<!-- Node40 -->
<g id="node40" class="node"><title>Node40</title>
<g id="a_node40"><a xlink:href="../../d0/d56/lauxlib_8c.html#a36c8f149b779f8c9a5c042ea9784d80a" target="_top" xlink:title="findfield">
<polygon fill="none" stroke="red" points="1822.5,-304.5 1822.5,-323.5 1869.5,-323.5 1869.5,-304.5 1822.5,-304.5"/>
<text text-anchor="middle" x="1846" y="-311.5" font-family="Helvetica,sans-Serif" font-size="10.00">findfield</text>
</a>
</g>
</g>
<!-- Node39&#45;&gt;Node40 -->
<g id="edge47" class="edge"><title>Node39&#45;&gt;Node40</title>
<path fill="none" stroke="midnightblue" d="M1754.3,-314C1776.7,-314 1803.74,-314 1822.44,-314"/>
<polygon fill="midnightblue" stroke="midnightblue" points="1754.05,-310.5 1744.05,-314 1754.05,-317.5 1754.05,-310.5"/>
</g>
<!-- Node47&#45;&gt;Node39 -->
<g id="edge55" class="edge"><title>Node47&#45;&gt;Node39</title>
<path fill="none" stroke="midnightblue" d="M1601.36,-251.684C1607.76,-254.734 1614.23,-258.204 1620,-262 1638.13,-273.928 1637.32,-283.943 1656,-295 1663.95,-299.707 1673.23,-303.453 1681.93,-306.331"/>
<polygon fill="midnightblue" stroke="midnightblue" points="1602.7,-248.445 1592.14,-247.527 1599.82,-254.827 1602.7,-248.445"/>
</g>
<!-- Node48&#45;&gt;Node5 -->
<g id="edge57" class="edge"><title>Node48&#45;&gt;Node5</title>
<path fill="none" stroke="midnightblue" d="M656.933,-528.226C663.929,-524.996 671.266,-521.478 678,-518 692.223,-510.653 707.937,-501.473 719.257,-494.661"/>
<polygon fill="midnightblue" stroke="midnightblue" points="655.351,-525.1 647.693,-532.422 658.246,-531.474 655.351,-525.1"/>
</g>
<!-- Node49&#45;&gt;Node50 -->
<g id="edge59" class="edge"><title>Node49&#45;&gt;Node50</title>
<path fill="none" stroke="midnightblue" d="M541.545,-440.68C558.164,-445.815 577.032,-451.644 592.472,-456.414"/>
<polygon fill="midnightblue" stroke="midnightblue" points="542.126,-437.197 531.538,-437.589 540.059,-443.885 542.126,-437.197"/>
</g>
<!-- Node50&#45;&gt;Node5 -->
<g id="edge60" class="edge"><title>Node50&#45;&gt;Node5</title>
<path fill="none" stroke="midnightblue" d="M675.798,-474.728C689.229,-477.058 703.019,-479.451 713.908,-481.34"/>
<polygon fill="midnightblue" stroke="midnightblue" points="676.103,-471.228 665.652,-472.967 674.906,-478.125 676.103,-471.228"/>
</g>
</g>
</svg>
