<?xml version="1.0" encoding="UTF-8" standalone="no"?>
<!DOCTYPE svg PUBLIC "-//W3C//DTD SVG 1.1//EN"
 "http://www.w3.org/Graphics/SVG/1.1/DTD/svg11.dtd">
<!-- Generated by graphviz version 2.38.0 (20140413.2041)
 -->
<!-- Title: reallymarkobject Pages: 1 -->
<svg width="2060pt" height="488pt"
 viewBox="0.00 0.00 2060.00 488.00" xmlns="http://www.w3.org/2000/svg" xmlns:xlink="http://www.w3.org/1999/xlink">
<g id="graph0" class="graph" transform="scale(1 1) rotate(0) translate(4 484)">
<title>reallymarkobject</title>
<!-- Node1 -->
<g id="node1" class="node"><title>Node1</title>
<polygon fill="#bfbfbf" stroke="black" points="0,-190.5 0,-209.5 84,-209.5 84,-190.5 0,-190.5"/>
<text text-anchor="middle" x="42" y="-197.5" font-family="Helvetica,sans-Serif" font-size="10.00">reallymarkobject</text>
</g>
<!-- Node2 -->
<g id="node2" class="node"><title>Node2</title>
<g id="a_node2"><a xlink:href="../../dc/d9c/lgc_8h.html#ac5106ee2a18cde8bc3bd92e5891ad8e5" target="_top" xlink:title="luaC_barrier_">
<polygon fill="none" stroke="black" points="132.5,-228.5 132.5,-247.5 205.5,-247.5 205.5,-228.5 132.5,-228.5"/>
<text text-anchor="middle" x="169" y="-235.5" font-family="Helvetica,sans-Serif" font-size="10.00">luaC_barrier_</text>
</a>
</g>
</g>
<!-- Node1&#45;&gt;Node2 -->
<g id="edge1" class="edge"><title>Node1&#45;&gt;Node2</title>
<path fill="none" stroke="midnightblue" d="M84.2345,-212.535C101.239,-217.705 120.629,-223.599 136.467,-228.414"/>
<polygon fill="midnightblue" stroke="midnightblue" points="85.1285,-209.149 74.5428,-209.589 83.0924,-215.846 85.1285,-209.149"/>
</g>
<!-- Node3 -->
<g id="node3" class="node"><title>Node3</title>
<g id="a_node3"><a xlink:href="../../de/d27/lgc_8c.html#a593b23b5c0d2d02402e9b5de00bfb141" target="_top" xlink:title="markbeingfnz">
<polygon fill="none" stroke="black" points="731.5,-114.5 731.5,-133.5 804.5,-133.5 804.5,-114.5 731.5,-114.5"/>
<text text-anchor="middle" x="768" y="-121.5" font-family="Helvetica,sans-Serif" font-size="10.00">markbeingfnz</text>
</a>
</g>
</g>
<!-- Node1&#45;&gt;Node3 -->
<g id="edge2" class="edge"><title>Node1&#45;&gt;Node3</title>
<path fill="none" stroke="midnightblue" d="M69.8448,-185.846C114.115,-163.86 205.781,-124 288.5,-124 288.5,-124 288.5,-124 514,-124 591.525,-124 682.413,-124 731.386,-124"/>
<polygon fill="midnightblue" stroke="midnightblue" points="68.2328,-182.739 60.8875,-190.375 71.391,-188.986 68.2328,-182.739"/>
</g>
<!-- Node44 -->
<g id="node44" class="node"><title>Node44</title>
<g id="a_node44"><a xlink:href="../../de/d27/lgc_8c.html#afc8628fcce35645820a25730e822ecde" target="_top" xlink:title="traverseephemeron">
<polygon fill="none" stroke="black" points="120,-190.5 120,-209.5 218,-209.5 218,-190.5 120,-190.5"/>
<text text-anchor="middle" x="169" y="-197.5" font-family="Helvetica,sans-Serif" font-size="10.00">traverseephemeron</text>
</a>
</g>
</g>
<!-- Node1&#45;&gt;Node44 -->
<g id="edge52" class="edge"><title>Node1&#45;&gt;Node44</title>
<path fill="none" stroke="midnightblue" d="M94.367,-200C102.788,-200 111.488,-200 119.828,-200"/>
<polygon fill="midnightblue" stroke="midnightblue" points="94.2761,-196.5 84.2761,-200 94.2761,-203.5 94.2761,-196.5"/>
</g>
<!-- Node4 -->
<g id="node4" class="node"><title>Node4</title>
<g id="a_node4"><a xlink:href="../../de/d27/lgc_8c.html#aeeb04d4803ad9d53a05a8605130a31d0" target="_top" xlink:title="atomic">
<polygon fill="none" stroke="black" points="862.5,-190.5 862.5,-209.5 906.5,-209.5 906.5,-190.5 862.5,-190.5"/>
<text text-anchor="middle" x="884.5" y="-197.5" font-family="Helvetica,sans-Serif" font-size="10.00">atomic</text>
</a>
</g>
</g>
<!-- Node3&#45;&gt;Node4 -->
<g id="edge3" class="edge"><title>Node3&#45;&gt;Node4</title>
<path fill="none" stroke="midnightblue" d="M791.989,-139.259C815.014,-154.542 849.735,-177.588 869.116,-190.453"/>
<polygon fill="midnightblue" stroke="midnightblue" points="793.769,-136.24 783.502,-133.625 789.898,-142.072 793.769,-136.24"/>
</g>
<!-- Node43 -->
<g id="node43" class="node"><title>Node43</title>
<g id="a_node43"><a xlink:href="../../de/d27/lgc_8c.html#abc346fb7129981227c874ba0e22a480f" target="_top" xlink:title="restartcollection">
<polygon fill="none" stroke="black" points="845,-114.5 845,-133.5 924,-133.5 924,-114.5 845,-114.5"/>
<text text-anchor="middle" x="884.5" y="-121.5" font-family="Helvetica,sans-Serif" font-size="10.00">restartcollection</text>
</a>
</g>
</g>
<!-- Node3&#45;&gt;Node43 -->
<g id="edge50" class="edge"><title>Node3&#45;&gt;Node43</title>
<path fill="none" stroke="midnightblue" d="M814.732,-124C824.673,-124 835.097,-124 844.738,-124"/>
<polygon fill="midnightblue" stroke="midnightblue" points="814.601,-120.5 804.601,-124 814.601,-127.5 814.601,-120.5"/>
</g>
<!-- Node5 -->
<g id="node5" class="node"><title>Node5</title>
<g id="a_node5"><a xlink:href="../../de/d27/lgc_8c.html#ae34e22198155f5d365fe500d3735c150" target="_top" xlink:title="singlestep">
<polygon fill="none" stroke="black" points="960,-152.5 960,-171.5 1019,-171.5 1019,-152.5 960,-152.5"/>
<text text-anchor="middle" x="989.5" y="-159.5" font-family="Helvetica,sans-Serif" font-size="10.00">singlestep</text>
</a>
</g>
</g>
<!-- Node4&#45;&gt;Node5 -->
<g id="edge4" class="edge"><title>Node4&#45;&gt;Node5</title>
<path fill="none" stroke="midnightblue" d="M916.494,-188.565C931.153,-183.157 948.463,-176.771 962.436,-171.616"/>
<polygon fill="midnightblue" stroke="midnightblue" points="915.012,-185.381 906.842,-192.126 917.435,-191.949 915.012,-185.381"/>
</g>
<!-- Node6 -->
<g id="node6" class="node"><title>Node6</title>
<g id="a_node6"><a xlink:href="../../dc/d9c/lgc_8h.html#a1da32357417ce5766ed5e3ada033c32f" target="_top" xlink:title="luaC_runtilstate">
<polygon fill="none" stroke="black" points="1055,-114.5 1055,-133.5 1136,-133.5 1136,-114.5 1055,-114.5"/>
<text text-anchor="middle" x="1095.5" y="-121.5" font-family="Helvetica,sans-Serif" font-size="10.00">luaC_runtilstate</text>
</a>
</g>
</g>
<!-- Node5&#45;&gt;Node6 -->
<g id="edge5" class="edge"><title>Node5&#45;&gt;Node6</title>
<path fill="none" stroke="midnightblue" d="M1026.4,-148.882C1040.16,-143.856 1055.58,-138.221 1068.26,-133.586"/>
<polygon fill="midnightblue" stroke="midnightblue" points="1024.94,-145.692 1016.74,-152.411 1027.34,-152.266 1024.94,-145.692"/>
</g>
<!-- Node42 -->
<g id="node42" class="node"><title>Node42</title>
<g id="a_node42"><a xlink:href="../../de/d27/lgc_8c.html#a7515a46e25b277cbbe7febb4d06b196a" target="_top" xlink:title="incstep">
<polygon fill="none" stroke="black" points="1072,-152.5 1072,-171.5 1119,-171.5 1119,-152.5 1072,-152.5"/>
<text text-anchor="middle" x="1095.5" y="-159.5" font-family="Helvetica,sans-Serif" font-size="10.00">incstep</text>
</a>
</g>
</g>
<!-- Node5&#45;&gt;Node42 -->
<g id="edge48" class="edge"><title>Node5&#45;&gt;Node42</title>
<path fill="none" stroke="midnightblue" d="M1029.31,-162C1043.63,-162 1059.39,-162 1071.83,-162"/>
<polygon fill="midnightblue" stroke="midnightblue" points="1029.19,-158.5 1019.19,-162 1029.19,-165.5 1029.19,-158.5"/>
</g>
<!-- Node7 -->
<g id="node7" class="node"><title>Node7</title>
<g id="a_node7"><a xlink:href="../../dc/d9c/lgc_8h.html#af016fe72ab7e564d7d55e7e4fb659041" target="_top" xlink:title="luaC_changemode">
<polygon fill="none" stroke="black" points="1172,-19.5 1172,-38.5 1269,-38.5 1269,-19.5 1172,-19.5"/>
<text text-anchor="middle" x="1220.5" y="-26.5" font-family="Helvetica,sans-Serif" font-size="10.00">luaC_changemode</text>
</a>
</g>
</g>
<!-- Node6&#45;&gt;Node7 -->
<g id="edge6" class="edge"><title>Node6&#45;&gt;Node7</title>
<path fill="none" stroke="midnightblue" d="M1117.2,-108.015C1142.9,-88.1606 1185.94,-54.9207 1207.05,-38.614"/>
<polygon fill="midnightblue" stroke="midnightblue" points="1114.97,-105.308 1109.2,-114.191 1119.25,-110.848 1114.97,-105.308"/>
</g>
<!-- Node10 -->
<g id="node10" class="node"><title>Node10</title>
<g id="a_node10"><a xlink:href="../../de/d27/lgc_8c.html#a87bb9d2ca4bed013c39258f8abd61689" target="_top" xlink:title="generationalcollection">
<polygon fill="none" stroke="black" points="1305,-114.5 1305,-133.5 1409,-133.5 1409,-114.5 1305,-114.5"/>
<text text-anchor="middle" x="1357" y="-121.5" font-family="Helvetica,sans-Serif" font-size="10.00">generationalcollection</text>
</a>
</g>
</g>
<!-- Node6&#45;&gt;Node10 -->
<g id="edge9" class="edge"><title>Node6&#45;&gt;Node10</title>
<path fill="none" stroke="midnightblue" d="M1146.41,-124C1191.89,-124 1258.78,-124 1304.69,-124"/>
<polygon fill="midnightblue" stroke="midnightblue" points="1146.19,-120.5 1136.19,-124 1146.19,-127.5 1146.19,-120.5"/>
</g>
<!-- Node13 -->
<g id="node13" class="node"><title>Node13</title>
<g id="a_node13"><a xlink:href="../../dc/d9c/lgc_8h.html#aa0b753c3ed80e1eed0379ec58592c404" target="_top" xlink:title="luaC_fullgc">
<polygon fill="none" stroke="black" points="1189.5,-76.5 1189.5,-95.5 1251.5,-95.5 1251.5,-76.5 1189.5,-76.5"/>
<text text-anchor="middle" x="1220.5" y="-83.5" font-family="Helvetica,sans-Serif" font-size="10.00">luaC_fullgc</text>
</a>
</g>
</g>
<!-- Node6&#45;&gt;Node13 -->
<g id="edge13" class="edge"><title>Node6&#45;&gt;Node13</title>
<path fill="none" stroke="midnightblue" d="M1137.23,-111.418C1154.23,-106.165 1173.63,-100.171 1189.32,-95.3232"/>
<polygon fill="midnightblue" stroke="midnightblue" points="1136.06,-108.115 1127.54,-114.411 1138.13,-114.803 1136.06,-108.115"/>
</g>
<!-- Node15 -->
<g id="node15" class="node"><title>Node15</title>
<g id="a_node15"><a xlink:href="../../d4/dfb/lstring_8h.html#a44d549eb0ace165927a896f37330e2cd" target="_top" xlink:title="luaS_resize">
<polygon fill="none" stroke="black" points="1187.5,-199.5 1187.5,-218.5 1253.5,-218.5 1253.5,-199.5 1187.5,-199.5"/>
<text text-anchor="middle" x="1220.5" y="-206.5" font-family="Helvetica,sans-Serif" font-size="10.00">luaS_resize</text>
</a>
</g>
</g>
<!-- Node6&#45;&gt;Node15 -->
<g id="edge17" class="edge"><title>Node6&#45;&gt;Node15</title>
<path fill="none" stroke="midnightblue" d="M1127.75,-138.23C1130.59,-139.76 1133.37,-141.359 1136,-143 1164.05,-160.53 1193.7,-185.813 1208.99,-199.437"/>
<polygon fill="midnightblue" stroke="midnightblue" points="1129.19,-135.036 1118.69,-133.617 1126.02,-141.274 1129.19,-135.036"/>
</g>
<!-- Node8 -->
<g id="node8" class="node"><title>Node8</title>
<g id="a_node8"><a xlink:href="../../da/dd2/lua_8h.html#a6bac487d3f900b21271e8c591bd801cd" target="_top" xlink:title="lua_gc">
<polygon fill="none" stroke="black" points="1579,-19.5 1579,-38.5 1623,-38.5 1623,-19.5 1579,-19.5"/>
<text text-anchor="middle" x="1601" y="-26.5" font-family="Helvetica,sans-Serif" font-size="10.00">lua_gc</text>
</a>
</g>
</g>
<!-- Node7&#45;&gt;Node8 -->
<g id="edge7" class="edge"><title>Node7&#45;&gt;Node8</title>
<path fill="none" stroke="midnightblue" d="M1279.13,-29C1364.77,-29 1521.62,-29 1578.6,-29"/>
<polygon fill="midnightblue" stroke="midnightblue" points="1279.05,-25.5001 1269.05,-29 1279.05,-32.5001 1279.05,-25.5001"/>
</g>
<!-- Node9 -->
<g id="node9" class="node"><title>Node9</title>
<g id="a_node9"><a xlink:href="../../d8/dd3/lbaselib_8c.html#a07f71966c943cc9761ab129f64d4ac80" target="_top" xlink:title="luaB_collectgarbage">
<polygon fill="none" stroke="black" points="1680.5,-0.5 1680.5,-19.5 1782.5,-19.5 1782.5,-0.5 1680.5,-0.5"/>
<text text-anchor="middle" x="1731.5" y="-7.5" font-family="Helvetica,sans-Serif" font-size="10.00">luaB_collectgarbage</text>
</a>
</g>
</g>
<!-- Node8&#45;&gt;Node9 -->
<g id="edge8" class="edge"><title>Node8&#45;&gt;Node9</title>
<path fill="none" stroke="midnightblue" d="M1633.39,-24.3586C1647.52,-22.2695 1664.55,-19.7515 1680.38,-17.4114"/>
<polygon fill="midnightblue" stroke="midnightblue" points="1632.6,-20.9374 1623.22,-25.8625 1633.62,-27.8621 1632.6,-20.9374"/>
</g>
<!-- Node11 -->
<g id="node11" class="node"><title>Node11</title>
<g id="a_node11"><a xlink:href="../../dc/d9c/lgc_8h.html#a19359957605d7c8eaf70803e5b77361f" target="_top" xlink:title="luaC_forcestep">
<polygon fill="none" stroke="black" points="1445,-114.5 1445,-133.5 1525,-133.5 1525,-114.5 1445,-114.5"/>
<text text-anchor="middle" x="1485" y="-121.5" font-family="Helvetica,sans-Serif" font-size="10.00">luaC_forcestep</text>
</a>
</g>
</g>
<!-- Node10&#45;&gt;Node11 -->
<g id="edge10" class="edge"><title>Node10&#45;&gt;Node11</title>
<path fill="none" stroke="midnightblue" d="M1419.35,-124C1428,-124 1436.7,-124 1444.78,-124"/>
<polygon fill="midnightblue" stroke="midnightblue" points="1419.25,-120.5 1409.25,-124 1419.25,-127.5 1419.25,-120.5"/>
</g>
<!-- Node11&#45;&gt;Node8 -->
<g id="edge11" class="edge"><title>Node11&#45;&gt;Node8</title>
<path fill="none" stroke="midnightblue" d="M1505.49,-107.755C1529.35,-87.8719 1568.98,-54.8498 1588.46,-38.614"/>
<polygon fill="midnightblue" stroke="midnightblue" points="1503.21,-105.1 1497.77,-114.191 1507.69,-110.478 1503.21,-105.1"/>
</g>
<!-- Node12 -->
<g id="node12" class="node"><title>Node12</title>
<g id="a_node12"><a xlink:href="../../dc/d9c/lgc_8h.html#a6c71cc4b9e503c0e96c0c4ffcff93900" target="_top" xlink:title="luaC_step">
<polygon fill="none" stroke="black" points="1570.5,-114.5 1570.5,-133.5 1631.5,-133.5 1631.5,-114.5 1570.5,-114.5"/>
<text text-anchor="middle" x="1601" y="-121.5" font-family="Helvetica,sans-Serif" font-size="10.00">luaC_step</text>
</a>
</g>
</g>
<!-- Node11&#45;&gt;Node12 -->
<g id="edge12" class="edge"><title>Node11&#45;&gt;Node12</title>
<path fill="none" stroke="midnightblue" d="M1535.52,-124C1547.42,-124 1559.76,-124 1570.42,-124"/>
<polygon fill="midnightblue" stroke="midnightblue" points="1535.23,-120.5 1525.23,-124 1535.23,-127.5 1535.23,-120.5"/>
</g>
<!-- Node13&#45;&gt;Node8 -->
<g id="edge14" class="edge"><title>Node13&#45;&gt;Node8</title>
<path fill="none" stroke="midnightblue" d="M1261.6,-76.0586C1275.31,-72.8781 1290.77,-69.5296 1305,-67 1406.94,-48.8797 1530.15,-35.8337 1578.79,-31.0287"/>
<polygon fill="midnightblue" stroke="midnightblue" points="1260.43,-72.7371 1251.5,-78.4418 1262.04,-79.5497 1260.43,-72.7371"/>
</g>
<!-- Node13&#45;&gt;Node10 -->
<g id="edge15" class="edge"><title>Node13&#45;&gt;Node10</title>
<path fill="none" stroke="midnightblue" d="M1261.41,-97.2766C1280.73,-102.735 1303.68,-109.218 1322.13,-114.431"/>
<polygon fill="midnightblue" stroke="midnightblue" points="1262.26,-93.8787 1251.68,-94.5279 1260.36,-100.615 1262.26,-93.8787"/>
</g>
<!-- Node14 -->
<g id="node14" class="node"><title>Node14</title>
<g id="a_node14"><a xlink:href="../../d7/d3e/lmem_8h.html#ae7dc8a57fc5dbca825653a88a356a72d" target="_top" xlink:title="luaM_realloc_">
<polygon fill="none" stroke="black" points="1320,-76.5 1320,-95.5 1394,-95.5 1394,-76.5 1320,-76.5"/>
<text text-anchor="middle" x="1357" y="-83.5" font-family="Helvetica,sans-Serif" font-size="10.00">luaM_realloc_</text>
</a>
</g>
</g>
<!-- Node13&#45;&gt;Node14 -->
<g id="edge16" class="edge"><title>Node13&#45;&gt;Node14</title>
<path fill="none" stroke="midnightblue" d="M1261.81,-86C1280.2,-86 1301.82,-86 1319.7,-86"/>
<polygon fill="midnightblue" stroke="midnightblue" points="1261.68,-82.5001 1251.68,-86 1261.68,-89.5001 1261.68,-82.5001"/>
</g>
<!-- Node16 -->
<g id="node16" class="node"><title>Node16</title>
<g id="a_node16"><a xlink:href="../../de/d27/lgc_8c.html#aace8516e609d7409e789e7b2c190b9c2" target="_top" xlink:title="checkSizes">
<polygon fill="none" stroke="black" points="1324.5,-266.5 1324.5,-285.5 1389.5,-285.5 1389.5,-266.5 1324.5,-266.5"/>
<text text-anchor="middle" x="1357" y="-273.5" font-family="Helvetica,sans-Serif" font-size="10.00">checkSizes</text>
</a>
</g>
</g>
<!-- Node15&#45;&gt;Node16 -->
<g id="edge18" class="edge"><title>Node15&#45;&gt;Node16</title>
<path fill="none" stroke="midnightblue" d="M1245.38,-224.138C1261.78,-234.18 1284.25,-247.253 1305,-257 1312.27,-260.415 1320.33,-263.657 1327.86,-266.464"/>
<polygon fill="midnightblue" stroke="midnightblue" points="1246.83,-220.918 1236.48,-218.624 1243.14,-226.868 1246.83,-220.918"/>
</g>
<!-- Node17 -->
<g id="node17" class="node"><title>Node17</title>
<g id="a_node17"><a xlink:href="../../dd/dca/lstate_8c.html#ab65e96a7498fd886f7223b92e91fd830" target="_top" xlink:title="f_luaopen">
<polygon fill="none" stroke="black" points="1327.5,-228.5 1327.5,-247.5 1386.5,-247.5 1386.5,-228.5 1327.5,-228.5"/>
<text text-anchor="middle" x="1357" y="-235.5" font-family="Helvetica,sans-Serif" font-size="10.00">f_luaopen</text>
</a>
</g>
</g>
<!-- Node15&#45;&gt;Node17 -->
<g id="edge20" class="edge"><title>Node15&#45;&gt;Node17</title>
<path fill="none" stroke="midnightblue" d="M1263.54,-218.065C1284.26,-222.531 1308.7,-227.801 1327.25,-231.801"/>
<polygon fill="midnightblue" stroke="midnightblue" points="1264.23,-214.633 1253.72,-215.946 1262.75,-221.475 1264.23,-214.633"/>
</g>
<!-- Node25 -->
<g id="node25" class="node"><title>Node25</title>
<g id="a_node25"><a xlink:href="../../d1/d2f/lstring_8c.html#a6e3c0fe3ba834ee00279a9df03f40fc4" target="_top" xlink:title="newshrstr">
<polygon fill="none" stroke="black" points="1328,-190.5 1328,-209.5 1386,-209.5 1386,-190.5 1328,-190.5"/>
<text text-anchor="middle" x="1357" y="-197.5" font-family="Helvetica,sans-Serif" font-size="10.00">newshrstr</text>
</a>
</g>
</g>
<!-- Node15&#45;&gt;Node25 -->
<g id="edge29" class="edge"><title>Node15&#45;&gt;Node25</title>
<path fill="none" stroke="midnightblue" d="M1263.9,-206.163C1284.7,-204.771 1309.2,-203.132 1327.7,-201.894"/>
<polygon fill="midnightblue" stroke="midnightblue" points="1263.46,-202.684 1253.72,-206.844 1263.93,-209.669 1263.46,-202.684"/>
</g>
<!-- Node16&#45;&gt;Node5 -->
<g id="edge19" class="edge"><title>Node16&#45;&gt;Node5</title>
<path fill="none" stroke="midnightblue" d="M1314.44,-266.336C1276.94,-257.338 1220.4,-243.078 1172,-228 1114.86,-210.2 1049.16,-185.135 1014.62,-171.59"/>
<polygon fill="midnightblue" stroke="midnightblue" points="1313.95,-269.818 1324.49,-268.731 1315.58,-263.008 1313.95,-269.818"/>
</g>
<!-- Node18 -->
<g id="node18" class="node"><title>Node18</title>
<g id="a_node18"><a xlink:href="../../da/dd2/lua_8h.html#af722e4ac7fc0eba5920f59f0162c1b97" target="_top" xlink:title="lua_newstate">
<polygon fill="none" stroke="black" points="1448,-258.5 1448,-277.5 1522,-277.5 1522,-258.5 1448,-258.5"/>
<text text-anchor="middle" x="1485" y="-265.5" font-family="Helvetica,sans-Serif" font-size="10.00">lua_newstate</text>
</a>
</g>
</g>
<!-- Node17&#45;&gt;Node18 -->
<g id="edge21" class="edge"><title>Node17&#45;&gt;Node18</title>
<path fill="none" stroke="midnightblue" d="M1396.39,-247.14C1412.75,-251.035 1431.74,-255.556 1447.84,-259.391"/>
<polygon fill="midnightblue" stroke="midnightblue" points="1397.13,-243.719 1386.59,-244.807 1395.51,-250.529 1397.13,-243.719"/>
</g>
<!-- Node19 -->
<g id="node19" class="node"><title>Node19</title>
<g id="a_node19"><a xlink:href="../../da/d29/lauxlib_8h.html#a7d8712fcede90ae93d5a9a7b409c586e" target="_top" xlink:title="luaL_newstate">
<polygon fill="none" stroke="black" points="1561,-356.5 1561,-375.5 1641,-375.5 1641,-356.5 1561,-356.5"/>
<text text-anchor="middle" x="1601" y="-363.5" font-family="Helvetica,sans-Serif" font-size="10.00">luaL_newstate</text>
</a>
</g>
</g>
<!-- Node18&#45;&gt;Node19 -->
<g id="edge22" class="edge"><title>Node18&#45;&gt;Node19</title>
<path fill="none" stroke="midnightblue" d="M1505.06,-284.387C1528.97,-304.939 1569.18,-339.509 1588.7,-356.285"/>
<polygon fill="midnightblue" stroke="midnightblue" points="1507.21,-281.62 1497.35,-277.755 1502.65,-286.928 1507.21,-281.62"/>
</g>
<!-- Node24 -->
<g id="node24" class="node"><title>Node24</title>
<g id="a_node24"><a xlink:href="../../dd/dca/lstate_8c.html#a8a0fc0aca5367250347c6bb6a788f05f" target="_top" xlink:title="makeseed">
<polygon fill="none" stroke="black" points="1570.5,-258.5 1570.5,-277.5 1631.5,-277.5 1631.5,-258.5 1570.5,-258.5"/>
<text text-anchor="middle" x="1601" y="-265.5" font-family="Helvetica,sans-Serif" font-size="10.00">makeseed</text>
</a>
</g>
</g>
<!-- Node18&#45;&gt;Node24 -->
<g id="edge27" class="edge"><title>Node18&#45;&gt;Node24</title>
<path fill="none" stroke="midnightblue" d="M1532.16,-261.36C1545.02,-261.097 1558.64,-261.307 1570.27,-261.99"/>
<polygon fill="midnightblue" stroke="midnightblue" points="1531.96,-257.864 1522.07,-261.672 1532.17,-264.861 1531.96,-257.864"/>
</g>
<!-- Node20 -->
<g id="node20" class="node"><title>Node20</title>
<g id="a_node20"><a xlink:href="../../dc/de7/interface_kensho_lua_wrapper.html#a7d10aa0242861cdd109d3da9383882a2" target="_top" xlink:title="&#45;[KenshoLuaWrapper\l evaluate]">
<polygon fill="none" stroke="black" points="1677,-386 1677,-416 1786,-416 1786,-386 1677,-386"/>
<text text-anchor="start" x="1685" y="-404" font-family="Helvetica,sans-Serif" font-size="10.00">&#45;[KenshoLuaWrapper</text>
<text text-anchor="middle" x="1731.5" y="-393" font-family="Helvetica,sans-Serif" font-size="10.00"> evaluate]</text>
</a>
</g>
</g>
<!-- Node19&#45;&gt;Node20 -->
<g id="edge23" class="edge"><title>Node19&#45;&gt;Node20</title>
<path fill="none" stroke="midnightblue" d="M1646.85,-378.216C1656.46,-380.833 1666.7,-383.623 1676.61,-386.322"/>
<polygon fill="midnightblue" stroke="midnightblue" points="1647.68,-374.815 1637.11,-375.564 1645.84,-381.569 1647.68,-374.815"/>
</g>
<!-- Node21 -->
<g id="node21" class="node"><title>Node21</title>
<g id="a_node21"><a xlink:href="../../dc/de7/interface_kensho_lua_wrapper.html#af6db46358f8858a18b55388aa3af211d" target="_top" xlink:title="&#45;[KenshoLuaWrapper\l initWithKensho:context\l:code:]">
<polygon fill="none" stroke="black" points="1822,-438.5 1822,-479.5 1936,-479.5 1936,-438.5 1822,-438.5"/>
<text text-anchor="start" x="1830" y="-467.5" font-family="Helvetica,sans-Serif" font-size="10.00">&#45;[KenshoLuaWrapper</text>
<text text-anchor="start" x="1830" y="-456.5" font-family="Helvetica,sans-Serif" font-size="10.00"> initWithKensho:context</text>
<text text-anchor="middle" x="1879" y="-445.5" font-family="Helvetica,sans-Serif" font-size="10.00">:code:]</text>
</a>
</g>
</g>
<!-- Node20&#45;&gt;Node21 -->
<g id="edge24" class="edge"><title>Node20&#45;&gt;Node21</title>
<path fill="none" stroke="midnightblue" d="M1779.86,-419.878C1794.73,-425.807 1811.22,-432.381 1826.37,-438.421"/>
<polygon fill="midnightblue" stroke="midnightblue" points="1780.93,-416.539 1770.35,-416.087 1778.34,-423.042 1780.93,-416.539"/>
</g>
<!-- Node22 -->
<g id="node22" class="node"><title>Node22</title>
<g id="a_node22"><a xlink:href="../../dc/de7/interface_kensho_lua_wrapper.html#a5555e0979799446611baee70104555c6" target="_top" xlink:title="&#45;[KenshoLuaWrapper\l evaluate:]">
<polygon fill="none" stroke="red" points="1824.5,-389 1824.5,-419 1933.5,-419 1933.5,-389 1824.5,-389"/>
<text text-anchor="start" x="1832.5" y="-407" font-family="Helvetica,sans-Serif" font-size="10.00">&#45;[KenshoLuaWrapper</text>
<text text-anchor="middle" x="1879" y="-396" font-family="Helvetica,sans-Serif" font-size="10.00"> evaluate:]</text>
</a>
</g>
</g>
<!-- Node20&#45;&gt;Node22 -->
<g id="edge25" class="edge"><title>Node20&#45;&gt;Node22</title>
<path fill="none" stroke="midnightblue" d="M1796.34,-402.316C1805.72,-402.51 1815.31,-402.707 1824.46,-402.896"/>
<polygon fill="midnightblue" stroke="midnightblue" points="1796.34,-398.816 1786.27,-402.109 1796.19,-405.814 1796.34,-398.816"/>
</g>
<!-- Node23 -->
<g id="node23" class="node"><title>Node23</title>
<g id="a_node23"><a xlink:href="../../dc/de7/interface_kensho_lua_wrapper.html#a0bb5e125d727942726d707f8b59009dc" target="_top" xlink:title="&#45;[KenshoLuaWrapper\l observableUpdated:]">
<polygon fill="none" stroke="black" points="1824.5,-340 1824.5,-370 1933.5,-370 1933.5,-340 1824.5,-340"/>
<text text-anchor="start" x="1832.5" y="-358" font-family="Helvetica,sans-Serif" font-size="10.00">&#45;[KenshoLuaWrapper</text>
<text text-anchor="middle" x="1879" y="-347" font-family="Helvetica,sans-Serif" font-size="10.00"> observableUpdated:]</text>
</a>
</g>
</g>
<!-- Node20&#45;&gt;Node23 -->
<g id="edge26" class="edge"><title>Node20&#45;&gt;Node23</title>
<path fill="none" stroke="midnightblue" d="M1789.75,-382.901C1803.16,-378.661 1817.31,-374.188 1830.25,-370.096"/>
<polygon fill="midnightblue" stroke="midnightblue" points="1788.62,-379.586 1780.14,-385.938 1790.73,-386.261 1788.62,-379.586"/>
</g>
<!-- Node24&#45;&gt;Node18 -->
<g id="edge28" class="edge"><title>Node24&#45;&gt;Node18</title>
<path fill="none" stroke="midnightblue" d="M1560.2,-274.469C1547.8,-274.886 1534.2,-274.839 1522.07,-274.328"/>
<polygon fill="midnightblue" stroke="midnightblue" points="1560.44,-277.962 1570.27,-274.01 1560.12,-270.969 1560.44,-277.962"/>
</g>
<!-- Node26 -->
<g id="node26" class="node"><title>Node26</title>
<g id="a_node26"><a xlink:href="../../d1/d2f/lstring_8c.html#a9b2c32c59a280de24f20df1c7f0433a1" target="_top" xlink:title="internshrstr">
<polygon fill="none" stroke="black" points="1454.5,-190.5 1454.5,-209.5 1515.5,-209.5 1515.5,-190.5 1454.5,-190.5"/>
<text text-anchor="middle" x="1485" y="-197.5" font-family="Helvetica,sans-Serif" font-size="10.00">internshrstr</text>
</a>
</g>
</g>
<!-- Node25&#45;&gt;Node26 -->
<g id="edge30" class="edge"><title>Node25&#45;&gt;Node26</title>
<path fill="none" stroke="midnightblue" d="M1396.44,-200C1414.95,-200 1436.81,-200 1454.06,-200"/>
<polygon fill="midnightblue" stroke="midnightblue" points="1396.28,-196.5 1386.28,-200 1396.28,-203.5 1396.28,-196.5"/>
</g>
<!-- Node27 -->
<g id="node27" class="node"><title>Node27</title>
<g id="a_node27"><a xlink:href="../../d4/dfb/lstring_8h.html#a248e72694b9116b07b2e7f4a9a3a5331" target="_top" xlink:title="luaS_newlstr">
<polygon fill="none" stroke="black" points="1565.5,-190.5 1565.5,-209.5 1636.5,-209.5 1636.5,-190.5 1565.5,-190.5"/>
<text text-anchor="middle" x="1601" y="-197.5" font-family="Helvetica,sans-Serif" font-size="10.00">luaS_newlstr</text>
</a>
</g>
</g>
<!-- Node26&#45;&gt;Node27 -->
<g id="edge31" class="edge"><title>Node26&#45;&gt;Node27</title>
<path fill="none" stroke="midnightblue" d="M1526.03,-200C1538.82,-200 1552.86,-200 1565.23,-200"/>
<polygon fill="midnightblue" stroke="midnightblue" points="1525.65,-196.5 1515.65,-200 1525.65,-203.5 1525.65,-196.5"/>
</g>
<!-- Node28 -->
<g id="node28" class="node"><title>Node28</title>
<g id="a_node28"><a xlink:href="../../da/dd2/lua_8h.html#a4ab8500ade8e1d8a87b1df1baf19b179" target="_top" xlink:title="lua_pushlstring">
<polygon fill="none" stroke="red" points="1691.5,-190.5 1691.5,-209.5 1771.5,-209.5 1771.5,-190.5 1691.5,-190.5"/>
<text text-anchor="middle" x="1731.5" y="-197.5" font-family="Helvetica,sans-Serif" font-size="10.00">lua_pushlstring</text>
</a>
</g>
</g>
<!-- Node27&#45;&gt;Node28 -->
<g id="edge32" class="edge"><title>Node27&#45;&gt;Node28</title>
<path fill="none" stroke="midnightblue" d="M1646.96,-200C1661.36,-200 1677.19,-200 1691.16,-200"/>
<polygon fill="midnightblue" stroke="midnightblue" points="1646.77,-196.5 1636.77,-200 1646.77,-203.5 1646.77,-196.5"/>
</g>
<!-- Node34 -->
<g id="node34" class="node"><title>Node34</title>
<g id="a_node34"><a xlink:href="../../da/dd2/lua_8h.html#a4eba0457df5bafff4d44071d1d8080b6" target="_top" xlink:title="lua_concat">
<polygon fill="none" stroke="red" points="1848,-111.5 1848,-130.5 1910,-130.5 1910,-111.5 1848,-111.5"/>
<text text-anchor="middle" x="1879" y="-118.5" font-family="Helvetica,sans-Serif" font-size="10.00">lua_concat</text>
</a>
</g>
</g>
<!-- Node27&#45;&gt;Node34 -->
<g id="edge39" class="edge"><title>Node27&#45;&gt;Node34</title>
<path fill="none" stroke="midnightblue" d="M1644.98,-187.696C1701.37,-171.556 1798.9,-143.642 1847.96,-129.597"/>
<polygon fill="midnightblue" stroke="midnightblue" points="1643.94,-184.354 1635.29,-190.471 1645.87,-191.084 1643.94,-184.354"/>
</g>
<!-- Node35 -->
<g id="node35" class="node"><title>Node35</title>
<g id="a_node35"><a xlink:href="../../dd/d05/lcode_8h.html#a4f928250a0f4007764b4d3777651f617" target="_top" xlink:title="luaK_numberK">
<polygon fill="none" stroke="red" points="1691.5,-76.5 1691.5,-95.5 1771.5,-95.5 1771.5,-76.5 1691.5,-76.5"/>
<text text-anchor="middle" x="1731.5" y="-83.5" font-family="Helvetica,sans-Serif" font-size="10.00">luaK_numberK</text>
</a>
</g>
</g>
<!-- Node27&#45;&gt;Node35 -->
<g id="edge40" class="edge"><title>Node27&#45;&gt;Node35</title>
<path fill="none" stroke="midnightblue" d="M1614.35,-182.045C1631.4,-157.676 1661.78,-115.909 1677,-105 1682.29,-101.21 1688.4,-98.1117 1694.57,-95.5999"/>
<polygon fill="midnightblue" stroke="midnightblue" points="1611.35,-180.223 1608.52,-190.433 1617.1,-184.215 1611.35,-180.223"/>
</g>
<!-- Node36 -->
<g id="node36" class="node"><title>Node36</title>
<g id="a_node36"><a xlink:href="../../d8/d27/llex_8h.html#aa6e79179f823cf156f61899a09239ca6" target="_top" xlink:title="luaX_newstring">
<polygon fill="none" stroke="red" points="1691,-38.5 1691,-57.5 1772,-57.5 1772,-38.5 1691,-38.5"/>
<text text-anchor="middle" x="1731.5" y="-45.5" font-family="Helvetica,sans-Serif" font-size="10.00">luaX_newstring</text>
</a>
</g>
</g>
<!-- Node27&#45;&gt;Node36 -->
<g id="edge41" class="edge"><title>Node27&#45;&gt;Node36</title>
<path fill="none" stroke="midnightblue" d="M1615.46,-181.913C1623.35,-170.936 1633.26,-156.485 1641,-143 1659.61,-110.587 1649.27,-92.059 1677,-67 1681.31,-63.101 1686.48,-59.99 1691.88,-57.5109"/>
<polygon fill="midnightblue" stroke="midnightblue" points="1612.47,-180.078 1609.4,-190.219 1618.12,-184.205 1612.47,-180.078"/>
</g>
<!-- Node37 -->
<g id="node37" class="node"><title>Node37</title>
<g id="a_node37"><a xlink:href="../../d7/d9b/lobject_8c.html#aa65db03553a5abd73e466d307bb17a37" target="_top" xlink:title="pushstr">
<polygon fill="none" stroke="red" points="1707.5,-342.5 1707.5,-361.5 1755.5,-361.5 1755.5,-342.5 1707.5,-342.5"/>
<text text-anchor="middle" x="1731.5" y="-349.5" font-family="Helvetica,sans-Serif" font-size="10.00">pushstr</text>
</a>
</g>
</g>
<!-- Node27&#45;&gt;Node37 -->
<g id="edge42" class="edge"><title>Node27&#45;&gt;Node37</title>
<path fill="none" stroke="midnightblue" d="M1617.71,-217.371C1625.36,-226.384 1634.32,-237.825 1641,-249 1661.83,-283.868 1647.38,-305.207 1677,-333 1685.34,-340.823 1697.1,-345.458 1707.48,-348.187"/>
<polygon fill="midnightblue" stroke="midnightblue" points="1620.11,-214.795 1610.9,-209.561 1614.83,-219.397 1620.11,-214.795"/>
</g>
<!-- Node38 -->
<g id="node38" class="node"><title>Node38</title>
<g id="a_node38"><a xlink:href="../../d4/dfb/lstring_8h.html#a6929da8cfde3e74a0d51a6467909ef9d" target="_top" xlink:title="luaS_new">
<polygon fill="none" stroke="red" points="1701.5,-304.5 1701.5,-323.5 1761.5,-323.5 1761.5,-304.5 1701.5,-304.5"/>
<text text-anchor="middle" x="1731.5" y="-311.5" font-family="Helvetica,sans-Serif" font-size="10.00">luaS_new</text>
</a>
</g>
</g>
<!-- Node27&#45;&gt;Node38 -->
<g id="edge43" class="edge"><title>Node27&#45;&gt;Node38</title>
<path fill="none" stroke="midnightblue" d="M1616.25,-217.835C1623.65,-227.114 1632.83,-238.652 1641,-249 1657.08,-269.379 1655.93,-279.831 1677,-295 1684.2,-300.183 1692.95,-304.07 1701.27,-306.932"/>
<polygon fill="midnightblue" stroke="midnightblue" points="1618.77,-215.375 1609.79,-209.743 1613.3,-219.742 1618.77,-215.375"/>
</g>
<!-- Node39 -->
<g id="node39" class="node"><title>Node39</title>
<g id="a_node39"><a xlink:href="../../de/d2f/lundump_8c.html#abfe7dabe70bd14e27d54d3cedc6cb70a" target="_top" xlink:title="LoadString">
<polygon fill="none" stroke="red" points="1700.5,-266.5 1700.5,-285.5 1762.5,-285.5 1762.5,-266.5 1700.5,-266.5"/>
<text text-anchor="middle" x="1731.5" y="-273.5" font-family="Helvetica,sans-Serif" font-size="10.00">LoadString</text>
</a>
</g>
</g>
<!-- Node27&#45;&gt;Node39 -->
<g id="edge44" class="edge"><title>Node27&#45;&gt;Node39</title>
<path fill="none" stroke="midnightblue" d="M1620.17,-216.379C1634.72,-228.83 1656.07,-245.688 1677,-257 1684.28,-260.937 1692.55,-264.336 1700.36,-267.126"/>
<polygon fill="midnightblue" stroke="midnightblue" points="1622.28,-213.577 1612.45,-209.633 1617.68,-218.848 1622.28,-213.577"/>
</g>
<!-- Node40 -->
<g id="node40" class="node"><title>Node40</title>
<g id="a_node40"><a xlink:href="../../d5/dcd/lvm_8h.html#abcde68a7697547dc2c7f1d0e6734e611" target="_top" xlink:title="luaV_tostring">
<polygon fill="none" stroke="red" points="1696,-228.5 1696,-247.5 1767,-247.5 1767,-228.5 1696,-228.5"/>
<text text-anchor="middle" x="1731.5" y="-235.5" font-family="Helvetica,sans-Serif" font-size="10.00">luaV_tostring</text>
</a>
</g>
</g>
<!-- Node27&#45;&gt;Node40 -->
<g id="edge45" class="edge"><title>Node27&#45;&gt;Node40</title>
<path fill="none" stroke="midnightblue" d="M1644.39,-212.535C1661.87,-217.705 1681.8,-223.599 1698.08,-228.414"/>
<polygon fill="midnightblue" stroke="midnightblue" points="1645.01,-209.069 1634.43,-209.589 1643.02,-215.781 1645.01,-209.069"/>
</g>
<!-- Node41 -->
<g id="node41" class="node"><title>Node41</title>
<g id="a_node41"><a xlink:href="../../d5/dcd/lvm_8h.html#aee84bfc563cb4bdd21a013218a289aa7" target="_top" xlink:title="luaV_concat">
<polygon fill="none" stroke="red" points="1697,-114.5 1697,-133.5 1766,-133.5 1766,-114.5 1697,-114.5"/>
<text text-anchor="middle" x="1731.5" y="-121.5" font-family="Helvetica,sans-Serif" font-size="10.00">luaV_concat</text>
</a>
</g>
</g>
<!-- Node27&#45;&gt;Node41 -->
<g id="edge46" class="edge"><title>Node27&#45;&gt;Node41</title>
<path fill="none" stroke="midnightblue" d="M1622.62,-184.158C1637.32,-173.253 1657.8,-158.837 1677,-148 1686.4,-142.695 1697.18,-137.668 1706.6,-133.599"/>
<polygon fill="midnightblue" stroke="midnightblue" points="1620.17,-181.623 1614.28,-190.43 1624.37,-187.218 1620.17,-181.623"/>
</g>
<!-- Node29 -->
<g id="node29" class="node"><title>Node29</title>
<g id="a_node29"><a xlink:href="../../da/d29/lauxlib_8h.html#aac5dfab9ba0ced4f5ae3b22aa35faffe" target="_top" xlink:title="luaL_pushresult">
<polygon fill="none" stroke="red" points="1837.5,-187.5 1837.5,-206.5 1920.5,-206.5 1920.5,-187.5 1837.5,-187.5"/>
<text text-anchor="middle" x="1879" y="-194.5" font-family="Helvetica,sans-Serif" font-size="10.00">luaL_pushresult</text>
</a>
</g>
</g>
<!-- Node28&#45;&gt;Node29 -->
<g id="edge33" class="edge"><title>Node28&#45;&gt;Node29</title>
<path fill="none" stroke="midnightblue" d="M1781.92,-198.981C1799.96,-198.609 1820.14,-198.193 1837.33,-197.839"/>
<polygon fill="midnightblue" stroke="midnightblue" points="1781.8,-195.483 1771.87,-199.188 1781.94,-202.481 1781.8,-195.483"/>
</g>
<!-- Node30 -->
<g id="node30" class="node"><title>Node30</title>
<g id="a_node30"><a xlink:href="../../de/df3/liolib_8c.html#ace61fce0bdea311d6d7c2206881165c7" target="_top" xlink:title="test_eof">
<polygon fill="none" stroke="red" points="1854,-149.5 1854,-168.5 1904,-168.5 1904,-149.5 1854,-149.5"/>
<text text-anchor="middle" x="1879" y="-156.5" font-family="Helvetica,sans-Serif" font-size="10.00">test_eof</text>
</a>
</g>
</g>
<!-- Node28&#45;&gt;Node30 -->
<g id="edge34" class="edge"><title>Node28&#45;&gt;Node30</title>
<path fill="none" stroke="midnightblue" d="M1776.07,-187.723C1801.59,-180.532 1832.85,-171.722 1853.97,-165.77"/>
<polygon fill="midnightblue" stroke="midnightblue" points="1774.92,-184.41 1766.25,-190.491 1776.82,-191.147 1774.92,-184.41"/>
</g>
<!-- Node31 -->
<g id="node31" class="node"><title>Node31</title>
<g id="a_node31"><a xlink:href="../../d2/d82/loadlib_8c.html#aa1ea5ee1b54a06650a887c4ee05a8547" target="_top" xlink:title="pushnexttemplate">
<polygon fill="none" stroke="red" points="1833,-301.5 1833,-320.5 1925,-320.5 1925,-301.5 1833,-301.5"/>
<text text-anchor="middle" x="1879" y="-308.5" font-family="Helvetica,sans-Serif" font-size="10.00">pushnexttemplate</text>
</a>
</g>
</g>
<!-- Node28&#45;&gt;Node31 -->
<g id="edge35" class="edge"><title>Node28&#45;&gt;Node31</title>
<path fill="none" stroke="midnightblue" d="M1779.7,-214.354C1781.92,-215.764 1784.04,-217.308 1786,-219 1811.88,-241.357 1796.85,-263.831 1822,-287 1828.69,-293.163 1837.21,-297.894 1845.56,-301.459"/>
<polygon fill="midnightblue" stroke="midnightblue" points="1781.16,-211.17 1770.69,-209.559 1777.87,-217.348 1781.16,-211.17"/>
</g>
<!-- Node32 -->
<g id="node32" class="node"><title>Node32</title>
<g id="a_node32"><a xlink:href="../../d2/d82/loadlib_8c.html#a91ac5b5231cf039af46226806dcc3884" target="_top" xlink:title="loadfunc">
<polygon fill="none" stroke="red" points="1853,-225.5 1853,-244.5 1905,-244.5 1905,-225.5 1853,-225.5"/>
<text text-anchor="middle" x="1879" y="-232.5" font-family="Helvetica,sans-Serif" font-size="10.00">loadfunc</text>
</a>
</g>
</g>
<!-- Node28&#45;&gt;Node32 -->
<g id="edge36" class="edge"><title>Node28&#45;&gt;Node32</title>
<path fill="none" stroke="midnightblue" d="M1781.83,-211.867C1805.68,-217.604 1833.29,-224.245 1852.79,-228.936"/>
<polygon fill="midnightblue" stroke="midnightblue" points="1782.42,-208.407 1771.87,-209.472 1780.78,-215.213 1782.42,-208.407"/>
</g>
<!-- Node33 -->
<g id="node33" class="node"><title>Node33</title>
<g id="a_node33"><a xlink:href="../../d2/d82/loadlib_8c.html#a1ec05cd98a045c271aeda9f9c6041e1c" target="_top" xlink:title="searcher_Croot">
<polygon fill="none" stroke="red" points="1972,-244.5 1972,-263.5 2052,-263.5 2052,-244.5 1972,-244.5"/>
<text text-anchor="middle" x="2012" y="-251.5" font-family="Helvetica,sans-Serif" font-size="10.00">searcher_Croot</text>
</a>
</g>
</g>
<!-- Node28&#45;&gt;Node33 -->
<g id="edge38" class="edge"><title>Node28&#45;&gt;Node33</title>
<path fill="none" stroke="midnightblue" d="M1775.82,-213.533C1779.36,-215.189 1782.8,-217.009 1786,-219 1804.95,-230.783 1801.32,-245.606 1822,-254 1870.64,-273.749 1932.31,-268.812 1971.72,-262.332"/>
<polygon fill="midnightblue" stroke="midnightblue" points="1776.92,-210.196 1766.34,-209.529 1774.19,-216.644 1776.92,-210.196"/>
</g>
<!-- Node32&#45;&gt;Node33 -->
<g id="edge37" class="edge"><title>Node32&#45;&gt;Node33</title>
<path fill="none" stroke="midnightblue" d="M1915.58,-240.161C1933,-242.688 1954.02,-245.736 1971.9,-248.328"/>
<polygon fill="midnightblue" stroke="midnightblue" points="1915.66,-236.635 1905.26,-238.663 1914.65,-243.563 1915.66,-236.635"/>
</g>
<!-- Node41&#45;&gt;Node34 -->
<g id="edge47" class="edge"><title>Node41&#45;&gt;Node34</title>
<path fill="none" stroke="midnightblue" d="M1776.49,-123.093C1799.58,-122.617 1827.27,-122.046 1847.9,-121.621"/>
<polygon fill="midnightblue" stroke="midnightblue" points="1776.17,-119.599 1766.25,-123.304 1776.32,-126.597 1776.17,-119.599"/>
</g>
<!-- Node42&#45;&gt;Node11 -->
<g id="edge49" class="edge"><title>Node42&#45;&gt;Node11</title>
<path fill="none" stroke="midnightblue" d="M1129.23,-162.02C1186.36,-161.607 1307.84,-158.747 1409,-143 1423.2,-140.789 1438.63,-137.108 1451.79,-133.57"/>
<polygon fill="midnightblue" stroke="midnightblue" points="1128.99,-158.521 1119.01,-162.072 1129.03,-165.521 1128.99,-158.521"/>
</g>
<!-- Node43&#45;&gt;Node5 -->
<g id="edge51" class="edge"><title>Node43&#45;&gt;Node5</title>
<path fill="none" stroke="midnightblue" d="M921.057,-137.118C934.68,-142.144 949.954,-147.779 962.517,-152.414"/>
<polygon fill="midnightblue" stroke="midnightblue" points="922.085,-133.767 911.491,-133.589 919.662,-140.334 922.085,-133.767"/>
</g>
<!-- Node45 -->
<g id="node45" class="node"><title>Node45</title>
<g id="a_node45"><a xlink:href="../../de/d27/lgc_8c.html#a86c4c1008df3c908a9cca3cf72abc195" target="_top" xlink:title="traversetable">
<polygon fill="none" stroke="black" points="254,-190.5 254,-209.5 325,-209.5 325,-190.5 254,-190.5"/>
<text text-anchor="middle" x="289.5" y="-197.5" font-family="Helvetica,sans-Serif" font-size="10.00">traversetable</text>
</a>
</g>
</g>
<!-- Node44&#45;&gt;Node45 -->
<g id="edge53" class="edge"><title>Node44&#45;&gt;Node45</title>
<path fill="none" stroke="midnightblue" d="M228.356,-200C237.058,-200 245.785,-200 253.787,-200"/>
<polygon fill="midnightblue" stroke="midnightblue" points="228.199,-196.5 218.198,-200 228.198,-203.5 228.199,-196.5"/>
</g>
<!-- Node48 -->
<g id="node48" class="node"><title>Node48</title>
<g id="a_node48"><a xlink:href="../../de/d27/lgc_8c.html#a467150a6e5a6ef4402432c4964817ffc" target="_top" xlink:title="convergeephemerons">
<polygon fill="none" stroke="black" points="584,-304.5 584,-323.5 691,-323.5 691,-304.5 584,-304.5"/>
<text text-anchor="middle" x="637.5" y="-311.5" font-family="Helvetica,sans-Serif" font-size="10.00">convergeephemerons</text>
</a>
</g>
</g>
<!-- Node44&#45;&gt;Node48 -->
<g id="edge64" class="edge"><title>Node44&#45;&gt;Node48</title>
<path fill="none" stroke="midnightblue" d="M218.966,-211.966C311.978,-234.695 512.475,-283.692 597.312,-304.423"/>
<polygon fill="midnightblue" stroke="midnightblue" points="219.516,-208.497 208.971,-209.523 217.854,-215.297 219.516,-208.497"/>
</g>
<!-- Node46 -->
<g id="node46" class="node"><title>Node46</title>
<g id="a_node46"><a xlink:href="../../de/d27/lgc_8c.html#accb36b237a98cbde36fa5bcf16a4ec1f" target="_top" xlink:title="propagatemark">
<polygon fill="none" stroke="black" points="361,-190.5 361,-209.5 442,-209.5 442,-190.5 361,-190.5"/>
<text text-anchor="middle" x="401.5" y="-197.5" font-family="Helvetica,sans-Serif" font-size="10.00">propagatemark</text>
</a>
</g>
</g>
<!-- Node45&#45;&gt;Node46 -->
<g id="edge54" class="edge"><title>Node45&#45;&gt;Node46</title>
<path fill="none" stroke="midnightblue" d="M335.121,-200C343.602,-200 352.424,-200 360.741,-200"/>
<polygon fill="midnightblue" stroke="midnightblue" points="335.003,-196.5 325.003,-200 335.003,-203.5 335.003,-196.5"/>
</g>
<!-- Node46&#45;&gt;Node5 -->
<g id="edge63" class="edge"><title>Node46&#45;&gt;Node5</title>
<path fill="none" stroke="midnightblue" d="M448.545,-188.027C495.478,-176.889 570.549,-162 636.5,-162 636.5,-162 636.5,-162 769,-162 837.403,-162 917.797,-162 959.737,-162"/>
<polygon fill="midnightblue" stroke="midnightblue" points="447.581,-184.659 438.683,-190.411 449.225,-191.463 447.581,-184.659"/>
</g>
<!-- Node47 -->
<g id="node47" class="node"><title>Node47</title>
<g id="a_node47"><a xlink:href="../../de/d27/lgc_8c.html#a9a291e8a23c3611b6c79d792fe421f5c" target="_top" xlink:title="propagateall">
<polygon fill="none" stroke="black" points="478,-228.5 478,-247.5 548,-247.5 548,-228.5 478,-228.5"/>
<text text-anchor="middle" x="513" y="-235.5" font-family="Helvetica,sans-Serif" font-size="10.00">propagateall</text>
</a>
</g>
</g>
<!-- Node46&#45;&gt;Node47 -->
<g id="edge55" class="edge"><title>Node46&#45;&gt;Node47</title>
<path fill="none" stroke="midnightblue" d="M439.879,-212.972C454.468,-218.034 470.892,-223.734 484.377,-228.414"/>
<polygon fill="midnightblue" stroke="midnightblue" points="440.726,-209.561 430.131,-209.589 438.431,-216.174 440.726,-209.561"/>
</g>
<!-- Node47&#45;&gt;Node4 -->
<g id="edge56" class="edge"><title>Node47&#45;&gt;Node4</title>
<path fill="none" stroke="midnightblue" d="M558.323,-233.442C638.186,-225.229 803.4,-208.238 862.172,-202.193"/>
<polygon fill="midnightblue" stroke="midnightblue" points="557.689,-229.988 548.099,-234.493 558.405,-236.952 557.689,-229.988"/>
</g>
<!-- Node47&#45;&gt;Node48 -->
<g id="edge57" class="edge"><title>Node47&#45;&gt;Node48</title>
<path fill="none" stroke="midnightblue" d="M531.169,-254.774C544.643,-267.212 564.35,-283.871 584,-295 590.41,-298.63 597.641,-301.78 604.641,-304.414"/>
<polygon fill="midnightblue" stroke="midnightblue" points="533.314,-251.985 523.641,-247.662 528.507,-257.073 533.314,-251.985"/>
</g>
<!-- Node49 -->
<g id="node49" class="node"><title>Node49</title>
<g id="a_node49"><a xlink:href="../../de/d27/lgc_8c.html#ab03267de3dc98eae16e7af8b88b1f9aa" target="_top" xlink:title="propagatelist">
<polygon fill="none" stroke="black" points="602,-266.5 602,-285.5 673,-285.5 673,-266.5 602,-266.5"/>
<text text-anchor="middle" x="637.5" y="-273.5" font-family="Helvetica,sans-Serif" font-size="10.00">propagatelist</text>
</a>
</g>
</g>
<!-- Node47&#45;&gt;Node49 -->
<g id="edge59" class="edge"><title>Node47&#45;&gt;Node49</title>
<path fill="none" stroke="midnightblue" d="M554.878,-250.68C571.429,-255.815 590.221,-261.644 605.598,-266.414"/>
<polygon fill="midnightblue" stroke="midnightblue" points="555.5,-247.209 544.912,-247.589 553.426,-253.895 555.5,-247.209"/>
</g>
<!-- Node50 -->
<g id="node50" class="node"><title>Node50</title>
<g id="a_node50"><a xlink:href="../../de/d27/lgc_8c.html#aa6acc790e5954f9a3652a7b0c70f8f2c" target="_top" xlink:title="retraversegrays">
<polygon fill="none" stroke="black" points="727,-228.5 727,-247.5 809,-247.5 809,-228.5 727,-228.5"/>
<text text-anchor="middle" x="768" y="-235.5" font-family="Helvetica,sans-Serif" font-size="10.00">retraversegrays</text>
</a>
</g>
</g>
<!-- Node47&#45;&gt;Node50 -->
<g id="edge62" class="edge"><title>Node47&#45;&gt;Node50</title>
<path fill="none" stroke="midnightblue" d="M558.125,-238C605.691,-238 680.751,-238 726.754,-238"/>
<polygon fill="midnightblue" stroke="midnightblue" points="558.121,-234.5 548.121,-238 558.121,-241.5 558.121,-234.5"/>
</g>
<!-- Node48&#45;&gt;Node4 -->
<g id="edge58" class="edge"><title>Node48&#45;&gt;Node4</title>
<path fill="none" stroke="midnightblue" d="M689.269,-301.773C724.149,-292.25 770.859,-277.239 809,-257 834.031,-243.717 859.453,-222.158 873.17,-209.71"/>
<polygon fill="midnightblue" stroke="midnightblue" points="688.065,-298.471 679.306,-304.432 689.87,-305.235 688.065,-298.471"/>
</g>
<!-- Node49&#45;&gt;Node50 -->
<g id="edge60" class="edge"><title>Node49&#45;&gt;Node50</title>
<path fill="none" stroke="midnightblue" d="M680.889,-263.465C698.37,-258.295 718.302,-252.401 734.584,-247.586"/>
<polygon fill="midnightblue" stroke="midnightblue" points="679.523,-260.219 670.926,-266.411 681.508,-266.931 679.523,-260.219"/>
</g>
<!-- Node50&#45;&gt;Node4 -->
<g id="edge61" class="edge"><title>Node50&#45;&gt;Node4</title>
<path fill="none" stroke="midnightblue" d="M807.417,-225.25C825.693,-219.185 846.849,-212.164 862.207,-207.067"/>
<polygon fill="midnightblue" stroke="midnightblue" points="806.282,-221.939 797.893,-228.411 808.487,-228.583 806.282,-221.939"/>
</g>
</g>
</svg>
