<?xml version="1.0" encoding="UTF-8" standalone="no"?>
<!DOCTYPE svg PUBLIC "-//W3C//DTD SVG 1.1//EN"
 "http://www.w3.org/Graphics/SVG/1.1/DTD/svg11.dtd">
<!-- Generated by graphviz version 2.38.0 (20140413.2041)
 -->
<!-- Title: separatetobefnz Pages: 1 -->
<svg width="1530pt" height="491pt"
 viewBox="0.00 0.00 1530.00 490.50" xmlns="http://www.w3.org/2000/svg" xmlns:xlink="http://www.w3.org/1999/xlink">
<g id="graph0" class="graph" transform="scale(1 1) rotate(0) translate(4 486.5)">
<title>separatetobefnz</title>
<!-- Node1 -->
<g id="node1" class="node"><title>Node1</title>
<polygon fill="#bfbfbf" stroke="black" points="0,-178 0,-197 86,-197 86,-178 0,-178"/>
<text text-anchor="middle" x="43" y="-185" font-family="Helvetica,sans-Serif" font-size="10.00">separatetobefnz</text>
</g>
<!-- Node2 -->
<g id="node2" class="node"><title>Node2</title>
<g id="a_node2"><a xlink:href="../../de/d27/lgc_8c.html#aeeb04d4803ad9d53a05a8605130a31d0" target="_top" xlink:title="atomic">
<polygon fill="none" stroke="black" points="148.5,-197 148.5,-216 192.5,-216 192.5,-197 148.5,-197"/>
<text text-anchor="middle" x="170.5" y="-204" font-family="Helvetica,sans-Serif" font-size="10.00">atomic</text>
</a>
</g>
</g>
<!-- Node1&#45;&gt;Node2 -->
<g id="edge1" class="edge"><title>Node1&#45;&gt;Node2</title>
<path fill="none" stroke="midnightblue" d="M96.1631,-195.397C114.512,-198.175 134.104,-201.141 148.418,-203.308"/>
<polygon fill="midnightblue" stroke="midnightblue" points="96.5501,-191.916 86.1388,-193.88 95.5022,-198.837 96.5501,-191.916"/>
</g>
<!-- Node47 -->
<g id="node47" class="node"><title>Node47</title>
<g id="a_node47"><a xlink:href="../../dc/d9c/lgc_8h.html#a9aa52a500c9cc2076edb1707e6d8a045" target="_top" xlink:title="luaC_freeallobjects">
<polygon fill="none" stroke="black" points="122,-159 122,-178 219,-178 219,-159 122,-159"/>
<text text-anchor="middle" x="170.5" y="-166" font-family="Helvetica,sans-Serif" font-size="10.00">luaC_freeallobjects</text>
</a>
</g>
</g>
<!-- Node1&#45;&gt;Node47 -->
<g id="edge56" class="edge"><title>Node1&#45;&gt;Node47</title>
<path fill="none" stroke="midnightblue" d="M96.2324,-179.592C104.648,-178.318 113.323,-177.005 121.629,-175.747"/>
<polygon fill="midnightblue" stroke="midnightblue" points="95.5022,-176.163 86.1388,-181.12 96.5501,-183.084 95.5022,-176.163"/>
</g>
<!-- Node3 -->
<g id="node3" class="node"><title>Node3</title>
<g id="a_node3"><a xlink:href="../../de/d27/lgc_8c.html#ae34e22198155f5d365fe500d3735c150" target="_top" xlink:title="singlestep">
<polygon fill="none" stroke="black" points="258,-244 258,-263 317,-263 317,-244 258,-244"/>
<text text-anchor="middle" x="287.5" y="-251" font-family="Helvetica,sans-Serif" font-size="10.00">singlestep</text>
</a>
</g>
</g>
<!-- Node2&#45;&gt;Node3 -->
<g id="edge2" class="edge"><title>Node2&#45;&gt;Node3</title>
<path fill="none" stroke="midnightblue" d="M202.082,-218.999C221.245,-226.831 245.56,-236.768 263.167,-243.964"/>
<polygon fill="midnightblue" stroke="midnightblue" points="203.174,-215.664 192.593,-215.121 200.525,-222.144 203.174,-215.664"/>
</g>
<!-- Node4 -->
<g id="node4" class="node"><title>Node4</title>
<g id="a_node4"><a xlink:href="../../dc/d9c/lgc_8h.html#a1da32357417ce5766ed5e3ada033c32f" target="_top" xlink:title="luaC_runtilstate">
<polygon fill="none" stroke="black" points="356,-349 356,-368 437,-368 437,-349 356,-349"/>
<text text-anchor="middle" x="396.5" y="-356" font-family="Helvetica,sans-Serif" font-size="10.00">luaC_runtilstate</text>
</a>
</g>
</g>
<!-- Node3&#45;&gt;Node4 -->
<g id="edge3" class="edge"><title>Node3&#45;&gt;Node4</title>
<path fill="none" stroke="midnightblue" d="M305.635,-270.315C328.282,-292.538 367.434,-330.958 385.649,-348.833"/>
<polygon fill="midnightblue" stroke="midnightblue" points="307.963,-267.696 298.375,-263.19 303.061,-272.692 307.963,-267.696"/>
</g>
<!-- Node46 -->
<g id="node46" class="node"><title>Node46</title>
<g id="a_node46"><a xlink:href="../../de/d27/lgc_8c.html#a7515a46e25b277cbbe7febb4d06b196a" target="_top" xlink:title="incstep">
<polygon fill="none" stroke="black" points="373,-273 373,-292 420,-292 420,-273 373,-273"/>
<text text-anchor="middle" x="396.5" y="-280" font-family="Helvetica,sans-Serif" font-size="10.00">incstep</text>
</a>
</g>
</g>
<!-- Node3&#45;&gt;Node46 -->
<g id="edge54" class="edge"><title>Node3&#45;&gt;Node46</title>
<path fill="none" stroke="midnightblue" d="M326.964,-263.925C342.347,-268.094 359.536,-272.753 372.851,-276.361"/>
<polygon fill="midnightblue" stroke="midnightblue" points="327.741,-260.509 317.174,-261.271 325.91,-267.266 327.741,-260.509"/>
</g>
<!-- Node5 -->
<g id="node5" class="node"><title>Node5</title>
<g id="a_node5"><a xlink:href="../../dc/d9c/lgc_8h.html#af016fe72ab7e564d7d55e7e4fb659041" target="_top" xlink:title="luaC_changemode">
<polygon fill="none" stroke="black" points="715,-463 715,-482 812,-482 812,-463 715,-463"/>
<text text-anchor="middle" x="763.5" y="-470" font-family="Helvetica,sans-Serif" font-size="10.00">luaC_changemode</text>
</a>
</g>
</g>
<!-- Node4&#45;&gt;Node5 -->
<g id="edge4" class="edge"><title>Node4&#45;&gt;Node5</title>
<path fill="none" stroke="midnightblue" d="M414.932,-375.2C429.377,-388.114 451.032,-405.437 473,-415.5 552.87,-452.087 655.653,-465.234 714.804,-469.928"/>
<polygon fill="midnightblue" stroke="midnightblue" points="417.042,-372.385 407.312,-368.193 412.304,-377.538 417.042,-372.385"/>
</g>
<!-- Node8 -->
<g id="node8" class="node"><title>Node8</title>
<g id="a_node8"><a xlink:href="../../de/d27/lgc_8c.html#a87bb9d2ca4bed013c39258f8abd61689" target="_top" xlink:title="generationalcollection">
<polygon fill="none" stroke="black" points="575,-349 575,-368 679,-368 679,-349 575,-349"/>
<text text-anchor="middle" x="627" y="-356" font-family="Helvetica,sans-Serif" font-size="10.00">generationalcollection</text>
</a>
</g>
</g>
<!-- Node4&#45;&gt;Node8 -->
<g id="edge7" class="edge"><title>Node4&#45;&gt;Node8</title>
<path fill="none" stroke="midnightblue" d="M447.304,-358.5C485.086,-358.5 536.841,-358.5 574.931,-358.5"/>
<polygon fill="midnightblue" stroke="midnightblue" points="447.041,-355 437.041,-358.5 447.041,-362 447.041,-355"/>
</g>
<!-- Node11 -->
<g id="node11" class="node"><title>Node11</title>
<g id="a_node11"><a xlink:href="../../dc/d9c/lgc_8h.html#aa0b753c3ed80e1eed0379ec58592c404" target="_top" xlink:title="luaC_fullgc">
<polygon fill="none" stroke="black" points="475,-387 475,-406 537,-406 537,-387 475,-387"/>
<text text-anchor="middle" x="506" y="-394" font-family="Helvetica,sans-Serif" font-size="10.00">luaC_fullgc</text>
</a>
</g>
</g>
<!-- Node4&#45;&gt;Node11 -->
<g id="edge11" class="edge"><title>Node4&#45;&gt;Node11</title>
<path fill="none" stroke="midnightblue" d="M434.196,-371.472C448.518,-376.534 464.642,-382.234 477.882,-386.914"/>
<polygon fill="midnightblue" stroke="midnightblue" points="435.222,-368.122 424.627,-368.089 432.889,-374.722 435.222,-368.122"/>
</g>
<!-- Node13 -->
<g id="node13" class="node"><title>Node13</title>
<g id="a_node13"><a xlink:href="../../d4/dfb/lstring_8h.html#a44d549eb0ace165927a896f37330e2cd" target="_top" xlink:title="luaS_resize">
<polygon fill="none" stroke="black" points="473,-263 473,-282 539,-282 539,-263 473,-263"/>
<text text-anchor="middle" x="506" y="-270" font-family="Helvetica,sans-Serif" font-size="10.00">luaS_resize</text>
</a>
</g>
</g>
<!-- Node4&#45;&gt;Node13 -->
<g id="edge15" class="edge"><title>Node4&#45;&gt;Node13</title>
<path fill="none" stroke="midnightblue" d="M417.5,-342.5C439.686,-324.751 474.757,-296.695 493.032,-282.075"/>
<polygon fill="midnightblue" stroke="midnightblue" points="415.037,-339.988 409.415,-348.968 419.41,-345.454 415.037,-339.988"/>
</g>
<!-- Node6 -->
<g id="node6" class="node"><title>Node6</title>
<g id="a_node6"><a xlink:href="../../da/dd2/lua_8h.html#a6bac487d3f900b21271e8c591bd801cd" target="_top" xlink:title="lua_gc">
<polygon fill="none" stroke="black" points="866,-444 866,-463 910,-463 910,-444 866,-444"/>
<text text-anchor="middle" x="888" y="-451" font-family="Helvetica,sans-Serif" font-size="10.00">lua_gc</text>
</a>
</g>
</g>
<!-- Node5&#45;&gt;Node6 -->
<g id="edge5" class="edge"><title>Node5&#45;&gt;Node6</title>
<path fill="none" stroke="midnightblue" d="M822.334,-463.53C837.865,-461.121 853.69,-458.666 865.798,-456.789"/>
<polygon fill="midnightblue" stroke="midnightblue" points="821.558,-460.108 812.212,-465.1 822.631,-467.026 821.558,-460.108"/>
</g>
<!-- Node7 -->
<g id="node7" class="node"><title>Node7</title>
<g id="a_node7"><a xlink:href="../../d8/dd3/lbaselib_8c.html#a07f71966c943cc9761ab129f64d4ac80" target="_top" xlink:title="luaB_collectgarbage">
<polygon fill="none" stroke="black" points="967.5,-463 967.5,-482 1069.5,-482 1069.5,-463 967.5,-463"/>
<text text-anchor="middle" x="1018.5" y="-470" font-family="Helvetica,sans-Serif" font-size="10.00">luaB_collectgarbage</text>
</a>
</g>
</g>
<!-- Node6&#45;&gt;Node7 -->
<g id="edge6" class="edge"><title>Node6&#45;&gt;Node7</title>
<path fill="none" stroke="midnightblue" d="M920.39,-458.141C934.519,-460.23 951.549,-462.748 967.376,-465.089"/>
<polygon fill="midnightblue" stroke="midnightblue" points="920.624,-454.638 910.219,-456.637 919.6,-461.563 920.624,-454.638"/>
</g>
<!-- Node9 -->
<g id="node9" class="node"><title>Node9</title>
<g id="a_node9"><a xlink:href="../../dc/d9c/lgc_8h.html#a19359957605d7c8eaf70803e5b77361f" target="_top" xlink:title="luaC_forcestep">
<polygon fill="none" stroke="black" points="723.5,-349 723.5,-368 803.5,-368 803.5,-349 723.5,-349"/>
<text text-anchor="middle" x="763.5" y="-356" font-family="Helvetica,sans-Serif" font-size="10.00">luaC_forcestep</text>
</a>
</g>
</g>
<!-- Node8&#45;&gt;Node9 -->
<g id="edge8" class="edge"><title>Node8&#45;&gt;Node9</title>
<path fill="none" stroke="midnightblue" d="M689.252,-358.5C700.761,-358.5 712.506,-358.5 723.125,-358.5"/>
<polygon fill="midnightblue" stroke="midnightblue" points="689.232,-355 679.232,-358.5 689.232,-362 689.232,-355"/>
</g>
<!-- Node9&#45;&gt;Node6 -->
<g id="edge9" class="edge"><title>Node9&#45;&gt;Node6</title>
<path fill="none" stroke="midnightblue" d="M785.112,-374.485C810.714,-394.339 853.576,-427.579 874.603,-443.886"/>
<polygon fill="midnightblue" stroke="midnightblue" points="787.195,-371.671 777.148,-368.309 782.906,-377.203 787.195,-371.671"/>
</g>
<!-- Node10 -->
<g id="node10" class="node"><title>Node10</title>
<g id="a_node10"><a xlink:href="../../dc/d9c/lgc_8h.html#a6c71cc4b9e503c0e96c0c4ffcff93900" target="_top" xlink:title="luaC_step">
<polygon fill="none" stroke="black" points="857.5,-349 857.5,-368 918.5,-368 918.5,-349 857.5,-349"/>
<text text-anchor="middle" x="888" y="-356" font-family="Helvetica,sans-Serif" font-size="10.00">luaC_step</text>
</a>
</g>
</g>
<!-- Node9&#45;&gt;Node10 -->
<g id="edge10" class="edge"><title>Node9&#45;&gt;Node10</title>
<path fill="none" stroke="midnightblue" d="M813.61,-358.5C828.363,-358.5 844.095,-358.5 857.195,-358.5"/>
<polygon fill="midnightblue" stroke="midnightblue" points="813.597,-355 803.597,-358.5 813.597,-362 813.597,-355"/>
</g>
<!-- Node11&#45;&gt;Node6 -->
<g id="edge12" class="edge"><title>Node11&#45;&gt;Node6</title>
<path fill="none" stroke="midnightblue" d="M546.894,-408.732C556.064,-411.24 565.819,-413.669 575,-415.5 683.097,-437.056 814.861,-448.253 865.639,-452.018"/>
<polygon fill="midnightblue" stroke="midnightblue" points="547.803,-405.352 537.228,-406.004 545.902,-412.088 547.803,-405.352"/>
</g>
<!-- Node11&#45;&gt;Node8 -->
<g id="edge13" class="edge"><title>Node11&#45;&gt;Node8</title>
<path fill="none" stroke="midnightblue" d="M546.71,-383.82C562.789,-378.685 581.043,-372.856 595.981,-368.086"/>
<polygon fill="midnightblue" stroke="midnightblue" points="545.49,-380.535 537.029,-386.911 547.62,-387.203 545.49,-380.535"/>
</g>
<!-- Node12 -->
<g id="node12" class="node"><title>Node12</title>
<g id="a_node12"><a xlink:href="../../d7/d3e/lmem_8h.html#ae7dc8a57fc5dbca825653a88a356a72d" target="_top" xlink:title="luaM_realloc_">
<polygon fill="none" stroke="black" points="590,-387 590,-406 664,-406 664,-387 590,-387"/>
<text text-anchor="middle" x="627" y="-394" font-family="Helvetica,sans-Serif" font-size="10.00">luaM_realloc_</text>
</a>
</g>
</g>
<!-- Node11&#45;&gt;Node12 -->
<g id="edge14" class="edge"><title>Node11&#45;&gt;Node12</title>
<path fill="none" stroke="midnightblue" d="M547.176,-396.5C560.912,-396.5 576.189,-396.5 589.609,-396.5"/>
<polygon fill="midnightblue" stroke="midnightblue" points="547.029,-393 537.029,-396.5 547.029,-400 547.029,-393"/>
</g>
<!-- Node14 -->
<g id="node14" class="node"><title>Node14</title>
<g id="a_node14"><a xlink:href="../../de/d27/lgc_8c.html#aace8516e609d7409e789e7b2c190b9c2" target="_top" xlink:title="checkSizes">
<polygon fill="none" stroke="black" points="594.5,-197 594.5,-216 659.5,-216 659.5,-197 594.5,-197"/>
<text text-anchor="middle" x="627" y="-204" font-family="Helvetica,sans-Serif" font-size="10.00">checkSizes</text>
</a>
</g>
</g>
<!-- Node13&#45;&gt;Node14 -->
<g id="edge16" class="edge"><title>Node13&#45;&gt;Node14</title>
<path fill="none" stroke="midnightblue" d="M527.214,-256.544C540.317,-246.713 558.044,-234.342 575,-225.5 581.786,-221.961 589.384,-218.759 596.6,-216.036"/>
<polygon fill="midnightblue" stroke="midnightblue" points="524.763,-254.012 518.949,-262.869 529.017,-259.571 524.763,-254.012"/>
</g>
<!-- Node15 -->
<g id="node15" class="node"><title>Node15</title>
<g id="a_node15"><a xlink:href="../../dd/dca/lstate_8c.html#ab65e96a7498fd886f7223b92e91fd830" target="_top" xlink:title="f_luaopen">
<polygon fill="none" stroke="black" points="597.5,-235 597.5,-254 656.5,-254 656.5,-235 597.5,-235"/>
<text text-anchor="middle" x="627" y="-242" font-family="Helvetica,sans-Serif" font-size="10.00">f_luaopen</text>
</a>
</g>
</g>
<!-- Node13&#45;&gt;Node15 -->
<g id="edge18" class="edge"><title>Node13&#45;&gt;Node15</title>
<path fill="none" stroke="midnightblue" d="M549.365,-262.532C565.304,-258.781 583.036,-254.609 597.426,-251.223"/>
<polygon fill="midnightblue" stroke="midnightblue" points="548.136,-259.225 539.203,-264.923 549.739,-266.039 548.136,-259.225"/>
</g>
<!-- Node25 -->
<g id="node25" class="node"><title>Node25</title>
<g id="a_node25"><a xlink:href="../../d1/d2f/lstring_8c.html#a6e3c0fe3ba834ee00279a9df03f40fc4" target="_top" xlink:title="newshrstr">
<polygon fill="none" stroke="black" points="598,-273 598,-292 656,-292 656,-273 598,-273"/>
<text text-anchor="middle" x="627" y="-280" font-family="Helvetica,sans-Serif" font-size="10.00">newshrstr</text>
</a>
</g>
</g>
<!-- Node13&#45;&gt;Node25 -->
<g id="edge30" class="edge"><title>Node13&#45;&gt;Node25</title>
<path fill="none" stroke="midnightblue" d="M549.444,-276.067C565.51,-277.417 583.387,-278.919 597.823,-280.132"/>
<polygon fill="midnightblue" stroke="midnightblue" points="549.461,-272.556 539.203,-275.206 548.875,-279.531 549.461,-272.556"/>
</g>
<!-- Node14&#45;&gt;Node3 -->
<g id="edge17" class="edge"><title>Node14&#45;&gt;Node3</title>
<path fill="none" stroke="midnightblue" d="M584.224,-212.318C514.703,-221.999 377.015,-241.173 317.275,-249.493"/>
<polygon fill="midnightblue" stroke="midnightblue" points="584.95,-215.75 594.372,-210.904 583.985,-208.817 584.95,-215.75"/>
</g>
<!-- Node16 -->
<g id="node16" class="node"><title>Node16</title>
<g id="a_node16"><a xlink:href="../../da/dd2/lua_8h.html#af722e4ac7fc0eba5920f59f0162c1b97" target="_top" xlink:title="lua_newstate">
<polygon fill="none" stroke="black" points="726.5,-159 726.5,-178 800.5,-178 800.5,-159 726.5,-159"/>
<text text-anchor="middle" x="763.5" y="-166" font-family="Helvetica,sans-Serif" font-size="10.00">lua_newstate</text>
</a>
</g>
</g>
<!-- Node15&#45;&gt;Node16 -->
<g id="edge19" class="edge"><title>Node15&#45;&gt;Node16</title>
<path fill="none" stroke="midnightblue" d="M666.164,-231.448C670.561,-229.603 674.925,-227.61 679,-225.5 705.965,-211.537 734.618,-190.415 750.363,-178.187"/>
<polygon fill="midnightblue" stroke="midnightblue" points="664.597,-228.304 656.586,-235.237 667.172,-234.813 664.597,-228.304"/>
</g>
<!-- Node17 -->
<g id="node17" class="node"><title>Node17</title>
<g id="a_node17"><a xlink:href="../../da/d29/lauxlib_8h.html#a7d8712fcede90ae93d5a9a7b409c586e" target="_top" xlink:title="luaL_newstate">
<polygon fill="none" stroke="black" points="848,-88 848,-107 928,-107 928,-88 848,-88"/>
<text text-anchor="middle" x="888" y="-95" font-family="Helvetica,sans-Serif" font-size="10.00">luaL_newstate</text>
</a>
</g>
</g>
<!-- Node16&#45;&gt;Node17 -->
<g id="edge20" class="edge"><title>Node16&#45;&gt;Node17</title>
<path fill="none" stroke="midnightblue" d="M789.967,-153.74C814.1,-139.752 849.647,-119.149 870.35,-107.15"/>
<polygon fill="midnightblue" stroke="midnightblue" points="787.918,-150.882 781.021,-158.925 791.428,-156.938 787.918,-150.882"/>
</g>
<!-- Node24 -->
<g id="node24" class="node"><title>Node24</title>
<g id="a_node24"><a xlink:href="../../dd/dca/lstate_8c.html#a8a0fc0aca5367250347c6bb6a788f05f" target="_top" xlink:title="makeseed">
<polygon fill="none" stroke="black" points="857.5,-159 857.5,-178 918.5,-178 918.5,-159 857.5,-159"/>
<text text-anchor="middle" x="888" y="-166" font-family="Helvetica,sans-Serif" font-size="10.00">makeseed</text>
</a>
</g>
</g>
<!-- Node16&#45;&gt;Node24 -->
<g id="edge28" class="edge"><title>Node16&#45;&gt;Node24</title>
<path fill="none" stroke="midnightblue" d="M810.627,-161.936C826.276,-161.543 843.331,-161.772 857.346,-162.622"/>
<polygon fill="midnightblue" stroke="midnightblue" points="810.464,-158.44 800.591,-162.284 810.707,-165.436 810.464,-158.44"/>
</g>
<!-- Node18 -->
<g id="node18" class="node"><title>Node18</title>
<g id="a_node18"><a xlink:href="../../dc/de7/interface_kensho_lua_wrapper.html#a7d10aa0242861cdd109d3da9383882a2" target="_top" xlink:title="&#45;[KenshoLuaWrapper\l evaluate]">
<polygon fill="none" stroke="black" points="964,-60.5 964,-90.5 1073,-90.5 1073,-60.5 964,-60.5"/>
<text text-anchor="start" x="972" y="-78.5" font-family="Helvetica,sans-Serif" font-size="10.00">&#45;[KenshoLuaWrapper</text>
<text text-anchor="middle" x="1018.5" y="-67.5" font-family="Helvetica,sans-Serif" font-size="10.00"> evaluate]</text>
</a>
</g>
</g>
<!-- Node17&#45;&gt;Node18 -->
<g id="edge21" class="edge"><title>Node17&#45;&gt;Node18</title>
<path fill="none" stroke="midnightblue" d="M938.242,-89.0695C946.612,-87.6365 955.341,-86.1419 963.819,-84.6906"/>
<polygon fill="midnightblue" stroke="midnightblue" points="937.518,-85.6423 928.252,-90.7797 938.7,-92.5419 937.518,-85.6423"/>
</g>
<!-- Node19 -->
<g id="node19" class="node"><title>Node19</title>
<g id="a_node19"><a xlink:href="../../dc/de7/interface_kensho_lua_wrapper.html#af6db46358f8858a18b55388aa3af211d" target="_top" xlink:title="&#45;[KenshoLuaWrapper\l initWithKensho:context\l:code:]">
<polygon fill="none" stroke="black" points="1109,-99 1109,-140 1223,-140 1223,-99 1109,-99"/>
<text text-anchor="start" x="1117" y="-128" font-family="Helvetica,sans-Serif" font-size="10.00">&#45;[KenshoLuaWrapper</text>
<text text-anchor="start" x="1117" y="-117" font-family="Helvetica,sans-Serif" font-size="10.00"> initWithKensho:context</text>
<text text-anchor="middle" x="1166" y="-106" font-family="Helvetica,sans-Serif" font-size="10.00">:code:]</text>
</a>
</g>
</g>
<!-- Node18&#45;&gt;Node19 -->
<g id="edge22" class="edge"><title>Node18&#45;&gt;Node19</title>
<path fill="none" stroke="midnightblue" d="M1078.91,-93.4647C1088.79,-96.453 1099.01,-99.5442 1108.81,-102.507"/>
<polygon fill="midnightblue" stroke="midnightblue" points="1079.75,-90.0637 1069.17,-90.5192 1077.72,-96.7641 1079.75,-90.0637"/>
</g>
<!-- Node20 -->
<g id="node20" class="node"><title>Node20</title>
<g id="a_node20"><a xlink:href="../../dc/de7/interface_kensho_lua_wrapper.html#a5555e0979799446611baee70104555c6" target="_top" xlink:title="&#45;[KenshoLuaWrapper\l evaluate:]">
<polygon fill="none" stroke="black" points="1111.5,-49.5 1111.5,-79.5 1220.5,-79.5 1220.5,-49.5 1111.5,-49.5"/>
<text text-anchor="start" x="1119.5" y="-67.5" font-family="Helvetica,sans-Serif" font-size="10.00">&#45;[KenshoLuaWrapper</text>
<text text-anchor="middle" x="1166" y="-56.5" font-family="Helvetica,sans-Serif" font-size="10.00"> evaluate:]</text>
</a>
</g>
</g>
<!-- Node18&#45;&gt;Node20 -->
<g id="edge23" class="edge"><title>Node18&#45;&gt;Node20</title>
<path fill="none" stroke="midnightblue" d="M1083.34,-70.6737C1092.72,-69.9643 1102.31,-69.2397 1111.46,-68.548"/>
<polygon fill="midnightblue" stroke="midnightblue" points="1082.97,-67.1913 1073.27,-71.4353 1083.5,-74.1713 1082.97,-67.1913"/>
</g>
<!-- Node23 -->
<g id="node23" class="node"><title>Node23</title>
<g id="a_node23"><a xlink:href="../../dc/de7/interface_kensho_lua_wrapper.html#a0bb5e125d727942726d707f8b59009dc" target="_top" xlink:title="&#45;[KenshoLuaWrapper\l observableUpdated:]">
<polygon fill="none" stroke="black" points="1111.5,-0.5 1111.5,-30.5 1220.5,-30.5 1220.5,-0.5 1111.5,-0.5"/>
<text text-anchor="start" x="1119.5" y="-18.5" font-family="Helvetica,sans-Serif" font-size="10.00">&#45;[KenshoLuaWrapper</text>
<text text-anchor="middle" x="1166" y="-7.5" font-family="Helvetica,sans-Serif" font-size="10.00"> observableUpdated:]</text>
</a>
</g>
</g>
<!-- Node18&#45;&gt;Node23 -->
<g id="edge27" class="edge"><title>Node18&#45;&gt;Node23</title>
<path fill="none" stroke="midnightblue" d="M1065.6,-56.4895C1085.93,-48.1072 1109.48,-38.3967 1128.55,-30.5317"/>
<polygon fill="midnightblue" stroke="midnightblue" points="1064.13,-53.3114 1056.22,-60.3595 1066.79,-59.7828 1064.13,-53.3114"/>
</g>
<!-- Node21 -->
<g id="node21" class="node"><title>Node21</title>
<g id="a_node21"><a xlink:href="../../da/d0b/interface_kensho.html#a07b4d14db676108e1a94a1f10e100fb4" target="_top" xlink:title="&#45;[Kensho bindToView\l:context:]">
<polygon fill="none" stroke="black" points="1259,-49.5 1259,-79.5 1367,-79.5 1367,-49.5 1259,-49.5"/>
<text text-anchor="start" x="1267" y="-67.5" font-family="Helvetica,sans-Serif" font-size="10.00">&#45;[Kensho bindToView</text>
<text text-anchor="middle" x="1313" y="-56.5" font-family="Helvetica,sans-Serif" font-size="10.00">:context:]</text>
</a>
</g>
</g>
<!-- Node20&#45;&gt;Node21 -->
<g id="edge24" class="edge"><title>Node20&#45;&gt;Node21</title>
<path fill="none" stroke="midnightblue" d="M1230.62,-64.5C1239.97,-64.5 1249.52,-64.5 1258.64,-64.5"/>
<polygon fill="midnightblue" stroke="midnightblue" points="1230.58,-61.0001 1220.58,-64.5 1230.58,-68.0001 1230.58,-61.0001"/>
</g>
<!-- Node21&#45;&gt;Node21 -->
<g id="edge26" class="edge"><title>Node21&#45;&gt;Node21</title>
<path fill="none" stroke="midnightblue" d="M1287.06,-89.9579C1290.28,-94.679 1298.92,-98 1313,-98 1336.1,-98 1344.58,-89.0566 1338.44,-79.659"/>
<polygon fill="midnightblue" stroke="midnightblue" points="1290.57,-89.8167 1287.56,-79.659 1283.58,-89.4779 1290.57,-89.8167"/>
</g>
<!-- Node22 -->
<g id="node22" class="node"><title>Node22</title>
<g id="a_node22"><a xlink:href="../../da/d0b/interface_kensho.html#a1019e8223ee907bab87501ae483e609f" target="_top" xlink:title="&#45;[Kensho applyBindings\l:viewModel:]">
<polygon fill="none" stroke="black" points="1403,-49.5 1403,-79.5 1522,-79.5 1522,-49.5 1403,-49.5"/>
<text text-anchor="start" x="1411" y="-67.5" font-family="Helvetica,sans-Serif" font-size="10.00">&#45;[Kensho applyBindings</text>
<text text-anchor="middle" x="1462.5" y="-56.5" font-family="Helvetica,sans-Serif" font-size="10.00">:viewModel:]</text>
</a>
</g>
</g>
<!-- Node21&#45;&gt;Node22 -->
<g id="edge25" class="edge"><title>Node21&#45;&gt;Node22</title>
<path fill="none" stroke="midnightblue" d="M1377.42,-64.5C1385.86,-64.5 1394.48,-64.5 1402.83,-64.5"/>
<polygon fill="midnightblue" stroke="midnightblue" points="1377.25,-61.0001 1367.25,-64.5 1377.25,-68.0001 1377.25,-61.0001"/>
</g>
<!-- Node24&#45;&gt;Node16 -->
<g id="edge29" class="edge"><title>Node24&#45;&gt;Node16</title>
<path fill="none" stroke="midnightblue" d="M847.312,-174.864C832.284,-175.424 815.271,-175.375 800.591,-174.716"/>
<polygon fill="midnightblue" stroke="midnightblue" points="847.527,-178.357 857.346,-174.378 847.189,-171.366 847.527,-178.357"/>
</g>
<!-- Node26 -->
<g id="node26" class="node"><title>Node26</title>
<g id="a_node26"><a xlink:href="../../d1/d2f/lstring_8c.html#a9b2c32c59a280de24f20df1c7f0433a1" target="_top" xlink:title="internshrstr">
<polygon fill="none" stroke="black" points="733,-273 733,-292 794,-292 794,-273 733,-273"/>
<text text-anchor="middle" x="763.5" y="-280" font-family="Helvetica,sans-Serif" font-size="10.00">internshrstr</text>
</a>
</g>
</g>
<!-- Node25&#45;&gt;Node26 -->
<g id="edge31" class="edge"><title>Node25&#45;&gt;Node26</title>
<path fill="none" stroke="midnightblue" d="M666.455,-282.5C687.59,-282.5 713.403,-282.5 732.944,-282.5"/>
<polygon fill="midnightblue" stroke="midnightblue" points="666.196,-279 656.196,-282.5 666.196,-286 666.196,-279"/>
</g>
<!-- Node27 -->
<g id="node27" class="node"><title>Node27</title>
<g id="a_node27"><a xlink:href="../../d4/dfb/lstring_8h.html#a248e72694b9116b07b2e7f4a9a3a5331" target="_top" xlink:title="luaS_newlstr">
<polygon fill="none" stroke="black" points="852.5,-273 852.5,-292 923.5,-292 923.5,-273 852.5,-273"/>
<text text-anchor="middle" x="888" y="-280" font-family="Helvetica,sans-Serif" font-size="10.00">luaS_newlstr</text>
</a>
</g>
</g>
<!-- Node26&#45;&gt;Node27 -->
<g id="edge32" class="edge"><title>Node26&#45;&gt;Node27</title>
<path fill="none" stroke="midnightblue" d="M804.477,-282.5C819.949,-282.5 837.489,-282.5 852.408,-282.5"/>
<polygon fill="midnightblue" stroke="midnightblue" points="804.154,-279 794.154,-282.5 804.154,-286 804.154,-279"/>
</g>
<!-- Node28 -->
<g id="node28" class="node"><title>Node28</title>
<g id="a_node28"><a xlink:href="../../da/dd2/lua_8h.html#a4ab8500ade8e1d8a87b1df1baf19b179" target="_top" xlink:title="lua_pushlstring">
<polygon fill="none" stroke="black" points="978.5,-273 978.5,-292 1058.5,-292 1058.5,-273 978.5,-273"/>
<text text-anchor="middle" x="1018.5" y="-280" font-family="Helvetica,sans-Serif" font-size="10.00">lua_pushlstring</text>
</a>
</g>
</g>
<!-- Node27&#45;&gt;Node28 -->
<g id="edge33" class="edge"><title>Node27&#45;&gt;Node28</title>
<path fill="none" stroke="midnightblue" d="M933.962,-282.5C948.365,-282.5 964.193,-282.5 978.161,-282.5"/>
<polygon fill="midnightblue" stroke="midnightblue" points="933.774,-279 923.774,-282.5 933.774,-286 933.774,-279"/>
</g>
<!-- Node37 -->
<g id="node37" class="node"><title>Node37</title>
<g id="a_node37"><a xlink:href="../../da/dd2/lua_8h.html#a4eba0457df5bafff4d44071d1d8080b6" target="_top" xlink:title="lua_concat">
<polygon fill="none" stroke="red" points="1135,-159 1135,-178 1197,-178 1197,-159 1135,-159"/>
<text text-anchor="middle" x="1166" y="-166" font-family="Helvetica,sans-Serif" font-size="10.00">lua_concat</text>
</a>
</g>
</g>
<!-- Node27&#45;&gt;Node37 -->
<g id="edge44" class="edge"><title>Node27&#45;&gt;Node37</title>
<path fill="none" stroke="midnightblue" d="M933.177,-270.215C979.187,-257.172 1047.98,-236.901 1073,-225.5 1102.75,-211.944 1134.56,-190.483 1151.89,-178.126"/>
<polygon fill="midnightblue" stroke="midnightblue" points="932.116,-266.878 923.443,-272.963 934.018,-273.615 932.116,-266.878"/>
</g>
<!-- Node39 -->
<g id="node39" class="node"><title>Node39</title>
<g id="a_node39"><a xlink:href="../../dd/d05/lcode_8h.html#a4f928250a0f4007764b4d3777651f617" target="_top" xlink:title="luaK_numberK">
<polygon fill="none" stroke="red" points="978.5,-159 978.5,-178 1058.5,-178 1058.5,-159 978.5,-159"/>
<text text-anchor="middle" x="1018.5" y="-166" font-family="Helvetica,sans-Serif" font-size="10.00">luaK_numberK</text>
</a>
</g>
</g>
<!-- Node27&#45;&gt;Node39 -->
<g id="edge46" class="edge"><title>Node27&#45;&gt;Node39</title>
<path fill="none" stroke="midnightblue" d="M899.075,-264.248C911.668,-243.005 935.118,-208.201 964,-187.5 969.287,-183.71 975.405,-180.612 981.572,-178.1"/>
<polygon fill="midnightblue" stroke="midnightblue" points="896.02,-262.54 894.073,-272.955 902.089,-266.028 896.02,-262.54"/>
</g>
<!-- Node40 -->
<g id="node40" class="node"><title>Node40</title>
<g id="a_node40"><a xlink:href="../../d8/d27/llex_8h.html#aa6e79179f823cf156f61899a09239ca6" target="_top" xlink:title="luaX_newstring">
<polygon fill="none" stroke="red" points="978,-121 978,-140 1059,-140 1059,-121 978,-121"/>
<text text-anchor="middle" x="1018.5" y="-128" font-family="Helvetica,sans-Serif" font-size="10.00">luaX_newstring</text>
</a>
</g>
</g>
<!-- Node27&#45;&gt;Node40 -->
<g id="edge47" class="edge"><title>Node27&#45;&gt;Node40</title>
<path fill="none" stroke="midnightblue" d="M894.958,-263.265C904.802,-234.543 927.123,-180.517 964,-149.5 968.601,-145.63 974.047,-142.525 979.675,-140.041"/>
<polygon fill="midnightblue" stroke="midnightblue" points="891.578,-262.34 891.792,-272.932 898.231,-264.518 891.578,-262.34"/>
</g>
<!-- Node41 -->
<g id="node41" class="node"><title>Node41</title>
<g id="a_node41"><a xlink:href="../../d7/d9b/lobject_8c.html#aa65db03553a5abd73e466d307bb17a37" target="_top" xlink:title="pushstr">
<polygon fill="none" stroke="red" points="994.5,-425 994.5,-444 1042.5,-444 1042.5,-425 994.5,-425"/>
<text text-anchor="middle" x="1018.5" y="-432" font-family="Helvetica,sans-Serif" font-size="10.00">pushstr</text>
</a>
</g>
</g>
<!-- Node27&#45;&gt;Node41 -->
<g id="edge48" class="edge"><title>Node27&#45;&gt;Node41</title>
<path fill="none" stroke="midnightblue" d="M902.459,-300.587C910.35,-311.564 920.257,-326.015 928,-339.5 946.611,-371.913 936.269,-390.441 964,-415.5 972.41,-423.1 984.06,-427.706 994.343,-430.474"/>
<polygon fill="midnightblue" stroke="midnightblue" points="905.119,-298.295 896.397,-292.281 899.465,-302.422 905.119,-298.295"/>
</g>
<!-- Node42 -->
<g id="node42" class="node"><title>Node42</title>
<g id="a_node42"><a xlink:href="../../d4/dfb/lstring_8h.html#a6929da8cfde3e74a0d51a6467909ef9d" target="_top" xlink:title="luaS_new">
<polygon fill="none" stroke="red" points="988.5,-387 988.5,-406 1048.5,-406 1048.5,-387 988.5,-387"/>
<text text-anchor="middle" x="1018.5" y="-394" font-family="Helvetica,sans-Serif" font-size="10.00">luaS_new</text>
</a>
</g>
</g>
<!-- Node27&#45;&gt;Node42 -->
<g id="edge49" class="edge"><title>Node27&#45;&gt;Node42</title>
<path fill="none" stroke="midnightblue" d="M901.345,-300.455C918.399,-324.824 948.78,-366.591 964,-377.5 971.21,-382.668 979.963,-386.55 988.283,-389.413"/>
<polygon fill="midnightblue" stroke="midnightblue" points="904.1,-298.285 895.521,-292.067 898.35,-302.277 904.1,-298.285"/>
</g>
<!-- Node43 -->
<g id="node43" class="node"><title>Node43</title>
<g id="a_node43"><a xlink:href="../../de/d2f/lundump_8c.html#abfe7dabe70bd14e27d54d3cedc6cb70a" target="_top" xlink:title="LoadString">
<polygon fill="none" stroke="red" points="987.5,-349 987.5,-368 1049.5,-368 1049.5,-349 987.5,-349"/>
<text text-anchor="middle" x="1018.5" y="-356" font-family="Helvetica,sans-Serif" font-size="10.00">LoadString</text>
</a>
</g>
</g>
<!-- Node27&#45;&gt;Node43 -->
<g id="edge50" class="edge"><title>Node27&#45;&gt;Node43</title>
<path fill="none" stroke="midnightblue" d="M907.171,-298.879C921.715,-311.33 943.074,-328.188 964,-339.5 971.283,-343.437 979.547,-346.836 987.364,-349.626"/>
<polygon fill="midnightblue" stroke="midnightblue" points="909.283,-296.077 899.45,-292.133 904.678,-301.348 909.283,-296.077"/>
</g>
<!-- Node44 -->
<g id="node44" class="node"><title>Node44</title>
<g id="a_node44"><a xlink:href="../../d5/dcd/lvm_8h.html#abcde68a7697547dc2c7f1d0e6734e611" target="_top" xlink:title="luaV_tostring">
<polygon fill="none" stroke="red" points="983,-311 983,-330 1054,-330 1054,-311 983,-311"/>
<text text-anchor="middle" x="1018.5" y="-318" font-family="Helvetica,sans-Serif" font-size="10.00">luaV_tostring</text>
</a>
</g>
</g>
<!-- Node27&#45;&gt;Node44 -->
<g id="edge51" class="edge"><title>Node27&#45;&gt;Node44</title>
<path fill="none" stroke="midnightblue" d="M931.389,-295.035C948.87,-300.205 968.802,-306.099 985.084,-310.914"/>
<polygon fill="midnightblue" stroke="midnightblue" points="932.008,-291.569 921.426,-292.089 930.023,-298.281 932.008,-291.569"/>
</g>
<!-- Node45 -->
<g id="node45" class="node"><title>Node45</title>
<g id="a_node45"><a xlink:href="../../d5/dcd/lvm_8h.html#aee84bfc563cb4bdd21a013218a289aa7" target="_top" xlink:title="luaV_concat">
<polygon fill="none" stroke="red" points="984,-197 984,-216 1053,-216 1053,-197 984,-197"/>
<text text-anchor="middle" x="1018.5" y="-204" font-family="Helvetica,sans-Serif" font-size="10.00">luaV_concat</text>
</a>
</g>
</g>
<!-- Node27&#45;&gt;Node45 -->
<g id="edge52" class="edge"><title>Node27&#45;&gt;Node45</title>
<path fill="none" stroke="midnightblue" d="M909.621,-266.658C924.322,-255.753 944.805,-241.337 964,-230.5 973.397,-225.195 984.184,-220.168 993.6,-216.099"/>
<polygon fill="midnightblue" stroke="midnightblue" points="907.167,-264.123 901.277,-272.93 911.374,-269.718 907.167,-264.123"/>
</g>
<!-- Node29 -->
<g id="node29" class="node"><title>Node29</title>
<g id="a_node29"><a xlink:href="../../da/d29/lauxlib_8h.html#aac5dfab9ba0ced4f5ae3b22aa35faffe" target="_top" xlink:title="luaL_pushresult">
<polygon fill="none" stroke="red" points="1124.5,-463 1124.5,-482 1207.5,-482 1207.5,-463 1124.5,-463"/>
<text text-anchor="middle" x="1166" y="-470" font-family="Helvetica,sans-Serif" font-size="10.00">luaL_pushresult</text>
</a>
</g>
</g>
<!-- Node28&#45;&gt;Node29 -->
<g id="edge34" class="edge"><title>Node28&#45;&gt;Node29</title>
<path fill="none" stroke="midnightblue" d="M1067.25,-296.287C1069.34,-297.843 1071.27,-299.574 1073,-301.5 1119.35,-353.185 1062.28,-402.145 1109,-453.5 1113.21,-458.133 1118.6,-461.636 1124.36,-464.286"/>
<polygon fill="midnightblue" stroke="midnightblue" points="1069,-293.251 1058.62,-291.116 1065.4,-299.256 1069,-293.251"/>
</g>
<!-- Node30 -->
<g id="node30" class="node"><title>Node30</title>
<g id="a_node30"><a xlink:href="../../de/df3/liolib_8c.html#ace61fce0bdea311d6d7c2206881165c7" target="_top" xlink:title="test_eof">
<polygon fill="none" stroke="red" points="1141,-425 1141,-444 1191,-444 1191,-425 1141,-425"/>
<text text-anchor="middle" x="1166" y="-432" font-family="Helvetica,sans-Serif" font-size="10.00">test_eof</text>
</a>
</g>
</g>
<!-- Node28&#45;&gt;Node30 -->
<g id="edge35" class="edge"><title>Node28&#45;&gt;Node30</title>
<path fill="none" stroke="midnightblue" d="M1067.64,-296.842C1069.56,-298.252 1071.36,-299.8 1073,-301.5 1109.9,-339.729 1071.83,-377.533 1109,-415.5 1117.4,-424.083 1129.82,-428.79 1140.83,-431.37"/>
<polygon fill="midnightblue" stroke="midnightblue" points="1069,-293.581 1058.61,-291.504 1065.44,-299.607 1069,-293.581"/>
</g>
<!-- Node31 -->
<g id="node31" class="node"><title>Node31</title>
<g id="a_node31"><a xlink:href="../../d2/d82/loadlib_8c.html#aa1ea5ee1b54a06650a887c4ee05a8547" target="_top" xlink:title="pushnexttemplate">
<polygon fill="none" stroke="red" points="1120,-387 1120,-406 1212,-406 1212,-387 1120,-387"/>
<text text-anchor="middle" x="1166" y="-394" font-family="Helvetica,sans-Serif" font-size="10.00">pushnexttemplate</text>
</a>
</g>
</g>
<!-- Node28&#45;&gt;Node31 -->
<g id="edge36" class="edge"><title>Node28&#45;&gt;Node31</title>
<path fill="none" stroke="midnightblue" d="M1066.84,-296.884C1069.02,-298.285 1071.09,-299.82 1073,-301.5 1099.57,-324.866 1083.19,-348.301 1109,-372.5 1115.56,-378.65 1123.94,-383.361 1132.2,-386.912"/>
<polygon fill="midnightblue" stroke="midnightblue" points="1068.49,-293.794 1058.03,-292.115 1065.16,-299.951 1068.49,-293.794"/>
</g>
<!-- Node32 -->
<g id="node32" class="node"><title>Node32</title>
<g id="a_node32"><a xlink:href="../../d2/d82/loadlib_8c.html#a91ac5b5231cf039af46226806dcc3884" target="_top" xlink:title="loadfunc">
<polygon fill="none" stroke="red" points="1140,-235 1140,-254 1192,-254 1192,-235 1140,-235"/>
<text text-anchor="middle" x="1166" y="-242" font-family="Helvetica,sans-Serif" font-size="10.00">loadfunc</text>
</a>
</g>
</g>
<!-- Node28&#45;&gt;Node32 -->
<g id="edge37" class="edge"><title>Node28&#45;&gt;Node32</title>
<path fill="none" stroke="midnightblue" d="M1066.03,-270.349C1090.47,-263.964 1119.48,-256.388 1139.75,-251.095"/>
<polygon fill="midnightblue" stroke="midnightblue" points="1065.01,-266.998 1056.22,-272.911 1066.78,-273.77 1065.01,-266.998"/>
</g>
<!-- Node33 -->
<g id="node33" class="node"><title>Node33</title>
<g id="a_node33"><a xlink:href="../../d2/d82/loadlib_8c.html#a1ec05cd98a045c271aeda9f9c6041e1c" target="_top" xlink:title="searcher_Croot">
<polygon fill="none" stroke="red" points="1273,-216 1273,-235 1353,-235 1353,-216 1273,-216"/>
<text text-anchor="middle" x="1313" y="-223" font-family="Helvetica,sans-Serif" font-size="10.00">searcher_Croot</text>
</a>
</g>
</g>
<!-- Node28&#45;&gt;Node33 -->
<g id="edge39" class="edge"><title>Node28&#45;&gt;Node33</title>
<path fill="none" stroke="midnightblue" d="M1054.36,-268.816C1060.76,-265.766 1067.23,-262.296 1073,-258.5 1091.13,-246.572 1088.77,-233.369 1109,-225.5 1162.7,-204.611 1230.61,-210.404 1272.68,-217.318"/>
<polygon fill="midnightblue" stroke="midnightblue" points="1052.82,-265.673 1045.14,-272.973 1055.7,-272.055 1052.82,-265.673"/>
</g>
<!-- Node34 -->
<g id="node34" class="node"><title>Node34</title>
<g id="a_node34"><a xlink:href="../../dc/d77/lstrlib_8c.html#a039b391d5f43533a0ce750c5e40d7752" target="_top" xlink:title="str_sub">
<polygon fill="none" stroke="black" points="1142,-273 1142,-292 1190,-292 1190,-273 1142,-273"/>
<text text-anchor="middle" x="1166" y="-280" font-family="Helvetica,sans-Serif" font-size="10.00">str_sub</text>
</a>
</g>
</g>
<!-- Node28&#45;&gt;Node34 -->
<g id="edge40" class="edge"><title>Node28&#45;&gt;Node34</title>
<path fill="none" stroke="midnightblue" d="M1069.17,-282.5C1093.83,-282.5 1122.45,-282.5 1141.94,-282.5"/>
<polygon fill="midnightblue" stroke="midnightblue" points="1068.87,-279 1058.87,-282.5 1068.87,-286 1068.87,-279"/>
</g>
<!-- Node35 -->
<g id="node35" class="node"><title>Node35</title>
<g id="a_node35"><a xlink:href="../../dc/d77/lstrlib_8c.html#a24a14b4e6e90bac4610dd334bb0b51b6" target="_top" xlink:title="push_onecapture">
<polygon fill="none" stroke="red" points="1120.5,-311 1120.5,-330 1211.5,-330 1211.5,-311 1120.5,-311"/>
<text text-anchor="middle" x="1166" y="-318" font-family="Helvetica,sans-Serif" font-size="10.00">push_onecapture</text>
</a>
</g>
</g>
<!-- Node28&#45;&gt;Node35 -->
<g id="edge41" class="edge"><title>Node28&#45;&gt;Node35</title>
<path fill="none" stroke="midnightblue" d="M1066.15,-294.684C1086.35,-299.96 1109.65,-306.044 1128.55,-310.98"/>
<polygon fill="midnightblue" stroke="midnightblue" points="1066.78,-291.23 1056.22,-292.089 1065.01,-298.002 1066.78,-291.23"/>
</g>
<!-- Node36 -->
<g id="node36" class="node"><title>Node36</title>
<g id="a_node36"><a xlink:href="../../dc/d77/lstrlib_8c.html#ad24cfa73e5ad25ec99a1b48f0916471e" target="_top" xlink:title="add_value">
<polygon fill="none" stroke="red" points="1282,-330 1282,-349 1344,-349 1344,-330 1282,-330"/>
<text text-anchor="middle" x="1313" y="-337" font-family="Helvetica,sans-Serif" font-size="10.00">add_value</text>
</a>
</g>
</g>
<!-- Node28&#45;&gt;Node36 -->
<g id="edge43" class="edge"><title>Node28&#45;&gt;Node36</title>
<path fill="none" stroke="midnightblue" d="M1063.21,-296.032C1066.62,-297.682 1069.93,-299.501 1073,-301.5 1092.5,-314.188 1087.63,-330.308 1109,-339.5 1166.14,-364.079 1240.99,-354.766 1281.96,-346.611"/>
<polygon fill="midnightblue" stroke="midnightblue" points="1064.6,-292.82 1054.03,-292.056 1061.81,-299.243 1064.6,-292.82"/>
</g>
<!-- Node32&#45;&gt;Node33 -->
<g id="edge38" class="edge"><title>Node32&#45;&gt;Node33</title>
<path fill="none" stroke="midnightblue" d="M1202.21,-239.886C1223.55,-237.089 1250.82,-233.516 1272.84,-230.631"/>
<polygon fill="midnightblue" stroke="midnightblue" points="1201.72,-236.421 1192.26,-241.19 1202.63,-243.361 1201.72,-236.421"/>
</g>
<!-- Node35&#45;&gt;Node36 -->
<g id="edge42" class="edge"><title>Node35&#45;&gt;Node36</title>
<path fill="none" stroke="midnightblue" d="M1221.81,-327.682C1242.19,-330.352 1264.55,-333.282 1281.91,-335.557"/>
<polygon fill="midnightblue" stroke="midnightblue" points="1222.06,-324.185 1211.69,-326.356 1221.15,-331.125 1222.06,-324.185"/>
</g>
<!-- Node38 -->
<g id="node38" class="node"><title>Node38</title>
<g id="a_node38"><a xlink:href="../../d0/d56/lauxlib_8c.html#a36c8f149b779f8c9a5c042ea9784d80a" target="_top" xlink:title="findfield">
<polygon fill="none" stroke="red" points="1289.5,-159 1289.5,-178 1336.5,-178 1336.5,-159 1289.5,-159"/>
<text text-anchor="middle" x="1313" y="-166" font-family="Helvetica,sans-Serif" font-size="10.00">findfield</text>
</a>
</g>
</g>
<!-- Node37&#45;&gt;Node38 -->
<g id="edge45" class="edge"><title>Node37&#45;&gt;Node38</title>
<path fill="none" stroke="midnightblue" d="M1207.14,-168.5C1233.55,-168.5 1267.17,-168.5 1289.13,-168.5"/>
<polygon fill="midnightblue" stroke="midnightblue" points="1207.04,-165 1197.04,-168.5 1207.04,-172 1207.04,-165"/>
</g>
<!-- Node45&#45;&gt;Node37 -->
<g id="edge53" class="edge"><title>Node45&#45;&gt;Node37</title>
<path fill="none" stroke="midnightblue" d="M1063.18,-195.093C1086.33,-189.047 1114.18,-181.773 1134.9,-176.362"/>
<polygon fill="midnightblue" stroke="midnightblue" points="1062.04,-191.773 1053.25,-197.687 1063.81,-198.546 1062.04,-191.773"/>
</g>
<!-- Node46&#45;&gt;Node9 -->
<g id="edge55" class="edge"><title>Node46&#45;&gt;Node9</title>
<path fill="none" stroke="midnightblue" d="M430.231,-288.863C482.771,-299.137 589.153,-320.184 679,-339.5 693.535,-342.625 709.456,-346.207 723.461,-349.414"/>
<polygon fill="midnightblue" stroke="midnightblue" points="430.647,-285.378 420.161,-286.897 429.305,-292.249 430.647,-285.378"/>
</g>
<!-- Node48 -->
<g id="node48" class="node"><title>Node48</title>
<g id="a_node48"><a xlink:href="../../dd/dca/lstate_8c.html#a4940327dfa3b86df0ef008180bb3fcb3" target="_top" xlink:title="close_state">
<polygon fill="none" stroke="black" points="255,-159 255,-178 320,-178 320,-159 255,-159"/>
<text text-anchor="middle" x="287.5" y="-166" font-family="Helvetica,sans-Serif" font-size="10.00">close_state</text>
</a>
</g>
</g>
<!-- Node47&#45;&gt;Node48 -->
<g id="edge57" class="edge"><title>Node47&#45;&gt;Node48</title>
<path fill="none" stroke="midnightblue" d="M229.462,-168.5C238.179,-168.5 246.881,-168.5 254.768,-168.5"/>
<polygon fill="midnightblue" stroke="midnightblue" points="229.271,-165 219.271,-168.5 229.271,-172 229.271,-165"/>
</g>
<!-- Node48&#45;&gt;Node16 -->
<g id="edge58" class="edge"><title>Node48&#45;&gt;Node16</title>
<path fill="none" stroke="midnightblue" d="M330.378,-168.5C422.214,-168.5 639.978,-168.5 726.324,-168.5"/>
<polygon fill="midnightblue" stroke="midnightblue" points="330.337,-165 320.336,-168.5 330.336,-172 330.337,-165"/>
</g>
<!-- Node49 -->
<g id="node49" class="node"><title>Node49</title>
<g id="a_node49"><a xlink:href="../../da/dd2/lua_8h.html#afe030a97e84f24dfab3afb598faa2fff" target="_top" xlink:title="lua_close">
<polygon fill="none" stroke="black" points="368.5,-121 368.5,-140 424.5,-140 424.5,-121 368.5,-121"/>
<text text-anchor="middle" x="396.5" y="-128" font-family="Helvetica,sans-Serif" font-size="10.00">lua_close</text>
</a>
</g>
</g>
<!-- Node48&#45;&gt;Node49 -->
<g id="edge59" class="edge"><title>Node48&#45;&gt;Node49</title>
<path fill="none" stroke="midnightblue" d="M325.026,-155.528C339.281,-150.466 355.33,-144.766 368.508,-140.086"/>
<polygon fill="midnightblue" stroke="midnightblue" points="323.753,-152.266 315.501,-158.911 326.095,-158.862 323.753,-152.266"/>
</g>
<!-- Node50 -->
<g id="node50" class="node"><title>Node50</title>
<g id="a_node50"><a xlink:href="../../dc/dba/loslib_8c.html#a905e81425fe3d6d0b363c10162a2a37b" target="_top" xlink:title="os_exit">
<polygon fill="none" stroke="black" points="482.5,-121 482.5,-140 529.5,-140 529.5,-121 482.5,-121"/>
<text text-anchor="middle" x="506" y="-128" font-family="Helvetica,sans-Serif" font-size="10.00">os_exit</text>
</a>
</g>
</g>
<!-- Node49&#45;&gt;Node50 -->
<g id="edge60" class="edge"><title>Node49&#45;&gt;Node50</title>
<path fill="none" stroke="midnightblue" d="M434.654,-130.5C450.48,-130.5 468.434,-130.5 482.243,-130.5"/>
<polygon fill="midnightblue" stroke="midnightblue" points="434.627,-127 424.627,-130.5 434.627,-134 434.627,-127"/>
</g>
</g>
</svg>
