<?xml version="1.0" encoding="UTF-8" standalone="no"?>
<!DOCTYPE svg PUBLIC "-//W3C//DTD SVG 1.1//EN"
 "http://www.w3.org/Graphics/SVG/1.1/DTD/svg11.dtd">
<!-- Generated by graphviz version 2.38.0 (20140413.2041)
 -->
<!-- Title: luaC_checkupvalcolor Pages: 1 -->
<svg width="1433pt" height="845pt"
 viewBox="0.00 0.00 1433.00 845.00" xmlns="http://www.w3.org/2000/svg" xmlns:xlink="http://www.w3.org/1999/xlink">
<g id="graph0" class="graph" transform="scale(1 1) rotate(0) translate(4 841)">
<title>luaC_checkupvalcolor</title>
<!-- Node1 -->
<g id="node1" class="node"><title>Node1</title>
<polygon fill="#bfbfbf" stroke="black" points="0,-570.5 0,-589.5 109,-589.5 109,-570.5 0,-570.5"/>
<text text-anchor="middle" x="54.5" y="-577.5" font-family="Helvetica,sans-Serif" font-size="10.00">luaC_checkupvalcolor</text>
</g>
<!-- Node2 -->
<g id="node2" class="node"><title>Node2</title>
<g id="a_node2"><a xlink:href="../../d4/db8/lfunc_8h.html#a059f8cf02f13f391fa02ad85d9057f8f" target="_top" xlink:title="luaF_close">
<polygon fill="none" stroke="black" points="145,-570.5 145,-589.5 207,-589.5 207,-570.5 145,-570.5"/>
<text text-anchor="middle" x="176" y="-577.5" font-family="Helvetica,sans-Serif" font-size="10.00">luaF_close</text>
</a>
</g>
</g>
<!-- Node1&#45;&gt;Node2 -->
<g id="edge1" class="edge"><title>Node1&#45;&gt;Node2</title>
<path fill="none" stroke="midnightblue" d="M119.585,-580C128.331,-580 136.951,-580 144.693,-580"/>
<polygon fill="midnightblue" stroke="midnightblue" points="119.307,-576.5 109.307,-580 119.307,-583.5 119.307,-576.5"/>
</g>
<!-- Node3 -->
<g id="node3" class="node"><title>Node3</title>
<g id="a_node3"><a xlink:href="../../dd/dca/lstate_8c.html#a4940327dfa3b86df0ef008180bb3fcb3" target="_top" xlink:title="close_state">
<polygon fill="none" stroke="black" points="989,-693.5 989,-712.5 1054,-712.5 1054,-693.5 989,-693.5"/>
<text text-anchor="middle" x="1021.5" y="-700.5" font-family="Helvetica,sans-Serif" font-size="10.00">close_state</text>
</a>
</g>
</g>
<!-- Node2&#45;&gt;Node3 -->
<g id="edge2" class="edge"><title>Node2&#45;&gt;Node3</title>
<path fill="none" stroke="midnightblue" d="M185.892,-599.038C196.673,-620.244 216.713,-654.263 243,-675 297.69,-718.143 319.341,-732 389,-732 389,-732 389,-732 766.5,-732 847.056,-732 941.062,-717.423 988.953,-708.939"/>
<polygon fill="midnightblue" stroke="midnightblue" points="188.896,-597.215 181.356,-589.772 182.609,-600.292 188.896,-597.215"/>
</g>
<!-- Node10 -->
<g id="node10" class="node"><title>Node10</title>
<g id="a_node10"><a xlink:href="../../d2/dd9/ldo_8h.html#ad1087faa52e2bb98c00806ea1ac198a6" target="_top" xlink:title="luaD_pcall">
<polygon fill="none" stroke="black" points="462,-570.5 462,-589.5 524,-589.5 524,-570.5 462,-570.5"/>
<text text-anchor="middle" x="493" y="-577.5" font-family="Helvetica,sans-Serif" font-size="10.00">luaD_pcall</text>
</a>
</g>
</g>
<!-- Node2&#45;&gt;Node10 -->
<g id="edge10" class="edge"><title>Node2&#45;&gt;Node10</title>
<path fill="none" stroke="midnightblue" d="M217.326,-580C281.375,-580 404.925,-580 461.888,-580"/>
<polygon fill="midnightblue" stroke="midnightblue" points="217.204,-576.5 207.204,-580 217.203,-583.5 217.204,-576.5"/>
</g>
<!-- Node26 -->
<g id="node26" class="node"><title>Node26</title>
<g id="a_node26"><a xlink:href="../../d3/dfc/lstate_8h.html#a0882226c718293b23af460f7e2faeef0" target="_top" xlink:title="luaE_freethread">
<polygon fill="none" stroke="black" points="243,-200.5 243,-219.5 326,-219.5 326,-200.5 243,-200.5"/>
<text text-anchor="middle" x="284.5" y="-207.5" font-family="Helvetica,sans-Serif" font-size="10.00">luaE_freethread</text>
</a>
</g>
</g>
<!-- Node2&#45;&gt;Node26 -->
<g id="edge29" class="edge"><title>Node2&#45;&gt;Node26</title>
<path fill="none" stroke="midnightblue" d="M182.545,-560.735C201.95,-493.32 266.397,-269.419 280.68,-219.796"/>
<polygon fill="midnightblue" stroke="midnightblue" points="179.142,-559.904 179.74,-570.482 185.869,-561.84 179.142,-559.904"/>
</g>
<!-- Node31 -->
<g id="node31" class="node"><title>Node31</title>
<g id="a_node31"><a xlink:href="../../d5/dcd/lvm_8h.html#ae93565adc36c6e2157dbbd875433ede1" target="_top" xlink:title="luaV_execute">
<polygon fill="none" stroke="black" points="247.5,-399.5 247.5,-418.5 321.5,-418.5 321.5,-399.5 247.5,-399.5"/>
<text text-anchor="middle" x="284.5" y="-406.5" font-family="Helvetica,sans-Serif" font-size="10.00">luaV_execute</text>
</a>
</g>
</g>
<!-- Node2&#45;&gt;Node31 -->
<g id="edge34" class="edge"><title>Node2&#45;&gt;Node31</title>
<path fill="none" stroke="midnightblue" d="M188.376,-561.734C210.886,-525.591 260.411,-446.073 277.535,-418.577"/>
<polygon fill="midnightblue" stroke="midnightblue" points="185.347,-559.978 183.031,-570.316 191.289,-563.678 185.347,-559.978"/>
</g>
<!-- Node50 -->
<g id="node50" class="node"><title>Node50</title>
<g id="a_node50"><a xlink:href="../../d3/d08/ldo_8c.html#a8f3e3ff2aa0a4a251774a476cb0036ea" target="_top" xlink:title="recover">
<polygon fill="none" stroke="black" points="261,-646.5 261,-665.5 308,-665.5 308,-646.5 261,-646.5"/>
<text text-anchor="middle" x="284.5" y="-653.5" font-family="Helvetica,sans-Serif" font-size="10.00">recover</text>
</a>
</g>
</g>
<!-- Node2&#45;&gt;Node50 -->
<g id="edge67" class="edge"><title>Node2&#45;&gt;Node50</title>
<path fill="none" stroke="midnightblue" d="M198.668,-595.463C220.085,-610.746 252.174,-633.645 270.121,-646.453"/>
<polygon fill="midnightblue" stroke="midnightblue" points="200.661,-592.585 190.488,-589.625 196.595,-598.283 200.661,-592.585"/>
</g>
<!-- Node4 -->
<g id="node4" class="node"><title>Node4</title>
<g id="a_node4"><a xlink:href="../../da/dd2/lua_8h.html#af722e4ac7fc0eba5920f59f0162c1b97" target="_top" xlink:title="lua_newstate">
<polygon fill="none" stroke="black" points="1090,-712.5 1090,-731.5 1164,-731.5 1164,-712.5 1090,-712.5"/>
<text text-anchor="middle" x="1127" y="-719.5" font-family="Helvetica,sans-Serif" font-size="10.00">lua_newstate</text>
</a>
</g>
</g>
<!-- Node3&#45;&gt;Node4 -->
<g id="edge3" class="edge"><title>Node3&#45;&gt;Node4</title>
<path fill="none" stroke="midnightblue" d="M1064.23,-710.66C1072.72,-712.219 1081.59,-713.847 1089.87,-715.367"/>
<polygon fill="midnightblue" stroke="midnightblue" points="1064.58,-707.167 1054.12,-708.804 1063.32,-714.052 1064.58,-707.167"/>
</g>
<!-- Node8 -->
<g id="node8" class="node"><title>Node8</title>
<g id="a_node8"><a xlink:href="../../da/dd2/lua_8h.html#afe030a97e84f24dfab3afb598faa2fff" target="_top" xlink:title="lua_close">
<polygon fill="none" stroke="black" points="1099,-655.5 1099,-674.5 1155,-674.5 1155,-655.5 1099,-655.5"/>
<text text-anchor="middle" x="1127" y="-662.5" font-family="Helvetica,sans-Serif" font-size="10.00">lua_close</text>
</a>
</g>
</g>
<!-- Node3&#45;&gt;Node8 -->
<g id="edge8" class="edge"><title>Node3&#45;&gt;Node8</title>
<path fill="none" stroke="midnightblue" d="M1058.23,-689.882C1071.92,-684.856 1087.27,-679.221 1099.89,-674.586"/>
<polygon fill="midnightblue" stroke="midnightblue" points="1056.8,-686.679 1048.62,-693.411 1059.21,-693.25 1056.8,-686.679"/>
</g>
<!-- Node5 -->
<g id="node5" class="node"><title>Node5</title>
<g id="a_node5"><a xlink:href="../../da/d29/lauxlib_8h.html#a7d8712fcede90ae93d5a9a7b409c586e" target="_top" xlink:title="luaL_newstate">
<polygon fill="none" stroke="black" points="1200,-684.5 1200,-703.5 1280,-703.5 1280,-684.5 1200,-684.5"/>
<text text-anchor="middle" x="1240" y="-691.5" font-family="Helvetica,sans-Serif" font-size="10.00">luaL_newstate</text>
</a>
</g>
</g>
<!-- Node4&#45;&gt;Node5 -->
<g id="edge4" class="edge"><title>Node4&#45;&gt;Node5</title>
<path fill="none" stroke="midnightblue" d="M1173.76,-710.456C1182.9,-708.151 1192.4,-705.754 1201.23,-703.527"/>
<polygon fill="midnightblue" stroke="midnightblue" points="1172.88,-707.07 1164.04,-712.909 1174.59,-713.857 1172.88,-707.07"/>
</g>
<!-- Node7 -->
<g id="node7" class="node"><title>Node7</title>
<g id="a_node7"><a xlink:href="../../dd/dca/lstate_8c.html#a8a0fc0aca5367250347c6bb6a788f05f" target="_top" xlink:title="makeseed">
<polygon fill="none" stroke="black" points="1209.5,-722.5 1209.5,-741.5 1270.5,-741.5 1270.5,-722.5 1209.5,-722.5"/>
<text text-anchor="middle" x="1240" y="-729.5" font-family="Helvetica,sans-Serif" font-size="10.00">makeseed</text>
</a>
</g>
</g>
<!-- Node4&#45;&gt;Node7 -->
<g id="edge6" class="edge"><title>Node4&#45;&gt;Node7</title>
<path fill="none" stroke="midnightblue" d="M1174.28,-719.503C1186.18,-720.358 1198.65,-721.688 1209.44,-723.29"/>
<polygon fill="midnightblue" stroke="midnightblue" points="1174.23,-715.994 1164.04,-718.88 1173.81,-722.981 1174.23,-715.994"/>
</g>
<!-- Node6 -->
<g id="node6" class="node"><title>Node6</title>
<g id="a_node6"><a xlink:href="../../dc/de7/interface_kensho_lua_wrapper.html#a7d10aa0242861cdd109d3da9383882a2" target="_top" xlink:title="&#45;[KenshoLuaWrapper\l evaluate]">
<polygon fill="none" stroke="red" points="1316,-679 1316,-709 1425,-709 1425,-679 1316,-679"/>
<text text-anchor="start" x="1324" y="-697" font-family="Helvetica,sans-Serif" font-size="10.00">&#45;[KenshoLuaWrapper</text>
<text text-anchor="middle" x="1370.5" y="-686" font-family="Helvetica,sans-Serif" font-size="10.00"> evaluate]</text>
</a>
</g>
</g>
<!-- Node5&#45;&gt;Node6 -->
<g id="edge5" class="edge"><title>Node5&#45;&gt;Node6</title>
<path fill="none" stroke="midnightblue" d="M1290.52,-694C1298.8,-694 1307.43,-694 1315.82,-694"/>
<polygon fill="midnightblue" stroke="midnightblue" points="1290.25,-690.5 1280.25,-694 1290.25,-697.5 1290.25,-690.5"/>
</g>
<!-- Node7&#45;&gt;Node4 -->
<g id="edge7" class="edge"><title>Node7&#45;&gt;Node4</title>
<path fill="none" stroke="midnightblue" d="M1199.48,-734.934C1187.72,-734.26 1174.91,-733.055 1163.43,-731.533"/>
<polygon fill="midnightblue" stroke="midnightblue" points="1199.34,-738.432 1209.49,-735.385 1199.65,-731.439 1199.34,-738.432"/>
</g>
<!-- Node9 -->
<g id="node9" class="node"><title>Node9</title>
<g id="a_node9"><a xlink:href="../../dc/dba/loslib_8c.html#a905e81425fe3d6d0b363c10162a2a37b" target="_top" xlink:title="os_exit">
<polygon fill="none" stroke="black" points="1216.5,-646.5 1216.5,-665.5 1263.5,-665.5 1263.5,-646.5 1216.5,-646.5"/>
<text text-anchor="middle" x="1240" y="-653.5" font-family="Helvetica,sans-Serif" font-size="10.00">os_exit</text>
</a>
</g>
</g>
<!-- Node8&#45;&gt;Node9 -->
<g id="edge9" class="edge"><title>Node8&#45;&gt;Node9</title>
<path fill="none" stroke="midnightblue" d="M1165.27,-661.978C1182.16,-660.609 1201.58,-659.034 1216.24,-657.845"/>
<polygon fill="midnightblue" stroke="midnightblue" points="1164.84,-658.502 1155.15,-662.798 1165.4,-665.479 1164.84,-658.502"/>
</g>
<!-- Node11 -->
<g id="node11" class="node"><title>Node11</title>
<g id="a_node11"><a xlink:href="../../de/d27/lgc_8c.html#ab9ec6b56580b9e66f41743e393e7e033" target="_top" xlink:title="GCTM">
<polygon fill="none" stroke="black" points="598.5,-570.5 598.5,-589.5 644.5,-589.5 644.5,-570.5 598.5,-570.5"/>
<text text-anchor="middle" x="621.5" y="-577.5" font-family="Helvetica,sans-Serif" font-size="10.00">GCTM</text>
</a>
</g>
</g>
<!-- Node10&#45;&gt;Node11 -->
<g id="edge11" class="edge"><title>Node10&#45;&gt;Node11</title>
<path fill="none" stroke="midnightblue" d="M534.341,-580C555.547,-580 580.726,-580 598.37,-580"/>
<polygon fill="midnightblue" stroke="midnightblue" points="534.3,-576.5 524.3,-580 534.3,-583.5 534.3,-576.5"/>
</g>
<!-- Node18 -->
<g id="node18" class="node"><title>Node18</title>
<g id="a_node18"><a xlink:href="../../da/dd2/lua_8h.html#a3c4de08aa665eaee4aabd330aa99a441" target="_top" xlink:title="lua_pcallk">
<polygon fill="none" stroke="black" points="592,-494.5 592,-513.5 651,-513.5 651,-494.5 592,-494.5"/>
<text text-anchor="middle" x="621.5" y="-501.5" font-family="Helvetica,sans-Serif" font-size="10.00">lua_pcallk</text>
</a>
</g>
</g>
<!-- Node10&#45;&gt;Node18 -->
<g id="edge20" class="edge"><title>Node10&#45;&gt;Node18</title>
<path fill="none" stroke="midnightblue" d="M523.497,-565.649C526.393,-564.121 529.268,-562.557 532,-561 559.153,-545.528 589.518,-525.293 606.689,-513.562"/>
<polygon fill="midnightblue" stroke="midnightblue" points="521.635,-562.67 514.33,-570.344 524.826,-568.9 521.635,-562.67"/>
</g>
<!-- Node21 -->
<g id="node21" class="node"><title>Node21</title>
<g id="a_node21"><a xlink:href="../../d2/dd9/ldo_8h.html#a5dffa85d966f14d3f3464db580f5b3fa" target="_top" xlink:title="luaD_protectedparser">
<polygon fill="none" stroke="black" points="568,-608.5 568,-627.5 675,-627.5 675,-608.5 568,-608.5"/>
<text text-anchor="middle" x="621.5" y="-615.5" font-family="Helvetica,sans-Serif" font-size="10.00">luaD_protectedparser</text>
</a>
</g>
</g>
<!-- Node10&#45;&gt;Node21 -->
<g id="edge23" class="edge"><title>Node10&#45;&gt;Node21</title>
<path fill="none" stroke="midnightblue" d="M534.285,-592.101C551.866,-597.383 572.186,-603.487 588.682,-608.442"/>
<polygon fill="midnightblue" stroke="midnightblue" points="534.884,-588.627 524.3,-589.102 532.87,-595.331 534.884,-588.627"/>
</g>
<!-- Node12 -->
<g id="node12" class="node"><title>Node12</title>
<g id="a_node12"><a xlink:href="../../de/d27/lgc_8c.html#a74f50e6006422d43686521fe765152dd" target="_top" xlink:title="callallpendingfinalizers">
<polygon fill="none" stroke="black" points="711,-608.5 711,-627.5 820,-627.5 820,-608.5 711,-608.5"/>
<text text-anchor="middle" x="765.5" y="-615.5" font-family="Helvetica,sans-Serif" font-size="10.00">callallpendingfinalizers</text>
</a>
</g>
</g>
<!-- Node11&#45;&gt;Node12 -->
<g id="edge12" class="edge"><title>Node11&#45;&gt;Node12</title>
<path fill="none" stroke="midnightblue" d="M654.592,-588.588C676.709,-594.507 706.113,-602.375 728.942,-608.485"/>
<polygon fill="midnightblue" stroke="midnightblue" points="655.252,-585.142 644.688,-585.938 653.443,-591.904 655.252,-585.142"/>
</g>
<!-- Node16 -->
<g id="node16" class="node"><title>Node16</title>
<g id="a_node16"><a xlink:href="../../dc/d9c/lgc_8h.html#a19359957605d7c8eaf70803e5b77361f" target="_top" xlink:title="luaC_forcestep">
<polygon fill="none" stroke="black" points="725.5,-570.5 725.5,-589.5 805.5,-589.5 805.5,-570.5 725.5,-570.5"/>
<text text-anchor="middle" x="765.5" y="-577.5" font-family="Helvetica,sans-Serif" font-size="10.00">luaC_forcestep</text>
</a>
</g>
</g>
<!-- Node11&#45;&gt;Node16 -->
<g id="edge17" class="edge"><title>Node11&#45;&gt;Node16</title>
<path fill="none" stroke="midnightblue" d="M654.693,-580C675.645,-580 703.104,-580 725.322,-580"/>
<polygon fill="midnightblue" stroke="midnightblue" points="654.688,-576.5 644.688,-580 654.687,-583.5 654.688,-576.5"/>
</g>
<!-- Node13 -->
<g id="node13" class="node"><title>Node13</title>
<g id="a_node13"><a xlink:href="../../dc/d9c/lgc_8h.html#a9aa52a500c9cc2076edb1707e6d8a045" target="_top" xlink:title="luaC_freeallobjects">
<polygon fill="none" stroke="black" points="856,-665.5 856,-684.5 953,-684.5 953,-665.5 856,-665.5"/>
<text text-anchor="middle" x="904.5" y="-672.5" font-family="Helvetica,sans-Serif" font-size="10.00">luaC_freeallobjects</text>
</a>
</g>
</g>
<!-- Node12&#45;&gt;Node13 -->
<g id="edge13" class="edge"><title>Node12&#45;&gt;Node13</title>
<path fill="none" stroke="midnightblue" d="M804.178,-630.922C809.517,-632.886 814.917,-634.945 820,-637 842.149,-645.954 867.01,-657.461 883.8,-665.456"/>
<polygon fill="midnightblue" stroke="midnightblue" points="805.309,-627.609 794.714,-627.51 802.934,-634.194 805.309,-627.609"/>
</g>
<!-- Node14 -->
<g id="node14" class="node"><title>Node14</title>
<g id="a_node14"><a xlink:href="../../dc/d9c/lgc_8h.html#aa0b753c3ed80e1eed0379ec58592c404" target="_top" xlink:title="luaC_fullgc">
<polygon fill="none" stroke="red" points="873.5,-608.5 873.5,-627.5 935.5,-627.5 935.5,-608.5 873.5,-608.5"/>
<text text-anchor="middle" x="904.5" y="-615.5" font-family="Helvetica,sans-Serif" font-size="10.00">luaC_fullgc</text>
</a>
</g>
</g>
<!-- Node12&#45;&gt;Node14 -->
<g id="edge15" class="edge"><title>Node12&#45;&gt;Node14</title>
<path fill="none" stroke="midnightblue" d="M830.488,-618C845.389,-618 860.576,-618 873.212,-618"/>
<polygon fill="midnightblue" stroke="midnightblue" points="830.253,-614.5 820.253,-618 830.253,-621.5 830.253,-614.5"/>
</g>
<!-- Node13&#45;&gt;Node3 -->
<g id="edge14" class="edge"><title>Node13&#45;&gt;Node3</title>
<path fill="none" stroke="midnightblue" d="M954.696,-686.978C966.195,-689.778 978.147,-692.688 988.659,-695.247"/>
<polygon fill="midnightblue" stroke="midnightblue" points="955.299,-683.523 944.755,-684.558 953.643,-690.324 955.299,-683.523"/>
</g>
<!-- Node15 -->
<g id="node15" class="node"><title>Node15</title>
<g id="a_node15"><a xlink:href="../../da/dd2/lua_8h.html#a6bac487d3f900b21271e8c591bd801cd" target="_top" xlink:title="lua_gc">
<polygon fill="none" stroke="red" points="999.5,-570.5 999.5,-589.5 1043.5,-589.5 1043.5,-570.5 999.5,-570.5"/>
<text text-anchor="middle" x="1021.5" y="-577.5" font-family="Helvetica,sans-Serif" font-size="10.00">lua_gc</text>
</a>
</g>
</g>
<!-- Node14&#45;&gt;Node15 -->
<g id="edge16" class="edge"><title>Node14&#45;&gt;Node15</title>
<path fill="none" stroke="midnightblue" d="M944.15,-605.229C962.634,-599.121 984.04,-592.048 999.474,-586.948"/>
<polygon fill="midnightblue" stroke="midnightblue" points="942.916,-601.95 934.519,-608.411 945.113,-608.597 942.916,-601.95"/>
</g>
<!-- Node16&#45;&gt;Node15 -->
<g id="edge18" class="edge"><title>Node16&#45;&gt;Node15</title>
<path fill="none" stroke="midnightblue" d="M812.6,-568.289C826.457,-565.292 841.762,-562.495 856,-561 898.876,-556.499 910.294,-555.104 953,-561 968.798,-563.181 986.103,-568.105 999.236,-572.394"/>
<polygon fill="midnightblue" stroke="midnightblue" points="811.791,-564.883 802.802,-570.491 813.326,-571.713 811.791,-564.883"/>
</g>
<!-- Node17 -->
<g id="node17" class="node"><title>Node17</title>
<g id="a_node17"><a xlink:href="../../dc/d9c/lgc_8h.html#a6c71cc4b9e503c0e96c0c4ffcff93900" target="_top" xlink:title="luaC_step">
<polygon fill="none" stroke="black" points="874,-570.5 874,-589.5 935,-589.5 935,-570.5 874,-570.5"/>
<text text-anchor="middle" x="904.5" y="-577.5" font-family="Helvetica,sans-Serif" font-size="10.00">luaC_step</text>
</a>
</g>
</g>
<!-- Node16&#45;&gt;Node17 -->
<g id="edge19" class="edge"><title>Node16&#45;&gt;Node17</title>
<path fill="none" stroke="midnightblue" d="M815.955,-580C835.337,-580 856.928,-580 873.819,-580"/>
<polygon fill="midnightblue" stroke="midnightblue" points="815.759,-576.5 805.759,-580 815.759,-583.5 815.759,-576.5"/>
</g>
<!-- Node19 -->
<g id="node19" class="node"><title>Node19</title>
<g id="a_node19"><a xlink:href="../../d8/dd3/lbaselib_8c.html#a1fb2725eed679431d070b2e9e7abc223" target="_top" xlink:title="luaB_pcall">
<polygon fill="none" stroke="black" points="735,-513.5 735,-532.5 796,-532.5 796,-513.5 735,-513.5"/>
<text text-anchor="middle" x="765.5" y="-520.5" font-family="Helvetica,sans-Serif" font-size="10.00">luaB_pcall</text>
</a>
</g>
</g>
<!-- Node18&#45;&gt;Node19 -->
<g id="edge21" class="edge"><title>Node18&#45;&gt;Node19</title>
<path fill="none" stroke="midnightblue" d="M661.425,-509.208C684.588,-512.308 713.519,-516.179 734.829,-519.03"/>
<polygon fill="midnightblue" stroke="midnightblue" points="661.612,-505.702 651.236,-507.845 660.683,-512.64 661.612,-505.702"/>
</g>
<!-- Node20 -->
<g id="node20" class="node"><title>Node20</title>
<g id="a_node20"><a xlink:href="../../d8/dd3/lbaselib_8c.html#a5fbb0094fa1a56f0a4c2547f1ec4c5ab" target="_top" xlink:title="luaB_xpcall">
<polygon fill="none" stroke="black" points="732.5,-475.5 732.5,-494.5 798.5,-494.5 798.5,-475.5 732.5,-475.5"/>
<text text-anchor="middle" x="765.5" y="-482.5" font-family="Helvetica,sans-Serif" font-size="10.00">luaB_xpcall</text>
</a>
</g>
</g>
<!-- Node18&#45;&gt;Node20 -->
<g id="edge22" class="edge"><title>Node18&#45;&gt;Node20</title>
<path fill="none" stroke="midnightblue" d="M661.373,-498.799C683.655,-495.817 711.287,-492.12 732.339,-489.303"/>
<polygon fill="midnightblue" stroke="midnightblue" points="660.683,-495.36 651.236,-500.155 661.612,-502.298 660.683,-495.36"/>
</g>
<!-- Node22 -->
<g id="node22" class="node"><title>Node22</title>
<g id="a_node22"><a xlink:href="../../da/dd2/lua_8h.html#a3f4c1ed5e0bd437dc527d62c5768b463" target="_top" xlink:title="lua_load">
<polygon fill="none" stroke="black" points="739,-779.5 739,-798.5 792,-798.5 792,-779.5 739,-779.5"/>
<text text-anchor="middle" x="765.5" y="-786.5" font-family="Helvetica,sans-Serif" font-size="10.00">lua_load</text>
</a>
</g>
</g>
<!-- Node21&#45;&gt;Node22 -->
<g id="edge24" class="edge"><title>Node21&#45;&gt;Node22</title>
<path fill="none" stroke="midnightblue" d="M668.506,-632.378C670.794,-633.783 672.977,-635.32 675,-637 724.007,-677.69 752.462,-752.602 761.409,-779.264"/>
<polygon fill="midnightblue" stroke="midnightblue" points="669.774,-629.092 659.288,-627.582 666.544,-635.302 669.774,-629.092"/>
</g>
<!-- Node23 -->
<g id="node23" class="node"><title>Node23</title>
<g id="a_node23"><a xlink:href="../../da/d29/lauxlib_8h.html#a8c38c6dcf9db7e110e525b46742bacf8" target="_top" xlink:title="luaL_loadfilex">
<polygon fill="none" stroke="red" points="867.5,-760.5 867.5,-779.5 941.5,-779.5 941.5,-760.5 867.5,-760.5"/>
<text text-anchor="middle" x="904.5" y="-767.5" font-family="Helvetica,sans-Serif" font-size="10.00">luaL_loadfilex</text>
</a>
</g>
</g>
<!-- Node22&#45;&gt;Node23 -->
<g id="edge25" class="edge"><title>Node22&#45;&gt;Node23</title>
<path fill="none" stroke="midnightblue" d="M802.239,-784.043C822.254,-781.268 847.151,-777.815 867.249,-775.028"/>
<polygon fill="midnightblue" stroke="midnightblue" points="801.693,-780.586 792.269,-785.426 802.655,-787.519 801.693,-780.586"/>
</g>
<!-- Node24 -->
<g id="node24" class="node"><title>Node24</title>
<g id="a_node24"><a xlink:href="../../da/d29/lauxlib_8h.html#a3ab1955dd9322cf03e2d3626ebfae669" target="_top" xlink:title="luaL_loadbufferx">
<polygon fill="none" stroke="black" points="861.5,-798.5 861.5,-817.5 947.5,-817.5 947.5,-798.5 861.5,-798.5"/>
<text text-anchor="middle" x="904.5" y="-805.5" font-family="Helvetica,sans-Serif" font-size="10.00">luaL_loadbufferx</text>
</a>
</g>
</g>
<!-- Node22&#45;&gt;Node24 -->
<g id="edge26" class="edge"><title>Node22&#45;&gt;Node24</title>
<path fill="none" stroke="midnightblue" d="M802.409,-793.98C820.498,-796.489 842.542,-799.546 861.422,-802.164"/>
<polygon fill="midnightblue" stroke="midnightblue" points="802.655,-790.481 792.269,-792.574 801.693,-797.414 802.655,-790.481"/>
</g>
<!-- Node25 -->
<g id="node25" class="node"><title>Node25</title>
<g id="a_node25"><a xlink:href="../../d8/dd3/lbaselib_8c.html#a4a9a3613fcf80fe033e044f7e19bed69" target="_top" xlink:title="luaB_load">
<polygon fill="none" stroke="black" points="992,-817.5 992,-836.5 1051,-836.5 1051,-817.5 992,-817.5"/>
<text text-anchor="middle" x="1021.5" y="-824.5" font-family="Helvetica,sans-Serif" font-size="10.00">luaB_load</text>
</a>
</g>
</g>
<!-- Node22&#45;&gt;Node25 -->
<g id="edge28" class="edge"><title>Node22&#45;&gt;Node25</title>
<path fill="none" stroke="midnightblue" d="M792.291,-803.234C809.705,-812.007 833.529,-822.427 856,-827 902.876,-836.539 958.833,-833.595 991.921,-830.42"/>
<polygon fill="midnightblue" stroke="midnightblue" points="793.813,-800.08 783.325,-798.576 790.586,-806.292 793.813,-800.08"/>
</g>
<!-- Node24&#45;&gt;Node25 -->
<g id="edge27" class="edge"><title>Node24&#45;&gt;Node25</title>
<path fill="none" stroke="midnightblue" d="M957.864,-816.651C969.606,-818.591 981.636,-820.579 991.974,-822.287"/>
<polygon fill="midnightblue" stroke="midnightblue" points="958.106,-813.144 947.669,-814.967 956.964,-820.05 958.106,-813.144"/>
</g>
<!-- Node27 -->
<g id="node27" class="node"><title>Node27</title>
<g id="a_node27"><a xlink:href="../../de/d27/lgc_8c.html#aa198d7da2a8502ed70adfe1f7ed38f46" target="_top" xlink:title="freeobj">
<polygon fill="none" stroke="black" points="367.5,-38.5 367.5,-57.5 412.5,-57.5 412.5,-38.5 367.5,-38.5"/>
<text text-anchor="middle" x="390" y="-45.5" font-family="Helvetica,sans-Serif" font-size="10.00">freeobj</text>
</a>
</g>
</g>
<!-- Node26&#45;&gt;Node27 -->
<g id="edge30" class="edge"><title>Node26&#45;&gt;Node27</title>
<path fill="none" stroke="midnightblue" d="M293.574,-190.912C305.88,-163.081 331.181,-110.491 362,-72 366.155,-66.8106 371.498,-61.8039 376.333,-57.7183"/>
<polygon fill="midnightblue" stroke="midnightblue" points="290.277,-189.719 289.51,-200.286 296.699,-192.504 290.277,-189.719"/>
</g>
<!-- Node28 -->
<g id="node28" class="node"><title>Node28</title>
<g id="a_node28"><a xlink:href="../../de/d27/lgc_8c.html#abbcf0361a74ce5efc08ca703b0f4098a" target="_top" xlink:title="sweeplist">
<polygon fill="none" stroke="black" points="464.5,-38.5 464.5,-57.5 521.5,-57.5 521.5,-38.5 464.5,-38.5"/>
<text text-anchor="middle" x="493" y="-45.5" font-family="Helvetica,sans-Serif" font-size="10.00">sweeplist</text>
</a>
</g>
</g>
<!-- Node27&#45;&gt;Node28 -->
<g id="edge31" class="edge"><title>Node27&#45;&gt;Node28</title>
<path fill="none" stroke="midnightblue" d="M423.054,-48C436.328,-48 451.573,-48 464.347,-48"/>
<polygon fill="midnightblue" stroke="midnightblue" points="422.916,-44.5001 412.915,-48 422.915,-51.5001 422.916,-44.5001"/>
</g>
<!-- Node29 -->
<g id="node29" class="node"><title>Node29</title>
<g id="a_node29"><a xlink:href="../../de/d27/lgc_8c.html#ac881eb4d9ece02c3cefb86ed34879b6d" target="_top" xlink:title="sweeptolive">
<polygon fill="none" stroke="red" points="587.5,-0.5 587.5,-19.5 655.5,-19.5 655.5,-0.5 587.5,-0.5"/>
<text text-anchor="middle" x="621.5" y="-7.5" font-family="Helvetica,sans-Serif" font-size="10.00">sweeptolive</text>
</a>
</g>
</g>
<!-- Node28&#45;&gt;Node29 -->
<g id="edge32" class="edge"><title>Node28&#45;&gt;Node29</title>
<path fill="none" stroke="midnightblue" d="M531.486,-36.7392C549.719,-31.2624 571.395,-24.7508 588.793,-19.5246"/>
<polygon fill="midnightblue" stroke="midnightblue" points="530.331,-33.4317 521.761,-39.6607 532.345,-40.1357 530.331,-33.4317"/>
</g>
<!-- Node30 -->
<g id="node30" class="node"><title>Node30</title>
<g id="a_node30"><a xlink:href="../../de/d27/lgc_8c.html#ae34e22198155f5d365fe500d3735c150" target="_top" xlink:title="singlestep">
<polygon fill="none" stroke="red" points="592,-38.5 592,-57.5 651,-57.5 651,-38.5 592,-38.5"/>
<text text-anchor="middle" x="621.5" y="-45.5" font-family="Helvetica,sans-Serif" font-size="10.00">singlestep</text>
</a>
</g>
</g>
<!-- Node28&#45;&gt;Node30 -->
<g id="edge33" class="edge"><title>Node28&#45;&gt;Node30</title>
<path fill="none" stroke="midnightblue" d="M532.009,-48C551.248,-48 574.214,-48 591.927,-48"/>
<polygon fill="midnightblue" stroke="midnightblue" points="531.761,-44.5001 521.761,-48 531.761,-51.5001 531.761,-44.5001"/>
</g>
<!-- Node32 -->
<g id="node32" class="node"><title>Node32</title>
<g id="a_node32"><a xlink:href="../../d2/dd9/ldo_8h.html#a7bb0b106d4012134156e0fa240f51228" target="_top" xlink:title="luaD_call">
<polygon fill="none" stroke="black" points="362,-399.5 362,-418.5 418,-418.5 418,-399.5 362,-399.5"/>
<text text-anchor="middle" x="390" y="-406.5" font-family="Helvetica,sans-Serif" font-size="10.00">luaD_call</text>
</a>
</g>
</g>
<!-- Node31&#45;&gt;Node32 -->
<g id="edge35" class="edge"><title>Node31&#45;&gt;Node32</title>
<path fill="none" stroke="midnightblue" d="M331.797,-402.283C342.052,-402.157 352.596,-402.388 361.794,-402.976"/>
<polygon fill="midnightblue" stroke="midnightblue" points="331.611,-398.787 321.699,-402.529 331.781,-405.785 331.611,-398.787"/>
</g>
<!-- Node46 -->
<g id="node46" class="node"><title>Node46</title>
<g id="a_node46"><a xlink:href="../../d3/d08/ldo_8c.html#a3baab9d298c0c32cb74a9a079d7244de" target="_top" xlink:title="unroll">
<polygon fill="none" stroke="black" points="371,-608.5 371,-627.5 409,-627.5 409,-608.5 371,-608.5"/>
<text text-anchor="middle" x="390" y="-615.5" font-family="Helvetica,sans-Serif" font-size="10.00">unroll</text>
</a>
</g>
</g>
<!-- Node31&#45;&gt;Node46 -->
<g id="edge61" class="edge"><title>Node31&#45;&gt;Node46</title>
<path fill="none" stroke="midnightblue" d="M294.719,-427.616C316.059,-470.709 368.252,-576.103 384.256,-608.421"/>
<polygon fill="midnightblue" stroke="midnightblue" points="297.79,-425.932 290.216,-418.523 291.518,-429.038 297.79,-425.932"/>
</g>
<!-- Node49 -->
<g id="node49" class="node"><title>Node49</title>
<g id="a_node49"><a xlink:href="../../d3/d08/ldo_8c.html#abd7632c715de5db6e7797b7fa3f7010f" target="_top" xlink:title="resume">
<polygon fill="none" stroke="black" points="469.5,-646.5 469.5,-665.5 516.5,-665.5 516.5,-646.5 469.5,-646.5"/>
<text text-anchor="middle" x="493" y="-653.5" font-family="Helvetica,sans-Serif" font-size="10.00">resume</text>
</a>
</g>
</g>
<!-- Node31&#45;&gt;Node49 -->
<g id="edge66" class="edge"><title>Node31&#45;&gt;Node49</title>
<path fill="none" stroke="midnightblue" d="M285.669,-428.904C287.217,-473.821 297.749,-583.309 362,-637 392.28,-662.303 441.003,-662.084 469.414,-659.283"/>
<polygon fill="midnightblue" stroke="midnightblue" points="289.164,-428.64 285.44,-418.722 282.166,-428.798 289.164,-428.64"/>
</g>
<!-- Node32&#45;&gt;Node18 -->
<g id="edge51" class="edge"><title>Node32&#45;&gt;Node18</title>
<path fill="none" stroke="midnightblue" d="M413.706,-424.306C425.412,-431.777 440.115,-440.526 454,-447 500.66,-468.755 558.029,-486.566 591.796,-496.2"/>
<polygon fill="midnightblue" stroke="midnightblue" points="415.322,-421.182 405.032,-418.657 411.501,-427.047 415.322,-421.182"/>
</g>
<!-- Node32&#45;&gt;Node31 -->
<g id="edge60" class="edge"><title>Node32&#45;&gt;Node31</title>
<path fill="none" stroke="midnightblue" d="M351.587,-415.514C341.849,-415.842 331.374,-415.828 321.699,-415.471"/>
<polygon fill="midnightblue" stroke="midnightblue" points="351.973,-419 361.794,-415.024 351.637,-412.008 351.973,-419"/>
</g>
<!-- Node33 -->
<g id="node33" class="node"><title>Node33</title>
<g id="a_node33"><a xlink:href="../../dd/d4a/lvm_8c.html#aa904883a58699d9c6ef4d6f0f45037f6" target="_top" xlink:title="callTM">
<polygon fill="none" stroke="black" points="471,-209.5 471,-228.5 515,-228.5 515,-209.5 471,-209.5"/>
<text text-anchor="middle" x="493" y="-216.5" font-family="Helvetica,sans-Serif" font-size="10.00">callTM</text>
</a>
</g>
</g>
<!-- Node32&#45;&gt;Node33 -->
<g id="edge36" class="edge"><title>Node32&#45;&gt;Node33</title>
<path fill="none" stroke="midnightblue" d="M400.868,-390.436C421.927,-350.821 470.656,-259.152 486.742,-228.892"/>
<polygon fill="midnightblue" stroke="midnightblue" points="397.751,-388.844 396.147,-399.317 403.932,-392.13 397.751,-388.844"/>
</g>
<!-- Node39 -->
<g id="node39" class="node"><title>Node39</title>
<g id="a_node39"><a xlink:href="../../de/d27/lgc_8c.html#a929058f72c03750fa82374f6bfa639ee" target="_top" xlink:title="dothecall">
<polygon fill="none" stroke="black" points="466.5,-532.5 466.5,-551.5 519.5,-551.5 519.5,-532.5 466.5,-532.5"/>
<text text-anchor="middle" x="493" y="-539.5" font-family="Helvetica,sans-Serif" font-size="10.00">dothecall</text>
</a>
</g>
</g>
<!-- Node32&#45;&gt;Node39 -->
<g id="edge45" class="edge"><title>Node32&#45;&gt;Node39</title>
<path fill="none" stroke="midnightblue" d="M397.616,-428.489C406.85,-453.204 425.717,-495.859 454,-523 457.832,-526.677 462.514,-529.789 467.265,-532.362"/>
<polygon fill="midnightblue" stroke="midnightblue" points="400.815,-427.04 394.15,-418.804 394.224,-429.399 400.815,-427.04"/>
</g>
<!-- Node40 -->
<g id="node40" class="node"><title>Node40</title>
<g id="a_node40"><a xlink:href="../../df/db6/lapi_8c.html#ac3926c93fb08234f9f47e24653124910" target="_top" xlink:title="f_call">
<polygon fill="none" stroke="black" points="474,-494.5 474,-513.5 512,-513.5 512,-494.5 474,-494.5"/>
<text text-anchor="middle" x="493" y="-501.5" font-family="Helvetica,sans-Serif" font-size="10.00">f_call</text>
</a>
</g>
</g>
<!-- Node32&#45;&gt;Node40 -->
<g id="edge47" class="edge"><title>Node32&#45;&gt;Node40</title>
<path fill="none" stroke="midnightblue" d="M404.259,-426.561C416.244,-441.753 434.892,-463.768 454,-480 460.304,-485.355 467.902,-490.39 474.642,-494.452"/>
<polygon fill="midnightblue" stroke="midnightblue" points="406.908,-424.266 398.019,-418.501 401.373,-428.551 406.908,-424.266"/>
</g>
<!-- Node41 -->
<g id="node41" class="node"><title>Node41</title>
<g id="a_node41"><a xlink:href="../../da/dd2/lua_8h.html#aa6aba1fd89ac6f1c5ccfdfd12f826d80" target="_top" xlink:title="lua_callk">
<polygon fill="none" stroke="black" points="466.5,-418.5 466.5,-437.5 519.5,-437.5 519.5,-418.5 466.5,-418.5"/>
<text text-anchor="middle" x="493" y="-425.5" font-family="Helvetica,sans-Serif" font-size="10.00">lua_callk</text>
</a>
</g>
</g>
<!-- Node32&#45;&gt;Node41 -->
<g id="edge49" class="edge"><title>Node32&#45;&gt;Node41</title>
<path fill="none" stroke="midnightblue" d="M427.935,-415.948C440.656,-418.341 454.618,-420.968 466.252,-423.156"/>
<polygon fill="midnightblue" stroke="midnightblue" points="428.541,-412.501 418.066,-414.092 427.247,-419.38 428.541,-412.501"/>
</g>
<!-- Node43 -->
<g id="node43" class="node"><title>Node43</title>
<g id="a_node43"><a xlink:href="../../db/d46/ldebug_8h.html#acd5ef9f67a8e9d08f6540636fdbeafe6" target="_top" xlink:title="luaG_errormsg">
<polygon fill="none" stroke="black" points="454,-380.5 454,-399.5 532,-399.5 532,-380.5 454,-380.5"/>
<text text-anchor="middle" x="493" y="-387.5" font-family="Helvetica,sans-Serif" font-size="10.00">luaG_errormsg</text>
</a>
</g>
</g>
<!-- Node32&#45;&gt;Node43 -->
<g id="edge52" class="edge"><title>Node32&#45;&gt;Node43</title>
<path fill="none" stroke="midnightblue" d="M427.999,-402.04C436.42,-400.456 445.38,-398.77 453.848,-397.177"/>
<polygon fill="midnightblue" stroke="midnightblue" points="427.247,-398.62 418.066,-403.908 428.541,-405.499 427.247,-398.62"/>
</g>
<!-- Node34 -->
<g id="node34" class="node"><title>Node34</title>
<g id="a_node34"><a xlink:href="../../d5/dcd/lvm_8h.html#adacdbccc9d8fab937a1b0dc058c8da12" target="_top" xlink:title="luaV_gettable">
<polygon fill="none" stroke="red" points="728,-152.5 728,-171.5 803,-171.5 803,-152.5 728,-152.5"/>
<text text-anchor="middle" x="765.5" y="-159.5" font-family="Helvetica,sans-Serif" font-size="10.00">luaV_gettable</text>
</a>
</g>
</g>
<!-- Node33&#45;&gt;Node34 -->
<g id="edge37" class="edge"><title>Node33&#45;&gt;Node34</title>
<path fill="none" stroke="midnightblue" d="M517.168,-204.212C531.297,-195.944 550.039,-186.27 568,-181 622.1,-165.127 687.809,-161.808 727.87,-161.463"/>
<polygon fill="midnightblue" stroke="midnightblue" points="515.356,-201.217 508.604,-209.382 518.974,-207.21 515.356,-201.217"/>
</g>
<!-- Node35 -->
<g id="node35" class="node"><title>Node35</title>
<g id="a_node35"><a xlink:href="../../d5/dcd/lvm_8h.html#a5885d48fd66eb236f8b8f6e4938cbcce" target="_top" xlink:title="luaV_settable">
<polygon fill="none" stroke="red" points="728,-304.5 728,-323.5 803,-323.5 803,-304.5 728,-304.5"/>
<text text-anchor="middle" x="765.5" y="-311.5" font-family="Helvetica,sans-Serif" font-size="10.00">luaV_settable</text>
</a>
</g>
</g>
<!-- Node33&#45;&gt;Node35 -->
<g id="edge39" class="edge"><title>Node33&#45;&gt;Node35</title>
<path fill="none" stroke="midnightblue" d="M519.354,-233.556C533.386,-241.216 551.316,-250.368 568,-257 622.299,-278.585 687.951,-295.965 727.946,-305.632"/>
<polygon fill="midnightblue" stroke="midnightblue" points="520.767,-230.337 510.326,-228.54 517.368,-236.456 520.767,-230.337"/>
</g>
<!-- Node36 -->
<g id="node36" class="node"><title>Node36</title>
<g id="a_node36"><a xlink:href="../../dd/d4a/lvm_8c.html#a5f9dd797eb313b8e117cb20546276732" target="_top" xlink:title="call_binTM">
<polygon fill="none" stroke="red" points="590.5,-228.5 590.5,-247.5 652.5,-247.5 652.5,-228.5 590.5,-228.5"/>
<text text-anchor="middle" x="621.5" y="-235.5" font-family="Helvetica,sans-Serif" font-size="10.00">call_binTM</text>
</a>
</g>
</g>
<!-- Node33&#45;&gt;Node36 -->
<g id="edge41" class="edge"><title>Node33&#45;&gt;Node36</title>
<path fill="none" stroke="midnightblue" d="M525.247,-223.693C545.079,-226.672 570.61,-230.507 590.248,-233.456"/>
<polygon fill="midnightblue" stroke="midnightblue" points="525.582,-220.204 515.173,-222.18 524.542,-227.127 525.582,-220.204"/>
</g>
<!-- Node37 -->
<g id="node37" class="node"><title>Node37</title>
<g id="a_node37"><a xlink:href="../../d5/dcd/lvm_8h.html#ab77cced08254efde4e5dfb28b37a7f31" target="_top" xlink:title="luaV_equalobj_">
<polygon fill="none" stroke="black" points="580,-190.5 580,-209.5 663,-209.5 663,-190.5 580,-190.5"/>
<text text-anchor="middle" x="621.5" y="-197.5" font-family="Helvetica,sans-Serif" font-size="10.00">luaV_equalobj_</text>
</a>
</g>
</g>
<!-- Node33&#45;&gt;Node37 -->
<g id="edge42" class="edge"><title>Node33&#45;&gt;Node37</title>
<path fill="none" stroke="midnightblue" d="M525.352,-214.291C541.8,-211.821 562.147,-208.764 579.799,-206.113"/>
<polygon fill="midnightblue" stroke="midnightblue" points="524.542,-210.873 515.173,-215.82 525.582,-217.796 524.542,-210.873"/>
</g>
<!-- Node38 -->
<g id="node38" class="node"><title>Node38</title>
<g id="a_node38"><a xlink:href="../../d5/dcd/lvm_8h.html#a414b4b487239935324f2f16e1e7715db" target="_top" xlink:title="luaV_objlen">
<polygon fill="none" stroke="red" points="588,-114.5 588,-133.5 655,-133.5 655,-114.5 588,-114.5"/>
<text text-anchor="middle" x="621.5" y="-121.5" font-family="Helvetica,sans-Serif" font-size="10.00">luaV_objlen</text>
</a>
</g>
</g>
<!-- Node33&#45;&gt;Node38 -->
<g id="edge43" class="edge"><title>Node33&#45;&gt;Node38</title>
<path fill="none" stroke="midnightblue" d="M509.2,-201.373C523.274,-185.843 545.385,-163.364 568,-148 576.29,-142.368 586.114,-137.474 595.009,-133.601"/>
<polygon fill="midnightblue" stroke="midnightblue" points="506.277,-199.394 502.256,-209.197 511.512,-204.041 506.277,-199.394"/>
</g>
<!-- Node34&#45;&gt;Node31 -->
<g id="edge38" class="edge"><title>Node34&#45;&gt;Node31</title>
<path fill="none" stroke="midnightblue" d="M745.929,-145.649C728.842,-131.774 702.11,-112.9 675,-105 578.679,-76.9323 543.134,-104.949 454,-151 410.845,-173.296 392.686,-172.345 362,-210 312.195,-271.115 292.31,-368.294 287.034,-399.215"/>
<polygon fill="midnightblue" stroke="midnightblue" points="744.025,-148.621 753.937,-152.365 748.524,-143.257 744.025,-148.621"/>
</g>
<!-- Node35&#45;&gt;Node31 -->
<g id="edge40" class="edge"><title>Node35&#45;&gt;Node31</title>
<path fill="none" stroke="midnightblue" d="M717.438,-310.985C640.366,-307.734 483.642,-308.262 362,-355 335.292,-365.262 309.149,-386.937 295.418,-399.482"/>
<polygon fill="midnightblue" stroke="midnightblue" points="717.622,-314.497 727.773,-311.464 717.946,-307.504 717.622,-314.497"/>
</g>
<!-- Node38&#45;&gt;Node31 -->
<g id="edge44" class="edge"><title>Node38&#45;&gt;Node31</title>
<path fill="none" stroke="midnightblue" d="M577.954,-136.459C521.379,-155.058 421.609,-195.233 362,-262 322.53,-306.21 297.046,-374.455 288.598,-399.427"/>
<polygon fill="midnightblue" stroke="midnightblue" points="579.209,-139.732 587.659,-133.341 577.068,-133.068 579.209,-139.732"/>
</g>
<!-- Node39&#45;&gt;Node11 -->
<g id="edge46" class="edge"><title>Node39&#45;&gt;Node11</title>
<path fill="none" stroke="midnightblue" d="M529.31,-552.607C551.431,-559.252 579.26,-567.612 598.321,-573.337"/>
<polygon fill="midnightblue" stroke="midnightblue" points="530.183,-549.215 519.599,-549.69 528.169,-555.919 530.183,-549.215"/>
</g>
<!-- Node40&#45;&gt;Node18 -->
<g id="edge48" class="edge"><title>Node40&#45;&gt;Node18</title>
<path fill="none" stroke="midnightblue" d="M522.192,-504C542.862,-504 570.835,-504 591.657,-504"/>
<polygon fill="midnightblue" stroke="midnightblue" points="522.124,-500.5 512.124,-504 522.124,-507.5 522.124,-500.5"/>
</g>
<!-- Node42 -->
<g id="node42" class="node"><title>Node42</title>
<g id="a_node42"><a xlink:href="../../d8/dd3/lbaselib_8c.html#a86a4e35d9c9ad4661a0dbbac3758c049" target="_top" xlink:title="luaB_dofile">
<polygon fill="none" stroke="black" points="734.5,-399.5 734.5,-418.5 796.5,-418.5 796.5,-399.5 734.5,-399.5"/>
<text text-anchor="middle" x="765.5" y="-406.5" font-family="Helvetica,sans-Serif" font-size="10.00">luaB_dofile</text>
</a>
</g>
</g>
<!-- Node41&#45;&gt;Node42 -->
<g id="edge50" class="edge"><title>Node41&#45;&gt;Node42</title>
<path fill="none" stroke="midnightblue" d="M530.034,-425.469C583.761,-421.695 683.91,-414.661 734.135,-411.133"/>
<polygon fill="midnightblue" stroke="midnightblue" points="529.667,-421.986 519.937,-426.178 530.157,-428.969 529.667,-421.986"/>
</g>
<!-- Node44 -->
<g id="node44" class="node"><title>Node44</title>
<g id="a_node44"><a xlink:href="../../da/dd2/lua_8h.html#aae6c05ddea7bd110a3e84595ef92e601" target="_top" xlink:title="lua_error">
<polygon fill="none" stroke="red" points="595.5,-380.5 595.5,-399.5 647.5,-399.5 647.5,-380.5 595.5,-380.5"/>
<text text-anchor="middle" x="621.5" y="-387.5" font-family="Helvetica,sans-Serif" font-size="10.00">lua_error</text>
</a>
</g>
</g>
<!-- Node43&#45;&gt;Node44 -->
<g id="edge53" class="edge"><title>Node43&#45;&gt;Node44</title>
<path fill="none" stroke="midnightblue" d="M542.353,-390C560.331,-390 580.011,-390 595.124,-390"/>
<polygon fill="midnightblue" stroke="midnightblue" points="542.297,-386.5 532.297,-390 542.297,-393.5 542.297,-386.5"/>
</g>
<!-- Node45 -->
<g id="node45" class="node"><title>Node45</title>
<g id="a_node45"><a xlink:href="../../db/d46/ldebug_8h.html#a6f27f64630215e18a11be9ba21d3c4bf" target="_top" xlink:title="luaG_runerror">
<polygon fill="none" stroke="red" points="585,-342.5 585,-361.5 658,-361.5 658,-342.5 585,-342.5"/>
<text text-anchor="middle" x="621.5" y="-349.5" font-family="Helvetica,sans-Serif" font-size="10.00">luaG_runerror</text>
</a>
</g>
</g>
<!-- Node43&#45;&gt;Node45 -->
<g id="edge55" class="edge"><title>Node43&#45;&gt;Node45</title>
<path fill="none" stroke="midnightblue" d="M535.729,-377.465C552.938,-372.295 572.56,-366.401 588.589,-361.586"/>
<polygon fill="midnightblue" stroke="midnightblue" points="534.492,-374.182 525.921,-380.411 536.505,-380.886 534.492,-374.182"/>
</g>
<!-- Node44&#45;&gt;Node42 -->
<g id="edge54" class="edge"><title>Node44&#45;&gt;Node42</title>
<path fill="none" stroke="midnightblue" d="M657.492,-394.682C681.042,-397.833 711.78,-401.946 734.266,-404.955"/>
<polygon fill="midnightblue" stroke="midnightblue" points="657.936,-391.21 647.56,-393.353 657.007,-398.148 657.936,-391.21"/>
</g>
<!-- Node45&#45;&gt;Node31 -->
<g id="edge57" class="edge"><title>Node45&#45;&gt;Node31</title>
<path fill="none" stroke="midnightblue" d="M574.589,-351.383C560.888,-351.225 545.836,-351.078 532,-351 497.334,-350.804 488.192,-345.28 454,-351 398.617,-360.265 337.067,-385.547 305.934,-399.477"/>
<polygon fill="midnightblue" stroke="midnightblue" points="574.719,-354.884 584.76,-351.504 574.803,-347.885 574.719,-354.884"/>
</g>
<!-- Node45&#45;&gt;Node32 -->
<g id="edge56" class="edge"><title>Node45&#45;&gt;Node32</title>
<path fill="none" stroke="midnightblue" d="M574.647,-352.006C540.545,-353.249 493.311,-357.615 454,-371 434.896,-377.505 415.375,-390.455 403.23,-399.417"/>
<polygon fill="midnightblue" stroke="midnightblue" points="574.89,-355.501 584.786,-351.714 574.689,-348.504 574.89,-355.501"/>
</g>
<!-- Node45&#45;&gt;Node34 -->
<g id="edge58" class="edge"><title>Node45&#45;&gt;Node34</title>
<path fill="none" stroke="midnightblue" d="M636,-333.937C665.4,-294.599 734.396,-202.281 757.107,-171.892"/>
<polygon fill="midnightblue" stroke="midnightblue" points="632.92,-332.211 629.737,-342.317 638.527,-336.402 632.92,-332.211"/>
</g>
<!-- Node45&#45;&gt;Node35 -->
<g id="edge59" class="edge"><title>Node45&#45;&gt;Node35</title>
<path fill="none" stroke="midnightblue" d="M667.993,-339.826C687.628,-334.571 710.266,-328.513 728.679,-323.586"/>
<polygon fill="midnightblue" stroke="midnightblue" points="667.088,-336.445 658.333,-342.411 668.897,-343.207 667.088,-336.445"/>
</g>
<!-- Node47 -->
<g id="node47" class="node"><title>Node47</title>
<g id="a_node47"><a xlink:href="../../da/dd2/lua_8h.html#a434479f022eda738b99000aad5ddd929" target="_top" xlink:title="lua_resume">
<polygon fill="none" stroke="black" points="589,-646.5 589,-665.5 654,-665.5 654,-646.5 589,-646.5"/>
<text text-anchor="middle" x="621.5" y="-653.5" font-family="Helvetica,sans-Serif" font-size="10.00">lua_resume</text>
</a>
</g>
</g>
<!-- Node46&#45;&gt;Node47 -->
<g id="edge62" class="edge"><title>Node46&#45;&gt;Node47</title>
<path fill="none" stroke="midnightblue" d="M419.398,-621.171C447.944,-624.512 493.162,-630.225 532,-637 550.887,-640.295 571.871,-644.764 588.665,-648.541"/>
<polygon fill="midnightblue" stroke="midnightblue" points="419.657,-617.678 409.322,-620.009 418.855,-624.632 419.657,-617.678"/>
</g>
<!-- Node46&#45;&gt;Node49 -->
<g id="edge64" class="edge"><title>Node46&#45;&gt;Node49</title>
<path fill="none" stroke="midnightblue" d="M418.826,-628.469C434.648,-634.422 454.218,-641.785 469.137,-647.398"/>
<polygon fill="midnightblue" stroke="midnightblue" points="419.649,-625.039 409.057,-624.794 417.184,-631.591 419.649,-625.039"/>
</g>
<!-- Node48 -->
<g id="node48" class="node"><title>Node48</title>
<g id="a_node48"><a xlink:href="../../df/d2d/lcorolib_8c.html#aaa37b3a30ab0c6daef7fae8951fef3e7" target="_top" xlink:title="auxresume">
<polygon fill="none" stroke="red" points="733.5,-646.5 733.5,-665.5 797.5,-665.5 797.5,-646.5 733.5,-646.5"/>
<text text-anchor="middle" x="765.5" y="-653.5" font-family="Helvetica,sans-Serif" font-size="10.00">auxresume</text>
</a>
</g>
</g>
<!-- Node47&#45;&gt;Node48 -->
<g id="edge63" class="edge"><title>Node47&#45;&gt;Node48</title>
<path fill="none" stroke="midnightblue" d="M664.099,-656C686.142,-656 712.777,-656 733.074,-656"/>
<polygon fill="midnightblue" stroke="midnightblue" points="664.014,-652.5 654.014,-656 664.014,-659.5 664.014,-652.5"/>
</g>
<!-- Node49&#45;&gt;Node47 -->
<g id="edge65" class="edge"><title>Node49&#45;&gt;Node47</title>
<path fill="none" stroke="midnightblue" d="M526.638,-656C545.697,-656 569.642,-656 588.576,-656"/>
<polygon fill="midnightblue" stroke="midnightblue" points="526.616,-652.5 516.616,-656 526.616,-659.5 526.616,-652.5"/>
</g>
<!-- Node50&#45;&gt;Node47 -->
<g id="edge68" class="edge"><title>Node50&#45;&gt;Node47</title>
<path fill="none" stroke="midnightblue" d="M318.279,-662.328C365.56,-670.594 455.614,-683.107 532,-675 551.065,-672.977 572.058,-668.567 588.811,-664.504"/>
<polygon fill="midnightblue" stroke="midnightblue" points="318.771,-658.861 308.31,-660.537 317.533,-665.75 318.771,-658.861"/>
</g>
</g>
</svg>
