<?xml version="1.0" encoding="UTF-8" standalone="no"?>
<!DOCTYPE svg PUBLIC "-//W3C//DTD SVG 1.1//EN"
 "http://www.w3.org/Graphics/SVG/1.1/DTD/svg11.dtd">
<!-- Generated by graphviz version 2.38.0 (20140413.2041)
 -->
<!-- Title: propagatelist Pages: 1 -->
<svg width="1650pt" height="480pt"
 viewBox="0.00 0.00 1650.00 480.00" xmlns="http://www.w3.org/2000/svg" xmlns:xlink="http://www.w3.org/1999/xlink">
<g id="graph0" class="graph" transform="scale(1 1) rotate(0) translate(4 476)">
<title>propagatelist</title>
<!-- Node1 -->
<g id="node1" class="node"><title>Node1</title>
<polygon fill="#bfbfbf" stroke="black" points="0,-152.5 0,-171.5 71,-171.5 71,-152.5 0,-152.5"/>
<text text-anchor="middle" x="35.5" y="-159.5" font-family="Helvetica,sans-Serif" font-size="10.00">propagatelist</text>
</g>
<!-- Node2 -->
<g id="node2" class="node"><title>Node2</title>
<g id="a_node2"><a xlink:href="../../de/d27/lgc_8c.html#aa6acc790e5954f9a3652a7b0c70f8f2c" target="_top" xlink:title="retraversegrays">
<polygon fill="none" stroke="black" points="107,-152.5 107,-171.5 189,-171.5 189,-152.5 107,-152.5"/>
<text text-anchor="middle" x="148" y="-159.5" font-family="Helvetica,sans-Serif" font-size="10.00">retraversegrays</text>
</a>
</g>
</g>
<!-- Node1&#45;&gt;Node2 -->
<g id="edge1" class="edge"><title>Node1&#45;&gt;Node2</title>
<path fill="none" stroke="midnightblue" d="M81.2084,-162C89.6299,-162 98.3907,-162 106.668,-162"/>
<polygon fill="midnightblue" stroke="midnightblue" points="81.1597,-158.5 71.1597,-162 81.1597,-165.5 81.1597,-158.5"/>
</g>
<!-- Node3 -->
<g id="node3" class="node"><title>Node3</title>
<g id="a_node3"><a xlink:href="../../de/d27/lgc_8c.html#aeeb04d4803ad9d53a05a8605130a31d0" target="_top" xlink:title="atomic">
<polygon fill="none" stroke="black" points="225,-152.5 225,-171.5 269,-171.5 269,-152.5 225,-152.5"/>
<text text-anchor="middle" x="247" y="-159.5" font-family="Helvetica,sans-Serif" font-size="10.00">atomic</text>
</a>
</g>
</g>
<!-- Node2&#45;&gt;Node3 -->
<g id="edge2" class="edge"><title>Node2&#45;&gt;Node3</title>
<path fill="none" stroke="midnightblue" d="M199.218,-162C208.286,-162 217.274,-162 224.911,-162"/>
<polygon fill="midnightblue" stroke="midnightblue" points="199.014,-158.5 189.014,-162 199.014,-165.5 199.014,-158.5"/>
</g>
<!-- Node4 -->
<g id="node4" class="node"><title>Node4</title>
<g id="a_node4"><a xlink:href="../../de/d27/lgc_8c.html#ae34e22198155f5d365fe500d3735c150" target="_top" xlink:title="singlestep">
<polygon fill="none" stroke="black" points="305,-152.5 305,-171.5 364,-171.5 364,-152.5 305,-152.5"/>
<text text-anchor="middle" x="334.5" y="-159.5" font-family="Helvetica,sans-Serif" font-size="10.00">singlestep</text>
</a>
</g>
</g>
<!-- Node3&#45;&gt;Node4 -->
<g id="edge3" class="edge"><title>Node3&#45;&gt;Node4</title>
<path fill="none" stroke="midnightblue" d="M279.288,-162C287.654,-162 296.653,-162 304.868,-162"/>
<polygon fill="midnightblue" stroke="midnightblue" points="279.135,-158.5 269.135,-162 279.135,-165.5 279.135,-158.5"/>
</g>
<!-- Node5 -->
<g id="node5" class="node"><title>Node5</title>
<g id="a_node5"><a xlink:href="../../dc/d9c/lgc_8h.html#a1da32357417ce5766ed5e3ada033c32f" target="_top" xlink:title="luaC_runtilstate">
<polygon fill="none" stroke="black" points="400,-114.5 400,-133.5 481,-133.5 481,-114.5 400,-114.5"/>
<text text-anchor="middle" x="440.5" y="-121.5" font-family="Helvetica,sans-Serif" font-size="10.00">luaC_runtilstate</text>
</a>
</g>
</g>
<!-- Node4&#45;&gt;Node5 -->
<g id="edge4" class="edge"><title>Node4&#45;&gt;Node5</title>
<path fill="none" stroke="midnightblue" d="M371.402,-148.882C385.157,-143.856 400.58,-138.221 413.265,-133.586"/>
<polygon fill="midnightblue" stroke="midnightblue" points="369.935,-145.692 361.744,-152.411 372.337,-152.266 369.935,-145.692"/>
</g>
<!-- Node50 -->
<g id="node50" class="node"><title>Node50</title>
<g id="a_node50"><a xlink:href="../../de/d27/lgc_8c.html#a7515a46e25b277cbbe7febb4d06b196a" target="_top" xlink:title="incstep">
<polygon fill="none" stroke="black" points="417,-152.5 417,-171.5 464,-171.5 464,-152.5 417,-152.5"/>
<text text-anchor="middle" x="440.5" y="-159.5" font-family="Helvetica,sans-Serif" font-size="10.00">incstep</text>
</a>
</g>
</g>
<!-- Node4&#45;&gt;Node50 -->
<g id="edge59" class="edge"><title>Node4&#45;&gt;Node50</title>
<path fill="none" stroke="midnightblue" d="M374.306,-162C388.634,-162 404.393,-162 416.827,-162"/>
<polygon fill="midnightblue" stroke="midnightblue" points="374.194,-158.5 364.194,-162 374.194,-165.5 374.194,-158.5"/>
</g>
<!-- Node6 -->
<g id="node6" class="node"><title>Node6</title>
<g id="a_node6"><a xlink:href="../../dc/d9c/lgc_8h.html#af016fe72ab7e564d7d55e7e4fb659041" target="_top" xlink:title="luaC_changemode">
<polygon fill="none" stroke="black" points="517,-19.5 517,-38.5 614,-38.5 614,-19.5 517,-19.5"/>
<text text-anchor="middle" x="565.5" y="-26.5" font-family="Helvetica,sans-Serif" font-size="10.00">luaC_changemode</text>
</a>
</g>
</g>
<!-- Node5&#45;&gt;Node6 -->
<g id="edge5" class="edge"><title>Node5&#45;&gt;Node6</title>
<path fill="none" stroke="midnightblue" d="M462.196,-108.015C487.903,-88.1606 530.939,-54.9207 552.052,-38.614"/>
<polygon fill="midnightblue" stroke="midnightblue" points="459.975,-105.308 454.2,-114.191 464.254,-110.848 459.975,-105.308"/>
</g>
<!-- Node9 -->
<g id="node9" class="node"><title>Node9</title>
<g id="a_node9"><a xlink:href="../../de/d27/lgc_8c.html#a87bb9d2ca4bed013c39258f8abd61689" target="_top" xlink:title="generationalcollection">
<polygon fill="none" stroke="black" points="650,-114.5 650,-133.5 754,-133.5 754,-114.5 650,-114.5"/>
<text text-anchor="middle" x="702" y="-121.5" font-family="Helvetica,sans-Serif" font-size="10.00">generationalcollection</text>
</a>
</g>
</g>
<!-- Node5&#45;&gt;Node9 -->
<g id="edge8" class="edge"><title>Node5&#45;&gt;Node9</title>
<path fill="none" stroke="midnightblue" d="M491.413,-124C536.892,-124 603.778,-124 649.689,-124"/>
<polygon fill="midnightblue" stroke="midnightblue" points="491.195,-120.5 481.195,-124 491.195,-127.5 491.195,-120.5"/>
</g>
<!-- Node12 -->
<g id="node12" class="node"><title>Node12</title>
<g id="a_node12"><a xlink:href="../../dc/d9c/lgc_8h.html#aa0b753c3ed80e1eed0379ec58592c404" target="_top" xlink:title="luaC_fullgc">
<polygon fill="none" stroke="black" points="534.5,-76.5 534.5,-95.5 596.5,-95.5 596.5,-76.5 534.5,-76.5"/>
<text text-anchor="middle" x="565.5" y="-83.5" font-family="Helvetica,sans-Serif" font-size="10.00">luaC_fullgc</text>
</a>
</g>
</g>
<!-- Node5&#45;&gt;Node12 -->
<g id="edge12" class="edge"><title>Node5&#45;&gt;Node12</title>
<path fill="none" stroke="midnightblue" d="M482.225,-111.418C499.228,-106.165 518.631,-100.171 534.322,-95.3232"/>
<polygon fill="midnightblue" stroke="midnightblue" points="481.059,-108.115 472.538,-114.411 483.126,-114.803 481.059,-108.115"/>
</g>
<!-- Node14 -->
<g id="node14" class="node"><title>Node14</title>
<g id="a_node14"><a xlink:href="../../d4/dfb/lstring_8h.html#a44d549eb0ace165927a896f37330e2cd" target="_top" xlink:title="luaS_resize">
<polygon fill="none" stroke="black" points="532.5,-209.5 532.5,-228.5 598.5,-228.5 598.5,-209.5 532.5,-209.5"/>
<text text-anchor="middle" x="565.5" y="-216.5" font-family="Helvetica,sans-Serif" font-size="10.00">luaS_resize</text>
</a>
</g>
</g>
<!-- Node5&#45;&gt;Node14 -->
<g id="edge16" class="edge"><title>Node5&#45;&gt;Node14</title>
<path fill="none" stroke="midnightblue" d="M473.342,-138.3C475.988,-139.792 478.575,-141.364 481,-143 510.902,-163.168 540.956,-193.606 555.496,-209.132"/>
<polygon fill="midnightblue" stroke="midnightblue" points="474.753,-135.088 464.268,-133.565 471.515,-141.294 474.753,-135.088"/>
</g>
<!-- Node7 -->
<g id="node7" class="node"><title>Node7</title>
<g id="a_node7"><a xlink:href="../../da/dd2/lua_8h.html#a6bac487d3f900b21271e8c591bd801cd" target="_top" xlink:title="lua_gc">
<polygon fill="none" stroke="black" points="924,-19.5 924,-38.5 968,-38.5 968,-19.5 924,-19.5"/>
<text text-anchor="middle" x="946" y="-26.5" font-family="Helvetica,sans-Serif" font-size="10.00">lua_gc</text>
</a>
</g>
</g>
<!-- Node6&#45;&gt;Node7 -->
<g id="edge6" class="edge"><title>Node6&#45;&gt;Node7</title>
<path fill="none" stroke="midnightblue" d="M624.133,-29C709.767,-29 866.623,-29 923.598,-29"/>
<polygon fill="midnightblue" stroke="midnightblue" points="624.054,-25.5001 614.054,-29 624.054,-32.5001 624.054,-25.5001"/>
</g>
<!-- Node8 -->
<g id="node8" class="node"><title>Node8</title>
<g id="a_node8"><a xlink:href="../../d8/dd3/lbaselib_8c.html#a07f71966c943cc9761ab129f64d4ac80" target="_top" xlink:title="luaB_collectgarbage">
<polygon fill="none" stroke="black" points="1025.5,-0.5 1025.5,-19.5 1127.5,-19.5 1127.5,-0.5 1025.5,-0.5"/>
<text text-anchor="middle" x="1076.5" y="-7.5" font-family="Helvetica,sans-Serif" font-size="10.00">luaB_collectgarbage</text>
</a>
</g>
</g>
<!-- Node7&#45;&gt;Node8 -->
<g id="edge7" class="edge"><title>Node7&#45;&gt;Node8</title>
<path fill="none" stroke="midnightblue" d="M978.39,-24.3586C992.519,-22.2695 1009.55,-19.7515 1025.38,-17.4114"/>
<polygon fill="midnightblue" stroke="midnightblue" points="977.6,-20.9374 968.219,-25.8625 978.624,-27.8621 977.6,-20.9374"/>
</g>
<!-- Node10 -->
<g id="node10" class="node"><title>Node10</title>
<g id="a_node10"><a xlink:href="../../dc/d9c/lgc_8h.html#a19359957605d7c8eaf70803e5b77361f" target="_top" xlink:title="luaC_forcestep">
<polygon fill="none" stroke="black" points="790,-114.5 790,-133.5 870,-133.5 870,-114.5 790,-114.5"/>
<text text-anchor="middle" x="830" y="-121.5" font-family="Helvetica,sans-Serif" font-size="10.00">luaC_forcestep</text>
</a>
</g>
</g>
<!-- Node9&#45;&gt;Node10 -->
<g id="edge9" class="edge"><title>Node9&#45;&gt;Node10</title>
<path fill="none" stroke="midnightblue" d="M764.349,-124C773.003,-124 781.698,-124 789.78,-124"/>
<polygon fill="midnightblue" stroke="midnightblue" points="764.249,-120.5 754.249,-124 764.249,-127.5 764.249,-120.5"/>
</g>
<!-- Node10&#45;&gt;Node7 -->
<g id="edge10" class="edge"><title>Node10&#45;&gt;Node7</title>
<path fill="none" stroke="midnightblue" d="M850.494,-107.755C874.354,-87.8719 913.98,-54.8498 933.463,-38.614"/>
<polygon fill="midnightblue" stroke="midnightblue" points="848.212,-105.1 842.771,-114.191 852.694,-110.478 848.212,-105.1"/>
</g>
<!-- Node11 -->
<g id="node11" class="node"><title>Node11</title>
<g id="a_node11"><a xlink:href="../../dc/d9c/lgc_8h.html#a6c71cc4b9e503c0e96c0c4ffcff93900" target="_top" xlink:title="luaC_step">
<polygon fill="none" stroke="black" points="915.5,-114.5 915.5,-133.5 976.5,-133.5 976.5,-114.5 915.5,-114.5"/>
<text text-anchor="middle" x="946" y="-121.5" font-family="Helvetica,sans-Serif" font-size="10.00">luaC_step</text>
</a>
</g>
</g>
<!-- Node10&#45;&gt;Node11 -->
<g id="edge11" class="edge"><title>Node10&#45;&gt;Node11</title>
<path fill="none" stroke="midnightblue" d="M880.521,-124C892.42,-124 904.761,-124 915.422,-124"/>
<polygon fill="midnightblue" stroke="midnightblue" points="880.232,-120.5 870.232,-124 880.232,-127.5 880.232,-120.5"/>
</g>
<!-- Node12&#45;&gt;Node7 -->
<g id="edge13" class="edge"><title>Node12&#45;&gt;Node7</title>
<path fill="none" stroke="midnightblue" d="M606.596,-76.0586C620.305,-72.8781 635.769,-69.5296 650,-67 751.937,-48.8797 875.154,-35.8337 923.79,-31.0287"/>
<polygon fill="midnightblue" stroke="midnightblue" points="605.433,-72.7371 596.505,-78.4418 607.042,-79.5497 605.433,-72.7371"/>
</g>
<!-- Node12&#45;&gt;Node9 -->
<g id="edge14" class="edge"><title>Node12&#45;&gt;Node9</title>
<path fill="none" stroke="midnightblue" d="M606.413,-97.2766C625.732,-102.735 648.679,-109.218 667.132,-114.431"/>
<polygon fill="midnightblue" stroke="midnightblue" points="607.259,-93.8787 596.684,-94.5279 605.356,-100.615 607.259,-93.8787"/>
</g>
<!-- Node13 -->
<g id="node13" class="node"><title>Node13</title>
<g id="a_node13"><a xlink:href="../../d7/d3e/lmem_8h.html#ae7dc8a57fc5dbca825653a88a356a72d" target="_top" xlink:title="luaM_realloc_">
<polygon fill="none" stroke="black" points="665,-76.5 665,-95.5 739,-95.5 739,-76.5 665,-76.5"/>
<text text-anchor="middle" x="702" y="-83.5" font-family="Helvetica,sans-Serif" font-size="10.00">luaM_realloc_</text>
</a>
</g>
</g>
<!-- Node12&#45;&gt;Node13 -->
<g id="edge15" class="edge"><title>Node12&#45;&gt;Node13</title>
<path fill="none" stroke="midnightblue" d="M606.808,-86C625.202,-86 646.817,-86 664.699,-86"/>
<polygon fill="midnightblue" stroke="midnightblue" points="606.684,-82.5001 596.684,-86 606.684,-89.5001 606.684,-82.5001"/>
</g>
<!-- Node15 -->
<g id="node15" class="node"><title>Node15</title>
<g id="a_node15"><a xlink:href="../../de/d27/lgc_8c.html#aace8516e609d7409e789e7b2c190b9c2" target="_top" xlink:title="checkSizes">
<polygon fill="none" stroke="black" points="669.5,-266.5 669.5,-285.5 734.5,-285.5 734.5,-266.5 669.5,-266.5"/>
<text text-anchor="middle" x="702" y="-273.5" font-family="Helvetica,sans-Serif" font-size="10.00">checkSizes</text>
</a>
</g>
</g>
<!-- Node14&#45;&gt;Node15 -->
<g id="edge17" class="edge"><title>Node14&#45;&gt;Node15</title>
<path fill="none" stroke="midnightblue" d="M595.883,-232.984C611.784,-240.396 631.837,-249.495 650,-257 657.859,-260.248 666.496,-263.56 674.392,-266.49"/>
<polygon fill="midnightblue" stroke="midnightblue" points="597.113,-229.695 586.573,-228.616 594.14,-236.032 597.113,-229.695"/>
</g>
<!-- Node16 -->
<g id="node16" class="node"><title>Node16</title>
<g id="a_node16"><a xlink:href="../../dd/dca/lstate_8c.html#ab65e96a7498fd886f7223b92e91fd830" target="_top" xlink:title="f_luaopen">
<polygon fill="none" stroke="black" points="672.5,-228.5 672.5,-247.5 731.5,-247.5 731.5,-228.5 672.5,-228.5"/>
<text text-anchor="middle" x="702" y="-235.5" font-family="Helvetica,sans-Serif" font-size="10.00">f_luaopen</text>
</a>
</g>
</g>
<!-- Node14&#45;&gt;Node16 -->
<g id="edge19" class="edge"><title>Node14&#45;&gt;Node16</title>
<path fill="none" stroke="midnightblue" d="M608.825,-224.979C629.478,-227.897 653.784,-231.33 672.25,-233.939"/>
<polygon fill="midnightblue" stroke="midnightblue" points="609.107,-221.484 598.716,-223.551 608.128,-228.415 609.107,-221.484"/>
</g>
<!-- Node24 -->
<g id="node24" class="node"><title>Node24</title>
<g id="a_node24"><a xlink:href="../../d1/d2f/lstring_8c.html#a6e3c0fe3ba834ee00279a9df03f40fc4" target="_top" xlink:title="newshrstr">
<polygon fill="none" stroke="black" points="673,-190.5 673,-209.5 731,-209.5 731,-190.5 673,-190.5"/>
<text text-anchor="middle" x="702" y="-197.5" font-family="Helvetica,sans-Serif" font-size="10.00">newshrstr</text>
</a>
</g>
</g>
<!-- Node14&#45;&gt;Node24 -->
<g id="edge28" class="edge"><title>Node14&#45;&gt;Node24</title>
<path fill="none" stroke="midnightblue" d="M608.898,-213.011C629.703,-210.072 654.2,-206.611 672.698,-203.998"/>
<polygon fill="midnightblue" stroke="midnightblue" points="608.128,-209.585 598.716,-214.449 609.107,-216.516 608.128,-209.585"/>
</g>
<!-- Node15&#45;&gt;Node4 -->
<g id="edge18" class="edge"><title>Node15&#45;&gt;Node4</title>
<path fill="none" stroke="midnightblue" d="M659.179,-269.729C621.503,-263.524 564.851,-252.808 517,-238 456.137,-219.166 387.625,-187.438 354.911,-171.599"/>
<polygon fill="midnightblue" stroke="midnightblue" points="658.849,-273.221 669.279,-271.359 659.964,-266.31 658.849,-273.221"/>
</g>
<!-- Node17 -->
<g id="node17" class="node"><title>Node17</title>
<g id="a_node17"><a xlink:href="../../da/dd2/lua_8h.html#af722e4ac7fc0eba5920f59f0162c1b97" target="_top" xlink:title="lua_newstate">
<polygon fill="none" stroke="black" points="793,-258.5 793,-277.5 867,-277.5 867,-258.5 793,-258.5"/>
<text text-anchor="middle" x="830" y="-265.5" font-family="Helvetica,sans-Serif" font-size="10.00">lua_newstate</text>
</a>
</g>
</g>
<!-- Node16&#45;&gt;Node17 -->
<g id="edge20" class="edge"><title>Node16&#45;&gt;Node17</title>
<path fill="none" stroke="midnightblue" d="M741.389,-247.14C757.749,-251.035 776.736,-255.556 792.843,-259.391"/>
<polygon fill="midnightblue" stroke="midnightblue" points="742.13,-243.719 731.591,-244.807 740.509,-250.529 742.13,-243.719"/>
</g>
<!-- Node18 -->
<g id="node18" class="node"><title>Node18</title>
<g id="a_node18"><a xlink:href="../../da/d29/lauxlib_8h.html#a7d8712fcede90ae93d5a9a7b409c586e" target="_top" xlink:title="luaL_newstate">
<polygon fill="none" stroke="black" points="906,-356.5 906,-375.5 986,-375.5 986,-356.5 906,-356.5"/>
<text text-anchor="middle" x="946" y="-363.5" font-family="Helvetica,sans-Serif" font-size="10.00">luaL_newstate</text>
</a>
</g>
</g>
<!-- Node17&#45;&gt;Node18 -->
<g id="edge21" class="edge"><title>Node17&#45;&gt;Node18</title>
<path fill="none" stroke="midnightblue" d="M850.063,-284.387C873.97,-304.939 914.184,-339.509 933.698,-356.285"/>
<polygon fill="midnightblue" stroke="midnightblue" points="852.212,-281.62 842.348,-277.755 847.649,-286.928 852.212,-281.62"/>
</g>
<!-- Node23 -->
<g id="node23" class="node"><title>Node23</title>
<g id="a_node23"><a xlink:href="../../dd/dca/lstate_8c.html#a8a0fc0aca5367250347c6bb6a788f05f" target="_top" xlink:title="makeseed">
<polygon fill="none" stroke="black" points="915.5,-258.5 915.5,-277.5 976.5,-277.5 976.5,-258.5 915.5,-258.5"/>
<text text-anchor="middle" x="946" y="-265.5" font-family="Helvetica,sans-Serif" font-size="10.00">makeseed</text>
</a>
</g>
</g>
<!-- Node17&#45;&gt;Node23 -->
<g id="edge26" class="edge"><title>Node17&#45;&gt;Node23</title>
<path fill="none" stroke="midnightblue" d="M877.163,-261.36C890.018,-261.097 903.636,-261.307 915.271,-261.99"/>
<polygon fill="midnightblue" stroke="midnightblue" points="876.957,-257.864 867.07,-261.672 877.174,-264.861 876.957,-257.864"/>
</g>
<!-- Node19 -->
<g id="node19" class="node"><title>Node19</title>
<g id="a_node19"><a xlink:href="../../dc/de7/interface_kensho_lua_wrapper.html#a7d10aa0242861cdd109d3da9383882a2" target="_top" xlink:title="&#45;[KenshoLuaWrapper\l evaluate]">
<polygon fill="none" stroke="black" points="1022,-381 1022,-411 1131,-411 1131,-381 1022,-381"/>
<text text-anchor="start" x="1030" y="-399" font-family="Helvetica,sans-Serif" font-size="10.00">&#45;[KenshoLuaWrapper</text>
<text text-anchor="middle" x="1076.5" y="-388" font-family="Helvetica,sans-Serif" font-size="10.00"> evaluate]</text>
</a>
</g>
</g>
<!-- Node18&#45;&gt;Node19 -->
<g id="edge22" class="edge"><title>Node18&#45;&gt;Node19</title>
<path fill="none" stroke="midnightblue" d="M996.242,-377.496C1004.61,-379.45 1013.34,-381.488 1021.82,-383.467"/>
<polygon fill="midnightblue" stroke="midnightblue" points="996.786,-374.029 986.252,-375.164 995.195,-380.846 996.786,-374.029"/>
</g>
<!-- Node20 -->
<g id="node20" class="node"><title>Node20</title>
<g id="a_node20"><a xlink:href="../../dc/de7/interface_kensho_lua_wrapper.html#af6db46358f8858a18b55388aa3af211d" target="_top" xlink:title="&#45;[KenshoLuaWrapper\l initWithKensho:context\l:code:]">
<polygon fill="none" stroke="black" points="1167,-430.5 1167,-471.5 1281,-471.5 1281,-430.5 1167,-430.5"/>
<text text-anchor="start" x="1175" y="-459.5" font-family="Helvetica,sans-Serif" font-size="10.00">&#45;[KenshoLuaWrapper</text>
<text text-anchor="start" x="1175" y="-448.5" font-family="Helvetica,sans-Serif" font-size="10.00"> initWithKensho:context</text>
<text text-anchor="middle" x="1224" y="-437.5" font-family="Helvetica,sans-Serif" font-size="10.00">:code:]</text>
</a>
</g>
</g>
<!-- Node19&#45;&gt;Node20 -->
<g id="edge23" class="edge"><title>Node19&#45;&gt;Node20</title>
<path fill="none" stroke="midnightblue" d="M1126.8,-414.635C1140.23,-419.713 1154.86,-425.243 1168.56,-430.422"/>
<polygon fill="midnightblue" stroke="midnightblue" points="1127.85,-411.291 1117.26,-411.029 1125.37,-417.839 1127.85,-411.291"/>
</g>
<!-- Node21 -->
<g id="node21" class="node"><title>Node21</title>
<g id="a_node21"><a xlink:href="../../dc/de7/interface_kensho_lua_wrapper.html#a5555e0979799446611baee70104555c6" target="_top" xlink:title="&#45;[KenshoLuaWrapper\l evaluate:]">
<polygon fill="none" stroke="red" points="1169.5,-381 1169.5,-411 1278.5,-411 1278.5,-381 1169.5,-381"/>
<text text-anchor="start" x="1177.5" y="-399" font-family="Helvetica,sans-Serif" font-size="10.00">&#45;[KenshoLuaWrapper</text>
<text text-anchor="middle" x="1224" y="-388" font-family="Helvetica,sans-Serif" font-size="10.00"> evaluate:]</text>
</a>
</g>
</g>
<!-- Node19&#45;&gt;Node21 -->
<g id="edge24" class="edge"><title>Node19&#45;&gt;Node21</title>
<path fill="none" stroke="midnightblue" d="M1141.34,-396C1150.72,-396 1160.31,-396 1169.46,-396"/>
<polygon fill="midnightblue" stroke="midnightblue" points="1141.27,-392.5 1131.27,-396 1141.27,-399.5 1141.27,-392.5"/>
</g>
<!-- Node22 -->
<g id="node22" class="node"><title>Node22</title>
<g id="a_node22"><a xlink:href="../../dc/de7/interface_kensho_lua_wrapper.html#a0bb5e125d727942726d707f8b59009dc" target="_top" xlink:title="&#45;[KenshoLuaWrapper\l observableUpdated:]">
<polygon fill="none" stroke="black" points="1169.5,-332 1169.5,-362 1278.5,-362 1278.5,-332 1169.5,-332"/>
<text text-anchor="start" x="1177.5" y="-350" font-family="Helvetica,sans-Serif" font-size="10.00">&#45;[KenshoLuaWrapper</text>
<text text-anchor="middle" x="1224" y="-339" font-family="Helvetica,sans-Serif" font-size="10.00"> observableUpdated:]</text>
</a>
</g>
</g>
<!-- Node19&#45;&gt;Node22 -->
<g id="edge25" class="edge"><title>Node19&#45;&gt;Node22</title>
<path fill="none" stroke="midnightblue" d="M1132.15,-377.595C1147.38,-372.468 1163.73,-366.961 1178.31,-362.052"/>
<polygon fill="midnightblue" stroke="midnightblue" points="1130.7,-374.39 1122.34,-380.899 1132.94,-381.024 1130.7,-374.39"/>
</g>
<!-- Node23&#45;&gt;Node17 -->
<g id="edge27" class="edge"><title>Node23&#45;&gt;Node17</title>
<path fill="none" stroke="midnightblue" d="M905.196,-274.469C892.796,-274.886 879.199,-274.839 867.07,-274.328"/>
<polygon fill="midnightblue" stroke="midnightblue" points="905.441,-277.962 915.271,-274.01 905.122,-270.969 905.441,-277.962"/>
</g>
<!-- Node25 -->
<g id="node25" class="node"><title>Node25</title>
<g id="a_node25"><a xlink:href="../../d1/d2f/lstring_8c.html#a9b2c32c59a280de24f20df1c7f0433a1" target="_top" xlink:title="internshrstr">
<polygon fill="none" stroke="black" points="799.5,-190.5 799.5,-209.5 860.5,-209.5 860.5,-190.5 799.5,-190.5"/>
<text text-anchor="middle" x="830" y="-197.5" font-family="Helvetica,sans-Serif" font-size="10.00">internshrstr</text>
</a>
</g>
</g>
<!-- Node24&#45;&gt;Node25 -->
<g id="edge29" class="edge"><title>Node24&#45;&gt;Node25</title>
<path fill="none" stroke="midnightblue" d="M741.444,-200C759.953,-200 781.814,-200 799.061,-200"/>
<polygon fill="midnightblue" stroke="midnightblue" points="741.277,-196.5 731.277,-200 741.277,-203.5 741.277,-196.5"/>
</g>
<!-- Node26 -->
<g id="node26" class="node"><title>Node26</title>
<g id="a_node26"><a xlink:href="../../d4/dfb/lstring_8h.html#a248e72694b9116b07b2e7f4a9a3a5331" target="_top" xlink:title="luaS_newlstr">
<polygon fill="none" stroke="black" points="910.5,-190.5 910.5,-209.5 981.5,-209.5 981.5,-190.5 910.5,-190.5"/>
<text text-anchor="middle" x="946" y="-197.5" font-family="Helvetica,sans-Serif" font-size="10.00">luaS_newlstr</text>
</a>
</g>
</g>
<!-- Node25&#45;&gt;Node26 -->
<g id="edge30" class="edge"><title>Node25&#45;&gt;Node26</title>
<path fill="none" stroke="midnightblue" d="M871.035,-200C883.819,-200 897.856,-200 910.234,-200"/>
<polygon fill="midnightblue" stroke="midnightblue" points="870.655,-196.5 860.655,-200 870.655,-203.5 870.655,-196.5"/>
</g>
<!-- Node27 -->
<g id="node27" class="node"><title>Node27</title>
<g id="a_node27"><a xlink:href="../../da/dd2/lua_8h.html#a4ab8500ade8e1d8a87b1df1baf19b179" target="_top" xlink:title="lua_pushlstring">
<polygon fill="none" stroke="black" points="1317.5,-209.5 1317.5,-228.5 1397.5,-228.5 1397.5,-209.5 1317.5,-209.5"/>
<text text-anchor="middle" x="1357.5" y="-216.5" font-family="Helvetica,sans-Serif" font-size="10.00">lua_pushlstring</text>
</a>
</g>
</g>
<!-- Node26&#45;&gt;Node27 -->
<g id="edge31" class="edge"><title>Node26&#45;&gt;Node27</title>
<path fill="none" stroke="midnightblue" d="M991.892,-202.083C1072.65,-205.83 1241.12,-213.646 1317.43,-217.187"/>
<polygon fill="midnightblue" stroke="midnightblue" points="991.712,-198.571 981.561,-201.604 991.388,-205.563 991.712,-198.571"/>
</g>
<!-- Node36 -->
<g id="node36" class="node"><title>Node36</title>
<g id="a_node36"><a xlink:href="../../da/dd2/lua_8h.html#a4eba0457df5bafff4d44071d1d8080b6" target="_top" xlink:title="lua_concat">
<polygon fill="none" stroke="black" points="1193,-114.5 1193,-133.5 1255,-133.5 1255,-114.5 1193,-114.5"/>
<text text-anchor="middle" x="1224" y="-121.5" font-family="Helvetica,sans-Serif" font-size="10.00">lua_concat</text>
</a>
</g>
</g>
<!-- Node26&#45;&gt;Node36 -->
<g id="edge42" class="edge"><title>Node26&#45;&gt;Node36</title>
<path fill="none" stroke="midnightblue" d="M991.418,-187.769C1047.99,-172.192 1144.22,-145.692 1192.9,-132.289"/>
<polygon fill="midnightblue" stroke="midnightblue" points="990.388,-184.422 981.676,-190.452 992.246,-191.171 990.388,-184.422"/>
</g>
<!-- Node42 -->
<g id="node42" class="node"><title>Node42</title>
<g id="a_node42"><a xlink:href="../../dd/d05/lcode_8h.html#a4f928250a0f4007764b4d3777651f617" target="_top" xlink:title="luaK_numberK">
<polygon fill="none" stroke="red" points="1036.5,-76.5 1036.5,-95.5 1116.5,-95.5 1116.5,-76.5 1036.5,-76.5"/>
<text text-anchor="middle" x="1076.5" y="-83.5" font-family="Helvetica,sans-Serif" font-size="10.00">luaK_numberK</text>
</a>
</g>
</g>
<!-- Node26&#45;&gt;Node42 -->
<g id="edge50" class="edge"><title>Node26&#45;&gt;Node42</title>
<path fill="none" stroke="midnightblue" d="M959.345,-182.045C976.399,-157.676 1006.78,-115.909 1022,-105 1027.29,-101.21 1033.4,-98.1117 1039.57,-95.5999"/>
<polygon fill="midnightblue" stroke="midnightblue" points="956.35,-180.223 953.521,-190.433 962.1,-184.215 956.35,-180.223"/>
</g>
<!-- Node44 -->
<g id="node44" class="node"><title>Node44</title>
<g id="a_node44"><a xlink:href="../../d8/d27/llex_8h.html#aa6e79179f823cf156f61899a09239ca6" target="_top" xlink:title="luaX_newstring">
<polygon fill="none" stroke="red" points="1036,-38.5 1036,-57.5 1117,-57.5 1117,-38.5 1036,-38.5"/>
<text text-anchor="middle" x="1076.5" y="-45.5" font-family="Helvetica,sans-Serif" font-size="10.00">luaX_newstring</text>
</a>
</g>
</g>
<!-- Node26&#45;&gt;Node44 -->
<g id="edge52" class="edge"><title>Node26&#45;&gt;Node44</title>
<path fill="none" stroke="midnightblue" d="M960.459,-181.913C968.35,-170.936 978.257,-156.485 986,-143 1004.61,-110.587 994.269,-92.059 1022,-67 1026.31,-63.101 1031.48,-59.99 1036.88,-57.5109"/>
<polygon fill="midnightblue" stroke="midnightblue" points="957.465,-180.078 954.397,-190.219 963.119,-184.205 957.465,-180.078"/>
</g>
<!-- Node45 -->
<g id="node45" class="node"><title>Node45</title>
<g id="a_node45"><a xlink:href="../../d7/d9b/lobject_8c.html#aa65db03553a5abd73e466d307bb17a37" target="_top" xlink:title="pushstr">
<polygon fill="none" stroke="red" points="1052.5,-342.5 1052.5,-361.5 1100.5,-361.5 1100.5,-342.5 1052.5,-342.5"/>
<text text-anchor="middle" x="1076.5" y="-349.5" font-family="Helvetica,sans-Serif" font-size="10.00">pushstr</text>
</a>
</g>
</g>
<!-- Node26&#45;&gt;Node45 -->
<g id="edge53" class="edge"><title>Node26&#45;&gt;Node45</title>
<path fill="none" stroke="midnightblue" d="M962.711,-217.371C970.36,-226.384 979.323,-237.825 986,-249 1006.83,-283.868 992.38,-305.207 1022,-333 1030.34,-340.823 1042.1,-345.458 1052.48,-348.187"/>
<polygon fill="midnightblue" stroke="midnightblue" points="965.108,-214.795 955.896,-209.561 959.834,-219.397 965.108,-214.795"/>
</g>
<!-- Node46 -->
<g id="node46" class="node"><title>Node46</title>
<g id="a_node46"><a xlink:href="../../d4/dfb/lstring_8h.html#a6929da8cfde3e74a0d51a6467909ef9d" target="_top" xlink:title="luaS_new">
<polygon fill="none" stroke="red" points="1046.5,-304.5 1046.5,-323.5 1106.5,-323.5 1106.5,-304.5 1046.5,-304.5"/>
<text text-anchor="middle" x="1076.5" y="-311.5" font-family="Helvetica,sans-Serif" font-size="10.00">luaS_new</text>
</a>
</g>
</g>
<!-- Node26&#45;&gt;Node46 -->
<g id="edge54" class="edge"><title>Node26&#45;&gt;Node46</title>
<path fill="none" stroke="midnightblue" d="M961.253,-217.835C968.653,-227.114 977.833,-238.652 986,-249 1002.08,-269.379 1000.93,-279.831 1022,-295 1029.2,-300.183 1037.95,-304.07 1046.27,-306.932"/>
<polygon fill="midnightblue" stroke="midnightblue" points="963.767,-215.375 954.793,-209.743 958.296,-219.742 963.767,-215.375"/>
</g>
<!-- Node47 -->
<g id="node47" class="node"><title>Node47</title>
<g id="a_node47"><a xlink:href="../../de/d2f/lundump_8c.html#abfe7dabe70bd14e27d54d3cedc6cb70a" target="_top" xlink:title="LoadString">
<polygon fill="none" stroke="red" points="1045.5,-266.5 1045.5,-285.5 1107.5,-285.5 1107.5,-266.5 1045.5,-266.5"/>
<text text-anchor="middle" x="1076.5" y="-273.5" font-family="Helvetica,sans-Serif" font-size="10.00">LoadString</text>
</a>
</g>
</g>
<!-- Node26&#45;&gt;Node47 -->
<g id="edge55" class="edge"><title>Node26&#45;&gt;Node47</title>
<path fill="none" stroke="midnightblue" d="M965.171,-216.379C979.715,-228.83 1001.07,-245.688 1022,-257 1029.28,-260.937 1037.55,-264.336 1045.36,-267.126"/>
<polygon fill="midnightblue" stroke="midnightblue" points="967.283,-213.577 957.45,-209.633 962.678,-218.848 967.283,-213.577"/>
</g>
<!-- Node48 -->
<g id="node48" class="node"><title>Node48</title>
<g id="a_node48"><a xlink:href="../../d5/dcd/lvm_8h.html#abcde68a7697547dc2c7f1d0e6734e611" target="_top" xlink:title="luaV_tostring">
<polygon fill="none" stroke="red" points="1041,-228.5 1041,-247.5 1112,-247.5 1112,-228.5 1041,-228.5"/>
<text text-anchor="middle" x="1076.5" y="-235.5" font-family="Helvetica,sans-Serif" font-size="10.00">luaV_tostring</text>
</a>
</g>
</g>
<!-- Node26&#45;&gt;Node48 -->
<g id="edge56" class="edge"><title>Node26&#45;&gt;Node48</title>
<path fill="none" stroke="midnightblue" d="M989.389,-212.535C1006.87,-217.705 1026.8,-223.599 1043.08,-228.414"/>
<polygon fill="midnightblue" stroke="midnightblue" points="990.008,-209.069 979.426,-209.589 988.023,-215.781 990.008,-209.069"/>
</g>
<!-- Node49 -->
<g id="node49" class="node"><title>Node49</title>
<g id="a_node49"><a xlink:href="../../d5/dcd/lvm_8h.html#aee84bfc563cb4bdd21a013218a289aa7" target="_top" xlink:title="luaV_concat">
<polygon fill="none" stroke="red" points="1042,-114.5 1042,-133.5 1111,-133.5 1111,-114.5 1042,-114.5"/>
<text text-anchor="middle" x="1076.5" y="-121.5" font-family="Helvetica,sans-Serif" font-size="10.00">luaV_concat</text>
</a>
</g>
</g>
<!-- Node26&#45;&gt;Node49 -->
<g id="edge57" class="edge"><title>Node26&#45;&gt;Node49</title>
<path fill="none" stroke="midnightblue" d="M967.621,-184.158C982.322,-173.253 1002.8,-158.837 1022,-148 1031.4,-142.695 1042.18,-137.668 1051.6,-133.599"/>
<polygon fill="midnightblue" stroke="midnightblue" points="965.167,-181.623 959.277,-190.43 969.374,-187.218 965.167,-181.623"/>
</g>
<!-- Node28 -->
<g id="node28" class="node"><title>Node28</title>
<g id="a_node28"><a xlink:href="../../da/d29/lauxlib_8h.html#aac5dfab9ba0ced4f5ae3b22aa35faffe" target="_top" xlink:title="luaL_pushresult">
<polygon fill="none" stroke="red" points="1438.5,-247.5 1438.5,-266.5 1521.5,-266.5 1521.5,-247.5 1438.5,-247.5"/>
<text text-anchor="middle" x="1480" y="-254.5" font-family="Helvetica,sans-Serif" font-size="10.00">luaL_pushresult</text>
</a>
</g>
</g>
<!-- Node27&#45;&gt;Node28 -->
<g id="edge32" class="edge"><title>Node27&#45;&gt;Node28</title>
<path fill="none" stroke="midnightblue" d="M1398.71,-231.68C1414.99,-236.815 1433.48,-242.644 1448.6,-247.414"/>
<polygon fill="midnightblue" stroke="midnightblue" points="1399.5,-228.259 1388.91,-228.589 1397.39,-234.935 1399.5,-228.259"/>
</g>
<!-- Node29 -->
<g id="node29" class="node"><title>Node29</title>
<g id="a_node29"><a xlink:href="../../de/df3/liolib_8c.html#ace61fce0bdea311d6d7c2206881165c7" target="_top" xlink:title="test_eof">
<polygon fill="none" stroke="red" points="1455,-209.5 1455,-228.5 1505,-228.5 1505,-209.5 1455,-209.5"/>
<text text-anchor="middle" x="1480" y="-216.5" font-family="Helvetica,sans-Serif" font-size="10.00">test_eof</text>
</a>
</g>
</g>
<!-- Node27&#45;&gt;Node29 -->
<g id="edge33" class="edge"><title>Node27&#45;&gt;Node29</title>
<path fill="none" stroke="midnightblue" d="M1408.03,-219C1424.17,-219 1441.38,-219 1454.8,-219"/>
<polygon fill="midnightblue" stroke="midnightblue" points="1407.62,-215.5 1397.62,-219 1407.62,-222.5 1407.62,-215.5"/>
</g>
<!-- Node30 -->
<g id="node30" class="node"><title>Node30</title>
<g id="a_node30"><a xlink:href="../../d2/d82/loadlib_8c.html#aa1ea5ee1b54a06650a887c4ee05a8547" target="_top" xlink:title="pushnexttemplate">
<polygon fill="none" stroke="red" points="1434,-171.5 1434,-190.5 1526,-190.5 1526,-171.5 1434,-171.5"/>
<text text-anchor="middle" x="1480" y="-178.5" font-family="Helvetica,sans-Serif" font-size="10.00">pushnexttemplate</text>
</a>
</g>
</g>
<!-- Node27&#45;&gt;Node30 -->
<g id="edge34" class="edge"><title>Node27&#45;&gt;Node30</title>
<path fill="none" stroke="midnightblue" d="M1398.71,-206.32C1414.99,-201.185 1433.48,-195.356 1448.6,-190.586"/>
<polygon fill="midnightblue" stroke="midnightblue" points="1397.39,-203.065 1388.91,-209.411 1399.5,-209.741 1397.39,-203.065"/>
</g>
<!-- Node31 -->
<g id="node31" class="node"><title>Node31</title>
<g id="a_node31"><a xlink:href="../../d2/d82/loadlib_8c.html#a91ac5b5231cf039af46226806dcc3884" target="_top" xlink:title="loadfunc">
<polygon fill="none" stroke="red" points="1454,-361.5 1454,-380.5 1506,-380.5 1506,-361.5 1454,-361.5"/>
<text text-anchor="middle" x="1480" y="-368.5" font-family="Helvetica,sans-Serif" font-size="10.00">loadfunc</text>
</a>
</g>
</g>
<!-- Node27&#45;&gt;Node31 -->
<g id="edge35" class="edge"><title>Node27&#45;&gt;Node31</title>
<path fill="none" stroke="midnightblue" d="M1365.79,-238.008C1376.97,-265.085 1400.61,-315.016 1434,-347 1440.14,-352.88 1448,-357.725 1455.43,-361.484"/>
<polygon fill="midnightblue" stroke="midnightblue" points="1368.96,-236.517 1362.01,-228.529 1362.46,-239.114 1368.96,-236.517"/>
</g>
<!-- Node32 -->
<g id="node32" class="node"><title>Node32</title>
<g id="a_node32"><a xlink:href="../../d2/d82/loadlib_8c.html#a1ec05cd98a045c271aeda9f9c6041e1c" target="_top" xlink:title="searcher_Croot">
<polygon fill="none" stroke="red" points="1562,-342.5 1562,-361.5 1642,-361.5 1642,-342.5 1562,-342.5"/>
<text text-anchor="middle" x="1602" y="-349.5" font-family="Helvetica,sans-Serif" font-size="10.00">searcher_Croot</text>
</a>
</g>
</g>
<!-- Node27&#45;&gt;Node32 -->
<g id="edge37" class="edge"><title>Node27&#45;&gt;Node32</title>
<path fill="none" stroke="midnightblue" d="M1368.08,-237.516C1380.35,-259.308 1403.69,-294.934 1434,-314 1473.01,-338.54 1526,-347.294 1561.75,-350.382"/>
<polygon fill="midnightblue" stroke="midnightblue" points="1371.08,-235.709 1363.24,-228.586 1364.93,-239.045 1371.08,-235.709"/>
</g>
<!-- Node33 -->
<g id="node33" class="node"><title>Node33</title>
<g id="a_node33"><a xlink:href="../../dc/d77/lstrlib_8c.html#a039b391d5f43533a0ce750c5e40d7752" target="_top" xlink:title="str_sub">
<polygon fill="none" stroke="black" points="1456,-285.5 1456,-304.5 1504,-304.5 1504,-285.5 1456,-285.5"/>
<text text-anchor="middle" x="1480" y="-292.5" font-family="Helvetica,sans-Serif" font-size="10.00">str_sub</text>
</a>
</g>
</g>
<!-- Node27&#45;&gt;Node33 -->
<g id="edge38" class="edge"><title>Node27&#45;&gt;Node33</title>
<path fill="none" stroke="midnightblue" d="M1377.51,-235.456C1392.25,-247.677 1413.54,-264.203 1434,-276 1440.76,-279.898 1448.47,-283.448 1455.58,-286.397"/>
<polygon fill="midnightblue" stroke="midnightblue" points="1379.55,-232.595 1369.65,-228.825 1375.04,-237.947 1379.55,-232.595"/>
</g>
<!-- Node34 -->
<g id="node34" class="node"><title>Node34</title>
<g id="a_node34"><a xlink:href="../../dc/d77/lstrlib_8c.html#a24a14b4e6e90bac4610dd334bb0b51b6" target="_top" xlink:title="push_onecapture">
<polygon fill="none" stroke="red" points="1434.5,-95.5 1434.5,-114.5 1525.5,-114.5 1525.5,-95.5 1434.5,-95.5"/>
<text text-anchor="middle" x="1480" y="-102.5" font-family="Helvetica,sans-Serif" font-size="10.00">push_onecapture</text>
</a>
</g>
</g>
<!-- Node27&#45;&gt;Node34 -->
<g id="edge39" class="edge"><title>Node27&#45;&gt;Node34</title>
<path fill="none" stroke="midnightblue" d="M1393.39,-203.935C1395.02,-202.708 1396.57,-201.398 1398,-200 1423.28,-175.246 1409.24,-154.275 1434,-129 1439.82,-123.054 1447.44,-118.239 1454.74,-114.526"/>
<polygon fill="midnightblue" stroke="midnightblue" points="1391.33,-201.099 1384.73,-209.387 1395.06,-207.023 1391.33,-201.099"/>
</g>
<!-- Node35 -->
<g id="node35" class="node"><title>Node35</title>
<g id="a_node35"><a xlink:href="../../dc/d77/lstrlib_8c.html#ad24cfa73e5ad25ec99a1b48f0916471e" target="_top" xlink:title="add_value">
<polygon fill="none" stroke="red" points="1571,-95.5 1571,-114.5 1633,-114.5 1633,-95.5 1571,-95.5"/>
<text text-anchor="middle" x="1602" y="-102.5" font-family="Helvetica,sans-Serif" font-size="10.00">add_value</text>
</a>
</g>
</g>
<!-- Node27&#45;&gt;Node35 -->
<g id="edge41" class="edge"><title>Node27&#45;&gt;Node35</title>
<path fill="none" stroke="midnightblue" d="M1390.92,-204.629C1393.38,-203.173 1395.77,-201.626 1398,-200 1416.79,-186.287 1414.42,-174.567 1434,-162 1457.01,-147.23 1529.12,-125.345 1570.68,-113.448"/>
<polygon fill="midnightblue" stroke="midnightblue" points="1389.02,-201.679 1381.87,-209.495 1392.33,-207.846 1389.02,-201.679"/>
</g>
<!-- Node31&#45;&gt;Node32 -->
<g id="edge36" class="edge"><title>Node31&#45;&gt;Node32</title>
<path fill="none" stroke="midnightblue" d="M1516.1,-365.442C1530.4,-363.178 1547,-360.55 1561.7,-358.222"/>
<polygon fill="midnightblue" stroke="midnightblue" points="1515.49,-361.996 1506.16,-367.017 1516.58,-368.91 1515.49,-361.996"/>
</g>
<!-- Node34&#45;&gt;Node35 -->
<g id="edge40" class="edge"><title>Node34&#45;&gt;Node35</title>
<path fill="none" stroke="midnightblue" d="M1535.72,-105C1547.8,-105 1560.17,-105 1570.85,-105"/>
<polygon fill="midnightblue" stroke="midnightblue" points="1535.68,-101.5 1525.68,-105 1535.68,-108.5 1535.68,-101.5"/>
</g>
<!-- Node37 -->
<g id="node37" class="node"><title>Node37</title>
<g id="a_node37"><a xlink:href="../../d0/d56/lauxlib_8c.html#a36c8f149b779f8c9a5c042ea9784d80a" target="_top" xlink:title="findfield">
<polygon fill="none" stroke="red" points="1334,-57.5 1334,-76.5 1381,-76.5 1381,-57.5 1334,-57.5"/>
<text text-anchor="middle" x="1357.5" y="-64.5" font-family="Helvetica,sans-Serif" font-size="10.00">findfield</text>
</a>
</g>
</g>
<!-- Node36&#45;&gt;Node37 -->
<g id="edge43" class="edge"><title>Node36&#45;&gt;Node37</title>
<path fill="none" stroke="midnightblue" d="M1264.95,-111.314C1270.4,-109.333 1275.87,-107.207 1281,-105 1297.62,-97.8489 1300.85,-94.1448 1317,-86 1323.25,-82.8482 1330.11,-79.5079 1336.33,-76.5217"/>
<polygon fill="midnightblue" stroke="midnightblue" points="1263.55,-108.097 1255.27,-114.707 1265.86,-114.704 1263.55,-108.097"/>
</g>
<!-- Node38 -->
<g id="node38" class="node"><title>Node38</title>
<g id="a_node38"><a xlink:href="../../da/d29/lauxlib_8h.html#a664cc293d6c7a7dc67857fe95583a10e" target="_top" xlink:title="luaL_traceback">
<polygon fill="none" stroke="red" points="1317,-19.5 1317,-38.5 1398,-38.5 1398,-19.5 1317,-19.5"/>
<text text-anchor="middle" x="1357.5" y="-26.5" font-family="Helvetica,sans-Serif" font-size="10.00">luaL_traceback</text>
</a>
</g>
</g>
<!-- Node36&#45;&gt;Node38 -->
<g id="edge44" class="edge"><title>Node36&#45;&gt;Node38</title>
<path fill="none" stroke="midnightblue" d="M1264.83,-114.294C1270.59,-111.838 1276.2,-108.785 1281,-105 1304.54,-86.4572 1294.63,-67.9347 1317,-48 1321.09,-44.3548 1326,-41.257 1330.96,-38.6872"/>
<polygon fill="midnightblue" stroke="midnightblue" points="1263.25,-111.145 1255.08,-117.887 1265.67,-117.713 1263.25,-111.145"/>
</g>
<!-- Node39 -->
<g id="node39" class="node"><title>Node39</title>
<g id="a_node39"><a xlink:href="../../da/d29/lauxlib_8h.html#a994f73d7985c30672469a260d9e86ae6" target="_top" xlink:title="luaL_error">
<polygon fill="none" stroke="red" points="1329,-95.5 1329,-114.5 1386,-114.5 1386,-95.5 1329,-95.5"/>
<text text-anchor="middle" x="1357.5" y="-102.5" font-family="Helvetica,sans-Serif" font-size="10.00">luaL_error</text>
</a>
</g>
</g>
<!-- Node36&#45;&gt;Node39 -->
<g id="edge45" class="edge"><title>Node36&#45;&gt;Node39</title>
<path fill="none" stroke="midnightblue" d="M1265.2,-118.191C1285.76,-115.22 1310.27,-111.679 1328.72,-109.015"/>
<polygon fill="midnightblue" stroke="midnightblue" points="1264.57,-114.747 1255.17,-119.641 1265.57,-121.675 1264.57,-114.747"/>
</g>
<!-- Node40 -->
<g id="node40" class="node"><title>Node40</title>
<g id="a_node40"><a xlink:href="../../d8/dd3/lbaselib_8c.html#a2ecfa987569d0b4c1063f3e204e42dd2" target="_top" xlink:title="luaB_error">
<polygon fill="none" stroke="black" points="1328,-171.5 1328,-190.5 1387,-190.5 1387,-171.5 1328,-171.5"/>
<text text-anchor="middle" x="1357.5" y="-178.5" font-family="Helvetica,sans-Serif" font-size="10.00">luaB_error</text>
</a>
</g>
</g>
<!-- Node36&#45;&gt;Node40 -->
<g id="edge48" class="edge"><title>Node36&#45;&gt;Node40</title>
<path fill="none" stroke="midnightblue" d="M1256.42,-137.618C1280.48,-148.046 1313.06,-162.17 1334.42,-171.428"/>
<polygon fill="midnightblue" stroke="midnightblue" points="1257.58,-134.306 1247.01,-133.541 1254.79,-140.729 1257.58,-134.306"/>
</g>
<!-- Node41 -->
<g id="node41" class="node"><title>Node41</title>
<g id="a_node41"><a xlink:href="../../df/d2d/lcorolib_8c.html#a777abb20385a69ce4787f72bd90375a7" target="_top" xlink:title="luaB_auxwrap">
<polygon fill="none" stroke="red" points="1317.5,-133.5 1317.5,-152.5 1397.5,-152.5 1397.5,-133.5 1317.5,-133.5"/>
<text text-anchor="middle" x="1357.5" y="-140.5" font-family="Helvetica,sans-Serif" font-size="10.00">luaB_auxwrap</text>
</a>
</g>
</g>
<!-- Node36&#45;&gt;Node41 -->
<g id="edge49" class="edge"><title>Node36&#45;&gt;Node41</title>
<path fill="none" stroke="midnightblue" d="M1265.14,-129.799C1281.76,-132.201 1300.98,-134.978 1317.48,-137.362"/>
<polygon fill="midnightblue" stroke="midnightblue" points="1265.57,-126.325 1255.17,-128.359 1264.57,-133.253 1265.57,-126.325"/>
</g>
<!-- Node39&#45;&gt;Node34 -->
<g id="edge47" class="edge"><title>Node39&#45;&gt;Node34</title>
<path fill="none" stroke="midnightblue" d="M1396.36,-105C1408.45,-105 1421.96,-105 1434.48,-105"/>
<polygon fill="midnightblue" stroke="midnightblue" points="1396.15,-101.5 1386.15,-105 1396.15,-108.5 1396.15,-101.5"/>
</g>
<!-- Node39&#45;&gt;Node35 -->
<g id="edge46" class="edge"><title>Node39&#45;&gt;Node35</title>
<path fill="none" stroke="midnightblue" d="M1395.89,-93.6556C1407.93,-90.523 1421.42,-87.558 1434,-86 1474.58,-80.9725 1485.43,-80.9405 1526,-86 1540.93,-87.8615 1557.15,-91.7309 1570.68,-95.495"/>
<polygon fill="midnightblue" stroke="midnightblue" points="1394.89,-90.2996 1386.16,-96.2991 1396.72,-97.0547 1394.89,-90.2996"/>
</g>
<!-- Node43 -->
<g id="node43" class="node"><title>Node43</title>
<g id="a_node43"><a xlink:href="../../d8/d7a/lcode_8c.html#a961993a449bc9612ac966652646ffad6" target="_top" xlink:title="discharge2reg">
<polygon fill="none" stroke="red" points="1186.5,-76.5 1186.5,-95.5 1261.5,-95.5 1261.5,-76.5 1186.5,-76.5"/>
<text text-anchor="middle" x="1224" y="-83.5" font-family="Helvetica,sans-Serif" font-size="10.00">discharge2reg</text>
</a>
</g>
</g>
<!-- Node42&#45;&gt;Node43 -->
<g id="edge51" class="edge"><title>Node42&#45;&gt;Node43</title>
<path fill="none" stroke="midnightblue" d="M1127.03,-86C1146.38,-86 1168.17,-86 1186.1,-86"/>
<polygon fill="midnightblue" stroke="midnightblue" points="1126.87,-82.5001 1116.87,-86 1126.87,-89.5001 1126.87,-82.5001"/>
</g>
<!-- Node49&#45;&gt;Node36 -->
<g id="edge58" class="edge"><title>Node49&#45;&gt;Node36</title>
<path fill="none" stroke="midnightblue" d="M1121.49,-124C1144.58,-124 1172.27,-124 1192.9,-124"/>
<polygon fill="midnightblue" stroke="midnightblue" points="1121.25,-120.5 1111.25,-124 1121.25,-127.5 1121.25,-120.5"/>
</g>
<!-- Node50&#45;&gt;Node10 -->
<g id="edge60" class="edge"><title>Node50&#45;&gt;Node10</title>
<path fill="none" stroke="midnightblue" d="M474.233,-162.02C531.362,-161.607 652.837,-158.747 754,-143 768.201,-140.789 783.634,-137.108 796.787,-133.57"/>
<polygon fill="midnightblue" stroke="midnightblue" points="473.993,-158.521 464.011,-162.072 474.029,-165.521 473.993,-158.521"/>
</g>
</g>
</svg>
