<?xml version="1.0" encoding="UTF-8" standalone="no"?>
<!DOCTYPE svg PUBLIC "-//W3C//DTD SVG 1.1//EN"
 "http://www.w3.org/Graphics/SVG/1.1/DTD/svg11.dtd">
<!-- Generated by graphviz version 2.38.0 (20140413.2041)
 -->
<!-- Title: luaC_freeallobjects Pages: 1 -->
<svg width="1026pt" height="170pt"
 viewBox="0.00 0.00 1026.00 170.00" xmlns="http://www.w3.org/2000/svg" xmlns:xlink="http://www.w3.org/1999/xlink">
<g id="graph0" class="graph" transform="scale(1 1) rotate(0) translate(4 166)">
<title>luaC_freeallobjects</title>
<!-- Node1 -->
<g id="node1" class="node"><title>Node1</title>
<polygon fill="#bfbfbf" stroke="black" points="0,-19.5 0,-38.5 97,-38.5 97,-19.5 0,-19.5"/>
<text text-anchor="middle" x="48.5" y="-26.5" font-family="Helvetica,sans-Serif" font-size="10.00">luaC_freeallobjects</text>
</g>
<!-- Node2 -->
<g id="node2" class="node"><title>Node2</title>
<g id="a_node2"><a xlink:href="../../dd/dca/lstate_8c.html#a4940327dfa3b86df0ef008180bb3fcb3" target="_top" xlink:title="close_state">
<polygon fill="none" stroke="black" points="133,-19.5 133,-38.5 198,-38.5 198,-19.5 133,-19.5"/>
<text text-anchor="middle" x="165.5" y="-26.5" font-family="Helvetica,sans-Serif" font-size="10.00">close_state</text>
</a>
</g>
</g>
<!-- Node1&#45;&gt;Node2 -->
<g id="edge1" class="edge"><title>Node1&#45;&gt;Node2</title>
<path fill="none" stroke="midnightblue" d="M107.462,-29C116.179,-29 124.881,-29 132.768,-29"/>
<polygon fill="midnightblue" stroke="midnightblue" points="107.271,-25.5001 97.2713,-29 107.271,-32.5001 107.271,-25.5001"/>
</g>
<!-- Node3 -->
<g id="node3" class="node"><title>Node3</title>
<g id="a_node3"><a xlink:href="../../da/dd2/lua_8h.html#af722e4ac7fc0eba5920f59f0162c1b97" target="_top" xlink:title="lua_newstate">
<polygon fill="none" stroke="black" points="234,-38.5 234,-57.5 308,-57.5 308,-38.5 234,-38.5"/>
<text text-anchor="middle" x="271" y="-45.5" font-family="Helvetica,sans-Serif" font-size="10.00">lua_newstate</text>
</a>
</g>
</g>
<!-- Node2&#45;&gt;Node3 -->
<g id="edge2" class="edge"><title>Node2&#45;&gt;Node3</title>
<path fill="none" stroke="midnightblue" d="M208.226,-36.6599C216.72,-38.2192 225.589,-39.8472 233.869,-41.3672"/>
<polygon fill="midnightblue" stroke="midnightblue" points="208.583,-33.167 198.116,-34.8039 207.319,-40.052 208.583,-33.167"/>
</g>
<!-- Node12 -->
<g id="node12" class="node"><title>Node12</title>
<g id="a_node12"><a xlink:href="../../da/dd2/lua_8h.html#afe030a97e84f24dfab3afb598faa2fff" target="_top" xlink:title="lua_close">
<polygon fill="none" stroke="black" points="243,-0.5 243,-19.5 299,-19.5 299,-0.5 243,-0.5"/>
<text text-anchor="middle" x="271" y="-7.5" font-family="Helvetica,sans-Serif" font-size="10.00">lua_close</text>
</a>
</g>
</g>
<!-- Node2&#45;&gt;Node12 -->
<g id="edge13" class="edge"><title>Node2&#45;&gt;Node12</title>
<path fill="none" stroke="midnightblue" d="M208.123,-21.3591C219.791,-19.2171 232.174,-16.9438 242.773,-14.9982"/>
<polygon fill="midnightblue" stroke="midnightblue" points="207.319,-17.948 198.116,-23.1961 208.583,-24.833 207.319,-17.948"/>
</g>
<!-- Node4 -->
<g id="node4" class="node"><title>Node4</title>
<g id="a_node4"><a xlink:href="../../da/d29/lauxlib_8h.html#a7d8712fcede90ae93d5a9a7b409c586e" target="_top" xlink:title="luaL_newstate">
<polygon fill="none" stroke="black" points="344,-76.5 344,-95.5 424,-95.5 424,-76.5 344,-76.5"/>
<text text-anchor="middle" x="384" y="-83.5" font-family="Helvetica,sans-Serif" font-size="10.00">luaL_newstate</text>
</a>
</g>
</g>
<!-- Node3&#45;&gt;Node4 -->
<g id="edge3" class="edge"><title>Node3&#45;&gt;Node4</title>
<path fill="none" stroke="midnightblue" d="M309.891,-60.9718C324.68,-66.0344 341.329,-71.7341 354.999,-76.4141"/>
<polygon fill="midnightblue" stroke="midnightblue" points="310.605,-57.5166 300.01,-57.589 308.337,-64.1393 310.605,-57.5166"/>
</g>
<!-- Node11 -->
<g id="node11" class="node"><title>Node11</title>
<g id="a_node11"><a xlink:href="../../dd/dca/lstate_8c.html#a8a0fc0aca5367250347c6bb6a788f05f" target="_top" xlink:title="makeseed">
<polygon fill="none" stroke="black" points="353.5,-38.5 353.5,-57.5 414.5,-57.5 414.5,-38.5 353.5,-38.5"/>
<text text-anchor="middle" x="384" y="-45.5" font-family="Helvetica,sans-Serif" font-size="10.00">makeseed</text>
</a>
</g>
</g>
<!-- Node3&#45;&gt;Node11 -->
<g id="edge11" class="edge"><title>Node3&#45;&gt;Node11</title>
<path fill="none" stroke="midnightblue" d="M318.284,-41.3334C330.178,-41.1163 342.653,-41.323 353.441,-41.9534"/>
<polygon fill="midnightblue" stroke="midnightblue" points="317.932,-37.8421 308.039,-41.6333 318.137,-44.8391 317.932,-37.8421"/>
</g>
<!-- Node5 -->
<g id="node5" class="node"><title>Node5</title>
<g id="a_node5"><a xlink:href="../../dc/de7/interface_kensho_lua_wrapper.html#a7d10aa0242861cdd109d3da9383882a2" target="_top" xlink:title="&#45;[KenshoLuaWrapper\l evaluate]">
<polygon fill="none" stroke="black" points="460,-71 460,-101 569,-101 569,-71 460,-71"/>
<text text-anchor="start" x="468" y="-89" font-family="Helvetica,sans-Serif" font-size="10.00">&#45;[KenshoLuaWrapper</text>
<text text-anchor="middle" x="514.5" y="-78" font-family="Helvetica,sans-Serif" font-size="10.00"> evaluate]</text>
</a>
</g>
</g>
<!-- Node4&#45;&gt;Node5 -->
<g id="edge4" class="edge"><title>Node4&#45;&gt;Node5</title>
<path fill="none" stroke="midnightblue" d="M434.518,-86C442.804,-86 451.435,-86 459.819,-86"/>
<polygon fill="midnightblue" stroke="midnightblue" points="434.252,-82.5001 424.252,-86 434.252,-89.5001 434.252,-82.5001"/>
</g>
<!-- Node6 -->
<g id="node6" class="node"><title>Node6</title>
<g id="a_node6"><a xlink:href="../../dc/de7/interface_kensho_lua_wrapper.html#af6db46358f8858a18b55388aa3af211d" target="_top" xlink:title="&#45;[KenshoLuaWrapper\l initWithKensho:context\l:code:]">
<polygon fill="none" stroke="black" points="605,-120.5 605,-161.5 719,-161.5 719,-120.5 605,-120.5"/>
<text text-anchor="start" x="613" y="-149.5" font-family="Helvetica,sans-Serif" font-size="10.00">&#45;[KenshoLuaWrapper</text>
<text text-anchor="start" x="613" y="-138.5" font-family="Helvetica,sans-Serif" font-size="10.00"> initWithKensho:context</text>
<text text-anchor="middle" x="662" y="-127.5" font-family="Helvetica,sans-Serif" font-size="10.00">:code:]</text>
</a>
</g>
</g>
<!-- Node5&#45;&gt;Node6 -->
<g id="edge5" class="edge"><title>Node5&#45;&gt;Node6</title>
<path fill="none" stroke="midnightblue" d="M564.799,-104.635C578.233,-109.713 592.861,-115.243 606.563,-120.422"/>
<polygon fill="midnightblue" stroke="midnightblue" points="565.85,-101.291 555.259,-101.029 563.375,-107.839 565.85,-101.291"/>
</g>
<!-- Node7 -->
<g id="node7" class="node"><title>Node7</title>
<g id="a_node7"><a xlink:href="../../dc/de7/interface_kensho_lua_wrapper.html#a5555e0979799446611baee70104555c6" target="_top" xlink:title="&#45;[KenshoLuaWrapper\l evaluate:]">
<polygon fill="none" stroke="black" points="607.5,-71 607.5,-101 716.5,-101 716.5,-71 607.5,-71"/>
<text text-anchor="start" x="615.5" y="-89" font-family="Helvetica,sans-Serif" font-size="10.00">&#45;[KenshoLuaWrapper</text>
<text text-anchor="middle" x="662" y="-78" font-family="Helvetica,sans-Serif" font-size="10.00"> evaluate:]</text>
</a>
</g>
</g>
<!-- Node5&#45;&gt;Node7 -->
<g id="edge6" class="edge"><title>Node5&#45;&gt;Node7</title>
<path fill="none" stroke="midnightblue" d="M579.339,-86C588.723,-86 598.307,-86 607.456,-86"/>
<polygon fill="midnightblue" stroke="midnightblue" points="579.265,-82.5001 569.265,-86 579.265,-89.5001 579.265,-82.5001"/>
</g>
<!-- Node10 -->
<g id="node10" class="node"><title>Node10</title>
<g id="a_node10"><a xlink:href="../../dc/de7/interface_kensho_lua_wrapper.html#a0bb5e125d727942726d707f8b59009dc" target="_top" xlink:title="&#45;[KenshoLuaWrapper\l observableUpdated:]">
<polygon fill="none" stroke="black" points="607.5,-22 607.5,-52 716.5,-52 716.5,-22 607.5,-22"/>
<text text-anchor="start" x="615.5" y="-40" font-family="Helvetica,sans-Serif" font-size="10.00">&#45;[KenshoLuaWrapper</text>
<text text-anchor="middle" x="662" y="-29" font-family="Helvetica,sans-Serif" font-size="10.00"> observableUpdated:]</text>
</a>
</g>
</g>
<!-- Node5&#45;&gt;Node10 -->
<g id="edge10" class="edge"><title>Node5&#45;&gt;Node10</title>
<path fill="none" stroke="midnightblue" d="M570.153,-67.5945C585.376,-62.4678 601.729,-56.9608 616.306,-52.0516"/>
<polygon fill="midnightblue" stroke="midnightblue" points="568.702,-64.39 560.342,-70.8986 570.936,-71.0239 568.702,-64.39"/>
</g>
<!-- Node8 -->
<g id="node8" class="node"><title>Node8</title>
<g id="a_node8"><a xlink:href="../../da/d0b/interface_kensho.html#a07b4d14db676108e1a94a1f10e100fb4" target="_top" xlink:title="&#45;[Kensho bindToView\l:context:]">
<polygon fill="none" stroke="black" points="755,-71 755,-101 863,-101 863,-71 755,-71"/>
<text text-anchor="start" x="763" y="-89" font-family="Helvetica,sans-Serif" font-size="10.00">&#45;[Kensho bindToView</text>
<text text-anchor="middle" x="809" y="-78" font-family="Helvetica,sans-Serif" font-size="10.00">:context:]</text>
</a>
</g>
</g>
<!-- Node7&#45;&gt;Node8 -->
<g id="edge7" class="edge"><title>Node7&#45;&gt;Node8</title>
<path fill="none" stroke="midnightblue" d="M726.62,-86C735.971,-86 745.523,-86 754.64,-86"/>
<polygon fill="midnightblue" stroke="midnightblue" points="726.581,-82.5001 716.581,-86 726.581,-89.5001 726.581,-82.5001"/>
</g>
<!-- Node8&#45;&gt;Node8 -->
<g id="edge9" class="edge"><title>Node8&#45;&gt;Node8</title>
<path fill="none" stroke="midnightblue" d="M783.058,-111.458C786.277,-116.179 794.925,-119.5 809,-119.5 832.098,-119.5 840.579,-110.557 834.444,-101.159"/>
<polygon fill="midnightblue" stroke="midnightblue" points="786.568,-111.317 783.556,-101.159 779.577,-110.978 786.568,-111.317"/>
</g>
<!-- Node9 -->
<g id="node9" class="node"><title>Node9</title>
<g id="a_node9"><a xlink:href="../../da/d0b/interface_kensho.html#a1019e8223ee907bab87501ae483e609f" target="_top" xlink:title="&#45;[Kensho applyBindings\l:viewModel:]">
<polygon fill="none" stroke="black" points="899,-71 899,-101 1018,-101 1018,-71 899,-71"/>
<text text-anchor="start" x="907" y="-89" font-family="Helvetica,sans-Serif" font-size="10.00">&#45;[Kensho applyBindings</text>
<text text-anchor="middle" x="958.5" y="-78" font-family="Helvetica,sans-Serif" font-size="10.00">:viewModel:]</text>
</a>
</g>
</g>
<!-- Node8&#45;&gt;Node9 -->
<g id="edge8" class="edge"><title>Node8&#45;&gt;Node9</title>
<path fill="none" stroke="midnightblue" d="M873.421,-86C881.859,-86 890.481,-86 898.833,-86"/>
<polygon fill="midnightblue" stroke="midnightblue" points="873.251,-82.5001 863.251,-86 873.251,-89.5001 873.251,-82.5001"/>
</g>
<!-- Node11&#45;&gt;Node3 -->
<g id="edge12" class="edge"><title>Node11&#45;&gt;Node3</title>
<path fill="none" stroke="midnightblue" d="M343.232,-54.503C331.747,-54.8728 319.283,-54.8274 308.039,-54.3667"/>
<polygon fill="midnightblue" stroke="midnightblue" points="343.607,-57.9898 353.441,-54.0466 343.294,-50.9968 343.607,-57.9898"/>
</g>
<!-- Node13 -->
<g id="node13" class="node"><title>Node13</title>
<g id="a_node13"><a xlink:href="../../dc/dba/loslib_8c.html#a905e81425fe3d6d0b363c10162a2a37b" target="_top" xlink:title="os_exit">
<polygon fill="none" stroke="black" points="360.5,-0.5 360.5,-19.5 407.5,-19.5 407.5,-0.5 360.5,-0.5"/>
<text text-anchor="middle" x="384" y="-7.5" font-family="Helvetica,sans-Serif" font-size="10.00">os_exit</text>
</a>
</g>
</g>
<!-- Node12&#45;&gt;Node13 -->
<g id="edge14" class="edge"><title>Node12&#45;&gt;Node13</title>
<path fill="none" stroke="midnightblue" d="M309.274,-10C326.159,-10 345.575,-10 360.242,-10"/>
<polygon fill="midnightblue" stroke="midnightblue" points="309.154,-6.5001 299.154,-10 309.154,-13.5001 309.154,-6.5001"/>
</g>
</g>
</svg>
