<?xml version="1.0" encoding="UTF-8" standalone="no"?>
<!DOCTYPE svg PUBLIC "-//W3C//DTD SVG 1.1//EN"
 "http://www.w3.org/Graphics/SVG/1.1/DTD/svg11.dtd">
<!-- Generated by graphviz version 2.38.0 (20140413.2041)
 -->
<!-- Title: luaD_growstack Pages: 1 -->
<svg width="859pt" height="550pt"
 viewBox="0.00 0.00 859.00 550.00" xmlns="http://www.w3.org/2000/svg" xmlns:xlink="http://www.w3.org/1999/xlink">
<g id="graph0" class="graph" transform="scale(1 1) rotate(0) translate(4 546)">
<title>luaD_growstack</title>
<!-- Node1 -->
<g id="node1" class="node"><title>Node1</title>
<polygon fill="#bfbfbf" stroke="black" points="0,-76.5 0,-95.5 86,-95.5 86,-76.5 0,-76.5"/>
<text text-anchor="middle" x="43" y="-83.5" font-family="Helvetica,sans-Serif" font-size="10.00">luaD_growstack</text>
</g>
<!-- Node2 -->
<g id="node2" class="node"><title>Node2</title>
<g id="a_node2"><a xlink:href="../../df/db6/lapi_8c.html#ab3a8303d450a61e55f7928da1fe14302" target="_top" xlink:title="growstack">
<polygon fill="none" stroke="black" points="122,-76.5 122,-95.5 182,-95.5 182,-76.5 122,-76.5"/>
<text text-anchor="middle" x="152" y="-83.5" font-family="Helvetica,sans-Serif" font-size="10.00">growstack</text>
</a>
</g>
</g>
<!-- Node1&#45;&gt;Node2 -->
<g id="edge1" class="edge"><title>Node1&#45;&gt;Node2</title>
<path fill="none" stroke="midnightblue" d="M96.4724,-86C105.209,-86 113.982,-86 121.859,-86"/>
<polygon fill="midnightblue" stroke="midnightblue" points="96.2893,-82.5001 86.2892,-86 96.2892,-89.5001 96.2893,-82.5001"/>
</g>
<!-- Node3 -->
<g id="node3" class="node"><title>Node3</title>
<g id="a_node3"><a xlink:href="../../da/dd2/lua_8h.html#a587f91654912f901426c7118ecc5348c" target="_top" xlink:title="lua_checkstack">
<polygon fill="none" stroke="black" points="218,-76.5 218,-95.5 299,-95.5 299,-76.5 218,-76.5"/>
<text text-anchor="middle" x="258.5" y="-83.5" font-family="Helvetica,sans-Serif" font-size="10.00">lua_checkstack</text>
</a>
</g>
</g>
<!-- Node2&#45;&gt;Node3 -->
<g id="edge2" class="edge"><title>Node2&#45;&gt;Node3</title>
<path fill="none" stroke="midnightblue" d="M192.283,-86C200.564,-86 209.31,-86 217.613,-86"/>
<polygon fill="midnightblue" stroke="midnightblue" points="192.109,-82.5001 182.109,-86 192.109,-89.5001 192.109,-82.5001"/>
</g>
<!-- Node4 -->
<g id="node4" class="node"><title>Node4</title>
<g id="a_node4"><a xlink:href="../../da/d29/lauxlib_8h.html#a724f5a5aeee97c0b40948c8bca91341c" target="_top" xlink:title="luaL_checkstack">
<polygon fill="none" stroke="black" points="335,-266.5 335,-285.5 421,-285.5 421,-266.5 335,-266.5"/>
<text text-anchor="middle" x="378" y="-273.5" font-family="Helvetica,sans-Serif" font-size="10.00">luaL_checkstack</text>
</a>
</g>
</g>
<!-- Node3&#45;&gt;Node4 -->
<g id="edge3" class="edge"><title>Node3&#45;&gt;Node4</title>
<path fill="none" stroke="midnightblue" d="M270.981,-104.564C295.479,-144.179 352.169,-235.848 370.883,-266.108"/>
<polygon fill="midnightblue" stroke="midnightblue" points="273.725,-102.347 265.488,-95.6833 267.771,-106.029 273.725,-102.347"/>
</g>
<!-- Node29 -->
<g id="node29" class="node"><title>Node29</title>
<g id="a_node29"><a xlink:href="../../d8/dd3/lbaselib_8c.html#a1b1ef8a039dd08b155cdfcc6167b63fb" target="_top" xlink:title="finishpcall">
<polygon fill="none" stroke="black" points="349.5,-95.5 349.5,-114.5 406.5,-114.5 406.5,-95.5 349.5,-95.5"/>
<text text-anchor="middle" x="378" y="-102.5" font-family="Helvetica,sans-Serif" font-size="10.00">finishpcall</text>
</a>
</g>
</g>
<!-- Node3&#45;&gt;Node29 -->
<g id="edge28" class="edge"><title>Node3&#45;&gt;Node29</title>
<path fill="none" stroke="midnightblue" d="M309.166,-94.0311C322.971,-96.2633 337.461,-98.6065 349.489,-100.551"/>
<polygon fill="midnightblue" stroke="midnightblue" points="309.711,-90.5738 299.28,-92.4325 308.593,-97.484 309.711,-90.5738"/>
</g>
<!-- Node33 -->
<g id="node33" class="node"><title>Node33</title>
<g id="a_node33"><a xlink:href="../../df/d2d/lcorolib_8c.html#aaa37b3a30ab0c6daef7fae8951fef3e7" target="_top" xlink:title="auxresume">
<polygon fill="none" stroke="black" points="346,-57.5 346,-76.5 410,-76.5 410,-57.5 346,-57.5"/>
<text text-anchor="middle" x="378" y="-64.5" font-family="Helvetica,sans-Serif" font-size="10.00">auxresume</text>
</a>
</g>
</g>
<!-- Node3&#45;&gt;Node33 -->
<g id="edge34" class="edge"><title>Node3&#45;&gt;Node33</title>
<path fill="none" stroke="midnightblue" d="M309.464,-77.9207C321.795,-75.9268 334.654,-73.8475 345.801,-72.0449"/>
<polygon fill="midnightblue" stroke="midnightblue" points="308.593,-74.516 299.28,-79.5675 309.711,-81.4262 308.593,-74.516"/>
</g>
<!-- Node37 -->
<g id="node37" class="node"><title>Node37</title>
<g id="a_node37"><a xlink:href="../../d0/da1/ltablib_8c.html#aab557c98c16305370f73c4c716f5725d" target="_top" xlink:title="unpack">
<polygon fill="none" stroke="black" points="354,-19.5 354,-38.5 402,-38.5 402,-19.5 354,-19.5"/>
<text text-anchor="middle" x="378" y="-26.5" font-family="Helvetica,sans-Serif" font-size="10.00">unpack</text>
</a>
</g>
</g>
<!-- Node3&#45;&gt;Node37 -->
<g id="edge38" class="edge"><title>Node3&#45;&gt;Node37</title>
<path fill="none" stroke="midnightblue" d="M287.242,-71.6916C301.454,-64.4496 319.077,-55.6047 335,-48 341.5,-44.8959 348.62,-41.626 355.122,-38.6906"/>
<polygon fill="midnightblue" stroke="midnightblue" points="285.319,-68.7439 278.011,-76.4143 288.507,-74.9758 285.319,-68.7439"/>
</g>
<!-- Node5 -->
<g id="node5" class="node"><title>Node5</title>
<g id="a_node5"><a xlink:href="../../de/df3/liolib_8c.html#addece2406777a40f0f591e3518293932" target="_top" xlink:title="g_read">
<polygon fill="none" stroke="black" points="475,-465.5 475,-484.5 521,-484.5 521,-465.5 475,-465.5"/>
<text text-anchor="middle" x="498" y="-472.5" font-family="Helvetica,sans-Serif" font-size="10.00">g_read</text>
</a>
</g>
</g>
<!-- Node4&#45;&gt;Node5 -->
<g id="edge4" class="edge"><title>Node4&#45;&gt;Node5</title>
<path fill="none" stroke="midnightblue" d="M389.68,-294.404C404.629,-320.117 432.689,-368.225 457,-409 468.939,-429.024 483.127,-452.318 490.992,-465.187"/>
<polygon fill="midnightblue" stroke="midnightblue" points="392.678,-292.596 384.629,-285.707 386.625,-296.112 392.678,-292.596"/>
</g>
<!-- Node12 -->
<g id="node12" class="node"><title>Node12</title>
<g id="a_node12"><a xlink:href="../../d8/dd3/lbaselib_8c.html#ad467c787e381e8d18e4c7b46b4f1b05d" target="_top" xlink:title="generic_reader">
<polygon fill="none" stroke="black" points="459.5,-380.5 459.5,-399.5 536.5,-399.5 536.5,-380.5 459.5,-380.5"/>
<text text-anchor="middle" x="498" y="-387.5" font-family="Helvetica,sans-Serif" font-size="10.00">generic_reader</text>
</a>
</g>
</g>
<!-- Node4&#45;&gt;Node12 -->
<g id="edge11" class="edge"><title>Node4&#45;&gt;Node12</title>
<path fill="none" stroke="midnightblue" d="M396.509,-293.184C412.277,-308.629 436.116,-331.907 457,-352 467.078,-361.696 478.671,-372.692 486.773,-380.352"/>
<polygon fill="midnightblue" stroke="midnightblue" points="398.649,-290.38 389.057,-285.879 393.748,-295.379 398.649,-290.38"/>
</g>
<!-- Node14 -->
<g id="node14" class="node"><title>Node14</title>
<g id="a_node14"><a xlink:href="../../da/d29/lauxlib_8h.html#a8750009b9bbc508e4c3818ebd15b4e14" target="_top" xlink:title="luaL_setfuncs">
<polygon fill="none" stroke="black" points="460.5,-323.5 460.5,-342.5 535.5,-342.5 535.5,-323.5 460.5,-323.5"/>
<text text-anchor="middle" x="498" y="-330.5" font-family="Helvetica,sans-Serif" font-size="10.00">luaL_setfuncs</text>
</a>
</g>
</g>
<!-- Node4&#45;&gt;Node14 -->
<g id="edge13" class="edge"><title>Node4&#45;&gt;Node14</title>
<path fill="none" stroke="midnightblue" d="M407.769,-289.897C429.299,-300.297 458.188,-314.252 477.185,-323.428"/>
<polygon fill="midnightblue" stroke="midnightblue" points="409.277,-286.739 398.751,-285.541 406.233,-293.042 409.277,-286.739"/>
</g>
<!-- Node19 -->
<g id="node19" class="node"><title>Node19</title>
<g id="a_node19"><a xlink:href="../../dc/d77/lstrlib_8c.html#ad14703c4bc40d7c1951dedb7bc7554f7" target="_top" xlink:title="push_captures">
<polygon fill="none" stroke="black" points="458,-266.5 458,-285.5 538,-285.5 538,-266.5 458,-266.5"/>
<text text-anchor="middle" x="498" y="-273.5" font-family="Helvetica,sans-Serif" font-size="10.00">push_captures</text>
</a>
</g>
</g>
<!-- Node4&#45;&gt;Node19 -->
<g id="edge18" class="edge"><title>Node4&#45;&gt;Node19</title>
<path fill="none" stroke="midnightblue" d="M431.498,-276C440.331,-276 449.36,-276 457.782,-276"/>
<polygon fill="midnightblue" stroke="midnightblue" points="431.267,-272.5 421.267,-276 431.267,-279.5 431.267,-272.5"/>
</g>
<!-- Node27 -->
<g id="node27" class="node"><title>Node27</title>
<g id="a_node27"><a xlink:href="../../d0/da1/ltablib_8c.html#ae7d3f892e2605bf102dce63de388e626" target="_top" xlink:title="sort">
<polygon fill="none" stroke="black" points="482,-228.5 482,-247.5 514,-247.5 514,-228.5 482,-228.5"/>
<text text-anchor="middle" x="498" y="-235.5" font-family="Helvetica,sans-Serif" font-size="10.00">sort</text>
</a>
</g>
</g>
<!-- Node4&#45;&gt;Node27 -->
<g id="edge26" class="edge"><title>Node4&#45;&gt;Node27</title>
<path fill="none" stroke="midnightblue" d="M418.404,-263.311C440.073,-256.332 465.722,-248.073 481.679,-242.934"/>
<polygon fill="midnightblue" stroke="midnightblue" points="417.222,-260.014 408.776,-266.411 419.368,-266.677 417.222,-260.014"/>
</g>
<!-- Node28 -->
<g id="node28" class="node"><title>Node28</title>
<g id="a_node28"><a xlink:href="../../dc/d77/lstrlib_8c.html#ae561770420cfd1894054415df9d4c423" target="_top" xlink:title="str_byte">
<polygon fill="none" stroke="black" points="473,-190.5 473,-209.5 523,-209.5 523,-190.5 473,-190.5"/>
<text text-anchor="middle" x="498" y="-197.5" font-family="Helvetica,sans-Serif" font-size="10.00">str_byte</text>
</a>
</g>
</g>
<!-- Node4&#45;&gt;Node28 -->
<g id="edge27" class="edge"><title>Node4&#45;&gt;Node28</title>
<path fill="none" stroke="midnightblue" d="M398.881,-259.859C414.232,-247.801 436.282,-231.342 457,-219 462.68,-215.616 469.058,-212.362 475.024,-209.531"/>
<polygon fill="midnightblue" stroke="midnightblue" points="396.324,-257.42 390.678,-266.385 400.682,-262.898 396.324,-257.42"/>
</g>
<!-- Node6 -->
<g id="node6" class="node"><title>Node6</title>
<g id="a_node6"><a xlink:href="../../de/df3/liolib_8c.html#a45307aa59a628966c6ea270e9b476d9a" target="_top" xlink:title="io_read">
<polygon fill="none" stroke="black" points="598.5,-522.5 598.5,-541.5 645.5,-541.5 645.5,-522.5 598.5,-522.5"/>
<text text-anchor="middle" x="622" y="-529.5" font-family="Helvetica,sans-Serif" font-size="10.00">io_read</text>
</a>
</g>
</g>
<!-- Node5&#45;&gt;Node6 -->
<g id="edge5" class="edge"><title>Node5&#45;&gt;Node6</title>
<path fill="none" stroke="midnightblue" d="M526.542,-489.369C540.873,-496.693 558.75,-505.593 575,-513 582.548,-516.44 590.904,-519.972 598.4,-523.043"/>
<polygon fill="midnightblue" stroke="midnightblue" points="527.743,-486.052 517.25,-484.588 524.541,-492.276 527.743,-486.052"/>
</g>
<!-- Node7 -->
<g id="node7" class="node"><title>Node7</title>
<g id="a_node7"><a xlink:href="../../de/df3/liolib_8c.html#add5250a74576076467531e4eb8f5f68e" target="_top" xlink:title="f_read">
<polygon fill="none" stroke="black" points="600.5,-484.5 600.5,-503.5 643.5,-503.5 643.5,-484.5 600.5,-484.5"/>
<text text-anchor="middle" x="622" y="-491.5" font-family="Helvetica,sans-Serif" font-size="10.00">f_read</text>
</a>
</g>
</g>
<!-- Node5&#45;&gt;Node7 -->
<g id="edge6" class="edge"><title>Node5&#45;&gt;Node7</title>
<path fill="none" stroke="midnightblue" d="M531.246,-480.022C553.116,-483.428 581.378,-487.829 600.291,-490.775"/>
<polygon fill="midnightblue" stroke="midnightblue" points="531.513,-476.521 521.093,-478.441 530.436,-483.438 531.513,-476.521"/>
</g>
<!-- Node8 -->
<g id="node8" class="node"><title>Node8</title>
<g id="a_node8"><a xlink:href="../../de/df3/liolib_8c.html#ac37d80ee2cc364b4adafcb6f7c20f28b" target="_top" xlink:title="io_readline">
<polygon fill="none" stroke="black" points="591.5,-446.5 591.5,-465.5 652.5,-465.5 652.5,-446.5 591.5,-446.5"/>
<text text-anchor="middle" x="622" y="-453.5" font-family="Helvetica,sans-Serif" font-size="10.00">io_readline</text>
</a>
</g>
</g>
<!-- Node5&#45;&gt;Node8 -->
<g id="edge7" class="edge"><title>Node5&#45;&gt;Node8</title>
<path fill="none" stroke="midnightblue" d="M531.172,-469.99C549.795,-467.089 573.073,-463.464 591.266,-460.631"/>
<polygon fill="midnightblue" stroke="midnightblue" points="530.436,-466.562 521.093,-471.559 531.513,-473.479 530.436,-466.562"/>
</g>
<!-- Node9 -->
<g id="node9" class="node"><title>Node9</title>
<g id="a_node9"><a xlink:href="../../de/df3/liolib_8c.html#a66325940a0248cee288153edb061c0c4" target="_top" xlink:title="aux_lines">
<polygon fill="none" stroke="black" points="708,-446.5 708,-465.5 765,-465.5 765,-446.5 708,-446.5"/>
<text text-anchor="middle" x="736.5" y="-453.5" font-family="Helvetica,sans-Serif" font-size="10.00">aux_lines</text>
</a>
</g>
</g>
<!-- Node8&#45;&gt;Node9 -->
<g id="edge8" class="edge"><title>Node8&#45;&gt;Node9</title>
<path fill="none" stroke="midnightblue" d="M662.974,-456C677.768,-456 694.206,-456 707.686,-456"/>
<polygon fill="midnightblue" stroke="midnightblue" points="662.558,-452.5 652.558,-456 662.558,-459.5 662.558,-452.5"/>
</g>
<!-- Node10 -->
<g id="node10" class="node"><title>Node10</title>
<g id="a_node10"><a xlink:href="../../de/df3/liolib_8c.html#a6a36f72d8b3966c1ebafab8a4791cb6c" target="_top" xlink:title="f_lines">
<polygon fill="none" stroke="black" points="806,-465.5 806,-484.5 849,-484.5 849,-465.5 806,-465.5"/>
<text text-anchor="middle" x="827.5" y="-472.5" font-family="Helvetica,sans-Serif" font-size="10.00">f_lines</text>
</a>
</g>
</g>
<!-- Node9&#45;&gt;Node10 -->
<g id="edge9" class="edge"><title>Node9&#45;&gt;Node10</title>
<path fill="none" stroke="midnightblue" d="M775.063,-464.019C785.633,-466.276 796.74,-468.647 805.916,-470.606"/>
<polygon fill="midnightblue" stroke="midnightblue" points="775.683,-460.573 765.172,-461.908 774.221,-467.418 775.683,-460.573"/>
</g>
<!-- Node11 -->
<g id="node11" class="node"><title>Node11</title>
<g id="a_node11"><a xlink:href="../../de/df3/liolib_8c.html#ab08031b51605d4ef676ec33a3b96a286" target="_top" xlink:title="io_lines">
<polygon fill="none" stroke="black" points="804,-427.5 804,-446.5 851,-446.5 851,-427.5 804,-427.5"/>
<text text-anchor="middle" x="827.5" y="-434.5" font-family="Helvetica,sans-Serif" font-size="10.00">io_lines</text>
</a>
</g>
</g>
<!-- Node9&#45;&gt;Node11 -->
<g id="edge10" class="edge"><title>Node9&#45;&gt;Node11</title>
<path fill="none" stroke="midnightblue" d="M775.131,-447.966C784.924,-445.876 795.172,-443.688 803.916,-441.821"/>
<polygon fill="midnightblue" stroke="midnightblue" points="774.221,-444.582 765.172,-450.092 775.683,-451.427 774.221,-444.582"/>
</g>
<!-- Node13 -->
<g id="node13" class="node"><title>Node13</title>
<g id="a_node13"><a xlink:href="../../d8/dd3/lbaselib_8c.html#a4a9a3613fcf80fe033e044f7e19bed69" target="_top" xlink:title="luaB_load">
<polygon fill="none" stroke="black" points="592.5,-408.5 592.5,-427.5 651.5,-427.5 651.5,-408.5 592.5,-408.5"/>
<text text-anchor="middle" x="622" y="-415.5" font-family="Helvetica,sans-Serif" font-size="10.00">luaB_load</text>
</a>
</g>
</g>
<!-- Node12&#45;&gt;Node13 -->
<g id="edge12" class="edge"><title>Node12&#45;&gt;Node13</title>
<path fill="none" stroke="midnightblue" d="M546.525,-400.907C561.961,-404.45 578.609,-408.271 592.242,-411.4"/>
<polygon fill="midnightblue" stroke="midnightblue" points="547.129,-397.455 536.6,-398.629 545.563,-404.278 547.129,-397.455"/>
</g>
<!-- Node15 -->
<g id="node15" class="node"><title>Node15</title>
<g id="a_node15"><a xlink:href="../../de/df3/liolib_8c.html#a2edb7e84ca2f51dafb5d77b9c81a804c" target="_top" xlink:title="createmeta">
<polygon fill="none" stroke="black" points="590.5,-370.5 590.5,-389.5 653.5,-389.5 653.5,-370.5 590.5,-370.5"/>
<text text-anchor="middle" x="622" y="-377.5" font-family="Helvetica,sans-Serif" font-size="10.00">createmeta</text>
</a>
</g>
</g>
<!-- Node14&#45;&gt;Node15 -->
<g id="edge14" class="edge"><title>Node14&#45;&gt;Node15</title>
<path fill="none" stroke="midnightblue" d="M533.046,-346.116C552.998,-353.803 577.766,-363.344 595.929,-370.342"/>
<polygon fill="midnightblue" stroke="midnightblue" points="534.278,-342.84 523.689,-342.511 531.762,-349.372 534.278,-342.84"/>
</g>
<!-- Node17 -->
<g id="node17" class="node"><title>Node17</title>
<g id="a_node17"><a xlink:href="../../d6/d07/lualib_8h.html#a1aebe7162861d1f3fe9c0d6d269031d4" target="_top" xlink:title="luaopen_base">
<polygon fill="none" stroke="black" points="582.5,-332.5 582.5,-351.5 661.5,-351.5 661.5,-332.5 582.5,-332.5"/>
<text text-anchor="middle" x="622" y="-339.5" font-family="Helvetica,sans-Serif" font-size="10.00">luaopen_base</text>
</a>
</g>
</g>
<!-- Node14&#45;&gt;Node17 -->
<g id="edge16" class="edge"><title>Node14&#45;&gt;Node17</title>
<path fill="none" stroke="midnightblue" d="M545.922,-336.461C557.947,-337.349 570.744,-338.293 582.302,-339.145"/>
<polygon fill="midnightblue" stroke="midnightblue" points="545.834,-332.946 535.604,-335.7 545.319,-339.927 545.834,-332.946"/>
</g>
<!-- Node18 -->
<g id="node18" class="node"><title>Node18</title>
<g id="a_node18"><a xlink:href="../../d6/d07/lualib_8h.html#a05e0befc0439f926b6152129ab4f8dea" target="_top" xlink:title="luaopen_package">
<polygon fill="none" stroke="black" points="575,-294.5 575,-313.5 669,-313.5 669,-294.5 575,-294.5"/>
<text text-anchor="middle" x="622" y="-301.5" font-family="Helvetica,sans-Serif" font-size="10.00">luaopen_package</text>
</a>
</g>
</g>
<!-- Node14&#45;&gt;Node18 -->
<g id="edge17" class="edge"><title>Node14&#45;&gt;Node18</title>
<path fill="none" stroke="midnightblue" d="M545.62,-321.918C557.289,-319.144 569.702,-316.194 581.016,-313.504"/>
<polygon fill="midnightblue" stroke="midnightblue" points="544.524,-318.581 535.604,-324.299 546.142,-325.391 544.524,-318.581"/>
</g>
<!-- Node16 -->
<g id="node16" class="node"><title>Node16</title>
<g id="a_node16"><a xlink:href="../../d6/d07/lualib_8h.html#a686b841d953f3113ddc7538d69debce7" target="_top" xlink:title="luaopen_io">
<polygon fill="none" stroke="black" points="705,-370.5 705,-389.5 768,-389.5 768,-370.5 705,-370.5"/>
<text text-anchor="middle" x="736.5" y="-377.5" font-family="Helvetica,sans-Serif" font-size="10.00">luaopen_io</text>
</a>
</g>
</g>
<!-- Node15&#45;&gt;Node16 -->
<g id="edge15" class="edge"><title>Node15&#45;&gt;Node16</title>
<path fill="none" stroke="midnightblue" d="M663.782,-380C677.319,-380 692.151,-380 704.796,-380"/>
<polygon fill="midnightblue" stroke="midnightblue" points="663.741,-376.5 653.741,-380 663.741,-383.5 663.741,-376.5"/>
</g>
<!-- Node20 -->
<g id="node20" class="node"><title>Node20</title>
<g id="a_node20"><a xlink:href="../../dc/d77/lstrlib_8c.html#a692514aa32ae2668683a4db15259d26b" target="_top" xlink:title="str_find_aux">
<polygon fill="none" stroke="black" points="588,-256.5 588,-275.5 656,-275.5 656,-256.5 588,-256.5"/>
<text text-anchor="middle" x="622" y="-263.5" font-family="Helvetica,sans-Serif" font-size="10.00">str_find_aux</text>
</a>
</g>
</g>
<!-- Node19&#45;&gt;Node20 -->
<g id="edge19" class="edge"><title>Node19&#45;&gt;Node20</title>
<path fill="none" stroke="midnightblue" d="M548.276,-271.961C561.614,-270.868 575.728,-269.711 587.937,-268.71"/>
<polygon fill="midnightblue" stroke="midnightblue" points="547.954,-268.476 538.273,-272.781 548.526,-275.452 547.954,-268.476"/>
</g>
<!-- Node23 -->
<g id="node23" class="node"><title>Node23</title>
<g id="a_node23"><a xlink:href="../../dc/d77/lstrlib_8c.html#ab7cb0ba6191e1aa9455f6522d3483a02" target="_top" xlink:title="gmatch_aux">
<polygon fill="none" stroke="black" points="587.5,-218.5 587.5,-237.5 656.5,-237.5 656.5,-218.5 587.5,-218.5"/>
<text text-anchor="middle" x="622" y="-225.5" font-family="Helvetica,sans-Serif" font-size="10.00">gmatch_aux</text>
</a>
</g>
</g>
<!-- Node19&#45;&gt;Node23 -->
<g id="edge22" class="edge"><title>Node19&#45;&gt;Node23</title>
<path fill="none" stroke="midnightblue" d="M532.879,-262.671C553.123,-254.706 578.372,-244.772 596.647,-237.582"/>
<polygon fill="midnightblue" stroke="midnightblue" points="531.42,-259.484 523.395,-266.402 533.982,-265.998 531.42,-259.484"/>
</g>
<!-- Node25 -->
<g id="node25" class="node"><title>Node25</title>
<g id="a_node25"><a xlink:href="../../dc/d77/lstrlib_8c.html#ad24cfa73e5ad25ec99a1b48f0916471e" target="_top" xlink:title="add_value">
<polygon fill="none" stroke="black" points="591,-180.5 591,-199.5 653,-199.5 653,-180.5 591,-180.5"/>
<text text-anchor="middle" x="622" y="-187.5" font-family="Helvetica,sans-Serif" font-size="10.00">add_value</text>
</a>
</g>
</g>
<!-- Node19&#45;&gt;Node25 -->
<g id="edge24" class="edge"><title>Node19&#45;&gt;Node25</title>
<path fill="none" stroke="midnightblue" d="M533.294,-261.143C535.29,-259.844 537.211,-258.463 539,-257 559.645,-240.121 553.925,-225.339 575,-209 579.78,-205.294 585.385,-202.194 591.007,-199.646"/>
<polygon fill="midnightblue" stroke="midnightblue" points="531.185,-258.316 524.227,-266.305 534.649,-264.399 531.185,-258.316"/>
</g>
<!-- Node21 -->
<g id="node21" class="node"><title>Node21</title>
<g id="a_node21"><a xlink:href="../../dc/d77/lstrlib_8c.html#a362a4bc9ba81ce87253cc3d74f015808" target="_top" xlink:title="str_find">
<polygon fill="none" stroke="black" points="713.5,-294.5 713.5,-313.5 759.5,-313.5 759.5,-294.5 713.5,-294.5"/>
<text text-anchor="middle" x="736.5" y="-301.5" font-family="Helvetica,sans-Serif" font-size="10.00">str_find</text>
</a>
</g>
</g>
<!-- Node20&#45;&gt;Node21 -->
<g id="edge20" class="edge"><title>Node20&#45;&gt;Node21</title>
<path fill="none" stroke="midnightblue" d="M661.215,-278.908C678.501,-284.747 698.327,-291.444 713.148,-296.45"/>
<polygon fill="midnightblue" stroke="midnightblue" points="661.983,-275.473 651.389,-275.589 659.743,-282.105 661.983,-275.473"/>
</g>
<!-- Node22 -->
<g id="node22" class="node"><title>Node22</title>
<g id="a_node22"><a xlink:href="../../dc/d77/lstrlib_8c.html#a4b605e43b8f5738db9eae902bbc00f00" target="_top" xlink:title="str_match">
<polygon fill="none" stroke="black" points="708,-256.5 708,-275.5 765,-275.5 765,-256.5 708,-256.5"/>
<text text-anchor="middle" x="736.5" y="-263.5" font-family="Helvetica,sans-Serif" font-size="10.00">str_match</text>
</a>
</g>
</g>
<!-- Node20&#45;&gt;Node22 -->
<g id="edge21" class="edge"><title>Node20&#45;&gt;Node22</title>
<path fill="none" stroke="midnightblue" d="M666.512,-266C680.428,-266 695.442,-266 707.898,-266"/>
<polygon fill="midnightblue" stroke="midnightblue" points="666.145,-262.5 656.145,-266 666.145,-269.5 666.145,-262.5"/>
</g>
<!-- Node24 -->
<g id="node24" class="node"><title>Node24</title>
<g id="a_node24"><a xlink:href="../../dc/d77/lstrlib_8c.html#ab55a72bb412d6186c82fd75de44cd031" target="_top" xlink:title="gmatch">
<polygon fill="none" stroke="black" points="713,-218.5 713,-237.5 760,-237.5 760,-218.5 713,-218.5"/>
<text text-anchor="middle" x="736.5" y="-225.5" font-family="Helvetica,sans-Serif" font-size="10.00">gmatch</text>
</a>
</g>
</g>
<!-- Node23&#45;&gt;Node24 -->
<g id="edge23" class="edge"><title>Node23&#45;&gt;Node24</title>
<path fill="none" stroke="midnightblue" d="M666.829,-228C682.543,-228 699.618,-228 712.81,-228"/>
<polygon fill="midnightblue" stroke="midnightblue" points="666.754,-224.5 656.754,-228 666.754,-231.5 666.754,-224.5"/>
</g>
<!-- Node26 -->
<g id="node26" class="node"><title>Node26</title>
<g id="a_node26"><a xlink:href="../../dc/d77/lstrlib_8c.html#a42337c674d265175bcc2b2f3809c7339" target="_top" xlink:title="str_gsub">
<polygon fill="none" stroke="black" points="710,-180.5 710,-199.5 763,-199.5 763,-180.5 710,-180.5"/>
<text text-anchor="middle" x="736.5" y="-187.5" font-family="Helvetica,sans-Serif" font-size="10.00">str_gsub</text>
</a>
</g>
</g>
<!-- Node25&#45;&gt;Node26 -->
<g id="edge25" class="edge"><title>Node25&#45;&gt;Node26</title>
<path fill="none" stroke="midnightblue" d="M663.51,-190C678.967,-190 696.148,-190 709.849,-190"/>
<polygon fill="midnightblue" stroke="midnightblue" points="663.148,-186.5 653.148,-190 663.148,-193.5 663.148,-186.5"/>
</g>
<!-- Node30 -->
<g id="node30" class="node"><title>Node30</title>
<g id="a_node30"><a xlink:href="../../d8/dd3/lbaselib_8c.html#a1fb2725eed679431d070b2e9e7abc223" target="_top" xlink:title="luaB_pcall">
<polygon fill="none" stroke="black" points="591.5,-123.5 591.5,-142.5 652.5,-142.5 652.5,-123.5 591.5,-123.5"/>
<text text-anchor="middle" x="622" y="-130.5" font-family="Helvetica,sans-Serif" font-size="10.00">luaB_pcall</text>
</a>
</g>
</g>
<!-- Node29&#45;&gt;Node30 -->
<g id="edge29" class="edge"><title>Node29&#45;&gt;Node30</title>
<path fill="none" stroke="midnightblue" d="M402.085,-119.705C417.088,-128.367 437.43,-138.487 457,-143 503.001,-153.609 558.067,-146.322 591.251,-139.843"/>
<polygon fill="midnightblue" stroke="midnightblue" points="403.868,-116.693 393.489,-114.563 400.275,-122.7 403.868,-116.693"/>
</g>
<!-- Node31 -->
<g id="node31" class="node"><title>Node31</title>
<g id="a_node31"><a xlink:href="../../d8/dd3/lbaselib_8c.html#a5fbb0094fa1a56f0a4c2547f1ec4c5ab" target="_top" xlink:title="luaB_xpcall">
<polygon fill="none" stroke="black" points="589,-80.5 589,-99.5 655,-99.5 655,-80.5 589,-80.5"/>
<text text-anchor="middle" x="622" y="-87.5" font-family="Helvetica,sans-Serif" font-size="10.00">luaB_xpcall</text>
</a>
</g>
</g>
<!-- Node29&#45;&gt;Node31 -->
<g id="edge30" class="edge"><title>Node29&#45;&gt;Node31</title>
<path fill="none" stroke="midnightblue" d="M416.916,-102.65C464.293,-99.7132 544.531,-94.7398 588.974,-91.9851"/>
<polygon fill="midnightblue" stroke="midnightblue" points="416.525,-99.1673 406.76,-103.279 416.958,-106.154 416.525,-99.1673"/>
</g>
<!-- Node32 -->
<g id="node32" class="node"><title>Node32</title>
<g id="a_node32"><a xlink:href="../../d8/dd3/lbaselib_8c.html#a5c3f578f609d0b87ba75dc1d32287262" target="_top" xlink:title="pcallcont">
<polygon fill="none" stroke="black" points="471.5,-114.5 471.5,-133.5 524.5,-133.5 524.5,-114.5 471.5,-114.5"/>
<text text-anchor="middle" x="498" y="-121.5" font-family="Helvetica,sans-Serif" font-size="10.00">pcallcont</text>
</a>
</g>
</g>
<!-- Node29&#45;&gt;Node32 -->
<g id="edge31" class="edge"><title>Node29&#45;&gt;Node32</title>
<path fill="none" stroke="midnightblue" d="M416.715,-111.073C434.464,-113.931 455.181,-117.266 471.124,-119.833"/>
<polygon fill="midnightblue" stroke="midnightblue" points="417.095,-107.589 406.666,-109.455 415.982,-114.5 417.095,-107.589"/>
</g>
<!-- Node32&#45;&gt;Node30 -->
<g id="edge32" class="edge"><title>Node32&#45;&gt;Node30</title>
<path fill="none" stroke="midnightblue" d="M534.667,-126.631C552.608,-127.955 574.105,-129.541 591.159,-130.799"/>
<polygon fill="midnightblue" stroke="midnightblue" points="534.806,-123.132 524.575,-125.887 534.291,-130.113 534.806,-123.132"/>
</g>
<!-- Node32&#45;&gt;Node31 -->
<g id="edge33" class="edge"><title>Node32&#45;&gt;Node31</title>
<path fill="none" stroke="midnightblue" d="M534.288,-114.166C551.535,-109.359 572.138,-103.617 588.933,-98.9366"/>
<polygon fill="midnightblue" stroke="midnightblue" points="533.268,-110.816 524.575,-116.872 535.148,-117.559 533.268,-110.816"/>
</g>
<!-- Node34 -->
<g id="node34" class="node"><title>Node34</title>
<g id="a_node34"><a xlink:href="../../df/d2d/lcorolib_8c.html#a777abb20385a69ce4787f72bd90375a7" target="_top" xlink:title="luaB_auxwrap">
<polygon fill="none" stroke="black" points="458,-38.5 458,-57.5 538,-57.5 538,-38.5 458,-38.5"/>
<text text-anchor="middle" x="498" y="-45.5" font-family="Helvetica,sans-Serif" font-size="10.00">luaB_auxwrap</text>
</a>
</g>
</g>
<!-- Node33&#45;&gt;Node34 -->
<g id="edge35" class="edge"><title>Node33&#45;&gt;Node34</title>
<path fill="none" stroke="midnightblue" d="M419.968,-60.4034C432.215,-58.4315 445.609,-56.2748 457.744,-54.3209"/>
<polygon fill="midnightblue" stroke="midnightblue" points="419.32,-56.9627 410.003,-62.008 420.432,-63.8737 419.32,-56.9627"/>
</g>
<!-- Node36 -->
<g id="node36" class="node"><title>Node36</title>
<g id="a_node36"><a xlink:href="../../df/d2d/lcorolib_8c.html#a76f5d80387eeb1c7d31eb5f9cb6c9392" target="_top" xlink:title="luaB_coresume">
<polygon fill="none" stroke="black" points="457,-0.5 457,-19.5 539,-19.5 539,-0.5 457,-0.5"/>
<text text-anchor="middle" x="498" y="-7.5" font-family="Helvetica,sans-Serif" font-size="10.00">luaB_coresume</text>
</a>
</g>
</g>
<!-- Node33&#45;&gt;Node36 -->
<g id="edge37" class="edge"><title>Node33&#45;&gt;Node36</title>
<path fill="none" stroke="midnightblue" d="M410.015,-53.2267C413.732,-51.5001 417.462,-49.7319 421,-48 437.249,-40.0457 440.826,-37.1052 457,-29 463.323,-25.8312 470.268,-22.4862 476.57,-19.5008"/>
<polygon fill="midnightblue" stroke="midnightblue" points="408.554,-50.0459 400.916,-57.3885 411.466,-56.4115 408.554,-50.0459"/>
</g>
<!-- Node35 -->
<g id="node35" class="node"><title>Node35</title>
<g id="a_node35"><a xlink:href="../../df/d2d/lcorolib_8c.html#a1c0429e27f504b08e25f437f733edad1" target="_top" xlink:title="luaB_cowrap">
<polygon fill="none" stroke="black" points="585,-38.5 585,-57.5 659,-57.5 659,-38.5 585,-38.5"/>
<text text-anchor="middle" x="622" y="-45.5" font-family="Helvetica,sans-Serif" font-size="10.00">luaB_cowrap</text>
</a>
</g>
</g>
<!-- Node34&#45;&gt;Node35 -->
<g id="edge36" class="edge"><title>Node34&#45;&gt;Node35</title>
<path fill="none" stroke="midnightblue" d="M548.297,-48C560.464,-48 573.276,-48 584.698,-48"/>
<polygon fill="midnightblue" stroke="midnightblue" points="548.273,-44.5001 538.273,-48 548.273,-51.5001 548.273,-44.5001"/>
</g>
</g>
</svg>
