<?xml version="1.0" encoding="UTF-8" standalone="no"?>
<!DOCTYPE svg PUBLIC "-//W3C//DTD SVG 1.1//EN"
 "http://www.w3.org/Graphics/SVG/1.1/DTD/svg11.dtd">
<!-- Generated by graphviz version 2.38.0 (20140413.2041)
 -->
<!-- Title: luaD_hook Pages: 1 -->
<svg width="1342pt" height="1062pt"
 viewBox="0.00 0.00 1342.00 1062.00" xmlns="http://www.w3.org/2000/svg" xmlns:xlink="http://www.w3.org/1999/xlink">
<g id="graph0" class="graph" transform="scale(1 1) rotate(0) translate(4 1058)">
<title>luaD_hook</title>
<!-- Node1 -->
<g id="node1" class="node"><title>Node1</title>
<polygon fill="#bfbfbf" stroke="black" points="0,-133.5 0,-152.5 62,-152.5 62,-133.5 0,-133.5"/>
<text text-anchor="middle" x="31" y="-140.5" font-family="Helvetica,sans-Serif" font-size="10.00">luaD_hook</text>
</g>
<!-- Node2 -->
<g id="node2" class="node"><title>Node2</title>
<g id="a_node2"><a xlink:href="../../d3/d08/ldo_8c.html#a357a5e33e4ca8106aba1a348aab9eed2" target="_top" xlink:title="callhook">
<polygon fill="none" stroke="black" points="109,-190.5 109,-209.5 159,-209.5 159,-190.5 109,-190.5"/>
<text text-anchor="middle" x="134" y="-197.5" font-family="Helvetica,sans-Serif" font-size="10.00">callhook</text>
</a>
</g>
</g>
<!-- Node1&#45;&gt;Node2 -->
<g id="edge1" class="edge"><title>Node1&#45;&gt;Node2</title>
<path fill="none" stroke="midnightblue" d="M57.8595,-157.594C76.1758,-167.931 100.221,-181.501 116.12,-190.474"/>
<polygon fill="midnightblue" stroke="midnightblue" points="59.5624,-154.536 49.1333,-152.669 56.1219,-160.632 59.5624,-154.536"/>
</g>
<!-- Node3 -->
<g id="node3" class="node"><title>Node3</title>
<g id="a_node3"><a xlink:href="../../d2/dd9/ldo_8h.html#af2326bf8464de1e4ce3c5f7aef2ed5d4" target="_top" xlink:title="luaD_precall">
<polygon fill="none" stroke="black" points="206,-171.5 206,-190.5 275,-190.5 275,-171.5 206,-171.5"/>
<text text-anchor="middle" x="240.5" y="-178.5" font-family="Helvetica,sans-Serif" font-size="10.00">luaD_precall</text>
</a>
</g>
</g>
<!-- Node1&#45;&gt;Node3 -->
<g id="edge72" class="edge"><title>Node1&#45;&gt;Node3</title>
<path fill="none" stroke="midnightblue" d="M72.1017,-150.344C110.987,-157.465 169.312,-168.146 205.848,-174.837"/>
<polygon fill="midnightblue" stroke="midnightblue" points="72.6392,-146.884 62.1723,-148.526 71.3782,-153.77 72.6392,-146.884"/>
</g>
<!-- Node48 -->
<g id="node48" class="node"><title>Node48</title>
<g id="a_node48"><a xlink:href="../../d2/dd9/ldo_8h.html#a6a05007b2d1b5768b5edf8509d4a952a" target="_top" xlink:title="luaD_poscall">
<polygon fill="none" stroke="black" points="98,-76.5 98,-95.5 170,-95.5 170,-76.5 98,-76.5"/>
<text text-anchor="middle" x="134" y="-83.5" font-family="Helvetica,sans-Serif" font-size="10.00">luaD_poscall</text>
</a>
</g>
</g>
<!-- Node1&#45;&gt;Node48 -->
<g id="edge66" class="edge"><title>Node1&#45;&gt;Node48</title>
<path fill="none" stroke="midnightblue" d="M57.8595,-128.406C76.1758,-118.069 100.221,-104.499 116.12,-95.5265"/>
<polygon fill="midnightblue" stroke="midnightblue" points="56.1219,-125.368 49.1333,-133.331 59.5624,-131.464 56.1219,-125.368"/>
</g>
<!-- Node50 -->
<g id="node50" class="node"><title>Node50</title>
<g id="a_node50"><a xlink:href="../../dd/d4a/lvm_8c.html#aa0a85b24a621a9960e6d09e373d96582" target="_top" xlink:title="traceexec">
<polygon fill="none" stroke="black" points="212,-114.5 212,-133.5 269,-133.5 269,-114.5 212,-114.5"/>
<text text-anchor="middle" x="240.5" y="-121.5" font-family="Helvetica,sans-Serif" font-size="10.00">traceexec</text>
</a>
</g>
</g>
<!-- Node1&#45;&gt;Node50 -->
<g id="edge73" class="edge"><title>Node1&#45;&gt;Node50</title>
<path fill="none" stroke="midnightblue" d="M72.1309,-139.325C113.259,-135.559 176.112,-129.804 211.944,-126.523"/>
<polygon fill="midnightblue" stroke="midnightblue" points="71.8114,-135.84 62.1723,-140.237 72.4498,-142.811 71.8114,-135.84"/>
</g>
<!-- Node2&#45;&gt;Node3 -->
<g id="edge2" class="edge"><title>Node2&#45;&gt;Node3</title>
<path fill="none" stroke="midnightblue" d="M169.167,-193.788C180.958,-191.644 194.151,-189.245 205.896,-187.11"/>
<polygon fill="midnightblue" stroke="midnightblue" points="168.45,-190.361 159.237,-195.593 169.702,-197.248 168.45,-190.361"/>
</g>
<!-- Node3&#45;&gt;Node3 -->
<g id="edge3" class="edge"><title>Node3&#45;&gt;Node3</title>
<path fill="none" stroke="midnightblue" d="M221.982,-200.4C223.219,-205.315 229.392,-209 240.5,-209 258.273,-209 263.411,-199.565 255.913,-190.757"/>
<polygon fill="midnightblue" stroke="midnightblue" points="225.354,-201.349 225.087,-190.757 218.691,-199.203 225.354,-201.349"/>
</g>
<!-- Node4 -->
<g id="node4" class="node"><title>Node4</title>
<g id="a_node4"><a xlink:href="../../d2/dd9/ldo_8h.html#a7bb0b106d4012134156e0fa240f51228" target="_top" xlink:title="luaD_call">
<polygon fill="none" stroke="black" points="312.5,-351.5 312.5,-370.5 368.5,-370.5 368.5,-351.5 312.5,-351.5"/>
<text text-anchor="middle" x="340.5" y="-358.5" font-family="Helvetica,sans-Serif" font-size="10.00">luaD_call</text>
</a>
</g>
</g>
<!-- Node3&#45;&gt;Node4 -->
<g id="edge4" class="edge"><title>Node3&#45;&gt;Node4</title>
<path fill="none" stroke="midnightblue" d="M251.65,-199.643C272.296,-237.564 318.551,-322.522 334.205,-351.275"/>
<polygon fill="midnightblue" stroke="midnightblue" points="254.625,-197.787 246.769,-190.678 248.477,-201.134 254.625,-197.787"/>
</g>
<!-- Node10 -->
<g id="node10" class="node"><title>Node10</title>
<g id="a_node10"><a xlink:href="../../d5/dcd/lvm_8h.html#ae93565adc36c6e2157dbbd875433ede1" target="_top" xlink:title="luaV_execute">
<polygon fill="none" stroke="black" points="784,-351.5 784,-370.5 858,-370.5 858,-351.5 784,-351.5"/>
<text text-anchor="middle" x="821" y="-358.5" font-family="Helvetica,sans-Serif" font-size="10.00">luaV_execute</text>
</a>
</g>
</g>
<!-- Node3&#45;&gt;Node10 -->
<g id="edge65" class="edge"><title>Node3&#45;&gt;Node10</title>
<path fill="none" stroke="midnightblue" d="M285.002,-174.546C325.934,-169.037 388.987,-162 444,-162 444,-162 444,-162 562.5,-162 645.376,-162 681.833,-131.097 748,-181 805.237,-224.167 817.072,-320.111 819.433,-351.124"/>
<polygon fill="midnightblue" stroke="midnightblue" points="284.52,-171.079 275.09,-175.908 285.474,-178.014 284.52,-171.079"/>
</g>
<!-- Node16 -->
<g id="node16" class="node"><title>Node16</title>
<g id="a_node16"><a xlink:href="../../d3/d08/ldo_8c.html#abd7632c715de5db6e7797b7fa3f7010f" target="_top" xlink:title="resume">
<polygon fill="none" stroke="black" points="968,-126.5 968,-145.5 1015,-145.5 1015,-126.5 968,-126.5"/>
<text text-anchor="middle" x="991.5" y="-133.5" font-family="Helvetica,sans-Serif" font-size="10.00">resume</text>
</a>
</g>
</g>
<!-- Node3&#45;&gt;Node16 -->
<g id="edge64" class="edge"><title>Node3&#45;&gt;Node16</title>
<path fill="none" stroke="midnightblue" d="M241.715,-200.522C243.648,-329.507 262.577,-1054 444,-1054 444,-1054 444,-1054 694.5,-1054 895.865,-1054 980.125,-243.799 989.591,-145.688"/>
<polygon fill="midnightblue" stroke="midnightblue" points="245.215,-200.459 241.583,-190.507 238.216,-200.552 245.215,-200.459"/>
</g>
<!-- Node5 -->
<g id="node5" class="node"><title>Node5</title>
<g id="a_node5"><a xlink:href="../../dd/d4a/lvm_8c.html#aa904883a58699d9c6ef4d6f0f45037f6" target="_top" xlink:title="callTM">
<polygon fill="none" stroke="black" points="423,-521.5 423,-540.5 467,-540.5 467,-521.5 423,-521.5"/>
<text text-anchor="middle" x="445" y="-528.5" font-family="Helvetica,sans-Serif" font-size="10.00">callTM</text>
</a>
</g>
</g>
<!-- Node4&#45;&gt;Node5 -->
<g id="edge5" class="edge"><title>Node4&#45;&gt;Node5</title>
<path fill="none" stroke="midnightblue" d="M352.727,-379.62C374.519,-415.762 421.848,-494.26 438.259,-521.479"/>
<polygon fill="midnightblue" stroke="midnightblue" points="355.465,-377.384 347.305,-370.627 349.471,-380.998 355.465,-377.384"/>
</g>
<!-- Node4&#45;&gt;Node10 -->
<g id="edge63" class="edge"><title>Node4&#45;&gt;Node10</title>
<path fill="none" stroke="midnightblue" d="M378.835,-357.166C468.506,-353.263 695.132,-353.278 783.719,-357.213"/>
<polygon fill="midnightblue" stroke="midnightblue" points="378.416,-353.682 368.597,-357.662 378.755,-360.674 378.416,-353.682"/>
</g>
<!-- Node28 -->
<g id="node28" class="node"><title>Node28</title>
<g id="a_node28"><a xlink:href="../../de/d27/lgc_8c.html#a929058f72c03750fa82374f6bfa639ee" target="_top" xlink:title="dothecall">
<polygon fill="none" stroke="black" points="418.5,-304.5 418.5,-323.5 471.5,-323.5 471.5,-304.5 418.5,-304.5"/>
<text text-anchor="middle" x="445" y="-311.5" font-family="Helvetica,sans-Serif" font-size="10.00">dothecall</text>
</a>
</g>
</g>
<!-- Node4&#45;&gt;Node28 -->
<g id="edge35" class="edge"><title>Node4&#45;&gt;Node28</title>
<path fill="none" stroke="midnightblue" d="M371.485,-347.251C387.998,-339.679 408.092,-330.465 422.937,-323.658"/>
<polygon fill="midnightblue" stroke="midnightblue" points="369.874,-344.139 362.242,-351.489 372.791,-350.502 369.874,-344.139"/>
</g>
<!-- Node32 -->
<g id="node32" class="node"><title>Node32</title>
<g id="a_node32"><a xlink:href="../../df/db6/lapi_8c.html#ac3926c93fb08234f9f47e24653124910" target="_top" xlink:title="f_call">
<polygon fill="none" stroke="black" points="426,-266.5 426,-285.5 464,-285.5 464,-266.5 426,-266.5"/>
<text text-anchor="middle" x="445" y="-273.5" font-family="Helvetica,sans-Serif" font-size="10.00">f_call</text>
</a>
</g>
</g>
<!-- Node4&#45;&gt;Node32 -->
<g id="edge39" class="edge"><title>Node4&#45;&gt;Node32</title>
<path fill="none" stroke="midnightblue" d="M355.762,-343.44C368.013,-329.136 386.707,-309.075 406,-295 412.078,-290.566 419.345,-286.649 425.889,-283.541"/>
<polygon fill="midnightblue" stroke="midnightblue" points="352.753,-341.582 349.019,-351.497 358.121,-346.075 352.753,-341.582"/>
</g>
<!-- Node33 -->
<g id="node33" class="node"><title>Node33</title>
<g id="a_node33"><a xlink:href="../../da/dd2/lua_8h.html#a3c4de08aa665eaee4aabd330aa99a441" target="_top" xlink:title="lua_pcallk">
<polygon fill="none" stroke="black" points="532,-228.5 532,-247.5 591,-247.5 591,-228.5 532,-228.5"/>
<text text-anchor="middle" x="561.5" y="-235.5" font-family="Helvetica,sans-Serif" font-size="10.00">lua_pcallk</text>
</a>
</g>
</g>
<!-- Node4&#45;&gt;Node33 -->
<g id="edge45" class="edge"><title>Node4&#45;&gt;Node33</title>
<path fill="none" stroke="midnightblue" d="M347.626,-341.683C356.391,-317.499 374.974,-276.844 406,-257 444.248,-232.537 498.833,-231.999 531.841,-234.52"/>
<polygon fill="midnightblue" stroke="midnightblue" points="344.29,-340.622 344.372,-351.216 350.915,-342.884 344.29,-340.622"/>
</g>
<!-- Node36 -->
<g id="node36" class="node"><title>Node36</title>
<g id="a_node36"><a xlink:href="../../da/dd2/lua_8h.html#aa6aba1fd89ac6f1c5ccfdfd12f826d80" target="_top" xlink:title="lua_callk">
<polygon fill="none" stroke="black" points="418.5,-640.5 418.5,-659.5 471.5,-659.5 471.5,-640.5 418.5,-640.5"/>
<text text-anchor="middle" x="445" y="-647.5" font-family="Helvetica,sans-Serif" font-size="10.00">lua_callk</text>
</a>
</g>
</g>
<!-- Node4&#45;&gt;Node36 -->
<g id="edge43" class="edge"><title>Node4&#45;&gt;Node36</title>
<path fill="none" stroke="midnightblue" d="M345.2,-380.685C353.154,-420.84 373.809,-514.609 406,-588 414.621,-607.655 428.549,-628.546 436.935,-640.365"/>
<polygon fill="midnightblue" stroke="midnightblue" points="348.632,-379.994 343.295,-370.842 341.759,-381.325 348.632,-379.994"/>
</g>
<!-- Node38 -->
<g id="node38" class="node"><title>Node38</title>
<g id="a_node38"><a xlink:href="../../db/d46/ldebug_8h.html#acd5ef9f67a8e9d08f6540636fdbeafe6" target="_top" xlink:title="luaG_errormsg">
<polygon fill="none" stroke="black" points="406,-697.5 406,-716.5 484,-716.5 484,-697.5 406,-697.5"/>
<text text-anchor="middle" x="445" y="-704.5" font-family="Helvetica,sans-Serif" font-size="10.00">luaG_errormsg</text>
</a>
</g>
</g>
<!-- Node4&#45;&gt;Node38 -->
<g id="edge46" class="edge"><title>Node4&#45;&gt;Node38</title>
<path fill="none" stroke="midnightblue" d="M341.814,-381.051C343.403,-432.208 352.701,-570.482 406,-669 412.127,-680.324 422.69,-690.482 431.127,-697.44"/>
<polygon fill="midnightblue" stroke="midnightblue" points="345.305,-380.655 341.566,-370.742 338.307,-380.824 345.305,-380.655"/>
</g>
<!-- Node6 -->
<g id="node6" class="node"><title>Node6</title>
<g id="a_node6"><a xlink:href="../../d5/dcd/lvm_8h.html#adacdbccc9d8fab937a1b0dc058c8da12" target="_top" xlink:title="luaV_gettable">
<polygon fill="none" stroke="black" points="656,-664.5 656,-683.5 731,-683.5 731,-664.5 656,-664.5"/>
<text text-anchor="middle" x="693.5" y="-671.5" font-family="Helvetica,sans-Serif" font-size="10.00">luaV_gettable</text>
</a>
</g>
</g>
<!-- Node5&#45;&gt;Node6 -->
<g id="edge6" class="edge"><title>Node5&#45;&gt;Node6</title>
<path fill="none" stroke="midnightblue" d="M469.452,-546.813C474.546,-550.799 479.693,-555.294 484,-560 504.228,-582.104 496.39,-598.551 520,-617 560.137,-648.364 618.285,-662.84 655.745,-669.254"/>
<polygon fill="midnightblue" stroke="midnightblue" points="471.211,-543.761 461.086,-540.637 467.053,-549.392 471.211,-543.761"/>
</g>
<!-- Node17 -->
<g id="node17" class="node"><title>Node17</title>
<g id="a_node17"><a xlink:href="../../d5/dcd/lvm_8h.html#a5885d48fd66eb236f8b8f6e4938cbcce" target="_top" xlink:title="luaV_settable">
<polygon fill="none" stroke="black" points="656,-626.5 656,-645.5 731,-645.5 731,-626.5 656,-626.5"/>
<text text-anchor="middle" x="693.5" y="-633.5" font-family="Helvetica,sans-Serif" font-size="10.00">luaV_settable</text>
</a>
</g>
</g>
<!-- Node5&#45;&gt;Node17 -->
<g id="edge20" class="edge"><title>Node5&#45;&gt;Node17</title>
<path fill="none" stroke="midnightblue" d="M477.014,-537.849C509.353,-545.589 561.074,-559.675 603,-579 632.111,-592.418 662.996,-613.928 679.795,-626.332"/>
<polygon fill="midnightblue" stroke="midnightblue" points="477.768,-534.43 467.233,-535.56 476.173,-541.246 477.768,-534.43"/>
</g>
<!-- Node21 -->
<g id="node21" class="node"><title>Node21</title>
<g id="a_node21"><a xlink:href="../../dd/d4a/lvm_8c.html#a5f9dd797eb313b8e117cb20546276732" target="_top" xlink:title="call_binTM">
<polygon fill="none" stroke="black" points="530.5,-512.5 530.5,-531.5 592.5,-531.5 592.5,-512.5 530.5,-512.5"/>
<text text-anchor="middle" x="561.5" y="-519.5" font-family="Helvetica,sans-Serif" font-size="10.00">call_binTM</text>
</a>
</g>
</g>
<!-- Node5&#45;&gt;Node21 -->
<g id="edge25" class="edge"><title>Node5&#45;&gt;Node21</title>
<path fill="none" stroke="midnightblue" d="M477.219,-528.546C493.685,-527.252 513.803,-525.671 530.14,-524.386"/>
<polygon fill="midnightblue" stroke="midnightblue" points="476.696,-525.076 467.001,-529.349 477.245,-532.055 476.696,-525.076"/>
</g>
<!-- Node25 -->
<g id="node25" class="node"><title>Node25</title>
<g id="a_node25"><a xlink:href="../../d5/dcd/lvm_8h.html#ab77cced08254efde4e5dfb28b37a7f31" target="_top" xlink:title="luaV_equalobj_">
<polygon fill="none" stroke="black" points="520,-588.5 520,-607.5 603,-607.5 603,-588.5 520,-588.5"/>
<text text-anchor="middle" x="561.5" y="-595.5" font-family="Helvetica,sans-Serif" font-size="10.00">luaV_equalobj_</text>
</a>
</g>
</g>
<!-- Node5&#45;&gt;Node25 -->
<g id="edge31" class="edge"><title>Node5&#45;&gt;Node25</title>
<path fill="none" stroke="midnightblue" d="M471.274,-545.789C493.465,-558.774 525.093,-577.282 544.125,-588.418"/>
<polygon fill="midnightblue" stroke="midnightblue" points="472.804,-542.629 462.405,-540.599 469.268,-548.671 472.804,-542.629"/>
</g>
<!-- Node26 -->
<g id="node26" class="node"><title>Node26</title>
<g id="a_node26"><a xlink:href="../../d5/dcd/lvm_8h.html#a414b4b487239935324f2f16e1e7715db" target="_top" xlink:title="luaV_objlen">
<polygon fill="none" stroke="black" points="528,-436.5 528,-455.5 595,-455.5 595,-436.5 528,-436.5"/>
<text text-anchor="middle" x="561.5" y="-443.5" font-family="Helvetica,sans-Serif" font-size="10.00">luaV_objlen</text>
</a>
</g>
</g>
<!-- Node5&#45;&gt;Node26 -->
<g id="edge32" class="edge"><title>Node5&#45;&gt;Node26</title>
<path fill="none" stroke="midnightblue" d="M467.432,-515.09C490.975,-497.613 528.025,-470.108 547.519,-455.637"/>
<polygon fill="midnightblue" stroke="midnightblue" points="465.078,-512.478 459.135,-521.249 469.25,-518.099 465.078,-512.478"/>
</g>
<!-- Node7 -->
<g id="node7" class="node"><title>Node7</title>
<g id="a_node7"><a xlink:href="../../da/dd2/lua_8h.html#a2b4a9010af0545ae0f822d7f081370d0" target="_top" xlink:title="lua_getglobal">
<polygon fill="none" stroke="red" points="784.5,-664.5 784.5,-683.5 857.5,-683.5 857.5,-664.5 784.5,-664.5"/>
<text text-anchor="middle" x="821" y="-671.5" font-family="Helvetica,sans-Serif" font-size="10.00">lua_getglobal</text>
</a>
</g>
</g>
<!-- Node6&#45;&gt;Node7 -->
<g id="edge7" class="edge"><title>Node6&#45;&gt;Node7</title>
<path fill="none" stroke="midnightblue" d="M741.273,-674C755.544,-674 770.995,-674 784.399,-674"/>
<polygon fill="midnightblue" stroke="midnightblue" points="741.137,-670.5 731.137,-674 741.137,-677.5 741.137,-670.5"/>
</g>
<!-- Node8 -->
<g id="node8" class="node"><title>Node8</title>
<g id="a_node8"><a xlink:href="../../da/dd2/lua_8h.html#a8d82fa181a3003e9a304040c0bbed9ac" target="_top" xlink:title="lua_gettable">
<polygon fill="none" stroke="red" points="787,-740.5 787,-759.5 855,-759.5 855,-740.5 787,-740.5"/>
<text text-anchor="middle" x="821" y="-747.5" font-family="Helvetica,sans-Serif" font-size="10.00">lua_gettable</text>
</a>
</g>
</g>
<!-- Node6&#45;&gt;Node8 -->
<g id="edge8" class="edge"><title>Node6&#45;&gt;Node8</title>
<path fill="none" stroke="midnightblue" d="M738.208,-687.532C741.619,-689.182 744.928,-691.001 748,-693 767.5,-705.688 765.466,-716.939 784,-731 788.617,-734.503 793.969,-737.711 799.113,-740.454"/>
<polygon fill="midnightblue" stroke="midnightblue" points="739.596,-684.32 729.029,-683.556 736.813,-690.743 739.596,-684.32"/>
</g>
<!-- Node9 -->
<g id="node9" class="node"><title>Node9</title>
<g id="a_node9"><a xlink:href="../../da/dd2/lua_8h.html#ac3112bb28ba217adc46f13da8e9e6585" target="_top" xlink:title="lua_getfield">
<polygon fill="none" stroke="red" points="789.5,-702.5 789.5,-721.5 852.5,-721.5 852.5,-702.5 789.5,-702.5"/>
<text text-anchor="middle" x="821" y="-709.5" font-family="Helvetica,sans-Serif" font-size="10.00">lua_getfield</text>
</a>
</g>
</g>
<!-- Node6&#45;&gt;Node9 -->
<g id="edge9" class="edge"><title>Node6&#45;&gt;Node9</title>
<path fill="none" stroke="midnightblue" d="M736.053,-686.582C753.401,-691.835 773.198,-697.829 789.209,-702.677"/>
<polygon fill="midnightblue" stroke="midnightblue" points="736.754,-683.137 726.169,-683.589 734.726,-689.837 736.754,-683.137"/>
</g>
<!-- Node6&#45;&gt;Node10 -->
<g id="edge10" class="edge"><title>Node6&#45;&gt;Node10</title>
<path fill="none" stroke="midnightblue" d="M740.226,-661.608C743.083,-659.711 745.72,-657.523 748,-655 767.995,-632.874 809.142,-418.824 818.207,-370.612"/>
<polygon fill="midnightblue" stroke="midnightblue" points="738.301,-658.669 731.136,-666.474 741.604,-664.841 738.301,-658.669"/>
</g>
<!-- Node10&#45;&gt;Node4 -->
<g id="edge11" class="edge"><title>Node10&#45;&gt;Node4</title>
<path fill="none" stroke="midnightblue" d="M773.455,-365.204C674.736,-368.866 446.996,-368.578 368.597,-364.338"/>
<polygon fill="midnightblue" stroke="midnightblue" points="773.869,-368.69 783.719,-364.787 773.585,-361.696 773.869,-368.69"/>
</g>
<!-- Node11 -->
<g id="node11" class="node"><title>Node11</title>
<g id="a_node11"><a xlink:href="../../d3/d08/ldo_8c.html#a3baab9d298c0c32cb74a9a079d7244de" target="_top" xlink:title="unroll">
<polygon fill="none" stroke="black" points="894,-0.5 894,-19.5 932,-19.5 932,-0.5 894,-0.5"/>
<text text-anchor="middle" x="913" y="-7.5" font-family="Helvetica,sans-Serif" font-size="10.00">unroll</text>
</a>
</g>
</g>
<!-- Node10&#45;&gt;Node11 -->
<g id="edge12" class="edge"><title>Node10&#45;&gt;Node11</title>
<path fill="none" stroke="midnightblue" d="M827.026,-341.4C843.793,-276.008 897.439,-66.7876 909.553,-19.5419"/>
<polygon fill="midnightblue" stroke="midnightblue" points="823.595,-340.69 824.501,-351.246 830.375,-342.429 823.595,-340.69"/>
</g>
<!-- Node10&#45;&gt;Node16 -->
<g id="edge19" class="edge"><title>Node10&#45;&gt;Node16</title>
<path fill="none" stroke="midnightblue" d="M835.436,-343.059C869.332,-297.797 957.459,-180.12 983.287,-145.632"/>
<polygon fill="midnightblue" stroke="midnightblue" points="832.433,-341.23 829.24,-351.332 838.036,-345.426 832.433,-341.23"/>
</g>
<!-- Node12 -->
<g id="node12" class="node"><title>Node12</title>
<g id="a_node12"><a xlink:href="../../da/dd2/lua_8h.html#a434479f022eda738b99000aad5ddd929" target="_top" xlink:title="lua_resume">
<polygon fill="none" stroke="black" points="1051,-126.5 1051,-145.5 1116,-145.5 1116,-126.5 1051,-126.5"/>
<text text-anchor="middle" x="1083.5" y="-133.5" font-family="Helvetica,sans-Serif" font-size="10.00">lua_resume</text>
</a>
</g>
</g>
<!-- Node11&#45;&gt;Node12 -->
<g id="edge13" class="edge"><title>Node11&#45;&gt;Node12</title>
<path fill="none" stroke="midnightblue" d="M935.156,-25.8199C970.603,-52.3264 1040.94,-104.921 1069.74,-126.462"/>
<polygon fill="midnightblue" stroke="midnightblue" points="937.047,-22.8634 926.942,-19.6778 932.855,-28.4694 937.047,-22.8634"/>
</g>
<!-- Node11&#45;&gt;Node16 -->
<g id="edge17" class="edge"><title>Node11&#45;&gt;Node16</title>
<path fill="none" stroke="midnightblue" d="M927.854,-27.9799C929.289,-29.9865 930.697,-32.0205 932,-34 953.661,-66.9102 975.911,-108.172 985.551,-126.488"/>
<polygon fill="midnightblue" stroke="midnightblue" points="930.409,-25.5509 921.634,-19.6131 924.791,-29.7268 930.409,-25.5509"/>
</g>
<!-- Node13 -->
<g id="node13" class="node"><title>Node13</title>
<g id="a_node13"><a xlink:href="../../df/d2d/lcorolib_8c.html#aaa37b3a30ab0c6daef7fae8951fef3e7" target="_top" xlink:title="auxresume">
<polygon fill="none" stroke="black" points="1152,-547.5 1152,-566.5 1216,-566.5 1216,-547.5 1152,-547.5"/>
<text text-anchor="middle" x="1184" y="-554.5" font-family="Helvetica,sans-Serif" font-size="10.00">auxresume</text>
</a>
</g>
</g>
<!-- Node12&#45;&gt;Node13 -->
<g id="edge14" class="edge"><title>Node12&#45;&gt;Node13</title>
<path fill="none" stroke="midnightblue" d="M1089.05,-155.454C1106.4,-229.616 1168.06,-493.139 1180.72,-547.247"/>
<polygon fill="midnightblue" stroke="midnightblue" points="1092.43,-154.524 1086.74,-145.584 1085.61,-156.119 1092.43,-154.524"/>
</g>
<!-- Node14 -->
<g id="node14" class="node"><title>Node14</title>
<g id="a_node14"><a xlink:href="../../df/d2d/lcorolib_8c.html#a777abb20385a69ce4787f72bd90375a7" target="_top" xlink:title="luaB_auxwrap">
<polygon fill="none" stroke="red" points="1253,-795.5 1253,-814.5 1333,-814.5 1333,-795.5 1253,-795.5"/>
<text text-anchor="middle" x="1293" y="-802.5" font-family="Helvetica,sans-Serif" font-size="10.00">luaB_auxwrap</text>
</a>
</g>
</g>
<!-- Node13&#45;&gt;Node14 -->
<g id="edge15" class="edge"><title>Node13&#45;&gt;Node14</title>
<path fill="none" stroke="midnightblue" d="M1193.2,-576.013C1214.66,-625.752 1271.9,-758.423 1287.83,-795.345"/>
<polygon fill="midnightblue" stroke="midnightblue" points="1196.37,-574.517 1189.19,-566.722 1189.94,-577.29 1196.37,-574.517"/>
</g>
<!-- Node15 -->
<g id="node15" class="node"><title>Node15</title>
<g id="a_node15"><a xlink:href="../../df/d2d/lcorolib_8c.html#a76f5d80387eeb1c7d31eb5f9cb6c9392" target="_top" xlink:title="luaB_coresume">
<polygon fill="none" stroke="black" points="1252,-547.5 1252,-566.5 1334,-566.5 1334,-547.5 1252,-547.5"/>
<text text-anchor="middle" x="1293" y="-554.5" font-family="Helvetica,sans-Serif" font-size="10.00">luaB_coresume</text>
</a>
</g>
</g>
<!-- Node13&#45;&gt;Node15 -->
<g id="edge16" class="edge"><title>Node13&#45;&gt;Node15</title>
<path fill="none" stroke="midnightblue" d="M1226.47,-557C1234.78,-557 1243.49,-557 1251.75,-557"/>
<polygon fill="midnightblue" stroke="midnightblue" points="1226.24,-553.5 1216.24,-557 1226.24,-560.5 1226.24,-553.5"/>
</g>
<!-- Node16&#45;&gt;Node12 -->
<g id="edge18" class="edge"><title>Node16&#45;&gt;Node12</title>
<path fill="none" stroke="midnightblue" d="M1025.37,-136C1033.72,-136 1042.68,-136 1050.96,-136"/>
<polygon fill="midnightblue" stroke="midnightblue" points="1025.21,-132.5 1015.21,-136 1025.21,-139.5 1025.21,-132.5"/>
</g>
<!-- Node17&#45;&gt;Node10 -->
<g id="edge24" class="edge"><title>Node17&#45;&gt;Node10</title>
<path fill="none" stroke="midnightblue" d="M736.699,-621.543C740.903,-618.856 744.793,-615.699 748,-612 781.11,-573.807 811.17,-411.693 818.37,-370.533"/>
<polygon fill="midnightblue" stroke="midnightblue" points="734.854,-618.562 727.749,-626.422 738.205,-624.708 734.854,-618.562"/>
</g>
<!-- Node18 -->
<g id="node18" class="node"><title>Node18</title>
<g id="a_node18"><a xlink:href="../../da/dd2/lua_8h.html#ac0ebe7d753b81f6249dde8cf0b8ea997" target="_top" xlink:title="lua_setglobal">
<polygon fill="none" stroke="red" points="784.5,-588.5 784.5,-607.5 857.5,-607.5 857.5,-588.5 784.5,-588.5"/>
<text text-anchor="middle" x="821" y="-595.5" font-family="Helvetica,sans-Serif" font-size="10.00">lua_setglobal</text>
</a>
</g>
</g>
<!-- Node17&#45;&gt;Node18 -->
<g id="edge21" class="edge"><title>Node17&#45;&gt;Node18</title>
<path fill="none" stroke="midnightblue" d="M735.899,-623.465C752.972,-618.295 772.439,-612.401 788.341,-607.586"/>
<polygon fill="midnightblue" stroke="midnightblue" points="734.726,-620.163 726.169,-626.411 736.754,-626.863 734.726,-620.163"/>
</g>
<!-- Node19 -->
<g id="node19" class="node"><title>Node19</title>
<g id="a_node19"><a xlink:href="../../da/dd2/lua_8h.html#aeda173d104e3a566ccaac89a1f64a5eb" target="_top" xlink:title="lua_settable">
<polygon fill="none" stroke="red" points="787,-550.5 787,-569.5 855,-569.5 855,-550.5 787,-550.5"/>
<text text-anchor="middle" x="821" y="-557.5" font-family="Helvetica,sans-Serif" font-size="10.00">lua_settable</text>
</a>
</g>
</g>
<!-- Node17&#45;&gt;Node19 -->
<g id="edge22" class="edge"><title>Node17&#45;&gt;Node19</title>
<path fill="none" stroke="midnightblue" d="M729.364,-622.316C735.758,-619.266 742.229,-615.796 748,-612 766.134,-600.072 766.257,-591.501 784,-579 788.853,-575.581 794.397,-572.36 799.656,-569.575"/>
<polygon fill="midnightblue" stroke="midnightblue" points="727.819,-619.173 720.141,-626.473 730.696,-625.555 727.819,-619.173"/>
</g>
<!-- Node20 -->
<g id="node20" class="node"><title>Node20</title>
<g id="a_node20"><a xlink:href="../../da/dd2/lua_8h.html#a9580a15c141cbe4bf2a63fea625c3878" target="_top" xlink:title="lua_setfield">
<polygon fill="none" stroke="red" points="789.5,-626.5 789.5,-645.5 852.5,-645.5 852.5,-626.5 789.5,-626.5"/>
<text text-anchor="middle" x="821" y="-633.5" font-family="Helvetica,sans-Serif" font-size="10.00">lua_setfield</text>
</a>
</g>
</g>
<!-- Node17&#45;&gt;Node20 -->
<g id="edge23" class="edge"><title>Node17&#45;&gt;Node20</title>
<path fill="none" stroke="midnightblue" d="M741.431,-636C757.493,-636 775.034,-636 789.46,-636"/>
<polygon fill="midnightblue" stroke="midnightblue" points="741.137,-632.5 731.137,-636 741.137,-639.5 741.137,-632.5"/>
</g>
<!-- Node22 -->
<g id="node22" class="node"><title>Node22</title>
<g id="a_node22"><a xlink:href="../../dd/d4a/lvm_8c.html#a1d1301ff4a771ce4198673dd113d10a5" target="_top" xlink:title="call_orderTM">
<polygon fill="none" stroke="red" points="659,-512.5 659,-531.5 728,-531.5 728,-512.5 659,-512.5"/>
<text text-anchor="middle" x="693.5" y="-519.5" font-family="Helvetica,sans-Serif" font-size="10.00">call_orderTM</text>
</a>
</g>
</g>
<!-- Node21&#45;&gt;Node22 -->
<g id="edge26" class="edge"><title>Node21&#45;&gt;Node22</title>
<path fill="none" stroke="midnightblue" d="M602.841,-522C620.814,-522 641.74,-522 658.853,-522"/>
<polygon fill="midnightblue" stroke="midnightblue" points="602.651,-518.5 592.651,-522 602.651,-525.5 602.651,-518.5"/>
</g>
<!-- Node23 -->
<g id="node23" class="node"><title>Node23</title>
<g id="a_node23"><a xlink:href="../../d5/dcd/lvm_8h.html#aee84bfc563cb4bdd21a013218a289aa7" target="_top" xlink:title="luaV_concat">
<polygon fill="none" stroke="red" points="659,-550.5 659,-569.5 728,-569.5 728,-550.5 659,-550.5"/>
<text text-anchor="middle" x="693.5" y="-557.5" font-family="Helvetica,sans-Serif" font-size="10.00">luaV_concat</text>
</a>
</g>
</g>
<!-- Node21&#45;&gt;Node23 -->
<g id="edge27" class="edge"><title>Node21&#45;&gt;Node23</title>
<path fill="none" stroke="midnightblue" d="M602.49,-533.689C620.866,-539.061 642.389,-545.352 659.779,-550.436"/>
<polygon fill="midnightblue" stroke="midnightblue" points="603.232,-530.26 592.651,-530.813 601.268,-536.979 603.232,-530.26"/>
</g>
<!-- Node24 -->
<g id="node24" class="node"><title>Node24</title>
<g id="a_node24"><a xlink:href="../../d5/dcd/lvm_8h.html#a275e261afaec876cd16944b95c955642" target="_top" xlink:title="luaV_arith">
<polygon fill="none" stroke="red" points="664,-474.5 664,-493.5 723,-493.5 723,-474.5 664,-474.5"/>
<text text-anchor="middle" x="693.5" y="-481.5" font-family="Helvetica,sans-Serif" font-size="10.00">luaV_arith</text>
</a>
</g>
</g>
<!-- Node21&#45;&gt;Node24 -->
<g id="edge29" class="edge"><title>Node21&#45;&gt;Node24</title>
<path fill="none" stroke="midnightblue" d="M602.359,-510.349C622.225,-504.542 645.795,-497.652 663.85,-492.375"/>
<polygon fill="midnightblue" stroke="midnightblue" points="601.268,-507.021 592.651,-513.187 603.232,-513.74 601.268,-507.021"/>
</g>
<!-- Node23&#45;&gt;Node10 -->
<g id="edge28" class="edge"><title>Node23&#45;&gt;Node10</title>
<path fill="none" stroke="midnightblue" d="M737.403,-548.657C741.262,-546.525 744.883,-543.997 748,-541 799.435,-491.546 815.058,-400.558 818.909,-370.741"/>
<polygon fill="midnightblue" stroke="midnightblue" points="735.709,-545.584 728.089,-552.945 738.636,-551.942 735.709,-545.584"/>
</g>
<!-- Node24&#45;&gt;Node10 -->
<g id="edge30" class="edge"><title>Node24&#45;&gt;Node10</title>
<path fill="none" stroke="midnightblue" d="M732.824,-473.735C738.209,-471.362 743.45,-468.482 748,-465 782.529,-438.573 806.717,-390.812 815.904,-370.527"/>
<polygon fill="midnightblue" stroke="midnightblue" points="731.172,-470.62 723.095,-477.476 733.685,-477.153 731.172,-470.62"/>
</g>
<!-- Node26&#45;&gt;Node10 -->
<g id="edge34" class="edge"><title>Node26&#45;&gt;Node10</title>
<path fill="none" stroke="midnightblue" d="M601.081,-433.264C653.099,-416.093 744.552,-385.905 791.068,-370.55"/>
<polygon fill="midnightblue" stroke="midnightblue" points="599.937,-429.956 591.538,-436.415 602.131,-436.604 599.937,-429.956"/>
</g>
<!-- Node27 -->
<g id="node27" class="node"><title>Node27</title>
<g id="a_node27"><a xlink:href="../../da/dd2/lua_8h.html#ac7ade66f92b5e325c42371926f879818" target="_top" xlink:title="lua_len">
<polygon fill="none" stroke="red" points="670,-436.5 670,-455.5 717,-455.5 717,-436.5 670,-436.5"/>
<text text-anchor="middle" x="693.5" y="-443.5" font-family="Helvetica,sans-Serif" font-size="10.00">lua_len</text>
</a>
</g>
</g>
<!-- Node26&#45;&gt;Node27 -->
<g id="edge33" class="edge"><title>Node26&#45;&gt;Node27</title>
<path fill="none" stroke="midnightblue" d="M605.532,-446C627.06,-446 652.232,-446 669.939,-446"/>
<polygon fill="midnightblue" stroke="midnightblue" points="605.305,-442.5 595.304,-446 605.304,-449.5 605.305,-442.5"/>
</g>
<!-- Node29 -->
<g id="node29" class="node"><title>Node29</title>
<g id="a_node29"><a xlink:href="../../de/d27/lgc_8c.html#ab9ec6b56580b9e66f41743e393e7e033" target="_top" xlink:title="GCTM">
<polygon fill="none" stroke="black" points="538.5,-304.5 538.5,-323.5 584.5,-323.5 584.5,-304.5 538.5,-304.5"/>
<text text-anchor="middle" x="561.5" y="-311.5" font-family="Helvetica,sans-Serif" font-size="10.00">GCTM</text>
</a>
</g>
</g>
<!-- Node28&#45;&gt;Node29 -->
<g id="edge36" class="edge"><title>Node28&#45;&gt;Node29</title>
<path fill="none" stroke="midnightblue" d="M481.838,-314C500.347,-314 522.344,-314 538.364,-314"/>
<polygon fill="midnightblue" stroke="midnightblue" points="481.696,-310.5 471.696,-314 481.696,-317.5 481.696,-310.5"/>
</g>
<!-- Node30 -->
<g id="node30" class="node"><title>Node30</title>
<g id="a_node30"><a xlink:href="../../de/d27/lgc_8c.html#a74f50e6006422d43686521fe765152dd" target="_top" xlink:title="callallpendingfinalizers">
<polygon fill="none" stroke="red" points="639,-304.5 639,-323.5 748,-323.5 748,-304.5 639,-304.5"/>
<text text-anchor="middle" x="693.5" y="-311.5" font-family="Helvetica,sans-Serif" font-size="10.00">callallpendingfinalizers</text>
</a>
</g>
</g>
<!-- Node29&#45;&gt;Node30 -->
<g id="edge37" class="edge"><title>Node29&#45;&gt;Node30</title>
<path fill="none" stroke="midnightblue" d="M594.662,-314C608.017,-314 623.881,-314 638.906,-314"/>
<polygon fill="midnightblue" stroke="midnightblue" points="594.553,-310.5 584.553,-314 594.553,-317.5 594.553,-310.5"/>
</g>
<!-- Node31 -->
<g id="node31" class="node"><title>Node31</title>
<g id="a_node31"><a xlink:href="../../dc/d9c/lgc_8h.html#a19359957605d7c8eaf70803e5b77361f" target="_top" xlink:title="luaC_forcestep">
<polygon fill="none" stroke="red" points="653.5,-266.5 653.5,-285.5 733.5,-285.5 733.5,-266.5 653.5,-266.5"/>
<text text-anchor="middle" x="693.5" y="-273.5" font-family="Helvetica,sans-Serif" font-size="10.00">luaC_forcestep</text>
</a>
</g>
</g>
<!-- Node29&#45;&gt;Node31 -->
<g id="edge38" class="edge"><title>Node29&#45;&gt;Node31</title>
<path fill="none" stroke="midnightblue" d="M594.343,-304.692C614.153,-298.901 639.576,-291.47 659.585,-285.621"/>
<polygon fill="midnightblue" stroke="midnightblue" points="593.169,-301.389 584.553,-307.554 595.133,-308.107 593.169,-301.389"/>
</g>
<!-- Node32&#45;&gt;Node33 -->
<g id="edge40" class="edge"><title>Node32&#45;&gt;Node33</title>
<path fill="none" stroke="midnightblue" d="M473.818,-266.768C491.374,-260.941 514.002,-253.432 531.736,-247.546"/>
<polygon fill="midnightblue" stroke="midnightblue" points="472.531,-263.507 464.143,-269.979 474.736,-270.151 472.531,-263.507"/>
</g>
<!-- Node34 -->
<g id="node34" class="node"><title>Node34</title>
<g id="a_node34"><a xlink:href="../../d8/dd3/lbaselib_8c.html#a1fb2725eed679431d070b2e9e7abc223" target="_top" xlink:title="luaB_pcall">
<polygon fill="none" stroke="black" points="663,-228.5 663,-247.5 724,-247.5 724,-228.5 663,-228.5"/>
<text text-anchor="middle" x="693.5" y="-235.5" font-family="Helvetica,sans-Serif" font-size="10.00">luaB_pcall</text>
</a>
</g>
</g>
<!-- Node33&#45;&gt;Node34 -->
<g id="edge41" class="edge"><title>Node33&#45;&gt;Node34</title>
<path fill="none" stroke="midnightblue" d="M601.211,-238C620.89,-238 644.434,-238 662.683,-238"/>
<polygon fill="midnightblue" stroke="midnightblue" points="601.029,-234.5 591.029,-238 601.029,-241.5 601.029,-234.5"/>
</g>
<!-- Node35 -->
<g id="node35" class="node"><title>Node35</title>
<g id="a_node35"><a xlink:href="../../d8/dd3/lbaselib_8c.html#a5fbb0094fa1a56f0a4c2547f1ec4c5ab" target="_top" xlink:title="luaB_xpcall">
<polygon fill="none" stroke="black" points="660.5,-190.5 660.5,-209.5 726.5,-209.5 726.5,-190.5 660.5,-190.5"/>
<text text-anchor="middle" x="693.5" y="-197.5" font-family="Helvetica,sans-Serif" font-size="10.00">luaB_xpcall</text>
</a>
</g>
</g>
<!-- Node33&#45;&gt;Node35 -->
<g id="edge42" class="edge"><title>Node33&#45;&gt;Node35</title>
<path fill="none" stroke="midnightblue" d="M600.838,-226.793C619.776,-221.258 642.367,-214.654 660.382,-209.388"/>
<polygon fill="midnightblue" stroke="midnightblue" points="599.645,-223.496 591.029,-229.661 601.609,-230.214 599.645,-223.496"/>
</g>
<!-- Node37 -->
<g id="node37" class="node"><title>Node37</title>
<g id="a_node37"><a xlink:href="../../d8/dd3/lbaselib_8c.html#a86a4e35d9c9ad4661a0dbbac3758c049" target="_top" xlink:title="luaB_dofile">
<polygon fill="none" stroke="black" points="662.5,-892.5 662.5,-911.5 724.5,-911.5 724.5,-892.5 662.5,-892.5"/>
<text text-anchor="middle" x="693.5" y="-899.5" font-family="Helvetica,sans-Serif" font-size="10.00">luaB_dofile</text>
</a>
</g>
</g>
<!-- Node36&#45;&gt;Node37 -->
<g id="edge44" class="edge"><title>Node36&#45;&gt;Node37</title>
<path fill="none" stroke="midnightblue" d="M463.544,-666.718C470.129,-673.204 477.571,-680.795 484,-688 557.706,-770.609 548.909,-818.654 639,-883 645.978,-887.984 654.392,-891.775 662.46,-894.608"/>
<polygon fill="midnightblue" stroke="midnightblue" points="465.932,-664.157 456.32,-659.7 461.054,-669.178 465.932,-664.157"/>
</g>
<!-- Node39 -->
<g id="node39" class="node"><title>Node39</title>
<g id="a_node39"><a xlink:href="../../da/dd2/lua_8h.html#aae6c05ddea7bd110a3e84595ef92e601" target="_top" xlink:title="lua_error">
<polygon fill="none" stroke="black" points="535.5,-930.5 535.5,-949.5 587.5,-949.5 587.5,-930.5 535.5,-930.5"/>
<text text-anchor="middle" x="561.5" y="-937.5" font-family="Helvetica,sans-Serif" font-size="10.00">lua_error</text>
</a>
</g>
</g>
<!-- Node38&#45;&gt;Node39 -->
<g id="edge47" class="edge"><title>Node38&#45;&gt;Node39</title>
<path fill="none" stroke="midnightblue" d="M455.249,-725.822C478.417,-772.966 538.323,-894.87 555.705,-930.243"/>
<polygon fill="midnightblue" stroke="midnightblue" points="458.326,-724.146 450.774,-716.715 452.043,-727.234 458.326,-724.146"/>
</g>
<!-- Node42 -->
<g id="node42" class="node"><title>Node42</title>
<g id="a_node42"><a xlink:href="../../db/d46/ldebug_8h.html#a6f27f64630215e18a11be9ba21d3c4bf" target="_top" xlink:title="luaG_runerror">
<polygon fill="none" stroke="red" points="525,-697.5 525,-716.5 598,-716.5 598,-697.5 525,-697.5"/>
<text text-anchor="middle" x="561.5" y="-704.5" font-family="Helvetica,sans-Serif" font-size="10.00">luaG_runerror</text>
</a>
</g>
</g>
<!-- Node38&#45;&gt;Node42 -->
<g id="edge52" class="edge"><title>Node38&#45;&gt;Node42</title>
<path fill="none" stroke="midnightblue" d="M494.217,-707C504.49,-707 515.161,-707 524.862,-707"/>
<polygon fill="midnightblue" stroke="midnightblue" points="494.127,-703.5 484.127,-707 494.127,-710.5 494.127,-703.5"/>
</g>
<!-- Node39&#45;&gt;Node14 -->
<g id="edge51" class="edge"><title>Node39&#45;&gt;Node14</title>
<path fill="none" stroke="midnightblue" d="M579.434,-956.897C593.93,-970.232 616.045,-988.031 639,-997 714.34,-1026.44 739.114,-1016 820,-1016 820,-1016 820,-1016 1084.5,-1016 1199.07,-1016 1271.49,-855.892 1288.26,-814.615"/>
<polygon fill="midnightblue" stroke="midnightblue" points="581.487,-954.02 571.83,-949.662 576.662,-959.091 581.487,-954.02"/>
</g>
<!-- Node39&#45;&gt;Node37 -->
<g id="edge50" class="edge"><title>Node39&#45;&gt;Node37</title>
<path fill="none" stroke="midnightblue" d="M597.381,-929.804C617.702,-923.864 643.067,-916.45 662.492,-910.772"/>
<polygon fill="midnightblue" stroke="midnightblue" points="596.182,-926.508 587.565,-932.673 598.146,-933.227 596.182,-926.508"/>
</g>
<!-- Node40 -->
<g id="node40" class="node"><title>Node40</title>
<g id="a_node40"><a xlink:href="../../da/d29/lauxlib_8h.html#a994f73d7985c30672469a260d9e86ae6" target="_top" xlink:title="luaL_error">
<polygon fill="none" stroke="red" points="665,-968.5 665,-987.5 722,-987.5 722,-968.5 665,-968.5"/>
<text text-anchor="middle" x="693.5" y="-975.5" font-family="Helvetica,sans-Serif" font-size="10.00">luaL_error</text>
</a>
</g>
</g>
<!-- Node39&#45;&gt;Node40 -->
<g id="edge48" class="edge"><title>Node39&#45;&gt;Node40</title>
<path fill="none" stroke="midnightblue" d="M597.448,-950.216C618.578,-956.392 645.141,-964.157 664.811,-969.906"/>
<polygon fill="midnightblue" stroke="midnightblue" points="598.146,-946.773 587.565,-947.327 596.182,-953.492 598.146,-946.773"/>
</g>
<!-- Node41 -->
<g id="node41" class="node"><title>Node41</title>
<g id="a_node41"><a xlink:href="../../d8/dd3/lbaselib_8c.html#a2ecfa987569d0b4c1063f3e204e42dd2" target="_top" xlink:title="luaB_error">
<polygon fill="none" stroke="black" points="664,-930.5 664,-949.5 723,-949.5 723,-930.5 664,-930.5"/>
<text text-anchor="middle" x="693.5" y="-937.5" font-family="Helvetica,sans-Serif" font-size="10.00">luaB_error</text>
</a>
</g>
</g>
<!-- Node39&#45;&gt;Node41 -->
<g id="edge49" class="edge"><title>Node39&#45;&gt;Node41</title>
<path fill="none" stroke="midnightblue" d="M597.594,-940C618.372,-940 644.364,-940 663.891,-940"/>
<polygon fill="midnightblue" stroke="midnightblue" points="597.565,-936.5 587.565,-940 597.565,-943.5 597.565,-936.5"/>
</g>
<!-- Node42&#45;&gt;Node4 -->
<g id="edge56" class="edge"><title>Node42&#45;&gt;Node4</title>
<path fill="none" stroke="midnightblue" d="M543.254,-689.888C504.018,-650.901 411.064,-558.202 406,-550 367.568,-487.753 348.672,-399.722 343.216,-370.697"/>
<polygon fill="midnightblue" stroke="midnightblue" points="541.198,-692.779 550.76,-697.342 546.131,-687.812 541.198,-692.779"/>
</g>
<!-- Node42&#45;&gt;Node6 -->
<g id="edge61" class="edge"><title>Node42&#45;&gt;Node6</title>
<path fill="none" stroke="midnightblue" d="M607.991,-695.452C623.588,-691.493 640.835,-687.115 655.66,-683.352"/>
<polygon fill="midnightblue" stroke="midnightblue" points="606.854,-692.13 598.023,-697.983 608.577,-698.915 606.854,-692.13"/>
</g>
<!-- Node42&#45;&gt;Node10 -->
<g id="edge60" class="edge"><title>Node42&#45;&gt;Node10</title>
<path fill="none" stroke="midnightblue" d="M573.659,-688.81C586.915,-668.612 610.817,-636.317 639,-617 681.318,-587.995 712.022,-615.575 748,-579 808.374,-517.624 818.125,-404.623 819.698,-370.808"/>
<polygon fill="midnightblue" stroke="midnightblue" points="570.61,-687.082 568.187,-697.396 576.513,-690.844 570.61,-687.082"/>
</g>
<!-- Node42&#45;&gt;Node17 -->
<g id="edge62" class="edge"><title>Node42&#45;&gt;Node17</title>
<path fill="none" stroke="midnightblue" d="M582.629,-691.21C597.565,-680.029 618.764,-665.257 639,-655 646.033,-651.435 653.895,-648.243 661.382,-645.538"/>
<polygon fill="midnightblue" stroke="midnightblue" points="580.447,-688.472 574.613,-697.316 584.689,-694.04 580.447,-688.472"/>
</g>
<!-- Node42&#45;&gt;Node23 -->
<g id="edge59" class="edge"><title>Node42&#45;&gt;Node23</title>
<path fill="none" stroke="midnightblue" d="M570.027,-688.05C581.385,-661.588 605.227,-613.504 639,-584 645.9,-577.972 654.561,-573.216 662.891,-569.583"/>
<polygon fill="midnightblue" stroke="midnightblue" points="566.767,-686.773 566.169,-697.351 573.233,-689.455 566.767,-686.773"/>
</g>
<!-- Node43 -->
<g id="node43" class="node"><title>Node43</title>
<g id="a_node43"><a xlink:href="../../dc/d1e/ltable_8c.html#a4c78714b16a133fb409681f8ca4240be" target="_top" xlink:title="findindex">
<polygon fill="none" stroke="red" points="667,-854.5 667,-873.5 720,-873.5 720,-854.5 667,-854.5"/>
<text text-anchor="middle" x="693.5" y="-861.5" font-family="Helvetica,sans-Serif" font-size="10.00">findindex</text>
</a>
</g>
</g>
<!-- Node42&#45;&gt;Node43 -->
<g id="edge53" class="edge"><title>Node42&#45;&gt;Node43</title>
<path fill="none" stroke="midnightblue" d="M568.209,-726.132C577.98,-755.71 600.656,-812.51 639,-845 646.896,-851.69 657.315,-856.089 666.859,-858.95"/>
<polygon fill="midnightblue" stroke="midnightblue" points="571.536,-725.044 565.188,-716.562 564.861,-727.151 571.536,-725.044"/>
</g>
<!-- Node44 -->
<g id="node44" class="node"><title>Node44</title>
<g id="a_node44"><a xlink:href="../../da/dd2/lua_8h.html#a77807056ba032d64b2def2b57dc53d53" target="_top" xlink:title="lua_pushnumber">
<polygon fill="none" stroke="red" points="649.5,-816.5 649.5,-835.5 737.5,-835.5 737.5,-816.5 649.5,-816.5"/>
<text text-anchor="middle" x="693.5" y="-823.5" font-family="Helvetica,sans-Serif" font-size="10.00">lua_pushnumber</text>
</a>
</g>
</g>
<!-- Node42&#45;&gt;Node44 -->
<g id="edge54" class="edge"><title>Node42&#45;&gt;Node44</title>
<path fill="none" stroke="midnightblue" d="M572.267,-725.578C584.878,-747.884 608.833,-785.028 639,-807 644.258,-810.83 650.361,-813.948 656.524,-816.467"/>
<polygon fill="midnightblue" stroke="midnightblue" points="575.304,-723.837 567.43,-716.748 569.164,-727.2 575.304,-723.837"/>
</g>
<!-- Node45 -->
<g id="node45" class="node"><title>Node45</title>
<g id="a_node45"><a xlink:href="../../da/dd2/lua_8h.html#ab717ff0354e9c39199b16a1c412fa252" target="_top" xlink:title="lua_yieldk">
<polygon fill="none" stroke="black" points="664.5,-778.5 664.5,-797.5 722.5,-797.5 722.5,-778.5 664.5,-778.5"/>
<text text-anchor="middle" x="693.5" y="-785.5" font-family="Helvetica,sans-Serif" font-size="10.00">lua_yieldk</text>
</a>
</g>
</g>
<!-- Node42&#45;&gt;Node45 -->
<g id="edge55" class="edge"><title>Node42&#45;&gt;Node45</title>
<path fill="none" stroke="midnightblue" d="M579.427,-723.583C594.159,-737.278 616.607,-756.44 639,-769 646.909,-773.436 656.043,-777.138 664.5,-780.059"/>
<polygon fill="midnightblue" stroke="midnightblue" points="581.748,-720.961 572.086,-716.614 576.929,-726.037 581.748,-720.961"/>
</g>
<!-- Node46 -->
<g id="node46" class="node"><title>Node46</title>
<g id="a_node46"><a xlink:href="../../d2/dd9/ldo_8h.html#ab83418a7edbfafe87886f156aa6a9988" target="_top" xlink:title="luaD_growstack">
<polygon fill="none" stroke="red" points="650.5,-740.5 650.5,-759.5 736.5,-759.5 736.5,-740.5 650.5,-740.5"/>
<text text-anchor="middle" x="693.5" y="-747.5" font-family="Helvetica,sans-Serif" font-size="10.00">luaD_growstack</text>
</a>
</g>
</g>
<!-- Node42&#45;&gt;Node46 -->
<g id="edge57" class="edge"><title>Node42&#45;&gt;Node46</title>
<path fill="none" stroke="midnightblue" d="M600.857,-719.687C620.984,-726.345 645.232,-734.365 663.729,-740.484"/>
<polygon fill="midnightblue" stroke="midnightblue" points="601.944,-716.361 591.351,-716.543 599.746,-723.006 601.944,-716.361"/>
</g>
<!-- Node47 -->
<g id="node47" class="node"><title>Node47</title>
<g id="a_node47"><a xlink:href="../../db/d46/ldebug_8h.html#a7ae9c3f6343c93b4a8bb80e68706a6a3" target="_top" xlink:title="luaG_ordererror">
<polygon fill="none" stroke="red" points="653.5,-702.5 653.5,-721.5 733.5,-721.5 733.5,-702.5 653.5,-702.5"/>
<text text-anchor="middle" x="693.5" y="-709.5" font-family="Helvetica,sans-Serif" font-size="10.00">luaG_ordererror</text>
</a>
</g>
</g>
<!-- Node42&#45;&gt;Node47 -->
<g id="edge58" class="edge"><title>Node42&#45;&gt;Node47</title>
<path fill="none" stroke="midnightblue" d="M608.415,-708.766C623.099,-709.331 639.209,-709.95 653.364,-710.495"/>
<polygon fill="midnightblue" stroke="midnightblue" points="608.15,-705.253 598.023,-708.366 607.881,-712.248 608.15,-705.253"/>
</g>
<!-- Node48&#45;&gt;Node3 -->
<g id="edge67" class="edge"><title>Node48&#45;&gt;Node3</title>
<path fill="none" stroke="midnightblue" d="M153.446,-102.769C175.374,-122.704 211.221,-155.292 228.925,-171.386"/>
<polygon fill="midnightblue" stroke="midnightblue" points="155.544,-99.9458 145.79,-95.8089 150.835,-105.125 155.544,-99.9458"/>
</g>
<!-- Node48&#45;&gt;Node10 -->
<g id="edge71" class="edge"><title>Node48&#45;&gt;Node10</title>
<path fill="none" stroke="midnightblue" d="M180.151,-86C221.588,-86 284.678,-86 339.5,-86 339.5,-86 339.5,-86 562.5,-86 645.75,-86 685.099,-57.4645 748,-112 822.801,-176.853 822.212,-314.133 820.567,-351.46"/>
<polygon fill="midnightblue" stroke="midnightblue" points="180.101,-82.5001 170.101,-86 180.101,-89.5001 180.101,-82.5001"/>
</g>
<!-- Node48&#45;&gt;Node16 -->
<g id="edge70" class="edge"><title>Node48&#45;&gt;Node16</title>
<path fill="none" stroke="midnightblue" d="M176.44,-73.6756C217.459,-62.5782 282.241,-48 339.5,-48 339.5,-48 339.5,-48 822,-48 888.995,-48 955.693,-103.334 980.438,-126.246"/>
<polygon fill="midnightblue" stroke="midnightblue" points="175.248,-70.3736 166.542,-76.411 177.113,-77.1206 175.248,-70.3736"/>
</g>
<!-- Node49 -->
<g id="node49" class="node"><title>Node49</title>
<g id="a_node49"><a xlink:href="../../d3/d08/ldo_8c.html#adc7e6a1d731fd1745272a2b86928b8f0" target="_top" xlink:title="finishCcall">
<polygon fill="none" stroke="black" points="311,-0.5 311,-19.5 370,-19.5 370,-0.5 311,-0.5"/>
<text text-anchor="middle" x="340.5" y="-7.5" font-family="Helvetica,sans-Serif" font-size="10.00">finishCcall</text>
</a>
</g>
</g>
<!-- Node48&#45;&gt;Node49 -->
<g id="edge68" class="edge"><title>Node48&#45;&gt;Node49</title>
<path fill="none" stroke="midnightblue" d="M152.711,-69.4426C166.274,-57.7058 185.998,-42.575 206,-34 240.197,-19.3396 283.035,-13.6335 310.821,-11.4132"/>
<polygon fill="midnightblue" stroke="midnightblue" points="150.245,-66.9526 145.115,-76.2228 154.906,-72.1749 150.245,-66.9526"/>
</g>
<!-- Node49&#45;&gt;Node11 -->
<g id="edge69" class="edge"><title>Node49&#45;&gt;Node11</title>
<path fill="none" stroke="midnightblue" d="M380.405,-10C424.192,-10 497.451,-10 560.5,-10 560.5,-10 560.5,-10 694.5,-10 768.51,-10 856.687,-10 893.954,-10"/>
<polygon fill="midnightblue" stroke="midnightblue" points="380.198,-6.5001 370.198,-10 380.198,-13.5001 380.198,-6.5001"/>
</g>
<!-- Node50&#45;&gt;Node10 -->
<g id="edge74" class="edge"><title>Node50&#45;&gt;Node10</title>
<path fill="none" stroke="midnightblue" d="M279.271,-124C319.944,-124 386.555,-124 444,-124 444,-124 444,-124 562.5,-124 645.632,-124 683.713,-95.2926 748,-148 813.504,-201.705 819.692,-317.408 820.057,-351.415"/>
<polygon fill="midnightblue" stroke="midnightblue" points="279.013,-120.5 269.013,-124 279.013,-127.5 279.013,-120.5"/>
</g>
</g>
</svg>
