<?xml version="1.0" encoding="UTF-8" standalone="no"?>
<!DOCTYPE svg PUBLIC "-//W3C//DTD SVG 1.1//EN"
 "http://www.w3.org/Graphics/SVG/1.1/DTD/svg11.dtd">
<!-- Generated by graphviz version 2.38.0 (20140413.2041)
 -->
<!-- Title: luaD_poscall Pages: 1 -->
<svg width="1345pt" height="1186pt"
 viewBox="0.00 0.00 1345.00 1186.00" xmlns="http://www.w3.org/2000/svg" xmlns:xlink="http://www.w3.org/1999/xlink">
<g id="graph0" class="graph" transform="scale(1 1) rotate(0) translate(4 1182)">
<title>luaD_poscall</title>
<!-- Node1 -->
<g id="node1" class="node"><title>Node1</title>
<polygon fill="#bfbfbf" stroke="black" points="0,-57.5 0,-76.5 72,-76.5 72,-57.5 0,-57.5"/>
<text text-anchor="middle" x="36" y="-64.5" font-family="Helvetica,sans-Serif" font-size="10.00">luaD_poscall</text>
</g>
<!-- Node2 -->
<g id="node2" class="node"><title>Node2</title>
<g id="a_node2"><a xlink:href="../../d3/d08/ldo_8c.html#adc7e6a1d731fd1745272a2b86928b8f0" target="_top" xlink:title="finishCcall">
<polygon fill="none" stroke="black" points="213,-0.5 213,-19.5 272,-19.5 272,-0.5 213,-0.5"/>
<text text-anchor="middle" x="242.5" y="-7.5" font-family="Helvetica,sans-Serif" font-size="10.00">finishCcall</text>
</a>
</g>
</g>
<!-- Node1&#45;&gt;Node2 -->
<g id="edge1" class="edge"><title>Node1&#45;&gt;Node2</title>
<path fill="none" stroke="midnightblue" d="M63.2243,-52.8372C76.3486,-46.2647 92.6705,-38.851 108,-34 143.249,-22.8456 185.474,-16.346 212.861,-12.9872"/>
<polygon fill="midnightblue" stroke="midnightblue" points="61.5884,-49.7427 54.2929,-57.4255 64.7872,-55.9691 61.5884,-49.7427"/>
</g>
<!-- Node8 -->
<g id="node8" class="node"><title>Node8</title>
<g id="a_node8"><a xlink:href="../../d3/d08/ldo_8c.html#abd7632c715de5db6e7797b7fa3f7010f" target="_top" xlink:title="resume">
<polygon fill="none" stroke="black" points="971,-107.5 971,-126.5 1018,-126.5 1018,-107.5 971,-107.5"/>
<text text-anchor="middle" x="994.5" y="-114.5" font-family="Helvetica,sans-Serif" font-size="10.00">resume</text>
</a>
</g>
</g>
<!-- Node1&#45;&gt;Node8 -->
<g id="edge75" class="edge"><title>Node1&#45;&gt;Node8</title>
<path fill="none" stroke="midnightblue" d="M82.0393,-60.3989C123.401,-54.9127 186.442,-48 241.5,-48 241.5,-48 241.5,-48 825,-48 886.958,-48 952.814,-88.4465 980.281,-107.406"/>
<polygon fill="midnightblue" stroke="midnightblue" points="81.4483,-56.9469 72.0087,-61.7579 82.3881,-63.8835 81.4483,-56.9469"/>
</g>
<!-- Node9 -->
<g id="node9" class="node"><title>Node9</title>
<g id="a_node9"><a xlink:href="../../d2/dd9/ldo_8h.html#af2326bf8464de1e4ce3c5f7aef2ed5d4" target="_top" xlink:title="luaD_precall">
<polygon fill="none" stroke="black" points="108,-379.5 108,-398.5 177,-398.5 177,-379.5 108,-379.5"/>
<text text-anchor="middle" x="142.5" y="-386.5" font-family="Helvetica,sans-Serif" font-size="10.00">luaD_precall</text>
</a>
</g>
</g>
<!-- Node1&#45;&gt;Node9 -->
<g id="edge9" class="edge"><title>Node1&#45;&gt;Node9</title>
<path fill="none" stroke="midnightblue" d="M43.2243,-86.1793C62.9924,-147.092 123.898,-334.763 138.385,-379.401"/>
<polygon fill="midnightblue" stroke="midnightblue" points="46.5435,-85.068 40.1275,-76.6368 39.8853,-87.2289 46.5435,-85.068"/>
</g>
<!-- Node16 -->
<g id="node16" class="node"><title>Node16</title>
<g id="a_node16"><a xlink:href="../../d5/dcd/lvm_8h.html#ae93565adc36c6e2157dbbd875433ede1" target="_top" xlink:title="luaV_execute">
<polygon fill="none" stroke="black" points="787,-184.5 787,-203.5 861,-203.5 861,-184.5 787,-184.5"/>
<text text-anchor="middle" x="824" y="-191.5" font-family="Helvetica,sans-Serif" font-size="10.00">luaV_execute</text>
</a>
</g>
</g>
<!-- Node1&#45;&gt;Node16 -->
<g id="edge74" class="edge"><title>Node1&#45;&gt;Node16</title>
<path fill="none" stroke="midnightblue" d="M82.0393,-73.6011C123.401,-79.0873 186.442,-86 241.5,-86 241.5,-86 241.5,-86 586.5,-86 662.66,-86 683.777,-98.2025 751,-134 776.564,-147.613 801.387,-171.303 814.141,-184.475"/>
<polygon fill="midnightblue" stroke="midnightblue" points="82.3881,-70.1165 72.0087,-72.2421 81.4483,-77.0531 82.3881,-70.1165"/>
</g>
<!-- Node3 -->
<g id="node3" class="node"><title>Node3</title>
<g id="a_node3"><a xlink:href="../../d3/d08/ldo_8c.html#a3baab9d298c0c32cb74a9a079d7244de" target="_top" xlink:title="unroll">
<polygon fill="none" stroke="black" points="897,-0.5 897,-19.5 935,-19.5 935,-0.5 897,-0.5"/>
<text text-anchor="middle" x="916" y="-7.5" font-family="Helvetica,sans-Serif" font-size="10.00">unroll</text>
</a>
</g>
</g>
<!-- Node2&#45;&gt;Node3 -->
<g id="edge2" class="edge"><title>Node2&#45;&gt;Node3</title>
<path fill="none" stroke="midnightblue" d="M282.235,-10C325.101,-10 396.234,-10 457.5,-10 457.5,-10 457.5,-10 714.5,-10 781.681,-10 861.525,-10 896.754,-10"/>
<polygon fill="midnightblue" stroke="midnightblue" points="282.23,-6.5001 272.23,-10 282.229,-13.5001 282.23,-6.5001"/>
</g>
<!-- Node4 -->
<g id="node4" class="node"><title>Node4</title>
<g id="a_node4"><a xlink:href="../../da/dd2/lua_8h.html#a434479f022eda738b99000aad5ddd929" target="_top" xlink:title="lua_resume">
<polygon fill="none" stroke="black" points="1054,-107.5 1054,-126.5 1119,-126.5 1119,-107.5 1054,-107.5"/>
<text text-anchor="middle" x="1086.5" y="-114.5" font-family="Helvetica,sans-Serif" font-size="10.00">lua_resume</text>
</a>
</g>
</g>
<!-- Node3&#45;&gt;Node4 -->
<g id="edge3" class="edge"><title>Node3&#45;&gt;Node4</title>
<path fill="none" stroke="midnightblue" d="M940.948,-25.2071C976.209,-47.5987 1041.08,-88.7939 1070.41,-107.415"/>
<polygon fill="midnightblue" stroke="midnightblue" points="942.568,-22.0903 932.25,-19.6843 938.816,-27.9996 942.568,-22.0903"/>
</g>
<!-- Node3&#45;&gt;Node8 -->
<g id="edge7" class="edge"><title>Node3&#45;&gt;Node8</title>
<path fill="none" stroke="midnightblue" d="M930.669,-28.1074C932.139,-30.0899 933.606,-32.0834 935,-34 954.077,-60.2349 975.952,-91.6351 986.748,-107.222"/>
<polygon fill="midnightblue" stroke="midnightblue" points="933.216,-25.6691 924.422,-19.76 927.612,-29.8633 933.216,-25.6691"/>
</g>
<!-- Node5 -->
<g id="node5" class="node"><title>Node5</title>
<g id="a_node5"><a xlink:href="../../df/d2d/lcorolib_8c.html#aaa37b3a30ab0c6daef7fae8951fef3e7" target="_top" xlink:title="auxresume">
<polygon fill="none" stroke="black" points="1155,-537.5 1155,-556.5 1219,-556.5 1219,-537.5 1155,-537.5"/>
<text text-anchor="middle" x="1187" y="-544.5" font-family="Helvetica,sans-Serif" font-size="10.00">auxresume</text>
</a>
</g>
</g>
<!-- Node4&#45;&gt;Node5 -->
<g id="edge4" class="edge"><title>Node4&#45;&gt;Node5</title>
<path fill="none" stroke="midnightblue" d="M1092.06,-136.896C1109.46,-212.85 1171.34,-483.008 1183.8,-537.413"/>
<polygon fill="midnightblue" stroke="midnightblue" points="1095.39,-135.755 1089.74,-126.789 1088.56,-137.318 1095.39,-135.755"/>
</g>
<!-- Node6 -->
<g id="node6" class="node"><title>Node6</title>
<g id="a_node6"><a xlink:href="../../df/d2d/lcorolib_8c.html#a777abb20385a69ce4787f72bd90375a7" target="_top" xlink:title="luaB_auxwrap">
<polygon fill="none" stroke="red" points="1256,-790.5 1256,-809.5 1336,-809.5 1336,-790.5 1256,-790.5"/>
<text text-anchor="middle" x="1296" y="-797.5" font-family="Helvetica,sans-Serif" font-size="10.00">luaB_auxwrap</text>
</a>
</g>
</g>
<!-- Node5&#45;&gt;Node6 -->
<g id="edge5" class="edge"><title>Node5&#45;&gt;Node6</title>
<path fill="none" stroke="midnightblue" d="M1196.05,-566.028C1217.43,-616.585 1275.1,-752.95 1290.93,-790.381"/>
<polygon fill="midnightblue" stroke="midnightblue" points="1199.18,-564.456 1192.06,-556.609 1192.74,-567.182 1199.18,-564.456"/>
</g>
<!-- Node7 -->
<g id="node7" class="node"><title>Node7</title>
<g id="a_node7"><a xlink:href="../../df/d2d/lcorolib_8c.html#a76f5d80387eeb1c7d31eb5f9cb6c9392" target="_top" xlink:title="luaB_coresume">
<polygon fill="none" stroke="black" points="1255,-537.5 1255,-556.5 1337,-556.5 1337,-537.5 1255,-537.5"/>
<text text-anchor="middle" x="1296" y="-544.5" font-family="Helvetica,sans-Serif" font-size="10.00">luaB_coresume</text>
</a>
</g>
</g>
<!-- Node5&#45;&gt;Node7 -->
<g id="edge6" class="edge"><title>Node5&#45;&gt;Node7</title>
<path fill="none" stroke="midnightblue" d="M1229.47,-547C1237.78,-547 1246.49,-547 1254.75,-547"/>
<polygon fill="midnightblue" stroke="midnightblue" points="1229.24,-543.5 1219.24,-547 1229.24,-550.5 1229.24,-543.5"/>
</g>
<!-- Node8&#45;&gt;Node4 -->
<g id="edge8" class="edge"><title>Node8&#45;&gt;Node4</title>
<path fill="none" stroke="midnightblue" d="M1028.37,-117C1036.72,-117 1045.68,-117 1053.96,-117"/>
<polygon fill="midnightblue" stroke="midnightblue" points="1028.21,-113.5 1018.21,-117 1028.21,-120.5 1028.21,-113.5"/>
</g>
<!-- Node9&#45;&gt;Node8 -->
<g id="edge72" class="edge"><title>Node9&#45;&gt;Node8</title>
<path fill="none" stroke="midnightblue" d="M144.787,-408.774C152.736,-522.87 199.722,-1092 346,-1092 346,-1092 346,-1092 825,-1092 928.497,-1092 986.461,-227.91 992.898,-126.65"/>
<polygon fill="midnightblue" stroke="midnightblue" points="148.27,-408.411 144.103,-398.67 141.286,-408.884 148.27,-408.411"/>
</g>
<!-- Node9&#45;&gt;Node9 -->
<g id="edge10" class="edge"><title>Node9&#45;&gt;Node9</title>
<path fill="none" stroke="midnightblue" d="M123.982,-408.4C125.219,-413.315 131.392,-417 142.5,-417 160.273,-417 165.411,-407.565 157.913,-398.757"/>
<polygon fill="midnightblue" stroke="midnightblue" points="127.354,-409.349 127.087,-398.757 120.691,-407.203 127.354,-409.349"/>
</g>
<!-- Node10 -->
<g id="node10" class="node"><title>Node10</title>
<g id="a_node10"><a xlink:href="../../d2/dd9/ldo_8h.html#a7bb0b106d4012134156e0fa240f51228" target="_top" xlink:title="luaD_call">
<polygon fill="none" stroke="black" points="214.5,-645.5 214.5,-664.5 270.5,-664.5 270.5,-645.5 214.5,-645.5"/>
<text text-anchor="middle" x="242.5" y="-652.5" font-family="Helvetica,sans-Serif" font-size="10.00">luaD_call</text>
</a>
</g>
</g>
<!-- Node9&#45;&gt;Node10 -->
<g id="edge11" class="edge"><title>Node9&#45;&gt;Node10</title>
<path fill="none" stroke="midnightblue" d="M150.616,-408.316C170.079,-461.142 223.687,-606.649 237.966,-645.409"/>
<polygon fill="midnightblue" stroke="midnightblue" points="153.845,-406.956 147.104,-398.783 147.277,-409.376 153.845,-406.956"/>
</g>
<!-- Node9&#45;&gt;Node16 -->
<g id="edge73" class="edge"><title>Node9&#45;&gt;Node16</title>
<path fill="none" stroke="midnightblue" d="M148.23,-369.28C164.258,-307.847 222.537,-124 346,-124 346,-124 346,-124 586.5,-124 670.641,-124 764.953,-165.242 804.247,-184.414"/>
<polygon fill="midnightblue" stroke="midnightblue" points="144.766,-368.703 145.723,-379.254 151.555,-370.409 144.766,-368.703"/>
</g>
<!-- Node11 -->
<g id="node11" class="node"><title>Node11</title>
<g id="a_node11"><a xlink:href="../../dd/d4a/lvm_8c.html#aa904883a58699d9c6ef4d6f0f45037f6" target="_top" xlink:title="callTM">
<polygon fill="none" stroke="black" points="436.5,-322.5 436.5,-341.5 480.5,-341.5 480.5,-322.5 436.5,-322.5"/>
<text text-anchor="middle" x="458.5" y="-329.5" font-family="Helvetica,sans-Serif" font-size="10.00">callTM</text>
</a>
</g>
</g>
<!-- Node10&#45;&gt;Node11 -->
<g id="edge12" class="edge"><title>Node10&#45;&gt;Node11</title>
<path fill="none" stroke="midnightblue" d="M255.502,-636.885C295.175,-577.004 421.27,-386.684 451.12,-341.629"/>
<polygon fill="midnightblue" stroke="midnightblue" points="252.51,-635.064 249.905,-645.333 258.346,-638.93 252.51,-635.064"/>
</g>
<!-- Node10&#45;&gt;Node16 -->
<g id="edge71" class="edge"><title>Node10&#45;&gt;Node16</title>
<path fill="none" stroke="midnightblue" d="M243.088,-635.087C241.985,-542.658 248.916,-162 457.5,-162 457.5,-162 457.5,-162 586.5,-162 663.849,-162 754.762,-174.338 797.877,-184.477"/>
<polygon fill="midnightblue" stroke="midnightblue" points="239.588,-635.158 243.254,-645.099 246.587,-635.043 239.588,-635.158"/>
</g>
<!-- Node28 -->
<g id="node28" class="node"><title>Node28</title>
<g id="a_node28"><a xlink:href="../../de/d27/lgc_8c.html#a929058f72c03750fa82374f6bfa639ee" target="_top" xlink:title="dothecall">
<polygon fill="none" stroke="black" points="320.5,-1120.5 320.5,-1139.5 373.5,-1139.5 373.5,-1120.5 320.5,-1120.5"/>
<text text-anchor="middle" x="347" y="-1127.5" font-family="Helvetica,sans-Serif" font-size="10.00">dothecall</text>
</a>
</g>
</g>
<!-- Node10&#45;&gt;Node28 -->
<g id="edge36" class="edge"><title>Node10&#45;&gt;Node28</title>
<path fill="none" stroke="midnightblue" d="M247.781,-674.837C265.294,-755.997 331.164,-1061.25 343.871,-1120.13"/>
<polygon fill="midnightblue" stroke="midnightblue" points="251.172,-673.958 245.641,-664.921 244.329,-675.434 251.172,-673.958"/>
</g>
<!-- Node32 -->
<g id="node32" class="node"><title>Node32</title>
<g id="a_node32"><a xlink:href="../../df/db6/lapi_8c.html#ac3926c93fb08234f9f47e24653124910" target="_top" xlink:title="f_call">
<polygon fill="none" stroke="black" points="328,-702.5 328,-721.5 366,-721.5 366,-702.5 328,-702.5"/>
<text text-anchor="middle" x="347" y="-709.5" font-family="Helvetica,sans-Serif" font-size="10.00">f_call</text>
</a>
</g>
</g>
<!-- Node10&#45;&gt;Node32 -->
<g id="edge40" class="edge"><title>Node10&#45;&gt;Node32</title>
<path fill="none" stroke="midnightblue" d="M269.744,-669.594C288.332,-679.931 312.734,-693.501 328.869,-702.474"/>
<polygon fill="midnightblue" stroke="midnightblue" points="271.328,-666.471 260.888,-664.669 267.926,-672.588 271.328,-666.471"/>
</g>
<!-- Node33 -->
<g id="node33" class="node"><title>Node33</title>
<g id="a_node33"><a xlink:href="../../da/dd2/lua_8h.html#a3c4de08aa665eaee4aabd330aa99a441" target="_top" xlink:title="lua_pcallk">
<polygon fill="none" stroke="black" points="429,-778.5 429,-797.5 488,-797.5 488,-778.5 429,-778.5"/>
<text text-anchor="middle" x="458.5" y="-785.5" font-family="Helvetica,sans-Serif" font-size="10.00">lua_pcallk</text>
</a>
</g>
</g>
<!-- Node10&#45;&gt;Node33 -->
<g id="edge46" class="edge"><title>Node10&#45;&gt;Node33</title>
<path fill="none" stroke="midnightblue" d="M280.831,-658.196C311.317,-662.309 354.378,-671.685 386,-693 419.378,-715.499 443.392,-758.843 452.941,-778.221"/>
<polygon fill="midnightblue" stroke="midnightblue" points="280.962,-654.686 270.611,-656.949 280.114,-661.634 280.962,-654.686"/>
</g>
<!-- Node36 -->
<g id="node36" class="node"><title>Node36</title>
<g id="a_node36"><a xlink:href="../../da/dd2/lua_8h.html#aa6aba1fd89ac6f1c5ccfdfd12f826d80" target="_top" xlink:title="lua_callk">
<polygon fill="none" stroke="black" points="320.5,-902.5 320.5,-921.5 373.5,-921.5 373.5,-902.5 320.5,-902.5"/>
<text text-anchor="middle" x="347" y="-909.5" font-family="Helvetica,sans-Serif" font-size="10.00">lua_callk</text>
</a>
</g>
</g>
<!-- Node10&#45;&gt;Node36 -->
<g id="edge44" class="edge"><title>Node10&#45;&gt;Node36</title>
<path fill="none" stroke="midnightblue" d="M251.209,-674.329C271.691,-725.685 326.938,-864.206 342.103,-902.229"/>
<polygon fill="midnightblue" stroke="midnightblue" points="254.349,-672.753 247.393,-664.761 247.847,-675.346 254.349,-672.753"/>
</g>
<!-- Node38 -->
<g id="node38" class="node"><title>Node38</title>
<g id="a_node38"><a xlink:href="../../db/d46/ldebug_8h.html#acd5ef9f67a8e9d08f6540636fdbeafe6" target="_top" xlink:title="luaG_errormsg">
<polygon fill="none" stroke="black" points="308,-740.5 308,-759.5 386,-759.5 386,-740.5 308,-740.5"/>
<text text-anchor="middle" x="347" y="-747.5" font-family="Helvetica,sans-Serif" font-size="10.00">luaG_errormsg</text>
</a>
</g>
</g>
<!-- Node10&#45;&gt;Node38 -->
<g id="edge47" class="edge"><title>Node10&#45;&gt;Node38</title>
<path fill="none" stroke="midnightblue" d="M255.786,-673.342C267.642,-689.994 286.864,-714.414 308,-731 312.526,-734.552 317.822,-737.703 322.998,-740.368"/>
<polygon fill="midnightblue" stroke="midnightblue" points="258.567,-671.211 249.992,-664.989 252.816,-675.2 258.567,-671.211"/>
</g>
<!-- Node12 -->
<g id="node12" class="node"><title>Node12</title>
<g id="a_node12"><a xlink:href="../../d5/dcd/lvm_8h.html#adacdbccc9d8fab937a1b0dc058c8da12" target="_top" xlink:title="luaV_gettable">
<polygon fill="none" stroke="black" points="676,-436.5 676,-455.5 751,-455.5 751,-436.5 676,-436.5"/>
<text text-anchor="middle" x="713.5" y="-443.5" font-family="Helvetica,sans-Serif" font-size="10.00">luaV_gettable</text>
</a>
</g>
</g>
<!-- Node11&#45;&gt;Node12 -->
<g id="edge13" class="edge"><title>Node11&#45;&gt;Node12</title>
<path fill="none" stroke="midnightblue" d="M490.933,-329.391C528.783,-327.709 593.107,-329.62 640,-356 674.1,-375.183 698.316,-417.361 707.921,-436.373"/>
<polygon fill="midnightblue" stroke="midnightblue" points="490.329,-325.919 480.541,-329.974 490.721,-332.908 490.329,-325.919"/>
</g>
<!-- Node17 -->
<g id="node17" class="node"><title>Node17</title>
<g id="a_node17"><a xlink:href="../../d5/dcd/lvm_8h.html#a5885d48fd66eb236f8b8f6e4938cbcce" target="_top" xlink:title="luaV_settable">
<polygon fill="none" stroke="black" points="676,-531.5 676,-550.5 751,-550.5 751,-531.5 676,-531.5"/>
<text text-anchor="middle" x="713.5" y="-538.5" font-family="Helvetica,sans-Serif" font-size="10.00">luaV_settable</text>
</a>
</g>
</g>
<!-- Node11&#45;&gt;Node17 -->
<g id="edge21" class="edge"><title>Node11&#45;&gt;Node17</title>
<path fill="none" stroke="midnightblue" d="M461.8,-351.735C467.088,-387.695 483.548,-463.79 531,-503 552.653,-520.892 629.118,-532.048 675.61,-537.338"/>
<polygon fill="midnightblue" stroke="midnightblue" points="465.236,-351.02 460.45,-341.567 458.296,-351.941 465.236,-351.02"/>
</g>
<!-- Node21 -->
<g id="node21" class="node"><title>Node21</title>
<g id="a_node21"><a xlink:href="../../dd/d4a/lvm_8c.html#a5f9dd797eb313b8e117cb20546276732" target="_top" xlink:title="call_binTM">
<polygon fill="none" stroke="black" points="554.5,-246.5 554.5,-265.5 616.5,-265.5 616.5,-246.5 554.5,-246.5"/>
<text text-anchor="middle" x="585.5" y="-253.5" font-family="Helvetica,sans-Serif" font-size="10.00">call_binTM</text>
</a>
</g>
</g>
<!-- Node11&#45;&gt;Node21 -->
<g id="edge26" class="edge"><title>Node11&#45;&gt;Node21</title>
<path fill="none" stroke="midnightblue" d="M479.048,-316.076C493.013,-305.135 512.524,-290.707 531,-280 540.248,-274.64 550.91,-269.64 560.27,-265.605"/>
<polygon fill="midnightblue" stroke="midnightblue" points="476.777,-313.411 471.129,-322.374 481.134,-318.889 476.777,-313.411"/>
</g>
<!-- Node25 -->
<g id="node25" class="node"><title>Node25</title>
<g id="a_node25"><a xlink:href="../../d5/dcd/lvm_8h.html#ab77cced08254efde4e5dfb28b37a7f31" target="_top" xlink:title="luaV_equalobj_">
<polygon fill="none" stroke="black" points="544,-208.5 544,-227.5 627,-227.5 627,-208.5 544,-208.5"/>
<text text-anchor="middle" x="585.5" y="-215.5" font-family="Helvetica,sans-Serif" font-size="10.00">luaV_equalobj_</text>
</a>
</g>
</g>
<!-- Node11&#45;&gt;Node25 -->
<g id="edge32" class="edge"><title>Node11&#45;&gt;Node25</title>
<path fill="none" stroke="midnightblue" d="M469.057,-313.447C480.902,-292.165 502.992,-257.569 531,-237 536.164,-233.208 542.154,-230.116 548.219,-227.614"/>
<polygon fill="midnightblue" stroke="midnightblue" points="465.871,-311.982 464.218,-322.447 472.036,-315.297 465.871,-311.982"/>
</g>
<!-- Node26 -->
<g id="node26" class="node"><title>Node26</title>
<g id="a_node26"><a xlink:href="../../d5/dcd/lvm_8h.html#a414b4b487239935324f2f16e1e7715db" target="_top" xlink:title="luaV_objlen">
<polygon fill="none" stroke="black" points="680,-474.5 680,-493.5 747,-493.5 747,-474.5 680,-474.5"/>
<text text-anchor="middle" x="713.5" y="-481.5" font-family="Helvetica,sans-Serif" font-size="10.00">luaV_objlen</text>
</a>
</g>
</g>
<!-- Node11&#45;&gt;Node26 -->
<g id="edge33" class="edge"><title>Node11&#45;&gt;Node26</title>
<path fill="none" stroke="midnightblue" d="M482.85,-347.101C522.189,-372.369 604.401,-424.44 676,-465 681.594,-468.169 687.766,-471.458 693.418,-474.391"/>
<polygon fill="midnightblue" stroke="midnightblue" points="484.546,-344.03 474.243,-341.56 480.757,-349.916 484.546,-344.03"/>
</g>
<!-- Node13 -->
<g id="node13" class="node"><title>Node13</title>
<g id="a_node13"><a xlink:href="../../da/dd2/lua_8h.html#a2b4a9010af0545ae0f822d7f081370d0" target="_top" xlink:title="lua_getglobal">
<polygon fill="none" stroke="red" points="787.5,-436.5 787.5,-455.5 860.5,-455.5 860.5,-436.5 787.5,-436.5"/>
<text text-anchor="middle" x="824" y="-443.5" font-family="Helvetica,sans-Serif" font-size="10.00">lua_getglobal</text>
</a>
</g>
</g>
<!-- Node12&#45;&gt;Node13 -->
<g id="edge14" class="edge"><title>Node12&#45;&gt;Node13</title>
<path fill="none" stroke="midnightblue" d="M761.321,-446C770.065,-446 779.071,-446 787.407,-446"/>
<polygon fill="midnightblue" stroke="midnightblue" points="761.233,-442.5 751.233,-446 761.233,-449.5 761.233,-442.5"/>
</g>
<!-- Node14 -->
<g id="node14" class="node"><title>Node14</title>
<g id="a_node14"><a xlink:href="../../da/dd2/lua_8h.html#a8d82fa181a3003e9a304040c0bbed9ac" target="_top" xlink:title="lua_gettable">
<polygon fill="none" stroke="red" points="790,-398.5 790,-417.5 858,-417.5 858,-398.5 790,-398.5"/>
<text text-anchor="middle" x="824" y="-405.5" font-family="Helvetica,sans-Serif" font-size="10.00">lua_gettable</text>
</a>
</g>
</g>
<!-- Node12&#45;&gt;Node14 -->
<g id="edge15" class="edge"><title>Node12&#45;&gt;Node14</title>
<path fill="none" stroke="midnightblue" d="M751.538,-433.028C765.993,-427.966 782.267,-422.266 795.63,-417.586"/>
<polygon fill="midnightblue" stroke="midnightblue" points="750.16,-429.802 741.879,-436.411 752.474,-436.409 750.16,-429.802"/>
</g>
<!-- Node15 -->
<g id="node15" class="node"><title>Node15</title>
<g id="a_node15"><a xlink:href="../../da/dd2/lua_8h.html#ac3112bb28ba217adc46f13da8e9e6585" target="_top" xlink:title="lua_getfield">
<polygon fill="none" stroke="red" points="792.5,-360.5 792.5,-379.5 855.5,-379.5 855.5,-360.5 792.5,-360.5"/>
<text text-anchor="middle" x="824" y="-367.5" font-family="Helvetica,sans-Serif" font-size="10.00">lua_getfield</text>
</a>
</g>
</g>
<!-- Node12&#45;&gt;Node15 -->
<g id="edge16" class="edge"><title>Node12&#45;&gt;Node15</title>
<path fill="none" stroke="midnightblue" d="M738.581,-430.956C742.803,-428.097 747.092,-425.044 751,-422 768.123,-408.661 769.257,-401.501 787,-389 791.853,-385.581 797.397,-382.36 802.656,-379.575"/>
<polygon fill="midnightblue" stroke="midnightblue" points="736.592,-428.075 730.153,-436.488 740.433,-433.927 736.592,-428.075"/>
</g>
<!-- Node12&#45;&gt;Node16 -->
<g id="edge17" class="edge"><title>Node12&#45;&gt;Node16</title>
<path fill="none" stroke="midnightblue" d="M742.743,-430.413C745.815,-427.893 748.667,-425.085 751,-422 778.668,-385.416 812.224,-242.078 820.882,-203.569"/>
<polygon fill="midnightblue" stroke="midnightblue" points="740.436,-427.758 734.305,-436.399 744.486,-433.467 740.436,-427.758"/>
</g>
<!-- Node16&#45;&gt;Node3 -->
<g id="edge19" class="edge"><title>Node16&#45;&gt;Node3</title>
<path fill="none" stroke="midnightblue" d="M834.189,-175.214C853.17,-136.408 896.121,-48.5978 910.335,-19.5382"/>
<polygon fill="midnightblue" stroke="midnightblue" points="830.962,-173.846 829.712,-184.366 837.25,-176.921 830.962,-173.846"/>
</g>
<!-- Node16&#45;&gt;Node8 -->
<g id="edge20" class="edge"><title>Node16&#45;&gt;Node8</title>
<path fill="none" stroke="midnightblue" d="M855.395,-180.11C889.235,-164.646 943.033,-140.062 972.501,-126.596"/>
<polygon fill="midnightblue" stroke="midnightblue" points="853.641,-177.064 846,-184.404 856.55,-183.431 853.641,-177.064"/>
</g>
<!-- Node16&#45;&gt;Node10 -->
<g id="edge18" class="edge"><title>Node16&#45;&gt;Node10</title>
<path fill="none" stroke="midnightblue" d="M776.646,-193.585C729.058,-189.064 652.796,-180 586.5,-180 457.5,-180 457.5,-180 457.5,-180 244.35,-180 241.779,-577.504 243.17,-645.337"/>
<polygon fill="midnightblue" stroke="midnightblue" points="776.365,-197.074 786.643,-194.502 777.004,-190.103 776.365,-197.074"/>
</g>
<!-- Node17&#45;&gt;Node16 -->
<g id="edge25" class="edge"><title>Node17&#45;&gt;Node16</title>
<path fill="none" stroke="midnightblue" d="M734.347,-524.264C740.499,-518.149 746.767,-510.802 751,-503 752.876,-499.543 808.765,-256.078 820.751,-203.811"/>
<polygon fill="midnightblue" stroke="midnightblue" points="731.724,-521.924 726.779,-531.294 736.488,-527.053 731.724,-521.924"/>
</g>
<!-- Node18 -->
<g id="node18" class="node"><title>Node18</title>
<g id="a_node18"><a xlink:href="../../da/dd2/lua_8h.html#ac0ebe7d753b81f6249dde8cf0b8ea997" target="_top" xlink:title="lua_setglobal">
<polygon fill="none" stroke="red" points="787.5,-512.5 787.5,-531.5 860.5,-531.5 860.5,-512.5 787.5,-512.5"/>
<text text-anchor="middle" x="824" y="-519.5" font-family="Helvetica,sans-Serif" font-size="10.00">lua_setglobal</text>
</a>
</g>
</g>
<!-- Node17&#45;&gt;Node18 -->
<g id="edge22" class="edge"><title>Node17&#45;&gt;Node18</title>
<path fill="none" stroke="midnightblue" d="M761.321,-532.801C770.065,-531.27 779.071,-529.693 787.407,-528.233"/>
<polygon fill="midnightblue" stroke="midnightblue" points="760.48,-529.395 751.233,-534.567 761.687,-536.29 760.48,-529.395"/>
</g>
<!-- Node19 -->
<g id="node19" class="node"><title>Node19</title>
<g id="a_node19"><a xlink:href="../../da/dd2/lua_8h.html#aeda173d104e3a566ccaac89a1f64a5eb" target="_top" xlink:title="lua_settable">
<polygon fill="none" stroke="red" points="790,-588.5 790,-607.5 858,-607.5 858,-588.5 790,-588.5"/>
<text text-anchor="middle" x="824" y="-595.5" font-family="Helvetica,sans-Serif" font-size="10.00">lua_settable</text>
</a>
</g>
</g>
<!-- Node17&#45;&gt;Node19 -->
<g id="edge23" class="edge"><title>Node17&#45;&gt;Node19</title>
<path fill="none" stroke="midnightblue" d="M742.011,-555.453C761.72,-565.807 787.709,-579.46 804.866,-588.474"/>
<polygon fill="midnightblue" stroke="midnightblue" points="743.386,-552.222 732.906,-550.669 740.131,-558.419 743.386,-552.222"/>
</g>
<!-- Node20 -->
<g id="node20" class="node"><title>Node20</title>
<g id="a_node20"><a xlink:href="../../da/dd2/lua_8h.html#a9580a15c141cbe4bf2a63fea625c3878" target="_top" xlink:title="lua_setfield">
<polygon fill="none" stroke="red" points="792.5,-550.5 792.5,-569.5 855.5,-569.5 855.5,-550.5 792.5,-550.5"/>
<text text-anchor="middle" x="824" y="-557.5" font-family="Helvetica,sans-Serif" font-size="10.00">lua_setfield</text>
</a>
</g>
</g>
<!-- Node17&#45;&gt;Node20 -->
<g id="edge24" class="edge"><title>Node17&#45;&gt;Node20</title>
<path fill="none" stroke="midnightblue" d="M761.198,-549.178C771.772,-551.029 782.737,-552.949 792.443,-554.649"/>
<polygon fill="midnightblue" stroke="midnightblue" points="761.687,-545.71 751.233,-547.433 760.48,-552.605 761.687,-545.71"/>
</g>
<!-- Node22 -->
<g id="node22" class="node"><title>Node22</title>
<g id="a_node22"><a xlink:href="../../dd/d4a/lvm_8c.html#a1d1301ff4a771ce4198673dd113d10a5" target="_top" xlink:title="call_orderTM">
<polygon fill="none" stroke="red" points="679,-246.5 679,-265.5 748,-265.5 748,-246.5 679,-246.5"/>
<text text-anchor="middle" x="713.5" y="-253.5" font-family="Helvetica,sans-Serif" font-size="10.00">call_orderTM</text>
</a>
</g>
</g>
<!-- Node21&#45;&gt;Node22 -->
<g id="edge27" class="edge"><title>Node21&#45;&gt;Node22</title>
<path fill="none" stroke="midnightblue" d="M626.711,-256C643.415,-256 662.59,-256 678.569,-256"/>
<polygon fill="midnightblue" stroke="midnightblue" points="626.68,-252.5 616.68,-256 626.68,-259.5 626.68,-252.5"/>
</g>
<!-- Node23 -->
<g id="node23" class="node"><title>Node23</title>
<g id="a_node23"><a xlink:href="../../d5/dcd/lvm_8h.html#aee84bfc563cb4bdd21a013218a289aa7" target="_top" xlink:title="luaV_concat">
<polygon fill="none" stroke="red" points="679,-284.5 679,-303.5 748,-303.5 748,-284.5 679,-284.5"/>
<text text-anchor="middle" x="713.5" y="-291.5" font-family="Helvetica,sans-Serif" font-size="10.00">luaV_concat</text>
</a>
</g>
</g>
<!-- Node21&#45;&gt;Node23 -->
<g id="edge28" class="edge"><title>Node21&#45;&gt;Node23</title>
<path fill="none" stroke="midnightblue" d="M626.626,-268.101C644.138,-273.383 664.377,-279.487 680.808,-284.442"/>
<polygon fill="midnightblue" stroke="midnightblue" points="627.265,-264.639 616.68,-265.102 625.244,-271.34 627.265,-264.639"/>
</g>
<!-- Node24 -->
<g id="node24" class="node"><title>Node24</title>
<g id="a_node24"><a xlink:href="../../d5/dcd/lvm_8h.html#a275e261afaec876cd16944b95c955642" target="_top" xlink:title="luaV_arith">
<polygon fill="none" stroke="red" points="684,-208.5 684,-227.5 743,-227.5 743,-208.5 684,-208.5"/>
<text text-anchor="middle" x="713.5" y="-215.5" font-family="Helvetica,sans-Serif" font-size="10.00">luaV_arith</text>
</a>
</g>
</g>
<!-- Node21&#45;&gt;Node24 -->
<g id="edge30" class="edge"><title>Node21&#45;&gt;Node24</title>
<path fill="none" stroke="midnightblue" d="M626.394,-243.969C645.059,-238.339 666.866,-231.763 683.864,-226.636"/>
<polygon fill="midnightblue" stroke="midnightblue" points="625.244,-240.66 616.68,-246.898 627.265,-247.361 625.244,-240.66"/>
</g>
<!-- Node23&#45;&gt;Node16 -->
<g id="edge29" class="edge"><title>Node23&#45;&gt;Node16</title>
<path fill="none" stroke="midnightblue" d="M745.197,-279.105C747.214,-277.798 749.169,-276.427 751,-275 778.899,-253.255 804.652,-219.764 816.364,-203.506"/>
<polygon fill="midnightblue" stroke="midnightblue" points="743.015,-276.325 736.143,-284.389 746.544,-282.371 743.015,-276.325"/>
</g>
<!-- Node24&#45;&gt;Node16 -->
<g id="edge31" class="edge"><title>Node24&#45;&gt;Node16</title>
<path fill="none" stroke="midnightblue" d="M752.847,-209.518C763.923,-207.068 775.97,-204.403 786.904,-201.984"/>
<polygon fill="midnightblue" stroke="midnightblue" points="752.015,-206.117 743.007,-211.694 753.527,-212.952 752.015,-206.117"/>
</g>
<!-- Node26&#45;&gt;Node16 -->
<g id="edge35" class="edge"><title>Node26&#45;&gt;Node16</title>
<path fill="none" stroke="midnightblue" d="M747.893,-468.36C749.008,-467.304 750.051,-466.185 751,-465 768.155,-443.579 810.954,-249.623 820.908,-203.711"/>
<polygon fill="midnightblue" stroke="midnightblue" points="745.656,-465.662 739.729,-474.444 749.839,-471.275 745.656,-465.662"/>
</g>
<!-- Node27 -->
<g id="node27" class="node"><title>Node27</title>
<g id="a_node27"><a xlink:href="../../da/dd2/lua_8h.html#ac7ade66f92b5e325c42371926f879818" target="_top" xlink:title="lua_len">
<polygon fill="none" stroke="red" points="800.5,-474.5 800.5,-493.5 847.5,-493.5 847.5,-474.5 800.5,-474.5"/>
<text text-anchor="middle" x="824" y="-481.5" font-family="Helvetica,sans-Serif" font-size="10.00">lua_len</text>
</a>
</g>
</g>
<!-- Node26&#45;&gt;Node27 -->
<g id="edge34" class="edge"><title>Node26&#45;&gt;Node27</title>
<path fill="none" stroke="midnightblue" d="M757.055,-484C771.867,-484 787.901,-484 800.449,-484"/>
<polygon fill="midnightblue" stroke="midnightblue" points="757.054,-480.5 747.054,-484 757.054,-487.5 757.054,-480.5"/>
</g>
<!-- Node29 -->
<g id="node29" class="node"><title>Node29</title>
<g id="a_node29"><a xlink:href="../../de/d27/lgc_8c.html#ab9ec6b56580b9e66f41743e393e7e033" target="_top" xlink:title="GCTM">
<polygon fill="none" stroke="black" points="435.5,-1120.5 435.5,-1139.5 481.5,-1139.5 481.5,-1120.5 435.5,-1120.5"/>
<text text-anchor="middle" x="458.5" y="-1127.5" font-family="Helvetica,sans-Serif" font-size="10.00">GCTM</text>
</a>
</g>
</g>
<!-- Node28&#45;&gt;Node29 -->
<g id="edge37" class="edge"><title>Node28&#45;&gt;Node29</title>
<path fill="none" stroke="midnightblue" d="M383.817,-1130C400.796,-1130 420.544,-1130 435.32,-1130"/>
<polygon fill="midnightblue" stroke="midnightblue" points="383.673,-1126.5 373.673,-1130 383.673,-1133.5 383.673,-1126.5"/>
</g>
<!-- Node30 -->
<g id="node30" class="node"><title>Node30</title>
<g id="a_node30"><a xlink:href="../../de/d27/lgc_8c.html#a74f50e6006422d43686521fe765152dd" target="_top" xlink:title="callallpendingfinalizers">
<polygon fill="none" stroke="red" points="531,-1120.5 531,-1139.5 640,-1139.5 640,-1120.5 531,-1120.5"/>
<text text-anchor="middle" x="585.5" y="-1127.5" font-family="Helvetica,sans-Serif" font-size="10.00">callallpendingfinalizers</text>
</a>
</g>
</g>
<!-- Node29&#45;&gt;Node30 -->
<g id="edge38" class="edge"><title>Node29&#45;&gt;Node30</title>
<path fill="none" stroke="midnightblue" d="M491.901,-1130C503.826,-1130 517.671,-1130 530.965,-1130"/>
<polygon fill="midnightblue" stroke="midnightblue" points="491.56,-1126.5 481.56,-1130 491.56,-1133.5 491.56,-1126.5"/>
</g>
<!-- Node31 -->
<g id="node31" class="node"><title>Node31</title>
<g id="a_node31"><a xlink:href="../../dc/d9c/lgc_8h.html#a19359957605d7c8eaf70803e5b77361f" target="_top" xlink:title="luaC_forcestep">
<polygon fill="none" stroke="red" points="545.5,-1158.5 545.5,-1177.5 625.5,-1177.5 625.5,-1158.5 545.5,-1158.5"/>
<text text-anchor="middle" x="585.5" y="-1165.5" font-family="Helvetica,sans-Serif" font-size="10.00">luaC_forcestep</text>
</a>
</g>
</g>
<!-- Node29&#45;&gt;Node31 -->
<g id="edge39" class="edge"><title>Node29&#45;&gt;Node31</title>
<path fill="none" stroke="midnightblue" d="M491.193,-1139.63C510.066,-1145.37 533.937,-1152.63 552.81,-1158.37"/>
<polygon fill="midnightblue" stroke="midnightblue" points="492.145,-1136.27 481.56,-1136.71 490.109,-1142.96 492.145,-1136.27"/>
</g>
<!-- Node32&#45;&gt;Node33 -->
<g id="edge41" class="edge"><title>Node32&#45;&gt;Node33</title>
<path fill="none" stroke="midnightblue" d="M375.232,-724.742C378.919,-726.718 382.6,-728.829 386,-731 409.012,-745.696 433.378,-766.375 446.891,-778.363"/>
<polygon fill="midnightblue" stroke="midnightblue" points="376.709,-721.566 366.21,-720.145 373.531,-727.803 376.709,-721.566"/>
</g>
<!-- Node34 -->
<g id="node34" class="node"><title>Node34</title>
<g id="a_node34"><a xlink:href="../../d8/dd3/lbaselib_8c.html#a1fb2725eed679431d070b2e9e7abc223" target="_top" xlink:title="luaB_pcall">
<polygon fill="none" stroke="black" points="555,-854.5 555,-873.5 616,-873.5 616,-854.5 555,-854.5"/>
<text text-anchor="middle" x="585.5" y="-861.5" font-family="Helvetica,sans-Serif" font-size="10.00">luaB_pcall</text>
</a>
</g>
</g>
<!-- Node33&#45;&gt;Node34 -->
<g id="edge42" class="edge"><title>Node33&#45;&gt;Node34</title>
<path fill="none" stroke="midnightblue" d="M479.048,-803.924C493.013,-814.865 512.524,-829.293 531,-840 540.248,-845.36 550.91,-850.36 560.27,-854.395"/>
<polygon fill="midnightblue" stroke="midnightblue" points="481.134,-801.111 471.129,-797.626 476.777,-806.589 481.134,-801.111"/>
</g>
<!-- Node35 -->
<g id="node35" class="node"><title>Node35</title>
<g id="a_node35"><a xlink:href="../../d8/dd3/lbaselib_8c.html#a5fbb0094fa1a56f0a4c2547f1ec4c5ab" target="_top" xlink:title="luaB_xpcall">
<polygon fill="none" stroke="black" points="552.5,-892.5 552.5,-911.5 618.5,-911.5 618.5,-892.5 552.5,-892.5"/>
<text text-anchor="middle" x="585.5" y="-899.5" font-family="Helvetica,sans-Serif" font-size="10.00">luaB_xpcall</text>
</a>
</g>
</g>
<!-- Node33&#45;&gt;Node35 -->
<g id="edge43" class="edge"><title>Node33&#45;&gt;Node35</title>
<path fill="none" stroke="midnightblue" d="M469.057,-806.553C480.902,-827.835 502.992,-862.431 531,-883 537.356,-887.667 544.963,-891.273 552.42,-894.025"/>
<polygon fill="midnightblue" stroke="midnightblue" points="472.036,-804.703 464.218,-797.553 465.871,-808.018 472.036,-804.703"/>
</g>
<!-- Node37 -->
<g id="node37" class="node"><title>Node37</title>
<g id="a_node37"><a xlink:href="../../d8/dd3/lbaselib_8c.html#a86a4e35d9c9ad4661a0dbbac3758c049" target="_top" xlink:title="luaB_dofile">
<polygon fill="none" stroke="black" points="554.5,-1044.5 554.5,-1063.5 616.5,-1063.5 616.5,-1044.5 554.5,-1044.5"/>
<text text-anchor="middle" x="585.5" y="-1051.5" font-family="Helvetica,sans-Serif" font-size="10.00">luaB_dofile</text>
</a>
</g>
</g>
<!-- Node36&#45;&gt;Node37 -->
<g id="edge45" class="edge"><title>Node36&#45;&gt;Node37</title>
<path fill="none" stroke="midnightblue" d="M359.479,-930.016C372.503,-949.12 395.42,-978.975 422,-997 463.322,-1025.02 519.884,-1040.74 554.218,-1048.28"/>
<polygon fill="midnightblue" stroke="midnightblue" points="362.346,-928.006 353.908,-921.6 356.509,-931.87 362.346,-928.006"/>
</g>
<!-- Node39 -->
<g id="node39" class="node"><title>Node39</title>
<g id="a_node39"><a xlink:href="../../da/dd2/lua_8h.html#aae6c05ddea7bd110a3e84595ef92e601" target="_top" xlink:title="lua_error">
<polygon fill="none" stroke="black" points="432.5,-968.5 432.5,-987.5 484.5,-987.5 484.5,-968.5 432.5,-968.5"/>
<text text-anchor="middle" x="458.5" y="-975.5" font-family="Helvetica,sans-Serif" font-size="10.00">lua_error</text>
</a>
</g>
</g>
<!-- Node38&#45;&gt;Node39 -->
<g id="edge48" class="edge"><title>Node38&#45;&gt;Node39</title>
<path fill="none" stroke="midnightblue" d="M356.985,-768.709C379.241,-815.051 436.326,-933.911 452.915,-968.453"/>
<polygon fill="midnightblue" stroke="midnightblue" points="360.05,-767.006 352.566,-759.507 353.74,-770.036 360.05,-767.006"/>
</g>
<!-- Node42 -->
<g id="node42" class="node"><title>Node42</title>
<g id="a_node42"><a xlink:href="../../db/d46/ldebug_8h.html#a6f27f64630215e18a11be9ba21d3c4bf" target="_top" xlink:title="luaG_runerror">
<polygon fill="none" stroke="red" points="422,-626.5 422,-645.5 495,-645.5 495,-626.5 422,-626.5"/>
<text text-anchor="middle" x="458.5" y="-633.5" font-family="Helvetica,sans-Serif" font-size="10.00">luaG_runerror</text>
</a>
</g>
</g>
<!-- Node38&#45;&gt;Node42 -->
<g id="edge53" class="edge"><title>Node38&#45;&gt;Node42</title>
<path fill="none" stroke="midnightblue" d="M380.416,-735.144C382.37,-733.84 384.25,-732.458 386,-731 416.767,-705.366 441.964,-664.027 452.364,-645.507"/>
<polygon fill="midnightblue" stroke="midnightblue" points="378.403,-732.268 371.554,-740.351 381.949,-738.303 378.403,-732.268"/>
</g>
<!-- Node39&#45;&gt;Node6 -->
<g id="edge52" class="edge"><title>Node39&#45;&gt;Node6</title>
<path fill="none" stroke="midnightblue" d="M494.481,-988.459C506.023,-991.596 518.983,-994.788 531,-997 610.768,-1011.68 631.393,-1016 712.5,-1016 712.5,-1016 712.5,-1016 1087.5,-1016 1203.72,-1016 1275.17,-851.362 1291.44,-809.56"/>
<polygon fill="midnightblue" stroke="midnightblue" points="495.336,-985.063 484.763,-985.741 493.451,-991.805 495.336,-985.063"/>
</g>
<!-- Node39&#45;&gt;Node37 -->
<g id="edge51" class="edge"><title>Node39&#45;&gt;Node37</title>
<path fill="none" stroke="midnightblue" d="M479.048,-993.924C493.013,-1004.87 512.524,-1019.29 531,-1030 540.248,-1035.36 550.91,-1040.36 560.27,-1044.39"/>
<polygon fill="midnightblue" stroke="midnightblue" points="481.134,-991.111 471.129,-987.626 476.777,-996.589 481.134,-991.111"/>
</g>
<!-- Node40 -->
<g id="node40" class="node"><title>Node40</title>
<g id="a_node40"><a xlink:href="../../da/d29/lauxlib_8h.html#a994f73d7985c30672469a260d9e86ae6" target="_top" xlink:title="luaL_error">
<polygon fill="none" stroke="red" points="557,-930.5 557,-949.5 614,-949.5 614,-930.5 557,-930.5"/>
<text text-anchor="middle" x="585.5" y="-937.5" font-family="Helvetica,sans-Serif" font-size="10.00">luaL_error</text>
</a>
</g>
</g>
<!-- Node39&#45;&gt;Node40 -->
<g id="edge49" class="edge"><title>Node39&#45;&gt;Node40</title>
<path fill="none" stroke="midnightblue" d="M494.59,-967.333C514.208,-961.369 538.319,-954.039 556.632,-948.472"/>
<polygon fill="midnightblue" stroke="midnightblue" points="493.345,-964.053 484.796,-970.31 495.381,-970.75 493.345,-964.053"/>
</g>
<!-- Node41 -->
<g id="node41" class="node"><title>Node41</title>
<g id="a_node41"><a xlink:href="../../d8/dd3/lbaselib_8c.html#a2ecfa987569d0b4c1063f3e204e42dd2" target="_top" xlink:title="luaB_error">
<polygon fill="none" stroke="black" points="556,-968.5 556,-987.5 615,-987.5 615,-968.5 556,-968.5"/>
<text text-anchor="middle" x="585.5" y="-975.5" font-family="Helvetica,sans-Serif" font-size="10.00">luaB_error</text>
</a>
</g>
</g>
<!-- Node39&#45;&gt;Node41 -->
<g id="edge50" class="edge"><title>Node39&#45;&gt;Node41</title>
<path fill="none" stroke="midnightblue" d="M494.983,-978C514.213,-978 537.668,-978 555.744,-978"/>
<polygon fill="midnightblue" stroke="midnightblue" points="494.796,-974.5 484.796,-978 494.796,-981.5 494.796,-974.5"/>
</g>
<!-- Node42&#45;&gt;Node10 -->
<g id="edge57" class="edge"><title>Node42&#45;&gt;Node10</title>
<path fill="none" stroke="midnightblue" d="M411.53,-640.081C368.619,-643.891 306.034,-649.448 270.603,-652.594"/>
<polygon fill="midnightblue" stroke="midnightblue" points="412.066,-643.548 421.717,-639.177 411.447,-636.575 412.066,-643.548"/>
</g>
<!-- Node42&#45;&gt;Node12 -->
<g id="edge69" class="edge"><title>Node42&#45;&gt;Node12</title>
<path fill="none" stroke="midnightblue" d="M461.428,-615.791C466.109,-579.055 481.609,-501.738 531,-465 572.945,-433.8 636.219,-434.926 675.903,-439.669"/>
<polygon fill="midnightblue" stroke="midnightblue" points="457.898,-615.862 460.26,-626.19 464.855,-616.644 457.898,-615.862"/>
</g>
<!-- Node42&#45;&gt;Node16 -->
<g id="edge68" class="edge"><title>Node42&#45;&gt;Node16</title>
<path fill="none" stroke="midnightblue" d="M461.72,-616.23C467.05,-577.022 483.835,-488.426 531,-433 567.09,-390.589 710.751,-351.487 751,-313 785.905,-279.624 810.216,-225.766 819.182,-203.8"/>
<polygon fill="midnightblue" stroke="midnightblue" points="458.226,-615.961 460.458,-626.318 465.172,-616.83 458.226,-615.961"/>
</g>
<!-- Node42&#45;&gt;Node17 -->
<g id="edge70" class="edge"><title>Node42&#45;&gt;Node17</title>
<path fill="none" stroke="midnightblue" d="M460.965,-655.7C464.913,-692.843 479.297,-772.578 531,-807 571.325,-833.847 601.503,-836.409 640,-807 682.696,-774.384 706.263,-594.407 711.416,-550.61"/>
<polygon fill="midnightblue" stroke="midnightblue" points="464.441,-655.278 460.045,-645.638 457.47,-655.915 464.441,-655.278"/>
</g>
<!-- Node42&#45;&gt;Node23 -->
<g id="edge67" class="edge"><title>Node42&#45;&gt;Node23</title>
<path fill="none" stroke="midnightblue" d="M460.402,-615.876C463.387,-571.166 476.197,-462.153 531,-394 569.89,-345.637 638.778,-317.046 679.58,-303.54"/>
<polygon fill="midnightblue" stroke="midnightblue" points="456.899,-615.837 459.825,-626.02 463.887,-616.235 456.899,-615.837"/>
</g>
<!-- Node43 -->
<g id="node43" class="node"><title>Node43</title>
<g id="a_node43"><a xlink:href="../../dc/d1e/ltable_8c.html#a4c78714b16a133fb409681f8ca4240be" target="_top" xlink:title="findindex">
<polygon fill="none" stroke="red" points="559,-740.5 559,-759.5 612,-759.5 612,-740.5 559,-740.5"/>
<text text-anchor="middle" x="585.5" y="-747.5" font-family="Helvetica,sans-Serif" font-size="10.00">findindex</text>
</a>
</g>
</g>
<!-- Node42&#45;&gt;Node43 -->
<g id="edge54" class="edge"><title>Node42&#45;&gt;Node43</title>
<path fill="none" stroke="midnightblue" d="M469.057,-654.553C480.902,-675.835 502.992,-710.431 531,-731 539.183,-737.009 549.442,-741.259 558.781,-744.192"/>
<polygon fill="midnightblue" stroke="midnightblue" points="472.036,-652.703 464.218,-645.553 465.871,-656.018 472.036,-652.703"/>
</g>
<!-- Node44 -->
<g id="node44" class="node"><title>Node44</title>
<g id="a_node44"><a xlink:href="../../da/dd2/lua_8h.html#a77807056ba032d64b2def2b57dc53d53" target="_top" xlink:title="lua_pushnumber">
<polygon fill="none" stroke="red" points="541.5,-702.5 541.5,-721.5 629.5,-721.5 629.5,-702.5 541.5,-702.5"/>
<text text-anchor="middle" x="585.5" y="-709.5" font-family="Helvetica,sans-Serif" font-size="10.00">lua_pushnumber</text>
</a>
</g>
</g>
<!-- Node42&#45;&gt;Node44 -->
<g id="edge55" class="edge"><title>Node42&#45;&gt;Node44</title>
<path fill="none" stroke="midnightblue" d="M477.08,-652.784C490.866,-665.228 511.004,-681.89 531,-693 537.548,-696.638 544.924,-699.791 552.058,-702.425"/>
<polygon fill="midnightblue" stroke="midnightblue" points="479.097,-649.883 469.376,-645.669 474.348,-655.025 479.097,-649.883"/>
</g>
<!-- Node45 -->
<g id="node45" class="node"><title>Node45</title>
<g id="a_node45"><a xlink:href="../../da/dd2/lua_8h.html#ab717ff0354e9c39199b16a1c412fa252" target="_top" xlink:title="lua_yieldk">
<polygon fill="none" stroke="black" points="556.5,-664.5 556.5,-683.5 614.5,-683.5 614.5,-664.5 556.5,-664.5"/>
<text text-anchor="middle" x="585.5" y="-671.5" font-family="Helvetica,sans-Serif" font-size="10.00">lua_yieldk</text>
</a>
</g>
</g>
<!-- Node42&#45;&gt;Node45 -->
<g id="edge56" class="edge"><title>Node42&#45;&gt;Node45</title>
<path fill="none" stroke="midnightblue" d="M500.84,-648.567C519.063,-654.107 540.006,-660.474 556.379,-665.451"/>
<polygon fill="midnightblue" stroke="midnightblue" points="501.628,-645.149 491.043,-645.589 499.592,-651.846 501.628,-645.149"/>
</g>
<!-- Node46 -->
<g id="node46" class="node"><title>Node46</title>
<g id="a_node46"><a xlink:href="../../d2/dd9/ldo_8h.html#ab83418a7edbfafe87886f156aa6a9988" target="_top" xlink:title="luaD_growstack">
<polygon fill="none" stroke="red" points="542.5,-626.5 542.5,-645.5 628.5,-645.5 628.5,-626.5 542.5,-626.5"/>
<text text-anchor="middle" x="585.5" y="-633.5" font-family="Helvetica,sans-Serif" font-size="10.00">luaD_growstack</text>
</a>
</g>
</g>
<!-- Node42&#45;&gt;Node46 -->
<g id="edge58" class="edge"><title>Node42&#45;&gt;Node46</title>
<path fill="none" stroke="midnightblue" d="M505.648,-636C517.712,-636 530.651,-636 542.488,-636"/>
<polygon fill="midnightblue" stroke="midnightblue" points="505.32,-632.5 495.32,-636 505.32,-639.5 505.32,-632.5"/>
</g>
<!-- Node47 -->
<g id="node47" class="node"><title>Node47</title>
<g id="a_node47"><a xlink:href="../../db/d46/ldebug_8h.html#a7ae9c3f6343c93b4a8bb80e68706a6a3" target="_top" xlink:title="luaG_ordererror">
<polygon fill="none" stroke="red" points="545.5,-588.5 545.5,-607.5 625.5,-607.5 625.5,-588.5 545.5,-588.5"/>
<text text-anchor="middle" x="585.5" y="-595.5" font-family="Helvetica,sans-Serif" font-size="10.00">luaG_ordererror</text>
</a>
</g>
</g>
<!-- Node42&#45;&gt;Node47 -->
<g id="edge59" class="edge"><title>Node42&#45;&gt;Node47</title>
<path fill="none" stroke="midnightblue" d="M500.735,-623.465C517.739,-618.295 537.129,-612.401 552.967,-607.586"/>
<polygon fill="midnightblue" stroke="midnightblue" points="499.592,-620.154 491.043,-626.411 501.628,-626.851 499.592,-620.154"/>
</g>
<!-- Node48 -->
<g id="node48" class="node"><title>Node48</title>
<g id="a_node48"><a xlink:href="../../db/d46/ldebug_8h.html#a375161dd1513420561f20f0b4c7b7e66" target="_top" xlink:title="luaG_typeerror">
<polygon fill="none" stroke="red" points="546,-474.5 546,-493.5 625,-493.5 625,-474.5 546,-474.5"/>
<text text-anchor="middle" x="585.5" y="-481.5" font-family="Helvetica,sans-Serif" font-size="10.00">luaG_typeerror</text>
</a>
</g>
</g>
<!-- Node42&#45;&gt;Node48 -->
<g id="edge60" class="edge"><title>Node42&#45;&gt;Node48</title>
<path fill="none" stroke="midnightblue" d="M472.115,-618.056C485.985,-598.616 509.202,-566.908 531,-541 545.505,-523.761 563.694,-504.912 574.69,-493.789"/>
<polygon fill="midnightblue" stroke="midnightblue" points="469.201,-616.115 466.272,-626.297 474.911,-620.164 469.201,-616.115"/>
</g>
<!-- Node49 -->
<g id="node49" class="node"><title>Node49</title>
<g id="a_node49"><a xlink:href="../../d3/d44/ltable_8h.html#a61547e63b2d74aa68da53a7fd235e77e" target="_top" xlink:title="luaH_newkey">
<polygon fill="none" stroke="red" points="548,-778.5 548,-797.5 623,-797.5 623,-778.5 548,-778.5"/>
<text text-anchor="middle" x="585.5" y="-785.5" font-family="Helvetica,sans-Serif" font-size="10.00">luaH_newkey</text>
</a>
</g>
</g>
<!-- Node42&#45;&gt;Node49 -->
<g id="edge64" class="edge"><title>Node42&#45;&gt;Node49</title>
<path fill="none" stroke="midnightblue" d="M464.927,-655.23C473.983,-683.943 494.842,-737.96 531,-769 535.936,-773.237 541.883,-776.553 547.991,-779.14"/>
<polygon fill="midnightblue" stroke="midnightblue" points="468.254,-654.137 462.027,-645.564 461.549,-656.149 468.254,-654.137"/>
</g>
<!-- Node50 -->
<g id="node50" class="node"><title>Node50</title>
<g id="a_node50"><a xlink:href="../../d7/d3e/lmem_8h.html#a9adb7e11025b0b91454ae7949bc8d370" target="_top" xlink:title="luaM_growaux_">
<polygon fill="none" stroke="black" points="542.5,-550.5 542.5,-569.5 628.5,-569.5 628.5,-550.5 542.5,-550.5"/>
<text text-anchor="middle" x="585.5" y="-557.5" font-family="Helvetica,sans-Serif" font-size="10.00">luaM_growaux_</text>
</a>
</g>
</g>
<!-- Node42&#45;&gt;Node50 -->
<g id="edge66" class="edge"><title>Node42&#45;&gt;Node50</title>
<path fill="none" stroke="midnightblue" d="M477.08,-619.216C490.866,-606.772 511.004,-590.11 531,-579 537.548,-575.362 544.924,-572.209 552.058,-569.575"/>
<polygon fill="midnightblue" stroke="midnightblue" points="474.348,-616.975 469.376,-626.331 479.097,-622.117 474.348,-616.975"/>
</g>
<!-- Node48&#45;&gt;Node12 -->
<g id="edge61" class="edge"><title>Node48&#45;&gt;Node12</title>
<path fill="none" stroke="midnightblue" d="M628.064,-471.465C645.205,-466.295 664.75,-460.401 680.715,-455.586"/>
<polygon fill="midnightblue" stroke="midnightblue" points="626.859,-468.173 618.295,-474.411 628.88,-474.874 626.859,-468.173"/>
</g>
<!-- Node48&#45;&gt;Node17 -->
<g id="edge63" class="edge"><title>Node48&#45;&gt;Node17</title>
<path fill="none" stroke="midnightblue" d="M617.024,-497.659C624.54,-501.031 632.564,-504.64 640,-508 657.391,-515.859 677.1,-524.834 691.574,-531.439"/>
<polygon fill="midnightblue" stroke="midnightblue" points="618.416,-494.447 607.86,-493.55 615.553,-500.835 618.416,-494.447"/>
</g>
<!-- Node48&#45;&gt;Node26 -->
<g id="edge62" class="edge"><title>Node48&#45;&gt;Node26</title>
<path fill="none" stroke="midnightblue" d="M635.44,-484C650.361,-484 666.389,-484 679.943,-484"/>
<polygon fill="midnightblue" stroke="midnightblue" points="635.332,-480.5 625.332,-484 635.332,-487.5 635.332,-480.5"/>
</g>
<!-- Node49&#45;&gt;Node17 -->
<g id="edge65" class="edge"><title>Node49&#45;&gt;Node17</title>
<path fill="none" stroke="midnightblue" d="M632.163,-775.351C635.016,-773.513 637.67,-771.409 640,-769 702.662,-704.211 711.185,-585.437 712.328,-550.751"/>
<polygon fill="midnightblue" stroke="midnightblue" points="630.358,-772.346 623.142,-780.104 633.621,-778.539 630.358,-772.346"/>
</g>
</g>
</svg>
