<?xml version="1.0" encoding="UTF-8" standalone="no"?>
<!DOCTYPE svg PUBLIC "-//W3C//DTD SVG 1.1//EN"
 "http://www.w3.org/Graphics/SVG/1.1/DTD/svg11.dtd">
<!-- Generated by graphviz version 2.38.0 (20140413.2041)
 -->
<!-- Title: luaD_rawrunprotected Pages: 1 -->
<svg width="768pt" height="909pt"
 viewBox="0.00 0.00 768.00 909.00" xmlns="http://www.w3.org/2000/svg" xmlns:xlink="http://www.w3.org/1999/xlink">
<g id="graph0" class="graph" transform="scale(1 1) rotate(0) translate(4 905)">
<title>luaD_rawrunprotected</title>
<!-- Node1 -->
<g id="node1" class="node"><title>Node1</title>
<polygon fill="#bfbfbf" stroke="black" points="0,-340.5 0,-359.5 110,-359.5 110,-340.5 0,-340.5"/>
<text text-anchor="middle" x="55" y="-347.5" font-family="Helvetica,sans-Serif" font-size="10.00">luaD_rawrunprotected</text>
</g>
<!-- Node2 -->
<g id="node2" class="node"><title>Node2</title>
<g id="a_node2"><a xlink:href="../../da/dd2/lua_8h.html#a587f91654912f901426c7118ecc5348c" target="_top" xlink:title="lua_checkstack">
<polygon fill="none" stroke="black" points="146,-387.5 146,-406.5 227,-406.5 227,-387.5 146,-387.5"/>
<text text-anchor="middle" x="186.5" y="-394.5" font-family="Helvetica,sans-Serif" font-size="10.00">lua_checkstack</text>
</a>
</g>
</g>
<!-- Node1&#45;&gt;Node2 -->
<g id="edge1" class="edge"><title>Node1&#45;&gt;Node2</title>
<path fill="none" stroke="midnightblue" d="M91.8508,-363.011C113.079,-370.716 139.52,-380.312 158.888,-387.342"/>
<polygon fill="midnightblue" stroke="midnightblue" points="92.8004,-359.633 82.2063,-359.511 90.4122,-366.213 92.8004,-359.633"/>
</g>
<!-- Node30 -->
<g id="node30" class="node"><title>Node30</title>
<g id="a_node30"><a xlink:href="../../da/dd2/lua_8h.html#af722e4ac7fc0eba5920f59f0162c1b97" target="_top" xlink:title="lua_newstate">
<polygon fill="none" stroke="black" points="149.5,-100.5 149.5,-119.5 223.5,-119.5 223.5,-100.5 149.5,-100.5"/>
<text text-anchor="middle" x="186.5" y="-107.5" font-family="Helvetica,sans-Serif" font-size="10.00">lua_newstate</text>
</a>
</g>
</g>
<!-- Node1&#45;&gt;Node30 -->
<g id="edge31" class="edge"><title>Node1&#45;&gt;Node30</title>
<path fill="none" stroke="midnightblue" d="M66.1179,-331.249C92.1835,-282.942 160.943,-155.511 180.34,-119.563"/>
<polygon fill="midnightblue" stroke="midnightblue" points="62.9054,-329.832 61.2369,-340.294 69.0659,-333.156 62.9054,-329.832"/>
</g>
<!-- Node37 -->
<g id="node37" class="node"><title>Node37</title>
<g id="a_node37"><a xlink:href="../../da/dd2/lua_8h.html#a434479f022eda738b99000aad5ddd929" target="_top" xlink:title="lua_resume">
<polygon fill="none" stroke="black" points="154,-294.5 154,-313.5 219,-313.5 219,-294.5 154,-294.5"/>
<text text-anchor="middle" x="186.5" y="-301.5" font-family="Helvetica,sans-Serif" font-size="10.00">lua_resume</text>
</a>
</g>
</g>
<!-- Node1&#45;&gt;Node37 -->
<g id="edge39" class="edge"><title>Node1&#45;&gt;Node37</title>
<path fill="none" stroke="midnightblue" d="M92.4174,-337.064C113.479,-329.583 139.523,-320.331 158.702,-313.519"/>
<polygon fill="midnightblue" stroke="midnightblue" points="91.0841,-333.823 82.8325,-340.469 93.4272,-340.42 91.0841,-333.823"/>
</g>
<!-- Node38 -->
<g id="node38" class="node"><title>Node38</title>
<g id="a_node38"><a xlink:href="../../d2/dd9/ldo_8h.html#ad1087faa52e2bb98c00806ea1ac198a6" target="_top" xlink:title="luaD_pcall">
<polygon fill="none" stroke="black" points="155.5,-662.5 155.5,-681.5 217.5,-681.5 217.5,-662.5 155.5,-662.5"/>
<text text-anchor="middle" x="186.5" y="-669.5" font-family="Helvetica,sans-Serif" font-size="10.00">luaD_pcall</text>
</a>
</g>
</g>
<!-- Node1&#45;&gt;Node38 -->
<g id="edge41" class="edge"><title>Node1&#45;&gt;Node38</title>
<path fill="none" stroke="midnightblue" d="M63.7134,-369.179C88.2107,-430.092 163.687,-617.763 181.639,-662.401"/>
<polygon fill="midnightblue" stroke="midnightblue" points="66.8543,-367.609 59.8757,-359.637 60.3598,-370.221 66.8543,-367.609"/>
</g>
<!-- Node3 -->
<g id="node3" class="node"><title>Node3</title>
<g id="a_node3"><a xlink:href="../../da/d29/lauxlib_8h.html#a724f5a5aeee97c0b40948c8bca91341c" target="_top" xlink:title="luaL_checkstack">
<polygon fill="none" stroke="black" points="273.5,-387.5 273.5,-406.5 359.5,-406.5 359.5,-387.5 273.5,-387.5"/>
<text text-anchor="middle" x="316.5" y="-394.5" font-family="Helvetica,sans-Serif" font-size="10.00">luaL_checkstack</text>
</a>
</g>
</g>
<!-- Node2&#45;&gt;Node3 -->
<g id="edge2" class="edge"><title>Node2&#45;&gt;Node3</title>
<path fill="none" stroke="midnightblue" d="M237.433,-397C249.209,-397 261.654,-397 273.064,-397"/>
<polygon fill="midnightblue" stroke="midnightblue" points="237.298,-393.5 227.298,-397 237.298,-400.5 237.298,-393.5"/>
</g>
<!-- Node21 -->
<g id="node21" class="node"><title>Node21</title>
<g id="a_node21"><a xlink:href="../../d8/dd3/lbaselib_8c.html#a1b1ef8a039dd08b155cdfcc6167b63fb" target="_top" xlink:title="finishpcall">
<polygon fill="none" stroke="black" points="288,-558.5 288,-577.5 345,-577.5 345,-558.5 288,-558.5"/>
<text text-anchor="middle" x="316.5" y="-565.5" font-family="Helvetica,sans-Serif" font-size="10.00">finishpcall</text>
</a>
</g>
</g>
<!-- Node2&#45;&gt;Node21 -->
<g id="edge20" class="edge"><title>Node2&#45;&gt;Node21</title>
<path fill="none" stroke="midnightblue" d="M200.829,-414.807C227.72,-450.731 287.662,-530.81 308.331,-558.423"/>
<polygon fill="midnightblue" stroke="midnightblue" points="203.543,-412.592 194.749,-406.684 197.939,-416.787 203.543,-412.592"/>
</g>
<!-- Node25 -->
<g id="node25" class="node"><title>Node25</title>
<g id="a_node25"><a xlink:href="../../df/d2d/lcorolib_8c.html#aaa37b3a30ab0c6daef7fae8951fef3e7" target="_top" xlink:title="auxresume">
<polygon fill="none" stroke="black" points="284.5,-267.5 284.5,-286.5 348.5,-286.5 348.5,-267.5 284.5,-267.5"/>
<text text-anchor="middle" x="316.5" y="-274.5" font-family="Helvetica,sans-Serif" font-size="10.00">auxresume</text>
</a>
</g>
</g>
<!-- Node2&#45;&gt;Node25 -->
<g id="edge26" class="edge"><title>Node2&#45;&gt;Node25</title>
<path fill="none" stroke="midnightblue" d="M205.275,-380.336C232.454,-354.856 283.473,-307.025 305.238,-286.62"/>
<polygon fill="midnightblue" stroke="midnightblue" points="202.876,-377.787 197.975,-387.18 207.664,-382.894 202.876,-377.787"/>
</g>
<!-- Node29 -->
<g id="node29" class="node"><title>Node29</title>
<g id="a_node29"><a xlink:href="../../d0/da1/ltablib_8c.html#aab557c98c16305370f73c4c716f5725d" target="_top" xlink:title="unpack">
<polygon fill="none" stroke="black" points="292.5,-425.5 292.5,-444.5 340.5,-444.5 340.5,-425.5 292.5,-425.5"/>
<text text-anchor="middle" x="316.5" y="-432.5" font-family="Helvetica,sans-Serif" font-size="10.00">unpack</text>
</a>
</g>
</g>
<!-- Node2&#45;&gt;Node29 -->
<g id="edge30" class="edge"><title>Node2&#45;&gt;Node29</title>
<path fill="none" stroke="midnightblue" d="M229.45,-409.454C250.422,-415.68 274.992,-422.974 292.496,-428.171"/>
<polygon fill="midnightblue" stroke="midnightblue" points="230.382,-406.08 219.8,-406.589 228.39,-412.79 230.382,-406.08"/>
</g>
<!-- Node4 -->
<g id="node4" class="node"><title>Node4</title>
<g id="a_node4"><a xlink:href="../../de/df3/liolib_8c.html#addece2406777a40f0f591e3518293932" target="_top" xlink:title="g_read">
<polygon fill="none" stroke="black" points="437.5,-387.5 437.5,-406.5 483.5,-406.5 483.5,-387.5 437.5,-387.5"/>
<text text-anchor="middle" x="460.5" y="-394.5" font-family="Helvetica,sans-Serif" font-size="10.00">g_read</text>
</a>
</g>
</g>
<!-- Node3&#45;&gt;Node4 -->
<g id="edge3" class="edge"><title>Node3&#45;&gt;Node4</title>
<path fill="none" stroke="midnightblue" d="M369.846,-397C393.162,-397 419.367,-397 437.395,-397"/>
<polygon fill="midnightblue" stroke="midnightblue" points="369.72,-393.5 359.72,-397 369.72,-400.5 369.72,-393.5"/>
</g>
<!-- Node9 -->
<g id="node9" class="node"><title>Node9</title>
<g id="a_node9"><a xlink:href="../../d8/dd3/lbaselib_8c.html#ad467c787e381e8d18e4c7b46b4f1b05d" target="_top" xlink:title="generic_reader">
<polygon fill="none" stroke="black" points="422,-501.5 422,-520.5 499,-520.5 499,-501.5 422,-501.5"/>
<text text-anchor="middle" x="460.5" y="-508.5" font-family="Helvetica,sans-Serif" font-size="10.00">generic_reader</text>
</a>
</g>
</g>
<!-- Node3&#45;&gt;Node9 -->
<g id="edge8" class="edge"><title>Node3&#45;&gt;Node9</title>
<path fill="none" stroke="midnightblue" d="M364.469,-411.68C366.424,-413 368.281,-414.437 370,-416 397.655,-441.142 378.269,-466.941 406,-492 410.607,-496.163 416.187,-499.428 421.981,-501.985"/>
<polygon fill="midnightblue" stroke="midnightblue" points="365.837,-408.435 355.402,-406.603 362.417,-414.543 365.837,-408.435"/>
</g>
<!-- Node11 -->
<g id="node11" class="node"><title>Node11</title>
<g id="a_node11"><a xlink:href="../../da/d29/lauxlib_8h.html#a8750009b9bbc508e4c3818ebd15b4e14" target="_top" xlink:title="luaL_setfuncs">
<polygon fill="none" stroke="black" points="423,-349.5 423,-368.5 498,-368.5 498,-349.5 423,-349.5"/>
<text text-anchor="middle" x="460.5" y="-356.5" font-family="Helvetica,sans-Serif" font-size="10.00">luaL_setfuncs</text>
</a>
</g>
</g>
<!-- Node3&#45;&gt;Node11 -->
<g id="edge10" class="edge"><title>Node3&#45;&gt;Node11</title>
<path fill="none" stroke="midnightblue" d="M362.993,-384.826C382.628,-379.571 405.266,-373.513 423.679,-368.586"/>
<polygon fill="midnightblue" stroke="midnightblue" points="362.088,-381.445 353.333,-387.411 363.897,-388.207 362.088,-381.445"/>
</g>
<!-- Node15 -->
<g id="node15" class="node"><title>Node15</title>
<g id="a_node15"><a xlink:href="../../dc/d77/lstrlib_8c.html#ad14703c4bc40d7c1951dedb7bc7554f7" target="_top" xlink:title="push_captures">
<polygon fill="none" stroke="black" points="420.5,-273.5 420.5,-292.5 500.5,-292.5 500.5,-273.5 420.5,-273.5"/>
<text text-anchor="middle" x="460.5" y="-280.5" font-family="Helvetica,sans-Serif" font-size="10.00">push_captures</text>
</a>
</g>
</g>
<!-- Node3&#45;&gt;Node15 -->
<g id="edge14" class="edge"><title>Node3&#45;&gt;Node15</title>
<path fill="none" stroke="midnightblue" d="M337.688,-380.792C367.667,-356.725 423.032,-312.277 447.424,-292.695"/>
<polygon fill="midnightblue" stroke="midnightblue" points="335.214,-378.291 329.607,-387.28 339.596,-383.749 335.214,-378.291"/>
</g>
<!-- Node19 -->
<g id="node19" class="node"><title>Node19</title>
<g id="a_node19"><a xlink:href="../../d0/da1/ltablib_8c.html#ae7d3f892e2605bf102dce63de388e626" target="_top" xlink:title="sort">
<polygon fill="none" stroke="black" points="444.5,-425.5 444.5,-444.5 476.5,-444.5 476.5,-425.5 444.5,-425.5"/>
<text text-anchor="middle" x="460.5" y="-432.5" font-family="Helvetica,sans-Serif" font-size="10.00">sort</text>
</a>
</g>
</g>
<!-- Node3&#45;&gt;Node19 -->
<g id="edge18" class="edge"><title>Node3&#45;&gt;Node19</title>
<path fill="none" stroke="midnightblue" d="M363.332,-409.265C391.314,-416.753 425.286,-425.844 444.446,-430.972"/>
<polygon fill="midnightblue" stroke="midnightblue" points="363.897,-405.793 353.333,-406.589 362.088,-412.555 363.897,-405.793"/>
</g>
<!-- Node20 -->
<g id="node20" class="node"><title>Node20</title>
<g id="a_node20"><a xlink:href="../../dc/d77/lstrlib_8c.html#ae561770420cfd1894054415df9d4c423" target="_top" xlink:title="str_byte">
<polygon fill="none" stroke="black" points="435.5,-463.5 435.5,-482.5 485.5,-482.5 485.5,-463.5 435.5,-463.5"/>
<text text-anchor="middle" x="460.5" y="-470.5" font-family="Helvetica,sans-Serif" font-size="10.00">str_byte</text>
</a>
</g>
</g>
<!-- Node3&#45;&gt;Node20 -->
<g id="edge19" class="edge"><title>Node3&#45;&gt;Node20</title>
<path fill="none" stroke="midnightblue" d="M360.545,-410.662C363.838,-412.279 367.031,-414.056 370,-416 389.462,-428.746 386.5,-441.312 406,-454 414.923,-459.806 425.839,-464.094 435.478,-467.113"/>
<polygon fill="midnightblue" stroke="midnightblue" points="361.669,-407.333 351.105,-406.519 358.856,-413.743 361.669,-407.333"/>
</g>
<!-- Node5 -->
<g id="node5" class="node"><title>Node5</title>
<g id="a_node5"><a xlink:href="../../de/df3/liolib_8c.html#a45307aa59a628966c6ea270e9b476d9a" target="_top" xlink:title="io_read">
<polygon fill="none" stroke="black" points="584.5,-501.5 584.5,-520.5 631.5,-520.5 631.5,-501.5 584.5,-501.5"/>
<text text-anchor="middle" x="608" y="-508.5" font-family="Helvetica,sans-Serif" font-size="10.00">io_read</text>
</a>
</g>
</g>
<!-- Node4&#45;&gt;Node5 -->
<g id="edge4" class="edge"><title>Node4&#45;&gt;Node5</title>
<path fill="none" stroke="midnightblue" d="M493.272,-403.721C501.047,-406.526 508.881,-410.471 515,-416 542.731,-441.059 523.093,-467.138 551,-492 560.275,-500.263 573.293,-504.96 584.444,-507.615"/>
<polygon fill="midnightblue" stroke="midnightblue" points="494.177,-400.337 483.59,-400.744 492.119,-407.028 494.177,-400.337"/>
</g>
<!-- Node6 -->
<g id="node6" class="node"><title>Node6</title>
<g id="a_node6"><a xlink:href="../../de/df3/liolib_8c.html#add5250a74576076467531e4eb8f5f68e" target="_top" xlink:title="f_read">
<polygon fill="none" stroke="black" points="586.5,-463.5 586.5,-482.5 629.5,-482.5 629.5,-463.5 586.5,-463.5"/>
<text text-anchor="middle" x="608" y="-470.5" font-family="Helvetica,sans-Serif" font-size="10.00">f_read</text>
</a>
</g>
</g>
<!-- Node4&#45;&gt;Node6 -->
<g id="edge5" class="edge"><title>Node4&#45;&gt;Node6</title>
<path fill="none" stroke="midnightblue" d="M493.231,-405.499C500.695,-408.235 508.394,-411.702 515,-416 534.5,-428.688 531.411,-441.45 551,-454 561.72,-460.867 575.193,-465.54 586.238,-468.532"/>
<polygon fill="midnightblue" stroke="midnightblue" points="494.258,-402.153 483.665,-402.316 492.048,-408.795 494.258,-402.153"/>
</g>
<!-- Node7 -->
<g id="node7" class="node"><title>Node7</title>
<g id="a_node7"><a xlink:href="../../de/df3/liolib_8c.html#ac37d80ee2cc364b4adafcb6f7c20f28b" target="_top" xlink:title="io_readline">
<polygon fill="none" stroke="black" points="577.5,-425.5 577.5,-444.5 638.5,-444.5 638.5,-425.5 577.5,-425.5"/>
<text text-anchor="middle" x="608" y="-432.5" font-family="Helvetica,sans-Serif" font-size="10.00">io_readline</text>
</a>
</g>
</g>
<!-- Node4&#45;&gt;Node7 -->
<g id="edge6" class="edge"><title>Node4&#45;&gt;Node7</title>
<path fill="none" stroke="midnightblue" d="M493.343,-405.316C518.362,-411.851 552.944,-420.882 577.374,-427.263"/>
<polygon fill="midnightblue" stroke="midnightblue" points="494.158,-401.912 483.598,-402.771 492.389,-408.685 494.158,-401.912"/>
</g>
<!-- Node8 -->
<g id="node8" class="node"><title>Node8</title>
<g id="a_node8"><a xlink:href="../../de/df3/liolib_8c.html#a66325940a0248cee288153edb061c0c4" target="_top" xlink:title="aux_lines">
<polygon fill="none" stroke="red" points="702,-425.5 702,-444.5 759,-444.5 759,-425.5 702,-425.5"/>
<text text-anchor="middle" x="730.5" y="-432.5" font-family="Helvetica,sans-Serif" font-size="10.00">aux_lines</text>
</a>
</g>
</g>
<!-- Node7&#45;&gt;Node8 -->
<g id="edge7" class="edge"><title>Node7&#45;&gt;Node8</title>
<path fill="none" stroke="midnightblue" d="M649.144,-435C666.389,-435 686.116,-435 701.708,-435"/>
<polygon fill="midnightblue" stroke="midnightblue" points="648.787,-431.5 638.787,-435 648.786,-438.5 648.787,-431.5"/>
</g>
<!-- Node10 -->
<g id="node10" class="node"><title>Node10</title>
<g id="a_node10"><a xlink:href="../../d8/dd3/lbaselib_8c.html#a4a9a3613fcf80fe033e044f7e19bed69" target="_top" xlink:title="luaB_load">
<polygon fill="none" stroke="black" points="701,-805.5 701,-824.5 760,-824.5 760,-805.5 701,-805.5"/>
<text text-anchor="middle" x="730.5" y="-812.5" font-family="Helvetica,sans-Serif" font-size="10.00">luaB_load</text>
</a>
</g>
</g>
<!-- Node9&#45;&gt;Node10 -->
<g id="edge9" class="edge"><title>Node9&#45;&gt;Node10</title>
<path fill="none" stroke="midnightblue" d="M509.161,-521.671C565.799,-534.76 654.062,-556.61 665,-568 713.085,-618.075 683.018,-652.945 701,-720 709.43,-751.434 720.947,-788.234 726.398,-805.344"/>
<polygon fill="midnightblue" stroke="midnightblue" points="509.855,-518.239 499.325,-519.412 508.288,-525.061 509.855,-518.239"/>
</g>
<!-- Node12 -->
<g id="node12" class="node"><title>Node12</title>
<g id="a_node12"><a xlink:href="../../de/df3/liolib_8c.html#a2edb7e84ca2f51dafb5d77b9c81a804c" target="_top" xlink:title="createmeta">
<polygon fill="none" stroke="red" points="576.5,-387.5 576.5,-406.5 639.5,-406.5 639.5,-387.5 576.5,-387.5"/>
<text text-anchor="middle" x="608" y="-394.5" font-family="Helvetica,sans-Serif" font-size="10.00">createmeta</text>
</a>
</g>
</g>
<!-- Node11&#45;&gt;Node12 -->
<g id="edge11" class="edge"><title>Node11&#45;&gt;Node12</title>
<path fill="none" stroke="midnightblue" d="M508.146,-371.182C530.413,-376.998 556.441,-383.796 576.199,-388.956"/>
<polygon fill="midnightblue" stroke="midnightblue" points="508.776,-367.73 498.216,-368.589 507.007,-374.502 508.776,-367.73"/>
</g>
<!-- Node13 -->
<g id="node13" class="node"><title>Node13</title>
<g id="a_node13"><a xlink:href="../../d6/d07/lualib_8h.html#a1aebe7162861d1f3fe9c0d6d269031d4" target="_top" xlink:title="luaopen_base">
<polygon fill="none" stroke="black" points="568.5,-349.5 568.5,-368.5 647.5,-368.5 647.5,-349.5 568.5,-349.5"/>
<text text-anchor="middle" x="608" y="-356.5" font-family="Helvetica,sans-Serif" font-size="10.00">luaopen_base</text>
</a>
</g>
</g>
<!-- Node11&#45;&gt;Node13 -->
<g id="edge12" class="edge"><title>Node11&#45;&gt;Node13</title>
<path fill="none" stroke="midnightblue" d="M508.337,-359C527.686,-359 549.848,-359 568.259,-359"/>
<polygon fill="midnightblue" stroke="midnightblue" points="508.216,-355.5 498.216,-359 508.216,-362.5 508.216,-355.5"/>
</g>
<!-- Node14 -->
<g id="node14" class="node"><title>Node14</title>
<g id="a_node14"><a xlink:href="../../d6/d07/lualib_8h.html#a05e0befc0439f926b6152129ab4f8dea" target="_top" xlink:title="luaopen_package">
<polygon fill="none" stroke="black" points="561,-311.5 561,-330.5 655,-330.5 655,-311.5 561,-311.5"/>
<text text-anchor="middle" x="608" y="-318.5" font-family="Helvetica,sans-Serif" font-size="10.00">luaopen_package</text>
</a>
</g>
</g>
<!-- Node11&#45;&gt;Node14 -->
<g id="edge13" class="edge"><title>Node11&#45;&gt;Node14</title>
<path fill="none" stroke="midnightblue" d="M508.153,-346.816C528.353,-341.54 551.648,-335.456 570.548,-330.52"/>
<polygon fill="midnightblue" stroke="midnightblue" points="507.007,-343.498 498.216,-349.411 508.776,-350.27 507.007,-343.498"/>
</g>
<!-- Node16 -->
<g id="node16" class="node"><title>Node16</title>
<g id="a_node16"><a xlink:href="../../dc/d77/lstrlib_8c.html#a692514aa32ae2668683a4db15259d26b" target="_top" xlink:title="str_find_aux">
<polygon fill="none" stroke="red" points="574,-273.5 574,-292.5 642,-292.5 642,-273.5 574,-273.5"/>
<text text-anchor="middle" x="608" y="-280.5" font-family="Helvetica,sans-Serif" font-size="10.00">str_find_aux</text>
</a>
</g>
</g>
<!-- Node15&#45;&gt;Node16 -->
<g id="edge15" class="edge"><title>Node15&#45;&gt;Node16</title>
<path fill="none" stroke="midnightblue" d="M511.115,-283C531.868,-283 555.424,-283 573.995,-283"/>
<polygon fill="midnightblue" stroke="midnightblue" points="510.874,-279.5 500.874,-283 510.874,-286.5 510.874,-279.5"/>
</g>
<!-- Node17 -->
<g id="node17" class="node"><title>Node17</title>
<g id="a_node17"><a xlink:href="../../dc/d77/lstrlib_8c.html#ab7cb0ba6191e1aa9455f6522d3483a02" target="_top" xlink:title="gmatch_aux">
<polygon fill="none" stroke="red" points="573.5,-235.5 573.5,-254.5 642.5,-254.5 642.5,-235.5 573.5,-235.5"/>
<text text-anchor="middle" x="608" y="-242.5" font-family="Helvetica,sans-Serif" font-size="10.00">gmatch_aux</text>
</a>
</g>
</g>
<!-- Node15&#45;&gt;Node17 -->
<g id="edge16" class="edge"><title>Node15&#45;&gt;Node17</title>
<path fill="none" stroke="midnightblue" d="M508.005,-270.854C529.226,-265.312 553.888,-258.871 573.288,-253.805"/>
<polygon fill="midnightblue" stroke="midnightblue" points="507.007,-267.498 498.216,-273.411 508.776,-274.27 507.007,-267.498"/>
</g>
<!-- Node18 -->
<g id="node18" class="node"><title>Node18</title>
<g id="a_node18"><a xlink:href="../../dc/d77/lstrlib_8c.html#ad24cfa73e5ad25ec99a1b48f0916471e" target="_top" xlink:title="add_value">
<polygon fill="none" stroke="red" points="577,-197.5 577,-216.5 639,-216.5 639,-197.5 577,-197.5"/>
<text text-anchor="middle" x="608" y="-204.5" font-family="Helvetica,sans-Serif" font-size="10.00">add_value</text>
</a>
</g>
</g>
<!-- Node15&#45;&gt;Node18 -->
<g id="edge17" class="edge"><title>Node15&#45;&gt;Node18</title>
<path fill="none" stroke="midnightblue" d="M505.208,-269.468C508.619,-267.818 511.928,-265.999 515,-264 534.5,-251.312 531.411,-238.55 551,-226 558.78,-221.016 568.011,-217.188 576.712,-214.319"/>
<polygon fill="midnightblue" stroke="midnightblue" points="503.813,-266.257 496.029,-273.444 506.596,-272.68 503.813,-266.257"/>
</g>
<!-- Node22 -->
<g id="node22" class="node"><title>Node22</title>
<g id="a_node22"><a xlink:href="../../d8/dd3/lbaselib_8c.html#a1fb2725eed679431d070b2e9e7abc223" target="_top" xlink:title="luaB_pcall">
<polygon fill="none" stroke="black" points="577.5,-577.5 577.5,-596.5 638.5,-596.5 638.5,-577.5 577.5,-577.5"/>
<text text-anchor="middle" x="608" y="-584.5" font-family="Helvetica,sans-Serif" font-size="10.00">luaB_pcall</text>
</a>
</g>
</g>
<!-- Node21&#45;&gt;Node22 -->
<g id="edge21" class="edge"><title>Node21&#45;&gt;Node22</title>
<path fill="none" stroke="midnightblue" d="M355.125,-565.733C394.948,-563.862 459.577,-562.337 515,-568 536.092,-570.155 559.487,-575.021 577.407,-579.289"/>
<polygon fill="midnightblue" stroke="midnightblue" points="354.879,-562.24 345.067,-566.237 355.23,-569.232 354.879,-562.24"/>
</g>
<!-- Node23 -->
<g id="node23" class="node"><title>Node23</title>
<g id="a_node23"><a xlink:href="../../d8/dd3/lbaselib_8c.html#a5fbb0094fa1a56f0a4c2547f1ec4c5ab" target="_top" xlink:title="luaB_xpcall">
<polygon fill="none" stroke="black" points="575,-615.5 575,-634.5 641,-634.5 641,-615.5 575,-615.5"/>
<text text-anchor="middle" x="608" y="-622.5" font-family="Helvetica,sans-Serif" font-size="10.00">luaB_xpcall</text>
</a>
</g>
</g>
<!-- Node21&#45;&gt;Node23 -->
<g id="edge22" class="edge"><title>Node21&#45;&gt;Node23</title>
<path fill="none" stroke="midnightblue" d="M331.039,-585.368C346.745,-603.959 374.544,-632.347 406,-644 465.656,-666.1 541.756,-647.312 580.997,-634.506"/>
<polygon fill="midnightblue" stroke="midnightblue" points="333.74,-583.143 324.704,-577.612 328.319,-587.571 333.74,-583.143"/>
</g>
<!-- Node24 -->
<g id="node24" class="node"><title>Node24</title>
<g id="a_node24"><a xlink:href="../../d8/dd3/lbaselib_8c.html#a5c3f578f609d0b87ba75dc1d32287262" target="_top" xlink:title="pcallcont">
<polygon fill="none" stroke="black" points="434,-577.5 434,-596.5 487,-596.5 487,-577.5 434,-577.5"/>
<text text-anchor="middle" x="460.5" y="-584.5" font-family="Helvetica,sans-Serif" font-size="10.00">pcallcont</text>
</a>
</g>
</g>
<!-- Node21&#45;&gt;Node24 -->
<g id="edge23" class="edge"><title>Node21&#45;&gt;Node24</title>
<path fill="none" stroke="midnightblue" d="M355.364,-573.066C380.149,-576.383 411.879,-580.628 433.766,-583.557"/>
<polygon fill="midnightblue" stroke="midnightblue" points="355.592,-569.566 345.216,-571.708 354.664,-576.504 355.592,-569.566"/>
</g>
<!-- Node24&#45;&gt;Node22 -->
<g id="edge24" class="edge"><title>Node24&#45;&gt;Node22</title>
<path fill="none" stroke="midnightblue" d="M497.201,-587C521.806,-587 554.124,-587 577.317,-587"/>
<polygon fill="midnightblue" stroke="midnightblue" points="497.178,-583.5 487.178,-587 497.178,-590.5 497.178,-583.5"/>
</g>
<!-- Node24&#45;&gt;Node23 -->
<g id="edge25" class="edge"><title>Node24&#45;&gt;Node23</title>
<path fill="none" stroke="midnightblue" d="M496.895,-596.244C520.72,-602.466 551.882,-610.605 574.971,-616.635"/>
<polygon fill="midnightblue" stroke="midnightblue" points="497.737,-592.847 487.178,-593.706 495.969,-599.62 497.737,-592.847"/>
</g>
<!-- Node26 -->
<g id="node26" class="node"><title>Node26</title>
<g id="a_node26"><a xlink:href="../../df/d2d/lcorolib_8c.html#a777abb20385a69ce4787f72bd90375a7" target="_top" xlink:title="luaB_auxwrap">
<polygon fill="none" stroke="black" points="420.5,-235.5 420.5,-254.5 500.5,-254.5 500.5,-235.5 420.5,-235.5"/>
<text text-anchor="middle" x="460.5" y="-242.5" font-family="Helvetica,sans-Serif" font-size="10.00">luaB_auxwrap</text>
</a>
</g>
</g>
<!-- Node25&#45;&gt;Node26 -->
<g id="edge27" class="edge"><title>Node25&#45;&gt;Node26</title>
<path fill="none" stroke="midnightblue" d="M358.459,-267.77C377.913,-263.386 401.057,-258.17 420.282,-253.838"/>
<polygon fill="midnightblue" stroke="midnightblue" points="357.648,-264.365 348.663,-269.977 359.187,-271.193 357.648,-264.365"/>
</g>
<!-- Node28 -->
<g id="node28" class="node"><title>Node28</title>
<g id="a_node28"><a xlink:href="../../df/d2d/lcorolib_8c.html#a76f5d80387eeb1c7d31eb5f9cb6c9392" target="_top" xlink:title="luaB_coresume">
<polygon fill="none" stroke="black" points="419.5,-197.5 419.5,-216.5 501.5,-216.5 501.5,-197.5 419.5,-197.5"/>
<text text-anchor="middle" x="460.5" y="-204.5" font-family="Helvetica,sans-Serif" font-size="10.00">luaB_coresume</text>
</a>
</g>
</g>
<!-- Node25&#45;&gt;Node28 -->
<g id="edge29" class="edge"><title>Node25&#45;&gt;Node28</title>
<path fill="none" stroke="midnightblue" d="M341.007,-261.882C358.491,-251.031 383.173,-236.525 406,-226 413.519,-222.533 421.864,-219.296 429.683,-216.511"/>
<polygon fill="midnightblue" stroke="midnightblue" points="338.696,-259.201 332.092,-267.486 342.421,-265.127 338.696,-259.201"/>
</g>
<!-- Node27 -->
<g id="node27" class="node"><title>Node27</title>
<g id="a_node27"><a xlink:href="../../df/d2d/lcorolib_8c.html#a1c0429e27f504b08e25f437f733edad1" target="_top" xlink:title="luaB_cowrap">
<polygon fill="none" stroke="black" points="571,-159.5 571,-178.5 645,-178.5 645,-159.5 571,-159.5"/>
<text text-anchor="middle" x="608" y="-166.5" font-family="Helvetica,sans-Serif" font-size="10.00">luaB_cowrap</text>
</a>
</g>
</g>
<!-- Node26&#45;&gt;Node27 -->
<g id="edge28" class="edge"><title>Node26&#45;&gt;Node27</title>
<path fill="none" stroke="midnightblue" d="M505.208,-231.468C508.619,-229.818 511.928,-227.999 515,-226 534.5,-213.312 531.411,-200.55 551,-188 557.051,-184.123 563.98,-180.946 570.855,-178.376"/>
<polygon fill="midnightblue" stroke="midnightblue" points="503.813,-228.257 496.029,-235.444 506.596,-234.68 503.813,-228.257"/>
</g>
<!-- Node31 -->
<g id="node31" class="node"><title>Node31</title>
<g id="a_node31"><a xlink:href="../../da/d29/lauxlib_8h.html#a7d8712fcede90ae93d5a9a7b409c586e" target="_top" xlink:title="luaL_newstate">
<polygon fill="none" stroke="black" points="276.5,-119.5 276.5,-138.5 356.5,-138.5 356.5,-119.5 276.5,-119.5"/>
<text text-anchor="middle" x="316.5" y="-126.5" font-family="Helvetica,sans-Serif" font-size="10.00">luaL_newstate</text>
</a>
</g>
</g>
<!-- Node30&#45;&gt;Node31 -->
<g id="edge32" class="edge"><title>Node30&#45;&gt;Node31</title>
<path fill="none" stroke="midnightblue" d="M233.753,-116.866C247.726,-118.94 262.924,-121.196 276.384,-123.194"/>
<polygon fill="midnightblue" stroke="midnightblue" points="234.243,-113.4 223.837,-115.394 233.215,-120.324 234.243,-113.4"/>
</g>
<!-- Node36 -->
<g id="node36" class="node"><title>Node36</title>
<g id="a_node36"><a xlink:href="../../dd/dca/lstate_8c.html#a8a0fc0aca5367250347c6bb6a788f05f" target="_top" xlink:title="makeseed">
<polygon fill="none" stroke="black" points="286,-81.5 286,-100.5 347,-100.5 347,-81.5 286,-81.5"/>
<text text-anchor="middle" x="316.5" y="-88.5" font-family="Helvetica,sans-Serif" font-size="10.00">makeseed</text>
</a>
</g>
</g>
<!-- Node30&#45;&gt;Node36 -->
<g id="edge37" class="edge"><title>Node30&#45;&gt;Node36</title>
<path fill="none" stroke="midnightblue" d="M223.843,-98.4501C243.471,-94.6381 267.396,-91.2062 285.88,-89.6"/>
<polygon fill="midnightblue" stroke="midnightblue" points="223.111,-95.0271 214.022,-100.47 224.522,-101.884 223.111,-95.0271"/>
</g>
<!-- Node32 -->
<g id="node32" class="node"><title>Node32</title>
<g id="a_node32"><a xlink:href="../../dc/de7/interface_kensho_lua_wrapper.html#a7d10aa0242861cdd109d3da9383882a2" target="_top" xlink:title="&#45;[KenshoLuaWrapper\l evaluate]">
<polygon fill="none" stroke="black" points="406,-86 406,-116 515,-116 515,-86 406,-86"/>
<text text-anchor="start" x="414" y="-104" font-family="Helvetica,sans-Serif" font-size="10.00">&#45;[KenshoLuaWrapper</text>
<text text-anchor="middle" x="460.5" y="-93" font-family="Helvetica,sans-Serif" font-size="10.00"> evaluate]</text>
</a>
</g>
</g>
<!-- Node31&#45;&gt;Node32 -->
<g id="edge33" class="edge"><title>Node31&#45;&gt;Node32</title>
<path fill="none" stroke="midnightblue" d="M366.58,-119.322C379.247,-116.824 392.947,-114.123 405.834,-111.582"/>
<polygon fill="midnightblue" stroke="midnightblue" points="365.812,-115.906 356.678,-121.275 367.166,-122.774 365.812,-115.906"/>
</g>
<!-- Node33 -->
<g id="node33" class="node"><title>Node33</title>
<g id="a_node33"><a xlink:href="../../dc/de7/interface_kensho_lua_wrapper.html#af6db46358f8858a18b55388aa3af211d" target="_top" xlink:title="&#45;[KenshoLuaWrapper\l initWithKensho:context\l:code:]">
<polygon fill="none" stroke="black" points="551,-0.5 551,-41.5 665,-41.5 665,-0.5 551,-0.5"/>
<text text-anchor="start" x="559" y="-29.5" font-family="Helvetica,sans-Serif" font-size="10.00">&#45;[KenshoLuaWrapper</text>
<text text-anchor="start" x="559" y="-18.5" font-family="Helvetica,sans-Serif" font-size="10.00"> initWithKensho:context</text>
<text text-anchor="middle" x="608" y="-7.5" font-family="Helvetica,sans-Serif" font-size="10.00">:code:]</text>
</a>
</g>
</g>
<!-- Node32&#45;&gt;Node33 -->
<g id="edge34" class="edge"><title>Node32&#45;&gt;Node33</title>
<path fill="none" stroke="midnightblue" d="M496.81,-81.0853C513.246,-71.864 533.083,-60.8031 551,-51 556.612,-47.9295 562.556,-44.7104 568.392,-41.5677"/>
<polygon fill="midnightblue" stroke="midnightblue" points="495.066,-78.0501 488.062,-85.9994 498.495,-84.153 495.066,-78.0501"/>
</g>
<!-- Node34 -->
<g id="node34" class="node"><title>Node34</title>
<g id="a_node34"><a xlink:href="../../dc/de7/interface_kensho_lua_wrapper.html#a5555e0979799446611baee70104555c6" target="_top" xlink:title="&#45;[KenshoLuaWrapper\l evaluate:]">
<polygon fill="none" stroke="red" points="553.5,-110 553.5,-140 662.5,-140 662.5,-110 553.5,-110"/>
<text text-anchor="start" x="561.5" y="-128" font-family="Helvetica,sans-Serif" font-size="10.00">&#45;[KenshoLuaWrapper</text>
<text text-anchor="middle" x="608" y="-117" font-family="Helvetica,sans-Serif" font-size="10.00"> evaluate:]</text>
</a>
</g>
</g>
<!-- Node32&#45;&gt;Node34 -->
<g id="edge35" class="edge"><title>Node32&#45;&gt;Node34</title>
<path fill="none" stroke="midnightblue" d="M525.339,-111.53C534.723,-113.078 544.307,-114.659 553.456,-116.168"/>
<polygon fill="midnightblue" stroke="midnightblue" points="525.702,-108.043 515.265,-109.869 524.562,-114.949 525.702,-108.043"/>
</g>
<!-- Node35 -->
<g id="node35" class="node"><title>Node35</title>
<g id="a_node35"><a xlink:href="../../dc/de7/interface_kensho_lua_wrapper.html#a0bb5e125d727942726d707f8b59009dc" target="_top" xlink:title="&#45;[KenshoLuaWrapper\l observableUpdated:]">
<polygon fill="none" stroke="black" points="553.5,-61 553.5,-91 662.5,-91 662.5,-61 553.5,-61"/>
<text text-anchor="start" x="561.5" y="-79" font-family="Helvetica,sans-Serif" font-size="10.00">&#45;[KenshoLuaWrapper</text>
<text text-anchor="middle" x="608" y="-68" font-family="Helvetica,sans-Serif" font-size="10.00"> observableUpdated:]</text>
</a>
</g>
</g>
<!-- Node32&#45;&gt;Node35 -->
<g id="edge36" class="edge"><title>Node32&#45;&gt;Node35</title>
<path fill="none" stroke="midnightblue" d="M525.339,-90.0311C534.723,-88.4188 544.307,-86.7719 553.456,-85.2001"/>
<polygon fill="midnightblue" stroke="midnightblue" points="524.528,-86.619 515.265,-91.762 525.714,-93.5179 524.528,-86.619"/>
</g>
<!-- Node36&#45;&gt;Node30 -->
<g id="edge38" class="edge"><title>Node36&#45;&gt;Node30</title>
<path fill="none" stroke="midnightblue" d="M278.6,-102.658C261.391,-105.98 240.975,-109.002 223.837,-110.761"/>
<polygon fill="midnightblue" stroke="midnightblue" points="279.748,-105.995 288.842,-100.559 278.343,-99.1378 279.748,-105.995"/>
</g>
<!-- Node37&#45;&gt;Node25 -->
<g id="edge40" class="edge"><title>Node37&#45;&gt;Node25</title>
<path fill="none" stroke="midnightblue" d="M229.06,-295.233C246.994,-291.451 267.619,-287.1 284.224,-283.597"/>
<polygon fill="midnightblue" stroke="midnightblue" points="228.203,-291.837 219.14,-297.326 229.648,-298.686 228.203,-291.837"/>
</g>
<!-- Node39 -->
<g id="node39" class="node"><title>Node39</title>
<g id="a_node39"><a xlink:href="../../de/d27/lgc_8c.html#ab9ec6b56580b9e66f41743e393e7e033" target="_top" xlink:title="GCTM">
<polygon fill="none" stroke="black" points="293.5,-691.5 293.5,-710.5 339.5,-710.5 339.5,-691.5 293.5,-691.5"/>
<text text-anchor="middle" x="316.5" y="-698.5" font-family="Helvetica,sans-Serif" font-size="10.00">GCTM</text>
</a>
</g>
</g>
<!-- Node38&#45;&gt;Node39 -->
<g id="edge42" class="edge"><title>Node38&#45;&gt;Node39</title>
<path fill="none" stroke="midnightblue" d="M227.449,-681.051C249.154,-685.969 275.178,-691.865 293.281,-695.966"/>
<polygon fill="midnightblue" stroke="midnightblue" points="228.037,-677.595 217.51,-678.799 226.49,-684.422 228.037,-677.595"/>
</g>
<!-- Node46 -->
<g id="node46" class="node"><title>Node46</title>
<g id="a_node46"><a xlink:href="../../da/dd2/lua_8h.html#a3c4de08aa665eaee4aabd330aa99a441" target="_top" xlink:title="lua_pcallk">
<polygon fill="none" stroke="black" points="431,-615.5 431,-634.5 490,-634.5 490,-615.5 431,-615.5"/>
<text text-anchor="middle" x="460.5" y="-622.5" font-family="Helvetica,sans-Serif" font-size="10.00">lua_pcallk</text>
</a>
</g>
</g>
<!-- Node38&#45;&gt;Node46 -->
<g id="edge50" class="edge"><title>Node38&#45;&gt;Node46</title>
<path fill="none" stroke="midnightblue" d="M227.834,-665.031C283.43,-655.424 382.241,-638.35 430.861,-629.949"/>
<polygon fill="midnightblue" stroke="midnightblue" points="226.906,-661.639 217.648,-666.791 228.098,-668.537 226.906,-661.639"/>
</g>
<!-- Node47 -->
<g id="node47" class="node"><title>Node47</title>
<g id="a_node47"><a xlink:href="../../d2/dd9/ldo_8h.html#a5dffa85d966f14d3f3464db580f5b3fa" target="_top" xlink:title="luaD_protectedparser">
<polygon fill="none" stroke="black" points="263,-776.5 263,-795.5 370,-795.5 370,-776.5 263,-776.5"/>
<text text-anchor="middle" x="316.5" y="-783.5" font-family="Helvetica,sans-Serif" font-size="10.00">luaD_protectedparser</text>
</a>
</g>
</g>
<!-- Node38&#45;&gt;Node47 -->
<g id="edge53" class="edge"><title>Node38&#45;&gt;Node47</title>
<path fill="none" stroke="midnightblue" d="M206.047,-688.519C233.149,-712.656 282.722,-756.807 304.614,-776.305"/>
<polygon fill="midnightblue" stroke="midnightblue" points="208.209,-685.757 198.413,-681.72 203.553,-690.984 208.209,-685.757"/>
</g>
<!-- Node40 -->
<g id="node40" class="node"><title>Node40</title>
<g id="a_node40"><a xlink:href="../../de/d27/lgc_8c.html#a74f50e6006422d43686521fe765152dd" target="_top" xlink:title="callallpendingfinalizers">
<polygon fill="none" stroke="black" points="406,-729.5 406,-748.5 515,-748.5 515,-729.5 406,-729.5"/>
<text text-anchor="middle" x="460.5" y="-736.5" font-family="Helvetica,sans-Serif" font-size="10.00">callallpendingfinalizers</text>
</a>
</g>
</g>
<!-- Node39&#45;&gt;Node40 -->
<g id="edge43" class="edge"><title>Node39&#45;&gt;Node40</title>
<path fill="none" stroke="midnightblue" d="M349.592,-709.588C371.709,-715.507 401.113,-723.375 423.942,-729.485"/>
<polygon fill="midnightblue" stroke="midnightblue" points="350.252,-706.142 339.688,-706.938 348.443,-712.904 350.252,-706.142"/>
</g>
<!-- Node44 -->
<g id="node44" class="node"><title>Node44</title>
<g id="a_node44"><a xlink:href="../../dc/d9c/lgc_8h.html#a19359957605d7c8eaf70803e5b77361f" target="_top" xlink:title="luaC_forcestep">
<polygon fill="none" stroke="black" points="420.5,-691.5 420.5,-710.5 500.5,-710.5 500.5,-691.5 420.5,-691.5"/>
<text text-anchor="middle" x="460.5" y="-698.5" font-family="Helvetica,sans-Serif" font-size="10.00">luaC_forcestep</text>
</a>
</g>
</g>
<!-- Node39&#45;&gt;Node44 -->
<g id="edge47" class="edge"><title>Node39&#45;&gt;Node44</title>
<path fill="none" stroke="midnightblue" d="M349.693,-701C370.645,-701 398.104,-701 420.322,-701"/>
<polygon fill="midnightblue" stroke="midnightblue" points="349.688,-697.5 339.688,-701 349.687,-704.5 349.688,-697.5"/>
</g>
<!-- Node41 -->
<g id="node41" class="node"><title>Node41</title>
<g id="a_node41"><a xlink:href="../../dc/d9c/lgc_8h.html#a9aa52a500c9cc2076edb1707e6d8a045" target="_top" xlink:title="luaC_freeallobjects">
<polygon fill="none" stroke="red" points="559.5,-767.5 559.5,-786.5 656.5,-786.5 656.5,-767.5 559.5,-767.5"/>
<text text-anchor="middle" x="608" y="-774.5" font-family="Helvetica,sans-Serif" font-size="10.00">luaC_freeallobjects</text>
</a>
</g>
</g>
<!-- Node40&#45;&gt;Node41 -->
<g id="edge44" class="edge"><title>Node40&#45;&gt;Node41</title>
<path fill="none" stroke="midnightblue" d="M508.153,-751.184C528.353,-756.46 551.648,-762.544 570.548,-767.48"/>
<polygon fill="midnightblue" stroke="midnightblue" points="508.776,-747.73 498.216,-748.589 507.007,-754.502 508.776,-747.73"/>
</g>
<!-- Node42 -->
<g id="node42" class="node"><title>Node42</title>
<g id="a_node42"><a xlink:href="../../dc/d9c/lgc_8h.html#aa0b753c3ed80e1eed0379ec58592c404" target="_top" xlink:title="luaC_fullgc">
<polygon fill="none" stroke="red" points="577,-729.5 577,-748.5 639,-748.5 639,-729.5 577,-729.5"/>
<text text-anchor="middle" x="608" y="-736.5" font-family="Helvetica,sans-Serif" font-size="10.00">luaC_fullgc</text>
</a>
</g>
</g>
<!-- Node40&#45;&gt;Node42 -->
<g id="edge45" class="edge"><title>Node40&#45;&gt;Node42</title>
<path fill="none" stroke="midnightblue" d="M525.611,-739C543.375,-739 561.835,-739 576.676,-739"/>
<polygon fill="midnightblue" stroke="midnightblue" points="525.265,-735.5 515.265,-739 525.265,-742.5 525.265,-735.5"/>
</g>
<!-- Node43 -->
<g id="node43" class="node"><title>Node43</title>
<g id="a_node43"><a xlink:href="../../da/dd2/lua_8h.html#a6bac487d3f900b21271e8c591bd801cd" target="_top" xlink:title="lua_gc">
<polygon fill="none" stroke="red" points="708.5,-691.5 708.5,-710.5 752.5,-710.5 752.5,-691.5 708.5,-691.5"/>
<text text-anchor="middle" x="730.5" y="-698.5" font-family="Helvetica,sans-Serif" font-size="10.00">lua_gc</text>
</a>
</g>
</g>
<!-- Node42&#45;&gt;Node43 -->
<g id="edge46" class="edge"><title>Node42&#45;&gt;Node43</title>
<path fill="none" stroke="midnightblue" d="M648.854,-726.432C668.772,-720.151 692.063,-712.806 708.479,-707.629"/>
<polygon fill="midnightblue" stroke="midnightblue" points="647.581,-723.163 639.096,-729.509 649.686,-729.839 647.581,-723.163"/>
</g>
<!-- Node44&#45;&gt;Node43 -->
<g id="edge48" class="edge"><title>Node44&#45;&gt;Node43</title>
<path fill="none" stroke="midnightblue" d="M507.6,-689.289C521.457,-686.292 536.762,-683.495 551,-682 601.39,-676.71 614.852,-674.768 665,-682 679.789,-684.133 695.914,-688.883 708.342,-693.1"/>
<polygon fill="midnightblue" stroke="midnightblue" points="506.791,-685.883 497.802,-691.491 508.326,-692.713 506.791,-685.883"/>
</g>
<!-- Node45 -->
<g id="node45" class="node"><title>Node45</title>
<g id="a_node45"><a xlink:href="../../dc/d9c/lgc_8h.html#a6c71cc4b9e503c0e96c0c4ffcff93900" target="_top" xlink:title="luaC_step">
<polygon fill="none" stroke="black" points="577.5,-691.5 577.5,-710.5 638.5,-710.5 638.5,-691.5 577.5,-691.5"/>
<text text-anchor="middle" x="608" y="-698.5" font-family="Helvetica,sans-Serif" font-size="10.00">luaC_step</text>
</a>
</g>
</g>
<!-- Node44&#45;&gt;Node45 -->
<g id="edge49" class="edge"><title>Node44&#45;&gt;Node45</title>
<path fill="none" stroke="midnightblue" d="M511.059,-701C533.074,-701 558.253,-701 577.291,-701"/>
<polygon fill="midnightblue" stroke="midnightblue" points="510.874,-697.5 500.874,-701 510.874,-704.5 510.874,-697.5"/>
</g>
<!-- Node46&#45;&gt;Node22 -->
<g id="edge51" class="edge"><title>Node46&#45;&gt;Node22</title>
<path fill="none" stroke="midnightblue" d="M500.172,-614.9C524.361,-608.583 555.044,-600.569 577.315,-594.753"/>
<polygon fill="midnightblue" stroke="midnightblue" points="499.037,-611.579 490.246,-617.492 500.806,-618.352 499.037,-611.579"/>
</g>
<!-- Node46&#45;&gt;Node23 -->
<g id="edge52" class="edge"><title>Node46&#45;&gt;Node23</title>
<path fill="none" stroke="midnightblue" d="M500.458,-625C523.691,-625 552.836,-625 574.768,-625"/>
<polygon fill="midnightblue" stroke="midnightblue" points="500.246,-621.5 490.246,-625 500.246,-628.5 500.246,-621.5"/>
</g>
<!-- Node48 -->
<g id="node48" class="node"><title>Node48</title>
<g id="a_node48"><a xlink:href="../../da/dd2/lua_8h.html#a3f4c1ed5e0bd437dc527d62c5768b463" target="_top" xlink:title="lua_load">
<polygon fill="none" stroke="black" points="434,-824.5 434,-843.5 487,-843.5 487,-824.5 434,-824.5"/>
<text text-anchor="middle" x="460.5" y="-831.5" font-family="Helvetica,sans-Serif" font-size="10.00">lua_load</text>
</a>
</g>
</g>
<!-- Node47&#45;&gt;Node48 -->
<g id="edge54" class="edge"><title>Node47&#45;&gt;Node48</title>
<path fill="none" stroke="midnightblue" d="M355.658,-798.898C380.316,-807.234 411.753,-817.86 433.545,-825.227"/>
<polygon fill="midnightblue" stroke="midnightblue" points="356.489,-795.485 345.895,-795.598 354.247,-802.116 356.489,-795.485"/>
</g>
<!-- Node48&#45;&gt;Node10 -->
<g id="edge58" class="edge"><title>Node48&#45;&gt;Node10</title>
<path fill="none" stroke="midnightblue" d="M497.285,-831.463C550.984,-827.656 651.355,-820.54 700.662,-817.044"/>
<polygon fill="midnightblue" stroke="midnightblue" points="496.924,-827.98 487.197,-832.178 497.419,-834.962 496.924,-827.98"/>
</g>
<!-- Node49 -->
<g id="node49" class="node"><title>Node49</title>
<g id="a_node49"><a xlink:href="../../da/d29/lauxlib_8h.html#a8c38c6dcf9db7e110e525b46742bacf8" target="_top" xlink:title="luaL_loadfilex">
<polygon fill="none" stroke="red" points="571,-881.5 571,-900.5 645,-900.5 645,-881.5 571,-881.5"/>
<text text-anchor="middle" x="608" y="-888.5" font-family="Helvetica,sans-Serif" font-size="10.00">luaL_loadfilex</text>
</a>
</g>
</g>
<!-- Node48&#45;&gt;Node49 -->
<g id="edge55" class="edge"><title>Node48&#45;&gt;Node49</title>
<path fill="none" stroke="midnightblue" d="M492.174,-847.692C509.347,-855.188 531.222,-864.458 551,-872 559.538,-875.256 568.907,-878.544 577.499,-881.449"/>
<polygon fill="midnightblue" stroke="midnightblue" points="493.221,-844.329 482.658,-843.509 490.404,-850.737 493.221,-844.329"/>
</g>
<!-- Node50 -->
<g id="node50" class="node"><title>Node50</title>
<g id="a_node50"><a xlink:href="../../da/d29/lauxlib_8h.html#a3ab1955dd9322cf03e2d3626ebfae669" target="_top" xlink:title="luaL_loadbufferx">
<polygon fill="none" stroke="black" points="565,-843.5 565,-862.5 651,-862.5 651,-843.5 565,-843.5"/>
<text text-anchor="middle" x="608" y="-850.5" font-family="Helvetica,sans-Serif" font-size="10.00">luaL_loadbufferx</text>
</a>
</g>
</g>
<!-- Node48&#45;&gt;Node50 -->
<g id="edge56" class="edge"><title>Node48&#45;&gt;Node50</title>
<path fill="none" stroke="midnightblue" d="M497.314,-838.677C517.715,-841.341 543.39,-844.694 564.77,-847.485"/>
<polygon fill="midnightblue" stroke="midnightblue" points="497.547,-835.177 487.178,-837.353 496.64,-842.119 497.547,-835.177"/>
</g>
<!-- Node50&#45;&gt;Node10 -->
<g id="edge57" class="edge"><title>Node50&#45;&gt;Node10</title>
<path fill="none" stroke="midnightblue" d="M649.045,-840.372C665.966,-835.035 685.292,-828.941 700.762,-824.063"/>
<polygon fill="midnightblue" stroke="midnightblue" points="647.892,-837.065 639.407,-843.411 649.997,-843.741 647.892,-837.065"/>
</g>
</g>
</svg>
