<?xml version="1.0" encoding="UTF-8" standalone="no"?>
<!DOCTYPE svg PUBLIC "-//W3C//DTD SVG 1.1//EN"
 "http://www.w3.org/Graphics/SVG/1.1/DTD/svg11.dtd">
<!-- Generated by graphviz version 2.38.0 (20140413.2041)
 -->
<!-- Title: luaV_execute Pages: 1 -->
<svg width="791pt" height="1176pt"
 viewBox="0.00 0.00 791.00 1176.00" xmlns="http://www.w3.org/2000/svg" xmlns:xlink="http://www.w3.org/1999/xlink">
<g id="graph0" class="graph" transform="scale(1 1) rotate(0) translate(4 1172)">
<title>luaV_execute</title>
<!-- Node1 -->
<g id="node1" class="node"><title>Node1</title>
<polygon fill="#bfbfbf" stroke="black" points="0,-351.5 0,-370.5 74,-370.5 74,-351.5 0,-351.5"/>
<text text-anchor="middle" x="37" y="-358.5" font-family="Helvetica,sans-Serif" font-size="10.00">luaV_execute</text>
</g>
<!-- Node2 -->
<g id="node2" class="node"><title>Node2</title>
<g id="a_node2"><a xlink:href="../../d2/dd9/ldo_8h.html#a7bb0b106d4012134156e0fa240f51228" target="_top" xlink:title="luaD_call">
<polygon fill="none" stroke="black" points="110,-825.5 110,-844.5 166,-844.5 166,-825.5 110,-825.5"/>
<text text-anchor="middle" x="138" y="-832.5" font-family="Helvetica,sans-Serif" font-size="10.00">luaD_call</text>
</a>
</g>
</g>
<!-- Node1&#45;&gt;Node2 -->
<g id="edge1" class="edge"><title>Node1&#45;&gt;Node2</title>
<path fill="none" stroke="midnightblue" d="M40.2184,-381.088C46.5165,-440.826 66.9079,-620.572 110,-764 116.689,-786.263 129.182,-811.177 134.5,-825.487"/>
<polygon fill="midnightblue" stroke="midnightblue" points="43.6625,-380.37 39.1441,-370.787 36.7003,-381.096 43.6625,-380.37"/>
</g>
<!-- Node46 -->
<g id="node46" class="node"><title>Node46</title>
<g id="a_node46"><a xlink:href="../../d3/d08/ldo_8c.html#abd7632c715de5db6e7797b7fa3f7010f" target="_top" xlink:title="resume">
<polygon fill="none" stroke="black" points="217.5,-123.5 217.5,-142.5 264.5,-142.5 264.5,-123.5 217.5,-123.5"/>
<text text-anchor="middle" x="241" y="-130.5" font-family="Helvetica,sans-Serif" font-size="10.00">resume</text>
</a>
</g>
</g>
<!-- Node1&#45;&gt;Node46 -->
<g id="edge64" class="edge"><title>Node1&#45;&gt;Node46</title>
<path fill="none" stroke="midnightblue" d="M38.4079,-341.054C40.4352,-298.857 51.5373,-200.456 110,-152 140.381,-126.819 189.069,-126.995 217.446,-129.756"/>
<polygon fill="midnightblue" stroke="midnightblue" points="34.9061,-341.044 38.0496,-351.161 41.9018,-341.292 34.9061,-341.044"/>
</g>
<!-- Node50 -->
<g id="node50" class="node"><title>Node50</title>
<g id="a_node50"><a xlink:href="../../d3/d08/ldo_8c.html#a3baab9d298c0c32cb74a9a079d7244de" target="_top" xlink:title="unroll">
<polygon fill="none" stroke="black" points="119,-161.5 119,-180.5 157,-180.5 157,-161.5 119,-161.5"/>
<text text-anchor="middle" x="138" y="-168.5" font-family="Helvetica,sans-Serif" font-size="10.00">unroll</text>
</a>
</g>
</g>
<!-- Node1&#45;&gt;Node50 -->
<g id="edge69" class="edge"><title>Node1&#45;&gt;Node50</title>
<path fill="none" stroke="midnightblue" d="M47.6729,-342.436C68.3142,-302.821 116.078,-211.152 131.846,-180.892"/>
<polygon fill="midnightblue" stroke="midnightblue" points="44.5625,-340.831 43.0455,-351.317 50.7704,-344.066 44.5625,-340.831"/>
</g>
<!-- Node2&#45;&gt;Node1 -->
<g id="edge63" class="edge"><title>Node2&#45;&gt;Node1</title>
<path fill="none" stroke="midnightblue" d="M123.394,-816.002C118.579,-805.999 113.496,-793.637 110,-782 62.0503,-622.403 42.2076,-417.841 38.6134,-370.715"/>
<polygon fill="midnightblue" stroke="midnightblue" points="120.38,-817.797 128.05,-825.106 126.612,-814.609 120.38,-817.797"/>
</g>
<!-- Node3 -->
<g id="node3" class="node"><title>Node3</title>
<g id="a_node3"><a xlink:href="../../dd/d4a/lvm_8c.html#aa904883a58699d9c6ef4d6f0f45037f6" target="_top" xlink:title="callTM">
<polygon fill="none" stroke="black" points="219,-313.5 219,-332.5 263,-332.5 263,-313.5 219,-313.5"/>
<text text-anchor="middle" x="241" y="-320.5" font-family="Helvetica,sans-Serif" font-size="10.00">callTM</text>
</a>
</g>
</g>
<!-- Node2&#45;&gt;Node3 -->
<g id="edge2" class="edge"><title>Node2&#45;&gt;Node3</title>
<path fill="none" stroke="midnightblue" d="M142.883,-815.317C159.684,-730.144 225.83,-394.832 238.052,-332.873"/>
<polygon fill="midnightblue" stroke="midnightblue" points="139.429,-814.741 140.927,-825.229 146.297,-816.096 139.429,-814.741"/>
</g>
<!-- Node31 -->
<g id="node31" class="node"><title>Node31</title>
<g id="a_node31"><a xlink:href="../../de/d27/lgc_8c.html#a929058f72c03750fa82374f6bfa639ee" target="_top" xlink:title="dothecall">
<polygon fill="none" stroke="black" points="214.5,-958.5 214.5,-977.5 267.5,-977.5 267.5,-958.5 214.5,-958.5"/>
<text text-anchor="middle" x="241" y="-965.5" font-family="Helvetica,sans-Serif" font-size="10.00">dothecall</text>
</a>
</g>
</g>
<!-- Node2&#45;&gt;Node31 -->
<g id="edge45" class="edge"><title>Node2&#45;&gt;Node31</title>
<path fill="none" stroke="midnightblue" d="M149.731,-853.473C161.526,-873.189 181.53,-904.968 202,-930 210.387,-940.256 221.161,-950.826 229.094,-958.206"/>
<polygon fill="midnightblue" stroke="midnightblue" points="152.593,-851.435 144.494,-844.604 146.565,-854.995 152.593,-851.435"/>
</g>
<!-- Node35 -->
<g id="node35" class="node"><title>Node35</title>
<g id="a_node35"><a xlink:href="../../df/db6/lapi_8c.html#ac3926c93fb08234f9f47e24653124910" target="_top" xlink:title="f_call">
<polygon fill="none" stroke="black" points="222,-901.5 222,-920.5 260,-920.5 260,-901.5 222,-901.5"/>
<text text-anchor="middle" x="241" y="-908.5" font-family="Helvetica,sans-Serif" font-size="10.00">f_call</text>
</a>
</g>
</g>
<!-- Node2&#45;&gt;Node35 -->
<g id="edge49" class="edge"><title>Node2&#45;&gt;Node35</title>
<path fill="none" stroke="midnightblue" d="M155.299,-852.045C167.439,-864.144 184.819,-880.257 202,-892 208.09,-896.162 215.22,-899.972 221.649,-903.069"/>
<polygon fill="midnightblue" stroke="midnightblue" points="157.64,-849.434 148.132,-844.76 152.65,-854.343 157.64,-849.434"/>
</g>
<!-- Node36 -->
<g id="node36" class="node"><title>Node36</title>
<g id="a_node36"><a xlink:href="../../da/dd2/lua_8h.html#a3c4de08aa665eaee4aabd330aa99a441" target="_top" xlink:title="lua_pcallk">
<polygon fill="none" stroke="black" points="328,-901.5 328,-920.5 387,-920.5 387,-901.5 328,-901.5"/>
<text text-anchor="middle" x="357.5" y="-908.5" font-family="Helvetica,sans-Serif" font-size="10.00">lua_pcallk</text>
</a>
</g>
</g>
<!-- Node2&#45;&gt;Node36 -->
<g id="edge55" class="edge"><title>Node2&#45;&gt;Node36</title>
<path fill="none" stroke="midnightblue" d="M176.193,-834.966C205.406,-836.116 246.592,-840.379 280,-854 307.299,-865.131 333.62,-888.34 347.125,-901.45"/>
<polygon fill="midnightblue" stroke="midnightblue" points="176.105,-831.462 166.009,-834.672 175.903,-838.459 176.105,-831.462"/>
</g>
<!-- Node39 -->
<g id="node39" class="node"><title>Node39</title>
<g id="a_node39"><a xlink:href="../../da/dd2/lua_8h.html#aa6aba1fd89ac6f1c5ccfdfd12f826d80" target="_top" xlink:title="lua_callk">
<polygon fill="none" stroke="black" points="214.5,-1053.5 214.5,-1072.5 267.5,-1072.5 267.5,-1053.5 214.5,-1053.5"/>
<text text-anchor="middle" x="241" y="-1060.5" font-family="Helvetica,sans-Serif" font-size="10.00">lua_callk</text>
</a>
</g>
</g>
<!-- Node2&#45;&gt;Node39 -->
<g id="edge53" class="edge"><title>Node2&#45;&gt;Node39</title>
<path fill="none" stroke="midnightblue" d="M146.395,-854.053C157.753,-883.028 180.445,-939.787 202,-987 213.028,-1011.16 227.334,-1038.92 234.857,-1053.27"/>
<polygon fill="midnightblue" stroke="midnightblue" points="149.643,-852.748 142.746,-844.705 143.122,-855.293 149.643,-852.748"/>
</g>
<!-- Node41 -->
<g id="node41" class="node"><title>Node41</title>
<g id="a_node41"><a xlink:href="../../db/d46/ldebug_8h.html#acd5ef9f67a8e9d08f6540636fdbeafe6" target="_top" xlink:title="luaG_errormsg">
<polygon fill="none" stroke="black" points="202,-863.5 202,-882.5 280,-882.5 280,-863.5 202,-863.5"/>
<text text-anchor="middle" x="241" y="-870.5" font-family="Helvetica,sans-Serif" font-size="10.00">luaG_errormsg</text>
</a>
</g>
</g>
<!-- Node2&#45;&gt;Node41 -->
<g id="edge56" class="edge"><title>Node2&#45;&gt;Node41</title>
<path fill="none" stroke="midnightblue" d="M173.866,-848.118C187.225,-853.144 202.202,-858.779 214.522,-863.414"/>
<polygon fill="midnightblue" stroke="midnightblue" points="175.079,-844.835 164.487,-844.589 172.614,-851.386 175.079,-844.835"/>
</g>
<!-- Node4 -->
<g id="node4" class="node"><title>Node4</title>
<g id="a_node4"><a xlink:href="../../dd/d4a/lvm_8c.html#a5f9dd797eb313b8e117cb20546276732" target="_top" xlink:title="call_binTM">
<polygon fill="none" stroke="black" points="326.5,-711.5 326.5,-730.5 388.5,-730.5 388.5,-711.5 326.5,-711.5"/>
<text text-anchor="middle" x="357.5" y="-718.5" font-family="Helvetica,sans-Serif" font-size="10.00">call_binTM</text>
</a>
</g>
</g>
<!-- Node3&#45;&gt;Node4 -->
<g id="edge3" class="edge"><title>Node3&#45;&gt;Node4</title>
<path fill="none" stroke="midnightblue" d="M247.697,-342.804C268.321,-414.491 338.653,-658.965 353.666,-711.149"/>
<polygon fill="midnightblue" stroke="midnightblue" points="250.959,-341.481 244.83,-332.838 244.232,-343.416 250.959,-341.481"/>
</g>
<!-- Node16 -->
<g id="node16" class="node"><title>Node16</title>
<g id="a_node16"><a xlink:href="../../d5/dcd/lvm_8h.html#adacdbccc9d8fab937a1b0dc058c8da12" target="_top" xlink:title="luaV_gettable">
<polygon fill="none" stroke="black" points="589.5,-142.5 589.5,-161.5 664.5,-161.5 664.5,-142.5 589.5,-142.5"/>
<text text-anchor="middle" x="627" y="-149.5" font-family="Helvetica,sans-Serif" font-size="10.00">luaV_gettable</text>
</a>
</g>
</g>
<!-- Node3&#45;&gt;Node16 -->
<g id="edge42" class="edge"><title>Node3&#45;&gt;Node16</title>
<path fill="none" stroke="midnightblue" d="M253.186,-304.801C279.152,-264.532 347.993,-168.641 435,-133 491.277,-109.947 564.384,-129.419 601.724,-142.5"/>
<polygon fill="midnightblue" stroke="midnightblue" points="250.164,-303.03 247.78,-313.353 256.081,-306.77 250.164,-303.03"/>
</g>
<!-- Node20 -->
<g id="node20" class="node"><title>Node20</title>
<g id="a_node20"><a xlink:href="../../d5/dcd/lvm_8h.html#a414b4b487239935324f2f16e1e7715db" target="_top" xlink:title="luaV_objlen">
<polygon fill="none" stroke="black" points="593.5,-66.5 593.5,-85.5 660.5,-85.5 660.5,-66.5 593.5,-66.5"/>
<text text-anchor="middle" x="627" y="-73.5" font-family="Helvetica,sans-Serif" font-size="10.00">luaV_objlen</text>
</a>
</g>
</g>
<!-- Node3&#45;&gt;Node20 -->
<g id="edge43" class="edge"><title>Node3&#45;&gt;Node20</title>
<path fill="none" stroke="midnightblue" d="M244.648,-303.097C250.561,-266.798 268.288,-189.829 316,-149 396.868,-79.7975 531.403,-73.3924 593.169,-74.4728"/>
<polygon fill="midnightblue" stroke="midnightblue" points="241.132,-302.95 243.121,-313.356 248.055,-303.981 241.132,-302.95"/>
</g>
<!-- Node22 -->
<g id="node22" class="node"><title>Node22</title>
<g id="a_node22"><a xlink:href="../../d5/dcd/lvm_8h.html#a5885d48fd66eb236f8b8f6e4938cbcce" target="_top" xlink:title="luaV_settable">
<polygon fill="none" stroke="black" points="589.5,-294.5 589.5,-313.5 664.5,-313.5 664.5,-294.5 589.5,-294.5"/>
<text text-anchor="middle" x="627" y="-301.5" font-family="Helvetica,sans-Serif" font-size="10.00">luaV_settable</text>
</a>
</g>
</g>
<!-- Node3&#45;&gt;Node22 -->
<g id="edge44" class="edge"><title>Node3&#45;&gt;Node22</title>
<path fill="none" stroke="midnightblue" d="M273.205,-321.456C343.538,-317.976 514.151,-309.534 589.357,-305.813"/>
<polygon fill="midnightblue" stroke="midnightblue" points="273.007,-317.961 263.192,-321.951 273.353,-324.953 273.007,-317.961"/>
</g>
<!-- Node30 -->
<g id="node30" class="node"><title>Node30</title>
<g id="a_node30"><a xlink:href="../../d5/dcd/lvm_8h.html#ab77cced08254efde4e5dfb28b37a7f31" target="_top" xlink:title="luaV_equalobj_">
<polygon fill="none" stroke="black" points="316,-332.5 316,-351.5 399,-351.5 399,-332.5 316,-332.5"/>
<text text-anchor="middle" x="357.5" y="-339.5" font-family="Helvetica,sans-Serif" font-size="10.00">luaV_equalobj_</text>
</a>
</g>
</g>
<!-- Node3&#45;&gt;Node30 -->
<g id="edge41" class="edge"><title>Node3&#45;&gt;Node30</title>
<path fill="none" stroke="midnightblue" d="M272.968,-328.139C286.119,-330.321 301.632,-332.895 315.698,-335.229"/>
<polygon fill="midnightblue" stroke="midnightblue" points="273.439,-324.669 263.001,-326.485 272.293,-331.575 273.439,-324.669"/>
</g>
<!-- Node5 -->
<g id="node5" class="node"><title>Node5</title>
<g id="a_node5"><a xlink:href="../../dd/d4a/lvm_8c.html#a1d1301ff4a771ce4198673dd113d10a5" target="_top" xlink:title="call_orderTM">
<polygon fill="none" stroke="red" points="455,-806.5 455,-825.5 524,-825.5 524,-806.5 455,-806.5"/>
<text text-anchor="middle" x="489.5" y="-813.5" font-family="Helvetica,sans-Serif" font-size="10.00">call_orderTM</text>
</a>
</g>
</g>
<!-- Node4&#45;&gt;Node5 -->
<g id="edge4" class="edge"><title>Node4&#45;&gt;Node5</title>
<path fill="none" stroke="midnightblue" d="M387.191,-735.871C391.368,-738.627 395.45,-741.692 399,-745 419.565,-764.162 412.678,-779.916 435,-797 440.87,-801.493 447.893,-804.984 454.889,-807.675"/>
<polygon fill="midnightblue" stroke="midnightblue" points="388.991,-732.869 378.627,-730.668 385.356,-738.851 388.991,-732.869"/>
</g>
<!-- Node6 -->
<g id="node6" class="node"><title>Node6</title>
<g id="a_node6"><a xlink:href="../../d5/dcd/lvm_8h.html#a275e261afaec876cd16944b95c955642" target="_top" xlink:title="luaV_arith">
<polygon fill="none" stroke="red" points="460,-844.5 460,-863.5 519,-863.5 519,-844.5 460,-844.5"/>
<text text-anchor="middle" x="489.5" y="-851.5" font-family="Helvetica,sans-Serif" font-size="10.00">luaV_arith</text>
</a>
</g>
</g>
<!-- Node4&#45;&gt;Node6 -->
<g id="edge5" class="edge"><title>Node4&#45;&gt;Node6</title>
<path fill="none" stroke="midnightblue" d="M389.221,-736.152C392.812,-738.767 396.189,-741.718 399,-745 427.022,-777.722 403.945,-805.141 435,-835 441.821,-841.558 451.05,-845.87 459.921,-848.697"/>
<polygon fill="midnightblue" stroke="midnightblue" points="390.936,-733.094 380.625,-730.658 387.167,-738.993 390.936,-733.094"/>
</g>
<!-- Node7 -->
<g id="node7" class="node"><title>Node7</title>
<g id="a_node7"><a xlink:href="../../d5/dcd/lvm_8h.html#aee84bfc563cb4bdd21a013218a289aa7" target="_top" xlink:title="luaV_concat">
<polygon fill="none" stroke="red" points="455,-768.5 455,-787.5 524,-787.5 524,-768.5 455,-768.5"/>
<text text-anchor="middle" x="489.5" y="-775.5" font-family="Helvetica,sans-Serif" font-size="10.00">luaV_concat</text>
</a>
</g>
</g>
<!-- Node4&#45;&gt;Node7 -->
<g id="edge7" class="edge"><title>Node4&#45;&gt;Node7</title>
<path fill="none" stroke="midnightblue" d="M389.559,-734.618C413.343,-745.046 445.554,-759.17 466.67,-768.428"/>
<polygon fill="midnightblue" stroke="midnightblue" points="390.823,-731.351 380.259,-730.541 388.012,-737.762 390.823,-731.351"/>
</g>
<!-- Node6&#45;&gt;Node1 -->
<g id="edge6" class="edge"><title>Node6&#45;&gt;Node1</title>
<path fill="none" stroke="midnightblue" d="M450.464,-842.27C445.145,-840.122 439.846,-837.694 435,-835 375.854,-802.111 363.499,-788.205 316,-740 187.134,-609.218 70.0418,-415.558 43.5733,-370.573"/>
<polygon fill="midnightblue" stroke="midnightblue" points="449.375,-845.6 459.967,-845.832 451.832,-839.045 449.375,-845.6"/>
</g>
<!-- Node7&#45;&gt;Node1 -->
<g id="edge40" class="edge"><title>Node7&#45;&gt;Node1</title>
<path fill="none" stroke="midnightblue" d="M466.023,-762.299C456.242,-755.188 444.8,-746.486 435,-738 417.895,-723.187 415.313,-717.681 399,-702 272.927,-580.817 235.24,-557.044 110,-435 86.8924,-412.482 60.6842,-385.046 47.1596,-370.74"/>
<polygon fill="midnightblue" stroke="midnightblue" points="464.277,-765.353 474.445,-768.33 468.353,-759.662 464.277,-765.353"/>
</g>
<!-- Node8 -->
<g id="node8" class="node"><title>Node8</title>
<g id="a_node8"><a xlink:href="../../d2/d51/lobject_8h.html#a0d323372aa00f179e1c070d305f879f3" target="_top" xlink:title="luaO_pushvfstring">
<polygon fill="none" stroke="red" points="580,-721.5 580,-740.5 674,-740.5 674,-721.5 580,-721.5"/>
<text text-anchor="middle" x="627" y="-728.5" font-family="Helvetica,sans-Serif" font-size="10.00">luaO_pushvfstring</text>
</a>
</g>
</g>
<!-- Node7&#45;&gt;Node8 -->
<g id="edge8" class="edge"><title>Node7&#45;&gt;Node8</title>
<path fill="none" stroke="midnightblue" d="M527.41,-765.197C549.722,-757.458 577.707,-747.751 598.155,-740.658"/>
<polygon fill="midnightblue" stroke="midnightblue" points="526.221,-761.905 517.92,-768.489 528.515,-768.518 526.221,-761.905"/>
</g>
<!-- Node9 -->
<g id="node9" class="node"><title>Node9</title>
<g id="a_node9"><a xlink:href="../../db/d46/ldebug_8h.html#a6f27f64630215e18a11be9ba21d3c4bf" target="_top" xlink:title="luaG_runerror">
<polygon fill="none" stroke="black" points="321,-541.5 321,-560.5 394,-560.5 394,-541.5 321,-541.5"/>
<text text-anchor="middle" x="357.5" y="-548.5" font-family="Helvetica,sans-Serif" font-size="10.00">luaG_runerror</text>
</a>
</g>
</g>
<!-- Node8&#45;&gt;Node9 -->
<g id="edge9" class="edge"><title>Node8&#45;&gt;Node9</title>
<path fill="none" stroke="midnightblue" d="M579.934,-741.364C538.055,-744.02 476.621,-738.624 435,-707 405.24,-684.388 416.272,-664.145 399,-631 385.884,-605.831 368.543,-576.653 361.583,-560.801"/>
<polygon fill="midnightblue" stroke="midnightblue" points="580.456,-744.833 590.136,-740.526 579.883,-737.856 580.456,-744.833"/>
</g>
<!-- Node9&#45;&gt;Node1 -->
<g id="edge36" class="edge"><title>Node9&#45;&gt;Node1</title>
<path fill="none" stroke="midnightblue" d="M331.458,-536.061C268.734,-498.644 106.201,-401.685 54.2323,-370.683"/>
<polygon fill="midnightblue" stroke="midnightblue" points="329.919,-539.219 340.3,-541.336 333.505,-533.207 329.919,-539.219"/>
</g>
<!-- Node9&#45;&gt;Node2 -->
<g id="edge13" class="edge"><title>Node9&#45;&gt;Node2</title>
<path fill="none" stroke="midnightblue" d="M342.937,-568.71C301.617,-622.663 178.187,-783.832 146.487,-825.224"/>
<polygon fill="midnightblue" stroke="midnightblue" points="345.743,-570.802 349.045,-560.735 340.186,-566.546 345.743,-570.802"/>
</g>
<!-- Node9&#45;&gt;Node7 -->
<g id="edge35" class="edge"><title>Node9&#45;&gt;Node7</title>
<path fill="none" stroke="midnightblue" d="M370.672,-569.328C379.514,-583.292 391.241,-603.249 399,-622 422.249,-678.189 395.469,-707.793 435,-754 440.36,-760.266 447.685,-764.969 455.193,-768.472"/>
<polygon fill="midnightblue" stroke="midnightblue" points="373.465,-567.202 365.096,-560.706 367.587,-571.004 373.465,-567.202"/>
</g>
<!-- Node9&#45;&gt;Node8 -->
<g id="edge34" class="edge"><title>Node9&#45;&gt;Node8</title>
<path fill="none" stroke="midnightblue" d="M374.074,-569.11C381.813,-581.483 391.161,-597.957 399,-613 416.272,-646.145 405.24,-666.388 435,-689 476.531,-720.556 537.79,-725.997 579.662,-727.376"/>
<polygon fill="midnightblue" stroke="midnightblue" points="376.896,-567.029 368.521,-560.539 371.021,-570.835 376.896,-567.029"/>
</g>
<!-- Node10 -->
<g id="node10" class="node"><title>Node10</title>
<g id="a_node10"><a xlink:href="../../dc/d1e/ltable_8c.html#a4c78714b16a133fb409681f8ca4240be" target="_top" xlink:title="findindex">
<polygon fill="none" stroke="red" points="463,-598.5 463,-617.5 516,-617.5 516,-598.5 463,-598.5"/>
<text text-anchor="middle" x="489.5" y="-605.5" font-family="Helvetica,sans-Serif" font-size="10.00">findindex</text>
</a>
</g>
</g>
<!-- Node9&#45;&gt;Node10 -->
<g id="edge10" class="edge"><title>Node9&#45;&gt;Node10</title>
<path fill="none" stroke="midnightblue" d="M385.087,-565.188C399.633,-572.7 418.089,-581.828 435,-589 443.983,-592.81 454.02,-596.515 462.951,-599.626"/>
<polygon fill="midnightblue" stroke="midnightblue" points="386.632,-562.046 376.147,-560.521 383.393,-568.252 386.632,-562.046"/>
</g>
<!-- Node11 -->
<g id="node11" class="node"><title>Node11</title>
<g id="a_node11"><a xlink:href="../../da/dd2/lua_8h.html#a77807056ba032d64b2def2b57dc53d53" target="_top" xlink:title="lua_pushnumber">
<polygon fill="none" stroke="red" points="445.5,-560.5 445.5,-579.5 533.5,-579.5 533.5,-560.5 445.5,-560.5"/>
<text text-anchor="middle" x="489.5" y="-567.5" font-family="Helvetica,sans-Serif" font-size="10.00">lua_pushnumber</text>
</a>
</g>
</g>
<!-- Node9&#45;&gt;Node11 -->
<g id="edge11" class="edge"><title>Node9&#45;&gt;Node11</title>
<path fill="none" stroke="midnightblue" d="M403.965,-557.645C417.332,-559.598 431.913,-561.73 445.144,-563.663"/>
<polygon fill="midnightblue" stroke="midnightblue" points="404.424,-554.175 394.023,-556.192 403.412,-561.101 404.424,-554.175"/>
</g>
<!-- Node12 -->
<g id="node12" class="node"><title>Node12</title>
<g id="a_node12"><a xlink:href="../../da/dd2/lua_8h.html#ab717ff0354e9c39199b16a1c412fa252" target="_top" xlink:title="lua_yieldk">
<polygon fill="none" stroke="black" points="460.5,-522.5 460.5,-541.5 518.5,-541.5 518.5,-522.5 460.5,-522.5"/>
<text text-anchor="middle" x="489.5" y="-529.5" font-family="Helvetica,sans-Serif" font-size="10.00">lua_yieldk</text>
</a>
</g>
</g>
<!-- Node9&#45;&gt;Node12 -->
<g id="edge12" class="edge"><title>Node9&#45;&gt;Node12</title>
<path fill="none" stroke="midnightblue" d="M404.152,-544.328C422.904,-541.587 444.019,-538.501 460.432,-536.102"/>
<polygon fill="midnightblue" stroke="midnightblue" points="403.412,-540.899 394.023,-545.808 404.424,-547.825 403.412,-540.899"/>
</g>
<!-- Node13 -->
<g id="node13" class="node"><title>Node13</title>
<g id="a_node13"><a xlink:href="../../d2/dd9/ldo_8h.html#ab83418a7edbfafe87886f156aa6a9988" target="_top" xlink:title="luaD_growstack">
<polygon fill="none" stroke="red" points="446.5,-484.5 446.5,-503.5 532.5,-503.5 532.5,-484.5 446.5,-484.5"/>
<text text-anchor="middle" x="489.5" y="-491.5" font-family="Helvetica,sans-Serif" font-size="10.00">luaD_growstack</text>
</a>
</g>
</g>
<!-- Node9&#45;&gt;Node13 -->
<g id="edge14" class="edge"><title>Node9&#45;&gt;Node13</title>
<path fill="none" stroke="midnightblue" d="M385.087,-536.812C399.633,-529.3 418.089,-520.172 435,-513 442.894,-509.652 451.602,-506.385 459.658,-503.531"/>
<polygon fill="midnightblue" stroke="midnightblue" points="383.393,-533.748 376.147,-541.479 386.632,-539.954 383.393,-533.748"/>
</g>
<!-- Node14 -->
<g id="node14" class="node"><title>Node14</title>
<g id="a_node14"><a xlink:href="../../db/d46/ldebug_8h.html#a7ae9c3f6343c93b4a8bb80e68706a6a3" target="_top" xlink:title="luaG_ordererror">
<polygon fill="none" stroke="red" points="449.5,-446.5 449.5,-465.5 529.5,-465.5 529.5,-446.5 449.5,-446.5"/>
<text text-anchor="middle" x="489.5" y="-453.5" font-family="Helvetica,sans-Serif" font-size="10.00">luaG_ordererror</text>
</a>
</g>
</g>
<!-- Node9&#45;&gt;Node14 -->
<g id="edge15" class="edge"><title>Node9&#45;&gt;Node14</title>
<path fill="none" stroke="midnightblue" d="M372.211,-533.441C386.326,-516.41 409.768,-490.878 435,-475 440.923,-471.273 447.676,-468.151 454.342,-465.587"/>
<polygon fill="midnightblue" stroke="midnightblue" points="369.281,-531.498 365.719,-541.476 374.726,-535.897 369.281,-531.498"/>
</g>
<!-- Node15 -->
<g id="node15" class="node"><title>Node15</title>
<g id="a_node15"><a xlink:href="../../db/d46/ldebug_8h.html#a375161dd1513420561f20f0b4c7b7e66" target="_top" xlink:title="luaG_typeerror">
<polygon fill="none" stroke="red" points="450,-142.5 450,-161.5 529,-161.5 529,-142.5 450,-142.5"/>
<text text-anchor="middle" x="489.5" y="-149.5" font-family="Helvetica,sans-Serif" font-size="10.00">luaG_typeerror</text>
</a>
</g>
</g>
<!-- Node9&#45;&gt;Node15 -->
<g id="edge16" class="edge"><title>Node9&#45;&gt;Node15</title>
<path fill="none" stroke="midnightblue" d="M362.901,-530.93C370.468,-496.298 386.35,-423.054 399,-361 415.732,-278.924 382.941,-241.623 435,-176 439.998,-169.7 447.006,-165.002 454.308,-161.518"/>
<polygon fill="midnightblue" stroke="midnightblue" points="359.389,-530.606 360.67,-541.123 366.227,-532.103 359.389,-530.606"/>
</g>
<!-- Node9&#45;&gt;Node16 -->
<g id="edge37" class="edge"><title>Node9&#45;&gt;Node16</title>
<path fill="none" stroke="midnightblue" d="M362.8,-531.151C378.529,-458.627 432.169,-212.036 435,-209 445.678,-197.547 536.736,-173.795 589.174,-160.861"/>
<polygon fill="midnightblue" stroke="midnightblue" points="359.313,-530.718 360.615,-541.232 366.154,-532.201 359.313,-530.718"/>
</g>
<!-- Node9&#45;&gt;Node22 -->
<g id="edge38" class="edge"><title>Node9&#45;&gt;Node22</title>
<path fill="none" stroke="midnightblue" d="M369.557,-569.451C388.262,-600.348 425.084,-659.712 435,-665 477.747,-687.794 506.289,-695.409 544,-665 602.767,-617.612 563.333,-572.63 580,-499 596.127,-427.757 616.75,-342.179 623.64,-313.725"/>
<polygon fill="midnightblue" stroke="midnightblue" points="372.337,-567.283 364.178,-560.524 366.341,-570.896 372.337,-567.283"/>
</g>
<!-- Node26 -->
<g id="node26" class="node"><title>Node26</title>
<g id="a_node26"><a xlink:href="../../d3/d44/ltable_8h.html#a61547e63b2d74aa68da53a7fd235e77e" target="_top" xlink:title="luaH_newkey">
<polygon fill="none" stroke="red" points="452,-408.5 452,-427.5 527,-427.5 527,-408.5 452,-408.5"/>
<text text-anchor="middle" x="489.5" y="-415.5" font-family="Helvetica,sans-Serif" font-size="10.00">luaH_newkey</text>
</a>
</g>
</g>
<!-- Node9&#45;&gt;Node26 -->
<g id="edge30" class="edge"><title>Node9&#45;&gt;Node26</title>
<path fill="none" stroke="midnightblue" d="M366.581,-532.006C378.197,-506.858 401.914,-462.705 435,-437 439.981,-433.13 445.816,-430.007 451.766,-427.5"/>
<polygon fill="midnightblue" stroke="midnightblue" points="363.349,-530.661 362.476,-541.22 369.743,-533.509 363.349,-530.661"/>
</g>
<!-- Node27 -->
<g id="node27" class="node"><title>Node27</title>
<g id="a_node27"><a xlink:href="../../d7/d3e/lmem_8h.html#a9adb7e11025b0b91454ae7949bc8d370" target="_top" xlink:title="luaM_growaux_">
<polygon fill="none" stroke="black" points="446.5,-370.5 446.5,-389.5 532.5,-389.5 532.5,-370.5 446.5,-370.5"/>
<text text-anchor="middle" x="489.5" y="-377.5" font-family="Helvetica,sans-Serif" font-size="10.00">luaM_growaux_</text>
</a>
</g>
</g>
<!-- Node9&#45;&gt;Node27 -->
<g id="edge32" class="edge"><title>Node9&#45;&gt;Node27</title>
<path fill="none" stroke="midnightblue" d="M363.28,-531.307C372.067,-499.162 393.78,-435.364 435,-399 439.361,-395.153 444.553,-392.07 449.963,-389.603"/>
<polygon fill="midnightblue" stroke="midnightblue" points="359.821,-530.702 360.7,-541.26 366.597,-532.458 359.821,-530.702"/>
</g>
<!-- Node28 -->
<g id="node28" class="node"><title>Node28</title>
<g id="a_node28"><a xlink:href="../../d7/d3e/lmem_8h.html#a23b8703b7b50e1c5dd37d41569a09a9a" target="_top" xlink:title="luaM_toobig">
<polygon fill="none" stroke="red" points="455.5,-332.5 455.5,-351.5 523.5,-351.5 523.5,-332.5 455.5,-332.5"/>
<text text-anchor="middle" x="489.5" y="-339.5" font-family="Helvetica,sans-Serif" font-size="10.00">luaM_toobig</text>
</a>
</g>
</g>
<!-- Node9&#45;&gt;Node28 -->
<g id="edge33" class="edge"><title>Node9&#45;&gt;Node28</title>
<path fill="none" stroke="midnightblue" d="M361.118,-530.794C367.138,-492.402 385.466,-408.518 435,-361 440.69,-355.541 448.049,-351.639 455.477,-348.853"/>
<polygon fill="midnightblue" stroke="midnightblue" points="357.586,-530.76 359.624,-541.157 364.515,-531.759 357.586,-530.76"/>
</g>
<!-- Node29 -->
<g id="node29" class="node"><title>Node29</title>
<g id="a_node29"><a xlink:href="../../dc/d1e/ltable_8c.html#ad5ff1c819f2ab4e96904822b915ae290" target="_top" xlink:title="setnodevector">
<polygon fill="none" stroke="red" points="452,-636.5 452,-655.5 527,-655.5 527,-636.5 452,-636.5"/>
<text text-anchor="middle" x="489.5" y="-643.5" font-family="Helvetica,sans-Serif" font-size="10.00">setnodevector</text>
</a>
</g>
</g>
<!-- Node9&#45;&gt;Node29 -->
<g id="edge39" class="edge"><title>Node9&#45;&gt;Node29</title>
<path fill="none" stroke="midnightblue" d="M372.211,-568.559C386.326,-585.59 409.768,-611.122 435,-627 440.923,-630.727 447.676,-633.849 454.342,-636.413"/>
<polygon fill="midnightblue" stroke="midnightblue" points="374.726,-566.103 365.719,-560.524 369.281,-570.502 374.726,-566.103"/>
</g>
<!-- Node15&#45;&gt;Node16 -->
<g id="edge17" class="edge"><title>Node15&#45;&gt;Node16</title>
<path fill="none" stroke="midnightblue" d="M539.376,-152C555.915,-152 574.084,-152 589.492,-152"/>
<polygon fill="midnightblue" stroke="midnightblue" points="539.329,-148.5 529.329,-152 539.329,-155.5 539.329,-148.5"/>
</g>
<!-- Node15&#45;&gt;Node20 -->
<g id="edge22" class="edge"><title>Node15&#45;&gt;Node20</title>
<path fill="none" stroke="midnightblue" d="M516.628,-137.345C543.859,-122.071 585.737,-98.5828 608.978,-85.5473"/>
<polygon fill="midnightblue" stroke="midnightblue" points="514.671,-134.43 507.661,-142.375 518.095,-140.535 514.671,-134.43"/>
</g>
<!-- Node15&#45;&gt;Node22 -->
<g id="edge25" class="edge"><title>Node15&#45;&gt;Node22</title>
<path fill="none" stroke="midnightblue" d="M506.798,-168.991C517.495,-180.234 531.725,-195.363 544,-209 571.695,-239.767 603.449,-277.194 617.982,-294.448"/>
<polygon fill="midnightblue" stroke="midnightblue" points="509.148,-166.384 499.711,-161.568 504.085,-171.218 509.148,-166.384"/>
</g>
<!-- Node16&#45;&gt;Node1 -->
<g id="edge21" class="edge"><title>Node16&#45;&gt;Node1</title>
<path fill="none" stroke="midnightblue" d="M605.456,-136.398C562.239,-105.181 457.709,-38 358.5,-38 240,-38 240,-38 240,-38 88.21,-38 46.2305,-297.59 39.1659,-351.333"/>
<polygon fill="midnightblue" stroke="midnightblue" points="603.594,-139.373 613.724,-142.477 607.74,-133.733 603.594,-139.373"/>
</g>
<!-- Node17 -->
<g id="node17" class="node"><title>Node17</title>
<g id="a_node17"><a xlink:href="../../da/dd2/lua_8h.html#a2b4a9010af0545ae0f822d7f081370d0" target="_top" xlink:title="lua_getglobal">
<polygon fill="none" stroke="red" points="710,-142.5 710,-161.5 783,-161.5 783,-142.5 710,-142.5"/>
<text text-anchor="middle" x="746.5" y="-149.5" font-family="Helvetica,sans-Serif" font-size="10.00">lua_getglobal</text>
</a>
</g>
</g>
<!-- Node16&#45;&gt;Node17 -->
<g id="edge18" class="edge"><title>Node16&#45;&gt;Node17</title>
<path fill="none" stroke="midnightblue" d="M674.605,-152C686.32,-152 698.708,-152 709.795,-152"/>
<polygon fill="midnightblue" stroke="midnightblue" points="674.534,-148.5 664.534,-152 674.534,-155.5 674.534,-148.5"/>
</g>
<!-- Node18 -->
<g id="node18" class="node"><title>Node18</title>
<g id="a_node18"><a xlink:href="../../da/dd2/lua_8h.html#a8d82fa181a3003e9a304040c0bbed9ac" target="_top" xlink:title="lua_gettable">
<polygon fill="none" stroke="red" points="712.5,-104.5 712.5,-123.5 780.5,-123.5 780.5,-104.5 712.5,-104.5"/>
<text text-anchor="middle" x="746.5" y="-111.5" font-family="Helvetica,sans-Serif" font-size="10.00">lua_gettable</text>
</a>
</g>
</g>
<!-- Node16&#45;&gt;Node18 -->
<g id="edge19" class="edge"><title>Node16&#45;&gt;Node18</title>
<path fill="none" stroke="midnightblue" d="M667.209,-139.32C683.085,-134.185 701.11,-128.356 715.859,-123.586"/>
<polygon fill="midnightblue" stroke="midnightblue" points="666.088,-136.004 657.65,-142.411 668.242,-142.664 666.088,-136.004"/>
</g>
<!-- Node19 -->
<g id="node19" class="node"><title>Node19</title>
<g id="a_node19"><a xlink:href="../../da/dd2/lua_8h.html#ac3112bb28ba217adc46f13da8e9e6585" target="_top" xlink:title="lua_getfield">
<polygon fill="none" stroke="red" points="715,-180.5 715,-199.5 778,-199.5 778,-180.5 715,-180.5"/>
<text text-anchor="middle" x="746.5" y="-187.5" font-family="Helvetica,sans-Serif" font-size="10.00">lua_getfield</text>
</a>
</g>
</g>
<!-- Node16&#45;&gt;Node19 -->
<g id="edge20" class="edge"><title>Node16&#45;&gt;Node19</title>
<path fill="none" stroke="midnightblue" d="M667.209,-164.68C683.085,-169.815 701.11,-175.644 715.859,-180.414"/>
<polygon fill="midnightblue" stroke="midnightblue" points="668.242,-161.336 657.65,-161.589 666.088,-167.996 668.242,-161.336"/>
</g>
<!-- Node20&#45;&gt;Node1 -->
<g id="edge24" class="edge"><title>Node20&#45;&gt;Node1</title>
<path fill="none" stroke="midnightblue" d="M597.214,-62.1219C549.008,-40.1949 448.383,-0 358.5,-0 240,-0 240,-0 240,-0 175.988,-0 150.302,-12.2677 110,-62 35.3709,-154.091 36.0316,-311.314 37.5235,-351.452"/>
<polygon fill="midnightblue" stroke="midnightblue" points="595.864,-65.3539 606.41,-66.3745 598.803,-59.0004 595.864,-65.3539"/>
</g>
<!-- Node21 -->
<g id="node21" class="node"><title>Node21</title>
<g id="a_node21"><a xlink:href="../../da/dd2/lua_8h.html#ac7ade66f92b5e325c42371926f879818" target="_top" xlink:title="lua_len">
<polygon fill="none" stroke="red" points="723,-66.5 723,-85.5 770,-85.5 770,-66.5 723,-66.5"/>
<text text-anchor="middle" x="746.5" y="-73.5" font-family="Helvetica,sans-Serif" font-size="10.00">lua_len</text>
</a>
</g>
</g>
<!-- Node20&#45;&gt;Node21 -->
<g id="edge23" class="edge"><title>Node20&#45;&gt;Node21</title>
<path fill="none" stroke="midnightblue" d="M670.836,-76C688.498,-76 708.236,-76 722.98,-76"/>
<polygon fill="midnightblue" stroke="midnightblue" points="670.73,-72.5001 660.73,-76 670.73,-79.5001 670.73,-72.5001"/>
</g>
<!-- Node22&#45;&gt;Node1 -->
<g id="edge29" class="edge"><title>Node22&#45;&gt;Node1</title>
<path fill="none" stroke="midnightblue" d="M579.654,-293.365C526.536,-282.123 436.719,-266 358.5,-266 240,-266 240,-266 240,-266 160.554,-266 78.8131,-326.919 49.3975,-351.191"/>
<polygon fill="midnightblue" stroke="midnightblue" points="578.942,-296.792 589.454,-295.472 580.413,-289.948 578.942,-296.792"/>
</g>
<!-- Node23 -->
<g id="node23" class="node"><title>Node23</title>
<g id="a_node23"><a xlink:href="../../da/dd2/lua_8h.html#ac0ebe7d753b81f6249dde8cf0b8ea997" target="_top" xlink:title="lua_setglobal">
<polygon fill="none" stroke="red" points="710,-294.5 710,-313.5 783,-313.5 783,-294.5 710,-294.5"/>
<text text-anchor="middle" x="746.5" y="-301.5" font-family="Helvetica,sans-Serif" font-size="10.00">lua_setglobal</text>
</a>
</g>
</g>
<!-- Node22&#45;&gt;Node23 -->
<g id="edge26" class="edge"><title>Node22&#45;&gt;Node23</title>
<path fill="none" stroke="midnightblue" d="M674.605,-304C686.32,-304 698.708,-304 709.795,-304"/>
<polygon fill="midnightblue" stroke="midnightblue" points="674.534,-300.5 664.534,-304 674.534,-307.5 674.534,-300.5"/>
</g>
<!-- Node24 -->
<g id="node24" class="node"><title>Node24</title>
<g id="a_node24"><a xlink:href="../../da/dd2/lua_8h.html#aeda173d104e3a566ccaac89a1f64a5eb" target="_top" xlink:title="lua_settable">
<polygon fill="none" stroke="red" points="712.5,-256.5 712.5,-275.5 780.5,-275.5 780.5,-256.5 712.5,-256.5"/>
<text text-anchor="middle" x="746.5" y="-263.5" font-family="Helvetica,sans-Serif" font-size="10.00">lua_settable</text>
</a>
</g>
</g>
<!-- Node22&#45;&gt;Node24 -->
<g id="edge27" class="edge"><title>Node22&#45;&gt;Node24</title>
<path fill="none" stroke="midnightblue" d="M667.209,-291.32C683.085,-286.185 701.11,-280.356 715.859,-275.586"/>
<polygon fill="midnightblue" stroke="midnightblue" points="666.088,-288.004 657.65,-294.411 668.242,-294.664 666.088,-288.004"/>
</g>
<!-- Node25 -->
<g id="node25" class="node"><title>Node25</title>
<g id="a_node25"><a xlink:href="../../da/dd2/lua_8h.html#a9580a15c141cbe4bf2a63fea625c3878" target="_top" xlink:title="lua_setfield">
<polygon fill="none" stroke="red" points="715,-332.5 715,-351.5 778,-351.5 778,-332.5 715,-332.5"/>
<text text-anchor="middle" x="746.5" y="-339.5" font-family="Helvetica,sans-Serif" font-size="10.00">lua_setfield</text>
</a>
</g>
</g>
<!-- Node22&#45;&gt;Node25 -->
<g id="edge28" class="edge"><title>Node22&#45;&gt;Node25</title>
<path fill="none" stroke="midnightblue" d="M667.209,-316.68C683.085,-321.815 701.11,-327.644 715.859,-332.414"/>
<polygon fill="midnightblue" stroke="midnightblue" points="668.242,-313.336 657.65,-313.589 666.088,-319.996 668.242,-313.336"/>
</g>
<!-- Node26&#45;&gt;Node22 -->
<g id="edge31" class="edge"><title>Node26&#45;&gt;Node22</title>
<path fill="none" stroke="midnightblue" d="M534.891,-404.332C538.073,-402.725 541.148,-400.951 544,-399 579.065,-375.012 608.288,-332.448 620.224,-313.525"/>
<polygon fill="midnightblue" stroke="midnightblue" points="533.428,-401.152 525.731,-408.432 536.288,-407.541 533.428,-401.152"/>
</g>
<!-- Node32 -->
<g id="node32" class="node"><title>Node32</title>
<g id="a_node32"><a xlink:href="../../de/d27/lgc_8c.html#ab9ec6b56580b9e66f41743e393e7e033" target="_top" xlink:title="GCTM">
<polygon fill="none" stroke="black" points="334.5,-958.5 334.5,-977.5 380.5,-977.5 380.5,-958.5 334.5,-958.5"/>
<text text-anchor="middle" x="357.5" y="-965.5" font-family="Helvetica,sans-Serif" font-size="10.00">GCTM</text>
</a>
</g>
</g>
<!-- Node31&#45;&gt;Node32 -->
<g id="edge46" class="edge"><title>Node31&#45;&gt;Node32</title>
<path fill="none" stroke="midnightblue" d="M277.838,-968C296.347,-968 318.344,-968 334.364,-968"/>
<polygon fill="midnightblue" stroke="midnightblue" points="277.696,-964.5 267.696,-968 277.696,-971.5 277.696,-964.5"/>
</g>
<!-- Node33 -->
<g id="node33" class="node"><title>Node33</title>
<g id="a_node33"><a xlink:href="../../de/d27/lgc_8c.html#a74f50e6006422d43686521fe765152dd" target="_top" xlink:title="callallpendingfinalizers">
<polygon fill="none" stroke="red" points="435,-958.5 435,-977.5 544,-977.5 544,-958.5 435,-958.5"/>
<text text-anchor="middle" x="489.5" y="-965.5" font-family="Helvetica,sans-Serif" font-size="10.00">callallpendingfinalizers</text>
</a>
</g>
</g>
<!-- Node32&#45;&gt;Node33 -->
<g id="edge47" class="edge"><title>Node32&#45;&gt;Node33</title>
<path fill="none" stroke="midnightblue" d="M390.662,-968C404.017,-968 419.881,-968 434.906,-968"/>
<polygon fill="midnightblue" stroke="midnightblue" points="390.553,-964.5 380.553,-968 390.553,-971.5 390.553,-964.5"/>
</g>
<!-- Node34 -->
<g id="node34" class="node"><title>Node34</title>
<g id="a_node34"><a xlink:href="../../dc/d9c/lgc_8h.html#a19359957605d7c8eaf70803e5b77361f" target="_top" xlink:title="luaC_forcestep">
<polygon fill="none" stroke="red" points="449.5,-996.5 449.5,-1015.5 529.5,-1015.5 529.5,-996.5 449.5,-996.5"/>
<text text-anchor="middle" x="489.5" y="-1003.5" font-family="Helvetica,sans-Serif" font-size="10.00">luaC_forcestep</text>
</a>
</g>
</g>
<!-- Node32&#45;&gt;Node34 -->
<g id="edge48" class="edge"><title>Node32&#45;&gt;Node34</title>
<path fill="none" stroke="midnightblue" d="M390.343,-977.308C410.153,-983.099 435.576,-990.53 455.585,-996.379"/>
<polygon fill="midnightblue" stroke="midnightblue" points="391.133,-973.893 380.553,-974.446 389.169,-980.611 391.133,-973.893"/>
</g>
<!-- Node35&#45;&gt;Node36 -->
<g id="edge50" class="edge"><title>Node35&#45;&gt;Node36</title>
<path fill="none" stroke="midnightblue" d="M270.312,-911C287.797,-911 310.168,-911 327.736,-911"/>
<polygon fill="midnightblue" stroke="midnightblue" points="270.143,-907.5 260.143,-911 270.143,-914.5 270.143,-907.5"/>
</g>
<!-- Node37 -->
<g id="node37" class="node"><title>Node37</title>
<g id="a_node37"><a xlink:href="../../d8/dd3/lbaselib_8c.html#a1fb2725eed679431d070b2e9e7abc223" target="_top" xlink:title="luaB_pcall">
<polygon fill="none" stroke="black" points="459,-882.5 459,-901.5 520,-901.5 520,-882.5 459,-882.5"/>
<text text-anchor="middle" x="489.5" y="-889.5" font-family="Helvetica,sans-Serif" font-size="10.00">luaB_pcall</text>
</a>
</g>
</g>
<!-- Node36&#45;&gt;Node37 -->
<g id="edge51" class="edge"><title>Node36&#45;&gt;Node37</title>
<path fill="none" stroke="midnightblue" d="M396.939,-905.382C416.673,-902.498 440.35,-899.037 458.683,-896.358"/>
<polygon fill="midnightblue" stroke="midnightblue" points="396.418,-901.921 387.029,-906.83 397.43,-908.847 396.418,-901.921"/>
</g>
<!-- Node38 -->
<g id="node38" class="node"><title>Node38</title>
<g id="a_node38"><a xlink:href="../../d8/dd3/lbaselib_8c.html#a5fbb0094fa1a56f0a4c2547f1ec4c5ab" target="_top" xlink:title="luaB_xpcall">
<polygon fill="none" stroke="black" points="456.5,-920.5 456.5,-939.5 522.5,-939.5 522.5,-920.5 456.5,-920.5"/>
<text text-anchor="middle" x="489.5" y="-927.5" font-family="Helvetica,sans-Serif" font-size="10.00">luaB_xpcall</text>
</a>
</g>
</g>
<!-- Node36&#45;&gt;Node38 -->
<g id="edge52" class="edge"><title>Node36&#45;&gt;Node38</title>
<path fill="none" stroke="midnightblue" d="M397.1,-916.642C415.984,-919.402 438.45,-922.685 456.382,-925.306"/>
<polygon fill="midnightblue" stroke="midnightblue" points="397.43,-913.153 387.029,-915.17 396.418,-920.079 397.43,-913.153"/>
</g>
<!-- Node40 -->
<g id="node40" class="node"><title>Node40</title>
<g id="a_node40"><a xlink:href="../../d8/dd3/lbaselib_8c.html#a86a4e35d9c9ad4661a0dbbac3758c049" target="_top" xlink:title="luaB_dofile">
<polygon fill="none" stroke="black" points="458.5,-1148.5 458.5,-1167.5 520.5,-1167.5 520.5,-1148.5 458.5,-1148.5"/>
<text text-anchor="middle" x="489.5" y="-1155.5" font-family="Helvetica,sans-Serif" font-size="10.00">luaB_dofile</text>
</a>
</g>
</g>
<!-- Node39&#45;&gt;Node40 -->
<g id="edge54" class="edge"><title>Node39&#45;&gt;Node40</title>
<path fill="none" stroke="midnightblue" d="M267.73,-1077.46C281.749,-1085.02 299.55,-1094.11 316,-1101 364.726,-1121.42 423.538,-1139.52 458.377,-1149.59"/>
<polygon fill="midnightblue" stroke="midnightblue" points="269.144,-1074.25 258.691,-1072.52 265.785,-1080.39 269.144,-1074.25"/>
</g>
<!-- Node41&#45;&gt;Node9 -->
<g id="edge62" class="edge"><title>Node41&#45;&gt;Node9</title>
<path fill="none" stroke="midnightblue" d="M254.722,-855.105C262.822,-843.08 273.057,-826.63 280,-811 301.249,-763.161 343.35,-602.074 354.004,-560.734"/>
<polygon fill="midnightblue" stroke="midnightblue" points="251.831,-853.132 249.034,-863.351 257.593,-857.106 251.831,-853.132"/>
</g>
<!-- Node42 -->
<g id="node42" class="node"><title>Node42</title>
<g id="a_node42"><a xlink:href="../../da/dd2/lua_8h.html#aae6c05ddea7bd110a3e84595ef92e601" target="_top" xlink:title="lua_error">
<polygon fill="none" stroke="black" points="331.5,-1072.5 331.5,-1091.5 383.5,-1091.5 383.5,-1072.5 331.5,-1072.5"/>
<text text-anchor="middle" x="357.5" y="-1079.5" font-family="Helvetica,sans-Serif" font-size="10.00">lua_error</text>
</a>
</g>
</g>
<!-- Node41&#45;&gt;Node42 -->
<g id="edge57" class="edge"><title>Node41&#45;&gt;Node42</title>
<path fill="none" stroke="midnightblue" d="M276.244,-888.385C277.583,-889.516 278.844,-890.721 280,-892 310.268,-925.505 299.143,-945.113 316,-987 328.651,-1018.44 344.697,-1055.24 352.229,-1072.34"/>
<polygon fill="midnightblue" stroke="midnightblue" points="278.163,-885.456 267.941,-882.669 274.194,-891.222 278.163,-885.456"/>
</g>
<!-- Node42&#45;&gt;Node40 -->
<g id="edge59" class="edge"><title>Node42&#45;&gt;Node40</title>
<path fill="none" stroke="midnightblue" d="M377.089,-1098.36C391.954,-1110.79 413.753,-1127.65 435,-1139 442.302,-1142.9 450.572,-1146.29 458.389,-1149.08"/>
<polygon fill="midnightblue" stroke="midnightblue" points="379.074,-1095.45 369.195,-1091.62 374.529,-1100.77 379.074,-1095.45"/>
</g>
<!-- Node43 -->
<g id="node43" class="node"><title>Node43</title>
<g id="a_node43"><a xlink:href="../../df/d2d/lcorolib_8c.html#a777abb20385a69ce4787f72bd90375a7" target="_top" xlink:title="luaB_auxwrap">
<polygon fill="none" stroke="red" points="587,-508.5 587,-527.5 667,-527.5 667,-508.5 587,-508.5"/>
<text text-anchor="middle" x="627" y="-515.5" font-family="Helvetica,sans-Serif" font-size="10.00">luaB_auxwrap</text>
</a>
</g>
</g>
<!-- Node42&#45;&gt;Node43 -->
<g id="edge58" class="edge"><title>Node42&#45;&gt;Node43</title>
<path fill="none" stroke="midnightblue" d="M393.657,-1090.11C435.606,-1097.49 504.957,-1102.04 544,-1063 599.447,-1007.56 566.927,-789.312 580,-712 592.12,-640.327 615.309,-555.698 623.252,-527.598"/>
<polygon fill="midnightblue" stroke="midnightblue" points="394.097,-1086.63 383.618,-1088.2 392.786,-1093.51 394.097,-1086.63"/>
</g>
<!-- Node44 -->
<g id="node44" class="node"><title>Node44</title>
<g id="a_node44"><a xlink:href="../../d8/dd3/lbaselib_8c.html#a2ecfa987569d0b4c1063f3e204e42dd2" target="_top" xlink:title="luaB_error">
<polygon fill="none" stroke="black" points="460,-1034.5 460,-1053.5 519,-1053.5 519,-1034.5 460,-1034.5"/>
<text text-anchor="middle" x="489.5" y="-1041.5" font-family="Helvetica,sans-Serif" font-size="10.00">luaB_error</text>
</a>
</g>
</g>
<!-- Node42&#45;&gt;Node44 -->
<g id="edge60" class="edge"><title>Node42&#45;&gt;Node44</title>
<path fill="none" stroke="midnightblue" d="M393.31,-1071.82C414.134,-1065.74 440.274,-1058.1 459.891,-1052.36"/>
<polygon fill="midnightblue" stroke="midnightblue" points="392.182,-1068.51 383.565,-1074.67 394.146,-1075.23 392.182,-1068.51"/>
</g>
<!-- Node45 -->
<g id="node45" class="node"><title>Node45</title>
<g id="a_node45"><a xlink:href="../../da/d29/lauxlib_8h.html#a994f73d7985c30672469a260d9e86ae6" target="_top" xlink:title="luaL_error">
<polygon fill="none" stroke="red" points="461,-1110.5 461,-1129.5 518,-1129.5 518,-1110.5 461,-1110.5"/>
<text text-anchor="middle" x="489.5" y="-1117.5" font-family="Helvetica,sans-Serif" font-size="10.00">luaL_error</text>
</a>
</g>
</g>
<!-- Node42&#45;&gt;Node45 -->
<g id="edge61" class="edge"><title>Node42&#45;&gt;Node45</title>
<path fill="none" stroke="midnightblue" d="M393.448,-1092.22C414.578,-1098.39 441.141,-1106.16 460.811,-1111.91"/>
<polygon fill="midnightblue" stroke="midnightblue" points="394.146,-1088.77 383.565,-1089.33 392.182,-1095.49 394.146,-1088.77"/>
</g>
<!-- Node47 -->
<g id="node47" class="node"><title>Node47</title>
<g id="a_node47"><a xlink:href="../../da/dd2/lua_8h.html#a434479f022eda738b99000aad5ddd929" target="_top" xlink:title="lua_resume">
<polygon fill="none" stroke="black" points="325,-66.5 325,-85.5 390,-85.5 390,-66.5 325,-66.5"/>
<text text-anchor="middle" x="357.5" y="-73.5" font-family="Helvetica,sans-Serif" font-size="10.00">lua_resume</text>
</a>
</g>
</g>
<!-- Node46&#45;&gt;Node47 -->
<g id="edge65" class="edge"><title>Node46&#45;&gt;Node47</title>
<path fill="none" stroke="midnightblue" d="M270.198,-118.963C291.059,-108.578 318.922,-94.7069 337.273,-85.5716"/>
<polygon fill="midnightblue" stroke="midnightblue" points="268.557,-115.87 261.165,-123.459 271.677,-122.136 268.557,-115.87"/>
</g>
<!-- Node48 -->
<g id="node48" class="node"><title>Node48</title>
<g id="a_node48"><a xlink:href="../../df/d2d/lcorolib_8c.html#aaa37b3a30ab0c6daef7fae8951fef3e7" target="_top" xlink:title="auxresume">
<polygon fill="none" stroke="black" points="457.5,-218.5 457.5,-237.5 521.5,-237.5 521.5,-218.5 457.5,-218.5"/>
<text text-anchor="middle" x="489.5" y="-225.5" font-family="Helvetica,sans-Serif" font-size="10.00">auxresume</text>
</a>
</g>
</g>
<!-- Node47&#45;&gt;Node48 -->
<g id="edge66" class="edge"><title>Node47&#45;&gt;Node48</title>
<path fill="none" stroke="midnightblue" d="M371.999,-93.5665C386.99,-112.883 412.103,-144.674 435,-171 449.785,-187.999 467.891,-206.92 478.794,-218.122"/>
<polygon fill="midnightblue" stroke="midnightblue" points="374.752,-91.4054 365.868,-85.6338 369.214,-95.6863 374.752,-91.4054"/>
</g>
<!-- Node48&#45;&gt;Node43 -->
<g id="edge67" class="edge"><title>Node48&#45;&gt;Node43</title>
<path fill="none" stroke="midnightblue" d="M501.608,-246.25C512.902,-265.134 530.599,-295.641 544,-323 578.088,-392.591 611.69,-479.936 622.449,-508.493"/>
<polygon fill="midnightblue" stroke="midnightblue" points="504.501,-244.271 496.342,-237.514 498.506,-247.885 504.501,-244.271"/>
</g>
<!-- Node49 -->
<g id="node49" class="node"><title>Node49</title>
<g id="a_node49"><a xlink:href="../../df/d2d/lcorolib_8c.html#a76f5d80387eeb1c7d31eb5f9cb6c9392" target="_top" xlink:title="luaB_coresume">
<polygon fill="none" stroke="black" points="586,-218.5 586,-237.5 668,-237.5 668,-218.5 586,-218.5"/>
<text text-anchor="middle" x="627" y="-225.5" font-family="Helvetica,sans-Serif" font-size="10.00">luaB_coresume</text>
</a>
</g>
</g>
<!-- Node48&#45;&gt;Node49 -->
<g id="edge68" class="edge"><title>Node48&#45;&gt;Node49</title>
<path fill="none" stroke="midnightblue" d="M531.859,-228C548.989,-228 568.788,-228 585.795,-228"/>
<polygon fill="midnightblue" stroke="midnightblue" points="531.586,-224.5 521.586,-228 531.586,-231.5 531.586,-224.5"/>
</g>
<!-- Node50&#45;&gt;Node46 -->
<g id="edge71" class="edge"><title>Node50&#45;&gt;Node46</title>
<path fill="none" stroke="midnightblue" d="M166.826,-160.531C182.648,-154.578 202.218,-147.215 217.137,-141.602"/>
<polygon fill="midnightblue" stroke="midnightblue" points="165.184,-157.409 157.057,-164.206 167.649,-163.961 165.184,-157.409"/>
</g>
<!-- Node50&#45;&gt;Node47 -->
<g id="edge70" class="edge"><title>Node50&#45;&gt;Node47</title>
<path fill="none" stroke="midnightblue" d="M167.72,-173.626C197.902,-174.982 245.671,-173.028 280,-152 303.97,-137.317 295.435,-119.162 316,-100 321.98,-94.4283 329.467,-89.5474 336.373,-85.6677"/>
<polygon fill="midnightblue" stroke="midnightblue" points="167.647,-170.115 157.454,-173.006 167.225,-177.103 167.647,-170.115"/>
</g>
</g>
</svg>
