<?xml version="1.0" encoding="UTF-8" standalone="no"?>
<!DOCTYPE svg PUBLIC "-//W3C//DTD SVG 1.1//EN"
 "http://www.w3.org/Graphics/SVG/1.1/DTD/svg11.dtd">
<!-- Generated by graphviz version 2.38.0 (20140413.2041)
 -->
<!-- Title: luaV_arith Pages: 1 -->
<svg width="886pt" height="1149pt"
 viewBox="0.00 0.00 886.00 1148.61" xmlns="http://www.w3.org/2000/svg" xmlns:xlink="http://www.w3.org/1999/xlink">
<g id="graph0" class="graph" transform="scale(1 1) rotate(0) translate(4 1144.61)">
<title>luaV_arith</title>
<!-- Node1 -->
<g id="node1" class="node"><title>Node1</title>
<polygon fill="#bfbfbf" stroke="black" points="0,-741.115 0,-760.115 59,-760.115 59,-741.115 0,-741.115"/>
<text text-anchor="middle" x="29.5" y="-748.115" font-family="Helvetica,sans-Serif" font-size="10.00">luaV_arith</text>
</g>
<!-- Node2 -->
<g id="node2" class="node"><title>Node2</title>
<g id="a_node2"><a xlink:href="../../da/dd2/lua_8h.html#ab0a8e0d4a119fa51c2785e25d5b5aa08" target="_top" xlink:title="lua_arith">
<polygon fill="none" stroke="black" points="106,-779.115 106,-798.115 158,-798.115 158,-779.115 106,-779.115"/>
<text text-anchor="middle" x="132" y="-786.115" font-family="Helvetica,sans-Serif" font-size="10.00">lua_arith</text>
</a>
</g>
</g>
<!-- Node1&#45;&gt;Node2 -->
<g id="edge1" class="edge"><title>Node1&#45;&gt;Node2</title>
<path fill="none" stroke="midnightblue" d="M65.2676,-763.761C78.6673,-768.827 93.695,-774.51 105.996,-779.161"/>
<polygon fill="midnightblue" stroke="midnightblue" points="66.452,-760.467 55.8604,-760.204 63.9762,-767.015 66.452,-760.467"/>
</g>
<!-- Node3 -->
<g id="node3" class="node"><title>Node3</title>
<g id="a_node3"><a xlink:href="../../d5/dcd/lvm_8h.html#ae93565adc36c6e2157dbbd875433ede1" target="_top" xlink:title="luaV_execute">
<polygon fill="none" stroke="black" points="95,-741.115 95,-760.115 169,-760.115 169,-741.115 95,-741.115"/>
<text text-anchor="middle" x="132" y="-748.115" font-family="Helvetica,sans-Serif" font-size="10.00">luaV_execute</text>
</a>
</g>
</g>
<!-- Node1&#45;&gt;Node3 -->
<g id="edge2" class="edge"><title>Node1&#45;&gt;Node3</title>
<path fill="none" stroke="midnightblue" d="M69.0651,-750.615C77.5399,-750.615 86.484,-750.615 94.8592,-750.615"/>
<polygon fill="midnightblue" stroke="midnightblue" points="69.0305,-747.115 59.0304,-750.615 69.0304,-754.115 69.0305,-747.115"/>
</g>
<!-- Node4 -->
<g id="node4" class="node"><title>Node4</title>
<g id="a_node4"><a xlink:href="../../d2/dd9/ldo_8h.html#a7bb0b106d4012134156e0fa240f51228" target="_top" xlink:title="luaD_call">
<polygon fill="none" stroke="black" points="205,-893.115 205,-912.115 261,-912.115 261,-893.115 205,-893.115"/>
<text text-anchor="middle" x="233" y="-900.115" font-family="Helvetica,sans-Serif" font-size="10.00">luaD_call</text>
</a>
</g>
</g>
<!-- Node3&#45;&gt;Node4 -->
<g id="edge3" class="edge"><title>Node3&#45;&gt;Node4</title>
<path fill="none" stroke="midnightblue" d="M174.908,-768.411C198.698,-803.498 178.944,-829.982 205,-869.615 210.788,-878.419 220.607,-886.004 226.674,-892.721"/>
<polygon fill="midnightblue" stroke="midnightblue" points="177.568,-766.127 168.724,-760.293 171.999,-770.369 177.568,-766.127"/>
</g>
<!-- Node47 -->
<g id="node47" class="node"><title>Node47</title>
<g id="a_node47"><a xlink:href="../../d3/d08/ldo_8c.html#a3baab9d298c0c32cb74a9a079d7244de" target="_top" xlink:title="unroll">
<polygon fill="none" stroke="black" points="214,-1045.11 214,-1064.11 252,-1064.11 252,-1045.11 214,-1045.11"/>
<text text-anchor="middle" x="233" y="-1052.11" font-family="Helvetica,sans-Serif" font-size="10.00">unroll</text>
</a>
</g>
</g>
<!-- Node3&#45;&gt;Node47 -->
<g id="edge65" class="edge"><title>Node3&#45;&gt;Node47</title>
<path fill="none" stroke="midnightblue" d="M166,-766.231C167.082,-767.294 168.09,-768.421 169,-769.615 173.368,-775.345 219.726,-995.966 229.994,-1045.02"/>
<polygon fill="midnightblue" stroke="midnightblue" points="168.084,-763.419 158.015,-760.122 163.831,-768.978 168.084,-763.419"/>
</g>
<!-- Node50 -->
<g id="node50" class="node"><title>Node50</title>
<g id="a_node50"><a xlink:href="../../d3/d08/ldo_8c.html#abd7632c715de5db6e7797b7fa3f7010f" target="_top" xlink:title="resume">
<polygon fill="none" stroke="black" points="312.5,-1083.11 312.5,-1102.11 359.5,-1102.11 359.5,-1083.11 312.5,-1083.11"/>
<text text-anchor="middle" x="336" y="-1090.11" font-family="Helvetica,sans-Serif" font-size="10.00">resume</text>
</a>
</g>
</g>
<!-- Node3&#45;&gt;Node50 -->
<g id="edge71" class="edge"><title>Node3&#45;&gt;Node50</title>
<path fill="none" stroke="midnightblue" d="M166.544,-766.539C167.434,-767.509 168.258,-768.533 169,-769.615 245.993,-881.789 110.114,-976.107 205,-1073.61 232.758,-1102.14 283.077,-1100.61 312.302,-1096.74"/>
<polygon fill="midnightblue" stroke="midnightblue" points="168.651,-763.741 158.693,-760.123 164.222,-769.161 168.651,-763.741"/>
</g>
<!-- Node4&#45;&gt;Node3 -->
<g id="edge64" class="edge"><title>Node4&#45;&gt;Node3</title>
<path fill="none" stroke="midnightblue" d="M203.95,-884.548C179.786,-841.622 199.953,-815.209 169,-778.615 161.88,-770.198 150.069,-764.984 141.929,-760.158"/>
<polygon fill="midnightblue" stroke="midnightblue" points="200.971,-886.386 209.2,-893.06 206.929,-882.711 200.971,-886.386"/>
</g>
<!-- Node5 -->
<g id="node5" class="node"><title>Node5</title>
<g id="a_node5"><a xlink:href="../../dd/d4a/lvm_8c.html#aa904883a58699d9c6ef4d6f0f45037f6" target="_top" xlink:title="callTM">
<polygon fill="none" stroke="black" points="314,-703.115 314,-722.115 358,-722.115 358,-703.115 314,-703.115"/>
<text text-anchor="middle" x="336" y="-710.115" font-family="Helvetica,sans-Serif" font-size="10.00">callTM</text>
</a>
</g>
</g>
<!-- Node4&#45;&gt;Node5 -->
<g id="edge4" class="edge"><title>Node4&#45;&gt;Node5</title>
<path fill="none" stroke="midnightblue" d="M243.868,-884.051C264.927,-844.436 313.656,-752.767 329.742,-722.507"/>
<polygon fill="midnightblue" stroke="midnightblue" points="240.751,-882.459 239.147,-892.932 246.932,-885.745 240.751,-882.459"/>
</g>
<!-- Node32 -->
<g id="node32" class="node"><title>Node32</title>
<g id="a_node32"><a xlink:href="../../de/d27/lgc_8c.html#a929058f72c03750fa82374f6bfa639ee" target="_top" xlink:title="dothecall">
<polygon fill="none" stroke="black" points="309.5,-1007.11 309.5,-1026.11 362.5,-1026.11 362.5,-1007.11 309.5,-1007.11"/>
<text text-anchor="middle" x="336" y="-1014.11" font-family="Helvetica,sans-Serif" font-size="10.00">dothecall</text>
</a>
</g>
</g>
<!-- Node4&#45;&gt;Node32 -->
<g id="edge46" class="edge"><title>Node4&#45;&gt;Node32</title>
<path fill="none" stroke="midnightblue" d="M243.914,-920.982C255.019,-940.391 274.448,-971.107 297,-992.615 302.76,-998.108 309.962,-1003.03 316.543,-1006.97"/>
<polygon fill="midnightblue" stroke="midnightblue" points="246.951,-919.242 239.023,-912.213 240.837,-922.651 246.951,-919.242"/>
</g>
<!-- Node36 -->
<g id="node36" class="node"><title>Node36</title>
<g id="a_node36"><a xlink:href="../../df/db6/lapi_8c.html#ac3926c93fb08234f9f47e24653124910" target="_top" xlink:title="f_call">
<polygon fill="none" stroke="black" points="317,-931.115 317,-950.115 355,-950.115 355,-931.115 317,-931.115"/>
<text text-anchor="middle" x="336" y="-938.115" font-family="Helvetica,sans-Serif" font-size="10.00">f_call</text>
</a>
</g>
</g>
<!-- Node4&#45;&gt;Node36 -->
<g id="edge50" class="edge"><title>Node4&#45;&gt;Node36</title>
<path fill="none" stroke="midnightblue" d="M269.137,-915.835C285.219,-921.885 303.599,-928.801 316.848,-933.786"/>
<polygon fill="midnightblue" stroke="midnightblue" points="270.079,-912.45 259.487,-912.204 267.614,-919.001 270.079,-912.45"/>
</g>
<!-- Node37 -->
<g id="node37" class="node"><title>Node37</title>
<g id="a_node37"><a xlink:href="../../da/dd2/lua_8h.html#a3c4de08aa665eaee4aabd330aa99a441" target="_top" xlink:title="lua_pcallk">
<polygon fill="none" stroke="black" points="423,-969.115 423,-988.115 482,-988.115 482,-969.115 423,-969.115"/>
<text text-anchor="middle" x="452.5" y="-976.115" font-family="Helvetica,sans-Serif" font-size="10.00">lua_pcallk</text>
</a>
</g>
</g>
<!-- Node4&#45;&gt;Node37 -->
<g id="edge56" class="edge"><title>Node4&#45;&gt;Node37</title>
<path fill="none" stroke="midnightblue" d="M248.048,-920.178C259.675,-933.375 277.414,-950.658 297,-959.615 337.798,-978.272 390.649,-980.722 422.767,-980.139"/>
<polygon fill="midnightblue" stroke="midnightblue" points="250.458,-917.607 241.332,-912.224 245.109,-922.123 250.458,-917.607"/>
</g>
<!-- Node40 -->
<g id="node40" class="node"><title>Node40</title>
<g id="a_node40"><a xlink:href="../../da/dd2/lua_8h.html#aa6aba1fd89ac6f1c5ccfdfd12f826d80" target="_top" xlink:title="lua_callk">
<polygon fill="none" stroke="black" points="309.5,-893.115 309.5,-912.115 362.5,-912.115 362.5,-893.115 309.5,-893.115"/>
<text text-anchor="middle" x="336" y="-900.115" font-family="Helvetica,sans-Serif" font-size="10.00">lua_callk</text>
</a>
</g>
</g>
<!-- Node4&#45;&gt;Node40 -->
<g id="edge54" class="edge"><title>Node4&#45;&gt;Node40</title>
<path fill="none" stroke="midnightblue" d="M271.313,-902.615C283.932,-902.615 297.734,-902.615 309.252,-902.615"/>
<polygon fill="midnightblue" stroke="midnightblue" points="271.066,-899.115 261.066,-902.615 271.066,-906.115 271.066,-899.115"/>
</g>
<!-- Node42 -->
<g id="node42" class="node"><title>Node42</title>
<g id="a_node42"><a xlink:href="../../db/d46/ldebug_8h.html#acd5ef9f67a8e9d08f6540636fdbeafe6" target="_top" xlink:title="luaG_errormsg">
<polygon fill="none" stroke="black" points="297,-817.115 297,-836.115 375,-836.115 375,-817.115 297,-817.115"/>
<text text-anchor="middle" x="336" y="-824.115" font-family="Helvetica,sans-Serif" font-size="10.00">luaG_errormsg</text>
</a>
</g>
</g>
<!-- Node4&#45;&gt;Node42 -->
<g id="edge57" class="edge"><title>Node4&#45;&gt;Node42</title>
<path fill="none" stroke="midnightblue" d="M254.82,-886.948C275.13,-871.666 305.367,-848.913 322.312,-836.162"/>
<polygon fill="midnightblue" stroke="midnightblue" points="252.678,-884.18 246.792,-892.99 256.887,-889.773 252.678,-884.18"/>
</g>
<!-- Node6 -->
<g id="node6" class="node"><title>Node6</title>
<g id="a_node6"><a xlink:href="../../dd/d4a/lvm_8c.html#a5f9dd797eb313b8e117cb20546276732" target="_top" xlink:title="call_binTM">
<polygon fill="none" stroke="black" points="421.5,-1.11496 421.5,-20.115 483.5,-20.115 483.5,-1.11496 421.5,-1.11496"/>
<text text-anchor="middle" x="452.5" y="-8.11496" font-family="Helvetica,sans-Serif" font-size="10.00">call_binTM</text>
</a>
</g>
</g>
<!-- Node5&#45;&gt;Node6 -->
<g id="edge5" class="edge"><title>Node5&#45;&gt;Node6</title>
<path fill="none" stroke="midnightblue" d="M340.235,-692.781C357.422,-587.408 437.708,-95.1736 449.937,-20.2001"/>
<polygon fill="midnightblue" stroke="midnightblue" points="336.731,-692.525 338.575,-702.958 343.639,-693.652 336.731,-692.525"/>
</g>
<!-- Node17 -->
<g id="node17" class="node"><title>Node17</title>
<g id="a_node17"><a xlink:href="../../d5/dcd/lvm_8h.html#adacdbccc9d8fab937a1b0dc058c8da12" target="_top" xlink:title="luaV_gettable">
<polygon fill="none" stroke="black" points="684.5,-342.115 684.5,-361.115 759.5,-361.115 759.5,-342.115 684.5,-342.115"/>
<text text-anchor="middle" x="722" y="-349.115" font-family="Helvetica,sans-Serif" font-size="10.00">luaV_gettable</text>
</a>
</g>
</g>
<!-- Node5&#45;&gt;Node17 -->
<g id="edge43" class="edge"><title>Node5&#45;&gt;Node17</title>
<path fill="none" stroke="midnightblue" d="M352.051,-695.382C382.49,-661.494 454.879,-585.654 530,-541.615 574.259,-515.668 599.952,-536.891 639,-503.615 686.469,-463.163 710.934,-388.102 718.439,-361.376"/>
<polygon fill="midnightblue" stroke="midnightblue" points="349.265,-693.249 345.24,-703.05 354.498,-697.898 349.265,-693.249"/>
</g>
<!-- Node21 -->
<g id="node21" class="node"><title>Node21</title>
<g id="a_node21"><a xlink:href="../../d5/dcd/lvm_8h.html#a414b4b487239935324f2f16e1e7715db" target="_top" xlink:title="luaV_objlen">
<polygon fill="none" stroke="black" points="688.5,-741.115 688.5,-760.115 755.5,-760.115 755.5,-741.115 688.5,-741.115"/>
<text text-anchor="middle" x="722" y="-748.115" font-family="Helvetica,sans-Serif" font-size="10.00">luaV_objlen</text>
</a>
</g>
</g>
<!-- Node5&#45;&gt;Node21 -->
<g id="edge44" class="edge"><title>Node5&#45;&gt;Node21</title>
<path fill="none" stroke="midnightblue" d="M368.243,-719.313C381.391,-721.926 396.887,-724.739 411,-726.615 511.599,-739.984 631.628,-746.661 688.296,-749.264"/>
<polygon fill="midnightblue" stroke="midnightblue" points="368.77,-715.848 358.272,-717.281 367.372,-722.707 368.77,-715.848"/>
</g>
<!-- Node23 -->
<g id="node23" class="node"><title>Node23</title>
<g id="a_node23"><a xlink:href="../../d5/dcd/lvm_8h.html#a5885d48fd66eb236f8b8f6e4938cbcce" target="_top" xlink:title="luaV_settable">
<polygon fill="none" stroke="black" points="684.5,-627.115 684.5,-646.115 759.5,-646.115 759.5,-627.115 684.5,-627.115"/>
<text text-anchor="middle" x="722" y="-634.115" font-family="Helvetica,sans-Serif" font-size="10.00">luaV_settable</text>
</a>
</g>
</g>
<!-- Node5&#45;&gt;Node23 -->
<g id="edge45" class="edge"><title>Node5&#45;&gt;Node23</title>
<path fill="none" stroke="midnightblue" d="M368.521,-714.994C424.562,-718.166 544.523,-720.157 639,-688.615 666.982,-679.273 695.026,-658.404 709.971,-646.132"/>
<polygon fill="midnightblue" stroke="midnightblue" points="368.389,-711.479 358.191,-714.353 367.955,-718.465 368.389,-711.479"/>
</g>
<!-- Node31 -->
<g id="node31" class="node"><title>Node31</title>
<g id="a_node31"><a xlink:href="../../d5/dcd/lvm_8h.html#ab77cced08254efde4e5dfb28b37a7f31" target="_top" xlink:title="luaV_equalobj_">
<polygon fill="none" stroke="black" points="411,-665.115 411,-684.115 494,-684.115 494,-665.115 411,-665.115"/>
<text text-anchor="middle" x="452.5" y="-672.115" font-family="Helvetica,sans-Serif" font-size="10.00">luaV_equalobj_</text>
</a>
</g>
</g>
<!-- Node5&#45;&gt;Node31 -->
<g id="edge42" class="edge"><title>Node5&#45;&gt;Node31</title>
<path fill="none" stroke="midnightblue" d="M367.568,-702.47C384.736,-696.772 406.028,-689.706 422.87,-684.117"/>
<polygon fill="midnightblue" stroke="midnightblue" points="366.39,-699.173 358.001,-705.645 368.595,-705.817 366.39,-699.173"/>
</g>
<!-- Node6&#45;&gt;Node1 -->
<g id="edge7" class="edge"><title>Node6&#45;&gt;Node1</title>
<path fill="none" stroke="midnightblue" d="M411.098,-3.82161C357.065,2.79075 261.535,5.44975 205,-45.615 94.3525,-145.556 39.2151,-662.528 31.4572,-740.706"/>
<polygon fill="midnightblue" stroke="midnightblue" points="410.953,-7.3331 421.328,-5.18204 411.876,-0.394194 410.953,-7.3331"/>
</g>
<!-- Node7 -->
<g id="node7" class="node"><title>Node7</title>
<g id="a_node7"><a xlink:href="../../dd/d4a/lvm_8c.html#a1d1301ff4a771ce4198673dd113d10a5" target="_top" xlink:title="call_orderTM">
<polygon fill="none" stroke="red" points="550,-1.11496 550,-20.115 619,-20.115 619,-1.11496 550,-1.11496"/>
<text text-anchor="middle" x="584.5" y="-8.11496" font-family="Helvetica,sans-Serif" font-size="10.00">call_orderTM</text>
</a>
</g>
</g>
<!-- Node6&#45;&gt;Node7 -->
<g id="edge6" class="edge"><title>Node6&#45;&gt;Node7</title>
<path fill="none" stroke="midnightblue" d="M493.841,-10.615C511.814,-10.615 532.74,-10.615 549.853,-10.615"/>
<polygon fill="midnightblue" stroke="midnightblue" points="493.651,-7.11506 483.651,-10.615 493.651,-14.1151 493.651,-7.11506"/>
</g>
<!-- Node8 -->
<g id="node8" class="node"><title>Node8</title>
<g id="a_node8"><a xlink:href="../../d5/dcd/lvm_8h.html#aee84bfc563cb4bdd21a013218a289aa7" target="_top" xlink:title="luaV_concat">
<polygon fill="none" stroke="red" points="550,-39.115 550,-58.115 619,-58.115 619,-39.115 550,-39.115"/>
<text text-anchor="middle" x="584.5" y="-46.115" font-family="Helvetica,sans-Serif" font-size="10.00">luaV_concat</text>
</a>
</g>
</g>
<!-- Node6&#45;&gt;Node8 -->
<g id="edge8" class="edge"><title>Node6&#45;&gt;Node8</title>
<path fill="none" stroke="midnightblue" d="M493.49,-22.3044C511.866,-27.6758 533.389,-33.967 550.779,-39.0505"/>
<polygon fill="midnightblue" stroke="midnightblue" points="494.232,-18.8748 483.651,-19.4284 492.268,-25.5936 494.232,-18.8748"/>
</g>
<!-- Node8&#45;&gt;Node3 -->
<g id="edge41" class="edge"><title>Node8&#45;&gt;Node3</title>
<path fill="none" stroke="midnightblue" d="M539.85,-44.6957C450.625,-37.7128 251.812,-27.7499 205,-72.615 154.366,-121.143 135.775,-660.912 133.294,-740.767"/>
<polygon fill="midnightblue" stroke="midnightblue" points="539.667,-48.1923 549.916,-45.5076 540.23,-41.2149 539.667,-48.1923"/>
</g>
<!-- Node9 -->
<g id="node9" class="node"><title>Node9</title>
<g id="a_node9"><a xlink:href="../../d2/d51/lobject_8h.html#a0d323372aa00f179e1c070d305f879f3" target="_top" xlink:title="luaO_pushvfstring">
<polygon fill="none" stroke="red" points="675,-124.115 675,-143.115 769,-143.115 769,-124.115 675,-124.115"/>
<text text-anchor="middle" x="722" y="-131.115" font-family="Helvetica,sans-Serif" font-size="10.00">luaO_pushvfstring</text>
</a>
</g>
</g>
<!-- Node8&#45;&gt;Node9 -->
<g id="edge9" class="edge"><title>Node8&#45;&gt;Node9</title>
<path fill="none" stroke="midnightblue" d="M619.299,-62.4296C625.963,-65.5265 632.806,-68.9805 639,-72.615 665.934,-88.4189 694.591,-111.324 709.872,-124.097"/>
<polygon fill="midnightblue" stroke="midnightblue" points="620.318,-59.0515 609.76,-58.1684 617.463,-65.4428 620.318,-59.0515"/>
</g>
<!-- Node10 -->
<g id="node10" class="node"><title>Node10</title>
<g id="a_node10"><a xlink:href="../../db/d46/ldebug_8h.html#a6f27f64630215e18a11be9ba21d3c4bf" target="_top" xlink:title="luaG_runerror">
<polygon fill="none" stroke="black" points="416,-380.115 416,-399.115 489,-399.115 489,-380.115 416,-380.115"/>
<text text-anchor="middle" x="452.5" y="-387.115" font-family="Helvetica,sans-Serif" font-size="10.00">luaG_runerror</text>
</a>
</g>
</g>
<!-- Node9&#45;&gt;Node10 -->
<g id="edge10" class="edge"><title>Node9&#45;&gt;Node10</title>
<path fill="none" stroke="midnightblue" d="M664.878,-139.847C622.976,-143.574 566.825,-153.075 530,-185.615 468.758,-239.732 456.532,-346.522 454.101,-379.839"/>
<polygon fill="midnightblue" stroke="midnightblue" points="665.248,-143.329 674.933,-139.034 664.684,-136.352 665.248,-143.329"/>
</g>
<!-- Node10&#45;&gt;Node3 -->
<g id="edge37" class="edge"><title>Node10&#45;&gt;Node3</title>
<path fill="none" stroke="midnightblue" d="M430.838,-405.521C385.795,-440.916 277.033,-530.368 205,-622.615 173.459,-663.007 147.061,-718.879 137.174,-741.022"/>
<polygon fill="midnightblue" stroke="midnightblue" points="433.236,-408.089 438.967,-399.178 428.93,-402.57 433.236,-408.089"/>
</g>
<!-- Node10&#45;&gt;Node4 -->
<g id="edge14" class="edge"><title>Node10&#45;&gt;Node4</title>
<path fill="none" stroke="midnightblue" d="M440.713,-407.961C413.696,-454.468 342.065,-581.273 297,-693.615 267.088,-768.182 243.513,-862.578 236.293,-892.823"/>
<polygon fill="midnightblue" stroke="midnightblue" points="443.756,-409.69 445.776,-399.289 437.711,-406.161 443.756,-409.69"/>
</g>
<!-- Node10&#45;&gt;Node8 -->
<g id="edge36" class="edge"><title>Node10&#45;&gt;Node8</title>
<path fill="none" stroke="midnightblue" d="M455.875,-369.785C462.171,-322.48 482.197,-200.284 530,-110.615 541.102,-89.7888 560.302,-69.9023 572.429,-58.4937"/>
<polygon fill="midnightblue" stroke="midnightblue" points="452.378,-369.536 454.589,-379.898 459.322,-370.419 452.378,-369.536"/>
</g>
<!-- Node10&#45;&gt;Node9 -->
<g id="edge35" class="edge"><title>Node10&#45;&gt;Node9</title>
<path fill="none" stroke="midnightblue" d="M454.207,-369.687C456.877,-325.598 469.599,-220.989 530,-167.615 569.861,-132.391 632.367,-124.164 674.933,-125.146"/>
<polygon fill="midnightblue" stroke="midnightblue" points="450.707,-369.591 453.713,-379.751 457.699,-369.934 450.707,-369.591"/>
</g>
<!-- Node11 -->
<g id="node11" class="node"><title>Node11</title>
<g id="a_node11"><a xlink:href="../../dc/d1e/ltable_8c.html#a4c78714b16a133fb409681f8ca4240be" target="_top" xlink:title="findindex">
<polygon fill="none" stroke="red" points="558,-361.115 558,-380.115 611,-380.115 611,-361.115 558,-361.115"/>
<text text-anchor="middle" x="584.5" y="-368.115" font-family="Helvetica,sans-Serif" font-size="10.00">findindex</text>
</a>
</g>
</g>
<!-- Node10&#45;&gt;Node11 -->
<g id="edge11" class="edge"><title>Node10&#45;&gt;Node11</title>
<path fill="none" stroke="midnightblue" d="M499.059,-382.956C518.792,-380.072 541.159,-376.803 557.913,-374.355"/>
<polygon fill="midnightblue" stroke="midnightblue" points="498.412,-379.514 489.023,-384.423 499.424,-386.44 498.412,-379.514"/>
</g>
<!-- Node12 -->
<g id="node12" class="node"><title>Node12</title>
<g id="a_node12"><a xlink:href="../../da/dd2/lua_8h.html#a77807056ba032d64b2def2b57dc53d53" target="_top" xlink:title="lua_pushnumber">
<polygon fill="none" stroke="red" points="540.5,-323.115 540.5,-342.115 628.5,-342.115 628.5,-323.115 540.5,-323.115"/>
<text text-anchor="middle" x="584.5" y="-330.115" font-family="Helvetica,sans-Serif" font-size="10.00">lua_pushnumber</text>
</a>
</g>
</g>
<!-- Node10&#45;&gt;Node12 -->
<g id="edge12" class="edge"><title>Node10&#45;&gt;Node12</title>
<path fill="none" stroke="midnightblue" d="M480.087,-375.427C494.633,-367.915 513.089,-358.787 530,-351.615 537.894,-348.267 546.602,-345 554.658,-342.146"/>
<polygon fill="midnightblue" stroke="midnightblue" points="478.393,-372.363 471.147,-380.094 481.632,-378.569 478.393,-372.363"/>
</g>
<!-- Node13 -->
<g id="node13" class="node"><title>Node13</title>
<g id="a_node13"><a xlink:href="../../da/dd2/lua_8h.html#ab717ff0354e9c39199b16a1c412fa252" target="_top" xlink:title="lua_yieldk">
<polygon fill="none" stroke="black" points="555.5,-285.115 555.5,-304.115 613.5,-304.115 613.5,-285.115 555.5,-285.115"/>
<text text-anchor="middle" x="584.5" y="-292.115" font-family="Helvetica,sans-Serif" font-size="10.00">lua_yieldk</text>
</a>
</g>
</g>
<!-- Node10&#45;&gt;Node13 -->
<g id="edge13" class="edge"><title>Node10&#45;&gt;Node13</title>
<path fill="none" stroke="midnightblue" d="M467.211,-372.056C481.326,-355.025 504.768,-329.493 530,-313.615 537.758,-308.733 546.94,-304.89 555.488,-301.976"/>
<polygon fill="midnightblue" stroke="midnightblue" points="464.281,-370.113 460.719,-380.091 469.726,-374.512 464.281,-370.113"/>
</g>
<!-- Node14 -->
<g id="node14" class="node"><title>Node14</title>
<g id="a_node14"><a xlink:href="../../d2/dd9/ldo_8h.html#ab83418a7edbfafe87886f156aa6a9988" target="_top" xlink:title="luaD_growstack">
<polygon fill="none" stroke="red" points="541.5,-247.115 541.5,-266.115 627.5,-266.115 627.5,-247.115 541.5,-247.115"/>
<text text-anchor="middle" x="584.5" y="-254.115" font-family="Helvetica,sans-Serif" font-size="10.00">luaD_growstack</text>
</a>
</g>
</g>
<!-- Node10&#45;&gt;Node14 -->
<g id="edge15" class="edge"><title>Node10&#45;&gt;Node14</title>
<path fill="none" stroke="midnightblue" d="M461.581,-370.621C473.197,-345.473 496.914,-301.32 530,-275.615 534.981,-271.745 540.816,-268.622 546.766,-266.115"/>
<polygon fill="midnightblue" stroke="midnightblue" points="458.349,-369.276 457.476,-379.835 464.743,-372.124 458.349,-369.276"/>
</g>
<!-- Node15 -->
<g id="node15" class="node"><title>Node15</title>
<g id="a_node15"><a xlink:href="../../db/d46/ldebug_8h.html#a7ae9c3f6343c93b4a8bb80e68706a6a3" target="_top" xlink:title="luaG_ordererror">
<polygon fill="none" stroke="red" points="544.5,-209.115 544.5,-228.115 624.5,-228.115 624.5,-209.115 544.5,-209.115"/>
<text text-anchor="middle" x="584.5" y="-216.115" font-family="Helvetica,sans-Serif" font-size="10.00">luaG_ordererror</text>
</a>
</g>
</g>
<!-- Node10&#45;&gt;Node15 -->
<g id="edge16" class="edge"><title>Node10&#45;&gt;Node15</title>
<path fill="none" stroke="midnightblue" d="M458.28,-369.922C467.067,-337.777 488.78,-273.979 530,-237.615 534.361,-233.768 539.553,-230.685 544.963,-228.218"/>
<polygon fill="midnightblue" stroke="midnightblue" points="454.821,-369.317 455.7,-379.875 461.597,-371.073 454.821,-369.317"/>
</g>
<!-- Node16 -->
<g id="node16" class="node"><title>Node16</title>
<g id="a_node16"><a xlink:href="../../db/d46/ldebug_8h.html#a375161dd1513420561f20f0b4c7b7e66" target="_top" xlink:title="luaG_typeerror">
<polygon fill="none" stroke="red" points="545,-551.115 545,-570.115 624,-570.115 624,-551.115 545,-551.115"/>
<text text-anchor="middle" x="584.5" y="-558.115" font-family="Helvetica,sans-Serif" font-size="10.00">luaG_typeerror</text>
</a>
</g>
</g>
<!-- Node10&#45;&gt;Node16 -->
<g id="edge17" class="edge"><title>Node10&#45;&gt;Node16</title>
<path fill="none" stroke="midnightblue" d="M464.464,-407.872C478.597,-430.929 504.41,-471.472 530,-503.615 544.033,-521.241 562.362,-539.975 573.515,-550.969"/>
<polygon fill="midnightblue" stroke="midnightblue" points="467.34,-405.865 459.157,-399.136 461.358,-409.5 467.34,-405.865"/>
</g>
<!-- Node10&#45;&gt;Node17 -->
<g id="edge38" class="edge"><title>Node10&#45;&gt;Node17</title>
<path fill="none" stroke="midnightblue" d="M454.613,-369.689C458.068,-329.37 472.212,-238.644 530,-199.615 570.146,-172.501 597.4,-174.79 639,-199.615 693.07,-231.882 713.61,-313.494 719.246,-341.781"/>
<polygon fill="midnightblue" stroke="midnightblue" points="451.109,-369.623 453.883,-379.848 458.091,-370.125 451.109,-369.623"/>
</g>
<!-- Node10&#45;&gt;Node23 -->
<g id="edge39" class="edge"><title>Node10&#45;&gt;Node23</title>
<path fill="none" stroke="midnightblue" d="M453.498,-409.729C454.69,-455.082 464.532,-565.415 530,-617.615 573.773,-652.516 642.35,-649.792 684.325,-643.795"/>
<polygon fill="midnightblue" stroke="midnightblue" points="456.993,-409.393 453.352,-399.444 449.994,-409.492 456.993,-409.393"/>
</g>
<!-- Node27 -->
<g id="node27" class="node"><title>Node27</title>
<g id="a_node27"><a xlink:href="../../d3/d44/ltable_8h.html#a61547e63b2d74aa68da53a7fd235e77e" target="_top" xlink:title="luaH_newkey">
<polygon fill="none" stroke="red" points="547,-589.115 547,-608.115 622,-608.115 622,-589.115 547,-589.115"/>
<text text-anchor="middle" x="584.5" y="-596.115" font-family="Helvetica,sans-Serif" font-size="10.00">luaH_newkey</text>
</a>
</g>
</g>
<!-- Node10&#45;&gt;Node27 -->
<g id="edge31" class="edge"><title>Node10&#45;&gt;Node27</title>
<path fill="none" stroke="midnightblue" d="M456.118,-409.821C462.138,-448.213 480.466,-532.097 530,-579.615 534.766,-584.187 540.701,-587.667 546.868,-590.314"/>
<polygon fill="midnightblue" stroke="midnightblue" points="459.515,-408.856 454.624,-399.458 452.586,-409.855 459.515,-408.856"/>
</g>
<!-- Node28 -->
<g id="node28" class="node"><title>Node28</title>
<g id="a_node28"><a xlink:href="../../d7/d3e/lmem_8h.html#a9adb7e11025b0b91454ae7949bc8d370" target="_top" xlink:title="luaM_growaux_">
<polygon fill="none" stroke="black" points="541.5,-437.115 541.5,-456.115 627.5,-456.115 627.5,-437.115 541.5,-437.115"/>
<text text-anchor="middle" x="584.5" y="-444.115" font-family="Helvetica,sans-Serif" font-size="10.00">luaM_growaux_</text>
</a>
</g>
</g>
<!-- Node10&#45;&gt;Node28 -->
<g id="edge33" class="edge"><title>Node10&#45;&gt;Node28</title>
<path fill="none" stroke="midnightblue" d="M480.087,-403.803C494.633,-411.314 513.089,-420.443 530,-427.615 537.894,-430.963 546.602,-434.23 554.658,-437.084"/>
<polygon fill="midnightblue" stroke="midnightblue" points="481.632,-400.661 471.147,-399.136 478.393,-406.866 481.632,-400.661"/>
</g>
<!-- Node29 -->
<g id="node29" class="node"><title>Node29</title>
<g id="a_node29"><a xlink:href="../../d7/d3e/lmem_8h.html#a23b8703b7b50e1c5dd37d41569a09a9a" target="_top" xlink:title="luaM_toobig">
<polygon fill="none" stroke="red" points="550.5,-399.115 550.5,-418.115 618.5,-418.115 618.5,-399.115 550.5,-399.115"/>
<text text-anchor="middle" x="584.5" y="-406.115" font-family="Helvetica,sans-Serif" font-size="10.00">luaM_toobig</text>
</a>
</g>
</g>
<!-- Node10&#45;&gt;Node29 -->
<g id="edge34" class="edge"><title>Node10&#45;&gt;Node29</title>
<path fill="none" stroke="midnightblue" d="M499.205,-396.295C516.024,-398.753 534.739,-401.488 550.254,-403.756"/>
<polygon fill="midnightblue" stroke="midnightblue" points="499.424,-392.79 489.023,-394.807 498.412,-399.716 499.424,-392.79"/>
</g>
<!-- Node30 -->
<g id="node30" class="node"><title>Node30</title>
<g id="a_node30"><a xlink:href="../../dc/d1e/ltable_8c.html#ad5ff1c819f2ab4e96904822b915ae290" target="_top" xlink:title="setnodevector">
<polygon fill="none" stroke="red" points="547,-475.115 547,-494.115 622,-494.115 622,-475.115 547,-475.115"/>
<text text-anchor="middle" x="584.5" y="-482.115" font-family="Helvetica,sans-Serif" font-size="10.00">setnodevector</text>
</a>
</g>
</g>
<!-- Node10&#45;&gt;Node30 -->
<g id="edge40" class="edge"><title>Node10&#45;&gt;Node30</title>
<path fill="none" stroke="midnightblue" d="M467.211,-407.174C481.326,-424.205 504.768,-449.737 530,-465.615 535.923,-469.342 542.676,-472.464 549.342,-475.028"/>
<polygon fill="midnightblue" stroke="midnightblue" points="469.726,-404.718 460.719,-399.138 464.281,-409.117 469.726,-404.718"/>
</g>
<!-- Node16&#45;&gt;Node17 -->
<g id="edge18" class="edge"><title>Node16&#45;&gt;Node17</title>
<path fill="none" stroke="midnightblue" d="M626.215,-546.298C630.875,-543.559 635.28,-540.352 639,-536.615 691.547,-483.833 713.298,-391.6 719.222,-361.454"/>
<polygon fill="midnightblue" stroke="midnightblue" points="624.347,-543.322 617.051,-551.004 627.545,-549.549 624.347,-543.322"/>
</g>
<!-- Node16&#45;&gt;Node21 -->
<g id="edge23" class="edge"><title>Node16&#45;&gt;Node21</title>
<path fill="none" stroke="midnightblue" d="M632.899,-574.937C635.061,-576.354 637.112,-577.909 639,-579.615 666.731,-604.674 658.856,-621.906 675,-655.615 689.96,-686.851 707.903,-723.746 716.271,-740.918"/>
<polygon fill="midnightblue" stroke="midnightblue" points="634.571,-571.862 624.12,-570.126 631.207,-578.001 634.571,-571.862"/>
</g>
<!-- Node16&#45;&gt;Node23 -->
<g id="edge26" class="edge"><title>Node16&#45;&gt;Node23</title>
<path fill="none" stroke="midnightblue" d="M626.389,-573.853C630.717,-575.632 634.995,-577.559 639,-579.615 665.837,-593.394 694.074,-614.775 709.41,-627.058"/>
<polygon fill="midnightblue" stroke="midnightblue" points="627.515,-570.536 616.926,-570.203 624.997,-577.067 627.515,-570.536"/>
</g>
<!-- Node17&#45;&gt;Node3 -->
<g id="edge22" class="edge"><title>Node17&#45;&gt;Node3</title>
<path fill="none" stroke="midnightblue" d="M716.444,-331.986C707.352,-296.721 683.864,-222.09 639,-176.615 574.644,-111.382 545.136,-86.615 453.5,-86.615 335,-86.615 335,-86.615 335,-86.615 191.763,-86.615 140.352,-659.318 133.75,-740.972"/>
<polygon fill="midnightblue" stroke="midnightblue" points="713.111,-333.091 718.898,-341.966 719.908,-331.419 713.111,-333.091"/>
</g>
<!-- Node18 -->
<g id="node18" class="node"><title>Node18</title>
<g id="a_node18"><a xlink:href="../../da/dd2/lua_8h.html#a2b4a9010af0545ae0f822d7f081370d0" target="_top" xlink:title="lua_getglobal">
<polygon fill="none" stroke="red" points="805,-342.115 805,-361.115 878,-361.115 878,-342.115 805,-342.115"/>
<text text-anchor="middle" x="841.5" y="-349.115" font-family="Helvetica,sans-Serif" font-size="10.00">lua_getglobal</text>
</a>
</g>
</g>
<!-- Node17&#45;&gt;Node18 -->
<g id="edge19" class="edge"><title>Node17&#45;&gt;Node18</title>
<path fill="none" stroke="midnightblue" d="M769.605,-351.615C781.32,-351.615 793.708,-351.615 804.795,-351.615"/>
<polygon fill="midnightblue" stroke="midnightblue" points="769.534,-348.115 759.534,-351.615 769.534,-355.115 769.534,-348.115"/>
</g>
<!-- Node19 -->
<g id="node19" class="node"><title>Node19</title>
<g id="a_node19"><a xlink:href="../../da/dd2/lua_8h.html#a8d82fa181a3003e9a304040c0bbed9ac" target="_top" xlink:title="lua_gettable">
<polygon fill="none" stroke="red" points="807.5,-304.115 807.5,-323.115 875.5,-323.115 875.5,-304.115 807.5,-304.115"/>
<text text-anchor="middle" x="841.5" y="-311.115" font-family="Helvetica,sans-Serif" font-size="10.00">lua_gettable</text>
</a>
</g>
</g>
<!-- Node17&#45;&gt;Node19 -->
<g id="edge20" class="edge"><title>Node17&#45;&gt;Node19</title>
<path fill="none" stroke="midnightblue" d="M762.209,-338.935C778.085,-333.8 796.11,-327.971 810.859,-323.201"/>
<polygon fill="midnightblue" stroke="midnightblue" points="761.088,-335.619 752.65,-342.026 763.242,-342.279 761.088,-335.619"/>
</g>
<!-- Node20 -->
<g id="node20" class="node"><title>Node20</title>
<g id="a_node20"><a xlink:href="../../da/dd2/lua_8h.html#ac3112bb28ba217adc46f13da8e9e6585" target="_top" xlink:title="lua_getfield">
<polygon fill="none" stroke="red" points="810,-380.115 810,-399.115 873,-399.115 873,-380.115 810,-380.115"/>
<text text-anchor="middle" x="841.5" y="-387.115" font-family="Helvetica,sans-Serif" font-size="10.00">lua_getfield</text>
</a>
</g>
</g>
<!-- Node17&#45;&gt;Node20 -->
<g id="edge21" class="edge"><title>Node17&#45;&gt;Node20</title>
<path fill="none" stroke="midnightblue" d="M762.209,-364.295C778.085,-369.43 796.11,-375.259 810.859,-380.029"/>
<polygon fill="midnightblue" stroke="midnightblue" points="763.242,-360.951 752.65,-361.204 761.088,-367.611 763.242,-360.951"/>
</g>
<!-- Node21&#45;&gt;Node3 -->
<g id="edge25" class="edge"><title>Node21&#45;&gt;Node3</title>
<path fill="none" stroke="midnightblue" d="M718.319,-770.418C712.081,-807.735 692.785,-887.757 639,-921.615 598.002,-947.423 577.844,-929.221 530,-921.615 422.426,-904.514 396.21,-890.582 297,-845.615 236.74,-818.302 226.719,-801.955 169,-769.615 163.451,-766.506 157.355,-763.235 151.781,-760.299"/>
<polygon fill="midnightblue" stroke="midnightblue" points="721.814,-770.719 719.86,-760.306 714.894,-769.664 721.814,-770.719"/>
</g>
<!-- Node22 -->
<g id="node22" class="node"><title>Node22</title>
<g id="a_node22"><a xlink:href="../../da/dd2/lua_8h.html#ac7ade66f92b5e325c42371926f879818" target="_top" xlink:title="lua_len">
<polygon fill="none" stroke="red" points="818,-741.115 818,-760.115 865,-760.115 865,-741.115 818,-741.115"/>
<text text-anchor="middle" x="841.5" y="-748.115" font-family="Helvetica,sans-Serif" font-size="10.00">lua_len</text>
</a>
</g>
</g>
<!-- Node21&#45;&gt;Node22 -->
<g id="edge24" class="edge"><title>Node21&#45;&gt;Node22</title>
<path fill="none" stroke="midnightblue" d="M765.836,-750.615C783.498,-750.615 803.236,-750.615 817.98,-750.615"/>
<polygon fill="midnightblue" stroke="midnightblue" points="765.73,-747.115 755.73,-750.615 765.73,-754.115 765.73,-747.115"/>
</g>
<!-- Node23&#45;&gt;Node3 -->
<g id="edge30" class="edge"><title>Node23&#45;&gt;Node3</title>
<path fill="none" stroke="midnightblue" d="M674.055,-642.302C662.6,-643.542 650.37,-644.743 639,-645.615 537.866,-653.374 510.741,-637.177 411,-655.615 358.482,-665.323 347.558,-676.403 297,-693.615 248.776,-710.032 192.751,-729.614 160.24,-741.028"/>
<polygon fill="midnightblue" stroke="midnightblue" points="674.759,-645.746 684.31,-641.161 673.984,-638.789 674.759,-645.746"/>
</g>
<!-- Node24 -->
<g id="node24" class="node"><title>Node24</title>
<g id="a_node24"><a xlink:href="../../da/dd2/lua_8h.html#ac0ebe7d753b81f6249dde8cf0b8ea997" target="_top" xlink:title="lua_setglobal">
<polygon fill="none" stroke="red" points="805,-589.115 805,-608.115 878,-608.115 878,-589.115 805,-589.115"/>
<text text-anchor="middle" x="841.5" y="-596.115" font-family="Helvetica,sans-Serif" font-size="10.00">lua_setglobal</text>
</a>
</g>
</g>
<!-- Node23&#45;&gt;Node24 -->
<g id="edge27" class="edge"><title>Node23&#45;&gt;Node24</title>
<path fill="none" stroke="midnightblue" d="M762.209,-623.935C778.085,-618.8 796.11,-612.971 810.859,-608.201"/>
<polygon fill="midnightblue" stroke="midnightblue" points="761.088,-620.619 752.65,-627.026 763.242,-627.279 761.088,-620.619"/>
</g>
<!-- Node25 -->
<g id="node25" class="node"><title>Node25</title>
<g id="a_node25"><a xlink:href="../../da/dd2/lua_8h.html#aeda173d104e3a566ccaac89a1f64a5eb" target="_top" xlink:title="lua_settable">
<polygon fill="none" stroke="red" points="807.5,-665.115 807.5,-684.115 875.5,-684.115 875.5,-665.115 807.5,-665.115"/>
<text text-anchor="middle" x="841.5" y="-672.115" font-family="Helvetica,sans-Serif" font-size="10.00">lua_settable</text>
</a>
</g>
</g>
<!-- Node23&#45;&gt;Node25 -->
<g id="edge28" class="edge"><title>Node23&#45;&gt;Node25</title>
<path fill="none" stroke="midnightblue" d="M762.209,-649.295C778.085,-654.43 796.11,-660.259 810.859,-665.029"/>
<polygon fill="midnightblue" stroke="midnightblue" points="763.242,-645.951 752.65,-646.204 761.088,-652.611 763.242,-645.951"/>
</g>
<!-- Node26 -->
<g id="node26" class="node"><title>Node26</title>
<g id="a_node26"><a xlink:href="../../da/dd2/lua_8h.html#a9580a15c141cbe4bf2a63fea625c3878" target="_top" xlink:title="lua_setfield">
<polygon fill="none" stroke="red" points="810,-627.115 810,-646.115 873,-646.115 873,-627.115 810,-627.115"/>
<text text-anchor="middle" x="841.5" y="-634.115" font-family="Helvetica,sans-Serif" font-size="10.00">lua_setfield</text>
</a>
</g>
</g>
<!-- Node23&#45;&gt;Node26 -->
<g id="edge29" class="edge"><title>Node23&#45;&gt;Node26</title>
<path fill="none" stroke="midnightblue" d="M769.662,-636.615C783.2,-636.615 797.634,-636.615 809.916,-636.615"/>
<polygon fill="midnightblue" stroke="midnightblue" points="769.534,-633.115 759.534,-636.615 769.534,-640.115 769.534,-633.115"/>
</g>
<!-- Node27&#45;&gt;Node23 -->
<g id="edge32" class="edge"><title>Node27&#45;&gt;Node23</title>
<path fill="none" stroke="midnightblue" d="M629.425,-610.933C648.041,-616.154 669.409,-622.147 686.819,-627.029"/>
<polygon fill="midnightblue" stroke="midnightblue" points="630.266,-607.534 619.692,-608.204 628.376,-614.274 630.266,-607.534"/>
</g>
<!-- Node33 -->
<g id="node33" class="node"><title>Node33</title>
<g id="a_node33"><a xlink:href="../../de/d27/lgc_8c.html#ab9ec6b56580b9e66f41743e393e7e033" target="_top" xlink:title="GCTM">
<polygon fill="none" stroke="black" points="429.5,-1045.11 429.5,-1064.11 475.5,-1064.11 475.5,-1045.11 429.5,-1045.11"/>
<text text-anchor="middle" x="452.5" y="-1052.11" font-family="Helvetica,sans-Serif" font-size="10.00">GCTM</text>
</a>
</g>
</g>
<!-- Node32&#45;&gt;Node33 -->
<g id="edge47" class="edge"><title>Node32&#45;&gt;Node33</title>
<path fill="none" stroke="midnightblue" d="M372.323,-1028.34C390.937,-1034.52 413.195,-1041.9 429.364,-1047.27"/>
<polygon fill="midnightblue" stroke="midnightblue" points="373.289,-1024.97 362.696,-1025.14 371.085,-1031.61 373.289,-1024.97"/>
</g>
<!-- Node34 -->
<g id="node34" class="node"><title>Node34</title>
<g id="a_node34"><a xlink:href="../../de/d27/lgc_8c.html#a74f50e6006422d43686521fe765152dd" target="_top" xlink:title="callallpendingfinalizers">
<polygon fill="none" stroke="red" points="530,-1083.11 530,-1102.11 639,-1102.11 639,-1083.11 530,-1083.11"/>
<text text-anchor="middle" x="584.5" y="-1090.11" font-family="Helvetica,sans-Serif" font-size="10.00">callallpendingfinalizers</text>
</a>
</g>
</g>
<!-- Node33&#45;&gt;Node34 -->
<g id="edge48" class="edge"><title>Node33&#45;&gt;Node34</title>
<path fill="none" stroke="midnightblue" d="M485.343,-1063.92C505.153,-1069.71 530.576,-1077.15 550.585,-1082.99"/>
<polygon fill="midnightblue" stroke="midnightblue" points="486.133,-1060.51 475.553,-1061.06 484.169,-1067.23 486.133,-1060.51"/>
</g>
<!-- Node35 -->
<g id="node35" class="node"><title>Node35</title>
<g id="a_node35"><a xlink:href="../../dc/d9c/lgc_8h.html#a19359957605d7c8eaf70803e5b77361f" target="_top" xlink:title="luaC_forcestep">
<polygon fill="none" stroke="red" points="544.5,-1045.11 544.5,-1064.11 624.5,-1064.11 624.5,-1045.11 544.5,-1045.11"/>
<text text-anchor="middle" x="584.5" y="-1052.11" font-family="Helvetica,sans-Serif" font-size="10.00">luaC_forcestep</text>
</a>
</g>
</g>
<!-- Node33&#45;&gt;Node35 -->
<g id="edge49" class="edge"><title>Node33&#45;&gt;Node35</title>
<path fill="none" stroke="midnightblue" d="M485.716,-1054.61C503.499,-1054.61 525.717,-1054.61 544.479,-1054.61"/>
<polygon fill="midnightblue" stroke="midnightblue" points="485.553,-1051.12 475.553,-1054.61 485.553,-1058.12 485.553,-1051.12"/>
</g>
<!-- Node36&#45;&gt;Node37 -->
<g id="edge51" class="edge"><title>Node36&#45;&gt;Node37</title>
<path fill="none" stroke="midnightblue" d="M364.818,-949.847C382.374,-955.674 405.002,-963.183 422.736,-969.069"/>
<polygon fill="midnightblue" stroke="midnightblue" points="365.736,-946.464 355.143,-946.636 363.531,-953.108 365.736,-946.464"/>
</g>
<!-- Node38 -->
<g id="node38" class="node"><title>Node38</title>
<g id="a_node38"><a xlink:href="../../d8/dd3/lbaselib_8c.html#a1fb2725eed679431d070b2e9e7abc223" target="_top" xlink:title="luaB_pcall">
<polygon fill="none" stroke="black" points="554,-969.115 554,-988.115 615,-988.115 615,-969.115 554,-969.115"/>
<text text-anchor="middle" x="584.5" y="-976.115" font-family="Helvetica,sans-Serif" font-size="10.00">luaB_pcall</text>
</a>
</g>
</g>
<!-- Node37&#45;&gt;Node38 -->
<g id="edge52" class="edge"><title>Node37&#45;&gt;Node38</title>
<path fill="none" stroke="midnightblue" d="M492.211,-978.615C511.89,-978.615 535.434,-978.615 553.683,-978.615"/>
<polygon fill="midnightblue" stroke="midnightblue" points="492.029,-975.115 482.029,-978.615 492.029,-982.115 492.029,-975.115"/>
</g>
<!-- Node39 -->
<g id="node39" class="node"><title>Node39</title>
<g id="a_node39"><a xlink:href="../../d8/dd3/lbaselib_8c.html#a5fbb0094fa1a56f0a4c2547f1ec4c5ab" target="_top" xlink:title="luaB_xpcall">
<polygon fill="none" stroke="black" points="551.5,-1007.11 551.5,-1026.11 617.5,-1026.11 617.5,-1007.11 551.5,-1007.11"/>
<text text-anchor="middle" x="584.5" y="-1014.11" font-family="Helvetica,sans-Serif" font-size="10.00">luaB_xpcall</text>
</a>
</g>
</g>
<!-- Node37&#45;&gt;Node39 -->
<g id="edge53" class="edge"><title>Node37&#45;&gt;Node39</title>
<path fill="none" stroke="midnightblue" d="M491.838,-989.821C510.776,-995.357 533.367,-1001.96 551.382,-1007.23"/>
<polygon fill="midnightblue" stroke="midnightblue" points="492.609,-986.401 482.029,-986.954 490.645,-993.119 492.609,-986.401"/>
</g>
<!-- Node41 -->
<g id="node41" class="node"><title>Node41</title>
<g id="a_node41"><a xlink:href="../../d8/dd3/lbaselib_8c.html#a86a4e35d9c9ad4661a0dbbac3758c049" target="_top" xlink:title="luaB_dofile">
<polygon fill="none" stroke="black" points="553.5,-893.115 553.5,-912.115 615.5,-912.115 615.5,-893.115 553.5,-893.115"/>
<text text-anchor="middle" x="584.5" y="-900.115" font-family="Helvetica,sans-Serif" font-size="10.00">luaB_dofile</text>
</a>
</g>
</g>
<!-- Node40&#45;&gt;Node41 -->
<g id="edge55" class="edge"><title>Node40&#45;&gt;Node41</title>
<path fill="none" stroke="midnightblue" d="M373.009,-902.615C421.75,-902.615 507.846,-902.615 553.355,-902.615"/>
<polygon fill="midnightblue" stroke="midnightblue" points="372.914,-899.115 362.914,-902.615 372.914,-906.115 372.914,-899.115"/>
</g>
<!-- Node42&#45;&gt;Node10 -->
<g id="edge63" class="edge"><title>Node42&#45;&gt;Node10</title>
<path fill="none" stroke="midnightblue" d="M345.56,-807.821C353.936,-788.885 366.621,-758.675 375,-731.615 414.953,-602.589 443.141,-440.154 449.924,-399.283"/>
<polygon fill="midnightblue" stroke="midnightblue" points="342.302,-806.533 341.406,-817.09 348.69,-809.396 342.302,-806.533"/>
</g>
<!-- Node43 -->
<g id="node43" class="node"><title>Node43</title>
<g id="a_node43"><a xlink:href="../../da/dd2/lua_8h.html#aae6c05ddea7bd110a3e84595ef92e601" target="_top" xlink:title="lua_error">
<polygon fill="none" stroke="black" points="426.5,-817.115 426.5,-836.115 478.5,-836.115 478.5,-817.115 426.5,-817.115"/>
<text text-anchor="middle" x="452.5" y="-824.115" font-family="Helvetica,sans-Serif" font-size="10.00">lua_error</text>
</a>
</g>
</g>
<!-- Node42&#45;&gt;Node43 -->
<g id="edge58" class="edge"><title>Node42&#45;&gt;Node43</title>
<path fill="none" stroke="midnightblue" d="M385.194,-826.615C399.272,-826.615 414.099,-826.615 426.153,-826.615"/>
<polygon fill="midnightblue" stroke="midnightblue" points="385.127,-823.115 375.127,-826.615 385.127,-830.115 385.127,-823.115"/>
</g>
<!-- Node43&#45;&gt;Node41 -->
<g id="edge60" class="edge"><title>Node43&#45;&gt;Node41</title>
<path fill="none" stroke="midnightblue" d="M479.723,-841.498C484.539,-844.416 489.472,-847.531 494,-850.615 510.752,-862.027 512.629,-868.17 530,-878.615 539.073,-884.071 549.604,-889.054 558.911,-893.049"/>
<polygon fill="midnightblue" stroke="midnightblue" points="481.133,-838.266 470.743,-836.191 477.571,-844.292 481.133,-838.266"/>
</g>
<!-- Node44 -->
<g id="node44" class="node"><title>Node44</title>
<g id="a_node44"><a xlink:href="../../df/d2d/lcorolib_8c.html#a777abb20385a69ce4787f72bd90375a7" target="_top" xlink:title="luaB_auxwrap">
<polygon fill="none" stroke="red" points="682,-988.115 682,-1007.11 762,-1007.11 762,-988.115 682,-988.115"/>
<text text-anchor="middle" x="722" y="-995.115" font-family="Helvetica,sans-Serif" font-size="10.00">luaB_auxwrap</text>
</a>
</g>
</g>
<!-- Node43&#45;&gt;Node44 -->
<g id="edge59" class="edge"><title>Node43&#45;&gt;Node44</title>
<path fill="none" stroke="midnightblue" d="M488.334,-836.023C538.533,-849.775 626.582,-874.699 639,-883.615 678.806,-912.194 706.655,-966.173 716.784,-988.047"/>
<polygon fill="midnightblue" stroke="midnightblue" points="489.104,-832.605 478.536,-833.349 487.261,-839.358 489.104,-832.605"/>
</g>
<!-- Node45 -->
<g id="node45" class="node"><title>Node45</title>
<g id="a_node45"><a xlink:href="../../d8/dd3/lbaselib_8c.html#a2ecfa987569d0b4c1063f3e204e42dd2" target="_top" xlink:title="luaB_error">
<polygon fill="none" stroke="black" points="555,-817.115 555,-836.115 614,-836.115 614,-817.115 555,-817.115"/>
<text text-anchor="middle" x="584.5" y="-824.115" font-family="Helvetica,sans-Serif" font-size="10.00">luaB_error</text>
</a>
</g>
</g>
<!-- Node43&#45;&gt;Node45 -->
<g id="edge61" class="edge"><title>Node43&#45;&gt;Node45</title>
<path fill="none" stroke="midnightblue" d="M488.594,-826.615C509.372,-826.615 535.364,-826.615 554.891,-826.615"/>
<polygon fill="midnightblue" stroke="midnightblue" points="488.565,-823.115 478.565,-826.615 488.565,-830.115 488.565,-823.115"/>
</g>
<!-- Node46 -->
<g id="node46" class="node"><title>Node46</title>
<g id="a_node46"><a xlink:href="../../da/d29/lauxlib_8h.html#a994f73d7985c30672469a260d9e86ae6" target="_top" xlink:title="luaL_error">
<polygon fill="none" stroke="red" points="556,-779.115 556,-798.115 613,-798.115 613,-779.115 556,-779.115"/>
<text text-anchor="middle" x="584.5" y="-786.115" font-family="Helvetica,sans-Serif" font-size="10.00">luaL_error</text>
</a>
</g>
</g>
<!-- Node43&#45;&gt;Node46 -->
<g id="edge62" class="edge"><title>Node43&#45;&gt;Node46</title>
<path fill="none" stroke="midnightblue" d="M488.448,-816.399C509.578,-810.223 536.141,-802.458 555.811,-796.709"/>
<polygon fill="midnightblue" stroke="midnightblue" points="487.182,-813.123 478.565,-819.288 489.146,-819.842 487.182,-813.123"/>
</g>
<!-- Node48 -->
<g id="node48" class="node"><title>Node48</title>
<g id="a_node48"><a xlink:href="../../da/dd2/lua_8h.html#a434479f022eda738b99000aad5ddd929" target="_top" xlink:title="lua_resume">
<polygon fill="none" stroke="black" points="420,-1083.11 420,-1102.11 485,-1102.11 485,-1083.11 420,-1083.11"/>
<text text-anchor="middle" x="452.5" y="-1090.11" font-family="Helvetica,sans-Serif" font-size="10.00">lua_resume</text>
</a>
</g>
</g>
<!-- Node47&#45;&gt;Node48 -->
<g id="edge66" class="edge"><title>Node47&#45;&gt;Node48</title>
<path fill="none" stroke="midnightblue" d="M262.446,-1057.52C291.029,-1060.66 336.276,-1066.22 375,-1073.61 389.786,-1076.44 405.99,-1080.34 419.663,-1083.88"/>
<polygon fill="midnightblue" stroke="midnightblue" points="262.672,-1054.03 252.356,-1056.44 261.925,-1060.99 262.672,-1054.03"/>
</g>
<!-- Node47&#45;&gt;Node50 -->
<g id="edge69" class="edge"><title>Node47&#45;&gt;Node50</title>
<path fill="none" stroke="midnightblue" d="M261.826,-1065.08C277.648,-1071.04 297.218,-1078.4 312.137,-1084.01"/>
<polygon fill="midnightblue" stroke="midnightblue" points="262.649,-1061.65 252.057,-1061.41 260.184,-1068.21 262.649,-1061.65"/>
</g>
<!-- Node49 -->
<g id="node49" class="node"><title>Node49</title>
<g id="a_node49"><a xlink:href="../../df/d2d/lcorolib_8c.html#aaa37b3a30ab0c6daef7fae8951fef3e7" target="_top" xlink:title="auxresume">
<polygon fill="none" stroke="red" points="552.5,-1121.11 552.5,-1140.11 616.5,-1140.11 616.5,-1121.11 552.5,-1121.11"/>
<text text-anchor="middle" x="584.5" y="-1128.11" font-family="Helvetica,sans-Serif" font-size="10.00">auxresume</text>
</a>
</g>
</g>
<!-- Node48&#45;&gt;Node49 -->
<g id="edge67" class="edge"><title>Node48&#45;&gt;Node49</title>
<path fill="none" stroke="midnightblue" d="M495.02,-1104.75C513.66,-1110.2 535.275,-1116.52 552.475,-1121.55"/>
<polygon fill="midnightblue" stroke="midnightblue" points="495.882,-1101.36 485.302,-1101.91 493.918,-1108.08 495.882,-1101.36"/>
</g>
<!-- Node49&#45;&gt;Node44 -->
<g id="edge68" class="edge"><title>Node49&#45;&gt;Node44</title>
<path fill="none" stroke="midnightblue" d="M626.055,-1119.24C630.64,-1117.09 635.069,-1114.57 639,-1111.61 677.986,-1082.33 706.105,-1029.22 716.542,-1007.39"/>
<polygon fill="midnightblue" stroke="midnightblue" points="624.459,-1116.11 616.535,-1123.14 627.115,-1122.59 624.459,-1116.11"/>
</g>
<!-- Node50&#45;&gt;Node48 -->
<g id="edge70" class="edge"><title>Node50&#45;&gt;Node48</title>
<path fill="none" stroke="midnightblue" d="M369.929,-1092.61C385.618,-1092.61 404.3,-1092.61 419.824,-1092.61"/>
<polygon fill="midnightblue" stroke="midnightblue" points="369.622,-1089.12 359.622,-1092.61 369.621,-1096.12 369.622,-1089.12"/>
</g>
</g>
</svg>
