<?xml version="1.0" encoding="UTF-8" standalone="no"?>
<!DOCTYPE svg PUBLIC "-//W3C//DTD SVG 1.1//EN"
 "http://www.w3.org/Graphics/SVG/1.1/DTD/svg11.dtd">
<!-- Generated by graphviz version 2.38.0 (20140413.2041)
 -->
<!-- Title: OCMConstraint Pages: 1 -->
<svg width="795pt" height="309pt"
 viewBox="0.00 0.00 795.00 309.00" xmlns="http://www.w3.org/2000/svg" xmlns:xlink="http://www.w3.org/1999/xlink">
<g id="graph0" class="graph" transform="scale(1 1) rotate(0) translate(4 305)">
<title>OCMConstraint</title>
<!-- Node1 -->
<g id="node1" class="node"><title>Node1</title>
<polygon fill="#bfbfbf" stroke="black" points="330,-94.5 330,-206.5 447,-206.5 447,-94.5 330,-94.5"/>
<text text-anchor="middle" x="388.5" y="-194.5" font-family="Helvetica,sans-Serif" font-size="10.00">OCMConstraint</text>
<polyline fill="none" stroke="black" points="330,-187.5 447,-187.5 "/>
<text text-anchor="middle" x="388.5" y="-175.5" font-family="Helvetica,sans-Serif" font-size="10.00"> </text>
<polyline fill="none" stroke="black" points="330,-168.5 447,-168.5 "/>
<text text-anchor="start" x="338" y="-156.5" font-family="Helvetica,sans-Serif" font-size="10.00">+ evaluate:</text>
<text text-anchor="start" x="338" y="-145.5" font-family="Helvetica,sans-Serif" font-size="10.00">+ constraint</text>
<text text-anchor="start" x="338" y="-134.5" font-family="Helvetica,sans-Serif" font-size="10.00">+ constraintWithSelector</text>
<text text-anchor="start" x="338" y="-123.5" font-family="Helvetica,sans-Serif" font-size="10.00">:onObject:</text>
<text text-anchor="start" x="338" y="-112.5" font-family="Helvetica,sans-Serif" font-size="10.00">+ constraintWithSelector</text>
<text text-anchor="start" x="338" y="-101.5" font-family="Helvetica,sans-Serif" font-size="10.00">:onObject:withValue:</text>
</g>
<!-- Node3 -->
<g id="node3" class="node"><title>Node3</title>
<g id="a_node3"><a xlink:href="$d9/d1f/interface_o_c_m_any_constraint.html" xlink:title="{OCMAnyConstraint\n||}">
<polygon fill="none" stroke="black" points="0,-0.5 0,-57.5 101,-57.5 101,-0.5 0,-0.5"/>
<text text-anchor="middle" x="50.5" y="-45.5" font-family="Helvetica,sans-Serif" font-size="10.00">OCMAnyConstraint</text>
<polyline fill="none" stroke="black" points="0,-38.5 101,-38.5 "/>
<text text-anchor="middle" x="50.5" y="-26.5" font-family="Helvetica,sans-Serif" font-size="10.00"> </text>
<polyline fill="none" stroke="black" points="0,-19.5 101,-19.5 "/>
<text text-anchor="middle" x="50.5" y="-7.5" font-family="Helvetica,sans-Serif" font-size="10.00"> </text>
</a>
</g>
</g>
<!-- Node1&#45;&gt;Node3 -->
<g id="edge2" class="edge"><title>Node1&#45;&gt;Node3</title>
<path fill="none" stroke="midnightblue" d="M320.158,-129.486C263.386,-112.272 180.83,-85.8705 110.5,-58 107.401,-56.7719 104.234,-55.4627 101.054,-54.1066"/>
<polygon fill="none" stroke="midnightblue" points="319.16,-132.841 329.745,-132.38 321.183,-126.14 319.16,-132.841"/>
</g>
<!-- Node4 -->
<g id="node4" class="node"><title>Node4</title>
<g id="a_node4"><a xlink:href="$dd/d75/interface_o_c_m_block_constraint.html" xlink:title="{OCMBlockConstraint\n|# block\l|+ initWithConstraintBlock:\l}">
<polygon fill="none" stroke="black" points="119.5,-0.5 119.5,-57.5 241.5,-57.5 241.5,-0.5 119.5,-0.5"/>
<text text-anchor="middle" x="180.5" y="-45.5" font-family="Helvetica,sans-Serif" font-size="10.00">OCMBlockConstraint</text>
<polyline fill="none" stroke="black" points="119.5,-38.5 241.5,-38.5 "/>
<text text-anchor="start" x="127.5" y="-26.5" font-family="Helvetica,sans-Serif" font-size="10.00"># block</text>
<polyline fill="none" stroke="black" points="119.5,-19.5 241.5,-19.5 "/>
<text text-anchor="start" x="127.5" y="-7.5" font-family="Helvetica,sans-Serif" font-size="10.00">+ initWithConstraintBlock:</text>
</a>
</g>
</g>
<!-- Node1&#45;&gt;Node4 -->
<g id="edge3" class="edge"><title>Node1&#45;&gt;Node4</title>
<path fill="none" stroke="midnightblue" d="M320.957,-110.695C290.833,-93.3883 256.037,-73.3973 228.614,-57.6426"/>
<polygon fill="none" stroke="midnightblue" points="319.315,-113.788 329.73,-115.735 322.802,-107.719 319.315,-113.788"/>
</g>
<!-- Node5 -->
<g id="node5" class="node"><title>Node5</title>
<g id="a_node5"><a xlink:href="$de/d52/interface_o_c_m_invocation_constraint.html" xlink:title="{OCMInvocationConstraint\n|+ invocation\l|}">
<polygon fill="none" stroke="black" points="259.5,-0.5 259.5,-57.5 385.5,-57.5 385.5,-0.5 259.5,-0.5"/>
<text text-anchor="middle" x="322.5" y="-45.5" font-family="Helvetica,sans-Serif" font-size="10.00">OCMInvocationConstraint</text>
<polyline fill="none" stroke="black" points="259.5,-38.5 385.5,-38.5 "/>
<text text-anchor="start" x="267.5" y="-26.5" font-family="Helvetica,sans-Serif" font-size="10.00">+ invocation</text>
<polyline fill="none" stroke="black" points="259.5,-19.5 385.5,-19.5 "/>
<text text-anchor="middle" x="322.5" y="-7.5" font-family="Helvetica,sans-Serif" font-size="10.00"> </text>
</a>
</g>
</g>
<!-- Node1&#45;&gt;Node5 -->
<g id="edge4" class="edge"><title>Node1&#45;&gt;Node5</title>
<path fill="none" stroke="midnightblue" d="M353.063,-85.3379C347.684,-75.5975 342.391,-66.0144 337.761,-57.6315"/>
<polygon fill="none" stroke="midnightblue" points="350.113,-87.2358 358.012,-94.2974 356.241,-83.8516 350.113,-87.2358"/>
</g>
<!-- Node6 -->
<g id="node6" class="node"><title>Node6</title>
<g id="a_node6"><a xlink:href="$d2/d0e/interface_o_c_m_is_nil_constraint.html" xlink:title="{OCMIsNilConstraint\n||}">
<polygon fill="none" stroke="black" points="404,-0.5 404,-57.5 505,-57.5 505,-0.5 404,-0.5"/>
<text text-anchor="middle" x="454.5" y="-45.5" font-family="Helvetica,sans-Serif" font-size="10.00">OCMIsNilConstraint</text>
<polyline fill="none" stroke="black" points="404,-38.5 505,-38.5 "/>
<text text-anchor="middle" x="454.5" y="-26.5" font-family="Helvetica,sans-Serif" font-size="10.00"> </text>
<polyline fill="none" stroke="black" points="404,-19.5 505,-19.5 "/>
<text text-anchor="middle" x="454.5" y="-7.5" font-family="Helvetica,sans-Serif" font-size="10.00"> </text>
</a>
</g>
</g>
<!-- Node1&#45;&gt;Node6 -->
<g id="edge5" class="edge"><title>Node1&#45;&gt;Node6</title>
<path fill="none" stroke="midnightblue" d="M423.937,-85.3379C429.316,-75.5975 434.609,-66.0144 439.239,-57.6315"/>
<polygon fill="none" stroke="midnightblue" points="420.759,-83.8516 418.988,-94.2974 426.887,-87.2358 420.759,-83.8516"/>
</g>
<!-- Node7 -->
<g id="node7" class="node"><title>Node7</title>
<g id="a_node7"><a xlink:href="$d6/d2a/interface_o_c_m_is_not_equal_constraint.html" xlink:title="{OCMIsNotEqualConstraint\n|+ testValue\l|}">
<polygon fill="none" stroke="black" points="523.5,-0.5 523.5,-57.5 653.5,-57.5 653.5,-0.5 523.5,-0.5"/>
<text text-anchor="middle" x="588.5" y="-45.5" font-family="Helvetica,sans-Serif" font-size="10.00">OCMIsNotEqualConstraint</text>
<polyline fill="none" stroke="black" points="523.5,-38.5 653.5,-38.5 "/>
<text text-anchor="start" x="531.5" y="-26.5" font-family="Helvetica,sans-Serif" font-size="10.00">+ testValue</text>
<polyline fill="none" stroke="black" points="523.5,-19.5 653.5,-19.5 "/>
<text text-anchor="middle" x="588.5" y="-7.5" font-family="Helvetica,sans-Serif" font-size="10.00"> </text>
</a>
</g>
</g>
<!-- Node1&#45;&gt;Node7 -->
<g id="edge6" class="edge"><title>Node1&#45;&gt;Node7</title>
<path fill="none" stroke="midnightblue" d="M455.831,-109.269C484.235,-92.2984 516.588,-72.9672 542.235,-57.6435"/>
<polygon fill="none" stroke="midnightblue" points="453.944,-106.32 447.155,-114.453 457.535,-112.329 453.944,-106.32"/>
</g>
<!-- Node8 -->
<g id="node8" class="node"><title>Node8</title>
<g id="a_node8"><a xlink:href="$d5/d0d/interface_o_c_m_is_not_nil_constraint.html" xlink:title="{OCMIsNotNilConstraint\n||}">
<polygon fill="none" stroke="black" points="672,-0.5 672,-57.5 787,-57.5 787,-0.5 672,-0.5"/>
<text text-anchor="middle" x="729.5" y="-45.5" font-family="Helvetica,sans-Serif" font-size="10.00">OCMIsNotNilConstraint</text>
<polyline fill="none" stroke="black" points="672,-38.5 787,-38.5 "/>
<text text-anchor="middle" x="729.5" y="-26.5" font-family="Helvetica,sans-Serif" font-size="10.00"> </text>
<polyline fill="none" stroke="black" points="672,-19.5 787,-19.5 "/>
<text text-anchor="middle" x="729.5" y="-7.5" font-family="Helvetica,sans-Serif" font-size="10.00"> </text>
</a>
</g>
</g>
<!-- Node1&#45;&gt;Node8 -->
<g id="edge7" class="edge"><title>Node1&#45;&gt;Node8</title>
<path fill="none" stroke="midnightblue" d="M456.96,-128.181C512.686,-110.459 593.18,-84.0189 662.5,-58 665.569,-56.8482 668.705,-55.6415 671.864,-54.403"/>
<polygon fill="none" stroke="midnightblue" points="455.673,-124.918 447.199,-131.277 457.789,-131.59 455.673,-124.918"/>
</g>
<!-- Node2 -->
<g id="node2" class="node"><title>Node2</title>
<g id="a_node2"><a xlink:href="$d7/dc4/class_n_s_object.html" xlink:title="{NSObject\n||}">
<polygon fill="none" stroke="black" points="359,-243.5 359,-300.5 418,-300.5 418,-243.5 359,-243.5"/>
<text text-anchor="middle" x="388.5" y="-288.5" font-family="Helvetica,sans-Serif" font-size="10.00">NSObject</text>
<polyline fill="none" stroke="black" points="359,-281.5 418,-281.5 "/>
<text text-anchor="middle" x="388.5" y="-269.5" font-family="Helvetica,sans-Serif" font-size="10.00"> </text>
<polyline fill="none" stroke="black" points="359,-262.5 418,-262.5 "/>
<text text-anchor="middle" x="388.5" y="-250.5" font-family="Helvetica,sans-Serif" font-size="10.00"> </text>
</a>
</g>
</g>
<!-- Node2&#45;&gt;Node1 -->
<g id="edge1" class="edge"><title>Node2&#45;&gt;Node1</title>
<path fill="none" stroke="midnightblue" d="M388.5,-233.108C388.5,-224.748 388.5,-215.725 388.5,-206.834"/>
<polygon fill="none" stroke="midnightblue" points="385,-233.284 388.5,-243.284 392,-233.284 385,-233.284"/>
</g>
</g>
</svg>
