<?xml version="1.0" encoding="UTF-8" standalone="no"?>
<!DOCTYPE svg PUBLIC "-//W3C//DTD SVG 1.1//EN"
 "http://www.w3.org/Graphics/SVG/1.1/DTD/svg11.dtd">
<!-- Generated by graphviz version 2.38.0 (20140413.2041)
 -->
<!-- Title: &lt;IBinding&gt; Pages: 1 -->
<svg width="962pt" height="573pt"
 viewBox="0.00 0.00 962.00 573.00" xmlns="http://www.w3.org/2000/svg" xmlns:xlink="http://www.w3.org/1999/xlink">
<g id="graph0" class="graph" transform="scale(1 1) rotate(0) translate(4 569)">
<title>&lt;IBinding&gt;</title>
<!-- Node1 -->
<g id="node1" class="node"><title>Node1</title>
<polygon fill="#bfbfbf" stroke="black" points="393,-419.5 393,-564.5 513,-564.5 513,-419.5 393,-419.5"/>
<text text-anchor="middle" x="453" y="-552.5" font-family="Helvetica,sans-Serif" font-size="10.00">&lt;IBinding&gt;</text>
<polyline fill="none" stroke="black" points="393,-545.5 513,-545.5 "/>
<text text-anchor="start" x="401" y="-533.5" font-family="Helvetica,sans-Serif" font-size="10.00">+ ken</text>
<text text-anchor="start" x="401" y="-522.5" font-family="Helvetica,sans-Serif" font-size="10.00">+ targetView</text>
<text text-anchor="start" x="401" y="-511.5" font-family="Helvetica,sans-Serif" font-size="10.00">+ observedValue</text>
<text text-anchor="start" x="401" y="-500.5" font-family="Helvetica,sans-Serif" font-size="10.00">+ bindingType</text>
<text text-anchor="start" x="401" y="-489.5" font-family="Helvetica,sans-Serif" font-size="10.00">+ context</text>
<polyline fill="none" stroke="black" points="393,-482.5 513,-482.5 "/>
<text text-anchor="start" x="401" y="-470.5" font-family="Helvetica,sans-Serif" font-size="10.00">+ initWithKensho:target</text>
<text text-anchor="start" x="401" y="-459.5" font-family="Helvetica,sans-Serif" font-size="10.00">:type:value:context:</text>
<text text-anchor="start" x="401" y="-448.5" font-family="Helvetica,sans-Serif" font-size="10.00">+ updateValue</text>
<text text-anchor="start" x="401" y="-437.5" font-family="Helvetica,sans-Serif" font-size="10.00">+ unbind</text>
<text text-anchor="start" x="401" y="-426.5" font-family="Helvetica,sans-Serif" font-size="10.00">+ registerFactoriesTo:</text>
</g>
<!-- Node2 -->
<g id="node2" class="node"><title>Node2</title>
<g id="a_node2"><a xlink:href="../../d5/d2a/interface_binding_base.html" target="_top" xlink:title="{BindingBase\n|+ ken\l+ targetView\l+ observedValue\l+ resultValue\l+ bindingType\l+ context\l|+ initWithKensho:target\l:type:value:context:\l+ observable:updated\l:context:\l+ updateValue\l+ addFactoryNamed:class\l:collection:method:\l}">
<polygon fill="none" stroke="black" points="386.5,-204.5 386.5,-382.5 519.5,-382.5 519.5,-204.5 386.5,-204.5"/>
<text text-anchor="middle" x="453" y="-370.5" font-family="Helvetica,sans-Serif" font-size="10.00">BindingBase</text>
<polyline fill="none" stroke="black" points="386.5,-363.5 519.5,-363.5 "/>
<text text-anchor="start" x="394.5" y="-351.5" font-family="Helvetica,sans-Serif" font-size="10.00">+ ken</text>
<text text-anchor="start" x="394.5" y="-340.5" font-family="Helvetica,sans-Serif" font-size="10.00">+ targetView</text>
<text text-anchor="start" x="394.5" y="-329.5" font-family="Helvetica,sans-Serif" font-size="10.00">+ observedValue</text>
<text text-anchor="start" x="394.5" y="-318.5" font-family="Helvetica,sans-Serif" font-size="10.00">+ resultValue</text>
<text text-anchor="start" x="394.5" y="-307.5" font-family="Helvetica,sans-Serif" font-size="10.00">+ bindingType</text>
<text text-anchor="start" x="394.5" y="-296.5" font-family="Helvetica,sans-Serif" font-size="10.00">+ context</text>
<polyline fill="none" stroke="black" points="386.5,-289.5 519.5,-289.5 "/>
<text text-anchor="start" x="394.5" y="-277.5" font-family="Helvetica,sans-Serif" font-size="10.00">+ initWithKensho:target</text>
<text text-anchor="start" x="394.5" y="-266.5" font-family="Helvetica,sans-Serif" font-size="10.00">:type:value:context:</text>
<text text-anchor="start" x="394.5" y="-255.5" font-family="Helvetica,sans-Serif" font-size="10.00">+ observable:updated</text>
<text text-anchor="start" x="394.5" y="-244.5" font-family="Helvetica,sans-Serif" font-size="10.00">:context:</text>
<text text-anchor="start" x="394.5" y="-233.5" font-family="Helvetica,sans-Serif" font-size="10.00">+ updateValue</text>
<text text-anchor="start" x="394.5" y="-222.5" font-family="Helvetica,sans-Serif" font-size="10.00">+ addFactoryNamed:class</text>
<text text-anchor="start" x="394.5" y="-211.5" font-family="Helvetica,sans-Serif" font-size="10.00">:collection:method:</text>
</a>
</g>
</g>
<!-- Node1&#45;&gt;Node2 -->
<g id="edge1" class="edge"><title>Node1&#45;&gt;Node2</title>
<path fill="none" stroke="midnightblue" d="M453,-409.12C453,-400.429 453,-391.561 453,-382.801"/>
<polygon fill="none" stroke="midnightblue" points="449.5,-409.225 453,-419.225 456.5,-409.225 449.5,-409.225"/>
</g>
<!-- Node3 -->
<g id="node3" class="node"><title>Node3</title>
<g id="a_node3"><a xlink:href="../../d5/d04/interface_u_i_button_binding.html" target="_top" xlink:title="{UIButtonBinding\n|+ targetView\l|+ updateValue\l+ registerFactoriesTo:\l}">
<polygon fill="none" stroke="black" points="0,-50 0,-118 114,-118 114,-50 0,-50"/>
<text text-anchor="middle" x="57" y="-106" font-family="Helvetica,sans-Serif" font-size="10.00">UIButtonBinding</text>
<polyline fill="none" stroke="black" points="0,-99 114,-99 "/>
<text text-anchor="start" x="8" y="-87" font-family="Helvetica,sans-Serif" font-size="10.00">+ targetView</text>
<polyline fill="none" stroke="black" points="0,-80 114,-80 "/>
<text text-anchor="start" x="8" y="-68" font-family="Helvetica,sans-Serif" font-size="10.00">+ updateValue</text>
<text text-anchor="start" x="8" y="-57" font-family="Helvetica,sans-Serif" font-size="10.00">+ registerFactoriesTo:</text>
</a>
</g>
</g>
<!-- Node2&#45;&gt;Node3 -->
<g id="edge2" class="edge"><title>Node2&#45;&gt;Node3</title>
<path fill="none" stroke="midnightblue" d="M376.499,-276.079C305.735,-258.155 200.151,-224.238 123,-168 104.701,-154.661 88.7501,-134.98 77.1153,-118.13"/>
<polygon fill="none" stroke="midnightblue" points="375.698,-279.486 386.247,-278.502 377.387,-272.693 375.698,-279.486"/>
</g>
<!-- Node4 -->
<g id="node4" class="node"><title>Node4</title>
<g id="a_node4"><a xlink:href="../../d2/dd4/interface_u_i_control_binding.html" target="_top" xlink:title="{UIControlBinding\n|+ targetView\l|+ updateValue\l+ registerFactoriesTo:\l}">
<polygon fill="none" stroke="black" points="132,-50 132,-118 246,-118 246,-50 132,-50"/>
<text text-anchor="middle" x="189" y="-106" font-family="Helvetica,sans-Serif" font-size="10.00">UIControlBinding</text>
<polyline fill="none" stroke="black" points="132,-99 246,-99 "/>
<text text-anchor="start" x="140" y="-87" font-family="Helvetica,sans-Serif" font-size="10.00">+ targetView</text>
<polyline fill="none" stroke="black" points="132,-80 246,-80 "/>
<text text-anchor="start" x="140" y="-68" font-family="Helvetica,sans-Serif" font-size="10.00">+ updateValue</text>
<text text-anchor="start" x="140" y="-57" font-family="Helvetica,sans-Serif" font-size="10.00">+ registerFactoriesTo:</text>
</a>
</g>
</g>
<!-- Node2&#45;&gt;Node4 -->
<g id="edge3" class="edge"><title>Node2&#45;&gt;Node4</title>
<path fill="none" stroke="midnightblue" d="M377.135,-252.894C338.409,-230.739 291.831,-200.972 255,-168 238.677,-153.388 223.268,-134.426 211.45,-118.315"/>
<polygon fill="none" stroke="midnightblue" points="375.861,-256.194 386.288,-258.073 379.308,-250.102 375.861,-256.194"/>
</g>
<!-- Node5 -->
<g id="node5" class="node"><title>Node5</title>
<g id="a_node5"><a xlink:href="../../dd/d7f/interface_u_i_image_view_binding.html" target="_top" xlink:title="{UIImageViewBinding\n|+ targetView\l|+ updateValue\l+ registerFactoriesTo:\l}">
<polygon fill="none" stroke="black" points="264,-50 264,-118 378,-118 378,-50 264,-50"/>
<text text-anchor="middle" x="321" y="-106" font-family="Helvetica,sans-Serif" font-size="10.00">UIImageViewBinding</text>
<polyline fill="none" stroke="black" points="264,-99 378,-99 "/>
<text text-anchor="start" x="272" y="-87" font-family="Helvetica,sans-Serif" font-size="10.00">+ targetView</text>
<polyline fill="none" stroke="black" points="264,-80 378,-80 "/>
<text text-anchor="start" x="272" y="-68" font-family="Helvetica,sans-Serif" font-size="10.00">+ updateValue</text>
<text text-anchor="start" x="272" y="-57" font-family="Helvetica,sans-Serif" font-size="10.00">+ registerFactoriesTo:</text>
</a>
</g>
</g>
<!-- Node2&#45;&gt;Node5 -->
<g id="edge4" class="edge"><title>Node2&#45;&gt;Node5</title>
<path fill="none" stroke="midnightblue" d="M391.357,-195.599C373.664,-167.786 355.552,-139.315 342.136,-118.225"/>
<polygon fill="none" stroke="midnightblue" points="388.508,-197.642 396.829,-204.2 394.414,-193.884 388.508,-197.642"/>
</g>
<!-- Node6 -->
<g id="node6" class="node"><title>Node6</title>
<g id="a_node6"><a xlink:href="../../db/d01/interface_u_i_label_binding.html" target="_top" xlink:title="{UILabelBinding\n|+ targetView\l|+ updateValue\l+ registerFactoriesTo:\l}">
<polygon fill="none" stroke="black" points="396,-50 396,-118 510,-118 510,-50 396,-50"/>
<text text-anchor="middle" x="453" y="-106" font-family="Helvetica,sans-Serif" font-size="10.00">UILabelBinding</text>
<polyline fill="none" stroke="black" points="396,-99 510,-99 "/>
<text text-anchor="start" x="404" y="-87" font-family="Helvetica,sans-Serif" font-size="10.00">+ targetView</text>
<polyline fill="none" stroke="black" points="396,-80 510,-80 "/>
<text text-anchor="start" x="404" y="-68" font-family="Helvetica,sans-Serif" font-size="10.00">+ updateValue</text>
<text text-anchor="start" x="404" y="-57" font-family="Helvetica,sans-Serif" font-size="10.00">+ registerFactoriesTo:</text>
</a>
</g>
</g>
<!-- Node2&#45;&gt;Node6 -->
<g id="edge5" class="edge"><title>Node2&#45;&gt;Node6</title>
<path fill="none" stroke="midnightblue" d="M453,-194.16C453,-166.807 453,-138.951 453,-118.225"/>
<polygon fill="none" stroke="midnightblue" points="449.5,-194.2 453,-204.2 456.5,-194.2 449.5,-194.2"/>
</g>
<!-- Node7 -->
<g id="node7" class="node"><title>Node7</title>
<g id="a_node7"><a xlink:href="../../de/d5b/interface_u_i_table_view_binding.html" target="_top" xlink:title="{UITableViewBinding\n|+ targetView\l+ targetValue\l|+ initWithKensho:target\l:type:value:context:\l+ updateValue\l+ tableView:numberOfRowsIn\lSection:\l+ tableView:cellForRowAtIndex\lPath:\l+ tableView:didDeselectRow\lAtIndexPath:\l+ registerFactoriesTo:\l}">
<polygon fill="none" stroke="black" points="528.5,-0.5 528.5,-167.5 683.5,-167.5 683.5,-0.5 528.5,-0.5"/>
<text text-anchor="middle" x="606" y="-155.5" font-family="Helvetica,sans-Serif" font-size="10.00">UITableViewBinding</text>
<polyline fill="none" stroke="black" points="528.5,-148.5 683.5,-148.5 "/>
<text text-anchor="start" x="536.5" y="-136.5" font-family="Helvetica,sans-Serif" font-size="10.00">+ targetView</text>
<text text-anchor="start" x="536.5" y="-125.5" font-family="Helvetica,sans-Serif" font-size="10.00">+ targetValue</text>
<polyline fill="none" stroke="black" points="528.5,-118.5 683.5,-118.5 "/>
<text text-anchor="start" x="536.5" y="-106.5" font-family="Helvetica,sans-Serif" font-size="10.00">+ initWithKensho:target</text>
<text text-anchor="start" x="536.5" y="-95.5" font-family="Helvetica,sans-Serif" font-size="10.00">:type:value:context:</text>
<text text-anchor="start" x="536.5" y="-84.5" font-family="Helvetica,sans-Serif" font-size="10.00">+ updateValue</text>
<text text-anchor="start" x="536.5" y="-73.5" font-family="Helvetica,sans-Serif" font-size="10.00">+ tableView:numberOfRowsIn</text>
<text text-anchor="start" x="536.5" y="-62.5" font-family="Helvetica,sans-Serif" font-size="10.00">Section:</text>
<text text-anchor="start" x="536.5" y="-51.5" font-family="Helvetica,sans-Serif" font-size="10.00">+ tableView:cellForRowAtIndex</text>
<text text-anchor="start" x="536.5" y="-40.5" font-family="Helvetica,sans-Serif" font-size="10.00">Path:</text>
<text text-anchor="start" x="536.5" y="-29.5" font-family="Helvetica,sans-Serif" font-size="10.00">+ tableView:didDeselectRow</text>
<text text-anchor="start" x="536.5" y="-18.5" font-family="Helvetica,sans-Serif" font-size="10.00">AtIndexPath:</text>
<text text-anchor="start" x="536.5" y="-7.5" font-family="Helvetica,sans-Serif" font-size="10.00">+ registerFactoriesTo:</text>
</a>
</g>
</g>
<!-- Node2&#45;&gt;Node7 -->
<g id="edge6" class="edge"><title>Node2&#45;&gt;Node7</title>
<path fill="none" stroke="midnightblue" d="M524.215,-195.917C531.19,-186.458 538.223,-176.92 545.081,-167.619"/>
<polygon fill="none" stroke="midnightblue" points="521.225,-194.075 518.108,-204.2 526.859,-198.229 521.225,-194.075"/>
</g>
<!-- Node8 -->
<g id="node8" class="node"><title>Node8</title>
<g id="a_node8"><a xlink:href="../../d9/d18/interface_u_i_text_field_binding.html" target="_top" xlink:title="{UITextFieldBinding\n|+ targetView\l|+ initWithKensho:target\l:type:value:context:\l+ updateValue\l+ valueDidChange\l+ registerFactoriesTo:\l}">
<polygon fill="none" stroke="black" points="702,-33.5 702,-134.5 822,-134.5 822,-33.5 702,-33.5"/>
<text text-anchor="middle" x="762" y="-122.5" font-family="Helvetica,sans-Serif" font-size="10.00">UITextFieldBinding</text>
<polyline fill="none" stroke="black" points="702,-115.5 822,-115.5 "/>
<text text-anchor="start" x="710" y="-103.5" font-family="Helvetica,sans-Serif" font-size="10.00">+ targetView</text>
<polyline fill="none" stroke="black" points="702,-96.5 822,-96.5 "/>
<text text-anchor="start" x="710" y="-84.5" font-family="Helvetica,sans-Serif" font-size="10.00">+ initWithKensho:target</text>
<text text-anchor="start" x="710" y="-73.5" font-family="Helvetica,sans-Serif" font-size="10.00">:type:value:context:</text>
<text text-anchor="start" x="710" y="-62.5" font-family="Helvetica,sans-Serif" font-size="10.00">+ updateValue</text>
<text text-anchor="start" x="710" y="-51.5" font-family="Helvetica,sans-Serif" font-size="10.00">+ valueDidChange</text>
<text text-anchor="start" x="710" y="-40.5" font-family="Helvetica,sans-Serif" font-size="10.00">+ registerFactoriesTo:</text>
</a>
</g>
</g>
<!-- Node2&#45;&gt;Node8 -->
<g id="edge7" class="edge"><title>Node2&#45;&gt;Node8</title>
<path fill="none" stroke="midnightblue" d="M529.004,-262.462C578.664,-240.664 643.282,-208.032 693,-168 704.968,-158.363 716.349,-146.384 726.29,-134.552"/>
<polygon fill="none" stroke="midnightblue" points="527.379,-259.352 519.597,-266.541 530.164,-265.774 527.379,-259.352"/>
</g>
<!-- Node9 -->
<g id="node9" class="node"><title>Node9</title>
<g id="a_node9"><a xlink:href="../../d4/daa/interface_u_i_view_binding.html" target="_top" xlink:title="{UIViewBinding\n||+ updateValue\l+ registerFactoriesTo:\l}">
<polygon fill="none" stroke="black" points="840,-50 840,-118 954,-118 954,-50 840,-50"/>
<text text-anchor="middle" x="897" y="-106" font-family="Helvetica,sans-Serif" font-size="10.00">UIViewBinding</text>
<polyline fill="none" stroke="black" points="840,-99 954,-99 "/>
<text text-anchor="middle" x="897" y="-87" font-family="Helvetica,sans-Serif" font-size="10.00"> </text>
<polyline fill="none" stroke="black" points="840,-80 954,-80 "/>
<text text-anchor="start" x="848" y="-68" font-family="Helvetica,sans-Serif" font-size="10.00">+ updateValue</text>
<text text-anchor="start" x="848" y="-57" font-family="Helvetica,sans-Serif" font-size="10.00">+ registerFactoriesTo:</text>
</a>
</g>
</g>
<!-- Node2&#45;&gt;Node9 -->
<g id="edge8" class="edge"><title>Node2&#45;&gt;Node9</title>
<path fill="none" stroke="midnightblue" d="M529.788,-280.646C610.577,-265.266 738.584,-232.398 831,-168 849.73,-154.949 865.8,-135.067 877.393,-118.035"/>
<polygon fill="none" stroke="midnightblue" points="528.88,-277.255 519.688,-282.524 530.16,-284.137 528.88,-277.255"/>
</g>
</g>
</svg>
