<?xml version="1.0" encoding="UTF-8" standalone="no"?>
<!DOCTYPE svg PUBLIC "-//W3C//DTD SVG 1.1//EN"
 "http://www.w3.org/Graphics/SVG/1.1/DTD/svg11.dtd">
<!-- Generated by graphviz version 2.38.0 (20140413.2041)
 -->
<!-- Title: DumpBlock Pages: 1 -->
<svg width="699pt" height="104pt"
 viewBox="0.00 0.00 699.00 104.00" xmlns="http://www.w3.org/2000/svg" xmlns:xlink="http://www.w3.org/1999/xlink">
<g id="graph0" class="graph" transform="scale(1 1) rotate(0) translate(4 100)">
<title>DumpBlock</title>
<!-- Node1 -->
<g id="node1" class="node"><title>Node1</title>
<polygon fill="#bfbfbf" stroke="black" points="0,-57.5 0,-76.5 65,-76.5 65,-57.5 0,-57.5"/>
<text text-anchor="middle" x="32.5" y="-64.5" font-family="Helvetica,sans-Serif" font-size="10.00">DumpBlock</text>
</g>
<!-- Node2 -->
<g id="node2" class="node"><title>Node2</title>
<g id="a_node2"><a xlink:href="../../db/d84/ldump_8c.html#a7c7489064282d75dad1293dcd1880bfc" target="_top" xlink:title="DumpHeader">
<polygon fill="none" stroke="black" points="327.5,-76.5 327.5,-95.5 401.5,-95.5 401.5,-76.5 327.5,-76.5"/>
<text text-anchor="middle" x="364.5" y="-83.5" font-family="Helvetica,sans-Serif" font-size="10.00">DumpHeader</text>
</a>
</g>
</g>
<!-- Node1&#45;&gt;Node2 -->
<g id="edge1" class="edge"><title>Node1&#45;&gt;Node2</title>
<path fill="none" stroke="midnightblue" d="M75.4882,-69.4175C140.887,-73.1829 265.944,-80.3832 327.482,-83.9262"/>
<polygon fill="midnightblue" stroke="midnightblue" points="75.3265,-65.9025 65.1418,-68.8218 74.924,-72.8909 75.3265,-65.9025"/>
</g>
<!-- Node6 -->
<g id="node6" class="node"><title>Node6</title>
<g id="a_node6"><a xlink:href="../../db/d84/ldump_8c.html#ad0dfa73bb3157cd60270ce57749daf69" target="_top" xlink:title="DumpString">
<polygon fill="none" stroke="black" points="101,-38.5 101,-57.5 167,-57.5 167,-38.5 101,-38.5"/>
<text text-anchor="middle" x="134" y="-45.5" font-family="Helvetica,sans-Serif" font-size="10.00">DumpString</text>
</a>
</g>
</g>
<!-- Node1&#45;&gt;Node6 -->
<g id="edge5" class="edge"><title>Node1&#45;&gt;Node6</title>
<path fill="none" stroke="midnightblue" d="M75.1338,-59.0498C83.7327,-57.4078 92.664,-55.7023 100.863,-54.1368"/>
<polygon fill="midnightblue" stroke="midnightblue" points="74.422,-55.6224 65.256,-60.936 75.735,-62.4982 74.422,-55.6224"/>
</g>
<!-- Node3 -->
<g id="node3" class="node"><title>Node3</title>
<g id="a_node3"><a xlink:href="../../d3/dff/lundump_8h.html#a2b9d33dfd898f6284de183d168556786" target="_top" xlink:title="luaU_dump">
<polygon fill="none" stroke="black" points="439,-57.5 439,-76.5 504,-76.5 504,-57.5 439,-57.5"/>
<text text-anchor="middle" x="471.5" y="-64.5" font-family="Helvetica,sans-Serif" font-size="10.00">luaU_dump</text>
</a>
</g>
</g>
<!-- Node2&#45;&gt;Node3 -->
<g id="edge2" class="edge"><title>Node2&#45;&gt;Node3</title>
<path fill="none" stroke="midnightblue" d="M411.496,-77.6769C420.733,-76.0054 430.243,-74.2845 438.859,-72.7256"/>
<polygon fill="midnightblue" stroke="midnightblue" points="410.852,-74.2365 401.635,-79.4613 412.098,-81.1247 410.852,-74.2365"/>
</g>
<!-- Node4 -->
<g id="node4" class="node"><title>Node4</title>
<g id="a_node4"><a xlink:href="../../da/dd2/lua_8h.html#a29ceb6e6217ff14d061922a539c59eac" target="_top" xlink:title="lua_dump">
<polygon fill="none" stroke="black" points="540,-57.5 540,-76.5 599,-76.5 599,-57.5 540,-57.5"/>
<text text-anchor="middle" x="569.5" y="-64.5" font-family="Helvetica,sans-Serif" font-size="10.00">lua_dump</text>
</a>
</g>
</g>
<!-- Node3&#45;&gt;Node4 -->
<g id="edge3" class="edge"><title>Node3&#45;&gt;Node4</title>
<path fill="none" stroke="midnightblue" d="M514.425,-67C522.974,-67 531.785,-67 539.749,-67"/>
<polygon fill="midnightblue" stroke="midnightblue" points="514.2,-63.5001 504.2,-67 514.2,-70.5001 514.2,-63.5001"/>
</g>
<!-- Node5 -->
<g id="node5" class="node"><title>Node5</title>
<g id="a_node5"><a xlink:href="../../dc/d77/lstrlib_8c.html#abc94e3a13f1b6ddb2c9b20c9fd89e87f" target="_top" xlink:title="str_dump">
<polygon fill="none" stroke="black" points="635,-57.5 635,-76.5 691,-76.5 691,-57.5 635,-57.5"/>
<text text-anchor="middle" x="663" y="-64.5" font-family="Helvetica,sans-Serif" font-size="10.00">str_dump</text>
</a>
</g>
</g>
<!-- Node4&#45;&gt;Node5 -->
<g id="edge4" class="edge"><title>Node4&#45;&gt;Node5</title>
<path fill="none" stroke="midnightblue" d="M609.576,-67C618.07,-67 626.878,-67 634.795,-67"/>
<polygon fill="midnightblue" stroke="midnightblue" points="609.451,-63.5001 599.451,-67 609.451,-70.5001 609.451,-63.5001"/>
</g>
<!-- Node7 -->
<g id="node7" class="node"><title>Node7</title>
<g id="a_node7"><a xlink:href="../../db/d84/ldump_8c.html#a9fa7a30ec9113d0f913e6b13f0bd68bc" target="_top" xlink:title="DumpConstants">
<polygon fill="none" stroke="black" points="203,-38.5 203,-57.5 290,-57.5 290,-38.5 203,-38.5"/>
<text text-anchor="middle" x="246.5" y="-45.5" font-family="Helvetica,sans-Serif" font-size="10.00">DumpConstants</text>
</a>
</g>
</g>
<!-- Node6&#45;&gt;Node7 -->
<g id="edge6" class="edge"><title>Node6&#45;&gt;Node7</title>
<path fill="none" stroke="midnightblue" d="M177.467,-48C185.745,-48 194.429,-48 202.717,-48"/>
<polygon fill="midnightblue" stroke="midnightblue" points="177.258,-44.5001 167.258,-48 177.258,-51.5001 177.258,-44.5001"/>
</g>
<!-- Node9 -->
<g id="node9" class="node"><title>Node9</title>
<g id="a_node9"><a xlink:href="../../db/d84/ldump_8c.html#ae8565d7f2579c778dad98db4a2890b6c" target="_top" xlink:title="DumpDebug">
<polygon fill="none" stroke="black" points="210.5,-0.5 210.5,-19.5 282.5,-19.5 282.5,-0.5 210.5,-0.5"/>
<text text-anchor="middle" x="246.5" y="-7.5" font-family="Helvetica,sans-Serif" font-size="10.00">DumpDebug</text>
</a>
</g>
</g>
<!-- Node6&#45;&gt;Node9 -->
<g id="edge10" class="edge"><title>Node6&#45;&gt;Node9</title>
<path fill="none" stroke="midnightblue" d="M172.721,-35.0282C187.442,-29.9656 204.016,-24.2659 217.625,-19.5859"/>
<polygon fill="midnightblue" stroke="midnightblue" points="171.202,-31.8492 162.884,-38.411 173.478,-38.4687 171.202,-31.8492"/>
</g>
<!-- Node8 -->
<g id="node8" class="node"><title>Node8</title>
<g id="a_node8"><a xlink:href="../../db/d84/ldump_8c.html#a9e7d1c45fffa5dfbaaac0ca0d66a2073" target="_top" xlink:title="DumpFunction">
<polygon fill="none" stroke="black" points="326,-38.5 326,-57.5 403,-57.5 403,-38.5 326,-38.5"/>
<text text-anchor="middle" x="364.5" y="-45.5" font-family="Helvetica,sans-Serif" font-size="10.00">DumpFunction</text>
</a>
</g>
</g>
<!-- Node7&#45;&gt;Node8 -->
<g id="edge7" class="edge"><title>Node7&#45;&gt;Node8</title>
<path fill="none" stroke="midnightblue" d="M300.135,-41.2757C308.842,-41.192 317.712,-41.3126 325.951,-41.6377"/>
<polygon fill="midnightblue" stroke="midnightblue" points="299.967,-37.7782 290.035,-41.4679 300.1,-44.7769 299.967,-37.7782"/>
</g>
<!-- Node8&#45;&gt;Node3 -->
<g id="edge9" class="edge"><title>Node8&#45;&gt;Node3</title>
<path fill="none" stroke="midnightblue" d="M413.138,-56.6201C421.797,-58.1871 430.635,-59.7863 438.697,-61.2452"/>
<polygon fill="midnightblue" stroke="midnightblue" points="413.574,-53.1424 403.111,-54.8058 412.328,-60.0305 413.574,-53.1424"/>
</g>
<!-- Node8&#45;&gt;Node7 -->
<g id="edge8" class="edge"><title>Node8&#45;&gt;Node7</title>
<path fill="none" stroke="midnightblue" d="M315.756,-54.6553C307.232,-54.8142 298.402,-54.7731 290.035,-54.5321"/>
<polygon fill="midnightblue" stroke="midnightblue" points="316.055,-58.1482 325.951,-54.3623 315.854,-51.1511 316.055,-58.1482"/>
</g>
<!-- Node9&#45;&gt;Node8 -->
<g id="edge11" class="edge"><title>Node9&#45;&gt;Node8</title>
<path fill="none" stroke="midnightblue" d="M286.653,-22.8259C302.218,-27.9247 319.814,-33.6891 334.238,-38.4141"/>
<polygon fill="midnightblue" stroke="midnightblue" points="287.364,-19.3761 276.772,-19.589 285.185,-26.0282 287.364,-19.3761"/>
</g>
</g>
</svg>
