<?xml version="1.0" encoding="UTF-8" standalone="no"?>
<!DOCTYPE svg PUBLIC "-//W3C//DTD SVG 1.1//EN"
 "http://www.w3.org/Graphics/SVG/1.1/DTD/svg11.dtd">
<!-- Generated by graphviz version 2.38.0 (20140413.2041)
 -->
<!-- Title: DumpUpvalues Pages: 1 -->
<svg width="515pt" height="66pt"
 viewBox="0.00 0.00 515.00 66.00" xmlns="http://www.w3.org/2000/svg" xmlns:xlink="http://www.w3.org/1999/xlink">
<g id="graph0" class="graph" transform="scale(1 1) rotate(0) translate(4 62)">
<title>DumpUpvalues</title>
<!-- Node1 -->
<g id="node1" class="node"><title>Node1</title>
<polygon fill="#bfbfbf" stroke="black" points="0,-38.5 0,-57.5 84,-57.5 84,-38.5 0,-38.5"/>
<text text-anchor="middle" x="42" y="-45.5" font-family="Helvetica,sans-Serif" font-size="10.00">DumpUpvalues</text>
</g>
<!-- Node2 -->
<g id="node2" class="node"><title>Node2</title>
<g id="a_node2"><a xlink:href="../../db/d84/ldump_8c.html#a9e7d1c45fffa5dfbaaac0ca0d66a2073" target="_top" xlink:title="DumpFunction">
<polygon fill="none" stroke="black" points="120,-38.5 120,-57.5 197,-57.5 197,-38.5 120,-38.5"/>
<text text-anchor="middle" x="158.5" y="-45.5" font-family="Helvetica,sans-Serif" font-size="10.00">DumpFunction</text>
</a>
</g>
</g>
<!-- Node1&#45;&gt;Node2 -->
<g id="edge1" class="edge"><title>Node1&#45;&gt;Node2</title>
<path fill="none" stroke="midnightblue" d="M94.0525,-48C102.72,-48 111.58,-48 119.824,-48"/>
<polygon fill="midnightblue" stroke="midnightblue" points="94.0138,-44.5001 84.0137,-48 94.0137,-51.5001 94.0138,-44.5001"/>
</g>
<!-- Node3 -->
<g id="node3" class="node"><title>Node3</title>
<g id="a_node3"><a xlink:href="../../db/d84/ldump_8c.html#a9fa7a30ec9113d0f913e6b13f0bd68bc" target="_top" xlink:title="DumpConstants">
<polygon fill="none" stroke="black" points="233,-38.5 233,-57.5 320,-57.5 320,-38.5 233,-38.5"/>
<text text-anchor="middle" x="276.5" y="-45.5" font-family="Helvetica,sans-Serif" font-size="10.00">DumpConstants</text>
</a>
</g>
</g>
<!-- Node2&#45;&gt;Node3 -->
<g id="edge2" class="edge"><title>Node2&#45;&gt;Node3</title>
<path fill="none" stroke="midnightblue" d="M207.279,-41.344C215.736,-41.187 224.492,-41.2267 232.797,-41.4632"/>
<polygon fill="midnightblue" stroke="midnightblue" points="207.058,-37.8488 197.162,-41.6333 207.258,-44.846 207.058,-37.8488"/>
</g>
<!-- Node4 -->
<g id="node4" class="node"><title>Node4</title>
<g id="a_node4"><a xlink:href="../../d3/dff/lundump_8h.html#a2b9d33dfd898f6284de183d168556786" target="_top" xlink:title="luaU_dump">
<polygon fill="none" stroke="black" points="244,-0.5 244,-19.5 309,-19.5 309,-0.5 244,-0.5"/>
<text text-anchor="middle" x="276.5" y="-7.5" font-family="Helvetica,sans-Serif" font-size="10.00">luaU_dump</text>
</a>
</g>
</g>
<!-- Node2&#45;&gt;Node4 -->
<g id="edge4" class="edge"><title>Node2&#45;&gt;Node4</title>
<path fill="none" stroke="midnightblue" d="M198.653,-35.1741C214.218,-30.0753 231.814,-24.3109 246.238,-19.5859"/>
<polygon fill="midnightblue" stroke="midnightblue" points="197.185,-31.9718 188.772,-38.411 199.364,-38.6239 197.185,-31.9718"/>
</g>
<!-- Node3&#45;&gt;Node2 -->
<g id="edge3" class="edge"><title>Node3&#45;&gt;Node2</title>
<path fill="none" stroke="midnightblue" d="M222.775,-54.7251C214.136,-54.8068 205.34,-54.6873 197.162,-54.3667"/>
<polygon fill="midnightblue" stroke="midnightblue" points="222.865,-58.2241 232.797,-54.5368 222.733,-51.2254 222.865,-58.2241"/>
</g>
<!-- Node5 -->
<g id="node5" class="node"><title>Node5</title>
<g id="a_node5"><a xlink:href="../../da/dd2/lua_8h.html#a29ceb6e6217ff14d061922a539c59eac" target="_top" xlink:title="lua_dump">
<polygon fill="none" stroke="black" points="356,-0.5 356,-19.5 415,-19.5 415,-0.5 356,-0.5"/>
<text text-anchor="middle" x="385.5" y="-7.5" font-family="Helvetica,sans-Serif" font-size="10.00">lua_dump</text>
</a>
</g>
</g>
<!-- Node4&#45;&gt;Node5 -->
<g id="edge5" class="edge"><title>Node4&#45;&gt;Node5</title>
<path fill="none" stroke="midnightblue" d="M319.063,-10C331.332,-10 344.484,-10 355.756,-10"/>
<polygon fill="midnightblue" stroke="midnightblue" points="319.025,-6.5001 309.025,-10 319.025,-13.5001 319.025,-6.5001"/>
</g>
<!-- Node6 -->
<g id="node6" class="node"><title>Node6</title>
<g id="a_node6"><a xlink:href="../../dc/d77/lstrlib_8c.html#abc94e3a13f1b6ddb2c9b20c9fd89e87f" target="_top" xlink:title="str_dump">
<polygon fill="none" stroke="black" points="451,-0.5 451,-19.5 507,-19.5 507,-0.5 451,-0.5"/>
<text text-anchor="middle" x="479" y="-7.5" font-family="Helvetica,sans-Serif" font-size="10.00">str_dump</text>
</a>
</g>
</g>
<!-- Node5&#45;&gt;Node6 -->
<g id="edge6" class="edge"><title>Node5&#45;&gt;Node6</title>
<path fill="none" stroke="midnightblue" d="M425.576,-10C434.07,-10 442.878,-10 450.795,-10"/>
<polygon fill="midnightblue" stroke="midnightblue" points="425.451,-6.5001 415.451,-10 425.451,-13.5001 425.451,-6.5001"/>
</g>
</g>
</svg>
