<?xml version="1.0" encoding="UTF-8" standalone="no"?>
<!DOCTYPE svg PUBLIC "-//W3C//DTD SVG 1.1//EN"
 "http://www.w3.org/Graphics/SVG/1.1/DTD/svg11.dtd">
<!-- Generated by graphviz version 2.38.0 (20140413.2041)
 -->
<!-- Title: DumpString Pages: 1 -->
<svg width="598pt" height="66pt"
 viewBox="0.00 0.00 598.00 66.00" xmlns="http://www.w3.org/2000/svg" xmlns:xlink="http://www.w3.org/1999/xlink">
<g id="graph0" class="graph" transform="scale(1 1) rotate(0) translate(4 62)">
<title>DumpString</title>
<!-- Node1 -->
<g id="node1" class="node"><title>Node1</title>
<polygon fill="#bfbfbf" stroke="black" points="0,-19.5 0,-38.5 66,-38.5 66,-19.5 0,-19.5"/>
<text text-anchor="middle" x="33" y="-26.5" font-family="Helvetica,sans-Serif" font-size="10.00">DumpString</text>
</g>
<!-- Node2 -->
<g id="node2" class="node"><title>Node2</title>
<g id="a_node2"><a xlink:href="../../db/d84/ldump_8c.html#a9fa7a30ec9113d0f913e6b13f0bd68bc" target="_top" xlink:title="DumpConstants">
<polygon fill="none" stroke="black" points="102,-38.5 102,-57.5 189,-57.5 189,-38.5 102,-38.5"/>
<text text-anchor="middle" x="145.5" y="-45.5" font-family="Helvetica,sans-Serif" font-size="10.00">DumpConstants</text>
</a>
</g>
</g>
<!-- Node1&#45;&gt;Node2 -->
<g id="edge1" class="edge"><title>Node1&#45;&gt;Node2</title>
<path fill="none" stroke="midnightblue" d="M76.1914,-36.2546C84.5525,-37.6923 93.3367,-39.2027 101.717,-40.6437"/>
<polygon fill="midnightblue" stroke="midnightblue" points="76.7067,-32.792 66.2582,-34.5467 75.5205,-39.6907 76.7067,-32.792"/>
</g>
<!-- Node7 -->
<g id="node7" class="node"><title>Node7</title>
<g id="a_node7"><a xlink:href="../../db/d84/ldump_8c.html#ae8565d7f2579c778dad98db4a2890b6c" target="_top" xlink:title="DumpDebug">
<polygon fill="none" stroke="black" points="109.5,-0.5 109.5,-19.5 181.5,-19.5 181.5,-0.5 109.5,-0.5"/>
<text text-anchor="middle" x="145.5" y="-7.5" font-family="Helvetica,sans-Serif" font-size="10.00">DumpDebug</text>
</a>
</g>
</g>
<!-- Node1&#45;&gt;Node7 -->
<g id="edge7" class="edge"><title>Node1&#45;&gt;Node7</title>
<path fill="none" stroke="midnightblue" d="M76.4038,-21.7089C87.2717,-19.8402 98.8417,-17.8507 109.302,-16.0521"/>
<polygon fill="midnightblue" stroke="midnightblue" points="75.5205,-18.3093 66.2582,-23.4533 76.7067,-25.208 75.5205,-18.3093"/>
</g>
<!-- Node3 -->
<g id="node3" class="node"><title>Node3</title>
<g id="a_node3"><a xlink:href="../../db/d84/ldump_8c.html#a9e7d1c45fffa5dfbaaac0ca0d66a2073" target="_top" xlink:title="DumpFunction">
<polygon fill="none" stroke="black" points="225,-38.5 225,-57.5 302,-57.5 302,-38.5 225,-38.5"/>
<text text-anchor="middle" x="263.5" y="-45.5" font-family="Helvetica,sans-Serif" font-size="10.00">DumpFunction</text>
</a>
</g>
</g>
<!-- Node2&#45;&gt;Node3 -->
<g id="edge2" class="edge"><title>Node2&#45;&gt;Node3</title>
<path fill="none" stroke="midnightblue" d="M199.135,-41.2757C207.842,-41.192 216.712,-41.3126 224.951,-41.6377"/>
<polygon fill="midnightblue" stroke="midnightblue" points="198.967,-37.7782 189.035,-41.4679 199.1,-44.7769 198.967,-37.7782"/>
</g>
<!-- Node3&#45;&gt;Node2 -->
<g id="edge3" class="edge"><title>Node3&#45;&gt;Node2</title>
<path fill="none" stroke="midnightblue" d="M214.756,-54.6553C206.232,-54.8142 197.402,-54.7731 189.035,-54.5321"/>
<polygon fill="midnightblue" stroke="midnightblue" points="215.055,-58.1482 224.951,-54.3623 214.854,-51.1511 215.055,-58.1482"/>
</g>
<!-- Node4 -->
<g id="node4" class="node"><title>Node4</title>
<g id="a_node4"><a xlink:href="../../d3/dff/lundump_8h.html#a2b9d33dfd898f6284de183d168556786" target="_top" xlink:title="luaU_dump">
<polygon fill="none" stroke="black" points="338,-38.5 338,-57.5 403,-57.5 403,-38.5 338,-38.5"/>
<text text-anchor="middle" x="370.5" y="-45.5" font-family="Helvetica,sans-Serif" font-size="10.00">luaU_dump</text>
</a>
</g>
</g>
<!-- Node3&#45;&gt;Node4 -->
<g id="edge4" class="edge"><title>Node3&#45;&gt;Node4</title>
<path fill="none" stroke="midnightblue" d="M312.138,-48C320.797,-48 329.635,-48 337.697,-48"/>
<polygon fill="midnightblue" stroke="midnightblue" points="312.111,-44.5001 302.111,-48 312.111,-51.5001 312.111,-44.5001"/>
</g>
<!-- Node5 -->
<g id="node5" class="node"><title>Node5</title>
<g id="a_node5"><a xlink:href="../../da/dd2/lua_8h.html#a29ceb6e6217ff14d061922a539c59eac" target="_top" xlink:title="lua_dump">
<polygon fill="none" stroke="black" points="439,-38.5 439,-57.5 498,-57.5 498,-38.5 439,-38.5"/>
<text text-anchor="middle" x="468.5" y="-45.5" font-family="Helvetica,sans-Serif" font-size="10.00">lua_dump</text>
</a>
</g>
</g>
<!-- Node4&#45;&gt;Node5 -->
<g id="edge5" class="edge"><title>Node4&#45;&gt;Node5</title>
<path fill="none" stroke="midnightblue" d="M413.425,-48C421.974,-48 430.785,-48 438.749,-48"/>
<polygon fill="midnightblue" stroke="midnightblue" points="413.2,-44.5001 403.2,-48 413.2,-51.5001 413.2,-44.5001"/>
</g>
<!-- Node6 -->
<g id="node6" class="node"><title>Node6</title>
<g id="a_node6"><a xlink:href="../../dc/d77/lstrlib_8c.html#abc94e3a13f1b6ddb2c9b20c9fd89e87f" target="_top" xlink:title="str_dump">
<polygon fill="none" stroke="black" points="534,-38.5 534,-57.5 590,-57.5 590,-38.5 534,-38.5"/>
<text text-anchor="middle" x="562" y="-45.5" font-family="Helvetica,sans-Serif" font-size="10.00">str_dump</text>
</a>
</g>
</g>
<!-- Node5&#45;&gt;Node6 -->
<g id="edge6" class="edge"><title>Node5&#45;&gt;Node6</title>
<path fill="none" stroke="midnightblue" d="M508.576,-48C517.07,-48 525.878,-48 533.795,-48"/>
<polygon fill="midnightblue" stroke="midnightblue" points="508.451,-44.5001 498.451,-48 508.451,-51.5001 508.451,-44.5001"/>
</g>
<!-- Node7&#45;&gt;Node3 -->
<g id="edge8" class="edge"><title>Node7&#45;&gt;Node3</title>
<path fill="none" stroke="midnightblue" d="M185.653,-22.8259C201.218,-27.9247 218.814,-33.6891 233.238,-38.4141"/>
<polygon fill="midnightblue" stroke="midnightblue" points="186.364,-19.3761 175.772,-19.589 184.185,-26.0282 186.364,-19.3761"/>
</g>
</g>
</svg>
