<?xml version="1.0" encoding="UTF-8" standalone="no"?>
<!DOCTYPE svg PUBLIC "-//W3C//DTD SVG 1.1//EN"
 "http://www.w3.org/Graphics/SVG/1.1/DTD/svg11.dtd">
<!-- Generated by graphviz version 2.38.0 (20140413.2041)
 -->
<!-- Title: DumpDebug Pages: 1 -->
<svg width="503pt" height="66pt"
 viewBox="0.00 0.00 503.00 66.00" xmlns="http://www.w3.org/2000/svg" xmlns:xlink="http://www.w3.org/1999/xlink">
<g id="graph0" class="graph" transform="scale(1 1) rotate(0) translate(4 62)">
<title>DumpDebug</title>
<!-- Node1 -->
<g id="node1" class="node"><title>Node1</title>
<polygon fill="#bfbfbf" stroke="black" points="0,-38.5 0,-57.5 72,-57.5 72,-38.5 0,-38.5"/>
<text text-anchor="middle" x="36" y="-45.5" font-family="Helvetica,sans-Serif" font-size="10.00">DumpDebug</text>
</g>
<!-- Node2 -->
<g id="node2" class="node"><title>Node2</title>
<g id="a_node2"><a xlink:href="../../db/d84/ldump_8c.html#a9e7d1c45fffa5dfbaaac0ca0d66a2073" target="_top" xlink:title="DumpFunction">
<polygon fill="none" stroke="black" points="108,-38.5 108,-57.5 185,-57.5 185,-38.5 108,-38.5"/>
<text text-anchor="middle" x="146.5" y="-45.5" font-family="Helvetica,sans-Serif" font-size="10.00">DumpFunction</text>
</a>
</g>
</g>
<!-- Node1&#45;&gt;Node2 -->
<g id="edge1" class="edge"><title>Node1&#45;&gt;Node2</title>
<path fill="none" stroke="midnightblue" d="M82.3633,-48C90.8417,-48 99.6178,-48 107.833,-48"/>
<polygon fill="midnightblue" stroke="midnightblue" points="82.2269,-44.5001 72.2268,-48 82.2268,-51.5001 82.2269,-44.5001"/>
</g>
<!-- Node3 -->
<g id="node3" class="node"><title>Node3</title>
<g id="a_node3"><a xlink:href="../../db/d84/ldump_8c.html#a9fa7a30ec9113d0f913e6b13f0bd68bc" target="_top" xlink:title="DumpConstants">
<polygon fill="none" stroke="black" points="221,-38.5 221,-57.5 308,-57.5 308,-38.5 221,-38.5"/>
<text text-anchor="middle" x="264.5" y="-45.5" font-family="Helvetica,sans-Serif" font-size="10.00">DumpConstants</text>
</a>
</g>
</g>
<!-- Node2&#45;&gt;Node3 -->
<g id="edge2" class="edge"><title>Node2&#45;&gt;Node3</title>
<path fill="none" stroke="midnightblue" d="M195.279,-41.344C203.736,-41.187 212.492,-41.2267 220.797,-41.4632"/>
<polygon fill="midnightblue" stroke="midnightblue" points="195.058,-37.8488 185.162,-41.6333 195.258,-44.846 195.058,-37.8488"/>
</g>
<!-- Node4 -->
<g id="node4" class="node"><title>Node4</title>
<g id="a_node4"><a xlink:href="../../d3/dff/lundump_8h.html#a2b9d33dfd898f6284de183d168556786" target="_top" xlink:title="luaU_dump">
<polygon fill="none" stroke="black" points="232,-0.5 232,-19.5 297,-19.5 297,-0.5 232,-0.5"/>
<text text-anchor="middle" x="264.5" y="-7.5" font-family="Helvetica,sans-Serif" font-size="10.00">luaU_dump</text>
</a>
</g>
</g>
<!-- Node2&#45;&gt;Node4 -->
<g id="edge4" class="edge"><title>Node2&#45;&gt;Node4</title>
<path fill="none" stroke="midnightblue" d="M186.653,-35.1741C202.218,-30.0753 219.814,-24.3109 234.238,-19.5859"/>
<polygon fill="midnightblue" stroke="midnightblue" points="185.185,-31.9718 176.772,-38.411 187.364,-38.6239 185.185,-31.9718"/>
</g>
<!-- Node3&#45;&gt;Node2 -->
<g id="edge3" class="edge"><title>Node3&#45;&gt;Node2</title>
<path fill="none" stroke="midnightblue" d="M210.775,-54.7251C202.136,-54.8068 193.34,-54.6873 185.162,-54.3667"/>
<polygon fill="midnightblue" stroke="midnightblue" points="210.865,-58.2241 220.797,-54.5368 210.733,-51.2254 210.865,-58.2241"/>
</g>
<!-- Node5 -->
<g id="node5" class="node"><title>Node5</title>
<g id="a_node5"><a xlink:href="../../da/dd2/lua_8h.html#a29ceb6e6217ff14d061922a539c59eac" target="_top" xlink:title="lua_dump">
<polygon fill="none" stroke="black" points="344,-0.5 344,-19.5 403,-19.5 403,-0.5 344,-0.5"/>
<text text-anchor="middle" x="373.5" y="-7.5" font-family="Helvetica,sans-Serif" font-size="10.00">lua_dump</text>
</a>
</g>
</g>
<!-- Node4&#45;&gt;Node5 -->
<g id="edge5" class="edge"><title>Node4&#45;&gt;Node5</title>
<path fill="none" stroke="midnightblue" d="M307.063,-10C319.332,-10 332.484,-10 343.756,-10"/>
<polygon fill="midnightblue" stroke="midnightblue" points="307.025,-6.5001 297.025,-10 307.025,-13.5001 307.025,-6.5001"/>
</g>
<!-- Node6 -->
<g id="node6" class="node"><title>Node6</title>
<g id="a_node6"><a xlink:href="../../dc/d77/lstrlib_8c.html#abc94e3a13f1b6ddb2c9b20c9fd89e87f" target="_top" xlink:title="str_dump">
<polygon fill="none" stroke="black" points="439,-0.5 439,-19.5 495,-19.5 495,-0.5 439,-0.5"/>
<text text-anchor="middle" x="467" y="-7.5" font-family="Helvetica,sans-Serif" font-size="10.00">str_dump</text>
</a>
</g>
</g>
<!-- Node5&#45;&gt;Node6 -->
<g id="edge6" class="edge"><title>Node5&#45;&gt;Node6</title>
<path fill="none" stroke="midnightblue" d="M413.576,-10C422.07,-10 430.878,-10 438.795,-10"/>
<polygon fill="midnightblue" stroke="midnightblue" points="413.451,-6.5001 403.451,-10 413.451,-13.5001 413.451,-6.5001"/>
</g>
</g>
</svg>
