<?xml version="1.0" encoding="UTF-8" standalone="no"?>
<!DOCTYPE svg PUBLIC "-//W3C//DTD SVG 1.1//EN"
 "http://www.w3.org/Graphics/SVG/1.1/DTD/svg11.dtd">
<!-- Generated by graphviz version 2.34.0 (20131008.0448)
 -->
<!-- Title: &#45;[Observable triggerChangeEvent] Pages: 1 -->
<svg width="348pt" height="67pt"
 viewBox="0.00 0.00 348.00 67.00" xmlns="http://www.w3.org/2000/svg" xmlns:xlink="http://www.w3.org/1999/xlink">
<g id="graph0" class="graph" transform="scale(1 1) rotate(0) translate(4 63)">
<title>&#45;[Observable triggerChangeEvent]</title>
<!-- Node1 -->
<g id="node1" class="node"><title>Node1</title>
<polygon fill="#bfbfbf" stroke="black" points="0.322,-13 0.322,-45 139.678,-45 139.678,-13 0.322,-13"/>
<text text-anchor="start" x="8.322" y="-32" font-family="Helvetica,sans-Serif" font-size="10.00">&#45;[Observable triggerChange</text>
<text text-anchor="middle" x="70" y="-20" font-family="Helvetica,sans-Serif" font-size="10.00">Event]</text>
</g>
<!-- Node2 -->
<g id="node2" class="node"><title>Node2</title>
<g id="a_node2"><a xlink:href="../../de/d66/interface_computed.html#a5aad223dfde2480acc08eadf76c1f638" target="_top" xlink:title="&#45;[Computed observableUpdated:]">
<polygon fill="none" stroke="black" points="176.369,-39 176.369,-59 339.631,-59 339.631,-39 176.369,-39"/>
<text text-anchor="middle" x="258" y="-46" font-family="Helvetica,sans-Serif" font-size="10.00">&#45;[Computed observableUpdated:]</text>
</a>
</g>
</g>
<!-- Node1&#45;&gt;Node2 -->
<g id="edge1" class="edge"><title>Node1&#45;&gt;Node2</title>
<path fill="none" stroke="midnightblue" d="M149.889,-37.4826C158.624,-38.4219 167.53,-39.3795 176.287,-40.3212"/>
<polygon fill="midnightblue" stroke="midnightblue" points="150.048,-33.9797 139.731,-36.3904 149.3,-40.9396 150.048,-33.9797"/>
</g>
<!-- Node3 -->
<g id="node3" class="node"><title>Node3</title>
<g id="a_node3"><a xlink:href="../../d2/d8f/interface_observable.html#a55a3e629d37ca375daff81447e37c1cc" target="_top" xlink:title="&#45;[Observable setValue:]">
<polygon fill="none" stroke="black" points="197.765,-0 197.765,-20 318.235,-20 318.235,-0 197.765,-0"/>
<text text-anchor="middle" x="258" y="-7" font-family="Helvetica,sans-Serif" font-size="10.00">&#45;[Observable setValue:]</text>
</a>
</g>
</g>
<!-- Node1&#45;&gt;Node3 -->
<g id="edge2" class="edge"><title>Node1&#45;&gt;Node3</title>
<path fill="none" stroke="midnightblue" d="M150.117,-20.9182C166.074,-19.2882 182.589,-17.6012 197.725,-16.055"/>
<polygon fill="midnightblue" stroke="midnightblue" points="149.324,-17.4809 139.731,-21.9791 150.035,-24.4447 149.324,-17.4809"/>
</g>
</g>
</svg>
