<?xml version="1.0" encoding="UTF-8" standalone="no"?>
<!DOCTYPE svg PUBLIC "-//W3C//DTD SVG 1.1//EN"
 "http://www.w3.org/Graphics/SVG/1.1/DTD/svg11.dtd">
<!-- Generated by graphviz version 2.38.0 (20140413.2041)
 -->
<!-- Title: collectvalidlines Pages: 1 -->
<svg width="825pt" height="1035pt"
 viewBox="0.00 0.00 825.00 1035.00" xmlns="http://www.w3.org/2000/svg" xmlns:xlink="http://www.w3.org/1999/xlink">
<g id="graph0" class="graph" transform="scale(1 1) rotate(0) translate(4 1031)">
<title>collectvalidlines</title>
<!-- Node1 -->
<g id="node1" class="node"><title>Node1</title>
<polygon fill="#bfbfbf" stroke="black" points="0,-228.5 0,-247.5 80,-247.5 80,-228.5 0,-228.5"/>
<text text-anchor="middle" x="40" y="-235.5" font-family="Helvetica,sans-Serif" font-size="10.00">collectvalidlines</text>
</g>
<!-- Node2 -->
<g id="node2" class="node"><title>Node2</title>
<g id="a_node2"><a xlink:href="../../da/dd2/lua_8h.html#a9cf23593facaabc7fb42e4d232a507d7" target="_top" xlink:title="lua_getinfo">
<polygon fill="none" stroke="black" points="116,-228.5 116,-247.5 178,-247.5 178,-228.5 116,-228.5"/>
<text text-anchor="middle" x="147" y="-235.5" font-family="Helvetica,sans-Serif" font-size="10.00">lua_getinfo</text>
</a>
</g>
</g>
<!-- Node1&#45;&gt;Node2 -->
<g id="edge1" class="edge"><title>Node1&#45;&gt;Node2</title>
<path fill="none" stroke="midnightblue" d="M90.2069,-238C98.9147,-238 107.744,-238 115.731,-238"/>
<polygon fill="midnightblue" stroke="midnightblue" points="90.0982,-234.5 80.0981,-238 90.0981,-241.5 90.0982,-234.5"/>
</g>
<!-- Node3 -->
<g id="node3" class="node"><title>Node3</title>
<g id="a_node3"><a xlink:href="../../d0/d56/lauxlib_8c.html#a4f35430f7ecfcbd5f507e550937046b4" target="_top" xlink:title="pushglobalfuncname">
<polygon fill="none" stroke="black" points="214,-266.5 214,-285.5 319,-285.5 319,-266.5 214,-266.5"/>
<text text-anchor="middle" x="266.5" y="-273.5" font-family="Helvetica,sans-Serif" font-size="10.00">pushglobalfuncname</text>
</a>
</g>
</g>
<!-- Node2&#45;&gt;Node3 -->
<g id="edge2" class="edge"><title>Node2&#45;&gt;Node3</title>
<path fill="none" stroke="midnightblue" d="M187.209,-250.68C203.085,-255.815 221.11,-261.644 235.859,-266.414"/>
<polygon fill="midnightblue" stroke="midnightblue" points="188.242,-247.336 177.65,-247.589 186.088,-253.996 188.242,-247.336"/>
</g>
<!-- Node4 -->
<g id="node4" class="node"><title>Node4</title>
<g id="a_node4"><a xlink:href="../../da/d29/lauxlib_8h.html#a526c220d17273c63ce9973bcde4a2c4a" target="_top" xlink:title="luaL_argerror">
<polygon fill="none" stroke="black" points="478,-380.5 478,-399.5 549,-399.5 549,-380.5 478,-380.5"/>
<text text-anchor="middle" x="513.5" y="-387.5" font-family="Helvetica,sans-Serif" font-size="10.00">luaL_argerror</text>
</a>
</g>
</g>
<!-- Node2&#45;&gt;Node4 -->
<g id="edge40" class="edge"><title>Node2&#45;&gt;Node4</title>
<path fill="none" stroke="midnightblue" d="M165.16,-255.057C177.92,-267.163 196.142,-283.278 214,-295 272.163,-333.178 288.734,-341.804 355,-363 396.089,-376.143 445.373,-383.281 477.736,-386.86"/>
<polygon fill="midnightblue" stroke="midnightblue" points="167.245,-252.204 157.623,-247.768 162.378,-257.236 167.245,-252.204"/>
</g>
<!-- Node7 -->
<g id="node7" class="node"><title>Node7</title>
<g id="a_node7"><a xlink:href="../../d8/d97/ldblib_8c.html#a4eb57e66c2efb2d31c9b9e1b01d27e13" target="_top" xlink:title="db_getinfo">
<polygon fill="none" stroke="black" points="604.5,-228.5 604.5,-247.5 664.5,-247.5 664.5,-228.5 604.5,-228.5"/>
<text text-anchor="middle" x="634.5" y="-235.5" font-family="Helvetica,sans-Serif" font-size="10.00">db_getinfo</text>
</a>
</g>
</g>
<!-- Node2&#45;&gt;Node7 -->
<g id="edge50" class="edge"><title>Node2&#45;&gt;Node7</title>
<path fill="none" stroke="midnightblue" d="M188.094,-238C283.303,-238 521.225,-238 604.312,-238"/>
<polygon fill="midnightblue" stroke="midnightblue" points="188.004,-234.5 178.004,-238 188.004,-241.5 188.004,-234.5"/>
</g>
<!-- Node37 -->
<g id="node37" class="node"><title>Node37</title>
<g id="a_node37"><a xlink:href="../../da/d29/lauxlib_8h.html#a664cc293d6c7a7dc67857fe95583a10e" target="_top" xlink:title="luaL_traceback">
<polygon fill="none" stroke="black" points="473,-171.5 473,-190.5 554,-190.5 554,-171.5 473,-171.5"/>
<text text-anchor="middle" x="513.5" y="-178.5" font-family="Helvetica,sans-Serif" font-size="10.00">luaL_traceback</text>
</a>
</g>
</g>
<!-- Node2&#45;&gt;Node37 -->
<g id="edge39" class="edge"><title>Node2&#45;&gt;Node37</title>
<path fill="none" stroke="midnightblue" d="M183.476,-225.083C224.225,-210.989 293.404,-189.326 355,-181 394.833,-175.616 440.852,-176.415 472.819,-178.072"/>
<polygon fill="midnightblue" stroke="midnightblue" points="182.277,-221.794 173.996,-228.403 184.591,-228.4 182.277,-221.794"/>
</g>
<!-- Node39 -->
<g id="node39" class="node"><title>Node39</title>
<g id="a_node39"><a xlink:href="../../da/d29/lauxlib_8h.html#a269122a77674ca63c9193c2a30b4729e" target="_top" xlink:title="luaL_where">
<polygon fill="none" stroke="black" points="233.5,-418.5 233.5,-437.5 299.5,-437.5 299.5,-418.5 233.5,-418.5"/>
<text text-anchor="middle" x="266.5" y="-425.5" font-family="Helvetica,sans-Serif" font-size="10.00">luaL_where</text>
</a>
</g>
</g>
<!-- Node2&#45;&gt;Node39 -->
<g id="edge41" class="edge"><title>Node2&#45;&gt;Node39</title>
<path fill="none" stroke="midnightblue" d="M150.96,-257.577C157.024,-291.452 173.834,-361.449 214,-404 219.823,-410.169 227.546,-414.902 235.235,-418.467"/>
<polygon fill="midnightblue" stroke="midnightblue" points="154.388,-256.857 149.297,-247.565 147.483,-258.004 154.388,-256.857"/>
</g>
<!-- Node45 -->
<g id="node45" class="node"><title>Node45</title>
<g id="a_node45"><a xlink:href="../../d8/d97/ldblib_8c.html#a0951daf8c0b66e39bd3aa618aff380bf" target="_top" xlink:title="checkupval">
<polygon fill="none" stroke="black" points="234,-114.5 234,-133.5 299,-133.5 299,-114.5 234,-114.5"/>
<text text-anchor="middle" x="266.5" y="-121.5" font-family="Helvetica,sans-Serif" font-size="10.00">checkupval</text>
</a>
</g>
</g>
<!-- Node2&#45;&gt;Node45 -->
<g id="edge51" class="edge"><title>Node2&#45;&gt;Node45</title>
<path fill="none" stroke="midnightblue" d="M157.875,-219.384C169.195,-199.518 189.396,-168.186 214,-148 221.169,-142.119 230.016,-137.321 238.343,-133.603"/>
<polygon fill="midnightblue" stroke="midnightblue" points="154.688,-217.916 152.92,-228.362 160.816,-221.298 154.688,-217.916"/>
</g>
<!-- Node48 -->
<g id="node48" class="node"><title>Node48</title>
<g id="a_node48"><a xlink:href="../../d8/d97/ldblib_8c.html#a5caaa985f31fc5cbd014f831833205e7" target="_top" xlink:title="hookf">
<polygon fill="none" stroke="black" points="247,-38.5 247,-57.5 286,-57.5 286,-38.5 247,-38.5"/>
<text text-anchor="middle" x="266.5" y="-45.5" font-family="Helvetica,sans-Serif" font-size="10.00">hookf</text>
</a>
</g>
</g>
<!-- Node2&#45;&gt;Node48 -->
<g id="edge54" class="edge"><title>Node2&#45;&gt;Node48</title>
<path fill="none" stroke="midnightblue" d="M155.396,-219.193C166.277,-192.595 188.132,-142.999 214,-105 226.308,-86.9196 243.982,-68.6119 255.096,-57.7883"/>
<polygon fill="midnightblue" stroke="midnightblue" points="152.142,-217.905 151.66,-228.489 158.637,-220.516 152.142,-217.905"/>
</g>
<!-- Node3&#45;&gt;Node4 -->
<g id="edge3" class="edge"><title>Node3&#45;&gt;Node4</title>
<path fill="none" stroke="midnightblue" d="M288.495,-291.655C305.726,-304.009 331.095,-321.087 355,-333 396.252,-353.557 446.798,-370.509 479.316,-380.439"/>
<polygon fill="midnightblue" stroke="midnightblue" points="290.423,-288.73 280.277,-285.678 286.305,-294.391 290.423,-288.73"/>
</g>
<!-- Node36 -->
<g id="node36" class="node"><title>Node36</title>
<g id="a_node36"><a xlink:href="../../d0/d56/lauxlib_8c.html#a0aa557042467d3f84d0663c742b32946" target="_top" xlink:title="pushfuncname">
<polygon fill="none" stroke="black" points="356,-190.5 356,-209.5 436,-209.5 436,-190.5 356,-190.5"/>
<text text-anchor="middle" x="396" y="-197.5" font-family="Helvetica,sans-Serif" font-size="10.00">pushfuncname</text>
</a>
</g>
</g>
<!-- Node3&#45;&gt;Node36 -->
<g id="edge36" class="edge"><title>Node3&#45;&gt;Node36</title>
<path fill="none" stroke="midnightblue" d="M292.422,-261.145C318.053,-245.867 357.21,-222.526 378.983,-209.547"/>
<polygon fill="midnightblue" stroke="midnightblue" points="290.446,-258.248 283.648,-266.375 294.03,-264.261 290.446,-258.248"/>
</g>
<!-- Node5 -->
<g id="node5" class="node"><title>Node5</title>
<g id="a_node5"><a xlink:href="../../dc/dba/loslib_8c.html#aed631522193ea719b6d96782f3e26b6a" target="_top" xlink:title="checkoption">
<polygon fill="none" stroke="black" points="601.5,-665.5 601.5,-684.5 667.5,-684.5 667.5,-665.5 601.5,-665.5"/>
<text text-anchor="middle" x="634.5" y="-672.5" font-family="Helvetica,sans-Serif" font-size="10.00">checkoption</text>
</a>
</g>
</g>
<!-- Node4&#45;&gt;Node5 -->
<g id="edge4" class="edge"><title>Node4&#45;&gt;Node5</title>
<path fill="none" stroke="midnightblue" d="M528.838,-407.698C537.079,-418.538 547.125,-432.981 554,-447 577.395,-494.705 572.521,-510.824 590,-561 603.589,-600.009 621.715,-645.735 629.582,-665.311"/>
<polygon fill="midnightblue" stroke="midnightblue" points="531.367,-405.25 522.451,-399.528 525.853,-409.562 531.367,-405.25"/>
</g>
<!-- Node4&#45;&gt;Node7 -->
<g id="edge6" class="edge"><title>Node4&#45;&gt;Node7</title>
<path fill="none" stroke="midnightblue" d="M550.307,-374.672C551.629,-373.527 552.869,-372.305 554,-371 588.801,-330.851 554.471,-296.507 590,-257 593.857,-252.711 598.858,-249.346 604.088,-246.722"/>
<polygon fill="midnightblue" stroke="midnightblue" points="548.26,-371.832 542.041,-380.409 552.252,-377.582 548.26,-371.832"/>
</g>
<!-- Node8 -->
<g id="node8" class="node"><title>Node8</title>
<g id="a_node8"><a xlink:href="../../d8/d97/ldblib_8c.html#ae802ce7397e9ebb08a90b69976578ecc" target="_top" xlink:title="db_getlocal">
<polygon fill="none" stroke="black" points="602,-532.5 602,-551.5 667,-551.5 667,-532.5 602,-532.5"/>
<text text-anchor="middle" x="634.5" y="-539.5" font-family="Helvetica,sans-Serif" font-size="10.00">db_getlocal</text>
</a>
</g>
</g>
<!-- Node4&#45;&gt;Node8 -->
<g id="edge7" class="edge"><title>Node4&#45;&gt;Node8</title>
<path fill="none" stroke="midnightblue" d="M528.152,-408.064C536.151,-419.032 546.185,-433.482 554,-447 572.707,-479.357 563.171,-496.978 590,-523 593.904,-526.787 598.687,-529.884 603.635,-532.395"/>
<polygon fill="midnightblue" stroke="midnightblue" points="530.77,-405.718 522.004,-399.766 525.145,-409.885 530.77,-405.718"/>
</g>
<!-- Node9 -->
<g id="node9" class="node"><title>Node9</title>
<g id="a_node9"><a xlink:href="../../d8/d97/ldblib_8c.html#a11cfe90e96e7ea907a767f5109f7ef4b" target="_top" xlink:title="db_setlocal">
<polygon fill="none" stroke="black" points="733.5,-323.5 733.5,-342.5 798.5,-342.5 798.5,-323.5 733.5,-323.5"/>
<text text-anchor="middle" x="766" y="-330.5" font-family="Helvetica,sans-Serif" font-size="10.00">db_setlocal</text>
</a>
</g>
</g>
<!-- Node4&#45;&gt;Node9 -->
<g id="edge8" class="edge"><title>Node4&#45;&gt;Node9</title>
<path fill="none" stroke="midnightblue" d="M544.503,-403.475C579.128,-416.86 636.72,-432.303 679,-409 705.241,-394.537 691.802,-370.964 715,-352 720.392,-347.592 726.916,-344.136 733.447,-341.453"/>
<polygon fill="midnightblue" stroke="midnightblue" points="545.54,-400.119 534.957,-399.61 542.913,-406.607 545.54,-400.119"/>
</g>
<!-- Node10 -->
<g id="node10" class="node"><title>Node10</title>
<g id="a_node10"><a xlink:href="../../d8/d97/ldblib_8c.html#a233c3c4d12bda0fdbf515a18b8961461" target="_top" xlink:title="db_setuservalue">
<polygon fill="none" stroke="black" points="591,-380.5 591,-399.5 678,-399.5 678,-380.5 591,-380.5"/>
<text text-anchor="middle" x="634.5" y="-387.5" font-family="Helvetica,sans-Serif" font-size="10.00">db_setuservalue</text>
</a>
</g>
</g>
<!-- Node4&#45;&gt;Node10 -->
<g id="edge9" class="edge"><title>Node4&#45;&gt;Node10</title>
<path fill="none" stroke="midnightblue" d="M559.327,-390C569.675,-390 580.655,-390 590.905,-390"/>
<polygon fill="midnightblue" stroke="midnightblue" points="559.24,-386.5 549.24,-390 559.24,-393.5 559.24,-386.5"/>
</g>
<!-- Node11 -->
<g id="node11" class="node"><title>Node11</title>
<g id="a_node11"><a xlink:href="../../de/df3/liolib_8c.html#addece2406777a40f0f591e3518293932" target="_top" xlink:title="g_read">
<polygon fill="none" stroke="black" points="611.5,-342.5 611.5,-361.5 657.5,-361.5 657.5,-342.5 611.5,-342.5"/>
<text text-anchor="middle" x="634.5" y="-349.5" font-family="Helvetica,sans-Serif" font-size="10.00">g_read</text>
</a>
</g>
</g>
<!-- Node4&#45;&gt;Node11 -->
<g id="edge10" class="edge"><title>Node4&#45;&gt;Node11</title>
<path fill="none" stroke="midnightblue" d="M554.165,-377.334C573.218,-371.25 595.335,-364.187 611.37,-359.067"/>
<polygon fill="midnightblue" stroke="midnightblue" points="552.99,-374.035 544.529,-380.411 555.12,-380.703 552.99,-374.035"/>
</g>
<!-- Node15 -->
<g id="node15" class="node"><title>Node15</title>
<g id="a_node15"><a xlink:href="../../da/d29/lauxlib_8h.html#ad78c85dce421e9cb793e205b9e81c640" target="_top" xlink:title="luaL_checkany">
<polygon fill="none" stroke="black" points="594.5,-494.5 594.5,-513.5 674.5,-513.5 674.5,-494.5 594.5,-494.5"/>
<text text-anchor="middle" x="634.5" y="-501.5" font-family="Helvetica,sans-Serif" font-size="10.00">luaL_checkany</text>
</a>
</g>
</g>
<!-- Node4&#45;&gt;Node15 -->
<g id="edge14" class="edge"><title>Node4&#45;&gt;Node15</title>
<path fill="none" stroke="midnightblue" d="M532.07,-406.832C557.336,-431.036 603.114,-474.891 623.38,-494.305"/>
<polygon fill="midnightblue" stroke="midnightblue" points="534.288,-404.11 524.646,-399.72 529.446,-409.165 534.288,-404.11"/>
</g>
<!-- Node27 -->
<g id="node27" class="node"><title>Node27</title>
<g id="a_node27"><a xlink:href="../../da/d29/lauxlib_8h.html#a638633914d3a19650db8320c1fccf161" target="_top" xlink:title="luaL_checkoption">
<polygon fill="none" stroke="black" points="590,-931.5 590,-950.5 679,-950.5 679,-931.5 590,-931.5"/>
<text text-anchor="middle" x="634.5" y="-938.5" font-family="Helvetica,sans-Serif" font-size="10.00">luaL_checkoption</text>
</a>
</g>
</g>
<!-- Node4&#45;&gt;Node27 -->
<g id="edge27" class="edge"><title>Node4&#45;&gt;Node27</title>
<path fill="none" stroke="midnightblue" d="M530.027,-407.286C538.652,-417.95 548.687,-432.354 554,-447 614.718,-614.381 544.279,-673.917 590,-846 598.757,-878.959 618.112,-914.744 627.776,-931.429"/>
<polygon fill="midnightblue" stroke="midnightblue" points="532.659,-404.977 523.529,-399.602 527.314,-409.498 532.659,-404.977"/>
</g>
<!-- Node32 -->
<g id="node32" class="node"><title>Node32</title>
<g id="a_node32"><a xlink:href="../../dc/d77/lstrlib_8c.html#ae26a9374857058119e59d0328208c2f2" target="_top" xlink:title="str_format">
<polygon fill="none" stroke="black" points="606,-266.5 606,-285.5 663,-285.5 663,-266.5 606,-266.5"/>
<text text-anchor="middle" x="634.5" y="-273.5" font-family="Helvetica,sans-Serif" font-size="10.00">str_format</text>
</a>
</g>
</g>
<!-- Node4&#45;&gt;Node32 -->
<g id="edge32" class="edge"><title>Node4&#45;&gt;Node32</title>
<path fill="none" stroke="midnightblue" d="M547.638,-375.407C549.858,-374.024 552.003,-372.554 554,-371 570.974,-357.794 609.949,-307.239 626.188,-285.753"/>
<polygon fill="midnightblue" stroke="midnightblue" points="545.889,-372.375 538.853,-380.296 549.293,-378.492 545.889,-372.375"/>
</g>
<!-- Node33 -->
<g id="node33" class="node"><title>Node33</title>
<g id="a_node33"><a xlink:href="../../d0/d56/lauxlib_8c.html#ae1abbe81af2d487f783ed9b4e5a6c7fd" target="_top" xlink:title="typeerror">
<polygon fill="none" stroke="black" points="608,-817.5 608,-836.5 661,-836.5 661,-817.5 608,-817.5"/>
<text text-anchor="middle" x="634.5" y="-824.5" font-family="Helvetica,sans-Serif" font-size="10.00">typeerror</text>
</a>
</g>
</g>
<!-- Node4&#45;&gt;Node33 -->
<g id="edge33" class="edge"><title>Node4&#45;&gt;Node33</title>
<path fill="none" stroke="midnightblue" d="M529.734,-407.396C538.258,-418.099 548.288,-432.505 554,-447 594.671,-550.213 564.664,-585.994 590,-694 601.097,-741.304 621.405,-795.872 629.759,-817.482"/>
<polygon fill="midnightblue" stroke="midnightblue" points="532.41,-405.14 523.333,-399.676 527.021,-409.608 532.41,-405.14"/>
</g>
<!-- Node6 -->
<g id="node6" class="node"><title>Node6</title>
<g id="a_node6"><a xlink:href="../../dc/dba/loslib_8c.html#a6520f2562b500aee87a6a475995adefb" target="_top" xlink:title="os_date">
<polygon fill="none" stroke="black" points="740.5,-779.5 740.5,-798.5 791.5,-798.5 791.5,-779.5 740.5,-779.5"/>
<text text-anchor="middle" x="766" y="-786.5" font-family="Helvetica,sans-Serif" font-size="10.00">os_date</text>
</a>
</g>
</g>
<!-- Node5&#45;&gt;Node6 -->
<g id="edge5" class="edge"><title>Node5&#45;&gt;Node6</title>
<path fill="none" stroke="midnightblue" d="M646.732,-693.444C660.455,-714.587 685.523,-749.02 715,-770 722.566,-775.385 731.85,-779.462 740.356,-782.431"/>
<polygon fill="midnightblue" stroke="midnightblue" points="649.547,-691.348 641.249,-684.76 643.628,-695.085 649.547,-691.348"/>
</g>
<!-- Node12 -->
<g id="node12" class="node"><title>Node12</title>
<g id="a_node12"><a xlink:href="../../de/df3/liolib_8c.html#a45307aa59a628966c6ea270e9b476d9a" target="_top" xlink:title="io_read">
<polygon fill="none" stroke="black" points="742.5,-285.5 742.5,-304.5 789.5,-304.5 789.5,-285.5 742.5,-285.5"/>
<text text-anchor="middle" x="766" y="-292.5" font-family="Helvetica,sans-Serif" font-size="10.00">io_read</text>
</a>
</g>
</g>
<!-- Node11&#45;&gt;Node12 -->
<g id="edge11" class="edge"><title>Node11&#45;&gt;Node12</title>
<path fill="none" stroke="midnightblue" d="M663.554,-337.892C678.66,-330.474 697.696,-321.408 715,-314 723.878,-310.199 733.795,-306.351 742.441,-303.121"/>
<polygon fill="midnightblue" stroke="midnightblue" points="661.663,-334.923 654.253,-342.495 664.768,-341.197 661.663,-334.923"/>
</g>
<!-- Node13 -->
<g id="node13" class="node"><title>Node13</title>
<g id="a_node13"><a xlink:href="../../de/df3/liolib_8c.html#add5250a74576076467531e4eb8f5f68e" target="_top" xlink:title="f_read">
<polygon fill="none" stroke="black" points="744.5,-247.5 744.5,-266.5 787.5,-266.5 787.5,-247.5 744.5,-247.5"/>
<text text-anchor="middle" x="766" y="-254.5" font-family="Helvetica,sans-Serif" font-size="10.00">f_read</text>
</a>
</g>
</g>
<!-- Node11&#45;&gt;Node13 -->
<g id="edge12" class="edge"><title>Node11&#45;&gt;Node13</title>
<path fill="none" stroke="midnightblue" d="M666.609,-337.183C670.997,-334.439 675.276,-331.364 679,-328 699.858,-309.156 692.867,-293.327 715,-276 723.482,-269.36 734.543,-264.836 744.105,-261.874"/>
<polygon fill="midnightblue" stroke="midnightblue" points="664.537,-334.335 657.589,-342.334 668.008,-340.414 664.537,-334.335"/>
</g>
<!-- Node14 -->
<g id="node14" class="node"><title>Node14</title>
<g id="a_node14"><a xlink:href="../../de/df3/liolib_8c.html#ac37d80ee2cc364b4adafcb6f7c20f28b" target="_top" xlink:title="io_readline">
<polygon fill="none" stroke="red" points="735.5,-209.5 735.5,-228.5 796.5,-228.5 796.5,-209.5 735.5,-209.5"/>
<text text-anchor="middle" x="766" y="-216.5" font-family="Helvetica,sans-Serif" font-size="10.00">io_readline</text>
</a>
</g>
</g>
<!-- Node11&#45;&gt;Node14 -->
<g id="edge13" class="edge"><title>Node11&#45;&gt;Node14</title>
<path fill="none" stroke="midnightblue" d="M666.718,-338.293C671.232,-335.363 675.52,-331.939 679,-328 707.523,-295.713 684.274,-268.198 715,-238 720.63,-232.467 728.033,-228.514 735.412,-225.701"/>
<polygon fill="midnightblue" stroke="midnightblue" points="664.857,-335.326 657.911,-343.326 668.33,-341.403 664.857,-335.326"/>
</g>
<!-- Node15&#45;&gt;Node9 -->
<g id="edge16" class="edge"><title>Node15&#45;&gt;Node9</title>
<path fill="none" stroke="midnightblue" d="M649.709,-486.128C658.834,-474.112 670.52,-457.665 679,-442 699.509,-404.113 684.274,-382.198 715,-352 720.1,-346.988 726.655,-343.272 733.329,-340.526"/>
<polygon fill="midnightblue" stroke="midnightblue" points="646.685,-484.317 643.326,-494.366 652.218,-488.604 646.685,-484.317"/>
</g>
<!-- Node16 -->
<g id="node16" class="node"><title>Node16</title>
<g id="a_node16"><a xlink:href="../../d8/d97/ldblib_8c.html#aa84da9dfea83fb9e516443b49b109044" target="_top" xlink:title="db_getmetatable">
<polygon fill="none" stroke="black" points="722,-513.5 722,-532.5 810,-532.5 810,-513.5 722,-513.5"/>
<text text-anchor="middle" x="766" y="-520.5" font-family="Helvetica,sans-Serif" font-size="10.00">db_getmetatable</text>
</a>
</g>
</g>
<!-- Node15&#45;&gt;Node16 -->
<g id="edge15" class="edge"><title>Node15&#45;&gt;Node16</title>
<path fill="none" stroke="midnightblue" d="M684.743,-511.225C696.961,-513.017 709.961,-514.925 721.862,-516.671"/>
<polygon fill="midnightblue" stroke="midnightblue" points="685.108,-507.741 674.706,-509.752 684.092,-514.667 685.108,-507.741"/>
</g>
<!-- Node17 -->
<g id="node17" class="node"><title>Node17</title>
<g id="a_node17"><a xlink:href="../../d8/d97/ldblib_8c.html#acd61487bdd057d6c668ec0bd88728670" target="_top" xlink:title="db_setupvalue">
<polygon fill="none" stroke="black" points="726,-475.5 726,-494.5 806,-494.5 806,-475.5 726,-475.5"/>
<text text-anchor="middle" x="766" y="-482.5" font-family="Helvetica,sans-Serif" font-size="10.00">db_setupvalue</text>
</a>
</g>
</g>
<!-- Node15&#45;&gt;Node17 -->
<g id="edge17" class="edge"><title>Node15&#45;&gt;Node17</title>
<path fill="none" stroke="midnightblue" d="M684.868,-496.757C698.457,-494.763 713.006,-492.628 725.928,-490.733"/>
<polygon fill="midnightblue" stroke="midnightblue" points="684.092,-493.333 674.706,-498.248 685.108,-500.259 684.092,-493.333"/>
</g>
<!-- Node18 -->
<g id="node18" class="node"><title>Node18</title>
<g id="a_node18"><a xlink:href="../../de/df3/liolib_8c.html#a2bd80ae170dce6c29d385b71398fd7c2" target="_top" xlink:title="io_type">
<polygon fill="none" stroke="black" points="742.5,-437.5 742.5,-456.5 789.5,-456.5 789.5,-437.5 742.5,-437.5"/>
<text text-anchor="middle" x="766" y="-444.5" font-family="Helvetica,sans-Serif" font-size="10.00">io_type</text>
</a>
</g>
</g>
<!-- Node15&#45;&gt;Node18 -->
<g id="edge18" class="edge"><title>Node15&#45;&gt;Node18</title>
<path fill="none" stroke="midnightblue" d="M663.554,-489.892C678.66,-482.474 697.696,-473.408 715,-466 723.878,-462.199 733.795,-458.351 742.441,-455.121"/>
<polygon fill="midnightblue" stroke="midnightblue" points="661.663,-486.923 654.253,-494.495 664.768,-493.197 661.663,-486.923"/>
</g>
<!-- Node19 -->
<g id="node19" class="node"><title>Node19</title>
<g id="a_node19"><a xlink:href="../../d8/dd3/lbaselib_8c.html#addfd66adcbe4c777cf5e10536d27d8b1" target="_top" xlink:title="luaB_getmetatable">
<polygon fill="none" stroke="black" points="718,-399.5 718,-418.5 814,-418.5 814,-399.5 718,-399.5"/>
<text text-anchor="middle" x="766" y="-406.5" font-family="Helvetica,sans-Serif" font-size="10.00">luaB_getmetatable</text>
</a>
</g>
</g>
<!-- Node15&#45;&gt;Node19 -->
<g id="edge19" class="edge"><title>Node15&#45;&gt;Node19</title>
<path fill="none" stroke="midnightblue" d="M650.205,-486.319C665.064,-469.403 689.425,-444.142 715,-428 720.811,-424.332 727.44,-421.197 733.93,-418.594"/>
<polygon fill="midnightblue" stroke="midnightblue" points="647.202,-484.444 643.345,-494.312 652.514,-489.003 647.202,-484.444"/>
</g>
<!-- Node20 -->
<g id="node20" class="node"><title>Node20</title>
<g id="a_node20"><a xlink:href="../../d8/dd3/lbaselib_8c.html#a1fb2725eed679431d070b2e9e7abc223" target="_top" xlink:title="luaB_pcall">
<polygon fill="none" stroke="black" points="735.5,-361.5 735.5,-380.5 796.5,-380.5 796.5,-361.5 735.5,-361.5"/>
<text text-anchor="middle" x="766" y="-368.5" font-family="Helvetica,sans-Serif" font-size="10.00">luaB_pcall</text>
</a>
</g>
</g>
<!-- Node15&#45;&gt;Node20 -->
<g id="edge20" class="edge"><title>Node15&#45;&gt;Node20</title>
<path fill="none" stroke="midnightblue" d="M648.271,-485.861C656.955,-473.511 668.695,-456.786 679,-442 695.072,-418.939 692.867,-407.327 715,-390 720.996,-385.306 728.281,-381.67 735.413,-378.895"/>
<polygon fill="midnightblue" stroke="midnightblue" points="645.192,-484.155 642.3,-494.348 650.917,-488.183 645.192,-484.155"/>
</g>
<!-- Node21 -->
<g id="node21" class="node"><title>Node21</title>
<g id="a_node21"><a xlink:href="../../d8/dd3/lbaselib_8c.html#a4dbd4fb89ec70a7b07cad52f7c13e637" target="_top" xlink:title="luaB_rawequal">
<polygon fill="none" stroke="black" points="725.5,-741.5 725.5,-760.5 806.5,-760.5 806.5,-741.5 725.5,-741.5"/>
<text text-anchor="middle" x="766" y="-748.5" font-family="Helvetica,sans-Serif" font-size="10.00">luaB_rawequal</text>
</a>
</g>
</g>
<!-- Node15&#45;&gt;Node21 -->
<g id="edge21" class="edge"><title>Node15&#45;&gt;Node21</title>
<path fill="none" stroke="midnightblue" d="M675.878,-519.576C677,-520.644 678.047,-521.784 679,-523 737.146,-597.185 655.067,-659.252 715,-732 718.188,-735.87 722.257,-738.953 726.691,-741.409"/>
<polygon fill="midnightblue" stroke="midnightblue" points="677.726,-516.591 667.587,-513.514 673.595,-522.242 677.726,-516.591"/>
</g>
<!-- Node22 -->
<g id="node22" class="node"><title>Node22</title>
<g id="a_node22"><a xlink:href="../../d8/dd3/lbaselib_8c.html#a248a6847a33f31c69a43a76b6b8bcb4b" target="_top" xlink:title="luaB_rawget">
<polygon fill="none" stroke="black" points="730.5,-703.5 730.5,-722.5 801.5,-722.5 801.5,-703.5 730.5,-703.5"/>
<text text-anchor="middle" x="766" y="-710.5" font-family="Helvetica,sans-Serif" font-size="10.00">luaB_rawget</text>
</a>
</g>
</g>
<!-- Node15&#45;&gt;Node22 -->
<g id="edge22" class="edge"><title>Node15&#45;&gt;Node22</title>
<path fill="none" stroke="midnightblue" d="M675.821,-519.621C676.959,-520.677 678.025,-521.802 679,-523 728.031,-583.232 664.518,-634.978 715,-694 719.104,-698.799 724.556,-702.389 730.35,-705.073"/>
<polygon fill="midnightblue" stroke="midnightblue" points="677.625,-516.608 667.462,-513.615 673.54,-522.293 677.625,-516.608"/>
</g>
<!-- Node23 -->
<g id="node23" class="node"><title>Node23</title>
<g id="a_node23"><a xlink:href="../../d8/dd3/lbaselib_8c.html#a7b7225051c25127792f30eadd3498cc3" target="_top" xlink:title="luaB_rawset">
<polygon fill="none" stroke="black" points="730.5,-665.5 730.5,-684.5 801.5,-684.5 801.5,-665.5 730.5,-665.5"/>
<text text-anchor="middle" x="766" y="-672.5" font-family="Helvetica,sans-Serif" font-size="10.00">luaB_rawset</text>
</a>
</g>
</g>
<!-- Node15&#45;&gt;Node23 -->
<g id="edge23" class="edge"><title>Node15&#45;&gt;Node23</title>
<path fill="none" stroke="midnightblue" d="M675.254,-519.273C676.595,-520.43 677.853,-521.67 679,-523 718.994,-569.374 673.889,-610.613 715,-656 719.177,-660.611 724.592,-664.11 730.312,-666.763"/>
<polygon fill="midnightblue" stroke="midnightblue" points="677.066,-516.273 666.832,-513.53 673.122,-522.056 677.066,-516.273"/>
</g>
<!-- Node24 -->
<g id="node24" class="node"><title>Node24</title>
<g id="a_node24"><a xlink:href="../../d8/dd3/lbaselib_8c.html#a6224f7b7c4485996e1c22eae32de990d" target="_top" xlink:title="luaB_tonumber">
<polygon fill="none" stroke="black" points="726,-627.5 726,-646.5 806,-646.5 806,-627.5 726,-627.5"/>
<text text-anchor="middle" x="766" y="-634.5" font-family="Helvetica,sans-Serif" font-size="10.00">luaB_tonumber</text>
</a>
</g>
</g>
<!-- Node15&#45;&gt;Node24 -->
<g id="edge24" class="edge"><title>Node15&#45;&gt;Node24</title>
<path fill="none" stroke="midnightblue" d="M674.565,-519C676.146,-520.236 677.637,-521.567 679,-523 710.126,-555.709 683.087,-586.058 715,-618 718.872,-621.876 723.616,-624.974 728.623,-627.448"/>
<polygon fill="midnightblue" stroke="midnightblue" points="676.382,-516.007 666.068,-513.584 672.619,-521.91 676.382,-516.007"/>
</g>
<!-- Node25 -->
<g id="node25" class="node"><title>Node25</title>
<g id="a_node25"><a xlink:href="../../d8/dd3/lbaselib_8c.html#a15bd8ce3f719c87883bcb578c60677e7" target="_top" xlink:title="luaB_tostring">
<polygon fill="none" stroke="black" points="730.5,-589.5 730.5,-608.5 801.5,-608.5 801.5,-589.5 730.5,-589.5"/>
<text text-anchor="middle" x="766" y="-596.5" font-family="Helvetica,sans-Serif" font-size="10.00">luaB_tostring</text>
</a>
</g>
</g>
<!-- Node15&#45;&gt;Node25 -->
<g id="edge25" class="edge"><title>Node15&#45;&gt;Node25</title>
<path fill="none" stroke="midnightblue" d="M672.83,-518.426C675.006,-519.833 677.085,-521.356 679,-523 701.73,-542.523 691.802,-561.036 715,-580 719.673,-583.82 725.197,-586.925 730.837,-589.432"/>
<polygon fill="midnightblue" stroke="midnightblue" points="674.531,-515.367 664.091,-513.563 671.127,-521.484 674.531,-515.367"/>
</g>
<!-- Node26 -->
<g id="node26" class="node"><title>Node26</title>
<g id="a_node26"><a xlink:href="../../d8/dd3/lbaselib_8c.html#a7135b660cac1e25a2854acd9849cd4a4" target="_top" xlink:title="luaB_type">
<polygon fill="none" stroke="black" points="736,-551.5 736,-570.5 796,-570.5 796,-551.5 736,-551.5"/>
<text text-anchor="middle" x="766" y="-558.5" font-family="Helvetica,sans-Serif" font-size="10.00">luaB_type</text>
</a>
</g>
</g>
<!-- Node15&#45;&gt;Node26 -->
<g id="edge26" class="edge"><title>Node15&#45;&gt;Node26</title>
<path fill="none" stroke="midnightblue" d="M667.641,-517.719C671.488,-519.455 675.345,-521.24 679,-523 695.301,-530.848 698.513,-534.551 715,-542 722.362,-545.327 730.495,-548.587 738.025,-551.441"/>
<polygon fill="midnightblue" stroke="midnightblue" points="668.782,-514.396 658.221,-513.548 665.948,-520.797 668.782,-514.396"/>
</g>
<!-- Node28 -->
<g id="node28" class="node"><title>Node28</title>
<g id="a_node28"><a xlink:href="../../de/df3/liolib_8c.html#ace5e1a23cc9e2ffe7ae6cc523e54de73" target="_top" xlink:title="f_seek">
<polygon fill="none" stroke="black" points="744,-931.5 744,-950.5 788,-950.5 788,-931.5 744,-931.5"/>
<text text-anchor="middle" x="766" y="-938.5" font-family="Helvetica,sans-Serif" font-size="10.00">f_seek</text>
</a>
</g>
</g>
<!-- Node27&#45;&gt;Node28 -->
<g id="edge28" class="edge"><title>Node27&#45;&gt;Node28</title>
<path fill="none" stroke="midnightblue" d="M689.474,-941C708.57,-941 728.953,-941 743.725,-941"/>
<polygon fill="midnightblue" stroke="midnightblue" points="689.343,-937.5 679.343,-941 689.343,-944.5 689.343,-937.5"/>
</g>
<!-- Node29 -->
<g id="node29" class="node"><title>Node29</title>
<g id="a_node29"><a xlink:href="../../de/df3/liolib_8c.html#aa7d559e7d43a6133ec495d6b4e5d68f2" target="_top" xlink:title="f_setvbuf">
<polygon fill="none" stroke="black" points="738,-1007.5 738,-1026.5 794,-1026.5 794,-1007.5 738,-1007.5"/>
<text text-anchor="middle" x="766" y="-1014.5" font-family="Helvetica,sans-Serif" font-size="10.00">f_setvbuf</text>
</a>
</g>
</g>
<!-- Node27&#45;&gt;Node29 -->
<g id="edge29" class="edge"><title>Node27&#45;&gt;Node29</title>
<path fill="none" stroke="midnightblue" d="M654.829,-957.041C670.377,-969.391 693.157,-986.277 715,-998 722.2,-1001.86 730.359,-1005.32 737.965,-1008.18"/>
<polygon fill="midnightblue" stroke="midnightblue" points="656.967,-954.268 646.988,-950.708 652.569,-959.714 656.967,-954.268"/>
</g>
<!-- Node30 -->
<g id="node30" class="node"><title>Node30</title>
<g id="a_node30"><a xlink:href="../../d8/dd3/lbaselib_8c.html#a07f71966c943cc9761ab129f64d4ac80" target="_top" xlink:title="luaB_collectgarbage">
<polygon fill="none" stroke="black" points="715,-893.5 715,-912.5 817,-912.5 817,-893.5 715,-893.5"/>
<text text-anchor="middle" x="766" y="-900.5" font-family="Helvetica,sans-Serif" font-size="10.00">luaB_collectgarbage</text>
</a>
</g>
</g>
<!-- Node27&#45;&gt;Node30 -->
<g id="edge30" class="edge"><title>Node27&#45;&gt;Node30</title>
<path fill="none" stroke="midnightblue" d="M678.219,-928.465C695.836,-923.295 715.923,-917.401 732.332,-912.586"/>
<polygon fill="midnightblue" stroke="midnightblue" points="676.788,-925.237 668.178,-931.411 678.759,-931.954 676.788,-925.237"/>
</g>
<!-- Node31 -->
<g id="node31" class="node"><title>Node31</title>
<g id="a_node31"><a xlink:href="../../dc/dba/loslib_8c.html#a148e76ec4bfa32f07c0bd8c802960113" target="_top" xlink:title="os_setlocale">
<polygon fill="none" stroke="black" points="731.5,-969.5 731.5,-988.5 800.5,-988.5 800.5,-969.5 731.5,-969.5"/>
<text text-anchor="middle" x="766" y="-976.5" font-family="Helvetica,sans-Serif" font-size="10.00">os_setlocale</text>
</a>
</g>
</g>
<!-- Node27&#45;&gt;Node31 -->
<g id="edge31" class="edge"><title>Node27&#45;&gt;Node31</title>
<path fill="none" stroke="midnightblue" d="M678.219,-953.535C695.836,-958.705 715.923,-964.599 732.332,-969.414"/>
<polygon fill="midnightblue" stroke="midnightblue" points="678.759,-950.046 668.178,-950.589 676.788,-956.763 678.759,-950.046"/>
</g>
<!-- Node34 -->
<g id="node34" class="node"><title>Node34</title>
<g id="a_node34"><a xlink:href="../../da/d29/lauxlib_8h.html#aed8d8e4f3b95c6bcac246ec9895027b1" target="_top" xlink:title="luaL_checkudata">
<polygon fill="none" stroke="black" points="721.5,-855.5 721.5,-874.5 810.5,-874.5 810.5,-855.5 721.5,-855.5"/>
<text text-anchor="middle" x="766" y="-862.5" font-family="Helvetica,sans-Serif" font-size="10.00">luaL_checkudata</text>
</a>
</g>
</g>
<!-- Node33&#45;&gt;Node34 -->
<g id="edge34" class="edge"><title>Node33&#45;&gt;Node34</title>
<path fill="none" stroke="midnightblue" d="M670.715,-837.333C690,-842.992 713.734,-849.957 732.564,-855.482"/>
<polygon fill="midnightblue" stroke="midnightblue" points="671.666,-833.965 661.085,-834.508 669.695,-840.682 671.666,-833.965"/>
</g>
<!-- Node35 -->
<g id="node35" class="node"><title>Node35</title>
<g id="a_node35"><a xlink:href="../../d0/d56/lauxlib_8c.html#a84f86d7f2603b98e935740de1efb858d" target="_top" xlink:title="tag_error">
<polygon fill="none" stroke="red" points="739.5,-817.5 739.5,-836.5 792.5,-836.5 792.5,-817.5 739.5,-817.5"/>
<text text-anchor="middle" x="766" y="-824.5" font-family="Helvetica,sans-Serif" font-size="10.00">tag_error</text>
</a>
</g>
</g>
<!-- Node33&#45;&gt;Node35 -->
<g id="edge35" class="edge"><title>Node33&#45;&gt;Node35</title>
<path fill="none" stroke="midnightblue" d="M671.216,-827C692.864,-827 719.971,-827 739.468,-827"/>
<polygon fill="midnightblue" stroke="midnightblue" points="671.085,-823.5 661.085,-827 671.085,-830.5 671.085,-823.5"/>
</g>
<!-- Node36&#45;&gt;Node37 -->
<g id="edge37" class="edge"><title>Node36&#45;&gt;Node37</title>
<path fill="none" stroke="midnightblue" d="M445.98,-191.943C454.876,-190.479 464.057,-188.969 472.65,-187.555"/>
<polygon fill="midnightblue" stroke="midnightblue" points="445.402,-188.491 436.103,-193.567 446.539,-195.398 445.402,-188.491"/>
</g>
<!-- Node38 -->
<g id="node38" class="node"><title>Node38</title>
<g id="a_node38"><a xlink:href="../../d8/d97/ldblib_8c.html#ae0792d4f3f6eedd535895e05426b82df" target="_top" xlink:title="db_traceback">
<polygon fill="none" stroke="black" points="597.5,-171.5 597.5,-190.5 671.5,-190.5 671.5,-171.5 597.5,-171.5"/>
<text text-anchor="middle" x="634.5" y="-178.5" font-family="Helvetica,sans-Serif" font-size="10.00">db_traceback</text>
</a>
</g>
</g>
<!-- Node37&#45;&gt;Node38 -->
<g id="edge38" class="edge"><title>Node37&#45;&gt;Node38</title>
<path fill="none" stroke="midnightblue" d="M564.143,-181C575.245,-181 586.819,-181 597.258,-181"/>
<polygon fill="midnightblue" stroke="midnightblue" points="564.125,-177.5 554.125,-181 564.125,-184.5 564.125,-177.5"/>
</g>
<!-- Node40 -->
<g id="node40" class="node"><title>Node40</title>
<g id="a_node40"><a xlink:href="../../df/d2d/lcorolib_8c.html#a777abb20385a69ce4787f72bd90375a7" target="_top" xlink:title="luaB_auxwrap">
<polygon fill="none" stroke="black" points="356,-456.5 356,-475.5 436,-475.5 436,-456.5 356,-456.5"/>
<text text-anchor="middle" x="396" y="-463.5" font-family="Helvetica,sans-Serif" font-size="10.00">luaB_auxwrap</text>
</a>
</g>
</g>
<!-- Node39&#45;&gt;Node40 -->
<g id="edge42" class="edge"><title>Node39&#45;&gt;Node40</title>
<path fill="none" stroke="midnightblue" d="M309.559,-440.535C326.904,-445.705 346.681,-451.599 362.837,-456.414"/>
<polygon fill="midnightblue" stroke="midnightblue" points="310.257,-437.091 299.674,-437.589 308.257,-443.8 310.257,-437.091"/>
</g>
<!-- Node42 -->
<g id="node42" class="node"><title>Node42</title>
<g id="a_node42"><a xlink:href="../../d8/dd3/lbaselib_8c.html#a2ecfa987569d0b4c1063f3e204e42dd2" target="_top" xlink:title="luaB_error">
<polygon fill="none" stroke="black" points="366.5,-418.5 366.5,-437.5 425.5,-437.5 425.5,-418.5 366.5,-418.5"/>
<text text-anchor="middle" x="396" y="-425.5" font-family="Helvetica,sans-Serif" font-size="10.00">luaB_error</text>
</a>
</g>
</g>
<!-- Node39&#45;&gt;Node42 -->
<g id="edge44" class="edge"><title>Node39&#45;&gt;Node42</title>
<path fill="none" stroke="midnightblue" d="M309.925,-428C328.451,-428 349.693,-428 366.317,-428"/>
<polygon fill="midnightblue" stroke="midnightblue" points="309.674,-424.5 299.674,-428 309.674,-431.5 309.674,-424.5"/>
</g>
<!-- Node43 -->
<g id="node43" class="node"><title>Node43</title>
<g id="a_node43"><a xlink:href="../../da/d29/lauxlib_8h.html#a994f73d7985c30672469a260d9e86ae6" target="_top" xlink:title="luaL_error">
<polygon fill="none" stroke="red" points="367.5,-304.5 367.5,-323.5 424.5,-323.5 424.5,-304.5 367.5,-304.5"/>
<text text-anchor="middle" x="396" y="-311.5" font-family="Helvetica,sans-Serif" font-size="10.00">luaL_error</text>
</a>
</g>
</g>
<!-- Node39&#45;&gt;Node43 -->
<g id="edge45" class="edge"><title>Node39&#45;&gt;Node43</title>
<path fill="none" stroke="midnightblue" d="M285.975,-411.481C312.97,-387.344 362.35,-343.193 384.157,-323.695"/>
<polygon fill="midnightblue" stroke="midnightblue" points="283.492,-409.006 278.371,-418.28 288.158,-414.224 283.492,-409.006"/>
</g>
<!-- Node41 -->
<g id="node41" class="node"><title>Node41</title>
<g id="a_node41"><a xlink:href="../../df/d2d/lcorolib_8c.html#a1c0429e27f504b08e25f437f733edad1" target="_top" xlink:title="luaB_cowrap">
<polygon fill="none" stroke="black" points="476.5,-456.5 476.5,-475.5 550.5,-475.5 550.5,-456.5 476.5,-456.5"/>
<text text-anchor="middle" x="513.5" y="-463.5" font-family="Helvetica,sans-Serif" font-size="10.00">luaB_cowrap</text>
</a>
</g>
</g>
<!-- Node40&#45;&gt;Node41 -->
<g id="edge43" class="edge"><title>Node40&#45;&gt;Node41</title>
<path fill="none" stroke="midnightblue" d="M446.353,-466C456.358,-466 466.707,-466 476.163,-466"/>
<polygon fill="midnightblue" stroke="midnightblue" points="446.103,-462.5 436.103,-466 446.103,-469.5 446.103,-462.5"/>
</g>
<!-- Node43&#45;&gt;Node4 -->
<g id="edge48" class="edge"><title>Node43&#45;&gt;Node4</title>
<path fill="none" stroke="midnightblue" d="M423.356,-328.778C428.01,-331.677 432.729,-334.812 437,-338 454.394,-350.983 455.027,-358.831 473,-371 478.167,-374.498 484.077,-377.705 489.723,-380.448"/>
<polygon fill="midnightblue" stroke="midnightblue" points="424.998,-325.682 414.621,-323.544 421.4,-331.686 424.998,-325.682"/>
</g>
<!-- Node43&#45;&gt;Node14 -->
<g id="edge47" class="edge"><title>Node43&#45;&gt;Node14</title>
<path fill="none" stroke="midnightblue" d="M434.683,-321.589C491.919,-331.015 602.213,-340.755 679,-295 704.74,-279.662 691.802,-256.964 715,-238 720.895,-233.181 728.144,-229.499 735.274,-226.721"/>
<polygon fill="midnightblue" stroke="midnightblue" points="435.084,-318.107 424.633,-319.846 433.888,-325.004 435.084,-318.107"/>
</g>
<!-- Node43&#45;&gt;Node32 -->
<g id="edge49" class="edge"><title>Node43&#45;&gt;Node32</title>
<path fill="none" stroke="midnightblue" d="M434.634,-306.808C446.856,-304.542 460.49,-302.087 473,-300 519.549,-292.235 573.895,-284.356 605.907,-279.837"/>
<polygon fill="midnightblue" stroke="midnightblue" points="433.942,-303.377 424.755,-308.655 435.228,-310.257 433.942,-303.377"/>
</g>
<!-- Node44 -->
<g id="node44" class="node"><title>Node44</title>
<g id="a_node44"><a xlink:href="../../dc/d77/lstrlib_8c.html#ad5f7e3fbcadc8825f7f650ecf458fc72" target="_top" xlink:title="add_s">
<polygon fill="none" stroke="red" points="491.5,-342.5 491.5,-361.5 535.5,-361.5 535.5,-342.5 491.5,-342.5"/>
<text text-anchor="middle" x="513.5" y="-349.5" font-family="Helvetica,sans-Serif" font-size="10.00">add_s</text>
</a>
</g>
</g>
<!-- Node43&#45;&gt;Node44 -->
<g id="edge46" class="edge"><title>Node43&#45;&gt;Node44</title>
<path fill="none" stroke="midnightblue" d="M434.168,-326.229C453.026,-332.433 475.253,-339.745 491.203,-344.993"/>
<polygon fill="midnightblue" stroke="midnightblue" points="435.258,-322.903 424.665,-323.102 433.07,-329.552 435.258,-322.903"/>
</g>
<!-- Node46 -->
<g id="node46" class="node"><title>Node46</title>
<g id="a_node46"><a xlink:href="../../d8/d97/ldblib_8c.html#ade86533c6188a941aae1be4396a20393" target="_top" xlink:title="db_upvalueid">
<polygon fill="none" stroke="black" points="359,-114.5 359,-133.5 433,-133.5 433,-114.5 359,-114.5"/>
<text text-anchor="middle" x="396" y="-121.5" font-family="Helvetica,sans-Serif" font-size="10.00">db_upvalueid</text>
</a>
</g>
</g>
<!-- Node45&#45;&gt;Node46 -->
<g id="edge52" class="edge"><title>Node45&#45;&gt;Node46</title>
<path fill="none" stroke="midnightblue" d="M309.203,-124C325.246,-124 343.413,-124 358.887,-124"/>
<polygon fill="midnightblue" stroke="midnightblue" points="309.017,-120.5 299.017,-124 309.017,-127.5 309.017,-120.5"/>
</g>
<!-- Node47 -->
<g id="node47" class="node"><title>Node47</title>
<g id="a_node47"><a xlink:href="../../d8/d97/ldblib_8c.html#acd80bdb3262b3580eb6955f6f3eb3549" target="_top" xlink:title="db_upvaluejoin">
<polygon fill="none" stroke="black" points="355,-76.5 355,-95.5 437,-95.5 437,-76.5 355,-76.5"/>
<text text-anchor="middle" x="396" y="-83.5" font-family="Helvetica,sans-Serif" font-size="10.00">db_upvaluejoin</text>
</a>
</g>
</g>
<!-- Node45&#45;&gt;Node47 -->
<g id="edge53" class="edge"><title>Node45&#45;&gt;Node47</title>
<path fill="none" stroke="midnightblue" d="M308.991,-111.634C326.515,-106.411 346.605,-100.423 362.96,-95.5491"/>
<polygon fill="midnightblue" stroke="midnightblue" points="307.601,-108.396 299.017,-114.607 309.6,-115.105 307.601,-108.396"/>
</g>
<!-- Node49 -->
<g id="node49" class="node"><title>Node49</title>
<g id="a_node49"><a xlink:href="../../d8/d97/ldblib_8c.html#a6a624ae8d8ff673e72a317b280ed008d" target="_top" xlink:title="db_gethook">
<polygon fill="none" stroke="black" points="363,-38.5 363,-57.5 429,-57.5 429,-38.5 363,-38.5"/>
<text text-anchor="middle" x="396" y="-45.5" font-family="Helvetica,sans-Serif" font-size="10.00">db_gethook</text>
</a>
</g>
</g>
<!-- Node48&#45;&gt;Node49 -->
<g id="edge55" class="edge"><title>Node48&#45;&gt;Node49</title>
<path fill="none" stroke="midnightblue" d="M296.287,-48C316.079,-48 342.38,-48 362.857,-48"/>
<polygon fill="midnightblue" stroke="midnightblue" points="296.04,-44.5001 286.04,-48 296.04,-51.5001 296.04,-44.5001"/>
</g>
<!-- Node50 -->
<g id="node50" class="node"><title>Node50</title>
<g id="a_node50"><a xlink:href="../../d8/d97/ldblib_8c.html#aa0c362d361f8f9bd8a002c34c393e2b0" target="_top" xlink:title="db_sethook">
<polygon fill="none" stroke="black" points="363,-0.5 363,-19.5 429,-19.5 429,-0.5 363,-0.5"/>
<text text-anchor="middle" x="396" y="-7.5" font-family="Helvetica,sans-Serif" font-size="10.00">db_sethook</text>
</a>
</g>
</g>
<!-- Node48&#45;&gt;Node50 -->
<g id="edge56" class="edge"><title>Node48&#45;&gt;Node50</title>
<path fill="none" stroke="midnightblue" d="M295.775,-39.5731C315.703,-33.6336 342.417,-25.6717 363.107,-19.5055"/>
<polygon fill="midnightblue" stroke="midnightblue" points="294.623,-36.264 286.04,-42.4745 296.623,-42.9724 294.623,-36.264"/>
</g>
</g>
</svg>
