<?xml version="1.0" encoding="UTF-8" standalone="no"?>
<!DOCTYPE svg PUBLIC "-//W3C//DTD SVG 1.1//EN"
 "http://www.w3.org/Graphics/SVG/1.1/DTD/svg11.dtd">
<!-- Generated by graphviz version 2.38.0 (20140413.2041)
 -->
<!-- Title: getobjname Pages: 1 -->
<svg width="778pt" height="1130pt"
 viewBox="0.00 0.00 778.00 1130.00" xmlns="http://www.w3.org/2000/svg" xmlns:xlink="http://www.w3.org/1999/xlink">
<g id="graph0" class="graph" transform="scale(1 1) rotate(0) translate(4 1126)">
<title>getobjname</title>
<!-- Node1 -->
<g id="node1" class="node"><title>Node1</title>
<polygon fill="#bfbfbf" stroke="black" points="0,-780.5 0,-799.5 67,-799.5 67,-780.5 0,-780.5"/>
<text text-anchor="middle" x="33.5" y="-787.5" font-family="Helvetica,sans-Serif" font-size="10.00">getobjname</text>
</g>
<!-- Node2 -->
<g id="node2" class="node"><title>Node2</title>
<g id="a_node2"><a xlink:href="../../d6/ddf/ldebug_8c.html#abf0d60b43b4bff2821e87b2f4054a6b7" target="_top" xlink:title="getfuncname">
<polygon fill="none" stroke="black" points="107,-856.5 107,-875.5 178,-875.5 178,-856.5 107,-856.5"/>
<text text-anchor="middle" x="142.5" y="-863.5" font-family="Helvetica,sans-Serif" font-size="10.00">getfuncname</text>
</a>
</g>
</g>
<!-- Node1&#45;&gt;Node2 -->
<g id="edge1" class="edge"><title>Node1&#45;&gt;Node2</title>
<path fill="none" stroke="midnightblue" d="M56.2697,-805.463C77.787,-820.746 110.026,-843.645 128.058,-856.453"/>
<polygon fill="midnightblue" stroke="midnightblue" points="58.2312,-802.563 48.0516,-799.625 54.1776,-808.27 58.2312,-802.563"/>
</g>
<!-- Node12 -->
<g id="node12" class="node"><title>Node12</title>
<g id="a_node12"><a xlink:href="../../d6/ddf/ldebug_8c.html#a9d3034a08348ba5d2e15af7a42097062" target="_top" xlink:title="kname">
<polygon fill="none" stroke="black" points="120,-780.5 120,-799.5 165,-799.5 165,-780.5 120,-780.5"/>
<text text-anchor="middle" x="142.5" y="-787.5" font-family="Helvetica,sans-Serif" font-size="10.00">kname</text>
</a>
</g>
</g>
<!-- Node1&#45;&gt;Node12 -->
<g id="edge13" class="edge"><title>Node1&#45;&gt;Node12</title>
<path fill="none" stroke="midnightblue" d="M77.5153,-783.367C92.052,-783.04 107.664,-783.401 119.827,-784.45"/>
<polygon fill="midnightblue" stroke="midnightblue" points="77.057,-779.88 67.1849,-783.726 77.3007,-786.876 77.057,-779.88"/>
</g>
<!-- Node13 -->
<g id="node13" class="node"><title>Node13</title>
<g id="a_node13"><a xlink:href="../../db/d46/ldebug_8h.html#a375161dd1513420561f20f0b4c7b7e66" target="_top" xlink:title="luaG_typeerror">
<polygon fill="none" stroke="black" points="103,-665.5 103,-684.5 182,-684.5 182,-665.5 103,-665.5"/>
<text text-anchor="middle" x="142.5" y="-672.5" font-family="Helvetica,sans-Serif" font-size="10.00">luaG_typeerror</text>
</a>
</g>
</g>
<!-- Node1&#45;&gt;Node13 -->
<g id="edge15" class="edge"><title>Node1&#45;&gt;Node13</title>
<path fill="none" stroke="midnightblue" d="M50.5943,-772.702C73.3723,-748.221 114.257,-704.279 132.4,-684.78"/>
<polygon fill="midnightblue" stroke="midnightblue" points="47.8722,-770.49 43.6228,-780.195 52.997,-775.258 47.8722,-770.49"/>
</g>
<!-- Node3 -->
<g id="node3" class="node"><title>Node3</title>
<g id="a_node3"><a xlink:href="../../d6/ddf/ldebug_8c.html#ad72fa774194e83872bac4e5bf6ec1160" target="_top" xlink:title="auxgetinfo">
<polygon fill="none" stroke="black" points="232,-895.5 232,-914.5 292,-914.5 292,-895.5 232,-895.5"/>
<text text-anchor="middle" x="262" y="-902.5" font-family="Helvetica,sans-Serif" font-size="10.00">auxgetinfo</text>
</a>
</g>
</g>
<!-- Node2&#45;&gt;Node3 -->
<g id="edge2" class="edge"><title>Node2&#45;&gt;Node3</title>
<path fill="none" stroke="midnightblue" d="M182.045,-878.794C198.363,-884.21 217.05,-890.412 232.146,-895.423"/>
<polygon fill="midnightblue" stroke="midnightblue" points="182.837,-875.369 172.244,-875.54 180.632,-882.013 182.837,-875.369"/>
</g>
<!-- Node4 -->
<g id="node4" class="node"><title>Node4</title>
<g id="a_node4"><a xlink:href="../../da/dd2/lua_8h.html#a9cf23593facaabc7fb42e4d232a507d7" target="_top" xlink:title="lua_getinfo">
<polygon fill="none" stroke="black" points="347.5,-969.5 347.5,-988.5 409.5,-988.5 409.5,-969.5 347.5,-969.5"/>
<text text-anchor="middle" x="378.5" y="-976.5" font-family="Helvetica,sans-Serif" font-size="10.00">lua_getinfo</text>
</a>
</g>
</g>
<!-- Node3&#45;&gt;Node4 -->
<g id="edge3" class="edge"><title>Node3&#45;&gt;Node4</title>
<path fill="none" stroke="midnightblue" d="M286.395,-920.12C309.187,-934.85 343.153,-956.802 362.527,-969.323"/>
<polygon fill="midnightblue" stroke="midnightblue" points="288.267,-917.163 277.969,-914.674 284.468,-923.042 288.267,-917.163"/>
</g>
<!-- Node5 -->
<g id="node5" class="node"><title>Node5</title>
<g id="a_node5"><a xlink:href="../../d0/d56/lauxlib_8c.html#a4f35430f7ecfcbd5f507e550937046b4" target="_top" xlink:title="pushglobalfuncname">
<polygon fill="none" stroke="red" points="451,-1102.5 451,-1121.5 556,-1121.5 556,-1102.5 451,-1102.5"/>
<text text-anchor="middle" x="503.5" y="-1109.5" font-family="Helvetica,sans-Serif" font-size="10.00">pushglobalfuncname</text>
</a>
</g>
</g>
<!-- Node4&#45;&gt;Node5 -->
<g id="edge4" class="edge"><title>Node4&#45;&gt;Node5</title>
<path fill="none" stroke="midnightblue" d="M387.939,-998.082C399.281,-1021.86 421.479,-1062.46 451,-1088 457.863,-1093.94 466.445,-1098.71 474.623,-1102.38"/>
<polygon fill="midnightblue" stroke="midnightblue" points="390.995,-996.35 383.629,-988.735 384.638,-999.282 390.995,-996.35"/>
</g>
<!-- Node6 -->
<g id="node6" class="node"><title>Node6</title>
<g id="a_node6"><a xlink:href="../../da/d29/lauxlib_8h.html#a526c220d17273c63ce9973bcde4a2c4a" target="_top" xlink:title="luaL_argerror">
<polygon fill="none" stroke="red" points="597.5,-1064.5 597.5,-1083.5 668.5,-1083.5 668.5,-1064.5 597.5,-1064.5"/>
<text text-anchor="middle" x="633" y="-1071.5" font-family="Helvetica,sans-Serif" font-size="10.00">luaL_argerror</text>
</a>
</g>
</g>
<!-- Node4&#45;&gt;Node6 -->
<g id="edge8" class="edge"><title>Node4&#45;&gt;Node6</title>
<path fill="none" stroke="midnightblue" d="M392.06,-996.957C404.832,-1013.69 426.229,-1037.82 451,-1050 497.939,-1073.07 559.562,-1076.37 597.441,-1075.8"/>
<polygon fill="midnightblue" stroke="midnightblue" points="394.625,-994.537 385.884,-988.548 388.982,-998.68 394.625,-994.537"/>
</g>
<!-- Node7 -->
<g id="node7" class="node"><title>Node7</title>
<g id="a_node7"><a xlink:href="../../d8/d97/ldblib_8c.html#a4eb57e66c2efb2d31c9b9e1b01d27e13" target="_top" xlink:title="db_getinfo">
<polygon fill="none" stroke="black" points="710,-1045.5 710,-1064.5 770,-1064.5 770,-1045.5 710,-1045.5"/>
<text text-anchor="middle" x="740" y="-1052.5" font-family="Helvetica,sans-Serif" font-size="10.00">db_getinfo</text>
</a>
</g>
</g>
<!-- Node4&#45;&gt;Node7 -->
<g id="edge10" class="edge"><title>Node4&#45;&gt;Node7</title>
<path fill="none" stroke="midnightblue" d="M419.494,-991.489C429.714,-994.475 440.72,-997.515 451,-1000 544.762,-1022.67 657.521,-1041.91 709.776,-1050.38"/>
<polygon fill="midnightblue" stroke="midnightblue" points="420.176,-988.04 409.593,-988.543 418.179,-994.75 420.176,-988.04"/>
</g>
<!-- Node8 -->
<g id="node8" class="node"><title>Node8</title>
<g id="a_node8"><a xlink:href="../../da/d29/lauxlib_8h.html#a664cc293d6c7a7dc67857fe95583a10e" target="_top" xlink:title="luaL_traceback">
<polygon fill="none" stroke="red" points="592.5,-874.5 592.5,-893.5 673.5,-893.5 673.5,-874.5 592.5,-874.5"/>
<text text-anchor="middle" x="633" y="-881.5" font-family="Helvetica,sans-Serif" font-size="10.00">luaL_traceback</text>
</a>
</g>
</g>
<!-- Node4&#45;&gt;Node8 -->
<g id="edge7" class="edge"><title>Node4&#45;&gt;Node8</title>
<path fill="none" stroke="midnightblue" d="M419.642,-988.499C456.909,-995.186 512.958,-999.687 556,-979 593.693,-960.884 618.543,-913.962 627.869,-893.63"/>
<polygon fill="midnightblue" stroke="midnightblue" points="420.137,-985.03 409.655,-986.574 418.812,-991.903 420.137,-985.03"/>
</g>
<!-- Node9 -->
<g id="node9" class="node"><title>Node9</title>
<g id="a_node9"><a xlink:href="../../da/d29/lauxlib_8h.html#a269122a77674ca63c9193c2a30b4729e" target="_top" xlink:title="luaL_where">
<polygon fill="none" stroke="red" points="470.5,-950.5 470.5,-969.5 536.5,-969.5 536.5,-950.5 470.5,-950.5"/>
<text text-anchor="middle" x="503.5" y="-957.5" font-family="Helvetica,sans-Serif" font-size="10.00">luaL_where</text>
</a>
</g>
</g>
<!-- Node4&#45;&gt;Node9 -->
<g id="edge9" class="edge"><title>Node4&#45;&gt;Node9</title>
<path fill="none" stroke="midnightblue" d="M419.918,-972.757C436.214,-970.239 454.756,-967.375 470.137,-964.999"/>
<polygon fill="midnightblue" stroke="midnightblue" points="418.938,-969.366 409.589,-974.352 420.006,-976.284 418.938,-969.366"/>
</g>
<!-- Node10 -->
<g id="node10" class="node"><title>Node10</title>
<g id="a_node10"><a xlink:href="../../d8/d97/ldblib_8c.html#a0951daf8c0b66e39bd3aa618aff380bf" target="_top" xlink:title="checkupval">
<polygon fill="none" stroke="red" points="471,-912.5 471,-931.5 536,-931.5 536,-912.5 471,-912.5"/>
<text text-anchor="middle" x="503.5" y="-919.5" font-family="Helvetica,sans-Serif" font-size="10.00">checkupval</text>
</a>
</g>
</g>
<!-- Node4&#45;&gt;Node10 -->
<g id="edge11" class="edge"><title>Node4&#45;&gt;Node10</title>
<path fill="none" stroke="midnightblue" d="M404.668,-964.552C418.184,-957.068 435.259,-948.048 451,-941 458.48,-937.651 466.747,-934.408 474.427,-931.577"/>
<polygon fill="midnightblue" stroke="midnightblue" points="402.952,-961.501 395.94,-969.444 406.375,-967.607 402.952,-961.501"/>
</g>
<!-- Node11 -->
<g id="node11" class="node"><title>Node11</title>
<g id="a_node11"><a xlink:href="../../d8/d97/ldblib_8c.html#a5caaa985f31fc5cbd014f831833205e7" target="_top" xlink:title="hookf">
<polygon fill="none" stroke="red" points="484,-874.5 484,-893.5 523,-893.5 523,-874.5 484,-874.5"/>
<text text-anchor="middle" x="503.5" y="-881.5" font-family="Helvetica,sans-Serif" font-size="10.00">hookf</text>
</a>
</g>
</g>
<!-- Node4&#45;&gt;Node11 -->
<g id="edge12" class="edge"><title>Node4&#45;&gt;Node11</title>
<path fill="none" stroke="midnightblue" d="M392.112,-961.46C405.15,-944.443 426.944,-918.922 451,-903 461.013,-896.373 473.646,-891.666 483.893,-888.596"/>
<polygon fill="midnightblue" stroke="midnightblue" points="389.298,-959.379 386.126,-969.488 394.909,-963.563 389.298,-959.379"/>
</g>
<!-- Node5&#45;&gt;Node6 -->
<g id="edge5" class="edge"><title>Node5&#45;&gt;Node6</title>
<path fill="none" stroke="midnightblue" d="M546.559,-1099.46C563.904,-1094.3 583.681,-1088.4 599.837,-1083.59"/>
<polygon fill="midnightblue" stroke="midnightblue" points="545.257,-1096.2 536.674,-1102.41 547.257,-1102.91 545.257,-1096.2"/>
</g>
<!-- Node6&#45;&gt;Node7 -->
<g id="edge6" class="edge"><title>Node6&#45;&gt;Node7</title>
<path fill="none" stroke="midnightblue" d="M678.644,-1065.92C689.246,-1064 700.284,-1062.01 709.978,-1060.25"/>
<polygon fill="midnightblue" stroke="midnightblue" points="677.889,-1062.5 668.672,-1067.73 679.135,-1069.39 677.889,-1062.5"/>
</g>
<!-- Node12&#45;&gt;Node1 -->
<g id="edge14" class="edge"><title>Node12&#45;&gt;Node1</title>
<path fill="none" stroke="midnightblue" d="M109.632,-796.234C96.2371,-796.908 80.6664,-796.922 67.1849,-796.274"/>
<polygon fill="midnightblue" stroke="midnightblue" points="110.083,-799.711 119.827,-795.55 109.615,-792.727 110.083,-799.711"/>
</g>
<!-- Node14 -->
<g id="node14" class="node"><title>Node14</title>
<g id="a_node14"><a xlink:href="../../db/d46/ldebug_8h.html#af2c81da7e357ed468787d792b4a04e54" target="_top" xlink:title="luaG_concaterror">
<polygon fill="none" stroke="black" points="218,-783.5 218,-802.5 306,-802.5 306,-783.5 218,-783.5"/>
<text text-anchor="middle" x="262" y="-790.5" font-family="Helvetica,sans-Serif" font-size="10.00">luaG_concaterror</text>
</a>
</g>
</g>
<!-- Node13&#45;&gt;Node14 -->
<g id="edge16" class="edge"><title>Node13&#45;&gt;Node14</title>
<path fill="none" stroke="midnightblue" d="M157.218,-692.603C171.509,-710.452 194.988,-738.439 218,-760 227.065,-768.493 238.214,-777.001 246.888,-783.251"/>
<polygon fill="midnightblue" stroke="midnightblue" points="159.935,-690.396 150.983,-684.728 154.447,-694.741 159.935,-690.396"/>
</g>
<!-- Node22 -->
<g id="node22" class="node"><title>Node22</title>
<g id="a_node22"><a xlink:href="../../db/d46/ldebug_8h.html#ab66c1eafd0acffec1bd270ae33e5f1ca" target="_top" xlink:title="luaG_aritherror">
<polygon fill="none" stroke="black" points="223.5,-731.5 223.5,-750.5 300.5,-750.5 300.5,-731.5 223.5,-731.5"/>
<text text-anchor="middle" x="262" y="-738.5" font-family="Helvetica,sans-Serif" font-size="10.00">luaG_aritherror</text>
</a>
</g>
</g>
<!-- Node13&#45;&gt;Node22 -->
<g id="edge26" class="edge"><title>Node13&#45;&gt;Node22</title>
<path fill="none" stroke="midnightblue" d="M169.344,-689.517C192.005,-702.245 224.305,-720.389 243.894,-731.391"/>
<polygon fill="midnightblue" stroke="midnightblue" points="171.018,-686.443 160.586,-684.597 167.59,-692.546 171.018,-686.443"/>
</g>
<!-- Node25 -->
<g id="node25" class="node"><title>Node25</title>
<g id="a_node25"><a xlink:href="../../d3/d08/ldo_8c.html#a9f83d36f24672570ff7793686c02ed4a" target="_top" xlink:title="tryfuncTM">
<polygon fill="none" stroke="black" points="233.5,-523.5 233.5,-542.5 290.5,-542.5 290.5,-523.5 233.5,-523.5"/>
<text text-anchor="middle" x="262" y="-530.5" font-family="Helvetica,sans-Serif" font-size="10.00">tryfuncTM</text>
</a>
</g>
</g>
<!-- Node13&#45;&gt;Node25 -->
<g id="edge30" class="edge"><title>Node13&#45;&gt;Node25</title>
<path fill="none" stroke="midnightblue" d="M158.2,-657.234C183.22,-626.998 233.272,-566.51 252.867,-542.829"/>
<polygon fill="midnightblue" stroke="midnightblue" points="155.255,-655.304 151.576,-665.24 160.648,-659.767 155.255,-655.304"/>
</g>
<!-- Node27 -->
<g id="node27" class="node"><title>Node27</title>
<g id="a_node27"><a xlink:href="../../d5/dcd/lvm_8h.html#adacdbccc9d8fab937a1b0dc058c8da12" target="_top" xlink:title="luaV_gettable">
<polygon fill="none" stroke="black" points="224.5,-285.5 224.5,-304.5 299.5,-304.5 299.5,-285.5 224.5,-285.5"/>
<text text-anchor="middle" x="262" y="-292.5" font-family="Helvetica,sans-Serif" font-size="10.00">luaV_gettable</text>
</a>
</g>
</g>
<!-- Node13&#45;&gt;Node27 -->
<g id="edge36" class="edge"><title>Node13&#45;&gt;Node27</title>
<path fill="none" stroke="midnightblue" d="M149.494,-655.617C170.799,-586.714 242.429,-355.059 257.997,-304.711"/>
<polygon fill="midnightblue" stroke="midnightblue" points="146.133,-654.637 146.523,-665.225 152.821,-656.705 146.133,-654.637"/>
</g>
<!-- Node45 -->
<g id="node45" class="node"><title>Node45</title>
<g id="a_node45"><a xlink:href="../../d5/dcd/lvm_8h.html#a5885d48fd66eb236f8b8f6e4938cbcce" target="_top" xlink:title="luaV_settable">
<polygon fill="none" stroke="black" points="224.5,-665.5 224.5,-684.5 299.5,-684.5 299.5,-665.5 224.5,-665.5"/>
<text text-anchor="middle" x="262" y="-672.5" font-family="Helvetica,sans-Serif" font-size="10.00">luaV_settable</text>
</a>
</g>
</g>
<!-- Node13&#45;&gt;Node45 -->
<g id="edge56" class="edge"><title>Node13&#45;&gt;Node45</title>
<path fill="none" stroke="midnightblue" d="M192.343,-675C203.012,-675 214.13,-675 224.234,-675"/>
<polygon fill="midnightblue" stroke="midnightblue" points="192.3,-671.5 182.3,-675 192.3,-678.5 192.3,-671.5"/>
</g>
<!-- Node49 -->
<g id="node49" class="node"><title>Node49</title>
<g id="a_node49"><a xlink:href="../../d5/dcd/lvm_8h.html#a414b4b487239935324f2f16e1e7715db" target="_top" xlink:title="luaV_objlen">
<polygon fill="none" stroke="black" points="228.5,-608.5 228.5,-627.5 295.5,-627.5 295.5,-608.5 228.5,-608.5"/>
<text text-anchor="middle" x="262" y="-615.5" font-family="Helvetica,sans-Serif" font-size="10.00">luaV_objlen</text>
</a>
</g>
</g>
<!-- Node13&#45;&gt;Node49 -->
<g id="edge64" class="edge"><title>Node13&#45;&gt;Node49</title>
<path fill="none" stroke="midnightblue" d="M172.436,-660.963C193.844,-650.578 222.438,-636.707 241.269,-627.572"/>
<polygon fill="midnightblue" stroke="midnightblue" points="170.636,-657.946 163.167,-665.459 173.692,-664.244 170.636,-657.946"/>
</g>
<!-- Node15 -->
<g id="node15" class="node"><title>Node15</title>
<g id="a_node15"><a xlink:href="../../d5/dcd/lvm_8h.html#aee84bfc563cb4bdd21a013218a289aa7" target="_top" xlink:title="luaV_concat">
<polygon fill="none" stroke="black" points="344,-798.5 344,-817.5 413,-817.5 413,-798.5 344,-798.5"/>
<text text-anchor="middle" x="378.5" y="-805.5" font-family="Helvetica,sans-Serif" font-size="10.00">luaV_concat</text>
</a>
</g>
</g>
<!-- Node14&#45;&gt;Node15 -->
<g id="edge17" class="edge"><title>Node14&#45;&gt;Node15</title>
<path fill="none" stroke="midnightblue" d="M316.329,-799.986C325.677,-801.211 335.165,-802.454 343.79,-803.584"/>
<polygon fill="midnightblue" stroke="midnightblue" points="316.657,-796.5 306.288,-798.671 315.748,-803.44 316.657,-796.5"/>
</g>
<!-- Node16 -->
<g id="node16" class="node"><title>Node16</title>
<g id="a_node16"><a xlink:href="../../da/dd2/lua_8h.html#a4eba0457df5bafff4d44071d1d8080b6" target="_top" xlink:title="lua_concat">
<polygon fill="none" stroke="red" points="472.5,-760.5 472.5,-779.5 534.5,-779.5 534.5,-760.5 472.5,-760.5"/>
<text text-anchor="middle" x="503.5" y="-767.5" font-family="Helvetica,sans-Serif" font-size="10.00">lua_concat</text>
</a>
</g>
</g>
<!-- Node15&#45;&gt;Node16 -->
<g id="edge18" class="edge"><title>Node15&#45;&gt;Node16</title>
<path fill="none" stroke="midnightblue" d="M420.225,-795.418C437.228,-790.165 456.631,-784.171 472.322,-779.323"/>
<polygon fill="midnightblue" stroke="midnightblue" points="419.059,-792.115 410.538,-798.411 421.126,-798.803 419.059,-792.115"/>
</g>
<!-- Node17 -->
<g id="node17" class="node"><title>Node17</title>
<g id="a_node17"><a xlink:href="../../d2/d51/lobject_8h.html#a0d323372aa00f179e1c070d305f879f3" target="_top" xlink:title="luaO_pushvfstring">
<polygon fill="none" stroke="red" points="456.5,-836.5 456.5,-855.5 550.5,-855.5 550.5,-836.5 456.5,-836.5"/>
<text text-anchor="middle" x="503.5" y="-843.5" font-family="Helvetica,sans-Serif" font-size="10.00">luaO_pushvfstring</text>
</a>
</g>
</g>
<!-- Node15&#45;&gt;Node17 -->
<g id="edge20" class="edge"><title>Node15&#45;&gt;Node17</title>
<path fill="none" stroke="midnightblue" d="M420.545,-820.68C437.164,-825.815 456.032,-831.644 471.472,-836.414"/>
<polygon fill="midnightblue" stroke="midnightblue" points="421.126,-817.197 410.538,-817.589 419.059,-823.885 421.126,-817.197"/>
</g>
<!-- Node18 -->
<g id="node18" class="node"><title>Node18</title>
<g id="a_node18"><a xlink:href="../../d5/dcd/lvm_8h.html#a5db3e64b3cc2f63c3b10b27f7ecd1d03" target="_top" xlink:title="luaV_finishOp">
<polygon fill="none" stroke="red" points="465,-798.5 465,-817.5 542,-817.5 542,-798.5 465,-798.5"/>
<text text-anchor="middle" x="503.5" y="-805.5" font-family="Helvetica,sans-Serif" font-size="10.00">luaV_finishOp</text>
</a>
</g>
</g>
<!-- Node15&#45;&gt;Node18 -->
<g id="edge21" class="edge"><title>Node15&#45;&gt;Node18</title>
<path fill="none" stroke="midnightblue" d="M423.163,-808C436.694,-808 451.485,-808 464.592,-808"/>
<polygon fill="midnightblue" stroke="midnightblue" points="423.11,-804.5 413.11,-808 423.11,-811.5 423.11,-804.5"/>
</g>
<!-- Node19 -->
<g id="node19" class="node"><title>Node19</title>
<g id="a_node19"><a xlink:href="../../d5/dcd/lvm_8h.html#ae93565adc36c6e2157dbbd875433ede1" target="_top" xlink:title="luaV_execute">
<polygon fill="none" stroke="red" points="466.5,-608.5 466.5,-627.5 540.5,-627.5 540.5,-608.5 466.5,-608.5"/>
<text text-anchor="middle" x="503.5" y="-615.5" font-family="Helvetica,sans-Serif" font-size="10.00">luaV_execute</text>
</a>
</g>
</g>
<!-- Node15&#45;&gt;Node19 -->
<g id="edge22" class="edge"><title>Node15&#45;&gt;Node19</title>
<path fill="none" stroke="midnightblue" d="M411.148,-792.566C412.513,-791.441 413.807,-790.253 415,-789 440.773,-761.931 434.087,-746.33 451,-713 467.045,-681.38 487.469,-644.668 497.061,-627.618"/>
<polygon fill="midnightblue" stroke="midnightblue" points="409.04,-789.768 402.776,-798.313 413.002,-795.539 409.04,-789.768"/>
</g>
<!-- Node16&#45;&gt;Node8 -->
<g id="edge19" class="edge"><title>Node16&#45;&gt;Node8</title>
<path fill="none" stroke="midnightblue" d="M544.057,-782.023C548.262,-784.042 552.336,-786.358 556,-789 589.407,-813.09 616.017,-855.601 626.801,-874.492"/>
<polygon fill="midnightblue" stroke="midnightblue" points="545.321,-778.758 534.749,-778.066 542.582,-785.2 545.321,-778.758"/>
</g>
<!-- Node20 -->
<g id="node20" class="node"><title>Node20</title>
<g id="a_node20"><a xlink:href="../../d2/dd9/ldo_8h.html#a7bb0b106d4012134156e0fa240f51228" target="_top" xlink:title="luaD_call">
<polygon fill="none" stroke="red" points="605,-608.5 605,-627.5 661,-627.5 661,-608.5 605,-608.5"/>
<text text-anchor="middle" x="633" y="-615.5" font-family="Helvetica,sans-Serif" font-size="10.00">luaD_call</text>
</a>
</g>
</g>
<!-- Node19&#45;&gt;Node20 -->
<g id="edge23" class="edge"><title>Node19&#45;&gt;Node20</title>
<path fill="none" stroke="midnightblue" d="M550.769,-611.481C568.844,-610.992 588.951,-611.279 604.638,-612.342"/>
<polygon fill="midnightblue" stroke="midnightblue" points="550.562,-607.986 540.695,-611.845 550.815,-614.981 550.562,-607.986"/>
</g>
<!-- Node21 -->
<g id="node21" class="node"><title>Node21</title>
<g id="a_node21"><a xlink:href="../../d3/d08/ldo_8c.html#abd7632c715de5db6e7797b7fa3f7010f" target="_top" xlink:title="resume">
<polygon fill="none" stroke="red" points="609.5,-551.5 609.5,-570.5 656.5,-570.5 656.5,-551.5 609.5,-551.5"/>
<text text-anchor="middle" x="633" y="-558.5" font-family="Helvetica,sans-Serif" font-size="10.00">resume</text>
</a>
</g>
</g>
<!-- Node19&#45;&gt;Node21 -->
<g id="edge25" class="edge"><title>Node19&#45;&gt;Node21</title>
<path fill="none" stroke="midnightblue" d="M535.273,-604.243C558.569,-593.828 589.972,-579.789 610.59,-570.572"/>
<polygon fill="midnightblue" stroke="midnightblue" points="533.541,-601.183 525.841,-608.459 536.398,-607.573 533.541,-601.183"/>
</g>
<!-- Node20&#45;&gt;Node19 -->
<g id="edge24" class="edge"><title>Node20&#45;&gt;Node19</title>
<path fill="none" stroke="midnightblue" d="M594.507,-624.213C577.522,-624.948 557.523,-624.929 540.695,-624.155"/>
<polygon fill="midnightblue" stroke="midnightblue" points="594.845,-627.7 604.638,-623.658 594.462,-620.71 594.845,-627.7"/>
</g>
<!-- Node23 -->
<g id="node23" class="node"><title>Node23</title>
<g id="a_node23"><a xlink:href="../../d5/dcd/lvm_8h.html#a275e261afaec876cd16944b95c955642" target="_top" xlink:title="luaV_arith">
<polygon fill="none" stroke="black" points="349,-760.5 349,-779.5 408,-779.5 408,-760.5 349,-760.5"/>
<text text-anchor="middle" x="378.5" y="-767.5" font-family="Helvetica,sans-Serif" font-size="10.00">luaV_arith</text>
</a>
</g>
</g>
<!-- Node22&#45;&gt;Node23 -->
<g id="edge27" class="edge"><title>Node22&#45;&gt;Node23</title>
<path fill="none" stroke="midnightblue" d="M310.561,-753.046C323.549,-756.336 337.222,-759.799 348.801,-762.731"/>
<polygon fill="midnightblue" stroke="midnightblue" points="311.362,-749.638 300.809,-750.576 309.643,-756.424 311.362,-749.638"/>
</g>
<!-- Node23&#45;&gt;Node19 -->
<g id="edge29" class="edge"><title>Node23&#45;&gt;Node19</title>
<path fill="none" stroke="midnightblue" d="M410.293,-754.837C411.946,-753.624 413.529,-752.344 415,-751 456.632,-712.975 487.476,-651.096 498.289,-627.527"/>
<polygon fill="midnightblue" stroke="midnightblue" points="408.205,-752.017 401.653,-760.343 411.967,-757.92 408.205,-752.017"/>
</g>
<!-- Node24 -->
<g id="node24" class="node"><title>Node24</title>
<g id="a_node24"><a xlink:href="../../da/dd2/lua_8h.html#ab0a8e0d4a119fa51c2785e25d5b5aa08" target="_top" xlink:title="lua_arith">
<polygon fill="none" stroke="black" points="477.5,-722.5 477.5,-741.5 529.5,-741.5 529.5,-722.5 477.5,-722.5"/>
<text text-anchor="middle" x="503.5" y="-729.5" font-family="Helvetica,sans-Serif" font-size="10.00">lua_arith</text>
</a>
</g>
</g>
<!-- Node23&#45;&gt;Node24 -->
<g id="edge28" class="edge"><title>Node23&#45;&gt;Node24</title>
<path fill="none" stroke="midnightblue" d="M417.813,-758.163C437.254,-752.157 460.316,-745.032 477.461,-739.736"/>
<polygon fill="midnightblue" stroke="midnightblue" points="416.549,-754.891 408.028,-761.187 418.615,-761.579 416.549,-754.891"/>
</g>
<!-- Node26 -->
<g id="node26" class="node"><title>Node26</title>
<g id="a_node26"><a xlink:href="../../d2/dd9/ldo_8h.html#af2326bf8464de1e4ce3c5f7aef2ed5d4" target="_top" xlink:title="luaD_precall">
<polygon fill="none" stroke="black" points="344,-476.5 344,-495.5 413,-495.5 413,-476.5 344,-476.5"/>
<text text-anchor="middle" x="378.5" y="-483.5" font-family="Helvetica,sans-Serif" font-size="10.00">luaD_precall</text>
</a>
</g>
</g>
<!-- Node25&#45;&gt;Node26 -->
<g id="edge31" class="edge"><title>Node25&#45;&gt;Node26</title>
<path fill="none" stroke="midnightblue" d="M295.465,-519.674C314.101,-512.024 337.079,-502.592 353.971,-495.658"/>
<polygon fill="midnightblue" stroke="midnightblue" points="294.093,-516.454 286.171,-523.489 296.751,-522.929 294.093,-516.454"/>
</g>
<!-- Node26&#45;&gt;Node19 -->
<g id="edge35" class="edge"><title>Node26&#45;&gt;Node19</title>
<path fill="none" stroke="midnightblue" d="M395.567,-503.39C401.97,-510.719 409.183,-519.508 415,-528 433.881,-555.567 426.638,-571.132 451,-594 457.473,-600.076 465.76,-604.846 473.785,-608.477"/>
<polygon fill="midnightblue" stroke="midnightblue" points="397.835,-500.676 388.556,-495.562 392.621,-505.346 397.835,-500.676"/>
</g>
<!-- Node26&#45;&gt;Node20 -->
<g id="edge33" class="edge"><title>Node26&#45;&gt;Node20</title>
<path fill="none" stroke="midnightblue" d="M394.937,-503.346C408.515,-517.734 429.43,-537.889 451,-551 501.394,-581.632 568.047,-601.813 604.784,-611.435"/>
<polygon fill="midnightblue" stroke="midnightblue" points="397.189,-500.624 387.841,-495.638 392.039,-505.365 397.189,-500.624"/>
</g>
<!-- Node26&#45;&gt;Node21 -->
<g id="edge34" class="edge"><title>Node26&#45;&gt;Node21</title>
<path fill="none" stroke="midnightblue" d="M403.537,-500.521C417.075,-508.16 434.526,-517.131 451,-523 506.2,-542.665 574.683,-553.604 609.458,-558.265"/>
<polygon fill="midnightblue" stroke="midnightblue" points="405.26,-497.475 394.851,-495.501 401.757,-503.535 405.26,-497.475"/>
</g>
<!-- Node26&#45;&gt;Node26 -->
<g id="edge32" class="edge"><title>Node26&#45;&gt;Node26</title>
<path fill="none" stroke="midnightblue" d="M357.02,-505.4C358.454,-510.315 365.614,-514 378.5,-514 399.117,-514 405.077,-504.565 396.379,-495.757"/>
<polygon fill="midnightblue" stroke="midnightblue" points="360.401,-506.35 360.621,-495.757 353.843,-503.9 360.401,-506.35"/>
</g>
<!-- Node27&#45;&gt;Node19 -->
<g id="edge55" class="edge"><title>Node27&#45;&gt;Node19</title>
<path fill="none" stroke="midnightblue" d="M264.959,-314.956C270.13,-357.87 287.718,-460.126 342,-523 365.903,-550.686 384.044,-541.517 415,-561 431.927,-571.653 434.331,-576.948 451,-588 462.039,-595.319 474.914,-602.819 485.029,-608.489"/>
<polygon fill="midnightblue" stroke="midnightblue" points="268.429,-314.498 263.852,-304.943 261.472,-315.267 268.429,-314.498"/>
</g>
<!-- Node28 -->
<g id="node28" class="node"><title>Node28</title>
<g id="a_node28"><a xlink:href="../../da/dd2/lua_8h.html#a2b4a9010af0545ae0f822d7f081370d0" target="_top" xlink:title="lua_getglobal">
<polygon fill="none" stroke="black" points="342,-53.5 342,-72.5 415,-72.5 415,-53.5 342,-53.5"/>
<text text-anchor="middle" x="378.5" y="-60.5" font-family="Helvetica,sans-Serif" font-size="10.00">lua_getglobal</text>
</a>
</g>
</g>
<!-- Node27&#45;&gt;Node28 -->
<g id="edge37" class="edge"><title>Node27&#45;&gt;Node28</title>
<path fill="none" stroke="midnightblue" d="M272.347,-275.834C287.085,-245.639 316.658,-185.163 342,-134 352.888,-112.018 365.798,-86.2792 372.654,-72.6352"/>
<polygon fill="midnightblue" stroke="midnightblue" points="269.023,-274.664 267.784,-285.186 275.314,-277.734 269.023,-274.664"/>
</g>
<!-- Node30 -->
<g id="node30" class="node"><title>Node30</title>
<g id="a_node30"><a xlink:href="../../da/dd2/lua_8h.html#a8d82fa181a3003e9a304040c0bbed9ac" target="_top" xlink:title="lua_gettable">
<polygon fill="none" stroke="black" points="344.5,-143.5 344.5,-162.5 412.5,-162.5 412.5,-143.5 344.5,-143.5"/>
<text text-anchor="middle" x="378.5" y="-150.5" font-family="Helvetica,sans-Serif" font-size="10.00">lua_gettable</text>
</a>
</g>
</g>
<!-- Node27&#45;&gt;Node30 -->
<g id="edge39" class="edge"><title>Node27&#45;&gt;Node30</title>
<path fill="none" stroke="midnightblue" d="M277.325,-277.234C301.706,-246.998 350.48,-186.51 369.575,-162.829"/>
<polygon fill="midnightblue" stroke="midnightblue" points="274.422,-275.258 270.87,-285.24 279.872,-279.652 274.422,-275.258"/>
</g>
<!-- Node32 -->
<g id="node32" class="node"><title>Node32</title>
<g id="a_node32"><a xlink:href="../../da/dd2/lua_8h.html#ac3112bb28ba217adc46f13da8e9e6585" target="_top" xlink:title="lua_getfield">
<polygon fill="none" stroke="red" points="347,-285.5 347,-304.5 410,-304.5 410,-285.5 347,-285.5"/>
<text text-anchor="middle" x="378.5" y="-292.5" font-family="Helvetica,sans-Serif" font-size="10.00">lua_getfield</text>
</a>
</g>
</g>
<!-- Node27&#45;&gt;Node32 -->
<g id="edge41" class="edge"><title>Node27&#45;&gt;Node32</title>
<path fill="none" stroke="midnightblue" d="M309.776,-295C322.214,-295 335.334,-295 346.68,-295"/>
<polygon fill="midnightblue" stroke="midnightblue" points="309.543,-291.5 299.543,-295 309.543,-298.5 309.543,-291.5"/>
</g>
<!-- Node29 -->
<g id="node29" class="node"><title>Node29</title>
<g id="a_node29"><a xlink:href="../../d8/dd3/lbaselib_8c.html#a865eb761a305c588d6940da5272375b7" target="_top" xlink:title="luaB_print">
<polygon fill="none" stroke="black" points="474,-0.5 474,-19.5 533,-19.5 533,-0.5 474,-0.5"/>
<text text-anchor="middle" x="503.5" y="-7.5" font-family="Helvetica,sans-Serif" font-size="10.00">luaB_print</text>
</a>
</g>
</g>
<!-- Node28&#45;&gt;Node29 -->
<g id="edge38" class="edge"><title>Node28&#45;&gt;Node29</title>
<path fill="none" stroke="midnightblue" d="M407.396,-49.015C420.505,-42.6294 436.424,-35.1397 451,-29 458.817,-25.7075 467.423,-22.4079 475.325,-19.5041"/>
<polygon fill="midnightblue" stroke="midnightblue" points="405.836,-45.8816 398.406,-53.4345 408.925,-52.1635 405.836,-45.8816"/>
</g>
<!-- Node31 -->
<g id="node31" class="node"><title>Node31</title>
<g id="a_node31"><a xlink:href="../../dc/d77/lstrlib_8c.html#ad24cfa73e5ad25ec99a1b48f0916471e" target="_top" xlink:title="add_value">
<polygon fill="none" stroke="red" points="472.5,-38.5 472.5,-57.5 534.5,-57.5 534.5,-38.5 472.5,-38.5"/>
<text text-anchor="middle" x="503.5" y="-45.5" font-family="Helvetica,sans-Serif" font-size="10.00">add_value</text>
</a>
</g>
</g>
<!-- Node30&#45;&gt;Node31 -->
<g id="edge40" class="edge"><title>Node30&#45;&gt;Node31</title>
<path fill="none" stroke="midnightblue" d="M390.459,-134.833C402.929,-115.557 424.975,-85.3965 451,-67 457.381,-62.4892 464.959,-58.9188 472.311,-56.149"/>
<polygon fill="midnightblue" stroke="midnightblue" points="387.482,-132.992 385.131,-143.323 393.411,-136.713 387.482,-132.992"/>
</g>
<!-- Node33 -->
<g id="node33" class="node"><title>Node33</title>
<g id="a_node33"><a xlink:href="../../d1/dc2/_kensho_lua_wrapper_8m.html#ad10bf0ff4feac9642e7477e282be41fe" target="_top" xlink:title="lookupKey">
<polygon fill="none" stroke="red" points="472.5,-76.5 472.5,-95.5 534.5,-95.5 534.5,-76.5 472.5,-76.5"/>
<text text-anchor="middle" x="503.5" y="-83.5" font-family="Helvetica,sans-Serif" font-size="10.00">lookupKey</text>
</a>
</g>
</g>
<!-- Node32&#45;&gt;Node33 -->
<g id="edge42" class="edge"><title>Node32&#45;&gt;Node33</title>
<path fill="none" stroke="midnightblue" d="M384.583,-275.621C396.261,-232.389 425.93,-129.908 451,-105 456.882,-99.1563 464.714,-95.0901 472.491,-92.2682"/>
<polygon fill="midnightblue" stroke="midnightblue" points="381.15,-274.909 381.957,-285.473 387.914,-276.712 381.15,-274.909"/>
</g>
<!-- Node34 -->
<g id="node34" class="node"><title>Node34</title>
<g id="a_node34"><a xlink:href="../../d1/dc2/_kensho_lua_wrapper_8m.html#a659a5a25271d0c7e4f5478f828a93b41" target="_top" xlink:title="popValue">
<polygon fill="none" stroke="black" points="474,-380.5 474,-399.5 533,-399.5 533,-380.5 474,-380.5"/>
<text text-anchor="middle" x="503.5" y="-387.5" font-family="Helvetica,sans-Serif" font-size="10.00">popValue</text>
</a>
</g>
</g>
<!-- Node32&#45;&gt;Node34 -->
<g id="edge43" class="edge"><title>Node32&#45;&gt;Node34</title>
<path fill="none" stroke="midnightblue" d="M394.099,-312.625C407.639,-328.154 428.966,-350.633 451,-366 459.091,-371.643 468.719,-376.539 477.449,-380.411"/>
<polygon fill="midnightblue" stroke="midnightblue" points="396.577,-310.137 387.423,-304.802 391.252,-314.681 396.577,-310.137"/>
</g>
<!-- Node35 -->
<g id="node35" class="node"><title>Node35</title>
<g id="a_node35"><a xlink:href="../../d1/dc2/_kensho_lua_wrapper_8m.html#a05954c02378e1c67ec00d4d5fc118d07" target="_top" xlink:title="This is executed when the LUA subsystem attempts to assign data to a new index. ">
<polygon fill="none" stroke="red" points="592,-361.5 592,-380.5 674,-380.5 674,-361.5 592,-361.5"/>
<text text-anchor="middle" x="633" y="-368.5" font-family="Helvetica,sans-Serif" font-size="10.00">lookupNewKey</text>
</a>
</g>
</g>
<!-- Node32&#45;&gt;Node35 -->
<g id="edge45" class="edge"><title>Node32&#45;&gt;Node35</title>
<path fill="none" stroke="midnightblue" d="M403.225,-309.788C416.784,-317.674 434.356,-326.967 451,-333 497.941,-350.014 554.638,-360.379 591.92,-365.895"/>
<polygon fill="midnightblue" stroke="midnightblue" points="404.922,-306.725 394.54,-304.61 401.338,-312.737 404.922,-306.725"/>
</g>
<!-- Node36 -->
<g id="node36" class="node"><title>Node36</title>
<g id="a_node36"><a xlink:href="../../da/d29/lauxlib_8h.html#a2605da7ef3a12d7e9cfa85939245f941" target="_top" xlink:title="luaL_getsubtable">
<polygon fill="none" stroke="red" points="458.5,-418.5 458.5,-437.5 548.5,-437.5 548.5,-418.5 458.5,-418.5"/>
<text text-anchor="middle" x="503.5" y="-425.5" font-family="Helvetica,sans-Serif" font-size="10.00">luaL_getsubtable</text>
</a>
</g>
</g>
<!-- Node32&#45;&gt;Node36 -->
<g id="edge46" class="edge"><title>Node32&#45;&gt;Node36</title>
<path fill="none" stroke="midnightblue" d="M386.912,-314.276C397.504,-339.419 419.262,-383.228 451,-409 455.735,-412.845 461.321,-415.955 467.037,-418.457"/>
<polygon fill="midnightblue" stroke="midnightblue" points="390.054,-312.709 383.06,-304.75 383.565,-315.333 390.054,-312.709"/>
</g>
<!-- Node37 -->
<g id="node37" class="node"><title>Node37</title>
<g id="a_node37"><a xlink:href="../../de/df3/liolib_8c.html#a1c6f8e04184b0f7939e45e24d2d7ef8a" target="_top" xlink:title="io_close">
<polygon fill="none" stroke="black" points="478.5,-304.5 478.5,-323.5 528.5,-323.5 528.5,-304.5 478.5,-304.5"/>
<text text-anchor="middle" x="503.5" y="-311.5" font-family="Helvetica,sans-Serif" font-size="10.00">io_close</text>
</a>
</g>
</g>
<!-- Node32&#45;&gt;Node37 -->
<g id="edge47" class="edge"><title>Node32&#45;&gt;Node37</title>
<path fill="none" stroke="midnightblue" d="M420.247,-301.294C439.491,-304.267 461.805,-307.714 478.332,-310.267"/>
<polygon fill="midnightblue" stroke="midnightblue" points="420.638,-297.813 410.221,-299.745 419.569,-304.731 420.638,-297.813"/>
</g>
<!-- Node38 -->
<g id="node38" class="node"><title>Node38</title>
<g id="a_node38"><a xlink:href="../../de/df3/liolib_8c.html#a3bccbdacdc9f21f22a603525be1f3699" target="_top" xlink:title="getiofile">
<polygon fill="none" stroke="red" points="480,-266.5 480,-285.5 527,-285.5 527,-266.5 480,-266.5"/>
<text text-anchor="middle" x="503.5" y="-273.5" font-family="Helvetica,sans-Serif" font-size="10.00">getiofile</text>
</a>
</g>
</g>
<!-- Node32&#45;&gt;Node38 -->
<g id="edge48" class="edge"><title>Node32&#45;&gt;Node38</title>
<path fill="none" stroke="midnightblue" d="M420.254,-288.705C440.11,-285.638 463.233,-282.066 479.895,-279.492"/>
<polygon fill="midnightblue" stroke="midnightblue" points="419.569,-285.269 410.221,-290.255 420.638,-292.187 419.569,-285.269"/>
</g>
<!-- Node39 -->
<g id="node39" class="node"><title>Node39</title>
<g id="a_node39"><a xlink:href="../../de/df3/liolib_8c.html#aae942558ff528b4e1a483297c64e6886" target="_top" xlink:title="g_iofile">
<polygon fill="none" stroke="red" points="481.5,-494.5 481.5,-513.5 525.5,-513.5 525.5,-494.5 481.5,-494.5"/>
<text text-anchor="middle" x="503.5" y="-501.5" font-family="Helvetica,sans-Serif" font-size="10.00">g_iofile</text>
</a>
</g>
</g>
<!-- Node32&#45;&gt;Node39 -->
<g id="edge49" class="edge"><title>Node32&#45;&gt;Node39</title>
<path fill="none" stroke="midnightblue" d="M384.583,-314.379C396.261,-357.611 425.93,-460.092 451,-485 459.18,-493.127 471.133,-497.817 481.464,-500.502"/>
<polygon fill="midnightblue" stroke="midnightblue" points="387.914,-313.288 381.957,-304.527 381.15,-315.091 387.914,-313.288"/>
</g>
<!-- Node40 -->
<g id="node40" class="node"><title>Node40</title>
<g id="a_node40"><a xlink:href="../../de/df3/liolib_8c.html#ab08031b51605d4ef676ec33a3b96a286" target="_top" xlink:title="io_lines">
<polygon fill="none" stroke="black" points="480,-228.5 480,-247.5 527,-247.5 527,-228.5 480,-228.5"/>
<text text-anchor="middle" x="503.5" y="-235.5" font-family="Helvetica,sans-Serif" font-size="10.00">io_lines</text>
</a>
</g>
</g>
<!-- Node32&#45;&gt;Node40 -->
<g id="edge50" class="edge"><title>Node32&#45;&gt;Node40</title>
<path fill="none" stroke="midnightblue" d="M404.668,-280.552C418.184,-273.068 435.259,-264.048 451,-257 460.307,-252.833 470.831,-248.83 479.928,-245.582"/>
<polygon fill="midnightblue" stroke="midnightblue" points="402.952,-277.501 395.94,-285.444 406.375,-283.607 402.952,-277.501"/>
</g>
<!-- Node41 -->
<g id="node41" class="node"><title>Node41</title>
<g id="a_node41"><a xlink:href="../../d2/d82/loadlib_8c.html#add0b38b20a4d136cd96f9398f35e9b58" target="_top" xlink:title="ll_checkclib">
<polygon fill="none" stroke="red" points="472.5,-190.5 472.5,-209.5 534.5,-209.5 534.5,-190.5 472.5,-190.5"/>
<text text-anchor="middle" x="503.5" y="-197.5" font-family="Helvetica,sans-Serif" font-size="10.00">ll_checkclib</text>
</a>
</g>
</g>
<!-- Node32&#45;&gt;Node41 -->
<g id="edge51" class="edge"><title>Node32&#45;&gt;Node41</title>
<path fill="none" stroke="midnightblue" d="M392.112,-277.46C405.15,-260.443 426.944,-234.922 451,-219 457.517,-214.687 465.142,-211.188 472.498,-208.423"/>
<polygon fill="midnightblue" stroke="midnightblue" points="389.298,-275.379 386.126,-285.488 394.909,-279.563 389.298,-275.379"/>
</g>
<!-- Node42 -->
<g id="node42" class="node"><title>Node42</title>
<g id="a_node42"><a xlink:href="../../d2/d82/loadlib_8c.html#a7a6ec2174d2de185431876163cd2d469" target="_top" xlink:title="ll_addtoclib">
<polygon fill="none" stroke="red" points="472.5,-456.5 472.5,-475.5 534.5,-475.5 534.5,-456.5 472.5,-456.5"/>
<text text-anchor="middle" x="503.5" y="-463.5" font-family="Helvetica,sans-Serif" font-size="10.00">ll_addtoclib</text>
</a>
</g>
</g>
<!-- Node32&#45;&gt;Node42 -->
<g id="edge52" class="edge"><title>Node32&#45;&gt;Node42</title>
<path fill="none" stroke="midnightblue" d="M383.64,-314.622C391.382,-346.666 411.014,-410.322 451,-447 456.97,-452.476 464.653,-456.41 472.253,-459.222"/>
<polygon fill="midnightblue" stroke="midnightblue" points="387.015,-313.677 381.384,-304.703 380.189,-315.23 387.015,-313.677"/>
</g>
<!-- Node43 -->
<g id="node43" class="node"><title>Node43</title>
<g id="a_node43"><a xlink:href="../../d2/d82/loadlib_8c.html#af8f7333f1a59f3d7aab8c9b79b7a4ab2" target="_top" xlink:title="findfile">
<polygon fill="none" stroke="red" points="483,-152.5 483,-171.5 524,-171.5 524,-152.5 483,-152.5"/>
<text text-anchor="middle" x="503.5" y="-159.5" font-family="Helvetica,sans-Serif" font-size="10.00">findfile</text>
</a>
</g>
</g>
<!-- Node32&#45;&gt;Node43 -->
<g id="edge53" class="edge"><title>Node32&#45;&gt;Node43</title>
<path fill="none" stroke="midnightblue" d="M386.912,-275.724C397.504,-250.581 419.262,-206.772 451,-181 460.174,-173.551 472.543,-168.86 482.86,-166.004"/>
<polygon fill="midnightblue" stroke="midnightblue" points="383.565,-274.667 383.06,-285.25 390.054,-277.291 383.565,-274.667"/>
</g>
<!-- Node44 -->
<g id="node44" class="node"><title>Node44</title>
<g id="a_node44"><a xlink:href="../../d2/d82/loadlib_8c.html#a68e1957952958cc41d9ede92dabda1c6" target="_top" xlink:title="searcher_preload">
<polygon fill="none" stroke="red" points="459,-114.5 459,-133.5 548,-133.5 548,-114.5 459,-114.5"/>
<text text-anchor="middle" x="503.5" y="-121.5" font-family="Helvetica,sans-Serif" font-size="10.00">searcher_preload</text>
</a>
</g>
</g>
<!-- Node32&#45;&gt;Node44 -->
<g id="edge54" class="edge"><title>Node32&#45;&gt;Node44</title>
<path fill="none" stroke="midnightblue" d="M383.64,-275.378C391.382,-243.334 411.014,-179.678 451,-143 455.214,-139.135 460.281,-136.038 465.571,-133.561"/>
<polygon fill="midnightblue" stroke="midnightblue" points="380.189,-274.77 381.384,-285.297 387.015,-276.323 380.189,-274.77"/>
</g>
<!-- Node34&#45;&gt;Node35 -->
<g id="edge44" class="edge"><title>Node34&#45;&gt;Node35</title>
<path fill="none" stroke="midnightblue" d="M543.336,-384.213C558.711,-381.921 576.381,-379.288 591.88,-376.979"/>
<polygon fill="midnightblue" stroke="midnightblue" points="542.488,-380.8 533.113,-385.736 543.52,-387.724 542.488,-380.8"/>
</g>
<!-- Node45&#45;&gt;Node19 -->
<g id="edge63" class="edge"><title>Node45&#45;&gt;Node19</title>
<path fill="none" stroke="midnightblue" d="M309.612,-663.906C355.431,-653.002 424.402,-636.587 466.261,-626.625"/>
<polygon fill="midnightblue" stroke="midnightblue" points="308.554,-660.561 299.636,-666.281 310.174,-667.37 308.554,-660.561"/>
</g>
<!-- Node46 -->
<g id="node46" class="node"><title>Node46</title>
<g id="a_node46"><a xlink:href="../../da/dd2/lua_8h.html#ac0ebe7d753b81f6249dde8cf0b8ea997" target="_top" xlink:title="lua_setglobal">
<polygon fill="none" stroke="red" points="342,-722.5 342,-741.5 415,-741.5 415,-722.5 342,-722.5"/>
<text text-anchor="middle" x="378.5" y="-729.5" font-family="Helvetica,sans-Serif" font-size="10.00">lua_setglobal</text>
</a>
</g>
</g>
<!-- Node45&#45;&gt;Node46 -->
<g id="edge57" class="edge"><title>Node45&#45;&gt;Node46</title>
<path fill="none" stroke="midnightblue" d="M291.198,-689.037C312.059,-699.422 339.922,-713.293 358.273,-722.428"/>
<polygon fill="midnightblue" stroke="midnightblue" points="292.677,-685.864 282.165,-684.541 289.557,-692.13 292.677,-685.864"/>
</g>
<!-- Node47 -->
<g id="node47" class="node"><title>Node47</title>
<g id="a_node47"><a xlink:href="../../da/dd2/lua_8h.html#aeda173d104e3a566ccaac89a1f64a5eb" target="_top" xlink:title="lua_settable">
<polygon fill="none" stroke="red" points="344.5,-684.5 344.5,-703.5 412.5,-703.5 412.5,-684.5 344.5,-684.5"/>
<text text-anchor="middle" x="378.5" y="-691.5" font-family="Helvetica,sans-Serif" font-size="10.00">lua_settable</text>
</a>
</g>
</g>
<!-- Node45&#45;&gt;Node47 -->
<g id="edge58" class="edge"><title>Node45&#45;&gt;Node47</title>
<path fill="none" stroke="midnightblue" d="M309.59,-682.731C321.259,-684.667 333.542,-686.706 344.403,-688.508"/>
<polygon fill="midnightblue" stroke="midnightblue" points="309.981,-679.248 299.543,-681.064 308.835,-686.154 309.981,-679.248"/>
</g>
<!-- Node48 -->
<g id="node48" class="node"><title>Node48</title>
<g id="a_node48"><a xlink:href="../../da/dd2/lua_8h.html#a9580a15c141cbe4bf2a63fea625c3878" target="_top" xlink:title="lua_setfield">
<polygon fill="none" stroke="red" points="347,-438.5 347,-457.5 410,-457.5 410,-438.5 347,-438.5"/>
<text text-anchor="middle" x="378.5" y="-445.5" font-family="Helvetica,sans-Serif" font-size="10.00">lua_setfield</text>
</a>
</g>
</g>
<!-- Node45&#45;&gt;Node48 -->
<g id="edge59" class="edge"><title>Node45&#45;&gt;Node48</title>
<path fill="none" stroke="midnightblue" d="M286.357,-659.034C293.666,-652.941 301.095,-645.413 306,-637 344.901,-570.281 295.629,-528.76 342,-467 344.854,-463.199 348.697,-460.076 352.801,-457.54"/>
<polygon fill="midnightblue" stroke="midnightblue" points="283.765,-656.613 277.988,-665.495 288.043,-662.154 283.765,-656.613"/>
</g>
<!-- Node48&#45;&gt;Node36 -->
<g id="edge60" class="edge"><title>Node48&#45;&gt;Node36</title>
<path fill="none" stroke="midnightblue" d="M420.139,-441.392C432.355,-439.406 445.817,-437.217 458.254,-435.194"/>
<polygon fill="midnightblue" stroke="midnightblue" points="419.529,-437.945 410.221,-443.005 420.653,-444.854 419.529,-437.945"/>
</g>
<!-- Node48&#45;&gt;Node39 -->
<g id="edge61" class="edge"><title>Node48&#45;&gt;Node39</title>
<path fill="none" stroke="midnightblue" d="M406.686,-462.512C423.076,-471.173 442.395,-481.204 451,-485 460.766,-489.308 471.844,-493.484 481.217,-496.818"/>
<polygon fill="midnightblue" stroke="midnightblue" points="407.953,-459.221 397.478,-457.628 404.673,-465.406 407.953,-459.221"/>
</g>
<!-- Node48&#45;&gt;Node42 -->
<g id="edge62" class="edge"><title>Node48&#45;&gt;Node42</title>
<path fill="none" stroke="midnightblue" d="M420.391,-453.984C437.299,-456.458 456.557,-459.277 472.171,-461.562"/>
<polygon fill="midnightblue" stroke="midnightblue" points="420.622,-450.481 410.221,-452.496 419.609,-457.407 420.622,-450.481"/>
</g>
<!-- Node49&#45;&gt;Node19 -->
<g id="edge66" class="edge"><title>Node49&#45;&gt;Node19</title>
<path fill="none" stroke="midnightblue" d="M305.986,-618C351.695,-618 423.199,-618 466.186,-618"/>
<polygon fill="midnightblue" stroke="midnightblue" points="305.799,-614.5 295.799,-618 305.799,-621.5 305.799,-614.5"/>
</g>
<!-- Node50 -->
<g id="node50" class="node"><title>Node50</title>
<g id="a_node50"><a xlink:href="../../da/dd2/lua_8h.html#ac7ade66f92b5e325c42371926f879818" target="_top" xlink:title="lua_len">
<polygon fill="none" stroke="red" points="355,-570.5 355,-589.5 402,-589.5 402,-570.5 355,-570.5"/>
<text text-anchor="middle" x="378.5" y="-577.5" font-family="Helvetica,sans-Serif" font-size="10.00">lua_len</text>
</a>
</g>
</g>
<!-- Node49&#45;&gt;Node50 -->
<g id="edge65" class="edge"><title>Node49&#45;&gt;Node50</title>
<path fill="none" stroke="midnightblue" d="M301.402,-605.255C319.11,-599.378 339.526,-592.603 354.75,-587.55"/>
<polygon fill="midnightblue" stroke="midnightblue" points="300.282,-601.939 291.893,-608.411 302.487,-608.583 300.282,-601.939"/>
</g>
</g>
</svg>
