<?xml version="1.0" encoding="UTF-8" standalone="no"?>
<!DOCTYPE svg PUBLIC "-//W3C//DTD SVG 1.1//EN"
 "http://www.w3.org/Graphics/SVG/1.1/DTD/svg11.dtd">
<!-- Generated by graphviz version 2.38.0 (20140413.2041)
 -->
<!-- Title: filterpc Pages: 1 -->
<svg width="948pt" height="1054pt"
 viewBox="0.00 0.00 948.00 1054.00" xmlns="http://www.w3.org/2000/svg" xmlns:xlink="http://www.w3.org/1999/xlink">
<g id="graph0" class="graph" transform="scale(1 1) rotate(0) translate(4 1050)">
<title>filterpc</title>
<!-- Node1 -->
<g id="node1" class="node"><title>Node1</title>
<polygon fill="#bfbfbf" stroke="black" points="0,-742.5 0,-761.5 42,-761.5 42,-742.5 0,-742.5"/>
<text text-anchor="middle" x="21" y="-749.5" font-family="Helvetica,sans-Serif" font-size="10.00">filterpc</text>
</g>
<!-- Node2 -->
<g id="node2" class="node"><title>Node2</title>
<g id="a_node2"><a xlink:href="../../d6/ddf/ldebug_8c.html#a6585a37f6a17649f953b1d4092f4d4bb" target="_top" xlink:title="findsetreg">
<polygon fill="none" stroke="black" points="78,-742.5 78,-761.5 134,-761.5 134,-742.5 78,-742.5"/>
<text text-anchor="middle" x="106" y="-749.5" font-family="Helvetica,sans-Serif" font-size="10.00">findsetreg</text>
</a>
</g>
</g>
<!-- Node1&#45;&gt;Node2 -->
<g id="edge1" class="edge"><title>Node1&#45;&gt;Node2</title>
<path fill="none" stroke="midnightblue" d="M52.2465,-752C60.6335,-752 69.6838,-752 77.8801,-752"/>
<polygon fill="midnightblue" stroke="midnightblue" points="52.092,-748.5 42.092,-752 52.092,-755.5 52.092,-748.5"/>
</g>
<!-- Node3 -->
<g id="node3" class="node"><title>Node3</title>
<g id="a_node3"><a xlink:href="../../d6/ddf/ldebug_8c.html#a3f798dedd04b16528c13c4320261c0ea" target="_top" xlink:title="getobjname">
<polygon fill="none" stroke="black" points="170,-742.5 170,-761.5 237,-761.5 237,-742.5 170,-742.5"/>
<text text-anchor="middle" x="203.5" y="-749.5" font-family="Helvetica,sans-Serif" font-size="10.00">getobjname</text>
</a>
</g>
</g>
<!-- Node2&#45;&gt;Node3 -->
<g id="edge2" class="edge"><title>Node2&#45;&gt;Node3</title>
<path fill="none" stroke="midnightblue" d="M144.159,-752C152.651,-752 161.613,-752 169.897,-752"/>
<polygon fill="midnightblue" stroke="midnightblue" points="144.111,-748.5 134.111,-752 144.111,-755.5 144.111,-748.5"/>
</g>
<!-- Node4 -->
<g id="node4" class="node"><title>Node4</title>
<g id="a_node4"><a xlink:href="../../d6/ddf/ldebug_8c.html#a9d3034a08348ba5d2e15af7a42097062" target="_top" xlink:title="kname">
<polygon fill="none" stroke="black" points="290,-761.5 290,-780.5 335,-780.5 335,-761.5 290,-761.5"/>
<text text-anchor="middle" x="312.5" y="-768.5" font-family="Helvetica,sans-Serif" font-size="10.00">kname</text>
</a>
</g>
</g>
<!-- Node3&#45;&gt;Node4 -->
<g id="edge3" class="edge"><title>Node3&#45;&gt;Node4</title>
<path fill="none" stroke="midnightblue" d="M247.092,-752.939C261.749,-755.198 277.545,-758.361 289.827,-761.601"/>
<polygon fill="midnightblue" stroke="midnightblue" points="247.578,-749.473 237.185,-751.53 246.592,-756.404 247.578,-749.473"/>
</g>
<!-- Node5 -->
<g id="node5" class="node"><title>Node5</title>
<g id="a_node5"><a xlink:href="../../d6/ddf/ldebug_8c.html#abf0d60b43b4bff2821e87b2f4054a6b7" target="_top" xlink:title="getfuncname">
<polygon fill="none" stroke="black" points="277,-723.5 277,-742.5 348,-742.5 348,-723.5 277,-723.5"/>
<text text-anchor="middle" x="312.5" y="-730.5" font-family="Helvetica,sans-Serif" font-size="10.00">getfuncname</text>
</a>
</g>
</g>
<!-- Node3&#45;&gt;Node5 -->
<g id="edge5" class="edge"><title>Node3&#45;&gt;Node5</title>
<path fill="none" stroke="midnightblue" d="M247.183,-744.421C257.011,-742.676 267.346,-740.84 276.788,-739.164"/>
<polygon fill="midnightblue" stroke="midnightblue" points="246.419,-741.002 237.185,-746.196 247.643,-747.894 246.419,-741.002"/>
</g>
<!-- Node15 -->
<g id="node15" class="node"><title>Node15</title>
<g id="a_node15"><a xlink:href="../../db/d46/ldebug_8h.html#a375161dd1513420561f20f0b4c7b7e66" target="_top" xlink:title="luaG_typeerror">
<polygon fill="none" stroke="black" points="273,-589.5 273,-608.5 352,-608.5 352,-589.5 273,-589.5"/>
<text text-anchor="middle" x="312.5" y="-596.5" font-family="Helvetica,sans-Serif" font-size="10.00">luaG_typeerror</text>
</a>
</g>
</g>
<!-- Node3&#45;&gt;Node15 -->
<g id="edge17" class="edge"><title>Node3&#45;&gt;Node15</title>
<path fill="none" stroke="midnightblue" d="M217.191,-733.852C240.035,-701.188 287.323,-633.571 304.809,-608.567"/>
<polygon fill="midnightblue" stroke="midnightblue" points="214.056,-732.228 211.193,-742.429 219.793,-736.24 214.056,-732.228"/>
</g>
<!-- Node4&#45;&gt;Node3 -->
<g id="edge4" class="edge"><title>Node4&#45;&gt;Node3</title>
<path fill="none" stroke="midnightblue" d="M279.635,-771.575C262.573,-769.405 241.979,-765.535 226.67,-761.53"/>
<polygon fill="midnightblue" stroke="midnightblue" points="279.4,-775.07 289.724,-772.692 280.17,-768.113 279.4,-775.07"/>
</g>
<!-- Node6 -->
<g id="node6" class="node"><title>Node6</title>
<g id="a_node6"><a xlink:href="../../d6/ddf/ldebug_8c.html#ad72fa774194e83872bac4e5bf6ec1160" target="_top" xlink:title="auxgetinfo">
<polygon fill="none" stroke="black" points="402,-819.5 402,-838.5 462,-838.5 462,-819.5 402,-819.5"/>
<text text-anchor="middle" x="432" y="-826.5" font-family="Helvetica,sans-Serif" font-size="10.00">auxgetinfo</text>
</a>
</g>
</g>
<!-- Node5&#45;&gt;Node6 -->
<g id="edge6" class="edge"><title>Node5&#45;&gt;Node6</title>
<path fill="none" stroke="midnightblue" d="M344.588,-747.259C347.156,-748.76 349.661,-750.346 352,-752 381.086,-772.568 409.61,-803.896 423.034,-819.491"/>
<polygon fill="midnightblue" stroke="midnightblue" points="346.228,-744.167 335.764,-742.51 342.911,-750.331 346.228,-744.167"/>
</g>
<!-- Node7 -->
<g id="node7" class="node"><title>Node7</title>
<g id="a_node7"><a xlink:href="../../da/dd2/lua_8h.html#a9cf23593facaabc7fb42e4d232a507d7" target="_top" xlink:title="lua_getinfo">
<polygon fill="none" stroke="black" points="517.5,-893.5 517.5,-912.5 579.5,-912.5 579.5,-893.5 517.5,-893.5"/>
<text text-anchor="middle" x="548.5" y="-900.5" font-family="Helvetica,sans-Serif" font-size="10.00">lua_getinfo</text>
</a>
</g>
</g>
<!-- Node6&#45;&gt;Node7 -->
<g id="edge7" class="edge"><title>Node6&#45;&gt;Node7</title>
<path fill="none" stroke="midnightblue" d="M456.395,-844.12C479.187,-858.85 513.153,-880.802 532.527,-893.323"/>
<polygon fill="midnightblue" stroke="midnightblue" points="458.267,-841.163 447.969,-838.674 454.468,-847.042 458.267,-841.163"/>
</g>
<!-- Node8 -->
<g id="node8" class="node"><title>Node8</title>
<g id="a_node8"><a xlink:href="../../d0/d56/lauxlib_8c.html#a4f35430f7ecfcbd5f507e550937046b4" target="_top" xlink:title="pushglobalfuncname">
<polygon fill="none" stroke="red" points="621,-912.5 621,-931.5 726,-931.5 726,-912.5 621,-912.5"/>
<text text-anchor="middle" x="673.5" y="-919.5" font-family="Helvetica,sans-Serif" font-size="10.00">pushglobalfuncname</text>
</a>
</g>
</g>
<!-- Node7&#45;&gt;Node8 -->
<g id="edge8" class="edge"><title>Node7&#45;&gt;Node8</title>
<path fill="none" stroke="midnightblue" d="M589.572,-909.19C599.495,-910.723 610.27,-912.387 620.667,-913.993"/>
<polygon fill="midnightblue" stroke="midnightblue" points="590.006,-905.716 579.589,-907.648 588.938,-912.634 590.006,-905.716"/>
</g>
<!-- Node9 -->
<g id="node9" class="node"><title>Node9</title>
<g id="a_node9"><a xlink:href="../../da/d29/lauxlib_8h.html#a526c220d17273c63ce9973bcde4a2c4a" target="_top" xlink:title="luaL_argerror">
<polygon fill="none" stroke="red" points="767.5,-874.5 767.5,-893.5 838.5,-893.5 838.5,-874.5 767.5,-874.5"/>
<text text-anchor="middle" x="803" y="-881.5" font-family="Helvetica,sans-Serif" font-size="10.00">luaL_argerror</text>
</a>
</g>
</g>
<!-- Node7&#45;&gt;Node9 -->
<g id="edge12" class="edge"><title>Node7&#45;&gt;Node9</title>
<path fill="none" stroke="midnightblue" d="M589.955,-899.956C639.047,-896.262 720.985,-890.096 767.317,-886.61"/>
<polygon fill="midnightblue" stroke="midnightblue" points="589.416,-896.486 579.707,-900.727 589.941,-903.467 589.416,-896.486"/>
</g>
<!-- Node10 -->
<g id="node10" class="node"><title>Node10</title>
<g id="a_node10"><a xlink:href="../../d8/d97/ldblib_8c.html#a4eb57e66c2efb2d31c9b9e1b01d27e13" target="_top" xlink:title="db_getinfo">
<polygon fill="none" stroke="black" points="880,-855.5 880,-874.5 940,-874.5 940,-855.5 880,-855.5"/>
<text text-anchor="middle" x="910" y="-862.5" font-family="Helvetica,sans-Serif" font-size="10.00">db_getinfo</text>
</a>
</g>
</g>
<!-- Node7&#45;&gt;Node10 -->
<g id="edge14" class="edge"><title>Node7&#45;&gt;Node10</title>
<path fill="none" stroke="midnightblue" d="M589.548,-892.841C599.766,-890.424 610.758,-887.976 621,-886 683.21,-873.995 698.815,-869.679 762,-865 802.849,-861.975 850.259,-862.743 879.946,-863.737"/>
<polygon fill="midnightblue" stroke="midnightblue" points="588.545,-889.482 579.644,-895.228 590.185,-896.287 588.545,-889.482"/>
</g>
<!-- Node11 -->
<g id="node11" class="node"><title>Node11</title>
<g id="a_node11"><a xlink:href="../../da/d29/lauxlib_8h.html#a664cc293d6c7a7dc67857fe95583a10e" target="_top" xlink:title="luaL_traceback">
<polygon fill="none" stroke="red" points="762.5,-741.5 762.5,-760.5 843.5,-760.5 843.5,-741.5 762.5,-741.5"/>
<text text-anchor="middle" x="803" y="-748.5" font-family="Helvetica,sans-Serif" font-size="10.00">luaL_traceback</text>
</a>
</g>
</g>
<!-- Node7&#45;&gt;Node11 -->
<g id="edge11" class="edge"><title>Node7&#45;&gt;Node11</title>
<path fill="none" stroke="midnightblue" d="M563.927,-885.122C577.352,-869.424 598.608,-846.841 621,-832 663.035,-804.141 680.082,-809.846 726,-789 746.014,-779.914 768.476,-768.532 783.757,-760.604"/>
<polygon fill="midnightblue" stroke="midnightblue" points="561.038,-883.121 557.317,-893.041 566.412,-887.607 561.038,-883.121"/>
</g>
<!-- Node12 -->
<g id="node12" class="node"><title>Node12</title>
<g id="a_node12"><a xlink:href="../../da/d29/lauxlib_8h.html#a269122a77674ca63c9193c2a30b4729e" target="_top" xlink:title="luaL_where">
<polygon fill="none" stroke="red" points="640.5,-1026.5 640.5,-1045.5 706.5,-1045.5 706.5,-1026.5 640.5,-1026.5"/>
<text text-anchor="middle" x="673.5" y="-1033.5" font-family="Helvetica,sans-Serif" font-size="10.00">luaL_where</text>
</a>
</g>
</g>
<!-- Node7&#45;&gt;Node12 -->
<g id="edge13" class="edge"><title>Node7&#45;&gt;Node12</title>
<path fill="none" stroke="midnightblue" d="M556.912,-922.276C567.504,-947.419 589.262,-991.228 621,-1017 626.623,-1021.57 633.446,-1025.1 640.261,-1027.8"/>
<polygon fill="midnightblue" stroke="midnightblue" points="560.054,-920.709 553.06,-912.75 553.565,-923.333 560.054,-920.709"/>
</g>
<!-- Node13 -->
<g id="node13" class="node"><title>Node13</title>
<g id="a_node13"><a xlink:href="../../d8/d97/ldblib_8c.html#a0951daf8c0b66e39bd3aa618aff380bf" target="_top" xlink:title="checkupval">
<polygon fill="none" stroke="red" points="641,-988.5 641,-1007.5 706,-1007.5 706,-988.5 641,-988.5"/>
<text text-anchor="middle" x="673.5" y="-995.5" font-family="Helvetica,sans-Serif" font-size="10.00">checkupval</text>
</a>
</g>
</g>
<!-- Node7&#45;&gt;Node13 -->
<g id="edge15" class="edge"><title>Node7&#45;&gt;Node13</title>
<path fill="none" stroke="midnightblue" d="M562.112,-920.54C575.15,-937.557 596.944,-963.078 621,-979 627.04,-982.997 634.032,-986.296 640.88,-988.958"/>
<polygon fill="midnightblue" stroke="midnightblue" points="564.909,-918.437 556.126,-912.512 559.298,-922.621 564.909,-918.437"/>
</g>
<!-- Node14 -->
<g id="node14" class="node"><title>Node14</title>
<g id="a_node14"><a xlink:href="../../d8/d97/ldblib_8c.html#a5caaa985f31fc5cbd014f831833205e7" target="_top" xlink:title="hookf">
<polygon fill="none" stroke="red" points="654,-950.5 654,-969.5 693,-969.5 693,-950.5 654,-950.5"/>
<text text-anchor="middle" x="673.5" y="-957.5" font-family="Helvetica,sans-Serif" font-size="10.00">hookf</text>
</a>
</g>
</g>
<!-- Node7&#45;&gt;Node14 -->
<g id="edge16" class="edge"><title>Node7&#45;&gt;Node14</title>
<path fill="none" stroke="midnightblue" d="M574.668,-917.448C588.184,-924.932 605.259,-933.952 621,-941 631.612,-945.751 643.805,-950.289 653.663,-953.738"/>
<polygon fill="midnightblue" stroke="midnightblue" points="576.375,-914.393 565.94,-912.556 572.952,-920.499 576.375,-914.393"/>
</g>
<!-- Node8&#45;&gt;Node9 -->
<g id="edge9" class="edge"><title>Node8&#45;&gt;Node9</title>
<path fill="none" stroke="midnightblue" d="M716.559,-909.465C733.904,-904.295 753.681,-898.401 769.837,-893.586"/>
<polygon fill="midnightblue" stroke="midnightblue" points="715.257,-906.2 706.674,-912.411 717.257,-912.909 715.257,-906.2"/>
</g>
<!-- Node9&#45;&gt;Node10 -->
<g id="edge10" class="edge"><title>Node9&#45;&gt;Node10</title>
<path fill="none" stroke="midnightblue" d="M848.644,-875.922C859.246,-874.003 870.284,-872.006 879.978,-870.252"/>
<polygon fill="midnightblue" stroke="midnightblue" points="847.889,-872.501 838.672,-877.726 849.135,-879.389 847.889,-872.501"/>
</g>
<!-- Node16 -->
<g id="node16" class="node"><title>Node16</title>
<g id="a_node16"><a xlink:href="../../db/d46/ldebug_8h.html#af2c81da7e357ed468787d792b4a04e54" target="_top" xlink:title="luaG_concaterror">
<polygon fill="none" stroke="black" points="388,-707.5 388,-726.5 476,-726.5 476,-707.5 388,-707.5"/>
<text text-anchor="middle" x="432" y="-714.5" font-family="Helvetica,sans-Serif" font-size="10.00">luaG_concaterror</text>
</a>
</g>
</g>
<!-- Node15&#45;&gt;Node16 -->
<g id="edge18" class="edge"><title>Node15&#45;&gt;Node16</title>
<path fill="none" stroke="midnightblue" d="M327.218,-616.603C341.509,-634.452 364.988,-662.439 388,-684 397.065,-692.493 408.214,-701.001 416.888,-707.251"/>
<polygon fill="midnightblue" stroke="midnightblue" points="329.935,-614.396 320.983,-608.728 324.447,-618.741 329.935,-614.396"/>
</g>
<!-- Node24 -->
<g id="node24" class="node"><title>Node24</title>
<g id="a_node24"><a xlink:href="../../db/d46/ldebug_8h.html#ab66c1eafd0acffec1bd270ae33e5f1ca" target="_top" xlink:title="luaG_aritherror">
<polygon fill="none" stroke="black" points="393.5,-655.5 393.5,-674.5 470.5,-674.5 470.5,-655.5 393.5,-655.5"/>
<text text-anchor="middle" x="432" y="-662.5" font-family="Helvetica,sans-Serif" font-size="10.00">luaG_aritherror</text>
</a>
</g>
</g>
<!-- Node15&#45;&gt;Node24 -->
<g id="edge28" class="edge"><title>Node15&#45;&gt;Node24</title>
<path fill="none" stroke="midnightblue" d="M339.344,-613.517C362.005,-626.245 394.305,-644.389 413.894,-655.391"/>
<polygon fill="midnightblue" stroke="midnightblue" points="341.018,-610.443 330.586,-608.597 337.59,-616.546 341.018,-610.443"/>
</g>
<!-- Node27 -->
<g id="node27" class="node"><title>Node27</title>
<g id="a_node27"><a xlink:href="../../d3/d08/ldo_8c.html#a9f83d36f24672570ff7793686c02ed4a" target="_top" xlink:title="tryfuncTM">
<polygon fill="none" stroke="black" points="403.5,-447.5 403.5,-466.5 460.5,-466.5 460.5,-447.5 403.5,-447.5"/>
<text text-anchor="middle" x="432" y="-454.5" font-family="Helvetica,sans-Serif" font-size="10.00">tryfuncTM</text>
</a>
</g>
</g>
<!-- Node15&#45;&gt;Node27 -->
<g id="edge32" class="edge"><title>Node15&#45;&gt;Node27</title>
<path fill="none" stroke="midnightblue" d="M328.2,-581.234C353.22,-550.998 403.272,-490.51 422.867,-466.829"/>
<polygon fill="midnightblue" stroke="midnightblue" points="325.255,-579.304 321.576,-589.24 330.648,-583.767 325.255,-579.304"/>
</g>
<!-- Node29 -->
<g id="node29" class="node"><title>Node29</title>
<g id="a_node29"><a xlink:href="../../d5/dcd/lvm_8h.html#adacdbccc9d8fab937a1b0dc058c8da12" target="_top" xlink:title="luaV_gettable">
<polygon fill="none" stroke="black" points="394.5,-247.5 394.5,-266.5 469.5,-266.5 469.5,-247.5 394.5,-247.5"/>
<text text-anchor="middle" x="432" y="-254.5" font-family="Helvetica,sans-Serif" font-size="10.00">luaV_gettable</text>
</a>
</g>
</g>
<!-- Node15&#45;&gt;Node29 -->
<g id="edge38" class="edge"><title>Node15&#45;&gt;Node29</title>
<path fill="none" stroke="midnightblue" d="M320.053,-579.927C341.883,-516.387 411.663,-313.283 427.695,-266.62"/>
<polygon fill="midnightblue" stroke="midnightblue" points="316.704,-578.901 316.765,-589.496 323.325,-581.176 316.704,-578.901"/>
</g>
<!-- Node45 -->
<g id="node45" class="node"><title>Node45</title>
<g id="a_node45"><a xlink:href="../../d5/dcd/lvm_8h.html#a5885d48fd66eb236f8b8f6e4938cbcce" target="_top" xlink:title="luaV_settable">
<polygon fill="none" stroke="black" points="394.5,-589.5 394.5,-608.5 469.5,-608.5 469.5,-589.5 394.5,-589.5"/>
<text text-anchor="middle" x="432" y="-596.5" font-family="Helvetica,sans-Serif" font-size="10.00">luaV_settable</text>
</a>
</g>
</g>
<!-- Node15&#45;&gt;Node45 -->
<g id="edge56" class="edge"><title>Node15&#45;&gt;Node45</title>
<path fill="none" stroke="midnightblue" d="M362.343,-599C373.012,-599 384.13,-599 394.234,-599"/>
<polygon fill="midnightblue" stroke="midnightblue" points="362.3,-595.5 352.3,-599 362.3,-602.5 362.3,-595.5"/>
</g>
<!-- Node49 -->
<g id="node49" class="node"><title>Node49</title>
<g id="a_node49"><a xlink:href="../../d5/dcd/lvm_8h.html#a414b4b487239935324f2f16e1e7715db" target="_top" xlink:title="luaV_objlen">
<polygon fill="none" stroke="black" points="398.5,-532.5 398.5,-551.5 465.5,-551.5 465.5,-532.5 398.5,-532.5"/>
<text text-anchor="middle" x="432" y="-539.5" font-family="Helvetica,sans-Serif" font-size="10.00">luaV_objlen</text>
</a>
</g>
</g>
<!-- Node15&#45;&gt;Node49 -->
<g id="edge64" class="edge"><title>Node15&#45;&gt;Node49</title>
<path fill="none" stroke="midnightblue" d="M342.436,-584.963C363.844,-574.578 392.438,-560.707 411.269,-551.572"/>
<polygon fill="midnightblue" stroke="midnightblue" points="340.636,-581.946 333.167,-589.459 343.692,-588.244 340.636,-581.946"/>
</g>
<!-- Node17 -->
<g id="node17" class="node"><title>Node17</title>
<g id="a_node17"><a xlink:href="../../d5/dcd/lvm_8h.html#aee84bfc563cb4bdd21a013218a289aa7" target="_top" xlink:title="luaV_concat">
<polygon fill="none" stroke="black" points="514,-722.5 514,-741.5 583,-741.5 583,-722.5 514,-722.5"/>
<text text-anchor="middle" x="548.5" y="-729.5" font-family="Helvetica,sans-Serif" font-size="10.00">luaV_concat</text>
</a>
</g>
</g>
<!-- Node16&#45;&gt;Node17 -->
<g id="edge19" class="edge"><title>Node16&#45;&gt;Node17</title>
<path fill="none" stroke="midnightblue" d="M486.329,-723.986C495.677,-725.211 505.165,-726.454 513.79,-727.584"/>
<polygon fill="midnightblue" stroke="midnightblue" points="486.657,-720.5 476.288,-722.671 485.748,-727.44 486.657,-720.5"/>
</g>
<!-- Node18 -->
<g id="node18" class="node"><title>Node18</title>
<g id="a_node18"><a xlink:href="../../da/dd2/lua_8h.html#a4eba0457df5bafff4d44071d1d8080b6" target="_top" xlink:title="lua_concat">
<polygon fill="none" stroke="red" points="642.5,-684.5 642.5,-703.5 704.5,-703.5 704.5,-684.5 642.5,-684.5"/>
<text text-anchor="middle" x="673.5" y="-691.5" font-family="Helvetica,sans-Serif" font-size="10.00">lua_concat</text>
</a>
</g>
</g>
<!-- Node17&#45;&gt;Node18 -->
<g id="edge20" class="edge"><title>Node17&#45;&gt;Node18</title>
<path fill="none" stroke="midnightblue" d="M590.225,-719.418C607.228,-714.165 626.631,-708.171 642.322,-703.323"/>
<polygon fill="midnightblue" stroke="midnightblue" points="589.059,-716.115 580.538,-722.411 591.126,-722.803 589.059,-716.115"/>
</g>
<!-- Node19 -->
<g id="node19" class="node"><title>Node19</title>
<g id="a_node19"><a xlink:href="../../d2/d51/lobject_8h.html#a0d323372aa00f179e1c070d305f879f3" target="_top" xlink:title="luaO_pushvfstring">
<polygon fill="none" stroke="red" points="626.5,-760.5 626.5,-779.5 720.5,-779.5 720.5,-760.5 626.5,-760.5"/>
<text text-anchor="middle" x="673.5" y="-767.5" font-family="Helvetica,sans-Serif" font-size="10.00">luaO_pushvfstring</text>
</a>
</g>
</g>
<!-- Node17&#45;&gt;Node19 -->
<g id="edge22" class="edge"><title>Node17&#45;&gt;Node19</title>
<path fill="none" stroke="midnightblue" d="M590.545,-744.68C607.164,-749.815 626.032,-755.644 641.472,-760.414"/>
<polygon fill="midnightblue" stroke="midnightblue" points="591.126,-741.197 580.538,-741.589 589.059,-747.885 591.126,-741.197"/>
</g>
<!-- Node20 -->
<g id="node20" class="node"><title>Node20</title>
<g id="a_node20"><a xlink:href="../../d5/dcd/lvm_8h.html#a5db3e64b3cc2f63c3b10b27f7ecd1d03" target="_top" xlink:title="luaV_finishOp">
<polygon fill="none" stroke="red" points="635,-722.5 635,-741.5 712,-741.5 712,-722.5 635,-722.5"/>
<text text-anchor="middle" x="673.5" y="-729.5" font-family="Helvetica,sans-Serif" font-size="10.00">luaV_finishOp</text>
</a>
</g>
</g>
<!-- Node17&#45;&gt;Node20 -->
<g id="edge23" class="edge"><title>Node17&#45;&gt;Node20</title>
<path fill="none" stroke="midnightblue" d="M593.163,-732C606.694,-732 621.485,-732 634.592,-732"/>
<polygon fill="midnightblue" stroke="midnightblue" points="593.11,-728.5 583.11,-732 593.11,-735.5 593.11,-728.5"/>
</g>
<!-- Node21 -->
<g id="node21" class="node"><title>Node21</title>
<g id="a_node21"><a xlink:href="../../d5/dcd/lvm_8h.html#ae93565adc36c6e2157dbbd875433ede1" target="_top" xlink:title="luaV_execute">
<polygon fill="none" stroke="red" points="636.5,-532.5 636.5,-551.5 710.5,-551.5 710.5,-532.5 636.5,-532.5"/>
<text text-anchor="middle" x="673.5" y="-539.5" font-family="Helvetica,sans-Serif" font-size="10.00">luaV_execute</text>
</a>
</g>
</g>
<!-- Node17&#45;&gt;Node21 -->
<g id="edge24" class="edge"><title>Node17&#45;&gt;Node21</title>
<path fill="none" stroke="midnightblue" d="M581.148,-716.566C582.513,-715.441 583.807,-714.253 585,-713 610.773,-685.931 604.087,-670.33 621,-637 637.045,-605.38 657.469,-568.668 667.061,-551.618"/>
<polygon fill="midnightblue" stroke="midnightblue" points="579.04,-713.768 572.776,-722.313 583.002,-719.539 579.04,-713.768"/>
</g>
<!-- Node18&#45;&gt;Node11 -->
<g id="edge21" class="edge"><title>Node18&#45;&gt;Node11</title>
<path fill="none" stroke="midnightblue" d="M711.375,-707.042C716.325,-708.956 721.31,-710.97 726,-713 746.307,-721.791 768.909,-733.326 784.145,-741.372"/>
<polygon fill="midnightblue" stroke="midnightblue" points="712.576,-703.754 701.984,-703.504 710.108,-710.305 712.576,-703.754"/>
</g>
<!-- Node22 -->
<g id="node22" class="node"><title>Node22</title>
<g id="a_node22"><a xlink:href="../../d2/dd9/ldo_8h.html#a7bb0b106d4012134156e0fa240f51228" target="_top" xlink:title="luaD_call">
<polygon fill="none" stroke="red" points="775,-532.5 775,-551.5 831,-551.5 831,-532.5 775,-532.5"/>
<text text-anchor="middle" x="803" y="-539.5" font-family="Helvetica,sans-Serif" font-size="10.00">luaD_call</text>
</a>
</g>
</g>
<!-- Node21&#45;&gt;Node22 -->
<g id="edge25" class="edge"><title>Node21&#45;&gt;Node22</title>
<path fill="none" stroke="midnightblue" d="M720.769,-535.481C738.844,-534.992 758.951,-535.279 774.638,-536.342"/>
<polygon fill="midnightblue" stroke="midnightblue" points="720.562,-531.986 710.695,-535.845 720.815,-538.981 720.562,-531.986"/>
</g>
<!-- Node23 -->
<g id="node23" class="node"><title>Node23</title>
<g id="a_node23"><a xlink:href="../../d3/d08/ldo_8c.html#abd7632c715de5db6e7797b7fa3f7010f" target="_top" xlink:title="resume">
<polygon fill="none" stroke="red" points="779.5,-475.5 779.5,-494.5 826.5,-494.5 826.5,-475.5 779.5,-475.5"/>
<text text-anchor="middle" x="803" y="-482.5" font-family="Helvetica,sans-Serif" font-size="10.00">resume</text>
</a>
</g>
</g>
<!-- Node21&#45;&gt;Node23 -->
<g id="edge27" class="edge"><title>Node21&#45;&gt;Node23</title>
<path fill="none" stroke="midnightblue" d="M705.273,-528.243C728.569,-517.828 759.972,-503.789 780.59,-494.572"/>
<polygon fill="midnightblue" stroke="midnightblue" points="703.541,-525.183 695.841,-532.459 706.398,-531.573 703.541,-525.183"/>
</g>
<!-- Node22&#45;&gt;Node21 -->
<g id="edge26" class="edge"><title>Node22&#45;&gt;Node21</title>
<path fill="none" stroke="midnightblue" d="M764.507,-548.213C747.522,-548.948 727.523,-548.929 710.695,-548.155"/>
<polygon fill="midnightblue" stroke="midnightblue" points="764.845,-551.7 774.638,-547.658 764.462,-544.71 764.845,-551.7"/>
</g>
<!-- Node25 -->
<g id="node25" class="node"><title>Node25</title>
<g id="a_node25"><a xlink:href="../../d5/dcd/lvm_8h.html#a275e261afaec876cd16944b95c955642" target="_top" xlink:title="luaV_arith">
<polygon fill="none" stroke="black" points="519,-684.5 519,-703.5 578,-703.5 578,-684.5 519,-684.5"/>
<text text-anchor="middle" x="548.5" y="-691.5" font-family="Helvetica,sans-Serif" font-size="10.00">luaV_arith</text>
</a>
</g>
</g>
<!-- Node24&#45;&gt;Node25 -->
<g id="edge29" class="edge"><title>Node24&#45;&gt;Node25</title>
<path fill="none" stroke="midnightblue" d="M480.561,-677.046C493.549,-680.336 507.222,-683.799 518.801,-686.731"/>
<polygon fill="midnightblue" stroke="midnightblue" points="481.362,-673.638 470.809,-674.576 479.643,-680.424 481.362,-673.638"/>
</g>
<!-- Node25&#45;&gt;Node21 -->
<g id="edge31" class="edge"><title>Node25&#45;&gt;Node21</title>
<path fill="none" stroke="midnightblue" d="M580.293,-678.837C581.946,-677.624 583.529,-676.344 585,-675 626.632,-636.975 657.476,-575.096 668.289,-551.527"/>
<polygon fill="midnightblue" stroke="midnightblue" points="578.205,-676.017 571.653,-684.343 581.967,-681.92 578.205,-676.017"/>
</g>
<!-- Node26 -->
<g id="node26" class="node"><title>Node26</title>
<g id="a_node26"><a xlink:href="../../da/dd2/lua_8h.html#ab0a8e0d4a119fa51c2785e25d5b5aa08" target="_top" xlink:title="lua_arith">
<polygon fill="none" stroke="black" points="647.5,-646.5 647.5,-665.5 699.5,-665.5 699.5,-646.5 647.5,-646.5"/>
<text text-anchor="middle" x="673.5" y="-653.5" font-family="Helvetica,sans-Serif" font-size="10.00">lua_arith</text>
</a>
</g>
</g>
<!-- Node25&#45;&gt;Node26 -->
<g id="edge30" class="edge"><title>Node25&#45;&gt;Node26</title>
<path fill="none" stroke="midnightblue" d="M587.813,-682.163C607.254,-676.157 630.316,-669.032 647.461,-663.736"/>
<polygon fill="midnightblue" stroke="midnightblue" points="586.549,-678.891 578.028,-685.187 588.615,-685.579 586.549,-678.891"/>
</g>
<!-- Node28 -->
<g id="node28" class="node"><title>Node28</title>
<g id="a_node28"><a xlink:href="../../d2/dd9/ldo_8h.html#af2326bf8464de1e4ce3c5f7aef2ed5d4" target="_top" xlink:title="luaD_precall">
<polygon fill="none" stroke="black" points="514,-400.5 514,-419.5 583,-419.5 583,-400.5 514,-400.5"/>
<text text-anchor="middle" x="548.5" y="-407.5" font-family="Helvetica,sans-Serif" font-size="10.00">luaD_precall</text>
</a>
</g>
</g>
<!-- Node27&#45;&gt;Node28 -->
<g id="edge33" class="edge"><title>Node27&#45;&gt;Node28</title>
<path fill="none" stroke="midnightblue" d="M465.465,-443.674C484.101,-436.024 507.079,-426.592 523.971,-419.658"/>
<polygon fill="midnightblue" stroke="midnightblue" points="464.093,-440.454 456.171,-447.489 466.751,-446.929 464.093,-440.454"/>
</g>
<!-- Node28&#45;&gt;Node21 -->
<g id="edge37" class="edge"><title>Node28&#45;&gt;Node21</title>
<path fill="none" stroke="midnightblue" d="M565.567,-427.39C571.97,-434.719 579.183,-443.508 585,-452 603.881,-479.567 596.638,-495.132 621,-518 627.473,-524.076 635.76,-528.846 643.785,-532.477"/>
<polygon fill="midnightblue" stroke="midnightblue" points="567.835,-424.676 558.556,-419.562 562.621,-429.346 567.835,-424.676"/>
</g>
<!-- Node28&#45;&gt;Node22 -->
<g id="edge35" class="edge"><title>Node28&#45;&gt;Node22</title>
<path fill="none" stroke="midnightblue" d="M564.937,-427.346C578.515,-441.734 599.43,-461.889 621,-475 671.394,-505.632 738.047,-525.813 774.784,-535.435"/>
<polygon fill="midnightblue" stroke="midnightblue" points="567.189,-424.624 557.841,-419.638 562.039,-429.365 567.189,-424.624"/>
</g>
<!-- Node28&#45;&gt;Node23 -->
<g id="edge36" class="edge"><title>Node28&#45;&gt;Node23</title>
<path fill="none" stroke="midnightblue" d="M573.537,-424.521C587.075,-432.16 604.526,-441.131 621,-447 676.2,-466.665 744.683,-477.604 779.458,-482.265"/>
<polygon fill="midnightblue" stroke="midnightblue" points="575.26,-421.475 564.851,-419.501 571.757,-427.535 575.26,-421.475"/>
</g>
<!-- Node28&#45;&gt;Node28 -->
<g id="edge34" class="edge"><title>Node28&#45;&gt;Node28</title>
<path fill="none" stroke="midnightblue" d="M527.02,-429.4C528.454,-434.315 535.614,-438 548.5,-438 569.117,-438 575.077,-428.565 566.379,-419.757"/>
<polygon fill="midnightblue" stroke="midnightblue" points="530.401,-430.35 530.621,-419.757 523.843,-427.9 530.401,-430.35"/>
</g>
<!-- Node29&#45;&gt;Node21 -->
<g id="edge55" class="edge"><title>Node29&#45;&gt;Node21</title>
<path fill="none" stroke="midnightblue" d="M436.525,-276.609C444.148,-313.978 465.378,-396.19 512,-447 536.729,-473.951 554.044,-465.517 585,-485 601.927,-495.653 604.331,-500.948 621,-512 632.039,-519.319 644.914,-526.819 655.029,-532.489"/>
<polygon fill="midnightblue" stroke="midnightblue" points="439.913,-275.692 434.584,-266.535 433.04,-277.017 439.913,-275.692"/>
</g>
<!-- Node30 -->
<g id="node30" class="node"><title>Node30</title>
<g id="a_node30"><a xlink:href="../../da/dd2/lua_8h.html#a2b4a9010af0545ae0f822d7f081370d0" target="_top" xlink:title="lua_getglobal">
<polygon fill="none" stroke="black" points="512,-29.5 512,-48.5 585,-48.5 585,-29.5 512,-29.5"/>
<text text-anchor="middle" x="548.5" y="-36.5" font-family="Helvetica,sans-Serif" font-size="10.00">lua_getglobal</text>
</a>
</g>
</g>
<!-- Node29&#45;&gt;Node30 -->
<g id="edge39" class="edge"><title>Node29&#45;&gt;Node30</title>
<path fill="none" stroke="midnightblue" d="M442.527,-238.464C457.288,-209.79 486.631,-152.977 512,-105 522.582,-84.987 535.179,-61.6888 542.164,-48.8167"/>
<polygon fill="midnightblue" stroke="midnightblue" points="439.406,-236.879 437.944,-247.372 445.631,-240.081 439.406,-236.879"/>
</g>
<!-- Node32 -->
<g id="node32" class="node"><title>Node32</title>
<g id="a_node32"><a xlink:href="../../da/dd2/lua_8h.html#a8d82fa181a3003e9a304040c0bbed9ac" target="_top" xlink:title="lua_gettable">
<polygon fill="none" stroke="black" points="514.5,-114.5 514.5,-133.5 582.5,-133.5 582.5,-114.5 514.5,-114.5"/>
<text text-anchor="middle" x="548.5" y="-121.5" font-family="Helvetica,sans-Serif" font-size="10.00">lua_gettable</text>
</a>
</g>
</g>
<!-- Node29&#45;&gt;Node32 -->
<g id="edge41" class="edge"><title>Node29&#45;&gt;Node32</title>
<path fill="none" stroke="midnightblue" d="M448,-239.577C472.363,-211.277 519.749,-156.235 539.031,-133.837"/>
<polygon fill="midnightblue" stroke="midnightblue" points="445.106,-237.573 441.235,-247.435 450.411,-242.14 445.106,-237.573"/>
</g>
<!-- Node34 -->
<g id="node34" class="node"><title>Node34</title>
<g id="a_node34"><a xlink:href="../../da/dd2/lua_8h.html#ac3112bb28ba217adc46f13da8e9e6585" target="_top" xlink:title="lua_getfield">
<polygon fill="none" stroke="red" points="517,-247.5 517,-266.5 580,-266.5 580,-247.5 517,-247.5"/>
<text text-anchor="middle" x="548.5" y="-254.5" font-family="Helvetica,sans-Serif" font-size="10.00">lua_getfield</text>
</a>
</g>
</g>
<!-- Node29&#45;&gt;Node34 -->
<g id="edge43" class="edge"><title>Node29&#45;&gt;Node34</title>
<path fill="none" stroke="midnightblue" d="M479.776,-257C492.214,-257 505.334,-257 516.68,-257"/>
<polygon fill="midnightblue" stroke="midnightblue" points="479.543,-253.5 469.543,-257 479.543,-260.5 479.543,-253.5"/>
</g>
<!-- Node31 -->
<g id="node31" class="node"><title>Node31</title>
<g id="a_node31"><a xlink:href="../../d8/dd3/lbaselib_8c.html#a865eb761a305c588d6940da5272375b7" target="_top" xlink:title="luaB_print">
<polygon fill="none" stroke="black" points="644,-0.5 644,-19.5 703,-19.5 703,-0.5 644,-0.5"/>
<text text-anchor="middle" x="673.5" y="-7.5" font-family="Helvetica,sans-Serif" font-size="10.00">luaB_print</text>
</a>
</g>
</g>
<!-- Node30&#45;&gt;Node31 -->
<g id="edge40" class="edge"><title>Node30&#45;&gt;Node31</title>
<path fill="none" stroke="midnightblue" d="M594.96,-28.2819C611.239,-24.4437 629.13,-20.2255 643.621,-16.8089"/>
<polygon fill="midnightblue" stroke="midnightblue" points="594.007,-24.9105 585.077,-30.612 595.613,-31.7237 594.007,-24.9105"/>
</g>
<!-- Node33 -->
<g id="node33" class="node"><title>Node33</title>
<g id="a_node33"><a xlink:href="../../dc/d77/lstrlib_8c.html#ad24cfa73e5ad25ec99a1b48f0916471e" target="_top" xlink:title="add_value">
<polygon fill="none" stroke="red" points="642.5,-38.5 642.5,-57.5 704.5,-57.5 704.5,-38.5 642.5,-38.5"/>
<text text-anchor="middle" x="673.5" y="-45.5" font-family="Helvetica,sans-Serif" font-size="10.00">add_value</text>
</a>
</g>
</g>
<!-- Node32&#45;&gt;Node33 -->
<g id="edge42" class="edge"><title>Node32&#45;&gt;Node33</title>
<path fill="none" stroke="midnightblue" d="M567.119,-107.285C580.925,-94.878 601.072,-78.2315 621,-67 627.642,-63.2566 635.162,-59.9974 642.362,-57.2852"/>
<polygon fill="midnightblue" stroke="midnightblue" points="564.397,-105.033 559.401,-114.376 569.133,-110.188 564.397,-105.033"/>
</g>
<!-- Node35 -->
<g id="node35" class="node"><title>Node35</title>
<g id="a_node35"><a xlink:href="../../d1/dc2/_kensho_lua_wrapper_8m.html#ad10bf0ff4feac9642e7477e282be41fe" target="_top" xlink:title="lookupKey">
<polygon fill="none" stroke="red" points="642.5,-304.5 642.5,-323.5 704.5,-323.5 704.5,-304.5 642.5,-304.5"/>
<text text-anchor="middle" x="673.5" y="-311.5" font-family="Helvetica,sans-Serif" font-size="10.00">lookupKey</text>
</a>
</g>
</g>
<!-- Node34&#45;&gt;Node35 -->
<g id="edge44" class="edge"><title>Node34&#45;&gt;Node35</title>
<path fill="none" stroke="midnightblue" d="M574.668,-271.448C588.184,-278.932 605.259,-287.952 621,-295 628.48,-298.349 636.747,-301.592 644.427,-304.423"/>
<polygon fill="midnightblue" stroke="midnightblue" points="576.375,-268.393 565.94,-266.556 572.952,-274.499 576.375,-268.393"/>
</g>
<!-- Node36 -->
<g id="node36" class="node"><title>Node36</title>
<g id="a_node36"><a xlink:href="../../d1/dc2/_kensho_lua_wrapper_8m.html#a659a5a25271d0c7e4f5478f828a93b41" target="_top" xlink:title="popValue">
<polygon fill="none" stroke="black" points="644,-266.5 644,-285.5 703,-285.5 703,-266.5 644,-266.5"/>
<text text-anchor="middle" x="673.5" y="-273.5" font-family="Helvetica,sans-Serif" font-size="10.00">popValue</text>
</a>
</g>
</g>
<!-- Node34&#45;&gt;Node36 -->
<g id="edge45" class="edge"><title>Node34&#45;&gt;Node36</title>
<path fill="none" stroke="midnightblue" d="M590.215,-263.289C607.779,-266.002 627.905,-269.111 643.857,-271.575"/>
<polygon fill="midnightblue" stroke="midnightblue" points="590.638,-259.813 580.221,-261.745 589.569,-266.731 590.638,-259.813"/>
</g>
<!-- Node37 -->
<g id="node37" class="node"><title>Node37</title>
<g id="a_node37"><a xlink:href="../../d1/dc2/_kensho_lua_wrapper_8m.html#a05954c02378e1c67ec00d4d5fc118d07" target="_top" xlink:title="This is executed when the LUA subsystem attempts to assign data to a new index. ">
<polygon fill="none" stroke="red" points="762,-247.5 762,-266.5 844,-266.5 844,-247.5 762,-247.5"/>
<text text-anchor="middle" x="803" y="-254.5" font-family="Helvetica,sans-Serif" font-size="10.00">lookupNewKey</text>
</a>
</g>
</g>
<!-- Node34&#45;&gt;Node37 -->
<g id="edge47" class="edge"><title>Node34&#45;&gt;Node37</title>
<path fill="none" stroke="midnightblue" d="M590.397,-257C637.687,-257 715.026,-257 761.953,-257"/>
<polygon fill="midnightblue" stroke="midnightblue" points="590.209,-253.5 580.209,-257 590.209,-260.5 590.209,-253.5"/>
</g>
<!-- Node38 -->
<g id="node38" class="node"><title>Node38</title>
<g id="a_node38"><a xlink:href="../../da/d29/lauxlib_8h.html#a2605da7ef3a12d7e9cfa85939245f941" target="_top" xlink:title="luaL_getsubtable">
<polygon fill="none" stroke="red" points="628.5,-342.5 628.5,-361.5 718.5,-361.5 718.5,-342.5 628.5,-342.5"/>
<text text-anchor="middle" x="673.5" y="-349.5" font-family="Helvetica,sans-Serif" font-size="10.00">luaL_getsubtable</text>
</a>
</g>
</g>
<!-- Node34&#45;&gt;Node38 -->
<g id="edge48" class="edge"><title>Node34&#45;&gt;Node38</title>
<path fill="none" stroke="midnightblue" d="M562.112,-274.54C575.15,-291.557 596.944,-317.078 621,-333 626.642,-336.734 633.116,-339.859 639.527,-342.425"/>
<polygon fill="midnightblue" stroke="midnightblue" points="564.909,-272.437 556.126,-266.512 559.298,-276.621 564.909,-272.437"/>
</g>
<!-- Node39 -->
<g id="node39" class="node"><title>Node39</title>
<g id="a_node39"><a xlink:href="../../de/df3/liolib_8c.html#a1c6f8e04184b0f7939e45e24d2d7ef8a" target="_top" xlink:title="io_close">
<polygon fill="none" stroke="black" points="648.5,-190.5 648.5,-209.5 698.5,-209.5 698.5,-190.5 648.5,-190.5"/>
<text text-anchor="middle" x="673.5" y="-197.5" font-family="Helvetica,sans-Serif" font-size="10.00">io_close</text>
</a>
</g>
</g>
<!-- Node34&#45;&gt;Node39 -->
<g id="edge49" class="edge"><title>Node34&#45;&gt;Node39</title>
<path fill="none" stroke="midnightblue" d="M579.187,-243.243C601.66,-232.828 631.955,-218.789 651.845,-209.572"/>
<polygon fill="midnightblue" stroke="midnightblue" points="577.689,-240.079 570.087,-247.459 580.632,-246.43 577.689,-240.079"/>
</g>
<!-- Node40 -->
<g id="node40" class="node"><title>Node40</title>
<g id="a_node40"><a xlink:href="../../de/df3/liolib_8c.html#a3bccbdacdc9f21f22a603525be1f3699" target="_top" xlink:title="getiofile">
<polygon fill="none" stroke="red" points="650,-152.5 650,-171.5 697,-171.5 697,-152.5 650,-152.5"/>
<text text-anchor="middle" x="673.5" y="-159.5" font-family="Helvetica,sans-Serif" font-size="10.00">getiofile</text>
</a>
</g>
</g>
<!-- Node34&#45;&gt;Node40 -->
<g id="edge50" class="edge"><title>Node34&#45;&gt;Node40</title>
<path fill="none" stroke="midnightblue" d="M562.112,-239.46C575.15,-222.443 596.944,-196.922 621,-181 629.742,-175.214 640.48,-170.893 649.884,-167.845"/>
<polygon fill="midnightblue" stroke="midnightblue" points="559.298,-237.379 556.126,-247.488 564.909,-241.563 559.298,-237.379"/>
</g>
<!-- Node41 -->
<g id="node41" class="node"><title>Node41</title>
<g id="a_node41"><a xlink:href="../../de/df3/liolib_8c.html#aae942558ff528b4e1a483297c64e6886" target="_top" xlink:title="g_iofile">
<polygon fill="none" stroke="red" points="651.5,-418.5 651.5,-437.5 695.5,-437.5 695.5,-418.5 651.5,-418.5"/>
<text text-anchor="middle" x="673.5" y="-425.5" font-family="Helvetica,sans-Serif" font-size="10.00">g_iofile</text>
</a>
</g>
</g>
<!-- Node34&#45;&gt;Node41 -->
<g id="edge51" class="edge"><title>Node34&#45;&gt;Node41</title>
<path fill="none" stroke="midnightblue" d="M556.41,-276.14C569.884,-312.557 600.169,-389.892 621,-409 629.428,-416.73 641.27,-421.388 651.475,-424.156"/>
<polygon fill="midnightblue" stroke="midnightblue" points="559.66,-274.836 552.937,-266.648 553.086,-277.242 559.66,-274.836"/>
</g>
<!-- Node42 -->
<g id="node42" class="node"><title>Node42</title>
<g id="a_node42"><a xlink:href="../../de/df3/liolib_8c.html#ab08031b51605d4ef676ec33a3b96a286" target="_top" xlink:title="io_lines">
<polygon fill="none" stroke="black" points="650,-114.5 650,-133.5 697,-133.5 697,-114.5 650,-114.5"/>
<text text-anchor="middle" x="673.5" y="-121.5" font-family="Helvetica,sans-Serif" font-size="10.00">io_lines</text>
</a>
</g>
</g>
<!-- Node34&#45;&gt;Node42 -->
<g id="edge52" class="edge"><title>Node34&#45;&gt;Node42</title>
<path fill="none" stroke="midnightblue" d="M556.912,-237.724C567.504,-212.581 589.262,-168.772 621,-143 629.286,-136.272 640.179,-131.794 649.812,-128.885"/>
<polygon fill="midnightblue" stroke="midnightblue" points="553.565,-236.667 553.06,-247.25 560.054,-239.291 553.565,-236.667"/>
</g>
<!-- Node43 -->
<g id="node43" class="node"><title>Node43</title>
<g id="a_node43"><a xlink:href="../../d2/d82/loadlib_8c.html#add0b38b20a4d136cd96f9398f35e9b58" target="_top" xlink:title="ll_checkclib">
<polygon fill="none" stroke="red" points="642.5,-76.5 642.5,-95.5 704.5,-95.5 704.5,-76.5 642.5,-76.5"/>
<text text-anchor="middle" x="673.5" y="-83.5" font-family="Helvetica,sans-Serif" font-size="10.00">ll_checkclib</text>
</a>
</g>
</g>
<!-- Node34&#45;&gt;Node43 -->
<g id="edge53" class="edge"><title>Node34&#45;&gt;Node43</title>
<path fill="none" stroke="midnightblue" d="M553.64,-237.378C561.382,-205.334 581.014,-141.678 621,-105 626.97,-99.5243 634.653,-95.5902 642.253,-92.7775"/>
<polygon fill="midnightblue" stroke="midnightblue" points="550.189,-236.77 551.384,-247.297 557.015,-238.323 550.189,-236.77"/>
</g>
<!-- Node44 -->
<g id="node44" class="node"><title>Node44</title>
<g id="a_node44"><a xlink:href="../../d2/d82/loadlib_8c.html#a7a6ec2174d2de185431876163cd2d469" target="_top" xlink:title="ll_addtoclib">
<polygon fill="none" stroke="red" points="642.5,-380.5 642.5,-399.5 704.5,-399.5 704.5,-380.5 642.5,-380.5"/>
<text text-anchor="middle" x="673.5" y="-387.5" font-family="Helvetica,sans-Serif" font-size="10.00">ll_addtoclib</text>
</a>
</g>
</g>
<!-- Node34&#45;&gt;Node44 -->
<g id="edge54" class="edge"><title>Node34&#45;&gt;Node44</title>
<path fill="none" stroke="midnightblue" d="M556.912,-276.276C567.504,-301.419 589.262,-345.228 621,-371 627.214,-376.046 634.895,-379.827 642.411,-382.628"/>
<polygon fill="midnightblue" stroke="midnightblue" points="560.054,-274.709 553.06,-266.75 553.565,-277.333 560.054,-274.709"/>
</g>
<!-- Node36&#45;&gt;Node37 -->
<g id="edge46" class="edge"><title>Node36&#45;&gt;Node37</title>
<path fill="none" stroke="midnightblue" d="M713.336,-270.213C728.711,-267.921 746.381,-265.288 761.88,-262.979"/>
<polygon fill="midnightblue" stroke="midnightblue" points="712.488,-266.8 703.113,-271.736 713.52,-273.724 712.488,-266.8"/>
</g>
<!-- Node45&#45;&gt;Node21 -->
<g id="edge63" class="edge"><title>Node45&#45;&gt;Node21</title>
<path fill="none" stroke="midnightblue" d="M479.612,-587.906C525.431,-577.002 594.402,-560.587 636.261,-550.625"/>
<polygon fill="midnightblue" stroke="midnightblue" points="478.554,-584.561 469.636,-590.281 480.174,-591.37 478.554,-584.561"/>
</g>
<!-- Node46 -->
<g id="node46" class="node"><title>Node46</title>
<g id="a_node46"><a xlink:href="../../da/dd2/lua_8h.html#ac0ebe7d753b81f6249dde8cf0b8ea997" target="_top" xlink:title="lua_setglobal">
<polygon fill="none" stroke="red" points="512,-646.5 512,-665.5 585,-665.5 585,-646.5 512,-646.5"/>
<text text-anchor="middle" x="548.5" y="-653.5" font-family="Helvetica,sans-Serif" font-size="10.00">lua_setglobal</text>
</a>
</g>
</g>
<!-- Node45&#45;&gt;Node46 -->
<g id="edge57" class="edge"><title>Node45&#45;&gt;Node46</title>
<path fill="none" stroke="midnightblue" d="M461.198,-613.037C482.059,-623.422 509.922,-637.293 528.273,-646.428"/>
<polygon fill="midnightblue" stroke="midnightblue" points="462.677,-609.864 452.165,-608.541 459.557,-616.13 462.677,-609.864"/>
</g>
<!-- Node47 -->
<g id="node47" class="node"><title>Node47</title>
<g id="a_node47"><a xlink:href="../../da/dd2/lua_8h.html#aeda173d104e3a566ccaac89a1f64a5eb" target="_top" xlink:title="lua_settable">
<polygon fill="none" stroke="red" points="514.5,-608.5 514.5,-627.5 582.5,-627.5 582.5,-608.5 514.5,-608.5"/>
<text text-anchor="middle" x="548.5" y="-615.5" font-family="Helvetica,sans-Serif" font-size="10.00">lua_settable</text>
</a>
</g>
</g>
<!-- Node45&#45;&gt;Node47 -->
<g id="edge58" class="edge"><title>Node45&#45;&gt;Node47</title>
<path fill="none" stroke="midnightblue" d="M479.59,-606.731C491.259,-608.667 503.542,-610.706 514.403,-612.508"/>
<polygon fill="midnightblue" stroke="midnightblue" points="479.981,-603.248 469.543,-605.064 478.835,-610.154 479.981,-603.248"/>
</g>
<!-- Node48 -->
<g id="node48" class="node"><title>Node48</title>
<g id="a_node48"><a xlink:href="../../da/dd2/lua_8h.html#a9580a15c141cbe4bf2a63fea625c3878" target="_top" xlink:title="lua_setfield">
<polygon fill="none" stroke="red" points="517,-362.5 517,-381.5 580,-381.5 580,-362.5 517,-362.5"/>
<text text-anchor="middle" x="548.5" y="-369.5" font-family="Helvetica,sans-Serif" font-size="10.00">lua_setfield</text>
</a>
</g>
</g>
<!-- Node45&#45;&gt;Node48 -->
<g id="edge59" class="edge"><title>Node45&#45;&gt;Node48</title>
<path fill="none" stroke="midnightblue" d="M456.357,-583.034C463.666,-576.941 471.095,-569.413 476,-561 514.901,-494.281 465.629,-452.76 512,-391 514.854,-387.199 518.697,-384.076 522.801,-381.54"/>
<polygon fill="midnightblue" stroke="midnightblue" points="453.765,-580.613 447.988,-589.495 458.043,-586.154 453.765,-580.613"/>
</g>
<!-- Node48&#45;&gt;Node38 -->
<g id="edge60" class="edge"><title>Node48&#45;&gt;Node38</title>
<path fill="none" stroke="midnightblue" d="M590.139,-365.392C602.355,-363.406 615.817,-361.217 628.254,-359.194"/>
<polygon fill="midnightblue" stroke="midnightblue" points="589.529,-361.945 580.221,-367.005 590.653,-368.854 589.529,-361.945"/>
</g>
<!-- Node48&#45;&gt;Node41 -->
<g id="edge61" class="edge"><title>Node48&#45;&gt;Node41</title>
<path fill="none" stroke="midnightblue" d="M576.686,-386.512C593.076,-395.173 612.395,-405.204 621,-409 630.766,-413.308 641.844,-417.484 651.217,-420.818"/>
<polygon fill="midnightblue" stroke="midnightblue" points="577.953,-383.221 567.478,-381.628 574.673,-389.406 577.953,-383.221"/>
</g>
<!-- Node48&#45;&gt;Node44 -->
<g id="edge62" class="edge"><title>Node48&#45;&gt;Node44</title>
<path fill="none" stroke="midnightblue" d="M590.391,-377.984C607.299,-380.458 626.557,-383.277 642.171,-385.562"/>
<polygon fill="midnightblue" stroke="midnightblue" points="590.622,-374.481 580.221,-376.496 589.609,-381.407 590.622,-374.481"/>
</g>
<!-- Node49&#45;&gt;Node21 -->
<g id="edge66" class="edge"><title>Node49&#45;&gt;Node21</title>
<path fill="none" stroke="midnightblue" d="M475.986,-542C521.695,-542 593.199,-542 636.186,-542"/>
<polygon fill="midnightblue" stroke="midnightblue" points="475.799,-538.5 465.799,-542 475.799,-545.5 475.799,-538.5"/>
</g>
<!-- Node50 -->
<g id="node50" class="node"><title>Node50</title>
<g id="a_node50"><a xlink:href="../../da/dd2/lua_8h.html#ac7ade66f92b5e325c42371926f879818" target="_top" xlink:title="lua_len">
<polygon fill="none" stroke="red" points="525,-494.5 525,-513.5 572,-513.5 572,-494.5 525,-494.5"/>
<text text-anchor="middle" x="548.5" y="-501.5" font-family="Helvetica,sans-Serif" font-size="10.00">lua_len</text>
</a>
</g>
</g>
<!-- Node49&#45;&gt;Node50 -->
<g id="edge65" class="edge"><title>Node49&#45;&gt;Node50</title>
<path fill="none" stroke="midnightblue" d="M471.402,-529.255C489.11,-523.378 509.526,-516.603 524.75,-511.55"/>
<polygon fill="midnightblue" stroke="midnightblue" points="470.282,-525.939 461.893,-532.411 472.487,-532.583 470.282,-525.939"/>
</g>
</g>
</svg>
