<?xml version="1.0" encoding="UTF-8" standalone="no"?>
<!DOCTYPE svg PUBLIC "-//W3C//DTD SVG 1.1//EN"
 "http://www.w3.org/Graphics/SVG/1.1/DTD/svg11.dtd">
<!-- Generated by graphviz version 2.38.0 (20140413.2041)
 -->
<!-- Title: funcinfo Pages: 1 -->
<svg width="889pt" height="940pt"
 viewBox="0.00 0.00 889.00 940.00" xmlns="http://www.w3.org/2000/svg" xmlns:xlink="http://www.w3.org/1999/xlink">
<g id="graph0" class="graph" transform="scale(1 1) rotate(0) translate(4 936)">
<title>funcinfo</title>
<!-- Node1 -->
<g id="node1" class="node"><title>Node1</title>
<polygon fill="#bfbfbf" stroke="black" points="0,-190.5 0,-209.5 48,-209.5 48,-190.5 0,-190.5"/>
<text text-anchor="middle" x="24" y="-197.5" font-family="Helvetica,sans-Serif" font-size="10.00">funcinfo</text>
</g>
<!-- Node2 -->
<g id="node2" class="node"><title>Node2</title>
<g id="a_node2"><a xlink:href="../../d6/ddf/ldebug_8c.html#ad72fa774194e83872bac4e5bf6ec1160" target="_top" xlink:title="auxgetinfo">
<polygon fill="none" stroke="black" points="84,-190.5 84,-209.5 144,-209.5 144,-190.5 84,-190.5"/>
<text text-anchor="middle" x="114" y="-197.5" font-family="Helvetica,sans-Serif" font-size="10.00">auxgetinfo</text>
</a>
</g>
</g>
<!-- Node1&#45;&gt;Node2 -->
<g id="edge1" class="edge"><title>Node1&#45;&gt;Node2</title>
<path fill="none" stroke="midnightblue" d="M58.3164,-200C66.6743,-200 75.5795,-200 83.724,-200"/>
<polygon fill="midnightblue" stroke="midnightblue" points="58.121,-196.5 48.121,-200 58.1209,-203.5 58.121,-196.5"/>
</g>
<!-- Node3 -->
<g id="node3" class="node"><title>Node3</title>
<g id="a_node3"><a xlink:href="../../da/dd2/lua_8h.html#a9cf23593facaabc7fb42e4d232a507d7" target="_top" xlink:title="lua_getinfo">
<polygon fill="none" stroke="black" points="180,-190.5 180,-209.5 242,-209.5 242,-190.5 180,-190.5"/>
<text text-anchor="middle" x="211" y="-197.5" font-family="Helvetica,sans-Serif" font-size="10.00">lua_getinfo</text>
</a>
</g>
</g>
<!-- Node2&#45;&gt;Node3 -->
<g id="edge2" class="edge"><title>Node2&#45;&gt;Node3</title>
<path fill="none" stroke="midnightblue" d="M154.202,-200C162.764,-200 171.698,-200 179.844,-200"/>
<polygon fill="midnightblue" stroke="midnightblue" points="154.019,-196.5 144.019,-200 154.019,-203.5 154.019,-196.5"/>
</g>
<!-- Node4 -->
<g id="node4" class="node"><title>Node4</title>
<g id="a_node4"><a xlink:href="../../d0/d56/lauxlib_8c.html#a4f35430f7ecfcbd5f507e550937046b4" target="_top" xlink:title="pushglobalfuncname">
<polygon fill="none" stroke="black" points="278,-228.5 278,-247.5 383,-247.5 383,-228.5 278,-228.5"/>
<text text-anchor="middle" x="330.5" y="-235.5" font-family="Helvetica,sans-Serif" font-size="10.00">pushglobalfuncname</text>
</a>
</g>
</g>
<!-- Node3&#45;&gt;Node4 -->
<g id="edge3" class="edge"><title>Node3&#45;&gt;Node4</title>
<path fill="none" stroke="midnightblue" d="M251.209,-212.68C267.085,-217.815 285.11,-223.644 299.859,-228.414"/>
<polygon fill="midnightblue" stroke="midnightblue" points="252.242,-209.336 241.65,-209.589 250.088,-215.996 252.242,-209.336"/>
</g>
<!-- Node5 -->
<g id="node5" class="node"><title>Node5</title>
<g id="a_node5"><a xlink:href="../../da/d29/lauxlib_8h.html#a526c220d17273c63ce9973bcde4a2c4a" target="_top" xlink:title="luaL_argerror">
<polygon fill="none" stroke="black" points="542,-380.5 542,-399.5 613,-399.5 613,-380.5 542,-380.5"/>
<text text-anchor="middle" x="577.5" y="-387.5" font-family="Helvetica,sans-Serif" font-size="10.00">luaL_argerror</text>
</a>
</g>
</g>
<!-- Node3&#45;&gt;Node5 -->
<g id="edge41" class="edge"><title>Node3&#45;&gt;Node5</title>
<path fill="none" stroke="midnightblue" d="M216.289,-219.566C223.711,-248.716 241.764,-303.293 278,-333 355.114,-396.219 481.064,-397.159 541.71,-393.322"/>
<polygon fill="midnightblue" stroke="midnightblue" points="219.671,-218.66 213.949,-209.744 212.862,-220.282 219.671,-218.66"/>
</g>
<!-- Node8 -->
<g id="node8" class="node"><title>Node8</title>
<g id="a_node8"><a xlink:href="../../d8/d97/ldblib_8c.html#a4eb57e66c2efb2d31c9b9e1b01d27e13" target="_top" xlink:title="db_getinfo">
<polygon fill="none" stroke="black" points="668.5,-190.5 668.5,-209.5 728.5,-209.5 728.5,-190.5 668.5,-190.5"/>
<text text-anchor="middle" x="698.5" y="-197.5" font-family="Helvetica,sans-Serif" font-size="10.00">db_getinfo</text>
</a>
</g>
</g>
<!-- Node3&#45;&gt;Node8 -->
<g id="edge50" class="edge"><title>Node3&#45;&gt;Node8</title>
<path fill="none" stroke="midnightblue" d="M252.094,-200C347.303,-200 585.225,-200 668.312,-200"/>
<polygon fill="midnightblue" stroke="midnightblue" points="252.004,-196.5 242.004,-200 252.004,-203.5 252.004,-196.5"/>
</g>
<!-- Node38 -->
<g id="node38" class="node"><title>Node38</title>
<g id="a_node38"><a xlink:href="../../da/d29/lauxlib_8h.html#a664cc293d6c7a7dc67857fe95583a10e" target="_top" xlink:title="luaL_traceback">
<polygon fill="none" stroke="black" points="537,-152.5 537,-171.5 618,-171.5 618,-152.5 537,-152.5"/>
<text text-anchor="middle" x="577.5" y="-159.5" font-family="Helvetica,sans-Serif" font-size="10.00">luaL_traceback</text>
</a>
</g>
</g>
<!-- Node3&#45;&gt;Node38 -->
<g id="edge40" class="edge"><title>Node3&#45;&gt;Node38</title>
<path fill="none" stroke="midnightblue" d="M251.879,-190.678C260.459,-188.915 269.502,-187.238 278,-186 370.091,-172.588 479.337,-166.198 536.724,-163.567"/>
<polygon fill="midnightblue" stroke="midnightblue" points="251.132,-187.258 242.081,-192.766 252.591,-194.105 251.132,-187.258"/>
</g>
<!-- Node40 -->
<g id="node40" class="node"><title>Node40</title>
<g id="a_node40"><a xlink:href="../../da/d29/lauxlib_8h.html#a269122a77674ca63c9193c2a30b4729e" target="_top" xlink:title="luaL_where">
<polygon fill="none" stroke="black" points="297.5,-304.5 297.5,-323.5 363.5,-323.5 363.5,-304.5 297.5,-304.5"/>
<text text-anchor="middle" x="330.5" y="-311.5" font-family="Helvetica,sans-Serif" font-size="10.00">luaL_where</text>
</a>
</g>
</g>
<!-- Node3&#45;&gt;Node40 -->
<g id="edge42" class="edge"><title>Node3&#45;&gt;Node40</title>
<path fill="none" stroke="midnightblue" d="M229.349,-216.832C254.296,-241.036 299.497,-284.891 319.507,-304.305"/>
<polygon fill="midnightblue" stroke="midnightblue" points="231.632,-214.171 222.018,-209.72 226.758,-219.195 231.632,-214.171"/>
</g>
<!-- Node45 -->
<g id="node45" class="node"><title>Node45</title>
<g id="a_node45"><a xlink:href="../../d8/d97/ldblib_8c.html#a0951daf8c0b66e39bd3aa618aff380bf" target="_top" xlink:title="checkupval">
<polygon fill="none" stroke="black" points="298,-114.5 298,-133.5 363,-133.5 363,-114.5 298,-114.5"/>
<text text-anchor="middle" x="330.5" y="-121.5" font-family="Helvetica,sans-Serif" font-size="10.00">checkupval</text>
</a>
</g>
</g>
<!-- Node3&#45;&gt;Node45 -->
<g id="edge51" class="edge"><title>Node3&#45;&gt;Node45</title>
<path fill="none" stroke="midnightblue" d="M230.265,-183.721C243.065,-172.799 260.879,-158.537 278,-148 286.821,-142.571 297.069,-137.558 306.091,-133.533"/>
<polygon fill="midnightblue" stroke="midnightblue" points="227.893,-181.146 222.636,-190.344 232.482,-186.432 227.893,-181.146"/>
</g>
<!-- Node48 -->
<g id="node48" class="node"><title>Node48</title>
<g id="a_node48"><a xlink:href="../../d8/d97/ldblib_8c.html#a5caaa985f31fc5cbd014f831833205e7" target="_top" xlink:title="hookf">
<polygon fill="none" stroke="black" points="311,-38.5 311,-57.5 350,-57.5 350,-38.5 311,-38.5"/>
<text text-anchor="middle" x="330.5" y="-45.5" font-family="Helvetica,sans-Serif" font-size="10.00">hookf</text>
</a>
</g>
</g>
<!-- Node3&#45;&gt;Node48 -->
<g id="edge54" class="edge"><title>Node3&#45;&gt;Node48</title>
<path fill="none" stroke="midnightblue" d="M223.678,-181.749C236.382,-162.251 257.612,-130.683 278,-105 291.765,-87.6603 309.333,-68.8412 319.984,-57.7521"/>
<polygon fill="midnightblue" stroke="midnightblue" points="220.658,-179.974 218.168,-190.272 226.537,-183.774 220.658,-179.974"/>
</g>
<!-- Node4&#45;&gt;Node5 -->
<g id="edge4" class="edge"><title>Node4&#45;&gt;Node5</title>
<path fill="none" stroke="midnightblue" d="M353.089,-253.31C370.478,-265.334 395.769,-282.137 419,-295 454.141,-314.457 467.577,-310.721 501,-333 519.06,-345.039 519.642,-352.969 537,-366 543.931,-371.203 552.044,-376.287 559.108,-380.427"/>
<polygon fill="midnightblue" stroke="midnightblue" points="354.972,-250.357 344.768,-247.505 350.966,-256.097 354.972,-250.357"/>
</g>
<!-- Node37 -->
<g id="node37" class="node"><title>Node37</title>
<g id="a_node37"><a xlink:href="../../d0/d56/lauxlib_8c.html#a0aa557042467d3f84d0663c742b32946" target="_top" xlink:title="pushfuncname">
<polygon fill="none" stroke="black" points="420,-228.5 420,-247.5 500,-247.5 500,-228.5 420,-228.5"/>
<text text-anchor="middle" x="460" y="-235.5" font-family="Helvetica,sans-Serif" font-size="10.00">pushfuncname</text>
</a>
</g>
</g>
<!-- Node4&#45;&gt;Node37 -->
<g id="edge37" class="edge"><title>Node4&#45;&gt;Node37</title>
<path fill="none" stroke="midnightblue" d="M393.409,-238C402.362,-238 411.363,-238 419.705,-238"/>
<polygon fill="midnightblue" stroke="midnightblue" points="393.359,-234.5 383.359,-238 393.359,-241.5 393.359,-234.5"/>
</g>
<!-- Node6 -->
<g id="node6" class="node"><title>Node6</title>
<g id="a_node6"><a xlink:href="../../dc/dba/loslib_8c.html#aed631522193ea719b6d96782f3e26b6a" target="_top" xlink:title="checkoption">
<polygon fill="none" stroke="black" points="665.5,-836.5 665.5,-855.5 731.5,-855.5 731.5,-836.5 665.5,-836.5"/>
<text text-anchor="middle" x="698.5" y="-843.5" font-family="Helvetica,sans-Serif" font-size="10.00">checkoption</text>
</a>
</g>
</g>
<!-- Node5&#45;&gt;Node6 -->
<g id="edge5" class="edge"><title>Node5&#45;&gt;Node6</title>
<path fill="none" stroke="midnightblue" d="M615.476,-405.927C616.386,-406.894 617.233,-407.918 618,-409 659.771,-467.917 636.99,-661.81 654,-732 663.679,-771.94 683.67,-816.814 692.785,-836.207"/>
<polygon fill="midnightblue" stroke="midnightblue" points="617.477,-403.047 607.47,-399.566 613.122,-408.527 617.477,-403.047"/>
</g>
<!-- Node5&#45;&gt;Node8 -->
<g id="edge7" class="edge"><title>Node5&#45;&gt;Node8</title>
<path fill="none" stroke="midnightblue" d="M582.209,-370.656C589.801,-335.934 610.223,-262.604 654,-219 658.087,-214.929 663.192,-211.664 668.451,-209.068"/>
<polygon fill="midnightblue" stroke="midnightblue" points="578.774,-369.985 580.181,-380.486 585.629,-371.399 578.774,-369.985"/>
</g>
<!-- Node9 -->
<g id="node9" class="node"><title>Node9</title>
<g id="a_node9"><a xlink:href="../../d8/d97/ldblib_8c.html#ae802ce7397e9ebb08a90b69976578ecc" target="_top" xlink:title="db_getlocal">
<polygon fill="none" stroke="black" points="666,-703.5 666,-722.5 731,-722.5 731,-703.5 666,-703.5"/>
<text text-anchor="middle" x="698.5" y="-710.5" font-family="Helvetica,sans-Serif" font-size="10.00">db_getlocal</text>
</a>
</g>
</g>
<!-- Node5&#45;&gt;Node9 -->
<g id="edge8" class="edge"><title>Node5&#45;&gt;Node9</title>
<path fill="none" stroke="midnightblue" d="M615.452,-405.944C616.369,-406.906 617.223,-407.924 618,-409 691.428,-510.739 583.44,-585.252 654,-689 658.172,-695.134 664.449,-699.855 670.948,-703.42"/>
<polygon fill="midnightblue" stroke="midnightblue" points="617.434,-403.05 607.415,-399.605 613.099,-408.546 617.434,-403.05"/>
</g>
<!-- Node10 -->
<g id="node10" class="node"><title>Node10</title>
<g id="a_node10"><a xlink:href="../../d8/d97/ldblib_8c.html#a11cfe90e96e7ea907a767f5109f7ef4b" target="_top" xlink:title="db_setlocal">
<polygon fill="none" stroke="black" points="797.5,-874.5 797.5,-893.5 862.5,-893.5 862.5,-874.5 797.5,-874.5"/>
<text text-anchor="middle" x="830" y="-881.5" font-family="Helvetica,sans-Serif" font-size="10.00">db_setlocal</text>
</a>
</g>
</g>
<!-- Node5&#45;&gt;Node10 -->
<g id="edge9" class="edge"><title>Node5&#45;&gt;Node10</title>
<path fill="none" stroke="midnightblue" d="M615.428,-405.962C616.353,-406.919 617.214,-407.931 618,-409 683.68,-498.405 586.334,-568.088 654,-656 680.234,-690.083 715.709,-660.757 743,-694 792.28,-754.029 728.518,-805.978 779,-865 783.829,-870.646 790.522,-874.618 797.444,-877.412"/>
<polygon fill="midnightblue" stroke="midnightblue" points="617.391,-403.053 607.359,-399.646 613.077,-408.565 617.391,-403.053"/>
</g>
<!-- Node11 -->
<g id="node11" class="node"><title>Node11</title>
<g id="a_node11"><a xlink:href="../../d8/d97/ldblib_8c.html#a233c3c4d12bda0fdbf515a18b8961461" target="_top" xlink:title="db_setuservalue">
<polygon fill="none" stroke="black" points="655,-418.5 655,-437.5 742,-437.5 742,-418.5 655,-418.5"/>
<text text-anchor="middle" x="698.5" y="-425.5" font-family="Helvetica,sans-Serif" font-size="10.00">db_setuservalue</text>
</a>
</g>
</g>
<!-- Node5&#45;&gt;Node11 -->
<g id="edge10" class="edge"><title>Node5&#45;&gt;Node11</title>
<path fill="none" stroke="midnightblue" d="M618.21,-402.68C634.289,-407.815 652.543,-413.644 667.481,-418.414"/>
<polygon fill="midnightblue" stroke="midnightblue" points="619.12,-399.297 608.529,-399.589 616.99,-405.965 619.12,-399.297"/>
</g>
<!-- Node12 -->
<g id="node12" class="node"><title>Node12</title>
<g id="a_node12"><a xlink:href="../../de/df3/liolib_8c.html#addece2406777a40f0f591e3518293932" target="_top" xlink:title="g_read">
<polygon fill="none" stroke="black" points="675.5,-380.5 675.5,-399.5 721.5,-399.5 721.5,-380.5 675.5,-380.5"/>
<text text-anchor="middle" x="698.5" y="-387.5" font-family="Helvetica,sans-Serif" font-size="10.00">g_read</text>
</a>
</g>
</g>
<!-- Node5&#45;&gt;Node12 -->
<g id="edge11" class="edge"><title>Node5&#45;&gt;Node12</title>
<path fill="none" stroke="midnightblue" d="M623.415,-390C641.147,-390 660.721,-390 675.294,-390"/>
<polygon fill="midnightblue" stroke="midnightblue" points="623.24,-386.5 613.24,-390 623.24,-393.5 623.24,-386.5"/>
</g>
<!-- Node16 -->
<g id="node16" class="node"><title>Node16</title>
<g id="a_node16"><a xlink:href="../../da/d29/lauxlib_8h.html#ad78c85dce421e9cb793e205b9e81c640" target="_top" xlink:title="luaL_checkany">
<polygon fill="none" stroke="black" points="658.5,-627.5 658.5,-646.5 738.5,-646.5 738.5,-627.5 658.5,-627.5"/>
<text text-anchor="middle" x="698.5" y="-634.5" font-family="Helvetica,sans-Serif" font-size="10.00">luaL_checkany</text>
</a>
</g>
</g>
<!-- Node5&#45;&gt;Node16 -->
<g id="edge15" class="edge"><title>Node5&#45;&gt;Node16</title>
<path fill="none" stroke="midnightblue" d="M614.259,-405.37C615.594,-406.504 616.85,-407.712 618,-409 678.594,-476.849 693.585,-593.495 696.746,-627.462"/>
<polygon fill="midnightblue" stroke="midnightblue" points="616.176,-402.441 605.949,-399.672 612.217,-408.214 616.176,-402.441"/>
</g>
<!-- Node28 -->
<g id="node28" class="node"><title>Node28</title>
<g id="a_node28"><a xlink:href="../../da/d29/lauxlib_8h.html#a638633914d3a19650db8320c1fccf161" target="_top" xlink:title="luaL_checkoption">
<polygon fill="none" stroke="black" points="654,-304.5 654,-323.5 743,-323.5 743,-304.5 654,-304.5"/>
<text text-anchor="middle" x="698.5" y="-311.5" font-family="Helvetica,sans-Serif" font-size="10.00">luaL_checkoption</text>
</a>
</g>
</g>
<!-- Node5&#45;&gt;Node28 -->
<g id="edge28" class="edge"><title>Node5&#45;&gt;Node28</title>
<path fill="none" stroke="midnightblue" d="M602.076,-374.943C626.003,-359.662 662.318,-336.469 682.551,-323.547"/>
<polygon fill="midnightblue" stroke="midnightblue" points="600.115,-372.042 593.571,-380.375 603.883,-377.942 600.115,-372.042"/>
</g>
<!-- Node33 -->
<g id="node33" class="node"><title>Node33</title>
<g id="a_node33"><a xlink:href="../../dc/d77/lstrlib_8c.html#ae26a9374857058119e59d0328208c2f2" target="_top" xlink:title="str_format">
<polygon fill="none" stroke="black" points="670,-228.5 670,-247.5 727,-247.5 727,-228.5 670,-228.5"/>
<text text-anchor="middle" x="698.5" y="-235.5" font-family="Helvetica,sans-Serif" font-size="10.00">str_format</text>
</a>
</g>
</g>
<!-- Node5&#45;&gt;Node33 -->
<g id="edge33" class="edge"><title>Node5&#45;&gt;Node33</title>
<path fill="none" stroke="midnightblue" d="M584.967,-370.672C595.362,-342.266 618.311,-289.141 654,-257 658.532,-252.919 664.078,-249.61 669.674,-246.967"/>
<polygon fill="midnightblue" stroke="midnightblue" points="581.614,-369.659 581.598,-380.253 588.217,-371.981 581.614,-369.659"/>
</g>
<!-- Node34 -->
<g id="node34" class="node"><title>Node34</title>
<g id="a_node34"><a xlink:href="../../d0/d56/lauxlib_8c.html#ae1abbe81af2d487f783ed9b4e5a6c7fd" target="_top" xlink:title="typeerror">
<polygon fill="none" stroke="black" points="672,-266.5 672,-285.5 725,-285.5 725,-266.5 672,-266.5"/>
<text text-anchor="middle" x="698.5" y="-273.5" font-family="Helvetica,sans-Serif" font-size="10.00">typeerror</text>
</a>
</g>
</g>
<!-- Node5&#45;&gt;Node34 -->
<g id="edge34" class="edge"><title>Node5&#45;&gt;Node34</title>
<path fill="none" stroke="midnightblue" d="M589.13,-371.777C602.13,-350.841 625.904,-316.605 654,-295 659.357,-290.881 665.745,-287.451 671.954,-284.691"/>
<polygon fill="midnightblue" stroke="midnightblue" points="586.116,-369.998 583.939,-380.366 592.107,-373.618 586.116,-369.998"/>
</g>
<!-- Node7 -->
<g id="node7" class="node"><title>Node7</title>
<g id="a_node7"><a xlink:href="../../dc/dba/loslib_8c.html#a6520f2562b500aee87a6a475995adefb" target="_top" xlink:title="os_date">
<polygon fill="none" stroke="black" points="804.5,-912.5 804.5,-931.5 855.5,-931.5 855.5,-912.5 804.5,-912.5"/>
<text text-anchor="middle" x="830" y="-919.5" font-family="Helvetica,sans-Serif" font-size="10.00">os_date</text>
</a>
</g>
</g>
<!-- Node6&#45;&gt;Node7 -->
<g id="edge6" class="edge"><title>Node6&#45;&gt;Node7</title>
<path fill="none" stroke="midnightblue" d="M718.829,-862.041C734.377,-874.391 757.157,-891.277 779,-903 786.937,-907.26 796.037,-911.019 804.28,-914.046"/>
<polygon fill="midnightblue" stroke="midnightblue" points="720.967,-859.268 710.988,-855.708 716.569,-864.714 720.967,-859.268"/>
</g>
<!-- Node13 -->
<g id="node13" class="node"><title>Node13</title>
<g id="a_node13"><a xlink:href="../../de/df3/liolib_8c.html#a45307aa59a628966c6ea270e9b476d9a" target="_top" xlink:title="io_read">
<polygon fill="none" stroke="black" points="806.5,-380.5 806.5,-399.5 853.5,-399.5 853.5,-380.5 806.5,-380.5"/>
<text text-anchor="middle" x="830" y="-387.5" font-family="Helvetica,sans-Serif" font-size="10.00">io_read</text>
</a>
</g>
</g>
<!-- Node12&#45;&gt;Node13 -->
<g id="edge12" class="edge"><title>Node12&#45;&gt;Node13</title>
<path fill="none" stroke="midnightblue" d="M731.804,-390C754.939,-390 785.526,-390 806.159,-390"/>
<polygon fill="midnightblue" stroke="midnightblue" points="731.762,-386.5 721.762,-390 731.762,-393.5 731.762,-386.5"/>
</g>
<!-- Node14 -->
<g id="node14" class="node"><title>Node14</title>
<g id="a_node14"><a xlink:href="../../de/df3/liolib_8c.html#add5250a74576076467531e4eb8f5f68e" target="_top" xlink:title="f_read">
<polygon fill="none" stroke="black" points="808.5,-418.5 808.5,-437.5 851.5,-437.5 851.5,-418.5 808.5,-418.5"/>
<text text-anchor="middle" x="830" y="-425.5" font-family="Helvetica,sans-Serif" font-size="10.00">f_read</text>
</a>
</g>
</g>
<!-- Node12&#45;&gt;Node14 -->
<g id="edge13" class="edge"><title>Node12&#45;&gt;Node14</title>
<path fill="none" stroke="midnightblue" d="M731.487,-399.386C755.474,-406.425 787.608,-415.854 808.31,-421.929"/>
<polygon fill="midnightblue" stroke="midnightblue" points="732.343,-395.99 721.762,-396.532 730.372,-402.707 732.343,-395.99"/>
</g>
<!-- Node15 -->
<g id="node15" class="node"><title>Node15</title>
<g id="a_node15"><a xlink:href="../../de/df3/liolib_8c.html#ac37d80ee2cc364b4adafcb6f7c20f28b" target="_top" xlink:title="io_readline">
<polygon fill="none" stroke="red" points="799.5,-342.5 799.5,-361.5 860.5,-361.5 860.5,-342.5 799.5,-342.5"/>
<text text-anchor="middle" x="830" y="-349.5" font-family="Helvetica,sans-Serif" font-size="10.00">io_readline</text>
</a>
</g>
</g>
<!-- Node12&#45;&gt;Node15 -->
<g id="edge14" class="edge"><title>Node12&#45;&gt;Node15</title>
<path fill="none" stroke="midnightblue" d="M731.395,-380.641C752.132,-374.556 778.985,-366.676 799.275,-360.722"/>
<polygon fill="midnightblue" stroke="midnightblue" points="730.372,-377.293 721.762,-383.468 732.343,-384.01 730.372,-377.293"/>
</g>
<!-- Node16&#45;&gt;Node10 -->
<g id="edge17" class="edge"><title>Node16&#45;&gt;Node10</title>
<path fill="none" stroke="midnightblue" d="M734.419,-652.271C737.68,-654.802 740.641,-657.7 743,-661 796.543,-735.897 720.313,-794.061 779,-865 783.735,-870.724 790.394,-874.726 797.311,-877.523"/>
<polygon fill="midnightblue" stroke="midnightblue" points="736.156,-649.226 725.864,-646.711 732.342,-655.095 736.156,-649.226"/>
</g>
<!-- Node17 -->
<g id="node17" class="node"><title>Node17</title>
<g id="a_node17"><a xlink:href="../../d8/d97/ldblib_8c.html#aa84da9dfea83fb9e516443b49b109044" target="_top" xlink:title="db_getmetatable">
<polygon fill="none" stroke="black" points="786,-760.5 786,-779.5 874,-779.5 874,-760.5 786,-760.5"/>
<text text-anchor="middle" x="830" y="-767.5" font-family="Helvetica,sans-Serif" font-size="10.00">db_getmetatable</text>
</a>
</g>
</g>
<!-- Node16&#45;&gt;Node17 -->
<g id="edge16" class="edge"><title>Node16&#45;&gt;Node17</title>
<path fill="none" stroke="midnightblue" d="M732.428,-651.849C736.31,-654.516 739.963,-657.562 743,-661 771.523,-693.287 748.274,-720.802 779,-751 782.908,-754.84 787.67,-757.92 792.685,-760.385"/>
<polygon fill="midnightblue" stroke="midnightblue" points="734.089,-648.763 723.716,-646.607 730.48,-654.761 734.089,-648.763"/>
</g>
<!-- Node18 -->
<g id="node18" class="node"><title>Node18</title>
<g id="a_node18"><a xlink:href="../../d8/d97/ldblib_8c.html#acd61487bdd057d6c668ec0bd88728670" target="_top" xlink:title="db_setupvalue">
<polygon fill="none" stroke="black" points="790,-722.5 790,-741.5 870,-741.5 870,-722.5 790,-722.5"/>
<text text-anchor="middle" x="830" y="-729.5" font-family="Helvetica,sans-Serif" font-size="10.00">db_setupvalue</text>
</a>
</g>
</g>
<!-- Node16&#45;&gt;Node18 -->
<g id="edge18" class="edge"><title>Node16&#45;&gt;Node18</title>
<path fill="none" stroke="midnightblue" d="M730.609,-651.817C734.997,-654.561 739.276,-657.636 743,-661 763.858,-679.844 756.867,-695.673 779,-713 783.899,-716.835 789.659,-719.964 795.493,-722.494"/>
<polygon fill="midnightblue" stroke="midnightblue" points="732.008,-648.586 721.589,-646.666 728.537,-654.665 732.008,-648.586"/>
</g>
<!-- Node19 -->
<g id="node19" class="node"><title>Node19</title>
<g id="a_node19"><a xlink:href="../../de/df3/liolib_8c.html#a2bd80ae170dce6c29d385b71398fd7c2" target="_top" xlink:title="io_type">
<polygon fill="none" stroke="black" points="806.5,-684.5 806.5,-703.5 853.5,-703.5 853.5,-684.5 806.5,-684.5"/>
<text text-anchor="middle" x="830" y="-691.5" font-family="Helvetica,sans-Serif" font-size="10.00">io_type</text>
</a>
</g>
</g>
<!-- Node16&#45;&gt;Node19 -->
<g id="edge19" class="edge"><title>Node16&#45;&gt;Node19</title>
<path fill="none" stroke="midnightblue" d="M727.554,-651.108C742.66,-658.526 761.696,-667.592 779,-675 787.878,-678.801 797.795,-682.649 806.441,-685.879"/>
<polygon fill="midnightblue" stroke="midnightblue" points="728.768,-647.803 718.253,-646.505 725.663,-654.077 728.768,-647.803"/>
</g>
<!-- Node20 -->
<g id="node20" class="node"><title>Node20</title>
<g id="a_node20"><a xlink:href="../../d8/dd3/lbaselib_8c.html#addfd66adcbe4c777cf5e10536d27d8b1" target="_top" xlink:title="luaB_getmetatable">
<polygon fill="none" stroke="black" points="782,-646.5 782,-665.5 878,-665.5 878,-646.5 782,-646.5"/>
<text text-anchor="middle" x="830" y="-653.5" font-family="Helvetica,sans-Serif" font-size="10.00">luaB_getmetatable</text>
</a>
</g>
</g>
<!-- Node16&#45;&gt;Node20 -->
<g id="edge20" class="edge"><title>Node16&#45;&gt;Node20</title>
<path fill="none" stroke="midnightblue" d="M748.82,-644.236C759.608,-645.819 771.002,-647.491 781.708,-649.061"/>
<polygon fill="midnightblue" stroke="midnightblue" points="749.108,-640.741 738.706,-642.752 748.092,-647.667 749.108,-640.741"/>
</g>
<!-- Node21 -->
<g id="node21" class="node"><title>Node21</title>
<g id="a_node21"><a xlink:href="../../d8/dd3/lbaselib_8c.html#a1fb2725eed679431d070b2e9e7abc223" target="_top" xlink:title="luaB_pcall">
<polygon fill="none" stroke="black" points="799.5,-608.5 799.5,-627.5 860.5,-627.5 860.5,-608.5 799.5,-608.5"/>
<text text-anchor="middle" x="830" y="-615.5" font-family="Helvetica,sans-Serif" font-size="10.00">luaB_pcall</text>
</a>
</g>
</g>
<!-- Node16&#45;&gt;Node21 -->
<g id="edge21" class="edge"><title>Node16&#45;&gt;Node21</title>
<path fill="none" stroke="midnightblue" d="M749.044,-629.731C766.027,-627.239 784.49,-624.53 799.39,-622.344"/>
<polygon fill="midnightblue" stroke="midnightblue" points="748.092,-626.333 738.706,-631.248 749.108,-633.259 748.092,-626.333"/>
</g>
<!-- Node22 -->
<g id="node22" class="node"><title>Node22</title>
<g id="a_node22"><a xlink:href="../../d8/dd3/lbaselib_8c.html#a4dbd4fb89ec70a7b07cad52f7c13e637" target="_top" xlink:title="luaB_rawequal">
<polygon fill="none" stroke="black" points="789.5,-570.5 789.5,-589.5 870.5,-589.5 870.5,-570.5 789.5,-570.5"/>
<text text-anchor="middle" x="830" y="-577.5" font-family="Helvetica,sans-Serif" font-size="10.00">luaB_rawequal</text>
</a>
</g>
</g>
<!-- Node16&#45;&gt;Node22 -->
<g id="edge22" class="edge"><title>Node16&#45;&gt;Node22</title>
<path fill="none" stroke="midnightblue" d="M727.554,-622.892C742.66,-615.474 761.696,-606.408 779,-599 786.598,-595.747 794.956,-592.46 802.627,-589.555"/>
<polygon fill="midnightblue" stroke="midnightblue" points="725.663,-619.923 718.253,-627.495 728.768,-626.197 725.663,-619.923"/>
</g>
<!-- Node23 -->
<g id="node23" class="node"><title>Node23</title>
<g id="a_node23"><a xlink:href="../../d8/dd3/lbaselib_8c.html#a248a6847a33f31c69a43a76b6b8bcb4b" target="_top" xlink:title="luaB_rawget">
<polygon fill="none" stroke="black" points="794.5,-532.5 794.5,-551.5 865.5,-551.5 865.5,-532.5 794.5,-532.5"/>
<text text-anchor="middle" x="830" y="-539.5" font-family="Helvetica,sans-Serif" font-size="10.00">luaB_rawget</text>
</a>
</g>
</g>
<!-- Node16&#45;&gt;Node23 -->
<g id="edge23" class="edge"><title>Node16&#45;&gt;Node23</title>
<path fill="none" stroke="midnightblue" d="M714.205,-619.319C729.064,-602.403 753.425,-577.142 779,-561 784.811,-557.332 791.44,-554.197 797.93,-551.594"/>
<polygon fill="midnightblue" stroke="midnightblue" points="711.202,-617.444 707.345,-627.312 716.514,-622.003 711.202,-617.444"/>
</g>
<!-- Node24 -->
<g id="node24" class="node"><title>Node24</title>
<g id="a_node24"><a xlink:href="../../d8/dd3/lbaselib_8c.html#a7b7225051c25127792f30eadd3498cc3" target="_top" xlink:title="luaB_rawset">
<polygon fill="none" stroke="black" points="794.5,-494.5 794.5,-513.5 865.5,-513.5 865.5,-494.5 794.5,-494.5"/>
<text text-anchor="middle" x="830" y="-501.5" font-family="Helvetica,sans-Serif" font-size="10.00">luaB_rawset</text>
</a>
</g>
</g>
<!-- Node16&#45;&gt;Node24 -->
<g id="edge24" class="edge"><title>Node16&#45;&gt;Node24</title>
<path fill="none" stroke="midnightblue" d="M708.175,-618.119C720.559,-593.099 745.558,-549.088 779,-523 783.906,-519.173 789.668,-516.048 795.503,-513.519"/>
<polygon fill="midnightblue" stroke="midnightblue" points="704.949,-616.752 703.786,-627.282 711.263,-619.776 704.949,-616.752"/>
</g>
<!-- Node25 -->
<g id="node25" class="node"><title>Node25</title>
<g id="a_node25"><a xlink:href="../../d8/dd3/lbaselib_8c.html#a6224f7b7c4485996e1c22eae32de990d" target="_top" xlink:title="luaB_tonumber">
<polygon fill="none" stroke="black" points="790,-456.5 790,-475.5 870,-475.5 870,-456.5 790,-456.5"/>
<text text-anchor="middle" x="830" y="-463.5" font-family="Helvetica,sans-Serif" font-size="10.00">luaB_tonumber</text>
</a>
</g>
</g>
<!-- Node16&#45;&gt;Node25 -->
<g id="edge25" class="edge"><title>Node16&#45;&gt;Node25</title>
<path fill="none" stroke="midnightblue" d="M704.781,-617.402C714.364,-585.393 737.563,-521.787 779,-485 783.306,-481.178 788.458,-478.092 793.795,-475.611"/>
<polygon fill="midnightblue" stroke="midnightblue" points="701.332,-616.733 701.951,-627.31 708.063,-618.655 701.332,-616.733"/>
</g>
<!-- Node26 -->
<g id="node26" class="node"><title>Node26</title>
<g id="a_node26"><a xlink:href="../../d8/dd3/lbaselib_8c.html#a15bd8ce3f719c87883bcb578c60677e7" target="_top" xlink:title="luaB_tostring">
<polygon fill="none" stroke="black" points="794.5,-836.5 794.5,-855.5 865.5,-855.5 865.5,-836.5 794.5,-836.5"/>
<text text-anchor="middle" x="830" y="-843.5" font-family="Helvetica,sans-Serif" font-size="10.00">luaB_tostring</text>
</a>
</g>
</g>
<!-- Node16&#45;&gt;Node26 -->
<g id="edge26" class="edge"><title>Node16&#45;&gt;Node26</title>
<path fill="none" stroke="midnightblue" d="M733.772,-651.971C737.26,-654.578 740.45,-657.576 743,-661 788.09,-721.548 729.757,-769.779 779,-827 783.119,-831.786 788.578,-835.37 794.373,-838.053"/>
<polygon fill="midnightblue" stroke="midnightblue" points="735.577,-648.971 725.256,-646.577 731.831,-654.885 735.577,-648.971"/>
</g>
<!-- Node27 -->
<g id="node27" class="node"><title>Node27</title>
<g id="a_node27"><a xlink:href="../../d8/dd3/lbaselib_8c.html#a7135b660cac1e25a2854acd9849cd4a4" target="_top" xlink:title="luaB_type">
<polygon fill="none" stroke="black" points="800,-798.5 800,-817.5 860,-817.5 860,-798.5 800,-798.5"/>
<text text-anchor="middle" x="830" y="-805.5" font-family="Helvetica,sans-Serif" font-size="10.00">luaB_type</text>
</a>
</g>
</g>
<!-- Node16&#45;&gt;Node27 -->
<g id="edge27" class="edge"><title>Node16&#45;&gt;Node27</title>
<path fill="none" stroke="midnightblue" d="M733.331,-651.949C736.946,-654.572 740.287,-657.578 743,-661 779.716,-707.306 739.113,-745.396 779,-789 784.516,-795.03 792.147,-799.159 799.789,-801.982"/>
<polygon fill="midnightblue" stroke="midnightblue" points="734.91,-648.81 724.567,-646.514 731.221,-654.759 734.91,-648.81"/>
</g>
<!-- Node29 -->
<g id="node29" class="node"><title>Node29</title>
<g id="a_node29"><a xlink:href="../../de/df3/liolib_8c.html#ace5e1a23cc9e2ffe7ae6cc523e54de73" target="_top" xlink:title="f_seek">
<polygon fill="none" stroke="black" points="808,-190.5 808,-209.5 852,-209.5 852,-190.5 808,-190.5"/>
<text text-anchor="middle" x="830" y="-197.5" font-family="Helvetica,sans-Serif" font-size="10.00">f_seek</text>
</a>
</g>
</g>
<!-- Node28&#45;&gt;Node29 -->
<g id="edge29" class="edge"><title>Node28&#45;&gt;Node29</title>
<path fill="none" stroke="midnightblue" d="M738.275,-298.975C739.948,-297.743 741.536,-296.42 743,-295 769.829,-268.978 751.546,-244.361 779,-219 786.913,-211.691 797.921,-207.104 807.594,-204.274"/>
<polygon fill="midnightblue" stroke="midnightblue" points="736.089,-296.208 729.365,-304.395 739.727,-302.188 736.089,-296.208"/>
</g>
<!-- Node30 -->
<g id="node30" class="node"><title>Node30</title>
<g id="a_node30"><a xlink:href="../../de/df3/liolib_8c.html#aa7d559e7d43a6133ec495d6b4e5d68f2" target="_top" xlink:title="f_setvbuf">
<polygon fill="none" stroke="black" points="802,-304.5 802,-323.5 858,-323.5 858,-304.5 802,-304.5"/>
<text text-anchor="middle" x="830" y="-311.5" font-family="Helvetica,sans-Serif" font-size="10.00">f_setvbuf</text>
</a>
</g>
</g>
<!-- Node28&#45;&gt;Node30 -->
<g id="edge30" class="edge"><title>Node28&#45;&gt;Node30</title>
<path fill="none" stroke="midnightblue" d="M753.538,-314C770.18,-314 787.792,-314 801.813,-314"/>
<polygon fill="midnightblue" stroke="midnightblue" points="753.343,-310.5 743.343,-314 753.343,-317.5 753.343,-310.5"/>
</g>
<!-- Node31 -->
<g id="node31" class="node"><title>Node31</title>
<g id="a_node31"><a xlink:href="../../d8/dd3/lbaselib_8c.html#a07f71966c943cc9761ab129f64d4ac80" target="_top" xlink:title="luaB_collectgarbage">
<polygon fill="none" stroke="black" points="779,-266.5 779,-285.5 881,-285.5 881,-266.5 779,-266.5"/>
<text text-anchor="middle" x="830" y="-273.5" font-family="Helvetica,sans-Serif" font-size="10.00">luaB_collectgarbage</text>
</a>
</g>
</g>
<!-- Node28&#45;&gt;Node31 -->
<g id="edge31" class="edge"><title>Node28&#45;&gt;Node31</title>
<path fill="none" stroke="midnightblue" d="M742.219,-301.465C759.836,-296.295 779.923,-290.401 796.332,-285.586"/>
<polygon fill="midnightblue" stroke="midnightblue" points="740.788,-298.237 732.178,-304.411 742.759,-304.954 740.788,-298.237"/>
</g>
<!-- Node32 -->
<g id="node32" class="node"><title>Node32</title>
<g id="a_node32"><a xlink:href="../../dc/dba/loslib_8c.html#a148e76ec4bfa32f07c0bd8c802960113" target="_top" xlink:title="os_setlocale">
<polygon fill="none" stroke="black" points="795.5,-228.5 795.5,-247.5 864.5,-247.5 864.5,-228.5 795.5,-228.5"/>
<text text-anchor="middle" x="830" y="-235.5" font-family="Helvetica,sans-Serif" font-size="10.00">os_setlocale</text>
</a>
</g>
</g>
<!-- Node28&#45;&gt;Node32 -->
<g id="edge32" class="edge"><title>Node28&#45;&gt;Node32</title>
<path fill="none" stroke="midnightblue" d="M735.365,-299.752C738.021,-298.272 740.597,-296.687 743,-295 762.04,-281.632 759.64,-269.901 779,-257 784.564,-253.292 790.953,-250.168 797.264,-247.591"/>
<polygon fill="midnightblue" stroke="midnightblue" points="733.539,-296.752 726.172,-304.367 736.679,-303.008 733.539,-296.752"/>
</g>
<!-- Node35 -->
<g id="node35" class="node"><title>Node35</title>
<g id="a_node35"><a xlink:href="../../da/d29/lauxlib_8h.html#aed8d8e4f3b95c6bcac246ec9895027b1" target="_top" xlink:title="luaL_checkudata">
<polygon fill="none" stroke="black" points="785.5,-114.5 785.5,-133.5 874.5,-133.5 874.5,-114.5 785.5,-114.5"/>
<text text-anchor="middle" x="830" y="-121.5" font-family="Helvetica,sans-Serif" font-size="10.00">luaL_checkudata</text>
</a>
</g>
</g>
<!-- Node34&#45;&gt;Node35 -->
<g id="edge35" class="edge"><title>Node34&#45;&gt;Node35</title>
<path fill="none" stroke="midnightblue" d="M734.24,-264.268C737.478,-262.205 740.482,-259.8 743,-257 778.529,-217.493 742.52,-181.631 779,-143 782.634,-139.152 787.129,-136.075 791.92,-133.617"/>
<polygon fill="midnightblue" stroke="midnightblue" points="732.527,-261.215 725.301,-268.964 735.782,-267.412 732.527,-261.215"/>
</g>
<!-- Node36 -->
<g id="node36" class="node"><title>Node36</title>
<g id="a_node36"><a xlink:href="../../d0/d56/lauxlib_8c.html#a84f86d7f2603b98e935740de1efb858d" target="_top" xlink:title="tag_error">
<polygon fill="none" stroke="red" points="803.5,-152.5 803.5,-171.5 856.5,-171.5 856.5,-152.5 803.5,-152.5"/>
<text text-anchor="middle" x="830" y="-159.5" font-family="Helvetica,sans-Serif" font-size="10.00">tag_error</text>
</a>
</g>
</g>
<!-- Node34&#45;&gt;Node36 -->
<g id="edge36" class="edge"><title>Node34&#45;&gt;Node36</title>
<path fill="none" stroke="midnightblue" d="M734.38,-263.594C737.497,-261.673 740.438,-259.485 743,-257 769.829,-230.978 751.546,-206.361 779,-181 785.753,-174.762 794.761,-170.507 803.269,-167.635"/>
<polygon fill="midnightblue" stroke="midnightblue" points="732.549,-260.601 725.294,-268.321 735.78,-266.81 732.549,-260.601"/>
</g>
<!-- Node37&#45;&gt;Node38 -->
<g id="edge38" class="edge"><title>Node37&#45;&gt;Node38</title>
<path fill="none" stroke="midnightblue" d="M484.19,-222.741C507.416,-207.458 542.44,-184.412 561.991,-171.547"/>
<polygon fill="midnightblue" stroke="midnightblue" points="482.058,-219.954 475.628,-228.375 485.906,-225.801 482.058,-219.954"/>
</g>
<!-- Node39 -->
<g id="node39" class="node"><title>Node39</title>
<g id="a_node39"><a xlink:href="../../d8/d97/ldblib_8c.html#ae0792d4f3f6eedd535895e05426b82df" target="_top" xlink:title="db_traceback">
<polygon fill="none" stroke="black" points="661.5,-152.5 661.5,-171.5 735.5,-171.5 735.5,-152.5 661.5,-152.5"/>
<text text-anchor="middle" x="698.5" y="-159.5" font-family="Helvetica,sans-Serif" font-size="10.00">db_traceback</text>
</a>
</g>
</g>
<!-- Node38&#45;&gt;Node39 -->
<g id="edge39" class="edge"><title>Node38&#45;&gt;Node39</title>
<path fill="none" stroke="midnightblue" d="M628.143,-162C639.245,-162 650.819,-162 661.258,-162"/>
<polygon fill="midnightblue" stroke="midnightblue" points="628.125,-158.5 618.125,-162 628.125,-165.5 628.125,-158.5"/>
</g>
<!-- Node41 -->
<g id="node41" class="node"><title>Node41</title>
<g id="a_node41"><a xlink:href="../../df/d2d/lcorolib_8c.html#a777abb20385a69ce4787f72bd90375a7" target="_top" xlink:title="luaB_auxwrap">
<polygon fill="none" stroke="black" points="420,-418.5 420,-437.5 500,-437.5 500,-418.5 420,-418.5"/>
<text text-anchor="middle" x="460" y="-425.5" font-family="Helvetica,sans-Serif" font-size="10.00">luaB_auxwrap</text>
</a>
</g>
</g>
<!-- Node40&#45;&gt;Node41 -->
<g id="edge43" class="edge"><title>Node40&#45;&gt;Node41</title>
<path fill="none" stroke="midnightblue" d="M349.975,-330.519C376.97,-354.656 426.35,-398.807 448.157,-418.305"/>
<polygon fill="midnightblue" stroke="midnightblue" points="352.158,-327.776 342.371,-323.72 347.492,-332.994 352.158,-327.776"/>
</g>
<!-- Node43 -->
<g id="node43" class="node"><title>Node43</title>
<g id="a_node43"><a xlink:href="../../d8/dd3/lbaselib_8c.html#a2ecfa987569d0b4c1063f3e204e42dd2" target="_top" xlink:title="luaB_error">
<polygon fill="none" stroke="black" points="430.5,-342.5 430.5,-361.5 489.5,-361.5 489.5,-342.5 430.5,-342.5"/>
<text text-anchor="middle" x="460" y="-349.5" font-family="Helvetica,sans-Serif" font-size="10.00">luaB_error</text>
</a>
</g>
</g>
<!-- Node40&#45;&gt;Node43 -->
<g id="edge45" class="edge"><title>Node40&#45;&gt;Node43</title>
<path fill="none" stroke="midnightblue" d="M373.409,-326.491C392.056,-332.048 413.539,-338.451 430.317,-343.451"/>
<polygon fill="midnightblue" stroke="midnightblue" points="374.257,-323.091 363.674,-323.589 372.257,-329.8 374.257,-323.091"/>
</g>
<!-- Node44 -->
<g id="node44" class="node"><title>Node44</title>
<g id="a_node44"><a xlink:href="../../da/d29/lauxlib_8h.html#a994f73d7985c30672469a260d9e86ae6" target="_top" xlink:title="luaL_error">
<polygon fill="none" stroke="red" points="431.5,-266.5 431.5,-285.5 488.5,-285.5 488.5,-266.5 431.5,-266.5"/>
<text text-anchor="middle" x="460" y="-273.5" font-family="Helvetica,sans-Serif" font-size="10.00">luaL_error</text>
</a>
</g>
</g>
<!-- Node40&#45;&gt;Node44 -->
<g id="edge46" class="edge"><title>Node40&#45;&gt;Node44</title>
<path fill="none" stroke="midnightblue" d="M373.292,-301.544C392.282,-295.884 414.234,-289.342 431.167,-284.295"/>
<polygon fill="midnightblue" stroke="midnightblue" points="372.257,-298.2 363.674,-304.411 374.257,-304.909 372.257,-298.2"/>
</g>
<!-- Node42 -->
<g id="node42" class="node"><title>Node42</title>
<g id="a_node42"><a xlink:href="../../df/d2d/lcorolib_8c.html#a1c0429e27f504b08e25f437f733edad1" target="_top" xlink:title="luaB_cowrap">
<polygon fill="none" stroke="black" points="540.5,-418.5 540.5,-437.5 614.5,-437.5 614.5,-418.5 540.5,-418.5"/>
<text text-anchor="middle" x="577.5" y="-425.5" font-family="Helvetica,sans-Serif" font-size="10.00">luaB_cowrap</text>
</a>
</g>
</g>
<!-- Node41&#45;&gt;Node42 -->
<g id="edge44" class="edge"><title>Node41&#45;&gt;Node42</title>
<path fill="none" stroke="midnightblue" d="M510.353,-428C520.358,-428 530.707,-428 540.163,-428"/>
<polygon fill="midnightblue" stroke="midnightblue" points="510.103,-424.5 500.103,-428 510.103,-431.5 510.103,-424.5"/>
</g>
<!-- Node44&#45;&gt;Node5 -->
<g id="edge48" class="edge"><title>Node44&#45;&gt;Node5</title>
<path fill="none" stroke="midnightblue" d="M490.21,-290.972C494.093,-293.669 497.823,-296.69 501,-300 524.137,-324.107 513.931,-341.829 537,-366 542.429,-371.689 549.49,-376.539 556.138,-380.359"/>
<polygon fill="midnightblue" stroke="midnightblue" points="491.956,-287.936 481.622,-285.598 488.243,-293.87 491.956,-287.936"/>
</g>
<!-- Node44&#45;&gt;Node15 -->
<g id="edge47" class="edge"><title>Node44&#45;&gt;Node15</title>
<path fill="none" stroke="midnightblue" d="M497.492,-288.911C535.941,-302.007 598.496,-321.884 654,-333 704.492,-343.112 764.331,-348.144 799.339,-350.402"/>
<polygon fill="midnightblue" stroke="midnightblue" points="498.379,-285.515 487.785,-285.573 496.104,-292.134 498.379,-285.515"/>
</g>
<!-- Node44&#45;&gt;Node33 -->
<g id="edge49" class="edge"><title>Node44&#45;&gt;Node33</title>
<path fill="none" stroke="midnightblue" d="M498.511,-269.973C546.152,-262.318 627.26,-249.286 669.718,-242.464"/>
<polygon fill="midnightblue" stroke="midnightblue" points="497.911,-266.524 488.592,-271.567 499.021,-273.436 497.911,-266.524"/>
</g>
<!-- Node46 -->
<g id="node46" class="node"><title>Node46</title>
<g id="a_node46"><a xlink:href="../../d8/d97/ldblib_8c.html#ade86533c6188a941aae1be4396a20393" target="_top" xlink:title="db_upvalueid">
<polygon fill="none" stroke="black" points="423,-114.5 423,-133.5 497,-133.5 497,-114.5 423,-114.5"/>
<text text-anchor="middle" x="460" y="-121.5" font-family="Helvetica,sans-Serif" font-size="10.00">db_upvalueid</text>
</a>
</g>
</g>
<!-- Node45&#45;&gt;Node46 -->
<g id="edge52" class="edge"><title>Node45&#45;&gt;Node46</title>
<path fill="none" stroke="midnightblue" d="M373.203,-124C389.246,-124 407.413,-124 422.887,-124"/>
<polygon fill="midnightblue" stroke="midnightblue" points="373.017,-120.5 363.017,-124 373.017,-127.5 373.017,-120.5"/>
</g>
<!-- Node47 -->
<g id="node47" class="node"><title>Node47</title>
<g id="a_node47"><a xlink:href="../../d8/d97/ldblib_8c.html#acd80bdb3262b3580eb6955f6f3eb3549" target="_top" xlink:title="db_upvaluejoin">
<polygon fill="none" stroke="black" points="419,-76.5 419,-95.5 501,-95.5 501,-76.5 419,-76.5"/>
<text text-anchor="middle" x="460" y="-83.5" font-family="Helvetica,sans-Serif" font-size="10.00">db_upvaluejoin</text>
</a>
</g>
</g>
<!-- Node45&#45;&gt;Node47 -->
<g id="edge53" class="edge"><title>Node45&#45;&gt;Node47</title>
<path fill="none" stroke="midnightblue" d="M372.991,-111.634C390.515,-106.411 410.605,-100.423 426.96,-95.5491"/>
<polygon fill="midnightblue" stroke="midnightblue" points="371.601,-108.396 363.017,-114.607 373.6,-115.105 371.601,-108.396"/>
</g>
<!-- Node49 -->
<g id="node49" class="node"><title>Node49</title>
<g id="a_node49"><a xlink:href="../../d8/d97/ldblib_8c.html#a6a624ae8d8ff673e72a317b280ed008d" target="_top" xlink:title="db_gethook">
<polygon fill="none" stroke="black" points="427,-38.5 427,-57.5 493,-57.5 493,-38.5 427,-38.5"/>
<text text-anchor="middle" x="460" y="-45.5" font-family="Helvetica,sans-Serif" font-size="10.00">db_gethook</text>
</a>
</g>
</g>
<!-- Node48&#45;&gt;Node49 -->
<g id="edge55" class="edge"><title>Node48&#45;&gt;Node49</title>
<path fill="none" stroke="midnightblue" d="M360.287,-48C380.079,-48 406.38,-48 426.857,-48"/>
<polygon fill="midnightblue" stroke="midnightblue" points="360.04,-44.5001 350.04,-48 360.04,-51.5001 360.04,-44.5001"/>
</g>
<!-- Node50 -->
<g id="node50" class="node"><title>Node50</title>
<g id="a_node50"><a xlink:href="../../d8/d97/ldblib_8c.html#aa0c362d361f8f9bd8a002c34c393e2b0" target="_top" xlink:title="db_sethook">
<polygon fill="none" stroke="black" points="427,-0.5 427,-19.5 493,-19.5 493,-0.5 427,-0.5"/>
<text text-anchor="middle" x="460" y="-7.5" font-family="Helvetica,sans-Serif" font-size="10.00">db_sethook</text>
</a>
</g>
</g>
<!-- Node48&#45;&gt;Node50 -->
<g id="edge56" class="edge"><title>Node48&#45;&gt;Node50</title>
<path fill="none" stroke="midnightblue" d="M359.775,-39.5731C379.703,-33.6336 406.417,-25.6717 427.107,-19.5055"/>
<polygon fill="midnightblue" stroke="midnightblue" points="358.623,-36.264 350.04,-42.4745 360.623,-42.9724 358.623,-36.264"/>
</g>
</g>
</svg>
