<?xml version="1.0" encoding="UTF-8" standalone="no"?>
<!DOCTYPE svg PUBLIC "-//W3C//DTD SVG 1.1//EN"
 "http://www.w3.org/Graphics/SVG/1.1/DTD/svg11.dtd">
<!-- Generated by graphviz version 2.38.0 (20140413.2041)
 -->
<!-- Title: luaG_errormsg Pages: 1 -->
<svg width="659pt" height="1581pt"
 viewBox="0.00 0.00 659.00 1581.49" xmlns="http://www.w3.org/2000/svg" xmlns:xlink="http://www.w3.org/1999/xlink">
<g id="graph0" class="graph" transform="scale(1 1) rotate(0) translate(4 1577.49)">
<title>luaG_errormsg</title>
<!-- Node1 -->
<g id="node1" class="node"><title>Node1</title>
<polygon fill="#bfbfbf" stroke="black" points="0,-850.5 0,-869.5 78,-869.5 78,-850.5 0,-850.5"/>
<text text-anchor="middle" x="39" y="-857.5" font-family="Helvetica,sans-Serif" font-size="10.00">luaG_errormsg</text>
</g>
<!-- Node2 -->
<g id="node2" class="node"><title>Node2</title>
<g id="a_node2"><a xlink:href="../../da/dd2/lua_8h.html#aae6c05ddea7bd110a3e84595ef92e601" target="_top" xlink:title="lua_error">
<polygon fill="none" stroke="black" points="124.5,-475.5 124.5,-494.5 176.5,-494.5 176.5,-475.5 124.5,-475.5"/>
<text text-anchor="middle" x="150.5" y="-482.5" font-family="Helvetica,sans-Serif" font-size="10.00">lua_error</text>
</a>
</g>
</g>
<!-- Node1&#45;&gt;Node2 -->
<g id="edge1" class="edge"><title>Node1&#45;&gt;Node2</title>
<path fill="none" stroke="midnightblue" d="M45.7087,-840.45C65.7147,-771.936 132.223,-544.167 146.702,-494.583"/>
<polygon fill="midnightblue" stroke="midnightblue" points="42.2601,-839.773 42.8168,-850.353 48.9795,-841.735 42.2601,-839.773"/>
</g>
<!-- Node34 -->
<g id="node34" class="node"><title>Node34</title>
<g id="a_node34"><a xlink:href="../../db/d46/ldebug_8h.html#a6f27f64630215e18a11be9ba21d3c4bf" target="_top" xlink:title="luaG_runerror">
<polygon fill="none" stroke="black" points="114,-1244.5 114,-1263.5 187,-1263.5 187,-1244.5 114,-1244.5"/>
<text text-anchor="middle" x="150.5" y="-1251.5" font-family="Helvetica,sans-Serif" font-size="10.00">luaG_runerror</text>
</a>
</g>
</g>
<!-- Node1&#45;&gt;Node34 -->
<g id="edge37" class="edge"><title>Node1&#45;&gt;Node34</title>
<path fill="none" stroke="midnightblue" d="M45.4486,-879.605C65.1714,-950.571 132.432,-1192.59 146.79,-1244.25"/>
<polygon fill="midnightblue" stroke="midnightblue" points="48.7567,-878.437 42.7068,-869.739 42.0123,-880.311 48.7567,-878.437"/>
</g>
<!-- Node3 -->
<g id="node3" class="node"><title>Node3</title>
<g id="a_node3"><a xlink:href="../../da/d29/lauxlib_8h.html#a994f73d7985c30672469a260d9e86ae6" target="_top" xlink:title="luaL_error">
<polygon fill="none" stroke="red" points="238.5,-513.5 238.5,-532.5 295.5,-532.5 295.5,-513.5 238.5,-513.5"/>
<text text-anchor="middle" x="267" y="-520.5" font-family="Helvetica,sans-Serif" font-size="10.00">luaL_error</text>
</a>
</g>
</g>
<!-- Node2&#45;&gt;Node3 -->
<g id="edge2" class="edge"><title>Node2&#45;&gt;Node3</title>
<path fill="none" stroke="midnightblue" d="M186.5,-496.616C203.065,-502.113 222.574,-508.588 238.121,-513.747"/>
<polygon fill="midnightblue" stroke="midnightblue" points="187.221,-493.167 176.628,-493.339 185.016,-499.811 187.221,-493.167"/>
</g>
<!-- Node31 -->
<g id="node31" class="node"><title>Node31</title>
<g id="a_node31"><a xlink:href="../../d8/dd3/lbaselib_8c.html#a2ecfa987569d0b4c1063f3e204e42dd2" target="_top" xlink:title="luaB_error">
<polygon fill="none" stroke="black" points="237.5,-437.5 237.5,-456.5 296.5,-456.5 296.5,-437.5 237.5,-437.5"/>
<text text-anchor="middle" x="267" y="-444.5" font-family="Helvetica,sans-Serif" font-size="10.00">luaB_error</text>
</a>
</g>
</g>
<!-- Node2&#45;&gt;Node31 -->
<g id="edge34" class="edge"><title>Node2&#45;&gt;Node31</title>
<path fill="none" stroke="midnightblue" d="M186.35,-473.434C202.658,-468.022 221.845,-461.654 237.301,-456.525"/>
<polygon fill="midnightblue" stroke="midnightblue" points="185.016,-470.189 176.628,-476.661 187.221,-476.833 185.016,-470.189"/>
</g>
<!-- Node32 -->
<g id="node32" class="node"><title>Node32</title>
<g id="a_node32"><a xlink:href="../../d8/dd3/lbaselib_8c.html#a86a4e35d9c9ad4661a0dbbac3758c049" target="_top" xlink:title="luaB_dofile">
<polygon fill="none" stroke="black" points="236,-399.5 236,-418.5 298,-418.5 298,-399.5 236,-399.5"/>
<text text-anchor="middle" x="267" y="-406.5" font-family="Helvetica,sans-Serif" font-size="10.00">luaB_dofile</text>
</a>
</g>
</g>
<!-- Node2&#45;&gt;Node32 -->
<g id="edge35" class="edge"><title>Node2&#45;&gt;Node32</title>
<path fill="none" stroke="midnightblue" d="M169.809,-468.217C183.705,-456.038 203.659,-439.714 223,-428 228.724,-424.533 235.194,-421.338 241.343,-418.596"/>
<polygon fill="midnightblue" stroke="midnightblue" points="167.13,-465.916 161.999,-475.185 171.791,-471.139 167.13,-465.916"/>
</g>
<!-- Node33 -->
<g id="node33" class="node"><title>Node33</title>
<g id="a_node33"><a xlink:href="../../df/d2d/lcorolib_8c.html#a777abb20385a69ce4787f72bd90375a7" target="_top" xlink:title="luaB_auxwrap">
<polygon fill="none" stroke="red" points="227,-475.5 227,-494.5 307,-494.5 307,-475.5 227,-475.5"/>
<text text-anchor="middle" x="267" y="-482.5" font-family="Helvetica,sans-Serif" font-size="10.00">luaB_auxwrap</text>
</a>
</g>
</g>
<!-- Node2&#45;&gt;Node33 -->
<g id="edge36" class="edge"><title>Node2&#45;&gt;Node33</title>
<path fill="none" stroke="midnightblue" d="M186.84,-485C199.554,-485 213.966,-485 226.976,-485"/>
<polygon fill="midnightblue" stroke="midnightblue" points="186.628,-481.5 176.628,-485 186.627,-488.5 186.628,-481.5"/>
</g>
<!-- Node4 -->
<g id="node4" class="node"><title>Node4</title>
<g id="a_node4"><a xlink:href="../../dc/d77/lstrlib_8c.html#ad5f7e3fbcadc8825f7f650ecf458fc72" target="_top" xlink:title="add_s">
<polygon fill="none" stroke="black" points="374.5,-570.5 374.5,-589.5 418.5,-589.5 418.5,-570.5 374.5,-570.5"/>
<text text-anchor="middle" x="396.5" y="-577.5" font-family="Helvetica,sans-Serif" font-size="10.00">add_s</text>
</a>
</g>
</g>
<!-- Node3&#45;&gt;Node4 -->
<g id="edge3" class="edge"><title>Node3&#45;&gt;Node4</title>
<path fill="none" stroke="midnightblue" d="M296.2,-537.198C311.168,-544.573 329.946,-553.57 347,-561 355.788,-564.829 365.614,-568.744 374.111,-572.018"/>
<polygon fill="midnightblue" stroke="midnightblue" points="297.484,-533.928 286.971,-532.619 294.373,-540.199 297.484,-533.928"/>
</g>
<!-- Node5 -->
<g id="node5" class="node"><title>Node5</title>
<g id="a_node5"><a xlink:href="../../dc/d77/lstrlib_8c.html#ad24cfa73e5ad25ec99a1b48f0916471e" target="_top" xlink:title="add_value">
<polygon fill="none" stroke="red" points="489.5,-589.5 489.5,-608.5 551.5,-608.5 551.5,-589.5 489.5,-589.5"/>
<text text-anchor="middle" x="520.5" y="-596.5" font-family="Helvetica,sans-Serif" font-size="10.00">add_value</text>
</a>
</g>
</g>
<!-- Node3&#45;&gt;Node5 -->
<g id="edge5" class="edge"><title>Node3&#45;&gt;Node5</title>
<path fill="none" stroke="midnightblue" d="M280.023,-540.824C293.729,-559.378 318.025,-587.325 347,-599 393.806,-617.859 453.728,-611.892 489.223,-605.61"/>
<polygon fill="midnightblue" stroke="midnightblue" points="282.815,-538.711 274.172,-532.583 277.108,-542.763 282.815,-538.711"/>
</g>
<!-- Node6 -->
<g id="node6" class="node"><title>Node6</title>
<g id="a_node6"><a xlink:href="../../d0/da1/ltablib_8c.html#a4ea6cc51c099ea709c7755a49216f4d0" target="_top" xlink:title="addfield">
<polygon fill="none" stroke="red" points="372,-532.5 372,-551.5 421,-551.5 421,-532.5 372,-532.5"/>
<text text-anchor="middle" x="396.5" y="-539.5" font-family="Helvetica,sans-Serif" font-size="10.00">addfield</text>
</a>
</g>
</g>
<!-- Node3&#45;&gt;Node6 -->
<g id="edge6" class="edge"><title>Node3&#45;&gt;Node6</title>
<path fill="none" stroke="midnightblue" d="M305.73,-528.623C327.114,-531.809 353.212,-535.698 371.745,-538.46"/>
<polygon fill="midnightblue" stroke="midnightblue" points="306.072,-525.135 295.666,-527.123 305.04,-532.058 306.072,-525.135"/>
</g>
<!-- Node7 -->
<g id="node7" class="node"><title>Node7</title>
<g id="a_node7"><a xlink:href="../../d0/da1/ltablib_8c.html#a40096c011a188a26849b68cd9d5d920e" target="_top" xlink:title="auxsort">
<polygon fill="none" stroke="red" points="372.5,-494.5 372.5,-513.5 420.5,-513.5 420.5,-494.5 372.5,-494.5"/>
<text text-anchor="middle" x="396.5" y="-501.5" font-family="Helvetica,sans-Serif" font-size="10.00">auxsort</text>
</a>
</g>
</g>
<!-- Node3&#45;&gt;Node7 -->
<g id="edge7" class="edge"><title>Node3&#45;&gt;Node7</title>
<path fill="none" stroke="midnightblue" d="M305.798,-517.367C327.329,-514.159 353.623,-510.24 372.161,-507.478"/>
<polygon fill="midnightblue" stroke="midnightblue" points="305.04,-513.942 295.666,-518.877 306.072,-520.865 305.04,-513.942"/>
</g>
<!-- Node8 -->
<g id="node8" class="node"><title>Node8</title>
<g id="a_node8"><a xlink:href="../../dc/d77/lstrlib_8c.html#a5e8b364a8f8d4300aa5007c0feb42abf" target="_top" xlink:title="capture_to_close">
<polygon fill="none" stroke="red" points="352.5,-456.5 352.5,-475.5 440.5,-475.5 440.5,-456.5 352.5,-456.5"/>
<text text-anchor="middle" x="396.5" y="-463.5" font-family="Helvetica,sans-Serif" font-size="10.00">capture_to_close</text>
</a>
</g>
</g>
<!-- Node3&#45;&gt;Node8 -->
<g id="edge8" class="edge"><title>Node3&#45;&gt;Node8</title>
<path fill="none" stroke="midnightblue" d="M299.766,-509.263C303.57,-507.53 307.384,-505.75 311,-504 327.284,-496.117 330.552,-492.534 347,-485 354.235,-481.686 362.227,-478.405 369.601,-475.527"/>
<polygon fill="midnightblue" stroke="midnightblue" points="298.151,-506.151 290.453,-513.431 301.01,-512.54 298.151,-506.151"/>
</g>
<!-- Node9 -->
<g id="node9" class="node"><title>Node9</title>
<g id="a_node9"><a xlink:href="../../dc/d77/lstrlib_8c.html#aa8c1a193fa762ecfe81888d86981a586" target="_top" xlink:title="check_capture">
<polygon fill="none" stroke="red" points="358,-418.5 358,-437.5 435,-437.5 435,-418.5 358,-418.5"/>
<text text-anchor="middle" x="396.5" y="-425.5" font-family="Helvetica,sans-Serif" font-size="10.00">check_capture</text>
</a>
</g>
</g>
<!-- Node3&#45;&gt;Node9 -->
<g id="edge9" class="edge"><title>Node3&#45;&gt;Node9</title>
<path fill="none" stroke="midnightblue" d="M304.716,-508.666C306.935,-507.233 309.053,-505.679 311,-504 333.688,-484.429 323.899,-466.082 347,-447 351.602,-443.199 357.054,-440.095 362.613,-437.581"/>
<polygon fill="midnightblue" stroke="midnightblue" points="302.855,-505.696 295.813,-513.612 306.255,-511.815 302.855,-505.696"/>
</g>
<!-- Node10 -->
<g id="node10" class="node"><title>Node10</title>
<g id="a_node10"><a xlink:href="../../d2/d82/loadlib_8c.html#abe3af664b33d2158ef6526094c84bb17" target="_top" xlink:title="checkload">
<polygon fill="none" stroke="red" points="367,-380.5 367,-399.5 426,-399.5 426,-380.5 367,-380.5"/>
<text text-anchor="middle" x="396.5" y="-387.5" font-family="Helvetica,sans-Serif" font-size="10.00">checkload</text>
</a>
</g>
</g>
<!-- Node3&#45;&gt;Node10 -->
<g id="edge10" class="edge"><title>Node3&#45;&gt;Node10</title>
<path fill="none" stroke="midnightblue" d="M304.288,-509.693C306.724,-508.002 309,-506.111 311,-504 342.056,-471.225 315.251,-441.105 347,-409 352.469,-403.47 359.736,-399.511 366.977,-396.692"/>
<polygon fill="midnightblue" stroke="midnightblue" points="302.483,-506.693 295.553,-514.707 305.968,-512.764 302.483,-506.693"/>
</g>
<!-- Node11 -->
<g id="node11" class="node"><title>Node11</title>
<g id="a_node11"><a xlink:href="../../dc/d77/lstrlib_8c.html#a72b26c2a339f5e84ef087e961b547f95" target="_top" xlink:title="classend">
<polygon fill="none" stroke="black" points="369,-304.5 369,-323.5 424,-323.5 424,-304.5 369,-304.5"/>
<text text-anchor="middle" x="396.5" y="-311.5" font-family="Helvetica,sans-Serif" font-size="10.00">classend</text>
</a>
</g>
</g>
<!-- Node3&#45;&gt;Node11 -->
<g id="edge11" class="edge"><title>Node3&#45;&gt;Node11</title>
<path fill="none" stroke="midnightblue" d="M304.462,-510.149C306.89,-508.352 309.114,-506.313 311,-504 358.712,-445.496 300.57,-397.526 347,-338 352.547,-330.889 360.754,-325.736 368.846,-322.073"/>
<polygon fill="midnightblue" stroke="midnightblue" points="302.451,-507.272 295.621,-515.372 306.012,-513.299 302.451,-507.272"/>
</g>
<!-- Node12 -->
<g id="node12" class="node"><title>Node12</title>
<g id="a_node12"><a xlink:href="../../dc/d77/lstrlib_8c.html#a52a45835b75e5d31ec66421456bbb728" target="_top" xlink:title="match">
<polygon fill="none" stroke="red" points="499.5,-304.5 499.5,-323.5 541.5,-323.5 541.5,-304.5 499.5,-304.5"/>
<text text-anchor="middle" x="520.5" y="-311.5" font-family="Helvetica,sans-Serif" font-size="10.00">match</text>
</a>
</g>
</g>
<!-- Node3&#45;&gt;Node12 -->
<g id="edge29" class="edge"><title>Node3&#45;&gt;Node12</title>
<path fill="none" stroke="midnightblue" d="M304.522,-509.905C306.906,-508.166 309.106,-506.206 311,-504 350.896,-457.541 304.901,-415.472 347,-371 357.787,-359.605 456.039,-331.483 499.257,-319.524"/>
<polygon fill="midnightblue" stroke="midnightblue" points="302.715,-506.908 295.887,-515.009 306.277,-512.934 302.715,-506.908"/>
</g>
<!-- Node13 -->
<g id="node13" class="node"><title>Node13</title>
<g id="a_node13"><a xlink:href="../../df/d02/lbitlib_8c.html#a6a0cf932e22a22ae18f7302158bdd490" target="_top" xlink:title="fieldargs">
<polygon fill="none" stroke="red" points="371,-228.5 371,-247.5 422,-247.5 422,-228.5 371,-228.5"/>
<text text-anchor="middle" x="396.5" y="-235.5" font-family="Helvetica,sans-Serif" font-size="10.00">fieldargs</text>
</a>
</g>
</g>
<!-- Node3&#45;&gt;Node13 -->
<g id="edge13" class="edge"><title>Node3&#45;&gt;Node13</title>
<path fill="none" stroke="midnightblue" d="M304.64,-510.289C307.028,-508.461 309.195,-506.376 311,-504 378.114,-415.666 278.016,-343.881 347,-257 352.904,-249.564 362.125,-245.031 370.947,-242.271"/>
<polygon fill="midnightblue" stroke="midnightblue" points="302.633,-507.412 295.871,-515.569 306.244,-513.409 302.633,-507.412"/>
</g>
<!-- Node14 -->
<g id="node14" class="node"><title>Node14</title>
<g id="a_node14"><a xlink:href="../../d2/d82/loadlib_8c.html#af8f7333f1a59f3d7aab8c9b79b7a4ab2" target="_top" xlink:title="findfile">
<polygon fill="none" stroke="red" points="376,-190.5 376,-209.5 417,-209.5 417,-190.5 376,-190.5"/>
<text text-anchor="middle" x="396.5" y="-197.5" font-family="Helvetica,sans-Serif" font-size="10.00">findfile</text>
</a>
</g>
</g>
<!-- Node3&#45;&gt;Node14 -->
<g id="edge14" class="edge"><title>Node3&#45;&gt;Node14</title>
<path fill="none" stroke="midnightblue" d="M304.69,-510.327C307.067,-508.49 309.217,-506.393 311,-504 387.265,-401.608 268.567,-319.741 347,-219 353.889,-210.152 365.483,-205.418 375.608,-202.888"/>
<polygon fill="midnightblue" stroke="midnightblue" points="302.685,-507.45 295.942,-515.622 306.309,-513.438 302.685,-507.45"/>
</g>
<!-- Node15 -->
<g id="node15" class="node"><title>Node15</title>
<g id="a_node15"><a xlink:href="../../d2/d82/loadlib_8c.html#aeea4101591c7cab25273f4dfe7d811d6" target="_top" xlink:title="findloader">
<polygon fill="none" stroke="red" points="368.5,-152.5 368.5,-171.5 424.5,-171.5 424.5,-152.5 368.5,-152.5"/>
<text text-anchor="middle" x="396.5" y="-159.5" font-family="Helvetica,sans-Serif" font-size="10.00">findloader</text>
</a>
</g>
</g>
<!-- Node3&#45;&gt;Node15 -->
<g id="edge15" class="edge"><title>Node3&#45;&gt;Node15</title>
<path fill="none" stroke="midnightblue" d="M304.546,-510.497C306.987,-508.62 309.19,-506.468 311,-504 396.433,-387.529 259.101,-295.621 347,-181 352.228,-174.183 360.255,-169.809 368.283,-167.003"/>
<polygon fill="midnightblue" stroke="midnightblue" points="302.34,-507.738 295.551,-515.872 305.931,-513.747 302.34,-507.738"/>
</g>
<!-- Node16 -->
<g id="node16" class="node"><title>Node16</title>
<g id="a_node16"><a xlink:href="../../d8/dd3/lbaselib_8c.html#ad467c787e381e8d18e4c7b46b4f1b05d" target="_top" xlink:title="generic_reader">
<polygon fill="none" stroke="red" points="482,-95.5 482,-114.5 559,-114.5 559,-95.5 482,-95.5"/>
<text text-anchor="middle" x="520.5" y="-102.5" font-family="Helvetica,sans-Serif" font-size="10.00">generic_reader</text>
</a>
</g>
</g>
<!-- Node3&#45;&gt;Node16 -->
<g id="edge16" class="edge"><title>Node3&#45;&gt;Node16</title>
<path fill="none" stroke="midnightblue" d="M304.577,-510.52C307.012,-508.638 309.204,-506.478 311,-504 358.305,-438.718 293.437,-203.254 347,-143 364.522,-123.289 436.368,-112.911 481.63,-108.223"/>
<polygon fill="midnightblue" stroke="midnightblue" points="302.373,-507.761 295.594,-515.904 305.971,-513.765 302.373,-507.761"/>
</g>
<!-- Node17 -->
<g id="node17" class="node"><title>Node17</title>
<g id="a_node17"><a xlink:href="../../dc/dba/loslib_8c.html#a4d6a2679129f7d65f34a60a6c701b782" target="_top" xlink:title="getfield">
<polygon fill="none" stroke="red" points="374,-38.5 374,-57.5 419,-57.5 419,-38.5 374,-38.5"/>
<text text-anchor="middle" x="396.5" y="-45.5" font-family="Helvetica,sans-Serif" font-size="10.00">getfield</text>
</a>
</g>
</g>
<!-- Node3&#45;&gt;Node17 -->
<g id="edge17" class="edge"><title>Node3&#45;&gt;Node17</title>
<path fill="none" stroke="midnightblue" d="M304.624,-510.553C307.048,-508.664 309.226,-506.494 311,-504 367.494,-424.609 288.824,-145.167 347,-67 353.371,-58.4396 364.173,-53.734 373.968,-51.1484"/>
<polygon fill="midnightblue" stroke="midnightblue" points="302.422,-507.794 295.659,-515.95 306.032,-513.791 302.422,-507.794"/>
</g>
<!-- Node18 -->
<g id="node18" class="node"><title>Node18</title>
<g id="a_node18"><a xlink:href="../../de/df3/liolib_8c.html#a3bccbdacdc9f21f22a603525be1f3699" target="_top" xlink:title="getiofile">
<polygon fill="none" stroke="red" points="373,-0.5 373,-19.5 420,-19.5 420,-0.5 373,-0.5"/>
<text text-anchor="middle" x="396.5" y="-7.5" font-family="Helvetica,sans-Serif" font-size="10.00">getiofile</text>
</a>
</g>
</g>
<!-- Node3&#45;&gt;Node18 -->
<g id="edge18" class="edge"><title>Node3&#45;&gt;Node18</title>
<path fill="none" stroke="midnightblue" d="M304.642,-510.566C307.062,-508.674 309.234,-506.499 311,-504 372.092,-417.549 284.077,-114.127 347,-29 353.128,-20.7097 363.416,-16.0352 372.944,-13.4001"/>
<polygon fill="midnightblue" stroke="midnightblue" points="302.44,-507.807 295.684,-515.968 306.055,-513.801 302.44,-507.807"/>
</g>
<!-- Node19 -->
<g id="node19" class="node"><title>Node19</title>
<g id="a_node19"><a xlink:href="../../de/df3/liolib_8c.html#ac37d80ee2cc364b4adafcb6f7c20f28b" target="_top" xlink:title="io_readline">
<polygon fill="none" stroke="red" points="366,-912.5 366,-931.5 427,-931.5 427,-912.5 366,-912.5"/>
<text text-anchor="middle" x="396.5" y="-919.5" font-family="Helvetica,sans-Serif" font-size="10.00">io_readline</text>
</a>
</g>
</g>
<!-- Node3&#45;&gt;Node19 -->
<g id="edge19" class="edge"><title>Node3&#45;&gt;Node19</title>
<path fill="none" stroke="midnightblue" d="M269.664,-542.955C275.883,-613.106 299.851,-847.158 347,-903 351.901,-908.804 358.807,-912.845 365.875,-915.655"/>
<polygon fill="midnightblue" stroke="midnightblue" points="273.137,-542.484 268.79,-532.822 266.163,-543.086 273.137,-542.484"/>
</g>
<!-- Node20 -->
<g id="node20" class="node"><title>Node20</title>
<g id="a_node20"><a xlink:href="../../d8/dd3/lbaselib_8c.html#a8ba9378d5d46ef34a7429d52c3f3e4c7" target="_top" xlink:title="luaB_assert">
<polygon fill="none" stroke="black" points="362.5,-874.5 362.5,-893.5 430.5,-893.5 430.5,-874.5 362.5,-874.5"/>
<text text-anchor="middle" x="396.5" y="-881.5" font-family="Helvetica,sans-Serif" font-size="10.00">luaB_assert</text>
</a>
</g>
</g>
<!-- Node3&#45;&gt;Node20 -->
<g id="edge20" class="edge"><title>Node3&#45;&gt;Node20</title>
<path fill="none" stroke="midnightblue" d="M270.176,-543.044C277.661,-608.636 304.266,-815.504 347,-865 351.137,-869.791 356.638,-873.383 362.447,-876.073"/>
<polygon fill="midnightblue" stroke="midnightblue" points="273.623,-542.372 269.035,-532.822 266.666,-543.148 273.623,-542.372"/>
</g>
<!-- Node21 -->
<g id="node21" class="node"><title>Node21</title>
<g id="a_node21"><a xlink:href="../../d8/dd3/lbaselib_8c.html#a865eb761a305c588d6940da5272375b7" target="_top" xlink:title="luaB_print">
<polygon fill="none" stroke="black" points="367,-836.5 367,-855.5 426,-855.5 426,-836.5 367,-836.5"/>
<text text-anchor="middle" x="396.5" y="-843.5" font-family="Helvetica,sans-Serif" font-size="10.00">luaB_print</text>
</a>
</g>
</g>
<!-- Node3&#45;&gt;Node21 -->
<g id="edge21" class="edge"><title>Node3&#45;&gt;Node21</title>
<path fill="none" stroke="midnightblue" d="M267.343,-542.647C266.651,-595.507 271.971,-742.454 347,-827 352.222,-832.885 359.496,-836.964 366.825,-839.785"/>
<polygon fill="midnightblue" stroke="midnightblue" points="270.843,-542.668 267.567,-532.593 263.845,-542.512 270.843,-542.668"/>
</g>
<!-- Node22 -->
<g id="node22" class="node"><title>Node22</title>
<g id="a_node22"><a xlink:href="../../d8/dd3/lbaselib_8c.html#af7799a987ba6d158a96a52e80fb5beaf" target="_top" xlink:title="luaB_setmetatable">
<polygon fill="none" stroke="black" points="348.5,-798.5 348.5,-817.5 444.5,-817.5 444.5,-798.5 348.5,-798.5"/>
<text text-anchor="middle" x="396.5" y="-805.5" font-family="Helvetica,sans-Serif" font-size="10.00">luaB_setmetatable</text>
</a>
</g>
</g>
<!-- Node3&#45;&gt;Node22 -->
<g id="edge22" class="edge"><title>Node3&#45;&gt;Node22</title>
<path fill="none" stroke="midnightblue" d="M268.232,-542.742C269.858,-591.092 280.619,-716.746 347,-789 350.549,-792.862 354.979,-795.95 359.709,-798.416"/>
<polygon fill="midnightblue" stroke="midnightblue" points="271.73,-542.585 267.994,-532.671 264.732,-542.751 271.73,-542.585"/>
</g>
<!-- Node23 -->
<g id="node23" class="node"><title>Node23</title>
<g id="a_node23"><a xlink:href="../../da/d29/lauxlib_8h.html#a526c220d17273c63ce9973bcde4a2c4a" target="_top" xlink:title="luaL_argerror">
<polygon fill="none" stroke="red" points="361,-760.5 361,-779.5 432,-779.5 432,-760.5 361,-760.5"/>
<text text-anchor="middle" x="396.5" y="-767.5" font-family="Helvetica,sans-Serif" font-size="10.00">luaL_argerror</text>
</a>
</g>
</g>
<!-- Node3&#45;&gt;Node23 -->
<g id="edge23" class="edge"><title>Node3&#45;&gt;Node23</title>
<path fill="none" stroke="midnightblue" d="M269.402,-542.806C273.509,-586.251 289.18,-690.829 347,-751 350.885,-755.043 355.733,-758.242 360.849,-760.769"/>
<polygon fill="midnightblue" stroke="midnightblue" points="272.878,-542.372 268.556,-532.699 265.903,-542.956 272.878,-542.372"/>
</g>
<!-- Node24 -->
<g id="node24" class="node"><title>Node24</title>
<g id="a_node24"><a xlink:href="../../da/d29/lauxlib_8h.html#a724f5a5aeee97c0b40948c8bca91341c" target="_top" xlink:title="luaL_checkstack">
<polygon fill="none" stroke="red" points="353.5,-76.5 353.5,-95.5 439.5,-95.5 439.5,-76.5 353.5,-76.5"/>
<text text-anchor="middle" x="396.5" y="-83.5" font-family="Helvetica,sans-Serif" font-size="10.00">luaL_checkstack</text>
</a>
</g>
</g>
<!-- Node3&#45;&gt;Node24 -->
<g id="edge24" class="edge"><title>Node3&#45;&gt;Node24</title>
<path fill="none" stroke="midnightblue" d="M304.6,-510.536C307.029,-508.651 309.214,-506.486 311,-504 413.588,-361.187 247.539,-255.008 347,-110 351.304,-103.725 357.74,-99.0177 364.528,-95.5149"/>
<polygon fill="midnightblue" stroke="midnightblue" points="302.396,-507.777 295.625,-515.926 306,-513.778 302.396,-507.777"/>
</g>
<!-- Node25 -->
<g id="node25" class="node"><title>Node25</title>
<g id="a_node25"><a xlink:href="../../da/d29/lauxlib_8h.html#a20b0480f0d1e4d1b2cbf74f667e7ca24" target="_top" xlink:title="luaL_checkversion_">
<polygon fill="none" stroke="black" points="347,-950.5 347,-969.5 446,-969.5 446,-950.5 347,-950.5"/>
<text text-anchor="middle" x="396.5" y="-957.5" font-family="Helvetica,sans-Serif" font-size="10.00">luaL_checkversion_</text>
</a>
</g>
</g>
<!-- Node3&#45;&gt;Node25 -->
<g id="edge26" class="edge"><title>Node3&#45;&gt;Node25</title>
<path fill="none" stroke="midnightblue" d="M269.254,-542.979C274.307,-617.589 295.44,-878.796 347,-941 350.232,-944.899 354.37,-948.001 358.865,-950.469"/>
<polygon fill="midnightblue" stroke="midnightblue" points="272.724,-542.415 268.579,-532.665 265.739,-542.873 272.724,-542.415"/>
</g>
<!-- Node26 -->
<g id="node26" class="node"><title>Node26</title>
<g id="a_node26"><a xlink:href="../../da/d29/lauxlib_8h.html#a6f33f64067614a25031412f405a77873" target="_top" xlink:title="luaL_len">
<polygon fill="none" stroke="red" points="370.5,-722.5 370.5,-741.5 422.5,-741.5 422.5,-722.5 370.5,-722.5"/>
<text text-anchor="middle" x="396.5" y="-729.5" font-family="Helvetica,sans-Serif" font-size="10.00">luaL_len</text>
</a>
</g>
</g>
<!-- Node3&#45;&gt;Node26 -->
<g id="edge27" class="edge"><title>Node3&#45;&gt;Node26</title>
<path fill="none" stroke="midnightblue" d="M271.046,-543.073C277.85,-581.235 297.738,-664.746 347,-713 353.396,-719.265 362.098,-723.526 370.366,-726.396"/>
<polygon fill="midnightblue" stroke="midnightblue" points="274.427,-542.066 269.337,-532.774 267.522,-543.212 274.427,-542.066"/>
</g>
<!-- Node27 -->
<g id="node27" class="node"><title>Node27</title>
<g id="a_node27"><a xlink:href="../../da/d29/lauxlib_8h.html#a0fb6d10de24960ceed452061b47c2c06" target="_top" xlink:title="luaL_prepbuffsize">
<polygon fill="none" stroke="red" points="350.5,-684.5 350.5,-703.5 442.5,-703.5 442.5,-684.5 350.5,-684.5"/>
<text text-anchor="middle" x="396.5" y="-691.5" font-family="Helvetica,sans-Serif" font-size="10.00">luaL_prepbuffsize</text>
</a>
</g>
</g>
<!-- Node3&#45;&gt;Node27 -->
<g id="edge28" class="edge"><title>Node3&#45;&gt;Node27</title>
<path fill="none" stroke="midnightblue" d="M273.254,-542.55C282.787,-574.489 305.855,-637.998 347,-675 351.303,-678.87 356.486,-681.993 361.84,-684.5"/>
<polygon fill="midnightblue" stroke="midnightblue" points="276.544,-541.324 270.439,-532.665 269.812,-543.241 276.544,-541.324"/>
</g>
<!-- Node28 -->
<g id="node28" class="node"><title>Node28</title>
<g id="a_node28"><a xlink:href="../../dc/d77/lstrlib_8c.html#aacb8f9104a816720da707ecf5219a96e" target="_top" xlink:title="matchbalance">
<polygon fill="none" stroke="black" points="358,-266.5 358,-285.5 435,-285.5 435,-266.5 358,-266.5"/>
<text text-anchor="middle" x="396.5" y="-273.5" font-family="Helvetica,sans-Serif" font-size="10.00">matchbalance</text>
</a>
</g>
</g>
<!-- Node3&#45;&gt;Node28 -->
<g id="edge30" class="edge"><title>Node3&#45;&gt;Node28</title>
<path fill="none" stroke="midnightblue" d="M304.573,-510.238C306.976,-508.421 309.164,-506.353 311,-504 368.988,-429.691 287.439,-368.054 347,-295 350.086,-291.215 354.028,-288.182 358.327,-285.751"/>
<polygon fill="midnightblue" stroke="midnightblue" points="302.564,-507.361 295.777,-515.496 306.156,-513.369 302.564,-507.361"/>
</g>
<!-- Node29 -->
<g id="node29" class="node"><title>Node29</title>
<g id="a_node29"><a xlink:href="../../d1/d6a/lmathlib_8c.html#aa3ad02d4204d21d35a0825281915fb22" target="_top" xlink:title="math_random">
<polygon fill="none" stroke="black" points="359.5,-988.5 359.5,-1007.5 433.5,-1007.5 433.5,-988.5 359.5,-988.5"/>
<text text-anchor="middle" x="396.5" y="-995.5" font-family="Helvetica,sans-Serif" font-size="10.00">math_random</text>
</a>
</g>
</g>
<!-- Node3&#45;&gt;Node29 -->
<g id="edge32" class="edge"><title>Node3&#45;&gt;Node29</title>
<path fill="none" stroke="midnightblue" d="M268.897,-542.757C272.833,-621.278 290.955,-910.326 347,-979 350.316,-983.064 354.619,-986.261 359.292,-988.777"/>
<polygon fill="midnightblue" stroke="midnightblue" points="272.392,-542.571 268.417,-532.75 265.4,-542.907 272.392,-542.571"/>
</g>
<!-- Node30 -->
<g id="node30" class="node"><title>Node30</title>
<g id="a_node30"><a xlink:href="../../de/df3/liolib_8c.html#a91ec9c6fa0ef33085f29a15532ac80a7" target="_top" xlink:title="opencheck">
<polygon fill="none" stroke="red" points="365.5,-646.5 365.5,-665.5 427.5,-665.5 427.5,-646.5 365.5,-646.5"/>
<text text-anchor="middle" x="396.5" y="-653.5" font-family="Helvetica,sans-Serif" font-size="10.00">opencheck</text>
</a>
</g>
</g>
<!-- Node3&#45;&gt;Node30 -->
<g id="edge33" class="edge"><title>Node3&#45;&gt;Node30</title>
<path fill="none" stroke="midnightblue" d="M277.732,-541.612C290.824,-565.183 316.072,-605.866 347,-632 353.889,-637.821 362.431,-642.651 370.419,-646.415"/>
<polygon fill="midnightblue" stroke="midnightblue" points="280.721,-539.781 272.885,-532.651 274.564,-543.112 280.721,-539.781"/>
</g>
<!-- Node4&#45;&gt;Node5 -->
<g id="edge4" class="edge"><title>Node4&#45;&gt;Node5</title>
<path fill="none" stroke="midnightblue" d="M428.803,-584.875C447.427,-587.776 470.936,-591.437 489.352,-594.305"/>
<polygon fill="midnightblue" stroke="midnightblue" points="429.17,-581.39 418.751,-583.31 428.093,-588.307 429.17,-581.39"/>
</g>
<!-- Node11&#45;&gt;Node12 -->
<g id="edge12" class="edge"><title>Node11&#45;&gt;Node12</title>
<path fill="none" stroke="midnightblue" d="M434.294,-314C455.591,-314 481.586,-314 499.223,-314"/>
<polygon fill="midnightblue" stroke="midnightblue" points="434.273,-310.5 424.273,-314 434.273,-317.5 434.273,-310.5"/>
</g>
<!-- Node24&#45;&gt;Node16 -->
<g id="edge25" class="edge"><title>Node24&#45;&gt;Node16</title>
<path fill="none" stroke="midnightblue" d="M449.926,-94.1647C460.619,-95.8301 471.672,-97.5513 481.733,-99.1182"/>
<polygon fill="midnightblue" stroke="midnightblue" points="450.247,-90.6726 439.827,-92.592 449.17,-97.5892 450.247,-90.6726"/>
</g>
<!-- Node28&#45;&gt;Node12 -->
<g id="edge31" class="edge"><title>Node28&#45;&gt;Node12</title>
<path fill="none" stroke="midnightblue" d="M438.076,-288.638C458.692,-295.06 482.828,-302.577 499.44,-307.752"/>
<polygon fill="midnightblue" stroke="midnightblue" points="438.874,-285.221 428.286,-285.589 436.792,-291.905 438.874,-285.221"/>
</g>
<!-- Node35 -->
<g id="node35" class="node"><title>Node35</title>
<g id="a_node35"><a xlink:href="../../da/dd2/lua_8h.html#a77807056ba032d64b2def2b57dc53d53" target="_top" xlink:title="lua_pushnumber">
<polygon fill="none" stroke="red" points="223,-979.5 223,-998.5 311,-998.5 311,-979.5 223,-979.5"/>
<text text-anchor="middle" x="267" y="-986.5" font-family="Helvetica,sans-Serif" font-size="10.00">lua_pushnumber</text>
</a>
</g>
</g>
<!-- Node34&#45;&gt;Node35 -->
<g id="edge38" class="edge"><title>Node34&#45;&gt;Node35</title>
<path fill="none" stroke="midnightblue" d="M151.832,-1234.11C153.632,-1188.53 164.144,-1075.27 223,-1008 226.332,-1004.19 230.572,-1001.11 235.085,-998.635"/>
<polygon fill="midnightblue" stroke="midnightblue" points="148.332,-1234.07 151.538,-1244.17 155.329,-1234.28 148.332,-1234.07"/>
</g>
<!-- Node36 -->
<g id="node36" class="node"><title>Node36</title>
<g id="a_node36"><a xlink:href="../../db/d46/ldebug_8h.html#a375161dd1513420561f20f0b4c7b7e66" target="_top" xlink:title="luaG_typeerror">
<polygon fill="none" stroke="red" points="227.5,-1187.5 227.5,-1206.5 306.5,-1206.5 306.5,-1187.5 227.5,-1187.5"/>
<text text-anchor="middle" x="267" y="-1194.5" font-family="Helvetica,sans-Serif" font-size="10.00">luaG_typeerror</text>
</a>
</g>
</g>
<!-- Node34&#45;&gt;Node36 -->
<g id="edge41" class="edge"><title>Node34&#45;&gt;Node36</title>
<path fill="none" stroke="midnightblue" d="M179.698,-1239.96C200.559,-1229.58 228.422,-1215.71 246.773,-1206.57"/>
<polygon fill="midnightblue" stroke="midnightblue" points="178.057,-1236.87 170.665,-1244.46 181.177,-1243.14 178.057,-1236.87"/>
</g>
<!-- Node37 -->
<g id="node37" class="node"><title>Node37</title>
<g id="a_node37"><a xlink:href="../../d5/dcd/lvm_8h.html#adacdbccc9d8fab937a1b0dc058c8da12" target="_top" xlink:title="luaV_gettable">
<polygon fill="none" stroke="red" points="359,-1216.5 359,-1235.5 434,-1235.5 434,-1216.5 359,-1216.5"/>
<text text-anchor="middle" x="396.5" y="-1223.5" font-family="Helvetica,sans-Serif" font-size="10.00">luaV_gettable</text>
</a>
</g>
</g>
<!-- Node34&#45;&gt;Node37 -->
<g id="edge60" class="edge"><title>Node34&#45;&gt;Node37</title>
<path fill="none" stroke="midnightblue" d="M197.402,-1248.73C244.166,-1243.37 315.764,-1235.15 358.865,-1230.2"/>
<polygon fill="midnightblue" stroke="midnightblue" points="196.777,-1245.28 187.241,-1249.9 197.575,-1252.24 196.777,-1245.28"/>
</g>
<!-- Node38 -->
<g id="node38" class="node"><title>Node38</title>
<g id="a_node38"><a xlink:href="../../d5/dcd/lvm_8h.html#ae93565adc36c6e2157dbbd875433ede1" target="_top" xlink:title="luaV_execute">
<polygon fill="none" stroke="red" points="483.5,-1216.5 483.5,-1235.5 557.5,-1235.5 557.5,-1216.5 483.5,-1216.5"/>
<text text-anchor="middle" x="520.5" y="-1223.5" font-family="Helvetica,sans-Serif" font-size="10.00">luaV_execute</text>
</a>
</g>
</g>
<!-- Node34&#45;&gt;Node38 -->
<g id="edge65" class="edge"><title>Node34&#45;&gt;Node38</title>
<path fill="none" stroke="midnightblue" d="M197.477,-1256.24C255.723,-1258.25 358.998,-1259.02 446,-1245 459.923,-1242.76 475.047,-1239.07 487.937,-1235.54"/>
<polygon fill="midnightblue" stroke="midnightblue" points="197.263,-1252.73 187.139,-1255.85 197.002,-1259.73 197.263,-1252.73"/>
</g>
<!-- Node39 -->
<g id="node39" class="node"><title>Node39</title>
<g id="a_node39"><a xlink:href="../../d2/dd9/ldo_8h.html#a7bb0b106d4012134156e0fa240f51228" target="_top" xlink:title="luaD_call">
<polygon fill="none" stroke="red" points="595,-1216.5 595,-1235.5 651,-1235.5 651,-1216.5 595,-1216.5"/>
<text text-anchor="middle" x="623" y="-1223.5" font-family="Helvetica,sans-Serif" font-size="10.00">luaD_call</text>
</a>
</g>
</g>
<!-- Node34&#45;&gt;Node39 -->
<g id="edge50" class="edge"><title>Node34&#45;&gt;Node39</title>
<path fill="none" stroke="midnightblue" d="M153.059,-1274C158.336,-1335.88 177.782,-1522.18 223,-1558 253.659,-1582.28 275.115,-1573.56 311,-1558 474.766,-1487.01 591.763,-1282.62 616.935,-1235.68"/>
<polygon fill="midnightblue" stroke="midnightblue" points="156.517,-1273.34 152.212,-1263.66 149.54,-1273.91 156.517,-1273.34"/>
</g>
<!-- Node40 -->
<g id="node40" class="node"><title>Node40</title>
<g id="a_node40"><a xlink:href="../../d5/dcd/lvm_8h.html#a5885d48fd66eb236f8b8f6e4938cbcce" target="_top" xlink:title="luaV_settable">
<polygon fill="none" stroke="red" points="359,-1159.5 359,-1178.5 434,-1178.5 434,-1159.5 359,-1159.5"/>
<text text-anchor="middle" x="396.5" y="-1166.5" font-family="Helvetica,sans-Serif" font-size="10.00">luaV_settable</text>
</a>
</g>
</g>
<!-- Node34&#45;&gt;Node40 -->
<g id="edge61" class="edge"><title>Node34&#45;&gt;Node40</title>
<path fill="none" stroke="midnightblue" d="M157.171,-1234.5C166.163,-1207.6 186.527,-1160.18 223,-1140 274.286,-1111.63 346.287,-1142.52 378.619,-1159.44"/>
<polygon fill="midnightblue" stroke="midnightblue" points="153.743,-1233.73 154.089,-1244.32 160.422,-1235.82 153.743,-1233.73"/>
</g>
<!-- Node41 -->
<g id="node41" class="node"><title>Node41</title>
<g id="a_node41"><a xlink:href="../../db/d46/ldebug_8h.html#a7ae9c3f6343c93b4a8bb80e68706a6a3" target="_top" xlink:title="luaG_ordererror">
<polygon fill="none" stroke="red" points="227,-1529.5 227,-1548.5 307,-1548.5 307,-1529.5 227,-1529.5"/>
<text text-anchor="middle" x="267" y="-1536.5" font-family="Helvetica,sans-Serif" font-size="10.00">luaG_ordererror</text>
</a>
</g>
</g>
<!-- Node34&#45;&gt;Node41 -->
<g id="edge48" class="edge"><title>Node34&#45;&gt;Node41</title>
<path fill="none" stroke="midnightblue" d="M151.299,-1273.83C151.863,-1321.93 159.747,-1446.21 223,-1520 226.293,-1523.84 230.513,-1526.94 235.019,-1529.42"/>
<polygon fill="midnightblue" stroke="midnightblue" points="154.799,-1273.56 151.282,-1263.56 147.799,-1273.57 154.799,-1273.56"/>
</g>
<!-- Node42 -->
<g id="node42" class="node"><title>Node42</title>
<g id="a_node42"><a xlink:href="../../d2/dd9/ldo_8h.html#ab83418a7edbfafe87886f156aa6a9988" target="_top" xlink:title="luaD_growstack">
<polygon fill="none" stroke="red" points="224,-1491.5 224,-1510.5 310,-1510.5 310,-1491.5 224,-1491.5"/>
<text text-anchor="middle" x="267" y="-1498.5" font-family="Helvetica,sans-Serif" font-size="10.00">luaD_growstack</text>
</a>
</g>
</g>
<!-- Node34&#45;&gt;Node42 -->
<g id="edge49" class="edge"><title>Node34&#45;&gt;Node42</title>
<path fill="none" stroke="midnightblue" d="M152.365,-1273.59C155.273,-1316.61 167.935,-1420.38 223,-1482 226.372,-1485.77 230.633,-1488.83 235.154,-1491.3"/>
<polygon fill="midnightblue" stroke="midnightblue" points="155.859,-1273.37 151.796,-1263.59 148.87,-1273.77 155.859,-1273.37"/>
</g>
<!-- Node43 -->
<g id="node43" class="node"><title>Node43</title>
<g id="a_node43"><a xlink:href="../../da/dd2/lua_8h.html#ab717ff0354e9c39199b16a1c412fa252" target="_top" xlink:title="lua_yieldk">
<polygon fill="none" stroke="black" points="238,-1453.5 238,-1472.5 296,-1472.5 296,-1453.5 238,-1453.5"/>
<text text-anchor="middle" x="267" y="-1460.5" font-family="Helvetica,sans-Serif" font-size="10.00">lua_yieldk</text>
</a>
</g>
</g>
<!-- Node34&#45;&gt;Node43 -->
<g id="edge51" class="edge"><title>Node34&#45;&gt;Node43</title>
<path fill="none" stroke="midnightblue" d="M153.866,-1273.86C159.356,-1311.65 176.263,-1394.56 223,-1444 227.149,-1448.39 232.492,-1451.83 237.993,-1454.5"/>
<polygon fill="midnightblue" stroke="midnightblue" points="157.298,-1273.11 152.509,-1263.66 150.36,-1274.04 157.298,-1273.11"/>
</g>
<!-- Node44 -->
<g id="node44" class="node"><title>Node44</title>
<g id="a_node44"><a xlink:href="../../d7/d3e/lmem_8h.html#a9adb7e11025b0b91454ae7949bc8d370" target="_top" xlink:title="luaM_growaux_">
<polygon fill="none" stroke="black" points="224,-1415.5 224,-1434.5 310,-1434.5 310,-1415.5 224,-1415.5"/>
<text text-anchor="middle" x="267" y="-1422.5" font-family="Helvetica,sans-Serif" font-size="10.00">luaM_growaux_</text>
</a>
</g>
</g>
<!-- Node34&#45;&gt;Node44 -->
<g id="edge52" class="edge"><title>Node34&#45;&gt;Node44</title>
<path fill="none" stroke="midnightblue" d="M155.902,-1273.35C164.02,-1304.99 184.181,-1368.09 223,-1406 226.854,-1409.76 231.578,-1412.85 236.469,-1415.36"/>
<polygon fill="midnightblue" stroke="midnightblue" points="159.285,-1272.45 153.522,-1263.56 152.483,-1274.1 159.285,-1272.45"/>
</g>
<!-- Node45 -->
<g id="node45" class="node"><title>Node45</title>
<g id="a_node45"><a xlink:href="../../d7/d3e/lmem_8h.html#a23b8703b7b50e1c5dd37d41569a09a9a" target="_top" xlink:title="luaM_toobig">
<polygon fill="none" stroke="red" points="233,-1377.5 233,-1396.5 301,-1396.5 301,-1377.5 233,-1377.5"/>
<text text-anchor="middle" x="267" y="-1384.5" font-family="Helvetica,sans-Serif" font-size="10.00">luaM_toobig</text>
</a>
</g>
</g>
<!-- Node34&#45;&gt;Node45 -->
<g id="edge53" class="edge"><title>Node34&#45;&gt;Node45</title>
<path fill="none" stroke="midnightblue" d="M159.159,-1272.98C170.024,-1297.8 192.084,-1341.25 223,-1368 227.32,-1371.74 232.493,-1374.85 237.729,-1377.41"/>
<polygon fill="midnightblue" stroke="midnightblue" points="162.308,-1271.44 155.195,-1263.59 155.859,-1274.16 162.308,-1271.44"/>
</g>
<!-- Node46 -->
<g id="node46" class="node"><title>Node46</title>
<g id="a_node46"><a xlink:href="../../d2/d51/lobject_8h.html#a0d323372aa00f179e1c070d305f879f3" target="_top" xlink:title="luaO_pushvfstring">
<polygon fill="none" stroke="red" points="349.5,-1064.5 349.5,-1083.5 443.5,-1083.5 443.5,-1064.5 349.5,-1064.5"/>
<text text-anchor="middle" x="396.5" y="-1071.5" font-family="Helvetica,sans-Serif" font-size="10.00">luaO_pushvfstring</text>
</a>
</g>
</g>
<!-- Node34&#45;&gt;Node46 -->
<g id="edge54" class="edge"><title>Node34&#45;&gt;Node46</title>
<path fill="none" stroke="midnightblue" d="M155.386,-1234.46C163.395,-1203.8 184.316,-1145.97 223,-1115 259.27,-1085.97 311.755,-1073.79 349.294,-1070.46"/>
<polygon fill="midnightblue" stroke="midnightblue" points="151.925,-1233.88 153.01,-1244.42 158.734,-1235.51 151.925,-1233.88"/>
</g>
<!-- Node47 -->
<g id="node47" class="node"><title>Node47</title>
<g id="a_node47"><a xlink:href="../../dc/d1e/ltable_8c.html#a4c78714b16a133fb409681f8ca4240be" target="_top" xlink:title="findindex">
<polygon fill="none" stroke="red" points="240.5,-1339.5 240.5,-1358.5 293.5,-1358.5 293.5,-1339.5 240.5,-1339.5"/>
<text text-anchor="middle" x="267" y="-1346.5" font-family="Helvetica,sans-Serif" font-size="10.00">findindex</text>
</a>
</g>
</g>
<!-- Node34&#45;&gt;Node47 -->
<g id="edge56" class="edge"><title>Node34&#45;&gt;Node47</title>
<path fill="none" stroke="midnightblue" d="M164.909,-1271.95C178.17,-1288.73 199.795,-1313.57 223,-1330 228.196,-1333.68 234.218,-1336.88 240.079,-1339.55"/>
<polygon fill="midnightblue" stroke="midnightblue" points="167.324,-1269.35 158.445,-1263.57 161.781,-1273.63 167.324,-1269.35"/>
</g>
<!-- Node48 -->
<g id="node48" class="node"><title>Node48</title>
<g id="a_node48"><a xlink:href="../../dc/d1e/ltable_8c.html#ad5ff1c819f2ab4e96904822b915ae290" target="_top" xlink:title="setnodevector">
<polygon fill="none" stroke="red" points="229.5,-1301.5 229.5,-1320.5 304.5,-1320.5 304.5,-1301.5 229.5,-1301.5"/>
<text text-anchor="middle" x="267" y="-1308.5" font-family="Helvetica,sans-Serif" font-size="10.00">setnodevector</text>
</a>
</g>
</g>
<!-- Node34&#45;&gt;Node48 -->
<g id="edge57" class="edge"><title>Node34&#45;&gt;Node48</title>
<path fill="none" stroke="midnightblue" d="M179.698,-1268.04C200.559,-1278.42 228.422,-1292.29 246.773,-1301.43"/>
<polygon fill="midnightblue" stroke="midnightblue" points="181.177,-1264.86 170.665,-1263.54 178.057,-1271.13 181.177,-1264.86"/>
</g>
<!-- Node49 -->
<g id="node49" class="node"><title>Node49</title>
<g id="a_node49"><a xlink:href="../../d3/d44/ltable_8h.html#a61547e63b2d74aa68da53a7fd235e77e" target="_top" xlink:title="luaH_newkey">
<polygon fill="none" stroke="red" points="229.5,-1149.5 229.5,-1168.5 304.5,-1168.5 304.5,-1149.5 229.5,-1149.5"/>
<text text-anchor="middle" x="267" y="-1156.5" font-family="Helvetica,sans-Serif" font-size="10.00">luaH_newkey</text>
</a>
</g>
</g>
<!-- Node34&#45;&gt;Node49 -->
<g id="edge58" class="edge"><title>Node34&#45;&gt;Node49</title>
<path fill="none" stroke="midnightblue" d="M164.909,-1236.05C178.17,-1219.27 199.795,-1194.43 223,-1178 228.063,-1174.42 233.909,-1171.29 239.628,-1168.66"/>
<polygon fill="midnightblue" stroke="midnightblue" points="161.781,-1234.37 158.445,-1244.43 167.324,-1238.65 161.781,-1234.37"/>
</g>
<!-- Node50 -->
<g id="node50" class="node"><title>Node50</title>
<g id="a_node50"><a xlink:href="../../d5/dcd/lvm_8h.html#aee84bfc563cb4bdd21a013218a289aa7" target="_top" xlink:title="luaV_concat">
<polygon fill="none" stroke="red" points="232.5,-1017.5 232.5,-1036.5 301.5,-1036.5 301.5,-1017.5 232.5,-1017.5"/>
<text text-anchor="middle" x="267" y="-1024.5" font-family="Helvetica,sans-Serif" font-size="10.00">luaV_concat</text>
</a>
</g>
</g>
<!-- Node34&#45;&gt;Node50 -->
<g id="edge62" class="edge"><title>Node34&#45;&gt;Node50</title>
<path fill="none" stroke="midnightblue" d="M153.766,-1234.27C159.18,-1195.13 176.105,-1106.65 223,-1051 228.068,-1044.99 235.047,-1040.19 241.909,-1036.52"/>
<polygon fill="midnightblue" stroke="midnightblue" points="150.275,-1233.98 152.482,-1244.34 157.219,-1234.86 150.275,-1233.98"/>
</g>
<!-- Node35&#45;&gt;Node25 -->
<g id="edge39" class="edge"><title>Node35&#45;&gt;Node25</title>
<path fill="none" stroke="midnightblue" d="M320.111,-977.147C331.204,-974.624 342.782,-971.991 353.443,-969.566"/>
<polygon fill="midnightblue" stroke="midnightblue" points="319.076,-973.793 310.102,-979.424 320.629,-980.619 319.076,-973.793"/>
</g>
<!-- Node35&#45;&gt;Node29 -->
<g id="edge40" class="edge"><title>Node35&#45;&gt;Node29</title>
<path fill="none" stroke="midnightblue" d="M321.246,-992.759C334.02,-993.66 347.374,-994.603 359.177,-995.436"/>
<polygon fill="midnightblue" stroke="midnightblue" points="321.387,-989.26 311.166,-992.047 320.894,-996.243 321.387,-989.26"/>
</g>
<!-- Node36&#45;&gt;Node37 -->
<g id="edge42" class="edge"><title>Node36&#45;&gt;Node37</title>
<path fill="none" stroke="midnightblue" d="M316.573,-1208.05C330.578,-1211.23 345.621,-1214.65 358.778,-1217.65"/>
<polygon fill="midnightblue" stroke="midnightblue" points="317.127,-1204.58 306.6,-1205.78 315.575,-1211.41 317.127,-1204.58"/>
</g>
<!-- Node36&#45;&gt;Node40 -->
<g id="edge46" class="edge"><title>Node36&#45;&gt;Node40</title>
<path fill="none" stroke="midnightblue" d="M316.573,-1186.33C330.578,-1183.26 345.621,-1179.95 358.778,-1177.06"/>
<polygon fill="midnightblue" stroke="midnightblue" points="315.617,-1182.96 306.6,-1188.52 317.118,-1189.8 315.617,-1182.96"/>
</g>
<!-- Node37&#45;&gt;Node38 -->
<g id="edge43" class="edge"><title>Node37&#45;&gt;Node38</title>
<path fill="none" stroke="midnightblue" d="M444.255,-1226C457.216,-1226 471.086,-1226 483.342,-1226"/>
<polygon fill="midnightblue" stroke="midnightblue" points="444.104,-1222.5 434.104,-1226 444.104,-1229.5 444.104,-1222.5"/>
</g>
<!-- Node38&#45;&gt;Node39 -->
<g id="edge44" class="edge"><title>Node38&#45;&gt;Node39</title>
<path fill="none" stroke="midnightblue" d="M568.041,-1219.27C577.249,-1219.18 586.623,-1219.41 594.919,-1219.93"/>
<polygon fill="midnightblue" stroke="midnightblue" points="567.705,-1215.77 557.783,-1219.49 567.856,-1222.77 567.705,-1215.77"/>
</g>
<!-- Node39&#45;&gt;Node38 -->
<g id="edge45" class="edge"><title>Node39&#45;&gt;Node38</title>
<path fill="none" stroke="midnightblue" d="M584.873,-1232.54C576.024,-1232.83 566.593,-1232.82 557.783,-1232.51"/>
<polygon fill="midnightblue" stroke="midnightblue" points="585.095,-1236.03 594.919,-1232.07 584.765,-1229.04 585.095,-1236.03"/>
</g>
<!-- Node40&#45;&gt;Node38 -->
<g id="edge47" class="edge"><title>Node40&#45;&gt;Node38</title>
<path fill="none" stroke="midnightblue" d="M427.245,-1182.9C449.504,-1193.3 479.373,-1207.25 499.013,-1216.43"/>
<polygon fill="midnightblue" stroke="midnightblue" points="428.462,-1179.6 417.92,-1178.54 425.498,-1185.94 428.462,-1179.6"/>
</g>
<!-- Node46&#45;&gt;Node34 -->
<g id="edge55" class="edge"><title>Node46&#45;&gt;Node34</title>
<path fill="none" stroke="midnightblue" d="M346.85,-1085.36C309.504,-1092.32 258.489,-1104.59 223,-1133 184.592,-1163.74 163.695,-1220.98 155.559,-1244.32"/>
<polygon fill="midnightblue" stroke="midnightblue" points="347.777,-1088.75 356.996,-1083.53 346.534,-1081.86 347.777,-1088.75"/>
</g>
<!-- Node49&#45;&gt;Node40 -->
<g id="edge59" class="edge"><title>Node49&#45;&gt;Node40</title>
<path fill="none" stroke="midnightblue" d="M314.859,-1162.68C329.407,-1163.82 345.22,-1165.06 358.958,-1166.13"/>
<polygon fill="midnightblue" stroke="midnightblue" points="314.779,-1159.16 304.536,-1161.87 314.232,-1166.14 314.779,-1159.16"/>
</g>
<!-- Node50&#45;&gt;Node38 -->
<g id="edge64" class="edge"><title>Node50&#45;&gt;Node38</title>
<path fill="none" stroke="midnightblue" d="M311.621,-1022.74C350.769,-1021.28 407.787,-1025.32 446,-1055 500.1,-1097.03 515.003,-1186.72 518.527,-1216.31"/>
<polygon fill="midnightblue" stroke="midnightblue" points="311.39,-1019.24 301.58,-1023.24 311.744,-1026.23 311.39,-1019.24"/>
</g>
<!-- Node50&#45;&gt;Node46 -->
<g id="edge63" class="edge"><title>Node50&#45;&gt;Node46</title>
<path fill="none" stroke="midnightblue" d="M303.297,-1040.01C324.197,-1047.72 350.23,-1057.31 369.299,-1064.34"/>
<polygon fill="midnightblue" stroke="midnightblue" points="304.395,-1036.69 293.802,-1036.51 301.974,-1043.25 304.395,-1036.69"/>
</g>
</g>
</svg>
