<?xml version="1.0" encoding="UTF-8" standalone="no"?>
<!DOCTYPE svg PUBLIC "-//W3C//DTD SVG 1.1//EN"
 "http://www.w3.org/Graphics/SVG/1.1/DTD/svg11.dtd">
<!-- Generated by graphviz version 2.38.0 (20140413.2041)
 -->
<!-- Title: addinfo Pages: 1 -->
<svg width="628pt" height="1795pt"
 viewBox="0.00 0.00 628.00 1795.35" xmlns="http://www.w3.org/2000/svg" xmlns:xlink="http://www.w3.org/1999/xlink">
<g id="graph0" class="graph" transform="scale(1 1) rotate(0) translate(4 1791.35)">
<title>addinfo</title>
<!-- Node1 -->
<g id="node1" class="node"><title>Node1</title>
<polygon fill="#bfbfbf" stroke="black" points="0,-285.849 0,-304.849 47,-304.849 47,-285.849 0,-285.849"/>
<text text-anchor="middle" x="23.5" y="-292.849" font-family="Helvetica,sans-Serif" font-size="10.00">addinfo</text>
</g>
<!-- Node2 -->
<g id="node2" class="node"><title>Node2</title>
<g id="a_node2"><a xlink:href="../../db/d46/ldebug_8h.html#a6f27f64630215e18a11be9ba21d3c4bf" target="_top" xlink:title="luaG_runerror">
<polygon fill="none" stroke="black" points="83,-285.849 83,-304.849 156,-304.849 156,-285.849 83,-285.849"/>
<text text-anchor="middle" x="119.5" y="-292.849" font-family="Helvetica,sans-Serif" font-size="10.00">luaG_runerror</text>
</a>
</g>
</g>
<!-- Node1&#45;&gt;Node2 -->
<g id="edge1" class="edge"><title>Node1&#45;&gt;Node2</title>
<path fill="none" stroke="midnightblue" d="M57.2577,-295.349C65.4953,-295.349 74.3775,-295.349 82.7532,-295.349"/>
<polygon fill="midnightblue" stroke="midnightblue" points="57.2548,-291.849 47.2548,-295.349 57.2547,-298.849 57.2548,-291.849"/>
</g>
<!-- Node3 -->
<g id="node3" class="node"><title>Node3</title>
<g id="a_node3"><a xlink:href="../../da/dd2/lua_8h.html#a77807056ba032d64b2def2b57dc53d53" target="_top" xlink:title="lua_pushnumber">
<polygon fill="none" stroke="red" points="192,-1159.85 192,-1178.85 280,-1178.85 280,-1159.85 192,-1159.85"/>
<text text-anchor="middle" x="236" y="-1166.85" font-family="Helvetica,sans-Serif" font-size="10.00">lua_pushnumber</text>
</a>
</g>
</g>
<!-- Node2&#45;&gt;Node3 -->
<g id="edge2" class="edge"><title>Node2&#45;&gt;Node3</title>
<path fill="none" stroke="midnightblue" d="M123.054,-314.845C138.798,-435.02 222.363,-1072.89 233.721,-1159.59"/>
<polygon fill="midnightblue" stroke="midnightblue" points="126.516,-314.327 121.747,-304.867 119.576,-315.237 126.516,-314.327"/>
</g>
<!-- Node36 -->
<g id="node36" class="node"><title>Node36</title>
<g id="a_node36"><a xlink:href="../../db/d46/ldebug_8h.html#a375161dd1513420561f20f0b4c7b7e66" target="_top" xlink:title="luaG_typeerror">
<polygon fill="none" stroke="red" points="196.5,-475.849 196.5,-494.849 275.5,-494.849 275.5,-475.849 196.5,-475.849"/>
<text text-anchor="middle" x="236" y="-482.849" font-family="Helvetica,sans-Serif" font-size="10.00">luaG_typeerror</text>
</a>
</g>
</g>
<!-- Node2&#45;&gt;Node36 -->
<g id="edge35" class="edge"><title>Node2&#45;&gt;Node36</title>
<path fill="none" stroke="midnightblue" d="M124.616,-315.116C132.49,-348.725 152.522,-417.608 192,-461.349 197.384,-467.315 204.612,-472.136 211.604,-475.847"/>
<polygon fill="midnightblue" stroke="midnightblue" points="127.989,-314.159 122.402,-305.157 121.156,-315.679 127.989,-314.159"/>
</g>
<!-- Node37 -->
<g id="node37" class="node"><title>Node37</title>
<g id="a_node37"><a xlink:href="../../d5/dcd/lvm_8h.html#adacdbccc9d8fab937a1b0dc058c8da12" target="_top" xlink:title="luaV_gettable">
<polygon fill="none" stroke="red" points="329.5,-475.849 329.5,-494.849 404.5,-494.849 404.5,-475.849 329.5,-475.849"/>
<text text-anchor="middle" x="367" y="-482.849" font-family="Helvetica,sans-Serif" font-size="10.00">luaV_gettable</text>
</a>
</g>
</g>
<!-- Node2&#45;&gt;Node37 -->
<g id="edge54" class="edge"><title>Node2&#45;&gt;Node37</title>
<path fill="none" stroke="midnightblue" d="M120.319,-315.09C121.13,-358.092 129.853,-459.927 192,-504.349 239.218,-538.101 312.836,-510.912 347.176,-494.93"/>
<polygon fill="midnightblue" stroke="midnightblue" points="123.819,-315.032 120.259,-305.054 116.819,-315.075 123.819,-315.032"/>
</g>
<!-- Node38 -->
<g id="node38" class="node"><title>Node38</title>
<g id="a_node38"><a xlink:href="../../d5/dcd/lvm_8h.html#ae93565adc36c6e2157dbbd875433ede1" target="_top" xlink:title="luaV_execute">
<polygon fill="none" stroke="red" points="454,-437.849 454,-456.849 528,-456.849 528,-437.849 454,-437.849"/>
<text text-anchor="middle" x="491" y="-444.849" font-family="Helvetica,sans-Serif" font-size="10.00">luaV_execute</text>
</a>
</g>
</g>
<!-- Node2&#45;&gt;Node38 -->
<g id="edge59" class="edge"><title>Node2&#45;&gt;Node38</title>
<path fill="none" stroke="midnightblue" d="M119.589,-315.205C118.693,-361.418 123.781,-476.052 192,-526.349 225.649,-551.158 409.108,-508.255 418,-504.349 443.691,-493.065 468.088,-470.355 480.827,-457.263"/>
<polygon fill="midnightblue" stroke="midnightblue" points="123.094,-315.117 119.912,-305.011 116.097,-314.896 123.094,-315.117"/>
</g>
<!-- Node39 -->
<g id="node39" class="node"><title>Node39</title>
<g id="a_node39"><a xlink:href="../../d2/dd9/ldo_8h.html#a7bb0b106d4012134156e0fa240f51228" target="_top" xlink:title="luaD_call">
<polygon fill="none" stroke="red" points="564,-437.849 564,-456.849 620,-456.849 620,-437.849 564,-437.849"/>
<text text-anchor="middle" x="592" y="-444.849" font-family="Helvetica,sans-Serif" font-size="10.00">luaD_call</text>
</a>
</g>
</g>
<!-- Node2&#45;&gt;Node39 -->
<g id="edge44" class="edge"><title>Node2&#45;&gt;Node39</title>
<path fill="none" stroke="midnightblue" d="M123.396,-275.732C131.592,-223.065 156.668,-80.5762 192,-51.3491 269.505,12.7635 334.134,16.1842 418,-39.3491 564.581,-136.41 587.32,-385.254 590.514,-437.596"/>
<polygon fill="midnightblue" stroke="midnightblue" points="119.909,-275.382 121.867,-285.795 126.83,-276.434 119.909,-275.382"/>
</g>
<!-- Node40 -->
<g id="node40" class="node"><title>Node40</title>
<g id="a_node40"><a xlink:href="../../d5/dcd/lvm_8h.html#a5885d48fd66eb236f8b8f6e4938cbcce" target="_top" xlink:title="luaV_settable">
<polygon fill="none" stroke="red" points="329.5,-437.849 329.5,-456.849 404.5,-456.849 404.5,-437.849 329.5,-437.849"/>
<text text-anchor="middle" x="367" y="-444.849" font-family="Helvetica,sans-Serif" font-size="10.00">luaV_settable</text>
</a>
</g>
</g>
<!-- Node2&#45;&gt;Node40 -->
<g id="edge55" class="edge"><title>Node2&#45;&gt;Node40</title>
<path fill="none" stroke="midnightblue" d="M124.862,-314.854C132.677,-344.803 152.119,-401.464 192,-428.349 232.82,-455.866 291.655,-456.166 329.359,-452.675"/>
<polygon fill="midnightblue" stroke="midnightblue" points="128.261,-314.02 122.493,-305.133 121.46,-315.678 128.261,-314.02"/>
</g>
<!-- Node41 -->
<g id="node41" class="node"><title>Node41</title>
<g id="a_node41"><a xlink:href="../../db/d46/ldebug_8h.html#a7ae9c3f6343c93b4a8bb80e68706a6a3" target="_top" xlink:title="luaG_ordererror">
<polygon fill="none" stroke="red" points="196,-361.849 196,-380.849 276,-380.849 276,-361.849 196,-361.849"/>
<text text-anchor="middle" x="236" y="-368.849" font-family="Helvetica,sans-Serif" font-size="10.00">luaG_ordererror</text>
</a>
</g>
</g>
<!-- Node2&#45;&gt;Node41 -->
<g id="edge42" class="edge"><title>Node2&#45;&gt;Node41</title>
<path fill="none" stroke="midnightblue" d="M138.809,-312.132C152.705,-324.311 172.659,-340.635 192,-352.349 197.724,-355.816 204.194,-359.011 210.343,-361.753"/>
<polygon fill="midnightblue" stroke="midnightblue" points="140.791,-309.21 130.999,-305.164 136.13,-314.433 140.791,-309.21"/>
</g>
<!-- Node42 -->
<g id="node42" class="node"><title>Node42</title>
<g id="a_node42"><a xlink:href="../../d2/dd9/ldo_8h.html#ab83418a7edbfafe87886f156aa6a9988" target="_top" xlink:title="luaD_growstack">
<polygon fill="none" stroke="red" points="193,-323.849 193,-342.849 279,-342.849 279,-323.849 193,-323.849"/>
<text text-anchor="middle" x="236" y="-330.849" font-family="Helvetica,sans-Serif" font-size="10.00">luaD_growstack</text>
</a>
</g>
</g>
<!-- Node2&#45;&gt;Node42 -->
<g id="edge43" class="edge"><title>Node2&#45;&gt;Node42</title>
<path fill="none" stroke="midnightblue" d="M159.147,-308.175C174.51,-313.274 191.879,-319.038 206.116,-323.763"/>
<polygon fill="midnightblue" stroke="midnightblue" points="159.987,-304.766 149.393,-304.938 157.782,-311.41 159.987,-304.766"/>
</g>
<!-- Node43 -->
<g id="node43" class="node"><title>Node43</title>
<g id="a_node43"><a xlink:href="../../da/dd2/lua_8h.html#ab717ff0354e9c39199b16a1c412fa252" target="_top" xlink:title="lua_yieldk">
<polygon fill="none" stroke="black" points="207,-285.849 207,-304.849 265,-304.849 265,-285.849 207,-285.849"/>
<text text-anchor="middle" x="236" y="-292.849" font-family="Helvetica,sans-Serif" font-size="10.00">lua_yieldk</text>
</a>
</g>
</g>
<!-- Node2&#45;&gt;Node43 -->
<g id="edge45" class="edge"><title>Node2&#45;&gt;Node43</title>
<path fill="none" stroke="midnightblue" d="M166.307,-295.349C179.954,-295.349 194.507,-295.349 206.687,-295.349"/>
<polygon fill="midnightblue" stroke="midnightblue" points="166.101,-291.849 156.101,-295.349 166.101,-298.849 166.101,-291.849"/>
</g>
<!-- Node44 -->
<g id="node44" class="node"><title>Node44</title>
<g id="a_node44"><a xlink:href="../../d7/d3e/lmem_8h.html#a9adb7e11025b0b91454ae7949bc8d370" target="_top" xlink:title="luaM_growaux_">
<polygon fill="none" stroke="black" points="193,-247.849 193,-266.849 279,-266.849 279,-247.849 193,-247.849"/>
<text text-anchor="middle" x="236" y="-254.849" font-family="Helvetica,sans-Serif" font-size="10.00">luaM_growaux_</text>
</a>
</g>
</g>
<!-- Node2&#45;&gt;Node44 -->
<g id="edge46" class="edge"><title>Node2&#45;&gt;Node44</title>
<path fill="none" stroke="midnightblue" d="M159.147,-282.523C174.51,-277.424 191.879,-271.66 206.116,-266.935"/>
<polygon fill="midnightblue" stroke="midnightblue" points="157.782,-279.288 149.393,-285.76 159.987,-285.932 157.782,-279.288"/>
</g>
<!-- Node45 -->
<g id="node45" class="node"><title>Node45</title>
<g id="a_node45"><a xlink:href="../../d7/d3e/lmem_8h.html#a23b8703b7b50e1c5dd37d41569a09a9a" target="_top" xlink:title="luaM_toobig">
<polygon fill="none" stroke="red" points="202,-209.849 202,-228.849 270,-228.849 270,-209.849 202,-209.849"/>
<text text-anchor="middle" x="236" y="-216.849" font-family="Helvetica,sans-Serif" font-size="10.00">luaM_toobig</text>
</a>
</g>
</g>
<!-- Node2&#45;&gt;Node45 -->
<g id="edge47" class="edge"><title>Node2&#45;&gt;Node45</title>
<path fill="none" stroke="midnightblue" d="M138.809,-278.566C152.705,-266.387 172.659,-250.063 192,-238.349 197.724,-234.882 204.194,-231.687 210.343,-228.945"/>
<polygon fill="midnightblue" stroke="midnightblue" points="136.13,-276.265 130.999,-285.534 140.791,-281.488 136.13,-276.265"/>
</g>
<!-- Node46 -->
<g id="node46" class="node"><title>Node46</title>
<g id="a_node46"><a xlink:href="../../d2/d51/lobject_8h.html#a0d323372aa00f179e1c070d305f879f3" target="_top" xlink:title="luaO_pushvfstring">
<polygon fill="none" stroke="red" points="320,-48.8491 320,-67.8491 414,-67.8491 414,-48.8491 320,-48.8491"/>
<text text-anchor="middle" x="367" y="-55.8491" font-family="Helvetica,sans-Serif" font-size="10.00">luaO_pushvfstring</text>
</a>
</g>
</g>
<!-- Node2&#45;&gt;Node46 -->
<g id="edge48" class="edge"><title>Node2&#45;&gt;Node46</title>
<path fill="none" stroke="midnightblue" d="M120.722,-275.515C122.187,-231.702 131.848,-128.052 192,-77.3491 233.643,-42.2483 301.498,-42.4227 338.981,-48.8129"/>
<polygon fill="midnightblue" stroke="midnightblue" points="117.223,-275.446 120.498,-285.522 124.221,-275.603 117.223,-275.446"/>
</g>
<!-- Node47 -->
<g id="node47" class="node"><title>Node47</title>
<g id="a_node47"><a xlink:href="../../dc/d1e/ltable_8c.html#a4c78714b16a133fb409681f8ca4240be" target="_top" xlink:title="findindex">
<polygon fill="none" stroke="red" points="209.5,-133.849 209.5,-152.849 262.5,-152.849 262.5,-133.849 209.5,-133.849"/>
<text text-anchor="middle" x="236" y="-140.849" font-family="Helvetica,sans-Serif" font-size="10.00">findindex</text>
</a>
</g>
</g>
<!-- Node2&#45;&gt;Node47 -->
<g id="edge50" class="edge"><title>Node2&#45;&gt;Node47</title>
<path fill="none" stroke="midnightblue" d="M126.366,-276.04C135.88,-247.657 157.199,-194.562 192,-162.349 196.911,-157.803 203.088,-154.22 209.216,-151.449"/>
<polygon fill="midnightblue" stroke="midnightblue" points="123.017,-275.021 123.294,-285.612 129.682,-277.16 123.017,-275.021"/>
</g>
<!-- Node48 -->
<g id="node48" class="node"><title>Node48</title>
<g id="a_node48"><a xlink:href="../../dc/d1e/ltable_8c.html#ad5ff1c819f2ab4e96904822b915ae290" target="_top" xlink:title="setnodevector">
<polygon fill="none" stroke="red" points="198.5,-95.8491 198.5,-114.849 273.5,-114.849 273.5,-95.8491 198.5,-95.8491"/>
<text text-anchor="middle" x="236" y="-102.849" font-family="Helvetica,sans-Serif" font-size="10.00">setnodevector</text>
</a>
</g>
</g>
<!-- Node2&#45;&gt;Node48 -->
<g id="edge51" class="edge"><title>Node2&#45;&gt;Node48</title>
<path fill="none" stroke="midnightblue" d="M123.828,-275.539C130.648,-240.666 149.318,-167.895 192,-124.349 195.771,-120.502 200.455,-117.376 205.332,-114.855"/>
<polygon fill="midnightblue" stroke="midnightblue" points="120.372,-274.977 122.014,-285.444 127.258,-276.238 120.372,-274.977"/>
</g>
<!-- Node49 -->
<g id="node49" class="node"><title>Node49</title>
<g id="a_node49"><a xlink:href="../../d3/d44/ltable_8h.html#a61547e63b2d74aa68da53a7fd235e77e" target="_top" xlink:title="luaH_newkey">
<polygon fill="none" stroke="red" points="198.5,-399.849 198.5,-418.849 273.5,-418.849 273.5,-399.849 198.5,-399.849"/>
<text text-anchor="middle" x="236" y="-406.849" font-family="Helvetica,sans-Serif" font-size="10.00">luaH_newkey</text>
</a>
</g>
</g>
<!-- Node2&#45;&gt;Node49 -->
<g id="edge52" class="edge"><title>Node2&#45;&gt;Node49</title>
<path fill="none" stroke="midnightblue" d="M130.522,-313.862C142.671,-334.828 164.92,-368.858 192,-390.349 196.603,-394.002 202.018,-397.103 207.424,-399.674"/>
<polygon fill="midnightblue" stroke="midnightblue" points="133.483,-311.987 125.53,-304.986 127.381,-315.418 133.483,-311.987"/>
</g>
<!-- Node50 -->
<g id="node50" class="node"><title>Node50</title>
<g id="a_node50"><a xlink:href="../../d5/dcd/lvm_8h.html#aee84bfc563cb4bdd21a013218a289aa7" target="_top" xlink:title="luaV_concat">
<polygon fill="none" stroke="red" points="201.5,-171.849 201.5,-190.849 270.5,-190.849 270.5,-171.849 201.5,-171.849"/>
<text text-anchor="middle" x="236" y="-178.849" font-family="Helvetica,sans-Serif" font-size="10.00">luaV_concat</text>
</a>
</g>
</g>
<!-- Node2&#45;&gt;Node50 -->
<g id="edge56" class="edge"><title>Node2&#45;&gt;Node50</title>
<path fill="none" stroke="midnightblue" d="M130.522,-276.836C142.671,-255.871 164.92,-221.84 192,-200.349 196.603,-196.696 202.018,-193.595 207.424,-191.024"/>
<polygon fill="midnightblue" stroke="midnightblue" points="127.381,-275.28 125.53,-285.712 133.483,-278.711 127.381,-275.28"/>
</g>
<!-- Node4 -->
<g id="node4" class="node"><title>Node4</title>
<g id="a_node4"><a xlink:href="../../d1/dc2/_kensho_lua_wrapper_8m.html#ac812f3eb3f83c6ada24f2dadeced6d68" target="_top" xlink:title="pushValue">
<polygon fill="none" stroke="red" points="335.5,-1539.85 335.5,-1558.85 398.5,-1558.85 398.5,-1539.85 335.5,-1539.85"/>
<text text-anchor="middle" x="367" y="-1546.85" font-family="Helvetica,sans-Serif" font-size="10.00">pushValue</text>
</a>
</g>
</g>
<!-- Node3&#45;&gt;Node4 -->
<g id="edge3" class="edge"><title>Node3&#45;&gt;Node4</title>
<path fill="none" stroke="midnightblue" d="M238.869,-1189.19C245.618,-1256.94 270.753,-1477.87 316,-1530.35 321.033,-1536.19 328.058,-1540.24 335.255,-1543.04"/>
<polygon fill="midnightblue" stroke="midnightblue" points="242.333,-1188.64 237.882,-1179.03 235.366,-1189.32 242.333,-1188.64"/>
</g>
<!-- Node5 -->
<g id="node5" class="node"><title>Node5</title>
<g id="a_node5"><a xlink:href="../../da/d29/lauxlib_8h.html#a20b0480f0d1e4d1b2cbf74f667e7ca24" target="_top" xlink:title="luaL_checkversion_">
<polygon fill="none" stroke="black" points="317.5,-1501.85 317.5,-1520.85 416.5,-1520.85 416.5,-1501.85 317.5,-1501.85"/>
<text text-anchor="middle" x="367" y="-1508.85" font-family="Helvetica,sans-Serif" font-size="10.00">luaL_checkversion_</text>
</a>
</g>
</g>
<!-- Node3&#45;&gt;Node5 -->
<g id="edge4" class="edge"><title>Node3&#45;&gt;Node5</title>
<path fill="none" stroke="midnightblue" d="M239.412,-1189.11C247.452,-1252 275.153,-1446.13 316,-1492.35 319.444,-1496.25 323.773,-1499.35 328.436,-1501.81"/>
<polygon fill="midnightblue" stroke="midnightblue" points="242.857,-1188.44 238.141,-1178.95 235.911,-1189.31 242.857,-1188.44"/>
</g>
<!-- Node6 -->
<g id="node6" class="node"><title>Node6</title>
<g id="a_node6"><a xlink:href="../../d8/dd3/lbaselib_8c.html#a6224f7b7c4485996e1c22eae32de990d" target="_top" xlink:title="luaB_tonumber">
<polygon fill="none" stroke="black" points="327,-1463.85 327,-1482.85 407,-1482.85 407,-1463.85 327,-1463.85"/>
<text text-anchor="middle" x="367" y="-1470.85" font-family="Helvetica,sans-Serif" font-size="10.00">luaB_tonumber</text>
</a>
</g>
</g>
<!-- Node3&#45;&gt;Node6 -->
<g id="edge5" class="edge"><title>Node3&#45;&gt;Node6</title>
<path fill="none" stroke="midnightblue" d="M236.713,-1189.15C237.055,-1239.94 244.932,-1376.36 316,-1454.35 319.565,-1458.26 324.022,-1461.37 328.796,-1463.85"/>
<polygon fill="midnightblue" stroke="midnightblue" points="240.213,-1188.91 236.744,-1178.9 233.213,-1188.89 240.213,-1188.91"/>
</g>
<!-- Node7 -->
<g id="node7" class="node"><title>Node7</title>
<g id="a_node7"><a xlink:href="../../d8/dd3/lbaselib_8c.html#a07f71966c943cc9761ab129f64d4ac80" target="_top" xlink:title="luaB_collectgarbage">
<polygon fill="none" stroke="black" points="316,-1425.85 316,-1444.85 418,-1444.85 418,-1425.85 316,-1425.85"/>
<text text-anchor="middle" x="367" y="-1432.85" font-family="Helvetica,sans-Serif" font-size="10.00">luaB_collectgarbage</text>
</a>
</g>
</g>
<!-- Node3&#45;&gt;Node7 -->
<g id="edge6" class="edge"><title>Node3&#45;&gt;Node7</title>
<path fill="none" stroke="midnightblue" d="M237.716,-1188.95C240.434,-1234.84 253.473,-1350.38 316,-1416.35 319.705,-1420.26 324.298,-1423.37 329.186,-1425.85"/>
<polygon fill="midnightblue" stroke="midnightblue" points="241.207,-1188.67 237.223,-1178.85 234.215,-1189.01 241.207,-1188.67"/>
</g>
<!-- Node8 -->
<g id="node8" class="node"><title>Node8</title>
<g id="a_node8"><a xlink:href="../../de/df3/liolib_8c.html#a5345908bf60e4bd37d768b052ac26ec7" target="_top" xlink:title="read_number">
<polygon fill="none" stroke="red" points="331,-1387.85 331,-1406.85 403,-1406.85 403,-1387.85 331,-1387.85"/>
<text text-anchor="middle" x="367" y="-1394.85" font-family="Helvetica,sans-Serif" font-size="10.00">read_number</text>
</a>
</g>
</g>
<!-- Node3&#45;&gt;Node8 -->
<g id="edge7" class="edge"><title>Node3&#45;&gt;Node8</title>
<path fill="none" stroke="midnightblue" d="M239.09,-1189.21C244.419,-1230.11 262.143,-1324.4 316,-1378.35 320.199,-1382.56 325.423,-1385.85 330.898,-1388.42"/>
<polygon fill="midnightblue" stroke="midnightblue" points="242.552,-1188.69 237.896,-1179.17 235.601,-1189.52 242.552,-1188.69"/>
</g>
<!-- Node9 -->
<g id="node9" class="node"><title>Node9</title>
<g id="a_node9"><a xlink:href="../../de/df3/liolib_8c.html#ace5e1a23cc9e2ffe7ae6cc523e54de73" target="_top" xlink:title="f_seek">
<polygon fill="none" stroke="black" points="345,-1349.85 345,-1368.85 389,-1368.85 389,-1349.85 345,-1349.85"/>
<text text-anchor="middle" x="367" y="-1356.85" font-family="Helvetica,sans-Serif" font-size="10.00">f_seek</text>
</a>
</g>
</g>
<!-- Node3&#45;&gt;Node9 -->
<g id="edge8" class="edge"><title>Node3&#45;&gt;Node9</title>
<path fill="none" stroke="midnightblue" d="M240.935,-1188.92C248.965,-1224 270.467,-1297.88 316,-1340.35 323.877,-1347.7 334.882,-1352.29 344.562,-1355.11"/>
<polygon fill="midnightblue" stroke="midnightblue" points="244.321,-1188.02 238.787,-1178.98 237.478,-1189.49 244.321,-1188.02"/>
</g>
<!-- Node10 -->
<g id="node10" class="node"><title>Node10</title>
<g id="a_node10"><a xlink:href="../../d1/d6a/lmathlib_8c.html#a9545dd3926974393ff34e33a108df628" target="_top" xlink:title="math_abs">
<polygon fill="none" stroke="black" points="337,-1311.85 337,-1330.85 397,-1330.85 397,-1311.85 337,-1311.85"/>
<text text-anchor="middle" x="367" y="-1318.85" font-family="Helvetica,sans-Serif" font-size="10.00">math_abs</text>
</a>
</g>
</g>
<!-- Node3&#45;&gt;Node10 -->
<g id="edge9" class="edge"><title>Node3&#45;&gt;Node10</title>
<path fill="none" stroke="midnightblue" d="M243.647,-1188.48C254.498,-1217.08 278.629,-1270.94 316,-1302.35 322.042,-1307.43 329.584,-1311.23 336.964,-1314.04"/>
<polygon fill="midnightblue" stroke="midnightblue" points="246.853,-1187.06 240.139,-1178.86 240.277,-1189.46 246.853,-1187.06"/>
</g>
<!-- Node11 -->
<g id="node11" class="node"><title>Node11</title>
<g id="a_node11"><a xlink:href="../../d1/d6a/lmathlib_8c.html#adb460e2b01df47afcaa823ecc1846a24" target="_top" xlink:title="math_sin">
<polygon fill="none" stroke="black" points="339.5,-1273.85 339.5,-1292.85 394.5,-1292.85 394.5,-1273.85 339.5,-1273.85"/>
<text text-anchor="middle" x="367" y="-1280.85" font-family="Helvetica,sans-Serif" font-size="10.00">math_sin</text>
</a>
</g>
</g>
<!-- Node3&#45;&gt;Node11 -->
<g id="edge10" class="edge"><title>Node3&#45;&gt;Node11</title>
<path fill="none" stroke="midnightblue" d="M248.134,-1187.8C261.746,-1208.94 286.632,-1243.38 316,-1264.35 322.953,-1269.31 331.366,-1273.16 339.291,-1276.06"/>
<polygon fill="midnightblue" stroke="midnightblue" points="250.97,-1185.73 242.698,-1179.11 245.037,-1189.44 250.97,-1185.73"/>
</g>
<!-- Node12 -->
<g id="node12" class="node"><title>Node12</title>
<g id="a_node12"><a xlink:href="../../d1/d6a/lmathlib_8c.html#a54bae0fa396a6823b28ea994ebf035dc" target="_top" xlink:title="math_sinh">
<polygon fill="none" stroke="black" points="337,-1235.85 337,-1254.85 397,-1254.85 397,-1235.85 337,-1235.85"/>
<text text-anchor="middle" x="367" y="-1242.85" font-family="Helvetica,sans-Serif" font-size="10.00">math_sinh</text>
</a>
</g>
</g>
<!-- Node3&#45;&gt;Node12 -->
<g id="edge11" class="edge"><title>Node3&#45;&gt;Node12</title>
<path fill="none" stroke="midnightblue" d="M255.925,-1185.19C271.371,-1197.56 294.14,-1214.57 316,-1226.35 322.54,-1229.87 329.876,-1233.05 336.871,-1235.75"/>
<polygon fill="midnightblue" stroke="midnightblue" points="258.113,-1182.45 248.149,-1178.85 253.692,-1187.88 258.113,-1182.45"/>
</g>
<!-- Node13 -->
<g id="node13" class="node"><title>Node13</title>
<g id="a_node13"><a xlink:href="../../d1/d6a/lmathlib_8c.html#a5db2cf8c6e7a331d7daf259f305e057c" target="_top" xlink:title="math_cos">
<polygon fill="none" stroke="black" points="338,-1197.85 338,-1216.85 396,-1216.85 396,-1197.85 338,-1197.85"/>
<text text-anchor="middle" x="367" y="-1204.85" font-family="Helvetica,sans-Serif" font-size="10.00">math_cos</text>
</a>
</g>
</g>
<!-- Node3&#45;&gt;Node13 -->
<g id="edge12" class="edge"><title>Node3&#45;&gt;Node13</title>
<path fill="none" stroke="midnightblue" d="M279.284,-1181.8C298.498,-1187.46 320.707,-1194.01 337.84,-1199.05"/>
<polygon fill="midnightblue" stroke="midnightblue" points="280.134,-1178.41 269.552,-1178.94 278.156,-1185.12 280.134,-1178.41"/>
</g>
<!-- Node14 -->
<g id="node14" class="node"><title>Node14</title>
<g id="a_node14"><a xlink:href="../../d1/d6a/lmathlib_8c.html#aacc3b89a2bdf4970574be974ccbf5e84" target="_top" xlink:title="math_cosh">
<polygon fill="none" stroke="black" points="335.5,-1159.85 335.5,-1178.85 398.5,-1178.85 398.5,-1159.85 335.5,-1159.85"/>
<text text-anchor="middle" x="367" y="-1166.85" font-family="Helvetica,sans-Serif" font-size="10.00">math_cosh</text>
</a>
</g>
</g>
<!-- Node3&#45;&gt;Node14 -->
<g id="edge13" class="edge"><title>Node3&#45;&gt;Node14</title>
<path fill="none" stroke="midnightblue" d="M290.661,-1169.35C305.859,-1169.35 321.883,-1169.35 335.228,-1169.35"/>
<polygon fill="midnightblue" stroke="midnightblue" points="290.314,-1165.85 280.314,-1169.35 290.314,-1172.85 290.314,-1165.85"/>
</g>
<!-- Node15 -->
<g id="node15" class="node"><title>Node15</title>
<g id="a_node15"><a xlink:href="../../d1/d6a/lmathlib_8c.html#a06bc9b8c610e00759bb99c3db6128f18" target="_top" xlink:title="math_tan">
<polygon fill="none" stroke="black" points="339,-1121.85 339,-1140.85 395,-1140.85 395,-1121.85 339,-1121.85"/>
<text text-anchor="middle" x="367" y="-1128.85" font-family="Helvetica,sans-Serif" font-size="10.00">math_tan</text>
</a>
</g>
</g>
<!-- Node3&#45;&gt;Node15 -->
<g id="edge14" class="edge"><title>Node3&#45;&gt;Node15</title>
<path fill="none" stroke="midnightblue" d="M279.158,-1156.93C298.721,-1151.17 321.411,-1144.48 338.692,-1139.39"/>
<polygon fill="midnightblue" stroke="midnightblue" points="278.156,-1153.58 269.552,-1159.76 280.134,-1160.29 278.156,-1153.58"/>
</g>
<!-- Node16 -->
<g id="node16" class="node"><title>Node16</title>
<g id="a_node16"><a xlink:href="../../d1/d6a/lmathlib_8c.html#a38a6a16dfdffec4c0388eb3c7aff9085" target="_top" xlink:title="math_tanh">
<polygon fill="none" stroke="black" points="336,-1083.85 336,-1102.85 398,-1102.85 398,-1083.85 336,-1083.85"/>
<text text-anchor="middle" x="367" y="-1090.85" font-family="Helvetica,sans-Serif" font-size="10.00">math_tanh</text>
</a>
</g>
</g>
<!-- Node3&#45;&gt;Node16 -->
<g id="edge15" class="edge"><title>Node3&#45;&gt;Node16</title>
<path fill="none" stroke="midnightblue" d="M255.925,-1153.51C271.371,-1141.14 294.14,-1124.12 316,-1112.35 322.54,-1108.83 329.876,-1105.65 336.871,-1102.95"/>
<polygon fill="midnightblue" stroke="midnightblue" points="253.692,-1150.82 248.149,-1159.85 258.113,-1156.24 253.692,-1150.82"/>
</g>
<!-- Node17 -->
<g id="node17" class="node"><title>Node17</title>
<g id="a_node17"><a xlink:href="../../d1/d6a/lmathlib_8c.html#aa44ea66108bb38acbe5c8cb2ce6de33f" target="_top" xlink:title="math_asin">
<polygon fill="none" stroke="black" points="336.5,-1045.85 336.5,-1064.85 397.5,-1064.85 397.5,-1045.85 336.5,-1045.85"/>
<text text-anchor="middle" x="367" y="-1052.85" font-family="Helvetica,sans-Serif" font-size="10.00">math_asin</text>
</a>
</g>
</g>
<!-- Node3&#45;&gt;Node17 -->
<g id="edge16" class="edge"><title>Node3&#45;&gt;Node17</title>
<path fill="none" stroke="midnightblue" d="M248.134,-1150.9C261.746,-1129.76 286.632,-1095.32 316,-1074.35 322.121,-1069.98 329.375,-1066.47 336.431,-1063.72"/>
<polygon fill="midnightblue" stroke="midnightblue" points="245.037,-1149.25 242.698,-1159.59 250.97,-1152.97 245.037,-1149.25"/>
</g>
<!-- Node18 -->
<g id="node18" class="node"><title>Node18</title>
<g id="a_node18"><a xlink:href="../../d1/d6a/lmathlib_8c.html#a9f983fa3cca14d69429cebc95be4fab1" target="_top" xlink:title="math_acos">
<polygon fill="none" stroke="black" points="335,-1007.85 335,-1026.85 399,-1026.85 399,-1007.85 335,-1007.85"/>
<text text-anchor="middle" x="367" y="-1014.85" font-family="Helvetica,sans-Serif" font-size="10.00">math_acos</text>
</a>
</g>
</g>
<!-- Node3&#45;&gt;Node18 -->
<g id="edge17" class="edge"><title>Node3&#45;&gt;Node18</title>
<path fill="none" stroke="midnightblue" d="M243.647,-1150.21C254.498,-1121.62 278.629,-1067.76 316,-1036.35 321.474,-1031.75 328.178,-1028.2 334.877,-1025.48"/>
<polygon fill="midnightblue" stroke="midnightblue" points="240.277,-1149.24 240.139,-1159.83 246.853,-1151.64 240.277,-1149.24"/>
</g>
<!-- Node19 -->
<g id="node19" class="node"><title>Node19</title>
<g id="a_node19"><a xlink:href="../../d1/d6a/lmathlib_8c.html#a70217d6c0312477f3e257a584518424c" target="_top" xlink:title="math_atan">
<polygon fill="none" stroke="black" points="336,-969.849 336,-988.849 398,-988.849 398,-969.849 336,-969.849"/>
<text text-anchor="middle" x="367" y="-976.849" font-family="Helvetica,sans-Serif" font-size="10.00">math_atan</text>
</a>
</g>
</g>
<!-- Node3&#45;&gt;Node19 -->
<g id="edge18" class="edge"><title>Node3&#45;&gt;Node19</title>
<path fill="none" stroke="midnightblue" d="M240.935,-1149.78C248.965,-1114.7 270.467,-1040.82 316,-998.349 321.569,-993.155 328.7,-989.34 335.821,-986.552"/>
<polygon fill="midnightblue" stroke="midnightblue" points="237.478,-1149.2 238.787,-1159.72 244.321,-1150.68 237.478,-1149.2"/>
</g>
<!-- Node20 -->
<g id="node20" class="node"><title>Node20</title>
<g id="a_node20"><a xlink:href="../../d1/d6a/lmathlib_8c.html#ab2ec821a1dd788ee7d4f9a58c743cd48" target="_top" xlink:title="math_atan2">
<polygon fill="none" stroke="black" points="333,-931.849 333,-950.849 401,-950.849 401,-931.849 333,-931.849"/>
<text text-anchor="middle" x="367" y="-938.849" font-family="Helvetica,sans-Serif" font-size="10.00">math_atan2</text>
</a>
</g>
</g>
<!-- Node3&#45;&gt;Node20 -->
<g id="edge19" class="edge"><title>Node3&#45;&gt;Node20</title>
<path fill="none" stroke="midnightblue" d="M239.09,-1149.48C244.419,-1108.59 262.143,-1014.3 316,-960.349 320.724,-955.617 326.745,-952.044 332.961,-949.352"/>
<polygon fill="midnightblue" stroke="midnightblue" points="235.601,-1149.18 237.896,-1159.53 242.552,-1150.01 235.601,-1149.18"/>
</g>
<!-- Node21 -->
<g id="node21" class="node"><title>Node21</title>
<g id="a_node21"><a xlink:href="../../d1/d6a/lmathlib_8c.html#ae4f0dc771c626a9badef237db9d433da" target="_top" xlink:title="math_ceil">
<polygon fill="none" stroke="black" points="339,-893.849 339,-912.849 395,-912.849 395,-893.849 339,-893.849"/>
<text text-anchor="middle" x="367" y="-900.849" font-family="Helvetica,sans-Serif" font-size="10.00">math_ceil</text>
</a>
</g>
</g>
<!-- Node3&#45;&gt;Node21 -->
<g id="edge20" class="edge"><title>Node3&#45;&gt;Node21</title>
<path fill="none" stroke="midnightblue" d="M237.716,-1149.75C240.434,-1103.86 253.473,-988.32 316,-922.349 322.069,-915.946 330.519,-911.679 338.747,-908.844"/>
<polygon fill="midnightblue" stroke="midnightblue" points="234.215,-1149.69 237.223,-1159.85 241.207,-1150.03 234.215,-1149.69"/>
</g>
<!-- Node22 -->
<g id="node22" class="node"><title>Node22</title>
<g id="a_node22"><a xlink:href="../../d1/d6a/lmathlib_8c.html#aa063dcd93e924af13c5e311f89b18d03" target="_top" xlink:title="math_floor">
<polygon fill="none" stroke="black" points="337.5,-855.849 337.5,-874.849 396.5,-874.849 396.5,-855.849 337.5,-855.849"/>
<text text-anchor="middle" x="367" y="-862.849" font-family="Helvetica,sans-Serif" font-size="10.00">math_floor</text>
</a>
</g>
</g>
<!-- Node3&#45;&gt;Node22 -->
<g id="edge21" class="edge"><title>Node3&#45;&gt;Node22</title>
<path fill="none" stroke="midnightblue" d="M236.713,-1149.55C237.055,-1098.76 244.932,-962.334 316,-884.349 321.629,-878.172 329.48,-873.99 337.295,-871.163"/>
<polygon fill="midnightblue" stroke="midnightblue" points="233.213,-1149.81 236.744,-1159.8 240.213,-1149.79 233.213,-1149.81"/>
</g>
<!-- Node23 -->
<g id="node23" class="node"><title>Node23</title>
<g id="a_node23"><a xlink:href="../../d1/d6a/lmathlib_8c.html#a25b3f7d30cf85b8248a72de20049564e" target="_top" xlink:title="math_fmod">
<polygon fill="none" stroke="black" points="335.5,-817.849 335.5,-836.849 398.5,-836.849 398.5,-817.849 335.5,-817.849"/>
<text text-anchor="middle" x="367" y="-824.849" font-family="Helvetica,sans-Serif" font-size="10.00">math_fmod</text>
</a>
</g>
</g>
<!-- Node3&#45;&gt;Node23 -->
<g id="edge22" class="edge"><title>Node3&#45;&gt;Node23</title>
<path fill="none" stroke="midnightblue" d="M239.412,-1149.59C247.452,-1086.7 275.153,-892.57 316,-846.349 321.104,-840.574 328.154,-836.546 335.352,-833.74"/>
<polygon fill="midnightblue" stroke="midnightblue" points="235.911,-1149.39 238.141,-1159.74 242.857,-1150.26 235.911,-1149.39"/>
</g>
<!-- Node24 -->
<g id="node24" class="node"><title>Node24</title>
<g id="a_node24"><a xlink:href="../../d1/d6a/lmathlib_8c.html#adff369706deb34be360be3103f31d4c4" target="_top" xlink:title="math_modf">
<polygon fill="none" stroke="black" points="335.5,-779.849 335.5,-798.849 398.5,-798.849 398.5,-779.849 335.5,-779.849"/>
<text text-anchor="middle" x="367" y="-786.849" font-family="Helvetica,sans-Serif" font-size="10.00">math_modf</text>
</a>
</g>
</g>
<!-- Node3&#45;&gt;Node24 -->
<g id="edge23" class="edge"><title>Node3&#45;&gt;Node24</title>
<path fill="none" stroke="midnightblue" d="M238.869,-1149.51C245.618,-1081.76 270.753,-860.827 316,-808.349 321.033,-802.512 328.058,-798.462 335.255,-795.655"/>
<polygon fill="midnightblue" stroke="midnightblue" points="235.366,-1149.38 237.882,-1159.67 242.333,-1150.05 235.366,-1149.38"/>
</g>
<!-- Node25 -->
<g id="node25" class="node"><title>Node25</title>
<g id="a_node25"><a xlink:href="../../d1/d6a/lmathlib_8c.html#a8f4c386bafe8ae7269476ed3ed94d1d8" target="_top" xlink:title="math_sqrt">
<polygon fill="none" stroke="black" points="338,-741.849 338,-760.849 396,-760.849 396,-741.849 338,-741.849"/>
<text text-anchor="middle" x="367" y="-748.849" font-family="Helvetica,sans-Serif" font-size="10.00">math_sqrt</text>
</a>
</g>
</g>
<!-- Node3&#45;&gt;Node25 -->
<g id="edge24" class="edge"><title>Node3&#45;&gt;Node25</title>
<path fill="none" stroke="midnightblue" d="M238.431,-1149.34C243.991,-1076.85 266.352,-829.108 316,-770.349 321.574,-763.753 329.697,-759.441 337.781,-756.625"/>
<polygon fill="midnightblue" stroke="midnightblue" points="234.908,-1149.53 237.657,-1159.76 241.889,-1150.04 234.908,-1149.53"/>
</g>
<!-- Node26 -->
<g id="node26" class="node"><title>Node26</title>
<g id="a_node26"><a xlink:href="../../d1/d6a/lmathlib_8c.html#a1bd66c605ef6e69738489e6f9572370c" target="_top" xlink:title="math_pow">
<polygon fill="none" stroke="black" points="336,-703.849 336,-722.849 398,-722.849 398,-703.849 336,-703.849"/>
<text text-anchor="middle" x="367" y="-710.849" font-family="Helvetica,sans-Serif" font-size="10.00">math_pow</text>
</a>
</g>
</g>
<!-- Node3&#45;&gt;Node26 -->
<g id="edge25" class="edge"><title>Node3&#45;&gt;Node26</title>
<path fill="none" stroke="midnightblue" d="M238.049,-1149.43C242.463,-1072.73 261.873,-797.498 316,-732.349 321.103,-726.206 328.421,-722.047 335.888,-719.231"/>
<polygon fill="midnightblue" stroke="midnightblue" points="234.543,-1149.44 237.485,-1159.62 241.532,-1149.83 234.543,-1149.44"/>
</g>
<!-- Node27 -->
<g id="node27" class="node"><title>Node27</title>
<g id="a_node27"><a xlink:href="../../d1/d6a/lmathlib_8c.html#a7cb92978495484adbfc9d0cb0ace2cc2" target="_top" xlink:title="math_log">
<polygon fill="none" stroke="black" points="339.5,-665.849 339.5,-684.849 394.5,-684.849 394.5,-665.849 339.5,-665.849"/>
<text text-anchor="middle" x="367" y="-672.849" font-family="Helvetica,sans-Serif" font-size="10.00">math_log</text>
</a>
</g>
</g>
<!-- Node3&#45;&gt;Node27 -->
<g id="edge26" class="edge"><title>Node3&#45;&gt;Node27</title>
<path fill="none" stroke="midnightblue" d="M237.738,-1149.29C241.102,-1068.23 257.435,-765.855 316,-694.349 321.884,-687.165 330.8,-682.694 339.483,-679.913"/>
<polygon fill="midnightblue" stroke="midnightblue" points="234.229,-1149.46 237.333,-1159.59 241.224,-1149.73 234.229,-1149.46"/>
</g>
<!-- Node28 -->
<g id="node28" class="node"><title>Node28</title>
<g id="a_node28"><a xlink:href="../../d1/d6a/lmathlib_8c.html#a7c971c680cdad8e4e833f8a3db9d065d" target="_top" xlink:title="math_exp">
<polygon fill="none" stroke="black" points="337.5,-627.849 337.5,-646.849 396.5,-646.849 396.5,-627.849 337.5,-627.849"/>
<text text-anchor="middle" x="367" y="-634.849" font-family="Helvetica,sans-Serif" font-size="10.00">math_exp</text>
</a>
</g>
</g>
<!-- Node3&#45;&gt;Node28 -->
<g id="edge27" class="edge"><title>Node3&#45;&gt;Node28</title>
<path fill="none" stroke="midnightblue" d="M237.457,-1149.6C239.79,-1065.04 252.872,-734.378 316,-656.349 321.373,-649.707 329.342,-645.385 337.347,-642.574"/>
<polygon fill="midnightblue" stroke="midnightblue" points="233.957,-1149.56 237.2,-1159.65 240.954,-1149.74 233.957,-1149.56"/>
</g>
<!-- Node29 -->
<g id="node29" class="node"><title>Node29</title>
<g id="a_node29"><a xlink:href="../../d1/d6a/lmathlib_8c.html#ad9bd03062009a4aba15739a1630b2a25" target="_top" xlink:title="math_deg">
<polygon fill="none" stroke="black" points="337.5,-589.849 337.5,-608.849 396.5,-608.849 396.5,-589.849 337.5,-589.849"/>
<text text-anchor="middle" x="367" y="-596.849" font-family="Helvetica,sans-Serif" font-size="10.00">math_deg</text>
</a>
</g>
</g>
<!-- Node3&#45;&gt;Node29 -->
<g id="edge28" class="edge"><title>Node3&#45;&gt;Node29</title>
<path fill="none" stroke="midnightblue" d="M237.225,-1149.57C238.611,-1061.16 248.379,-702.826 316,-618.349 321.339,-611.679 329.298,-607.35 337.304,-604.54"/>
<polygon fill="midnightblue" stroke="midnightblue" points="233.722,-1149.75 237.085,-1159.8 240.722,-1149.85 233.722,-1149.75"/>
</g>
<!-- Node30 -->
<g id="node30" class="node"><title>Node30</title>
<g id="a_node30"><a xlink:href="../../d1/d6a/lmathlib_8c.html#a5d8eec19cea59d1ce1012a705f70dc8d" target="_top" xlink:title="math_rad">
<polygon fill="none" stroke="black" points="339,-1767.85 339,-1786.85 395,-1786.85 395,-1767.85 339,-1767.85"/>
<text text-anchor="middle" x="367" y="-1774.85" font-family="Helvetica,sans-Serif" font-size="10.00">math_rad</text>
</a>
</g>
</g>
<!-- Node3&#45;&gt;Node30 -->
<g id="edge29" class="edge"><title>Node3&#45;&gt;Node30</title>
<path fill="none" stroke="midnightblue" d="M237.023,-1189.31C237.514,-1281.74 243.916,-1667.45 316,-1758.35 321.655,-1765.48 330.307,-1769.94 338.834,-1772.72"/>
<polygon fill="midnightblue" stroke="midnightblue" points="240.522,-1189.1 236.988,-1179.11 233.522,-1189.12 240.522,-1189.1"/>
</g>
<!-- Node31 -->
<g id="node31" class="node"><title>Node31</title>
<g id="a_node31"><a xlink:href="../../d1/d6a/lmathlib_8c.html#a13d5e8c418a554d9e4604b97a4b67b83" target="_top" xlink:title="math_frexp">
<polygon fill="none" stroke="black" points="335,-1729.85 335,-1748.85 399,-1748.85 399,-1729.85 335,-1729.85"/>
<text text-anchor="middle" x="367" y="-1736.85" font-family="Helvetica,sans-Serif" font-size="10.00">math_frexp</text>
</a>
</g>
</g>
<!-- Node3&#45;&gt;Node31 -->
<g id="edge30" class="edge"><title>Node3&#45;&gt;Node31</title>
<path fill="none" stroke="midnightblue" d="M237.225,-1189.13C238.611,-1277.54 248.379,-1635.87 316,-1720.35 320.817,-1726.37 327.766,-1730.48 334.958,-1733.29"/>
<polygon fill="midnightblue" stroke="midnightblue" points="240.722,-1188.85 237.085,-1178.9 233.722,-1188.95 240.722,-1188.85"/>
</g>
<!-- Node32 -->
<g id="node32" class="node"><title>Node32</title>
<g id="a_node32"><a xlink:href="../../d1/d6a/lmathlib_8c.html#adf7bb9373e68cc77ddf001273c444edf" target="_top" xlink:title="math_ldexp">
<polygon fill="none" stroke="black" points="334,-1691.85 334,-1710.85 400,-1710.85 400,-1691.85 334,-1691.85"/>
<text text-anchor="middle" x="367" y="-1698.85" font-family="Helvetica,sans-Serif" font-size="10.00">math_ldexp</text>
</a>
</g>
</g>
<!-- Node3&#45;&gt;Node32 -->
<g id="edge31" class="edge"><title>Node3&#45;&gt;Node32</title>
<path fill="none" stroke="midnightblue" d="M237.457,-1189.1C239.79,-1273.65 252.872,-1604.32 316,-1682.35 320.614,-1688.05 327.142,-1692.05 333.963,-1694.84"/>
<polygon fill="midnightblue" stroke="midnightblue" points="240.954,-1188.96 237.2,-1179.05 233.957,-1189.14 240.954,-1188.96"/>
</g>
<!-- Node33 -->
<g id="node33" class="node"><title>Node33</title>
<g id="a_node33"><a xlink:href="../../d1/d6a/lmathlib_8c.html#ab0a14d784b5fe2f30062e88a635db320" target="_top" xlink:title="math_min">
<polygon fill="none" stroke="black" points="338.5,-1653.85 338.5,-1672.85 395.5,-1672.85 395.5,-1653.85 338.5,-1653.85"/>
<text text-anchor="middle" x="367" y="-1660.85" font-family="Helvetica,sans-Serif" font-size="10.00">math_min</text>
</a>
</g>
</g>
<!-- Node3&#45;&gt;Node33 -->
<g id="edge32" class="edge"><title>Node3&#45;&gt;Node33</title>
<path fill="none" stroke="midnightblue" d="M237.738,-1189.41C241.102,-1270.47 257.435,-1572.84 316,-1644.35 321.649,-1651.25 330.092,-1655.64 338.44,-1658.44"/>
<polygon fill="midnightblue" stroke="midnightblue" points="241.224,-1188.97 237.333,-1179.11 234.229,-1189.24 241.224,-1188.97"/>
</g>
<!-- Node34 -->
<g id="node34" class="node"><title>Node34</title>
<g id="a_node34"><a xlink:href="../../d1/d6a/lmathlib_8c.html#a03e3b76e515f5535122c2026a9e8f445" target="_top" xlink:title="math_max">
<polygon fill="none" stroke="black" points="336,-1615.85 336,-1634.85 398,-1634.85 398,-1615.85 336,-1615.85"/>
<text text-anchor="middle" x="367" y="-1622.85" font-family="Helvetica,sans-Serif" font-size="10.00">math_max</text>
</a>
</g>
</g>
<!-- Node3&#45;&gt;Node34 -->
<g id="edge33" class="edge"><title>Node3&#45;&gt;Node34</title>
<path fill="none" stroke="midnightblue" d="M238.049,-1189.27C242.463,-1265.97 261.873,-1541.2 316,-1606.35 321.103,-1612.49 328.421,-1616.65 335.888,-1619.47"/>
<polygon fill="midnightblue" stroke="midnightblue" points="241.532,-1188.87 237.485,-1179.08 234.543,-1189.26 241.532,-1188.87"/>
</g>
<!-- Node35 -->
<g id="node35" class="node"><title>Node35</title>
<g id="a_node35"><a xlink:href="../../d1/d6a/lmathlib_8c.html#aa3ad02d4204d21d35a0825281915fb22" target="_top" xlink:title="math_random">
<polygon fill="none" stroke="black" points="330,-1577.85 330,-1596.85 404,-1596.85 404,-1577.85 330,-1577.85"/>
<text text-anchor="middle" x="367" y="-1584.85" font-family="Helvetica,sans-Serif" font-size="10.00">math_random</text>
</a>
</g>
</g>
<!-- Node3&#45;&gt;Node35 -->
<g id="edge34" class="edge"><title>Node3&#45;&gt;Node35</title>
<path fill="none" stroke="midnightblue" d="M238.431,-1189.36C243.991,-1261.85 266.352,-1509.59 316,-1568.35 319.716,-1572.75 324.565,-1576.13 329.78,-1578.73"/>
<polygon fill="midnightblue" stroke="midnightblue" points="241.889,-1188.65 237.657,-1178.94 234.908,-1189.17 241.889,-1188.65"/>
</g>
<!-- Node36&#45;&gt;Node37 -->
<g id="edge36" class="edge"><title>Node36&#45;&gt;Node37</title>
<path fill="none" stroke="midnightblue" d="M285.9,-485.349C300.226,-485.349 315.646,-485.349 329.093,-485.349"/>
<polygon fill="midnightblue" stroke="midnightblue" points="285.704,-481.849 275.704,-485.349 285.704,-488.849 285.704,-481.849"/>
</g>
<!-- Node36&#45;&gt;Node40 -->
<g id="edge40" class="edge"><title>Node36&#45;&gt;Node40</title>
<path fill="none" stroke="midnightblue" d="M279.554,-472.814C297.103,-467.644 317.113,-461.75 333.458,-456.935"/>
<polygon fill="midnightblue" stroke="midnightblue" points="278.156,-469.577 269.552,-475.76 280.134,-476.292 278.156,-469.577"/>
</g>
<!-- Node37&#45;&gt;Node38 -->
<g id="edge37" class="edge"><title>Node37&#45;&gt;Node38</title>
<path fill="none" stroke="midnightblue" d="M408.711,-472.669C425.195,-467.534 443.91,-461.705 459.224,-456.935"/>
<polygon fill="midnightblue" stroke="midnightblue" points="407.292,-469.445 398.786,-475.76 409.374,-476.128 407.292,-469.445"/>
</g>
<!-- Node38&#45;&gt;Node39 -->
<g id="edge38" class="edge"><title>Node38&#45;&gt;Node39</title>
<path fill="none" stroke="midnightblue" d="M538.201,-440.612C546.984,-440.541 555.906,-440.755 563.855,-441.252"/>
<polygon fill="midnightblue" stroke="midnightblue" points="537.945,-437.117 528.021,-440.827 538.093,-444.115 537.945,-437.117"/>
</g>
<!-- Node39&#45;&gt;Node38 -->
<g id="edge39" class="edge"><title>Node39&#45;&gt;Node38</title>
<path fill="none" stroke="midnightblue" d="M553.865,-453.908C545.406,-454.174 536.433,-454.162 528.021,-453.872"/>
<polygon fill="midnightblue" stroke="midnightblue" points="554.027,-457.405 563.855,-453.446 553.704,-450.412 554.027,-457.405"/>
</g>
<!-- Node40&#45;&gt;Node38 -->
<g id="edge41" class="edge"><title>Node40&#45;&gt;Node38</title>
<path fill="none" stroke="midnightblue" d="M414.755,-447.349C427.716,-447.349 441.586,-447.349 453.842,-447.349"/>
<polygon fill="midnightblue" stroke="midnightblue" points="414.604,-443.849 404.604,-447.349 414.604,-450.849 414.604,-443.849"/>
</g>
<!-- Node46&#45;&gt;Node2 -->
<g id="edge49" class="edge"><title>Node46&#45;&gt;Node2</title>
<path fill="none" stroke="midnightblue" d="M309.399,-60.9679C272.023,-62.1636 224.183,-68.2216 192,-95.3491 131.01,-146.758 121.927,-252.6 120.666,-285.656"/>
<polygon fill="midnightblue" stroke="midnightblue" points="309.72,-64.4619 319.642,-60.7461 309.569,-57.4635 309.72,-64.4619"/>
</g>
<!-- Node49&#45;&gt;Node40 -->
<g id="edge53" class="edge"><title>Node49&#45;&gt;Node40</title>
<path fill="none" stroke="midnightblue" d="M279.554,-421.884C297.103,-427.054 317.113,-432.948 333.458,-437.763"/>
<polygon fill="midnightblue" stroke="midnightblue" points="280.134,-418.407 269.552,-418.938 278.156,-425.121 280.134,-418.407"/>
</g>
<!-- Node50&#45;&gt;Node38 -->
<g id="edge58" class="edge"><title>Node50&#45;&gt;Node38</title>
<path fill="none" stroke="midnightblue" d="M273.011,-195.748C275.45,-197.178 277.807,-198.712 280,-200.349 378.337,-273.737 461.477,-401.25 483.993,-437.489"/>
<polygon fill="midnightblue" stroke="midnightblue" points="274.444,-192.548 263.959,-191.027 271.207,-198.755 274.444,-192.548"/>
</g>
<!-- Node50&#45;&gt;Node46 -->
<g id="edge57" class="edge"><title>Node50&#45;&gt;Node46</title>
<path fill="none" stroke="midnightblue" d="M273.037,-166.984C275.47,-165.546 277.818,-164.001 280,-162.349 316.801,-134.492 347.89,-87.922 360.266,-67.936"/>
<polygon fill="midnightblue" stroke="midnightblue" points="271.229,-163.979 263.997,-171.721 274.479,-170.18 271.229,-163.979"/>
</g>
</g>
</svg>
