<?xml version="1.0" encoding="UTF-8" standalone="no"?>
<!DOCTYPE svg PUBLIC "-//W3C//DTD SVG 1.1//EN"
 "http://www.w3.org/Graphics/SVG/1.1/DTD/svg11.dtd">
<!-- Generated by graphviz version 2.38.0 (20140413.2041)
 -->
<!-- Title: findvararg Pages: 1 -->
<svg width="355pt" height="66pt"
 viewBox="0.00 0.00 355.00 66.00" xmlns="http://www.w3.org/2000/svg" xmlns:xlink="http://www.w3.org/1999/xlink">
<g id="graph0" class="graph" transform="scale(1 1) rotate(0) translate(4 62)">
<title>findvararg</title>
<!-- Node1 -->
<g id="node1" class="node"><title>Node1</title>
<polygon fill="#bfbfbf" stroke="black" points="0,-19.5 0,-38.5 58,-38.5 58,-19.5 0,-19.5"/>
<text text-anchor="middle" x="29" y="-26.5" font-family="Helvetica,sans-Serif" font-size="10.00">findvararg</text>
</g>
<!-- Node2 -->
<g id="node2" class="node"><title>Node2</title>
<g id="a_node2"><a xlink:href="../../d6/ddf/ldebug_8c.html#a3083297f104dce6d3810facafad1c4e9" target="_top" xlink:title="findlocal">
<polygon fill="none" stroke="black" points="94,-19.5 94,-38.5 144,-38.5 144,-19.5 94,-19.5"/>
<text text-anchor="middle" x="119" y="-26.5" font-family="Helvetica,sans-Serif" font-size="10.00">findlocal</text>
</a>
</g>
</g>
<!-- Node1&#45;&gt;Node2 -->
<g id="edge1" class="edge"><title>Node1&#45;&gt;Node2</title>
<path fill="none" stroke="midnightblue" d="M68.5812,-29C77.1744,-29 86.0476,-29 93.8627,-29"/>
<polygon fill="midnightblue" stroke="midnightblue" points="68.3282,-25.5001 58.3281,-29 68.3281,-32.5001 68.3282,-25.5001"/>
</g>
<!-- Node3 -->
<g id="node3" class="node"><title>Node3</title>
<g id="a_node3"><a xlink:href="../../da/dd2/lua_8h.html#afab4c753a151dd222a3de6ca5daf4ce2" target="_top" xlink:title="lua_getlocal">
<polygon fill="none" stroke="black" points="180,-38.5 180,-57.5 246,-57.5 246,-38.5 180,-38.5"/>
<text text-anchor="middle" x="213" y="-45.5" font-family="Helvetica,sans-Serif" font-size="10.00">lua_getlocal</text>
</a>
</g>
</g>
<!-- Node2&#45;&gt;Node3 -->
<g id="edge2" class="edge"><title>Node2&#45;&gt;Node3</title>
<path fill="none" stroke="midnightblue" d="M154.038,-36.0295C162.425,-37.7617 171.382,-39.6116 179.686,-41.3264"/>
<polygon fill="midnightblue" stroke="midnightblue" points="154.673,-32.587 144.172,-33.992 153.257,-39.4423 154.673,-32.587"/>
</g>
<!-- Node5 -->
<g id="node5" class="node"><title>Node5</title>
<g id="a_node5"><a xlink:href="../../da/dd2/lua_8h.html#a009cbda7b68bd7047677d280db4ea064" target="_top" xlink:title="lua_setlocal">
<polygon fill="none" stroke="black" points="180,-0.5 180,-19.5 246,-19.5 246,-0.5 180,-0.5"/>
<text text-anchor="middle" x="213" y="-7.5" font-family="Helvetica,sans-Serif" font-size="10.00">lua_setlocal</text>
</a>
</g>
</g>
<!-- Node2&#45;&gt;Node5 -->
<g id="edge4" class="edge"><title>Node2&#45;&gt;Node5</title>
<path fill="none" stroke="midnightblue" d="M154.038,-21.9705C162.425,-20.2383 171.382,-18.3884 179.686,-16.6736"/>
<polygon fill="midnightblue" stroke="midnightblue" points="153.257,-18.5577 144.172,-24.008 154.673,-25.413 153.257,-18.5577"/>
</g>
<!-- Node4 -->
<g id="node4" class="node"><title>Node4</title>
<g id="a_node4"><a xlink:href="../../d8/d97/ldblib_8c.html#ae802ce7397e9ebb08a90b69976578ecc" target="_top" xlink:title="db_getlocal">
<polygon fill="none" stroke="black" points="282,-38.5 282,-57.5 347,-57.5 347,-38.5 282,-38.5"/>
<text text-anchor="middle" x="314.5" y="-45.5" font-family="Helvetica,sans-Serif" font-size="10.00">db_getlocal</text>
</a>
</g>
</g>
<!-- Node3&#45;&gt;Node4 -->
<g id="edge3" class="edge"><title>Node3&#45;&gt;Node4</title>
<path fill="none" stroke="midnightblue" d="M256.274,-48C264.853,-48 273.736,-48 281.87,-48"/>
<polygon fill="midnightblue" stroke="midnightblue" points="256.03,-44.5001 246.03,-48 256.03,-51.5001 256.03,-44.5001"/>
</g>
<!-- Node6 -->
<g id="node6" class="node"><title>Node6</title>
<g id="a_node6"><a xlink:href="../../d8/d97/ldblib_8c.html#a11cfe90e96e7ea907a767f5109f7ef4b" target="_top" xlink:title="db_setlocal">
<polygon fill="none" stroke="black" points="282,-0.5 282,-19.5 347,-19.5 347,-0.5 282,-0.5"/>
<text text-anchor="middle" x="314.5" y="-7.5" font-family="Helvetica,sans-Serif" font-size="10.00">db_setlocal</text>
</a>
</g>
</g>
<!-- Node5&#45;&gt;Node6 -->
<g id="edge5" class="edge"><title>Node5&#45;&gt;Node6</title>
<path fill="none" stroke="midnightblue" d="M256.274,-10C264.853,-10 273.736,-10 281.87,-10"/>
<polygon fill="midnightblue" stroke="midnightblue" points="256.03,-6.5001 246.03,-10 256.03,-13.5001 256.03,-6.5001"/>
</g>
</g>
</svg>
