<?xml version="1.0" encoding="UTF-8" standalone="no"?>
<!DOCTYPE svg PUBLIC "-//W3C//DTD SVG 1.1//EN"
 "http://www.w3.org/Graphics/SVG/1.1/DTD/svg11.dtd">
<!-- Generated by graphviz version 2.38.0 (20140413.2041)
 -->
<!-- Title: findlocal Pages: 1 -->
<svg width="261pt" height="66pt"
 viewBox="0.00 0.00 261.00 66.00" xmlns="http://www.w3.org/2000/svg" xmlns:xlink="http://www.w3.org/1999/xlink">
<g id="graph0" class="graph" transform="scale(1 1) rotate(0) translate(4 62)">
<title>findlocal</title>
<!-- Node1 -->
<g id="node1" class="node"><title>Node1</title>
<polygon fill="#bfbfbf" stroke="black" points="0,-19.5 0,-38.5 50,-38.5 50,-19.5 0,-19.5"/>
<text text-anchor="middle" x="25" y="-26.5" font-family="Helvetica,sans-Serif" font-size="10.00">findlocal</text>
</g>
<!-- Node2 -->
<g id="node2" class="node"><title>Node2</title>
<g id="a_node2"><a xlink:href="../../da/dd2/lua_8h.html#afab4c753a151dd222a3de6ca5daf4ce2" target="_top" xlink:title="lua_getlocal">
<polygon fill="none" stroke="black" points="86,-38.5 86,-57.5 152,-57.5 152,-38.5 86,-38.5"/>
<text text-anchor="middle" x="119" y="-45.5" font-family="Helvetica,sans-Serif" font-size="10.00">lua_getlocal</text>
</a>
</g>
</g>
<!-- Node1&#45;&gt;Node2 -->
<g id="edge1" class="edge"><title>Node1&#45;&gt;Node2</title>
<path fill="none" stroke="midnightblue" d="M60.0375,-36.0295C68.4249,-37.7617 77.3824,-39.6116 85.6855,-41.3264"/>
<polygon fill="midnightblue" stroke="midnightblue" points="60.6732,-32.587 50.1719,-33.992 59.2573,-39.4423 60.6732,-32.587"/>
</g>
<!-- Node4 -->
<g id="node4" class="node"><title>Node4</title>
<g id="a_node4"><a xlink:href="../../da/dd2/lua_8h.html#a009cbda7b68bd7047677d280db4ea064" target="_top" xlink:title="lua_setlocal">
<polygon fill="none" stroke="black" points="86,-0.5 86,-19.5 152,-19.5 152,-0.5 86,-0.5"/>
<text text-anchor="middle" x="119" y="-7.5" font-family="Helvetica,sans-Serif" font-size="10.00">lua_setlocal</text>
</a>
</g>
</g>
<!-- Node1&#45;&gt;Node4 -->
<g id="edge3" class="edge"><title>Node1&#45;&gt;Node4</title>
<path fill="none" stroke="midnightblue" d="M60.0375,-21.9705C68.4249,-20.2383 77.3824,-18.3884 85.6855,-16.6736"/>
<polygon fill="midnightblue" stroke="midnightblue" points="59.2573,-18.5577 50.1719,-24.008 60.6732,-25.413 59.2573,-18.5577"/>
</g>
<!-- Node3 -->
<g id="node3" class="node"><title>Node3</title>
<g id="a_node3"><a xlink:href="../../d8/d97/ldblib_8c.html#ae802ce7397e9ebb08a90b69976578ecc" target="_top" xlink:title="db_getlocal">
<polygon fill="none" stroke="black" points="188,-38.5 188,-57.5 253,-57.5 253,-38.5 188,-38.5"/>
<text text-anchor="middle" x="220.5" y="-45.5" font-family="Helvetica,sans-Serif" font-size="10.00">db_getlocal</text>
</a>
</g>
</g>
<!-- Node2&#45;&gt;Node3 -->
<g id="edge2" class="edge"><title>Node2&#45;&gt;Node3</title>
<path fill="none" stroke="midnightblue" d="M162.274,-48C170.853,-48 179.736,-48 187.87,-48"/>
<polygon fill="midnightblue" stroke="midnightblue" points="162.03,-44.5001 152.03,-48 162.03,-51.5001 162.03,-44.5001"/>
</g>
<!-- Node5 -->
<g id="node5" class="node"><title>Node5</title>
<g id="a_node5"><a xlink:href="../../d8/d97/ldblib_8c.html#a11cfe90e96e7ea907a767f5109f7ef4b" target="_top" xlink:title="db_setlocal">
<polygon fill="none" stroke="black" points="188,-0.5 188,-19.5 253,-19.5 253,-0.5 188,-0.5"/>
<text text-anchor="middle" x="220.5" y="-7.5" font-family="Helvetica,sans-Serif" font-size="10.00">db_setlocal</text>
</a>
</g>
</g>
<!-- Node4&#45;&gt;Node5 -->
<g id="edge4" class="edge"><title>Node4&#45;&gt;Node5</title>
<path fill="none" stroke="midnightblue" d="M162.274,-10C170.853,-10 179.736,-10 187.87,-10"/>
<polygon fill="midnightblue" stroke="midnightblue" points="162.03,-6.5001 152.03,-10 162.03,-13.5001 162.03,-6.5001"/>
</g>
</g>
</svg>
