<?xml version="1.0" encoding="UTF-8" standalone="no"?>
<!DOCTYPE svg PUBLIC "-//W3C//DTD SVG 1.1//EN"
 "http://www.w3.org/Graphics/SVG/1.1/DTD/svg11.dtd">
<!-- Generated by graphviz version 2.38.0 (20140413.2041)
 -->
<!-- Title: kname Pages: 1 -->
<svg width="859pt" height="1130pt"
 viewBox="0.00 0.00 859.00 1130.00" xmlns="http://www.w3.org/2000/svg" xmlns:xlink="http://www.w3.org/1999/xlink">
<g id="graph0" class="graph" transform="scale(1 1) rotate(0) translate(4 1126)">
<title>kname</title>
<!-- Node1 -->
<g id="node1" class="node"><title>Node1</title>
<polygon fill="#bfbfbf" stroke="black" points="0,-732.5 0,-751.5 45,-751.5 45,-732.5 0,-732.5"/>
<text text-anchor="middle" x="22.5" y="-739.5" font-family="Helvetica,sans-Serif" font-size="10.00">kname</text>
</g>
<!-- Node2 -->
<g id="node2" class="node"><title>Node2</title>
<g id="a_node2"><a xlink:href="../../d6/ddf/ldebug_8c.html#a3f798dedd04b16528c13c4320261c0ea" target="_top" xlink:title="getobjname">
<polygon fill="none" stroke="black" points="81,-732.5 81,-751.5 148,-751.5 148,-732.5 81,-732.5"/>
<text text-anchor="middle" x="114.5" y="-739.5" font-family="Helvetica,sans-Serif" font-size="10.00">getobjname</text>
</a>
</g>
</g>
<!-- Node1&#45;&gt;Node2 -->
<g id="edge1" class="edge"><title>Node1&#45;&gt;Node2</title>
<path fill="none" stroke="midnightblue" d="M55.2721,-735.516C63.5029,-735.176 72.3817,-735.162 80.6657,-735.474"/>
<polygon fill="midnightblue" stroke="midnightblue" points="55.0562,-732.023 45.2865,-736.122 55.4801,-739.01 55.0562,-732.023"/>
</g>
<!-- Node2&#45;&gt;Node1 -->
<g id="edge14" class="edge"><title>Node2&#45;&gt;Node1</title>
<path fill="none" stroke="midnightblue" d="M70.5189,-748.744C61.7676,-748.796 52.9144,-748.508 45.2865,-747.878"/>
<polygon fill="midnightblue" stroke="midnightblue" points="70.7433,-752.24 80.6657,-748.526 70.5928,-745.242 70.7433,-752.24"/>
</g>
<!-- Node3 -->
<g id="node3" class="node"><title>Node3</title>
<g id="a_node3"><a xlink:href="../../d6/ddf/ldebug_8c.html#abf0d60b43b4bff2821e87b2f4054a6b7" target="_top" xlink:title="getfuncname">
<polygon fill="none" stroke="black" points="188,-799.5 188,-818.5 259,-818.5 259,-799.5 188,-799.5"/>
<text text-anchor="middle" x="223.5" y="-806.5" font-family="Helvetica,sans-Serif" font-size="10.00">getfuncname</text>
</a>
</g>
</g>
<!-- Node2&#45;&gt;Node3 -->
<g id="edge2" class="edge"><title>Node2&#45;&gt;Node3</title>
<path fill="none" stroke="midnightblue" d="M139.396,-756.963C160.12,-769.939 189.492,-788.331 207.198,-799.418"/>
<polygon fill="midnightblue" stroke="midnightblue" points="141.164,-753.94 130.83,-751.599 137.449,-759.873 141.164,-753.94"/>
</g>
<!-- Node13 -->
<g id="node13" class="node"><title>Node13</title>
<g id="a_node13"><a xlink:href="../../db/d46/ldebug_8h.html#a375161dd1513420561f20f0b4c7b7e66" target="_top" xlink:title="luaG_typeerror">
<polygon fill="none" stroke="black" points="184,-665.5 184,-684.5 263,-684.5 263,-665.5 184,-665.5"/>
<text text-anchor="middle" x="223.5" y="-672.5" font-family="Helvetica,sans-Serif" font-size="10.00">luaG_typeerror</text>
</a>
</g>
</g>
<!-- Node2&#45;&gt;Node13 -->
<g id="edge15" class="edge"><title>Node2&#45;&gt;Node13</title>
<path fill="none" stroke="midnightblue" d="M139.396,-727.037C160.12,-714.061 189.492,-695.669 207.198,-684.582"/>
<polygon fill="midnightblue" stroke="midnightblue" points="137.449,-724.127 130.83,-732.401 141.164,-730.06 137.449,-724.127"/>
</g>
<!-- Node4 -->
<g id="node4" class="node"><title>Node4</title>
<g id="a_node4"><a xlink:href="../../d6/ddf/ldebug_8c.html#ad72fa774194e83872bac4e5bf6ec1160" target="_top" xlink:title="auxgetinfo">
<polygon fill="none" stroke="black" points="313,-895.5 313,-914.5 373,-914.5 373,-895.5 313,-895.5"/>
<text text-anchor="middle" x="343" y="-902.5" font-family="Helvetica,sans-Serif" font-size="10.00">auxgetinfo</text>
</a>
</g>
</g>
<!-- Node3&#45;&gt;Node4 -->
<g id="edge3" class="edge"><title>Node3&#45;&gt;Node4</title>
<path fill="none" stroke="midnightblue" d="M244.148,-825.053C268.789,-845.185 310.238,-879.05 330.351,-895.483"/>
<polygon fill="midnightblue" stroke="midnightblue" points="246.154,-822.172 236.196,-818.556 241.725,-827.593 246.154,-822.172"/>
</g>
<!-- Node5 -->
<g id="node5" class="node"><title>Node5</title>
<g id="a_node5"><a xlink:href="../../da/dd2/lua_8h.html#a9cf23593facaabc7fb42e4d232a507d7" target="_top" xlink:title="lua_getinfo">
<polygon fill="none" stroke="black" points="428.5,-969.5 428.5,-988.5 490.5,-988.5 490.5,-969.5 428.5,-969.5"/>
<text text-anchor="middle" x="459.5" y="-976.5" font-family="Helvetica,sans-Serif" font-size="10.00">lua_getinfo</text>
</a>
</g>
</g>
<!-- Node4&#45;&gt;Node5 -->
<g id="edge4" class="edge"><title>Node4&#45;&gt;Node5</title>
<path fill="none" stroke="midnightblue" d="M367.395,-920.12C390.187,-934.85 424.153,-956.802 443.527,-969.323"/>
<polygon fill="midnightblue" stroke="midnightblue" points="369.267,-917.163 358.969,-914.674 365.468,-923.042 369.267,-917.163"/>
</g>
<!-- Node6 -->
<g id="node6" class="node"><title>Node6</title>
<g id="a_node6"><a xlink:href="../../d0/d56/lauxlib_8c.html#a4f35430f7ecfcbd5f507e550937046b4" target="_top" xlink:title="pushglobalfuncname">
<polygon fill="none" stroke="red" points="532,-1102.5 532,-1121.5 637,-1121.5 637,-1102.5 532,-1102.5"/>
<text text-anchor="middle" x="584.5" y="-1109.5" font-family="Helvetica,sans-Serif" font-size="10.00">pushglobalfuncname</text>
</a>
</g>
</g>
<!-- Node5&#45;&gt;Node6 -->
<g id="edge5" class="edge"><title>Node5&#45;&gt;Node6</title>
<path fill="none" stroke="midnightblue" d="M468.939,-998.082C480.281,-1021.86 502.479,-1062.46 532,-1088 538.863,-1093.94 547.445,-1098.71 555.623,-1102.38"/>
<polygon fill="midnightblue" stroke="midnightblue" points="471.995,-996.35 464.629,-988.735 465.638,-999.282 471.995,-996.35"/>
</g>
<!-- Node7 -->
<g id="node7" class="node"><title>Node7</title>
<g id="a_node7"><a xlink:href="../../da/d29/lauxlib_8h.html#a526c220d17273c63ce9973bcde4a2c4a" target="_top" xlink:title="luaL_argerror">
<polygon fill="none" stroke="red" points="678.5,-1064.5 678.5,-1083.5 749.5,-1083.5 749.5,-1064.5 678.5,-1064.5"/>
<text text-anchor="middle" x="714" y="-1071.5" font-family="Helvetica,sans-Serif" font-size="10.00">luaL_argerror</text>
</a>
</g>
</g>
<!-- Node5&#45;&gt;Node7 -->
<g id="edge9" class="edge"><title>Node5&#45;&gt;Node7</title>
<path fill="none" stroke="midnightblue" d="M473.06,-996.957C485.832,-1013.69 507.229,-1037.82 532,-1050 578.939,-1073.07 640.562,-1076.37 678.441,-1075.8"/>
<polygon fill="midnightblue" stroke="midnightblue" points="475.625,-994.537 466.884,-988.548 469.982,-998.68 475.625,-994.537"/>
</g>
<!-- Node8 -->
<g id="node8" class="node"><title>Node8</title>
<g id="a_node8"><a xlink:href="../../d8/d97/ldblib_8c.html#a4eb57e66c2efb2d31c9b9e1b01d27e13" target="_top" xlink:title="db_getinfo">
<polygon fill="none" stroke="black" points="791,-1045.5 791,-1064.5 851,-1064.5 851,-1045.5 791,-1045.5"/>
<text text-anchor="middle" x="821" y="-1052.5" font-family="Helvetica,sans-Serif" font-size="10.00">db_getinfo</text>
</a>
</g>
</g>
<!-- Node5&#45;&gt;Node8 -->
<g id="edge11" class="edge"><title>Node5&#45;&gt;Node8</title>
<path fill="none" stroke="midnightblue" d="M500.494,-991.489C510.714,-994.475 521.72,-997.515 532,-1000 625.762,-1022.67 738.521,-1041.91 790.776,-1050.38"/>
<polygon fill="midnightblue" stroke="midnightblue" points="501.176,-988.04 490.593,-988.543 499.179,-994.75 501.176,-988.04"/>
</g>
<!-- Node9 -->
<g id="node9" class="node"><title>Node9</title>
<g id="a_node9"><a xlink:href="../../da/d29/lauxlib_8h.html#a664cc293d6c7a7dc67857fe95583a10e" target="_top" xlink:title="luaL_traceback">
<polygon fill="none" stroke="red" points="673.5,-874.5 673.5,-893.5 754.5,-893.5 754.5,-874.5 673.5,-874.5"/>
<text text-anchor="middle" x="714" y="-881.5" font-family="Helvetica,sans-Serif" font-size="10.00">luaL_traceback</text>
</a>
</g>
</g>
<!-- Node5&#45;&gt;Node9 -->
<g id="edge8" class="edge"><title>Node5&#45;&gt;Node9</title>
<path fill="none" stroke="midnightblue" d="M500.642,-988.499C537.909,-995.186 593.958,-999.687 637,-979 674.693,-960.884 699.543,-913.962 708.869,-893.63"/>
<polygon fill="midnightblue" stroke="midnightblue" points="501.137,-985.03 490.655,-986.574 499.812,-991.903 501.137,-985.03"/>
</g>
<!-- Node10 -->
<g id="node10" class="node"><title>Node10</title>
<g id="a_node10"><a xlink:href="../../da/d29/lauxlib_8h.html#a269122a77674ca63c9193c2a30b4729e" target="_top" xlink:title="luaL_where">
<polygon fill="none" stroke="red" points="551.5,-950.5 551.5,-969.5 617.5,-969.5 617.5,-950.5 551.5,-950.5"/>
<text text-anchor="middle" x="584.5" y="-957.5" font-family="Helvetica,sans-Serif" font-size="10.00">luaL_where</text>
</a>
</g>
</g>
<!-- Node5&#45;&gt;Node10 -->
<g id="edge10" class="edge"><title>Node5&#45;&gt;Node10</title>
<path fill="none" stroke="midnightblue" d="M500.918,-972.757C517.214,-970.239 535.756,-967.375 551.137,-964.999"/>
<polygon fill="midnightblue" stroke="midnightblue" points="499.938,-969.366 490.589,-974.352 501.006,-976.284 499.938,-969.366"/>
</g>
<!-- Node11 -->
<g id="node11" class="node"><title>Node11</title>
<g id="a_node11"><a xlink:href="../../d8/d97/ldblib_8c.html#a0951daf8c0b66e39bd3aa618aff380bf" target="_top" xlink:title="checkupval">
<polygon fill="none" stroke="red" points="552,-912.5 552,-931.5 617,-931.5 617,-912.5 552,-912.5"/>
<text text-anchor="middle" x="584.5" y="-919.5" font-family="Helvetica,sans-Serif" font-size="10.00">checkupval</text>
</a>
</g>
</g>
<!-- Node5&#45;&gt;Node11 -->
<g id="edge12" class="edge"><title>Node5&#45;&gt;Node11</title>
<path fill="none" stroke="midnightblue" d="M485.668,-964.552C499.184,-957.068 516.259,-948.048 532,-941 539.48,-937.651 547.747,-934.408 555.427,-931.577"/>
<polygon fill="midnightblue" stroke="midnightblue" points="483.952,-961.501 476.94,-969.444 487.375,-967.607 483.952,-961.501"/>
</g>
<!-- Node12 -->
<g id="node12" class="node"><title>Node12</title>
<g id="a_node12"><a xlink:href="../../d8/d97/ldblib_8c.html#a5caaa985f31fc5cbd014f831833205e7" target="_top" xlink:title="hookf">
<polygon fill="none" stroke="red" points="565,-874.5 565,-893.5 604,-893.5 604,-874.5 565,-874.5"/>
<text text-anchor="middle" x="584.5" y="-881.5" font-family="Helvetica,sans-Serif" font-size="10.00">hookf</text>
</a>
</g>
</g>
<!-- Node5&#45;&gt;Node12 -->
<g id="edge13" class="edge"><title>Node5&#45;&gt;Node12</title>
<path fill="none" stroke="midnightblue" d="M473.112,-961.46C486.15,-944.443 507.944,-918.922 532,-903 542.013,-896.373 554.646,-891.666 564.893,-888.596"/>
<polygon fill="midnightblue" stroke="midnightblue" points="470.298,-959.379 467.126,-969.488 475.909,-963.563 470.298,-959.379"/>
</g>
<!-- Node6&#45;&gt;Node7 -->
<g id="edge6" class="edge"><title>Node6&#45;&gt;Node7</title>
<path fill="none" stroke="midnightblue" d="M627.559,-1099.46C644.904,-1094.3 664.681,-1088.4 680.837,-1083.59"/>
<polygon fill="midnightblue" stroke="midnightblue" points="626.257,-1096.2 617.674,-1102.41 628.257,-1102.91 626.257,-1096.2"/>
</g>
<!-- Node7&#45;&gt;Node8 -->
<g id="edge7" class="edge"><title>Node7&#45;&gt;Node8</title>
<path fill="none" stroke="midnightblue" d="M759.644,-1065.92C770.246,-1064 781.284,-1062.01 790.978,-1060.25"/>
<polygon fill="midnightblue" stroke="midnightblue" points="758.889,-1062.5 749.672,-1067.73 760.135,-1069.39 758.889,-1062.5"/>
</g>
<!-- Node14 -->
<g id="node14" class="node"><title>Node14</title>
<g id="a_node14"><a xlink:href="../../db/d46/ldebug_8h.html#af2c81da7e357ed468787d792b4a04e54" target="_top" xlink:title="luaG_concaterror">
<polygon fill="none" stroke="black" points="299,-783.5 299,-802.5 387,-802.5 387,-783.5 299,-783.5"/>
<text text-anchor="middle" x="343" y="-790.5" font-family="Helvetica,sans-Serif" font-size="10.00">luaG_concaterror</text>
</a>
</g>
</g>
<!-- Node13&#45;&gt;Node14 -->
<g id="edge16" class="edge"><title>Node13&#45;&gt;Node14</title>
<path fill="none" stroke="midnightblue" d="M238.218,-692.603C252.509,-710.452 275.988,-738.439 299,-760 308.065,-768.493 319.214,-777.001 327.888,-783.251"/>
<polygon fill="midnightblue" stroke="midnightblue" points="240.935,-690.396 231.983,-684.728 235.447,-694.741 240.935,-690.396"/>
</g>
<!-- Node22 -->
<g id="node22" class="node"><title>Node22</title>
<g id="a_node22"><a xlink:href="../../db/d46/ldebug_8h.html#ab66c1eafd0acffec1bd270ae33e5f1ca" target="_top" xlink:title="luaG_aritherror">
<polygon fill="none" stroke="black" points="304.5,-731.5 304.5,-750.5 381.5,-750.5 381.5,-731.5 304.5,-731.5"/>
<text text-anchor="middle" x="343" y="-738.5" font-family="Helvetica,sans-Serif" font-size="10.00">luaG_aritherror</text>
</a>
</g>
</g>
<!-- Node13&#45;&gt;Node22 -->
<g id="edge26" class="edge"><title>Node13&#45;&gt;Node22</title>
<path fill="none" stroke="midnightblue" d="M250.344,-689.517C273.005,-702.245 305.305,-720.389 324.894,-731.391"/>
<polygon fill="midnightblue" stroke="midnightblue" points="252.018,-686.443 241.586,-684.597 248.59,-692.546 252.018,-686.443"/>
</g>
<!-- Node25 -->
<g id="node25" class="node"><title>Node25</title>
<g id="a_node25"><a xlink:href="../../d3/d08/ldo_8c.html#a9f83d36f24672570ff7793686c02ed4a" target="_top" xlink:title="tryfuncTM">
<polygon fill="none" stroke="black" points="314.5,-523.5 314.5,-542.5 371.5,-542.5 371.5,-523.5 314.5,-523.5"/>
<text text-anchor="middle" x="343" y="-530.5" font-family="Helvetica,sans-Serif" font-size="10.00">tryfuncTM</text>
</a>
</g>
</g>
<!-- Node13&#45;&gt;Node25 -->
<g id="edge30" class="edge"><title>Node13&#45;&gt;Node25</title>
<path fill="none" stroke="midnightblue" d="M239.2,-657.234C264.22,-626.998 314.272,-566.51 333.867,-542.829"/>
<polygon fill="midnightblue" stroke="midnightblue" points="236.255,-655.304 232.576,-665.24 241.648,-659.767 236.255,-655.304"/>
</g>
<!-- Node27 -->
<g id="node27" class="node"><title>Node27</title>
<g id="a_node27"><a xlink:href="../../d5/dcd/lvm_8h.html#adacdbccc9d8fab937a1b0dc058c8da12" target="_top" xlink:title="luaV_gettable">
<polygon fill="none" stroke="black" points="305.5,-285.5 305.5,-304.5 380.5,-304.5 380.5,-285.5 305.5,-285.5"/>
<text text-anchor="middle" x="343" y="-292.5" font-family="Helvetica,sans-Serif" font-size="10.00">luaV_gettable</text>
</a>
</g>
</g>
<!-- Node13&#45;&gt;Node27 -->
<g id="edge36" class="edge"><title>Node13&#45;&gt;Node27</title>
<path fill="none" stroke="midnightblue" d="M230.494,-655.617C251.799,-586.714 323.429,-355.059 338.997,-304.711"/>
<polygon fill="midnightblue" stroke="midnightblue" points="227.133,-654.637 227.523,-665.225 233.821,-656.705 227.133,-654.637"/>
</g>
<!-- Node45 -->
<g id="node45" class="node"><title>Node45</title>
<g id="a_node45"><a xlink:href="../../d5/dcd/lvm_8h.html#a5885d48fd66eb236f8b8f6e4938cbcce" target="_top" xlink:title="luaV_settable">
<polygon fill="none" stroke="black" points="305.5,-665.5 305.5,-684.5 380.5,-684.5 380.5,-665.5 305.5,-665.5"/>
<text text-anchor="middle" x="343" y="-672.5" font-family="Helvetica,sans-Serif" font-size="10.00">luaV_settable</text>
</a>
</g>
</g>
<!-- Node13&#45;&gt;Node45 -->
<g id="edge56" class="edge"><title>Node13&#45;&gt;Node45</title>
<path fill="none" stroke="midnightblue" d="M273.343,-675C284.012,-675 295.13,-675 305.234,-675"/>
<polygon fill="midnightblue" stroke="midnightblue" points="273.3,-671.5 263.3,-675 273.3,-678.5 273.3,-671.5"/>
</g>
<!-- Node49 -->
<g id="node49" class="node"><title>Node49</title>
<g id="a_node49"><a xlink:href="../../d5/dcd/lvm_8h.html#a414b4b487239935324f2f16e1e7715db" target="_top" xlink:title="luaV_objlen">
<polygon fill="none" stroke="black" points="309.5,-608.5 309.5,-627.5 376.5,-627.5 376.5,-608.5 309.5,-608.5"/>
<text text-anchor="middle" x="343" y="-615.5" font-family="Helvetica,sans-Serif" font-size="10.00">luaV_objlen</text>
</a>
</g>
</g>
<!-- Node13&#45;&gt;Node49 -->
<g id="edge64" class="edge"><title>Node13&#45;&gt;Node49</title>
<path fill="none" stroke="midnightblue" d="M253.436,-660.963C274.844,-650.578 303.438,-636.707 322.269,-627.572"/>
<polygon fill="midnightblue" stroke="midnightblue" points="251.636,-657.946 244.167,-665.459 254.692,-664.244 251.636,-657.946"/>
</g>
<!-- Node15 -->
<g id="node15" class="node"><title>Node15</title>
<g id="a_node15"><a xlink:href="../../d5/dcd/lvm_8h.html#aee84bfc563cb4bdd21a013218a289aa7" target="_top" xlink:title="luaV_concat">
<polygon fill="none" stroke="black" points="425,-798.5 425,-817.5 494,-817.5 494,-798.5 425,-798.5"/>
<text text-anchor="middle" x="459.5" y="-805.5" font-family="Helvetica,sans-Serif" font-size="10.00">luaV_concat</text>
</a>
</g>
</g>
<!-- Node14&#45;&gt;Node15 -->
<g id="edge17" class="edge"><title>Node14&#45;&gt;Node15</title>
<path fill="none" stroke="midnightblue" d="M397.329,-799.986C406.677,-801.211 416.165,-802.454 424.79,-803.584"/>
<polygon fill="midnightblue" stroke="midnightblue" points="397.657,-796.5 387.288,-798.671 396.748,-803.44 397.657,-796.5"/>
</g>
<!-- Node16 -->
<g id="node16" class="node"><title>Node16</title>
<g id="a_node16"><a xlink:href="../../da/dd2/lua_8h.html#a4eba0457df5bafff4d44071d1d8080b6" target="_top" xlink:title="lua_concat">
<polygon fill="none" stroke="red" points="553.5,-760.5 553.5,-779.5 615.5,-779.5 615.5,-760.5 553.5,-760.5"/>
<text text-anchor="middle" x="584.5" y="-767.5" font-family="Helvetica,sans-Serif" font-size="10.00">lua_concat</text>
</a>
</g>
</g>
<!-- Node15&#45;&gt;Node16 -->
<g id="edge18" class="edge"><title>Node15&#45;&gt;Node16</title>
<path fill="none" stroke="midnightblue" d="M501.225,-795.418C518.228,-790.165 537.631,-784.171 553.322,-779.323"/>
<polygon fill="midnightblue" stroke="midnightblue" points="500.059,-792.115 491.538,-798.411 502.126,-798.803 500.059,-792.115"/>
</g>
<!-- Node17 -->
<g id="node17" class="node"><title>Node17</title>
<g id="a_node17"><a xlink:href="../../d2/d51/lobject_8h.html#a0d323372aa00f179e1c070d305f879f3" target="_top" xlink:title="luaO_pushvfstring">
<polygon fill="none" stroke="red" points="537.5,-836.5 537.5,-855.5 631.5,-855.5 631.5,-836.5 537.5,-836.5"/>
<text text-anchor="middle" x="584.5" y="-843.5" font-family="Helvetica,sans-Serif" font-size="10.00">luaO_pushvfstring</text>
</a>
</g>
</g>
<!-- Node15&#45;&gt;Node17 -->
<g id="edge20" class="edge"><title>Node15&#45;&gt;Node17</title>
<path fill="none" stroke="midnightblue" d="M501.545,-820.68C518.164,-825.815 537.032,-831.644 552.472,-836.414"/>
<polygon fill="midnightblue" stroke="midnightblue" points="502.126,-817.197 491.538,-817.589 500.059,-823.885 502.126,-817.197"/>
</g>
<!-- Node18 -->
<g id="node18" class="node"><title>Node18</title>
<g id="a_node18"><a xlink:href="../../d5/dcd/lvm_8h.html#a5db3e64b3cc2f63c3b10b27f7ecd1d03" target="_top" xlink:title="luaV_finishOp">
<polygon fill="none" stroke="red" points="546,-798.5 546,-817.5 623,-817.5 623,-798.5 546,-798.5"/>
<text text-anchor="middle" x="584.5" y="-805.5" font-family="Helvetica,sans-Serif" font-size="10.00">luaV_finishOp</text>
</a>
</g>
</g>
<!-- Node15&#45;&gt;Node18 -->
<g id="edge21" class="edge"><title>Node15&#45;&gt;Node18</title>
<path fill="none" stroke="midnightblue" d="M504.163,-808C517.694,-808 532.485,-808 545.592,-808"/>
<polygon fill="midnightblue" stroke="midnightblue" points="504.11,-804.5 494.11,-808 504.11,-811.5 504.11,-804.5"/>
</g>
<!-- Node19 -->
<g id="node19" class="node"><title>Node19</title>
<g id="a_node19"><a xlink:href="../../d5/dcd/lvm_8h.html#ae93565adc36c6e2157dbbd875433ede1" target="_top" xlink:title="luaV_execute">
<polygon fill="none" stroke="red" points="547.5,-608.5 547.5,-627.5 621.5,-627.5 621.5,-608.5 547.5,-608.5"/>
<text text-anchor="middle" x="584.5" y="-615.5" font-family="Helvetica,sans-Serif" font-size="10.00">luaV_execute</text>
</a>
</g>
</g>
<!-- Node15&#45;&gt;Node19 -->
<g id="edge22" class="edge"><title>Node15&#45;&gt;Node19</title>
<path fill="none" stroke="midnightblue" d="M492.148,-792.566C493.513,-791.441 494.807,-790.253 496,-789 521.773,-761.931 515.087,-746.33 532,-713 548.045,-681.38 568.469,-644.668 578.061,-627.618"/>
<polygon fill="midnightblue" stroke="midnightblue" points="490.04,-789.768 483.776,-798.313 494.002,-795.539 490.04,-789.768"/>
</g>
<!-- Node16&#45;&gt;Node9 -->
<g id="edge19" class="edge"><title>Node16&#45;&gt;Node9</title>
<path fill="none" stroke="midnightblue" d="M625.057,-782.023C629.262,-784.042 633.336,-786.358 637,-789 670.407,-813.09 697.017,-855.601 707.801,-874.492"/>
<polygon fill="midnightblue" stroke="midnightblue" points="626.321,-778.758 615.749,-778.066 623.582,-785.2 626.321,-778.758"/>
</g>
<!-- Node20 -->
<g id="node20" class="node"><title>Node20</title>
<g id="a_node20"><a xlink:href="../../d2/dd9/ldo_8h.html#a7bb0b106d4012134156e0fa240f51228" target="_top" xlink:title="luaD_call">
<polygon fill="none" stroke="red" points="686,-608.5 686,-627.5 742,-627.5 742,-608.5 686,-608.5"/>
<text text-anchor="middle" x="714" y="-615.5" font-family="Helvetica,sans-Serif" font-size="10.00">luaD_call</text>
</a>
</g>
</g>
<!-- Node19&#45;&gt;Node20 -->
<g id="edge23" class="edge"><title>Node19&#45;&gt;Node20</title>
<path fill="none" stroke="midnightblue" d="M631.769,-611.481C649.844,-610.992 669.951,-611.279 685.638,-612.342"/>
<polygon fill="midnightblue" stroke="midnightblue" points="631.562,-607.986 621.695,-611.845 631.815,-614.981 631.562,-607.986"/>
</g>
<!-- Node21 -->
<g id="node21" class="node"><title>Node21</title>
<g id="a_node21"><a xlink:href="../../d3/d08/ldo_8c.html#abd7632c715de5db6e7797b7fa3f7010f" target="_top" xlink:title="resume">
<polygon fill="none" stroke="red" points="690.5,-551.5 690.5,-570.5 737.5,-570.5 737.5,-551.5 690.5,-551.5"/>
<text text-anchor="middle" x="714" y="-558.5" font-family="Helvetica,sans-Serif" font-size="10.00">resume</text>
</a>
</g>
</g>
<!-- Node19&#45;&gt;Node21 -->
<g id="edge25" class="edge"><title>Node19&#45;&gt;Node21</title>
<path fill="none" stroke="midnightblue" d="M616.273,-604.243C639.569,-593.828 670.972,-579.789 691.59,-570.572"/>
<polygon fill="midnightblue" stroke="midnightblue" points="614.541,-601.183 606.841,-608.459 617.398,-607.573 614.541,-601.183"/>
</g>
<!-- Node20&#45;&gt;Node19 -->
<g id="edge24" class="edge"><title>Node20&#45;&gt;Node19</title>
<path fill="none" stroke="midnightblue" d="M675.507,-624.213C658.522,-624.948 638.523,-624.929 621.695,-624.155"/>
<polygon fill="midnightblue" stroke="midnightblue" points="675.845,-627.7 685.638,-623.658 675.462,-620.71 675.845,-627.7"/>
</g>
<!-- Node23 -->
<g id="node23" class="node"><title>Node23</title>
<g id="a_node23"><a xlink:href="../../d5/dcd/lvm_8h.html#a275e261afaec876cd16944b95c955642" target="_top" xlink:title="luaV_arith">
<polygon fill="none" stroke="black" points="430,-760.5 430,-779.5 489,-779.5 489,-760.5 430,-760.5"/>
<text text-anchor="middle" x="459.5" y="-767.5" font-family="Helvetica,sans-Serif" font-size="10.00">luaV_arith</text>
</a>
</g>
</g>
<!-- Node22&#45;&gt;Node23 -->
<g id="edge27" class="edge"><title>Node22&#45;&gt;Node23</title>
<path fill="none" stroke="midnightblue" d="M391.561,-753.046C404.549,-756.336 418.222,-759.799 429.801,-762.731"/>
<polygon fill="midnightblue" stroke="midnightblue" points="392.362,-749.638 381.809,-750.576 390.643,-756.424 392.362,-749.638"/>
</g>
<!-- Node23&#45;&gt;Node19 -->
<g id="edge29" class="edge"><title>Node23&#45;&gt;Node19</title>
<path fill="none" stroke="midnightblue" d="M491.293,-754.837C492.946,-753.624 494.529,-752.344 496,-751 537.632,-712.975 568.476,-651.096 579.289,-627.527"/>
<polygon fill="midnightblue" stroke="midnightblue" points="489.205,-752.017 482.653,-760.343 492.967,-757.92 489.205,-752.017"/>
</g>
<!-- Node24 -->
<g id="node24" class="node"><title>Node24</title>
<g id="a_node24"><a xlink:href="../../da/dd2/lua_8h.html#ab0a8e0d4a119fa51c2785e25d5b5aa08" target="_top" xlink:title="lua_arith">
<polygon fill="none" stroke="black" points="558.5,-722.5 558.5,-741.5 610.5,-741.5 610.5,-722.5 558.5,-722.5"/>
<text text-anchor="middle" x="584.5" y="-729.5" font-family="Helvetica,sans-Serif" font-size="10.00">lua_arith</text>
</a>
</g>
</g>
<!-- Node23&#45;&gt;Node24 -->
<g id="edge28" class="edge"><title>Node23&#45;&gt;Node24</title>
<path fill="none" stroke="midnightblue" d="M498.813,-758.163C518.254,-752.157 541.316,-745.032 558.461,-739.736"/>
<polygon fill="midnightblue" stroke="midnightblue" points="497.549,-754.891 489.028,-761.187 499.615,-761.579 497.549,-754.891"/>
</g>
<!-- Node26 -->
<g id="node26" class="node"><title>Node26</title>
<g id="a_node26"><a xlink:href="../../d2/dd9/ldo_8h.html#af2326bf8464de1e4ce3c5f7aef2ed5d4" target="_top" xlink:title="luaD_precall">
<polygon fill="none" stroke="black" points="425,-476.5 425,-495.5 494,-495.5 494,-476.5 425,-476.5"/>
<text text-anchor="middle" x="459.5" y="-483.5" font-family="Helvetica,sans-Serif" font-size="10.00">luaD_precall</text>
</a>
</g>
</g>
<!-- Node25&#45;&gt;Node26 -->
<g id="edge31" class="edge"><title>Node25&#45;&gt;Node26</title>
<path fill="none" stroke="midnightblue" d="M376.465,-519.674C395.101,-512.024 418.079,-502.592 434.971,-495.658"/>
<polygon fill="midnightblue" stroke="midnightblue" points="375.093,-516.454 367.171,-523.489 377.751,-522.929 375.093,-516.454"/>
</g>
<!-- Node26&#45;&gt;Node19 -->
<g id="edge35" class="edge"><title>Node26&#45;&gt;Node19</title>
<path fill="none" stroke="midnightblue" d="M476.567,-503.39C482.97,-510.719 490.183,-519.508 496,-528 514.881,-555.567 507.638,-571.132 532,-594 538.473,-600.076 546.76,-604.846 554.785,-608.477"/>
<polygon fill="midnightblue" stroke="midnightblue" points="478.835,-500.676 469.556,-495.562 473.621,-505.346 478.835,-500.676"/>
</g>
<!-- Node26&#45;&gt;Node20 -->
<g id="edge33" class="edge"><title>Node26&#45;&gt;Node20</title>
<path fill="none" stroke="midnightblue" d="M475.937,-503.346C489.515,-517.734 510.43,-537.889 532,-551 582.394,-581.632 649.047,-601.813 685.784,-611.435"/>
<polygon fill="midnightblue" stroke="midnightblue" points="478.189,-500.624 468.841,-495.638 473.039,-505.365 478.189,-500.624"/>
</g>
<!-- Node26&#45;&gt;Node21 -->
<g id="edge34" class="edge"><title>Node26&#45;&gt;Node21</title>
<path fill="none" stroke="midnightblue" d="M484.537,-500.521C498.075,-508.16 515.526,-517.131 532,-523 587.2,-542.665 655.683,-553.604 690.458,-558.265"/>
<polygon fill="midnightblue" stroke="midnightblue" points="486.26,-497.475 475.851,-495.501 482.757,-503.535 486.26,-497.475"/>
</g>
<!-- Node26&#45;&gt;Node26 -->
<g id="edge32" class="edge"><title>Node26&#45;&gt;Node26</title>
<path fill="none" stroke="midnightblue" d="M438.02,-505.4C439.454,-510.315 446.614,-514 459.5,-514 480.117,-514 486.077,-504.565 477.379,-495.757"/>
<polygon fill="midnightblue" stroke="midnightblue" points="441.401,-506.35 441.621,-495.757 434.843,-503.9 441.401,-506.35"/>
</g>
<!-- Node27&#45;&gt;Node19 -->
<g id="edge55" class="edge"><title>Node27&#45;&gt;Node19</title>
<path fill="none" stroke="midnightblue" d="M345.959,-314.956C351.13,-357.87 368.718,-460.126 423,-523 446.903,-550.686 465.044,-541.517 496,-561 512.927,-571.653 515.331,-576.948 532,-588 543.039,-595.319 555.914,-602.819 566.029,-608.489"/>
<polygon fill="midnightblue" stroke="midnightblue" points="349.429,-314.498 344.852,-304.943 342.472,-315.267 349.429,-314.498"/>
</g>
<!-- Node28 -->
<g id="node28" class="node"><title>Node28</title>
<g id="a_node28"><a xlink:href="../../da/dd2/lua_8h.html#a2b4a9010af0545ae0f822d7f081370d0" target="_top" xlink:title="lua_getglobal">
<polygon fill="none" stroke="black" points="423,-53.5 423,-72.5 496,-72.5 496,-53.5 423,-53.5"/>
<text text-anchor="middle" x="459.5" y="-60.5" font-family="Helvetica,sans-Serif" font-size="10.00">lua_getglobal</text>
</a>
</g>
</g>
<!-- Node27&#45;&gt;Node28 -->
<g id="edge37" class="edge"><title>Node27&#45;&gt;Node28</title>
<path fill="none" stroke="midnightblue" d="M353.347,-275.834C368.085,-245.639 397.658,-185.163 423,-134 433.888,-112.018 446.798,-86.2792 453.654,-72.6352"/>
<polygon fill="midnightblue" stroke="midnightblue" points="350.023,-274.664 348.784,-285.186 356.314,-277.734 350.023,-274.664"/>
</g>
<!-- Node30 -->
<g id="node30" class="node"><title>Node30</title>
<g id="a_node30"><a xlink:href="../../da/dd2/lua_8h.html#a8d82fa181a3003e9a304040c0bbed9ac" target="_top" xlink:title="lua_gettable">
<polygon fill="none" stroke="black" points="425.5,-143.5 425.5,-162.5 493.5,-162.5 493.5,-143.5 425.5,-143.5"/>
<text text-anchor="middle" x="459.5" y="-150.5" font-family="Helvetica,sans-Serif" font-size="10.00">lua_gettable</text>
</a>
</g>
</g>
<!-- Node27&#45;&gt;Node30 -->
<g id="edge39" class="edge"><title>Node27&#45;&gt;Node30</title>
<path fill="none" stroke="midnightblue" d="M358.325,-277.234C382.706,-246.998 431.48,-186.51 450.575,-162.829"/>
<polygon fill="midnightblue" stroke="midnightblue" points="355.422,-275.258 351.87,-285.24 360.872,-279.652 355.422,-275.258"/>
</g>
<!-- Node32 -->
<g id="node32" class="node"><title>Node32</title>
<g id="a_node32"><a xlink:href="../../da/dd2/lua_8h.html#ac3112bb28ba217adc46f13da8e9e6585" target="_top" xlink:title="lua_getfield">
<polygon fill="none" stroke="red" points="428,-285.5 428,-304.5 491,-304.5 491,-285.5 428,-285.5"/>
<text text-anchor="middle" x="459.5" y="-292.5" font-family="Helvetica,sans-Serif" font-size="10.00">lua_getfield</text>
</a>
</g>
</g>
<!-- Node27&#45;&gt;Node32 -->
<g id="edge41" class="edge"><title>Node27&#45;&gt;Node32</title>
<path fill="none" stroke="midnightblue" d="M390.776,-295C403.214,-295 416.334,-295 427.68,-295"/>
<polygon fill="midnightblue" stroke="midnightblue" points="390.543,-291.5 380.543,-295 390.543,-298.5 390.543,-291.5"/>
</g>
<!-- Node29 -->
<g id="node29" class="node"><title>Node29</title>
<g id="a_node29"><a xlink:href="../../d8/dd3/lbaselib_8c.html#a865eb761a305c588d6940da5272375b7" target="_top" xlink:title="luaB_print">
<polygon fill="none" stroke="black" points="555,-0.5 555,-19.5 614,-19.5 614,-0.5 555,-0.5"/>
<text text-anchor="middle" x="584.5" y="-7.5" font-family="Helvetica,sans-Serif" font-size="10.00">luaB_print</text>
</a>
</g>
</g>
<!-- Node28&#45;&gt;Node29 -->
<g id="edge38" class="edge"><title>Node28&#45;&gt;Node29</title>
<path fill="none" stroke="midnightblue" d="M488.396,-49.015C501.505,-42.6294 517.424,-35.1397 532,-29 539.817,-25.7075 548.423,-22.4079 556.325,-19.5041"/>
<polygon fill="midnightblue" stroke="midnightblue" points="486.836,-45.8816 479.406,-53.4345 489.925,-52.1635 486.836,-45.8816"/>
</g>
<!-- Node31 -->
<g id="node31" class="node"><title>Node31</title>
<g id="a_node31"><a xlink:href="../../dc/d77/lstrlib_8c.html#ad24cfa73e5ad25ec99a1b48f0916471e" target="_top" xlink:title="add_value">
<polygon fill="none" stroke="red" points="553.5,-38.5 553.5,-57.5 615.5,-57.5 615.5,-38.5 553.5,-38.5"/>
<text text-anchor="middle" x="584.5" y="-45.5" font-family="Helvetica,sans-Serif" font-size="10.00">add_value</text>
</a>
</g>
</g>
<!-- Node30&#45;&gt;Node31 -->
<g id="edge40" class="edge"><title>Node30&#45;&gt;Node31</title>
<path fill="none" stroke="midnightblue" d="M471.459,-134.833C483.929,-115.557 505.975,-85.3965 532,-67 538.381,-62.4892 545.959,-58.9188 553.311,-56.149"/>
<polygon fill="midnightblue" stroke="midnightblue" points="468.482,-132.992 466.131,-143.323 474.411,-136.713 468.482,-132.992"/>
</g>
<!-- Node33 -->
<g id="node33" class="node"><title>Node33</title>
<g id="a_node33"><a xlink:href="../../d1/dc2/_kensho_lua_wrapper_8m.html#ad10bf0ff4feac9642e7477e282be41fe" target="_top" xlink:title="lookupKey">
<polygon fill="none" stroke="red" points="553.5,-76.5 553.5,-95.5 615.5,-95.5 615.5,-76.5 553.5,-76.5"/>
<text text-anchor="middle" x="584.5" y="-83.5" font-family="Helvetica,sans-Serif" font-size="10.00">lookupKey</text>
</a>
</g>
</g>
<!-- Node32&#45;&gt;Node33 -->
<g id="edge42" class="edge"><title>Node32&#45;&gt;Node33</title>
<path fill="none" stroke="midnightblue" d="M465.583,-275.621C477.261,-232.389 506.93,-129.908 532,-105 537.882,-99.1563 545.714,-95.0901 553.491,-92.2682"/>
<polygon fill="midnightblue" stroke="midnightblue" points="462.15,-274.909 462.957,-285.473 468.914,-276.712 462.15,-274.909"/>
</g>
<!-- Node34 -->
<g id="node34" class="node"><title>Node34</title>
<g id="a_node34"><a xlink:href="../../d1/dc2/_kensho_lua_wrapper_8m.html#a659a5a25271d0c7e4f5478f828a93b41" target="_top" xlink:title="popValue">
<polygon fill="none" stroke="black" points="555,-380.5 555,-399.5 614,-399.5 614,-380.5 555,-380.5"/>
<text text-anchor="middle" x="584.5" y="-387.5" font-family="Helvetica,sans-Serif" font-size="10.00">popValue</text>
</a>
</g>
</g>
<!-- Node32&#45;&gt;Node34 -->
<g id="edge43" class="edge"><title>Node32&#45;&gt;Node34</title>
<path fill="none" stroke="midnightblue" d="M475.099,-312.625C488.639,-328.154 509.966,-350.633 532,-366 540.091,-371.643 549.719,-376.539 558.449,-380.411"/>
<polygon fill="midnightblue" stroke="midnightblue" points="477.577,-310.137 468.423,-304.802 472.252,-314.681 477.577,-310.137"/>
</g>
<!-- Node35 -->
<g id="node35" class="node"><title>Node35</title>
<g id="a_node35"><a xlink:href="../../d1/dc2/_kensho_lua_wrapper_8m.html#a05954c02378e1c67ec00d4d5fc118d07" target="_top" xlink:title="This is executed when the LUA subsystem attempts to assign data to a new index. ">
<polygon fill="none" stroke="red" points="673,-361.5 673,-380.5 755,-380.5 755,-361.5 673,-361.5"/>
<text text-anchor="middle" x="714" y="-368.5" font-family="Helvetica,sans-Serif" font-size="10.00">lookupNewKey</text>
</a>
</g>
</g>
<!-- Node32&#45;&gt;Node35 -->
<g id="edge45" class="edge"><title>Node32&#45;&gt;Node35</title>
<path fill="none" stroke="midnightblue" d="M484.225,-309.788C497.784,-317.674 515.356,-326.967 532,-333 578.941,-350.014 635.638,-360.379 672.92,-365.895"/>
<polygon fill="midnightblue" stroke="midnightblue" points="485.922,-306.725 475.54,-304.61 482.338,-312.737 485.922,-306.725"/>
</g>
<!-- Node36 -->
<g id="node36" class="node"><title>Node36</title>
<g id="a_node36"><a xlink:href="../../da/d29/lauxlib_8h.html#a2605da7ef3a12d7e9cfa85939245f941" target="_top" xlink:title="luaL_getsubtable">
<polygon fill="none" stroke="red" points="539.5,-418.5 539.5,-437.5 629.5,-437.5 629.5,-418.5 539.5,-418.5"/>
<text text-anchor="middle" x="584.5" y="-425.5" font-family="Helvetica,sans-Serif" font-size="10.00">luaL_getsubtable</text>
</a>
</g>
</g>
<!-- Node32&#45;&gt;Node36 -->
<g id="edge46" class="edge"><title>Node32&#45;&gt;Node36</title>
<path fill="none" stroke="midnightblue" d="M467.912,-314.276C478.504,-339.419 500.262,-383.228 532,-409 536.735,-412.845 542.321,-415.955 548.037,-418.457"/>
<polygon fill="midnightblue" stroke="midnightblue" points="471.054,-312.709 464.06,-304.75 464.565,-315.333 471.054,-312.709"/>
</g>
<!-- Node37 -->
<g id="node37" class="node"><title>Node37</title>
<g id="a_node37"><a xlink:href="../../de/df3/liolib_8c.html#a1c6f8e04184b0f7939e45e24d2d7ef8a" target="_top" xlink:title="io_close">
<polygon fill="none" stroke="black" points="559.5,-304.5 559.5,-323.5 609.5,-323.5 609.5,-304.5 559.5,-304.5"/>
<text text-anchor="middle" x="584.5" y="-311.5" font-family="Helvetica,sans-Serif" font-size="10.00">io_close</text>
</a>
</g>
</g>
<!-- Node32&#45;&gt;Node37 -->
<g id="edge47" class="edge"><title>Node32&#45;&gt;Node37</title>
<path fill="none" stroke="midnightblue" d="M501.247,-301.294C520.491,-304.267 542.805,-307.714 559.332,-310.267"/>
<polygon fill="midnightblue" stroke="midnightblue" points="501.638,-297.813 491.221,-299.745 500.569,-304.731 501.638,-297.813"/>
</g>
<!-- Node38 -->
<g id="node38" class="node"><title>Node38</title>
<g id="a_node38"><a xlink:href="../../de/df3/liolib_8c.html#a3bccbdacdc9f21f22a603525be1f3699" target="_top" xlink:title="getiofile">
<polygon fill="none" stroke="red" points="561,-266.5 561,-285.5 608,-285.5 608,-266.5 561,-266.5"/>
<text text-anchor="middle" x="584.5" y="-273.5" font-family="Helvetica,sans-Serif" font-size="10.00">getiofile</text>
</a>
</g>
</g>
<!-- Node32&#45;&gt;Node38 -->
<g id="edge48" class="edge"><title>Node32&#45;&gt;Node38</title>
<path fill="none" stroke="midnightblue" d="M501.254,-288.705C521.11,-285.638 544.233,-282.066 560.895,-279.492"/>
<polygon fill="midnightblue" stroke="midnightblue" points="500.569,-285.269 491.221,-290.255 501.638,-292.187 500.569,-285.269"/>
</g>
<!-- Node39 -->
<g id="node39" class="node"><title>Node39</title>
<g id="a_node39"><a xlink:href="../../de/df3/liolib_8c.html#aae942558ff528b4e1a483297c64e6886" target="_top" xlink:title="g_iofile">
<polygon fill="none" stroke="red" points="562.5,-494.5 562.5,-513.5 606.5,-513.5 606.5,-494.5 562.5,-494.5"/>
<text text-anchor="middle" x="584.5" y="-501.5" font-family="Helvetica,sans-Serif" font-size="10.00">g_iofile</text>
</a>
</g>
</g>
<!-- Node32&#45;&gt;Node39 -->
<g id="edge49" class="edge"><title>Node32&#45;&gt;Node39</title>
<path fill="none" stroke="midnightblue" d="M465.583,-314.379C477.261,-357.611 506.93,-460.092 532,-485 540.18,-493.127 552.133,-497.817 562.464,-500.502"/>
<polygon fill="midnightblue" stroke="midnightblue" points="468.914,-313.288 462.957,-304.527 462.15,-315.091 468.914,-313.288"/>
</g>
<!-- Node40 -->
<g id="node40" class="node"><title>Node40</title>
<g id="a_node40"><a xlink:href="../../de/df3/liolib_8c.html#ab08031b51605d4ef676ec33a3b96a286" target="_top" xlink:title="io_lines">
<polygon fill="none" stroke="black" points="561,-228.5 561,-247.5 608,-247.5 608,-228.5 561,-228.5"/>
<text text-anchor="middle" x="584.5" y="-235.5" font-family="Helvetica,sans-Serif" font-size="10.00">io_lines</text>
</a>
</g>
</g>
<!-- Node32&#45;&gt;Node40 -->
<g id="edge50" class="edge"><title>Node32&#45;&gt;Node40</title>
<path fill="none" stroke="midnightblue" d="M485.668,-280.552C499.184,-273.068 516.259,-264.048 532,-257 541.307,-252.833 551.831,-248.83 560.928,-245.582"/>
<polygon fill="midnightblue" stroke="midnightblue" points="483.952,-277.501 476.94,-285.444 487.375,-283.607 483.952,-277.501"/>
</g>
<!-- Node41 -->
<g id="node41" class="node"><title>Node41</title>
<g id="a_node41"><a xlink:href="../../d2/d82/loadlib_8c.html#add0b38b20a4d136cd96f9398f35e9b58" target="_top" xlink:title="ll_checkclib">
<polygon fill="none" stroke="red" points="553.5,-190.5 553.5,-209.5 615.5,-209.5 615.5,-190.5 553.5,-190.5"/>
<text text-anchor="middle" x="584.5" y="-197.5" font-family="Helvetica,sans-Serif" font-size="10.00">ll_checkclib</text>
</a>
</g>
</g>
<!-- Node32&#45;&gt;Node41 -->
<g id="edge51" class="edge"><title>Node32&#45;&gt;Node41</title>
<path fill="none" stroke="midnightblue" d="M473.112,-277.46C486.15,-260.443 507.944,-234.922 532,-219 538.517,-214.687 546.142,-211.188 553.498,-208.423"/>
<polygon fill="midnightblue" stroke="midnightblue" points="470.298,-275.379 467.126,-285.488 475.909,-279.563 470.298,-275.379"/>
</g>
<!-- Node42 -->
<g id="node42" class="node"><title>Node42</title>
<g id="a_node42"><a xlink:href="../../d2/d82/loadlib_8c.html#a7a6ec2174d2de185431876163cd2d469" target="_top" xlink:title="ll_addtoclib">
<polygon fill="none" stroke="red" points="553.5,-456.5 553.5,-475.5 615.5,-475.5 615.5,-456.5 553.5,-456.5"/>
<text text-anchor="middle" x="584.5" y="-463.5" font-family="Helvetica,sans-Serif" font-size="10.00">ll_addtoclib</text>
</a>
</g>
</g>
<!-- Node32&#45;&gt;Node42 -->
<g id="edge52" class="edge"><title>Node32&#45;&gt;Node42</title>
<path fill="none" stroke="midnightblue" d="M464.64,-314.622C472.382,-346.666 492.014,-410.322 532,-447 537.97,-452.476 545.653,-456.41 553.253,-459.222"/>
<polygon fill="midnightblue" stroke="midnightblue" points="468.015,-313.677 462.384,-304.703 461.189,-315.23 468.015,-313.677"/>
</g>
<!-- Node43 -->
<g id="node43" class="node"><title>Node43</title>
<g id="a_node43"><a xlink:href="../../d2/d82/loadlib_8c.html#af8f7333f1a59f3d7aab8c9b79b7a4ab2" target="_top" xlink:title="findfile">
<polygon fill="none" stroke="red" points="564,-152.5 564,-171.5 605,-171.5 605,-152.5 564,-152.5"/>
<text text-anchor="middle" x="584.5" y="-159.5" font-family="Helvetica,sans-Serif" font-size="10.00">findfile</text>
</a>
</g>
</g>
<!-- Node32&#45;&gt;Node43 -->
<g id="edge53" class="edge"><title>Node32&#45;&gt;Node43</title>
<path fill="none" stroke="midnightblue" d="M467.912,-275.724C478.504,-250.581 500.262,-206.772 532,-181 541.174,-173.551 553.543,-168.86 563.86,-166.004"/>
<polygon fill="midnightblue" stroke="midnightblue" points="464.565,-274.667 464.06,-285.25 471.054,-277.291 464.565,-274.667"/>
</g>
<!-- Node44 -->
<g id="node44" class="node"><title>Node44</title>
<g id="a_node44"><a xlink:href="../../d2/d82/loadlib_8c.html#a68e1957952958cc41d9ede92dabda1c6" target="_top" xlink:title="searcher_preload">
<polygon fill="none" stroke="red" points="540,-114.5 540,-133.5 629,-133.5 629,-114.5 540,-114.5"/>
<text text-anchor="middle" x="584.5" y="-121.5" font-family="Helvetica,sans-Serif" font-size="10.00">searcher_preload</text>
</a>
</g>
</g>
<!-- Node32&#45;&gt;Node44 -->
<g id="edge54" class="edge"><title>Node32&#45;&gt;Node44</title>
<path fill="none" stroke="midnightblue" d="M464.64,-275.378C472.382,-243.334 492.014,-179.678 532,-143 536.214,-139.135 541.281,-136.038 546.571,-133.561"/>
<polygon fill="midnightblue" stroke="midnightblue" points="461.189,-274.77 462.384,-285.297 468.015,-276.323 461.189,-274.77"/>
</g>
<!-- Node34&#45;&gt;Node35 -->
<g id="edge44" class="edge"><title>Node34&#45;&gt;Node35</title>
<path fill="none" stroke="midnightblue" d="M624.336,-384.213C639.711,-381.921 657.381,-379.288 672.88,-376.979"/>
<polygon fill="midnightblue" stroke="midnightblue" points="623.488,-380.8 614.113,-385.736 624.52,-387.724 623.488,-380.8"/>
</g>
<!-- Node45&#45;&gt;Node19 -->
<g id="edge63" class="edge"><title>Node45&#45;&gt;Node19</title>
<path fill="none" stroke="midnightblue" d="M390.612,-663.906C436.431,-653.002 505.402,-636.587 547.261,-626.625"/>
<polygon fill="midnightblue" stroke="midnightblue" points="389.554,-660.561 380.636,-666.281 391.174,-667.37 389.554,-660.561"/>
</g>
<!-- Node46 -->
<g id="node46" class="node"><title>Node46</title>
<g id="a_node46"><a xlink:href="../../da/dd2/lua_8h.html#ac0ebe7d753b81f6249dde8cf0b8ea997" target="_top" xlink:title="lua_setglobal">
<polygon fill="none" stroke="red" points="423,-722.5 423,-741.5 496,-741.5 496,-722.5 423,-722.5"/>
<text text-anchor="middle" x="459.5" y="-729.5" font-family="Helvetica,sans-Serif" font-size="10.00">lua_setglobal</text>
</a>
</g>
</g>
<!-- Node45&#45;&gt;Node46 -->
<g id="edge57" class="edge"><title>Node45&#45;&gt;Node46</title>
<path fill="none" stroke="midnightblue" d="M372.198,-689.037C393.059,-699.422 420.922,-713.293 439.273,-722.428"/>
<polygon fill="midnightblue" stroke="midnightblue" points="373.677,-685.864 363.165,-684.541 370.557,-692.13 373.677,-685.864"/>
</g>
<!-- Node47 -->
<g id="node47" class="node"><title>Node47</title>
<g id="a_node47"><a xlink:href="../../da/dd2/lua_8h.html#aeda173d104e3a566ccaac89a1f64a5eb" target="_top" xlink:title="lua_settable">
<polygon fill="none" stroke="red" points="425.5,-684.5 425.5,-703.5 493.5,-703.5 493.5,-684.5 425.5,-684.5"/>
<text text-anchor="middle" x="459.5" y="-691.5" font-family="Helvetica,sans-Serif" font-size="10.00">lua_settable</text>
</a>
</g>
</g>
<!-- Node45&#45;&gt;Node47 -->
<g id="edge58" class="edge"><title>Node45&#45;&gt;Node47</title>
<path fill="none" stroke="midnightblue" d="M390.59,-682.731C402.259,-684.667 414.542,-686.706 425.403,-688.508"/>
<polygon fill="midnightblue" stroke="midnightblue" points="390.981,-679.248 380.543,-681.064 389.835,-686.154 390.981,-679.248"/>
</g>
<!-- Node48 -->
<g id="node48" class="node"><title>Node48</title>
<g id="a_node48"><a xlink:href="../../da/dd2/lua_8h.html#a9580a15c141cbe4bf2a63fea625c3878" target="_top" xlink:title="lua_setfield">
<polygon fill="none" stroke="red" points="428,-438.5 428,-457.5 491,-457.5 491,-438.5 428,-438.5"/>
<text text-anchor="middle" x="459.5" y="-445.5" font-family="Helvetica,sans-Serif" font-size="10.00">lua_setfield</text>
</a>
</g>
</g>
<!-- Node45&#45;&gt;Node48 -->
<g id="edge59" class="edge"><title>Node45&#45;&gt;Node48</title>
<path fill="none" stroke="midnightblue" d="M367.357,-659.034C374.666,-652.941 382.095,-645.413 387,-637 425.901,-570.281 376.629,-528.76 423,-467 425.854,-463.199 429.697,-460.076 433.801,-457.54"/>
<polygon fill="midnightblue" stroke="midnightblue" points="364.765,-656.613 358.988,-665.495 369.043,-662.154 364.765,-656.613"/>
</g>
<!-- Node48&#45;&gt;Node36 -->
<g id="edge60" class="edge"><title>Node48&#45;&gt;Node36</title>
<path fill="none" stroke="midnightblue" d="M501.139,-441.392C513.355,-439.406 526.817,-437.217 539.254,-435.194"/>
<polygon fill="midnightblue" stroke="midnightblue" points="500.529,-437.945 491.221,-443.005 501.653,-444.854 500.529,-437.945"/>
</g>
<!-- Node48&#45;&gt;Node39 -->
<g id="edge61" class="edge"><title>Node48&#45;&gt;Node39</title>
<path fill="none" stroke="midnightblue" d="M487.686,-462.512C504.076,-471.173 523.395,-481.204 532,-485 541.766,-489.308 552.844,-493.484 562.217,-496.818"/>
<polygon fill="midnightblue" stroke="midnightblue" points="488.953,-459.221 478.478,-457.628 485.673,-465.406 488.953,-459.221"/>
</g>
<!-- Node48&#45;&gt;Node42 -->
<g id="edge62" class="edge"><title>Node48&#45;&gt;Node42</title>
<path fill="none" stroke="midnightblue" d="M501.391,-453.984C518.299,-456.458 537.557,-459.277 553.171,-461.562"/>
<polygon fill="midnightblue" stroke="midnightblue" points="501.622,-450.481 491.221,-452.496 500.609,-457.407 501.622,-450.481"/>
</g>
<!-- Node49&#45;&gt;Node19 -->
<g id="edge66" class="edge"><title>Node49&#45;&gt;Node19</title>
<path fill="none" stroke="midnightblue" d="M386.986,-618C432.695,-618 504.199,-618 547.186,-618"/>
<polygon fill="midnightblue" stroke="midnightblue" points="386.799,-614.5 376.799,-618 386.799,-621.5 386.799,-614.5"/>
</g>
<!-- Node50 -->
<g id="node50" class="node"><title>Node50</title>
<g id="a_node50"><a xlink:href="../../da/dd2/lua_8h.html#ac7ade66f92b5e325c42371926f879818" target="_top" xlink:title="lua_len">
<polygon fill="none" stroke="red" points="436,-570.5 436,-589.5 483,-589.5 483,-570.5 436,-570.5"/>
<text text-anchor="middle" x="459.5" y="-577.5" font-family="Helvetica,sans-Serif" font-size="10.00">lua_len</text>
</a>
</g>
</g>
<!-- Node49&#45;&gt;Node50 -->
<g id="edge65" class="edge"><title>Node49&#45;&gt;Node50</title>
<path fill="none" stroke="midnightblue" d="M382.402,-605.255C400.11,-599.378 420.526,-592.603 435.75,-587.55"/>
<polygon fill="midnightblue" stroke="midnightblue" points="381.282,-601.939 372.893,-608.411 383.487,-608.583 381.282,-601.939"/>
</g>
</g>
</svg>
