<?xml version="1.0" encoding="UTF-8" standalone="no"?>
<!DOCTYPE svg PUBLIC "-//W3C//DTD SVG 1.1//EN"
 "http://www.w3.org/Graphics/SVG/1.1/DTD/svg11.dtd">
<!-- Generated by graphviz version 2.38.0 (20140413.2041)
 -->
<!-- Title: match_class Pages: 1 -->
<svg width="699pt" height="218pt"
 viewBox="0.00 0.00 699.00 218.00" xmlns="http://www.w3.org/2000/svg" xmlns:xlink="http://www.w3.org/1999/xlink">
<g id="graph0" class="graph" transform="scale(1 1) rotate(0) translate(4 214)">
<title>match_class</title>
<!-- Node1 -->
<g id="node1" class="node"><title>Node1</title>
<polygon fill="#bfbfbf" stroke="black" points="0,-114.5 0,-133.5 70,-133.5 70,-114.5 0,-114.5"/>
<text text-anchor="middle" x="35" y="-121.5" font-family="Helvetica,sans-Serif" font-size="10.00">match_class</text>
</g>
<!-- Node2 -->
<g id="node2" class="node"><title>Node2</title>
<g id="a_node2"><a xlink:href="../../dc/d77/lstrlib_8c.html#a14c5b9fff2918ecc568b9bcf1bfdb241" target="_top" xlink:title="matchbracketclass">
<polygon fill="none" stroke="black" points="106,-95.5 106,-114.5 201,-114.5 201,-95.5 106,-95.5"/>
<text text-anchor="middle" x="153.5" y="-102.5" font-family="Helvetica,sans-Serif" font-size="10.00">matchbracketclass</text>
</a>
</g>
</g>
<!-- Node1&#45;&gt;Node2 -->
<g id="edge1" class="edge"><title>Node1&#45;&gt;Node2</title>
<path fill="none" stroke="midnightblue" d="M79.9884,-116.826C88.382,-115.457 97.1965,-114.019 105.675,-112.637"/>
<polygon fill="midnightblue" stroke="midnightblue" points="79.316,-113.389 70.0098,-118.453 80.4428,-120.298 79.316,-113.389"/>
</g>
<!-- Node3 -->
<g id="node3" class="node"><title>Node3</title>
<g id="a_node3"><a xlink:href="../../dc/d77/lstrlib_8c.html#a0fe170ffbc6b4ec3181d2db25ea4deb0" target="_top" xlink:title="singlematch">
<polygon fill="none" stroke="black" points="237,-133.5 237,-152.5 303,-152.5 303,-133.5 237,-133.5"/>
<text text-anchor="middle" x="270" y="-140.5" font-family="Helvetica,sans-Serif" font-size="10.00">singlematch</text>
</a>
</g>
</g>
<!-- Node1&#45;&gt;Node3 -->
<g id="edge21" class="edge"><title>Node1&#45;&gt;Node3</title>
<path fill="none" stroke="midnightblue" d="M80.5865,-127.636C126.258,-131.36 196.148,-137.059 236.732,-140.369"/>
<polygon fill="midnightblue" stroke="midnightblue" points="80.6314,-124.128 70.38,-126.804 80.0624,-131.105 80.6314,-124.128"/>
</g>
<!-- Node2&#45;&gt;Node3 -->
<g id="edge2" class="edge"><title>Node2&#45;&gt;Node3</title>
<path fill="none" stroke="midnightblue" d="M193.147,-117.826C208.51,-122.925 225.879,-128.689 240.116,-133.414"/>
<polygon fill="midnightblue" stroke="midnightblue" points="193.987,-114.417 183.393,-114.589 191.782,-121.061 193.987,-114.417"/>
</g>
<!-- Node5 -->
<g id="node5" class="node"><title>Node5</title>
<g id="a_node5"><a xlink:href="../../dc/d77/lstrlib_8c.html#a52a45835b75e5d31ec66421456bbb728" target="_top" xlink:title="match">
<polygon fill="none" stroke="black" points="449,-114.5 449,-133.5 491,-133.5 491,-114.5 449,-114.5"/>
<text text-anchor="middle" x="470" y="-121.5" font-family="Helvetica,sans-Serif" font-size="10.00">match</text>
</a>
</g>
</g>
<!-- Node2&#45;&gt;Node5 -->
<g id="edge20" class="edge"><title>Node2&#45;&gt;Node5</title>
<path fill="none" stroke="midnightblue" d="M211.435,-108.44C282.938,-112.759 401.947,-119.949 448.987,-122.791"/>
<polygon fill="midnightblue" stroke="midnightblue" points="211.437,-104.933 201.244,-107.824 211.015,-111.921 211.437,-104.933"/>
</g>
<!-- Node4 -->
<g id="node4" class="node"><title>Node4</title>
<g id="a_node4"><a xlink:href="../../dc/d77/lstrlib_8c.html#ad0b55e65b16045801315919fb67a4070" target="_top" xlink:title="max_expand">
<polygon fill="none" stroke="black" points="339,-152.5 339,-171.5 413,-171.5 413,-152.5 339,-152.5"/>
<text text-anchor="middle" x="376" y="-159.5" font-family="Helvetica,sans-Serif" font-size="10.00">max_expand</text>
</a>
</g>
</g>
<!-- Node3&#45;&gt;Node4 -->
<g id="edge3" class="edge"><title>Node3&#45;&gt;Node4</title>
<path fill="none" stroke="midnightblue" d="M312.915,-150.657C321.516,-152.229 330.501,-153.87 338.878,-155.401"/>
<polygon fill="midnightblue" stroke="midnightblue" points="313.518,-147.21 303.052,-148.856 312.26,-154.096 313.518,-147.21"/>
</g>
<!-- Node3&#45;&gt;Node5 -->
<g id="edge19" class="edge"><title>Node3&#45;&gt;Node5</title>
<path fill="none" stroke="midnightblue" d="M313.407,-138.931C355.186,-134.922 417.211,-128.97 448.85,-125.934"/>
<polygon fill="midnightblue" stroke="midnightblue" points="312.873,-135.466 303.253,-139.905 313.541,-142.434 312.873,-135.466"/>
</g>
<!-- Node9 -->
<g id="node9" class="node"><title>Node9</title>
<g id="a_node9"><a xlink:href="../../dc/d77/lstrlib_8c.html#a3b42ede2ccaf027b891a6a4f1cdf3902" target="_top" xlink:title="min_expand">
<polygon fill="none" stroke="black" points="528,-190.5 528,-209.5 597,-209.5 597,-190.5 528,-190.5"/>
<text text-anchor="middle" x="562.5" y="-197.5" font-family="Helvetica,sans-Serif" font-size="10.00">min_expand</text>
</a>
</g>
</g>
<!-- Node3&#45;&gt;Node9 -->
<g id="edge18" class="edge"><title>Node3&#45;&gt;Node9</title>
<path fill="none" stroke="midnightblue" d="M292.603,-158.206C305.464,-166.436 322.456,-175.93 339,-181 403.682,-200.824 483.566,-202.45 527.873,-201.477"/>
<polygon fill="midnightblue" stroke="midnightblue" points="294.302,-155.133 284.035,-152.519 290.431,-160.965 294.302,-155.133"/>
</g>
<!-- Node4&#45;&gt;Node5 -->
<g id="edge4" class="edge"><title>Node4&#45;&gt;Node5</title>
<path fill="none" stroke="midnightblue" d="M398.19,-147.46C413.44,-139.847 433.882,-131.435 448.881,-126.617"/>
<polygon fill="midnightblue" stroke="midnightblue" points="396.234,-144.534 389.027,-152.301 399.504,-150.724 396.234,-144.534"/>
</g>
<!-- Node5&#45;&gt;Node4 -->
<g id="edge9" class="edge"><title>Node5&#45;&gt;Node4</title>
<path fill="none" stroke="midnightblue" d="M448.194,-138.348C437.83,-143.542 424.999,-149.127 413.097,-153.699"/>
<polygon fill="midnightblue" stroke="midnightblue" points="450.072,-141.314 457.263,-133.534 446.79,-135.131 450.072,-141.314"/>
</g>
<!-- Node6 -->
<g id="node6" class="node"><title>Node6</title>
<g id="a_node6"><a xlink:href="../../dc/d77/lstrlib_8c.html#ab0ecc0f25602beb821f6a5e62517d18e" target="_top" xlink:title="end_capture">
<polygon fill="none" stroke="black" points="528,-152.5 528,-171.5 597,-171.5 597,-152.5 528,-152.5"/>
<text text-anchor="middle" x="562.5" y="-159.5" font-family="Helvetica,sans-Serif" font-size="10.00">end_capture</text>
</a>
</g>
</g>
<!-- Node5&#45;&gt;Node6 -->
<g id="edge5" class="edge"><title>Node5&#45;&gt;Node6</title>
<path fill="none" stroke="midnightblue" d="M500.972,-130.189C517.655,-136.392 537.478,-145.276 549.776,-152.363"/>
<polygon fill="midnightblue" stroke="midnightblue" points="501.68,-126.728 491.085,-126.713 499.358,-133.332 501.68,-126.728"/>
</g>
<!-- Node7 -->
<g id="node7" class="node"><title>Node7</title>
<g id="a_node7"><a xlink:href="../../dc/d77/lstrlib_8c.html#ab7cb0ba6191e1aa9455f6522d3483a02" target="_top" xlink:title="gmatch_aux">
<polygon fill="none" stroke="black" points="528,-114.5 528,-133.5 597,-133.5 597,-114.5 528,-114.5"/>
<text text-anchor="middle" x="562.5" y="-121.5" font-family="Helvetica,sans-Serif" font-size="10.00">gmatch_aux</text>
</a>
</g>
</g>
<!-- Node5&#45;&gt;Node7 -->
<g id="edge7" class="edge"><title>Node5&#45;&gt;Node7</title>
<path fill="none" stroke="midnightblue" d="M501.086,-124C509.704,-124 519.151,-124 527.962,-124"/>
<polygon fill="midnightblue" stroke="midnightblue" points="501.085,-120.5 491.085,-124 501.085,-127.5 501.085,-120.5"/>
</g>
<!-- Node5&#45;&gt;Node9 -->
<g id="edge10" class="edge"><title>Node5&#45;&gt;Node9</title>
<path fill="none" stroke="midnightblue" d="M492.878,-141.064C502.689,-150.858 514.789,-162.74 527,-172 535.935,-178.776 547.581,-184.668 554.797,-190.394"/>
<polygon fill="midnightblue" stroke="midnightblue" points="495.094,-138.331 485.542,-133.747 490.151,-143.287 495.094,-138.331"/>
</g>
<!-- Node10 -->
<g id="node10" class="node"><title>Node10</title>
<g id="a_node10"><a xlink:href="../../dc/d77/lstrlib_8c.html#a31cf026bdaa00bf9c72a1e4f72319147" target="_top" xlink:title="start_capture">
<polygon fill="none" stroke="black" points="527,-76.5 527,-95.5 598,-95.5 598,-76.5 527,-76.5"/>
<text text-anchor="middle" x="562.5" y="-83.5" font-family="Helvetica,sans-Serif" font-size="10.00">start_capture</text>
</a>
</g>
</g>
<!-- Node5&#45;&gt;Node10 -->
<g id="edge12" class="edge"><title>Node5&#45;&gt;Node10</title>
<path fill="none" stroke="midnightblue" d="M491.866,-109.448C502.175,-104.218 514.891,-98.6126 526.624,-94.0544"/>
<polygon fill="midnightblue" stroke="midnightblue" points="489.985,-106.486 482.831,-114.301 493.297,-112.653 489.985,-106.486"/>
</g>
<!-- Node11 -->
<g id="node11" class="node"><title>Node11</title>
<g id="a_node11"><a xlink:href="../../dc/d77/lstrlib_8c.html#a692514aa32ae2668683a4db15259d26b" target="_top" xlink:title="str_find_aux">
<polygon fill="none" stroke="black" points="528.5,-38.5 528.5,-57.5 596.5,-57.5 596.5,-38.5 528.5,-38.5"/>
<text text-anchor="middle" x="562.5" y="-45.5" font-family="Helvetica,sans-Serif" font-size="10.00">str_find_aux</text>
</a>
</g>
</g>
<!-- Node5&#45;&gt;Node11 -->
<g id="edge14" class="edge"><title>Node5&#45;&gt;Node11</title>
<path fill="none" stroke="midnightblue" d="M485.599,-106.66C496.282,-94.6255 511.553,-78.7146 527,-67 531.577,-63.5293 536.864,-60.2906 541.904,-57.5053"/>
<polygon fill="midnightblue" stroke="midnightblue" points="482.903,-104.427 478.99,-114.273 488.189,-109.016 482.903,-104.427"/>
</g>
<!-- Node14 -->
<g id="node14" class="node"><title>Node14</title>
<g id="a_node14"><a xlink:href="../../dc/d77/lstrlib_8c.html#a42337c674d265175bcc2b2f3809c7339" target="_top" xlink:title="str_gsub">
<polygon fill="none" stroke="black" points="536,-0.5 536,-19.5 589,-19.5 589,-0.5 536,-0.5"/>
<text text-anchor="middle" x="562.5" y="-7.5" font-family="Helvetica,sans-Serif" font-size="10.00">str_gsub</text>
</a>
</g>
</g>
<!-- Node5&#45;&gt;Node14 -->
<g id="edge17" class="edge"><title>Node5&#45;&gt;Node14</title>
<path fill="none" stroke="midnightblue" d="M478.59,-104.905C487.604,-84.1538 504.324,-51.0224 527,-29 530.728,-25.3795 535.283,-22.2341 539.846,-19.6008"/>
<polygon fill="midnightblue" stroke="midnightblue" points="475.312,-103.672 474.689,-114.249 481.771,-106.369 475.312,-103.672"/>
</g>
<!-- Node6&#45;&gt;Node5 -->
<g id="edge6" class="edge"><title>Node6&#45;&gt;Node5</title>
<path fill="none" stroke="midnightblue" d="M518.404,-150.647C505.326,-145.239 492.007,-138.976 482.831,-133.699"/>
<polygon fill="midnightblue" stroke="midnightblue" points="517.236,-153.95 527.821,-154.409 519.833,-147.449 517.236,-153.95"/>
</g>
<!-- Node8 -->
<g id="node8" class="node"><title>Node8</title>
<g id="a_node8"><a xlink:href="../../dc/d77/lstrlib_8c.html#ab55a72bb412d6186c82fd75de44cd031" target="_top" xlink:title="gmatch">
<polygon fill="none" stroke="black" points="639,-114.5 639,-133.5 686,-133.5 686,-114.5 639,-114.5"/>
<text text-anchor="middle" x="662.5" y="-121.5" font-family="Helvetica,sans-Serif" font-size="10.00">gmatch</text>
</a>
</g>
</g>
<!-- Node7&#45;&gt;Node8 -->
<g id="edge8" class="edge"><title>Node7&#45;&gt;Node8</title>
<path fill="none" stroke="midnightblue" d="M607.445,-124C618.284,-124 629.455,-124 638.809,-124"/>
<polygon fill="midnightblue" stroke="midnightblue" points="607.226,-120.5 597.226,-124 607.226,-127.5 607.226,-120.5"/>
</g>
<!-- Node9&#45;&gt;Node5 -->
<g id="edge11" class="edge"><title>Node9&#45;&gt;Node5</title>
<path fill="none" stroke="midnightblue" d="M520.022,-184.357C500.245,-167.681 482.572,-146.665 474.951,-133.732"/>
<polygon fill="midnightblue" stroke="midnightblue" points="517.998,-187.22 527.991,-190.74 522.374,-181.757 517.998,-187.22"/>
</g>
<!-- Node10&#45;&gt;Node5 -->
<g id="edge13" class="edge"><title>Node10&#45;&gt;Node5</title>
<path fill="none" stroke="midnightblue" d="M540.817,-100.459C525.897,-108.042 505.865,-116.436 491.085,-121.287"/>
<polygon fill="midnightblue" stroke="midnightblue" points="542.629,-103.458 549.776,-95.6374 539.311,-97.2941 542.629,-103.458"/>
</g>
<!-- Node12 -->
<g id="node12" class="node"><title>Node12</title>
<g id="a_node12"><a xlink:href="../../dc/d77/lstrlib_8c.html#a362a4bc9ba81ce87253cc3d74f015808" target="_top" xlink:title="str_find">
<polygon fill="none" stroke="black" points="639.5,-19.5 639.5,-38.5 685.5,-38.5 685.5,-19.5 639.5,-19.5"/>
<text text-anchor="middle" x="662.5" y="-26.5" font-family="Helvetica,sans-Serif" font-size="10.00">str_find</text>
</a>
</g>
</g>
<!-- Node11&#45;&gt;Node12 -->
<g id="edge15" class="edge"><title>Node11&#45;&gt;Node12</title>
<path fill="none" stroke="midnightblue" d="M606.504,-39.6626C617.884,-37.4562 629.702,-35.1649 639.453,-33.2743"/>
<polygon fill="midnightblue" stroke="midnightblue" points="605.829,-36.228 596.678,-41.5675 607.162,-43.1001 605.829,-36.228"/>
</g>
<!-- Node13 -->
<g id="node13" class="node"><title>Node13</title>
<g id="a_node13"><a xlink:href="../../dc/d77/lstrlib_8c.html#a4b605e43b8f5738db9eae902bbc00f00" target="_top" xlink:title="str_match">
<polygon fill="none" stroke="black" points="634,-57.5 634,-76.5 691,-76.5 691,-57.5 634,-57.5"/>
<text text-anchor="middle" x="662.5" y="-64.5" font-family="Helvetica,sans-Serif" font-size="10.00">str_match</text>
</a>
</g>
</g>
<!-- Node11&#45;&gt;Node13 -->
<g id="edge16" class="edge"><title>Node11&#45;&gt;Node13</title>
<path fill="none" stroke="midnightblue" d="M606.566,-56.3495C615.841,-58.1478 625.405,-60.0019 633.9,-61.649"/>
<polygon fill="midnightblue" stroke="midnightblue" points="607.162,-52.8999 596.678,-54.4325 605.829,-59.772 607.162,-52.8999"/>
</g>
</g>
</svg>
