<?xml version="1.0" encoding="UTF-8" standalone="no"?>
<!DOCTYPE svg PUBLIC "-//W3C//DTD SVG 1.1//EN"
 "http://www.w3.org/Graphics/SVG/1.1/DTD/svg11.dtd">
<!-- Generated by graphviz version 2.38.0 (20140413.2041)
 -->
<!-- Title: push_onecapture Pages: 1 -->
<svg width="413pt" height="180pt"
 viewBox="0.00 0.00 413.00 180.00" xmlns="http://www.w3.org/2000/svg" xmlns:xlink="http://www.w3.org/1999/xlink">
<g id="graph0" class="graph" transform="scale(1 1) rotate(0) translate(4 176)">
<title>push_onecapture</title>
<!-- Node1 -->
<g id="node1" class="node"><title>Node1</title>
<polygon fill="#bfbfbf" stroke="black" points="0,-114.5 0,-133.5 91,-133.5 91,-114.5 0,-114.5"/>
<text text-anchor="middle" x="45.5" y="-121.5" font-family="Helvetica,sans-Serif" font-size="10.00">push_onecapture</text>
</g>
<!-- Node2 -->
<g id="node2" class="node"><title>Node2</title>
<g id="a_node2"><a xlink:href="../../dc/d77/lstrlib_8c.html#ad5f7e3fbcadc8825f7f650ecf458fc72" target="_top" xlink:title="add_s">
<polygon fill="none" stroke="black" points="145,-152.5 145,-171.5 189,-171.5 189,-152.5 145,-152.5"/>
<text text-anchor="middle" x="167" y="-159.5" font-family="Helvetica,sans-Serif" font-size="10.00">add_s</text>
</a>
</g>
</g>
<!-- Node1&#45;&gt;Node2 -->
<g id="edge1" class="edge"><title>Node1&#45;&gt;Node2</title>
<path fill="none" stroke="midnightblue" d="M86.2615,-136.644C105.857,-142.875 128.694,-150.137 144.894,-155.288"/>
<polygon fill="midnightblue" stroke="midnightblue" points="87.2453,-133.284 76.6549,-133.589 85.124,-139.955 87.2453,-133.284"/>
</g>
<!-- Node3 -->
<g id="node3" class="node"><title>Node3</title>
<g id="a_node3"><a xlink:href="../../dc/d77/lstrlib_8c.html#ad24cfa73e5ad25ec99a1b48f0916471e" target="_top" xlink:title="add_value">
<polygon fill="none" stroke="black" points="246.5,-114.5 246.5,-133.5 308.5,-133.5 308.5,-114.5 246.5,-114.5"/>
<text text-anchor="middle" x="277.5" y="-121.5" font-family="Helvetica,sans-Serif" font-size="10.00">add_value</text>
</a>
</g>
</g>
<!-- Node1&#45;&gt;Node3 -->
<g id="edge4" class="edge"><title>Node1&#45;&gt;Node3</title>
<path fill="none" stroke="midnightblue" d="M101.389,-124C146.778,-124 209.544,-124 246.299,-124"/>
<polygon fill="midnightblue" stroke="midnightblue" points="101.119,-120.5 91.119,-124 101.119,-127.5 101.119,-120.5"/>
</g>
<!-- Node5 -->
<g id="node5" class="node"><title>Node5</title>
<g id="a_node5"><a xlink:href="../../dc/d77/lstrlib_8c.html#ad14703c4bc40d7c1951dedb7bc7554f7" target="_top" xlink:title="push_captures">
<polygon fill="none" stroke="black" points="127,-76.5 127,-95.5 207,-95.5 207,-76.5 127,-76.5"/>
<text text-anchor="middle" x="167" y="-83.5" font-family="Helvetica,sans-Serif" font-size="10.00">push_captures</text>
</a>
</g>
</g>
<!-- Node1&#45;&gt;Node5 -->
<g id="edge5" class="edge"><title>Node1&#45;&gt;Node5</title>
<path fill="none" stroke="midnightblue" d="M86.3766,-111.32C102.523,-106.185 120.854,-100.356 135.855,-95.5859"/>
<polygon fill="midnightblue" stroke="midnightblue" points="85.124,-108.045 76.6549,-114.411 87.2453,-114.716 85.124,-108.045"/>
</g>
<!-- Node2&#45;&gt;Node3 -->
<g id="edge2" class="edge"><title>Node2&#45;&gt;Node3</title>
<path fill="none" stroke="midnightblue" d="M199.035,-151.13C214.861,-145.588 233.935,-138.907 249.196,-133.563"/>
<polygon fill="midnightblue" stroke="midnightblue" points="197.458,-147.974 189.177,-154.583 199.772,-154.581 197.458,-147.974"/>
</g>
<!-- Node4 -->
<g id="node4" class="node"><title>Node4</title>
<g id="a_node4"><a xlink:href="../../dc/d77/lstrlib_8c.html#a42337c674d265175bcc2b2f3809c7339" target="_top" xlink:title="str_gsub">
<polygon fill="none" stroke="black" points="350,-114.5 350,-133.5 403,-133.5 403,-114.5 350,-114.5"/>
<text text-anchor="middle" x="376.5" y="-121.5" font-family="Helvetica,sans-Serif" font-size="10.00">str_gsub</text>
</a>
</g>
</g>
<!-- Node3&#45;&gt;Node4 -->
<g id="edge3" class="edge"><title>Node3&#45;&gt;Node4</title>
<path fill="none" stroke="midnightblue" d="M318.912,-124C329.413,-124 340.435,-124 349.933,-124"/>
<polygon fill="midnightblue" stroke="midnightblue" points="318.66,-120.5 308.66,-124 318.66,-127.5 318.66,-120.5"/>
</g>
<!-- Node5&#45;&gt;Node3 -->
<g id="edge6" class="edge"><title>Node5&#45;&gt;Node3</title>
<path fill="none" stroke="midnightblue" d="M205.038,-98.9718C219.493,-104.034 235.767,-109.734 249.13,-114.414"/>
<polygon fill="midnightblue" stroke="midnightblue" points="205.974,-95.5912 195.379,-95.589 203.66,-102.198 205.974,-95.5912"/>
</g>
<!-- Node6 -->
<g id="node6" class="node"><title>Node6</title>
<g id="a_node6"><a xlink:href="../../dc/d77/lstrlib_8c.html#ab7cb0ba6191e1aa9455f6522d3483a02" target="_top" xlink:title="gmatch_aux">
<polygon fill="none" stroke="black" points="243,-76.5 243,-95.5 312,-95.5 312,-76.5 243,-76.5"/>
<text text-anchor="middle" x="277.5" y="-83.5" font-family="Helvetica,sans-Serif" font-size="10.00">gmatch_aux</text>
</a>
</g>
</g>
<!-- Node5&#45;&gt;Node6 -->
<g id="edge7" class="edge"><title>Node5&#45;&gt;Node6</title>
<path fill="none" stroke="midnightblue" d="M217.19,-86C225.839,-86 234.66,-86 242.765,-86"/>
<polygon fill="midnightblue" stroke="midnightblue" points="217.171,-82.5001 207.171,-86 217.171,-89.5001 217.171,-82.5001"/>
</g>
<!-- Node8 -->
<g id="node8" class="node"><title>Node8</title>
<g id="a_node8"><a xlink:href="../../dc/d77/lstrlib_8c.html#a692514aa32ae2668683a4db15259d26b" target="_top" xlink:title="str_find_aux">
<polygon fill="none" stroke="black" points="243.5,-38.5 243.5,-57.5 311.5,-57.5 311.5,-38.5 243.5,-38.5"/>
<text text-anchor="middle" x="277.5" y="-45.5" font-family="Helvetica,sans-Serif" font-size="10.00">str_find_aux</text>
</a>
</g>
</g>
<!-- Node5&#45;&gt;Node8 -->
<g id="edge9" class="edge"><title>Node5&#45;&gt;Node8</title>
<path fill="none" stroke="midnightblue" d="M205.038,-73.0282C219.493,-67.9656 235.767,-62.2659 249.13,-57.5859"/>
<polygon fill="midnightblue" stroke="midnightblue" points="203.66,-69.8022 195.379,-76.411 205.974,-76.4088 203.66,-69.8022"/>
</g>
<!-- Node7 -->
<g id="node7" class="node"><title>Node7</title>
<g id="a_node7"><a xlink:href="../../dc/d77/lstrlib_8c.html#ab55a72bb412d6186c82fd75de44cd031" target="_top" xlink:title="gmatch">
<polygon fill="none" stroke="black" points="353,-76.5 353,-95.5 400,-95.5 400,-76.5 353,-76.5"/>
<text text-anchor="middle" x="376.5" y="-83.5" font-family="Helvetica,sans-Serif" font-size="10.00">gmatch</text>
</a>
</g>
</g>
<!-- Node6&#45;&gt;Node7 -->
<g id="edge8" class="edge"><title>Node6&#45;&gt;Node7</title>
<path fill="none" stroke="midnightblue" d="M322.164,-86C332.774,-86 343.696,-86 352.872,-86"/>
<polygon fill="midnightblue" stroke="midnightblue" points="322.154,-82.5001 312.154,-86 322.154,-89.5001 322.154,-82.5001"/>
</g>
<!-- Node9 -->
<g id="node9" class="node"><title>Node9</title>
<g id="a_node9"><a xlink:href="../../dc/d77/lstrlib_8c.html#a362a4bc9ba81ce87253cc3d74f015808" target="_top" xlink:title="str_find">
<polygon fill="none" stroke="black" points="353.5,-38.5 353.5,-57.5 399.5,-57.5 399.5,-38.5 353.5,-38.5"/>
<text text-anchor="middle" x="376.5" y="-45.5" font-family="Helvetica,sans-Serif" font-size="10.00">str_find</text>
</a>
</g>
</g>
<!-- Node8&#45;&gt;Node9 -->
<g id="edge10" class="edge"><title>Node8&#45;&gt;Node9</title>
<path fill="none" stroke="midnightblue" d="M321.83,-48C332.676,-48 343.871,-48 353.211,-48"/>
<polygon fill="midnightblue" stroke="midnightblue" points="321.611,-44.5001 311.611,-48 321.611,-51.5001 321.611,-44.5001"/>
</g>
<!-- Node10 -->
<g id="node10" class="node"><title>Node10</title>
<g id="a_node10"><a xlink:href="../../dc/d77/lstrlib_8c.html#a4b605e43b8f5738db9eae902bbc00f00" target="_top" xlink:title="str_match">
<polygon fill="none" stroke="black" points="348,-0.5 348,-19.5 405,-19.5 405,-0.5 348,-0.5"/>
<text text-anchor="middle" x="376.5" y="-7.5" font-family="Helvetica,sans-Serif" font-size="10.00">str_match</text>
</a>
</g>
</g>
<!-- Node8&#45;&gt;Node10 -->
<g id="edge11" class="edge"><title>Node8&#45;&gt;Node10</title>
<path fill="none" stroke="midnightblue" d="M312.36,-34.7354C325.094,-29.7467 339.314,-24.1759 351.031,-19.5859"/>
<polygon fill="midnightblue" stroke="midnightblue" points="311.012,-31.5045 302.977,-38.411 313.565,-38.0222 311.012,-31.5045"/>
</g>
</g>
</svg>
