<?xml version="1.0" encoding="UTF-8" standalone="no"?>
<!DOCTYPE svg PUBLIC "-//W3C//DTD SVG 1.1//EN"
 "http://www.w3.org/Graphics/SVG/1.1/DTD/svg11.dtd">
<!-- Generated by graphviz version 2.38.0 (20140413.2041)
 -->
<!-- Title: start_capture Pages: 1 -->
<svg width="360pt" height="218pt"
 viewBox="0.00 0.00 360.00 218.00" xmlns="http://www.w3.org/2000/svg" xmlns:xlink="http://www.w3.org/1999/xlink">
<g id="graph0" class="graph" transform="scale(1 1) rotate(0) translate(4 214)">
<title>start_capture</title>
<!-- Node1 -->
<g id="node1" class="node"><title>Node1</title>
<polygon fill="#bfbfbf" stroke="black" points="0,-114.5 0,-133.5 71,-133.5 71,-114.5 0,-114.5"/>
<text text-anchor="middle" x="35.5" y="-121.5" font-family="Helvetica,sans-Serif" font-size="10.00">start_capture</text>
</g>
<!-- Node2 -->
<g id="node2" class="node"><title>Node2</title>
<g id="a_node2"><a xlink:href="../../dc/d77/lstrlib_8c.html#a52a45835b75e5d31ec66421456bbb728" target="_top" xlink:title="match">
<polygon fill="none" stroke="black" points="107,-114.5 107,-133.5 149,-133.5 149,-114.5 107,-114.5"/>
<text text-anchor="middle" x="128" y="-121.5" font-family="Helvetica,sans-Serif" font-size="10.00">match</text>
</a>
</g>
</g>
<!-- Node1&#45;&gt;Node2 -->
<g id="edge1" class="edge"><title>Node1&#45;&gt;Node2</title>
<path fill="none" stroke="midnightblue" d="M81.2875,-117.25C90.2709,-117.238 99.2785,-117.581 106.894,-118.278"/>
<polygon fill="midnightblue" stroke="midnightblue" points="81.1722,-113.752 71.2308,-117.415 81.2868,-120.751 81.1722,-113.752"/>
</g>
<!-- Node2&#45;&gt;Node1 -->
<g id="edge10" class="edge"><title>Node2&#45;&gt;Node1</title>
<path fill="none" stroke="midnightblue" d="M96.6832,-130.412C88.5163,-130.795 79.6183,-130.852 71.2308,-130.585"/>
<polygon fill="midnightblue" stroke="midnightblue" points="97.1529,-133.888 106.894,-129.722 96.6808,-126.904 97.1529,-133.888"/>
</g>
<!-- Node3 -->
<g id="node3" class="node"><title>Node3</title>
<g id="a_node3"><a xlink:href="../../dc/d77/lstrlib_8c.html#ab0ecc0f25602beb821f6a5e62517d18e" target="_top" xlink:title="end_capture">
<polygon fill="none" stroke="black" points="187.5,-190.5 187.5,-209.5 256.5,-209.5 256.5,-190.5 187.5,-190.5"/>
<text text-anchor="middle" x="222" y="-197.5" font-family="Helvetica,sans-Serif" font-size="10.00">end_capture</text>
</a>
</g>
</g>
<!-- Node2&#45;&gt;Node3 -->
<g id="edge2" class="edge"><title>Node2&#45;&gt;Node3</title>
<path fill="none" stroke="midnightblue" d="M150.799,-141.17C160.596,-150.982 172.707,-162.849 185,-172 194.297,-178.921 206.456,-184.772 213.996,-190.45"/>
<polygon fill="midnightblue" stroke="midnightblue" points="153.019,-138.439 143.478,-133.832 148.063,-143.383 153.019,-138.439"/>
</g>
<!-- Node4 -->
<g id="node4" class="node"><title>Node4</title>
<g id="a_node4"><a xlink:href="../../dc/d77/lstrlib_8c.html#ab7cb0ba6191e1aa9455f6522d3483a02" target="_top" xlink:title="gmatch_aux">
<polygon fill="none" stroke="black" points="187.5,-152.5 187.5,-171.5 256.5,-171.5 256.5,-152.5 187.5,-152.5"/>
<text text-anchor="middle" x="222" y="-159.5" font-family="Helvetica,sans-Serif" font-size="10.00">gmatch_aux</text>
</a>
</g>
</g>
<!-- Node2&#45;&gt;Node4 -->
<g id="edge4" class="edge"><title>Node2&#45;&gt;Node4</title>
<path fill="none" stroke="midnightblue" d="M159.022,-136.401C171.591,-141.592 185.976,-147.533 197.721,-152.385"/>
<polygon fill="midnightblue" stroke="midnightblue" points="159.997,-133.016 149.418,-132.433 157.324,-139.486 159.997,-133.016"/>
</g>
<!-- Node6 -->
<g id="node6" class="node"><title>Node6</title>
<g id="a_node6"><a xlink:href="../../dc/d77/lstrlib_8c.html#ad0b55e65b16045801315919fb67a4070" target="_top" xlink:title="max_expand">
<polygon fill="none" stroke="black" points="185,-114.5 185,-133.5 259,-133.5 259,-114.5 185,-114.5"/>
<text text-anchor="middle" x="222" y="-121.5" font-family="Helvetica,sans-Serif" font-size="10.00">max_expand</text>
</a>
</g>
</g>
<!-- Node2&#45;&gt;Node6 -->
<g id="edge6" class="edge"><title>Node2&#45;&gt;Node6</title>
<path fill="none" stroke="midnightblue" d="M159.513,-117.602C167.582,-117.222 176.371,-117.15 184.713,-117.386"/>
<polygon fill="midnightblue" stroke="midnightblue" points="159.161,-114.118 149.418,-118.28 159.63,-121.102 159.161,-114.118"/>
</g>
<!-- Node7 -->
<g id="node7" class="node"><title>Node7</title>
<g id="a_node7"><a xlink:href="../../dc/d77/lstrlib_8c.html#a3b42ede2ccaf027b891a6a4f1cdf3902" target="_top" xlink:title="min_expand">
<polygon fill="none" stroke="black" points="187.5,-76.5 187.5,-95.5 256.5,-95.5 256.5,-76.5 187.5,-76.5"/>
<text text-anchor="middle" x="222" y="-83.5" font-family="Helvetica,sans-Serif" font-size="10.00">min_expand</text>
</a>
</g>
</g>
<!-- Node2&#45;&gt;Node7 -->
<g id="edge8" class="edge"><title>Node2&#45;&gt;Node7</title>
<path fill="none" stroke="midnightblue" d="M149.889,-109.61C160.9,-104.097 174.678,-98.1476 187.167,-93.4388"/>
<polygon fill="midnightblue" stroke="midnightblue" points="148.228,-106.529 141.027,-114.301 151.503,-112.716 148.228,-106.529"/>
</g>
<!-- Node8 -->
<g id="node8" class="node"><title>Node8</title>
<g id="a_node8"><a xlink:href="../../dc/d77/lstrlib_8c.html#a692514aa32ae2668683a4db15259d26b" target="_top" xlink:title="str_find_aux">
<polygon fill="none" stroke="black" points="188,-38.5 188,-57.5 256,-57.5 256,-38.5 188,-38.5"/>
<text text-anchor="middle" x="222" y="-45.5" font-family="Helvetica,sans-Serif" font-size="10.00">str_find_aux</text>
</a>
</g>
</g>
<!-- Node2&#45;&gt;Node8 -->
<g id="edge11" class="edge"><title>Node2&#45;&gt;Node8</title>
<path fill="none" stroke="midnightblue" d="M143.535,-106.575C154.188,-94.5004 169.449,-78.5768 185,-67 189.648,-63.5396 195.012,-60.3466 200.157,-57.6047"/>
<polygon fill="midnightblue" stroke="midnightblue" points="140.825,-104.358 136.949,-114.219 146.128,-108.928 140.825,-104.358"/>
</g>
<!-- Node11 -->
<g id="node11" class="node"><title>Node11</title>
<g id="a_node11"><a xlink:href="../../dc/d77/lstrlib_8c.html#a42337c674d265175bcc2b2f3809c7339" target="_top" xlink:title="str_gsub">
<polygon fill="none" stroke="black" points="195.5,-0.5 195.5,-19.5 248.5,-19.5 248.5,-0.5 195.5,-0.5"/>
<text text-anchor="middle" x="222" y="-7.5" font-family="Helvetica,sans-Serif" font-size="10.00">str_gsub</text>
</a>
</g>
</g>
<!-- Node2&#45;&gt;Node11 -->
<g id="edge14" class="edge"><title>Node2&#45;&gt;Node11</title>
<path fill="none" stroke="midnightblue" d="M136.378,-105.151C145.293,-84.3543 162.011,-50.933 185,-29 188.784,-25.3901 193.388,-22.2795 198.023,-19.6813"/>
<polygon fill="midnightblue" stroke="midnightblue" points="133.102,-103.914 132.534,-114.494 139.575,-106.577 133.102,-103.914"/>
</g>
<!-- Node3&#45;&gt;Node2 -->
<g id="edge3" class="edge"><title>Node3&#45;&gt;Node2</title>
<path fill="none" stroke="midnightblue" d="M179.53,-185.564C158.429,-168.226 140.577,-146.861 132.928,-133.762"/>
<polygon fill="midnightblue" stroke="midnightblue" points="177.405,-188.345 187.439,-191.747 181.716,-182.83 177.405,-188.345"/>
</g>
<!-- Node5 -->
<g id="node5" class="node"><title>Node5</title>
<g id="a_node5"><a xlink:href="../../dc/d77/lstrlib_8c.html#ab55a72bb412d6186c82fd75de44cd031" target="_top" xlink:title="gmatch">
<polygon fill="none" stroke="black" points="300,-152.5 300,-171.5 347,-171.5 347,-152.5 300,-152.5"/>
<text text-anchor="middle" x="323.5" y="-159.5" font-family="Helvetica,sans-Serif" font-size="10.00">gmatch</text>
</a>
</g>
</g>
<!-- Node4&#45;&gt;Node5 -->
<g id="edge5" class="edge"><title>Node4&#45;&gt;Node5</title>
<path fill="none" stroke="midnightblue" d="M266.929,-162C278.284,-162 290.048,-162 299.813,-162"/>
<polygon fill="midnightblue" stroke="midnightblue" points="266.686,-158.5 256.686,-162 266.686,-165.5 266.686,-158.5"/>
</g>
<!-- Node6&#45;&gt;Node2 -->
<g id="edge7" class="edge"><title>Node6&#45;&gt;Node2</title>
<path fill="none" stroke="midnightblue" d="M174.448,-130.75C165.648,-130.736 156.875,-130.393 149.418,-129.72"/>
<polygon fill="midnightblue" stroke="midnightblue" points="174.76,-134.246 184.713,-130.614 174.668,-127.246 174.76,-134.246"/>
</g>
<!-- Node7&#45;&gt;Node2 -->
<g id="edge9" class="edge"><title>Node7&#45;&gt;Node2</title>
<path fill="none" stroke="midnightblue" d="M199.974,-100.459C184.807,-108.042 164.443,-116.436 149.418,-121.287"/>
<polygon fill="midnightblue" stroke="midnightblue" points="201.881,-103.409 209.082,-95.6374 198.606,-97.2226 201.881,-103.409"/>
</g>
<!-- Node9 -->
<g id="node9" class="node"><title>Node9</title>
<g id="a_node9"><a xlink:href="../../dc/d77/lstrlib_8c.html#a362a4bc9ba81ce87253cc3d74f015808" target="_top" xlink:title="str_find">
<polygon fill="none" stroke="black" points="300.5,-57.5 300.5,-76.5 346.5,-76.5 346.5,-57.5 300.5,-57.5"/>
<text text-anchor="middle" x="323.5" y="-64.5" font-family="Helvetica,sans-Serif" font-size="10.00">str_find</text>
</a>
</g>
</g>
<!-- Node8&#45;&gt;Node9 -->
<g id="edge12" class="edge"><title>Node8&#45;&gt;Node9</title>
<path fill="none" stroke="midnightblue" d="M266.309,-56.27C278.111,-58.5237 290.405,-60.8713 300.474,-62.794"/>
<polygon fill="midnightblue" stroke="midnightblue" points="266.611,-52.7646 256.132,-54.3267 265.298,-59.6403 266.611,-52.7646"/>
</g>
<!-- Node10 -->
<g id="node10" class="node"><title>Node10</title>
<g id="a_node10"><a xlink:href="../../dc/d77/lstrlib_8c.html#a4b605e43b8f5738db9eae902bbc00f00" target="_top" xlink:title="str_match">
<polygon fill="none" stroke="black" points="295,-19.5 295,-38.5 352,-38.5 352,-19.5 295,-19.5"/>
<text text-anchor="middle" x="323.5" y="-26.5" font-family="Helvetica,sans-Serif" font-size="10.00">str_match</text>
</a>
</g>
</g>
<!-- Node8&#45;&gt;Node10 -->
<g id="edge13" class="edge"><title>Node8&#45;&gt;Node10</title>
<path fill="none" stroke="midnightblue" d="M266.093,-39.7713C275.833,-37.9114 285.919,-35.9853 294.823,-34.2851"/>
<polygon fill="midnightblue" stroke="midnightblue" points="265.298,-36.3597 256.132,-41.6733 266.611,-43.2354 265.298,-36.3597"/>
</g>
</g>
</svg>
