<?xml version="1.0" encoding="UTF-8" standalone="no"?>
<!DOCTYPE svg PUBLIC "-//W3C//DTD SVG 1.1//EN"
 "http://www.w3.org/Graphics/SVG/1.1/DTD/svg11.dtd">
<!-- Generated by graphviz version 2.38.0 (20140413.2041)
 -->
<!-- Title: &#45;[Computed startTracking] Pages: 1 -->
<svg width="506pt" height="78pt"
 viewBox="0.00 0.00 506.00 77.50" xmlns="http://www.w3.org/2000/svg" xmlns:xlink="http://www.w3.org/1999/xlink">
<g id="graph0" class="graph" transform="scale(1 1) rotate(0) translate(4 73.5)">
<title>&#45;[Computed startTracking]</title>
<!-- Node1 -->
<g id="node1" class="node"><title>Node1</title>
<polygon fill="#bfbfbf" stroke="black" points="0,-22.5 0,-41.5 124,-41.5 124,-22.5 0,-22.5"/>
<text text-anchor="middle" x="62" y="-29.5" font-family="Helvetica,sans-Serif" font-size="10.00">&#45;[Computed startTracking]</text>
</g>
<!-- Node1&#45;&gt;Node1 -->
<g id="edge1" class="edge"><title>Node1&#45;&gt;Node1</title>
<path fill="none" stroke="midnightblue" d="M30.1886,-50.2746C31.0956,-55.741 41.6994,-60 62,-60 92.2148,-60 100.949,-50.5653 88.2019,-41.7571"/>
<polygon fill="midnightblue" stroke="midnightblue" points="33.2209,-52.0337 35.7981,-41.7571 27.3748,-48.1836 33.2209,-52.0337"/>
</g>
<!-- Node2 -->
<g id="node2" class="node"><title>Node2</title>
<g id="a_node2"><a xlink:href="../../de/d66/interface_computed.html#a81f611498570e74653756f910d6f8eed" target="_top" xlink:title="&#45;[Computed updateCalculated\lValue]">
<polygon fill="none" stroke="black" points="160,-17 160,-47 304,-47 304,-17 160,-17"/>
<text text-anchor="start" x="168" y="-35" font-family="Helvetica,sans-Serif" font-size="10.00">&#45;[Computed updateCalculated</text>
<text text-anchor="middle" x="232" y="-24" font-family="Helvetica,sans-Serif" font-size="10.00">Value]</text>
</a>
</g>
</g>
<!-- Node1&#45;&gt;Node2 -->
<g id="edge2" class="edge"><title>Node1&#45;&gt;Node2</title>
<path fill="none" stroke="midnightblue" d="M134.351,-32C142.823,-32 151.471,-32 159.939,-32"/>
<polygon fill="midnightblue" stroke="midnightblue" points="134.127,-28.5001 124.127,-32 134.127,-35.5001 134.127,-28.5001"/>
</g>
<!-- Node3 -->
<g id="node3" class="node"><title>Node3</title>
<g id="a_node3"><a xlink:href="../../de/d66/interface_computed.html#a500ff8c845498f166ed94598200910dc" target="_top" xlink:title="&#45;[Computed initWithKensho\l:calculator:]">
<polygon fill="none" stroke="black" points="353.5,-39 353.5,-69 484.5,-69 484.5,-39 353.5,-39"/>
<text text-anchor="start" x="361.5" y="-57" font-family="Helvetica,sans-Serif" font-size="10.00">&#45;[Computed initWithKensho</text>
<text text-anchor="middle" x="419" y="-46" font-family="Helvetica,sans-Serif" font-size="10.00">:calculator:]</text>
</a>
</g>
</g>
<!-- Node2&#45;&gt;Node3 -->
<g id="edge3" class="edge"><title>Node2&#45;&gt;Node3</title>
<path fill="none" stroke="midnightblue" d="M314.219,-41.6585C327.343,-43.2191 340.774,-44.8163 353.434,-46.3219"/>
<polygon fill="midnightblue" stroke="midnightblue" points="314.605,-38.1798 304.261,-40.4743 313.778,-45.1308 314.605,-38.1798"/>
</g>
<!-- Node4 -->
<g id="node4" class="node"><title>Node4</title>
<g id="a_node4"><a xlink:href="../../de/d66/interface_computed.html#a5aad223dfde2480acc08eadf76c1f638" target="_top" xlink:title="&#45;[Computed observableUpdated:]">
<polygon fill="none" stroke="black" points="340,-0.5 340,-19.5 498,-19.5 498,-0.5 340,-0.5"/>
<text text-anchor="middle" x="419" y="-7.5" font-family="Helvetica,sans-Serif" font-size="10.00">&#45;[Computed observableUpdated:]</text>
</a>
</g>
</g>
<!-- Node2&#45;&gt;Node4 -->
<g id="edge4" class="edge"><title>Node2&#45;&gt;Node4</title>
<path fill="none" stroke="midnightblue" d="M314.423,-22.3173C322.82,-21.3187 331.34,-20.3055 339.702,-19.3112"/>
<polygon fill="midnightblue" stroke="midnightblue" points="313.778,-18.8692 304.261,-23.5257 314.605,-25.8203 313.778,-18.8692"/>
</g>
</g>
</svg>
