<?xml version="1.0" encoding="UTF-8" standalone="no"?>
<!DOCTYPE svg PUBLIC "-//W3C//DTD SVG 1.1//EN"
 "http://www.w3.org/Graphics/SVG/1.1/DTD/svg11.dtd">
<!-- Generated by graphviz version 2.38.0 (20140413.2041)
 -->
<!-- Title: luaO_fb2int Pages: 1 -->
<svg width="892pt" height="1176pt"
 viewBox="0.00 0.00 892.00 1176.00" xmlns="http://www.w3.org/2000/svg" xmlns:xlink="http://www.w3.org/1999/xlink">
<g id="graph0" class="graph" transform="scale(1 1) rotate(0) translate(4 1172)">
<title>luaO_fb2int</title>
<!-- Node1 -->
<g id="node1" class="node"><title>Node1</title>
<polygon fill="#bfbfbf" stroke="black" points="0,-721.5 0,-740.5 65,-740.5 65,-721.5 0,-721.5"/>
<text text-anchor="middle" x="32.5" y="-728.5" font-family="Helvetica,sans-Serif" font-size="10.00">luaO_fb2int</text>
</g>
<!-- Node2 -->
<g id="node2" class="node"><title>Node2</title>
<g id="a_node2"><a xlink:href="../../d5/dcd/lvm_8h.html#ae93565adc36c6e2157dbbd875433ede1" target="_top" xlink:title="luaV_execute">
<polygon fill="none" stroke="black" points="101,-721.5 101,-740.5 175,-740.5 175,-721.5 101,-721.5"/>
<text text-anchor="middle" x="138" y="-728.5" font-family="Helvetica,sans-Serif" font-size="10.00">luaV_execute</text>
</a>
</g>
</g>
<!-- Node1&#45;&gt;Node2 -->
<g id="edge1" class="edge"><title>Node1&#45;&gt;Node2</title>
<path fill="none" stroke="midnightblue" d="M75.2261,-731C83.7201,-731 92.5888,-731 100.869,-731"/>
<polygon fill="midnightblue" stroke="midnightblue" points="75.1158,-727.5 65.1158,-731 75.1158,-734.5 75.1158,-727.5"/>
</g>
<!-- Node3 -->
<g id="node3" class="node"><title>Node3</title>
<g id="a_node3"><a xlink:href="../../d2/dd9/ldo_8h.html#a7bb0b106d4012134156e0fa240f51228" target="_top" xlink:title="luaD_call">
<polygon fill="none" stroke="black" points="211,-702.5 211,-721.5 267,-721.5 267,-702.5 211,-702.5"/>
<text text-anchor="middle" x="239" y="-709.5" font-family="Helvetica,sans-Serif" font-size="10.00">luaD_call</text>
</a>
</g>
</g>
<!-- Node2&#45;&gt;Node3 -->
<g id="edge2" class="edge"><title>Node2&#45;&gt;Node3</title>
<path fill="none" stroke="midnightblue" d="M169.531,-718.852C182.697,-715.653 197.972,-712.784 210.749,-711.127"/>
<polygon fill="midnightblue" stroke="midnightblue" points="168.303,-715.555 159.513,-721.47 170.073,-722.328 168.303,-715.555"/>
</g>
<!-- Node47 -->
<g id="node47" class="node"><title>Node47</title>
<g id="a_node47"><a xlink:href="../../d3/d08/ldo_8c.html#a3baab9d298c0c32cb74a9a079d7244de" target="_top" xlink:title="unroll">
<polygon fill="none" stroke="black" points="220,-158.5 220,-177.5 258,-177.5 258,-158.5 220,-158.5"/>
<text text-anchor="middle" x="239" y="-165.5" font-family="Helvetica,sans-Serif" font-size="10.00">unroll</text>
</a>
</g>
</g>
<!-- Node2&#45;&gt;Node47 -->
<g id="edge65" class="edge"><title>Node2&#45;&gt;Node47</title>
<path fill="none" stroke="midnightblue" d="M142.492,-711.139C158.534,-619.912 224.858,-242.734 236.312,-177.602"/>
<polygon fill="midnightblue" stroke="midnightblue" points="139.003,-710.773 140.718,-721.228 145.897,-711.985 139.003,-710.773"/>
</g>
<!-- Node50 -->
<g id="node50" class="node"><title>Node50</title>
<g id="a_node50"><a xlink:href="../../d3/d08/ldo_8c.html#abd7632c715de5db6e7797b7fa3f7010f" target="_top" xlink:title="resume">
<polygon fill="none" stroke="black" points="318.5,-158.5 318.5,-177.5 365.5,-177.5 365.5,-158.5 318.5,-158.5"/>
<text text-anchor="middle" x="342" y="-165.5" font-family="Helvetica,sans-Serif" font-size="10.00">resume</text>
</a>
</g>
</g>
<!-- Node2&#45;&gt;Node50 -->
<g id="edge71" class="edge"><title>Node2&#45;&gt;Node50</title>
<path fill="none" stroke="midnightblue" d="M143.633,-711.757C160.297,-643.982 220.596,-410.751 303,-231 312.049,-211.261 325.837,-189.956 334.08,-177.87"/>
<polygon fill="midnightblue" stroke="midnightblue" points="140.226,-710.955 141.259,-721.5 147.027,-712.612 140.226,-710.955"/>
</g>
<!-- Node3&#45;&gt;Node2 -->
<g id="edge64" class="edge"><title>Node3&#45;&gt;Node2</title>
<path fill="none" stroke="midnightblue" d="M207.627,-724.11C197.326,-726.617 185.719,-728.926 175.021,-730.609"/>
<polygon fill="midnightblue" stroke="midnightblue" points="208.622,-727.467 217.411,-721.551 206.851,-720.695 208.622,-727.467"/>
</g>
<!-- Node4 -->
<g id="node4" class="node"><title>Node4</title>
<g id="a_node4"><a xlink:href="../../dd/d4a/lvm_8c.html#aa904883a58699d9c6ef4d6f0f45037f6" target="_top" xlink:title="callTM">
<polygon fill="none" stroke="black" points="320,-949.5 320,-968.5 364,-968.5 364,-949.5 320,-949.5"/>
<text text-anchor="middle" x="342" y="-956.5" font-family="Helvetica,sans-Serif" font-size="10.00">callTM</text>
</a>
</g>
</g>
<!-- Node3&#45;&gt;Node4 -->
<g id="edge3" class="edge"><title>Node3&#45;&gt;Node4</title>
<path fill="none" stroke="midnightblue" d="M246.458,-731.68C257.167,-763.782 279.738,-829.232 303,-883 313.543,-907.37 328.047,-935.043 335.729,-949.326"/>
<polygon fill="midnightblue" stroke="midnightblue" points="249.649,-730.183 243.183,-721.79 243.004,-732.383 249.649,-730.183"/>
</g>
<!-- Node32 -->
<g id="node32" class="node"><title>Node32</title>
<g id="a_node32"><a xlink:href="../../de/d27/lgc_8c.html#a929058f72c03750fa82374f6bfa639ee" target="_top" xlink:title="dothecall">
<polygon fill="none" stroke="black" points="315.5,-240.5 315.5,-259.5 368.5,-259.5 368.5,-240.5 315.5,-240.5"/>
<text text-anchor="middle" x="342" y="-247.5" font-family="Helvetica,sans-Serif" font-size="10.00">dothecall</text>
</a>
</g>
</g>
<!-- Node3&#45;&gt;Node32 -->
<g id="edge46" class="edge"><title>Node3&#45;&gt;Node32</title>
<path fill="none" stroke="midnightblue" d="M242.331,-692.3C248.987,-638.146 269.769,-482.707 303,-357 312.724,-320.217 329.384,-278.08 336.995,-259.568"/>
<polygon fill="midnightblue" stroke="midnightblue" points="238.851,-691.923 241.126,-702.271 245.8,-692.763 238.851,-691.923"/>
</g>
<!-- Node36 -->
<g id="node36" class="node"><title>Node36</title>
<g id="a_node36"><a xlink:href="../../df/db6/lapi_8c.html#ac3926c93fb08234f9f47e24653124910" target="_top" xlink:title="f_call">
<polygon fill="none" stroke="black" points="323,-854.5 323,-873.5 361,-873.5 361,-854.5 323,-854.5"/>
<text text-anchor="middle" x="342" y="-861.5" font-family="Helvetica,sans-Serif" font-size="10.00">f_call</text>
</a>
</g>
</g>
<!-- Node3&#45;&gt;Node36 -->
<g id="edge50" class="edge"><title>Node3&#45;&gt;Node36</title>
<path fill="none" stroke="midnightblue" d="M245.84,-731.487C254.676,-758.395 273.596,-807.304 303,-840 308.531,-846.15 315.996,-851.322 322.846,-855.271"/>
<polygon fill="midnightblue" stroke="midnightblue" points="249.105,-730.203 242.761,-721.717 242.429,-732.307 249.105,-730.203"/>
</g>
<!-- Node37 -->
<g id="node37" class="node"><title>Node37</title>
<g id="a_node37"><a xlink:href="../../da/dd2/lua_8h.html#a3c4de08aa665eaee4aabd330aa99a441" target="_top" xlink:title="lua_pcallk">
<polygon fill="none" stroke="black" points="429,-835.5 429,-854.5 488,-854.5 488,-835.5 429,-835.5"/>
<text text-anchor="middle" x="458.5" y="-842.5" font-family="Helvetica,sans-Serif" font-size="10.00">lua_pcallk</text>
</a>
</g>
</g>
<!-- Node3&#45;&gt;Node37 -->
<g id="edge56" class="edge"><title>Node3&#45;&gt;Node37</title>
<path fill="none" stroke="midnightblue" d="M264.449,-726.951C309.442,-754.463 404.179,-812.395 441.707,-835.343"/>
<polygon fill="midnightblue" stroke="midnightblue" points="265.999,-723.796 255.642,-721.565 262.348,-729.768 265.999,-723.796"/>
</g>
<!-- Node40 -->
<g id="node40" class="node"><title>Node40</title>
<g id="a_node40"><a xlink:href="../../da/dd2/lua_8h.html#aa6aba1fd89ac6f1c5ccfdfd12f826d80" target="_top" xlink:title="lua_callk">
<polygon fill="none" stroke="black" points="315.5,-366.5 315.5,-385.5 368.5,-385.5 368.5,-366.5 315.5,-366.5"/>
<text text-anchor="middle" x="342" y="-373.5" font-family="Helvetica,sans-Serif" font-size="10.00">lua_callk</text>
</a>
</g>
</g>
<!-- Node3&#45;&gt;Node40 -->
<g id="edge54" class="edge"><title>Node3&#45;&gt;Node40</title>
<path fill="none" stroke="midnightblue" d="M245.882,-692.432C264.884,-629.217 324.196,-431.902 338.074,-385.733"/>
<polygon fill="midnightblue" stroke="midnightblue" points="242.441,-691.722 242.914,-702.307 249.144,-693.737 242.441,-691.722"/>
</g>
<!-- Node42 -->
<g id="node42" class="node"><title>Node42</title>
<g id="a_node42"><a xlink:href="../../db/d46/ldebug_8h.html#acd5ef9f67a8e9d08f6540636fdbeafe6" target="_top" xlink:title="luaG_errormsg">
<polygon fill="none" stroke="black" points="303,-579.5 303,-598.5 381,-598.5 381,-579.5 303,-579.5"/>
<text text-anchor="middle" x="342" y="-586.5" font-family="Helvetica,sans-Serif" font-size="10.00">luaG_errormsg</text>
</a>
</g>
</g>
<!-- Node3&#45;&gt;Node42 -->
<g id="edge57" class="edge"><title>Node3&#45;&gt;Node42</title>
<path fill="none" stroke="midnightblue" d="M254.502,-694.339C276.151,-667.974 316.182,-619.224 333.112,-598.607"/>
<polygon fill="midnightblue" stroke="midnightblue" points="251.566,-692.399 247.925,-702.348 256.976,-696.841 251.566,-692.399"/>
</g>
<!-- Node5 -->
<g id="node5" class="node"><title>Node5</title>
<g id="a_node5"><a xlink:href="../../d5/dcd/lvm_8h.html#adacdbccc9d8fab937a1b0dc058c8da12" target="_top" xlink:title="luaV_gettable">
<polygon fill="none" stroke="black" points="690.5,-968.5 690.5,-987.5 765.5,-987.5 765.5,-968.5 690.5,-968.5"/>
<text text-anchor="middle" x="728" y="-975.5" font-family="Helvetica,sans-Serif" font-size="10.00">luaV_gettable</text>
</a>
</g>
</g>
<!-- Node4&#45;&gt;Node5 -->
<g id="edge4" class="edge"><title>Node4&#45;&gt;Node5</title>
<path fill="none" stroke="midnightblue" d="M368.699,-973.388C404.738,-992.551 472.96,-1025.18 536,-1035 583.867,-1042.46 598.773,-1049.49 645,-1035 674.779,-1025.67 703.221,-1001.28 717.484,-987.62"/>
<polygon fill="midnightblue" stroke="midnightblue" points="370.297,-970.273 359.836,-968.599 366.97,-976.432 370.297,-970.273"/>
</g>
<!-- Node9 -->
<g id="node9" class="node"><title>Node9</title>
<g id="a_node9"><a xlink:href="../../d5/dcd/lvm_8h.html#a5885d48fd66eb236f8b8f6e4938cbcce" target="_top" xlink:title="luaV_settable">
<polygon fill="none" stroke="black" points="690.5,-778.5 690.5,-797.5 765.5,-797.5 765.5,-778.5 690.5,-778.5"/>
<text text-anchor="middle" x="728" y="-785.5" font-family="Helvetica,sans-Serif" font-size="10.00">luaV_settable</text>
</a>
</g>
</g>
<!-- Node4&#45;&gt;Node9 -->
<g id="edge9" class="edge"><title>Node4&#45;&gt;Node9</title>
<path fill="none" stroke="midnightblue" d="M367.253,-944.122C381.312,-936.126 399.623,-926.754 417,-921 514.523,-888.706 555.439,-933.324 645,-883 682.229,-862.081 710.518,-817.507 721.733,-797.762"/>
<polygon fill="midnightblue" stroke="midnightblue" points="365.13,-941.309 358.263,-949.377 368.662,-947.353 365.13,-941.309"/>
</g>
<!-- Node13 -->
<g id="node13" class="node"><title>Node13</title>
<g id="a_node13"><a xlink:href="../../dd/d4a/lvm_8c.html#a5f9dd797eb313b8e117cb20546276732" target="_top" xlink:title="call_binTM">
<polygon fill="none" stroke="black" points="427.5,-968.5 427.5,-987.5 489.5,-987.5 489.5,-968.5 427.5,-968.5"/>
<text text-anchor="middle" x="458.5" y="-975.5" font-family="Helvetica,sans-Serif" font-size="10.00">call_binTM</text>
</a>
</g>
</g>
<!-- Node4&#45;&gt;Node13 -->
<g id="edge14" class="edge"><title>Node4&#45;&gt;Node13</title>
<path fill="none" stroke="midnightblue" d="M374.219,-964.18C390.685,-966.913 410.803,-970.251 427.14,-972.962"/>
<polygon fill="midnightblue" stroke="midnightblue" points="374.439,-960.669 364.001,-962.485 373.293,-967.575 374.439,-960.669"/>
</g>
<!-- Node24 -->
<g id="node24" class="node"><title>Node24</title>
<g id="a_node24"><a xlink:href="../../d5/dcd/lvm_8h.html#a414b4b487239935324f2f16e1e7715db" target="_top" xlink:title="luaV_objlen">
<polygon fill="none" stroke="black" points="694.5,-1082.5 694.5,-1101.5 761.5,-1101.5 761.5,-1082.5 694.5,-1082.5"/>
<text text-anchor="middle" x="728" y="-1089.5" font-family="Helvetica,sans-Serif" font-size="10.00">luaV_objlen</text>
</a>
</g>
</g>
<!-- Node4&#45;&gt;Node24 -->
<g id="edge45" class="edge"><title>Node4&#45;&gt;Node24</title>
<path fill="none" stroke="midnightblue" d="M357.799,-976.385C371.605,-991.488 393.548,-1012.8 417,-1025 509.81,-1073.28 635.616,-1086.8 694.316,-1090.56"/>
<polygon fill="midnightblue" stroke="midnightblue" points="360.263,-973.889 351.008,-968.731 355.026,-978.535 360.263,-973.889"/>
</g>
<!-- Node31 -->
<g id="node31" class="node"><title>Node31</title>
<g id="a_node31"><a xlink:href="../../d5/dcd/lvm_8h.html#ab77cced08254efde4e5dfb28b37a7f31" target="_top" xlink:title="luaV_equalobj_">
<polygon fill="none" stroke="black" points="417,-930.5 417,-949.5 500,-949.5 500,-930.5 417,-930.5"/>
<text text-anchor="middle" x="458.5" y="-937.5" font-family="Helvetica,sans-Serif" font-size="10.00">luaV_equalobj_</text>
</a>
</g>
</g>
<!-- Node4&#45;&gt;Node31 -->
<g id="edge44" class="edge"><title>Node4&#45;&gt;Node31</title>
<path fill="none" stroke="midnightblue" d="M373.968,-953.861C387.119,-951.679 402.632,-949.105 416.698,-946.771"/>
<polygon fill="midnightblue" stroke="midnightblue" points="373.293,-950.425 364.001,-955.515 374.439,-957.331 373.293,-950.425"/>
</g>
<!-- Node5&#45;&gt;Node2 -->
<g id="edge8" class="edge"><title>Node5&#45;&gt;Node2</title>
<path fill="none" stroke="midnightblue" d="M711.301,-994.839C672.616,-1034.41 567.939,-1130 459.5,-1130 341,-1130 341,-1130 341,-1130 160.87,-1130 141.325,-802.306 139.244,-740.863"/>
<polygon fill="midnightblue" stroke="midnightblue" points="713.938,-997.147 718.337,-987.508 708.888,-992.3 713.938,-997.147"/>
</g>
<!-- Node6 -->
<g id="node6" class="node"><title>Node6</title>
<g id="a_node6"><a xlink:href="../../da/dd2/lua_8h.html#a2b4a9010af0545ae0f822d7f081370d0" target="_top" xlink:title="lua_getglobal">
<polygon fill="none" stroke="red" points="811,-1006.5 811,-1025.5 884,-1025.5 884,-1006.5 811,-1006.5"/>
<text text-anchor="middle" x="847.5" y="-1013.5" font-family="Helvetica,sans-Serif" font-size="10.00">lua_getglobal</text>
</a>
</g>
</g>
<!-- Node5&#45;&gt;Node6 -->
<g id="edge5" class="edge"><title>Node5&#45;&gt;Node6</title>
<path fill="none" stroke="midnightblue" d="M768.209,-990.68C784.085,-995.815 802.11,-1001.64 816.859,-1006.41"/>
<polygon fill="midnightblue" stroke="midnightblue" points="769.242,-987.336 758.65,-987.589 767.088,-993.996 769.242,-987.336"/>
</g>
<!-- Node7 -->
<g id="node7" class="node"><title>Node7</title>
<g id="a_node7"><a xlink:href="../../da/dd2/lua_8h.html#a8d82fa181a3003e9a304040c0bbed9ac" target="_top" xlink:title="lua_gettable">
<polygon fill="none" stroke="red" points="813.5,-968.5 813.5,-987.5 881.5,-987.5 881.5,-968.5 813.5,-968.5"/>
<text text-anchor="middle" x="847.5" y="-975.5" font-family="Helvetica,sans-Serif" font-size="10.00">lua_gettable</text>
</a>
</g>
</g>
<!-- Node5&#45;&gt;Node7 -->
<g id="edge6" class="edge"><title>Node5&#45;&gt;Node7</title>
<path fill="none" stroke="midnightblue" d="M775.808,-978C788.312,-978 801.571,-978 813.185,-978"/>
<polygon fill="midnightblue" stroke="midnightblue" points="775.534,-974.5 765.534,-978 775.534,-981.5 775.534,-974.5"/>
</g>
<!-- Node8 -->
<g id="node8" class="node"><title>Node8</title>
<g id="a_node8"><a xlink:href="../../da/dd2/lua_8h.html#ac3112bb28ba217adc46f13da8e9e6585" target="_top" xlink:title="lua_getfield">
<polygon fill="none" stroke="red" points="816,-930.5 816,-949.5 879,-949.5 879,-930.5 816,-930.5"/>
<text text-anchor="middle" x="847.5" y="-937.5" font-family="Helvetica,sans-Serif" font-size="10.00">lua_getfield</text>
</a>
</g>
</g>
<!-- Node5&#45;&gt;Node8 -->
<g id="edge7" class="edge"><title>Node5&#45;&gt;Node8</title>
<path fill="none" stroke="midnightblue" d="M768.209,-965.32C784.085,-960.185 802.11,-954.356 816.859,-949.586"/>
<polygon fill="midnightblue" stroke="midnightblue" points="767.088,-962.004 758.65,-968.411 769.242,-968.664 767.088,-962.004"/>
</g>
<!-- Node9&#45;&gt;Node2 -->
<g id="edge13" class="edge"><title>Node9&#45;&gt;Node2</title>
<path fill="none" stroke="midnightblue" d="M680.037,-788C626.62,-788 536.781,-788 459.5,-788 341,-788 341,-788 341,-788 271.948,-788 194.44,-756.767 158.832,-740.541"/>
<polygon fill="midnightblue" stroke="midnightblue" points="680.221,-791.5 690.221,-788 680.221,-784.5 680.221,-791.5"/>
</g>
<!-- Node10 -->
<g id="node10" class="node"><title>Node10</title>
<g id="a_node10"><a xlink:href="../../da/dd2/lua_8h.html#ac0ebe7d753b81f6249dde8cf0b8ea997" target="_top" xlink:title="lua_setglobal">
<polygon fill="none" stroke="red" points="811,-816.5 811,-835.5 884,-835.5 884,-816.5 811,-816.5"/>
<text text-anchor="middle" x="847.5" y="-823.5" font-family="Helvetica,sans-Serif" font-size="10.00">lua_setglobal</text>
</a>
</g>
</g>
<!-- Node9&#45;&gt;Node10 -->
<g id="edge10" class="edge"><title>Node9&#45;&gt;Node10</title>
<path fill="none" stroke="midnightblue" d="M768.209,-800.68C784.085,-805.815 802.11,-811.644 816.859,-816.414"/>
<polygon fill="midnightblue" stroke="midnightblue" points="769.242,-797.336 758.65,-797.589 767.088,-803.996 769.242,-797.336"/>
</g>
<!-- Node11 -->
<g id="node11" class="node"><title>Node11</title>
<g id="a_node11"><a xlink:href="../../da/dd2/lua_8h.html#aeda173d104e3a566ccaac89a1f64a5eb" target="_top" xlink:title="lua_settable">
<polygon fill="none" stroke="red" points="813.5,-778.5 813.5,-797.5 881.5,-797.5 881.5,-778.5 813.5,-778.5"/>
<text text-anchor="middle" x="847.5" y="-785.5" font-family="Helvetica,sans-Serif" font-size="10.00">lua_settable</text>
</a>
</g>
</g>
<!-- Node9&#45;&gt;Node11 -->
<g id="edge11" class="edge"><title>Node9&#45;&gt;Node11</title>
<path fill="none" stroke="midnightblue" d="M775.808,-788C788.312,-788 801.571,-788 813.185,-788"/>
<polygon fill="midnightblue" stroke="midnightblue" points="775.534,-784.5 765.534,-788 775.534,-791.5 775.534,-784.5"/>
</g>
<!-- Node12 -->
<g id="node12" class="node"><title>Node12</title>
<g id="a_node12"><a xlink:href="../../da/dd2/lua_8h.html#a9580a15c141cbe4bf2a63fea625c3878" target="_top" xlink:title="lua_setfield">
<polygon fill="none" stroke="red" points="816,-740.5 816,-759.5 879,-759.5 879,-740.5 816,-740.5"/>
<text text-anchor="middle" x="847.5" y="-747.5" font-family="Helvetica,sans-Serif" font-size="10.00">lua_setfield</text>
</a>
</g>
</g>
<!-- Node9&#45;&gt;Node12 -->
<g id="edge12" class="edge"><title>Node9&#45;&gt;Node12</title>
<path fill="none" stroke="midnightblue" d="M768.209,-775.32C784.085,-770.185 802.11,-764.356 816.859,-759.586"/>
<polygon fill="midnightblue" stroke="midnightblue" points="767.088,-772.004 758.65,-778.411 769.242,-778.664 767.088,-772.004"/>
</g>
<!-- Node14 -->
<g id="node14" class="node"><title>Node14</title>
<g id="a_node14"><a xlink:href="../../dd/d4a/lvm_8c.html#a1d1301ff4a771ce4198673dd113d10a5" target="_top" xlink:title="call_orderTM">
<polygon fill="none" stroke="red" points="556,-968.5 556,-987.5 625,-987.5 625,-968.5 556,-968.5"/>
<text text-anchor="middle" x="590.5" y="-975.5" font-family="Helvetica,sans-Serif" font-size="10.00">call_orderTM</text>
</a>
</g>
</g>
<!-- Node13&#45;&gt;Node14 -->
<g id="edge15" class="edge"><title>Node13&#45;&gt;Node14</title>
<path fill="none" stroke="midnightblue" d="M499.841,-978C517.814,-978 538.74,-978 555.853,-978"/>
<polygon fill="midnightblue" stroke="midnightblue" points="499.651,-974.5 489.651,-978 499.651,-981.5 499.651,-974.5"/>
</g>
<!-- Node15 -->
<g id="node15" class="node"><title>Node15</title>
<g id="a_node15"><a xlink:href="../../d5/dcd/lvm_8h.html#aee84bfc563cb4bdd21a013218a289aa7" target="_top" xlink:title="luaV_concat">
<polygon fill="none" stroke="red" points="556,-740.5 556,-759.5 625,-759.5 625,-740.5 556,-740.5"/>
<text text-anchor="middle" x="590.5" y="-747.5" font-family="Helvetica,sans-Serif" font-size="10.00">luaV_concat</text>
</a>
</g>
</g>
<!-- Node13&#45;&gt;Node15 -->
<g id="edge16" class="edge"><title>Node13&#45;&gt;Node15</title>
<path fill="none" stroke="midnightblue" d="M496.8,-962.403C497.947,-961.339 499.02,-960.206 500,-959 543.78,-905.12 503.135,-868.152 536,-807 546.408,-787.633 565.068,-769.952 577.368,-759.578"/>
<polygon fill="midnightblue" stroke="midnightblue" points="494.443,-959.788 488.382,-968.479 498.539,-965.464 494.443,-959.788"/>
</g>
<!-- Node30 -->
<g id="node30" class="node"><title>Node30</title>
<g id="a_node30"><a xlink:href="../../d5/dcd/lvm_8h.html#a275e261afaec876cd16944b95c955642" target="_top" xlink:title="luaV_arith">
<polygon fill="none" stroke="red" points="561,-1006.5 561,-1025.5 620,-1025.5 620,-1006.5 561,-1006.5"/>
<text text-anchor="middle" x="590.5" y="-1013.5" font-family="Helvetica,sans-Serif" font-size="10.00">luaV_arith</text>
</a>
</g>
</g>
<!-- Node13&#45;&gt;Node30 -->
<g id="edge42" class="edge"><title>Node13&#45;&gt;Node30</title>
<path fill="none" stroke="midnightblue" d="M499.359,-989.651C519.225,-995.458 542.795,-1002.35 560.85,-1007.63"/>
<polygon fill="midnightblue" stroke="midnightblue" points="500.232,-986.26 489.651,-986.813 498.268,-992.979 500.232,-986.26"/>
</g>
<!-- Node15&#45;&gt;Node2 -->
<g id="edge41" class="edge"><title>Node15&#45;&gt;Node2</title>
<path fill="none" stroke="midnightblue" d="M545.682,-748.152C456.851,-744.405 257.048,-735.979 175.105,-732.523"/>
<polygon fill="midnightblue" stroke="midnightblue" points="545.558,-751.65 555.697,-748.574 545.853,-744.656 545.558,-751.65"/>
</g>
<!-- Node16 -->
<g id="node16" class="node"><title>Node16</title>
<g id="a_node16"><a xlink:href="../../d2/d51/lobject_8h.html#a0d323372aa00f179e1c070d305f879f3" target="_top" xlink:title="luaO_pushvfstring">
<polygon fill="none" stroke="red" points="681,-579.5 681,-598.5 775,-598.5 775,-579.5 681,-579.5"/>
<text text-anchor="middle" x="728" y="-586.5" font-family="Helvetica,sans-Serif" font-size="10.00">luaO_pushvfstring</text>
</a>
</g>
</g>
<!-- Node15&#45;&gt;Node16 -->
<g id="edge17" class="edge"><title>Node15&#45;&gt;Node16</title>
<path fill="none" stroke="midnightblue" d="M608.389,-732.788C619.122,-721.66 633.173,-706.74 645,-693 673.949,-659.367 705.855,-617.335 719.806,-598.685"/>
<polygon fill="midnightblue" stroke="midnightblue" points="605.695,-730.538 601.238,-740.15 610.716,-735.415 605.695,-730.538"/>
</g>
<!-- Node17 -->
<g id="node17" class="node"><title>Node17</title>
<g id="a_node17"><a xlink:href="../../db/d46/ldebug_8h.html#a6f27f64630215e18a11be9ba21d3c4bf" target="_top" xlink:title="luaG_runerror">
<polygon fill="none" stroke="black" points="422,-579.5 422,-598.5 495,-598.5 495,-579.5 422,-579.5"/>
<text text-anchor="middle" x="458.5" y="-586.5" font-family="Helvetica,sans-Serif" font-size="10.00">luaG_runerror</text>
</a>
</g>
</g>
<!-- Node16&#45;&gt;Node17 -->
<g id="edge18" class="edge"><title>Node16&#45;&gt;Node17</title>
<path fill="none" stroke="midnightblue" d="M670.282,-594.636C617.279,-596.371 539.79,-596.079 495.022,-593.76"/>
<polygon fill="midnightblue" stroke="midnightblue" points="670.673,-598.124 680.539,-594.261 670.418,-591.128 670.673,-598.124"/>
</g>
<!-- Node17&#45;&gt;Node2 -->
<g id="edge37" class="edge"><title>Node17&#45;&gt;Node2</title>
<path fill="none" stroke="midnightblue" d="M423.048,-602.306C374.961,-621.154 285.265,-657.321 211,-693 192.017,-702.12 170.741,-713.497 156.271,-721.414"/>
<polygon fill="midnightblue" stroke="midnightblue" points="424.616,-605.451 432.657,-598.553 422.069,-598.931 424.616,-605.451"/>
</g>
<!-- Node17&#45;&gt;Node3 -->
<g id="edge22" class="edge"><title>Node17&#45;&gt;Node3</title>
<path fill="none" stroke="midnightblue" d="M440.484,-605.836C425.697,-619.8 403.219,-639.485 381,-653 343.819,-675.616 296.41,-693.469 267.136,-703.38"/>
<polygon fill="midnightblue" stroke="midnightblue" points="443.077,-608.198 447.856,-598.743 438.223,-603.154 443.077,-608.198"/>
</g>
<!-- Node17&#45;&gt;Node5 -->
<g id="edge38" class="edge"><title>Node17&#45;&gt;Node5</title>
<path fill="none" stroke="midnightblue" d="M468.684,-607.655C480.981,-630.808 504.9,-670.037 536,-693 577.272,-723.474 608.994,-694.453 645,-731 662.758,-749.025 712.221,-924.616 724.309,-968.232"/>
<polygon fill="midnightblue" stroke="midnightblue" points="471.684,-605.834 464.003,-598.537 465.457,-609.031 471.684,-605.834"/>
</g>
<!-- Node17&#45;&gt;Node9 -->
<g id="edge39" class="edge"><title>Node17&#45;&gt;Node9</title>
<path fill="none" stroke="midnightblue" d="M499.696,-601.729C550.663,-618.109 633.351,-645.579 645,-655 688.237,-689.969 714.81,-754.219 723.681,-778.431"/>
<polygon fill="midnightblue" stroke="midnightblue" points="500.547,-598.326 489.956,-598.609 498.412,-604.993 500.547,-598.326"/>
</g>
<!-- Node17&#45;&gt;Node15 -->
<g id="edge36" class="edge"><title>Node17&#45;&gt;Node15</title>
<path fill="none" stroke="midnightblue" d="M465.855,-608.436C476.256,-637.529 499.486,-692.551 536,-726 542.681,-732.12 551.183,-736.885 559.432,-740.498"/>
<polygon fill="midnightblue" stroke="midnightblue" points="469.054,-606.975 462.496,-598.654 462.433,-609.249 469.054,-606.975"/>
</g>
<!-- Node17&#45;&gt;Node16 -->
<g id="edge35" class="edge"><title>Node17&#45;&gt;Node16</title>
<path fill="none" stroke="midnightblue" d="M505.315,-583.765C554.242,-581.754 631.364,-581.745 680.539,-583.739"/>
<polygon fill="midnightblue" stroke="midnightblue" points="504.85,-580.283 495.022,-584.24 505.173,-587.275 504.85,-580.283"/>
</g>
<!-- Node18 -->
<g id="node18" class="node"><title>Node18</title>
<g id="a_node18"><a xlink:href="../../dc/d1e/ltable_8c.html#a4c78714b16a133fb409681f8ca4240be" target="_top" xlink:title="findindex">
<polygon fill="none" stroke="red" points="564,-532.5 564,-551.5 617,-551.5 617,-532.5 564,-532.5"/>
<text text-anchor="middle" x="590.5" y="-539.5" font-family="Helvetica,sans-Serif" font-size="10.00">findindex</text>
</a>
</g>
</g>
<!-- Node17&#45;&gt;Node18 -->
<g id="edge19" class="edge"><title>Node17&#45;&gt;Node18</title>
<path fill="none" stroke="midnightblue" d="M495.33,-576.046C516.994,-568.214 544.111,-558.41 563.675,-551.337"/>
<polygon fill="midnightblue" stroke="midnightblue" points="494.022,-572.797 485.807,-579.489 496.402,-579.38 494.022,-572.797"/>
</g>
<!-- Node19 -->
<g id="node19" class="node"><title>Node19</title>
<g id="a_node19"><a xlink:href="../../da/dd2/lua_8h.html#a77807056ba032d64b2def2b57dc53d53" target="_top" xlink:title="lua_pushnumber">
<polygon fill="none" stroke="red" points="546.5,-494.5 546.5,-513.5 634.5,-513.5 634.5,-494.5 546.5,-494.5"/>
<text text-anchor="middle" x="590.5" y="-501.5" font-family="Helvetica,sans-Serif" font-size="10.00">lua_pushnumber</text>
</a>
</g>
</g>
<!-- Node17&#45;&gt;Node19 -->
<g id="edge20" class="edge"><title>Node17&#45;&gt;Node19</title>
<path fill="none" stroke="midnightblue" d="M475.741,-571.77C490.339,-557.12 512.968,-536.388 536,-523 542.306,-519.334 549.436,-516.2 556.388,-513.597"/>
<polygon fill="midnightblue" stroke="midnightblue" points="472.977,-569.593 468.506,-579.199 477.991,-574.477 472.977,-569.593"/>
</g>
<!-- Node20 -->
<g id="node20" class="node"><title>Node20</title>
<g id="a_node20"><a xlink:href="../../da/dd2/lua_8h.html#ab717ff0354e9c39199b16a1c412fa252" target="_top" xlink:title="lua_yieldk">
<polygon fill="none" stroke="black" points="561.5,-456.5 561.5,-475.5 619.5,-475.5 619.5,-456.5 561.5,-456.5"/>
<text text-anchor="middle" x="590.5" y="-463.5" font-family="Helvetica,sans-Serif" font-size="10.00">lua_yieldk</text>
</a>
</g>
</g>
<!-- Node17&#45;&gt;Node20 -->
<g id="edge21" class="edge"><title>Node17&#45;&gt;Node20</title>
<path fill="none" stroke="midnightblue" d="M468.706,-570.374C481.025,-547.251 504.967,-508.054 536,-485 543.438,-479.475 552.626,-475.446 561.278,-472.559"/>
<polygon fill="midnightblue" stroke="midnightblue" points="465.483,-568.987 464.015,-579.479 471.706,-572.193 465.483,-568.987"/>
</g>
<!-- Node21 -->
<g id="node21" class="node"><title>Node21</title>
<g id="a_node21"><a xlink:href="../../d2/dd9/ldo_8h.html#ab83418a7edbfafe87886f156aa6a9988" target="_top" xlink:title="luaD_growstack">
<polygon fill="none" stroke="red" points="547.5,-418.5 547.5,-437.5 633.5,-437.5 633.5,-418.5 547.5,-418.5"/>
<text text-anchor="middle" x="590.5" y="-425.5" font-family="Helvetica,sans-Serif" font-size="10.00">luaD_growstack</text>
</a>
</g>
</g>
<!-- Node17&#45;&gt;Node21 -->
<g id="edge23" class="edge"><title>Node17&#45;&gt;Node21</title>
<path fill="none" stroke="midnightblue" d="M465.052,-569.318C474.61,-538.888 497.003,-480.448 536,-447 540.489,-443.15 545.813,-440.061 551.333,-437.587"/>
<polygon fill="midnightblue" stroke="midnightblue" points="461.619,-568.579 462.104,-579.163 468.325,-570.587 461.619,-568.579"/>
</g>
<!-- Node22 -->
<g id="node22" class="node"><title>Node22</title>
<g id="a_node22"><a xlink:href="../../db/d46/ldebug_8h.html#a7ae9c3f6343c93b4a8bb80e68706a6a3" target="_top" xlink:title="luaG_ordererror">
<polygon fill="none" stroke="red" points="550.5,-380.5 550.5,-399.5 630.5,-399.5 630.5,-380.5 550.5,-380.5"/>
<text text-anchor="middle" x="590.5" y="-387.5" font-family="Helvetica,sans-Serif" font-size="10.00">luaG_ordererror</text>
</a>
</g>
</g>
<!-- Node17&#45;&gt;Node22 -->
<g id="edge24" class="edge"><title>Node17&#45;&gt;Node22</title>
<path fill="none" stroke="midnightblue" d="M462.539,-569.324C469.206,-532.693 488.494,-453.71 536,-409 540.163,-405.082 545.186,-401.964 550.465,-399.485"/>
<polygon fill="midnightblue" stroke="midnightblue" points="459.077,-568.804 460.857,-579.248 465.979,-569.973 459.077,-568.804"/>
</g>
<!-- Node23 -->
<g id="node23" class="node"><title>Node23</title>
<g id="a_node23"><a xlink:href="../../db/d46/ldebug_8h.html#a375161dd1513420561f20f0b4c7b7e66" target="_top" xlink:title="luaG_typeerror">
<polygon fill="none" stroke="red" points="551,-930.5 551,-949.5 630,-949.5 630,-930.5 551,-930.5"/>
<text text-anchor="middle" x="590.5" y="-937.5" font-family="Helvetica,sans-Serif" font-size="10.00">luaG_typeerror</text>
</a>
</g>
</g>
<!-- Node17&#45;&gt;Node23 -->
<g id="edge25" class="edge"><title>Node17&#45;&gt;Node23</title>
<path fill="none" stroke="midnightblue" d="M461.244,-608.705C466.284,-657.863 483.992,-788.731 536,-883 546.621,-902.251 565.224,-919.963 577.453,-930.375"/>
<polygon fill="midnightblue" stroke="midnightblue" points="464.705,-608.138 460.264,-598.518 457.737,-608.808 464.705,-608.138"/>
</g>
<!-- Node26 -->
<g id="node26" class="node"><title>Node26</title>
<g id="a_node26"><a xlink:href="../../d3/d44/ltable_8h.html#a61547e63b2d74aa68da53a7fd235e77e" target="_top" xlink:title="luaH_newkey">
<polygon fill="none" stroke="red" points="553,-664.5 553,-683.5 628,-683.5 628,-664.5 553,-664.5"/>
<text text-anchor="middle" x="590.5" y="-671.5" font-family="Helvetica,sans-Serif" font-size="10.00">luaH_newkey</text>
</a>
</g>
</g>
<!-- Node17&#45;&gt;Node26 -->
<g id="edge31" class="edge"><title>Node17&#45;&gt;Node26</title>
<path fill="none" stroke="midnightblue" d="M477.245,-605.29C492.169,-618.448 514.461,-636.871 536,-650 545.04,-655.51 555.565,-660.505 564.876,-664.492"/>
<polygon fill="midnightblue" stroke="midnightblue" points="479.548,-602.654 469.764,-598.589 474.878,-607.868 479.548,-602.654"/>
</g>
<!-- Node27 -->
<g id="node27" class="node"><title>Node27</title>
<g id="a_node27"><a xlink:href="../../d7/d3e/lmem_8h.html#a9adb7e11025b0b91454ae7949bc8d370" target="_top" xlink:title="luaM_growaux_">
<polygon fill="none" stroke="black" points="547.5,-342.5 547.5,-361.5 633.5,-361.5 633.5,-342.5 547.5,-342.5"/>
<text text-anchor="middle" x="590.5" y="-349.5" font-family="Helvetica,sans-Serif" font-size="10.00">luaM_growaux_</text>
</a>
</g>
</g>
<!-- Node17&#45;&gt;Node27 -->
<g id="edge33" class="edge"><title>Node17&#45;&gt;Node27</title>
<path fill="none" stroke="midnightblue" d="M460.878,-569.074C464.861,-526.761 479.989,-427.222 536,-371 539.896,-367.09 544.647,-363.981 549.693,-361.51"/>
<polygon fill="midnightblue" stroke="midnightblue" points="457.378,-568.937 460.041,-579.192 464.354,-569.515 457.378,-568.937"/>
</g>
<!-- Node28 -->
<g id="node28" class="node"><title>Node28</title>
<g id="a_node28"><a xlink:href="../../d7/d3e/lmem_8h.html#a23b8703b7b50e1c5dd37d41569a09a9a" target="_top" xlink:title="luaM_toobig">
<polygon fill="none" stroke="red" points="556.5,-304.5 556.5,-323.5 624.5,-323.5 624.5,-304.5 556.5,-304.5"/>
<text text-anchor="middle" x="590.5" y="-311.5" font-family="Helvetica,sans-Serif" font-size="10.00">luaM_toobig</text>
</a>
</g>
</g>
<!-- Node17&#45;&gt;Node28 -->
<g id="edge34" class="edge"><title>Node17&#45;&gt;Node28</title>
<path fill="none" stroke="midnightblue" d="M459.642,-569.249C461.059,-521.973 471.201,-401.182 536,-333 541.5,-327.213 548.876,-323.186 556.389,-320.384"/>
<polygon fill="midnightblue" stroke="midnightblue" points="456.141,-569.306 459.444,-579.373 463.139,-569.443 456.141,-569.306"/>
</g>
<!-- Node29 -->
<g id="node29" class="node"><title>Node29</title>
<g id="a_node29"><a xlink:href="../../dc/d1e/ltable_8c.html#ad5ff1c819f2ab4e96904822b915ae290" target="_top" xlink:title="setnodevector">
<polygon fill="none" stroke="red" points="553,-266.5 553,-285.5 628,-285.5 628,-266.5 553,-266.5"/>
<text text-anchor="middle" x="590.5" y="-273.5" font-family="Helvetica,sans-Serif" font-size="10.00">setnodevector</text>
</a>
</g>
</g>
<!-- Node17&#45;&gt;Node29 -->
<g id="edge40" class="edge"><title>Node17&#45;&gt;Node29</title>
<path fill="none" stroke="midnightblue" d="M458.717,-569.196C457.765,-517.191 462.437,-375.234 536,-295 540.596,-289.987 546.601,-286.296 552.922,-283.579"/>
<polygon fill="midnightblue" stroke="midnightblue" points="455.224,-569.488 459.003,-579.387 462.221,-569.293 455.224,-569.488"/>
</g>
<!-- Node23&#45;&gt;Node5 -->
<g id="edge26" class="edge"><title>Node23&#45;&gt;Node5</title>
<path fill="none" stroke="midnightblue" d="M635.425,-952.318C654.041,-957.539 675.409,-963.532 692.819,-968.414"/>
<polygon fill="midnightblue" stroke="midnightblue" points="636.266,-948.919 625.692,-949.589 634.376,-955.659 636.266,-948.919"/>
</g>
<!-- Node23&#45;&gt;Node9 -->
<g id="edge30" class="edge"><title>Node23&#45;&gt;Node9</title>
<path fill="none" stroke="midnightblue" d="M629.897,-926.099C635.282,-923.229 640.505,-919.875 645,-916 685.581,-881.023 713.365,-821.031 723.129,-797.69"/>
<polygon fill="midnightblue" stroke="midnightblue" points="628.279,-922.994 620.781,-930.479 631.31,-929.304 628.279,-922.994"/>
</g>
<!-- Node23&#45;&gt;Node24 -->
<g id="edge27" class="edge"><title>Node23&#45;&gt;Node24</title>
<path fill="none" stroke="midnightblue" d="M638.088,-954.225C640.521,-955.672 642.846,-957.259 645,-959 688.248,-993.957 714.814,-1058.21 723.683,-1082.43"/>
<polygon fill="midnightblue" stroke="midnightblue" points="639.42,-950.976 628.918,-949.578 636.256,-957.22 639.42,-950.976"/>
</g>
<!-- Node24&#45;&gt;Node2 -->
<g id="edge29" class="edge"><title>Node24&#45;&gt;Node2</title>
<path fill="none" stroke="midnightblue" d="M698.214,-1105.88C650.008,-1127.81 549.383,-1168 459.5,-1168 341,-1168 341,-1168 341,-1168 274.073,-1168 249.85,-1146.5 211,-1092 168.617,-1032.55 144.532,-791.619 139.847,-740.544"/>
<polygon fill="midnightblue" stroke="midnightblue" points="699.803,-1109 707.41,-1101.63 696.864,-1102.65 699.803,-1109"/>
</g>
<!-- Node25 -->
<g id="node25" class="node"><title>Node25</title>
<g id="a_node25"><a xlink:href="../../da/dd2/lua_8h.html#ac7ade66f92b5e325c42371926f879818" target="_top" xlink:title="lua_len">
<polygon fill="none" stroke="red" points="824,-1082.5 824,-1101.5 871,-1101.5 871,-1082.5 824,-1082.5"/>
<text text-anchor="middle" x="847.5" y="-1089.5" font-family="Helvetica,sans-Serif" font-size="10.00">lua_len</text>
</a>
</g>
</g>
<!-- Node24&#45;&gt;Node25 -->
<g id="edge28" class="edge"><title>Node24&#45;&gt;Node25</title>
<path fill="none" stroke="midnightblue" d="M771.836,-1092C789.498,-1092 809.236,-1092 823.98,-1092"/>
<polygon fill="midnightblue" stroke="midnightblue" points="771.73,-1088.5 761.73,-1092 771.73,-1095.5 771.73,-1088.5"/>
</g>
<!-- Node26&#45;&gt;Node9 -->
<g id="edge32" class="edge"><title>Node26&#45;&gt;Node9</title>
<path fill="none" stroke="midnightblue" d="M627.833,-687.849C633.805,-690.805 639.752,-694.199 645,-698 677.87,-721.805 707.56,-760.527 720.351,-778.401"/>
<polygon fill="midnightblue" stroke="midnightblue" points="629.07,-684.566 618.522,-683.571 626.148,-690.927 629.07,-684.566"/>
</g>
<!-- Node30&#45;&gt;Node2 -->
<g id="edge43" class="edge"><title>Node30&#45;&gt;Node2</title>
<path fill="none" stroke="midnightblue" d="M550.435,-1020.78C491.732,-1025.92 379.509,-1027.57 303,-978 207.963,-916.424 155.153,-778.266 142.179,-740.627"/>
<polygon fill="midnightblue" stroke="midnightblue" points="551.132,-1024.23 560.753,-1019.8 550.464,-1017.26 551.132,-1024.23"/>
</g>
<!-- Node33 -->
<g id="node33" class="node"><title>Node33</title>
<g id="a_node33"><a xlink:href="../../de/d27/lgc_8c.html#ab9ec6b56580b9e66f41743e393e7e033" target="_top" xlink:title="GCTM">
<polygon fill="none" stroke="black" points="435.5,-86.5 435.5,-105.5 481.5,-105.5 481.5,-86.5 435.5,-86.5"/>
<text text-anchor="middle" x="458.5" y="-93.5" font-family="Helvetica,sans-Serif" font-size="10.00">GCTM</text>
</a>
</g>
</g>
<!-- Node32&#45;&gt;Node33 -->
<g id="edge47" class="edge"><title>Node32&#45;&gt;Node33</title>
<path fill="none" stroke="midnightblue" d="M353.969,-231.562C367.692,-208.991 392.39,-169.952 417,-139 426.573,-126.959 438.833,-114.266 447.343,-105.819"/>
<polygon fill="midnightblue" stroke="midnightblue" points="350.794,-230.049 348.634,-240.422 356.791,-233.661 350.794,-230.049"/>
</g>
<!-- Node34 -->
<g id="node34" class="node"><title>Node34</title>
<g id="a_node34"><a xlink:href="../../de/d27/lgc_8c.html#a74f50e6006422d43686521fe765152dd" target="_top" xlink:title="callallpendingfinalizers">
<polygon fill="none" stroke="red" points="536,-38.5 536,-57.5 645,-57.5 645,-38.5 536,-38.5"/>
<text text-anchor="middle" x="590.5" y="-45.5" font-family="Helvetica,sans-Serif" font-size="10.00">callallpendingfinalizers</text>
</a>
</g>
</g>
<!-- Node33&#45;&gt;Node34 -->
<g id="edge48" class="edge"><title>Node33&#45;&gt;Node34</title>
<path fill="none" stroke="midnightblue" d="M491.063,-83.8637C504.838,-78.6115 521.193,-72.435 536,-67 544.513,-63.8753 553.816,-60.5426 562.243,-57.555"/>
<polygon fill="midnightblue" stroke="midnightblue" points="489.64,-80.6608 481.548,-87.5008 492.139,-87.1994 489.64,-80.6608"/>
</g>
<!-- Node35 -->
<g id="node35" class="node"><title>Node35</title>
<g id="a_node35"><a xlink:href="../../dc/d9c/lgc_8h.html#a19359957605d7c8eaf70803e5b77361f" target="_top" xlink:title="luaC_forcestep">
<polygon fill="none" stroke="red" points="550.5,-76.5 550.5,-95.5 630.5,-95.5 630.5,-76.5 550.5,-76.5"/>
<text text-anchor="middle" x="590.5" y="-83.5" font-family="Helvetica,sans-Serif" font-size="10.00">luaC_forcestep</text>
</a>
</g>
</g>
<!-- Node33&#45;&gt;Node35 -->
<g id="edge49" class="edge"><title>Node33&#45;&gt;Node35</title>
<path fill="none" stroke="midnightblue" d="M491.716,-93.5219C509.499,-92.1539 531.717,-90.4448 550.479,-89.0016"/>
<polygon fill="midnightblue" stroke="midnightblue" points="491.255,-90.0469 481.553,-94.3036 491.792,-97.0263 491.255,-90.0469"/>
</g>
<!-- Node36&#45;&gt;Node37 -->
<g id="edge51" class="edge"><title>Node36&#45;&gt;Node37</title>
<path fill="none" stroke="midnightblue" d="M371.312,-859.302C388.797,-856.401 411.168,-852.688 428.736,-849.773"/>
<polygon fill="midnightblue" stroke="midnightblue" points="370.435,-855.9 361.143,-860.989 371.581,-862.805 370.435,-855.9"/>
</g>
<!-- Node38 -->
<g id="node38" class="node"><title>Node38</title>
<g id="a_node38"><a xlink:href="../../d8/dd3/lbaselib_8c.html#a1fb2725eed679431d070b2e9e7abc223" target="_top" xlink:title="luaB_pcall">
<polygon fill="none" stroke="black" points="560,-816.5 560,-835.5 621,-835.5 621,-816.5 560,-816.5"/>
<text text-anchor="middle" x="590.5" y="-823.5" font-family="Helvetica,sans-Serif" font-size="10.00">luaB_pcall</text>
</a>
</g>
</g>
<!-- Node37&#45;&gt;Node38 -->
<g id="edge52" class="edge"><title>Node37&#45;&gt;Node38</title>
<path fill="none" stroke="midnightblue" d="M497.939,-839.382C517.673,-836.498 541.35,-833.037 559.683,-830.358"/>
<polygon fill="midnightblue" stroke="midnightblue" points="497.418,-835.921 488.029,-840.83 498.43,-842.847 497.418,-835.921"/>
</g>
<!-- Node39 -->
<g id="node39" class="node"><title>Node39</title>
<g id="a_node39"><a xlink:href="../../d8/dd3/lbaselib_8c.html#a5fbb0094fa1a56f0a4c2547f1ec4c5ab" target="_top" xlink:title="luaB_xpcall">
<polygon fill="none" stroke="black" points="557.5,-854.5 557.5,-873.5 623.5,-873.5 623.5,-854.5 557.5,-854.5"/>
<text text-anchor="middle" x="590.5" y="-861.5" font-family="Helvetica,sans-Serif" font-size="10.00">luaB_xpcall</text>
</a>
</g>
</g>
<!-- Node37&#45;&gt;Node39 -->
<g id="edge53" class="edge"><title>Node37&#45;&gt;Node39</title>
<path fill="none" stroke="midnightblue" d="M498.1,-850.642C516.984,-853.402 539.45,-856.685 557.382,-859.306"/>
<polygon fill="midnightblue" stroke="midnightblue" points="498.43,-847.153 488.029,-849.17 497.418,-854.079 498.43,-847.153"/>
</g>
<!-- Node41 -->
<g id="node41" class="node"><title>Node41</title>
<g id="a_node41"><a xlink:href="../../d8/dd3/lbaselib_8c.html#a86a4e35d9c9ad4661a0dbbac3758c049" target="_top" xlink:title="luaB_dofile">
<polygon fill="none" stroke="black" points="559.5,-114.5 559.5,-133.5 621.5,-133.5 621.5,-114.5 559.5,-114.5"/>
<text text-anchor="middle" x="590.5" y="-121.5" font-family="Helvetica,sans-Serif" font-size="10.00">luaB_dofile</text>
</a>
</g>
</g>
<!-- Node40&#45;&gt;Node41 -->
<g id="edge55" class="edge"><title>Node40&#45;&gt;Node41</title>
<path fill="none" stroke="midnightblue" d="M349.736,-356.961C366.707,-309.173 410.348,-187.498 417,-181 456.145,-142.761 521.464,-130.172 559.498,-126.03"/>
<polygon fill="midnightblue" stroke="midnightblue" points="346.413,-355.859 346.37,-366.454 353.011,-358.198 346.413,-355.859"/>
</g>
<!-- Node42&#45;&gt;Node17 -->
<g id="edge63" class="edge"><title>Node42&#45;&gt;Node17</title>
<path fill="none" stroke="midnightblue" d="M391.217,-589C401.49,-589 412.161,-589 421.862,-589"/>
<polygon fill="midnightblue" stroke="midnightblue" points="391.127,-585.5 381.127,-589 391.127,-592.5 391.127,-585.5"/>
</g>
<!-- Node43 -->
<g id="node43" class="node"><title>Node43</title>
<g id="a_node43"><a xlink:href="../../da/dd2/lua_8h.html#aae6c05ddea7bd110a3e84595ef92e601" target="_top" xlink:title="lua_error">
<polygon fill="none" stroke="black" points="432.5,-190.5 432.5,-209.5 484.5,-209.5 484.5,-190.5 432.5,-190.5"/>
<text text-anchor="middle" x="458.5" y="-197.5" font-family="Helvetica,sans-Serif" font-size="10.00">lua_error</text>
</a>
</g>
</g>
<!-- Node42&#45;&gt;Node43 -->
<g id="edge58" class="edge"><title>Node42&#45;&gt;Node43</title>
<path fill="none" stroke="midnightblue" d="M348.697,-569.644C369.321,-499.578 439.653,-260.632 454.666,-209.628"/>
<polygon fill="midnightblue" stroke="midnightblue" points="345.297,-568.803 345.83,-579.384 352.012,-570.779 345.297,-568.803"/>
</g>
<!-- Node43&#45;&gt;Node41 -->
<g id="edge61" class="edge"><title>Node43&#45;&gt;Node41</title>
<path fill="none" stroke="midnightblue" d="M480.155,-184.5C495.201,-173.577 516.31,-158.997 536,-148 545.51,-142.689 556.416,-137.625 565.891,-133.529"/>
<polygon fill="midnightblue" stroke="midnightblue" points="478.039,-181.712 472.054,-190.454 482.185,-187.352 478.039,-181.712"/>
</g>
<!-- Node44 -->
<g id="node44" class="node"><title>Node44</title>
<g id="a_node44"><a xlink:href="../../da/d29/lauxlib_8h.html#a994f73d7985c30672469a260d9e86ae6" target="_top" xlink:title="luaL_error">
<polygon fill="none" stroke="red" points="562,-190.5 562,-209.5 619,-209.5 619,-190.5 562,-190.5"/>
<text text-anchor="middle" x="590.5" y="-197.5" font-family="Helvetica,sans-Serif" font-size="10.00">luaL_error</text>
</a>
</g>
</g>
<!-- Node43&#45;&gt;Node44 -->
<g id="edge59" class="edge"><title>Node43&#45;&gt;Node44</title>
<path fill="none" stroke="midnightblue" d="M494.736,-200C515.819,-200 542.23,-200 561.811,-200"/>
<polygon fill="midnightblue" stroke="midnightblue" points="494.565,-196.5 484.565,-200 494.565,-203.5 494.565,-196.5"/>
</g>
<!-- Node45 -->
<g id="node45" class="node"><title>Node45</title>
<g id="a_node45"><a xlink:href="../../d8/dd3/lbaselib_8c.html#a2ecfa987569d0b4c1063f3e204e42dd2" target="_top" xlink:title="luaB_error">
<polygon fill="none" stroke="black" points="561,-228.5 561,-247.5 620,-247.5 620,-228.5 561,-228.5"/>
<text text-anchor="middle" x="590.5" y="-235.5" font-family="Helvetica,sans-Serif" font-size="10.00">luaB_error</text>
</a>
</g>
</g>
<!-- Node43&#45;&gt;Node45 -->
<g id="edge60" class="edge"><title>Node43&#45;&gt;Node45</title>
<path fill="none" stroke="midnightblue" d="M494.31,-210.175C515.134,-216.262 541.274,-223.903 560.891,-229.637"/>
<polygon fill="midnightblue" stroke="midnightblue" points="495.146,-206.773 484.565,-207.327 493.182,-213.492 495.146,-206.773"/>
</g>
<!-- Node46 -->
<g id="node46" class="node"><title>Node46</title>
<g id="a_node46"><a xlink:href="../../df/d2d/lcorolib_8c.html#a777abb20385a69ce4787f72bd90375a7" target="_top" xlink:title="luaB_auxwrap">
<polygon fill="none" stroke="red" points="688,-76.5 688,-95.5 768,-95.5 768,-76.5 688,-76.5"/>
<text text-anchor="middle" x="728" y="-83.5" font-family="Helvetica,sans-Serif" font-size="10.00">luaB_auxwrap</text>
</a>
</g>
</g>
<!-- Node43&#45;&gt;Node46 -->
<g id="edge62" class="edge"><title>Node43&#45;&gt;Node46</title>
<path fill="none" stroke="midnightblue" d="M494.575,-190.617C540.504,-178.092 618.313,-155.983 645,-143 672.284,-129.727 700.584,-107.964 715.761,-95.5217"/>
<polygon fill="midnightblue" stroke="midnightblue" points="493.472,-187.29 484.738,-193.286 495.305,-194.046 493.472,-187.29"/>
</g>
<!-- Node48 -->
<g id="node48" class="node"><title>Node48</title>
<g id="a_node48"><a xlink:href="../../da/dd2/lua_8h.html#a434479f022eda738b99000aad5ddd929" target="_top" xlink:title="lua_resume">
<polygon fill="none" stroke="black" points="426,-48.5 426,-67.5 491,-67.5 491,-48.5 426,-48.5"/>
<text text-anchor="middle" x="458.5" y="-55.5" font-family="Helvetica,sans-Serif" font-size="10.00">lua_resume</text>
</a>
</g>
</g>
<!-- Node47&#45;&gt;Node48 -->
<g id="edge66" class="edge"><title>Node47&#45;&gt;Node48</title>
<path fill="none" stroke="midnightblue" d="M266.98,-153.743C301.554,-135.563 363.427,-103.327 417,-77 423.413,-73.8486 430.447,-70.5084 436.828,-67.5221"/>
<polygon fill="midnightblue" stroke="midnightblue" points="265.199,-150.725 257.982,-158.482 268.461,-156.919 265.199,-150.725"/>
</g>
<!-- Node47&#45;&gt;Node50 -->
<g id="edge69" class="edge"><title>Node47&#45;&gt;Node50</title>
<path fill="none" stroke="midnightblue" d="M268.279,-168C284.021,-168 303.36,-168 318.137,-168"/>
<polygon fill="midnightblue" stroke="midnightblue" points="268.057,-164.5 258.057,-168 268.057,-171.5 268.057,-164.5"/>
</g>
<!-- Node49 -->
<g id="node49" class="node"><title>Node49</title>
<g id="a_node49"><a xlink:href="../../df/d2d/lcorolib_8c.html#aaa37b3a30ab0c6daef7fae8951fef3e7" target="_top" xlink:title="auxresume">
<polygon fill="none" stroke="red" points="558.5,-0.5 558.5,-19.5 622.5,-19.5 622.5,-0.5 558.5,-0.5"/>
<text text-anchor="middle" x="590.5" y="-7.5" font-family="Helvetica,sans-Serif" font-size="10.00">auxresume</text>
</a>
</g>
</g>
<!-- Node48&#45;&gt;Node49 -->
<g id="edge67" class="edge"><title>Node48&#45;&gt;Node49</title>
<path fill="none" stroke="midnightblue" d="M493.87,-44.7942C507.026,-39.7858 522.187,-34.0702 536,-29 544.513,-25.8753 553.816,-22.5426 562.243,-19.555"/>
<polygon fill="midnightblue" stroke="midnightblue" points="492.351,-41.6278 484.256,-48.4638 494.847,-48.1676 492.351,-41.6278"/>
</g>
<!-- Node49&#45;&gt;Node46 -->
<g id="edge68" class="edge"><title>Node49&#45;&gt;Node46</title>
<path fill="none" stroke="midnightblue" d="M632.225,-23.1702C636.608,-24.9678 640.945,-26.9178 645,-29 671.837,-42.7792 700.074,-64.1599 715.41,-76.4431"/>
<polygon fill="midnightblue" stroke="midnightblue" points="633.235,-19.8087 622.645,-19.4863 630.722,-26.3423 633.235,-19.8087"/>
</g>
<!-- Node50&#45;&gt;Node48 -->
<g id="edge70" class="edge"><title>Node50&#45;&gt;Node48</title>
<path fill="none" stroke="midnightblue" d="M354.191,-149.794C367.228,-129.801 390.406,-97.7831 417,-77 421.651,-73.3654 427.11,-70.2143 432.487,-67.5799"/>
<polygon fill="midnightblue" stroke="midnightblue" points="351.198,-147.978 348.786,-158.295 357.105,-151.734 351.198,-147.978"/>
</g>
</g>
</svg>
