<?xml version="1.0" encoding="UTF-8" standalone="no"?>
<!DOCTYPE svg PUBLIC "-//W3C//DTD SVG 1.1//EN"
 "http://www.w3.org/Graphics/SVG/1.1/DTD/svg11.dtd">
<!-- Generated by graphviz version 2.38.0 (20140413.2041)
 -->
<!-- Title: luaO_str2d Pages: 1 -->
<svg width="1200pt" height="1015pt"
 viewBox="0.00 0.00 1200.00 1015.14" xmlns="http://www.w3.org/2000/svg" xmlns:xlink="http://www.w3.org/1999/xlink">
<g id="graph0" class="graph" transform="scale(1 1) rotate(0) translate(4 1011.14)">
<title>luaO_str2d</title>
<!-- Node1 -->
<g id="node1" class="node"><title>Node1</title>
<polygon fill="#bfbfbf" stroke="black" points="0,-474.642 0,-493.642 63,-493.642 63,-474.642 0,-474.642"/>
<text text-anchor="middle" x="31.5" y="-481.642" font-family="Helvetica,sans-Serif" font-size="10.00">luaO_str2d</text>
</g>
<!-- Node2 -->
<g id="node2" class="node"><title>Node2</title>
<g id="a_node2"><a xlink:href="../../d5/dcd/lvm_8h.html#a035d5ac2c0d25fe24f2decd16b0e7db9" target="_top" xlink:title="luaV_tonumber">
<polygon fill="none" stroke="black" points="99,-474.642 99,-493.642 179,-493.642 179,-474.642 99,-474.642"/>
<text text-anchor="middle" x="139" y="-481.642" font-family="Helvetica,sans-Serif" font-size="10.00">luaV_tonumber</text>
</a>
</g>
</g>
<!-- Node1&#45;&gt;Node2 -->
<g id="edge1" class="edge"><title>Node1&#45;&gt;Node2</title>
<path fill="none" stroke="midnightblue" d="M73.0721,-484.142C81.5495,-484.142 90.4708,-484.142 98.8937,-484.142"/>
<polygon fill="midnightblue" stroke="midnightblue" points="73.015,-480.642 63.015,-484.142 73.0149,-487.642 73.015,-480.642"/>
</g>
<!-- Node3 -->
<g id="node3" class="node"><title>Node3</title>
<g id="a_node3"><a xlink:href="../../db/d46/ldebug_8h.html#ab66c1eafd0acffec1bd270ae33e5f1ca" target="_top" xlink:title="luaG_aritherror">
<polygon fill="none" stroke="black" points="215,-493.642 215,-512.642 292,-512.642 292,-493.642 215,-493.642"/>
<text text-anchor="middle" x="253.5" y="-500.642" font-family="Helvetica,sans-Serif" font-size="10.00">luaG_aritherror</text>
</a>
</g>
</g>
<!-- Node2&#45;&gt;Node3 -->
<g id="edge2" class="edge"><title>Node2&#45;&gt;Node3</title>
<path fill="none" stroke="midnightblue" d="M188.982,-492.414C197.59,-493.868 206.43,-495.361 214.676,-496.754"/>
<polygon fill="midnightblue" stroke="midnightblue" points="189.475,-488.948 179.031,-490.734 188.309,-495.85 189.475,-488.948"/>
</g>
<!-- Node4 -->
<g id="node4" class="node"><title>Node4</title>
<g id="a_node4"><a xlink:href="../../d5/dcd/lvm_8h.html#a275e261afaec876cd16944b95c955642" target="_top" xlink:title="luaV_arith">
<polygon fill="none" stroke="black" points="328,-455.642 328,-474.642 387,-474.642 387,-455.642 328,-455.642"/>
<text text-anchor="middle" x="357.5" y="-462.642" font-family="Helvetica,sans-Serif" font-size="10.00">luaV_arith</text>
</a>
</g>
</g>
<!-- Node2&#45;&gt;Node4 -->
<g id="edge71" class="edge"><title>Node2&#45;&gt;Node4</title>
<path fill="none" stroke="midnightblue" d="M189.416,-479.805C232.243,-476.046 292.718,-470.739 327.946,-467.648"/>
<polygon fill="midnightblue" stroke="midnightblue" points="188.862,-476.34 179.207,-480.701 189.474,-483.313 188.862,-476.34"/>
</g>
<!-- Node3&#45;&gt;Node4 -->
<g id="edge3" class="edge"><title>Node3&#45;&gt;Node4</title>
<path fill="none" stroke="midnightblue" d="M289.711,-490.024C303.202,-484.998 318.328,-479.363 330.769,-474.728"/>
<polygon fill="midnightblue" stroke="midnightblue" points="288.388,-486.782 280.239,-493.553 290.832,-493.341 288.388,-486.782"/>
</g>
<!-- Node5 -->
<g id="node5" class="node"><title>Node5</title>
<g id="a_node5"><a xlink:href="../../da/dd2/lua_8h.html#ab0a8e0d4a119fa51c2785e25d5b5aa08" target="_top" xlink:title="lua_arith">
<polygon fill="none" stroke="black" points="434,-455.642 434,-474.642 486,-474.642 486,-455.642 434,-455.642"/>
<text text-anchor="middle" x="460" y="-462.642" font-family="Helvetica,sans-Serif" font-size="10.00">lua_arith</text>
</a>
</g>
</g>
<!-- Node4&#45;&gt;Node5 -->
<g id="edge4" class="edge"><title>Node4&#45;&gt;Node5</title>
<path fill="none" stroke="midnightblue" d="M397.077,-465.142C409.398,-465.142 422.709,-465.142 433.822,-465.142"/>
<polygon fill="midnightblue" stroke="midnightblue" points="397.03,-461.642 387.03,-465.142 397.03,-468.642 397.03,-461.642"/>
</g>
<!-- Node6 -->
<g id="node6" class="node"><title>Node6</title>
<g id="a_node6"><a xlink:href="../../d5/dcd/lvm_8h.html#ae93565adc36c6e2157dbbd875433ede1" target="_top" xlink:title="luaV_execute">
<polygon fill="none" stroke="black" points="423,-588.642 423,-607.642 497,-607.642 497,-588.642 423,-588.642"/>
<text text-anchor="middle" x="460" y="-595.642" font-family="Helvetica,sans-Serif" font-size="10.00">luaV_execute</text>
</a>
</g>
</g>
<!-- Node4&#45;&gt;Node6 -->
<g id="edge5" class="edge"><title>Node4&#45;&gt;Node6</title>
<path fill="none" stroke="midnightblue" d="M371.943,-482.932C393.408,-511.338 434.715,-566.003 451.567,-588.304"/>
<polygon fill="midnightblue" stroke="midnightblue" points="374.549,-480.575 365.728,-474.707 368.964,-484.795 374.549,-480.575"/>
</g>
<!-- Node7 -->
<g id="node7" class="node"><title>Node7</title>
<g id="a_node7"><a xlink:href="../../d2/dd9/ldo_8h.html#a7bb0b106d4012134156e0fa240f51228" target="_top" xlink:title="luaD_call">
<polygon fill="none" stroke="black" points="533,-683.642 533,-702.642 589,-702.642 589,-683.642 533,-683.642"/>
<text text-anchor="middle" x="561" y="-690.642" font-family="Helvetica,sans-Serif" font-size="10.00">luaD_call</text>
</a>
</g>
</g>
<!-- Node6&#45;&gt;Node7 -->
<g id="edge6" class="edge"><title>Node6&#45;&gt;Node7</title>
<path fill="none" stroke="midnightblue" d="M485.278,-614.782C499.096,-627.525 516.824,-644.996 533,-660.142 540.966,-667.6 550.576,-676.007 555.916,-683.454"/>
<polygon fill="midnightblue" stroke="midnightblue" points="487.403,-611.985 477.635,-607.879 482.71,-617.18 487.403,-611.985"/>
</g>
<!-- Node47 -->
<g id="node47" class="node"><title>Node47</title>
<g id="a_node47"><a xlink:href="../../d3/d08/ldo_8c.html#a3baab9d298c0c32cb74a9a079d7244de" target="_top" xlink:title="unroll">
<polygon fill="none" stroke="black" points="542,-901.642 542,-920.642 580,-920.642 580,-901.642 542,-901.642"/>
<text text-anchor="middle" x="561" y="-908.642" font-family="Helvetica,sans-Serif" font-size="10.00">unroll</text>
</a>
</g>
</g>
<!-- Node6&#45;&gt;Node47 -->
<g id="edge64" class="edge"><title>Node6&#45;&gt;Node47</title>
<path fill="none" stroke="midnightblue" d="M466.911,-617.672C479.04,-657.639 507.73,-751.614 533,-830.142 541.31,-855.964 551.536,-886.26 556.693,-901.438"/>
<polygon fill="midnightblue" stroke="midnightblue" points="470.196,-616.444 463.946,-607.889 463.497,-618.475 470.196,-616.444"/>
</g>
<!-- Node50 -->
<g id="node50" class="node"><title>Node50</title>
<g id="a_node50"><a xlink:href="../../d3/d08/ldo_8c.html#abd7632c715de5db6e7797b7fa3f7010f" target="_top" xlink:title="resume">
<polygon fill="none" stroke="black" points="640.5,-901.642 640.5,-920.642 687.5,-920.642 687.5,-901.642 640.5,-901.642"/>
<text text-anchor="middle" x="664" y="-908.642" font-family="Helvetica,sans-Serif" font-size="10.00">resume</text>
</a>
</g>
</g>
<!-- Node6&#45;&gt;Node50 -->
<g id="edge70" class="edge"><title>Node6&#45;&gt;Node50</title>
<path fill="none" stroke="midnightblue" d="M468.653,-617.178C488.778,-665.612 547.05,-795.857 625,-883.142 631.332,-890.232 639.728,-896.645 647.017,-901.54"/>
<polygon fill="midnightblue" stroke="midnightblue" points="471.778,-615.574 464.749,-607.647 465.301,-618.227 471.778,-615.574"/>
</g>
<!-- Node7&#45;&gt;Node6 -->
<g id="edge63" class="edge"><title>Node7&#45;&gt;Node6</title>
<path fill="none" stroke="midnightblue" d="M531.611,-676.698C502.865,-649.565 476.928,-623.042 466.149,-608.111"/>
<polygon fill="midnightblue" stroke="midnightblue" points="529.284,-679.314 538.973,-683.602 534.073,-674.208 529.284,-679.314"/>
</g>
<!-- Node8 -->
<g id="node8" class="node"><title>Node8</title>
<g id="a_node8"><a xlink:href="../../dd/d4a/lvm_8c.html#aa904883a58699d9c6ef4d6f0f45037f6" target="_top" xlink:title="callTM">
<polygon fill="none" stroke="black" points="642,-569.642 642,-588.642 686,-588.642 686,-569.642 642,-569.642"/>
<text text-anchor="middle" x="664" y="-576.642" font-family="Helvetica,sans-Serif" font-size="10.00">callTM</text>
</a>
</g>
</g>
<!-- Node7&#45;&gt;Node8 -->
<g id="edge7" class="edge"><title>Node7&#45;&gt;Node8</title>
<path fill="none" stroke="midnightblue" d="M577.473,-675.677C599.028,-651.348 637.36,-608.082 654.411,-588.837"/>
<polygon fill="midnightblue" stroke="midnightblue" points="574.623,-673.616 570.611,-683.422 579.862,-678.258 574.623,-673.616"/>
</g>
<!-- Node23 -->
<g id="node23" class="node"><title>Node23</title>
<g id="a_node23"><a xlink:href="../../de/d27/lgc_8c.html#a929058f72c03750fa82374f6bfa639ee" target="_top" xlink:title="dothecall">
<polygon fill="none" stroke="black" points="637.5,-854.642 637.5,-873.642 690.5,-873.642 690.5,-854.642 637.5,-854.642"/>
<text text-anchor="middle" x="664" y="-861.642" font-family="Helvetica,sans-Serif" font-size="10.00">dothecall</text>
</a>
</g>
</g>
<!-- Node7&#45;&gt;Node23 -->
<g id="edge27" class="edge"><title>Node7&#45;&gt;Node23</title>
<path fill="none" stroke="midnightblue" d="M568.763,-712.515C578.683,-739.446 598.87,-789.063 625,-826.142 632.524,-836.819 643.184,-847.182 651.299,-854.382"/>
<polygon fill="midnightblue" stroke="midnightblue" points="571.935,-710.993 565.258,-702.767 565.348,-713.362 571.935,-710.993"/>
</g>
<!-- Node27 -->
<g id="node27" class="node"><title>Node27</title>
<g id="a_node27"><a xlink:href="../../df/db6/lapi_8c.html#ac3926c93fb08234f9f47e24653124910" target="_top" xlink:title="f_call">
<polygon fill="none" stroke="black" points="645,-797.642 645,-816.642 683,-816.642 683,-797.642 645,-797.642"/>
<text text-anchor="middle" x="664" y="-804.642" font-family="Helvetica,sans-Serif" font-size="10.00">f_call</text>
</a>
</g>
</g>
<!-- Node7&#45;&gt;Node27 -->
<g id="edge31" class="edge"><title>Node7&#45;&gt;Node27</title>
<path fill="none" stroke="midnightblue" d="M571.914,-711.509C583.019,-730.918 602.448,-761.634 625,-783.142 630.873,-788.742 638.245,-793.753 644.93,-797.729"/>
<polygon fill="midnightblue" stroke="midnightblue" points="574.951,-709.768 567.023,-702.739 568.837,-713.178 574.951,-709.768"/>
</g>
<!-- Node28 -->
<g id="node28" class="node"><title>Node28</title>
<g id="a_node28"><a xlink:href="../../da/dd2/lua_8h.html#a3c4de08aa665eaee4aabd330aa99a441" target="_top" xlink:title="lua_pcallk">
<polygon fill="none" stroke="black" points="751,-825.642 751,-844.642 810,-844.642 810,-825.642 751,-825.642"/>
<text text-anchor="middle" x="780.5" y="-832.642" font-family="Helvetica,sans-Serif" font-size="10.00">lua_pcallk</text>
</a>
</g>
</g>
<!-- Node7&#45;&gt;Node28 -->
<g id="edge37" class="edge"><title>Node7&#45;&gt;Node28</title>
<path fill="none" stroke="midnightblue" d="M578.262,-710.24C590.385,-722.365 607.758,-738.487 625,-750.142 656.948,-771.736 669.198,-769.582 703,-788.142 724.998,-800.22 749.584,-815.696 764.802,-825.518"/>
<polygon fill="midnightblue" stroke="midnightblue" points="580.606,-707.631 571.109,-702.936 575.606,-712.529 580.606,-707.631"/>
</g>
<!-- Node31 -->
<g id="node31" class="node"><title>Node31</title>
<g id="a_node31"><a xlink:href="../../da/dd2/lua_8h.html#aa6aba1fd89ac6f1c5ccfdfd12f826d80" target="_top" xlink:title="lua_callk">
<polygon fill="none" stroke="black" points="637.5,-721.642 637.5,-740.642 690.5,-740.642 690.5,-721.642 637.5,-721.642"/>
<text text-anchor="middle" x="664" y="-728.642" font-family="Helvetica,sans-Serif" font-size="10.00">lua_callk</text>
</a>
</g>
</g>
<!-- Node7&#45;&gt;Node31 -->
<g id="edge35" class="edge"><title>Node7&#45;&gt;Node31</title>
<path fill="none" stroke="midnightblue" d="M596.866,-706.26C610.225,-711.286 625.202,-716.921 637.522,-721.556"/>
<polygon fill="midnightblue" stroke="midnightblue" points="598.079,-702.976 587.487,-702.731 595.614,-709.528 598.079,-702.976"/>
</g>
<!-- Node33 -->
<g id="node33" class="node"><title>Node33</title>
<g id="a_node33"><a xlink:href="../../db/d46/ldebug_8h.html#acd5ef9f67a8e9d08f6540636fdbeafe6" target="_top" xlink:title="luaG_errormsg">
<polygon fill="none" stroke="black" points="625,-683.642 625,-702.642 703,-702.642 703,-683.642 625,-683.642"/>
<text text-anchor="middle" x="664" y="-690.642" font-family="Helvetica,sans-Serif" font-size="10.00">luaG_errormsg</text>
</a>
</g>
</g>
<!-- Node7&#45;&gt;Node33 -->
<g id="edge38" class="edge"><title>Node7&#45;&gt;Node33</title>
<path fill="none" stroke="midnightblue" d="M599.277,-693.142C607.617,-693.142 616.473,-693.142 624.848,-693.142"/>
<polygon fill="midnightblue" stroke="midnightblue" points="599.066,-689.642 589.066,-693.142 599.066,-696.642 599.066,-689.642"/>
</g>
<!-- Node9 -->
<g id="node9" class="node"><title>Node9</title>
<g id="a_node9"><a xlink:href="../../d5/dcd/lvm_8h.html#adacdbccc9d8fab937a1b0dc058c8da12" target="_top" xlink:title="luaV_gettable">
<polygon fill="none" stroke="black" points="1005.5,-512.642 1005.5,-531.642 1080.5,-531.642 1080.5,-512.642 1005.5,-512.642"/>
<text text-anchor="middle" x="1043" y="-519.642" font-family="Helvetica,sans-Serif" font-size="10.00">luaV_gettable</text>
</a>
</g>
</g>
<!-- Node8&#45;&gt;Node9 -->
<g id="edge8" class="edge"><title>Node8&#45;&gt;Node9</title>
<path fill="none" stroke="midnightblue" d="M696.627,-581.284C752.365,-584.157 871.247,-586.22 967,-560.142 989.393,-554.043 1012.9,-540.861 1027.5,-531.747"/>
<polygon fill="midnightblue" stroke="midnightblue" points="696.528,-577.773 686.347,-580.707 696.135,-584.762 696.528,-577.773"/>
</g>
<!-- Node13 -->
<g id="node13" class="node"><title>Node13</title>
<g id="a_node13"><a xlink:href="../../d5/dcd/lvm_8h.html#a5885d48fd66eb236f8b8f6e4938cbcce" target="_top" xlink:title="luaV_settable">
<polygon fill="none" stroke="black" points="1005.5,-189.642 1005.5,-208.642 1080.5,-208.642 1080.5,-189.642 1005.5,-189.642"/>
<text text-anchor="middle" x="1043" y="-196.642" font-family="Helvetica,sans-Serif" font-size="10.00">luaV_settable</text>
</a>
</g>
</g>
<!-- Node8&#45;&gt;Node13 -->
<g id="edge13" class="edge"><title>Node8&#45;&gt;Node13</title>
<path fill="none" stroke="midnightblue" d="M667.229,-559.338C676.08,-491.439 715.536,-267.766 858,-186.142 908.988,-156.928 981.419,-176.274 1018.35,-189.575"/>
<polygon fill="midnightblue" stroke="midnightblue" points="663.726,-559.149 665.986,-569.5 670.674,-559.999 663.726,-559.149"/>
</g>
<!-- Node17 -->
<g id="node17" class="node"><title>Node17</title>
<g id="a_node17"><a xlink:href="../../dd/d4a/lvm_8c.html#a5f9dd797eb313b8e117cb20546276732" target="_top" xlink:title="call_binTM">
<polygon fill="none" stroke="black" points="749.5,-37.6417 749.5,-56.6417 811.5,-56.6417 811.5,-37.6417 749.5,-37.6417"/>
<text text-anchor="middle" x="780.5" y="-44.6417" font-family="Helvetica,sans-Serif" font-size="10.00">call_binTM</text>
</a>
</g>
</g>
<!-- Node8&#45;&gt;Node17 -->
<g id="edge18" class="edge"><title>Node8&#45;&gt;Node17</title>
<path fill="none" stroke="midnightblue" d="M666.866,-559.272C673.01,-497.319 694.783,-302.53 739,-147.142 748.74,-112.912 766.331,-74.4077 774.754,-56.8292"/>
<polygon fill="midnightblue" stroke="midnightblue" points="663.351,-559.258 665.871,-569.549 670.319,-559.932 663.351,-559.258"/>
</g>
<!-- Node20 -->
<g id="node20" class="node"><title>Node20</title>
<g id="a_node20"><a xlink:href="../../d5/dcd/lvm_8h.html#ab77cced08254efde4e5dfb28b37a7f31" target="_top" xlink:title="luaV_equalobj_">
<polygon fill="none" stroke="black" points="739,-531.642 739,-550.642 822,-550.642 822,-531.642 739,-531.642"/>
<text text-anchor="middle" x="780.5" y="-538.642" font-family="Helvetica,sans-Serif" font-size="10.00">luaV_equalobj_</text>
</a>
</g>
</g>
<!-- Node8&#45;&gt;Node20 -->
<g id="edge23" class="edge"><title>Node8&#45;&gt;Node20</title>
<path fill="none" stroke="midnightblue" d="M695.568,-568.997C712.736,-563.299 734.028,-556.233 750.87,-550.643"/>
<polygon fill="midnightblue" stroke="midnightblue" points="694.39,-565.7 686.001,-572.172 696.595,-572.344 694.39,-565.7"/>
</g>
<!-- Node21 -->
<g id="node21" class="node"><title>Node21</title>
<g id="a_node21"><a xlink:href="../../d5/dcd/lvm_8h.html#a414b4b487239935324f2f16e1e7715db" target="_top" xlink:title="luaV_objlen">
<polygon fill="none" stroke="black" points="1009.5,-607.642 1009.5,-626.642 1076.5,-626.642 1076.5,-607.642 1009.5,-607.642"/>
<text text-anchor="middle" x="1043" y="-614.642" font-family="Helvetica,sans-Serif" font-size="10.00">luaV_objlen</text>
</a>
</g>
</g>
<!-- Node8&#45;&gt;Node21 -->
<g id="edge24" class="edge"><title>Node8&#45;&gt;Node21</title>
<path fill="none" stroke="midnightblue" d="M696.244,-585.827C709.393,-588.439 724.888,-591.254 739,-593.142 836.806,-606.228 953.4,-613.002 1009.15,-615.703"/>
<polygon fill="midnightblue" stroke="midnightblue" points="696.771,-582.363 686.274,-583.798 695.375,-589.222 696.771,-582.363"/>
</g>
<!-- Node9&#45;&gt;Node6 -->
<g id="edge12" class="edge"><title>Node9&#45;&gt;Node6</title>
<path fill="none" stroke="midnightblue" d="M1042.49,-502.228C1042.74,-449.827 1036.64,-306.104 967,-218.142 909.503,-145.52 874.127,-123.142 781.5,-123.142 663,-123.142 663,-123.142 663,-123.142 610.577,-123.142 485.217,-520.009 464.058,-588.221"/>
<polygon fill="midnightblue" stroke="midnightblue" points="1038.98,-502.439 1042.35,-512.486 1045.98,-502.535 1038.98,-502.439"/>
</g>
<!-- Node10 -->
<g id="node10" class="node"><title>Node10</title>
<g id="a_node10"><a xlink:href="../../da/dd2/lua_8h.html#a2b4a9010af0545ae0f822d7f081370d0" target="_top" xlink:title="lua_getglobal">
<polygon fill="none" stroke="red" points="1119,-550.642 1119,-569.642 1192,-569.642 1192,-550.642 1119,-550.642"/>
<text text-anchor="middle" x="1155.5" y="-557.642" font-family="Helvetica,sans-Serif" font-size="10.00">lua_getglobal</text>
</a>
</g>
</g>
<!-- Node9&#45;&gt;Node10 -->
<g id="edge9" class="edge"><title>Node9&#45;&gt;Node10</title>
<path fill="none" stroke="midnightblue" d="M1081.72,-535.113C1096.44,-540.176 1113.02,-545.876 1126.63,-550.556"/>
<polygon fill="midnightblue" stroke="midnightblue" points="1082.48,-531.673 1071.88,-531.731 1080.2,-538.293 1082.48,-531.673"/>
</g>
<!-- Node11 -->
<g id="node11" class="node"><title>Node11</title>
<g id="a_node11"><a xlink:href="../../da/dd2/lua_8h.html#a8d82fa181a3003e9a304040c0bbed9ac" target="_top" xlink:title="lua_gettable">
<polygon fill="none" stroke="red" points="1121.5,-512.642 1121.5,-531.642 1189.5,-531.642 1189.5,-512.642 1121.5,-512.642"/>
<text text-anchor="middle" x="1155.5" y="-519.642" font-family="Helvetica,sans-Serif" font-size="10.00">lua_gettable</text>
</a>
</g>
</g>
<!-- Node9&#45;&gt;Node11 -->
<g id="edge10" class="edge"><title>Node9&#45;&gt;Node11</title>
<path fill="none" stroke="midnightblue" d="M1090.83,-522.142C1101.04,-522.142 1111.65,-522.142 1121.22,-522.142"/>
<polygon fill="midnightblue" stroke="midnightblue" points="1090.79,-518.642 1080.79,-522.142 1090.79,-525.642 1090.79,-518.642"/>
</g>
<!-- Node12 -->
<g id="node12" class="node"><title>Node12</title>
<g id="a_node12"><a xlink:href="../../da/dd2/lua_8h.html#ac3112bb28ba217adc46f13da8e9e6585" target="_top" xlink:title="lua_getfield">
<polygon fill="none" stroke="red" points="1124,-474.642 1124,-493.642 1187,-493.642 1187,-474.642 1124,-474.642"/>
<text text-anchor="middle" x="1155.5" y="-481.642" font-family="Helvetica,sans-Serif" font-size="10.00">lua_getfield</text>
</a>
</g>
</g>
<!-- Node9&#45;&gt;Node12 -->
<g id="edge11" class="edge"><title>Node9&#45;&gt;Node12</title>
<path fill="none" stroke="midnightblue" d="M1081.72,-509.17C1096.44,-504.107 1113.02,-498.408 1126.63,-493.728"/>
<polygon fill="midnightblue" stroke="midnightblue" points="1080.2,-505.991 1071.88,-512.553 1082.48,-512.61 1080.2,-505.991"/>
</g>
<!-- Node13&#45;&gt;Node6 -->
<g id="edge17" class="edge"><title>Node13&#45;&gt;Node6</title>
<path fill="none" stroke="midnightblue" d="M1039.72,-179.368C1034.36,-142.759 1017.33,-64.8231 967,-28.1417 900.023,20.6686 864.376,-9.14168 781.5,-9.14168 663,-9.14168 663,-9.14168 663,-9.14168 596.736,-9.14168 568.994,-26.5056 533,-82.1417 484.281,-157.447 514.607,-396.196 497,-484.142 489.055,-523.827 472.326,-569.199 464.805,-588.568"/>
<polygon fill="midnightblue" stroke="midnightblue" points="1036.26,-179.855 1041.04,-189.311 1043.2,-178.938 1036.26,-179.855"/>
</g>
<!-- Node14 -->
<g id="node14" class="node"><title>Node14</title>
<g id="a_node14"><a xlink:href="../../da/dd2/lua_8h.html#ac0ebe7d753b81f6249dde8cf0b8ea997" target="_top" xlink:title="lua_setglobal">
<polygon fill="none" stroke="red" points="1119,-227.642 1119,-246.642 1192,-246.642 1192,-227.642 1119,-227.642"/>
<text text-anchor="middle" x="1155.5" y="-234.642" font-family="Helvetica,sans-Serif" font-size="10.00">lua_setglobal</text>
</a>
</g>
</g>
<!-- Node13&#45;&gt;Node14 -->
<g id="edge14" class="edge"><title>Node13&#45;&gt;Node14</title>
<path fill="none" stroke="midnightblue" d="M1081.72,-212.113C1096.44,-217.176 1113.02,-222.876 1126.63,-227.556"/>
<polygon fill="midnightblue" stroke="midnightblue" points="1082.48,-208.673 1071.88,-208.731 1080.2,-215.293 1082.48,-208.673"/>
</g>
<!-- Node15 -->
<g id="node15" class="node"><title>Node15</title>
<g id="a_node15"><a xlink:href="../../da/dd2/lua_8h.html#aeda173d104e3a566ccaac89a1f64a5eb" target="_top" xlink:title="lua_settable">
<polygon fill="none" stroke="red" points="1121.5,-189.642 1121.5,-208.642 1189.5,-208.642 1189.5,-189.642 1121.5,-189.642"/>
<text text-anchor="middle" x="1155.5" y="-196.642" font-family="Helvetica,sans-Serif" font-size="10.00">lua_settable</text>
</a>
</g>
</g>
<!-- Node13&#45;&gt;Node15 -->
<g id="edge15" class="edge"><title>Node13&#45;&gt;Node15</title>
<path fill="none" stroke="midnightblue" d="M1090.83,-199.142C1101.04,-199.142 1111.65,-199.142 1121.22,-199.142"/>
<polygon fill="midnightblue" stroke="midnightblue" points="1090.79,-195.642 1080.79,-199.142 1090.79,-202.642 1090.79,-195.642"/>
</g>
<!-- Node16 -->
<g id="node16" class="node"><title>Node16</title>
<g id="a_node16"><a xlink:href="../../da/dd2/lua_8h.html#a9580a15c141cbe4bf2a63fea625c3878" target="_top" xlink:title="lua_setfield">
<polygon fill="none" stroke="red" points="1124,-151.642 1124,-170.642 1187,-170.642 1187,-151.642 1124,-151.642"/>
<text text-anchor="middle" x="1155.5" y="-158.642" font-family="Helvetica,sans-Serif" font-size="10.00">lua_setfield</text>
</a>
</g>
</g>
<!-- Node13&#45;&gt;Node16 -->
<g id="edge16" class="edge"><title>Node13&#45;&gt;Node16</title>
<path fill="none" stroke="midnightblue" d="M1081.72,-186.17C1096.44,-181.107 1113.02,-175.408 1126.63,-170.728"/>
<polygon fill="midnightblue" stroke="midnightblue" points="1080.2,-182.991 1071.88,-189.553 1082.48,-189.61 1080.2,-182.991"/>
</g>
<!-- Node17&#45;&gt;Node4 -->
<g id="edge22" class="edge"><title>Node17&#45;&gt;Node4</title>
<path fill="none" stroke="midnightblue" d="M739.263,-39.5779C686.626,-32.0396 593.947,-27.1268 533,-71.1417 394.72,-171.006 364.336,-405.513 359.343,-455.617"/>
<polygon fill="midnightblue" stroke="midnightblue" points="738.82,-43.0509 749.235,-41.1069 739.881,-36.1317 738.82,-43.0509"/>
</g>
<!-- Node18 -->
<g id="node18" class="node"><title>Node18</title>
<g id="a_node18"><a xlink:href="../../dd/d4a/lvm_8c.html#a1d1301ff4a771ce4198673dd113d10a5" target="_top" xlink:title="call_orderTM">
<polygon fill="none" stroke="red" points="878,-37.6417 878,-56.6417 947,-56.6417 947,-37.6417 878,-37.6417"/>
<text text-anchor="middle" x="912.5" y="-44.6417" font-family="Helvetica,sans-Serif" font-size="10.00">call_orderTM</text>
</a>
</g>
</g>
<!-- Node17&#45;&gt;Node18 -->
<g id="edge19" class="edge"><title>Node17&#45;&gt;Node18</title>
<path fill="none" stroke="midnightblue" d="M821.841,-47.1417C839.814,-47.1417 860.74,-47.1417 877.853,-47.1417"/>
<polygon fill="midnightblue" stroke="midnightblue" points="821.651,-43.6418 811.651,-47.1417 821.651,-50.6418 821.651,-43.6418"/>
</g>
<!-- Node19 -->
<g id="node19" class="node"><title>Node19</title>
<g id="a_node19"><a xlink:href="../../d5/dcd/lvm_8h.html#aee84bfc563cb4bdd21a013218a289aa7" target="_top" xlink:title="luaV_concat">
<polygon fill="none" stroke="red" points="878,-75.6417 878,-94.6417 947,-94.6417 947,-75.6417 878,-75.6417"/>
<text text-anchor="middle" x="912.5" y="-82.6417" font-family="Helvetica,sans-Serif" font-size="10.00">luaV_concat</text>
</a>
</g>
</g>
<!-- Node17&#45;&gt;Node19 -->
<g id="edge20" class="edge"><title>Node17&#45;&gt;Node19</title>
<path fill="none" stroke="midnightblue" d="M821.49,-58.8311C839.866,-64.2025 861.389,-70.4937 878.779,-75.5772"/>
<polygon fill="midnightblue" stroke="midnightblue" points="822.232,-55.4015 811.651,-55.9552 820.268,-62.1203 822.232,-55.4015"/>
</g>
<!-- Node19&#45;&gt;Node6 -->
<g id="edge21" class="edge"><title>Node19&#45;&gt;Node6</title>
<path fill="none" stroke="midnightblue" d="M867.813,-81.1848C778.521,-74.1308 579.585,-64.041 533,-109.142 472.853,-167.372 513.697,-402.107 497,-484.142 488.928,-523.801 472.265,-569.186 464.783,-588.564"/>
<polygon fill="midnightblue" stroke="midnightblue" points="867.637,-84.6819 877.888,-82.0048 868.205,-77.705 867.637,-84.6819"/>
</g>
<!-- Node21&#45;&gt;Node6 -->
<g id="edge26" class="edge"><title>Node21&#45;&gt;Node6</title>
<path fill="none" stroke="midnightblue" d="M999.258,-627.258C947.878,-638.516 858.893,-655.142 781.5,-655.142 663,-655.142 663,-655.142 663,-655.142 593.948,-655.142 516.44,-623.909 480.832,-607.682"/>
<polygon fill="midnightblue" stroke="midnightblue" points="1000.33,-630.606 1009.33,-625.015 998.803,-623.774 1000.33,-630.606"/>
</g>
<!-- Node22 -->
<g id="node22" class="node"><title>Node22</title>
<g id="a_node22"><a xlink:href="../../da/dd2/lua_8h.html#ac7ade66f92b5e325c42371926f879818" target="_top" xlink:title="lua_len">
<polygon fill="none" stroke="red" points="1132,-607.642 1132,-626.642 1179,-626.642 1179,-607.642 1132,-607.642"/>
<text text-anchor="middle" x="1155.5" y="-614.642" font-family="Helvetica,sans-Serif" font-size="10.00">lua_len</text>
</a>
</g>
</g>
<!-- Node21&#45;&gt;Node22 -->
<g id="edge25" class="edge"><title>Node21&#45;&gt;Node22</title>
<path fill="none" stroke="midnightblue" d="M1086.92,-617.142C1102.3,-617.142 1119.01,-617.142 1131.97,-617.142"/>
<polygon fill="midnightblue" stroke="midnightblue" points="1086.56,-613.642 1076.56,-617.142 1086.56,-620.642 1086.56,-613.642"/>
</g>
<!-- Node24 -->
<g id="node24" class="node"><title>Node24</title>
<g id="a_node24"><a xlink:href="../../de/d27/lgc_8c.html#ab9ec6b56580b9e66f41743e393e7e033" target="_top" xlink:title="GCTM">
<polygon fill="none" stroke="black" points="757.5,-908.642 757.5,-927.642 803.5,-927.642 803.5,-908.642 757.5,-908.642"/>
<text text-anchor="middle" x="780.5" y="-915.642" font-family="Helvetica,sans-Serif" font-size="10.00">GCTM</text>
</a>
</g>
</g>
<!-- Node23&#45;&gt;Node24 -->
<g id="edge28" class="edge"><title>Node23&#45;&gt;Node24</title>
<path fill="none" stroke="midnightblue" d="M694.321,-877.97C714.609,-887.538 741.095,-900.029 759.11,-908.525"/>
<polygon fill="midnightblue" stroke="midnightblue" points="695.744,-874.772 685.207,-873.671 692.758,-881.103 695.744,-874.772"/>
</g>
<!-- Node25 -->
<g id="node25" class="node"><title>Node25</title>
<g id="a_node25"><a xlink:href="../../de/d27/lgc_8c.html#a74f50e6006422d43686521fe765152dd" target="_top" xlink:title="callallpendingfinalizers">
<polygon fill="none" stroke="red" points="858,-949.642 858,-968.642 967,-968.642 967,-949.642 858,-949.642"/>
<text text-anchor="middle" x="912.5" y="-956.642" font-family="Helvetica,sans-Serif" font-size="10.00">callallpendingfinalizers</text>
</a>
</g>
</g>
<!-- Node24&#45;&gt;Node25 -->
<g id="edge29" class="edge"><title>Node24&#45;&gt;Node25</title>
<path fill="none" stroke="midnightblue" d="M813.143,-928.121C833.8,-934.636 860.623,-943.096 881.039,-949.535"/>
<polygon fill="midnightblue" stroke="midnightblue" points="814.142,-924.767 803.553,-925.097 812.037,-931.443 814.142,-924.767"/>
</g>
<!-- Node26 -->
<g id="node26" class="node"><title>Node26</title>
<g id="a_node26"><a xlink:href="../../dc/d9c/lgc_8h.html#a19359957605d7c8eaf70803e5b77361f" target="_top" xlink:title="luaC_forcestep">
<polygon fill="none" stroke="red" points="872.5,-911.642 872.5,-930.642 952.5,-930.642 952.5,-911.642 872.5,-911.642"/>
<text text-anchor="middle" x="912.5" y="-918.642" font-family="Helvetica,sans-Serif" font-size="10.00">luaC_forcestep</text>
</a>
</g>
</g>
<!-- Node24&#45;&gt;Node26 -->
<g id="edge30" class="edge"><title>Node24&#45;&gt;Node26</title>
<path fill="none" stroke="midnightblue" d="M813.716,-918.885C831.499,-919.296 853.717,-919.808 872.479,-920.241"/>
<polygon fill="midnightblue" stroke="midnightblue" points="813.631,-915.382 803.553,-918.651 813.469,-922.38 813.631,-915.382"/>
</g>
<!-- Node27&#45;&gt;Node28 -->
<g id="edge32" class="edge"><title>Node27&#45;&gt;Node28</title>
<path fill="none" stroke="midnightblue" d="M693.312,-814.065C710.797,-818.341 733.168,-823.812 750.736,-828.108"/>
<polygon fill="midnightblue" stroke="midnightblue" points="693.688,-810.554 683.143,-811.578 692.025,-817.354 693.688,-810.554"/>
</g>
<!-- Node29 -->
<g id="node29" class="node"><title>Node29</title>
<g id="a_node29"><a xlink:href="../../d8/dd3/lbaselib_8c.html#a1fb2725eed679431d070b2e9e7abc223" target="_top" xlink:title="luaB_pcall">
<polygon fill="none" stroke="black" points="882,-873.642 882,-892.642 943,-892.642 943,-873.642 882,-873.642"/>
<text text-anchor="middle" x="912.5" y="-880.642" font-family="Helvetica,sans-Serif" font-size="10.00">luaB_pcall</text>
</a>
</g>
</g>
<!-- Node28&#45;&gt;Node29 -->
<g id="edge33" class="edge"><title>Node28&#45;&gt;Node29</title>
<path fill="none" stroke="midnightblue" d="M815.87,-848.348C829.026,-853.356 844.187,-859.071 858,-864.142 866.513,-867.266 875.816,-870.599 884.243,-873.587"/>
<polygon fill="midnightblue" stroke="midnightblue" points="816.847,-844.974 806.256,-844.678 814.351,-851.514 816.847,-844.974"/>
</g>
<!-- Node30 -->
<g id="node30" class="node"><title>Node30</title>
<g id="a_node30"><a xlink:href="../../d8/dd3/lbaselib_8c.html#a5fbb0094fa1a56f0a4c2547f1ec4c5ab" target="_top" xlink:title="luaB_xpcall">
<polygon fill="none" stroke="black" points="879.5,-835.642 879.5,-854.642 945.5,-854.642 945.5,-835.642 879.5,-835.642"/>
<text text-anchor="middle" x="912.5" y="-842.642" font-family="Helvetica,sans-Serif" font-size="10.00">luaB_xpcall</text>
</a>
</g>
</g>
<!-- Node28&#45;&gt;Node30 -->
<g id="edge34" class="edge"><title>Node28&#45;&gt;Node30</title>
<path fill="none" stroke="midnightblue" d="M820.1,-838.111C838.984,-839.564 861.45,-841.292 879.382,-842.671"/>
<polygon fill="midnightblue" stroke="midnightblue" points="820.268,-834.614 810.029,-837.336 819.731,-841.593 820.268,-834.614"/>
</g>
<!-- Node32 -->
<g id="node32" class="node"><title>Node32</title>
<g id="a_node32"><a xlink:href="../../d8/dd3/lbaselib_8c.html#a86a4e35d9c9ad4661a0dbbac3758c049" target="_top" xlink:title="luaB_dofile">
<polygon fill="none" stroke="black" points="881.5,-797.642 881.5,-816.642 943.5,-816.642 943.5,-797.642 881.5,-797.642"/>
<text text-anchor="middle" x="912.5" y="-804.642" font-family="Helvetica,sans-Serif" font-size="10.00">luaB_dofile</text>
</a>
</g>
</g>
<!-- Node31&#45;&gt;Node32 -->
<g id="edge36" class="edge"><title>Node31&#45;&gt;Node32</title>
<path fill="none" stroke="midnightblue" d="M700.703,-742.149C749.389,-757.16 835.75,-783.787 881.355,-797.848"/>
<polygon fill="midnightblue" stroke="midnightblue" points="701.501,-738.733 690.914,-739.131 699.439,-745.422 701.501,-738.733"/>
</g>
<!-- Node34 -->
<g id="node34" class="node"><title>Node34</title>
<g id="a_node34"><a xlink:href="../../da/dd2/lua_8h.html#aae6c05ddea7bd110a3e84595ef92e601" target="_top" xlink:title="lua_error">
<polygon fill="none" stroke="black" points="754.5,-721.642 754.5,-740.642 806.5,-740.642 806.5,-721.642 754.5,-721.642"/>
<text text-anchor="middle" x="780.5" y="-728.642" font-family="Helvetica,sans-Serif" font-size="10.00">lua_error</text>
</a>
</g>
</g>
<!-- Node33&#45;&gt;Node34 -->
<g id="edge39" class="edge"><title>Node33&#45;&gt;Node34</title>
<path fill="none" stroke="midnightblue" d="M703.402,-705.886C720.111,-711.432 739.23,-717.777 754.124,-722.72"/>
<polygon fill="midnightblue" stroke="midnightblue" points="704.487,-702.559 693.893,-702.731 702.282,-709.202 704.487,-702.559"/>
</g>
<!-- Node38 -->
<g id="node38" class="node"><title>Node38</title>
<g id="a_node38"><a xlink:href="../../db/d46/ldebug_8h.html#a6f27f64630215e18a11be9ba21d3c4bf" target="_top" xlink:title="luaG_runerror">
<polygon fill="none" stroke="red" points="744,-398.642 744,-417.642 817,-417.642 817,-398.642 744,-398.642"/>
<text text-anchor="middle" x="780.5" y="-405.642" font-family="Helvetica,sans-Serif" font-size="10.00">luaG_runerror</text>
</a>
</g>
</g>
<!-- Node33&#45;&gt;Node38 -->
<g id="edge44" class="edge"><title>Node33&#45;&gt;Node38</title>
<path fill="none" stroke="midnightblue" d="M672.709,-673.953C695.011,-618.442 759.057,-459.027 775.575,-417.911"/>
<polygon fill="midnightblue" stroke="midnightblue" points="669.422,-672.747 668.941,-683.331 675.917,-675.357 669.422,-672.747"/>
</g>
<!-- Node34&#45;&gt;Node32 -->
<g id="edge42" class="edge"><title>Node34&#45;&gt;Node32</title>
<path fill="none" stroke="midnightblue" d="M802.155,-746.641C817.201,-757.564 838.31,-772.145 858,-783.142 867.51,-788.453 878.416,-793.517 887.891,-797.613"/>
<polygon fill="midnightblue" stroke="midnightblue" points="804.185,-743.789 794.054,-740.688 800.039,-749.43 804.185,-743.789"/>
</g>
<!-- Node35 -->
<g id="node35" class="node"><title>Node35</title>
<g id="a_node35"><a xlink:href="../../da/d29/lauxlib_8h.html#a994f73d7985c30672469a260d9e86ae6" target="_top" xlink:title="luaL_error">
<polygon fill="none" stroke="red" points="884,-683.642 884,-702.642 941,-702.642 941,-683.642 884,-683.642"/>
<text text-anchor="middle" x="912.5" y="-690.642" font-family="Helvetica,sans-Serif" font-size="10.00">luaL_error</text>
</a>
</g>
</g>
<!-- Node34&#45;&gt;Node35 -->
<g id="edge40" class="edge"><title>Node34&#45;&gt;Node35</title>
<path fill="none" stroke="midnightblue" d="M816.448,-720.926C837.578,-714.75 864.141,-706.985 883.811,-701.235"/>
<polygon fill="midnightblue" stroke="midnightblue" points="815.182,-717.65 806.565,-723.815 817.146,-724.369 815.182,-717.65"/>
</g>
<!-- Node36 -->
<g id="node36" class="node"><title>Node36</title>
<g id="a_node36"><a xlink:href="../../d8/dd3/lbaselib_8c.html#a2ecfa987569d0b4c1063f3e204e42dd2" target="_top" xlink:title="luaB_error">
<polygon fill="none" stroke="black" points="883,-721.642 883,-740.642 942,-740.642 942,-721.642 883,-721.642"/>
<text text-anchor="middle" x="912.5" y="-728.642" font-family="Helvetica,sans-Serif" font-size="10.00">luaB_error</text>
</a>
</g>
</g>
<!-- Node34&#45;&gt;Node36 -->
<g id="edge41" class="edge"><title>Node34&#45;&gt;Node36</title>
<path fill="none" stroke="midnightblue" d="M816.594,-731.142C837.372,-731.142 863.364,-731.142 882.891,-731.142"/>
<polygon fill="midnightblue" stroke="midnightblue" points="816.565,-727.642 806.565,-731.142 816.565,-734.642 816.565,-727.642"/>
</g>
<!-- Node37 -->
<g id="node37" class="node"><title>Node37</title>
<g id="a_node37"><a xlink:href="../../df/d2d/lcorolib_8c.html#a777abb20385a69ce4787f72bd90375a7" target="_top" xlink:title="luaB_auxwrap">
<polygon fill="none" stroke="red" points="1003,-873.642 1003,-892.642 1083,-892.642 1083,-873.642 1003,-873.642"/>
<text text-anchor="middle" x="1043" y="-880.642" font-family="Helvetica,sans-Serif" font-size="10.00">luaB_auxwrap</text>
</a>
</g>
</g>
<!-- Node34&#45;&gt;Node37 -->
<g id="edge43" class="edge"><title>Node34&#45;&gt;Node37</title>
<path fill="none" stroke="midnightblue" d="M816.673,-740.728C866.872,-754.594 954.418,-779.528 967,-788.142 1000.81,-811.289 1026.63,-854.293 1037.01,-873.473"/>
<polygon fill="midnightblue" stroke="midnightblue" points="817.437,-737.308 806.866,-738.029 815.579,-744.057 817.437,-737.308"/>
</g>
<!-- Node38&#45;&gt;Node6 -->
<g id="edge60" class="edge"><title>Node38&#45;&gt;Node6</title>
<path fill="none" stroke="midnightblue" d="M746.77,-421.581C714.894,-435.136 665.465,-457.403 625,-481.142 564.967,-516.359 499.167,-567.523 472.842,-588.561"/>
<polygon fill="midnightblue" stroke="midnightblue" points="748.214,-424.771 756.07,-417.662 745.496,-418.32 748.214,-424.771"/>
</g>
<!-- Node38&#45;&gt;Node7 -->
<g id="edge48" class="edge"><title>Node38&#45;&gt;Node7</title>
<path fill="none" stroke="midnightblue" d="M761.999,-424.693C723.882,-460.837 635.889,-544.823 625,-560.142 595.098,-602.207 573.16,-660.697 565.235,-683.5"/>
<polygon fill="midnightblue" stroke="midnightblue" points="764.478,-427.166 769.331,-417.748 759.664,-422.084 764.478,-427.166"/>
</g>
<!-- Node38&#45;&gt;Node9 -->
<g id="edge61" class="edge"><title>Node38&#45;&gt;Node9</title>
<path fill="none" stroke="midnightblue" d="M794.548,-426.178C808.298,-443.793 831.596,-469.96 858,-484.142 904.84,-509.299 966.627,-517.826 1005.34,-520.701"/>
<polygon fill="midnightblue" stroke="midnightblue" points="797.082,-423.725 788.262,-417.855 791.496,-427.944 797.082,-423.725"/>
</g>
<!-- Node38&#45;&gt;Node13 -->
<g id="edge62" class="edge"><title>Node38&#45;&gt;Node13</title>
<path fill="none" stroke="midnightblue" d="M782.982,-388.441C787.109,-348.882 802.415,-260.001 858,-218.142 900.457,-186.169 964.92,-187.595 1005.19,-192.599"/>
<polygon fill="midnightblue" stroke="midnightblue" points="779.476,-388.346 782.059,-398.621 786.448,-388.978 779.476,-388.346"/>
</g>
<!-- Node38&#45;&gt;Node19 -->
<g id="edge59" class="edge"><title>Node38&#45;&gt;Node19</title>
<path fill="none" stroke="midnightblue" d="M786.997,-388.77C798.368,-349.579 826.091,-258.385 858,-185.142 872.942,-150.845 895.174,-112.373 905.645,-94.8158"/>
<polygon fill="midnightblue" stroke="midnightblue" points="783.574,-388.011 784.177,-398.588 790.302,-389.943 783.574,-388.011"/>
</g>
<!-- Node39 -->
<g id="node39" class="node"><title>Node39</title>
<g id="a_node39"><a xlink:href="../../dc/d1e/ltable_8c.html#a4c78714b16a133fb409681f8ca4240be" target="_top" xlink:title="findindex">
<polygon fill="none" stroke="red" points="886,-303.642 886,-322.642 939,-322.642 939,-303.642 886,-303.642"/>
<text text-anchor="middle" x="912.5" y="-310.642" font-family="Helvetica,sans-Serif" font-size="10.00">findindex</text>
</a>
</g>
</g>
<!-- Node38&#45;&gt;Node39 -->
<g id="edge45" class="edge"><title>Node38&#45;&gt;Node39</title>
<path fill="none" stroke="midnightblue" d="M795.211,-390.583C809.326,-373.551 832.768,-348.02 858,-332.142 866.509,-326.787 876.731,-322.683 885.949,-319.683"/>
<polygon fill="midnightblue" stroke="midnightblue" points="792.281,-388.64 788.719,-398.618 797.726,-393.039 792.281,-388.64"/>
</g>
<!-- Node40 -->
<g id="node40" class="node"><title>Node40</title>
<g id="a_node40"><a xlink:href="../../da/dd2/lua_8h.html#a77807056ba032d64b2def2b57dc53d53" target="_top" xlink:title="lua_pushnumber">
<polygon fill="none" stroke="red" points="868.5,-265.642 868.5,-284.642 956.5,-284.642 956.5,-265.642 868.5,-265.642"/>
<text text-anchor="middle" x="912.5" y="-272.642" font-family="Helvetica,sans-Serif" font-size="10.00">lua_pushnumber</text>
</a>
</g>
</g>
<!-- Node38&#45;&gt;Node40 -->
<g id="edge46" class="edge"><title>Node38&#45;&gt;Node40</title>
<path fill="none" stroke="midnightblue" d="M789.581,-389.147C801.197,-364 824.914,-319.846 858,-294.142 862.981,-290.272 868.816,-287.149 874.766,-284.642"/>
<polygon fill="midnightblue" stroke="midnightblue" points="786.349,-387.803 785.476,-398.361 792.743,-390.651 786.349,-387.803"/>
</g>
<!-- Node41 -->
<g id="node41" class="node"><title>Node41</title>
<g id="a_node41"><a xlink:href="../../da/dd2/lua_8h.html#ab717ff0354e9c39199b16a1c412fa252" target="_top" xlink:title="lua_yieldk">
<polygon fill="none" stroke="black" points="883.5,-455.642 883.5,-474.642 941.5,-474.642 941.5,-455.642 883.5,-455.642"/>
<text text-anchor="middle" x="912.5" y="-462.642" font-family="Helvetica,sans-Serif" font-size="10.00">lua_yieldk</text>
</a>
</g>
</g>
<!-- Node38&#45;&gt;Node41 -->
<g id="edge47" class="edge"><title>Node38&#45;&gt;Node41</title>
<path fill="none" stroke="midnightblue" d="M808.087,-422.329C822.633,-429.841 841.089,-438.969 858,-446.142 866.167,-449.605 875.204,-452.982 883.489,-455.905"/>
<polygon fill="midnightblue" stroke="midnightblue" points="809.632,-419.188 799.147,-417.663 806.393,-425.393 809.632,-419.188"/>
</g>
<!-- Node42 -->
<g id="node42" class="node"><title>Node42</title>
<g id="a_node42"><a xlink:href="../../d2/dd9/ldo_8h.html#ab83418a7edbfafe87886f156aa6a9988" target="_top" xlink:title="luaD_growstack">
<polygon fill="none" stroke="red" points="869.5,-417.642 869.5,-436.642 955.5,-436.642 955.5,-417.642 869.5,-417.642"/>
<text text-anchor="middle" x="912.5" y="-424.642" font-family="Helvetica,sans-Serif" font-size="10.00">luaD_growstack</text>
</a>
</g>
</g>
<!-- Node38&#45;&gt;Node42 -->
<g id="edge49" class="edge"><title>Node38&#45;&gt;Node42</title>
<path fill="none" stroke="midnightblue" d="M827.16,-414.815C840.793,-416.808 855.675,-418.983 869.091,-420.943"/>
<polygon fill="midnightblue" stroke="midnightblue" points="827.424,-411.317 817.023,-413.334 826.412,-418.243 827.424,-411.317"/>
</g>
<!-- Node43 -->
<g id="node43" class="node"><title>Node43</title>
<g id="a_node43"><a xlink:href="../../db/d46/ldebug_8h.html#a7ae9c3f6343c93b4a8bb80e68706a6a3" target="_top" xlink:title="luaG_ordererror">
<polygon fill="none" stroke="red" points="872.5,-379.642 872.5,-398.642 952.5,-398.642 952.5,-379.642 872.5,-379.642"/>
<text text-anchor="middle" x="912.5" y="-386.642" font-family="Helvetica,sans-Serif" font-size="10.00">luaG_ordererror</text>
</a>
</g>
</g>
<!-- Node38&#45;&gt;Node43 -->
<g id="edge50" class="edge"><title>Node38&#45;&gt;Node43</title>
<path fill="none" stroke="midnightblue" d="M826.988,-401.493C841.786,-399.331 858.071,-396.95 872.364,-394.862"/>
<polygon fill="midnightblue" stroke="midnightblue" points="826.412,-398.04 817.023,-402.95 827.424,-404.967 826.412,-398.04"/>
</g>
<!-- Node44 -->
<g id="node44" class="node"><title>Node44</title>
<g id="a_node44"><a xlink:href="../../db/d46/ldebug_8h.html#a375161dd1513420561f20f0b4c7b7e66" target="_top" xlink:title="luaG_typeerror">
<polygon fill="none" stroke="red" points="873,-531.642 873,-550.642 952,-550.642 952,-531.642 873,-531.642"/>
<text text-anchor="middle" x="912.5" y="-538.642" font-family="Helvetica,sans-Serif" font-size="10.00">luaG_typeerror</text>
</a>
</g>
</g>
<!-- Node38&#45;&gt;Node44 -->
<g id="edge51" class="edge"><title>Node38&#45;&gt;Node44</title>
<path fill="none" stroke="midnightblue" d="M790.631,-426.951C802.996,-450.732 827.115,-491.638 858,-517.142 865.222,-523.105 874.162,-527.882 882.654,-531.555"/>
<polygon fill="midnightblue" stroke="midnightblue" points="793.695,-425.254 786.066,-417.903 787.446,-428.408 793.695,-425.254"/>
</g>
<!-- Node45 -->
<g id="node45" class="node"><title>Node45</title>
<g id="a_node45"><a xlink:href="../../d3/d44/ltable_8h.html#a61547e63b2d74aa68da53a7fd235e77e" target="_top" xlink:title="luaH_newkey">
<polygon fill="none" stroke="red" points="875,-227.642 875,-246.642 950,-246.642 950,-227.642 875,-227.642"/>
<text text-anchor="middle" x="912.5" y="-234.642" font-family="Helvetica,sans-Serif" font-size="10.00">luaH_newkey</text>
</a>
</g>
</g>
<!-- Node38&#45;&gt;Node45 -->
<g id="edge56" class="edge"><title>Node38&#45;&gt;Node45</title>
<path fill="none" stroke="midnightblue" d="M786.28,-388.449C795.067,-356.304 816.78,-292.506 858,-256.142 862.878,-251.838 868.797,-248.491 874.896,-245.892"/>
<polygon fill="midnightblue" stroke="midnightblue" points="782.821,-387.843 783.7,-398.402 789.597,-389.6 782.821,-387.843"/>
</g>
<!-- Node46 -->
<g id="node46" class="node"><title>Node46</title>
<g id="a_node46"><a xlink:href="../../d7/d3e/lmem_8h.html#a9adb7e11025b0b91454ae7949bc8d370" target="_top" xlink:title="luaM_growaux_">
<polygon fill="none" stroke="black" points="869.5,-341.642 869.5,-360.642 955.5,-360.642 955.5,-341.642 869.5,-341.642"/>
<text text-anchor="middle" x="912.5" y="-348.642" font-family="Helvetica,sans-Serif" font-size="10.00">luaM_growaux_</text>
</a>
</g>
</g>
<!-- Node38&#45;&gt;Node46 -->
<g id="edge58" class="edge"><title>Node38&#45;&gt;Node46</title>
<path fill="none" stroke="midnightblue" d="M808.087,-393.954C822.633,-386.442 841.089,-377.314 858,-370.142 865.894,-366.793 874.602,-363.526 882.658,-360.672"/>
<polygon fill="midnightblue" stroke="midnightblue" points="806.393,-390.89 799.147,-398.62 809.632,-397.096 806.393,-390.89"/>
</g>
<!-- Node44&#45;&gt;Node3 -->
<g id="edge52" class="edge"><title>Node44&#45;&gt;Node3</title>
<path fill="none" stroke="midnightblue" d="M863.579,-529.309C814.152,-518.156 734.677,-503.142 665,-503.142 459,-503.142 459,-503.142 459,-503.142 400.774,-503.142 333.223,-503.142 292.191,-503.142"/>
<polygon fill="midnightblue" stroke="midnightblue" points="862.824,-532.726 873.354,-531.553 864.39,-525.904 862.824,-532.726"/>
</g>
<!-- Node44&#45;&gt;Node9 -->
<g id="edge53" class="edge"><title>Node44&#45;&gt;Node9</title>
<path fill="none" stroke="midnightblue" d="M962.21,-533.939C976.481,-531.829 991.841,-529.558 1005.24,-527.578"/>
<polygon fill="midnightblue" stroke="midnightblue" points="961.435,-530.516 952.054,-535.441 962.459,-537.441 961.435,-530.516"/>
</g>
<!-- Node44&#45;&gt;Node13 -->
<g id="edge55" class="edge"><title>Node44&#45;&gt;Node13</title>
<path fill="none" stroke="midnightblue" d="M933.319,-524.615C944.717,-514.116 958.432,-499.621 967,-484.142 1021.39,-385.884 1037.65,-246.599 1041.18,-208.878"/>
<polygon fill="midnightblue" stroke="midnightblue" points="930.7,-522.26 925.536,-531.511 935.342,-527.499 930.7,-522.26"/>
</g>
<!-- Node44&#45;&gt;Node21 -->
<g id="edge54" class="edge"><title>Node44&#45;&gt;Node21</title>
<path fill="none" stroke="midnightblue" d="M938.617,-555.997C964.449,-571.275 1003.91,-594.616 1025.86,-607.594"/>
<polygon fill="midnightblue" stroke="midnightblue" points="940.164,-552.845 929.775,-550.767 936.6,-558.87 940.164,-552.845"/>
</g>
<!-- Node45&#45;&gt;Node13 -->
<g id="edge57" class="edge"><title>Node45&#45;&gt;Node13</title>
<path fill="none" stroke="midnightblue" d="M955.889,-224.606C973.37,-219.437 993.302,-213.543 1009.58,-208.728"/>
<polygon fill="midnightblue" stroke="midnightblue" points="954.523,-221.36 945.926,-227.553 956.508,-228.073 954.523,-221.36"/>
</g>
<!-- Node48 -->
<g id="node48" class="node"><title>Node48</title>
<g id="a_node48"><a xlink:href="../../da/dd2/lua_8h.html#a434479f022eda738b99000aad5ddd929" target="_top" xlink:title="lua_resume">
<polygon fill="none" stroke="black" points="748,-946.642 748,-965.642 813,-965.642 813,-946.642 748,-946.642"/>
<text text-anchor="middle" x="780.5" y="-953.642" font-family="Helvetica,sans-Serif" font-size="10.00">lua_resume</text>
</a>
</g>
</g>
<!-- Node47&#45;&gt;Node48 -->
<g id="edge65" class="edge"><title>Node47&#45;&gt;Node48</title>
<path fill="none" stroke="midnightblue" d="M589.84,-920.364C600.725,-923.751 613.367,-927.42 625,-930.142 667.111,-939.994 716.512,-947.637 747.902,-952.015"/>
<polygon fill="midnightblue" stroke="midnightblue" points="590.622,-916.94 580.032,-917.242 588.499,-923.61 590.622,-916.94"/>
</g>
<!-- Node47&#45;&gt;Node50 -->
<g id="edge68" class="edge"><title>Node47&#45;&gt;Node50</title>
<path fill="none" stroke="midnightblue" d="M590.279,-911.142C606.021,-911.142 625.36,-911.142 640.137,-911.142"/>
<polygon fill="midnightblue" stroke="midnightblue" points="590.057,-907.642 580.057,-911.142 590.057,-914.642 590.057,-907.642"/>
</g>
<!-- Node49 -->
<g id="node49" class="node"><title>Node49</title>
<g id="a_node49"><a xlink:href="../../df/d2d/lcorolib_8c.html#aaa37b3a30ab0c6daef7fae8951fef3e7" target="_top" xlink:title="auxresume">
<polygon fill="none" stroke="red" points="880.5,-987.642 880.5,-1006.64 944.5,-1006.64 944.5,-987.642 880.5,-987.642"/>
<text text-anchor="middle" x="912.5" y="-994.642" font-family="Helvetica,sans-Serif" font-size="10.00">auxresume</text>
</a>
</g>
</g>
<!-- Node48&#45;&gt;Node49 -->
<g id="edge66" class="edge"><title>Node48&#45;&gt;Node49</title>
<path fill="none" stroke="midnightblue" d="M821.342,-968.707C840.562,-974.769 863.252,-981.925 881.062,-987.542"/>
<polygon fill="midnightblue" stroke="midnightblue" points="822.241,-965.321 811.651,-965.651 820.136,-971.997 822.241,-965.321"/>
</g>
<!-- Node49&#45;&gt;Node37 -->
<g id="edge67" class="edge"><title>Node49&#45;&gt;Node37</title>
<path fill="none" stroke="midnightblue" d="M954.093,-985.518C958.641,-983.416 963.052,-980.971 967,-978.142 1000.3,-954.271 1026.39,-911.645 1036.93,-892.687"/>
<polygon fill="midnightblue" stroke="midnightblue" points="952.6,-982.347 944.665,-989.368 955.246,-988.828 952.6,-982.347"/>
</g>
<!-- Node50&#45;&gt;Node48 -->
<g id="edge69" class="edge"><title>Node50&#45;&gt;Node48</title>
<path fill="none" stroke="midnightblue" d="M697.033,-923.731C715.371,-930.938 738.023,-939.841 754.943,-946.491"/>
<polygon fill="midnightblue" stroke="midnightblue" points="698.209,-920.433 687.622,-920.032 695.648,-926.948 698.209,-920.433"/>
</g>
</g>
</svg>
