<?xml version="1.0" encoding="UTF-8" standalone="no"?>
<!DOCTYPE svg PUBLIC "-//W3C//DTD SVG 1.1//EN"
 "http://www.w3.org/Graphics/SVG/1.1/DTD/svg11.dtd">
<!-- Generated by graphviz version 2.38.0 (20140413.2041)
 -->
<!-- Title: lua_strx2number Pages: 1 -->
<svg width="1322pt" height="1016pt"
 viewBox="0.00 0.00 1322.00 1016.08" xmlns="http://www.w3.org/2000/svg" xmlns:xlink="http://www.w3.org/1999/xlink">
<g id="graph0" class="graph" transform="scale(1 1) rotate(0) translate(4 1012.08)">
<title>lua_strx2number</title>
<!-- Node1 -->
<g id="node1" class="node"><title>Node1</title>
<polygon fill="#bfbfbf" stroke="black" points="0,-152.575 0,-171.575 86,-171.575 86,-152.575 0,-152.575"/>
<text text-anchor="middle" x="43" y="-159.575" font-family="Helvetica,sans-Serif" font-size="10.00">lua_strx2number</text>
</g>
<!-- Node2 -->
<g id="node2" class="node"><title>Node2</title>
<g id="a_node2"><a xlink:href="../../d2/d51/lobject_8h.html#aff710490edeb13afd748950bd0516507" target="_top" xlink:title="luaO_str2d">
<polygon fill="none" stroke="black" points="122,-152.575 122,-171.575 185,-171.575 185,-152.575 122,-152.575"/>
<text text-anchor="middle" x="153.5" y="-159.575" font-family="Helvetica,sans-Serif" font-size="10.00">luaO_str2d</text>
</a>
</g>
</g>
<!-- Node1&#45;&gt;Node2 -->
<g id="edge1" class="edge"><title>Node1&#45;&gt;Node2</title>
<path fill="none" stroke="midnightblue" d="M96.4384,-162.075C105.18,-162.075 113.985,-162.075 121.943,-162.075"/>
<polygon fill="midnightblue" stroke="midnightblue" points="96.2596,-158.576 86.2596,-162.075 96.2596,-165.576 96.2596,-158.576"/>
</g>
<!-- Node3 -->
<g id="node3" class="node"><title>Node3</title>
<g id="a_node3"><a xlink:href="../../d5/dcd/lvm_8h.html#a035d5ac2c0d25fe24f2decd16b0e7db9" target="_top" xlink:title="luaV_tonumber">
<polygon fill="none" stroke="black" points="221,-152.575 221,-171.575 301,-171.575 301,-152.575 221,-152.575"/>
<text text-anchor="middle" x="261" y="-159.575" font-family="Helvetica,sans-Serif" font-size="10.00">luaV_tonumber</text>
</a>
</g>
</g>
<!-- Node2&#45;&gt;Node3 -->
<g id="edge2" class="edge"><title>Node2&#45;&gt;Node3</title>
<path fill="none" stroke="midnightblue" d="M195.072,-162.075C203.549,-162.075 212.471,-162.075 220.894,-162.075"/>
<polygon fill="midnightblue" stroke="midnightblue" points="195.015,-158.576 185.015,-162.075 195.015,-165.576 195.015,-158.576"/>
</g>
<!-- Node4 -->
<g id="node4" class="node"><title>Node4</title>
<g id="a_node4"><a xlink:href="../../db/d46/ldebug_8h.html#ab66c1eafd0acffec1bd270ae33e5f1ca" target="_top" xlink:title="luaG_aritherror">
<polygon fill="none" stroke="black" points="337,-133.575 337,-152.575 414,-152.575 414,-133.575 337,-133.575"/>
<text text-anchor="middle" x="375.5" y="-140.575" font-family="Helvetica,sans-Serif" font-size="10.00">luaG_aritherror</text>
</a>
</g>
</g>
<!-- Node3&#45;&gt;Node4 -->
<g id="edge3" class="edge"><title>Node3&#45;&gt;Node4</title>
<path fill="none" stroke="midnightblue" d="M310.982,-153.803C319.59,-152.349 328.43,-150.856 336.676,-149.464"/>
<polygon fill="midnightblue" stroke="midnightblue" points="310.309,-150.367 301.031,-155.484 311.475,-157.269 310.309,-150.367"/>
</g>
<!-- Node5 -->
<g id="node5" class="node"><title>Node5</title>
<g id="a_node5"><a xlink:href="../../d5/dcd/lvm_8h.html#a275e261afaec876cd16944b95c955642" target="_top" xlink:title="luaV_arith">
<polygon fill="none" stroke="black" points="450,-171.575 450,-190.575 509,-190.575 509,-171.575 450,-171.575"/>
<text text-anchor="middle" x="479.5" y="-178.575" font-family="Helvetica,sans-Serif" font-size="10.00">luaV_arith</text>
</a>
</g>
</g>
<!-- Node3&#45;&gt;Node5 -->
<g id="edge71" class="edge"><title>Node3&#45;&gt;Node5</title>
<path fill="none" stroke="midnightblue" d="M311.416,-166.412C354.243,-170.171 414.718,-175.478 449.946,-178.57"/>
<polygon fill="midnightblue" stroke="midnightblue" points="311.474,-162.904 301.207,-165.516 310.862,-169.877 311.474,-162.904"/>
</g>
<!-- Node4&#45;&gt;Node5 -->
<g id="edge4" class="edge"><title>Node4&#45;&gt;Node5</title>
<path fill="none" stroke="midnightblue" d="M411.711,-156.193C425.202,-161.219 440.328,-166.855 452.769,-171.49"/>
<polygon fill="midnightblue" stroke="midnightblue" points="412.832,-152.876 402.239,-152.664 410.388,-159.435 412.832,-152.876"/>
</g>
<!-- Node6 -->
<g id="node6" class="node"><title>Node6</title>
<g id="a_node6"><a xlink:href="../../da/dd2/lua_8h.html#ab0a8e0d4a119fa51c2785e25d5b5aa08" target="_top" xlink:title="lua_arith">
<polygon fill="none" stroke="black" points="556,-152.575 556,-171.575 608,-171.575 608,-152.575 556,-152.575"/>
<text text-anchor="middle" x="582" y="-159.575" font-family="Helvetica,sans-Serif" font-size="10.00">lua_arith</text>
</a>
</g>
</g>
<!-- Node5&#45;&gt;Node6 -->
<g id="edge5" class="edge"><title>Node5&#45;&gt;Node6</title>
<path fill="none" stroke="midnightblue" d="M519.077,-173.782C531.398,-171.453 544.709,-168.936 555.822,-166.835"/>
<polygon fill="midnightblue" stroke="midnightblue" points="518.206,-170.385 509.03,-175.682 519.507,-177.263 518.206,-170.385"/>
</g>
<!-- Node7 -->
<g id="node7" class="node"><title>Node7</title>
<g id="a_node7"><a xlink:href="../../d5/dcd/lvm_8h.html#ae93565adc36c6e2157dbbd875433ede1" target="_top" xlink:title="luaV_execute">
<polygon fill="none" stroke="black" points="545,-475.575 545,-494.575 619,-494.575 619,-475.575 545,-475.575"/>
<text text-anchor="middle" x="582" y="-482.575" font-family="Helvetica,sans-Serif" font-size="10.00">luaV_execute</text>
</a>
</g>
</g>
<!-- Node5&#45;&gt;Node7 -->
<g id="edge6" class="edge"><title>Node5&#45;&gt;Node7</title>
<path fill="none" stroke="midnightblue" d="M486.876,-200.363C506.207,-258.835 563.694,-432.726 577.832,-475.493"/>
<polygon fill="midnightblue" stroke="midnightblue" points="490.192,-199.242 483.73,-190.846 483.546,-201.439 490.192,-199.242"/>
</g>
<!-- Node8 -->
<g id="node8" class="node"><title>Node8</title>
<g id="a_node8"><a xlink:href="../../d2/dd9/ldo_8h.html#a7bb0b106d4012134156e0fa240f51228" target="_top" xlink:title="luaD_call">
<polygon fill="none" stroke="black" points="655,-380.575 655,-399.575 711,-399.575 711,-380.575 655,-380.575"/>
<text text-anchor="middle" x="683" y="-387.575" font-family="Helvetica,sans-Serif" font-size="10.00">luaD_call</text>
</a>
</g>
</g>
<!-- Node7&#45;&gt;Node8 -->
<g id="edge7" class="edge"><title>Node7&#45;&gt;Node8</title>
<path fill="none" stroke="midnightblue" d="M594.464,-467.056C608.522,-450.18 633.175,-425.511 655,-405.075 656.923,-403.275 658.941,-401.419 660.973,-399.615"/>
<polygon fill="midnightblue" stroke="midnightblue" points="591.567,-465.078 588.149,-475.106 597.075,-469.398 591.567,-465.078"/>
</g>
<!-- Node47 -->
<g id="node47" class="node"><title>Node47</title>
<g id="a_node47"><a xlink:href="../../d3/d08/ldo_8c.html#a3baab9d298c0c32cb74a9a079d7244de" target="_top" xlink:title="unroll">
<polygon fill="none" stroke="black" points="664,-988.575 664,-1007.58 702,-1007.58 702,-988.575 664,-988.575"/>
<text text-anchor="middle" x="683" y="-995.575" font-family="Helvetica,sans-Serif" font-size="10.00">unroll</text>
</a>
</g>
</g>
<!-- Node7&#45;&gt;Node47 -->
<g id="edge64" class="edge"><title>Node7&#45;&gt;Node47</title>
<path fill="none" stroke="midnightblue" d="M584.135,-505.181C588.998,-586.489 609.917,-890.596 655,-974.075 657.98,-979.594 662.752,-984.463 667.461,-988.348"/>
<polygon fill="midnightblue" stroke="midnightblue" points="587.609,-504.633 583.533,-494.854 580.621,-505.041 587.609,-504.633"/>
</g>
<!-- Node50 -->
<g id="node50" class="node"><title>Node50</title>
<g id="a_node50"><a xlink:href="../../d3/d08/ldo_8c.html#abd7632c715de5db6e7797b7fa3f7010f" target="_top" xlink:title="resume">
<polygon fill="none" stroke="black" points="762.5,-950.575 762.5,-969.575 809.5,-969.575 809.5,-950.575 762.5,-950.575"/>
<text text-anchor="middle" x="786" y="-957.575" font-family="Helvetica,sans-Serif" font-size="10.00">resume</text>
</a>
</g>
</g>
<!-- Node7&#45;&gt;Node50 -->
<g id="edge70" class="edge"><title>Node7&#45;&gt;Node50</title>
<path fill="none" stroke="midnightblue" d="M583.244,-504.92C584.637,-583.745 593.9,-873.475 655,-936.075 682.974,-964.736 733.214,-965.475 762.367,-963.041"/>
<polygon fill="midnightblue" stroke="midnightblue" points="586.743,-504.818 583.091,-494.872 579.744,-504.925 586.743,-504.818"/>
</g>
<!-- Node8&#45;&gt;Node7 -->
<g id="edge63" class="edge"><title>Node8&#45;&gt;Node7</title>
<path fill="none" stroke="midnightblue" d="M671.136,-407.706C666.164,-412.878 660.228,-418.181 655,-423.075 635.65,-441.194 614.077,-462.64 599.635,-475.338"/>
<polygon fill="midnightblue" stroke="midnightblue" points="674.085,-409.641 677.916,-399.763 668.761,-405.096 674.085,-409.641"/>
</g>
<!-- Node9 -->
<g id="node9" class="node"><title>Node9</title>
<g id="a_node9"><a xlink:href="../../dd/d4a/lvm_8c.html#aa904883a58699d9c6ef4d6f0f45037f6" target="_top" xlink:title="callTM">
<polygon fill="none" stroke="black" points="764,-295.575 764,-314.575 808,-314.575 808,-295.575 764,-295.575"/>
<text text-anchor="middle" x="786" y="-302.575" font-family="Helvetica,sans-Serif" font-size="10.00">callTM</text>
</a>
</g>
</g>
<!-- Node8&#45;&gt;Node9 -->
<g id="edge8" class="edge"><title>Node8&#45;&gt;Node9</title>
<path fill="none" stroke="midnightblue" d="M703.456,-373.701C724.247,-356.205 756.506,-329.056 773.549,-314.712"/>
<polygon fill="midnightblue" stroke="midnightblue" points="700.983,-371.208 695.586,-380.325 705.491,-376.564 700.983,-371.208"/>
</g>
<!-- Node24 -->
<g id="node24" class="node"><title>Node24</title>
<g id="a_node24"><a xlink:href="../../de/d27/lgc_8c.html#a929058f72c03750fa82374f6bfa639ee" target="_top" xlink:title="dothecall">
<polygon fill="none" stroke="black" points="759.5,-76.5755 759.5,-95.5755 812.5,-95.5755 812.5,-76.5755 759.5,-76.5755"/>
<text text-anchor="middle" x="786" y="-83.5755" font-family="Helvetica,sans-Serif" font-size="10.00">dothecall</text>
</a>
</g>
</g>
<!-- Node8&#45;&gt;Node24 -->
<g id="edge28" class="edge"><title>Node8&#45;&gt;Node24</title>
<path fill="none" stroke="midnightblue" d="M686.721,-370.294C693.112,-327.4 711.31,-223.239 747,-143.075 754.933,-125.257 768.297,-106.875 776.878,-95.9651"/>
<polygon fill="midnightblue" stroke="midnightblue" points="683.246,-369.869 685.286,-380.265 690.175,-370.866 683.246,-369.869"/>
</g>
<!-- Node28 -->
<g id="node28" class="node"><title>Node28</title>
<g id="a_node28"><a xlink:href="../../df/db6/lapi_8c.html#ac3926c93fb08234f9f47e24653124910" target="_top" xlink:title="f_call">
<polygon fill="none" stroke="black" points="767,-152.575 767,-171.575 805,-171.575 805,-152.575 767,-152.575"/>
<text text-anchor="middle" x="786" y="-159.575" font-family="Helvetica,sans-Serif" font-size="10.00">f_call</text>
</a>
</g>
</g>
<!-- Node8&#45;&gt;Node28 -->
<g id="edge32" class="edge"><title>Node8&#45;&gt;Node28</title>
<path fill="none" stroke="midnightblue" d="M691.032,-370.876C702.072,-341.169 724.54,-282.444 747,-234.075 757.596,-211.257 771.828,-185.361 779.518,-171.7"/>
<polygon fill="midnightblue" stroke="midnightblue" points="687.683,-369.841 687.502,-380.434 694.249,-372.266 687.683,-369.841"/>
</g>
<!-- Node29 -->
<g id="node29" class="node"><title>Node29</title>
<g id="a_node29"><a xlink:href="../../da/dd2/lua_8h.html#a3c4de08aa665eaee4aabd330aa99a441" target="_top" xlink:title="lua_pcallk">
<polygon fill="none" stroke="black" points="873,-152.575 873,-171.575 932,-171.575 932,-152.575 873,-152.575"/>
<text text-anchor="middle" x="902.5" y="-159.575" font-family="Helvetica,sans-Serif" font-size="10.00">lua_pcallk</text>
</a>
</g>
</g>
<!-- Node8&#45;&gt;Node29 -->
<g id="edge38" class="edge"><title>Node8&#45;&gt;Node29</title>
<path fill="none" stroke="midnightblue" d="M693.36,-371.186C704.557,-349.512 724.617,-313.442 747,-286.075 790.61,-232.755 803.819,-219.485 861,-181.075 866.158,-177.611 872.047,-174.456 877.707,-171.756"/>
<polygon fill="midnightblue" stroke="midnightblue" points="690.136,-369.806 688.733,-380.308 696.378,-372.973 690.136,-369.806"/>
</g>
<!-- Node32 -->
<g id="node32" class="node"><title>Node32</title>
<g id="a_node32"><a xlink:href="../../da/dd2/lua_8h.html#aa6aba1fd89ac6f1c5ccfdfd12f826d80" target="_top" xlink:title="lua_callk">
<polygon fill="none" stroke="black" points="759.5,-494.575 759.5,-513.575 812.5,-513.575 812.5,-494.575 759.5,-494.575"/>
<text text-anchor="middle" x="786" y="-501.575" font-family="Helvetica,sans-Serif" font-size="10.00">lua_callk</text>
</a>
</g>
</g>
<!-- Node8&#45;&gt;Node32 -->
<g id="edge36" class="edge"><title>Node8&#45;&gt;Node32</title>
<path fill="none" stroke="midnightblue" d="M692.627,-408.702C703.046,-429.533 722.292,-463.21 747,-485.075 751.087,-488.693 755.987,-491.806 760.888,-494.405"/>
<polygon fill="midnightblue" stroke="midnightblue" points="695.739,-407.097 688.237,-399.616 689.436,-410.143 695.739,-407.097"/>
</g>
<!-- Node34 -->
<g id="node34" class="node"><title>Node34</title>
<g id="a_node34"><a xlink:href="../../db/d46/ldebug_8h.html#acd5ef9f67a8e9d08f6540636fdbeafe6" target="_top" xlink:title="luaG_errormsg">
<polygon fill="none" stroke="black" points="747,-456.575 747,-475.575 825,-475.575 825,-456.575 747,-456.575"/>
<text text-anchor="middle" x="786" y="-463.575" font-family="Helvetica,sans-Serif" font-size="10.00">luaG_errormsg</text>
</a>
</g>
</g>
<!-- Node8&#45;&gt;Node34 -->
<g id="edge39" class="edge"><title>Node8&#45;&gt;Node34</title>
<path fill="none" stroke="midnightblue" d="M704.82,-405.742C725.13,-421.025 755.367,-443.777 772.312,-456.528"/>
<polygon fill="midnightblue" stroke="midnightblue" points="706.887,-402.917 696.792,-399.701 702.678,-408.51 706.887,-402.917"/>
</g>
<!-- Node10 -->
<g id="node10" class="node"><title>Node10</title>
<g id="a_node10"><a xlink:href="../../d5/dcd/lvm_8h.html#adacdbccc9d8fab937a1b0dc058c8da12" target="_top" xlink:title="luaV_gettable">
<polygon fill="none" stroke="black" points="1127.5,-342.575 1127.5,-361.575 1202.5,-361.575 1202.5,-342.575 1127.5,-342.575"/>
<text text-anchor="middle" x="1165" y="-349.575" font-family="Helvetica,sans-Serif" font-size="10.00">luaV_gettable</text>
</a>
</g>
</g>
<!-- Node9&#45;&gt;Node10 -->
<g id="edge9" class="edge"><title>Node9&#45;&gt;Node10</title>
<path fill="none" stroke="midnightblue" d="M818.271,-299.903C831.424,-297.974 846.915,-296.023 861,-295.075 897.806,-292.6 907.407,-290.412 944,-295.075 1014.65,-304.079 1095.04,-328.723 1136.31,-342.476"/>
<polygon fill="midnightblue" stroke="midnightblue" points="817.653,-296.456 808.295,-301.425 818.709,-303.376 817.653,-296.456"/>
</g>
<!-- Node14 -->
<g id="node14" class="node"><title>Node14</title>
<g id="a_node14"><a xlink:href="../../d5/dcd/lvm_8h.html#a5885d48fd66eb236f8b8f6e4938cbcce" target="_top" xlink:title="luaV_settable">
<polygon fill="none" stroke="black" points="1127.5,-494.575 1127.5,-513.575 1202.5,-513.575 1202.5,-494.575 1127.5,-494.575"/>
<text text-anchor="middle" x="1165" y="-501.575" font-family="Helvetica,sans-Serif" font-size="10.00">luaV_settable</text>
</a>
</g>
</g>
<!-- Node9&#45;&gt;Node14 -->
<g id="edge14" class="edge"><title>Node9&#45;&gt;Node14</title>
<path fill="none" stroke="midnightblue" d="M817.529,-318.174C830.706,-323.421 846.416,-329.142 861,-333.075 960.187,-359.827 1004.87,-312.12 1089,-371.075 1133.72,-402.414 1155.03,-469.437 1161.65,-494.423"/>
<polygon fill="midnightblue" stroke="midnightblue" points="818.589,-314.827 808.007,-314.292 815.946,-321.308 818.589,-314.827"/>
</g>
<!-- Node18 -->
<g id="node18" class="node"><title>Node18</title>
<g id="a_node18"><a xlink:href="../../dd/d4a/lvm_8c.html#a5f9dd797eb313b8e117cb20546276732" target="_top" xlink:title="call_binTM">
<polygon fill="none" stroke="black" points="871.5,-190.575 871.5,-209.575 933.5,-209.575 933.5,-190.575 871.5,-190.575"/>
<text text-anchor="middle" x="902.5" y="-197.575" font-family="Helvetica,sans-Serif" font-size="10.00">call_binTM</text>
</a>
</g>
</g>
<!-- Node9&#45;&gt;Node18 -->
<g id="edge19" class="edge"><title>Node9&#45;&gt;Node18</title>
<path fill="none" stroke="midnightblue" d="M802.403,-287.675C822.118,-265.488 854.514,-229.35 861,-224.075 867.595,-218.713 875.515,-213.746 882.596,-209.739"/>
<polygon fill="midnightblue" stroke="midnightblue" points="799.566,-285.599 795.548,-295.402 804.802,-290.244 799.566,-285.599"/>
</g>
<!-- Node21 -->
<g id="node21" class="node"><title>Node21</title>
<g id="a_node21"><a xlink:href="../../d5/dcd/lvm_8h.html#ab77cced08254efde4e5dfb28b37a7f31" target="_top" xlink:title="luaV_equalobj_">
<polygon fill="none" stroke="black" points="861,-304.575 861,-323.575 944,-323.575 944,-304.575 861,-304.575"/>
<text text-anchor="middle" x="902.5" y="-311.575" font-family="Helvetica,sans-Serif" font-size="10.00">luaV_equalobj_</text>
</a>
</g>
</g>
<!-- Node9&#45;&gt;Node21 -->
<g id="edge24" class="edge"><title>Node9&#45;&gt;Node21</title>
<path fill="none" stroke="midnightblue" d="M818.359,-307.54C831.426,-308.567 846.772,-309.774 860.698,-310.868"/>
<polygon fill="midnightblue" stroke="midnightblue" points="818.245,-304.021 808.001,-306.726 817.696,-310.999 818.245,-304.021"/>
</g>
<!-- Node22 -->
<g id="node22" class="node"><title>Node22</title>
<g id="a_node22"><a xlink:href="../../d5/dcd/lvm_8h.html#a414b4b487239935324f2f16e1e7715db" target="_top" xlink:title="luaV_objlen">
<polygon fill="none" stroke="black" points="1131.5,-228.575 1131.5,-247.575 1198.5,-247.575 1198.5,-228.575 1131.5,-228.575"/>
<text text-anchor="middle" x="1165" y="-235.575" font-family="Helvetica,sans-Serif" font-size="10.00">luaV_objlen</text>
</a>
</g>
</g>
<!-- Node9&#45;&gt;Node22 -->
<g id="edge25" class="edge"><title>Node9&#45;&gt;Node22</title>
<path fill="none" stroke="midnightblue" d="M818.123,-295.894C856.033,-285.047 922.177,-267.199 980,-257.075 1032.51,-247.882 1094.29,-242.622 1131.24,-240.06"/>
<polygon fill="midnightblue" stroke="midnightblue" points="816.847,-292.62 808.21,-298.756 818.788,-299.345 816.847,-292.62"/>
</g>
<!-- Node10&#45;&gt;Node7 -->
<g id="edge13" class="edge"><title>Node10&#45;&gt;Node7</title>
<path fill="none" stroke="midnightblue" d="M1157.21,-371.187C1148.39,-396.782 1133.16,-443.765 1125,-485.075 1110.19,-560.046 1137.57,-768.077 1089,-827.075 1034.18,-893.662 989.749,-884.075 903.5,-884.075 785,-884.075 785,-884.075 785,-884.075 604.87,-884.075 585.325,-556.381 583.244,-494.938"/>
<polygon fill="midnightblue" stroke="midnightblue" points="1160.56,-372.201 1160.56,-361.606 1153.95,-369.892 1160.56,-372.201"/>
</g>
<!-- Node11 -->
<g id="node11" class="node"><title>Node11</title>
<g id="a_node11"><a xlink:href="../../da/dd2/lua_8h.html#a2b4a9010af0545ae0f822d7f081370d0" target="_top" xlink:title="lua_getglobal">
<polygon fill="none" stroke="red" points="1241,-342.575 1241,-361.575 1314,-361.575 1314,-342.575 1241,-342.575"/>
<text text-anchor="middle" x="1277.5" y="-349.575" font-family="Helvetica,sans-Serif" font-size="10.00">lua_getglobal</text>
</a>
</g>
</g>
<!-- Node10&#45;&gt;Node11 -->
<g id="edge10" class="edge"><title>Node10&#45;&gt;Node11</title>
<path fill="none" stroke="midnightblue" d="M1212.84,-352.075C1222.27,-352.075 1232.03,-352.075 1240.99,-352.075"/>
<polygon fill="midnightblue" stroke="midnightblue" points="1212.79,-348.576 1202.79,-352.075 1212.79,-355.576 1212.79,-348.576"/>
</g>
<!-- Node12 -->
<g id="node12" class="node"><title>Node12</title>
<g id="a_node12"><a xlink:href="../../da/dd2/lua_8h.html#a8d82fa181a3003e9a304040c0bbed9ac" target="_top" xlink:title="lua_gettable">
<polygon fill="none" stroke="red" points="1243.5,-304.575 1243.5,-323.575 1311.5,-323.575 1311.5,-304.575 1243.5,-304.575"/>
<text text-anchor="middle" x="1277.5" y="-311.575" font-family="Helvetica,sans-Serif" font-size="10.00">lua_gettable</text>
</a>
</g>
</g>
<!-- Node10&#45;&gt;Node12 -->
<g id="edge11" class="edge"><title>Node10&#45;&gt;Node12</title>
<path fill="none" stroke="midnightblue" d="M1203.72,-339.104C1218.44,-334.041 1235.02,-328.341 1248.63,-323.661"/>
<polygon fill="midnightblue" stroke="midnightblue" points="1202.2,-335.925 1193.88,-342.486 1204.48,-342.544 1202.2,-335.925"/>
</g>
<!-- Node13 -->
<g id="node13" class="node"><title>Node13</title>
<g id="a_node13"><a xlink:href="../../da/dd2/lua_8h.html#ac3112bb28ba217adc46f13da8e9e6585" target="_top" xlink:title="lua_getfield">
<polygon fill="none" stroke="red" points="1246,-380.575 1246,-399.575 1309,-399.575 1309,-380.575 1246,-380.575"/>
<text text-anchor="middle" x="1277.5" y="-387.575" font-family="Helvetica,sans-Serif" font-size="10.00">lua_getfield</text>
</a>
</g>
</g>
<!-- Node10&#45;&gt;Node13 -->
<g id="edge12" class="edge"><title>Node10&#45;&gt;Node13</title>
<path fill="none" stroke="midnightblue" d="M1203.72,-365.047C1218.44,-370.11 1235.02,-375.81 1248.63,-380.49"/>
<polygon fill="midnightblue" stroke="midnightblue" points="1204.48,-361.607 1193.88,-361.664 1202.2,-368.226 1204.48,-361.607"/>
</g>
<!-- Node14&#45;&gt;Node7 -->
<g id="edge18" class="edge"><title>Node14&#45;&gt;Node7</title>
<path fill="none" stroke="midnightblue" d="M1163.2,-523.782C1159.83,-596.178 1144.32,-845.95 1089,-898.075 1028.5,-955.086 986.632,-922.075 903.5,-922.075 785,-922.075 785,-922.075 785,-922.075 726.246,-922.075 696.338,-939.827 655,-898.075 595.982,-838.467 584.872,-551.38 583.244,-494.778"/>
<polygon fill="midnightblue" stroke="midnightblue" points="1166.7,-523.887 1163.64,-513.743 1159.7,-523.58 1166.7,-523.887"/>
</g>
<!-- Node15 -->
<g id="node15" class="node"><title>Node15</title>
<g id="a_node15"><a xlink:href="../../da/dd2/lua_8h.html#ac0ebe7d753b81f6249dde8cf0b8ea997" target="_top" xlink:title="lua_setglobal">
<polygon fill="none" stroke="red" points="1241,-456.575 1241,-475.575 1314,-475.575 1314,-456.575 1241,-456.575"/>
<text text-anchor="middle" x="1277.5" y="-463.575" font-family="Helvetica,sans-Serif" font-size="10.00">lua_setglobal</text>
</a>
</g>
</g>
<!-- Node14&#45;&gt;Node15 -->
<g id="edge15" class="edge"><title>Node14&#45;&gt;Node15</title>
<path fill="none" stroke="midnightblue" d="M1203.72,-491.104C1218.44,-486.041 1235.02,-480.341 1248.63,-475.661"/>
<polygon fill="midnightblue" stroke="midnightblue" points="1202.2,-487.925 1193.88,-494.486 1204.48,-494.544 1202.2,-487.925"/>
</g>
<!-- Node16 -->
<g id="node16" class="node"><title>Node16</title>
<g id="a_node16"><a xlink:href="../../da/dd2/lua_8h.html#aeda173d104e3a566ccaac89a1f64a5eb" target="_top" xlink:title="lua_settable">
<polygon fill="none" stroke="red" points="1243.5,-532.575 1243.5,-551.575 1311.5,-551.575 1311.5,-532.575 1243.5,-532.575"/>
<text text-anchor="middle" x="1277.5" y="-539.575" font-family="Helvetica,sans-Serif" font-size="10.00">lua_settable</text>
</a>
</g>
</g>
<!-- Node14&#45;&gt;Node16 -->
<g id="edge16" class="edge"><title>Node14&#45;&gt;Node16</title>
<path fill="none" stroke="midnightblue" d="M1203.72,-517.047C1218.44,-522.11 1235.02,-527.81 1248.63,-532.49"/>
<polygon fill="midnightblue" stroke="midnightblue" points="1204.48,-513.607 1193.88,-513.664 1202.2,-520.226 1204.48,-513.607"/>
</g>
<!-- Node17 -->
<g id="node17" class="node"><title>Node17</title>
<g id="a_node17"><a xlink:href="../../da/dd2/lua_8h.html#a9580a15c141cbe4bf2a63fea625c3878" target="_top" xlink:title="lua_setfield">
<polygon fill="none" stroke="red" points="1246,-494.575 1246,-513.575 1309,-513.575 1309,-494.575 1246,-494.575"/>
<text text-anchor="middle" x="1277.5" y="-501.575" font-family="Helvetica,sans-Serif" font-size="10.00">lua_setfield</text>
</a>
</g>
</g>
<!-- Node14&#45;&gt;Node17 -->
<g id="edge17" class="edge"><title>Node14&#45;&gt;Node17</title>
<path fill="none" stroke="midnightblue" d="M1212.83,-504.075C1223.96,-504.075 1235.56,-504.075 1245.76,-504.075"/>
<polygon fill="midnightblue" stroke="midnightblue" points="1212.79,-500.576 1202.79,-504.075 1212.79,-507.576 1212.79,-500.576"/>
</g>
<!-- Node18&#45;&gt;Node5 -->
<g id="edge23" class="edge"><title>Node18&#45;&gt;Node5</title>
<path fill="none" stroke="midnightblue" d="M861.219,-198.258C776.635,-194.44 582.316,-185.67 509.106,-182.366"/>
<polygon fill="midnightblue" stroke="midnightblue" points="861.304,-201.765 871.451,-198.719 861.619,-194.772 861.304,-201.765"/>
</g>
<!-- Node19 -->
<g id="node19" class="node"><title>Node19</title>
<g id="a_node19"><a xlink:href="../../dd/d4a/lvm_8c.html#a1d1301ff4a771ce4198673dd113d10a5" target="_top" xlink:title="call_orderTM">
<polygon fill="none" stroke="red" points="1000,-190.575 1000,-209.575 1069,-209.575 1069,-190.575 1000,-190.575"/>
<text text-anchor="middle" x="1034.5" y="-197.575" font-family="Helvetica,sans-Serif" font-size="10.00">call_orderTM</text>
</a>
</g>
</g>
<!-- Node18&#45;&gt;Node19 -->
<g id="edge20" class="edge"><title>Node18&#45;&gt;Node19</title>
<path fill="none" stroke="midnightblue" d="M943.841,-200.075C961.814,-200.075 982.74,-200.075 999.853,-200.075"/>
<polygon fill="midnightblue" stroke="midnightblue" points="943.651,-196.576 933.651,-200.075 943.651,-203.576 943.651,-196.576"/>
</g>
<!-- Node20 -->
<g id="node20" class="node"><title>Node20</title>
<g id="a_node20"><a xlink:href="../../d5/dcd/lvm_8h.html#aee84bfc563cb4bdd21a013218a289aa7" target="_top" xlink:title="luaV_concat">
<polygon fill="none" stroke="red" points="1000,-380.575 1000,-399.575 1069,-399.575 1069,-380.575 1000,-380.575"/>
<text text-anchor="middle" x="1034.5" y="-387.575" font-family="Helvetica,sans-Serif" font-size="10.00">luaV_concat</text>
</a>
</g>
</g>
<!-- Node18&#45;&gt;Node20 -->
<g id="edge21" class="edge"><title>Node18&#45;&gt;Node20</title>
<path fill="none" stroke="midnightblue" d="M915.859,-218.139C942.774,-257.476 1005.94,-349.795 1026.73,-380.184"/>
<polygon fill="midnightblue" stroke="midnightblue" points="918.661,-216.035 910.125,-209.759 912.884,-219.988 918.661,-216.035"/>
</g>
<!-- Node20&#45;&gt;Node7 -->
<g id="edge22" class="edge"><title>Node20&#45;&gt;Node7</title>
<path fill="none" stroke="midnightblue" d="M989.941,-398.302C933.711,-409.022 832.879,-428.588 747,-447.075 702.856,-456.578 652.262,-468.452 619.081,-476.373"/>
<polygon fill="midnightblue" stroke="midnightblue" points="990.739,-401.713 999.908,-396.405 989.43,-394.836 990.739,-401.713"/>
</g>
<!-- Node22&#45;&gt;Node7 -->
<g id="edge27" class="edge"><title>Node22&#45;&gt;Node7</title>
<path fill="none" stroke="midnightblue" d="M1163.45,-217.907C1161.08,-175.279 1149.06,-76.0916 1089,-29.0755 1023.74,22.0092 986.376,-10.0755 903.5,-10.0755 785,-10.0755 785,-10.0755 785,-10.0755 680.153,-10.0755 598.206,-406.943 584.896,-475.154"/>
<polygon fill="midnightblue" stroke="midnightblue" points="1159.96,-218.28 1163.88,-228.122 1166.95,-217.982 1159.96,-218.28"/>
</g>
<!-- Node23 -->
<g id="node23" class="node"><title>Node23</title>
<g id="a_node23"><a xlink:href="../../da/dd2/lua_8h.html#ac7ade66f92b5e325c42371926f879818" target="_top" xlink:title="lua_len">
<polygon fill="none" stroke="red" points="1254,-228.575 1254,-247.575 1301,-247.575 1301,-228.575 1254,-228.575"/>
<text text-anchor="middle" x="1277.5" y="-235.575" font-family="Helvetica,sans-Serif" font-size="10.00">lua_len</text>
</a>
</g>
</g>
<!-- Node22&#45;&gt;Node23 -->
<g id="edge26" class="edge"><title>Node22&#45;&gt;Node23</title>
<path fill="none" stroke="midnightblue" d="M1208.92,-238.075C1224.3,-238.075 1241.01,-238.075 1253.97,-238.075"/>
<polygon fill="midnightblue" stroke="midnightblue" points="1208.56,-234.576 1198.56,-238.075 1208.56,-241.576 1208.56,-234.576"/>
</g>
<!-- Node25 -->
<g id="node25" class="node"><title>Node25</title>
<g id="a_node25"><a xlink:href="../../de/d27/lgc_8c.html#ab9ec6b56580b9e66f41743e393e7e033" target="_top" xlink:title="GCTM">
<polygon fill="none" stroke="black" points="879.5,-76.5755 879.5,-95.5755 925.5,-95.5755 925.5,-76.5755 879.5,-76.5755"/>
<text text-anchor="middle" x="902.5" y="-83.5755" font-family="Helvetica,sans-Serif" font-size="10.00">GCTM</text>
</a>
</g>
</g>
<!-- Node24&#45;&gt;Node25 -->
<g id="edge29" class="edge"><title>Node24&#45;&gt;Node25</title>
<path fill="none" stroke="midnightblue" d="M822.838,-86.0755C841.347,-86.0755 863.344,-86.0755 879.364,-86.0755"/>
<polygon fill="midnightblue" stroke="midnightblue" points="822.696,-82.5756 812.696,-86.0755 822.696,-89.5756 822.696,-82.5756"/>
</g>
<!-- Node26 -->
<g id="node26" class="node"><title>Node26</title>
<g id="a_node26"><a xlink:href="../../de/d27/lgc_8c.html#a74f50e6006422d43686521fe765152dd" target="_top" xlink:title="callallpendingfinalizers">
<polygon fill="none" stroke="red" points="980,-76.5755 980,-95.5755 1089,-95.5755 1089,-76.5755 980,-76.5755"/>
<text text-anchor="middle" x="1034.5" y="-83.5755" font-family="Helvetica,sans-Serif" font-size="10.00">callallpendingfinalizers</text>
</a>
</g>
</g>
<!-- Node25&#45;&gt;Node26 -->
<g id="edge30" class="edge"><title>Node25&#45;&gt;Node26</title>
<path fill="none" stroke="midnightblue" d="M935.662,-86.0755C949.017,-86.0755 964.881,-86.0755 979.906,-86.0755"/>
<polygon fill="midnightblue" stroke="midnightblue" points="935.553,-82.5756 925.553,-86.0755 935.553,-89.5756 935.553,-82.5756"/>
</g>
<!-- Node27 -->
<g id="node27" class="node"><title>Node27</title>
<g id="a_node27"><a xlink:href="../../dc/d9c/lgc_8h.html#a19359957605d7c8eaf70803e5b77361f" target="_top" xlink:title="luaC_forcestep">
<polygon fill="none" stroke="red" points="994.5,-38.5755 994.5,-57.5755 1074.5,-57.5755 1074.5,-38.5755 994.5,-38.5755"/>
<text text-anchor="middle" x="1034.5" y="-45.5755" font-family="Helvetica,sans-Serif" font-size="10.00">luaC_forcestep</text>
</a>
</g>
</g>
<!-- Node25&#45;&gt;Node27 -->
<g id="edge31" class="edge"><title>Node25&#45;&gt;Node27</title>
<path fill="none" stroke="midnightblue" d="M935.343,-76.7676C955.153,-70.9768 980.576,-63.5454 1000.59,-57.6967"/>
<polygon fill="midnightblue" stroke="midnightblue" points="934.169,-73.4641 925.553,-79.6293 936.133,-80.183 934.169,-73.4641"/>
</g>
<!-- Node28&#45;&gt;Node29 -->
<g id="edge33" class="edge"><title>Node28&#45;&gt;Node29</title>
<path fill="none" stroke="midnightblue" d="M815.312,-162.075C832.797,-162.075 855.168,-162.075 872.736,-162.075"/>
<polygon fill="midnightblue" stroke="midnightblue" points="815.143,-158.576 805.143,-162.075 815.143,-165.576 815.143,-158.576"/>
</g>
<!-- Node30 -->
<g id="node30" class="node"><title>Node30</title>
<g id="a_node30"><a xlink:href="../../d8/dd3/lbaselib_8c.html#a1fb2725eed679431d070b2e9e7abc223" target="_top" xlink:title="luaB_pcall">
<polygon fill="none" stroke="black" points="1004,-152.575 1004,-171.575 1065,-171.575 1065,-152.575 1004,-152.575"/>
<text text-anchor="middle" x="1034.5" y="-159.575" font-family="Helvetica,sans-Serif" font-size="10.00">luaB_pcall</text>
</a>
</g>
</g>
<!-- Node29&#45;&gt;Node30 -->
<g id="edge34" class="edge"><title>Node29&#45;&gt;Node30</title>
<path fill="none" stroke="midnightblue" d="M942.211,-162.075C961.89,-162.075 985.434,-162.075 1003.68,-162.075"/>
<polygon fill="midnightblue" stroke="midnightblue" points="942.029,-158.576 932.029,-162.075 942.029,-165.576 942.029,-158.576"/>
</g>
<!-- Node31 -->
<g id="node31" class="node"><title>Node31</title>
<g id="a_node31"><a xlink:href="../../d8/dd3/lbaselib_8c.html#a5fbb0094fa1a56f0a4c2547f1ec4c5ab" target="_top" xlink:title="luaB_xpcall">
<polygon fill="none" stroke="black" points="1001.5,-114.575 1001.5,-133.575 1067.5,-133.575 1067.5,-114.575 1001.5,-114.575"/>
<text text-anchor="middle" x="1034.5" y="-121.575" font-family="Helvetica,sans-Serif" font-size="10.00">luaB_xpcall</text>
</a>
</g>
</g>
<!-- Node29&#45;&gt;Node31 -->
<g id="edge35" class="edge"><title>Node29&#45;&gt;Node31</title>
<path fill="none" stroke="midnightblue" d="M941.838,-150.869C960.776,-145.333 983.367,-138.73 1001.38,-133.464"/>
<polygon fill="midnightblue" stroke="midnightblue" points="940.645,-147.571 932.029,-153.736 942.609,-154.29 940.645,-147.571"/>
</g>
<!-- Node33 -->
<g id="node33" class="node"><title>Node33</title>
<g id="a_node33"><a xlink:href="../../d8/dd3/lbaselib_8c.html#a86a4e35d9c9ad4661a0dbbac3758c049" target="_top" xlink:title="luaB_dofile">
<polygon fill="none" stroke="black" points="1003.5,-722.575 1003.5,-741.575 1065.5,-741.575 1065.5,-722.575 1003.5,-722.575"/>
<text text-anchor="middle" x="1034.5" y="-729.575" font-family="Helvetica,sans-Serif" font-size="10.00">luaB_dofile</text>
</a>
</g>
</g>
<!-- Node32&#45;&gt;Node33 -->
<g id="edge37" class="edge"><title>Node32&#45;&gt;Node33</title>
<path fill="none" stroke="midnightblue" d="M799.224,-522.469C826.814,-562.64 897.944,-658.938 980,-713.075 987.075,-717.744 995.435,-721.42 1003.42,-724.243"/>
<polygon fill="midnightblue" stroke="midnightblue" points="801.952,-520.256 793.445,-513.941 796.158,-524.183 801.952,-520.256"/>
</g>
<!-- Node35 -->
<g id="node35" class="node"><title>Node35</title>
<g id="a_node35"><a xlink:href="../../da/dd2/lua_8h.html#aae6c05ddea7bd110a3e84595ef92e601" target="_top" xlink:title="lua_error">
<polygon fill="none" stroke="black" points="876.5,-760.575 876.5,-779.575 928.5,-779.575 928.5,-760.575 876.5,-760.575"/>
<text text-anchor="middle" x="902.5" y="-767.575" font-family="Helvetica,sans-Serif" font-size="10.00">lua_error</text>
</a>
</g>
</g>
<!-- Node34&#45;&gt;Node35 -->
<g id="edge40" class="edge"><title>Node34&#45;&gt;Node35</title>
<path fill="none" stroke="midnightblue" d="M821.86,-481.737C822.984,-482.785 824.038,-483.897 825,-485.075 896.604,-572.777 901.591,-721.454 901.616,-760.468"/>
<polygon fill="midnightblue" stroke="midnightblue" points="823.771,-478.798 813.637,-475.706 819.631,-484.443 823.771,-478.798"/>
</g>
<!-- Node39 -->
<g id="node39" class="node"><title>Node39</title>
<g id="a_node39"><a xlink:href="../../db/d46/ldebug_8h.html#a6f27f64630215e18a11be9ba21d3c4bf" target="_top" xlink:title="luaG_runerror">
<polygon fill="none" stroke="red" points="866,-494.575 866,-513.575 939,-513.575 939,-494.575 866,-494.575"/>
<text text-anchor="middle" x="902.5" y="-501.575" font-family="Helvetica,sans-Serif" font-size="10.00">luaG_runerror</text>
</a>
</g>
</g>
<!-- Node34&#45;&gt;Node39 -->
<g id="edge45" class="edge"><title>Node34&#45;&gt;Node39</title>
<path fill="none" stroke="midnightblue" d="M825.647,-478.901C841.01,-484 858.379,-489.765 872.616,-494.49"/>
<polygon fill="midnightblue" stroke="midnightblue" points="826.487,-475.493 815.893,-475.664 824.282,-482.136 826.487,-475.493"/>
</g>
<!-- Node35&#45;&gt;Node33 -->
<g id="edge43" class="edge"><title>Node35&#45;&gt;Node33</title>
<path fill="none" stroke="midnightblue" d="M938.381,-759.88C958.702,-753.939 984.067,-746.525 1003.49,-740.847"/>
<polygon fill="midnightblue" stroke="midnightblue" points="937.182,-756.584 928.565,-762.749 939.146,-763.302 937.182,-756.584"/>
</g>
<!-- Node36 -->
<g id="node36" class="node"><title>Node36</title>
<g id="a_node36"><a xlink:href="../../da/d29/lauxlib_8h.html#a994f73d7985c30672469a260d9e86ae6" target="_top" xlink:title="luaL_error">
<polygon fill="none" stroke="red" points="1006,-760.575 1006,-779.575 1063,-779.575 1063,-760.575 1006,-760.575"/>
<text text-anchor="middle" x="1034.5" y="-767.575" font-family="Helvetica,sans-Serif" font-size="10.00">luaL_error</text>
</a>
</g>
</g>
<!-- Node35&#45;&gt;Node36 -->
<g id="edge41" class="edge"><title>Node35&#45;&gt;Node36</title>
<path fill="none" stroke="midnightblue" d="M938.736,-770.075C959.819,-770.075 986.23,-770.075 1005.81,-770.075"/>
<polygon fill="midnightblue" stroke="midnightblue" points="938.565,-766.576 928.565,-770.075 938.565,-773.576 938.565,-766.576"/>
</g>
<!-- Node37 -->
<g id="node37" class="node"><title>Node37</title>
<g id="a_node37"><a xlink:href="../../d8/dd3/lbaselib_8c.html#a2ecfa987569d0b4c1063f3e204e42dd2" target="_top" xlink:title="luaB_error">
<polygon fill="none" stroke="black" points="1005,-798.575 1005,-817.575 1064,-817.575 1064,-798.575 1005,-798.575"/>
<text text-anchor="middle" x="1034.5" y="-805.575" font-family="Helvetica,sans-Serif" font-size="10.00">luaB_error</text>
</a>
</g>
</g>
<!-- Node35&#45;&gt;Node37 -->
<g id="edge42" class="edge"><title>Node35&#45;&gt;Node37</title>
<path fill="none" stroke="midnightblue" d="M938.31,-780.251C959.134,-786.338 985.274,-793.979 1004.89,-799.713"/>
<polygon fill="midnightblue" stroke="midnightblue" points="939.146,-776.849 928.565,-777.402 937.182,-783.567 939.146,-776.849"/>
</g>
<!-- Node38 -->
<g id="node38" class="node"><title>Node38</title>
<g id="a_node38"><a xlink:href="../../df/d2d/lcorolib_8c.html#a777abb20385a69ce4787f72bd90375a7" target="_top" xlink:title="luaB_auxwrap">
<polygon fill="none" stroke="red" points="1125,-893.575 1125,-912.575 1205,-912.575 1205,-893.575 1125,-893.575"/>
<text text-anchor="middle" x="1165" y="-900.575" font-family="Helvetica,sans-Serif" font-size="10.00">luaB_auxwrap</text>
</a>
</g>
</g>
<!-- Node35&#45;&gt;Node38 -->
<g id="edge44" class="edge"><title>Node35&#45;&gt;Node38</title>
<path fill="none" stroke="midnightblue" d="M922.772,-786.558C937.709,-798.793 959.287,-815.325 980,-827.075 1031.86,-856.494 1097.37,-880.774 1134.59,-893.483"/>
<polygon fill="midnightblue" stroke="midnightblue" points="924.725,-783.629 914.801,-779.919 920.245,-789.008 924.725,-783.629"/>
</g>
<!-- Node39&#45;&gt;Node7 -->
<g id="edge60" class="edge"><title>Node39&#45;&gt;Node7</title>
<path fill="none" stroke="midnightblue" d="M860.802,-516.131C849.329,-518.995 836.767,-521.636 825,-523.075 747.326,-532.577 656.291,-508.789 611.228,-494.657"/>
<polygon fill="midnightblue" stroke="midnightblue" points="861.767,-519.497 870.556,-513.581 859.996,-512.724 861.767,-519.497"/>
</g>
<!-- Node39&#45;&gt;Node8 -->
<g id="edge49" class="edge"><title>Node39&#45;&gt;Node8</title>
<path fill="none" stroke="midnightblue" d="M882.254,-487.548C867.33,-475.289 845.757,-458.748 825,-447.075 787.371,-425.916 740.293,-408.534 711.185,-398.735"/>
<polygon fill="midnightblue" stroke="midnightblue" points="880.298,-490.475 890.216,-494.202 884.787,-485.104 880.298,-490.475"/>
</g>
<!-- Node39&#45;&gt;Node10 -->
<g id="edge61" class="edge"><title>Node39&#45;&gt;Node10</title>
<path fill="none" stroke="midnightblue" d="M922.071,-487.686C936.926,-475.23 958.72,-458.369 980,-447.075 1025.32,-423.025 1043.8,-433.341 1089,-409.075 1114.07,-395.616 1139.71,-374.121 1153.56,-361.731"/>
<polygon fill="midnightblue" stroke="midnightblue" points="919.506,-485.275 914.183,-494.436 924.057,-490.593 919.506,-485.275"/>
</g>
<!-- Node39&#45;&gt;Node14 -->
<g id="edge62" class="edge"><title>Node39&#45;&gt;Node14</title>
<path fill="none" stroke="midnightblue" d="M949.211,-504.075C999.947,-504.075 1080.81,-504.075 1127.5,-504.075"/>
<polygon fill="midnightblue" stroke="midnightblue" points="949.175,-500.576 939.175,-504.075 949.175,-507.576 949.175,-500.576"/>
</g>
<!-- Node39&#45;&gt;Node20 -->
<g id="edge59" class="edge"><title>Node39&#45;&gt;Node20</title>
<path fill="none" stroke="midnightblue" d="M915.185,-486.014C928.765,-466.193 952.818,-434.483 980,-414.075 987.815,-408.208 997.293,-403.366 1006.09,-399.606"/>
<polygon fill="midnightblue" stroke="midnightblue" points="912.197,-484.187 909.549,-494.445 918.016,-488.076 912.197,-484.187"/>
</g>
<!-- Node40 -->
<g id="node40" class="node"><title>Node40</title>
<g id="a_node40"><a xlink:href="../../dc/d1e/ltable_8c.html#a4c78714b16a133fb409681f8ca4240be" target="_top" xlink:title="findindex">
<polygon fill="none" stroke="red" points="1008,-456.575 1008,-475.575 1061,-475.575 1061,-456.575 1008,-456.575"/>
<text text-anchor="middle" x="1034.5" y="-463.575" font-family="Helvetica,sans-Serif" font-size="10.00">findindex</text>
</a>
</g>
</g>
<!-- Node39&#45;&gt;Node40 -->
<g id="edge46" class="edge"><title>Node39&#45;&gt;Node40</title>
<path fill="none" stroke="midnightblue" d="M945.987,-491.656C966.345,-485.705 990.065,-478.772 1007.67,-473.626"/>
<polygon fill="midnightblue" stroke="midnightblue" points="944.921,-488.321 936.304,-494.486 946.885,-495.04 944.921,-488.321"/>
</g>
<!-- Node41 -->
<g id="node41" class="node"><title>Node41</title>
<g id="a_node41"><a xlink:href="../../da/dd2/lua_8h.html#a77807056ba032d64b2def2b57dc53d53" target="_top" xlink:title="lua_pushnumber">
<polygon fill="none" stroke="red" points="990.5,-646.575 990.5,-665.575 1078.5,-665.575 1078.5,-646.575 990.5,-646.575"/>
<text text-anchor="middle" x="1034.5" y="-653.575" font-family="Helvetica,sans-Serif" font-size="10.00">lua_pushnumber</text>
</a>
</g>
</g>
<!-- Node39&#45;&gt;Node41 -->
<g id="edge47" class="edge"><title>Node39&#45;&gt;Node41</title>
<path fill="none" stroke="midnightblue" d="M909.685,-523.313C919.865,-552.036 942.811,-606.066 980,-637.075 984.618,-640.926 990.073,-644.02 995.703,-646.5"/>
<polygon fill="midnightblue" stroke="midnightblue" points="912.932,-521.99 906.405,-513.644 906.303,-524.238 912.932,-521.99"/>
</g>
<!-- Node42 -->
<g id="node42" class="node"><title>Node42</title>
<g id="a_node42"><a xlink:href="../../da/dd2/lua_8h.html#ab717ff0354e9c39199b16a1c412fa252" target="_top" xlink:title="lua_yieldk">
<polygon fill="none" stroke="black" points="1005.5,-608.575 1005.5,-627.575 1063.5,-627.575 1063.5,-608.575 1005.5,-608.575"/>
<text text-anchor="middle" x="1034.5" y="-615.575" font-family="Helvetica,sans-Serif" font-size="10.00">lua_yieldk</text>
</a>
</g>
</g>
<!-- Node39&#45;&gt;Node42 -->
<g id="edge48" class="edge"><title>Node39&#45;&gt;Node42</title>
<path fill="none" stroke="midnightblue" d="M913.864,-522.321C926.794,-543.557 950.795,-578.355 980,-599.075 987.557,-604.437 996.777,-608.422 1005.42,-611.32"/>
<polygon fill="midnightblue" stroke="midnightblue" points="916.823,-520.448 908.724,-513.617 910.796,-524.007 916.823,-520.448"/>
</g>
<!-- Node43 -->
<g id="node43" class="node"><title>Node43</title>
<g id="a_node43"><a xlink:href="../../d2/dd9/ldo_8h.html#ab83418a7edbfafe87886f156aa6a9988" target="_top" xlink:title="luaD_growstack">
<polygon fill="none" stroke="red" points="991.5,-570.575 991.5,-589.575 1077.5,-589.575 1077.5,-570.575 991.5,-570.575"/>
<text text-anchor="middle" x="1034.5" y="-577.575" font-family="Helvetica,sans-Serif" font-size="10.00">luaD_growstack</text>
</a>
</g>
</g>
<!-- Node39&#45;&gt;Node43 -->
<g id="edge50" class="edge"><title>Node39&#45;&gt;Node43</title>
<path fill="none" stroke="midnightblue" d="M922.089,-520.43C936.954,-532.868 958.753,-549.721 980,-561.075 986.781,-564.699 994.396,-567.878 1001.71,-570.548"/>
<polygon fill="midnightblue" stroke="midnightblue" points="924.074,-517.523 914.195,-513.693 919.529,-522.847 924.074,-517.523"/>
</g>
<!-- Node44 -->
<g id="node44" class="node"><title>Node44</title>
<g id="a_node44"><a xlink:href="../../db/d46/ldebug_8h.html#a7ae9c3f6343c93b4a8bb80e68706a6a3" target="_top" xlink:title="luaG_ordererror">
<polygon fill="none" stroke="red" points="994.5,-532.575 994.5,-551.575 1074.5,-551.575 1074.5,-532.575 994.5,-532.575"/>
<text text-anchor="middle" x="1034.5" y="-539.575" font-family="Helvetica,sans-Serif" font-size="10.00">luaG_ordererror</text>
</a>
</g>
</g>
<!-- Node39&#45;&gt;Node44 -->
<g id="edge51" class="edge"><title>Node39&#45;&gt;Node44</title>
<path fill="none" stroke="midnightblue" d="M946.384,-516.611C964.069,-521.78 984.234,-527.675 1000.71,-532.49"/>
<polygon fill="midnightblue" stroke="midnightblue" points="946.885,-513.111 936.304,-513.664 944.921,-519.83 946.885,-513.111"/>
</g>
<!-- Node45 -->
<g id="node45" class="node"><title>Node45</title>
<g id="a_node45"><a xlink:href="../../db/d46/ldebug_8h.html#a375161dd1513420561f20f0b4c7b7e66" target="_top" xlink:title="luaG_typeerror">
<polygon fill="none" stroke="red" points="995,-266.575 995,-285.575 1074,-285.575 1074,-266.575 995,-266.575"/>
<text text-anchor="middle" x="1034.5" y="-273.575" font-family="Helvetica,sans-Serif" font-size="10.00">luaG_typeerror</text>
</a>
</g>
</g>
<!-- Node39&#45;&gt;Node45 -->
<g id="edge52" class="edge"><title>Node39&#45;&gt;Node45</title>
<path fill="none" stroke="midnightblue" d="M914.001,-485.658C940.305,-439.525 1008.32,-320.237 1028.06,-285.623"/>
<polygon fill="midnightblue" stroke="midnightblue" points="910.833,-484.148 908.92,-494.569 916.914,-487.615 910.833,-484.148"/>
</g>
<!-- Node46 -->
<g id="node46" class="node"><title>Node46</title>
<g id="a_node46"><a xlink:href="../../d3/d44/ltable_8h.html#a61547e63b2d74aa68da53a7fd235e77e" target="_top" xlink:title="luaH_newkey">
<polygon fill="none" stroke="red" points="997,-684.575 997,-703.575 1072,-703.575 1072,-684.575 997,-684.575"/>
<text text-anchor="middle" x="1034.5" y="-691.575" font-family="Helvetica,sans-Serif" font-size="10.00">luaH_newkey</text>
</a>
</g>
</g>
<!-- Node39&#45;&gt;Node46 -->
<g id="edge57" class="edge"><title>Node39&#45;&gt;Node46</title>
<path fill="none" stroke="midnightblue" d="M910.079,-523.708C923.87,-563.846 956.473,-653.347 980,-675.075 984.779,-679.489 990.65,-682.89 996.732,-685.507"/>
<polygon fill="midnightblue" stroke="midnightblue" points="913.313,-522.346 906.782,-514.004 906.685,-524.598 913.313,-522.346"/>
</g>
<!-- Node45&#45;&gt;Node4 -->
<g id="edge53" class="edge"><title>Node45&#45;&gt;Node4</title>
<path fill="none" stroke="midnightblue" d="M1015.1,-259.324C1003.99,-248.566 990.084,-233.877 980,-219.075 958.956,-188.187 974.323,-164.926 944,-143.075 886.976,-101.983 857.287,-124.075 787,-124.075 581,-124.075 581,-124.075 581,-124.075 522.524,-124.075 455.043,-131.873 414.094,-137.478"/>
<polygon fill="midnightblue" stroke="midnightblue" points="1012.92,-262.085 1022.59,-266.409 1017.73,-256.997 1012.92,-262.085"/>
</g>
<!-- Node45&#45;&gt;Node10 -->
<g id="edge54" class="edge"><title>Node45&#45;&gt;Node10</title>
<path fill="none" stroke="midnightblue" d="M1068.55,-289.749C1075.42,-292.913 1082.54,-296.428 1089,-300.075 1112.18,-313.162 1137.24,-331.467 1151.72,-342.505"/>
<polygon fill="midnightblue" stroke="midnightblue" points="1069.96,-286.548 1059.4,-285.675 1067.11,-292.942 1069.96,-286.548"/>
</g>
<!-- Node45&#45;&gt;Node14 -->
<g id="edge56" class="edge"><title>Node45&#45;&gt;Node14</title>
<path fill="none" stroke="midnightblue" d="M1052.76,-293.299C1064.04,-305.177 1078.56,-321.718 1089,-338.075 1124.22,-393.254 1151.52,-467.733 1160.68,-494.223"/>
<polygon fill="midnightblue" stroke="midnightblue" points="1055.04,-290.619 1045.56,-285.88 1050.02,-295.494 1055.04,-290.619"/>
</g>
<!-- Node45&#45;&gt;Node22 -->
<g id="edge55" class="edge"><title>Node45&#45;&gt;Node22</title>
<path fill="none" stroke="midnightblue" d="M1077.89,-263.54C1095.37,-258.371 1115.3,-252.476 1131.58,-247.661"/>
<polygon fill="midnightblue" stroke="midnightblue" points="1076.52,-260.294 1067.93,-266.486 1078.51,-267.007 1076.52,-260.294"/>
</g>
<!-- Node46&#45;&gt;Node14 -->
<g id="edge58" class="edge"><title>Node46&#45;&gt;Node14</title>
<path fill="none" stroke="midnightblue" d="M1081.01,-681.064C1083.88,-679.311 1086.58,-677.325 1089,-675.075 1139.08,-628.483 1157.56,-542.529 1162.5,-513.75"/>
<polygon fill="midnightblue" stroke="midnightblue" points="1079.33,-677.991 1072.02,-685.654 1082.52,-684.225 1079.33,-677.991"/>
</g>
<!-- Node48 -->
<g id="node48" class="node"><title>Node48</title>
<g id="a_node48"><a xlink:href="../../da/dd2/lua_8h.html#a434479f022eda738b99000aad5ddd929" target="_top" xlink:title="lua_resume">
<polygon fill="none" stroke="black" points="870,-950.575 870,-969.575 935,-969.575 935,-950.575 870,-950.575"/>
<text text-anchor="middle" x="902.5" y="-957.575" font-family="Helvetica,sans-Serif" font-size="10.00">lua_resume</text>
</a>
</g>
</g>
<!-- Node47&#45;&gt;Node48 -->
<g id="edge65" class="edge"><title>Node47&#45;&gt;Node48</title>
<path fill="none" stroke="midnightblue" d="M712.446,-995.168C741.029,-992.03 786.276,-986.47 825,-979.075 839.786,-976.252 855.99,-972.347 869.663,-968.811"/>
<polygon fill="midnightblue" stroke="midnightblue" points="711.925,-991.704 702.356,-996.251 712.672,-998.664 711.925,-991.704"/>
</g>
<!-- Node47&#45;&gt;Node50 -->
<g id="edge68" class="edge"><title>Node47&#45;&gt;Node50</title>
<path fill="none" stroke="midnightblue" d="M711.826,-987.606C727.648,-981.653 747.218,-974.291 762.137,-968.677"/>
<polygon fill="midnightblue" stroke="midnightblue" points="710.184,-984.485 702.057,-991.282 712.649,-991.036 710.184,-984.485"/>
</g>
<!-- Node49 -->
<g id="node49" class="node"><title>Node49</title>
<g id="a_node49"><a xlink:href="../../df/d2d/lcorolib_8c.html#aaa37b3a30ab0c6daef7fae8951fef3e7" target="_top" xlink:title="auxresume">
<polygon fill="none" stroke="red" points="1002.5,-950.575 1002.5,-969.575 1066.5,-969.575 1066.5,-950.575 1002.5,-950.575"/>
<text text-anchor="middle" x="1034.5" y="-957.575" font-family="Helvetica,sans-Serif" font-size="10.00">auxresume</text>
</a>
</g>
</g>
<!-- Node48&#45;&gt;Node49 -->
<g id="edge66" class="edge"><title>Node48&#45;&gt;Node49</title>
<path fill="none" stroke="midnightblue" d="M945.536,-960.075C964.058,-960.075 985.434,-960.075 1002.48,-960.075"/>
<polygon fill="midnightblue" stroke="midnightblue" points="945.302,-956.576 935.302,-960.075 945.302,-963.576 945.302,-956.576"/>
</g>
<!-- Node49&#45;&gt;Node38 -->
<g id="edge67" class="edge"><title>Node49&#45;&gt;Node38</title>
<path fill="none" stroke="midnightblue" d="M1066.2,-946.457C1089.71,-936.029 1121.55,-921.906 1142.42,-912.647"/>
<polygon fill="midnightblue" stroke="midnightblue" points="1064.73,-943.281 1057.01,-950.535 1067.57,-949.679 1064.73,-943.281"/>
</g>
<!-- Node50&#45;&gt;Node48 -->
<g id="edge69" class="edge"><title>Node50&#45;&gt;Node48</title>
<path fill="none" stroke="midnightblue" d="M819.929,-960.075C835.618,-960.075 854.3,-960.075 869.824,-960.075"/>
<polygon fill="midnightblue" stroke="midnightblue" points="819.622,-956.576 809.622,-960.075 819.621,-963.576 819.622,-956.576"/>
</g>
</g>
</svg>
