<?xml version="1.0" encoding="UTF-8" standalone="no"?>
<!DOCTYPE svg PUBLIC "-//W3C//DTD SVG 1.1//EN"
 "http://www.w3.org/Graphics/SVG/1.1/DTD/svg11.dtd">
<!-- Generated by graphviz version 2.38.0 (20140413.2041)
 -->
<!-- Title: readhexa Pages: 1 -->
<svg width="1415pt" height="954pt"
 viewBox="0.00 0.00 1415.00 953.97" xmlns="http://www.w3.org/2000/svg" xmlns:xlink="http://www.w3.org/1999/xlink">
<g id="graph0" class="graph" transform="scale(1 1) rotate(0) translate(4 949.965)">
<title>readhexa</title>
<!-- Node1 -->
<g id="node1" class="node"><title>Node1</title>
<polygon fill="#bfbfbf" stroke="black" points="0,-33.4652 0,-52.4652 57,-52.4652 57,-33.4652 0,-33.4652"/>
<text text-anchor="middle" x="28.5" y="-40.4652" font-family="Helvetica,sans-Serif" font-size="10.00">readhexa</text>
</g>
<!-- Node2 -->
<g id="node2" class="node"><title>Node2</title>
<g id="a_node2"><a xlink:href="../../d7/d9b/lobject_8c.html#a93f6167934a4c448d7bbd69a0222ae12" target="_top" xlink:title="lua_strx2number">
<polygon fill="none" stroke="black" points="93,-33.4652 93,-52.4652 179,-52.4652 179,-33.4652 93,-33.4652"/>
<text text-anchor="middle" x="136" y="-40.4652" font-family="Helvetica,sans-Serif" font-size="10.00">lua_strx2number</text>
</a>
</g>
</g>
<!-- Node1&#45;&gt;Node2 -->
<g id="edge1" class="edge"><title>Node1&#45;&gt;Node2</title>
<path fill="none" stroke="midnightblue" d="M67.3172,-42.9652C75.5674,-42.9652 84.3488,-42.9652 92.7587,-42.9652"/>
<polygon fill="midnightblue" stroke="midnightblue" points="67.2189,-39.4653 57.2189,-42.9652 67.2188,-46.4653 67.2189,-39.4653"/>
</g>
<!-- Node3 -->
<g id="node3" class="node"><title>Node3</title>
<g id="a_node3"><a xlink:href="../../d2/d51/lobject_8h.html#aff710490edeb13afd748950bd0516507" target="_top" xlink:title="luaO_str2d">
<polygon fill="none" stroke="black" points="215,-33.4652 215,-52.4652 278,-52.4652 278,-33.4652 215,-33.4652"/>
<text text-anchor="middle" x="246.5" y="-40.4652" font-family="Helvetica,sans-Serif" font-size="10.00">luaO_str2d</text>
</a>
</g>
</g>
<!-- Node2&#45;&gt;Node3 -->
<g id="edge2" class="edge"><title>Node2&#45;&gt;Node3</title>
<path fill="none" stroke="midnightblue" d="M189.438,-42.9652C198.18,-42.9652 206.985,-42.9652 214.943,-42.9652"/>
<polygon fill="midnightblue" stroke="midnightblue" points="189.26,-39.4653 179.26,-42.9652 189.26,-46.4653 189.26,-39.4653"/>
</g>
<!-- Node4 -->
<g id="node4" class="node"><title>Node4</title>
<g id="a_node4"><a xlink:href="../../d5/dcd/lvm_8h.html#a035d5ac2c0d25fe24f2decd16b0e7db9" target="_top" xlink:title="luaV_tonumber">
<polygon fill="none" stroke="black" points="314,-33.4652 314,-52.4652 394,-52.4652 394,-33.4652 314,-33.4652"/>
<text text-anchor="middle" x="354" y="-40.4652" font-family="Helvetica,sans-Serif" font-size="10.00">luaV_tonumber</text>
</a>
</g>
</g>
<!-- Node3&#45;&gt;Node4 -->
<g id="edge3" class="edge"><title>Node3&#45;&gt;Node4</title>
<path fill="none" stroke="midnightblue" d="M288.072,-42.9652C296.549,-42.9652 305.471,-42.9652 313.894,-42.9652"/>
<polygon fill="midnightblue" stroke="midnightblue" points="288.015,-39.4653 278.015,-42.9652 288.015,-46.4653 288.015,-39.4653"/>
</g>
<!-- Node5 -->
<g id="node5" class="node"><title>Node5</title>
<g id="a_node5"><a xlink:href="../../db/d46/ldebug_8h.html#ab66c1eafd0acffec1bd270ae33e5f1ca" target="_top" xlink:title="luaG_aritherror">
<polygon fill="none" stroke="black" points="430,-14.4652 430,-33.4652 507,-33.4652 507,-14.4652 430,-14.4652"/>
<text text-anchor="middle" x="468.5" y="-21.4652" font-family="Helvetica,sans-Serif" font-size="10.00">luaG_aritherror</text>
</a>
</g>
</g>
<!-- Node4&#45;&gt;Node5 -->
<g id="edge4" class="edge"><title>Node4&#45;&gt;Node5</title>
<path fill="none" stroke="midnightblue" d="M403.982,-34.6927C412.59,-33.2388 421.43,-31.7459 429.676,-30.3532"/>
<polygon fill="midnightblue" stroke="midnightblue" points="403.309,-31.2567 394.031,-36.3732 404.475,-38.159 403.309,-31.2567"/>
</g>
<!-- Node6 -->
<g id="node6" class="node"><title>Node6</title>
<g id="a_node6"><a xlink:href="../../d5/dcd/lvm_8h.html#a275e261afaec876cd16944b95c955642" target="_top" xlink:title="luaV_arith">
<polygon fill="none" stroke="black" points="543,-52.4652 543,-71.4652 602,-71.4652 602,-52.4652 543,-52.4652"/>
<text text-anchor="middle" x="572.5" y="-59.4652" font-family="Helvetica,sans-Serif" font-size="10.00">luaV_arith</text>
</a>
</g>
</g>
<!-- Node4&#45;&gt;Node6 -->
<g id="edge70" class="edge"><title>Node4&#45;&gt;Node6</title>
<path fill="none" stroke="midnightblue" d="M404.416,-47.3019C447.243,-51.0605 507.718,-56.3677 542.946,-59.4593"/>
<polygon fill="midnightblue" stroke="midnightblue" points="404.474,-43.7937 394.207,-46.4059 403.862,-50.7669 404.474,-43.7937"/>
</g>
<!-- Node5&#45;&gt;Node6 -->
<g id="edge5" class="edge"><title>Node5&#45;&gt;Node6</title>
<path fill="none" stroke="midnightblue" d="M504.711,-37.0832C518.202,-42.1091 533.328,-47.7443 545.769,-52.3793"/>
<polygon fill="midnightblue" stroke="midnightblue" points="505.832,-33.7656 495.239,-33.5542 503.388,-40.3251 505.832,-33.7656"/>
</g>
<!-- Node7 -->
<g id="node7" class="node"><title>Node7</title>
<g id="a_node7"><a xlink:href="../../da/dd2/lua_8h.html#ab0a8e0d4a119fa51c2785e25d5b5aa08" target="_top" xlink:title="lua_arith">
<polygon fill="none" stroke="black" points="649,-33.4652 649,-52.4652 701,-52.4652 701,-33.4652 649,-33.4652"/>
<text text-anchor="middle" x="675" y="-40.4652" font-family="Helvetica,sans-Serif" font-size="10.00">lua_arith</text>
</a>
</g>
</g>
<!-- Node6&#45;&gt;Node7 -->
<g id="edge6" class="edge"><title>Node6&#45;&gt;Node7</title>
<path fill="none" stroke="midnightblue" d="M612.077,-54.6721C624.398,-52.3428 637.709,-49.8261 648.822,-47.7252"/>
<polygon fill="midnightblue" stroke="midnightblue" points="611.206,-51.2746 602.03,-56.5714 612.507,-58.1527 611.206,-51.2746"/>
</g>
<!-- Node8 -->
<g id="node8" class="node"><title>Node8</title>
<g id="a_node8"><a xlink:href="../../d5/dcd/lvm_8h.html#ae93565adc36c6e2157dbbd875433ede1" target="_top" xlink:title="luaV_execute">
<polygon fill="none" stroke="black" points="638,-405.465 638,-424.465 712,-424.465 712,-405.465 638,-405.465"/>
<text text-anchor="middle" x="675" y="-412.465" font-family="Helvetica,sans-Serif" font-size="10.00">luaV_execute</text>
</a>
</g>
</g>
<!-- Node6&#45;&gt;Node8 -->
<g id="edge7" class="edge"><title>Node6&#45;&gt;Node8</title>
<path fill="none" stroke="midnightblue" d="M579.112,-81.6768C597.835,-147.442 657.74,-357.854 671.268,-405.369"/>
<polygon fill="midnightblue" stroke="midnightblue" points="582.397,-80.4343 576.293,-71.7749 575.665,-82.3511 582.397,-80.4343"/>
</g>
<!-- Node9 -->
<g id="node9" class="node"><title>Node9</title>
<g id="a_node9"><a xlink:href="../../d2/dd9/ldo_8h.html#a7bb0b106d4012134156e0fa240f51228" target="_top" xlink:title="luaD_call">
<polygon fill="none" stroke="black" points="748,-503.465 748,-522.465 804,-522.465 804,-503.465 748,-503.465"/>
<text text-anchor="middle" x="776" y="-510.465" font-family="Helvetica,sans-Serif" font-size="10.00">luaD_call</text>
</a>
</g>
</g>
<!-- Node8&#45;&gt;Node9 -->
<g id="edge8" class="edge"><title>Node8&#45;&gt;Node9</title>
<path fill="none" stroke="midnightblue" d="M698.121,-431.13C720.83,-451.723 754.755,-486.043 768.685,-503.197"/>
<polygon fill="midnightblue" stroke="midnightblue" points="700.413,-428.484 690.608,-424.47 695.769,-433.723 700.413,-428.484"/>
</g>
<!-- Node47 -->
<g id="node47" class="node"><title>Node47</title>
<g id="a_node47"><a xlink:href="../../d3/d08/ldo_8c.html#a3baab9d298c0c32cb74a9a079d7244de" target="_top" xlink:title="unroll">
<polygon fill="none" stroke="black" points="757,-926.465 757,-945.465 795,-945.465 795,-926.465 757,-926.465"/>
<text text-anchor="middle" x="776" y="-933.465" font-family="Helvetica,sans-Serif" font-size="10.00">unroll</text>
</a>
</g>
</g>
<!-- Node8&#45;&gt;Node47 -->
<g id="edge63" class="edge"><title>Node8&#45;&gt;Node47</title>
<path fill="none" stroke="midnightblue" d="M677.07,-434.867C681.74,-516.698 702.195,-826.913 748,-911.965 750.974,-917.487 755.744,-922.357 760.454,-926.242"/>
<polygon fill="midnightblue" stroke="midnightblue" points="680.543,-434.295 676.494,-424.505 673.554,-434.683 680.543,-434.295"/>
</g>
<!-- Node50 -->
<g id="node50" class="node"><title>Node50</title>
<g id="a_node50"><a xlink:href="../../d3/d08/ldo_8c.html#abd7632c715de5db6e7797b7fa3f7010f" target="_top" xlink:title="resume">
<polygon fill="none" stroke="black" points="855.5,-888.465 855.5,-907.465 902.5,-907.465 902.5,-888.465 855.5,-888.465"/>
<text text-anchor="middle" x="879" y="-895.465" font-family="Helvetica,sans-Serif" font-size="10.00">resume</text>
</a>
</g>
</g>
<!-- Node8&#45;&gt;Node50 -->
<g id="edge69" class="edge"><title>Node8&#45;&gt;Node50</title>
<path fill="none" stroke="midnightblue" d="M676.181,-434.642C677.332,-514.095 685.795,-810.06 748,-873.965 775.935,-902.663 826.189,-903.389 855.356,-900.943"/>
<polygon fill="midnightblue" stroke="midnightblue" points="679.68,-434.5 676.059,-424.543 672.68,-434.585 679.68,-434.5"/>
</g>
<!-- Node9&#45;&gt;Node8 -->
<g id="edge62" class="edge"><title>Node9&#45;&gt;Node8</title>
<path fill="none" stroke="midnightblue" d="M752.537,-496.489C729.763,-475.804 695.976,-441.6 682.193,-424.582"/>
<polygon fill="midnightblue" stroke="midnightblue" points="750.281,-499.167 760.082,-503.192 754.93,-493.934 750.281,-499.167"/>
</g>
<!-- Node10 -->
<g id="node10" class="node"><title>Node10</title>
<g id="a_node10"><a xlink:href="../../dd/d4a/lvm_8c.html#aa904883a58699d9c6ef4d6f0f45037f6" target="_top" xlink:title="callTM">
<polygon fill="none" stroke="black" points="857,-448.465 857,-467.465 901,-467.465 901,-448.465 857,-448.465"/>
<text text-anchor="middle" x="879" y="-455.465" font-family="Helvetica,sans-Serif" font-size="10.00">callTM</text>
</a>
</g>
</g>
<!-- Node9&#45;&gt;Node10 -->
<g id="edge9" class="edge"><title>Node9&#45;&gt;Node10</title>
<path fill="none" stroke="midnightblue" d="M803.414,-498.581C821.334,-488.823 844.536,-476.188 860.27,-467.62"/>
<polygon fill="midnightblue" stroke="midnightblue" points="801.701,-495.529 794.593,-503.385 805.049,-501.676 801.701,-495.529"/>
</g>
<!-- Node25 -->
<g id="node25" class="node"><title>Node25</title>
<g id="a_node25"><a xlink:href="../../de/d27/lgc_8c.html#a929058f72c03750fa82374f6bfa639ee" target="_top" xlink:title="dothecall">
<polygon fill="none" stroke="black" points="852.5,-736.465 852.5,-755.465 905.5,-755.465 905.5,-736.465 852.5,-736.465"/>
<text text-anchor="middle" x="879" y="-743.465" font-family="Helvetica,sans-Serif" font-size="10.00">dothecall</text>
</a>
</g>
</g>
<!-- Node9&#45;&gt;Node25 -->
<g id="edge29" class="edge"><title>Node9&#45;&gt;Node25</title>
<path fill="none" stroke="midnightblue" d="M780.329,-532.766C787.122,-569.324 804.985,-648.974 840,-706.965 846.841,-718.295 857.564,-728.897 865.878,-736.178"/>
<polygon fill="midnightblue" stroke="midnightblue" points="783.699,-531.727 778.505,-522.492 776.807,-532.95 783.699,-531.727"/>
</g>
<!-- Node29 -->
<g id="node29" class="node"><title>Node29</title>
<g id="a_node29"><a xlink:href="../../df/db6/lapi_8c.html#ac3926c93fb08234f9f47e24653124910" target="_top" xlink:title="f_call">
<polygon fill="none" stroke="black" points="860,-636.465 860,-655.465 898,-655.465 898,-636.465 860,-636.465"/>
<text text-anchor="middle" x="879" y="-643.465" font-family="Helvetica,sans-Serif" font-size="10.00">f_call</text>
</a>
</g>
</g>
<!-- Node9&#45;&gt;Node29 -->
<g id="edge33" class="edge"><title>Node9&#45;&gt;Node29</title>
<path fill="none" stroke="midnightblue" d="M787.731,-531.439C799.526,-551.155 819.53,-582.933 840,-607.965 848.387,-618.221 859.161,-628.791 867.094,-636.171"/>
<polygon fill="midnightblue" stroke="midnightblue" points="790.593,-529.401 782.494,-522.569 784.565,-532.96 790.593,-529.401"/>
</g>
<!-- Node30 -->
<g id="node30" class="node"><title>Node30</title>
<g id="a_node30"><a xlink:href="../../da/dd2/lua_8h.html#a3c4de08aa665eaee4aabd330aa99a441" target="_top" xlink:title="lua_pcallk">
<polygon fill="none" stroke="black" points="966,-688.465 966,-707.465 1025,-707.465 1025,-688.465 966,-688.465"/>
<text text-anchor="middle" x="995.5" y="-695.465" font-family="Helvetica,sans-Serif" font-size="10.00">lua_pcallk</text>
</a>
</g>
</g>
<!-- Node9&#45;&gt;Node30 -->
<g id="edge39" class="edge"><title>Node9&#45;&gt;Node30</title>
<path fill="none" stroke="midnightblue" d="M779.319,-532.715C784.259,-565.469 798.953,-630.8 840,-664.965 875.732,-694.707 931.878,-699.531 965.741,-699.395"/>
<polygon fill="midnightblue" stroke="midnightblue" points="782.758,-532.033 777.951,-522.592 775.821,-532.971 782.758,-532.033"/>
</g>
<!-- Node33 -->
<g id="node33" class="node"><title>Node33</title>
<g id="a_node33"><a xlink:href="../../da/dd2/lua_8h.html#aa6aba1fd89ac6f1c5ccfdfd12f826d80" target="_top" xlink:title="lua_callk">
<polygon fill="none" stroke="black" points="852.5,-579.465 852.5,-598.465 905.5,-598.465 905.5,-579.465 852.5,-579.465"/>
<text text-anchor="middle" x="879" y="-586.465" font-family="Helvetica,sans-Serif" font-size="10.00">lua_callk</text>
</a>
</g>
</g>
<!-- Node9&#45;&gt;Node33 -->
<g id="edge37" class="edge"><title>Node9&#45;&gt;Node33</title>
<path fill="none" stroke="midnightblue" d="M797.82,-528.632C818.13,-543.914 848.367,-566.667 865.312,-579.418"/>
<polygon fill="midnightblue" stroke="midnightblue" points="799.887,-525.807 789.792,-522.591 795.678,-531.4 799.887,-525.807"/>
</g>
<!-- Node35 -->
<g id="node35" class="node"><title>Node35</title>
<g id="a_node35"><a xlink:href="../../db/d46/ldebug_8h.html#acd5ef9f67a8e9d08f6540636fdbeafe6" target="_top" xlink:title="luaG_errormsg">
<polygon fill="none" stroke="black" points="840,-503.465 840,-522.465 918,-522.465 918,-503.465 840,-503.465"/>
<text text-anchor="middle" x="879" y="-510.465" font-family="Helvetica,sans-Serif" font-size="10.00">luaG_errormsg</text>
</a>
</g>
</g>
<!-- Node9&#45;&gt;Node35 -->
<g id="edge40" class="edge"><title>Node9&#45;&gt;Node35</title>
<path fill="none" stroke="midnightblue" d="M814.277,-512.965C822.617,-512.965 831.473,-512.965 839.848,-512.965"/>
<polygon fill="midnightblue" stroke="midnightblue" points="814.066,-509.465 804.066,-512.965 814.066,-516.465 814.066,-509.465"/>
</g>
<!-- Node11 -->
<g id="node11" class="node"><title>Node11</title>
<g id="a_node11"><a xlink:href="../../d5/dcd/lvm_8h.html#adacdbccc9d8fab937a1b0dc058c8da12" target="_top" xlink:title="luaV_gettable">
<polygon fill="none" stroke="black" points="1220.5,-489.465 1220.5,-508.465 1295.5,-508.465 1295.5,-489.465 1220.5,-489.465"/>
<text text-anchor="middle" x="1258" y="-496.465" font-family="Helvetica,sans-Serif" font-size="10.00">luaV_gettable</text>
</a>
</g>
</g>
<!-- Node10&#45;&gt;Node11 -->
<g id="edge10" class="edge"><title>Node10&#45;&gt;Node11</title>
<path fill="none" stroke="midnightblue" d="M900.991,-473.386C915.173,-482.814 934.753,-493.99 954,-498.965 1047.46,-523.125 1162.61,-512.649 1220.35,-504.778"/>
<polygon fill="midnightblue" stroke="midnightblue" points="902.726,-470.33 892.51,-467.525 898.747,-476.089 902.726,-470.33"/>
</g>
<!-- Node15 -->
<g id="node15" class="node"><title>Node15</title>
<g id="a_node15"><a xlink:href="../../d5/dcd/lvm_8h.html#a5885d48fd66eb236f8b8f6e4938cbcce" target="_top" xlink:title="luaV_settable">
<polygon fill="none" stroke="black" points="1220.5,-242.465 1220.5,-261.465 1295.5,-261.465 1295.5,-242.465 1220.5,-242.465"/>
<text text-anchor="middle" x="1258" y="-249.465" font-family="Helvetica,sans-Serif" font-size="10.00">luaV_settable</text>
</a>
</g>
</g>
<!-- Node10&#45;&gt;Node15 -->
<g id="edge15" class="edge"><title>Node10&#45;&gt;Node15</title>
<path fill="none" stroke="midnightblue" d="M911.619,-457.575C980.166,-456.136 1139.69,-449.405 1182,-417.965 1235.56,-378.166 1251.78,-291.203 1255.83,-261.86"/>
<polygon fill="midnightblue" stroke="midnightblue" points="911.364,-454.079 901.431,-457.763 911.494,-461.077 911.364,-454.079"/>
</g>
<!-- Node19 -->
<g id="node19" class="node"><title>Node19</title>
<g id="a_node19"><a xlink:href="../../dd/d4a/lvm_8c.html#a5f9dd797eb313b8e117cb20546276732" target="_top" xlink:title="call_binTM">
<polygon fill="none" stroke="black" points="964.5,-109.465 964.5,-128.465 1026.5,-128.465 1026.5,-109.465 964.5,-109.465"/>
<text text-anchor="middle" x="995.5" y="-116.465" font-family="Helvetica,sans-Serif" font-size="10.00">call_binTM</text>
</a>
</g>
</g>
<!-- Node10&#45;&gt;Node19 -->
<g id="edge20" class="edge"><title>Node10&#45;&gt;Node19</title>
<path fill="none" stroke="midnightblue" d="M886.535,-438.617C907.931,-375.269 975.418,-175.463 991.183,-128.785"/>
<polygon fill="midnightblue" stroke="midnightblue" points="883.187,-437.591 883.303,-448.185 889.819,-439.831 883.187,-437.591"/>
</g>
<!-- Node22 -->
<g id="node22" class="node"><title>Node22</title>
<g id="a_node22"><a xlink:href="../../d5/dcd/lvm_8h.html#ab77cced08254efde4e5dfb28b37a7f31" target="_top" xlink:title="luaV_equalobj_">
<polygon fill="none" stroke="black" points="954,-470.465 954,-489.465 1037,-489.465 1037,-470.465 954,-470.465"/>
<text text-anchor="middle" x="995.5" y="-477.465" font-family="Helvetica,sans-Serif" font-size="10.00">luaV_equalobj_</text>
</a>
</g>
</g>
<!-- Node10&#45;&gt;Node22 -->
<g id="edge25" class="edge"><title>Node10&#45;&gt;Node22</title>
<path fill="none" stroke="midnightblue" d="M910.968,-463.915C924.119,-466.442 939.632,-469.423 953.698,-472.126"/>
<polygon fill="midnightblue" stroke="midnightblue" points="911.482,-460.45 901.001,-462 910.161,-467.324 911.482,-460.45"/>
</g>
<!-- Node23 -->
<g id="node23" class="node"><title>Node23</title>
<g id="a_node23"><a xlink:href="../../d5/dcd/lvm_8h.html#a414b4b487239935324f2f16e1e7715db" target="_top" xlink:title="luaV_objlen">
<polygon fill="none" stroke="black" points="1224.5,-14.4652 1224.5,-33.4652 1291.5,-33.4652 1291.5,-14.4652 1224.5,-14.4652"/>
<text text-anchor="middle" x="1258" y="-21.4652" font-family="Helvetica,sans-Serif" font-size="10.00">luaV_objlen</text>
</a>
</g>
</g>
<!-- Node10&#45;&gt;Node23 -->
<g id="edge26" class="edge"><title>Node10&#45;&gt;Node23</title>
<path fill="none" stroke="midnightblue" d="M910.997,-450.546C980.356,-433.341 1144.9,-388.983 1182,-346.965 1203.77,-322.314 1246.43,-84.3364 1255.34,-33.4928"/>
<polygon fill="midnightblue" stroke="midnightblue" points="909.975,-447.193 901.098,-452.976 911.644,-453.991 909.975,-447.193"/>
</g>
<!-- Node11&#45;&gt;Node8 -->
<g id="edge14" class="edge"><title>Node11&#45;&gt;Node8</title>
<path fill="none" stroke="midnightblue" d="M1254.01,-518.904C1243.36,-588.704 1206.6,-819.019 1182,-840.965 1120.16,-896.139 1079.38,-859.965 996.5,-859.965 878,-859.965 878,-859.965 878,-859.965 679.889,-859.965 675.123,-489.75 675.816,-424.673"/>
<polygon fill="midnightblue" stroke="midnightblue" points="1257.5,-519.214 1255.54,-508.802 1250.58,-518.166 1257.5,-519.214"/>
</g>
<!-- Node12 -->
<g id="node12" class="node"><title>Node12</title>
<g id="a_node12"><a xlink:href="../../da/dd2/lua_8h.html#a2b4a9010af0545ae0f822d7f081370d0" target="_top" xlink:title="lua_getglobal">
<polygon fill="none" stroke="red" points="1334,-451.465 1334,-470.465 1407,-470.465 1407,-451.465 1334,-451.465"/>
<text text-anchor="middle" x="1370.5" y="-458.465" font-family="Helvetica,sans-Serif" font-size="10.00">lua_getglobal</text>
</a>
</g>
</g>
<!-- Node11&#45;&gt;Node12 -->
<g id="edge11" class="edge"><title>Node11&#45;&gt;Node12</title>
<path fill="none" stroke="midnightblue" d="M1296.72,-485.993C1311.44,-480.931 1328.02,-475.231 1341.63,-470.551"/>
<polygon fill="midnightblue" stroke="midnightblue" points="1295.2,-482.814 1286.88,-489.376 1297.48,-489.434 1295.2,-482.814"/>
</g>
<!-- Node13 -->
<g id="node13" class="node"><title>Node13</title>
<g id="a_node13"><a xlink:href="../../da/dd2/lua_8h.html#a8d82fa181a3003e9a304040c0bbed9ac" target="_top" xlink:title="lua_gettable">
<polygon fill="none" stroke="red" points="1336.5,-527.465 1336.5,-546.465 1404.5,-546.465 1404.5,-527.465 1336.5,-527.465"/>
<text text-anchor="middle" x="1370.5" y="-534.465" font-family="Helvetica,sans-Serif" font-size="10.00">lua_gettable</text>
</a>
</g>
</g>
<!-- Node11&#45;&gt;Node13 -->
<g id="edge12" class="edge"><title>Node11&#45;&gt;Node13</title>
<path fill="none" stroke="midnightblue" d="M1296.72,-511.937C1311.44,-517 1328.02,-522.699 1341.63,-527.379"/>
<polygon fill="midnightblue" stroke="midnightblue" points="1297.48,-508.496 1286.88,-508.554 1295.2,-515.116 1297.48,-508.496"/>
</g>
<!-- Node14 -->
<g id="node14" class="node"><title>Node14</title>
<g id="a_node14"><a xlink:href="../../da/dd2/lua_8h.html#ac3112bb28ba217adc46f13da8e9e6585" target="_top" xlink:title="lua_getfield">
<polygon fill="none" stroke="red" points="1339,-489.465 1339,-508.465 1402,-508.465 1402,-489.465 1339,-489.465"/>
<text text-anchor="middle" x="1370.5" y="-496.465" font-family="Helvetica,sans-Serif" font-size="10.00">lua_getfield</text>
</a>
</g>
</g>
<!-- Node11&#45;&gt;Node14 -->
<g id="edge13" class="edge"><title>Node11&#45;&gt;Node14</title>
<path fill="none" stroke="midnightblue" d="M1305.83,-498.965C1316.96,-498.965 1328.56,-498.965 1338.76,-498.965"/>
<polygon fill="midnightblue" stroke="midnightblue" points="1305.79,-495.465 1295.79,-498.965 1305.79,-502.465 1305.79,-495.465"/>
</g>
<!-- Node15&#45;&gt;Node8 -->
<g id="edge19" class="edge"><title>Node15&#45;&gt;Node8</title>
<path fill="none" stroke="midnightblue" d="M1248.67,-233.274C1237.33,-210.401 1214.62,-172.771 1182,-156.965 1138.4,-135.839 1119.49,-143.361 1073,-156.965 897.861,-208.211 727.929,-364.597 685.88,-405.233"/>
<polygon fill="midnightblue" stroke="midnightblue" points="1245.52,-234.795 1252.96,-242.34 1251.85,-231.803 1245.52,-234.795"/>
</g>
<!-- Node16 -->
<g id="node16" class="node"><title>Node16</title>
<g id="a_node16"><a xlink:href="../../da/dd2/lua_8h.html#ac0ebe7d753b81f6249dde8cf0b8ea997" target="_top" xlink:title="lua_setglobal">
<polygon fill="none" stroke="red" points="1334,-204.465 1334,-223.465 1407,-223.465 1407,-204.465 1334,-204.465"/>
<text text-anchor="middle" x="1370.5" y="-211.465" font-family="Helvetica,sans-Serif" font-size="10.00">lua_setglobal</text>
</a>
</g>
</g>
<!-- Node15&#45;&gt;Node16 -->
<g id="edge16" class="edge"><title>Node15&#45;&gt;Node16</title>
<path fill="none" stroke="midnightblue" d="M1296.72,-238.993C1311.44,-233.931 1328.02,-228.231 1341.63,-223.551"/>
<polygon fill="midnightblue" stroke="midnightblue" points="1295.2,-235.814 1286.88,-242.376 1297.48,-242.434 1295.2,-235.814"/>
</g>
<!-- Node17 -->
<g id="node17" class="node"><title>Node17</title>
<g id="a_node17"><a xlink:href="../../da/dd2/lua_8h.html#aeda173d104e3a566ccaac89a1f64a5eb" target="_top" xlink:title="lua_settable">
<polygon fill="none" stroke="red" points="1336.5,-280.465 1336.5,-299.465 1404.5,-299.465 1404.5,-280.465 1336.5,-280.465"/>
<text text-anchor="middle" x="1370.5" y="-287.465" font-family="Helvetica,sans-Serif" font-size="10.00">lua_settable</text>
</a>
</g>
</g>
<!-- Node15&#45;&gt;Node17 -->
<g id="edge17" class="edge"><title>Node15&#45;&gt;Node17</title>
<path fill="none" stroke="midnightblue" d="M1296.72,-264.937C1311.44,-270 1328.02,-275.699 1341.63,-280.379"/>
<polygon fill="midnightblue" stroke="midnightblue" points="1297.48,-261.496 1286.88,-261.554 1295.2,-268.116 1297.48,-261.496"/>
</g>
<!-- Node18 -->
<g id="node18" class="node"><title>Node18</title>
<g id="a_node18"><a xlink:href="../../da/dd2/lua_8h.html#a9580a15c141cbe4bf2a63fea625c3878" target="_top" xlink:title="lua_setfield">
<polygon fill="none" stroke="red" points="1339,-242.465 1339,-261.465 1402,-261.465 1402,-242.465 1339,-242.465"/>
<text text-anchor="middle" x="1370.5" y="-249.465" font-family="Helvetica,sans-Serif" font-size="10.00">lua_setfield</text>
</a>
</g>
</g>
<!-- Node15&#45;&gt;Node18 -->
<g id="edge18" class="edge"><title>Node15&#45;&gt;Node18</title>
<path fill="none" stroke="midnightblue" d="M1305.83,-251.965C1316.96,-251.965 1328.56,-251.965 1338.76,-251.965"/>
<polygon fill="midnightblue" stroke="midnightblue" points="1305.79,-248.465 1295.79,-251.965 1305.79,-255.465 1305.79,-248.465"/>
</g>
<!-- Node19&#45;&gt;Node6 -->
<g id="edge24" class="edge"><title>Node19&#45;&gt;Node6</title>
<path fill="none" stroke="midnightblue" d="M954.477,-113.546C870.031,-102.113 675.391,-75.7604 602.106,-65.8382"/>
<polygon fill="midnightblue" stroke="midnightblue" points="954.072,-117.023 964.451,-114.897 955.011,-110.087 954.072,-117.023"/>
</g>
<!-- Node20 -->
<g id="node20" class="node"><title>Node20</title>
<g id="a_node20"><a xlink:href="../../dd/d4a/lvm_8c.html#a1d1301ff4a771ce4198673dd113d10a5" target="_top" xlink:title="call_orderTM">
<polygon fill="none" stroke="red" points="1093,-52.4652 1093,-71.4652 1162,-71.4652 1162,-52.4652 1093,-52.4652"/>
<text text-anchor="middle" x="1127.5" y="-59.4652" font-family="Helvetica,sans-Serif" font-size="10.00">call_orderTM</text>
</a>
</g>
</g>
<!-- Node19&#45;&gt;Node20 -->
<g id="edge21" class="edge"><title>Node19&#45;&gt;Node20</title>
<path fill="none" stroke="midnightblue" d="M1023.09,-104.778C1037.63,-97.2657 1056.09,-88.1376 1073,-80.9652 1080.89,-77.6169 1089.6,-74.35 1097.66,-71.4959"/>
<polygon fill="midnightblue" stroke="midnightblue" points="1021.39,-101.714 1014.15,-109.444 1024.63,-107.919 1021.39,-101.714"/>
</g>
<!-- Node21 -->
<g id="node21" class="node"><title>Node21</title>
<g id="a_node21"><a xlink:href="../../d5/dcd/lvm_8h.html#aee84bfc563cb4bdd21a013218a289aa7" target="_top" xlink:title="luaV_concat">
<polygon fill="none" stroke="red" points="1093,-90.4652 1093,-109.465 1162,-109.465 1162,-90.4652 1093,-90.4652"/>
<text text-anchor="middle" x="1127.5" y="-97.4652" font-family="Helvetica,sans-Serif" font-size="10.00">luaV_concat</text>
</a>
</g>
</g>
<!-- Node19&#45;&gt;Node21 -->
<g id="edge22" class="edge"><title>Node19&#45;&gt;Node21</title>
<path fill="none" stroke="midnightblue" d="M1036.59,-113.106C1054.62,-110.471 1075.66,-107.396 1092.85,-104.883"/>
<polygon fill="midnightblue" stroke="midnightblue" points="1036.04,-109.649 1026.65,-114.558 1037.05,-116.575 1036.04,-109.649"/>
</g>
<!-- Node21&#45;&gt;Node8 -->
<g id="edge23" class="edge"><title>Node21&#45;&gt;Node8</title>
<path fill="none" stroke="midnightblue" d="M1082.74,-89.9314C1004.28,-74.7811 839.39,-56.2938 748,-142.965 708.214,-180.697 682.838,-361.431 677.195,-405.338"/>
<polygon fill="midnightblue" stroke="midnightblue" points="1082.27,-93.4081 1092.77,-91.942 1083.65,-86.5446 1082.27,-93.4081"/>
</g>
<!-- Node23&#45;&gt;Node8 -->
<g id="edge28" class="edge"><title>Node23&#45;&gt;Node8</title>
<path fill="none" stroke="midnightblue" d="M1216.77,-11.8234C1205.62,-8.99264 1193.43,-6.39042 1182,-4.96519 1133.93,1.02927 1120.95,1.96796 1073,-4.96519 923.936,-26.5204 851.158,8.77538 748,-100.965 704.618,-147.115 681.639,-357.404 676.92,-405.256"/>
<polygon fill="midnightblue" stroke="midnightblue" points="1216.11,-15.2694 1226.68,-14.4602 1217.91,-8.50506 1216.11,-15.2694"/>
</g>
<!-- Node24 -->
<g id="node24" class="node"><title>Node24</title>
<g id="a_node24"><a xlink:href="../../da/dd2/lua_8h.html#ac7ade66f92b5e325c42371926f879818" target="_top" xlink:title="lua_len">
<polygon fill="none" stroke="red" points="1347,-14.4652 1347,-33.4652 1394,-33.4652 1394,-14.4652 1347,-14.4652"/>
<text text-anchor="middle" x="1370.5" y="-21.4652" font-family="Helvetica,sans-Serif" font-size="10.00">lua_len</text>
</a>
</g>
</g>
<!-- Node23&#45;&gt;Node24 -->
<g id="edge27" class="edge"><title>Node23&#45;&gt;Node24</title>
<path fill="none" stroke="midnightblue" d="M1301.92,-23.9652C1317.3,-23.9652 1334.01,-23.9652 1346.97,-23.9652"/>
<polygon fill="midnightblue" stroke="midnightblue" points="1301.56,-20.4653 1291.56,-23.9652 1301.56,-27.4653 1301.56,-20.4653"/>
</g>
<!-- Node26 -->
<g id="node26" class="node"><title>Node26</title>
<g id="a_node26"><a xlink:href="../../de/d27/lgc_8c.html#ab9ec6b56580b9e66f41743e393e7e033" target="_top" xlink:title="GCTM">
<polygon fill="none" stroke="black" points="972.5,-774.465 972.5,-793.465 1018.5,-793.465 1018.5,-774.465 972.5,-774.465"/>
<text text-anchor="middle" x="995.5" y="-781.465" font-family="Helvetica,sans-Serif" font-size="10.00">GCTM</text>
</a>
</g>
</g>
<!-- Node25&#45;&gt;Node26 -->
<g id="edge30" class="edge"><title>Node25&#45;&gt;Node26</title>
<path fill="none" stroke="midnightblue" d="M915.323,-757.688C933.937,-763.866 956.195,-771.253 972.364,-776.619"/>
<polygon fill="midnightblue" stroke="midnightblue" points="916.289,-754.321 905.696,-754.493 914.085,-760.965 916.289,-754.321"/>
</g>
<!-- Node27 -->
<g id="node27" class="node"><title>Node27</title>
<g id="a_node27"><a xlink:href="../../de/d27/lgc_8c.html#a74f50e6006422d43686521fe765152dd" target="_top" xlink:title="callallpendingfinalizers">
<polygon fill="none" stroke="red" points="1073,-774.465 1073,-793.465 1182,-793.465 1182,-774.465 1073,-774.465"/>
<text text-anchor="middle" x="1127.5" y="-781.465" font-family="Helvetica,sans-Serif" font-size="10.00">callallpendingfinalizers</text>
</a>
</g>
</g>
<!-- Node26&#45;&gt;Node27 -->
<g id="edge31" class="edge"><title>Node26&#45;&gt;Node27</title>
<path fill="none" stroke="midnightblue" d="M1028.66,-783.965C1042.02,-783.965 1057.88,-783.965 1072.91,-783.965"/>
<polygon fill="midnightblue" stroke="midnightblue" points="1028.55,-780.465 1018.55,-783.965 1028.55,-787.465 1028.55,-780.465"/>
</g>
<!-- Node28 -->
<g id="node28" class="node"><title>Node28</title>
<g id="a_node28"><a xlink:href="../../dc/d9c/lgc_8h.html#a19359957605d7c8eaf70803e5b77361f" target="_top" xlink:title="luaC_forcestep">
<polygon fill="none" stroke="red" points="1087.5,-812.465 1087.5,-831.465 1167.5,-831.465 1167.5,-812.465 1087.5,-812.465"/>
<text text-anchor="middle" x="1127.5" y="-819.465" font-family="Helvetica,sans-Serif" font-size="10.00">luaC_forcestep</text>
</a>
</g>
</g>
<!-- Node26&#45;&gt;Node28 -->
<g id="edge32" class="edge"><title>Node26&#45;&gt;Node28</title>
<path fill="none" stroke="midnightblue" d="M1028.34,-793.273C1048.15,-799.064 1073.58,-806.495 1093.59,-812.344"/>
<polygon fill="midnightblue" stroke="midnightblue" points="1029.13,-789.858 1018.55,-790.411 1027.17,-796.577 1029.13,-789.858"/>
</g>
<!-- Node29&#45;&gt;Node30 -->
<g id="edge34" class="edge"><title>Node29&#45;&gt;Node30</title>
<path fill="none" stroke="midnightblue" d="M907.45,-658.431C927.671,-667.615 954.77,-679.922 973.33,-688.351"/>
<polygon fill="midnightblue" stroke="midnightblue" points="908.695,-655.153 898.143,-654.205 905.801,-661.527 908.695,-655.153"/>
</g>
<!-- Node31 -->
<g id="node31" class="node"><title>Node31</title>
<g id="a_node31"><a xlink:href="../../d8/dd3/lbaselib_8c.html#a1fb2725eed679431d070b2e9e7abc223" target="_top" xlink:title="luaB_pcall">
<polygon fill="none" stroke="black" points="1097,-736.465 1097,-755.465 1158,-755.465 1158,-736.465 1097,-736.465"/>
<text text-anchor="middle" x="1127.5" y="-743.465" font-family="Helvetica,sans-Serif" font-size="10.00">luaB_pcall</text>
</a>
</g>
</g>
<!-- Node30&#45;&gt;Node31 -->
<g id="edge35" class="edge"><title>Node30&#45;&gt;Node31</title>
<path fill="none" stroke="midnightblue" d="M1030.87,-711.171C1044.03,-716.179 1059.19,-721.895 1073,-726.965 1081.51,-730.09 1090.82,-733.423 1099.24,-736.41"/>
<polygon fill="midnightblue" stroke="midnightblue" points="1031.85,-707.798 1021.26,-707.501 1029.35,-714.337 1031.85,-707.798"/>
</g>
<!-- Node32 -->
<g id="node32" class="node"><title>Node32</title>
<g id="a_node32"><a xlink:href="../../d8/dd3/lbaselib_8c.html#a5fbb0094fa1a56f0a4c2547f1ec4c5ab" target="_top" xlink:title="luaB_xpcall">
<polygon fill="none" stroke="black" points="1094.5,-698.465 1094.5,-717.465 1160.5,-717.465 1160.5,-698.465 1094.5,-698.465"/>
<text text-anchor="middle" x="1127.5" y="-705.465" font-family="Helvetica,sans-Serif" font-size="10.00">luaB_xpcall</text>
</a>
</g>
</g>
<!-- Node30&#45;&gt;Node32 -->
<g id="edge36" class="edge"><title>Node30&#45;&gt;Node32</title>
<path fill="none" stroke="midnightblue" d="M1035.1,-700.934C1053.98,-702.387 1076.45,-704.115 1094.38,-705.495"/>
<polygon fill="midnightblue" stroke="midnightblue" points="1035.27,-697.437 1025.03,-700.16 1034.73,-704.416 1035.27,-697.437"/>
</g>
<!-- Node34 -->
<g id="node34" class="node"><title>Node34</title>
<g id="a_node34"><a xlink:href="../../d8/dd3/lbaselib_8c.html#a86a4e35d9c9ad4661a0dbbac3758c049" target="_top" xlink:title="luaB_dofile">
<polygon fill="none" stroke="black" points="1096.5,-660.465 1096.5,-679.465 1158.5,-679.465 1158.5,-660.465 1096.5,-660.465"/>
<text text-anchor="middle" x="1127.5" y="-667.465" font-family="Helvetica,sans-Serif" font-size="10.00">luaB_dofile</text>
</a>
</g>
</g>
<!-- Node33&#45;&gt;Node34 -->
<g id="edge38" class="edge"><title>Node33&#45;&gt;Node34</title>
<path fill="none" stroke="midnightblue" d="M915.479,-600.624C964.543,-616.746 1052.18,-645.542 1097.53,-660.445"/>
<polygon fill="midnightblue" stroke="midnightblue" points="916.507,-597.277 905.914,-597.481 914.322,-603.927 916.507,-597.277"/>
</g>
<!-- Node36 -->
<g id="node36" class="node"><title>Node36</title>
<g id="a_node36"><a xlink:href="../../da/dd2/lua_8h.html#aae6c05ddea7bd110a3e84595ef92e601" target="_top" xlink:title="lua_error">
<polygon fill="none" stroke="black" points="969.5,-584.465 969.5,-603.465 1021.5,-603.465 1021.5,-584.465 969.5,-584.465"/>
<text text-anchor="middle" x="995.5" y="-591.465" font-family="Helvetica,sans-Serif" font-size="10.00">lua_error</text>
</a>
</g>
</g>
<!-- Node35&#45;&gt;Node36 -->
<g id="edge41" class="edge"><title>Node35&#45;&gt;Node36</title>
<path fill="none" stroke="midnightblue" d="M901.83,-528.408C925.155,-544.909 961.403,-570.552 980.933,-584.368"/>
<polygon fill="midnightblue" stroke="midnightblue" points="903.769,-525.493 893.584,-522.575 899.727,-531.208 903.769,-525.493"/>
</g>
<!-- Node40 -->
<g id="node40" class="node"><title>Node40</title>
<g id="a_node40"><a xlink:href="../../db/d46/ldebug_8h.html#a6f27f64630215e18a11be9ba21d3c4bf" target="_top" xlink:title="luaG_runerror">
<polygon fill="none" stroke="red" points="959,-289.465 959,-308.465 1032,-308.465 1032,-289.465 959,-289.465"/>
<text text-anchor="middle" x="995.5" y="-296.465" font-family="Helvetica,sans-Serif" font-size="10.00">luaG_runerror</text>
</a>
</g>
</g>
<!-- Node35&#45;&gt;Node40 -->
<g id="edge46" class="edge"><title>Node35&#45;&gt;Node40</title>
<path fill="none" stroke="midnightblue" d="M900.201,-496.673C906.468,-490.918 913.028,-484.092 918,-476.965 958.416,-419.035 984.002,-336.368 991.892,-308.53"/>
<polygon fill="midnightblue" stroke="midnightblue" points="897.799,-494.123 892.56,-503.332 902.398,-499.4 897.799,-494.123"/>
</g>
<!-- Node36&#45;&gt;Node34 -->
<g id="edge44" class="edge"><title>Node36&#45;&gt;Node34</title>
<path fill="none" stroke="midnightblue" d="M1017.16,-609.465C1032.2,-620.388 1053.31,-634.968 1073,-645.965 1082.51,-651.276 1093.42,-656.341 1102.89,-660.436"/>
<polygon fill="midnightblue" stroke="midnightblue" points="1019.18,-606.613 1009.05,-603.511 1015.04,-612.253 1019.18,-606.613"/>
</g>
<!-- Node37 -->
<g id="node37" class="node"><title>Node37</title>
<g id="a_node37"><a xlink:href="../../da/d29/lauxlib_8h.html#a994f73d7985c30672469a260d9e86ae6" target="_top" xlink:title="luaL_error">
<polygon fill="none" stroke="red" points="1099,-584.465 1099,-603.465 1156,-603.465 1156,-584.465 1099,-584.465"/>
<text text-anchor="middle" x="1127.5" y="-591.465" font-family="Helvetica,sans-Serif" font-size="10.00">luaL_error</text>
</a>
</g>
</g>
<!-- Node36&#45;&gt;Node37 -->
<g id="edge42" class="edge"><title>Node36&#45;&gt;Node37</title>
<path fill="none" stroke="midnightblue" d="M1031.74,-593.965C1052.82,-593.965 1079.23,-593.965 1098.81,-593.965"/>
<polygon fill="midnightblue" stroke="midnightblue" points="1031.57,-590.465 1021.57,-593.965 1031.57,-597.465 1031.57,-590.465"/>
</g>
<!-- Node38 -->
<g id="node38" class="node"><title>Node38</title>
<g id="a_node38"><a xlink:href="../../d8/dd3/lbaselib_8c.html#a2ecfa987569d0b4c1063f3e204e42dd2" target="_top" xlink:title="luaB_error">
<polygon fill="none" stroke="black" points="1098,-546.465 1098,-565.465 1157,-565.465 1157,-546.465 1098,-546.465"/>
<text text-anchor="middle" x="1127.5" y="-553.465" font-family="Helvetica,sans-Serif" font-size="10.00">luaB_error</text>
</a>
</g>
</g>
<!-- Node36&#45;&gt;Node38 -->
<g id="edge43" class="edge"><title>Node36&#45;&gt;Node38</title>
<path fill="none" stroke="midnightblue" d="M1031.31,-583.79C1052.13,-577.703 1078.27,-570.062 1097.89,-564.328"/>
<polygon fill="midnightblue" stroke="midnightblue" points="1030.18,-580.473 1021.57,-586.638 1032.15,-587.192 1030.18,-580.473"/>
</g>
<!-- Node39 -->
<g id="node39" class="node"><title>Node39</title>
<g id="a_node39"><a xlink:href="../../df/d2d/lcorolib_8c.html#a777abb20385a69ce4787f72bd90375a7" target="_top" xlink:title="luaB_auxwrap">
<polygon fill="none" stroke="red" points="1218,-755.465 1218,-774.465 1298,-774.465 1298,-755.465 1218,-755.465"/>
<text text-anchor="middle" x="1258" y="-762.465" font-family="Helvetica,sans-Serif" font-size="10.00">luaB_auxwrap</text>
</a>
</g>
</g>
<!-- Node36&#45;&gt;Node39 -->
<g id="edge45" class="edge"><title>Node36&#45;&gt;Node39</title>
<path fill="none" stroke="midnightblue" d="M1031.38,-603.308C1081.64,-616.976 1169.77,-641.793 1182,-650.965 1220.09,-679.536 1244.6,-733.52 1253.38,-755.397"/>
<polygon fill="midnightblue" stroke="midnightblue" points="1032.14,-599.887 1021.57,-600.651 1030.31,-606.643 1032.14,-599.887"/>
</g>
<!-- Node40&#45;&gt;Node8 -->
<g id="edge59" class="edge"><title>Node40&#45;&gt;Node8</title>
<path fill="none" stroke="midnightblue" d="M958.359,-312.128C893.59,-335.717 759.207,-384.661 702.335,-405.374"/>
<polygon fill="midnightblue" stroke="midnightblue" points="959.936,-315.279 968.134,-308.568 957.54,-308.701 959.936,-315.279"/>
</g>
<!-- Node40&#45;&gt;Node9 -->
<g id="edge50" class="edge"><title>Node40&#45;&gt;Node9</title>
<path fill="none" stroke="midnightblue" d="M974.745,-315.427C944.621,-340.843 885.865,-391.659 840,-438.965 818.859,-460.77 796.302,-488.496 784.771,-503.037"/>
<polygon fill="midnightblue" stroke="midnightblue" points="977.383,-317.782 982.789,-308.671 972.881,-312.422 977.383,-317.782"/>
</g>
<!-- Node40&#45;&gt;Node11 -->
<g id="edge60" class="edge"><title>Node40&#45;&gt;Node11</title>
<path fill="none" stroke="midnightblue" d="M1014.22,-315.672C1029.44,-329.784 1052.16,-350.299 1073,-366.965 1133.8,-415.577 1210.62,-467.955 1242.31,-489.194"/>
<polygon fill="midnightblue" stroke="midnightblue" points="1016.3,-312.821 1006.6,-308.555 1011.52,-317.938 1016.3,-312.821"/>
</g>
<!-- Node40&#45;&gt;Node15 -->
<g id="edge61" class="edge"><title>Node40&#45;&gt;Node15</title>
<path fill="none" stroke="midnightblue" d="M1015.22,-314.956C1029.87,-326.358 1051.34,-340.731 1073,-346.965 1119.56,-360.361 1138.4,-368.092 1182,-346.965 1219.44,-328.821 1243.83,-281.914 1252.96,-261.591"/>
<polygon fill="midnightblue" stroke="midnightblue" points="1017.41,-312.225 1007.43,-308.669 1013.02,-317.673 1017.41,-312.225"/>
</g>
<!-- Node40&#45;&gt;Node21 -->
<g id="edge58" class="edge"><title>Node40&#45;&gt;Node21</title>
<path fill="none" stroke="midnightblue" d="M1004.94,-279.669C1017.69,-251.459 1043.55,-197.874 1073,-156.965 1086,-138.901 1104.3,-120.589 1115.78,-109.76"/>
<polygon fill="midnightblue" stroke="midnightblue" points="1001.58,-278.6 1000.71,-289.158 1007.98,-281.448 1001.58,-278.6"/>
</g>
<!-- Node41 -->
<g id="node41" class="node"><title>Node41</title>
<g id="a_node41"><a xlink:href="../../dc/d1e/ltable_8c.html#a4c78714b16a133fb409681f8ca4240be" target="_top" xlink:title="findindex">
<polygon fill="none" stroke="red" points="1101,-280.465 1101,-299.465 1154,-299.465 1154,-280.465 1101,-280.465"/>
<text text-anchor="middle" x="1127.5" y="-287.465" font-family="Helvetica,sans-Serif" font-size="10.00">findindex</text>
</a>
</g>
</g>
<!-- Node40&#45;&gt;Node41 -->
<g id="edge47" class="edge"><title>Node40&#45;&gt;Node41</title>
<path fill="none" stroke="midnightblue" d="M1042.06,-295.811C1061.79,-294.445 1084.16,-292.896 1100.91,-291.737"/>
<polygon fill="midnightblue" stroke="midnightblue" points="1041.76,-292.324 1032.02,-296.506 1042.24,-299.307 1041.76,-292.324"/>
</g>
<!-- Node42 -->
<g id="node42" class="node"><title>Node42</title>
<g id="a_node42"><a xlink:href="../../da/dd2/lua_8h.html#a77807056ba032d64b2def2b57dc53d53" target="_top" xlink:title="lua_pushnumber">
<polygon fill="none" stroke="red" points="1083.5,-242.465 1083.5,-261.465 1171.5,-261.465 1171.5,-242.465 1083.5,-242.465"/>
<text text-anchor="middle" x="1127.5" y="-249.465" font-family="Helvetica,sans-Serif" font-size="10.00">lua_pushnumber</text>
</a>
</g>
</g>
<!-- Node40&#45;&gt;Node42 -->
<g id="edge48" class="edge"><title>Node40&#45;&gt;Node42</title>
<path fill="none" stroke="midnightblue" d="M1031.82,-285.958C1044.76,-281.212 1059.54,-275.82 1073,-270.965 1081.62,-267.856 1091.04,-264.498 1099.54,-261.483"/>
<polygon fill="midnightblue" stroke="midnightblue" points="1030.51,-282.71 1022.33,-289.442 1032.92,-289.281 1030.51,-282.71"/>
</g>
<!-- Node43 -->
<g id="node43" class="node"><title>Node43</title>
<g id="a_node43"><a xlink:href="../../da/dd2/lua_8h.html#ab717ff0354e9c39199b16a1c412fa252" target="_top" xlink:title="lua_yieldk">
<polygon fill="none" stroke="black" points="1098.5,-204.465 1098.5,-223.465 1156.5,-223.465 1156.5,-204.465 1098.5,-204.465"/>
<text text-anchor="middle" x="1127.5" y="-211.465" font-family="Helvetica,sans-Serif" font-size="10.00">lua_yieldk</text>
</a>
</g>
</g>
<!-- Node40&#45;&gt;Node43 -->
<g id="edge49" class="edge"><title>Node40&#45;&gt;Node43</title>
<path fill="none" stroke="midnightblue" d="M1012.74,-281.736C1027.34,-267.085 1049.97,-246.353 1073,-232.965 1080.84,-228.408 1089.95,-224.672 1098.41,-221.757"/>
<polygon fill="midnightblue" stroke="midnightblue" points="1009.98,-279.558 1005.51,-289.164 1014.99,-284.442 1009.98,-279.558"/>
</g>
<!-- Node44 -->
<g id="node44" class="node"><title>Node44</title>
<g id="a_node44"><a xlink:href="../../d2/dd9/ldo_8h.html#ab83418a7edbfafe87886f156aa6a9988" target="_top" xlink:title="luaD_growstack">
<polygon fill="none" stroke="red" points="1084.5,-166.465 1084.5,-185.465 1170.5,-185.465 1170.5,-166.465 1084.5,-166.465"/>
<text text-anchor="middle" x="1127.5" y="-173.465" font-family="Helvetica,sans-Serif" font-size="10.00">luaD_growstack</text>
</a>
</g>
</g>
<!-- Node40&#45;&gt;Node44 -->
<g id="edge51" class="edge"><title>Node40&#45;&gt;Node44</title>
<path fill="none" stroke="midnightblue" d="M1005.71,-280.339C1018.02,-257.216 1041.97,-218.019 1073,-194.965 1078.14,-191.145 1084.12,-188.039 1090.18,-185.532"/>
<polygon fill="midnightblue" stroke="midnightblue" points="1002.48,-278.952 1001.01,-289.444 1008.71,-282.158 1002.48,-278.952"/>
</g>
<!-- Node45 -->
<g id="node45" class="node"><title>Node45</title>
<g id="a_node45"><a xlink:href="../../db/d46/ldebug_8h.html#a7ae9c3f6343c93b4a8bb80e68706a6a3" target="_top" xlink:title="luaG_ordererror">
<polygon fill="none" stroke="red" points="1087.5,-318.465 1087.5,-337.465 1167.5,-337.465 1167.5,-318.465 1087.5,-318.465"/>
<text text-anchor="middle" x="1127.5" y="-325.465" font-family="Helvetica,sans-Serif" font-size="10.00">luaG_ordererror</text>
</a>
</g>
</g>
<!-- Node40&#45;&gt;Node45 -->
<g id="edge52" class="edge"><title>Node40&#45;&gt;Node45</title>
<path fill="none" stroke="midnightblue" d="M1041.99,-309.112C1056.79,-312.414 1073.07,-316.047 1087.36,-319.235"/>
<polygon fill="midnightblue" stroke="midnightblue" points="1042.55,-305.651 1032.02,-306.89 1041.02,-312.483 1042.55,-305.651"/>
</g>
<!-- Node46 -->
<g id="node46" class="node"><title>Node46</title>
<g id="a_node46"><a xlink:href="../../db/d46/ldebug_8h.html#a375161dd1513420561f20f0b4c7b7e66" target="_top" xlink:title="luaG_typeerror">
<polygon fill="none" stroke="red" points="1088,-14.4652 1088,-33.4652 1167,-33.4652 1167,-14.4652 1088,-14.4652"/>
<text text-anchor="middle" x="1127.5" y="-21.4652" font-family="Helvetica,sans-Serif" font-size="10.00">luaG_typeerror</text>
</a>
</g>
</g>
<!-- Node40&#45;&gt;Node46 -->
<g id="edge53" class="edge"><title>Node40&#45;&gt;Node46</title>
<path fill="none" stroke="midnightblue" d="M1001.21,-279.609C1015.13,-223.015 1056.15,-60.6964 1073,-42.9652 1077.14,-38.607 1082.35,-35.2469 1087.87,-32.6568"/>
<polygon fill="midnightblue" stroke="midnightblue" points="997.781,-278.899 998.803,-289.445 1004.58,-280.563 997.781,-278.899"/>
</g>
<!-- Node46&#45;&gt;Node5 -->
<g id="edge54" class="edge"><title>Node46&#45;&gt;Node5</title>
<path fill="none" stroke="midnightblue" d="M1077.41,-19.6114C1009.83,-14.0024 884.286,-4.96519 777,-4.96519 674,-4.96519 674,-4.96519 674,-4.96519 615.524,-4.96519 548.043,-12.7628 507.094,-18.3673"/>
<polygon fill="midnightblue" stroke="midnightblue" points="1077.49,-23.1304 1087.75,-20.4803 1078.08,-16.155 1077.49,-23.1304"/>
</g>
<!-- Node46&#45;&gt;Node11 -->
<g id="edge55" class="edge"><title>Node46&#45;&gt;Node11</title>
<path fill="none" stroke="midnightblue" d="M1176.13,-37.3595C1178.28,-39.0151 1180.26,-40.8753 1182,-42.9652 1214.77,-82.4251 1209.68,-220.351 1218,-270.965 1231.95,-355.765 1249.83,-458.114 1255.32,-489.416"/>
<polygon fill="midnightblue" stroke="midnightblue" points="1177.48,-34.0907 1167.11,-31.9342 1173.87,-40.0887 1177.48,-34.0907"/>
</g>
<!-- Node46&#45;&gt;Node15 -->
<g id="edge57" class="edge"><title>Node46&#45;&gt;Node15</title>
<path fill="none" stroke="midnightblue" d="M1176,-37.9934C1178.15,-39.487 1180.17,-41.1387 1182,-42.9652 1240.7,-101.476 1253.7,-209.122 1256.36,-242.102"/>
<polygon fill="midnightblue" stroke="midnightblue" points="1177.62,-34.8868 1167.2,-32.9816 1174.15,-40.9703 1177.62,-34.8868"/>
</g>
<!-- Node46&#45;&gt;Node23 -->
<g id="edge56" class="edge"><title>Node46&#45;&gt;Node23</title>
<path fill="none" stroke="midnightblue" d="M1177.13,-23.9652C1192.83,-23.9652 1209.84,-23.9652 1224.12,-23.9652"/>
<polygon fill="midnightblue" stroke="midnightblue" points="1177.05,-20.4653 1167.05,-23.9652 1177.05,-27.4653 1177.05,-20.4653"/>
</g>
<!-- Node48 -->
<g id="node48" class="node"><title>Node48</title>
<g id="a_node48"><a xlink:href="../../da/dd2/lua_8h.html#a434479f022eda738b99000aad5ddd929" target="_top" xlink:title="lua_resume">
<polygon fill="none" stroke="black" points="963,-888.465 963,-907.465 1028,-907.465 1028,-888.465 963,-888.465"/>
<text text-anchor="middle" x="995.5" y="-895.465" font-family="Helvetica,sans-Serif" font-size="10.00">lua_resume</text>
</a>
</g>
</g>
<!-- Node47&#45;&gt;Node48 -->
<g id="edge64" class="edge"><title>Node47&#45;&gt;Node48</title>
<path fill="none" stroke="midnightblue" d="M805.446,-933.058C834.029,-929.92 879.276,-924.36 918,-916.965 932.786,-914.142 948.99,-910.237 962.663,-906.701"/>
<polygon fill="midnightblue" stroke="midnightblue" points="804.925,-929.594 795.356,-934.141 805.672,-936.554 804.925,-929.594"/>
</g>
<!-- Node47&#45;&gt;Node50 -->
<g id="edge67" class="edge"><title>Node47&#45;&gt;Node50</title>
<path fill="none" stroke="midnightblue" d="M804.826,-925.496C820.648,-919.543 840.218,-912.18 855.137,-906.567"/>
<polygon fill="midnightblue" stroke="midnightblue" points="803.184,-922.374 795.057,-929.172 805.649,-928.926 803.184,-922.374"/>
</g>
<!-- Node49 -->
<g id="node49" class="node"><title>Node49</title>
<g id="a_node49"><a xlink:href="../../df/d2d/lcorolib_8c.html#aaa37b3a30ab0c6daef7fae8951fef3e7" target="_top" xlink:title="auxresume">
<polygon fill="none" stroke="red" points="1095.5,-888.465 1095.5,-907.465 1159.5,-907.465 1159.5,-888.465 1095.5,-888.465"/>
<text text-anchor="middle" x="1127.5" y="-895.465" font-family="Helvetica,sans-Serif" font-size="10.00">auxresume</text>
</a>
</g>
</g>
<!-- Node48&#45;&gt;Node49 -->
<g id="edge65" class="edge"><title>Node48&#45;&gt;Node49</title>
<path fill="none" stroke="midnightblue" d="M1038.54,-897.965C1057.06,-897.965 1078.43,-897.965 1095.48,-897.965"/>
<polygon fill="midnightblue" stroke="midnightblue" points="1038.3,-894.465 1028.3,-897.965 1038.3,-901.465 1038.3,-894.465"/>
</g>
<!-- Node49&#45;&gt;Node39 -->
<g id="edge66" class="edge"><title>Node49&#45;&gt;Node39</title>
<path fill="none" stroke="midnightblue" d="M1166.61,-884.025C1172.07,-881.152 1177.39,-877.807 1182,-873.965 1216.94,-844.843 1242.7,-795.565 1252.57,-774.73"/>
<polygon fill="midnightblue" stroke="midnightblue" points="1164.9,-880.959 1157.38,-888.42 1167.91,-887.279 1164.9,-880.959"/>
</g>
<!-- Node50&#45;&gt;Node48 -->
<g id="edge68" class="edge"><title>Node50&#45;&gt;Node48</title>
<path fill="none" stroke="midnightblue" d="M912.929,-897.965C928.618,-897.965 947.3,-897.965 962.824,-897.965"/>
<polygon fill="midnightblue" stroke="midnightblue" points="912.622,-894.465 902.622,-897.965 912.621,-901.465 912.622,-894.465"/>
</g>
</g>
</svg>
