<?xml version="1.0" encoding="UTF-8" standalone="no"?>
<!DOCTYPE svg PUBLIC "-//W3C//DTD SVG 1.1//EN"
 "http://www.w3.org/Graphics/SVG/1.1/DTD/svg11.dtd">
<!-- Generated by graphviz version 2.38.0 (20140413.2041)
 -->
<!-- Title: luaO_arith Pages: 1 -->
<svg width="869pt" height="883pt"
 viewBox="0.00 0.00 869.00 883.00" xmlns="http://www.w3.org/2000/svg" xmlns:xlink="http://www.w3.org/1999/xlink">
<g id="graph0" class="graph" transform="scale(1 1) rotate(0) translate(4 879)">
<title>luaO_arith</title>
<!-- Node1 -->
<g id="node1" class="node"><title>Node1</title>
<polygon fill="#bfbfbf" stroke="black" points="0,-247.5 0,-266.5 60,-266.5 60,-247.5 0,-247.5"/>
<text text-anchor="middle" x="30" y="-254.5" font-family="Helvetica,sans-Serif" font-size="10.00">luaO_arith</text>
</g>
<!-- Node2 -->
<g id="node2" class="node"><title>Node2</title>
<g id="a_node2"><a xlink:href="../../d8/d7a/lcode_8c.html#af5aed1aa0a22eeb1605dd9f6e4f2ae7f" target="_top" xlink:title="constfolding">
<polygon fill="none" stroke="black" points="96,-446.5 96,-465.5 161,-465.5 161,-446.5 96,-446.5"/>
<text text-anchor="middle" x="128.5" y="-453.5" font-family="Helvetica,sans-Serif" font-size="10.00">constfolding</text>
</a>
</g>
</g>
<!-- Node1&#45;&gt;Node2 -->
<g id="edge1" class="edge"><title>Node1&#45;&gt;Node2</title>
<path fill="none" stroke="midnightblue" d="M40.0209,-275.603C60.0942,-316.997 107.865,-415.509 122.892,-446.498"/>
<polygon fill="midnightblue" stroke="midnightblue" points="43.167,-274.069 35.6544,-266.598 36.8685,-277.123 43.167,-274.069"/>
</g>
<!-- Node16 -->
<g id="node16" class="node"><title>Node16</title>
<g id="a_node16"><a xlink:href="../../da/dd2/lua_8h.html#ab0a8e0d4a119fa51c2785e25d5b5aa08" target="_top" xlink:title="lua_arith">
<polygon fill="none" stroke="black" points="208,-247.5 208,-266.5 260,-266.5 260,-247.5 208,-247.5"/>
<text text-anchor="middle" x="234" y="-254.5" font-family="Helvetica,sans-Serif" font-size="10.00">lua_arith</text>
</a>
</g>
</g>
<!-- Node1&#45;&gt;Node16 -->
<g id="edge17" class="edge"><title>Node1&#45;&gt;Node16</title>
<path fill="none" stroke="midnightblue" d="M70.4681,-257C111.121,-257 173.265,-257 207.741,-257"/>
<polygon fill="midnightblue" stroke="midnightblue" points="70.3726,-253.5 60.3725,-257 70.3725,-260.5 70.3726,-253.5"/>
</g>
<!-- Node17 -->
<g id="node17" class="node"><title>Node17</title>
<g id="a_node17"><a xlink:href="../../d5/dcd/lvm_8h.html#a275e261afaec876cd16944b95c955642" target="_top" xlink:title="luaV_arith">
<polygon fill="none" stroke="black" points="99,-209.5 99,-228.5 158,-228.5 158,-209.5 99,-209.5"/>
<text text-anchor="middle" x="128.5" y="-216.5" font-family="Helvetica,sans-Serif" font-size="10.00">luaV_arith</text>
</a>
</g>
</g>
<!-- Node1&#45;&gt;Node17 -->
<g id="edge18" class="edge"><title>Node1&#45;&gt;Node17</title>
<path fill="none" stroke="midnightblue" d="M64.685,-243.735C77.3537,-238.747 91.5007,-233.176 103.157,-228.586"/>
<polygon fill="midnightblue" stroke="midnightblue" points="63.3732,-240.49 55.351,-247.411 65.938,-247.004 63.3732,-240.49"/>
</g>
<!-- Node3 -->
<g id="node3" class="node"><title>Node3</title>
<g id="a_node3"><a xlink:href="../../d8/d7a/lcode_8c.html#a55b6d764174667a121836a2a9890d088" target="_top" xlink:title="codearith">
<polygon fill="none" stroke="black" points="207,-608.5 207,-627.5 261,-627.5 261,-608.5 207,-608.5"/>
<text text-anchor="middle" x="234" y="-615.5" font-family="Helvetica,sans-Serif" font-size="10.00">codearith</text>
</a>
</g>
</g>
<!-- Node2&#45;&gt;Node3 -->
<g id="edge2" class="edge"><title>Node2&#45;&gt;Node3</title>
<path fill="none" stroke="midnightblue" d="M141.148,-474.232C163.084,-508.566 209.834,-581.74 226.737,-608.197"/>
<polygon fill="midnightblue" stroke="midnightblue" points="143.998,-472.191 135.664,-465.649 138.099,-475.96 143.998,-472.191"/>
</g>
<!-- Node4 -->
<g id="node4" class="node"><title>Node4</title>
<g id="a_node4"><a xlink:href="../../dd/d05/lcode_8h.html#a2a87516e72f08e1b692331de96a6d8d6" target="_top" xlink:title="luaK_posfix">
<polygon fill="none" stroke="black" points="307,-646.5 307,-665.5 374,-665.5 374,-646.5 307,-646.5"/>
<text text-anchor="middle" x="340.5" y="-653.5" font-family="Helvetica,sans-Serif" font-size="10.00">luaK_posfix</text>
</a>
</g>
</g>
<!-- Node3&#45;&gt;Node4 -->
<g id="edge3" class="edge"><title>Node3&#45;&gt;Node4</title>
<path fill="none" stroke="midnightblue" d="M270.888,-631.05C284.84,-636.124 300.523,-641.827 313.37,-646.498"/>
<polygon fill="midnightblue" stroke="midnightblue" points="271.694,-627.619 261.1,-627.491 269.302,-634.198 271.694,-627.619"/>
</g>
<!-- Node15 -->
<g id="node15" class="node"><title>Node15</title>
<g id="a_node15"><a xlink:href="../../dd/d05/lcode_8h.html#a108f48cde9af08a87347aa6380a4a015" target="_top" xlink:title="luaK_prefix">
<polygon fill="none" stroke="black" points="308.5,-608.5 308.5,-627.5 372.5,-627.5 372.5,-608.5 308.5,-608.5"/>
<text text-anchor="middle" x="340.5" y="-615.5" font-family="Helvetica,sans-Serif" font-size="10.00">luaK_prefix</text>
</a>
</g>
</g>
<!-- Node3&#45;&gt;Node15 -->
<g id="edge15" class="edge"><title>Node3&#45;&gt;Node15</title>
<path fill="none" stroke="midnightblue" d="M271.264,-618C283.278,-618 296.541,-618 308.153,-618"/>
<polygon fill="midnightblue" stroke="midnightblue" points="271.1,-614.5 261.1,-618 271.1,-621.5 271.1,-614.5"/>
</g>
<!-- Node5 -->
<g id="node5" class="node"><title>Node5</title>
<g id="a_node5"><a xlink:href="../../d8/d9c/lparser_8c.html#a49946c41497533490f57063b1ca7cb7c" target="_top" xlink:title="subexpr">
<polygon fill="none" stroke="black" points="423,-646.5 423,-665.5 475,-665.5 475,-646.5 423,-646.5"/>
<text text-anchor="middle" x="449" y="-653.5" font-family="Helvetica,sans-Serif" font-size="10.00">subexpr</text>
</a>
</g>
</g>
<!-- Node4&#45;&gt;Node5 -->
<g id="edge4" class="edge"><title>Node4&#45;&gt;Node5</title>
<path fill="none" stroke="midnightblue" d="M384.257,-656C397.319,-656 411.259,-656 422.761,-656"/>
<polygon fill="midnightblue" stroke="midnightblue" points="384.032,-652.5 374.032,-656 384.032,-659.5 384.032,-652.5"/>
</g>
<!-- Node6 -->
<g id="node6" class="node"><title>Node6</title>
<g id="a_node6"><a xlink:href="../../d8/d9c/lparser_8c.html#af2c543df6cbb49247cd0a71956786d92" target="_top" xlink:title="expr">
<polygon fill="none" stroke="black" points="548,-703.5 548,-722.5 583,-722.5 583,-703.5 548,-703.5"/>
<text text-anchor="middle" x="565.5" y="-710.5" font-family="Helvetica,sans-Serif" font-size="10.00">expr</text>
</a>
</g>
</g>
<!-- Node5&#45;&gt;Node6 -->
<g id="edge5" class="edge"><title>Node5&#45;&gt;Node6</title>
<path fill="none" stroke="midnightblue" d="M478.308,-670.092C500.173,-680.977 529.679,-695.666 547.88,-704.726"/>
<polygon fill="midnightblue" stroke="midnightblue" points="479.677,-666.864 469.165,-665.541 476.557,-673.13 479.677,-666.864"/>
</g>
<!-- Node7 -->
<g id="node7" class="node"><title>Node7</title>
<g id="a_node7"><a xlink:href="../../d8/d9c/lparser_8c.html#ac3e6a3b89f1a54a2ff4f3570831faf35" target="_top" xlink:title="yindex">
<polygon fill="none" stroke="red" points="675.5,-779.5 675.5,-798.5 719.5,-798.5 719.5,-779.5 675.5,-779.5"/>
<text text-anchor="middle" x="697.5" y="-786.5" font-family="Helvetica,sans-Serif" font-size="10.00">yindex</text>
</a>
</g>
</g>
<!-- Node6&#45;&gt;Node7 -->
<g id="edge6" class="edge"><title>Node6&#45;&gt;Node7</title>
<path fill="none" stroke="midnightblue" d="M587.155,-728.5C602.201,-739.423 623.31,-754.003 643,-765 653.31,-770.758 665.261,-776.226 675.249,-780.484"/>
<polygon fill="midnightblue" stroke="midnightblue" points="589.185,-725.648 579.054,-722.546 585.039,-731.288 589.185,-725.648"/>
</g>
<!-- Node8 -->
<g id="node8" class="node"><title>Node8</title>
<g id="a_node8"><a xlink:href="../../d8/d9c/lparser_8c.html#ad4183918ba9abc7e6b62ec17cd4d6464" target="_top" xlink:title="recfield">
<polygon fill="none" stroke="red" points="802.5,-760.5 802.5,-779.5 846.5,-779.5 846.5,-760.5 802.5,-760.5"/>
<text text-anchor="middle" x="824.5" y="-767.5" font-family="Helvetica,sans-Serif" font-size="10.00">recfield</text>
</a>
</g>
</g>
<!-- Node6&#45;&gt;Node8 -->
<g id="edge8" class="edge"><title>Node6&#45;&gt;Node8</title>
<path fill="none" stroke="midnightblue" d="M593.093,-719.854C607.779,-723.576 626.363,-728.184 643,-732 700.432,-745.173 768.552,-759.041 802.327,-765.799"/>
<polygon fill="midnightblue" stroke="midnightblue" points="593.727,-716.404 583.173,-717.324 591.998,-723.187 593.727,-716.404"/>
</g>
<!-- Node9 -->
<g id="node9" class="node"><title>Node9</title>
<g id="a_node9"><a xlink:href="../../d8/d9c/lparser_8c.html#ac421b518b14b0af6e4e08226ab08057b" target="_top" xlink:title="listfield">
<polygon fill="none" stroke="red" points="676,-703.5 676,-722.5 719,-722.5 719,-703.5 676,-703.5"/>
<text text-anchor="middle" x="697.5" y="-710.5" font-family="Helvetica,sans-Serif" font-size="10.00">listfield</text>
</a>
</g>
</g>
<!-- Node6&#45;&gt;Node9 -->
<g id="edge9" class="edge"><title>Node6&#45;&gt;Node9</title>
<path fill="none" stroke="midnightblue" d="M593.305,-713C617.847,-713 653.648,-713 675.983,-713"/>
<polygon fill="midnightblue" stroke="midnightblue" points="593.229,-709.5 583.229,-713 593.229,-716.5 593.229,-709.5"/>
</g>
<!-- Node10 -->
<g id="node10" class="node"><title>Node10</title>
<g id="a_node10"><a xlink:href="../../d8/d9c/lparser_8c.html#a25966bcc2d6cf47dbb9e0251fb26d661" target="_top" xlink:title="explist">
<polygon fill="none" stroke="red" points="675.5,-665.5 675.5,-684.5 719.5,-684.5 719.5,-665.5 675.5,-665.5"/>
<text text-anchor="middle" x="697.5" y="-672.5" font-family="Helvetica,sans-Serif" font-size="10.00">explist</text>
</a>
</g>
</g>
<!-- Node6&#45;&gt;Node10 -->
<g id="edge10" class="edge"><title>Node6&#45;&gt;Node10</title>
<path fill="none" stroke="midnightblue" d="M592.854,-705.297C617.083,-698.214 652.561,-687.844 675.087,-681.259"/>
<polygon fill="midnightblue" stroke="midnightblue" points="591.845,-701.945 583.229,-708.11 593.809,-708.664 591.845,-701.945"/>
</g>
<!-- Node11 -->
<g id="node11" class="node"><title>Node11</title>
<g id="a_node11"><a xlink:href="../../d8/d9c/lparser_8c.html#abb6d6e594e184f737324863a01201cce" target="_top" xlink:title="primaryexp">
<polygon fill="none" stroke="red" points="665.5,-627.5 665.5,-646.5 729.5,-646.5 729.5,-627.5 665.5,-627.5"/>
<text text-anchor="middle" x="697.5" y="-634.5" font-family="Helvetica,sans-Serif" font-size="10.00">primaryexp</text>
</a>
</g>
</g>
<!-- Node6&#45;&gt;Node11 -->
<g id="edge11" class="edge"><title>Node6&#45;&gt;Node11</title>
<path fill="none" stroke="midnightblue" d="M585.089,-696.645C599.954,-684.208 621.753,-667.355 643,-656 649.954,-652.283 657.787,-649.034 665.27,-646.323"/>
<polygon fill="midnightblue" stroke="midnightblue" points="582.529,-694.229 577.195,-703.383 587.074,-699.553 582.529,-694.229"/>
</g>
<!-- Node12 -->
<g id="node12" class="node"><title>Node12</title>
<g id="a_node12"><a xlink:href="../../d8/d9c/lparser_8c.html#a24002c50a108445d916457eb3c21d5e1" target="_top" xlink:title="cond">
<polygon fill="none" stroke="red" points="679,-589.5 679,-608.5 716,-608.5 716,-589.5 679,-589.5"/>
<text text-anchor="middle" x="697.5" y="-596.5" font-family="Helvetica,sans-Serif" font-size="10.00">cond</text>
</a>
</g>
</g>
<!-- Node6&#45;&gt;Node12 -->
<g id="edge12" class="edge"><title>Node6&#45;&gt;Node12</title>
<path fill="none" stroke="midnightblue" d="M576.864,-694.755C589.794,-673.518 613.795,-638.72 643,-618 653.772,-610.358 667.925,-605.51 678.969,-602.625"/>
<polygon fill="midnightblue" stroke="midnightblue" points="573.796,-693.068 571.724,-703.459 579.823,-696.628 573.796,-693.068"/>
</g>
<!-- Node13 -->
<g id="node13" class="node"><title>Node13</title>
<g id="a_node13"><a xlink:href="../../d8/d9c/lparser_8c.html#a23b35e880bcd487f81bf1a3d48567e49" target="_top" xlink:title="exp1">
<polygon fill="none" stroke="red" points="678.5,-855.5 678.5,-874.5 716.5,-874.5 716.5,-855.5 678.5,-855.5"/>
<text text-anchor="middle" x="697.5" y="-862.5" font-family="Helvetica,sans-Serif" font-size="10.00">exp1</text>
</a>
</g>
</g>
<!-- Node6&#45;&gt;Node13 -->
<g id="edge13" class="edge"><title>Node6&#45;&gt;Node13</title>
<path fill="none" stroke="midnightblue" d="M572.685,-732.237C582.865,-760.961 605.811,-814.991 643,-846 653.068,-854.395 667.115,-859.196 678.289,-861.871"/>
<polygon fill="midnightblue" stroke="midnightblue" points="575.932,-730.914 569.405,-722.569 569.303,-733.163 575.932,-730.914"/>
</g>
<!-- Node14 -->
<g id="node14" class="node"><title>Node14</title>
<g id="a_node14"><a xlink:href="../../d8/d9c/lparser_8c.html#a51dbd956bff1ce06bb45b3e3d9fde83f" target="_top" xlink:title="test_then_block">
<polygon fill="none" stroke="red" points="656.5,-817.5 656.5,-836.5 738.5,-836.5 738.5,-817.5 656.5,-817.5"/>
<text text-anchor="middle" x="697.5" y="-824.5" font-family="Helvetica,sans-Serif" font-size="10.00">test_then_block</text>
</a>
</g>
</g>
<!-- Node6&#45;&gt;Node14 -->
<g id="edge14" class="edge"><title>Node6&#45;&gt;Node14</title>
<path fill="none" stroke="midnightblue" d="M576.864,-731.245C589.794,-752.482 613.795,-787.28 643,-808 648.386,-811.821 654.617,-814.944 660.883,-817.471"/>
<polygon fill="midnightblue" stroke="midnightblue" points="579.823,-729.372 571.724,-722.541 573.796,-732.932 579.823,-729.372"/>
</g>
<!-- Node7&#45;&gt;Node8 -->
<g id="edge7" class="edge"><title>Node7&#45;&gt;Node8</title>
<path fill="none" stroke="midnightblue" d="M729.82,-784.239C752.413,-780.805 782.313,-776.26 802.191,-773.239"/>
<polygon fill="midnightblue" stroke="midnightblue" points="729.065,-780.814 719.705,-785.777 730.117,-787.734 729.065,-780.814"/>
</g>
<!-- Node15&#45;&gt;Node5 -->
<g id="edge16" class="edge"><title>Node15&#45;&gt;Node5</title>
<path fill="none" stroke="midnightblue" d="M377.805,-630.954C392.673,-636.259 409.508,-642.266 422.963,-647.067"/>
<polygon fill="midnightblue" stroke="midnightblue" points="378.969,-627.653 368.374,-627.589 376.617,-634.246 378.969,-627.653"/>
</g>
<!-- Node17&#45;&gt;Node16 -->
<g id="edge19" class="edge"><title>Node17&#45;&gt;Node16</title>
<path fill="none" stroke="midnightblue" d="M165.05,-232.052C179.173,-237.238 195.087,-243.08 207.962,-247.807"/>
<polygon fill="midnightblue" stroke="midnightblue" points="166.211,-228.75 155.617,-228.589 163.798,-235.321 166.211,-228.75"/>
</g>
<!-- Node18 -->
<g id="node18" class="node"><title>Node18</title>
<g id="a_node18"><a xlink:href="../../d5/dcd/lvm_8h.html#ae93565adc36c6e2157dbbd875433ede1" target="_top" xlink:title="luaV_execute">
<polygon fill="none" stroke="black" points="197,-209.5 197,-228.5 271,-228.5 271,-209.5 197,-209.5"/>
<text text-anchor="middle" x="234" y="-216.5" font-family="Helvetica,sans-Serif" font-size="10.00">luaV_execute</text>
</a>
</g>
</g>
<!-- Node17&#45;&gt;Node18 -->
<g id="edge20" class="edge"><title>Node17&#45;&gt;Node18</title>
<path fill="none" stroke="midnightblue" d="M168.27,-219C177.606,-219 187.544,-219 196.76,-219"/>
<polygon fill="midnightblue" stroke="midnightblue" points="168.056,-215.5 158.056,-219 168.056,-222.5 168.056,-215.5"/>
</g>
<!-- Node19 -->
<g id="node19" class="node"><title>Node19</title>
<g id="a_node19"><a xlink:href="../../d2/dd9/ldo_8h.html#a7bb0b106d4012134156e0fa240f51228" target="_top" xlink:title="luaD_call">
<polygon fill="none" stroke="black" points="312.5,-361.5 312.5,-380.5 368.5,-380.5 368.5,-361.5 312.5,-361.5"/>
<text text-anchor="middle" x="340.5" y="-368.5" font-family="Helvetica,sans-Serif" font-size="10.00">luaD_call</text>
</a>
</g>
</g>
<!-- Node18&#45;&gt;Node19 -->
<g id="edge21" class="edge"><title>Node18&#45;&gt;Node19</title>
<path fill="none" stroke="midnightblue" d="M277.693,-236.243C312.847,-276.626 332.258,-337.078 337.815,-361.243"/>
<polygon fill="midnightblue" stroke="midnightblue" points="280.065,-233.653 270.7,-228.7 274.932,-238.413 280.065,-233.653"/>
</g>
<!-- Node47 -->
<g id="node47" class="node"><title>Node47</title>
<g id="a_node47"><a xlink:href="../../d3/d08/ldo_8c.html#a3baab9d298c0c32cb74a9a079d7244de" target="_top" xlink:title="unroll">
<polygon fill="none" stroke="black" points="321.5,-19.5 321.5,-38.5 359.5,-38.5 359.5,-19.5 321.5,-19.5"/>
<text text-anchor="middle" x="340.5" y="-26.5" font-family="Helvetica,sans-Serif" font-size="10.00">unroll</text>
</a>
</g>
</g>
<!-- Node18&#45;&gt;Node47 -->
<g id="edge62" class="edge"><title>Node18&#45;&gt;Node47</title>
<path fill="none" stroke="midnightblue" d="M245.21,-200.436C266.998,-160.821 317.416,-69.1524 334.06,-38.8917"/>
<polygon fill="midnightblue" stroke="midnightblue" points="242.078,-198.868 240.326,-209.317 248.212,-202.241 242.078,-198.868"/>
</g>
<!-- Node50 -->
<g id="node50" class="node"><title>Node50</title>
<g id="a_node50"><a xlink:href="../../d3/d08/ldo_8c.html#abd7632c715de5db6e7797b7fa3f7010f" target="_top" xlink:title="resume">
<polygon fill="none" stroke="black" points="425.5,-19.5 425.5,-38.5 472.5,-38.5 472.5,-19.5 425.5,-19.5"/>
<text text-anchor="middle" x="449" y="-26.5" font-family="Helvetica,sans-Serif" font-size="10.00">resume</text>
</a>
</g>
</g>
<!-- Node18&#45;&gt;Node50 -->
<g id="edge67" class="edge"><title>Node18&#45;&gt;Node50</title>
<path fill="none" stroke="midnightblue" d="M247.142,-200.959C260.498,-181.857 283.239,-151.425 307,-129 347.596,-90.6876 403.634,-55.2586 431.244,-38.7479"/>
<polygon fill="midnightblue" stroke="midnightblue" points="244.16,-199.119 241.376,-209.342 249.927,-203.086 244.16,-199.119"/>
</g>
<!-- Node19&#45;&gt;Node18 -->
<g id="edge61" class="edge"><title>Node19&#45;&gt;Node18</title>
<path fill="none" stroke="midnightblue" d="M331.617,-351.98C321.543,-325.446 301.651,-277.959 271,-247 263.144,-239.065 251.272,-233.687 243.334,-228.617"/>
<polygon fill="midnightblue" stroke="midnightblue" points="328.338,-353.204 335.112,-361.351 334.897,-350.758 328.338,-353.204"/>
</g>
<!-- Node20 -->
<g id="node20" class="node"><title>Node20</title>
<g id="a_node20"><a xlink:href="../../dd/d4a/lvm_8c.html#aa904883a58699d9c6ef4d6f0f45037f6" target="_top" xlink:title="callTM">
<polygon fill="none" stroke="black" points="427,-361.5 427,-380.5 471,-380.5 471,-361.5 427,-361.5"/>
<text text-anchor="middle" x="449" y="-368.5" font-family="Helvetica,sans-Serif" font-size="10.00">callTM</text>
</a>
</g>
</g>
<!-- Node19&#45;&gt;Node20 -->
<g id="edge22" class="edge"><title>Node19&#45;&gt;Node20</title>
<path fill="none" stroke="midnightblue" d="M378.865,-371C394.986,-371 413.245,-371 426.948,-371"/>
<polygon fill="midnightblue" stroke="midnightblue" points="378.65,-367.5 368.65,-371 378.65,-374.5 378.65,-367.5"/>
</g>
<!-- Node35 -->
<g id="node35" class="node"><title>Node35</title>
<g id="a_node35"><a xlink:href="../../de/d27/lgc_8c.html#a929058f72c03750fa82374f6bfa639ee" target="_top" xlink:title="dothecall">
<polygon fill="none" stroke="black" points="422.5,-551.5 422.5,-570.5 475.5,-570.5 475.5,-551.5 422.5,-551.5"/>
<text text-anchor="middle" x="449" y="-558.5" font-family="Helvetica,sans-Serif" font-size="10.00">dothecall</text>
</a>
</g>
</g>
<!-- Node19&#45;&gt;Node35 -->
<g id="edge42" class="edge"><title>Node19&#45;&gt;Node35</title>
<path fill="none" stroke="midnightblue" d="M344.742,-391.051C351.297,-425.768 369.133,-497.608 410,-542 413.397,-545.69 417.671,-548.76 422.115,-551.28"/>
<polygon fill="midnightblue" stroke="midnightblue" points="348.117,-390.034 342.934,-380.793 341.223,-391.249 348.117,-390.034"/>
</g>
<!-- Node38 -->
<g id="node38" class="node"><title>Node38</title>
<g id="a_node38"><a xlink:href="../../df/db6/lapi_8c.html#ac3926c93fb08234f9f47e24653124910" target="_top" xlink:title="f_call">
<polygon fill="none" stroke="black" points="430,-513.5 430,-532.5 468,-532.5 468,-513.5 430,-513.5"/>
<text text-anchor="middle" x="449" y="-520.5" font-family="Helvetica,sans-Serif" font-size="10.00">f_call</text>
</a>
</g>
</g>
<!-- Node19&#45;&gt;Node38 -->
<g id="edge45" class="edge"><title>Node19&#45;&gt;Node38</title>
<path fill="none" stroke="midnightblue" d="M354.132,-389.029C376.869,-421.48 423.936,-488.655 441.34,-513.495"/>
<polygon fill="midnightblue" stroke="midnightblue" points="356.767,-386.69 348.162,-380.508 351.034,-390.706 356.767,-386.69"/>
</g>
<!-- Node39 -->
<g id="node39" class="node"><title>Node39</title>
<g id="a_node39"><a xlink:href="../../da/dd2/lua_8h.html#a3c4de08aa665eaee4aabd330aa99a441" target="_top" xlink:title="lua_pcallk">
<polygon fill="none" stroke="black" points="536,-513.5 536,-532.5 595,-532.5 595,-513.5 536,-513.5"/>
<text text-anchor="middle" x="565.5" y="-520.5" font-family="Helvetica,sans-Serif" font-size="10.00">lua_pcallk</text>
</a>
</g>
</g>
<!-- Node19&#45;&gt;Node39 -->
<g id="edge51" class="edge"><title>Node19&#45;&gt;Node39</title>
<path fill="none" stroke="midnightblue" d="M360.029,-387.33C373.571,-399.038 392.543,-414.975 410,-428 458.806,-464.415 470.955,-474.096 524,-504 529.818,-507.28 536.298,-510.501 542.338,-513.331"/>
<polygon fill="midnightblue" stroke="midnightblue" points="362.2,-384.58 352.361,-380.651 357.602,-389.859 362.2,-384.58"/>
</g>
<!-- Node42 -->
<g id="node42" class="node"><title>Node42</title>
<g id="a_node42"><a xlink:href="../../da/dd2/lua_8h.html#aa6aba1fd89ac6f1c5ccfdfd12f826d80" target="_top" xlink:title="lua_callk">
<polygon fill="none" stroke="black" points="422.5,-399.5 422.5,-418.5 475.5,-418.5 475.5,-399.5 422.5,-399.5"/>
<text text-anchor="middle" x="449" y="-406.5" font-family="Helvetica,sans-Serif" font-size="10.00">lua_callk</text>
</a>
</g>
</g>
<!-- Node19&#45;&gt;Node42 -->
<g id="edge49" class="edge"><title>Node19&#45;&gt;Node42</title>
<path fill="none" stroke="midnightblue" d="M378.08,-384.052C392.613,-389.238 408.988,-395.08 422.236,-399.807"/>
<polygon fill="midnightblue" stroke="midnightblue" points="378.969,-380.653 368.374,-380.589 376.617,-387.246 378.969,-380.653"/>
</g>
<!-- Node44 -->
<g id="node44" class="node"><title>Node44</title>
<g id="a_node44"><a xlink:href="../../db/d46/ldebug_8h.html#acd5ef9f67a8e9d08f6540636fdbeafe6" target="_top" xlink:title="luaG_errormsg">
<polygon fill="none" stroke="black" points="410,-323.5 410,-342.5 488,-342.5 488,-323.5 410,-323.5"/>
<text text-anchor="middle" x="449" y="-330.5" font-family="Helvetica,sans-Serif" font-size="10.00">luaG_errormsg</text>
</a>
</g>
</g>
<!-- Node19&#45;&gt;Node44 -->
<g id="edge52" class="edge"><title>Node19&#45;&gt;Node44</title>
<path fill="none" stroke="midnightblue" d="M377.855,-358.028C392.044,-352.966 408.018,-347.266 421.134,-342.586"/>
<polygon fill="midnightblue" stroke="midnightblue" points="376.617,-354.754 368.374,-361.411 378.969,-361.347 376.617,-354.754"/>
</g>
<!-- Node21 -->
<g id="node21" class="node"><title>Node21</title>
<g id="a_node21"><a xlink:href="../../d5/dcd/lvm_8h.html#adacdbccc9d8fab937a1b0dc058c8da12" target="_top" xlink:title="luaV_gettable">
<polygon fill="none" stroke="black" points="660,-190.5 660,-209.5 735,-209.5 735,-190.5 660,-190.5"/>
<text text-anchor="middle" x="697.5" y="-197.5" font-family="Helvetica,sans-Serif" font-size="10.00">luaV_gettable</text>
</a>
</g>
</g>
<!-- Node20&#45;&gt;Node21 -->
<g id="edge23" class="edge"><title>Node20&#45;&gt;Node21</title>
<path fill="none" stroke="midnightblue" d="M480.118,-357.194C482.861,-355.568 485.532,-353.83 488,-352 506.688,-338.143 506.179,-328.955 524,-314 576.794,-269.694 647.428,-227.722 679.446,-209.505"/>
<polygon fill="midnightblue" stroke="midnightblue" points="478.397,-354.146 471.275,-361.99 481.734,-360.3 478.397,-354.146"/>
</g>
<!-- Node25 -->
<g id="node25" class="node"><title>Node25</title>
<g id="a_node25"><a xlink:href="../../d5/dcd/lvm_8h.html#a5885d48fd66eb236f8b8f6e4938cbcce" target="_top" xlink:title="luaV_settable">
<polygon fill="none" stroke="black" points="660,-290.5 660,-309.5 735,-309.5 735,-290.5 660,-290.5"/>
<text text-anchor="middle" x="697.5" y="-297.5" font-family="Helvetica,sans-Serif" font-size="10.00">luaV_settable</text>
</a>
</g>
</g>
<!-- Node20&#45;&gt;Node25 -->
<g id="edge28" class="edge"><title>Node20&#45;&gt;Node25</title>
<path fill="none" stroke="midnightblue" d="M479.965,-384.376C512.997,-396.988 566.777,-411.075 607,-390 631.898,-376.954 623.244,-357.996 643,-338 654.05,-326.816 668.733,-316.648 679.922,-309.649"/>
<polygon fill="midnightblue" stroke="midnightblue" points="481.002,-381.021 470.418,-380.55 478.398,-387.519 481.002,-381.021"/>
</g>
<!-- Node29 -->
<g id="node29" class="node"><title>Node29</title>
<g id="a_node29"><a xlink:href="../../dd/d4a/lvm_8c.html#a5f9dd797eb313b8e117cb20546276732" target="_top" xlink:title="call_binTM">
<polygon fill="none" stroke="black" points="534.5,-95.5 534.5,-114.5 596.5,-114.5 596.5,-95.5 534.5,-95.5"/>
<text text-anchor="middle" x="565.5" y="-102.5" font-family="Helvetica,sans-Serif" font-size="10.00">call_binTM</text>
</a>
</g>
</g>
<!-- Node20&#45;&gt;Node29 -->
<g id="edge33" class="edge"><title>Node20&#45;&gt;Node29</title>
<path fill="none" stroke="midnightblue" d="M480.053,-359.311C483.039,-357.225 485.78,-354.803 488,-352 531.104,-297.577 502.308,-265.949 524,-200 534.588,-167.81 551.617,-131.37 559.805,-114.501"/>
<polygon fill="midnightblue" stroke="midnightblue" points="478.183,-356.348 471.221,-364.333 481.644,-362.432 478.183,-356.348"/>
</g>
<!-- Node32 -->
<g id="node32" class="node"><title>Node32</title>
<g id="a_node32"><a xlink:href="../../d5/dcd/lvm_8h.html#ab77cced08254efde4e5dfb28b37a7f31" target="_top" xlink:title="luaV_equalobj_">
<polygon fill="none" stroke="black" points="524,-361.5 524,-380.5 607,-380.5 607,-361.5 524,-361.5"/>
<text text-anchor="middle" x="565.5" y="-368.5" font-family="Helvetica,sans-Serif" font-size="10.00">luaV_equalobj_</text>
</a>
</g>
</g>
<!-- Node20&#45;&gt;Node32 -->
<g id="edge38" class="edge"><title>Node20&#45;&gt;Node32</title>
<path fill="none" stroke="midnightblue" d="M481.359,-371C494.426,-371 509.772,-371 523.698,-371"/>
<polygon fill="midnightblue" stroke="midnightblue" points="481.001,-367.5 471.001,-371 481.001,-374.5 481.001,-367.5"/>
</g>
<!-- Node33 -->
<g id="node33" class="node"><title>Node33</title>
<g id="a_node33"><a xlink:href="../../d5/dcd/lvm_8h.html#a414b4b487239935324f2f16e1e7715db" target="_top" xlink:title="luaV_objlen">
<polygon fill="none" stroke="black" points="532,-475.5 532,-494.5 599,-494.5 599,-475.5 532,-475.5"/>
<text text-anchor="middle" x="565.5" y="-482.5" font-family="Helvetica,sans-Serif" font-size="10.00">luaV_objlen</text>
</a>
</g>
</g>
<!-- Node20&#45;&gt;Node33 -->
<g id="edge39" class="edge"><title>Node20&#45;&gt;Node33</title>
<path fill="none" stroke="midnightblue" d="M480.088,-384.484C482.865,-386.185 485.552,-388.027 488,-390 519.824,-415.643 547.144,-456.617 558.663,-475.23"/>
<polygon fill="midnightblue" stroke="midnightblue" points="481.537,-381.287 471.086,-379.546 478.171,-387.424 481.537,-381.287"/>
</g>
<!-- Node21&#45;&gt;Node18 -->
<g id="edge27" class="edge"><title>Node21&#45;&gt;Node18</title>
<path fill="none" stroke="midnightblue" d="M649.503,-199.168C614.812,-198.757 566.452,-198.606 524,-200 432.787,-202.995 325.643,-211.294 271.006,-215.87"/>
<polygon fill="midnightblue" stroke="midnightblue" points="649.764,-202.672 659.809,-199.303 649.856,-195.672 649.764,-202.672"/>
</g>
<!-- Node22 -->
<g id="node22" class="node"><title>Node22</title>
<g id="a_node22"><a xlink:href="../../da/dd2/lua_8h.html#a2b4a9010af0545ae0f822d7f081370d0" target="_top" xlink:title="lua_getglobal">
<polygon fill="none" stroke="red" points="788,-185.5 788,-204.5 861,-204.5 861,-185.5 788,-185.5"/>
<text text-anchor="middle" x="824.5" y="-192.5" font-family="Helvetica,sans-Serif" font-size="10.00">lua_getglobal</text>
</a>
</g>
</g>
<!-- Node21&#45;&gt;Node22 -->
<g id="edge24" class="edge"><title>Node21&#45;&gt;Node22</title>
<path fill="none" stroke="midnightblue" d="M745.322,-198.127C759.383,-197.565 774.575,-196.957 787.795,-196.428"/>
<polygon fill="midnightblue" stroke="midnightblue" points="745.18,-194.63 735.328,-198.527 745.46,-201.624 745.18,-194.63"/>
</g>
<!-- Node23 -->
<g id="node23" class="node"><title>Node23</title>
<g id="a_node23"><a xlink:href="../../da/dd2/lua_8h.html#a8d82fa181a3003e9a304040c0bbed9ac" target="_top" xlink:title="lua_gettable">
<polygon fill="none" stroke="red" points="790.5,-147.5 790.5,-166.5 858.5,-166.5 858.5,-147.5 790.5,-147.5"/>
<text text-anchor="middle" x="824.5" y="-154.5" font-family="Helvetica,sans-Serif" font-size="10.00">lua_gettable</text>
</a>
</g>
</g>
<!-- Node21&#45;&gt;Node23 -->
<g id="edge25" class="edge"><title>Node21&#45;&gt;Node23</title>
<path fill="none" stroke="midnightblue" d="M735.911,-187.131C755.158,-180.51 778.212,-172.579 795.836,-166.516"/>
<polygon fill="midnightblue" stroke="midnightblue" points="734.559,-183.894 726.242,-190.457 736.836,-190.514 734.559,-183.894"/>
</g>
<!-- Node24 -->
<g id="node24" class="node"><title>Node24</title>
<g id="a_node24"><a xlink:href="../../da/dd2/lua_8h.html#ac3112bb28ba217adc46f13da8e9e6585" target="_top" xlink:title="lua_getfield">
<polygon fill="none" stroke="red" points="793,-223.5 793,-242.5 856,-242.5 856,-223.5 793,-223.5"/>
<text text-anchor="middle" x="824.5" y="-230.5" font-family="Helvetica,sans-Serif" font-size="10.00">lua_getfield</text>
</a>
</g>
</g>
<!-- Node21&#45;&gt;Node24 -->
<g id="edge26" class="edge"><title>Node21&#45;&gt;Node24</title>
<path fill="none" stroke="midnightblue" d="M744.463,-212.134C760.613,-216.398 778.349,-221.08 792.922,-224.927"/>
<polygon fill="midnightblue" stroke="midnightblue" points="745.217,-208.714 734.655,-209.545 743.431,-215.482 745.217,-208.714"/>
</g>
<!-- Node25&#45;&gt;Node18 -->
<g id="edge32" class="edge"><title>Node25&#45;&gt;Node18</title>
<path fill="none" stroke="midnightblue" d="M649.676,-292.283C576.474,-280.142 430.509,-255.628 307,-233 295.351,-230.866 282.664,-228.435 271.23,-226.204"/>
<polygon fill="midnightblue" stroke="midnightblue" points="649.5,-295.801 659.938,-293.983 650.644,-288.895 649.5,-295.801"/>
</g>
<!-- Node26 -->
<g id="node26" class="node"><title>Node26</title>
<g id="a_node26"><a xlink:href="../../da/dd2/lua_8h.html#ac0ebe7d753b81f6249dde8cf0b8ea997" target="_top" xlink:title="lua_setglobal">
<polygon fill="none" stroke="red" points="788,-299.5 788,-318.5 861,-318.5 861,-299.5 788,-299.5"/>
<text text-anchor="middle" x="824.5" y="-306.5" font-family="Helvetica,sans-Serif" font-size="10.00">lua_setglobal</text>
</a>
</g>
</g>
<!-- Node25&#45;&gt;Node26 -->
<g id="edge29" class="edge"><title>Node25&#45;&gt;Node26</title>
<path fill="none" stroke="midnightblue" d="M745.322,-303.371C759.383,-304.384 774.575,-305.477 787.795,-306.429"/>
<polygon fill="midnightblue" stroke="midnightblue" points="745.554,-299.879 735.328,-302.652 745.051,-306.861 745.554,-299.879"/>
</g>
<!-- Node27 -->
<g id="node27" class="node"><title>Node27</title>
<g id="a_node27"><a xlink:href="../../da/dd2/lua_8h.html#aeda173d104e3a566ccaac89a1f64a5eb" target="_top" xlink:title="lua_settable">
<polygon fill="none" stroke="red" points="790.5,-261.5 790.5,-280.5 858.5,-280.5 858.5,-261.5 790.5,-261.5"/>
<text text-anchor="middle" x="824.5" y="-268.5" font-family="Helvetica,sans-Serif" font-size="10.00">lua_settable</text>
</a>
</g>
</g>
<!-- Node25&#45;&gt;Node27 -->
<g id="edge30" class="edge"><title>Node25&#45;&gt;Node27</title>
<path fill="none" stroke="midnightblue" d="M745.425,-289.113C760.369,-285.646 776.582,-281.885 790.341,-278.693"/>
<polygon fill="midnightblue" stroke="midnightblue" points="744.278,-285.786 735.328,-291.456 745.86,-292.605 744.278,-285.786"/>
</g>
<!-- Node28 -->
<g id="node28" class="node"><title>Node28</title>
<g id="a_node28"><a xlink:href="../../da/dd2/lua_8h.html#a9580a15c141cbe4bf2a63fea625c3878" target="_top" xlink:title="lua_setfield">
<polygon fill="none" stroke="red" points="793,-337.5 793,-356.5 856,-356.5 856,-337.5 793,-337.5"/>
<text text-anchor="middle" x="824.5" y="-344.5" font-family="Helvetica,sans-Serif" font-size="10.00">lua_setfield</text>
</a>
</g>
</g>
<!-- Node25&#45;&gt;Node28 -->
<g id="edge31" class="edge"><title>Node25&#45;&gt;Node28</title>
<path fill="none" stroke="midnightblue" d="M733.383,-313.116C753.826,-320.803 779.203,-330.344 797.813,-337.342"/>
<polygon fill="midnightblue" stroke="midnightblue" points="734.388,-309.755 723.796,-309.511 731.924,-316.307 734.388,-309.755"/>
</g>
<!-- Node29&#45;&gt;Node17 -->
<g id="edge37" class="edge"><title>Node29&#45;&gt;Node17</title>
<path fill="none" stroke="midnightblue" d="M524.625,-115.01C457.083,-132.032 315.913,-167.898 197,-200 184.189,-203.459 170.05,-207.416 158.037,-210.821"/>
<polygon fill="midnightblue" stroke="midnightblue" points="525.589,-118.377 534.431,-112.541 523.879,-111.589 525.589,-118.377"/>
</g>
<!-- Node30 -->
<g id="node30" class="node"><title>Node30</title>
<g id="a_node30"><a xlink:href="../../dd/d4a/lvm_8c.html#a1d1301ff4a771ce4198673dd113d10a5" target="_top" xlink:title="call_orderTM">
<polygon fill="none" stroke="red" points="663,-95.5 663,-114.5 732,-114.5 732,-95.5 663,-95.5"/>
<text text-anchor="middle" x="697.5" y="-102.5" font-family="Helvetica,sans-Serif" font-size="10.00">call_orderTM</text>
</a>
</g>
</g>
<!-- Node29&#45;&gt;Node30 -->
<g id="edge34" class="edge"><title>Node29&#45;&gt;Node30</title>
<path fill="none" stroke="midnightblue" d="M606.841,-105C624.814,-105 645.74,-105 662.853,-105"/>
<polygon fill="midnightblue" stroke="midnightblue" points="606.651,-101.5 596.651,-105 606.651,-108.5 606.651,-101.5"/>
</g>
<!-- Node31 -->
<g id="node31" class="node"><title>Node31</title>
<g id="a_node31"><a xlink:href="../../d5/dcd/lvm_8h.html#aee84bfc563cb4bdd21a013218a289aa7" target="_top" xlink:title="luaV_concat">
<polygon fill="none" stroke="red" points="663,-133.5 663,-152.5 732,-152.5 732,-133.5 663,-133.5"/>
<text text-anchor="middle" x="697.5" y="-140.5" font-family="Helvetica,sans-Serif" font-size="10.00">luaV_concat</text>
</a>
</g>
</g>
<!-- Node29&#45;&gt;Node31 -->
<g id="edge35" class="edge"><title>Node29&#45;&gt;Node31</title>
<path fill="none" stroke="midnightblue" d="M606.49,-116.689C624.866,-122.061 646.389,-128.352 663.779,-133.436"/>
<polygon fill="midnightblue" stroke="midnightblue" points="607.232,-113.26 596.651,-113.813 605.268,-119.979 607.232,-113.26"/>
</g>
<!-- Node31&#45;&gt;Node18 -->
<g id="edge36" class="edge"><title>Node31&#45;&gt;Node18</title>
<path fill="none" stroke="midnightblue" d="M652.711,-149.128C580.501,-159.398 431.989,-181.208 307,-204 295.318,-206.13 282.622,-208.692 271.19,-211.091"/>
<polygon fill="midnightblue" stroke="midnightblue" points="653.39,-152.567 662.8,-147.698 652.407,-145.636 653.39,-152.567"/>
</g>
<!-- Node33&#45;&gt;Node18 -->
<g id="edge41" class="edge"><title>Node33&#45;&gt;Node18</title>
<path fill="none" stroke="midnightblue" d="M521.573,-481.42C464.055,-474.261 362.773,-452.958 307,-390 260.964,-338.034 313.503,-292.893 271,-238 268.058,-234.2 264.139,-231.079 259.969,-228.543"/>
<polygon fill="midnightblue" stroke="midnightblue" points="521.447,-484.929 531.782,-482.599 522.25,-477.975 521.447,-484.929"/>
</g>
<!-- Node34 -->
<g id="node34" class="node"><title>Node34</title>
<g id="a_node34"><a xlink:href="../../da/dd2/lua_8h.html#ac7ade66f92b5e325c42371926f879818" target="_top" xlink:title="lua_len">
<polygon fill="none" stroke="red" points="674,-437.5 674,-456.5 721,-456.5 721,-437.5 674,-437.5"/>
<text text-anchor="middle" x="697.5" y="-444.5" font-family="Helvetica,sans-Serif" font-size="10.00">lua_len</text>
</a>
</g>
</g>
<!-- Node33&#45;&gt;Node34 -->
<g id="edge40" class="edge"><title>Node33&#45;&gt;Node34</title>
<path fill="none" stroke="midnightblue" d="M608.945,-472.593C630.602,-466.263 656.071,-458.818 673.939,-453.595"/>
<polygon fill="midnightblue" stroke="midnightblue" points="607.921,-469.246 599.304,-475.411 609.885,-475.965 607.921,-469.246"/>
</g>
<!-- Node36 -->
<g id="node36" class="node"><title>Node36</title>
<g id="a_node36"><a xlink:href="../../de/d27/lgc_8c.html#ab9ec6b56580b9e66f41743e393e7e033" target="_top" xlink:title="GCTM">
<polygon fill="none" stroke="red" points="542.5,-551.5 542.5,-570.5 588.5,-570.5 588.5,-551.5 542.5,-551.5"/>
<text text-anchor="middle" x="565.5" y="-558.5" font-family="Helvetica,sans-Serif" font-size="10.00">GCTM</text>
</a>
</g>
</g>
<!-- Node35&#45;&gt;Node36 -->
<g id="edge43" class="edge"><title>Node35&#45;&gt;Node36</title>
<path fill="none" stroke="midnightblue" d="M485.838,-561C504.347,-561 526.344,-561 542.364,-561"/>
<polygon fill="midnightblue" stroke="midnightblue" points="485.696,-557.5 475.696,-561 485.696,-564.5 485.696,-557.5"/>
</g>
<!-- Node37 -->
<g id="node37" class="node"><title>Node37</title>
<g id="a_node37"><a xlink:href="../../de/d27/lgc_8c.html#a74f50e6006422d43686521fe765152dd" target="_top" xlink:title="callallpendingfinalizers">
<polygon fill="none" stroke="red" points="643,-551.5 643,-570.5 752,-570.5 752,-551.5 643,-551.5"/>
<text text-anchor="middle" x="697.5" y="-558.5" font-family="Helvetica,sans-Serif" font-size="10.00">callallpendingfinalizers</text>
</a>
</g>
</g>
<!-- Node36&#45;&gt;Node37 -->
<g id="edge44" class="edge"><title>Node36&#45;&gt;Node37</title>
<path fill="none" stroke="midnightblue" d="M598.662,-561C612.017,-561 627.881,-561 642.906,-561"/>
<polygon fill="midnightblue" stroke="midnightblue" points="598.553,-557.5 588.553,-561 598.553,-564.5 598.553,-557.5"/>
</g>
<!-- Node38&#45;&gt;Node39 -->
<g id="edge46" class="edge"><title>Node38&#45;&gt;Node39</title>
<path fill="none" stroke="midnightblue" d="M478.312,-523C495.797,-523 518.168,-523 535.736,-523"/>
<polygon fill="midnightblue" stroke="midnightblue" points="478.143,-519.5 468.143,-523 478.143,-526.5 478.143,-519.5"/>
</g>
<!-- Node40 -->
<g id="node40" class="node"><title>Node40</title>
<g id="a_node40"><a xlink:href="../../d8/dd3/lbaselib_8c.html#a1fb2725eed679431d070b2e9e7abc223" target="_top" xlink:title="luaB_pcall">
<polygon fill="none" stroke="black" points="667,-513.5 667,-532.5 728,-532.5 728,-513.5 667,-513.5"/>
<text text-anchor="middle" x="697.5" y="-520.5" font-family="Helvetica,sans-Serif" font-size="10.00">luaB_pcall</text>
</a>
</g>
</g>
<!-- Node39&#45;&gt;Node40 -->
<g id="edge47" class="edge"><title>Node39&#45;&gt;Node40</title>
<path fill="none" stroke="midnightblue" d="M605.211,-523C624.89,-523 648.434,-523 666.683,-523"/>
<polygon fill="midnightblue" stroke="midnightblue" points="605.029,-519.5 595.029,-523 605.029,-526.5 605.029,-519.5"/>
</g>
<!-- Node41 -->
<g id="node41" class="node"><title>Node41</title>
<g id="a_node41"><a xlink:href="../../d8/dd3/lbaselib_8c.html#a5fbb0094fa1a56f0a4c2547f1ec4c5ab" target="_top" xlink:title="luaB_xpcall">
<polygon fill="none" stroke="black" points="664.5,-475.5 664.5,-494.5 730.5,-494.5 730.5,-475.5 664.5,-475.5"/>
<text text-anchor="middle" x="697.5" y="-482.5" font-family="Helvetica,sans-Serif" font-size="10.00">luaB_xpcall</text>
</a>
</g>
</g>
<!-- Node39&#45;&gt;Node41 -->
<g id="edge48" class="edge"><title>Node39&#45;&gt;Node41</title>
<path fill="none" stroke="midnightblue" d="M604.838,-511.793C623.776,-506.258 646.367,-499.654 664.382,-494.388"/>
<polygon fill="midnightblue" stroke="midnightblue" points="603.645,-508.496 595.029,-514.661 605.609,-515.214 603.645,-508.496"/>
</g>
<!-- Node43 -->
<g id="node43" class="node"><title>Node43</title>
<g id="a_node43"><a xlink:href="../../d8/dd3/lbaselib_8c.html#a86a4e35d9c9ad4661a0dbbac3758c049" target="_top" xlink:title="luaB_dofile">
<polygon fill="none" stroke="black" points="666.5,-347.5 666.5,-366.5 728.5,-366.5 728.5,-347.5 666.5,-347.5"/>
<text text-anchor="middle" x="697.5" y="-354.5" font-family="Helvetica,sans-Serif" font-size="10.00">luaB_dofile</text>
</a>
</g>
</g>
<!-- Node42&#45;&gt;Node43 -->
<g id="edge50" class="edge"><title>Node42&#45;&gt;Node43</title>
<path fill="none" stroke="midnightblue" d="M485.655,-420.118C518.094,-428.394 566.889,-436.19 607,-423 641.112,-411.782 672.902,-382.024 687.736,-366.589"/>
<polygon fill="midnightblue" stroke="midnightblue" points="486.296,-416.666 475.729,-417.44 484.472,-423.424 486.296,-416.666"/>
</g>
<!-- Node45 -->
<g id="node45" class="node"><title>Node45</title>
<g id="a_node45"><a xlink:href="../../da/dd2/lua_8h.html#aae6c05ddea7bd110a3e84595ef92e601" target="_top" xlink:title="lua_error">
<polygon fill="none" stroke="red" points="539.5,-323.5 539.5,-342.5 591.5,-342.5 591.5,-323.5 539.5,-323.5"/>
<text text-anchor="middle" x="565.5" y="-330.5" font-family="Helvetica,sans-Serif" font-size="10.00">lua_error</text>
</a>
</g>
</g>
<!-- Node44&#45;&gt;Node45 -->
<g id="edge53" class="edge"><title>Node44&#45;&gt;Node45</title>
<path fill="none" stroke="midnightblue" d="M498.194,-333C512.272,-333 527.099,-333 539.153,-333"/>
<polygon fill="midnightblue" stroke="midnightblue" points="498.127,-329.5 488.127,-333 498.127,-336.5 498.127,-329.5"/>
</g>
<!-- Node46 -->
<g id="node46" class="node"><title>Node46</title>
<g id="a_node46"><a xlink:href="../../db/d46/ldebug_8h.html#a6f27f64630215e18a11be9ba21d3c4bf" target="_top" xlink:title="luaG_runerror">
<polygon fill="none" stroke="red" points="529,-209.5 529,-228.5 602,-228.5 602,-209.5 529,-209.5"/>
<text text-anchor="middle" x="565.5" y="-216.5" font-family="Helvetica,sans-Serif" font-size="10.00">luaG_runerror</text>
</a>
</g>
</g>
<!-- Node44&#45;&gt;Node46 -->
<g id="edge55" class="edge"><title>Node44&#45;&gt;Node46</title>
<path fill="none" stroke="midnightblue" d="M477.818,-317.814C481.479,-315.154 484.997,-312.201 488,-309 510.859,-284.63 500.798,-267.044 524,-243 529.562,-237.236 536.801,-232.368 543.617,-228.555"/>
<polygon fill="midnightblue" stroke="midnightblue" points="475.636,-315.059 469.188,-323.465 479.471,-320.915 475.636,-315.059"/>
</g>
<!-- Node45&#45;&gt;Node43 -->
<g id="edge54" class="edge"><title>Node45&#45;&gt;Node43</title>
<path fill="none" stroke="midnightblue" d="M601.659,-339.491C621.934,-343.234 647.156,-347.89 666.492,-351.46"/>
<polygon fill="midnightblue" stroke="midnightblue" points="602.035,-336.001 591.565,-337.627 600.764,-342.885 602.035,-336.001"/>
</g>
<!-- Node46&#45;&gt;Node18 -->
<g id="edge58" class="edge"><title>Node46&#45;&gt;Node18</title>
<path fill="none" stroke="midnightblue" d="M518.6,-219C452.411,-219 331.506,-219 271.205,-219"/>
<polygon fill="midnightblue" stroke="midnightblue" points="518.736,-222.5 528.736,-219 518.736,-215.5 518.736,-222.5"/>
</g>
<!-- Node46&#45;&gt;Node19 -->
<g id="edge56" class="edge"><title>Node46&#45;&gt;Node19</title>
<path fill="none" stroke="midnightblue" d="M539.172,-233.893C534.133,-236.889 528.889,-240.029 524,-243 472.988,-273.995 458.388,-279.051 410,-314 388.679,-329.4 365.468,-349.482 352.279,-361.238"/>
<polygon fill="midnightblue" stroke="midnightblue" points="541.077,-236.833 547.899,-228.726 537.511,-230.809 541.077,-236.833"/>
</g>
<!-- Node46&#45;&gt;Node21 -->
<g id="edge59" class="edge"><title>Node46&#45;&gt;Node21</title>
<path fill="none" stroke="midnightblue" d="M611.991,-212.351C627.588,-210.072 644.835,-207.551 659.66,-205.384"/>
<polygon fill="midnightblue" stroke="midnightblue" points="611.412,-208.899 602.023,-213.808 612.424,-215.825 611.412,-208.899"/>
</g>
<!-- Node46&#45;&gt;Node25 -->
<g id="edge60" class="edge"><title>Node46&#45;&gt;Node25</title>
<path fill="none" stroke="midnightblue" d="M590.588,-234.009C617.041,-250.491 658.728,-276.465 681.097,-290.403"/>
<polygon fill="midnightblue" stroke="midnightblue" points="592.261,-230.928 581.923,-228.61 588.56,-236.869 592.261,-230.928"/>
</g>
<!-- Node46&#45;&gt;Node31 -->
<g id="edge57" class="edge"><title>Node46&#45;&gt;Node31</title>
<path fill="none" stroke="midnightblue" d="M591.91,-204.145C618.044,-188.867 657.969,-165.526 680.169,-152.547"/>
<polygon fill="midnightblue" stroke="midnightblue" points="589.831,-201.306 582.965,-209.375 593.364,-207.349 589.831,-201.306"/>
</g>
<!-- Node48 -->
<g id="node48" class="node"><title>Node48</title>
<g id="a_node48"><a xlink:href="../../da/dd2/lua_8h.html#a434479f022eda738b99000aad5ddd929" target="_top" xlink:title="lua_resume">
<polygon fill="none" stroke="black" points="533,-0.5 533,-19.5 598,-19.5 598,-0.5 533,-0.5"/>
<text text-anchor="middle" x="565.5" y="-7.5" font-family="Helvetica,sans-Serif" font-size="10.00">lua_resume</text>
</a>
</g>
</g>
<!-- Node47&#45;&gt;Node48 -->
<g id="edge63" class="edge"><title>Node47&#45;&gt;Node48</title>
<path fill="none" stroke="midnightblue" d="M369.231,-19.4693C381.555,-15.7146 396.338,-11.8596 410,-10 452.259,-4.24788 501.624,-5.64097 532.966,-7.52251"/>
<polygon fill="midnightblue" stroke="midnightblue" points="368.004,-16.1867 359.536,-22.5536 370.126,-22.8573 368.004,-16.1867"/>
</g>
<!-- Node47&#45;&gt;Node50 -->
<g id="edge65" class="edge"><title>Node47&#45;&gt;Node50</title>
<path fill="none" stroke="midnightblue" d="M369.713,-29C387.117,-29 409.14,-29 425.392,-29"/>
<polygon fill="midnightblue" stroke="midnightblue" points="369.566,-25.5001 359.566,-29 369.566,-32.5001 369.566,-25.5001"/>
</g>
<!-- Node49 -->
<g id="node49" class="node"><title>Node49</title>
<g id="a_node49"><a xlink:href="../../df/d2d/lcorolib_8c.html#aaa37b3a30ab0c6daef7fae8951fef3e7" target="_top" xlink:title="auxresume">
<polygon fill="none" stroke="red" points="665.5,-0.5 665.5,-19.5 729.5,-19.5 729.5,-0.5 665.5,-0.5"/>
<text text-anchor="middle" x="697.5" y="-7.5" font-family="Helvetica,sans-Serif" font-size="10.00">auxresume</text>
</a>
</g>
</g>
<!-- Node48&#45;&gt;Node49 -->
<g id="edge64" class="edge"><title>Node48&#45;&gt;Node49</title>
<path fill="none" stroke="midnightblue" d="M608.536,-10C627.058,-10 648.434,-10 665.475,-10"/>
<polygon fill="midnightblue" stroke="midnightblue" points="608.302,-6.5001 598.302,-10 608.302,-13.5001 608.302,-6.5001"/>
</g>
<!-- Node50&#45;&gt;Node48 -->
<g id="edge66" class="edge"><title>Node50&#45;&gt;Node48</title>
<path fill="none" stroke="midnightblue" d="M482.929,-23.5358C498.618,-20.9324 517.3,-17.8324 532.824,-15.2563"/>
<polygon fill="midnightblue" stroke="midnightblue" points="481.914,-20.1563 472.622,-25.2462 483.06,-27.0619 481.914,-20.1563"/>
</g>
</g>
</svg>
