<?xml version="1.0" encoding="UTF-8" standalone="no"?>
<!DOCTYPE svg PUBLIC "-//W3C//DTD SVG 1.1//EN"
 "http://www.w3.org/Graphics/SVG/1.1/DTD/svg11.dtd">
<!-- Generated by graphviz version 2.38.0 (20140413.2041)
 -->
<!-- Title: luaV_objlen Pages: 1 -->
<svg width="1087pt" height="702pt"
 viewBox="0.00 0.00 1087.00 702.00" xmlns="http://www.w3.org/2000/svg" xmlns:xlink="http://www.w3.org/1999/xlink">
<g id="graph0" class="graph" transform="scale(1 1) rotate(0) translate(4 698)">
<title>luaV_objlen</title>
<!-- Node1 -->
<g id="node1" class="node"><title>Node1</title>
<polygon fill="#bfbfbf" stroke="black" points="0,-532.5 0,-551.5 67,-551.5 67,-532.5 0,-532.5"/>
<text text-anchor="middle" x="33.5" y="-539.5" font-family="Helvetica,sans-Serif" font-size="10.00">luaV_objlen</text>
</g>
<!-- Node2 -->
<g id="node2" class="node"><title>Node2</title>
<g id="a_node2"><a xlink:href="../../da/dd2/lua_8h.html#ac7ade66f92b5e325c42371926f879818" target="_top" xlink:title="lua_len">
<polygon fill="none" stroke="black" points="569,-608.5 569,-627.5 616,-627.5 616,-608.5 569,-608.5"/>
<text text-anchor="middle" x="592.5" y="-615.5" font-family="Helvetica,sans-Serif" font-size="10.00">lua_len</text>
</a>
</g>
</g>
<!-- Node1&#45;&gt;Node2 -->
<g id="edge1" class="edge"><title>Node1&#45;&gt;Node2</title>
<path fill="none" stroke="midnightblue" d="M46.3944,-559.842C74.7489,-599.999 150.663,-694 240,-694 240,-694 240,-694 345,-694 434.118,-694 533.636,-648.076 573.535,-627.625"/>
<polygon fill="midnightblue" stroke="midnightblue" points="49.2071,-557.756 40.6503,-551.508 43.4435,-561.728 49.2071,-557.756"/>
</g>
<!-- Node12 -->
<g id="node12" class="node"><title>Node12</title>
<g id="a_node12"><a xlink:href="../../d5/dcd/lvm_8h.html#ae93565adc36c6e2157dbbd875433ede1" target="_top" xlink:title="luaV_execute">
<polygon fill="none" stroke="black" points="103,-380.5 103,-399.5 177,-399.5 177,-380.5 103,-380.5"/>
<text text-anchor="middle" x="140" y="-387.5" font-family="Helvetica,sans-Serif" font-size="10.00">luaV_execute</text>
</a>
</g>
</g>
<!-- Node1&#45;&gt;Node12 -->
<g id="edge11" class="edge"><title>Node1&#45;&gt;Node12</title>
<path fill="none" stroke="midnightblue" d="M46.8949,-523.971C69.2049,-491.52 115.388,-424.345 132.466,-399.505"/>
<polygon fill="midnightblue" stroke="midnightblue" points="43.8181,-522.268 41.0369,-532.492 49.5864,-526.234 43.8181,-522.268"/>
</g>
<!-- Node3 -->
<g id="node3" class="node"><title>Node3</title>
<g id="a_node3"><a xlink:href="../../da/d29/lauxlib_8h.html#a6f33f64067614a25031412f405a77873" target="_top" xlink:title="luaL_len">
<polygon fill="none" stroke="black" points="697,-342.5 697,-361.5 749,-361.5 749,-342.5 697,-342.5"/>
<text text-anchor="middle" x="723" y="-349.5" font-family="Helvetica,sans-Serif" font-size="10.00">luaL_len</text>
</a>
</g>
</g>
<!-- Node2&#45;&gt;Node3 -->
<g id="edge2" class="edge"><title>Node2&#45;&gt;Node3</title>
<path fill="none" stroke="midnightblue" d="M625.772,-612.621C633.765,-609.807 641.583,-605.523 647,-599 712.545,-520.08 621.979,-453.468 683,-371 686.494,-366.278 691.48,-362.669 696.723,-359.934"/>
<polygon fill="midnightblue" stroke="midnightblue" points="624.746,-609.274 616.085,-615.376 626.661,-616.007 624.746,-609.274"/>
</g>
<!-- Node4 -->
<g id="node4" class="node"><title>Node4</title>
<g id="a_node4"><a xlink:href="../../d2/d82/loadlib_8c.html#a59926ced6bee14c7b952ef79d3520084" target="_top" xlink:title="gctm">
<polygon fill="none" stroke="black" points="812,-380.5 812,-399.5 848,-399.5 848,-380.5 812,-380.5"/>
<text text-anchor="middle" x="830" y="-387.5" font-family="Helvetica,sans-Serif" font-size="10.00">gctm</text>
</a>
</g>
</g>
<!-- Node3&#45;&gt;Node4 -->
<g id="edge3" class="edge"><title>Node3&#45;&gt;Node4</title>
<path fill="none" stroke="midnightblue" d="M758.696,-364.557C776.568,-371.025 797.562,-378.623 811.926,-383.821"/>
<polygon fill="midnightblue" stroke="midnightblue" points="759.744,-361.214 749.15,-361.102 757.362,-367.796 759.744,-361.214"/>
</g>
<!-- Node6 -->
<g id="node6" class="node"><title>Node6</title>
<g id="a_node6"><a xlink:href="../../d2/d82/loadlib_8c.html#a7a6ec2174d2de185431876163cd2d469" target="_top" xlink:title="ll_addtoclib">
<polygon fill="none" stroke="black" points="799,-418.5 799,-437.5 861,-437.5 861,-418.5 799,-418.5"/>
<text text-anchor="middle" x="830" y="-425.5" font-family="Helvetica,sans-Serif" font-size="10.00">ll_addtoclib</text>
</a>
</g>
</g>
<!-- Node3&#45;&gt;Node6 -->
<g id="edge5" class="edge"><title>Node3&#45;&gt;Node6</title>
<path fill="none" stroke="midnightblue" d="M756.009,-366.395C758.439,-367.847 760.799,-369.385 763,-371 781.759,-384.76 781.035,-394.218 799,-409 803.094,-412.369 807.823,-415.618 812.298,-418.449"/>
<polygon fill="midnightblue" stroke="midnightblue" points="757.524,-363.235 747.066,-361.54 754.184,-369.387 757.524,-363.235"/>
</g>
<!-- Node10 -->
<g id="node10" class="node"><title>Node10</title>
<g id="a_node10"><a xlink:href="../../d0/da1/ltablib_8c.html#add6973c515a288f41265aca8e0ae6412" target="_top" xlink:title="tconcat">
<polygon fill="none" stroke="black" points="806.5,-342.5 806.5,-361.5 853.5,-361.5 853.5,-342.5 806.5,-342.5"/>
<text text-anchor="middle" x="830" y="-349.5" font-family="Helvetica,sans-Serif" font-size="10.00">tconcat</text>
</a>
</g>
</g>
<!-- Node3&#45;&gt;Node10 -->
<g id="edge9" class="edge"><title>Node3&#45;&gt;Node10</title>
<path fill="none" stroke="midnightblue" d="M759.417,-352C774.869,-352 792.537,-352 806.203,-352"/>
<polygon fill="midnightblue" stroke="midnightblue" points="759.15,-348.5 749.15,-352 759.15,-355.5 759.15,-348.5"/>
</g>
<!-- Node11 -->
<g id="node11" class="node"><title>Node11</title>
<g id="a_node11"><a xlink:href="../../d0/da1/ltablib_8c.html#aab557c98c16305370f73c4c716f5725d" target="_top" xlink:title="unpack">
<polygon fill="none" stroke="black" points="806,-285.5 806,-304.5 854,-304.5 854,-285.5 806,-285.5"/>
<text text-anchor="middle" x="830" y="-292.5" font-family="Helvetica,sans-Serif" font-size="10.00">unpack</text>
</a>
</g>
</g>
<!-- Node3&#45;&gt;Node11 -->
<g id="edge10" class="edge"><title>Node3&#45;&gt;Node11</title>
<path fill="none" stroke="midnightblue" d="M750.623,-337.547C769.697,-327.193 794.847,-313.54 811.451,-304.526"/>
<polygon fill="midnightblue" stroke="midnightblue" points="748.931,-334.484 741.812,-342.331 752.27,-340.636 748.931,-334.484"/>
</g>
<!-- Node5 -->
<g id="node5" class="node"><title>Node5</title>
<g id="a_node5"><a xlink:href="../../d6/d07/lualib_8h.html#a05e0befc0439f926b6152129ab4f8dea" target="_top" xlink:title="luaopen_package">
<polygon fill="none" stroke="black" points="897,-484.5 897,-503.5 991,-503.5 991,-484.5 897,-484.5"/>
<text text-anchor="middle" x="944" y="-491.5" font-family="Helvetica,sans-Serif" font-size="10.00">luaopen_package</text>
</a>
</g>
</g>
<!-- Node4&#45;&gt;Node5 -->
<g id="edge4" class="edge"><title>Node4&#45;&gt;Node5</title>
<path fill="none" stroke="midnightblue" d="M856.173,-405.276C857.84,-406.49 859.465,-407.737 861,-409 878.965,-423.782 880.863,-430.242 897,-447 909.513,-459.995 924.102,-474.852 933.439,-484.323"/>
<polygon fill="midnightblue" stroke="midnightblue" points="857.947,-402.251 847.702,-399.551 854.027,-408.051 857.947,-402.251"/>
</g>
<!-- Node7 -->
<g id="node7" class="node"><title>Node7</title>
<g id="a_node7"><a xlink:href="../../d2/d82/loadlib_8c.html#a21b83479d4a62aa393b19bcb08e71889" target="_top" xlink:title="ll_loadfunc">
<polygon fill="none" stroke="black" points="914,-418.5 914,-437.5 974,-437.5 974,-418.5 914,-418.5"/>
<text text-anchor="middle" x="944" y="-425.5" font-family="Helvetica,sans-Serif" font-size="10.00">ll_loadfunc</text>
</a>
</g>
</g>
<!-- Node6&#45;&gt;Node7 -->
<g id="edge6" class="edge"><title>Node6&#45;&gt;Node7</title>
<path fill="none" stroke="midnightblue" d="M871.369,-428C885.354,-428 900.753,-428 913.678,-428"/>
<polygon fill="midnightblue" stroke="midnightblue" points="871.014,-424.5 861.014,-428 871.014,-431.5 871.014,-424.5"/>
</g>
<!-- Node8 -->
<g id="node8" class="node"><title>Node8</title>
<g id="a_node8"><a xlink:href="../../d2/d82/loadlib_8c.html#aac7e69bc5b4403e49e2609425f0fb7b0" target="_top" xlink:title="ll_loadlib">
<polygon fill="none" stroke="black" points="1027,-437.5 1027,-456.5 1079,-456.5 1079,-437.5 1027,-437.5"/>
<text text-anchor="middle" x="1053" y="-444.5" font-family="Helvetica,sans-Serif" font-size="10.00">ll_loadlib</text>
</a>
</g>
</g>
<!-- Node7&#45;&gt;Node8 -->
<g id="edge7" class="edge"><title>Node7&#45;&gt;Node8</title>
<path fill="none" stroke="midnightblue" d="M984.264,-434.972C998.47,-437.495 1014.12,-440.274 1026.79,-442.524"/>
<polygon fill="midnightblue" stroke="midnightblue" points="984.696,-431.494 974.238,-433.192 983.472,-438.386 984.696,-431.494"/>
</g>
<!-- Node9 -->
<g id="node9" class="node"><title>Node9</title>
<g id="a_node9"><a xlink:href="../../d2/d82/loadlib_8c.html#a91ac5b5231cf039af46226806dcc3884" target="_top" xlink:title="loadfunc">
<polygon fill="none" stroke="red" points="1027,-399.5 1027,-418.5 1079,-418.5 1079,-399.5 1027,-399.5"/>
<text text-anchor="middle" x="1053" y="-406.5" font-family="Helvetica,sans-Serif" font-size="10.00">loadfunc</text>
</a>
</g>
</g>
<!-- Node7&#45;&gt;Node9 -->
<g id="edge8" class="edge"><title>Node7&#45;&gt;Node9</title>
<path fill="none" stroke="midnightblue" d="M984.264,-421.028C998.47,-418.505 1014.12,-415.726 1026.79,-413.476"/>
<polygon fill="midnightblue" stroke="midnightblue" points="983.472,-417.614 974.238,-422.808 984.696,-424.506 983.472,-417.614"/>
</g>
<!-- Node13 -->
<g id="node13" class="node"><title>Node13</title>
<g id="a_node13"><a xlink:href="../../d2/dd9/ldo_8h.html#a7bb0b106d4012134156e0fa240f51228" target="_top" xlink:title="luaD_call">
<polygon fill="none" stroke="black" points="213,-380.5 213,-399.5 269,-399.5 269,-380.5 213,-380.5"/>
<text text-anchor="middle" x="241" y="-387.5" font-family="Helvetica,sans-Serif" font-size="10.00">luaD_call</text>
</a>
</g>
</g>
<!-- Node12&#45;&gt;Node13 -->
<g id="edge12" class="edge"><title>Node12&#45;&gt;Node13</title>
<path fill="none" stroke="midnightblue" d="M187.201,-383.263C195.984,-383.192 204.906,-383.406 212.855,-383.903"/>
<polygon fill="midnightblue" stroke="midnightblue" points="186.945,-379.768 177.021,-383.478 187.093,-386.766 186.945,-379.768"/>
</g>
<!-- Node47 -->
<g id="node47" class="node"><title>Node47</title>
<g id="a_node47"><a xlink:href="../../d3/d08/ldo_8c.html#a3baab9d298c0c32cb74a9a079d7244de" target="_top" xlink:title="unroll">
<polygon fill="none" stroke="black" points="222,-86.5 222,-105.5 260,-105.5 260,-86.5 222,-86.5"/>
<text text-anchor="middle" x="241" y="-93.5" font-family="Helvetica,sans-Serif" font-size="10.00">unroll</text>
</a>
</g>
</g>
<!-- Node12&#45;&gt;Node47 -->
<g id="edge65" class="edge"><title>Node12&#45;&gt;Node47</title>
<path fill="none" stroke="midnightblue" d="M147.536,-370.589C166.784,-313.428 222.784,-147.126 236.794,-105.521"/>
<polygon fill="midnightblue" stroke="midnightblue" points="144.168,-369.624 144.294,-380.218 150.802,-371.858 144.168,-369.624"/>
</g>
<!-- Node50 -->
<g id="node50" class="node"><title>Node50</title>
<g id="a_node50"><a xlink:href="../../d3/d08/ldo_8c.html#abd7632c715de5db6e7797b7fa3f7010f" target="_top" xlink:title="resume">
<polygon fill="none" stroke="black" points="320.5,-48.5 320.5,-67.5 367.5,-67.5 367.5,-48.5 320.5,-48.5"/>
<text text-anchor="middle" x="344" y="-55.5" font-family="Helvetica,sans-Serif" font-size="10.00">resume</text>
</a>
</g>
</g>
<!-- Node12&#45;&gt;Node50 -->
<g id="edge71" class="edge"><title>Node12&#45;&gt;Node50</title>
<path fill="none" stroke="midnightblue" d="M142.698,-370.083C148.446,-307.614 169.297,-117.3 213,-77 242.009,-50.2498 291.179,-50.9773 320.013,-54.2609"/>
<polygon fill="midnightblue" stroke="midnightblue" points="139.199,-369.923 141.799,-380.194 146.171,-370.544 139.199,-369.923"/>
</g>
<!-- Node13&#45;&gt;Node12 -->
<g id="edge64" class="edge"><title>Node13&#45;&gt;Node12</title>
<path fill="none" stroke="midnightblue" d="M202.865,-396.559C194.406,-396.825 185.433,-396.813 177.021,-396.522"/>
<polygon fill="midnightblue" stroke="midnightblue" points="203.027,-400.056 212.855,-396.097 202.704,-393.063 203.027,-400.056"/>
</g>
<!-- Node14 -->
<g id="node14" class="node"><title>Node14</title>
<g id="a_node14"><a xlink:href="../../dd/d4a/lvm_8c.html#aa904883a58699d9c6ef4d6f0f45037f6" target="_top" xlink:title="callTM">
<polygon fill="none" stroke="black" points="322,-456.5 322,-475.5 366,-475.5 366,-456.5 322,-456.5"/>
<text text-anchor="middle" x="344" y="-463.5" font-family="Helvetica,sans-Serif" font-size="10.00">callTM</text>
</a>
</g>
</g>
<!-- Node13&#45;&gt;Node14 -->
<g id="edge13" class="edge"><title>Node13&#45;&gt;Node14</title>
<path fill="none" stroke="midnightblue" d="M262.82,-405.667C283.13,-420.949 313.367,-443.702 330.312,-456.453"/>
<polygon fill="midnightblue" stroke="midnightblue" points="264.887,-402.841 254.792,-399.625 260.678,-408.435 264.887,-402.841"/>
</g>
<!-- Node29 -->
<g id="node29" class="node"><title>Node29</title>
<g id="a_node29"><a xlink:href="../../de/d27/lgc_8c.html#a929058f72c03750fa82374f6bfa639ee" target="_top" xlink:title="dothecall">
<polygon fill="none" stroke="black" points="317.5,-133.5 317.5,-152.5 370.5,-152.5 370.5,-133.5 317.5,-133.5"/>
<text text-anchor="middle" x="344" y="-140.5" font-family="Helvetica,sans-Serif" font-size="10.00">dothecall</text>
</a>
</g>
</g>
<!-- Node13&#45;&gt;Node29 -->
<g id="edge37" class="edge"><title>Node13&#45;&gt;Node29</title>
<path fill="none" stroke="midnightblue" d="M244.667,-370.182C250.563,-331.462 267.285,-244.05 305,-181 311.61,-169.951 322.136,-159.772 330.435,-152.735"/>
<polygon fill="midnightblue" stroke="midnightblue" points="241.192,-369.757 243.228,-380.154 248.12,-370.757 241.192,-369.757"/>
</g>
<!-- Node33 -->
<g id="node33" class="node"><title>Node33</title>
<g id="a_node33"><a xlink:href="../../df/db6/lapi_8c.html#ac3926c93fb08234f9f47e24653124910" target="_top" xlink:title="f_call">
<polygon fill="none" stroke="black" points="325,-494.5 325,-513.5 363,-513.5 363,-494.5 325,-494.5"/>
<text text-anchor="middle" x="344" y="-501.5" font-family="Helvetica,sans-Serif" font-size="10.00">f_call</text>
</a>
</g>
</g>
<!-- Node13&#45;&gt;Node33 -->
<g id="edge41" class="edge"><title>Node13&#45;&gt;Node33</title>
<path fill="none" stroke="midnightblue" d="M250.627,-408.626C261.046,-429.457 280.292,-463.134 305,-485 310.745,-490.084 318.093,-494.173 324.794,-497.236"/>
<polygon fill="midnightblue" stroke="midnightblue" points="253.739,-407.021 246.237,-399.54 247.436,-410.067 253.739,-407.021"/>
</g>
<!-- Node34 -->
<g id="node34" class="node"><title>Node34</title>
<g id="a_node34"><a xlink:href="../../da/dd2/lua_8h.html#a3c4de08aa665eaee4aabd330aa99a441" target="_top" xlink:title="lua_pcallk">
<polygon fill="none" stroke="black" points="431,-532.5 431,-551.5 490,-551.5 490,-532.5 431,-532.5"/>
<text text-anchor="middle" x="460.5" y="-539.5" font-family="Helvetica,sans-Serif" font-size="10.00">lua_pcallk</text>
</a>
</g>
</g>
<!-- Node13&#45;&gt;Node34 -->
<g id="edge47" class="edge"><title>Node13&#45;&gt;Node34</title>
<path fill="none" stroke="midnightblue" d="M245.233,-409.764C251.247,-439.633 267.163,-495.679 305,-523 342.028,-549.737 397.5,-549.453 430.926,-546.172"/>
<polygon fill="midnightblue" stroke="midnightblue" points="248.636,-408.916 243.388,-399.713 241.751,-410.18 248.636,-408.916"/>
</g>
<!-- Node37 -->
<g id="node37" class="node"><title>Node37</title>
<g id="a_node37"><a xlink:href="../../da/dd2/lua_8h.html#aa6aba1fd89ac6f1c5ccfdfd12f826d80" target="_top" xlink:title="lua_callk">
<polygon fill="none" stroke="black" points="317.5,-190.5 317.5,-209.5 370.5,-209.5 370.5,-190.5 317.5,-190.5"/>
<text text-anchor="middle" x="344" y="-197.5" font-family="Helvetica,sans-Serif" font-size="10.00">lua_callk</text>
</a>
</g>
</g>
<!-- Node13&#45;&gt;Node37 -->
<g id="edge45" class="edge"><title>Node13&#45;&gt;Node37</title>
<path fill="none" stroke="midnightblue" d="M251.868,-371.436C272.927,-331.821 321.656,-240.152 337.742,-209.892"/>
<polygon fill="midnightblue" stroke="midnightblue" points="248.751,-369.844 247.147,-380.317 254.932,-373.13 248.751,-369.844"/>
</g>
<!-- Node39 -->
<g id="node39" class="node"><title>Node39</title>
<g id="a_node39"><a xlink:href="../../db/d46/ldebug_8h.html#acd5ef9f67a8e9d08f6540636fdbeafe6" target="_top" xlink:title="luaG_errormsg">
<polygon fill="none" stroke="black" points="305,-342.5 305,-361.5 383,-361.5 383,-342.5 305,-342.5"/>
<text text-anchor="middle" x="344" y="-349.5" font-family="Helvetica,sans-Serif" font-size="10.00">luaG_errormsg</text>
</a>
</g>
</g>
<!-- Node13&#45;&gt;Node39 -->
<g id="edge48" class="edge"><title>Node13&#45;&gt;Node39</title>
<path fill="none" stroke="midnightblue" d="M276.866,-376.882C290.225,-371.856 305.202,-366.221 317.522,-361.586"/>
<polygon fill="midnightblue" stroke="midnightblue" points="275.614,-373.614 267.487,-380.411 278.079,-380.165 275.614,-373.614"/>
</g>
<!-- Node15 -->
<g id="node15" class="node"><title>Node15</title>
<g id="a_node15"><a xlink:href="../../dd/d4a/lvm_8c.html#a5f9dd797eb313b8e117cb20546276732" target="_top" xlink:title="call_binTM">
<polygon fill="none" stroke="black" points="429.5,-304.5 429.5,-323.5 491.5,-323.5 491.5,-304.5 429.5,-304.5"/>
<text text-anchor="middle" x="460.5" y="-311.5" font-family="Helvetica,sans-Serif" font-size="10.00">call_binTM</text>
</a>
</g>
</g>
<!-- Node14&#45;&gt;Node15 -->
<g id="edge14" class="edge"><title>Node14&#45;&gt;Node15</title>
<path fill="none" stroke="midnightblue" d="M358.268,-448.387C382.591,-416.097 433.548,-348.452 452.34,-323.505"/>
<polygon fill="midnightblue" stroke="midnightblue" points="355.384,-446.398 352.162,-456.492 360.975,-450.61 355.384,-446.398"/>
</g>
<!-- Node19 -->
<g id="node19" class="node"><title>Node19</title>
<g id="a_node19"><a xlink:href="../../d5/dcd/lvm_8h.html#ab77cced08254efde4e5dfb28b37a7f31" target="_top" xlink:title="luaV_equalobj_">
<polygon fill="none" stroke="black" points="419,-418.5 419,-437.5 502,-437.5 502,-418.5 419,-418.5"/>
<text text-anchor="middle" x="460.5" y="-425.5" font-family="Helvetica,sans-Serif" font-size="10.00">luaV_equalobj_</text>
</a>
</g>
</g>
<!-- Node14&#45;&gt;Node19 -->
<g id="edge20" class="edge"><title>Node14&#45;&gt;Node19</title>
<path fill="none" stroke="midnightblue" d="M375.568,-455.855C392.736,-450.157 414.028,-443.091 430.87,-437.502"/>
<polygon fill="midnightblue" stroke="midnightblue" points="374.39,-452.558 366.001,-459.03 376.595,-459.202 374.39,-452.558"/>
</g>
<!-- Node20 -->
<g id="node20" class="node"><title>Node20</title>
<g id="a_node20"><a xlink:href="../../d5/dcd/lvm_8h.html#adacdbccc9d8fab937a1b0dc058c8da12" target="_top" xlink:title="luaV_gettable">
<polygon fill="none" stroke="black" points="555,-456.5 555,-475.5 630,-475.5 630,-456.5 555,-456.5"/>
<text text-anchor="middle" x="592.5" y="-463.5" font-family="Helvetica,sans-Serif" font-size="10.00">luaV_gettable</text>
</a>
</g>
</g>
<!-- Node14&#45;&gt;Node20 -->
<g id="edge21" class="edge"><title>Node14&#45;&gt;Node20</title>
<path fill="none" stroke="midnightblue" d="M376.178,-466C421.718,-466 506.266,-466 554.763,-466"/>
<polygon fill="midnightblue" stroke="midnightblue" points="376.016,-462.5 366.016,-466 376.016,-469.5 376.016,-462.5"/>
</g>
<!-- Node24 -->
<g id="node24" class="node"><title>Node24</title>
<g id="a_node24"><a xlink:href="../../d5/dcd/lvm_8h.html#a414b4b487239935324f2f16e1e7715db" target="_top" xlink:title="luaV_objlen">
<polygon fill="none" stroke="black" points="427,-570.5 427,-589.5 494,-589.5 494,-570.5 427,-570.5"/>
<text text-anchor="middle" x="460.5" y="-577.5" font-family="Helvetica,sans-Serif" font-size="10.00">luaV_objlen</text>
</a>
</g>
</g>
<!-- Node14&#45;&gt;Node24 -->
<g id="edge27" class="edge"><title>Node14&#45;&gt;Node24</title>
<path fill="none" stroke="midnightblue" d="M375.158,-478.611C377.998,-480.503 380.678,-482.628 383,-485 409.146,-511.708 392.522,-534.621 419,-561 422.741,-564.727 427.353,-567.815 432.108,-570.34"/>
<polygon fill="midnightblue" stroke="midnightblue" points="376.78,-475.508 366.355,-473.622 373.329,-481.598 376.78,-475.508"/>
</g>
<!-- Node25 -->
<g id="node25" class="node"><title>Node25</title>
<g id="a_node25"><a xlink:href="../../d5/dcd/lvm_8h.html#a5885d48fd66eb236f8b8f6e4938cbcce" target="_top" xlink:title="luaV_settable">
<polygon fill="none" stroke="black" points="555,-494.5 555,-513.5 630,-513.5 630,-494.5 555,-494.5"/>
<text text-anchor="middle" x="592.5" y="-501.5" font-family="Helvetica,sans-Serif" font-size="10.00">luaV_settable</text>
</a>
</g>
</g>
<!-- Node14&#45;&gt;Node25 -->
<g id="edge30" class="edge"><title>Node14&#45;&gt;Node25</title>
<path fill="none" stroke="midnightblue" d="M376.02,-472.217C389.24,-474.776 404.848,-477.678 419,-480 465.696,-487.661 519.766,-494.924 554.742,-499.413"/>
<polygon fill="midnightblue" stroke="midnightblue" points="376.49,-468.743 366.004,-470.256 375.145,-475.612 376.49,-468.743"/>
</g>
<!-- Node16 -->
<g id="node16" class="node"><title>Node16</title>
<g id="a_node16"><a xlink:href="../../dd/d4a/lvm_8c.html#a1d1301ff4a771ce4198673dd113d10a5" target="_top" xlink:title="call_orderTM">
<polygon fill="none" stroke="red" points="558,-304.5 558,-323.5 627,-323.5 627,-304.5 558,-304.5"/>
<text text-anchor="middle" x="592.5" y="-311.5" font-family="Helvetica,sans-Serif" font-size="10.00">call_orderTM</text>
</a>
</g>
</g>
<!-- Node15&#45;&gt;Node16 -->
<g id="edge15" class="edge"><title>Node15&#45;&gt;Node16</title>
<path fill="none" stroke="midnightblue" d="M501.841,-314C519.814,-314 540.74,-314 557.853,-314"/>
<polygon fill="midnightblue" stroke="midnightblue" points="501.651,-310.5 491.651,-314 501.651,-317.5 501.651,-310.5"/>
</g>
<!-- Node17 -->
<g id="node17" class="node"><title>Node17</title>
<g id="a_node17"><a xlink:href="../../d5/dcd/lvm_8h.html#a275e261afaec876cd16944b95c955642" target="_top" xlink:title="luaV_arith">
<polygon fill="none" stroke="red" points="563,-266.5 563,-285.5 622,-285.5 622,-266.5 563,-266.5"/>
<text text-anchor="middle" x="592.5" y="-273.5" font-family="Helvetica,sans-Serif" font-size="10.00">luaV_arith</text>
</a>
</g>
</g>
<!-- Node15&#45;&gt;Node17 -->
<g id="edge16" class="edge"><title>Node15&#45;&gt;Node17</title>
<path fill="none" stroke="midnightblue" d="M501.359,-302.349C521.225,-296.542 544.795,-289.652 562.85,-284.375"/>
<polygon fill="midnightblue" stroke="midnightblue" points="500.268,-299.021 491.651,-305.187 502.232,-305.74 500.268,-299.021"/>
</g>
<!-- Node18 -->
<g id="node18" class="node"><title>Node18</title>
<g id="a_node18"><a xlink:href="../../d5/dcd/lvm_8h.html#aee84bfc563cb4bdd21a013218a289aa7" target="_top" xlink:title="luaV_concat">
<polygon fill="none" stroke="red" points="558,-342.5 558,-361.5 627,-361.5 627,-342.5 558,-342.5"/>
<text text-anchor="middle" x="592.5" y="-349.5" font-family="Helvetica,sans-Serif" font-size="10.00">luaV_concat</text>
</a>
</g>
</g>
<!-- Node15&#45;&gt;Node18 -->
<g id="edge18" class="edge"><title>Node15&#45;&gt;Node18</title>
<path fill="none" stroke="midnightblue" d="M501.49,-325.689C519.866,-331.061 541.389,-337.352 558.779,-342.436"/>
<polygon fill="midnightblue" stroke="midnightblue" points="502.232,-322.26 491.651,-322.813 500.268,-328.979 502.232,-322.26"/>
</g>
<!-- Node17&#45;&gt;Node12 -->
<g id="edge17" class="edge"><title>Node17&#45;&gt;Node12</title>
<path fill="none" stroke="midnightblue" d="M552.308,-275.836C481.468,-276.917 328.726,-285.619 213,-337 188.6,-347.833 164.485,-368.034 151.287,-380.125"/>
<polygon fill="midnightblue" stroke="midnightblue" points="552.593,-279.333 562.554,-275.725 552.517,-272.334 552.593,-279.333"/>
</g>
<!-- Node18&#45;&gt;Node12 -->
<g id="edge19" class="edge"><title>Node18&#45;&gt;Node12</title>
<path fill="none" stroke="midnightblue" d="M547.579,-346.594C479.179,-338.597 350.351,-325.344 305,-333 251.351,-342.057 191.825,-366.679 161.381,-380.414"/>
<polygon fill="midnightblue" stroke="midnightblue" points="547.274,-350.082 557.616,-347.78 548.096,-343.13 547.274,-350.082"/>
</g>
<!-- Node20&#45;&gt;Node12 -->
<g id="edge26" class="edge"><title>Node20&#45;&gt;Node12</title>
<path fill="none" stroke="midnightblue" d="M545.831,-478.644C542.98,-480.483 540.327,-482.589 538,-485 501.1,-523.229 544.856,-567.592 502,-599 472.246,-620.806 455.674,-602.974 419,-599 320.701,-588.348 281.229,-586.561 213,-515 178.264,-478.567 153.688,-422.287 144.732,-399.785"/>
<polygon fill="midnightblue" stroke="midnightblue" points="547.637,-481.648 554.85,-473.888 544.372,-475.456 547.637,-481.648"/>
</g>
<!-- Node21 -->
<g id="node21" class="node"><title>Node21</title>
<g id="a_node21"><a xlink:href="../../da/dd2/lua_8h.html#a2b4a9010af0545ae0f822d7f081370d0" target="_top" xlink:title="lua_getglobal">
<polygon fill="none" stroke="red" points="686.5,-380.5 686.5,-399.5 759.5,-399.5 759.5,-380.5 686.5,-380.5"/>
<text text-anchor="middle" x="723" y="-387.5" font-family="Helvetica,sans-Serif" font-size="10.00">lua_getglobal</text>
</a>
</g>
</g>
<!-- Node20&#45;&gt;Node21 -->
<g id="edge22" class="edge"><title>Node20&#45;&gt;Node21</title>
<path fill="none" stroke="midnightblue" d="M637.208,-452.468C640.619,-450.818 643.928,-448.999 647,-447 666.5,-434.312 664.241,-422.76 683,-409 687.858,-405.436 693.489,-402.244 698.934,-399.54"/>
<polygon fill="midnightblue" stroke="midnightblue" points="635.813,-449.257 628.029,-456.444 638.596,-455.68 635.813,-449.257"/>
</g>
<!-- Node22 -->
<g id="node22" class="node"><title>Node22</title>
<g id="a_node22"><a xlink:href="../../da/dd2/lua_8h.html#a8d82fa181a3003e9a304040c0bbed9ac" target="_top" xlink:title="lua_gettable">
<polygon fill="none" stroke="red" points="689,-456.5 689,-475.5 757,-475.5 757,-456.5 689,-456.5"/>
<text text-anchor="middle" x="723" y="-463.5" font-family="Helvetica,sans-Serif" font-size="10.00">lua_gettable</text>
</a>
</g>
</g>
<!-- Node20&#45;&gt;Node22 -->
<g id="edge23" class="edge"><title>Node20&#45;&gt;Node22</title>
<path fill="none" stroke="midnightblue" d="M640.549,-466C656.516,-466 674.013,-466 688.683,-466"/>
<polygon fill="midnightblue" stroke="midnightblue" points="640.323,-462.5 630.323,-466 640.323,-469.5 640.323,-462.5"/>
</g>
<!-- Node23 -->
<g id="node23" class="node"><title>Node23</title>
<g id="a_node23"><a xlink:href="../../da/dd2/lua_8h.html#ac3112bb28ba217adc46f13da8e9e6585" target="_top" xlink:title="lua_getfield">
<polygon fill="none" stroke="red" points="691.5,-418.5 691.5,-437.5 754.5,-437.5 754.5,-418.5 691.5,-418.5"/>
<text text-anchor="middle" x="723" y="-425.5" font-family="Helvetica,sans-Serif" font-size="10.00">lua_getfield</text>
</a>
</g>
</g>
<!-- Node20&#45;&gt;Node23 -->
<g id="edge24" class="edge"><title>Node20&#45;&gt;Node23</title>
<path fill="none" stroke="midnightblue" d="M635.698,-453.521C653.863,-448.15 674.703,-441.987 691.354,-437.063"/>
<polygon fill="midnightblue" stroke="midnightblue" points="634.523,-450.219 625.926,-456.411 636.508,-456.931 634.523,-450.219"/>
</g>
<!-- Node23&#45;&gt;Node6 -->
<g id="edge25" class="edge"><title>Node23&#45;&gt;Node6</title>
<path fill="none" stroke="midnightblue" d="M764.788,-428C776.13,-428 788.241,-428 798.853,-428"/>
<polygon fill="midnightblue" stroke="midnightblue" points="764.653,-424.5 754.653,-428 764.653,-431.5 764.653,-424.5"/>
</g>
<!-- Node24&#45;&gt;Node2 -->
<g id="edge28" class="edge"><title>Node24&#45;&gt;Node2</title>
<path fill="none" stroke="midnightblue" d="M503.945,-592.407C525.602,-598.737 551.071,-606.182 568.939,-611.405"/>
<polygon fill="midnightblue" stroke="midnightblue" points="504.885,-589.035 494.304,-589.589 502.921,-595.754 504.885,-589.035"/>
</g>
<!-- Node24&#45;&gt;Node12 -->
<g id="edge29" class="edge"><title>Node24&#45;&gt;Node12</title>
<path fill="none" stroke="midnightblue" d="M416.943,-577.58C384.643,-574.272 339.977,-566.455 305,-548 231.568,-509.256 168.253,-427.756 147.87,-399.718"/>
<polygon fill="midnightblue" stroke="midnightblue" points="416.689,-581.071 426.968,-578.503 417.332,-574.101 416.689,-581.071"/>
</g>
<!-- Node25&#45;&gt;Node12 -->
<g id="edge36" class="edge"><title>Node25&#45;&gt;Node12</title>
<path fill="none" stroke="midnightblue" d="M545.855,-516.874C543.017,-518.659 540.359,-520.69 538,-523 505.739,-554.591 539.156,-592.346 502,-618 429.682,-667.932 388.455,-628.537 305,-601 261.006,-586.484 244.572,-585.903 213,-552 169.162,-504.926 148.914,-426.739 142.957,-399.616"/>
<polygon fill="midnightblue" stroke="midnightblue" points="547.537,-519.944 554.791,-512.222 544.305,-513.735 547.537,-519.944"/>
</g>
<!-- Node26 -->
<g id="node26" class="node"><title>Node26</title>
<g id="a_node26"><a xlink:href="../../da/dd2/lua_8h.html#ac0ebe7d753b81f6249dde8cf0b8ea997" target="_top" xlink:title="lua_setglobal">
<polygon fill="none" stroke="red" points="686.5,-532.5 686.5,-551.5 759.5,-551.5 759.5,-532.5 686.5,-532.5"/>
<text text-anchor="middle" x="723" y="-539.5" font-family="Helvetica,sans-Serif" font-size="10.00">lua_setglobal</text>
</a>
</g>
</g>
<!-- Node25&#45;&gt;Node26 -->
<g id="edge31" class="edge"><title>Node25&#45;&gt;Node26</title>
<path fill="none" stroke="midnightblue" d="M635.889,-516.535C653.37,-521.705 673.302,-527.599 689.584,-532.414"/>
<polygon fill="midnightblue" stroke="midnightblue" points="636.508,-513.069 625.926,-513.589 634.523,-519.781 636.508,-513.069"/>
</g>
<!-- Node27 -->
<g id="node27" class="node"><title>Node27</title>
<g id="a_node27"><a xlink:href="../../da/dd2/lua_8h.html#aeda173d104e3a566ccaac89a1f64a5eb" target="_top" xlink:title="lua_settable">
<polygon fill="none" stroke="red" points="689,-494.5 689,-513.5 757,-513.5 757,-494.5 689,-494.5"/>
<text text-anchor="middle" x="723" y="-501.5" font-family="Helvetica,sans-Serif" font-size="10.00">lua_settable</text>
</a>
</g>
</g>
<!-- Node25&#45;&gt;Node27 -->
<g id="edge32" class="edge"><title>Node25&#45;&gt;Node27</title>
<path fill="none" stroke="midnightblue" d="M640.549,-504C656.516,-504 674.013,-504 688.683,-504"/>
<polygon fill="midnightblue" stroke="midnightblue" points="640.323,-500.5 630.323,-504 640.323,-507.5 640.323,-500.5"/>
</g>
<!-- Node28 -->
<g id="node28" class="node"><title>Node28</title>
<g id="a_node28"><a xlink:href="../../da/dd2/lua_8h.html#a9580a15c141cbe4bf2a63fea625c3878" target="_top" xlink:title="lua_setfield">
<polygon fill="none" stroke="red" points="691.5,-570.5 691.5,-589.5 754.5,-589.5 754.5,-570.5 691.5,-570.5"/>
<text text-anchor="middle" x="723" y="-577.5" font-family="Helvetica,sans-Serif" font-size="10.00">lua_setfield</text>
</a>
</g>
</g>
<!-- Node25&#45;&gt;Node28 -->
<g id="edge33" class="edge"><title>Node25&#45;&gt;Node28</title>
<path fill="none" stroke="midnightblue" d="M637.208,-517.532C640.619,-519.182 643.928,-521.001 647,-523 666.5,-535.688 664.241,-547.24 683,-561 687.858,-564.564 693.489,-567.756 698.934,-570.46"/>
<polygon fill="midnightblue" stroke="midnightblue" points="638.596,-514.32 628.029,-513.556 635.813,-520.743 638.596,-514.32"/>
</g>
<!-- Node28&#45;&gt;Node5 -->
<g id="edge35" class="edge"><title>Node28&#45;&gt;Node5</title>
<path fill="none" stroke="midnightblue" d="M757.775,-566.737C802.257,-549.269 879.411,-518.971 918.618,-503.575"/>
<polygon fill="midnightblue" stroke="midnightblue" points="756.302,-563.555 748.274,-570.468 758.861,-570.07 756.302,-563.555"/>
</g>
<!-- Node28&#45;&gt;Node6 -->
<g id="edge34" class="edge"><title>Node28&#45;&gt;Node6</title>
<path fill="none" stroke="midnightblue" d="M758.464,-564.924C760.072,-563.7 761.597,-562.393 763,-561 782.117,-542.022 814.01,-465.385 825.076,-437.884"/>
<polygon fill="midnightblue" stroke="midnightblue" points="756.474,-562.042 749.921,-570.367 760.236,-567.945 756.474,-562.042"/>
</g>
<!-- Node30 -->
<g id="node30" class="node"><title>Node30</title>
<g id="a_node30"><a xlink:href="../../de/d27/lgc_8c.html#ab9ec6b56580b9e66f41743e393e7e033" target="_top" xlink:title="GCTM">
<polygon fill="none" stroke="black" points="437.5,-81.5 437.5,-100.5 483.5,-100.5 483.5,-81.5 437.5,-81.5"/>
<text text-anchor="middle" x="460.5" y="-88.5" font-family="Helvetica,sans-Serif" font-size="10.00">GCTM</text>
</a>
</g>
</g>
<!-- Node29&#45;&gt;Node30 -->
<g id="edge38" class="edge"><title>Node29&#45;&gt;Node30</title>
<path fill="none" stroke="midnightblue" d="M375.231,-129.271C395.07,-120.261 420.526,-108.7 438.244,-100.653"/>
<polygon fill="midnightblue" stroke="midnightblue" points="373.659,-126.141 366.001,-133.462 376.553,-132.514 373.659,-126.141"/>
</g>
<!-- Node31 -->
<g id="node31" class="node"><title>Node31</title>
<g id="a_node31"><a xlink:href="../../de/d27/lgc_8c.html#a74f50e6006422d43686521fe765152dd" target="_top" xlink:title="callallpendingfinalizers">
<polygon fill="none" stroke="red" points="538,-76.5 538,-95.5 647,-95.5 647,-76.5 538,-76.5"/>
<text text-anchor="middle" x="592.5" y="-83.5" font-family="Helvetica,sans-Serif" font-size="10.00">callallpendingfinalizers</text>
</a>
</g>
</g>
<!-- Node30&#45;&gt;Node31 -->
<g id="edge39" class="edge"><title>Node30&#45;&gt;Node31</title>
<path fill="none" stroke="midnightblue" d="M493.662,-89.763C507.017,-89.2493 522.881,-88.6392 537.906,-88.0613"/>
<polygon fill="midnightblue" stroke="midnightblue" points="493.411,-86.27 483.553,-90.1518 493.68,-93.2648 493.411,-86.27"/>
</g>
<!-- Node32 -->
<g id="node32" class="node"><title>Node32</title>
<g id="a_node32"><a xlink:href="../../dc/d9c/lgc_8h.html#a19359957605d7c8eaf70803e5b77361f" target="_top" xlink:title="luaC_forcestep">
<polygon fill="none" stroke="red" points="552.5,-38.5 552.5,-57.5 632.5,-57.5 632.5,-38.5 552.5,-38.5"/>
<text text-anchor="middle" x="592.5" y="-45.5" font-family="Helvetica,sans-Serif" font-size="10.00">luaC_forcestep</text>
</a>
</g>
</g>
<!-- Node30&#45;&gt;Node32 -->
<g id="edge40" class="edge"><title>Node30&#45;&gt;Node32</title>
<path fill="none" stroke="midnightblue" d="M493.063,-80.5601C514.221,-73.5616 541.874,-64.4147 562.482,-57.5982"/>
<polygon fill="midnightblue" stroke="midnightblue" points="491.948,-77.2423 483.553,-83.7056 494.146,-83.8881 491.948,-77.2423"/>
</g>
<!-- Node33&#45;&gt;Node34 -->
<g id="edge42" class="edge"><title>Node33&#45;&gt;Node34</title>
<path fill="none" stroke="midnightblue" d="M372.818,-513.232C390.374,-519.059 413.002,-526.568 430.736,-532.454"/>
<polygon fill="midnightblue" stroke="midnightblue" points="373.736,-509.849 363.143,-510.021 371.531,-516.493 373.736,-509.849"/>
</g>
<!-- Node35 -->
<g id="node35" class="node"><title>Node35</title>
<g id="a_node35"><a xlink:href="../../d8/dd3/lbaselib_8c.html#a1fb2725eed679431d070b2e9e7abc223" target="_top" xlink:title="luaB_pcall">
<polygon fill="none" stroke="black" points="562,-532.5 562,-551.5 623,-551.5 623,-532.5 562,-532.5"/>
<text text-anchor="middle" x="592.5" y="-539.5" font-family="Helvetica,sans-Serif" font-size="10.00">luaB_pcall</text>
</a>
</g>
</g>
<!-- Node34&#45;&gt;Node35 -->
<g id="edge43" class="edge"><title>Node34&#45;&gt;Node35</title>
<path fill="none" stroke="midnightblue" d="M500.211,-542C519.89,-542 543.434,-542 561.683,-542"/>
<polygon fill="midnightblue" stroke="midnightblue" points="500.029,-538.5 490.029,-542 500.029,-545.5 500.029,-538.5"/>
</g>
<!-- Node36 -->
<g id="node36" class="node"><title>Node36</title>
<g id="a_node36"><a xlink:href="../../d8/dd3/lbaselib_8c.html#a5fbb0094fa1a56f0a4c2547f1ec4c5ab" target="_top" xlink:title="luaB_xpcall">
<polygon fill="none" stroke="black" points="559.5,-570.5 559.5,-589.5 625.5,-589.5 625.5,-570.5 559.5,-570.5"/>
<text text-anchor="middle" x="592.5" y="-577.5" font-family="Helvetica,sans-Serif" font-size="10.00">luaB_xpcall</text>
</a>
</g>
</g>
<!-- Node34&#45;&gt;Node36 -->
<g id="edge44" class="edge"><title>Node34&#45;&gt;Node36</title>
<path fill="none" stroke="midnightblue" d="M499.838,-553.207C518.776,-558.742 541.367,-565.346 559.382,-570.612"/>
<polygon fill="midnightblue" stroke="midnightblue" points="500.609,-549.786 490.029,-550.339 498.645,-556.504 500.609,-549.786"/>
</g>
<!-- Node38 -->
<g id="node38" class="node"><title>Node38</title>
<g id="a_node38"><a xlink:href="../../d8/dd3/lbaselib_8c.html#a86a4e35d9c9ad4661a0dbbac3758c049" target="_top" xlink:title="luaB_dofile">
<polygon fill="none" stroke="black" points="561.5,-114.5 561.5,-133.5 623.5,-133.5 623.5,-114.5 561.5,-114.5"/>
<text text-anchor="middle" x="592.5" y="-121.5" font-family="Helvetica,sans-Serif" font-size="10.00">luaB_dofile</text>
</a>
</g>
</g>
<!-- Node37&#45;&gt;Node38 -->
<g id="edge46" class="edge"><title>Node37&#45;&gt;Node38</title>
<path fill="none" stroke="midnightblue" d="M380.703,-188.992C429.389,-173.982 515.75,-147.355 561.355,-133.294"/>
<polygon fill="midnightblue" stroke="midnightblue" points="379.439,-185.719 370.914,-192.01 381.501,-192.409 379.439,-185.719"/>
</g>
<!-- Node40 -->
<g id="node40" class="node"><title>Node40</title>
<g id="a_node40"><a xlink:href="../../da/dd2/lua_8h.html#aae6c05ddea7bd110a3e84595ef92e601" target="_top" xlink:title="lua_error">
<polygon fill="none" stroke="black" points="434.5,-190.5 434.5,-209.5 486.5,-209.5 486.5,-190.5 434.5,-190.5"/>
<text text-anchor="middle" x="460.5" y="-197.5" font-family="Helvetica,sans-Serif" font-size="10.00">lua_error</text>
</a>
</g>
</g>
<!-- Node39&#45;&gt;Node40 -->
<g id="edge49" class="edge"><title>Node39&#45;&gt;Node40</title>
<path fill="none" stroke="midnightblue" d="M358.268,-334.387C382.591,-302.097 433.548,-234.452 452.34,-209.505"/>
<polygon fill="midnightblue" stroke="midnightblue" points="355.384,-332.398 352.162,-342.492 360.975,-336.61 355.384,-332.398"/>
</g>
<!-- Node44 -->
<g id="node44" class="node"><title>Node44</title>
<g id="a_node44"><a xlink:href="../../db/d46/ldebug_8h.html#a6f27f64630215e18a11be9ba21d3c4bf" target="_top" xlink:title="luaG_runerror">
<polygon fill="none" stroke="red" points="424,-380.5 424,-399.5 497,-399.5 497,-380.5 424,-380.5"/>
<text text-anchor="middle" x="460.5" y="-387.5" font-family="Helvetica,sans-Serif" font-size="10.00">luaG_runerror</text>
</a>
</g>
</g>
<!-- Node39&#45;&gt;Node44 -->
<g id="edge56" class="edge"><title>Node39&#45;&gt;Node44</title>
<path fill="none" stroke="midnightblue" d="M383.647,-364.826C399.01,-369.925 416.379,-375.689 430.616,-380.414"/>
<polygon fill="midnightblue" stroke="midnightblue" points="384.487,-361.417 373.893,-361.589 382.282,-368.061 384.487,-361.417"/>
</g>
<!-- Node40&#45;&gt;Node38 -->
<g id="edge51" class="edge"><title>Node40&#45;&gt;Node38</title>
<path fill="none" stroke="midnightblue" d="M482.155,-184.5C497.201,-173.577 518.31,-158.997 538,-148 547.51,-142.689 558.416,-137.625 567.891,-133.529"/>
<polygon fill="midnightblue" stroke="midnightblue" points="480.039,-181.712 474.054,-190.454 484.185,-187.352 480.039,-181.712"/>
</g>
<!-- Node41 -->
<g id="node41" class="node"><title>Node41</title>
<g id="a_node41"><a xlink:href="../../df/d2d/lcorolib_8c.html#a777abb20385a69ce4787f72bd90375a7" target="_top" xlink:title="luaB_auxwrap">
<polygon fill="none" stroke="red" points="683,-76.5 683,-95.5 763,-95.5 763,-76.5 683,-76.5"/>
<text text-anchor="middle" x="723" y="-83.5" font-family="Helvetica,sans-Serif" font-size="10.00">luaB_auxwrap</text>
</a>
</g>
</g>
<!-- Node40&#45;&gt;Node41 -->
<g id="edge50" class="edge"><title>Node40&#45;&gt;Node41</title>
<path fill="none" stroke="midnightblue" d="M496.657,-190.781C542.68,-178.443 620.594,-156.546 647,-143 672.32,-130.011 697.868,-108.346 711.638,-95.8001"/>
<polygon fill="midnightblue" stroke="midnightblue" points="495.56,-187.452 486.799,-193.409 497.363,-194.216 495.56,-187.452"/>
</g>
<!-- Node42 -->
<g id="node42" class="node"><title>Node42</title>
<g id="a_node42"><a xlink:href="../../d8/dd3/lbaselib_8c.html#a2ecfa987569d0b4c1063f3e204e42dd2" target="_top" xlink:title="luaB_error">
<polygon fill="none" stroke="black" points="563,-190.5 563,-209.5 622,-209.5 622,-190.5 563,-190.5"/>
<text text-anchor="middle" x="592.5" y="-197.5" font-family="Helvetica,sans-Serif" font-size="10.00">luaB_error</text>
</a>
</g>
</g>
<!-- Node40&#45;&gt;Node42 -->
<g id="edge52" class="edge"><title>Node40&#45;&gt;Node42</title>
<path fill="none" stroke="midnightblue" d="M496.594,-200C517.372,-200 543.364,-200 562.891,-200"/>
<polygon fill="midnightblue" stroke="midnightblue" points="496.565,-196.5 486.565,-200 496.565,-203.5 496.565,-196.5"/>
</g>
<!-- Node43 -->
<g id="node43" class="node"><title>Node43</title>
<g id="a_node43"><a xlink:href="../../da/d29/lauxlib_8h.html#a994f73d7985c30672469a260d9e86ae6" target="_top" xlink:title="luaL_error">
<polygon fill="none" stroke="red" points="564,-228.5 564,-247.5 621,-247.5 621,-228.5 564,-228.5"/>
<text text-anchor="middle" x="592.5" y="-235.5" font-family="Helvetica,sans-Serif" font-size="10.00">luaL_error</text>
</a>
</g>
</g>
<!-- Node40&#45;&gt;Node43 -->
<g id="edge53" class="edge"><title>Node40&#45;&gt;Node43</title>
<path fill="none" stroke="midnightblue" d="M496.448,-210.216C517.578,-216.392 544.141,-224.157 563.811,-229.906"/>
<polygon fill="midnightblue" stroke="midnightblue" points="497.146,-206.773 486.565,-207.327 495.182,-213.492 497.146,-206.773"/>
</g>
<!-- Node43&#45;&gt;Node3 -->
<g id="edge54" class="edge"><title>Node43&#45;&gt;Node3</title>
<path fill="none" stroke="midnightblue" d="M630.689,-248.122C636.426,-250.537 642.073,-253.469 647,-257 680.305,-280.871 706.388,-323.497 716.927,-342.455"/>
<polygon fill="midnightblue" stroke="midnightblue" points="631.652,-244.746 621.06,-244.528 629.205,-251.304 631.652,-244.746"/>
</g>
<!-- Node43&#45;&gt;Node11 -->
<g id="edge55" class="edge"><title>Node43&#45;&gt;Node11</title>
<path fill="none" stroke="midnightblue" d="M631.376,-247.167C680.574,-259.075 764.968,-279.502 805.682,-289.356"/>
<polygon fill="midnightblue" stroke="midnightblue" points="631.982,-243.713 621.44,-244.762 630.336,-250.517 631.982,-243.713"/>
</g>
<!-- Node44&#45;&gt;Node12 -->
<g id="edge61" class="edge"><title>Node44&#45;&gt;Node12</title>
<path fill="none" stroke="midnightblue" d="M413.941,-399.396C403.795,-401.192 393.062,-402.864 383,-404 372.935,-405.136 246.645,-413.365 213,-409 198.641,-407.137 183.065,-403.268 170.085,-399.504"/>
<polygon fill="midnightblue" stroke="midnightblue" points="414.644,-402.825 423.846,-397.573 413.377,-395.941 414.644,-402.825"/>
</g>
<!-- Node44&#45;&gt;Node13 -->
<g id="edge59" class="edge"><title>Node44&#45;&gt;Node13</title>
<path fill="none" stroke="midnightblue" d="M413.618,-390C369.809,-390 305.267,-390 269.107,-390"/>
<polygon fill="midnightblue" stroke="midnightblue" points="413.73,-393.5 423.73,-390 413.73,-386.5 413.73,-393.5"/>
</g>
<!-- Node44&#45;&gt;Node18 -->
<g id="edge60" class="edge"><title>Node44&#45;&gt;Node18</title>
<path fill="none" stroke="midnightblue" d="M504.384,-377.465C522.069,-372.295 542.234,-366.401 558.706,-361.586"/>
<polygon fill="midnightblue" stroke="midnightblue" points="502.921,-374.246 494.304,-380.411 504.885,-380.965 502.921,-374.246"/>
</g>
<!-- Node44&#45;&gt;Node20 -->
<g id="edge62" class="edge"><title>Node44&#45;&gt;Node20</title>
<path fill="none" stroke="midnightblue" d="M494.938,-404.431C497.392,-405.867 499.775,-407.393 502,-409 520.859,-422.622 518.5,-434.312 538,-447 543.783,-450.763 550.404,-453.888 556.971,-456.444"/>
<polygon fill="midnightblue" stroke="midnightblue" points="496.364,-401.226 485.889,-399.639 493.088,-407.412 496.364,-401.226"/>
</g>
<!-- Node44&#45;&gt;Node25 -->
<g id="edge63" class="edge"><title>Node44&#45;&gt;Node25</title>
<path fill="none" stroke="midnightblue" d="M497.462,-405.072C499.072,-406.294 500.597,-407.602 502,-409 528.478,-435.379 510.269,-459.941 538,-485 542.827,-489.362 548.72,-492.737 554.81,-495.345"/>
<polygon fill="midnightblue" stroke="midnightblue" points="499.216,-402.041 488.892,-399.66 495.478,-407.959 499.216,-402.041"/>
</g>
<!-- Node45 -->
<g id="node45" class="node"><title>Node45</title>
<g id="a_node45"><a xlink:href="../../dc/d1e/ltable_8c.html#a4c78714b16a133fb409681f8ca4240be" target="_top" xlink:title="findindex">
<polygon fill="none" stroke="red" points="566,-380.5 566,-399.5 619,-399.5 619,-380.5 566,-380.5"/>
<text text-anchor="middle" x="592.5" y="-387.5" font-family="Helvetica,sans-Serif" font-size="10.00">findindex</text>
</a>
</g>
</g>
<!-- Node44&#45;&gt;Node45 -->
<g id="edge57" class="edge"><title>Node44&#45;&gt;Node45</title>
<path fill="none" stroke="midnightblue" d="M507.059,-390C526.792,-390 549.159,-390 565.913,-390"/>
<polygon fill="midnightblue" stroke="midnightblue" points="507.023,-386.5 497.023,-390 507.023,-393.5 507.023,-386.5"/>
</g>
<!-- Node46 -->
<g id="node46" class="node"><title>Node46</title>
<g id="a_node46"><a xlink:href="../../da/dd2/lua_8h.html#a77807056ba032d64b2def2b57dc53d53" target="_top" xlink:title="lua_pushnumber">
<polygon fill="none" stroke="red" points="548.5,-418.5 548.5,-437.5 636.5,-437.5 636.5,-418.5 548.5,-418.5"/>
<text text-anchor="middle" x="592.5" y="-425.5" font-family="Helvetica,sans-Serif" font-size="10.00">lua_pushnumber</text>
</a>
</g>
</g>
<!-- Node44&#45;&gt;Node46 -->
<g id="edge58" class="edge"><title>Node44&#45;&gt;Node46</title>
<path fill="none" stroke="midnightblue" d="M504.384,-402.535C522.069,-407.705 542.234,-413.599 558.706,-418.414"/>
<polygon fill="midnightblue" stroke="midnightblue" points="504.885,-399.035 494.304,-399.589 502.921,-405.754 504.885,-399.035"/>
</g>
<!-- Node48 -->
<g id="node48" class="node"><title>Node48</title>
<g id="a_node48"><a xlink:href="../../da/dd2/lua_8h.html#a434479f022eda738b99000aad5ddd929" target="_top" xlink:title="lua_resume">
<polygon fill="none" stroke="black" points="428,-43.5 428,-62.5 493,-62.5 493,-43.5 428,-43.5"/>
<text text-anchor="middle" x="460.5" y="-50.5" font-family="Helvetica,sans-Serif" font-size="10.00">lua_resume</text>
</a>
</g>
</g>
<!-- Node47&#45;&gt;Node48 -->
<g id="edge66" class="edge"><title>Node47&#45;&gt;Node48</title>
<path fill="none" stroke="midnightblue" d="M270.549,-93.5899C299.211,-90.8348 344.517,-85.564 383,-77 399.848,-73.2506 418.323,-67.5026 432.896,-62.5718"/>
<polygon fill="midnightblue" stroke="midnightblue" points="270.063,-90.1197 260.428,-94.5242 270.707,-97.0901 270.063,-90.1197"/>
</g>
<!-- Node47&#45;&gt;Node50 -->
<g id="edge69" class="edge"><title>Node47&#45;&gt;Node50</title>
<path fill="none" stroke="midnightblue" d="M269.826,-85.5307C285.648,-79.5778 305.218,-72.2151 320.137,-66.602"/>
<polygon fill="midnightblue" stroke="midnightblue" points="268.184,-82.4091 260.057,-89.2064 270.649,-88.9607 268.184,-82.4091"/>
</g>
<!-- Node49 -->
<g id="node49" class="node"><title>Node49</title>
<g id="a_node49"><a xlink:href="../../df/d2d/lcorolib_8c.html#aaa37b3a30ab0c6daef7fae8951fef3e7" target="_top" xlink:title="auxresume">
<polygon fill="none" stroke="red" points="560.5,-0.5 560.5,-19.5 624.5,-19.5 624.5,-0.5 560.5,-0.5"/>
<text text-anchor="middle" x="592.5" y="-7.5" font-family="Helvetica,sans-Serif" font-size="10.00">auxresume</text>
</a>
</g>
</g>
<!-- Node48&#45;&gt;Node49 -->
<g id="edge67" class="edge"><title>Node48&#45;&gt;Node49</title>
<path fill="none" stroke="midnightblue" d="M499.857,-40.3126C519.984,-33.6552 544.232,-25.6347 562.729,-19.5164"/>
<polygon fill="midnightblue" stroke="midnightblue" points="498.746,-36.9935 490.351,-43.4569 500.944,-43.6394 498.746,-36.9935"/>
</g>
<!-- Node49&#45;&gt;Node41 -->
<g id="edge68" class="edge"><title>Node49&#45;&gt;Node41</title>
<path fill="none" stroke="midnightblue" d="M634.316,-22.9979C638.682,-24.8276 642.99,-26.8323 647,-29 672.034,-42.5319 697.685,-64.0014 711.55,-76.367"/>
<polygon fill="midnightblue" stroke="midnightblue" points="635.344,-19.6424 624.756,-19.2764 632.805,-26.1656 635.344,-19.6424"/>
</g>
<!-- Node50&#45;&gt;Node48 -->
<g id="edge70" class="edge"><title>Node50&#45;&gt;Node48</title>
<path fill="none" stroke="midnightblue" d="M377.929,-56.562C393.618,-55.8769 412.3,-55.0611 427.824,-54.3832"/>
<polygon fill="midnightblue" stroke="midnightblue" points="377.459,-53.0791 367.622,-57.0122 377.765,-60.0725 377.459,-53.0791"/>
</g>
</g>
</svg>
