<?xml version="1.0" encoding="UTF-8" standalone="no"?>
<!DOCTYPE svg PUBLIC "-//W3C//DTD SVG 1.1//EN"
 "http://www.w3.org/Graphics/SVG/1.1/DTD/svg11.dtd">
<!-- Generated by graphviz version 2.38.0 (20140413.2041)
 -->
<!-- Title: getcached Pages: 1 -->
<svg width="887pt" height="1176pt"
 viewBox="0.00 0.00 887.00 1176.00" xmlns="http://www.w3.org/2000/svg" xmlns:xlink="http://www.w3.org/1999/xlink">
<g id="graph0" class="graph" transform="scale(1 1) rotate(0) translate(4 1172)">
<title>getcached</title>
<!-- Node1 -->
<g id="node1" class="node"><title>Node1</title>
<polygon fill="#bfbfbf" stroke="black" points="0,-427.5 0,-446.5 60,-446.5 60,-427.5 0,-427.5"/>
<text text-anchor="middle" x="30" y="-434.5" font-family="Helvetica,sans-Serif" font-size="10.00">getcached</text>
</g>
<!-- Node2 -->
<g id="node2" class="node"><title>Node2</title>
<g id="a_node2"><a xlink:href="../../d5/dcd/lvm_8h.html#ae93565adc36c6e2157dbbd875433ede1" target="_top" xlink:title="luaV_execute">
<polygon fill="none" stroke="black" points="96,-427.5 96,-446.5 170,-446.5 170,-427.5 96,-427.5"/>
<text text-anchor="middle" x="133" y="-434.5" font-family="Helvetica,sans-Serif" font-size="10.00">luaV_execute</text>
</a>
</g>
</g>
<!-- Node1&#45;&gt;Node2 -->
<g id="edge1" class="edge"><title>Node1&#45;&gt;Node2</title>
<path fill="none" stroke="midnightblue" d="M70.4414,-437C78.7505,-437 87.4798,-437 95.6682,-437"/>
<polygon fill="midnightblue" stroke="midnightblue" points="70.2134,-433.5 60.2134,-437 70.2134,-440.5 70.2134,-433.5"/>
</g>
<!-- Node3 -->
<g id="node3" class="node"><title>Node3</title>
<g id="a_node3"><a xlink:href="../../d2/dd9/ldo_8h.html#a7bb0b106d4012134156e0fa240f51228" target="_top" xlink:title="luaD_call">
<polygon fill="none" stroke="black" points="206,-615.5 206,-634.5 262,-634.5 262,-615.5 206,-615.5"/>
<text text-anchor="middle" x="234" y="-622.5" font-family="Helvetica,sans-Serif" font-size="10.00">luaD_call</text>
</a>
</g>
</g>
<!-- Node2&#45;&gt;Node3 -->
<g id="edge2" class="edge"><title>Node2&#45;&gt;Node3</title>
<path fill="none" stroke="midnightblue" d="M146.126,-455.415C168.68,-494.868 216.008,-585.367 229.4,-615.425"/>
<polygon fill="midnightblue" stroke="midnightblue" points="149.02,-453.43 140.961,-446.552 142.972,-456.955 149.02,-453.43"/>
</g>
<!-- Node47 -->
<g id="node47" class="node"><title>Node47</title>
<g id="a_node47"><a xlink:href="../../d3/d08/ldo_8c.html#a3baab9d298c0c32cb74a9a079d7244de" target="_top" xlink:title="unroll">
<polygon fill="none" stroke="black" points="215,-484.5 215,-503.5 253,-503.5 253,-484.5 215,-484.5"/>
<text text-anchor="middle" x="234" y="-491.5" font-family="Helvetica,sans-Serif" font-size="10.00">unroll</text>
</a>
</g>
</g>
<!-- Node2&#45;&gt;Node47 -->
<g id="edge65" class="edge"><title>Node2&#45;&gt;Node47</title>
<path fill="none" stroke="midnightblue" d="M159.594,-451.736C177.516,-462.055 200.941,-475.542 216.454,-484.474"/>
<polygon fill="midnightblue" stroke="midnightblue" points="161.207,-448.626 150.794,-446.669 157.714,-454.692 161.207,-448.626"/>
</g>
<!-- Node50 -->
<g id="node50" class="node"><title>Node50</title>
<g id="a_node50"><a xlink:href="../../d3/d08/ldo_8c.html#abd7632c715de5db6e7797b7fa3f7010f" target="_top" xlink:title="resume">
<polygon fill="none" stroke="black" points="313.5,-522.5 313.5,-541.5 360.5,-541.5 360.5,-522.5 313.5,-522.5"/>
<text text-anchor="middle" x="337" y="-529.5" font-family="Helvetica,sans-Serif" font-size="10.00">resume</text>
</a>
</g>
</g>
<!-- Node2&#45;&gt;Node50 -->
<g id="edge71" class="edge"><title>Node2&#45;&gt;Node50</title>
<path fill="none" stroke="midnightblue" d="M145.67,-455.079C158.261,-472.953 180.037,-499.524 206,-513 240.416,-530.864 286.45,-533.381 313.496,-533.056"/>
<polygon fill="midnightblue" stroke="midnightblue" points="148.457,-452.954 139.949,-446.64 142.663,-456.882 148.457,-452.954"/>
</g>
<!-- Node3&#45;&gt;Node2 -->
<g id="edge64" class="edge"><title>Node3&#45;&gt;Node2</title>
<path fill="none" stroke="midnightblue" d="M220.849,-606.541C198.307,-567.104 151.083,-476.806 137.641,-446.667"/>
<polygon fill="midnightblue" stroke="midnightblue" points="217.954,-608.525 226.012,-615.403 224.002,-605.001 217.954,-608.525"/>
</g>
<!-- Node4 -->
<g id="node4" class="node"><title>Node4</title>
<g id="a_node4"><a xlink:href="../../dd/d4a/lvm_8c.html#aa904883a58699d9c6ef4d6f0f45037f6" target="_top" xlink:title="callTM">
<polygon fill="none" stroke="black" points="315,-304.5 315,-323.5 359,-323.5 359,-304.5 315,-304.5"/>
<text text-anchor="middle" x="337" y="-311.5" font-family="Helvetica,sans-Serif" font-size="10.00">callTM</text>
</a>
</g>
</g>
<!-- Node3&#45;&gt;Node4 -->
<g id="edge3" class="edge"><title>Node3&#45;&gt;Node4</title>
<path fill="none" stroke="midnightblue" d="M241.271,-605.691C260.6,-546.171 318.811,-366.929 332.903,-323.536"/>
<polygon fill="midnightblue" stroke="midnightblue" points="237.893,-604.759 238.133,-615.351 244.551,-606.921 237.893,-604.759"/>
</g>
<!-- Node32 -->
<g id="node32" class="node"><title>Node32</title>
<g id="a_node32"><a xlink:href="../../de/d27/lgc_8c.html#a929058f72c03750fa82374f6bfa639ee" target="_top" xlink:title="dothecall">
<polygon fill="none" stroke="black" points="310.5,-1104.5 310.5,-1123.5 363.5,-1123.5 363.5,-1104.5 310.5,-1104.5"/>
<text text-anchor="middle" x="337" y="-1111.5" font-family="Helvetica,sans-Serif" font-size="10.00">dothecall</text>
</a>
</g>
</g>
<!-- Node3&#45;&gt;Node32 -->
<g id="edge46" class="edge"><title>Node3&#45;&gt;Node32</title>
<path fill="none" stroke="midnightblue" d="M239.049,-644.604C256.082,-727.068 321.604,-1044.3 333.978,-1104.21"/>
<polygon fill="midnightblue" stroke="midnightblue" points="242.468,-643.853 237.018,-634.768 235.613,-645.269 242.468,-643.853"/>
</g>
<!-- Node36 -->
<g id="node36" class="node"><title>Node36</title>
<g id="a_node36"><a xlink:href="../../df/db6/lapi_8c.html#ac3926c93fb08234f9f47e24653124910" target="_top" xlink:title="f_call">
<polygon fill="none" stroke="black" points="318,-758.5 318,-777.5 356,-777.5 356,-758.5 318,-758.5"/>
<text text-anchor="middle" x="337" y="-765.5" font-family="Helvetica,sans-Serif" font-size="10.00">f_call</text>
</a>
</g>
</g>
<!-- Node3&#45;&gt;Node36 -->
<g id="edge50" class="edge"><title>Node3&#45;&gt;Node36</title>
<path fill="none" stroke="midnightblue" d="M247.947,-643.33C269.669,-674.086 312.702,-735.014 329.275,-758.479"/>
<polygon fill="midnightblue" stroke="midnightblue" points="250.57,-640.978 241.942,-634.829 244.852,-645.016 250.57,-640.978"/>
</g>
<!-- Node37 -->
<g id="node37" class="node"><title>Node37</title>
<g id="a_node37"><a xlink:href="../../da/dd2/lua_8h.html#a3c4de08aa665eaee4aabd330aa99a441" target="_top" xlink:title="lua_pcallk">
<polygon fill="none" stroke="black" points="424,-1015.5 424,-1034.5 483,-1034.5 483,-1015.5 424,-1015.5"/>
<text text-anchor="middle" x="453.5" y="-1022.5" font-family="Helvetica,sans-Serif" font-size="10.00">lua_pcallk</text>
</a>
</g>
</g>
<!-- Node3&#45;&gt;Node37 -->
<g id="edge56" class="edge"><title>Node3&#45;&gt;Node37</title>
<path fill="none" stroke="midnightblue" d="M241.439,-644.476C260.793,-701.133 322.674,-869.191 412,-985 420.691,-996.268 432.419,-1007.52 441.018,-1015.2"/>
<polygon fill="midnightblue" stroke="midnightblue" points="244.648,-643.038 238.139,-634.678 238.014,-645.272 244.648,-643.038"/>
</g>
<!-- Node40 -->
<g id="node40" class="node"><title>Node40</title>
<g id="a_node40"><a xlink:href="../../da/dd2/lua_8h.html#aa6aba1fd89ac6f1c5ccfdfd12f826d80" target="_top" xlink:title="lua_callk">
<polygon fill="none" stroke="black" points="310.5,-675.5 310.5,-694.5 363.5,-694.5 363.5,-675.5 310.5,-675.5"/>
<text text-anchor="middle" x="337" y="-682.5" font-family="Helvetica,sans-Serif" font-size="10.00">lua_callk</text>
</a>
</g>
</g>
<!-- Node3&#45;&gt;Node40 -->
<g id="edge54" class="edge"><title>Node3&#45;&gt;Node40</title>
<path fill="none" stroke="midnightblue" d="M259.827,-639.749C278.529,-650.859 303.63,-665.771 319.813,-675.384"/>
<polygon fill="midnightblue" stroke="midnightblue" points="261.612,-636.738 251.227,-634.64 258.037,-642.757 261.612,-636.738"/>
</g>
<!-- Node42 -->
<g id="node42" class="node"><title>Node42</title>
<g id="a_node42"><a xlink:href="../../db/d46/ldebug_8h.html#acd5ef9f67a8e9d08f6540636fdbeafe6" target="_top" xlink:title="luaG_errormsg">
<polygon fill="none" stroke="black" points="298,-615.5 298,-634.5 376,-634.5 376,-615.5 298,-615.5"/>
<text text-anchor="middle" x="337" y="-622.5" font-family="Helvetica,sans-Serif" font-size="10.00">luaG_errormsg</text>
</a>
</g>
</g>
<!-- Node3&#45;&gt;Node42 -->
<g id="edge57" class="edge"><title>Node3&#45;&gt;Node42</title>
<path fill="none" stroke="midnightblue" d="M272.277,-625C280.617,-625 289.473,-625 297.848,-625"/>
<polygon fill="midnightblue" stroke="midnightblue" points="272.066,-621.5 262.066,-625 272.066,-628.5 272.066,-621.5"/>
</g>
<!-- Node5 -->
<g id="node5" class="node"><title>Node5</title>
<g id="a_node5"><a xlink:href="../../dd/d4a/lvm_8c.html#a5f9dd797eb313b8e117cb20546276732" target="_top" xlink:title="call_binTM">
<polygon fill="none" stroke="black" points="422.5,-275.5 422.5,-294.5 484.5,-294.5 484.5,-275.5 422.5,-275.5"/>
<text text-anchor="middle" x="453.5" y="-282.5" font-family="Helvetica,sans-Serif" font-size="10.00">call_binTM</text>
</a>
</g>
</g>
<!-- Node4&#45;&gt;Node5 -->
<g id="edge4" class="edge"><title>Node4&#45;&gt;Node5</title>
<path fill="none" stroke="midnightblue" d="M368.749,-306.212C385.302,-302.02 405.647,-296.867 422.14,-292.689"/>
<polygon fill="midnightblue" stroke="midnightblue" points="367.836,-302.833 359.001,-308.681 369.554,-309.619 367.836,-302.833"/>
</g>
<!-- Node17 -->
<g id="node17" class="node"><title>Node17</title>
<g id="a_node17"><a xlink:href="../../d5/dcd/lvm_8h.html#adacdbccc9d8fab937a1b0dc058c8da12" target="_top" xlink:title="luaV_gettable">
<polygon fill="none" stroke="black" points="685.5,-161.5 685.5,-180.5 760.5,-180.5 760.5,-161.5 685.5,-161.5"/>
<text text-anchor="middle" x="723" y="-168.5" font-family="Helvetica,sans-Serif" font-size="10.00">luaV_gettable</text>
</a>
</g>
</g>
<!-- Node4&#45;&gt;Node17 -->
<g id="edge43" class="edge"><title>Node4&#45;&gt;Node17</title>
<path fill="none" stroke="midnightblue" d="M353.533,-296.752C383.853,-264.534 454.661,-196.199 531,-171 582.484,-154.005 646.114,-158.719 685.376,-164.344"/>
<polygon fill="midnightblue" stroke="midnightblue" points="350.619,-294.748 346.4,-304.467 355.759,-299.5 350.619,-294.748"/>
</g>
<!-- Node21 -->
<g id="node21" class="node"><title>Node21</title>
<g id="a_node21"><a xlink:href="../../d5/dcd/lvm_8h.html#a414b4b487239935324f2f16e1e7715db" target="_top" xlink:title="luaV_objlen">
<polygon fill="none" stroke="black" points="689.5,-66.5 689.5,-85.5 756.5,-85.5 756.5,-66.5 689.5,-66.5"/>
<text text-anchor="middle" x="723" y="-73.5" font-family="Helvetica,sans-Serif" font-size="10.00">luaV_objlen</text>
</a>
</g>
</g>
<!-- Node4&#45;&gt;Node21 -->
<g id="edge44" class="edge"><title>Node4&#45;&gt;Node21</title>
<path fill="none" stroke="midnightblue" d="M345.84,-294.95C357.497,-268.152 381.356,-218.723 412,-184 455.701,-134.481 469.441,-118.923 531,-95 583.647,-74.5405 650.31,-72.8444 689.349,-74.0342"/>
<polygon fill="midnightblue" stroke="midnightblue" points="342.541,-293.765 341.855,-304.338 348.984,-296.5 342.541,-293.765"/>
</g>
<!-- Node23 -->
<g id="node23" class="node"><title>Node23</title>
<g id="a_node23"><a xlink:href="../../d5/dcd/lvm_8h.html#a5885d48fd66eb236f8b8f6e4938cbcce" target="_top" xlink:title="luaV_settable">
<polygon fill="none" stroke="black" points="685.5,-332.5 685.5,-351.5 760.5,-351.5 760.5,-332.5 685.5,-332.5"/>
<text text-anchor="middle" x="723" y="-339.5" font-family="Helvetica,sans-Serif" font-size="10.00">luaV_settable</text>
</a>
</g>
</g>
<!-- Node4&#45;&gt;Node23 -->
<g id="edge45" class="edge"><title>Node4&#45;&gt;Node23</title>
<path fill="none" stroke="midnightblue" d="M369.205,-316.275C439.538,-321.404 610.151,-333.844 685.357,-339.328"/>
<polygon fill="midnightblue" stroke="midnightblue" points="369.421,-312.782 359.192,-315.545 368.911,-319.763 369.421,-312.782"/>
</g>
<!-- Node31 -->
<g id="node31" class="node"><title>Node31</title>
<g id="a_node31"><a xlink:href="../../d5/dcd/lvm_8h.html#ab77cced08254efde4e5dfb28b37a7f31" target="_top" xlink:title="luaV_equalobj_">
<polygon fill="none" stroke="black" points="412,-370.5 412,-389.5 495,-389.5 495,-370.5 412,-370.5"/>
<text text-anchor="middle" x="453.5" y="-377.5" font-family="Helvetica,sans-Serif" font-size="10.00">luaV_equalobj_</text>
</a>
</g>
</g>
<!-- Node4&#45;&gt;Node31 -->
<g id="edge42" class="edge"><title>Node4&#45;&gt;Node31</title>
<path fill="none" stroke="midnightblue" d="M363.74,-328.837C385.822,-341.565 416.987,-359.529 435.908,-370.436"/>
<polygon fill="midnightblue" stroke="midnightblue" points="365.307,-325.7 354.895,-323.739 361.811,-331.765 365.307,-325.7"/>
</g>
<!-- Node6 -->
<g id="node6" class="node"><title>Node6</title>
<g id="a_node6"><a xlink:href="../../dd/d4a/lvm_8c.html#a1d1301ff4a771ce4198673dd113d10a5" target="_top" xlink:title="call_orderTM">
<polygon fill="none" stroke="red" points="551,-256.5 551,-275.5 620,-275.5 620,-256.5 551,-256.5"/>
<text text-anchor="middle" x="585.5" y="-263.5" font-family="Helvetica,sans-Serif" font-size="10.00">call_orderTM</text>
</a>
</g>
</g>
<!-- Node5&#45;&gt;Node6 -->
<g id="edge5" class="edge"><title>Node5&#45;&gt;Node6</title>
<path fill="none" stroke="midnightblue" d="M494.589,-279.141C512.618,-276.506 533.66,-273.431 550.853,-270.918"/>
<polygon fill="midnightblue" stroke="midnightblue" points="494.04,-275.684 484.651,-280.593 495.052,-282.61 494.04,-275.684"/>
</g>
<!-- Node7 -->
<g id="node7" class="node"><title>Node7</title>
<g id="a_node7"><a xlink:href="../../d5/dcd/lvm_8h.html#a275e261afaec876cd16944b95c955642" target="_top" xlink:title="luaV_arith">
<polygon fill="none" stroke="red" points="556,-104.5 556,-123.5 615,-123.5 615,-104.5 556,-104.5"/>
<text text-anchor="middle" x="585.5" y="-111.5" font-family="Helvetica,sans-Serif" font-size="10.00">luaV_arith</text>
</a>
</g>
</g>
<!-- Node5&#45;&gt;Node7 -->
<g id="edge6" class="edge"><title>Node5&#45;&gt;Node7</title>
<path fill="none" stroke="midnightblue" d="M465.464,-266.743C479.597,-243.686 505.41,-203.143 531,-171 545.033,-153.374 563.362,-134.64 574.515,-123.646"/>
<polygon fill="midnightblue" stroke="midnightblue" points="462.358,-265.115 460.157,-275.479 468.34,-268.75 462.358,-265.115"/>
</g>
<!-- Node8 -->
<g id="node8" class="node"><title>Node8</title>
<g id="a_node8"><a xlink:href="../../d5/dcd/lvm_8h.html#aee84bfc563cb4bdd21a013218a289aa7" target="_top" xlink:title="luaV_concat">
<polygon fill="none" stroke="red" points="551,-370.5 551,-389.5 620,-389.5 620,-370.5 551,-370.5"/>
<text text-anchor="middle" x="585.5" y="-377.5" font-family="Helvetica,sans-Serif" font-size="10.00">luaV_concat</text>
</a>
</g>
</g>
<!-- Node5&#45;&gt;Node8 -->
<g id="edge8" class="edge"><title>Node5&#45;&gt;Node8</title>
<path fill="none" stroke="midnightblue" d="M476.021,-300.727C503.147,-320.55 548.933,-354.008 571.344,-370.386"/>
<polygon fill="midnightblue" stroke="midnightblue" points="478.062,-297.883 467.923,-294.809 473.932,-303.535 478.062,-297.883"/>
</g>
<!-- Node7&#45;&gt;Node2 -->
<g id="edge7" class="edge"><title>Node7&#45;&gt;Node2</title>
<path fill="none" stroke="midnightblue" d="M545.913,-112.799C470.35,-112.608 301.896,-123.148 206,-214 141.912,-274.717 134.74,-392.73 134.042,-427.278"/>
<polygon fill="midnightblue" stroke="midnightblue" points="545.91,-116.299 555.942,-112.89 545.974,-109.299 545.91,-116.299"/>
</g>
<!-- Node8&#45;&gt;Node2 -->
<g id="edge41" class="edge"><title>Node8&#45;&gt;Node2</title>
<path fill="none" stroke="midnightblue" d="M540.492,-390.297C526.056,-393.418 509.897,-396.641 495,-399 376.735,-417.725 235.166,-429.587 170.03,-434.459"/>
<polygon fill="midnightblue" stroke="midnightblue" points="541.644,-393.627 550.656,-388.056 540.136,-386.791 541.644,-393.627"/>
</g>
<!-- Node9 -->
<g id="node9" class="node"><title>Node9</title>
<g id="a_node9"><a xlink:href="../../d2/d51/lobject_8h.html#a0d323372aa00f179e1c070d305f879f3" target="_top" xlink:title="luaO_pushvfstring">
<polygon fill="none" stroke="red" points="676,-721.5 676,-740.5 770,-740.5 770,-721.5 676,-721.5"/>
<text text-anchor="middle" x="723" y="-728.5" font-family="Helvetica,sans-Serif" font-size="10.00">luaO_pushvfstring</text>
</a>
</g>
</g>
<!-- Node8&#45;&gt;Node9 -->
<g id="edge9" class="edge"><title>Node8&#45;&gt;Node9</title>
<path fill="none" stroke="midnightblue" d="M606.237,-396.572C617.606,-407.088 631.319,-421.584 640,-437 697.332,-538.81 716.735,-683.351 721.014,-721.481"/>
<polygon fill="midnightblue" stroke="midnightblue" points="608.274,-393.7 598.479,-389.663 603.619,-398.927 608.274,-393.7"/>
</g>
<!-- Node10 -->
<g id="node10" class="node"><title>Node10</title>
<g id="a_node10"><a xlink:href="../../db/d46/ldebug_8h.html#a6f27f64630215e18a11be9ba21d3c4bf" target="_top" xlink:title="luaG_runerror">
<polygon fill="none" stroke="black" points="417,-560.5 417,-579.5 490,-579.5 490,-560.5 417,-560.5"/>
<text text-anchor="middle" x="453.5" y="-567.5" font-family="Helvetica,sans-Serif" font-size="10.00">luaG_runerror</text>
</a>
</g>
</g>
<!-- Node9&#45;&gt;Node10 -->
<g id="edge10" class="edge"><title>Node9&#45;&gt;Node10</title>
<path fill="none" stroke="midnightblue" d="M687.251,-742.392C645.206,-749.162 574.64,-749.15 531,-712 490.542,-677.558 529.996,-637.98 495,-598 487.225,-589.117 474.405,-584.084 465.272,-579.577"/>
<polygon fill="midnightblue" stroke="midnightblue" points="688.092,-745.797 697.293,-740.544 686.824,-738.912 688.092,-745.797"/>
</g>
<!-- Node10&#45;&gt;Node2 -->
<g id="edge37" class="edge"><title>Node10&#45;&gt;Node2</title>
<path fill="none" stroke="midnightblue" d="M441.347,-551.82C428.24,-532.099 404.608,-501.262 376,-485 310.091,-447.534 219.636,-438.931 170.084,-437.188"/>
<polygon fill="midnightblue" stroke="midnightblue" points="438.412,-553.727 446.76,-560.251 444.303,-549.945 438.412,-553.727"/>
</g>
<!-- Node10&#45;&gt;Node3 -->
<g id="edge14" class="edge"><title>Node10&#45;&gt;Node3</title>
<path fill="none" stroke="midnightblue" d="M406.719,-579.861C375.873,-586.702 334.338,-596.297 298,-606 286.19,-609.153 273.246,-612.99 262.18,-616.388"/>
<polygon fill="midnightblue" stroke="midnightblue" points="407.736,-583.221 416.748,-577.65 406.228,-576.385 407.736,-583.221"/>
</g>
<!-- Node10&#45;&gt;Node8 -->
<g id="edge36" class="edge"><title>Node10&#45;&gt;Node8</title>
<path fill="none" stroke="midnightblue" d="M458.762,-550.333C467.067,-516.321 488.451,-446.119 531,-404 537.222,-397.841 545.301,-393.111 553.288,-389.546"/>
<polygon fill="midnightblue" stroke="midnightblue" points="455.28,-549.856 456.435,-560.388 462.1,-551.435 455.28,-549.856"/>
</g>
<!-- Node10&#45;&gt;Node9 -->
<g id="edge35" class="edge"><title>Node10&#45;&gt;Node9</title>
<path fill="none" stroke="midnightblue" d="M496.629,-583.514C525.511,-624.754 492.991,-661.644 531,-694 570.938,-727.999 633.427,-730.893 675.968,-730.063"/>
<polygon fill="midnightblue" stroke="midnightblue" points="499.208,-581.134 490.244,-575.486 493.729,-585.491 499.208,-581.134"/>
</g>
<!-- Node11 -->
<g id="node11" class="node"><title>Node11</title>
<g id="a_node11"><a xlink:href="../../dc/d1e/ltable_8c.html#a4c78714b16a133fb409681f8ca4240be" target="_top" xlink:title="findindex">
<polygon fill="none" stroke="red" points="559,-636.5 559,-655.5 612,-655.5 612,-636.5 559,-636.5"/>
<text text-anchor="middle" x="585.5" y="-643.5" font-family="Helvetica,sans-Serif" font-size="10.00">findindex</text>
</a>
</g>
</g>
<!-- Node10&#45;&gt;Node11 -->
<g id="edge11" class="edge"><title>Node10&#45;&gt;Node11</title>
<path fill="none" stroke="midnightblue" d="M487.938,-584.431C490.392,-585.867 492.775,-587.393 495,-589 513.859,-602.622 511.5,-614.312 531,-627 539.427,-632.483 549.632,-636.613 558.86,-639.598"/>
<polygon fill="midnightblue" stroke="midnightblue" points="489.364,-581.226 478.889,-579.639 486.088,-587.412 489.364,-581.226"/>
</g>
<!-- Node12 -->
<g id="node12" class="node"><title>Node12</title>
<g id="a_node12"><a xlink:href="../../da/dd2/lua_8h.html#a77807056ba032d64b2def2b57dc53d53" target="_top" xlink:title="lua_pushnumber">
<polygon fill="none" stroke="red" points="541.5,-598.5 541.5,-617.5 629.5,-617.5 629.5,-598.5 541.5,-598.5"/>
<text text-anchor="middle" x="585.5" y="-605.5" font-family="Helvetica,sans-Serif" font-size="10.00">lua_pushnumber</text>
</a>
</g>
</g>
<!-- Node10&#45;&gt;Node12 -->
<g id="edge12" class="edge"><title>Node10&#45;&gt;Node12</title>
<path fill="none" stroke="midnightblue" d="M497.384,-582.535C515.069,-587.705 535.234,-593.599 551.706,-598.414"/>
<polygon fill="midnightblue" stroke="midnightblue" points="497.885,-579.035 487.304,-579.589 495.921,-585.754 497.885,-579.035"/>
</g>
<!-- Node13 -->
<g id="node13" class="node"><title>Node13</title>
<g id="a_node13"><a xlink:href="../../da/dd2/lua_8h.html#ab717ff0354e9c39199b16a1c412fa252" target="_top" xlink:title="lua_yieldk">
<polygon fill="none" stroke="black" points="556.5,-560.5 556.5,-579.5 614.5,-579.5 614.5,-560.5 556.5,-560.5"/>
<text text-anchor="middle" x="585.5" y="-567.5" font-family="Helvetica,sans-Serif" font-size="10.00">lua_yieldk</text>
</a>
</g>
</g>
<!-- Node10&#45;&gt;Node13 -->
<g id="edge13" class="edge"><title>Node10&#45;&gt;Node13</title>
<path fill="none" stroke="midnightblue" d="M500.152,-570C518.904,-570 540.019,-570 556.432,-570"/>
<polygon fill="midnightblue" stroke="midnightblue" points="500.023,-566.5 490.023,-570 500.023,-573.5 500.023,-566.5"/>
</g>
<!-- Node14 -->
<g id="node14" class="node"><title>Node14</title>
<g id="a_node14"><a xlink:href="../../d2/dd9/ldo_8h.html#ab83418a7edbfafe87886f156aa6a9988" target="_top" xlink:title="luaD_growstack">
<polygon fill="none" stroke="red" points="542.5,-522.5 542.5,-541.5 628.5,-541.5 628.5,-522.5 542.5,-522.5"/>
<text text-anchor="middle" x="585.5" y="-529.5" font-family="Helvetica,sans-Serif" font-size="10.00">luaD_growstack</text>
</a>
</g>
</g>
<!-- Node10&#45;&gt;Node14 -->
<g id="edge15" class="edge"><title>Node10&#45;&gt;Node14</title>
<path fill="none" stroke="midnightblue" d="M497.384,-557.465C515.069,-552.295 535.234,-546.401 551.706,-541.586"/>
<polygon fill="midnightblue" stroke="midnightblue" points="495.921,-554.246 487.304,-560.411 497.885,-560.965 495.921,-554.246"/>
</g>
<!-- Node15 -->
<g id="node15" class="node"><title>Node15</title>
<g id="a_node15"><a xlink:href="../../db/d46/ldebug_8h.html#a7ae9c3f6343c93b4a8bb80e68706a6a3" target="_top" xlink:title="luaG_ordererror">
<polygon fill="none" stroke="red" points="545.5,-484.5 545.5,-503.5 625.5,-503.5 625.5,-484.5 545.5,-484.5"/>
<text text-anchor="middle" x="585.5" y="-491.5" font-family="Helvetica,sans-Serif" font-size="10.00">luaG_ordererror</text>
</a>
</g>
</g>
<!-- Node10&#45;&gt;Node15 -->
<g id="edge16" class="edge"><title>Node10&#45;&gt;Node15</title>
<path fill="none" stroke="midnightblue" d="M473.089,-553.645C487.954,-541.208 509.753,-524.355 531,-513 537.781,-509.376 545.396,-506.197 552.708,-503.528"/>
<polygon fill="midnightblue" stroke="midnightblue" points="470.529,-551.229 465.195,-560.383 475.074,-556.553 470.529,-551.229"/>
</g>
<!-- Node16 -->
<g id="node16" class="node"><title>Node16</title>
<g id="a_node16"><a xlink:href="../../db/d46/ldebug_8h.html#a375161dd1513420561f20f0b4c7b7e66" target="_top" xlink:title="luaG_typeerror">
<polygon fill="none" stroke="red" points="546,-180.5 546,-199.5 625,-199.5 625,-180.5 546,-180.5"/>
<text text-anchor="middle" x="585.5" y="-187.5" font-family="Helvetica,sans-Serif" font-size="10.00">luaG_typeerror</text>
</a>
</g>
</g>
<!-- Node10&#45;&gt;Node16 -->
<g id="edge17" class="edge"><title>Node10&#45;&gt;Node16</title>
<path fill="none" stroke="midnightblue" d="M459.194,-550.182C475.832,-479.933 531,-247 531,-247 541.408,-227.633 560.068,-209.952 572.368,-199.578"/>
<polygon fill="midnightblue" stroke="midnightblue" points="455.688,-549.796 456.789,-560.333 462.5,-551.409 455.688,-549.796"/>
</g>
<!-- Node10&#45;&gt;Node17 -->
<g id="edge38" class="edge"><title>Node10&#45;&gt;Node17</title>
<path fill="none" stroke="midnightblue" d="M457.608,-550.339C464.661,-510.887 484.973,-420.747 531,-361 567.041,-314.215 597.934,-326.452 640,-285 674.383,-251.118 704.633,-201.452 716.575,-180.686"/>
<polygon fill="midnightblue" stroke="midnightblue" points="454.147,-549.815 455.927,-560.259 461.048,-550.984 454.147,-549.815"/>
</g>
<!-- Node10&#45;&gt;Node23 -->
<g id="edge39" class="edge"><title>Node10&#45;&gt;Node23</title>
<path fill="none" stroke="midnightblue" d="M460.662,-550.735C470.813,-521.977 493.722,-467.901 531,-437 570.498,-404.259 594.293,-422.301 640,-399 666.877,-385.299 695.1,-363.89 710.423,-351.581"/>
<polygon fill="midnightblue" stroke="midnightblue" points="457.276,-549.823 457.393,-560.417 463.908,-552.062 457.276,-549.823"/>
</g>
<!-- Node27 -->
<g id="node27" class="node"><title>Node27</title>
<g id="a_node27"><a xlink:href="../../d3/d44/ltable_8h.html#a61547e63b2d74aa68da53a7fd235e77e" target="_top" xlink:title="luaH_newkey">
<polygon fill="none" stroke="red" points="548,-446.5 548,-465.5 623,-465.5 623,-446.5 548,-446.5"/>
<text text-anchor="middle" x="585.5" y="-453.5" font-family="Helvetica,sans-Serif" font-size="10.00">luaH_newkey</text>
</a>
</g>
</g>
<!-- Node10&#45;&gt;Node27 -->
<g id="edge31" class="edge"><title>Node10&#45;&gt;Node27</title>
<path fill="none" stroke="midnightblue" d="M464.864,-551.755C477.794,-530.518 501.795,-495.72 531,-475 536.386,-471.179 542.617,-468.056 548.883,-465.529"/>
<polygon fill="midnightblue" stroke="midnightblue" points="461.796,-550.068 459.724,-560.459 467.823,-553.628 461.796,-550.068"/>
</g>
<!-- Node28 -->
<g id="node28" class="node"><title>Node28</title>
<g id="a_node28"><a xlink:href="../../d7/d3e/lmem_8h.html#a9adb7e11025b0b91454ae7949bc8d370" target="_top" xlink:title="luaM_growaux_">
<polygon fill="none" stroke="black" points="542.5,-806.5 542.5,-825.5 628.5,-825.5 628.5,-806.5 542.5,-806.5"/>
<text text-anchor="middle" x="585.5" y="-813.5" font-family="Helvetica,sans-Serif" font-size="10.00">luaM_growaux_</text>
</a>
</g>
</g>
<!-- Node10&#45;&gt;Node28 -->
<g id="edge33" class="edge"><title>Node10&#45;&gt;Node28</title>
<path fill="none" stroke="midnightblue" d="M492,-585.624C493.081,-586.68 494.087,-587.804 495,-589 551.909,-663.588 470.527,-725.271 531,-797 534.304,-800.919 538.473,-804.029 543.019,-806.498"/>
<polygon fill="midnightblue" stroke="midnightblue" points="494.088,-582.815 483.992,-579.601 489.88,-588.409 494.088,-582.815"/>
</g>
<!-- Node29 -->
<g id="node29" class="node"><title>Node29</title>
<g id="a_node29"><a xlink:href="../../d7/d3e/lmem_8h.html#a23b8703b7b50e1c5dd37d41569a09a9a" target="_top" xlink:title="luaM_toobig">
<polygon fill="none" stroke="red" points="551.5,-768.5 551.5,-787.5 619.5,-787.5 619.5,-768.5 551.5,-768.5"/>
<text text-anchor="middle" x="585.5" y="-775.5" font-family="Helvetica,sans-Serif" font-size="10.00">luaM_toobig</text>
</a>
</g>
</g>
<!-- Node10&#45;&gt;Node29 -->
<g id="edge34" class="edge"><title>Node10&#45;&gt;Node29</title>
<path fill="none" stroke="midnightblue" d="M491.934,-585.675C493.033,-586.717 494.061,-587.824 495,-589 541.815,-647.67 483.689,-695.729 531,-754 536.262,-760.481 543.642,-765.272 551.243,-768.791"/>
<polygon fill="midnightblue" stroke="midnightblue" points="493.975,-582.832 483.85,-579.712 489.819,-588.465 493.975,-582.832"/>
</g>
<!-- Node30 -->
<g id="node30" class="node"><title>Node30</title>
<g id="a_node30"><a xlink:href="../../dc/d1e/ltable_8c.html#ad5ff1c819f2ab4e96904822b915ae290" target="_top" xlink:title="setnodevector">
<polygon fill="none" stroke="red" points="548,-674.5 548,-693.5 623,-693.5 623,-674.5 548,-674.5"/>
<text text-anchor="middle" x="585.5" y="-681.5" font-family="Helvetica,sans-Serif" font-size="10.00">setnodevector</text>
</a>
</g>
</g>
<!-- Node10&#45;&gt;Node30 -->
<g id="edge40" class="edge"><title>Node10&#45;&gt;Node30</title>
<path fill="none" stroke="midnightblue" d="M490.462,-585.072C492.072,-586.294 493.597,-587.602 495,-589 521.478,-615.379 503.269,-639.941 531,-665 535.827,-669.362 541.72,-672.737 547.81,-675.345"/>
<polygon fill="midnightblue" stroke="midnightblue" points="492.216,-582.041 481.892,-579.66 488.478,-587.959 492.216,-582.041"/>
</g>
<!-- Node16&#45;&gt;Node17 -->
<g id="edge18" class="edge"><title>Node16&#45;&gt;Node17</title>
<path fill="none" stroke="midnightblue" d="M635.376,-183.146C651.915,-180.827 670.084,-178.28 685.492,-176.119"/>
<polygon fill="midnightblue" stroke="midnightblue" points="634.746,-179.701 625.329,-184.555 635.718,-186.633 634.746,-179.701"/>
</g>
<!-- Node16&#45;&gt;Node21 -->
<g id="edge23" class="edge"><title>Node16&#45;&gt;Node21</title>
<path fill="none" stroke="midnightblue" d="M605.764,-173.792C634.371,-149.725 687.202,-105.277 710.477,-85.695"/>
<polygon fill="midnightblue" stroke="midnightblue" points="603.451,-171.164 598.053,-180.28 607.958,-176.521 603.451,-171.164"/>
</g>
<!-- Node16&#45;&gt;Node23 -->
<g id="edge26" class="edge"><title>Node16&#45;&gt;Node23</title>
<path fill="none" stroke="midnightblue" d="M624.897,-203.901C630.282,-206.771 635.505,-210.125 640,-214 680.581,-248.977 708.365,-308.969 718.129,-332.31"/>
<polygon fill="midnightblue" stroke="midnightblue" points="626.31,-200.696 615.781,-199.521 623.279,-207.006 626.31,-200.696"/>
</g>
<!-- Node17&#45;&gt;Node2 -->
<g id="edge22" class="edge"><title>Node17&#45;&gt;Node2</title>
<path fill="none" stroke="midnightblue" d="M707.606,-153.721C692.435,-136.544 667.027,-110.574 640,-95 565.271,-51.9367 540.749,-38 454.5,-38 336,-38 336,-38 336,-38 155.87,-38 136.325,-365.694 134.244,-427.137"/>
<polygon fill="midnightblue" stroke="midnightblue" points="705.014,-156.074 714.194,-161.362 710.316,-151.503 705.014,-156.074"/>
</g>
<!-- Node18 -->
<g id="node18" class="node"><title>Node18</title>
<g id="a_node18"><a xlink:href="../../da/dd2/lua_8h.html#a2b4a9010af0545ae0f822d7f081370d0" target="_top" xlink:title="lua_getglobal">
<polygon fill="none" stroke="red" points="806,-161.5 806,-180.5 879,-180.5 879,-161.5 806,-161.5"/>
<text text-anchor="middle" x="842.5" y="-168.5" font-family="Helvetica,sans-Serif" font-size="10.00">lua_getglobal</text>
</a>
</g>
</g>
<!-- Node17&#45;&gt;Node18 -->
<g id="edge19" class="edge"><title>Node17&#45;&gt;Node18</title>
<path fill="none" stroke="midnightblue" d="M770.605,-171C782.32,-171 794.708,-171 805.795,-171"/>
<polygon fill="midnightblue" stroke="midnightblue" points="770.534,-167.5 760.534,-171 770.534,-174.5 770.534,-167.5"/>
</g>
<!-- Node19 -->
<g id="node19" class="node"><title>Node19</title>
<g id="a_node19"><a xlink:href="../../da/dd2/lua_8h.html#a8d82fa181a3003e9a304040c0bbed9ac" target="_top" xlink:title="lua_gettable">
<polygon fill="none" stroke="red" points="808.5,-123.5 808.5,-142.5 876.5,-142.5 876.5,-123.5 808.5,-123.5"/>
<text text-anchor="middle" x="842.5" y="-130.5" font-family="Helvetica,sans-Serif" font-size="10.00">lua_gettable</text>
</a>
</g>
</g>
<!-- Node17&#45;&gt;Node19 -->
<g id="edge20" class="edge"><title>Node17&#45;&gt;Node19</title>
<path fill="none" stroke="midnightblue" d="M763.209,-158.32C779.085,-153.185 797.11,-147.356 811.859,-142.586"/>
<polygon fill="midnightblue" stroke="midnightblue" points="762.088,-155.004 753.65,-161.411 764.242,-161.664 762.088,-155.004"/>
</g>
<!-- Node20 -->
<g id="node20" class="node"><title>Node20</title>
<g id="a_node20"><a xlink:href="../../da/dd2/lua_8h.html#ac3112bb28ba217adc46f13da8e9e6585" target="_top" xlink:title="lua_getfield">
<polygon fill="none" stroke="red" points="811,-199.5 811,-218.5 874,-218.5 874,-199.5 811,-199.5"/>
<text text-anchor="middle" x="842.5" y="-206.5" font-family="Helvetica,sans-Serif" font-size="10.00">lua_getfield</text>
</a>
</g>
</g>
<!-- Node17&#45;&gt;Node20 -->
<g id="edge21" class="edge"><title>Node17&#45;&gt;Node20</title>
<path fill="none" stroke="midnightblue" d="M763.209,-183.68C779.085,-188.815 797.11,-194.644 811.859,-199.414"/>
<polygon fill="midnightblue" stroke="midnightblue" points="764.242,-180.336 753.65,-180.589 762.088,-186.996 764.242,-180.336"/>
</g>
<!-- Node21&#45;&gt;Node2 -->
<g id="edge25" class="edge"><title>Node21&#45;&gt;Node2</title>
<path fill="none" stroke="midnightblue" d="M693.214,-62.1219C645.008,-40.1949 544.383,-0 454.5,-0 336,-0 336,-0 336,-0 271.988,-0 245.132,-11.342 206,-62 159.597,-122.07 138.598,-374.741 134.685,-427.37"/>
<polygon fill="midnightblue" stroke="midnightblue" points="691.864,-65.3539 702.41,-66.3745 694.803,-59.0004 691.864,-65.3539"/>
</g>
<!-- Node22 -->
<g id="node22" class="node"><title>Node22</title>
<g id="a_node22"><a xlink:href="../../da/dd2/lua_8h.html#ac7ade66f92b5e325c42371926f879818" target="_top" xlink:title="lua_len">
<polygon fill="none" stroke="red" points="819,-66.5 819,-85.5 866,-85.5 866,-66.5 819,-66.5"/>
<text text-anchor="middle" x="842.5" y="-73.5" font-family="Helvetica,sans-Serif" font-size="10.00">lua_len</text>
</a>
</g>
</g>
<!-- Node21&#45;&gt;Node22 -->
<g id="edge24" class="edge"><title>Node21&#45;&gt;Node22</title>
<path fill="none" stroke="midnightblue" d="M766.836,-76C784.498,-76 804.236,-76 818.98,-76"/>
<polygon fill="midnightblue" stroke="midnightblue" points="766.73,-72.5001 756.73,-76 766.73,-79.5001 766.73,-72.5001"/>
</g>
<!-- Node23&#45;&gt;Node2 -->
<g id="edge30" class="edge"><title>Node23&#45;&gt;Node2</title>
<path fill="none" stroke="midnightblue" d="M711.951,-323.467C698.708,-301.08 673.156,-264.278 640,-247 566.505,-208.701 537.376,-228 454.5,-228 336,-228 336,-228 336,-228 223.469,-228 153.71,-386.59 137.595,-427.477"/>
<polygon fill="midnightblue" stroke="midnightblue" points="709.018,-325.389 717.006,-332.349 715.101,-321.926 709.018,-325.389"/>
</g>
<!-- Node24 -->
<g id="node24" class="node"><title>Node24</title>
<g id="a_node24"><a xlink:href="../../da/dd2/lua_8h.html#ac0ebe7d753b81f6249dde8cf0b8ea997" target="_top" xlink:title="lua_setglobal">
<polygon fill="none" stroke="red" points="806,-332.5 806,-351.5 879,-351.5 879,-332.5 806,-332.5"/>
<text text-anchor="middle" x="842.5" y="-339.5" font-family="Helvetica,sans-Serif" font-size="10.00">lua_setglobal</text>
</a>
</g>
</g>
<!-- Node23&#45;&gt;Node24 -->
<g id="edge27" class="edge"><title>Node23&#45;&gt;Node24</title>
<path fill="none" stroke="midnightblue" d="M770.605,-342C782.32,-342 794.708,-342 805.795,-342"/>
<polygon fill="midnightblue" stroke="midnightblue" points="770.534,-338.5 760.534,-342 770.534,-345.5 770.534,-338.5"/>
</g>
<!-- Node25 -->
<g id="node25" class="node"><title>Node25</title>
<g id="a_node25"><a xlink:href="../../da/dd2/lua_8h.html#aeda173d104e3a566ccaac89a1f64a5eb" target="_top" xlink:title="lua_settable">
<polygon fill="none" stroke="red" points="808.5,-294.5 808.5,-313.5 876.5,-313.5 876.5,-294.5 808.5,-294.5"/>
<text text-anchor="middle" x="842.5" y="-301.5" font-family="Helvetica,sans-Serif" font-size="10.00">lua_settable</text>
</a>
</g>
</g>
<!-- Node23&#45;&gt;Node25 -->
<g id="edge28" class="edge"><title>Node23&#45;&gt;Node25</title>
<path fill="none" stroke="midnightblue" d="M763.209,-329.32C779.085,-324.185 797.11,-318.356 811.859,-313.586"/>
<polygon fill="midnightblue" stroke="midnightblue" points="762.088,-326.004 753.65,-332.411 764.242,-332.664 762.088,-326.004"/>
</g>
<!-- Node26 -->
<g id="node26" class="node"><title>Node26</title>
<g id="a_node26"><a xlink:href="../../da/dd2/lua_8h.html#a9580a15c141cbe4bf2a63fea625c3878" target="_top" xlink:title="lua_setfield">
<polygon fill="none" stroke="red" points="811,-370.5 811,-389.5 874,-389.5 874,-370.5 811,-370.5"/>
<text text-anchor="middle" x="842.5" y="-377.5" font-family="Helvetica,sans-Serif" font-size="10.00">lua_setfield</text>
</a>
</g>
</g>
<!-- Node23&#45;&gt;Node26 -->
<g id="edge29" class="edge"><title>Node23&#45;&gt;Node26</title>
<path fill="none" stroke="midnightblue" d="M763.209,-354.68C779.085,-359.815 797.11,-365.644 811.859,-370.414"/>
<polygon fill="midnightblue" stroke="midnightblue" points="764.242,-351.336 753.65,-351.589 762.088,-357.996 764.242,-351.336"/>
</g>
<!-- Node27&#45;&gt;Node23 -->
<g id="edge32" class="edge"><title>Node27&#45;&gt;Node23</title>
<path fill="none" stroke="midnightblue" d="M622.833,-442.151C628.805,-439.195 634.752,-435.801 640,-432 672.87,-408.195 702.56,-369.473 715.351,-351.599"/>
<polygon fill="midnightblue" stroke="midnightblue" points="621.148,-439.073 613.522,-446.429 624.07,-445.434 621.148,-439.073"/>
</g>
<!-- Node33 -->
<g id="node33" class="node"><title>Node33</title>
<g id="a_node33"><a xlink:href="../../de/d27/lgc_8c.html#ab9ec6b56580b9e66f41743e393e7e033" target="_top" xlink:title="GCTM">
<polygon fill="none" stroke="black" points="430.5,-1110.5 430.5,-1129.5 476.5,-1129.5 476.5,-1110.5 430.5,-1110.5"/>
<text text-anchor="middle" x="453.5" y="-1117.5" font-family="Helvetica,sans-Serif" font-size="10.00">GCTM</text>
</a>
</g>
</g>
<!-- Node32&#45;&gt;Node33 -->
<g id="edge47" class="edge"><title>Node32&#45;&gt;Node33</title>
<path fill="none" stroke="midnightblue" d="M373.838,-1115.88C392.347,-1116.85 414.344,-1118 430.364,-1118.84"/>
<polygon fill="midnightblue" stroke="midnightblue" points="373.866,-1112.37 363.696,-1115.35 373.499,-1119.37 373.866,-1112.37"/>
</g>
<!-- Node34 -->
<g id="node34" class="node"><title>Node34</title>
<g id="a_node34"><a xlink:href="../../de/d27/lgc_8c.html#a74f50e6006422d43686521fe765152dd" target="_top" xlink:title="callallpendingfinalizers">
<polygon fill="none" stroke="red" points="531,-1148.5 531,-1167.5 640,-1167.5 640,-1148.5 531,-1148.5"/>
<text text-anchor="middle" x="585.5" y="-1155.5" font-family="Helvetica,sans-Serif" font-size="10.00">callallpendingfinalizers</text>
</a>
</g>
</g>
<!-- Node33&#45;&gt;Node34 -->
<g id="edge48" class="edge"><title>Node33&#45;&gt;Node34</title>
<path fill="none" stroke="midnightblue" d="M486.343,-1129.31C506.153,-1135.1 531.576,-1142.53 551.585,-1148.38"/>
<polygon fill="midnightblue" stroke="midnightblue" points="487.133,-1125.89 476.553,-1126.45 485.169,-1132.61 487.133,-1125.89"/>
</g>
<!-- Node35 -->
<g id="node35" class="node"><title>Node35</title>
<g id="a_node35"><a xlink:href="../../dc/d9c/lgc_8h.html#a19359957605d7c8eaf70803e5b77361f" target="_top" xlink:title="luaC_forcestep">
<polygon fill="none" stroke="red" points="545.5,-1110.5 545.5,-1129.5 625.5,-1129.5 625.5,-1110.5 545.5,-1110.5"/>
<text text-anchor="middle" x="585.5" y="-1117.5" font-family="Helvetica,sans-Serif" font-size="10.00">luaC_forcestep</text>
</a>
</g>
</g>
<!-- Node33&#45;&gt;Node35 -->
<g id="edge49" class="edge"><title>Node33&#45;&gt;Node35</title>
<path fill="none" stroke="midnightblue" d="M486.716,-1120C504.499,-1120 526.717,-1120 545.479,-1120"/>
<polygon fill="midnightblue" stroke="midnightblue" points="486.553,-1116.5 476.553,-1120 486.553,-1123.5 486.553,-1116.5"/>
</g>
<!-- Node36&#45;&gt;Node37 -->
<g id="edge51" class="edge"><title>Node36&#45;&gt;Node37</title>
<path fill="none" stroke="midnightblue" d="M344.544,-787.525C352.142,-810.218 365.035,-848.803 376,-882 392.134,-930.845 382.883,-949.593 412,-992 418.469,-1001.42 428.381,-1009.56 436.78,-1015.4"/>
<polygon fill="midnightblue" stroke="midnightblue" points="347.766,-786.124 341.271,-777.754 341.129,-788.348 347.766,-786.124"/>
</g>
<!-- Node38 -->
<g id="node38" class="node"><title>Node38</title>
<g id="a_node38"><a xlink:href="../../d8/dd3/lbaselib_8c.html#a1fb2725eed679431d070b2e9e7abc223" target="_top" xlink:title="luaB_pcall">
<polygon fill="none" stroke="black" points="555,-1034.5 555,-1053.5 616,-1053.5 616,-1034.5 555,-1034.5"/>
<text text-anchor="middle" x="585.5" y="-1041.5" font-family="Helvetica,sans-Serif" font-size="10.00">luaB_pcall</text>
</a>
</g>
</g>
<!-- Node37&#45;&gt;Node38 -->
<g id="edge52" class="edge"><title>Node37&#45;&gt;Node38</title>
<path fill="none" stroke="midnightblue" d="M492.939,-1030.62C512.673,-1033.5 536.35,-1036.96 554.683,-1039.64"/>
<polygon fill="midnightblue" stroke="midnightblue" points="493.43,-1027.15 483.029,-1029.17 492.418,-1034.08 493.43,-1027.15"/>
</g>
<!-- Node39 -->
<g id="node39" class="node"><title>Node39</title>
<g id="a_node39"><a xlink:href="../../d8/dd3/lbaselib_8c.html#a5fbb0094fa1a56f0a4c2547f1ec4c5ab" target="_top" xlink:title="luaB_xpcall">
<polygon fill="none" stroke="black" points="552.5,-1072.5 552.5,-1091.5 618.5,-1091.5 618.5,-1072.5 552.5,-1072.5"/>
<text text-anchor="middle" x="585.5" y="-1079.5" font-family="Helvetica,sans-Serif" font-size="10.00">luaB_xpcall</text>
</a>
</g>
</g>
<!-- Node37&#45;&gt;Node39 -->
<g id="edge53" class="edge"><title>Node37&#45;&gt;Node39</title>
<path fill="none" stroke="midnightblue" d="M481.087,-1039.19C495.633,-1046.7 514.089,-1055.83 531,-1063 538.894,-1066.35 547.602,-1069.62 555.658,-1072.47"/>
<polygon fill="midnightblue" stroke="midnightblue" points="482.632,-1036.05 472.147,-1034.52 479.393,-1042.25 482.632,-1036.05"/>
</g>
<!-- Node41 -->
<g id="node41" class="node"><title>Node41</title>
<g id="a_node41"><a xlink:href="../../d8/dd3/lbaselib_8c.html#a86a4e35d9c9ad4661a0dbbac3758c049" target="_top" xlink:title="luaB_dofile">
<polygon fill="none" stroke="black" points="554.5,-996.5 554.5,-1015.5 616.5,-1015.5 616.5,-996.5 554.5,-996.5"/>
<text text-anchor="middle" x="585.5" y="-1003.5" font-family="Helvetica,sans-Serif" font-size="10.00">luaB_dofile</text>
</a>
</g>
</g>
<!-- Node40&#45;&gt;Node41 -->
<g id="edge55" class="edge"><title>Node40&#45;&gt;Node41</title>
<path fill="none" stroke="midnightblue" d="M351.271,-703.295C359.599,-715.633 369.883,-732.598 376,-749 407.559,-833.624 352.795,-880.795 412,-949 448.182,-990.683 515.506,-1002.01 554.487,-1005.01"/>
<polygon fill="midnightblue" stroke="midnightblue" points="353.974,-701.051 345.385,-694.847 348.23,-705.052 353.974,-701.051"/>
</g>
<!-- Node42&#45;&gt;Node10 -->
<g id="edge63" class="edge"><title>Node42&#45;&gt;Node10</title>
<path fill="none" stroke="midnightblue" d="M366.815,-610.865C380.486,-604.189 397.063,-596.137 412,-589 418.447,-585.92 425.491,-582.599 431.87,-579.61"/>
<polygon fill="midnightblue" stroke="midnightblue" points="364.885,-607.913 357.439,-615.45 367.96,-614.201 364.885,-607.913"/>
</g>
<!-- Node43 -->
<g id="node43" class="node"><title>Node43</title>
<g id="a_node43"><a xlink:href="../../da/dd2/lua_8h.html#aae6c05ddea7bd110a3e84595ef92e601" target="_top" xlink:title="lua_error">
<polygon fill="none" stroke="black" points="427.5,-920.5 427.5,-939.5 479.5,-939.5 479.5,-920.5 427.5,-920.5"/>
<text text-anchor="middle" x="453.5" y="-927.5" font-family="Helvetica,sans-Serif" font-size="10.00">lua_error</text>
</a>
</g>
</g>
<!-- Node42&#45;&gt;Node43 -->
<g id="edge58" class="edge"><title>Node42&#45;&gt;Node43</title>
<path fill="none" stroke="midnightblue" d="M357.124,-642.006C363.897,-648.882 371.055,-657.257 376,-666 427.214,-756.547 446.679,-884.323 451.329,-920.261"/>
<polygon fill="midnightblue" stroke="midnightblue" points="359.143,-639.092 349.505,-634.691 354.295,-644.142 359.143,-639.092"/>
</g>
<!-- Node43&#45;&gt;Node41 -->
<g id="edge60" class="edge"><title>Node43&#45;&gt;Node41</title>
<path fill="none" stroke="midnightblue" d="M475.155,-945.5C490.201,-956.423 511.31,-971.003 531,-982 540.51,-987.311 551.416,-992.375 560.891,-996.471"/>
<polygon fill="midnightblue" stroke="midnightblue" points="477.185,-942.648 467.054,-939.546 473.039,-948.288 477.185,-942.648"/>
</g>
<!-- Node44 -->
<g id="node44" class="node"><title>Node44</title>
<g id="a_node44"><a xlink:href="../../df/d2d/lcorolib_8c.html#a777abb20385a69ce4787f72bd90375a7" target="_top" xlink:title="luaB_auxwrap">
<polygon fill="none" stroke="red" points="683,-901.5 683,-920.5 763,-920.5 763,-901.5 683,-901.5"/>
<text text-anchor="middle" x="723" y="-908.5" font-family="Helvetica,sans-Serif" font-size="10.00">luaB_auxwrap</text>
</a>
</g>
</g>
<!-- Node43&#45;&gt;Node44 -->
<g id="edge59" class="edge"><title>Node43&#45;&gt;Node44</title>
<path fill="none" stroke="midnightblue" d="M489.585,-940.616C502.479,-944.01 517.281,-947.322 531,-949 579.086,-954.882 592.691,-959.429 640,-949 664.669,-943.562 690.742,-929.934 706.696,-920.568"/>
<polygon fill="midnightblue" stroke="midnightblue" points="490.28,-937.177 479.71,-937.905 488.427,-943.927 490.28,-937.177"/>
</g>
<!-- Node45 -->
<g id="node45" class="node"><title>Node45</title>
<g id="a_node45"><a xlink:href="../../d8/dd3/lbaselib_8c.html#a2ecfa987569d0b4c1063f3e204e42dd2" target="_top" xlink:title="luaB_error">
<polygon fill="none" stroke="black" points="556,-920.5 556,-939.5 615,-939.5 615,-920.5 556,-920.5"/>
<text text-anchor="middle" x="585.5" y="-927.5" font-family="Helvetica,sans-Serif" font-size="10.00">luaB_error</text>
</a>
</g>
</g>
<!-- Node43&#45;&gt;Node45 -->
<g id="edge61" class="edge"><title>Node43&#45;&gt;Node45</title>
<path fill="none" stroke="midnightblue" d="M489.594,-930C510.372,-930 536.364,-930 555.891,-930"/>
<polygon fill="midnightblue" stroke="midnightblue" points="489.565,-926.5 479.565,-930 489.565,-933.5 489.565,-926.5"/>
</g>
<!-- Node46 -->
<g id="node46" class="node"><title>Node46</title>
<g id="a_node46"><a xlink:href="../../da/d29/lauxlib_8h.html#a994f73d7985c30672469a260d9e86ae6" target="_top" xlink:title="luaL_error">
<polygon fill="none" stroke="red" points="557,-882.5 557,-901.5 614,-901.5 614,-882.5 557,-882.5"/>
<text text-anchor="middle" x="585.5" y="-889.5" font-family="Helvetica,sans-Serif" font-size="10.00">luaL_error</text>
</a>
</g>
</g>
<!-- Node43&#45;&gt;Node46 -->
<g id="edge62" class="edge"><title>Node43&#45;&gt;Node46</title>
<path fill="none" stroke="midnightblue" d="M489.448,-919.784C510.578,-913.608 537.141,-905.843 556.811,-900.094"/>
<polygon fill="midnightblue" stroke="midnightblue" points="488.182,-916.508 479.565,-922.673 490.146,-923.227 488.182,-916.508"/>
</g>
<!-- Node48 -->
<g id="node48" class="node"><title>Node48</title>
<g id="a_node48"><a xlink:href="../../da/dd2/lua_8h.html#a434479f022eda738b99000aad5ddd929" target="_top" xlink:title="lua_resume">
<polygon fill="none" stroke="black" points="421,-598.5 421,-617.5 486,-617.5 486,-598.5 421,-598.5"/>
<text text-anchor="middle" x="453.5" y="-605.5" font-family="Helvetica,sans-Serif" font-size="10.00">lua_resume</text>
</a>
</g>
</g>
<!-- Node47&#45;&gt;Node48 -->
<g id="edge66" class="edge"><title>Node47&#45;&gt;Node48</title>
<path fill="none" stroke="midnightblue" d="M263.038,-490.4C293.743,-488.004 342.999,-488.879 376,-513 406.174,-535.055 385.522,-562.621 412,-589 415.741,-592.727 420.353,-595.815 425.108,-598.34"/>
<polygon fill="midnightblue" stroke="midnightblue" points="262.633,-486.923 253.008,-491.351 263.294,-493.891 262.633,-486.923"/>
</g>
<!-- Node47&#45;&gt;Node50 -->
<g id="edge69" class="edge"><title>Node47&#45;&gt;Node50</title>
<path fill="none" stroke="midnightblue" d="M262.826,-504.469C278.648,-510.422 298.218,-517.785 313.137,-523.398"/>
<polygon fill="midnightblue" stroke="midnightblue" points="263.649,-501.039 253.057,-500.794 261.184,-507.591 263.649,-501.039"/>
</g>
<!-- Node49 -->
<g id="node49" class="node"><title>Node49</title>
<g id="a_node49"><a xlink:href="../../df/d2d/lcorolib_8c.html#aaa37b3a30ab0c6daef7fae8951fef3e7" target="_top" xlink:title="auxresume">
<polygon fill="none" stroke="red" points="553.5,-844.5 553.5,-863.5 617.5,-863.5 617.5,-844.5 553.5,-844.5"/>
<text text-anchor="middle" x="585.5" y="-851.5" font-family="Helvetica,sans-Serif" font-size="10.00">auxresume</text>
</a>
</g>
</g>
<!-- Node48&#45;&gt;Node49 -->
<g id="edge67" class="edge"><title>Node48&#45;&gt;Node49</title>
<path fill="none" stroke="midnightblue" d="M455.546,-627.845C458.898,-671.353 472.898,-775.949 531,-835 537.083,-841.183 545.306,-845.36 553.479,-848.18"/>
<polygon fill="midnightblue" stroke="midnightblue" points="459.029,-627.469 454.879,-617.721 452.044,-627.93 459.029,-627.469"/>
</g>
<!-- Node49&#45;&gt;Node44 -->
<g id="edge68" class="edge"><title>Node49&#45;&gt;Node44</title>
<path fill="none" stroke="midnightblue" d="M624.767,-867.103C629.916,-869.008 635.107,-871.002 640,-873 661.79,-881.896 686.197,-893.413 702.674,-901.426"/>
<polygon fill="midnightblue" stroke="midnightblue" points="625.6,-863.682 615.006,-863.573 623.219,-870.265 625.6,-863.682"/>
</g>
<!-- Node50&#45;&gt;Node48 -->
<g id="edge70" class="edge"><title>Node50&#45;&gt;Node48</title>
<path fill="none" stroke="midnightblue" d="M356.716,-548.259C371.203,-560.379 392.092,-576.863 412,-589 417.57,-592.396 423.846,-595.609 429.763,-598.394"/>
<polygon fill="midnightblue" stroke="midnightblue" points="358.87,-545.497 348.981,-541.694 354.34,-550.833 358.87,-545.497"/>
</g>
</g>
</svg>
