<?xml version="1.0" encoding="UTF-8" standalone="no"?>
<!DOCTYPE svg PUBLIC "-//W3C//DTD SVG 1.1//EN"
 "http://www.w3.org/Graphics/SVG/1.1/DTD/svg11.dtd">
<!-- Generated by graphviz version 2.38.0 (20140413.2041)
 -->
<!-- Title: call_binTM Pages: 1 -->
<svg width="1434pt" height="731pt"
 viewBox="0.00 0.00 1434.00 731.20" xmlns="http://www.w3.org/2000/svg" xmlns:xlink="http://www.w3.org/1999/xlink">
<g id="graph0" class="graph" transform="scale(1 1) rotate(0) translate(4 727.197)">
<title>call_binTM</title>
<!-- Node1 -->
<g id="node1" class="node"><title>Node1</title>
<polygon fill="#bfbfbf" stroke="black" points="0,-76.6972 0,-95.6972 62,-95.6972 62,-76.6972 0,-76.6972"/>
<text text-anchor="middle" x="31" y="-83.6972" font-family="Helvetica,sans-Serif" font-size="10.00">call_binTM</text>
</g>
<!-- Node2 -->
<g id="node2" class="node"><title>Node2</title>
<g id="a_node2"><a xlink:href="../../dd/d4a/lvm_8c.html#a1d1301ff4a771ce4198673dd113d10a5" target="_top" xlink:title="call_orderTM">
<polygon fill="none" stroke="black" points="98,-95.6972 98,-114.697 167,-114.697 167,-95.6972 98,-95.6972"/>
<text text-anchor="middle" x="132.5" y="-102.697" font-family="Helvetica,sans-Serif" font-size="10.00">call_orderTM</text>
</a>
</g>
</g>
<!-- Node1&#45;&gt;Node2 -->
<g id="edge1" class="edge"><title>Node1&#45;&gt;Node2</title>
<path fill="none" stroke="midnightblue" d="M72.1732,-93.8684C80.6246,-95.4823 89.4593,-97.1693 97.6511,-98.7336"/>
<polygon fill="midnightblue" stroke="midnightblue" points="72.6023,-90.3872 62.1233,-91.9494 71.2893,-97.263 72.6023,-90.3872"/>
</g>
<!-- Node37 -->
<g id="node37" class="node"><title>Node37</title>
<g id="a_node37"><a xlink:href="../../d5/dcd/lvm_8h.html#aee84bfc563cb4bdd21a013218a289aa7" target="_top" xlink:title="luaV_concat">
<polygon fill="none" stroke="black" points="746,-152.697 746,-171.697 815,-171.697 815,-152.697 746,-152.697"/>
<text text-anchor="middle" x="780.5" y="-159.697" font-family="Helvetica,sans-Serif" font-size="10.00">luaV_concat</text>
</a>
</g>
</g>
<!-- Node1&#45;&gt;Node37 -->
<g id="edge68" class="edge"><title>Node1&#45;&gt;Node37</title>
<path fill="none" stroke="midnightblue" d="M72.2495,-80.407C114.636,-74.8182 183.368,-67.1972 243,-67.1972 243,-67.1972 243,-67.1972 563,-67.1972 647.145,-67.1972 735.357,-128.116 767.165,-152.388"/>
<polygon fill="midnightblue" stroke="midnightblue" points="71.7661,-76.9404 62.3221,-81.7425 72.6995,-83.8779 71.7661,-76.9404"/>
</g>
<!-- Node49 -->
<g id="node49" class="node"><title>Node49</title>
<g id="a_node49"><a xlink:href="../../d5/dcd/lvm_8h.html#a275e261afaec876cd16944b95c955642" target="_top" xlink:title="luaV_arith">
<polygon fill="none" stroke="black" points="103,-19.6972 103,-38.6972 162,-38.6972 162,-19.6972 103,-19.6972"/>
<text text-anchor="middle" x="132.5" y="-26.6972" font-family="Helvetica,sans-Serif" font-size="10.00">luaV_arith</text>
</a>
</g>
</g>
<!-- Node1&#45;&gt;Node49 -->
<g id="edge65" class="edge"><title>Node1&#45;&gt;Node49</title>
<path fill="none" stroke="midnightblue" d="M57.7229,-71.4614C75.7359,-61.1424 99.2793,-47.6553 114.87,-38.7237"/>
<polygon fill="midnightblue" stroke="midnightblue" points="55.8161,-68.5201 48.8788,-76.5279 59.2957,-74.5941 55.8161,-68.5201"/>
</g>
<!-- Node3 -->
<g id="node3" class="node"><title>Node3</title>
<g id="a_node3"><a xlink:href="../../d5/dcd/lvm_8h.html#a1245a563d674251ea03c7abbd1a2ca8c" target="_top" xlink:title="luaV_lessthan">
<polygon fill="none" stroke="black" points="205.5,-133.697 205.5,-152.697 282.5,-152.697 282.5,-133.697 205.5,-133.697"/>
<text text-anchor="middle" x="244" y="-140.697" font-family="Helvetica,sans-Serif" font-size="10.00">luaV_lessthan</text>
</a>
</g>
</g>
<!-- Node2&#45;&gt;Node3 -->
<g id="edge2" class="edge"><title>Node2&#45;&gt;Node3</title>
<path fill="none" stroke="midnightblue" d="M170.879,-118.169C185.468,-123.232 201.892,-128.931 215.377,-133.611"/>
<polygon fill="midnightblue" stroke="midnightblue" points="171.726,-114.758 161.131,-114.786 169.431,-121.371 171.726,-114.758"/>
</g>
<!-- Node48 -->
<g id="node48" class="node"><title>Node48</title>
<g id="a_node48"><a xlink:href="../../d5/dcd/lvm_8h.html#aa151c39c80af19e2ea6d309e7993973c" target="_top" xlink:title="luaV_lessequal">
<polygon fill="none" stroke="black" points="203,-95.6972 203,-114.697 285,-114.697 285,-95.6972 203,-95.6972"/>
<text text-anchor="middle" x="244" y="-102.697" font-family="Helvetica,sans-Serif" font-size="10.00">luaV_lessequal</text>
</a>
</g>
</g>
<!-- Node2&#45;&gt;Node48 -->
<g id="edge62" class="edge"><title>Node2&#45;&gt;Node48</title>
<path fill="none" stroke="midnightblue" d="M177.513,-105.197C185.81,-105.197 194.45,-105.197 202.628,-105.197"/>
<polygon fill="midnightblue" stroke="midnightblue" points="177.247,-101.697 167.247,-105.197 177.247,-108.697 177.247,-101.697"/>
</g>
<!-- Node4 -->
<g id="node4" class="node"><title>Node4</title>
<g id="a_node4"><a xlink:href="../../da/dd2/lua_8h.html#a603a5975f5a19c1824e6af53c1326b5c" target="_top" xlink:title="lua_compare">
<polygon fill="none" stroke="black" points="322.5,-133.697 322.5,-152.697 393.5,-152.697 393.5,-133.697 322.5,-133.697"/>
<text text-anchor="middle" x="358" y="-140.697" font-family="Helvetica,sans-Serif" font-size="10.00">lua_compare</text>
</a>
</g>
</g>
<!-- Node3&#45;&gt;Node4 -->
<g id="edge3" class="edge"><title>Node3&#45;&gt;Node4</title>
<path fill="none" stroke="midnightblue" d="M292.77,-143.197C302.697,-143.197 312.978,-143.197 322.326,-143.197"/>
<polygon fill="midnightblue" stroke="midnightblue" points="292.606,-139.697 282.606,-143.197 292.606,-146.697 292.606,-139.697"/>
</g>
<!-- Node7 -->
<g id="node7" class="node"><title>Node7</title>
<g id="a_node7"><a xlink:href="../../d5/dcd/lvm_8h.html#ae93565adc36c6e2157dbbd875433ede1" target="_top" xlink:title="luaV_execute">
<polygon fill="none" stroke="black" points="321,-95.6972 321,-114.697 395,-114.697 395,-95.6972 321,-95.6972"/>
<text text-anchor="middle" x="358" y="-102.697" font-family="Helvetica,sans-Serif" font-size="10.00">luaV_execute</text>
</a>
</g>
</g>
<!-- Node3&#45;&gt;Node7 -->
<g id="edge6" class="edge"><title>Node3&#45;&gt;Node7</title>
<path fill="none" stroke="midnightblue" d="M282.803,-130.371C297.831,-125.272 314.82,-119.508 328.747,-114.783"/>
<polygon fill="midnightblue" stroke="midnightblue" points="281.608,-127.081 273.262,-133.608 283.857,-133.71 281.608,-127.081"/>
</g>
<!-- Node5 -->
<g id="node5" class="node"><title>Node5</title>
<g id="a_node5"><a xlink:href="../../d0/da1/ltablib_8c.html#ae92f4625e74d1876b2ca2a4ced74c807" target="_top" xlink:title="sort_comp">
<polygon fill="none" stroke="black" points="750.5,-617.697 750.5,-636.697 810.5,-636.697 810.5,-617.697 750.5,-617.697"/>
<text text-anchor="middle" x="780.5" y="-624.697" font-family="Helvetica,sans-Serif" font-size="10.00">sort_comp</text>
</a>
</g>
</g>
<!-- Node4&#45;&gt;Node5 -->
<g id="edge4" class="edge"><title>Node4&#45;&gt;Node5</title>
<path fill="none" stroke="midnightblue" d="M362.787,-162.952C370.815,-201.562 392.077,-288.791 431,-352.197 516.078,-490.788 697.659,-587.738 758.867,-617.54"/>
<polygon fill="midnightblue" stroke="midnightblue" points="366.191,-162.126 360.792,-153.01 359.328,-163.503 366.191,-162.126"/>
</g>
<!-- Node6 -->
<g id="node6" class="node"><title>Node6</title>
<g id="a_node6"><a xlink:href="../../d0/da1/ltablib_8c.html#a40096c011a188a26849b68cd9d5d920e" target="_top" xlink:title="auxsort">
<polygon fill="none" stroke="red" points="1251.5,-703.697 1251.5,-722.697 1299.5,-722.697 1299.5,-703.697 1251.5,-703.697"/>
<text text-anchor="middle" x="1275.5" y="-710.697" font-family="Helvetica,sans-Serif" font-size="10.00">auxsort</text>
</a>
</g>
</g>
<!-- Node5&#45;&gt;Node6 -->
<g id="edge5" class="edge"><title>Node5&#45;&gt;Node6</title>
<path fill="none" stroke="midnightblue" d="M820.993,-634.086C919.479,-651.267 1173.62,-695.6 1251.48,-709.182"/>
<polygon fill="midnightblue" stroke="midnightblue" points="821.316,-630.59 810.863,-632.319 820.113,-637.486 821.316,-630.59"/>
</g>
<!-- Node8 -->
<g id="node8" class="node"><title>Node8</title>
<g id="a_node8"><a xlink:href="../../d2/dd9/ldo_8h.html#a7bb0b106d4012134156e0fa240f51228" target="_top" xlink:title="luaD_call">
<polygon fill="none" stroke="black" points="431,-247.697 431,-266.697 487,-266.697 487,-247.697 431,-247.697"/>
<text text-anchor="middle" x="459" y="-254.697" font-family="Helvetica,sans-Serif" font-size="10.00">luaD_call</text>
</a>
</g>
</g>
<!-- Node7&#45;&gt;Node8 -->
<g id="edge7" class="edge"><title>Node7&#45;&gt;Node8</title>
<path fill="none" stroke="midnightblue" d="M401.445,-122.434C435.198,-162.814 451.908,-223.273 456.593,-247.44"/>
<polygon fill="midnightblue" stroke="midnightblue" points="403.978,-120.017 394.705,-114.892 398.758,-124.681 403.978,-120.017"/>
</g>
<!-- Node45 -->
<g id="node45" class="node"><title>Node45</title>
<g id="a_node45"><a xlink:href="../../d3/d08/ldo_8c.html#a3baab9d298c0c32cb74a9a079d7244de" target="_top" xlink:title="unroll">
<polygon fill="none" stroke="black" points="1006.5,-76.6972 1006.5,-95.6972 1044.5,-95.6972 1044.5,-76.6972 1006.5,-76.6972"/>
<text text-anchor="middle" x="1025.5" y="-83.6972" font-family="Helvetica,sans-Serif" font-size="10.00">unroll</text>
</a>
</g>
</g>
<!-- Node7&#45;&gt;Node45 -->
<g id="edge60" class="edge"><title>Node7&#45;&gt;Node45</title>
<path fill="none" stroke="midnightblue" d="M405.335,-105.197C446.277,-105.197 507.608,-105.197 561,-105.197 561,-105.197 561,-105.197 781.5,-105.197 865.709,-105.197 965.835,-93.7162 1006.25,-88.6035"/>
<polygon fill="midnightblue" stroke="midnightblue" points="405.125,-101.697 395.125,-105.197 405.125,-108.697 405.125,-101.697"/>
</g>
<!-- Node47 -->
<g id="node47" class="node"><title>Node47</title>
<g id="a_node47"><a xlink:href="../../d3/d08/ldo_8c.html#abd7632c715de5db6e7797b7fa3f7010f" target="_top" xlink:title="resume">
<polygon fill="none" stroke="black" points="1123,-19.6972 1123,-38.6972 1170,-38.6972 1170,-19.6972 1123,-19.6972"/>
<text text-anchor="middle" x="1146.5" y="-26.6972" font-family="Helvetica,sans-Serif" font-size="10.00">resume</text>
</a>
</g>
</g>
<!-- Node7&#45;&gt;Node47 -->
<g id="edge61" class="edge"><title>Node7&#45;&gt;Node47</title>
<path fill="none" stroke="midnightblue" d="M382.376,-90.0642C418.933,-67.8958 492.552,-29.1972 561,-29.1972 561,-29.1972 561,-29.1972 899,-29.1972 981.381,-29.1972 1079.25,-29.1972 1122.73,-29.1972"/>
<polygon fill="midnightblue" stroke="midnightblue" points="380.148,-87.3274 373.494,-95.5717 383.837,-93.2765 380.148,-87.3274"/>
</g>
<!-- Node8&#45;&gt;Node7 -->
<g id="edge59" class="edge"><title>Node8&#45;&gt;Node7</title>
<path fill="none" stroke="midnightblue" d="M451.15,-237.821C442.328,-211.218 424.51,-164.012 395,-133.197 387.277,-125.133 375.374,-119.785 367.392,-114.757"/>
<polygon fill="midnightblue" stroke="midnightblue" points="447.888,-239.107 454.292,-247.547 454.549,-236.955 447.888,-239.107"/>
</g>
<!-- Node9 -->
<g id="node9" class="node"><title>Node9</title>
<g id="a_node9"><a xlink:href="../../dd/d4a/lvm_8c.html#aa904883a58699d9c6ef4d6f0f45037f6" target="_top" xlink:title="callTM">
<polygon fill="none" stroke="red" points="540,-171.697 540,-190.697 584,-190.697 584,-171.697 540,-171.697"/>
<text text-anchor="middle" x="562" y="-178.697" font-family="Helvetica,sans-Serif" font-size="10.00">callTM</text>
</a>
</g>
</g>
<!-- Node8&#45;&gt;Node9 -->
<g id="edge8" class="edge"><title>Node8&#45;&gt;Node9</title>
<path fill="none" stroke="midnightblue" d="M476.299,-240.153C488.439,-228.053 505.819,-211.94 523,-200.197 528.237,-196.618 534.244,-193.299 539.912,-190.47"/>
<polygon fill="midnightblue" stroke="midnightblue" points="473.65,-237.854 469.132,-247.437 478.64,-242.763 473.65,-237.854"/>
</g>
<!-- Node10 -->
<g id="node10" class="node"><title>Node10</title>
<g id="a_node10"><a xlink:href="../../de/d27/lgc_8c.html#a929058f72c03750fa82374f6bfa639ee" target="_top" xlink:title="dothecall">
<polygon fill="none" stroke="red" points="535.5,-209.697 535.5,-228.697 588.5,-228.697 588.5,-209.697 535.5,-209.697"/>
<text text-anchor="middle" x="562" y="-216.697" font-family="Helvetica,sans-Serif" font-size="10.00">dothecall</text>
</a>
</g>
</g>
<!-- Node8&#45;&gt;Node10 -->
<g id="edge10" class="edge"><title>Node8&#45;&gt;Node10</title>
<path fill="none" stroke="midnightblue" d="M494.866,-244.079C508.225,-239.053 523.202,-233.418 535.522,-228.783"/>
<polygon fill="midnightblue" stroke="midnightblue" points="493.614,-240.811 485.487,-247.608 496.079,-247.363 493.614,-240.811"/>
</g>
<!-- Node11 -->
<g id="node11" class="node"><title>Node11</title>
<g id="a_node11"><a xlink:href="../../df/db6/lapi_8c.html#ac3926c93fb08234f9f47e24653124910" target="_top" xlink:title="f_call">
<polygon fill="none" stroke="black" points="543,-323.697 543,-342.697 581,-342.697 581,-323.697 543,-323.697"/>
<text text-anchor="middle" x="562" y="-330.697" font-family="Helvetica,sans-Serif" font-size="10.00">f_call</text>
</a>
</g>
</g>
<!-- Node8&#45;&gt;Node11 -->
<g id="edge11" class="edge"><title>Node8&#45;&gt;Node11</title>
<path fill="none" stroke="midnightblue" d="M478.559,-273.571C490.852,-284.148 507.507,-297.979 523,-309.197 529.952,-314.231 537.946,-319.37 544.802,-323.594"/>
<polygon fill="midnightblue" stroke="midnightblue" points="480.658,-270.758 470.814,-266.84 476.066,-276.041 480.658,-270.758"/>
</g>
<!-- Node12 -->
<g id="node12" class="node"><title>Node12</title>
<g id="a_node12"><a xlink:href="../../da/dd2/lua_8h.html#a3c4de08aa665eaee4aabd330aa99a441" target="_top" xlink:title="lua_pcallk">
<polygon fill="none" stroke="red" points="644,-304.697 644,-323.697 703,-323.697 703,-304.697 644,-304.697"/>
<text text-anchor="middle" x="673.5" y="-311.697" font-family="Helvetica,sans-Serif" font-size="10.00">lua_pcallk</text>
</a>
</g>
</g>
<!-- Node8&#45;&gt;Node12 -->
<g id="edge14" class="edge"><title>Node8&#45;&gt;Node12</title>
<path fill="none" stroke="midnightblue" d="M496.93,-268.631C505.47,-271.193 514.535,-273.846 523,-276.197 564.802,-287.807 613.566,-299.94 643.741,-307.285"/>
<polygon fill="midnightblue" stroke="midnightblue" points="497.798,-265.237 487.213,-265.69 495.77,-271.937 497.798,-265.237"/>
</g>
<!-- Node13 -->
<g id="node13" class="node"><title>Node13</title>
<g id="a_node13"><a xlink:href="../../da/dd2/lua_8h.html#aa6aba1fd89ac6f1c5ccfdfd12f826d80" target="_top" xlink:title="lua_callk">
<polygon fill="none" stroke="red" points="535.5,-247.697 535.5,-266.697 588.5,-266.697 588.5,-247.697 535.5,-247.697"/>
<text text-anchor="middle" x="562" y="-254.697" font-family="Helvetica,sans-Serif" font-size="10.00">lua_callk</text>
</a>
</g>
</g>
<!-- Node8&#45;&gt;Node13 -->
<g id="edge13" class="edge"><title>Node8&#45;&gt;Node13</title>
<path fill="none" stroke="midnightblue" d="M497.313,-257.197C509.932,-257.197 523.734,-257.197 535.252,-257.197"/>
<polygon fill="midnightblue" stroke="midnightblue" points="497.066,-253.697 487.066,-257.197 497.066,-260.697 497.066,-253.697"/>
</g>
<!-- Node14 -->
<g id="node14" class="node"><title>Node14</title>
<g id="a_node14"><a xlink:href="../../db/d46/ldebug_8h.html#acd5ef9f67a8e9d08f6540636fdbeafe6" target="_top" xlink:title="luaG_errormsg">
<polygon fill="none" stroke="red" points="523,-399.697 523,-418.697 601,-418.697 601,-399.697 523,-399.697"/>
<text text-anchor="middle" x="562" y="-406.697" font-family="Helvetica,sans-Serif" font-size="10.00">luaG_errormsg</text>
</a>
</g>
</g>
<!-- Node8&#45;&gt;Node14 -->
<g id="edge15" class="edge"><title>Node8&#45;&gt;Node14</title>
<path fill="none" stroke="midnightblue" d="M465.84,-276.684C474.676,-303.592 493.596,-352.501 523,-385.197 528.113,-390.883 534.88,-395.733 541.286,-399.553"/>
<polygon fill="midnightblue" stroke="midnightblue" points="469.105,-275.4 462.761,-266.915 462.429,-277.504 469.105,-275.4"/>
</g>
<!-- Node9&#45;&gt;Node1 -->
<g id="edge9" class="edge"><title>Node9&#45;&gt;Node1</title>
<path fill="none" stroke="midnightblue" d="M529.656,-181.197C489.943,-181.197 419.393,-181.197 359,-181.197 243,-181.197 243,-181.197 243,-181.197 160.644,-181.197 74.8824,-120.278 43.9803,-96.006"/>
<polygon fill="midnightblue" stroke="midnightblue" points="529.77,-184.697 539.77,-181.197 529.77,-177.697 529.77,-184.697"/>
</g>
<!-- Node11&#45;&gt;Node12 -->
<g id="edge12" class="edge"><title>Node11&#45;&gt;Node12</title>
<path fill="none" stroke="midnightblue" d="M591.012,-328.337C607.152,-325.536 627.401,-322.023 643.676,-319.199"/>
<polygon fill="midnightblue" stroke="midnightblue" points="590.336,-324.902 581.082,-330.06 591.533,-331.798 590.336,-324.902"/>
</g>
<!-- Node15 -->
<g id="node15" class="node"><title>Node15</title>
<g id="a_node15"><a xlink:href="../../db/d46/ldebug_8h.html#a6f27f64630215e18a11be9ba21d3c4bf" target="_top" xlink:title="luaG_runerror">
<polygon fill="none" stroke="red" points="637,-361.697 637,-380.697 710,-380.697 710,-361.697 637,-361.697"/>
<text text-anchor="middle" x="673.5" y="-368.697" font-family="Helvetica,sans-Serif" font-size="10.00">luaG_runerror</text>
</a>
</g>
</g>
<!-- Node14&#45;&gt;Node15 -->
<g id="edge16" class="edge"><title>Node14&#45;&gt;Node15</title>
<path fill="none" stroke="midnightblue" d="M600.379,-396.225C614.968,-391.163 631.392,-385.463 644.877,-380.783"/>
<polygon fill="midnightblue" stroke="midnightblue" points="598.931,-393.023 590.631,-399.608 601.226,-399.636 598.931,-393.023"/>
</g>
<!-- Node15&#45;&gt;Node7 -->
<g id="edge58" class="edge"><title>Node15&#45;&gt;Node7</title>
<path fill="none" stroke="midnightblue" d="M657.561,-388.249C644.29,-402.002 623.547,-420.31 601,-428.197 568.278,-439.644 553.2,-445.219 523,-428.197 454.209,-389.423 460.906,-349.281 431,-276.197 404.707,-211.944 437.503,-179.09 395,-124.197 392.058,-120.397 388.139,-117.276 383.969,-114.74"/>
<polygon fill="midnightblue" stroke="midnightblue" points="660.241,-390.506 664.468,-380.791 655.106,-385.749 660.241,-390.506"/>
</g>
<!-- Node15&#45;&gt;Node8 -->
<g id="edge17" class="edge"><title>Node15&#45;&gt;Node8</title>
<path fill="none" stroke="midnightblue" d="M626.591,-374.945C595.199,-375.328 553.85,-371.36 523,-352.197 489.882,-331.626 470.427,-286.458 463.219,-266.731"/>
<polygon fill="midnightblue" stroke="midnightblue" points="626.925,-378.437 636.825,-374.664 626.733,-371.44 626.925,-378.437"/>
</g>
<!-- Node16 -->
<g id="node16" class="node"><title>Node16</title>
<g id="a_node16"><a xlink:href="../../d2/d51/lobject_8h.html#a0d323372aa00f179e1c070d305f879f3" target="_top" xlink:title="luaO_pushvfstring">
<polygon fill="none" stroke="black" points="851,-361.697 851,-380.697 945,-380.697 945,-361.697 851,-361.697"/>
<text text-anchor="middle" x="898" y="-368.697" font-family="Helvetica,sans-Serif" font-size="10.00">luaO_pushvfstring</text>
</a>
</g>
</g>
<!-- Node15&#45;&gt;Node16 -->
<g id="edge18" class="edge"><title>Node15&#45;&gt;Node16</title>
<path fill="none" stroke="midnightblue" d="M720.57,-365.606C758.745,-364.061 812.738,-364.061 850.917,-365.605"/>
<polygon fill="midnightblue" stroke="midnightblue" points="720.076,-362.125 710.248,-366.082 720.399,-369.117 720.076,-362.125"/>
</g>
<!-- Node15&#45;&gt;Node37 -->
<g id="edge42" class="edge"><title>Node15&#45;&gt;Node37</title>
<path fill="none" stroke="midnightblue" d="M692.851,-354.242C698.859,-348.033 705.214,-340.685 710,-333.197 745.897,-277.034 769.342,-199.249 776.872,-172.054"/>
<polygon fill="midnightblue" stroke="midnightblue" points="690.232,-351.908 685.568,-361.421 695.147,-356.893 690.232,-351.908"/>
</g>
<!-- Node16&#45;&gt;Node15 -->
<g id="edge40" class="edge"><title>Node16&#45;&gt;Node15</title>
<path fill="none" stroke="midnightblue" d="M840.801,-377.151C799.802,-378.442 745.468,-378.163 710.248,-376.312"/>
<polygon fill="midnightblue" stroke="midnightblue" points="841.048,-380.645 850.917,-376.789 840.798,-373.649 841.048,-380.645"/>
</g>
<!-- Node17 -->
<g id="node17" class="node"><title>Node17</title>
<g id="a_node17"><a xlink:href="../../da/dd2/lua_8h.html#af4a7bd8fa65e507e36aff61af8db117d" target="_top" xlink:title="lua_pushfstring">
<polygon fill="none" stroke="red" points="985.5,-361.697 985.5,-380.697 1065.5,-380.697 1065.5,-361.697 985.5,-361.697"/>
<text text-anchor="middle" x="1025.5" y="-368.697" font-family="Helvetica,sans-Serif" font-size="10.00">lua_pushfstring</text>
</a>
</g>
</g>
<!-- Node16&#45;&gt;Node17 -->
<g id="edge19" class="edge"><title>Node16&#45;&gt;Node17</title>
<path fill="none" stroke="midnightblue" d="M955.041,-371.197C965.182,-371.197 975.56,-371.197 985.098,-371.197"/>
<polygon fill="midnightblue" stroke="midnightblue" points="955.019,-367.697 945.019,-371.197 955.019,-374.697 955.019,-367.697"/>
</g>
<!-- Node19 -->
<g id="node19" class="node"><title>Node19</title>
<g id="a_node19"><a xlink:href="../../da/dd2/lua_8h.html#a13fb1100c2e3942aa6c69baaf7e3f7cd" target="_top" xlink:title="lua_pushvfstring">
<polygon fill="none" stroke="black" points="982.5,-399.697 982.5,-418.697 1068.5,-418.697 1068.5,-399.697 982.5,-399.697"/>
<text text-anchor="middle" x="1025.5" y="-406.697" font-family="Helvetica,sans-Serif" font-size="10.00">lua_pushvfstring</text>
</a>
</g>
</g>
<!-- Node16&#45;&gt;Node19 -->
<g id="edge21" class="edge"><title>Node16&#45;&gt;Node19</title>
<path fill="none" stroke="midnightblue" d="M940.399,-383.732C957.472,-388.902 976.939,-394.796 992.841,-399.611"/>
<polygon fill="midnightblue" stroke="midnightblue" points="941.254,-380.334 930.669,-380.786 939.226,-387.034 941.254,-380.334"/>
</g>
<!-- Node36 -->
<g id="node36" class="node"><title>Node36</title>
<g id="a_node36"><a xlink:href="../../d2/d51/lobject_8h.html#a8622279ff260ff226d9663c85ca467dd" target="_top" xlink:title="luaO_pushfstring">
<polygon fill="none" stroke="red" points="981,-323.697 981,-342.697 1070,-342.697 1070,-323.697 981,-323.697"/>
<text text-anchor="middle" x="1025.5" y="-330.697" font-family="Helvetica,sans-Serif" font-size="10.00">luaO_pushfstring</text>
</a>
</g>
</g>
<!-- Node16&#45;&gt;Node36 -->
<g id="edge41" class="edge"><title>Node16&#45;&gt;Node36</title>
<path fill="none" stroke="midnightblue" d="M940.399,-358.662C957.472,-353.492 976.939,-347.598 992.841,-342.783"/>
<polygon fill="midnightblue" stroke="midnightblue" points="939.226,-355.36 930.669,-361.608 941.254,-362.06 939.226,-355.36"/>
</g>
<!-- Node18 -->
<g id="node18" class="node"><title>Node18</title>
<g id="a_node18"><a xlink:href="../../da/d29/lauxlib_8h.html#a664cc293d6c7a7dc67857fe95583a10e" target="_top" xlink:title="luaL_traceback">
<polygon fill="none" stroke="red" points="1106,-285.697 1106,-304.697 1187,-304.697 1187,-285.697 1106,-285.697"/>
<text text-anchor="middle" x="1146.5" y="-292.697" font-family="Helvetica,sans-Serif" font-size="10.00">luaL_traceback</text>
</a>
</g>
</g>
<!-- Node17&#45;&gt;Node18 -->
<g id="edge20" class="edge"><title>Node17&#45;&gt;Node18</title>
<path fill="none" stroke="midnightblue" d="M1060.54,-357.259C1063.79,-355.653 1066.99,-353.956 1070,-352.197 1094.38,-337.935 1120.08,-317.107 1134.32,-304.974"/>
<polygon fill="midnightblue" stroke="midnightblue" points="1058.97,-354.13 1051.39,-361.525 1061.93,-360.475 1058.97,-354.13"/>
</g>
<!-- Node20 -->
<g id="node20" class="node"><title>Node20</title>
<g id="a_node20"><a xlink:href="../../da/d29/lauxlib_8h.html#a994f73d7985c30672469a260d9e86ae6" target="_top" xlink:title="luaL_error">
<polygon fill="none" stroke="red" points="1118,-399.697 1118,-418.697 1175,-418.697 1175,-399.697 1118,-399.697"/>
<text text-anchor="middle" x="1146.5" y="-406.697" font-family="Helvetica,sans-Serif" font-size="10.00">luaL_error</text>
</a>
</g>
</g>
<!-- Node19&#45;&gt;Node20 -->
<g id="edge22" class="edge"><title>Node19&#45;&gt;Node20</title>
<path fill="none" stroke="midnightblue" d="M1078.91,-409.197C1092.33,-409.197 1106.24,-409.197 1117.85,-409.197"/>
<polygon fill="midnightblue" stroke="midnightblue" points="1078.79,-405.697 1068.79,-409.197 1078.79,-412.697 1078.79,-405.697"/>
</g>
<!-- Node20&#45;&gt;Node6 -->
<g id="edge27" class="edge"><title>Node20&#45;&gt;Node6</title>
<path fill="none" stroke="midnightblue" d="M1146.89,-429.015C1146.42,-479.86 1152.22,-616.392 1223,-694.197 1230.31,-702.234 1241.32,-706.88 1251.29,-709.563"/>
<polygon fill="midnightblue" stroke="midnightblue" points="1150.4,-428.826 1147.09,-418.761 1143.4,-428.692 1150.4,-428.826"/>
</g>
<!-- Node21 -->
<g id="node21" class="node"><title>Node21</title>
<g id="a_node21"><a xlink:href="../../dc/d77/lstrlib_8c.html#ad5f7e3fbcadc8825f7f650ecf458fc72" target="_top" xlink:title="add_s">
<polygon fill="none" stroke="black" points="1253.5,-361.697 1253.5,-380.697 1297.5,-380.697 1297.5,-361.697 1253.5,-361.697"/>
<text text-anchor="middle" x="1275.5" y="-368.697" font-family="Helvetica,sans-Serif" font-size="10.00">add_s</text>
</a>
</g>
</g>
<!-- Node20&#45;&gt;Node21 -->
<g id="edge23" class="edge"><title>Node20&#45;&gt;Node21</title>
<path fill="none" stroke="midnightblue" d="M1184.88,-398.011C1207.18,-391.341 1234.67,-383.114 1253.29,-377.545"/>
<polygon fill="midnightblue" stroke="midnightblue" points="1183.63,-394.732 1175.06,-400.952 1185.64,-401.438 1183.63,-394.732"/>
</g>
<!-- Node22 -->
<g id="node22" class="node"><title>Node22</title>
<g id="a_node22"><a xlink:href="../../dc/d77/lstrlib_8c.html#ad24cfa73e5ad25ec99a1b48f0916471e" target="_top" xlink:title="add_value">
<polygon fill="none" stroke="red" points="1364,-342.697 1364,-361.697 1426,-361.697 1426,-342.697 1364,-342.697"/>
<text text-anchor="middle" x="1395" y="-349.697" font-family="Helvetica,sans-Serif" font-size="10.00">add_value</text>
</a>
</g>
</g>
<!-- Node20&#45;&gt;Node22 -->
<g id="edge25" class="edge"><title>Node20&#45;&gt;Node22</title>
<path fill="none" stroke="midnightblue" d="M1163.47,-392.127C1177.6,-378.363 1199.57,-360.049 1223,-352.197 1270.15,-336.397 1328.81,-341.273 1363.73,-346.532"/>
<polygon fill="midnightblue" stroke="midnightblue" points="1160.63,-390.016 1156.1,-399.592 1165.62,-394.933 1160.63,-390.016"/>
</g>
<!-- Node23 -->
<g id="node23" class="node"><title>Node23</title>
<g id="a_node23"><a xlink:href="../../d0/da1/ltablib_8c.html#a4ea6cc51c099ea709c7755a49216f4d0" target="_top" xlink:title="addfield">
<polygon fill="none" stroke="red" points="1251,-285.697 1251,-304.697 1300,-304.697 1300,-285.697 1251,-285.697"/>
<text text-anchor="middle" x="1275.5" y="-292.697" font-family="Helvetica,sans-Serif" font-size="10.00">addfield</text>
</a>
</g>
</g>
<!-- Node20&#45;&gt;Node23 -->
<g id="edge26" class="edge"><title>Node20&#45;&gt;Node23</title>
<path fill="none" stroke="midnightblue" d="M1159.03,-391.2C1172.44,-371.434 1196.18,-339.775 1223,-319.197 1231.37,-312.772 1241.74,-307.526 1250.98,-303.594"/>
<polygon fill="midnightblue" stroke="midnightblue" points="1156.07,-389.333 1153.47,-399.604 1161.91,-393.197 1156.07,-389.333"/>
</g>
<!-- Node24 -->
<g id="node24" class="node"><title>Node24</title>
<g id="a_node24"><a xlink:href="../../dc/d77/lstrlib_8c.html#a5e8b364a8f8d4300aa5007c0feb42abf" target="_top" xlink:title="capture_to_close">
<polygon fill="none" stroke="red" points="1231.5,-247.697 1231.5,-266.697 1319.5,-266.697 1319.5,-247.697 1231.5,-247.697"/>
<text text-anchor="middle" x="1275.5" y="-254.697" font-family="Helvetica,sans-Serif" font-size="10.00">capture_to_close</text>
</a>
</g>
</g>
<!-- Node20&#45;&gt;Node24 -->
<g id="edge28" class="edge"><title>Node20&#45;&gt;Node24</title>
<path fill="none" stroke="midnightblue" d="M1153.58,-390.018C1163.6,-361.37 1186.21,-307.436 1223,-276.197 1227.5,-272.373 1232.85,-269.286 1238.36,-266.805"/>
<polygon fill="midnightblue" stroke="midnightblue" points="1150.21,-389.066 1150.36,-399.659 1156.85,-391.287 1150.21,-389.066"/>
</g>
<!-- Node25 -->
<g id="node25" class="node"><title>Node25</title>
<g id="a_node25"><a xlink:href="../../dc/d77/lstrlib_8c.html#aa8c1a193fa762ecfe81888d86981a586" target="_top" xlink:title="check_capture">
<polygon fill="none" stroke="red" points="1237,-209.697 1237,-228.697 1314,-228.697 1314,-209.697 1237,-209.697"/>
<text text-anchor="middle" x="1275.5" y="-216.697" font-family="Helvetica,sans-Serif" font-size="10.00">check_capture</text>
</a>
</g>
</g>
<!-- Node20&#45;&gt;Node25 -->
<g id="edge29" class="edge"><title>Node20&#45;&gt;Node25</title>
<path fill="none" stroke="midnightblue" d="M1155.53,-389.939C1173.73,-346.414 1217.05,-243.791 1223,-238.197 1227.1,-234.347 1232.04,-231.263 1237.23,-228.795"/>
<polygon fill="midnightblue" stroke="midnightblue" points="1152.19,-388.836 1151.57,-399.413 1158.65,-391.534 1152.19,-388.836"/>
</g>
<!-- Node26 -->
<g id="node26" class="node"><title>Node26</title>
<g id="a_node26"><a xlink:href="../../d2/d82/loadlib_8c.html#abe3af664b33d2158ef6526094c84bb17" target="_top" xlink:title="checkload">
<polygon fill="none" stroke="red" points="1246,-171.697 1246,-190.697 1305,-190.697 1305,-171.697 1246,-171.697"/>
<text text-anchor="middle" x="1275.5" y="-178.697" font-family="Helvetica,sans-Serif" font-size="10.00">checkload</text>
</a>
</g>
</g>
<!-- Node20&#45;&gt;Node26 -->
<g id="edge30" class="edge"><title>Node20&#45;&gt;Node26</title>
<path fill="none" stroke="midnightblue" d="M1155.95,-390.275C1164.31,-371.24 1177.23,-340.955 1187,-314.197 1205.22,-264.285 1186.33,-238.651 1223,-200.197 1229.12,-193.783 1237.59,-189.521 1245.89,-186.695"/>
<polygon fill="midnightblue" stroke="midnightblue" points="1152.67,-389.037 1151.82,-399.598 1159.07,-391.87 1152.67,-389.037"/>
</g>
<!-- Node27 -->
<g id="node27" class="node"><title>Node27</title>
<g id="a_node27"><a xlink:href="../../dc/d77/lstrlib_8c.html#a72b26c2a339f5e84ef087e961b547f95" target="_top" xlink:title="classend">
<polygon fill="none" stroke="red" points="1248,-133.697 1248,-152.697 1303,-152.697 1303,-133.697 1248,-133.697"/>
<text text-anchor="middle" x="1275.5" y="-140.697" font-family="Helvetica,sans-Serif" font-size="10.00">classend</text>
</a>
</g>
</g>
<!-- Node20&#45;&gt;Node27 -->
<g id="edge31" class="edge"><title>Node20&#45;&gt;Node27</title>
<path fill="none" stroke="midnightblue" d="M1156.37,-390.42C1165.05,-371.496 1178.22,-341.295 1187,-314.197 1208.4,-248.152 1176.96,-214.163 1223,-162.197 1229.38,-154.992 1238.75,-150.515 1247.74,-147.735"/>
<polygon fill="midnightblue" stroke="midnightblue" points="1153.11,-389.138 1152.06,-399.681 1159.45,-392.089 1153.11,-389.138"/>
</g>
<!-- Node28 -->
<g id="node28" class="node"><title>Node28</title>
<g id="a_node28"><a xlink:href="../../df/d02/lbitlib_8c.html#a6a0cf932e22a22ae18f7302158bdd490" target="_top" xlink:title="fieldargs">
<polygon fill="none" stroke="red" points="1250,-665.697 1250,-684.697 1301,-684.697 1301,-665.697 1250,-665.697"/>
<text text-anchor="middle" x="1275.5" y="-672.697" font-family="Helvetica,sans-Serif" font-size="10.00">fieldargs</text>
</a>
</g>
</g>
<!-- Node20&#45;&gt;Node28 -->
<g id="edge32" class="edge"><title>Node20&#45;&gt;Node28</title>
<path fill="none" stroke="midnightblue" d="M1147.86,-428.817C1149.76,-474.759 1160.83,-590.392 1223,-656.197 1230.07,-663.679 1240.34,-668.229 1249.85,-670.99"/>
<polygon fill="midnightblue" stroke="midnightblue" points="1151.36,-428.599 1147.55,-418.711 1144.36,-428.814 1151.36,-428.599"/>
</g>
<!-- Node29 -->
<g id="node29" class="node"><title>Node29</title>
<g id="a_node29"><a xlink:href="../../d2/d82/loadlib_8c.html#af8f7333f1a59f3d7aab8c9b79b7a4ab2" target="_top" xlink:title="findfile">
<polygon fill="none" stroke="red" points="1255,-627.697 1255,-646.697 1296,-646.697 1296,-627.697 1255,-627.697"/>
<text text-anchor="middle" x="1275.5" y="-634.697" font-family="Helvetica,sans-Serif" font-size="10.00">findfile</text>
</a>
</g>
</g>
<!-- Node20&#45;&gt;Node29 -->
<g id="edge33" class="edge"><title>Node20&#45;&gt;Node29</title>
<path fill="none" stroke="midnightblue" d="M1149.18,-429.088C1153.68,-470.034 1169.57,-564.404 1223,-618.197 1231.53,-626.784 1244.27,-631.528 1254.95,-634.127"/>
<polygon fill="midnightblue" stroke="midnightblue" points="1152.65,-428.643 1148.19,-419.034 1145.69,-429.329 1152.65,-428.643"/>
</g>
<!-- Node30 -->
<g id="node30" class="node"><title>Node30</title>
<g id="a_node30"><a xlink:href="../../d2/d82/loadlib_8c.html#aeea4101591c7cab25273f4dfe7d811d6" target="_top" xlink:title="findloader">
<polygon fill="none" stroke="red" points="1247.5,-589.697 1247.5,-608.697 1303.5,-608.697 1303.5,-589.697 1247.5,-589.697"/>
<text text-anchor="middle" x="1275.5" y="-596.697" font-family="Helvetica,sans-Serif" font-size="10.00">findloader</text>
</a>
</g>
</g>
<!-- Node20&#45;&gt;Node30 -->
<g id="edge34" class="edge"><title>Node20&#45;&gt;Node30</title>
<path fill="none" stroke="midnightblue" d="M1150.96,-428.797C1158.16,-463.927 1177.97,-537.89 1223,-580.197 1229.74,-586.527 1238.76,-590.788 1247.38,-593.639"/>
<polygon fill="midnightblue" stroke="midnightblue" points="1154.37,-428.006 1149.05,-418.845 1147.5,-429.325 1154.37,-428.006"/>
</g>
<!-- Node31 -->
<g id="node31" class="node"><title>Node31</title>
<g id="a_node31"><a xlink:href="../../d8/dd3/lbaselib_8c.html#ad467c787e381e8d18e4c7b46b4f1b05d" target="_top" xlink:title="generic_reader">
<polygon fill="none" stroke="red" points="1237,-551.697 1237,-570.697 1314,-570.697 1314,-551.697 1237,-551.697"/>
<text text-anchor="middle" x="1275.5" y="-558.697" font-family="Helvetica,sans-Serif" font-size="10.00">generic_reader</text>
</a>
</g>
</g>
<!-- Node20&#45;&gt;Node31 -->
<g id="edge35" class="edge"><title>Node20&#45;&gt;Node31</title>
<path fill="none" stroke="midnightblue" d="M1153.58,-428.377C1163.6,-457.025 1186.21,-510.958 1223,-542.197 1227.5,-546.022 1232.85,-549.108 1238.36,-551.589"/>
<polygon fill="midnightblue" stroke="midnightblue" points="1156.85,-427.108 1150.36,-418.735 1150.21,-429.329 1156.85,-427.108"/>
</g>
<!-- Node32 -->
<g id="node32" class="node"><title>Node32</title>
<g id="a_node32"><a xlink:href="../../dc/dba/loslib_8c.html#a4d6a2679129f7d65f34a60a6c701b782" target="_top" xlink:title="getfield">
<polygon fill="none" stroke="red" points="1253,-513.697 1253,-532.697 1298,-532.697 1298,-513.697 1253,-513.697"/>
<text text-anchor="middle" x="1275.5" y="-520.697" font-family="Helvetica,sans-Serif" font-size="10.00">getfield</text>
</a>
</g>
</g>
<!-- Node20&#45;&gt;Node32 -->
<g id="edge36" class="edge"><title>Node20&#45;&gt;Node32</title>
<path fill="none" stroke="midnightblue" d="M1157.72,-427.386C1170.46,-448.568 1194.14,-483.314 1223,-504.197 1231.88,-510.622 1243.17,-515.108 1252.92,-518.102"/>
<polygon fill="midnightblue" stroke="midnightblue" points="1160.71,-425.578 1152.65,-418.706 1154.67,-429.107 1160.71,-425.578"/>
</g>
<!-- Node33 -->
<g id="node33" class="node"><title>Node33</title>
<g id="a_node33"><a xlink:href="../../de/df3/liolib_8c.html#a3bccbdacdc9f21f22a603525be1f3699" target="_top" xlink:title="getiofile">
<polygon fill="none" stroke="red" points="1252,-475.697 1252,-494.697 1299,-494.697 1299,-475.697 1252,-475.697"/>
<text text-anchor="middle" x="1275.5" y="-482.697" font-family="Helvetica,sans-Serif" font-size="10.00">getiofile</text>
</a>
</g>
</g>
<!-- Node20&#45;&gt;Node33 -->
<g id="edge37" class="edge"><title>Node20&#45;&gt;Node33</title>
<path fill="none" stroke="midnightblue" d="M1165.85,-425.497C1180.52,-437.904 1202.04,-454.743 1223,-466.197 1232.03,-471.132 1242.61,-475.285 1251.82,-478.437"/>
<polygon fill="midnightblue" stroke="midnightblue" points="1167.92,-422.657 1158.06,-418.778 1163.35,-427.959 1167.92,-422.657"/>
</g>
<!-- Node34 -->
<g id="node34" class="node"><title>Node34</title>
<g id="a_node34"><a xlink:href="../../de/df3/liolib_8c.html#ac37d80ee2cc364b4adafcb6f7c20f28b" target="_top" xlink:title="io_readline">
<polygon fill="none" stroke="red" points="1245,-437.697 1245,-456.697 1306,-456.697 1306,-437.697 1245,-437.697"/>
<text text-anchor="middle" x="1275.5" y="-444.697" font-family="Helvetica,sans-Serif" font-size="10.00">io_readline</text>
</a>
</g>
</g>
<!-- Node20&#45;&gt;Node34 -->
<g id="edge38" class="edge"><title>Node20&#45;&gt;Node34</title>
<path fill="none" stroke="midnightblue" d="M1184.67,-420.318C1203.81,-426.046 1226.84,-432.935 1244.78,-438.305"/>
<polygon fill="midnightblue" stroke="midnightblue" points="1185.64,-416.956 1175.06,-417.443 1183.63,-423.662 1185.64,-416.956"/>
</g>
<!-- Node35 -->
<g id="node35" class="node"><title>Node35</title>
<g id="a_node35"><a xlink:href="../../d8/dd3/lbaselib_8c.html#a8ba9378d5d46ef34a7429d52c3f3e4c7" target="_top" xlink:title="luaB_assert">
<polygon fill="none" stroke="black" points="1241.5,-399.697 1241.5,-418.697 1309.5,-418.697 1309.5,-399.697 1241.5,-399.697"/>
<text text-anchor="middle" x="1275.5" y="-406.697" font-family="Helvetica,sans-Serif" font-size="10.00">luaB_assert</text>
</a>
</g>
</g>
<!-- Node20&#45;&gt;Node35 -->
<g id="edge39" class="edge"><title>Node20&#45;&gt;Node35</title>
<path fill="none" stroke="midnightblue" d="M1185.09,-409.197C1202.87,-409.197 1223.92,-409.197 1241.13,-409.197"/>
<polygon fill="midnightblue" stroke="midnightblue" points="1185.06,-405.697 1175.06,-409.197 1185.06,-412.697 1185.06,-405.697"/>
</g>
<!-- Node21&#45;&gt;Node22 -->
<g id="edge24" class="edge"><title>Node21&#45;&gt;Node22</title>
<path fill="none" stroke="midnightblue" d="M1307.73,-366.148C1325.13,-363.334 1346.69,-359.848 1363.9,-357.064"/>
<polygon fill="midnightblue" stroke="midnightblue" points="1306.82,-362.749 1297.51,-367.8 1307.94,-369.659 1306.82,-362.749"/>
</g>
<!-- Node37&#45;&gt;Node7 -->
<g id="edge57" class="edge"><title>Node37&#45;&gt;Node7</title>
<path fill="none" stroke="midnightblue" d="M735.681,-157.776C669.496,-150.875 540.159,-136.523 431,-119.197 419.304,-117.341 406.603,-114.986 395.172,-112.739"/>
<polygon fill="midnightblue" stroke="midnightblue" points="735.441,-161.27 745.749,-158.819 736.163,-154.307 735.441,-161.27"/>
</g>
<!-- Node37&#45;&gt;Node16 -->
<g id="edge51" class="edge"><title>Node37&#45;&gt;Node16</title>
<path fill="none" stroke="midnightblue" d="M791.638,-180.542C815.356,-223.461 873.809,-329.232 891.706,-361.618"/>
<polygon fill="midnightblue" stroke="midnightblue" points="794.663,-178.78 786.763,-171.721 788.536,-182.166 794.663,-178.78"/>
</g>
<!-- Node38 -->
<g id="node38" class="node"><title>Node38</title>
<g id="a_node38"><a xlink:href="../../da/dd2/lua_8h.html#a4eba0457df5bafff4d44071d1d8080b6" target="_top" xlink:title="lua_concat">
<polygon fill="none" stroke="black" points="994.5,-171.697 994.5,-190.697 1056.5,-190.697 1056.5,-171.697 994.5,-171.697"/>
<text text-anchor="middle" x="1025.5" y="-178.697" font-family="Helvetica,sans-Serif" font-size="10.00">lua_concat</text>
</a>
</g>
</g>
<!-- Node37&#45;&gt;Node38 -->
<g id="edge43" class="edge"><title>Node37&#45;&gt;Node38</title>
<path fill="none" stroke="midnightblue" d="M825.296,-165.622C874.153,-169.442 951.892,-175.52 994.367,-178.841"/>
<polygon fill="midnightblue" stroke="midnightblue" points="825.275,-162.109 815.033,-164.819 824.73,-169.088 825.275,-162.109"/>
</g>
<!-- Node44 -->
<g id="node44" class="node"><title>Node44</title>
<g id="a_node44"><a xlink:href="../../d5/dcd/lvm_8h.html#a5db3e64b3cc2f63c3b10b27f7ecd1d03" target="_top" xlink:title="luaV_finishOp">
<polygon fill="none" stroke="black" points="859.5,-133.697 859.5,-152.697 936.5,-152.697 936.5,-133.697 859.5,-133.697"/>
<text text-anchor="middle" x="898" y="-140.697" font-family="Helvetica,sans-Serif" font-size="10.00">luaV_finishOp</text>
</a>
</g>
</g>
<!-- Node37&#45;&gt;Node44 -->
<g id="edge52" class="edge"><title>Node37&#45;&gt;Node44</title>
<path fill="none" stroke="midnightblue" d="M825.273,-154.996C836.509,-153.148 848.497,-151.176 859.391,-149.384"/>
<polygon fill="midnightblue" stroke="midnightblue" points="824.517,-151.574 815.218,-156.651 825.653,-158.481 824.517,-151.574"/>
</g>
<!-- Node38&#45;&gt;Node18 -->
<g id="edge50" class="edge"><title>Node38&#45;&gt;Node18</title>
<path fill="none" stroke="midnightblue" d="M1044.07,-198.029C1069.34,-222.233 1115.11,-266.088 1135.38,-285.502"/>
<polygon fill="midnightblue" stroke="midnightblue" points="1046.29,-195.307 1036.65,-190.917 1041.45,-200.362 1046.29,-195.307"/>
</g>
<!-- Node38&#45;&gt;Node20 -->
<g id="edge49" class="edge"><title>Node38&#45;&gt;Node20</title>
<path fill="none" stroke="midnightblue" d="M1036.11,-199.615C1060.19,-245.748 1122.45,-365.036 1140.52,-399.65"/>
<polygon fill="midnightblue" stroke="midnightblue" points="1039.19,-197.949 1031.46,-190.704 1032.99,-201.188 1039.19,-197.949"/>
</g>
<!-- Node39 -->
<g id="node39" class="node"><title>Node39</title>
<g id="a_node39"><a xlink:href="../../d0/d56/lauxlib_8c.html#a36c8f149b779f8c9a5c042ea9784d80a" target="_top" xlink:title="findfield">
<polygon fill="none" stroke="black" points="1123,-171.697 1123,-190.697 1170,-190.697 1170,-171.697 1123,-171.697"/>
<text text-anchor="middle" x="1146.5" y="-178.697" font-family="Helvetica,sans-Serif" font-size="10.00">findfield</text>
</a>
</g>
</g>
<!-- Node38&#45;&gt;Node39 -->
<g id="edge44" class="edge"><title>Node38&#45;&gt;Node39</title>
<path fill="none" stroke="midnightblue" d="M1066.62,-181.197C1085.42,-181.197 1107.12,-181.197 1122.99,-181.197"/>
<polygon fill="midnightblue" stroke="midnightblue" points="1066.53,-177.697 1056.53,-181.197 1066.53,-184.697 1066.53,-177.697"/>
</g>
<!-- Node41 -->
<g id="node41" class="node"><title>Node41</title>
<g id="a_node41"><a xlink:href="../../df/d2d/lcorolib_8c.html#a777abb20385a69ce4787f72bd90375a7" target="_top" xlink:title="luaB_auxwrap">
<polygon fill="none" stroke="black" points="1106.5,-133.697 1106.5,-152.697 1186.5,-152.697 1186.5,-133.697 1106.5,-133.697"/>
<text text-anchor="middle" x="1146.5" y="-140.697" font-family="Helvetica,sans-Serif" font-size="10.00">luaB_auxwrap</text>
</a>
</g>
</g>
<!-- Node38&#45;&gt;Node41 -->
<g id="edge46" class="edge"><title>Node38&#45;&gt;Node41</title>
<path fill="none" stroke="midnightblue" d="M1066.21,-168.517C1082.29,-163.382 1100.54,-157.553 1115.48,-152.783"/>
<polygon fill="midnightblue" stroke="midnightblue" points="1064.99,-165.232 1056.53,-171.608 1067.12,-171.9 1064.99,-165.232"/>
</g>
<!-- Node43 -->
<g id="node43" class="node"><title>Node43</title>
<g id="a_node43"><a xlink:href="../../d8/dd3/lbaselib_8c.html#a2ecfa987569d0b4c1063f3e204e42dd2" target="_top" xlink:title="luaB_error">
<polygon fill="none" stroke="black" points="1117,-95.6972 1117,-114.697 1176,-114.697 1176,-95.6972 1117,-95.6972"/>
<text text-anchor="middle" x="1146.5" y="-102.697" font-family="Helvetica,sans-Serif" font-size="10.00">luaB_error</text>
</a>
</g>
</g>
<!-- Node38&#45;&gt;Node43 -->
<g id="edge48" class="edge"><title>Node38&#45;&gt;Node43</title>
<path fill="none" stroke="midnightblue" d="M1046.39,-165.456C1062.09,-153.403 1084.8,-136.767 1106,-124.197 1111.63,-120.86 1117.93,-117.62 1123.83,-114.79"/>
<polygon fill="midnightblue" stroke="midnightblue" points="1044.2,-162.728 1038.45,-171.626 1048.49,-168.257 1044.2,-162.728"/>
</g>
<!-- Node40 -->
<g id="node40" class="node"><title>Node40</title>
<g id="a_node40"><a xlink:href="../../d0/d56/lauxlib_8c.html#a4f35430f7ecfcbd5f507e550937046b4" target="_top" xlink:title="pushglobalfuncname">
<polygon fill="none" stroke="red" points="1223,-95.6972 1223,-114.697 1328,-114.697 1328,-95.6972 1223,-95.6972"/>
<text text-anchor="middle" x="1275.5" y="-102.697" font-family="Helvetica,sans-Serif" font-size="10.00">pushglobalfuncname</text>
</a>
</g>
</g>
<!-- Node39&#45;&gt;Node40 -->
<g id="edge45" class="edge"><title>Node39&#45;&gt;Node40</title>
<path fill="none" stroke="midnightblue" d="M1179.02,-167.358C1181.79,-165.747 1184.5,-164.022 1187,-162.197 1205.79,-148.484 1203.58,-137.004 1223,-124.197 1228.65,-120.473 1235.13,-117.352 1241.54,-114.788"/>
<polygon fill="midnightblue" stroke="midnightblue" points="1177.25,-164.332 1170.04,-172.094 1180.52,-170.523 1177.25,-164.332"/>
</g>
<!-- Node42 -->
<g id="node42" class="node"><title>Node42</title>
<g id="a_node42"><a xlink:href="../../df/d2d/lcorolib_8c.html#a1c0429e27f504b08e25f437f733edad1" target="_top" xlink:title="luaB_cowrap">
<polygon fill="none" stroke="black" points="1238.5,-57.6972 1238.5,-76.6972 1312.5,-76.6972 1312.5,-57.6972 1238.5,-57.6972"/>
<text text-anchor="middle" x="1275.5" y="-64.6972" font-family="Helvetica,sans-Serif" font-size="10.00">luaB_cowrap</text>
</a>
</g>
</g>
<!-- Node41&#45;&gt;Node42 -->
<g id="edge47" class="edge"><title>Node41&#45;&gt;Node42</title>
<path fill="none" stroke="midnightblue" d="M1179.92,-128.827C1182.38,-127.37 1184.77,-125.823 1187,-124.197 1205.79,-110.484 1203.58,-99.0036 1223,-86.1972 1228.65,-82.4725 1235.13,-79.3524 1241.54,-76.788"/>
<polygon fill="midnightblue" stroke="midnightblue" points="1178.02,-125.876 1170.87,-133.692 1181.33,-132.043 1178.02,-125.876"/>
</g>
<!-- Node44&#45;&gt;Node45 -->
<g id="edge53" class="edge"><title>Node44&#45;&gt;Node45</title>
<path fill="none" stroke="midnightblue" d="M929.385,-129.397C953.412,-118.484 986.155,-103.613 1006.28,-94.4707"/>
<polygon fill="midnightblue" stroke="midnightblue" points="927.663,-126.335 920.006,-133.657 930.558,-132.708 927.663,-126.335"/>
</g>
<!-- Node46 -->
<g id="node46" class="node"><title>Node46</title>
<g id="a_node46"><a xlink:href="../../da/dd2/lua_8h.html#a434479f022eda738b99000aad5ddd929" target="_top" xlink:title="lua_resume">
<polygon fill="none" stroke="red" points="1243,-19.6972 1243,-38.6972 1308,-38.6972 1308,-19.6972 1243,-19.6972"/>
<text text-anchor="middle" x="1275.5" y="-26.6972" font-family="Helvetica,sans-Serif" font-size="10.00">lua_resume</text>
</a>
</g>
</g>
<!-- Node45&#45;&gt;Node46 -->
<g id="edge54" class="edge"><title>Node45&#45;&gt;Node46</title>
<path fill="none" stroke="midnightblue" d="M1054.76,-79.7029C1101.41,-68.9795 1194.24,-47.6452 1242.96,-36.4459"/>
<polygon fill="midnightblue" stroke="midnightblue" points="1053.7,-76.3547 1044.74,-82.0058 1055.27,-83.1768 1053.7,-76.3547"/>
</g>
<!-- Node45&#45;&gt;Node47 -->
<g id="edge55" class="edge"><title>Node45&#45;&gt;Node47</title>
<path fill="none" stroke="midnightblue" d="M1053.7,-73.1698C1075.63,-62.663 1105.97,-48.1305 1125.67,-38.6976"/>
<polygon fill="midnightblue" stroke="midnightblue" points="1052.08,-70.0636 1044.57,-77.5401 1055.1,-76.3767 1052.08,-70.0636"/>
</g>
<!-- Node47&#45;&gt;Node46 -->
<g id="edge56" class="edge"><title>Node47&#45;&gt;Node46</title>
<path fill="none" stroke="midnightblue" d="M1180.34,-29.1972C1199.63,-29.1972 1223.87,-29.1972 1242.93,-29.1972"/>
<polygon fill="midnightblue" stroke="midnightblue" points="1180.21,-25.6973 1170.21,-29.1972 1180.21,-32.6973 1180.21,-25.6973"/>
</g>
<!-- Node48&#45;&gt;Node4 -->
<g id="edge63" class="edge"><title>Node48&#45;&gt;Node4</title>
<path fill="none" stroke="midnightblue" d="M282.803,-118.023C297.831,-123.122 314.82,-128.886 328.747,-133.611"/>
<polygon fill="midnightblue" stroke="midnightblue" points="283.857,-114.685 273.262,-114.786 281.608,-121.314 283.857,-114.685"/>
</g>
<!-- Node48&#45;&gt;Node7 -->
<g id="edge64" class="edge"><title>Node48&#45;&gt;Node7</title>
<path fill="none" stroke="midnightblue" d="M295.157,-105.197C303.825,-105.197 312.682,-105.197 320.884,-105.197"/>
<polygon fill="midnightblue" stroke="midnightblue" points="295.118,-101.697 285.118,-105.197 295.118,-108.697 295.118,-101.697"/>
</g>
<!-- Node49&#45;&gt;Node7 -->
<g id="edge67" class="edge"><title>Node49&#45;&gt;Node7</title>
<path fill="none" stroke="midnightblue" d="M163.974,-15.7574C195.826,-3.83958 246.442,8.96061 285,-10.1972 321.696,-28.4297 344.699,-75.2883 353.238,-95.5853"/>
<polygon fill="midnightblue" stroke="midnightblue" points="162.354,-12.6339 154.331,-19.5542 164.918,-19.1472 162.354,-12.6339"/>
</g>
<!-- Node50 -->
<g id="node50" class="node"><title>Node50</title>
<g id="a_node50"><a xlink:href="../../da/dd2/lua_8h.html#ab0a8e0d4a119fa51c2785e25d5b5aa08" target="_top" xlink:title="lua_arith">
<polygon fill="none" stroke="black" points="218,-19.6972 218,-38.6972 270,-38.6972 270,-19.6972 218,-19.6972"/>
<text text-anchor="middle" x="244" y="-26.6972" font-family="Helvetica,sans-Serif" font-size="10.00">lua_arith</text>
</a>
</g>
</g>
<!-- Node49&#45;&gt;Node50 -->
<g id="edge66" class="edge"><title>Node49&#45;&gt;Node50</title>
<path fill="none" stroke="midnightblue" d="M172.373,-29.1972C187.464,-29.1972 204.318,-29.1972 217.775,-29.1972"/>
<polygon fill="midnightblue" stroke="midnightblue" points="172.27,-25.6973 162.27,-29.1972 172.27,-32.6973 172.27,-25.6973"/>
</g>
</g>
</svg>
