<?xml version="1.0" encoding="UTF-8" standalone="no"?>
<!DOCTYPE svg PUBLIC "-//W3C//DTD SVG 1.1//EN"
 "http://www.w3.org/Graphics/SVG/1.1/DTD/svg11.dtd">
<!-- Generated by graphviz version 2.38.0 (20140413.2041)
 -->
<!-- Title: luaV_finishOp Pages: 1 -->
<svg width="671pt" height="66pt"
 viewBox="0.00 0.00 671.00 66.00" xmlns="http://www.w3.org/2000/svg" xmlns:xlink="http://www.w3.org/1999/xlink">
<g id="graph0" class="graph" transform="scale(1 1) rotate(0) translate(4 62)">
<title>luaV_finishOp</title>
<!-- Node1 -->
<g id="node1" class="node"><title>Node1</title>
<polygon fill="#bfbfbf" stroke="black" points="0,-19.5 0,-38.5 77,-38.5 77,-19.5 0,-19.5"/>
<text text-anchor="middle" x="38.5" y="-26.5" font-family="Helvetica,sans-Serif" font-size="10.00">luaV_finishOp</text>
</g>
<!-- Node2 -->
<g id="node2" class="node"><title>Node2</title>
<g id="a_node2"><a xlink:href="../../d3/d08/ldo_8c.html#a3baab9d298c0c32cb74a9a079d7244de" target="_top" xlink:title="unroll">
<polygon fill="none" stroke="black" points="113,-19.5 113,-38.5 151,-38.5 151,-19.5 113,-19.5"/>
<text text-anchor="middle" x="132" y="-26.5" font-family="Helvetica,sans-Serif" font-size="10.00">unroll</text>
</a>
</g>
</g>
<!-- Node1&#45;&gt;Node2 -->
<g id="edge1" class="edge"><title>Node1&#45;&gt;Node2</title>
<path fill="none" stroke="midnightblue" d="M87.3616,-29C96.3469,-29 105.223,-29 112.601,-29"/>
<polygon fill="midnightblue" stroke="midnightblue" points="87.2449,-25.5001 77.2448,-29 87.2448,-32.5001 87.2449,-25.5001"/>
</g>
<!-- Node3 -->
<g id="node3" class="node"><title>Node3</title>
<g id="a_node3"><a xlink:href="../../da/dd2/lua_8h.html#a434479f022eda738b99000aad5ddd929" target="_top" xlink:title="lua_resume">
<polygon fill="none" stroke="black" points="270,-19.5 270,-38.5 335,-38.5 335,-19.5 270,-19.5"/>
<text text-anchor="middle" x="302.5" y="-26.5" font-family="Helvetica,sans-Serif" font-size="10.00">lua_resume</text>
</a>
</g>
</g>
<!-- Node2&#45;&gt;Node3 -->
<g id="edge2" class="edge"><title>Node2&#45;&gt;Node3</title>
<path fill="none" stroke="midnightblue" d="M161.245,-29C191.263,-29 238.618,-29 269.868,-29"/>
<polygon fill="midnightblue" stroke="midnightblue" points="161.032,-25.5001 151.032,-29 161.032,-32.5001 161.032,-25.5001"/>
</g>
<!-- Node8 -->
<g id="node8" class="node"><title>Node8</title>
<g id="a_node8"><a xlink:href="../../d3/d08/ldo_8c.html#abd7632c715de5db6e7797b7fa3f7010f" target="_top" xlink:title="resume">
<polygon fill="none" stroke="black" points="187,-0.5 187,-19.5 234,-19.5 234,-0.5 187,-0.5"/>
<text text-anchor="middle" x="210.5" y="-7.5" font-family="Helvetica,sans-Serif" font-size="10.00">resume</text>
</a>
</g>
</g>
<!-- Node2&#45;&gt;Node8 -->
<g id="edge7" class="edge"><title>Node2&#45;&gt;Node8</title>
<path fill="none" stroke="midnightblue" d="M161.012,-22.0427C169.513,-19.9315 178.741,-17.6394 186.843,-15.6271"/>
<polygon fill="midnightblue" stroke="midnightblue" points="159.991,-18.69 151.129,-24.4973 161.678,-25.4836 159.991,-18.69"/>
</g>
<!-- Node4 -->
<g id="node4" class="node"><title>Node4</title>
<g id="a_node4"><a xlink:href="../../df/d2d/lcorolib_8c.html#aaa37b3a30ab0c6daef7fae8951fef3e7" target="_top" xlink:title="auxresume">
<polygon fill="none" stroke="black" points="371,-19.5 371,-38.5 435,-38.5 435,-19.5 371,-19.5"/>
<text text-anchor="middle" x="403" y="-26.5" font-family="Helvetica,sans-Serif" font-size="10.00">auxresume</text>
</a>
</g>
</g>
<!-- Node3&#45;&gt;Node4 -->
<g id="edge3" class="edge"><title>Node3&#45;&gt;Node4</title>
<path fill="none" stroke="midnightblue" d="M345.349,-29C353.842,-29 362.636,-29 370.688,-29"/>
<polygon fill="midnightblue" stroke="midnightblue" points="345.208,-25.5001 335.208,-29 345.208,-32.5001 345.208,-25.5001"/>
</g>
<!-- Node5 -->
<g id="node5" class="node"><title>Node5</title>
<g id="a_node5"><a xlink:href="../../df/d2d/lcorolib_8c.html#a777abb20385a69ce4787f72bd90375a7" target="_top" xlink:title="luaB_auxwrap">
<polygon fill="none" stroke="black" points="472,-38.5 472,-57.5 552,-57.5 552,-38.5 472,-38.5"/>
<text text-anchor="middle" x="512" y="-45.5" font-family="Helvetica,sans-Serif" font-size="10.00">luaB_auxwrap</text>
</a>
</g>
</g>
<!-- Node4&#45;&gt;Node5 -->
<g id="edge4" class="edge"><title>Node4&#45;&gt;Node5</title>
<path fill="none" stroke="midnightblue" d="M445.251,-36.325C454.015,-37.8812 463.242,-39.5197 471.922,-41.061"/>
<polygon fill="midnightblue" stroke="midnightblue" points="445.694,-32.849 435.236,-34.5467 444.47,-39.7412 445.694,-32.849"/>
</g>
<!-- Node7 -->
<g id="node7" class="node"><title>Node7</title>
<g id="a_node7"><a xlink:href="../../df/d2d/lcorolib_8c.html#a76f5d80387eeb1c7d31eb5f9cb6c9392" target="_top" xlink:title="luaB_coresume">
<polygon fill="none" stroke="black" points="471,-0.5 471,-19.5 553,-19.5 553,-0.5 471,-0.5"/>
<text text-anchor="middle" x="512" y="-7.5" font-family="Helvetica,sans-Serif" font-size="10.00">luaB_coresume</text>
</a>
</g>
</g>
<!-- Node4&#45;&gt;Node7 -->
<g id="edge6" class="edge"><title>Node4&#45;&gt;Node7</title>
<path fill="none" stroke="midnightblue" d="M445.196,-21.6849C453.583,-20.1956 462.397,-18.6305 470.75,-17.1471"/>
<polygon fill="midnightblue" stroke="midnightblue" points="444.47,-18.2588 435.236,-23.4533 445.694,-25.151 444.47,-18.2588"/>
</g>
<!-- Node6 -->
<g id="node6" class="node"><title>Node6</title>
<g id="a_node6"><a xlink:href="../../df/d2d/lcorolib_8c.html#a1c0429e27f504b08e25f437f733edad1" target="_top" xlink:title="luaB_cowrap">
<polygon fill="none" stroke="black" points="589,-38.5 589,-57.5 663,-57.5 663,-38.5 589,-38.5"/>
<text text-anchor="middle" x="626" y="-45.5" font-family="Helvetica,sans-Serif" font-size="10.00">luaB_cowrap</text>
</a>
</g>
</g>
<!-- Node5&#45;&gt;Node6 -->
<g id="edge5" class="edge"><title>Node5&#45;&gt;Node6</title>
<path fill="none" stroke="midnightblue" d="M562.388,-48C571.223,-48 580.281,-48 588.666,-48"/>
<polygon fill="midnightblue" stroke="midnightblue" points="562.172,-44.5001 552.172,-48 562.172,-51.5001 562.172,-44.5001"/>
</g>
<!-- Node8&#45;&gt;Node3 -->
<g id="edge8" class="edge"><title>Node8&#45;&gt;Node3</title>
<path fill="none" stroke="midnightblue" d="M244.093,-16.8807C252.523,-18.6605 261.584,-20.5732 269.959,-22.3414"/>
<polygon fill="midnightblue" stroke="midnightblue" points="244.718,-13.4356 234.211,-14.7945 243.272,-20.2847 244.718,-13.4356"/>
</g>
</g>
</svg>
