<?xml version="1.0" encoding="UTF-8" standalone="no"?>
<!DOCTYPE svg PUBLIC "-//W3C//DTD SVG 1.1//EN"
 "http://www.w3.org/Graphics/SVG/1.1/DTD/svg11.dtd">
<!-- Generated by graphviz version 2.38.0 (20140413.2041)
 -->
<!-- Title: LoadHeader Pages: 1 -->
<svg width="736pt" height="85pt"
 viewBox="0.00 0.00 736.00 85.00" xmlns="http://www.w3.org/2000/svg" xmlns:xlink="http://www.w3.org/1999/xlink">
<g id="graph0" class="graph" transform="scale(1 1) rotate(0) translate(4 81)">
<title>LoadHeader</title>
<!-- Node1 -->
<g id="node1" class="node"><title>Node1</title>
<polygon fill="#bfbfbf" stroke="black" points="0,-38.5 0,-57.5 69,-57.5 69,-38.5 0,-38.5"/>
<text text-anchor="middle" x="34.5" y="-45.5" font-family="Helvetica,sans-Serif" font-size="10.00">LoadHeader</text>
</g>
<!-- Node2 -->
<g id="node2" class="node"><title>Node2</title>
<g id="a_node2"><a xlink:href="../../d3/dff/lundump_8h.html#a1d7dbb7046fdeb0977015f3bdfb414a2" target="_top" xlink:title="luaU_undump">
<polygon fill="none" stroke="black" points="105,-38.5 105,-57.5 181,-57.5 181,-38.5 105,-38.5"/>
<text text-anchor="middle" x="143" y="-45.5" font-family="Helvetica,sans-Serif" font-size="10.00">luaU_undump</text>
</a>
</g>
</g>
<!-- Node1&#45;&gt;Node2 -->
<g id="edge1" class="edge"><title>Node1&#45;&gt;Node2</title>
<path fill="none" stroke="midnightblue" d="M79.3105,-48C87.7849,-48 96.5887,-48 104.826,-48"/>
<polygon fill="midnightblue" stroke="midnightblue" points="79.1973,-44.5001 69.1973,-48 79.1972,-51.5001 79.1973,-44.5001"/>
</g>
<!-- Node3 -->
<g id="node3" class="node"><title>Node3</title>
<g id="a_node3"><a xlink:href="../../d3/d08/ldo_8c.html#a14df0fa118ab124dfcc6d227bdd38ca5" target="_top" xlink:title="f_parser">
<polygon fill="none" stroke="black" points="217,-38.5 217,-57.5 268,-57.5 268,-38.5 217,-38.5"/>
<text text-anchor="middle" x="242.5" y="-45.5" font-family="Helvetica,sans-Serif" font-size="10.00">f_parser</text>
</a>
</g>
</g>
<!-- Node2&#45;&gt;Node3 -->
<g id="edge2" class="edge"><title>Node2&#45;&gt;Node3</title>
<path fill="none" stroke="midnightblue" d="M191.384,-48C200.194,-48 209.064,-48 216.841,-48"/>
<polygon fill="midnightblue" stroke="midnightblue" points="191.139,-44.5001 181.139,-48 191.139,-51.5001 191.139,-44.5001"/>
</g>
<!-- Node4 -->
<g id="node4" class="node"><title>Node4</title>
<g id="a_node4"><a xlink:href="../../d2/dd9/ldo_8h.html#a5dffa85d966f14d3f3464db580f5b3fa" target="_top" xlink:title="luaD_protectedparser">
<polygon fill="none" stroke="black" points="304,-38.5 304,-57.5 411,-57.5 411,-38.5 304,-38.5"/>
<text text-anchor="middle" x="357.5" y="-45.5" font-family="Helvetica,sans-Serif" font-size="10.00">luaD_protectedparser</text>
</a>
</g>
</g>
<!-- Node3&#45;&gt;Node4 -->
<g id="edge3" class="edge"><title>Node3&#45;&gt;Node4</title>
<path fill="none" stroke="midnightblue" d="M278.176,-48C286.263,-48 295.055,-48 303.73,-48"/>
<polygon fill="midnightblue" stroke="midnightblue" points="278.019,-44.5001 268.019,-48 278.019,-51.5001 278.019,-44.5001"/>
</g>
<!-- Node5 -->
<g id="node5" class="node"><title>Node5</title>
<g id="a_node5"><a xlink:href="../../da/dd2/lua_8h.html#a3f4c1ed5e0bd437dc527d62c5768b463" target="_top" xlink:title="lua_load">
<polygon fill="none" stroke="black" points="447,-38.5 447,-57.5 500,-57.5 500,-38.5 447,-38.5"/>
<text text-anchor="middle" x="473.5" y="-45.5" font-family="Helvetica,sans-Serif" font-size="10.00">lua_load</text>
</a>
</g>
</g>
<!-- Node4&#45;&gt;Node5 -->
<g id="edge4" class="edge"><title>Node4&#45;&gt;Node5</title>
<path fill="none" stroke="midnightblue" d="M421.321,-48C430.289,-48 439.062,-48 446.741,-48"/>
<polygon fill="midnightblue" stroke="midnightblue" points="421.162,-44.5001 411.162,-48 421.162,-51.5001 421.162,-44.5001"/>
</g>
<!-- Node6 -->
<g id="node6" class="node"><title>Node6</title>
<g id="a_node6"><a xlink:href="../../d8/dd3/lbaselib_8c.html#a4a9a3613fcf80fe033e044f7e19bed69" target="_top" xlink:title="luaB_load">
<polygon fill="none" stroke="black" points="663.5,-57.5 663.5,-76.5 722.5,-76.5 722.5,-57.5 663.5,-57.5"/>
<text text-anchor="middle" x="693" y="-64.5" font-family="Helvetica,sans-Serif" font-size="10.00">luaB_load</text>
</a>
</g>
</g>
<!-- Node5&#45;&gt;Node6 -->
<g id="edge5" class="edge"><title>Node5&#45;&gt;Node6</title>
<path fill="none" stroke="midnightblue" d="M509.272,-60.7225C517.89,-63.3226 527.184,-65.6693 536,-67 580.053,-73.6499 631.904,-71.7536 663.342,-69.5486"/>
<polygon fill="midnightblue" stroke="midnightblue" points="510.126,-57.3209 499.535,-57.5995 507.988,-63.9865 510.126,-57.3209"/>
</g>
<!-- Node7 -->
<g id="node7" class="node"><title>Node7</title>
<g id="a_node7"><a xlink:href="../../da/d29/lauxlib_8h.html#a3ab1955dd9322cf03e2d3626ebfae669" target="_top" xlink:title="luaL_loadbufferx">
<polygon fill="none" stroke="black" points="536,-38.5 536,-57.5 622,-57.5 622,-38.5 536,-38.5"/>
<text text-anchor="middle" x="579" y="-45.5" font-family="Helvetica,sans-Serif" font-size="10.00">luaL_loadbufferx</text>
</a>
</g>
</g>
<!-- Node5&#45;&gt;Node7 -->
<g id="edge6" class="edge"><title>Node5&#45;&gt;Node7</title>
<path fill="none" stroke="midnightblue" d="M510.151,-48C518.413,-48 527.283,-48 535.795,-48"/>
<polygon fill="midnightblue" stroke="midnightblue" points="510.084,-44.5001 500.084,-48 510.084,-51.5001 510.084,-44.5001"/>
</g>
<!-- Node8 -->
<g id="node8" class="node"><title>Node8</title>
<g id="a_node8"><a xlink:href="../../da/d29/lauxlib_8h.html#a8c38c6dcf9db7e110e525b46742bacf8" target="_top" xlink:title="luaL_loadfilex">
<polygon fill="none" stroke="black" points="542,-0.5 542,-19.5 616,-19.5 616,-0.5 542,-0.5"/>
<text text-anchor="middle" x="579" y="-7.5" font-family="Helvetica,sans-Serif" font-size="10.00">luaL_loadfilex</text>
</a>
</g>
</g>
<!-- Node5&#45;&gt;Node8 -->
<g id="edge8" class="edge"><title>Node5&#45;&gt;Node8</title>
<path fill="none" stroke="midnightblue" d="M509.785,-35.0453C523.621,-29.9651 539.211,-24.2413 551.991,-19.5491"/>
<polygon fill="midnightblue" stroke="midnightblue" points="508.265,-31.8746 500.084,-38.6067 510.678,-38.4457 508.265,-31.8746"/>
</g>
<!-- Node7&#45;&gt;Node6 -->
<g id="edge7" class="edge"><title>Node7&#45;&gt;Node6</title>
<path fill="none" stroke="midnightblue" d="M632.196,-56.8546C642.919,-58.6738 653.83,-60.5247 663.345,-62.1388"/>
<polygon fill="midnightblue" stroke="midnightblue" points="632.468,-53.3509 622.023,-55.129 631.297,-60.2523 632.468,-53.3509"/>
</g>
<!-- Node9 -->
<g id="node9" class="node"><title>Node9</title>
<g id="a_node9"><a xlink:href="../../d8/dd3/lbaselib_8c.html#aeb4cb83db820979bbdd7710109b52957" target="_top" xlink:title="luaB_loadfile">
<polygon fill="none" stroke="black" points="658,-0.5 658,-19.5 728,-19.5 728,-0.5 658,-0.5"/>
<text text-anchor="middle" x="693" y="-7.5" font-family="Helvetica,sans-Serif" font-size="10.00">luaB_loadfile</text>
</a>
</g>
</g>
<!-- Node8&#45;&gt;Node9 -->
<g id="edge9" class="edge"><title>Node8&#45;&gt;Node9</title>
<path fill="none" stroke="midnightblue" d="M626.068,-10C636.726,-10 647.88,-10 657.919,-10"/>
<polygon fill="midnightblue" stroke="midnightblue" points="626.054,-6.5001 616.054,-10 626.054,-13.5001 626.054,-6.5001"/>
</g>
</g>
</svg>
