<?xml version="1.0" encoding="UTF-8" standalone="no"?>
<!DOCTYPE svg PUBLIC "-//W3C//DTD SVG 1.1//EN"
 "http://www.w3.org/Graphics/SVG/1.1/DTD/svg11.dtd">
<!-- Generated by graphviz version 2.38.0 (20140413.2041)
 -->
<!-- Title: LoadCode Pages: 1 -->
<svg width="845pt" height="104pt"
 viewBox="0.00 0.00 845.00 104.00" xmlns="http://www.w3.org/2000/svg" xmlns:xlink="http://www.w3.org/1999/xlink">
<g id="graph0" class="graph" transform="scale(1 1) rotate(0) translate(4 100)">
<title>LoadCode</title>
<!-- Node1 -->
<g id="node1" class="node"><title>Node1</title>
<polygon fill="#bfbfbf" stroke="black" points="0,-76.5 0,-95.5 62,-95.5 62,-76.5 0,-76.5"/>
<text text-anchor="middle" x="31" y="-83.5" font-family="Helvetica,sans-Serif" font-size="10.00">LoadCode</text>
</g>
<!-- Node2 -->
<g id="node2" class="node"><title>Node2</title>
<g id="a_node2"><a xlink:href="../../de/d2f/lundump_8c.html#a26c35541b59dce503747e776441691f2" target="_top" xlink:title="LoadFunction">
<polygon fill="none" stroke="black" points="98,-76.5 98,-95.5 171,-95.5 171,-76.5 98,-76.5"/>
<text text-anchor="middle" x="134.5" y="-83.5" font-family="Helvetica,sans-Serif" font-size="10.00">LoadFunction</text>
</a>
</g>
</g>
<!-- Node1&#45;&gt;Node2 -->
<g id="edge1" class="edge"><title>Node1&#45;&gt;Node2</title>
<path fill="none" stroke="midnightblue" d="M72.2456,-86C80.7202,-86 89.6034,-86 97.8933,-86"/>
<polygon fill="midnightblue" stroke="midnightblue" points="72.1786,-82.5001 62.1785,-86 72.1785,-89.5001 72.1786,-82.5001"/>
</g>
<!-- Node3 -->
<g id="node3" class="node"><title>Node3</title>
<g id="a_node3"><a xlink:href="../../de/d2f/lundump_8c.html#a1854dcefef99e90599873a480c49da5f" target="_top" xlink:title="LoadConstants">
<polygon fill="none" stroke="black" points="207,-76.5 207,-95.5 290,-95.5 290,-76.5 207,-76.5"/>
<text text-anchor="middle" x="248.5" y="-83.5" font-family="Helvetica,sans-Serif" font-size="10.00">LoadConstants</text>
</a>
</g>
</g>
<!-- Node2&#45;&gt;Node3 -->
<g id="edge2" class="edge"><title>Node2&#45;&gt;Node3</title>
<path fill="none" stroke="midnightblue" d="M181.28,-79.3509C189.679,-79.1834 198.396,-79.2245 206.64,-79.4742"/>
<polygon fill="midnightblue" stroke="midnightblue" points="181.133,-75.8537 171.245,-79.6588 181.348,-82.8504 181.133,-75.8537"/>
</g>
<!-- Node4 -->
<g id="node4" class="node"><title>Node4</title>
<g id="a_node4"><a xlink:href="../../d3/dff/lundump_8h.html#a1d7dbb7046fdeb0977015f3bdfb414a2" target="_top" xlink:title="luaU_undump">
<polygon fill="none" stroke="black" points="210.5,-38.5 210.5,-57.5 286.5,-57.5 286.5,-38.5 210.5,-38.5"/>
<text text-anchor="middle" x="248.5" y="-45.5" font-family="Helvetica,sans-Serif" font-size="10.00">luaU_undump</text>
</a>
</g>
</g>
<!-- Node2&#45;&gt;Node4 -->
<g id="edge4" class="edge"><title>Node2&#45;&gt;Node4</title>
<path fill="none" stroke="midnightblue" d="M173.303,-73.1741C188.331,-68.0753 205.32,-62.3109 219.247,-57.5859"/>
<polygon fill="midnightblue" stroke="midnightblue" points="172.108,-69.8835 163.762,-76.411 174.357,-76.5124 172.108,-69.8835"/>
</g>
<!-- Node3&#45;&gt;Node2 -->
<g id="edge3" class="edge"><title>Node3&#45;&gt;Node2</title>
<path fill="none" stroke="midnightblue" d="M196.403,-92.727C187.905,-92.807 179.256,-92.6784 171.245,-92.3412"/>
<polygon fill="midnightblue" stroke="midnightblue" points="196.71,-96.2217 206.64,-92.5258 196.573,-89.223 196.71,-96.2217"/>
</g>
<!-- Node5 -->
<g id="node5" class="node"><title>Node5</title>
<g id="a_node5"><a xlink:href="../../d3/d08/ldo_8c.html#a14df0fa118ab124dfcc6d227bdd38ca5" target="_top" xlink:title="f_parser">
<polygon fill="none" stroke="black" points="326,-38.5 326,-57.5 377,-57.5 377,-38.5 326,-38.5"/>
<text text-anchor="middle" x="351.5" y="-45.5" font-family="Helvetica,sans-Serif" font-size="10.00">f_parser</text>
</a>
</g>
</g>
<!-- Node4&#45;&gt;Node5 -->
<g id="edge5" class="edge"><title>Node4&#45;&gt;Node5</title>
<path fill="none" stroke="midnightblue" d="M296.83,-48C306.83,-48 316.996,-48 325.752,-48"/>
<polygon fill="midnightblue" stroke="midnightblue" points="296.535,-44.5001 286.535,-48 296.535,-51.5001 296.535,-44.5001"/>
</g>
<!-- Node6 -->
<g id="node6" class="node"><title>Node6</title>
<g id="a_node6"><a xlink:href="../../d2/dd9/ldo_8h.html#a5dffa85d966f14d3f3464db580f5b3fa" target="_top" xlink:title="luaD_protectedparser">
<polygon fill="none" stroke="black" points="413,-38.5 413,-57.5 520,-57.5 520,-38.5 413,-38.5"/>
<text text-anchor="middle" x="466.5" y="-45.5" font-family="Helvetica,sans-Serif" font-size="10.00">luaD_protectedparser</text>
</a>
</g>
</g>
<!-- Node5&#45;&gt;Node6 -->
<g id="edge6" class="edge"><title>Node5&#45;&gt;Node6</title>
<path fill="none" stroke="midnightblue" d="M387.176,-48C395.263,-48 404.055,-48 412.73,-48"/>
<polygon fill="midnightblue" stroke="midnightblue" points="387.019,-44.5001 377.019,-48 387.019,-51.5001 387.019,-44.5001"/>
</g>
<!-- Node7 -->
<g id="node7" class="node"><title>Node7</title>
<g id="a_node7"><a xlink:href="../../da/dd2/lua_8h.html#a3f4c1ed5e0bd437dc527d62c5768b463" target="_top" xlink:title="lua_load">
<polygon fill="none" stroke="black" points="556,-38.5 556,-57.5 609,-57.5 609,-38.5 556,-38.5"/>
<text text-anchor="middle" x="582.5" y="-45.5" font-family="Helvetica,sans-Serif" font-size="10.00">lua_load</text>
</a>
</g>
</g>
<!-- Node6&#45;&gt;Node7 -->
<g id="edge7" class="edge"><title>Node6&#45;&gt;Node7</title>
<path fill="none" stroke="midnightblue" d="M530.321,-48C539.289,-48 548.062,-48 555.741,-48"/>
<polygon fill="midnightblue" stroke="midnightblue" points="530.162,-44.5001 520.162,-48 530.162,-51.5001 530.162,-44.5001"/>
</g>
<!-- Node8 -->
<g id="node8" class="node"><title>Node8</title>
<g id="a_node8"><a xlink:href="../../d8/dd3/lbaselib_8c.html#a4a9a3613fcf80fe033e044f7e19bed69" target="_top" xlink:title="luaB_load">
<polygon fill="none" stroke="black" points="772.5,-57.5 772.5,-76.5 831.5,-76.5 831.5,-57.5 772.5,-57.5"/>
<text text-anchor="middle" x="802" y="-64.5" font-family="Helvetica,sans-Serif" font-size="10.00">luaB_load</text>
</a>
</g>
</g>
<!-- Node7&#45;&gt;Node8 -->
<g id="edge8" class="edge"><title>Node7&#45;&gt;Node8</title>
<path fill="none" stroke="midnightblue" d="M618.272,-60.7225C626.89,-63.3226 636.184,-65.6693 645,-67 689.053,-73.6499 740.904,-71.7536 772.342,-69.5486"/>
<polygon fill="midnightblue" stroke="midnightblue" points="619.126,-57.3209 608.535,-57.5995 616.988,-63.9865 619.126,-57.3209"/>
</g>
<!-- Node9 -->
<g id="node9" class="node"><title>Node9</title>
<g id="a_node9"><a xlink:href="../../da/d29/lauxlib_8h.html#a3ab1955dd9322cf03e2d3626ebfae669" target="_top" xlink:title="luaL_loadbufferx">
<polygon fill="none" stroke="black" points="645,-38.5 645,-57.5 731,-57.5 731,-38.5 645,-38.5"/>
<text text-anchor="middle" x="688" y="-45.5" font-family="Helvetica,sans-Serif" font-size="10.00">luaL_loadbufferx</text>
</a>
</g>
</g>
<!-- Node7&#45;&gt;Node9 -->
<g id="edge9" class="edge"><title>Node7&#45;&gt;Node9</title>
<path fill="none" stroke="midnightblue" d="M619.151,-48C627.413,-48 636.283,-48 644.795,-48"/>
<polygon fill="midnightblue" stroke="midnightblue" points="619.084,-44.5001 609.084,-48 619.084,-51.5001 619.084,-44.5001"/>
</g>
<!-- Node10 -->
<g id="node10" class="node"><title>Node10</title>
<g id="a_node10"><a xlink:href="../../da/d29/lauxlib_8h.html#a8c38c6dcf9db7e110e525b46742bacf8" target="_top" xlink:title="luaL_loadfilex">
<polygon fill="none" stroke="black" points="651,-0.5 651,-19.5 725,-19.5 725,-0.5 651,-0.5"/>
<text text-anchor="middle" x="688" y="-7.5" font-family="Helvetica,sans-Serif" font-size="10.00">luaL_loadfilex</text>
</a>
</g>
</g>
<!-- Node7&#45;&gt;Node10 -->
<g id="edge11" class="edge"><title>Node7&#45;&gt;Node10</title>
<path fill="none" stroke="midnightblue" d="M618.785,-35.0453C632.621,-29.9651 648.211,-24.2413 660.991,-19.5491"/>
<polygon fill="midnightblue" stroke="midnightblue" points="617.265,-31.8746 609.084,-38.6067 619.678,-38.4457 617.265,-31.8746"/>
</g>
<!-- Node9&#45;&gt;Node8 -->
<g id="edge10" class="edge"><title>Node9&#45;&gt;Node8</title>
<path fill="none" stroke="midnightblue" d="M741.196,-56.8546C751.919,-58.6738 762.83,-60.5247 772.345,-62.1388"/>
<polygon fill="midnightblue" stroke="midnightblue" points="741.468,-53.3509 731.023,-55.129 740.297,-60.2523 741.468,-53.3509"/>
</g>
<!-- Node11 -->
<g id="node11" class="node"><title>Node11</title>
<g id="a_node11"><a xlink:href="../../d8/dd3/lbaselib_8c.html#aeb4cb83db820979bbdd7710109b52957" target="_top" xlink:title="luaB_loadfile">
<polygon fill="none" stroke="black" points="767,-0.5 767,-19.5 837,-19.5 837,-0.5 767,-0.5"/>
<text text-anchor="middle" x="802" y="-7.5" font-family="Helvetica,sans-Serif" font-size="10.00">luaB_loadfile</text>
</a>
</g>
</g>
<!-- Node10&#45;&gt;Node11 -->
<g id="edge12" class="edge"><title>Node10&#45;&gt;Node11</title>
<path fill="none" stroke="midnightblue" d="M735.068,-10C745.726,-10 756.88,-10 766.919,-10"/>
<polygon fill="midnightblue" stroke="midnightblue" points="735.054,-6.5001 725.054,-10 735.054,-13.5001 735.054,-6.5001"/>
</g>
</g>
</svg>
