<?xml version="1.0" encoding="UTF-8" standalone="no"?>
<!DOCTYPE svg PUBLIC "-//W3C//DTD SVG 1.1//EN"
 "http://www.w3.org/Graphics/SVG/1.1/DTD/svg11.dtd">
<!-- Generated by graphviz version 2.38.0 (20140413.2041)
 -->
<!-- Title: LoadBlock Pages: 1 -->
<svg width="1054pt" height="104pt"
 viewBox="0.00 0.00 1054.00 104.00" xmlns="http://www.w3.org/2000/svg" xmlns:xlink="http://www.w3.org/1999/xlink">
<g id="graph0" class="graph" transform="scale(1 1) rotate(0) translate(4 100)">
<title>LoadBlock</title>
<!-- Node1 -->
<g id="node1" class="node"><title>Node1</title>
<polygon fill="#bfbfbf" stroke="black" points="0,-57.5 0,-76.5 61,-76.5 61,-57.5 0,-57.5"/>
<text text-anchor="middle" x="30.5" y="-64.5" font-family="Helvetica,sans-Serif" font-size="10.00">LoadBlock</text>
</g>
<!-- Node2 -->
<g id="node2" class="node"><title>Node2</title>
<g id="a_node2"><a xlink:href="../../de/d2f/lundump_8c.html#a070311f1203a7633e63ee83a444c5168" target="_top" xlink:title="LoadHeader">
<polygon fill="none" stroke="black" points="316,-76.5 316,-95.5 385,-95.5 385,-76.5 316,-76.5"/>
<text text-anchor="middle" x="350.5" y="-83.5" font-family="Helvetica,sans-Serif" font-size="10.00">LoadHeader</text>
</a>
</g>
</g>
<!-- Node1&#45;&gt;Node2 -->
<g id="edge1" class="edge"><title>Node1&#45;&gt;Node2</title>
<path fill="none" stroke="midnightblue" d="M71.4799,-69.3887C134.633,-73.162 256.366,-80.4354 315.544,-83.9712"/>
<polygon fill="midnightblue" stroke="midnightblue" points="71.3221,-65.8732 61.1311,-68.7704 70.9045,-72.8607 71.3221,-65.8732"/>
</g>
<!-- Node11 -->
<g id="node11" class="node"><title>Node11</title>
<g id="a_node11"><a xlink:href="../../de/d2f/lundump_8c.html#abfe7dabe70bd14e27d54d3cedc6cb70a" target="_top" xlink:title="LoadString">
<polygon fill="none" stroke="black" points="97,-38.5 97,-57.5 159,-57.5 159,-38.5 97,-38.5"/>
<text text-anchor="middle" x="128" y="-45.5" font-family="Helvetica,sans-Serif" font-size="10.00">LoadString</text>
</a>
</g>
</g>
<!-- Node1&#45;&gt;Node11 -->
<g id="edge11" class="edge"><title>Node1&#45;&gt;Node11</title>
<path fill="none" stroke="midnightblue" d="M71.1132,-59.1188C79.7677,-57.397 88.7896,-55.6021 96.9961,-53.9694"/>
<polygon fill="midnightblue" stroke="midnightblue" points="70.3181,-55.7083 61.1933,-61.0924 71.6841,-62.5738 70.3181,-55.7083"/>
</g>
<!-- Node3 -->
<g id="node3" class="node"><title>Node3</title>
<g id="a_node3"><a xlink:href="../../d3/dff/lundump_8h.html#a1d7dbb7046fdeb0977015f3bdfb414a2" target="_top" xlink:title="luaU_undump">
<polygon fill="none" stroke="black" points="423,-57.5 423,-76.5 499,-76.5 499,-57.5 423,-57.5"/>
<text text-anchor="middle" x="461" y="-64.5" font-family="Helvetica,sans-Serif" font-size="10.00">luaU_undump</text>
</a>
</g>
</g>
<!-- Node2&#45;&gt;Node3 -->
<g id="edge2" class="edge"><title>Node2&#45;&gt;Node3</title>
<path fill="none" stroke="midnightblue" d="M395.324,-78.3258C404.465,-76.725 414.017,-75.0522 422.888,-73.4989"/>
<polygon fill="midnightblue" stroke="midnightblue" points="394.482,-74.9199 385.235,-80.0924 395.689,-81.815 394.482,-74.9199"/>
</g>
<!-- Node4 -->
<g id="node4" class="node"><title>Node4</title>
<g id="a_node4"><a xlink:href="../../d3/d08/ldo_8c.html#a14df0fa118ab124dfcc6d227bdd38ca5" target="_top" xlink:title="f_parser">
<polygon fill="none" stroke="black" points="535,-57.5 535,-76.5 586,-76.5 586,-57.5 535,-57.5"/>
<text text-anchor="middle" x="560.5" y="-64.5" font-family="Helvetica,sans-Serif" font-size="10.00">f_parser</text>
</a>
</g>
</g>
<!-- Node3&#45;&gt;Node4 -->
<g id="edge3" class="edge"><title>Node3&#45;&gt;Node4</title>
<path fill="none" stroke="midnightblue" d="M509.384,-67C518.194,-67 527.064,-67 534.841,-67"/>
<polygon fill="midnightblue" stroke="midnightblue" points="509.139,-63.5001 499.139,-67 509.139,-70.5001 509.139,-63.5001"/>
</g>
<!-- Node5 -->
<g id="node5" class="node"><title>Node5</title>
<g id="a_node5"><a xlink:href="../../d2/dd9/ldo_8h.html#a5dffa85d966f14d3f3464db580f5b3fa" target="_top" xlink:title="luaD_protectedparser">
<polygon fill="none" stroke="black" points="622,-57.5 622,-76.5 729,-76.5 729,-57.5 622,-57.5"/>
<text text-anchor="middle" x="675.5" y="-64.5" font-family="Helvetica,sans-Serif" font-size="10.00">luaD_protectedparser</text>
</a>
</g>
</g>
<!-- Node4&#45;&gt;Node5 -->
<g id="edge4" class="edge"><title>Node4&#45;&gt;Node5</title>
<path fill="none" stroke="midnightblue" d="M596.176,-67C604.263,-67 613.055,-67 621.73,-67"/>
<polygon fill="midnightblue" stroke="midnightblue" points="596.019,-63.5001 586.019,-67 596.019,-70.5001 596.019,-63.5001"/>
</g>
<!-- Node6 -->
<g id="node6" class="node"><title>Node6</title>
<g id="a_node6"><a xlink:href="../../da/dd2/lua_8h.html#a3f4c1ed5e0bd437dc527d62c5768b463" target="_top" xlink:title="lua_load">
<polygon fill="none" stroke="black" points="765,-57.5 765,-76.5 818,-76.5 818,-57.5 765,-57.5"/>
<text text-anchor="middle" x="791.5" y="-64.5" font-family="Helvetica,sans-Serif" font-size="10.00">lua_load</text>
</a>
</g>
</g>
<!-- Node5&#45;&gt;Node6 -->
<g id="edge5" class="edge"><title>Node5&#45;&gt;Node6</title>
<path fill="none" stroke="midnightblue" d="M739.321,-67C748.289,-67 757.062,-67 764.741,-67"/>
<polygon fill="midnightblue" stroke="midnightblue" points="739.162,-63.5001 729.162,-67 739.162,-70.5001 739.162,-63.5001"/>
</g>
<!-- Node7 -->
<g id="node7" class="node"><title>Node7</title>
<g id="a_node7"><a xlink:href="../../d8/dd3/lbaselib_8c.html#a4a9a3613fcf80fe033e044f7e19bed69" target="_top" xlink:title="luaB_load">
<polygon fill="none" stroke="black" points="981.5,-76.5 981.5,-95.5 1040.5,-95.5 1040.5,-76.5 981.5,-76.5"/>
<text text-anchor="middle" x="1011" y="-83.5" font-family="Helvetica,sans-Serif" font-size="10.00">luaB_load</text>
</a>
</g>
</g>
<!-- Node6&#45;&gt;Node7 -->
<g id="edge6" class="edge"><title>Node6&#45;&gt;Node7</title>
<path fill="none" stroke="midnightblue" d="M827.272,-79.7225C835.89,-82.3226 845.184,-84.6693 854,-86 898.053,-92.6499 949.904,-90.7536 981.342,-88.5486"/>
<polygon fill="midnightblue" stroke="midnightblue" points="828.126,-76.3209 817.535,-76.5995 825.988,-82.9865 828.126,-76.3209"/>
</g>
<!-- Node8 -->
<g id="node8" class="node"><title>Node8</title>
<g id="a_node8"><a xlink:href="../../da/d29/lauxlib_8h.html#a3ab1955dd9322cf03e2d3626ebfae669" target="_top" xlink:title="luaL_loadbufferx">
<polygon fill="none" stroke="black" points="854,-57.5 854,-76.5 940,-76.5 940,-57.5 854,-57.5"/>
<text text-anchor="middle" x="897" y="-64.5" font-family="Helvetica,sans-Serif" font-size="10.00">luaL_loadbufferx</text>
</a>
</g>
</g>
<!-- Node6&#45;&gt;Node8 -->
<g id="edge7" class="edge"><title>Node6&#45;&gt;Node8</title>
<path fill="none" stroke="midnightblue" d="M828.151,-67C836.413,-67 845.283,-67 853.795,-67"/>
<polygon fill="midnightblue" stroke="midnightblue" points="828.084,-63.5001 818.084,-67 828.084,-70.5001 828.084,-63.5001"/>
</g>
<!-- Node9 -->
<g id="node9" class="node"><title>Node9</title>
<g id="a_node9"><a xlink:href="../../da/d29/lauxlib_8h.html#a8c38c6dcf9db7e110e525b46742bacf8" target="_top" xlink:title="luaL_loadfilex">
<polygon fill="none" stroke="black" points="860,-19.5 860,-38.5 934,-38.5 934,-19.5 860,-19.5"/>
<text text-anchor="middle" x="897" y="-26.5" font-family="Helvetica,sans-Serif" font-size="10.00">luaL_loadfilex</text>
</a>
</g>
</g>
<!-- Node6&#45;&gt;Node9 -->
<g id="edge9" class="edge"><title>Node6&#45;&gt;Node9</title>
<path fill="none" stroke="midnightblue" d="M827.785,-54.0453C841.621,-48.9651 857.211,-43.2413 869.991,-38.5491"/>
<polygon fill="midnightblue" stroke="midnightblue" points="826.265,-50.8746 818.084,-57.6067 828.678,-57.4457 826.265,-50.8746"/>
</g>
<!-- Node8&#45;&gt;Node7 -->
<g id="edge8" class="edge"><title>Node8&#45;&gt;Node7</title>
<path fill="none" stroke="midnightblue" d="M950.196,-75.8546C960.919,-77.6738 971.83,-79.5247 981.345,-81.1388"/>
<polygon fill="midnightblue" stroke="midnightblue" points="950.468,-72.3509 940.023,-74.129 949.297,-79.2523 950.468,-72.3509"/>
</g>
<!-- Node10 -->
<g id="node10" class="node"><title>Node10</title>
<g id="a_node10"><a xlink:href="../../d8/dd3/lbaselib_8c.html#aeb4cb83db820979bbdd7710109b52957" target="_top" xlink:title="luaB_loadfile">
<polygon fill="none" stroke="black" points="976,-19.5 976,-38.5 1046,-38.5 1046,-19.5 976,-19.5"/>
<text text-anchor="middle" x="1011" y="-26.5" font-family="Helvetica,sans-Serif" font-size="10.00">luaB_loadfile</text>
</a>
</g>
</g>
<!-- Node9&#45;&gt;Node10 -->
<g id="edge10" class="edge"><title>Node9&#45;&gt;Node10</title>
<path fill="none" stroke="midnightblue" d="M944.068,-29C954.726,-29 965.88,-29 975.919,-29"/>
<polygon fill="midnightblue" stroke="midnightblue" points="944.054,-25.5001 934.054,-29 944.054,-32.5001 944.054,-25.5001"/>
</g>
<!-- Node12 -->
<g id="node12" class="node"><title>Node12</title>
<g id="a_node12"><a xlink:href="../../de/d2f/lundump_8c.html#a1854dcefef99e90599873a480c49da5f" target="_top" xlink:title="LoadConstants">
<polygon fill="none" stroke="black" points="195,-38.5 195,-57.5 278,-57.5 278,-38.5 195,-38.5"/>
<text text-anchor="middle" x="236.5" y="-45.5" font-family="Helvetica,sans-Serif" font-size="10.00">LoadConstants</text>
</a>
</g>
</g>
<!-- Node11&#45;&gt;Node12 -->
<g id="edge12" class="edge"><title>Node11&#45;&gt;Node12</title>
<path fill="none" stroke="midnightblue" d="M169.461,-48C177.773,-48 186.528,-48 194.848,-48"/>
<polygon fill="midnightblue" stroke="midnightblue" points="169.234,-44.5001 159.234,-48 169.234,-51.5001 169.234,-44.5001"/>
</g>
<!-- Node14 -->
<g id="node14" class="node"><title>Node14</title>
<g id="a_node14"><a xlink:href="../../de/d2f/lundump_8c.html#a89f9807f8a7395e26b0bce7b7f208d20" target="_top" xlink:title="LoadDebug">
<polygon fill="none" stroke="black" points="202.5,-0.5 202.5,-19.5 270.5,-19.5 270.5,-0.5 202.5,-0.5"/>
<text text-anchor="middle" x="236.5" y="-7.5" font-family="Helvetica,sans-Serif" font-size="10.00">LoadDebug</text>
</a>
</g>
</g>
<!-- Node11&#45;&gt;Node14 -->
<g id="edge16" class="edge"><title>Node11&#45;&gt;Node14</title>
<path fill="none" stroke="midnightblue" d="M165.355,-35.0282C179.544,-29.9656 195.518,-24.2659 208.634,-19.5859"/>
<polygon fill="midnightblue" stroke="midnightblue" points="164.117,-31.7539 155.874,-38.411 166.469,-38.3468 164.117,-31.7539"/>
</g>
<!-- Node13 -->
<g id="node13" class="node"><title>Node13</title>
<g id="a_node13"><a xlink:href="../../de/d2f/lundump_8c.html#a26c35541b59dce503747e776441691f2" target="_top" xlink:title="LoadFunction">
<polygon fill="none" stroke="black" points="314,-38.5 314,-57.5 387,-57.5 387,-38.5 314,-38.5"/>
<text text-anchor="middle" x="350.5" y="-45.5" font-family="Helvetica,sans-Serif" font-size="10.00">LoadFunction</text>
</a>
</g>
</g>
<!-- Node12&#45;&gt;Node13 -->
<g id="edge13" class="edge"><title>Node12&#45;&gt;Node13</title>
<path fill="none" stroke="midnightblue" d="M288.524,-41.2737C297.053,-41.1922 305.738,-41.3208 313.777,-41.6598"/>
<polygon fill="midnightblue" stroke="midnightblue" points="288.18,-37.7798 278.251,-41.4775 288.319,-44.7784 288.18,-37.7798"/>
</g>
<!-- Node13&#45;&gt;Node3 -->
<g id="edge15" class="edge"><title>Node13&#45;&gt;Node3</title>
<path fill="none" stroke="midnightblue" d="M396.975,-55.9634C405.615,-57.4764 414.56,-59.0428 422.902,-60.5036"/>
<polygon fill="midnightblue" stroke="midnightblue" points="397.481,-52.4988 387.027,-54.2213 396.273,-59.3938 397.481,-52.4988"/>
</g>
<!-- Node13&#45;&gt;Node12 -->
<g id="edge14" class="edge"><title>Node13&#45;&gt;Node12</title>
<path fill="none" stroke="midnightblue" d="M303.705,-54.6494C295.273,-54.8173 286.522,-54.775 278.251,-54.5225"/>
<polygon fill="midnightblue" stroke="midnightblue" points="303.89,-58.1455 313.777,-54.3402 303.675,-51.1488 303.89,-58.1455"/>
</g>
<!-- Node14&#45;&gt;Node13 -->
<g id="edge17" class="edge"><title>Node14&#45;&gt;Node13</title>
<path fill="none" stroke="midnightblue" d="M275.303,-22.8259C290.331,-27.9247 307.32,-33.6891 321.247,-38.4141"/>
<polygon fill="midnightblue" stroke="midnightblue" points="276.357,-19.4876 265.762,-19.589 274.108,-26.1165 276.357,-19.4876"/>
</g>
</g>
</svg>
