<?xml version="1.0" encoding="UTF-8" standalone="no"?>
<!DOCTYPE svg PUBLIC "-//W3C//DTD SVG 1.1//EN"
 "http://www.w3.org/Graphics/SVG/1.1/DTD/svg11.dtd">
<!-- Generated by graphviz version 2.38.0 (20140413.2041)
 -->
<!-- Title: LoadNumber Pages: 1 -->
<svg width="966pt" height="85pt"
 viewBox="0.00 0.00 966.00 85.00" xmlns="http://www.w3.org/2000/svg" xmlns:xlink="http://www.w3.org/1999/xlink">
<g id="graph0" class="graph" transform="scale(1 1) rotate(0) translate(4 81)">
<title>LoadNumber</title>
<!-- Node1 -->
<g id="node1" class="node"><title>Node1</title>
<polygon fill="#bfbfbf" stroke="black" points="0,-38.5 0,-57.5 71,-57.5 71,-38.5 0,-38.5"/>
<text text-anchor="middle" x="35.5" y="-45.5" font-family="Helvetica,sans-Serif" font-size="10.00">LoadNumber</text>
</g>
<!-- Node2 -->
<g id="node2" class="node"><title>Node2</title>
<g id="a_node2"><a xlink:href="../../de/d2f/lundump_8c.html#a1854dcefef99e90599873a480c49da5f" target="_top" xlink:title="LoadConstants">
<polygon fill="none" stroke="black" points="107,-38.5 107,-57.5 190,-57.5 190,-38.5 107,-38.5"/>
<text text-anchor="middle" x="148.5" y="-45.5" font-family="Helvetica,sans-Serif" font-size="10.00">LoadConstants</text>
</a>
</g>
</g>
<!-- Node1&#45;&gt;Node2 -->
<g id="edge1" class="edge"><title>Node1&#45;&gt;Node2</title>
<path fill="none" stroke="midnightblue" d="M81.1231,-48C89.6012,-48 98.4316,-48 106.781,-48"/>
<polygon fill="midnightblue" stroke="midnightblue" points="81.0127,-44.5001 71.0126,-48 81.0126,-51.5001 81.0127,-44.5001"/>
</g>
<!-- Node3 -->
<g id="node3" class="node"><title>Node3</title>
<g id="a_node3"><a xlink:href="../../de/d2f/lundump_8c.html#a26c35541b59dce503747e776441691f2" target="_top" xlink:title="LoadFunction">
<polygon fill="none" stroke="black" points="226,-38.5 226,-57.5 299,-57.5 299,-38.5 226,-38.5"/>
<text text-anchor="middle" x="262.5" y="-45.5" font-family="Helvetica,sans-Serif" font-size="10.00">LoadFunction</text>
</a>
</g>
</g>
<!-- Node2&#45;&gt;Node3 -->
<g id="edge2" class="edge"><title>Node2&#45;&gt;Node3</title>
<path fill="none" stroke="midnightblue" d="M200.524,-41.2737C209.053,-41.1922 217.738,-41.3208 225.777,-41.6598"/>
<polygon fill="midnightblue" stroke="midnightblue" points="200.18,-37.7798 190.251,-41.4775 200.319,-44.7784 200.18,-37.7798"/>
</g>
<!-- Node3&#45;&gt;Node2 -->
<g id="edge3" class="edge"><title>Node3&#45;&gt;Node2</title>
<path fill="none" stroke="midnightblue" d="M215.705,-54.6494C207.273,-54.8173 198.522,-54.775 190.251,-54.5225"/>
<polygon fill="midnightblue" stroke="midnightblue" points="215.89,-58.1455 225.777,-54.3402 215.675,-51.1488 215.89,-58.1455"/>
</g>
<!-- Node4 -->
<g id="node4" class="node"><title>Node4</title>
<g id="a_node4"><a xlink:href="../../d3/dff/lundump_8h.html#a1d7dbb7046fdeb0977015f3bdfb414a2" target="_top" xlink:title="luaU_undump">
<polygon fill="none" stroke="black" points="335,-38.5 335,-57.5 411,-57.5 411,-38.5 335,-38.5"/>
<text text-anchor="middle" x="373" y="-45.5" font-family="Helvetica,sans-Serif" font-size="10.00">luaU_undump</text>
</a>
</g>
</g>
<!-- Node3&#45;&gt;Node4 -->
<g id="edge4" class="edge"><title>Node3&#45;&gt;Node4</title>
<path fill="none" stroke="midnightblue" d="M309.257,-48C317.81,-48 326.651,-48 334.902,-48"/>
<polygon fill="midnightblue" stroke="midnightblue" points="309.027,-44.5001 299.027,-48 309.027,-51.5001 309.027,-44.5001"/>
</g>
<!-- Node5 -->
<g id="node5" class="node"><title>Node5</title>
<g id="a_node5"><a xlink:href="../../d3/d08/ldo_8c.html#a14df0fa118ab124dfcc6d227bdd38ca5" target="_top" xlink:title="f_parser">
<polygon fill="none" stroke="black" points="447,-38.5 447,-57.5 498,-57.5 498,-38.5 447,-38.5"/>
<text text-anchor="middle" x="472.5" y="-45.5" font-family="Helvetica,sans-Serif" font-size="10.00">f_parser</text>
</a>
</g>
</g>
<!-- Node4&#45;&gt;Node5 -->
<g id="edge5" class="edge"><title>Node4&#45;&gt;Node5</title>
<path fill="none" stroke="midnightblue" d="M421.384,-48C430.194,-48 439.064,-48 446.841,-48"/>
<polygon fill="midnightblue" stroke="midnightblue" points="421.139,-44.5001 411.139,-48 421.139,-51.5001 421.139,-44.5001"/>
</g>
<!-- Node6 -->
<g id="node6" class="node"><title>Node6</title>
<g id="a_node6"><a xlink:href="../../d2/dd9/ldo_8h.html#a5dffa85d966f14d3f3464db580f5b3fa" target="_top" xlink:title="luaD_protectedparser">
<polygon fill="none" stroke="black" points="534,-38.5 534,-57.5 641,-57.5 641,-38.5 534,-38.5"/>
<text text-anchor="middle" x="587.5" y="-45.5" font-family="Helvetica,sans-Serif" font-size="10.00">luaD_protectedparser</text>
</a>
</g>
</g>
<!-- Node5&#45;&gt;Node6 -->
<g id="edge6" class="edge"><title>Node5&#45;&gt;Node6</title>
<path fill="none" stroke="midnightblue" d="M508.176,-48C516.263,-48 525.055,-48 533.73,-48"/>
<polygon fill="midnightblue" stroke="midnightblue" points="508.019,-44.5001 498.019,-48 508.019,-51.5001 508.019,-44.5001"/>
</g>
<!-- Node7 -->
<g id="node7" class="node"><title>Node7</title>
<g id="a_node7"><a xlink:href="../../da/dd2/lua_8h.html#a3f4c1ed5e0bd437dc527d62c5768b463" target="_top" xlink:title="lua_load">
<polygon fill="none" stroke="black" points="677,-38.5 677,-57.5 730,-57.5 730,-38.5 677,-38.5"/>
<text text-anchor="middle" x="703.5" y="-45.5" font-family="Helvetica,sans-Serif" font-size="10.00">lua_load</text>
</a>
</g>
</g>
<!-- Node6&#45;&gt;Node7 -->
<g id="edge7" class="edge"><title>Node6&#45;&gt;Node7</title>
<path fill="none" stroke="midnightblue" d="M651.321,-48C660.289,-48 669.062,-48 676.741,-48"/>
<polygon fill="midnightblue" stroke="midnightblue" points="651.162,-44.5001 641.162,-48 651.162,-51.5001 651.162,-44.5001"/>
</g>
<!-- Node8 -->
<g id="node8" class="node"><title>Node8</title>
<g id="a_node8"><a xlink:href="../../d8/dd3/lbaselib_8c.html#a4a9a3613fcf80fe033e044f7e19bed69" target="_top" xlink:title="luaB_load">
<polygon fill="none" stroke="black" points="893.5,-57.5 893.5,-76.5 952.5,-76.5 952.5,-57.5 893.5,-57.5"/>
<text text-anchor="middle" x="923" y="-64.5" font-family="Helvetica,sans-Serif" font-size="10.00">luaB_load</text>
</a>
</g>
</g>
<!-- Node7&#45;&gt;Node8 -->
<g id="edge8" class="edge"><title>Node7&#45;&gt;Node8</title>
<path fill="none" stroke="midnightblue" d="M739.272,-60.7225C747.89,-63.3226 757.184,-65.6693 766,-67 810.053,-73.6499 861.904,-71.7536 893.342,-69.5486"/>
<polygon fill="midnightblue" stroke="midnightblue" points="740.126,-57.3209 729.535,-57.5995 737.988,-63.9865 740.126,-57.3209"/>
</g>
<!-- Node9 -->
<g id="node9" class="node"><title>Node9</title>
<g id="a_node9"><a xlink:href="../../da/d29/lauxlib_8h.html#a3ab1955dd9322cf03e2d3626ebfae669" target="_top" xlink:title="luaL_loadbufferx">
<polygon fill="none" stroke="black" points="766,-38.5 766,-57.5 852,-57.5 852,-38.5 766,-38.5"/>
<text text-anchor="middle" x="809" y="-45.5" font-family="Helvetica,sans-Serif" font-size="10.00">luaL_loadbufferx</text>
</a>
</g>
</g>
<!-- Node7&#45;&gt;Node9 -->
<g id="edge9" class="edge"><title>Node7&#45;&gt;Node9</title>
<path fill="none" stroke="midnightblue" d="M740.151,-48C748.413,-48 757.283,-48 765.795,-48"/>
<polygon fill="midnightblue" stroke="midnightblue" points="740.084,-44.5001 730.084,-48 740.084,-51.5001 740.084,-44.5001"/>
</g>
<!-- Node10 -->
<g id="node10" class="node"><title>Node10</title>
<g id="a_node10"><a xlink:href="../../da/d29/lauxlib_8h.html#a8c38c6dcf9db7e110e525b46742bacf8" target="_top" xlink:title="luaL_loadfilex">
<polygon fill="none" stroke="black" points="772,-0.5 772,-19.5 846,-19.5 846,-0.5 772,-0.5"/>
<text text-anchor="middle" x="809" y="-7.5" font-family="Helvetica,sans-Serif" font-size="10.00">luaL_loadfilex</text>
</a>
</g>
</g>
<!-- Node7&#45;&gt;Node10 -->
<g id="edge11" class="edge"><title>Node7&#45;&gt;Node10</title>
<path fill="none" stroke="midnightblue" d="M739.785,-35.0453C753.621,-29.9651 769.211,-24.2413 781.991,-19.5491"/>
<polygon fill="midnightblue" stroke="midnightblue" points="738.265,-31.8746 730.084,-38.6067 740.678,-38.4457 738.265,-31.8746"/>
</g>
<!-- Node9&#45;&gt;Node8 -->
<g id="edge10" class="edge"><title>Node9&#45;&gt;Node8</title>
<path fill="none" stroke="midnightblue" d="M862.196,-56.8546C872.919,-58.6738 883.83,-60.5247 893.345,-62.1388"/>
<polygon fill="midnightblue" stroke="midnightblue" points="862.468,-53.3509 852.023,-55.129 861.297,-60.2523 862.468,-53.3509"/>
</g>
<!-- Node11 -->
<g id="node11" class="node"><title>Node11</title>
<g id="a_node11"><a xlink:href="../../d8/dd3/lbaselib_8c.html#aeb4cb83db820979bbdd7710109b52957" target="_top" xlink:title="luaB_loadfile">
<polygon fill="none" stroke="black" points="888,-0.5 888,-19.5 958,-19.5 958,-0.5 888,-0.5"/>
<text text-anchor="middle" x="923" y="-7.5" font-family="Helvetica,sans-Serif" font-size="10.00">luaB_loadfile</text>
</a>
</g>
</g>
<!-- Node10&#45;&gt;Node11 -->
<g id="edge12" class="edge"><title>Node10&#45;&gt;Node11</title>
<path fill="none" stroke="midnightblue" d="M856.068,-10C866.726,-10 877.88,-10 887.919,-10"/>
<polygon fill="midnightblue" stroke="midnightblue" points="856.054,-6.5001 846.054,-10 856.054,-13.5001 856.054,-6.5001"/>
</g>
</g>
</svg>
