<?xml version="1.0" encoding="UTF-8" standalone="no"?>
<!DOCTYPE svg PUBLIC "-//W3C//DTD SVG 1.1//EN"
 "http://www.w3.org/Graphics/SVG/1.1/DTD/svg11.dtd">
<!-- Generated by graphviz version 2.38.0 (20140413.2041)
 -->
<!-- Title: LoadConstants Pages: 1 -->
<svg width="859pt" height="85pt"
 viewBox="0.00 0.00 859.00 85.00" xmlns="http://www.w3.org/2000/svg" xmlns:xlink="http://www.w3.org/1999/xlink">
<g id="graph0" class="graph" transform="scale(1 1) rotate(0) translate(4 81)">
<title>LoadConstants</title>
<!-- Node1 -->
<g id="node1" class="node"><title>Node1</title>
<polygon fill="#bfbfbf" stroke="black" points="0,-38.5 0,-57.5 83,-57.5 83,-38.5 0,-38.5"/>
<text text-anchor="middle" x="41.5" y="-45.5" font-family="Helvetica,sans-Serif" font-size="10.00">LoadConstants</text>
</g>
<!-- Node2 -->
<g id="node2" class="node"><title>Node2</title>
<g id="a_node2"><a xlink:href="../../de/d2f/lundump_8c.html#a26c35541b59dce503747e776441691f2" target="_top" xlink:title="LoadFunction">
<polygon fill="none" stroke="black" points="119,-38.5 119,-57.5 192,-57.5 192,-38.5 119,-38.5"/>
<text text-anchor="middle" x="155.5" y="-45.5" font-family="Helvetica,sans-Serif" font-size="10.00">LoadFunction</text>
</a>
</g>
</g>
<!-- Node1&#45;&gt;Node2 -->
<g id="edge1" class="edge"><title>Node1&#45;&gt;Node2</title>
<path fill="none" stroke="midnightblue" d="M93.5244,-41.2737C102.053,-41.1922 110.738,-41.3208 118.777,-41.6598"/>
<polygon fill="midnightblue" stroke="midnightblue" points="93.18,-37.7798 83.2514,-41.4775 93.3189,-44.7784 93.18,-37.7798"/>
</g>
<!-- Node2&#45;&gt;Node1 -->
<g id="edge2" class="edge"><title>Node2&#45;&gt;Node1</title>
<path fill="none" stroke="midnightblue" d="M108.705,-54.6494C100.273,-54.8173 91.5221,-54.775 83.2514,-54.5225"/>
<polygon fill="midnightblue" stroke="midnightblue" points="108.89,-58.1455 118.777,-54.3402 108.675,-51.1488 108.89,-58.1455"/>
</g>
<!-- Node3 -->
<g id="node3" class="node"><title>Node3</title>
<g id="a_node3"><a xlink:href="../../d3/dff/lundump_8h.html#a1d7dbb7046fdeb0977015f3bdfb414a2" target="_top" xlink:title="luaU_undump">
<polygon fill="none" stroke="black" points="228,-38.5 228,-57.5 304,-57.5 304,-38.5 228,-38.5"/>
<text text-anchor="middle" x="266" y="-45.5" font-family="Helvetica,sans-Serif" font-size="10.00">luaU_undump</text>
</a>
</g>
</g>
<!-- Node2&#45;&gt;Node3 -->
<g id="edge3" class="edge"><title>Node2&#45;&gt;Node3</title>
<path fill="none" stroke="midnightblue" d="M202.257,-48C210.81,-48 219.651,-48 227.902,-48"/>
<polygon fill="midnightblue" stroke="midnightblue" points="202.027,-44.5001 192.027,-48 202.027,-51.5001 202.027,-44.5001"/>
</g>
<!-- Node4 -->
<g id="node4" class="node"><title>Node4</title>
<g id="a_node4"><a xlink:href="../../d3/d08/ldo_8c.html#a14df0fa118ab124dfcc6d227bdd38ca5" target="_top" xlink:title="f_parser">
<polygon fill="none" stroke="black" points="340,-38.5 340,-57.5 391,-57.5 391,-38.5 340,-38.5"/>
<text text-anchor="middle" x="365.5" y="-45.5" font-family="Helvetica,sans-Serif" font-size="10.00">f_parser</text>
</a>
</g>
</g>
<!-- Node3&#45;&gt;Node4 -->
<g id="edge4" class="edge"><title>Node3&#45;&gt;Node4</title>
<path fill="none" stroke="midnightblue" d="M314.384,-48C323.194,-48 332.064,-48 339.841,-48"/>
<polygon fill="midnightblue" stroke="midnightblue" points="314.139,-44.5001 304.139,-48 314.139,-51.5001 314.139,-44.5001"/>
</g>
<!-- Node5 -->
<g id="node5" class="node"><title>Node5</title>
<g id="a_node5"><a xlink:href="../../d2/dd9/ldo_8h.html#a5dffa85d966f14d3f3464db580f5b3fa" target="_top" xlink:title="luaD_protectedparser">
<polygon fill="none" stroke="black" points="427,-38.5 427,-57.5 534,-57.5 534,-38.5 427,-38.5"/>
<text text-anchor="middle" x="480.5" y="-45.5" font-family="Helvetica,sans-Serif" font-size="10.00">luaD_protectedparser</text>
</a>
</g>
</g>
<!-- Node4&#45;&gt;Node5 -->
<g id="edge5" class="edge"><title>Node4&#45;&gt;Node5</title>
<path fill="none" stroke="midnightblue" d="M401.176,-48C409.263,-48 418.055,-48 426.73,-48"/>
<polygon fill="midnightblue" stroke="midnightblue" points="401.019,-44.5001 391.019,-48 401.019,-51.5001 401.019,-44.5001"/>
</g>
<!-- Node6 -->
<g id="node6" class="node"><title>Node6</title>
<g id="a_node6"><a xlink:href="../../da/dd2/lua_8h.html#a3f4c1ed5e0bd437dc527d62c5768b463" target="_top" xlink:title="lua_load">
<polygon fill="none" stroke="black" points="570,-38.5 570,-57.5 623,-57.5 623,-38.5 570,-38.5"/>
<text text-anchor="middle" x="596.5" y="-45.5" font-family="Helvetica,sans-Serif" font-size="10.00">lua_load</text>
</a>
</g>
</g>
<!-- Node5&#45;&gt;Node6 -->
<g id="edge6" class="edge"><title>Node5&#45;&gt;Node6</title>
<path fill="none" stroke="midnightblue" d="M544.321,-48C553.289,-48 562.062,-48 569.741,-48"/>
<polygon fill="midnightblue" stroke="midnightblue" points="544.162,-44.5001 534.162,-48 544.162,-51.5001 544.162,-44.5001"/>
</g>
<!-- Node7 -->
<g id="node7" class="node"><title>Node7</title>
<g id="a_node7"><a xlink:href="../../d8/dd3/lbaselib_8c.html#a4a9a3613fcf80fe033e044f7e19bed69" target="_top" xlink:title="luaB_load">
<polygon fill="none" stroke="black" points="786.5,-57.5 786.5,-76.5 845.5,-76.5 845.5,-57.5 786.5,-57.5"/>
<text text-anchor="middle" x="816" y="-64.5" font-family="Helvetica,sans-Serif" font-size="10.00">luaB_load</text>
</a>
</g>
</g>
<!-- Node6&#45;&gt;Node7 -->
<g id="edge7" class="edge"><title>Node6&#45;&gt;Node7</title>
<path fill="none" stroke="midnightblue" d="M632.272,-60.7225C640.89,-63.3226 650.184,-65.6693 659,-67 703.053,-73.6499 754.904,-71.7536 786.342,-69.5486"/>
<polygon fill="midnightblue" stroke="midnightblue" points="633.126,-57.3209 622.535,-57.5995 630.988,-63.9865 633.126,-57.3209"/>
</g>
<!-- Node8 -->
<g id="node8" class="node"><title>Node8</title>
<g id="a_node8"><a xlink:href="../../da/d29/lauxlib_8h.html#a3ab1955dd9322cf03e2d3626ebfae669" target="_top" xlink:title="luaL_loadbufferx">
<polygon fill="none" stroke="black" points="659,-38.5 659,-57.5 745,-57.5 745,-38.5 659,-38.5"/>
<text text-anchor="middle" x="702" y="-45.5" font-family="Helvetica,sans-Serif" font-size="10.00">luaL_loadbufferx</text>
</a>
</g>
</g>
<!-- Node6&#45;&gt;Node8 -->
<g id="edge8" class="edge"><title>Node6&#45;&gt;Node8</title>
<path fill="none" stroke="midnightblue" d="M633.151,-48C641.413,-48 650.283,-48 658.795,-48"/>
<polygon fill="midnightblue" stroke="midnightblue" points="633.084,-44.5001 623.084,-48 633.084,-51.5001 633.084,-44.5001"/>
</g>
<!-- Node9 -->
<g id="node9" class="node"><title>Node9</title>
<g id="a_node9"><a xlink:href="../../da/d29/lauxlib_8h.html#a8c38c6dcf9db7e110e525b46742bacf8" target="_top" xlink:title="luaL_loadfilex">
<polygon fill="none" stroke="black" points="665,-0.5 665,-19.5 739,-19.5 739,-0.5 665,-0.5"/>
<text text-anchor="middle" x="702" y="-7.5" font-family="Helvetica,sans-Serif" font-size="10.00">luaL_loadfilex</text>
</a>
</g>
</g>
<!-- Node6&#45;&gt;Node9 -->
<g id="edge10" class="edge"><title>Node6&#45;&gt;Node9</title>
<path fill="none" stroke="midnightblue" d="M632.785,-35.0453C646.621,-29.9651 662.211,-24.2413 674.991,-19.5491"/>
<polygon fill="midnightblue" stroke="midnightblue" points="631.265,-31.8746 623.084,-38.6067 633.678,-38.4457 631.265,-31.8746"/>
</g>
<!-- Node8&#45;&gt;Node7 -->
<g id="edge9" class="edge"><title>Node8&#45;&gt;Node7</title>
<path fill="none" stroke="midnightblue" d="M755.196,-56.8546C765.919,-58.6738 776.83,-60.5247 786.345,-62.1388"/>
<polygon fill="midnightblue" stroke="midnightblue" points="755.468,-53.3509 745.023,-55.129 754.297,-60.2523 755.468,-53.3509"/>
</g>
<!-- Node10 -->
<g id="node10" class="node"><title>Node10</title>
<g id="a_node10"><a xlink:href="../../d8/dd3/lbaselib_8c.html#aeb4cb83db820979bbdd7710109b52957" target="_top" xlink:title="luaB_loadfile">
<polygon fill="none" stroke="black" points="781,-0.5 781,-19.5 851,-19.5 851,-0.5 781,-0.5"/>
<text text-anchor="middle" x="816" y="-7.5" font-family="Helvetica,sans-Serif" font-size="10.00">luaB_loadfile</text>
</a>
</g>
</g>
<!-- Node9&#45;&gt;Node10 -->
<g id="edge11" class="edge"><title>Node9&#45;&gt;Node10</title>
<path fill="none" stroke="midnightblue" d="M749.068,-10C759.726,-10 770.88,-10 780.919,-10"/>
<polygon fill="midnightblue" stroke="midnightblue" points="749.054,-6.5001 739.054,-10 749.054,-13.5001 749.054,-6.5001"/>
</g>
</g>
</svg>
