<?xml version="1.0" encoding="UTF-8" standalone="no"?>
<!DOCTYPE svg PUBLIC "-//W3C//DTD SVG 1.1//EN"
 "http://www.w3.org/Graphics/SVG/1.1/DTD/svg11.dtd">
<!-- Generated by graphviz version 2.38.0 (20140413.2041)
 -->
<!-- Title: LoadString Pages: 1 -->
<svg width="957pt" height="85pt"
 viewBox="0.00 0.00 957.00 85.00" xmlns="http://www.w3.org/2000/svg" xmlns:xlink="http://www.w3.org/1999/xlink">
<g id="graph0" class="graph" transform="scale(1 1) rotate(0) translate(4 81)">
<title>LoadString</title>
<!-- Node1 -->
<g id="node1" class="node"><title>Node1</title>
<polygon fill="#bfbfbf" stroke="black" points="0,-19.5 0,-38.5 62,-38.5 62,-19.5 0,-19.5"/>
<text text-anchor="middle" x="31" y="-26.5" font-family="Helvetica,sans-Serif" font-size="10.00">LoadString</text>
</g>
<!-- Node2 -->
<g id="node2" class="node"><title>Node2</title>
<g id="a_node2"><a xlink:href="../../de/d2f/lundump_8c.html#a1854dcefef99e90599873a480c49da5f" target="_top" xlink:title="LoadConstants">
<polygon fill="none" stroke="black" points="98,-38.5 98,-57.5 181,-57.5 181,-38.5 98,-38.5"/>
<text text-anchor="middle" x="139.5" y="-45.5" font-family="Helvetica,sans-Serif" font-size="10.00">LoadConstants</text>
</a>
</g>
</g>
<!-- Node1&#45;&gt;Node2 -->
<g id="edge1" class="edge"><title>Node1&#45;&gt;Node2</title>
<path fill="none" stroke="midnightblue" d="M72.1839,-36.169C80.5789,-37.6667 89.4357,-39.2467 97.8476,-40.7475"/>
<polygon fill="midnightblue" stroke="midnightblue" points="72.6931,-32.7046 62.2338,-34.3938 71.4636,-39.5958 72.6931,-32.7046"/>
</g>
<!-- Node12 -->
<g id="node12" class="node"><title>Node12</title>
<g id="a_node12"><a xlink:href="../../de/d2f/lundump_8c.html#a89f9807f8a7395e26b0bce7b7f208d20" target="_top" xlink:title="LoadDebug">
<polygon fill="none" stroke="black" points="105.5,-0.5 105.5,-19.5 173.5,-19.5 173.5,-0.5 105.5,-0.5"/>
<text text-anchor="middle" x="139.5" y="-7.5" font-family="Helvetica,sans-Serif" font-size="10.00">LoadDebug</text>
</a>
</g>
</g>
<!-- Node1&#45;&gt;Node12 -->
<g id="edge13" class="edge"><title>Node1&#45;&gt;Node12</title>
<path fill="none" stroke="midnightblue" d="M72.3346,-21.8042C83.1794,-19.8694 94.7847,-17.799 105.2,-15.9409"/>
<polygon fill="midnightblue" stroke="midnightblue" points="71.4636,-18.4042 62.2338,-23.6062 72.6931,-25.2954 71.4636,-18.4042"/>
</g>
<!-- Node3 -->
<g id="node3" class="node"><title>Node3</title>
<g id="a_node3"><a xlink:href="../../de/d2f/lundump_8c.html#a26c35541b59dce503747e776441691f2" target="_top" xlink:title="LoadFunction">
<polygon fill="none" stroke="black" points="217,-38.5 217,-57.5 290,-57.5 290,-38.5 217,-38.5"/>
<text text-anchor="middle" x="253.5" y="-45.5" font-family="Helvetica,sans-Serif" font-size="10.00">LoadFunction</text>
</a>
</g>
</g>
<!-- Node2&#45;&gt;Node3 -->
<g id="edge2" class="edge"><title>Node2&#45;&gt;Node3</title>
<path fill="none" stroke="midnightblue" d="M191.524,-41.2737C200.053,-41.1922 208.738,-41.3208 216.777,-41.6598"/>
<polygon fill="midnightblue" stroke="midnightblue" points="191.18,-37.7798 181.251,-41.4775 191.319,-44.7784 191.18,-37.7798"/>
</g>
<!-- Node3&#45;&gt;Node2 -->
<g id="edge3" class="edge"><title>Node3&#45;&gt;Node2</title>
<path fill="none" stroke="midnightblue" d="M206.705,-54.6494C198.273,-54.8173 189.522,-54.775 181.251,-54.5225"/>
<polygon fill="midnightblue" stroke="midnightblue" points="206.89,-58.1455 216.777,-54.3402 206.675,-51.1488 206.89,-58.1455"/>
</g>
<!-- Node4 -->
<g id="node4" class="node"><title>Node4</title>
<g id="a_node4"><a xlink:href="../../d3/dff/lundump_8h.html#a1d7dbb7046fdeb0977015f3bdfb414a2" target="_top" xlink:title="luaU_undump">
<polygon fill="none" stroke="black" points="326,-38.5 326,-57.5 402,-57.5 402,-38.5 326,-38.5"/>
<text text-anchor="middle" x="364" y="-45.5" font-family="Helvetica,sans-Serif" font-size="10.00">luaU_undump</text>
</a>
</g>
</g>
<!-- Node3&#45;&gt;Node4 -->
<g id="edge4" class="edge"><title>Node3&#45;&gt;Node4</title>
<path fill="none" stroke="midnightblue" d="M300.257,-48C308.81,-48 317.651,-48 325.902,-48"/>
<polygon fill="midnightblue" stroke="midnightblue" points="300.027,-44.5001 290.027,-48 300.027,-51.5001 300.027,-44.5001"/>
</g>
<!-- Node5 -->
<g id="node5" class="node"><title>Node5</title>
<g id="a_node5"><a xlink:href="../../d3/d08/ldo_8c.html#a14df0fa118ab124dfcc6d227bdd38ca5" target="_top" xlink:title="f_parser">
<polygon fill="none" stroke="black" points="438,-38.5 438,-57.5 489,-57.5 489,-38.5 438,-38.5"/>
<text text-anchor="middle" x="463.5" y="-45.5" font-family="Helvetica,sans-Serif" font-size="10.00">f_parser</text>
</a>
</g>
</g>
<!-- Node4&#45;&gt;Node5 -->
<g id="edge5" class="edge"><title>Node4&#45;&gt;Node5</title>
<path fill="none" stroke="midnightblue" d="M412.384,-48C421.194,-48 430.064,-48 437.841,-48"/>
<polygon fill="midnightblue" stroke="midnightblue" points="412.139,-44.5001 402.139,-48 412.139,-51.5001 412.139,-44.5001"/>
</g>
<!-- Node6 -->
<g id="node6" class="node"><title>Node6</title>
<g id="a_node6"><a xlink:href="../../d2/dd9/ldo_8h.html#a5dffa85d966f14d3f3464db580f5b3fa" target="_top" xlink:title="luaD_protectedparser">
<polygon fill="none" stroke="black" points="525,-38.5 525,-57.5 632,-57.5 632,-38.5 525,-38.5"/>
<text text-anchor="middle" x="578.5" y="-45.5" font-family="Helvetica,sans-Serif" font-size="10.00">luaD_protectedparser</text>
</a>
</g>
</g>
<!-- Node5&#45;&gt;Node6 -->
<g id="edge6" class="edge"><title>Node5&#45;&gt;Node6</title>
<path fill="none" stroke="midnightblue" d="M499.176,-48C507.263,-48 516.055,-48 524.73,-48"/>
<polygon fill="midnightblue" stroke="midnightblue" points="499.019,-44.5001 489.019,-48 499.019,-51.5001 499.019,-44.5001"/>
</g>
<!-- Node7 -->
<g id="node7" class="node"><title>Node7</title>
<g id="a_node7"><a xlink:href="../../da/dd2/lua_8h.html#a3f4c1ed5e0bd437dc527d62c5768b463" target="_top" xlink:title="lua_load">
<polygon fill="none" stroke="black" points="668,-38.5 668,-57.5 721,-57.5 721,-38.5 668,-38.5"/>
<text text-anchor="middle" x="694.5" y="-45.5" font-family="Helvetica,sans-Serif" font-size="10.00">lua_load</text>
</a>
</g>
</g>
<!-- Node6&#45;&gt;Node7 -->
<g id="edge7" class="edge"><title>Node6&#45;&gt;Node7</title>
<path fill="none" stroke="midnightblue" d="M642.321,-48C651.289,-48 660.062,-48 667.741,-48"/>
<polygon fill="midnightblue" stroke="midnightblue" points="642.162,-44.5001 632.162,-48 642.162,-51.5001 642.162,-44.5001"/>
</g>
<!-- Node8 -->
<g id="node8" class="node"><title>Node8</title>
<g id="a_node8"><a xlink:href="../../d8/dd3/lbaselib_8c.html#a4a9a3613fcf80fe033e044f7e19bed69" target="_top" xlink:title="luaB_load">
<polygon fill="none" stroke="black" points="884.5,-57.5 884.5,-76.5 943.5,-76.5 943.5,-57.5 884.5,-57.5"/>
<text text-anchor="middle" x="914" y="-64.5" font-family="Helvetica,sans-Serif" font-size="10.00">luaB_load</text>
</a>
</g>
</g>
<!-- Node7&#45;&gt;Node8 -->
<g id="edge8" class="edge"><title>Node7&#45;&gt;Node8</title>
<path fill="none" stroke="midnightblue" d="M730.272,-60.7225C738.89,-63.3226 748.184,-65.6693 757,-67 801.053,-73.6499 852.904,-71.7536 884.342,-69.5486"/>
<polygon fill="midnightblue" stroke="midnightblue" points="731.126,-57.3209 720.535,-57.5995 728.988,-63.9865 731.126,-57.3209"/>
</g>
<!-- Node9 -->
<g id="node9" class="node"><title>Node9</title>
<g id="a_node9"><a xlink:href="../../da/d29/lauxlib_8h.html#a3ab1955dd9322cf03e2d3626ebfae669" target="_top" xlink:title="luaL_loadbufferx">
<polygon fill="none" stroke="black" points="757,-38.5 757,-57.5 843,-57.5 843,-38.5 757,-38.5"/>
<text text-anchor="middle" x="800" y="-45.5" font-family="Helvetica,sans-Serif" font-size="10.00">luaL_loadbufferx</text>
</a>
</g>
</g>
<!-- Node7&#45;&gt;Node9 -->
<g id="edge9" class="edge"><title>Node7&#45;&gt;Node9</title>
<path fill="none" stroke="midnightblue" d="M731.151,-48C739.413,-48 748.283,-48 756.795,-48"/>
<polygon fill="midnightblue" stroke="midnightblue" points="731.084,-44.5001 721.084,-48 731.084,-51.5001 731.084,-44.5001"/>
</g>
<!-- Node10 -->
<g id="node10" class="node"><title>Node10</title>
<g id="a_node10"><a xlink:href="../../da/d29/lauxlib_8h.html#a8c38c6dcf9db7e110e525b46742bacf8" target="_top" xlink:title="luaL_loadfilex">
<polygon fill="none" stroke="black" points="763,-0.5 763,-19.5 837,-19.5 837,-0.5 763,-0.5"/>
<text text-anchor="middle" x="800" y="-7.5" font-family="Helvetica,sans-Serif" font-size="10.00">luaL_loadfilex</text>
</a>
</g>
</g>
<!-- Node7&#45;&gt;Node10 -->
<g id="edge11" class="edge"><title>Node7&#45;&gt;Node10</title>
<path fill="none" stroke="midnightblue" d="M730.785,-35.0453C744.621,-29.9651 760.211,-24.2413 772.991,-19.5491"/>
<polygon fill="midnightblue" stroke="midnightblue" points="729.265,-31.8746 721.084,-38.6067 731.678,-38.4457 729.265,-31.8746"/>
</g>
<!-- Node9&#45;&gt;Node8 -->
<g id="edge10" class="edge"><title>Node9&#45;&gt;Node8</title>
<path fill="none" stroke="midnightblue" d="M853.196,-56.8546C863.919,-58.6738 874.83,-60.5247 884.345,-62.1388"/>
<polygon fill="midnightblue" stroke="midnightblue" points="853.468,-53.3509 843.023,-55.129 852.297,-60.2523 853.468,-53.3509"/>
</g>
<!-- Node11 -->
<g id="node11" class="node"><title>Node11</title>
<g id="a_node11"><a xlink:href="../../d8/dd3/lbaselib_8c.html#aeb4cb83db820979bbdd7710109b52957" target="_top" xlink:title="luaB_loadfile">
<polygon fill="none" stroke="black" points="879,-0.5 879,-19.5 949,-19.5 949,-0.5 879,-0.5"/>
<text text-anchor="middle" x="914" y="-7.5" font-family="Helvetica,sans-Serif" font-size="10.00">luaB_loadfile</text>
</a>
</g>
</g>
<!-- Node10&#45;&gt;Node11 -->
<g id="edge12" class="edge"><title>Node10&#45;&gt;Node11</title>
<path fill="none" stroke="midnightblue" d="M847.068,-10C857.726,-10 868.88,-10 878.919,-10"/>
<polygon fill="midnightblue" stroke="midnightblue" points="847.054,-6.5001 837.054,-10 847.054,-13.5001 847.054,-6.5001"/>
</g>
<!-- Node12&#45;&gt;Node3 -->
<g id="edge14" class="edge"><title>Node12&#45;&gt;Node3</title>
<path fill="none" stroke="midnightblue" d="M178.303,-22.8259C193.331,-27.9247 210.32,-33.6891 224.247,-38.4141"/>
<polygon fill="midnightblue" stroke="midnightblue" points="179.357,-19.4876 168.762,-19.589 177.108,-26.1165 179.357,-19.4876"/>
</g>
</g>
</svg>
