<?xml version="1.0" encoding="UTF-8" standalone="no"?>
<!DOCTYPE svg PUBLIC "-//W3C//DTD SVG 1.1//EN"
 "http://www.w3.org/Graphics/SVG/1.1/DTD/svg11.dtd">
<!-- Generated by graphviz version 2.34.0 (20131008.0448)
 -->
<!-- Title: Computed Pages: 1 -->
<svg width="298pt" height="846pt"
 viewBox="0.00 0.00 298.00 846.00" xmlns="http://www.w3.org/2000/svg" xmlns:xlink="http://www.w3.org/1999/xlink">
<g id="graph0" class="graph" transform="scale(1 1) rotate(0) translate(4 842)">
<title>Computed</title>
<!-- Node1 -->
<g id="node1" class="node"><title>Node1</title>
<polygon fill="#bfbfbf" stroke="black" points="90.1825,-1 90.1825,-109 229.817,-109 229.817,-1 90.1825,-1"/>
<text text-anchor="middle" x="160" y="-96" font-family="Helvetica,sans-Serif" font-size="10.00">Computed</text>
<polyline fill="none" stroke="black" points="90.1825,-89 229.817,-89 "/>
<text text-anchor="start" x="98.1825" y="-76" font-family="Helvetica,sans-Serif" font-size="10.00"># _calculatorMethod</text>
<polyline fill="none" stroke="black" points="90.1825,-69 229.817,-69 "/>
<text text-anchor="start" x="98.1825" y="-56" font-family="Helvetica,sans-Serif" font-size="10.00">+ initWithKensho:calculator:</text>
<text text-anchor="start" x="98.1825" y="-44" font-family="Helvetica,sans-Serif" font-size="10.00">+ startTracking</text>
<text text-anchor="start" x="98.1825" y="-32" font-family="Helvetica,sans-Serif" font-size="10.00">+ endTracking</text>
<text text-anchor="start" x="98.1825" y="-20" font-family="Helvetica,sans-Serif" font-size="10.00">+ updateCalculatedValue</text>
<text text-anchor="start" x="98.1825" y="-8" font-family="Helvetica,sans-Serif" font-size="10.00">+ observableUpdated:</text>
</g>
<!-- Node2 -->
<g id="node2" class="node"><title>Node2</title>
<g id="a_node2"><a xlink:href="../../d2/d8f/interface_observable.html" target="_top" xlink:title="Our base, concrete observable class. ">
<polygon fill="none" stroke="black" points="21.1245,-147 21.1245,-411 156.875,-411 156.875,-147 21.1245,-147"/>
<text text-anchor="middle" x="89" y="-398" font-family="Helvetica,sans-Serif" font-size="10.00">Observable</text>
<polyline fill="none" stroke="black" points="21.1245,-391 156.875,-391 "/>
<text text-anchor="start" x="29.1245" y="-378" font-family="Helvetica,sans-Serif" font-size="10.00">+ ken</text>
<text text-anchor="start" x="29.1245" y="-366" font-family="Helvetica,sans-Serif" font-size="10.00">+ observers</text>
<text text-anchor="start" x="29.1245" y="-354" font-family="Helvetica,sans-Serif" font-size="10.00">+ value</text>
<text text-anchor="start" x="29.1245" y="-342" font-family="Helvetica,sans-Serif" font-size="10.00">+ stringValue</text>
<text text-anchor="start" x="29.1245" y="-330" font-family="Helvetica,sans-Serif" font-size="10.00">+ numberValue</text>
<text text-anchor="start" x="29.1245" y="-318" font-family="Helvetica,sans-Serif" font-size="10.00">+ objectValue</text>
<text text-anchor="start" x="29.1245" y="-306" font-family="Helvetica,sans-Serif" font-size="10.00">+ isNull</text>
<text text-anchor="start" x="29.1245" y="-294" font-family="Helvetica,sans-Serif" font-size="10.00">+ isNumber</text>
<text text-anchor="start" x="29.1245" y="-282" font-family="Helvetica,sans-Serif" font-size="10.00">+ isString</text>
<text text-anchor="start" x="29.1245" y="-270" font-family="Helvetica,sans-Serif" font-size="10.00">+ isObject</text>
<text text-anchor="start" x="29.1245" y="-258" font-family="Helvetica,sans-Serif" font-size="10.00">+ isList</text>
<text text-anchor="start" x="29.1245" y="-246" font-family="Helvetica,sans-Serif" font-size="10.00">+ isMap</text>
<text text-anchor="start" x="29.1245" y="-234" font-family="Helvetica,sans-Serif" font-size="10.00">+ isCollection</text>
<polyline fill="none" stroke="black" points="21.1245,-227 156.875,-227 "/>
<text text-anchor="start" x="29.1245" y="-214" font-family="Helvetica,sans-Serif" font-size="10.00">+ initWithKensho:</text>
<text text-anchor="start" x="29.1245" y="-202" font-family="Helvetica,sans-Serif" font-size="10.00">+ initWithKensho:value:</text>
<text text-anchor="start" x="29.1245" y="-190" font-family="Helvetica,sans-Serif" font-size="10.00">+ triggerChangeEvent</text>
<text text-anchor="start" x="29.1245" y="-178" font-family="Helvetica,sans-Serif" font-size="10.00">+ addKenshoObserver:</text>
<text text-anchor="start" x="29.1245" y="-166" font-family="Helvetica,sans-Serif" font-size="10.00">+ removeKenshoObserver:</text>
<text text-anchor="start" x="29.1245" y="-154" font-family="Helvetica,sans-Serif" font-size="10.00">+ setValue:</text>
</a>
</g>
</g>
<!-- Node2&#45;&gt;Node1 -->
<g id="edge1" class="edge"><title>Node2&#45;&gt;Node1</title>
<path fill="none" stroke="midnightblue" d="M134.042,-137.164C137.136,-127.489 140.126,-118.141 142.908,-109.444"/>
<polygon fill="none" stroke="midnightblue" points="130.629,-136.346 130.917,-146.936 137.297,-138.478 130.629,-136.346"/>
</g>
<!-- Node3 -->
<g id="node3" class="node"><title>Node3</title>
<g id="a_node3"><a xlink:href="../../d7/dc4/class_n_s_object.html" target="_top" xlink:title="{NSObject\n||}">
<polygon fill="none" stroke="black" points="-0.3915,-449 -0.3915,-509 58.3915,-509 58.3915,-449 -0.3915,-449"/>
<text text-anchor="middle" x="29" y="-496" font-family="Helvetica,sans-Serif" font-size="10.00">NSObject</text>
<polyline fill="none" stroke="black" points="-0.3915,-489 58.3915,-489 "/>
<text text-anchor="middle" x="29" y="-476" font-family="Helvetica,sans-Serif" font-size="10.00"> </text>
<polyline fill="none" stroke="black" points="-0.3915,-469 58.3915,-469 "/>
<text text-anchor="middle" x="29" y="-456" font-family="Helvetica,sans-Serif" font-size="10.00"> </text>
</a>
</g>
</g>
<!-- Node3&#45;&gt;Node2 -->
<g id="edge2" class="edge"><title>Node3&#45;&gt;Node2</title>
<path fill="none" stroke="midnightblue" d="M40.7558,-439.206C43.3507,-430.643 46.2391,-421.111 49.2767,-411.087"/>
<polygon fill="none" stroke="midnightblue" points="37.4038,-438.199 37.8532,-448.784 44.1029,-440.229 37.4038,-438.199"/>
</g>
<!-- Node4 -->
<g id="node4" class="node"><title>Node4</title>
<g id="a_node4"><a xlink:href="../../d3/d54/protocol_i_writable_observable-p.html" target="_top" xlink:title="This extention to the IObservable protocol allows writing to an observable value. ...">
<polygon fill="none" stroke="black" points="76.8795,-449 76.8795,-509 195.12,-509 195.12,-449 76.8795,-449"/>
<text text-anchor="middle" x="136" y="-496" font-family="Helvetica,sans-Serif" font-size="10.00">&lt;IWritableObservable&gt;</text>
<polyline fill="none" stroke="black" points="76.8795,-489 195.12,-489 "/>
<text text-anchor="start" x="84.8795" y="-476" font-family="Helvetica,sans-Serif" font-size="10.00">+ value</text>
<polyline fill="none" stroke="black" points="76.8795,-469 195.12,-469 "/>
<text text-anchor="middle" x="136" y="-456" font-family="Helvetica,sans-Serif" font-size="10.00"> </text>
</a>
</g>
</g>
<!-- Node4&#45;&gt;Node2 -->
<g id="edge3" class="edge"><title>Node4&#45;&gt;Node2</title>
<path fill="none" stroke="midnightblue" d="M126.725,-438.926C124.709,-430.436 122.47,-421.002 120.117,-411.087"/>
<polygon fill="none" stroke="midnightblue" points="123.35,-439.863 129.065,-448.784 130.161,-438.246 123.35,-439.863"/>
</g>
<!-- Node5 -->
<g id="node5" class="node"><title>Node5</title>
<g id="a_node5"><a xlink:href="../../da/dd9/protocol_i_observable-p.html" target="_top" xlink:title="The IObservable protocol allows any object to be &#39;observed&#39; in the Kensho system. ...">
<polygon fill="none" stroke="black" points="68.1245,-547 68.1245,-739 203.875,-739 203.875,-547 68.1245,-547"/>
<text text-anchor="middle" x="136" y="-726" font-family="Helvetica,sans-Serif" font-size="10.00">&lt;IObservable&gt;</text>
<polyline fill="none" stroke="black" points="68.1245,-719 203.875,-719 "/>
<text text-anchor="start" x="76.1245" y="-706" font-family="Helvetica,sans-Serif" font-size="10.00">+ value</text>
<text text-anchor="start" x="76.1245" y="-694" font-family="Helvetica,sans-Serif" font-size="10.00">+ stringValue</text>
<text text-anchor="start" x="76.1245" y="-682" font-family="Helvetica,sans-Serif" font-size="10.00">+ numberValue</text>
<text text-anchor="start" x="76.1245" y="-670" font-family="Helvetica,sans-Serif" font-size="10.00">+ objectValue</text>
<text text-anchor="start" x="76.1245" y="-658" font-family="Helvetica,sans-Serif" font-size="10.00">+ isNull</text>
<text text-anchor="start" x="76.1245" y="-646" font-family="Helvetica,sans-Serif" font-size="10.00">+ isNumber</text>
<text text-anchor="start" x="76.1245" y="-634" font-family="Helvetica,sans-Serif" font-size="10.00">+ isString</text>
<text text-anchor="start" x="76.1245" y="-622" font-family="Helvetica,sans-Serif" font-size="10.00">+ isObject</text>
<text text-anchor="start" x="76.1245" y="-610" font-family="Helvetica,sans-Serif" font-size="10.00">+ isList</text>
<text text-anchor="start" x="76.1245" y="-598" font-family="Helvetica,sans-Serif" font-size="10.00">+ isMap</text>
<text text-anchor="start" x="76.1245" y="-586" font-family="Helvetica,sans-Serif" font-size="10.00">+ isCollection</text>
<polyline fill="none" stroke="black" points="68.1245,-579 203.875,-579 "/>
<text text-anchor="start" x="76.1245" y="-566" font-family="Helvetica,sans-Serif" font-size="10.00">+ addKenshoObserver:</text>
<text text-anchor="start" x="76.1245" y="-554" font-family="Helvetica,sans-Serif" font-size="10.00">+ removeKenshoObserver:</text>
</a>
</g>
</g>
<!-- Node5&#45;&gt;Node4 -->
<g id="edge4" class="edge"><title>Node5&#45;&gt;Node4</title>
<path fill="none" stroke="midnightblue" d="M136,-536.728C136,-526.784 136,-517.377 136,-509.188"/>
<polygon fill="none" stroke="midnightblue" points="132.5,-536.827 136,-546.827 139.5,-536.827 132.5,-536.827"/>
</g>
<!-- Node6 -->
<g id="node6" class="node"><title>Node6</title>
<g id="a_node6"><a xlink:href="../../d0/d10/class_n_s_object-p.html" target="_top" xlink:title="{\&lt;NSObject\&gt;\n||}">
<polygon fill="none" stroke="black" points="148.769,-777 148.769,-837 219.231,-837 219.231,-777 148.769,-777"/>
<text text-anchor="middle" x="184" y="-824" font-family="Helvetica,sans-Serif" font-size="10.00">&lt;NSObject&gt;</text>
<polyline fill="none" stroke="black" points="148.769,-817 219.231,-817 "/>
<text text-anchor="middle" x="184" y="-804" font-family="Helvetica,sans-Serif" font-size="10.00"> </text>
<polyline fill="none" stroke="black" points="148.769,-797 219.231,-797 "/>
<text text-anchor="middle" x="184" y="-784" font-family="Helvetica,sans-Serif" font-size="10.00"> </text>
</a>
</g>
</g>
<!-- Node6&#45;&gt;Node5 -->
<g id="edge5" class="edge"><title>Node6&#45;&gt;Node5</title>
<path fill="none" stroke="midnightblue" d="M172.456,-767.039C169.918,-758.472 167.122,-749.036 164.242,-739.317"/>
<polygon fill="none" stroke="midnightblue" points="169.111,-768.069 175.308,-776.663 175.822,-766.081 169.111,-768.069"/>
</g>
<!-- Node7 -->
<g id="node7" class="node"><title>Node7</title>
<g id="a_node7"><a xlink:href="../../d4/d36/protocol_i_observer-p.html" target="_top" xlink:title="{\&lt;IObserver\&gt;\n||+ observableUpdated:\l}">
<polygon fill="none" stroke="black" points="174.954,-249 174.954,-309 289.046,-309 289.046,-249 174.954,-249"/>
<text text-anchor="middle" x="232" y="-296" font-family="Helvetica,sans-Serif" font-size="10.00">&lt;IObserver&gt;</text>
<polyline fill="none" stroke="black" points="174.954,-289 289.046,-289 "/>
<text text-anchor="middle" x="232" y="-276" font-family="Helvetica,sans-Serif" font-size="10.00"> </text>
<polyline fill="none" stroke="black" points="174.954,-269 289.046,-269 "/>
<text text-anchor="start" x="182.954" y="-256" font-family="Helvetica,sans-Serif" font-size="10.00">+ observableUpdated:</text>
</a>
</g>
</g>
<!-- Node6&#45;&gt;Node7 -->
<g id="edge7" class="edge"><title>Node6&#45;&gt;Node7</title>
<path fill="none" stroke="midnightblue" d="M203.02,-767.555C206.63,-758.702 209.924,-749.183 212,-740 248.047,-580.554 239.266,-382.31 234.274,-309"/>
<polygon fill="none" stroke="midnightblue" points="199.756,-766.285 199.02,-776.855 206.186,-769.051 199.756,-766.285"/>
</g>
<!-- Node7&#45;&gt;Node1 -->
<g id="edge6" class="edge"><title>Node7&#45;&gt;Node1</title>
<path fill="none" stroke="midnightblue" d="M219.457,-239.327C207.782,-203.329 190.278,-149.356 177.282,-109.285"/>
<polygon fill="none" stroke="midnightblue" points="216.173,-240.545 222.587,-248.977 222.831,-238.385 216.173,-240.545"/>
</g>
</g>
</svg>
