<?xml version="1.0" encoding="UTF-8" standalone="no"?>
<!DOCTYPE svg PUBLIC "-//W3C//DTD SVG 1.1//EN"
 "http://www.w3.org/Graphics/SVG/1.1/DTD/svg11.dtd">
<!-- Generated by graphviz version 2.38.0 (20140413.2041)
 -->
<!-- Title: mainposition Pages: 1 -->
<svg width="770pt" height="997pt"
 viewBox="0.00 0.00 770.00 997.00" xmlns="http://www.w3.org/2000/svg" xmlns:xlink="http://www.w3.org/1999/xlink">
<g id="graph0" class="graph" transform="scale(1 1) rotate(0) translate(4 993)">
<title>mainposition</title>
<!-- Node1 -->
<g id="node1" class="node"><title>Node1</title>
<polygon fill="#bfbfbf" stroke="black" points="0,-437.5 0,-456.5 69,-456.5 69,-437.5 0,-437.5"/>
<text text-anchor="middle" x="34.5" y="-444.5" font-family="Helvetica,sans-Serif" font-size="10.00">mainposition</text>
</g>
<!-- Node2 -->
<g id="node2" class="node"><title>Node2</title>
<g id="a_node2"><a xlink:href="../../dc/d1e/ltable_8c.html#a4c78714b16a133fb409681f8ca4240be" target="_top" xlink:title="findindex">
<polygon fill="none" stroke="black" points="105.5,-646.5 105.5,-665.5 158.5,-665.5 158.5,-646.5 105.5,-646.5"/>
<text text-anchor="middle" x="132" y="-653.5" font-family="Helvetica,sans-Serif" font-size="10.00">findindex</text>
</a>
</g>
</g>
<!-- Node1&#45;&gt;Node2 -->
<g id="edge1" class="edge"><title>Node1&#45;&gt;Node2</title>
<path fill="none" stroke="midnightblue" d="M44.1316,-465.89C63.9003,-509.153 111.887,-614.171 126.623,-646.421"/>
<polygon fill="midnightblue" stroke="midnightblue" points="47.1911,-464.164 39.8516,-456.523 40.8243,-467.073 47.1911,-464.164"/>
</g>
<!-- Node8 -->
<g id="node8" class="node"><title>Node8</title>
<g id="a_node8"><a xlink:href="../../d3/d44/ltable_8h.html#ad2db74e05e39b56bde8e580759ac2144" target="_top" xlink:title="luaH_get">
<polygon fill="none" stroke="black" points="105,-437.5 105,-456.5 159,-456.5 159,-437.5 105,-437.5"/>
<text text-anchor="middle" x="132" y="-444.5" font-family="Helvetica,sans-Serif" font-size="10.00">luaH_get</text>
</a>
</g>
</g>
<!-- Node1&#45;&gt;Node8 -->
<g id="edge7" class="edge"><title>Node1&#45;&gt;Node8</title>
<path fill="none" stroke="midnightblue" d="M79.271,-447C88.0059,-447 96.9197,-447 104.832,-447"/>
<polygon fill="midnightblue" stroke="midnightblue" points="79.1698,-443.5 69.1697,-447 79.1697,-450.5 79.1698,-443.5"/>
</g>
<!-- Node39 -->
<g id="node39" class="node"><title>Node39</title>
<g id="a_node39"><a xlink:href="../../d3/d44/ltable_8h.html#a61547e63b2d74aa68da53a7fd235e77e" target="_top" xlink:title="luaH_newkey">
<polygon fill="none" stroke="black" points="313,-95.5 313,-114.5 388,-114.5 388,-95.5 313,-95.5"/>
<text text-anchor="middle" x="350.5" y="-102.5" font-family="Helvetica,sans-Serif" font-size="10.00">luaH_newkey</text>
</a>
</g>
</g>
<!-- Node1&#45;&gt;Node39 -->
<g id="edge63" class="edge"><title>Node1&#45;&gt;Node39</title>
<path fill="none" stroke="midnightblue" d="M48.6512,-429.373C85.8748,-380.082 196.392,-237.846 306,-137 314.969,-128.748 326.047,-120.625 334.778,-114.628"/>
<polygon fill="midnightblue" stroke="midnightblue" points="45.7804,-427.367 42.5704,-437.464 51.3763,-431.572 45.7804,-427.367"/>
</g>
<!-- Node3 -->
<g id="node3" class="node"><title>Node3</title>
<g id="a_node3"><a xlink:href="../../d3/d44/ltable_8h.html#a55be2c48e6e2c113dabda3819f5301e7" target="_top" xlink:title="luaH_next">
<polygon fill="none" stroke="black" points="203,-893.5 203,-912.5 262,-912.5 262,-893.5 203,-893.5"/>
<text text-anchor="middle" x="232.5" y="-900.5" font-family="Helvetica,sans-Serif" font-size="10.00">luaH_next</text>
</a>
</g>
</g>
<!-- Node2&#45;&gt;Node3 -->
<g id="edge2" class="edge"><title>Node2&#45;&gt;Node3</title>
<path fill="none" stroke="midnightblue" d="M137.679,-675.777C146.402,-711.026 166.846,-786.583 195,-846 203.353,-863.628 216.22,-882.361 224.235,-893.355"/>
<polygon fill="midnightblue" stroke="midnightblue" points="141.023,-674.714 135.264,-665.821 134.22,-676.364 141.023,-674.714"/>
</g>
<!-- Node4 -->
<g id="node4" class="node"><title>Node4</title>
<g id="a_node4"><a xlink:href="../../da/dd2/lua_8h.html#a2a62b957ab95d9b542bf7d02794181e6" target="_top" xlink:title="lua_next">
<polygon fill="none" stroke="black" points="324,-931.5 324,-950.5 377,-950.5 377,-931.5 324,-931.5"/>
<text text-anchor="middle" x="350.5" y="-938.5" font-family="Helvetica,sans-Serif" font-size="10.00">lua_next</text>
</a>
</g>
</g>
<!-- Node3&#45;&gt;Node4 -->
<g id="edge3" class="edge"><title>Node3&#45;&gt;Node4</title>
<path fill="none" stroke="midnightblue" d="M271.89,-915.576C288.986,-921.176 308.659,-927.621 323.92,-932.62"/>
<polygon fill="midnightblue" stroke="midnightblue" points="272.767,-912.18 262.174,-912.393 270.588,-918.832 272.767,-912.18"/>
</g>
<!-- Node5 -->
<g id="node5" class="node"><title>Node5</title>
<g id="a_node5"><a xlink:href="../../d1/dc2/_kensho_lua_wrapper_8m.html#a659a5a25271d0c7e4f5478f828a93b41" target="_top" xlink:title="popValue">
<polygon fill="none" stroke="red" points="450.5,-893.5 450.5,-912.5 509.5,-912.5 509.5,-893.5 450.5,-893.5"/>
<text text-anchor="middle" x="480" y="-900.5" font-family="Helvetica,sans-Serif" font-size="10.00">popValue</text>
</a>
</g>
</g>
<!-- Node4&#45;&gt;Node5 -->
<g id="edge4" class="edge"><title>Node4&#45;&gt;Node5</title>
<path fill="none" stroke="midnightblue" d="M386.948,-930.435C406.859,-924.501 431.392,-917.189 450.123,-911.606"/>
<polygon fill="midnightblue" stroke="midnightblue" points="385.885,-927.1 377.302,-933.31 387.885,-933.808 385.885,-927.1"/>
</g>
<!-- Node6 -->
<g id="node6" class="node"><title>Node6</title>
<g id="a_node6"><a xlink:href="../../d0/d56/lauxlib_8c.html#a36c8f149b779f8c9a5c042ea9784d80a" target="_top" xlink:title="findfield">
<polygon fill="none" stroke="red" points="456.5,-969.5 456.5,-988.5 503.5,-988.5 503.5,-969.5 456.5,-969.5"/>
<text text-anchor="middle" x="480" y="-976.5" font-family="Helvetica,sans-Serif" font-size="10.00">findfield</text>
</a>
</g>
</g>
<!-- Node4&#45;&gt;Node6 -->
<g id="edge5" class="edge"><title>Node4&#45;&gt;Node6</title>
<path fill="none" stroke="midnightblue" d="M387.025,-951.588C409.171,-958.188 437.011,-966.486 456.229,-972.213"/>
<polygon fill="midnightblue" stroke="midnightblue" points="387.885,-948.192 377.302,-948.69 385.885,-954.9 387.885,-948.192"/>
</g>
<!-- Node7 -->
<g id="node7" class="node"><title>Node7</title>
<g id="a_node7"><a xlink:href="../../d8/dd3/lbaselib_8c.html#ac0b11ecf3ced275821aaf5a03ed33b02" target="_top" xlink:title="luaB_next">
<polygon fill="none" stroke="red" points="450.5,-931.5 450.5,-950.5 509.5,-950.5 509.5,-931.5 450.5,-931.5"/>
<text text-anchor="middle" x="480" y="-938.5" font-family="Helvetica,sans-Serif" font-size="10.00">luaB_next</text>
</a>
</g>
</g>
<!-- Node4&#45;&gt;Node7 -->
<g id="edge6" class="edge"><title>Node4&#45;&gt;Node7</title>
<path fill="none" stroke="midnightblue" d="M387.494,-941C407.306,-941 431.563,-941 450.123,-941"/>
<polygon fill="midnightblue" stroke="midnightblue" points="387.302,-937.5 377.302,-941 387.301,-944.5 387.302,-937.5"/>
</g>
<!-- Node9 -->
<g id="node9" class="node"><title>Node9</title>
<g id="a_node9"><a xlink:href="../../da/dd2/lua_8h.html#af5ed4eb4ccc6e6f7921fdaee8485cb3f" target="_top" xlink:title="lua_rawget">
<polygon fill="none" stroke="black" points="200.5,-665.5 200.5,-684.5 264.5,-684.5 264.5,-665.5 200.5,-665.5"/>
<text text-anchor="middle" x="232.5" y="-672.5" font-family="Helvetica,sans-Serif" font-size="10.00">lua_rawget</text>
</a>
</g>
</g>
<!-- Node8&#45;&gt;Node9 -->
<g id="edge8" class="edge"><title>Node8&#45;&gt;Node9</title>
<path fill="none" stroke="midnightblue" d="M141.083,-465.709C161.103,-512.051 212.453,-630.911 227.375,-665.453"/>
<polygon fill="midnightblue" stroke="midnightblue" points="144.286,-464.298 137.107,-456.507 137.86,-467.075 144.286,-464.298"/>
</g>
<!-- Node19 -->
<g id="node19" class="node"><title>Node19</title>
<g id="a_node19"><a xlink:href="../../da/dd2/lua_8h.html#ad01c4f11b8edd4b4d98ac75eec88299f" target="_top" xlink:title="lua_rawgetp">
<polygon fill="none" stroke="black" points="197.5,-399.5 197.5,-418.5 267.5,-418.5 267.5,-399.5 197.5,-399.5"/>
<text text-anchor="middle" x="232.5" y="-406.5" font-family="Helvetica,sans-Serif" font-size="10.00">lua_rawgetp</text>
</a>
</g>
</g>
<!-- Node8&#45;&gt;Node19 -->
<g id="edge19" class="edge"><title>Node8&#45;&gt;Node19</title>
<path fill="none" stroke="midnightblue" d="M167.383,-433.735C180.314,-428.747 194.755,-423.176 206.652,-418.586"/>
<polygon fill="midnightblue" stroke="midnightblue" points="165.926,-430.546 157.856,-437.411 168.445,-437.077 165.926,-430.546"/>
</g>
<!-- Node20 -->
<g id="node20" class="node"><title>Node20</title>
<g id="a_node20"><a xlink:href="../../d3/d44/ltable_8h.html#aad12092dcea6ae55728aadeeb0210d91" target="_top" xlink:title="luaH_set">
<polygon fill="none" stroke="black" points="205.5,-285.5 205.5,-304.5 259.5,-304.5 259.5,-285.5 205.5,-285.5"/>
<text text-anchor="middle" x="232.5" y="-292.5" font-family="Helvetica,sans-Serif" font-size="10.00">luaH_set</text>
</a>
</g>
</g>
<!-- Node8&#45;&gt;Node20 -->
<g id="edge20" class="edge"><title>Node8&#45;&gt;Node20</title>
<path fill="none" stroke="midnightblue" d="M144.683,-428.971C165.712,-396.52 209.243,-329.345 225.341,-304.505"/>
<polygon fill="midnightblue" stroke="midnightblue" points="141.663,-427.196 139.162,-437.492 147.537,-431.003 141.663,-427.196"/>
</g>
<!-- Node43 -->
<g id="node43" class="node"><title>Node43</title>
<g id="a_node43"><a xlink:href="../../d5/dcd/lvm_8h.html#a5885d48fd66eb236f8b8f6e4938cbcce" target="_top" xlink:title="luaV_settable">
<polygon fill="none" stroke="black" points="442.5,-361.5 442.5,-380.5 517.5,-380.5 517.5,-361.5 442.5,-361.5"/>
<text text-anchor="middle" x="480" y="-368.5" font-family="Helvetica,sans-Serif" font-size="10.00">luaV_settable</text>
</a>
</g>
</g>
<!-- Node8&#45;&gt;Node43 -->
<g id="edge62" class="edge"><title>Node8&#45;&gt;Node43</title>
<path fill="none" stroke="midnightblue" d="M169.636,-445.689C221.145,-442.956 317.361,-434.577 395,-409 412.183,-403.339 414.565,-397.563 431,-390 438.165,-386.703 446.076,-383.428 453.373,-380.549"/>
<polygon fill="midnightblue" stroke="midnightblue" points="169.163,-442.208 159.346,-446.19 169.504,-449.199 169.163,-442.208"/>
</g>
<!-- Node47 -->
<g id="node47" class="node"><title>Node47</title>
<g id="a_node47"><a xlink:href="../../d5/dcd/lvm_8h.html#adacdbccc9d8fab937a1b0dc058c8da12" target="_top" xlink:title="luaV_gettable">
<polygon fill="none" stroke="black" points="195,-817.5 195,-836.5 270,-836.5 270,-817.5 195,-817.5"/>
<text text-anchor="middle" x="232.5" y="-824.5" font-family="Helvetica,sans-Serif" font-size="10.00">luaV_gettable</text>
</a>
</g>
</g>
<!-- Node8&#45;&gt;Node47 -->
<g id="edge56" class="edge"><title>Node8&#45;&gt;Node47</title>
<path fill="none" stroke="midnightblue" d="M137.779,-466.656C147.993,-508.531 172.83,-609.605 195,-694 207.167,-740.317 222.601,-795.44 228.771,-817.341"/>
<polygon fill="midnightblue" stroke="midnightblue" points="141.17,-465.79 135.403,-456.903 134.369,-467.447 141.17,-465.79"/>
</g>
<!-- Node10 -->
<g id="node10" class="node"><title>Node10</title>
<g id="a_node10"><a xlink:href="../../da/d29/lauxlib_8h.html#aed3f129411ba1ec14f813d650f16384d" target="_top" xlink:title="luaL_getmetafield">
<polygon fill="none" stroke="black" points="306,-627.5 306,-646.5 395,-646.5 395,-627.5 306,-627.5"/>
<text text-anchor="middle" x="350.5" y="-634.5" font-family="Helvetica,sans-Serif" font-size="10.00">luaL_getmetafield</text>
</a>
</g>
</g>
<!-- Node9&#45;&gt;Node10 -->
<g id="edge9" class="edge"><title>Node9&#45;&gt;Node10</title>
<path fill="none" stroke="midnightblue" d="M272.653,-662.174C288.218,-657.075 305.814,-651.311 320.238,-646.586"/>
<polygon fill="midnightblue" stroke="midnightblue" points="271.185,-658.972 262.772,-665.411 273.364,-665.624 271.185,-658.972"/>
</g>
<!-- Node15 -->
<g id="node15" class="node"><title>Node15</title>
<g id="a_node15"><a xlink:href="../../d8/dd3/lbaselib_8c.html#a248a6847a33f31c69a43a76b6b8bcb4b" target="_top" xlink:title="luaB_rawget">
<polygon fill="none" stroke="black" points="315,-703.5 315,-722.5 386,-722.5 386,-703.5 315,-703.5"/>
<text text-anchor="middle" x="350.5" y="-710.5" font-family="Helvetica,sans-Serif" font-size="10.00">luaB_rawget</text>
</a>
</g>
</g>
<!-- Node9&#45;&gt;Node15 -->
<g id="edge14" class="edge"><title>Node9&#45;&gt;Node15</title>
<path fill="none" stroke="midnightblue" d="M272.653,-687.826C288.218,-692.925 305.814,-698.689 320.238,-703.414"/>
<polygon fill="midnightblue" stroke="midnightblue" points="273.364,-684.376 262.772,-684.589 271.185,-691.028 273.364,-684.376"/>
</g>
<!-- Node16 -->
<g id="node16" class="node"><title>Node16</title>
<g id="a_node16"><a xlink:href="../../d8/d97/ldblib_8c.html#a5caaa985f31fc5cbd014f831833205e7" target="_top" xlink:title="hookf">
<polygon fill="none" stroke="black" points="331,-665.5 331,-684.5 370,-684.5 370,-665.5 331,-665.5"/>
<text text-anchor="middle" x="350.5" y="-672.5" font-family="Helvetica,sans-Serif" font-size="10.00">hookf</text>
</a>
</g>
</g>
<!-- Node9&#45;&gt;Node16 -->
<g id="edge15" class="edge"><title>Node9&#45;&gt;Node16</title>
<path fill="none" stroke="midnightblue" d="M274.586,-675C293.719,-675 315.542,-675 330.679,-675"/>
<polygon fill="midnightblue" stroke="midnightblue" points="274.586,-671.5 264.586,-675 274.586,-678.5 274.586,-671.5"/>
</g>
<!-- Node17 -->
<g id="node17" class="node"><title>Node17</title>
<g id="a_node17"><a xlink:href="../../d8/d97/ldblib_8c.html#a6a624ae8d8ff673e72a317b280ed008d" target="_top" xlink:title="db_gethook">
<polygon fill="none" stroke="black" points="447,-779.5 447,-798.5 513,-798.5 513,-779.5 447,-779.5"/>
<text text-anchor="middle" x="480" y="-786.5" font-family="Helvetica,sans-Serif" font-size="10.00">db_gethook</text>
</a>
</g>
</g>
<!-- Node9&#45;&gt;Node17 -->
<g id="edge18" class="edge"><title>Node9&#45;&gt;Node17</title>
<path fill="none" stroke="midnightblue" d="M250.901,-691.55C264.87,-704.093 285.477,-720.993 306,-732 352.122,-756.736 410.913,-773.312 446.717,-781.94"/>
<polygon fill="midnightblue" stroke="midnightblue" points="253.226,-688.933 243.493,-684.745 248.49,-694.088 253.226,-688.933"/>
</g>
<!-- Node11 -->
<g id="node11" class="node"><title>Node11</title>
<g id="a_node11"><a xlink:href="../../d8/dd3/lbaselib_8c.html#addfd66adcbe4c777cf5e10536d27d8b1" target="_top" xlink:title="luaB_getmetatable">
<polygon fill="none" stroke="black" points="432,-703.5 432,-722.5 528,-722.5 528,-703.5 432,-703.5"/>
<text text-anchor="middle" x="480" y="-710.5" font-family="Helvetica,sans-Serif" font-size="10.00">luaB_getmetatable</text>
</a>
</g>
</g>
<!-- Node10&#45;&gt;Node11 -->
<g id="edge10" class="edge"><title>Node10&#45;&gt;Node11</title>
<path fill="none" stroke="midnightblue" d="M387.365,-651.248C390.021,-652.728 392.597,-654.313 395,-656 414.04,-669.368 411.729,-680.967 431,-694 436.494,-697.716 442.822,-700.871 449.044,-703.479"/>
<polygon fill="midnightblue" stroke="midnightblue" points="388.679,-647.992 378.172,-646.633 385.539,-654.248 388.679,-647.992"/>
</g>
<!-- Node12 -->
<g id="node12" class="node"><title>Node12</title>
<g id="a_node12"><a xlink:href="../../d8/dd3/lbaselib_8c.html#af7799a987ba6d158a96a52e80fb5beaf" target="_top" xlink:title="luaB_setmetatable">
<polygon fill="none" stroke="black" points="432,-665.5 432,-684.5 528,-684.5 528,-665.5 432,-665.5"/>
<text text-anchor="middle" x="480" y="-672.5" font-family="Helvetica,sans-Serif" font-size="10.00">luaB_setmetatable</text>
</a>
</g>
</g>
<!-- Node10&#45;&gt;Node12 -->
<g id="edge11" class="edge"><title>Node10&#45;&gt;Node12</title>
<path fill="none" stroke="midnightblue" d="M393.559,-649.535C410.904,-654.705 430.681,-660.599 446.837,-665.414"/>
<polygon fill="midnightblue" stroke="midnightblue" points="394.257,-646.091 383.674,-646.589 392.257,-652.8 394.257,-646.091"/>
</g>
<!-- Node13 -->
<g id="node13" class="node"><title>Node13</title>
<g id="a_node13"><a xlink:href="../../da/d29/lauxlib_8h.html#af26aec8cce4a3f4448c60f402d78f17d" target="_top" xlink:title="luaL_callmeta">
<polygon fill="none" stroke="red" points="443,-627.5 443,-646.5 517,-646.5 517,-627.5 443,-627.5"/>
<text text-anchor="middle" x="480" y="-634.5" font-family="Helvetica,sans-Serif" font-size="10.00">luaL_callmeta</text>
</a>
</g>
</g>
<!-- Node10&#45;&gt;Node13 -->
<g id="edge12" class="edge"><title>Node10&#45;&gt;Node13</title>
<path fill="none" stroke="midnightblue" d="M405.082,-637C417.826,-637 431.126,-637 442.874,-637"/>
<polygon fill="midnightblue" stroke="midnightblue" points="405.022,-633.5 395.022,-637 405.022,-640.5 405.022,-633.5"/>
</g>
<!-- Node14 -->
<g id="node14" class="node"><title>Node14</title>
<g id="a_node14"><a xlink:href="../../d8/dd3/lbaselib_8c.html#a8f5df6d3f89389dd27da5cfeceee1f34" target="_top" xlink:title="pairsmeta">
<polygon fill="none" stroke="red" points="450.5,-589.5 450.5,-608.5 509.5,-608.5 509.5,-589.5 450.5,-589.5"/>
<text text-anchor="middle" x="480" y="-596.5" font-family="Helvetica,sans-Serif" font-size="10.00">pairsmeta</text>
</a>
</g>
</g>
<!-- Node10&#45;&gt;Node14 -->
<g id="edge13" class="edge"><title>Node10&#45;&gt;Node14</title>
<path fill="none" stroke="midnightblue" d="M393.409,-624.509C412.056,-618.952 433.539,-612.549 450.317,-607.549"/>
<polygon fill="midnightblue" stroke="midnightblue" points="392.257,-621.2 383.674,-627.411 394.257,-627.909 392.257,-621.2"/>
</g>
<!-- Node16&#45;&gt;Node17 -->
<g id="edge16" class="edge"><title>Node16&#45;&gt;Node17</title>
<path fill="none" stroke="midnightblue" d="M379.403,-683.773C385.014,-686.431 390.547,-689.796 395,-694 420.726,-718.289 405.912,-740.053 431,-765 436.946,-770.913 444.644,-775.634 452.127,-779.271"/>
<polygon fill="midnightblue" stroke="midnightblue" points="380.643,-680.499 370.063,-679.944 377.988,-686.976 380.643,-680.499"/>
</g>
<!-- Node18 -->
<g id="node18" class="node"><title>Node18</title>
<g id="a_node18"><a xlink:href="../../d8/d97/ldblib_8c.html#aa0c362d361f8f9bd8a002c34c393e2b0" target="_top" xlink:title="db_sethook">
<polygon fill="none" stroke="black" points="688.5,-551.5 688.5,-570.5 754.5,-570.5 754.5,-551.5 688.5,-551.5"/>
<text text-anchor="middle" x="721.5" y="-558.5" font-family="Helvetica,sans-Serif" font-size="10.00">db_sethook</text>
</a>
</g>
</g>
<!-- Node16&#45;&gt;Node18 -->
<g id="edge17" class="edge"><title>Node16&#45;&gt;Node18</title>
<path fill="none" stroke="midnightblue" d="M379.544,-685.266C384.887,-687.763 390.279,-690.685 395,-694 414.04,-707.368 409.629,-722.808 431,-732 471.011,-749.21 488.305,-747.525 529,-732 618.119,-698.001 692.061,-601.351 713.924,-570.553"/>
<polygon fill="midnightblue" stroke="midnightblue" points="380.707,-681.956 370.136,-681.238 377.952,-688.391 380.707,-681.956"/>
</g>
<!-- Node21 -->
<g id="node21" class="node"><title>Node21</title>
<g id="a_node21"><a xlink:href="../../da/dd2/lua_8h.html#a3db5cd3ce7ae703c39d54495be44aafc" target="_top" xlink:title="lua_rawset">
<polygon fill="none" stroke="black" points="318.5,-513.5 318.5,-532.5 382.5,-532.5 382.5,-513.5 318.5,-513.5"/>
<text text-anchor="middle" x="350.5" y="-520.5" font-family="Helvetica,sans-Serif" font-size="10.00">lua_rawset</text>
</a>
</g>
</g>
<!-- Node20&#45;&gt;Node21 -->
<g id="edge21" class="edge"><title>Node20&#45;&gt;Node21</title>
<path fill="none" stroke="midnightblue" d="M243.019,-313.709C266.596,-360.051 327.069,-478.911 344.643,-513.453"/>
<polygon fill="midnightblue" stroke="midnightblue" points="245.991,-311.832 238.337,-304.507 239.752,-315.007 245.991,-311.832"/>
</g>
<!-- Node23 -->
<g id="node23" class="node"><title>Node23</title>
<g id="a_node23"><a xlink:href="../../da/dd2/lua_8h.html#ab919ec94612961d8ca6eebaddd43c5f6" target="_top" xlink:title="lua_rawsetp">
<polygon fill="none" stroke="black" points="315.5,-380.5 315.5,-399.5 385.5,-399.5 385.5,-380.5 315.5,-380.5"/>
<text text-anchor="middle" x="350.5" y="-387.5" font-family="Helvetica,sans-Serif" font-size="10.00">lua_rawsetp</text>
</a>
</g>
</g>
<!-- Node20&#45;&gt;Node23 -->
<g id="edge24" class="edge"><title>Node20&#45;&gt;Node23</title>
<path fill="none" stroke="midnightblue" d="M246.76,-312.501C260.198,-329.282 282.333,-354.445 306,-371 311.132,-374.59 317.051,-377.723 322.837,-380.354"/>
<polygon fill="midnightblue" stroke="midnightblue" points="249.482,-310.299 240.564,-304.579 243.968,-314.612 249.482,-310.299"/>
</g>
<!-- Node24 -->
<g id="node24" class="node"><title>Node24</title>
<g id="a_node24"><a xlink:href="../../d8/d7a/lcode_8c.html#ada05641e97457834344a5b3d2187bd45" target="_top" xlink:title="addk">
<polygon fill="none" stroke="black" points="331.5,-342.5 331.5,-361.5 369.5,-361.5 369.5,-342.5 331.5,-342.5"/>
<text text-anchor="middle" x="350.5" y="-349.5" font-family="Helvetica,sans-Serif" font-size="10.00">addk</text>
</a>
</g>
</g>
<!-- Node20&#45;&gt;Node24 -->
<g id="edge25" class="edge"><title>Node20&#45;&gt;Node24</title>
<path fill="none" stroke="midnightblue" d="M261.952,-308.981C283.539,-319.588 312.577,-333.857 331.17,-342.993"/>
<polygon fill="midnightblue" stroke="midnightblue" points="263.434,-305.809 252.916,-304.541 260.347,-312.092 263.434,-305.809"/>
</g>
<!-- Node29 -->
<g id="node29" class="node"><title>Node29</title>
<g id="a_node29"><a xlink:href="../../d8/d27/llex_8h.html#aa6e79179f823cf156f61899a09239ca6" target="_top" xlink:title="luaX_newstring">
<polygon fill="none" stroke="black" points="310,-228.5 310,-247.5 391,-247.5 391,-228.5 310,-228.5"/>
<text text-anchor="middle" x="350.5" y="-235.5" font-family="Helvetica,sans-Serif" font-size="10.00">luaX_newstring</text>
</a>
</g>
</g>
<!-- Node20&#45;&gt;Node29 -->
<g id="edge30" class="edge"><title>Node20&#45;&gt;Node29</title>
<path fill="none" stroke="midnightblue" d="M262.067,-280.963C283.201,-270.578 311.43,-256.707 330.021,-247.572"/>
<polygon fill="midnightblue" stroke="midnightblue" points="260.347,-277.908 252.916,-285.459 263.434,-284.191 260.347,-277.908"/>
</g>
<!-- Node35 -->
<g id="node35" class="node"><title>Node35</title>
<g id="a_node35"><a xlink:href="../../d3/d44/ltable_8h.html#a049d7e871507502646f7130e252765b1" target="_top" xlink:title="luaH_resize">
<polygon fill="none" stroke="red" points="572,-114.5 572,-133.5 638,-133.5 638,-114.5 572,-114.5"/>
<text text-anchor="middle" x="605" y="-121.5" font-family="Helvetica,sans-Serif" font-size="10.00">luaH_resize</text>
</a>
</g>
</g>
<!-- Node20&#45;&gt;Node35 -->
<g id="edge38" class="edge"><title>Node20&#45;&gt;Node35</title>
<path fill="none" stroke="midnightblue" d="M246.522,-276.646C274.812,-238.656 346.206,-152.565 431,-124 477.964,-108.179 536.256,-112.752 571.764,-118.003"/>
<polygon fill="midnightblue" stroke="midnightblue" points="243.344,-275.063 240.276,-285.204 248.999,-279.19 243.344,-275.063"/>
</g>
<!-- Node20&#45;&gt;Node39 -->
<g id="edge42" class="edge"><title>Node20&#45;&gt;Node39</title>
<path fill="none" stroke="midnightblue" d="M236.56,-275.341C243.702,-239.864 264.132,-165.926 306,-120 308.092,-117.705 310.456,-115.581 312.974,-113.651"/>
<polygon fill="midnightblue" stroke="midnightblue" points="233.072,-274.954 234.698,-285.424 239.956,-276.225 233.072,-274.954"/>
</g>
<!-- Node21&#45;&gt;Node18 -->
<g id="edge23" class="edge"><title>Node21&#45;&gt;Node18</title>
<path fill="none" stroke="midnightblue" d="M392.566,-534.213C404.844,-537.186 418.394,-540.094 431,-542 523.633,-556.006 634.483,-559.69 688.179,-560.657"/>
<polygon fill="midnightblue" stroke="midnightblue" points="393.15,-530.752 382.6,-531.722 391.452,-537.543 393.15,-530.752"/>
</g>
<!-- Node22 -->
<g id="node22" class="node"><title>Node22</title>
<g id="a_node22"><a xlink:href="../../d8/dd3/lbaselib_8c.html#a7b7225051c25127792f30eadd3498cc3" target="_top" xlink:title="luaB_rawset">
<polygon fill="none" stroke="black" points="444.5,-513.5 444.5,-532.5 515.5,-532.5 515.5,-513.5 444.5,-513.5"/>
<text text-anchor="middle" x="480" y="-520.5" font-family="Helvetica,sans-Serif" font-size="10.00">luaB_rawset</text>
</a>
</g>
</g>
<!-- Node21&#45;&gt;Node22 -->
<g id="edge22" class="edge"><title>Node21&#45;&gt;Node22</title>
<path fill="none" stroke="midnightblue" d="M393.138,-523C409.614,-523 428.339,-523 444.089,-523"/>
<polygon fill="midnightblue" stroke="midnightblue" points="392.69,-519.5 382.69,-523 392.69,-526.5 392.69,-519.5"/>
</g>
<!-- Node25 -->
<g id="node25" class="node"><title>Node25</title>
<g id="a_node25"><a xlink:href="../../d8/d7a/lcode_8c.html#afe7f77e67582f1b7dee6148f19627c43" target="_top" xlink:title="boolK">
<polygon fill="none" stroke="red" points="459.5,-437.5 459.5,-456.5 500.5,-456.5 500.5,-437.5 459.5,-437.5"/>
<text text-anchor="middle" x="480" y="-444.5" font-family="Helvetica,sans-Serif" font-size="10.00">boolK</text>
</a>
</g>
</g>
<!-- Node24&#45;&gt;Node25 -->
<g id="edge26" class="edge"><title>Node24&#45;&gt;Node25</title>
<path fill="none" stroke="midnightblue" d="M379.111,-361.097C384.74,-363.735 390.354,-367.01 395,-371 417.73,-390.523 407.933,-408.877 431,-428 439.142,-434.75 449.976,-439.314 459.291,-442.273"/>
<polygon fill="midnightblue" stroke="midnightblue" points="380.372,-357.831 369.793,-357.244 377.697,-364.299 380.372,-357.831"/>
</g>
<!-- Node26 -->
<g id="node26" class="node"><title>Node26</title>
<g id="a_node26"><a xlink:href="../../dd/d05/lcode_8h.html#a4f928250a0f4007764b4d3777651f617" target="_top" xlink:title="luaK_numberK">
<polygon fill="none" stroke="red" points="440,-399.5 440,-418.5 520,-418.5 520,-399.5 440,-399.5"/>
<text text-anchor="middle" x="480" y="-406.5" font-family="Helvetica,sans-Serif" font-size="10.00">luaK_numberK</text>
</a>
</g>
</g>
<!-- Node24&#45;&gt;Node26 -->
<g id="edge27" class="edge"><title>Node24&#45;&gt;Node26</title>
<path fill="none" stroke="midnightblue" d="M379.08,-363.68C384.395,-366.034 389.895,-368.542 395,-371 411.301,-378.848 414.565,-382.437 431,-390 438.165,-393.297 446.076,-396.572 453.373,-399.451"/>
<polygon fill="midnightblue" stroke="midnightblue" points="380.403,-360.439 369.838,-359.653 377.607,-366.857 380.403,-360.439"/>
</g>
<!-- Node27 -->
<g id="node27" class="node"><title>Node27</title>
<g id="a_node27"><a xlink:href="../../dd/d05/lcode_8h.html#a50f2df3faaeae1b08794bdefbec7220e" target="_top" xlink:title="luaK_stringK">
<polygon fill="none" stroke="red" points="445,-323.5 445,-342.5 515,-342.5 515,-323.5 445,-323.5"/>
<text text-anchor="middle" x="480" y="-330.5" font-family="Helvetica,sans-Serif" font-size="10.00">luaK_stringK</text>
</a>
</g>
</g>
<!-- Node24&#45;&gt;Node27 -->
<g id="edge28" class="edge"><title>Node24&#45;&gt;Node27</title>
<path fill="none" stroke="midnightblue" d="M379.733,-347.793C398.979,-344.925 424.566,-341.112 444.942,-338.075"/>
<polygon fill="midnightblue" stroke="midnightblue" points="379.143,-344.342 369.768,-349.278 380.174,-351.266 379.143,-344.342"/>
</g>
<!-- Node28 -->
<g id="node28" class="node"><title>Node28</title>
<g id="a_node28"><a xlink:href="../../d8/d7a/lcode_8c.html#a96b95ed8f53ee7aba7c6e81a27df6d63" target="_top" xlink:title="nilK">
<polygon fill="none" stroke="red" points="464,-475.5 464,-494.5 496,-494.5 496,-475.5 464,-475.5"/>
<text text-anchor="middle" x="480" y="-482.5" font-family="Helvetica,sans-Serif" font-size="10.00">nilK</text>
</a>
</g>
</g>
<!-- Node24&#45;&gt;Node28 -->
<g id="edge29" class="edge"><title>Node24&#45;&gt;Node28</title>
<path fill="none" stroke="midnightblue" d="M379.173,-360.148C384.966,-362.864 390.633,-366.411 395,-371 426.126,-403.709 399.308,-433.839 431,-466 439.807,-474.937 453.337,-479.782 463.79,-482.337"/>
<polygon fill="midnightblue" stroke="midnightblue" points="380.101,-356.751 369.514,-356.324 377.524,-363.259 380.101,-356.751"/>
</g>
<!-- Node30 -->
<g id="node30" class="node"><title>Node30</title>
<g id="a_node30"><a xlink:href="../../d8/d9c/lparser_8c.html#a773c2499cb8938683b25fc0234c1f017" target="_top" xlink:title="anchor_token">
<polygon fill="none" stroke="red" points="443.5,-209.5 443.5,-228.5 516.5,-228.5 516.5,-209.5 443.5,-209.5"/>
<text text-anchor="middle" x="480" y="-216.5" font-family="Helvetica,sans-Serif" font-size="10.00">anchor_token</text>
</a>
</g>
</g>
<!-- Node29&#45;&gt;Node30 -->
<g id="edge31" class="edge"><title>Node29&#45;&gt;Node30</title>
<path fill="none" stroke="midnightblue" d="M401.162,-230.599C415.212,-228.506 430.224,-226.269 443.277,-224.323"/>
<polygon fill="midnightblue" stroke="midnightblue" points="400.518,-227.157 391.143,-232.092 401.55,-234.08 400.518,-227.157"/>
</g>
<!-- Node31 -->
<g id="node31" class="node"><title>Node31</title>
<g id="a_node31"><a xlink:href="../../d8/d7a/llex_8c.html#a83faab0338a28c8b97ff1156725cc61b" target="_top" xlink:title="llex">
<polygon fill="none" stroke="red" points="590,-247.5 590,-266.5 620,-266.5 620,-247.5 590,-247.5"/>
<text text-anchor="middle" x="605" y="-254.5" font-family="Helvetica,sans-Serif" font-size="10.00">llex</text>
</a>
</g>
</g>
<!-- Node29&#45;&gt;Node31 -->
<g id="edge32" class="edge"><title>Node29&#45;&gt;Node31</title>
<path fill="none" stroke="midnightblue" d="M401.424,-241.757C460.255,-246.184 554.483,-253.274 589.918,-255.94"/>
<polygon fill="midnightblue" stroke="midnightblue" points="401.465,-238.25 391.231,-240.99 400.94,-245.23 401.465,-238.25"/>
</g>
<!-- Node32 -->
<g id="node32" class="node"><title>Node32</title>
<g id="a_node32"><a xlink:href="../../d8/d9c/lparser_8c.html#a6d7842332c47d1f9dc803977228e4179" target="_top" xlink:title="new_localvarliteral_">
<polygon fill="none" stroke="black" points="431,-133.5 431,-152.5 529,-152.5 529,-133.5 431,-133.5"/>
<text text-anchor="middle" x="480" y="-140.5" font-family="Helvetica,sans-Serif" font-size="10.00">new_localvarliteral_</text>
</a>
</g>
</g>
<!-- Node29&#45;&gt;Node32 -->
<g id="edge33" class="edge"><title>Node29&#45;&gt;Node32</title>
<path fill="none" stroke="midnightblue" d="M366.254,-220.396C381.149,-203.537 405.536,-178.318 431,-162 436.735,-158.325 443.295,-155.157 449.685,-152.52"/>
<polygon fill="midnightblue" stroke="midnightblue" points="363.263,-218.503 359.374,-228.359 368.56,-223.08 363.263,-218.503"/>
</g>
<!-- Node33 -->
<g id="node33" class="node"><title>Node33</title>
<g id="a_node33"><a xlink:href="../../d8/d7a/llex_8c.html#a436a66722128b5e44db3efccaa922aa6" target="_top" xlink:title="read_long_string">
<polygon fill="none" stroke="black" points="437.5,-171.5 437.5,-190.5 522.5,-190.5 522.5,-171.5 437.5,-171.5"/>
<text text-anchor="middle" x="480" y="-178.5" font-family="Helvetica,sans-Serif" font-size="10.00">read_long_string</text>
</a>
</g>
</g>
<!-- Node29&#45;&gt;Node33 -->
<g id="edge34" class="edge"><title>Node29&#45;&gt;Node33</title>
<path fill="none" stroke="midnightblue" d="M379.899,-223.84C394.967,-216.477 413.862,-207.477 431,-200 438.393,-196.774 446.521,-193.468 453.952,-190.537"/>
<polygon fill="midnightblue" stroke="midnightblue" points="378.035,-220.857 370.606,-228.411 381.124,-227.138 378.035,-220.857"/>
</g>
<!-- Node34 -->
<g id="node34" class="node"><title>Node34</title>
<g id="a_node34"><a xlink:href="../../d8/d7a/llex_8c.html#a5a2d8bb78e2b8e9ee25f901c811b2275" target="_top" xlink:title="read_string">
<polygon fill="none" stroke="black" points="449,-285.5 449,-304.5 511,-304.5 511,-285.5 449,-285.5"/>
<text text-anchor="middle" x="480" y="-292.5" font-family="Helvetica,sans-Serif" font-size="10.00">read_string</text>
</a>
</g>
</g>
<!-- Node29&#45;&gt;Node34 -->
<g id="edge36" class="edge"><title>Node29&#45;&gt;Node34</title>
<path fill="none" stroke="midnightblue" d="M382.273,-251.757C405.569,-262.172 436.972,-276.211 457.59,-285.428"/>
<polygon fill="midnightblue" stroke="midnightblue" points="383.398,-248.427 372.841,-247.541 380.541,-254.817 383.398,-248.427"/>
</g>
<!-- Node33&#45;&gt;Node31 -->
<g id="edge35" class="edge"><title>Node33&#45;&gt;Node31</title>
<path fill="none" stroke="midnightblue" d="M518.23,-194.554C521.934,-196.252 525.584,-198.074 529,-200 553.503,-213.815 578.937,-234.797 592.989,-247.079"/>
<polygon fill="midnightblue" stroke="midnightblue" points="519.581,-191.325 509.011,-190.6 516.822,-197.758 519.581,-191.325"/>
</g>
<!-- Node34&#45;&gt;Node31 -->
<g id="edge37" class="edge"><title>Node34&#45;&gt;Node31</title>
<path fill="none" stroke="midnightblue" d="M520.874,-282.681C544.515,-275.377 573.043,-266.564 589.785,-261.392"/>
<polygon fill="midnightblue" stroke="midnightblue" points="519.61,-279.408 511.089,-285.704 521.677,-286.096 519.61,-279.408"/>
</g>
<!-- Node36 -->
<g id="node36" class="node"><title>Node36</title>
<g id="a_node36"><a xlink:href="../../da/dd2/lua_8h.html#a022ddaeee46ccb89860c78480e54db05" target="_top" xlink:title="lua_createtable">
<polygon fill="none" stroke="red" points="681,-114.5 681,-133.5 762,-133.5 762,-114.5 681,-114.5"/>
<text text-anchor="middle" x="721.5" y="-121.5" font-family="Helvetica,sans-Serif" font-size="10.00">lua_createtable</text>
</a>
</g>
</g>
<!-- Node35&#45;&gt;Node36 -->
<g id="edge39" class="edge"><title>Node35&#45;&gt;Node36</title>
<path fill="none" stroke="midnightblue" d="M648.479,-124C659.059,-124 670.36,-124 680.8,-124"/>
<polygon fill="midnightblue" stroke="midnightblue" points="648.199,-120.5 638.199,-124 648.199,-127.5 648.199,-120.5"/>
</g>
<!-- Node37 -->
<g id="node37" class="node"><title>Node37</title>
<g id="a_node37"><a xlink:href="../../dd/dca/lstate_8c.html#a3f769cc49eb8309417a7cbef2b4d2d8b" target="_top" xlink:title="init_registry">
<polygon fill="none" stroke="red" points="690.5,-76.5 690.5,-95.5 752.5,-95.5 752.5,-76.5 690.5,-76.5"/>
<text text-anchor="middle" x="721.5" y="-83.5" font-family="Helvetica,sans-Serif" font-size="10.00">init_registry</text>
</a>
</g>
</g>
<!-- Node35&#45;&gt;Node37 -->
<g id="edge40" class="edge"><title>Node35&#45;&gt;Node37</title>
<path fill="none" stroke="midnightblue" d="M644.647,-111.174C660.01,-106.075 677.379,-100.311 691.616,-95.5859"/>
<polygon fill="midnightblue" stroke="midnightblue" points="643.282,-107.939 634.893,-114.411 645.487,-114.583 643.282,-107.939"/>
</g>
<!-- Node38 -->
<g id="node38" class="node"><title>Node38</title>
<g id="a_node38"><a xlink:href="../../d5/dcd/lvm_8h.html#ae93565adc36c6e2157dbbd875433ede1" target="_top" xlink:title="luaV_execute">
<polygon fill="none" stroke="red" points="684.5,-223.5 684.5,-242.5 758.5,-242.5 758.5,-223.5 684.5,-223.5"/>
<text text-anchor="middle" x="721.5" y="-230.5" font-family="Helvetica,sans-Serif" font-size="10.00">luaV_execute</text>
</a>
</g>
</g>
<!-- Node35&#45;&gt;Node38 -->
<g id="edge41" class="edge"><title>Node35&#45;&gt;Node38</title>
<path fill="none" stroke="midnightblue" d="M632.791,-139.034C637.024,-141.815 641.239,-144.845 645,-148 673.427,-171.851 700.819,-206.512 713.366,-223.243"/>
<polygon fill="midnightblue" stroke="midnightblue" points="634.563,-136.015 624.221,-133.715 630.872,-141.962 634.563,-136.015"/>
</g>
<!-- Node39&#45;&gt;Node20 -->
<g id="edge43" class="edge"><title>Node39&#45;&gt;Node20</title>
<path fill="none" stroke="midnightblue" d="M331.712,-119.667C323.04,-124.558 312.998,-130.323 306,-138 264.05,-184.016 243.622,-258.153 236.518,-285.22"/>
<polygon fill="midnightblue" stroke="midnightblue" points="333.473,-122.692 340.376,-114.655 329.968,-116.633 333.473,-122.692"/>
</g>
<!-- Node40 -->
<g id="node40" class="node"><title>Node40</title>
<g id="a_node40"><a xlink:href="../../d3/d44/ltable_8h.html#a46a24d0091a037ca02d148e1ebdeafb9" target="_top" xlink:title="luaH_setint">
<polygon fill="none" stroke="black" points="448.5,-57.5 448.5,-76.5 511.5,-76.5 511.5,-57.5 448.5,-57.5"/>
<text text-anchor="middle" x="480" y="-64.5" font-family="Helvetica,sans-Serif" font-size="10.00">luaH_setint</text>
</a>
</g>
</g>
<!-- Node39&#45;&gt;Node40 -->
<g id="edge44" class="edge"><title>Node39&#45;&gt;Node40</title>
<path fill="none" stroke="midnightblue" d="M393.296,-92.5432C411.178,-87.2136 431.686,-81.1015 448.156,-76.1927"/>
<polygon fill="midnightblue" stroke="midnightblue" points="392.257,-89.2005 383.674,-95.411 394.257,-95.9089 392.257,-89.2005"/>
</g>
<!-- Node39&#45;&gt;Node43 -->
<g id="edge50" class="edge"><title>Node39&#45;&gt;Node43</title>
<path fill="none" stroke="midnightblue" d="M359.429,-124.017C368.637,-146.481 383.971,-185.088 395,-219 413.94,-277.236 390.202,-306.331 431,-352 434.463,-355.877 438.821,-358.972 443.49,-361.441"/>
<polygon fill="midnightblue" stroke="midnightblue" points="362.609,-122.549 355.556,-114.642 356.139,-125.221 362.609,-122.549"/>
</g>
<!-- Node40&#45;&gt;Node35 -->
<g id="edge48" class="edge"><title>Node40&#45;&gt;Node35</title>
<path fill="none" stroke="midnightblue" d="M510.687,-80.7574C533.16,-91.1719 563.455,-105.211 583.345,-114.428"/>
<polygon fill="midnightblue" stroke="midnightblue" points="512.132,-77.5696 501.587,-76.5405 509.189,-83.9208 512.132,-77.5696"/>
</g>
<!-- Node40&#45;&gt;Node37 -->
<g id="edge47" class="edge"><title>Node40&#45;&gt;Node37</title>
<path fill="none" stroke="midnightblue" d="M521.816,-70.238C569.559,-74.0256 647.486,-80.2076 690.176,-83.5943"/>
<polygon fill="midnightblue" stroke="midnightblue" points="522.066,-66.7469 511.82,-69.445 521.512,-73.725 522.066,-66.7469"/>
</g>
<!-- Node40&#45;&gt;Node38 -->
<g id="edge49" class="edge"><title>Node40&#45;&gt;Node38</title>
<path fill="none" stroke="midnightblue" d="M497.428,-83.798C513.739,-99.9941 539.873,-124.678 565,-143 611.122,-176.632 670.765,-208.171 701.029,-223.423"/>
<polygon fill="midnightblue" stroke="midnightblue" points="499.793,-81.2125 490.258,-76.5941 494.832,-86.1507 499.793,-81.2125"/>
</g>
<!-- Node41 -->
<g id="node41" class="node"><title>Node41</title>
<g id="a_node41"><a xlink:href="../../da/dd2/lua_8h.html#a32f51f8a97b4f005f7a3c378dcf71df2" target="_top" xlink:title="lua_rawseti">
<polygon fill="none" stroke="red" points="572.5,-38.5 572.5,-57.5 637.5,-57.5 637.5,-38.5 572.5,-38.5"/>
<text text-anchor="middle" x="605" y="-45.5" font-family="Helvetica,sans-Serif" font-size="10.00">lua_rawseti</text>
</a>
</g>
</g>
<!-- Node40&#45;&gt;Node41 -->
<g id="edge45" class="edge"><title>Node40&#45;&gt;Node41</title>
<path fill="none" stroke="midnightblue" d="M521.654,-60.7201C538.159,-58.1706 556.935,-55.2701 572.387,-52.8833"/>
<polygon fill="midnightblue" stroke="midnightblue" points="521.069,-57.2688 511.721,-62.2545 522.138,-64.1868 521.069,-57.2688"/>
</g>
<!-- Node42 -->
<g id="node42" class="node"><title>Node42</title>
<g id="a_node42"><a xlink:href="../../d6/ddf/ldebug_8c.html#a6e3195fc94af1f75142c2801ca8cf058" target="_top" xlink:title="collectvalidlines">
<polygon fill="none" stroke="red" points="565,-0.5 565,-19.5 645,-19.5 645,-0.5 565,-0.5"/>
<text text-anchor="middle" x="605" y="-7.5" font-family="Helvetica,sans-Serif" font-size="10.00">collectvalidlines</text>
</a>
</g>
</g>
<!-- Node40&#45;&gt;Node42 -->
<g id="edge46" class="edge"><title>Node40&#45;&gt;Node42</title>
<path fill="none" stroke="midnightblue" d="M510.687,-53.2426C533.16,-42.8281 563.455,-28.7892 583.345,-19.5716"/>
<polygon fill="midnightblue" stroke="midnightblue" points="509.189,-50.0792 501.587,-57.4595 512.132,-56.4304 509.189,-50.0792"/>
</g>
<!-- Node43&#45;&gt;Node38 -->
<g id="edge55" class="edge"><title>Node43&#45;&gt;Node38</title>
<path fill="none" stroke="midnightblue" d="M517.009,-357.564C521.101,-355.797 525.173,-353.927 529,-352 598.922,-316.793 676.473,-263.965 707.056,-242.538"/>
<polygon fill="midnightblue" stroke="midnightblue" points="515.438,-354.426 507.531,-361.479 518.11,-360.896 515.438,-354.426"/>
</g>
<!-- Node44 -->
<g id="node44" class="node"><title>Node44</title>
<g id="a_node44"><a xlink:href="../../da/dd2/lua_8h.html#ac0ebe7d753b81f6249dde8cf0b8ea997" target="_top" xlink:title="lua_setglobal">
<polygon fill="none" stroke="red" points="568.5,-418.5 568.5,-437.5 641.5,-437.5 641.5,-418.5 568.5,-418.5"/>
<text text-anchor="middle" x="605" y="-425.5" font-family="Helvetica,sans-Serif" font-size="10.00">lua_setglobal</text>
</a>
</g>
</g>
<!-- Node43&#45;&gt;Node44 -->
<g id="edge51" class="edge"><title>Node43&#45;&gt;Node44</title>
<path fill="none" stroke="midnightblue" d="M516.088,-384.376C520.466,-386.195 524.858,-388.094 529,-390 545.435,-397.563 548.866,-400.815 565,-409 571.179,-412.135 577.954,-415.47 584.098,-418.458"/>
<polygon fill="midnightblue" stroke="midnightblue" points="517.21,-381.054 506.627,-380.549 514.585,-387.543 517.21,-381.054"/>
</g>
<!-- Node45 -->
<g id="node45" class="node"><title>Node45</title>
<g id="a_node45"><a xlink:href="../../da/dd2/lua_8h.html#aeda173d104e3a566ccaac89a1f64a5eb" target="_top" xlink:title="lua_settable">
<polygon fill="none" stroke="red" points="571,-380.5 571,-399.5 639,-399.5 639,-380.5 571,-380.5"/>
<text text-anchor="middle" x="605" y="-387.5" font-family="Helvetica,sans-Serif" font-size="10.00">lua_settable</text>
</a>
</g>
</g>
<!-- Node43&#45;&gt;Node45 -->
<g id="edge52" class="edge"><title>Node43&#45;&gt;Node45</title>
<path fill="none" stroke="midnightblue" d="M527.742,-378.22C542.052,-380.431 557.495,-382.816 570.716,-384.859"/>
<polygon fill="midnightblue" stroke="midnightblue" points="527.988,-374.717 517.571,-376.649 526.919,-381.635 527.988,-374.717"/>
</g>
<!-- Node46 -->
<g id="node46" class="node"><title>Node46</title>
<g id="a_node46"><a xlink:href="../../da/dd2/lua_8h.html#a9580a15c141cbe4bf2a63fea625c3878" target="_top" xlink:title="lua_setfield">
<polygon fill="none" stroke="red" points="573.5,-342.5 573.5,-361.5 636.5,-361.5 636.5,-342.5 573.5,-342.5"/>
<text text-anchor="middle" x="605" y="-349.5" font-family="Helvetica,sans-Serif" font-size="10.00">lua_setfield</text>
</a>
</g>
</g>
<!-- Node43&#45;&gt;Node46 -->
<g id="edge53" class="edge"><title>Node43&#45;&gt;Node46</title>
<path fill="none" stroke="midnightblue" d="M527.83,-363.766C543.012,-361.421 559.461,-358.88 573.174,-356.762"/>
<polygon fill="midnightblue" stroke="midnightblue" points="526.919,-360.365 517.571,-365.351 527.988,-367.283 526.919,-360.365"/>
</g>
<!-- Node46&#45;&gt;Node18 -->
<g id="edge54" class="edge"><title>Node46&#45;&gt;Node18</title>
<path fill="none" stroke="midnightblue" d="M641.118,-367.356C642.499,-368.496 643.803,-369.709 645,-371 696.416,-426.43 714.539,-521.153 719.177,-551.411"/>
<polygon fill="midnightblue" stroke="midnightblue" points="642.824,-364.286 632.572,-361.615 638.921,-370.097 642.824,-364.286"/>
</g>
<!-- Node47&#45;&gt;Node38 -->
<g id="edge61" class="edge"><title>Node47&#45;&gt;Node38</title>
<path fill="none" stroke="midnightblue" d="M272.694,-839.227C283.387,-842.025 295.047,-844.589 306,-846 405.715,-858.849 456.321,-877.469 529,-808 705.461,-639.334 719.363,-304.134 720.419,-242.766"/>
<polygon fill="midnightblue" stroke="midnightblue" points="273.362,-835.781 262.792,-836.504 271.506,-842.531 273.362,-835.781"/>
</g>
<!-- Node48 -->
<g id="node48" class="node"><title>Node48</title>
<g id="a_node48"><a xlink:href="../../da/dd2/lua_8h.html#a2b4a9010af0545ae0f822d7f081370d0" target="_top" xlink:title="lua_getglobal">
<polygon fill="none" stroke="red" points="314,-817.5 314,-836.5 387,-836.5 387,-817.5 314,-817.5"/>
<text text-anchor="middle" x="350.5" y="-824.5" font-family="Helvetica,sans-Serif" font-size="10.00">lua_getglobal</text>
</a>
</g>
</g>
<!-- Node47&#45;&gt;Node48 -->
<g id="edge57" class="edge"><title>Node47&#45;&gt;Node48</title>
<path fill="none" stroke="midnightblue" d="M280.268,-827C291.459,-827 303.231,-827 313.829,-827"/>
<polygon fill="midnightblue" stroke="midnightblue" points="280.203,-823.5 270.203,-827 280.203,-830.5 280.203,-823.5"/>
</g>
<!-- Node49 -->
<g id="node49" class="node"><title>Node49</title>
<g id="a_node49"><a xlink:href="../../da/dd2/lua_8h.html#a8d82fa181a3003e9a304040c0bbed9ac" target="_top" xlink:title="lua_gettable">
<polygon fill="none" stroke="red" points="316.5,-779.5 316.5,-798.5 384.5,-798.5 384.5,-779.5 316.5,-779.5"/>
<text text-anchor="middle" x="350.5" y="-786.5" font-family="Helvetica,sans-Serif" font-size="10.00">lua_gettable</text>
</a>
</g>
</g>
<!-- Node47&#45;&gt;Node49 -->
<g id="edge58" class="edge"><title>Node47&#45;&gt;Node49</title>
<path fill="none" stroke="midnightblue" d="M272.653,-814.174C288.218,-809.075 305.814,-803.311 320.238,-798.586"/>
<polygon fill="midnightblue" stroke="midnightblue" points="271.185,-810.972 262.772,-817.411 273.364,-817.624 271.185,-810.972"/>
</g>
<!-- Node50 -->
<g id="node50" class="node"><title>Node50</title>
<g id="a_node50"><a xlink:href="../../da/dd2/lua_8h.html#ac3112bb28ba217adc46f13da8e9e6585" target="_top" xlink:title="lua_getfield">
<polygon fill="none" stroke="red" points="319,-893.5 319,-912.5 382,-912.5 382,-893.5 319,-893.5"/>
<text text-anchor="middle" x="350.5" y="-900.5" font-family="Helvetica,sans-Serif" font-size="10.00">lua_getfield</text>
</a>
</g>
</g>
<!-- Node47&#45;&gt;Node50 -->
<g id="edge59" class="edge"><title>Node47&#45;&gt;Node50</title>
<path fill="none" stroke="midnightblue" d="M254.155,-842.809C268.421,-853.478 287.995,-867.632 306,-879 314.022,-884.065 323.182,-889.209 331.02,-893.428"/>
<polygon fill="midnightblue" stroke="midnightblue" points="256.111,-839.9 246.02,-836.672 251.896,-845.488 256.111,-839.9"/>
</g>
<!-- Node50&#45;&gt;Node5 -->
<g id="edge60" class="edge"><title>Node50&#45;&gt;Node5</title>
<path fill="none" stroke="midnightblue" d="M392.205,-903C411.177,-903 433.297,-903 450.457,-903"/>
<polygon fill="midnightblue" stroke="midnightblue" points="392.039,-899.5 382.039,-903 392.039,-906.5 392.039,-899.5"/>
</g>
</g>
</svg>
