<?xml version="1.0" encoding="UTF-8" standalone="no"?>
<!DOCTYPE svg PUBLIC "-//W3C//DTD SVG 1.1//EN"
 "http://www.w3.org/Graphics/SVG/1.1/DTD/svg11.dtd">
<!-- Generated by graphviz version 2.38.0 (20140413.2041)
 -->
<!-- Title: luaH_setint Pages: 1 -->
<svg width="815pt" height="997pt"
 viewBox="0.00 0.00 815.00 996.89" xmlns="http://www.w3.org/2000/svg" xmlns:xlink="http://www.w3.org/1999/xlink">
<g id="graph0" class="graph" transform="scale(1 1) rotate(0) translate(4 992.889)">
<title>luaH_setint</title>
<!-- Node1 -->
<g id="node1" class="node"><title>Node1</title>
<polygon fill="#bfbfbf" stroke="black" points="0,-513.5 0,-532.5 63,-532.5 63,-513.5 0,-513.5"/>
<text text-anchor="middle" x="31.5" y="-520.5" font-family="Helvetica,sans-Serif" font-size="10.00">luaH_setint</text>
</g>
<!-- Node2 -->
<g id="node2" class="node"><title>Node2</title>
<g id="a_node2"><a xlink:href="../../d6/ddf/ldebug_8c.html#a6e3195fc94af1f75142c2801ca8cf058" target="_top" xlink:title="collectvalidlines">
<polygon fill="none" stroke="black" points="99,-712.5 99,-731.5 179,-731.5 179,-712.5 99,-712.5"/>
<text text-anchor="middle" x="139" y="-719.5" font-family="Helvetica,sans-Serif" font-size="10.00">collectvalidlines</text>
</a>
</g>
</g>
<!-- Node1&#45;&gt;Node2 -->
<g id="edge1" class="edge"><title>Node1&#45;&gt;Node2</title>
<path fill="none" stroke="midnightblue" d="M42.3622,-541.603C64.3077,-582.997 116.534,-681.509 132.963,-712.498"/>
<polygon fill="midnightblue" stroke="midnightblue" points="45.3648,-539.794 37.5885,-532.598 39.1802,-543.073 45.3648,-539.794"/>
</g>
<!-- Node18 -->
<g id="node18" class="node"><title>Node18</title>
<g id="a_node18"><a xlink:href="../../dd/dca/lstate_8c.html#a3f769cc49eb8309417a7cbef2b4d2d8b" target="_top" xlink:title="init_registry">
<polygon fill="none" stroke="black" points="228,-551.5 228,-570.5 290,-570.5 290,-551.5 228,-551.5"/>
<text text-anchor="middle" x="259" y="-558.5" font-family="Helvetica,sans-Serif" font-size="10.00">init_registry</text>
</a>
</g>
</g>
<!-- Node1&#45;&gt;Node18 -->
<g id="edge20" class="edge"><title>Node1&#45;&gt;Node18</title>
<path fill="none" stroke="midnightblue" d="M73.0123,-531.918C81.5758,-533.693 90.5716,-535.478 99,-537 143.643,-545.062 195.676,-552.559 227.729,-556.96"/>
<polygon fill="midnightblue" stroke="midnightblue" points="73.7248,-528.491 63.2179,-529.853 72.281,-535.34 73.7248,-528.491"/>
</g>
<!-- Node21 -->
<g id="node21" class="node"><title>Node21</title>
<g id="a_node21"><a xlink:href="../../da/dd2/lua_8h.html#a32f51f8a97b4f005f7a3c378dcf71df2" target="_top" xlink:title="lua_rawseti">
<polygon fill="none" stroke="black" points="226.5,-513.5 226.5,-532.5 291.5,-532.5 291.5,-513.5 226.5,-513.5"/>
<text text-anchor="middle" x="259" y="-520.5" font-family="Helvetica,sans-Serif" font-size="10.00">lua_rawseti</text>
</a>
</g>
</g>
<!-- Node1&#45;&gt;Node21 -->
<g id="edge23" class="edge"><title>Node1&#45;&gt;Node21</title>
<path fill="none" stroke="midnightblue" d="M73.4534,-523C117.447,-523 186.411,-523 226.403,-523"/>
<polygon fill="midnightblue" stroke="midnightblue" points="73.382,-519.5 63.382,-523 73.382,-526.5 73.382,-519.5"/>
</g>
<!-- Node33 -->
<g id="node33" class="node"><title>Node33</title>
<g id="a_node33"><a xlink:href="../../d3/d44/ltable_8h.html#a049d7e871507502646f7130e252765b1" target="_top" xlink:title="luaH_resize">
<polygon fill="none" stroke="black" points="106,-294.5 106,-313.5 172,-313.5 172,-294.5 106,-294.5"/>
<text text-anchor="middle" x="139" y="-301.5" font-family="Helvetica,sans-Serif" font-size="10.00">luaH_resize</text>
</a>
</g>
</g>
<!-- Node1&#45;&gt;Node33 -->
<g id="edge35" class="edge"><title>Node1&#45;&gt;Node33</title>
<path fill="none" stroke="midnightblue" d="M41.6107,-504.088C63.2764,-459.114 117.264,-347.043 133.385,-313.581"/>
<polygon fill="midnightblue" stroke="midnightblue" points="38.3562,-502.779 37.1693,-513.307 44.6626,-505.817 38.3562,-502.779"/>
</g>
<!-- Node38 -->
<g id="node38" class="node"><title>Node38</title>
<g id="a_node38"><a xlink:href="../../d5/dcd/lvm_8h.html#ae93565adc36c6e2157dbbd875433ede1" target="_top" xlink:title="luaV_execute">
<polygon fill="none" stroke="black" points="354.5,-171.5 354.5,-190.5 428.5,-190.5 428.5,-171.5 354.5,-171.5"/>
<text text-anchor="middle" x="391.5" y="-178.5" font-family="Helvetica,sans-Serif" font-size="10.00">luaV_execute</text>
</a>
</g>
</g>
<!-- Node1&#45;&gt;Node38 -->
<g id="edge64" class="edge"><title>Node1&#45;&gt;Node38</title>
<path fill="none" stroke="midnightblue" d="M33.416,-503.236C36.3436,-459.71 48.539,-353.972 99,-285 159.281,-202.606 290.653,-185.228 354.385,-181.744"/>
<polygon fill="midnightblue" stroke="midnightblue" points="29.9148,-503.158 32.8325,-513.343 36.9031,-503.562 29.9148,-503.158"/>
</g>
<!-- Node3 -->
<g id="node3" class="node"><title>Node3</title>
<g id="a_node3"><a xlink:href="../../da/dd2/lua_8h.html#a9cf23593facaabc7fb42e4d232a507d7" target="_top" xlink:title="lua_getinfo">
<polygon fill="none" stroke="black" points="228,-836.5 228,-855.5 290,-855.5 290,-836.5 228,-836.5"/>
<text text-anchor="middle" x="259" y="-843.5" font-family="Helvetica,sans-Serif" font-size="10.00">lua_getinfo</text>
</a>
</g>
</g>
<!-- Node2&#45;&gt;Node3 -->
<g id="edge2" class="edge"><title>Node2&#45;&gt;Node3</title>
<path fill="none" stroke="midnightblue" d="M156.289,-739.117C181.421,-765.527 228.833,-815.35 248.784,-836.315"/>
<polygon fill="midnightblue" stroke="midnightblue" points="158.688,-736.561 149.259,-731.73 153.617,-741.387 158.688,-736.561"/>
</g>
<!-- Node4 -->
<g id="node4" class="node"><title>Node4</title>
<g id="a_node4"><a xlink:href="../../d0/d56/lauxlib_8c.html#a4f35430f7ecfcbd5f507e550937046b4" target="_top" xlink:title="pushglobalfuncname">
<polygon fill="none" stroke="black" points="339,-931.5 339,-950.5 444,-950.5 444,-931.5 339,-931.5"/>
<text text-anchor="middle" x="391.5" y="-938.5" font-family="Helvetica,sans-Serif" font-size="10.00">pushglobalfuncname</text>
</a>
</g>
</g>
<!-- Node3&#45;&gt;Node4 -->
<g id="edge3" class="edge"><title>Node3&#45;&gt;Node4</title>
<path fill="none" stroke="midnightblue" d="M276.058,-863.079C291.23,-878.539 315.159,-901.24 339,-917 347.393,-922.548 357.274,-927.486 366.124,-931.418"/>
<polygon fill="midnightblue" stroke="midnightblue" points="278.43,-860.497 268.969,-855.729 273.392,-865.356 278.43,-860.497"/>
</g>
<!-- Node5 -->
<g id="node5" class="node"><title>Node5</title>
<g id="a_node5"><a xlink:href="../../da/d29/lauxlib_8h.html#a526c220d17273c63ce9973bcde4a2c4a" target="_top" xlink:title="luaL_argerror">
<polygon fill="none" stroke="red" points="491.5,-874.5 491.5,-893.5 562.5,-893.5 562.5,-874.5 491.5,-874.5"/>
<text text-anchor="middle" x="527" y="-881.5" font-family="Helvetica,sans-Serif" font-size="10.00">luaL_argerror</text>
</a>
</g>
</g>
<!-- Node3&#45;&gt;Node5 -->
<g id="edge15" class="edge"><title>Node3&#45;&gt;Node5</title>
<path fill="none" stroke="midnightblue" d="M283.407,-860.707C298.611,-869.37 319.216,-879.489 339,-884 391.069,-895.872 453.435,-892.487 491.365,-888.55"/>
<polygon fill="midnightblue" stroke="midnightblue" points="285.084,-857.633 274.693,-855.565 281.526,-863.662 285.084,-857.633"/>
</g>
<!-- Node8 -->
<g id="node8" class="node"><title>Node8</title>
<g id="a_node8"><a xlink:href="../../d8/d97/ldblib_8c.html#a4eb57e66c2efb2d31c9b9e1b01d27e13" target="_top" xlink:title="db_getinfo">
<polygon fill="none" stroke="black" points="623.5,-741.5 623.5,-760.5 683.5,-760.5 683.5,-741.5 623.5,-741.5"/>
<text text-anchor="middle" x="653.5" y="-748.5" font-family="Helvetica,sans-Serif" font-size="10.00">db_getinfo</text>
</a>
</g>
</g>
<!-- Node3&#45;&gt;Node8 -->
<g id="edge17" class="edge"><title>Node3&#45;&gt;Node8</title>
<path fill="none" stroke="midnightblue" d="M272.383,-828.225C286.247,-809.958 310.541,-782.48 339,-770 435.876,-727.515 565.961,-738.51 623.289,-746.328"/>
<polygon fill="midnightblue" stroke="midnightblue" points="269.521,-826.209 266.442,-836.346 275.171,-830.341 269.521,-826.209"/>
</g>
<!-- Node13 -->
<g id="node13" class="node"><title>Node13</title>
<g id="a_node13"><a xlink:href="../../da/d29/lauxlib_8h.html#a664cc293d6c7a7dc67857fe95583a10e" target="_top" xlink:title="luaL_traceback">
<polygon fill="none" stroke="black" points="613,-950.5 613,-969.5 694,-969.5 694,-950.5 613,-950.5"/>
<text text-anchor="middle" x="653.5" y="-957.5" font-family="Helvetica,sans-Serif" font-size="10.00">luaL_traceback</text>
</a>
</g>
</g>
<!-- Node3&#45;&gt;Node13 -->
<g id="edge14" class="edge"><title>Node3&#45;&gt;Node13</title>
<path fill="none" stroke="midnightblue" d="M266.741,-865.214C277.351,-892.124 300.771,-939.981 339,-960 430.611,-1007.97 558.926,-984.736 618.999,-969.566"/>
<polygon fill="midnightblue" stroke="midnightblue" points="269.971,-863.859 263.188,-855.72 263.415,-866.312 269.971,-863.859"/>
</g>
<!-- Node15 -->
<g id="node15" class="node"><title>Node15</title>
<g id="a_node15"><a xlink:href="../../da/d29/lauxlib_8h.html#a269122a77674ca63c9193c2a30b4729e" target="_top" xlink:title="luaL_where">
<polygon fill="none" stroke="red" points="358.5,-855.5 358.5,-874.5 424.5,-874.5 424.5,-855.5 358.5,-855.5"/>
<text text-anchor="middle" x="391.5" y="-862.5" font-family="Helvetica,sans-Serif" font-size="10.00">luaL_where</text>
</a>
</g>
</g>
<!-- Node3&#45;&gt;Node15 -->
<g id="edge16" class="edge"><title>Node3&#45;&gt;Node15</title>
<path fill="none" stroke="midnightblue" d="M300.221,-851.856C318.814,-854.563 340.602,-857.735 358.116,-860.285"/>
<polygon fill="midnightblue" stroke="midnightblue" points="300.667,-848.384 290.267,-850.407 299.659,-855.311 300.667,-848.384"/>
</g>
<!-- Node16 -->
<g id="node16" class="node"><title>Node16</title>
<g id="a_node16"><a xlink:href="../../d8/d97/ldblib_8c.html#a0951daf8c0b66e39bd3aa618aff380bf" target="_top" xlink:title="checkupval">
<polygon fill="none" stroke="red" points="359,-817.5 359,-836.5 424,-836.5 424,-817.5 359,-817.5"/>
<text text-anchor="middle" x="391.5" y="-824.5" font-family="Helvetica,sans-Serif" font-size="10.00">checkupval</text>
</a>
</g>
</g>
<!-- Node3&#45;&gt;Node16 -->
<g id="edge18" class="edge"><title>Node3&#45;&gt;Node16</title>
<path fill="none" stroke="midnightblue" d="M300.297,-840.133C319.037,-837.405 341.009,-834.206 358.576,-831.648"/>
<polygon fill="midnightblue" stroke="midnightblue" points="299.659,-836.689 290.267,-841.593 300.667,-843.616 299.659,-836.689"/>
</g>
<!-- Node17 -->
<g id="node17" class="node"><title>Node17</title>
<g id="a_node17"><a xlink:href="../../d8/d97/ldblib_8c.html#a5caaa985f31fc5cbd014f831833205e7" target="_top" xlink:title="hookf">
<polygon fill="none" stroke="red" points="372,-779.5 372,-798.5 411,-798.5 411,-779.5 372,-779.5"/>
<text text-anchor="middle" x="391.5" y="-786.5" font-family="Helvetica,sans-Serif" font-size="10.00">hookf</text>
</a>
</g>
</g>
<!-- Node3&#45;&gt;Node17 -->
<g id="edge19" class="edge"><title>Node3&#45;&gt;Node17</title>
<path fill="none" stroke="midnightblue" d="M287.84,-831.811C302.839,-824.37 321.758,-815.308 339,-808 349.705,-803.463 361.903,-798.935 371.74,-795.438"/>
<polygon fill="midnightblue" stroke="midnightblue" points="285.982,-828.827 278.606,-836.432 289.115,-835.087 285.982,-828.827"/>
</g>
<!-- Node4&#45;&gt;Node5 -->
<g id="edge4" class="edge"><title>Node4&#45;&gt;Node5</title>
<path fill="none" stroke="midnightblue" d="M424.07,-927.521C448.525,-917.079 481.801,-902.871 503.582,-893.572"/>
<polygon fill="midnightblue" stroke="midnightblue" points="422.667,-924.314 414.845,-931.459 425.416,-930.752 422.667,-924.314"/>
</g>
<!-- Node12 -->
<g id="node12" class="node"><title>Node12</title>
<g id="a_node12"><a xlink:href="../../d0/d56/lauxlib_8c.html#a0aa557042467d3f84d0663c742b32946" target="_top" xlink:title="pushfuncname">
<polygon fill="none" stroke="black" points="487,-931.5 487,-950.5 567,-950.5 567,-931.5 487,-931.5"/>
<text text-anchor="middle" x="527" y="-938.5" font-family="Helvetica,sans-Serif" font-size="10.00">pushfuncname</text>
</a>
</g>
</g>
<!-- Node4&#45;&gt;Node12 -->
<g id="edge11" class="edge"><title>Node4&#45;&gt;Node12</title>
<path fill="none" stroke="midnightblue" d="M454.247,-941C465.376,-941 476.692,-941 486.947,-941"/>
<polygon fill="midnightblue" stroke="midnightblue" points="454.115,-937.5 444.115,-941 454.115,-944.5 454.115,-937.5"/>
</g>
<!-- Node6 -->
<g id="node6" class="node"><title>Node6</title>
<g id="a_node6"><a xlink:href="../../dc/dba/loslib_8c.html#aed631522193ea719b6d96782f3e26b6a" target="_top" xlink:title="checkoption">
<polygon fill="none" stroke="black" points="620.5,-798.5 620.5,-817.5 686.5,-817.5 686.5,-798.5 620.5,-798.5"/>
<text text-anchor="middle" x="653.5" y="-805.5" font-family="Helvetica,sans-Serif" font-size="10.00">checkoption</text>
</a>
</g>
</g>
<!-- Node5&#45;&gt;Node6 -->
<g id="edge5" class="edge"><title>Node5&#45;&gt;Node6</title>
<path fill="none" stroke="midnightblue" d="M548.491,-868.146C564.668,-856.032 588.089,-839.369 610,-827 615.912,-823.662 622.52,-820.47 628.731,-817.686"/>
<polygon fill="midnightblue" stroke="midnightblue" points="546.159,-865.522 540.304,-874.352 550.388,-871.1 546.159,-865.522"/>
</g>
<!-- Node5&#45;&gt;Node8 -->
<g id="edge7" class="edge"><title>Node5&#45;&gt;Node8</title>
<path fill="none" stroke="midnightblue" d="M541.984,-866.466C557.817,-846.94 584.707,-814.739 610,-789 619.99,-778.834 632.188,-768.081 640.95,-760.619"/>
<polygon fill="midnightblue" stroke="midnightblue" points="539.079,-864.493 535.534,-874.477 544.532,-868.884 539.079,-864.493"/>
</g>
<!-- Node9 -->
<g id="node9" class="node"><title>Node9</title>
<g id="a_node9"><a xlink:href="../../d8/d97/ldblib_8c.html#ae802ce7397e9ebb08a90b69976578ecc" target="_top" xlink:title="db_getlocal">
<polygon fill="none" stroke="black" points="621,-912.5 621,-931.5 686,-931.5 686,-912.5 621,-912.5"/>
<text text-anchor="middle" x="653.5" y="-919.5" font-family="Helvetica,sans-Serif" font-size="10.00">db_getlocal</text>
</a>
</g>
</g>
<!-- Node5&#45;&gt;Node9 -->
<g id="edge8" class="edge"><title>Node5&#45;&gt;Node9</title>
<path fill="none" stroke="midnightblue" d="M569.07,-896.535C586.006,-901.705 605.318,-907.599 621.093,-912.414"/>
<polygon fill="midnightblue" stroke="midnightblue" points="570.003,-893.161 559.417,-893.589 567.959,-899.856 570.003,-893.161"/>
</g>
<!-- Node10 -->
<g id="node10" class="node"><title>Node10</title>
<g id="a_node10"><a xlink:href="../../d8/d97/ldblib_8c.html#a11cfe90e96e7ea907a767f5109f7ef4b" target="_top" xlink:title="db_setlocal">
<polygon fill="none" stroke="black" points="621,-874.5 621,-893.5 686,-893.5 686,-874.5 621,-874.5"/>
<text text-anchor="middle" x="653.5" y="-881.5" font-family="Helvetica,sans-Serif" font-size="10.00">db_setlocal</text>
</a>
</g>
</g>
<!-- Node5&#45;&gt;Node10 -->
<g id="edge9" class="edge"><title>Node5&#45;&gt;Node10</title>
<path fill="none" stroke="midnightblue" d="M572.868,-884C588.807,-884 606.399,-884 620.985,-884"/>
<polygon fill="midnightblue" stroke="midnightblue" points="572.68,-880.5 562.68,-884 572.68,-887.5 572.68,-880.5"/>
</g>
<!-- Node11 -->
<g id="node11" class="node"><title>Node11</title>
<g id="a_node11"><a xlink:href="../../d8/d97/ldblib_8c.html#a233c3c4d12bda0fdbf515a18b8961461" target="_top" xlink:title="db_setuservalue">
<polygon fill="none" stroke="black" points="610,-836.5 610,-855.5 697,-855.5 697,-836.5 610,-836.5"/>
<text text-anchor="middle" x="653.5" y="-843.5" font-family="Helvetica,sans-Serif" font-size="10.00">db_setuservalue</text>
</a>
</g>
</g>
<!-- Node5&#45;&gt;Node11 -->
<g id="edge10" class="edge"><title>Node5&#45;&gt;Node11</title>
<path fill="none" stroke="midnightblue" d="M569.07,-871.465C586.006,-866.295 605.318,-860.401 621.093,-855.586"/>
<polygon fill="midnightblue" stroke="midnightblue" points="567.959,-868.144 559.417,-874.411 570.003,-874.839 567.959,-868.144"/>
</g>
<!-- Node7 -->
<g id="node7" class="node"><title>Node7</title>
<g id="a_node7"><a xlink:href="../../dc/dba/loslib_8c.html#a6520f2562b500aee87a6a475995adefb" target="_top" xlink:title="os_date">
<polygon fill="none" stroke="black" points="744.5,-532.5 744.5,-551.5 795.5,-551.5 795.5,-532.5 744.5,-532.5"/>
<text text-anchor="middle" x="770" y="-539.5" font-family="Helvetica,sans-Serif" font-size="10.00">os_date</text>
</a>
</g>
</g>
<!-- Node6&#45;&gt;Node7 -->
<g id="edge6" class="edge"><title>Node6&#45;&gt;Node7</title>
<path fill="none" stroke="midnightblue" d="M677.124,-791.706C684.313,-785.588 691.75,-778.127 697,-770 745.428,-695.035 763.296,-585.171 767.778,-551.903"/>
<polygon fill="midnightblue" stroke="midnightblue" points="674.579,-789.259 668.946,-798.232 678.945,-794.731 674.579,-789.259"/>
</g>
<!-- Node12&#45;&gt;Node13 -->
<g id="edge12" class="edge"><title>Node12&#45;&gt;Node13</title>
<path fill="none" stroke="midnightblue" d="M577.197,-948.508C588.986,-950.307 601.429,-952.206 612.73,-953.931"/>
<polygon fill="midnightblue" stroke="midnightblue" points="577.465,-945.008 567.051,-946.96 576.408,-951.928 577.465,-945.008"/>
</g>
<!-- Node14 -->
<g id="node14" class="node"><title>Node14</title>
<g id="a_node14"><a xlink:href="../../d8/d97/ldblib_8c.html#ae0792d4f3f6eedd535895e05426b82df" target="_top" xlink:title="db_traceback">
<polygon fill="none" stroke="black" points="733,-950.5 733,-969.5 807,-969.5 807,-950.5 733,-950.5"/>
<text text-anchor="middle" x="770" y="-957.5" font-family="Helvetica,sans-Serif" font-size="10.00">db_traceback</text>
</a>
</g>
</g>
<!-- Node13&#45;&gt;Node14 -->
<g id="edge13" class="edge"><title>Node13&#45;&gt;Node14</title>
<path fill="none" stroke="midnightblue" d="M704.422,-960C713.965,-960 723.785,-960 732.797,-960"/>
<polygon fill="midnightblue" stroke="midnightblue" points="704.225,-956.5 694.225,-960 704.225,-963.5 704.225,-956.5"/>
</g>
<!-- Node19 -->
<g id="node19" class="node"><title>Node19</title>
<g id="a_node19"><a xlink:href="../../dd/dca/lstate_8c.html#ab65e96a7498fd886f7223b92e91fd830" target="_top" xlink:title="f_luaopen">
<polygon fill="none" stroke="black" points="362,-703.5 362,-722.5 421,-722.5 421,-703.5 362,-703.5"/>
<text text-anchor="middle" x="391.5" y="-710.5" font-family="Helvetica,sans-Serif" font-size="10.00">f_luaopen</text>
</a>
</g>
</g>
<!-- Node18&#45;&gt;Node19 -->
<g id="edge21" class="edge"><title>Node18&#45;&gt;Node19</title>
<path fill="none" stroke="midnightblue" d="M266.609,-580.182C277.41,-608.833 301.477,-662.77 339,-694 345.592,-699.487 353.915,-703.464 361.936,-706.315"/>
<polygon fill="midnightblue" stroke="midnightblue" points="269.813,-578.751 263.118,-570.539 263.231,-581.133 269.813,-578.751"/>
</g>
<!-- Node20 -->
<g id="node20" class="node"><title>Node20</title>
<g id="a_node20"><a xlink:href="../../da/dd2/lua_8h.html#af722e4ac7fc0eba5920f59f0162c1b97" target="_top" xlink:title="lua_newstate">
<polygon fill="none" stroke="red" points="490,-703.5 490,-722.5 564,-722.5 564,-703.5 490,-703.5"/>
<text text-anchor="middle" x="527" y="-710.5" font-family="Helvetica,sans-Serif" font-size="10.00">lua_newstate</text>
</a>
</g>
</g>
<!-- Node19&#45;&gt;Node20 -->
<g id="edge22" class="edge"><title>Node19&#45;&gt;Node20</title>
<path fill="none" stroke="midnightblue" d="M431.265,-713C449.718,-713 471.655,-713 489.77,-713"/>
<polygon fill="midnightblue" stroke="midnightblue" points="431.139,-709.5 421.139,-713 431.139,-716.5 431.139,-709.5"/>
</g>
<!-- Node22 -->
<g id="node22" class="node"><title>Node22</title>
<g id="a_node22"><a xlink:href="../../da/d29/lauxlib_8h.html#a2b69e67252d95df410818251f4b2d8e5" target="_top" xlink:title="luaL_ref">
<polygon fill="none" stroke="black" points="366.5,-665.5 366.5,-684.5 416.5,-684.5 416.5,-665.5 366.5,-665.5"/>
<text text-anchor="middle" x="391.5" y="-672.5" font-family="Helvetica,sans-Serif" font-size="10.00">luaL_ref</text>
</a>
</g>
</g>
<!-- Node21&#45;&gt;Node22 -->
<g id="edge24" class="edge"><title>Node21&#45;&gt;Node22</title>
<path fill="none" stroke="midnightblue" d="M299.23,-538.36C300.574,-539.492 301.84,-540.704 303,-542 338.445,-581.582 302.333,-617.547 339,-656 346.234,-663.587 356.76,-668.162 366.413,-670.912"/>
<polygon fill="midnightblue" stroke="midnightblue" points="301.087,-535.391 290.84,-532.702 297.174,-541.195 301.087,-535.391"/>
</g>
<!-- Node23 -->
<g id="node23" class="node"><title>Node23</title>
<g id="a_node23"><a xlink:href="../../da/d29/lauxlib_8h.html#a6200030ecae784852045161274501e0e" target="_top" xlink:title="luaL_unref">
<polygon fill="none" stroke="black" points="361.5,-627.5 361.5,-646.5 421.5,-646.5 421.5,-627.5 361.5,-627.5"/>
<text text-anchor="middle" x="391.5" y="-634.5" font-family="Helvetica,sans-Serif" font-size="10.00">luaL_unref</text>
</a>
</g>
</g>
<!-- Node21&#45;&gt;Node23 -->
<g id="edge25" class="edge"><title>Node21&#45;&gt;Node23</title>
<path fill="none" stroke="midnightblue" d="M298.33,-538.051C299.984,-539.276 301.553,-540.591 303,-542 329.774,-568.079 311.423,-592.772 339,-618 345.258,-623.725 353.389,-627.766 361.335,-630.601"/>
<polygon fill="midnightblue" stroke="midnightblue" points="299.877,-534.895 289.523,-532.652 296.218,-540.862 299.877,-534.895"/>
</g>
<!-- Node24 -->
<g id="node24" class="node"><title>Node24</title>
<g id="a_node24"><a xlink:href="../../d2/d82/loadlib_8c.html#a7a6ec2174d2de185431876163cd2d469" target="_top" xlink:title="ll_addtoclib">
<polygon fill="none" stroke="black" points="360.5,-475.5 360.5,-494.5 422.5,-494.5 422.5,-475.5 360.5,-475.5"/>
<text text-anchor="middle" x="391.5" y="-482.5" font-family="Helvetica,sans-Serif" font-size="10.00">ll_addtoclib</text>
</a>
</g>
</g>
<!-- Node21&#45;&gt;Node24 -->
<g id="edge26" class="edge"><title>Node21&#45;&gt;Node24</title>
<path fill="none" stroke="midnightblue" d="M301.236,-510.993C320.316,-505.437 342.579,-498.954 360.099,-493.852"/>
<polygon fill="midnightblue" stroke="midnightblue" points="300.213,-507.645 291.59,-513.801 302.17,-514.366 300.213,-507.645"/>
</g>
<!-- Node26 -->
<g id="node26" class="node"><title>Node26</title>
<g id="a_node26"><a xlink:href="../../d2/d82/loadlib_8c.html#a8fc66c8b852ee2960dc20797521d1d9e" target="_top" xlink:title="createsearcherstable">
<polygon fill="none" stroke="black" points="339.5,-399.5 339.5,-418.5 443.5,-418.5 443.5,-399.5 339.5,-399.5"/>
<text text-anchor="middle" x="391.5" y="-406.5" font-family="Helvetica,sans-Serif" font-size="10.00">createsearcherstable</text>
</a>
</g>
</g>
<!-- Node21&#45;&gt;Node26 -->
<g id="edge28" class="edge"><title>Node21&#45;&gt;Node26</title>
<path fill="none" stroke="midnightblue" d="M271.098,-504.503C284.676,-483.309 309.53,-448.829 339,-428 344.37,-424.205 350.586,-421.075 356.803,-418.528"/>
<polygon fill="midnightblue" stroke="midnightblue" points="267.992,-502.87 265.677,-513.209 273.934,-506.57 267.992,-502.87"/>
</g>
<!-- Node28 -->
<g id="node28" class="node"><title>Node28</title>
<g id="a_node28"><a xlink:href="../../d0/da1/ltablib_8c.html#a214ed6966e2b1b4c376ab0de0d09032e" target="_top" xlink:title="tinsert">
<polygon fill="none" stroke="black" points="371,-551.5 371,-570.5 412,-570.5 412,-551.5 371,-551.5"/>
<text text-anchor="middle" x="391.5" y="-558.5" font-family="Helvetica,sans-Serif" font-size="10.00">tinsert</text>
</a>
</g>
</g>
<!-- Node21&#45;&gt;Node28 -->
<g id="edge30" class="edge"><title>Node21&#45;&gt;Node28</title>
<path fill="none" stroke="midnightblue" d="M301.243,-535.01C324.543,-541.794 352.589,-549.961 370.945,-555.306"/>
<polygon fill="midnightblue" stroke="midnightblue" points="302.17,-531.634 291.59,-532.199 300.213,-538.355 302.17,-531.634"/>
</g>
<!-- Node29 -->
<g id="node29" class="node"><title>Node29</title>
<g id="a_node29"><a xlink:href="../../d0/da1/ltablib_8c.html#ad8c41fe887a472709c6fdf075ba39d56" target="_top" xlink:title="tremove">
<polygon fill="none" stroke="black" points="366.5,-513.5 366.5,-532.5 416.5,-532.5 416.5,-513.5 366.5,-513.5"/>
<text text-anchor="middle" x="391.5" y="-520.5" font-family="Helvetica,sans-Serif" font-size="10.00">tremove</text>
</a>
</g>
</g>
<!-- Node21&#45;&gt;Node29 -->
<g id="edge31" class="edge"><title>Node21&#45;&gt;Node29</title>
<path fill="none" stroke="midnightblue" d="M301.67,-523C322.932,-523 348.053,-523 366.145,-523"/>
<polygon fill="midnightblue" stroke="midnightblue" points="301.59,-519.5 291.59,-523 301.59,-526.5 301.59,-519.5"/>
</g>
<!-- Node30 -->
<g id="node30" class="node"><title>Node30</title>
<g id="a_node30"><a xlink:href="../../d0/da1/ltablib_8c.html#a46a372295cbd1692b06bdbac4ca58881" target="_top" xlink:title="pack">
<polygon fill="none" stroke="black" points="372.5,-437.5 372.5,-456.5 410.5,-456.5 410.5,-437.5 372.5,-437.5"/>
<text text-anchor="middle" x="391.5" y="-444.5" font-family="Helvetica,sans-Serif" font-size="10.00">pack</text>
</a>
</g>
</g>
<!-- Node21&#45;&gt;Node30 -->
<g id="edge32" class="edge"><title>Node21&#45;&gt;Node30</title>
<path fill="none" stroke="midnightblue" d="M278.893,-507.106C294.322,-494.7 317.083,-477.669 339,-466 349.599,-460.357 362.241,-455.666 372.346,-452.357"/>
<polygon fill="midnightblue" stroke="midnightblue" points="276.652,-504.418 271.128,-513.459 281.084,-509.836 276.652,-504.418"/>
</g>
<!-- Node31 -->
<g id="node31" class="node"><title>Node31</title>
<g id="a_node31"><a xlink:href="../../d0/da1/ltablib_8c.html#a1172f96899917b7ea1702947b745eca6" target="_top" xlink:title="set2">
<polygon fill="none" stroke="black" points="374,-589.5 374,-608.5 409,-608.5 409,-589.5 374,-589.5"/>
<text text-anchor="middle" x="391.5" y="-596.5" font-family="Helvetica,sans-Serif" font-size="10.00">set2</text>
</a>
</g>
</g>
<!-- Node21&#45;&gt;Node31 -->
<g id="edge33" class="edge"><title>Node21&#45;&gt;Node31</title>
<path fill="none" stroke="midnightblue" d="M295.451,-537.273C298.076,-538.747 300.624,-540.324 303,-542 322.012,-555.408 319.578,-567.194 339,-580 349.661,-587.03 363.272,-591.906 373.823,-594.957"/>
<polygon fill="midnightblue" stroke="midnightblue" points="296.865,-534.066 286.363,-532.668 293.701,-540.31 296.865,-534.066"/>
</g>
<!-- Node25 -->
<g id="node25" class="node"><title>Node25</title>
<g id="a_node25"><a xlink:href="../../d2/d82/loadlib_8c.html#a21b83479d4a62aa393b19bcb08e71889" target="_top" xlink:title="ll_loadfunc">
<polygon fill="none" stroke="red" points="497,-475.5 497,-494.5 557,-494.5 557,-475.5 497,-475.5"/>
<text text-anchor="middle" x="527" y="-482.5" font-family="Helvetica,sans-Serif" font-size="10.00">ll_loadfunc</text>
</a>
</g>
</g>
<!-- Node24&#45;&gt;Node25 -->
<g id="edge27" class="edge"><title>Node24&#45;&gt;Node25</title>
<path fill="none" stroke="midnightblue" d="M432.837,-485C453.421,-485 478.001,-485 496.744,-485"/>
<polygon fill="midnightblue" stroke="midnightblue" points="432.793,-481.5 422.793,-485 432.793,-488.5 432.793,-481.5"/>
</g>
<!-- Node27 -->
<g id="node27" class="node"><title>Node27</title>
<g id="a_node27"><a xlink:href="../../d6/d07/lualib_8h.html#a05e0befc0439f926b6152129ab4f8dea" target="_top" xlink:title="luaopen_package">
<polygon fill="none" stroke="black" points="480,-380.5 480,-399.5 574,-399.5 574,-380.5 480,-380.5"/>
<text text-anchor="middle" x="527" y="-387.5" font-family="Helvetica,sans-Serif" font-size="10.00">luaopen_package</text>
</a>
</g>
</g>
<!-- Node26&#45;&gt;Node27 -->
<g id="edge29" class="edge"><title>Node26&#45;&gt;Node27</title>
<path fill="none" stroke="midnightblue" d="M453.913,-400.26C462.664,-399.014 471.538,-397.751 479.928,-396.557"/>
<polygon fill="midnightblue" stroke="midnightblue" points="453.14,-396.834 443.733,-401.708 454.126,-403.764 453.14,-396.834"/>
</g>
<!-- Node32 -->
<g id="node32" class="node"><title>Node32</title>
<g id="a_node32"><a xlink:href="../../d0/da1/ltablib_8c.html#a40096c011a188a26849b68cd9d5d920e" target="_top" xlink:title="auxsort">
<polygon fill="none" stroke="red" points="503,-589.5 503,-608.5 551,-608.5 551,-589.5 503,-589.5"/>
<text text-anchor="middle" x="527" y="-596.5" font-family="Helvetica,sans-Serif" font-size="10.00">auxsort</text>
</a>
</g>
</g>
<!-- Node31&#45;&gt;Node32 -->
<g id="edge34" class="edge"><title>Node31&#45;&gt;Node32</title>
<path fill="none" stroke="midnightblue" d="M419.18,-599C443.666,-599 479.572,-599 502.869,-599"/>
<polygon fill="midnightblue" stroke="midnightblue" points="419.138,-595.5 409.138,-599 419.138,-602.5 419.138,-595.5"/>
</g>
<!-- Node33&#45;&gt;Node18 -->
<g id="edge44" class="edge"><title>Node33&#45;&gt;Node18</title>
<path fill="none" stroke="midnightblue" d="M140.877,-323.553C143.873,-367.897 157.062,-477.259 215,-542 218.483,-545.892 222.913,-549.026 227.597,-551.537"/>
<polygon fill="midnightblue" stroke="midnightblue" points="144.369,-323.307 140.304,-313.523 137.38,-323.707 144.369,-323.307"/>
</g>
<!-- Node34 -->
<g id="node34" class="node"><title>Node34</title>
<g id="a_node34"><a xlink:href="../../da/dd2/lua_8h.html#a022ddaeee46ccb89860c78480e54db05" target="_top" xlink:title="lua_createtable">
<polygon fill="none" stroke="black" points="218.5,-322.5 218.5,-341.5 299.5,-341.5 299.5,-322.5 218.5,-322.5"/>
<text text-anchor="middle" x="259" y="-329.5" font-family="Helvetica,sans-Serif" font-size="10.00">lua_createtable</text>
</a>
</g>
</g>
<!-- Node33&#45;&gt;Node34 -->
<g id="edge36" class="edge"><title>Node33&#45;&gt;Node34</title>
<path fill="none" stroke="midnightblue" d="M182.243,-314.024C193.961,-316.804 206.642,-319.813 218.215,-322.56"/>
<polygon fill="midnightblue" stroke="midnightblue" points="182.782,-310.555 172.244,-311.651 181.166,-317.365 182.782,-310.555"/>
</g>
<!-- Node37 -->
<g id="node37" class="node"><title>Node37</title>
<g id="a_node37"><a xlink:href="../../d3/d44/ltable_8h.html#a243b2c9dd8755c68559af6b7065b1800" target="_top" xlink:title="luaH_resizearray">
<polygon fill="none" stroke="black" points="215,-218.5 215,-237.5 303,-237.5 303,-218.5 215,-218.5"/>
<text text-anchor="middle" x="259" y="-225.5" font-family="Helvetica,sans-Serif" font-size="10.00">luaH_resizearray</text>
</a>
</g>
</g>
<!-- Node33&#45;&gt;Node37 -->
<g id="edge45" class="edge"><title>Node33&#45;&gt;Node37</title>
<path fill="none" stroke="midnightblue" d="M163.378,-288.943C187.104,-273.662 223.114,-250.469 243.177,-237.547"/>
<polygon fill="midnightblue" stroke="midnightblue" points="161.457,-286.017 154.945,-294.375 165.247,-291.902 161.457,-286.017"/>
</g>
<!-- Node33&#45;&gt;Node38 -->
<g id="edge63" class="edge"><title>Node33&#45;&gt;Node38</title>
<path fill="none" stroke="midnightblue" d="M182.107,-295.7C216.773,-287.425 266.05,-272.24 303,-247 323.301,-233.133 319.415,-219.862 339,-205 346.622,-199.216 355.862,-194.37 364.399,-190.581"/>
<polygon fill="midnightblue" stroke="midnightblue" points="181.258,-292.304 172.294,-297.951 182.824,-299.126 181.258,-292.304"/>
</g>
<!-- Node49 -->
<g id="node49" class="node"><title>Node49</title>
<g id="a_node49"><a xlink:href="../../dc/d1e/ltable_8c.html#ad775daa2a19a375c7385ed30834a3eeb" target="_top" xlink:title="rehash">
<polygon fill="none" stroke="black" points="236,-135.5 236,-154.5 282,-154.5 282,-135.5 236,-135.5"/>
<text text-anchor="middle" x="259" y="-142.5" font-family="Helvetica,sans-Serif" font-size="10.00">rehash</text>
</a>
</g>
</g>
<!-- Node33&#45;&gt;Node49 -->
<g id="edge61" class="edge"><title>Node33&#45;&gt;Node49</title>
<path fill="none" stroke="midnightblue" d="M153.385,-285.964C178.465,-252.17 231.729,-180.399 250.921,-154.538"/>
<polygon fill="midnightblue" stroke="midnightblue" points="150.53,-283.938 147.381,-294.054 156.152,-288.109 150.53,-283.938"/>
</g>
<!-- Node34&#45;&gt;Node7 -->
<g id="edge41" class="edge"><title>Node34&#45;&gt;Node7</title>
<path fill="none" stroke="midnightblue" d="M274.881,-314.381C283.168,-304.562 293.666,-292.11 303,-281 319.033,-261.917 316.417,-248.546 339,-238 381.283,-218.254 399.204,-224.919 444,-238 611.608,-286.943 736.574,-486.396 763.562,-532.47"/>
<polygon fill="midnightblue" stroke="midnightblue" points="272.03,-312.333 268.253,-322.231 277.379,-316.848 272.03,-312.333"/>
</g>
<!-- Node34&#45;&gt;Node8 -->
<g id="edge38" class="edge"><title>Node34&#45;&gt;Node8</title>
<path fill="none" stroke="midnightblue" d="M309.826,-321.669C379.135,-310.491 503.996,-302.462 574,-371 629.236,-425.079 648.525,-687.596 651.926,-741.366"/>
<polygon fill="midnightblue" stroke="midnightblue" points="308.878,-318.28 299.606,-323.405 310.051,-325.181 308.878,-318.28"/>
</g>
<!-- Node34&#45;&gt;Node26 -->
<g id="edge39" class="edge"><title>Node34&#45;&gt;Node26</title>
<path fill="none" stroke="midnightblue" d="M281.41,-347.684C296.985,-358.763 318.797,-373.606 339,-385 348.279,-390.233 358.895,-395.322 368.068,-399.458"/>
<polygon fill="midnightblue" stroke="midnightblue" points="283.182,-344.647 273.02,-341.651 279.095,-350.331 283.182,-344.647"/>
</g>
<!-- Node34&#45;&gt;Node27 -->
<g id="edge40" class="edge"><title>Node34&#45;&gt;Node27</title>
<path fill="none" stroke="midnightblue" d="M309.402,-342.772C359.021,-353.591 434.752,-370.104 482.261,-380.463"/>
<polygon fill="midnightblue" stroke="midnightblue" points="310.052,-339.331 299.536,-340.621 308.56,-346.171 310.052,-339.331"/>
</g>
<!-- Node34&#45;&gt;Node30 -->
<g id="edge43" class="edge"><title>Node34&#45;&gt;Node30</title>
<path fill="none" stroke="midnightblue" d="M270.844,-350.366C284.331,-371.758 309.248,-406.857 339,-428 348.943,-435.066 361.818,-439.816 372.208,-442.8"/>
<polygon fill="midnightblue" stroke="midnightblue" points="273.683,-348.301 265.475,-341.601 267.714,-351.957 273.683,-348.301"/>
</g>
<!-- Node35 -->
<g id="node35" class="node"><title>Node35</title>
<g id="a_node35"><a xlink:href="../../d1/dc2/_kensho_lua_wrapper_8m.html#ac812f3eb3f83c6ada24f2dadeced6d68" target="_top" xlink:title="pushValue">
<polygon fill="none" stroke="red" points="360,-247.5 360,-266.5 423,-266.5 423,-247.5 360,-247.5"/>
<text text-anchor="middle" x="391.5" y="-254.5" font-family="Helvetica,sans-Serif" font-size="10.00">pushValue</text>
</a>
</g>
</g>
<!-- Node34&#45;&gt;Node35 -->
<g id="edge37" class="edge"><title>Node34&#45;&gt;Node35</title>
<path fill="none" stroke="midnightblue" d="M279.637,-315.859C295.073,-303.735 317.492,-287.336 339,-276 345.745,-272.445 353.303,-269.257 360.508,-266.553"/>
<polygon fill="midnightblue" stroke="midnightblue" points="277.039,-313.455 271.414,-322.434 281.41,-318.922 277.039,-313.455"/>
</g>
<!-- Node36 -->
<g id="node36" class="node"><title>Node36</title>
<g id="a_node36"><a xlink:href="../../dc/d77/lstrlib_8c.html#a16d034da6b46e6beae228472f26ec07b" target="_top" xlink:title="createmetatable">
<polygon fill="none" stroke="red" points="349.5,-285.5 349.5,-304.5 433.5,-304.5 433.5,-285.5 349.5,-285.5"/>
<text text-anchor="middle" x="391.5" y="-292.5" font-family="Helvetica,sans-Serif" font-size="10.00">createmetatable</text>
</a>
</g>
</g>
<!-- Node34&#45;&gt;Node36 -->
<g id="edge42" class="edge"><title>Node34&#45;&gt;Node36</title>
<path fill="none" stroke="midnightblue" d="M303.474,-319.674C320.758,-314.774 340.345,-309.22 356.553,-304.625"/>
<polygon fill="midnightblue" stroke="midnightblue" points="302.273,-316.377 293.607,-322.472 304.183,-323.111 302.273,-316.377"/>
</g>
<!-- Node37&#45;&gt;Node38 -->
<g id="edge46" class="edge"><title>Node37&#45;&gt;Node38</title>
<path fill="none" stroke="midnightblue" d="M295.838,-215.093C317.278,-207.371 344.077,-197.719 363.683,-190.658"/>
<polygon fill="midnightblue" stroke="midnightblue" points="294.631,-211.807 286.409,-218.489 297.003,-218.393 294.631,-211.807"/>
</g>
<!-- Node39 -->
<g id="node39" class="node"><title>Node39</title>
<g id="a_node39"><a xlink:href="../../d2/dd9/ldo_8h.html#a7bb0b106d4012134156e0fa240f51228" target="_top" xlink:title="luaD_call">
<polygon fill="none" stroke="black" points="499,-171.5 499,-190.5 555,-190.5 555,-171.5 499,-171.5"/>
<text text-anchor="middle" x="527" y="-178.5" font-family="Helvetica,sans-Serif" font-size="10.00">luaD_call</text>
</a>
</g>
</g>
<!-- Node38&#45;&gt;Node39 -->
<g id="edge47" class="edge"><title>Node38&#45;&gt;Node39</title>
<path fill="none" stroke="midnightblue" d="M438.796,-174.54C458.797,-173.956 481.51,-174.254 498.742,-175.435"/>
<polygon fill="midnightblue" stroke="midnightblue" points="438.487,-171.049 428.627,-174.926 438.753,-178.044 438.487,-171.049"/>
</g>
<!-- Node46 -->
<g id="node46" class="node"><title>Node46</title>
<g id="a_node46"><a xlink:href="../../d3/d08/ldo_8c.html#a3baab9d298c0c32cb74a9a079d7244de" target="_top" xlink:title="unroll">
<polygon fill="none" stroke="black" points="508,-19.5 508,-38.5 546,-38.5 546,-19.5 508,-19.5"/>
<text text-anchor="middle" x="527" y="-26.5" font-family="Helvetica,sans-Serif" font-size="10.00">unroll</text>
</a>
</g>
</g>
<!-- Node38&#45;&gt;Node46 -->
<g id="edge56" class="edge"><title>Node38&#45;&gt;Node46</title>
<path fill="none" stroke="midnightblue" d="M437.651,-166.786C439.902,-165.338 442.038,-163.747 444,-162 470.424,-138.472 461.393,-121.092 480,-91 491.983,-71.6205 508.336,-50.6387 517.971,-38.7286"/>
<polygon fill="midnightblue" stroke="midnightblue" points="435.68,-163.872 428.532,-171.694 438.997,-170.036 435.68,-163.872"/>
</g>
<!-- Node48 -->
<g id="node48" class="node"><title>Node48</title>
<g id="a_node48"><a xlink:href="../../d3/d08/ldo_8c.html#abd7632c715de5db6e7797b7fa3f7010f" target="_top" xlink:title="resume">
<polygon fill="none" stroke="black" points="630,-19.5 630,-38.5 677,-38.5 677,-19.5 630,-19.5"/>
<text text-anchor="middle" x="653.5" y="-26.5" font-family="Helvetica,sans-Serif" font-size="10.00">resume</text>
</a>
</g>
</g>
<!-- Node38&#45;&gt;Node48 -->
<g id="edge60" class="edge"><title>Node38&#45;&gt;Node48</title>
<path fill="none" stroke="midnightblue" d="M431.523,-167.783C435.8,-165.988 440.037,-164.051 444,-162 523.485,-120.861 531.937,-91.7771 610,-48 616.203,-44.5211 623.164,-41.1889 629.628,-38.3135"/>
<polygon fill="midnightblue" stroke="midnightblue" points="430.196,-164.544 422.184,-171.477 432.771,-171.053 430.196,-164.544"/>
</g>
<!-- Node39&#45;&gt;Node38 -->
<g id="edge55" class="edge"><title>Node39&#45;&gt;Node38</title>
<path fill="none" stroke="midnightblue" d="M488.753,-187.126C469.96,-187.975 447.261,-187.958 428.627,-187.074"/>
<polygon fill="midnightblue" stroke="midnightblue" points="488.953,-190.62 498.742,-186.565 488.561,-183.631 488.953,-190.62"/>
</g>
<!-- Node40 -->
<g id="node40" class="node"><title>Node40</title>
<g id="a_node40"><a xlink:href="../../dd/d4a/lvm_8c.html#aa904883a58699d9c6ef4d6f0f45037f6" target="_top" xlink:title="callTM">
<polygon fill="none" stroke="red" points="631.5,-171.5 631.5,-190.5 675.5,-190.5 675.5,-171.5 631.5,-171.5"/>
<text text-anchor="middle" x="653.5" y="-178.5" font-family="Helvetica,sans-Serif" font-size="10.00">callTM</text>
</a>
</g>
</g>
<!-- Node39&#45;&gt;Node40 -->
<g id="edge48" class="edge"><title>Node39&#45;&gt;Node40</title>
<path fill="none" stroke="midnightblue" d="M565.174,-181C586.777,-181 613.219,-181 631.31,-181"/>
<polygon fill="midnightblue" stroke="midnightblue" points="565.015,-177.5 555.015,-181 565.015,-184.5 565.015,-177.5"/>
</g>
<!-- Node41 -->
<g id="node41" class="node"><title>Node41</title>
<g id="a_node41"><a xlink:href="../../de/d27/lgc_8c.html#a929058f72c03750fa82374f6bfa639ee" target="_top" xlink:title="dothecall">
<polygon fill="none" stroke="red" points="627,-133.5 627,-152.5 680,-152.5 680,-133.5 627,-133.5"/>
<text text-anchor="middle" x="653.5" y="-140.5" font-family="Helvetica,sans-Serif" font-size="10.00">dothecall</text>
</a>
</g>
</g>
<!-- Node39&#45;&gt;Node41 -->
<g id="edge49" class="edge"><title>Node39&#45;&gt;Node41</title>
<path fill="none" stroke="midnightblue" d="M564.72,-169.792C584.683,-163.699 608.884,-156.313 626.814,-150.84"/>
<polygon fill="midnightblue" stroke="midnightblue" points="563.557,-166.488 555.015,-172.755 565.601,-173.183 563.557,-166.488"/>
</g>
<!-- Node42 -->
<g id="node42" class="node"><title>Node42</title>
<g id="a_node42"><a xlink:href="../../df/db6/lapi_8c.html#ac3926c93fb08234f9f47e24653124910" target="_top" xlink:title="f_call">
<polygon fill="none" stroke="black" points="634.5,-209.5 634.5,-228.5 672.5,-228.5 672.5,-209.5 634.5,-209.5"/>
<text text-anchor="middle" x="653.5" y="-216.5" font-family="Helvetica,sans-Serif" font-size="10.00">f_call</text>
</a>
</g>
</g>
<!-- Node39&#45;&gt;Node42 -->
<g id="edge50" class="edge"><title>Node39&#45;&gt;Node42</title>
<path fill="none" stroke="midnightblue" d="M564.776,-192.225C587.706,-199.223 616.208,-207.923 634.38,-213.469"/>
<polygon fill="midnightblue" stroke="midnightblue" points="565.601,-188.817 555.015,-189.245 563.557,-195.512 565.601,-188.817"/>
</g>
<!-- Node43 -->
<g id="node43" class="node"><title>Node43</title>
<g id="a_node43"><a xlink:href="../../da/dd2/lua_8h.html#a3c4de08aa665eaee4aabd330aa99a441" target="_top" xlink:title="lua_pcallk">
<polygon fill="none" stroke="red" points="740.5,-228.5 740.5,-247.5 799.5,-247.5 799.5,-228.5 740.5,-228.5"/>
<text text-anchor="middle" x="770" y="-235.5" font-family="Helvetica,sans-Serif" font-size="10.00">lua_pcallk</text>
</a>
</g>
</g>
<!-- Node39&#45;&gt;Node43 -->
<g id="edge53" class="edge"><title>Node39&#45;&gt;Node43</title>
<path fill="none" stroke="midnightblue" d="M545.191,-197.71C560.7,-211.532 584.874,-230.125 610,-238 653.857,-251.746 707.924,-247.611 740.368,-243.04"/>
<polygon fill="midnightblue" stroke="midnightblue" points="547.237,-194.835 537.516,-190.62 542.487,-199.977 547.237,-194.835"/>
</g>
<!-- Node44 -->
<g id="node44" class="node"><title>Node44</title>
<g id="a_node44"><a xlink:href="../../da/dd2/lua_8h.html#aa6aba1fd89ac6f1c5ccfdfd12f826d80" target="_top" xlink:title="lua_callk">
<polygon fill="none" stroke="red" points="627,-95.5 627,-114.5 680,-114.5 680,-95.5 627,-95.5"/>
<text text-anchor="middle" x="653.5" y="-102.5" font-family="Helvetica,sans-Serif" font-size="10.00">lua_callk</text>
</a>
</g>
</g>
<!-- Node39&#45;&gt;Node44 -->
<g id="edge52" class="edge"><title>Node39&#45;&gt;Node44</title>
<path fill="none" stroke="midnightblue" d="M548.491,-165.146C564.668,-153.032 588.089,-136.369 610,-124 615.912,-120.662 622.52,-117.47 628.731,-114.686"/>
<polygon fill="midnightblue" stroke="midnightblue" points="546.159,-162.522 540.304,-171.352 550.388,-168.1 546.159,-162.522"/>
</g>
<!-- Node45 -->
<g id="node45" class="node"><title>Node45</title>
<g id="a_node45"><a xlink:href="../../db/d46/ldebug_8h.html#acd5ef9f67a8e9d08f6540636fdbeafe6" target="_top" xlink:title="luaG_errormsg">
<polygon fill="none" stroke="red" points="614.5,-57.5 614.5,-76.5 692.5,-76.5 692.5,-57.5 614.5,-57.5"/>
<text text-anchor="middle" x="653.5" y="-64.5" font-family="Helvetica,sans-Serif" font-size="10.00">luaG_errormsg</text>
</a>
</g>
</g>
<!-- Node39&#45;&gt;Node45 -->
<g id="edge54" class="edge"><title>Node39&#45;&gt;Node45</title>
<path fill="none" stroke="midnightblue" d="M539.935,-162.872C554.422,-142.027 580.591,-107.877 610,-86 614.928,-82.3339 620.676,-79.17 626.323,-76.5332"/>
<polygon fill="midnightblue" stroke="midnightblue" points="536.853,-161.182 534.132,-171.421 542.644,-165.114 536.853,-161.182"/>
</g>
<!-- Node42&#45;&gt;Node43 -->
<g id="edge51" class="edge"><title>Node42&#45;&gt;Node43</title>
<path fill="none" stroke="midnightblue" d="M682.812,-223.698C700.297,-226.599 722.668,-230.312 740.236,-233.227"/>
<polygon fill="midnightblue" stroke="midnightblue" points="683.081,-220.195 672.643,-222.011 681.935,-227.1 683.081,-220.195"/>
</g>
<!-- Node47 -->
<g id="node47" class="node"><title>Node47</title>
<g id="a_node47"><a xlink:href="../../da/dd2/lua_8h.html#a434479f022eda738b99000aad5ddd929" target="_top" xlink:title="lua_resume">
<polygon fill="none" stroke="red" points="737.5,-0.5 737.5,-19.5 802.5,-19.5 802.5,-0.5 737.5,-0.5"/>
<text text-anchor="middle" x="770" y="-7.5" font-family="Helvetica,sans-Serif" font-size="10.00">lua_resume</text>
</a>
</g>
</g>
<!-- Node46&#45;&gt;Node47 -->
<g id="edge57" class="edge"><title>Node46&#45;&gt;Node47</title>
<path fill="none" stroke="midnightblue" d="M555.686,-20.9281C571.451,-16.7512 591.659,-12.0971 610,-10 653.881,-4.98272 705.02,-6.23704 737.204,-7.88333"/>
<polygon fill="midnightblue" stroke="midnightblue" points="554.751,-17.555 546.031,-23.5723 556.6,-24.3064 554.751,-17.555"/>
</g>
<!-- Node46&#45;&gt;Node48 -->
<g id="edge58" class="edge"><title>Node46&#45;&gt;Node48</title>
<path fill="none" stroke="midnightblue" d="M556.265,-29C578.49,-29 609.051,-29 629.724,-29"/>
<polygon fill="midnightblue" stroke="midnightblue" points="556.103,-25.5001 546.103,-29 556.103,-32.5001 556.103,-25.5001"/>
</g>
<!-- Node48&#45;&gt;Node47 -->
<g id="edge59" class="edge"><title>Node48&#45;&gt;Node47</title>
<path fill="none" stroke="midnightblue" d="M687.429,-23.5358C703.118,-20.9324 721.8,-17.8324 737.324,-15.2563"/>
<polygon fill="midnightblue" stroke="midnightblue" points="686.414,-20.1563 677.122,-25.2462 687.56,-27.0619 686.414,-20.1563"/>
</g>
<!-- Node50 -->
<g id="node50" class="node"><title>Node50</title>
<g id="a_node50"><a xlink:href="../../d3/d44/ltable_8h.html#a61547e63b2d74aa68da53a7fd235e77e" target="_top" xlink:title="luaH_newkey">
<polygon fill="none" stroke="red" points="354,-133.5 354,-152.5 429,-152.5 429,-133.5 354,-133.5"/>
<text text-anchor="middle" x="391.5" y="-140.5" font-family="Helvetica,sans-Serif" font-size="10.00">luaH_newkey</text>
</a>
</g>
</g>
<!-- Node49&#45;&gt;Node50 -->
<g id="edge62" class="edge"><title>Node49&#45;&gt;Node50</title>
<path fill="none" stroke="midnightblue" d="M292.233,-144.506C310.927,-144.22 334.53,-143.858 353.918,-143.561"/>
<polygon fill="midnightblue" stroke="midnightblue" points="292.083,-141.008 282.138,-144.661 292.19,-148.007 292.083,-141.008"/>
</g>
</g>
</svg>
