<?xml version="1.0" encoding="UTF-8" standalone="no"?>
<!DOCTYPE svg PUBLIC "-//W3C//DTD SVG 1.1//EN"
 "http://www.w3.org/Graphics/SVG/1.1/DTD/svg11.dtd">
<!-- Generated by graphviz version 2.38.0 (20140413.2041)
 -->
<!-- Title: luaH_getstr Pages: 1 -->
<svg width="778pt" height="1072pt"
 viewBox="0.00 0.00 778.00 1072.00" xmlns="http://www.w3.org/2000/svg" xmlns:xlink="http://www.w3.org/1999/xlink">
<g id="graph0" class="graph" transform="scale(1 1) rotate(0) translate(4 1068)">
<title>luaH_getstr</title>
<!-- Node1 -->
<g id="node1" class="node"><title>Node1</title>
<polygon fill="#bfbfbf" stroke="black" points="0,-463.5 0,-482.5 64,-482.5 64,-463.5 0,-463.5"/>
<text text-anchor="middle" x="32" y="-470.5" font-family="Helvetica,sans-Serif" font-size="10.00">luaH_getstr</text>
</g>
<!-- Node2 -->
<g id="node2" class="node"><title>Node2</title>
<g id="a_node2"><a xlink:href="../../d3/d44/ltable_8h.html#ad2db74e05e39b56bde8e580759ac2144" target="_top" xlink:title="luaH_get">
<polygon fill="none" stroke="black" points="104,-543.5 104,-562.5 158,-562.5 158,-543.5 104,-543.5"/>
<text text-anchor="middle" x="131" y="-550.5" font-family="Helvetica,sans-Serif" font-size="10.00">luaH_get</text>
</a>
</g>
</g>
<!-- Node1&#45;&gt;Node2 -->
<g id="edge1" class="edge"><title>Node1&#45;&gt;Node2</title>
<path fill="none" stroke="midnightblue" d="M52.6604,-489.215C72.3659,-505.467 102.046,-529.945 118.312,-543.36"/>
<polygon fill="midnightblue" stroke="midnightblue" points="54.8358,-486.472 44.8941,-482.81 50.3819,-491.872 54.8358,-486.472"/>
</g>
<!-- Node37 -->
<g id="node37" class="node"><title>Node37</title>
<g id="a_node37"><a xlink:href="../../da/de2/ltm_8h.html#a161791309c5c4c2011be595a751d0252" target="_top" xlink:title="luaT_gettm">
<polygon fill="none" stroke="black" points="100,-463.5 100,-482.5 162,-482.5 162,-463.5 100,-463.5"/>
<text text-anchor="middle" x="131" y="-470.5" font-family="Helvetica,sans-Serif" font-size="10.00">luaT_gettm</text>
</a>
</g>
</g>
<!-- Node1&#45;&gt;Node37 -->
<g id="edge43" class="edge"><title>Node1&#45;&gt;Node37</title>
<path fill="none" stroke="midnightblue" d="M74.4136,-473C82.9478,-473 91.7811,-473 99.8258,-473"/>
<polygon fill="midnightblue" stroke="midnightblue" points="74.2254,-469.5 64.2253,-473 74.2253,-476.5 74.2254,-469.5"/>
</g>
<!-- Node38 -->
<g id="node38" class="node"><title>Node38</title>
<g id="a_node38"><a xlink:href="../../da/de2/ltm_8h.html#a838fb2244ed83c7e793d45b6bd06ac73" target="_top" xlink:title="luaT_gettmbyobj">
<polygon fill="none" stroke="black" points="198,-285.5 198,-304.5 285,-304.5 285,-285.5 198,-285.5"/>
<text text-anchor="middle" x="241.5" y="-292.5" font-family="Helvetica,sans-Serif" font-size="10.00">luaT_gettmbyobj</text>
</a>
</g>
</g>
<!-- Node1&#45;&gt;Node38 -->
<g id="edge44" class="edge"><title>Node1&#45;&gt;Node38</title>
<path fill="none" stroke="midnightblue" d="M51.7759,-456.893C94.0091,-420.664 195.438,-333.655 229.289,-304.617"/>
<polygon fill="midnightblue" stroke="midnightblue" points="49.4673,-454.262 44.1561,-463.43 54.0249,-459.575 49.4673,-454.262"/>
</g>
<!-- Node3 -->
<g id="node3" class="node"><title>Node3</title>
<g id="a_node3"><a xlink:href="../../da/dd2/lua_8h.html#af5ed4eb4ccc6e6f7921fdaee8485cb3f" target="_top" xlink:title="lua_rawget">
<polygon fill="none" stroke="black" points="209.5,-892.5 209.5,-911.5 273.5,-911.5 273.5,-892.5 209.5,-892.5"/>
<text text-anchor="middle" x="241.5" y="-899.5" font-family="Helvetica,sans-Serif" font-size="10.00">lua_rawget</text>
</a>
</g>
</g>
<!-- Node2&#45;&gt;Node3 -->
<g id="edge2" class="edge"><title>Node2&#45;&gt;Node3</title>
<path fill="none" stroke="midnightblue" d="M138.051,-572.463C158.209,-637.304 222.644,-844.565 237.448,-892.183"/>
<polygon fill="midnightblue" stroke="midnightblue" points="141.326,-571.209 135.015,-562.699 134.642,-573.287 141.326,-571.209"/>
</g>
<!-- Node13 -->
<g id="node13" class="node"><title>Node13</title>
<g id="a_node13"><a xlink:href="../../da/dd2/lua_8h.html#ad01c4f11b8edd4b4d98ac75eec88299f" target="_top" xlink:title="lua_rawgetp">
<polygon fill="none" stroke="black" points="206.5,-619.5 206.5,-638.5 276.5,-638.5 276.5,-619.5 206.5,-619.5"/>
<text text-anchor="middle" x="241.5" y="-626.5" font-family="Helvetica,sans-Serif" font-size="10.00">lua_rawgetp</text>
</a>
</g>
</g>
<!-- Node2&#45;&gt;Node13 -->
<g id="edge13" class="edge"><title>Node2&#45;&gt;Node13</title>
<path fill="none" stroke="midnightblue" d="M149.059,-570.214C161.77,-582.396 179.974,-598.538 198,-610 203.456,-613.469 209.653,-616.626 215.594,-619.326"/>
<polygon fill="midnightblue" stroke="midnightblue" points="151.151,-567.365 141.557,-562.87 146.254,-572.367 151.151,-567.365"/>
</g>
<!-- Node14 -->
<g id="node14" class="node"><title>Node14</title>
<g id="a_node14"><a xlink:href="../../d3/d44/ltable_8h.html#aad12092dcea6ae55728aadeeb0210d91" target="_top" xlink:title="luaH_set">
<polygon fill="none" stroke="black" points="214.5,-581.5 214.5,-600.5 268.5,-600.5 268.5,-581.5 214.5,-581.5"/>
<text text-anchor="middle" x="241.5" y="-588.5" font-family="Helvetica,sans-Serif" font-size="10.00">luaH_set</text>
</a>
</g>
</g>
<!-- Node2&#45;&gt;Node14 -->
<g id="edge14" class="edge"><title>Node2&#45;&gt;Node14</title>
<path fill="none" stroke="midnightblue" d="M167.894,-565.571C183.116,-570.902 200.523,-576.999 214.477,-581.886"/>
<polygon fill="midnightblue" stroke="midnightblue" points="168.86,-562.201 158.265,-562.199 166.546,-568.808 168.86,-562.201"/>
</g>
<!-- Node29 -->
<g id="node29" class="node"><title>Node29</title>
<g id="a_node29"><a xlink:href="../../d5/dcd/lvm_8h.html#a5885d48fd66eb236f8b8f6e4938cbcce" target="_top" xlink:title="luaV_settable">
<polygon fill="none" stroke="black" points="463,-512.5 463,-531.5 538,-531.5 538,-512.5 463,-512.5"/>
<text text-anchor="middle" x="500.5" y="-519.5" font-family="Helvetica,sans-Serif" font-size="10.00">luaV_settable</text>
</a>
</g>
</g>
<!-- Node2&#45;&gt;Node29 -->
<g id="edge42" class="edge"><title>Node2&#45;&gt;Node29</title>
<path fill="none" stroke="midnightblue" d="M168.348,-548.986C206.379,-544.87 267.832,-538.458 321,-534 370.057,-529.886 426.793,-526.267 462.894,-524.106"/>
<polygon fill="midnightblue" stroke="midnightblue" points="167.832,-545.521 158.269,-550.082 168.589,-552.48 167.832,-545.521"/>
</g>
<!-- Node33 -->
<g id="node33" class="node"><title>Node33</title>
<g id="a_node33"><a xlink:href="../../d5/dcd/lvm_8h.html#adacdbccc9d8fab937a1b0dc058c8da12" target="_top" xlink:title="luaV_gettable">
<polygon fill="none" stroke="black" points="328,-401.5 328,-420.5 403,-420.5 403,-401.5 328,-401.5"/>
<text text-anchor="middle" x="365.5" y="-408.5" font-family="Helvetica,sans-Serif" font-size="10.00">luaV_gettable</text>
</a>
</g>
</g>
<!-- Node2&#45;&gt;Node33 -->
<g id="edge37" class="edge"><title>Node2&#45;&gt;Node33</title>
<path fill="none" stroke="midnightblue" d="M150.933,-536.657C163.786,-525.926 181.4,-511.91 198,-501 248.388,-467.884 312.088,-436.001 344.126,-420.598"/>
<polygon fill="midnightblue" stroke="midnightblue" points="148.609,-534.039 143.233,-543.169 153.129,-539.384 148.609,-534.039"/>
</g>
<!-- Node4 -->
<g id="node4" class="node"><title>Node4</title>
<g id="a_node4"><a xlink:href="../../da/d29/lauxlib_8h.html#aed3f129411ba1ec14f813d650f16384d" target="_top" xlink:title="luaL_getmetafield">
<polygon fill="none" stroke="black" points="321,-968.5 321,-987.5 410,-987.5 410,-968.5 321,-968.5"/>
<text text-anchor="middle" x="365.5" y="-975.5" font-family="Helvetica,sans-Serif" font-size="10.00">luaL_getmetafield</text>
</a>
</g>
</g>
<!-- Node3&#45;&gt;Node4 -->
<g id="edge3" class="edge"><title>Node3&#45;&gt;Node4</title>
<path fill="none" stroke="midnightblue" d="M262.145,-918.109C277.555,-930.28 299.862,-946.899 321,-959 327.008,-962.439 333.756,-965.667 340.113,-968.452"/>
<polygon fill="midnightblue" stroke="midnightblue" points="263.922,-915.048 253.93,-911.525 259.544,-920.51 263.922,-915.048"/>
</g>
<!-- Node9 -->
<g id="node9" class="node"><title>Node9</title>
<g id="a_node9"><a xlink:href="../../d8/dd3/lbaselib_8c.html#a248a6847a33f31c69a43a76b6b8bcb4b" target="_top" xlink:title="luaB_rawget">
<polygon fill="none" stroke="black" points="330,-930.5 330,-949.5 401,-949.5 401,-930.5 330,-930.5"/>
<text text-anchor="middle" x="365.5" y="-937.5" font-family="Helvetica,sans-Serif" font-size="10.00">luaB_rawget</text>
</a>
</g>
</g>
<!-- Node3&#45;&gt;Node9 -->
<g id="edge8" class="edge"><title>Node3&#45;&gt;Node9</title>
<path fill="none" stroke="midnightblue" d="M283.211,-914.68C299.695,-919.815 318.41,-925.644 333.724,-930.414"/>
<polygon fill="midnightblue" stroke="midnightblue" points="283.874,-911.221 273.286,-911.589 281.792,-917.905 283.874,-911.221"/>
</g>
<!-- Node10 -->
<g id="node10" class="node"><title>Node10</title>
<g id="a_node10"><a xlink:href="../../d8/d97/ldblib_8c.html#a5caaa985f31fc5cbd014f831833205e7" target="_top" xlink:title="hookf">
<polygon fill="none" stroke="black" points="346,-854.5 346,-873.5 385,-873.5 385,-854.5 346,-854.5"/>
<text text-anchor="middle" x="365.5" y="-861.5" font-family="Helvetica,sans-Serif" font-size="10.00">hookf</text>
</a>
</g>
</g>
<!-- Node3&#45;&gt;Node10 -->
<g id="edge9" class="edge"><title>Node3&#45;&gt;Node10</title>
<path fill="none" stroke="midnightblue" d="M283.044,-889.372C304.274,-882.759 329.244,-874.981 345.888,-869.797"/>
<polygon fill="midnightblue" stroke="midnightblue" points="281.792,-886.095 273.286,-892.411 283.874,-892.779 281.792,-886.095"/>
</g>
<!-- Node11 -->
<g id="node11" class="node"><title>Node11</title>
<g id="a_node11"><a xlink:href="../../d8/d97/ldblib_8c.html#a6a624ae8d8ff673e72a317b280ed008d" target="_top" xlink:title="db_gethook">
<polygon fill="none" stroke="black" points="467.5,-892.5 467.5,-911.5 533.5,-911.5 533.5,-892.5 467.5,-892.5"/>
<text text-anchor="middle" x="500.5" y="-899.5" font-family="Helvetica,sans-Serif" font-size="10.00">db_gethook</text>
</a>
</g>
</g>
<!-- Node3&#45;&gt;Node11 -->
<g id="edge12" class="edge"><title>Node3&#45;&gt;Node11</title>
<path fill="none" stroke="midnightblue" d="M283.521,-902C334.539,-902 420.58,-902 467.177,-902"/>
<polygon fill="midnightblue" stroke="midnightblue" points="283.5,-898.5 273.5,-902 283.5,-905.5 283.5,-898.5"/>
</g>
<!-- Node5 -->
<g id="node5" class="node"><title>Node5</title>
<g id="a_node5"><a xlink:href="../../d8/dd3/lbaselib_8c.html#addfd66adcbe4c777cf5e10536d27d8b1" target="_top" xlink:title="luaB_getmetatable">
<polygon fill="none" stroke="black" points="452.5,-1044.5 452.5,-1063.5 548.5,-1063.5 548.5,-1044.5 452.5,-1044.5"/>
<text text-anchor="middle" x="500.5" y="-1051.5" font-family="Helvetica,sans-Serif" font-size="10.00">luaB_getmetatable</text>
</a>
</g>
</g>
<!-- Node4&#45;&gt;Node5 -->
<g id="edge4" class="edge"><title>Node4&#45;&gt;Node5</title>
<path fill="none" stroke="midnightblue" d="M385.491,-993.959C401.004,-1006.4 423.903,-1023.45 446,-1035 452.901,-1038.61 460.637,-1041.8 468.037,-1044.48"/>
<polygon fill="midnightblue" stroke="midnightblue" points="387.643,-991.198 377.684,-987.585 383.216,-996.62 387.643,-991.198"/>
</g>
<!-- Node6 -->
<g id="node6" class="node"><title>Node6</title>
<g id="a_node6"><a xlink:href="../../d8/dd3/lbaselib_8c.html#af7799a987ba6d158a96a52e80fb5beaf" target="_top" xlink:title="luaB_setmetatable">
<polygon fill="none" stroke="black" points="452.5,-1006.5 452.5,-1025.5 548.5,-1025.5 548.5,-1006.5 452.5,-1006.5"/>
<text text-anchor="middle" x="500.5" y="-1013.5" font-family="Helvetica,sans-Serif" font-size="10.00">luaB_setmetatable</text>
</a>
</g>
</g>
<!-- Node4&#45;&gt;Node6 -->
<g id="edge5" class="edge"><title>Node4&#45;&gt;Node6</title>
<path fill="none" stroke="midnightblue" d="M409.867,-990.391C428.081,-995.594 448.939,-1001.55 465.949,-1006.41"/>
<polygon fill="midnightblue" stroke="midnightblue" points="410.638,-986.971 400.062,-987.589 408.715,-993.702 410.638,-986.971"/>
</g>
<!-- Node7 -->
<g id="node7" class="node"><title>Node7</title>
<g id="a_node7"><a xlink:href="../../da/d29/lauxlib_8h.html#af26aec8cce4a3f4448c60f402d78f17d" target="_top" xlink:title="luaL_callmeta">
<polygon fill="none" stroke="red" points="463.5,-968.5 463.5,-987.5 537.5,-987.5 537.5,-968.5 463.5,-968.5"/>
<text text-anchor="middle" x="500.5" y="-975.5" font-family="Helvetica,sans-Serif" font-size="10.00">luaL_callmeta</text>
</a>
</g>
</g>
<!-- Node4&#45;&gt;Node7 -->
<g id="edge6" class="edge"><title>Node4&#45;&gt;Node7</title>
<path fill="none" stroke="midnightblue" d="M420.398,-978C434.868,-978 450.165,-978 463.41,-978"/>
<polygon fill="midnightblue" stroke="midnightblue" points="420.049,-974.5 410.049,-978 420.049,-981.5 420.049,-974.5"/>
</g>
<!-- Node8 -->
<g id="node8" class="node"><title>Node8</title>
<g id="a_node8"><a xlink:href="../../d8/dd3/lbaselib_8c.html#a8f5df6d3f89389dd27da5cfeceee1f34" target="_top" xlink:title="pairsmeta">
<polygon fill="none" stroke="red" points="471,-930.5 471,-949.5 530,-949.5 530,-930.5 471,-930.5"/>
<text text-anchor="middle" x="500.5" y="-937.5" font-family="Helvetica,sans-Serif" font-size="10.00">pairsmeta</text>
</a>
</g>
</g>
<!-- Node4&#45;&gt;Node8 -->
<g id="edge7" class="edge"><title>Node4&#45;&gt;Node8</title>
<path fill="none" stroke="midnightblue" d="M409.894,-965.602C429.914,-959.882 453.125,-953.25 470.907,-948.169"/>
<polygon fill="midnightblue" stroke="midnightblue" points="408.715,-962.298 400.062,-968.411 410.638,-969.029 408.715,-962.298"/>
</g>
<!-- Node10&#45;&gt;Node11 -->
<g id="edge10" class="edge"><title>Node10&#45;&gt;Node11</title>
<path fill="none" stroke="midnightblue" d="M395.033,-872.152C416.322,-878.235 445.419,-886.548 467.499,-892.857"/>
<polygon fill="midnightblue" stroke="midnightblue" points="395.85,-868.746 385.274,-869.364 393.927,-875.476 395.85,-868.746"/>
</g>
<!-- Node12 -->
<g id="node12" class="node"><title>Node12</title>
<g id="a_node12"><a xlink:href="../../d8/d97/ldblib_8c.html#aa0c362d361f8f9bd8a002c34c393e2b0" target="_top" xlink:title="db_sethook">
<polygon fill="none" stroke="black" points="704,-816.5 704,-835.5 770,-835.5 770,-816.5 704,-816.5"/>
<text text-anchor="middle" x="737" y="-823.5" font-family="Helvetica,sans-Serif" font-size="10.00">db_sethook</text>
</a>
</g>
</g>
<!-- Node10&#45;&gt;Node12 -->
<g id="edge11" class="edge"><title>Node10&#45;&gt;Node12</title>
<path fill="none" stroke="midnightblue" d="M395.467,-862.886C449.348,-860.551 568.54,-854.142 668,-840 679.814,-838.32 692.66,-835.846 703.973,-833.443"/>
<polygon fill="midnightblue" stroke="midnightblue" points="395.133,-859.397 385.289,-863.312 395.426,-866.391 395.133,-859.397"/>
</g>
<!-- Node15 -->
<g id="node15" class="node"><title>Node15</title>
<g id="a_node15"><a xlink:href="../../da/dd2/lua_8h.html#a3db5cd3ce7ae703c39d54495be44aafc" target="_top" xlink:title="lua_rawset">
<polygon fill="none" stroke="black" points="333.5,-778.5 333.5,-797.5 397.5,-797.5 397.5,-778.5 333.5,-778.5"/>
<text text-anchor="middle" x="365.5" y="-785.5" font-family="Helvetica,sans-Serif" font-size="10.00">lua_rawset</text>
</a>
</g>
</g>
<!-- Node14&#45;&gt;Node15 -->
<g id="edge15" class="edge"><title>Node14&#45;&gt;Node15</title>
<path fill="none" stroke="midnightblue" d="M277.444,-603.432C280.231,-605.336 282.81,-607.513 285,-610 321.521,-651.466 296.245,-679.6 321,-729 330.464,-747.887 345.945,-767.087 355.66,-778.254"/>
<polygon fill="midnightblue" stroke="midnightblue" points="279.077,-600.335 268.641,-598.508 275.66,-606.444 279.077,-600.335"/>
</g>
<!-- Node17 -->
<g id="node17" class="node"><title>Node17</title>
<g id="a_node17"><a xlink:href="../../da/dd2/lua_8h.html#ab919ec94612961d8ca6eebaddd43c5f6" target="_top" xlink:title="lua_rawsetp">
<polygon fill="none" stroke="black" points="330.5,-700.5 330.5,-719.5 400.5,-719.5 400.5,-700.5 330.5,-700.5"/>
<text text-anchor="middle" x="365.5" y="-707.5" font-family="Helvetica,sans-Serif" font-size="10.00">lua_rawsetp</text>
</a>
</g>
</g>
<!-- Node14&#45;&gt;Node17 -->
<g id="edge18" class="edge"><title>Node14&#45;&gt;Node17</title>
<path fill="none" stroke="midnightblue" d="M277.594,-604.036C280.272,-605.802 282.788,-607.783 285,-610 312.826,-637.887 293.054,-663.233 321,-691 324.858,-694.834 329.619,-697.953 334.559,-700.473"/>
<polygon fill="midnightblue" stroke="midnightblue" points="279.112,-600.876 268.667,-599.103 275.727,-607.003 279.112,-600.876"/>
</g>
<!-- Node18 -->
<g id="node18" class="node"><title>Node18</title>
<g id="a_node18"><a xlink:href="../../d8/d7a/lcode_8c.html#ada05641e97457834344a5b3d2187bd45" target="_top" xlink:title="addk">
<polygon fill="none" stroke="black" points="346.5,-662.5 346.5,-681.5 384.5,-681.5 384.5,-662.5 346.5,-662.5"/>
<text text-anchor="middle" x="365.5" y="-669.5" font-family="Helvetica,sans-Serif" font-size="10.00">addk</text>
</a>
</g>
</g>
<!-- Node14&#45;&gt;Node18 -->
<g id="edge19" class="edge"><title>Node14&#45;&gt;Node18</title>
<path fill="none" stroke="midnightblue" d="M277.537,-605.298C280.132,-606.766 282.651,-608.335 285,-610 303.983,-623.449 302.597,-633.768 321,-648 328.778,-654.015 338.255,-659.433 346.375,-663.592"/>
<polygon fill="midnightblue" stroke="midnightblue" points="279.05,-602.141 268.553,-600.704 275.863,-608.373 279.05,-602.141"/>
</g>
<!-- Node23 -->
<g id="node23" class="node"><title>Node23</title>
<g id="a_node23"><a xlink:href="../../d8/d27/llex_8h.html#aa6e79179f823cf156f61899a09239ca6" target="_top" xlink:title="luaX_newstring">
<polygon fill="none" stroke="red" points="325,-619.5 325,-638.5 406,-638.5 406,-619.5 325,-619.5"/>
<text text-anchor="middle" x="365.5" y="-626.5" font-family="Helvetica,sans-Serif" font-size="10.00">luaX_newstring</text>
</a>
</g>
</g>
<!-- Node14&#45;&gt;Node23 -->
<g id="edge24" class="edge"><title>Node14&#45;&gt;Node23</title>
<path fill="none" stroke="midnightblue" d="M278.54,-602.225C296.044,-607.678 316.861,-614.162 333.626,-619.383"/>
<polygon fill="midnightblue" stroke="midnightblue" points="279.261,-598.784 268.672,-599.152 277.179,-605.468 279.261,-598.784"/>
</g>
<!-- Node25 -->
<g id="node25" class="node"><title>Node25</title>
<g id="a_node25"><a xlink:href="../../d3/d44/ltable_8h.html#a049d7e871507502646f7130e252765b1" target="_top" xlink:title="luaH_resize">
<polygon fill="none" stroke="red" points="332.5,-581.5 332.5,-600.5 398.5,-600.5 398.5,-581.5 332.5,-581.5"/>
<text text-anchor="middle" x="365.5" y="-588.5" font-family="Helvetica,sans-Serif" font-size="10.00">luaH_resize</text>
</a>
</g>
</g>
<!-- Node14&#45;&gt;Node25 -->
<g id="edge26" class="edge"><title>Node14&#45;&gt;Node25</title>
<path fill="none" stroke="midnightblue" d="M278.792,-591C295.781,-591 315.847,-591 332.29,-591"/>
<polygon fill="midnightblue" stroke="midnightblue" points="278.672,-587.5 268.672,-591 278.672,-594.5 278.672,-587.5"/>
</g>
<!-- Node28 -->
<g id="node28" class="node"><title>Node28</title>
<g id="a_node28"><a xlink:href="../../d3/d44/ltable_8h.html#a61547e63b2d74aa68da53a7fd235e77e" target="_top" xlink:title="luaH_newkey">
<polygon fill="none" stroke="red" points="328,-543.5 328,-562.5 403,-562.5 403,-543.5 328,-543.5"/>
<text text-anchor="middle" x="365.5" y="-550.5" font-family="Helvetica,sans-Serif" font-size="10.00">luaH_newkey</text>
</a>
</g>
</g>
<!-- Node14&#45;&gt;Node28 -->
<g id="edge29" class="edge"><title>Node14&#45;&gt;Node28</title>
<path fill="none" stroke="midnightblue" d="M267.893,-577.489C285.216,-570.823 308.432,-563.375 327.764,-558.191"/>
<polygon fill="midnightblue" stroke="midnightblue" points="266.413,-574.313 258.449,-581.301 269.033,-580.804 266.413,-574.313"/>
</g>
<!-- Node15&#45;&gt;Node12 -->
<g id="edge17" class="edge"><title>Node15&#45;&gt;Node12</title>
<path fill="none" stroke="midnightblue" d="M407.566,-799.214C419.844,-802.186 433.394,-805.095 446,-807 538.793,-821.025 649.835,-824.7 703.623,-825.661"/>
<polygon fill="midnightblue" stroke="midnightblue" points="408.15,-795.752 397.6,-796.723 406.452,-802.543 408.15,-795.752"/>
</g>
<!-- Node16 -->
<g id="node16" class="node"><title>Node16</title>
<g id="a_node16"><a xlink:href="../../d8/dd3/lbaselib_8c.html#a7b7225051c25127792f30eadd3498cc3" target="_top" xlink:title="luaB_rawset">
<polygon fill="none" stroke="black" points="465,-778.5 465,-797.5 536,-797.5 536,-778.5 465,-778.5"/>
<text text-anchor="middle" x="500.5" y="-785.5" font-family="Helvetica,sans-Serif" font-size="10.00">luaB_rawset</text>
</a>
</g>
</g>
<!-- Node15&#45;&gt;Node16 -->
<g id="edge16" class="edge"><title>Node15&#45;&gt;Node16</title>
<path fill="none" stroke="midnightblue" d="M407.768,-788C426.049,-788 447.317,-788 464.769,-788"/>
<polygon fill="midnightblue" stroke="midnightblue" points="407.683,-784.5 397.683,-788 407.683,-791.5 407.683,-784.5"/>
</g>
<!-- Node19 -->
<g id="node19" class="node"><title>Node19</title>
<g id="a_node19"><a xlink:href="../../d8/d7a/lcode_8c.html#afe7f77e67582f1b7dee6148f19627c43" target="_top" xlink:title="boolK">
<polygon fill="none" stroke="red" points="480,-740.5 480,-759.5 521,-759.5 521,-740.5 480,-740.5"/>
<text text-anchor="middle" x="500.5" y="-747.5" font-family="Helvetica,sans-Serif" font-size="10.00">boolK</text>
</a>
</g>
</g>
<!-- Node18&#45;&gt;Node19 -->
<g id="edge20" class="edge"><title>Node18&#45;&gt;Node19</title>
<path fill="none" stroke="midnightblue" d="M394.326,-682.037C399.757,-684.57 405.238,-687.565 410,-691 429.398,-704.992 426.121,-717.701 446,-731 456.24,-737.851 469.236,-742.541 479.854,-745.548"/>
<polygon fill="midnightblue" stroke="midnightblue" points="395.344,-678.666 384.771,-677.979 392.608,-685.11 395.344,-678.666"/>
</g>
<!-- Node20 -->
<g id="node20" class="node"><title>Node20</title>
<g id="a_node20"><a xlink:href="../../dd/d05/lcode_8h.html#a4f928250a0f4007764b4d3777651f617" target="_top" xlink:title="luaK_numberK">
<polygon fill="none" stroke="red" points="460.5,-702.5 460.5,-721.5 540.5,-721.5 540.5,-702.5 460.5,-702.5"/>
<text text-anchor="middle" x="500.5" y="-709.5" font-family="Helvetica,sans-Serif" font-size="10.00">luaK_numberK</text>
</a>
</g>
</g>
<!-- Node18&#45;&gt;Node20 -->
<g id="edge21" class="edge"><title>Node18&#45;&gt;Node20</title>
<path fill="none" stroke="midnightblue" d="M394.505,-680.423C415.915,-686.862 445.445,-695.743 467.736,-702.447"/>
<polygon fill="midnightblue" stroke="midnightblue" points="395.299,-677.006 384.714,-677.478 393.282,-683.71 395.299,-677.006"/>
</g>
<!-- Node21 -->
<g id="node21" class="node"><title>Node21</title>
<g id="a_node21"><a xlink:href="../../dd/d05/lcode_8h.html#a50f2df3faaeae1b08794bdefbec7220e" target="_top" xlink:title="luaK_stringK">
<polygon fill="none" stroke="red" points="465.5,-664.5 465.5,-683.5 535.5,-683.5 535.5,-664.5 465.5,-664.5"/>
<text text-anchor="middle" x="500.5" y="-671.5" font-family="Helvetica,sans-Serif" font-size="10.00">luaK_stringK</text>
</a>
</g>
</g>
<!-- Node18&#45;&gt;Node21 -->
<g id="edge22" class="edge"><title>Node18&#45;&gt;Node21</title>
<path fill="none" stroke="midnightblue" d="M394.757,-672.425C415.396,-672.735 443.482,-673.158 465.375,-673.487"/>
<polygon fill="midnightblue" stroke="midnightblue" points="394.766,-668.925 384.714,-672.274 394.66,-675.924 394.766,-668.925"/>
</g>
<!-- Node22 -->
<g id="node22" class="node"><title>Node22</title>
<g id="a_node22"><a xlink:href="../../d8/d7a/lcode_8c.html#a96b95ed8f53ee7aba7c6e81a27df6d63" target="_top" xlink:title="nilK">
<polygon fill="none" stroke="red" points="484.5,-626.5 484.5,-645.5 516.5,-645.5 516.5,-626.5 484.5,-626.5"/>
<text text-anchor="middle" x="500.5" y="-633.5" font-family="Helvetica,sans-Serif" font-size="10.00">nilK</text>
</a>
</g>
</g>
<!-- Node18&#45;&gt;Node22 -->
<g id="edge23" class="edge"><title>Node18&#45;&gt;Node22</title>
<path fill="none" stroke="midnightblue" d="M394.493,-664.423C421.883,-657.009 462.569,-645.996 484.383,-640.092"/>
<polygon fill="midnightblue" stroke="midnightblue" points="393.452,-661.079 384.714,-667.07 395.281,-667.835 393.452,-661.079"/>
</g>
<!-- Node24 -->
<g id="node24" class="node"><title>Node24</title>
<g id="a_node24"><a xlink:href="../../d8/d9c/lparser_8c.html#a773c2499cb8938683b25fc0234c1f017" target="_top" xlink:title="anchor_token">
<polygon fill="none" stroke="red" points="464,-588.5 464,-607.5 537,-607.5 537,-588.5 464,-588.5"/>
<text text-anchor="middle" x="500.5" y="-595.5" font-family="Helvetica,sans-Serif" font-size="10.00">anchor_token</text>
</a>
</g>
</g>
<!-- Node23&#45;&gt;Node24 -->
<g id="edge25" class="edge"><title>Node23&#45;&gt;Node24</title>
<path fill="none" stroke="midnightblue" d="M416.23,-617.409C432.09,-613.712 449.313,-609.698 463.957,-606.285"/>
<polygon fill="midnightblue" stroke="midnightblue" points="414.989,-614.104 406.044,-619.783 416.578,-620.921 414.989,-614.104"/>
</g>
<!-- Node26 -->
<g id="node26" class="node"><title>Node26</title>
<g id="a_node26"><a xlink:href="../../d5/dcd/lvm_8h.html#ae93565adc36c6e2157dbbd875433ede1" target="_top" xlink:title="luaV_execute">
<polygon fill="none" stroke="red" points="592.5,-257.5 592.5,-276.5 666.5,-276.5 666.5,-257.5 592.5,-257.5"/>
<text text-anchor="middle" x="629.5" y="-264.5" font-family="Helvetica,sans-Serif" font-size="10.00">luaV_execute</text>
</a>
</g>
</g>
<!-- Node25&#45;&gt;Node26 -->
<g id="edge27" class="edge"><title>Node25&#45;&gt;Node26</title>
<path fill="none" stroke="midnightblue" d="M408.798,-584.797C457.841,-576.771 534.576,-561.367 555,-541 594.147,-501.963 621.159,-320.674 627.213,-276.651"/>
<polygon fill="midnightblue" stroke="midnightblue" points="408.105,-581.363 398.783,-586.397 409.21,-588.275 408.105,-581.363"/>
</g>
<!-- Node27 -->
<g id="node27" class="node"><title>Node27</title>
<g id="a_node27"><a xlink:href="../../d3/d08/ldo_8c.html#a3baab9d298c0c32cb74a9a079d7244de" target="_top" xlink:title="unroll">
<polygon fill="none" stroke="red" points="718,-162.5 718,-181.5 756,-181.5 756,-162.5 718,-162.5"/>
<text text-anchor="middle" x="737" y="-169.5" font-family="Helvetica,sans-Serif" font-size="10.00">unroll</text>
</a>
</g>
</g>
<!-- Node26&#45;&gt;Node27 -->
<g id="edge28" class="edge"><title>Node26&#45;&gt;Node27</title>
<path fill="none" stroke="midnightblue" d="M648.83,-250.494C670.941,-230.584 707.372,-197.779 725.323,-181.614"/>
<polygon fill="midnightblue" stroke="midnightblue" points="646.482,-247.899 641.393,-257.191 651.166,-253.1 646.482,-247.899"/>
</g>
<!-- Node28&#45;&gt;Node14 -->
<g id="edge30" class="edge"><title>Node28&#45;&gt;Node14</title>
<path fill="none" stroke="midnightblue" d="M339.427,-566.387C318.783,-574.353 289.611,-583.466 268.672,-588.505"/>
<polygon fill="midnightblue" stroke="midnightblue" points="340.847,-569.588 348.802,-562.592 338.22,-563.1 340.847,-569.588"/>
</g>
<!-- Node28&#45;&gt;Node29 -->
<g id="edge31" class="edge"><title>Node28&#45;&gt;Node29</title>
<path fill="none" stroke="midnightblue" d="M413.097,-542.139C429.431,-538.332 447.53,-534.113 462.925,-530.525"/>
<polygon fill="midnightblue" stroke="midnightblue" points="412.139,-538.768 403.195,-544.447 413.728,-545.586 412.139,-538.768"/>
</g>
<!-- Node29&#45;&gt;Node26 -->
<g id="edge36" class="edge"><title>Node29&#45;&gt;Node26</title>
<path fill="none" stroke="midnightblue" d="M543.438,-507.55C547.72,-504.858 551.7,-501.698 555,-498 615.805,-429.861 626.338,-311.26 628.136,-276.706"/>
<polygon fill="midnightblue" stroke="midnightblue" points="541.494,-504.621 534.346,-512.442 544.811,-510.786 541.494,-504.621"/>
</g>
<!-- Node30 -->
<g id="node30" class="node"><title>Node30</title>
<g id="a_node30"><a xlink:href="../../da/dd2/lua_8h.html#ac0ebe7d753b81f6249dde8cf0b8ea997" target="_top" xlink:title="lua_setglobal">
<polygon fill="none" stroke="red" points="593,-569.5 593,-588.5 666,-588.5 666,-569.5 593,-569.5"/>
<text text-anchor="middle" x="629.5" y="-576.5" font-family="Helvetica,sans-Serif" font-size="10.00">lua_setglobal</text>
</a>
</g>
</g>
<!-- Node29&#45;&gt;Node30 -->
<g id="edge32" class="edge"><title>Node29&#45;&gt;Node30</title>
<path fill="none" stroke="midnightblue" d="M532.152,-535.757C555.357,-546.172 586.636,-560.211 607.174,-569.428"/>
<polygon fill="midnightblue" stroke="midnightblue" points="533.313,-532.442 522.757,-531.541 530.447,-538.828 533.313,-532.442"/>
</g>
<!-- Node31 -->
<g id="node31" class="node"><title>Node31</title>
<g id="a_node31"><a xlink:href="../../da/dd2/lua_8h.html#aeda173d104e3a566ccaac89a1f64a5eb" target="_top" xlink:title="lua_settable">
<polygon fill="none" stroke="red" points="595.5,-531.5 595.5,-550.5 663.5,-550.5 663.5,-531.5 595.5,-531.5"/>
<text text-anchor="middle" x="629.5" y="-538.5" font-family="Helvetica,sans-Serif" font-size="10.00">lua_settable</text>
</a>
</g>
</g>
<!-- Node29&#45;&gt;Node31 -->
<g id="edge33" class="edge"><title>Node29&#45;&gt;Node31</title>
<path fill="none" stroke="midnightblue" d="M548.246,-528.993C563.867,-531.33 580.945,-533.885 595.316,-536.036"/>
<polygon fill="midnightblue" stroke="midnightblue" points="548.641,-525.514 538.234,-527.496 547.606,-532.437 548.641,-525.514"/>
</g>
<!-- Node32 -->
<g id="node32" class="node"><title>Node32</title>
<g id="a_node32"><a xlink:href="../../da/dd2/lua_8h.html#a9580a15c141cbe4bf2a63fea625c3878" target="_top" xlink:title="lua_setfield">
<polygon fill="none" stroke="red" points="598,-493.5 598,-512.5 661,-512.5 661,-493.5 598,-493.5"/>
<text text-anchor="middle" x="629.5" y="-500.5" font-family="Helvetica,sans-Serif" font-size="10.00">lua_setfield</text>
</a>
</g>
</g>
<!-- Node29&#45;&gt;Node32 -->
<g id="edge34" class="edge"><title>Node29&#45;&gt;Node32</title>
<path fill="none" stroke="midnightblue" d="M548.278,-515.002C564.82,-512.527 582.991,-509.808 597.85,-507.585"/>
<polygon fill="midnightblue" stroke="midnightblue" points="547.606,-511.563 538.234,-516.504 548.641,-518.486 547.606,-511.563"/>
</g>
<!-- Node32&#45;&gt;Node12 -->
<g id="edge35" class="edge"><title>Node32&#45;&gt;Node12</title>
<path fill="none" stroke="midnightblue" d="M664.966,-518.636C666.057,-519.692 667.076,-520.812 668,-522 705.515,-570.243 729.789,-770.232 734.963,-816.442"/>
<polygon fill="midnightblue" stroke="midnightblue" points="667.015,-515.798 656.921,-512.579 662.804,-521.39 667.015,-515.798"/>
</g>
<!-- Node33&#45;&gt;Node26 -->
<g id="edge41" class="edge"><title>Node33&#45;&gt;Node26</title>
<path fill="none" stroke="midnightblue" d="M383.742,-427.275C398.838,-440.326 422.048,-457.635 446,-465 492.305,-479.239 515.228,-492.66 555,-465 620.022,-419.78 627.645,-309.91 628.44,-276.679"/>
<polygon fill="midnightblue" stroke="midnightblue" points="386.022,-424.618 376.238,-420.553 381.351,-429.832 386.022,-424.618"/>
</g>
<!-- Node34 -->
<g id="node34" class="node"><title>Node34</title>
<g id="a_node34"><a xlink:href="../../da/dd2/lua_8h.html#a2b4a9010af0545ae0f822d7f081370d0" target="_top" xlink:title="lua_getglobal">
<polygon fill="none" stroke="red" points="464,-436.5 464,-455.5 537,-455.5 537,-436.5 464,-436.5"/>
<text text-anchor="middle" x="500.5" y="-443.5" font-family="Helvetica,sans-Serif" font-size="10.00">lua_getglobal</text>
</a>
</g>
</g>
<!-- Node33&#45;&gt;Node34 -->
<g id="edge38" class="edge"><title>Node33&#45;&gt;Node34</title>
<path fill="none" stroke="midnightblue" d="M412.922,-423.216C429.563,-427.596 448.055,-432.462 463.662,-436.569"/>
<polygon fill="midnightblue" stroke="midnightblue" points="413.404,-419.724 402.843,-420.564 411.623,-426.494 413.404,-419.724"/>
</g>
<!-- Node35 -->
<g id="node35" class="node"><title>Node35</title>
<g id="a_node35"><a xlink:href="../../da/dd2/lua_8h.html#a8d82fa181a3003e9a304040c0bbed9ac" target="_top" xlink:title="lua_gettable">
<polygon fill="none" stroke="red" points="466.5,-398.5 466.5,-417.5 534.5,-417.5 534.5,-398.5 466.5,-398.5"/>
<text text-anchor="middle" x="500.5" y="-405.5" font-family="Helvetica,sans-Serif" font-size="10.00">lua_gettable</text>
</a>
</g>
</g>
<!-- Node33&#45;&gt;Node35 -->
<g id="edge39" class="edge"><title>Node33&#45;&gt;Node35</title>
<path fill="none" stroke="midnightblue" d="M413.197,-409.947C430.646,-409.553 450.097,-409.114 466.11,-408.753"/>
<polygon fill="midnightblue" stroke="midnightblue" points="413.113,-406.448 403.195,-410.172 413.271,-413.446 413.113,-406.448"/>
</g>
<!-- Node36 -->
<g id="node36" class="node"><title>Node36</title>
<g id="a_node36"><a xlink:href="../../da/dd2/lua_8h.html#ac3112bb28ba217adc46f13da8e9e6585" target="_top" xlink:title="lua_getfield">
<polygon fill="none" stroke="red" points="469,-360.5 469,-379.5 532,-379.5 532,-360.5 469,-360.5"/>
<text text-anchor="middle" x="500.5" y="-367.5" font-family="Helvetica,sans-Serif" font-size="10.00">lua_getfield</text>
</a>
</g>
</g>
<!-- Node33&#45;&gt;Node36 -->
<g id="edge40" class="edge"><title>Node33&#45;&gt;Node36</title>
<path fill="none" stroke="midnightblue" d="M407.063,-398.496C426.934,-392.37 450.471,-385.114 468.82,-379.458"/>
<polygon fill="midnightblue" stroke="midnightblue" points="405.872,-395.2 397.347,-401.491 407.934,-401.889 405.872,-395.2"/>
</g>
<!-- Node38&#45;&gt;Node29 -->
<g id="edge53" class="edge"><title>Node38&#45;&gt;Node29</title>
<path fill="none" stroke="midnightblue" d="M249.627,-314.319C260.947,-342.77 285.452,-396.213 321,-430 364.844,-471.672 431.248,-499.116 469.494,-512.478"/>
<polygon fill="midnightblue" stroke="midnightblue" points="252.796,-312.808 245.939,-304.731 246.262,-315.321 252.796,-312.808"/>
</g>
<!-- Node38&#45;&gt;Node33 -->
<g id="edge52" class="edge"><title>Node38&#45;&gt;Node33</title>
<path fill="none" stroke="midnightblue" d="M260.218,-311.846C286.2,-336.551 333.791,-381.801 354.468,-401.461"/>
<polygon fill="midnightblue" stroke="midnightblue" points="262.56,-309.244 252.902,-304.89 257.737,-314.317 262.56,-309.244"/>
</g>
<!-- Node39 -->
<g id="node39" class="node"><title>Node39</title>
<g id="a_node39"><a xlink:href="../../d3/d08/ldo_8c.html#a9f83d36f24672570ff7793686c02ed4a" target="_top" xlink:title="tryfuncTM">
<polygon fill="none" stroke="black" points="337,-304.5 337,-323.5 394,-323.5 394,-304.5 337,-304.5"/>
<text text-anchor="middle" x="365.5" y="-311.5" font-family="Helvetica,sans-Serif" font-size="10.00">tryfuncTM</text>
</a>
</g>
</g>
<!-- Node38&#45;&gt;Node39 -->
<g id="edge45" class="edge"><title>Node38&#45;&gt;Node39</title>
<path fill="none" stroke="midnightblue" d="M295.434,-303.244C309.739,-305.472 324.647,-307.793 336.935,-309.707"/>
<polygon fill="midnightblue" stroke="midnightblue" points="295.589,-299.726 285.17,-301.645 294.512,-306.642 295.589,-299.726"/>
</g>
<!-- Node41 -->
<g id="node41" class="node"><title>Node41</title>
<g id="a_node41"><a xlink:href="../../de/d27/lgc_8c.html#ab9ec6b56580b9e66f41743e393e7e033" target="_top" xlink:title="GCTM">
<polygon fill="none" stroke="black" points="342.5,-266.5 342.5,-285.5 388.5,-285.5 388.5,-266.5 342.5,-266.5"/>
<text text-anchor="middle" x="365.5" y="-273.5" font-family="Helvetica,sans-Serif" font-size="10.00">GCTM</text>
</a>
</g>
</g>
<!-- Node38&#45;&gt;Node41 -->
<g id="edge49" class="edge"><title>Node38&#45;&gt;Node41</title>
<path fill="none" stroke="midnightblue" d="M295.284,-286.78C311.768,-284.212 329.067,-281.518 342.247,-279.466"/>
<polygon fill="midnightblue" stroke="midnightblue" points="294.512,-283.357 285.17,-288.355 295.589,-290.274 294.512,-283.357"/>
</g>
<!-- Node44 -->
<g id="node44" class="node"><title>Node44</title>
<g id="a_node44"><a xlink:href="../../dd/d4a/lvm_8c.html#a5f9dd797eb313b8e117cb20546276732" target="_top" xlink:title="call_binTM">
<polygon fill="none" stroke="black" points="334.5,-171.5 334.5,-190.5 396.5,-190.5 396.5,-171.5 334.5,-171.5"/>
<text text-anchor="middle" x="365.5" y="-178.5" font-family="Helvetica,sans-Serif" font-size="10.00">call_binTM</text>
</a>
</g>
</g>
<!-- Node38&#45;&gt;Node44 -->
<g id="edge54" class="edge"><title>Node38&#45;&gt;Node44</title>
<path fill="none" stroke="midnightblue" d="M260.513,-278.168C286.416,-253.964 333.348,-210.109 354.125,-190.695"/>
<polygon fill="midnightblue" stroke="midnightblue" points="257.819,-275.896 252.902,-285.28 262.598,-281.01 257.819,-275.896"/>
</g>
<!-- Node47 -->
<g id="node47" class="node"><title>Node47</title>
<g id="a_node47"><a xlink:href="../../d5/dcd/lvm_8h.html#a5db3e64b3cc2f63c3b10b27f7ecd1d03" target="_top" xlink:title="luaV_finishOp">
<polygon fill="none" stroke="black" points="591,-114.5 591,-133.5 668,-133.5 668,-114.5 591,-114.5"/>
<text text-anchor="middle" x="629.5" y="-121.5" font-family="Helvetica,sans-Serif" font-size="10.00">luaV_finishOp</text>
</a>
</g>
</g>
<!-- Node38&#45;&gt;Node47 -->
<g id="edge65" class="edge"><title>Node38&#45;&gt;Node47</title>
<path fill="none" stroke="midnightblue" d="M249.496,-275.75C260.65,-247.442 284.946,-194.442 321,-162 366.389,-121.158 386.333,-117.962 446,-105 493.34,-94.7158 506.943,-98.8889 555,-105 569.644,-106.862 585.542,-110.732 598.795,-114.496"/>
<polygon fill="midnightblue" stroke="midnightblue" points="246.149,-274.704 245.868,-285.295 252.693,-277.191 246.149,-274.704"/>
</g>
<!-- Node49 -->
<g id="node49" class="node"><title>Node49</title>
<g id="a_node49"><a xlink:href="../../d5/dcd/lvm_8h.html#a414b4b487239935324f2f16e1e7715db" target="_top" xlink:title="luaV_objlen">
<polygon fill="none" stroke="black" points="332,-38.5 332,-57.5 399,-57.5 399,-38.5 332,-38.5"/>
<text text-anchor="middle" x="365.5" y="-45.5" font-family="Helvetica,sans-Serif" font-size="10.00">luaV_objlen</text>
</a>
</g>
</g>
<!-- Node38&#45;&gt;Node49 -->
<g id="edge62" class="edge"><title>Node38&#45;&gt;Node49</title>
<path fill="none" stroke="midnightblue" d="M244.688,-275.308C250.272,-233.363 268.525,-133.979 321,-72 326.016,-66.0755 332.882,-61.3504 339.676,-57.7135"/>
<polygon fill="midnightblue" stroke="midnightblue" points="241.203,-274.971 243.455,-285.324 248.151,-275.827 241.203,-274.971"/>
</g>
<!-- Node40 -->
<g id="node40" class="node"><title>Node40</title>
<g id="a_node40"><a xlink:href="../../d2/dd9/ldo_8h.html#af2326bf8464de1e4ce3c5f7aef2ed5d4" target="_top" xlink:title="luaD_precall">
<polygon fill="none" stroke="red" points="466,-304.5 466,-323.5 535,-323.5 535,-304.5 466,-304.5"/>
<text text-anchor="middle" x="500.5" y="-311.5" font-family="Helvetica,sans-Serif" font-size="10.00">luaD_precall</text>
</a>
</g>
</g>
<!-- Node39&#45;&gt;Node40 -->
<g id="edge46" class="edge"><title>Node39&#45;&gt;Node40</title>
<path fill="none" stroke="midnightblue" d="M404.084,-314C423.508,-314 447.021,-314 465.844,-314"/>
<polygon fill="midnightblue" stroke="midnightblue" points="404.058,-310.5 394.058,-314 404.058,-317.5 404.058,-310.5"/>
</g>
<!-- Node40&#45;&gt;Node26 -->
<g id="edge48" class="edge"><title>Node40&#45;&gt;Node26</title>
<path fill="none" stroke="midnightblue" d="M538.522,-300.975C544.053,-298.994 549.681,-296.957 555,-295 571.275,-289.011 589.491,-282.073 603.717,-276.602"/>
<polygon fill="midnightblue" stroke="midnightblue" points="537.005,-297.8 528.76,-304.454 539.355,-304.394 537.005,-297.8"/>
</g>
<!-- Node40&#45;&gt;Node40 -->
<g id="edge47" class="edge"><title>Node40&#45;&gt;Node40</title>
<path fill="none" stroke="midnightblue" d="M476.691,-333.029C477.989,-338.128 485.926,-342 500.5,-342 523.25,-342 529.826,-332.565 520.229,-323.757"/>
<polygon fill="midnightblue" stroke="midnightblue" points="479.947,-334.32 480.771,-323.757 473.54,-331.5 479.947,-334.32"/>
</g>
<!-- Node42 -->
<g id="node42" class="node"><title>Node42</title>
<g id="a_node42"><a xlink:href="../../de/d27/lgc_8c.html#a74f50e6006422d43686521fe765152dd" target="_top" xlink:title="callallpendingfinalizers">
<polygon fill="none" stroke="red" points="446,-266.5 446,-285.5 555,-285.5 555,-266.5 446,-266.5"/>
<text text-anchor="middle" x="500.5" y="-273.5" font-family="Helvetica,sans-Serif" font-size="10.00">callallpendingfinalizers</text>
</a>
</g>
</g>
<!-- Node41&#45;&gt;Node42 -->
<g id="edge50" class="edge"><title>Node41&#45;&gt;Node42</title>
<path fill="none" stroke="midnightblue" d="M398.942,-276C413.053,-276 429.966,-276 445.86,-276"/>
<polygon fill="midnightblue" stroke="midnightblue" points="398.761,-272.5 388.761,-276 398.761,-279.5 398.761,-272.5"/>
</g>
<!-- Node43 -->
<g id="node43" class="node"><title>Node43</title>
<g id="a_node43"><a xlink:href="../../dc/d9c/lgc_8h.html#a19359957605d7c8eaf70803e5b77361f" target="_top" xlink:title="luaC_forcestep">
<polygon fill="none" stroke="red" points="460.5,-228.5 460.5,-247.5 540.5,-247.5 540.5,-228.5 460.5,-228.5"/>
<text text-anchor="middle" x="500.5" y="-235.5" font-family="Helvetica,sans-Serif" font-size="10.00">luaC_forcestep</text>
</a>
</g>
</g>
<!-- Node41&#45;&gt;Node43 -->
<g id="edge51" class="edge"><title>Node41&#45;&gt;Node43</title>
<path fill="none" stroke="midnightblue" d="M398.559,-266.84C419.018,-260.995 445.483,-253.434 466.181,-247.52"/>
<polygon fill="midnightblue" stroke="midnightblue" points="397.415,-263.527 388.761,-269.64 399.338,-270.258 397.415,-263.527"/>
</g>
<!-- Node45 -->
<g id="node45" class="node"><title>Node45</title>
<g id="a_node45"><a xlink:href="../../dd/d4a/lvm_8c.html#a1d1301ff4a771ce4198673dd113d10a5" target="_top" xlink:title="call_orderTM">
<polygon fill="none" stroke="red" points="466,-190.5 466,-209.5 535,-209.5 535,-190.5 466,-190.5"/>
<text text-anchor="middle" x="500.5" y="-197.5" font-family="Helvetica,sans-Serif" font-size="10.00">call_orderTM</text>
</a>
</g>
</g>
<!-- Node44&#45;&gt;Node45 -->
<g id="edge55" class="edge"><title>Node44&#45;&gt;Node45</title>
<path fill="none" stroke="midnightblue" d="M406.748,-186.75C425.577,-189.44 447.751,-192.607 465.697,-195.171"/>
<polygon fill="midnightblue" stroke="midnightblue" points="407.074,-183.261 396.68,-185.311 406.084,-190.191 407.074,-183.261"/>
</g>
<!-- Node46 -->
<g id="node46" class="node"><title>Node46</title>
<g id="a_node46"><a xlink:href="../../d5/dcd/lvm_8h.html#aee84bfc563cb4bdd21a013218a289aa7" target="_top" xlink:title="luaV_concat">
<polygon fill="none" stroke="red" points="466,-114.5 466,-133.5 535,-133.5 535,-114.5 466,-114.5"/>
<text text-anchor="middle" x="500.5" y="-121.5" font-family="Helvetica,sans-Serif" font-size="10.00">luaV_concat</text>
</a>
</g>
</g>
<!-- Node44&#45;&gt;Node46 -->
<g id="edge56" class="edge"><title>Node44&#45;&gt;Node46</title>
<path fill="none" stroke="midnightblue" d="M394.489,-166.739C409.576,-159.277 428.616,-150.218 446,-143 454.011,-139.674 462.836,-136.389 470.969,-133.511"/>
<polygon fill="midnightblue" stroke="midnightblue" points="392.585,-163.777 385.203,-171.376 395.713,-170.04 392.585,-163.777"/>
</g>
<!-- Node48 -->
<g id="node48" class="node"><title>Node48</title>
<g id="a_node48"><a xlink:href="../../d5/dcd/lvm_8h.html#a275e261afaec876cd16944b95c955642" target="_top" xlink:title="luaV_arith">
<polygon fill="none" stroke="red" points="471,-152.5 471,-171.5 530,-171.5 530,-152.5 471,-152.5"/>
<text text-anchor="middle" x="500.5" y="-159.5" font-family="Helvetica,sans-Serif" font-size="10.00">luaV_arith</text>
</a>
</g>
</g>
<!-- Node44&#45;&gt;Node48 -->
<g id="edge60" class="edge"><title>Node44&#45;&gt;Node48</title>
<path fill="none" stroke="midnightblue" d="M406.758,-175.249C427.417,-172.298 452.101,-168.771 470.807,-166.099"/>
<polygon fill="midnightblue" stroke="midnightblue" points="406.084,-171.809 396.68,-176.689 407.074,-178.739 406.084,-171.809"/>
</g>
<!-- Node46&#45;&gt;Node26 -->
<g id="edge59" class="edge"><title>Node46&#45;&gt;Node26</title>
<path fill="none" stroke="midnightblue" d="M544.249,-136.014C548.087,-138.01 551.746,-140.323 555,-143 594.229,-175.278 617.46,-234.336 625.398,-257.407"/>
<polygon fill="midnightblue" stroke="midnightblue" points="545.632,-132.799 535.075,-131.911 542.775,-139.189 545.632,-132.799"/>
</g>
<!-- Node46&#45;&gt;Node47 -->
<g id="edge57" class="edge"><title>Node46&#45;&gt;Node47</title>
<path fill="none" stroke="midnightblue" d="M545.563,-124C560.236,-124 576.441,-124 590.605,-124"/>
<polygon fill="midnightblue" stroke="midnightblue" points="545.2,-120.5 535.2,-124 545.2,-127.5 545.2,-120.5"/>
</g>
<!-- Node47&#45;&gt;Node27 -->
<g id="edge58" class="edge"><title>Node47&#45;&gt;Node27</title>
<path fill="none" stroke="midnightblue" d="M660.753,-137.764C679.167,-146.142 702.082,-156.568 717.756,-163.699"/>
<polygon fill="midnightblue" stroke="midnightblue" points="662.148,-134.554 651.596,-133.598 659.249,-140.925 662.148,-134.554"/>
</g>
<!-- Node48&#45;&gt;Node26 -->
<g id="edge61" class="edge"><title>Node48&#45;&gt;Node26</title>
<path fill="none" stroke="midnightblue" d="M539.692,-172.762C545.059,-175.061 550.33,-177.789 555,-181 585.91,-202.257 611.61,-239.667 622.669,-257.294"/>
<polygon fill="midnightblue" stroke="midnightblue" points="540.629,-169.374 530.038,-169.076 538.132,-175.913 540.629,-169.374"/>
</g>
<!-- Node49&#45;&gt;Node26 -->
<g id="edge64" class="edge"><title>Node49&#45;&gt;Node26</title>
<path fill="none" stroke="midnightblue" d="M409.185,-50.8784C450.911,-55.7904 513.98,-69.0767 555,-105 603.792,-147.73 621.994,-229.368 626.96,-257.327"/>
<polygon fill="midnightblue" stroke="midnightblue" points="409.378,-47.3792 399.063,-49.8013 408.637,-54.3399 409.378,-47.3792"/>
</g>
<!-- Node50 -->
<g id="node50" class="node"><title>Node50</title>
<g id="a_node50"><a xlink:href="../../da/dd2/lua_8h.html#ac7ade66f92b5e325c42371926f879818" target="_top" xlink:title="lua_len">
<polygon fill="none" stroke="red" points="477,-0.5 477,-19.5 524,-19.5 524,-0.5 477,-0.5"/>
<text text-anchor="middle" x="500.5" y="-7.5" font-family="Helvetica,sans-Serif" font-size="10.00">lua_len</text>
</a>
</g>
</g>
<!-- Node49&#45;&gt;Node50 -->
<g id="edge63" class="edge"><title>Node49&#45;&gt;Node50</title>
<path fill="none" stroke="midnightblue" d="M408.74,-35.9314C431.333,-29.4764 458.255,-21.7844 476.881,-16.4627"/>
<polygon fill="midnightblue" stroke="midnightblue" points="407.689,-32.5915 399.035,-38.7042 409.612,-39.3222 407.689,-32.5915"/>
</g>
</g>
</svg>
