<?xml version="1.0" encoding="UTF-8" standalone="no"?>
<!DOCTYPE svg PUBLIC "-//W3C//DTD SVG 1.1//EN"
 "http://www.w3.org/Graphics/SVG/1.1/DTD/svg11.dtd">
<!-- Generated by graphviz version 2.38.0 (20140413.2041)
 -->
<!-- Title: arrayindex Pages: 1 -->
<svg width="998pt" height="826pt"
 viewBox="0.00 0.00 998.00 826.00" xmlns="http://www.w3.org/2000/svg" xmlns:xlink="http://www.w3.org/1999/xlink">
<g id="graph0" class="graph" transform="scale(1 1) rotate(0) translate(4 822)">
<title>arrayindex</title>
<!-- Node1 -->
<g id="node1" class="node"><title>Node1</title>
<polygon fill="#bfbfbf" stroke="black" points="0,-304.5 0,-323.5 61,-323.5 61,-304.5 0,-304.5"/>
<text text-anchor="middle" x="30.5" y="-311.5" font-family="Helvetica,sans-Serif" font-size="10.00">arrayindex</text>
</g>
<!-- Node2 -->
<g id="node2" class="node"><title>Node2</title>
<g id="a_node2"><a xlink:href="../../dc/d1e/ltable_8c.html#a1761824ae4fcb92c5d69630c50c13f5d" target="_top" xlink:title="countint">
<polygon fill="none" stroke="black" points="99.5,-342.5 99.5,-361.5 147.5,-361.5 147.5,-342.5 99.5,-342.5"/>
<text text-anchor="middle" x="123.5" y="-349.5" font-family="Helvetica,sans-Serif" font-size="10.00">countint</text>
</a>
</g>
</g>
<!-- Node1&#45;&gt;Node2 -->
<g id="edge1" class="edge"><title>Node1&#45;&gt;Node2</title>
<path fill="none" stroke="midnightblue" d="M63.9694,-327.559C75.734,-332.471 88.768,-337.914 99.5442,-342.414"/>
<polygon fill="midnightblue" stroke="midnightblue" points="65.0396,-324.213 54.4631,-323.589 62.3422,-330.672 65.0396,-324.213"/>
</g>
<!-- Node42 -->
<g id="node42" class="node"><title>Node42</title>
<g id="a_node42"><a xlink:href="../../dc/d1e/ltable_8c.html#a4c78714b16a133fb409681f8ca4240be" target="_top" xlink:title="findindex">
<polygon fill="none" stroke="black" points="97,-266.5 97,-285.5 150,-285.5 150,-266.5 97,-266.5"/>
<text text-anchor="middle" x="123.5" y="-273.5" font-family="Helvetica,sans-Serif" font-size="10.00">findindex</text>
</a>
</g>
</g>
<!-- Node1&#45;&gt;Node42 -->
<g id="edge56" class="edge"><title>Node1&#45;&gt;Node42</title>
<path fill="none" stroke="midnightblue" d="M63.9694,-300.441C75.734,-295.529 88.768,-290.086 99.5442,-285.586"/>
<polygon fill="midnightblue" stroke="midnightblue" points="62.3422,-297.328 54.4631,-304.411 65.0396,-303.787 62.3422,-297.328"/>
</g>
<!-- Node3 -->
<g id="node3" class="node"><title>Node3</title>
<g id="a_node3"><a xlink:href="../../dc/d1e/ltable_8c.html#ad1ad0512c14fbddfa01ea2cacf112adb" target="_top" xlink:title="numusehash">
<polygon fill="none" stroke="black" points="186,-380.5 186,-399.5 258,-399.5 258,-380.5 186,-380.5"/>
<text text-anchor="middle" x="222" y="-387.5" font-family="Helvetica,sans-Serif" font-size="10.00">numusehash</text>
</a>
</g>
</g>
<!-- Node2&#45;&gt;Node3 -->
<g id="edge2" class="edge"><title>Node2&#45;&gt;Node3</title>
<path fill="none" stroke="midnightblue" d="M157.366,-364.942C170.31,-370.039 184.904,-375.786 196.847,-380.489"/>
<polygon fill="midnightblue" stroke="midnightblue" points="158.447,-361.606 147.86,-361.199 155.882,-368.119 158.447,-361.606"/>
</g>
<!-- Node4 -->
<g id="node4" class="node"><title>Node4</title>
<g id="a_node4"><a xlink:href="../../dc/d1e/ltable_8c.html#ad775daa2a19a375c7385ed30834a3eeb" target="_top" xlink:title="rehash">
<polygon fill="none" stroke="black" points="297.5,-380.5 297.5,-399.5 343.5,-399.5 343.5,-380.5 297.5,-380.5"/>
<text text-anchor="middle" x="320.5" y="-387.5" font-family="Helvetica,sans-Serif" font-size="10.00">rehash</text>
</a>
</g>
</g>
<!-- Node2&#45;&gt;Node4 -->
<g id="edge55" class="edge"><title>Node2&#45;&gt;Node4</title>
<path fill="none" stroke="midnightblue" d="M157.996,-355.28C185.157,-358.295 224.321,-363.451 258,-371 271.194,-373.958 285.655,-378.364 297.238,-382.189"/>
<polygon fill="midnightblue" stroke="midnightblue" points="158.171,-351.779 147.855,-354.192 157.424,-358.739 158.171,-351.779"/>
</g>
<!-- Node3&#45;&gt;Node4 -->
<g id="edge3" class="edge"><title>Node3&#45;&gt;Node4</title>
<path fill="none" stroke="midnightblue" d="M268.17,-390C278.358,-390 288.729,-390 297.457,-390"/>
<polygon fill="midnightblue" stroke="midnightblue" points="268.112,-386.5 258.112,-390 268.112,-393.5 268.112,-386.5"/>
</g>
<!-- Node5 -->
<g id="node5" class="node"><title>Node5</title>
<g id="a_node5"><a xlink:href="../../d3/d44/ltable_8h.html#a61547e63b2d74aa68da53a7fd235e77e" target="_top" xlink:title="luaH_newkey">
<polygon fill="none" stroke="black" points="383,-418.5 383,-437.5 458,-437.5 458,-418.5 383,-418.5"/>
<text text-anchor="middle" x="420.5" y="-425.5" font-family="Helvetica,sans-Serif" font-size="10.00">luaH_newkey</text>
</a>
</g>
</g>
<!-- Node4&#45;&gt;Node5 -->
<g id="edge4" class="edge"><title>Node4&#45;&gt;Node5</title>
<path fill="none" stroke="midnightblue" d="M353.172,-402.281C366.718,-407.533 382.291,-413.572 394.942,-418.478"/>
<polygon fill="midnightblue" stroke="midnightblue" points="354.327,-398.975 343.738,-398.623 351.796,-405.501 354.327,-398.975"/>
</g>
<!-- Node6 -->
<g id="node6" class="node"><title>Node6</title>
<g id="a_node6"><a xlink:href="../../d3/d44/ltable_8h.html#aad12092dcea6ae55728aadeeb0210d91" target="_top" xlink:title="luaH_set">
<polygon fill="none" stroke="black" points="519.5,-456.5 519.5,-475.5 573.5,-475.5 573.5,-456.5 519.5,-456.5"/>
<text text-anchor="middle" x="546.5" y="-463.5" font-family="Helvetica,sans-Serif" font-size="10.00">luaH_set</text>
</a>
</g>
</g>
<!-- Node5&#45;&gt;Node6 -->
<g id="edge5" class="edge"><title>Node5&#45;&gt;Node6</title>
<path fill="none" stroke="midnightblue" d="M467.76,-435.624C489.442,-441.714 513.875,-449.815 529.464,-456.374"/>
<polygon fill="midnightblue" stroke="midnightblue" points="468.601,-432.225 458.033,-432.98 466.765,-438.98 468.601,-432.225"/>
</g>
<!-- Node29 -->
<g id="node29" class="node"><title>Node29</title>
<g id="a_node29"><a xlink:href="../../d3/d44/ltable_8h.html#a46a24d0091a037ca02d148e1ebdeafb9" target="_top" xlink:title="luaH_setint">
<polygon fill="none" stroke="black" points="515,-342.5 515,-361.5 578,-361.5 578,-342.5 515,-342.5"/>
<text text-anchor="middle" x="546.5" y="-349.5" font-family="Helvetica,sans-Serif" font-size="10.00">luaH_setint</text>
</a>
</g>
</g>
<!-- Node5&#45;&gt;Node29 -->
<g id="edge33" class="edge"><title>Node5&#45;&gt;Node29</title>
<path fill="none" stroke="midnightblue" d="M445.738,-413.145C470.665,-397.867 508.747,-374.526 529.923,-361.547"/>
<polygon fill="midnightblue" stroke="midnightblue" points="443.902,-410.165 437.205,-418.375 447.56,-416.133 443.902,-410.165"/>
</g>
<!-- Node38 -->
<g id="node38" class="node"><title>Node38</title>
<g id="a_node38"><a xlink:href="../../d5/dcd/lvm_8h.html#a5885d48fd66eb236f8b8f6e4938cbcce" target="_top" xlink:title="luaV_settable">
<polygon fill="none" stroke="black" points="638,-190.5 638,-209.5 713,-209.5 713,-190.5 638,-190.5"/>
<text text-anchor="middle" x="675.5" y="-197.5" font-family="Helvetica,sans-Serif" font-size="10.00">luaV_settable</text>
</a>
</g>
</g>
<!-- Node5&#45;&gt;Node38 -->
<g id="edge47" class="edge"><title>Node5&#45;&gt;Node38</title>
<path fill="none" stroke="midnightblue" d="M431.276,-409.48C443.367,-388.23 465.843,-353.663 494,-333 534.011,-303.638 562.606,-328.741 599,-295 627.592,-268.492 606.617,-241.732 635,-215 637.136,-212.988 639.569,-211.239 642.154,-209.719"/>
<polygon fill="midnightblue" stroke="midnightblue" points="428.086,-408.017 426.332,-418.466 434.219,-411.392 428.086,-408.017"/>
</g>
<!-- Node6&#45;&gt;Node5 -->
<g id="edge32" class="edge"><title>Node6&#45;&gt;Node5</title>
<path fill="none" stroke="midnightblue" d="M509.433,-461.142C485.605,-454.921 455.543,-445.211 437.457,-437.592"/>
<polygon fill="midnightblue" stroke="midnightblue" points="508.66,-464.557 519.21,-463.579 510.353,-457.765 508.66,-464.557"/>
</g>
<!-- Node7 -->
<g id="node7" class="node"><title>Node7</title>
<g id="a_node7"><a xlink:href="../../da/dd2/lua_8h.html#a3db5cd3ce7ae703c39d54495be44aafc" target="_top" xlink:title="lua_rawset">
<polygon fill="none" stroke="black" points="769,-456.5 769,-475.5 833,-475.5 833,-456.5 769,-456.5"/>
<text text-anchor="middle" x="801" y="-463.5" font-family="Helvetica,sans-Serif" font-size="10.00">lua_rawset</text>
</a>
</g>
</g>
<!-- Node6&#45;&gt;Node7 -->
<g id="edge6" class="edge"><title>Node6&#45;&gt;Node7</title>
<path fill="none" stroke="midnightblue" d="M583.873,-466C633.658,-466 722.17,-466 768.983,-466"/>
<polygon fill="midnightblue" stroke="midnightblue" points="583.571,-462.5 573.571,-466 583.571,-469.5 583.571,-462.5"/>
</g>
<!-- Node10 -->
<g id="node10" class="node"><title>Node10</title>
<g id="a_node10"><a xlink:href="../../da/dd2/lua_8h.html#ab919ec94612961d8ca6eebaddd43c5f6" target="_top" xlink:title="lua_rawsetp">
<polygon fill="none" stroke="black" points="640.5,-570.5 640.5,-589.5 710.5,-589.5 710.5,-570.5 640.5,-570.5"/>
<text text-anchor="middle" x="675.5" y="-577.5" font-family="Helvetica,sans-Serif" font-size="10.00">lua_rawsetp</text>
</a>
</g>
</g>
<!-- Node6&#45;&gt;Node10 -->
<g id="edge9" class="edge"><title>Node6&#45;&gt;Node10</title>
<path fill="none" stroke="midnightblue" d="M560.644,-483.967C576.463,-504.626 604.705,-538.566 635,-561 639.77,-564.532 645.3,-567.676 650.685,-570.34"/>
<polygon fill="midnightblue" stroke="midnightblue" points="563.275,-481.643 554.471,-475.749 557.678,-485.847 563.275,-481.643"/>
</g>
<!-- Node11 -->
<g id="node11" class="node"><title>Node11</title>
<g id="a_node11"><a xlink:href="../../d8/d7a/lcode_8c.html#ada05641e97457834344a5b3d2187bd45" target="_top" xlink:title="addk">
<polygon fill="none" stroke="black" points="656.5,-722.5 656.5,-741.5 694.5,-741.5 694.5,-722.5 656.5,-722.5"/>
<text text-anchor="middle" x="675.5" y="-729.5" font-family="Helvetica,sans-Serif" font-size="10.00">addk</text>
</a>
</g>
</g>
<!-- Node6&#45;&gt;Node11 -->
<g id="edge10" class="edge"><title>Node6&#45;&gt;Node11</title>
<path fill="none" stroke="midnightblue" d="M556.565,-484.986C581.653,-537.534 651.377,-683.568 669.921,-722.409"/>
<polygon fill="midnightblue" stroke="midnightblue" points="559.638,-483.299 552.171,-475.783 553.321,-486.315 559.638,-483.299"/>
</g>
<!-- Node16 -->
<g id="node16" class="node"><title>Node16</title>
<g id="a_node16"><a xlink:href="../../d8/d27/llex_8h.html#aa6e79179f823cf156f61899a09239ca6" target="_top" xlink:title="luaX_newstring">
<polygon fill="none" stroke="black" points="635,-532.5 635,-551.5 716,-551.5 716,-532.5 635,-532.5"/>
<text text-anchor="middle" x="675.5" y="-539.5" font-family="Helvetica,sans-Serif" font-size="10.00">luaX_newstring</text>
</a>
</g>
</g>
<!-- Node6&#45;&gt;Node16 -->
<g id="edge15" class="edge"><title>Node6&#45;&gt;Node16</title>
<path fill="none" stroke="midnightblue" d="M572.324,-480.855C597.855,-496.133 636.858,-519.474 658.546,-532.453"/>
<polygon fill="midnightblue" stroke="midnightblue" points="573.963,-477.757 563.585,-475.625 570.368,-483.764 573.963,-477.757"/>
</g>
<!-- Node22 -->
<g id="node22" class="node"><title>Node22</title>
<g id="a_node22"><a xlink:href="../../d3/d44/ltable_8h.html#a049d7e871507502646f7130e252765b1" target="_top" xlink:title="luaH_resize">
<polygon fill="none" stroke="black" points="642.5,-380.5 642.5,-399.5 708.5,-399.5 708.5,-380.5 642.5,-380.5"/>
<text text-anchor="middle" x="675.5" y="-387.5" font-family="Helvetica,sans-Serif" font-size="10.00">luaH_resize</text>
</a>
</g>
</g>
<!-- Node6&#45;&gt;Node22 -->
<g id="edge23" class="edge"><title>Node6&#45;&gt;Node22</title>
<path fill="none" stroke="midnightblue" d="M572.324,-451.145C597.855,-435.867 636.858,-412.526 658.546,-399.547"/>
<polygon fill="midnightblue" stroke="midnightblue" points="570.368,-448.236 563.585,-456.375 573.963,-454.243 570.368,-448.236"/>
</g>
<!-- Node8 -->
<g id="node8" class="node"><title>Node8</title>
<g id="a_node8"><a xlink:href="../../d8/dd3/lbaselib_8c.html#a7b7225051c25127792f30eadd3498cc3" target="_top" xlink:title="luaB_rawset">
<polygon fill="none" stroke="black" points="902.5,-456.5 902.5,-475.5 973.5,-475.5 973.5,-456.5 902.5,-456.5"/>
<text text-anchor="middle" x="938" y="-463.5" font-family="Helvetica,sans-Serif" font-size="10.00">luaB_rawset</text>
</a>
</g>
</g>
<!-- Node7&#45;&gt;Node8 -->
<g id="edge7" class="edge"><title>Node7&#45;&gt;Node8</title>
<path fill="none" stroke="midnightblue" d="M843.37,-466C862.15,-466 884.121,-466 902.059,-466"/>
<polygon fill="midnightblue" stroke="midnightblue" points="843.311,-462.5 833.311,-466 843.311,-469.5 843.311,-462.5"/>
</g>
<!-- Node9 -->
<g id="node9" class="node"><title>Node9</title>
<g id="a_node9"><a xlink:href="../../d8/d97/ldblib_8c.html#aa0c362d361f8f9bd8a002c34c393e2b0" target="_top" xlink:title="db_sethook">
<polygon fill="none" stroke="black" points="905,-399.5 905,-418.5 971,-418.5 971,-399.5 905,-399.5"/>
<text text-anchor="middle" x="938" y="-406.5" font-family="Helvetica,sans-Serif" font-size="10.00">db_sethook</text>
</a>
</g>
</g>
<!-- Node7&#45;&gt;Node9 -->
<g id="edge8" class="edge"><title>Node7&#45;&gt;Node9</title>
<path fill="none" stroke="midnightblue" d="M835.986,-452.718C840.704,-450.824 845.48,-448.881 850,-447 872.521,-437.628 898.08,-426.391 915.637,-418.579"/>
<polygon fill="midnightblue" stroke="midnightblue" points="834.483,-449.549 826.485,-456.498 837.071,-456.053 834.483,-449.549"/>
</g>
<!-- Node12 -->
<g id="node12" class="node"><title>Node12</title>
<g id="a_node12"><a xlink:href="../../d8/d7a/lcode_8c.html#afe7f77e67582f1b7dee6148f19627c43" target="_top" xlink:title="boolK">
<polygon fill="none" stroke="red" points="780.5,-798.5 780.5,-817.5 821.5,-817.5 821.5,-798.5 780.5,-798.5"/>
<text text-anchor="middle" x="801" y="-805.5" font-family="Helvetica,sans-Serif" font-size="10.00">boolK</text>
</a>
</g>
</g>
<!-- Node11&#45;&gt;Node12 -->
<g id="edge11" class="edge"><title>Node11&#45;&gt;Node12</title>
<path fill="none" stroke="midnightblue" d="M695.436,-748.589C710.134,-760.881 731.412,-777.435 752,-789 760.908,-794.004 771.401,-798.319 780.301,-801.566"/>
<polygon fill="midnightblue" stroke="midnightblue" points="697.48,-745.733 687.597,-741.915 692.942,-751.063 697.48,-745.733"/>
</g>
<!-- Node13 -->
<g id="node13" class="node"><title>Node13</title>
<g id="a_node13"><a xlink:href="../../dd/d05/lcode_8h.html#a4f928250a0f4007764b4d3777651f617" target="_top" xlink:title="luaK_numberK">
<polygon fill="none" stroke="red" points="761,-760.5 761,-779.5 841,-779.5 841,-760.5 761,-760.5"/>
<text text-anchor="middle" x="801" y="-767.5" font-family="Helvetica,sans-Serif" font-size="10.00">luaK_numberK</text>
</a>
</g>
</g>
<!-- Node11&#45;&gt;Node13 -->
<g id="edge12" class="edge"><title>Node11&#45;&gt;Node13</title>
<path fill="none" stroke="midnightblue" d="M704.364,-740.573C723.503,-746.463 748.935,-754.288 768.761,-760.388"/>
<polygon fill="midnightblue" stroke="midnightblue" points="705.31,-737.203 694.723,-737.607 703.251,-743.893 705.31,-737.203"/>
</g>
<!-- Node14 -->
<g id="node14" class="node"><title>Node14</title>
<g id="a_node14"><a xlink:href="../../dd/d05/lcode_8h.html#a50f2df3faaeae1b08794bdefbec7220e" target="_top" xlink:title="luaK_stringK">
<polygon fill="none" stroke="red" points="766,-722.5 766,-741.5 836,-741.5 836,-722.5 766,-722.5"/>
<text text-anchor="middle" x="801" y="-729.5" font-family="Helvetica,sans-Serif" font-size="10.00">luaK_stringK</text>
</a>
</g>
</g>
<!-- Node11&#45;&gt;Node14 -->
<g id="edge13" class="edge"><title>Node11&#45;&gt;Node14</title>
<path fill="none" stroke="midnightblue" d="M704.953,-732C723.083,-732 746.675,-732 765.819,-732"/>
<polygon fill="midnightblue" stroke="midnightblue" points="704.723,-728.5 694.723,-732 704.723,-735.5 704.723,-728.5"/>
</g>
<!-- Node15 -->
<g id="node15" class="node"><title>Node15</title>
<g id="a_node15"><a xlink:href="../../d8/d7a/lcode_8c.html#a96b95ed8f53ee7aba7c6e81a27df6d63" target="_top" xlink:title="nilK">
<polygon fill="none" stroke="red" points="785,-684.5 785,-703.5 817,-703.5 817,-684.5 785,-684.5"/>
<text text-anchor="middle" x="801" y="-691.5" font-family="Helvetica,sans-Serif" font-size="10.00">nilK</text>
</a>
</g>
</g>
<!-- Node11&#45;&gt;Node15 -->
<g id="edge14" class="edge"><title>Node11&#45;&gt;Node15</title>
<path fill="none" stroke="midnightblue" d="M704.34,-723.434C729.242,-715.772 764.81,-704.828 784.818,-698.671"/>
<polygon fill="midnightblue" stroke="midnightblue" points="703.251,-720.107 694.723,-726.393 705.31,-726.797 703.251,-720.107"/>
</g>
<!-- Node17 -->
<g id="node17" class="node"><title>Node17</title>
<g id="a_node17"><a xlink:href="../../d8/d9c/lparser_8c.html#a773c2499cb8938683b25fc0234c1f017" target="_top" xlink:title="anchor_token">
<polygon fill="none" stroke="red" points="764.5,-608.5 764.5,-627.5 837.5,-627.5 837.5,-608.5 764.5,-608.5"/>
<text text-anchor="middle" x="801" y="-615.5" font-family="Helvetica,sans-Serif" font-size="10.00">anchor_token</text>
</a>
</g>
</g>
<!-- Node16&#45;&gt;Node17 -->
<g id="edge16" class="edge"><title>Node16&#45;&gt;Node17</title>
<path fill="none" stroke="midnightblue" d="M708.922,-556.371C711.382,-557.827 713.772,-559.374 716,-561 734.793,-574.713 732.729,-585.967 752,-599 757.494,-602.716 763.822,-605.871 770.044,-608.479"/>
<polygon fill="midnightblue" stroke="midnightblue" points="710.331,-553.154 699.865,-551.505 707.018,-559.321 710.331,-553.154"/>
</g>
<!-- Node18 -->
<g id="node18" class="node"><title>Node18</title>
<g id="a_node18"><a xlink:href="../../d8/d7a/llex_8c.html#a83faab0338a28c8b97ff1156725cc61b" target="_top" xlink:title="llex">
<polygon fill="none" stroke="red" points="923,-570.5 923,-589.5 953,-589.5 953,-570.5 923,-570.5"/>
<text text-anchor="middle" x="938" y="-577.5" font-family="Helvetica,sans-Serif" font-size="10.00">llex</text>
</a>
</g>
</g>
<!-- Node16&#45;&gt;Node18 -->
<g id="edge17" class="edge"><title>Node16&#45;&gt;Node18</title>
<path fill="none" stroke="midnightblue" d="M713.819,-529.57C749.484,-519.625 804.412,-509.396 850,-523 881.146,-532.294 911.504,-556.698 926.785,-570.369"/>
<polygon fill="midnightblue" stroke="midnightblue" points="712.464,-526.32 703.848,-532.484 714.428,-533.039 712.464,-526.32"/>
</g>
<!-- Node19 -->
<g id="node19" class="node"><title>Node19</title>
<g id="a_node19"><a xlink:href="../../d8/d9c/lparser_8c.html#a6d7842332c47d1f9dc803977228e4179" target="_top" xlink:title="new_localvarliteral_">
<polygon fill="none" stroke="black" points="752,-532.5 752,-551.5 850,-551.5 850,-532.5 752,-532.5"/>
<text text-anchor="middle" x="801" y="-539.5" font-family="Helvetica,sans-Serif" font-size="10.00">new_localvarliteral_</text>
</a>
</g>
</g>
<!-- Node16&#45;&gt;Node19 -->
<g id="edge18" class="edge"><title>Node16&#45;&gt;Node19</title>
<path fill="none" stroke="midnightblue" d="M726.279,-542C734.655,-542 743.338,-542 751.677,-542"/>
<polygon fill="midnightblue" stroke="midnightblue" points="726.256,-538.5 716.256,-542 726.256,-545.5 726.256,-538.5"/>
</g>
<!-- Node20 -->
<g id="node20" class="node"><title>Node20</title>
<g id="a_node20"><a xlink:href="../../d8/d7a/llex_8c.html#a436a66722128b5e44db3efccaa922aa6" target="_top" xlink:title="read_long_string">
<polygon fill="none" stroke="black" points="758.5,-646.5 758.5,-665.5 843.5,-665.5 843.5,-646.5 758.5,-646.5"/>
<text text-anchor="middle" x="801" y="-653.5" font-family="Helvetica,sans-Serif" font-size="10.00">read_long_string</text>
</a>
</g>
</g>
<!-- Node16&#45;&gt;Node20 -->
<g id="edge19" class="edge"><title>Node16&#45;&gt;Node20</title>
<path fill="none" stroke="midnightblue" d="M711.436,-557.018C713.057,-558.257 714.592,-559.583 716,-561 742.35,-587.507 724.721,-611.451 752,-637 756.056,-640.798 760.962,-643.872 766.07,-646.348"/>
<polygon fill="midnightblue" stroke="midnightblue" points="713.124,-553.944 702.808,-551.532 709.369,-559.851 713.124,-553.944"/>
</g>
<!-- Node21 -->
<g id="node21" class="node"><title>Node21</title>
<g id="a_node21"><a xlink:href="../../d8/d7a/llex_8c.html#a5a2d8bb78e2b8e9ee25f901c811b2275" target="_top" xlink:title="read_string">
<polygon fill="none" stroke="black" points="770,-570.5 770,-589.5 832,-589.5 832,-570.5 770,-570.5"/>
<text text-anchor="middle" x="801" y="-577.5" font-family="Helvetica,sans-Serif" font-size="10.00">read_string</text>
</a>
</g>
</g>
<!-- Node16&#45;&gt;Node21 -->
<g id="edge21" class="edge"><title>Node16&#45;&gt;Node21</title>
<path fill="none" stroke="midnightblue" d="M717.391,-554.582C734.462,-559.835 753.944,-565.829 769.7,-570.677"/>
<polygon fill="midnightblue" stroke="midnightblue" points="718.251,-551.185 707.664,-551.589 716.193,-557.875 718.251,-551.185"/>
</g>
<!-- Node20&#45;&gt;Node18 -->
<g id="edge20" class="edge"><title>Node20&#45;&gt;Node18</title>
<path fill="none" stroke="midnightblue" d="M838.199,-642.592C842.234,-640.827 846.241,-638.95 850,-637 877.731,-622.617 907.713,-601.643 924.239,-589.554"/>
<polygon fill="midnightblue" stroke="midnightblue" points="836.725,-639.415 828.837,-646.489 839.414,-645.877 836.725,-639.415"/>
</g>
<!-- Node21&#45;&gt;Node18 -->
<g id="edge22" class="edge"><title>Node21&#45;&gt;Node18</title>
<path fill="none" stroke="midnightblue" d="M842.355,-580C869.627,-580 903.992,-580 922.905,-580"/>
<polygon fill="midnightblue" stroke="midnightblue" points="842.297,-576.5 832.297,-580 842.297,-583.5 842.297,-576.5"/>
</g>
<!-- Node22&#45;&gt;Node4 -->
<g id="edge30" class="edge"><title>Node22&#45;&gt;Node4</title>
<path fill="none" stroke="midnightblue" d="M632.219,-390C556.705,-390 401.173,-390 343.582,-390"/>
<polygon fill="midnightblue" stroke="midnightblue" points="632.325,-393.5 642.325,-390 632.325,-386.5 632.325,-393.5"/>
</g>
<!-- Node23 -->
<g id="node23" class="node"><title>Node23</title>
<g id="a_node23"><a xlink:href="../../da/dd2/lua_8h.html#a022ddaeee46ccb89860c78480e54db05" target="_top" xlink:title="lua_createtable">
<polygon fill="none" stroke="red" points="760.5,-190.5 760.5,-209.5 841.5,-209.5 841.5,-190.5 760.5,-190.5"/>
<text text-anchor="middle" x="801" y="-197.5" font-family="Helvetica,sans-Serif" font-size="10.00">lua_createtable</text>
</a>
</g>
</g>
<!-- Node22&#45;&gt;Node23 -->
<g id="edge24" class="edge"><title>Node22&#45;&gt;Node23</title>
<path fill="none" stroke="midnightblue" d="M684.536,-370.752C702.762,-327.247 746.112,-224.663 752,-219 756.005,-215.148 760.885,-212.047 765.982,-209.56"/>
<polygon fill="midnightblue" stroke="midnightblue" points="681.206,-369.644 680.575,-380.22 687.663,-372.346 681.206,-369.644"/>
</g>
<!-- Node26 -->
<g id="node26" class="node"><title>Node26</title>
<g id="a_node26"><a xlink:href="../../dd/dca/lstate_8c.html#a3f769cc49eb8309417a7cbef2b4d2d8b" target="_top" xlink:title="init_registry">
<polygon fill="none" stroke="red" points="770,-342.5 770,-361.5 832,-361.5 832,-342.5 770,-342.5"/>
<text text-anchor="middle" x="801" y="-349.5" font-family="Helvetica,sans-Serif" font-size="10.00">init_registry</text>
</a>
</g>
</g>
<!-- Node22&#45;&gt;Node26 -->
<g id="edge27" class="edge"><title>Node22&#45;&gt;Node26</title>
<path fill="none" stroke="midnightblue" d="M717.391,-377.418C734.462,-372.165 753.944,-366.171 769.7,-361.323"/>
<polygon fill="midnightblue" stroke="midnightblue" points="716.193,-374.125 707.664,-380.411 718.251,-380.815 716.193,-374.125"/>
</g>
<!-- Node27 -->
<g id="node27" class="node"><title>Node27</title>
<g id="a_node27"><a xlink:href="../../d3/d44/ltable_8h.html#a243b2c9dd8755c68559af6b7065b1800" target="_top" xlink:title="luaH_resizearray">
<polygon fill="none" stroke="black" points="757,-418.5 757,-437.5 845,-437.5 845,-418.5 757,-418.5"/>
<text text-anchor="middle" x="801" y="-425.5" font-family="Helvetica,sans-Serif" font-size="10.00">luaH_resizearray</text>
</a>
</g>
</g>
<!-- Node22&#45;&gt;Node27 -->
<g id="edge28" class="edge"><title>Node22&#45;&gt;Node27</title>
<path fill="none" stroke="midnightblue" d="M717.24,-402.535C734.04,-407.705 753.197,-413.599 768.846,-418.414"/>
<polygon fill="midnightblue" stroke="midnightblue" points="718.251,-399.185 707.664,-399.589 716.193,-405.875 718.251,-399.185"/>
</g>
<!-- Node28 -->
<g id="node28" class="node"><title>Node28</title>
<g id="a_node28"><a xlink:href="../../d5/dcd/lvm_8h.html#ae93565adc36c6e2157dbbd875433ede1" target="_top" xlink:title="luaV_execute">
<polygon fill="none" stroke="red" points="901,-323.5 901,-342.5 975,-342.5 975,-323.5 901,-323.5"/>
<text text-anchor="middle" x="938" y="-330.5" font-family="Helvetica,sans-Serif" font-size="10.00">luaV_execute</text>
</a>
</g>
</g>
<!-- Node22&#45;&gt;Node28 -->
<g id="edge31" class="edge"><title>Node22&#45;&gt;Node28</title>
<path fill="none" stroke="midnightblue" d="M718.714,-388.935C754.256,-387.199 806.162,-382.683 850,-371 875.004,-364.337 902.061,-351.554 919.249,-342.664"/>
<polygon fill="midnightblue" stroke="midnightblue" points="718.528,-385.44 708.69,-389.373 718.833,-392.433 718.528,-385.44"/>
</g>
<!-- Node24 -->
<g id="node24" class="node"><title>Node24</title>
<g id="a_node24"><a xlink:href="../../d2/d82/loadlib_8c.html#a8fc66c8b852ee2960dc20797521d1d9e" target="_top" xlink:title="createsearcherstable">
<polygon fill="none" stroke="red" points="886,-190.5 886,-209.5 990,-209.5 990,-190.5 886,-190.5"/>
<text text-anchor="middle" x="938" y="-197.5" font-family="Helvetica,sans-Serif" font-size="10.00">createsearcherstable</text>
</a>
</g>
</g>
<!-- Node23&#45;&gt;Node24 -->
<g id="edge25" class="edge"><title>Node23&#45;&gt;Node24</title>
<path fill="none" stroke="midnightblue" d="M851.78,-200C862.93,-200 874.775,-200 885.974,-200"/>
<polygon fill="midnightblue" stroke="midnightblue" points="851.774,-196.5 841.774,-200 851.774,-203.5 851.774,-196.5"/>
</g>
<!-- Node25 -->
<g id="node25" class="node"><title>Node25</title>
<g id="a_node25"><a xlink:href="../../d0/da1/ltablib_8c.html#a46a372295cbd1692b06bdbac4ca58881" target="_top" xlink:title="pack">
<polygon fill="none" stroke="black" points="919,-228.5 919,-247.5 957,-247.5 957,-228.5 919,-228.5"/>
<text text-anchor="middle" x="938" y="-235.5" font-family="Helvetica,sans-Serif" font-size="10.00">pack</text>
</a>
</g>
</g>
<!-- Node23&#45;&gt;Node25 -->
<g id="edge26" class="edge"><title>Node23&#45;&gt;Node25</title>
<path fill="none" stroke="midnightblue" d="M845.956,-212.373C870.645,-219.322 900.139,-227.624 918.723,-232.855"/>
<polygon fill="midnightblue" stroke="midnightblue" points="846.64,-208.93 836.066,-209.589 844.744,-215.668 846.64,-208.93"/>
</g>
<!-- Node27&#45;&gt;Node28 -->
<g id="edge29" class="edge"><title>Node27&#45;&gt;Node28</title>
<path fill="none" stroke="midnightblue" d="M832.634,-413.953C838.529,-410.898 844.558,-407.52 850,-404 879.794,-384.732 911.197,-356.975 926.863,-342.538"/>
<polygon fill="midnightblue" stroke="midnightblue" points="830.976,-410.869 823.585,-418.461 834.097,-417.135 830.976,-410.869"/>
</g>
<!-- Node29&#45;&gt;Node22 -->
<g id="edge45" class="edge"><title>Node29&#45;&gt;Node22</title>
<path fill="none" stroke="midnightblue" d="M588.264,-364.197C605.897,-369.473 626.225,-375.555 642.714,-380.489"/>
<polygon fill="midnightblue" stroke="midnightblue" points="588.827,-360.712 578.243,-361.199 586.82,-367.418 588.827,-360.712"/>
</g>
<!-- Node29&#45;&gt;Node26 -->
<g id="edge44" class="edge"><title>Node29&#45;&gt;Node26</title>
<path fill="none" stroke="midnightblue" d="M588.502,-352C639.323,-352 724.731,-352 769.897,-352"/>
<polygon fill="midnightblue" stroke="midnightblue" points="588.209,-348.5 578.209,-352 588.209,-355.5 588.209,-348.5"/>
</g>
<!-- Node29&#45;&gt;Node28 -->
<g id="edge46" class="edge"><title>Node29&#45;&gt;Node28</title>
<path fill="none" stroke="midnightblue" d="M588.467,-347.068C629.698,-342.37 695.151,-335.635 752,-333 803.655,-330.606 863.509,-331.223 900.819,-332.011"/>
<polygon fill="midnightblue" stroke="midnightblue" points="587.805,-343.621 578.272,-348.245 588.608,-350.575 587.805,-343.621"/>
</g>
<!-- Node30 -->
<g id="node30" class="node"><title>Node30</title>
<g id="a_node30"><a xlink:href="../../da/dd2/lua_8h.html#a32f51f8a97b4f005f7a3c378dcf71df2" target="_top" xlink:title="lua_rawseti">
<polygon fill="none" stroke="black" points="768.5,-152.5 768.5,-171.5 833.5,-171.5 833.5,-152.5 768.5,-152.5"/>
<text text-anchor="middle" x="801" y="-159.5" font-family="Helvetica,sans-Serif" font-size="10.00">lua_rawseti</text>
</a>
</g>
</g>
<!-- Node29&#45;&gt;Node30 -->
<g id="edge34" class="edge"><title>Node29&#45;&gt;Node30</title>
<path fill="none" stroke="midnightblue" d="M585.514,-337.919C590.395,-335.105 595.056,-331.815 599,-328 624.429,-303.401 609.602,-281.632 635,-257 663.545,-229.316 683.765,-242.284 716,-219 734.859,-205.378 732.729,-194.033 752,-181 757.494,-177.284 763.822,-174.129 770.044,-171.521"/>
<polygon fill="midnightblue" stroke="midnightblue" points="583.908,-334.809 576.599,-342.478 587.096,-341.041 583.908,-334.809"/>
</g>
<!-- Node37 -->
<g id="node37" class="node"><title>Node37</title>
<g id="a_node37"><a xlink:href="../../d6/ddf/ldebug_8c.html#a6e3195fc94af1f75142c2801ca8cf058" target="_top" xlink:title="collectvalidlines">
<polygon fill="none" stroke="red" points="635.5,-266.5 635.5,-285.5 715.5,-285.5 715.5,-266.5 635.5,-266.5"/>
<text text-anchor="middle" x="675.5" y="-273.5" font-family="Helvetica,sans-Serif" font-size="10.00">collectvalidlines</text>
</a>
</g>
</g>
<!-- Node29&#45;&gt;Node37 -->
<g id="edge43" class="edge"><title>Node29&#45;&gt;Node37</title>
<path fill="none" stroke="midnightblue" d="M580.074,-338.176C586.486,-335.08 593.062,-331.629 599,-328 616.296,-317.43 618.311,-311.504 635,-300 642.267,-294.991 650.582,-289.855 657.703,-285.626"/>
<polygon fill="midnightblue" stroke="midnightblue" points="578.489,-335.053 570.891,-342.438 581.436,-341.403 578.489,-335.053"/>
</g>
<!-- Node30&#45;&gt;Node24 -->
<g id="edge38" class="edge"><title>Node30&#45;&gt;Node24</title>
<path fill="none" stroke="midnightblue" d="M843.338,-173.636C862.521,-179.035 885.038,-185.374 903.187,-190.482"/>
<polygon fill="midnightblue" stroke="midnightblue" points="844.226,-170.25 833.652,-170.909 842.329,-176.988 844.226,-170.25"/>
</g>
<!-- Node30&#45;&gt;Node25 -->
<g id="edge41" class="edge"><title>Node30&#45;&gt;Node25</title>
<path fill="none" stroke="midnightblue" d="M841.251,-175.845C844.298,-177.425 847.253,-179.142 850,-181 869.271,-194.033 866.598,-206.163 886,-219 895.929,-225.569 908.439,-230.275 918.583,-233.36"/>
<polygon fill="midnightblue" stroke="midnightblue" points="842.5,-172.566 831.956,-171.521 839.547,-178.913 842.5,-172.566"/>
</g>
<!-- Node31 -->
<g id="node31" class="node"><title>Node31</title>
<g id="a_node31"><a xlink:href="../../da/d29/lauxlib_8h.html#a2b69e67252d95df410818251f4b2d8e5" target="_top" xlink:title="luaL_ref">
<polygon fill="none" stroke="black" points="913,-152.5 913,-171.5 963,-171.5 963,-152.5 913,-152.5"/>
<text text-anchor="middle" x="938" y="-159.5" font-family="Helvetica,sans-Serif" font-size="10.00">luaL_ref</text>
</a>
</g>
</g>
<!-- Node30&#45;&gt;Node31 -->
<g id="edge35" class="edge"><title>Node30&#45;&gt;Node31</title>
<path fill="none" stroke="midnightblue" d="M843.689,-162C866.333,-162 893.538,-162 912.715,-162"/>
<polygon fill="midnightblue" stroke="midnightblue" points="843.652,-158.5 833.652,-162 843.651,-165.5 843.652,-158.5"/>
</g>
<!-- Node32 -->
<g id="node32" class="node"><title>Node32</title>
<g id="a_node32"><a xlink:href="../../da/d29/lauxlib_8h.html#a6200030ecae784852045161274501e0e" target="_top" xlink:title="luaL_unref">
<polygon fill="none" stroke="black" points="908,-114.5 908,-133.5 968,-133.5 968,-114.5 908,-114.5"/>
<text text-anchor="middle" x="938" y="-121.5" font-family="Helvetica,sans-Serif" font-size="10.00">luaL_unref</text>
</a>
</g>
</g>
<!-- Node30&#45;&gt;Node32 -->
<g id="edge36" class="edge"><title>Node30&#45;&gt;Node32</title>
<path fill="none" stroke="midnightblue" d="M843.519,-150.313C864.345,-144.451 889.065,-137.493 907.852,-132.204"/>
<polygon fill="midnightblue" stroke="midnightblue" points="842.329,-147.012 833.652,-153.091 844.226,-153.75 842.329,-147.012"/>
</g>
<!-- Node33 -->
<g id="node33" class="node"><title>Node33</title>
<g id="a_node33"><a xlink:href="../../d2/d82/loadlib_8c.html#a7a6ec2174d2de185431876163cd2d469" target="_top" xlink:title="ll_addtoclib">
<polygon fill="none" stroke="red" points="907,-266.5 907,-285.5 969,-285.5 969,-266.5 907,-266.5"/>
<text text-anchor="middle" x="938" y="-273.5" font-family="Helvetica,sans-Serif" font-size="10.00">ll_addtoclib</text>
</a>
</g>
</g>
<!-- Node30&#45;&gt;Node33 -->
<g id="edge37" class="edge"><title>Node30&#45;&gt;Node33</title>
<path fill="none" stroke="midnightblue" d="M842.942,-175.56C845.469,-177.183 847.854,-178.99 850,-181 877.279,-206.549 858.463,-231.729 886,-257 891.848,-262.366 899.349,-266.257 906.789,-269.062"/>
<polygon fill="midnightblue" stroke="midnightblue" points="844.41,-172.375 833.944,-170.723 841.096,-178.541 844.41,-172.375"/>
</g>
<!-- Node34 -->
<g id="node34" class="node"><title>Node34</title>
<g id="a_node34"><a xlink:href="../../d0/da1/ltablib_8c.html#a214ed6966e2b1b4c376ab0de0d09032e" target="_top" xlink:title="tinsert">
<polygon fill="none" stroke="black" points="917.5,-76.5 917.5,-95.5 958.5,-95.5 958.5,-76.5 917.5,-76.5"/>
<text text-anchor="middle" x="938" y="-83.5" font-family="Helvetica,sans-Serif" font-size="10.00">tinsert</text>
</a>
</g>
</g>
<!-- Node30&#45;&gt;Node34 -->
<g id="edge39" class="edge"><title>Node30&#45;&gt;Node34</title>
<path fill="none" stroke="midnightblue" d="M841.251,-148.155C844.298,-146.575 847.253,-144.858 850,-143 869.271,-129.967 866.598,-117.837 886,-105 895.456,-98.7435 907.253,-94.1777 917.119,-91.0922"/>
<polygon fill="midnightblue" stroke="midnightblue" points="839.547,-145.087 831.956,-152.479 842.5,-151.434 839.547,-145.087"/>
</g>
<!-- Node35 -->
<g id="node35" class="node"><title>Node35</title>
<g id="a_node35"><a xlink:href="../../d0/da1/ltablib_8c.html#ad8c41fe887a472709c6fdf075ba39d56" target="_top" xlink:title="tremove">
<polygon fill="none" stroke="black" points="913,-38.5 913,-57.5 963,-57.5 963,-38.5 913,-38.5"/>
<text text-anchor="middle" x="938" y="-45.5" font-family="Helvetica,sans-Serif" font-size="10.00">tremove</text>
</a>
</g>
</g>
<!-- Node30&#45;&gt;Node35 -->
<g id="edge40" class="edge"><title>Node30&#45;&gt;Node35</title>
<path fill="none" stroke="midnightblue" d="M842.942,-148.44C845.469,-146.817 847.854,-145.01 850,-143 877.279,-117.451 858.463,-92.2714 886,-67 893.449,-60.1641 903.58,-55.7233 912.851,-52.8697"/>
<polygon fill="midnightblue" stroke="midnightblue" points="841.096,-145.459 833.944,-153.277 844.41,-151.625 841.096,-145.459"/>
</g>
<!-- Node36 -->
<g id="node36" class="node"><title>Node36</title>
<g id="a_node36"><a xlink:href="../../d0/da1/ltablib_8c.html#a1172f96899917b7ea1702947b745eca6" target="_top" xlink:title="set2">
<polygon fill="none" stroke="red" points="920.5,-0.5 920.5,-19.5 955.5,-19.5 955.5,-0.5 920.5,-0.5"/>
<text text-anchor="middle" x="938" y="-7.5" font-family="Helvetica,sans-Serif" font-size="10.00">set2</text>
</a>
</g>
</g>
<!-- Node30&#45;&gt;Node36 -->
<g id="edge42" class="edge"><title>Node30&#45;&gt;Node36</title>
<path fill="none" stroke="midnightblue" d="M842.802,-149.081C845.429,-147.304 847.87,-145.287 850,-143 886.213,-104.119 849.395,-67.5117 886,-29 894.983,-19.549 909.101,-14.7662 920.208,-12.365"/>
<polygon fill="midnightblue" stroke="midnightblue" points="840.991,-146.083 833.929,-153.982 844.375,-152.211 840.991,-146.083"/>
</g>
<!-- Node38&#45;&gt;Node28 -->
<g id="edge54" class="edge"><title>Node38&#45;&gt;Node28</title>
<path fill="none" stroke="midnightblue" d="M695.479,-216.513C710.199,-228.765 731.486,-245.303 752,-257 780.504,-273.254 867.756,-306.932 911.475,-323.448"/>
<polygon fill="midnightblue" stroke="midnightblue" points="697.519,-213.655 687.626,-209.864 692.996,-218.997 697.519,-213.655"/>
</g>
<!-- Node39 -->
<g id="node39" class="node"><title>Node39</title>
<g id="a_node39"><a xlink:href="../../da/dd2/lua_8h.html#ac0ebe7d753b81f6249dde8cf0b8ea997" target="_top" xlink:title="lua_setglobal">
<polygon fill="none" stroke="red" points="764.5,-114.5 764.5,-133.5 837.5,-133.5 837.5,-114.5 764.5,-114.5"/>
<text text-anchor="middle" x="801" y="-121.5" font-family="Helvetica,sans-Serif" font-size="10.00">lua_setglobal</text>
</a>
</g>
</g>
<!-- Node38&#45;&gt;Node39 -->
<g id="edge48" class="edge"><title>Node38&#45;&gt;Node39</title>
<path fill="none" stroke="midnightblue" d="M695.436,-183.411C710.134,-171.119 731.412,-154.565 752,-143 758.329,-139.445 765.459,-136.237 772.249,-133.513"/>
<polygon fill="midnightblue" stroke="midnightblue" points="692.942,-180.937 687.597,-190.085 697.48,-186.267 692.942,-180.937"/>
</g>
<!-- Node40 -->
<g id="node40" class="node"><title>Node40</title>
<g id="a_node40"><a xlink:href="../../da/dd2/lua_8h.html#aeda173d104e3a566ccaac89a1f64a5eb" target="_top" xlink:title="lua_settable">
<polygon fill="none" stroke="red" points="767,-76.5 767,-95.5 835,-95.5 835,-76.5 767,-76.5"/>
<text text-anchor="middle" x="801" y="-83.5" font-family="Helvetica,sans-Serif" font-size="10.00">lua_settable</text>
</a>
</g>
</g>
<!-- Node38&#45;&gt;Node40 -->
<g id="edge49" class="edge"><title>Node38&#45;&gt;Node40</title>
<path fill="none" stroke="midnightblue" d="M686.999,-181.603C699.874,-160.503 723.531,-126.112 752,-105 757.039,-101.263 762.912,-98.1491 768.785,-95.5969"/>
<polygon fill="midnightblue" stroke="midnightblue" points="683.952,-179.879 681.864,-190.266 689.974,-183.449 683.952,-179.879"/>
</g>
<!-- Node41 -->
<g id="node41" class="node"><title>Node41</title>
<g id="a_node41"><a xlink:href="../../da/dd2/lua_8h.html#a9580a15c141cbe4bf2a63fea625c3878" target="_top" xlink:title="lua_setfield">
<polygon fill="none" stroke="red" points="769.5,-228.5 769.5,-247.5 832.5,-247.5 832.5,-228.5 769.5,-228.5"/>
<text text-anchor="middle" x="801" y="-235.5" font-family="Helvetica,sans-Serif" font-size="10.00">lua_setfield</text>
</a>
</g>
</g>
<!-- Node38&#45;&gt;Node41 -->
<g id="edge50" class="edge"><title>Node38&#45;&gt;Node41</title>
<path fill="none" stroke="midnightblue" d="M717.315,-212.559C734.251,-217.77 753.57,-223.714 769.274,-228.546"/>
<polygon fill="midnightblue" stroke="midnightblue" points="718.251,-209.185 707.664,-209.589 716.193,-215.875 718.251,-209.185"/>
</g>
<!-- Node41&#45;&gt;Node9 -->
<g id="edge51" class="edge"><title>Node41&#45;&gt;Node9</title>
<path fill="none" stroke="midnightblue" d="M814.509,-256.062C830.491,-278.88 859.289,-319.135 886,-352 899.902,-369.106 917.219,-387.994 927.677,-399.161"/>
<polygon fill="midnightblue" stroke="midnightblue" points="817.261,-253.891 808.672,-247.689 811.519,-257.894 817.261,-253.891"/>
</g>
<!-- Node41&#45;&gt;Node25 -->
<g id="edge53" class="edge"><title>Node41&#45;&gt;Node25</title>
<path fill="none" stroke="midnightblue" d="M842.737,-238C868.124,-238 899.539,-238 918.922,-238"/>
<polygon fill="midnightblue" stroke="midnightblue" points="842.634,-234.5 832.634,-238 842.634,-241.5 842.634,-234.5"/>
</g>
<!-- Node41&#45;&gt;Node33 -->
<g id="edge52" class="edge"><title>Node41&#45;&gt;Node33</title>
<path fill="none" stroke="midnightblue" d="M842.434,-249.381C863.153,-255.214 887.95,-262.193 906.953,-267.542"/>
<polygon fill="midnightblue" stroke="midnightblue" points="843.208,-245.963 832.634,-246.623 841.311,-252.701 843.208,-245.963"/>
</g>
<!-- Node43 -->
<g id="node43" class="node"><title>Node43</title>
<g id="a_node43"><a xlink:href="../../d3/d44/ltable_8h.html#a55be2c48e6e2c113dabda3819f5301e7" target="_top" xlink:title="luaH_next">
<polygon fill="none" stroke="black" points="192.5,-256.5 192.5,-275.5 251.5,-275.5 251.5,-256.5 192.5,-256.5"/>
<text text-anchor="middle" x="222" y="-263.5" font-family="Helvetica,sans-Serif" font-size="10.00">luaH_next</text>
</a>
</g>
</g>
<!-- Node42&#45;&gt;Node43 -->
<g id="edge57" class="edge"><title>Node42&#45;&gt;Node43</title>
<path fill="none" stroke="midnightblue" d="M160.269,-272.293C170.797,-271.202 182.175,-270.023 192.206,-268.984"/>
<polygon fill="midnightblue" stroke="midnightblue" points="159.693,-268.834 150.107,-273.346 160.414,-275.797 159.693,-268.834"/>
</g>
<!-- Node44 -->
<g id="node44" class="node"><title>Node44</title>
<g id="a_node44"><a xlink:href="../../da/dd2/lua_8h.html#a2a62b957ab95d9b542bf7d02794181e6" target="_top" xlink:title="lua_next">
<polygon fill="none" stroke="black" points="294,-237.5 294,-256.5 347,-256.5 347,-237.5 294,-237.5"/>
<text text-anchor="middle" x="320.5" y="-244.5" font-family="Helvetica,sans-Serif" font-size="10.00">lua_next</text>
</a>
</g>
</g>
<!-- Node43&#45;&gt;Node44 -->
<g id="edge58" class="edge"><title>Node43&#45;&gt;Node44</title>
<path fill="none" stroke="midnightblue" d="M261.728,-258.375C272.483,-256.257 283.895,-254.01 293.711,-252.078"/>
<polygon fill="midnightblue" stroke="midnightblue" points="260.827,-254.985 251.692,-260.351 262.18,-261.853 260.827,-254.985"/>
</g>
<!-- Node45 -->
<g id="node45" class="node"><title>Node45</title>
<g id="a_node45"><a xlink:href="../../d1/dc2/_kensho_lua_wrapper_8m.html#a659a5a25271d0c7e4f5478f828a93b41" target="_top" xlink:title="popValue">
<polygon fill="none" stroke="black" points="391,-190.5 391,-209.5 450,-209.5 450,-190.5 391,-190.5"/>
<text text-anchor="middle" x="420.5" y="-197.5" font-family="Helvetica,sans-Serif" font-size="10.00">popValue</text>
</a>
</g>
</g>
<!-- Node44&#45;&gt;Node45 -->
<g id="edge59" class="edge"><title>Node44&#45;&gt;Node45</title>
<path fill="none" stroke="midnightblue" d="M350.612,-233.038C366.316,-225.507 385.301,-216.401 399.361,-209.658"/>
<polygon fill="midnightblue" stroke="midnightblue" points="348.835,-230.009 341.332,-237.489 351.862,-236.32 348.835,-230.009"/>
</g>
<!-- Node47 -->
<g id="node47" class="node"><title>Node47</title>
<g id="a_node47"><a xlink:href="../../d0/d56/lauxlib_8c.html#a36c8f149b779f8c9a5c042ea9784d80a" target="_top" xlink:title="findfield">
<polygon fill="none" stroke="black" points="397,-266.5 397,-285.5 444,-285.5 444,-266.5 397,-266.5"/>
<text text-anchor="middle" x="420.5" y="-273.5" font-family="Helvetica,sans-Serif" font-size="10.00">findfield</text>
</a>
</g>
</g>
<!-- Node44&#45;&gt;Node47 -->
<g id="edge61" class="edge"><title>Node44&#45;&gt;Node47</title>
<path fill="none" stroke="midnightblue" d="M357.071,-257.526C370.376,-261.463 385.112,-265.824 396.925,-269.32"/>
<polygon fill="midnightblue" stroke="midnightblue" points="357.83,-254.101 347.248,-254.619 355.844,-260.813 357.83,-254.101"/>
</g>
<!-- Node49 -->
<g id="node49" class="node"><title>Node49</title>
<g id="a_node49"><a xlink:href="../../d8/dd3/lbaselib_8c.html#ac0b11ecf3ced275821aaf5a03ed33b02" target="_top" xlink:title="luaB_next">
<polygon fill="none" stroke="black" points="391,-228.5 391,-247.5 450,-247.5 450,-228.5 391,-228.5"/>
<text text-anchor="middle" x="420.5" y="-235.5" font-family="Helvetica,sans-Serif" font-size="10.00">luaB_next</text>
</a>
</g>
</g>
<!-- Node44&#45;&gt;Node49 -->
<g id="edge63" class="edge"><title>Node44&#45;&gt;Node49</title>
<path fill="none" stroke="midnightblue" d="M357.423,-243.701C368.421,-242.691 380.368,-241.594 390.817,-240.634"/>
<polygon fill="midnightblue" stroke="midnightblue" points="356.886,-240.235 347.248,-244.635 357.527,-247.206 356.886,-240.235"/>
</g>
<!-- Node46 -->
<g id="node46" class="node"><title>Node46</title>
<g id="a_node46"><a xlink:href="../../d1/dc2/_kensho_lua_wrapper_8m.html#a05954c02378e1c67ec00d4d5fc118d07" target="_top" xlink:title="This is executed when the LUA subsystem attempts to assign data to a new index. ">
<polygon fill="none" stroke="red" points="505.5,-190.5 505.5,-209.5 587.5,-209.5 587.5,-190.5 505.5,-190.5"/>
<text text-anchor="middle" x="546.5" y="-197.5" font-family="Helvetica,sans-Serif" font-size="10.00">lookupNewKey</text>
</a>
</g>
</g>
<!-- Node45&#45;&gt;Node46 -->
<g id="edge60" class="edge"><title>Node45&#45;&gt;Node46</title>
<path fill="none" stroke="midnightblue" d="M460.263,-200C474.541,-200 490.741,-200 505.155,-200"/>
<polygon fill="midnightblue" stroke="midnightblue" points="460.26,-196.5 450.26,-200 460.26,-203.5 460.26,-196.5"/>
</g>
<!-- Node48 -->
<g id="node48" class="node"><title>Node48</title>
<g id="a_node48"><a xlink:href="../../d0/d56/lauxlib_8c.html#a4f35430f7ecfcbd5f507e550937046b4" target="_top" xlink:title="pushglobalfuncname">
<polygon fill="none" stroke="red" points="494,-266.5 494,-285.5 599,-285.5 599,-266.5 494,-266.5"/>
<text text-anchor="middle" x="546.5" y="-273.5" font-family="Helvetica,sans-Serif" font-size="10.00">pushglobalfuncname</text>
</a>
</g>
</g>
<!-- Node47&#45;&gt;Node48 -->
<g id="edge62" class="edge"><title>Node47&#45;&gt;Node48</title>
<path fill="none" stroke="midnightblue" d="M454.325,-276C466.435,-276 480.469,-276 493.842,-276"/>
<polygon fill="midnightblue" stroke="midnightblue" points="454.244,-272.5 444.244,-276 454.243,-279.5 454.244,-272.5"/>
</g>
<!-- Node50 -->
<g id="node50" class="node"><title>Node50</title>
<g id="a_node50"><a xlink:href="../../d8/dd3/lbaselib_8c.html#a36def102f87ba8c40734489231e90109" target="_top" xlink:title="luaB_pairs">
<polygon fill="none" stroke="black" points="515.5,-228.5 515.5,-247.5 577.5,-247.5 577.5,-228.5 515.5,-228.5"/>
<text text-anchor="middle" x="546.5" y="-235.5" font-family="Helvetica,sans-Serif" font-size="10.00">luaB_pairs</text>
</a>
</g>
</g>
<!-- Node49&#45;&gt;Node50 -->
<g id="edge64" class="edge"><title>Node49&#45;&gt;Node50</title>
<path fill="none" stroke="midnightblue" d="M460.285,-238C477.982,-238 498.629,-238 515.166,-238"/>
<polygon fill="midnightblue" stroke="midnightblue" points="460.26,-234.5 450.26,-238 460.26,-241.5 460.26,-234.5"/>
</g>
</g>
</svg>
