<?xml version="1.0" encoding="UTF-8" standalone="no"?>
<!DOCTYPE svg PUBLIC "-//W3C//DTD SVG 1.1//EN"
 "http://www.w3.org/Graphics/SVG/1.1/DTD/svg11.dtd">
<!-- Generated by graphviz version 2.38.0 (20140413.2041)
 -->
<!-- Title: luaF_newCclosure Pages: 1 -->
<svg width="598pt" height="199pt"
 viewBox="0.00 0.00 598.00 199.00" xmlns="http://www.w3.org/2000/svg" xmlns:xlink="http://www.w3.org/1999/xlink">
<g id="graph0" class="graph" transform="scale(1 1) rotate(0) translate(4 195)">
<title>luaF_newCclosure</title>
<!-- Node1 -->
<g id="node1" class="node"><title>Node1</title>
<polygon fill="#bfbfbf" stroke="black" points="0,-76.5 0,-95.5 95,-95.5 95,-76.5 0,-76.5"/>
<text text-anchor="middle" x="47.5" y="-83.5" font-family="Helvetica,sans-Serif" font-size="10.00">luaF_newCclosure</text>
</g>
<!-- Node2 -->
<g id="node2" class="node"><title>Node2</title>
<g id="a_node2"><a xlink:href="../../da/dd2/lua_8h.html#a89f758ed8996c5f405cb7dfb41f78337" target="_top" xlink:title="lua_pushcclosure">
<polygon fill="none" stroke="black" points="131,-76.5 131,-95.5 221,-95.5 221,-76.5 131,-76.5"/>
<text text-anchor="middle" x="176" y="-83.5" font-family="Helvetica,sans-Serif" font-size="10.00">lua_pushcclosure</text>
</a>
</g>
</g>
<!-- Node1&#45;&gt;Node2 -->
<g id="edge1" class="edge"><title>Node1&#45;&gt;Node2</title>
<path fill="none" stroke="midnightblue" d="M105.255,-86C113.879,-86 122.667,-86 130.966,-86"/>
<polygon fill="midnightblue" stroke="midnightblue" points="105.245,-82.5001 95.2445,-86 105.244,-89.5001 105.245,-82.5001"/>
</g>
<!-- Node3 -->
<g id="node3" class="node"><title>Node3</title>
<g id="a_node3"><a xlink:href="../../da/d29/lauxlib_8h.html#a8750009b9bbc508e4c3818ebd15b4e14" target="_top" xlink:title="luaL_setfuncs">
<polygon fill="none" stroke="black" points="271.5,-152.5 271.5,-171.5 346.5,-171.5 346.5,-152.5 271.5,-152.5"/>
<text text-anchor="middle" x="309" y="-159.5" font-family="Helvetica,sans-Serif" font-size="10.00">luaL_setfuncs</text>
</a>
</g>
</g>
<!-- Node2&#45;&gt;Node3 -->
<g id="edge2" class="edge"><title>Node2&#45;&gt;Node3</title>
<path fill="none" stroke="midnightblue" d="M196.175,-101.858C211.823,-114.243 234.884,-131.265 257,-143 263.677,-146.543 271.162,-149.727 278.297,-152.431"/>
<polygon fill="midnightblue" stroke="midnightblue" points="198.282,-99.0607 188.298,-95.517 193.893,-104.514 198.282,-99.0607"/>
</g>
<!-- Node8 -->
<g id="node8" class="node"><title>Node8</title>
<g id="a_node8"><a xlink:href="../../df/d2d/lcorolib_8c.html#a1c0429e27f504b08e25f437f733edad1" target="_top" xlink:title="luaB_cowrap">
<polygon fill="none" stroke="black" points="272,-114.5 272,-133.5 346,-133.5 346,-114.5 272,-114.5"/>
<text text-anchor="middle" x="309" y="-121.5" font-family="Helvetica,sans-Serif" font-size="10.00">luaB_cowrap</text>
</a>
</g>
</g>
<!-- Node2&#45;&gt;Node8 -->
<g id="edge7" class="edge"><title>Node2&#45;&gt;Node8</title>
<path fill="none" stroke="midnightblue" d="M219.715,-98.3906C237.655,-103.594 258.2,-109.554 274.954,-114.414"/>
<polygon fill="midnightblue" stroke="midnightblue" points="220.636,-95.0136 210.057,-95.589 218.686,-101.736 220.636,-95.0136"/>
</g>
<!-- Node9 -->
<g id="node9" class="node"><title>Node9</title>
<g id="a_node9"><a xlink:href="../../de/df3/liolib_8c.html#a66325940a0248cee288153edb061c0c4" target="_top" xlink:title="aux_lines">
<polygon fill="none" stroke="black" points="280.5,-38.5 280.5,-57.5 337.5,-57.5 337.5,-38.5 280.5,-38.5"/>
<text text-anchor="middle" x="309" y="-45.5" font-family="Helvetica,sans-Serif" font-size="10.00">aux_lines</text>
</a>
</g>
</g>
<!-- Node2&#45;&gt;Node9 -->
<g id="edge8" class="edge"><title>Node2&#45;&gt;Node9</title>
<path fill="none" stroke="midnightblue" d="M219.812,-73.5813C239.677,-67.8188 262.72,-61.1347 280.268,-56.0443"/>
<polygon fill="midnightblue" stroke="midnightblue" points="218.686,-70.2636 210.057,-76.411 220.636,-76.9864 218.686,-70.2636"/>
</g>
<!-- Node12 -->
<g id="node12" class="node"><title>Node12</title>
<g id="a_node12"><a xlink:href="../../d2/d82/loadlib_8c.html#a8fc66c8b852ee2960dc20797521d1d9e" target="_top" xlink:title="createsearcherstable">
<polygon fill="none" stroke="black" points="257,-76.5 257,-95.5 361,-95.5 361,-76.5 257,-76.5"/>
<text text-anchor="middle" x="309" y="-83.5" font-family="Helvetica,sans-Serif" font-size="10.00">createsearcherstable</text>
</a>
</g>
</g>
<!-- Node2&#45;&gt;Node12 -->
<g id="edge11" class="edge"><title>Node2&#45;&gt;Node12</title>
<path fill="none" stroke="midnightblue" d="M231.466,-86C239.892,-86 248.57,-86 256.918,-86"/>
<polygon fill="midnightblue" stroke="midnightblue" points="231.351,-82.5001 221.351,-86 231.351,-89.5001 231.351,-82.5001"/>
</g>
<!-- Node13 -->
<g id="node13" class="node"><title>Node13</title>
<g id="a_node13"><a xlink:href="../../dc/d77/lstrlib_8c.html#ab55a72bb412d6186c82fd75de44cd031" target="_top" xlink:title="gmatch">
<polygon fill="none" stroke="black" points="285.5,-0.5 285.5,-19.5 332.5,-19.5 332.5,-0.5 285.5,-0.5"/>
<text text-anchor="middle" x="309" y="-7.5" font-family="Helvetica,sans-Serif" font-size="10.00">gmatch</text>
</a>
</g>
</g>
<!-- Node2&#45;&gt;Node13 -->
<g id="edge13" class="edge"><title>Node2&#45;&gt;Node13</title>
<path fill="none" stroke="midnightblue" d="M196.175,-70.1423C211.823,-57.7571 234.884,-40.7354 257,-29 265.931,-24.2612 276.305,-20.1645 285.357,-17.001"/>
<polygon fill="midnightblue" stroke="midnightblue" points="193.893,-67.4862 188.298,-76.483 198.282,-72.9393 193.893,-67.4862"/>
</g>
<!-- Node4 -->
<g id="node4" class="node"><title>Node4</title>
<g id="a_node4"><a xlink:href="../../de/df3/liolib_8c.html#a2edb7e84ca2f51dafb5d77b9c81a804c" target="_top" xlink:title="createmeta">
<polygon fill="none" stroke="black" points="412.5,-171.5 412.5,-190.5 475.5,-190.5 475.5,-171.5 412.5,-171.5"/>
<text text-anchor="middle" x="444" y="-178.5" font-family="Helvetica,sans-Serif" font-size="10.00">createmeta</text>
</a>
</g>
</g>
<!-- Node3&#45;&gt;Node4 -->
<g id="edge3" class="edge"><title>Node3&#45;&gt;Node4</title>
<path fill="none" stroke="midnightblue" d="M356.666,-168.667C375.102,-171.3 395.776,-174.254 412.27,-176.61"/>
<polygon fill="midnightblue" stroke="midnightblue" points="357.089,-165.192 346.695,-167.242 356.099,-172.121 357.089,-165.192"/>
</g>
<!-- Node6 -->
<g id="node6" class="node"><title>Node6</title>
<g id="a_node6"><a xlink:href="../../d6/d07/lualib_8h.html#a1aebe7162861d1f3fe9c0d6d269031d4" target="_top" xlink:title="luaopen_base">
<polygon fill="none" stroke="black" points="404.5,-133.5 404.5,-152.5 483.5,-152.5 483.5,-133.5 404.5,-133.5"/>
<text text-anchor="middle" x="444" y="-140.5" font-family="Helvetica,sans-Serif" font-size="10.00">luaopen_base</text>
</a>
</g>
</g>
<!-- Node3&#45;&gt;Node6 -->
<g id="edge5" class="edge"><title>Node3&#45;&gt;Node6</title>
<path fill="none" stroke="midnightblue" d="M356.62,-155.34C372.133,-153.124 389.235,-150.681 404.101,-148.557"/>
<polygon fill="midnightblue" stroke="midnightblue" points="356.099,-151.879 346.695,-156.758 357.089,-158.808 356.099,-151.879"/>
</g>
<!-- Node7 -->
<g id="node7" class="node"><title>Node7</title>
<g id="a_node7"><a xlink:href="../../d6/d07/lualib_8h.html#a05e0befc0439f926b6152129ab4f8dea" target="_top" xlink:title="luaopen_package">
<polygon fill="none" stroke="black" points="397,-95.5 397,-114.5 491,-114.5 491,-95.5 397,-95.5"/>
<text text-anchor="middle" x="444" y="-102.5" font-family="Helvetica,sans-Serif" font-size="10.00">luaopen_package</text>
</a>
</g>
</g>
<!-- Node3&#45;&gt;Node7 -->
<g id="edge6" class="edge"><title>Node3&#45;&gt;Node7</title>
<path fill="none" stroke="midnightblue" d="M347.094,-148.822C351.812,-146.959 356.546,-144.995 361,-143 377.511,-135.604 380.621,-131.684 397,-124 403.884,-120.771 411.47,-117.516 418.463,-114.636"/>
<polygon fill="midnightblue" stroke="midnightblue" points="345.613,-145.642 337.525,-152.485 348.115,-152.179 345.613,-145.642"/>
</g>
<!-- Node5 -->
<g id="node5" class="node"><title>Node5</title>
<g id="a_node5"><a xlink:href="../../d6/d07/lualib_8h.html#a686b841d953f3113ddc7538d69debce7" target="_top" xlink:title="luaopen_io">
<polygon fill="none" stroke="black" points="527,-171.5 527,-190.5 590,-190.5 590,-171.5 527,-171.5"/>
<text text-anchor="middle" x="558.5" y="-178.5" font-family="Helvetica,sans-Serif" font-size="10.00">luaopen_io</text>
</a>
</g>
</g>
<!-- Node4&#45;&gt;Node5 -->
<g id="edge4" class="edge"><title>Node4&#45;&gt;Node5</title>
<path fill="none" stroke="midnightblue" d="M485.782,-181C499.319,-181 514.151,-181 526.796,-181"/>
<polygon fill="midnightblue" stroke="midnightblue" points="485.741,-177.5 475.741,-181 485.741,-184.5 485.741,-177.5"/>
</g>
<!-- Node10 -->
<g id="node10" class="node"><title>Node10</title>
<g id="a_node10"><a xlink:href="../../de/df3/liolib_8c.html#a6a36f72d8b3966c1ebafab8a4791cb6c" target="_top" xlink:title="f_lines">
<polygon fill="none" stroke="black" points="422.5,-57.5 422.5,-76.5 465.5,-76.5 465.5,-57.5 422.5,-57.5"/>
<text text-anchor="middle" x="444" y="-64.5" font-family="Helvetica,sans-Serif" font-size="10.00">f_lines</text>
</a>
</g>
</g>
<!-- Node9&#45;&gt;Node10 -->
<g id="edge9" class="edge"><title>Node9&#45;&gt;Node10</title>
<path fill="none" stroke="midnightblue" d="M347.523,-53.3604C371.808,-56.8297 402.502,-61.2146 422.433,-64.0618"/>
<polygon fill="midnightblue" stroke="midnightblue" points="347.952,-49.8863 337.558,-51.9368 346.962,-56.8159 347.952,-49.8863"/>
</g>
<!-- Node11 -->
<g id="node11" class="node"><title>Node11</title>
<g id="a_node11"><a xlink:href="../../de/df3/liolib_8c.html#ab08031b51605d4ef676ec33a3b96a286" target="_top" xlink:title="io_lines">
<polygon fill="none" stroke="black" points="420.5,-19.5 420.5,-38.5 467.5,-38.5 467.5,-19.5 420.5,-19.5"/>
<text text-anchor="middle" x="444" y="-26.5" font-family="Helvetica,sans-Serif" font-size="10.00">io_lines</text>
</a>
</g>
</g>
<!-- Node9&#45;&gt;Node11 -->
<g id="edge10" class="edge"><title>Node9&#45;&gt;Node11</title>
<path fill="none" stroke="midnightblue" d="M347.525,-42.6393C370.974,-39.2895 400.397,-35.0862 420.337,-32.2376"/>
<polygon fill="midnightblue" stroke="midnightblue" points="346.962,-39.1841 337.558,-44.0632 347.952,-46.1137 346.962,-39.1841"/>
</g>
<!-- Node12&#45;&gt;Node7 -->
<g id="edge12" class="edge"><title>Node12&#45;&gt;Node7</title>
<path fill="none" stroke="midnightblue" d="M371.056,-94.7223C379.666,-95.9523 388.398,-97.1997 396.67,-98.3814"/>
<polygon fill="midnightblue" stroke="midnightblue" points="371.435,-91.241 361.041,-93.2916 370.445,-98.1707 371.435,-91.241"/>
</g>
</g>
</svg>
