<?xml version="1.0" encoding="UTF-8" standalone="no"?>
<!DOCTYPE svg PUBLIC "-//W3C//DTD SVG 1.1//EN"
 "http://www.w3.org/Graphics/SVG/1.1/DTD/svg11.dtd">
<!-- Generated by graphviz version 2.34.0 (20131008.0448)
 -->
<!-- Title: NSProxy Pages: 1 -->
<svg width="162pt" height="192pt"
 viewBox="0.00 0.00 162.00 192.00" xmlns="http://www.w3.org/2000/svg" xmlns:xlink="http://www.w3.org/1999/xlink">
<g id="graph0" class="graph" transform="scale(1 1) rotate(0) translate(4 188)">
<title>NSProxy</title>
<!-- Node1 -->
<g id="node1" class="node"><title>Node1</title>
<polygon fill="#bfbfbf" stroke="black" points="49.2775,-123 49.2775,-183 104.722,-183 104.722,-123 49.2775,-123"/>
<text text-anchor="middle" x="77" y="-170" font-family="Helvetica,sans-Serif" font-size="10.00">NSProxy</text>
<polyline fill="none" stroke="black" points="49.2775,-163 104.722,-163 "/>
<text text-anchor="middle" x="77" y="-150" font-family="Helvetica,sans-Serif" font-size="10.00"> </text>
<polyline fill="none" stroke="black" points="49.2775,-143 104.722,-143 "/>
<text text-anchor="middle" x="77" y="-130" font-family="Helvetica,sans-Serif" font-size="10.00"> </text>
</g>
<!-- Node2 -->
<g id="node2" class="node"><title>Node2</title>
<g id="a_node2"><a xlink:href="../../d1/d29/interface_weak_proxy.html" target="_top" xlink:title="A class that extends NSProxy to create a &#39;weak&#39; wrapping object around a concrete class...">
<polygon fill="none" stroke="black" points="-0.601,-1 -0.601,-85 154.601,-85 154.601,-1 -0.601,-1"/>
<text text-anchor="middle" x="77" y="-72" font-family="Helvetica,sans-Serif" font-size="10.00">WeakProxy</text>
<polyline fill="none" stroke="black" points="-0.601,-65 154.601,-65 "/>
<text text-anchor="start" x="7.399" y="-52" font-family="Helvetica,sans-Serif" font-size="10.00"># target</text>
<polyline fill="none" stroke="black" points="-0.601,-45 154.601,-45 "/>
<text text-anchor="start" x="7.399" y="-32" font-family="Helvetica,sans-Serif" font-size="10.00">+ initWithProxied:</text>
<text text-anchor="start" x="7.399" y="-20" font-family="Helvetica,sans-Serif" font-size="10.00">+ forwardInvocation:</text>
<text text-anchor="start" x="7.399" y="-8" font-family="Helvetica,sans-Serif" font-size="10.00">+ methodSignatureForSelector:</text>
</a>
</g>
</g>
<!-- Node1&#45;&gt;Node2 -->
<g id="edge1" class="edge"><title>Node1&#45;&gt;Node2</title>
<path fill="none" stroke="midnightblue" d="M77,-112.572C77,-103.598 77,-94.0446 77,-85.007"/>
<polygon fill="none" stroke="midnightblue" points="73.5001,-112.774 77,-122.774 80.5001,-112.774 73.5001,-112.774"/>
</g>
</g>
</svg>
