<?xml version="1.0" encoding="UTF-8" standalone="no"?>
<!DOCTYPE svg PUBLIC "-//W3C//DTD SVG 1.1//EN"
 "http://www.w3.org/Graphics/SVG/1.1/DTD/svg11.dtd">
<!-- Generated by graphviz version 2.38.0 (20140413.2041)
 -->
<!-- Title: &lt;IObservable&gt; Pages: 1 -->
<svg width="463pt" height="667pt"
 viewBox="0.00 0.00 462.50 667.00" xmlns="http://www.w3.org/2000/svg" xmlns:xlink="http://www.w3.org/1999/xlink">
<g id="graph0" class="graph" transform="scale(1 1) rotate(0) translate(4 663)">
<title>&lt;IObservable&gt;</title>
<!-- Node1 -->
<g id="node1" class="node"><title>Node1</title>
<polygon fill="#bfbfbf" stroke="black" points="159,-474.5 159,-564.5 297,-564.5 297,-474.5 159,-474.5"/>
<text text-anchor="middle" x="228" y="-552.5" font-family="Helvetica,sans-Serif" font-size="10.00">&lt;IObservable&gt;</text>
<polyline fill="none" stroke="black" points="159,-545.5 297,-545.5 "/>
<text text-anchor="middle" x="228" y="-533.5" font-family="Helvetica,sans-Serif" font-size="10.00"> </text>
<polyline fill="none" stroke="black" points="159,-526.5 297,-526.5 "/>
<text text-anchor="start" x="167" y="-514.5" font-family="Helvetica,sans-Serif" font-size="10.00">+ addObserver:attribute</text>
<text text-anchor="start" x="167" y="-503.5" font-family="Helvetica,sans-Serif" font-size="10.00">:context:</text>
<text text-anchor="start" x="167" y="-492.5" font-family="Helvetica,sans-Serif" font-size="10.00">+ removeObserver:attribute</text>
<text text-anchor="start" x="167" y="-481.5" font-family="Helvetica,sans-Serif" font-size="10.00">:context:</text>
</g>
<!-- Node3 -->
<g id="node3" class="node"><title>Node3</title>
<g id="a_node3"><a xlink:href="../../d5/dc8/interface_ken_computed.html" target="_top" xlink:title="{KenComputed\n|+ calculatorMethod\l+ value\l# _calculatorMethod\l# ken\l# observing\l|+ initWithKensho:calculator:\l+ liveValue\l+ observable:updated\l:context:\l+ observableDeallocated\l:context:\l}">
<polygon fill="none" stroke="black" points="0,-232 0,-388 140,-388 140,-232 0,-232"/>
<text text-anchor="middle" x="70" y="-376" font-family="Helvetica,sans-Serif" font-size="10.00">KenComputed</text>
<polyline fill="none" stroke="black" points="0,-369 140,-369 "/>
<text text-anchor="start" x="8" y="-357" font-family="Helvetica,sans-Serif" font-size="10.00">+ calculatorMethod</text>
<text text-anchor="start" x="8" y="-346" font-family="Helvetica,sans-Serif" font-size="10.00">+ value</text>
<text text-anchor="start" x="8" y="-335" font-family="Helvetica,sans-Serif" font-size="10.00"># _calculatorMethod</text>
<text text-anchor="start" x="8" y="-324" font-family="Helvetica,sans-Serif" font-size="10.00"># ken</text>
<text text-anchor="start" x="8" y="-313" font-family="Helvetica,sans-Serif" font-size="10.00"># observing</text>
<polyline fill="none" stroke="black" points="0,-306 140,-306 "/>
<text text-anchor="start" x="8" y="-294" font-family="Helvetica,sans-Serif" font-size="10.00">+ initWithKensho:calculator:</text>
<text text-anchor="start" x="8" y="-283" font-family="Helvetica,sans-Serif" font-size="10.00">+ liveValue</text>
<text text-anchor="start" x="8" y="-272" font-family="Helvetica,sans-Serif" font-size="10.00">+ observable:updated</text>
<text text-anchor="start" x="8" y="-261" font-family="Helvetica,sans-Serif" font-size="10.00">:context:</text>
<text text-anchor="start" x="8" y="-250" font-family="Helvetica,sans-Serif" font-size="10.00">+ observableDeallocated</text>
<text text-anchor="start" x="8" y="-239" font-family="Helvetica,sans-Serif" font-size="10.00">:context:</text>
</a>
</g>
</g>
<!-- Node1&#45;&gt;Node3 -->
<g id="edge2" class="edge"><title>Node1&#45;&gt;Node3</title>
<path fill="none" stroke="midnightblue" d="M174.05,-466.818C165.315,-457.537 156.639,-447.717 149,-438 136.804,-422.486 124.886,-404.99 114.157,-388.056"/>
<polygon fill="none" stroke="midnightblue" points="171.608,-469.328 181.051,-474.133 176.666,-464.488 171.608,-469.328"/>
</g>
<!-- Node5 -->
<g id="node5" class="node"><title>Node5</title>
<g id="a_node5"><a xlink:href="../../d9/dcc/interface_ken_observation_tracking.html" target="_top" xlink:title="{KenObservationTracking\n|# attributeObserverMap\l# attributeDependencyMap\l# attributeList\l# ken\l# target\l|+ initWithTarget:kensho\l:attributes:\l+ startTrackingAttribute:\l+ endTrackingAttribute:\l+ observeValueForKeyPath\l:ofObject:change:context:\l+ dealloc\l+ observable:updated\l:context:\l+ observableDeallocated\l:context:\l+ addObserver:attribute\l:context:\l+ removeObserver:attribute\l:context:\l}">
<polygon fill="none" stroke="black" points="158.5,-182.5 158.5,-437.5 297.5,-437.5 297.5,-182.5 158.5,-182.5"/>
<text text-anchor="middle" x="228" y="-425.5" font-family="Helvetica,sans-Serif" font-size="10.00">KenObservationTracking</text>
<polyline fill="none" stroke="black" points="158.5,-418.5 297.5,-418.5 "/>
<text text-anchor="start" x="166.5" y="-406.5" font-family="Helvetica,sans-Serif" font-size="10.00"># attributeObserverMap</text>
<text text-anchor="start" x="166.5" y="-395.5" font-family="Helvetica,sans-Serif" font-size="10.00"># attributeDependencyMap</text>
<text text-anchor="start" x="166.5" y="-384.5" font-family="Helvetica,sans-Serif" font-size="10.00"># attributeList</text>
<text text-anchor="start" x="166.5" y="-373.5" font-family="Helvetica,sans-Serif" font-size="10.00"># ken</text>
<text text-anchor="start" x="166.5" y="-362.5" font-family="Helvetica,sans-Serif" font-size="10.00"># target</text>
<polyline fill="none" stroke="black" points="158.5,-355.5 297.5,-355.5 "/>
<text text-anchor="start" x="166.5" y="-343.5" font-family="Helvetica,sans-Serif" font-size="10.00">+ initWithTarget:kensho</text>
<text text-anchor="start" x="166.5" y="-332.5" font-family="Helvetica,sans-Serif" font-size="10.00">:attributes:</text>
<text text-anchor="start" x="166.5" y="-321.5" font-family="Helvetica,sans-Serif" font-size="10.00">+ startTrackingAttribute:</text>
<text text-anchor="start" x="166.5" y="-310.5" font-family="Helvetica,sans-Serif" font-size="10.00">+ endTrackingAttribute:</text>
<text text-anchor="start" x="166.5" y="-299.5" font-family="Helvetica,sans-Serif" font-size="10.00">+ observeValueForKeyPath</text>
<text text-anchor="start" x="166.5" y="-288.5" font-family="Helvetica,sans-Serif" font-size="10.00">:ofObject:change:context:</text>
<text text-anchor="start" x="166.5" y="-277.5" font-family="Helvetica,sans-Serif" font-size="10.00">+ dealloc</text>
<text text-anchor="start" x="166.5" y="-266.5" font-family="Helvetica,sans-Serif" font-size="10.00">+ observable:updated</text>
<text text-anchor="start" x="166.5" y="-255.5" font-family="Helvetica,sans-Serif" font-size="10.00">:context:</text>
<text text-anchor="start" x="166.5" y="-244.5" font-family="Helvetica,sans-Serif" font-size="10.00">+ observableDeallocated</text>
<text text-anchor="start" x="166.5" y="-233.5" font-family="Helvetica,sans-Serif" font-size="10.00">:context:</text>
<text text-anchor="start" x="166.5" y="-222.5" font-family="Helvetica,sans-Serif" font-size="10.00">+ addObserver:attribute</text>
<text text-anchor="start" x="166.5" y="-211.5" font-family="Helvetica,sans-Serif" font-size="10.00">:context:</text>
<text text-anchor="start" x="166.5" y="-200.5" font-family="Helvetica,sans-Serif" font-size="10.00">+ removeObserver:attribute</text>
<text text-anchor="start" x="166.5" y="-189.5" font-family="Helvetica,sans-Serif" font-size="10.00">:context:</text>
</a>
</g>
</g>
<!-- Node1&#45;&gt;Node5 -->
<g id="edge4" class="edge"><title>Node1&#45;&gt;Node5</title>
<path fill="none" stroke="midnightblue" d="M228,-464.467C228,-455.992 228,-446.938 228,-437.625"/>
<polygon fill="none" stroke="midnightblue" points="224.5,-464.495 228,-474.495 231.5,-464.495 224.5,-464.495"/>
</g>
<!-- Node6 -->
<g id="node6" class="node"><title>Node6</title>
<g id="a_node6"><a xlink:href="../../d5/da9/protocol_kensho_value_parameters-p.html" target="_top" xlink:title="{\&lt;KenshoValueParameters\&gt;\n|+ parameters\l+ value\l|}">
<polygon fill="none" stroke="black" points="315.5,-276 315.5,-344 454.5,-344 454.5,-276 315.5,-276"/>
<text text-anchor="middle" x="385" y="-332" font-family="Helvetica,sans-Serif" font-size="10.00">&lt;KenshoValueParameters&gt;</text>
<polyline fill="none" stroke="black" points="315.5,-325 454.5,-325 "/>
<text text-anchor="start" x="323.5" y="-313" font-family="Helvetica,sans-Serif" font-size="10.00">+ parameters</text>
<text text-anchor="start" x="323.5" y="-302" font-family="Helvetica,sans-Serif" font-size="10.00">+ value</text>
<polyline fill="none" stroke="black" points="315.5,-295 454.5,-295 "/>
<text text-anchor="middle" x="385" y="-283" font-family="Helvetica,sans-Serif" font-size="10.00"> </text>
</a>
</g>
</g>
<!-- Node1&#45;&gt;Node6 -->
<g id="edge5" class="edge"><title>Node1&#45;&gt;Node6</title>
<path fill="none" stroke="midnightblue" d="M281.997,-466.855C290.727,-457.57 299.388,-447.739 307,-438 330.422,-408.031 352.664,-370.604 367.358,-344.166"/>
<polygon fill="none" stroke="midnightblue" points="279.381,-464.526 274.999,-474.172 284.44,-469.364 279.381,-464.526"/>
</g>
<!-- Node2 -->
<g id="node2" class="node"><title>Node2</title>
<g id="a_node2"><a xlink:href="../../d0/d10/class_n_s_object-p.html" target="_top" xlink:title="{\&lt;NSObject\&gt;\n||}">
<polygon fill="none" stroke="black" points="192.5,-601.5 192.5,-658.5 263.5,-658.5 263.5,-601.5 192.5,-601.5"/>
<text text-anchor="middle" x="228" y="-646.5" font-family="Helvetica,sans-Serif" font-size="10.00">&lt;NSObject&gt;</text>
<polyline fill="none" stroke="black" points="192.5,-639.5 263.5,-639.5 "/>
<text text-anchor="middle" x="228" y="-627.5" font-family="Helvetica,sans-Serif" font-size="10.00"> </text>
<polyline fill="none" stroke="black" points="192.5,-620.5 263.5,-620.5 "/>
<text text-anchor="middle" x="228" y="-608.5" font-family="Helvetica,sans-Serif" font-size="10.00"> </text>
</a>
</g>
</g>
<!-- Node2&#45;&gt;Node1 -->
<g id="edge1" class="edge"><title>Node2&#45;&gt;Node1</title>
<path fill="none" stroke="midnightblue" d="M228,-591.214C228,-582.609 228,-573.394 228,-564.554"/>
<polygon fill="none" stroke="midnightblue" points="224.5,-591.34 228,-601.34 231.5,-591.34 224.5,-591.34"/>
</g>
<!-- Node4 -->
<g id="node4" class="node"><title>Node4</title>
<g id="a_node4"><a xlink:href="../../dc/de7/interface_kensho_lua_wrapper.html" target="_top" xlink:title="{KenshoLuaWrapper\n|+ parameters\l+ code\l# context\l# ken\l|+ initWithKensho:context\l:code:\l+ evaluate:\l+ initWithKensho:context\l:code:\l+ finalValue\l}">
<polygon fill="none" stroke="black" points="163.5,-0.5 163.5,-145.5 290.5,-145.5 290.5,-0.5 163.5,-0.5"/>
<text text-anchor="middle" x="227" y="-133.5" font-family="Helvetica,sans-Serif" font-size="10.00">KenshoLuaWrapper</text>
<polyline fill="none" stroke="black" points="163.5,-126.5 290.5,-126.5 "/>
<text text-anchor="start" x="171.5" y="-114.5" font-family="Helvetica,sans-Serif" font-size="10.00">+ parameters</text>
<text text-anchor="start" x="171.5" y="-103.5" font-family="Helvetica,sans-Serif" font-size="10.00">+ code</text>
<text text-anchor="start" x="171.5" y="-92.5" font-family="Helvetica,sans-Serif" font-size="10.00"># context</text>
<text text-anchor="start" x="171.5" y="-81.5" font-family="Helvetica,sans-Serif" font-size="10.00"># ken</text>
<polyline fill="none" stroke="black" points="163.5,-74.5 290.5,-74.5 "/>
<text text-anchor="start" x="171.5" y="-62.5" font-family="Helvetica,sans-Serif" font-size="10.00">+ initWithKensho:context</text>
<text text-anchor="start" x="171.5" y="-51.5" font-family="Helvetica,sans-Serif" font-size="10.00">:code:</text>
<text text-anchor="start" x="171.5" y="-40.5" font-family="Helvetica,sans-Serif" font-size="10.00">+ evaluate:</text>
<text text-anchor="start" x="171.5" y="-29.5" font-family="Helvetica,sans-Serif" font-size="10.00">+ initWithKensho:context</text>
<text text-anchor="start" x="171.5" y="-18.5" font-family="Helvetica,sans-Serif" font-size="10.00">:code:</text>
<text text-anchor="start" x="171.5" y="-7.5" font-family="Helvetica,sans-Serif" font-size="10.00">+ finalValue</text>
</a>
</g>
</g>
<!-- Node3&#45;&gt;Node4 -->
<g id="edge3" class="edge"><title>Node3&#45;&gt;Node4</title>
<path fill="none" stroke="midnightblue" d="M122.198,-223.282C130.986,-209.379 140.134,-195.214 149,-182 156.99,-170.092 165.685,-157.618 174.274,-145.549"/>
<polygon fill="none" stroke="midnightblue" points="119.143,-221.567 116.779,-231.895 125.067,-225.295 119.143,-221.567"/>
</g>
<!-- Node6&#45;&gt;Node4 -->
<g id="edge6" class="edge"><title>Node6&#45;&gt;Node4</title>
<path fill="none" stroke="midnightblue" d="M360.456,-267.005C345.524,-241.981 325.771,-209.784 307,-182 298.967,-170.109 290.176,-157.698 281.455,-145.704"/>
<polygon fill="none" stroke="midnightblue" points="357.611,-269.069 365.728,-275.878 363.629,-265.493 357.611,-269.069"/>
</g>
</g>
</svg>
