<?xml version="1.0" encoding="UTF-8" standalone="no"?>
<!DOCTYPE svg PUBLIC "-//W3C//DTD SVG 1.1//EN"
 "http://www.w3.org/Graphics/SVG/1.1/DTD/svg11.dtd">
<!-- Generated by graphviz version 2.38.0 (20140413.2041)
 -->
<!-- Title: luaL_where Pages: 1 -->
<svg width="645pt" height="1472pt"
 viewBox="0.00 0.00 645.00 1472.00" xmlns="http://www.w3.org/2000/svg" xmlns:xlink="http://www.w3.org/1999/xlink">
<g id="graph0" class="graph" transform="scale(1 1) rotate(0) translate(4 1468)">
<title>luaL_where</title>
<!-- Node1 -->
<g id="node1" class="node"><title>Node1</title>
<polygon fill="#bfbfbf" stroke="black" points="0,-1083.5 0,-1102.5 66,-1102.5 66,-1083.5 0,-1083.5"/>
<text text-anchor="middle" x="33" y="-1090.5" font-family="Helvetica,sans-Serif" font-size="10.00">luaL_where</text>
</g>
<!-- Node2 -->
<g id="node2" class="node"><title>Node2</title>
<g id="a_node2"><a xlink:href="../../df/d2d/lcorolib_8c.html#a777abb20385a69ce4787f72bd90375a7" target="_top" xlink:title="luaB_auxwrap">
<polygon fill="none" stroke="black" points="102,-1282.5 102,-1301.5 182,-1301.5 182,-1282.5 102,-1282.5"/>
<text text-anchor="middle" x="142" y="-1289.5" font-family="Helvetica,sans-Serif" font-size="10.00">luaB_auxwrap</text>
</a>
</g>
</g>
<!-- Node1&#45;&gt;Node2 -->
<g id="edge1" class="edge"><title>Node1&#45;&gt;Node2</title>
<path fill="none" stroke="midnightblue" d="M44.0025,-1111.6C66.2599,-1153 119.228,-1251.51 135.891,-1282.5"/>
<polygon fill="midnightblue" stroke="midnightblue" points="46.9792,-1109.75 39.1608,-1102.6 40.814,-1113.06 46.9792,-1109.75"/>
</g>
<!-- Node4 -->
<g id="node4" class="node"><title>Node4</title>
<g id="a_node4"><a xlink:href="../../d8/dd3/lbaselib_8c.html#a2ecfa987569d0b4c1063f3e204e42dd2" target="_top" xlink:title="luaB_error">
<polygon fill="none" stroke="black" points="112.5,-1083.5 112.5,-1102.5 171.5,-1102.5 171.5,-1083.5 112.5,-1083.5"/>
<text text-anchor="middle" x="142" y="-1090.5" font-family="Helvetica,sans-Serif" font-size="10.00">luaB_error</text>
</a>
</g>
</g>
<!-- Node1&#45;&gt;Node4 -->
<g id="edge3" class="edge"><title>Node1&#45;&gt;Node4</title>
<path fill="none" stroke="midnightblue" d="M76.3916,-1093C88.401,-1093 101.192,-1093 112.196,-1093"/>
<polygon fill="midnightblue" stroke="midnightblue" points="76.1036,-1089.5 66.1035,-1093 76.1035,-1096.5 76.1036,-1089.5"/>
</g>
<!-- Node5 -->
<g id="node5" class="node"><title>Node5</title>
<g id="a_node5"><a xlink:href="../../da/d29/lauxlib_8h.html#a994f73d7985c30672469a260d9e86ae6" target="_top" xlink:title="luaL_error">
<polygon fill="none" stroke="black" points="113.5,-722.5 113.5,-741.5 170.5,-741.5 170.5,-722.5 113.5,-722.5"/>
<text text-anchor="middle" x="142" y="-729.5" font-family="Helvetica,sans-Serif" font-size="10.00">luaL_error</text>
</a>
</g>
</g>
<!-- Node1&#45;&gt;Node5 -->
<g id="edge4" class="edge"><title>Node1&#45;&gt;Node5</title>
<path fill="none" stroke="midnightblue" d="M39.7144,-1073.72C59.3871,-1007.35 123.887,-789.736 138.179,-741.518"/>
<polygon fill="midnightblue" stroke="midnightblue" points="36.3481,-1072.76 36.862,-1083.34 43.0596,-1074.75 36.3481,-1072.76"/>
</g>
<!-- Node3 -->
<g id="node3" class="node"><title>Node3</title>
<g id="a_node3"><a xlink:href="../../df/d2d/lcorolib_8c.html#a1c0429e27f504b08e25f437f733edad1" target="_top" xlink:title="luaB_cowrap">
<polygon fill="none" stroke="black" points="230.5,-1444.5 230.5,-1463.5 304.5,-1463.5 304.5,-1444.5 230.5,-1444.5"/>
<text text-anchor="middle" x="267.5" y="-1451.5" font-family="Helvetica,sans-Serif" font-size="10.00">luaB_cowrap</text>
</a>
</g>
</g>
<!-- Node2&#45;&gt;Node3 -->
<g id="edge2" class="edge"><title>Node2&#45;&gt;Node3</title>
<path fill="none" stroke="midnightblue" d="M148.425,-1311.67C157.772,-1342.1 179.693,-1400.68 218,-1435 222.311,-1438.86 227.497,-1441.98 232.852,-1444.49"/>
<polygon fill="midnightblue" stroke="midnightblue" points="151.712,-1310.44 145.543,-1301.82 144.994,-1312.4 151.712,-1310.44"/>
</g>
<!-- Node6 -->
<g id="node6" class="node"><title>Node6</title>
<g id="a_node6"><a xlink:href="../../dc/d77/lstrlib_8c.html#ad5f7e3fbcadc8825f7f650ecf458fc72" target="_top" xlink:title="add_s">
<polygon fill="none" stroke="black" points="370.5,-1254.5 370.5,-1273.5 414.5,-1273.5 414.5,-1254.5 370.5,-1254.5"/>
<text text-anchor="middle" x="392.5" y="-1261.5" font-family="Helvetica,sans-Serif" font-size="10.00">add_s</text>
</a>
</g>
</g>
<!-- Node5&#45;&gt;Node6 -->
<g id="edge5" class="edge"><title>Node5&#45;&gt;Node6</title>
<path fill="none" stroke="midnightblue" d="M145.266,-751.911C155.798,-843.706 200.199,-1222.36 218,-1240 258.824,-1280.45 333.936,-1274.26 370.457,-1268.24"/>
<polygon fill="midnightblue" stroke="midnightblue" points="148.719,-751.296 144.105,-741.758 141.764,-752.091 148.719,-751.296"/>
</g>
<!-- Node7 -->
<g id="node7" class="node"><title>Node7</title>
<g id="a_node7"><a xlink:href="../../dc/d77/lstrlib_8c.html#ad24cfa73e5ad25ec99a1b48f0916471e" target="_top" xlink:title="add_value">
<polygon fill="none" stroke="black" points="468,-1235.5 468,-1254.5 530,-1254.5 530,-1235.5 468,-1235.5"/>
<text text-anchor="middle" x="499" y="-1242.5" font-family="Helvetica,sans-Serif" font-size="10.00">add_value</text>
</a>
</g>
</g>
<!-- Node5&#45;&gt;Node7 -->
<g id="edge8" class="edge"><title>Node5&#45;&gt;Node7</title>
<path fill="none" stroke="midnightblue" d="M144.862,-751.71C152.983,-835.795 186.311,-1161.7 218,-1194 252.428,-1229.1 402.525,-1240.45 467.658,-1243.76"/>
<polygon fill="midnightblue" stroke="midnightblue" points="148.341,-751.321 143.905,-741.699 141.373,-751.987 148.341,-751.321"/>
</g>
<!-- Node9 -->
<g id="node9" class="node"><title>Node9</title>
<g id="a_node9"><a xlink:href="../../d0/da1/ltablib_8c.html#a4ea6cc51c099ea709c7755a49216f4d0" target="_top" xlink:title="addfield">
<polygon fill="none" stroke="black" points="243,-950.5 243,-969.5 292,-969.5 292,-950.5 243,-950.5"/>
<text text-anchor="middle" x="267.5" y="-957.5" font-family="Helvetica,sans-Serif" font-size="10.00">addfield</text>
</a>
</g>
</g>
<!-- Node5&#45;&gt;Node9 -->
<g id="edge9" class="edge"><title>Node5&#45;&gt;Node9</title>
<path fill="none" stroke="midnightblue" d="M144.715,-751.803C149.271,-792.584 165.207,-886.663 218,-941 224.68,-947.875 234.143,-952.314 242.94,-955.156"/>
<polygon fill="midnightblue" stroke="midnightblue" points="148.191,-751.392 143.711,-741.791 141.226,-752.09 148.191,-751.392"/>
</g>
<!-- Node11 -->
<g id="node11" class="node"><title>Node11</title>
<g id="a_node11"><a xlink:href="../../d0/da1/ltablib_8c.html#a40096c011a188a26849b68cd9d5d920e" target="_top" xlink:title="auxsort">
<polygon fill="none" stroke="black" points="243.5,-836.5 243.5,-855.5 291.5,-855.5 291.5,-836.5 243.5,-836.5"/>
<text text-anchor="middle" x="267.5" y="-843.5" font-family="Helvetica,sans-Serif" font-size="10.00">auxsort</text>
</a>
</g>
</g>
<!-- Node5&#45;&gt;Node11 -->
<g id="edge11" class="edge"><title>Node5&#45;&gt;Node11</title>
<path fill="none" stroke="midnightblue" d="M154.522,-749.886C167.896,-769.552 191.529,-801.124 218,-822 225.524,-827.934 234.752,-832.949 243.131,-836.836"/>
<polygon fill="midnightblue" stroke="midnightblue" points="157.418,-747.921 148.969,-741.528 151.588,-751.794 157.418,-747.921"/>
</g>
<!-- Node13 -->
<g id="node13" class="node"><title>Node13</title>
<g id="a_node13"><a xlink:href="../../dc/d77/lstrlib_8c.html#a5e8b364a8f8d4300aa5007c0feb42abf" target="_top" xlink:title="capture_to_close">
<polygon fill="none" stroke="black" points="223.5,-1102.5 223.5,-1121.5 311.5,-1121.5 311.5,-1102.5 223.5,-1102.5"/>
<text text-anchor="middle" x="267.5" y="-1109.5" font-family="Helvetica,sans-Serif" font-size="10.00">capture_to_close</text>
</a>
</g>
</g>
<!-- Node5&#45;&gt;Node13 -->
<g id="edge13" class="edge"><title>Node5&#45;&gt;Node13</title>
<path fill="none" stroke="midnightblue" d="M144.654,-751.814C150.669,-819.483 173.403,-1040.17 218,-1093 221.267,-1096.87 225.425,-1099.96 229.929,-1102.42"/>
<polygon fill="midnightblue" stroke="midnightblue" points="148.126,-751.329 143.777,-741.668 141.152,-751.932 148.126,-751.329"/>
</g>
<!-- Node15 -->
<g id="node15" class="node"><title>Node15</title>
<g id="a_node15"><a xlink:href="../../dc/d77/lstrlib_8c.html#a52a45835b75e5d31ec66421456bbb728" target="_top" xlink:title="match">
<polygon fill="none" stroke="red" points="478,-1102.5 478,-1121.5 520,-1121.5 520,-1102.5 478,-1102.5"/>
<text text-anchor="middle" x="499" y="-1109.5" font-family="Helvetica,sans-Serif" font-size="10.00">match</text>
</a>
</g>
</g>
<!-- Node5&#45;&gt;Node15 -->
<g id="edge52" class="edge"><title>Node5&#45;&gt;Node15</title>
<path fill="none" stroke="midnightblue" d="M143.531,-751.713C145.966,-825.238 158.654,-1081.77 218,-1131 294.875,-1194.77 428.18,-1144.22 478.243,-1121.55"/>
<polygon fill="midnightblue" stroke="midnightblue" points="147.025,-751.434 143.223,-741.544 140.028,-751.646 147.025,-751.434"/>
</g>
<!-- Node16 -->
<g id="node16" class="node"><title>Node16</title>
<g id="a_node16"><a xlink:href="../../dc/d77/lstrlib_8c.html#a31cf026bdaa00bf9c72a1e4f72319147" target="_top" xlink:title="start_capture">
<polygon fill="none" stroke="black" points="566,-1102.5 566,-1121.5 637,-1121.5 637,-1102.5 566,-1102.5"/>
<text text-anchor="middle" x="601.5" y="-1109.5" font-family="Helvetica,sans-Serif" font-size="10.00">start_capture</text>
</a>
</g>
</g>
<!-- Node5&#45;&gt;Node16 -->
<g id="edge63" class="edge"><title>Node5&#45;&gt;Node16</title>
<path fill="none" stroke="midnightblue" d="M142.564,-751.765C142.682,-798.942 150.031,-918.678 218,-979 290.249,-1043.12 341.079,-984.371 432,-1017 493.953,-1039.23 559.812,-1083.11 587.28,-1102.45"/>
<polygon fill="midnightblue" stroke="midnightblue" points="146.065,-751.68 142.652,-741.649 139.065,-751.619 146.065,-751.68"/>
</g>
<!-- Node17 -->
<g id="node17" class="node"><title>Node17</title>
<g id="a_node17"><a xlink:href="../../dc/d77/lstrlib_8c.html#aa8c1a193fa762ecfe81888d86981a586" target="_top" xlink:title="check_capture">
<polygon fill="none" stroke="black" points="229,-1064.5 229,-1083.5 306,-1083.5 306,-1064.5 229,-1064.5"/>
<text text-anchor="middle" x="267.5" y="-1071.5" font-family="Helvetica,sans-Serif" font-size="10.00">check_capture</text>
</a>
</g>
</g>
<!-- Node5&#45;&gt;Node17 -->
<g id="edge20" class="edge"><title>Node5&#45;&gt;Node17</title>
<path fill="none" stroke="midnightblue" d="M142.176,-751.794C140.972,-805.788 144.686,-957.736 218,-1050 222.909,-1056.18 229.819,-1060.89 236.887,-1064.42"/>
<polygon fill="midnightblue" stroke="midnightblue" points="145.682,-751.657 142.495,-741.553 138.685,-751.439 145.682,-751.657"/>
</g>
<!-- Node19 -->
<g id="node19" class="node"><title>Node19</title>
<g id="a_node19"><a xlink:href="../../d2/d82/loadlib_8c.html#abe3af664b33d2158ef6526094c84bb17" target="_top" xlink:title="checkload">
<polygon fill="none" stroke="red" points="238,-646.5 238,-665.5 297,-665.5 297,-646.5 238,-646.5"/>
<text text-anchor="middle" x="267.5" y="-653.5" font-family="Helvetica,sans-Serif" font-size="10.00">checkload</text>
</a>
</g>
</g>
<!-- Node5&#45;&gt;Node19 -->
<g id="edge23" class="edge"><title>Node5&#45;&gt;Node19</title>
<path fill="none" stroke="midnightblue" d="M161.274,-715.808C175.874,-703.459 197.258,-686.647 218,-675 224.308,-671.458 231.41,-668.274 238.194,-665.571"/>
<polygon fill="midnightblue" stroke="midnightblue" points="158.81,-713.312 153.518,-722.49 163.379,-718.615 158.81,-713.312"/>
</g>
<!-- Node22 -->
<g id="node22" class="node"><title>Node22</title>
<g id="a_node22"><a xlink:href="../../dc/d77/lstrlib_8c.html#a72b26c2a339f5e84ef087e961b547f95" target="_top" xlink:title="classend">
<polygon fill="none" stroke="black" points="365,-1026.5 365,-1045.5 420,-1045.5 420,-1026.5 365,-1026.5"/>
<text text-anchor="middle" x="392.5" y="-1033.5" font-family="Helvetica,sans-Serif" font-size="10.00">classend</text>
</a>
</g>
</g>
<!-- Node5&#45;&gt;Node22 -->
<g id="edge26" class="edge"><title>Node5&#45;&gt;Node22</title>
<path fill="none" stroke="midnightblue" d="M145.455,-751.708C153.072,-809.531 178.211,-976.872 218,-1012 258.804,-1048.02 327.371,-1045.4 364.928,-1040.57"/>
<polygon fill="midnightblue" stroke="midnightblue" points="148.912,-751.147 144.166,-741.675 141.969,-752.039 148.912,-751.147"/>
</g>
<!-- Node23 -->
<g id="node23" class="node"><title>Node23</title>
<g id="a_node23"><a xlink:href="../../df/d02/lbitlib_8c.html#a6a0cf932e22a22ae18f7302158bdd490" target="_top" xlink:title="fieldargs">
<polygon fill="none" stroke="red" points="242,-608.5 242,-627.5 293,-627.5 293,-608.5 242,-608.5"/>
<text text-anchor="middle" x="267.5" y="-615.5" font-family="Helvetica,sans-Serif" font-size="10.00">fieldargs</text>
</a>
</g>
</g>
<!-- Node5&#45;&gt;Node23 -->
<g id="edge28" class="edge"><title>Node5&#45;&gt;Node23</title>
<path fill="none" stroke="midnightblue" d="M153.388,-713.582C166.138,-692.463 189.601,-658.054 218,-637 224.974,-631.83 233.538,-627.865 241.518,-624.929"/>
<polygon fill="midnightblue" stroke="midnightblue" points="150.342,-711.857 148.304,-722.254 156.381,-715.397 150.342,-711.857"/>
</g>
<!-- Node24 -->
<g id="node24" class="node"><title>Node24</title>
<g id="a_node24"><a xlink:href="../../d2/d82/loadlib_8c.html#af8f7333f1a59f3d7aab8c9b79b7a4ab2" target="_top" xlink:title="findfile">
<polygon fill="none" stroke="red" points="247,-684.5 247,-703.5 288,-703.5 288,-684.5 247,-684.5"/>
<text text-anchor="middle" x="267.5" y="-691.5" font-family="Helvetica,sans-Serif" font-size="10.00">findfile</text>
</a>
</g>
</g>
<!-- Node5&#45;&gt;Node24 -->
<g id="edge29" class="edge"><title>Node5&#45;&gt;Node24</title>
<path fill="none" stroke="midnightblue" d="M180.396,-720.494C202.32,-713.748 229.122,-705.501 246.941,-700.018"/>
<polygon fill="midnightblue" stroke="midnightblue" points="179.244,-717.186 170.716,-723.472 181.303,-723.876 179.244,-717.186"/>
</g>
<!-- Node25 -->
<g id="node25" class="node"><title>Node25</title>
<g id="a_node25"><a xlink:href="../../d2/d82/loadlib_8c.html#aeea4101591c7cab25273f4dfe7d811d6" target="_top" xlink:title="findloader">
<polygon fill="none" stroke="red" points="239.5,-570.5 239.5,-589.5 295.5,-589.5 295.5,-570.5 239.5,-570.5"/>
<text text-anchor="middle" x="267.5" y="-577.5" font-family="Helvetica,sans-Serif" font-size="10.00">findloader</text>
</a>
</g>
</g>
<!-- Node5&#45;&gt;Node25 -->
<g id="edge32" class="edge"><title>Node5&#45;&gt;Node25</title>
<path fill="none" stroke="midnightblue" d="M149.232,-712.494C159.313,-683.861 181.803,-630.451 218,-599 224.075,-593.721 231.789,-589.816 239.266,-586.968"/>
<polygon fill="midnightblue" stroke="midnightblue" points="145.853,-711.563 145.974,-722.157 152.486,-713.8 145.853,-711.563"/>
</g>
<!-- Node26 -->
<g id="node26" class="node"><title>Node26</title>
<g id="a_node26"><a xlink:href="../../d8/dd3/lbaselib_8c.html#ad467c787e381e8d18e4c7b46b4f1b05d" target="_top" xlink:title="generic_reader">
<polygon fill="none" stroke="red" points="354,-779.5 354,-798.5 431,-798.5 431,-779.5 354,-779.5"/>
<text text-anchor="middle" x="392.5" y="-786.5" font-family="Helvetica,sans-Serif" font-size="10.00">generic_reader</text>
</a>
</g>
</g>
<!-- Node5&#45;&gt;Node26 -->
<g id="edge33" class="edge"><title>Node5&#45;&gt;Node26</title>
<path fill="none" stroke="midnightblue" d="M158.838,-749.068C172.863,-762.831 194.679,-781.144 218,-789 262.816,-804.097 317.918,-800.677 353.834,-795.774"/>
<polygon fill="midnightblue" stroke="midnightblue" points="161.026,-746.3 151.529,-741.603 156.025,-751.197 161.026,-746.3"/>
</g>
<!-- Node27 -->
<g id="node27" class="node"><title>Node27</title>
<g id="a_node27"><a xlink:href="../../dc/dba/loslib_8c.html#a4d6a2679129f7d65f34a60a6c701b782" target="_top" xlink:title="getfield">
<polygon fill="none" stroke="red" points="245,-532.5 245,-551.5 290,-551.5 290,-532.5 245,-532.5"/>
<text text-anchor="middle" x="267.5" y="-539.5" font-family="Helvetica,sans-Serif" font-size="10.00">getfield</text>
</a>
</g>
</g>
<!-- Node5&#45;&gt;Node27 -->
<g id="edge34" class="edge"><title>Node5&#45;&gt;Node27</title>
<path fill="none" stroke="midnightblue" d="M146.483,-712.49C153.704,-677.503 173.494,-603.763 218,-561 225.303,-553.983 235.5,-549.469 244.659,-546.611"/>
<polygon fill="midnightblue" stroke="midnightblue" points="143.03,-711.916 144.565,-722.399 149.902,-713.247 143.03,-711.916"/>
</g>
<!-- Node28 -->
<g id="node28" class="node"><title>Node28</title>
<g id="a_node28"><a xlink:href="../../de/df3/liolib_8c.html#a3bccbdacdc9f21f22a603525be1f3699" target="_top" xlink:title="getiofile">
<polygon fill="none" stroke="red" points="244,-494.5 244,-513.5 291,-513.5 291,-494.5 244,-494.5"/>
<text text-anchor="middle" x="267.5" y="-501.5" font-family="Helvetica,sans-Serif" font-size="10.00">getiofile</text>
</a>
</g>
</g>
<!-- Node5&#45;&gt;Node28 -->
<g id="edge35" class="edge"><title>Node5&#45;&gt;Node28</title>
<path fill="none" stroke="midnightblue" d="M144.715,-712.197C149.271,-671.416 165.207,-577.337 218,-523 224.932,-515.865 234.861,-511.354 243.932,-508.529"/>
<polygon fill="midnightblue" stroke="midnightblue" points="141.226,-711.91 143.711,-722.209 148.191,-712.608 141.226,-711.91"/>
</g>
<!-- Node29 -->
<g id="node29" class="node"><title>Node29</title>
<g id="a_node29"><a xlink:href="../../de/df3/liolib_8c.html#ac37d80ee2cc364b4adafcb6f7c20f28b" target="_top" xlink:title="io_readline">
<polygon fill="none" stroke="red" points="237,-456.5 237,-475.5 298,-475.5 298,-456.5 237,-456.5"/>
<text text-anchor="middle" x="267.5" y="-463.5" font-family="Helvetica,sans-Serif" font-size="10.00">io_readline</text>
</a>
</g>
</g>
<!-- Node5&#45;&gt;Node29 -->
<g id="edge36" class="edge"><title>Node5&#45;&gt;Node29</title>
<path fill="none" stroke="midnightblue" d="M143.432,-711.834C145.495,-665.656 156.865,-551.138 218,-485 223.095,-479.488 229.984,-475.553 236.969,-472.752"/>
<polygon fill="midnightblue" stroke="midnightblue" points="139.927,-711.917 143.083,-722.031 146.923,-712.156 139.927,-711.917"/>
</g>
<!-- Node30 -->
<g id="node30" class="node"><title>Node30</title>
<g id="a_node30"><a xlink:href="../../d8/dd3/lbaselib_8c.html#a8ba9378d5d46ef34a7429d52c3f3e4c7" target="_top" xlink:title="luaB_assert">
<polygon fill="none" stroke="black" points="233.5,-418.5 233.5,-437.5 301.5,-437.5 301.5,-418.5 233.5,-418.5"/>
<text text-anchor="middle" x="267.5" y="-425.5" font-family="Helvetica,sans-Serif" font-size="10.00">luaB_assert</text>
</a>
</g>
</g>
<!-- Node5&#45;&gt;Node30 -->
<g id="edge37" class="edge"><title>Node5&#45;&gt;Node30</title>
<path fill="none" stroke="midnightblue" d="M142.443,-712.267C142.09,-661.624 148.093,-525.53 218,-447 222.089,-442.407 227.427,-438.913 233.063,-436.259"/>
<polygon fill="midnightblue" stroke="midnightblue" points="138.947,-712.539 142.614,-722.479 145.946,-712.422 138.947,-712.539"/>
</g>
<!-- Node31 -->
<g id="node31" class="node"><title>Node31</title>
<g id="a_node31"><a xlink:href="../../d8/dd3/lbaselib_8c.html#a865eb761a305c588d6940da5272375b7" target="_top" xlink:title="luaB_print">
<polygon fill="none" stroke="black" points="238,-380.5 238,-399.5 297,-399.5 297,-380.5 238,-380.5"/>
<text text-anchor="middle" x="267.5" y="-387.5" font-family="Helvetica,sans-Serif" font-size="10.00">luaB_print</text>
</a>
</g>
</g>
<!-- Node5&#45;&gt;Node31 -->
<g id="edge38" class="edge"><title>Node5&#45;&gt;Node31</title>
<path fill="none" stroke="midnightblue" d="M145.172,-712.269C152.444,-649.455 177.775,-455.536 218,-409 223.204,-402.979 230.561,-398.853 237.977,-396.03"/>
<polygon fill="midnightblue" stroke="midnightblue" points="141.671,-712.077 144.024,-722.407 148.627,-712.864 141.671,-712.077"/>
</g>
<!-- Node32 -->
<g id="node32" class="node"><title>Node32</title>
<g id="a_node32"><a xlink:href="../../d8/dd3/lbaselib_8c.html#af7799a987ba6d158a96a52e80fb5beaf" target="_top" xlink:title="luaB_setmetatable">
<polygon fill="none" stroke="black" points="219.5,-342.5 219.5,-361.5 315.5,-361.5 315.5,-342.5 219.5,-342.5"/>
<text text-anchor="middle" x="267.5" y="-349.5" font-family="Helvetica,sans-Serif" font-size="10.00">luaB_setmetatable</text>
</a>
</g>
</g>
<!-- Node5&#45;&gt;Node32 -->
<g id="edge39" class="edge"><title>Node5&#45;&gt;Node32</title>
<path fill="none" stroke="midnightblue" d="M144.654,-712.186C150.669,-644.517 173.403,-423.826 218,-371 221.267,-367.13 225.425,-364.045 229.929,-361.585"/>
<polygon fill="midnightblue" stroke="midnightblue" points="141.152,-712.068 143.777,-722.332 148.126,-712.671 141.152,-712.068"/>
</g>
<!-- Node33 -->
<g id="node33" class="node"><title>Node33</title>
<g id="a_node33"><a xlink:href="../../da/d29/lauxlib_8h.html#a526c220d17273c63ce9973bcde4a2c4a" target="_top" xlink:title="luaL_argerror">
<polygon fill="none" stroke="red" points="232,-228.5 232,-247.5 303,-247.5 303,-228.5 232,-228.5"/>
<text text-anchor="middle" x="267.5" y="-235.5" font-family="Helvetica,sans-Serif" font-size="10.00">luaL_argerror</text>
</a>
</g>
</g>
<!-- Node5&#45;&gt;Node33 -->
<g id="edge40" class="edge"><title>Node5&#45;&gt;Node33</title>
<path fill="none" stroke="midnightblue" d="M143.78,-712.304C147.282,-632.709 163.826,-335.562 218,-262 222.568,-255.797 229.186,-251.105 236.072,-247.593"/>
<polygon fill="midnightblue" stroke="midnightblue" points="140.278,-712.279 143.355,-722.417 147.272,-712.573 140.278,-712.279"/>
</g>
<!-- Node34 -->
<g id="node34" class="node"><title>Node34</title>
<g id="a_node34"><a xlink:href="../../dc/d77/lstrlib_8c.html#ae26a9374857058119e59d0328208c2f2" target="_top" xlink:title="str_format">
<polygon fill="none" stroke="black" points="364,-247.5 364,-266.5 421,-266.5 421,-247.5 364,-247.5"/>
<text text-anchor="middle" x="392.5" y="-254.5" font-family="Helvetica,sans-Serif" font-size="10.00">str_format</text>
</a>
</g>
</g>
<!-- Node5&#45;&gt;Node34 -->
<g id="edge66" class="edge"><title>Node5&#45;&gt;Node34</title>
<path fill="none" stroke="midnightblue" d="M143.572,-711.842C146.194,-634.248 159.582,-356.147 218,-295 237.756,-274.321 319.979,-263.658 363.768,-259.353"/>
<polygon fill="midnightblue" stroke="midnightblue" points="140.064,-712.046 143.249,-722.151 147.061,-712.265 140.064,-712.046"/>
</g>
<!-- Node35 -->
<g id="node35" class="node"><title>Node35</title>
<g id="a_node35"><a xlink:href="../../da/d29/lauxlib_8h.html#a724f5a5aeee97c0b40948c8bca91341c" target="_top" xlink:title="luaL_checkstack">
<polygon fill="none" stroke="red" points="224.5,-760.5 224.5,-779.5 310.5,-779.5 310.5,-760.5 224.5,-760.5"/>
<text text-anchor="middle" x="267.5" y="-767.5" font-family="Helvetica,sans-Serif" font-size="10.00">luaL_checkstack</text>
</a>
</g>
</g>
<!-- Node5&#45;&gt;Node35 -->
<g id="edge42" class="edge"><title>Node5&#45;&gt;Node35</title>
<path fill="none" stroke="midnightblue" d="M180.629,-743.578C198.16,-748.972 218.769,-755.313 235.402,-760.431"/>
<polygon fill="midnightblue" stroke="midnightblue" points="181.303,-740.124 170.716,-740.528 179.244,-746.814 181.303,-740.124"/>
</g>
<!-- Node36 -->
<g id="node36" class="node"><title>Node36</title>
<g id="a_node36"><a xlink:href="../../dc/d77/lstrlib_8c.html#ae561770420cfd1894054415df9d4c423" target="_top" xlink:title="str_byte">
<polygon fill="none" stroke="black" points="367.5,-722.5 367.5,-741.5 417.5,-741.5 417.5,-722.5 367.5,-722.5"/>
<text text-anchor="middle" x="392.5" y="-729.5" font-family="Helvetica,sans-Serif" font-size="10.00">str_byte</text>
</a>
</g>
</g>
<!-- Node5&#45;&gt;Node36 -->
<g id="edge64" class="edge"><title>Node5&#45;&gt;Node36</title>
<path fill="none" stroke="midnightblue" d="M180.623,-732C232.267,-732 323.657,-732 367.165,-732"/>
<polygon fill="midnightblue" stroke="midnightblue" points="180.543,-728.5 170.543,-732 180.543,-735.5 180.543,-728.5"/>
</g>
<!-- Node37 -->
<g id="node37" class="node"><title>Node37</title>
<g id="a_node37"><a xlink:href="../../da/d29/lauxlib_8h.html#a20b0480f0d1e4d1b2cbf74f667e7ca24" target="_top" xlink:title="luaL_checkversion_">
<polygon fill="none" stroke="black" points="218,-152.5 218,-171.5 317,-171.5 317,-152.5 218,-152.5"/>
<text text-anchor="middle" x="267.5" y="-159.5" font-family="Helvetica,sans-Serif" font-size="10.00">luaL_checkversion_</text>
</a>
</g>
</g>
<!-- Node5&#45;&gt;Node37 -->
<g id="edge46" class="edge"><title>Node5&#45;&gt;Node37</title>
<path fill="none" stroke="midnightblue" d="M143.09,-712.244C143.873,-623.934 151.181,-265.976 218,-181 221.018,-177.161 224.922,-174.097 229.202,-171.65"/>
<polygon fill="midnightblue" stroke="midnightblue" points="139.589,-712.435 143.02,-722.459 146.589,-712.483 139.589,-712.435"/>
</g>
<!-- Node38 -->
<g id="node38" class="node"><title>Node38</title>
<g id="a_node38"><a xlink:href="../../da/d29/lauxlib_8h.html#a6f33f64067614a25031412f405a77873" target="_top" xlink:title="luaL_len">
<polygon fill="none" stroke="red" points="241.5,-912.5 241.5,-931.5 293.5,-931.5 293.5,-912.5 241.5,-912.5"/>
<text text-anchor="middle" x="267.5" y="-919.5" font-family="Helvetica,sans-Serif" font-size="10.00">luaL_len</text>
</a>
</g>
</g>
<!-- Node5&#45;&gt;Node38 -->
<g id="edge47" class="edge"><title>Node5&#45;&gt;Node38</title>
<path fill="none" stroke="midnightblue" d="M147.235,-751.499C155.464,-785.255 176.558,-855.074 218,-898 224.46,-904.691 233.177,-909.796 241.439,-913.542"/>
<polygon fill="midnightblue" stroke="midnightblue" points="150.591,-750.478 144.926,-741.525 143.771,-752.057 150.591,-750.478"/>
</g>
<!-- Node39 -->
<g id="node39" class="node"><title>Node39</title>
<g id="a_node39"><a xlink:href="../../d0/da1/ltablib_8c.html#aab557c98c16305370f73c4c716f5725d" target="_top" xlink:title="unpack">
<polygon fill="none" stroke="black" points="368.5,-874.5 368.5,-893.5 416.5,-893.5 416.5,-874.5 368.5,-874.5"/>
<text text-anchor="middle" x="392.5" y="-881.5" font-family="Helvetica,sans-Serif" font-size="10.00">unpack</text>
</a>
</g>
</g>
<!-- Node5&#45;&gt;Node39 -->
<g id="edge70" class="edge"><title>Node5&#45;&gt;Node39</title>
<path fill="none" stroke="midnightblue" d="M147.874,-751.529C156.475,-781.511 177.404,-838.217 218,-865 264.159,-895.454 332.681,-892.143 368.222,-887.732"/>
<polygon fill="midnightblue" stroke="midnightblue" points="151.232,-750.541 145.249,-741.797 144.474,-752.364 151.232,-750.541"/>
</g>
<!-- Node40 -->
<g id="node40" class="node"><title>Node40</title>
<g id="a_node40"><a xlink:href="../../da/d29/lauxlib_8h.html#a0fb6d10de24960ceed452061b47c2c06" target="_top" xlink:title="luaL_prepbuffsize">
<polygon fill="none" stroke="red" points="221.5,-190.5 221.5,-209.5 313.5,-209.5 313.5,-190.5 221.5,-190.5"/>
<text text-anchor="middle" x="267.5" y="-197.5" font-family="Helvetica,sans-Serif" font-size="10.00">luaL_prepbuffsize</text>
</a>
</g>
</g>
<!-- Node5&#45;&gt;Node40 -->
<g id="edge50" class="edge"><title>Node5&#45;&gt;Node40</title>
<path fill="none" stroke="midnightblue" d="M143.311,-712.271C145.019,-627.817 155.643,-297.5 218,-219 221.037,-215.176 224.951,-212.12 229.237,-209.678"/>
<polygon fill="midnightblue" stroke="midnightblue" points="139.811,-712.248 143.128,-722.31 146.81,-712.375 139.811,-712.248"/>
</g>
<!-- Node41 -->
<g id="node41" class="node"><title>Node41</title>
<g id="a_node41"><a xlink:href="../../dc/d77/lstrlib_8c.html#aacb8f9104a816720da707ecf5219a96e" target="_top" xlink:title="matchbalance">
<polygon fill="none" stroke="black" points="354,-1178.5 354,-1197.5 431,-1197.5 431,-1178.5 354,-1178.5"/>
<text text-anchor="middle" x="392.5" y="-1185.5" font-family="Helvetica,sans-Serif" font-size="10.00">matchbalance</text>
</a>
</g>
</g>
<!-- Node5&#45;&gt;Node41 -->
<g id="edge53" class="edge"><title>Node5&#45;&gt;Node41</title>
<path fill="none" stroke="midnightblue" d="M145.112,-752.24C153.797,-833.719 187.736,-1134.76 218,-1164 253.756,-1198.55 314.61,-1198.75 353.919,-1194.39"/>
<polygon fill="midnightblue" stroke="midnightblue" points="148.547,-751.447 144.017,-741.87 141.586,-752.182 148.547,-751.447"/>
</g>
<!-- Node42 -->
<g id="node42" class="node"><title>Node42</title>
<g id="a_node42"><a xlink:href="../../d1/d6a/lmathlib_8c.html#aa3ad02d4204d21d35a0825281915fb22" target="_top" xlink:title="math_random">
<polygon fill="none" stroke="black" points="230.5,-114.5 230.5,-133.5 304.5,-133.5 304.5,-114.5 230.5,-114.5"/>
<text text-anchor="middle" x="267.5" y="-121.5" font-family="Helvetica,sans-Serif" font-size="10.00">math_random</text>
</a>
</g>
</g>
<!-- Node5&#45;&gt;Node42 -->
<g id="edge55" class="edge"><title>Node5&#45;&gt;Node42</title>
<path fill="none" stroke="midnightblue" d="M142.897,-712.06C142.803,-619.736 146.749,-234.421 218,-143 221.224,-138.863 225.477,-135.625 230.127,-133.092"/>
<polygon fill="midnightblue" stroke="midnightblue" points="139.397,-712.262 142.926,-722.252 146.397,-712.242 139.397,-712.262"/>
</g>
<!-- Node43 -->
<g id="node43" class="node"><title>Node43</title>
<g id="a_node43"><a xlink:href="../../de/df3/liolib_8c.html#a91ec9c6fa0ef33085f29a15532ac80a7" target="_top" xlink:title="opencheck">
<polygon fill="none" stroke="red" points="236.5,-76.5 236.5,-95.5 298.5,-95.5 298.5,-76.5 236.5,-76.5"/>
<text text-anchor="middle" x="267.5" y="-83.5" font-family="Helvetica,sans-Serif" font-size="10.00">opencheck</text>
</a>
</g>
</g>
<!-- Node5&#45;&gt;Node43 -->
<g id="edge56" class="edge"><title>Node5&#45;&gt;Node43</title>
<path fill="none" stroke="midnightblue" d="M142.724,-711.995C141.788,-615.969 142.279,-202.922 218,-105 222.592,-99.0623 229.304,-94.9776 236.279,-92.1685"/>
<polygon fill="midnightblue" stroke="midnightblue" points="139.225,-712.133 142.841,-722.092 146.225,-712.052 139.225,-712.133"/>
</g>
<!-- Node44 -->
<g id="node44" class="node"><title>Node44</title>
<g id="a_node44"><a xlink:href="../../dc/dba/loslib_8c.html#a89a90062784a8adc223ff4cbe576321d" target="_top" xlink:title="os_tmpname">
<polygon fill="none" stroke="black" points="231.5,-38.5 231.5,-57.5 303.5,-57.5 303.5,-38.5 231.5,-38.5"/>
<text text-anchor="middle" x="267.5" y="-45.5" font-family="Helvetica,sans-Serif" font-size="10.00">os_tmpname</text>
</a>
</g>
</g>
<!-- Node5&#45;&gt;Node44 -->
<g id="edge57" class="edge"><title>Node5&#45;&gt;Node44</title>
<path fill="none" stroke="midnightblue" d="M144.016,-712.363C149.579,-607.841 177.589,-119.625 218,-67 221.415,-62.5531 226.02,-59.1457 231.04,-56.5352"/>
<polygon fill="midnightblue" stroke="midnightblue" points="140.515,-712.287 143.485,-722.457 147.505,-712.654 140.515,-712.287"/>
</g>
<!-- Node45 -->
<g id="node45" class="node"><title>Node45</title>
<g id="a_node45"><a xlink:href="../../dc/d77/lstrlib_8c.html#a24a14b4e6e90bac4610dd334bb0b51b6" target="_top" xlink:title="push_onecapture">
<polygon fill="none" stroke="red" points="222,-1292.5 222,-1311.5 313,-1311.5 313,-1292.5 222,-1292.5"/>
<text text-anchor="middle" x="267.5" y="-1299.5" font-family="Helvetica,sans-Serif" font-size="10.00">push_onecapture</text>
</a>
</g>
</g>
<!-- Node5&#45;&gt;Node45 -->
<g id="edge58" class="edge"><title>Node5&#45;&gt;Node45</title>
<path fill="none" stroke="midnightblue" d="M145.156,-751.454C155.724,-846.24 202.188,-1256.03 218,-1278 222.5,-1284.25 229.094,-1288.96 235.978,-1292.48"/>
<polygon fill="midnightblue" stroke="midnightblue" points="148.633,-751.055 144.049,-741.503 141.676,-751.829 148.633,-751.055"/>
</g>
<!-- Node46 -->
<g id="node46" class="node"><title>Node46</title>
<g id="a_node46"><a xlink:href="../../dc/d77/lstrlib_8c.html#aa02d130952004540df86ae92853cfc22" target="_top" xlink:title="scanformat">
<polygon fill="none" stroke="black" points="236,-304.5 236,-323.5 299,-323.5 299,-304.5 236,-304.5"/>
<text text-anchor="middle" x="267.5" y="-311.5" font-family="Helvetica,sans-Serif" font-size="10.00">scanformat</text>
</a>
</g>
</g>
<!-- Node5&#45;&gt;Node46 -->
<g id="edge61" class="edge"><title>Node5&#45;&gt;Node46</title>
<path fill="none" stroke="midnightblue" d="M144.237,-712.019C149.09,-639.613 169.03,-392.139 218,-333 222.614,-327.428 229.081,-323.483 235.791,-320.692"/>
<polygon fill="midnightblue" stroke="midnightblue" points="140.717,-712.216 143.564,-722.421 147.702,-712.668 140.717,-712.216"/>
</g>
<!-- Node47 -->
<g id="node47" class="node"><title>Node47</title>
<g id="a_node47"><a xlink:href="../../dc/d77/lstrlib_8c.html#abc94e3a13f1b6ddb2c9b20c9fd89e87f" target="_top" xlink:title="str_dump">
<polygon fill="none" stroke="black" points="239.5,-0.5 239.5,-19.5 295.5,-19.5 295.5,-0.5 239.5,-0.5"/>
<text text-anchor="middle" x="267.5" y="-7.5" font-family="Helvetica,sans-Serif" font-size="10.00">str_dump</text>
</a>
</g>
</g>
<!-- Node5&#45;&gt;Node47 -->
<g id="edge65" class="edge"><title>Node5&#45;&gt;Node47</title>
<path fill="none" stroke="midnightblue" d="M143.894,-712.268C148.959,-603.995 175.342,-84.8981 218,-29 223.212,-22.1704 231.234,-17.7932 239.264,-14.9887"/>
<polygon fill="midnightblue" stroke="midnightblue" points="140.39,-712.274 143.426,-722.424 147.383,-712.596 140.39,-712.274"/>
</g>
<!-- Node48 -->
<g id="node48" class="node"><title>Node48</title>
<g id="a_node48"><a xlink:href="../../dc/d77/lstrlib_8c.html#acaee4c84f29e2ec7366728ca04d3569c" target="_top" xlink:title="str_rep">
<polygon fill="none" stroke="black" points="245,-1406.5 245,-1425.5 290,-1425.5 290,-1406.5 245,-1406.5"/>
<text text-anchor="middle" x="267.5" y="-1413.5" font-family="Helvetica,sans-Serif" font-size="10.00">str_rep</text>
</a>
</g>
</g>
<!-- Node5&#45;&gt;Node48 -->
<g id="edge67" class="edge"><title>Node5&#45;&gt;Node48</title>
<path fill="none" stroke="midnightblue" d="M145.269,-751.744C151.295,-804.205 168.182,-951.438 182,-1074 190.091,-1145.77 174.051,-1339.69 218,-1397 224.384,-1405.32 234.94,-1410.01 244.577,-1412.64"/>
<polygon fill="midnightblue" stroke="midnightblue" points="148.713,-751.054 144.095,-741.519 141.759,-751.853 148.713,-751.054"/>
</g>
<!-- Node49 -->
<g id="node49" class="node"><title>Node49</title>
<g id="a_node49"><a xlink:href="../../d0/da1/ltablib_8c.html#a214ed6966e2b1b4c376ab0de0d09032e" target="_top" xlink:title="tinsert">
<polygon fill="none" stroke="black" points="247,-1368.5 247,-1387.5 288,-1387.5 288,-1368.5 247,-1368.5"/>
<text text-anchor="middle" x="267.5" y="-1375.5" font-family="Helvetica,sans-Serif" font-size="10.00">tinsert</text>
</a>
</g>
</g>
<!-- Node5&#45;&gt;Node49 -->
<g id="edge68" class="edge"><title>Node5&#45;&gt;Node49</title>
<path fill="none" stroke="midnightblue" d="M145.218,-751.703C157.137,-857.414 213.208,-1352.8 218,-1359 224.86,-1367.87 236.453,-1372.61 246.585,-1375.13"/>
<polygon fill="midnightblue" stroke="midnightblue" points="148.694,-751.288 144.096,-741.743 141.738,-752.072 148.694,-751.288"/>
</g>
<!-- Node50 -->
<g id="node50" class="node"><title>Node50</title>
<g id="a_node50"><a xlink:href="../../de/df3/liolib_8c.html#a3a596f9304846a90435b75c75c55acda" target="_top" xlink:title="tofile">
<polygon fill="none" stroke="red" points="250,-1330.5 250,-1349.5 285,-1349.5 285,-1330.5 250,-1330.5"/>
<text text-anchor="middle" x="267.5" y="-1337.5" font-family="Helvetica,sans-Serif" font-size="10.00">tofile</text>
</a>
</g>
</g>
<!-- Node5&#45;&gt;Node50 -->
<g id="edge69" class="edge"><title>Node5&#45;&gt;Node50</title>
<path fill="none" stroke="midnightblue" d="M145.213,-751.547C156.661,-852.373 208.981,-1309.43 218,-1321 225.672,-1330.84 239.166,-1335.6 249.976,-1337.88"/>
<polygon fill="midnightblue" stroke="midnightblue" points="148.681,-751.065 144.076,-741.523 141.725,-751.853 148.681,-751.065"/>
</g>
<!-- Node6&#45;&gt;Node7 -->
<g id="edge6" class="edge"><title>Node6&#45;&gt;Node7</title>
<path fill="none" stroke="midnightblue" d="M424.562,-1258.35C438.223,-1255.87 454.21,-1252.96 467.774,-1250.5"/>
<polygon fill="midnightblue" stroke="midnightblue" points="423.86,-1254.92 414.647,-1260.16 425.112,-1261.81 423.86,-1254.92"/>
</g>
<!-- Node8 -->
<g id="node8" class="node"><title>Node8</title>
<g id="a_node8"><a xlink:href="../../dc/d77/lstrlib_8c.html#a42337c674d265175bcc2b2f3809c7339" target="_top" xlink:title="str_gsub">
<polygon fill="none" stroke="black" points="575,-1187.5 575,-1206.5 628,-1206.5 628,-1187.5 575,-1187.5"/>
<text text-anchor="middle" x="601.5" y="-1194.5" font-family="Helvetica,sans-Serif" font-size="10.00">str_gsub</text>
</a>
</g>
</g>
<!-- Node7&#45;&gt;Node8 -->
<g id="edge7" class="edge"><title>Node7&#45;&gt;Node8</title>
<path fill="none" stroke="midnightblue" d="M529.526,-1230.9C545.95,-1223.05 565.956,-1213.5 580.536,-1206.54"/>
<polygon fill="midnightblue" stroke="midnightblue" points="527.853,-1227.82 520.338,-1235.29 530.87,-1234.13 527.853,-1227.82"/>
</g>
<!-- Node10 -->
<g id="node10" class="node"><title>Node10</title>
<g id="a_node10"><a xlink:href="../../d0/da1/ltablib_8c.html#add6973c515a288f41265aca8e0ae6412" target="_top" xlink:title="tconcat">
<polygon fill="none" stroke="black" points="369,-931.5 369,-950.5 416,-950.5 416,-931.5 369,-931.5"/>
<text text-anchor="middle" x="392.5" y="-938.5" font-family="Helvetica,sans-Serif" font-size="10.00">tconcat</text>
</a>
</g>
</g>
<!-- Node9&#45;&gt;Node10 -->
<g id="edge10" class="edge"><title>Node9&#45;&gt;Node10</title>
<path fill="none" stroke="midnightblue" d="M302.379,-954.767C323.486,-951.506 350.07,-947.4 368.689,-944.524"/>
<polygon fill="midnightblue" stroke="midnightblue" points="301.564,-951.351 292.216,-956.337 302.633,-958.269 301.564,-951.351"/>
</g>
<!-- Node12 -->
<g id="node12" class="node"><title>Node12</title>
<g id="a_node12"><a xlink:href="../../d0/da1/ltablib_8c.html#ae7d3f892e2605bf102dce63de388e626" target="_top" xlink:title="sort">
<polygon fill="none" stroke="black" points="376.5,-836.5 376.5,-855.5 408.5,-855.5 408.5,-836.5 376.5,-836.5"/>
<text text-anchor="middle" x="392.5" y="-843.5" font-family="Helvetica,sans-Serif" font-size="10.00">sort</text>
</a>
</g>
</g>
<!-- Node11&#45;&gt;Node12 -->
<g id="edge12" class="edge"><title>Node11&#45;&gt;Node12</title>
<path fill="none" stroke="midnightblue" d="M301.838,-846C326.073,-846 357.748,-846 376.236,-846"/>
<polygon fill="midnightblue" stroke="midnightblue" points="301.635,-842.5 291.635,-846 301.635,-849.5 301.635,-842.5"/>
</g>
<!-- Node14 -->
<g id="node14" class="node"><title>Node14</title>
<g id="a_node14"><a xlink:href="../../dc/d77/lstrlib_8c.html#ab0ecc0f25602beb821f6a5e62517d18e" target="_top" xlink:title="end_capture">
<polygon fill="none" stroke="black" points="358,-1102.5 358,-1121.5 427,-1121.5 427,-1102.5 358,-1102.5"/>
<text text-anchor="middle" x="392.5" y="-1109.5" font-family="Helvetica,sans-Serif" font-size="10.00">end_capture</text>
</a>
</g>
</g>
<!-- Node13&#45;&gt;Node14 -->
<g id="edge14" class="edge"><title>Node13&#45;&gt;Node14</title>
<path fill="none" stroke="midnightblue" d="M321.622,-1112C333.827,-1112 346.48,-1112 357.61,-1112"/>
<polygon fill="midnightblue" stroke="midnightblue" points="321.519,-1108.5 311.519,-1112 321.519,-1115.5 321.519,-1108.5"/>
</g>
<!-- Node14&#45;&gt;Node15 -->
<g id="edge15" class="edge"><title>Node14&#45;&gt;Node15</title>
<path fill="none" stroke="midnightblue" d="M437.202,-1105.33C451.311,-1105.06 466.276,-1105.46 477.828,-1106.54"/>
<polygon fill="midnightblue" stroke="midnightblue" points="437.025,-1101.83 427.14,-1105.65 437.244,-1108.83 437.025,-1101.83"/>
</g>
<!-- Node15&#45;&gt;Node8 -->
<g id="edge19" class="edge"><title>Node15&#45;&gt;Node8</title>
<path fill="none" stroke="midnightblue" d="M519.36,-1128.37C540.047,-1145.87 572.147,-1173.02 589.106,-1187.36"/>
<polygon fill="midnightblue" stroke="midnightblue" points="521.424,-1125.54 511.529,-1121.75 516.904,-1130.88 521.424,-1125.54"/>
</g>
<!-- Node15&#45;&gt;Node14 -->
<g id="edge18" class="edge"><title>Node15&#45;&gt;Node14</title>
<path fill="none" stroke="midnightblue" d="M467.736,-1118.19C455.025,-1118.88 440.191,-1118.93 427.14,-1118.35"/>
<polygon fill="midnightblue" stroke="midnightblue" points="468.106,-1121.67 477.828,-1117.46 467.602,-1114.69 468.106,-1121.67"/>
</g>
<!-- Node15&#45;&gt;Node16 -->
<g id="edge16" class="edge"><title>Node15&#45;&gt;Node16</title>
<path fill="none" stroke="midnightblue" d="M530.496,-1105.74C541.683,-1105.16 554.423,-1105.1 565.94,-1105.55"/>
<polygon fill="midnightblue" stroke="midnightblue" points="530.067,-1102.26 520.338,-1106.45 530.559,-1109.24 530.067,-1102.26"/>
</g>
<!-- Node16&#45;&gt;Node15 -->
<g id="edge17" class="edge"><title>Node16&#45;&gt;Node15</title>
<path fill="none" stroke="midnightblue" d="M555.727,-1118.71C543.365,-1118.88 530.554,-1118.49 520.338,-1117.55"/>
<polygon fill="midnightblue" stroke="midnightblue" points="556.034,-1122.21 565.94,-1118.45 555.852,-1115.21 556.034,-1122.21"/>
</g>
<!-- Node18 -->
<g id="node18" class="node"><title>Node18</title>
<g id="a_node18"><a xlink:href="../../dc/d77/lstrlib_8c.html#af71e61c103df8b6163925c900470ee37" target="_top" xlink:title="match_capture">
<polygon fill="none" stroke="black" points="353,-1064.5 353,-1083.5 432,-1083.5 432,-1064.5 353,-1064.5"/>
<text text-anchor="middle" x="392.5" y="-1071.5" font-family="Helvetica,sans-Serif" font-size="10.00">match_capture</text>
</a>
</g>
</g>
<!-- Node17&#45;&gt;Node18 -->
<g id="edge21" class="edge"><title>Node17&#45;&gt;Node18</title>
<path fill="none" stroke="midnightblue" d="M316.08,-1074C328.262,-1074 341.213,-1074 352.883,-1074"/>
<polygon fill="midnightblue" stroke="midnightblue" points="316.072,-1070.5 306.072,-1074 316.072,-1077.5 316.072,-1070.5"/>
</g>
<!-- Node18&#45;&gt;Node15 -->
<g id="edge22" class="edge"><title>Node18&#45;&gt;Node15</title>
<path fill="none" stroke="midnightblue" d="M429.584,-1087.12C445.763,-1093 464.236,-1099.72 477.905,-1104.69"/>
<polygon fill="midnightblue" stroke="midnightblue" points="430.464,-1083.72 419.87,-1083.59 428.072,-1090.3 430.464,-1083.72"/>
</g>
<!-- Node20 -->
<g id="node20" class="node"><title>Node20</title>
<g id="a_node20"><a xlink:href="../../d2/d82/loadlib_8c.html#a8b2f1d86fe37c0829143579a6b568243" target="_top" xlink:title="searcher_Lua">
<polygon fill="none" stroke="red" points="355.5,-646.5 355.5,-665.5 429.5,-665.5 429.5,-646.5 355.5,-646.5"/>
<text text-anchor="middle" x="392.5" y="-653.5" font-family="Helvetica,sans-Serif" font-size="10.00">searcher_Lua</text>
</a>
</g>
</g>
<!-- Node19&#45;&gt;Node20 -->
<g id="edge24" class="edge"><title>Node19&#45;&gt;Node20</title>
<path fill="none" stroke="midnightblue" d="M307.233,-656C322.564,-656 340.093,-656 355.178,-656"/>
<polygon fill="midnightblue" stroke="midnightblue" points="307.028,-652.5 297.028,-656 307.028,-659.5 307.028,-652.5"/>
</g>
<!-- Node21 -->
<g id="node21" class="node"><title>Node21</title>
<g id="a_node21"><a xlink:href="../../d2/d82/loadlib_8c.html#a9a915ea950c831cee2f1e7b0a3bd9005" target="_top" xlink:title="searcher_C">
<polygon fill="none" stroke="red" points="360,-684.5 360,-703.5 425,-703.5 425,-684.5 360,-684.5"/>
<text text-anchor="middle" x="392.5" y="-691.5" font-family="Helvetica,sans-Serif" font-size="10.00">searcher_C</text>
</a>
</g>
</g>
<!-- Node19&#45;&gt;Node21 -->
<g id="edge25" class="edge"><title>Node19&#45;&gt;Node21</title>
<path fill="none" stroke="midnightblue" d="M306.821,-667.839C324.1,-673.177 344.239,-679.399 360.541,-684.436"/>
<polygon fill="midnightblue" stroke="midnightblue" points="307.615,-664.421 297.028,-664.813 305.549,-671.109 307.615,-664.421"/>
</g>
<!-- Node22&#45;&gt;Node15 -->
<g id="edge27" class="edge"><title>Node22&#45;&gt;Node15</title>
<path fill="none" stroke="midnightblue" d="M424.293,-1050.31C426.949,-1051.81 429.554,-1053.38 432,-1055 453.705,-1069.39 476.037,-1090.17 488.356,-1102.26"/>
<polygon fill="midnightblue" stroke="midnightblue" points="425.696,-1047.09 415.218,-1045.52 422.43,-1053.28 425.696,-1047.09"/>
</g>
<!-- Node24&#45;&gt;Node20 -->
<g id="edge30" class="edge"><title>Node24&#45;&gt;Node20</title>
<path fill="none" stroke="midnightblue" d="M297.879,-684.924C316.853,-679.062 341.498,-671.448 360.74,-665.503"/>
<polygon fill="midnightblue" stroke="midnightblue" points="296.783,-681.599 288.262,-687.895 298.85,-688.287 296.783,-681.599"/>
</g>
<!-- Node24&#45;&gt;Node21 -->
<g id="edge31" class="edge"><title>Node24&#45;&gt;Node21</title>
<path fill="none" stroke="midnightblue" d="M298.515,-694C317.088,-694 340.908,-694 359.789,-694"/>
<polygon fill="midnightblue" stroke="midnightblue" points="298.262,-690.5 288.262,-694 298.262,-697.5 298.262,-690.5"/>
</g>
<!-- Node33&#45;&gt;Node34 -->
<g id="edge41" class="edge"><title>Node33&#45;&gt;Node34</title>
<path fill="none" stroke="midnightblue" d="M313.317,-244.923C330.201,-247.531 348.899,-250.419 363.775,-252.717"/>
<polygon fill="midnightblue" stroke="midnightblue" points="313.507,-241.411 303.09,-243.343 312.438,-248.329 313.507,-241.411"/>
</g>
<!-- Node35&#45;&gt;Node12 -->
<g id="edge44" class="edge"><title>Node35&#45;&gt;Node12</title>
<path fill="none" stroke="midnightblue" d="M292.592,-784.886C317.471,-800.259 355.522,-823.77 376.433,-836.69"/>
<polygon fill="midnightblue" stroke="midnightblue" points="294.425,-781.904 284.078,-779.625 290.745,-787.859 294.425,-781.904"/>
</g>
<!-- Node35&#45;&gt;Node26 -->
<g id="edge43" class="edge"><title>Node35&#45;&gt;Node26</title>
<path fill="none" stroke="midnightblue" d="M320.799,-778.079C331.824,-779.782 343.252,-781.547 353.624,-783.149"/>
<polygon fill="midnightblue" stroke="midnightblue" points="321.247,-774.606 310.83,-776.539 320.178,-781.524 321.247,-774.606"/>
</g>
<!-- Node35&#45;&gt;Node36 -->
<g id="edge45" class="edge"><title>Node35&#45;&gt;Node36</title>
<path fill="none" stroke="midnightblue" d="M309.293,-757.397C328.574,-751.44 350.929,-744.534 367.456,-739.428"/>
<polygon fill="midnightblue" stroke="midnightblue" points="308.059,-754.115 299.538,-760.411 310.126,-760.803 308.059,-754.115"/>
</g>
<!-- Node38&#45;&gt;Node10 -->
<g id="edge48" class="edge"><title>Node38&#45;&gt;Node10</title>
<path fill="none" stroke="midnightblue" d="M303.805,-927.454C324.726,-930.685 350.622,-934.685 368.831,-937.498"/>
<polygon fill="midnightblue" stroke="midnightblue" points="304.105,-923.958 293.688,-925.891 303.036,-930.876 304.105,-923.958"/>
</g>
<!-- Node38&#45;&gt;Node39 -->
<g id="edge49" class="edge"><title>Node38&#45;&gt;Node39</title>
<path fill="none" stroke="midnightblue" d="M303.453,-911.202C324.28,-904.767 350.134,-896.78 368.423,-891.129"/>
<polygon fill="midnightblue" stroke="midnightblue" points="302.209,-907.923 293.688,-914.218 304.275,-914.611 302.209,-907.923"/>
</g>
<!-- Node40&#45;&gt;Node34 -->
<g id="edge51" class="edge"><title>Node40&#45;&gt;Node34</title>
<path fill="none" stroke="midnightblue" d="M303.933,-213.413C308.36,-215.226 312.804,-217.113 317,-219 336.864,-227.931 359.027,-239.442 373.976,-247.444"/>
<polygon fill="midnightblue" stroke="midnightblue" points="304.954,-210.053 294.37,-209.592 302.357,-216.553 304.954,-210.053"/>
</g>
<!-- Node41&#45;&gt;Node15 -->
<g id="edge54" class="edge"><title>Node41&#45;&gt;Node15</title>
<path fill="none" stroke="midnightblue" d="M418.401,-1173.04C422.982,-1170.13 427.68,-1167.03 432,-1164 451.815,-1150.08 473.684,-1132.35 486.611,-1121.6"/>
<polygon fill="midnightblue" stroke="midnightblue" points="416.508,-1170.09 409.866,-1178.34 420.206,-1176.03 416.508,-1170.09"/>
</g>
<!-- Node45&#45;&gt;Node6 -->
<g id="edge59" class="edge"><title>Node45&#45;&gt;Node6</title>
<path fill="none" stroke="midnightblue" d="M309.215,-1289.42C329.584,-1283.13 353.4,-1275.77 370.154,-1270.59"/>
<polygon fill="midnightblue" stroke="midnightblue" points="308.059,-1286.12 299.538,-1292.41 310.126,-1292.8 308.059,-1286.12"/>
</g>
<!-- Node45&#45;&gt;Node7 -->
<g id="edge60" class="edge"><title>Node45&#45;&gt;Node7</title>
<path fill="none" stroke="midnightblue" d="M323.422,-1301.15C355.732,-1299.3 396.987,-1294.57 432,-1283 451.836,-1276.45 472.328,-1263.51 485.11,-1254.56"/>
<polygon fill="midnightblue" stroke="midnightblue" points="323.079,-1297.66 313.265,-1301.65 323.426,-1304.65 323.079,-1297.66"/>
</g>
<!-- Node46&#45;&gt;Node34 -->
<g id="edge62" class="edge"><title>Node46&#45;&gt;Node34</title>
<path fill="none" stroke="midnightblue" d="M298.187,-300.243C320.66,-289.828 350.955,-275.789 370.845,-266.572"/>
<polygon fill="midnightblue" stroke="midnightblue" points="296.689,-297.079 289.087,-304.459 299.632,-303.43 296.689,-297.079"/>
</g>
</g>
</svg>
