<?xml version="1.0" encoding="UTF-8" standalone="no"?>
<!DOCTYPE svg PUBLIC "-//W3C//DTD SVG 1.1//EN"
 "http://www.w3.org/Graphics/SVG/1.1/DTD/svg11.dtd">
<!-- Generated by graphviz version 2.38.0 (20140413.2041)
 -->
<!-- Title: luaL_execresult Pages: 1 -->
<svg width="283pt" height="66pt"
 viewBox="0.00 0.00 283.00 66.00" xmlns="http://www.w3.org/2000/svg" xmlns:xlink="http://www.w3.org/1999/xlink">
<g id="graph0" class="graph" transform="scale(1 1) rotate(0) translate(4 62)">
<title>luaL_execresult</title>
<!-- Node1 -->
<g id="node1" class="node"><title>Node1</title>
<polygon fill="#bfbfbf" stroke="black" points="0,-19.5 0,-38.5 82,-38.5 82,-19.5 0,-19.5"/>
<text text-anchor="middle" x="41" y="-26.5" font-family="Helvetica,sans-Serif" font-size="10.00">luaL_execresult</text>
</g>
<!-- Node2 -->
<g id="node2" class="node"><title>Node2</title>
<g id="a_node2"><a xlink:href="../../de/df3/liolib_8c.html#ac885ae15fd14fc88058b0b8c1cf2b1d9" target="_top" xlink:title="io_pclose">
<polygon fill="none" stroke="black" points="122.5,-38.5 122.5,-57.5 178.5,-57.5 178.5,-38.5 122.5,-38.5"/>
<text text-anchor="middle" x="150.5" y="-45.5" font-family="Helvetica,sans-Serif" font-size="10.00">io_pclose</text>
</a>
</g>
</g>
<!-- Node1&#45;&gt;Node2 -->
<g id="edge1" class="edge"><title>Node1&#45;&gt;Node2</title>
<path fill="none" stroke="midnightblue" d="M91.9958,-37.8365C102.508,-39.6944 113.212,-41.5863 122.49,-43.2262"/>
<polygon fill="midnightblue" stroke="midnightblue" points="92.4856,-34.3689 82.029,-36.0749 91.2672,-41.262 92.4856,-34.3689"/>
</g>
<!-- Node4 -->
<g id="node4" class="node"><title>Node4</title>
<g id="a_node4"><a xlink:href="../../dc/dba/loslib_8c.html#a2da7b72413e7abbb84043eeb7988ba36" target="_top" xlink:title="os_execute">
<polygon fill="none" stroke="black" points="118,-0.5 118,-19.5 183,-19.5 183,-0.5 118,-0.5"/>
<text text-anchor="middle" x="150.5" y="-7.5" font-family="Helvetica,sans-Serif" font-size="10.00">os_execute</text>
</a>
</g>
</g>
<!-- Node1&#45;&gt;Node4 -->
<g id="edge3" class="edge"><title>Node1&#45;&gt;Node4</title>
<path fill="none" stroke="midnightblue" d="M91.8864,-20.1829C100.715,-18.6224 109.684,-17.0373 117.832,-15.5971"/>
<polygon fill="midnightblue" stroke="midnightblue" points="91.2672,-16.738 82.029,-21.9251 92.4856,-23.6311 91.2672,-16.738"/>
</g>
<!-- Node3 -->
<g id="node3" class="node"><title>Node3</title>
<g id="a_node3"><a xlink:href="../../de/df3/liolib_8c.html#a8cc0b2b08409fb97e5cc80a0caf9b5fd" target="_top" xlink:title="io_popen">
<polygon fill="none" stroke="black" points="219,-38.5 219,-57.5 275,-57.5 275,-38.5 219,-38.5"/>
<text text-anchor="middle" x="247" y="-45.5" font-family="Helvetica,sans-Serif" font-size="10.00">io_popen</text>
</a>
</g>
</g>
<!-- Node2&#45;&gt;Node3 -->
<g id="edge2" class="edge"><title>Node2&#45;&gt;Node3</title>
<path fill="none" stroke="midnightblue" d="M188.759,-48C198.825,-48 209.525,-48 218.916,-48"/>
<polygon fill="midnightblue" stroke="midnightblue" points="188.58,-44.5001 178.58,-48 188.58,-51.5001 188.58,-44.5001"/>
</g>
</g>
</svg>
