<?xml version="1.0" encoding="UTF-8" standalone="no"?>
<!DOCTYPE svg PUBLIC "-//W3C//DTD SVG 1.1//EN"
 "http://www.w3.org/Graphics/SVG/1.1/DTD/svg11.dtd">
<!-- Generated by graphviz version 2.38.0 (20140413.2041)
 -->
<!-- Title: luaL_checktype Pages: 1 -->
<svg width="341pt" height="674pt"
 viewBox="0.00 0.00 341.00 674.00" xmlns="http://www.w3.org/2000/svg" xmlns:xlink="http://www.w3.org/1999/xlink">
<g id="graph0" class="graph" transform="scale(1 1) rotate(0) translate(4 670)">
<title>luaL_checktype</title>
<!-- Node1 -->
<g id="node1" class="node"><title>Node1</title>
<polygon fill="#bfbfbf" stroke="black" points="0,-304.5 0,-323.5 83,-323.5 83,-304.5 0,-304.5"/>
<text text-anchor="middle" x="41.5" y="-311.5" font-family="Helvetica,sans-Serif" font-size="10.00">luaL_checktype</text>
</g>
<!-- Node2 -->
<g id="node2" class="node"><title>Node2</title>
<g id="a_node2"><a xlink:href="../../d8/d97/ldblib_8c.html#a31ebacb3668352430584fe277ac74923" target="_top" xlink:title="auxupvalue">
<polygon fill="none" stroke="black" points="133,-608.5 133,-627.5 201,-627.5 201,-608.5 133,-608.5"/>
<text text-anchor="middle" x="167" y="-615.5" font-family="Helvetica,sans-Serif" font-size="10.00">auxupvalue</text>
</a>
</g>
</g>
<!-- Node1&#45;&gt;Node2 -->
<g id="edge1" class="edge"><title>Node1&#45;&gt;Node2</title>
<path fill="none" stroke="midnightblue" d="M42.1112,-333.697C42.1789,-384.255 49.2328,-520.162 119,-599 122.733,-603.218 127.537,-606.515 132.643,-609.087"/>
<polygon fill="midnightblue" stroke="midnightblue" points="45.6126,-333.532 42.1963,-323.503 38.6129,-333.474 45.6126,-333.532"/>
</g>
<!-- Node5 -->
<g id="node5" class="node"><title>Node5</title>
<g id="a_node5"><a xlink:href="../../d8/d97/ldblib_8c.html#a0951daf8c0b66e39bd3aa618aff380bf" target="_top" xlink:title="checkupval">
<polygon fill="none" stroke="black" points="134.5,-570.5 134.5,-589.5 199.5,-589.5 199.5,-570.5 134.5,-570.5"/>
<text text-anchor="middle" x="167" y="-577.5" font-family="Helvetica,sans-Serif" font-size="10.00">checkupval</text>
</a>
</g>
</g>
<!-- Node1&#45;&gt;Node5 -->
<g id="edge4" class="edge"><title>Node1&#45;&gt;Node5</title>
<path fill="none" stroke="midnightblue" d="M43.1199,-334.128C45.601,-380.227 57.9351,-494.589 119,-561 123.17,-565.535 128.574,-569.011 134.225,-571.667"/>
<polygon fill="midnightblue" stroke="midnightblue" points="46.6086,-333.788 42.6778,-323.949 39.6152,-334.092 46.6086,-333.788"/>
</g>
<!-- Node8 -->
<g id="node8" class="node"><title>Node8</title>
<g id="a_node8"><a xlink:href="../../d8/d97/ldblib_8c.html#aa0c362d361f8f9bd8a002c34c393e2b0" target="_top" xlink:title="db_sethook">
<polygon fill="none" stroke="black" points="134,-532.5 134,-551.5 200,-551.5 200,-532.5 134,-532.5"/>
<text text-anchor="middle" x="167" y="-539.5" font-family="Helvetica,sans-Serif" font-size="10.00">db_sethook</text>
</a>
</g>
</g>
<!-- Node1&#45;&gt;Node8 -->
<g id="edge7" class="edge"><title>Node1&#45;&gt;Node8</title>
<path fill="none" stroke="midnightblue" d="M44.4202,-333.764C49.3865,-374.472 66.2071,-468.42 119,-523 123.161,-527.302 128.427,-530.659 133.919,-533.269"/>
<polygon fill="midnightblue" stroke="midnightblue" points="47.8931,-333.325 43.3138,-323.771 40.9356,-334.095 47.8931,-333.325"/>
</g>
<!-- Node9 -->
<g id="node9" class="node"><title>Node9</title>
<g id="a_node9"><a xlink:href="../../d8/d97/ldblib_8c.html#a233c3c4d12bda0fdbf515a18b8961461" target="_top" xlink:title="db_setuservalue">
<polygon fill="none" stroke="black" points="123.5,-494.5 123.5,-513.5 210.5,-513.5 210.5,-494.5 123.5,-494.5"/>
<text text-anchor="middle" x="167" y="-501.5" font-family="Helvetica,sans-Serif" font-size="10.00">db_setuservalue</text>
</a>
</g>
</g>
<!-- Node1&#45;&gt;Node9 -->
<g id="edge8" class="edge"><title>Node1&#45;&gt;Node9</title>
<path fill="none" stroke="midnightblue" d="M46.2146,-333.467C53.8378,-368.386 74.423,-442.021 119,-485 122.928,-488.787 127.711,-491.855 132.703,-494.329"/>
<polygon fill="midnightblue" stroke="midnightblue" points="49.6236,-332.668 44.181,-323.578 42.7671,-334.078 49.6236,-332.668"/>
</g>
<!-- Node10 -->
<g id="node10" class="node"><title>Node10</title>
<g id="a_node10"><a xlink:href="../../d8/dd3/lbaselib_8c.html#a9e49fcec5e66e36e817b1951123efc03" target="_top" xlink:title="ipairsaux">
<polygon fill="none" stroke="black" points="139,-418.5 139,-437.5 195,-437.5 195,-418.5 139,-418.5"/>
<text text-anchor="middle" x="167" y="-425.5" font-family="Helvetica,sans-Serif" font-size="10.00">ipairsaux</text>
</a>
</g>
</g>
<!-- Node1&#45;&gt;Node10 -->
<g id="edge9" class="edge"><title>Node1&#45;&gt;Node10</title>
<path fill="none" stroke="midnightblue" d="M53.2225,-332.355C66.3478,-353.414 90.3938,-387.768 119,-409 124.936,-413.406 132.037,-416.967 138.9,-419.762"/>
<polygon fill="midnightblue" stroke="midnightblue" points="56.1592,-330.447 47.9832,-323.709 50.1727,-334.075 56.1592,-330.447"/>
</g>
<!-- Node12 -->
<g id="node12" class="node"><title>Node12</title>
<g id="a_node12"><a xlink:href="../../df/d2d/lcorolib_8c.html#ad49772e236781ef7ad88ff8bc980b40b" target="_top" xlink:title="luaB_cocreate">
<polygon fill="none" stroke="black" points="128.5,-456.5 128.5,-475.5 205.5,-475.5 205.5,-456.5 128.5,-456.5"/>
<text text-anchor="middle" x="167" y="-463.5" font-family="Helvetica,sans-Serif" font-size="10.00">luaB_cocreate</text>
</a>
</g>
</g>
<!-- Node1&#45;&gt;Node12 -->
<g id="edge11" class="edge"><title>Node1&#45;&gt;Node12</title>
<path fill="none" stroke="midnightblue" d="M49.0078,-333.456C59.4823,-362.025 82.6634,-415.355 119,-447 123.381,-450.815 128.626,-453.926 134,-456.442"/>
<polygon fill="midnightblue" stroke="midnightblue" points="52.2362,-332.087 45.6145,-323.816 45.6333,-334.411 52.2362,-332.087"/>
</g>
<!-- Node14 -->
<g id="node14" class="node"><title>Node14</title>
<g id="a_node14"><a xlink:href="../../d8/dd3/lbaselib_8c.html#a4a9a3613fcf80fe033e044f7e19bed69" target="_top" xlink:title="luaB_load">
<polygon fill="none" stroke="black" points="137.5,-380.5 137.5,-399.5 196.5,-399.5 196.5,-380.5 137.5,-380.5"/>
<text text-anchor="middle" x="167" y="-387.5" font-family="Helvetica,sans-Serif" font-size="10.00">luaB_load</text>
</a>
</g>
</g>
<!-- Node1&#45;&gt;Node14 -->
<g id="edge13" class="edge"><title>Node1&#45;&gt;Node14</title>
<path fill="none" stroke="midnightblue" d="M61.7463,-330.527C76.6705,-342.786 98.2429,-359.328 119,-371 125.137,-374.451 132.028,-377.601 138.603,-380.3"/>
<polygon fill="midnightblue" stroke="midnightblue" points="63.7016,-327.6 53.7838,-323.873 59.213,-332.972 63.7016,-327.6"/>
</g>
<!-- Node15 -->
<g id="node15" class="node"><title>Node15</title>
<g id="a_node15"><a xlink:href="../../d8/dd3/lbaselib_8c.html#ac0b11ecf3ced275821aaf5a03ed33b02" target="_top" xlink:title="luaB_next">
<polygon fill="none" stroke="black" points="137.5,-152.5 137.5,-171.5 196.5,-171.5 196.5,-152.5 137.5,-152.5"/>
<text text-anchor="middle" x="167" y="-159.5" font-family="Helvetica,sans-Serif" font-size="10.00">luaB_next</text>
</a>
</g>
</g>
<!-- Node1&#45;&gt;Node15 -->
<g id="edge14" class="edge"><title>Node1&#45;&gt;Node15</title>
<path fill="none" stroke="midnightblue" d="M49.0078,-294.544C59.4823,-265.975 82.6634,-212.645 119,-181 124.31,-176.376 130.891,-172.786 137.43,-170.036"/>
<polygon fill="midnightblue" stroke="midnightblue" points="45.6333,-293.589 45.6145,-304.184 52.2362,-295.913 45.6333,-293.589"/>
</g>
<!-- Node17 -->
<g id="node17" class="node"><title>Node17</title>
<g id="a_node17"><a xlink:href="../../d8/dd3/lbaselib_8c.html#a248a6847a33f31c69a43a76b6b8bcb4b" target="_top" xlink:title="luaB_rawget">
<polygon fill="none" stroke="black" points="131.5,-304.5 131.5,-323.5 202.5,-323.5 202.5,-304.5 131.5,-304.5"/>
<text text-anchor="middle" x="167" y="-311.5" font-family="Helvetica,sans-Serif" font-size="10.00">luaB_rawget</text>
</a>
</g>
</g>
<!-- Node1&#45;&gt;Node17 -->
<g id="edge16" class="edge"><title>Node1&#45;&gt;Node17</title>
<path fill="none" stroke="midnightblue" d="M93.3775,-314C106.195,-314 119.657,-314 131.461,-314"/>
<polygon fill="midnightblue" stroke="midnightblue" points="93.2808,-310.5 83.2808,-314 93.2808,-317.5 93.2808,-310.5"/>
</g>
<!-- Node18 -->
<g id="node18" class="node"><title>Node18</title>
<g id="a_node18"><a xlink:href="../../d8/dd3/lbaselib_8c.html#a7b7225051c25127792f30eadd3498cc3" target="_top" xlink:title="luaB_rawset">
<polygon fill="none" stroke="black" points="131.5,-266.5 131.5,-285.5 202.5,-285.5 202.5,-266.5 131.5,-266.5"/>
<text text-anchor="middle" x="167" y="-273.5" font-family="Helvetica,sans-Serif" font-size="10.00">luaB_rawset</text>
</a>
</g>
</g>
<!-- Node1&#45;&gt;Node18 -->
<g id="edge17" class="edge"><title>Node1&#45;&gt;Node18</title>
<path fill="none" stroke="midnightblue" d="M83.2397,-301.465C100.04,-296.295 119.197,-290.401 134.846,-285.586"/>
<polygon fill="midnightblue" stroke="midnightblue" points="82.1927,-298.125 73.6643,-304.411 84.2514,-304.815 82.1927,-298.125"/>
</g>
<!-- Node19 -->
<g id="node19" class="node"><title>Node19</title>
<g id="a_node19"><a xlink:href="../../d8/dd3/lbaselib_8c.html#af7799a987ba6d158a96a52e80fb5beaf" target="_top" xlink:title="luaB_setmetatable">
<polygon fill="none" stroke="black" points="119,-228.5 119,-247.5 215,-247.5 215,-228.5 119,-228.5"/>
<text text-anchor="middle" x="167" y="-235.5" font-family="Helvetica,sans-Serif" font-size="10.00">luaB_setmetatable</text>
</a>
</g>
</g>
<!-- Node1&#45;&gt;Node19 -->
<g id="edge18" class="edge"><title>Node1&#45;&gt;Node19</title>
<path fill="none" stroke="midnightblue" d="M61.7463,-297.473C76.6705,-285.214 98.2429,-268.672 119,-257 125.137,-253.549 132.028,-250.399 138.603,-247.7"/>
<polygon fill="midnightblue" stroke="midnightblue" points="59.213,-295.028 53.7838,-304.127 63.7016,-300.4 59.213,-295.028"/>
</g>
<!-- Node20 -->
<g id="node20" class="node"><title>Node20</title>
<g id="a_node20"><a xlink:href="../../dc/dba/loslib_8c.html#ae32288bc9696b48450146e11c241f943" target="_top" xlink:title="os_time">
<polygon fill="none" stroke="black" points="142.5,-190.5 142.5,-209.5 191.5,-209.5 191.5,-190.5 142.5,-190.5"/>
<text text-anchor="middle" x="167" y="-197.5" font-family="Helvetica,sans-Serif" font-size="10.00">os_time</text>
</a>
</g>
</g>
<!-- Node1&#45;&gt;Node20 -->
<g id="edge19" class="edge"><title>Node1&#45;&gt;Node20</title>
<path fill="none" stroke="midnightblue" d="M53.2225,-295.645C66.3478,-274.586 90.3938,-240.232 119,-219 125.926,-213.859 134.437,-209.87 142.304,-206.904"/>
<polygon fill="midnightblue" stroke="midnightblue" points="50.1727,-293.925 47.9832,-304.291 56.1592,-297.553 50.1727,-293.925"/>
</g>
<!-- Node21 -->
<g id="node21" class="node"><title>Node21</title>
<g id="a_node21"><a xlink:href="../../d8/dd3/lbaselib_8c.html#a8f5df6d3f89389dd27da5cfeceee1f34" target="_top" xlink:title="pairsmeta">
<polygon fill="none" stroke="black" points="137.5,-342.5 137.5,-361.5 196.5,-361.5 196.5,-342.5 137.5,-342.5"/>
<text text-anchor="middle" x="167" y="-349.5" font-family="Helvetica,sans-Serif" font-size="10.00">pairsmeta</text>
</a>
</g>
</g>
<!-- Node1&#45;&gt;Node21 -->
<g id="edge20" class="edge"><title>Node1&#45;&gt;Node21</title>
<path fill="none" stroke="midnightblue" d="M83.6934,-326.675C101.307,-332.095 121.44,-338.289 137.385,-343.195"/>
<polygon fill="midnightblue" stroke="midnightblue" points="84.2514,-323.185 73.6643,-323.589 82.1927,-329.875 84.2514,-323.185"/>
</g>
<!-- Node22 -->
<g id="node22" class="node"><title>Node22</title>
<g id="a_node22"><a xlink:href="../../d0/da1/ltablib_8c.html#ae7d3f892e2605bf102dce63de388e626" target="_top" xlink:title="sort">
<polygon fill="none" stroke="black" points="151,-114.5 151,-133.5 183,-133.5 183,-114.5 151,-114.5"/>
<text text-anchor="middle" x="167" y="-121.5" font-family="Helvetica,sans-Serif" font-size="10.00">sort</text>
</a>
</g>
</g>
<!-- Node1&#45;&gt;Node22 -->
<g id="edge23" class="edge"><title>Node1&#45;&gt;Node22</title>
<path fill="none" stroke="midnightblue" d="M46.2146,-294.533C53.8378,-259.614 74.423,-185.979 119,-143 127.744,-134.57 140.718,-129.707 150.821,-127.016"/>
<polygon fill="midnightblue" stroke="midnightblue" points="42.7671,-293.922 44.181,-304.422 49.6236,-295.332 42.7671,-293.922"/>
</g>
<!-- Node23 -->
<g id="node23" class="node"><title>Node23</title>
<g id="a_node23"><a xlink:href="../../dc/d77/lstrlib_8c.html#abc94e3a13f1b6ddb2c9b20c9fd89e87f" target="_top" xlink:title="str_dump">
<polygon fill="none" stroke="black" points="139,-76.5 139,-95.5 195,-95.5 195,-76.5 139,-76.5"/>
<text text-anchor="middle" x="167" y="-83.5" font-family="Helvetica,sans-Serif" font-size="10.00">str_dump</text>
</a>
</g>
</g>
<!-- Node1&#45;&gt;Node23 -->
<g id="edge24" class="edge"><title>Node1&#45;&gt;Node23</title>
<path fill="none" stroke="midnightblue" d="M44.4202,-294.236C49.3865,-253.528 66.2071,-159.58 119,-105 124.385,-99.433 131.621,-95.4482 138.8,-92.6157"/>
<polygon fill="midnightblue" stroke="midnightblue" points="40.9356,-293.905 43.3138,-304.229 47.8931,-294.675 40.9356,-293.905"/>
</g>
<!-- Node24 -->
<g id="node24" class="node"><title>Node24</title>
<g id="a_node24"><a xlink:href="../../d0/da1/ltablib_8c.html#add6973c515a288f41265aca8e0ae6412" target="_top" xlink:title="tconcat">
<polygon fill="none" stroke="black" points="143.5,-38.5 143.5,-57.5 190.5,-57.5 190.5,-38.5 143.5,-38.5"/>
<text text-anchor="middle" x="167" y="-45.5" font-family="Helvetica,sans-Serif" font-size="10.00">tconcat</text>
</a>
</g>
</g>
<!-- Node1&#45;&gt;Node24 -->
<g id="edge25" class="edge"><title>Node1&#45;&gt;Node24</title>
<path fill="none" stroke="midnightblue" d="M43.1199,-293.872C45.601,-247.773 57.9351,-133.411 119,-67 125.434,-60.003 134.804,-55.5281 143.488,-52.6926"/>
<polygon fill="midnightblue" stroke="midnightblue" points="39.6152,-293.908 42.6778,-304.051 46.6086,-294.212 39.6152,-293.908"/>
</g>
<!-- Node25 -->
<g id="node25" class="node"><title>Node25</title>
<g id="a_node25"><a xlink:href="../../d0/da1/ltablib_8c.html#aab557c98c16305370f73c4c716f5725d" target="_top" xlink:title="unpack">
<polygon fill="none" stroke="black" points="143,-0.5 143,-19.5 191,-19.5 191,-0.5 143,-0.5"/>
<text text-anchor="middle" x="167" y="-7.5" font-family="Helvetica,sans-Serif" font-size="10.00">unpack</text>
</a>
</g>
</g>
<!-- Node1&#45;&gt;Node25 -->
<g id="edge26" class="edge"><title>Node1&#45;&gt;Node25</title>
<path fill="none" stroke="midnightblue" d="M42.1112,-294.303C42.1789,-243.745 49.2328,-107.838 119,-29 125.183,-22.0135 134.303,-17.5552 142.869,-14.7292"/>
<polygon fill="midnightblue" stroke="midnightblue" points="38.6129,-294.526 42.1963,-304.497 45.6126,-294.468 38.6129,-294.526"/>
</g>
<!-- Node3 -->
<g id="node3" class="node"><title>Node3</title>
<g id="a_node3"><a xlink:href="../../d8/d97/ldblib_8c.html#a7a4124c791de7d76bd4fa752eb1569b6" target="_top" xlink:title="db_getupvalue">
<polygon fill="none" stroke="black" points="252,-608.5 252,-627.5 332,-627.5 332,-608.5 252,-608.5"/>
<text text-anchor="middle" x="292" y="-615.5" font-family="Helvetica,sans-Serif" font-size="10.00">db_getupvalue</text>
</a>
</g>
</g>
<!-- Node2&#45;&gt;Node3 -->
<g id="edge2" class="edge"><title>Node2&#45;&gt;Node3</title>
<path fill="none" stroke="midnightblue" d="M211.458,-618C224.523,-618 238.781,-618 251.571,-618"/>
<polygon fill="midnightblue" stroke="midnightblue" points="211.286,-614.5 201.286,-618 211.286,-621.5 211.286,-614.5"/>
</g>
<!-- Node4 -->
<g id="node4" class="node"><title>Node4</title>
<g id="a_node4"><a xlink:href="../../d8/d97/ldblib_8c.html#acd61487bdd057d6c668ec0bd88728670" target="_top" xlink:title="db_setupvalue">
<polygon fill="none" stroke="black" points="252,-646.5 252,-665.5 332,-665.5 332,-646.5 252,-646.5"/>
<text text-anchor="middle" x="292" y="-653.5" font-family="Helvetica,sans-Serif" font-size="10.00">db_setupvalue</text>
</a>
</g>
</g>
<!-- Node2&#45;&gt;Node4 -->
<g id="edge3" class="edge"><title>Node2&#45;&gt;Node4</title>
<path fill="none" stroke="midnightblue" d="M209.045,-630.68C225.664,-635.815 244.532,-641.644 259.972,-646.414"/>
<polygon fill="midnightblue" stroke="midnightblue" points="209.626,-627.197 199.038,-627.589 207.559,-633.885 209.626,-627.197"/>
</g>
<!-- Node6 -->
<g id="node6" class="node"><title>Node6</title>
<g id="a_node6"><a xlink:href="../../d8/d97/ldblib_8c.html#ade86533c6188a941aae1be4396a20393" target="_top" xlink:title="db_upvalueid">
<polygon fill="none" stroke="black" points="255,-532.5 255,-551.5 329,-551.5 329,-532.5 255,-532.5"/>
<text text-anchor="middle" x="292" y="-539.5" font-family="Helvetica,sans-Serif" font-size="10.00">db_upvalueid</text>
</a>
</g>
</g>
<!-- Node5&#45;&gt;Node6 -->
<g id="edge5" class="edge"><title>Node5&#45;&gt;Node6</title>
<path fill="none" stroke="midnightblue" d="M209.045,-567.32C225.664,-562.185 244.532,-556.356 259.972,-551.586"/>
<polygon fill="midnightblue" stroke="midnightblue" points="207.559,-564.115 199.038,-570.411 209.626,-570.803 207.559,-564.115"/>
</g>
<!-- Node7 -->
<g id="node7" class="node"><title>Node7</title>
<g id="a_node7"><a xlink:href="../../d8/d97/ldblib_8c.html#acd80bdb3262b3580eb6955f6f3eb3549" target="_top" xlink:title="db_upvaluejoin">
<polygon fill="none" stroke="black" points="251,-570.5 251,-589.5 333,-589.5 333,-570.5 251,-570.5"/>
<text text-anchor="middle" x="292" y="-577.5" font-family="Helvetica,sans-Serif" font-size="10.00">db_upvaluejoin</text>
</a>
</g>
</g>
<!-- Node5&#45;&gt;Node7 -->
<g id="edge6" class="edge"><title>Node5&#45;&gt;Node7</title>
<path fill="none" stroke="midnightblue" d="M209.888,-580C223.046,-580 237.542,-580 250.595,-580"/>
<polygon fill="midnightblue" stroke="midnightblue" points="209.676,-576.5 199.676,-580 209.676,-583.5 209.676,-576.5"/>
</g>
<!-- Node11 -->
<g id="node11" class="node"><title>Node11</title>
<g id="a_node11"><a xlink:href="../../d8/dd3/lbaselib_8c.html#a5cb8b3b13437afd94c3313f0a4b17d06" target="_top" xlink:title="luaB_ipairs">
<polygon fill="none" stroke="black" points="260,-380.5 260,-399.5 324,-399.5 324,-380.5 260,-380.5"/>
<text text-anchor="middle" x="292" y="-387.5" font-family="Helvetica,sans-Serif" font-size="10.00">luaB_ipairs</text>
</a>
</g>
</g>
<!-- Node10&#45;&gt;Node11 -->
<g id="edge10" class="edge"><title>Node10&#45;&gt;Node11</title>
<path fill="none" stroke="midnightblue" d="M205.171,-416.516C222.644,-411.118 243.241,-404.755 259.877,-399.615"/>
<polygon fill="midnightblue" stroke="midnightblue" points="203.819,-413.271 195.298,-419.567 205.885,-419.959 203.819,-413.271"/>
</g>
<!-- Node13 -->
<g id="node13" class="node"><title>Node13</title>
<g id="a_node13"><a xlink:href="../../df/d2d/lcorolib_8c.html#a1c0429e27f504b08e25f437f733edad1" target="_top" xlink:title="luaB_cowrap">
<polygon fill="none" stroke="black" points="255,-456.5 255,-475.5 329,-475.5 329,-456.5 255,-456.5"/>
<text text-anchor="middle" x="292" y="-463.5" font-family="Helvetica,sans-Serif" font-size="10.00">luaB_cowrap</text>
</a>
</g>
</g>
<!-- Node12&#45;&gt;Node13 -->
<g id="edge12" class="edge"><title>Node12&#45;&gt;Node13</title>
<path fill="none" stroke="midnightblue" d="M215.778,-466C228.794,-466 242.674,-466 254.922,-466"/>
<polygon fill="midnightblue" stroke="midnightblue" points="215.572,-462.5 205.572,-466 215.572,-469.5 215.572,-462.5"/>
</g>
<!-- Node16 -->
<g id="node16" class="node"><title>Node16</title>
<g id="a_node16"><a xlink:href="../../d8/dd3/lbaselib_8c.html#a36def102f87ba8c40734489231e90109" target="_top" xlink:title="luaB_pairs">
<polygon fill="none" stroke="black" points="261,-228.5 261,-247.5 323,-247.5 323,-228.5 261,-228.5"/>
<text text-anchor="middle" x="292" y="-235.5" font-family="Helvetica,sans-Serif" font-size="10.00">luaB_pairs</text>
</a>
</g>
</g>
<!-- Node15&#45;&gt;Node16 -->
<g id="edge15" class="edge"><title>Node15&#45;&gt;Node16</title>
<path fill="none" stroke="midnightblue" d="M204.747,-175.767C208.271,-177.41 211.743,-179.161 215,-181 239.705,-194.943 265.52,-215.881 279.802,-228.12"/>
<polygon fill="midnightblue" stroke="midnightblue" points="205.969,-172.481 195.404,-171.686 203.168,-178.896 205.969,-172.481"/>
</g>
<!-- Node21&#45;&gt;Node11 -->
<g id="edge22" class="edge"><title>Node21&#45;&gt;Node11</title>
<path fill="none" stroke="midnightblue" d="M206.321,-363.839C223.6,-369.177 243.739,-375.399 260.041,-380.436"/>
<polygon fill="midnightblue" stroke="midnightblue" points="207.115,-360.421 196.528,-360.813 205.049,-367.109 207.115,-360.421"/>
</g>
<!-- Node21&#45;&gt;Node16 -->
<g id="edge21" class="edge"><title>Node21&#45;&gt;Node16</title>
<path fill="none" stroke="midnightblue" d="M205.833,-338.766C209.054,-337.033 212.161,-335.114 215,-333 247.864,-308.526 274.564,-266.589 285.569,-247.711"/>
<polygon fill="midnightblue" stroke="midnightblue" points="204.112,-335.709 196.584,-343.164 207.118,-342.031 204.112,-335.709"/>
</g>
</g>
</svg>
