<?xml version="1.0" encoding="UTF-8" standalone="no"?>
<!DOCTYPE svg PUBLIC "-//W3C//DTD SVG 1.1//EN"
 "http://www.w3.org/Graphics/SVG/1.1/DTD/svg11.dtd">
<!-- Generated by graphviz version 2.38.0 (20140413.2041)
 -->
<!-- Title: luaL_getmetafield Pages: 1 -->
<svg width="443pt" height="180pt"
 viewBox="0.00 0.00 443.00 180.00" xmlns="http://www.w3.org/2000/svg" xmlns:xlink="http://www.w3.org/1999/xlink">
<g id="graph0" class="graph" transform="scale(1 1) rotate(0) translate(4 176)">
<title>luaL_getmetafield</title>
<!-- Node1 -->
<g id="node1" class="node"><title>Node1</title>
<polygon fill="#bfbfbf" stroke="black" points="0,-95.5 0,-114.5 89,-114.5 89,-95.5 0,-95.5"/>
<text text-anchor="middle" x="44.5" y="-102.5" font-family="Helvetica,sans-Serif" font-size="10.00">luaL_getmetafield</text>
</g>
<!-- Node2 -->
<g id="node2" class="node"><title>Node2</title>
<g id="a_node2"><a xlink:href="../../d8/dd3/lbaselib_8c.html#addfd66adcbe4c777cf5e10536d27d8b1" target="_top" xlink:title="luaB_getmetatable">
<polygon fill="none" stroke="black" points="125,-152.5 125,-171.5 221,-171.5 221,-152.5 125,-152.5"/>
<text text-anchor="middle" x="173" y="-159.5" font-family="Helvetica,sans-Serif" font-size="10.00">luaB_getmetatable</text>
</a>
</g>
</g>
<!-- Node1&#45;&gt;Node2 -->
<g id="edge1" class="edge"><title>Node1&#45;&gt;Node2</title>
<path fill="none" stroke="midnightblue" d="M73.9209,-119.109C88.9952,-126.458 107.889,-135.461 125,-143 132.249,-146.194 140.21,-149.49 147.486,-152.423"/>
<polygon fill="midnightblue" stroke="midnightblue" points="75.1433,-115.81 64.6237,-114.549 72.0612,-122.095 75.1433,-115.81"/>
</g>
<!-- Node3 -->
<g id="node3" class="node"><title>Node3</title>
<g id="a_node3"><a xlink:href="../../d8/dd3/lbaselib_8c.html#af7799a987ba6d158a96a52e80fb5beaf" target="_top" xlink:title="luaB_setmetatable">
<polygon fill="none" stroke="black" points="125,-114.5 125,-133.5 221,-133.5 221,-114.5 125,-114.5"/>
<text text-anchor="middle" x="173" y="-121.5" font-family="Helvetica,sans-Serif" font-size="10.00">luaB_setmetatable</text>
</a>
</g>
</g>
<!-- Node1&#45;&gt;Node3 -->
<g id="edge2" class="edge"><title>Node1&#45;&gt;Node3</title>
<path fill="none" stroke="midnightblue" d="M98.9958,-113.035C107.612,-114.329 116.476,-115.66 124.927,-116.93"/>
<polygon fill="midnightblue" stroke="midnightblue" points="99.4431,-109.563 89.0341,-111.539 98.4033,-116.485 99.4431,-109.563"/>
</g>
<!-- Node4 -->
<g id="node4" class="node"><title>Node4</title>
<g id="a_node4"><a xlink:href="../../da/d29/lauxlib_8h.html#af26aec8cce4a3f4448c60f402d78f17d" target="_top" xlink:title="luaL_callmeta">
<polygon fill="none" stroke="black" points="136,-76.5 136,-95.5 210,-95.5 210,-76.5 136,-76.5"/>
<text text-anchor="middle" x="173" y="-83.5" font-family="Helvetica,sans-Serif" font-size="10.00">luaL_callmeta</text>
</a>
</g>
</g>
<!-- Node1&#45;&gt;Node4 -->
<g id="edge3" class="edge"><title>Node1&#45;&gt;Node4</title>
<path fill="none" stroke="midnightblue" d="M99.2734,-96.9234C111.653,-95.064 124.528,-93.1302 135.943,-91.4156"/>
<polygon fill="midnightblue" stroke="midnightblue" points="98.4033,-93.5147 89.0341,-98.4613 99.4431,-100.437 98.4033,-93.5147"/>
</g>
<!-- Node8 -->
<g id="node8" class="node"><title>Node8</title>
<g id="a_node8"><a xlink:href="../../d8/dd3/lbaselib_8c.html#a8f5df6d3f89389dd27da5cfeceee1f34" target="_top" xlink:title="pairsmeta">
<polygon fill="none" stroke="black" points="143.5,-38.5 143.5,-57.5 202.5,-57.5 202.5,-38.5 143.5,-38.5"/>
<text text-anchor="middle" x="173" y="-45.5" font-family="Helvetica,sans-Serif" font-size="10.00">pairsmeta</text>
</a>
</g>
</g>
<!-- Node1&#45;&gt;Node8 -->
<g id="edge7" class="edge"><title>Node1&#45;&gt;Node8</title>
<path fill="none" stroke="midnightblue" d="M73.9209,-90.8914C88.9952,-83.5416 107.889,-74.5393 125,-67 132.249,-63.8061 140.21,-60.5096 147.486,-57.5773"/>
<polygon fill="midnightblue" stroke="midnightblue" points="72.0612,-87.9051 64.6237,-95.4506 75.1433,-94.1901 72.0612,-87.9051"/>
</g>
<!-- Node5 -->
<g id="node5" class="node"><title>Node5</title>
<g id="a_node5"><a xlink:href="../../da/d29/lauxlib_8h.html#aef6da057d1e26ed6449b92177f1f2f5a" target="_top" xlink:title="luaL_tolstring">
<polygon fill="none" stroke="black" points="257,-76.5 257,-95.5 328,-95.5 328,-76.5 257,-76.5"/>
<text text-anchor="middle" x="292.5" y="-83.5" font-family="Helvetica,sans-Serif" font-size="10.00">luaL_tolstring</text>
</a>
</g>
</g>
<!-- Node4&#45;&gt;Node5 -->
<g id="edge4" class="edge"><title>Node4&#45;&gt;Node5</title>
<path fill="none" stroke="midnightblue" d="M220.223,-86C232.41,-86 245.351,-86 256.815,-86"/>
<polygon fill="midnightblue" stroke="midnightblue" points="220.213,-82.5001 210.213,-86 220.213,-89.5001 220.213,-82.5001"/>
</g>
<!-- Node6 -->
<g id="node6" class="node"><title>Node6</title>
<g id="a_node6"><a xlink:href="../../d8/dd3/lbaselib_8c.html#a15bd8ce3f719c87883bcb578c60677e7" target="_top" xlink:title="luaB_tostring">
<polygon fill="none" stroke="black" points="364,-95.5 364,-114.5 435,-114.5 435,-95.5 364,-95.5"/>
<text text-anchor="middle" x="399.5" y="-102.5" font-family="Helvetica,sans-Serif" font-size="10.00">luaB_tostring</text>
</a>
</g>
</g>
<!-- Node5&#45;&gt;Node6 -->
<g id="edge5" class="edge"><title>Node5&#45;&gt;Node6</title>
<path fill="none" stroke="midnightblue" d="M338.097,-94.07C346.715,-95.6293 355.623,-97.2413 363.864,-98.7326"/>
<polygon fill="midnightblue" stroke="midnightblue" points="338.635,-90.6106 328.172,-92.274 337.389,-97.4987 338.635,-90.6106"/>
</g>
<!-- Node7 -->
<g id="node7" class="node"><title>Node7</title>
<g id="a_node7"><a xlink:href="../../dc/d77/lstrlib_8c.html#ae26a9374857058119e59d0328208c2f2" target="_top" xlink:title="str_format">
<polygon fill="none" stroke="black" points="371,-57.5 371,-76.5 428,-76.5 428,-57.5 371,-57.5"/>
<text text-anchor="middle" x="399.5" y="-64.5" font-family="Helvetica,sans-Serif" font-size="10.00">str_format</text>
</a>
</g>
</g>
<!-- Node5&#45;&gt;Node7 -->
<g id="edge6" class="edge"><title>Node5&#45;&gt;Node7</title>
<path fill="none" stroke="midnightblue" d="M338.168,-77.9173C349.261,-75.9098 360.833,-73.816 370.84,-72.0052"/>
<polygon fill="midnightblue" stroke="midnightblue" points="337.389,-74.5013 328.172,-79.726 338.635,-81.3894 337.389,-74.5013"/>
</g>
<!-- Node9 -->
<g id="node9" class="node"><title>Node9</title>
<g id="a_node9"><a xlink:href="../../d8/dd3/lbaselib_8c.html#a36def102f87ba8c40734489231e90109" target="_top" xlink:title="luaB_pairs">
<polygon fill="none" stroke="black" points="261.5,-38.5 261.5,-57.5 323.5,-57.5 323.5,-38.5 261.5,-38.5"/>
<text text-anchor="middle" x="292.5" y="-45.5" font-family="Helvetica,sans-Serif" font-size="10.00">luaB_pairs</text>
</a>
</g>
</g>
<!-- Node8&#45;&gt;Node9 -->
<g id="edge8" class="edge"><title>Node8&#45;&gt;Node9</title>
<path fill="none" stroke="midnightblue" d="M212.769,-48C228.592,-48 246.611,-48 261.414,-48"/>
<polygon fill="midnightblue" stroke="midnightblue" points="212.744,-44.5001 202.744,-48 212.744,-51.5001 212.744,-44.5001"/>
</g>
<!-- Node10 -->
<g id="node10" class="node"><title>Node10</title>
<g id="a_node10"><a xlink:href="../../d8/dd3/lbaselib_8c.html#a5cb8b3b13437afd94c3313f0a4b17d06" target="_top" xlink:title="luaB_ipairs">
<polygon fill="none" stroke="black" points="260.5,-0.5 260.5,-19.5 324.5,-19.5 324.5,-0.5 260.5,-0.5"/>
<text text-anchor="middle" x="292.5" y="-7.5" font-family="Helvetica,sans-Serif" font-size="10.00">luaB_ipairs</text>
</a>
</g>
</g>
<!-- Node8&#45;&gt;Node10 -->
<g id="edge9" class="edge"><title>Node8&#45;&gt;Node10</title>
<path fill="none" stroke="midnightblue" d="M212.393,-35.5834C228.454,-30.3895 246.83,-24.4466 261.826,-19.5967"/>
<polygon fill="midnightblue" stroke="midnightblue" points="211.182,-32.2968 202.744,-38.7042 213.336,-38.9571 211.182,-32.2968"/>
</g>
</g>
</svg>
