<?xml version="1.0" encoding="UTF-8" standalone="no"?>
<!DOCTYPE svg PUBLIC "-//W3C//DTD SVG 1.1//EN"
 "http://www.w3.org/Graphics/SVG/1.1/DTD/svg11.dtd">
<!-- Generated by graphviz version 2.34.0 (20131008.0448)
 -->
<!-- Title: KenshoContext Pages: 1 -->
<svg width="132pt" height="204pt"
 viewBox="0.00 0.00 132.00 204.00" xmlns="http://www.w3.org/2000/svg" xmlns:xlink="http://www.w3.org/1999/xlink">
<g id="graph0" class="graph" transform="scale(1 1) rotate(0) translate(4 200)">
<title>KenshoContext</title>
<!-- Node1 -->
<g id="node1" class="node"><title>Node1</title>
<polygon fill="#bfbfbf" stroke="black" points="-0.873,-1 -0.873,-97 124.873,-97 124.873,-1 -0.873,-1"/>
<text text-anchor="middle" x="62" y="-84" font-family="Helvetica,sans-Serif" font-size="10.00">KenshoContext</text>
<polyline fill="none" stroke="black" points="-0.873,-77 124.873,-77 "/>
<text text-anchor="start" x="7.127" y="-64" font-family="Helvetica,sans-Serif" font-size="10.00">+ root</text>
<text text-anchor="start" x="7.127" y="-52" font-family="Helvetica,sans-Serif" font-size="10.00">+ parent</text>
<text text-anchor="start" x="7.127" y="-40" font-family="Helvetica,sans-Serif" font-size="10.00">+ context</text>
<polyline fill="none" stroke="black" points="-0.873,-33 124.873,-33 "/>
<text text-anchor="start" x="7.127" y="-20" font-family="Helvetica,sans-Serif" font-size="10.00">+ initWithContext:parent:</text>
<text text-anchor="start" x="7.127" y="-8" font-family="Helvetica,sans-Serif" font-size="10.00">+ valueForKey:</text>
</g>
<!-- Node2 -->
<g id="node2" class="node"><title>Node2</title>
<g id="a_node2"><a xlink:href="../../d7/dc4/class_n_s_object.html" target="_top" xlink:title="{NSObject\n||}">
<polygon fill="none" stroke="black" points="32.6085,-135 32.6085,-195 91.3915,-195 91.3915,-135 32.6085,-135"/>
<text text-anchor="middle" x="62" y="-182" font-family="Helvetica,sans-Serif" font-size="10.00">NSObject</text>
<polyline fill="none" stroke="black" points="32.6085,-175 91.3915,-175 "/>
<text text-anchor="middle" x="62" y="-162" font-family="Helvetica,sans-Serif" font-size="10.00"> </text>
<polyline fill="none" stroke="black" points="32.6085,-155 91.3915,-155 "/>
<text text-anchor="middle" x="62" y="-142" font-family="Helvetica,sans-Serif" font-size="10.00"> </text>
</a>
</g>
</g>
<!-- Node2&#45;&gt;Node1 -->
<g id="edge1" class="edge"><title>Node2&#45;&gt;Node1</title>
<path fill="none" stroke="midnightblue" d="M62,-124.836C62,-115.928 62,-106.372 62,-97.1692"/>
<polygon fill="none" stroke="midnightblue" points="58.5001,-124.938 62,-134.938 65.5001,-124.938 58.5001,-124.938"/>
</g>
</g>
</svg>
