<?xml version="1.0" encoding="UTF-8" standalone="no"?>
<!DOCTYPE svg PUBLIC "-//W3C//DTD SVG 1.1//EN"
 "http://www.w3.org/Graphics/SVG/1.1/DTD/svg11.dtd">
<!-- Generated by graphviz version 2.38.0 (20140413.2041)
 -->
<!-- Title: luaT_init Pages: 1 -->
<svg width="973pt" height="149pt"
 viewBox="0.00 0.00 973.00 148.50" xmlns="http://www.w3.org/2000/svg" xmlns:xlink="http://www.w3.org/1999/xlink">
<g id="graph0" class="graph" transform="scale(1 1) rotate(0) translate(4 144.5)">
<title>luaT_init</title>
<!-- Node1 -->
<g id="node1" class="node"><title>Node1</title>
<polygon fill="#bfbfbf" stroke="black" points="0,-17 0,-36 50,-36 50,-17 0,-17"/>
<text text-anchor="middle" x="25" y="-24" font-family="Helvetica,sans-Serif" font-size="10.00">luaT_init</text>
</g>
<!-- Node2 -->
<g id="node2" class="node"><title>Node2</title>
<g id="a_node2"><a xlink:href="../../dd/dca/lstate_8c.html#ab65e96a7498fd886f7223b92e91fd830" target="_top" xlink:title="f_luaopen">
<polygon fill="none" stroke="black" points="86,-17 86,-36 145,-36 145,-17 86,-17"/>
<text text-anchor="middle" x="115.5" y="-24" font-family="Helvetica,sans-Serif" font-size="10.00">f_luaopen</text>
</a>
</g>
</g>
<!-- Node1&#45;&gt;Node2 -->
<g id="edge1" class="edge"><title>Node1&#45;&gt;Node2</title>
<path fill="none" stroke="midnightblue" d="M60.21,-26.5C68.7172,-26.5 77.747,-26.5 85.9499,-26.5"/>
<polygon fill="midnightblue" stroke="midnightblue" points="60.183,-23.0001 50.183,-26.5 60.183,-30.0001 60.183,-23.0001"/>
</g>
<!-- Node3 -->
<g id="node3" class="node"><title>Node3</title>
<g id="a_node3"><a xlink:href="../../da/dd2/lua_8h.html#af722e4ac7fc0eba5920f59f0162c1b97" target="_top" xlink:title="lua_newstate">
<polygon fill="none" stroke="black" points="181,-17 181,-36 255,-36 255,-17 181,-17"/>
<text text-anchor="middle" x="218" y="-24" font-family="Helvetica,sans-Serif" font-size="10.00">lua_newstate</text>
</a>
</g>
</g>
<!-- Node2&#45;&gt;Node3 -->
<g id="edge2" class="edge"><title>Node2&#45;&gt;Node3</title>
<path fill="none" stroke="midnightblue" d="M155.065,-26.5C163.54,-26.5 172.484,-26.5 180.859,-26.5"/>
<polygon fill="midnightblue" stroke="midnightblue" points="155.03,-23.0001 145.03,-26.5 155.03,-30.0001 155.03,-23.0001"/>
</g>
<!-- Node4 -->
<g id="node4" class="node"><title>Node4</title>
<g id="a_node4"><a xlink:href="../../da/d29/lauxlib_8h.html#a7d8712fcede90ae93d5a9a7b409c586e" target="_top" xlink:title="luaL_newstate">
<polygon fill="none" stroke="black" points="291,-55 291,-74 371,-74 371,-55 291,-55"/>
<text text-anchor="middle" x="331" y="-62" font-family="Helvetica,sans-Serif" font-size="10.00">luaL_newstate</text>
</a>
</g>
</g>
<!-- Node3&#45;&gt;Node4 -->
<g id="edge3" class="edge"><title>Node3&#45;&gt;Node4</title>
<path fill="none" stroke="midnightblue" d="M256.891,-39.4718C271.68,-44.5344 288.329,-50.2341 301.999,-54.9141"/>
<polygon fill="midnightblue" stroke="midnightblue" points="257.605,-36.0166 247.01,-36.089 255.337,-42.6393 257.605,-36.0166"/>
</g>
<!-- Node11 -->
<g id="node11" class="node"><title>Node11</title>
<g id="a_node11"><a xlink:href="../../dd/dca/lstate_8c.html#a8a0fc0aca5367250347c6bb6a788f05f" target="_top" xlink:title="makeseed">
<polygon fill="none" stroke="black" points="300.5,-17 300.5,-36 361.5,-36 361.5,-17 300.5,-17"/>
<text text-anchor="middle" x="331" y="-24" font-family="Helvetica,sans-Serif" font-size="10.00">makeseed</text>
</a>
</g>
</g>
<!-- Node3&#45;&gt;Node11 -->
<g id="edge11" class="edge"><title>Node3&#45;&gt;Node11</title>
<path fill="none" stroke="midnightblue" d="M265.284,-19.8334C277.178,-19.6163 289.653,-19.823 300.441,-20.4534"/>
<polygon fill="midnightblue" stroke="midnightblue" points="264.932,-16.3421 255.039,-20.1333 265.137,-23.3391 264.932,-16.3421"/>
</g>
<!-- Node5 -->
<g id="node5" class="node"><title>Node5</title>
<g id="a_node5"><a xlink:href="../../dc/de7/interface_kensho_lua_wrapper.html#a7d10aa0242861cdd109d3da9383882a2" target="_top" xlink:title="&#45;[KenshoLuaWrapper\l evaluate]">
<polygon fill="none" stroke="black" points="407,-49.5 407,-79.5 516,-79.5 516,-49.5 407,-49.5"/>
<text text-anchor="start" x="415" y="-67.5" font-family="Helvetica,sans-Serif" font-size="10.00">&#45;[KenshoLuaWrapper</text>
<text text-anchor="middle" x="461.5" y="-56.5" font-family="Helvetica,sans-Serif" font-size="10.00"> evaluate]</text>
</a>
</g>
</g>
<!-- Node4&#45;&gt;Node5 -->
<g id="edge4" class="edge"><title>Node4&#45;&gt;Node5</title>
<path fill="none" stroke="midnightblue" d="M381.518,-64.5C389.804,-64.5 398.435,-64.5 406.819,-64.5"/>
<polygon fill="midnightblue" stroke="midnightblue" points="381.252,-61.0001 371.252,-64.5 381.252,-68.0001 381.252,-61.0001"/>
</g>
<!-- Node6 -->
<g id="node6" class="node"><title>Node6</title>
<g id="a_node6"><a xlink:href="../../dc/de7/interface_kensho_lua_wrapper.html#af6db46358f8858a18b55388aa3af211d" target="_top" xlink:title="&#45;[KenshoLuaWrapper\l initWithKensho:context\l:code:]">
<polygon fill="none" stroke="black" points="552,-99 552,-140 666,-140 666,-99 552,-99"/>
<text text-anchor="start" x="560" y="-128" font-family="Helvetica,sans-Serif" font-size="10.00">&#45;[KenshoLuaWrapper</text>
<text text-anchor="start" x="560" y="-117" font-family="Helvetica,sans-Serif" font-size="10.00"> initWithKensho:context</text>
<text text-anchor="middle" x="609" y="-106" font-family="Helvetica,sans-Serif" font-size="10.00">:code:]</text>
</a>
</g>
</g>
<!-- Node5&#45;&gt;Node6 -->
<g id="edge5" class="edge"><title>Node5&#45;&gt;Node6</title>
<path fill="none" stroke="midnightblue" d="M511.799,-83.1353C525.233,-88.2134 539.861,-93.743 553.563,-98.9223"/>
<polygon fill="midnightblue" stroke="midnightblue" points="512.85,-79.791 502.259,-79.529 510.375,-86.3388 512.85,-79.791"/>
</g>
<!-- Node7 -->
<g id="node7" class="node"><title>Node7</title>
<g id="a_node7"><a xlink:href="../../dc/de7/interface_kensho_lua_wrapper.html#a5555e0979799446611baee70104555c6" target="_top" xlink:title="&#45;[KenshoLuaWrapper\l evaluate:]">
<polygon fill="none" stroke="black" points="554.5,-49.5 554.5,-79.5 663.5,-79.5 663.5,-49.5 554.5,-49.5"/>
<text text-anchor="start" x="562.5" y="-67.5" font-family="Helvetica,sans-Serif" font-size="10.00">&#45;[KenshoLuaWrapper</text>
<text text-anchor="middle" x="609" y="-56.5" font-family="Helvetica,sans-Serif" font-size="10.00"> evaluate:]</text>
</a>
</g>
</g>
<!-- Node5&#45;&gt;Node7 -->
<g id="edge6" class="edge"><title>Node5&#45;&gt;Node7</title>
<path fill="none" stroke="midnightblue" d="M526.339,-64.5C535.723,-64.5 545.307,-64.5 554.456,-64.5"/>
<polygon fill="midnightblue" stroke="midnightblue" points="526.265,-61.0001 516.265,-64.5 526.265,-68.0001 526.265,-61.0001"/>
</g>
<!-- Node10 -->
<g id="node10" class="node"><title>Node10</title>
<g id="a_node10"><a xlink:href="../../dc/de7/interface_kensho_lua_wrapper.html#a0bb5e125d727942726d707f8b59009dc" target="_top" xlink:title="&#45;[KenshoLuaWrapper\l observableUpdated:]">
<polygon fill="none" stroke="black" points="554.5,-0.5 554.5,-30.5 663.5,-30.5 663.5,-0.5 554.5,-0.5"/>
<text text-anchor="start" x="562.5" y="-18.5" font-family="Helvetica,sans-Serif" font-size="10.00">&#45;[KenshoLuaWrapper</text>
<text text-anchor="middle" x="609" y="-7.5" font-family="Helvetica,sans-Serif" font-size="10.00"> observableUpdated:]</text>
</a>
</g>
</g>
<!-- Node5&#45;&gt;Node10 -->
<g id="edge10" class="edge"><title>Node5&#45;&gt;Node10</title>
<path fill="none" stroke="midnightblue" d="M517.153,-46.0945C532.376,-40.9678 548.729,-35.4608 563.306,-30.5516"/>
<polygon fill="midnightblue" stroke="midnightblue" points="515.702,-42.89 507.342,-49.3986 517.936,-49.5239 515.702,-42.89"/>
</g>
<!-- Node8 -->
<g id="node8" class="node"><title>Node8</title>
<g id="a_node8"><a xlink:href="../../da/d0b/interface_kensho.html#a07b4d14db676108e1a94a1f10e100fb4" target="_top" xlink:title="&#45;[Kensho bindToView\l:context:]">
<polygon fill="none" stroke="black" points="702,-49.5 702,-79.5 810,-79.5 810,-49.5 702,-49.5"/>
<text text-anchor="start" x="710" y="-67.5" font-family="Helvetica,sans-Serif" font-size="10.00">&#45;[Kensho bindToView</text>
<text text-anchor="middle" x="756" y="-56.5" font-family="Helvetica,sans-Serif" font-size="10.00">:context:]</text>
</a>
</g>
</g>
<!-- Node7&#45;&gt;Node8 -->
<g id="edge7" class="edge"><title>Node7&#45;&gt;Node8</title>
<path fill="none" stroke="midnightblue" d="M673.62,-64.5C682.971,-64.5 692.523,-64.5 701.64,-64.5"/>
<polygon fill="midnightblue" stroke="midnightblue" points="673.581,-61.0001 663.581,-64.5 673.581,-68.0001 673.581,-61.0001"/>
</g>
<!-- Node8&#45;&gt;Node8 -->
<g id="edge9" class="edge"><title>Node8&#45;&gt;Node8</title>
<path fill="none" stroke="midnightblue" d="M730.058,-89.9579C733.277,-94.679 741.925,-98 756,-98 779.098,-98 787.579,-89.0566 781.444,-79.659"/>
<polygon fill="midnightblue" stroke="midnightblue" points="733.568,-89.8167 730.556,-79.659 726.577,-89.4779 733.568,-89.8167"/>
</g>
<!-- Node9 -->
<g id="node9" class="node"><title>Node9</title>
<g id="a_node9"><a xlink:href="../../da/d0b/interface_kensho.html#a1019e8223ee907bab87501ae483e609f" target="_top" xlink:title="&#45;[Kensho applyBindings\l:viewModel:]">
<polygon fill="none" stroke="black" points="846,-49.5 846,-79.5 965,-79.5 965,-49.5 846,-49.5"/>
<text text-anchor="start" x="854" y="-67.5" font-family="Helvetica,sans-Serif" font-size="10.00">&#45;[Kensho applyBindings</text>
<text text-anchor="middle" x="905.5" y="-56.5" font-family="Helvetica,sans-Serif" font-size="10.00">:viewModel:]</text>
</a>
</g>
</g>
<!-- Node8&#45;&gt;Node9 -->
<g id="edge8" class="edge"><title>Node8&#45;&gt;Node9</title>
<path fill="none" stroke="midnightblue" d="M820.421,-64.5C828.859,-64.5 837.481,-64.5 845.833,-64.5"/>
<polygon fill="midnightblue" stroke="midnightblue" points="820.251,-61.0001 810.251,-64.5 820.251,-68.0001 820.251,-61.0001"/>
</g>
<!-- Node11&#45;&gt;Node3 -->
<g id="edge12" class="edge"><title>Node11&#45;&gt;Node3</title>
<path fill="none" stroke="midnightblue" d="M290.232,-33.003C278.747,-33.3728 266.283,-33.3274 255.039,-32.8667"/>
<polygon fill="midnightblue" stroke="midnightblue" points="290.607,-36.4898 300.441,-32.5466 290.294,-29.4968 290.607,-36.4898"/>
</g>
</g>
</svg>
