<?xml version="1.0" encoding="UTF-8" standalone="no"?>
<!DOCTYPE svg PUBLIC "-//W3C//DTD SVG 1.1//EN"
 "http://www.w3.org/Graphics/SVG/1.1/DTD/svg11.dtd">
<!-- Generated by graphviz version 2.38.0 (20140413.2041)
 -->
<!-- Title: finishpcall Pages: 1 -->
<svg width="256pt" height="75pt"
 viewBox="0.00 0.00 256.00 75.00" xmlns="http://www.w3.org/2000/svg" xmlns:xlink="http://www.w3.org/1999/xlink">
<g id="graph0" class="graph" transform="scale(1 1) rotate(0) translate(4 71)">
<title>finishpcall</title>
<!-- Node1 -->
<g id="node1" class="node"><title>Node1</title>
<polygon fill="#bfbfbf" stroke="black" points="0,-28.5 0,-47.5 57,-47.5 57,-28.5 0,-28.5"/>
<text text-anchor="middle" x="28.5" y="-35.5" font-family="Helvetica,sans-Serif" font-size="10.00">finishpcall</text>
</g>
<!-- Node2 -->
<g id="node2" class="node"><title>Node2</title>
<g id="a_node2"><a xlink:href="../../d8/dd3/lbaselib_8c.html#a1fb2725eed679431d070b2e9e7abc223" target="_top" xlink:title="luaB_pcall">
<polygon fill="none" stroke="black" points="184.5,-47.5 184.5,-66.5 245.5,-66.5 245.5,-47.5 184.5,-47.5"/>
<text text-anchor="middle" x="215" y="-54.5" font-family="Helvetica,sans-Serif" font-size="10.00">luaB_pcall</text>
</a>
</g>
</g>
<!-- Node1&#45;&gt;Node2 -->
<g id="edge1" class="edge"><title>Node1&#45;&gt;Node2</title>
<path fill="none" stroke="midnightblue" d="M65.1397,-50.6389C74.1185,-53.2727 83.8175,-55.6557 93,-57 123.97,-61.534 159.879,-60.7902 184.486,-59.3763"/>
<polygon fill="midnightblue" stroke="midnightblue" points="65.9626,-47.2295 55.3743,-47.6007 63.8831,-53.9135 65.9626,-47.2295"/>
</g>
<!-- Node3 -->
<g id="node3" class="node"><title>Node3</title>
<g id="a_node3"><a xlink:href="../../d8/dd3/lbaselib_8c.html#a5fbb0094fa1a56f0a4c2547f1ec4c5ab" target="_top" xlink:title="luaB_xpcall">
<polygon fill="none" stroke="black" points="182,-0.5 182,-19.5 248,-19.5 248,-0.5 182,-0.5"/>
<text text-anchor="middle" x="215" y="-7.5" font-family="Helvetica,sans-Serif" font-size="10.00">luaB_xpcall</text>
</a>
</g>
</g>
<!-- Node1&#45;&gt;Node3 -->
<g id="edge2" class="edge"><title>Node1&#45;&gt;Node3</title>
<path fill="none" stroke="midnightblue" d="M66.4728,-25.472C75.0924,-22.9619 84.2972,-20.606 93,-19 122.83,-13.4951 157.386,-11.3356 181.914,-10.4996"/>
<polygon fill="midnightblue" stroke="midnightblue" points="65.2333,-22.1908 56.688,-28.454 67.274,-28.8867 65.2333,-22.1908"/>
</g>
<!-- Node4 -->
<g id="node4" class="node"><title>Node4</title>
<g id="a_node4"><a xlink:href="../../d8/dd3/lbaselib_8c.html#a5c3f578f609d0b87ba75dc1d32287262" target="_top" xlink:title="pcallcont">
<polygon fill="none" stroke="black" points="93,-28.5 93,-47.5 146,-47.5 146,-28.5 93,-28.5"/>
<text text-anchor="middle" x="119.5" y="-35.5" font-family="Helvetica,sans-Serif" font-size="10.00">pcallcont</text>
</a>
</g>
</g>
<!-- Node1&#45;&gt;Node4 -->
<g id="edge3" class="edge"><title>Node1&#45;&gt;Node4</title>
<path fill="none" stroke="midnightblue" d="M67.4303,-38C76.0502,-38 85.0063,-38 92.9664,-38"/>
<polygon fill="midnightblue" stroke="midnightblue" points="67.1723,-34.5001 57.1723,-38 67.1723,-41.5001 67.1723,-34.5001"/>
</g>
<!-- Node4&#45;&gt;Node2 -->
<g id="edge4" class="edge"><title>Node4&#45;&gt;Node2</title>
<path fill="none" stroke="midnightblue" d="M156.147,-45.2437C165.396,-47.1232 175.26,-49.1277 184.175,-50.9393"/>
<polygon fill="midnightblue" stroke="midnightblue" points="156.546,-41.7534 146.049,-43.1918 155.152,-48.6132 156.546,-41.7534"/>
</g>
<!-- Node4&#45;&gt;Node3 -->
<g id="edge5" class="edge"><title>Node4&#45;&gt;Node3</title>
<path fill="none" stroke="midnightblue" d="M155.854,-27.4127C164.488,-24.8272 173.673,-22.0764 182.133,-19.543"/>
<polygon fill="midnightblue" stroke="midnightblue" points="154.625,-24.1271 146.049,-30.3489 156.633,-30.8329 154.625,-24.1271"/>
</g>
</g>
</svg>
