<?xml version="1.0" encoding="UTF-8" standalone="no"?>
<!DOCTYPE svg PUBLIC "-//W3C//DTD SVG 1.1//EN"
 "http://www.w3.org/Graphics/SVG/1.1/DTD/svg11.dtd">
<!-- Generated by graphviz version 2.38.0 (20140413.2041)
 -->
<!-- Title: pairsmeta Pages: 1 -->
<svg width="167pt" height="66pt"
 viewBox="0.00 0.00 167.00 66.00" xmlns="http://www.w3.org/2000/svg" xmlns:xlink="http://www.w3.org/1999/xlink">
<g id="graph0" class="graph" transform="scale(1 1) rotate(0) translate(4 62)">
<title>pairsmeta</title>
<!-- Node1 -->
<g id="node1" class="node"><title>Node1</title>
<polygon fill="#bfbfbf" stroke="black" points="0,-19.5 0,-38.5 59,-38.5 59,-19.5 0,-19.5"/>
<text text-anchor="middle" x="29.5" y="-26.5" font-family="Helvetica,sans-Serif" font-size="10.00">pairsmeta</text>
</g>
<!-- Node2 -->
<g id="node2" class="node"><title>Node2</title>
<g id="a_node2"><a xlink:href="../../d8/dd3/lbaselib_8c.html#a5cb8b3b13437afd94c3313f0a4b17d06" target="_top" xlink:title="luaB_ipairs">
<polygon fill="none" stroke="black" points="95,-38.5 95,-57.5 159,-57.5 159,-38.5 95,-38.5"/>
<text text-anchor="middle" x="127" y="-45.5" font-family="Helvetica,sans-Serif" font-size="10.00">luaB_ipairs</text>
</a>
</g>
</g>
<!-- Node1&#45;&gt;Node2 -->
<g id="edge1" class="edge"><title>Node1&#45;&gt;Node2</title>
<path fill="none" stroke="midnightblue" d="M69.2186,-36.7032C77.6924,-38.3891 86.56,-40.1533 94.7008,-41.7729"/>
<polygon fill="midnightblue" stroke="midnightblue" points="69.6439,-33.2193 59.1531,-34.7006 68.278,-40.0847 69.6439,-33.2193"/>
</g>
<!-- Node3 -->
<g id="node3" class="node"><title>Node3</title>
<g id="a_node3"><a xlink:href="../../d8/dd3/lbaselib_8c.html#a36def102f87ba8c40734489231e90109" target="_top" xlink:title="luaB_pairs">
<polygon fill="none" stroke="black" points="96,-0.5 96,-19.5 158,-19.5 158,-0.5 96,-0.5"/>
<text text-anchor="middle" x="127" y="-7.5" font-family="Helvetica,sans-Serif" font-size="10.00">luaB_pairs</text>
</a>
</g>
</g>
<!-- Node1&#45;&gt;Node3 -->
<g id="edge2" class="edge"><title>Node1&#45;&gt;Node3</title>
<path fill="none" stroke="midnightblue" d="M69.2351,-21.2935C78.0544,-19.5389 87.2996,-17.6996 95.7074,-16.0268"/>
<polygon fill="midnightblue" stroke="midnightblue" points="68.278,-17.9153 59.1531,-23.2994 69.6439,-24.7807 68.278,-17.9153"/>
</g>
</g>
</svg>
