<?xml version="1.0" encoding="UTF-8" standalone="no"?>
<!DOCTYPE svg PUBLIC "-//W3C//DTD SVG 1.1//EN"
 "http://www.w3.org/Graphics/SVG/1.1/DTD/svg11.dtd">
<!-- Generated by graphviz version 2.38.0 (20140413.2041)
 -->
<!-- Title: luaH_set Pages: 1 -->
<svg width="906pt" height="826pt"
 viewBox="0.00 0.00 906.00 826.00" xmlns="http://www.w3.org/2000/svg" xmlns:xlink="http://www.w3.org/1999/xlink">
<g id="graph0" class="graph" transform="scale(1 1) rotate(0) translate(4 822)">
<title>luaH_set</title>
<!-- Node1 -->
<g id="node1" class="node"><title>Node1</title>
<polygon fill="#bfbfbf" stroke="black" points="0,-304.5 0,-323.5 54,-323.5 54,-304.5 0,-304.5"/>
<text text-anchor="middle" x="27" y="-311.5" font-family="Helvetica,sans-Serif" font-size="10.00">luaH_set</text>
</g>
<!-- Node2 -->
<g id="node2" class="node"><title>Node2</title>
<g id="a_node2"><a xlink:href="../../d8/d7a/lcode_8c.html#ada05641e97457834344a5b3d2187bd45" target="_top" xlink:title="addk">
<polygon fill="none" stroke="black" points="111.5,-722.5 111.5,-741.5 149.5,-741.5 149.5,-722.5 111.5,-722.5"/>
<text text-anchor="middle" x="130.5" y="-729.5" font-family="Helvetica,sans-Serif" font-size="10.00">addk</text>
</a>
</g>
</g>
<!-- Node1&#45;&gt;Node2 -->
<g id="edge1" class="edge"><title>Node1&#45;&gt;Node2</title>
<path fill="none" stroke="midnightblue" d="M30.3484,-333.658C36.7359,-384.581 56.2453,-524.642 90,-637 99.6617,-669.16 116.435,-705.319 124.665,-722.26"/>
<polygon fill="midnightblue" stroke="midnightblue" points="33.8165,-333.183 29.1238,-323.685 26.8687,-334.037 33.8165,-333.183"/>
</g>
<!-- Node13 -->
<g id="node13" class="node"><title>Node13</title>
<g id="a_node13"><a xlink:href="../../da/dd2/lua_8h.html#a3db5cd3ce7ae703c39d54495be44aafc" target="_top" xlink:title="lua_rawset">
<polygon fill="none" stroke="black" points="98.5,-608.5 98.5,-627.5 162.5,-627.5 162.5,-608.5 98.5,-608.5"/>
<text text-anchor="middle" x="130.5" y="-615.5" font-family="Helvetica,sans-Serif" font-size="10.00">lua_rawset</text>
</a>
</g>
</g>
<!-- Node1&#45;&gt;Node13 -->
<g id="edge14" class="edge"><title>Node1&#45;&gt;Node13</title>
<path fill="none" stroke="midnightblue" d="M34.4397,-333.287C53.9624,-391.759 112.021,-565.65 126.301,-608.418"/>
<polygon fill="midnightblue" stroke="midnightblue" points="37.749,-332.147 31.2621,-323.77 31.1093,-334.364 37.749,-332.147"/>
</g>
<!-- Node16 -->
<g id="node16" class="node"><title>Node16</title>
<g id="a_node16"><a xlink:href="../../da/dd2/lua_8h.html#ab919ec94612961d8ca6eebaddd43c5f6" target="_top" xlink:title="lua_rawsetp">
<polygon fill="none" stroke="black" points="95.5,-266.5 95.5,-285.5 165.5,-285.5 165.5,-266.5 95.5,-266.5"/>
<text text-anchor="middle" x="130.5" y="-273.5" font-family="Helvetica,sans-Serif" font-size="10.00">lua_rawsetp</text>
</a>
</g>
</g>
<!-- Node1&#45;&gt;Node16 -->
<g id="edge17" class="edge"><title>Node1&#45;&gt;Node16</title>
<path fill="none" stroke="midnightblue" d="M63.0389,-300.882C76.4634,-295.856 91.5152,-290.221 103.895,-285.586"/>
<polygon fill="midnightblue" stroke="midnightblue" points="61.7507,-297.627 53.6127,-304.411 64.2051,-304.183 61.7507,-297.627"/>
</g>
<!-- Node17 -->
<g id="node17" class="node"><title>Node17</title>
<g id="a_node17"><a xlink:href="../../d3/d44/ltable_8h.html#a61547e63b2d74aa68da53a7fd235e77e" target="_top" xlink:title="luaH_newkey">
<polygon fill="none" stroke="black" points="93,-304.5 93,-323.5 168,-323.5 168,-304.5 93,-304.5"/>
<text text-anchor="middle" x="130.5" y="-311.5" font-family="Helvetica,sans-Serif" font-size="10.00">luaH_newkey</text>
</a>
</g>
</g>
<!-- Node1&#45;&gt;Node17 -->
<g id="edge18" class="edge"><title>Node1&#45;&gt;Node17</title>
<path fill="none" stroke="midnightblue" d="M64.2224,-307.502C73.4842,-307.172 83.451,-307.166 92.7396,-307.483"/>
<polygon fill="midnightblue" stroke="midnightblue" points="63.9493,-304.011 54.1388,-308.012 64.3027,-311.002 63.9493,-304.011"/>
</g>
<!-- Node26 -->
<g id="node26" class="node"><title>Node26</title>
<g id="a_node26"><a xlink:href="../../d3/d44/ltable_8h.html#a049d7e871507502646f7130e252765b1" target="_top" xlink:title="luaH_resize">
<polygon fill="none" stroke="black" points="348,-304.5 348,-323.5 414,-323.5 414,-304.5 348,-304.5"/>
<text text-anchor="middle" x="381" y="-311.5" font-family="Helvetica,sans-Serif" font-size="10.00">luaH_resize</text>
</a>
</g>
</g>
<!-- Node1&#45;&gt;Node26 -->
<g id="edge60" class="edge"><title>Node1&#45;&gt;Node26</title>
<path fill="none" stroke="midnightblue" d="M62.7786,-326.638C71.5458,-329.272 81.0208,-331.655 90,-333 184.501,-347.155 210.179,-344.824 305,-333 319.928,-331.138 336.15,-327.269 349.676,-323.505"/>
<polygon fill="midnightblue" stroke="midnightblue" points="63.8357,-323.301 53.2451,-323.6 61.7102,-329.971 63.8357,-323.301"/>
</g>
<!-- Node42 -->
<g id="node42" class="node"><title>Node42</title>
<g id="a_node42"><a xlink:href="../../d8/d27/llex_8h.html#aa6e79179f823cf156f61899a09239ca6" target="_top" xlink:title="luaX_newstring">
<polygon fill="none" stroke="black" points="90,-95.5 90,-114.5 171,-114.5 171,-95.5 90,-95.5"/>
<text text-anchor="middle" x="130.5" y="-102.5" font-family="Helvetica,sans-Serif" font-size="10.00">luaX_newstring</text>
</a>
</g>
</g>
<!-- Node1&#45;&gt;Node42 -->
<g id="edge61" class="edge"><title>Node1&#45;&gt;Node42</title>
<path fill="none" stroke="midnightblue" d="M37.041,-295.384C57.9688,-252.291 109.153,-146.897 124.848,-114.579"/>
<polygon fill="midnightblue" stroke="midnightblue" points="33.8452,-293.952 32.625,-304.477 40.142,-297.01 33.8452,-293.952"/>
</g>
<!-- Node3 -->
<g id="node3" class="node"><title>Node3</title>
<g id="a_node3"><a xlink:href="../../d8/d7a/lcode_8c.html#afe7f77e67582f1b7dee6148f19627c43" target="_top" xlink:title="boolK">
<polygon fill="none" stroke="black" points="235.5,-798.5 235.5,-817.5 276.5,-817.5 276.5,-798.5 235.5,-798.5"/>
<text text-anchor="middle" x="256" y="-805.5" font-family="Helvetica,sans-Serif" font-size="10.00">boolK</text>
</a>
</g>
</g>
<!-- Node2&#45;&gt;Node3 -->
<g id="edge2" class="edge"><title>Node2&#45;&gt;Node3</title>
<path fill="none" stroke="midnightblue" d="M150.436,-748.589C165.134,-760.881 186.412,-777.435 207,-789 215.908,-794.004 226.401,-798.319 235.301,-801.566"/>
<polygon fill="midnightblue" stroke="midnightblue" points="152.48,-745.733 142.597,-741.915 147.942,-751.063 152.48,-745.733"/>
</g>
<!-- Node7 -->
<g id="node7" class="node"><title>Node7</title>
<g id="a_node7"><a xlink:href="../../dd/d05/lcode_8h.html#a4f928250a0f4007764b4d3777651f617" target="_top" xlink:title="luaK_numberK">
<polygon fill="none" stroke="black" points="216,-722.5 216,-741.5 296,-741.5 296,-722.5 216,-722.5"/>
<text text-anchor="middle" x="256" y="-729.5" font-family="Helvetica,sans-Serif" font-size="10.00">luaK_numberK</text>
</a>
</g>
</g>
<!-- Node2&#45;&gt;Node7 -->
<g id="edge6" class="edge"><title>Node2&#45;&gt;Node7</title>
<path fill="none" stroke="midnightblue" d="M159.874,-732C176.448,-732 197.607,-732 215.759,-732"/>
<polygon fill="midnightblue" stroke="midnightblue" points="159.723,-728.5 149.723,-732 159.723,-735.5 159.723,-728.5"/>
</g>
<!-- Node10 -->
<g id="node10" class="node"><title>Node10</title>
<g id="a_node10"><a xlink:href="../../dd/d05/lcode_8h.html#a50f2df3faaeae1b08794bdefbec7220e" target="_top" xlink:title="luaK_stringK">
<polygon fill="none" stroke="black" points="221,-684.5 221,-703.5 291,-703.5 291,-684.5 221,-684.5"/>
<text text-anchor="middle" x="256" y="-691.5" font-family="Helvetica,sans-Serif" font-size="10.00">luaK_stringK</text>
</a>
</g>
</g>
<!-- Node2&#45;&gt;Node10 -->
<g id="edge10" class="edge"><title>Node2&#45;&gt;Node10</title>
<path fill="none" stroke="midnightblue" d="M159.364,-723.427C178.503,-717.537 203.935,-709.712 223.761,-703.612"/>
<polygon fill="midnightblue" stroke="midnightblue" points="158.251,-720.107 149.723,-726.393 160.31,-726.797 158.251,-720.107"/>
</g>
<!-- Node12 -->
<g id="node12" class="node"><title>Node12</title>
<g id="a_node12"><a xlink:href="../../d8/d7a/lcode_8c.html#a96b95ed8f53ee7aba7c6e81a27df6d63" target="_top" xlink:title="nilK">
<polygon fill="none" stroke="black" points="240,-760.5 240,-779.5 272,-779.5 272,-760.5 240,-760.5"/>
<text text-anchor="middle" x="256" y="-767.5" font-family="Helvetica,sans-Serif" font-size="10.00">nilK</text>
</a>
</g>
</g>
<!-- Node2&#45;&gt;Node12 -->
<g id="edge12" class="edge"><title>Node2&#45;&gt;Node12</title>
<path fill="none" stroke="midnightblue" d="M159.34,-740.566C184.242,-748.228 219.81,-759.172 239.818,-765.329"/>
<polygon fill="midnightblue" stroke="midnightblue" points="160.31,-737.203 149.723,-737.607 158.251,-743.893 160.31,-737.203"/>
</g>
<!-- Node4 -->
<g id="node4" class="node"><title>Node4</title>
<g id="a_node4"><a xlink:href="../../dd/d05/lcode_8h.html#a28ef529fcd27c07fb222181894abdf7e" target="_top" xlink:title="luaK_exp2RK">
<polygon fill="none" stroke="red" points="342.5,-779.5 342.5,-798.5 419.5,-798.5 419.5,-779.5 342.5,-779.5"/>
<text text-anchor="middle" x="381" y="-786.5" font-family="Helvetica,sans-Serif" font-size="10.00">luaK_exp2RK</text>
</a>
</g>
</g>
<!-- Node3&#45;&gt;Node4 -->
<g id="edge3" class="edge"><title>Node3&#45;&gt;Node4</title>
<path fill="none" stroke="midnightblue" d="M287.044,-803.359C303.735,-800.781 324.656,-797.549 342.422,-794.805"/>
<polygon fill="midnightblue" stroke="midnightblue" points="286.111,-799.962 276.762,-804.947 287.179,-806.88 286.111,-799.962"/>
</g>
<!-- Node5 -->
<g id="node5" class="node"><title>Node5</title>
<g id="a_node5"><a xlink:href="../../d8/d7a/lcode_8c.html#a55b6d764174667a121836a2a9890d088" target="_top" xlink:title="codearith">
<polygon fill="none" stroke="red" points="474,-798.5 474,-817.5 528,-817.5 528,-798.5 474,-798.5"/>
<text text-anchor="middle" x="501" y="-805.5" font-family="Helvetica,sans-Serif" font-size="10.00">codearith</text>
</a>
</g>
</g>
<!-- Node4&#45;&gt;Node5 -->
<g id="edge4" class="edge"><title>Node4&#45;&gt;Node5</title>
<path fill="none" stroke="midnightblue" d="M429.861,-796.707C444.9,-799.128 460.941,-801.711 473.882,-803.795"/>
<polygon fill="midnightblue" stroke="midnightblue" points="430.09,-793.198 419.66,-795.064 428.977,-800.109 430.09,-793.198"/>
</g>
<!-- Node6 -->
<g id="node6" class="node"><title>Node6</title>
<g id="a_node6"><a xlink:href="../../d8/d7a/lcode_8c.html#a417a1f87ef6252d7aba96f1f8ab3bfe4" target="_top" xlink:title="codecomp">
<polygon fill="none" stroke="red" points="471,-760.5 471,-779.5 531,-779.5 531,-760.5 471,-760.5"/>
<text text-anchor="middle" x="501" y="-767.5" font-family="Helvetica,sans-Serif" font-size="10.00">codecomp</text>
</a>
</g>
</g>
<!-- Node4&#45;&gt;Node6 -->
<g id="edge5" class="edge"><title>Node4&#45;&gt;Node6</title>
<path fill="none" stroke="midnightblue" d="M429.633,-781.33C443.608,-779.08 458.468,-776.687 470.913,-774.683"/>
<polygon fill="midnightblue" stroke="midnightblue" points="428.977,-777.891 419.66,-782.936 430.09,-784.802 428.977,-777.891"/>
</g>
<!-- Node7&#45;&gt;Node4 -->
<g id="edge9" class="edge"><title>Node7&#45;&gt;Node4</title>
<path fill="none" stroke="midnightblue" d="M292.088,-745.376C296.466,-747.195 300.858,-749.094 305,-751 321.435,-758.563 324.866,-761.815 341,-770 347.179,-773.135 353.954,-776.47 360.098,-779.458"/>
<polygon fill="midnightblue" stroke="midnightblue" points="293.21,-742.054 282.627,-741.549 290.585,-748.543 293.21,-742.054"/>
</g>
<!-- Node8 -->
<g id="node8" class="node"><title>Node8</title>
<g id="a_node8"><a xlink:href="../../d8/d7a/lcode_8c.html#a961993a449bc9612ac966652646ffad6" target="_top" xlink:title="discharge2reg">
<polygon fill="none" stroke="red" points="343.5,-741.5 343.5,-760.5 418.5,-760.5 418.5,-741.5 343.5,-741.5"/>
<text text-anchor="middle" x="381" y="-748.5" font-family="Helvetica,sans-Serif" font-size="10.00">discharge2reg</text>
</a>
</g>
</g>
<!-- Node7&#45;&gt;Node8 -->
<g id="edge7" class="edge"><title>Node7&#45;&gt;Node8</title>
<path fill="none" stroke="midnightblue" d="M306.379,-739.628C318.673,-741.527 331.639,-743.53 343.207,-745.316"/>
<polygon fill="midnightblue" stroke="midnightblue" points="306.673,-736.132 296.256,-738.064 305.605,-743.05 306.673,-736.132"/>
</g>
<!-- Node9 -->
<g id="node9" class="node"><title>Node9</title>
<g id="a_node9"><a xlink:href="../../d8/d9c/lparser_8c.html#a18532c1a3a900cb8f3399b470c00daf0" target="_top" xlink:title="fornum">
<polygon fill="none" stroke="red" points="359,-703.5 359,-722.5 403,-722.5 403,-703.5 359,-703.5"/>
<text text-anchor="middle" x="381" y="-710.5" font-family="Helvetica,sans-Serif" font-size="10.00">fornum</text>
</a>
</g>
</g>
<!-- Node7&#45;&gt;Node9 -->
<g id="edge8" class="edge"><title>Node7&#45;&gt;Node9</title>
<path fill="none" stroke="midnightblue" d="M306.255,-724.392C324.613,-721.556 344.487,-718.486 358.973,-716.248"/>
<polygon fill="midnightblue" stroke="midnightblue" points="305.605,-720.95 296.256,-725.936 306.673,-727.868 305.605,-720.95"/>
</g>
<!-- Node11 -->
<g id="node11" class="node"><title>Node11</title>
<g id="a_node11"><a xlink:href="../../d8/d9c/lparser_8c.html#ab6f2e4f6f77d6d44088f6af7a8e98f27" target="_top" xlink:title="codestring">
<polygon fill="none" stroke="red" points="351.5,-665.5 351.5,-684.5 410.5,-684.5 410.5,-665.5 351.5,-665.5"/>
<text text-anchor="middle" x="381" y="-672.5" font-family="Helvetica,sans-Serif" font-size="10.00">codestring</text>
</a>
</g>
</g>
<!-- Node10&#45;&gt;Node11 -->
<g id="edge11" class="edge"><title>Node10&#45;&gt;Node11</title>
<path fill="none" stroke="midnightblue" d="M301.345,-687.15C317.994,-684.578 336.467,-681.725 351.324,-679.43"/>
<polygon fill="midnightblue" stroke="midnightblue" points="300.611,-683.722 291.262,-688.707 301.679,-690.64 300.611,-683.722"/>
</g>
<!-- Node12&#45;&gt;Node4 -->
<g id="edge13" class="edge"><title>Node12&#45;&gt;Node4</title>
<path fill="none" stroke="midnightblue" d="M282.006,-773.863C299.345,-776.541 322.747,-780.156 342.333,-783.182"/>
<polygon fill="midnightblue" stroke="midnightblue" points="282.499,-770.397 272.082,-772.33 281.431,-777.315 282.499,-770.397"/>
</g>
<!-- Node14 -->
<g id="node14" class="node"><title>Node14</title>
<g id="a_node14"><a xlink:href="../../d8/dd3/lbaselib_8c.html#a7b7225051c25127792f30eadd3498cc3" target="_top" xlink:title="luaB_rawset">
<polygon fill="none" stroke="black" points="220.5,-646.5 220.5,-665.5 291.5,-665.5 291.5,-646.5 220.5,-646.5"/>
<text text-anchor="middle" x="256" y="-653.5" font-family="Helvetica,sans-Serif" font-size="10.00">luaB_rawset</text>
</a>
</g>
</g>
<!-- Node13&#45;&gt;Node14 -->
<g id="edge15" class="edge"><title>Node13&#45;&gt;Node14</title>
<path fill="none" stroke="midnightblue" d="M172.24,-630.535C189.04,-635.705 208.197,-641.599 223.846,-646.414"/>
<polygon fill="midnightblue" stroke="midnightblue" points="173.251,-627.185 162.664,-627.589 171.193,-633.875 173.251,-627.185"/>
</g>
<!-- Node15 -->
<g id="node15" class="node"><title>Node15</title>
<g id="a_node15"><a xlink:href="../../d8/d97/ldblib_8c.html#aa0c362d361f8f9bd8a002c34c393e2b0" target="_top" xlink:title="db_sethook">
<polygon fill="none" stroke="black" points="600,-646.5 600,-665.5 666,-665.5 666,-646.5 600,-646.5"/>
<text text-anchor="middle" x="633" y="-653.5" font-family="Helvetica,sans-Serif" font-size="10.00">db_sethook</text>
</a>
</g>
</g>
<!-- Node13&#45;&gt;Node15 -->
<g id="edge16" class="edge"><title>Node13&#45;&gt;Node15</title>
<path fill="none" stroke="midnightblue" d="M172.859,-621.14C270.209,-628.531 512.183,-646.903 599.734,-653.55"/>
<polygon fill="midnightblue" stroke="midnightblue" points="173.045,-617.644 162.809,-620.377 172.515,-624.624 173.045,-617.644"/>
</g>
<!-- Node17&#45;&gt;Node1 -->
<g id="edge19" class="edge"><title>Node17&#45;&gt;Node1</title>
<path fill="none" stroke="midnightblue" d="M82.6574,-320.732C72.8553,-320.822 62.8577,-320.574 54.1388,-319.988"/>
<polygon fill="midnightblue" stroke="midnightblue" points="82.8167,-324.23 92.7396,-320.517 82.667,-317.231 82.8167,-324.23"/>
</g>
<!-- Node18 -->
<g id="node18" class="node"><title>Node18</title>
<g id="a_node18"><a xlink:href="../../d3/d44/ltable_8h.html#a46a24d0091a037ca02d148e1ebdeafb9" target="_top" xlink:title="luaH_setint">
<polygon fill="none" stroke="black" points="224.5,-304.5 224.5,-323.5 287.5,-323.5 287.5,-304.5 224.5,-304.5"/>
<text text-anchor="middle" x="256" y="-311.5" font-family="Helvetica,sans-Serif" font-size="10.00">luaH_setint</text>
</a>
</g>
</g>
<!-- Node17&#45;&gt;Node18 -->
<g id="edge20" class="edge"><title>Node17&#45;&gt;Node18</title>
<path fill="none" stroke="midnightblue" d="M178.605,-314C193.975,-314 210.63,-314 224.455,-314"/>
<polygon fill="midnightblue" stroke="midnightblue" points="178.22,-310.5 168.22,-314 178.22,-317.5 178.22,-310.5"/>
</g>
<!-- Node38 -->
<g id="node38" class="node"><title>Node38</title>
<g id="a_node38"><a xlink:href="../../d5/dcd/lvm_8h.html#a5885d48fd66eb236f8b8f6e4938cbcce" target="_top" xlink:title="luaV_settable">
<polygon fill="none" stroke="black" points="343.5,-418.5 343.5,-437.5 418.5,-437.5 418.5,-418.5 343.5,-418.5"/>
<text text-anchor="middle" x="381" y="-425.5" font-family="Helvetica,sans-Serif" font-size="10.00">luaV_settable</text>
</a>
</g>
</g>
<!-- Node17&#45;&gt;Node38 -->
<g id="edge49" class="edge"><title>Node17&#45;&gt;Node38</title>
<path fill="none" stroke="midnightblue" d="M161.457,-327.743C212.501,-351.159 315.078,-398.217 359.125,-418.423"/>
<polygon fill="midnightblue" stroke="midnightblue" points="162.808,-324.512 152.26,-323.523 159.889,-330.874 162.808,-324.512"/>
</g>
<!-- Node19 -->
<g id="node19" class="node"><title>Node19</title>
<g id="a_node19"><a xlink:href="../../da/dd2/lua_8h.html#a32f51f8a97b4f005f7a3c378dcf71df2" target="_top" xlink:title="lua_rawseti">
<polygon fill="none" stroke="red" points="468.5,-570.5 468.5,-589.5 533.5,-589.5 533.5,-570.5 468.5,-570.5"/>
<text text-anchor="middle" x="501" y="-577.5" font-family="Helvetica,sans-Serif" font-size="10.00">lua_rawseti</text>
</a>
</g>
</g>
<!-- Node18&#45;&gt;Node19 -->
<g id="edge21" class="edge"><title>Node18&#45;&gt;Node19</title>
<path fill="none" stroke="midnightblue" d="M266.869,-332.479C281.433,-359.02 310.291,-408.924 341,-447 386.379,-503.265 397.194,-520.401 457,-561 462.267,-564.576 468.316,-567.736 474.182,-570.403"/>
<polygon fill="midnightblue" stroke="midnightblue" points="269.857,-330.647 262.013,-323.525 263.703,-333.984 269.857,-330.647"/>
</g>
<!-- Node23 -->
<g id="node23" class="node"><title>Node23</title>
<g id="a_node23"><a xlink:href="../../d6/ddf/ldebug_8c.html#a6e3195fc94af1f75142c2801ca8cf058" target="_top" xlink:title="collectvalidlines">
<polygon fill="none" stroke="red" points="341,-266.5 341,-285.5 421,-285.5 421,-266.5 341,-266.5"/>
<text text-anchor="middle" x="381" y="-273.5" font-family="Helvetica,sans-Serif" font-size="10.00">collectvalidlines</text>
</a>
</g>
</g>
<!-- Node18&#45;&gt;Node23 -->
<g id="edge25" class="edge"><title>Node18&#45;&gt;Node23</title>
<path fill="none" stroke="midnightblue" d="M297.338,-301.538C314.225,-296.321 333.536,-290.355 349.245,-285.502"/>
<polygon fill="midnightblue" stroke="midnightblue" points="296.242,-298.213 287.721,-304.509 298.308,-304.901 296.242,-298.213"/>
</g>
<!-- Node24 -->
<g id="node24" class="node"><title>Node24</title>
<g id="a_node24"><a xlink:href="../../dd/dca/lstate_8c.html#a3f769cc49eb8309417a7cbef2b4d2d8b" target="_top" xlink:title="init_registry">
<polygon fill="none" stroke="black" points="470,-228.5 470,-247.5 532,-247.5 532,-228.5 470,-228.5"/>
<text text-anchor="middle" x="501" y="-235.5" font-family="Helvetica,sans-Serif" font-size="10.00">init_registry</text>
</a>
</g>
</g>
<!-- Node18&#45;&gt;Node24 -->
<g id="edge26" class="edge"><title>Node18&#45;&gt;Node24</title>
<path fill="none" stroke="midnightblue" d="M275.481,-297.584C291.592,-284.277 316.205,-266.264 341,-257 383.709,-241.043 436.951,-237.733 469.702,-237.415"/>
<polygon fill="midnightblue" stroke="midnightblue" points="272.808,-295.263 267.458,-304.408 277.343,-300.595 272.808,-295.263"/>
</g>
<!-- Node18&#45;&gt;Node26 -->
<g id="edge28" class="edge"><title>Node18&#45;&gt;Node26</title>
<path fill="none" stroke="midnightblue" d="M298.039,-314C314.296,-314 332.707,-314 347.955,-314"/>
<polygon fill="midnightblue" stroke="midnightblue" points="297.721,-310.5 287.721,-314 297.721,-317.5 297.721,-310.5"/>
</g>
<!-- Node33 -->
<g id="node33" class="node"><title>Node33</title>
<g id="a_node33"><a xlink:href="../../d5/dcd/lvm_8h.html#ae93565adc36c6e2157dbbd875433ede1" target="_top" xlink:title="luaV_execute">
<polygon fill="none" stroke="black" points="596,-304.5 596,-323.5 670,-323.5 670,-304.5 596,-304.5"/>
<text text-anchor="middle" x="633" y="-311.5" font-family="Helvetica,sans-Serif" font-size="10.00">luaV_execute</text>
</a>
</g>
</g>
<!-- Node18&#45;&gt;Node33 -->
<g id="edge48" class="edge"><title>Node18&#45;&gt;Node33</title>
<path fill="none" stroke="midnightblue" d="M297.865,-325.159C311.476,-328.361 326.791,-331.413 341,-333 431.134,-343.067 454.759,-337.048 545,-328 561.744,-326.321 580.162,-323.5 595.723,-320.829"/>
<polygon fill="midnightblue" stroke="midnightblue" points="298.381,-321.682 287.835,-322.703 296.716,-328.481 298.381,-321.682"/>
</g>
<!-- Node20 -->
<g id="node20" class="node"><title>Node20</title>
<g id="a_node20"><a xlink:href="../../d2/d82/loadlib_8c.html#a8fc66c8b852ee2960dc20797521d1d9e" target="_top" xlink:title="createsearcherstable">
<polygon fill="none" stroke="black" points="581,-608.5 581,-627.5 685,-627.5 685,-608.5 581,-608.5"/>
<text text-anchor="middle" x="633" y="-615.5" font-family="Helvetica,sans-Serif" font-size="10.00">createsearcherstable</text>
</a>
</g>
</g>
<!-- Node19&#45;&gt;Node20 -->
<g id="edge22" class="edge"><title>Node19&#45;&gt;Node20</title>
<path fill="none" stroke="midnightblue" d="M543.475,-592.123C561.478,-597.386 582.264,-603.462 599.169,-608.403"/>
<polygon fill="midnightblue" stroke="midnightblue" points="544.382,-588.742 533.802,-589.296 542.418,-595.461 544.382,-588.742"/>
</g>
<!-- Node22 -->
<g id="node22" class="node"><title>Node22</title>
<g id="a_node22"><a xlink:href="../../d0/da1/ltablib_8c.html#a46a372295cbd1692b06bdbac4ca58881" target="_top" xlink:title="pack">
<polygon fill="none" stroke="black" points="614,-532.5 614,-551.5 652,-551.5 652,-532.5 614,-532.5"/>
<text text-anchor="middle" x="633" y="-539.5" font-family="Helvetica,sans-Serif" font-size="10.00">pack</text>
</a>
</g>
</g>
<!-- Node19&#45;&gt;Node22 -->
<g id="edge24" class="edge"><title>Node19&#45;&gt;Node22</title>
<path fill="none" stroke="midnightblue" d="M543.596,-567.841C567.233,-560.932 595.635,-552.63 613.75,-547.335"/>
<polygon fill="midnightblue" stroke="midnightblue" points="542.418,-564.539 533.802,-570.704 544.382,-571.258 542.418,-564.539"/>
</g>
<!-- Node21 -->
<g id="node21" class="node"><title>Node21</title>
<g id="a_node21"><a xlink:href="../../d6/d07/lualib_8h.html#a05e0befc0439f926b6152129ab4f8dea" target="_top" xlink:title="luaopen_package">
<polygon fill="none" stroke="black" points="721,-570.5 721,-589.5 815,-589.5 815,-570.5 721,-570.5"/>
<text text-anchor="middle" x="768" y="-577.5" font-family="Helvetica,sans-Serif" font-size="10.00">luaopen_package</text>
</a>
</g>
</g>
<!-- Node20&#45;&gt;Node21 -->
<g id="edge23" class="edge"><title>Node20&#45;&gt;Node21</title>
<path fill="none" stroke="midnightblue" d="M677.367,-605.609C695.581,-600.406 716.439,-594.446 733.449,-589.586"/>
<polygon fill="midnightblue" stroke="midnightblue" points="676.215,-602.298 667.562,-608.411 678.138,-609.029 676.215,-602.298"/>
</g>
<!-- Node25 -->
<g id="node25" class="node"><title>Node25</title>
<g id="a_node25"><a xlink:href="../../dd/dca/lstate_8c.html#ab65e96a7498fd886f7223b92e91fd830" target="_top" xlink:title="f_luaopen">
<polygon fill="none" stroke="red" points="603.5,-228.5 603.5,-247.5 662.5,-247.5 662.5,-228.5 603.5,-228.5"/>
<text text-anchor="middle" x="633" y="-235.5" font-family="Helvetica,sans-Serif" font-size="10.00">f_luaopen</text>
</a>
</g>
</g>
<!-- Node24&#45;&gt;Node25 -->
<g id="edge27" class="edge"><title>Node24&#45;&gt;Node25</title>
<path fill="none" stroke="midnightblue" d="M542.404,-238C562.155,-238 585.46,-238 603.35,-238"/>
<polygon fill="midnightblue" stroke="midnightblue" points="542.151,-234.5 532.151,-238 542.151,-241.5 542.151,-234.5"/>
</g>
<!-- Node26&#45;&gt;Node24 -->
<g id="edge29" class="edge"><title>Node26&#45;&gt;Node24</title>
<path fill="none" stroke="midnightblue" d="M414.009,-299.605C416.439,-298.153 418.799,-296.615 421,-295 439.759,-281.24 437.988,-270.408 457,-257 462.069,-253.425 467.918,-250.298 473.637,-247.668"/>
<polygon fill="midnightblue" stroke="midnightblue" points="412.184,-296.613 405.066,-304.46 415.524,-302.765 412.184,-296.613"/>
</g>
<!-- Node27 -->
<g id="node27" class="node"><title>Node27</title>
<g id="a_node27"><a xlink:href="../../da/dd2/lua_8h.html#a022ddaeee46ccb89860c78480e54db05" target="_top" xlink:title="lua_createtable">
<polygon fill="none" stroke="black" points="460.5,-456.5 460.5,-475.5 541.5,-475.5 541.5,-456.5 460.5,-456.5"/>
<text text-anchor="middle" x="501" y="-463.5" font-family="Helvetica,sans-Serif" font-size="10.00">lua_createtable</text>
</a>
</g>
</g>
<!-- Node26&#45;&gt;Node27 -->
<g id="edge30" class="edge"><title>Node26&#45;&gt;Node27</title>
<path fill="none" stroke="midnightblue" d="M395.673,-331.613C420.74,-363.903 473.254,-431.548 492.621,-456.495"/>
<polygon fill="midnightblue" stroke="midnightblue" points="398.278,-329.261 389.381,-323.508 392.749,-333.554 398.278,-329.261"/>
</g>
<!-- Node32 -->
<g id="node32" class="node"><title>Node32</title>
<g id="a_node32"><a xlink:href="../../d3/d44/ltable_8h.html#a243b2c9dd8755c68559af6b7065b1800" target="_top" xlink:title="luaH_resizearray">
<polygon fill="none" stroke="black" points="457,-266.5 457,-285.5 545,-285.5 545,-266.5 457,-266.5"/>
<text text-anchor="middle" x="501" y="-273.5" font-family="Helvetica,sans-Serif" font-size="10.00">luaH_resizearray</text>
</a>
</g>
</g>
<!-- Node26&#45;&gt;Node32 -->
<g id="edge38" class="edge"><title>Node26&#45;&gt;Node32</title>
<path fill="none" stroke="midnightblue" d="M421.376,-301.32C437.32,-296.185 455.421,-290.356 470.233,-285.586"/>
<polygon fill="midnightblue" stroke="midnightblue" points="420.222,-298.014 411.776,-304.411 422.368,-304.677 420.222,-298.014"/>
</g>
<!-- Node26&#45;&gt;Node33 -->
<g id="edge45" class="edge"><title>Node26&#45;&gt;Node33</title>
<path fill="none" stroke="midnightblue" d="M424.275,-314C472.474,-314 550.451,-314 595.909,-314"/>
<polygon fill="midnightblue" stroke="midnightblue" points="424.171,-310.5 414.171,-314 424.171,-317.5 424.171,-310.5"/>
</g>
<!-- Node37 -->
<g id="node37" class="node"><title>Node37</title>
<g id="a_node37"><a xlink:href="../../dc/d1e/ltable_8c.html#ad775daa2a19a375c7385ed30834a3eeb" target="_top" xlink:title="rehash">
<polygon fill="none" stroke="black" points="478,-190.5 478,-209.5 524,-209.5 524,-190.5 478,-190.5"/>
<text text-anchor="middle" x="501" y="-197.5" font-family="Helvetica,sans-Serif" font-size="10.00">rehash</text>
</a>
</g>
</g>
<!-- Node26&#45;&gt;Node37 -->
<g id="edge46" class="edge"><title>Node26&#45;&gt;Node37</title>
<path fill="none" stroke="midnightblue" d="M416.495,-298.955C418.094,-297.723 419.61,-296.406 421,-295 447.283,-268.427 430.226,-245.079 457,-219 462.73,-213.419 470.374,-209.327 477.627,-206.401"/>
<polygon fill="midnightblue" stroke="midnightblue" points="414.502,-296.075 407.975,-304.421 418.282,-301.966 414.502,-296.075"/>
</g>
<!-- Node27&#45;&gt;Node20 -->
<g id="edge33" class="edge"><title>Node27&#45;&gt;Node20</title>
<path fill="none" stroke="midnightblue" d="M540.33,-481.051C541.984,-482.276 543.553,-483.591 545,-485 571.774,-511.079 560.326,-529.863 581,-561 593.046,-579.142 610.588,-597.432 621.641,-608.236"/>
<polygon fill="midnightblue" stroke="midnightblue" points="541.877,-477.895 531.523,-475.652 538.218,-483.862 541.877,-477.895"/>
</g>
<!-- Node27&#45;&gt;Node21 -->
<g id="edge34" class="edge"><title>Node27&#45;&gt;Node21</title>
<path fill="none" stroke="midnightblue" d="M532.3,-452.702C570.465,-438.123 636.868,-420.13 685,-447 734.029,-474.37 757.382,-544.436 764.526,-570.256"/>
<polygon fill="midnightblue" stroke="midnightblue" points="530.773,-449.543 522.778,-456.495 533.363,-456.046 530.773,-449.543"/>
</g>
<!-- Node27&#45;&gt;Node22 -->
<g id="edge37" class="edge"><title>Node27&#45;&gt;Node22</title>
<path fill="none" stroke="midnightblue" d="M537.451,-480.273C540.076,-481.747 542.624,-483.324 545,-485 564.012,-498.408 561.598,-510.163 581,-523 590.929,-529.569 603.439,-534.275 613.583,-537.36"/>
<polygon fill="midnightblue" stroke="midnightblue" points="538.865,-477.066 528.363,-475.668 535.701,-483.31 538.865,-477.066"/>
</g>
<!-- Node28 -->
<g id="node28" class="node"><title>Node28</title>
<g id="a_node28"><a xlink:href="../../d1/dc2/_kensho_lua_wrapper_8m.html#ac812f3eb3f83c6ada24f2dadeced6d68" target="_top" xlink:title="pushValue">
<polygon fill="none" stroke="red" points="601.5,-494.5 601.5,-513.5 664.5,-513.5 664.5,-494.5 601.5,-494.5"/>
<text text-anchor="middle" x="633" y="-501.5" font-family="Helvetica,sans-Serif" font-size="10.00">pushValue</text>
</a>
</g>
</g>
<!-- Node27&#45;&gt;Node28 -->
<g id="edge31" class="edge"><title>Node27&#45;&gt;Node28</title>
<path fill="none" stroke="midnightblue" d="M544.51,-478.426C563.09,-483.857 584.466,-490.106 601.439,-495.067"/>
<polygon fill="midnightblue" stroke="midnightblue" points="545.385,-475.035 534.804,-475.589 543.421,-481.754 545.385,-475.035"/>
</g>
<!-- Node29 -->
<g id="node29" class="node"><title>Node29</title>
<g id="a_node29"><a xlink:href="../../d8/d97/ldblib_8c.html#a4eb57e66c2efb2d31c9b9e1b01d27e13" target="_top" xlink:title="db_getinfo">
<polygon fill="none" stroke="black" points="603,-380.5 603,-399.5 663,-399.5 663,-380.5 603,-380.5"/>
<text text-anchor="middle" x="633" y="-387.5" font-family="Helvetica,sans-Serif" font-size="10.00">db_getinfo</text>
</a>
</g>
</g>
<!-- Node27&#45;&gt;Node29 -->
<g id="edge32" class="edge"><title>Node27&#45;&gt;Node29</title>
<path fill="none" stroke="midnightblue" d="M529.783,-451.309C534.926,-448.362 540.189,-445.187 545,-442 561.899,-430.806 563.724,-424.602 581,-414 589.757,-408.626 599.91,-403.622 608.841,-399.59"/>
<polygon fill="midnightblue" stroke="midnightblue" points="527.813,-448.4 520.78,-456.323 531.219,-454.516 527.813,-448.4"/>
</g>
<!-- Node30 -->
<g id="node30" class="node"><title>Node30</title>
<g id="a_node30"><a xlink:href="../../dc/dba/loslib_8c.html#a6520f2562b500aee87a6a475995adefb" target="_top" xlink:title="os_date">
<polygon fill="none" stroke="black" points="607.5,-342.5 607.5,-361.5 658.5,-361.5 658.5,-342.5 607.5,-342.5"/>
<text text-anchor="middle" x="633" y="-349.5" font-family="Helvetica,sans-Serif" font-size="10.00">os_date</text>
</a>
</g>
</g>
<!-- Node27&#45;&gt;Node30 -->
<g id="edge35" class="edge"><title>Node27&#45;&gt;Node30</title>
<path fill="none" stroke="midnightblue" d="M534.017,-451.021C537.991,-448.359 541.781,-445.35 545,-442 569.515,-416.49 554.614,-394.57 581,-371 588.399,-364.391 598.308,-360.007 607.424,-357.135"/>
<polygon fill="midnightblue" stroke="midnightblue" points="531.972,-448.165 525.175,-456.293 535.557,-454.178 531.972,-448.165"/>
</g>
<!-- Node31 -->
<g id="node31" class="node"><title>Node31</title>
<g id="a_node31"><a xlink:href="../../dc/d77/lstrlib_8c.html#a16d034da6b46e6beae228472f26ec07b" target="_top" xlink:title="createmetatable">
<polygon fill="none" stroke="red" points="591,-456.5 591,-475.5 675,-475.5 675,-456.5 591,-456.5"/>
<text text-anchor="middle" x="633" y="-463.5" font-family="Helvetica,sans-Serif" font-size="10.00">createmetatable</text>
</a>
</g>
</g>
<!-- Node27&#45;&gt;Node31 -->
<g id="edge36" class="edge"><title>Node27&#45;&gt;Node31</title>
<path fill="none" stroke="midnightblue" d="M551.802,-466C564.662,-466 578.362,-466 590.733,-466"/>
<polygon fill="midnightblue" stroke="midnightblue" points="551.711,-462.5 541.711,-466 551.711,-469.5 551.711,-462.5"/>
</g>
<!-- Node32&#45;&gt;Node33 -->
<g id="edge39" class="edge"><title>Node32&#45;&gt;Node33</title>
<path fill="none" stroke="midnightblue" d="M544.884,-288.535C562.569,-293.705 582.734,-299.599 599.206,-304.414"/>
<polygon fill="midnightblue" stroke="midnightblue" points="545.385,-285.035 534.804,-285.589 543.421,-291.754 545.385,-285.035"/>
</g>
<!-- Node34 -->
<g id="node34" class="node"><title>Node34</title>
<g id="a_node34"><a xlink:href="../../d2/dd9/ldo_8h.html#a7bb0b106d4012134156e0fa240f51228" target="_top" xlink:title="luaD_call">
<polygon fill="none" stroke="red" points="740,-323.5 740,-342.5 796,-342.5 796,-323.5 740,-323.5"/>
<text text-anchor="middle" x="768" y="-330.5" font-family="Helvetica,sans-Serif" font-size="10.00">luaD_call</text>
</a>
</g>
</g>
<!-- Node33&#45;&gt;Node34 -->
<g id="edge40" class="edge"><title>Node33&#45;&gt;Node34</title>
<path fill="none" stroke="midnightblue" d="M680.465,-314.168C700.362,-316.438 722.9,-319.963 739.985,-323.585"/>
<polygon fill="midnightblue" stroke="midnightblue" points="680.655,-310.669 670.343,-313.101 679.921,-317.63 680.655,-310.669"/>
</g>
<!-- Node35 -->
<g id="node35" class="node"><title>Node35</title>
<g id="a_node35"><a xlink:href="../../d3/d08/ldo_8c.html#a3baab9d298c0c32cb74a9a079d7244de" target="_top" xlink:title="unroll">
<polygon fill="none" stroke="red" points="749,-247.5 749,-266.5 787,-266.5 787,-247.5 749,-247.5"/>
<text text-anchor="middle" x="768" y="-254.5" font-family="Helvetica,sans-Serif" font-size="10.00">unroll</text>
</a>
</g>
</g>
<!-- Node33&#45;&gt;Node35 -->
<g id="edge42" class="edge"><title>Node33&#45;&gt;Node35</title>
<path fill="none" stroke="midnightblue" d="M665.694,-300.417C691.701,-289.271 727.598,-273.887 748.942,-264.739"/>
<polygon fill="midnightblue" stroke="midnightblue" points="664.074,-297.303 656.261,-304.459 666.831,-303.737 664.074,-297.303"/>
</g>
<!-- Node36 -->
<g id="node36" class="node"><title>Node36</title>
<g id="a_node36"><a xlink:href="../../d3/d08/ldo_8c.html#abd7632c715de5db6e7797b7fa3f7010f" target="_top" xlink:title="resume">
<polygon fill="none" stroke="red" points="851,-266.5 851,-285.5 898,-285.5 898,-266.5 851,-266.5"/>
<text text-anchor="middle" x="874.5" y="-273.5" font-family="Helvetica,sans-Serif" font-size="10.00">resume</text>
</a>
</g>
</g>
<!-- Node33&#45;&gt;Node36 -->
<g id="edge44" class="edge"><title>Node33&#45;&gt;Node36</title>
<path fill="none" stroke="midnightblue" d="M680.254,-306.661C731.438,-298.54 811.829,-285.785 850.804,-279.601"/>
<polygon fill="midnightblue" stroke="midnightblue" points="679.443,-303.246 670.115,-308.27 680.54,-310.16 679.443,-303.246"/>
</g>
<!-- Node34&#45;&gt;Node33 -->
<g id="edge41" class="edge"><title>Node34&#45;&gt;Node33</title>
<path fill="none" stroke="midnightblue" d="M729.774,-333.813C708.125,-331.697 681.305,-327.686 661.558,-323.53"/>
<polygon fill="midnightblue" stroke="midnightblue" points="729.668,-337.317 739.933,-334.692 730.272,-330.343 729.668,-337.317"/>
</g>
<!-- Node35&#45;&gt;Node36 -->
<g id="edge43" class="edge"><title>Node35&#45;&gt;Node36</title>
<path fill="none" stroke="midnightblue" d="M797.514,-262.184C814.26,-265.229 835.137,-269.025 850.769,-271.867"/>
<polygon fill="midnightblue" stroke="midnightblue" points="797.667,-258.655 787.203,-260.31 796.415,-265.542 797.667,-258.655"/>
</g>
<!-- Node37&#45;&gt;Node17 -->
<g id="edge47" class="edge"><title>Node37&#45;&gt;Node17</title>
<path fill="none" stroke="midnightblue" d="M467.68,-205.999C435.321,-212.312 384.257,-223.113 341,-236 271.631,-256.666 192.146,-288.618 154.101,-304.444"/>
<polygon fill="midnightblue" stroke="midnightblue" points="468.74,-209.359 477.899,-204.033 467.418,-202.485 468.74,-209.359"/>
</g>
<!-- Node38&#45;&gt;Node33 -->
<g id="edge59" class="edge"><title>Node38&#45;&gt;Node33</title>
<path fill="none" stroke="midnightblue" d="M428.634,-433.974C463.785,-435.964 511.498,-433.031 545,-409 575.371,-387.216 553.463,-358.271 581,-333 585.316,-329.039 590.533,-325.882 595.961,-323.372"/>
<polygon fill="midnightblue" stroke="midnightblue" points="428.842,-430.48 418.617,-433.256 428.341,-437.462 428.842,-430.48"/>
</g>
<!-- Node39 -->
<g id="node39" class="node"><title>Node39</title>
<g id="a_node39"><a xlink:href="../../da/dd2/lua_8h.html#ac0ebe7d753b81f6249dde8cf0b8ea997" target="_top" xlink:title="lua_setglobal">
<polygon fill="none" stroke="red" points="464.5,-380.5 464.5,-399.5 537.5,-399.5 537.5,-380.5 464.5,-380.5"/>
<text text-anchor="middle" x="501" y="-387.5" font-family="Helvetica,sans-Serif" font-size="10.00">lua_setglobal</text>
</a>
</g>
</g>
<!-- Node38&#45;&gt;Node39 -->
<g id="edge50" class="edge"><title>Node38&#45;&gt;Node39</title>
<path fill="none" stroke="midnightblue" d="M421.376,-415.32C437.32,-410.185 455.421,-404.356 470.233,-399.586"/>
<polygon fill="midnightblue" stroke="midnightblue" points="420.222,-412.014 411.776,-418.411 422.368,-418.677 420.222,-412.014"/>
</g>
<!-- Node40 -->
<g id="node40" class="node"><title>Node40</title>
<g id="a_node40"><a xlink:href="../../da/dd2/lua_8h.html#aeda173d104e3a566ccaac89a1f64a5eb" target="_top" xlink:title="lua_settable">
<polygon fill="none" stroke="red" points="467,-494.5 467,-513.5 535,-513.5 535,-494.5 467,-494.5"/>
<text text-anchor="middle" x="501" y="-501.5" font-family="Helvetica,sans-Serif" font-size="10.00">lua_settable</text>
</a>
</g>
</g>
<!-- Node38&#45;&gt;Node40 -->
<g id="edge51" class="edge"><title>Node38&#45;&gt;Node40</title>
<path fill="none" stroke="midnightblue" d="M400.925,-444.369C415.585,-456.545 436.747,-473.052 457,-485 462.764,-488.4 469.248,-491.572 475.398,-494.312"/>
<polygon fill="midnightblue" stroke="midnightblue" points="403,-441.54 393.1,-437.767 398.486,-446.891 403,-441.54"/>
</g>
<!-- Node41 -->
<g id="node41" class="node"><title>Node41</title>
<g id="a_node41"><a xlink:href="../../da/dd2/lua_8h.html#a9580a15c141cbe4bf2a63fea625c3878" target="_top" xlink:title="lua_setfield">
<polygon fill="none" stroke="red" points="469.5,-532.5 469.5,-551.5 532.5,-551.5 532.5,-532.5 469.5,-532.5"/>
<text text-anchor="middle" x="501" y="-539.5" font-family="Helvetica,sans-Serif" font-size="10.00">lua_setfield</text>
</a>
</g>
</g>
<!-- Node38&#45;&gt;Node41 -->
<g id="edge53" class="edge"><title>Node38&#45;&gt;Node41</title>
<path fill="none" stroke="midnightblue" d="M392.548,-446.206C405.45,-467.125 429.057,-501.345 457,-523 461.774,-526.7 467.381,-529.848 472.94,-532.455"/>
<polygon fill="midnightblue" stroke="midnightblue" points="395.544,-444.396 387.396,-437.624 389.542,-447.999 395.544,-444.396"/>
</g>
<!-- Node40&#45;&gt;Node28 -->
<g id="edge52" class="edge"><title>Node40&#45;&gt;Node28</title>
<path fill="none" stroke="midnightblue" d="M545.277,-504C563.571,-504 584.46,-504 601.152,-504"/>
<polygon fill="midnightblue" stroke="midnightblue" points="545.141,-500.5 535.141,-504 545.141,-507.5 545.141,-500.5"/>
</g>
<!-- Node41&#45;&gt;Node15 -->
<g id="edge55" class="edge"><title>Node41&#45;&gt;Node15</title>
<path fill="none" stroke="midnightblue" d="M540.33,-557.051C541.984,-558.276 543.553,-559.591 545,-561 571.774,-587.079 553.463,-611.729 581,-637 586.36,-641.919 593.11,-645.598 599.928,-648.338"/>
<polygon fill="midnightblue" stroke="midnightblue" points="541.877,-553.895 531.523,-551.652 538.218,-559.862 541.877,-553.895"/>
</g>
<!-- Node41&#45;&gt;Node21 -->
<g id="edge56" class="edge"><title>Node41&#45;&gt;Node21</title>
<path fill="none" stroke="midnightblue" d="M542.532,-552.852C554.818,-555.842 568.398,-558.851 581,-561 628.357,-569.076 683.124,-574.164 720.905,-577.021"/>
<polygon fill="midnightblue" stroke="midnightblue" points="543.116,-549.391 532.566,-550.364 541.42,-556.182 543.116,-549.391"/>
</g>
<!-- Node41&#45;&gt;Node22 -->
<g id="edge58" class="edge"><title>Node41&#45;&gt;Node22</title>
<path fill="none" stroke="midnightblue" d="M542.993,-542C566.787,-542 595.574,-542 613.839,-542"/>
<polygon fill="midnightblue" stroke="midnightblue" points="542.808,-538.5 532.808,-542 542.808,-545.5 542.808,-538.5"/>
</g>
<!-- Node41&#45;&gt;Node28 -->
<g id="edge54" class="edge"><title>Node41&#45;&gt;Node28</title>
<path fill="none" stroke="midnightblue" d="M542.422,-530.184C561.464,-524.618 583.805,-518.088 601.413,-512.941"/>
<polygon fill="midnightblue" stroke="midnightblue" points="541.425,-526.829 532.808,-532.995 543.389,-533.548 541.425,-526.829"/>
</g>
<!-- Node41&#45;&gt;Node31 -->
<g id="edge57" class="edge"><title>Node41&#45;&gt;Node31</title>
<path fill="none" stroke="midnightblue" d="M537.451,-527.727C540.076,-526.253 542.624,-524.676 545,-523 564.012,-509.592 561.598,-497.837 581,-485 586.674,-481.246 593.19,-478.101 599.626,-475.519"/>
<polygon fill="midnightblue" stroke="midnightblue" points="535.701,-524.69 528.363,-532.332 538.865,-530.934 535.701,-524.69"/>
</g>
<!-- Node43 -->
<g id="node43" class="node"><title>Node43</title>
<g id="a_node43"><a xlink:href="../../d8/d9c/lparser_8c.html#a773c2499cb8938683b25fc0234c1f017" target="_top" xlink:title="anchor_token">
<polygon fill="none" stroke="black" points="219.5,-152.5 219.5,-171.5 292.5,-171.5 292.5,-152.5 219.5,-152.5"/>
<text text-anchor="middle" x="256" y="-159.5" font-family="Helvetica,sans-Serif" font-size="10.00">anchor_token</text>
</a>
</g>
</g>
<!-- Node42&#45;&gt;Node43 -->
<g id="edge62" class="edge"><title>Node42&#45;&gt;Node43</title>
<path fill="none" stroke="midnightblue" d="M161.308,-118.757C183.872,-129.172 214.29,-143.211 234.261,-152.428"/>
<polygon fill="midnightblue" stroke="midnightblue" points="162.717,-115.553 152.171,-114.541 159.784,-121.909 162.717,-115.553"/>
</g>
<!-- Node45 -->
<g id="node45" class="node"><title>Node45</title>
<g id="a_node45"><a xlink:href="../../d8/d7a/llex_8c.html#a83faab0338a28c8b97ff1156725cc61b" target="_top" xlink:title="llex">
<polygon fill="none" stroke="black" points="366,-76.5 366,-95.5 396,-95.5 396,-76.5 366,-76.5"/>
<text text-anchor="middle" x="381" y="-83.5" font-family="Helvetica,sans-Serif" font-size="10.00">llex</text>
</a>
</g>
</g>
<!-- Node42&#45;&gt;Node45 -->
<g id="edge64" class="edge"><title>Node42&#45;&gt;Node45</title>
<path fill="none" stroke="midnightblue" d="M181.66,-108.272C216.418,-109.741 263.691,-110.151 305,-105 326.593,-102.307 350.891,-95.4141 365.824,-90.7148"/>
<polygon fill="midnightblue" stroke="midnightblue" points="181.448,-104.758 171.295,-107.787 181.121,-111.751 181.448,-104.758"/>
</g>
<!-- Node48 -->
<g id="node48" class="node"><title>Node48</title>
<g id="a_node48"><a xlink:href="../../d8/d9c/lparser_8c.html#a6d7842332c47d1f9dc803977228e4179" target="_top" xlink:title="new_localvarliteral_">
<polygon fill="none" stroke="black" points="207,-0.5 207,-19.5 305,-19.5 305,-0.5 207,-0.5"/>
<text text-anchor="middle" x="256" y="-7.5" font-family="Helvetica,sans-Serif" font-size="10.00">new_localvarliteral_</text>
</a>
</g>
</g>
<!-- Node42&#45;&gt;Node48 -->
<g id="edge67" class="edge"><title>Node42&#45;&gt;Node48</title>
<path fill="none" stroke="midnightblue" d="M145.331,-87.3501C159.342,-70.4568 182.405,-45.2129 207,-29 212.612,-25.3005 219.056,-22.1379 225.362,-19.5152"/>
<polygon fill="midnightblue" stroke="midnightblue" points="142.442,-85.3566 138.869,-95.3309 147.882,-89.7616 142.442,-85.3566"/>
</g>
<!-- Node49 -->
<g id="node49" class="node"><title>Node49</title>
<g id="a_node49"><a xlink:href="../../d8/d7a/llex_8c.html#a436a66722128b5e44db3efccaa922aa6" target="_top" xlink:title="read_long_string">
<polygon fill="none" stroke="black" points="213.5,-76.5 213.5,-95.5 298.5,-95.5 298.5,-76.5 213.5,-76.5"/>
<text text-anchor="middle" x="256" y="-83.5" font-family="Helvetica,sans-Serif" font-size="10.00">read_long_string</text>
</a>
</g>
</g>
<!-- Node42&#45;&gt;Node49 -->
<g id="edge68" class="edge"><title>Node42&#45;&gt;Node49</title>
<path fill="none" stroke="midnightblue" d="M181.227,-97.3497C191.828,-95.7187 202.922,-94.012 213.191,-92.4321"/>
<polygon fill="midnightblue" stroke="midnightblue" points="180.607,-93.9037 171.256,-98.8837 181.672,-100.822 180.607,-93.9037"/>
</g>
<!-- Node50 -->
<g id="node50" class="node"><title>Node50</title>
<g id="a_node50"><a xlink:href="../../d8/d7a/llex_8c.html#a5a2d8bb78e2b8e9ee25f901c811b2275" target="_top" xlink:title="read_string">
<polygon fill="none" stroke="black" points="225,-38.5 225,-57.5 287,-57.5 287,-38.5 225,-38.5"/>
<text text-anchor="middle" x="256" y="-45.5" font-family="Helvetica,sans-Serif" font-size="10.00">read_string</text>
</a>
</g>
</g>
<!-- Node42&#45;&gt;Node50 -->
<g id="edge70" class="edge"><title>Node42&#45;&gt;Node50</title>
<path fill="none" stroke="midnightblue" d="M158.52,-90.6641C172.789,-83.2814 190.682,-74.3186 207,-67 214.196,-63.7725 222.117,-60.5188 229.414,-57.6382"/>
<polygon fill="midnightblue" stroke="midnightblue" points="156.53,-87.7543 149.283,-95.4832 159.768,-93.9604 156.53,-87.7543"/>
</g>
<!-- Node44 -->
<g id="node44" class="node"><title>Node44</title>
<g id="a_node44"><a xlink:href="../../d8/d9c/lparser_8c.html#a46bd6da1ec8052eeaf6fd524199ca72a" target="_top" xlink:title="close_func">
<polygon fill="none" stroke="red" points="350.5,-152.5 350.5,-171.5 411.5,-171.5 411.5,-152.5 350.5,-152.5"/>
<text text-anchor="middle" x="381" y="-159.5" font-family="Helvetica,sans-Serif" font-size="10.00">close_func</text>
</a>
</g>
</g>
<!-- Node43&#45;&gt;Node44 -->
<g id="edge63" class="edge"><title>Node43&#45;&gt;Node44</title>
<path fill="none" stroke="midnightblue" d="M302.759,-162C318.657,-162 336.06,-162 350.316,-162"/>
<polygon fill="midnightblue" stroke="midnightblue" points="302.577,-158.5 292.577,-162 302.577,-165.5 302.577,-158.5"/>
</g>
<!-- Node46 -->
<g id="node46" class="node"><title>Node46</title>
<g id="a_node46"><a xlink:href="../../d8/d27/llex_8h.html#ad024d435463fc54e7e592d9bb8a7b26b" target="_top" xlink:title="luaX_lookahead">
<polygon fill="none" stroke="red" points="458.5,-95.5 458.5,-114.5 543.5,-114.5 543.5,-95.5 458.5,-95.5"/>
<text text-anchor="middle" x="501" y="-102.5" font-family="Helvetica,sans-Serif" font-size="10.00">luaX_lookahead</text>
</a>
</g>
</g>
<!-- Node45&#45;&gt;Node46 -->
<g id="edge65" class="edge"><title>Node45&#45;&gt;Node46</title>
<path fill="none" stroke="midnightblue" d="M406.448,-89.9366C421.394,-92.343 440.906,-95.4849 458.242,-98.2762"/>
<polygon fill="midnightblue" stroke="midnightblue" points="406.898,-86.4641 396.469,-88.3298 405.786,-93.375 406.898,-86.4641"/>
</g>
<!-- Node47 -->
<g id="node47" class="node"><title>Node47</title>
<g id="a_node47"><a xlink:href="../../d8/d27/llex_8h.html#a626896648b5c598666b1e051fd70a568" target="_top" xlink:title="luaX_next">
<polygon fill="none" stroke="red" points="471.5,-57.5 471.5,-76.5 530.5,-76.5 530.5,-57.5 471.5,-57.5"/>
<text text-anchor="middle" x="501" y="-64.5" font-family="Helvetica,sans-Serif" font-size="10.00">luaX_next</text>
</a>
</g>
</g>
<!-- Node45&#45;&gt;Node47 -->
<g id="edge66" class="edge"><title>Node45&#45;&gt;Node47</title>
<path fill="none" stroke="midnightblue" d="M406.389,-82.073C425.292,-79.0293 451.528,-74.8048 471.417,-71.6024"/>
<polygon fill="midnightblue" stroke="midnightblue" points="405.786,-78.625 396.469,-83.6702 406.898,-85.5359 405.786,-78.625"/>
</g>
<!-- Node49&#45;&gt;Node45 -->
<g id="edge69" class="edge"><title>Node49&#45;&gt;Node45</title>
<path fill="none" stroke="midnightblue" d="M308.672,-86C329.441,-86 351.746,-86 365.778,-86"/>
<polygon fill="midnightblue" stroke="midnightblue" points="308.642,-82.5001 298.642,-86 308.642,-89.5001 308.642,-82.5001"/>
</g>
<!-- Node50&#45;&gt;Node45 -->
<g id="edge71" class="edge"><title>Node50&#45;&gt;Node45</title>
<path fill="none" stroke="midnightblue" d="M296.874,-60.3186C320.515,-67.6225 349.043,-76.4359 365.785,-81.6084"/>
<polygon fill="midnightblue" stroke="midnightblue" points="297.677,-56.9036 287.089,-57.2958 295.61,-63.5917 297.677,-56.9036"/>
</g>
</g>
</svg>
