<?xml version="1.0" encoding="UTF-8" standalone="no"?>
<!DOCTYPE svg PUBLIC "-//W3C//DTD SVG 1.1//EN"
 "http://www.w3.org/Graphics/SVG/1.1/DTD/svg11.dtd">
<!-- Generated by graphviz version 2.38.0 (20140413.2041)
 -->
<!-- Title: luaH_free Pages: 1 -->
<svg width="1647pt" height="533pt"
 viewBox="0.00 0.00 1647.00 532.95" xmlns="http://www.w3.org/2000/svg" xmlns:xlink="http://www.w3.org/1999/xlink">
<g id="graph0" class="graph" transform="scale(1 1) rotate(0) translate(4 528.948)">
<title>luaH_free</title>
<!-- Node1 -->
<g id="node1" class="node"><title>Node1</title>
<polygon fill="#bfbfbf" stroke="black" points="0,-134.448 0,-153.448 56,-153.448 56,-134.448 0,-134.448"/>
<text text-anchor="middle" x="28" y="-141.448" font-family="Helvetica,sans-Serif" font-size="10.00">luaH_free</text>
</g>
<!-- Node2 -->
<g id="node2" class="node"><title>Node2</title>
<g id="a_node2"><a xlink:href="../../de/d27/lgc_8c.html#aa198d7da2a8502ed70adfe1f7ed38f46" target="_top" xlink:title="freeobj">
<polygon fill="none" stroke="black" points="92,-134.448 92,-153.448 137,-153.448 137,-134.448 92,-134.448"/>
<text text-anchor="middle" x="114.5" y="-141.448" font-family="Helvetica,sans-Serif" font-size="10.00">freeobj</text>
</a>
</g>
</g>
<!-- Node1&#45;&gt;Node2 -->
<g id="edge1" class="edge"><title>Node1&#45;&gt;Node2</title>
<path fill="none" stroke="midnightblue" d="M66.2902,-143.948C75.0768,-143.948 84.1536,-143.948 91.9721,-143.948"/>
<polygon fill="midnightblue" stroke="midnightblue" points="66.2015,-140.448 56.2015,-143.948 66.2014,-147.448 66.2015,-140.448"/>
</g>
<!-- Node3 -->
<g id="node3" class="node"><title>Node3</title>
<g id="a_node3"><a xlink:href="../../de/d27/lgc_8c.html#abbcf0361a74ce5efc08ca703b0f4098a" target="_top" xlink:title="sweeplist">
<polygon fill="none" stroke="black" points="173,-134.448 173,-153.448 230,-153.448 230,-134.448 173,-134.448"/>
<text text-anchor="middle" x="201.5" y="-141.448" font-family="Helvetica,sans-Serif" font-size="10.00">sweeplist</text>
</a>
</g>
</g>
<!-- Node2&#45;&gt;Node3 -->
<g id="edge2" class="edge"><title>Node2&#45;&gt;Node3</title>
<path fill="none" stroke="midnightblue" d="M147.544,-143.948C155.886,-143.948 164.801,-143.948 172.892,-143.948"/>
<polygon fill="midnightblue" stroke="midnightblue" points="147.39,-140.448 137.39,-143.948 147.39,-147.448 147.39,-140.448"/>
</g>
<!-- Node4 -->
<g id="node4" class="node"><title>Node4</title>
<g id="a_node4"><a xlink:href="../../de/d27/lgc_8c.html#ae34e22198155f5d365fe500d3735c150" target="_top" xlink:title="singlestep">
<polygon fill="none" stroke="black" points="503,-115.448 503,-134.448 562,-134.448 562,-115.448 503,-115.448"/>
<text text-anchor="middle" x="532.5" y="-122.448" font-family="Helvetica,sans-Serif" font-size="10.00">singlestep</text>
</a>
</g>
</g>
<!-- Node3&#45;&gt;Node4 -->
<g id="edge3" class="edge"><title>Node3&#45;&gt;Node4</title>
<path fill="none" stroke="midnightblue" d="M240.331,-141.763C306.93,-137.917 443.665,-130.02 502.99,-126.594"/>
<polygon fill="midnightblue" stroke="midnightblue" points="240.048,-138.273 230.267,-142.344 240.452,-145.262 240.048,-138.273"/>
</g>
<!-- Node34 -->
<g id="node34" class="node"><title>Node34</title>
<g id="a_node34"><a xlink:href="../../de/d27/lgc_8c.html#ac881eb4d9ece02c3cefb86ed34879b6d" target="_top" xlink:title="sweeptolive">
<polygon fill="none" stroke="black" points="266,-153.448 266,-172.448 334,-172.448 334,-153.448 266,-153.448"/>
<text text-anchor="middle" x="300" y="-160.448" font-family="Helvetica,sans-Serif" font-size="10.00">sweeptolive</text>
</a>
</g>
</g>
<!-- Node3&#45;&gt;Node34 -->
<g id="edge40" class="edge"><title>Node3&#45;&gt;Node34</title>
<path fill="none" stroke="midnightblue" d="M240.189,-151.368C248.665,-153.037 257.597,-154.796 265.87,-156.425"/>
<polygon fill="midnightblue" stroke="midnightblue" points="240.641,-147.89 230.153,-149.392 239.288,-154.758 240.641,-147.89"/>
</g>
<!-- Node5 -->
<g id="node5" class="node"><title>Node5</title>
<g id="a_node5"><a xlink:href="../../de/d27/lgc_8c.html#a7515a46e25b277cbbe7febb4d06b196a" target="_top" xlink:title="incstep">
<polygon fill="none" stroke="black" points="615,-125.448 615,-144.448 662,-144.448 662,-125.448 615,-125.448"/>
<text text-anchor="middle" x="638.5" y="-132.448" font-family="Helvetica,sans-Serif" font-size="10.00">incstep</text>
</a>
</g>
</g>
<!-- Node4&#45;&gt;Node5 -->
<g id="edge4" class="edge"><title>Node4&#45;&gt;Node5</title>
<path fill="none" stroke="midnightblue" d="M572.306,-128.679C586.634,-130.057 602.393,-131.572 614.827,-132.768"/>
<polygon fill="midnightblue" stroke="midnightblue" points="572.483,-125.18 562.194,-127.707 571.813,-132.148 572.483,-125.18"/>
</g>
<!-- Node10 -->
<g id="node10" class="node"><title>Node10</title>
<g id="a_node10"><a xlink:href="../../dc/d9c/lgc_8h.html#a1da32357417ce5766ed5e3ada033c32f" target="_top" xlink:title="luaC_runtilstate">
<polygon fill="none" stroke="black" points="598,-87.4476 598,-106.448 679,-106.448 679,-87.4476 598,-87.4476"/>
<text text-anchor="middle" x="638.5" y="-94.4476" font-family="Helvetica,sans-Serif" font-size="10.00">luaC_runtilstate</text>
</a>
</g>
</g>
<!-- Node4&#45;&gt;Node10 -->
<g id="edge9" class="edge"><title>Node4&#45;&gt;Node10</title>
<path fill="none" stroke="midnightblue" d="M572.052,-114.568C581.808,-111.942 592.242,-109.132 601.848,-106.546"/>
<polygon fill="midnightblue" stroke="midnightblue" points="570.94,-111.243 562.194,-117.222 572.76,-118.002 570.94,-111.243"/>
</g>
<!-- Node6 -->
<g id="node6" class="node"><title>Node6</title>
<g id="a_node6"><a xlink:href="../../dc/d9c/lgc_8h.html#a19359957605d7c8eaf70803e5b77361f" target="_top" xlink:title="luaC_forcestep">
<polygon fill="none" stroke="black" points="996,-87.4476 996,-106.448 1076,-106.448 1076,-87.4476 996,-87.4476"/>
<text text-anchor="middle" x="1036" y="-94.4476" font-family="Helvetica,sans-Serif" font-size="10.00">luaC_forcestep</text>
</a>
</g>
</g>
<!-- Node5&#45;&gt;Node6 -->
<g id="edge5" class="edge"><title>Node5&#45;&gt;Node6</title>
<path fill="none" stroke="midnightblue" d="M672.624,-134.717C729.875,-133.921 850.915,-130.49 952,-115.948 967.656,-113.695 984.725,-110.007 999.29,-106.476"/>
<polygon fill="midnightblue" stroke="midnightblue" points="672.329,-131.22 662.372,-134.84 672.414,-138.219 672.329,-131.22"/>
</g>
<!-- Node7 -->
<g id="node7" class="node"><title>Node7</title>
<g id="a_node7"><a xlink:href="../../da/dd2/lua_8h.html#a6bac487d3f900b21271e8c591bd801cd" target="_top" xlink:title="lua_gc">
<polygon fill="none" stroke="black" points="1138,-11.4476 1138,-30.4476 1182,-30.4476 1182,-11.4476 1138,-11.4476"/>
<text text-anchor="middle" x="1160" y="-18.4476" font-family="Helvetica,sans-Serif" font-size="10.00">lua_gc</text>
</a>
</g>
</g>
<!-- Node6&#45;&gt;Node7 -->
<g id="edge6" class="edge"><title>Node6&#45;&gt;Node7</title>
<path fill="none" stroke="midnightblue" d="M1061.17,-81.8908C1085.7,-66.6096 1122.93,-43.4165 1143.67,-30.4949"/>
<polygon fill="midnightblue" stroke="midnightblue" points="1059.09,-79.0639 1052.45,-87.3222 1062.79,-85.0054 1059.09,-79.0639"/>
</g>
<!-- Node9 -->
<g id="node9" class="node"><title>Node9</title>
<g id="a_node9"><a xlink:href="../../dc/d9c/lgc_8h.html#a6c71cc4b9e503c0e96c0c4ffcff93900" target="_top" xlink:title="luaC_step">
<polygon fill="none" stroke="black" points="1129.5,-87.4476 1129.5,-106.448 1190.5,-106.448 1190.5,-87.4476 1129.5,-87.4476"/>
<text text-anchor="middle" x="1160" y="-94.4476" font-family="Helvetica,sans-Serif" font-size="10.00">luaC_step</text>
</a>
</g>
</g>
<!-- Node6&#45;&gt;Node9 -->
<g id="edge8" class="edge"><title>Node6&#45;&gt;Node9</title>
<path fill="none" stroke="midnightblue" d="M1086.65,-96.9476C1101.19,-96.9476 1116.62,-96.9476 1129.48,-96.9476"/>
<polygon fill="midnightblue" stroke="midnightblue" points="1086.27,-93.4477 1076.27,-96.9476 1086.27,-100.448 1086.27,-93.4477"/>
</g>
<!-- Node8 -->
<g id="node8" class="node"><title>Node8</title>
<g id="a_node8"><a xlink:href="../../d8/dd3/lbaselib_8c.html#a07f71966c943cc9761ab129f64d4ac80" target="_top" xlink:title="luaB_collectgarbage">
<polygon fill="none" stroke="black" points="1239.5,-11.4476 1239.5,-30.4476 1341.5,-30.4476 1341.5,-11.4476 1239.5,-11.4476"/>
<text text-anchor="middle" x="1290.5" y="-18.4476" font-family="Helvetica,sans-Serif" font-size="10.00">luaB_collectgarbage</text>
</a>
</g>
</g>
<!-- Node7&#45;&gt;Node8 -->
<g id="edge7" class="edge"><title>Node7&#45;&gt;Node8</title>
<path fill="none" stroke="midnightblue" d="M1192.39,-20.9476C1206.52,-20.9476 1223.55,-20.9476 1239.38,-20.9476"/>
<polygon fill="midnightblue" stroke="midnightblue" points="1192.22,-17.4477 1182.22,-20.9476 1192.22,-24.4477 1192.22,-17.4477"/>
</g>
<!-- Node11 -->
<g id="node11" class="node"><title>Node11</title>
<g id="a_node11"><a xlink:href="../../de/d27/lgc_8c.html#a87bb9d2ca4bed013c39258f8abd61689" target="_top" xlink:title="generationalcollection">
<polygon fill="none" stroke="black" points="848,-87.4476 848,-106.448 952,-106.448 952,-87.4476 848,-87.4476"/>
<text text-anchor="middle" x="900" y="-94.4476" font-family="Helvetica,sans-Serif" font-size="10.00">generationalcollection</text>
</a>
</g>
</g>
<!-- Node10&#45;&gt;Node11 -->
<g id="edge10" class="edge"><title>Node10&#45;&gt;Node11</title>
<path fill="none" stroke="midnightblue" d="M689.413,-96.9476C734.892,-96.9476 801.778,-96.9476 847.689,-96.9476"/>
<polygon fill="midnightblue" stroke="midnightblue" points="689.195,-93.4477 679.195,-96.9476 689.195,-100.448 689.195,-93.4477"/>
</g>
<!-- Node12 -->
<g id="node12" class="node"><title>Node12</title>
<g id="a_node12"><a xlink:href="../../dc/d9c/lgc_8h.html#af016fe72ab7e564d7d55e7e4fb659041" target="_top" xlink:title="luaC_changemode">
<polygon fill="none" stroke="black" points="715,-11.4476 715,-30.4476 812,-30.4476 812,-11.4476 715,-11.4476"/>
<text text-anchor="middle" x="763.5" y="-18.4476" font-family="Helvetica,sans-Serif" font-size="10.00">luaC_changemode</text>
</a>
</g>
</g>
<!-- Node10&#45;&gt;Node12 -->
<g id="edge12" class="edge"><title>Node10&#45;&gt;Node12</title>
<path fill="none" stroke="midnightblue" d="M658.448,-80.3796C673.152,-68.0994 694.432,-51.5494 715,-39.9476 721.189,-36.4567 728.148,-33.2921 734.792,-30.5908"/>
<polygon fill="midnightblue" stroke="midnightblue" points="655.957,-77.9033 650.605,-87.0469 660.491,-83.2365 655.957,-77.9033"/>
</g>
<!-- Node13 -->
<g id="node13" class="node"><title>Node13</title>
<g id="a_node13"><a xlink:href="../../dc/d9c/lgc_8h.html#aa0b753c3ed80e1eed0379ec58592c404" target="_top" xlink:title="luaC_fullgc">
<polygon fill="none" stroke="black" points="732.5,-49.4476 732.5,-68.4476 794.5,-68.4476 794.5,-49.4476 732.5,-49.4476"/>
<text text-anchor="middle" x="763.5" y="-56.4476" font-family="Helvetica,sans-Serif" font-size="10.00">luaC_fullgc</text>
</a>
</g>
</g>
<!-- Node10&#45;&gt;Node13 -->
<g id="edge14" class="edge"><title>Node10&#45;&gt;Node13</title>
<path fill="none" stroke="midnightblue" d="M680.225,-84.3658C697.228,-79.113 716.631,-73.1187 732.322,-68.2708"/>
<polygon fill="midnightblue" stroke="midnightblue" points="679.059,-81.0627 670.538,-87.3586 681.126,-87.7508 679.059,-81.0627"/>
</g>
<!-- Node15 -->
<g id="node15" class="node"><title>Node15</title>
<g id="a_node15"><a xlink:href="../../d4/dfb/lstring_8h.html#a44d549eb0ace165927a896f37330e2cd" target="_top" xlink:title="luaS_resize">
<polygon fill="none" stroke="black" points="730.5,-182.448 730.5,-201.448 796.5,-201.448 796.5,-182.448 730.5,-182.448"/>
<text text-anchor="middle" x="763.5" y="-189.448" font-family="Helvetica,sans-Serif" font-size="10.00">luaS_resize</text>
</a>
</g>
</g>
<!-- Node10&#45;&gt;Node15 -->
<g id="edge18" class="edge"><title>Node10&#45;&gt;Node15</title>
<path fill="none" stroke="midnightblue" d="M671.342,-111.247C673.988,-112.739 676.575,-114.312 679,-115.948 708.902,-136.115 738.956,-166.554 753.496,-182.08"/>
<polygon fill="midnightblue" stroke="midnightblue" points="672.753,-108.036 662.268,-106.513 669.515,-114.242 672.753,-108.036"/>
</g>
<!-- Node11&#45;&gt;Node6 -->
<g id="edge11" class="edge"><title>Node11&#45;&gt;Node6</title>
<path fill="none" stroke="midnightblue" d="M962.371,-96.9476C973.727,-96.9476 985.299,-96.9476 995.772,-96.9476"/>
<polygon fill="midnightblue" stroke="midnightblue" points="962.042,-93.4477 952.042,-96.9476 962.042,-100.448 962.042,-93.4477"/>
</g>
<!-- Node12&#45;&gt;Node7 -->
<g id="edge13" class="edge"><title>Node12&#45;&gt;Node7</title>
<path fill="none" stroke="midnightblue" d="M822.063,-10.014C830.726,-8.74131 839.577,-7.64881 848,-6.94761 952.527,1.75442 979.557,2.71691 1084,-6.94761 1102.33,-8.64406 1122.87,-12.6257 1137.81,-15.9108"/>
<polygon fill="midnightblue" stroke="midnightblue" points="821.359,-6.58121 812.017,-11.578 822.436,-13.4979 821.359,-6.58121"/>
</g>
<!-- Node13&#45;&gt;Node7 -->
<g id="edge16" class="edge"><title>Node13&#45;&gt;Node7</title>
<path fill="none" stroke="midnightblue" d="M804.845,-48.3746C818.464,-45.1789 833.81,-41.9817 848,-39.9476 956.164,-24.4427 1087.27,-21.5767 1137.76,-21.0575"/>
<polygon fill="midnightblue" stroke="midnightblue" points="803.713,-45.0472 794.815,-50.7987 805.358,-51.8513 803.713,-45.0472"/>
</g>
<!-- Node13&#45;&gt;Node11 -->
<g id="edge15" class="edge"><title>Node13&#45;&gt;Node11</title>
<path fill="none" stroke="midnightblue" d="M804.413,-70.2243C823.732,-75.6824 846.679,-82.1653 865.132,-87.3789"/>
<polygon fill="midnightblue" stroke="midnightblue" points="805.259,-66.8263 794.684,-67.4756 803.356,-73.5626 805.259,-66.8263"/>
</g>
<!-- Node14 -->
<g id="node14" class="node"><title>Node14</title>
<g id="a_node14"><a xlink:href="../../d7/d3e/lmem_8h.html#ae7dc8a57fc5dbca825653a88a356a72d" target="_top" xlink:title="luaM_realloc_">
<polygon fill="none" stroke="black" points="863,-49.4476 863,-68.4476 937,-68.4476 937,-49.4476 863,-49.4476"/>
<text text-anchor="middle" x="900" y="-56.4476" font-family="Helvetica,sans-Serif" font-size="10.00">luaM_realloc_</text>
</a>
</g>
</g>
<!-- Node13&#45;&gt;Node14 -->
<g id="edge17" class="edge"><title>Node13&#45;&gt;Node14</title>
<path fill="none" stroke="midnightblue" d="M804.808,-58.9476C823.202,-58.9476 844.817,-58.9476 862.699,-58.9476"/>
<polygon fill="midnightblue" stroke="midnightblue" points="804.684,-55.4477 794.684,-58.9476 804.684,-62.4477 804.684,-55.4477"/>
</g>
<!-- Node16 -->
<g id="node16" class="node"><title>Node16</title>
<g id="a_node16"><a xlink:href="../../de/d27/lgc_8c.html#aace8516e609d7409e789e7b2c190b9c2" target="_top" xlink:title="checkSizes">
<polygon fill="none" stroke="black" points="867.5,-239.448 867.5,-258.448 932.5,-258.448 932.5,-239.448 867.5,-239.448"/>
<text text-anchor="middle" x="900" y="-246.448" font-family="Helvetica,sans-Serif" font-size="10.00">checkSizes</text>
</a>
</g>
</g>
<!-- Node15&#45;&gt;Node16 -->
<g id="edge19" class="edge"><title>Node15&#45;&gt;Node16</title>
<path fill="none" stroke="midnightblue" d="M793.883,-205.932C809.784,-213.344 829.837,-222.442 848,-229.948 855.859,-233.195 864.496,-236.508 872.392,-239.438"/>
<polygon fill="midnightblue" stroke="midnightblue" points="795.113,-202.643 784.573,-201.564 792.14,-208.98 795.113,-202.643"/>
</g>
<!-- Node17 -->
<g id="node17" class="node"><title>Node17</title>
<g id="a_node17"><a xlink:href="../../dd/dca/lstate_8c.html#ab65e96a7498fd886f7223b92e91fd830" target="_top" xlink:title="f_luaopen">
<polygon fill="none" stroke="black" points="870.5,-201.448 870.5,-220.448 929.5,-220.448 929.5,-201.448 870.5,-201.448"/>
<text text-anchor="middle" x="900" y="-208.448" font-family="Helvetica,sans-Serif" font-size="10.00">f_luaopen</text>
</a>
</g>
</g>
<!-- Node15&#45;&gt;Node17 -->
<g id="edge21" class="edge"><title>Node15&#45;&gt;Node17</title>
<path fill="none" stroke="midnightblue" d="M806.825,-197.927C827.478,-200.844 851.784,-204.278 870.25,-206.886"/>
<polygon fill="midnightblue" stroke="midnightblue" points="807.107,-194.432 796.716,-196.499 806.128,-201.363 807.107,-194.432"/>
</g>
<!-- Node26 -->
<g id="node26" class="node"><title>Node26</title>
<g id="a_node26"><a xlink:href="../../d1/d2f/lstring_8c.html#a6e3c0fe3ba834ee00279a9df03f40fc4" target="_top" xlink:title="newshrstr">
<polygon fill="none" stroke="black" points="871,-163.448 871,-182.448 929,-182.448 929,-163.448 871,-163.448"/>
<text text-anchor="middle" x="900" y="-170.448" font-family="Helvetica,sans-Serif" font-size="10.00">newshrstr</text>
</a>
</g>
</g>
<!-- Node15&#45;&gt;Node26 -->
<g id="edge32" class="edge"><title>Node15&#45;&gt;Node26</title>
<path fill="none" stroke="midnightblue" d="M806.898,-185.958C827.703,-183.019 852.2,-179.559 870.698,-176.946"/>
<polygon fill="midnightblue" stroke="midnightblue" points="806.128,-182.532 796.716,-187.397 807.107,-189.463 806.128,-182.532"/>
</g>
<!-- Node16&#45;&gt;Node4 -->
<g id="edge20" class="edge"><title>Node16&#45;&gt;Node4</title>
<path fill="none" stroke="midnightblue" d="M857.346,-243.255C819.558,-237.41 762.64,-226.898 715,-210.948 651.846,-189.803 581.897,-152.338 550.447,-134.676"/>
<polygon fill="midnightblue" stroke="midnightblue" points="857.064,-246.752 867.473,-244.78 858.106,-239.83 857.064,-246.752"/>
</g>
<!-- Node18 -->
<g id="node18" class="node"><title>Node18</title>
<g id="a_node18"><a xlink:href="../../da/dd2/lua_8h.html#af722e4ac7fc0eba5920f59f0162c1b97" target="_top" xlink:title="lua_newstate">
<polygon fill="none" stroke="black" points="999,-201.448 999,-220.448 1073,-220.448 1073,-201.448 999,-201.448"/>
<text text-anchor="middle" x="1036" y="-208.448" font-family="Helvetica,sans-Serif" font-size="10.00">lua_newstate</text>
</a>
</g>
</g>
<!-- Node17&#45;&gt;Node18 -->
<g id="edge22" class="edge"><title>Node17&#45;&gt;Node18</title>
<path fill="none" stroke="midnightblue" d="M939.91,-210.948C958.432,-210.948 980.451,-210.948 998.634,-210.948"/>
<polygon fill="midnightblue" stroke="midnightblue" points="939.746,-207.448 929.746,-210.948 939.746,-214.448 939.746,-207.448"/>
</g>
<!-- Node19 -->
<g id="node19" class="node"><title>Node19</title>
<g id="a_node19"><a xlink:href="../../da/d29/lauxlib_8h.html#a7d8712fcede90ae93d5a9a7b409c586e" target="_top" xlink:title="luaL_newstate">
<polygon fill="none" stroke="black" points="1120,-239.448 1120,-258.448 1200,-258.448 1200,-239.448 1120,-239.448"/>
<text text-anchor="middle" x="1160" y="-246.448" font-family="Helvetica,sans-Serif" font-size="10.00">luaL_newstate</text>
</a>
</g>
</g>
<!-- Node18&#45;&gt;Node19 -->
<g id="edge23" class="edge"><title>Node18&#45;&gt;Node19</title>
<path fill="none" stroke="midnightblue" d="M1077.71,-223.628C1094.2,-228.762 1112.91,-234.592 1128.22,-239.362"/>
<polygon fill="midnightblue" stroke="midnightblue" points="1078.37,-220.169 1067.79,-220.537 1076.29,-226.852 1078.37,-220.169"/>
</g>
<!-- Node25 -->
<g id="node25" class="node"><title>Node25</title>
<g id="a_node25"><a xlink:href="../../dd/dca/lstate_8c.html#a8a0fc0aca5367250347c6bb6a788f05f" target="_top" xlink:title="makeseed">
<polygon fill="none" stroke="black" points="1129.5,-201.448 1129.5,-220.448 1190.5,-220.448 1190.5,-201.448 1129.5,-201.448"/>
<text text-anchor="middle" x="1160" y="-208.448" font-family="Helvetica,sans-Serif" font-size="10.00">makeseed</text>
</a>
</g>
</g>
<!-- Node18&#45;&gt;Node25 -->
<g id="edge30" class="edge"><title>Node18&#45;&gt;Node25</title>
<path fill="none" stroke="midnightblue" d="M1083.62,-204.367C1098.92,-204 1115.52,-204.229 1129.22,-205.055"/>
<polygon fill="midnightblue" stroke="midnightblue" points="1083.15,-200.881 1073.27,-204.717 1083.39,-207.877 1083.15,-200.881"/>
</g>
<!-- Node20 -->
<g id="node20" class="node"><title>Node20</title>
<g id="a_node20"><a xlink:href="../../dc/de7/interface_kensho_lua_wrapper.html#a7d10aa0242861cdd109d3da9383882a2" target="_top" xlink:title="&#45;[KenshoLuaWrapper\l evaluate]">
<polygon fill="none" stroke="black" points="1236,-272.948 1236,-302.948 1345,-302.948 1345,-272.948 1236,-272.948"/>
<text text-anchor="start" x="1244" y="-290.948" font-family="Helvetica,sans-Serif" font-size="10.00">&#45;[KenshoLuaWrapper</text>
<text text-anchor="middle" x="1290.5" y="-279.948" font-family="Helvetica,sans-Serif" font-size="10.00"> evaluate]</text>
</a>
</g>
</g>
<!-- Node19&#45;&gt;Node20 -->
<g id="edge24" class="edge"><title>Node19&#45;&gt;Node20</title>
<path fill="none" stroke="midnightblue" d="M1202.18,-261.445C1214.17,-265.085 1227.41,-269.102 1239.86,-272.883"/>
<polygon fill="midnightblue" stroke="midnightblue" points="1203.02,-258.043 1192.43,-258.488 1200.99,-264.742 1203.02,-258.043"/>
</g>
<!-- Node21 -->
<g id="node21" class="node"><title>Node21</title>
<g id="a_node21"><a xlink:href="../../dc/de7/interface_kensho_lua_wrapper.html#af6db46358f8858a18b55388aa3af211d" target="_top" xlink:title="&#45;[KenshoLuaWrapper\l initWithKensho:context\l:code:]">
<polygon fill="none" stroke="black" points="1381,-322.448 1381,-363.448 1495,-363.448 1495,-322.448 1381,-322.448"/>
<text text-anchor="start" x="1389" y="-351.448" font-family="Helvetica,sans-Serif" font-size="10.00">&#45;[KenshoLuaWrapper</text>
<text text-anchor="start" x="1389" y="-340.448" font-family="Helvetica,sans-Serif" font-size="10.00"> initWithKensho:context</text>
<text text-anchor="middle" x="1438" y="-329.448" font-family="Helvetica,sans-Serif" font-size="10.00">:code:]</text>
</a>
</g>
</g>
<!-- Node20&#45;&gt;Node21 -->
<g id="edge25" class="edge"><title>Node20&#45;&gt;Node21</title>
<path fill="none" stroke="midnightblue" d="M1340.8,-306.583C1354.23,-311.661 1368.86,-317.191 1382.56,-322.37"/>
<polygon fill="midnightblue" stroke="midnightblue" points="1341.85,-303.239 1331.26,-302.977 1339.37,-309.786 1341.85,-303.239"/>
</g>
<!-- Node22 -->
<g id="node22" class="node"><title>Node22</title>
<g id="a_node22"><a xlink:href="../../dc/de7/interface_kensho_lua_wrapper.html#a5555e0979799446611baee70104555c6" target="_top" xlink:title="&#45;[KenshoLuaWrapper\l evaluate:]">
<polygon fill="none" stroke="black" points="1383.5,-272.948 1383.5,-302.948 1492.5,-302.948 1492.5,-272.948 1383.5,-272.948"/>
<text text-anchor="start" x="1391.5" y="-290.948" font-family="Helvetica,sans-Serif" font-size="10.00">&#45;[KenshoLuaWrapper</text>
<text text-anchor="middle" x="1438" y="-279.948" font-family="Helvetica,sans-Serif" font-size="10.00"> evaluate:]</text>
</a>
</g>
</g>
<!-- Node20&#45;&gt;Node22 -->
<g id="edge26" class="edge"><title>Node20&#45;&gt;Node22</title>
<path fill="none" stroke="midnightblue" d="M1355.34,-287.948C1364.72,-287.948 1374.31,-287.948 1383.46,-287.948"/>
<polygon fill="midnightblue" stroke="midnightblue" points="1355.27,-284.448 1345.27,-287.948 1355.27,-291.448 1355.27,-284.448"/>
</g>
<!-- Node24 -->
<g id="node24" class="node"><title>Node24</title>
<g id="a_node24"><a xlink:href="../../dc/de7/interface_kensho_lua_wrapper.html#a0bb5e125d727942726d707f8b59009dc" target="_top" xlink:title="&#45;[KenshoLuaWrapper\l observableUpdated:]">
<polygon fill="none" stroke="black" points="1383.5,-223.948 1383.5,-253.948 1492.5,-253.948 1492.5,-223.948 1383.5,-223.948"/>
<text text-anchor="start" x="1391.5" y="-241.948" font-family="Helvetica,sans-Serif" font-size="10.00">&#45;[KenshoLuaWrapper</text>
<text text-anchor="middle" x="1438" y="-230.948" font-family="Helvetica,sans-Serif" font-size="10.00"> observableUpdated:]</text>
</a>
</g>
</g>
<!-- Node20&#45;&gt;Node24 -->
<g id="edge29" class="edge"><title>Node20&#45;&gt;Node24</title>
<path fill="none" stroke="midnightblue" d="M1346.15,-269.542C1361.38,-264.415 1377.73,-258.908 1392.31,-253.999"/>
<polygon fill="midnightblue" stroke="midnightblue" points="1344.7,-266.338 1336.34,-272.846 1346.94,-272.971 1344.7,-266.338"/>
</g>
<!-- Node23 -->
<g id="node23" class="node"><title>Node23</title>
<g id="a_node23"><a xlink:href="../../da/d0b/interface_kensho.html#a07b4d14db676108e1a94a1f10e100fb4" target="_top" xlink:title="&#45;[Kensho bindToView\l:context:]">
<polygon fill="none" stroke="red" points="1531,-272.948 1531,-302.948 1639,-302.948 1639,-272.948 1531,-272.948"/>
<text text-anchor="start" x="1539" y="-290.948" font-family="Helvetica,sans-Serif" font-size="10.00">&#45;[Kensho bindToView</text>
<text text-anchor="middle" x="1585" y="-279.948" font-family="Helvetica,sans-Serif" font-size="10.00">:context:]</text>
</a>
</g>
</g>
<!-- Node22&#45;&gt;Node23 -->
<g id="edge27" class="edge"><title>Node22&#45;&gt;Node23</title>
<path fill="none" stroke="midnightblue" d="M1502.62,-287.948C1511.97,-287.948 1521.52,-287.948 1530.64,-287.948"/>
<polygon fill="midnightblue" stroke="midnightblue" points="1502.58,-284.448 1492.58,-287.948 1502.58,-291.448 1502.58,-284.448"/>
</g>
<!-- Node23&#45;&gt;Node23 -->
<g id="edge28" class="edge"><title>Node23&#45;&gt;Node23</title>
<path fill="none" stroke="midnightblue" d="M1559.06,-313.406C1562.28,-318.127 1570.92,-321.448 1585,-321.448 1608.1,-321.448 1616.58,-312.504 1610.44,-303.107"/>
<polygon fill="midnightblue" stroke="midnightblue" points="1562.57,-313.264 1559.56,-303.107 1555.58,-312.926 1562.57,-313.264"/>
</g>
<!-- Node25&#45;&gt;Node18 -->
<g id="edge31" class="edge"><title>Node25&#45;&gt;Node18</title>
<path fill="none" stroke="midnightblue" d="M1118.9,-217.333C1104.19,-217.866 1087.63,-217.815 1073.27,-217.178"/>
<polygon fill="midnightblue" stroke="midnightblue" points="1119.4,-220.812 1129.22,-216.841 1119.07,-213.82 1119.4,-220.812"/>
</g>
<!-- Node27 -->
<g id="node27" class="node"><title>Node27</title>
<g id="a_node27"><a xlink:href="../../d1/d2f/lstring_8c.html#a9b2c32c59a280de24f20df1c7f0433a1" target="_top" xlink:title="internshrstr">
<polygon fill="none" stroke="black" points="1005.5,-162.448 1005.5,-181.448 1066.5,-181.448 1066.5,-162.448 1005.5,-162.448"/>
<text text-anchor="middle" x="1036" y="-169.448" font-family="Helvetica,sans-Serif" font-size="10.00">internshrstr</text>
</a>
</g>
</g>
<!-- Node26&#45;&gt;Node27 -->
<g id="edge33" class="edge"><title>Node26&#45;&gt;Node27</title>
<path fill="none" stroke="midnightblue" d="M939.239,-172.662C960.14,-172.506 985.652,-172.316 1005.09,-172.171"/>
<polygon fill="midnightblue" stroke="midnightblue" points="939.064,-169.163 929.091,-172.738 939.117,-176.163 939.064,-169.163"/>
</g>
<!-- Node28 -->
<g id="node28" class="node"><title>Node28</title>
<g id="a_node28"><a xlink:href="../../d4/dfb/lstring_8h.html#a248e72694b9116b07b2e7f4a9a3a5331" target="_top" xlink:title="luaS_newlstr">
<polygon fill="none" stroke="red" points="1124.5,-159.448 1124.5,-178.448 1195.5,-178.448 1195.5,-159.448 1124.5,-159.448"/>
<text text-anchor="middle" x="1160" y="-166.448" font-family="Helvetica,sans-Serif" font-size="10.00">luaS_newlstr</text>
</a>
</g>
</g>
<!-- Node27&#45;&gt;Node28 -->
<g id="edge34" class="edge"><title>Node27&#45;&gt;Node28</title>
<path fill="none" stroke="midnightblue" d="M1076.73,-170.971C1092.01,-170.595 1109.32,-170.169 1124.11,-169.806"/>
<polygon fill="midnightblue" stroke="midnightblue" points="1076.44,-167.477 1066.53,-171.221 1076.62,-174.474 1076.44,-167.477"/>
</g>
<!-- Node29 -->
<g id="node29" class="node"><title>Node29</title>
<g id="a_node29"><a xlink:href="../../de/d2f/lundump_8c.html#abfe7dabe70bd14e27d54d3cedc6cb70a" target="_top" xlink:title="LoadString">
<polygon fill="none" stroke="red" points="1259.5,-196.448 1259.5,-215.448 1321.5,-215.448 1321.5,-196.448 1259.5,-196.448"/>
<text text-anchor="middle" x="1290.5" y="-203.448" font-family="Helvetica,sans-Serif" font-size="10.00">LoadString</text>
</a>
</g>
</g>
<!-- Node28&#45;&gt;Node29 -->
<g id="edge35" class="edge"><title>Node28&#45;&gt;Node29</title>
<path fill="none" stroke="midnightblue" d="M1203.85,-181.287C1221.97,-186.504 1242.66,-192.461 1259.16,-197.212"/>
<polygon fill="midnightblue" stroke="midnightblue" points="1204.67,-177.88 1194.09,-178.476 1202.73,-184.606 1204.67,-177.88"/>
</g>
<!-- Node30 -->
<g id="node30" class="node"><title>Node30</title>
<g id="a_node30"><a xlink:href="../../da/dd2/lua_8h.html#a4eba0457df5bafff4d44071d1d8080b6" target="_top" xlink:title="lua_concat">
<polygon fill="none" stroke="red" points="1259.5,-158.448 1259.5,-177.448 1321.5,-177.448 1321.5,-158.448 1259.5,-158.448"/>
<text text-anchor="middle" x="1290.5" y="-165.448" font-family="Helvetica,sans-Serif" font-size="10.00">lua_concat</text>
</a>
</g>
</g>
<!-- Node28&#45;&gt;Node30 -->
<g id="edge36" class="edge"><title>Node28&#45;&gt;Node30</title>
<path fill="none" stroke="midnightblue" d="M1205.84,-168.599C1223.44,-168.462 1243.19,-168.308 1259.07,-168.184"/>
<polygon fill="midnightblue" stroke="midnightblue" points="1205.75,-165.099 1195.77,-168.677 1205.8,-172.099 1205.75,-165.099"/>
</g>
<!-- Node31 -->
<g id="node31" class="node"><title>Node31</title>
<g id="a_node31"><a xlink:href="../../da/dd2/lua_8h.html#a4ab8500ade8e1d8a87b1df1baf19b179" target="_top" xlink:title="lua_pushlstring">
<polygon fill="none" stroke="red" points="1250.5,-120.448 1250.5,-139.448 1330.5,-139.448 1330.5,-120.448 1250.5,-120.448"/>
<text text-anchor="middle" x="1290.5" y="-127.448" font-family="Helvetica,sans-Serif" font-size="10.00">lua_pushlstring</text>
</a>
</g>
</g>
<!-- Node28&#45;&gt;Node31 -->
<g id="edge37" class="edge"><title>Node28&#45;&gt;Node31</title>
<path fill="none" stroke="midnightblue" d="M1202.15,-156.46C1220.23,-150.972 1241.12,-144.63 1257.94,-139.525"/>
<polygon fill="midnightblue" stroke="midnightblue" points="1200.99,-153.154 1192.43,-159.407 1203.02,-159.852 1200.99,-153.154"/>
</g>
<!-- Node32 -->
<g id="node32" class="node"><title>Node32</title>
<g id="a_node32"><a xlink:href="../../dd/d05/lcode_8h.html#a4f928250a0f4007764b4d3777651f617" target="_top" xlink:title="luaK_numberK">
<polygon fill="none" stroke="red" points="1250.5,-82.4476 1250.5,-101.448 1330.5,-101.448 1330.5,-82.4476 1250.5,-82.4476"/>
<text text-anchor="middle" x="1290.5" y="-89.4476" font-family="Helvetica,sans-Serif" font-size="10.00">luaK_numberK</text>
</a>
</g>
</g>
<!-- Node28&#45;&gt;Node32 -->
<g id="edge38" class="edge"><title>Node28&#45;&gt;Node32</title>
<path fill="none" stroke="midnightblue" d="M1179.12,-152.26C1193.64,-139.58 1214.99,-122.421 1236,-110.948 1242.66,-107.311 1250.16,-104.143 1257.38,-101.49"/>
<polygon fill="midnightblue" stroke="midnightblue" points="1176.55,-149.864 1171.42,-159.132 1181.21,-155.088 1176.55,-149.864"/>
</g>
<!-- Node33 -->
<g id="node33" class="node"><title>Node33</title>
<g id="a_node33"><a xlink:href="../../d4/dfb/lstring_8h.html#a6929da8cfde3e74a0d51a6467909ef9d" target="_top" xlink:title="luaS_new">
<polygon fill="none" stroke="red" points="1260.5,-234.448 1260.5,-253.448 1320.5,-253.448 1320.5,-234.448 1260.5,-234.448"/>
<text text-anchor="middle" x="1290.5" y="-241.448" font-family="Helvetica,sans-Serif" font-size="10.00">luaS_new</text>
</a>
</g>
</g>
<!-- Node28&#45;&gt;Node33 -->
<g id="edge39" class="edge"><title>Node28&#45;&gt;Node33</title>
<path fill="none" stroke="midnightblue" d="M1187.89,-183.798C1192.04,-186.375 1196.2,-189.135 1200,-191.948 1217.44,-204.864 1217.4,-213.759 1236,-224.948 1243.52,-229.47 1252.27,-233.144 1260.5,-236.013"/>
<polygon fill="midnightblue" stroke="midnightblue" points="1189.36,-180.6 1178.97,-178.499 1185.78,-186.617 1189.36,-180.6"/>
</g>
<!-- Node35 -->
<g id="node35" class="node"><title>Node35</title>
<g id="a_node35"><a xlink:href="../../de/d27/lgc_8c.html#a396e5acf2204119b6a78993fa368ec39" target="_top" xlink:title="entersweep">
<polygon fill="none" stroke="black" points="385,-58.4476 385,-77.4476 452,-77.4476 452,-58.4476 385,-58.4476"/>
<text text-anchor="middle" x="418.5" y="-65.4476" font-family="Helvetica,sans-Serif" font-size="10.00">entersweep</text>
</a>
</g>
</g>
<!-- Node34&#45;&gt;Node35 -->
<g id="edge41" class="edge"><title>Node34&#45;&gt;Node35</title>
<path fill="none" stroke="midnightblue" d="M320.921,-146.703C345.304,-126.819 385.8,-93.7974 405.71,-77.5616"/>
<polygon fill="midnightblue" stroke="midnightblue" points="318.567,-144.107 313.029,-153.139 322.991,-149.532 318.567,-144.107"/>
</g>
<!-- Node36 -->
<g id="node36" class="node"><title>Node36</title>
<g id="a_node36"><a xlink:href="../../dc/d9c/lgc_8h.html#a15870c09448216ce5c4e1ff63d39e0a9" target="_top" xlink:title="luaC_checkfinalizer">
<polygon fill="none" stroke="black" points="370,-236.448 370,-255.448 467,-255.448 467,-236.448 370,-236.448"/>
<text text-anchor="middle" x="418.5" y="-243.448" font-family="Helvetica,sans-Serif" font-size="10.00">luaC_checkfinalizer</text>
</a>
</g>
</g>
<!-- Node34&#45;&gt;Node36 -->
<g id="edge45" class="edge"><title>Node34&#45;&gt;Node36</title>
<path fill="none" stroke="midnightblue" d="M322.757,-178.448C346.565,-195.41 383.993,-222.076 403.933,-236.282"/>
<polygon fill="midnightblue" stroke="midnightblue" points="324.539,-175.421 314.364,-172.469 320.478,-181.122 324.539,-175.421"/>
</g>
<!-- Node35&#45;&gt;Node4 -->
<g id="edge44" class="edge"><title>Node35&#45;&gt;Node4</title>
<path fill="none" stroke="midnightblue" d="M447.358,-82.1254C467.733,-92.4947 494.824,-106.282 512.693,-115.376"/>
<polygon fill="midnightblue" stroke="midnightblue" points="448.746,-78.9046 438.246,-77.4881 445.571,-85.1431 448.746,-78.9046"/>
</g>
<!-- Node35&#45;&gt;Node12 -->
<g id="edge42" class="edge"><title>Node35&#45;&gt;Node12</title>
<path fill="none" stroke="midnightblue" d="M462.275,-62.0863C526.619,-53.2696 647.898,-36.6512 714.94,-27.4646"/>
<polygon fill="midnightblue" stroke="midnightblue" points="461.51,-58.6583 452.078,-63.4836 462.46,-65.5935 461.51,-58.6583"/>
</g>
<!-- Node35&#45;&gt;Node13 -->
<g id="edge43" class="edge"><title>Node35&#45;&gt;Node13</title>
<path fill="none" stroke="midnightblue" d="M462.354,-66.8232C532.693,-64.9775 670.922,-61.3505 732.115,-59.7449"/>
<polygon fill="midnightblue" stroke="midnightblue" points="461.983,-63.3316 452.078,-67.0928 462.166,-70.3292 461.983,-63.3316"/>
</g>
<!-- Node37 -->
<g id="node37" class="node"><title>Node37</title>
<g id="a_node37"><a xlink:href="../../da/dd2/lua_8h.html#a0b834b6a9cd96b141385df14bd0272a4" target="_top" xlink:title="lua_setmetatable">
<polygon fill="none" stroke="black" points="855.5,-353.448 855.5,-372.448 944.5,-372.448 944.5,-353.448 855.5,-353.448"/>
<text text-anchor="middle" x="900" y="-360.448" font-family="Helvetica,sans-Serif" font-size="10.00">lua_setmetatable</text>
</a>
</g>
</g>
<!-- Node36&#45;&gt;Node37 -->
<g id="edge46" class="edge"><title>Node36&#45;&gt;Node37</title>
<path fill="none" stroke="midnightblue" d="M468.72,-257.958C564.255,-281.269 773.043,-332.214 859.891,-353.405"/>
<polygon fill="midnightblue" stroke="midnightblue" points="469.284,-254.493 458.739,-255.522 467.625,-261.293 469.284,-254.493"/>
</g>
<!-- Node37&#45;&gt;Node20 -->
<g id="edge51" class="edge"><title>Node37&#45;&gt;Node20</title>
<path fill="none" stroke="midnightblue" d="M919.368,-346.757C936.013,-333.158 961.871,-314.601 988,-305.948 1071.25,-278.375 1174.41,-279.147 1235.93,-282.996"/>
<polygon fill="midnightblue" stroke="midnightblue" points="916.946,-344.22 911.55,-353.337 921.454,-349.575 916.946,-344.22"/>
</g>
<!-- Node38 -->
<g id="node38" class="node"><title>Node38</title>
<g id="a_node38"><a xlink:href="../../d1/dc2/_kensho_lua_wrapper_8m.html#ac812f3eb3f83c6ada24f2dadeced6d68" target="_top" xlink:title="pushValue">
<polygon fill="none" stroke="black" points="1004.5,-315.448 1004.5,-334.448 1067.5,-334.448 1067.5,-315.448 1004.5,-315.448"/>
<text text-anchor="middle" x="1036" y="-322.448" font-family="Helvetica,sans-Serif" font-size="10.00">pushValue</text>
</a>
</g>
</g>
<!-- Node37&#45;&gt;Node38 -->
<g id="edge47" class="edge"><title>Node37&#45;&gt;Node38</title>
<path fill="none" stroke="midnightblue" d="M944.701,-350.555C964.212,-345.022 986.734,-338.635 1004.4,-333.624"/>
<polygon fill="midnightblue" stroke="midnightblue" points="943.48,-347.263 934.814,-353.359 945.389,-353.998 943.48,-347.263"/>
</g>
<!-- Node40 -->
<g id="node40" class="node"><title>Node40</title>
<g id="a_node40"><a xlink:href="../../da/d29/lauxlib_8h.html#a4ef6497609d8cb52f8f4dc0ec489bb7a" target="_top" xlink:title="luaL_setmetatable">
<polygon fill="none" stroke="black" points="988.5,-429.448 988.5,-448.448 1083.5,-448.448 1083.5,-429.448 988.5,-429.448"/>
<text text-anchor="middle" x="1036" y="-436.448" font-family="Helvetica,sans-Serif" font-size="10.00">luaL_setmetatable</text>
</a>
</g>
</g>
<!-- Node37&#45;&gt;Node40 -->
<g id="edge52" class="edge"><title>Node37&#45;&gt;Node40</title>
<path fill="none" stroke="midnightblue" d="M921.982,-378.376C939.176,-390.599 964.43,-407.614 988,-419.948 994.55,-423.375 1001.86,-426.599 1008.73,-429.384"/>
<polygon fill="midnightblue" stroke="midnightblue" points="923.938,-375.471 913.777,-372.47 919.849,-381.153 923.938,-375.471"/>
</g>
<!-- Node45 -->
<g id="node45" class="node"><title>Node45</title>
<g id="a_node45"><a xlink:href="../../d8/dd3/lbaselib_8c.html#af7799a987ba6d158a96a52e80fb5beaf" target="_top" xlink:title="luaB_setmetatable">
<polygon fill="none" stroke="black" points="988,-391.448 988,-410.448 1084,-410.448 1084,-391.448 988,-391.448"/>
<text text-anchor="middle" x="1036" y="-398.448" font-family="Helvetica,sans-Serif" font-size="10.00">luaB_setmetatable</text>
</a>
</g>
</g>
<!-- Node37&#45;&gt;Node45 -->
<g id="edge57" class="edge"><title>Node37&#45;&gt;Node45</title>
<path fill="none" stroke="midnightblue" d="M944.438,-375.266C962.849,-380.487 983.98,-386.479 1001.2,-391.362"/>
<polygon fill="midnightblue" stroke="midnightblue" points="945.389,-371.898 934.814,-372.537 943.48,-378.632 945.389,-371.898"/>
</g>
<!-- Node46 -->
<g id="node46" class="node"><title>Node46</title>
<g id="a_node46"><a xlink:href="../../d8/d97/ldblib_8c.html#a3595aee1af712c0ba9c586feb763bffc" target="_top" xlink:title="db_setmetatable">
<polygon fill="none" stroke="black" points="992,-353.448 992,-372.448 1080,-372.448 1080,-353.448 992,-353.448"/>
<text text-anchor="middle" x="1036" y="-360.448" font-family="Helvetica,sans-Serif" font-size="10.00">db_setmetatable</text>
</a>
</g>
</g>
<!-- Node37&#45;&gt;Node46 -->
<g id="edge58" class="edge"><title>Node37&#45;&gt;Node46</title>
<path fill="none" stroke="midnightblue" d="M954.66,-362.948C966.969,-362.948 979.905,-362.948 991.712,-362.948"/>
<polygon fill="midnightblue" stroke="midnightblue" points="954.506,-359.448 944.506,-362.948 954.506,-366.448 954.506,-359.448"/>
</g>
<!-- Node47 -->
<g id="node47" class="node"><title>Node47</title>
<g id="a_node47"><a xlink:href="../../d8/d97/ldblib_8c.html#aa0c362d361f8f9bd8a002c34c393e2b0" target="_top" xlink:title="db_sethook">
<polygon fill="none" stroke="black" points="1003,-239.448 1003,-258.448 1069,-258.448 1069,-239.448 1003,-239.448"/>
<text text-anchor="middle" x="1036" y="-246.448" font-family="Helvetica,sans-Serif" font-size="10.00">db_sethook</text>
</a>
</g>
</g>
<!-- Node37&#45;&gt;Node47 -->
<g id="edge59" class="edge"><title>Node37&#45;&gt;Node47</title>
<path fill="none" stroke="midnightblue" d="M914.837,-345.49C930.904,-326.025 958.939,-294.46 988,-272.948 995.511,-267.387 1004.5,-262.448 1012.59,-258.517"/>
<polygon fill="midnightblue" stroke="midnightblue" points="912.111,-343.294 908.526,-353.264 917.546,-347.706 912.111,-343.294"/>
</g>
<!-- Node48 -->
<g id="node48" class="node"><title>Node48</title>
<g id="a_node48"><a xlink:href="../../d6/d07/lualib_8h.html#a05e0befc0439f926b6152129ab4f8dea" target="_top" xlink:title="luaopen_package">
<polygon fill="none" stroke="black" points="989,-505.448 989,-524.448 1083,-524.448 1083,-505.448 989,-505.448"/>
<text text-anchor="middle" x="1036" y="-512.448" font-family="Helvetica,sans-Serif" font-size="10.00">luaopen_package</text>
</a>
</g>
</g>
<!-- Node37&#45;&gt;Node48 -->
<g id="edge60" class="edge"><title>Node37&#45;&gt;Node48</title>
<path fill="none" stroke="midnightblue" d="M908.946,-382.017C921.692,-410.478 949.268,-464.121 988,-495.948 992.624,-499.747 998.108,-502.869 1003.67,-505.405"/>
<polygon fill="midnightblue" stroke="midnightblue" points="912.119,-380.538 904.928,-372.758 905.698,-383.324 912.119,-380.538"/>
</g>
<!-- Node49 -->
<g id="node49" class="node"><title>Node49</title>
<g id="a_node49"><a xlink:href="../../dc/d77/lstrlib_8c.html#a16d034da6b46e6beae228472f26ec07b" target="_top" xlink:title="createmetatable">
<polygon fill="none" stroke="black" points="994,-467.448 994,-486.448 1078,-486.448 1078,-467.448 994,-467.448"/>
<text text-anchor="middle" x="1036" y="-474.448" font-family="Helvetica,sans-Serif" font-size="10.00">createmetatable</text>
</a>
</g>
</g>
<!-- Node37&#45;&gt;Node49 -->
<g id="edge61" class="edge"><title>Node37&#45;&gt;Node49</title>
<path fill="none" stroke="midnightblue" d="M913.559,-380.942C928.984,-401.901 956.952,-436.398 988,-457.948 993.35,-461.661 999.535,-464.816 1005.62,-467.424"/>
<polygon fill="midnightblue" stroke="midnightblue" points="916.247,-378.685 907.565,-372.612 910.565,-382.773 916.247,-378.685"/>
</g>
<!-- Node39 -->
<g id="node39" class="node"><title>Node39</title>
<g id="a_node39"><a xlink:href="../../d1/dc2/_kensho_lua_wrapper_8m.html#ad10bf0ff4feac9642e7477e282be41fe" target="_top" xlink:title="lookupKey">
<polygon fill="none" stroke="black" points="1129,-315.448 1129,-334.448 1191,-334.448 1191,-315.448 1129,-315.448"/>
<text text-anchor="middle" x="1160" y="-322.448" font-family="Helvetica,sans-Serif" font-size="10.00">lookupKey</text>
</a>
</g>
</g>
<!-- Node38&#45;&gt;Node39 -->
<g id="edge48" class="edge"><title>Node38&#45;&gt;Node39</title>
<path fill="none" stroke="midnightblue" d="M1077.79,-318.538C1094.41,-317.958 1113.28,-318.119 1128.65,-319.02"/>
<polygon fill="midnightblue" stroke="midnightblue" points="1077.62,-315.042 1067.79,-318.995 1077.94,-322.035 1077.62,-315.042"/>
</g>
<!-- Node39&#45;&gt;Node20 -->
<g id="edge49" class="edge"><title>Node39&#45;&gt;Node20</title>
<path fill="none" stroke="midnightblue" d="M1200.86,-313.47C1212.35,-310.163 1225.05,-306.505 1237.17,-303.015"/>
<polygon fill="midnightblue" stroke="midnightblue" points="1199.77,-310.142 1191.13,-316.273 1201.71,-316.869 1199.77,-310.142"/>
</g>
<!-- Node39&#45;&gt;Node38 -->
<g id="edge50" class="edge"><title>Node39&#45;&gt;Node38</title>
<path fill="none" stroke="midnightblue" d="M1118.21,-331.357C1101.75,-331.932 1083.07,-331.779 1067.79,-330.9"/>
<polygon fill="midnightblue" stroke="midnightblue" points="1118.82,-334.833 1128.65,-330.875 1118.5,-327.84 1118.82,-334.833"/>
</g>
<!-- Node41 -->
<g id="node41" class="node"><title>Node41</title>
<g id="a_node41"><a xlink:href="../../de/df3/liolib_8c.html#ab456fc51383d039a5a24c702060aba8e" target="_top" xlink:title="newprefile">
<polygon fill="none" stroke="black" points="1130.5,-429.448 1130.5,-448.448 1189.5,-448.448 1189.5,-429.448 1130.5,-429.448"/>
<text text-anchor="middle" x="1160" y="-436.448" font-family="Helvetica,sans-Serif" font-size="10.00">newprefile</text>
</a>
</g>
</g>
<!-- Node40&#45;&gt;Node41 -->
<g id="edge53" class="edge"><title>Node40&#45;&gt;Node41</title>
<path fill="none" stroke="midnightblue" d="M1093.91,-438.948C1106.6,-438.948 1119.53,-438.948 1130.48,-438.948"/>
<polygon fill="midnightblue" stroke="midnightblue" points="1093.82,-435.448 1083.82,-438.948 1093.82,-442.448 1093.82,-435.448"/>
</g>
<!-- Node42 -->
<g id="node42" class="node"><title>Node42</title>
<g id="a_node42"><a xlink:href="../../de/df3/liolib_8c.html#a0a80ad2f9dbb3b7238efae7738bb7569" target="_top" xlink:title="createstdfile">
<polygon fill="none" stroke="red" points="1258,-467.448 1258,-486.448 1323,-486.448 1323,-467.448 1258,-467.448"/>
<text text-anchor="middle" x="1290.5" y="-474.448" font-family="Helvetica,sans-Serif" font-size="10.00">createstdfile</text>
</a>
</g>
</g>
<!-- Node41&#45;&gt;Node42 -->
<g id="edge54" class="edge"><title>Node41&#45;&gt;Node42</title>
<path fill="none" stroke="midnightblue" d="M1199.21,-450.248C1217.92,-455.781 1240.17,-462.361 1257.91,-467.605"/>
<polygon fill="midnightblue" stroke="midnightblue" points="1200.1,-446.861 1189.52,-447.381 1198.12,-453.573 1200.1,-446.861"/>
</g>
<!-- Node43 -->
<g id="node43" class="node"><title>Node43</title>
<g id="a_node43"><a xlink:href="../../de/df3/liolib_8c.html#a8cc0b2b08409fb97e5cc80a0caf9b5fd" target="_top" xlink:title="io_popen">
<polygon fill="none" stroke="black" points="1262.5,-429.448 1262.5,-448.448 1318.5,-448.448 1318.5,-429.448 1262.5,-429.448"/>
<text text-anchor="middle" x="1290.5" y="-436.448" font-family="Helvetica,sans-Serif" font-size="10.00">io_popen</text>
</a>
</g>
</g>
<!-- Node41&#45;&gt;Node43 -->
<g id="edge55" class="edge"><title>Node41&#45;&gt;Node43</title>
<path fill="none" stroke="midnightblue" d="M1199.67,-438.948C1219.9,-438.948 1244.17,-438.948 1262.38,-438.948"/>
<polygon fill="midnightblue" stroke="midnightblue" points="1199.52,-435.448 1189.52,-438.948 1199.52,-442.448 1199.52,-435.448"/>
</g>
<!-- Node44 -->
<g id="node44" class="node"><title>Node44</title>
<g id="a_node44"><a xlink:href="../../de/df3/liolib_8c.html#a57c6c258a611b738f0ef34584ca6e7ab" target="_top" xlink:title="newfile">
<polygon fill="none" stroke="red" points="1267.5,-391.448 1267.5,-410.448 1313.5,-410.448 1313.5,-391.448 1267.5,-391.448"/>
<text text-anchor="middle" x="1290.5" y="-398.448" font-family="Helvetica,sans-Serif" font-size="10.00">newfile</text>
</a>
</g>
</g>
<!-- Node41&#45;&gt;Node44 -->
<g id="edge56" class="edge"><title>Node41&#45;&gt;Node44</title>
<path fill="none" stroke="midnightblue" d="M1199.33,-427.612C1221.56,-421.038 1248.77,-412.994 1267.44,-407.471"/>
<polygon fill="midnightblue" stroke="midnightblue" points="1198.12,-424.322 1189.52,-430.514 1200.1,-431.035 1198.12,-424.322"/>
</g>
<!-- Node50 -->
<g id="node50" class="node"><title>Node50</title>
<g id="a_node50"><a xlink:href="../../d6/d07/lualib_8h.html#a3cc052c1be81497507ee76524482eaec" target="_top" xlink:title="luaopen_string">
<polygon fill="none" stroke="black" points="1121,-467.448 1121,-486.448 1199,-486.448 1199,-467.448 1121,-467.448"/>
<text text-anchor="middle" x="1160" y="-474.448" font-family="Helvetica,sans-Serif" font-size="10.00">luaopen_string</text>
</a>
</g>
</g>
<!-- Node49&#45;&gt;Node50 -->
<g id="edge62" class="edge"><title>Node49&#45;&gt;Node50</title>
<path fill="none" stroke="midnightblue" d="M1088.46,-476.948C1099.24,-476.948 1110.42,-476.948 1120.62,-476.948"/>
<polygon fill="midnightblue" stroke="midnightblue" points="1088.3,-473.448 1078.3,-476.948 1088.3,-480.448 1088.3,-473.448"/>
</g>
</g>
</svg>
