<?xml version="1.0" encoding="UTF-8" standalone="no"?>
<!DOCTYPE svg PUBLIC "-//W3C//DTD SVG 1.1//EN"
 "http://www.w3.org/Graphics/SVG/1.1/DTD/svg11.dtd">
<!-- Generated by graphviz version 2.38.0 (20140413.2041)
 -->
<!-- Title: luaH_new Pages: 1 -->
<svg width="810pt" height="1081pt"
 viewBox="0.00 0.00 810.00 1080.51" xmlns="http://www.w3.org/2000/svg" xmlns:xlink="http://www.w3.org/1999/xlink">
<g id="graph0" class="graph" transform="scale(1 1) rotate(0) translate(4 1076.51)">
<title>luaH_new</title>
<!-- Node1 -->
<g id="node1" class="node"><title>Node1</title>
<polygon fill="#bfbfbf" stroke="black" points="0,-456.5 0,-475.5 60,-475.5 60,-456.5 0,-456.5"/>
<text text-anchor="middle" x="30" y="-463.5" font-family="Helvetica,sans-Serif" font-size="10.00">luaH_new</text>
</g>
<!-- Node2 -->
<g id="node2" class="node"><title>Node2</title>
<g id="a_node2"><a xlink:href="../../d6/ddf/ldebug_8c.html#a6e3195fc94af1f75142c2801ca8cf058" target="_top" xlink:title="collectvalidlines">
<polygon fill="none" stroke="black" points="96,-532.5 96,-551.5 176,-551.5 176,-532.5 96,-532.5"/>
<text text-anchor="middle" x="136" y="-539.5" font-family="Helvetica,sans-Serif" font-size="10.00">collectvalidlines</text>
</a>
</g>
</g>
<!-- Node1&#45;&gt;Node2 -->
<g id="edge1" class="edge"><title>Node1&#45;&gt;Node2</title>
<path fill="none" stroke="midnightblue" d="M52.4388,-481.667C73.3516,-496.949 104.487,-519.702 121.935,-532.453"/>
<polygon fill="midnightblue" stroke="midnightblue" points="54.3107,-478.7 44.1717,-475.625 50.1805,-484.352 54.3107,-478.7"/>
</g>
<!-- Node22 -->
<g id="node22" class="node"><title>Node22</title>
<g id="a_node22"><a xlink:href="../../dd/dca/lstate_8c.html#a3f769cc49eb8309417a7cbef2b4d2d8b" target="_top" xlink:title="init_registry">
<polygon fill="none" stroke="black" points="105,-456.5 105,-475.5 167,-475.5 167,-456.5 105,-456.5"/>
<text text-anchor="middle" x="136" y="-463.5" font-family="Helvetica,sans-Serif" font-size="10.00">init_registry</text>
</a>
</g>
</g>
<!-- Node1&#45;&gt;Node22 -->
<g id="edge25" class="edge"><title>Node1&#45;&gt;Node22</title>
<path fill="none" stroke="midnightblue" d="M70.4262,-466C81.8489,-466 94.1328,-466 104.888,-466"/>
<polygon fill="midnightblue" stroke="midnightblue" points="70.2466,-462.5 60.2466,-466 70.2465,-469.5 70.2466,-462.5"/>
</g>
<!-- Node25 -->
<g id="node25" class="node"><title>Node25</title>
<g id="a_node25"><a xlink:href="../../da/dd2/lua_8h.html#a022ddaeee46ccb89860c78480e54db05" target="_top" xlink:title="lua_createtable">
<polygon fill="none" stroke="black" points="451,-931.5 451,-950.5 532,-950.5 532,-931.5 451,-931.5"/>
<text text-anchor="middle" x="491.5" y="-938.5" font-family="Helvetica,sans-Serif" font-size="10.00">lua_createtable</text>
</a>
</g>
</g>
<!-- Node1&#45;&gt;Node25 -->
<g id="edge28" class="edge"><title>Node1&#45;&gt;Node25</title>
<path fill="none" stroke="midnightblue" d="M41.9186,-484.243C54.0755,-503.972 74.8161,-535.956 96,-561 232.645,-722.547 429.77,-890.334 479.021,-931.481"/>
<polygon fill="midnightblue" stroke="midnightblue" points="44.8639,-482.351 36.6759,-475.627 38.8839,-485.989 44.8639,-482.351"/>
</g>
<!-- Node33 -->
<g id="node33" class="node"><title>Node33</title>
<g id="a_node33"><a xlink:href="../../d5/dcd/lvm_8h.html#ae93565adc36c6e2157dbbd875433ede1" target="_top" xlink:title="luaV_execute">
<polygon fill="none" stroke="black" points="99,-361.5 99,-380.5 173,-380.5 173,-361.5 99,-361.5"/>
<text text-anchor="middle" x="136" y="-368.5" font-family="Helvetica,sans-Serif" font-size="10.00">luaV_execute</text>
</a>
</g>
</g>
<!-- Node1&#45;&gt;Node33 -->
<g id="edge40" class="edge"><title>Node1&#45;&gt;Node33</title>
<path fill="none" stroke="midnightblue" d="M49.3574,-449.231C71.1808,-429.296 106.856,-396.708 124.475,-380.614"/>
<polygon fill="midnightblue" stroke="midnightblue" points="46.7609,-446.863 41.7381,-456.191 51.482,-452.031 46.7609,-446.863"/>
</g>
<!-- Node44 -->
<g id="node44" class="node"><title>Node44</title>
<g id="a_node44"><a xlink:href="../../d8/d9c/lparser_8c.html#ac89cbbdfd75804eae46bce05f8381915" target="_top" xlink:title="open_func">
<polygon fill="none" stroke="black" points="105.5,-76.5 105.5,-95.5 166.5,-95.5 166.5,-76.5 105.5,-76.5"/>
<text text-anchor="middle" x="136" y="-83.5" font-family="Helvetica,sans-Serif" font-size="10.00">open_func</text>
</a>
</g>
</g>
<!-- Node1&#45;&gt;Node44 -->
<g id="edge55" class="edge"><title>Node1&#45;&gt;Node44</title>
<path fill="none" stroke="midnightblue" d="M36.4219,-446.189C55.4231,-376.762 118.591,-145.956 132.342,-95.7105"/>
<polygon fill="midnightblue" stroke="midnightblue" points="32.9393,-445.656 33.6753,-456.225 39.691,-447.503 32.9393,-445.656"/>
</g>
<!-- Node3 -->
<g id="node3" class="node"><title>Node3</title>
<g id="a_node3"><a xlink:href="../../da/dd2/lua_8h.html#a9cf23593facaabc7fb42e4d232a507d7" target="_top" xlink:title="lua_getinfo">
<polygon fill="none" stroke="black" points="212,-589.5 212,-608.5 274,-608.5 274,-589.5 212,-589.5"/>
<text text-anchor="middle" x="243" y="-596.5" font-family="Helvetica,sans-Serif" font-size="10.00">lua_getinfo</text>
</a>
</g>
</g>
<!-- Node2&#45;&gt;Node3 -->
<g id="edge2" class="edge"><title>Node2&#45;&gt;Node3</title>
<path fill="none" stroke="midnightblue" d="M163.623,-556.453C182.697,-566.807 207.847,-580.46 224.451,-589.474"/>
<polygon fill="midnightblue" stroke="midnightblue" points="165.27,-553.364 154.812,-551.669 161.931,-559.516 165.27,-553.364"/>
</g>
<!-- Node4 -->
<g id="node4" class="node"><title>Node4</title>
<g id="a_node4"><a xlink:href="../../d0/d56/lauxlib_8c.html#a4f35430f7ecfcbd5f507e550937046b4" target="_top" xlink:title="pushglobalfuncname">
<polygon fill="none" stroke="black" points="310,-646.5 310,-665.5 415,-665.5 415,-646.5 310,-646.5"/>
<text text-anchor="middle" x="362.5" y="-653.5" font-family="Helvetica,sans-Serif" font-size="10.00">pushglobalfuncname</text>
</a>
</g>
</g>
<!-- Node3&#45;&gt;Node4 -->
<g id="edge3" class="edge"><title>Node3&#45;&gt;Node4</title>
<path fill="none" stroke="midnightblue" d="M271.987,-613.206C283.697,-619.095 297.472,-625.95 310,-632 319.949,-636.804 331.05,-641.998 340.39,-646.322"/>
<polygon fill="midnightblue" stroke="midnightblue" points="273.213,-609.905 262.708,-608.526 270.06,-616.155 273.213,-609.905"/>
</g>
<!-- Node5 -->
<g id="node5" class="node"><title>Node5</title>
<g id="a_node5"><a xlink:href="../../da/d29/lauxlib_8h.html#a526c220d17273c63ce9973bcde4a2c4a" target="_top" xlink:title="luaL_argerror">
<polygon fill="none" stroke="red" points="456,-684.5 456,-703.5 527,-703.5 527,-684.5 456,-684.5"/>
<text text-anchor="middle" x="491.5" y="-691.5" font-family="Helvetica,sans-Serif" font-size="10.00">luaL_argerror</text>
</a>
</g>
</g>
<!-- Node3&#45;&gt;Node5 -->
<g id="edge20" class="edge"><title>Node3&#45;&gt;Node5</title>
<path fill="none" stroke="midnightblue" d="M254.533,-617.777C265.751,-635.799 285.285,-662.124 310,-675 356.109,-699.022 417.764,-699.971 455.771,-697.611"/>
<polygon fill="midnightblue" stroke="midnightblue" points="257.292,-615.568 249.177,-608.757 251.274,-619.142 257.292,-615.568"/>
</g>
<!-- Node8 -->
<g id="node8" class="node"><title>Node8</title>
<g id="a_node8"><a xlink:href="../../d8/d97/ldblib_8c.html#a4eb57e66c2efb2d31c9b9e1b01d27e13" target="_top" xlink:title="db_getinfo">
<polygon fill="none" stroke="black" points="590,-836.5 590,-855.5 650,-855.5 650,-836.5 590,-836.5"/>
<text text-anchor="middle" x="620" y="-843.5" font-family="Helvetica,sans-Serif" font-size="10.00">db_getinfo</text>
</a>
</g>
</g>
<!-- Node3&#45;&gt;Node8 -->
<g id="edge22" class="edge"><title>Node3&#45;&gt;Node8</title>
<path fill="none" stroke="midnightblue" d="M252.465,-617.856C263.174,-639.946 283.465,-676.505 310,-700 396.845,-776.895 531.255,-821.491 589.934,-838.275"/>
<polygon fill="midnightblue" stroke="midnightblue" points="255.522,-616.13 248.112,-608.559 249.183,-619.099 255.522,-616.13"/>
</g>
<!-- Node17 -->
<g id="node17" class="node"><title>Node17</title>
<g id="a_node17"><a xlink:href="../../da/d29/lauxlib_8h.html#a664cc293d6c7a7dc67857fe95583a10e" target="_top" xlink:title="luaL_traceback">
<polygon fill="none" stroke="black" points="579.5,-494.5 579.5,-513.5 660.5,-513.5 660.5,-494.5 579.5,-494.5"/>
<text text-anchor="middle" x="620" y="-501.5" font-family="Helvetica,sans-Serif" font-size="10.00">luaL_traceback</text>
</a>
</g>
</g>
<!-- Node3&#45;&gt;Node17 -->
<g id="edge19" class="edge"><title>Node3&#45;&gt;Node17</title>
<path fill="none" stroke="midnightblue" d="M284.439,-604.147C319.471,-607.393 371.258,-609.266 415,-599 488.919,-581.652 498.33,-553.183 568,-523 575.63,-519.695 584.04,-516.417 591.793,-513.538"/>
<polygon fill="midnightblue" stroke="midnightblue" points="284.433,-600.629 274.132,-603.107 283.73,-607.593 284.433,-600.629"/>
</g>
<!-- Node19 -->
<g id="node19" class="node"><title>Node19</title>
<g id="a_node19"><a xlink:href="../../da/d29/lauxlib_8h.html#a269122a77674ca63c9193c2a30b4729e" target="_top" xlink:title="luaL_where">
<polygon fill="none" stroke="red" points="329.5,-570.5 329.5,-589.5 395.5,-589.5 395.5,-570.5 329.5,-570.5"/>
<text text-anchor="middle" x="362.5" y="-577.5" font-family="Helvetica,sans-Serif" font-size="10.00">luaL_where</text>
</a>
</g>
</g>
<!-- Node3&#45;&gt;Node19 -->
<g id="edge21" class="edge"><title>Node3&#45;&gt;Node19</title>
<path fill="none" stroke="midnightblue" d="M284.554,-592.442C299.178,-590.078 315.471,-587.443 329.286,-585.209"/>
<polygon fill="midnightblue" stroke="midnightblue" points="283.572,-589.056 274.259,-594.107 284.69,-595.966 283.572,-589.056"/>
</g>
<!-- Node20 -->
<g id="node20" class="node"><title>Node20</title>
<g id="a_node20"><a xlink:href="../../d8/d97/ldblib_8c.html#a0951daf8c0b66e39bd3aa618aff380bf" target="_top" xlink:title="checkupval">
<polygon fill="none" stroke="red" points="330,-532.5 330,-551.5 395,-551.5 395,-532.5 330,-532.5"/>
<text text-anchor="middle" x="362.5" y="-539.5" font-family="Helvetica,sans-Serif" font-size="10.00">checkupval</text>
</a>
</g>
</g>
<!-- Node3&#45;&gt;Node20 -->
<g id="edge23" class="edge"><title>Node3&#45;&gt;Node20</title>
<path fill="none" stroke="midnightblue" d="M267.823,-583.979C280.147,-576.546 295.592,-567.747 310,-561 317.336,-557.565 325.478,-554.316 333.082,-551.509"/>
<polygon fill="midnightblue" stroke="midnightblue" points="265.774,-581.129 259.076,-589.339 269.431,-587.098 265.774,-581.129"/>
</g>
<!-- Node21 -->
<g id="node21" class="node"><title>Node21</title>
<g id="a_node21"><a xlink:href="../../d8/d97/ldblib_8c.html#a5caaa985f31fc5cbd014f831833205e7" target="_top" xlink:title="hookf">
<polygon fill="none" stroke="red" points="343,-494.5 343,-513.5 382,-513.5 382,-494.5 343,-494.5"/>
<text text-anchor="middle" x="362.5" y="-501.5" font-family="Helvetica,sans-Serif" font-size="10.00">hookf</text>
</a>
</g>
</g>
<!-- Node3&#45;&gt;Node21 -->
<g id="edge24" class="edge"><title>Node3&#45;&gt;Node21</title>
<path fill="none" stroke="midnightblue" d="M255.673,-580.944C267.522,-563.896 287.315,-538.673 310,-523 319.879,-516.175 332.51,-511.465 342.789,-508.442"/>
<polygon fill="midnightblue" stroke="midnightblue" points="252.62,-579.211 249.94,-589.461 258.427,-583.12 252.62,-579.211"/>
</g>
<!-- Node4&#45;&gt;Node5 -->
<g id="edge4" class="edge"><title>Node4&#45;&gt;Node5</title>
<path fill="none" stroke="midnightblue" d="M405.394,-668.535C422.671,-673.705 442.371,-679.599 458.463,-684.414"/>
<polygon fill="midnightblue" stroke="midnightblue" points="406.131,-665.103 395.547,-665.589 404.124,-671.809 406.131,-665.103"/>
</g>
<!-- Node16 -->
<g id="node16" class="node"><title>Node16</title>
<g id="a_node16"><a xlink:href="../../d0/d56/lauxlib_8c.html#a0aa557042467d3f84d0663c742b32946" target="_top" xlink:title="pushfuncname">
<polygon fill="none" stroke="black" points="451.5,-646.5 451.5,-665.5 531.5,-665.5 531.5,-646.5 451.5,-646.5"/>
<text text-anchor="middle" x="491.5" y="-653.5" font-family="Helvetica,sans-Serif" font-size="10.00">pushfuncname</text>
</a>
</g>
</g>
<!-- Node4&#45;&gt;Node16 -->
<g id="edge16" class="edge"><title>Node4&#45;&gt;Node16</title>
<path fill="none" stroke="midnightblue" d="M425.166,-656C434.084,-656 443.05,-656 451.36,-656"/>
<polygon fill="midnightblue" stroke="midnightblue" points="425.156,-652.5 415.156,-656 425.156,-659.5 425.156,-652.5"/>
</g>
<!-- Node6 -->
<g id="node6" class="node"><title>Node6</title>
<g id="a_node6"><a xlink:href="../../dc/dba/loslib_8c.html#aed631522193ea719b6d96782f3e26b6a" target="_top" xlink:title="checkoption">
<polygon fill="none" stroke="black" points="587,-722.5 587,-741.5 653,-741.5 653,-722.5 587,-722.5"/>
<text text-anchor="middle" x="620" y="-729.5" font-family="Helvetica,sans-Serif" font-size="10.00">checkoption</text>
</a>
</g>
</g>
<!-- Node5&#45;&gt;Node6 -->
<g id="edge5" class="edge"><title>Node5&#45;&gt;Node6</title>
<path fill="none" stroke="midnightblue" d="M534.229,-706.535C551.438,-711.705 571.06,-717.599 587.089,-722.414"/>
<polygon fill="midnightblue" stroke="midnightblue" points="535.005,-703.114 524.421,-703.589 532.992,-709.818 535.005,-703.114"/>
</g>
<!-- Node5&#45;&gt;Node8 -->
<g id="edge7" class="edge"><title>Node5&#45;&gt;Node8</title>
<path fill="none" stroke="midnightblue" d="M502.992,-712.868C523.153,-749.069 565.54,-824.905 568,-827 574.258,-832.331 582.152,-836.232 589.849,-839.061"/>
<polygon fill="midnightblue" stroke="midnightblue" points="505.868,-710.838 497.947,-703.803 499.752,-714.243 505.868,-710.838"/>
</g>
<!-- Node9 -->
<g id="node9" class="node"><title>Node9</title>
<g id="a_node9"><a xlink:href="../../d8/d97/ldblib_8c.html#ae802ce7397e9ebb08a90b69976578ecc" target="_top" xlink:title="db_getlocal">
<polygon fill="none" stroke="black" points="587.5,-760.5 587.5,-779.5 652.5,-779.5 652.5,-760.5 587.5,-760.5"/>
<text text-anchor="middle" x="620" y="-767.5" font-family="Helvetica,sans-Serif" font-size="10.00">db_getlocal</text>
</a>
</g>
</g>
<!-- Node5&#45;&gt;Node9 -->
<g id="edge8" class="edge"><title>Node5&#45;&gt;Node9</title>
<path fill="none" stroke="midnightblue" d="M510.86,-710.281C525.537,-722.678 547.055,-739.513 568,-751 574.545,-754.589 581.907,-757.773 588.959,-760.459"/>
<polygon fill="midnightblue" stroke="midnightblue" points="512.926,-707.441 503.064,-703.568 508.358,-712.746 512.926,-707.441"/>
</g>
<!-- Node10 -->
<g id="node10" class="node"><title>Node10</title>
<g id="a_node10"><a xlink:href="../../d8/d97/ldblib_8c.html#a11cfe90e96e7ea907a767f5109f7ef4b" target="_top" xlink:title="db_setlocal">
<polygon fill="none" stroke="black" points="722.5,-665.5 722.5,-684.5 787.5,-684.5 787.5,-665.5 722.5,-665.5"/>
<text text-anchor="middle" x="755" y="-672.5" font-family="Helvetica,sans-Serif" font-size="10.00">db_setlocal</text>
</a>
</g>
</g>
<!-- Node5&#45;&gt;Node10 -->
<g id="edge9" class="edge"><title>Node5&#45;&gt;Node10</title>
<path fill="none" stroke="midnightblue" d="M537.301,-690.745C590.022,-686.914 676.216,-680.652 722.408,-677.295"/>
<polygon fill="midnightblue" stroke="midnightblue" points="536.945,-687.261 527.225,-691.477 537.453,-694.243 536.945,-687.261"/>
</g>
<!-- Node11 -->
<g id="node11" class="node"><title>Node11</title>
<g id="a_node11"><a xlink:href="../../d8/d97/ldblib_8c.html#a233c3c4d12bda0fdbf515a18b8961461" target="_top" xlink:title="db_setuservalue">
<polygon fill="none" stroke="black" points="576.5,-608.5 576.5,-627.5 663.5,-627.5 663.5,-608.5 576.5,-608.5"/>
<text text-anchor="middle" x="620" y="-615.5" font-family="Helvetica,sans-Serif" font-size="10.00">db_setuservalue</text>
</a>
</g>
</g>
<!-- Node5&#45;&gt;Node11 -->
<g id="edge10" class="edge"><title>Node5&#45;&gt;Node11</title>
<path fill="none" stroke="midnightblue" d="M524.922,-679.629C527.382,-678.173 529.772,-676.626 532,-675 550.793,-661.287 548.598,-649.837 568,-637 573.674,-633.246 580.19,-630.101 586.626,-627.519"/>
<polygon fill="midnightblue" stroke="midnightblue" points="523.018,-676.679 515.865,-684.495 526.331,-682.846 523.018,-676.679"/>
</g>
<!-- Node12 -->
<g id="node12" class="node"><title>Node12</title>
<g id="a_node12"><a xlink:href="../../de/df3/liolib_8c.html#addece2406777a40f0f591e3518293932" target="_top" xlink:title="g_read">
<polygon fill="none" stroke="red" points="597,-570.5 597,-589.5 643,-589.5 643,-570.5 597,-570.5"/>
<text text-anchor="middle" x="620" y="-577.5" font-family="Helvetica,sans-Serif" font-size="10.00">g_read</text>
</a>
</g>
</g>
<!-- Node5&#45;&gt;Node12 -->
<g id="edge11" class="edge"><title>Node5&#45;&gt;Node12</title>
<path fill="none" stroke="midnightblue" d="M527.436,-678.982C529.057,-677.743 530.592,-676.417 532,-675 558.35,-648.493 540.463,-624.271 568,-599 576.006,-591.653 587.11,-587.073 596.914,-584.256"/>
<polygon fill="midnightblue" stroke="midnightblue" points="525.369,-676.149 518.808,-684.468 529.124,-682.056 525.369,-676.149"/>
</g>
<!-- Node13 -->
<g id="node13" class="node"><title>Node13</title>
<g id="a_node13"><a xlink:href="../../da/d29/lauxlib_8h.html#ad78c85dce421e9cb793e205b9e81c640" target="_top" xlink:title="luaL_checkany">
<polygon fill="none" stroke="red" points="580,-646.5 580,-665.5 660,-665.5 660,-646.5 580,-646.5"/>
<text text-anchor="middle" x="620" y="-653.5" font-family="Helvetica,sans-Serif" font-size="10.00">luaL_checkany</text>
</a>
</g>
</g>
<!-- Node5&#45;&gt;Node13 -->
<g id="edge12" class="edge"><title>Node5&#45;&gt;Node13</title>
<path fill="none" stroke="midnightblue" d="M534.229,-681.465C551.438,-676.295 571.06,-670.401 587.089,-665.586"/>
<polygon fill="midnightblue" stroke="midnightblue" points="532.992,-678.182 524.421,-684.411 535.005,-684.886 532.992,-678.182"/>
</g>
<!-- Node14 -->
<g id="node14" class="node"><title>Node14</title>
<g id="a_node14"><a xlink:href="../../da/d29/lauxlib_8h.html#a638633914d3a19650db8320c1fccf161" target="_top" xlink:title="luaL_checkoption">
<polygon fill="none" stroke="red" points="575.5,-532.5 575.5,-551.5 664.5,-551.5 664.5,-532.5 575.5,-532.5"/>
<text text-anchor="middle" x="620" y="-539.5" font-family="Helvetica,sans-Serif" font-size="10.00">luaL_checkoption</text>
</a>
</g>
</g>
<!-- Node5&#45;&gt;Node14 -->
<g id="edge14" class="edge"><title>Node5&#45;&gt;Node14</title>
<path fill="none" stroke="midnightblue" d="M528.307,-678.672C529.629,-677.527 530.869,-676.305 532,-675 566.801,-634.851 531.395,-599.512 568,-561 571.71,-557.096 576.297,-553.989 581.185,-551.517"/>
<polygon fill="midnightblue" stroke="midnightblue" points="526.26,-675.832 520.041,-684.409 530.252,-681.582 526.26,-675.832"/>
</g>
<!-- Node15 -->
<g id="node15" class="node"><title>Node15</title>
<g id="a_node15"><a xlink:href="../../dc/d77/lstrlib_8c.html#ae26a9374857058119e59d0328208c2f2" target="_top" xlink:title="str_format">
<polygon fill="none" stroke="black" points="591.5,-798.5 591.5,-817.5 648.5,-817.5 648.5,-798.5 591.5,-798.5"/>
<text text-anchor="middle" x="620" y="-805.5" font-family="Helvetica,sans-Serif" font-size="10.00">str_format</text>
</a>
</g>
</g>
<!-- Node5&#45;&gt;Node15 -->
<g id="edge15" class="edge"><title>Node5&#45;&gt;Node15</title>
<path fill="none" stroke="midnightblue" d="M502.727,-712.173C515.485,-733.34 539.171,-768.071 568,-789 574.958,-794.051 583.414,-797.912 591.423,-800.791"/>
<polygon fill="midnightblue" stroke="midnightblue" points="505.724,-710.365 497.655,-703.5 499.682,-713.899 505.724,-710.365"/>
</g>
<!-- Node7 -->
<g id="node7" class="node"><title>Node7</title>
<g id="a_node7"><a xlink:href="../../dc/dba/loslib_8c.html#a6520f2562b500aee87a6a475995adefb" target="_top" xlink:title="os_date">
<polygon fill="none" stroke="black" points="729.5,-798.5 729.5,-817.5 780.5,-817.5 780.5,-798.5 729.5,-798.5"/>
<text text-anchor="middle" x="755" y="-805.5" font-family="Helvetica,sans-Serif" font-size="10.00">os_date</text>
</a>
</g>
</g>
<!-- Node6&#45;&gt;Node7 -->
<g id="edge6" class="edge"><title>Node6&#45;&gt;Node7</title>
<path fill="none" stroke="midnightblue" d="M659.996,-745.363C664.113,-747.117 668.185,-749.004 672,-751 698.576,-764.905 726.681,-786.047 742.111,-798.295"/>
<polygon fill="midnightblue" stroke="midnightblue" points="660.991,-741.992 650.407,-741.523 658.389,-748.49 660.991,-741.992"/>
</g>
<!-- Node13&#45;&gt;Node10 -->
<g id="edge13" class="edge"><title>Node13&#45;&gt;Node10</title>
<path fill="none" stroke="midnightblue" d="M670.19,-663.027C687.584,-665.512 706.676,-668.239 722.238,-670.463"/>
<polygon fill="midnightblue" stroke="midnightblue" points="670.58,-659.547 660.185,-661.598 669.59,-666.477 670.58,-659.547"/>
</g>
<!-- Node16&#45;&gt;Node17 -->
<g id="edge17" class="edge"><title>Node16&#45;&gt;Node17</title>
<path fill="none" stroke="midnightblue" d="M522.653,-640.92C526.124,-638.293 529.359,-635.321 532,-632 563.758,-592.071 532.61,-559.748 568,-523 571.736,-519.121 576.337,-516.027 581.232,-513.561"/>
<polygon fill="midnightblue" stroke="midnightblue" points="520.722,-638.001 514.293,-646.423 524.571,-643.848 520.722,-638.001"/>
</g>
<!-- Node18 -->
<g id="node18" class="node"><title>Node18</title>
<g id="a_node18"><a xlink:href="../../d8/d97/ldblib_8c.html#ae0792d4f3f6eedd535895e05426b82df" target="_top" xlink:title="db_traceback">
<polygon fill="none" stroke="black" points="718,-494.5 718,-513.5 792,-513.5 792,-494.5 718,-494.5"/>
<text text-anchor="middle" x="755" y="-501.5" font-family="Helvetica,sans-Serif" font-size="10.00">db_traceback</text>
</a>
</g>
</g>
<!-- Node17&#45;&gt;Node18 -->
<g id="edge18" class="edge"><title>Node17&#45;&gt;Node18</title>
<path fill="none" stroke="midnightblue" d="M670.556,-504C686.142,-504 703.059,-504 717.561,-504"/>
<polygon fill="midnightblue" stroke="midnightblue" points="670.544,-500.5 660.544,-504 670.544,-507.5 670.544,-500.5"/>
</g>
<!-- Node23 -->
<g id="node23" class="node"><title>Node23</title>
<g id="a_node23"><a xlink:href="../../dd/dca/lstate_8c.html#ab65e96a7498fd886f7223b92e91fd830" target="_top" xlink:title="f_luaopen">
<polygon fill="none" stroke="black" points="213.5,-456.5 213.5,-475.5 272.5,-475.5 272.5,-456.5 213.5,-456.5"/>
<text text-anchor="middle" x="243" y="-463.5" font-family="Helvetica,sans-Serif" font-size="10.00">f_luaopen</text>
</a>
</g>
</g>
<!-- Node22&#45;&gt;Node23 -->
<g id="edge26" class="edge"><title>Node22&#45;&gt;Node23</title>
<path fill="none" stroke="midnightblue" d="M177.341,-466C189.348,-466 202.253,-466 213.352,-466"/>
<polygon fill="midnightblue" stroke="midnightblue" points="177.089,-462.5 167.089,-466 177.089,-469.5 177.089,-462.5"/>
</g>
<!-- Node24 -->
<g id="node24" class="node"><title>Node24</title>
<g id="a_node24"><a xlink:href="../../da/dd2/lua_8h.html#af722e4ac7fc0eba5920f59f0162c1b97" target="_top" xlink:title="lua_newstate">
<polygon fill="none" stroke="red" points="325.5,-456.5 325.5,-475.5 399.5,-475.5 399.5,-456.5 325.5,-456.5"/>
<text text-anchor="middle" x="362.5" y="-463.5" font-family="Helvetica,sans-Serif" font-size="10.00">lua_newstate</text>
</a>
</g>
</g>
<!-- Node23&#45;&gt;Node24 -->
<g id="edge27" class="edge"><title>Node23&#45;&gt;Node24</title>
<path fill="none" stroke="midnightblue" d="M282.869,-466C296.606,-466 311.986,-466 325.476,-466"/>
<polygon fill="midnightblue" stroke="midnightblue" points="282.744,-462.5 272.744,-466 282.744,-469.5 282.744,-462.5"/>
</g>
<!-- Node25&#45;&gt;Node7 -->
<g id="edge36" class="edge"><title>Node25&#45;&gt;Node7</title>
<path fill="none" stroke="midnightblue" d="M519.441,-926.485C533.689,-919.053 551.586,-910.101 568,-903 613.166,-883.461 628.325,-887.676 672,-865 698.774,-851.099 727.034,-829.762 742.391,-817.519"/>
<polygon fill="midnightblue" stroke="midnightblue" points="517.436,-923.585 510.223,-931.345 520.701,-929.777 517.436,-923.585"/>
</g>
<!-- Node25&#45;&gt;Node8 -->
<g id="edge32" class="edge"><title>Node25&#45;&gt;Node8</title>
<path fill="none" stroke="midnightblue" d="M508.117,-923.457C522.549,-907.983 545.153,-885.539 568,-870 576.253,-864.387 586.026,-859.436 594.797,-855.512"/>
<polygon fill="midnightblue" stroke="midnightblue" points="505.157,-921.507 500.991,-931.249 510.323,-926.232 505.157,-921.507"/>
</g>
<!-- Node26 -->
<g id="node26" class="node"><title>Node26</title>
<g id="a_node26"><a xlink:href="../../d1/dc2/_kensho_lua_wrapper_8m.html#ac812f3eb3f83c6ada24f2dadeced6d68" target="_top" xlink:title="pushValue">
<polygon fill="none" stroke="black" points="588.5,-912.5 588.5,-931.5 651.5,-931.5 651.5,-912.5 588.5,-912.5"/>
<text text-anchor="middle" x="620" y="-919.5" font-family="Helvetica,sans-Serif" font-size="10.00">pushValue</text>
</a>
</g>
</g>
<!-- Node25&#45;&gt;Node26 -->
<g id="edge29" class="edge"><title>Node25&#45;&gt;Node26</title>
<path fill="none" stroke="midnightblue" d="M542.193,-933.536C557.747,-931.2 574.45,-928.691 588.293,-926.612"/>
<polygon fill="midnightblue" stroke="midnightblue" points="541.547,-930.094 532.178,-935.04 542.587,-937.016 541.547,-930.094"/>
</g>
<!-- Node28 -->
<g id="node28" class="node"><title>Node28</title>
<g id="a_node28"><a xlink:href="../../d2/d82/loadlib_8c.html#a8fc66c8b852ee2960dc20797521d1d9e" target="_top" xlink:title="createsearcherstable">
<polygon fill="none" stroke="black" points="568,-1026.5 568,-1045.5 672,-1045.5 672,-1026.5 568,-1026.5"/>
<text text-anchor="middle" x="620" y="-1033.5" font-family="Helvetica,sans-Serif" font-size="10.00">createsearcherstable</text>
</a>
</g>
</g>
<!-- Node25&#45;&gt;Node28 -->
<g id="edge33" class="edge"><title>Node25&#45;&gt;Node28</title>
<path fill="none" stroke="midnightblue" d="M506.26,-958.759C520.218,-975.734 543.241,-1001.04 568,-1017 573.797,-1020.74 580.435,-1023.89 586.963,-1026.48"/>
<polygon fill="midnightblue" stroke="midnightblue" points="508.813,-956.347 499.826,-950.735 503.351,-960.726 508.813,-956.347"/>
</g>
<!-- Node29 -->
<g id="node29" class="node"><title>Node29</title>
<g id="a_node29"><a xlink:href="../../d6/d07/lualib_8h.html#a05e0befc0439f926b6152129ab4f8dea" target="_top" xlink:title="luaopen_package">
<polygon fill="none" stroke="black" points="708,-1045.5 708,-1064.5 802,-1064.5 802,-1045.5 708,-1045.5"/>
<text text-anchor="middle" x="755" y="-1052.5" font-family="Helvetica,sans-Serif" font-size="10.00">luaopen_package</text>
</a>
</g>
</g>
<!-- Node25&#45;&gt;Node29 -->
<g id="edge35" class="edge"><title>Node25&#45;&gt;Node29</title>
<path fill="none" stroke="midnightblue" d="M498.688,-960.184C508.517,-987.056 530.522,-1034.87 568,-1055 614.938,-1080.21 678.639,-1072.92 717.994,-1064.56"/>
<polygon fill="midnightblue" stroke="midnightblue" points="501.985,-959.01 495.409,-950.703 495.37,-961.298 501.985,-959.01"/>
</g>
<!-- Node30 -->
<g id="node30" class="node"><title>Node30</title>
<g id="a_node30"><a xlink:href="../../dc/d77/lstrlib_8c.html#a16d034da6b46e6beae228472f26ec07b" target="_top" xlink:title="createmetatable">
<polygon fill="none" stroke="black" points="578,-988.5 578,-1007.5 662,-1007.5 662,-988.5 578,-988.5"/>
<text text-anchor="middle" x="620" y="-995.5" font-family="Helvetica,sans-Serif" font-size="10.00">createmetatable</text>
</a>
</g>
</g>
<!-- Node25&#45;&gt;Node30 -->
<g id="edge37" class="edge"><title>Node25&#45;&gt;Node30</title>
<path fill="none" stroke="midnightblue" d="M519.459,-955.473C533.712,-962.892 551.608,-971.847 568,-979 575.621,-982.325 584.029,-985.61 591.782,-988.488"/>
<polygon fill="midnightblue" stroke="midnightblue" points="520.717,-952.179 510.237,-950.622 517.458,-958.375 520.717,-952.179"/>
</g>
<!-- Node32 -->
<g id="node32" class="node"><title>Node32</title>
<g id="a_node32"><a xlink:href="../../d0/da1/ltablib_8c.html#a46a372295cbd1692b06bdbac4ca58881" target="_top" xlink:title="pack">
<polygon fill="none" stroke="black" points="601,-950.5 601,-969.5 639,-969.5 639,-950.5 601,-950.5"/>
<text text-anchor="middle" x="620" y="-957.5" font-family="Helvetica,sans-Serif" font-size="10.00">pack</text>
</a>
</g>
</g>
<!-- Node25&#45;&gt;Node32 -->
<g id="edge39" class="edge"><title>Node25&#45;&gt;Node32</title>
<path fill="none" stroke="midnightblue" d="M542.146,-948.457C562.871,-951.57 585.641,-954.99 600.975,-957.293"/>
<polygon fill="midnightblue" stroke="midnightblue" points="542.587,-944.984 532.178,-946.96 541.547,-951.906 542.587,-944.984"/>
</g>
<!-- Node27 -->
<g id="node27" class="node"><title>Node27</title>
<g id="a_node27"><a xlink:href="../../d1/dc2/_kensho_lua_wrapper_8m.html#ad10bf0ff4feac9642e7477e282be41fe" target="_top" xlink:title="lookupKey">
<polygon fill="none" stroke="red" points="724,-912.5 724,-931.5 786,-931.5 786,-912.5 724,-912.5"/>
<text text-anchor="middle" x="755" y="-919.5" font-family="Helvetica,sans-Serif" font-size="10.00">lookupKey</text>
</a>
</g>
</g>
<!-- Node26&#45;&gt;Node27 -->
<g id="edge30" class="edge"><title>Node26&#45;&gt;Node27</title>
<path fill="none" stroke="midnightblue" d="M661.576,-915.728C681.557,-914.954 705.239,-915.12 723.629,-916.228"/>
<polygon fill="midnightblue" stroke="midnightblue" points="661.33,-912.236 651.513,-916.219 661.672,-919.228 661.33,-912.236"/>
</g>
<!-- Node27&#45;&gt;Node26 -->
<g id="edge31" class="edge"><title>Node27&#45;&gt;Node26</title>
<path fill="none" stroke="midnightblue" d="M713.578,-928.266C693.616,-929.045 669.93,-928.884 651.513,-927.781"/>
<polygon fill="midnightblue" stroke="midnightblue" points="713.813,-931.759 723.629,-927.772 713.469,-924.767 713.813,-931.759"/>
</g>
<!-- Node28&#45;&gt;Node29 -->
<g id="edge34" class="edge"><title>Node28&#45;&gt;Node29</title>
<path fill="none" stroke="midnightblue" d="M682.056,-1044.72C690.666,-1045.95 699.398,-1047.2 707.67,-1048.38"/>
<polygon fill="midnightblue" stroke="midnightblue" points="682.435,-1041.24 672.041,-1043.29 681.445,-1048.17 682.435,-1041.24"/>
</g>
<!-- Node31 -->
<g id="node31" class="node"><title>Node31</title>
<g id="a_node31"><a xlink:href="../../d6/d07/lualib_8h.html#a3cc052c1be81497507ee76524482eaec" target="_top" xlink:title="luaopen_string">
<polygon fill="none" stroke="black" points="716,-988.5 716,-1007.5 794,-1007.5 794,-988.5 716,-988.5"/>
<text text-anchor="middle" x="755" y="-995.5" font-family="Helvetica,sans-Serif" font-size="10.00">luaopen_string</text>
</a>
</g>
</g>
<!-- Node30&#45;&gt;Node31 -->
<g id="edge38" class="edge"><title>Node30&#45;&gt;Node31</title>
<path fill="none" stroke="midnightblue" d="M672.617,-998C687.008,-998 702.379,-998 715.843,-998"/>
<polygon fill="midnightblue" stroke="midnightblue" points="672.353,-994.5 662.353,-998 672.353,-1001.5 672.353,-994.5"/>
</g>
<!-- Node34 -->
<g id="node34" class="node"><title>Node34</title>
<g id="a_node34"><a xlink:href="../../d2/dd9/ldo_8h.html#a7bb0b106d4012134156e0fa240f51228" target="_top" xlink:title="luaD_call">
<polygon fill="none" stroke="black" points="215,-285.5 215,-304.5 271,-304.5 271,-285.5 215,-285.5"/>
<text text-anchor="middle" x="243" y="-292.5" font-family="Helvetica,sans-Serif" font-size="10.00">luaD_call</text>
</a>
</g>
</g>
<!-- Node33&#45;&gt;Node34 -->
<g id="edge41" class="edge"><title>Node33&#45;&gt;Node34</title>
<path fill="none" stroke="midnightblue" d="M153.152,-354.276C171.327,-339.014 200.914,-317.431 220.902,-304.736"/>
<polygon fill="midnightblue" stroke="midnightblue" points="150.464,-351.977 145.239,-361.193 155.071,-357.247 150.464,-351.977"/>
</g>
<!-- Node41 -->
<g id="node41" class="node"><title>Node41</title>
<g id="a_node41"><a xlink:href="../../d3/d08/ldo_8c.html#a3baab9d298c0c32cb74a9a079d7244de" target="_top" xlink:title="unroll">
<polygon fill="none" stroke="black" points="224,-399.5 224,-418.5 262,-418.5 262,-399.5 224,-399.5"/>
<text text-anchor="middle" x="243" y="-406.5" font-family="Helvetica,sans-Serif" font-size="10.00">unroll</text>
</a>
</g>
</g>
<!-- Node33&#45;&gt;Node41 -->
<g id="edge50" class="edge"><title>Node33&#45;&gt;Node41</title>
<path fill="none" stroke="midnightblue" d="M173.185,-384.096C190.249,-390.271 209.866,-397.371 223.778,-402.405"/>
<polygon fill="midnightblue" stroke="midnightblue" points="174.09,-380.701 163.496,-380.589 171.708,-387.283 174.09,-380.701"/>
</g>
<!-- Node43 -->
<g id="node43" class="node"><title>Node43</title>
<g id="a_node43"><a xlink:href="../../d3/d08/ldo_8c.html#abd7632c715de5db6e7797b7fa3f7010f" target="_top" xlink:title="resume">
<polygon fill="none" stroke="black" points="339,-380.5 339,-399.5 386,-399.5 386,-380.5 339,-380.5"/>
<text text-anchor="middle" x="362.5" y="-387.5" font-family="Helvetica,sans-Serif" font-size="10.00">resume</text>
</a>
</g>
</g>
<!-- Node33&#45;&gt;Node43 -->
<g id="edge54" class="edge"><title>Node33&#45;&gt;Node43</title>
<path fill="none" stroke="midnightblue" d="M183.096,-374.901C230.554,-378.918 302.539,-385.01 338.854,-388.083"/>
<polygon fill="midnightblue" stroke="midnightblue" points="183.329,-371.409 173.07,-374.053 182.739,-378.384 183.329,-371.409"/>
</g>
<!-- Node34&#45;&gt;Node33 -->
<g id="edge49" class="edge"><title>Node34&#45;&gt;Node33</title>
<path fill="none" stroke="midnightblue" d="M225.676,-311.869C207.379,-327.213 177.673,-348.865 157.745,-361.489"/>
<polygon fill="midnightblue" stroke="midnightblue" points="228.416,-314.123 233.648,-304.91 223.813,-308.849 228.416,-314.123"/>
</g>
<!-- Node35 -->
<g id="node35" class="node"><title>Node35</title>
<g id="a_node35"><a xlink:href="../../dd/d4a/lvm_8c.html#aa904883a58699d9c6ef4d6f0f45037f6" target="_top" xlink:title="callTM">
<polygon fill="none" stroke="red" points="340.5,-304.5 340.5,-323.5 384.5,-323.5 384.5,-304.5 340.5,-304.5"/>
<text text-anchor="middle" x="362.5" y="-311.5" font-family="Helvetica,sans-Serif" font-size="10.00">callTM</text>
</a>
</g>
</g>
<!-- Node34&#45;&gt;Node35 -->
<g id="edge42" class="edge"><title>Node34&#45;&gt;Node35</title>
<path fill="none" stroke="midnightblue" d="M281.329,-301.036C300.782,-304.182 323.865,-307.914 340.256,-310.565"/>
<polygon fill="midnightblue" stroke="midnightblue" points="281.683,-297.548 271.252,-299.407 280.565,-304.458 281.683,-297.548"/>
</g>
<!-- Node36 -->
<g id="node36" class="node"><title>Node36</title>
<g id="a_node36"><a xlink:href="../../de/d27/lgc_8c.html#a929058f72c03750fa82374f6bfa639ee" target="_top" xlink:title="dothecall">
<polygon fill="none" stroke="red" points="336,-266.5 336,-285.5 389,-285.5 389,-266.5 336,-266.5"/>
<text text-anchor="middle" x="362.5" y="-273.5" font-family="Helvetica,sans-Serif" font-size="10.00">dothecall</text>
</a>
</g>
</g>
<!-- Node34&#45;&gt;Node36 -->
<g id="edge43" class="edge"><title>Node34&#45;&gt;Node36</title>
<path fill="none" stroke="midnightblue" d="M281.261,-288.975C298.952,-286.114 319.659,-282.766 335.605,-280.187"/>
<polygon fill="midnightblue" stroke="midnightblue" points="280.565,-285.542 271.252,-290.593 281.683,-292.452 280.565,-285.542"/>
</g>
<!-- Node37 -->
<g id="node37" class="node"><title>Node37</title>
<g id="a_node37"><a xlink:href="../../df/db6/lapi_8c.html#ac3926c93fb08234f9f47e24653124910" target="_top" xlink:title="f_call">
<polygon fill="none" stroke="black" points="343.5,-190.5 343.5,-209.5 381.5,-209.5 381.5,-190.5 343.5,-190.5"/>
<text text-anchor="middle" x="362.5" y="-197.5" font-family="Helvetica,sans-Serif" font-size="10.00">f_call</text>
</a>
</g>
</g>
<!-- Node34&#45;&gt;Node37 -->
<g id="edge44" class="edge"><title>Node34&#45;&gt;Node37</title>
<path fill="none" stroke="midnightblue" d="M257.552,-276.862C269.89,-261.299 289.296,-239.064 310,-224 320.21,-216.572 333.085,-210.572 343.407,-206.429"/>
<polygon fill="midnightblue" stroke="midnightblue" points="254.493,-275.096 251.147,-285.149 260.032,-279.377 254.493,-275.096"/>
</g>
<!-- Node38 -->
<g id="node38" class="node"><title>Node38</title>
<g id="a_node38"><a xlink:href="../../da/dd2/lua_8h.html#a3c4de08aa665eaee4aabd330aa99a441" target="_top" xlink:title="lua_pcallk">
<polygon fill="none" stroke="red" points="462,-209.5 462,-228.5 521,-228.5 521,-209.5 462,-209.5"/>
<text text-anchor="middle" x="491.5" y="-216.5" font-family="Helvetica,sans-Serif" font-size="10.00">lua_pcallk</text>
</a>
</g>
</g>
<!-- Node34&#45;&gt;Node38 -->
<g id="edge47" class="edge"><title>Node34&#45;&gt;Node38</title>
<path fill="none" stroke="midnightblue" d="M266.476,-279.685C278.846,-271.879 294.745,-262.829 310,-257 361.603,-237.284 425.618,-226.885 461.888,-222.198"/>
<polygon fill="midnightblue" stroke="midnightblue" points="264.253,-276.955 257.774,-285.338 268.066,-282.826 264.253,-276.955"/>
</g>
<!-- Node39 -->
<g id="node39" class="node"><title>Node39</title>
<g id="a_node39"><a xlink:href="../../da/dd2/lua_8h.html#aa6aba1fd89ac6f1c5ccfdfd12f826d80" target="_top" xlink:title="lua_callk">
<polygon fill="none" stroke="red" points="336,-152.5 336,-171.5 389,-171.5 389,-152.5 336,-152.5"/>
<text text-anchor="middle" x="362.5" y="-159.5" font-family="Helvetica,sans-Serif" font-size="10.00">lua_callk</text>
</a>
</g>
</g>
<!-- Node34&#45;&gt;Node39 -->
<g id="edge46" class="edge"><title>Node34&#45;&gt;Node39</title>
<path fill="none" stroke="midnightblue" d="M250.446,-275.724C259.783,-250.582 279.383,-206.774 310,-181 317.364,-174.801 326.933,-170.536 335.822,-167.644"/>
<polygon fill="midnightblue" stroke="midnightblue" points="247.111,-274.655 247.07,-285.25 253.709,-276.993 247.111,-274.655"/>
</g>
<!-- Node40 -->
<g id="node40" class="node"><title>Node40</title>
<g id="a_node40"><a xlink:href="../../db/d46/ldebug_8h.html#acd5ef9f67a8e9d08f6540636fdbeafe6" target="_top" xlink:title="luaG_errormsg">
<polygon fill="none" stroke="red" points="323.5,-342.5 323.5,-361.5 401.5,-361.5 401.5,-342.5 323.5,-342.5"/>
<text text-anchor="middle" x="362.5" y="-349.5" font-family="Helvetica,sans-Serif" font-size="10.00">luaG_errormsg</text>
</a>
</g>
</g>
<!-- Node34&#45;&gt;Node40 -->
<g id="edge48" class="edge"><title>Node34&#45;&gt;Node40</title>
<path fill="none" stroke="midnightblue" d="M267.823,-310.021C280.147,-317.454 295.592,-326.253 310,-333 317.336,-336.435 325.478,-339.684 333.082,-342.491"/>
<polygon fill="midnightblue" stroke="midnightblue" points="269.431,-306.902 259.076,-304.661 265.774,-312.871 269.431,-306.902"/>
</g>
<!-- Node37&#45;&gt;Node38 -->
<g id="edge45" class="edge"><title>Node37&#45;&gt;Node38</title>
<path fill="none" stroke="midnightblue" d="M391.803,-204.234C412.555,-207.339 440.639,-211.54 461.543,-214.668"/>
<polygon fill="midnightblue" stroke="midnightblue" points="392.104,-200.74 381.696,-202.722 391.068,-207.663 392.104,-200.74"/>
</g>
<!-- Node42 -->
<g id="node42" class="node"><title>Node42</title>
<g id="a_node42"><a xlink:href="../../da/dd2/lua_8h.html#a434479f022eda738b99000aad5ddd929" target="_top" xlink:title="lua_resume">
<polygon fill="none" stroke="red" points="459,-399.5 459,-418.5 524,-418.5 524,-399.5 459,-399.5"/>
<text text-anchor="middle" x="491.5" y="-406.5" font-family="Helvetica,sans-Serif" font-size="10.00">lua_resume</text>
</a>
</g>
</g>
<!-- Node41&#45;&gt;Node42 -->
<g id="edge51" class="edge"><title>Node41&#45;&gt;Node42</title>
<path fill="none" stroke="midnightblue" d="M272.349,-409C318.674,-409 410.283,-409 458.734,-409"/>
<polygon fill="midnightblue" stroke="midnightblue" points="272.126,-405.5 262.126,-409 272.126,-412.5 272.126,-405.5"/>
</g>
<!-- Node41&#45;&gt;Node43 -->
<g id="edge52" class="edge"><title>Node41&#45;&gt;Node43</title>
<path fill="none" stroke="midnightblue" d="M272.06,-404.463C292.45,-401.165 319.698,-396.759 338.74,-393.68"/>
<polygon fill="midnightblue" stroke="midnightblue" points="271.415,-401.021 262.102,-406.073 272.532,-407.932 271.415,-401.021"/>
</g>
<!-- Node43&#45;&gt;Node42 -->
<g id="edge53" class="edge"><title>Node43&#45;&gt;Node42</title>
<path fill="none" stroke="midnightblue" d="M396.343,-394.913C415.625,-397.798 439.87,-401.425 458.928,-404.277"/>
<polygon fill="midnightblue" stroke="midnightblue" points="396.613,-391.415 386.205,-393.397 395.577,-398.338 396.613,-391.415"/>
</g>
<!-- Node45 -->
<g id="node45" class="node"><title>Node45</title>
<g id="a_node45"><a xlink:href="../../d8/d9c/lparser_8c.html#aa6a712055fa7e1b41488c71be4f55303" target="_top" xlink:title="body">
<polygon fill="none" stroke="black" points="224,-76.5 224,-95.5 262,-95.5 262,-76.5 224,-76.5"/>
<text text-anchor="middle" x="243" y="-83.5" font-family="Helvetica,sans-Serif" font-size="10.00">body</text>
</a>
</g>
</g>
<!-- Node44&#45;&gt;Node45 -->
<g id="edge56" class="edge"><title>Node44&#45;&gt;Node45</title>
<path fill="none" stroke="midnightblue" d="M176.854,-86C193.048,-86 210.95,-86 223.883,-86"/>
<polygon fill="midnightblue" stroke="midnightblue" points="176.528,-82.5001 166.528,-86 176.528,-89.5001 176.528,-82.5001"/>
</g>
<!-- Node49 -->
<g id="node49" class="node"><title>Node49</title>
<g id="a_node49"><a xlink:href="../../d8/d9c/lparser_8c.html#a011959c631cc7cfc75646a0fddc1a149" target="_top" xlink:title="mainfunc">
<polygon fill="none" stroke="black" points="216,-19.5 216,-38.5 270,-38.5 270,-19.5 216,-19.5"/>
<text text-anchor="middle" x="243" y="-26.5" font-family="Helvetica,sans-Serif" font-size="10.00">mainfunc</text>
</a>
</g>
</g>
<!-- Node44&#45;&gt;Node49 -->
<g id="edge60" class="edge"><title>Node44&#45;&gt;Node49</title>
<path fill="none" stroke="midnightblue" d="M163.623,-71.5475C182.697,-61.1931 207.847,-47.54 224.451,-38.5265"/>
<polygon fill="midnightblue" stroke="midnightblue" points="161.931,-68.4838 154.812,-76.3307 165.27,-74.6357 161.931,-68.4838"/>
</g>
<!-- Node46 -->
<g id="node46" class="node"><title>Node46</title>
<g id="a_node46"><a xlink:href="../../d8/d9c/lparser_8c.html#a7ab22c159a4bdcda2bd652f01229111b" target="_top" xlink:title="funcstat">
<polygon fill="none" stroke="red" points="337.5,-114.5 337.5,-133.5 387.5,-133.5 387.5,-114.5 337.5,-114.5"/>
<text text-anchor="middle" x="362.5" y="-121.5" font-family="Helvetica,sans-Serif" font-size="10.00">funcstat</text>
</a>
</g>
</g>
<!-- Node45&#45;&gt;Node46 -->
<g id="edge57" class="edge"><title>Node45&#45;&gt;Node46</title>
<path fill="none" stroke="midnightblue" d="M271.86,-95.0101C291.824,-101.467 318.438,-110.074 337.471,-116.229"/>
<polygon fill="midnightblue" stroke="midnightblue" points="272.694,-91.6012 262.102,-91.8542 270.54,-98.2616 272.694,-91.6012"/>
</g>
<!-- Node47 -->
<g id="node47" class="node"><title>Node47</title>
<g id="a_node47"><a xlink:href="../../d8/d9c/lparser_8c.html#a906778e7e7ae16a38c8c6b38bdc34f13" target="_top" xlink:title="localfunc">
<polygon fill="none" stroke="red" points="336,-76.5 336,-95.5 389,-95.5 389,-76.5 336,-76.5"/>
<text text-anchor="middle" x="362.5" y="-83.5" font-family="Helvetica,sans-Serif" font-size="10.00">localfunc</text>
</a>
</g>
</g>
<!-- Node45&#45;&gt;Node47 -->
<g id="edge58" class="edge"><title>Node45&#45;&gt;Node47</title>
<path fill="none" stroke="midnightblue" d="M272.13,-86C291.464,-86 316.939,-86 335.743,-86"/>
<polygon fill="midnightblue" stroke="midnightblue" points="272.102,-82.5001 262.102,-86 272.102,-89.5001 272.102,-82.5001"/>
</g>
<!-- Node48 -->
<g id="node48" class="node"><title>Node48</title>
<g id="a_node48"><a xlink:href="../../d8/d9c/lparser_8c.html#a3b0b05af60978b05faf5713968573985" target="_top" xlink:title="simpleexp">
<polygon fill="none" stroke="red" points="332.5,-38.5 332.5,-57.5 392.5,-57.5 392.5,-38.5 332.5,-38.5"/>
<text text-anchor="middle" x="362.5" y="-45.5" font-family="Helvetica,sans-Serif" font-size="10.00">simpleexp</text>
</a>
</g>
</g>
<!-- Node45&#45;&gt;Node48 -->
<g id="edge59" class="edge"><title>Node45&#45;&gt;Node48</title>
<path fill="none" stroke="midnightblue" d="M271.823,-77.0018C290,-71.1233 313.702,-63.4581 332.173,-57.4845"/>
<polygon fill="midnightblue" stroke="midnightblue" points="270.54,-73.7384 262.102,-80.1458 272.694,-80.3988 270.54,-73.7384"/>
</g>
<!-- Node50 -->
<g id="node50" class="node"><title>Node50</title>
<g id="a_node50"><a xlink:href="../../d7/d09/lparser_8h.html#af454a43b1cd59d15997af813448e3dbf" target="_top" xlink:title="luaY_parser">
<polygon fill="none" stroke="red" points="328.5,-0.5 328.5,-19.5 396.5,-19.5 396.5,-0.5 328.5,-0.5"/>
<text text-anchor="middle" x="362.5" y="-7.5" font-family="Helvetica,sans-Serif" font-size="10.00">luaY_parser</text>
</a>
</g>
</g>
<!-- Node49&#45;&gt;Node50 -->
<g id="edge61" class="edge"><title>Node49&#45;&gt;Node50</title>
<path fill="none" stroke="midnightblue" d="M280.249,-23.1384C295.591,-20.6577 313.344,-17.787 328.335,-15.3629"/>
<polygon fill="midnightblue" stroke="midnightblue" points="279.39,-19.7318 270.077,-24.7833 280.508,-26.642 279.39,-19.7318"/>
</g>
</g>
</svg>
