<?xml version="1.0" encoding="UTF-8" standalone="no"?>
<!DOCTYPE svg PUBLIC "-//W3C//DTD SVG 1.1//EN"
 "http://www.w3.org/Graphics/SVG/1.1/DTD/svg11.dtd">
<!-- Generated by graphviz version 2.38.0 (20140413.2041)
 -->
<!-- Title: luaM_toobig Pages: 1 -->
<svg width="800pt" height="1244pt"
 viewBox="0.00 0.00 800.00 1244.00" xmlns="http://www.w3.org/2000/svg" xmlns:xlink="http://www.w3.org/1999/xlink">
<g id="graph0" class="graph" transform="scale(1 1) rotate(0) translate(4 1240)">
<title>luaM_toobig</title>
<!-- Node1 -->
<g id="node1" class="node"><title>Node1</title>
<polygon fill="#bfbfbf" stroke="black" points="0,-284.5 0,-303.5 68,-303.5 68,-284.5 0,-284.5"/>
<text text-anchor="middle" x="34" y="-291.5" font-family="Helvetica,sans-Serif" font-size="10.00">luaM_toobig</text>
</g>
<!-- Node2 -->
<g id="node2" class="node"><title>Node2</title>
<g id="a_node2"><a xlink:href="../../d4/dfb/lstring_8h.html#a248e72694b9116b07b2e7f4a9a3a5331" target="_top" xlink:title="luaS_newlstr">
<polygon fill="none" stroke="black" points="111,-332.5 111,-351.5 182,-351.5 182,-332.5 111,-332.5"/>
<text text-anchor="middle" x="146.5" y="-339.5" font-family="Helvetica,sans-Serif" font-size="10.00">luaS_newlstr</text>
</a>
</g>
</g>
<!-- Node1&#45;&gt;Node2 -->
<g id="edge1" class="edge"><title>Node1&#45;&gt;Node2</title>
<path fill="none" stroke="midnightblue" d="M66.4381,-307.656C84.6441,-315.565 107.116,-325.326 123.443,-332.418"/>
<polygon fill="midnightblue" stroke="midnightblue" points="67.6623,-304.372 57.0957,-303.598 64.8733,-310.793 67.6623,-304.372"/>
</g>
<!-- Node49 -->
<g id="node49" class="node"><title>Node49</title>
<g id="a_node49"><a xlink:href="../../d4/dfb/lstring_8h.html#ae37cd34a1b766c6d581332cff143ea92" target="_top" xlink:title="luaS_newudata">
<polygon fill="none" stroke="black" points="104,-237.5 104,-256.5 189,-256.5 189,-237.5 104,-237.5"/>
<text text-anchor="middle" x="146.5" y="-244.5" font-family="Helvetica,sans-Serif" font-size="10.00">luaS_newudata</text>
</a>
</g>
</g>
<!-- Node1&#45;&gt;Node49 -->
<g id="edge58" class="edge"><title>Node1&#45;&gt;Node49</title>
<path fill="none" stroke="midnightblue" d="M66.827,-280.463C84.722,-272.851 106.64,-263.529 122.793,-256.658"/>
<polygon fill="midnightblue" stroke="midnightblue" points="65.1936,-277.354 57.3613,-284.489 67.9335,-283.796 65.1936,-277.354"/>
</g>
<!-- Node3 -->
<g id="node3" class="node"><title>Node3</title>
<g id="a_node3"><a xlink:href="../../da/dd2/lua_8h.html#a4ab8500ade8e1d8a87b1df1baf19b179" target="_top" xlink:title="lua_pushlstring">
<polygon fill="none" stroke="black" points="230.5,-760.5 230.5,-779.5 310.5,-779.5 310.5,-760.5 230.5,-760.5"/>
<text text-anchor="middle" x="270.5" y="-767.5" font-family="Helvetica,sans-Serif" font-size="10.00">lua_pushlstring</text>
</a>
</g>
</g>
<!-- Node2&#45;&gt;Node3 -->
<g id="edge2" class="edge"><title>Node2&#45;&gt;Node3</title>
<path fill="none" stroke="midnightblue" d="M153.145,-361.803C174.695,-437.404 251.344,-706.306 266.78,-760.457"/>
<polygon fill="midnightblue" stroke="midnightblue" points="156.385,-360.401 150.277,-351.744 149.653,-362.32 156.385,-360.401"/>
</g>
<!-- Node12 -->
<g id="node12" class="node"><title>Node12</title>
<g id="a_node12"><a xlink:href="../../da/dd2/lua_8h.html#a4eba0457df5bafff4d44071d1d8080b6" target="_top" xlink:title="lua_concat">
<polygon fill="none" stroke="black" points="370,-152.5 370,-171.5 432,-171.5 432,-152.5 370,-152.5"/>
<text text-anchor="middle" x="401" y="-159.5" font-family="Helvetica,sans-Serif" font-size="10.00">lua_concat</text>
</a>
</g>
</g>
<!-- Node2&#45;&gt;Node12 -->
<g id="edge13" class="edge"><title>Node2&#45;&gt;Node12</title>
<path fill="none" stroke="midnightblue" d="M164.996,-325.286C198.824,-293.672 276.53,-224.404 352,-181 358.215,-177.425 365.234,-174.229 371.946,-171.525"/>
<polygon fill="midnightblue" stroke="midnightblue" points="162.247,-323.068 157.37,-332.473 167.048,-328.162 162.247,-323.068"/>
</g>
<!-- Node18 -->
<g id="node18" class="node"><title>Node18</title>
<g id="a_node18"><a xlink:href="../../dd/d05/lcode_8h.html#a4f928250a0f4007764b4d3777651f617" target="_top" xlink:title="luaK_numberK">
<polygon fill="none" stroke="black" points="230.5,-76.5 230.5,-95.5 310.5,-95.5 310.5,-76.5 230.5,-76.5"/>
<text text-anchor="middle" x="270.5" y="-83.5" font-family="Helvetica,sans-Serif" font-size="10.00">luaK_numberK</text>
</a>
</g>
</g>
<!-- Node2&#45;&gt;Node18 -->
<g id="edge21" class="edge"><title>Node2&#45;&gt;Node18</title>
<path fill="none" stroke="midnightblue" d="M159.617,-323.346C168.856,-308.378 181.269,-286.545 189,-266 214.822,-197.375 178.123,-161.38 225,-105 228.222,-101.124 232.379,-98.0217 236.854,-95.5427"/>
<polygon fill="midnightblue" stroke="midnightblue" points="156.464,-321.784 154.086,-332.108 162.384,-325.521 156.464,-321.784"/>
</g>
<!-- Node22 -->
<g id="node22" class="node"><title>Node22</title>
<g id="a_node22"><a xlink:href="../../d8/d27/llex_8h.html#aa6e79179f823cf156f61899a09239ca6" target="_top" xlink:title="luaX_newstring">
<polygon fill="none" stroke="black" points="230,-1121.5 230,-1140.5 311,-1140.5 311,-1121.5 230,-1121.5"/>
<text text-anchor="middle" x="270.5" y="-1128.5" font-family="Helvetica,sans-Serif" font-size="10.00">luaX_newstring</text>
</a>
</g>
</g>
<!-- Node2&#45;&gt;Node22 -->
<g id="edge25" class="edge"><title>Node2&#45;&gt;Node22</title>
<path fill="none" stroke="midnightblue" d="M147.925,-362.074C150.061,-444.409 162.179,-763.845 225,-1017 234.927,-1057 255.364,-1101.84 264.681,-1121.22"/>
<polygon fill="midnightblue" stroke="midnightblue" points="151.415,-361.596 147.678,-351.682 144.417,-361.763 151.415,-361.596"/>
</g>
<!-- Node28 -->
<g id="node28" class="node"><title>Node28</title>
<g id="a_node28"><a xlink:href="../../d7/d9b/lobject_8c.html#aa65db03553a5abd73e466d307bb17a37" target="_top" xlink:title="pushstr">
<polygon fill="none" stroke="black" points="246.5,-114.5 246.5,-133.5 294.5,-133.5 294.5,-114.5 246.5,-114.5"/>
<text text-anchor="middle" x="270.5" y="-121.5" font-family="Helvetica,sans-Serif" font-size="10.00">pushstr</text>
</a>
</g>
</g>
<!-- Node2&#45;&gt;Node28 -->
<g id="edge33" class="edge"><title>Node2&#45;&gt;Node28</title>
<path fill="none" stroke="midnightblue" d="M158.948,-323.706C168.011,-308.645 180.514,-286.512 189,-266 210.775,-213.366 187.185,-185.597 225,-143 230.577,-136.718 238.587,-132.444 246.278,-129.569"/>
<polygon fill="midnightblue" stroke="midnightblue" points="155.804,-322.138 153.566,-332.494 161.774,-325.794 155.804,-322.138"/>
</g>
<!-- Node30 -->
<g id="node30" class="node"><title>Node30</title>
<g id="a_node30"><a xlink:href="../../d4/dfb/lstring_8h.html#a6929da8cfde3e74a0d51a6467909ef9d" target="_top" xlink:title="luaS_new">
<polygon fill="none" stroke="black" points="240.5,-380.5 240.5,-399.5 300.5,-399.5 300.5,-380.5 240.5,-380.5"/>
<text text-anchor="middle" x="270.5" y="-387.5" font-family="Helvetica,sans-Serif" font-size="10.00">luaS_new</text>
</a>
</g>
</g>
<!-- Node2&#45;&gt;Node30 -->
<g id="edge35" class="edge"><title>Node2&#45;&gt;Node30</title>
<path fill="none" stroke="midnightblue" d="M181.379,-355.329C201.623,-363.294 226.872,-373.228 245.147,-380.418"/>
<polygon fill="midnightblue" stroke="midnightblue" points="182.482,-352.002 171.895,-351.598 179.92,-358.516 182.482,-352.002"/>
</g>
<!-- Node43 -->
<g id="node43" class="node"><title>Node43</title>
<g id="a_node43"><a xlink:href="../../de/d2f/lundump_8c.html#abfe7dabe70bd14e27d54d3cedc6cb70a" target="_top" xlink:title="LoadString">
<polygon fill="none" stroke="black" points="239.5,-988.5 239.5,-1007.5 301.5,-1007.5 301.5,-988.5 239.5,-988.5"/>
<text text-anchor="middle" x="270.5" y="-995.5" font-family="Helvetica,sans-Serif" font-size="10.00">LoadString</text>
</a>
</g>
</g>
<!-- Node2&#45;&gt;Node43 -->
<g id="edge50" class="edge"><title>Node2&#45;&gt;Node43</title>
<path fill="none" stroke="midnightblue" d="M148.102,-361.983C150.766,-435.54 164.231,-697.614 225,-903 234.715,-935.833 254.16,-971.677 263.805,-988.402"/>
<polygon fill="midnightblue" stroke="midnightblue" points="151.595,-361.711 147.761,-351.834 144.599,-361.946 151.595,-361.711"/>
</g>
<!-- Node46 -->
<g id="node46" class="node"><title>Node46</title>
<g id="a_node46"><a xlink:href="../../d5/dcd/lvm_8h.html#abcde68a7697547dc2c7f1d0e6734e611" target="_top" xlink:title="luaV_tostring">
<polygon fill="none" stroke="black" points="235,-874.5 235,-893.5 306,-893.5 306,-874.5 235,-874.5"/>
<text text-anchor="middle" x="270.5" y="-881.5" font-family="Helvetica,sans-Serif" font-size="10.00">luaV_tostring</text>
</a>
</g>
</g>
<!-- Node2&#45;&gt;Node46 -->
<g id="edge53" class="edge"><title>Node2&#45;&gt;Node46</title>
<path fill="none" stroke="midnightblue" d="M149.046,-361.848C154.388,-425.358 174.589,-628.802 225,-789 235.278,-821.661 254.459,-857.585 263.924,-874.366"/>
<polygon fill="midnightblue" stroke="midnightblue" points="152.516,-361.343 148.217,-351.66 145.539,-361.911 152.516,-361.343"/>
</g>
<!-- Node48 -->
<g id="node48" class="node"><title>Node48</title>
<g id="a_node48"><a xlink:href="../../d5/dcd/lvm_8h.html#aee84bfc563cb4bdd21a013218a289aa7" target="_top" xlink:title="luaV_concat">
<polygon fill="none" stroke="red" points="236,-152.5 236,-171.5 305,-171.5 305,-152.5 236,-152.5"/>
<text text-anchor="middle" x="270.5" y="-159.5" font-family="Helvetica,sans-Serif" font-size="10.00">luaV_concat</text>
</a>
</g>
</g>
<!-- Node2&#45;&gt;Node48 -->
<g id="edge55" class="edge"><title>Node2&#45;&gt;Node48</title>
<path fill="none" stroke="midnightblue" d="M159.81,-323.838C185.347,-286.16 243.338,-200.6 262.908,-171.725"/>
<polygon fill="midnightblue" stroke="midnightblue" points="156.773,-322.081 154.059,-332.322 162.567,-326.008 156.773,-322.081"/>
</g>
<!-- Node4 -->
<g id="node4" class="node"><title>Node4</title>
<g id="a_node4"><a xlink:href="../../da/d29/lauxlib_8h.html#aac5dfab9ba0ced4f5ae3b22aa35faffe" target="_top" xlink:title="luaL_pushresult">
<polygon fill="none" stroke="red" points="359.5,-874.5 359.5,-893.5 442.5,-893.5 442.5,-874.5 359.5,-874.5"/>
<text text-anchor="middle" x="401" y="-881.5" font-family="Helvetica,sans-Serif" font-size="10.00">luaL_pushresult</text>
</a>
</g>
</g>
<!-- Node3&#45;&gt;Node4 -->
<g id="edge3" class="edge"><title>Node3&#45;&gt;Node4</title>
<path fill="none" stroke="midnightblue" d="M284.196,-787.847C298.822,-807.444 324.408,-838.922 352,-860 359.404,-865.656 368.348,-870.555 376.499,-874.426"/>
<polygon fill="midnightblue" stroke="midnightblue" points="287.009,-785.764 278.28,-779.759 281.359,-789.897 287.009,-785.764"/>
</g>
<!-- Node5 -->
<g id="node5" class="node"><title>Node5</title>
<g id="a_node5"><a xlink:href="../../de/df3/liolib_8c.html#ace61fce0bdea311d6d7c2206881165c7" target="_top" xlink:title="test_eof">
<polygon fill="none" stroke="red" points="376,-760.5 376,-779.5 426,-779.5 426,-760.5 376,-760.5"/>
<text text-anchor="middle" x="401" y="-767.5" font-family="Helvetica,sans-Serif" font-size="10.00">test_eof</text>
</a>
</g>
</g>
<!-- Node3&#45;&gt;Node5 -->
<g id="edge4" class="edge"><title>Node3&#45;&gt;Node5</title>
<path fill="none" stroke="midnightblue" d="M320.989,-770C339.826,-770 360.452,-770 375.906,-770"/>
<polygon fill="midnightblue" stroke="midnightblue" points="320.752,-766.5 310.752,-770 320.752,-773.5 320.752,-766.5"/>
</g>
<!-- Node6 -->
<g id="node6" class="node"><title>Node6</title>
<g id="a_node6"><a xlink:href="../../d2/d82/loadlib_8c.html#aa1ea5ee1b54a06650a887c4ee05a8547" target="_top" xlink:title="pushnexttemplate">
<polygon fill="none" stroke="red" points="355,-722.5 355,-741.5 447,-741.5 447,-722.5 355,-722.5"/>
<text text-anchor="middle" x="401" y="-729.5" font-family="Helvetica,sans-Serif" font-size="10.00">pushnexttemplate</text>
</a>
</g>
</g>
<!-- Node3&#45;&gt;Node6 -->
<g id="edge5" class="edge"><title>Node3&#45;&gt;Node6</title>
<path fill="none" stroke="midnightblue" d="M313.889,-757.465C331.37,-752.295 351.302,-746.401 367.584,-741.586"/>
<polygon fill="midnightblue" stroke="midnightblue" points="312.523,-754.219 303.926,-760.411 314.508,-760.931 312.523,-754.219"/>
</g>
<!-- Node7 -->
<g id="node7" class="node"><title>Node7</title>
<g id="a_node7"><a xlink:href="../../d2/d82/loadlib_8c.html#a91ac5b5231cf039af46226806dcc3884" target="_top" xlink:title="loadfunc">
<polygon fill="none" stroke="red" points="375,-646.5 375,-665.5 427,-665.5 427,-646.5 375,-646.5"/>
<text text-anchor="middle" x="401" y="-653.5" font-family="Helvetica,sans-Serif" font-size="10.00">loadfunc</text>
</a>
</g>
</g>
<!-- Node3&#45;&gt;Node7 -->
<g id="edge6" class="edge"><title>Node3&#45;&gt;Node7</title>
<path fill="none" stroke="midnightblue" d="M284.196,-752.153C298.822,-732.556 324.408,-701.078 352,-680 359.404,-674.344 368.348,-669.445 376.499,-665.574"/>
<polygon fill="midnightblue" stroke="midnightblue" points="281.359,-750.103 278.28,-760.241 287.009,-754.236 281.359,-750.103"/>
</g>
<!-- Node8 -->
<g id="node8" class="node"><title>Node8</title>
<g id="a_node8"><a xlink:href="../../d2/d82/loadlib_8c.html#a1ec05cd98a045c271aeda9f9c6041e1c" target="_top" xlink:title="searcher_Croot">
<polygon fill="none" stroke="red" points="486.5,-646.5 486.5,-665.5 566.5,-665.5 566.5,-646.5 486.5,-646.5"/>
<text text-anchor="middle" x="526.5" y="-653.5" font-family="Helvetica,sans-Serif" font-size="10.00">searcher_Croot</text>
</a>
</g>
</g>
<!-- Node3&#45;&gt;Node8 -->
<g id="edge8" class="edge"><title>Node3&#45;&gt;Node8</title>
<path fill="none" stroke="midnightblue" d="M290.688,-753.912C306.373,-741.397 329.549,-724.314 352,-713 395.886,-690.885 450.233,-674.654 486.284,-665.289"/>
<polygon fill="midnightblue" stroke="midnightblue" points="288.347,-751.304 282.797,-760.329 292.763,-756.735 288.347,-751.304"/>
</g>
<!-- Node9 -->
<g id="node9" class="node"><title>Node9</title>
<g id="a_node9"><a xlink:href="../../dc/d77/lstrlib_8c.html#a039b391d5f43533a0ce750c5e40d7752" target="_top" xlink:title="str_sub">
<polygon fill="none" stroke="black" points="377,-912.5 377,-931.5 425,-931.5 425,-912.5 377,-912.5"/>
<text text-anchor="middle" x="401" y="-919.5" font-family="Helvetica,sans-Serif" font-size="10.00">str_sub</text>
</a>
</g>
</g>
<!-- Node3&#45;&gt;Node9 -->
<g id="edge9" class="edge"><title>Node3&#45;&gt;Node9</title>
<path fill="none" stroke="midnightblue" d="M278.593,-789.489C289.927,-818.101 314.712,-871.483 352,-903 359.119,-909.017 368.375,-913.281 376.858,-916.223"/>
<polygon fill="midnightblue" stroke="midnightblue" points="281.744,-787.93 274.91,-779.834 275.204,-790.425 281.744,-787.93"/>
</g>
<!-- Node10 -->
<g id="node10" class="node"><title>Node10</title>
<g id="a_node10"><a xlink:href="../../dc/d77/lstrlib_8c.html#a24a14b4e6e90bac4610dd334bb0b51b6" target="_top" xlink:title="push_onecapture">
<polygon fill="none" stroke="red" points="603,-637.5 603,-656.5 694,-656.5 694,-637.5 603,-637.5"/>
<text text-anchor="middle" x="648.5" y="-644.5" font-family="Helvetica,sans-Serif" font-size="10.00">push_onecapture</text>
</a>
</g>
</g>
<!-- Node3&#45;&gt;Node10 -->
<g id="edge10" class="edge"><title>Node3&#45;&gt;Node10</title>
<path fill="none" stroke="midnightblue" d="M307.983,-782.47C344.706,-793.052 402.551,-804.287 450,-789 534.01,-761.934 612.485,-684.416 638.468,-656.865"/>
<polygon fill="midnightblue" stroke="midnightblue" points="308.796,-779.06 298.211,-779.526 306.776,-785.762 308.796,-779.06"/>
</g>
<!-- Node11 -->
<g id="node11" class="node"><title>Node11</title>
<g id="a_node11"><a xlink:href="../../dc/d77/lstrlib_8c.html#ad24cfa73e5ad25ec99a1b48f0916471e" target="_top" xlink:title="add_value">
<polygon fill="none" stroke="red" points="730,-637.5 730,-656.5 792,-656.5 792,-637.5 730,-637.5"/>
<text text-anchor="middle" x="761" y="-644.5" font-family="Helvetica,sans-Serif" font-size="10.00">add_value</text>
</a>
</g>
</g>
<!-- Node3&#45;&gt;Node11 -->
<g id="edge12" class="edge"><title>Node3&#45;&gt;Node11</title>
<path fill="none" stroke="midnightblue" d="M296.362,-784.402C311.816,-792.508 332.41,-801.819 352,-806 394.596,-815.091 407.147,-813.791 450,-806 577.352,-782.845 708.413,-687.294 747.989,-656.565"/>
<polygon fill="midnightblue" stroke="midnightblue" points="297.917,-781.264 287.459,-779.568 294.577,-787.416 297.917,-781.264"/>
</g>
<!-- Node7&#45;&gt;Node8 -->
<g id="edge7" class="edge"><title>Node7&#45;&gt;Node8</title>
<path fill="none" stroke="midnightblue" d="M437.358,-656C452.598,-656 470.478,-656 486.137,-656"/>
<polygon fill="midnightblue" stroke="midnightblue" points="437.29,-652.5 427.29,-656 437.29,-659.5 437.29,-652.5"/>
</g>
<!-- Node10&#45;&gt;Node11 -->
<g id="edge11" class="edge"><title>Node10&#45;&gt;Node11</title>
<path fill="none" stroke="midnightblue" d="M704.345,-647C713.101,-647 721.87,-647 729.773,-647"/>
<polygon fill="midnightblue" stroke="midnightblue" points="704.126,-643.5 694.126,-647 704.126,-650.5 704.126,-643.5"/>
</g>
<!-- Node13 -->
<g id="node13" class="node"><title>Node13</title>
<g id="a_node13"><a xlink:href="../../d0/d56/lauxlib_8c.html#a36c8f149b779f8c9a5c042ea9784d80a" target="_top" xlink:title="findfield">
<polygon fill="none" stroke="red" points="503,-266.5 503,-285.5 550,-285.5 550,-266.5 503,-266.5"/>
<text text-anchor="middle" x="526.5" y="-273.5" font-family="Helvetica,sans-Serif" font-size="10.00">findfield</text>
</a>
</g>
</g>
<!-- Node12&#45;&gt;Node13 -->
<g id="edge14" class="edge"><title>Node12&#45;&gt;Node13</title>
<path fill="none" stroke="midnightblue" d="M441.454,-174.634C444.533,-176.488 447.437,-178.599 450,-181 477.279,-206.549 459.65,-230.493 486,-257 490.721,-261.749 496.864,-265.479 502.893,-268.328"/>
<polygon fill="midnightblue" stroke="midnightblue" points="442.948,-171.468 432.447,-170.065 439.781,-177.71 442.948,-171.468"/>
</g>
<!-- Node14 -->
<g id="node14" class="node"><title>Node14</title>
<g id="a_node14"><a xlink:href="../../da/d29/lauxlib_8h.html#a664cc293d6c7a7dc67857fe95583a10e" target="_top" xlink:title="luaL_traceback">
<polygon fill="none" stroke="red" points="486,-228.5 486,-247.5 567,-247.5 567,-228.5 486,-228.5"/>
<text text-anchor="middle" x="526.5" y="-235.5" font-family="Helvetica,sans-Serif" font-size="10.00">luaL_traceback</text>
</a>
</g>
</g>
<!-- Node12&#45;&gt;Node14 -->
<g id="edge15" class="edge"><title>Node12&#45;&gt;Node14</title>
<path fill="none" stroke="midnightblue" d="M441.251,-175.845C444.298,-177.425 447.253,-179.142 450,-181 469.271,-194.033 467.207,-205.287 486,-219 490.918,-222.588 496.619,-225.79 502.135,-228.495"/>
<polygon fill="midnightblue" stroke="midnightblue" points="442.5,-172.566 431.956,-171.521 439.547,-178.913 442.5,-172.566"/>
</g>
<!-- Node15 -->
<g id="node15" class="node"><title>Node15</title>
<g id="a_node15"><a xlink:href="../../da/d29/lauxlib_8h.html#a994f73d7985c30672469a260d9e86ae6" target="_top" xlink:title="luaL_error">
<polygon fill="none" stroke="red" points="498,-114.5 498,-133.5 555,-133.5 555,-114.5 498,-114.5"/>
<text text-anchor="middle" x="526.5" y="-121.5" font-family="Helvetica,sans-Serif" font-size="10.00">luaL_error</text>
</a>
</g>
</g>
<!-- Node12&#45;&gt;Node15 -->
<g id="edge16" class="edge"><title>Node12&#45;&gt;Node15</title>
<path fill="none" stroke="midnightblue" d="M441.978,-149.699C460.18,-144.099 481.276,-137.608 497.712,-132.55"/>
<polygon fill="midnightblue" stroke="midnightblue" points="440.74,-146.418 432.211,-152.704 442.799,-153.108 440.74,-146.418"/>
</g>
<!-- Node16 -->
<g id="node16" class="node"><title>Node16</title>
<g id="a_node16"><a xlink:href="../../d8/dd3/lbaselib_8c.html#a2ecfa987569d0b4c1063f3e204e42dd2" target="_top" xlink:title="luaB_error">
<polygon fill="none" stroke="black" points="497,-190.5 497,-209.5 556,-209.5 556,-190.5 497,-190.5"/>
<text text-anchor="middle" x="526.5" y="-197.5" font-family="Helvetica,sans-Serif" font-size="10.00">luaB_error</text>
</a>
</g>
</g>
<!-- Node12&#45;&gt;Node16 -->
<g id="edge19" class="edge"><title>Node12&#45;&gt;Node16</title>
<path fill="none" stroke="midnightblue" d="M441.833,-174.256C459.76,-179.772 480.518,-186.159 496.873,-191.192"/>
<polygon fill="midnightblue" stroke="midnightblue" points="442.799,-170.892 432.211,-171.296 440.74,-177.582 442.799,-170.892"/>
</g>
<!-- Node17 -->
<g id="node17" class="node"><title>Node17</title>
<g id="a_node17"><a xlink:href="../../df/d2d/lcorolib_8c.html#a777abb20385a69ce4787f72bd90375a7" target="_top" xlink:title="luaB_auxwrap">
<polygon fill="none" stroke="red" points="486.5,-152.5 486.5,-171.5 566.5,-171.5 566.5,-152.5 486.5,-152.5"/>
<text text-anchor="middle" x="526.5" y="-159.5" font-family="Helvetica,sans-Serif" font-size="10.00">luaB_auxwrap</text>
</a>
</g>
</g>
<!-- Node12&#45;&gt;Node17 -->
<g id="edge20" class="edge"><title>Node12&#45;&gt;Node17</title>
<path fill="none" stroke="midnightblue" d="M442.571,-162C456.617,-162 472.326,-162 486.262,-162"/>
<polygon fill="midnightblue" stroke="midnightblue" points="442.212,-158.5 432.211,-162 442.211,-165.5 442.212,-158.5"/>
</g>
<!-- Node15&#45;&gt;Node10 -->
<g id="edge18" class="edge"><title>Node15&#45;&gt;Node10</title>
<path fill="none" stroke="midnightblue" d="M563.439,-139.021C564.739,-140.249 565.937,-141.574 567,-143 582.52,-163.827 637.153,-569.397 646.22,-637.373"/>
<polygon fill="midnightblue" stroke="midnightblue" points="565.265,-136.021 555.117,-132.977 561.152,-141.685 565.265,-136.021"/>
</g>
<!-- Node15&#45;&gt;Node11 -->
<g id="edge17" class="edge"><title>Node15&#45;&gt;Node11</title>
<path fill="none" stroke="midnightblue" d="M563.088,-139.312C564.481,-140.463 565.795,-141.691 567,-143 712.958,-301.546 752.435,-582.028 758.949,-637.366"/>
<polygon fill="midnightblue" stroke="midnightblue" points="564.707,-136.184 554.449,-133.531 560.813,-142.001 564.707,-136.184"/>
</g>
<!-- Node19 -->
<g id="node19" class="node"><title>Node19</title>
<g id="a_node19"><a xlink:href="../../d8/d7a/lcode_8c.html#a961993a449bc9612ac966652646ffad6" target="_top" xlink:title="discharge2reg">
<polygon fill="none" stroke="red" points="363.5,-38.5 363.5,-57.5 438.5,-57.5 438.5,-38.5 363.5,-38.5"/>
<text text-anchor="middle" x="401" y="-45.5" font-family="Helvetica,sans-Serif" font-size="10.00">discharge2reg</text>
</a>
</g>
</g>
<!-- Node18&#45;&gt;Node19 -->
<g id="edge22" class="edge"><title>Node18&#45;&gt;Node19</title>
<path fill="none" stroke="midnightblue" d="M313.889,-73.4647C331.37,-68.2952 351.302,-62.4009 367.584,-57.5859"/>
<polygon fill="midnightblue" stroke="midnightblue" points="312.523,-70.2188 303.926,-76.411 314.508,-76.9314 312.523,-70.2188"/>
</g>
<!-- Node20 -->
<g id="node20" class="node"><title>Node20</title>
<g id="a_node20"><a xlink:href="../../d8/d9c/lparser_8c.html#a18532c1a3a900cb8f3399b470c00daf0" target="_top" xlink:title="fornum">
<polygon fill="none" stroke="red" points="379,-0.5 379,-19.5 423,-19.5 423,-0.5 379,-0.5"/>
<text text-anchor="middle" x="401" y="-7.5" font-family="Helvetica,sans-Serif" font-size="10.00">fornum</text>
</a>
</g>
</g>
<!-- Node18&#45;&gt;Node20 -->
<g id="edge23" class="edge"><title>Node18&#45;&gt;Node20</title>
<path fill="none" stroke="midnightblue" d="M307.922,-71.9504C310.733,-70.4177 313.462,-68.7664 316,-67 335.096,-53.7112 332.729,-42.0335 352,-29 360.166,-23.4769 370.177,-19.1922 378.939,-16.1014"/>
<polygon fill="midnightblue" stroke="midnightblue" points="306.221,-68.8862 298.791,-76.4381 309.309,-75.1685 306.221,-68.8862"/>
</g>
<!-- Node21 -->
<g id="node21" class="node"><title>Node21</title>
<g id="a_node21"><a xlink:href="../../dd/d05/lcode_8h.html#a28ef529fcd27c07fb222181894abdf7e" target="_top" xlink:title="luaK_exp2RK">
<polygon fill="none" stroke="red" points="362.5,-76.5 362.5,-95.5 439.5,-95.5 439.5,-76.5 362.5,-76.5"/>
<text text-anchor="middle" x="401" y="-83.5" font-family="Helvetica,sans-Serif" font-size="10.00">luaK_exp2RK</text>
</a>
</g>
</g>
<!-- Node18&#45;&gt;Node21 -->
<g id="edge24" class="edge"><title>Node18&#45;&gt;Node21</title>
<path fill="none" stroke="midnightblue" d="M321.011,-86C334.725,-86 349.387,-86 362.309,-86"/>
<polygon fill="midnightblue" stroke="midnightblue" points="320.752,-82.5001 310.752,-86 320.752,-89.5001 320.752,-82.5001"/>
</g>
<!-- Node23 -->
<g id="node23" class="node"><title>Node23</title>
<g id="a_node23"><a xlink:href="../../d8/d9c/lparser_8c.html#a773c2499cb8938683b25fc0234c1f017" target="_top" xlink:title="anchor_token">
<polygon fill="none" stroke="red" points="364.5,-1178.5 364.5,-1197.5 437.5,-1197.5 437.5,-1178.5 364.5,-1178.5"/>
<text text-anchor="middle" x="401" y="-1185.5" font-family="Helvetica,sans-Serif" font-size="10.00">anchor_token</text>
</a>
</g>
</g>
<!-- Node22&#45;&gt;Node23 -->
<g id="edge26" class="edge"><title>Node22&#45;&gt;Node23</title>
<path fill="none" stroke="midnightblue" d="M302.2,-1144.62C325.71,-1155.05 357.549,-1169.17 378.422,-1178.43"/>
<polygon fill="midnightblue" stroke="midnightblue" points="303.568,-1141.4 293.008,-1140.54 300.73,-1147.79 303.568,-1141.4"/>
</g>
<!-- Node24 -->
<g id="node24" class="node"><title>Node24</title>
<g id="a_node24"><a xlink:href="../../d8/d7a/llex_8c.html#a83faab0338a28c8b97ff1156725cc61b" target="_top" xlink:title="llex">
<polygon fill="none" stroke="red" points="511.5,-1102.5 511.5,-1121.5 541.5,-1121.5 541.5,-1102.5 511.5,-1102.5"/>
<text text-anchor="middle" x="526.5" y="-1109.5" font-family="Helvetica,sans-Serif" font-size="10.00">llex</text>
</a>
</g>
</g>
<!-- Node22&#45;&gt;Node24 -->
<g id="edge27" class="edge"><title>Node22&#45;&gt;Node24</title>
<path fill="none" stroke="midnightblue" d="M321.24,-1134.27C357.159,-1135.83 406.753,-1136.36 450,-1131 471.73,-1128.31 496.192,-1121.41 511.227,-1116.71"/>
<polygon fill="midnightblue" stroke="midnightblue" points="321.177,-1130.76 311.021,-1133.78 320.843,-1137.75 321.177,-1130.76"/>
</g>
<!-- Node25 -->
<g id="node25" class="node"><title>Node25</title>
<g id="a_node25"><a xlink:href="../../d8/d9c/lparser_8c.html#a6d7842332c47d1f9dc803977228e4179" target="_top" xlink:title="new_localvarliteral_">
<polygon fill="none" stroke="black" points="352,-1216.5 352,-1235.5 450,-1235.5 450,-1216.5 352,-1216.5"/>
<text text-anchor="middle" x="401" y="-1223.5" font-family="Helvetica,sans-Serif" font-size="10.00">new_localvarliteral_</text>
</a>
</g>
</g>
<!-- Node22&#45;&gt;Node25 -->
<g id="edge28" class="edge"><title>Node22&#45;&gt;Node25</title>
<path fill="none" stroke="midnightblue" d="M286.484,-1148.59C301.599,-1165.44 326.317,-1190.65 352,-1207 357.746,-1210.66 364.311,-1213.82 370.702,-1216.45"/>
<polygon fill="midnightblue" stroke="midnightblue" points="288.727,-1145.84 279.5,-1140.63 283.465,-1150.46 288.727,-1145.84"/>
</g>
<!-- Node26 -->
<g id="node26" class="node"><title>Node26</title>
<g id="a_node26"><a xlink:href="../../d8/d7a/llex_8c.html#a436a66722128b5e44db3efccaa922aa6" target="_top" xlink:title="read_long_string">
<polygon fill="none" stroke="black" points="358.5,-1102.5 358.5,-1121.5 443.5,-1121.5 443.5,-1102.5 358.5,-1102.5"/>
<text text-anchor="middle" x="401" y="-1109.5" font-family="Helvetica,sans-Serif" font-size="10.00">read_long_string</text>
</a>
</g>
</g>
<!-- Node22&#45;&gt;Node26 -->
<g id="edge29" class="edge"><title>Node22&#45;&gt;Node26</title>
<path fill="none" stroke="midnightblue" d="M321.136,-1123.66C333.337,-1121.86 346.281,-1119.94 358.078,-1118.2"/>
<polygon fill="midnightblue" stroke="midnightblue" points="320.483,-1120.22 311.103,-1125.14 321.507,-1127.14 320.483,-1120.22"/>
</g>
<!-- Node27 -->
<g id="node27" class="node"><title>Node27</title>
<g id="a_node27"><a xlink:href="../../d8/d7a/llex_8c.html#a5a2d8bb78e2b8e9ee25f901c811b2275" target="_top" xlink:title="read_string">
<polygon fill="none" stroke="black" points="370,-1064.5 370,-1083.5 432,-1083.5 432,-1064.5 370,-1064.5"/>
<text text-anchor="middle" x="401" y="-1071.5" font-family="Helvetica,sans-Serif" font-size="10.00">read_string</text>
</a>
</g>
</g>
<!-- Node22&#45;&gt;Node27 -->
<g id="edge31" class="edge"><title>Node22&#45;&gt;Node27</title>
<path fill="none" stroke="midnightblue" d="M300.273,-1116.87C315.536,-1109.51 334.668,-1100.51 352,-1093 359.401,-1089.79 367.531,-1086.49 374.962,-1083.56"/>
<polygon fill="midnightblue" stroke="midnightblue" points="298.331,-1113.92 290.86,-1121.43 301.386,-1120.22 298.331,-1113.92"/>
</g>
<!-- Node26&#45;&gt;Node24 -->
<g id="edge30" class="edge"><title>Node26&#45;&gt;Node24</title>
<path fill="none" stroke="midnightblue" d="M453.882,-1112C474.736,-1112 497.131,-1112 511.22,-1112"/>
<polygon fill="midnightblue" stroke="midnightblue" points="453.812,-1108.5 443.811,-1112 453.811,-1115.5 453.812,-1108.5"/>
</g>
<!-- Node27&#45;&gt;Node24 -->
<g id="edge32" class="edge"><title>Node27&#45;&gt;Node24</title>
<path fill="none" stroke="midnightblue" d="M442.036,-1086.32C465.773,-1093.62 494.417,-1102.44 511.227,-1107.61"/>
<polygon fill="midnightblue" stroke="midnightblue" points="442.799,-1082.89 432.211,-1083.3 440.74,-1089.58 442.799,-1082.89"/>
</g>
<!-- Node29 -->
<g id="node29" class="node"><title>Node29</title>
<g id="a_node29"><a xlink:href="../../d2/d51/lobject_8h.html#a0d323372aa00f179e1c070d305f879f3" target="_top" xlink:title="luaO_pushvfstring">
<polygon fill="none" stroke="red" points="354,-114.5 354,-133.5 448,-133.5 448,-114.5 354,-114.5"/>
<text text-anchor="middle" x="401" y="-121.5" font-family="Helvetica,sans-Serif" font-size="10.00">luaO_pushvfstring</text>
</a>
</g>
</g>
<!-- Node28&#45;&gt;Node29 -->
<g id="edge34" class="edge"><title>Node28&#45;&gt;Node29</title>
<path fill="none" stroke="midnightblue" d="M305.027,-124C319.898,-124 337.641,-124 353.744,-124"/>
<polygon fill="midnightblue" stroke="midnightblue" points="304.77,-120.5 294.77,-124 304.77,-127.5 304.77,-120.5"/>
</g>
<!-- Node31 -->
<g id="node31" class="node"><title>Node31</title>
<g id="a_node31"><a xlink:href="../../da/dd2/lua_8h.html#a341ab0333f0da3035bb3a1266b3bb41e" target="_top" xlink:title="lua_pushstring">
<polygon fill="none" stroke="red" points="362,-570.5 362,-589.5 440,-589.5 440,-570.5 362,-570.5"/>
<text text-anchor="middle" x="401" y="-577.5" font-family="Helvetica,sans-Serif" font-size="10.00">lua_pushstring</text>
</a>
</g>
</g>
<!-- Node30&#45;&gt;Node31 -->
<g id="edge36" class="edge"><title>Node30&#45;&gt;Node31</title>
<path fill="none" stroke="midnightblue" d="M275.677,-409.51C284.128,-444.498 306.454,-518.24 352,-561 356.051,-564.803 360.955,-567.879 366.062,-570.356"/>
<polygon fill="midnightblue" stroke="midnightblue" points="279.052,-408.568 273.409,-399.601 272.228,-410.13 279.052,-408.568"/>
</g>
<!-- Node32 -->
<g id="node32" class="node"><title>Node32</title>
<g id="a_node32"><a xlink:href="../../da/dd2/lua_8h.html#a2b4a9010af0545ae0f822d7f081370d0" target="_top" xlink:title="lua_getglobal">
<polygon fill="none" stroke="red" points="364.5,-380.5 364.5,-399.5 437.5,-399.5 437.5,-380.5 364.5,-380.5"/>
<text text-anchor="middle" x="401" y="-387.5" font-family="Helvetica,sans-Serif" font-size="10.00">lua_getglobal</text>
</a>
</g>
</g>
<!-- Node30&#45;&gt;Node32 -->
<g id="edge38" class="edge"><title>Node30&#45;&gt;Node32</title>
<path fill="none" stroke="midnightblue" d="M310.817,-390C327.786,-390 347.502,-390 364.075,-390"/>
<polygon fill="midnightblue" stroke="midnightblue" points="310.659,-386.5 300.659,-390 310.659,-393.5 310.659,-386.5"/>
</g>
<!-- Node33 -->
<g id="node33" class="node"><title>Node33</title>
<g id="a_node33"><a xlink:href="../../da/dd2/lua_8h.html#ac3112bb28ba217adc46f13da8e9e6585" target="_top" xlink:title="lua_getfield">
<polygon fill="none" stroke="red" points="369.5,-342.5 369.5,-361.5 432.5,-361.5 432.5,-342.5 369.5,-342.5"/>
<text text-anchor="middle" x="401" y="-349.5" font-family="Helvetica,sans-Serif" font-size="10.00">lua_getfield</text>
</a>
</g>
</g>
<!-- Node30&#45;&gt;Node33 -->
<g id="edge39" class="edge"><title>Node30&#45;&gt;Node33</title>
<path fill="none" stroke="midnightblue" d="M310.428,-378.488C329.255,-372.921 351.535,-366.332 369.165,-361.119"/>
<polygon fill="midnightblue" stroke="midnightblue" points="309.256,-375.185 300.659,-381.377 311.241,-381.898 309.256,-375.185"/>
</g>
<!-- Node34 -->
<g id="node34" class="node"><title>Node34</title>
<g id="a_node34"><a xlink:href="../../da/dd2/lua_8h.html#ac0ebe7d753b81f6249dde8cf0b8ea997" target="_top" xlink:title="lua_setglobal">
<polygon fill="none" stroke="red" points="364.5,-304.5 364.5,-323.5 437.5,-323.5 437.5,-304.5 364.5,-304.5"/>
<text text-anchor="middle" x="401" y="-311.5" font-family="Helvetica,sans-Serif" font-size="10.00">lua_setglobal</text>
</a>
</g>
</g>
<!-- Node30&#45;&gt;Node34 -->
<g id="edge40" class="edge"><title>Node30&#45;&gt;Node34</title>
<path fill="none" stroke="midnightblue" d="M291.15,-374.061C306.935,-361.768 330.022,-344.907 352,-333 358.462,-329.499 365.709,-326.292 372.575,-323.549"/>
<polygon fill="midnightblue" stroke="midnightblue" points="288.857,-371.412 283.185,-380.361 293.199,-376.903 288.857,-371.412"/>
</g>
<!-- Node35 -->
<g id="node35" class="node"><title>Node35</title>
<g id="a_node35"><a xlink:href="../../da/dd2/lua_8h.html#a9580a15c141cbe4bf2a63fea625c3878" target="_top" xlink:title="lua_setfield">
<polygon fill="none" stroke="red" points="369.5,-266.5 369.5,-285.5 432.5,-285.5 432.5,-266.5 369.5,-266.5"/>
<text text-anchor="middle" x="401" y="-273.5" font-family="Helvetica,sans-Serif" font-size="10.00">lua_setfield</text>
</a>
</g>
</g>
<!-- Node30&#45;&gt;Node35 -->
<g id="edge41" class="edge"><title>Node30&#45;&gt;Node35</title>
<path fill="none" stroke="midnightblue" d="M282.978,-371.634C296.973,-350.565 322.45,-316.202 352,-295 357.243,-291.238 363.334,-288.089 369.381,-285.507"/>
<polygon fill="midnightblue" stroke="midnightblue" points="279.875,-369.987 277.382,-380.285 285.752,-373.789 279.875,-369.987"/>
</g>
<!-- Node36 -->
<g id="node36" class="node"><title>Node36</title>
<g id="a_node36"><a xlink:href="../../d3/d08/ldo_8c.html#a23bb2b9896d6f5f8a90e4ad610c6901f" target="_top" xlink:title="resume_error">
<polygon fill="none" stroke="red" points="366,-190.5 366,-209.5 436,-209.5 436,-190.5 366,-190.5"/>
<text text-anchor="middle" x="401" y="-197.5" font-family="Helvetica,sans-Serif" font-size="10.00">resume_error</text>
</a>
</g>
</g>
<!-- Node30&#45;&gt;Node36 -->
<g id="edge42" class="edge"><title>Node30&#45;&gt;Node36</title>
<path fill="none" stroke="midnightblue" d="M275.677,-370.49C284.128,-335.502 306.454,-261.76 352,-219 356.051,-215.197 360.955,-212.121 366.062,-209.644"/>
<polygon fill="midnightblue" stroke="midnightblue" points="272.228,-369.87 273.409,-380.399 279.052,-371.432 272.228,-369.87"/>
</g>
<!-- Node37 -->
<g id="node37" class="node"><title>Node37</title>
<g id="a_node37"><a xlink:href="../../d8/d27/llex_8h.html#a5f7573e2f03006437bd01422a0e390df" target="_top" xlink:title="luaX_init">
<polygon fill="none" stroke="red" points="375.5,-608.5 375.5,-627.5 426.5,-627.5 426.5,-608.5 375.5,-608.5"/>
<text text-anchor="middle" x="401" y="-615.5" font-family="Helvetica,sans-Serif" font-size="10.00">luaX_init</text>
</a>
</g>
</g>
<!-- Node30&#45;&gt;Node37 -->
<g id="edge43" class="edge"><title>Node30&#45;&gt;Node37</title>
<path fill="none" stroke="midnightblue" d="M273.807,-409.812C279.569,-450.61 298.217,-544.717 352,-599 358.308,-605.367 367.012,-609.659 375.278,-612.525"/>
<polygon fill="midnightblue" stroke="midnightblue" points="277.265,-409.261 272.505,-399.796 270.324,-410.163 277.265,-409.261"/>
</g>
<!-- Node38 -->
<g id="node38" class="node"><title>Node38</title>
<g id="a_node38"><a xlink:href="../../d8/d27/llex_8h.html#aac9c3f80c74f7d861348e74f5fda1452" target="_top" xlink:title="luaX_setinput">
<polygon fill="none" stroke="black" points="364,-228.5 364,-247.5 438,-247.5 438,-228.5 364,-228.5"/>
<text text-anchor="middle" x="401" y="-235.5" font-family="Helvetica,sans-Serif" font-size="10.00">luaX_setinput</text>
</a>
</g>
</g>
<!-- Node30&#45;&gt;Node38 -->
<g id="edge44" class="edge"><title>Node30&#45;&gt;Node38</title>
<path fill="none" stroke="midnightblue" d="M278.593,-370.511C289.927,-341.899 314.712,-288.517 352,-257 356.518,-253.182 361.896,-250.069 367.392,-247.552"/>
<polygon fill="midnightblue" stroke="midnightblue" points="275.204,-369.575 274.91,-380.166 281.744,-372.07 275.204,-369.575"/>
</g>
<!-- Node39 -->
<g id="node39" class="node"><title>Node39</title>
<g id="a_node39"><a xlink:href="../../d7/d09/lparser_8h.html#af454a43b1cd59d15997af813448e3dbf" target="_top" xlink:title="luaY_parser">
<polygon fill="none" stroke="red" points="492.5,-399.5 492.5,-418.5 560.5,-418.5 560.5,-399.5 492.5,-399.5"/>
<text text-anchor="middle" x="526.5" y="-406.5" font-family="Helvetica,sans-Serif" font-size="10.00">luaY_parser</text>
</a>
</g>
</g>
<!-- Node30&#45;&gt;Node39 -->
<g id="edge48" class="edge"><title>Node30&#45;&gt;Node39</title>
<path fill="none" stroke="midnightblue" d="M280.812,-408.733C293.384,-431.648 318.169,-469.324 352,-485 391.519,-503.312 409.787,-501.734 450,-485 482.797,-471.352 508.682,-435.763 519.713,-418.571"/>
<polygon fill="midnightblue" stroke="midnightblue" points="283.79,-406.876 276.043,-399.648 277.592,-410.129 283.79,-406.876"/>
</g>
<!-- Node40 -->
<g id="node40" class="node"><title>Node40</title>
<g id="a_node40"><a xlink:href="../../d8/d9c/lparser_8c.html#ae8d2e6222dfdaa75cf6fb0c40da47755" target="_top" xlink:title="breaklabel">
<polygon fill="none" stroke="red" points="370.5,-418.5 370.5,-437.5 431.5,-437.5 431.5,-418.5 370.5,-418.5"/>
<text text-anchor="middle" x="401" y="-425.5" font-family="Helvetica,sans-Serif" font-size="10.00">breaklabel</text>
</a>
</g>
</g>
<!-- Node30&#45;&gt;Node40 -->
<g id="edge46" class="edge"><title>Node30&#45;&gt;Node40</title>
<path fill="none" stroke="midnightblue" d="M310.311,-401.477C329.484,-407.147 352.262,-413.883 370.065,-419.148"/>
<polygon fill="midnightblue" stroke="midnightblue" points="311.241,-398.102 300.659,-398.623 309.256,-404.815 311.241,-398.102"/>
</g>
<!-- Node41 -->
<g id="node41" class="node"><title>Node41</title>
<g id="a_node41"><a xlink:href="../../d8/d9c/lparser_8c.html#a1b148e344a9d7e35aba2da4a0a3d7c9d" target="_top" xlink:title="gotostat">
<polygon fill="none" stroke="red" points="376,-532.5 376,-551.5 426,-551.5 426,-532.5 376,-532.5"/>
<text text-anchor="middle" x="401" y="-539.5" font-family="Helvetica,sans-Serif" font-size="10.00">gotostat</text>
</a>
</g>
</g>
<!-- Node30&#45;&gt;Node41 -->
<g id="edge47" class="edge"><title>Node30&#45;&gt;Node41</title>
<path fill="none" stroke="midnightblue" d="M279.476,-409.111C291.642,-436.314 317.148,-486.399 352,-518 358.902,-524.258 367.736,-529.289 375.94,-533.097"/>
<polygon fill="midnightblue" stroke="midnightblue" points="282.535,-407.367 275.346,-399.584 276.113,-410.152 282.535,-407.367"/>
</g>
<!-- Node42 -->
<g id="node42" class="node"><title>Node42</title>
<g id="a_node42"><a xlink:href="../../da/de2/ltm_8h.html#adadf25053747df0beeec91a8836b2dfc" target="_top" xlink:title="luaT_init">
<polygon fill="none" stroke="red" points="376,-456.5 376,-475.5 426,-475.5 426,-456.5 376,-456.5"/>
<text text-anchor="middle" x="401" y="-463.5" font-family="Helvetica,sans-Serif" font-size="10.00">luaT_init</text>
</a>
</g>
</g>
<!-- Node30&#45;&gt;Node42 -->
<g id="edge49" class="edge"><title>Node30&#45;&gt;Node42</title>
<path fill="none" stroke="midnightblue" d="M291.15,-405.939C306.935,-418.232 330.022,-435.093 352,-447 359.407,-451.013 367.847,-454.641 375.561,-457.625"/>
<polygon fill="midnightblue" stroke="midnightblue" points="293.199,-403.097 283.185,-399.639 288.857,-408.588 293.199,-403.097"/>
</g>
<!-- Node31&#45;&gt;Node8 -->
<g id="edge37" class="edge"><title>Node31&#45;&gt;Node8</title>
<path fill="none" stroke="midnightblue" d="M439.084,-593.501C442.838,-595.215 446.539,-597.056 450,-599 474.629,-612.835 500.245,-633.81 514.403,-646.085"/>
<polygon fill="midnightblue" stroke="midnightblue" points="440.322,-590.224 429.751,-589.513 437.572,-596.661 440.322,-590.224"/>
</g>
<!-- Node38&#45;&gt;Node39 -->
<g id="edge45" class="edge"><title>Node38&#45;&gt;Node39</title>
<path fill="none" stroke="midnightblue" d="M444.645,-252.759C446.539,-254.061 448.338,-255.472 450,-257 495.12,-298.476 516.762,-372.897 523.291,-399.347"/>
<polygon fill="midnightblue" stroke="midnightblue" points="446.284,-249.664 435.869,-247.718 442.797,-255.734 446.284,-249.664"/>
</g>
<!-- Node44 -->
<g id="node44" class="node"><title>Node44</title>
<g id="a_node44"><a xlink:href="../../de/d2f/lundump_8c.html#a1854dcefef99e90599873a480c49da5f" target="_top" xlink:title="LoadConstants">
<polygon fill="none" stroke="red" points="359.5,-988.5 359.5,-1007.5 442.5,-1007.5 442.5,-988.5 359.5,-988.5"/>
<text text-anchor="middle" x="401" y="-995.5" font-family="Helvetica,sans-Serif" font-size="10.00">LoadConstants</text>
</a>
</g>
</g>
<!-- Node43&#45;&gt;Node44 -->
<g id="edge51" class="edge"><title>Node43&#45;&gt;Node44</title>
<path fill="none" stroke="midnightblue" d="M311.743,-998C326.908,-998 344.157,-998 359.358,-998"/>
<polygon fill="midnightblue" stroke="midnightblue" points="311.628,-994.5 301.628,-998 311.628,-1001.5 311.628,-994.5"/>
</g>
<!-- Node45 -->
<g id="node45" class="node"><title>Node45</title>
<g id="a_node45"><a xlink:href="../../de/d2f/lundump_8c.html#a89f9807f8a7395e26b0bce7b7f208d20" target="_top" xlink:title="LoadDebug">
<polygon fill="none" stroke="red" points="367,-1026.5 367,-1045.5 435,-1045.5 435,-1026.5 367,-1026.5"/>
<text text-anchor="middle" x="401" y="-1033.5" font-family="Helvetica,sans-Serif" font-size="10.00">LoadDebug</text>
</a>
</g>
</g>
<!-- Node43&#45;&gt;Node45 -->
<g id="edge52" class="edge"><title>Node43&#45;&gt;Node45</title>
<path fill="none" stroke="midnightblue" d="M311.351,-1009.78C329.5,-1015.15 350.699,-1021.42 367.815,-1026.48"/>
<polygon fill="midnightblue" stroke="midnightblue" points="312.21,-1006.39 301.628,-1006.91 310.224,-1013.1 312.21,-1006.39"/>
</g>
<!-- Node47 -->
<g id="node47" class="node"><title>Node47</title>
<g id="a_node47"><a xlink:href="../../da/dd2/lua_8h.html#aabf845b1c7ffc0462988b67ba83955cf" target="_top" xlink:title="lua_tolstring">
<polygon fill="none" stroke="red" points="368.5,-950.5 368.5,-969.5 433.5,-969.5 433.5,-950.5 368.5,-950.5"/>
<text text-anchor="middle" x="401" y="-957.5" font-family="Helvetica,sans-Serif" font-size="10.00">lua_tolstring</text>
</a>
</g>
</g>
<!-- Node46&#45;&gt;Node47 -->
<g id="edge54" class="edge"><title>Node46&#45;&gt;Node47</title>
<path fill="none" stroke="midnightblue" d="M291.15,-899.939C306.935,-912.232 330.022,-929.093 352,-941 358.462,-944.501 365.709,-947.708 372.575,-950.451"/>
<polygon fill="midnightblue" stroke="midnightblue" points="293.199,-897.097 283.185,-893.639 288.857,-902.588 293.199,-897.097"/>
</g>
<!-- Node48&#45;&gt;Node12 -->
<g id="edge56" class="edge"><title>Node48&#45;&gt;Node12</title>
<path fill="none" stroke="midnightblue" d="M315.512,-162C333.466,-162 353.767,-162 369.969,-162"/>
<polygon fill="midnightblue" stroke="midnightblue" points="315.262,-158.5 305.262,-162 315.262,-165.5 315.262,-158.5"/>
</g>
<!-- Node48&#45;&gt;Node29 -->
<g id="edge57" class="edge"><title>Node48&#45;&gt;Node29</title>
<path fill="none" stroke="midnightblue" d="M313.889,-149.465C331.37,-144.295 351.302,-138.401 367.584,-133.586"/>
<polygon fill="midnightblue" stroke="midnightblue" points="312.523,-146.219 303.926,-152.411 314.508,-152.931 312.523,-146.219"/>
</g>
<!-- Node50 -->
<g id="node50" class="node"><title>Node50</title>
<g id="a_node50"><a xlink:href="../../da/dd2/lua_8h.html#a0ed440a42dac5e7faaf51163b274c43c" target="_top" xlink:title="lua_newuserdata">
<polygon fill="none" stroke="red" points="225,-38.5 225,-57.5 316,-57.5 316,-38.5 225,-38.5"/>
<text text-anchor="middle" x="270.5" y="-45.5" font-family="Helvetica,sans-Serif" font-size="10.00">lua_newuserdata</text>
</a>
</g>
</g>
<!-- Node49&#45;&gt;Node50 -->
<g id="edge59" class="edge"><title>Node49&#45;&gt;Node50</title>
<path fill="none" stroke="midnightblue" d="M151.016,-227.123C158.426,-190.739 178.908,-112.953 225,-67 228.807,-63.2042 233.492,-60.1188 238.378,-57.6258"/>
<polygon fill="midnightblue" stroke="midnightblue" points="147.494,-226.91 149.054,-237.389 154.37,-228.224 147.494,-226.91"/>
</g>
</g>
</svg>
